# Viewpoint furniture test asset; Z up, tile units.
mtllib kitchen_test.mtl
o counter_segment
v -0.458000 -0.458000 0.030000
v -0.458000 -0.470000 0.042000
v -0.470000 -0.458000 0.042000
v -0.458000 -0.470000 0.798000
v -0.458000 -0.458000 0.810000
v -0.470000 -0.458000 0.798000
v -0.458000 0.458000 0.030000
v -0.470000 0.458000 0.042000
v -0.458000 0.470000 0.042000
v -0.458000 0.458000 0.810000
v -0.458000 0.470000 0.798000
v -0.470000 0.458000 0.798000
v 0.458000 -0.458000 0.030000
v 0.470000 -0.458000 0.042000
v 0.458000 -0.470000 0.042000
v 0.458000 -0.458000 0.810000
v 0.458000 -0.470000 0.798000
v 0.470000 -0.458000 0.798000
v 0.458000 0.458000 0.030000
v 0.458000 0.470000 0.042000
v 0.470000 0.458000 0.042000
v 0.458000 0.458000 0.810000
v 0.470000 0.458000 0.798000
v 0.458000 0.470000 0.798000
v -0.315000 -0.556000 0.882000
v -0.315000 -0.556000 0.896000
v -0.315000 -0.550000 0.882000
v -0.315000 -0.550000 0.896000
v -0.225000 -0.556000 0.882000
v -0.225000 -0.556000 0.896000
v -0.225000 -0.550000 0.882000
v -0.225000 -0.550000 0.896000
v -0.380500 -0.498000 0.165000
v -0.380500 -0.502500 0.169500
v -0.385000 -0.498000 0.169500
v -0.380500 -0.502500 0.690500
v -0.380500 -0.498000 0.695000
v -0.385000 -0.498000 0.690500
v -0.380500 -0.498000 0.165000
v -0.385000 -0.498000 0.169500
v -0.380500 -0.493500 0.169500
v -0.380500 -0.498000 0.695000
v -0.380500 -0.493500 0.690500
v -0.385000 -0.498000 0.690500
v -0.059500 -0.498000 0.165000
v -0.055000 -0.498000 0.169500
v -0.059500 -0.502500 0.169500
v -0.059500 -0.498000 0.695000
v -0.059500 -0.502500 0.690500
v -0.055000 -0.498000 0.690500
v -0.059500 -0.498000 0.165000
v -0.059500 -0.493500 0.169500
v -0.055000 -0.498000 0.169500
v -0.059500 -0.498000 0.695000
v -0.055000 -0.498000 0.690500
v -0.059500 -0.493500 0.690500
v 0.059500 -0.498000 0.165000
v 0.059500 -0.502500 0.169500
v 0.055000 -0.498000 0.169500
v 0.059500 -0.502500 0.690500
v 0.059500 -0.498000 0.695000
v 0.055000 -0.498000 0.690500
v 0.059500 -0.498000 0.165000
v 0.055000 -0.498000 0.169500
v 0.059500 -0.493500 0.169500
v 0.059500 -0.498000 0.695000
v 0.059500 -0.493500 0.690500
v 0.055000 -0.498000 0.690500
v 0.380500 -0.498000 0.165000
v 0.385000 -0.498000 0.169500
v 0.380500 -0.502500 0.169500
v 0.380500 -0.498000 0.695000
v 0.380500 -0.502500 0.690500
v 0.385000 -0.498000 0.690500
v 0.380500 -0.498000 0.165000
v 0.380500 -0.493500 0.169500
v 0.385000 -0.498000 0.169500
v 0.380500 -0.498000 0.695000
v 0.385000 -0.498000 0.690500
v 0.380500 -0.493500 0.690500
v -0.419500 -0.485500 0.105000
v -0.419500 -0.493500 0.113000
v -0.427500 -0.485500 0.113000
v -0.419500 -0.493500 0.747000
v -0.419500 -0.485500 0.755000
v -0.427500 -0.485500 0.747000
v -0.419500 -0.476500 0.105000
v -0.427500 -0.476500 0.113000
v -0.419500 -0.468500 0.113000
v -0.419500 -0.476500 0.755000
v -0.419500 -0.468500 0.747000
v -0.427500 -0.476500 0.747000
v -0.020500 -0.485500 0.105000
v -0.012500 -0.485500 0.113000
v -0.020500 -0.493500 0.113000
v -0.020500 -0.485500 0.755000
v -0.020500 -0.493500 0.747000
v -0.012500 -0.485500 0.747000
v -0.020500 -0.476500 0.105000
v -0.020500 -0.468500 0.113000
v -0.012500 -0.476500 0.113000
v -0.020500 -0.476500 0.755000
v -0.012500 -0.476500 0.747000
v -0.020500 -0.468500 0.747000
v 0.020500 -0.485500 0.105000
v 0.020500 -0.493500 0.113000
v 0.012500 -0.485500 0.113000
v 0.020500 -0.493500 0.747000
v 0.020500 -0.485500 0.755000
v 0.012500 -0.485500 0.747000
v 0.020500 -0.476500 0.105000
v 0.012500 -0.476500 0.113000
v 0.020500 -0.468500 0.113000
v 0.020500 -0.476500 0.755000
v 0.020500 -0.468500 0.747000
v 0.012500 -0.476500 0.747000
v 0.419500 -0.485500 0.105000
v 0.427500 -0.485500 0.113000
v 0.419500 -0.493500 0.113000
v 0.419500 -0.485500 0.755000
v 0.419500 -0.493500 0.747000
v 0.427500 -0.485500 0.747000
v 0.419500 -0.476500 0.105000
v 0.419500 -0.468500 0.113000
v 0.427500 -0.476500 0.113000
v 0.419500 -0.476500 0.755000
v 0.427500 -0.476500 0.747000
v 0.419500 -0.468500 0.747000
v -0.432000 -0.452000 0.015000
v -0.432000 -0.460000 0.023000
v -0.440000 -0.452000 0.023000
v -0.432000 -0.460000 0.127000
v -0.432000 -0.452000 0.135000
v -0.440000 -0.452000 0.127000
v -0.432000 0.432000 0.015000
v -0.440000 0.432000 0.023000
v -0.432000 0.440000 0.023000
v -0.432000 0.432000 0.135000
v -0.432000 0.440000 0.127000
v -0.440000 0.432000 0.127000
v 0.432000 -0.452000 0.015000
v 0.440000 -0.452000 0.023000
v 0.432000 -0.460000 0.023000
v 0.432000 -0.452000 0.135000
v 0.432000 -0.460000 0.127000
v 0.440000 -0.452000 0.127000
v 0.432000 0.432000 0.015000
v 0.432000 0.440000 0.023000
v 0.440000 0.432000 0.023000
v 0.432000 0.432000 0.135000
v 0.440000 0.432000 0.127000
v 0.432000 0.440000 0.127000
v -0.488000 -0.488000 0.810000
v -0.488000 -0.500000 0.822000
v -0.500000 -0.488000 0.822000
v -0.488000 -0.500000 0.898000
v -0.488000 -0.488000 0.910000
v -0.500000 -0.488000 0.898000
v -0.488000 0.488000 0.810000
v -0.500000 0.488000 0.822000
v -0.488000 0.500000 0.822000
v -0.488000 0.488000 0.910000
v -0.488000 0.500000 0.898000
v -0.500000 0.488000 0.898000
v 0.488000 -0.488000 0.810000
v 0.500000 -0.488000 0.822000
v 0.488000 -0.500000 0.822000
v 0.488000 -0.488000 0.910000
v 0.488000 -0.500000 0.898000
v 0.500000 -0.488000 0.898000
v 0.488000 0.488000 0.810000
v 0.488000 0.500000 0.822000
v 0.500000 0.488000 0.822000
v 0.488000 0.488000 0.910000
v 0.500000 0.488000 0.898000
v 0.488000 0.500000 0.898000
vt 0.125000000 0.500000000
vt 0.125000000 0.500000000
vt 0.125000000 0.500000000
vt 0.125000000 0.500000000
vt 0.125000000 0.500000000
vt 0.125000000 0.500000000
vt 0.125000000 0.500000000
vt 0.125000000 0.500000000
vt 0.125000000 0.500000000
vt 0.125000000 0.500000000
vt 0.125000000 0.500000000
vt 0.125000000 0.500000000
vt 0.125000000 0.500000000
vt 0.125000000 0.500000000
vt 0.125000000 0.500000000
vt 0.125000000 0.500000000
vt 0.125000000 0.500000000
vt 0.125000000 0.500000000
vt 0.125000000 0.500000000
vt 0.125000000 0.500000000
vt 0.125000000 0.500000000
vt 0.125000000 0.500000000
vt 0.125000000 0.500000000
vt 0.125000000 0.500000000
vt 0.125000000 0.500000000
vt 0.125000000 0.500000000
vt 0.125000000 0.500000000
vt 0.125000000 0.500000000
vt 0.125000000 0.500000000
vt 0.125000000 0.500000000
vt 0.125000000 0.500000000
vt 0.125000000 0.500000000
vt 0.125000000 0.500000000
vt 0.125000000 0.500000000
vt 0.125000000 0.500000000
vt 0.125000000 0.500000000
vt 0.125000000 0.500000000
vt 0.125000000 0.500000000
vt 0.125000000 0.500000000
vt 0.125000000 0.500000000
vt 0.125000000 0.500000000
vt 0.125000000 0.500000000
vt 0.125000000 0.500000000
vt 0.125000000 0.500000000
vt 0.125000000 0.500000000
vt 0.125000000 0.500000000
vt 0.125000000 0.500000000
vt 0.125000000 0.500000000
vt 0.125000000 0.500000000
vt 0.125000000 0.500000000
vt 0.125000000 0.500000000
vt 0.125000000 0.500000000
vt 0.125000000 0.500000000
vt 0.125000000 0.500000000
vt 0.125000000 0.500000000
vt 0.125000000 0.500000000
vt 0.125000000 0.500000000
vt 0.125000000 0.500000000
vt 0.125000000 0.500000000
vt 0.125000000 0.500000000
vt 0.125000000 0.500000000
vt 0.125000000 0.500000000
vt 0.125000000 0.500000000
vt 0.125000000 0.500000000
vt 0.125000000 0.500000000
vt 0.125000000 0.500000000
vt 0.125000000 0.500000000
vt 0.125000000 0.500000000
vt 0.125000000 0.500000000
vt 0.125000000 0.500000000
vt 0.125000000 0.500000000
vt 0.125000000 0.500000000
vt 0.125000000 0.500000000
vt 0.125000000 0.500000000
vt 0.125000000 0.500000000
vt 0.125000000 0.500000000
vt 0.125000000 0.500000000
vt 0.125000000 0.500000000
vt 0.125000000 0.500000000
vt 0.125000000 0.500000000
vt 0.125000000 0.500000000
vt 0.125000000 0.500000000
vt 0.125000000 0.500000000
vt 0.125000000 0.500000000
vt 0.125000000 0.500000000
vt 0.125000000 0.500000000
vt 0.125000000 0.500000000
vt 0.125000000 0.500000000
vt 0.125000000 0.500000000
vt 0.125000000 0.500000000
vt 0.125000000 0.500000000
vt 0.125000000 0.500000000
vt 0.125000000 0.500000000
vt 0.125000000 0.500000000
vt 0.125000000 0.500000000
vt 0.125000000 0.500000000
vt 0.125000000 0.500000000
vt 0.125000000 0.500000000
vt 0.125000000 0.500000000
vt 0.125000000 0.500000000
vt 0.125000000 0.500000000
vt 0.125000000 0.500000000
vt 0.125000000 0.500000000
vt 0.125000000 0.500000000
vt 0.125000000 0.500000000
vt 0.125000000 0.500000000
vt 0.125000000 0.500000000
vt 0.125000000 0.500000000
vt 0.125000000 0.500000000
vt 0.125000000 0.500000000
vt 0.125000000 0.500000000
vt 0.125000000 0.500000000
vt 0.125000000 0.500000000
vt 0.125000000 0.500000000
vt 0.125000000 0.500000000
vt 0.125000000 0.500000000
vt 0.125000000 0.500000000
vt 0.125000000 0.500000000
vt 0.125000000 0.500000000
vt 0.125000000 0.500000000
vt 0.125000000 0.500000000
vt 0.125000000 0.500000000
vt 0.125000000 0.500000000
vt 0.125000000 0.500000000
vt 0.125000000 0.500000000
vt 0.125000000 0.500000000
vt 0.125000000 0.500000000
vt 0.125000000 0.500000000
vt 0.125000000 0.500000000
vt 0.125000000 0.500000000
vt 0.125000000 0.500000000
vt 0.125000000 0.500000000
vt 0.375000000 0.500000000
vt 0.375000000 0.500000000
vt 0.375000000 0.500000000
vt 0.375000000 0.500000000
vt 0.375000000 0.500000000
vt 0.375000000 0.500000000
vt 0.375000000 0.500000000
vt 0.375000000 0.500000000
vt 0.375000000 0.500000000
vt 0.375000000 0.500000000
vt 0.375000000 0.500000000
vt 0.375000000 0.500000000
vt 0.375000000 0.500000000
vt 0.375000000 0.500000000
vt 0.375000000 0.500000000
vt 0.375000000 0.500000000
vt 0.375000000 0.500000000
vt 0.375000000 0.500000000
vt 0.375000000 0.500000000
vt 0.375000000 0.500000000
vt 0.375000000 0.500000000
vt 0.375000000 0.500000000
vt 0.375000000 0.500000000
vt 0.375000000 0.500000000
vt 0.375000000 0.500000000
vt 0.375000000 0.500000000
vt 0.375000000 0.500000000
vt 0.375000000 0.500000000
vt 0.375000000 0.500000000
vt 0.375000000 0.500000000
vt 0.375000000 0.500000000
vt 0.375000000 0.500000000
vt 0.375000000 0.500000000
vt 0.375000000 0.500000000
vt 0.375000000 0.500000000
vt 0.375000000 0.500000000
vt 0.125000000 0.500000000
vt 0.125000000 0.500000000
vt 0.125000000 0.500000000
vt 0.125000000 0.500000000
vt 0.125000000 0.500000000
vt 0.125000000 0.500000000
vt 0.125000000 0.500000000
vt 0.125000000 0.500000000
vt 0.125000000 0.500000000
vt 0.125000000 0.500000000
vt 0.125000000 0.500000000
vt 0.125000000 0.500000000
vt 0.125000000 0.500000000
vt 0.125000000 0.500000000
vt 0.125000000 0.500000000
vt 0.125000000 0.500000000
vt 0.125000000 0.500000000
vt 0.125000000 0.500000000
vt 0.125000000 0.500000000
vt 0.125000000 0.500000000
vt 0.125000000 0.500000000
vt 0.125000000 0.500000000
vt 0.125000000 0.500000000
vt 0.125000000 0.500000000
vt 0.125000000 0.500000000
vt 0.125000000 0.500000000
vt 0.125000000 0.500000000
vt 0.125000000 0.500000000
vt 0.125000000 0.500000000
vt 0.125000000 0.500000000
vt 0.125000000 0.500000000
vt 0.125000000 0.500000000
vt 0.125000000 0.500000000
vt 0.125000000 0.500000000
vt 0.125000000 0.500000000
vt 0.125000000 0.500000000
vt 0.125000000 0.500000000
vt 0.125000000 0.500000000
vt 0.125000000 0.500000000
vt 0.125000000 0.500000000
vt 0.125000000 0.500000000
vt 0.125000000 0.500000000
vt 0.125000000 0.500000000
vt 0.125000000 0.500000000
vt 0.125000000 0.500000000
vt 0.125000000 0.500000000
vt 0.125000000 0.500000000
vt 0.125000000 0.500000000
vt 0.125000000 0.500000000
vt 0.125000000 0.500000000
vt 0.125000000 0.500000000
vt 0.125000000 0.500000000
vt 0.125000000 0.500000000
vt 0.125000000 0.500000000
vt 0.125000000 0.500000000
vt 0.125000000 0.500000000
vt 0.125000000 0.500000000
vt 0.125000000 0.500000000
vt 0.125000000 0.500000000
vt 0.125000000 0.500000000
vt 0.125000000 0.500000000
vt 0.125000000 0.500000000
vt 0.125000000 0.500000000
vt 0.125000000 0.500000000
vt 0.125000000 0.500000000
vt 0.125000000 0.500000000
vt 0.125000000 0.500000000
vt 0.125000000 0.500000000
vt 0.125000000 0.500000000
vt 0.125000000 0.500000000
vt 0.125000000 0.500000000
vt 0.125000000 0.500000000
vt 0.125000000 0.500000000
vt 0.125000000 0.500000000
vt 0.125000000 0.500000000
vt 0.125000000 0.500000000
vt 0.125000000 0.500000000
vt 0.125000000 0.500000000
vt 0.125000000 0.500000000
vt 0.125000000 0.500000000
vt 0.125000000 0.500000000
vt 0.125000000 0.500000000
vt 0.125000000 0.500000000
vt 0.125000000 0.500000000
vt 0.125000000 0.500000000
vt 0.125000000 0.500000000
vt 0.125000000 0.500000000
vt 0.125000000 0.500000000
vt 0.125000000 0.500000000
vt 0.125000000 0.500000000
vt 0.125000000 0.500000000
vt 0.125000000 0.500000000
vt 0.125000000 0.500000000
vt 0.125000000 0.500000000
vt 0.125000000 0.500000000
vt 0.125000000 0.500000000
vt 0.125000000 0.500000000
vt 0.125000000 0.500000000
vt 0.125000000 0.500000000
vt 0.125000000 0.500000000
vt 0.125000000 0.500000000
vt 0.125000000 0.500000000
vt 0.125000000 0.500000000
vt 0.125000000 0.500000000
vt 0.125000000 0.500000000
vt 0.125000000 0.500000000
vt 0.125000000 0.500000000
vt 0.125000000 0.500000000
vt 0.125000000 0.500000000
vt 0.125000000 0.500000000
vt 0.125000000 0.500000000
vt 0.125000000 0.500000000
vt 0.125000000 0.500000000
vt 0.125000000 0.500000000
vt 0.125000000 0.500000000
vt 0.125000000 0.500000000
vt 0.125000000 0.500000000
vt 0.125000000 0.500000000
vt 0.125000000 0.500000000
vt 0.125000000 0.500000000
vt 0.125000000 0.500000000
vt 0.125000000 0.500000000
vt 0.125000000 0.500000000
vt 0.125000000 0.500000000
vt 0.125000000 0.500000000
vt 0.125000000 0.500000000
vt 0.125000000 0.500000000
vt 0.125000000 0.500000000
vt 0.125000000 0.500000000
vt 0.125000000 0.500000000
vt 0.125000000 0.500000000
vt 0.125000000 0.500000000
vt 0.125000000 0.500000000
vt 0.125000000 0.500000000
vt 0.125000000 0.500000000
vt 0.125000000 0.500000000
vt 0.125000000 0.500000000
vt 0.125000000 0.500000000
vt 0.125000000 0.500000000
vt 0.125000000 0.500000000
vt 0.125000000 0.500000000
vt 0.125000000 0.500000000
vt 0.125000000 0.500000000
vt 0.125000000 0.500000000
vt 0.125000000 0.500000000
vt 0.125000000 0.500000000
vt 0.125000000 0.500000000
vt 0.125000000 0.500000000
vt 0.125000000 0.500000000
vt 0.125000000 0.500000000
vt 0.125000000 0.500000000
vt 0.125000000 0.500000000
vt 0.125000000 0.500000000
vt 0.125000000 0.500000000
vt 0.125000000 0.500000000
vt 0.125000000 0.500000000
vt 0.125000000 0.500000000
vt 0.125000000 0.500000000
vt 0.125000000 0.500000000
vt 0.125000000 0.500000000
vt 0.125000000 0.500000000
vt 0.125000000 0.500000000
vt 0.125000000 0.500000000
vt 0.125000000 0.500000000
vt 0.125000000 0.500000000
vt 0.125000000 0.500000000
vt 0.125000000 0.500000000
vt 0.125000000 0.500000000
vt 0.375000000 0.500000000
vt 0.375000000 0.500000000
vt 0.375000000 0.500000000
vt 0.375000000 0.500000000
vt 0.375000000 0.500000000
vt 0.375000000 0.500000000
vt 0.375000000 0.500000000
vt 0.375000000 0.500000000
vt 0.375000000 0.500000000
vt 0.375000000 0.500000000
vt 0.375000000 0.500000000
vt 0.375000000 0.500000000
vt 0.375000000 0.500000000
vt 0.375000000 0.500000000
vt 0.375000000 0.500000000
vt 0.375000000 0.500000000
vt 0.375000000 0.500000000
vt 0.375000000 0.500000000
vt 0.375000000 0.500000000
vt 0.375000000 0.500000000
vt 0.375000000 0.500000000
vt 0.375000000 0.500000000
vt 0.375000000 0.500000000
vt 0.375000000 0.500000000
vt 0.375000000 0.500000000
vt 0.375000000 0.500000000
vt 0.375000000 0.500000000
vt 0.375000000 0.500000000
vt 0.375000000 0.500000000
vt 0.375000000 0.500000000
vt 0.375000000 0.500000000
vt 0.375000000 0.500000000
vt 0.375000000 0.500000000
vt 0.375000000 0.500000000
vt 0.375000000 0.500000000
vt 0.375000000 0.500000000
vt 0.375000000 0.500000000
vt 0.375000000 0.500000000
vt 0.375000000 0.500000000
vt 0.375000000 0.500000000
vt 0.375000000 0.500000000
vt 0.375000000 0.500000000
vt 0.375000000 0.500000000
vt 0.375000000 0.500000000
vt 0.375000000 0.500000000
vt 0.375000000 0.500000000
vt 0.375000000 0.500000000
vt 0.375000000 0.500000000
vt 0.375000000 0.500000000
vt 0.375000000 0.500000000
vt 0.375000000 0.500000000
vt 0.375000000 0.500000000
vt 0.375000000 0.500000000
vt 0.375000000 0.500000000
vt 0.375000000 0.500000000
vt 0.375000000 0.500000000
vt 0.375000000 0.500000000
vt 0.375000000 0.500000000
vt 0.375000000 0.500000000
vt 0.375000000 0.500000000
vt 0.375000000 0.500000000
vt 0.375000000 0.500000000
vt 0.375000000 0.500000000
vt 0.375000000 0.500000000
vt 0.375000000 0.500000000
vt 0.375000000 0.500000000
vt 0.375000000 0.500000000
vt 0.375000000 0.500000000
vt 0.375000000 0.500000000
vt 0.375000000 0.500000000
vt 0.375000000 0.500000000
vt 0.375000000 0.500000000
vt 0.375000000 0.500000000
vt 0.375000000 0.500000000
vt 0.375000000 0.500000000
vt 0.375000000 0.500000000
vt 0.375000000 0.500000000
vt 0.375000000 0.500000000
vt 0.375000000 0.500000000
vt 0.375000000 0.500000000
vt 0.375000000 0.500000000
vt 0.375000000 0.500000000
vt 0.375000000 0.500000000
vt 0.375000000 0.500000000
vt 0.375000000 0.500000000
vt 0.375000000 0.500000000
vt 0.375000000 0.500000000
vt 0.375000000 0.500000000
vt 0.375000000 0.500000000
vt 0.375000000 0.500000000
vt 0.375000000 0.500000000
vt 0.375000000 0.500000000
vt 0.375000000 0.500000000
vt 0.375000000 0.500000000
vt 0.375000000 0.500000000
vt 0.375000000 0.500000000
vt 0.375000000 0.500000000
vt 0.375000000 0.500000000
vt 0.375000000 0.500000000
vt 0.375000000 0.500000000
vt 0.375000000 0.500000000
vt 0.375000000 0.500000000
vt 0.375000000 0.500000000
vt 0.375000000 0.500000000
vt 0.375000000 0.500000000
vt 0.375000000 0.500000000
vt 0.375000000 0.500000000
vt 0.375000000 0.500000000
vt 0.375000000 0.500000000
vt 0.375000000 0.500000000
vt 0.375000000 0.500000000
vt 0.375000000 0.500000000
vt 0.375000000 0.500000000
vt 0.375000000 0.500000000
vt 0.375000000 0.500000000
vt 0.375000000 0.500000000
vt 0.375000000 0.500000000
vt 0.375000000 0.500000000
vt 0.375000000 0.500000000
vt 0.375000000 0.500000000
vt 0.375000000 0.500000000
vt 0.375000000 0.500000000
vt 0.375000000 0.500000000
vt 0.375000000 0.500000000
vt 0.375000000 0.500000000
vt 0.375000000 0.500000000
vt 0.375000000 0.500000000
vt 0.375000000 0.500000000
vt 0.375000000 0.500000000
vt 0.375000000 0.500000000
vt 0.375000000 0.500000000
vt 0.375000000 0.500000000
vt 0.375000000 0.500000000
vt 0.375000000 0.500000000
vt 0.375000000 0.500000000
vt 0.375000000 0.500000000
vt 0.375000000 0.500000000
vt 0.375000000 0.500000000
vt 0.375000000 0.500000000
vt 0.375000000 0.500000000
vt 0.375000000 0.500000000
vt 0.375000000 0.500000000
vt 0.375000000 0.500000000
vt 0.375000000 0.500000000
vt 0.375000000 0.500000000
vt 0.375000000 0.500000000
vt 0.375000000 0.500000000
vt 0.375000000 0.500000000
vt 0.375000000 0.500000000
vt 0.375000000 0.500000000
vt 0.375000000 0.500000000
vt 0.375000000 0.500000000
vt 0.375000000 0.500000000
vt 0.375000000 0.500000000
vt 0.375000000 0.500000000
vt 0.375000000 0.500000000
vt 0.375000000 0.500000000
vt 0.375000000 0.500000000
vt 0.375000000 0.500000000
vt 0.375000000 0.500000000
vt 0.375000000 0.500000000
vt 0.375000000 0.500000000
vt 0.375000000 0.500000000
vt 0.375000000 0.500000000
vt 0.375000000 0.500000000
vt 0.375000000 0.500000000
vt 0.375000000 0.500000000
vt 0.375000000 0.500000000
vt 0.375000000 0.500000000
vt 0.375000000 0.500000000
vt 0.375000000 0.500000000
vt 0.375000000 0.500000000
vt 0.375000000 0.500000000
vt 0.375000000 0.500000000
vt 0.375000000 0.500000000
vt 0.375000000 0.500000000
vt 0.375000000 0.500000000
vt 0.375000000 0.500000000
vt 0.375000000 0.500000000
vt 0.375000000 0.500000000
vt 0.375000000 0.500000000
vt 0.375000000 0.500000000
vt 0.375000000 0.500000000
vt 0.375000000 0.500000000
vt 0.375000000 0.500000000
vt 0.375000000 0.500000000
vt 0.375000000 0.500000000
vt 0.375000000 0.500000000
vt 0.375000000 0.500000000
vt 0.375000000 0.500000000
vt 0.375000000 0.500000000
vt 0.375000000 0.500000000
vt 0.375000000 0.500000000
vt 0.375000000 0.500000000
vt 0.375000000 0.500000000
vt 0.375000000 0.500000000
vt 0.375000000 0.500000000
vt 0.375000000 0.500000000
vt 0.375000000 0.500000000
vt 0.375000000 0.500000000
vt 0.375000000 0.500000000
vt 0.375000000 0.500000000
vt 0.375000000 0.500000000
vt 0.375000000 0.500000000
vt 0.375000000 0.500000000
vt 0.375000000 0.500000000
vt 0.375000000 0.500000000
vt 0.375000000 0.500000000
vt 0.375000000 0.500000000
vt 0.375000000 0.500000000
vt 0.375000000 0.500000000
vt 0.375000000 0.500000000
vt 0.375000000 0.500000000
vt 0.375000000 0.500000000
vt 0.375000000 0.500000000
vt 0.375000000 0.500000000
vt 0.375000000 0.500000000
vt 0.375000000 0.500000000
vt 0.375000000 0.500000000
vt 0.375000000 0.500000000
vt 0.375000000 0.500000000
vt 0.375000000 0.500000000
vt 0.375000000 0.500000000
vt 0.375000000 0.500000000
vt 0.375000000 0.500000000
vt 0.375000000 0.500000000
vt 0.375000000 0.500000000
vt 0.375000000 0.500000000
vt 0.375000000 0.500000000
vt 0.375000000 0.500000000
vt 0.375000000 0.500000000
vt 0.375000000 0.500000000
vt 0.375000000 0.500000000
vt 0.375000000 0.500000000
vt 0.375000000 0.500000000
vt 0.375000000 0.500000000
vt 0.375000000 0.500000000
vt 0.375000000 0.500000000
vt 0.375000000 0.500000000
vt 0.375000000 0.500000000
vt 0.375000000 0.500000000
vt 0.375000000 0.500000000
vt 0.375000000 0.500000000
vt 0.375000000 0.500000000
vt 0.375000000 0.500000000
vt 0.375000000 0.500000000
vt 0.375000000 0.500000000
vt 0.375000000 0.500000000
vt 0.375000000 0.500000000
vt 0.375000000 0.500000000
vt 0.375000000 0.500000000
vt 0.375000000 0.500000000
vt 0.375000000 0.500000000
vt 0.375000000 0.500000000
vt 0.375000000 0.500000000
vt 0.375000000 0.500000000
vt 0.375000000 0.500000000
vt 0.375000000 0.500000000
vt 0.375000000 0.500000000
vt 0.375000000 0.500000000
vt 0.375000000 0.500000000
vt 0.375000000 0.500000000
vt 0.375000000 0.500000000
vt 0.375000000 0.500000000
vt 0.625000000 0.500000000
vt 0.625000000 0.500000000
vt 0.625000000 0.500000000
vt 0.625000000 0.500000000
vt 0.625000000 0.500000000
vt 0.625000000 0.500000000
vt 0.625000000 0.500000000
vt 0.625000000 0.500000000
vt 0.625000000 0.500000000
vt 0.625000000 0.500000000
vt 0.625000000 0.500000000
vt 0.625000000 0.500000000
vt 0.625000000 0.500000000
vt 0.625000000 0.500000000
vt 0.625000000 0.500000000
vt 0.625000000 0.500000000
vt 0.625000000 0.500000000
vt 0.625000000 0.500000000
vt 0.625000000 0.500000000
vt 0.625000000 0.500000000
vt 0.625000000 0.500000000
vt 0.625000000 0.500000000
vt 0.625000000 0.500000000
vt 0.625000000 0.500000000
vt 0.625000000 0.500000000
vt 0.625000000 0.500000000
vt 0.625000000 0.500000000
vt 0.625000000 0.500000000
vt 0.625000000 0.500000000
vt 0.625000000 0.500000000
vt 0.625000000 0.500000000
vt 0.625000000 0.500000000
vt 0.625000000 0.500000000
vt 0.625000000 0.500000000
vt 0.625000000 0.500000000
vt 0.625000000 0.500000000
vt 0.625000000 0.500000000
vt 0.625000000 0.500000000
vt 0.625000000 0.500000000
vt 0.625000000 0.500000000
vt 0.625000000 0.500000000
vt 0.625000000 0.500000000
vt 0.625000000 0.500000000
vt 0.625000000 0.500000000
vt 0.625000000 0.500000000
vt 0.625000000 0.500000000
vt 0.625000000 0.500000000
vt 0.625000000 0.500000000
vt 0.625000000 0.500000000
vt 0.625000000 0.500000000
vt 0.625000000 0.500000000
vt 0.625000000 0.500000000
vt 0.625000000 0.500000000
vt 0.625000000 0.500000000
vt 0.625000000 0.500000000
vt 0.625000000 0.500000000
vt 0.625000000 0.500000000
vt 0.625000000 0.500000000
vt 0.625000000 0.500000000
vt 0.625000000 0.500000000
vt 0.625000000 0.500000000
vt 0.625000000 0.500000000
vt 0.625000000 0.500000000
vt 0.625000000 0.500000000
vt 0.625000000 0.500000000
vt 0.625000000 0.500000000
vt 0.625000000 0.500000000
vt 0.625000000 0.500000000
vt 0.625000000 0.500000000
vt 0.625000000 0.500000000
vt 0.625000000 0.500000000
vt 0.625000000 0.500000000
vt 0.625000000 0.500000000
vt 0.625000000 0.500000000
vt 0.625000000 0.500000000
vt 0.625000000 0.500000000
vt 0.625000000 0.500000000
vt 0.625000000 0.500000000
vt 0.625000000 0.500000000
vt 0.625000000 0.500000000
vt 0.625000000 0.500000000
vt 0.625000000 0.500000000
vt 0.625000000 0.500000000
vt 0.625000000 0.500000000
vt 0.625000000 0.500000000
vt 0.625000000 0.500000000
vt 0.625000000 0.500000000
vt 0.625000000 0.500000000
vt 0.625000000 0.500000000
vt 0.625000000 0.500000000
vt 0.625000000 0.500000000
vt 0.625000000 0.500000000
vt 0.625000000 0.500000000
vt 0.625000000 0.500000000
vt 0.625000000 0.500000000
vt 0.625000000 0.500000000
vt 0.625000000 0.500000000
vt 0.625000000 0.500000000
vt 0.625000000 0.500000000
vt 0.625000000 0.500000000
vt 0.625000000 0.500000000
vt 0.625000000 0.500000000
vt 0.625000000 0.500000000
vt 0.625000000 0.500000000
vt 0.625000000 0.500000000
vt 0.625000000 0.500000000
vt 0.625000000 0.500000000
vt 0.625000000 0.500000000
vt 0.625000000 0.500000000
vt 0.625000000 0.500000000
vt 0.625000000 0.500000000
vt 0.625000000 0.500000000
vt 0.625000000 0.500000000
vt 0.625000000 0.500000000
vt 0.625000000 0.500000000
vt 0.625000000 0.500000000
vt 0.625000000 0.500000000
vt 0.625000000 0.500000000
vt 0.625000000 0.500000000
vt 0.625000000 0.500000000
vt 0.625000000 0.500000000
vt 0.625000000 0.500000000
vt 0.625000000 0.500000000
vt 0.625000000 0.500000000
vt 0.625000000 0.500000000
vt 0.625000000 0.500000000
vt 0.625000000 0.500000000
vt 0.625000000 0.500000000
vt 0.625000000 0.500000000
vt 0.625000000 0.500000000
vt 0.625000000 0.500000000
vt 0.625000000 0.500000000
vt 0.875000000 0.500000000
vt 0.875000000 0.500000000
vt 0.875000000 0.500000000
vt 0.875000000 0.500000000
vt 0.875000000 0.500000000
vt 0.875000000 0.500000000
vt 0.875000000 0.500000000
vt 0.875000000 0.500000000
vt 0.875000000 0.500000000
vt 0.875000000 0.500000000
vt 0.875000000 0.500000000
vt 0.875000000 0.500000000
vt 0.875000000 0.500000000
vt 0.875000000 0.500000000
vt 0.875000000 0.500000000
vt 0.875000000 0.500000000
vt 0.875000000 0.500000000
vt 0.875000000 0.500000000
vt 0.875000000 0.500000000
vt 0.875000000 0.500000000
vt 0.875000000 0.500000000
vt 0.875000000 0.500000000
vt 0.875000000 0.500000000
vt 0.875000000 0.500000000
vt 0.875000000 0.500000000
vt 0.875000000 0.500000000
vt 0.875000000 0.500000000
vt 0.875000000 0.500000000
vt 0.875000000 0.500000000
vt 0.875000000 0.500000000
vt 0.875000000 0.500000000
vt 0.875000000 0.500000000
vt 0.875000000 0.500000000
vt 0.875000000 0.500000000
vt 0.875000000 0.500000000
vt 0.875000000 0.500000000
vt 0.875000000 0.500000000
vt 0.875000000 0.500000000
vt 0.875000000 0.500000000
vt 0.875000000 0.500000000
vt 0.875000000 0.500000000
vt 0.875000000 0.500000000
vt 0.875000000 0.500000000
vt 0.875000000 0.500000000
vt 0.875000000 0.500000000
vt 0.875000000 0.500000000
vt 0.875000000 0.500000000
vt 0.875000000 0.500000000
vt 0.875000000 0.500000000
vt 0.875000000 0.500000000
vt 0.875000000 0.500000000
vt 0.875000000 0.500000000
vt 0.875000000 0.500000000
vt 0.875000000 0.500000000
vt 0.875000000 0.500000000
vt 0.875000000 0.500000000
vt 0.875000000 0.500000000
vt 0.875000000 0.500000000
vt 0.875000000 0.500000000
vt 0.875000000 0.500000000
vt 0.875000000 0.500000000
vt 0.875000000 0.500000000
vt 0.875000000 0.500000000
vt 0.875000000 0.500000000
vt 0.875000000 0.500000000
vt 0.875000000 0.500000000
vt 0.875000000 0.500000000
vt 0.875000000 0.500000000
vt 0.875000000 0.500000000
vt 0.875000000 0.500000000
vt 0.875000000 0.500000000
vt 0.875000000 0.500000000
vt 0.875000000 0.500000000
vt 0.875000000 0.500000000
vt 0.875000000 0.500000000
vt 0.875000000 0.500000000
vt 0.875000000 0.500000000
vt 0.875000000 0.500000000
vt 0.875000000 0.500000000
vt 0.875000000 0.500000000
vt 0.875000000 0.500000000
vt 0.875000000 0.500000000
vt 0.875000000 0.500000000
vt 0.875000000 0.500000000
vt 0.875000000 0.500000000
vt 0.875000000 0.500000000
vt 0.875000000 0.500000000
vt 0.875000000 0.500000000
vt 0.875000000 0.500000000
vt 0.875000000 0.500000000
vt 0.875000000 0.500000000
vt 0.875000000 0.500000000
vt 0.875000000 0.500000000
vt 0.875000000 0.500000000
vt 0.875000000 0.500000000
vt 0.875000000 0.500000000
vt 0.875000000 0.500000000
vt 0.875000000 0.500000000
vt 0.875000000 0.500000000
vt 0.875000000 0.500000000
vt 0.875000000 0.500000000
vt 0.875000000 0.500000000
vt 0.875000000 0.500000000
vt 0.875000000 0.500000000
vt 0.875000000 0.500000000
vt 0.875000000 0.500000000
vt 0.875000000 0.500000000
vt 0.875000000 0.500000000
vt 0.875000000 0.500000000
vt 0.875000000 0.500000000
vt 0.875000000 0.500000000
vt 0.875000000 0.500000000
vt 0.875000000 0.500000000
vt 0.875000000 0.500000000
vt 0.875000000 0.500000000
vt 0.875000000 0.500000000
vt 0.875000000 0.500000000
vt 0.875000000 0.500000000
vt 0.875000000 0.500000000
vt 0.875000000 0.500000000
vt 0.875000000 0.500000000
vt 0.875000000 0.500000000
vt 0.875000000 0.500000000
vt 0.875000000 0.500000000
vt 0.875000000 0.500000000
vt 0.875000000 0.500000000
vt 0.875000000 0.500000000
vt 0.875000000 0.500000000
vt 0.875000000 0.500000000
vt 0.875000000 0.500000000
vt 0.875000000 0.500000000
vt 0.875000000 0.500000000
vn -0.577347 -0.577353 -0.577351
vn -0.577346 -0.577352 0.577352
vn -0.577347 0.577353 -0.577351
vn -0.577346 0.577352 0.577352
vn 0.577349 -0.577349 -0.577353
vn 0.577348 -0.577348 0.577354
vn 0.577348 0.577351 -0.577352
vn 0.577347 0.577350 0.577353
vn -0.707104 -0.000000 -0.707109
vn -0.707104 0.000000 -0.707109
vn -0.707103 -0.707110 0.000000
vn -0.707103 -0.707110 0.000000
vn -0.707103 0.000000 0.707110
vn -0.707103 0.000000 0.707110
vn -0.707103 0.707110 0.000000
vn -0.707103 0.707110 0.000000
vn 0.000000 0.707108 -0.707106
vn -0.000000 0.707106 -0.707108
vn -0.000000 0.707105 0.707109
vn -0.000000 0.707107 0.707107
vn 0.707105 0.707109 0.000000
vn 0.707105 0.707109 0.000000
vn 0.707104 0.000000 -0.707109
vn 0.707104 0.000000 -0.707109
vn 0.707103 0.000000 0.707110
vn 0.707103 0.000000 0.707110
vn 0.707107 -0.707107 0.000000
vn 0.707107 -0.707107 0.000000
vn 0.000000 -0.707104 -0.707109
vn 0.000000 -0.707108 -0.707106
vn 0.000000 -0.707107 0.707107
vn 0.000000 -0.707103 0.707110
vn 0.000000 0.000000 -1.000000
vn 0.000000 0.000000 -1.000000
vn -1.000000 0.000000 0.000000
vn -1.000000 0.000000 0.000000
vn 0.000000 -1.000000 0.000000
vn 0.000000 -1.000000 0.000000
vn 0.000000 0.000000 1.000000
vn 0.000000 0.000000 1.000000
vn -0.000000 1.000000 0.000000
vn -0.000000 1.000000 0.000000
vn 1.000000 0.000000 -0.000000
vn 1.000000 0.000000 0.000000
vn -1.000000 0.000000 0.000000
vn -1.000000 0.000000 0.000000
vn 0.000000 1.000000 0.000000
vn 0.000000 1.000000 0.000000
vn 1.000000 0.000000 -0.000000
vn 1.000000 0.000000 0.000000
vn 0.000000 -1.000000 0.000000
vn 0.000000 -1.000000 0.000000
vn 0.000000 0.000000 -1.000000
vn 0.000000 0.000000 -1.000000
vn 0.000000 0.000000 1.000000
vn 0.000000 0.000000 1.000000
vn -0.577359 -0.577344 -0.577348
vn -0.577358 -0.577343 0.577350
vn -0.577359 0.577344 -0.577348
vn -0.577358 0.577343 0.577350
vn 0.577359 -0.577344 -0.577348
vn 0.577358 -0.577343 0.577350
vn 0.577359 0.577344 -0.577348
vn 0.577358 0.577343 0.577350
vn -0.707116 -0.707097 0.000000
vn -0.707116 -0.707097 0.000000
vn -0.707116 0.707097 0.000000
vn -0.707116 0.707097 0.000000
vn 0.000000 0.707105 -0.707109
vn 0.000000 0.707105 -0.707109
vn -0.000000 0.707102 0.707111
vn 0.000000 0.707102 0.707111
vn 0.707116 0.707097 0.000000
vn 0.707116 0.707097 0.000000
vn 0.707116 -0.707097 0.000000
vn 0.707116 -0.707097 0.000000
vn 0.000000 -0.707105 -0.707109
vn 0.000000 -0.707105 -0.707109
vn 0.000000 -0.707102 0.707111
vn 0.000000 -0.707102 0.707111
vn 0.000000 -1.000000 0.000000
vn 0.000000 -1.000000 0.000000
vn 0.000000 1.000000 0.000000
vn 0.000000 1.000000 0.000000
vn -0.577359 -0.577344 -0.577348
vn -0.577358 -0.577343 0.577350
vn -0.577359 0.577344 -0.577348
vn -0.577358 0.577343 0.577350
vn 0.577359 -0.577344 -0.577348
vn 0.577358 -0.577343 0.577350
vn 0.577359 0.577344 -0.577348
vn 0.577358 0.577343 0.577350
vn -0.707116 -0.707097 0.000000
vn -0.707116 -0.707097 0.000000
vn -0.707116 0.707097 0.000000
vn -0.707116 0.707097 0.000000
vn 0.000000 0.707105 -0.707109
vn 0.000000 0.707105 -0.707109
vn -0.000000 0.707102 0.707111
vn 0.000000 0.707102 0.707111
vn 0.707116 0.707097 0.000000
vn 0.707116 0.707097 0.000000
vn 0.707116 -0.707097 0.000000
vn 0.707116 -0.707097 0.000000
vn 0.000000 -0.707105 -0.707109
vn 0.000000 -0.707105 -0.707109
vn 0.000000 -0.707102 0.707111
vn 0.000000 -0.707102 0.707111
vn 0.000000 -1.000000 0.000000
vn 0.000000 -1.000000 0.000000
vn 0.000000 1.000000 0.000000
vn 0.000000 1.000000 0.000000
vn -0.577355 -0.577347 -0.577349
vn -0.577356 -0.577347 0.577347
vn -0.577355 0.577347 -0.577349
vn -0.577356 0.577347 0.577347
vn 0.577355 -0.577347 -0.577349
vn 0.577356 -0.577347 0.577347
vn 0.577355 0.577347 -0.577349
vn 0.577356 0.577347 0.577347
vn -0.707111 -0.000000 -0.707103
vn -0.707111 0.000000 -0.707103
vn -0.707112 -0.707102 0.000000
vn -0.707112 -0.707102 0.000000
vn -0.707112 0.000000 0.707101
vn -0.707112 0.000000 0.707101
vn -0.707112 0.707102 0.000000
vn -0.707112 0.707102 0.000000
vn 0.000000 0.707105 -0.707108
vn 0.000000 0.707105 -0.707108
vn -0.000000 0.707107 0.707107
vn 0.000000 0.707107 0.707107
vn 0.707112 0.707102 0.000000
vn 0.707112 0.707102 0.000000
vn 0.707111 0.000000 -0.707103
vn 0.707111 0.000000 -0.707103
vn 0.707112 0.000000 0.707101
vn 0.707112 0.000000 0.707101
vn 0.707112 -0.707102 0.000000
vn 0.707112 -0.707102 0.000000
vn 0.000000 -0.707105 -0.707108
vn 0.000000 -0.707105 -0.707108
vn 0.000000 -0.707107 0.707107
vn 0.000000 -0.707107 0.707107
vn 0.000000 0.000000 -1.000000
vn 0.000000 0.000000 -1.000000
vn -1.000000 0.000000 0.000000
vn -1.000000 0.000000 0.000000
vn 0.000000 -1.000000 0.000000
vn 0.000000 -1.000000 0.000000
vn 0.000000 0.000000 1.000000
vn 0.000000 0.000000 1.000000
vn 0.000000 1.000000 0.000000
vn 0.000000 1.000000 0.000000
vn 1.000000 0.000000 -0.000000
vn 1.000000 0.000000 0.000000
vn -0.577355 -0.577347 -0.577349
vn -0.577356 -0.577347 0.577347
vn -0.577355 0.577347 -0.577349
vn -0.577356 0.577347 0.577347
vn 0.577355 -0.577347 -0.577349
vn 0.577356 -0.577347 0.577347
vn 0.577355 0.577347 -0.577349
vn 0.577356 0.577347 0.577347
vn -0.707111 -0.000000 -0.707103
vn -0.707111 0.000000 -0.707103
vn -0.707112 -0.707102 0.000000
vn -0.707112 -0.707102 0.000000
vn -0.707112 0.000000 0.707101
vn -0.707112 0.000000 0.707101
vn -0.707112 0.707102 0.000000
vn -0.707112 0.707102 0.000000
vn 0.000000 0.707105 -0.707108
vn 0.000000 0.707105 -0.707108
vn -0.000000 0.707107 0.707107
vn 0.000000 0.707107 0.707107
vn 0.707112 0.707102 0.000000
vn 0.707112 0.707102 0.000000
vn 0.707111 0.000000 -0.707103
vn 0.707111 0.000000 -0.707103
vn 0.707112 0.000000 0.707101
vn 0.707112 0.000000 0.707101
vn 0.707112 -0.707102 0.000000
vn 0.707112 -0.707102 0.000000
vn 0.000000 -0.707105 -0.707108
vn 0.000000 -0.707105 -0.707108
vn 0.000000 -0.707107 0.707107
vn 0.000000 -0.707107 0.707107
vn 0.000000 0.000000 -1.000000
vn 0.000000 0.000000 -1.000000
vn -1.000000 0.000000 0.000000
vn -1.000000 0.000000 0.000000
vn 0.000000 -1.000000 0.000000
vn 0.000000 -1.000000 0.000000
vn 0.000000 0.000000 1.000000
vn 0.000000 0.000000 1.000000
vn 0.000000 1.000000 0.000000
vn 0.000000 1.000000 0.000000
vn 1.000000 0.000000 -0.000000
vn 1.000000 0.000000 0.000000
vn -0.577344 -0.577353 -0.577354
vn -0.577344 -0.577353 0.577354
vn -0.577344 0.577353 -0.577354
vn -0.577344 0.577353 0.577354
vn 0.577341 -0.577359 -0.577351
vn 0.577341 -0.577358 0.577351
vn 0.577343 0.577356 -0.577353
vn 0.577343 0.577356 0.577352
vn -0.707101 -0.000000 -0.707113
vn -0.707101 0.000000 -0.707113
vn -0.707102 -0.707112 0.000000
vn -0.707102 -0.707112 0.000000
vn -0.707101 0.000000 0.707113
vn -0.707101 0.000000 0.707113
vn -0.707102 0.707112 0.000000
vn -0.707102 0.707112 0.000000
vn -0.000000 0.707106 -0.707107
vn 0.000000 0.707109 -0.707105
vn -0.000000 0.707109 0.707105
vn 0.000000 0.707106 0.707107
vn 0.707099 0.707115 0.000000
vn 0.707099 0.707115 0.000000
vn 0.707101 0.000000 -0.707113
vn 0.707101 0.000000 -0.707113
vn 0.707101 0.000000 0.707113
vn 0.707101 0.000000 0.707113
vn 0.707096 -0.707117 0.000000
vn 0.707096 -0.707117 0.000000
vn 0.000000 -0.707111 -0.707102
vn 0.000000 -0.707106 -0.707107
vn 0.000000 -0.707106 0.707107
vn 0.000000 -0.707111 0.707102
vn 0.000000 0.000000 -1.000000
vn 0.000000 0.000000 -1.000000
vn -1.000000 0.000000 0.000000
vn -1.000000 0.000000 0.000000
vn 0.000000 -1.000000 0.000000
vn 0.000000 -1.000000 0.000000
vn 0.000000 0.000000 1.000000
vn 0.000000 0.000000 1.000000
vn 0.000000 1.000000 0.000000
vn 0.000000 1.000000 0.000000
vn 1.000000 0.000000 -0.000000
vn 1.000000 0.000000 0.000000
vn -0.577348 -0.577353 -0.577350
vn -0.577348 -0.577353 0.577350
vn -0.577349 0.577351 -0.577351
vn -0.577349 0.577351 0.577351
vn 0.577347 -0.577353 -0.577350
vn 0.577347 -0.577353 0.577350
vn 0.577347 0.577353 -0.577350
vn 0.577347 0.577353 0.577350
vn -0.707106 -0.000000 -0.707108
vn -0.707106 0.000000 -0.707108
vn -0.707104 -0.707109 0.000000
vn -0.707104 -0.707109 0.000000
vn -0.707106 0.000000 0.707108
vn -0.707106 0.000000 0.707108
vn -0.707106 0.707108 0.000000
vn -0.707106 0.707108 0.000000
vn -0.000000 0.707107 -0.707107
vn 0.000000 0.707109 -0.707105
vn -0.000000 0.707109 0.707105
vn 0.000000 0.707107 0.707107
vn 0.707103 0.707110 0.000000
vn 0.707103 0.707110 0.000000
vn 0.707105 0.000000 -0.707109
vn 0.707105 0.000000 -0.707109
vn 0.707105 0.000000 0.707109
vn 0.707105 0.000000 0.707109
vn 0.707103 -0.707110 0.000000
vn 0.707103 -0.707110 0.000000
vn 0.000000 -0.707109 -0.707105
vn 0.000000 -0.707109 -0.707105
vn 0.000000 -0.707109 0.707105
vn 0.000000 -0.707109 0.707105
vn 0.000000 0.000000 -1.000000
vn 0.000000 0.000000 -1.000000
vn -1.000000 0.000000 0.000000
vn -1.000000 0.000000 0.000000
vn 0.000000 -1.000000 0.000000
vn 0.000000 -1.000000 0.000000
vn 0.000000 0.000000 1.000000
vn 0.000000 0.000000 1.000000
vn 0.000000 1.000000 0.000000
vn 0.000000 1.000000 0.000000
vn 1.000000 0.000000 -0.000000
vn 1.000000 0.000000 0.000000
usemtl reference
f 1/1/1 2/2/1 3/3/1
usemtl reference
f 4/4/2 5/5/2 6/6/2
usemtl reference
f 7/7/3 8/8/3 9/9/3
usemtl reference
f 10/10/4 11/11/4 12/12/4
usemtl reference
f 13/13/5 14/14/5 15/15/5
usemtl reference
f 16/16/6 17/17/6 18/18/6
usemtl reference
f 19/19/7 20/20/7 21/21/7
usemtl reference
f 22/22/8 23/23/8 24/24/8
usemtl reference
f 7/25/9 1/26/9 3/27/9
usemtl reference
f 7/28/10 3/29/10 8/30/10
usemtl reference
f 2/31/11 4/32/11 6/33/11
usemtl reference
f 2/34/12 6/35/12 3/36/12
usemtl reference
f 5/37/13 10/38/13 12/39/13
usemtl reference
f 5/40/14 12/41/14 6/42/14
usemtl reference
f 11/43/15 9/44/15 8/45/15
usemtl reference
f 11/46/16 8/47/16 12/48/16
usemtl reference
f 19/49/17 7/50/17 9/51/17
usemtl reference
f 19/52/18 9/53/18 20/54/18
usemtl reference
f 10/55/19 22/56/19 24/57/19
usemtl reference
f 10/58/20 24/59/20 11/60/20
usemtl reference
f 23/61/21 21/62/21 20/63/21
usemtl reference
f 23/64/22 20/65/22 24/66/22
usemtl reference
f 13/67/23 19/68/23 21/69/23
usemtl reference
f 13/70/24 21/71/24 14/72/24
usemtl reference
f 22/73/25 16/74/25 18/75/25
usemtl reference
f 22/76/26 18/77/26 23/78/26
usemtl reference
f 17/79/27 15/80/27 14/81/27
usemtl reference
f 17/82/28 14/83/28 18/84/28
usemtl reference
f 1/85/29 13/86/29 15/87/29
usemtl reference
f 1/88/30 15/89/30 2/90/30
usemtl reference
f 16/91/31 5/92/31 4/93/31
usemtl reference
f 16/94/32 4/95/32 17/96/32
usemtl reference
f 7/97/33 19/98/33 13/99/33
usemtl reference
f 7/100/34 13/101/34 1/102/34
usemtl reference
f 3/103/35 6/104/35 12/105/35
usemtl reference
f 3/106/36 12/107/36 8/108/36
usemtl reference
f 15/109/37 17/110/37 4/111/37
usemtl reference
f 15/112/38 4/113/38 2/114/38
usemtl reference
f 22/115/39 10/116/39 5/117/39
usemtl reference
f 22/118/40 5/119/40 16/120/40
usemtl reference
f 9/121/41 11/122/41 24/123/41
usemtl reference
f 9/124/42 24/125/42 20/126/42
usemtl reference
f 21/127/43 23/128/43 18/129/43
usemtl reference
f 21/130/44 18/131/44 14/132/44
usemtl reference
f 25/133/45 26/134/45 28/135/45
usemtl reference
f 25/136/46 28/137/46 27/138/46
usemtl reference
f 27/139/47 28/140/47 32/141/47
usemtl reference
f 27/142/48 32/143/48 31/144/48
usemtl reference
f 31/145/49 32/146/49 30/147/49
usemtl reference
f 31/148/50 30/149/50 29/150/50
usemtl reference
f 29/151/51 30/152/51 26/153/51
usemtl reference
f 29/154/52 26/155/52 25/156/52
usemtl reference
f 27/157/53 31/158/53 29/159/53
usemtl reference
f 27/160/54 29/161/54 25/162/54
usemtl reference
f 32/163/55 28/164/55 26/165/55
usemtl reference
f 32/166/56 26/167/56 30/168/56
usemtl reference
f 33/169/57 34/170/57 35/171/57
usemtl reference
f 36/172/58 37/173/58 38/174/58
usemtl reference
f 39/175/59 40/176/59 41/177/59
usemtl reference
f 42/178/60 43/179/60 44/180/60
usemtl reference
f 45/181/61 46/182/61 47/183/61
usemtl reference
f 48/184/62 49/185/62 50/186/62
usemtl reference
f 51/187/63 52/188/63 53/189/63
usemtl reference
f 54/190/64 55/191/64 56/192/64
usemtl reference
f 34/193/65 36/194/65 38/195/65
usemtl reference
f 34/196/66 38/197/66 35/198/66
usemtl reference
f 43/199/67 41/200/67 40/201/67
usemtl reference
f 43/202/68 40/203/68 44/204/68
usemtl reference
f 51/205/69 39/206/69 41/207/69
usemtl reference
f 51/208/70 41/209/70 52/210/70
usemtl reference
f 42/211/71 54/212/71 56/213/71
usemtl reference
f 42/214/72 56/215/72 43/216/72
usemtl reference
f 55/217/73 53/218/73 52/219/73
usemtl reference
f 55/220/74 52/221/74 56/222/74
usemtl reference
f 49/223/75 47/224/75 46/225/75
usemtl reference
f 49/226/76 46/227/76 50/228/76
usemtl reference
f 33/229/77 45/230/77 47/231/77
usemtl reference
f 33/232/78 47/233/78 34/234/78
usemtl reference
f 48/235/79 37/236/79 36/237/79
usemtl reference
f 48/238/80 36/239/80 49/240/80
usemtl reference
f 47/241/81 49/242/81 36/243/81
usemtl reference
f 47/244/82 36/245/82 34/246/82
usemtl reference
f 41/247/83 43/248/83 56/249/83
usemtl reference
f 41/250/84 56/251/84 52/252/84
usemtl reference
f 57/253/85 58/254/85 59/255/85
usemtl reference
f 60/256/86 61/257/86 62/258/86
usemtl reference
f 63/259/87 64/260/87 65/261/87
usemtl reference
f 66/262/88 67/263/88 68/264/88
usemtl reference
f 69/265/89 70/266/89 71/267/89
usemtl reference
f 72/268/90 73/269/90 74/270/90
usemtl reference
f 75/271/91 76/272/91 77/273/91
usemtl reference
f 78/274/92 79/275/92 80/276/92
usemtl reference
f 58/277/93 60/278/93 62/279/93
usemtl reference
f 58/280/94 62/281/94 59/282/94
usemtl reference
f 67/283/95 65/284/95 64/285/95
usemtl reference
f 67/286/96 64/287/96 68/288/96
usemtl reference
f 75/289/97 63/290/97 65/291/97
usemtl reference
f 75/292/98 65/293/98 76/294/98
usemtl reference
f 66/295/99 78/296/99 80/297/99
usemtl reference
f 66/298/100 80/299/100 67/300/100
usemtl reference
f 79/301/101 77/302/101 76/303/101
usemtl reference
f 79/304/102 76/305/102 80/306/102
usemtl reference
f 73/307/103 71/308/103 70/309/103
usemtl reference
f 73/310/104 70/311/104 74/312/104
usemtl reference
f 57/313/105 69/314/105 71/315/105
usemtl reference
f 57/316/106 71/317/106 58/318/106
usemtl reference
f 72/319/107 61/320/107 60/321/107
usemtl reference
f 72/322/108 60/323/108 73/324/108
usemtl reference
f 71/325/109 73/326/109 60/327/109
usemtl reference
f 71/328/110 60/329/110 58/330/110
usemtl reference
f 65/331/111 67/332/111 80/333/111
usemtl reference
f 65/334/112 80/335/112 76/336/112
usemtl reference
f 81/337/113 82/338/113 83/339/113
usemtl reference
f 84/340/114 85/341/114 86/342/114
usemtl reference
f 87/343/115 88/344/115 89/345/115
usemtl reference
f 90/346/116 91/347/116 92/348/116
usemtl reference
f 93/349/117 94/350/117 95/351/117
usemtl reference
f 96/352/118 97/353/118 98/354/118
usemtl reference
f 99/355/119 100/356/119 101/357/119
usemtl reference
f 102/358/120 103/359/120 104/360/120
usemtl reference
f 87/361/121 81/362/121 83/363/121
usemtl reference
f 87/364/122 83/365/122 88/366/122
usemtl reference
f 82/367/123 84/368/123 86/369/123
usemtl reference
f 82/370/124 86/371/124 83/372/124
usemtl reference
f 85/373/125 90/374/125 92/375/125
usemtl reference
f 85/376/126 92/377/126 86/378/126
usemtl reference
f 91/379/127 89/380/127 88/381/127
usemtl reference
f 91/382/128 88/383/128 92/384/128
usemtl reference
f 99/385/129 87/386/129 89/387/129
usemtl reference
f 99/388/130 89/389/130 100/390/130
usemtl reference
f 90/391/131 102/392/131 104/393/131
usemtl reference
f 90/394/132 104/395/132 91/396/132
usemtl reference
f 103/397/133 101/398/133 100/399/133
usemtl reference
f 103/400/134 100/401/134 104/402/134
usemtl reference
f 93/403/135 99/404/135 101/405/135
usemtl reference
f 93/406/136 101/407/136 94/408/136
usemtl reference
f 102/409/137 96/410/137 98/411/137
usemtl reference
f 102/412/138 98/413/138 103/414/138
usemtl reference
f 97/415/139 95/416/139 94/417/139
usemtl reference
f 97/418/140 94/419/140 98/420/140
usemtl reference
f 81/421/141 93/422/141 95/423/141
usemtl reference
f 81/424/142 95/425/142 82/426/142
usemtl reference
f 96/427/143 85/428/143 84/429/143
usemtl reference
f 96/430/144 84/431/144 97/432/144
usemtl reference
f 87/433/145 99/434/145 93/435/145
usemtl reference
f 87/436/146 93/437/146 81/438/146
usemtl reference
f 83/439/147 86/440/147 92/441/147
usemtl reference
f 83/442/148 92/443/148 88/444/148
usemtl reference
f 95/445/149 97/446/149 84/447/149
usemtl reference
f 95/448/150 84/449/150 82/450/150
usemtl reference
f 102/451/151 90/452/151 85/453/151
usemtl reference
f 102/454/152 85/455/152 96/456/152
usemtl reference
f 89/457/153 91/458/153 104/459/153
usemtl reference
f 89/460/154 104/461/154 100/462/154
usemtl reference
f 101/463/155 103/464/155 98/465/155
usemtl reference
f 101/466/156 98/467/156 94/468/156
usemtl reference
f 105/469/157 106/470/157 107/471/157
usemtl reference
f 108/472/158 109/473/158 110/474/158
usemtl reference
f 111/475/159 112/476/159 113/477/159
usemtl reference
f 114/478/160 115/479/160 116/480/160
usemtl reference
f 117/481/161 118/482/161 119/483/161
usemtl reference
f 120/484/162 121/485/162 122/486/162
usemtl reference
f 123/487/163 124/488/163 125/489/163
usemtl reference
f 126/490/164 127/491/164 128/492/164
usemtl reference
f 111/493/165 105/494/165 107/495/165
usemtl reference
f 111/496/166 107/497/166 112/498/166
usemtl reference
f 106/499/167 108/500/167 110/501/167
usemtl reference
f 106/502/168 110/503/168 107/504/168
usemtl reference
f 109/505/169 114/506/169 116/507/169
usemtl reference
f 109/508/170 116/509/170 110/510/170
usemtl reference
f 115/511/171 113/512/171 112/513/171
usemtl reference
f 115/514/172 112/515/172 116/516/172
usemtl reference
f 123/517/173 111/518/173 113/519/173
usemtl reference
f 123/520/174 113/521/174 124/522/174
usemtl reference
f 114/523/175 126/524/175 128/525/175
usemtl reference
f 114/526/176 128/527/176 115/528/176
usemtl reference
f 127/529/177 125/530/177 124/531/177
usemtl reference
f 127/532/178 124/533/178 128/534/178
usemtl reference
f 117/535/179 123/536/179 125/537/179
usemtl reference
f 117/538/180 125/539/180 118/540/180
usemtl reference
f 126/541/181 120/542/181 122/543/181
usemtl reference
f 126/544/182 122/545/182 127/546/182
usemtl reference
f 121/547/183 119/548/183 118/549/183
usemtl reference
f 121/550/184 118/551/184 122/552/184
usemtl reference
f 105/553/185 117/554/185 119/555/185
usemtl reference
f 105/556/186 119/557/186 106/558/186
usemtl reference
f 120/559/187 109/560/187 108/561/187
usemtl reference
f 120/562/188 108/563/188 121/564/188
usemtl reference
f 111/565/189 123/566/189 117/567/189
usemtl reference
f 111/568/190 117/569/190 105/570/190
usemtl reference
f 107/571/191 110/572/191 116/573/191
usemtl reference
f 107/574/192 116/575/192 112/576/192
usemtl reference
f 119/577/193 121/578/193 108/579/193
usemtl reference
f 119/580/194 108/581/194 106/582/194
usemtl reference
f 126/583/195 114/584/195 109/585/195
usemtl reference
f 126/586/196 109/587/196 120/588/196
usemtl reference
f 113/589/197 115/590/197 128/591/197
usemtl reference
f 113/592/198 128/593/198 124/594/198
usemtl reference
f 125/595/199 127/596/199 122/597/199
usemtl reference
f 125/598/200 122/599/200 118/600/200
usemtl reference
f 129/601/201 130/602/201 131/603/201
usemtl reference
f 132/604/202 133/605/202 134/606/202
usemtl reference
f 135/607/203 136/608/203 137/609/203
usemtl reference
f 138/610/204 139/611/204 140/612/204
usemtl reference
f 141/613/205 142/614/205 143/615/205
usemtl reference
f 144/616/206 145/617/206 146/618/206
usemtl reference
f 147/619/207 148/620/207 149/621/207
usemtl reference
f 150/622/208 151/623/208 152/624/208
usemtl reference
f 135/625/209 129/626/209 131/627/209
usemtl reference
f 135/628/210 131/629/210 136/630/210
usemtl reference
f 130/631/211 132/632/211 134/633/211
usemtl reference
f 130/634/212 134/635/212 131/636/212
usemtl reference
f 133/637/213 138/638/213 140/639/213
usemtl reference
f 133/640/214 140/641/214 134/642/214
usemtl reference
f 139/643/215 137/644/215 136/645/215
usemtl reference
f 139/646/216 136/647/216 140/648/216
usemtl reference
f 147/649/217 135/650/217 137/651/217
usemtl reference
f 147/652/218 137/653/218 148/654/218
usemtl reference
f 138/655/219 150/656/219 152/657/219
usemtl reference
f 138/658/220 152/659/220 139/660/220
usemtl reference
f 151/661/221 149/662/221 148/663/221
usemtl reference
f 151/664/222 148/665/222 152/666/222
usemtl reference
f 141/667/223 147/668/223 149/669/223
usemtl reference
f 141/670/224 149/671/224 142/672/224
usemtl reference
f 150/673/225 144/674/225 146/675/225
usemtl reference
f 150/676/226 146/677/226 151/678/226
usemtl reference
f 145/679/227 143/680/227 142/681/227
usemtl reference
f 145/682/228 142/683/228 146/684/228
usemtl reference
f 129/685/229 141/686/229 143/687/229
usemtl reference
f 129/688/230 143/689/230 130/690/230
usemtl reference
f 144/691/231 133/692/231 132/693/231
usemtl reference
f 144/694/232 132/695/232 145/696/232
usemtl reference
f 135/697/233 147/698/233 141/699/233
usemtl reference
f 135/700/234 141/701/234 129/702/234
usemtl reference
f 131/703/235 134/704/235 140/705/235
usemtl reference
f 131/706/236 140/707/236 136/708/236
usemtl reference
f 143/709/237 145/710/237 132/711/237
usemtl reference
f 143/712/238 132/713/238 130/714/238
usemtl reference
f 150/715/239 138/716/239 133/717/239
usemtl reference
f 150/718/240 133/719/240 144/720/240
usemtl reference
f 137/721/241 139/722/241 152/723/241
usemtl reference
f 137/724/242 152/725/242 148/726/242
usemtl reference
f 149/727/243 151/728/243 146/729/243
usemtl reference
f 149/730/244 146/731/244 142/732/244
usemtl reference
f 153/733/245 154/734/245 155/735/245
usemtl reference
f 156/736/246 157/737/246 158/738/246
usemtl reference
f 159/739/247 160/740/247 161/741/247
usemtl reference
f 162/742/248 163/743/248 164/744/248
usemtl reference
f 165/745/249 166/746/249 167/747/249
usemtl reference
f 168/748/250 169/749/250 170/750/250
usemtl reference
f 171/751/251 172/752/251 173/753/251
usemtl reference
f 174/754/252 175/755/252 176/756/252
usemtl reference
f 159/757/253 153/758/253 155/759/253
usemtl reference
f 159/760/254 155/761/254 160/762/254
usemtl reference
f 154/763/255 156/764/255 158/765/255
usemtl reference
f 154/766/256 158/767/256 155/768/256
usemtl reference
f 157/769/257 162/770/257 164/771/257
usemtl reference
f 157/772/258 164/773/258 158/774/258
usemtl reference
f 163/775/259 161/776/259 160/777/259
usemtl reference
f 163/778/260 160/779/260 164/780/260
usemtl reference
f 171/781/261 159/782/261 161/783/261
usemtl reference
f 171/784/262 161/785/262 172/786/262
usemtl reference
f 162/787/263 174/788/263 176/789/263
usemtl reference
f 162/790/264 176/791/264 163/792/264
usemtl reference
f 175/793/265 173/794/265 172/795/265
usemtl reference
f 175/796/266 172/797/266 176/798/266
usemtl reference
f 165/799/267 171/800/267 173/801/267
usemtl reference
f 165/802/268 173/803/268 166/804/268
usemtl reference
f 174/805/269 168/806/269 170/807/269
usemtl reference
f 174/808/270 170/809/270 175/810/270
usemtl reference
f 169/811/271 167/812/271 166/813/271
usemtl reference
f 169/814/272 166/815/272 170/816/272
usemtl reference
f 153/817/273 165/818/273 167/819/273
usemtl reference
f 153/820/274 167/821/274 154/822/274
usemtl reference
f 168/823/275 157/824/275 156/825/275
usemtl reference
f 168/826/276 156/827/276 169/828/276
usemtl reference
f 159/829/277 171/830/277 165/831/277
usemtl reference
f 159/832/278 165/833/278 153/834/278
usemtl reference
f 155/835/279 158/836/279 164/837/279
usemtl reference
f 155/838/280 164/839/280 160/840/280
usemtl reference
f 167/841/281 169/842/281 156/843/281
usemtl reference
f 167/844/282 156/845/282 154/846/282
usemtl reference
f 174/847/283 162/848/283 157/849/283
usemtl reference
f 174/850/284 157/851/284 168/852/284
usemtl reference
f 161/853/285 163/854/285 176/855/285
usemtl reference
f 161/856/286 176/857/286 172/858/286
usemtl reference
f 173/859/287 175/860/287 170/861/287
usemtl reference
f 173/862/288 170/863/288 166/864/288
