# Physical vanilla furniture; Z up; per-tile mesh.
# Tile-local game axes; ObjReader performs the scene conversion.
mtllib pz_bed_bedding_01_large_fancy_1_1.mtl
usemtl original
v -0.5000000 0.4400000 0.4999640
vt 0.050404654 0.656997900
vn 0.00000000 0.00000000 -1.00000000
v 0.4200000 0.4400000 0.4999640
vt 0.193182604 0.591084450
vn 0.00000000 0.00000000 -1.00000000
v 0.4550000 0.4050000 0.4999640
vt 0.204046144 0.591084450
vn 0.00000000 0.00000000 -1.00000000
f 1/1/1 2/2/2 3/3/3
v -0.5000000 0.4400000 0.4999640
vt 0.050404654 0.656997900
vn 0.00000000 0.00000000 -1.00000000
v 0.4550000 0.4050000 0.4999640
vt 0.204046144 0.591084450
vn 0.00000000 0.00000000 -1.00000000
v 0.4550000 -0.5000000 0.4999640
vt 0.344496187 0.655923220
vn 0.00000000 0.00000000 -1.00000000
f 4/4/4 5/5/5 6/6/6
v -0.5000000 0.4400000 0.4999640
vt 0.050404654 0.656997900
vn 0.00000000 0.00000000 -1.00000000
v 0.4550000 -0.5000000 0.4999640
vt 0.344496187 0.655923220
vn 0.00000000 0.00000000 -1.00000000
v -0.5000000 -0.5000000 0.4999640
vt 0.196286473 0.724344240
vn 0.00000000 0.00000000 -1.00000000
f 7/7/7 8/8/8 9/9/9
v 0.4550000 -0.5000000 0.7399640
vt 0.344496187 0.698040940
vn 0.00000000 -0.00000000 1.00000000
v 0.4550000 0.4050000 0.7399640
vt 0.204046144 0.633202170
vn 0.00000000 -0.00000000 1.00000000
v 0.4200000 0.4400000 0.7399640
vt 0.193182604 0.633202170
vn 0.00000000 -0.00000000 1.00000000
f 10/10/10 11/11/11 12/12/12
v 0.4550000 -0.5000000 0.7399640
vt 0.344496187 0.698040940
vn 0.00000000 0.00000000 1.00000000
v 0.4200000 0.4400000 0.7399640
vt 0.193182604 0.633202170
vn 0.00000000 0.00000000 1.00000000
v -0.5000000 0.4400000 0.7399640
vt 0.050404654 0.699115620
vn 0.00000000 0.00000000 1.00000000
f 13/13/13 14/14/14 15/15/15
v 0.4550000 -0.5000000 0.7399640
vt 0.344496187 0.698040940
vn 0.00000000 0.00000000 1.00000000
v -0.5000000 0.4400000 0.7399640
vt 0.050404654 0.699115620
vn 0.00000000 0.00000000 1.00000000
v -0.5000000 -0.5000000 0.7399640
vt 0.196286473 0.766461960
vn 0.00000000 0.00000000 1.00000000
f 16/16/16 17/17/17 18/18/18
v 0.4550000 -0.5000000 0.4999640
vt 0.664140420 0.852858950
vn 1.00000000 0.00000000 0.00000000
v 0.4550000 0.4050000 0.4999640
vt 0.805203796 0.918293120
vn 1.00000000 0.00000000 0.00000000
v 0.4550000 0.4050000 0.7399640
vt 0.805203796 0.960797590
vn 1.00000000 0.00000000 0.00000000
f 19/19/19 20/20/20 21/21/21
v 0.4550000 -0.5000000 0.4999640
vt 0.664140420 0.852858950
vn 1.00000000 0.00000000 0.00000000
v 0.4550000 0.4050000 0.7399640
vt 0.805203796 0.960797590
vn 1.00000000 0.00000000 0.00000000
v 0.4550000 -0.5000000 0.7399640
vt 0.664140420 0.895363430
vn 1.00000000 0.00000000 0.00000000
f 22/22/22 23/23/23 24/24/24
v 0.4550000 0.4050000 0.4999640
vt 0.805203796 0.918293120
vn 0.70710678 0.70710678 0.00000000
v 0.4200000 0.4400000 0.4999640
vt 0.816114766 0.918293120
vn 0.70710678 0.70710678 0.00000000
v 0.4200000 0.4400000 0.7399640
vt 0.816114766 0.960797590
vn 0.70710678 0.70710678 0.00000000
f 25/25/25 26/26/26 27/27/27
v 0.4550000 0.4050000 0.4999640
vt 0.805203796 0.918293120
vn 0.70710678 0.70710678 -0.00000000
v 0.4200000 0.4400000 0.7399640
vt 0.816114766 0.960797590
vn 0.70710678 0.70710678 -0.00000000
v 0.4550000 0.4050000 0.7399640
vt 0.805203796 0.960797590
vn 0.70710678 0.70710678 -0.00000000
f 28/28/28 29/29/29 30/30/30
v 0.4200000 0.4400000 0.4999640
vt 0.193182604 0.591084450
vn 0.00000000 1.00000000 0.00000000
v -0.5000000 0.4400000 0.4999640
vt 0.050404654 0.656997900
vn 0.00000000 1.00000000 0.00000000
v -0.5000000 0.4400000 0.7399640
vt 0.050404654 0.699115620
vn 0.00000000 1.00000000 0.00000000
f 31/31/31 32/32/32 33/33/33
v 0.4200000 0.4400000 0.4999640
vt 0.193182604 0.591084450
vn 0.00000000 1.00000000 -0.00000000
v -0.5000000 0.4400000 0.7399640
vt 0.050404654 0.699115620
vn 0.00000000 1.00000000 -0.00000000
v 0.4200000 0.4400000 0.7399640
vt 0.193182604 0.633202170
vn 0.00000000 1.00000000 -0.00000000
f 34/34/34 35/35/35 36/36/36
v 0.4050000 -0.5000000 0.3999640
vt 0.336736516 0.141956420
vn 0.00000000 0.00000000 -1.00000000
v 0.4050000 0.4400000 0.3999640
vt 0.190854697 0.074610080
vn 0.00000000 0.00000000 -1.00000000
v 0.4750000 0.4400000 0.3999640
vt 0.201718236 0.069594930
vn 0.00000000 0.00000000 -1.00000000
f 37/37/37 38/38/38 39/39/39
v 0.4050000 -0.5000000 0.3999640
vt 0.336736516 0.141956420
vn 0.00000000 0.00000000 -1.00000000
v 0.4750000 0.4400000 0.3999640
vt 0.201718236 0.069594930
vn 0.00000000 0.00000000 -1.00000000
v 0.4750000 -0.5000000 0.3999640
vt 0.347600055 0.136941270
vn 0.00000000 0.00000000 -1.00000000
f 40/40/40 41/41/41 42/42/42
v 0.4750000 -0.5000000 0.3999640
vt 0.661023005 0.336594810
vn 1.00000000 0.00000000 0.00000000
v 0.4750000 0.4400000 0.3999640
vt 0.807541860 0.404559580
vn 1.00000000 0.00000000 0.00000000
v 0.4750000 0.4400000 0.4999640
vt 0.807541860 0.422269780
vn 1.00000000 0.00000000 0.00000000
f 43/43/43 44/44/44 45/45/45
v 0.4750000 -0.5000000 0.3999640
vt 0.661023005 0.336594810
vn 1.00000000 0.00000000 0.00000000
v 0.4750000 0.4400000 0.4999640
vt 0.807541860 0.422269780
vn 1.00000000 0.00000000 0.00000000
v 0.4750000 -0.5000000 0.4999640
vt 0.661023005 0.354305010
vn 1.00000000 0.00000000 0.00000000
f 46/46/46 47/47/47 48/48/48
v 0.4750000 0.4400000 0.3999640
vt 0.201718236 0.069594930
vn 0.00000000 1.00000000 0.00000000
v 0.4050000 0.4400000 0.3999640
vt 0.190854697 0.074610080
vn 0.00000000 1.00000000 0.00000000
v 0.4050000 0.4400000 0.4999640
vt 0.190854697 0.092159130
vn 0.00000000 1.00000000 0.00000000
f 49/49/49 50/50/50 51/51/51
v 0.4750000 0.4400000 0.3999640
vt 0.201718236 0.069594930
vn 0.00000000 1.00000000 -0.00000000
v 0.4050000 0.4400000 0.4999640
vt 0.190854697 0.092159130
vn 0.00000000 1.00000000 -0.00000000
v 0.4750000 0.4400000 0.4999640
vt 0.201718236 0.087143980
vn 0.00000000 1.00000000 -0.00000000
f 52/52/52 53/53/53 54/54/54
v 0.4050000 0.4400000 0.3999640
vt 0.190854697 0.074610080
vn -1.00000000 0.00000000 0.00000000
v 0.4050000 -0.5000000 0.3999640
vt 0.336736516 0.141956420
vn -1.00000000 0.00000000 0.00000000
v 0.4050000 -0.5000000 0.4999640
vt 0.336736516 0.159505470
vn -1.00000000 0.00000000 0.00000000
f 55/55/55 56/56/56 57/57/57
v 0.4050000 0.4400000 0.3999640
vt 0.190854697 0.074610080
vn -1.00000000 0.00000000 0.00000000
v 0.4050000 -0.5000000 0.4999640
vt 0.336736516 0.159505470
vn -1.00000000 0.00000000 0.00000000
v 0.4050000 0.4400000 0.4999640
vt 0.190854697 0.092159130
vn -1.00000000 0.00000000 0.00000000
f 58/58/58 59/59/59 60/60/60
v 0.4750000 -0.5000000 0.4999640
vt 0.347600055 0.154490320
vn 0.00000000 -0.00000000 1.00000000
v 0.4750000 0.4400000 0.4999640
vt 0.201718236 0.087143980
vn 0.00000000 -0.00000000 1.00000000
v 0.4050000 0.4400000 0.4999640
vt 0.190854697 0.092159130
vn 0.00000000 -0.00000000 1.00000000
f 61/61/61 62/62/62 63/63/63
v 0.4750000 -0.5000000 0.4999640
vt 0.347600055 0.154490320
vn 0.00000000 0.00000000 1.00000000
v 0.4050000 0.4400000 0.4999640
vt 0.190854697 0.092159130
vn 0.00000000 0.00000000 1.00000000
v 0.4050000 -0.5000000 0.4999640
vt 0.336736516 0.159505470
vn 0.00000000 0.00000000 1.00000000
f 64/64/64 65/65/65 66/66/66
v -0.5000000 0.4700000 0.3999640
vt 0.045748851 0.137299500
vn 0.00000000 0.00000000 -1.00000000
v 0.4450000 0.4700000 0.3999640
vt 0.192406631 0.069594930
vn 0.00000000 0.00000000 -1.00000000
v 0.4450000 0.4000000 0.3999640
vt 0.203270171 0.074610080
vn 0.00000000 0.00000000 -1.00000000
f 67/67/67 68/68/68 69/69/69
v -0.5000000 0.4700000 0.3999640
vt 0.045748851 0.137299500
vn 0.00000000 0.00000000 -1.00000000
v 0.4450000 0.4000000 0.3999640
vt 0.203270171 0.074610080
vn 0.00000000 0.00000000 -1.00000000
v -0.5000000 0.4000000 0.3999640
vt 0.056612391 0.142314650
vn 0.00000000 0.00000000 -1.00000000
f 70/70/70 71/71/71 72/72/72
v -0.5000000 0.4000000 0.3999640
vt 0.953281353 0.331172090
vn 0.00000000 -1.00000000 0.00000000
v 0.4450000 0.4000000 0.3999640
vt 0.805983147 0.399498370
vn 0.00000000 -1.00000000 0.00000000
v 0.4450000 0.4000000 0.4999640
vt 0.805983147 0.417208570
vn 0.00000000 -1.00000000 0.00000000
f 73/73/73 74/74/74 75/75/75
v -0.5000000 0.4000000 0.3999640
vt 0.953281353 0.331172090
vn 0.00000000 -1.00000000 0.00000000
v 0.4450000 0.4000000 0.4999640
vt 0.805983147 0.417208570
vn 0.00000000 -1.00000000 0.00000000
v -0.5000000 0.4000000 0.4999640
vt 0.953281353 0.348882290
vn 0.00000000 -1.00000000 0.00000000
f 76/76/76 77/77/77 78/78/78
v 0.4450000 0.4000000 0.3999640
vt 0.805983147 0.399498370
vn 1.00000000 0.00000000 0.00000000
v 0.4450000 0.4700000 0.3999640
vt 0.816894129 0.404559580
vn 1.00000000 0.00000000 0.00000000
v 0.4450000 0.4700000 0.4999640
vt 0.816894129 0.422269780
vn 1.00000000 0.00000000 0.00000000
f 79/79/79 80/80/80 81/81/81
v 0.4450000 0.4000000 0.3999640
vt 0.805983147 0.399498370
vn 1.00000000 0.00000000 0.00000000
v 0.4450000 0.4700000 0.4999640
vt 0.816894129 0.422269780
vn 1.00000000 0.00000000 0.00000000
v 0.4450000 0.4000000 0.4999640
vt 0.805983147 0.417208570
vn 1.00000000 0.00000000 0.00000000
f 82/82/82 83/83/83 84/84/84
v 0.4450000 0.4700000 0.3999640
vt 0.192406631 0.069594930
vn 0.00000000 1.00000000 0.00000000
v -0.5000000 0.4700000 0.3999640
vt 0.045748851 0.137299500
vn 0.00000000 1.00000000 0.00000000
v -0.5000000 0.4700000 0.4999640
vt 0.045748851 0.154848550
vn 0.00000000 1.00000000 0.00000000
f 85/85/85 86/86/86 87/87/87
v 0.4450000 0.4700000 0.3999640
vt 0.192406631 0.069594930
vn 0.00000000 1.00000000 -0.00000000
v -0.5000000 0.4700000 0.4999640
vt 0.045748851 0.154848550
vn 0.00000000 1.00000000 -0.00000000
v 0.4450000 0.4700000 0.4999640
vt 0.192406631 0.087143980
vn 0.00000000 1.00000000 -0.00000000
f 88/88/88 89/89/89 90/90/90
v -0.5000000 0.4000000 0.4999640
vt 0.056612391 0.159863700
vn 0.00000000 0.00000000 1.00000000
v 0.4450000 0.4000000 0.4999640
vt 0.203270171 0.092159130
vn 0.00000000 0.00000000 1.00000000
v 0.4450000 0.4700000 0.4999640
vt 0.192406631 0.087143980
vn 0.00000000 0.00000000 1.00000000
f 91/91/91 92/92/92 93/93/93
v -0.5000000 0.4000000 0.4999640
vt 0.056612391 0.159863700
vn 0.00000000 0.00000000 1.00000000
v 0.4450000 0.4700000 0.4999640
vt 0.192406631 0.087143980
vn 0.00000000 0.00000000 1.00000000
v -0.5000000 0.4700000 0.4999640
vt 0.045748851 0.154848550
vn 0.00000000 0.00000000 1.00000000
f 94/94/94 95/95/95 96/96/96
v 0.3750000 0.3750000 0.0000000
vt 0.196286473 0.011226480
vn 0.00000000 0.00000000 -1.00000000
v 0.3750000 0.4450000 0.0000000
vt 0.185422933 0.006211330
vn 0.00000000 0.00000000 -1.00000000
v 0.4450000 0.4450000 0.0000000
vt 0.196286473 0.001196170
vn 0.00000000 0.00000000 -1.00000000
f 97/97/97 98/98/98 99/99/99
v 0.3750000 0.3750000 0.0000000
vt 0.196286473 0.011226480
vn 0.00000000 0.00000000 -1.00000000
v 0.4450000 0.4450000 0.0000000
vt 0.196286473 0.001196170
vn 0.00000000 0.00000000 -1.00000000
v 0.4450000 0.3750000 0.0000000
vt 0.207150012 0.006211330
vn 0.00000000 0.00000000 -1.00000000
f 100/100/100 101/101/101 102/102/102
v 0.3750000 0.3750000 0.0000000
vt 0.812997351 0.321795170
vn 0.00000000 -1.00000000 0.00000000
v 0.4450000 0.3750000 0.0000000
vt 0.802086370 0.326856380
vn 0.00000000 -1.00000000 0.00000000
v 0.4450000 0.3750000 0.5199640
vt 0.802086370 0.418943040
vn 0.00000000 -1.00000000 0.00000000
f 103/103/103 104/104/104 105/105/105
v 0.3750000 0.3750000 0.0000000
vt 0.812997351 0.321795170
vn 0.00000000 -1.00000000 0.00000000
v 0.4450000 0.3750000 0.5199640
vt 0.802086370 0.418943040
vn 0.00000000 -1.00000000 0.00000000
v 0.3750000 0.3750000 0.5199640
vt 0.812997351 0.413881830
vn 0.00000000 -1.00000000 0.00000000
f 106/106/106 107/107/107 108/108/108
v 0.4450000 0.3750000 0.0000000
vt 0.802086370 0.326856380
vn 1.00000000 0.00000000 0.00000000
v 0.4450000 0.4450000 0.0000000
vt 0.812997351 0.331917590
vn 1.00000000 0.00000000 0.00000000
v 0.4450000 0.4450000 0.5199640
vt 0.812997351 0.424004250
vn 1.00000000 0.00000000 0.00000000
f 109/109/109 110/110/110 111/111/111
v 0.4450000 0.3750000 0.0000000
vt 0.802086370 0.326856380
vn 1.00000000 0.00000000 0.00000000
v 0.4450000 0.4450000 0.5199640
vt 0.812997351 0.424004250
vn 1.00000000 0.00000000 0.00000000
v 0.4450000 0.3750000 0.5199640
vt 0.802086370 0.418943040
vn 1.00000000 0.00000000 0.00000000
f 112/112/112 113/113/113 114/114/114
v 0.4450000 0.4450000 0.0000000
vt 0.196286473 0.001196170
vn 0.00000000 1.00000000 0.00000000
v 0.3750000 0.4450000 0.0000000
vt 0.185422933 0.006211330
vn 0.00000000 1.00000000 0.00000000
v 0.3750000 0.4450000 0.5199640
vt 0.185422933 0.097460070
vn 0.00000000 1.00000000 0.00000000
f 115/115/115 116/116/116 117/117/117
v 0.4450000 0.4450000 0.0000000
vt 0.196286473 0.001196170
vn 0.00000000 1.00000000 -0.00000000
v 0.3750000 0.4450000 0.5199640
vt 0.185422933 0.097460070
vn 0.00000000 1.00000000 -0.00000000
v 0.4450000 0.4450000 0.5199640
vt 0.196286473 0.092444910
vn 0.00000000 1.00000000 -0.00000000
f 118/118/118 119/119/119 120/120/120
v 0.3750000 0.4450000 0.0000000
vt 0.185422933 0.006211330
vn -1.00000000 0.00000000 0.00000000
v 0.3750000 0.3750000 0.0000000
vt 0.196286473 0.011226480
vn -1.00000000 0.00000000 0.00000000
v 0.3750000 0.3750000 0.5199640
vt 0.196286473 0.102475220
vn -1.00000000 0.00000000 0.00000000
f 121/121/121 122/122/122 123/123/123
v 0.3750000 0.4450000 0.0000000
vt 0.185422933 0.006211330
vn -1.00000000 0.00000000 0.00000000
v 0.3750000 0.3750000 0.5199640
vt 0.196286473 0.102475220
vn -1.00000000 0.00000000 0.00000000
v 0.3750000 0.4450000 0.5199640
vt 0.185422933 0.097460070
vn -1.00000000 0.00000000 0.00000000
f 124/124/124 125/125/125 126/126/126
v 0.3750000 0.3750000 0.5199640
vt 0.196286473 0.102475220
vn 0.00000000 0.00000000 1.00000000
v 0.4450000 0.3750000 0.5199640
vt 0.207150012 0.097460070
vn 0.00000000 0.00000000 1.00000000
v 0.4450000 0.4450000 0.5199640
vt 0.196286473 0.092444910
vn 0.00000000 0.00000000 1.00000000
f 127/127/127 128/128/128 129/129/129
v 0.3750000 0.3750000 0.5199640
vt 0.196286473 0.102475220
vn 0.00000000 0.00000000 1.00000000
v 0.4450000 0.4450000 0.5199640
vt 0.196286473 0.092444910
vn 0.00000000 0.00000000 1.00000000
v 0.3750000 0.4450000 0.5199640
vt 0.185422933 0.097460070
vn 0.00000000 0.00000000 1.00000000
f 130/130/130 131/131/131 132/132/132
v 0.4070000 0.4160000 0.0400000
vt 0.194889736 0.013016010
vn 0.00000000 0.00000000 -1.00000000
v 0.4070000 0.4840000 0.0400000
vt 0.184336578 0.008144150
vn 0.00000000 0.00000000 -1.00000000
v 0.4730000 0.4840000 0.0400000
vt 0.194579341 0.003415570
vn 0.00000000 0.00000000 -1.00000000
f 133/133/133 134/134/134 135/135/135
v 0.4070000 0.4160000 0.0400000
vt 0.194889736 0.013016010
vn 0.00000000 0.00000000 -1.00000000
v 0.4730000 0.4840000 0.0400000
vt 0.194579341 0.003415570
vn 0.00000000 0.00000000 -1.00000000
v 0.4730000 0.4160000 0.0400000
vt 0.205132499 0.008287440
vn 0.00000000 0.00000000 -1.00000000
f 136/136/136 137/137/137 138/138/138
v 0.4070000 0.4160000 0.0400000
vt 0.814400192 0.334157370
vn 0.00000000 -1.00000000 0.00000000
v 0.4730000 0.4160000 0.0400000
vt 0.804112688 0.338929360
vn 0.00000000 -1.00000000 0.00000000
v 0.4730000 0.4160000 0.9149640
vt 0.804112688 0.493887230
vn 0.00000000 -1.00000000 0.00000000
f 139/139/139 140/140/140 141/141/141
v 0.4070000 0.4160000 0.0400000
vt 0.814400192 0.334157370
vn 0.00000000 -1.00000000 0.00000000
v 0.4730000 0.4160000 0.9149640
vt 0.804112688 0.493887230
vn 0.00000000 -1.00000000 0.00000000
v 0.4070000 0.4160000 0.9149640
vt 0.814400192 0.489115230
vn 0.00000000 -1.00000000 0.00000000
f 142/142/142 143/143/143 144/144/144
v 0.4730000 0.4160000 0.0400000
vt 0.804112688 0.338929360
vn 1.00000000 0.00000000 0.00000000
v 0.4730000 0.4840000 0.0400000
vt 0.814711925 0.343845960
vn 1.00000000 0.00000000 0.00000000
v 0.4730000 0.4840000 0.9149640
vt 0.814711925 0.498803830
vn 1.00000000 0.00000000 0.00000000
f 145/145/145 146/146/146 147/147/147
v 0.4730000 0.4160000 0.0400000
vt 0.804112688 0.338929360
vn 1.00000000 0.00000000 0.00000000
v 0.4730000 0.4840000 0.9149640
vt 0.814711925 0.498803830
vn 1.00000000 0.00000000 0.00000000
v 0.4730000 0.4160000 0.9149640
vt 0.804112688 0.493887230
vn 1.00000000 0.00000000 0.00000000
f 148/148/148 149/149/149 150/150/150
v 0.4730000 0.4840000 0.0400000
vt 0.194579341 0.003415570
vn 0.00000000 1.00000000 0.00000000
v 0.4070000 0.4840000 0.0400000
vt 0.184336578 0.008144150
vn 0.00000000 1.00000000 0.00000000
v 0.4070000 0.4840000 0.9149640
vt 0.184336578 0.161692010
vn 0.00000000 1.00000000 0.00000000
f 151/151/151 152/152/152 153/153/153
v 0.4730000 0.4840000 0.0400000
vt 0.194579341 0.003415570
vn 0.00000000 1.00000000 -0.00000000
v 0.4070000 0.4840000 0.9149640
vt 0.184336578 0.161692010
vn 0.00000000 1.00000000 -0.00000000
v 0.4730000 0.4840000 0.9149640
vt 0.194579341 0.156963440
vn 0.00000000 1.00000000 -0.00000000
f 154/154/154 155/155/155 156/156/156
v 0.4070000 0.4840000 0.0400000
vt 0.184336578 0.008144150
vn -1.00000000 0.00000000 0.00000000
v 0.4070000 0.4160000 0.0400000
vt 0.194889736 0.013016010
vn -1.00000000 0.00000000 0.00000000
v 0.4070000 0.4160000 0.9149640
vt 0.194889736 0.166563880
vn -1.00000000 0.00000000 0.00000000
f 157/157/157 158/158/158 159/159/159
v 0.4070000 0.4840000 0.0400000
vt 0.184336578 0.008144150
vn -1.00000000 0.00000000 0.00000000
v 0.4070000 0.4160000 0.9149640
vt 0.194889736 0.166563880
vn -1.00000000 0.00000000 0.00000000
v 0.4070000 0.4840000 0.9149640
vt 0.184336578 0.161692010
vn -1.00000000 0.00000000 0.00000000
f 160/160/160 161/161/161 162/162/162
v 0.4070000 0.4160000 0.9149640
vt 0.194889736 0.166563880
vn 0.00000000 0.00000000 1.00000000
v 0.4730000 0.4160000 0.9149640
vt 0.205132499 0.161835300
vn 0.00000000 0.00000000 1.00000000
v 0.4730000 0.4840000 0.9149640
vt 0.194579341 0.156963440
vn 0.00000000 0.00000000 1.00000000
f 163/163/163 164/164/164 165/165/165
v 0.4070000 0.4160000 0.9149640
vt 0.194889736 0.166563880
vn 0.00000000 0.00000000 1.00000000
v 0.4730000 0.4840000 0.9149640
vt 0.194579341 0.156963440
vn 0.00000000 0.00000000 1.00000000
v 0.4070000 0.4840000 0.9149640
vt 0.184336578 0.161692010
vn 0.00000000 0.00000000 1.00000000
f 166/166/166 167/167/167 168/168/168
v -0.5000000 0.4850000 0.8099640
vt 0.043420956 0.208175920
vn 0.00000000 0.00000000 -1.00000000
v 0.4600000 0.4850000 0.8099640
vt 0.192406631 0.139396680
vn 0.00000000 0.00000000 -1.00000000
v 0.4600000 0.4150000 0.8099640
vt 0.203270171 0.144411830
vn 0.00000000 0.00000000 -1.00000000
f 169/169/169 170/170/170 171/171/171
v -0.5000000 0.4850000 0.8099640
vt 0.043420956 0.208175920
vn 0.00000000 0.00000000 -1.00000000
v 0.4600000 0.4150000 0.8099640
vt 0.203270171 0.144411830
vn 0.00000000 0.00000000 -1.00000000
v -0.5000000 0.4150000 0.8099640
vt 0.054284495 0.213191080
vn 0.00000000 0.00000000 -1.00000000
f 172/172/172 173/173/173 174/174/174
v -0.5000000 0.4150000 0.8099640
vt 0.955619429 0.404868450
vn 0.00000000 -1.00000000 0.00000000
v 0.4600000 0.4150000 0.8099640
vt 0.805983147 0.474279280
vn 0.00000000 -1.00000000 0.00000000
v 0.4600000 0.4150000 0.9049640
vt 0.805983147 0.491103970
vn 0.00000000 -1.00000000 0.00000000
f 175/175/175 176/176/176 177/177/177
v -0.5000000 0.4150000 0.8099640
vt 0.955619429 0.404868450
vn 0.00000000 -1.00000000 0.00000000
v 0.4600000 0.4150000 0.9049640
vt 0.805983147 0.491103970
vn 0.00000000 -1.00000000 0.00000000
v -0.5000000 0.4150000 0.9049640
vt 0.955619429 0.421693140
vn 0.00000000 -1.00000000 0.00000000
f 178/178/178 179/179/179 180/180/180
v 0.4600000 0.4150000 0.8099640
vt 0.805983147 0.474279280
vn 1.00000000 0.00000000 0.00000000
v 0.4600000 0.4850000 0.8099640
vt 0.816894129 0.479340480
vn 1.00000000 0.00000000 0.00000000
v 0.4600000 0.4850000 0.9049640
vt 0.816894129 0.496165170
vn 1.00000000 0.00000000 0.00000000
f 181/181/181 182/182/182 183/183/183
v 0.4600000 0.4150000 0.8099640
vt 0.805983147 0.474279280
vn 1.00000000 0.00000000 0.00000000
v 0.4600000 0.4850000 0.9049640
vt 0.816894129 0.496165170
vn 1.00000000 0.00000000 0.00000000
v 0.4600000 0.4150000 0.9049640
vt 0.805983147 0.491103970
vn 1.00000000 0.00000000 0.00000000
f 184/184/184 185/185/185 186/186/186
v 0.4600000 0.4850000 0.8099640
vt 0.192406631 0.139396680
vn 0.00000000 1.00000000 0.00000000
v -0.5000000 0.4850000 0.8099640
vt 0.043420956 0.208175920
vn 0.00000000 1.00000000 0.00000000
v -0.5000000 0.4850000 0.9049640
vt 0.043420956 0.224847520
vn 0.00000000 1.00000000 0.00000000
f 187/187/187 188/188/188 189/189/189
v 0.4600000 0.4850000 0.8099640
vt 0.192406631 0.139396680
vn 0.00000000 1.00000000 -0.00000000
v -0.5000000 0.4850000 0.9049640
vt 0.043420956 0.224847520
vn 0.00000000 1.00000000 -0.00000000
v 0.4600000 0.4850000 0.9049640
vt 0.192406631 0.156068270
vn 0.00000000 1.00000000 -0.00000000
f 190/190/190 191/191/191 192/192/192
v -0.5000000 0.4150000 0.9049640
vt 0.054284495 0.229862670
vn 0.00000000 0.00000000 1.00000000
v 0.4600000 0.4150000 0.9049640
vt 0.203270171 0.161083430
vn 0.00000000 0.00000000 1.00000000
v 0.4600000 0.4850000 0.9049640
vt 0.192406631 0.156068270
vn 0.00000000 0.00000000 1.00000000
f 193/193/193 194/194/194 195/195/195
v -0.5000000 0.4150000 0.9049640
vt 0.054284495 0.229862670
vn 0.00000000 0.00000000 1.00000000
v 0.4600000 0.4850000 0.9049640
vt 0.192406631 0.156068270
vn 0.00000000 0.00000000 1.00000000
v -0.5000000 0.4850000 0.9049640
vt 0.043420956 0.224847520
vn 0.00000000 0.00000000 1.00000000
f 196/196/196 197/197/197 198/198/198
v -0.4242222 0.4240000 0.4999640
vt 0.064647958 0.152715120
vn 0.00000000 0.00000000 -1.00000000
v -0.4242222 0.4760000 0.4999640
vt 0.056577905 0.148989570
vn 0.00000000 0.00000000 -1.00000000
v -0.3802222 0.4760000 0.4999640
vt 0.063406418 0.145837190
vn 0.00000000 0.00000000 -1.00000000
f 199/199/199 200/200/200 201/201/201
v -0.4242222 0.4240000 0.4999640
vt 0.064647958 0.152715120
vn 0.00000000 0.00000000 -1.00000000
v -0.3802222 0.4760000 0.4999640
vt 0.063406418 0.145837190
vn 0.00000000 0.00000000 -1.00000000
v -0.3802222 0.4240000 0.4999640
vt 0.071476471 0.149562730
vn 0.00000000 0.00000000 -1.00000000
f 202/202/202 203/203/203 204/204/204
v -0.4242222 0.4240000 0.4999640
vt 0.945210698 0.356096510
vn 0.00000000 -1.00000000 0.00000000
v -0.3802222 0.4240000 0.4999640
vt 0.938352366 0.359277840
vn 0.00000000 -1.00000000 0.00000000
v -0.3802222 0.4240000 0.8199640
vt 0.938352366 0.415950480
vn 0.00000000 -1.00000000 0.00000000
f 205/205/205 206/206/206 207/207/207
v -0.4242222 0.4240000 0.4999640
vt 0.945210698 0.356096510
vn 0.00000000 -1.00000000 0.00000000
v -0.3802222 0.4240000 0.8199640
vt 0.938352366 0.415950480
vn 0.00000000 -1.00000000 0.00000000
v -0.4242222 0.4240000 0.8199640
vt 0.945210698 0.412769150
vn 0.00000000 -1.00000000 0.00000000
f 208/208/208 209/209/209 210/210/210
v -0.3802222 0.4240000 0.4999640
vt 0.938352366 0.359277840
vn 1.00000000 0.00000000 0.00000000
v -0.3802222 0.4760000 0.4999640
vt 0.946457666 0.363037600
vn 1.00000000 0.00000000 0.00000000
v -0.3802222 0.4760000 0.8199640
vt 0.946457666 0.419710230
vn 1.00000000 0.00000000 0.00000000
f 211/211/211 212/212/212 213/213/213
v -0.3802222 0.4240000 0.4999640
vt 0.938352366 0.359277840
vn 1.00000000 0.00000000 0.00000000
v -0.3802222 0.4760000 0.8199640
vt 0.946457666 0.419710230
vn 1.00000000 0.00000000 0.00000000
v -0.3802222 0.4240000 0.8199640
vt 0.938352366 0.415950480
vn 1.00000000 0.00000000 0.00000000
f 214/214/214 215/215/215 216/216/216
v -0.3802222 0.4760000 0.4999640
vt 0.063406418 0.145837190
vn 0.00000000 1.00000000 0.00000000
v -0.4242222 0.4760000 0.4999640
vt 0.056577905 0.148989570
vn 0.00000000 1.00000000 0.00000000
v -0.4242222 0.4760000 0.8199640
vt 0.056577905 0.205146530
vn 0.00000000 1.00000000 0.00000000
f 217/217/217 218/218/218 219/219/219
v -0.3802222 0.4760000 0.4999640
vt 0.063406418 0.145837190
vn 0.00000000 1.00000000 -0.00000000
v -0.4242222 0.4760000 0.8199640
vt 0.056577905 0.205146530
vn 0.00000000 1.00000000 -0.00000000
v -0.3802222 0.4760000 0.8199640
vt 0.063406418 0.201994150
vn 0.00000000 1.00000000 -0.00000000
f 220/220/220 221/221/221 222/222/222
v -0.4242222 0.4760000 0.4999640
vt 0.056577905 0.148989570
vn -1.00000000 0.00000000 0.00000000
v -0.4242222 0.4240000 0.4999640
vt 0.064647958 0.152715120
vn -1.00000000 0.00000000 0.00000000
v -0.4242222 0.4240000 0.8199640
vt 0.064647958 0.208872070
vn -1.00000000 0.00000000 0.00000000
f 223/223/223 224/224/224 225/225/225
v -0.4242222 0.4760000 0.4999640
vt 0.056577905 0.148989570
vn -1.00000000 0.00000000 0.00000000
v -0.4242222 0.4240000 0.8199640
vt 0.064647958 0.208872070
vn -1.00000000 0.00000000 0.00000000
v -0.4242222 0.4760000 0.8199640
vt 0.056577905 0.205146530
vn -1.00000000 0.00000000 0.00000000
f 226/226/226 227/227/227 228/228/228
v -0.4242222 0.4240000 0.8199640
vt 0.064647958 0.208872070
vn 0.00000000 0.00000000 1.00000000
v -0.3802222 0.4240000 0.8199640
vt 0.071476471 0.205719690
vn 0.00000000 0.00000000 1.00000000
v -0.3802222 0.4760000 0.8199640
vt 0.063406418 0.201994150
vn 0.00000000 0.00000000 1.00000000
f 229/229/229 230/230/230 231/231/231
v -0.4242222 0.4240000 0.8199640
vt 0.064647958 0.208872070
vn 0.00000000 0.00000000 1.00000000
v -0.3802222 0.4760000 0.8199640
vt 0.063406418 0.201994150
vn 0.00000000 0.00000000 1.00000000
v -0.4242222 0.4760000 0.8199640
vt 0.056577905 0.205146530
vn 0.00000000 0.00000000 1.00000000
f 232/232/232 233/233/233 234/234/234
v -0.2286667 0.4240000 0.4999640
vt 0.094996896 0.138704530
vn 0.00000000 0.00000000 -1.00000000
v -0.2286667 0.4760000 0.4999640
vt 0.086926843 0.134978990
vn 0.00000000 0.00000000 -1.00000000
v -0.1846667 0.4760000 0.4999640
vt 0.093755356 0.131826600
vn 0.00000000 0.00000000 -1.00000000
f 235/235/235 236/236/236 237/237/237
v -0.2286667 0.4240000 0.4999640
vt 0.094996896 0.138704530
vn 0.00000000 0.00000000 -1.00000000
v -0.1846667 0.4760000 0.4999640
vt 0.093755356 0.131826600
vn 0.00000000 0.00000000 -1.00000000
v -0.1846667 0.4240000 0.4999640
vt 0.101825409 0.135552150
vn 0.00000000 0.00000000 -1.00000000
f 238/238/238 239/239/239 240/240/240
v -0.2286667 0.4240000 0.4999640
vt 0.914729234 0.370235760
vn 0.00000000 -1.00000000 0.00000000
v -0.1846667 0.4240000 0.4999640
vt 0.907870902 0.373417090
vn 0.00000000 -1.00000000 0.00000000
v -0.1846667 0.4240000 0.8199640
vt 0.907870902 0.430089720
vn 0.00000000 -1.00000000 0.00000000
f 241/241/241 242/242/242 243/243/243
v -0.2286667 0.4240000 0.4999640
vt 0.914729234 0.370235760
vn 0.00000000 -1.00000000 0.00000000
v -0.1846667 0.4240000 0.8199640
vt 0.907870902 0.430089720
vn 0.00000000 -1.00000000 0.00000000
v -0.2286667 0.4240000 0.8199640
vt 0.914729234 0.426908390
vn 0.00000000 -1.00000000 0.00000000
f 244/244/244 245/245/245 246/246/246
v -0.1846667 0.4240000 0.4999640
vt 0.907870902 0.373417090
vn 1.00000000 0.00000000 0.00000000
v -0.1846667 0.4760000 0.4999640
vt 0.915976203 0.377176840
vn 1.00000000 0.00000000 0.00000000
v -0.1846667 0.4760000 0.8199640
vt 0.915976203 0.433849480
vn 1.00000000 0.00000000 0.00000000
f 247/247/247 248/248/248 249/249/249
v -0.1846667 0.4240000 0.4999640
vt 0.907870902 0.373417090
vn 1.00000000 0.00000000 0.00000000
v -0.1846667 0.4760000 0.8199640
vt 0.915976203 0.433849480
vn 1.00000000 0.00000000 0.00000000
v -0.1846667 0.4240000 0.8199640
vt 0.907870902 0.430089720
vn 1.00000000 0.00000000 0.00000000
f 250/250/250 251/251/251 252/252/252
v -0.1846667 0.4760000 0.4999640
vt 0.093755356 0.131826600
vn 0.00000000 1.00000000 0.00000000
v -0.2286667 0.4760000 0.4999640
vt 0.086926843 0.134978990
vn 0.00000000 1.00000000 0.00000000
v -0.2286667 0.4760000 0.8199640
vt 0.086926843 0.191135940
vn 0.00000000 1.00000000 0.00000000
f 253/253/253 254/254/254 255/255/255
v -0.1846667 0.4760000 0.4999640
vt 0.093755356 0.131826600
vn 0.00000000 1.00000000 -0.00000000
v -0.2286667 0.4760000 0.8199640
vt 0.086926843 0.191135940
vn 0.00000000 1.00000000 -0.00000000
v -0.1846667 0.4760000 0.8199640
vt 0.093755356 0.187983560
vn 0.00000000 1.00000000 -0.00000000
f 256/256/256 257/257/257 258/258/258
v -0.2286667 0.4760000 0.4999640
vt 0.086926843 0.134978990
vn -1.00000000 0.00000000 0.00000000
v -0.2286667 0.4240000 0.4999640
vt 0.094996896 0.138704530
vn -1.00000000 0.00000000 0.00000000
v -0.2286667 0.4240000 0.8199640
vt 0.094996896 0.194861490
vn -1.00000000 0.00000000 0.00000000
f 259/259/259 260/260/260 261/261/261
v -0.2286667 0.4760000 0.4999640
vt 0.086926843 0.134978990
vn -1.00000000 0.00000000 0.00000000
v -0.2286667 0.4240000 0.8199640
vt 0.094996896 0.194861490
vn -1.00000000 0.00000000 0.00000000
v -0.2286667 0.4760000 0.8199640
vt 0.086926843 0.191135940
vn -1.00000000 0.00000000 0.00000000
f 262/262/262 263/263/263 264/264/264
v -0.2286667 0.4240000 0.8199640
vt 0.094996896 0.194861490
vn 0.00000000 0.00000000 1.00000000
v -0.1846667 0.4240000 0.8199640
vt 0.101825409 0.191709100
vn 0.00000000 0.00000000 1.00000000
v -0.1846667 0.4760000 0.8199640
vt 0.093755356 0.187983560
vn 0.00000000 0.00000000 1.00000000
f 265/265/265 266/266/266 267/267/267
v -0.2286667 0.4240000 0.8199640
vt 0.094996896 0.194861490
vn 0.00000000 0.00000000 1.00000000
v -0.1846667 0.4760000 0.8199640
vt 0.093755356 0.187983560
vn 0.00000000 0.00000000 1.00000000
v -0.2286667 0.4760000 0.8199640
vt 0.086926843 0.191135940
vn 0.00000000 0.00000000 1.00000000
f 268/268/268 269/269/269 270/270/270
v -0.0331111 0.4240000 0.4999640
vt 0.125345834 0.124693940
vn 0.00000000 0.00000000 -1.00000000
v -0.0331111 0.4760000 0.4999640
vt 0.117275781 0.120968400
vn 0.00000000 0.00000000 -1.00000000
v 0.0108889 0.4760000 0.4999640
vt 0.124104281 0.117816020
vn 0.00000000 0.00000000 -1.00000000
f 271/271/271 272/272/272 273/273/273
v -0.0331111 0.4240000 0.4999640
vt 0.125345834 0.124693940
vn 0.00000000 0.00000000 -1.00000000
v 0.0108889 0.4760000 0.4999640
vt 0.124104281 0.117816020
vn 0.00000000 0.00000000 -1.00000000
v 0.0108889 0.4240000 0.4999640
vt 0.132174347 0.121541560
vn 0.00000000 0.00000000 -1.00000000
f 274/274/274 275/275/275 276/276/276
v -0.0331111 0.4240000 0.4999640
vt 0.884247771 0.384375000
vn 0.00000000 -1.00000000 0.00000000
v 0.0108889 0.4240000 0.4999640
vt 0.877389439 0.387556330
vn 0.00000000 -1.00000000 0.00000000
v 0.0108889 0.4240000 0.8199640
vt 0.877389439 0.444228970
vn 0.00000000 -1.00000000 0.00000000
f 277/277/277 278/278/278 279/279/279
v -0.0331111 0.4240000 0.4999640
vt 0.884247771 0.384375000
vn 0.00000000 -1.00000000 0.00000000
v 0.0108889 0.4240000 0.8199640
vt 0.877389439 0.444228970
vn 0.00000000 -1.00000000 0.00000000
v -0.0331111 0.4240000 0.8199640
vt 0.884247771 0.441047640
vn 0.00000000 -1.00000000 0.00000000
f 280/280/280 281/281/281 282/282/282
v 0.0108889 0.4240000 0.4999640
vt 0.877389439 0.387556330
vn 1.00000000 0.00000000 0.00000000
v 0.0108889 0.4760000 0.4999640
vt 0.885494739 0.391316080
vn 1.00000000 0.00000000 0.00000000
v 0.0108889 0.4760000 0.8199640
vt 0.885494739 0.447988720
vn 1.00000000 0.00000000 0.00000000
f 283/283/283 284/284/284 285/285/285
v 0.0108889 0.4240000 0.4999640
vt 0.877389439 0.387556330
vn 1.00000000 0.00000000 0.00000000
v 0.0108889 0.4760000 0.8199640
vt 0.885494739 0.447988720
vn 1.00000000 0.00000000 0.00000000
v 0.0108889 0.4240000 0.8199640
vt 0.877389439 0.444228970
vn 1.00000000 0.00000000 0.00000000
f 286/286/286 287/287/287 288/288/288
v 0.0108889 0.4760000 0.4999640
vt 0.124104281 0.117816020
vn 0.00000000 1.00000000 0.00000000
v -0.0331111 0.4760000 0.4999640
vt 0.117275781 0.120968400
vn 0.00000000 1.00000000 0.00000000
v -0.0331111 0.4760000 0.8199640
vt 0.117275781 0.177125360
vn 0.00000000 1.00000000 0.00000000
f 289/289/289 290/290/290 291/291/291
v 0.0108889 0.4760000 0.4999640
vt 0.124104281 0.117816020
vn 0.00000000 1.00000000 -0.00000000
v -0.0331111 0.4760000 0.8199640
vt 0.117275781 0.177125360
vn 0.00000000 1.00000000 -0.00000000
v 0.0108889 0.4760000 0.8199640
vt 0.124104281 0.173972970
vn 0.00000000 1.00000000 -0.00000000
f 292/292/292 293/293/293 294/294/294
v -0.0331111 0.4760000 0.4999640
vt 0.117275781 0.120968400
vn -1.00000000 0.00000000 0.00000000
v -0.0331111 0.4240000 0.4999640
vt 0.125345834 0.124693940
vn -1.00000000 0.00000000 0.00000000
v -0.0331111 0.4240000 0.8199640
vt 0.125345834 0.180850900
vn -1.00000000 0.00000000 0.00000000
f 295/295/295 296/296/296 297/297/297
v -0.0331111 0.4760000 0.4999640
vt 0.117275781 0.120968400
vn -1.00000000 0.00000000 0.00000000
v -0.0331111 0.4240000 0.8199640
vt 0.125345834 0.180850900
vn -1.00000000 0.00000000 0.00000000
v -0.0331111 0.4760000 0.8199640
vt 0.117275781 0.177125360
vn -1.00000000 0.00000000 0.00000000
f 298/298/298 299/299/299 300/300/300
v -0.0331111 0.4240000 0.8199640
vt 0.125345834 0.180850900
vn 0.00000000 0.00000000 1.00000000
v 0.0108889 0.4240000 0.8199640
vt 0.132174347 0.177698520
vn 0.00000000 0.00000000 1.00000000
v 0.0108889 0.4760000 0.8199640
vt 0.124104281 0.173972970
vn 0.00000000 0.00000000 1.00000000
f 301/301/301 302/302/302 303/303/303
v -0.0331111 0.4240000 0.8199640
vt 0.125345834 0.180850900
vn 0.00000000 0.00000000 1.00000000
v 0.0108889 0.4760000 0.8199640
vt 0.124104281 0.173972970
vn 0.00000000 0.00000000 1.00000000
v -0.0331111 0.4760000 0.8199640
vt 0.117275781 0.177125360
vn 0.00000000 0.00000000 1.00000000
f 304/304/304 305/305/305 306/306/306
v 0.1624444 0.4240000 0.4999640
vt 0.155694771 0.110683350
vn 0.00000000 0.00000000 -1.00000000
v 0.1624444 0.4760000 0.4999640
vt 0.147624718 0.106957810
vn 0.00000000 0.00000000 -1.00000000
v 0.2064444 0.4760000 0.4999640
vt 0.154453219 0.103805430
vn 0.00000000 0.00000000 -1.00000000
f 307/307/307 308/308/308 309/309/309
v 0.1624444 0.4240000 0.4999640
vt 0.155694771 0.110683350
vn 0.00000000 0.00000000 -1.00000000
v 0.2064444 0.4760000 0.4999640
vt 0.154453219 0.103805430
vn 0.00000000 0.00000000 -1.00000000
v 0.2064444 0.4240000 0.4999640
vt 0.162523285 0.107530970
vn 0.00000000 0.00000000 -1.00000000
f 310/310/310 311/311/311 312/312/312
v 0.1624444 0.4240000 0.4999640
vt 0.853766307 0.398514240
vn 0.00000000 -1.00000000 0.00000000
v 0.2064444 0.4240000 0.4999640
vt 0.846907975 0.401695570
vn 0.00000000 -1.00000000 0.00000000
v 0.2064444 0.4240000 0.8199640
vt 0.846907975 0.458368210
vn 0.00000000 -1.00000000 0.00000000
f 313/313/313 314/314/314 315/315/315
v 0.1624444 0.4240000 0.4999640
vt 0.853766307 0.398514240
vn 0.00000000 -1.00000000 0.00000000
v 0.2064444 0.4240000 0.8199640
vt 0.846907975 0.458368210
vn 0.00000000 -1.00000000 0.00000000
v 0.1624444 0.4240000 0.8199640
vt 0.853766307 0.455186880
vn 0.00000000 -1.00000000 0.00000000
f 316/316/316 317/317/317 318/318/318
v 0.2064444 0.4240000 0.4999640
vt 0.846907975 0.401695570
vn 1.00000000 0.00000000 0.00000000
v 0.2064444 0.4760000 0.4999640
vt 0.855013275 0.405455330
vn 1.00000000 0.00000000 0.00000000
v 0.2064444 0.4760000 0.8199640
vt 0.855013275 0.462127960
vn 1.00000000 0.00000000 0.00000000
f 319/319/319 320/320/320 321/321/321
v 0.2064444 0.4240000 0.4999640
vt 0.846907975 0.401695570
vn 1.00000000 0.00000000 0.00000000
v 0.2064444 0.4760000 0.8199640
vt 0.855013275 0.462127960
vn 1.00000000 0.00000000 0.00000000
v 0.2064444 0.4240000 0.8199640
vt 0.846907975 0.458368210
vn 1.00000000 0.00000000 0.00000000
f 322/322/322 323/323/323 324/324/324
v 0.2064444 0.4760000 0.4999640
vt 0.154453219 0.103805430
vn 0.00000000 1.00000000 0.00000000
v 0.1624444 0.4760000 0.4999640
vt 0.147624718 0.106957810
vn 0.00000000 1.00000000 0.00000000
v 0.1624444 0.4760000 0.8199640
vt 0.147624718 0.163114770
vn 0.00000000 1.00000000 0.00000000
f 325/325/325 326/326/326 327/327/327
v 0.2064444 0.4760000 0.4999640
vt 0.154453219 0.103805430
vn 0.00000000 1.00000000 -0.00000000
v 0.1624444 0.4760000 0.8199640
vt 0.147624718 0.163114770
vn 0.00000000 1.00000000 -0.00000000
v 0.2064444 0.4760000 0.8199640
vt 0.154453219 0.159962390
vn 0.00000000 1.00000000 -0.00000000
f 328/328/328 329/329/329 330/330/330
v 0.1624444 0.4760000 0.4999640
vt 0.147624718 0.106957810
vn -1.00000000 0.00000000 0.00000000
v 0.1624444 0.4240000 0.4999640
vt 0.155694771 0.110683350
vn -1.00000000 0.00000000 0.00000000
v 0.1624444 0.4240000 0.8199640
vt 0.155694771 0.166840310
vn -1.00000000 0.00000000 0.00000000
f 331/331/331 332/332/332 333/333/333
v 0.1624444 0.4760000 0.4999640
vt 0.147624718 0.106957810
vn -1.00000000 0.00000000 0.00000000
v 0.1624444 0.4240000 0.8199640
vt 0.155694771 0.166840310
vn -1.00000000 0.00000000 0.00000000
v 0.1624444 0.4760000 0.8199640
vt 0.147624718 0.163114770
vn -1.00000000 0.00000000 0.00000000
f 334/334/334 335/335/335 336/336/336
v 0.1624444 0.4240000 0.8199640
vt 0.155694771 0.166840310
vn 0.00000000 0.00000000 1.00000000
v 0.2064444 0.4240000 0.8199640
vt 0.162523285 0.163687930
vn 0.00000000 0.00000000 1.00000000
v 0.2064444 0.4760000 0.8199640
vt 0.154453219 0.159962390
vn 0.00000000 0.00000000 1.00000000
f 337/337/337 338/338/338 339/339/339
v 0.1624444 0.4240000 0.8199640
vt 0.155694771 0.166840310
vn 0.00000000 0.00000000 1.00000000
v 0.2064444 0.4760000 0.8199640
vt 0.154453219 0.159962390
vn 0.00000000 0.00000000 1.00000000
v 0.1624444 0.4760000 0.8199640
vt 0.147624718 0.163114770
vn 0.00000000 0.00000000 1.00000000
f 340/340/340 341/341/341 342/342/342
v 0.3580000 0.4240000 0.4999640
vt 0.186043709 0.096672770
vn 0.00000000 0.00000000 -1.00000000
v 0.3580000 0.4760000 0.4999640
vt 0.177973644 0.092947220
vn 0.00000000 0.00000000 -1.00000000
v 0.4020000 0.4760000 0.4999640
vt 0.184802157 0.089794840
vn 0.00000000 0.00000000 -1.00000000
f 343/343/343 344/344/344 345/345/345
v 0.3580000 0.4240000 0.4999640
vt 0.186043709 0.096672770
vn 0.00000000 0.00000000 -1.00000000
v 0.4020000 0.4760000 0.4999640
vt 0.184802157 0.089794840
vn 0.00000000 0.00000000 -1.00000000
v 0.4020000 0.4240000 0.4999640
vt 0.192872222 0.093520380
vn 0.00000000 0.00000000 -1.00000000
f 346/346/346 347/347/347 348/348/348
v 0.3580000 0.4240000 0.4999640
vt 0.823284843 0.412653490
vn 0.00000000 -1.00000000 0.00000000
v 0.4020000 0.4240000 0.4999640
vt 0.816426511 0.415834820
vn 0.00000000 -1.00000000 0.00000000
v 0.4020000 0.4240000 0.8199640
vt 0.816426511 0.472507450
vn 0.00000000 -1.00000000 0.00000000
f 349/349/349 350/350/350 351/351/351
v 0.3580000 0.4240000 0.4999640
vt 0.823284843 0.412653490
vn 0.00000000 -1.00000000 0.00000000
v 0.4020000 0.4240000 0.8199640
vt 0.816426511 0.472507450
vn 0.00000000 -1.00000000 0.00000000
v 0.3580000 0.4240000 0.8199640
vt 0.823284843 0.469326120
vn 0.00000000 -1.00000000 0.00000000
f 352/352/352 353/353/353 354/354/354
v 0.4020000 0.4240000 0.4999640
vt 0.816426511 0.415834820
vn 1.00000000 0.00000000 0.00000000
v 0.4020000 0.4760000 0.4999640
vt 0.824531811 0.419594570
vn 1.00000000 0.00000000 0.00000000
v 0.4020000 0.4760000 0.8199640
vt 0.824531811 0.476267210
vn 1.00000000 0.00000000 0.00000000
f 355/355/355 356/356/356 357/357/357
v 0.4020000 0.4240000 0.4999640
vt 0.816426511 0.415834820
vn 1.00000000 0.00000000 0.00000000
v 0.4020000 0.4760000 0.8199640
vt 0.824531811 0.476267210
vn 1.00000000 0.00000000 0.00000000
v 0.4020000 0.4240000 0.8199640
vt 0.816426511 0.472507450
vn 1.00000000 0.00000000 0.00000000
f 358/358/358 359/359/359 360/360/360
v 0.4020000 0.4760000 0.4999640
vt 0.184802157 0.089794840
vn 0.00000000 1.00000000 0.00000000
v 0.3580000 0.4760000 0.4999640
vt 0.177973644 0.092947220
vn 0.00000000 1.00000000 0.00000000
v 0.3580000 0.4760000 0.8199640
vt 0.177973644 0.149104180
vn 0.00000000 1.00000000 0.00000000
f 361/361/361 362/362/362 363/363/363
v 0.4020000 0.4760000 0.4999640
vt 0.184802157 0.089794840
vn 0.00000000 1.00000000 -0.00000000
v 0.3580000 0.4760000 0.8199640
vt 0.177973644 0.149104180
vn 0.00000000 1.00000000 -0.00000000
v 0.4020000 0.4760000 0.8199640
vt 0.184802157 0.145951800
vn 0.00000000 1.00000000 -0.00000000
f 364/364/364 365/365/365 366/366/366
v 0.3580000 0.4760000 0.4999640
vt 0.177973644 0.092947220
vn -1.00000000 0.00000000 0.00000000
v 0.3580000 0.4240000 0.4999640
vt 0.186043709 0.096672770
vn -1.00000000 0.00000000 0.00000000
v 0.3580000 0.4240000 0.8199640
vt 0.186043709 0.152829730
vn -1.00000000 0.00000000 0.00000000
f 367/367/367 368/368/368 369/369/369
v 0.3580000 0.4760000 0.4999640
vt 0.177973644 0.092947220
vn -1.00000000 0.00000000 0.00000000
v 0.3580000 0.4240000 0.8199640
vt 0.186043709 0.152829730
vn -1.00000000 0.00000000 0.00000000
v 0.3580000 0.4760000 0.8199640
vt 0.177973644 0.149104180
vn -1.00000000 0.00000000 0.00000000
f 370/370/370 371/371/371 372/372/372
v 0.3580000 0.4240000 0.8199640
vt 0.186043709 0.152829730
vn 0.00000000 0.00000000 1.00000000
v 0.4020000 0.4240000 0.8199640
vt 0.192872222 0.149677340
vn 0.00000000 0.00000000 1.00000000
v 0.4020000 0.4760000 0.8199640
vt 0.184802157 0.145951800
vn 0.00000000 0.00000000 1.00000000
f 373/373/373 374/374/374 375/375/375
v 0.3580000 0.4240000 0.8199640
vt 0.186043709 0.152829730
vn 0.00000000 0.00000000 1.00000000
v 0.4020000 0.4760000 0.8199640
vt 0.184802157 0.145951800
vn 0.00000000 0.00000000 1.00000000
v 0.3580000 0.4760000 0.8199640
vt 0.177973644 0.149104180
vn 0.00000000 0.00000000 1.00000000
f 376/376/376 377/377/377 378/378/378
