# G012: only triangles proven strictly inside another closed opaque box removed.
mtllib pz_bed_bedding_01_fancy_0_1.mtl
v -0.45500000 -0.50000000 0.49996400
v -0.45500000 0.40500000 0.49996400
v -0.42000000 0.44000000 0.49996400
v -0.45500000 -0.50000000 0.49996400
v -0.42000000 0.44000000 0.49996400
v 0.42000000 0.44000000 0.49996400
v -0.45500000 -0.50000000 0.49996400
v 0.42000000 0.44000000 0.49996400
v 0.45500000 0.40500000 0.49996400
v -0.45500000 -0.50000000 0.49996400
v 0.45500000 0.40500000 0.49996400
v 0.45500000 -0.50000000 0.49996400
v 0.45500000 -0.50000000 0.73996400
v 0.45500000 0.40500000 0.73996400
v 0.42000000 0.44000000 0.73996400
v 0.45500000 -0.50000000 0.73996400
v 0.42000000 0.44000000 0.73996400
v -0.42000000 0.44000000 0.73996400
v 0.45500000 -0.50000000 0.73996400
v -0.42000000 0.44000000 0.73996400
v -0.45500000 0.40500000 0.73996400
v 0.45500000 -0.50000000 0.73996400
v -0.45500000 0.40500000 0.73996400
v -0.45500000 -0.50000000 0.73996400
v 0.45500000 -0.50000000 0.49996400
v 0.45500000 0.40500000 0.49996400
v 0.45500000 0.40500000 0.73996400
v 0.45500000 -0.50000000 0.49996400
v 0.45500000 0.40500000 0.73996400
v 0.45500000 -0.50000000 0.73996400
v 0.45500000 0.40500000 0.49996400
v 0.42000000 0.44000000 0.49996400
v 0.42000000 0.44000000 0.73996400
v 0.45500000 0.40500000 0.49996400
v 0.42000000 0.44000000 0.73996400
v 0.45500000 0.40500000 0.73996400
v 0.42000000 0.44000000 0.49996400
v -0.42000000 0.44000000 0.49996400
v -0.42000000 0.44000000 0.73996400
v 0.42000000 0.44000000 0.49996400
v -0.42000000 0.44000000 0.73996400
v 0.42000000 0.44000000 0.73996400
v -0.42000000 0.44000000 0.49996400
v -0.45500000 0.40500000 0.49996400
v -0.45500000 0.40500000 0.73996400
v -0.42000000 0.44000000 0.49996400
v -0.45500000 0.40500000 0.73996400
v -0.42000000 0.44000000 0.73996400
v -0.45500000 0.40500000 0.49996400
v -0.45500000 -0.50000000 0.49996400
v -0.45500000 -0.50000000 0.73996400
v -0.45500000 0.40500000 0.49996400
v -0.45500000 -0.50000000 0.73996400
v -0.45500000 0.40500000 0.73996400
v -0.47500000 -0.50000000 0.39996400
v -0.47500000 0.44000000 0.39996400
v -0.40500000 0.44000000 0.39996400
v -0.47500000 -0.50000000 0.39996400
v -0.40500000 0.44000000 0.39996400
v -0.40500000 -0.50000000 0.39996400
v -0.40500000 -0.50000000 0.39996400
v -0.40500000 0.44000000 0.39996400
v -0.40500000 0.44000000 0.49996400
v -0.40500000 -0.50000000 0.39996400
v -0.40500000 0.44000000 0.49996400
v -0.40500000 -0.50000000 0.49996400
v -0.40500000 0.44000000 0.39996400
v -0.47500000 0.44000000 0.39996400
v -0.47500000 0.44000000 0.49996400
v -0.40500000 0.44000000 0.39996400
v -0.47500000 0.44000000 0.49996400
v -0.40500000 0.44000000 0.49996400
v -0.47500000 0.44000000 0.39996400
v -0.47500000 -0.50000000 0.39996400
v -0.47500000 -0.50000000 0.49996400
v -0.47500000 0.44000000 0.39996400
v -0.47500000 -0.50000000 0.49996400
v -0.47500000 0.44000000 0.49996400
v -0.40500000 -0.50000000 0.49996400
v -0.40500000 0.44000000 0.49996400
v -0.47500000 0.44000000 0.49996400
v -0.40500000 -0.50000000 0.49996400
v -0.47500000 0.44000000 0.49996400
v -0.47500000 -0.50000000 0.49996400
v 0.40500000 -0.50000000 0.39996400
v 0.40500000 0.44000000 0.39996400
v 0.47500000 0.44000000 0.39996400
v 0.40500000 -0.50000000 0.39996400
v 0.47500000 0.44000000 0.39996400
v 0.47500000 -0.50000000 0.39996400
v 0.47500000 -0.50000000 0.39996400
v 0.47500000 0.44000000 0.39996400
v 0.47500000 0.44000000 0.49996400
v 0.47500000 -0.50000000 0.39996400
v 0.47500000 0.44000000 0.49996400
v 0.47500000 -0.50000000 0.49996400
v 0.47500000 0.44000000 0.39996400
v 0.40500000 0.44000000 0.39996400
v 0.40500000 0.44000000 0.49996400
v 0.47500000 0.44000000 0.39996400
v 0.40500000 0.44000000 0.49996400
v 0.47500000 0.44000000 0.49996400
v 0.40500000 0.44000000 0.39996400
v 0.40500000 -0.50000000 0.39996400
v 0.40500000 -0.50000000 0.49996400
v 0.40500000 0.44000000 0.39996400
v 0.40500000 -0.50000000 0.49996400
v 0.40500000 0.44000000 0.49996400
v 0.47500000 -0.50000000 0.49996400
v 0.47500000 0.44000000 0.49996400
v 0.40500000 0.44000000 0.49996400
v 0.47500000 -0.50000000 0.49996400
v 0.40500000 0.44000000 0.49996400
v 0.40500000 -0.50000000 0.49996400
v -0.44500000 0.40000000 0.39996400
v -0.44500000 0.47000000 0.39996400
v 0.44500000 0.47000000 0.39996400
v -0.44500000 0.40000000 0.39996400
v 0.44500000 0.47000000 0.39996400
v 0.44500000 0.40000000 0.39996400
v -0.44500000 0.40000000 0.39996400
v 0.44500000 0.40000000 0.39996400
v 0.44500000 0.40000000 0.49996400
v -0.44500000 0.40000000 0.39996400
v 0.44500000 0.40000000 0.49996400
v -0.44500000 0.40000000 0.49996400
v 0.44500000 0.40000000 0.39996400
v 0.44500000 0.47000000 0.39996400
v 0.44500000 0.47000000 0.49996400
v 0.44500000 0.40000000 0.39996400
v 0.44500000 0.47000000 0.49996400
v 0.44500000 0.40000000 0.49996400
v 0.44500000 0.47000000 0.39996400
v -0.44500000 0.47000000 0.39996400
v -0.44500000 0.47000000 0.49996400
v 0.44500000 0.47000000 0.39996400
v -0.44500000 0.47000000 0.49996400
v 0.44500000 0.47000000 0.49996400
v -0.44500000 0.47000000 0.39996400
v -0.44500000 0.40000000 0.39996400
v -0.44500000 0.40000000 0.49996400
v -0.44500000 0.47000000 0.39996400
v -0.44500000 0.40000000 0.49996400
v -0.44500000 0.47000000 0.49996400
v -0.44500000 0.40000000 0.49996400
v 0.44500000 0.40000000 0.49996400
v 0.44500000 0.47000000 0.49996400
v -0.44500000 0.40000000 0.49996400
v 0.44500000 0.47000000 0.49996400
v -0.44500000 0.47000000 0.49996400
v -0.44500000 0.37500000 0.00000000
v -0.44500000 0.44500000 0.00000000
v -0.37500000 0.44500000 0.00000000
v -0.44500000 0.37500000 0.00000000
v -0.37500000 0.44500000 0.00000000
v -0.37500000 0.37500000 0.00000000
v -0.44500000 0.37500000 0.00000000
v -0.37500000 0.37500000 0.00000000
v -0.37500000 0.37500000 0.51996400
v -0.44500000 0.37500000 0.00000000
v -0.37500000 0.37500000 0.51996400
v -0.44500000 0.37500000 0.51996400
v -0.37500000 0.37500000 0.00000000
v -0.37500000 0.44500000 0.00000000
v -0.37500000 0.44500000 0.51996400
v -0.37500000 0.37500000 0.00000000
v -0.37500000 0.44500000 0.51996400
v -0.37500000 0.37500000 0.51996400
v -0.37500000 0.44500000 0.00000000
v -0.44500000 0.44500000 0.00000000
v -0.44500000 0.44500000 0.51996400
v -0.37500000 0.44500000 0.00000000
v -0.44500000 0.44500000 0.51996400
v -0.37500000 0.44500000 0.51996400
v -0.44500000 0.44500000 0.00000000
v -0.44500000 0.37500000 0.00000000
v -0.44500000 0.37500000 0.51996400
v -0.44500000 0.44500000 0.00000000
v -0.44500000 0.37500000 0.51996400
v -0.44500000 0.44500000 0.51996400
v -0.44500000 0.37500000 0.51996400
v -0.37500000 0.37500000 0.51996400
v -0.37500000 0.44500000 0.51996400
v -0.44500000 0.37500000 0.51996400
v -0.37500000 0.44500000 0.51996400
v -0.44500000 0.44500000 0.51996400
v 0.37500000 0.37500000 0.00000000
v 0.37500000 0.44500000 0.00000000
v 0.44500000 0.44500000 0.00000000
v 0.37500000 0.37500000 0.00000000
v 0.44500000 0.44500000 0.00000000
v 0.44500000 0.37500000 0.00000000
v 0.37500000 0.37500000 0.00000000
v 0.44500000 0.37500000 0.00000000
v 0.44500000 0.37500000 0.51996400
v 0.37500000 0.37500000 0.00000000
v 0.44500000 0.37500000 0.51996400
v 0.37500000 0.37500000 0.51996400
v 0.44500000 0.37500000 0.00000000
v 0.44500000 0.44500000 0.00000000
v 0.44500000 0.44500000 0.51996400
v 0.44500000 0.37500000 0.00000000
v 0.44500000 0.44500000 0.51996400
v 0.44500000 0.37500000 0.51996400
v 0.44500000 0.44500000 0.00000000
v 0.37500000 0.44500000 0.00000000
v 0.37500000 0.44500000 0.51996400
v 0.44500000 0.44500000 0.00000000
v 0.37500000 0.44500000 0.51996400
v 0.44500000 0.44500000 0.51996400
v 0.37500000 0.44500000 0.00000000
v 0.37500000 0.37500000 0.00000000
v 0.37500000 0.37500000 0.51996400
v 0.37500000 0.44500000 0.00000000
v 0.37500000 0.37500000 0.51996400
v 0.37500000 0.44500000 0.51996400
v 0.37500000 0.37500000 0.51996400
v 0.44500000 0.37500000 0.51996400
v 0.44500000 0.44500000 0.51996400
v 0.37500000 0.37500000 0.51996400
v 0.44500000 0.44500000 0.51996400
v 0.37500000 0.44500000 0.51996400
v -0.47300000 0.41600000 0.04000000
v -0.47300000 0.48400000 0.04000000
v -0.40700000 0.48400000 0.04000000
v -0.47300000 0.41600000 0.04000000
v -0.40700000 0.48400000 0.04000000
v -0.40700000 0.41600000 0.04000000
v -0.47300000 0.41600000 0.04000000
v -0.40700000 0.41600000 0.04000000
v -0.40700000 0.41600000 0.91496400
v -0.47300000 0.41600000 0.04000000
v -0.40700000 0.41600000 0.91496400
v -0.47300000 0.41600000 0.91496400
v -0.40700000 0.41600000 0.04000000
v -0.40700000 0.48400000 0.04000000
v -0.40700000 0.48400000 0.91496400
v -0.40700000 0.41600000 0.04000000
v -0.40700000 0.48400000 0.91496400
v -0.40700000 0.41600000 0.91496400
v -0.40700000 0.48400000 0.04000000
v -0.47300000 0.48400000 0.04000000
v -0.47300000 0.48400000 0.91496400
v -0.40700000 0.48400000 0.04000000
v -0.47300000 0.48400000 0.91496400
v -0.40700000 0.48400000 0.91496400
v -0.47300000 0.48400000 0.04000000
v -0.47300000 0.41600000 0.04000000
v -0.47300000 0.41600000 0.91496400
v -0.47300000 0.48400000 0.04000000
v -0.47300000 0.41600000 0.91496400
v -0.47300000 0.48400000 0.91496400
v -0.47300000 0.41600000 0.91496400
v -0.40700000 0.41600000 0.91496400
v -0.40700000 0.48400000 0.91496400
v -0.47300000 0.41600000 0.91496400
v -0.40700000 0.48400000 0.91496400
v -0.47300000 0.48400000 0.91496400
v 0.40700000 0.41600000 0.04000000
v 0.40700000 0.48400000 0.04000000
v 0.47300000 0.48400000 0.04000000
v 0.40700000 0.41600000 0.04000000
v 0.47300000 0.48400000 0.04000000
v 0.47300000 0.41600000 0.04000000
v 0.40700000 0.41600000 0.04000000
v 0.47300000 0.41600000 0.04000000
v 0.47300000 0.41600000 0.91496400
v 0.40700000 0.41600000 0.04000000
v 0.47300000 0.41600000 0.91496400
v 0.40700000 0.41600000 0.91496400
v 0.47300000 0.41600000 0.04000000
v 0.47300000 0.48400000 0.04000000
v 0.47300000 0.48400000 0.91496400
v 0.47300000 0.41600000 0.04000000
v 0.47300000 0.48400000 0.91496400
v 0.47300000 0.41600000 0.91496400
v 0.47300000 0.48400000 0.04000000
v 0.40700000 0.48400000 0.04000000
v 0.40700000 0.48400000 0.91496400
v 0.47300000 0.48400000 0.04000000
v 0.40700000 0.48400000 0.91496400
v 0.47300000 0.48400000 0.91496400
v 0.40700000 0.48400000 0.04000000
v 0.40700000 0.41600000 0.04000000
v 0.40700000 0.41600000 0.91496400
v 0.40700000 0.48400000 0.04000000
v 0.40700000 0.41600000 0.91496400
v 0.40700000 0.48400000 0.91496400
v 0.40700000 0.41600000 0.91496400
v 0.47300000 0.41600000 0.91496400
v 0.47300000 0.48400000 0.91496400
v 0.40700000 0.41600000 0.91496400
v 0.47300000 0.48400000 0.91496400
v 0.40700000 0.48400000 0.91496400
v -0.46000000 0.41500000 0.80996400
v -0.46000000 0.48500000 0.80996400
v 0.46000000 0.48500000 0.80996400
v -0.46000000 0.41500000 0.80996400
v 0.46000000 0.48500000 0.80996400
v 0.46000000 0.41500000 0.80996400
v -0.46000000 0.41500000 0.80996400
v 0.46000000 0.41500000 0.80996400
v 0.46000000 0.41500000 0.90496400
v -0.46000000 0.41500000 0.80996400
v 0.46000000 0.41500000 0.90496400
v -0.46000000 0.41500000 0.90496400
v 0.46000000 0.41500000 0.80996400
v 0.46000000 0.48500000 0.80996400
v 0.46000000 0.48500000 0.90496400
v 0.46000000 0.41500000 0.80996400
v 0.46000000 0.48500000 0.90496400
v 0.46000000 0.41500000 0.90496400
v 0.46000000 0.48500000 0.80996400
v -0.46000000 0.48500000 0.80996400
v -0.46000000 0.48500000 0.90496400
v 0.46000000 0.48500000 0.80996400
v -0.46000000 0.48500000 0.90496400
v 0.46000000 0.48500000 0.90496400
v -0.46000000 0.48500000 0.80996400
v -0.46000000 0.41500000 0.80996400
v -0.46000000 0.41500000 0.90496400
v -0.46000000 0.48500000 0.80996400
v -0.46000000 0.41500000 0.90496400
v -0.46000000 0.48500000 0.90496400
v -0.46000000 0.41500000 0.90496400
v 0.46000000 0.41500000 0.90496400
v 0.46000000 0.48500000 0.90496400
v -0.46000000 0.41500000 0.90496400
v 0.46000000 0.48500000 0.90496400
v -0.46000000 0.48500000 0.90496400
v -0.40200000 0.42400000 0.49996400
v -0.40200000 0.47600000 0.49996400
v -0.35800000 0.47600000 0.49996400
v -0.40200000 0.42400000 0.49996400
v -0.35800000 0.47600000 0.49996400
v -0.35800000 0.42400000 0.49996400
v -0.40200000 0.42400000 0.49996400
v -0.35800000 0.42400000 0.49996400
v -0.35800000 0.42400000 0.81996400
v -0.40200000 0.42400000 0.49996400
v -0.35800000 0.42400000 0.81996400
v -0.40200000 0.42400000 0.81996400
v -0.35800000 0.42400000 0.49996400
v -0.35800000 0.47600000 0.49996400
v -0.35800000 0.47600000 0.81996400
v -0.35800000 0.42400000 0.49996400
v -0.35800000 0.47600000 0.81996400
v -0.35800000 0.42400000 0.81996400
v -0.35800000 0.47600000 0.49996400
v -0.40200000 0.47600000 0.49996400
v -0.40200000 0.47600000 0.81996400
v -0.35800000 0.47600000 0.49996400
v -0.40200000 0.47600000 0.81996400
v -0.35800000 0.47600000 0.81996400
v -0.40200000 0.47600000 0.49996400
v -0.40200000 0.42400000 0.49996400
v -0.40200000 0.42400000 0.81996400
v -0.40200000 0.47600000 0.49996400
v -0.40200000 0.42400000 0.81996400
v -0.40200000 0.47600000 0.81996400
v -0.21200000 0.42400000 0.49996400
v -0.21200000 0.47600000 0.49996400
v -0.16800000 0.47600000 0.49996400
v -0.21200000 0.42400000 0.49996400
v -0.16800000 0.47600000 0.49996400
v -0.16800000 0.42400000 0.49996400
v -0.21200000 0.42400000 0.49996400
v -0.16800000 0.42400000 0.49996400
v -0.16800000 0.42400000 0.81996400
v -0.21200000 0.42400000 0.49996400
v -0.16800000 0.42400000 0.81996400
v -0.21200000 0.42400000 0.81996400
v -0.16800000 0.42400000 0.49996400
v -0.16800000 0.47600000 0.49996400
v -0.16800000 0.47600000 0.81996400
v -0.16800000 0.42400000 0.49996400
v -0.16800000 0.47600000 0.81996400
v -0.16800000 0.42400000 0.81996400
v -0.16800000 0.47600000 0.49996400
v -0.21200000 0.47600000 0.49996400
v -0.21200000 0.47600000 0.81996400
v -0.16800000 0.47600000 0.49996400
v -0.21200000 0.47600000 0.81996400
v -0.16800000 0.47600000 0.81996400
v -0.21200000 0.47600000 0.49996400
v -0.21200000 0.42400000 0.49996400
v -0.21200000 0.42400000 0.81996400
v -0.21200000 0.47600000 0.49996400
v -0.21200000 0.42400000 0.81996400
v -0.21200000 0.47600000 0.81996400
v -0.02200000 0.42400000 0.49996400
v -0.02200000 0.47600000 0.49996400
v 0.02200000 0.47600000 0.49996400
v -0.02200000 0.42400000 0.49996400
v 0.02200000 0.47600000 0.49996400
v 0.02200000 0.42400000 0.49996400
v -0.02200000 0.42400000 0.49996400
v 0.02200000 0.42400000 0.49996400
v 0.02200000 0.42400000 0.81996400
v -0.02200000 0.42400000 0.49996400
v 0.02200000 0.42400000 0.81996400
v -0.02200000 0.42400000 0.81996400
v 0.02200000 0.42400000 0.49996400
v 0.02200000 0.47600000 0.49996400
v 0.02200000 0.47600000 0.81996400
v 0.02200000 0.42400000 0.49996400
v 0.02200000 0.47600000 0.81996400
v 0.02200000 0.42400000 0.81996400
v 0.02200000 0.47600000 0.49996400
v -0.02200000 0.47600000 0.49996400
v -0.02200000 0.47600000 0.81996400
v 0.02200000 0.47600000 0.49996400
v -0.02200000 0.47600000 0.81996400
v 0.02200000 0.47600000 0.81996400
v -0.02200000 0.47600000 0.49996400
v -0.02200000 0.42400000 0.49996400
v -0.02200000 0.42400000 0.81996400
v -0.02200000 0.47600000 0.49996400
v -0.02200000 0.42400000 0.81996400
v -0.02200000 0.47600000 0.81996400
v 0.16800000 0.42400000 0.49996400
v 0.16800000 0.47600000 0.49996400
v 0.21200000 0.47600000 0.49996400
v 0.16800000 0.42400000 0.49996400
v 0.21200000 0.47600000 0.49996400
v 0.21200000 0.42400000 0.49996400
v 0.16800000 0.42400000 0.49996400
v 0.21200000 0.42400000 0.49996400
v 0.21200000 0.42400000 0.81996400
v 0.16800000 0.42400000 0.49996400
v 0.21200000 0.42400000 0.81996400
v 0.16800000 0.42400000 0.81996400
v 0.21200000 0.42400000 0.49996400
v 0.21200000 0.47600000 0.49996400
v 0.21200000 0.47600000 0.81996400
v 0.21200000 0.42400000 0.49996400
v 0.21200000 0.47600000 0.81996400
v 0.21200000 0.42400000 0.81996400
v 0.21200000 0.47600000 0.49996400
v 0.16800000 0.47600000 0.49996400
v 0.16800000 0.47600000 0.81996400
v 0.21200000 0.47600000 0.49996400
v 0.16800000 0.47600000 0.81996400
v 0.21200000 0.47600000 0.81996400
v 0.16800000 0.47600000 0.49996400
v 0.16800000 0.42400000 0.49996400
v 0.16800000 0.42400000 0.81996400
v 0.16800000 0.47600000 0.49996400
v 0.16800000 0.42400000 0.81996400
v 0.16800000 0.47600000 0.81996400
v 0.35800000 0.42400000 0.49996400
v 0.35800000 0.47600000 0.49996400
v 0.40200000 0.47600000 0.49996400
v 0.35800000 0.42400000 0.49996400
v 0.40200000 0.47600000 0.49996400
v 0.40200000 0.42400000 0.49996400
v 0.35800000 0.42400000 0.49996400
v 0.40200000 0.42400000 0.49996400
v 0.40200000 0.42400000 0.81996400
v 0.35800000 0.42400000 0.49996400
v 0.40200000 0.42400000 0.81996400
v 0.35800000 0.42400000 0.81996400
v 0.40200000 0.42400000 0.49996400
v 0.40200000 0.47600000 0.49996400
v 0.40200000 0.47600000 0.81996400
v 0.40200000 0.42400000 0.49996400
v 0.40200000 0.47600000 0.81996400
v 0.40200000 0.42400000 0.81996400
v 0.40200000 0.47600000 0.49996400
v 0.35800000 0.47600000 0.49996400
v 0.35800000 0.47600000 0.81996400
v 0.40200000 0.47600000 0.49996400
v 0.35800000 0.47600000 0.81996400
v 0.40200000 0.47600000 0.81996400
v 0.35800000 0.47600000 0.49996400
v 0.35800000 0.42400000 0.49996400
v 0.35800000 0.42400000 0.81996400
v 0.35800000 0.47600000 0.49996400
v 0.35800000 0.42400000 0.81996400
v 0.35800000 0.47600000 0.81996400
vt 0.171412920 0.760159906
vt 0.017834520 0.684257635
vt 0.017834520 0.678386748
vt 0.171412920 0.760159906
vt 0.017834520 0.678386748
vt 0.160382430 0.607936030
vt 0.171412920 0.760159906
vt 0.160382430 0.607936030
vt 0.172261420 0.607936030
vt 0.171412920 0.760159906
vt 0.172261420 0.607936030
vt 0.325839830 0.683838292
vt 0.325839830 0.733142596
vt 0.172261420 0.657240325
vt 0.160382430 0.657240325
vt 0.325839830 0.733142596
vt 0.160382430 0.657240325
vt 0.017834520 0.727691053
vt 0.325839830 0.733142596
vt 0.017834520 0.727691053
vt 0.017834520 0.733561940
vt 0.325839830 0.733142596
vt 0.017834520 0.733561940
vt 0.171412920 0.809464211
vt 0.674160170 0.829340009
vt 0.827738580 0.906462679
vt 0.827738580 0.956559727
vt 0.674160170 0.829340009
vt 0.827738580 0.956559727
vt 0.674160170 0.879437057
vt 0.827738580 0.906462679
vt 0.839617570 0.906462679
vt 0.839617570 0.956559727
vt 0.827738580 0.906462679
vt 0.839617570 0.956559727
vt 0.827738580 0.956559727
vt 0.160382430 0.607936030
vt 0.017834520 0.678386748
vt 0.017834520 0.727691053
vt 0.160382430 0.607936030
vt 0.017834520 0.727691053
vt 0.160382430 0.657240325
vt 0.017834520 0.678386748
vt 0.017834520 0.684257635
vt 0.017834520 0.733561940
vt 0.017834520 0.678386748
vt 0.017834520 0.733561940
vt 0.017834520 0.727691053
vt 0.017834520 0.684257635
vt 0.171412920 0.760159906
vt 0.171412920 0.809464211
vt 0.017834520 0.684257635
vt 0.171412920 0.809464211
vt 0.017834520 0.733561940
vt 0.168018920 0.239938833
vt 0.008501020 0.161101118
vt 0.020380010 0.155230221
vt 0.168018920 0.239938833
vt 0.020380010 0.155230221
vt 0.179897920 0.234067936
vt 0.820102080 0.233823375
vt 0.979619990 0.313928696
vt 0.979619990 0.334802462
vt 0.820102080 0.233823375
vt 0.979619990 0.334802462
vt 0.820102080 0.254697151
vt 0.020380010 0.155230221
vt 0.008501020 0.161101118
vt 0.008501020 0.181644581
vt 0.020380010 0.155230221
vt 0.008501020 0.181644581
vt 0.020380010 0.175773684
vt 0.008501020 0.161101118
vt 0.168018920 0.239938833
vt 0.168018920 0.260482286
vt 0.008501020 0.161101118
vt 0.168018920 0.260482286
vt 0.008501020 0.181644581
vt 0.179897920 0.254611399
vt 0.020380010 0.175773684
vt 0.008501020 0.181644581
vt 0.179897920 0.254611399
vt 0.008501020 0.181644581
vt 0.168018920 0.260482286
vt 0.317354830 0.166133309
vt 0.157836930 0.087295604
vt 0.169715920 0.081424707
vt 0.317354830 0.166133309
vt 0.169715920 0.081424707
vt 0.329233820 0.160262422
vt 0.670766180 0.308815587
vt 0.830284080 0.388920908
vt 0.830284080 0.409794673
vt 0.670766180 0.308815587
vt 0.830284080 0.409794673
vt 0.670766180 0.329689362
vt 0.169715920 0.081424707
vt 0.157836930 0.087295604
vt 0.157836930 0.107839057
vt 0.169715920 0.081424707
vt 0.157836930 0.107839057
vt 0.169715920 0.101968170
vt 0.157836930 0.087295604
vt 0.317354830 0.166133309
vt 0.317354830 0.186676772
vt 0.157836930 0.087295604
vt 0.317354830 0.186676772
vt 0.157836930 0.107839057
vt 0.329233820 0.180805875
vt 0.169715920 0.101968170
vt 0.157836930 0.107839057
vt 0.329233820 0.180805875
vt 0.157836930 0.107839057
vt 0.317354830 0.186676772
vt 0.020380010 0.161939815
vt 0.008501020 0.156068928
vt 0.159533930 0.081424707
vt 0.020380010 0.161939815
vt 0.159533930 0.081424707
vt 0.171412920 0.087295604
vt 0.979619990 0.307111220
vt 0.828587080 0.382955615
vt 0.828587080 0.403829391
vt 0.979619990 0.307111220
vt 0.828587080 0.403829391
vt 0.979619990 0.327984996
vt 0.828587080 0.382955615
vt 0.840466070 0.388920908
vt 0.840466070 0.409794673
vt 0.828587080 0.382955615
vt 0.840466070 0.409794673
vt 0.828587080 0.403829391
vt 0.159533930 0.081424707
vt 0.008501020 0.156068928
vt 0.008501020 0.176612381
vt 0.159533930 0.081424707
vt 0.008501020 0.176612381
vt 0.159533930 0.101968170
vt 0.008501020 0.156068928
vt 0.020380010 0.161939815
vt 0.020380010 0.182483278
vt 0.008501020 0.156068928
vt 0.020380010 0.182483278
vt 0.008501020 0.176612381
vt 0.020380010 0.182483278
vt 0.171412920 0.107839057
vt 0.159533930 0.101968170
vt 0.020380010 0.182483278
vt 0.159533930 0.101968170
vt 0.008501020 0.176612381
vt 0.024622510 0.081870121
vt 0.012743520 0.075999233
vt 0.024622510 0.070128336
vt 0.024622510 0.081870121
vt 0.024622510 0.070128336
vt 0.036501500 0.075999233
vt 0.975377490 0.221493190
vt 0.963498500 0.227458483
vt 0.963498500 0.335994573
vt 0.975377490 0.221493190
vt 0.963498500 0.335994573
vt 0.975377490 0.330029281
vt 0.963498500 0.227458483
vt 0.975377490 0.233423775
vt 0.975377490 0.341959866
vt 0.963498500 0.227458483
vt 0.975377490 0.341959866
vt 0.963498500 0.335994573
vt 0.024622510 0.070128336
vt 0.012743520 0.075999233
vt 0.012743520 0.182817822
vt 0.024622510 0.070128336
vt 0.012743520 0.182817822
vt 0.024622510 0.176946925
vt 0.012743520 0.075999233
vt 0.024622510 0.081870121
vt 0.024622510 0.188688720
vt 0.012743520 0.075999233
vt 0.024622510 0.188688720
vt 0.012743520 0.182817822
vt 0.024622510 0.188688720
vt 0.036501500 0.182817822
vt 0.024622510 0.176946925
vt 0.024622510 0.188688720
vt 0.024622510 0.176946925
vt 0.012743520 0.182817822
vt 0.163776430 0.013096797
vt 0.151897430 0.007225909
vt 0.163776430 0.001355012
vt 0.163776430 0.013096797
vt 0.163776430 0.001355012
vt 0.175655420 0.007225909
vt 0.836223570 0.291372303
vt 0.824344580 0.297337585
vt 0.824344580 0.405873686
vt 0.836223570 0.291372303
vt 0.824344580 0.405873686
vt 0.836223570 0.399908393
vt 0.824344580 0.297337585
vt 0.836223570 0.303302878
vt 0.836223570 0.411838968
vt 0.824344580 0.297337585
vt 0.836223570 0.411838968
vt 0.824344580 0.405873686
vt 0.163776430 0.001355012
vt 0.151897430 0.007225909
vt 0.151897430 0.114044498
vt 0.163776430 0.001355012
vt 0.151897430 0.114044498
vt 0.163776430 0.108173611
vt 0.151897430 0.007225909
vt 0.163776430 0.013096797
vt 0.163776430 0.119915396
vt 0.151897430 0.007225909
vt 0.163776430 0.119915396
vt 0.151897430 0.114044498
vt 0.163776430 0.119915396
vt 0.175655420 0.114044498
vt 0.163776430 0.108173611
vt 0.163776430 0.119915396
vt 0.163776430 0.108173611
vt 0.151897430 0.114044498
vt 0.012913220 0.088997193
vt 0.001373630 0.083294049
vt 0.012573820 0.077758628
vt 0.012913220 0.088997193
vt 0.012573820 0.077758628
vt 0.024113410 0.083461782
vt 0.987086780 0.230950541
vt 0.975886590 0.236574952
vt 0.975886590 0.419212938
vt 0.987086780 0.230950541
vt 0.975886590 0.419212938
vt 0.987086780 0.413588517
vt 0.975886590 0.236574952
vt 0.987426180 0.242369804
vt 0.987426180 0.425007790
vt 0.975886590 0.236574952
vt 0.987426180 0.425007790
vt 0.975886590 0.419212938
vt 0.012573820 0.077758628
vt 0.001373630 0.083294049
vt 0.001373630 0.263041914
vt 0.012573820 0.077758628
vt 0.001373630 0.263041914
vt 0.012573820 0.257506504
vt 0.001373630 0.083294049
vt 0.012913220 0.088997193
vt 0.012913220 0.268745068
vt 0.001373630 0.083294049
vt 0.012913220 0.268745068
vt 0.001373630 0.263041914
vt 0.012913220 0.268745068
vt 0.024113410 0.263209657
vt 0.012573820 0.257506504
vt 0.012913220 0.268745068
vt 0.012573820 0.257506504
vt 0.001373630 0.263041914
vt 0.162249130 0.015191679
vt 0.150709530 0.009488525
vt 0.161909730 0.003953114
vt 0.162249130 0.015191679
vt 0.161909730 0.003953114
vt 0.173449320 0.009656268
vt 0.837750870 0.305942752
vt 0.826550680 0.311567163
vt 0.826550680 0.494205150
vt 0.837750870 0.305942752
vt 0.826550680 0.494205150
vt 0.837750870 0.488580728
vt 0.826550680 0.311567163
vt 0.838090270 0.317362015
vt 0.838090270 0.500000001
vt 0.826550680 0.311567163
vt 0.838090270 0.500000001
vt 0.826550680 0.494205150
vt 0.161909730 0.003953114
vt 0.150709530 0.009488525
vt 0.150709530 0.189236400
vt 0.161909730 0.003953114
vt 0.150709530 0.189236400
vt 0.161909730 0.183700989
vt 0.150709530 0.009488525
vt 0.162249130 0.015191679
vt 0.162249130 0.194939554
vt 0.150709530 0.009488525
vt 0.162249130 0.194939554
vt 0.150709530 0.189236400
vt 0.162249130 0.194939554
vt 0.173449320 0.189404143
vt 0.161909730 0.183700989
vt 0.162249130 0.194939554
vt 0.161909730 0.183700989
vt 0.150709530 0.189236400
vt 0.015289020 0.246167999
vt 0.003410030 0.240297112
vt 0.159533930 0.163136790
vt 0.015289020 0.246167999
vt 0.159533930 0.163136790
vt 0.171412920 0.169007688
vt 0.984710980 0.392693684
vt 0.828587080 0.471094629
vt 0.828587080 0.490924714
vt 0.984710980 0.392693684
vt 0.828587080 0.490924714
vt 0.984710980 0.412523769
vt 0.828587080 0.471094629
vt 0.840466070 0.477059921
vt 0.840466070 0.496890006
vt 0.828587080 0.471094629
vt 0.840466070 0.496890006
vt 0.828587080 0.490924714
vt 0.159533930 0.163136790
vt 0.003410030 0.240297112
vt 0.003410030 0.259813398
vt 0.159533930 0.163136790
vt 0.003410030 0.259813398
vt 0.159533930 0.182653077
vt 0.003410030 0.240297112
vt 0.015289020 0.246167999
vt 0.015289020 0.265684286
vt 0.003410030 0.240297112
vt 0.015289020 0.265684286
vt 0.003410030 0.259813398
vt 0.015289020 0.265684286
vt 0.171412920 0.188523974
vt 0.159533930 0.182653077
vt 0.015289020 0.265684286
vt 0.159533930 0.182653077
vt 0.003410030 0.259813398
vt 0.023604310 0.176863991
vt 0.014779920 0.172502754
vt 0.022246710 0.168812480
vt 0.023604310 0.176863991
vt 0.022246710 0.168812480
vt 0.031071110 0.173173717
vt 0.976395690 0.333694627
vt 0.968928890 0.337444241
vt 0.968928890 0.404240301
vt 0.976395690 0.333694627
vt 0.968928890 0.404240301
vt 0.976395690 0.400490697
vt 0.968928890 0.337444241
vt 0.977753290 0.341875598
vt 0.977753290 0.408671658
vt 0.968928890 0.337444241
vt 0.977753290 0.408671658
vt 0.968928890 0.404240301
vt 0.022246710 0.168812480
vt 0.014779920 0.172502754
vt 0.014779920 0.238241827
vt 0.022246710 0.168812480
vt 0.014779920 0.238241827
vt 0.022246710 0.234551553
vt 0.014779920 0.172502754
vt 0.023604310 0.176863991
vt 0.023604310 0.242603064
vt 0.014779920 0.172502754
vt 0.023604310 0.242603064
vt 0.014779920 0.238241827
vt 0.055847290 0.160928712
vt 0.047022900 0.156567475
vt 0.054489690 0.152877202
vt 0.055847290 0.160928712
vt 0.054489690 0.152877202
vt 0.063314090 0.157238439
vt 0.944152710 0.349886128
vt 0.936685910 0.353635732
vt 0.936685910 0.420431802
vt 0.944152710 0.349886128
vt 0.936685910 0.420431802
vt 0.944152710 0.416682198
vt 0.936685910 0.353635732
vt 0.945510310 0.358067099
vt 0.945510310 0.424863159
vt 0.936685910 0.353635732
vt 0.945510310 0.424863159
vt 0.936685910 0.420431802
vt 0.054489690 0.152877202
vt 0.047022900 0.156567475
vt 0.047022900 0.222306549
vt 0.054489690 0.152877202
vt 0.047022900 0.222306549
vt 0.054489690 0.218616275
vt 0.047022900 0.156567475
vt 0.055847290 0.160928712
vt 0.055847290 0.226667786
vt 0.047022900 0.156567475
vt 0.055847290 0.226667786
vt 0.047022900 0.222306549
vt 0.088090270 0.144993424
vt 0.079265880 0.140632197
vt 0.086732670 0.136941913
vt 0.088090270 0.144993424
vt 0.086732670 0.136941913
vt 0.095557070 0.141303150
vt 0.911909730 0.366077629
vt 0.904442930 0.369827233
vt 0.904442930 0.436623303
vt 0.911909730 0.366077629
vt 0.904442930 0.436623303
vt 0.911909730 0.432873689
vt 0.904442930 0.369827233
vt 0.913267330 0.374258600
vt 0.913267330 0.441054660
vt 0.904442930 0.369827233
vt 0.913267330 0.441054660
vt 0.904442930 0.436623303
vt 0.086732670 0.136941913
vt 0.079265880 0.140632197
vt 0.079265880 0.206371260
vt 0.086732670 0.136941913
vt 0.079265880 0.206371260
vt 0.086732670 0.202680986
vt 0.079265880 0.140632197
vt 0.088090270 0.144993424
vt 0.088090270 0.210732497
vt 0.079265880 0.140632197
vt 0.088090270 0.210732497
vt 0.079265880 0.206371260
vt 0.120333250 0.129058146
vt 0.111508860 0.124696909
vt 0.118975650 0.121006635
vt 0.120333250 0.129058146
vt 0.118975650 0.121006635
vt 0.127800050 0.125367872
vt 0.879666750 0.382269130
vt 0.872199950 0.386018734
vt 0.872199950 0.452814804
vt 0.879666750 0.382269130
vt 0.872199950 0.452814804
vt 0.879666750 0.449065190
vt 0.872199950 0.386018734
vt 0.881024350 0.390450091
vt 0.881024350 0.457246160
vt 0.872199950 0.386018734
vt 0.881024350 0.457246160
vt 0.872199950 0.452814804
vt 0.118975650 0.121006635
vt 0.111508860 0.124696909
vt 0.111508860 0.190435982
vt 0.118975650 0.121006635
vt 0.111508860 0.190435982
vt 0.118975650 0.186745708
vt 0.111508860 0.124696909
vt 0.120333250 0.129058146
vt 0.120333250 0.194797219
vt 0.111508860 0.124696909
vt 0.120333250 0.194797219
vt 0.111508860 0.190435982
vt 0.152576230 0.113122867
vt 0.143751840 0.108761630
vt 0.151218630 0.105071357
vt 0.152576230 0.113122867
vt 0.151218630 0.105071357
vt 0.160043030 0.109432584
vt 0.847423770 0.398460631
vt 0.839956970 0.402210235
vt 0.839956970 0.469006305
vt 0.847423770 0.398460631
vt 0.839956970 0.469006305
vt 0.847423770 0.465256691
vt 0.839956970 0.402210235
vt 0.848781370 0.406641591
vt 0.848781370 0.473437661
vt 0.839956970 0.402210235
vt 0.848781370 0.473437661
vt 0.839956970 0.469006305
vt 0.151218630 0.105071357
vt 0.143751840 0.108761630
vt 0.143751840 0.174500704
vt 0.151218630 0.105071357
vt 0.143751840 0.174500704
vt 0.151218630 0.170810420
vt 0.143751840 0.108761630
vt 0.152576230 0.113122867
vt 0.152576230 0.178861931
vt 0.143751840 0.108761630
vt 0.152576230 0.178861931
vt 0.143751840 0.174500704
vn 0.00000000 0.00000000 -1.00000000
vn 0.00000000 0.00000000 -1.00000000
vn 0.00000000 0.00000000 -1.00000000
vn 0.00000000 0.00000000 -1.00000000
vn 0.00000000 0.00000000 -1.00000000
vn 0.00000000 0.00000000 -1.00000000
vn 0.00000000 0.00000000 -1.00000000
vn 0.00000000 0.00000000 -1.00000000
vn 0.00000000 0.00000000 -1.00000000
vn 0.00000000 0.00000000 -1.00000000
vn 0.00000000 0.00000000 -1.00000000
vn 0.00000000 0.00000000 -1.00000000
vn 0.00000000 -0.00000000 1.00000000
vn 0.00000000 -0.00000000 1.00000000
vn 0.00000000 -0.00000000 1.00000000
vn 0.00000000 0.00000000 1.00000000
vn 0.00000000 0.00000000 1.00000000
vn 0.00000000 0.00000000 1.00000000
vn 0.00000000 0.00000000 1.00000000
vn 0.00000000 0.00000000 1.00000000
vn 0.00000000 0.00000000 1.00000000
vn 0.00000000 0.00000000 1.00000000
vn 0.00000000 0.00000000 1.00000000
vn 0.00000000 0.00000000 1.00000000
vn 1.00000000 0.00000000 0.00000000
vn 1.00000000 0.00000000 0.00000000
vn 1.00000000 0.00000000 0.00000000
vn 1.00000000 0.00000000 0.00000000
vn 1.00000000 0.00000000 0.00000000
vn 1.00000000 0.00000000 0.00000000
vn 0.70710678 0.70710678 0.00000000
vn 0.70710678 0.70710678 0.00000000
vn 0.70710678 0.70710678 0.00000000
vn 0.70710678 0.70710678 -0.00000000
vn 0.70710678 0.70710678 -0.00000000
vn 0.70710678 0.70710678 -0.00000000
vn 0.00000000 1.00000000 0.00000000
vn 0.00000000 1.00000000 0.00000000
vn 0.00000000 1.00000000 0.00000000
vn 0.00000000 1.00000000 -0.00000000
vn 0.00000000 1.00000000 -0.00000000
vn 0.00000000 1.00000000 -0.00000000
vn -0.70710678 0.70710678 0.00000000
vn -0.70710678 0.70710678 0.00000000
vn -0.70710678 0.70710678 0.00000000
vn -0.70710678 0.70710678 0.00000000
vn -0.70710678 0.70710678 0.00000000
vn -0.70710678 0.70710678 0.00000000
vn -1.00000000 0.00000000 0.00000000
vn -1.00000000 0.00000000 0.00000000
vn -1.00000000 0.00000000 0.00000000
vn -1.00000000 0.00000000 0.00000000
vn -1.00000000 0.00000000 0.00000000
vn -1.00000000 0.00000000 0.00000000
vn 0.00000000 0.00000000 -1.00000000
vn 0.00000000 0.00000000 -1.00000000
vn 0.00000000 0.00000000 -1.00000000
vn 0.00000000 0.00000000 -1.00000000
vn 0.00000000 0.00000000 -1.00000000
vn 0.00000000 0.00000000 -1.00000000
vn 1.00000000 0.00000000 0.00000000
vn 1.00000000 0.00000000 0.00000000
vn 1.00000000 0.00000000 0.00000000
vn 1.00000000 0.00000000 0.00000000
vn 1.00000000 0.00000000 0.00000000
vn 1.00000000 0.00000000 0.00000000
vn 0.00000000 1.00000000 0.00000000
vn 0.00000000 1.00000000 0.00000000
vn 0.00000000 1.00000000 0.00000000
vn 0.00000000 1.00000000 -0.00000000
vn 0.00000000 1.00000000 -0.00000000
vn 0.00000000 1.00000000 -0.00000000
vn -1.00000000 0.00000000 0.00000000
vn -1.00000000 0.00000000 0.00000000
vn -1.00000000 0.00000000 0.00000000
vn -1.00000000 0.00000000 0.00000000
vn -1.00000000 0.00000000 0.00000000
vn -1.00000000 0.00000000 0.00000000
vn 0.00000000 -0.00000000 1.00000000
vn 0.00000000 -0.00000000 1.00000000
vn 0.00000000 -0.00000000 1.00000000
vn 0.00000000 0.00000000 1.00000000
vn 0.00000000 0.00000000 1.00000000
vn 0.00000000 0.00000000 1.00000000
vn 0.00000000 0.00000000 -1.00000000
vn 0.00000000 0.00000000 -1.00000000
vn 0.00000000 0.00000000 -1.00000000
vn 0.00000000 0.00000000 -1.00000000
vn 0.00000000 0.00000000 -1.00000000
vn 0.00000000 0.00000000 -1.00000000
vn 1.00000000 0.00000000 0.00000000
vn 1.00000000 0.00000000 0.00000000
vn 1.00000000 0.00000000 0.00000000
vn 1.00000000 0.00000000 0.00000000
vn 1.00000000 0.00000000 0.00000000
vn 1.00000000 0.00000000 0.00000000
vn 0.00000000 1.00000000 0.00000000
vn 0.00000000 1.00000000 0.00000000
vn 0.00000000 1.00000000 0.00000000
vn 0.00000000 1.00000000 -0.00000000
vn 0.00000000 1.00000000 -0.00000000
vn 0.00000000 1.00000000 -0.00000000
vn -1.00000000 0.00000000 0.00000000
vn -1.00000000 0.00000000 0.00000000
vn -1.00000000 0.00000000 0.00000000
vn -1.00000000 0.00000000 0.00000000
vn -1.00000000 0.00000000 0.00000000
vn -1.00000000 0.00000000 0.00000000
vn 0.00000000 -0.00000000 1.00000000
vn 0.00000000 -0.00000000 1.00000000
vn 0.00000000 -0.00000000 1.00000000
vn 0.00000000 0.00000000 1.00000000
vn 0.00000000 0.00000000 1.00000000
vn 0.00000000 0.00000000 1.00000000
vn 0.00000000 0.00000000 -1.00000000
vn 0.00000000 0.00000000 -1.00000000
vn 0.00000000 0.00000000 -1.00000000
vn 0.00000000 0.00000000 -1.00000000
vn 0.00000000 0.00000000 -1.00000000
vn 0.00000000 0.00000000 -1.00000000
vn 0.00000000 -1.00000000 0.00000000
vn 0.00000000 -1.00000000 0.00000000
vn 0.00000000 -1.00000000 0.00000000
vn 0.00000000 -1.00000000 0.00000000
vn 0.00000000 -1.00000000 0.00000000
vn 0.00000000 -1.00000000 0.00000000
vn 1.00000000 0.00000000 0.00000000
vn 1.00000000 0.00000000 0.00000000
vn 1.00000000 0.00000000 0.00000000
vn 1.00000000 0.00000000 0.00000000
vn 1.00000000 0.00000000 0.00000000
vn 1.00000000 0.00000000 0.00000000
vn 0.00000000 1.00000000 0.00000000
vn 0.00000000 1.00000000 0.00000000
vn 0.00000000 1.00000000 0.00000000
vn 0.00000000 1.00000000 -0.00000000
vn 0.00000000 1.00000000 -0.00000000
vn 0.00000000 1.00000000 -0.00000000
vn -1.00000000 0.00000000 0.00000000
vn -1.00000000 0.00000000 0.00000000
vn -1.00000000 0.00000000 0.00000000
vn -1.00000000 0.00000000 0.00000000
vn -1.00000000 0.00000000 0.00000000
vn -1.00000000 0.00000000 0.00000000
vn 0.00000000 0.00000000 1.00000000
vn 0.00000000 0.00000000 1.00000000
vn 0.00000000 0.00000000 1.00000000
vn 0.00000000 0.00000000 1.00000000
vn 0.00000000 0.00000000 1.00000000
vn 0.00000000 0.00000000 1.00000000
vn 0.00000000 0.00000000 -1.00000000
vn 0.00000000 0.00000000 -1.00000000
vn 0.00000000 0.00000000 -1.00000000
vn 0.00000000 0.00000000 -1.00000000
vn 0.00000000 0.00000000 -1.00000000
vn 0.00000000 0.00000000 -1.00000000
vn 0.00000000 -1.00000000 0.00000000
vn 0.00000000 -1.00000000 0.00000000
vn 0.00000000 -1.00000000 0.00000000
vn 0.00000000 -1.00000000 0.00000000
vn 0.00000000 -1.00000000 0.00000000
vn 0.00000000 -1.00000000 0.00000000
vn 1.00000000 0.00000000 0.00000000
vn 1.00000000 0.00000000 0.00000000
vn 1.00000000 0.00000000 0.00000000
vn 1.00000000 0.00000000 0.00000000
vn 1.00000000 0.00000000 0.00000000
vn 1.00000000 0.00000000 0.00000000
vn 0.00000000 1.00000000 0.00000000
vn 0.00000000 1.00000000 0.00000000
vn 0.00000000 1.00000000 0.00000000
vn 0.00000000 1.00000000 -0.00000000
vn 0.00000000 1.00000000 -0.00000000
vn 0.00000000 1.00000000 -0.00000000
vn -1.00000000 0.00000000 0.00000000
vn -1.00000000 0.00000000 0.00000000
vn -1.00000000 0.00000000 0.00000000
vn -1.00000000 0.00000000 0.00000000
vn -1.00000000 0.00000000 0.00000000
vn -1.00000000 0.00000000 0.00000000
vn 0.00000000 0.00000000 1.00000000
vn 0.00000000 0.00000000 1.00000000
vn 0.00000000 0.00000000 1.00000000
vn 0.00000000 0.00000000 1.00000000
vn 0.00000000 0.00000000 1.00000000
vn 0.00000000 0.00000000 1.00000000
vn 0.00000000 0.00000000 -1.00000000
vn 0.00000000 0.00000000 -1.00000000
vn 0.00000000 0.00000000 -1.00000000
vn 0.00000000 0.00000000 -1.00000000
vn 0.00000000 0.00000000 -1.00000000
vn 0.00000000 0.00000000 -1.00000000
vn 0.00000000 -1.00000000 0.00000000
vn 0.00000000 -1.00000000 0.00000000
vn 0.00000000 -1.00000000 0.00000000
vn 0.00000000 -1.00000000 0.00000000
vn 0.00000000 -1.00000000 0.00000000
vn 0.00000000 -1.00000000 0.00000000
vn 1.00000000 0.00000000 0.00000000
vn 1.00000000 0.00000000 0.00000000
vn 1.00000000 0.00000000 0.00000000
vn 1.00000000 0.00000000 0.00000000
vn 1.00000000 0.00000000 0.00000000
vn 1.00000000 0.00000000 0.00000000
vn 0.00000000 1.00000000 0.00000000
vn 0.00000000 1.00000000 0.00000000
vn 0.00000000 1.00000000 0.00000000
vn 0.00000000 1.00000000 -0.00000000
vn 0.00000000 1.00000000 -0.00000000
vn 0.00000000 1.00000000 -0.00000000
vn -1.00000000 0.00000000 0.00000000
vn -1.00000000 0.00000000 0.00000000
vn -1.00000000 0.00000000 0.00000000
vn -1.00000000 0.00000000 0.00000000
vn -1.00000000 0.00000000 0.00000000
vn -1.00000000 0.00000000 0.00000000
vn 0.00000000 0.00000000 1.00000000
vn 0.00000000 0.00000000 1.00000000
vn 0.00000000 0.00000000 1.00000000
vn 0.00000000 0.00000000 1.00000000
vn 0.00000000 0.00000000 1.00000000
vn 0.00000000 0.00000000 1.00000000
vn 0.00000000 0.00000000 -1.00000000
vn 0.00000000 0.00000000 -1.00000000
vn 0.00000000 0.00000000 -1.00000000
vn 0.00000000 0.00000000 -1.00000000
vn 0.00000000 0.00000000 -1.00000000
vn 0.00000000 0.00000000 -1.00000000
vn 0.00000000 -1.00000000 0.00000000
vn 0.00000000 -1.00000000 0.00000000
vn 0.00000000 -1.00000000 0.00000000
vn 0.00000000 -1.00000000 0.00000000
vn 0.00000000 -1.00000000 0.00000000
vn 0.00000000 -1.00000000 0.00000000
vn 1.00000000 0.00000000 0.00000000
vn 1.00000000 0.00000000 0.00000000
vn 1.00000000 0.00000000 0.00000000
vn 1.00000000 0.00000000 0.00000000
vn 1.00000000 0.00000000 0.00000000
vn 1.00000000 0.00000000 0.00000000
vn 0.00000000 1.00000000 0.00000000
vn 0.00000000 1.00000000 0.00000000
vn 0.00000000 1.00000000 0.00000000
vn 0.00000000 1.00000000 -0.00000000
vn 0.00000000 1.00000000 -0.00000000
vn 0.00000000 1.00000000 -0.00000000
vn -1.00000000 0.00000000 0.00000000
vn -1.00000000 0.00000000 0.00000000
vn -1.00000000 0.00000000 0.00000000
vn -1.00000000 0.00000000 0.00000000
vn -1.00000000 0.00000000 0.00000000
vn -1.00000000 0.00000000 0.00000000
vn 0.00000000 0.00000000 1.00000000
vn 0.00000000 0.00000000 1.00000000
vn 0.00000000 0.00000000 1.00000000
vn 0.00000000 0.00000000 1.00000000
vn 0.00000000 0.00000000 1.00000000
vn 0.00000000 0.00000000 1.00000000
vn 0.00000000 0.00000000 -1.00000000
vn 0.00000000 0.00000000 -1.00000000
vn 0.00000000 0.00000000 -1.00000000
vn 0.00000000 0.00000000 -1.00000000
vn 0.00000000 0.00000000 -1.00000000
vn 0.00000000 0.00000000 -1.00000000
vn 0.00000000 -1.00000000 0.00000000
vn 0.00000000 -1.00000000 0.00000000
vn 0.00000000 -1.00000000 0.00000000
vn 0.00000000 -1.00000000 0.00000000
vn 0.00000000 -1.00000000 0.00000000
vn 0.00000000 -1.00000000 0.00000000
vn 1.00000000 0.00000000 0.00000000
vn 1.00000000 0.00000000 0.00000000
vn 1.00000000 0.00000000 0.00000000
vn 1.00000000 0.00000000 0.00000000
vn 1.00000000 0.00000000 0.00000000
vn 1.00000000 0.00000000 0.00000000
vn 0.00000000 1.00000000 0.00000000
vn 0.00000000 1.00000000 0.00000000
vn 0.00000000 1.00000000 0.00000000
vn 0.00000000 1.00000000 -0.00000000
vn 0.00000000 1.00000000 -0.00000000
vn 0.00000000 1.00000000 -0.00000000
vn -1.00000000 0.00000000 0.00000000
vn -1.00000000 0.00000000 0.00000000
vn -1.00000000 0.00000000 0.00000000
vn -1.00000000 0.00000000 0.00000000
vn -1.00000000 0.00000000 0.00000000
vn -1.00000000 0.00000000 0.00000000
vn 0.00000000 0.00000000 1.00000000
vn 0.00000000 0.00000000 1.00000000
vn 0.00000000 0.00000000 1.00000000
vn 0.00000000 0.00000000 1.00000000
vn 0.00000000 0.00000000 1.00000000
vn 0.00000000 0.00000000 1.00000000
vn 0.00000000 0.00000000 -1.00000000
vn 0.00000000 0.00000000 -1.00000000
vn 0.00000000 0.00000000 -1.00000000
vn 0.00000000 0.00000000 -1.00000000
vn 0.00000000 0.00000000 -1.00000000
vn 0.00000000 0.00000000 -1.00000000
vn 0.00000000 -1.00000000 0.00000000
vn 0.00000000 -1.00000000 0.00000000
vn 0.00000000 -1.00000000 0.00000000
vn 0.00000000 -1.00000000 0.00000000
vn 0.00000000 -1.00000000 0.00000000
vn 0.00000000 -1.00000000 0.00000000
vn 1.00000000 0.00000000 0.00000000
vn 1.00000000 0.00000000 0.00000000
vn 1.00000000 0.00000000 0.00000000
vn 1.00000000 0.00000000 0.00000000
vn 1.00000000 0.00000000 0.00000000
vn 1.00000000 0.00000000 0.00000000
vn 0.00000000 1.00000000 0.00000000
vn 0.00000000 1.00000000 0.00000000
vn 0.00000000 1.00000000 0.00000000
vn 0.00000000 1.00000000 -0.00000000
vn 0.00000000 1.00000000 -0.00000000
vn 0.00000000 1.00000000 -0.00000000
vn -1.00000000 0.00000000 0.00000000
vn -1.00000000 0.00000000 0.00000000
vn -1.00000000 0.00000000 0.00000000
vn -1.00000000 0.00000000 0.00000000
vn -1.00000000 0.00000000 0.00000000
vn -1.00000000 0.00000000 0.00000000
vn 0.00000000 0.00000000 1.00000000
vn 0.00000000 0.00000000 1.00000000
vn 0.00000000 0.00000000 1.00000000
vn 0.00000000 0.00000000 1.00000000
vn 0.00000000 0.00000000 1.00000000
vn 0.00000000 0.00000000 1.00000000
vn 0.00000000 0.00000000 -1.00000000
vn 0.00000000 0.00000000 -1.00000000
vn 0.00000000 0.00000000 -1.00000000
vn 0.00000000 0.00000000 -1.00000000
vn 0.00000000 0.00000000 -1.00000000
vn 0.00000000 0.00000000 -1.00000000
vn 0.00000000 -1.00000000 0.00000000
vn 0.00000000 -1.00000000 0.00000000
vn 0.00000000 -1.00000000 0.00000000
vn 0.00000000 -1.00000000 0.00000000
vn 0.00000000 -1.00000000 0.00000000
vn 0.00000000 -1.00000000 0.00000000
vn 1.00000000 0.00000000 0.00000000
vn 1.00000000 0.00000000 0.00000000
vn 1.00000000 0.00000000 0.00000000
vn 1.00000000 0.00000000 0.00000000
vn 1.00000000 0.00000000 0.00000000
vn 1.00000000 0.00000000 0.00000000
vn 0.00000000 1.00000000 0.00000000
vn 0.00000000 1.00000000 0.00000000
vn 0.00000000 1.00000000 0.00000000
vn 0.00000000 1.00000000 -0.00000000
vn 0.00000000 1.00000000 -0.00000000
vn 0.00000000 1.00000000 -0.00000000
vn -1.00000000 0.00000000 0.00000000
vn -1.00000000 0.00000000 0.00000000
vn -1.00000000 0.00000000 0.00000000
vn -1.00000000 0.00000000 0.00000000
vn -1.00000000 0.00000000 0.00000000
vn -1.00000000 0.00000000 0.00000000
vn 0.00000000 0.00000000 -1.00000000
vn 0.00000000 0.00000000 -1.00000000
vn 0.00000000 0.00000000 -1.00000000
vn 0.00000000 0.00000000 -1.00000000
vn 0.00000000 0.00000000 -1.00000000
vn 0.00000000 0.00000000 -1.00000000
vn 0.00000000 -1.00000000 0.00000000
vn 0.00000000 -1.00000000 0.00000000
vn 0.00000000 -1.00000000 0.00000000
vn 0.00000000 -1.00000000 0.00000000
vn 0.00000000 -1.00000000 0.00000000
vn 0.00000000 -1.00000000 0.00000000
vn 1.00000000 0.00000000 0.00000000
vn 1.00000000 0.00000000 0.00000000
vn 1.00000000 0.00000000 0.00000000
vn 1.00000000 0.00000000 0.00000000
vn 1.00000000 0.00000000 0.00000000
vn 1.00000000 0.00000000 0.00000000
vn 0.00000000 1.00000000 0.00000000
vn 0.00000000 1.00000000 0.00000000
vn 0.00000000 1.00000000 0.00000000
vn 0.00000000 1.00000000 -0.00000000
vn 0.00000000 1.00000000 -0.00000000
vn 0.00000000 1.00000000 -0.00000000
vn -1.00000000 0.00000000 0.00000000
vn -1.00000000 0.00000000 0.00000000
vn -1.00000000 0.00000000 0.00000000
vn -1.00000000 0.00000000 0.00000000
vn -1.00000000 0.00000000 0.00000000
vn -1.00000000 0.00000000 0.00000000
vn 0.00000000 0.00000000 -1.00000000
vn 0.00000000 0.00000000 -1.00000000
vn 0.00000000 0.00000000 -1.00000000
vn 0.00000000 0.00000000 -1.00000000
vn 0.00000000 0.00000000 -1.00000000
vn 0.00000000 0.00000000 -1.00000000
vn 0.00000000 -1.00000000 0.00000000
vn 0.00000000 -1.00000000 0.00000000
vn 0.00000000 -1.00000000 0.00000000
vn 0.00000000 -1.00000000 0.00000000
vn 0.00000000 -1.00000000 0.00000000
vn 0.00000000 -1.00000000 0.00000000
vn 1.00000000 0.00000000 0.00000000
vn 1.00000000 0.00000000 0.00000000
vn 1.00000000 0.00000000 0.00000000
vn 1.00000000 0.00000000 0.00000000
vn 1.00000000 0.00000000 0.00000000
vn 1.00000000 0.00000000 0.00000000
vn 0.00000000 1.00000000 0.00000000
vn 0.00000000 1.00000000 0.00000000
vn 0.00000000 1.00000000 0.00000000
vn 0.00000000 1.00000000 -0.00000000
vn 0.00000000 1.00000000 -0.00000000
vn 0.00000000 1.00000000 -0.00000000
vn -1.00000000 0.00000000 0.00000000
vn -1.00000000 0.00000000 0.00000000
vn -1.00000000 0.00000000 0.00000000
vn -1.00000000 0.00000000 0.00000000
vn -1.00000000 0.00000000 0.00000000
vn -1.00000000 0.00000000 0.00000000
vn 0.00000000 0.00000000 -1.00000000
vn 0.00000000 0.00000000 -1.00000000
vn 0.00000000 0.00000000 -1.00000000
vn 0.00000000 0.00000000 -1.00000000
vn 0.00000000 0.00000000 -1.00000000
vn 0.00000000 0.00000000 -1.00000000
vn 0.00000000 -1.00000000 0.00000000
vn 0.00000000 -1.00000000 0.00000000
vn 0.00000000 -1.00000000 0.00000000
vn 0.00000000 -1.00000000 0.00000000
vn 0.00000000 -1.00000000 0.00000000
vn 0.00000000 -1.00000000 0.00000000
vn 1.00000000 0.00000000 0.00000000
vn 1.00000000 0.00000000 0.00000000
vn 1.00000000 0.00000000 0.00000000
vn 1.00000000 0.00000000 0.00000000
vn 1.00000000 0.00000000 0.00000000
vn 1.00000000 0.00000000 0.00000000
vn 0.00000000 1.00000000 0.00000000
vn 0.00000000 1.00000000 0.00000000
vn 0.00000000 1.00000000 0.00000000
vn 0.00000000 1.00000000 -0.00000000
vn 0.00000000 1.00000000 -0.00000000
vn 0.00000000 1.00000000 -0.00000000
vn -1.00000000 0.00000000 0.00000000
vn -1.00000000 0.00000000 0.00000000
vn -1.00000000 0.00000000 0.00000000
vn -1.00000000 0.00000000 0.00000000
vn -1.00000000 0.00000000 0.00000000
vn -1.00000000 0.00000000 0.00000000
vn 0.00000000 0.00000000 -1.00000000
vn 0.00000000 0.00000000 -1.00000000
vn 0.00000000 0.00000000 -1.00000000
vn 0.00000000 0.00000000 -1.00000000
vn 0.00000000 0.00000000 -1.00000000
vn 0.00000000 0.00000000 -1.00000000
vn 0.00000000 -1.00000000 0.00000000
vn 0.00000000 -1.00000000 0.00000000
vn 0.00000000 -1.00000000 0.00000000
vn 0.00000000 -1.00000000 0.00000000
vn 0.00000000 -1.00000000 0.00000000
vn 0.00000000 -1.00000000 0.00000000
vn 1.00000000 0.00000000 0.00000000
vn 1.00000000 0.00000000 0.00000000
vn 1.00000000 0.00000000 0.00000000
vn 1.00000000 0.00000000 0.00000000
vn 1.00000000 0.00000000 0.00000000
vn 1.00000000 0.00000000 0.00000000
vn 0.00000000 1.00000000 0.00000000
vn 0.00000000 1.00000000 0.00000000
vn 0.00000000 1.00000000 0.00000000
vn 0.00000000 1.00000000 -0.00000000
vn 0.00000000 1.00000000 -0.00000000
vn 0.00000000 1.00000000 -0.00000000
vn -1.00000000 0.00000000 0.00000000
vn -1.00000000 0.00000000 0.00000000
vn -1.00000000 0.00000000 0.00000000
vn -1.00000000 0.00000000 0.00000000
vn -1.00000000 0.00000000 0.00000000
vn -1.00000000 0.00000000 0.00000000
o root
usemtl original
f 1/1/1 2/2/2 3/3/3
f 4/4/4 5/5/5 6/6/6
f 7/7/7 8/8/8 9/9/9
f 10/10/10 11/11/11 12/12/12
f 13/13/13 14/14/14 15/15/15
f 16/16/16 17/17/17 18/18/18
f 19/19/19 20/20/20 21/21/21
f 22/22/22 23/23/23 24/24/24
f 25/25/25 26/26/26 27/27/27
f 28/28/28 29/29/29 30/30/30
f 31/31/31 32/32/32 33/33/33
f 34/34/34 35/35/35 36/36/36
f 37/37/37 38/38/38 39/39/39
f 40/40/40 41/41/41 42/42/42
f 43/43/43 44/44/44 45/45/45
f 46/46/46 47/47/47 48/48/48
f 49/49/49 50/50/50 51/51/51
f 52/52/52 53/53/53 54/54/54
f 55/55/55 56/56/56 57/57/57
f 58/58/58 59/59/59 60/60/60
f 61/61/61 62/62/62 63/63/63
f 64/64/64 65/65/65 66/66/66
f 67/67/67 68/68/68 69/69/69
f 70/70/70 71/71/71 72/72/72
f 73/73/73 74/74/74 75/75/75
f 76/76/76 77/77/77 78/78/78
f 79/79/79 80/80/80 81/81/81
f 82/82/82 83/83/83 84/84/84
f 85/85/85 86/86/86 87/87/87
f 88/88/88 89/89/89 90/90/90
f 91/91/91 92/92/92 93/93/93
f 94/94/94 95/95/95 96/96/96
f 97/97/97 98/98/98 99/99/99
f 100/100/100 101/101/101 102/102/102
f 103/103/103 104/104/104 105/105/105
f 106/106/106 107/107/107 108/108/108
f 109/109/109 110/110/110 111/111/111
f 112/112/112 113/113/113 114/114/114
f 115/115/115 116/116/116 117/117/117
f 118/118/118 119/119/119 120/120/120
f 121/121/121 122/122/122 123/123/123
f 124/124/124 125/125/125 126/126/126
f 127/127/127 128/128/128 129/129/129
f 130/130/130 131/131/131 132/132/132
f 133/133/133 134/134/134 135/135/135
f 136/136/136 137/137/137 138/138/138
f 139/139/139 140/140/140 141/141/141
f 142/142/142 143/143/143 144/144/144
f 145/145/145 146/146/146 147/147/147
f 148/148/148 149/149/149 150/150/150
f 151/151/151 152/152/152 153/153/153
f 154/154/154 155/155/155 156/156/156
f 157/157/157 158/158/158 159/159/159
f 160/160/160 161/161/161 162/162/162
f 163/163/163 164/164/164 165/165/165
f 166/166/166 167/167/167 168/168/168
f 169/169/169 170/170/170 171/171/171
f 172/172/172 173/173/173 174/174/174
f 175/175/175 176/176/176 177/177/177
f 178/178/178 179/179/179 180/180/180
f 181/181/181 182/182/182 183/183/183
f 184/184/184 185/185/185 186/186/186
f 187/187/187 188/188/188 189/189/189
f 190/190/190 191/191/191 192/192/192
f 193/193/193 194/194/194 195/195/195
f 196/196/196 197/197/197 198/198/198
f 199/199/199 200/200/200 201/201/201
f 202/202/202 203/203/203 204/204/204
f 205/205/205 206/206/206 207/207/207
f 208/208/208 209/209/209 210/210/210
f 211/211/211 212/212/212 213/213/213
f 214/214/214 215/215/215 216/216/216
f 217/217/217 218/218/218 219/219/219
f 220/220/220 221/221/221 222/222/222
f 223/223/223 224/224/224 225/225/225
f 226/226/226 227/227/227 228/228/228
f 229/229/229 230/230/230 231/231/231
f 232/232/232 233/233/233 234/234/234
f 235/235/235 236/236/236 237/237/237
f 238/238/238 239/239/239 240/240/240
f 241/241/241 242/242/242 243/243/243
f 244/244/244 245/245/245 246/246/246
f 247/247/247 248/248/248 249/249/249
f 250/250/250 251/251/251 252/252/252
f 253/253/253 254/254/254 255/255/255
f 256/256/256 257/257/257 258/258/258
f 259/259/259 260/260/260 261/261/261
f 262/262/262 263/263/263 264/264/264
f 265/265/265 266/266/266 267/267/267
f 268/268/268 269/269/269 270/270/270
f 271/271/271 272/272/272 273/273/273
f 274/274/274 275/275/275 276/276/276
f 277/277/277 278/278/278 279/279/279
f 280/280/280 281/281/281 282/282/282
f 283/283/283 284/284/284 285/285/285
f 286/286/286 287/287/287 288/288/288
f 289/289/289 290/290/290 291/291/291
f 292/292/292 293/293/293 294/294/294
f 295/295/295 296/296/296 297/297/297
f 298/298/298 299/299/299 300/300/300
f 301/301/301 302/302/302 303/303/303
f 304/304/304 305/305/305 306/306/306
f 307/307/307 308/308/308 309/309/309
f 310/310/310 311/311/311 312/312/312
f 313/313/313 314/314/314 315/315/315
f 316/316/316 317/317/317 318/318/318
f 319/319/319 320/320/320 321/321/321
f 322/322/322 323/323/323 324/324/324
f 325/325/325 326/326/326 327/327/327
f 328/328/328 329/329/329 330/330/330
f 331/331/331 332/332/332 333/333/333
f 334/334/334 335/335/335 336/336/336
f 337/337/337 338/338/338 339/339/339
f 340/340/340 341/341/341 342/342/342
f 343/343/343 344/344/344 345/345/345
f 346/346/346 347/347/347 348/348/348
f 349/349/349 350/350/350 351/351/351
f 352/352/352 353/353/353 354/354/354
f 355/355/355 356/356/356 357/357/357
f 358/358/358 359/359/359 360/360/360
f 361/361/361 362/362/362 363/363/363
f 364/364/364 365/365/365 366/366/366
f 367/367/367 368/368/368 369/369/369
f 370/370/370 371/371/371 372/372/372
f 373/373/373 374/374/374 375/375/375
f 376/376/376 377/377/377 378/378/378
f 379/379/379 380/380/380 381/381/381
f 382/382/382 383/383/383 384/384/384
f 385/385/385 386/386/386 387/387/387
f 388/388/388 389/389/389 390/390/390
f 391/391/391 392/392/392 393/393/393
f 394/394/394 395/395/395 396/396/396
f 397/397/397 398/398/398 399/399/399
f 400/400/400 401/401/401 402/402/402
f 403/403/403 404/404/404 405/405/405
f 406/406/406 407/407/407 408/408/408
f 409/409/409 410/410/410 411/411/411
f 412/412/412 413/413/413 414/414/414
f 415/415/415 416/416/416 417/417/417
f 418/418/418 419/419/419 420/420/420
f 421/421/421 422/422/422 423/423/423
f 424/424/424 425/425/425 426/426/426
f 427/427/427 428/428/428 429/429/429
f 430/430/430 431/431/431 432/432/432
f 433/433/433 434/434/434 435/435/435
f 436/436/436 437/437/437 438/438/438
f 439/439/439 440/440/440 441/441/441
f 442/442/442 443/443/443 444/444/444
f 445/445/445 446/446/446 447/447/447
f 448/448/448 449/449/449 450/450/450
f 451/451/451 452/452/452 453/453/453
f 454/454/454 455/455/455 456/456/456
f 457/457/457 458/458/458 459/459/459
f 460/460/460 461/461/461 462/462/462
f 463/463/463 464/464/464 465/465/465
f 466/466/466 467/467/467 468/468/468
f 469/469/469 470/470/470 471/471/471
f 472/472/472 473/473/473 474/474/474
f 475/475/475 476/476/476 477/477/477
f 478/478/478 479/479/479 480/480/480
