# Physical vanilla furniture; Z up; per-tile mesh.
# Tile-local game axes; ObjReader performs the scene conversion.
mtllib pz_bed_bedding_01_simple_0_0.mtl
usemtl original
v -0.4550000 -0.3650000 0.3468680
vt 0.268326255 0.927783180
vn 0.00000000 0.00000000 -1.00000000
v -0.4550000 0.5000000 0.3468680
vt 0.065701880 0.824287550
vn 0.00000000 0.00000000 -1.00000000
v 0.4550000 0.5000000 0.3468680
vt 0.278867409 0.715407760
vn 0.00000000 0.00000000 -1.00000000
f 1/1/1 2/2/2 3/3/3
v -0.4550000 -0.3650000 0.3468680
vt 0.268326255 0.927783180
vn 0.00000000 0.00000000 -1.00000000
v 0.4550000 0.5000000 0.3468680
vt 0.278867409 0.715407760
vn 0.00000000 0.00000000 -1.00000000
v 0.4550000 -0.3650000 0.3468680
vt 0.481491771 0.818903390
vn 0.00000000 0.00000000 -1.00000000
f 4/4/4 5/5/5 6/6/6
v -0.4550000 -0.3650000 0.3468680
vt 0.268326255 0.927783180
vn 0.00000000 0.00000000 -1.00000000
v 0.4550000 -0.3650000 0.3468680
vt 0.481491771 0.818903390
vn 0.00000000 0.00000000 -1.00000000
v 0.4200000 -0.4000000 0.3468680
vt 0.481491771 0.827278760
vn 0.00000000 0.00000000 -1.00000000
f 7/7/7 8/8/8 9/9/9
v -0.4550000 -0.3650000 0.3468680
vt 0.268326255 0.927783180
vn 0.00000000 0.00000000 -1.00000000
v 0.4200000 -0.4000000 0.3468680
vt 0.481491771 0.827278760
vn 0.00000000 0.00000000 -1.00000000
v -0.4200000 -0.4000000 0.3468680
vt 0.284723599 0.927783180
vn 0.00000000 0.00000000 -1.00000000
f 10/10/10 11/11/11 12/12/12
v -0.4200000 -0.4000000 0.5868680
vt 0.284723599 0.998120300
vn 0.00000000 0.00000000 1.00000000
v 0.4200000 -0.4000000 0.5868680
vt 0.481491771 0.897615880
vn 0.00000000 0.00000000 1.00000000
v 0.4550000 -0.3650000 0.5868680
vt 0.481491771 0.889240510
vn 0.00000000 0.00000000 1.00000000
f 13/13/13 14/14/14 15/15/15
v -0.4200000 -0.4000000 0.5868680
vt 0.284723599 0.998120300
vn 0.00000000 0.00000000 1.00000000
v 0.4550000 -0.3650000 0.5868680
vt 0.481491771 0.889240510
vn 0.00000000 0.00000000 1.00000000
v 0.4550000 0.5000000 0.5868680
vt 0.278867409 0.785744880
vn 0.00000000 0.00000000 1.00000000
f 16/16/16 17/17/17 18/18/18
v -0.4200000 -0.4000000 0.5868680
vt 0.284723599 0.998120300
vn 0.00000000 -0.00000000 1.00000000
v 0.4550000 0.5000000 0.5868680
vt 0.278867409 0.785744880
vn 0.00000000 -0.00000000 1.00000000
v -0.4550000 0.5000000 0.5868680
vt 0.065701880 0.894624670
vn 0.00000000 -0.00000000 1.00000000
f 19/19/19 20/20/20 21/21/21
v -0.4200000 -0.4000000 0.5868680
vt 0.284723599 0.998120300
vn 0.00000000 0.00000000 1.00000000
v -0.4550000 0.5000000 0.5868680
vt 0.065701880 0.894624670
vn 0.00000000 0.00000000 1.00000000
v -0.4550000 -0.3650000 0.5868680
vt 0.268326255 0.998120300
vn 0.00000000 0.00000000 1.00000000
f 22/22/22 23/23/23 24/24/24
v -0.4200000 -0.4000000 0.3468680
vt 0.732765579 0.610861080
vn 0.00000000 -1.00000000 0.00000000
v 0.4200000 -0.4000000 0.3468680
vt 0.537109095 0.710405460
vn 0.00000000 -1.00000000 0.00000000
v 0.4200000 -0.4000000 0.5868680
vt 0.537109095 0.780070700
vn 0.00000000 -1.00000000 0.00000000
f 25/25/25 26/26/26 27/27/27
v -0.4200000 -0.4000000 0.3468680
vt 0.732765579 0.610861080
vn 0.00000000 -1.00000000 0.00000000
v 0.4200000 -0.4000000 0.5868680
vt 0.537109095 0.780070700
vn 0.00000000 -1.00000000 0.00000000
v -0.4200000 -0.4000000 0.5868680
vt 0.732765579 0.680526320
vn 0.00000000 -1.00000000 0.00000000
f 28/28/28 29/29/29 30/30/30
v 0.4200000 -0.4000000 0.3468680
vt 0.537109095 0.710405460
vn 0.70710678 -0.70710678 0.00000000
v 0.4550000 -0.3650000 0.3468680
vt 0.537109095 0.718700820
vn 0.70710678 -0.70710678 0.00000000
v 0.4550000 -0.3650000 0.5868680
vt 0.537109095 0.788366060
vn 0.70710678 -0.70710678 0.00000000
f 31/31/31 32/32/32 33/33/33
v 0.4200000 -0.4000000 0.3468680
vt 0.537109095 0.710405460
vn 0.70710678 -0.70710678 0.00000000
v 0.4550000 -0.3650000 0.5868680
vt 0.537109095 0.788366060
vn 0.70710678 -0.70710678 0.00000000
v 0.4200000 -0.4000000 0.5868680
vt 0.537109095 0.780070700
vn 0.70710678 -0.70710678 0.00000000
f 34/34/34 35/35/35 36/36/36
v 0.4550000 -0.3650000 0.3468680
vt 0.537109095 0.718700820
vn 1.00000000 0.00000000 0.00000000
v 0.4550000 0.5000000 0.3468680
vt 0.738588690 0.821207840
vn 1.00000000 0.00000000 0.00000000
v 0.4550000 0.5000000 0.5868680
vt 0.738588690 0.890873080
vn 1.00000000 0.00000000 0.00000000
f 37/37/37 38/38/38 39/39/39
v 0.4550000 -0.3650000 0.3468680
vt 0.537109095 0.718700820
vn 1.00000000 0.00000000 0.00000000
v 0.4550000 0.5000000 0.5868680
vt 0.738588690 0.890873080
vn 1.00000000 0.00000000 0.00000000
v 0.4550000 -0.3650000 0.5868680
vt 0.537109095 0.788366060
vn 1.00000000 0.00000000 0.00000000
f 40/40/40 41/41/41 42/42/42
v -0.4550000 0.5000000 0.3468680
vt 0.065701880 0.824287550
vn -1.00000000 0.00000000 0.00000000
v -0.4550000 -0.3650000 0.3468680
vt 0.268326255 0.927783180
vn -1.00000000 0.00000000 0.00000000
v -0.4550000 -0.3650000 0.5868680
vt 0.268326255 0.998120300
vn -1.00000000 0.00000000 0.00000000
f 43/43/43 44/44/44 45/45/45
v -0.4550000 0.5000000 0.3468680
vt 0.065701880 0.824287550
vn -1.00000000 0.00000000 0.00000000
v -0.4550000 -0.3650000 0.5868680
vt 0.268326255 0.998120300
vn -1.00000000 0.00000000 0.00000000
v -0.4550000 0.5000000 0.5868680
vt 0.065701880 0.894624670
vn -1.00000000 0.00000000 0.00000000
f 46/46/46 47/47/47 48/48/48
v -0.4550000 -0.3650000 0.3468680
vt 0.749070290 0.610861080
vn -0.70710678 -0.70710678 0.00000000
v -0.4200000 -0.4000000 0.3468680
vt 0.732765579 0.610861080
vn -0.70710678 -0.70710678 0.00000000
v -0.4200000 -0.4000000 0.5868680
vt 0.732765579 0.680526320
vn -0.70710678 -0.70710678 0.00000000
f 49/49/49 50/50/50 51/51/51
v -0.4550000 -0.3650000 0.3468680
vt 0.749070290 0.610861080
vn -0.70710678 -0.70710678 0.00000000
v -0.4200000 -0.4000000 0.5868680
vt 0.732765579 0.680526320
vn -0.70710678 -0.70710678 0.00000000
v -0.4550000 -0.3650000 0.5868680
vt 0.749070290 0.680526320
vn -0.70710678 -0.70710678 0.00000000
f 52/52/52 53/53/53 54/54/54
v -0.4750000 -0.4400000 0.2468680
vt 0.281209877 0.409842620
vn 0.00000000 0.00000000 -1.00000000
v -0.4750000 0.5000000 0.2468680
vt 0.061016930 0.297373380
vn 0.00000000 0.00000000 -1.00000000
v -0.4050000 0.5000000 0.2468680
vt 0.077414274 0.288998020
vn 0.00000000 0.00000000 -1.00000000
f 55/55/55 56/56/56 57/57/57
v -0.4750000 -0.4400000 0.2468680
vt 0.281209877 0.409842620
vn 0.00000000 0.00000000 -1.00000000
v -0.4050000 0.5000000 0.2468680
vt 0.077414274 0.288998020
vn 0.00000000 0.00000000 -1.00000000
v -0.4050000 -0.4400000 0.2468680
vt 0.297607235 0.401467250
vn 0.00000000 0.00000000 -1.00000000
f 58/58/58 59/59/59 60/60/60
v -0.4750000 -0.4400000 0.2468680
vt 0.736259446 0.070575900
vn 0.00000000 -1.00000000 0.00000000
v -0.4050000 -0.4400000 0.2468680
vt 0.719954734 0.078871260
vn 0.00000000 -1.00000000 0.00000000
v -0.4050000 -0.4400000 0.3468680
vt 0.719954734 0.107898440
vn 0.00000000 -1.00000000 0.00000000
f 61/61/61 62/62/62 63/63/63
v -0.4750000 -0.4400000 0.2468680
vt 0.736259446 0.070575900
vn 0.00000000 -1.00000000 0.00000000
v -0.4050000 -0.4400000 0.3468680
vt 0.719954734 0.107898440
vn 0.00000000 -1.00000000 0.00000000
v -0.4750000 -0.4400000 0.3468680
vt 0.736259446 0.099603080
vn 0.00000000 -1.00000000 0.00000000
f 64/64/64 65/65/65 66/66/66
v -0.4050000 -0.4400000 0.2468680
vt 0.719954734 0.078871260
vn 1.00000000 0.00000000 0.00000000
v -0.4050000 0.5000000 0.2468680
vt 0.938903663 0.190266170
vn 1.00000000 0.00000000 0.00000000
v -0.4050000 0.5000000 0.3468680
vt 0.938903663 0.219293350
vn 1.00000000 0.00000000 0.00000000
f 67/67/67 68/68/68 69/69/69
v -0.4050000 -0.4400000 0.2468680
vt 0.719954734 0.078871260
vn 1.00000000 0.00000000 0.00000000
v -0.4050000 0.5000000 0.3468680
vt 0.938903663 0.219293350
vn 1.00000000 0.00000000 0.00000000
v -0.4050000 -0.4400000 0.3468680
vt 0.719954734 0.107898440
vn 1.00000000 0.00000000 0.00000000
f 70/70/70 71/71/71 72/72/72
v -0.4750000 0.5000000 0.2468680
vt 0.061016930 0.297373380
vn -1.00000000 0.00000000 0.00000000
v -0.4750000 -0.4400000 0.2468680
vt 0.281209877 0.409842620
vn -1.00000000 0.00000000 0.00000000
v -0.4750000 -0.4400000 0.3468680
vt 0.281209877 0.439149760
vn -1.00000000 0.00000000 0.00000000
f 73/73/73 74/74/74 75/75/75
v -0.4750000 0.5000000 0.2468680
vt 0.061016930 0.297373380
vn -1.00000000 0.00000000 0.00000000
v -0.4750000 -0.4400000 0.3468680
vt 0.281209877 0.439149760
vn -1.00000000 0.00000000 0.00000000
v -0.4750000 0.5000000 0.3468680
vt 0.061016930 0.326680520
vn -1.00000000 0.00000000 0.00000000
f 76/76/76 77/77/77 78/78/78
v -0.4750000 -0.4400000 0.3468680
vt 0.281209877 0.439149760
vn 0.00000000 0.00000000 1.00000000
v -0.4050000 -0.4400000 0.3468680
vt 0.297607235 0.430774390
vn 0.00000000 0.00000000 1.00000000
v -0.4050000 0.5000000 0.3468680
vt 0.077414274 0.318305150
vn 0.00000000 0.00000000 1.00000000
f 79/79/79 80/80/80 81/81/81
v -0.4750000 -0.4400000 0.3468680
vt 0.281209877 0.439149760
vn 0.00000000 0.00000000 1.00000000
v -0.4050000 0.5000000 0.3468680
vt 0.077414274 0.318305150
vn 0.00000000 0.00000000 1.00000000
v -0.4750000 0.5000000 0.3468680
vt 0.061016930 0.326680520
vn 0.00000000 0.00000000 1.00000000
f 82/82/82 83/83/83 84/84/84
v 0.4050000 -0.4400000 0.2468680
vt 0.487347975 0.304552270
vn 0.00000000 0.00000000 -1.00000000
v 0.4050000 0.5000000 0.2468680
vt 0.267155014 0.192083030
vn 0.00000000 0.00000000 -1.00000000
v 0.4750000 0.5000000 0.2468680
vt 0.283552359 0.183707670
vn 0.00000000 0.00000000 -1.00000000
f 85/85/85 86/86/86 87/87/87
v 0.4050000 -0.4400000 0.2468680
vt 0.487347975 0.304552270
vn 0.00000000 0.00000000 -1.00000000
v 0.4750000 0.5000000 0.2468680
vt 0.283552359 0.183707670
vn 0.00000000 0.00000000 -1.00000000
v 0.4750000 -0.4400000 0.2468680
vt 0.503745319 0.296176900
vn 0.00000000 0.00000000 -1.00000000
f 88/88/88 89/89/89 90/90/90
v 0.4050000 -0.4400000 0.2468680
vt 0.531285984 0.174860490
vn 0.00000000 -1.00000000 0.00000000
v 0.4750000 -0.4400000 0.2468680
vt 0.514981272 0.183155850
vn 0.00000000 -1.00000000 0.00000000
v 0.4750000 -0.4400000 0.3468680
vt 0.514981272 0.212183040
vn 0.00000000 -1.00000000 0.00000000
f 91/91/91 92/92/92 93/93/93
v 0.4050000 -0.4400000 0.2468680
vt 0.531285984 0.174860490
vn 0.00000000 -1.00000000 0.00000000
v 0.4750000 -0.4400000 0.3468680
vt 0.514981272 0.212183040
vn 0.00000000 -1.00000000 0.00000000
v 0.4050000 -0.4400000 0.3468680
vt 0.531285984 0.203887670
vn 0.00000000 -1.00000000 0.00000000
f 94/94/94 95/95/95 96/96/96
v 0.4750000 -0.4400000 0.2468680
vt 0.514981272 0.183155850
vn 1.00000000 0.00000000 0.00000000
v 0.4750000 0.5000000 0.2468680
vt 0.733930201 0.294550760
vn 1.00000000 0.00000000 0.00000000
v 0.4750000 0.5000000 0.3468680
vt 0.733930201 0.323577940
vn 1.00000000 0.00000000 0.00000000
f 97/97/97 98/98/98 99/99/99
v 0.4750000 -0.4400000 0.2468680
vt 0.514981272 0.183155850
vn 1.00000000 0.00000000 0.00000000
v 0.4750000 0.5000000 0.3468680
vt 0.733930201 0.323577940
vn 1.00000000 0.00000000 0.00000000
v 0.4750000 -0.4400000 0.3468680
vt 0.514981272 0.212183040
vn 1.00000000 0.00000000 0.00000000
f 100/100/100 101/101/101 102/102/102
v 0.4050000 0.5000000 0.2468680
vt 0.267155014 0.192083030
vn -1.00000000 0.00000000 0.00000000
v 0.4050000 -0.4400000 0.2468680
vt 0.487347975 0.304552270
vn -1.00000000 0.00000000 0.00000000
v 0.4050000 -0.4400000 0.3468680
vt 0.487347975 0.333859400
vn -1.00000000 0.00000000 0.00000000
f 103/103/103 104/104/104 105/105/105
v 0.4050000 0.5000000 0.2468680
vt 0.267155014 0.192083030
vn -1.00000000 0.00000000 0.00000000
v 0.4050000 -0.4400000 0.3468680
vt 0.487347975 0.333859400
vn -1.00000000 0.00000000 0.00000000
v 0.4050000 0.5000000 0.3468680
vt 0.267155014 0.221390170
vn -1.00000000 0.00000000 0.00000000
f 106/106/106 107/107/107 108/108/108
v 0.4050000 -0.4400000 0.3468680
vt 0.487347975 0.333859400
vn 0.00000000 0.00000000 1.00000000
v 0.4750000 -0.4400000 0.3468680
vt 0.503745319 0.325484040
vn 0.00000000 0.00000000 1.00000000
v 0.4750000 0.5000000 0.3468680
vt 0.283552359 0.213014800
vn 0.00000000 0.00000000 1.00000000
f 109/109/109 110/110/110 111/111/111
v 0.4050000 -0.4400000 0.3468680
vt 0.487347975 0.333859400
vn 0.00000000 0.00000000 1.00000000
v 0.4750000 0.5000000 0.3468680
vt 0.283552359 0.213014800
vn 0.00000000 0.00000000 1.00000000
v 0.4050000 0.5000000 0.3468680
vt 0.267155014 0.221390170
vn 0.00000000 0.00000000 1.00000000
f 112/112/112 113/113/113 114/114/114
v -0.4450000 -0.4700000 0.2468680
vt 0.295264753 0.409842620
vn 0.00000000 0.00000000 -1.00000000
v -0.4450000 -0.4000000 0.2468680
vt 0.278867409 0.401467250
vn 0.00000000 0.00000000 -1.00000000
v 0.4450000 -0.4000000 0.2468680
vt 0.487347975 0.294980420
vn 0.00000000 0.00000000 -1.00000000
f 115/115/115 116/116/116 117/117/117
v -0.4450000 -0.4700000 0.2468680
vt 0.295264753 0.409842620
vn 0.00000000 0.00000000 -1.00000000
v 0.4450000 -0.4000000 0.2468680
vt 0.487347975 0.294980420
vn 0.00000000 0.00000000 -1.00000000
v 0.4450000 -0.4700000 0.2468680
vt 0.503745319 0.303355790
vn 0.00000000 0.00000000 -1.00000000
f 118/118/118 119/119/119 120/120/120
v -0.4450000 -0.4700000 0.2468680
vt 0.722283979 0.070575900
vn 0.00000000 -1.00000000 0.00000000
v 0.4450000 -0.4700000 0.2468680
vt 0.514981272 0.176045540
vn 0.00000000 -1.00000000 0.00000000
v 0.4450000 -0.4700000 0.3468680
vt 0.514981272 0.205072720
vn 0.00000000 -1.00000000 0.00000000
f 121/121/121 122/122/122 123/123/123
v -0.4450000 -0.4700000 0.2468680
vt 0.722283979 0.070575900
vn 0.00000000 -1.00000000 0.00000000
v 0.4450000 -0.4700000 0.3468680
vt 0.514981272 0.205072720
vn 0.00000000 -1.00000000 0.00000000
v -0.4450000 -0.4700000 0.3468680
vt 0.722283979 0.099603080
vn 0.00000000 -1.00000000 0.00000000
f 124/124/124 125/125/125 126/126/126
v 0.4450000 -0.4700000 0.2468680
vt 0.514981272 0.176045540
vn 1.00000000 0.00000000 0.00000000
v 0.4450000 -0.4000000 0.2468680
vt 0.531285984 0.184340910
vn 1.00000000 0.00000000 0.00000000
v 0.4450000 -0.4000000 0.3468680
vt 0.531285984 0.213368090
vn 1.00000000 0.00000000 0.00000000
f 127/127/127 128/128/128 129/129/129
v 0.4450000 -0.4700000 0.2468680
vt 0.514981272 0.176045540
vn 1.00000000 0.00000000 0.00000000
v 0.4450000 -0.4000000 0.3468680
vt 0.531285984 0.213368090
vn 1.00000000 0.00000000 0.00000000
v 0.4450000 -0.4700000 0.3468680
vt 0.514981272 0.205072720
vn 1.00000000 0.00000000 0.00000000
f 130/130/130 131/131/131 132/132/132
v 0.4450000 -0.4000000 0.2468680
vt 0.487347975 0.294980420
vn 0.00000000 1.00000000 0.00000000
v -0.4450000 -0.4000000 0.2468680
vt 0.278867409 0.401467250
vn 0.00000000 1.00000000 0.00000000
v -0.4450000 -0.4000000 0.3468680
vt 0.278867409 0.430774390
vn 0.00000000 1.00000000 0.00000000
f 133/133/133 134/134/134 135/135/135
v 0.4450000 -0.4000000 0.2468680
vt 0.487347975 0.294980420
vn 0.00000000 1.00000000 -0.00000000
v -0.4450000 -0.4000000 0.3468680
vt 0.278867409 0.430774390
vn 0.00000000 1.00000000 -0.00000000
v 0.4450000 -0.4000000 0.3468680
vt 0.487347975 0.324287550
vn 0.00000000 1.00000000 -0.00000000
f 136/136/136 137/137/137 138/138/138
v -0.4450000 -0.4000000 0.2468680
vt 0.278867409 0.401467250
vn -1.00000000 0.00000000 0.00000000
v -0.4450000 -0.4700000 0.2468680
vt 0.295264753 0.409842620
vn -1.00000000 0.00000000 0.00000000
v -0.4450000 -0.4700000 0.3468680
vt 0.295264753 0.439149760
vn -1.00000000 0.00000000 0.00000000
f 139/139/139 140/140/140 141/141/141
v -0.4450000 -0.4000000 0.2468680
vt 0.278867409 0.401467250
vn -1.00000000 0.00000000 0.00000000
v -0.4450000 -0.4700000 0.3468680
vt 0.295264753 0.439149760
vn -1.00000000 0.00000000 0.00000000
v -0.4450000 -0.4000000 0.3468680
vt 0.278867409 0.430774390
vn -1.00000000 0.00000000 0.00000000
f 142/142/142 143/143/143 144/144/144
v -0.4450000 -0.4700000 0.3468680
vt 0.295264753 0.439149760
vn 0.00000000 0.00000000 1.00000000
v 0.4450000 -0.4700000 0.3468680
vt 0.503745319 0.332662920
vn 0.00000000 0.00000000 1.00000000
v 0.4450000 -0.4000000 0.3468680
vt 0.487347975 0.324287550
vn 0.00000000 0.00000000 1.00000000
f 145/145/145 146/146/146 147/147/147
v -0.4450000 -0.4700000 0.3468680
vt 0.295264753 0.439149760
vn 0.00000000 0.00000000 1.00000000
v 0.4450000 -0.4000000 0.3468680
vt 0.487347975 0.324287550
vn 0.00000000 0.00000000 1.00000000
v -0.4450000 -0.4000000 0.3468680
vt 0.278867409 0.430774390
vn 0.00000000 0.00000000 1.00000000
f 148/148/148 149/149/149 150/150/150
v -0.4450000 -0.4450000 0.0000000
vt 0.289408563 0.334501490
vn 0.00000000 0.00000000 -1.00000000
v -0.4450000 -0.3750000 0.0000000
vt 0.273011205 0.326126120
vn 0.00000000 0.00000000 -1.00000000
v -0.3750000 -0.3750000 0.0000000
vt 0.289408563 0.317750750
vn 0.00000000 0.00000000 -1.00000000
f 151/151/151 152/152/152 153/153/153
v -0.4450000 -0.4450000 0.0000000
vt 0.289408563 0.334501490
vn 0.00000000 0.00000000 -1.00000000
v -0.3750000 -0.3750000 0.0000000
vt 0.289408563 0.317750750
vn 0.00000000 0.00000000 -1.00000000
v -0.3750000 -0.4450000 0.0000000
vt 0.305805907 0.326126120
vn 0.00000000 0.00000000 -1.00000000
f 154/154/154 155/155/155 156/156/156
v -0.4450000 -0.4450000 0.0000000
vt 0.728107090 0.001879700
vn 0.00000000 -1.00000000 0.00000000
v -0.3750000 -0.4450000 0.0000000
vt 0.711802379 0.010175060
vn 0.00000000 -1.00000000 0.00000000
v -0.3750000 -0.4450000 0.3668680
vt 0.711802379 0.116666510
vn 0.00000000 -1.00000000 0.00000000
f 157/157/157 158/158/158 159/159/159
v -0.4450000 -0.4450000 0.0000000
vt 0.728107090 0.001879700
vn 0.00000000 -1.00000000 0.00000000
v -0.3750000 -0.4450000 0.3668680
vt 0.711802379 0.116666510
vn 0.00000000 -1.00000000 0.00000000
v -0.4450000 -0.4450000 0.3668680
vt 0.728107090 0.108371150
vn 0.00000000 -1.00000000 0.00000000
f 160/160/160 161/161/161 162/162/162
v -0.3750000 -0.4450000 0.0000000
vt 0.711802379 0.010175060
vn 1.00000000 0.00000000 0.00000000
v -0.3750000 -0.3750000 0.0000000
vt 0.728107090 0.018470430
vn 1.00000000 0.00000000 0.00000000
v -0.3750000 -0.3750000 0.3668680
vt 0.728107090 0.124961880
vn 1.00000000 0.00000000 0.00000000
f 163/163/163 164/164/164 165/165/165
v -0.3750000 -0.4450000 0.0000000
vt 0.711802379 0.010175060
vn 1.00000000 0.00000000 0.00000000
v -0.3750000 -0.3750000 0.3668680
vt 0.728107090 0.124961880
vn 1.00000000 0.00000000 0.00000000
v -0.3750000 -0.4450000 0.3668680
vt 0.711802379 0.116666510
vn 1.00000000 0.00000000 0.00000000
f 166/166/166 167/167/167 168/168/168
v -0.3750000 -0.3750000 0.0000000
vt 0.289408563 0.317750750
vn 0.00000000 1.00000000 0.00000000
v -0.4450000 -0.3750000 0.0000000
vt 0.273011205 0.326126120
vn 0.00000000 1.00000000 0.00000000
v -0.4450000 -0.3750000 0.3668680
vt 0.273011205 0.433644610
vn 0.00000000 1.00000000 0.00000000
f 169/169/169 170/170/170 171/171/171
v -0.3750000 -0.3750000 0.0000000
vt 0.289408563 0.317750750
vn 0.00000000 1.00000000 -0.00000000
v -0.4450000 -0.3750000 0.3668680
vt 0.273011205 0.433644610
vn 0.00000000 1.00000000 -0.00000000
v -0.3750000 -0.3750000 0.3668680
vt 0.289408563 0.425269240
vn 0.00000000 1.00000000 -0.00000000
f 172/172/172 173/173/173 174/174/174
v -0.4450000 -0.3750000 0.0000000
vt 0.273011205 0.326126120
vn -1.00000000 0.00000000 0.00000000
v -0.4450000 -0.4450000 0.0000000
vt 0.289408563 0.334501490
vn -1.00000000 0.00000000 0.00000000
v -0.4450000 -0.4450000 0.3668680
vt 0.289408563 0.442019980
vn -1.00000000 0.00000000 0.00000000
f 175/175/175 176/176/176 177/177/177
v -0.4450000 -0.3750000 0.0000000
vt 0.273011205 0.326126120
vn -1.00000000 0.00000000 0.00000000
v -0.4450000 -0.4450000 0.3668680
vt 0.289408563 0.442019980
vn -1.00000000 0.00000000 0.00000000
v -0.4450000 -0.3750000 0.3668680
vt 0.273011205 0.433644610
vn -1.00000000 0.00000000 0.00000000
f 178/178/178 179/179/179 180/180/180
v -0.4450000 -0.4450000 0.3668680
vt 0.289408563 0.442019980
vn 0.00000000 0.00000000 1.00000000
v -0.3750000 -0.4450000 0.3668680
vt 0.305805907 0.433644610
vn 0.00000000 0.00000000 1.00000000
v -0.3750000 -0.3750000 0.3668680
vt 0.289408563 0.425269240
vn 0.00000000 0.00000000 1.00000000
f 181/181/181 182/182/182 183/183/183
v -0.4450000 -0.4450000 0.3668680
vt 0.289408563 0.442019980
vn 0.00000000 0.00000000 1.00000000
v -0.3750000 -0.3750000 0.3668680
vt 0.289408563 0.425269240
vn 0.00000000 0.00000000 1.00000000
v -0.4450000 -0.3750000 0.3668680
vt 0.273011205 0.433644610
vn 0.00000000 0.00000000 1.00000000
f 184/184/184 185/185/185 186/186/186
v 0.3750000 -0.4450000 0.0000000
vt 0.481491771 0.236390030
vn 0.00000000 0.00000000 -1.00000000
v 0.3750000 -0.3750000 0.0000000
vt 0.465094426 0.228014660
vn 0.00000000 0.00000000 -1.00000000
v 0.4450000 -0.3750000 0.0000000
vt 0.481491771 0.219639290
vn 0.00000000 0.00000000 -1.00000000
f 187/187/187 188/188/188 189/189/189
v 0.3750000 -0.4450000 0.0000000
vt 0.481491771 0.236390030
vn 0.00000000 0.00000000 -1.00000000
v 0.4450000 -0.3750000 0.0000000
vt 0.481491771 0.219639290
vn 0.00000000 0.00000000 -1.00000000
v 0.4450000 -0.4450000 0.0000000
vt 0.497889128 0.228014660
vn 0.00000000 0.00000000 -1.00000000
f 190/190/190 191/191/191 192/192/192
v 0.3750000 -0.4450000 0.0000000
vt 0.537109095 0.099053980
vn 0.00000000 -1.00000000 0.00000000
v 0.4450000 -0.4450000 0.0000000
vt 0.520804383 0.107349340
vn 0.00000000 -1.00000000 0.00000000
v 0.4450000 -0.4450000 0.3668680
vt 0.520804383 0.213840790
vn 0.00000000 -1.00000000 0.00000000
f 193/193/193 194/194/194 195/195/195
v 0.3750000 -0.4450000 0.0000000
vt 0.537109095 0.099053980
vn 0.00000000 -1.00000000 0.00000000
v 0.4450000 -0.4450000 0.3668680
vt 0.520804383 0.213840790
vn 0.00000000 -1.00000000 0.00000000
v 0.3750000 -0.4450000 0.3668680
vt 0.537109095 0.205545430
vn 0.00000000 -1.00000000 0.00000000
f 196/196/196 197/197/197 198/198/198
v 0.4450000 -0.4450000 0.0000000
vt 0.520804383 0.107349340
vn 1.00000000 0.00000000 0.00000000
v 0.4450000 -0.3750000 0.0000000
vt 0.537109095 0.115644710
vn 1.00000000 0.00000000 0.00000000
v 0.4450000 -0.3750000 0.3668680
vt 0.537109095 0.222136160
vn 1.00000000 0.00000000 0.00000000
f 199/199/199 200/200/200 201/201/201
v 0.4450000 -0.4450000 0.0000000
vt 0.520804383 0.107349340
vn 1.00000000 0.00000000 0.00000000
v 0.4450000 -0.3750000 0.3668680
vt 0.537109095 0.222136160
vn 1.00000000 0.00000000 0.00000000
v 0.4450000 -0.4450000 0.3668680
vt 0.520804383 0.213840790
vn 1.00000000 0.00000000 0.00000000
f 202/202/202 203/203/203 204/204/204
v 0.4450000 -0.3750000 0.0000000
vt 0.481491771 0.219639290
vn 0.00000000 1.00000000 0.00000000
v 0.3750000 -0.3750000 0.0000000
vt 0.465094426 0.228014660
vn 0.00000000 1.00000000 0.00000000
v 0.3750000 -0.3750000 0.3668680
vt 0.465094426 0.335533150
vn 0.00000000 1.00000000 0.00000000
f 205/205/205 206/206/206 207/207/207
v 0.4450000 -0.3750000 0.0000000
vt 0.481491771 0.219639290
vn 0.00000000 1.00000000 -0.00000000
v 0.3750000 -0.3750000 0.3668680
vt 0.465094426 0.335533150
vn 0.00000000 1.00000000 -0.00000000
v 0.4450000 -0.3750000 0.3668680
vt 0.481491771 0.327157780
vn 0.00000000 1.00000000 -0.00000000
f 208/208/208 209/209/209 210/210/210
v 0.3750000 -0.3750000 0.0000000
vt 0.465094426 0.228014660
vn -1.00000000 0.00000000 0.00000000
v 0.3750000 -0.4450000 0.0000000
vt 0.481491771 0.236390030
vn -1.00000000 0.00000000 0.00000000
v 0.3750000 -0.4450000 0.3668680
vt 0.481491771 0.343908520
vn -1.00000000 0.00000000 0.00000000
f 211/211/211 212/212/212 213/213/213
v 0.3750000 -0.3750000 0.0000000
vt 0.465094426 0.228014660
vn -1.00000000 0.00000000 0.00000000
v 0.3750000 -0.4450000 0.3668680
vt 0.481491771 0.343908520
vn -1.00000000 0.00000000 0.00000000
v 0.3750000 -0.3750000 0.3668680
vt 0.465094426 0.335533150
vn -1.00000000 0.00000000 0.00000000
f 214/214/214 215/215/215 216/216/216
v 0.3750000 -0.4450000 0.3668680
vt 0.481491771 0.343908520
vn 0.00000000 0.00000000 1.00000000
v 0.4450000 -0.4450000 0.3668680
vt 0.497889128 0.335533150
vn 0.00000000 0.00000000 1.00000000
v 0.4450000 -0.3750000 0.3668680
vt 0.481491771 0.327157780
vn 0.00000000 0.00000000 1.00000000
f 217/217/217 218/218/218 219/219/219
v 0.3750000 -0.4450000 0.3668680
vt 0.481491771 0.343908520
vn 0.00000000 0.00000000 1.00000000
v 0.4450000 -0.3750000 0.3668680
vt 0.481491771 0.327157780
vn 0.00000000 0.00000000 1.00000000
v 0.3750000 -0.3750000 0.3668680
vt 0.465094426 0.335533150
vn 0.00000000 0.00000000 1.00000000
f 220/220/220 221/221/221 222/222/222
