# Physical vanilla furniture; Z up; per-tile mesh.
# Tile-local game axes; ObjReader performs the scene conversion.
mtllib pz_bed_bedding_01_blue_0_0.mtl
usemtl original
v -0.4550000 -0.3650000 0.4999640
vt 0.264207807 0.860819849
vn 0.00000000 0.00000000 -1.00000000
v -0.4550000 0.5000000 0.4999640
vt 0.065585537 0.776731896
vn 0.00000000 0.00000000 -1.00000000
v 0.4550000 0.5000000 0.4999640
vt 0.274540760 0.688269419
vn 0.00000000 0.00000000 -1.00000000
f 1/1/1 2/2/2 3/3/3
v -0.4550000 -0.3650000 0.4999640
vt 0.264207807 0.860819849
vn 0.00000000 0.00000000 -1.00000000
v 0.4550000 0.5000000 0.4999640
vt 0.274540760 0.688269419
vn 0.00000000 0.00000000 -1.00000000
v 0.4550000 -0.3650000 0.4999640
vt 0.473163030 0.772357372
vn 0.00000000 0.00000000 -1.00000000
f 4/4/4 5/5/5 6/6/6
v -0.4550000 -0.3650000 0.4999640
vt 0.264207807 0.860819849
vn 0.00000000 0.00000000 -1.00000000
v 0.4550000 -0.3650000 0.4999640
vt 0.473163030 0.772357372
vn 0.00000000 0.00000000 -1.00000000
v 0.4200000 -0.4000000 0.4999640
vt 0.473163030 0.779162186
vn 0.00000000 0.00000000 -1.00000000
f 7/7/7 8/8/8 9/9/9
v -0.4550000 -0.3650000 0.4999640
vt 0.264207807 0.860819849
vn 0.00000000 0.00000000 -1.00000000
v 0.4200000 -0.4000000 0.4999640
vt 0.473163030 0.779162186
vn 0.00000000 0.00000000 -1.00000000
v -0.4200000 -0.4000000 0.4999640
vt 0.280281287 0.860819849
vn 0.00000000 0.00000000 -1.00000000
f 10/10/10 11/11/11 12/12/12
v -0.4200000 -0.4000000 0.7399640
vt 0.280281287 0.917967241
vn 0.00000000 0.00000000 1.00000000
v 0.4200000 -0.4000000 0.7399640
vt 0.473163030 0.836309567
vn 0.00000000 0.00000000 1.00000000
v 0.4550000 -0.3650000 0.7399640
vt 0.473163030 0.829504764
vn 0.00000000 0.00000000 1.00000000
f 13/13/13 14/14/14 15/15/15
v -0.4200000 -0.4000000 0.7399640
vt 0.280281287 0.917967241
vn 0.00000000 0.00000000 1.00000000
v 0.4550000 -0.3650000 0.7399640
vt 0.473163030 0.829504764
vn 0.00000000 0.00000000 1.00000000
v 0.4550000 0.5000000 0.7399640
vt 0.274540760 0.745416800
vn 0.00000000 0.00000000 1.00000000
f 16/16/16 17/17/17 18/18/18
v -0.4200000 -0.4000000 0.7399640
vt 0.280281287 0.917967241
vn 0.00000000 -0.00000000 1.00000000
v 0.4550000 0.5000000 0.7399640
vt 0.274540760 0.745416800
vn 0.00000000 -0.00000000 1.00000000
v -0.4550000 0.5000000 0.7399640
vt 0.065585537 0.833879277
vn 0.00000000 -0.00000000 1.00000000
f 19/19/19 20/20/20 21/21/21
v -0.4200000 -0.4000000 0.7399640
vt 0.280281287 0.917967241
vn 0.00000000 0.00000000 1.00000000
v -0.4550000 0.5000000 0.7399640
vt 0.065585537 0.833879277
vn 0.00000000 0.00000000 1.00000000
v -0.4550000 -0.3650000 0.7399640
vt 0.264207807 0.917967241
vn 0.00000000 0.00000000 1.00000000
f 22/22/22 23/23/23 24/24/24
v -0.4200000 -0.4000000 0.4999640
vt 0.734644087 0.728713547
vn 0.00000000 -1.00000000 0.00000000
v 0.4200000 -0.4000000 0.4999640
vt 0.541762343 0.806803376
vn 0.00000000 -1.00000000 0.00000000
v 0.4200000 -0.4000000 0.7399640
vt 0.541762343 0.861453839
vn 0.00000000 -1.00000000 0.00000000
f 25/25/25 26/26/26 27/27/27
v -0.4200000 -0.4000000 0.4999640
vt 0.734644087 0.728713547
vn 0.00000000 -1.00000000 0.00000000
v 0.4200000 -0.4000000 0.7399640
vt 0.541762343 0.861453839
vn 0.00000000 -1.00000000 0.00000000
v -0.4200000 -0.4000000 0.7399640
vt 0.734644087 0.783364010
vn 0.00000000 -1.00000000 0.00000000
f 28/28/28 29/29/29 30/30/30
v 0.4200000 -0.4000000 0.4999640
vt 0.541762343 0.806803376
vn 0.70710678 -0.70710678 0.00000000
v 0.4550000 -0.3650000 0.4999640
vt 0.541762343 0.813310861
vn 0.70710678 -0.70710678 0.00000000
v 0.4550000 -0.3650000 0.7399640
vt 0.541762343 0.867961324
vn 0.70710678 -0.70710678 0.00000000
f 31/31/31 32/32/32 33/33/33
v 0.4200000 -0.4000000 0.4999640
vt 0.541762343 0.806803376
vn 0.70710678 -0.70710678 0.00000000
v 0.4550000 -0.3650000 0.7399640
vt 0.541762343 0.867961324
vn 0.70710678 -0.70710678 0.00000000
v 0.4200000 -0.4000000 0.7399640
vt 0.541762343 0.861453839
vn 0.70710678 -0.70710678 0.00000000
f 34/34/34 35/35/35 36/36/36
v 0.4550000 -0.3650000 0.4999640
vt 0.541762343 0.813310861
vn 1.00000000 0.00000000 0.00000000
v 0.4550000 0.5000000 0.4999640
vt 0.740384613 0.893724785
vn 1.00000000 0.00000000 0.00000000
v 0.4550000 0.5000000 0.7399640
vt 0.740384613 0.948375248
vn 1.00000000 0.00000000 0.00000000
f 37/37/37 38/38/38 39/39/39
v 0.4550000 -0.3650000 0.4999640
vt 0.541762343 0.813310861
vn 1.00000000 0.00000000 0.00000000
v 0.4550000 0.5000000 0.7399640
vt 0.740384613 0.948375248
vn 1.00000000 0.00000000 0.00000000
v 0.4550000 -0.3650000 0.7399640
vt 0.541762343 0.867961324
vn 1.00000000 0.00000000 0.00000000
f 40/40/40 41/41/41 42/42/42
v -0.4550000 0.5000000 0.4999640
vt 0.065585537 0.776731896
vn -1.00000000 0.00000000 0.00000000
v -0.4550000 -0.3650000 0.4999640
vt 0.264207807 0.860819849
vn -1.00000000 0.00000000 0.00000000
v -0.4550000 -0.3650000 0.7399640
vt 0.264207807 0.917967241
vn -1.00000000 0.00000000 0.00000000
f 43/43/43 44/44/44 45/45/45
v -0.4550000 0.5000000 0.4999640
vt 0.065585537 0.776731896
vn -1.00000000 0.00000000 0.00000000
v -0.4550000 -0.3650000 0.7399640
vt 0.264207807 0.917967241
vn -1.00000000 0.00000000 0.00000000
v -0.4550000 0.5000000 0.7399640
vt 0.065585537 0.833879277
vn -1.00000000 0.00000000 0.00000000
f 46/46/46 47/47/47 48/48/48
v -0.4550000 -0.3650000 0.4999640
vt 0.750717566 0.728713547
vn -0.70710678 -0.70710678 0.00000000
v -0.4200000 -0.4000000 0.4999640
vt 0.734644087 0.728713547
vn -0.70710678 -0.70710678 0.00000000
v -0.4200000 -0.4000000 0.7399640
vt 0.734644087 0.783364010
vn -0.70710678 -0.70710678 0.00000000
f 49/49/49 50/50/50 51/51/51
v -0.4550000 -0.3650000 0.4999640
vt 0.750717566 0.728713547
vn -0.70710678 -0.70710678 0.00000000
v -0.4200000 -0.4000000 0.7399640
vt 0.734644087 0.783364010
vn -0.70710678 -0.70710678 0.00000000
v -0.4550000 -0.3650000 0.7399640
vt 0.750717566 0.783364010
vn -0.70710678 -0.70710678 0.00000000
f 52/52/52 53/53/53 54/54/54
v -0.4750000 -0.4400000 0.3999640
vt 0.276836973 0.288967996
vn 0.00000000 0.00000000 -1.00000000
v -0.4750000 0.5000000 0.3999640
vt 0.060993111 0.197589174
vn 0.00000000 0.00000000 -1.00000000
v -0.4050000 0.5000000 0.3999640
vt 0.077066590 0.190784360
vn 0.00000000 0.00000000 -1.00000000
f 55/55/55 56/56/56 57/57/57
v -0.4750000 -0.4400000 0.3999640
vt 0.276836973 0.288967996
vn 0.00000000 0.00000000 -1.00000000
v -0.4050000 0.5000000 0.3999640
vt 0.077066590 0.190784360
vn 0.00000000 0.00000000 -1.00000000
v -0.4050000 -0.4400000 0.3999640
vt 0.292910453 0.282163183
vn 0.00000000 0.00000000 -1.00000000
f 58/58/58 59/59/59 60/60/60
v -0.4750000 -0.4400000 0.3999640
vt 0.738088400 0.139835399
vn 0.00000000 -1.00000000 0.00000000
v -0.4050000 -0.4400000 0.3999640
vt 0.722014920 0.146342884
vn 0.00000000 -1.00000000 0.00000000
v -0.4050000 -0.4400000 0.4999640
vt 0.722014920 0.169113910
vn 0.00000000 -1.00000000 0.00000000
f 61/61/61 62/62/62 63/63/63
v -0.4750000 -0.4400000 0.3999640
vt 0.738088400 0.139835399
vn 0.00000000 -1.00000000 0.00000000
v -0.4050000 -0.4400000 0.4999640
vt 0.722014920 0.169113910
vn 0.00000000 -1.00000000 0.00000000
v -0.4750000 -0.4400000 0.4999640
vt 0.738088400 0.162606425
vn 0.00000000 -1.00000000 0.00000000
f 64/64/64 65/65/65 66/66/66
v -0.4050000 -0.4400000 0.3999640
vt 0.722014920 0.146342884
vn 1.00000000 0.00000000 0.00000000
v -0.4050000 0.5000000 0.3999640
vt 0.937858783 0.233729117
vn 1.00000000 0.00000000 0.00000000
v -0.4050000 0.5000000 0.4999640
vt 0.937858783 0.256500142
vn 1.00000000 0.00000000 0.00000000
f 67/67/67 68/68/68 69/69/69
v -0.4050000 -0.4400000 0.3999640
vt 0.722014920 0.146342884
vn 1.00000000 0.00000000 0.00000000
v -0.4050000 0.5000000 0.4999640
vt 0.937858783 0.256500142
vn 1.00000000 0.00000000 0.00000000
v -0.4050000 -0.4400000 0.4999640
vt 0.722014920 0.169113910
vn 1.00000000 0.00000000 0.00000000
f 70/70/70 71/71/71 72/72/72
v -0.4750000 0.5000000 0.3999640
vt 0.060993111 0.197589174
vn -1.00000000 0.00000000 0.00000000
v -0.4750000 -0.4400000 0.3999640
vt 0.276836973 0.288967996
vn -1.00000000 0.00000000 0.00000000
v -0.4750000 -0.4400000 0.4999640
vt 0.276836973 0.312779399
vn -1.00000000 0.00000000 0.00000000
f 73/73/73 74/74/74 75/75/75
v -0.4750000 0.5000000 0.3999640
vt 0.060993111 0.197589174
vn -1.00000000 0.00000000 0.00000000
v -0.4750000 -0.4400000 0.4999640
vt 0.276836973 0.312779399
vn -1.00000000 0.00000000 0.00000000
v -0.4750000 0.5000000 0.4999640
vt 0.060993111 0.221400577
vn -1.00000000 0.00000000 0.00000000
f 76/76/76 77/77/77 78/78/78
v -0.4750000 -0.4400000 0.4999640
vt 0.276836973 0.312779399
vn 0.00000000 0.00000000 1.00000000
v -0.4050000 -0.4400000 0.4999640
vt 0.292910453 0.305974597
vn 0.00000000 0.00000000 1.00000000
v -0.4050000 0.5000000 0.4999640
vt 0.077066590 0.214595775
vn 0.00000000 0.00000000 1.00000000
f 79/79/79 80/80/80 81/81/81
v -0.4750000 -0.4400000 0.4999640
vt 0.276836973 0.312779399
vn 0.00000000 0.00000000 1.00000000
v -0.4050000 0.5000000 0.4999640
vt 0.077066590 0.214595775
vn 0.00000000 0.00000000 1.00000000
v -0.4750000 0.5000000 0.4999640
vt 0.060993111 0.221400577
vn 0.00000000 0.00000000 1.00000000
f 82/82/82 83/83/83 84/84/84
v 0.4050000 -0.4400000 0.3999640
vt 0.478903556 0.203421865
vn 0.00000000 0.00000000 -1.00000000
v 0.4050000 0.5000000 0.3999640
vt 0.263059707 0.112043043
vn 0.00000000 0.00000000 -1.00000000
v 0.4750000 0.5000000 0.3999640
vt 0.279133187 0.105238240
vn 0.00000000 0.00000000 -1.00000000
f 85/85/85 86/86/86 87/87/87
v 0.4050000 -0.4400000 0.3999640
vt 0.478903556 0.203421865
vn 0.00000000 0.00000000 -1.00000000
v 0.4750000 0.5000000 0.3999640
vt 0.279133187 0.105238240
vn 0.00000000 0.00000000 -1.00000000
v 0.4750000 -0.4400000 0.3999640
vt 0.494977036 0.196617051
vn 0.00000000 0.00000000 -1.00000000
f 88/88/88 89/89/89 90/90/90
v 0.4050000 -0.4400000 0.3999640
vt 0.536021817 0.221643783
vn 0.00000000 -1.00000000 0.00000000
v 0.4750000 -0.4400000 0.3999640
vt 0.519948337 0.228151268
vn 0.00000000 -1.00000000 0.00000000
v 0.4750000 -0.4400000 0.4999640
vt 0.519948337 0.250922293
vn 0.00000000 -1.00000000 0.00000000
f 91/91/91 92/92/92 93/93/93
v 0.4050000 -0.4400000 0.3999640
vt 0.536021817 0.221643783
vn 0.00000000 -1.00000000 0.00000000
v 0.4750000 -0.4400000 0.4999640
vt 0.519948337 0.250922293
vn 0.00000000 -1.00000000 0.00000000
v 0.4050000 -0.4400000 0.4999640
vt 0.536021817 0.244414809
vn 0.00000000 -1.00000000 0.00000000
f 94/94/94 95/95/95 96/96/96
v 0.4750000 -0.4400000 0.3999640
vt 0.519948337 0.228151268
vn 1.00000000 0.00000000 0.00000000
v 0.4750000 0.5000000 0.3999640
vt 0.735792187 0.315537501
vn 1.00000000 0.00000000 0.00000000
v 0.4750000 0.5000000 0.4999640
vt 0.735792187 0.338308526
vn 1.00000000 0.00000000 0.00000000
f 97/97/97 98/98/98 99/99/99
v 0.4750000 -0.4400000 0.3999640
vt 0.519948337 0.228151268
vn 1.00000000 0.00000000 0.00000000
v 0.4750000 0.5000000 0.4999640
vt 0.735792187 0.338308526
vn 1.00000000 0.00000000 0.00000000
v 0.4750000 -0.4400000 0.4999640
vt 0.519948337 0.250922293
vn 1.00000000 0.00000000 0.00000000
f 100/100/100 101/101/101 102/102/102
v 0.4050000 0.5000000 0.3999640
vt 0.263059707 0.112043043
vn -1.00000000 0.00000000 0.00000000
v 0.4050000 -0.4400000 0.3999640
vt 0.478903556 0.203421865
vn -1.00000000 0.00000000 0.00000000
v 0.4050000 -0.4400000 0.4999640
vt 0.478903556 0.227233268
vn -1.00000000 0.00000000 0.00000000
f 103/103/103 104/104/104 105/105/105
v 0.4050000 0.5000000 0.3999640
vt 0.263059707 0.112043043
vn -1.00000000 0.00000000 0.00000000
v 0.4050000 -0.4400000 0.4999640
vt 0.478903556 0.227233268
vn -1.00000000 0.00000000 0.00000000
v 0.4050000 0.5000000 0.4999640
vt 0.263059707 0.135854446
vn -1.00000000 0.00000000 0.00000000
f 106/106/106 107/107/107 108/108/108
v 0.4050000 -0.4400000 0.4999640
vt 0.478903556 0.227233268
vn 0.00000000 0.00000000 1.00000000
v 0.4750000 -0.4400000 0.4999640
vt 0.494977036 0.220428466
vn 0.00000000 0.00000000 1.00000000
v 0.4750000 0.5000000 0.4999640
vt 0.279133187 0.129049643
vn 0.00000000 0.00000000 1.00000000
f 109/109/109 110/110/110 111/111/111
v 0.4050000 -0.4400000 0.4999640
vt 0.478903556 0.227233268
vn 0.00000000 0.00000000 1.00000000
v 0.4750000 0.5000000 0.4999640
vt 0.279133187 0.129049643
vn 0.00000000 0.00000000 1.00000000
v 0.4050000 0.5000000 0.4999640
vt 0.263059707 0.135854446
vn 0.00000000 0.00000000 1.00000000
f 112/112/112 113/113/113 114/114/114
v -0.4450000 -0.4700000 0.3999640
vt 0.290614240 0.288967996
vn 0.00000000 0.00000000 -1.00000000
v -0.4450000 -0.4000000 0.3999640
vt 0.274540760 0.282163183
vn 0.00000000 0.00000000 -1.00000000
v 0.4450000 -0.4000000 0.3999640
vt 0.478903556 0.195644940
vn 0.00000000 0.00000000 -1.00000000
f 115/115/115 116/116/116 117/117/117
v -0.4450000 -0.4700000 0.3999640
vt 0.290614240 0.288967996
vn 0.00000000 0.00000000 -1.00000000
v 0.4450000 -0.4000000 0.3999640
vt 0.478903556 0.195644940
vn 0.00000000 0.00000000 -1.00000000
v 0.4450000 -0.4700000 0.3999640
vt 0.494977036 0.202449742
vn 0.00000000 0.00000000 -1.00000000
f 118/118/118 119/119/119 120/120/120
v -0.4450000 -0.4700000 0.3999640
vt 0.724311133 0.139835399
vn 0.00000000 -1.00000000 0.00000000
v 0.4450000 -0.4700000 0.3999640
vt 0.519948337 0.222573419
vn 0.00000000 -1.00000000 0.00000000
v 0.4450000 -0.4700000 0.4999640
vt 0.519948337 0.245344445
vn 0.00000000 -1.00000000 0.00000000
f 121/121/121 122/122/122 123/123/123
v -0.4450000 -0.4700000 0.3999640
vt 0.724311133 0.139835399
vn 0.00000000 -1.00000000 0.00000000
v 0.4450000 -0.4700000 0.4999640
vt 0.519948337 0.245344445
vn 0.00000000 -1.00000000 0.00000000
v -0.4450000 -0.4700000 0.4999640
vt 0.724311133 0.162606425
vn 0.00000000 -1.00000000 0.00000000
f 124/124/124 125/125/125 126/126/126
v 0.4450000 -0.4700000 0.3999640
vt 0.519948337 0.222573419
vn 1.00000000 0.00000000 0.00000000
v 0.4450000 -0.4000000 0.3999640
vt 0.536021817 0.229080904
vn 1.00000000 0.00000000 0.00000000
v 0.4450000 -0.4000000 0.4999640
vt 0.536021817 0.251851929
vn 1.00000000 0.00000000 0.00000000
f 127/127/127 128/128/128 129/129/129
v 0.4450000 -0.4700000 0.3999640
vt 0.519948337 0.222573419
vn 1.00000000 0.00000000 0.00000000
v 0.4450000 -0.4000000 0.4999640
vt 0.536021817 0.251851929
vn 1.00000000 0.00000000 0.00000000
v 0.4450000 -0.4700000 0.4999640
vt 0.519948337 0.245344445
vn 1.00000000 0.00000000 0.00000000
f 130/130/130 131/131/131 132/132/132
v 0.4450000 -0.4000000 0.3999640
vt 0.478903556 0.195644940
vn 0.00000000 1.00000000 0.00000000
v -0.4450000 -0.4000000 0.3999640
vt 0.274540760 0.282163183
vn 0.00000000 1.00000000 0.00000000
v -0.4450000 -0.4000000 0.4999640
vt 0.274540760 0.305974597
vn 0.00000000 1.00000000 0.00000000
f 133/133/133 134/134/134 135/135/135
v 0.4450000 -0.4000000 0.3999640
vt 0.478903556 0.195644940
vn 0.00000000 1.00000000 -0.00000000
v -0.4450000 -0.4000000 0.4999640
vt 0.274540760 0.305974597
vn 0.00000000 1.00000000 -0.00000000
v 0.4450000 -0.4000000 0.4999640
vt 0.478903556 0.219456354
vn 0.00000000 1.00000000 -0.00000000
f 136/136/136 137/137/137 138/138/138
v -0.4450000 -0.4000000 0.3999640
vt 0.274540760 0.282163183
vn -1.00000000 0.00000000 0.00000000
v -0.4450000 -0.4700000 0.3999640
vt 0.290614240 0.288967996
vn -1.00000000 0.00000000 0.00000000
v -0.4450000 -0.4700000 0.4999640
vt 0.290614240 0.312779399
vn -1.00000000 0.00000000 0.00000000
f 139/139/139 140/140/140 141/141/141
v -0.4450000 -0.4000000 0.3999640
vt 0.274540760 0.282163183
vn -1.00000000 0.00000000 0.00000000
v -0.4450000 -0.4700000 0.4999640
vt 0.290614240 0.312779399
vn -1.00000000 0.00000000 0.00000000
v -0.4450000 -0.4000000 0.4999640
vt 0.274540760 0.305974597
vn -1.00000000 0.00000000 0.00000000
f 142/142/142 143/143/143 144/144/144
v -0.4450000 -0.4700000 0.4999640
vt 0.290614240 0.312779399
vn 0.00000000 0.00000000 1.00000000
v 0.4450000 -0.4700000 0.4999640
vt 0.494977036 0.226261157
vn 0.00000000 0.00000000 1.00000000
v 0.4450000 -0.4000000 0.4999640
vt 0.478903556 0.219456354
vn 0.00000000 0.00000000 1.00000000
f 145/145/145 146/146/146 147/147/147
v -0.4450000 -0.4700000 0.4999640
vt 0.290614240 0.312779399
vn 0.00000000 0.00000000 1.00000000
v 0.4450000 -0.4000000 0.4999640
vt 0.478903556 0.219456354
vn 0.00000000 0.00000000 1.00000000
v -0.4450000 -0.4000000 0.4999640
vt 0.274540760 0.305974597
vn 0.00000000 0.00000000 1.00000000
f 148/148/148 149/149/149 150/150/150
v -0.4450000 -0.4450000 0.0000000
vt 0.284873713 0.191300632
vn 0.00000000 0.00000000 -1.00000000
v -0.4450000 -0.3750000 0.0000000
vt 0.268800233 0.184495829
vn 0.00000000 0.00000000 -1.00000000
v -0.3750000 -0.3750000 0.0000000
vt 0.284873713 0.177691027
vn 0.00000000 0.00000000 -1.00000000
f 151/151/151 152/152/152 153/153/153
v -0.4450000 -0.4450000 0.0000000
vt 0.284873713 0.191300632
vn 0.00000000 0.00000000 -1.00000000
v -0.3750000 -0.3750000 0.0000000
vt 0.284873713 0.177691027
vn 0.00000000 0.00000000 -1.00000000
v -0.3750000 -0.4450000 0.0000000
vt 0.300947193 0.184495829
vn 0.00000000 0.00000000 -1.00000000
f 154/154/154 155/155/155 156/156/156
v -0.4450000 -0.4450000 0.0000000
vt 0.730051660 0.051083596
vn 0.00000000 -1.00000000 0.00000000
v -0.3750000 -0.4450000 0.0000000
vt 0.713978180 0.057591081
vn 0.00000000 -1.00000000 0.00000000
v -0.3750000 -0.4450000 0.5199640
vt 0.713978180 0.175992217
vn 0.00000000 -1.00000000 0.00000000
f 157/157/157 158/158/158 159/159/159
v -0.4450000 -0.4450000 0.0000000
vt 0.730051660 0.051083596
vn 0.00000000 -1.00000000 0.00000000
v -0.3750000 -0.4450000 0.5199640
vt 0.713978180 0.175992217
vn 0.00000000 -1.00000000 0.00000000
v -0.4450000 -0.4450000 0.5199640
vt 0.730051660 0.169484732
vn 0.00000000 -1.00000000 0.00000000
f 160/160/160 161/161/161 162/162/162
v -0.3750000 -0.4450000 0.0000000
vt 0.713978180 0.057591081
vn 1.00000000 0.00000000 0.00000000
v -0.3750000 -0.3750000 0.0000000
vt 0.730051660 0.064098566
vn 1.00000000 0.00000000 0.00000000
v -0.3750000 -0.3750000 0.5199640
vt 0.730051660 0.182499702
vn 1.00000000 0.00000000 0.00000000
f 163/163/163 164/164/164 165/165/165
v -0.3750000 -0.4450000 0.0000000
vt 0.713978180 0.057591081
vn 1.00000000 0.00000000 0.00000000
v -0.3750000 -0.3750000 0.5199640
vt 0.730051660 0.182499702
vn 1.00000000 0.00000000 0.00000000
v -0.3750000 -0.4450000 0.5199640
vt 0.713978180 0.175992217
vn 1.00000000 0.00000000 0.00000000
f 166/166/166 167/167/167 168/168/168
v -0.3750000 -0.3750000 0.0000000
vt 0.284873713 0.177691027
vn 0.00000000 1.00000000 0.00000000
v -0.4450000 -0.3750000 0.0000000
vt 0.268800233 0.184495829
vn 0.00000000 1.00000000 0.00000000
v -0.4450000 -0.3750000 0.5199640
vt 0.268800233 0.308306594
vn 0.00000000 1.00000000 0.00000000
f 169/169/169 170/170/170 171/171/171
v -0.3750000 -0.3750000 0.0000000
vt 0.284873713 0.177691027
vn 0.00000000 1.00000000 -0.00000000
v -0.4450000 -0.3750000 0.5199640
vt 0.268800233 0.308306594
vn 0.00000000 1.00000000 -0.00000000
v -0.3750000 -0.3750000 0.5199640
vt 0.284873713 0.301501781
vn 0.00000000 1.00000000 -0.00000000
f 172/172/172 173/173/173 174/174/174
v -0.4450000 -0.3750000 0.0000000
vt 0.268800233 0.184495829
vn -1.00000000 0.00000000 0.00000000
v -0.4450000 -0.4450000 0.0000000
vt 0.284873713 0.191300632
vn -1.00000000 0.00000000 0.00000000
v -0.4450000 -0.4450000 0.5199640
vt 0.284873713 0.315111397
vn -1.00000000 0.00000000 0.00000000
f 175/175/175 176/176/176 177/177/177
v -0.4450000 -0.3750000 0.0000000
vt 0.268800233 0.184495829
vn -1.00000000 0.00000000 0.00000000
v -0.4450000 -0.4450000 0.5199640
vt 0.284873713 0.315111397
vn -1.00000000 0.00000000 0.00000000
v -0.4450000 -0.3750000 0.5199640
vt 0.268800233 0.308306594
vn -1.00000000 0.00000000 0.00000000
f 178/178/178 179/179/179 180/180/180
v -0.4450000 -0.4450000 0.5199640
vt 0.284873713 0.315111397
vn 0.00000000 0.00000000 1.00000000
v -0.3750000 -0.4450000 0.5199640
vt 0.300947193 0.308306594
vn 0.00000000 0.00000000 1.00000000
v -0.3750000 -0.3750000 0.5199640
vt 0.284873713 0.301501781
vn 0.00000000 0.00000000 1.00000000
f 181/181/181 182/182/182 183/183/183
v -0.4450000 -0.4450000 0.5199640
vt 0.284873713 0.315111397
vn 0.00000000 0.00000000 1.00000000
v -0.3750000 -0.3750000 0.5199640
vt 0.284873713 0.301501781
vn 0.00000000 0.00000000 1.00000000
v -0.4450000 -0.3750000 0.5199640
vt 0.268800233 0.308306594
vn 0.00000000 0.00000000 1.00000000
f 184/184/184 185/185/185 186/186/186
v 0.3750000 -0.4450000 0.0000000
vt 0.473163030 0.111587191
vn 0.00000000 0.00000000 -1.00000000
v 0.3750000 -0.3750000 0.0000000
vt 0.457089550 0.104782389
vn 0.00000000 0.00000000 -1.00000000
v 0.4450000 -0.3750000 0.0000000
vt 0.473163030 0.097977586
vn 0.00000000 0.00000000 -1.00000000
f 187/187/187 188/188/188 189/189/189
v 0.3750000 -0.4450000 0.0000000
vt 0.473163030 0.111587191
vn 0.00000000 0.00000000 -1.00000000
v 0.4450000 -0.3750000 0.0000000
vt 0.473163030 0.097977586
vn 0.00000000 0.00000000 -1.00000000
v 0.4450000 -0.4450000 0.0000000
vt 0.489236509 0.104782389
vn 0.00000000 0.00000000 -1.00000000
f 190/190/190 191/191/191 192/192/192
v 0.3750000 -0.4450000 0.0000000
vt 0.541762343 0.127314131
vn 0.00000000 -1.00000000 0.00000000
v 0.4450000 -0.4450000 0.0000000
vt 0.525688864 0.133821616
vn 0.00000000 -1.00000000 0.00000000
v 0.4450000 -0.4450000 0.5199640
vt 0.525688864 0.252222752
vn 0.00000000 -1.00000000 0.00000000
f 193/193/193 194/194/194 195/195/195
v 0.3750000 -0.4450000 0.0000000
vt 0.541762343 0.127314131
vn 0.00000000 -1.00000000 0.00000000
v 0.4450000 -0.4450000 0.5199640
vt 0.525688864 0.252222752
vn 0.00000000 -1.00000000 0.00000000
v 0.3750000 -0.4450000 0.5199640
vt 0.541762343 0.245715267
vn 0.00000000 -1.00000000 0.00000000
f 196/196/196 197/197/197 198/198/198
v 0.4450000 -0.4450000 0.0000000
vt 0.525688864 0.133821616
vn 1.00000000 0.00000000 0.00000000
v 0.4450000 -0.3750000 0.0000000
vt 0.541762343 0.140329101
vn 1.00000000 0.00000000 0.00000000
v 0.4450000 -0.3750000 0.5199640
vt 0.541762343 0.258730237
vn 1.00000000 0.00000000 0.00000000
f 199/199/199 200/200/200 201/201/201
v 0.4450000 -0.4450000 0.0000000
vt 0.525688864 0.133821616
vn 1.00000000 0.00000000 0.00000000
v 0.4450000 -0.3750000 0.5199640
vt 0.541762343 0.258730237
vn 1.00000000 0.00000000 0.00000000
v 0.4450000 -0.4450000 0.5199640
vt 0.525688864 0.252222752
vn 1.00000000 0.00000000 0.00000000
f 202/202/202 203/203/203 204/204/204
v 0.4450000 -0.3750000 0.0000000
vt 0.473163030 0.097977586
vn 0.00000000 1.00000000 0.00000000
v 0.3750000 -0.3750000 0.0000000
vt 0.457089550 0.104782389
vn 0.00000000 1.00000000 0.00000000
v 0.3750000 -0.3750000 0.5199640
vt 0.457089550 0.228593154
vn 0.00000000 1.00000000 0.00000000
f 205/205/205 206/206/206 207/207/207
v 0.4450000 -0.3750000 0.0000000
vt 0.473163030 0.097977586
vn 0.00000000 1.00000000 -0.00000000
v 0.3750000 -0.3750000 0.5199640
vt 0.457089550 0.228593154
vn 0.00000000 1.00000000 -0.00000000
v 0.4450000 -0.3750000 0.5199640
vt 0.473163030 0.221788341
vn 0.00000000 1.00000000 -0.00000000
f 208/208/208 209/209/209 210/210/210
v 0.3750000 -0.3750000 0.0000000
vt 0.457089550 0.104782389
vn -1.00000000 0.00000000 0.00000000
v 0.3750000 -0.4450000 0.0000000
vt 0.473163030 0.111587191
vn -1.00000000 0.00000000 0.00000000
v 0.3750000 -0.4450000 0.5199640
vt 0.473163030 0.235397957
vn -1.00000000 0.00000000 0.00000000
f 211/211/211 212/212/212 213/213/213
v 0.3750000 -0.3750000 0.0000000
vt 0.457089550 0.104782389
vn -1.00000000 0.00000000 0.00000000
v 0.3750000 -0.4450000 0.5199640
vt 0.473163030 0.235397957
vn -1.00000000 0.00000000 0.00000000
v 0.3750000 -0.3750000 0.5199640
vt 0.457089550 0.228593154
vn -1.00000000 0.00000000 0.00000000
f 214/214/214 215/215/215 216/216/216
v 0.3750000 -0.4450000 0.5199640
vt 0.473163030 0.235397957
vn 0.00000000 0.00000000 1.00000000
v 0.4450000 -0.4450000 0.5199640
vt 0.489236509 0.228593154
vn 0.00000000 0.00000000 1.00000000
v 0.4450000 -0.3750000 0.5199640
vt 0.473163030 0.221788341
vn 0.00000000 0.00000000 1.00000000
f 217/217/217 218/218/218 219/219/219
v 0.3750000 -0.4450000 0.5199640
vt 0.473163030 0.235397957
vn 0.00000000 0.00000000 1.00000000
v 0.4450000 -0.3750000 0.5199640
vt 0.473163030 0.221788341
vn 0.00000000 0.00000000 1.00000000
v 0.3750000 -0.3750000 0.5199640
vt 0.457089550 0.228593154
vn 0.00000000 0.00000000 1.00000000
f 220/220/220 221/221/221 222/222/222
v -0.4600000 -0.4850000 0.4599640
vt 0.290614240 0.306171181
vn 0.00000000 0.00000000 -1.00000000
v -0.4600000 -0.4050000 0.4599640
vt 0.272244547 0.298394267
vn 0.00000000 0.00000000 -1.00000000
v 0.4600000 -0.4050000 0.4599640
vt 0.483495983 0.208959668
vn 0.00000000 0.00000000 -1.00000000
f 223/223/223 224/224/224 225/225/225
v -0.4600000 -0.4850000 0.4599640
vt 0.290614240 0.306171181
vn 0.00000000 0.00000000 -1.00000000
v 0.4600000 -0.4050000 0.4599640
vt 0.483495983 0.208959668
vn 0.00000000 0.00000000 -1.00000000
v 0.4600000 -0.4850000 0.4599640
vt 0.501865676 0.216736593
vn 0.00000000 0.00000000 -1.00000000
f 226/226/226 227/227/227 228/228/228
v -0.4600000 -0.4850000 0.4599640
vt 0.724311133 0.150709082
vn 0.00000000 -1.00000000 0.00000000
v 0.4600000 -0.4850000 0.4599640
vt 0.513059697 0.236236043
vn 0.00000000 -1.00000000 0.00000000
v 0.4600000 -0.4850000 1.1699640
vt 0.513059697 0.397910316
vn 0.00000000 -1.00000000 0.00000000
f 229/229/229 230/230/230 231/231/231
v -0.4600000 -0.4850000 0.4599640
vt 0.724311133 0.150709082
vn 0.00000000 -1.00000000 0.00000000
v 0.4600000 -0.4850000 1.1699640
vt 0.513059697 0.397910316
vn 0.00000000 -1.00000000 0.00000000
v -0.4600000 -0.4850000 1.1699640
vt 0.724311133 0.312383366
vn 0.00000000 -1.00000000 0.00000000
f 232/232/232 233/233/233 234/234/234
v 0.4600000 -0.4850000 0.4599640
vt 0.513059697 0.236236043
vn 1.00000000 0.00000000 0.00000000
v 0.4600000 -0.4050000 0.4599640
vt 0.531429390 0.243673164
vn 1.00000000 0.00000000 0.00000000
v 0.4600000 -0.4050000 1.1699640
vt 0.531429390 0.405347448
vn 1.00000000 0.00000000 0.00000000
f 235/235/235 236/236/236 237/237/237
v 0.4600000 -0.4850000 0.4599640
vt 0.513059697 0.236236043
vn 1.00000000 0.00000000 0.00000000
v 0.4600000 -0.4050000 1.1699640
vt 0.531429390 0.405347448
vn 1.00000000 0.00000000 0.00000000
v 0.4600000 -0.4850000 1.1699640
vt 0.513059697 0.397910316
vn 1.00000000 0.00000000 0.00000000
f 238/238/238 239/239/239 240/240/240
v 0.4600000 -0.4050000 0.4599640
vt 0.483495983 0.208959668
vn 0.00000000 1.00000000 0.00000000
v -0.4600000 -0.4050000 0.4599640
vt 0.272244547 0.298394267
vn 0.00000000 1.00000000 0.00000000
v -0.4600000 -0.4050000 1.1699640
vt 0.272244547 0.467455272
vn 0.00000000 1.00000000 0.00000000
f 241/241/241 242/242/242 243/243/243
v 0.4600000 -0.4050000 0.4599640
vt 0.483495983 0.208959668
vn 0.00000000 1.00000000 -0.00000000
v -0.4600000 -0.4050000 1.1699640
vt 0.272244547 0.467455272
vn 0.00000000 1.00000000 -0.00000000
v 0.4600000 -0.4050000 1.1699640
vt 0.483495983 0.378020684
vn 0.00000000 1.00000000 -0.00000000
f 244/244/244 245/245/245 246/246/246
v -0.4600000 -0.4050000 0.4599640
vt 0.272244547 0.298394267
vn -1.00000000 0.00000000 0.00000000
v -0.4600000 -0.4850000 0.4599640
vt 0.290614240 0.306171181
vn -1.00000000 0.00000000 0.00000000
v -0.4600000 -0.4850000 1.1699640
vt 0.290614240 0.475232197
vn -1.00000000 0.00000000 0.00000000
f 247/247/247 248/248/248 249/249/249
v -0.4600000 -0.4050000 0.4599640
vt 0.272244547 0.298394267
vn -1.00000000 0.00000000 0.00000000
v -0.4600000 -0.4850000 1.1699640
vt 0.290614240 0.475232197
vn -1.00000000 0.00000000 0.00000000
v -0.4600000 -0.4050000 1.1699640
vt 0.272244547 0.467455272
vn -1.00000000 0.00000000 0.00000000
f 250/250/250 251/251/251 252/252/252
v -0.4600000 -0.4850000 1.1699640
vt 0.290614240 0.475232197
vn 0.00000000 0.00000000 1.00000000
v 0.4600000 -0.4850000 1.1699640
vt 0.501865676 0.385797609
vn 0.00000000 0.00000000 1.00000000
v 0.4600000 -0.4050000 1.1699640
vt 0.483495983 0.378020684
vn 0.00000000 0.00000000 1.00000000
f 253/253/253 254/254/254 255/255/255
v -0.4600000 -0.4850000 1.1699640
vt 0.290614240 0.475232197
vn 0.00000000 0.00000000 1.00000000
v 0.4600000 -0.4050000 1.1699640
vt 0.483495983 0.378020684
vn 0.00000000 0.00000000 1.00000000
v -0.4600000 -0.4050000 1.1699640
vt 0.272244547 0.467455272
vn 0.00000000 0.00000000 1.00000000
f 256/256/256 257/257/257 258/258/258
