# Physical vanilla furniture; Z up; per-tile mesh.
# Tile-local game axes; ObjReader performs the scene conversion.
mtllib pz_bed_bedding_01_large_oak_1_0.mtl
usemtl original
v 0.4550000 0.5000000 0.4999640
vt 0.340715744 0.645689630
vn 0.00000000 -0.00000000 -1.00000000
v 0.4550000 -0.3650000 0.4999640
vt 0.581485720 0.718877299
vn 0.00000000 -0.00000000 -1.00000000
v 0.4200000 -0.4000000 0.4999640
vt 0.581485720 0.724800000
vn 0.00000000 -0.00000000 -1.00000000
f 1/1/1 2/2/2 3/3/3
v 0.4550000 0.5000000 0.4999640
vt 0.340715744 0.645689630
vn 0.00000000 0.00000000 -1.00000000
v 0.4200000 -0.4000000 0.4999640
vt 0.581485720 0.724800000
vn 0.00000000 0.00000000 -1.00000000
v -0.5000000 -0.4000000 0.4999640
vt 0.325406669 0.802641231
vn 0.00000000 0.00000000 -1.00000000
f 4/4/4 5/5/5 6/6/6
v 0.4550000 0.5000000 0.4999640
vt 0.340715744 0.645689630
vn 0.00000000 0.00000000 -1.00000000
v -0.5000000 -0.4000000 0.4999640
vt 0.325406669 0.802641231
vn 0.00000000 0.00000000 -1.00000000
v -0.5000000 0.5000000 0.4999640
vt 0.074894562 0.726492205
vn 0.00000000 0.00000000 -1.00000000
f 7/7/7 8/8/8 9/9/9
v -0.5000000 -0.4000000 0.7399640
vt 0.325406669 0.852380627
vn 0.00000000 0.00000000 1.00000000
v 0.4200000 -0.4000000 0.7399640
vt 0.581485720 0.774539396
vn 0.00000000 0.00000000 1.00000000
v 0.4550000 -0.3650000 0.7399640
vt 0.581485720 0.768616695
vn 0.00000000 0.00000000 1.00000000
f 10/10/10 11/11/11 12/12/12
v -0.5000000 -0.4000000 0.7399640
vt 0.325406669 0.852380627
vn 0.00000000 0.00000000 1.00000000
v 0.4550000 -0.3650000 0.7399640
vt 0.581485720 0.768616695
vn 0.00000000 0.00000000 1.00000000
v 0.4550000 0.5000000 0.7399640
vt 0.340715744 0.695429026
vn 0.00000000 0.00000000 1.00000000
f 13/13/13 14/14/14 15/15/15
v -0.5000000 -0.4000000 0.7399640
vt 0.325406669 0.852380627
vn 0.00000000 0.00000000 1.00000000
v 0.4550000 0.5000000 0.7399640
vt 0.340715744 0.695429026
vn 0.00000000 0.00000000 1.00000000
v -0.5000000 0.5000000 0.7399640
vt 0.074894562 0.776231601
vn 0.00000000 0.00000000 1.00000000
f 16/16/16 17/17/17 18/18/18
v -0.5000000 -0.4000000 0.4999640
vt 0.921104959 0.748701892
vn 0.00000000 -1.00000000 0.00000000
v 0.4200000 -0.4000000 0.4999640
vt 0.665025908 0.825979658
vn 0.00000000 -1.00000000 0.00000000
v 0.4200000 -0.4000000 0.7399640
vt 0.665025908 0.875359009
vn 0.00000000 -1.00000000 0.00000000
f 19/19/19 20/20/20 21/21/21
v -0.5000000 -0.4000000 0.4999640
vt 0.921104959 0.748701892
vn 0.00000000 -1.00000000 0.00000000
v 0.4200000 -0.4000000 0.7399640
vt 0.665025908 0.875359009
vn 0.00000000 -1.00000000 0.00000000
v -0.5000000 -0.4000000 0.7399640
vt 0.921104959 0.798081242
vn 0.00000000 -1.00000000 0.00000000
f 22/22/22 23/23/23 24/24/24
v 0.4200000 -0.4000000 0.4999640
vt 0.665025908 0.825979658
vn 0.70710678 -0.70710678 0.00000000
v 0.4550000 -0.3650000 0.4999640
vt 0.665025908 0.831859487
vn 0.70710678 -0.70710678 0.00000000
v 0.4550000 -0.3650000 0.7399640
vt 0.665025908 0.881238838
vn 0.70710678 -0.70710678 0.00000000
f 25/25/25 26/26/26 27/27/27
v 0.4200000 -0.4000000 0.4999640
vt 0.665025908 0.825979658
vn 0.70710678 -0.70710678 0.00000000
v 0.4550000 -0.3650000 0.7399640
vt 0.665025908 0.881238838
vn 0.70710678 -0.70710678 0.00000000
v 0.4200000 -0.4000000 0.7399640
vt 0.665025908 0.875359009
vn 0.70710678 -0.70710678 0.00000000
f 28/28/28 29/29/29 30/30/30
v 0.4550000 -0.3650000 0.4999640
vt 0.665025908 0.831859487
vn 1.00000000 0.00000000 0.00000000
v 0.4550000 0.5000000 0.4999640
vt 0.905795884 0.904517379
vn 1.00000000 0.00000000 0.00000000
v 0.4550000 0.5000000 0.7399640
vt 0.905795884 0.953896729
vn 1.00000000 0.00000000 0.00000000
f 31/31/31 32/32/32 33/33/33
v 0.4550000 -0.3650000 0.4999640
vt 0.665025908 0.831859487
vn 1.00000000 0.00000000 0.00000000
v 0.4550000 0.5000000 0.7399640
vt 0.905795884 0.953896729
vn 1.00000000 0.00000000 0.00000000
v 0.4550000 -0.3650000 0.7399640
vt 0.665025908 0.881238838
vn 1.00000000 0.00000000 0.00000000
f 34/34/34 35/35/35 36/36/36
v 0.4050000 -0.4400000 0.3999640
vt 0.588444400 0.138928239
vn 0.00000000 0.00000000 -1.00000000
v 0.4050000 0.5000000 0.3999640
vt 0.326798405 0.059394803
vn 0.00000000 0.00000000 -1.00000000
v 0.4750000 0.5000000 0.3999640
vt 0.346282688 0.053472103
vn 0.00000000 0.00000000 -1.00000000
f 37/37/37 38/38/38 39/39/39
v 0.4050000 -0.4400000 0.3999640
vt 0.588444400 0.138928239
vn 0.00000000 0.00000000 -1.00000000
v 0.4750000 0.5000000 0.3999640
vt 0.346282688 0.053472103
vn 0.00000000 0.00000000 -1.00000000
v 0.4750000 -0.4400000 0.3999640
vt 0.607928662 0.133005538
vn 0.00000000 0.00000000 -1.00000000
f 40/40/40 41/41/41 42/42/42
v 0.4050000 -0.4400000 0.3999640
vt 0.658067228 0.230984490
vn 0.00000000 -1.00000000 0.00000000
v 0.4750000 -0.4400000 0.3999640
vt 0.638582966 0.236864319
vn 0.00000000 -1.00000000 0.00000000
v 0.4750000 -0.4400000 0.4999640
vt 0.638582966 0.257439054
vn 0.00000000 -1.00000000 0.00000000
f 43/43/43 44/44/44 45/45/45
v 0.4050000 -0.4400000 0.3999640
vt 0.658067228 0.230984490
vn 0.00000000 -1.00000000 0.00000000
v 0.4750000 -0.4400000 0.4999640
vt 0.638582966 0.257439054
vn 0.00000000 -1.00000000 0.00000000
v 0.4050000 -0.4400000 0.4999640
vt 0.658067228 0.251559225
vn 0.00000000 -1.00000000 0.00000000
f 46/46/46 47/47/47 48/48/48
v 0.4750000 -0.4400000 0.3999640
vt 0.638582966 0.236864319
vn 1.00000000 0.00000000 0.00000000
v 0.4750000 0.5000000 0.3999640
vt 0.900228939 0.315822028
vn 1.00000000 0.00000000 0.00000000
v 0.4750000 0.5000000 0.4999640
vt 0.900228939 0.336396764
vn 1.00000000 0.00000000 0.00000000
f 49/49/49 50/50/50 51/51/51
v 0.4750000 -0.4400000 0.3999640
vt 0.638582966 0.236864319
vn 1.00000000 0.00000000 0.00000000
v 0.4750000 0.5000000 0.4999640
vt 0.900228939 0.336396764
vn 1.00000000 0.00000000 0.00000000
v 0.4750000 -0.4400000 0.4999640
vt 0.638582966 0.257439054
vn 1.00000000 0.00000000 0.00000000
f 52/52/52 53/53/53 54/54/54
v 0.4050000 0.5000000 0.3999640
vt 0.326798405 0.059394803
vn -1.00000000 0.00000000 0.00000000
v 0.4050000 -0.4400000 0.3999640
vt 0.588444400 0.138928239
vn -1.00000000 0.00000000 0.00000000
v 0.4050000 -0.4400000 0.4999640
vt 0.588444400 0.159652980
vn -1.00000000 0.00000000 0.00000000
f 55/55/55 56/56/56 57/57/57
v 0.4050000 0.5000000 0.3999640
vt 0.326798405 0.059394803
vn -1.00000000 0.00000000 0.00000000
v 0.4050000 -0.4400000 0.4999640
vt 0.588444400 0.159652980
vn -1.00000000 0.00000000 0.00000000
v 0.4050000 0.5000000 0.4999640
vt 0.326798405 0.080119556
vn -1.00000000 0.00000000 0.00000000
f 58/58/58 59/59/59 60/60/60
v 0.4050000 -0.4400000 0.4999640
vt 0.588444400 0.159652980
vn 0.00000000 0.00000000 1.00000000
v 0.4750000 -0.4400000 0.4999640
vt 0.607928662 0.153730279
vn 0.00000000 0.00000000 1.00000000
v 0.4750000 0.5000000 0.4999640
vt 0.346282688 0.074196855
vn 0.00000000 0.00000000 1.00000000
f 61/61/61 62/62/62 63/63/63
v 0.4050000 -0.4400000 0.4999640
vt 0.588444400 0.159652980
vn 0.00000000 0.00000000 1.00000000
v 0.4750000 0.5000000 0.4999640
vt 0.346282688 0.074196855
vn 0.00000000 0.00000000 1.00000000
v 0.4050000 0.5000000 0.4999640
vt 0.326798405 0.080119556
vn 0.00000000 0.00000000 1.00000000
f 64/64/64 65/65/65 66/66/66
v -0.5000000 -0.4000000 0.3999640
vt 0.325406669 0.212115909
vn 0.00000000 0.00000000 -1.00000000
v 0.4450000 -0.4000000 0.3999640
vt 0.588444400 0.132159430
vn 0.00000000 0.00000000 -1.00000000
v 0.4450000 -0.4700000 0.3999640
vt 0.607928662 0.138082131
vn 0.00000000 0.00000000 -1.00000000
f 67/67/67 68/68/68 69/69/69
v -0.5000000 -0.4000000 0.3999640
vt 0.325406669 0.212115909
vn 0.00000000 0.00000000 -1.00000000
v 0.4450000 -0.4700000 0.3999640
vt 0.607928662 0.138082131
vn 0.00000000 0.00000000 -1.00000000
v -0.5000000 -0.4700000 0.3999640
vt 0.344890952 0.218038610
vn 0.00000000 0.00000000 -1.00000000
f 70/70/70 71/71/71 72/72/72
v -0.5000000 -0.4700000 0.3999640
vt 0.901620676 0.152446769
vn 0.00000000 -1.00000000 0.00000000
v 0.4450000 -0.4700000 0.3999640
vt 0.638582966 0.231824467
vn 0.00000000 -1.00000000 0.00000000
v 0.4450000 -0.4700000 0.4999640
vt 0.638582966 0.252399191
vn 0.00000000 -1.00000000 0.00000000
f 73/73/73 74/74/74 75/75/75
v -0.5000000 -0.4700000 0.3999640
vt 0.901620676 0.152446769
vn 0.00000000 -1.00000000 0.00000000
v 0.4450000 -0.4700000 0.4999640
vt 0.638582966 0.252399191
vn 0.00000000 -1.00000000 0.00000000
v -0.5000000 -0.4700000 0.4999640
vt 0.901620676 0.173021493
vn 0.00000000 -1.00000000 0.00000000
f 76/76/76 77/77/77 78/78/78
v 0.4450000 -0.4700000 0.3999640
vt 0.638582966 0.231824467
vn 1.00000000 0.00000000 0.00000000
v 0.4450000 -0.4000000 0.3999640
vt 0.658067228 0.237704296
vn 1.00000000 0.00000000 0.00000000
v 0.4450000 -0.4000000 0.4999640
vt 0.658067228 0.258279020
vn 1.00000000 0.00000000 0.00000000
f 79/79/79 80/80/80 81/81/81
v 0.4450000 -0.4700000 0.3999640
vt 0.638582966 0.231824467
vn 1.00000000 0.00000000 0.00000000
v 0.4450000 -0.4000000 0.4999640
vt 0.658067228 0.258279020
vn 1.00000000 0.00000000 0.00000000
v 0.4450000 -0.4700000 0.4999640
vt 0.638582966 0.252399191
vn 1.00000000 0.00000000 0.00000000
f 82/82/82 83/83/83 84/84/84
v 0.4450000 -0.4000000 0.3999640
vt 0.588444400 0.132159430
vn 0.00000000 1.00000000 0.00000000
v -0.5000000 -0.4000000 0.3999640
vt 0.325406669 0.212115909
vn 0.00000000 1.00000000 0.00000000
v -0.5000000 -0.4000000 0.4999640
vt 0.325406669 0.232840661
vn 0.00000000 1.00000000 0.00000000
f 85/85/85 86/86/86 87/87/87
v 0.4450000 -0.4000000 0.3999640
vt 0.588444400 0.132159430
vn 0.00000000 1.00000000 -0.00000000
v -0.5000000 -0.4000000 0.4999640
vt 0.325406669 0.232840661
vn 0.00000000 1.00000000 -0.00000000
v 0.4450000 -0.4000000 0.4999640
vt 0.588444400 0.152884182
vn 0.00000000 1.00000000 -0.00000000
f 88/88/88 89/89/89 90/90/90
v -0.5000000 -0.4700000 0.4999640
vt 0.344890952 0.238763362
vn 0.00000000 0.00000000 1.00000000
v 0.4450000 -0.4700000 0.4999640
vt 0.607928662 0.158806883
vn 0.00000000 0.00000000 1.00000000
v 0.4450000 -0.4000000 0.4999640
vt 0.588444400 0.152884182
vn 0.00000000 0.00000000 1.00000000
f 91/91/91 92/92/92 93/93/93
v -0.5000000 -0.4700000 0.4999640
vt 0.344890952 0.238763362
vn 0.00000000 0.00000000 1.00000000
v 0.4450000 -0.4000000 0.4999640
vt 0.588444400 0.152884182
vn 0.00000000 0.00000000 1.00000000
v -0.5000000 -0.4000000 0.4999640
vt 0.325406669 0.232840661
vn 0.00000000 0.00000000 1.00000000
f 94/94/94 95/95/95 96/96/96
v 0.3750000 -0.4450000 0.0000000
vt 0.581485720 0.058998051
vn 0.00000000 0.00000000 -1.00000000
v 0.3750000 -0.3750000 0.0000000
vt 0.562001436 0.053075350
vn 0.00000000 0.00000000 -1.00000000
v 0.4450000 -0.3750000 0.0000000
vt 0.581485720 0.047152650
vn 0.00000000 0.00000000 -1.00000000
f 97/97/97 98/98/98 99/99/99
v 0.3750000 -0.4450000 0.0000000
vt 0.581485720 0.058998051
vn 0.00000000 0.00000000 -1.00000000
v 0.4450000 -0.3750000 0.0000000
vt 0.581485720 0.047152650
vn 0.00000000 0.00000000 -1.00000000
v 0.4450000 -0.4450000 0.0000000
vt 0.600970003 0.053075350
vn 0.00000000 0.00000000 -1.00000000
f 100/100/100 101/101/101 102/102/102
v 0.3750000 -0.4450000 0.0000000
vt 0.665025908 0.145753060
vn 0.00000000 -1.00000000 0.00000000
v 0.4450000 -0.4450000 0.0000000
vt 0.645541625 0.151632900
vn 0.00000000 -1.00000000 0.00000000
v 0.4450000 -0.4450000 0.5199640
vt 0.645541625 0.258614085
vn 0.00000000 -1.00000000 0.00000000
f 103/103/103 104/104/104 105/105/105
v 0.3750000 -0.4450000 0.0000000
vt 0.665025908 0.145753060
vn 0.00000000 -1.00000000 0.00000000
v 0.4450000 -0.4450000 0.5199640
vt 0.645541625 0.258614085
vn 0.00000000 -1.00000000 0.00000000
v 0.3750000 -0.4450000 0.5199640
vt 0.665025908 0.252734256
vn 0.00000000 -1.00000000 0.00000000
f 106/106/106 107/107/107 108/108/108
v 0.4450000 -0.4450000 0.0000000
vt 0.645541625 0.151632900
vn 1.00000000 0.00000000 0.00000000
v 0.4450000 -0.3750000 0.0000000
vt 0.665025908 0.157512729
vn 1.00000000 0.00000000 0.00000000
v 0.4450000 -0.3750000 0.5199640
vt 0.665025908 0.264493915
vn 1.00000000 0.00000000 0.00000000
f 109/109/109 110/110/110 111/111/111
v 0.4450000 -0.4450000 0.0000000
vt 0.645541625 0.151632900
vn 1.00000000 0.00000000 0.00000000
v 0.4450000 -0.3750000 0.5199640
vt 0.665025908 0.264493915
vn 1.00000000 0.00000000 0.00000000
v 0.4450000 -0.4450000 0.5199640
vt 0.645541625 0.258614085
vn 1.00000000 0.00000000 0.00000000
f 112/112/112 113/113/113 114/114/114
v 0.4450000 -0.3750000 0.0000000
vt 0.581485720 0.047152650
vn 0.00000000 1.00000000 0.00000000
v 0.3750000 -0.3750000 0.0000000
vt 0.562001436 0.053075350
vn 0.00000000 1.00000000 0.00000000
v 0.3750000 -0.3750000 0.5199640
vt 0.562001436 0.160836581
vn 0.00000000 1.00000000 0.00000000
f 115/115/115 116/116/116 117/117/117
v 0.4450000 -0.3750000 0.0000000
vt 0.581485720 0.047152650
vn 0.00000000 1.00000000 -0.00000000
v 0.3750000 -0.3750000 0.5199640
vt 0.562001436 0.160836581
vn 0.00000000 1.00000000 -0.00000000
v 0.4450000 -0.3750000 0.5199640
vt 0.581485720 0.154913880
vn 0.00000000 1.00000000 -0.00000000
f 118/118/118 119/119/119 120/120/120
v 0.3750000 -0.3750000 0.0000000
vt 0.562001436 0.053075350
vn -1.00000000 0.00000000 0.00000000
v 0.3750000 -0.4450000 0.0000000
vt 0.581485720 0.058998051
vn -1.00000000 0.00000000 0.00000000
v 0.3750000 -0.4450000 0.5199640
vt 0.581485720 0.166759282
vn -1.00000000 0.00000000 0.00000000
f 121/121/121 122/122/122 123/123/123
v 0.3750000 -0.3750000 0.0000000
vt 0.562001436 0.053075350
vn -1.00000000 0.00000000 0.00000000
v 0.3750000 -0.4450000 0.5199640
vt 0.581485720 0.166759282
vn -1.00000000 0.00000000 0.00000000
v 0.3750000 -0.3750000 0.5199640
vt 0.562001436 0.160836581
vn -1.00000000 0.00000000 0.00000000
f 124/124/124 125/125/125 126/126/126
v 0.3750000 -0.4450000 0.5199640
vt 0.581485720 0.166759282
vn 0.00000000 0.00000000 1.00000000
v 0.4450000 -0.4450000 0.5199640
vt 0.600970003 0.160836581
vn 0.00000000 0.00000000 1.00000000
v 0.4450000 -0.3750000 0.5199640
vt 0.581485720 0.154913880
vn 0.00000000 0.00000000 1.00000000
f 127/127/127 128/128/128 129/129/129
v 0.3750000 -0.4450000 0.5199640
vt 0.581485720 0.166759282
vn 0.00000000 0.00000000 1.00000000
v 0.4450000 -0.3750000 0.5199640
vt 0.581485720 0.154913880
vn 0.00000000 0.00000000 1.00000000
v 0.3750000 -0.3750000 0.5199640
vt 0.562001436 0.160836581
vn 0.00000000 0.00000000 1.00000000
f 130/130/130 131/131/131 132/132/132
v -0.5000000 -0.4050000 0.4599640
vt 0.326798405 0.224973812
vn 0.00000000 0.00000000 -1.00000000
v 0.4600000 -0.4050000 0.4599640
vt 0.594011323 0.143748182
vn 0.00000000 0.00000000 -1.00000000
v 0.4600000 -0.4850000 0.4599640
vt 0.616279079 0.150516980
vn 0.00000000 0.00000000 -1.00000000
f 133/133/133 134/134/134 135/135/135
v -0.5000000 -0.4050000 0.4599640
vt 0.326798405 0.224973812
vn 0.00000000 0.00000000 -1.00000000
v 0.4600000 -0.4850000 0.4599640
vt 0.616279079 0.150516980
vn 0.00000000 0.00000000 -1.00000000
v -0.5000000 -0.4850000 0.4599640
vt 0.349066161 0.231742610
vn 0.00000000 0.00000000 -1.00000000
f 136/136/136 137/137/137 138/138/138
v -0.5000000 -0.4850000 0.4599640
vt 0.897445467 0.163531635
vn 0.00000000 -1.00000000 0.00000000
v 0.4600000 -0.4850000 0.4599640
vt 0.630232549 0.244169299
vn 0.00000000 -1.00000000 0.00000000
v 0.4600000 -0.4850000 1.1699640
vt 0.630232549 0.390249880
vn 0.00000000 -1.00000000 0.00000000
f 139/139/139 140/140/140 141/141/141
v -0.5000000 -0.4850000 0.4599640
vt 0.897445467 0.163531635
vn 0.00000000 -1.00000000 0.00000000
v 0.4600000 -0.4850000 1.1699640
vt 0.630232549 0.390249880
vn 0.00000000 -1.00000000 0.00000000
v -0.5000000 -0.4850000 1.1699640
vt 0.897445467 0.309612217
vn 0.00000000 -1.00000000 0.00000000
f 142/142/142 143/143/143 144/144/144
v 0.4600000 -0.4850000 0.4599640
vt 0.630232549 0.244169299
vn 1.00000000 0.00000000 0.00000000
v 0.4600000 -0.4050000 0.4599640
vt 0.652500305 0.250889105
vn 1.00000000 0.00000000 0.00000000
v 0.4600000 -0.4050000 1.1699640
vt 0.652500305 0.396969687
vn 1.00000000 0.00000000 0.00000000
f 145/145/145 146/146/146 147/147/147
v 0.4600000 -0.4850000 0.4599640
vt 0.630232549 0.244169299
vn 1.00000000 0.00000000 0.00000000
v 0.4600000 -0.4050000 1.1699640
vt 0.652500305 0.396969687
vn 1.00000000 0.00000000 0.00000000
v 0.4600000 -0.4850000 1.1699640
vt 0.630232549 0.390249880
vn 1.00000000 0.00000000 0.00000000
f 148/148/148 149/149/149 150/150/150
v 0.4600000 -0.4050000 0.4599640
vt 0.594011323 0.143748182
vn 0.00000000 1.00000000 0.00000000
v -0.5000000 -0.4050000 0.4599640
vt 0.326798405 0.224973812
vn 0.00000000 1.00000000 0.00000000
v -0.5000000 -0.4050000 1.1699640
vt 0.326798405 0.372119533
vn 0.00000000 1.00000000 0.00000000
f 151/151/151 152/152/152 153/153/153
v 0.4600000 -0.4050000 0.4599640
vt 0.594011323 0.143748182
vn 0.00000000 1.00000000 -0.00000000
v -0.5000000 -0.4050000 1.1699640
vt 0.326798405 0.372119533
vn 0.00000000 1.00000000 -0.00000000
v 0.4600000 -0.4050000 1.1699640
vt 0.594011323 0.290893903
vn 0.00000000 1.00000000 -0.00000000
f 154/154/154 155/155/155 156/156/156
v -0.5000000 -0.4850000 1.1699640
vt 0.349066161 0.378888330
vn 0.00000000 0.00000000 1.00000000
v 0.4600000 -0.4850000 1.1699640
vt 0.616279079 0.297662701
vn 0.00000000 0.00000000 1.00000000
v 0.4600000 -0.4050000 1.1699640
vt 0.594011323 0.290893903
vn 0.00000000 0.00000000 1.00000000
f 157/157/157 158/158/158 159/159/159
v -0.5000000 -0.4850000 1.1699640
vt 0.349066161 0.378888330
vn 0.00000000 0.00000000 1.00000000
v 0.4600000 -0.4050000 1.1699640
vt 0.594011323 0.290893903
vn 0.00000000 0.00000000 1.00000000
v -0.5000000 -0.4050000 1.1699640
vt 0.326798405 0.372119533
vn 0.00000000 0.00000000 1.00000000
f 160/160/160 161/161/161 162/162/162
