mtllib pz_chair_seating_indoor_01_red_comfy_fidelity_r1.mtl
o pz_chair_seating_indoor_01_red_comfy
usemtl UV_Base
g pz_chair_seating_indoor_01_red_comfy__lower_body__body
v -0.40966000 -0.40463333 0.33810000
v -0.40966000 -0.40463333 0.07840000
v 0.41466000 -0.40463333 0.07840000
vt 0.776240458 0.480468750
vt 0.776240458 0.269531250
vt 0.973759542 0.269531250
vn 0.00000000 -1.00000000 0.00000000
f 1/1/1 2/2/1 3/3/1
g pz_chair_seating_indoor_01_red_comfy__lower_body__body
v 0.41466000 -0.40463333 0.07840000
v 0.41466000 -0.40463333 0.33810000
v -0.40966000 -0.40463333 0.33810000
vt 0.973759542 0.269531250
vt 0.973759542 0.480468750
vt 0.776240458 0.480468750
vn 0.00000000 -1.00000000 0.00000000
f 4/4/2 5/5/2 6/6/2
g pz_chair_seating_indoor_01_red_comfy__lower_body__body
v 0.41466000 -0.40463333 0.33810000
v 0.41466000 -0.40463333 0.07840000
v 0.44266000 -0.37663333 0.07840000
vt 0.019531250 0.230468750
vt 0.019531250 0.019531250
vt 0.026534487 0.019531250
vn 0.70710678 -0.70710678 0.00000000
f 7/7/3 8/8/3 9/9/3
g pz_chair_seating_indoor_01_red_comfy__lower_body__body
v 0.44266000 -0.37663333 0.07840000
v 0.44266000 -0.37663333 0.33810000
v 0.41466000 -0.40463333 0.33810000
vt 0.026534487 0.019531250
vt 0.026534487 0.230468750
vt 0.019531250 0.230468750
vn 0.70710678 -0.70710678 0.00000000
f 10/10/4 11/11/4 12/12/4
g pz_chair_seating_indoor_01_red_comfy__lower_body__body
v 0.44266000 -0.37663333 0.33810000
v 0.44266000 -0.37663333 0.07840000
v 0.44266000 0.41072667 0.07840000
vt 0.026534487 0.230468750
vt 0.026534487 0.019531250
vt 0.223465513 0.019531250
vn 1.00000000 0.00000000 0.00000000
f 13/13/5 14/14/5 15/15/5
g pz_chair_seating_indoor_01_red_comfy__lower_body__body
v 0.44266000 0.41072667 0.07840000
v 0.44266000 0.41072667 0.33810000
v 0.44266000 -0.37663333 0.33810000
vt 0.223465513 0.019531250
vt 0.223465513 0.230468750
vt 0.026534487 0.230468750
vn 1.00000000 0.00000000 -0.00000000
f 16/16/6 17/17/6 18/18/6
g pz_chair_seating_indoor_01_red_comfy__lower_body__body
v 0.44266000 0.41072667 0.33810000
v 0.44266000 0.41072667 0.07840000
v 0.41466000 0.43872667 0.07840000
vt 0.730468750 0.480468750
vt 0.730468750 0.269531250
vt 0.723759542 0.269531250
vn 0.70710678 0.70710678 0.00000000
f 19/19/7 20/20/7 21/21/7
g pz_chair_seating_indoor_01_red_comfy__lower_body__body
v 0.41466000 0.43872667 0.07840000
v 0.41466000 0.43872667 0.33810000
v 0.44266000 0.41072667 0.33810000
vt 0.723759542 0.269531250
vt 0.723759542 0.480468750
vt 0.730468750 0.480468750
vn 0.70710678 0.70710678 -0.00000000
f 22/22/8 23/23/8 24/24/8
g pz_chair_seating_indoor_01_red_comfy__lower_body__body
v 0.41466000 0.43872667 0.33810000
v 0.41466000 0.43872667 0.07840000
v -0.40966000 0.43872667 0.07840000
vt 0.723759542 0.480468750
vt 0.723759542 0.269531250
vt 0.526240458 0.269531250
vn 0.00000000 1.00000000 0.00000000
f 25/25/9 26/26/9 27/27/9
g pz_chair_seating_indoor_01_red_comfy__lower_body__body
v -0.40966000 0.43872667 0.07840000
v -0.40966000 0.43872667 0.33810000
v 0.41466000 0.43872667 0.33810000
vt 0.526240458 0.269531250
vt 0.526240458 0.480468750
vt 0.723759542 0.480468750
vn 0.00000000 1.00000000 0.00000000
f 28/28/10 29/29/10 30/30/10
g pz_chair_seating_indoor_01_red_comfy__lower_body__body
v -0.40966000 0.43872667 0.33810000
v -0.40966000 0.43872667 0.07840000
v -0.43766000 0.41072667 0.07840000
vt 0.230468750 0.230468750
vt 0.230468750 0.019531250
vt 0.223465513 0.019531250
vn -0.70710678 0.70710678 0.00000000
f 31/31/11 32/32/11 33/33/11
g pz_chair_seating_indoor_01_red_comfy__lower_body__body
v -0.43766000 0.41072667 0.07840000
v -0.43766000 0.41072667 0.33810000
v -0.40966000 0.43872667 0.33810000
vt 0.223465513 0.019531250
vt 0.223465513 0.230468750
vt 0.230468750 0.230468750
vn -0.70710678 0.70710678 0.00000000
f 34/34/12 35/35/12 36/36/12
g pz_chair_seating_indoor_01_red_comfy__lower_body__body
v -0.43766000 0.41072667 0.33810000
v -0.43766000 0.41072667 0.07840000
v -0.43766000 -0.37663333 0.07840000
vt 0.223465513 0.230468750
vt 0.223465513 0.019531250
vt 0.026534487 0.019531250
vn -1.00000000 0.00000000 -0.00000000
f 37/37/13 38/38/13 39/39/13
g pz_chair_seating_indoor_01_red_comfy__lower_body__body
v -0.43766000 -0.37663333 0.07840000
v -0.43766000 -0.37663333 0.33810000
v -0.43766000 0.41072667 0.33810000
vt 0.026534487 0.019531250
vt 0.026534487 0.230468750
vt 0.223465513 0.230468750
vn -1.00000000 0.00000000 0.00000000
f 40/40/14 41/41/14 42/42/14
g pz_chair_seating_indoor_01_red_comfy__lower_body__body
v -0.43766000 -0.37663333 0.33810000
v -0.43766000 -0.37663333 0.07840000
v -0.40966000 -0.40463333 0.07840000
vt 0.026534487 0.230468750
vt 0.026534487 0.019531250
vt 0.019531250 0.019531250
vn -0.70710678 -0.70710678 -0.00000000
f 43/43/15 44/44/15 45/45/15
g pz_chair_seating_indoor_01_red_comfy__lower_body__body
v -0.40966000 -0.40463333 0.07840000
v -0.40966000 -0.40463333 0.33810000
v -0.43766000 -0.37663333 0.33810000
vt 0.019531250 0.019531250
vt 0.019531250 0.230468750
vt 0.026534487 0.230468750
vn -0.70710678 -0.70710678 0.00000000
f 46/46/16 47/47/16 48/48/16
g pz_chair_seating_indoor_01_red_comfy__rear_body_bridge__body
v -0.43766000 -0.37103333 0.07840000
v -0.43766000 -0.37103333 0.44100000
v 0.44266000 -0.37103333 0.44100000
vt 0.519531250 0.269531250
vt 0.519531250 0.480468750
vt 0.730468750 0.480468750
vn 0.00000000 1.00000000 0.00000000
f 49/49/17 50/50/17 51/51/17
g pz_chair_seating_indoor_01_red_comfy__rear_body_bridge__body
v 0.44266000 -0.37103333 0.44100000
v 0.44266000 -0.37103333 0.07840000
v -0.43766000 -0.37103333 0.07840000
vt 0.730468750 0.480468750
vt 0.730468750 0.269531250
vt 0.519531250 0.269531250
vn 0.00000000 1.00000000 0.00000000
f 52/52/18 53/53/18 54/54/18
g pz_chair_seating_indoor_01_red_comfy__rear_body_bridge__body
v -0.43766000 -0.42703333 0.44100000
v -0.43766000 -0.42703333 0.07840000
v 0.44266000 -0.42703333 0.07840000
vt 0.769531250 0.480468750
vt 0.769531250 0.269531250
vt 0.980468750 0.269531250
vn 0.00000000 -1.00000000 0.00000000
f 55/55/19 56/56/19 57/57/19
g pz_chair_seating_indoor_01_red_comfy__rear_body_bridge__body
v 0.44266000 -0.42703333 0.07840000
v 0.44266000 -0.42703333 0.44100000
v -0.43766000 -0.42703333 0.44100000
vt 0.980468750 0.269531250
vt 0.980468750 0.480468750
vt 0.769531250 0.480468750
vn 0.00000000 -1.00000000 0.00000000
f 58/58/20 59/59/20 60/60/20
g pz_chair_seating_indoor_01_red_comfy__rear_body_bridge__body
v 0.44266000 -0.42703333 0.07840000
v 0.44266000 -0.37103333 0.07840000
v 0.44266000 -0.37103333 0.44100000
vt 0.019531250 0.019531250
vt 0.230468750 0.019531250
vt 0.230468750 0.230468750
vn 1.00000000 0.00000000 0.00000000
f 61/61/21 62/62/21 63/63/21
g pz_chair_seating_indoor_01_red_comfy__rear_body_bridge__body
v 0.44266000 -0.37103333 0.44100000
v 0.44266000 -0.42703333 0.44100000
v 0.44266000 -0.42703333 0.07840000
vt 0.230468750 0.230468750
vt 0.019531250 0.230468750
vt 0.019531250 0.019531250
vn 1.00000000 0.00000000 0.00000000
f 64/64/22 65/65/22 66/66/22
g pz_chair_seating_indoor_01_red_comfy__rear_body_bridge__body
v 0.44266000 -0.42703333 0.44100000
v 0.44266000 -0.37103333 0.44100000
v -0.43766000 -0.37103333 0.44100000
vt 0.230468750 0.019531250
vt 0.230468750 0.230468750
vt 0.019531250 0.230468750
vn 0.00000000 -0.00000000 1.00000000
f 67/67/23 68/68/23 69/69/23
g pz_chair_seating_indoor_01_red_comfy__rear_body_bridge__body
v -0.43766000 -0.37103333 0.44100000
v -0.43766000 -0.42703333 0.44100000
v 0.44266000 -0.42703333 0.44100000
vt 0.019531250 0.230468750
vt 0.019531250 0.019531250
vt 0.230468750 0.019531250
vn 0.00000000 0.00000000 1.00000000
f 70/70/24 71/71/24 72/72/24
g pz_chair_seating_indoor_01_red_comfy__rear_body_bridge__body
v -0.43766000 -0.42703333 0.44100000
v -0.43766000 -0.37103333 0.44100000
v -0.43766000 -0.37103333 0.07840000
vt 0.019531250 0.230468750
vt 0.230468750 0.230468750
vt 0.230468750 0.019531250
vn -1.00000000 0.00000000 0.00000000
f 73/73/25 74/74/25 75/75/25
g pz_chair_seating_indoor_01_red_comfy__rear_body_bridge__body
v -0.43766000 -0.37103333 0.07840000
v -0.43766000 -0.42703333 0.07840000
v -0.43766000 -0.42703333 0.44100000
vt 0.230468750 0.019531250
vt 0.019531250 0.019531250
vt 0.019531250 0.230468750
vn -1.00000000 0.00000000 0.00000000
f 76/76/26 77/77/26 78/78/26
g pz_chair_seating_indoor_01_red_comfy__seat_0__seat
v -0.30981200 -0.21643133 0.42630000
v -0.29234000 -0.23390333 0.42630000
v 0.29734000 -0.23390333 0.42630000
vt 0.022167969 0.777698431
vt 0.027920810 0.772167969
vt 0.222079190 0.772167969
vn 0.00000000 0.00000000 1.00000000
f 79/79/27 80/80/27 81/81/27
g pz_chair_seating_indoor_01_red_comfy__seat_0__seat
v -0.30981200 -0.21643133 0.42630000
v 0.29734000 -0.23390333 0.42630000
v 0.31481200 -0.21643133 0.42630000
vt 0.022167969 0.777698431
vt 0.222079190 0.772167969
vt 0.227832031 0.777698431
vn -0.00000000 0.00000000 1.00000000
f 82/82/28 83/83/28 84/84/28
g pz_chair_seating_indoor_01_red_comfy__seat_0__seat
v -0.30981200 -0.21643133 0.42630000
v 0.31481200 -0.21643133 0.42630000
v 0.31481200 0.39836467 0.42630000
vt 0.022167969 0.777698431
vt 0.227832031 0.777698431
vt 0.227832031 0.972301569
vn 0.00000000 0.00000000 1.00000000
f 85/85/29 86/86/29 87/87/29
g pz_chair_seating_indoor_01_red_comfy__seat_0__seat
v -0.30981200 -0.21643133 0.42630000
v 0.31481200 0.39836467 0.42630000
v 0.29734000 0.41583667 0.42630000
vt 0.022167969 0.777698431
vt 0.227832031 0.972301569
vt 0.222079190 0.977832031
vn 0.00000000 0.00000000 1.00000000
f 88/88/30 89/89/30 90/90/30
g pz_chair_seating_indoor_01_red_comfy__seat_0__seat
v -0.30981200 -0.21643133 0.42630000
v 0.29734000 0.41583667 0.42630000
v -0.29234000 0.41583667 0.42630000
vt 0.022167969 0.777698431
vt 0.222079190 0.977832031
vt 0.027920810 0.977832031
vn 0.00000000 0.00000000 1.00000000
f 91/91/31 92/92/31 93/93/31
g pz_chair_seating_indoor_01_red_comfy__seat_0__seat
v -0.29234000 0.41583667 0.42630000
v -0.30981200 0.39836467 0.42630000
v -0.30981200 -0.21643133 0.42630000
vt 0.027920810 0.977832031
vt 0.022167969 0.972301569
vt 0.022167969 0.777698431
vn 0.00000000 0.00000000 1.00000000
f 94/94/32 95/95/32 96/96/32
g pz_chair_seating_indoor_01_red_comfy__seat_0__seat
v -0.29234000 -0.23390333 0.42630000
v -0.29990000 -0.24223333 0.32830000
v 0.30490000 -0.24223333 0.32830000
vt 0.277920810 0.980468750
vt 0.275431600 0.769531250
vt 0.474568400 0.769531250
vn 0.00000000 -0.99640696 0.08469459
f 97/97/33 98/98/33 99/99/33
g pz_chair_seating_indoor_01_red_comfy__seat_0__seat
v 0.30490000 -0.24223333 0.32830000
v 0.29734000 -0.23390333 0.42630000
v -0.29234000 -0.23390333 0.42630000
vt 0.474568400 0.769531250
vt 0.472079190 0.980468750
vt 0.277920810 0.980468750
vn 0.00000000 -0.99640696 0.08469459
f 100/100/34 101/101/34 102/102/34
g pz_chair_seating_indoor_01_red_comfy__seat_0__seat
v 0.29734000 -0.23390333 0.42630000
v 0.30490000 -0.24223333 0.32830000
v 0.32282000 -0.22431333 0.32830000
vt 0.522167969 0.980468750
vt 0.519531250 0.769531250
vt 0.525203519 0.769531250
vn 0.70250459 -0.70250459 0.11390610
f 103/103/35 104/104/35 105/105/35
g pz_chair_seating_indoor_01_red_comfy__seat_0__seat
v 0.32282000 -0.22431333 0.32830000
v 0.31481200 -0.21643133 0.42630000
v 0.29734000 -0.23390333 0.42630000
vt 0.480468750 0.769531250
vt 0.477832031 0.980468750
vt 0.472079190 0.980468750
vn 0.70250459 -0.70250459 0.11390610
f 106/106/36 107/107/36 108/108/36
g pz_chair_seating_indoor_01_red_comfy__seat_0__seat
v 0.31481200 -0.21643133 0.42630000
v 0.32282000 -0.22431333 0.32830000
v 0.32282000 0.40624667 0.32830000
vt 0.527698431 0.980468750
vt 0.525203519 0.769531250
vt 0.724796481 0.769531250
vn 0.99667801 0.00000000 0.08144283
f 109/109/37 110/110/37 111/111/37
g pz_chair_seating_indoor_01_red_comfy__seat_0__seat
v 0.32282000 0.40624667 0.32830000
v 0.31481200 0.39836467 0.42630000
v 0.31481200 -0.21643133 0.42630000
vt 0.724796481 0.769531250
vt 0.722301569 0.980468750
vt 0.527698431 0.980468750
vn 0.99667801 0.00000000 0.08144283
f 112/112/38 113/113/38 114/114/38
g pz_chair_seating_indoor_01_red_comfy__seat_0__seat
v 0.31481200 0.39836467 0.42630000
v 0.32282000 0.40624667 0.32830000
v 0.30490000 0.42416667 0.32830000
vt 0.722301569 0.980468750
vt 0.724796481 0.769531250
vt 0.730468750 0.769531250
vn 0.70250459 0.70250459 0.11390610
f 115/115/39 116/116/39 117/117/39
g pz_chair_seating_indoor_01_red_comfy__seat_0__seat
v 0.30490000 0.42416667 0.32830000
v 0.29734000 0.41583667 0.42630000
v 0.31481200 0.39836467 0.42630000
vt 0.730468750 0.769531250
vt 0.727832031 0.980468750
vt 0.722301569 0.980468750
vn 0.70250459 0.70250459 0.11390610
f 118/118/40 119/119/40 120/120/40
g pz_chair_seating_indoor_01_red_comfy__seat_0__seat
v 0.29734000 0.41583667 0.42630000
v 0.30490000 0.42416667 0.32830000
v -0.29990000 0.42416667 0.32830000
vt 0.472079190 0.980468750
vt 0.474568400 0.769531250
vt 0.275431600 0.769531250
vn 0.00000000 0.99640696 0.08469459
f 121/121/41 122/122/41 123/123/41
g pz_chair_seating_indoor_01_red_comfy__seat_0__seat
v -0.29990000 0.42416667 0.32830000
v -0.29234000 0.41583667 0.42630000
v 0.29734000 0.41583667 0.42630000
vt 0.275431600 0.769531250
vt 0.277920810 0.980468750
vt 0.472079190 0.980468750
vn 0.00000000 0.99640696 0.08469459
f 124/124/42 125/125/42 126/126/42
g pz_chair_seating_indoor_01_red_comfy__seat_0__seat
v -0.29234000 0.41583667 0.42630000
v -0.29990000 0.42416667 0.32830000
v -0.31782000 0.40624667 0.32830000
vt 0.727832031 0.980468750
vt 0.730468750 0.769531250
vt 0.724796481 0.769531250
vn -0.70250459 0.70250459 0.11390610
f 127/127/43 128/128/43 129/129/43
g pz_chair_seating_indoor_01_red_comfy__seat_0__seat
v -0.31782000 0.40624667 0.32830000
v -0.30981200 0.39836467 0.42630000
v -0.29234000 0.41583667 0.42630000
vt 0.724796481 0.769531250
vt 0.722301569 0.980468750
vt 0.727832031 0.980468750
vn -0.70250459 0.70250459 0.11390610
f 130/130/44 131/131/44 132/132/44
g pz_chair_seating_indoor_01_red_comfy__seat_0__seat
v -0.30981200 0.39836467 0.42630000
v -0.31782000 0.40624667 0.32830000
v -0.31782000 -0.22431333 0.32830000
vt 0.722301569 0.980468750
vt 0.724796481 0.769531250
vt 0.525203519 0.769531250
vn -0.99667801 0.00000000 0.08144283
f 133/133/45 134/134/45 135/135/45
g pz_chair_seating_indoor_01_red_comfy__seat_0__seat
v -0.31782000 -0.22431333 0.32830000
v -0.30981200 -0.21643133 0.42630000
v -0.30981200 0.39836467 0.42630000
vt 0.525203519 0.769531250
vt 0.527698431 0.980468750
vt 0.722301569 0.980468750
vn -0.99667801 0.00000000 0.08144283
f 136/136/46 137/137/46 138/138/46
g pz_chair_seating_indoor_01_red_comfy__seat_0__seat
v -0.30981200 -0.21643133 0.42630000
v -0.31782000 -0.22431333 0.32830000
v -0.29990000 -0.24223333 0.32830000
vt 0.527698431 0.980468750
vt 0.525203519 0.769531250
vt 0.519531250 0.769531250
vn -0.70250459 -0.70250459 0.11390610
f 139/139/47 140/140/47 141/141/47
g pz_chair_seating_indoor_01_red_comfy__seat_0__seat
v -0.29990000 -0.24223333 0.32830000
v -0.29234000 -0.23390333 0.42630000
v -0.30981200 -0.21643133 0.42630000
vt 0.519531250 0.769531250
vt 0.522167969 0.980468750
vt 0.527698431 0.980468750
vn -0.70250459 -0.70250459 0.11390610
f 142/142/48 143/143/48 144/144/48
g pz_chair_seating_indoor_01_red_comfy__rear_shell__back
v -0.41414000 -0.34774438 0.39370181
v -0.41414000 -0.37390469 0.64803819
v -0.37995415 -0.37680133 0.67620000
vt 0.774399038 0.797458981
vt 0.774399038 0.952541019
vt 0.782653477 0.969712730
vn 0.00000000 0.99475181 0.10231733
f 145/145/49 146/146/49 147/147/49
g pz_chair_seating_indoor_01_red_comfy__rear_shell__back
v -0.41414000 -0.34774438 0.39370181
v -0.37995415 -0.37680133 0.67620000
v 0.38495415 -0.37680133 0.67620000
vt 0.774399038 0.797458981
vt 0.782653477 0.969712730
vt 0.967346523 0.969712730
vn 0.00000000 0.99475181 0.10231733
f 148/148/50 149/149/50 150/150/50
g pz_chair_seating_indoor_01_red_comfy__rear_shell__back
v -0.41414000 -0.34774438 0.39370181
v 0.38495415 -0.37680133 0.67620000
v 0.41914000 -0.37390469 0.64803819
vt 0.774399038 0.797458981
vt 0.967346523 0.969712730
vt 0.975600962 0.952541019
vn -0.00000000 0.99475181 0.10231733
f 151/151/51 152/152/51 153/153/51
g pz_chair_seating_indoor_01_red_comfy__rear_shell__back
v -0.41414000 -0.34774438 0.39370181
v 0.41914000 -0.37390469 0.64803819
v 0.41914000 -0.34774438 0.39370181
vt 0.774399038 0.797458981
vt 0.975600962 0.952541019
vt 0.975600962 0.797458981
vn -0.00000000 0.99475181 0.10231733
f 154/154/52 155/155/52 156/156/52
g pz_chair_seating_indoor_01_red_comfy__rear_shell__back
v -0.41414000 -0.34774438 0.39370181
v 0.41914000 -0.34774438 0.39370181
v 0.38495415 -0.34484773 0.36554000
vt 0.774399038 0.797458981
vt 0.975600962 0.797458981
vt 0.967346523 0.780287270
vn -0.00000000 0.99475181 0.10231733
f 157/157/53 158/158/53 159/159/53
g pz_chair_seating_indoor_01_red_comfy__rear_shell__back
v 0.38495415 -0.34484773 0.36554000
v -0.37995415 -0.34484773 0.36554000
v -0.41414000 -0.34774438 0.39370181
vt 0.967346523 0.780287270
vt 0.782653477 0.780287270
vt 0.774399038 0.797458981
vn 0.00000000 0.99475181 0.10231733
f 160/160/54 161/161/54 162/162/54
g pz_chair_seating_indoor_01_red_comfy__rear_shell__back
v -0.43430000 -0.45939013 0.66248000
v -0.43430000 -0.43025893 0.37926000
v -0.39846000 -0.42703333 0.34790000
vt 0.019531250 0.711346937
vt 0.019531250 0.538653063
vt 0.028185096 0.519531250
vn -0.00000000 -0.99475181 -0.10231733
f 163/163/55 164/164/55 165/165/55
g pz_chair_seating_indoor_01_red_comfy__rear_shell__back
v -0.43430000 -0.45939013 0.66248000
v -0.39846000 -0.42703333 0.34790000
v 0.40346000 -0.42703333 0.34790000
vt 0.019531250 0.711346937
vt 0.028185096 0.519531250
vt 0.221814904 0.519531250
vn 0.00000000 -0.99475181 -0.10231733
f 166/166/56 167/167/56 168/168/56
g pz_chair_seating_indoor_01_red_comfy__rear_shell__back
v -0.43430000 -0.45939013 0.66248000
v 0.40346000 -0.42703333 0.34790000
v 0.43930000 -0.43025893 0.37926000
vt 0.019531250 0.711346937
vt 0.221814904 0.519531250
vt 0.230468750 0.538653063
vn 0.00000000 -0.99475181 -0.10231733
f 169/169/57 170/170/57 171/171/57
g pz_chair_seating_indoor_01_red_comfy__rear_shell__back
v -0.43430000 -0.45939013 0.66248000
v 0.43930000 -0.43025893 0.37926000
v 0.43930000 -0.45939013 0.66248000
vt 0.019531250 0.711346937
vt 0.230468750 0.538653063
vt 0.230468750 0.711346937
vn 0.00000000 -0.99475181 -0.10231733
f 172/172/58 173/173/58 174/174/58
g pz_chair_seating_indoor_01_red_comfy__rear_shell__back
v -0.43430000 -0.45939013 0.66248000
v 0.43930000 -0.45939013 0.66248000
v 0.40346000 -0.46261573 0.69384000
vt 0.019531250 0.711346937
vt 0.230468750 0.711346937
vt 0.221814904 0.730468750
vn 0.00000000 -0.99475181 -0.10231733
f 175/175/59 176/176/59 177/177/59
g pz_chair_seating_indoor_01_red_comfy__rear_shell__back
v 0.40346000 -0.46261573 0.69384000
v -0.39846000 -0.46261573 0.69384000
v -0.43430000 -0.45939013 0.66248000
vt 0.221814904 0.730468750
vt 0.028185096 0.730468750
vt 0.019531250 0.711346937
vn -0.00000000 -0.99475181 -0.10231733
f 178/178/60 179/179/60 180/180/60
g pz_chair_seating_indoor_01_red_comfy__rear_shell__back
v -0.43430000 -0.36641893 0.37926000
v -0.41414000 -0.34774438 0.39370181
v -0.37995415 -0.34484773 0.36554000
vt 0.769531250 0.788653063
vt 0.774399038 0.797458981
vt 0.782653477 0.780287270
vn -0.42489515 0.79438175 -0.43407573
f 181/181/61 182/182/61 183/183/61
g pz_chair_seating_indoor_01_red_comfy__rear_shell__back
v -0.37995415 -0.34484773 0.36554000
v -0.39846000 -0.36319333 0.34790000
v -0.43430000 -0.36641893 0.37926000
vt 0.782653477 0.780287270
vt 0.778185096 0.769531250
vt 0.769531250 0.788653063
vn -0.42361271 0.81246746 -0.40056073
f 184/184/62 185/185/62 186/186/62
g pz_chair_seating_indoor_01_red_comfy__rear_shell__back
v -0.43430000 -0.43025893 0.37926000
v -0.43430000 -0.36641893 0.37926000
v -0.39846000 -0.36319333 0.34790000
vt 0.269531250 0.577486403
vt 0.269531250 0.691831981
vt 0.278185096 0.697609442
vn -0.65850461 0.00000000 -0.75257669
f 187/187/63 188/188/63 189/189/63
g pz_chair_seating_indoor_01_red_comfy__rear_shell__back
v -0.39846000 -0.36319333 0.34790000
v -0.39846000 -0.42703333 0.34790000
v -0.43430000 -0.43025893 0.37926000
vt 0.278185096 0.697609442
vt 0.278185096 0.583263864
vt 0.269531250 0.577486403
vn -0.65850461 -0.00000000 -0.75257669
f 190/190/64 191/191/64 192/192/64
g pz_chair_seating_indoor_01_red_comfy__rear_shell__back
v -0.39846000 -0.36319333 0.34790000
v -0.37995415 -0.34484773 0.36554000
v 0.38495415 -0.34484773 0.36554000
vt 0.278185096 0.697609442
vt 0.282653477 0.730468750
vt 0.467346523 0.730468750
vn 0.00000000 0.69310872 -0.72083306
f 193/193/65 194/194/65 195/195/65
g pz_chair_seating_indoor_01_red_comfy__rear_shell__back
v 0.38495415 -0.34484773 0.36554000
v 0.40346000 -0.36319333 0.34790000
v -0.39846000 -0.36319333 0.34790000
vt 0.467346523 0.730468750
vt 0.471814904 0.697609442
vt 0.278185096 0.697609442
vn 0.00000000 0.69310872 -0.72083306
f 196/196/66 197/197/66 198/198/66
g pz_chair_seating_indoor_01_red_comfy__rear_shell__back
v 0.40346000 -0.36319333 0.34790000
v 0.38495415 -0.34484773 0.36554000
v 0.41914000 -0.34774438 0.39370181
vt 0.971814904 0.769531250
vt 0.967346523 0.780287270
vt 0.975600962 0.797458981
vn 0.41025491 0.81235318 -0.41445534
f 199/199/67 200/200/67 201/201/67
g pz_chair_seating_indoor_01_red_comfy__rear_shell__back
v 0.41914000 -0.34774438 0.39370181
v 0.43930000 -0.36641893 0.37926000
v 0.40346000 -0.36319333 0.34790000
vt 0.975600962 0.797458981
vt 0.980468750 0.788653063
vt 0.971814904 0.769531250
vn 0.43763801 0.79593089 -0.41829055
f 202/202/68 203/203/68 204/204/68
g pz_chair_seating_indoor_01_red_comfy__rear_shell__back
v 0.40346000 -0.42703333 0.34790000
v 0.40346000 -0.36319333 0.34790000
v 0.43930000 -0.36641893 0.37926000
vt 0.471814904 0.583263864
vt 0.471814904 0.697609442
vt 0.480468750 0.691831981
vn 0.65850461 0.00000000 -0.75257669
f 205/205/69 206/206/69 207/207/69
g pz_chair_seating_indoor_01_red_comfy__rear_shell__back
v 0.43930000 -0.36641893 0.37926000
v 0.43930000 -0.43025893 0.37926000
v 0.40346000 -0.42703333 0.34790000
vt 0.480468750 0.691831981
vt 0.480468750 0.577486403
vt 0.471814904 0.583263864
vn 0.65850461 0.00000000 -0.75257669
f 208/208/70 209/209/70 210/210/70
g pz_chair_seating_indoor_01_red_comfy__rear_shell__back
v 0.43930000 -0.36641893 0.37926000
v 0.41914000 -0.34774438 0.39370181
v 0.41914000 -0.37390469 0.64803819
vt 0.980468750 0.788653063
vt 0.975600962 0.797458981
vt 0.975600962 0.952541019
vn 0.70524394 0.70524394 0.07253938
f 211/211/71 212/212/71 213/213/71
g pz_chair_seating_indoor_01_red_comfy__rear_shell__back
v 0.41914000 -0.37390469 0.64803819
v 0.43930000 -0.39555013 0.66248000
v 0.43930000 -0.36641893 0.37926000
vt 0.975600962 0.952541019
vt 0.980468750 0.961346937
vt 0.980468750 0.788653063
vn 0.70524394 0.70524394 0.07253938
f 214/214/72 215/215/72 216/216/72
g pz_chair_seating_indoor_01_red_comfy__rear_shell__back
v 0.43930000 -0.43025893 0.37926000
v 0.43930000 -0.36641893 0.37926000
v 0.43930000 -0.39555013 0.66248000
vt 0.327486403 0.538653063
vt 0.441831981 0.538653063
vt 0.389654289 0.711346937
vn 1.00000000 0.00000000 0.00000000
f 217/217/73 218/218/73 219/219/73
g pz_chair_seating_indoor_01_red_comfy__rear_shell__back
v 0.43930000 -0.39555013 0.66248000
v 0.43930000 -0.45939013 0.66248000
v 0.43930000 -0.43025893 0.37926000
vt 0.389654289 0.711346937
vt 0.275308711 0.711346937
vt 0.327486403 0.538653063
vn 1.00000000 0.00000000 0.00000000
f 220/220/74 221/221/74 222/222/74
g pz_chair_seating_indoor_01_red_comfy__rear_shell__back
v 0.43930000 -0.39555013 0.66248000
v 0.41914000 -0.37390469 0.64803819
v 0.38495415 -0.37680133 0.67620000
vt 0.980468750 0.961346937
vt 0.975600962 0.952541019
vt 0.967346523 0.969712730
vn 0.39305527 0.73485407 0.55271787
f 223/223/75 224/224/75 225/225/75
g pz_chair_seating_indoor_01_red_comfy__rear_shell__back
v 0.38495415 -0.37680133 0.67620000
v 0.40346000 -0.39877573 0.69384000
v 0.43930000 -0.39555013 0.66248000
vt 0.967346523 0.969712730
vt 0.971814904 0.980468750
vt 0.980468750 0.961346937
vn 0.39300451 0.75376249 0.52667786
f 226/226/76 227/227/76 228/228/76
g pz_chair_seating_indoor_01_red_comfy__rear_shell__back
v 0.43930000 -0.45939013 0.66248000
v 0.43930000 -0.39555013 0.66248000
v 0.40346000 -0.39877573 0.69384000
vt 0.480468750 0.525308711
vt 0.480468750 0.639654289
vt 0.471814904 0.633876828
vn 0.65850461 -0.00000000 0.75257669
f 229/229/77 230/230/77 231/231/77
g pz_chair_seating_indoor_01_red_comfy__rear_shell__back
v 0.40346000 -0.39877573 0.69384000
v 0.40346000 -0.46261573 0.69384000
v 0.43930000 -0.45939013 0.66248000
vt 0.471814904 0.633876828
vt 0.471814904 0.519531250
vt 0.480468750 0.525308711
vn 0.65850461 0.00000000 0.75257669
f 232/232/78 233/233/78 234/234/78
g pz_chair_seating_indoor_01_red_comfy__rear_shell__back
v 0.40346000 -0.39877573 0.69384000
v 0.38495415 -0.37680133 0.67620000
v -0.37995415 -0.37680133 0.67620000
vt 0.471814904 0.633876828
vt 0.467346523 0.673235779
vt 0.282653477 0.673235779
vn 0.00000000 0.62600289 0.77982074
f 235/235/79 236/236/79 237/237/79
g pz_chair_seating_indoor_01_red_comfy__rear_shell__back
v -0.37995415 -0.37680133 0.67620000
v -0.39846000 -0.39877573 0.69384000
v 0.40346000 -0.39877573 0.69384000
vt 0.282653477 0.673235779
vt 0.278185096 0.633876828
vt 0.471814904 0.633876828
vn 0.00000000 0.62600289 0.77982074
f 238/238/80 239/239/80 240/240/80
g pz_chair_seating_indoor_01_red_comfy__rear_shell__back
v 0.40346000 -0.46261573 0.69384000
v 0.40346000 -0.39877573 0.69384000
v -0.39846000 -0.39877573 0.69384000
vt 0.471814904 0.519531250
vt 0.471814904 0.633876828
vt 0.278185096 0.633876828
vn 0.00000000 -0.00000000 1.00000000
f 241/241/81 242/242/81 243/243/81
g pz_chair_seating_indoor_01_red_comfy__rear_shell__back
v -0.39846000 -0.39877573 0.69384000
v -0.39846000 -0.46261573 0.69384000
v 0.40346000 -0.46261573 0.69384000
vt 0.278185096 0.633876828
vt 0.278185096 0.519531250
vt 0.471814904 0.519531250
vn 0.00000000 0.00000000 1.00000000
f 244/244/82 245/245/82 246/246/82
g pz_chair_seating_indoor_01_red_comfy__rear_shell__back
v -0.39846000 -0.39877573 0.69384000
v -0.37995415 -0.37680133 0.67620000
v -0.41414000 -0.37390469 0.64803819
vt 0.778185096 0.980468750
vt 0.782653477 0.969712730
vt 0.774399038 0.952541019
vn -0.37985783 0.75216336 0.53847778
f 247/247/83 248/248/83 249/249/83
g pz_chair_seating_indoor_01_red_comfy__rear_shell__back
v -0.41414000 -0.37390469 0.64803819
v -0.43430000 -0.39555013 0.66248000
v -0.39846000 -0.39877573 0.69384000
vt 0.774399038 0.952541019
vt 0.769531250 0.961346937
vt 0.778185096 0.980468750
vn -0.40567521 0.73780025 0.53951684
f 250/250/84 251/251/84 252/252/84
g pz_chair_seating_indoor_01_red_comfy__rear_shell__back
v -0.39846000 -0.46261573 0.69384000
v -0.39846000 -0.39877573 0.69384000
v -0.43430000 -0.39555013 0.66248000
vt 0.278185096 0.519531250
vt 0.278185096 0.633876828
vt 0.269531250 0.639654289
vn -0.65850461 0.00000000 0.75257669
f 253/253/85 254/254/85 255/255/85
g pz_chair_seating_indoor_01_red_comfy__rear_shell__back
v -0.43430000 -0.39555013 0.66248000
v -0.43430000 -0.45939013 0.66248000
v -0.39846000 -0.46261573 0.69384000
vt 0.269531250 0.639654289
vt 0.269531250 0.525308711
vt 0.278185096 0.519531250
vn -0.65850461 0.00000000 0.75257669
f 256/256/86 257/257/86 258/258/86
g pz_chair_seating_indoor_01_red_comfy__rear_shell__back
v -0.43430000 -0.39555013 0.66248000
v -0.41414000 -0.37390469 0.64803819
v -0.41414000 -0.34774438 0.39370181
vt 0.769531250 0.961346937
vt 0.774399038 0.952541019
vt 0.774399038 0.797458981
vn -0.70524394 0.70524394 0.07253938
f 259/259/87 260/260/87 261/261/87
g pz_chair_seating_indoor_01_red_comfy__rear_shell__back
v -0.41414000 -0.34774438 0.39370181
v -0.43430000 -0.36641893 0.37926000
v -0.43430000 -0.39555013 0.66248000
vt 0.774399038 0.797458981
vt 0.769531250 0.788653063
vt 0.769531250 0.961346937
vn -0.70524394 0.70524394 0.07253938
f 262/262/88 263/263/88 264/264/88
g pz_chair_seating_indoor_01_red_comfy__rear_shell__back
v -0.43430000 -0.45939013 0.66248000
v -0.43430000 -0.39555013 0.66248000
v -0.43430000 -0.36641893 0.37926000
vt 0.275308711 0.711346937
vt 0.389654289 0.711346937
vt 0.441831981 0.538653063
vn -1.00000000 0.00000000 0.00000000
f 265/265/89 266/266/89 267/267/89
g pz_chair_seating_indoor_01_red_comfy__rear_shell__back
v -0.43430000 -0.36641893 0.37926000
v -0.43430000 -0.43025893 0.37926000
v -0.43430000 -0.45939013 0.66248000
vt 0.441831981 0.538653063
vt 0.327486403 0.538653063
vt 0.275308711 0.711346937
vn -1.00000000 0.00000000 0.00000000
f 268/268/90 269/269/90 270/270/90
g pz_chair_seating_indoor_01_red_comfy__back_cushion_0__back
v -0.30550000 -0.23972747 0.44161374
v -0.30550000 -0.26680319 0.67852626
v -0.28725610 -0.26855333 0.69384000
vt 0.773941093 0.789152177
vt 0.773941093 0.960847823
vt 0.779927160 0.971946023
vn 0.00000000 0.99353267 0.11354659
f 271/271/91 272/272/91 273/273/91
g pz_chair_seating_indoor_01_red_comfy__back_cushion_0__back
v -0.30550000 -0.23972747 0.44161374
v -0.28725610 -0.26855333 0.69384000
v 0.29225610 -0.26855333 0.69384000
vt 0.773941093 0.789152177
vt 0.779927160 0.971946023
vt 0.970072840 0.971946023
vn 0.00000000 0.99353267 0.11354659
f 274/274/92 275/275/92 276/276/92
g pz_chair_seating_indoor_01_red_comfy__back_cushion_0__back
v -0.30550000 -0.23972747 0.44161374
v 0.29225610 -0.26855333 0.69384000
v 0.31050000 -0.26680319 0.67852626
vt 0.773941093 0.789152177
vt 0.970072840 0.971946023
vt 0.976058907 0.960847823
vn -0.00000000 0.99353267 0.11354659
f 277/277/93 278/278/93 279/279/93
g pz_chair_seating_indoor_01_red_comfy__back_cushion_0__back
v -0.30550000 -0.23972747 0.44161374
v 0.31050000 -0.26680319 0.67852626
v 0.31050000 -0.23972747 0.44161374
vt 0.773941093 0.789152177
vt 0.976058907 0.960847823
vt 0.976058907 0.789152177
vn -0.00000000 0.99353267 0.11354659
f 280/280/94 281/281/94 282/282/94
g pz_chair_seating_indoor_01_red_comfy__back_cushion_0__back
v -0.30550000 -0.23972747 0.44161374
v 0.31050000 -0.23972747 0.44161374
v 0.29225610 -0.23797733 0.42630000
vt 0.773941093 0.789152177
vt 0.976058907 0.789152177
vt 0.970072840 0.778053977
vn -0.00000000 0.99353267 0.11354659
f 283/283/95 284/284/95 285/285/95
g pz_chair_seating_indoor_01_red_comfy__back_cushion_0__back
v 0.29225610 -0.23797733 0.42630000
v -0.28725610 -0.23797733 0.42630000
v -0.30550000 -0.23972747 0.44161374
vt 0.970072840 0.778053977
vt 0.779927160 0.778053977
vt 0.773941093 0.789152177
vn 0.00000000 0.99353267 0.11354659
f 286/286/96 287/287/96 288/288/96
g pz_chair_seating_indoor_01_red_comfy__back_cushion_0__back
v -0.31894000 -0.25197733 0.43120000
v -0.30550000 -0.23972747 0.44161374
v -0.28725610 -0.23797733 0.42630000
vt 0.769531250 0.781605114
vt 0.773941093 0.789152177
vt 0.779927160 0.778053977
vn -0.42099371 0.80960867 -0.40902090
f 289/289/97 290/290/97 291/291/97
g pz_chair_seating_indoor_01_red_comfy__back_cushion_0__back
v -0.28725610 -0.23797733 0.42630000
v -0.29990000 -0.25007333 0.41454000
v -0.31894000 -0.25197733 0.43120000
vt 0.779927160 0.778053977
vt 0.775778528 0.769531250
vt 0.769531250 0.781605114
vn -0.42201541 0.81903339 -0.38869951
f 292/292/98 293/293/98 294/294/98
g pz_chair_seating_indoor_01_red_comfy__back_cushion_0__back
v -0.31894000 -0.34493733 0.43120000
v -0.31894000 -0.25197733 0.43120000
v -0.29990000 -0.25007333 0.41454000
vt 0.269531250 0.567355137
vt 0.269531250 0.709118801
vt 0.275778528 0.712022394
vn -0.65850461 0.00000000 -0.75257669
f 295/295/99 296/296/99 297/297/99
g pz_chair_seating_indoor_01_red_comfy__back_cushion_0__back
v -0.29990000 -0.25007333 0.41454000
v -0.29990000 -0.34303333 0.41454000
v -0.31894000 -0.34493733 0.43120000
vt 0.275778528 0.712022394
vt 0.275778528 0.570258730
vt 0.269531250 0.567355137
vn -0.65850461 -0.00000000 -0.75257669
f 298/298/100 299/299/100 300/300/100
g pz_chair_seating_indoor_01_red_comfy__back_cushion_0__back
v -0.29990000 -0.25007333 0.41454000
v -0.28725610 -0.23797733 0.42630000
v 0.29225610 -0.23797733 0.42630000
vt 0.275778528 0.712022394
vt 0.279927160 0.730468750
vt 0.470072840 0.730468750
vn 0.00000000 0.69707839 -0.71699492
f 301/301/101 302/302/101 303/303/101
g pz_chair_seating_indoor_01_red_comfy__back_cushion_0__back
v 0.29225610 -0.23797733 0.42630000
v 0.30490000 -0.25007333 0.41454000
v -0.29990000 -0.25007333 0.41454000
vt 0.470072840 0.730468750
vt 0.474221472 0.712022394
vt 0.275778528 0.712022394
vn 0.00000000 0.69707839 -0.71699492
f 304/304/102 305/305/102 306/306/102
g pz_chair_seating_indoor_01_red_comfy__back_cushion_0__back
v 0.30490000 -0.25007333 0.41454000
v 0.29225610 -0.23797733 0.42630000
v 0.31050000 -0.23972747 0.44161374
vt 0.974221472 0.769531250
vt 0.970072840 0.778053977
vt 0.976058907 0.789152177
vn 0.41296665 0.81899175 -0.39838556
f 307/307/103 308/308/103 309/309/103
g pz_chair_seating_indoor_01_red_comfy__back_cushion_0__back
v 0.31050000 -0.23972747 0.44161374
v 0.32394000 -0.25197733 0.43120000
v 0.30490000 -0.25007333 0.41454000
vt 0.976058907 0.789152177
vt 0.980468750 0.781605114
vt 0.974221472 0.769531250
vn 0.42972687 0.81025942 -0.39851535
f 310/310/104 311/311/104 312/312/104
g pz_chair_seating_indoor_01_red_comfy__back_cushion_0__back
v 0.30490000 -0.34303333 0.41454000
v 0.30490000 -0.25007333 0.41454000
v 0.32394000 -0.25197733 0.43120000
vt 0.474221472 0.570258730
vt 0.474221472 0.712022394
vt 0.480468750 0.709118801
vn 0.65850461 0.00000000 -0.75257669
f 313/313/105 314/314/105 315/315/105
g pz_chair_seating_indoor_01_red_comfy__back_cushion_0__back
v 0.32394000 -0.25197733 0.43120000
v 0.32394000 -0.34493733 0.43120000
v 0.30490000 -0.34303333 0.41454000
vt 0.480468750 0.709118801
vt 0.480468750 0.567355137
vt 0.474221472 0.570258730
vn 0.65850461 0.00000000 -0.75257669
f 316/316/106 317/317/106 318/318/106
g pz_chair_seating_indoor_01_red_comfy__back_cushion_0__back
v 0.32394000 -0.25197733 0.43120000
v 0.31050000 -0.23972747 0.44161374
v 0.31050000 -0.26680319 0.67852626
vt 0.459118801 0.531605114
vt 0.477799793 0.539152177
vt 0.436509418 0.710847823
vn 0.70480911 0.70480911 0.08054961
f 319/319/107 320/320/107 321/321/107
g pz_chair_seating_indoor_01_red_comfy__back_cushion_0__back
v 0.31050000 -0.26680319 0.67852626
v 0.32394000 -0.28143333 0.68894000
v 0.32394000 -0.25197733 0.43120000
vt 0.976058907 0.960847823
vt 0.980468750 0.968394886
vt 0.980468750 0.781605114
vn 0.70480911 0.70480911 0.08054961
f 322/322/108 323/323/108 324/324/108
g pz_chair_seating_indoor_01_red_comfy__back_cushion_0__back
v 0.32394000 -0.34493733 0.43120000
v 0.32394000 -0.25197733 0.43120000
v 0.32394000 -0.28143333 0.68894000
vt 0.317355137 0.531605114
vt 0.459118801 0.531605114
vt 0.414198507 0.718394886
vn 1.00000000 0.00000000 0.00000000
f 325/325/109 326/326/109 327/327/109
g pz_chair_seating_indoor_01_red_comfy__back_cushion_0__back
v 0.32394000 -0.28143333 0.68894000
v 0.32394000 -0.37439333 0.68894000
v 0.32394000 -0.34493733 0.43120000
vt 0.414198507 0.718394886
vt 0.272434843 0.718394886
vt 0.317355137 0.531605114
vn 1.00000000 0.00000000 0.00000000
f 328/328/110 329/329/110 330/330/110
g pz_chair_seating_indoor_01_red_comfy__back_cushion_0__back
v 0.32394000 -0.28143333 0.68894000
v 0.31050000 -0.26680319 0.67852626
v 0.29225610 -0.26855333 0.69384000
vt 0.980468750 0.968394886
vt 0.976058907 0.960847823
vt 0.970072840 0.971946023
vn 0.38663549 0.74353473 0.54559060
f 331/331/111 332/332/111 333/333/111
g pz_chair_seating_indoor_01_red_comfy__back_cushion_0__back
v 0.29225610 -0.26855333 0.69384000
v 0.30490000 -0.28333733 0.70560000
v 0.32394000 -0.28143333 0.68894000
vt 0.970072840 0.971946023
vt 0.974221472 0.980468750
vt 0.980468750 0.968394886
vn 0.38840095 0.75379556 0.53003486
f 334/334/112 335/335/112 336/336/112
g pz_chair_seating_indoor_01_red_comfy__back_cushion_0__back
v 0.32394000 -0.37439333 0.68894000
v 0.32394000 -0.28143333 0.68894000
v 0.30490000 -0.28333733 0.70560000
vt 0.480468750 0.522434843
vt 0.480468750 0.664198507
vt 0.474221472 0.661294914
vn 0.65850461 -0.00000000 0.75257669
f 337/337/113 338/338/113 339/339/113
g pz_chair_seating_indoor_01_red_comfy__back_cushion_0__back
v 0.30490000 -0.28333733 0.70560000
v 0.30490000 -0.37629733 0.70560000
v 0.32394000 -0.37439333 0.68894000
vt 0.474221472 0.661294914
vt 0.474221472 0.519531250
vt 0.480468750 0.522434843
vn 0.65850461 0.00000000 0.75257669
f 340/340/114 341/341/114 342/342/114
g pz_chair_seating_indoor_01_red_comfy__back_cushion_0__back
v 0.30490000 -0.28333733 0.70560000
v 0.29225610 -0.26855333 0.69384000
v -0.28725610 -0.26855333 0.69384000
vt 0.474221472 0.661294914
vt 0.470072840 0.683840461
vt 0.279927160 0.683840461
vn 0.00000000 0.62252357 0.78260105
f 343/343/115 344/344/115 345/345/115
g pz_chair_seating_indoor_01_red_comfy__back_cushion_0__back
v -0.28725610 -0.26855333 0.69384000
v -0.29990000 -0.28333733 0.70560000
v 0.30490000 -0.28333733 0.70560000
vt 0.279927160 0.683840461
vt 0.275778528 0.661294914
vt 0.474221472 0.661294914
vn 0.00000000 0.62252357 0.78260105
f 346/346/116 347/347/116 348/348/116
g pz_chair_seating_indoor_01_red_comfy__back_cushion_0__back
v 0.30490000 -0.37629733 0.70560000
v 0.30490000 -0.28333733 0.70560000
v -0.29990000 -0.28333733 0.70560000
vt 0.474221472 0.519531250
vt 0.474221472 0.661294914
vt 0.275778528 0.661294914
vn 0.00000000 -0.00000000 1.00000000
f 349/349/117 350/350/117 351/351/117
g pz_chair_seating_indoor_01_red_comfy__back_cushion_0__back
v -0.29990000 -0.28333733 0.70560000
v -0.29990000 -0.37629733 0.70560000
v 0.30490000 -0.37629733 0.70560000
vt 0.275778528 0.661294914
vt 0.275778528 0.519531250
vt 0.474221472 0.519531250
vn 0.00000000 0.00000000 1.00000000
f 352/352/118 353/353/118 354/354/118
g pz_chair_seating_indoor_01_red_comfy__back_cushion_0__back
v -0.29990000 -0.28333733 0.70560000
v -0.28725610 -0.26855333 0.69384000
v -0.30550000 -0.26680319 0.67852626
vt 0.775778528 0.980468750
vt 0.779927160 0.971946023
vt 0.773941093 0.960847823
vn -0.37949230 0.75260572 0.53811729
f 355/355/119 356/356/119 357/357/119
g pz_chair_seating_indoor_01_red_comfy__back_cushion_0__back
v -0.30550000 -0.26680319 0.67852626
v -0.31894000 -0.28143333 0.68894000
v -0.29990000 -0.28333733 0.70560000
vt 0.773941093 0.960847823
vt 0.769531250 0.968394886
vt 0.775778528 0.980468750
vn -0.39527560 0.74530080 0.53692078
f 358/358/120 359/359/120 360/360/120
g pz_chair_seating_indoor_01_red_comfy__back_cushion_0__back
v -0.29990000 -0.37629733 0.70560000
v -0.29990000 -0.28333733 0.70560000
v -0.31894000 -0.28143333 0.68894000
vt 0.275778528 0.519531250
vt 0.275778528 0.661294914
vt 0.269531250 0.664198507
vn -0.65850461 0.00000000 0.75257669
f 361/361/121 362/362/121 363/363/121
g pz_chair_seating_indoor_01_red_comfy__back_cushion_0__back
v -0.31894000 -0.28143333 0.68894000
v -0.31894000 -0.37439333 0.68894000
v -0.29990000 -0.37629733 0.70560000
vt 0.269531250 0.664198507
vt 0.269531250 0.522434843
vt 0.275778528 0.519531250
vn -0.65850461 0.00000000 0.75257669
f 364/364/122 365/365/122 366/366/122
g pz_chair_seating_indoor_01_red_comfy__back_cushion_0__back
v -0.31894000 -0.28143333 0.68894000
v -0.30550000 -0.26680319 0.67852626
v -0.30550000 -0.23972747 0.44161374
vt 0.769531250 0.968394886
vt 0.773941093 0.960847823
vt 0.773941093 0.789152177
vn -0.70480911 0.70480911 0.08054961
f 367/367/123 368/368/123 369/369/123
g pz_chair_seating_indoor_01_red_comfy__back_cushion_0__back
v -0.30550000 -0.23972747 0.44161374
v -0.31894000 -0.25197733 0.43120000
v -0.31894000 -0.28143333 0.68894000
vt 0.477799793 0.539152177
vt 0.459118801 0.531605114
vt 0.414198507 0.718394886
vn -0.70480911 0.70480911 0.08054961
f 370/370/124 371/371/124 372/372/124
g pz_chair_seating_indoor_01_red_comfy__back_cushion_0__back
v -0.31894000 -0.37439333 0.68894000
v -0.31894000 -0.28143333 0.68894000
v -0.31894000 -0.25197733 0.43120000
vt 0.272434843 0.718394886
vt 0.414198507 0.718394886
vt 0.459118801 0.531605114
vn -1.00000000 0.00000000 0.00000000
f 373/373/125 374/374/125 375/375/125
g pz_chair_seating_indoor_01_red_comfy__back_cushion_0__back
v -0.31894000 -0.25197733 0.43120000
v -0.31894000 -0.34493733 0.43120000
v -0.31894000 -0.37439333 0.68894000
vt 0.459118801 0.531605114
vt 0.317355137 0.531605114
vt 0.272434843 0.718394886
vn -1.00000000 0.00000000 0.00000000
f 376/376/126 377/377/126 378/378/126
g pz_chair_seating_indoor_01_red_comfy__straight_arm_-1__arm
v -0.44886000 -0.42703333 0.09800000
v -0.44886000 -0.42703333 0.61740000
v -0.44886000 -0.39903333 0.64190000
vt 0.519531250 0.519531250
vt 0.519531250 0.720967061
vt 0.526469984 0.730468750
vn -1.00000000 0.00000000 0.00000000
f 379/379/127 380/380/127 381/381/127
g pz_chair_seating_indoor_01_red_comfy__straight_arm_-1__arm
v -0.44886000 -0.42703333 0.09800000
v -0.44886000 -0.39903333 0.64190000
v -0.44886000 0.39616667 0.59290000
vt 0.519531250 0.519531250
vt 0.526469984 0.730468750
vt 0.723530016 0.711465372
vn -1.00000000 0.00000000 0.00000000
f 382/382/128 383/383/128 384/384/128
g pz_chair_seating_indoor_01_red_comfy__straight_arm_-1__arm
v -0.44886000 -0.42703333 0.09800000
v -0.44886000 0.39616667 0.59290000
v -0.44886000 0.42416667 0.57526000
vt 0.519531250 0.519531250
vt 0.723530016 0.711465372
vt 0.730468750 0.704624155
vn -1.00000000 0.00000000 0.00000000
f 385/385/129 386/386/129 387/387/129
g pz_chair_seating_indoor_01_red_comfy__straight_arm_-1__arm
v -0.44886000 0.42416667 0.57526000
v -0.44886000 0.42416667 0.09800000
v -0.44886000 -0.42703333 0.09800000
vt 0.730468750 0.704624155
vt 0.730468750 0.519531250
vt 0.519531250 0.519531250
vn -1.00000000 0.00000000 -0.00000000
f 388/388/130 389/389/130 390/390/130
g pz_chair_seating_indoor_01_red_comfy__straight_arm_-1__arm
v -0.35030000 -0.42703333 0.61740000
v -0.35030000 -0.42703333 0.09800000
v -0.35030000 0.42416667 0.09800000
vt 0.769531250 0.720967061
vt 0.769531250 0.519531250
vt 0.980468750 0.519531250
vn 1.00000000 0.00000000 0.00000000
f 391/391/131 392/392/131 393/393/131
g pz_chair_seating_indoor_01_red_comfy__straight_arm_-1__arm
v -0.35030000 -0.42703333 0.61740000
v -0.35030000 0.42416667 0.09800000
v -0.35030000 0.42416667 0.57526000
vt 0.769531250 0.720967061
vt 0.980468750 0.519531250
vt 0.980468750 0.704624155
vn 1.00000000 0.00000000 0.00000000
f 394/394/132 395/395/132 396/396/132
g pz_chair_seating_indoor_01_red_comfy__straight_arm_-1__arm
v -0.35030000 -0.42703333 0.61740000
v -0.35030000 0.42416667 0.57526000
v -0.35030000 0.39616667 0.59290000
vt 0.769531250 0.720967061
vt 0.980468750 0.704624155
vt 0.973530016 0.711465372
vn 1.00000000 0.00000000 0.00000000
f 397/397/133 398/398/133 399/399/133
g pz_chair_seating_indoor_01_red_comfy__straight_arm_-1__arm
v -0.35030000 0.39616667 0.59290000
v -0.35030000 -0.39903333 0.64190000
v -0.35030000 -0.42703333 0.61740000
vt 0.973530016 0.711465372
vt 0.776469984 0.730468750
vt 0.769531250 0.720967061
vn 1.00000000 0.00000000 0.00000000
f 400/400/134 401/401/134 402/402/134
g pz_chair_seating_indoor_01_red_comfy__straight_arm_-1__arm
v -0.35030000 0.42416667 0.09800000
v -0.44886000 0.42416667 0.09800000
v -0.44886000 0.42416667 0.57526000
vt 0.480468750 0.269531250
vt 0.269531250 0.269531250
vt 0.269531250 0.454624155
vn 0.00000000 1.00000000 0.00000000
f 403/403/135 404/404/135 405/405/135
g pz_chair_seating_indoor_01_red_comfy__straight_arm_-1__arm
v -0.44886000 0.42416667 0.57526000
v -0.35030000 0.42416667 0.57526000
v -0.35030000 0.42416667 0.09800000
vt 0.269531250 0.454624155
vt 0.480468750 0.454624155
vt 0.480468750 0.269531250
vn -0.00000000 1.00000000 0.00000000
f 406/406/136 407/407/136 408/408/136
g pz_chair_seating_indoor_01_red_comfy__straight_arm_-1__arm
v -0.35030000 0.42416667 0.57526000
v -0.44886000 0.42416667 0.57526000
v -0.44886000 0.39616667 0.59290000
vt 0.230468750 0.480468750
vt 0.230468750 0.269531250
vt 0.223530016 0.269531250
vn 0.00000000 0.53303766 0.84609152
f 409/409/137 410/410/137 411/411/137
g pz_chair_seating_indoor_01_red_comfy__straight_arm_-1__arm
v -0.44886000 0.39616667 0.59290000
v -0.35030000 0.39616667 0.59290000
v -0.35030000 0.42416667 0.57526000
vt 0.223530016 0.269531250
vt 0.223530016 0.480468750
vt 0.230468750 0.480468750
vn -0.00000000 0.53303766 0.84609152
f 412/412/138 413/413/138 414/414/138
g pz_chair_seating_indoor_01_red_comfy__straight_arm_-1__arm
v -0.35030000 0.39616667 0.59290000
v -0.44886000 0.39616667 0.59290000
v -0.44886000 -0.39903333 0.64190000
vt 0.223530016 0.480468750
vt 0.223530016 0.269531250
vt 0.026469984 0.269531250
vn 0.00000000 0.06150307 0.99810689
f 415/415/139 416/416/139 417/417/139
g pz_chair_seating_indoor_01_red_comfy__straight_arm_-1__arm
v -0.44886000 -0.39903333 0.64190000
v -0.35030000 -0.39903333 0.64190000
v -0.35030000 0.39616667 0.59290000
vt 0.026469984 0.269531250
vt 0.026469984 0.480468750
vt 0.223530016 0.480468750
vn -0.00000000 0.06150307 0.99810689
f 418/418/140 419/419/140 420/420/140
g pz_chair_seating_indoor_01_red_comfy__straight_arm_-1__arm
v -0.35030000 -0.39903333 0.64190000
v -0.44886000 -0.39903333 0.64190000
v -0.44886000 -0.42703333 0.61740000
vt 0.026469984 0.480468750
vt 0.026469984 0.269531250
vt 0.019531250 0.269531250
vn 0.00000000 -0.65850461 0.75257669
f 421/421/141 422/422/141 423/423/141
g pz_chair_seating_indoor_01_red_comfy__straight_arm_-1__arm
v -0.44886000 -0.42703333 0.61740000
v -0.35030000 -0.42703333 0.61740000
v -0.35030000 -0.39903333 0.64190000
vt 0.019531250 0.269531250
vt 0.019531250 0.480468750
vt 0.026469984 0.480468750
vn 0.00000000 -0.65850461 0.75257669
f 424/424/142 425/425/142 426/426/142
g pz_chair_seating_indoor_01_red_comfy__straight_arm_-1__arm
v -0.35030000 -0.42703333 0.61740000
v -0.44886000 -0.42703333 0.61740000
v -0.44886000 -0.42703333 0.09800000
vt 0.480468750 0.470967061
vt 0.269531250 0.470967061
vt 0.269531250 0.269531250
vn -0.00000000 -1.00000000 0.00000000
f 427/427/143 428/428/143 429/429/143
g pz_chair_seating_indoor_01_red_comfy__straight_arm_-1__arm
v -0.44886000 -0.42703333 0.09800000
v -0.35030000 -0.42703333 0.09800000
v -0.35030000 -0.42703333 0.61740000
vt 0.269531250 0.269531250
vt 0.480468750 0.269531250
vt 0.480468750 0.470967061
vn 0.00000000 -1.00000000 0.00000000
f 430/430/144 431/431/144 432/432/144
g pz_chair_seating_indoor_01_red_comfy__straight_arm_1__arm
v 0.35530000 -0.42703333 0.09800000
v 0.35530000 -0.42703333 0.61740000
v 0.35530000 -0.39903333 0.64190000
vt 0.769531250 0.519531250
vt 0.769531250 0.720967061
vt 0.776469984 0.730468750
vn -1.00000000 0.00000000 0.00000000
f 433/433/145 434/434/145 435/435/145
g pz_chair_seating_indoor_01_red_comfy__straight_arm_1__arm
v 0.35530000 -0.42703333 0.09800000
v 0.35530000 -0.39903333 0.64190000
v 0.35530000 0.39616667 0.59290000
vt 0.769531250 0.519531250
vt 0.776469984 0.730468750
vt 0.973530016 0.711465372
vn -1.00000000 0.00000000 0.00000000
f 436/436/146 437/437/146 438/438/146
g pz_chair_seating_indoor_01_red_comfy__straight_arm_1__arm
v 0.35530000 -0.42703333 0.09800000
v 0.35530000 0.39616667 0.59290000
v 0.35530000 0.42416667 0.57526000
vt 0.769531250 0.519531250
vt 0.973530016 0.711465372
vt 0.980468750 0.704624155
vn -1.00000000 0.00000000 0.00000000
f 439/439/147 440/440/147 441/441/147
g pz_chair_seating_indoor_01_red_comfy__straight_arm_1__arm
v 0.35530000 0.42416667 0.57526000
v 0.35530000 0.42416667 0.09800000
v 0.35530000 -0.42703333 0.09800000
vt 0.980468750 0.704624155
vt 0.980468750 0.519531250
vt 0.769531250 0.519531250
vn -1.00000000 0.00000000 -0.00000000
f 442/442/148 443/443/148 444/444/148
g pz_chair_seating_indoor_01_red_comfy__straight_arm_1__arm
v 0.45386000 -0.42703333 0.61740000
v 0.45386000 -0.42703333 0.09800000
v 0.45386000 0.42416667 0.09800000
vt 0.519531250 0.720967061
vt 0.519531250 0.519531250
vt 0.730468750 0.519531250
vn 1.00000000 0.00000000 0.00000000
f 445/445/149 446/446/149 447/447/149
g pz_chair_seating_indoor_01_red_comfy__straight_arm_1__arm
v 0.45386000 -0.42703333 0.61740000
v 0.45386000 0.42416667 0.09800000
v 0.45386000 0.42416667 0.57526000
vt 0.519531250 0.720967061
vt 0.730468750 0.519531250
vt 0.730468750 0.704624155
vn 1.00000000 0.00000000 0.00000000
f 448/448/150 449/449/150 450/450/150
g pz_chair_seating_indoor_01_red_comfy__straight_arm_1__arm
v 0.45386000 -0.42703333 0.61740000
v 0.45386000 0.42416667 0.57526000
v 0.45386000 0.39616667 0.59290000
vt 0.519531250 0.720967061
vt 0.730468750 0.704624155
vt 0.723530016 0.711465372
vn 1.00000000 0.00000000 0.00000000
f 451/451/151 452/452/151 453/453/151
g pz_chair_seating_indoor_01_red_comfy__straight_arm_1__arm
v 0.45386000 0.39616667 0.59290000
v 0.45386000 -0.39903333 0.64190000
v 0.45386000 -0.42703333 0.61740000
vt 0.723530016 0.711465372
vt 0.526469984 0.730468750
vt 0.519531250 0.720967061
vn 1.00000000 0.00000000 0.00000000
f 454/454/152 455/455/152 456/456/152
g pz_chair_seating_indoor_01_red_comfy__straight_arm_1__arm
v 0.45386000 0.42416667 0.09800000
v 0.35530000 0.42416667 0.09800000
v 0.35530000 0.42416667 0.57526000
vt 0.480468750 0.269531250
vt 0.269531250 0.269531250
vt 0.269531250 0.454624155
vn 0.00000000 1.00000000 0.00000000
f 457/457/153 458/458/153 459/459/153
g pz_chair_seating_indoor_01_red_comfy__straight_arm_1__arm
v 0.35530000 0.42416667 0.57526000
v 0.45386000 0.42416667 0.57526000
v 0.45386000 0.42416667 0.09800000
vt 0.269531250 0.454624155
vt 0.480468750 0.454624155
vt 0.480468750 0.269531250
vn -0.00000000 1.00000000 0.00000000
f 460/460/154 461/461/154 462/462/154
g pz_chair_seating_indoor_01_red_comfy__straight_arm_1__arm
v 0.45386000 0.42416667 0.57526000
v 0.35530000 0.42416667 0.57526000
v 0.35530000 0.39616667 0.59290000
vt 0.230468750 0.480468750
vt 0.230468750 0.269531250
vt 0.223530016 0.269531250
vn 0.00000000 0.53303766 0.84609152
f 463/463/155 464/464/155 465/465/155
g pz_chair_seating_indoor_01_red_comfy__straight_arm_1__arm
v 0.35530000 0.39616667 0.59290000
v 0.45386000 0.39616667 0.59290000
v 0.45386000 0.42416667 0.57526000
vt 0.223530016 0.269531250
vt 0.223530016 0.480468750
vt 0.230468750 0.480468750
vn -0.00000000 0.53303766 0.84609152
f 466/466/156 467/467/156 468/468/156
g pz_chair_seating_indoor_01_red_comfy__straight_arm_1__arm
v 0.45386000 0.39616667 0.59290000
v 0.35530000 0.39616667 0.59290000
v 0.35530000 -0.39903333 0.64190000
vt 0.223530016 0.480468750
vt 0.223530016 0.269531250
vt 0.026469984 0.269531250
vn 0.00000000 0.06150307 0.99810689
f 469/469/157 470/470/157 471/471/157
g pz_chair_seating_indoor_01_red_comfy__straight_arm_1__arm
v 0.35530000 -0.39903333 0.64190000
v 0.45386000 -0.39903333 0.64190000
v 0.45386000 0.39616667 0.59290000
vt 0.026469984 0.269531250
vt 0.026469984 0.480468750
vt 0.223530016 0.480468750
vn -0.00000000 0.06150307 0.99810689
f 472/472/158 473/473/158 474/474/158
g pz_chair_seating_indoor_01_red_comfy__straight_arm_1__arm
v 0.45386000 -0.39903333 0.64190000
v 0.35530000 -0.39903333 0.64190000
v 0.35530000 -0.42703333 0.61740000
vt 0.026469984 0.480468750
vt 0.026469984 0.269531250
vt 0.019531250 0.269531250
vn 0.00000000 -0.65850461 0.75257669
f 475/475/159 476/476/159 477/477/159
g pz_chair_seating_indoor_01_red_comfy__straight_arm_1__arm
v 0.35530000 -0.42703333 0.61740000
v 0.45386000 -0.42703333 0.61740000
v 0.45386000 -0.39903333 0.64190000
vt 0.019531250 0.269531250
vt 0.019531250 0.480468750
vt 0.026469984 0.480468750
vn 0.00000000 -0.65850461 0.75257669
f 478/478/160 479/479/160 480/480/160
g pz_chair_seating_indoor_01_red_comfy__straight_arm_1__arm
v 0.45386000 -0.42703333 0.61740000
v 0.35530000 -0.42703333 0.61740000
v 0.35530000 -0.42703333 0.09800000
vt 0.480468750 0.470967061
vt 0.269531250 0.470967061
vt 0.269531250 0.269531250
vn -0.00000000 -1.00000000 0.00000000
f 481/481/161 482/482/161 483/483/161
g pz_chair_seating_indoor_01_red_comfy__straight_arm_1__arm
v 0.35530000 -0.42703333 0.09800000
v 0.45386000 -0.42703333 0.09800000
v 0.45386000 -0.42703333 0.61740000
vt 0.269531250 0.269531250
vt 0.480468750 0.269531250
vt 0.480468750 0.470967061
vn 0.00000000 -1.00000000 0.00000000
f 484/484/162 485/485/162 486/486/162
g pz_chair_seating_indoor_01_red_comfy__foot_-1_-1__frame
v -0.38110000 -0.34863333 0.09604000
v -0.38110000 -0.34863333 0.00000000
v -0.35030000 -0.37943333 0.00000000
vt 0.875000000 0.230468750
vt 0.875000000 0.019531250
vt 0.769531250 0.019531250
vn -0.70710678 -0.70710678 -0.00000000
f 487/487/163 488/488/163 489/489/163
g pz_chair_seating_indoor_01_red_comfy__foot_-1_-1__frame
v -0.35030000 -0.37943333 0.00000000
v -0.35030000 -0.37943333 0.09604000
v -0.38110000 -0.34863333 0.09604000
vt 0.769531250 0.019531250
vt 0.769531250 0.230468750
vt 0.875000000 0.230468750
vn -0.70710678 -0.70710678 0.00000000
f 490/490/164 491/491/164 492/492/164
g pz_chair_seating_indoor_01_red_comfy__foot_-1_-1__frame
v -0.35030000 -0.37943333 0.09604000
v -0.35030000 -0.37943333 0.00000000
v -0.31950000 -0.34863333 0.00000000
vt 0.769531250 0.230468750
vt 0.769531250 0.019531250
vt 0.875000000 0.019531250
vn 0.70710678 -0.70710678 0.00000000
f 493/493/165 494/494/165 495/495/165
g pz_chair_seating_indoor_01_red_comfy__foot_-1_-1__frame
v -0.31950000 -0.34863333 0.00000000
v -0.31950000 -0.34863333 0.09604000
v -0.35030000 -0.37943333 0.09604000
vt 0.875000000 0.019531250
vt 0.875000000 0.230468750
vt 0.769531250 0.230468750
vn 0.70710678 -0.70710678 0.00000000
f 496/496/166 497/497/166 498/498/166
g pz_chair_seating_indoor_01_red_comfy__foot_-1_-1__frame
v -0.31950000 -0.34863333 0.09604000
v -0.31950000 -0.34863333 0.00000000
v -0.35030000 -0.31783333 0.00000000
vt 0.875000000 0.230468750
vt 0.875000000 0.019531250
vt 0.980468750 0.019531250
vn 0.70710678 0.70710678 0.00000000
f 499/499/167 500/500/167 501/501/167
g pz_chair_seating_indoor_01_red_comfy__foot_-1_-1__frame
v -0.35030000 -0.31783333 0.00000000
v -0.35030000 -0.31783333 0.09604000
v -0.31950000 -0.34863333 0.09604000
vt 0.980468750 0.019531250
vt 0.980468750 0.230468750
vt 0.875000000 0.230468750
vn 0.70710678 0.70710678 -0.00000000
f 502/502/168 503/503/168 504/504/168
g pz_chair_seating_indoor_01_red_comfy__foot_-1_-1__frame
v -0.35030000 -0.31783333 0.09604000
v -0.35030000 -0.31783333 0.00000000
v -0.38110000 -0.34863333 0.00000000
vt 0.980468750 0.230468750
vt 0.980468750 0.019531250
vt 0.875000000 0.019531250
vn -0.70710678 0.70710678 0.00000000
f 505/505/169 506/506/169 507/507/169
g pz_chair_seating_indoor_01_red_comfy__foot_-1_-1__frame
v -0.38110000 -0.34863333 0.00000000
v -0.38110000 -0.34863333 0.09604000
v -0.35030000 -0.31783333 0.09604000
vt 0.875000000 0.019531250
vt 0.875000000 0.230468750
vt 0.980468750 0.230468750
vn -0.70710678 0.70710678 0.00000000
f 508/508/170 509/509/170 510/510/170
g pz_chair_seating_indoor_01_red_comfy__foot_-1_1__frame
v -0.38110000 0.35696667 0.09604000
v -0.38110000 0.35696667 0.00000000
v -0.35030000 0.32616667 0.00000000
vt 0.875000000 0.230468750
vt 0.875000000 0.019531250
vt 0.769531250 0.019531250
vn -0.70710678 -0.70710678 -0.00000000
f 511/511/171 512/512/171 513/513/171
g pz_chair_seating_indoor_01_red_comfy__foot_-1_1__frame
v -0.35030000 0.32616667 0.00000000
v -0.35030000 0.32616667 0.09604000
v -0.38110000 0.35696667 0.09604000
vt 0.769531250 0.019531250
vt 0.769531250 0.230468750
vt 0.875000000 0.230468750
vn -0.70710678 -0.70710678 0.00000000
f 514/514/172 515/515/172 516/516/172
g pz_chair_seating_indoor_01_red_comfy__foot_-1_1__frame
v -0.35030000 0.32616667 0.09604000
v -0.35030000 0.32616667 0.00000000
v -0.31950000 0.35696667 0.00000000
vt 0.769531250 0.230468750
vt 0.769531250 0.019531250
vt 0.875000000 0.019531250
vn 0.70710678 -0.70710678 0.00000000
f 517/517/173 518/518/173 519/519/173
g pz_chair_seating_indoor_01_red_comfy__foot_-1_1__frame
v -0.31950000 0.35696667 0.00000000
v -0.31950000 0.35696667 0.09604000
v -0.35030000 0.32616667 0.09604000
vt 0.875000000 0.019531250
vt 0.875000000 0.230468750
vt 0.769531250 0.230468750
vn 0.70710678 -0.70710678 0.00000000
f 520/520/174 521/521/174 522/522/174
g pz_chair_seating_indoor_01_red_comfy__foot_-1_1__frame
v -0.31950000 0.35696667 0.09604000
v -0.31950000 0.35696667 0.00000000
v -0.35030000 0.38776667 0.00000000
vt 0.875000000 0.230468750
vt 0.875000000 0.019531250
vt 0.980468750 0.019531250
vn 0.70710678 0.70710678 0.00000000
f 523/523/175 524/524/175 525/525/175
g pz_chair_seating_indoor_01_red_comfy__foot_-1_1__frame
v -0.35030000 0.38776667 0.00000000
v -0.35030000 0.38776667 0.09604000
v -0.31950000 0.35696667 0.09604000
vt 0.980468750 0.019531250
vt 0.980468750 0.230468750
vt 0.875000000 0.230468750
vn 0.70710678 0.70710678 -0.00000000
f 526/526/176 527/527/176 528/528/176
g pz_chair_seating_indoor_01_red_comfy__foot_-1_1__frame
v -0.35030000 0.38776667 0.09604000
v -0.35030000 0.38776667 0.00000000
v -0.38110000 0.35696667 0.00000000
vt 0.980468750 0.230468750
vt 0.980468750 0.019531250
vt 0.875000000 0.019531250
vn -0.70710678 0.70710678 0.00000000
f 529/529/177 530/530/177 531/531/177
g pz_chair_seating_indoor_01_red_comfy__foot_-1_1__frame
v -0.38110000 0.35696667 0.00000000
v -0.38110000 0.35696667 0.09604000
v -0.35030000 0.38776667 0.09604000
vt 0.875000000 0.019531250
vt 0.875000000 0.230468750
vt 0.980468750 0.230468750
vn -0.70710678 0.70710678 0.00000000
f 532/532/178 533/533/178 534/534/178
g pz_chair_seating_indoor_01_red_comfy__foot_1_-1__frame
v 0.32450000 -0.34863333 0.09604000
v 0.32450000 -0.34863333 0.00000000
v 0.35530000 -0.37943333 0.00000000
vt 0.875000000 0.230468750
vt 0.875000000 0.019531250
vt 0.769531250 0.019531250
vn -0.70710678 -0.70710678 -0.00000000
f 535/535/179 536/536/179 537/537/179
g pz_chair_seating_indoor_01_red_comfy__foot_1_-1__frame
v 0.35530000 -0.37943333 0.00000000
v 0.35530000 -0.37943333 0.09604000
v 0.32450000 -0.34863333 0.09604000
vt 0.769531250 0.019531250
vt 0.769531250 0.230468750
vt 0.875000000 0.230468750
vn -0.70710678 -0.70710678 0.00000000
f 538/538/180 539/539/180 540/540/180
g pz_chair_seating_indoor_01_red_comfy__foot_1_-1__frame
v 0.35530000 -0.37943333 0.09604000
v 0.35530000 -0.37943333 0.00000000
v 0.38610000 -0.34863333 0.00000000
vt 0.769531250 0.230468750
vt 0.769531250 0.019531250
vt 0.875000000 0.019531250
vn 0.70710678 -0.70710678 0.00000000
f 541/541/181 542/542/181 543/543/181
g pz_chair_seating_indoor_01_red_comfy__foot_1_-1__frame
v 0.38610000 -0.34863333 0.00000000
v 0.38610000 -0.34863333 0.09604000
v 0.35530000 -0.37943333 0.09604000
vt 0.875000000 0.019531250
vt 0.875000000 0.230468750
vt 0.769531250 0.230468750
vn 0.70710678 -0.70710678 0.00000000
f 544/544/182 545/545/182 546/546/182
g pz_chair_seating_indoor_01_red_comfy__foot_1_-1__frame
v 0.38610000 -0.34863333 0.09604000
v 0.38610000 -0.34863333 0.00000000
v 0.35530000 -0.31783333 0.00000000
vt 0.875000000 0.230468750
vt 0.875000000 0.019531250
vt 0.980468750 0.019531250
vn 0.70710678 0.70710678 0.00000000
f 547/547/183 548/548/183 549/549/183
g pz_chair_seating_indoor_01_red_comfy__foot_1_-1__frame
v 0.35530000 -0.31783333 0.00000000
v 0.35530000 -0.31783333 0.09604000
v 0.38610000 -0.34863333 0.09604000
vt 0.980468750 0.019531250
vt 0.980468750 0.230468750
vt 0.875000000 0.230468750
vn 0.70710678 0.70710678 -0.00000000
f 550/550/184 551/551/184 552/552/184
g pz_chair_seating_indoor_01_red_comfy__foot_1_-1__frame
v 0.35530000 -0.31783333 0.09604000
v 0.35530000 -0.31783333 0.00000000
v 0.32450000 -0.34863333 0.00000000
vt 0.980468750 0.230468750
vt 0.980468750 0.019531250
vt 0.875000000 0.019531250
vn -0.70710678 0.70710678 0.00000000
f 553/553/185 554/554/185 555/555/185
g pz_chair_seating_indoor_01_red_comfy__foot_1_-1__frame
v 0.32450000 -0.34863333 0.00000000
v 0.32450000 -0.34863333 0.09604000
v 0.35530000 -0.31783333 0.09604000
vt 0.875000000 0.019531250
vt 0.875000000 0.230468750
vt 0.980468750 0.230468750
vn -0.70710678 0.70710678 0.00000000
f 556/556/186 557/557/186 558/558/186
g pz_chair_seating_indoor_01_red_comfy__foot_1_1__frame
v 0.32450000 0.35696667 0.09604000
v 0.32450000 0.35696667 0.00000000
v 0.35530000 0.32616667 0.00000000
vt 0.875000000 0.230468750
vt 0.875000000 0.019531250
vt 0.769531250 0.019531250
vn -0.70710678 -0.70710678 -0.00000000
f 559/559/187 560/560/187 561/561/187
g pz_chair_seating_indoor_01_red_comfy__foot_1_1__frame
v 0.35530000 0.32616667 0.00000000
v 0.35530000 0.32616667 0.09604000
v 0.32450000 0.35696667 0.09604000
vt 0.769531250 0.019531250
vt 0.769531250 0.230468750
vt 0.875000000 0.230468750
vn -0.70710678 -0.70710678 0.00000000
f 562/562/188 563/563/188 564/564/188
g pz_chair_seating_indoor_01_red_comfy__foot_1_1__frame
v 0.35530000 0.32616667 0.09604000
v 0.35530000 0.32616667 0.00000000
v 0.38610000 0.35696667 0.00000000
vt 0.769531250 0.230468750
vt 0.769531250 0.019531250
vt 0.875000000 0.019531250
vn 0.70710678 -0.70710678 0.00000000
f 565/565/189 566/566/189 567/567/189
g pz_chair_seating_indoor_01_red_comfy__foot_1_1__frame
v 0.38610000 0.35696667 0.00000000
v 0.38610000 0.35696667 0.09604000
v 0.35530000 0.32616667 0.09604000
vt 0.875000000 0.019531250
vt 0.875000000 0.230468750
vt 0.769531250 0.230468750
vn 0.70710678 -0.70710678 0.00000000
f 568/568/190 569/569/190 570/570/190
g pz_chair_seating_indoor_01_red_comfy__foot_1_1__frame
v 0.38610000 0.35696667 0.09604000
v 0.38610000 0.35696667 0.00000000
v 0.35530000 0.38776667 0.00000000
vt 0.875000000 0.230468750
vt 0.875000000 0.019531250
vt 0.980468750 0.019531250
vn 0.70710678 0.70710678 0.00000000
f 571/571/191 572/572/191 573/573/191
g pz_chair_seating_indoor_01_red_comfy__foot_1_1__frame
v 0.35530000 0.38776667 0.00000000
v 0.35530000 0.38776667 0.09604000
v 0.38610000 0.35696667 0.09604000
vt 0.980468750 0.019531250
vt 0.980468750 0.230468750
vt 0.875000000 0.230468750
vn 0.70710678 0.70710678 -0.00000000
f 574/574/192 575/575/192 576/576/192
g pz_chair_seating_indoor_01_red_comfy__foot_1_1__frame
v 0.35530000 0.38776667 0.09604000
v 0.35530000 0.38776667 0.00000000
v 0.32450000 0.35696667 0.00000000
vt 0.980468750 0.230468750
vt 0.980468750 0.019531250
vt 0.875000000 0.019531250
vn -0.70710678 0.70710678 0.00000000
f 577/577/193 578/578/193 579/579/193
g pz_chair_seating_indoor_01_red_comfy__foot_1_1__frame
v 0.32450000 0.35696667 0.00000000
v 0.32450000 0.35696667 0.09604000
v 0.35530000 0.38776667 0.09604000
vt 0.875000000 0.019531250
vt 0.875000000 0.230468750
vt 0.980468750 0.230468750
vn -0.70710678 0.70710678 0.00000000
f 580/580/194 581/581/194 582/582/194
