# G015 native chair fidelity candidate; tile units XYZ, Z up.
# Surface charts and native palette swatches; 32x32 PNG, nearest sampling.
mtllib pz_chair_seating_indoor_01_folding_fidelity_r1.mtl
o pz_chair_seating_indoor_01_folding_fidelity_r1
usemtl pz_chair_seating_indoor_01_folding_fidelity_r1_PS1
g seat
v 0.000000000 0.000000000 0.350959333
vt 0.250000000 0.750000000
vn 0.000000000 0.063627533 0.997973716
v -0.175500776 -0.232591390 0.365788598
vt 0.128590426 0.578125000
vn 0.000000000 0.063627533 0.997973716
v 0.175500776 -0.232591390 0.365788598
vt 0.371409574 0.578125000
vn 0.000000000 0.063627533 0.997973716
f 1/1/1 2/2/2 3/3/3
g seat
v -0.175500776 -0.232591390 0.365788598
vt 0.128590426 0.875947887
vn 0.000000000 -1.000000000 0.000000000
v -0.175500776 -0.232591390 0.333646716
vt 0.128590426 0.578125000
vn 0.000000000 -1.000000000 0.000000000
v 0.175500776 -0.232591390 0.333646716
vt 0.371409574 0.578125000
vn 0.000000000 -1.000000000 0.000000000
f 4/4/4 5/5/5 6/6/6
g seat
v -0.175500776 -0.232591390 0.365788598
vt 0.128590426 0.875947887
vn 0.000000000 -1.000000000 0.000000000
v 0.175500776 -0.232591390 0.333646716
vt 0.371409574 0.578125000
vn 0.000000000 -1.000000000 0.000000000
v 0.175500776 -0.232591390 0.365788598
vt 0.371409574 0.875947887
vn 0.000000000 -1.000000000 0.000000000
f 7/7/7 8/8/8 9/9/9
g seat
v 0.000000000 0.000000000 0.350959333
vt 0.250000000 0.750000000
vn -0.074851121 0.007097683 0.997169460
v 0.175500776 -0.232591390 0.365788598
vt 0.371409574 0.578125000
vn -0.074851121 0.007097683 0.997169460
v 0.248449894 -0.159642272 0.370745181
vt 0.421875000 0.632031250
vn -0.074851121 0.007097683 0.997169460
f 10/10/10 11/11/11 12/12/12
g seat
v 0.175500776 -0.232591390 0.365788598
vt 0.078125000 0.875947887
vn 0.707106781 -0.707106781 0.000000000
v 0.175500776 -0.232591390 0.333646716
vt 0.078125000 0.578125000
vn 0.707106781 -0.707106781 0.000000000
v 0.248449894 -0.159642272 0.333646716
vt 0.132031250 0.578125000
vn 0.707106781 -0.707106781 0.000000000
f 13/13/13 14/14/14 15/15/15
g seat
v 0.175500776 -0.232591390 0.365788598
vt 0.078125000 0.875947887
vn 0.707106781 -0.707106781 0.000000000
v 0.248449894 -0.159642272 0.333646716
vt 0.132031250 0.578125000
vn 0.707106781 -0.707106781 0.000000000
v 0.248449894 -0.159642272 0.370745181
vt 0.132031250 0.921875000
vn 0.707106781 -0.707106781 0.000000000
f 16/16/16 17/17/17 18/18/18
g seat
v 0.000000000 0.000000000 0.350959333
vt 0.250000000 0.750000000
vn -0.079385838 0.000000000 0.996843964
v 0.248449894 -0.159642272 0.370745181
vt 0.421875000 0.632031250
vn -0.079385838 0.000000000 0.996843964
v 0.248449894 0.159642272 0.370745181
vt 0.421875000 0.867968750
vn -0.079385838 0.000000000 0.996843964
f 19/19/19 20/20/20 21/21/21
g seat
v 0.248449894 -0.159642272 0.370745181
vt 0.132031250 0.921875000
vn 1.000000000 0.000000000 0.000000000
v 0.248449894 -0.159642272 0.333646716
vt 0.132031250 0.578125000
vn 1.000000000 0.000000000 0.000000000
v 0.248449894 0.159642272 0.333646716
vt 0.367968750 0.578125000
vn 1.000000000 0.000000000 0.000000000
f 22/22/22 23/23/23 24/24/24
g seat
v 0.248449894 -0.159642272 0.370745181
vt 0.132031250 0.921875000
vn 1.000000000 -0.000000000 0.000000000
v 0.248449894 0.159642272 0.333646716
vt 0.367968750 0.578125000
vn 1.000000000 -0.000000000 0.000000000
v 0.248449894 0.159642272 0.370745181
vt 0.367968750 0.921875000
vn 1.000000000 -0.000000000 0.000000000
f 25/25/25 26/26/26 27/27/27
g seat
v 0.000000000 0.000000000 0.350959333
vt 0.250000000 0.750000000
vn -0.074851121 -0.007097683 0.997169460
v 0.248449894 0.159642272 0.370745181
vt 0.421875000 0.867968750
vn -0.074851121 -0.007097683 0.997169460
v 0.175500776 0.232591390 0.365788598
vt 0.371409574 0.921875000
vn -0.074851121 -0.007097683 0.997169460
f 28/28/28 29/29/29 30/30/30
g seat
v 0.248449894 0.159642272 0.370745181
vt 0.367968750 0.921875000
vn 0.707106781 0.707106781 0.000000000
v 0.248449894 0.159642272 0.333646716
vt 0.367968750 0.578125000
vn 0.707106781 0.707106781 0.000000000
v 0.175500776 0.232591390 0.333646716
vt 0.421875000 0.578125000
vn 0.707106781 0.707106781 0.000000000
f 31/31/31 32/32/32 33/33/33
g seat
v 0.248449894 0.159642272 0.370745181
vt 0.367968750 0.921875000
vn 0.707106781 0.707106781 0.000000000
v 0.175500776 0.232591390 0.333646716
vt 0.421875000 0.578125000
vn 0.707106781 0.707106781 0.000000000
v 0.175500776 0.232591390 0.365788598
vt 0.421875000 0.875947887
vn 0.707106781 0.707106781 0.000000000
f 34/34/34 35/35/35 36/36/36
g seat
v 0.000000000 0.000000000 0.350959333
vt 0.250000000 0.750000000
vn 0.000000000 -0.063627533 0.997973716
v 0.175500776 0.232591390 0.365788598
vt 0.371409574 0.921875000
vn 0.000000000 -0.063627533 0.997973716
v -0.175500776 0.232591390 0.365788598
vt 0.128590426 0.921875000
vn 0.000000000 -0.063627533 0.997973716
f 37/37/37 38/38/38 39/39/39
g seat
v 0.175500776 0.232591390 0.365788598
vt 0.371409574 0.875947887
vn 0.000000000 1.000000000 0.000000000
v 0.175500776 0.232591390 0.333646716
vt 0.371409574 0.578125000
vn 0.000000000 1.000000000 0.000000000
v -0.175500776 0.232591390 0.333646716
vt 0.128590426 0.578125000
vn 0.000000000 1.000000000 0.000000000
f 40/40/40 41/41/41 42/42/42
g seat
v 0.175500776 0.232591390 0.365788598
vt 0.371409574 0.875947887
vn 0.000000000 1.000000000 0.000000000
v -0.175500776 0.232591390 0.333646716
vt 0.128590426 0.578125000
vn 0.000000000 1.000000000 0.000000000
v -0.175500776 0.232591390 0.365788598
vt 0.128590426 0.875947887
vn 0.000000000 1.000000000 0.000000000
f 43/43/43 44/44/44 45/45/45
g seat
v 0.000000000 0.000000000 0.350959333
vt 0.250000000 0.750000000
vn 0.074851121 -0.007097683 0.997169460
v -0.175500776 0.232591390 0.365788598
vt 0.128590426 0.921875000
vn 0.074851121 -0.007097683 0.997169460
v -0.248449894 0.159642272 0.370745181
vt 0.078125000 0.867968750
vn 0.074851121 -0.007097683 0.997169460
f 46/46/46 47/47/47 48/48/48
g seat
v -0.175500776 0.232591390 0.365788598
vt 0.421875000 0.875947887
vn -0.707106781 0.707106781 0.000000000
v -0.175500776 0.232591390 0.333646716
vt 0.421875000 0.578125000
vn -0.707106781 0.707106781 0.000000000
v -0.248449894 0.159642272 0.333646716
vt 0.367968750 0.578125000
vn -0.707106781 0.707106781 0.000000000
f 49/49/49 50/50/50 51/51/51
g seat
v -0.175500776 0.232591390 0.365788598
vt 0.421875000 0.875947887
vn -0.707106781 0.707106781 0.000000000
v -0.248449894 0.159642272 0.333646716
vt 0.367968750 0.578125000
vn -0.707106781 0.707106781 0.000000000
v -0.248449894 0.159642272 0.370745181
vt 0.367968750 0.921875000
vn -0.707106781 0.707106781 0.000000000
f 52/52/52 53/53/53 54/54/54
g seat
v 0.000000000 0.000000000 0.350959333
vt 0.250000000 0.750000000
vn 0.079385838 0.000000000 0.996843964
v -0.248449894 0.159642272 0.370745181
vt 0.078125000 0.867968750
vn 0.079385838 0.000000000 0.996843964
v -0.248449894 -0.159642272 0.370745181
vt 0.078125000 0.632031250
vn 0.079385838 0.000000000 0.996843964
f 55/55/55 56/56/56 57/57/57
g seat
v -0.248449894 0.159642272 0.370745181
vt 0.367968750 0.921875000
vn -1.000000000 0.000000000 -0.000000000
v -0.248449894 0.159642272 0.333646716
vt 0.367968750 0.578125000
vn -1.000000000 0.000000000 -0.000000000
v -0.248449894 -0.159642272 0.333646716
vt 0.132031250 0.578125000
vn -1.000000000 0.000000000 -0.000000000
f 58/58/58 59/59/59 60/60/60
g seat
v -0.248449894 0.159642272 0.370745181
vt 0.367968750 0.921875000
vn -1.000000000 -0.000000000 0.000000000
v -0.248449894 -0.159642272 0.333646716
vt 0.132031250 0.578125000
vn -1.000000000 -0.000000000 0.000000000
v -0.248449894 -0.159642272 0.370745181
vt 0.132031250 0.921875000
vn -1.000000000 -0.000000000 0.000000000
f 61/61/61 62/62/62 63/63/63
g seat
v 0.000000000 0.000000000 0.350959333
vt 0.250000000 0.750000000
vn 0.074851121 0.007097683 0.997169460
v -0.248449894 -0.159642272 0.370745181
vt 0.078125000 0.632031250
vn 0.074851121 0.007097683 0.997169460
v -0.175500776 -0.232591390 0.365788598
vt 0.128590426 0.578125000
vn 0.074851121 0.007097683 0.997169460
f 64/64/64 65/65/65 66/66/66
g seat
v -0.248449894 -0.159642272 0.370745181
vt 0.132031250 0.921875000
vn -0.707106781 -0.707106781 -0.000000000
v -0.248449894 -0.159642272 0.333646716
vt 0.132031250 0.578125000
vn -0.707106781 -0.707106781 -0.000000000
v -0.175500776 -0.232591390 0.333646716
vt 0.078125000 0.578125000
vn -0.707106781 -0.707106781 -0.000000000
f 67/67/67 68/68/68 69/69/69
g seat
v -0.248449894 -0.159642272 0.370745181
vt 0.132031250 0.921875000
vn -0.707106781 -0.707106781 0.000000000
v -0.175500776 -0.232591390 0.333646716
vt 0.078125000 0.578125000
vn -0.707106781 -0.707106781 0.000000000
v -0.175500776 -0.232591390 0.365788598
vt 0.078125000 0.875947887
vn -0.707106781 -0.707106781 0.000000000
f 70/70/70 71/71/71 72/72/72
g seat
v -0.248449894 -0.159642272 0.333646716
vt 0.078125000 0.632031250
vn 0.000000000 0.000000000 -1.000000000
v -0.248449894 0.159642272 0.333646716
vt 0.078125000 0.867968750
vn 0.000000000 0.000000000 -1.000000000
v -0.175500776 0.232591390 0.333646716
vt 0.128590426 0.921875000
vn 0.000000000 0.000000000 -1.000000000
f 73/73/73 74/74/74 75/75/75
g seat
v -0.248449894 -0.159642272 0.333646716
vt 0.078125000 0.632031250
vn 0.000000000 0.000000000 -1.000000000
v -0.175500776 0.232591390 0.333646716
vt 0.128590426 0.921875000
vn 0.000000000 0.000000000 -1.000000000
v 0.175500776 0.232591390 0.333646716
vt 0.371409574 0.921875000
vn 0.000000000 0.000000000 -1.000000000
f 76/76/76 77/77/77 78/78/78
g seat
v -0.248449894 -0.159642272 0.333646716
vt 0.078125000 0.632031250
vn 0.000000000 0.000000000 -1.000000000
v 0.175500776 0.232591390 0.333646716
vt 0.371409574 0.921875000
vn 0.000000000 0.000000000 -1.000000000
v 0.248449894 0.159642272 0.333646716
vt 0.421875000 0.867968750
vn 0.000000000 0.000000000 -1.000000000
f 79/79/79 80/80/80 81/81/81
g seat
v -0.248449894 -0.159642272 0.333646716
vt 0.078125000 0.632031250
vn 0.000000000 0.000000000 -1.000000000
v 0.248449894 0.159642272 0.333646716
vt 0.421875000 0.867968750
vn 0.000000000 0.000000000 -1.000000000
v 0.248449894 -0.159642272 0.333646716
vt 0.421875000 0.632031250
vn 0.000000000 0.000000000 -1.000000000
f 82/82/82 83/83/83 84/84/84
g seat
v -0.248449894 -0.159642272 0.333646716
vt 0.078125000 0.632031250
vn 0.000000000 0.000000000 -1.000000000
v 0.248449894 -0.159642272 0.333646716
vt 0.421875000 0.632031250
vn 0.000000000 0.000000000 -1.000000000
v 0.175500776 -0.232591390 0.333646716
vt 0.371409574 0.578125000
vn 0.000000000 0.000000000 -1.000000000
f 85/85/85 86/86/86 87/87/87
g seat
v -0.248449894 -0.159642272 0.333646716
vt 0.078125000 0.632031250
vn 0.000000000 0.000000000 -1.000000000
v 0.175500776 -0.232591390 0.333646716
vt 0.371409574 0.578125000
vn 0.000000000 0.000000000 -1.000000000
v -0.175500776 -0.232591390 0.333646716
vt 0.128590426 0.578125000
vn 0.000000000 0.000000000 -1.000000000
f 88/88/88 89/89/89 90/90/90
g frame
v -0.268537332 0.268499881 0.012066938
vt 0.584006654 0.919320346
vn -0.000000000 0.360779638 -0.932651089
v -0.249507128 0.268499881 0.012066938
vt 0.595769961 0.919320346
vn -0.000000000 0.360779638 -0.932651089
v -0.239992025 0.253736062 0.006355815
vt 0.601651616 0.910479972
vn -0.000000000 0.360779638 -0.932651089
f 91/91/91 92/92/92 93/93/93
g frame
v -0.268537332 0.268499881 0.012066938
vt 0.584006654 0.919320346
vn -0.000000000 0.360779638 -0.932651089
v -0.239992025 0.253736062 0.006355815
vt 0.601651616 0.910479972
vn -0.000000000 0.360779638 -0.932651089
v -0.249507128 0.238972243 0.000644692
vt 0.595769961 0.901639598
vn -0.000000000 0.360779638 -0.932651089
f 94/94/94 95/95/95 96/96/96
g frame
v -0.268537332 0.268499881 0.012066938
vt 0.584006654 0.919320346
vn 0.000000000 0.360779638 -0.932651089
v -0.249507128 0.238972243 0.000644692
vt 0.595769961 0.901639598
vn 0.000000000 0.360779638 -0.932651089
v -0.268537332 0.238972243 0.000644692
vt 0.584006654 0.901639598
vn 0.000000000 0.360779638 -0.932651089
f 97/97/97 98/98/98 99/99/99
g frame
v -0.268537332 0.268499881 0.012066938
vt 0.584006654 0.919320346
vn 0.000000000 0.360779638 -0.932651089
v -0.268537332 0.238972243 0.000644692
vt 0.584006654 0.901639598
vn 0.000000000 0.360779638 -0.932651089
v -0.278052434 0.253736062 0.006355815
vt 0.578125000 0.910479972
vn 0.000000000 0.360779638 -0.932651089
f 100/100/100 101/101/101 102/102/102
g frame
v -0.278052434 -0.281224135 0.847254352
vt 0.578125000 0.590153085
vn 0.000000000 -0.360779638 0.932651089
v -0.268537332 -0.295987955 0.841543229
vt 0.584006654 0.581312710
vn 0.000000000 -0.360779638 0.932651089
v -0.249507128 -0.295987955 0.841543229
vt 0.595769961 0.581312710
vn 0.000000000 -0.360779638 0.932651089
f 103/103/103 104/104/104 105/105/105
g frame
v -0.278052434 -0.281224135 0.847254352
vt 0.578125000 0.590153085
vn 0.000000000 -0.360779638 0.932651089
v -0.249507128 -0.295987955 0.841543229
vt 0.595769961 0.581312710
vn 0.000000000 -0.360779638 0.932651089
v -0.239992025 -0.281224135 0.847254352
vt 0.601651616 0.590153085
vn 0.000000000 -0.360779638 0.932651089
f 106/106/106 107/107/107 108/108/108
g frame
v -0.278052434 -0.281224135 0.847254352
vt 0.578125000 0.590153085
vn 0.000000000 -0.360779638 0.932651089
v -0.239992025 -0.281224135 0.847254352
vt 0.601651616 0.590153085
vn 0.000000000 -0.360779638 0.932651089
v -0.249507128 -0.266460316 0.852965475
vt 0.595769961 0.598993459
vn 0.000000000 -0.360779638 0.932651089
f 109/109/109 110/110/110 111/111/111
g frame
v -0.278052434 -0.281224135 0.847254352
vt 0.578125000 0.590153085
vn 0.000000000 -0.360779638 0.932651089
v -0.249507128 -0.266460316 0.852965475
vt 0.595769961 0.598993459
vn 0.000000000 -0.360779638 0.932651089
v -0.268537332 -0.266460316 0.852965475
vt 0.584006654 0.598993459
vn 0.000000000 -0.360779638 0.932651089
f 112/112/112 113/113/113 114/114/114
g frame
v -0.278052434 0.253736062 0.006355815
vt 0.910479972 0.580662734
vn -0.852565259 -0.440952323 -0.280523668
v -0.268537332 0.238972243 0.000644692
vt 0.901639598 0.578382411
vn -0.852565259 -0.440952323 -0.280523668
v -0.268537332 -0.295987955 0.841543229
vt 0.581312710 0.914134280
vn -0.852565259 -0.440952323 -0.280523668
f 115/115/115 116/116/116 117/117/117
g frame
v -0.278052434 0.253736062 0.006355815
vt 0.910479972 0.580662734
vn -0.852565259 -0.440952323 -0.280523668
v -0.268537332 -0.295987955 0.841543229
vt 0.581312710 0.914134280
vn -0.852565259 -0.440952323 -0.280523668
v -0.278052434 -0.281224135 0.847254352
vt 0.590153085 0.916414603
vn -0.852565259 -0.440952323 -0.280523668
f 118/118/118 119/119/119 120/120/120
g frame
v -0.268537332 0.238972243 0.000644692
vt 0.584006654 0.578382411
vn -0.000000000 -0.843732856 -0.536763325
v -0.249507128 0.238972243 0.000644692
vt 0.595769961 0.578382411
vn -0.000000000 -0.843732856 -0.536763325
v -0.249507128 -0.295987955 0.841543229
vt 0.595769961 0.914134280
vn -0.000000000 -0.843732856 -0.536763325
f 121/121/121 122/122/122 123/123/123
g frame
v -0.268537332 0.238972243 0.000644692
vt 0.584006654 0.578382411
vn 0.000000000 -0.843732856 -0.536763325
v -0.249507128 -0.295987955 0.841543229
vt 0.595769961 0.914134280
vn 0.000000000 -0.843732856 -0.536763325
v -0.268537332 -0.295987955 0.841543229
vt 0.584006654 0.914134280
vn 0.000000000 -0.843732856 -0.536763325
f 124/124/124 125/125/125 126/126/126
g frame
v -0.249507128 0.238972243 0.000644692
vt 0.901639598 0.578382411
vn 0.852565259 -0.440952323 -0.280523668
v -0.239992025 0.253736062 0.006355815
vt 0.910479972 0.580662734
vn 0.852565259 -0.440952323 -0.280523668
v -0.239992025 -0.281224135 0.847254352
vt 0.590153085 0.916414603
vn 0.852565259 -0.440952323 -0.280523668
f 127/127/127 128/128/128 129/129/129
g frame
v -0.249507128 0.238972243 0.000644692
vt 0.901639598 0.578382411
vn 0.852565259 -0.440952323 -0.280523668
v -0.239992025 -0.281224135 0.847254352
vt 0.590153085 0.916414603
vn 0.852565259 -0.440952323 -0.280523668
v -0.249507128 -0.295987955 0.841543229
vt 0.581312710 0.914134280
vn 0.852565259 -0.440952323 -0.280523668
f 130/130/130 131/131/131 132/132/132
g frame
v -0.239992025 0.253736062 0.006355815
vt 0.910479972 0.580662734
vn 0.852565259 0.440952323 0.280523668
v -0.249507128 0.268499881 0.012066938
vt 0.919320346 0.582943057
vn 0.852565259 0.440952323 0.280523668
v -0.249507128 -0.266460316 0.852965475
vt 0.598993459 0.918694926
vn 0.852565259 0.440952323 0.280523668
f 133/133/133 134/134/134 135/135/135
g frame
v -0.239992025 0.253736062 0.006355815
vt 0.910479972 0.580662734
vn 0.852565259 0.440952323 0.280523668
v -0.249507128 -0.266460316 0.852965475
vt 0.598993459 0.918694926
vn 0.852565259 0.440952323 0.280523668
v -0.239992025 -0.281224135 0.847254352
vt 0.590153085 0.916414603
vn 0.852565259 0.440952323 0.280523668
f 136/136/136 137/137/137 138/138/138
g frame
v -0.249507128 0.268499881 0.012066938
vt 0.595769961 0.582943057
vn 0.000000000 0.843732856 0.536763325
v -0.268537332 0.268499881 0.012066938
vt 0.584006654 0.582943057
vn 0.000000000 0.843732856 0.536763325
v -0.268537332 -0.266460316 0.852965475
vt 0.584006654 0.918694926
vn 0.000000000 0.843732856 0.536763325
f 139/139/139 140/140/140 141/141/141
g frame
v -0.249507128 0.268499881 0.012066938
vt 0.595769961 0.582943057
vn 0.000000000 0.843732856 0.536763325
v -0.268537332 -0.266460316 0.852965475
vt 0.584006654 0.918694926
vn 0.000000000 0.843732856 0.536763325
v -0.249507128 -0.266460316 0.852965475
vt 0.595769961 0.918694926
vn 0.000000000 0.843732856 0.536763325
f 142/142/142 143/143/143 144/144/144
g frame
v -0.268537332 0.268499881 0.012066938
vt 0.919320346 0.582943057
vn -0.852565259 0.440952323 0.280523668
v -0.278052434 0.253736062 0.006355815
vt 0.910479972 0.580662734
vn -0.852565259 0.440952323 0.280523668
v -0.278052434 -0.281224135 0.847254352
vt 0.590153085 0.916414603
vn -0.852565259 0.440952323 0.280523668
f 145/145/145 146/146/146 147/147/147
g frame
v -0.268537332 0.268499881 0.012066938
vt 0.919320346 0.582943057
vn -0.852565259 0.440952323 0.280523668
v -0.278052434 -0.281224135 0.847254352
vt 0.590153085 0.916414603
vn -0.852565259 0.440952323 0.280523668
v -0.268537332 -0.266460316 0.852965475
vt 0.598993459 0.918694926
vn -0.852565259 0.440952323 0.280523668
f 148/148/148 149/149/149 150/150/150
g frame
v -0.249507128 -0.295548116 0.012711630
vt 0.595769961 0.581576080
vn -0.000000000 -0.405584277 -0.914057654
v -0.268537332 -0.295548116 0.012711630
vt 0.584006654 0.581576080
vn -0.000000000 -0.405584277 -0.914057654
v -0.278052434 -0.281224135 0.006355815
vt 0.578125000 0.590153085
vn -0.000000000 -0.405584277 -0.914057654
f 151/151/151 152/152/152 153/153/153
g frame
v -0.249507128 -0.295548116 0.012711630
vt 0.595769961 0.581576080
vn -0.000000000 -0.405584277 -0.914057654
v -0.278052434 -0.281224135 0.006355815
vt 0.578125000 0.590153085
vn -0.000000000 -0.405584277 -0.914057654
v -0.268537332 -0.266900155 0.000000000
vt 0.584006654 0.598730089
vn -0.000000000 -0.405584277 -0.914057654
f 154/154/154 155/155/155 156/156/156
g frame
v -0.249507128 -0.295548116 0.012711630
vt 0.595769961 0.581576080
vn 0.000000000 -0.405584277 -0.914057654
v -0.268537332 -0.266900155 0.000000000
vt 0.584006654 0.598730089
vn 0.000000000 -0.405584277 -0.914057654
v -0.249507128 -0.266900155 0.000000000
vt 0.595769961 0.598730089
vn 0.000000000 -0.405584277 -0.914057654
f 157/157/157 158/158/158 159/159/159
g frame
v -0.249507128 -0.295548116 0.012711630
vt 0.595769961 0.581576080
vn 0.000000000 -0.405584277 -0.914057654
v -0.249507128 -0.266900155 0.000000000
vt 0.595769961 0.598730089
vn 0.000000000 -0.405584277 -0.914057654
v -0.239992025 -0.281224135 0.006355815
vt 0.601651616 0.590153085
vn 0.000000000 -0.405584277 -0.914057654
f 160/160/160 161/161/161 162/162/162
g frame
v -0.239992025 0.041232110 0.448239752
vt 0.601651616 0.783235497
vn 0.000000000 0.405584277 0.914057654
v -0.249507128 0.055556091 0.441883937
vt 0.595769961 0.791812502
vn 0.000000000 0.405584277 0.914057654
v -0.268537332 0.055556091 0.441883937
vt 0.584006654 0.791812502
vn 0.000000000 0.405584277 0.914057654
f 163/163/163 164/164/164 165/165/165
g frame
v -0.239992025 0.041232110 0.448239752
vt 0.601651616 0.783235497
vn 0.000000000 0.405584277 0.914057654
v -0.268537332 0.055556091 0.441883937
vt 0.584006654 0.791812502
vn 0.000000000 0.405584277 0.914057654
v -0.278052434 0.041232110 0.448239752
vt 0.578125000 0.783235497
vn 0.000000000 0.405584277 0.914057654
f 166/166/166 167/167/167 168/168/168
g frame
v -0.239992025 0.041232110 0.448239752
vt 0.601651616 0.783235497
vn 0.000000000 0.405584277 0.914057654
v -0.278052434 0.041232110 0.448239752
vt 0.578125000 0.783235497
vn 0.000000000 0.405584277 0.914057654
v -0.268537332 0.026908129 0.454595567
vt 0.584006654 0.774658492
vn 0.000000000 0.405584277 0.914057654
f 169/169/169 170/170/170 171/171/171
g frame
v -0.239992025 0.041232110 0.448239752
vt 0.601651616 0.783235497
vn 0.000000000 0.405584277 0.914057654
v -0.268537332 0.026908129 0.454595567
vt 0.584006654 0.774658492
vn 0.000000000 0.405584277 0.914057654
v -0.249507128 0.026908129 0.454595567
vt 0.595769961 0.774658492
vn 0.000000000 0.405584277 0.914057654
f 172/172/172 173/173/173 174/174/174
g frame
v -0.239992025 -0.281224135 0.006355815
vt 0.590153085 0.580662734
vn 0.849446538 0.426250655 -0.311048161
v -0.249507128 -0.266900155 0.000000000
vt 0.598730089 0.578125000
vn 0.849446538 0.426250655 -0.311048161
v -0.249507128 0.055556091 0.441883937
vt 0.791812502 0.754559315
vn 0.849446538 0.426250655 -0.311048161
f 175/175/175 176/176/176 177/177/177
g frame
v -0.239992025 -0.281224135 0.006355815
vt 0.590153085 0.580662734
vn 0.849446538 0.426250655 -0.311048161
v -0.249507128 0.055556091 0.441883937
vt 0.791812502 0.754559315
vn 0.849446538 0.426250655 -0.311048161
v -0.239992025 0.041232110 0.448239752
vt 0.783235497 0.757097049
vn 0.849446538 0.426250655 -0.311048161
f 178/178/178 179/179/179 180/180/180
g frame
v -0.249507128 -0.266900155 0.000000000
vt 0.595769961 0.578125000
vn 0.000000000 0.807790600 -0.589469546
v -0.268537332 -0.266900155 0.000000000
vt 0.584006654 0.578125000
vn 0.000000000 0.807790600 -0.589469546
v -0.268537332 0.055556091 0.441883937
vt 0.584006654 0.754559315
vn 0.000000000 0.807790600 -0.589469546
f 181/181/181 182/182/182 183/183/183
g frame
v -0.249507128 -0.266900155 0.000000000
vt 0.595769961 0.578125000
vn 0.000000000 0.807790600 -0.589469546
v -0.268537332 0.055556091 0.441883937
vt 0.584006654 0.754559315
vn 0.000000000 0.807790600 -0.589469546
v -0.249507128 0.055556091 0.441883937
vt 0.595769961 0.754559315
vn 0.000000000 0.807790600 -0.589469546
f 184/184/184 185/185/185 186/186/186
g frame
v -0.268537332 -0.266900155 0.000000000
vt 0.598730089 0.578125000
vn -0.849446538 0.426250655 -0.311048161
v -0.278052434 -0.281224135 0.006355815
vt 0.590153085 0.580662734
vn -0.849446538 0.426250655 -0.311048161
v -0.278052434 0.041232110 0.448239752
vt 0.783235497 0.757097049
vn -0.849446538 0.426250655 -0.311048161
f 187/187/187 188/188/188 189/189/189
g frame
v -0.268537332 -0.266900155 0.000000000
vt 0.598730089 0.578125000
vn -0.849446538 0.426250655 -0.311048161
v -0.278052434 0.041232110 0.448239752
vt 0.783235497 0.757097049
vn -0.849446538 0.426250655 -0.311048161
v -0.268537332 0.055556091 0.441883937
vt 0.791812502 0.754559315
vn -0.849446538 0.426250655 -0.311048161
f 190/190/190 191/191/191 192/192/192
g frame
v -0.278052434 -0.281224135 0.006355815
vt 0.590153085 0.580662734
vn -0.849446538 -0.426250655 0.311048161
v -0.268537332 -0.295548116 0.012711630
vt 0.581576080 0.583200468
vn -0.849446538 -0.426250655 0.311048161
v -0.268537332 0.026908129 0.454595567
vt 0.774658492 0.759634783
vn -0.849446538 -0.426250655 0.311048161
f 193/193/193 194/194/194 195/195/195
g frame
v -0.278052434 -0.281224135 0.006355815
vt 0.590153085 0.580662734
vn -0.849446538 -0.426250655 0.311048161
v -0.268537332 0.026908129 0.454595567
vt 0.774658492 0.759634783
vn -0.849446538 -0.426250655 0.311048161
v -0.278052434 0.041232110 0.448239752
vt 0.783235497 0.757097049
vn -0.849446538 -0.426250655 0.311048161
f 196/196/196 197/197/197 198/198/198
g frame
v -0.268537332 -0.295548116 0.012711630
vt 0.584006654 0.583200468
vn 0.000000000 -0.807790600 0.589469546
v -0.249507128 -0.295548116 0.012711630
vt 0.595769961 0.583200468
vn 0.000000000 -0.807790600 0.589469546
v -0.249507128 0.026908129 0.454595567
vt 0.595769961 0.759634783
vn 0.000000000 -0.807790600 0.589469546
f 199/199/199 200/200/200 201/201/201
g frame
v -0.268537332 -0.295548116 0.012711630
vt 0.584006654 0.583200468
vn 0.000000000 -0.807790600 0.589469546
v -0.249507128 0.026908129 0.454595567
vt 0.595769961 0.759634783
vn 0.000000000 -0.807790600 0.589469546
v -0.268537332 0.026908129 0.454595567
vt 0.584006654 0.759634783
vn 0.000000000 -0.807790600 0.589469546
f 202/202/202 203/203/203 204/204/204
g frame
v -0.249507128 -0.295548116 0.012711630
vt 0.581576080 0.583200468
vn 0.849446538 -0.426250655 0.311048161
v -0.239992025 -0.281224135 0.006355815
vt 0.590153085 0.580662734
vn 0.849446538 -0.426250655 0.311048161
v -0.239992025 0.041232110 0.448239752
vt 0.783235497 0.757097049
vn 0.849446538 -0.426250655 0.311048161
f 205/205/205 206/206/206 207/207/207
g frame
v -0.249507128 -0.295548116 0.012711630
vt 0.581576080 0.583200468
vn 0.849446538 -0.426250655 0.311048161
v -0.239992025 0.041232110 0.448239752
vt 0.783235497 0.757097049
vn 0.849446538 -0.426250655 0.311048161
v -0.249507128 0.026908129 0.454595567
vt 0.774658492 0.759634783
vn 0.849446538 -0.426250655 0.311048161
f 208/208/208 209/209/209 210/210/210
g frame
v 0.249507128 0.268499881 0.012066938
vt 0.904230039 0.919320346
vn -0.000000000 0.360779638 -0.932651089
v 0.268537332 0.268499881 0.012066938
vt 0.915993346 0.919320346
vn -0.000000000 0.360779638 -0.932651089
v 0.278052434 0.253736062 0.006355815
vt 0.921875000 0.910479972
vn -0.000000000 0.360779638 -0.932651089
f 211/211/211 212/212/212 213/213/213
g frame
v 0.249507128 0.268499881 0.012066938
vt 0.904230039 0.919320346
vn -0.000000000 0.360779638 -0.932651089
v 0.278052434 0.253736062 0.006355815
vt 0.921875000 0.910479972
vn -0.000000000 0.360779638 -0.932651089
v 0.268537332 0.238972243 0.000644692
vt 0.915993346 0.901639598
vn -0.000000000 0.360779638 -0.932651089
f 214/214/214 215/215/215 216/216/216
g frame
v 0.249507128 0.268499881 0.012066938
vt 0.904230039 0.919320346
vn 0.000000000 0.360779638 -0.932651089
v 0.268537332 0.238972243 0.000644692
vt 0.915993346 0.901639598
vn 0.000000000 0.360779638 -0.932651089
v 0.249507128 0.238972243 0.000644692
vt 0.904230039 0.901639598
vn 0.000000000 0.360779638 -0.932651089
f 217/217/217 218/218/218 219/219/219
g frame
v 0.249507128 0.268499881 0.012066938
vt 0.904230039 0.919320346
vn 0.000000000 0.360779638 -0.932651089
v 0.249507128 0.238972243 0.000644692
vt 0.904230039 0.901639598
vn 0.000000000 0.360779638 -0.932651089
v 0.239992025 0.253736062 0.006355815
vt 0.898348384 0.910479972
vn 0.000000000 0.360779638 -0.932651089
f 220/220/220 221/221/221 222/222/222
g frame
v 0.239992025 -0.281224135 0.847254352
vt 0.898348384 0.590153085
vn 0.000000000 -0.360779638 0.932651089
v 0.249507128 -0.295987955 0.841543229
vt 0.904230039 0.581312710
vn 0.000000000 -0.360779638 0.932651089
v 0.268537332 -0.295987955 0.841543229
vt 0.915993346 0.581312710
vn 0.000000000 -0.360779638 0.932651089
f 223/223/223 224/224/224 225/225/225
g frame
v 0.239992025 -0.281224135 0.847254352
vt 0.898348384 0.590153085
vn 0.000000000 -0.360779638 0.932651089
v 0.268537332 -0.295987955 0.841543229
vt 0.915993346 0.581312710
vn 0.000000000 -0.360779638 0.932651089
v 0.278052434 -0.281224135 0.847254352
vt 0.921875000 0.590153085
vn 0.000000000 -0.360779638 0.932651089
f 226/226/226 227/227/227 228/228/228
g frame
v 0.239992025 -0.281224135 0.847254352
vt 0.898348384 0.590153085
vn 0.000000000 -0.360779638 0.932651089
v 0.278052434 -0.281224135 0.847254352
vt 0.921875000 0.590153085
vn 0.000000000 -0.360779638 0.932651089
v 0.268537332 -0.266460316 0.852965475
vt 0.915993346 0.598993459
vn 0.000000000 -0.360779638 0.932651089
f 229/229/229 230/230/230 231/231/231
g frame
v 0.239992025 -0.281224135 0.847254352
vt 0.898348384 0.590153085
vn 0.000000000 -0.360779638 0.932651089
v 0.268537332 -0.266460316 0.852965475
vt 0.915993346 0.598993459
vn 0.000000000 -0.360779638 0.932651089
v 0.249507128 -0.266460316 0.852965475
vt 0.904230039 0.598993459
vn 0.000000000 -0.360779638 0.932651089
f 232/232/232 233/233/233 234/234/234
g frame
v 0.239992025 0.253736062 0.006355815
vt 0.910479972 0.580662734
vn -0.852565259 -0.440952323 -0.280523668
v 0.249507128 0.238972243 0.000644692
vt 0.901639598 0.578382411
vn -0.852565259 -0.440952323 -0.280523668
v 0.249507128 -0.295987955 0.841543229
vt 0.581312710 0.914134280
vn -0.852565259 -0.440952323 -0.280523668
f 235/235/235 236/236/236 237/237/237
g frame
v 0.239992025 0.253736062 0.006355815
vt 0.910479972 0.580662734
vn -0.852565259 -0.440952323 -0.280523668
v 0.249507128 -0.295987955 0.841543229
vt 0.581312710 0.914134280
vn -0.852565259 -0.440952323 -0.280523668
v 0.239992025 -0.281224135 0.847254352
vt 0.590153085 0.916414603
vn -0.852565259 -0.440952323 -0.280523668
f 238/238/238 239/239/239 240/240/240
g frame
v 0.249507128 0.238972243 0.000644692
vt 0.904230039 0.578382411
vn -0.000000000 -0.843732856 -0.536763325
v 0.268537332 0.238972243 0.000644692
vt 0.915993346 0.578382411
vn -0.000000000 -0.843732856 -0.536763325
v 0.268537332 -0.295987955 0.841543229
vt 0.915993346 0.914134280
vn -0.000000000 -0.843732856 -0.536763325
f 241/241/241 242/242/242 243/243/243
g frame
v 0.249507128 0.238972243 0.000644692
vt 0.904230039 0.578382411
vn 0.000000000 -0.843732856 -0.536763325
v 0.268537332 -0.295987955 0.841543229
vt 0.915993346 0.914134280
vn 0.000000000 -0.843732856 -0.536763325
v 0.249507128 -0.295987955 0.841543229
vt 0.904230039 0.914134280
vn 0.000000000 -0.843732856 -0.536763325
f 244/244/244 245/245/245 246/246/246
g frame
v 0.268537332 0.238972243 0.000644692
vt 0.901639598 0.578382411
vn 0.852565259 -0.440952323 -0.280523668
v 0.278052434 0.253736062 0.006355815
vt 0.910479972 0.580662734
vn 0.852565259 -0.440952323 -0.280523668
v 0.278052434 -0.281224135 0.847254352
vt 0.590153085 0.916414603
vn 0.852565259 -0.440952323 -0.280523668
f 247/247/247 248/248/248 249/249/249
g frame
v 0.268537332 0.238972243 0.000644692
vt 0.901639598 0.578382411
vn 0.852565259 -0.440952323 -0.280523668
v 0.278052434 -0.281224135 0.847254352
vt 0.590153085 0.916414603
vn 0.852565259 -0.440952323 -0.280523668
v 0.268537332 -0.295987955 0.841543229
vt 0.581312710 0.914134280
vn 0.852565259 -0.440952323 -0.280523668
f 250/250/250 251/251/251 252/252/252
g frame
v 0.278052434 0.253736062 0.006355815
vt 0.910479972 0.580662734
vn 0.852565259 0.440952323 0.280523668
v 0.268537332 0.268499881 0.012066938
vt 0.919320346 0.582943057
vn 0.852565259 0.440952323 0.280523668
v 0.268537332 -0.266460316 0.852965475
vt 0.598993459 0.918694926
vn 0.852565259 0.440952323 0.280523668
f 253/253/253 254/254/254 255/255/255
g frame
v 0.278052434 0.253736062 0.006355815
vt 0.910479972 0.580662734
vn 0.852565259 0.440952323 0.280523668
v 0.268537332 -0.266460316 0.852965475
vt 0.598993459 0.918694926
vn 0.852565259 0.440952323 0.280523668
v 0.278052434 -0.281224135 0.847254352
vt 0.590153085 0.916414603
vn 0.852565259 0.440952323 0.280523668
f 256/256/256 257/257/257 258/258/258
g frame
v 0.268537332 0.268499881 0.012066938
vt 0.915993346 0.582943057
vn 0.000000000 0.843732856 0.536763325
v 0.249507128 0.268499881 0.012066938
vt 0.904230039 0.582943057
vn 0.000000000 0.843732856 0.536763325
v 0.249507128 -0.266460316 0.852965475
vt 0.904230039 0.918694926
vn 0.000000000 0.843732856 0.536763325
f 259/259/259 260/260/260 261/261/261
g frame
v 0.268537332 0.268499881 0.012066938
vt 0.915993346 0.582943057
vn 0.000000000 0.843732856 0.536763325
v 0.249507128 -0.266460316 0.852965475
vt 0.904230039 0.918694926
vn 0.000000000 0.843732856 0.536763325
v 0.268537332 -0.266460316 0.852965475
vt 0.915993346 0.918694926
vn 0.000000000 0.843732856 0.536763325
f 262/262/262 263/263/263 264/264/264
g frame
v 0.249507128 0.268499881 0.012066938
vt 0.919320346 0.582943057
vn -0.852565259 0.440952323 0.280523668
v 0.239992025 0.253736062 0.006355815
vt 0.910479972 0.580662734
vn -0.852565259 0.440952323 0.280523668
v 0.239992025 -0.281224135 0.847254352
vt 0.590153085 0.916414603
vn -0.852565259 0.440952323 0.280523668
f 265/265/265 266/266/266 267/267/267
g frame
v 0.249507128 0.268499881 0.012066938
vt 0.919320346 0.582943057
vn -0.852565259 0.440952323 0.280523668
v 0.239992025 -0.281224135 0.847254352
vt 0.590153085 0.916414603
vn -0.852565259 0.440952323 0.280523668
v 0.249507128 -0.266460316 0.852965475
vt 0.598993459 0.918694926
vn -0.852565259 0.440952323 0.280523668
f 268/268/268 269/269/269 270/270/270
g frame
v 0.268537332 -0.295548116 0.012711630
vt 0.915993346 0.581576080
vn -0.000000000 -0.405584277 -0.914057654
v 0.249507128 -0.295548116 0.012711630
vt 0.904230039 0.581576080
vn -0.000000000 -0.405584277 -0.914057654
v 0.239992025 -0.281224135 0.006355815
vt 0.898348384 0.590153085
vn -0.000000000 -0.405584277 -0.914057654
f 271/271/271 272/272/272 273/273/273
g frame
v 0.268537332 -0.295548116 0.012711630
vt 0.915993346 0.581576080
vn -0.000000000 -0.405584277 -0.914057654
v 0.239992025 -0.281224135 0.006355815
vt 0.898348384 0.590153085
vn -0.000000000 -0.405584277 -0.914057654
v 0.249507128 -0.266900155 0.000000000
vt 0.904230039 0.598730089
vn -0.000000000 -0.405584277 -0.914057654
f 274/274/274 275/275/275 276/276/276
g frame
v 0.268537332 -0.295548116 0.012711630
vt 0.915993346 0.581576080
vn 0.000000000 -0.405584277 -0.914057654
v 0.249507128 -0.266900155 0.000000000
vt 0.904230039 0.598730089
vn 0.000000000 -0.405584277 -0.914057654
v 0.268537332 -0.266900155 0.000000000
vt 0.915993346 0.598730089
vn 0.000000000 -0.405584277 -0.914057654
f 277/277/277 278/278/278 279/279/279
g frame
v 0.268537332 -0.295548116 0.012711630
vt 0.915993346 0.581576080
vn 0.000000000 -0.405584277 -0.914057654
v 0.268537332 -0.266900155 0.000000000
vt 0.915993346 0.598730089
vn 0.000000000 -0.405584277 -0.914057654
v 0.278052434 -0.281224135 0.006355815
vt 0.921875000 0.590153085
vn 0.000000000 -0.405584277 -0.914057654
f 280/280/280 281/281/281 282/282/282
g frame
v 0.278052434 0.041232110 0.448239752
vt 0.921875000 0.783235497
vn 0.000000000 0.405584277 0.914057654
v 0.268537332 0.055556091 0.441883937
vt 0.915993346 0.791812502
vn 0.000000000 0.405584277 0.914057654
v 0.249507128 0.055556091 0.441883937
vt 0.904230039 0.791812502
vn 0.000000000 0.405584277 0.914057654
f 283/283/283 284/284/284 285/285/285
g frame
v 0.278052434 0.041232110 0.448239752
vt 0.921875000 0.783235497
vn 0.000000000 0.405584277 0.914057654
v 0.249507128 0.055556091 0.441883937
vt 0.904230039 0.791812502
vn 0.000000000 0.405584277 0.914057654
v 0.239992025 0.041232110 0.448239752
vt 0.898348384 0.783235497
vn 0.000000000 0.405584277 0.914057654
f 286/286/286 287/287/287 288/288/288
g frame
v 0.278052434 0.041232110 0.448239752
vt 0.921875000 0.783235497
vn 0.000000000 0.405584277 0.914057654
v 0.239992025 0.041232110 0.448239752
vt 0.898348384 0.783235497
vn 0.000000000 0.405584277 0.914057654
v 0.249507128 0.026908129 0.454595567
vt 0.904230039 0.774658492
vn 0.000000000 0.405584277 0.914057654
f 289/289/289 290/290/290 291/291/291
g frame
v 0.278052434 0.041232110 0.448239752
vt 0.921875000 0.783235497
vn 0.000000000 0.405584277 0.914057654
v 0.249507128 0.026908129 0.454595567
vt 0.904230039 0.774658492
vn 0.000000000 0.405584277 0.914057654
v 0.268537332 0.026908129 0.454595567
vt 0.915993346 0.774658492
vn 0.000000000 0.405584277 0.914057654
f 292/292/292 293/293/293 294/294/294
g frame
v 0.278052434 -0.281224135 0.006355815
vt 0.590153085 0.580662734
vn 0.849446538 0.426250655 -0.311048161
v 0.268537332 -0.266900155 0.000000000
vt 0.598730089 0.578125000
vn 0.849446538 0.426250655 -0.311048161
v 0.268537332 0.055556091 0.441883937
vt 0.791812502 0.754559315
vn 0.849446538 0.426250655 -0.311048161
f 295/295/295 296/296/296 297/297/297
g frame
v 0.278052434 -0.281224135 0.006355815
vt 0.590153085 0.580662734
vn 0.849446538 0.426250655 -0.311048161
v 0.268537332 0.055556091 0.441883937
vt 0.791812502 0.754559315
vn 0.849446538 0.426250655 -0.311048161
v 0.278052434 0.041232110 0.448239752
vt 0.783235497 0.757097049
vn 0.849446538 0.426250655 -0.311048161
f 298/298/298 299/299/299 300/300/300
g frame
v 0.268537332 -0.266900155 0.000000000
vt 0.915993346 0.578125000
vn 0.000000000 0.807790600 -0.589469546
v 0.249507128 -0.266900155 0.000000000
vt 0.904230039 0.578125000
vn 0.000000000 0.807790600 -0.589469546
v 0.249507128 0.055556091 0.441883937
vt 0.904230039 0.754559315
vn 0.000000000 0.807790600 -0.589469546
f 301/301/301 302/302/302 303/303/303
g frame
v 0.268537332 -0.266900155 0.000000000
vt 0.915993346 0.578125000
vn 0.000000000 0.807790600 -0.589469546
v 0.249507128 0.055556091 0.441883937
vt 0.904230039 0.754559315
vn 0.000000000 0.807790600 -0.589469546
v 0.268537332 0.055556091 0.441883937
vt 0.915993346 0.754559315
vn 0.000000000 0.807790600 -0.589469546
f 304/304/304 305/305/305 306/306/306
g frame
v 0.249507128 -0.266900155 0.000000000
vt 0.598730089 0.578125000
vn -0.849446538 0.426250655 -0.311048161
v 0.239992025 -0.281224135 0.006355815
vt 0.590153085 0.580662734
vn -0.849446538 0.426250655 -0.311048161
v 0.239992025 0.041232110 0.448239752
vt 0.783235497 0.757097049
vn -0.849446538 0.426250655 -0.311048161
f 307/307/307 308/308/308 309/309/309
g frame
v 0.249507128 -0.266900155 0.000000000
vt 0.598730089 0.578125000
vn -0.849446538 0.426250655 -0.311048161
v 0.239992025 0.041232110 0.448239752
vt 0.783235497 0.757097049
vn -0.849446538 0.426250655 -0.311048161
v 0.249507128 0.055556091 0.441883937
vt 0.791812502 0.754559315
vn -0.849446538 0.426250655 -0.311048161
f 310/310/310 311/311/311 312/312/312
g frame
v 0.239992025 -0.281224135 0.006355815
vt 0.590153085 0.580662734
vn -0.849446538 -0.426250655 0.311048161
v 0.249507128 -0.295548116 0.012711630
vt 0.581576080 0.583200468
vn -0.849446538 -0.426250655 0.311048161
v 0.249507128 0.026908129 0.454595567
vt 0.774658492 0.759634783
vn -0.849446538 -0.426250655 0.311048161
f 313/313/313 314/314/314 315/315/315
g frame
v 0.239992025 -0.281224135 0.006355815
vt 0.590153085 0.580662734
vn -0.849446538 -0.426250655 0.311048161
v 0.249507128 0.026908129 0.454595567
vt 0.774658492 0.759634783
vn -0.849446538 -0.426250655 0.311048161
v 0.239992025 0.041232110 0.448239752
vt 0.783235497 0.757097049
vn -0.849446538 -0.426250655 0.311048161
f 316/316/316 317/317/317 318/318/318
g frame
v 0.249507128 -0.295548116 0.012711630
vt 0.904230039 0.583200468
vn 0.000000000 -0.807790600 0.589469546
v 0.268537332 -0.295548116 0.012711630
vt 0.915993346 0.583200468
vn 0.000000000 -0.807790600 0.589469546
v 0.268537332 0.026908129 0.454595567
vt 0.915993346 0.759634783
vn 0.000000000 -0.807790600 0.589469546
f 319/319/319 320/320/320 321/321/321
g frame
v 0.249507128 -0.295548116 0.012711630
vt 0.904230039 0.583200468
vn 0.000000000 -0.807790600 0.589469546
v 0.268537332 0.026908129 0.454595567
vt 0.915993346 0.759634783
vn 0.000000000 -0.807790600 0.589469546
v 0.249507128 0.026908129 0.454595567
vt 0.904230039 0.759634783
vn 0.000000000 -0.807790600 0.589469546
f 322/322/322 323/323/323 324/324/324
g frame
v 0.268537332 -0.295548116 0.012711630
vt 0.581576080 0.583200468
vn 0.849446538 -0.426250655 0.311048161
v 0.278052434 -0.281224135 0.006355815
vt 0.590153085 0.580662734
vn 0.849446538 -0.426250655 0.311048161
v 0.278052434 0.041232110 0.448239752
vt 0.783235497 0.757097049
vn 0.849446538 -0.426250655 0.311048161
f 325/325/325 326/326/326 327/327/327
g frame
v 0.268537332 -0.295548116 0.012711630
vt 0.581576080 0.583200468
vn 0.849446538 -0.426250655 0.311048161
v 0.278052434 0.041232110 0.448239752
vt 0.783235497 0.757097049
vn 0.849446538 -0.426250655 0.311048161
v 0.268537332 0.026908129 0.454595567
vt 0.774658492 0.759634783
vn 0.849446538 -0.426250655 0.311048161
f 328/328/328 329/329/329 330/330/330
g frame
v -0.259022230 -0.291796471 0.860930047
vt 0.583822514 0.921875000
vn -1.000000000 0.000000000 0.000000000
v -0.259022230 -0.272766267 0.860930047
vt 0.595217541 0.921875000
vn -1.000000000 0.000000000 0.000000000
v -0.259022230 -0.263251164 0.848078762
vt 0.600915055 0.916743771
vn -1.000000000 0.000000000 0.000000000
f 331/331/331 332/332/332 333/333/333
g frame
v -0.259022230 -0.291796471 0.860930047
vt 0.583822514 0.921875000
vn -1.000000000 0.000000000 0.000000000
v -0.259022230 -0.263251164 0.848078762
vt 0.600915055 0.916743771
vn -1.000000000 0.000000000 0.000000000
v -0.259022230 -0.272766267 0.835227477
vt 0.595217541 0.911612542
vn -1.000000000 0.000000000 0.000000000
f 334/334/334 335/335/335 336/336/336
g frame
v -0.259022230 -0.291796471 0.860930047
vt 0.583822514 0.921875000
vn -1.000000000 0.000000000 0.000000000
v -0.259022230 -0.272766267 0.835227477
vt 0.595217541 0.911612542
vn -1.000000000 0.000000000 0.000000000
v -0.259022230 -0.291796471 0.835227477
vt 0.583822514 0.911612542
vn -1.000000000 0.000000000 0.000000000
f 337/337/337 338/338/338 339/339/339
g frame
v -0.259022230 -0.291796471 0.860930047
vt 0.583822514 0.921875000
vn -1.000000000 0.000000000 -0.000000000
v -0.259022230 -0.291796471 0.835227477
vt 0.583822514 0.911612542
vn -1.000000000 0.000000000 -0.000000000
v -0.259022230 -0.301311573 0.848078762
vt 0.578125000 0.916743771
vn -1.000000000 0.000000000 -0.000000000
f 340/340/340 341/341/341 342/342/342
g frame
v 0.259022230 -0.301311573 0.848078762
vt 0.578125000 0.916743771
vn 1.000000000 0.000000000 0.000000000
v 0.259022230 -0.291796471 0.835227477
vt 0.583822514 0.911612542
vn 1.000000000 0.000000000 0.000000000
v 0.259022230 -0.272766267 0.835227477
vt 0.595217541 0.911612542
vn 1.000000000 0.000000000 0.000000000
f 343/343/343 344/344/344 345/345/345
g frame
v 0.259022230 -0.301311573 0.848078762
vt 0.578125000 0.916743771
vn 1.000000000 -0.000000000 0.000000000
v 0.259022230 -0.272766267 0.835227477
vt 0.595217541 0.911612542
vn 1.000000000 -0.000000000 0.000000000
v 0.259022230 -0.263251164 0.848078762
vt 0.600915055 0.916743771
vn 1.000000000 -0.000000000 0.000000000
f 346/346/346 347/347/347 348/348/348
g frame
v 0.259022230 -0.301311573 0.848078762
vt 0.578125000 0.916743771
vn 1.000000000 0.000000000 0.000000000
v 0.259022230 -0.263251164 0.848078762
vt 0.600915055 0.916743771
vn 1.000000000 0.000000000 0.000000000
v 0.259022230 -0.272766267 0.860930047
vt 0.595217541 0.921875000
vn 1.000000000 0.000000000 0.000000000
f 349/349/349 350/350/350 351/351/351
g frame
v 0.259022230 -0.301311573 0.848078762
vt 0.578125000 0.916743771
vn 1.000000000 0.000000000 0.000000000
v 0.259022230 -0.272766267 0.860930047
vt 0.595217541 0.921875000
vn 1.000000000 0.000000000 0.000000000
v 0.259022230 -0.291796471 0.860930047
vt 0.583822514 0.921875000
vn 1.000000000 0.000000000 0.000000000
f 352/352/352 353/353/353 354/354/354
g frame
v -0.259022230 -0.301311573 0.848078762
vt 0.589888308 0.916743771
vn 0.000000000 -0.803687834 -0.595051145
v -0.259022230 -0.291796471 0.835227477
vt 0.589888308 0.911612542
vn 0.000000000 -0.803687834 -0.595051145
v 0.259022230 -0.291796471 0.835227477
vt 0.910111692 0.911612542
vn 0.000000000 -0.803687834 -0.595051145
f 355/355/355 356/356/356 357/357/357
g frame
v -0.259022230 -0.301311573 0.848078762
vt 0.589888308 0.916743771
vn 0.000000000 -0.803687834 -0.595051145
v 0.259022230 -0.291796471 0.835227477
vt 0.910111692 0.911612542
vn 0.000000000 -0.803687834 -0.595051145
v 0.259022230 -0.301311573 0.848078762
vt 0.910111692 0.916743771
vn 0.000000000 -0.803687834 -0.595051145
f 358/358/358 359/359/359 360/360/360
g frame
v -0.259022230 -0.291796471 0.835227477
vt 0.589888308 0.583822514
vn 0.000000000 0.000000000 -1.000000000
v -0.259022230 -0.272766267 0.835227477
vt 0.589888308 0.595217541
vn 0.000000000 0.000000000 -1.000000000
v 0.259022230 -0.272766267 0.835227477
vt 0.910111692 0.595217541
vn 0.000000000 0.000000000 -1.000000000
f 361/361/361 362/362/362 363/363/363
g frame
v -0.259022230 -0.291796471 0.835227477
vt 0.589888308 0.583822514
vn 0.000000000 0.000000000 -1.000000000
v 0.259022230 -0.272766267 0.835227477
vt 0.910111692 0.595217541
vn 0.000000000 0.000000000 -1.000000000
v 0.259022230 -0.291796471 0.835227477
vt 0.910111692 0.583822514
vn 0.000000000 0.000000000 -1.000000000
f 364/364/364 365/365/365 366/366/366
g frame
v -0.259022230 -0.272766267 0.835227477
vt 0.589888308 0.911612542
vn 0.000000000 0.803687834 -0.595051145
v -0.259022230 -0.263251164 0.848078762
vt 0.589888308 0.916743771
vn 0.000000000 0.803687834 -0.595051145
v 0.259022230 -0.263251164 0.848078762
vt 0.910111692 0.916743771
vn 0.000000000 0.803687834 -0.595051145
f 367/367/367 368/368/368 369/369/369
g frame
v -0.259022230 -0.272766267 0.835227477
vt 0.589888308 0.911612542
vn 0.000000000 0.803687834 -0.595051145
v 0.259022230 -0.263251164 0.848078762
vt 0.910111692 0.916743771
vn 0.000000000 0.803687834 -0.595051145
v 0.259022230 -0.272766267 0.835227477
vt 0.910111692 0.911612542
vn 0.000000000 0.803687834 -0.595051145
f 370/370/370 371/371/371 372/372/372
g frame
v -0.259022230 -0.263251164 0.848078762
vt 0.589888308 0.916743771
vn 0.000000000 0.803687834 0.595051145
v -0.259022230 -0.272766267 0.860930047
vt 0.589888308 0.921875000
vn 0.000000000 0.803687834 0.595051145
v 0.259022230 -0.272766267 0.860930047
vt 0.910111692 0.921875000
vn 0.000000000 0.803687834 0.595051145
f 373/373/373 374/374/374 375/375/375
g frame
v -0.259022230 -0.263251164 0.848078762
vt 0.589888308 0.916743771
vn -0.000000000 0.803687834 0.595051145
v 0.259022230 -0.272766267 0.860930047
vt 0.910111692 0.921875000
vn -0.000000000 0.803687834 0.595051145
v 0.259022230 -0.263251164 0.848078762
vt 0.910111692 0.916743771
vn -0.000000000 0.803687834 0.595051145
f 376/376/376 377/377/377 378/378/378
g frame
v -0.259022230 -0.272766267 0.860930047
vt 0.589888308 0.595217541
vn 0.000000000 0.000000000 1.000000000
v -0.259022230 -0.291796471 0.860930047
vt 0.589888308 0.583822514
vn 0.000000000 0.000000000 1.000000000
v 0.259022230 -0.291796471 0.860930047
vt 0.910111692 0.583822514
vn 0.000000000 0.000000000 1.000000000
f 379/379/379 380/380/380 381/381/381
g frame
v -0.259022230 -0.272766267 0.860930047
vt 0.589888308 0.595217541
vn -0.000000000 0.000000000 1.000000000
v 0.259022230 -0.291796471 0.860930047
vt 0.910111692 0.583822514
vn -0.000000000 0.000000000 1.000000000
v 0.259022230 -0.272766267 0.860930047
vt 0.910111692 0.595217541
vn -0.000000000 0.000000000 1.000000000
f 382/382/382 383/383/383 384/384/384
g frame
v -0.259022230 -0.291796471 0.860930047
vt 0.589888308 0.921875000
vn 0.000000000 -0.803687834 0.595051145
v -0.259022230 -0.301311573 0.848078762
vt 0.589888308 0.916743771
vn 0.000000000 -0.803687834 0.595051145
v 0.259022230 -0.301311573 0.848078762
vt 0.910111692 0.916743771
vn 0.000000000 -0.803687834 0.595051145
f 385/385/385 386/386/386 387/387/387
g frame
v -0.259022230 -0.291796471 0.860930047
vt 0.589888308 0.921875000
vn 0.000000000 -0.803687834 0.595051145
v 0.259022230 -0.301311573 0.848078762
vt 0.910111692 0.916743771
vn 0.000000000 -0.803687834 0.595051145
v 0.259022230 -0.291796471 0.860930047
vt 0.910111692 0.921875000
vn 0.000000000 -0.803687834 0.595051145
f 388/388/388 389/389/389 390/390/390
g frame
v -0.259022230 0.244220960 0.028275614
vt 0.904782459 0.589414817
vn -1.000000000 0.000000000 0.000000000
v -0.259022230 0.263251164 0.028275614
vt 0.916177486 0.589414817
vn -1.000000000 0.000000000 0.000000000
v -0.259022230 0.272766267 0.015424329
vt 0.921875000 0.584283588
vn -1.000000000 0.000000000 0.000000000
f 391/391/391 392/392/392 393/393/393
g frame
v -0.259022230 0.244220960 0.028275614
vt 0.904782459 0.589414817
vn -1.000000000 0.000000000 0.000000000
v -0.259022230 0.272766267 0.015424329
vt 0.921875000 0.584283588
vn -1.000000000 0.000000000 0.000000000
v -0.259022230 0.263251164 0.002573043
vt 0.916177486 0.579152358
vn -1.000000000 0.000000000 0.000000000
f 394/394/394 395/395/395 396/396/396
g frame
v -0.259022230 0.244220960 0.028275614
vt 0.904782459 0.589414817
vn -1.000000000 0.000000000 0.000000000
v -0.259022230 0.263251164 0.002573043
vt 0.916177486 0.579152358
vn -1.000000000 0.000000000 0.000000000
v -0.259022230 0.244220960 0.002573043
vt 0.904782459 0.579152358
vn -1.000000000 0.000000000 0.000000000
f 397/397/397 398/398/398 399/399/399
g frame
v -0.259022230 0.244220960 0.028275614
vt 0.904782459 0.589414817
vn -1.000000000 0.000000000 -0.000000000
v -0.259022230 0.244220960 0.002573043
vt 0.904782459 0.579152358
vn -1.000000000 0.000000000 -0.000000000
v -0.259022230 0.234705857 0.015424329
vt 0.899084944 0.584283588
vn -1.000000000 0.000000000 -0.000000000
f 400/400/400 401/401/401 402/402/402
g frame
v 0.259022230 0.234705857 0.015424329
vt 0.899084944 0.584283588
vn 1.000000000 0.000000000 0.000000000
v 0.259022230 0.244220960 0.002573043
vt 0.904782459 0.579152358
vn 1.000000000 0.000000000 0.000000000
v 0.259022230 0.263251164 0.002573043
vt 0.916177486 0.579152358
vn 1.000000000 0.000000000 0.000000000
f 403/403/403 404/404/404 405/405/405
g frame
v 0.259022230 0.234705857 0.015424329
vt 0.899084944 0.584283588
vn 1.000000000 0.000000000 0.000000000
v 0.259022230 0.263251164 0.002573043
vt 0.916177486 0.579152358
vn 1.000000000 0.000000000 0.000000000
v 0.259022230 0.272766267 0.015424329
vt 0.921875000 0.584283588
vn 1.000000000 0.000000000 0.000000000
f 406/406/406 407/407/407 408/408/408
g frame
v 0.259022230 0.234705857 0.015424329
vt 0.899084944 0.584283588
vn 1.000000000 -0.000000000 0.000000000
v 0.259022230 0.272766267 0.015424329
vt 0.921875000 0.584283588
vn 1.000000000 -0.000000000 0.000000000
v 0.259022230 0.263251164 0.028275614
vt 0.916177486 0.589414817
vn 1.000000000 -0.000000000 0.000000000
f 409/409/409 410/410/410 411/411/411
g frame
v 0.259022230 0.234705857 0.015424329
vt 0.899084944 0.584283588
vn 1.000000000 0.000000000 0.000000000
v 0.259022230 0.263251164 0.028275614
vt 0.916177486 0.589414817
vn 1.000000000 0.000000000 0.000000000
v 0.259022230 0.244220960 0.028275614
vt 0.904782459 0.589414817
vn 1.000000000 0.000000000 0.000000000
f 412/412/412 413/413/413 414/414/414
g frame
v -0.259022230 0.234705857 0.015424329
vt 0.589888308 0.584283588
vn 0.000000000 -0.803687834 -0.595051145
v -0.259022230 0.244220960 0.002573043
vt 0.589888308 0.579152358
vn 0.000000000 -0.803687834 -0.595051145
v 0.259022230 0.244220960 0.002573043
vt 0.910111692 0.579152358
vn 0.000000000 -0.803687834 -0.595051145
f 415/415/415 416/416/416 417/417/417
g frame
v -0.259022230 0.234705857 0.015424329
vt 0.589888308 0.584283588
vn 0.000000000 -0.803687834 -0.595051145
v 0.259022230 0.244220960 0.002573043
vt 0.910111692 0.579152358
vn 0.000000000 -0.803687834 -0.595051145
v 0.259022230 0.234705857 0.015424329
vt 0.910111692 0.584283588
vn 0.000000000 -0.803687834 -0.595051145
f 418/418/418 419/419/419 420/420/420
g frame
v -0.259022230 0.244220960 0.002573043
vt 0.589888308 0.904782459
vn 0.000000000 -0.000000000 -1.000000000
v -0.259022230 0.263251164 0.002573043
vt 0.589888308 0.916177486
vn 0.000000000 -0.000000000 -1.000000000
v 0.259022230 0.263251164 0.002573043
vt 0.910111692 0.916177486
vn 0.000000000 -0.000000000 -1.000000000
f 421/421/421 422/422/422 423/423/423
g frame
v -0.259022230 0.244220960 0.002573043
vt 0.589888308 0.904782459
vn 0.000000000 -0.000000000 -1.000000000
v 0.259022230 0.263251164 0.002573043
vt 0.910111692 0.916177486
vn 0.000000000 -0.000000000 -1.000000000
v 0.259022230 0.244220960 0.002573043
vt 0.910111692 0.904782459
vn 0.000000000 -0.000000000 -1.000000000
f 424/424/424 425/425/425 426/426/426
g frame
v -0.259022230 0.263251164 0.002573043
vt 0.589888308 0.579152358
vn 0.000000000 0.803687834 -0.595051145
v -0.259022230 0.272766267 0.015424329
vt 0.589888308 0.584283588
vn 0.000000000 0.803687834 -0.595051145
v 0.259022230 0.272766267 0.015424329
vt 0.910111692 0.584283588
vn 0.000000000 0.803687834 -0.595051145
f 427/427/427 428/428/428 429/429/429
g frame
v -0.259022230 0.263251164 0.002573043
vt 0.589888308 0.579152358
vn 0.000000000 0.803687834 -0.595051145
v 0.259022230 0.272766267 0.015424329
vt 0.910111692 0.584283588
vn 0.000000000 0.803687834 -0.595051145
v 0.259022230 0.263251164 0.002573043
vt 0.910111692 0.579152358
vn 0.000000000 0.803687834 -0.595051145
f 430/430/430 431/431/431 432/432/432
g frame
v -0.259022230 0.272766267 0.015424329
vt 0.589888308 0.584283588
vn 0.000000000 0.803687834 0.595051145
v -0.259022230 0.263251164 0.028275614
vt 0.589888308 0.589414817
vn 0.000000000 0.803687834 0.595051145
v 0.259022230 0.263251164 0.028275614
vt 0.910111692 0.589414817
vn 0.000000000 0.803687834 0.595051145
f 433/433/433 434/434/434 435/435/435
g frame
v -0.259022230 0.272766267 0.015424329
vt 0.589888308 0.584283588
vn -0.000000000 0.803687834 0.595051145
v 0.259022230 0.263251164 0.028275614
vt 0.910111692 0.589414817
vn -0.000000000 0.803687834 0.595051145
v 0.259022230 0.272766267 0.015424329
vt 0.910111692 0.584283588
vn -0.000000000 0.803687834 0.595051145
f 436/436/436 437/437/437 438/438/438
g frame
v -0.259022230 0.263251164 0.028275614
vt 0.589888308 0.916177486
vn 0.000000000 0.000000000 1.000000000
v -0.259022230 0.244220960 0.028275614
vt 0.589888308 0.904782459
vn 0.000000000 0.000000000 1.000000000
v 0.259022230 0.244220960 0.028275614
vt 0.910111692 0.904782459
vn 0.000000000 0.000000000 1.000000000
f 439/439/439 440/440/440 441/441/441
g frame
v -0.259022230 0.263251164 0.028275614
vt 0.589888308 0.916177486
vn -0.000000000 0.000000000 1.000000000
v 0.259022230 0.244220960 0.028275614
vt 0.910111692 0.904782459
vn -0.000000000 0.000000000 1.000000000
v 0.259022230 0.263251164 0.028275614
vt 0.910111692 0.916177486
vn -0.000000000 0.000000000 1.000000000
f 442/442/442 443/443/443 444/444/444
g frame
v -0.259022230 0.244220960 0.028275614
vt 0.589888308 0.589414817
vn 0.000000000 -0.803687834 0.595051145
v -0.259022230 0.234705857 0.015424329
vt 0.589888308 0.584283588
vn 0.000000000 -0.803687834 0.595051145
v 0.259022230 0.234705857 0.015424329
vt 0.910111692 0.584283588
vn 0.000000000 -0.803687834 0.595051145
f 445/445/445 446/446/446 447/447/447
g frame
v -0.259022230 0.244220960 0.028275614
vt 0.589888308 0.589414817
vn 0.000000000 -0.803687834 0.595051145
v 0.259022230 0.234705857 0.015424329
vt 0.910111692 0.584283588
vn 0.000000000 -0.803687834 0.595051145
v 0.259022230 0.244220960 0.028275614
vt 0.910111692 0.589414817
vn 0.000000000 -0.803687834 0.595051145
f 448/448/448 449/449/449 450/450/450
g frame
v -0.259022230 -0.291796471 0.028275614
vt 0.583822514 0.589414817
vn -1.000000000 0.000000000 0.000000000
v -0.259022230 -0.272766267 0.028275614
vt 0.595217541 0.589414817
vn -1.000000000 0.000000000 0.000000000
v -0.259022230 -0.263251164 0.015424329
vt 0.600915055 0.584283588
vn -1.000000000 0.000000000 0.000000000
f 451/451/451 452/452/452 453/453/453
g frame
v -0.259022230 -0.291796471 0.028275614
vt 0.583822514 0.589414817
vn -1.000000000 0.000000000 0.000000000
v -0.259022230 -0.263251164 0.015424329
vt 0.600915055 0.584283588
vn -1.000000000 0.000000000 0.000000000
v -0.259022230 -0.272766267 0.002573043
vt 0.595217541 0.579152358
vn -1.000000000 0.000000000 0.000000000
f 454/454/454 455/455/455 456/456/456
g frame
v -0.259022230 -0.291796471 0.028275614
vt 0.583822514 0.589414817
vn -1.000000000 0.000000000 0.000000000
v -0.259022230 -0.272766267 0.002573043
vt 0.595217541 0.579152358
vn -1.000000000 0.000000000 0.000000000
v -0.259022230 -0.291796471 0.002573043
vt 0.583822514 0.579152358
vn -1.000000000 0.000000000 0.000000000
f 457/457/457 458/458/458 459/459/459
g frame
v -0.259022230 -0.291796471 0.028275614
vt 0.583822514 0.589414817
vn -1.000000000 0.000000000 -0.000000000
v -0.259022230 -0.291796471 0.002573043
vt 0.583822514 0.579152358
vn -1.000000000 0.000000000 -0.000000000
v -0.259022230 -0.301311573 0.015424329
vt 0.578125000 0.584283588
vn -1.000000000 0.000000000 -0.000000000
f 460/460/460 461/461/461 462/462/462
g frame
v 0.259022230 -0.301311573 0.015424329
vt 0.578125000 0.584283588
vn 1.000000000 0.000000000 0.000000000
v 0.259022230 -0.291796471 0.002573043
vt 0.583822514 0.579152358
vn 1.000000000 0.000000000 0.000000000
v 0.259022230 -0.272766267 0.002573043
vt 0.595217541 0.579152358
vn 1.000000000 0.000000000 0.000000000
f 463/463/463 464/464/464 465/465/465
g frame
v 0.259022230 -0.301311573 0.015424329
vt 0.578125000 0.584283588
vn 1.000000000 0.000000000 0.000000000
v 0.259022230 -0.272766267 0.002573043
vt 0.595217541 0.579152358
vn 1.000000000 0.000000000 0.000000000
v 0.259022230 -0.263251164 0.015424329
vt 0.600915055 0.584283588
vn 1.000000000 0.000000000 0.000000000
f 466/466/466 467/467/467 468/468/468
g frame
v 0.259022230 -0.301311573 0.015424329
vt 0.578125000 0.584283588
vn 1.000000000 -0.000000000 0.000000000
v 0.259022230 -0.263251164 0.015424329
vt 0.600915055 0.584283588
vn 1.000000000 -0.000000000 0.000000000
v 0.259022230 -0.272766267 0.028275614
vt 0.595217541 0.589414817
vn 1.000000000 -0.000000000 0.000000000
f 469/469/469 470/470/470 471/471/471
g frame
v 0.259022230 -0.301311573 0.015424329
vt 0.578125000 0.584283588
vn 1.000000000 0.000000000 0.000000000
v 0.259022230 -0.272766267 0.028275614
vt 0.595217541 0.589414817
vn 1.000000000 0.000000000 0.000000000
v 0.259022230 -0.291796471 0.028275614
vt 0.583822514 0.589414817
vn 1.000000000 0.000000000 0.000000000
f 472/472/472 473/473/473 474/474/474
g frame
v -0.259022230 -0.301311573 0.015424329
vt 0.589888308 0.584283588
vn 0.000000000 -0.803687834 -0.595051145
v -0.259022230 -0.291796471 0.002573043
vt 0.589888308 0.579152358
vn 0.000000000 -0.803687834 -0.595051145
v 0.259022230 -0.291796471 0.002573043
vt 0.910111692 0.579152358
vn 0.000000000 -0.803687834 -0.595051145
f 475/475/475 476/476/476 477/477/477
g frame
v -0.259022230 -0.301311573 0.015424329
vt 0.589888308 0.584283588
vn 0.000000000 -0.803687834 -0.595051145
v 0.259022230 -0.291796471 0.002573043
vt 0.910111692 0.579152358
vn 0.000000000 -0.803687834 -0.595051145
v 0.259022230 -0.301311573 0.015424329
vt 0.910111692 0.584283588
vn 0.000000000 -0.803687834 -0.595051145
f 478/478/478 479/479/479 480/480/480
g frame
v -0.259022230 -0.291796471 0.002573043
vt 0.589888308 0.583822514
vn 0.000000000 -0.000000000 -1.000000000
v -0.259022230 -0.272766267 0.002573043
vt 0.589888308 0.595217541
vn 0.000000000 -0.000000000 -1.000000000
v 0.259022230 -0.272766267 0.002573043
vt 0.910111692 0.595217541
vn 0.000000000 -0.000000000 -1.000000000
f 481/481/481 482/482/482 483/483/483
g frame
v -0.259022230 -0.291796471 0.002573043
vt 0.589888308 0.583822514
vn 0.000000000 -0.000000000 -1.000000000
v 0.259022230 -0.272766267 0.002573043
vt 0.910111692 0.595217541
vn 0.000000000 -0.000000000 -1.000000000
v 0.259022230 -0.291796471 0.002573043
vt 0.910111692 0.583822514
vn 0.000000000 -0.000000000 -1.000000000
f 484/484/484 485/485/485 486/486/486
g frame
v -0.259022230 -0.272766267 0.002573043
vt 0.589888308 0.579152358
vn 0.000000000 0.803687834 -0.595051145
v -0.259022230 -0.263251164 0.015424329
vt 0.589888308 0.584283588
vn 0.000000000 0.803687834 -0.595051145
v 0.259022230 -0.263251164 0.015424329
vt 0.910111692 0.584283588
vn 0.000000000 0.803687834 -0.595051145
f 487/487/487 488/488/488 489/489/489
g frame
v -0.259022230 -0.272766267 0.002573043
vt 0.589888308 0.579152358
vn 0.000000000 0.803687834 -0.595051145
v 0.259022230 -0.263251164 0.015424329
vt 0.910111692 0.584283588
vn 0.000000000 0.803687834 -0.595051145
v 0.259022230 -0.272766267 0.002573043
vt 0.910111692 0.579152358
vn 0.000000000 0.803687834 -0.595051145
f 490/490/490 491/491/491 492/492/492
g frame
v -0.259022230 -0.263251164 0.015424329
vt 0.589888308 0.584283588
vn 0.000000000 0.803687834 0.595051145
v -0.259022230 -0.272766267 0.028275614
vt 0.589888308 0.589414817
vn 0.000000000 0.803687834 0.595051145
v 0.259022230 -0.272766267 0.028275614
vt 0.910111692 0.589414817
vn 0.000000000 0.803687834 0.595051145
f 493/493/493 494/494/494 495/495/495
g frame
v -0.259022230 -0.263251164 0.015424329
vt 0.589888308 0.584283588
vn -0.000000000 0.803687834 0.595051145
v 0.259022230 -0.272766267 0.028275614
vt 0.910111692 0.589414817
vn -0.000000000 0.803687834 0.595051145
v 0.259022230 -0.263251164 0.015424329
vt 0.910111692 0.584283588
vn -0.000000000 0.803687834 0.595051145
f 496/496/496 497/497/497 498/498/498
g frame
v -0.259022230 -0.272766267 0.028275614
vt 0.589888308 0.595217541
vn 0.000000000 0.000000000 1.000000000
v -0.259022230 -0.291796471 0.028275614
vt 0.589888308 0.583822514
vn 0.000000000 0.000000000 1.000000000
v 0.259022230 -0.291796471 0.028275614
vt 0.910111692 0.583822514
vn 0.000000000 0.000000000 1.000000000
f 499/499/499 500/500/500 501/501/501
g frame
v -0.259022230 -0.272766267 0.028275614
vt 0.589888308 0.595217541
vn -0.000000000 0.000000000 1.000000000
v 0.259022230 -0.291796471 0.028275614
vt 0.910111692 0.583822514
vn -0.000000000 0.000000000 1.000000000
v 0.259022230 -0.272766267 0.028275614
vt 0.910111692 0.595217541
vn -0.000000000 0.000000000 1.000000000
f 502/502/502 503/503/503 504/504/504
g frame
v -0.259022230 -0.291796471 0.028275614
vt 0.589888308 0.589414817
vn 0.000000000 -0.803687834 0.595051145
v -0.259022230 -0.301311573 0.015424329
vt 0.589888308 0.584283588
vn 0.000000000 -0.803687834 0.595051145
v 0.259022230 -0.301311573 0.015424329
vt 0.910111692 0.584283588
vn 0.000000000 -0.803687834 0.595051145
f 505/505/505 506/506/506 507/507/507
g frame
v -0.259022230 -0.291796471 0.028275614
vt 0.589888308 0.589414817
vn 0.000000000 -0.803687834 0.595051145
v 0.259022230 -0.301311573 0.015424329
vt 0.910111692 0.584283588
vn 0.000000000 -0.803687834 0.595051145
v 0.259022230 -0.291796471 0.028275614
vt 0.910111692 0.589414817
vn 0.000000000 -0.803687834 0.595051145
f 508/508/508 509/509/509 510/510/510
g back
v -0.223076288 -0.243163726 0.801911784
vt 0.078125000 0.421875000
vn -0.000000000 0.850512994 0.525954035
v 0.223076288 -0.243163726 0.801911784
vt 0.421875000 0.421875000
vn -0.000000000 0.850512994 0.525954035
v 0.213561185 -0.114181228 0.593335970
vt 0.414543838 0.078125000
vn -0.000000000 0.850512994 0.525954035
f 511/511/511 512/512/512 513/513/513
g back
v -0.223076288 -0.243163726 0.801911784
vt 0.078125000 0.421875000
vn 0.000000000 0.850512994 0.525954035
v 0.213561185 -0.114181228 0.593335970
vt 0.414543838 0.078125000
vn 0.000000000 0.850512994 0.525954035
v -0.213561185 -0.114181228 0.593335970
vt 0.085456162 0.078125000
vn 0.000000000 0.850512994 0.525954035
f 514/514/514 515/515/515 516/516/516
g back
v -0.213561185 -0.151184404 0.593335970
vt 0.085456162 0.078125000
vn 0.000000000 -0.850512994 -0.525954035
v 0.213561185 -0.151184404 0.593335970
vt 0.414543838 0.078125000
vn 0.000000000 -0.850512994 -0.525954035
v 0.223076288 -0.280166902 0.801911784
vt 0.421875000 0.421875000
vn 0.000000000 -0.850512994 -0.525954035
f 517/517/517 518/518/518 519/519/519
g back
v -0.213561185 -0.151184404 0.593335970
vt 0.085456162 0.078125000
vn 0.000000000 -0.850512994 -0.525954035
v 0.223076288 -0.280166902 0.801911784
vt 0.421875000 0.421875000
vn 0.000000000 -0.850512994 -0.525954035
v -0.223076288 -0.280166902 0.801911784
vt 0.078125000 0.421875000
vn 0.000000000 -0.850512994 -0.525954035
f 520/520/520 521/521/521 522/522/522
g back
v -0.213561185 -0.114181228 0.593335970
vt 0.085456162 0.421875000
vn 0.000000000 0.000000000 -1.000000000
v 0.213561185 -0.114181228 0.593335970
vt 0.414543838 0.421875000
vn 0.000000000 0.000000000 -1.000000000
v 0.213561185 -0.151184404 0.593335970
vt 0.414543838 0.345242834
vn 0.000000000 0.000000000 -1.000000000
f 523/523/523 524/524/524 525/525/525
g back
v -0.213561185 -0.114181228 0.593335970
vt 0.085456162 0.421875000
vn 0.000000000 0.000000000 -1.000000000
v 0.213561185 -0.151184404 0.593335970
vt 0.414543838 0.345242834
vn 0.000000000 0.000000000 -1.000000000
v -0.213561185 -0.151184404 0.593335970
vt 0.085456162 0.345242834
vn 0.000000000 0.000000000 -1.000000000
f 526/526/526 527/527/527 528/528/528
g back
v 0.213561185 -0.114181228 0.593335970
vt 0.421875000 0.078125000
vn 0.998961057 0.000000000 -0.045571999
v 0.223076288 -0.243163726 0.801911784
vt 0.154757166 0.421875000
vn 0.998961057 0.000000000 -0.045571999
v 0.223076288 -0.280166902 0.801911784
vt 0.078125000 0.421875000
vn 0.998961057 0.000000000 -0.045571999
f 529/529/529 530/530/530 531/531/531
g back
v 0.213561185 -0.114181228 0.593335970
vt 0.421875000 0.078125000
vn 0.998961057 0.000000000 -0.045571999
v 0.223076288 -0.280166902 0.801911784
vt 0.078125000 0.421875000
vn 0.998961057 0.000000000 -0.045571999
v 0.213561185 -0.151184404 0.593335970
vt 0.345242834 0.078125000
vn 0.998961057 0.000000000 -0.045571999
f 532/532/532 533/533/533 534/534/534
g back
v 0.223076288 -0.243163726 0.801911784
vt 0.421875000 0.154757166
vn 0.000000000 0.000000000 1.000000000
v -0.223076288 -0.243163726 0.801911784
vt 0.078125000 0.154757166
vn 0.000000000 0.000000000 1.000000000
v -0.223076288 -0.280166902 0.801911784
vt 0.078125000 0.078125000
vn 0.000000000 0.000000000 1.000000000
f 535/535/535 536/536/536 537/537/537
g back
v 0.223076288 -0.243163726 0.801911784
vt 0.421875000 0.154757166
vn 0.000000000 0.000000000 1.000000000
v -0.223076288 -0.280166902 0.801911784
vt 0.078125000 0.078125000
vn 0.000000000 0.000000000 1.000000000
v 0.223076288 -0.280166902 0.801911784
vt 0.421875000 0.078125000
vn 0.000000000 0.000000000 1.000000000
f 538/538/538 539/539/539 540/540/540
g back
v -0.223076288 -0.243163726 0.801911784
vt 0.154757166 0.421875000
vn -0.998961057 0.000000000 -0.045571999
v -0.213561185 -0.114181228 0.593335970
vt 0.421875000 0.078125000
vn -0.998961057 0.000000000 -0.045571999
v -0.213561185 -0.151184404 0.593335970
vt 0.345242834 0.078125000
vn -0.998961057 0.000000000 -0.045571999
f 541/541/541 542/542/542 543/543/543
g back
v -0.223076288 -0.243163726 0.801911784
vt 0.154757166 0.421875000
vn -0.998961057 -0.000000000 -0.045571999
v -0.213561185 -0.151184404 0.593335970
vt 0.345242834 0.078125000
vn -0.998961057 -0.000000000 -0.045571999
v -0.223076288 -0.280166902 0.801911784
vt 0.078125000 0.421875000
vn -0.998961057 -0.000000000 -0.045571999
f 544/544/544 545/545/545 546/546/546
