# G015 native chair fidelity candidate; tile units XYZ, Z up.
# Surface charts and native palette swatches; 32x32 PNG, nearest sampling.
mtllib pz_chair_seating_indoor_01_grey_fidelity_r1.mtl
o pz_chair_seating_indoor_01_grey_fidelity_r1
usemtl pz_chair_seating_indoor_01_grey_fidelity_r1_PS1
g seat
v 0.000000000 0.000000000 0.415208627
vt 0.250000000 0.750000000
vn 0.000000000 0.091524489 0.995802826
v -0.187144691 -0.206339019 0.434173299
vt 0.107380319 0.578125000
vn 0.000000000 0.091524489 0.995802826
v 0.187144691 -0.206339019 0.434173299
vt 0.392619681 0.578125000
vn 0.000000000 0.091524489 0.995802826
f 1/1/1 2/2/2 3/3/3
g seat
v -0.187144691 -0.206339019 0.434173299
vt 0.107380319 0.898083442
vn 0.000000000 -1.000000000 0.000000000
v -0.187144691 -0.206339019 0.387130237
vt 0.107380319 0.578125000
vn 0.000000000 -1.000000000 0.000000000
v 0.187144691 -0.206339019 0.387130237
vt 0.392619681 0.578125000
vn 0.000000000 -1.000000000 0.000000000
f 4/4/4 5/5/5 6/6/6
g seat
v -0.187144691 -0.206339019 0.434173299
vt 0.107380319 0.898083442
vn 0.000000000 -1.000000000 0.000000000
v 0.187144691 -0.206339019 0.387130237
vt 0.392619681 0.578125000
vn 0.000000000 -1.000000000 0.000000000
v 0.187144691 -0.206339019 0.434173299
vt 0.392619681 0.898083442
vn 0.000000000 -1.000000000 0.000000000
f 7/7/7 8/8/8 9/9/9
g seat
v 0.000000000 0.000000000 0.415208627
vt 0.250000000 0.750000000
vn -0.095540014 0.004836167 0.995413842
v 0.187144691 -0.206339019 0.434173299
vt 0.392619681 0.578125000
vn -0.095540014 0.004836167 0.995413842
v 0.225533346 -0.167950364 0.437671340
vt 0.421875000 0.610101744
vn -0.095540014 0.004836167 0.995413842
f 10/10/10 11/11/11 12/12/12
g seat
v 0.187144691 -0.206339019 0.434173299
vt 0.078125000 0.898083442
vn 0.707106781 -0.707106781 0.000000000
v 0.187144691 -0.206339019 0.387130237
vt 0.078125000 0.578125000
vn 0.707106781 -0.707106781 0.000000000
v 0.225533346 -0.167950364 0.387130237
vt 0.110101744 0.578125000
vn 0.707106781 -0.707106781 0.000000000
f 13/13/13 14/14/14 15/15/15
g seat
v 0.187144691 -0.206339019 0.434173299
vt 0.078125000 0.898083442
vn 0.707106781 -0.707106781 0.000000000
v 0.225533346 -0.167950364 0.387130237
vt 0.110101744 0.578125000
vn 0.707106781 -0.707106781 0.000000000
v 0.225533346 -0.167950364 0.437671340
vt 0.110101744 0.921875000
vn 0.707106781 -0.707106781 0.000000000
f 16/16/16 17/17/17 18/18/18
g seat
v 0.000000000 0.000000000 0.415208627
vt 0.250000000 0.750000000
vn -0.099107836 0.000000000 0.995076699
v 0.225533346 -0.167950364 0.437671340
vt 0.421875000 0.610101744
vn -0.099107836 0.000000000 0.995076699
v 0.225533346 0.167950364 0.437671340
vt 0.421875000 0.889898256
vn -0.099107836 0.000000000 0.995076699
f 19/19/19 20/20/20 21/21/21
g seat
v 0.225533346 -0.167950364 0.437671340
vt 0.110101744 0.921875000
vn 1.000000000 0.000000000 0.000000000
v 0.225533346 -0.167950364 0.387130237
vt 0.110101744 0.578125000
vn 1.000000000 0.000000000 0.000000000
v 0.225533346 0.167950364 0.387130237
vt 0.389898256 0.578125000
vn 1.000000000 0.000000000 0.000000000
f 22/22/22 23/23/23 24/24/24
g seat
v 0.225533346 -0.167950364 0.437671340
vt 0.110101744 0.921875000
vn 1.000000000 -0.000000000 0.000000000
v 0.225533346 0.167950364 0.387130237
vt 0.389898256 0.578125000
vn 1.000000000 -0.000000000 0.000000000
v 0.225533346 0.167950364 0.437671340
vt 0.389898256 0.921875000
vn 1.000000000 -0.000000000 0.000000000
f 25/25/25 26/26/26 27/27/27
g seat
v 0.000000000 0.000000000 0.415208627
vt 0.250000000 0.750000000
vn -0.095540014 -0.004836167 0.995413842
v 0.225533346 0.167950364 0.437671340
vt 0.421875000 0.889898256
vn -0.095540014 -0.004836167 0.995413842
v 0.187144691 0.206339019 0.434173299
vt 0.392619681 0.921875000
vn -0.095540014 -0.004836167 0.995413842
f 28/28/28 29/29/29 30/30/30
g seat
v 0.225533346 0.167950364 0.437671340
vt 0.389898256 0.921875000
vn 0.707106781 0.707106781 0.000000000
v 0.225533346 0.167950364 0.387130237
vt 0.389898256 0.578125000
vn 0.707106781 0.707106781 0.000000000
v 0.187144691 0.206339019 0.387130237
vt 0.421875000 0.578125000
vn 0.707106781 0.707106781 0.000000000
f 31/31/31 32/32/32 33/33/33
g seat
v 0.225533346 0.167950364 0.437671340
vt 0.389898256 0.921875000
vn 0.707106781 0.707106781 0.000000000
v 0.187144691 0.206339019 0.387130237
vt 0.421875000 0.578125000
vn 0.707106781 0.707106781 0.000000000
v 0.187144691 0.206339019 0.434173299
vt 0.421875000 0.898083442
vn 0.707106781 0.707106781 0.000000000
f 34/34/34 35/35/35 36/36/36
g seat
v 0.000000000 0.000000000 0.415208627
vt 0.250000000 0.750000000
vn 0.000000000 -0.091524489 0.995802826
v 0.187144691 0.206339019 0.434173299
vt 0.392619681 0.921875000
vn 0.000000000 -0.091524489 0.995802826
v -0.187144691 0.206339019 0.434173299
vt 0.107380319 0.921875000
vn 0.000000000 -0.091524489 0.995802826
f 37/37/37 38/38/38 39/39/39
g seat
v 0.187144691 0.206339019 0.434173299
vt 0.392619681 0.898083442
vn 0.000000000 1.000000000 0.000000000
v 0.187144691 0.206339019 0.387130237
vt 0.392619681 0.578125000
vn 0.000000000 1.000000000 0.000000000
v -0.187144691 0.206339019 0.387130237
vt 0.107380319 0.578125000
vn 0.000000000 1.000000000 0.000000000
f 40/40/40 41/41/41 42/42/42
g seat
v 0.187144691 0.206339019 0.434173299
vt 0.392619681 0.898083442
vn 0.000000000 1.000000000 0.000000000
v -0.187144691 0.206339019 0.387130237
vt 0.107380319 0.578125000
vn 0.000000000 1.000000000 0.000000000
v -0.187144691 0.206339019 0.434173299
vt 0.107380319 0.898083442
vn 0.000000000 1.000000000 0.000000000
f 43/43/43 44/44/44 45/45/45
g seat
v 0.000000000 0.000000000 0.415208627
vt 0.250000000 0.750000000
vn 0.095540014 -0.004836167 0.995413842
v -0.187144691 0.206339019 0.434173299
vt 0.107380319 0.921875000
vn 0.095540014 -0.004836167 0.995413842
v -0.225533346 0.167950364 0.437671340
vt 0.078125000 0.889898256
vn 0.095540014 -0.004836167 0.995413842
f 46/46/46 47/47/47 48/48/48
g seat
v -0.187144691 0.206339019 0.434173299
vt 0.421875000 0.898083442
vn -0.707106781 0.707106781 0.000000000
v -0.187144691 0.206339019 0.387130237
vt 0.421875000 0.578125000
vn -0.707106781 0.707106781 0.000000000
v -0.225533346 0.167950364 0.387130237
vt 0.389898256 0.578125000
vn -0.707106781 0.707106781 0.000000000
f 49/49/49 50/50/50 51/51/51
g seat
v -0.187144691 0.206339019 0.434173299
vt 0.421875000 0.898083442
vn -0.707106781 0.707106781 0.000000000
v -0.225533346 0.167950364 0.387130237
vt 0.389898256 0.578125000
vn -0.707106781 0.707106781 0.000000000
v -0.225533346 0.167950364 0.437671340
vt 0.389898256 0.921875000
vn -0.707106781 0.707106781 0.000000000
f 52/52/52 53/53/53 54/54/54
g seat
v 0.000000000 0.000000000 0.415208627
vt 0.250000000 0.750000000
vn 0.099107836 0.000000000 0.995076699
v -0.225533346 0.167950364 0.437671340
vt 0.078125000 0.889898256
vn 0.099107836 0.000000000 0.995076699
v -0.225533346 -0.167950364 0.437671340
vt 0.078125000 0.610101744
vn 0.099107836 0.000000000 0.995076699
f 55/55/55 56/56/56 57/57/57
g seat
v -0.225533346 0.167950364 0.437671340
vt 0.389898256 0.921875000
vn -1.000000000 0.000000000 -0.000000000
v -0.225533346 0.167950364 0.387130237
vt 0.389898256 0.578125000
vn -1.000000000 0.000000000 -0.000000000
v -0.225533346 -0.167950364 0.387130237
vt 0.110101744 0.578125000
vn -1.000000000 0.000000000 -0.000000000
f 58/58/58 59/59/59 60/60/60
g seat
v -0.225533346 0.167950364 0.437671340
vt 0.389898256 0.921875000
vn -1.000000000 -0.000000000 0.000000000
v -0.225533346 -0.167950364 0.387130237
vt 0.110101744 0.578125000
vn -1.000000000 -0.000000000 0.000000000
v -0.225533346 -0.167950364 0.437671340
vt 0.110101744 0.921875000
vn -1.000000000 -0.000000000 0.000000000
f 61/61/61 62/62/62 63/63/63
g seat
v 0.000000000 0.000000000 0.415208627
vt 0.250000000 0.750000000
vn 0.095540014 0.004836167 0.995413842
v -0.225533346 -0.167950364 0.437671340
vt 0.078125000 0.610101744
vn 0.095540014 0.004836167 0.995413842
v -0.187144691 -0.206339019 0.434173299
vt 0.107380319 0.578125000
vn 0.095540014 0.004836167 0.995413842
f 64/64/64 65/65/65 66/66/66
g seat
v -0.225533346 -0.167950364 0.437671340
vt 0.110101744 0.921875000
vn -0.707106781 -0.707106781 -0.000000000
v -0.225533346 -0.167950364 0.387130237
vt 0.110101744 0.578125000
vn -0.707106781 -0.707106781 -0.000000000
v -0.187144691 -0.206339019 0.387130237
vt 0.078125000 0.578125000
vn -0.707106781 -0.707106781 -0.000000000
f 67/67/67 68/68/68 69/69/69
g seat
v -0.225533346 -0.167950364 0.437671340
vt 0.110101744 0.921875000
vn -0.707106781 -0.707106781 0.000000000
v -0.187144691 -0.206339019 0.387130237
vt 0.078125000 0.578125000
vn -0.707106781 -0.707106781 0.000000000
v -0.187144691 -0.206339019 0.434173299
vt 0.078125000 0.898083442
vn -0.707106781 -0.707106781 0.000000000
f 70/70/70 71/71/71 72/72/72
g seat
v -0.225533346 -0.167950364 0.387130237
vt 0.078125000 0.610101744
vn 0.000000000 0.000000000 -1.000000000
v -0.225533346 0.167950364 0.387130237
vt 0.078125000 0.889898256
vn 0.000000000 0.000000000 -1.000000000
v -0.187144691 0.206339019 0.387130237
vt 0.107380319 0.921875000
vn 0.000000000 0.000000000 -1.000000000
f 73/73/73 74/74/74 75/75/75
g seat
v -0.225533346 -0.167950364 0.387130237
vt 0.078125000 0.610101744
vn 0.000000000 0.000000000 -1.000000000
v -0.187144691 0.206339019 0.387130237
vt 0.107380319 0.921875000
vn 0.000000000 0.000000000 -1.000000000
v 0.187144691 0.206339019 0.387130237
vt 0.392619681 0.921875000
vn 0.000000000 0.000000000 -1.000000000
f 76/76/76 77/77/77 78/78/78
g seat
v -0.225533346 -0.167950364 0.387130237
vt 0.078125000 0.610101744
vn 0.000000000 0.000000000 -1.000000000
v 0.187144691 0.206339019 0.387130237
vt 0.392619681 0.921875000
vn 0.000000000 0.000000000 -1.000000000
v 0.225533346 0.167950364 0.387130237
vt 0.421875000 0.889898256
vn 0.000000000 0.000000000 -1.000000000
f 79/79/79 80/80/80 81/81/81
g seat
v -0.225533346 -0.167950364 0.387130237
vt 0.078125000 0.610101744
vn 0.000000000 0.000000000 -1.000000000
v 0.225533346 0.167950364 0.387130237
vt 0.421875000 0.889898256
vn 0.000000000 0.000000000 -1.000000000
v 0.225533346 -0.167950364 0.387130237
vt 0.421875000 0.610101744
vn 0.000000000 0.000000000 -1.000000000
f 82/82/82 83/83/83 84/84/84
g seat
v -0.225533346 -0.167950364 0.387130237
vt 0.078125000 0.610101744
vn 0.000000000 0.000000000 -1.000000000
v 0.225533346 -0.167950364 0.387130237
vt 0.421875000 0.610101744
vn 0.000000000 0.000000000 -1.000000000
v 0.187144691 -0.206339019 0.387130237
vt 0.392619681 0.578125000
vn 0.000000000 0.000000000 -1.000000000
f 85/85/85 86/86/86 87/87/87
g seat
v -0.225533346 -0.167950364 0.387130237
vt 0.078125000 0.610101744
vn 0.000000000 0.000000000 -1.000000000
v 0.187144691 -0.206339019 0.387130237
vt 0.392619681 0.578125000
vn 0.000000000 0.000000000 -1.000000000
v -0.187144691 -0.206339019 0.387130237
vt 0.107380319 0.578125000
vn 0.000000000 0.000000000 -1.000000000
f 88/88/88 89/89/89 90/90/90
g frame
v -0.217845433 0.213615658 0.001168785
vt 0.584687275 0.921875000
vn -0.019321657 0.027909060 -0.999423713
v -0.200573932 0.213615658 0.000834878
vt 0.597793810 0.921875000
vn -0.019321657 0.027909060 -0.999423713
v -0.191946666 0.198661288 0.000250486
vt 0.604340640 0.910844244
vn -0.019321657 0.027909060 -0.999423713
f 91/91/91 92/92/92 93/93/93
g frame
v -0.217845433 0.213615658 0.001168785
vt 0.584687275 0.921875000
vn -0.019321657 0.027909060 -0.999423713
v -0.191946666 0.198661288 0.000250486
vt 0.604340640 0.910844244
vn -0.019321657 0.027909060 -0.999423713
v -0.200590902 0.183706917 0.000000000
vt 0.597780933 0.899813487
vn -0.019321657 0.027909060 -0.999423713
f 94/94/94 95/95/95 96/96/96
g frame
v -0.217845433 0.213615658 0.001168785
vt 0.584687275 0.921875000
vn -0.019321657 0.027909060 -0.999423713
v -0.200590902 0.183706917 0.000000000
vt 0.597780933 0.899813487
vn -0.019321657 0.027909060 -0.999423713
v -0.217862404 0.183706917 0.000333906
vt 0.584674396 0.899813487
vn -0.019321657 0.027909060 -0.999423713
f 97/97/97 98/98/98 99/99/99
g frame
v -0.217845433 0.213615658 0.001168785
vt 0.584687275 0.921875000
vn -0.019321657 0.027909060 -0.999423713
v -0.217862404 0.183706917 0.000333906
vt 0.584674396 0.899813487
vn -0.019321657 0.027909060 -0.999423713
v -0.226489669 0.198661288 0.000918299
vt 0.578127568 0.910844244
vn -0.019321657 0.027909060 -0.999423713
f 100/100/100 101/101/101 102/102/102
g frame
v -0.217852222 0.186184975 0.425837944
vt 0.584682123 0.901641371
vn 0.019321657 -0.027909060 0.999423713
v -0.209224956 0.171230604 0.425253552
vt 0.591228952 0.890610614
vn 0.019321657 -0.027909060 0.999423713
v -0.191953455 0.171230604 0.424919645
vt 0.604335488 0.890610614
vn 0.019321657 -0.027909060 0.999423713
f 103/103/103 104/104/104 105/105/105
g frame
v -0.217852222 0.186184975 0.425837944
vt 0.584682123 0.901641371
vn 0.019321657 -0.027909060 0.999423713
v -0.191953455 0.171230604 0.424919645
vt 0.604335488 0.890610614
vn 0.019321657 -0.027909060 0.999423713
v -0.183309219 0.186184975 0.425170131
vt 0.610895195 0.901641371
vn 0.019321657 -0.027909060 0.999423713
f 106/106/106 107/107/107 108/108/108
g frame
v -0.217852222 0.186184975 0.425837944
vt 0.584682123 0.901641371
vn 0.019321657 -0.027909060 0.999423713
v -0.183309219 0.186184975 0.425170131
vt 0.610895195 0.901641371
vn 0.019321657 -0.027909060 0.999423713
v -0.191936484 0.201139345 0.425754523
vt 0.604348366 0.912672127
vn 0.019321657 -0.027909060 0.999423713
f 109/109/109 110/110/110 111/111/111
g frame
v -0.217852222 0.186184975 0.425837944
vt 0.584682123 0.901641371
vn 0.019321657 -0.027909060 0.999423713
v -0.191936484 0.201139345 0.425754523
vt 0.604348366 0.912672127
vn 0.019321657 -0.027909060 0.999423713
v -0.209207986 0.201139345 0.426088430
vt 0.591241830 0.912672127
vn 0.019321657 -0.027909060 0.999423713
f 112/112/112 113/113/113 114/114/114
g frame
v -0.226489669 0.198661288 0.000918299
vt 0.910844244 0.578460854
vn -0.866138698 -0.499795120 0.002931442
v -0.217862404 0.183706917 0.000333906
vt 0.899813487 0.578247121
vn -0.866138698 -0.499795120 0.002931442
v -0.209224956 0.171230604 0.425253552
vt 0.890610614 0.733654912
vn -0.866138698 -0.499795120 0.002931442
f 115/115/115 116/116/116 117/117/117
g frame
v -0.226489669 0.198661288 0.000918299
vt 0.910844244 0.578460854
vn -0.866138698 -0.499795120 0.002931442
v -0.209224956 0.171230604 0.425253552
vt 0.890610614 0.733654912
vn -0.866138698 -0.499795120 0.002931442
v -0.217852222 0.186184975 0.425837944
vt 0.901641371 0.733868645
vn -0.866138698 -0.499795120 0.002931442
f 118/118/118 119/119/119 120/120/120
g frame
v -0.217862404 0.183706917 0.000333906
vt 0.584674396 0.578247121
vn -0.000567174 -0.999569405 -0.029337409
v -0.200590902 0.183706917 0.000000000
vt 0.597780933 0.578125000
vn -0.000567174 -0.999569405 -0.029337409
v -0.191953455 0.171230604 0.424919645
vt 0.604335488 0.733532791
vn -0.000567174 -0.999569405 -0.029337409
f 121/121/121 122/122/122 123/123/123
g frame
v -0.217862404 0.183706917 0.000333906
vt 0.584674396 0.578247121
vn -0.000567174 -0.999569405 -0.029337409
v -0.191953455 0.171230604 0.424919645
vt 0.604335488 0.733532791
vn -0.000567174 -0.999569405 -0.029337409
v -0.209224956 0.171230604 0.425253552
vt 0.591228952 0.733654912
vn -0.000567174 -0.999569405 -0.029337409
f 124/124/124 125/125/125 126/126/126
g frame
v -0.200590902 0.183706917 0.000000000
vt 0.899813487 0.578125000
vn 0.865549648 -0.499782495 -0.032268647
v -0.191946666 0.198661288 0.000250486
vt 0.910844244 0.578216611
vn 0.865549648 -0.499782495 -0.032268647
v -0.183309219 0.186184975 0.425170131
vt 0.901641371 0.733624403
vn 0.865549648 -0.499782495 -0.032268647
f 127/127/127 128/128/128 129/129/129
g frame
v -0.200590902 0.183706917 0.000000000
vt 0.899813487 0.578125000
vn 0.865549648 -0.499782495 -0.032268647
v -0.183309219 0.186184975 0.425170131
vt 0.901641371 0.733624403
vn 0.865549648 -0.499782495 -0.032268647
v -0.191953455 0.171230604 0.424919645
vt 0.890610614 0.733532791
vn 0.865549648 -0.499782495 -0.032268647
f 130/130/130 131/131/131 132/132/132
g frame
v -0.191946666 0.198661288 0.000250486
vt 0.910844244 0.578216611
vn 0.866138698 0.499795120 -0.002931442
v -0.200573932 0.213615658 0.000834878
vt 0.921875000 0.578430344
vn 0.866138698 0.499795120 -0.002931442
v -0.191936484 0.201139345 0.425754523
vt 0.912672127 0.733838135
vn 0.866138698 0.499795120 -0.002931442
f 133/133/133 134/134/134 135/135/135
g frame
v -0.191946666 0.198661288 0.000250486
vt 0.910844244 0.578216611
vn 0.866138698 0.499795120 -0.002931442
v -0.191936484 0.201139345 0.425754523
vt 0.912672127 0.733838135
vn 0.866138698 0.499795120 -0.002931442
v -0.183309219 0.186184975 0.425170131
vt 0.901641371 0.733624403
vn 0.866138698 0.499795120 -0.002931442
f 136/136/136 137/137/137 138/138/138
g frame
v -0.200573932 0.213615658 0.000834878
vt 0.597793810 0.578430344
vn 0.000567174 0.999569405 0.029337409
v -0.217845433 0.213615658 0.001168785
vt 0.584687275 0.578552465
vn 0.000567174 0.999569405 0.029337409
v -0.209207986 0.201139345 0.426088430
vt 0.591241830 0.733960256
vn 0.000567174 0.999569405 0.029337409
f 139/139/139 140/140/140 141/141/141
g frame
v -0.200573932 0.213615658 0.000834878
vt 0.597793810 0.578430344
vn 0.000567174 0.999569405 0.029337409
v -0.209207986 0.201139345 0.426088430
vt 0.591241830 0.733960256
vn 0.000567174 0.999569405 0.029337409
v -0.191936484 0.201139345 0.425754523
vt 0.604348366 0.733838135
vn 0.000567174 0.999569405 0.029337409
f 142/142/142 143/143/143 144/144/144
g frame
v -0.217845433 0.213615658 0.001168785
vt 0.921875000 0.578552465
vn -0.865549648 0.499782495 0.032268647
v -0.226489669 0.198661288 0.000918299
vt 0.910844244 0.578460854
vn -0.865549648 0.499782495 0.032268647
v -0.217852222 0.186184975 0.425837944
vt 0.901641371 0.733868645
vn -0.865549648 0.499782495 0.032268647
f 145/145/145 146/146/146 147/147/147
g frame
v -0.217845433 0.213615658 0.001168785
vt 0.921875000 0.578552465
vn -0.865549648 0.499782495 0.032268647
v -0.217852222 0.186184975 0.425837944
vt 0.901641371 0.733868645
vn -0.865549648 0.499782495 0.032268647
v -0.209207986 0.201139345 0.426088430
vt 0.912672127 0.733960256
vn -0.865549648 0.499782495 0.032268647
f 148/148/148 149/149/149 150/150/150
g frame
v -0.217855027 -0.183711866 0.001154231
vt 0.584679995 0.628795250
vn -0.000987381 0.037520479 -0.999295371
v -0.200580142 -0.183711866 0.001137162
vt 0.597789098 0.628795250
vn -0.000987381 0.037520479 -0.999295371
v -0.191943282 -0.198661288 0.000567323
vt 0.604343208 0.617768144
vn -0.000987381 0.037520479 -0.999295371
f 151/151/151 152/152/152 153/153/153
g frame
v -0.217855027 -0.183711866 0.001154231
vt 0.584679995 0.628795250
vn -0.000987381 0.037520479 -0.999295371
v -0.191943282 -0.198661288 0.000567323
vt 0.604343208 0.617768144
vn -0.000987381 0.037520479 -0.999295371
v -0.200581308 -0.213610710 0.000014553
vt 0.597788213 0.606741037
vn -0.000987381 0.037520479 -0.999295371
f 154/154/154 155/155/155 156/156/156
g frame
v -0.217855027 -0.183711866 0.001154231
vt 0.584679995 0.628795250
vn -0.000987381 0.037520479 -0.999295371
v -0.200581308 -0.213610710 0.000014553
vt 0.597788213 0.606741037
vn -0.000987381 0.037520479 -0.999295371
v -0.217856194 -0.213610710 0.000031622
vt 0.584679109 0.606741037
vn -0.000987381 0.037520479 -0.999295371
f 157/157/157 158/158/158 159/159/159
g frame
v -0.217855027 -0.183711866 0.001154231
vt 0.584679995 0.628795250
vn -0.000987381 0.037520479 -0.999295371
v -0.217856194 -0.213610710 0.000031622
vt 0.584679109 0.606741037
vn -0.000987381 0.037520479 -0.999295371
v -0.226493053 -0.198661288 0.000601461
vt 0.578125000 0.617768144
vn -0.000987381 0.037520479 -0.999295371
f 160/160/160 161/161/161 162/162/162
g frame
v -0.225533337 -0.235130510 0.924380513
vt 0.578853284 0.590867439
vn 0.000987381 -0.037520479 0.999295371
v -0.216896477 -0.250079932 0.923810675
vt 0.585407393 0.579840332
vn 0.000987381 -0.037520479 0.999295371
v -0.199621592 -0.250079932 0.923793606
vt 0.598516497 0.579840332
vn 0.000987381 -0.037520479 0.999295371
f 163/163/163 164/164/164 165/165/165
g frame
v -0.225533337 -0.235130510 0.924380513
vt 0.578853284 0.590867439
vn 0.000987381 -0.037520479 0.999295371
v -0.199621592 -0.250079932 0.923793606
vt 0.598516497 0.579840332
vn 0.000987381 -0.037520479 0.999295371
v -0.190983566 -0.235130510 0.924346376
vt 0.605071491 0.590867439
vn 0.000987381 -0.037520479 0.999295371
f 166/166/166 167/167/167 168/168/168
g frame
v -0.225533337 -0.235130510 0.924380513
vt 0.578853284 0.590867439
vn 0.000987381 -0.037520479 0.999295371
v -0.190983566 -0.235130510 0.924346376
vt 0.605071491 0.590867439
vn 0.000987381 -0.037520479 0.999295371
v -0.199620425 -0.220181088 0.924916214
vt 0.598517382 0.601894545
vn 0.000987381 -0.037520479 0.999295371
f 169/169/169 170/170/170 171/171/171
g frame
v -0.225533337 -0.235130510 0.924380513
vt 0.578853284 0.590867439
vn 0.000987381 -0.037520479 0.999295371
v -0.199620425 -0.220181088 0.924916214
vt 0.598517382 0.601894545
vn 0.000987381 -0.037520479 0.999295371
v -0.216895311 -0.220181088 0.924933283
vt 0.585408278 0.601894545
vn 0.000987381 -0.037520479 0.999295371
f 172/172/172 173/173/173 174/174/174
g frame
v -0.226493053 -0.198661288 0.000601461
vt 0.617768144 0.578344975
vn -0.866036942 -0.499625509 -0.018824635
v -0.217856194 -0.213610710 0.000031622
vt 0.606741037 0.578136565
vn -0.866036942 -0.499625509 -0.018824635
v -0.216896477 -0.250079932 0.923810675
vt 0.579840332 0.915994473
vn -0.866036942 -0.499625509 -0.018824635
f 175/175/175 176/176/176 177/177/177
g frame
v -0.226493053 -0.198661288 0.000601461
vt 0.617768144 0.578344975
vn -0.866036942 -0.499625509 -0.018824635
v -0.216896477 -0.250079932 0.923810675
vt 0.579840332 0.915994473
vn -0.866036942 -0.499625509 -0.018824635
v -0.225533337 -0.235130510 0.924380513
vt 0.590867439 0.916202882
vn -0.866036942 -0.499625509 -0.018824635
f 178/178/178 179/179/179 180/180/180
g frame
v -0.217856194 -0.213610710 0.000031622
vt 0.584679109 0.578136565
vn -0.000038977 -0.999221643 -0.039447526
v -0.200581308 -0.213610710 0.000014553
vt 0.597788213 0.578130323
vn -0.000038977 -0.999221643 -0.039447526
v -0.199621592 -0.250079932 0.923793606
vt 0.598516497 0.915988230
vn -0.000038977 -0.999221643 -0.039447526
f 181/181/181 182/182/182 183/183/183
g frame
v -0.217856194 -0.213610710 0.000031622
vt 0.584679109 0.578136565
vn -0.000038977 -0.999221643 -0.039447526
v -0.199621592 -0.250079932 0.923793606
vt 0.598516497 0.915988230
vn -0.000038977 -0.999221643 -0.039447526
v -0.216896477 -0.250079932 0.923810675
vt 0.585407393 0.915994473
vn -0.000038977 -0.999221643 -0.039447526
f 184/184/184 185/185/185 186/186/186
g frame
v -0.200581308 -0.213610710 0.000014553
vt 0.606741037 0.578130323
vn 0.865996460 -0.499624641 -0.020624015
v -0.191943282 -0.198661288 0.000567323
vt 0.617768144 0.578332490
vn 0.865996460 -0.499624641 -0.020624015
v -0.190983566 -0.235130510 0.924346376
vt 0.590867439 0.916190397
vn 0.865996460 -0.499624641 -0.020624015
f 187/187/187 188/188/188 189/189/189
g frame
v -0.200581308 -0.213610710 0.000014553
vt 0.606741037 0.578130323
vn 0.865996460 -0.499624641 -0.020624015
v -0.190983566 -0.235130510 0.924346376
vt 0.590867439 0.916190397
vn 0.865996460 -0.499624641 -0.020624015
v -0.199621592 -0.250079932 0.923793606
vt 0.579840332 0.915988230
vn 0.865996460 -0.499624641 -0.020624015
f 190/190/190 191/191/191 192/192/192
g frame
v -0.191943282 -0.198661288 0.000567323
vt 0.617768144 0.578332490
vn 0.866036942 0.499625509 0.018824635
v -0.200580142 -0.183711866 0.001137162
vt 0.628795250 0.578540899
vn 0.866036942 0.499625509 0.018824635
v -0.199620425 -0.220181088 0.924916214
vt 0.601894545 0.916398807
vn 0.866036942 0.499625509 0.018824635
f 193/193/193 194/194/194 195/195/195
g frame
v -0.191943282 -0.198661288 0.000567323
vt 0.617768144 0.578332490
vn 0.866036942 0.499625509 0.018824635
v -0.199620425 -0.220181088 0.924916214
vt 0.601894545 0.916398807
vn 0.866036942 0.499625509 0.018824635
v -0.190983566 -0.235130510 0.924346376
vt 0.590867439 0.916190397
vn 0.866036942 0.499625509 0.018824635
f 196/196/196 197/197/197 198/198/198
g frame
v -0.200580142 -0.183711866 0.001137162
vt 0.597789098 0.578540899
vn 0.000038977 0.999221643 0.039447526
v -0.217855027 -0.183711866 0.001154231
vt 0.584679995 0.578547142
vn 0.000038977 0.999221643 0.039447526
v -0.216895311 -0.220181088 0.924933283
vt 0.585408278 0.916405049
vn 0.000038977 0.999221643 0.039447526
f 199/199/199 200/200/200 201/201/201
g frame
v -0.200580142 -0.183711866 0.001137162
vt 0.597789098 0.578540899
vn 0.000038977 0.999221643 0.039447526
v -0.216895311 -0.220181088 0.924933283
vt 0.585408278 0.916405049
vn 0.000038977 0.999221643 0.039447526
v -0.199620425 -0.220181088 0.924916214
vt 0.598517382 0.916398807
vn 0.000038977 0.999221643 0.039447526
f 202/202/202 203/203/203 204/204/204
g frame
v -0.217855027 -0.183711866 0.001154231
vt 0.628795250 0.578547142
vn -0.865996460 0.499624641 0.020624015
v -0.226493053 -0.198661288 0.000601461
vt 0.617768144 0.578344975
vn -0.865996460 0.499624641 0.020624015
v -0.225533337 -0.235130510 0.924380513
vt 0.590867439 0.916202882
vn -0.865996460 0.499624641 0.020624015
f 205/205/205 206/206/206 207/207/207
g frame
v -0.217855027 -0.183711866 0.001154231
vt 0.628795250 0.578547142
vn -0.865996460 0.499624641 0.020624015
v -0.225533337 -0.235130510 0.924380513
vt 0.590867439 0.916202882
vn -0.865996460 0.499624641 0.020624015
v -0.216895311 -0.220181088 0.924933283
vt 0.601894545 0.916405049
vn -0.865996460 0.499624641 0.020624015
f 208/208/208 209/209/209 210/210/210
g frame
v 0.200573932 0.213615658 0.000834878
vt 0.902206190 0.921875000
vn 0.019321657 0.027909060 -0.999423713
v 0.217845433 0.213615658 0.001168785
vt 0.915312725 0.921875000
vn 0.019321657 0.027909060 -0.999423713
v 0.226489669 0.198661288 0.000918299
vt 0.921872432 0.910844244
vn 0.019321657 0.027909060 -0.999423713
f 211/211/211 212/212/212 213/213/213
g frame
v 0.200573932 0.213615658 0.000834878
vt 0.902206190 0.921875000
vn 0.019321657 0.027909060 -0.999423713
v 0.226489669 0.198661288 0.000918299
vt 0.921872432 0.910844244
vn 0.019321657 0.027909060 -0.999423713
v 0.217862404 0.183706917 0.000333906
vt 0.915325604 0.899813487
vn 0.019321657 0.027909060 -0.999423713
f 214/214/214 215/215/215 216/216/216
g frame
v 0.200573932 0.213615658 0.000834878
vt 0.902206190 0.921875000
vn 0.019321657 0.027909060 -0.999423713
v 0.217862404 0.183706917 0.000333906
vt 0.915325604 0.899813487
vn 0.019321657 0.027909060 -0.999423713
v 0.200590902 0.183706917 0.000000000
vt 0.902219067 0.899813487
vn 0.019321657 0.027909060 -0.999423713
f 217/217/217 218/218/218 219/219/219
g frame
v 0.200573932 0.213615658 0.000834878
vt 0.902206190 0.921875000
vn 0.019321657 0.027909060 -0.999423713
v 0.200590902 0.183706917 0.000000000
vt 0.902219067 0.899813487
vn 0.019321657 0.027909060 -0.999423713
v 0.191946666 0.198661288 0.000250486
vt 0.895659360 0.910844244
vn 0.019321657 0.027909060 -0.999423713
f 220/220/220 221/221/221 222/222/222
g frame
v 0.183309219 0.186184975 0.425170131
vt 0.889104805 0.901641371
vn -0.019321657 -0.027909060 0.999423713
v 0.191953455 0.171230604 0.424919645
vt 0.895664512 0.890610614
vn -0.019321657 -0.027909060 0.999423713
v 0.209224956 0.171230604 0.425253552
vt 0.908771048 0.890610614
vn -0.019321657 -0.027909060 0.999423713
f 223/223/223 224/224/224 225/225/225
g frame
v 0.183309219 0.186184975 0.425170131
vt 0.889104805 0.901641371
vn -0.019321657 -0.027909060 0.999423713
v 0.209224956 0.171230604 0.425253552
vt 0.908771048 0.890610614
vn -0.019321657 -0.027909060 0.999423713
v 0.217852222 0.186184975 0.425837944
vt 0.915317877 0.901641371
vn -0.019321657 -0.027909060 0.999423713
f 226/226/226 227/227/227 228/228/228
g frame
v 0.183309219 0.186184975 0.425170131
vt 0.889104805 0.901641371
vn -0.019321657 -0.027909060 0.999423713
v 0.217852222 0.186184975 0.425837944
vt 0.915317877 0.901641371
vn -0.019321657 -0.027909060 0.999423713
v 0.209207986 0.201139345 0.426088430
vt 0.908758170 0.912672127
vn -0.019321657 -0.027909060 0.999423713
f 229/229/229 230/230/230 231/231/231
g frame
v 0.183309219 0.186184975 0.425170131
vt 0.889104805 0.901641371
vn -0.019321657 -0.027909060 0.999423713
v 0.209207986 0.201139345 0.426088430
vt 0.908758170 0.912672127
vn -0.019321657 -0.027909060 0.999423713
v 0.191936484 0.201139345 0.425754523
vt 0.895651634 0.912672127
vn -0.019321657 -0.027909060 0.999423713
f 232/232/232 233/233/233 234/234/234
g frame
v 0.191946666 0.198661288 0.000250486
vt 0.910844244 0.578216611
vn -0.865549648 -0.499782495 -0.032268647
v 0.200590902 0.183706917 0.000000000
vt 0.899813487 0.578125000
vn -0.865549648 -0.499782495 -0.032268647
v 0.191953455 0.171230604 0.424919645
vt 0.890610614 0.733532791
vn -0.865549648 -0.499782495 -0.032268647
f 235/235/235 236/236/236 237/237/237
g frame
v 0.191946666 0.198661288 0.000250486
vt 0.910844244 0.578216611
vn -0.865549648 -0.499782495 -0.032268647
v 0.191953455 0.171230604 0.424919645
vt 0.890610614 0.733532791
vn -0.865549648 -0.499782495 -0.032268647
v 0.183309219 0.186184975 0.425170131
vt 0.901641371 0.733624403
vn -0.865549648 -0.499782495 -0.032268647
f 238/238/238 239/239/239 240/240/240
g frame
v 0.200590902 0.183706917 0.000000000
vt 0.902219067 0.578125000
vn 0.000567174 -0.999569405 -0.029337409
v 0.217862404 0.183706917 0.000333906
vt 0.915325604 0.578247121
vn 0.000567174 -0.999569405 -0.029337409
v 0.209224956 0.171230604 0.425253552
vt 0.908771048 0.733654912
vn 0.000567174 -0.999569405 -0.029337409
f 241/241/241 242/242/242 243/243/243
g frame
v 0.200590902 0.183706917 0.000000000
vt 0.902219067 0.578125000
vn 0.000567174 -0.999569405 -0.029337409
v 0.209224956 0.171230604 0.425253552
vt 0.908771048 0.733654912
vn 0.000567174 -0.999569405 -0.029337409
v 0.191953455 0.171230604 0.424919645
vt 0.895664512 0.733532791
vn 0.000567174 -0.999569405 -0.029337409
f 244/244/244 245/245/245 246/246/246
g frame
v 0.217862404 0.183706917 0.000333906
vt 0.899813487 0.578247121
vn 0.866138698 -0.499795120 0.002931442
v 0.226489669 0.198661288 0.000918299
vt 0.910844244 0.578460854
vn 0.866138698 -0.499795120 0.002931442
v 0.217852222 0.186184975 0.425837944
vt 0.901641371 0.733868645
vn 0.866138698 -0.499795120 0.002931442
f 247/247/247 248/248/248 249/249/249
g frame
v 0.217862404 0.183706917 0.000333906
vt 0.899813487 0.578247121
vn 0.866138698 -0.499795120 0.002931442
v 0.217852222 0.186184975 0.425837944
vt 0.901641371 0.733868645
vn 0.866138698 -0.499795120 0.002931442
v 0.209224956 0.171230604 0.425253552
vt 0.890610614 0.733654912
vn 0.866138698 -0.499795120 0.002931442
f 250/250/250 251/251/251 252/252/252
g frame
v 0.226489669 0.198661288 0.000918299
vt 0.910844244 0.578460854
vn 0.865549648 0.499782495 0.032268647
v 0.217845433 0.213615658 0.001168785
vt 0.921875000 0.578552465
vn 0.865549648 0.499782495 0.032268647
v 0.209207986 0.201139345 0.426088430
vt 0.912672127 0.733960256
vn 0.865549648 0.499782495 0.032268647
f 253/253/253 254/254/254 255/255/255
g frame
v 0.226489669 0.198661288 0.000918299
vt 0.910844244 0.578460854
vn 0.865549648 0.499782495 0.032268647
v 0.209207986 0.201139345 0.426088430
vt 0.912672127 0.733960256
vn 0.865549648 0.499782495 0.032268647
v 0.217852222 0.186184975 0.425837944
vt 0.901641371 0.733868645
vn 0.865549648 0.499782495 0.032268647
f 256/256/256 257/257/257 258/258/258
g frame
v 0.217845433 0.213615658 0.001168785
vt 0.915312725 0.578552465
vn -0.000567174 0.999569405 0.029337409
v 0.200573932 0.213615658 0.000834878
vt 0.902206190 0.578430344
vn -0.000567174 0.999569405 0.029337409
v 0.191936484 0.201139345 0.425754523
vt 0.895651634 0.733838135
vn -0.000567174 0.999569405 0.029337409
f 259/259/259 260/260/260 261/261/261
g frame
v 0.217845433 0.213615658 0.001168785
vt 0.915312725 0.578552465
vn -0.000567174 0.999569405 0.029337409
v 0.191936484 0.201139345 0.425754523
vt 0.895651634 0.733838135
vn -0.000567174 0.999569405 0.029337409
v 0.209207986 0.201139345 0.426088430
vt 0.908758170 0.733960256
vn -0.000567174 0.999569405 0.029337409
f 262/262/262 263/263/263 264/264/264
g frame
v 0.200573932 0.213615658 0.000834878
vt 0.921875000 0.578430344
vn -0.866138698 0.499795120 -0.002931442
v 0.191946666 0.198661288 0.000250486
vt 0.910844244 0.578216611
vn -0.866138698 0.499795120 -0.002931442
v 0.183309219 0.186184975 0.425170131
vt 0.901641371 0.733624403
vn -0.866138698 0.499795120 -0.002931442
f 265/265/265 266/266/266 267/267/267
g frame
v 0.200573932 0.213615658 0.000834878
vt 0.921875000 0.578430344
vn -0.866138698 0.499795120 -0.002931442
v 0.183309219 0.186184975 0.425170131
vt 0.901641371 0.733624403
vn -0.866138698 0.499795120 -0.002931442
v 0.191936484 0.201139345 0.425754523
vt 0.912672127 0.733838135
vn -0.866138698 0.499795120 -0.002931442
f 268/268/268 269/269/269 270/270/270
g frame
v 0.200580142 -0.183711866 0.001137162
vt 0.902210902 0.628795250
vn 0.000987381 0.037520479 -0.999295371
v 0.217855027 -0.183711866 0.001154231
vt 0.915320005 0.628795250
vn 0.000987381 0.037520479 -0.999295371
v 0.226493053 -0.198661288 0.000601461
vt 0.921875000 0.617768144
vn 0.000987381 0.037520479 -0.999295371
f 271/271/271 272/272/272 273/273/273
g frame
v 0.200580142 -0.183711866 0.001137162
vt 0.902210902 0.628795250
vn 0.000987381 0.037520479 -0.999295371
v 0.226493053 -0.198661288 0.000601461
vt 0.921875000 0.617768144
vn 0.000987381 0.037520479 -0.999295371
v 0.217856194 -0.213610710 0.000031622
vt 0.915320891 0.606741037
vn 0.000987381 0.037520479 -0.999295371
f 274/274/274 275/275/275 276/276/276
g frame
v 0.200580142 -0.183711866 0.001137162
vt 0.902210902 0.628795250
vn 0.000987381 0.037520479 -0.999295371
v 0.217856194 -0.213610710 0.000031622
vt 0.915320891 0.606741037
vn 0.000987381 0.037520479 -0.999295371
v 0.200581308 -0.213610710 0.000014553
vt 0.902211787 0.606741037
vn 0.000987381 0.037520479 -0.999295371
f 277/277/277 278/278/278 279/279/279
g frame
v 0.200580142 -0.183711866 0.001137162
vt 0.902210902 0.628795250
vn 0.000987381 0.037520479 -0.999295371
v 0.200581308 -0.213610710 0.000014553
vt 0.902211787 0.606741037
vn 0.000987381 0.037520479 -0.999295371
v 0.191943282 -0.198661288 0.000567323
vt 0.895656792 0.617768144
vn 0.000987381 0.037520479 -0.999295371
f 280/280/280 281/281/281 282/282/282
g frame
v 0.190983566 -0.235130510 0.924346376
vt 0.894928509 0.590867439
vn -0.000987381 -0.037520479 0.999295371
v 0.199621592 -0.250079932 0.923793606
vt 0.901483503 0.579840332
vn -0.000987381 -0.037520479 0.999295371
v 0.216896477 -0.250079932 0.923810675
vt 0.914592607 0.579840332
vn -0.000987381 -0.037520479 0.999295371
f 283/283/283 284/284/284 285/285/285
g frame
v 0.190983566 -0.235130510 0.924346376
vt 0.894928509 0.590867439
vn -0.000987381 -0.037520479 0.999295371
v 0.216896477 -0.250079932 0.923810675
vt 0.914592607 0.579840332
vn -0.000987381 -0.037520479 0.999295371
v 0.225533337 -0.235130510 0.924380513
vt 0.921146716 0.590867439
vn -0.000987381 -0.037520479 0.999295371
f 286/286/286 287/287/287 288/288/288
g frame
v 0.190983566 -0.235130510 0.924346376
vt 0.894928509 0.590867439
vn -0.000987381 -0.037520479 0.999295371
v 0.225533337 -0.235130510 0.924380513
vt 0.921146716 0.590867439
vn -0.000987381 -0.037520479 0.999295371
v 0.216895311 -0.220181088 0.924933283
vt 0.914591722 0.601894545
vn -0.000987381 -0.037520479 0.999295371
f 289/289/289 290/290/290 291/291/291
g frame
v 0.190983566 -0.235130510 0.924346376
vt 0.894928509 0.590867439
vn -0.000987381 -0.037520479 0.999295371
v 0.216895311 -0.220181088 0.924933283
vt 0.914591722 0.601894545
vn -0.000987381 -0.037520479 0.999295371
v 0.199620425 -0.220181088 0.924916214
vt 0.901482618 0.601894545
vn -0.000987381 -0.037520479 0.999295371
f 292/292/292 293/293/293 294/294/294
g frame
v 0.191943282 -0.198661288 0.000567323
vt 0.617768144 0.578332490
vn -0.865996460 -0.499624641 -0.020624015
v 0.200581308 -0.213610710 0.000014553
vt 0.606741037 0.578130323
vn -0.865996460 -0.499624641 -0.020624015
v 0.199621592 -0.250079932 0.923793606
vt 0.579840332 0.915988230
vn -0.865996460 -0.499624641 -0.020624015
f 295/295/295 296/296/296 297/297/297
g frame
v 0.191943282 -0.198661288 0.000567323
vt 0.617768144 0.578332490
vn -0.865996460 -0.499624641 -0.020624015
v 0.199621592 -0.250079932 0.923793606
vt 0.579840332 0.915988230
vn -0.865996460 -0.499624641 -0.020624015
v 0.190983566 -0.235130510 0.924346376
vt 0.590867439 0.916190397
vn -0.865996460 -0.499624641 -0.020624015
f 298/298/298 299/299/299 300/300/300
g frame
v 0.200581308 -0.213610710 0.000014553
vt 0.902211787 0.578130323
vn 0.000038977 -0.999221643 -0.039447526
v 0.217856194 -0.213610710 0.000031622
vt 0.915320891 0.578136565
vn 0.000038977 -0.999221643 -0.039447526
v 0.216896477 -0.250079932 0.923810675
vt 0.914592607 0.915994473
vn 0.000038977 -0.999221643 -0.039447526
f 301/301/301 302/302/302 303/303/303
g frame
v 0.200581308 -0.213610710 0.000014553
vt 0.902211787 0.578130323
vn 0.000038977 -0.999221643 -0.039447526
v 0.216896477 -0.250079932 0.923810675
vt 0.914592607 0.915994473
vn 0.000038977 -0.999221643 -0.039447526
v 0.199621592 -0.250079932 0.923793606
vt 0.901483503 0.915988230
vn 0.000038977 -0.999221643 -0.039447526
f 304/304/304 305/305/305 306/306/306
g frame
v 0.217856194 -0.213610710 0.000031622
vt 0.606741037 0.578136565
vn 0.866036942 -0.499625509 -0.018824635
v 0.226493053 -0.198661288 0.000601461
vt 0.617768144 0.578344975
vn 0.866036942 -0.499625509 -0.018824635
v 0.225533337 -0.235130510 0.924380513
vt 0.590867439 0.916202882
vn 0.866036942 -0.499625509 -0.018824635
f 307/307/307 308/308/308 309/309/309
g frame
v 0.217856194 -0.213610710 0.000031622
vt 0.606741037 0.578136565
vn 0.866036942 -0.499625509 -0.018824635
v 0.225533337 -0.235130510 0.924380513
vt 0.590867439 0.916202882
vn 0.866036942 -0.499625509 -0.018824635
v 0.216896477 -0.250079932 0.923810675
vt 0.579840332 0.915994473
vn 0.866036942 -0.499625509 -0.018824635
f 310/310/310 311/311/311 312/312/312
g frame
v 0.226493053 -0.198661288 0.000601461
vt 0.617768144 0.578344975
vn 0.865996460 0.499624641 0.020624015
v 0.217855027 -0.183711866 0.001154231
vt 0.628795250 0.578547142
vn 0.865996460 0.499624641 0.020624015
v 0.216895311 -0.220181088 0.924933283
vt 0.601894545 0.916405049
vn 0.865996460 0.499624641 0.020624015
f 313/313/313 314/314/314 315/315/315
g frame
v 0.226493053 -0.198661288 0.000601461
vt 0.617768144 0.578344975
vn 0.865996460 0.499624641 0.020624015
v 0.216895311 -0.220181088 0.924933283
vt 0.601894545 0.916405049
vn 0.865996460 0.499624641 0.020624015
v 0.225533337 -0.235130510 0.924380513
vt 0.590867439 0.916202882
vn 0.865996460 0.499624641 0.020624015
f 316/316/316 317/317/317 318/318/318
g frame
v 0.217855027 -0.183711866 0.001154231
vt 0.915320005 0.578547142
vn -0.000038977 0.999221643 0.039447526
v 0.200580142 -0.183711866 0.001137162
vt 0.902210902 0.578540899
vn -0.000038977 0.999221643 0.039447526
v 0.199620425 -0.220181088 0.924916214
vt 0.901482618 0.916398807
vn -0.000038977 0.999221643 0.039447526
f 319/319/319 320/320/320 321/321/321
g frame
v 0.217855027 -0.183711866 0.001154231
vt 0.915320005 0.578547142
vn -0.000038977 0.999221643 0.039447526
v 0.199620425 -0.220181088 0.924916214
vt 0.901482618 0.916398807
vn -0.000038977 0.999221643 0.039447526
v 0.216895311 -0.220181088 0.924933283
vt 0.914591722 0.916405049
vn -0.000038977 0.999221643 0.039447526
f 322/322/322 323/323/323 324/324/324
g frame
v 0.200580142 -0.183711866 0.001137162
vt 0.628795250 0.578540899
vn -0.866036942 0.499625509 0.018824635
v 0.191943282 -0.198661288 0.000567323
vt 0.617768144 0.578332490
vn -0.866036942 0.499625509 0.018824635
v 0.190983566 -0.235130510 0.924346376
vt 0.590867439 0.916190397
vn -0.866036942 0.499625509 0.018824635
f 325/325/325 326/326/326 327/327/327
g frame
v 0.200580142 -0.183711866 0.001137162
vt 0.628795250 0.578540899
vn -0.866036942 0.499625509 0.018824635
v 0.190983566 -0.235130510 0.924346376
vt 0.590867439 0.916190397
vn -0.866036942 0.499625509 0.018824635
v 0.199620425 -0.220181088 0.924916214
vt 0.601894545 0.916398807
vn -0.866036942 0.499625509 0.018824635
f 328/328/328 329/329/329 330/330/330
g frame
v -0.210177884 -0.243767957 0.939889351
vt 0.584496219 0.921875000
vn -1.000000000 0.000000000 0.000000000
v -0.210177884 -0.226493062 0.939889351
vt 0.597238659 0.921875000
vn -1.000000000 0.000000000 0.000000000
v -0.210177884 -0.217855615 0.925299391
vt 0.603609878 0.916538948
vn -1.000000000 0.000000000 0.000000000
f 331/331/331 332/332/332 333/333/333
g frame
v -0.210177884 -0.243767957 0.939889351
vt 0.584496219 0.921875000
vn -1.000000000 0.000000000 0.000000000
v -0.210177884 -0.217855615 0.925299391
vt 0.603609878 0.916538948
vn -1.000000000 0.000000000 0.000000000
v -0.210177884 -0.226493062 0.910709431
vt 0.597238659 0.911202895
vn -1.000000000 0.000000000 0.000000000
f 334/334/334 335/335/335 336/336/336
g frame
v -0.210177884 -0.243767957 0.939889351
vt 0.584496219 0.921875000
vn -1.000000000 0.000000000 0.000000000
v -0.210177884 -0.226493062 0.910709431
vt 0.597238659 0.911202895
vn -1.000000000 0.000000000 0.000000000
v -0.210177884 -0.243767957 0.910709431
vt 0.584496219 0.911202895
vn -1.000000000 0.000000000 0.000000000
f 337/337/337 338/338/338 339/339/339
g frame
v -0.210177884 -0.243767957 0.939889351
vt 0.584496219 0.921875000
vn -1.000000000 0.000000000 -0.000000000
v -0.210177884 -0.243767957 0.910709431
vt 0.584496219 0.911202895
vn -1.000000000 0.000000000 -0.000000000
v -0.210177884 -0.252405404 0.925299391
vt 0.578125000 0.916538948
vn -1.000000000 0.000000000 -0.000000000
f 340/340/340 341/341/341 342/342/342
g frame
v 0.210177884 -0.252405404 0.925299391
vt 0.578125000 0.916538948
vn 1.000000000 0.000000000 0.000000000
v 0.210177884 -0.243767957 0.910709431
vt 0.584496219 0.911202895
vn 1.000000000 0.000000000 0.000000000
v 0.210177884 -0.226493062 0.910709431
vt 0.597238659 0.911202895
vn 1.000000000 0.000000000 0.000000000
f 343/343/343 344/344/344 345/345/345
g frame
v 0.210177884 -0.252405404 0.925299391
vt 0.578125000 0.916538948
vn 1.000000000 -0.000000000 0.000000000
v 0.210177884 -0.226493062 0.910709431
vt 0.597238659 0.911202895
vn 1.000000000 -0.000000000 0.000000000
v 0.210177884 -0.217855615 0.925299391
vt 0.603609878 0.916538948
vn 1.000000000 -0.000000000 0.000000000
f 346/346/346 347/347/347 348/348/348
g frame
v 0.210177884 -0.252405404 0.925299391
vt 0.578125000 0.916538948
vn 1.000000000 0.000000000 0.000000000
v 0.210177884 -0.217855615 0.925299391
vt 0.603609878 0.916538948
vn 1.000000000 0.000000000 0.000000000
v 0.210177884 -0.226493062 0.939889351
vt 0.597238659 0.921875000
vn 1.000000000 0.000000000 0.000000000
f 349/349/349 350/350/350 351/351/351
g frame
v 0.210177884 -0.252405404 0.925299391
vt 0.578125000 0.916538948
vn 1.000000000 0.000000000 0.000000000
v 0.210177884 -0.226493062 0.939889351
vt 0.597238659 0.921875000
vn 1.000000000 0.000000000 0.000000000
v 0.210177884 -0.243767957 0.939889351
vt 0.584496219 0.921875000
vn 1.000000000 0.000000000 0.000000000
f 352/352/352 353/353/353 354/354/354
g frame
v -0.210177884 -0.252405404 0.925299391
vt 0.590505820 0.916538948
vn 0.000000000 -0.860510156 -0.509433284
v -0.210177884 -0.243767957 0.910709431
vt 0.590505820 0.911202895
vn 0.000000000 -0.860510156 -0.509433284
v 0.210177884 -0.243767957 0.910709431
vt 0.909494180 0.911202895
vn 0.000000000 -0.860510156 -0.509433284
f 355/355/355 356/356/356 357/357/357
g frame
v -0.210177884 -0.252405404 0.925299391
vt 0.590505820 0.916538948
vn 0.000000000 -0.860510156 -0.509433284
v 0.210177884 -0.243767957 0.910709431
vt 0.909494180 0.911202895
vn 0.000000000 -0.860510156 -0.509433284
v 0.210177884 -0.252405404 0.925299391
vt 0.909494180 0.916538948
vn 0.000000000 -0.860510156 -0.509433284
f 358/358/358 359/359/359 360/360/360
g frame
v -0.210177884 -0.243767957 0.910709431
vt 0.590505820 0.584496219
vn 0.000000000 0.000000000 -1.000000000
v -0.210177884 -0.226493062 0.910709431
vt 0.590505820 0.597238659
vn 0.000000000 0.000000000 -1.000000000
v 0.210177884 -0.226493062 0.910709431
vt 0.909494180 0.597238659
vn 0.000000000 0.000000000 -1.000000000
f 361/361/361 362/362/362 363/363/363
g frame
v -0.210177884 -0.243767957 0.910709431
vt 0.590505820 0.584496219
vn 0.000000000 0.000000000 -1.000000000
v 0.210177884 -0.226493062 0.910709431
vt 0.909494180 0.597238659
vn 0.000000000 0.000000000 -1.000000000
v 0.210177884 -0.243767957 0.910709431
vt 0.909494180 0.584496219
vn 0.000000000 0.000000000 -1.000000000
f 364/364/364 365/365/365 366/366/366
g frame
v -0.210177884 -0.226493062 0.910709431
vt 0.590505820 0.911202895
vn 0.000000000 0.860510156 -0.509433284
v -0.210177884 -0.217855615 0.925299391
vt 0.590505820 0.916538948
vn 0.000000000 0.860510156 -0.509433284
v 0.210177884 -0.217855615 0.925299391
vt 0.909494180 0.916538948
vn 0.000000000 0.860510156 -0.509433284
f 367/367/367 368/368/368 369/369/369
g frame
v -0.210177884 -0.226493062 0.910709431
vt 0.590505820 0.911202895
vn 0.000000000 0.860510156 -0.509433284
v 0.210177884 -0.217855615 0.925299391
vt 0.909494180 0.916538948
vn 0.000000000 0.860510156 -0.509433284
v 0.210177884 -0.226493062 0.910709431
vt 0.909494180 0.911202895
vn 0.000000000 0.860510156 -0.509433284
f 370/370/370 371/371/371 372/372/372
g frame
v -0.210177884 -0.217855615 0.925299391
vt 0.590505820 0.916538948
vn 0.000000000 0.860510156 0.509433284
v -0.210177884 -0.226493062 0.939889351
vt 0.590505820 0.921875000
vn 0.000000000 0.860510156 0.509433284
v 0.210177884 -0.226493062 0.939889351
vt 0.909494180 0.921875000
vn 0.000000000 0.860510156 0.509433284
f 373/373/373 374/374/374 375/375/375
g frame
v -0.210177884 -0.217855615 0.925299391
vt 0.590505820 0.916538948
vn -0.000000000 0.860510156 0.509433284
v 0.210177884 -0.226493062 0.939889351
vt 0.909494180 0.921875000
vn -0.000000000 0.860510156 0.509433284
v 0.210177884 -0.217855615 0.925299391
vt 0.909494180 0.916538948
vn -0.000000000 0.860510156 0.509433284
f 376/376/376 377/377/377 378/378/378
g frame
v -0.210177884 -0.226493062 0.939889351
vt 0.590505820 0.597238659
vn 0.000000000 0.000000000 1.000000000
v -0.210177884 -0.243767957 0.939889351
vt 0.590505820 0.584496219
vn 0.000000000 0.000000000 1.000000000
v 0.210177884 -0.243767957 0.939889351
vt 0.909494180 0.584496219
vn 0.000000000 0.000000000 1.000000000
f 379/379/379 380/380/380 381/381/381
g frame
v -0.210177884 -0.226493062 0.939889351
vt 0.590505820 0.597238659
vn -0.000000000 0.000000000 1.000000000
v 0.210177884 -0.243767957 0.939889351
vt 0.909494180 0.584496219
vn -0.000000000 0.000000000 1.000000000
v 0.210177884 -0.226493062 0.939889351
vt 0.909494180 0.597238659
vn -0.000000000 0.000000000 1.000000000
f 382/382/382 383/383/383 384/384/384
g frame
v -0.210177884 -0.243767957 0.939889351
vt 0.590505820 0.921875000
vn 0.000000000 -0.860510156 0.509433284
v -0.210177884 -0.252405404 0.925299391
vt 0.590505820 0.916538948
vn 0.000000000 -0.860510156 0.509433284
v 0.210177884 -0.252405404 0.925299391
vt 0.909494180 0.916538948
vn 0.000000000 -0.860510156 0.509433284
f 385/385/385 386/386/386 387/387/387
g frame
v -0.210177884 -0.243767957 0.939889351
vt 0.590505820 0.921875000
vn 0.000000000 -0.860510156 0.509433284
v 0.210177884 -0.252405404 0.925299391
vt 0.909494180 0.916538948
vn 0.000000000 -0.860510156 0.509433284
v 0.210177884 -0.243767957 0.939889351
vt 0.909494180 0.921875000
vn 0.000000000 -0.860510156 0.509433284
f 388/388/388 389/389/389 390/390/390
g frame
v -0.204419586 -0.224573630 0.587288361
vt 0.598654485 0.792916639
vn -1.000000000 0.000000000 0.000000000
v -0.204419586 -0.209218168 0.587288361
vt 0.609981097 0.792916639
vn -1.000000000 0.000000000 0.000000000
v -0.204419586 -0.201540437 0.574319508
vt 0.615644404 0.788173481
vn -1.000000000 0.000000000 0.000000000
f 391/391/391 392/392/392 393/393/393
g frame
v -0.204419586 -0.224573630 0.587288361
vt 0.598654485 0.792916639
vn -1.000000000 0.000000000 0.000000000
v -0.204419586 -0.201540437 0.574319508
vt 0.615644404 0.788173481
vn -1.000000000 0.000000000 0.000000000
v -0.204419586 -0.209218168 0.561350655
vt 0.609981097 0.783430324
vn -1.000000000 0.000000000 0.000000000
f 394/394/394 395/395/395 396/396/396
g frame
v -0.204419586 -0.224573630 0.587288361
vt 0.598654485 0.792916639
vn -1.000000000 0.000000000 0.000000000
v -0.204419586 -0.209218168 0.561350655
vt 0.609981097 0.783430324
vn -1.000000000 0.000000000 0.000000000
v -0.204419586 -0.224573630 0.561350655
vt 0.598654485 0.783430324
vn -1.000000000 0.000000000 0.000000000
f 397/397/397 398/398/398 399/399/399
g frame
v -0.204419586 -0.224573630 0.587288361
vt 0.598654485 0.792916639
vn -1.000000000 0.000000000 -0.000000000
v -0.204419586 -0.224573630 0.561350655
vt 0.598654485 0.783430324
vn -1.000000000 0.000000000 -0.000000000
v -0.204419586 -0.232251360 0.574319508
vt 0.592991179 0.788173481
vn -1.000000000 0.000000000 -0.000000000
f 400/400/400 401/401/401 402/402/402
g frame
v 0.204419586 -0.232251360 0.574319508
vt 0.592991179 0.788173481
vn 1.000000000 0.000000000 0.000000000
v 0.204419586 -0.224573630 0.561350655
vt 0.598654485 0.783430324
vn 1.000000000 0.000000000 0.000000000
v 0.204419586 -0.209218168 0.561350655
vt 0.609981097 0.783430324
vn 1.000000000 0.000000000 0.000000000
f 403/403/403 404/404/404 405/405/405
g frame
v 0.204419586 -0.232251360 0.574319508
vt 0.592991179 0.788173481
vn 1.000000000 -0.000000000 0.000000000
v 0.204419586 -0.209218168 0.561350655
vt 0.609981097 0.783430324
vn 1.000000000 -0.000000000 0.000000000
v 0.204419586 -0.201540437 0.574319508
vt 0.615644404 0.788173481
vn 1.000000000 -0.000000000 0.000000000
f 406/406/406 407/407/407 408/408/408
g frame
v 0.204419586 -0.232251360 0.574319508
vt 0.592991179 0.788173481
vn 1.000000000 0.000000000 0.000000000
v 0.204419586 -0.201540437 0.574319508
vt 0.615644404 0.788173481
vn 1.000000000 0.000000000 0.000000000
v 0.204419586 -0.209218168 0.587288361
vt 0.609981097 0.792916639
vn 1.000000000 0.000000000 0.000000000
f 409/409/409 410/410/410 411/411/411
g frame
v 0.204419586 -0.232251360 0.574319508
vt 0.592991179 0.788173481
vn 1.000000000 0.000000000 0.000000000
v 0.204419586 -0.209218168 0.587288361
vt 0.609981097 0.792916639
vn 1.000000000 0.000000000 0.000000000
v 0.204419586 -0.224573630 0.587288361
vt 0.598654485 0.792916639
vn 1.000000000 0.000000000 0.000000000
f 412/412/412 413/413/413 414/414/414
g frame
v -0.204419586 -0.232251360 0.574319508
vt 0.594875523 0.788173481
vn 0.000000000 -0.860510156 -0.509433284
v -0.204419586 -0.224573630 0.561350655
vt 0.594875523 0.783430324
vn 0.000000000 -0.860510156 -0.509433284
v 0.204419586 -0.224573630 0.561350655
vt 0.905124477 0.783430324
vn 0.000000000 -0.860510156 -0.509433284
f 415/415/415 416/416/416 417/417/417
g frame
v -0.204419586 -0.232251360 0.574319508
vt 0.594875523 0.788173481
vn 0.000000000 -0.860510156 -0.509433284
v 0.204419586 -0.224573630 0.561350655
vt 0.905124477 0.783430324
vn 0.000000000 -0.860510156 -0.509433284
v 0.204419586 -0.232251360 0.574319508
vt 0.905124477 0.788173481
vn 0.000000000 -0.860510156 -0.509433284
f 418/418/418 419/419/419 420/420/420
g frame
v -0.204419586 -0.224573630 0.561350655
vt 0.594875523 0.598654485
vn 0.000000000 0.000000000 -1.000000000
v -0.204419586 -0.209218168 0.561350655
vt 0.594875523 0.609981097
vn 0.000000000 0.000000000 -1.000000000
v 0.204419586 -0.209218168 0.561350655
vt 0.905124477 0.609981097
vn 0.000000000 0.000000000 -1.000000000
f 421/421/421 422/422/422 423/423/423
g frame
v -0.204419586 -0.224573630 0.561350655
vt 0.594875523 0.598654485
vn 0.000000000 0.000000000 -1.000000000
v 0.204419586 -0.209218168 0.561350655
vt 0.905124477 0.609981097
vn 0.000000000 0.000000000 -1.000000000
v 0.204419586 -0.224573630 0.561350655
vt 0.905124477 0.598654485
vn 0.000000000 0.000000000 -1.000000000
f 424/424/424 425/425/425 426/426/426
g frame
v -0.204419586 -0.209218168 0.561350655
vt 0.594875523 0.783430324
vn 0.000000000 0.860510156 -0.509433284
v -0.204419586 -0.201540437 0.574319508
vt 0.594875523 0.788173481
vn 0.000000000 0.860510156 -0.509433284
v 0.204419586 -0.201540437 0.574319508
vt 0.905124477 0.788173481
vn 0.000000000 0.860510156 -0.509433284
f 427/427/427 428/428/428 429/429/429
g frame
v -0.204419586 -0.209218168 0.561350655
vt 0.594875523 0.783430324
vn 0.000000000 0.860510156 -0.509433284
v 0.204419586 -0.201540437 0.574319508
vt 0.905124477 0.788173481
vn 0.000000000 0.860510156 -0.509433284
v 0.204419586 -0.209218168 0.561350655
vt 0.905124477 0.783430324
vn 0.000000000 0.860510156 -0.509433284
f 430/430/430 431/431/431 432/432/432
g frame
v -0.204419586 -0.201540437 0.574319508
vt 0.594875523 0.788173481
vn 0.000000000 0.860510156 0.509433284
v -0.204419586 -0.209218168 0.587288361
vt 0.594875523 0.792916639
vn 0.000000000 0.860510156 0.509433284
v 0.204419586 -0.209218168 0.587288361
vt 0.905124477 0.792916639
vn 0.000000000 0.860510156 0.509433284
f 433/433/433 434/434/434 435/435/435
g frame
v -0.204419586 -0.201540437 0.574319508
vt 0.594875523 0.788173481
vn -0.000000000 0.860510156 0.509433284
v 0.204419586 -0.209218168 0.587288361
vt 0.905124477 0.792916639
vn -0.000000000 0.860510156 0.509433284
v 0.204419586 -0.201540437 0.574319508
vt 0.905124477 0.788173481
vn -0.000000000 0.860510156 0.509433284
f 436/436/436 437/437/437 438/438/438
g frame
v -0.204419586 -0.209218168 0.587288361
vt 0.594875523 0.609981097
vn 0.000000000 0.000000000 1.000000000
v -0.204419586 -0.224573630 0.587288361
vt 0.594875523 0.598654485
vn 0.000000000 0.000000000 1.000000000
v 0.204419586 -0.224573630 0.587288361
vt 0.905124477 0.598654485
vn 0.000000000 0.000000000 1.000000000
f 439/439/439 440/440/440 441/441/441
g frame
v -0.204419586 -0.209218168 0.587288361
vt 0.594875523 0.609981097
vn -0.000000000 0.000000000 1.000000000
v 0.204419586 -0.224573630 0.587288361
vt 0.905124477 0.598654485
vn -0.000000000 0.000000000 1.000000000
v 0.204419586 -0.209218168 0.587288361
vt 0.905124477 0.609981097
vn -0.000000000 0.000000000 1.000000000
f 442/442/442 443/443/443 444/444/444
g frame
v -0.204419586 -0.224573630 0.587288361
vt 0.594875523 0.792916639
vn 0.000000000 -0.860510156 0.509433284
v -0.204419586 -0.232251360 0.574319508
vt 0.594875523 0.788173481
vn 0.000000000 -0.860510156 0.509433284
v 0.204419586 -0.232251360 0.574319508
vt 0.905124477 0.788173481
vn 0.000000000 -0.860510156 0.509433284
f 445/445/445 446/446/446 447/447/447
g frame
v -0.204419586 -0.224573630 0.587288361
vt 0.594875523 0.792916639
vn 0.000000000 -0.860510156 0.509433284
v 0.204419586 -0.232251360 0.574319508
vt 0.905124477 0.788173481
vn 0.000000000 -0.860510156 0.509433284
v 0.204419586 -0.224573630 0.587288361
vt 0.905124477 0.792916639
vn 0.000000000 -0.860510156 0.509433284
f 448/448/448 449/449/449 450/450/450
g back
v -0.191943273 -0.232251360 0.906580464
vt 0.078125000 0.421875000
vn -0.000000000 0.998747791 0.050028497
v 0.191943273 -0.232251360 0.906580464
vt 0.421875000 0.421875000
vn -0.000000000 0.998747791 0.050028497
v 0.188104408 -0.215936182 0.580871132
vt 0.418437500 0.078125000
vn -0.000000000 0.998747791 0.050028497
f 451/451/451 452/452/452 453/453/453
g back
v -0.191943273 -0.232251360 0.906580464
vt 0.078125000 0.421875000
vn 0.000000000 0.998747791 0.050028497
v 0.188104408 -0.215936182 0.580871132
vt 0.418437500 0.078125000
vn 0.000000000 0.998747791 0.050028497
v -0.188104408 -0.215936182 0.580871132
vt 0.081562500 0.078125000
vn 0.000000000 0.998747791 0.050028497
f 454/454/454 455/455/455 456/456/456
g back
v -0.188104408 -0.223613913 0.580871132
vt 0.081562500 0.078125000
vn 0.000000000 -0.998747791 -0.050028497
v 0.188104408 -0.223613913 0.580871132
vt 0.418437500 0.078125000
vn 0.000000000 -0.998747791 -0.050028497
v 0.191943273 -0.239929091 0.906580464
vt 0.421875000 0.421875000
vn 0.000000000 -0.998747791 -0.050028497
f 457/457/457 458/458/458 459/459/459
g back
v -0.188104408 -0.223613913 0.580871132
vt 0.081562500 0.078125000
vn 0.000000000 -0.998747791 -0.050028497
v 0.191943273 -0.239929091 0.906580464
vt 0.421875000 0.421875000
vn 0.000000000 -0.998747791 -0.050028497
v -0.191943273 -0.239929091 0.906580464
vt 0.078125000 0.421875000
vn 0.000000000 -0.998747791 -0.050028497
f 460/460/460 461/461/461 462/462/462
g back
v -0.188104408 -0.215936182 0.580871132
vt 0.081562500 0.421875000
vn 0.000000000 0.000000000 -1.000000000
v 0.188104408 -0.215936182 0.580871132
vt 0.418437500 0.421875000
vn 0.000000000 0.000000000 -1.000000000
v 0.188104408 -0.223613913 0.580871132
vt 0.418437500 0.311874998
vn 0.000000000 0.000000000 -1.000000000
f 463/463/463 464/464/464 465/465/465
g back
v -0.188104408 -0.215936182 0.580871132
vt 0.081562500 0.421875000
vn 0.000000000 0.000000000 -1.000000000
v 0.188104408 -0.223613913 0.580871132
vt 0.418437500 0.311874998
vn 0.000000000 0.000000000 -1.000000000
v -0.188104408 -0.223613913 0.580871132
vt 0.081562500 0.311874998
vn 0.000000000 0.000000000 -1.000000000
f 466/466/466 467/467/467 468/468/468
g back
v 0.188104408 -0.215936182 0.580871132
vt 0.421875000 0.078125000
vn 0.999930550 0.000000000 -0.011785351
v 0.191943273 -0.232251360 0.906580464
vt 0.188125002 0.421875000
vn 0.999930550 0.000000000 -0.011785351
v 0.191943273 -0.239929091 0.906580464
vt 0.078125000 0.421875000
vn 0.999930550 0.000000000 -0.011785351
f 469/469/469 470/470/470 471/471/471
g back
v 0.188104408 -0.215936182 0.580871132
vt 0.421875000 0.078125000
vn 0.999930550 0.000000000 -0.011785351
v 0.191943273 -0.239929091 0.906580464
vt 0.078125000 0.421875000
vn 0.999930550 0.000000000 -0.011785351
v 0.188104408 -0.223613913 0.580871132
vt 0.311874998 0.078125000
vn 0.999930550 0.000000000 -0.011785351
f 472/472/472 473/473/473 474/474/474
g back
v 0.191943273 -0.232251360 0.906580464
vt 0.421875000 0.188125002
vn 0.000000000 0.000000000 1.000000000
v -0.191943273 -0.232251360 0.906580464
vt 0.078125000 0.188125002
vn 0.000000000 0.000000000 1.000000000
v -0.191943273 -0.239929091 0.906580464
vt 0.078125000 0.078125000
vn 0.000000000 0.000000000 1.000000000
f 475/475/475 476/476/476 477/477/477
g back
v 0.191943273 -0.232251360 0.906580464
vt 0.421875000 0.188125002
vn 0.000000000 0.000000000 1.000000000
v -0.191943273 -0.239929091 0.906580464
vt 0.078125000 0.078125000
vn 0.000000000 0.000000000 1.000000000
v 0.191943273 -0.239929091 0.906580464
vt 0.421875000 0.078125000
vn 0.000000000 0.000000000 1.000000000
f 478/478/478 479/479/479 480/480/480
g back
v -0.191943273 -0.232251360 0.906580464
vt 0.188125002 0.421875000
vn -0.999930550 0.000000000 -0.011785351
v -0.188104408 -0.215936182 0.580871132
vt 0.421875000 0.078125000
vn -0.999930550 0.000000000 -0.011785351
v -0.188104408 -0.223613913 0.580871132
vt 0.311874998 0.078125000
vn -0.999930550 0.000000000 -0.011785351
f 481/481/481 482/482/482 483/483/483
g back
v -0.191943273 -0.232251360 0.906580464
vt 0.188125002 0.421875000
vn -0.999930550 -0.000000000 -0.011785351
v -0.188104408 -0.223613913 0.580871132
vt 0.311874998 0.078125000
vn -0.999930550 -0.000000000 -0.011785351
v -0.191943273 -0.239929091 0.906580464
vt 0.078125000 0.421875000
vn -0.999930550 -0.000000000 -0.011785351
f 484/484/484 485/485/485 486/486/486
