# G015 native chair fidelity candidate; tile units XYZ, Z up.
# Surface charts and native palette swatches; 32x32 PNG, nearest sampling.
mtllib pz_chair_seating_indoor_03_darkblue_modern_fidelity_r1.mtl
o pz_chair_seating_indoor_03_darkblue_modern_fidelity_r1
usemtl pz_chair_seating_indoor_03_darkblue_modern_fidelity_r1_PS1
g seat
v 0.000000000 0.000000000 0.434684185
vt 0.250000000 0.750000000
vn 0.000000000 0.069288897 0.997596636
v -0.244770500 -0.296301131 0.455264025
vt 0.111037234 0.578125000
vn 0.000000000 0.069288897 0.997596636
v 0.244770500 -0.296301131 0.455264025
vt 0.388962766 0.578125000
vn 0.000000000 0.069288897 0.997596636
f 1/1/1 2/2/2 3/3/3
g seat
v -0.244770500 -0.296301131 0.455264025
vt 0.111037234 0.905824092
vn 0.000000000 -1.000000000 0.000000000
v -0.244770500 -0.296301131 0.367274835
vt 0.111037234 0.578125000
vn 0.000000000 -1.000000000 0.000000000
v 0.244770500 -0.296301131 0.367274835
vt 0.388962766 0.578125000
vn 0.000000000 -1.000000000 0.000000000
f 4/4/4 5/5/5 6/6/6
g seat
v -0.244770500 -0.296301131 0.455264025
vt 0.111037234 0.905824092
vn 0.000000000 -1.000000000 0.000000000
v 0.244770500 -0.296301131 0.367274835
vt 0.388962766 0.578125000
vn 0.000000000 -1.000000000 0.000000000
v 0.244770500 -0.296301131 0.455264025
vt 0.388962766 0.905824092
vn 0.000000000 -1.000000000 0.000000000
f 7/7/7 8/8/8 9/9/9
g seat
v 0.000000000 0.000000000 0.434684185
vt 0.250000000 0.750000000
vn -0.078502789 0.004390676 0.996904225
v 0.244770500 -0.296301131 0.455264025
vt 0.388962766 0.578125000
vn -0.078502789 0.004390676 0.996904225
v 0.302742460 -0.238329171 0.459573791
vt 0.421875000 0.611752717
vn -0.078502789 0.004390676 0.996904225
f 10/10/10 11/11/11 12/12/12
g seat
v 0.244770500 -0.296301131 0.455264025
vt 0.078125000 0.905824092
vn 0.707106781 -0.707106781 0.000000000
v 0.244770500 -0.296301131 0.367274835
vt 0.078125000 0.578125000
vn 0.707106781 -0.707106781 0.000000000
v 0.302742460 -0.238329171 0.367274835
vt 0.111752717 0.578125000
vn 0.707106781 -0.707106781 0.000000000
f 13/13/13 14/14/14 15/15/15
g seat
v 0.244770500 -0.296301131 0.455264025
vt 0.078125000 0.905824092
vn 0.707106781 -0.707106781 0.000000000
v 0.302742460 -0.238329171 0.367274835
vt 0.111752717 0.578125000
vn 0.707106781 -0.707106781 0.000000000
v 0.302742460 -0.238329171 0.459573791
vt 0.111752717 0.921875000
vn 0.707106781 -0.707106781 0.000000000
f 16/16/16 17/17/17 18/18/18
g seat
v 0.000000000 0.000000000 0.434684185
vt 0.250000000 0.750000000
vn -0.081937348 0.000000000 0.996637482
v 0.302742460 -0.238329171 0.459573791
vt 0.421875000 0.611752717
vn -0.081937348 0.000000000 0.996637482
v 0.302742460 0.238329171 0.459573791
vt 0.421875000 0.888247283
vn -0.081937348 0.000000000 0.996637482
f 19/19/19 20/20/20 21/21/21
g seat
v 0.302742460 -0.238329171 0.459573791
vt 0.111752717 0.921875000
vn 1.000000000 0.000000000 0.000000000
v 0.302742460 -0.238329171 0.367274835
vt 0.111752717 0.578125000
vn 1.000000000 0.000000000 0.000000000
v 0.302742460 0.238329171 0.367274835
vt 0.388247283 0.578125000
vn 1.000000000 0.000000000 0.000000000
f 22/22/22 23/23/23 24/24/24
g seat
v 0.302742460 -0.238329171 0.459573791
vt 0.111752717 0.921875000
vn 1.000000000 -0.000000000 0.000000000
v 0.302742460 0.238329171 0.367274835
vt 0.388247283 0.578125000
vn 1.000000000 -0.000000000 0.000000000
v 0.302742460 0.238329171 0.459573791
vt 0.388247283 0.921875000
vn 1.000000000 -0.000000000 0.000000000
f 25/25/25 26/26/26 27/27/27
g seat
v 0.000000000 0.000000000 0.434684185
vt 0.250000000 0.750000000
vn -0.078502789 -0.004390676 0.996904225
v 0.302742460 0.238329171 0.459573791
vt 0.421875000 0.888247283
vn -0.078502789 -0.004390676 0.996904225
v 0.244770500 0.296301131 0.455264025
vt 0.388962766 0.921875000
vn -0.078502789 -0.004390676 0.996904225
f 28/28/28 29/29/29 30/30/30
g seat
v 0.302742460 0.238329171 0.459573791
vt 0.388247283 0.921875000
vn 0.707106781 0.707106781 0.000000000
v 0.302742460 0.238329171 0.367274835
vt 0.388247283 0.578125000
vn 0.707106781 0.707106781 0.000000000
v 0.244770500 0.296301131 0.367274835
vt 0.421875000 0.578125000
vn 0.707106781 0.707106781 0.000000000
f 31/31/31 32/32/32 33/33/33
g seat
v 0.302742460 0.238329171 0.459573791
vt 0.388247283 0.921875000
vn 0.707106781 0.707106781 0.000000000
v 0.244770500 0.296301131 0.367274835
vt 0.421875000 0.578125000
vn 0.707106781 0.707106781 0.000000000
v 0.244770500 0.296301131 0.455264025
vt 0.421875000 0.905824092
vn 0.707106781 0.707106781 0.000000000
f 34/34/34 35/35/35 36/36/36
g seat
v 0.000000000 0.000000000 0.434684185
vt 0.250000000 0.750000000
vn 0.000000000 -0.069288897 0.997596636
v 0.244770500 0.296301131 0.455264025
vt 0.388962766 0.921875000
vn 0.000000000 -0.069288897 0.997596636
v -0.244770500 0.296301131 0.455264025
vt 0.111037234 0.921875000
vn 0.000000000 -0.069288897 0.997596636
f 37/37/37 38/38/38 39/39/39
g seat
v 0.244770500 0.296301131 0.455264025
vt 0.388962766 0.905824092
vn 0.000000000 1.000000000 0.000000000
v 0.244770500 0.296301131 0.367274835
vt 0.388962766 0.578125000
vn 0.000000000 1.000000000 0.000000000
v -0.244770500 0.296301131 0.367274835
vt 0.111037234 0.578125000
vn 0.000000000 1.000000000 0.000000000
f 40/40/40 41/41/41 42/42/42
g seat
v 0.244770500 0.296301131 0.455264025
vt 0.388962766 0.905824092
vn 0.000000000 1.000000000 0.000000000
v -0.244770500 0.296301131 0.367274835
vt 0.111037234 0.578125000
vn 0.000000000 1.000000000 0.000000000
v -0.244770500 0.296301131 0.455264025
vt 0.111037234 0.905824092
vn 0.000000000 1.000000000 0.000000000
f 43/43/43 44/44/44 45/45/45
g seat
v 0.000000000 0.000000000 0.434684185
vt 0.250000000 0.750000000
vn 0.078502789 -0.004390676 0.996904225
v -0.244770500 0.296301131 0.455264025
vt 0.111037234 0.921875000
vn 0.078502789 -0.004390676 0.996904225
v -0.302742460 0.238329171 0.459573791
vt 0.078125000 0.888247283
vn 0.078502789 -0.004390676 0.996904225
f 46/46/46 47/47/47 48/48/48
g seat
v -0.244770500 0.296301131 0.455264025
vt 0.421875000 0.905824092
vn -0.707106781 0.707106781 0.000000000
v -0.244770500 0.296301131 0.367274835
vt 0.421875000 0.578125000
vn -0.707106781 0.707106781 0.000000000
v -0.302742460 0.238329171 0.367274835
vt 0.388247283 0.578125000
vn -0.707106781 0.707106781 0.000000000
f 49/49/49 50/50/50 51/51/51
g seat
v -0.244770500 0.296301131 0.455264025
vt 0.421875000 0.905824092
vn -0.707106781 0.707106781 0.000000000
v -0.302742460 0.238329171 0.367274835
vt 0.388247283 0.578125000
vn -0.707106781 0.707106781 0.000000000
v -0.302742460 0.238329171 0.459573791
vt 0.388247283 0.921875000
vn -0.707106781 0.707106781 0.000000000
f 52/52/52 53/53/53 54/54/54
g seat
v 0.000000000 0.000000000 0.434684185
vt 0.250000000 0.750000000
vn 0.081937348 0.000000000 0.996637482
v -0.302742460 0.238329171 0.459573791
vt 0.078125000 0.888247283
vn 0.081937348 0.000000000 0.996637482
v -0.302742460 -0.238329171 0.459573791
vt 0.078125000 0.611752717
vn 0.081937348 0.000000000 0.996637482
f 55/55/55 56/56/56 57/57/57
g seat
v -0.302742460 0.238329171 0.459573791
vt 0.388247283 0.921875000
vn -1.000000000 0.000000000 -0.000000000
v -0.302742460 0.238329171 0.367274835
vt 0.388247283 0.578125000
vn -1.000000000 0.000000000 -0.000000000
v -0.302742460 -0.238329171 0.367274835
vt 0.111752717 0.578125000
vn -1.000000000 0.000000000 -0.000000000
f 58/58/58 59/59/59 60/60/60
g seat
v -0.302742460 0.238329171 0.459573791
vt 0.388247283 0.921875000
vn -1.000000000 -0.000000000 0.000000000
v -0.302742460 -0.238329171 0.367274835
vt 0.111752717 0.578125000
vn -1.000000000 -0.000000000 0.000000000
v -0.302742460 -0.238329171 0.459573791
vt 0.111752717 0.921875000
vn -1.000000000 -0.000000000 0.000000000
f 61/61/61 62/62/62 63/63/63
g seat
v 0.000000000 0.000000000 0.434684185
vt 0.250000000 0.750000000
vn 0.078502789 0.004390676 0.996904225
v -0.302742460 -0.238329171 0.459573791
vt 0.078125000 0.611752717
vn 0.078502789 0.004390676 0.996904225
v -0.244770500 -0.296301131 0.455264025
vt 0.111037234 0.578125000
vn 0.078502789 0.004390676 0.996904225
f 64/64/64 65/65/65 66/66/66
g seat
v -0.302742460 -0.238329171 0.459573791
vt 0.111752717 0.921875000
vn -0.707106781 -0.707106781 -0.000000000
v -0.302742460 -0.238329171 0.367274835
vt 0.111752717 0.578125000
vn -0.707106781 -0.707106781 -0.000000000
v -0.244770500 -0.296301131 0.367274835
vt 0.078125000 0.578125000
vn -0.707106781 -0.707106781 -0.000000000
f 67/67/67 68/68/68 69/69/69
g seat
v -0.302742460 -0.238329171 0.459573791
vt 0.111752717 0.921875000
vn -0.707106781 -0.707106781 0.000000000
v -0.244770500 -0.296301131 0.367274835
vt 0.078125000 0.578125000
vn -0.707106781 -0.707106781 0.000000000
v -0.244770500 -0.296301131 0.455264025
vt 0.078125000 0.905824092
vn -0.707106781 -0.707106781 0.000000000
f 70/70/70 71/71/71 72/72/72
g seat
v -0.302742460 -0.238329171 0.367274835
vt 0.078125000 0.611752717
vn 0.000000000 0.000000000 -1.000000000
v -0.302742460 0.238329171 0.367274835
vt 0.078125000 0.888247283
vn 0.000000000 0.000000000 -1.000000000
v -0.244770500 0.296301131 0.367274835
vt 0.111037234 0.921875000
vn 0.000000000 0.000000000 -1.000000000
f 73/73/73 74/74/74 75/75/75
g seat
v -0.302742460 -0.238329171 0.367274835
vt 0.078125000 0.611752717
vn 0.000000000 0.000000000 -1.000000000
v -0.244770500 0.296301131 0.367274835
vt 0.111037234 0.921875000
vn 0.000000000 0.000000000 -1.000000000
v 0.244770500 0.296301131 0.367274835
vt 0.388962766 0.921875000
vn 0.000000000 0.000000000 -1.000000000
f 76/76/76 77/77/77 78/78/78
g seat
v -0.302742460 -0.238329171 0.367274835
vt 0.078125000 0.611752717
vn 0.000000000 0.000000000 -1.000000000
v 0.244770500 0.296301131 0.367274835
vt 0.388962766 0.921875000
vn 0.000000000 0.000000000 -1.000000000
v 0.302742460 0.238329171 0.367274835
vt 0.421875000 0.888247283
vn 0.000000000 0.000000000 -1.000000000
f 79/79/79 80/80/80 81/81/81
g seat
v -0.302742460 -0.238329171 0.367274835
vt 0.078125000 0.611752717
vn 0.000000000 0.000000000 -1.000000000
v 0.302742460 0.238329171 0.367274835
vt 0.421875000 0.888247283
vn 0.000000000 0.000000000 -1.000000000
v 0.302742460 -0.238329171 0.367274835
vt 0.421875000 0.611752717
vn 0.000000000 0.000000000 -1.000000000
f 82/82/82 83/83/83 84/84/84
g seat
v -0.302742460 -0.238329171 0.367274835
vt 0.078125000 0.611752717
vn 0.000000000 0.000000000 -1.000000000
v 0.302742460 -0.238329171 0.367274835
vt 0.421875000 0.611752717
vn 0.000000000 0.000000000 -1.000000000
v 0.244770500 -0.296301131 0.367274835
vt 0.388962766 0.578125000
vn 0.000000000 0.000000000 -1.000000000
f 85/85/85 86/86/86 87/87/87
g seat
v -0.302742460 -0.238329171 0.367274835
vt 0.078125000 0.611752717
vn 0.000000000 0.000000000 -1.000000000
v 0.244770500 -0.296301131 0.367274835
vt 0.388962766 0.578125000
vn 0.000000000 0.000000000 -1.000000000
v -0.244770500 -0.296301131 0.367274835
vt 0.111037234 0.578125000
vn 0.000000000 0.000000000 -1.000000000
f 88/88/88 89/89/89 90/90/90
g frame
v -0.242820983 -0.278885763 0.001617981
vt 0.603750744 0.578125000
vn -0.017923044 -0.038086468 -0.999113700
v -0.285323202 -0.278885763 0.002380426
vt 0.578151976 0.578125000
vn -0.017923044 -0.038086468 -0.999113700
v -0.285367991 -0.236420553 0.000762445
vt 0.578125000 0.604295959
vn -0.017923044 -0.038086468 -0.999113700
f 91/91/91 92/92/92 93/93/93
g frame
v -0.242820983 -0.278885763 0.001617981
vt 0.603750744 0.578125000
vn -0.017923044 -0.038086468 -0.999113700
v -0.285367991 -0.236420553 0.000762445
vt 0.578125000 0.604295959
vn -0.017923044 -0.038086468 -0.999113700
v -0.242865771 -0.236420553 0.000000000
vt 0.603723768 0.604295959
vn -0.017923044 -0.038086468 -0.999113700
f 94/94/94 95/95/95 96/96/96
g frame
v -0.232559645 -0.214520034 0.372307024
vt 0.609931071 0.617793069
vn 0.017923044 0.038086468 0.999113700
v -0.275061864 -0.214520034 0.373069469
vt 0.584332303 0.617793069
vn 0.017923044 0.038086468 0.999113700
v -0.275017076 -0.256985244 0.374687450
vt 0.584359278 0.591622110
vn 0.017923044 0.038086468 0.999113700
f 97/97/97 98/98/98 99/99/99
g frame
v -0.232559645 -0.214520034 0.372307024
vt 0.609931071 0.617793069
vn 0.017923044 0.038086468 0.999113700
v -0.275017076 -0.256985244 0.374687450
vt 0.584359278 0.591622110
vn 0.017923044 0.038086468 0.999113700
v -0.232514856 -0.256985244 0.373925005
vt 0.609958047 0.591622110
vn 0.017923044 0.038086468 0.999113700
f 100/100/100 101/101/101 102/102/102
g frame
v -0.242865771 -0.236420553 0.000000000
vt 0.603723768 0.578125000
vn -0.001052894 0.998275511 -0.058693225
v -0.285367991 -0.236420553 0.000762445
vt 0.578125000 0.578824491
vn -0.001052894 0.998275511 -0.058693225
v -0.275061864 -0.214520034 0.373069469
vt 0.584332303 0.920390614
vn -0.001052894 0.998275511 -0.058693225
f 103/103/103 104/104/104 105/105/105
g frame
v -0.242865771 -0.236420553 0.000000000
vt 0.603723768 0.578125000
vn -0.001052894 0.998275511 -0.058693225
v -0.275061864 -0.214520034 0.373069469
vt 0.584332303 0.920390614
vn -0.001052894 0.998275511 -0.058693225
v -0.232559645 -0.214520034 0.372307024
vt 0.609931071 0.919691123
vn -0.001052894 0.998275511 -0.058693225
f 106/106/106 107/107/107 108/108/108
g frame
v -0.285367991 -0.236420553 0.000762445
vt 0.604295959 0.578824491
vn -0.999617079 -0.000000000 0.027671194
v -0.285323202 -0.278885763 0.002380426
vt 0.578125000 0.580308877
vn -0.999617079 -0.000000000 0.027671194
v -0.275017076 -0.256985244 0.374687450
vt 0.591622110 0.921875000
vn -0.999617079 -0.000000000 0.027671194
f 109/109/109 110/110/110 111/111/111
g frame
v -0.285367991 -0.236420553 0.000762445
vt 0.604295959 0.578824491
vn -0.999617079 0.000000000 0.027671194
v -0.275017076 -0.256985244 0.374687450
vt 0.591622110 0.921875000
vn -0.999617079 0.000000000 0.027671194
v -0.275061864 -0.214520034 0.373069469
vt 0.617793069 0.920390614
vn -0.999617079 0.000000000 0.027671194
f 112/112/112 113/113/113 114/114/114
g frame
v -0.285323202 -0.278885763 0.002380426
vt 0.578151976 0.580308877
vn 0.001052894 -0.998275511 0.058693225
v -0.242820983 -0.278885763 0.001617981
vt 0.603750744 0.579609386
vn 0.001052894 -0.998275511 0.058693225
v -0.232514856 -0.256985244 0.373925005
vt 0.609958047 0.921175509
vn 0.001052894 -0.998275511 0.058693225
f 115/115/115 116/116/116 117/117/117
g frame
v -0.285323202 -0.278885763 0.002380426
vt 0.578151976 0.580308877
vn 0.001052894 -0.998275511 0.058693225
v -0.232514856 -0.256985244 0.373925005
vt 0.609958047 0.921175509
vn 0.001052894 -0.998275511 0.058693225
v -0.275017076 -0.256985244 0.374687450
vt 0.584359278 0.921875000
vn 0.001052894 -0.998275511 0.058693225
f 118/118/118 119/119/119 120/120/120
g frame
v -0.242820983 -0.278885763 0.001617981
vt 0.578125000 0.579609386
vn 0.999617079 0.000000000 -0.027671194
v -0.242865771 -0.236420553 0.000000000
vt 0.604295959 0.578125000
vn 0.999617079 0.000000000 -0.027671194
v -0.232559645 -0.214520034 0.372307024
vt 0.617793069 0.919691123
vn 0.999617079 0.000000000 -0.027671194
f 121/121/121 122/122/122 123/123/123
g frame
v -0.242820983 -0.278885763 0.001617981
vt 0.578125000 0.579609386
vn 0.999617079 0.000000000 -0.027671194
v -0.232559645 -0.214520034 0.372307024
vt 0.617793069 0.919691123
vn 0.999617079 0.000000000 -0.027671194
v -0.232514856 -0.256985244 0.373925005
vt 0.591622110 0.921175509
vn 0.999617079 0.000000000 -0.027671194
f 124/124/124 125/125/125 126/126/126
g frame
v -0.242865771 0.236420553 0.000000000
vt 0.603723768 0.895704041
vn -0.017923044 0.038086468 -0.999113700
v -0.285367991 0.236420553 0.000762445
vt 0.578125000 0.895704041
vn -0.017923044 0.038086468 -0.999113700
v -0.285323202 0.278885763 0.002380426
vt 0.578151976 0.921875000
vn -0.017923044 0.038086468 -0.999113700
f 127/127/127 128/128/128 129/129/129
g frame
v -0.242865771 0.236420553 0.000000000
vt 0.603723768 0.895704041
vn -0.017923044 0.038086468 -0.999113700
v -0.285323202 0.278885763 0.002380426
vt 0.578151976 0.921875000
vn -0.017923044 0.038086468 -0.999113700
v -0.242820983 0.278885763 0.001617981
vt 0.603750744 0.921875000
vn -0.017923044 0.038086468 -0.999113700
f 130/130/130 131/131/131 132/132/132
g frame
v -0.232514856 0.256985244 0.373925005
vt 0.609958047 0.908377890
vn 0.017923044 -0.038086468 0.999113700
v -0.275017076 0.256985244 0.374687450
vt 0.584359278 0.908377890
vn 0.017923044 -0.038086468 0.999113700
v -0.275061864 0.214520034 0.373069469
vt 0.584332303 0.882206931
vn 0.017923044 -0.038086468 0.999113700
f 133/133/133 134/134/134 135/135/135
g frame
v -0.232514856 0.256985244 0.373925005
vt 0.609958047 0.908377890
vn 0.017923044 -0.038086468 0.999113700
v -0.275061864 0.214520034 0.373069469
vt 0.584332303 0.882206931
vn 0.017923044 -0.038086468 0.999113700
v -0.232559645 0.214520034 0.372307024
vt 0.609931071 0.882206931
vn 0.017923044 -0.038086468 0.999113700
f 136/136/136 137/137/137 138/138/138
g frame
v -0.242820983 0.278885763 0.001617981
vt 0.603750744 0.579609386
vn 0.001052894 0.998275511 0.058693225
v -0.285323202 0.278885763 0.002380426
vt 0.578151976 0.580308877
vn 0.001052894 0.998275511 0.058693225
v -0.275017076 0.256985244 0.374687450
vt 0.584359278 0.921875000
vn 0.001052894 0.998275511 0.058693225
f 139/139/139 140/140/140 141/141/141
g frame
v -0.242820983 0.278885763 0.001617981
vt 0.603750744 0.579609386
vn 0.001052894 0.998275511 0.058693225
v -0.275017076 0.256985244 0.374687450
vt 0.584359278 0.921875000
vn 0.001052894 0.998275511 0.058693225
v -0.232514856 0.256985244 0.373925005
vt 0.609958047 0.921175509
vn 0.001052894 0.998275511 0.058693225
f 142/142/142 143/143/143 144/144/144
g frame
v -0.285323202 0.278885763 0.002380426
vt 0.921875000 0.580308877
vn -0.999617079 0.000000000 0.027671194
v -0.285367991 0.236420553 0.000762445
vt 0.895704041 0.578824491
vn -0.999617079 0.000000000 0.027671194
v -0.275061864 0.214520034 0.373069469
vt 0.882206931 0.920390614
vn -0.999617079 0.000000000 0.027671194
f 145/145/145 146/146/146 147/147/147
g frame
v -0.285323202 0.278885763 0.002380426
vt 0.921875000 0.580308877
vn -0.999617079 -0.000000000 0.027671194
v -0.275061864 0.214520034 0.373069469
vt 0.882206931 0.920390614
vn -0.999617079 -0.000000000 0.027671194
v -0.275017076 0.256985244 0.374687450
vt 0.908377890 0.921875000
vn -0.999617079 -0.000000000 0.027671194
f 148/148/148 149/149/149 150/150/150
g frame
v -0.285367991 0.236420553 0.000762445
vt 0.578125000 0.578824491
vn -0.001052894 -0.998275511 -0.058693225
v -0.242865771 0.236420553 0.000000000
vt 0.603723768 0.578125000
vn -0.001052894 -0.998275511 -0.058693225
v -0.232559645 0.214520034 0.372307024
vt 0.609931071 0.919691123
vn -0.001052894 -0.998275511 -0.058693225
f 151/151/151 152/152/152 153/153/153
g frame
v -0.285367991 0.236420553 0.000762445
vt 0.578125000 0.578824491
vn -0.001052894 -0.998275511 -0.058693225
v -0.232559645 0.214520034 0.372307024
vt 0.609931071 0.919691123
vn -0.001052894 -0.998275511 -0.058693225
v -0.275061864 0.214520034 0.373069469
vt 0.584332303 0.920390614
vn -0.001052894 -0.998275511 -0.058693225
f 154/154/154 155/155/155 156/156/156
g frame
v -0.242865771 0.236420553 0.000000000
vt 0.895704041 0.578125000
vn 0.999617079 -0.000000000 -0.027671194
v -0.242820983 0.278885763 0.001617981
vt 0.921875000 0.579609386
vn 0.999617079 -0.000000000 -0.027671194
v -0.232514856 0.256985244 0.373925005
vt 0.908377890 0.921175509
vn 0.999617079 -0.000000000 -0.027671194
f 157/157/157 158/158/158 159/159/159
g frame
v -0.242865771 0.236420553 0.000000000
vt 0.895704041 0.578125000
vn 0.999617079 -0.000000000 -0.027671194
v -0.232514856 0.256985244 0.373925005
vt 0.908377890 0.921175509
vn 0.999617079 -0.000000000 -0.027671194
v -0.232559645 0.214520034 0.372307024
vt 0.882206931 0.919691123
vn 0.999617079 -0.000000000 -0.027671194
f 160/160/160 161/161/161 162/162/162
g frame
v 0.285323202 -0.278885763 0.002380426
vt 0.921848024 0.578125000
vn 0.017923044 -0.038086468 -0.999113700
v 0.242820983 -0.278885763 0.001617981
vt 0.896249256 0.578125000
vn 0.017923044 -0.038086468 -0.999113700
v 0.242865771 -0.236420553 0.000000000
vt 0.896276232 0.604295959
vn 0.017923044 -0.038086468 -0.999113700
f 163/163/163 164/164/164 165/165/165
g frame
v 0.285323202 -0.278885763 0.002380426
vt 0.921848024 0.578125000
vn 0.017923044 -0.038086468 -0.999113700
v 0.242865771 -0.236420553 0.000000000
vt 0.896276232 0.604295959
vn 0.017923044 -0.038086468 -0.999113700
v 0.285367991 -0.236420553 0.000762445
vt 0.921875000 0.604295959
vn 0.017923044 -0.038086468 -0.999113700
f 166/166/166 167/167/167 168/168/168
g frame
v 0.275061864 -0.214520034 0.373069469
vt 0.915667697 0.617793069
vn -0.017923044 0.038086468 0.999113700
v 0.232559645 -0.214520034 0.372307024
vt 0.890068929 0.617793069
vn -0.017923044 0.038086468 0.999113700
v 0.232514856 -0.256985244 0.373925005
vt 0.890041953 0.591622110
vn -0.017923044 0.038086468 0.999113700
f 169/169/169 170/170/170 171/171/171
g frame
v 0.275061864 -0.214520034 0.373069469
vt 0.915667697 0.617793069
vn -0.017923044 0.038086468 0.999113700
v 0.232514856 -0.256985244 0.373925005
vt 0.890041953 0.591622110
vn -0.017923044 0.038086468 0.999113700
v 0.275017076 -0.256985244 0.374687450
vt 0.915640722 0.591622110
vn -0.017923044 0.038086468 0.999113700
f 172/172/172 173/173/173 174/174/174
g frame
v 0.285367991 -0.236420553 0.000762445
vt 0.921875000 0.578824491
vn 0.001052894 0.998275511 -0.058693225
v 0.242865771 -0.236420553 0.000000000
vt 0.896276232 0.578125000
vn 0.001052894 0.998275511 -0.058693225
v 0.232559645 -0.214520034 0.372307024
vt 0.890068929 0.919691123
vn 0.001052894 0.998275511 -0.058693225
f 175/175/175 176/176/176 177/177/177
g frame
v 0.285367991 -0.236420553 0.000762445
vt 0.921875000 0.578824491
vn 0.001052894 0.998275511 -0.058693225
v 0.232559645 -0.214520034 0.372307024
vt 0.890068929 0.919691123
vn 0.001052894 0.998275511 -0.058693225
v 0.275061864 -0.214520034 0.373069469
vt 0.915667697 0.920390614
vn 0.001052894 0.998275511 -0.058693225
f 178/178/178 179/179/179 180/180/180
g frame
v 0.242865771 -0.236420553 0.000000000
vt 0.604295959 0.578125000
vn -0.999617079 0.000000000 -0.027671194
v 0.242820983 -0.278885763 0.001617981
vt 0.578125000 0.579609386
vn -0.999617079 0.000000000 -0.027671194
v 0.232514856 -0.256985244 0.373925005
vt 0.591622110 0.921175509
vn -0.999617079 0.000000000 -0.027671194
f 181/181/181 182/182/182 183/183/183
g frame
v 0.242865771 -0.236420553 0.000000000
vt 0.604295959 0.578125000
vn -0.999617079 0.000000000 -0.027671194
v 0.232514856 -0.256985244 0.373925005
vt 0.591622110 0.921175509
vn -0.999617079 0.000000000 -0.027671194
v 0.232559645 -0.214520034 0.372307024
vt 0.617793069 0.919691123
vn -0.999617079 0.000000000 -0.027671194
f 184/184/184 185/185/185 186/186/186
g frame
v 0.242820983 -0.278885763 0.001617981
vt 0.896249256 0.579609386
vn -0.001052894 -0.998275511 0.058693225
v 0.285323202 -0.278885763 0.002380426
vt 0.921848024 0.580308877
vn -0.001052894 -0.998275511 0.058693225
v 0.275017076 -0.256985244 0.374687450
vt 0.915640722 0.921875000
vn -0.001052894 -0.998275511 0.058693225
f 187/187/187 188/188/188 189/189/189
g frame
v 0.242820983 -0.278885763 0.001617981
vt 0.896249256 0.579609386
vn -0.001052894 -0.998275511 0.058693225
v 0.275017076 -0.256985244 0.374687450
vt 0.915640722 0.921875000
vn -0.001052894 -0.998275511 0.058693225
v 0.232514856 -0.256985244 0.373925005
vt 0.890041953 0.921175509
vn -0.001052894 -0.998275511 0.058693225
f 190/190/190 191/191/191 192/192/192
g frame
v 0.285323202 -0.278885763 0.002380426
vt 0.578125000 0.580308877
vn 0.999617079 -0.000000000 0.027671194
v 0.285367991 -0.236420553 0.000762445
vt 0.604295959 0.578824491
vn 0.999617079 -0.000000000 0.027671194
v 0.275061864 -0.214520034 0.373069469
vt 0.617793069 0.920390614
vn 0.999617079 -0.000000000 0.027671194
f 193/193/193 194/194/194 195/195/195
g frame
v 0.285323202 -0.278885763 0.002380426
vt 0.578125000 0.580308877
vn 0.999617079 0.000000000 0.027671194
v 0.275061864 -0.214520034 0.373069469
vt 0.617793069 0.920390614
vn 0.999617079 0.000000000 0.027671194
v 0.275017076 -0.256985244 0.374687450
vt 0.591622110 0.921875000
vn 0.999617079 0.000000000 0.027671194
f 196/196/196 197/197/197 198/198/198
g frame
v 0.285367991 0.236420553 0.000762445
vt 0.921875000 0.895704041
vn 0.017923044 0.038086468 -0.999113700
v 0.242865771 0.236420553 0.000000000
vt 0.896276232 0.895704041
vn 0.017923044 0.038086468 -0.999113700
v 0.242820983 0.278885763 0.001617981
vt 0.896249256 0.921875000
vn 0.017923044 0.038086468 -0.999113700
f 199/199/199 200/200/200 201/201/201
g frame
v 0.285367991 0.236420553 0.000762445
vt 0.921875000 0.895704041
vn 0.017923044 0.038086468 -0.999113700
v 0.242820983 0.278885763 0.001617981
vt 0.896249256 0.921875000
vn 0.017923044 0.038086468 -0.999113700
v 0.285323202 0.278885763 0.002380426
vt 0.921848024 0.921875000
vn 0.017923044 0.038086468 -0.999113700
f 202/202/202 203/203/203 204/204/204
g frame
v 0.275017076 0.256985244 0.374687450
vt 0.915640722 0.908377890
vn -0.017923044 -0.038086468 0.999113700
v 0.232514856 0.256985244 0.373925005
vt 0.890041953 0.908377890
vn -0.017923044 -0.038086468 0.999113700
v 0.232559645 0.214520034 0.372307024
vt 0.890068929 0.882206931
vn -0.017923044 -0.038086468 0.999113700
f 205/205/205 206/206/206 207/207/207
g frame
v 0.275017076 0.256985244 0.374687450
vt 0.915640722 0.908377890
vn -0.017923044 -0.038086468 0.999113700
v 0.232559645 0.214520034 0.372307024
vt 0.890068929 0.882206931
vn -0.017923044 -0.038086468 0.999113700
v 0.275061864 0.214520034 0.373069469
vt 0.915667697 0.882206931
vn -0.017923044 -0.038086468 0.999113700
f 208/208/208 209/209/209 210/210/210
g frame
v 0.285323202 0.278885763 0.002380426
vt 0.921848024 0.580308877
vn -0.001052894 0.998275511 0.058693225
v 0.242820983 0.278885763 0.001617981
vt 0.896249256 0.579609386
vn -0.001052894 0.998275511 0.058693225
v 0.232514856 0.256985244 0.373925005
vt 0.890041953 0.921175509
vn -0.001052894 0.998275511 0.058693225
f 211/211/211 212/212/212 213/213/213
g frame
v 0.285323202 0.278885763 0.002380426
vt 0.921848024 0.580308877
vn -0.001052894 0.998275511 0.058693225
v 0.232514856 0.256985244 0.373925005
vt 0.890041953 0.921175509
vn -0.001052894 0.998275511 0.058693225
v 0.275017076 0.256985244 0.374687450
vt 0.915640722 0.921875000
vn -0.001052894 0.998275511 0.058693225
f 214/214/214 215/215/215 216/216/216
g frame
v 0.242820983 0.278885763 0.001617981
vt 0.921875000 0.579609386
vn -0.999617079 -0.000000000 -0.027671194
v 0.242865771 0.236420553 0.000000000
vt 0.895704041 0.578125000
vn -0.999617079 -0.000000000 -0.027671194
v 0.232559645 0.214520034 0.372307024
vt 0.882206931 0.919691123
vn -0.999617079 -0.000000000 -0.027671194
f 217/217/217 218/218/218 219/219/219
g frame
v 0.242820983 0.278885763 0.001617981
vt 0.921875000 0.579609386
vn -0.999617079 -0.000000000 -0.027671194
v 0.232559645 0.214520034 0.372307024
vt 0.882206931 0.919691123
vn -0.999617079 -0.000000000 -0.027671194
v 0.232514856 0.256985244 0.373925005
vt 0.908377890 0.921175509
vn -0.999617079 -0.000000000 -0.027671194
f 220/220/220 221/221/221 222/222/222
g frame
v 0.242865771 0.236420553 0.000000000
vt 0.896276232 0.578125000
vn 0.001052894 -0.998275511 -0.058693225
v 0.285367991 0.236420553 0.000762445
vt 0.921875000 0.578824491
vn 0.001052894 -0.998275511 -0.058693225
v 0.275061864 0.214520034 0.373069469
vt 0.915667697 0.920390614
vn 0.001052894 -0.998275511 -0.058693225
f 223/223/223 224/224/224 225/225/225
g frame
v 0.242865771 0.236420553 0.000000000
vt 0.896276232 0.578125000
vn 0.001052894 -0.998275511 -0.058693225
v 0.275061864 0.214520034 0.373069469
vt 0.915667697 0.920390614
vn 0.001052894 -0.998275511 -0.058693225
v 0.232559645 0.214520034 0.372307024
vt 0.890068929 0.919691123
vn 0.001052894 -0.998275511 -0.058693225
f 226/226/226 227/227/227 228/228/228
g frame
v 0.285367991 0.236420553 0.000762445
vt 0.895704041 0.578824491
vn 0.999617079 0.000000000 0.027671194
v 0.285323202 0.278885763 0.002380426
vt 0.921875000 0.580308877
vn 0.999617079 0.000000000 0.027671194
v 0.275017076 0.256985244 0.374687450
vt 0.908377890 0.921875000
vn 0.999617079 0.000000000 0.027671194
f 229/229/229 230/230/230 231/231/231
g frame
v 0.285367991 0.236420553 0.000762445
vt 0.895704041 0.578824491
vn 0.999617079 -0.000000000 0.027671194
v 0.275017076 0.256985244 0.374687450
vt 0.908377890 0.921875000
vn 0.999617079 -0.000000000 0.027671194
v 0.275061864 0.214520034 0.373069469
vt 0.882206931 0.920390614
vn 0.999617079 -0.000000000 0.027671194
f 232/232/232 233/233/233 234/234/234
g back
v -0.304674859 -0.195816400 0.465796193
vt 0.078125000 0.078125000
vn 0.222311318 0.925844188 -0.305598132
v -0.301247267 -0.150727097 0.604892793
vt 0.080058594 0.161649400
vn 0.222311318 0.925844188 -0.305598132
v -0.195810723 -0.175278223 0.607213555
vt 0.139538086 0.163042965
vn 0.222311318 0.925844188 -0.305598132
f 235/235/235 236/236/236 237/237/237
g back
v -0.304674859 -0.195816400 0.465796193
vt 0.078125000 0.078125000
vn 0.214043341 0.929683198 -0.299790925
v -0.195810723 -0.175278223 0.607213555
vt 0.139538086 0.163042965
vn 0.214043341 0.929683198 -0.299790925
v -0.198038658 -0.220367525 0.465796193
vt 0.138281250 0.078125000
vn 0.214043341 0.929683198 -0.299790925
f 238/238/238 239/239/239 240/240/240
g back
v -0.304674859 -0.279553676 0.465796193
vt 0.078125000 0.078125000
vn -0.214043341 -0.929683198 0.299790925
v -0.198038658 -0.304104801 0.465796193
vt 0.138281250 0.078125000
vn -0.214043341 -0.929683198 0.299790925
v -0.195810723 -0.259015499 0.607213555
vt 0.139538086 0.163042965
vn -0.214043341 -0.929683198 0.299790925
f 241/241/241 242/242/242 243/243/243
g back
v -0.304674859 -0.279553676 0.465796193
vt 0.078125000 0.078125000
vn -0.222311318 -0.925844188 0.305598132
v -0.195810723 -0.259015499 0.607213555
vt 0.139538086 0.163042965
vn -0.222311318 -0.925844188 0.305598132
v -0.301247267 -0.234464374 0.604892793
vt 0.080058594 0.161649400
vn -0.222311318 -0.925844188 0.305598132
f 244/244/244 245/245/245 246/246/246
g back
v -0.198038658 -0.220367525 0.465796193
vt 0.138281250 0.078125000
vn 0.089640042 0.948499716 -0.303830466
v -0.195810723 -0.175278223 0.607213555
vt 0.139538086 0.163042965
vn 0.089640042 0.948499716 -0.303830466
v 0.000000000 -0.193239868 0.608911428
vt 0.250000000 0.164062500
vn 0.089640042 0.948499716 -0.303830466
f 247/247/247 248/248/248 249/249/249
g back
v -0.198038658 -0.220367525 0.465796193
vt 0.138281250 0.078125000
vn 0.086184064 0.950234552 -0.299377025
v 0.000000000 -0.193239868 0.608911428
vt 0.250000000 0.164062500
vn 0.086184064 0.950234552 -0.299377025
v 0.000000000 -0.238329171 0.465796193
vt 0.250000000 0.078125000
vn 0.086184064 0.950234552 -0.299377025
f 250/250/250 251/251/251 252/252/252
g back
v -0.198038658 -0.304104801 0.465796193
vt 0.138281250 0.078125000
vn -0.086184064 -0.950234552 0.299377025
v 0.000000000 -0.322066447 0.465796193
vt 0.250000000 0.078125000
vn -0.086184064 -0.950234552 0.299377025
v 0.000000000 -0.276977145 0.608911428
vt 0.250000000 0.164062500
vn -0.086184064 -0.950234552 0.299377025
f 253/253/253 254/254/254 255/255/255
g back
v -0.198038658 -0.304104801 0.465796193
vt 0.138281250 0.078125000
vn -0.089640042 -0.948499716 0.303830466
v 0.000000000 -0.276977145 0.608911428
vt 0.250000000 0.164062500
vn -0.089640042 -0.948499716 0.303830466
v -0.195810723 -0.259015499 0.607213555
vt 0.139538086 0.163042965
vn -0.089640042 -0.948499716 0.303830466
f 256/256/256 257/257/257 258/258/258
g back
v 0.000000000 -0.238329171 0.465796193
vt 0.250000000 0.078125000
vn -0.089732334 0.949935718 -0.299282876
v 0.000000000 -0.193239868 0.608911428
vt 0.250000000 0.164062500
vn -0.089732334 0.949935718 -0.299282876
v 0.195810723 -0.175278223 0.607213555
vt 0.360461914 0.163042965
vn -0.089732334 0.949935718 -0.299282876
f 259/259/259 260/260/260 261/261/261
g back
v 0.000000000 -0.238329171 0.465796193
vt 0.250000000 0.078125000
vn -0.086055523 0.948817304 -0.303875253
v 0.195810723 -0.175278223 0.607213555
vt 0.360461914 0.163042965
vn -0.086055523 0.948817304 -0.303875253
v 0.198038658 -0.220367525 0.465796193
vt 0.361718750 0.078125000
vn -0.086055523 0.948817304 -0.303875253
f 262/262/262 263/263/263 264/264/264
g back
v 0.000000000 -0.322066447 0.465796193
vt 0.250000000 0.078125000
vn 0.086055523 -0.948817304 0.303875253
v 0.198038658 -0.304104801 0.465796193
vt 0.361718750 0.078125000
vn 0.086055523 -0.948817304 0.303875253
v 0.195810723 -0.259015499 0.607213555
vt 0.360461914 0.163042965
vn 0.086055523 -0.948817304 0.303875253
f 265/265/265 266/266/266 267/267/267
g back
v 0.000000000 -0.322066447 0.465796193
vt 0.250000000 0.078125000
vn 0.089732334 -0.949935718 0.299282876
v 0.195810723 -0.259015499 0.607213555
vt 0.360461914 0.163042965
vn 0.089732334 -0.949935718 0.299282876
v 0.000000000 -0.276977145 0.608911428
vt 0.250000000 0.164062500
vn 0.089732334 -0.949935718 0.299282876
f 268/268/268 269/269/269 270/270/270
g back
v 0.198038658 -0.220367525 0.465796193
vt 0.361718750 0.078125000
vn -0.222631759 0.927812866 -0.299329895
v 0.195810723 -0.175278223 0.607213555
vt 0.360461914 0.163042965
vn -0.222631759 0.927812866 -0.299329895
v 0.301247267 -0.150727097 0.604892793
vt 0.419941406 0.161649400
vn -0.222631759 0.927812866 -0.299329895
f 271/271/271 272/272/272 273/273/273
g back
v 0.198038658 -0.220367525 0.465796193
vt 0.361718750 0.078125000
vn -0.213600283 0.927758805 -0.306004115
v 0.301247267 -0.150727097 0.604892793
vt 0.419941406 0.161649400
vn -0.213600283 0.927758805 -0.306004115
v 0.304674859 -0.195816400 0.465796193
vt 0.421875000 0.078125000
vn -0.213600283 0.927758805 -0.306004115
f 274/274/274 275/275/275 276/276/276
g back
v 0.198038658 -0.304104801 0.465796193
vt 0.361718750 0.078125000
vn 0.213600283 -0.927758805 0.306004115
v 0.304674859 -0.279553676 0.465796193
vt 0.421875000 0.078125000
vn 0.213600283 -0.927758805 0.306004115
v 0.301247267 -0.234464374 0.604892793
vt 0.419941406 0.161649400
vn 0.213600283 -0.927758805 0.306004115
f 277/277/277 278/278/278 279/279/279
g back
v 0.198038658 -0.304104801 0.465796193
vt 0.361718750 0.078125000
vn 0.222631759 -0.927812866 0.299329895
v 0.301247267 -0.234464374 0.604892793
vt 0.419941406 0.161649400
vn 0.222631759 -0.927812866 0.299329895
v 0.195810723 -0.259015499 0.607213555
vt 0.360461914 0.163042965
vn 0.222631759 -0.927812866 0.299329895
f 280/280/280 281/281/281 282/282/282
g back
v -0.301247267 -0.150727097 0.604892793
vt 0.080058594 0.161649400
vn 0.271292024 0.921023021 -0.279494600
v -0.294803394 -0.079872479 0.844635909
vt 0.083693750 0.305609783
vn 0.271292024 0.921023021 -0.279494600
v -0.191622206 -0.104423604 0.863885231
vt 0.141900937 0.317168570
vn 0.271292024 0.921023021 -0.279494600
f 283/283/283 284/284/284 285/285/285
g back
v -0.301247267 -0.150727097 0.604892793
vt 0.080058594 0.161649400
vn 0.224300323 0.938439473 -0.262717949
v -0.191622206 -0.104423604 0.863885231
vt 0.141900937 0.317168570
vn 0.224300323 0.938439473 -0.262717949
v -0.195810723 -0.175278223 0.607213555
vt 0.139538086 0.163042965
vn 0.224300323 0.938439473 -0.262717949
f 286/286/286 287/287/287 288/288/288
g back
v -0.301247267 -0.234464374 0.604892793
vt 0.080058594 0.161649400
vn -0.224300323 -0.938439473 0.262717949
v -0.195810723 -0.259015499 0.607213555
vt 0.139538086 0.163042965
vn -0.224300323 -0.938439473 0.262717949
v -0.191622206 -0.188160880 0.863885231
vt 0.141900937 0.317168570
vn -0.224300323 -0.938439473 0.262717949
f 289/289/289 290/290/290 291/291/291
g back
v -0.301247267 -0.234464374 0.604892793
vt 0.080058594 0.161649400
vn -0.271292024 -0.921023021 0.279494600
v -0.191622206 -0.188160880 0.863885231
vt 0.141900937 0.317168570
vn -0.271292024 -0.921023021 0.279494600
v -0.294803394 -0.163609755 0.844635909
vt 0.083693750 0.305609783
vn -0.271292024 -0.921023021 0.279494600
f 292/292/292 293/293/293 294/294/294
g back
v -0.195810723 -0.175278223 0.607213555
vt 0.139538086 0.163042965
vn 0.109331364 0.957708194 -0.266160980
v -0.191622206 -0.104423604 0.863885231
vt 0.141900937 0.317168570
vn 0.109331364 0.957708194 -0.266160980
v 0.000000000 -0.122385250 0.877968069
vt 0.250000000 0.325625000
vn 0.109331364 0.957708194 -0.266160980
f 295/295/295 296/296/296 297/297/297
g back
v -0.195810723 -0.175278223 0.607213555
vt 0.139538086 0.163042965
vn 0.090540089 0.963058308 -0.253616222
v 0.000000000 -0.122385250 0.877968069
vt 0.250000000 0.325625000
vn 0.090540089 0.963058308 -0.253616222
v 0.000000000 -0.193239868 0.608911428
vt 0.250000000 0.164062500
vn 0.090540089 0.963058308 -0.253616222
f 298/298/298 299/299/299 300/300/300
g back
v -0.195810723 -0.259015499 0.607213555
vt 0.139538086 0.163042965
vn -0.090540089 -0.963058308 0.253616222
v 0.000000000 -0.276977145 0.608911428
vt 0.250000000 0.164062500
vn -0.090540089 -0.963058308 0.253616222
v 0.000000000 -0.206122526 0.877968069
vt 0.250000000 0.325625000
vn -0.090540089 -0.963058308 0.253616222
f 301/301/301 302/302/302 303/303/303
g back
v -0.195810723 -0.259015499 0.607213555
vt 0.139538086 0.163042965
vn -0.109331364 -0.957708194 0.266160980
v 0.000000000 -0.206122526 0.877968069
vt 0.250000000 0.325625000
vn -0.109331364 -0.957708194 0.266160980
v -0.191622206 -0.188160880 0.863885231
vt 0.141900937 0.317168570
vn -0.109331364 -0.957708194 0.266160980
f 304/304/304 305/305/305 306/306/306
g back
v 0.000000000 -0.193239868 0.608911428
vt 0.250000000 0.164062500
vn -0.108711925 0.961298781 -0.253152860
v 0.000000000 -0.122385250 0.877968069
vt 0.250000000 0.325625000
vn -0.108711925 0.961298781 -0.253152860
v 0.191622206 -0.104423604 0.863885231
vt 0.358099063 0.317168570
vn -0.108711925 0.961298781 -0.253152860
f 307/307/307 308/308/308 309/309/309
g back
v 0.000000000 -0.193239868 0.608911428
vt 0.250000000 0.164062500
vn -0.090335870 0.959625441 -0.266380259
v 0.191622206 -0.104423604 0.863885231
vt 0.358099063 0.317168570
vn -0.090335870 0.959625441 -0.266380259
v 0.195810723 -0.175278223 0.607213555
vt 0.360461914 0.163042965
vn -0.090335870 0.959625441 -0.266380259
f 310/310/310 311/311/311 312/312/312
g back
v 0.000000000 -0.276977145 0.608911428
vt 0.250000000 0.164062500
vn 0.090335870 -0.959625441 0.266380259
v 0.195810723 -0.259015499 0.607213555
vt 0.360461914 0.163042965
vn 0.090335870 -0.959625441 0.266380259
v 0.191622206 -0.188160880 0.863885231
vt 0.358099063 0.317168570
vn 0.090335870 -0.959625441 0.266380259
f 313/313/313 314/314/314 315/315/315
g back
v 0.000000000 -0.276977145 0.608911428
vt 0.250000000 0.164062500
vn 0.108711925 -0.961298781 0.253152860
v 0.191622206 -0.188160880 0.863885231
vt 0.358099063 0.317168570
vn 0.108711925 -0.961298781 0.253152860
v 0.000000000 -0.206122526 0.877968069
vt 0.250000000 0.325625000
vn 0.108711925 -0.961298781 0.253152860
f 316/316/316 317/317/317 318/318/318
g back
v 0.195810723 -0.175278223 0.607213555
vt 0.360461914 0.163042965
vn -0.269197333 0.927225979 -0.260355103
v 0.191622206 -0.104423604 0.863885231
vt 0.358099063 0.317168570
vn -0.269197333 0.927225979 -0.260355103
v 0.294803394 -0.079872479 0.844635909
vt 0.416306250 0.305609783
vn -0.269197333 0.927225979 -0.260355103
f 319/319/319 320/320/320 321/321/321
g back
v 0.195810723 -0.175278223 0.607213555
vt 0.360461914 0.163042965
vn -0.223474705 0.933092251 -0.281776342
v 0.294803394 -0.079872479 0.844635909
vt 0.416306250 0.305609783
vn -0.223474705 0.933092251 -0.281776342
v 0.301247267 -0.150727097 0.604892793
vt 0.419941406 0.161649400
vn -0.223474705 0.933092251 -0.281776342
f 322/322/322 323/323/323 324/324/324
g back
v 0.195810723 -0.259015499 0.607213555
vt 0.360461914 0.163042965
vn 0.223474705 -0.933092251 0.281776342
v 0.301247267 -0.234464374 0.604892793
vt 0.419941406 0.161649400
vn 0.223474705 -0.933092251 0.281776342
v 0.294803394 -0.163609755 0.844635909
vt 0.416306250 0.305609783
vn 0.223474705 -0.933092251 0.281776342
f 325/325/325 326/326/326 327/327/327
g back
v 0.195810723 -0.259015499 0.607213555
vt 0.360461914 0.163042965
vn 0.269197333 -0.927225979 0.260355103
v 0.294803394 -0.163609755 0.844635909
vt 0.416306250 0.305609783
vn 0.269197333 -0.927225979 0.260355103
v 0.191622206 -0.188160880 0.863885231
vt 0.358099063 0.317168570
vn 0.269197333 -0.927225979 0.260355103
f 328/328/328 329/329/329 330/330/330
g back
v -0.294803394 -0.079872479 0.844635909
vt 0.083693750 0.305609783
vn 0.020089040 0.858453287 0.512498179
v -0.290964490 -0.157168426 0.973958983
vt 0.085859375 0.383265399
vn 0.020089040 0.858453287 0.512498179
v -0.189126919 -0.181719552 1.011091164
vt 0.143308594 0.405562443
vn 0.020089040 0.858453287 0.512498179
f 331/331/331 332/332/332 333/333/333
g back
v -0.294803394 -0.079872479 0.844635909
vt 0.083693750 0.305609783
vn 0.123497895 0.879448631 0.459693784
v -0.189126919 -0.181719552 1.011091164
vt 0.143308594 0.405562443
vn 0.123497895 0.879448631 0.459693784
v -0.191622206 -0.104423604 0.863885231
vt 0.141900937 0.317168570
vn 0.123497895 0.879448631 0.459693784
f 334/334/334 335/335/335 336/336/336
g back
v -0.294803394 -0.163609755 0.844635909
vt 0.083693750 0.305609783
vn -0.123497895 -0.879448631 -0.459693784
v -0.191622206 -0.188160880 0.863885231
vt 0.141900937 0.317168570
vn -0.123497895 -0.879448631 -0.459693784
v -0.189126919 -0.265456828 1.011091164
vt 0.143308594 0.405562443
vn -0.123497895 -0.879448631 -0.459693784
f 337/337/337 338/338/338 339/339/339
g back
v -0.294803394 -0.163609755 0.844635909
vt 0.083693750 0.305609783
vn -0.020089040 -0.858453287 -0.512498179
v -0.189126919 -0.265456828 1.011091164
vt 0.143308594 0.405562443
vn -0.020089040 -0.858453287 -0.512498179
v -0.290964490 -0.240905703 0.973958983
vt 0.085859375 0.383265399
vn -0.020089040 -0.858453287 -0.512498179
f 340/340/340 341/341/341 342/342/342
g back
v -0.191622206 -0.104423604 0.863885231
vt 0.141900937 0.317168570
vn 0.017349569 0.885353894 0.464593882
v -0.189126919 -0.181719552 1.011091164
vt 0.143308594 0.405562443
vn 0.017349569 0.885353894 0.464593882
v 0.000000000 -0.199681197 1.038257132
vt 0.250000000 0.421875000
vn 0.017349569 0.885353894 0.464593882
f 343/343/343 344/344/344 345/345/345
g back
v -0.191622206 -0.104423604 0.863885231
vt 0.141900937 0.317168570
vn 0.052435772 0.899499369 0.433764192
v 0.000000000 -0.199681197 1.038257132
vt 0.250000000 0.421875000
vn 0.052435772 0.899499369 0.433764192
v 0.000000000 -0.122385250 0.877968069
vt 0.250000000 0.325625000
vn 0.052435772 0.899499369 0.433764192
f 346/346/346 347/347/347 348/348/348
g back
v -0.191622206 -0.188160880 0.863885231
vt 0.141900937 0.317168570
vn -0.052435772 -0.899499369 -0.433764192
v 0.000000000 -0.206122526 0.877968069
vt 0.250000000 0.325625000
vn -0.052435772 -0.899499369 -0.433764192
v 0.000000000 -0.283418474 1.038257132
vt 0.250000000 0.421875000
vn -0.052435772 -0.899499369 -0.433764192
f 349/349/349 350/350/350 351/351/351
g back
v -0.191622206 -0.188160880 0.863885231
vt 0.141900937 0.317168570
vn -0.017349569 -0.885353894 -0.464593882
v 0.000000000 -0.283418474 1.038257132
vt 0.250000000 0.421875000
vn -0.017349569 -0.885353894 -0.464593882
v -0.189126919 -0.265456828 1.011091164
vt 0.143308594 0.405562443
vn -0.017349569 -0.885353894 -0.464593882
f 352/352/352 353/353/353 354/354/354
g back
v 0.000000000 -0.122385250 0.877968069
vt 0.250000000 0.325625000
vn -0.023146973 0.900497184 0.434245367
v 0.000000000 -0.199681197 1.038257132
vt 0.250000000 0.421875000
vn -0.023146973 0.900497184 0.434245367
v 0.189126919 -0.181719552 1.011091164
vt 0.356691406 0.405562443
vn -0.023146973 0.900497184 0.434245367
f 355/355/355 356/356/356 357/357/357
g back
v 0.000000000 -0.122385250 0.877968069
vt 0.250000000 0.325625000
vn -0.048844507 0.884649911 0.463690359
v 0.189126919 -0.181719552 1.011091164
vt 0.356691406 0.405562443
vn -0.048844507 0.884649911 0.463690359
v 0.191622206 -0.104423604 0.863885231
vt 0.358099063 0.317168570
vn -0.048844507 0.884649911 0.463690359
f 358/358/358 359/359/359 360/360/360
g back
v 0.000000000 -0.206122526 0.877968069
vt 0.250000000 0.325625000
vn 0.048844507 -0.884649911 -0.463690359
v 0.191622206 -0.188160880 0.863885231
vt 0.358099063 0.317168570
vn 0.048844507 -0.884649911 -0.463690359
v 0.189126919 -0.265456828 1.011091164
vt 0.356691406 0.405562443
vn 0.048844507 -0.884649911 -0.463690359
f 361/361/361 362/362/362 363/363/363
g back
v 0.000000000 -0.206122526 0.877968069
vt 0.250000000 0.325625000
vn 0.023146973 -0.900497184 -0.434245367
v 0.189126919 -0.265456828 1.011091164
vt 0.356691406 0.405562443
vn 0.023146973 -0.900497184 -0.434245367
v 0.000000000 -0.283418474 1.038257132
vt 0.250000000 0.421875000
vn 0.023146973 -0.900497184 -0.434245367
f 364/364/364 365/365/365 366/366/366
g back
v 0.191622206 -0.104423604 0.863885231
vt 0.358099063 0.317168570
vn -0.044180040 0.884809703 0.463853331
v 0.189126919 -0.181719552 1.011091164
vt 0.356691406 0.405562443
vn -0.044180040 0.884809703 0.463853331
v 0.290964490 -0.157168426 0.973958983
vt 0.414140625 0.383265399
vn -0.044180040 0.884809703 0.463853331
f 367/367/367 368/368/368 369/369/369
g back
v 0.191622206 -0.104423604 0.863885231
vt 0.358099063 0.317168570
vn -0.108666873 0.854698194 0.507624376
v 0.290964490 -0.157168426 0.973958983
vt 0.414140625 0.383265399
vn -0.108666873 0.854698194 0.507624376
v 0.294803394 -0.079872479 0.844635909
vt 0.416306250 0.305609783
vn -0.108666873 0.854698194 0.507624376
f 370/370/370 371/371/371 372/372/372
g back
v 0.191622206 -0.188160880 0.863885231
vt 0.358099063 0.317168570
vn 0.108666873 -0.854698194 -0.507624376
v 0.294803394 -0.163609755 0.844635909
vt 0.416306250 0.305609783
vn 0.108666873 -0.854698194 -0.507624376
v 0.290964490 -0.240905703 0.973958983
vt 0.414140625 0.383265399
vn 0.108666873 -0.854698194 -0.507624376
f 373/373/373 374/374/374 375/375/375
g back
v 0.191622206 -0.188160880 0.863885231
vt 0.358099063 0.317168570
vn 0.044180040 -0.884809703 -0.463853331
v 0.290964490 -0.240905703 0.973958983
vt 0.414140625 0.383265399
vn 0.044180040 -0.884809703 -0.463853331
v 0.189126919 -0.265456828 1.011091164
vt 0.356691406 0.405562443
vn 0.044180040 -0.884809703 -0.463853331
f 376/376/376 377/377/377 378/378/378
g back
v -0.198038658 -0.220367525 0.465796193
vt 0.138281250 0.222468002
vn 0.000000000 -0.000000000 -1.000000000
v -0.198038658 -0.304104801 0.465796193
vt 0.138281250 0.103618268
vn 0.000000000 -0.000000000 -1.000000000
v -0.304674859 -0.279553676 0.465796193
vt 0.078125000 0.138464096
vn 0.000000000 -0.000000000 -1.000000000
f 379/379/379 380/380/380 381/381/381
g back
v -0.198038658 -0.220367525 0.465796193
vt 0.138281250 0.222468002
vn -0.000000000 0.000000000 -1.000000000
v -0.304674859 -0.279553676 0.465796193
vt 0.078125000 0.138464096
vn -0.000000000 0.000000000 -1.000000000
v -0.304674859 -0.195816400 0.465796193
vt 0.078125000 0.257313830
vn -0.000000000 0.000000000 -1.000000000
f 382/382/382 383/383/383 384/384/384
g back
v 0.000000000 -0.238329171 0.465796193
vt 0.250000000 0.196974734
vn 0.000000000 -0.000000000 -1.000000000
v 0.000000000 -0.322066447 0.465796193
vt 0.250000000 0.078125000
vn 0.000000000 -0.000000000 -1.000000000
v -0.198038658 -0.304104801 0.465796193
vt 0.138281250 0.103618268
vn 0.000000000 -0.000000000 -1.000000000
f 385/385/385 386/386/386 387/387/387
g back
v 0.000000000 -0.238329171 0.465796193
vt 0.250000000 0.196974734
vn -0.000000000 0.000000000 -1.000000000
v -0.198038658 -0.304104801 0.465796193
vt 0.138281250 0.103618268
vn -0.000000000 0.000000000 -1.000000000
v -0.198038658 -0.220367525 0.465796193
vt 0.138281250 0.222468002
vn -0.000000000 0.000000000 -1.000000000
f 388/388/388 389/389/389 390/390/390
g back
v 0.198038658 -0.220367525 0.465796193
vt 0.361718750 0.222468002
vn 0.000000000 -0.000000000 -1.000000000
v 0.198038658 -0.304104801 0.465796193
vt 0.361718750 0.103618268
vn 0.000000000 -0.000000000 -1.000000000
v 0.000000000 -0.322066447 0.465796193
vt 0.250000000 0.078125000
vn 0.000000000 -0.000000000 -1.000000000
f 391/391/391 392/392/392 393/393/393
g back
v 0.198038658 -0.220367525 0.465796193
vt 0.361718750 0.222468002
vn 0.000000000 0.000000000 -1.000000000
v 0.000000000 -0.322066447 0.465796193
vt 0.250000000 0.078125000
vn 0.000000000 0.000000000 -1.000000000
v 0.000000000 -0.238329171 0.465796193
vt 0.250000000 0.196974734
vn 0.000000000 0.000000000 -1.000000000
f 394/394/394 395/395/395 396/396/396
g back
v 0.304674859 -0.195816400 0.465796193
vt 0.421875000 0.257313830
vn 0.000000000 -0.000000000 -1.000000000
v 0.304674859 -0.279553676 0.465796193
vt 0.421875000 0.138464096
vn 0.000000000 -0.000000000 -1.000000000
v 0.198038658 -0.304104801 0.465796193
vt 0.361718750 0.103618268
vn 0.000000000 -0.000000000 -1.000000000
f 397/397/397 398/398/398 399/399/399
g back
v 0.304674859 -0.195816400 0.465796193
vt 0.421875000 0.257313830
vn 0.000000000 0.000000000 -1.000000000
v 0.198038658 -0.304104801 0.465796193
vt 0.361718750 0.103618268
vn 0.000000000 0.000000000 -1.000000000
v 0.198038658 -0.220367525 0.465796193
vt 0.361718750 0.222468002
vn 0.000000000 0.000000000 -1.000000000
f 400/400/400 401/401/401 402/402/402
g back
v 0.301247267 -0.150727097 0.604892793
vt 0.321309841 0.161649400
vn 0.999696529 0.000000000 0.024634333
v 0.301247267 -0.234464374 0.604892793
vt 0.202460106 0.161649400
vn 0.999696529 0.000000000 0.024634333
v 0.304674859 -0.279553676 0.465796193
vt 0.138464096 0.078125000
vn 0.999696529 0.000000000 0.024634333
f 403/403/403 404/404/404 405/405/405
g back
v 0.301247267 -0.150727097 0.604892793
vt 0.321309841 0.161649400
vn 0.999696529 0.000000000 0.024634333
v 0.304674859 -0.279553676 0.465796193
vt 0.138464096 0.078125000
vn 0.999696529 0.000000000 0.024634333
v 0.304674859 -0.195816400 0.465796193
vt 0.257313830 0.078125000
vn 0.999696529 0.000000000 0.024634333
f 406/406/406 407/407/407 408/408/408
g back
v 0.294803394 -0.079872479 0.844635909
vt 0.421875000 0.305609783
vn 0.999638976 0.000000000 0.026868537
v 0.294803394 -0.163609755 0.844635909
vt 0.303025266 0.305609783
vn 0.999638976 0.000000000 0.026868537
v 0.301247267 -0.234464374 0.604892793
vt 0.202460106 0.161649400
vn 0.999638976 0.000000000 0.026868537
f 409/409/409 410/410/410 411/411/411
g back
v 0.294803394 -0.079872479 0.844635909
vt 0.421875000 0.305609783
vn 0.999638976 0.000000000 0.026868537
v 0.301247267 -0.234464374 0.604892793
vt 0.202460106 0.161649400
vn 0.999638976 0.000000000 0.026868537
v 0.301247267 -0.150727097 0.604892793
vt 0.321309841 0.161649400
vn 0.999638976 0.000000000 0.026868537
f 412/412/412 413/413/413 414/414/414
g back
v 0.290964490 -0.157168426 0.973958983
vt 0.312167554 0.383265399
vn 0.999559703 0.000000000 0.029671526
v 0.290964490 -0.240905703 0.973958983
vt 0.193317818 0.383265399
vn 0.999559703 0.000000000 0.029671526
v 0.294803394 -0.163609755 0.844635909
vt 0.303025266 0.305609783
vn 0.999559703 0.000000000 0.029671526
f 415/415/415 416/416/416 417/417/417
g back
v 0.290964490 -0.157168426 0.973958983
vt 0.312167554 0.383265399
vn 0.999559703 0.000000000 0.029671526
v 0.294803394 -0.163609755 0.844635909
vt 0.303025266 0.305609783
vn 0.999559703 0.000000000 0.029671526
v 0.294803394 -0.079872479 0.844635909
vt 0.421875000 0.305609783
vn 0.999559703 0.000000000 0.029671526
f 418/418/418 419/419/419 420/420/420
g back
v 0.189126919 -0.181719552 1.011091164
vt 0.356691406 0.277321725
vn 0.342560479 0.000000000 0.939495779
v 0.189126919 -0.265456828 1.011091164
vt 0.356691406 0.158471991
vn 0.342560479 0.000000000 0.939495779
v 0.290964490 -0.240905703 0.973958983
vt 0.414140625 0.193317818
vn 0.342560479 0.000000000 0.939495779
f 421/421/421 422/422/422 423/423/423
g back
v 0.189126919 -0.181719552 1.011091164
vt 0.356691406 0.277321725
vn 0.342560479 0.000000000 0.939495779
v 0.290964490 -0.240905703 0.973958983
vt 0.414140625 0.193317818
vn 0.342560479 0.000000000 0.939495779
v 0.290964490 -0.157168426 0.973958983
vt 0.414140625 0.312167554
vn 0.342560479 0.000000000 0.939495779
f 424/424/424 425/425/425 426/426/426
g back
v 0.000000000 -0.199681197 1.038257132
vt 0.250000000 0.251828458
vn 0.142179579 0.000000000 0.989840880
v 0.000000000 -0.283418474 1.038257132
vt 0.250000000 0.132978723
vn 0.142179579 0.000000000 0.989840880
v 0.189126919 -0.265456828 1.011091164
vt 0.356691406 0.158471991
vn 0.142179579 0.000000000 0.989840880
f 427/427/427 428/428/428 429/429/429
g back
v 0.000000000 -0.199681197 1.038257132
vt 0.250000000 0.251828458
vn 0.142179579 0.000000000 0.989840880
v 0.189126919 -0.265456828 1.011091164
vt 0.356691406 0.158471991
vn 0.142179579 0.000000000 0.989840880
v 0.189126919 -0.181719552 1.011091164
vt 0.356691406 0.277321725
vn 0.142179579 0.000000000 0.989840880
f 430/430/430 431/431/431 432/432/432
g back
v -0.189126919 -0.181719552 1.011091164
vt 0.143308594 0.277321725
vn -0.142179579 0.000000000 0.989840880
v -0.189126919 -0.265456828 1.011091164
vt 0.143308594 0.158471991
vn -0.142179579 0.000000000 0.989840880
v 0.000000000 -0.283418474 1.038257132
vt 0.250000000 0.132978723
vn -0.142179579 0.000000000 0.989840880
f 433/433/433 434/434/434 435/435/435
g back
v -0.189126919 -0.181719552 1.011091164
vt 0.143308594 0.277321725
vn -0.142179579 0.000000000 0.989840880
v 0.000000000 -0.283418474 1.038257132
vt 0.250000000 0.132978723
vn -0.142179579 0.000000000 0.989840880
v 0.000000000 -0.199681197 1.038257132
vt 0.250000000 0.251828458
vn -0.142179579 0.000000000 0.989840880
f 436/436/436 437/437/437 438/438/438
g back
v -0.290964490 -0.157168426 0.973958983
vt 0.085859375 0.312167554
vn -0.342560479 0.000000000 0.939495779
v -0.290964490 -0.240905703 0.973958983
vt 0.085859375 0.193317818
vn -0.342560479 0.000000000 0.939495779
v -0.189126919 -0.265456828 1.011091164
vt 0.143308594 0.158471991
vn -0.342560479 0.000000000 0.939495779
f 439/439/439 440/440/440 441/441/441
g back
v -0.290964490 -0.157168426 0.973958983
vt 0.085859375 0.312167554
vn -0.342560479 0.000000000 0.939495779
v -0.189126919 -0.265456828 1.011091164
vt 0.143308594 0.158471991
vn -0.342560479 0.000000000 0.939495779
v -0.189126919 -0.181719552 1.011091164
vt 0.143308594 0.277321725
vn -0.342560479 0.000000000 0.939495779
f 442/442/442 443/443/443 444/444/444
g back
v -0.294803394 -0.079872479 0.844635909
vt 0.421875000 0.305609783
vn -0.999559703 0.000000000 0.029671526
v -0.294803394 -0.163609755 0.844635909
vt 0.303025266 0.305609783
vn -0.999559703 0.000000000 0.029671526
v -0.290964490 -0.240905703 0.973958983
vt 0.193317818 0.383265399
vn -0.999559703 0.000000000 0.029671526
f 445/445/445 446/446/446 447/447/447
g back
v -0.294803394 -0.079872479 0.844635909
vt 0.421875000 0.305609783
vn -0.999559703 0.000000000 0.029671526
v -0.290964490 -0.240905703 0.973958983
vt 0.193317818 0.383265399
vn -0.999559703 0.000000000 0.029671526
v -0.290964490 -0.157168426 0.973958983
vt 0.312167554 0.383265399
vn -0.999559703 0.000000000 0.029671526
f 448/448/448 449/449/449 450/450/450
g back
v -0.301247267 -0.150727097 0.604892793
vt 0.321309841 0.161649400
vn -0.999638976 0.000000000 0.026868537
v -0.301247267 -0.234464374 0.604892793
vt 0.202460106 0.161649400
vn -0.999638976 0.000000000 0.026868537
v -0.294803394 -0.163609755 0.844635909
vt 0.303025266 0.305609783
vn -0.999638976 0.000000000 0.026868537
f 451/451/451 452/452/452 453/453/453
g back
v -0.301247267 -0.150727097 0.604892793
vt 0.321309841 0.161649400
vn -0.999638976 0.000000000 0.026868537
v -0.294803394 -0.163609755 0.844635909
vt 0.303025266 0.305609783
vn -0.999638976 0.000000000 0.026868537
v -0.294803394 -0.079872479 0.844635909
vt 0.421875000 0.305609783
vn -0.999638976 0.000000000 0.026868537
f 454/454/454 455/455/455 456/456/456
g back
v -0.304674859 -0.195816400 0.465796193
vt 0.257313830 0.078125000
vn -0.999696529 0.000000000 0.024634333
v -0.304674859 -0.279553676 0.465796193
vt 0.138464096 0.078125000
vn -0.999696529 0.000000000 0.024634333
v -0.301247267 -0.234464374 0.604892793
vt 0.202460106 0.161649400
vn -0.999696529 0.000000000 0.024634333
f 457/457/457 458/458/458 459/459/459
g back
v -0.304674859 -0.195816400 0.465796193
vt 0.257313830 0.078125000
vn -0.999696529 0.000000000 0.024634333
v -0.301247267 -0.234464374 0.604892793
vt 0.202460106 0.161649400
vn -0.999696529 0.000000000 0.024634333
v -0.301247267 -0.150727097 0.604892793
vt 0.321309841 0.161649400
vn -0.999696529 0.000000000 0.024634333
f 460/460/460 461/461/461 462/462/462
