# G015 native chair fidelity candidate; tile units XYZ, Z up.
# Surface charts and native palette swatches; 32x32 PNG, nearest sampling.
mtllib pz_chair_seating_indoor_01_green_dinner_fidelity_r1.mtl
o pz_chair_seating_indoor_01_green_dinner_fidelity_r1
usemtl pz_chair_seating_indoor_01_green_dinner_fidelity_r1_PS1
g seat
v 0.000000000 0.000000000 0.480605459
vt 0.250000000 0.750000000
vn 0.000000000 0.102789856 0.994703094
v -0.220167583 -0.224341377 0.503788274
vt 0.095678192 0.578125000
vn 0.000000000 0.102789856 0.994703094
v 0.220167583 -0.224341377 0.503788274
vt 0.404321808 0.578125000
vn 0.000000000 0.102789856 0.994703094
f 1/1/1 2/2/2 3/3/3
g seat
v -0.220167583 -0.224341377 0.503788274
vt 0.095678192 0.907848175
vn 0.000000000 -1.000000000 0.000000000
v -0.220167583 -0.224341377 0.445308353
vt 0.095678192 0.578125000
vn 0.000000000 -1.000000000 0.000000000
v 0.220167583 -0.224341377 0.445308353
vt 0.404321808 0.578125000
vn 0.000000000 -1.000000000 0.000000000
f 4/4/4 5/5/5 6/6/6
g seat
v -0.220167583 -0.224341377 0.503788274
vt 0.095678192 0.907848175
vn 0.000000000 -1.000000000 0.000000000
v 0.220167583 -0.224341377 0.445308353
vt 0.404321808 0.578125000
vn 0.000000000 -1.000000000 0.000000000
v 0.220167583 -0.224341377 0.503788274
vt 0.404321808 0.907848175
vn 0.000000000 -1.000000000 0.000000000
f 7/7/7 8/8/8 9/9/9
g seat
v 0.000000000 0.000000000 0.480605459
vt 0.250000000 0.750000000
vn -0.101759918 0.002933642 0.994804661
v 0.220167583 -0.224341377 0.503788274
vt 0.404321808 0.578125000
vn -0.101759918 0.002933642 0.994804661
v 0.245210342 -0.199298618 0.506276081
vt 0.421875000 0.597311047
vn -0.101759918 0.002933642 0.994804661
f 10/10/10 11/11/11 12/12/12
g seat
v 0.220167583 -0.224341377 0.503788274
vt 0.078125000 0.907848175
vn 0.707106781 -0.707106781 0.000000000
v 0.220167583 -0.224341377 0.445308353
vt 0.078125000 0.578125000
vn 0.707106781 -0.707106781 0.000000000
v 0.245210342 -0.199298618 0.445308353
vt 0.097311047 0.578125000
vn 0.707106781 -0.707106781 0.000000000
f 13/13/13 14/14/14 15/15/15
g seat
v 0.220167583 -0.224341377 0.503788274
vt 0.078125000 0.907848175
vn 0.707106781 -0.707106781 0.000000000
v 0.245210342 -0.199298618 0.445308353
vt 0.097311047 0.578125000
vn 0.707106781 -0.707106781 0.000000000
v 0.245210342 -0.199298618 0.506276081
vt 0.097311047 0.921875000
vn 0.707106781 -0.707106781 0.000000000
f 16/16/16 17/17/17 18/18/18
g seat
v 0.000000000 0.000000000 0.480605459
vt 0.250000000 0.750000000
vn -0.104119174 0.000000000 0.994564828
v 0.245210342 -0.199298618 0.506276081
vt 0.421875000 0.597311047
vn -0.104119174 0.000000000 0.994564828
v 0.245210342 0.199298618 0.506276081
vt 0.421875000 0.902688953
vn -0.104119174 0.000000000 0.994564828
f 19/19/19 20/20/20 21/21/21
g seat
v 0.245210342 -0.199298618 0.506276081
vt 0.097311047 0.921875000
vn 1.000000000 0.000000000 0.000000000
v 0.245210342 -0.199298618 0.445308353
vt 0.097311047 0.578125000
vn 1.000000000 0.000000000 0.000000000
v 0.245210342 0.199298618 0.445308353
vt 0.402688953 0.578125000
vn 1.000000000 0.000000000 0.000000000
f 22/22/22 23/23/23 24/24/24
g seat
v 0.245210342 -0.199298618 0.506276081
vt 0.097311047 0.921875000
vn 1.000000000 -0.000000000 0.000000000
v 0.245210342 0.199298618 0.445308353
vt 0.402688953 0.578125000
vn 1.000000000 -0.000000000 0.000000000
v 0.245210342 0.199298618 0.506276081
vt 0.402688953 0.921875000
vn 1.000000000 -0.000000000 0.000000000
f 25/25/25 26/26/26 27/27/27
g seat
v 0.000000000 0.000000000 0.480605459
vt 0.250000000 0.750000000
vn -0.101759918 -0.002933642 0.994804661
v 0.245210342 0.199298618 0.506276081
vt 0.421875000 0.902688953
vn -0.101759918 -0.002933642 0.994804661
v 0.220167583 0.224341377 0.503788274
vt 0.404321808 0.921875000
vn -0.101759918 -0.002933642 0.994804661
f 28/28/28 29/29/29 30/30/30
g seat
v 0.245210342 0.199298618 0.506276081
vt 0.402688953 0.921875000
vn 0.707106781 0.707106781 0.000000000
v 0.245210342 0.199298618 0.445308353
vt 0.402688953 0.578125000
vn 0.707106781 0.707106781 0.000000000
v 0.220167583 0.224341377 0.445308353
vt 0.421875000 0.578125000
vn 0.707106781 0.707106781 0.000000000
f 31/31/31 32/32/32 33/33/33
g seat
v 0.245210342 0.199298618 0.506276081
vt 0.402688953 0.921875000
vn 0.707106781 0.707106781 0.000000000
v 0.220167583 0.224341377 0.445308353
vt 0.421875000 0.578125000
vn 0.707106781 0.707106781 0.000000000
v 0.220167583 0.224341377 0.503788274
vt 0.421875000 0.907848175
vn 0.707106781 0.707106781 0.000000000
f 34/34/34 35/35/35 36/36/36
g seat
v 0.000000000 0.000000000 0.480605459
vt 0.250000000 0.750000000
vn 0.000000000 -0.102789856 0.994703094
v 0.220167583 0.224341377 0.503788274
vt 0.404321808 0.921875000
vn 0.000000000 -0.102789856 0.994703094
v -0.220167583 0.224341377 0.503788274
vt 0.095678192 0.921875000
vn 0.000000000 -0.102789856 0.994703094
f 37/37/37 38/38/38 39/39/39
g seat
v 0.220167583 0.224341377 0.503788274
vt 0.404321808 0.907848175
vn 0.000000000 1.000000000 0.000000000
v 0.220167583 0.224341377 0.445308353
vt 0.404321808 0.578125000
vn 0.000000000 1.000000000 0.000000000
v -0.220167583 0.224341377 0.445308353
vt 0.095678192 0.578125000
vn 0.000000000 1.000000000 0.000000000
f 40/40/40 41/41/41 42/42/42
g seat
v 0.220167583 0.224341377 0.503788274
vt 0.404321808 0.907848175
vn 0.000000000 1.000000000 0.000000000
v -0.220167583 0.224341377 0.445308353
vt 0.095678192 0.578125000
vn 0.000000000 1.000000000 0.000000000
v -0.220167583 0.224341377 0.503788274
vt 0.095678192 0.907848175
vn 0.000000000 1.000000000 0.000000000
f 43/43/43 44/44/44 45/45/45
g seat
v 0.000000000 0.000000000 0.480605459
vt 0.250000000 0.750000000
vn 0.101759918 -0.002933642 0.994804661
v -0.220167583 0.224341377 0.503788274
vt 0.095678192 0.921875000
vn 0.101759918 -0.002933642 0.994804661
v -0.245210342 0.199298618 0.506276081
vt 0.078125000 0.902688953
vn 0.101759918 -0.002933642 0.994804661
f 46/46/46 47/47/47 48/48/48
g seat
v -0.220167583 0.224341377 0.503788274
vt 0.421875000 0.907848175
vn -0.707106781 0.707106781 0.000000000
v -0.220167583 0.224341377 0.445308353
vt 0.421875000 0.578125000
vn -0.707106781 0.707106781 0.000000000
v -0.245210342 0.199298618 0.445308353
vt 0.402688953 0.578125000
vn -0.707106781 0.707106781 0.000000000
f 49/49/49 50/50/50 51/51/51
g seat
v -0.220167583 0.224341377 0.503788274
vt 0.421875000 0.907848175
vn -0.707106781 0.707106781 0.000000000
v -0.245210342 0.199298618 0.445308353
vt 0.402688953 0.578125000
vn -0.707106781 0.707106781 0.000000000
v -0.245210342 0.199298618 0.506276081
vt 0.402688953 0.921875000
vn -0.707106781 0.707106781 0.000000000
f 52/52/52 53/53/53 54/54/54
g seat
v 0.000000000 0.000000000 0.480605459
vt 0.250000000 0.750000000
vn 0.104119174 0.000000000 0.994564828
v -0.245210342 0.199298618 0.506276081
vt 0.078125000 0.902688953
vn 0.104119174 0.000000000 0.994564828
v -0.245210342 -0.199298618 0.506276081
vt 0.078125000 0.597311047
vn 0.104119174 0.000000000 0.994564828
f 55/55/55 56/56/56 57/57/57
g seat
v -0.245210342 0.199298618 0.506276081
vt 0.402688953 0.921875000
vn -1.000000000 0.000000000 -0.000000000
v -0.245210342 0.199298618 0.445308353
vt 0.402688953 0.578125000
vn -1.000000000 0.000000000 -0.000000000
v -0.245210342 -0.199298618 0.445308353
vt 0.097311047 0.578125000
vn -1.000000000 0.000000000 -0.000000000
f 58/58/58 59/59/59 60/60/60
g seat
v -0.245210342 0.199298618 0.506276081
vt 0.402688953 0.921875000
vn -1.000000000 -0.000000000 0.000000000
v -0.245210342 -0.199298618 0.445308353
vt 0.097311047 0.578125000
vn -1.000000000 -0.000000000 0.000000000
v -0.245210342 -0.199298618 0.506276081
vt 0.097311047 0.921875000
vn -1.000000000 -0.000000000 0.000000000
f 61/61/61 62/62/62 63/63/63
g seat
v 0.000000000 0.000000000 0.480605459
vt 0.250000000 0.750000000
vn 0.101759918 0.002933642 0.994804661
v -0.245210342 -0.199298618 0.506276081
vt 0.078125000 0.597311047
vn 0.101759918 0.002933642 0.994804661
v -0.220167583 -0.224341377 0.503788274
vt 0.095678192 0.578125000
vn 0.101759918 0.002933642 0.994804661
f 64/64/64 65/65/65 66/66/66
g seat
v -0.245210342 -0.199298618 0.506276081
vt 0.097311047 0.921875000
vn -0.707106781 -0.707106781 -0.000000000
v -0.245210342 -0.199298618 0.445308353
vt 0.097311047 0.578125000
vn -0.707106781 -0.707106781 -0.000000000
v -0.220167583 -0.224341377 0.445308353
vt 0.078125000 0.578125000
vn -0.707106781 -0.707106781 -0.000000000
f 67/67/67 68/68/68 69/69/69
g seat
v -0.245210342 -0.199298618 0.506276081
vt 0.097311047 0.921875000
vn -0.707106781 -0.707106781 0.000000000
v -0.220167583 -0.224341377 0.445308353
vt 0.078125000 0.578125000
vn -0.707106781 -0.707106781 0.000000000
v -0.220167583 -0.224341377 0.503788274
vt 0.078125000 0.907848175
vn -0.707106781 -0.707106781 0.000000000
f 70/70/70 71/71/71 72/72/72
g seat
v -0.245210342 -0.199298618 0.445308353
vt 0.078125000 0.597311047
vn 0.000000000 0.000000000 -1.000000000
v -0.245210342 0.199298618 0.445308353
vt 0.078125000 0.902688953
vn 0.000000000 0.000000000 -1.000000000
v -0.220167583 0.224341377 0.445308353
vt 0.095678192 0.921875000
vn 0.000000000 0.000000000 -1.000000000
f 73/73/73 74/74/74 75/75/75
g seat
v -0.245210342 -0.199298618 0.445308353
vt 0.078125000 0.597311047
vn 0.000000000 0.000000000 -1.000000000
v -0.220167583 0.224341377 0.445308353
vt 0.095678192 0.921875000
vn 0.000000000 0.000000000 -1.000000000
v 0.220167583 0.224341377 0.445308353
vt 0.404321808 0.921875000
vn 0.000000000 0.000000000 -1.000000000
f 76/76/76 77/77/77 78/78/78
g seat
v -0.245210342 -0.199298618 0.445308353
vt 0.078125000 0.597311047
vn 0.000000000 0.000000000 -1.000000000
v 0.220167583 0.224341377 0.445308353
vt 0.404321808 0.921875000
vn 0.000000000 0.000000000 -1.000000000
v 0.245210342 0.199298618 0.445308353
vt 0.421875000 0.902688953
vn 0.000000000 0.000000000 -1.000000000
f 79/79/79 80/80/80 81/81/81
g seat
v -0.245210342 -0.199298618 0.445308353
vt 0.078125000 0.597311047
vn 0.000000000 0.000000000 -1.000000000
v 0.245210342 0.199298618 0.445308353
vt 0.421875000 0.902688953
vn 0.000000000 0.000000000 -1.000000000
v 0.245210342 -0.199298618 0.445308353
vt 0.421875000 0.597311047
vn 0.000000000 0.000000000 -1.000000000
f 82/82/82 83/83/83 84/84/84
g seat
v -0.245210342 -0.199298618 0.445308353
vt 0.078125000 0.597311047
vn 0.000000000 0.000000000 -1.000000000
v 0.245210342 -0.199298618 0.445308353
vt 0.421875000 0.597311047
vn 0.000000000 0.000000000 -1.000000000
v 0.220167583 -0.224341377 0.445308353
vt 0.404321808 0.578125000
vn 0.000000000 0.000000000 -1.000000000
f 85/85/85 86/86/86 87/87/87
g seat
v -0.245210342 -0.199298618 0.445308353
vt 0.078125000 0.597311047
vn 0.000000000 0.000000000 -1.000000000
v 0.220167583 -0.224341377 0.445308353
vt 0.404321808 0.578125000
vn 0.000000000 0.000000000 -1.000000000
v -0.220167583 -0.224341377 0.445308353
vt 0.095678192 0.578125000
vn 0.000000000 0.000000000 -1.000000000
f 88/88/88 89/89/89 90/90/90
g wood
v -0.193585893 0.183146147 0.000000000
vt 0.609839042 0.892822911
vn -0.023265537 0.046531073 -0.998645870
v -0.234269869 0.183146147 0.000947818
vt 0.580382841 0.892822911
vn -0.023265537 0.046531073 -0.998645870
v -0.234227895 0.223798676 0.002841011
vt 0.580413231 0.921875000
vn -0.023265537 0.046531073 -0.998645870
f 91/91/91 92/92/92 93/93/93
g wood
v -0.193585893 0.183146147 0.000000000
vt 0.609839042 0.892822911
vn -0.023265537 0.046531073 -0.998645870
v -0.234227895 0.223798676 0.002841011
vt 0.580413231 0.921875000
vn -0.023265537 0.046531073 -0.998645870
v -0.193543918 0.223798676 0.001893193
vt 0.609869433 0.921875000
vn -0.023265537 0.046531073 -0.998645870
f 94/94/94 95/95/95 96/96/96
g wood
v -0.183109436 0.202929711 0.472521272
vt 0.617424256 0.906961118
vn 0.023265537 -0.046531073 0.998645870
v -0.223793412 0.202929711 0.473469090
vt 0.587968054 0.906961118
vn 0.023265537 -0.046531073 0.998645870
v -0.223835387 0.162277181 0.471575897
vt 0.587937663 0.877909028
vn 0.023265537 -0.046531073 0.998645870
f 97/97/97 98/98/98 99/99/99
g wood
v -0.183109436 0.202929711 0.472521272
vt 0.617424256 0.906961118
vn 0.023265537 -0.046531073 0.998645870
v -0.223835387 0.162277181 0.471575897
vt 0.587937663 0.877909028
vn 0.023265537 -0.046531073 0.998645870
v -0.183151410 0.162277181 0.470628079
vt 0.617393865 0.877909028
vn 0.023265537 -0.046531073 0.998645870
f 100/100/100 101/101/101 102/102/102
g wood
v -0.193543918 0.223798676 0.001893193
vt 0.609869433 0.578744531
vn 0.001031511 0.999018786 0.044276417
v -0.234227895 0.223798676 0.002841011
vt 0.580413231 0.579054696
vn 0.001031511 0.999018786 0.044276417
v -0.223793412 0.202929711 0.473469090
vt 0.587968054 0.733063695
vn 0.001031511 0.999018786 0.044276417
f 103/103/103 104/104/104 105/105/105
g wood
v -0.193543918 0.223798676 0.001893193
vt 0.609869433 0.578744531
vn 0.001031511 0.999018786 0.044276417
v -0.223793412 0.202929711 0.473469090
vt 0.587968054 0.733063695
vn 0.001031511 0.999018786 0.044276417
v -0.183109436 0.202929711 0.472521272
vt 0.617424256 0.732753530
vn 0.001031511 0.999018786 0.044276417
f 106/106/106 107/107/107 108/108/108
g wood
v -0.234227895 0.223798676 0.002841011
vt 0.921875000 0.579054696
vn -0.999754305 0.000000000 0.022165951
v -0.234269869 0.183146147 0.000947818
vt 0.892822911 0.578435165
vn -0.999754305 0.000000000 0.022165951
v -0.223835387 0.162277181 0.471575897
vt 0.877909028 0.732444164
vn -0.999754305 0.000000000 0.022165951
f 109/109/109 110/110/110 111/111/111
g wood
v -0.234227895 0.223798676 0.002841011
vt 0.921875000 0.579054696
vn -0.999754305 0.000000000 0.022165951
v -0.223835387 0.162277181 0.471575897
vt 0.877909028 0.732444164
vn -0.999754305 0.000000000 0.022165951
v -0.223793412 0.202929711 0.473469090
vt 0.906961118 0.733063695
vn -0.999754305 0.000000000 0.022165951
f 112/112/112 113/113/113 114/114/114
g wood
v -0.234269869 0.183146147 0.000947818
vt 0.580382841 0.578435165
vn -0.001031511 -0.999018786 -0.044276417
v -0.193585893 0.183146147 0.000000000
vt 0.609839042 0.578125000
vn -0.001031511 -0.999018786 -0.044276417
v -0.183151410 0.162277181 0.470628079
vt 0.617393865 0.732133999
vn -0.001031511 -0.999018786 -0.044276417
f 115/115/115 116/116/116 117/117/117
g wood
v -0.234269869 0.183146147 0.000947818
vt 0.580382841 0.578435165
vn -0.001031511 -0.999018786 -0.044276417
v -0.183151410 0.162277181 0.470628079
vt 0.617393865 0.732133999
vn -0.001031511 -0.999018786 -0.044276417
v -0.223835387 0.162277181 0.471575897
vt 0.587937663 0.732444164
vn -0.001031511 -0.999018786 -0.044276417
f 118/118/118 119/119/119 120/120/120
g wood
v -0.193585893 0.183146147 0.000000000
vt 0.892822911 0.578125000
vn 0.999754305 -0.000000000 -0.022165951
v -0.193543918 0.223798676 0.001893193
vt 0.921875000 0.578744531
vn 0.999754305 -0.000000000 -0.022165951
v -0.183109436 0.202929711 0.472521272
vt 0.906961118 0.732753530
vn 0.999754305 -0.000000000 -0.022165951
f 121/121/121 122/122/122 123/123/123
g wood
v -0.193585893 0.183146147 0.000000000
vt 0.892822911 0.578125000
vn 0.999754305 -0.000000000 -0.022165951
v -0.183109436 0.202929711 0.472521272
vt 0.906961118 0.732753530
vn 0.999754305 -0.000000000 -0.022165951
v -0.183151410 0.162277181 0.470628079
vt 0.877909028 0.732133999
vn 0.999754305 -0.000000000 -0.022165951
f 124/124/124 125/125/125 126/126/126
g wood
v -0.190434354 -0.230072084 0.000610374
vt 0.612120834 0.597518949
vn -0.007319038 0.027185000 -0.999603625
v -0.237388328 -0.230072084 0.000954168
vt 0.578125000 0.597518949
vn -0.007319038 0.027185000 -0.999603625
v -0.237379434 -0.183133428 0.002230637
vt 0.578131439 0.631063381
vn -0.007319038 0.027185000 -0.999603625
f 127/127/127 128/128/128 129/129/129
g wood
v -0.190434354 -0.230072084 0.000610374
vt 0.612120834 0.597518949
vn -0.007319038 0.027185000 -0.999603625
v -0.237379434 -0.183133428 0.002230637
vt 0.578131439 0.631063381
vn -0.007319038 0.027185000 -0.999603625
v -0.190425460 -0.183133428 0.001886842
vt 0.612127274 0.631063381
vn -0.007319038 0.027185000 -0.999603625
f 130/130/130 131/131/131 132/132/132
g wood
v -0.183121322 -0.210263083 1.050103928
vt 0.617415650 0.611675334
vn 0.007319038 -0.027185000 0.999603625
v -0.230075296 -0.210263083 1.050447722
vt 0.583419815 0.611675334
vn 0.007319038 -0.027185000 0.999603625
v -0.230084190 -0.257201739 1.049171254
vt 0.583413376 0.578130902
vn 0.007319038 -0.027185000 0.999603625
f 133/133/133 134/134/134 135/135/135
g wood
v -0.183121322 -0.210263083 1.050103928
vt 0.617415650 0.611675334
vn 0.007319038 -0.027185000 0.999603625
v -0.230084190 -0.257201739 1.049171254
vt 0.583413376 0.578130902
vn 0.007319038 -0.027185000 0.999603625
v -0.183130216 -0.257201739 1.048827459
vt 0.617409210 0.578130902
vn 0.007319038 -0.027185000 0.999603625
f 136/136/136 137/137/137 138/138/138
g wood
v -0.190425460 -0.183133428 0.001886842
vt 0.612127274 0.578742453
vn 0.000189431 0.999665253 0.025871730
v -0.237379434 -0.183133428 0.002230637
vt 0.578131439 0.578854957
vn 0.000189431 0.999665253 0.025871730
v -0.230075296 -0.210263083 1.050447722
vt 0.583419815 0.921875000
vn 0.000189431 0.999665253 0.025871730
f 139/139/139 140/140/140 141/141/141
g wood
v -0.190425460 -0.183133428 0.001886842
vt 0.612127274 0.578742453
vn 0.000189431 0.999665253 0.025871730
v -0.230075296 -0.210263083 1.050447722
vt 0.583419815 0.921875000
vn 0.000189431 0.999665253 0.025871730
v -0.183121322 -0.210263083 1.050103928
vt 0.617415650 0.921762496
vn 0.000189431 0.999665253 0.025871730
f 142/142/142 143/143/143 144/144/144
g wood
v -0.237379434 -0.183133428 0.002230637
vt 0.631063381 0.578854957
vn -0.999975723 -0.000000000 0.006967985
v -0.237388328 -0.230072084 0.000954168
vt 0.597518949 0.578437243
vn -0.999975723 -0.000000000 0.006967985
v -0.230084190 -0.257201739 1.049171254
vt 0.578130902 0.921457287
vn -0.999975723 -0.000000000 0.006967985
f 145/145/145 146/146/146 147/147/147
g wood
v -0.237379434 -0.183133428 0.002230637
vt 0.631063381 0.578854957
vn -0.999975723 -0.000000000 0.006967985
v -0.230084190 -0.257201739 1.049171254
vt 0.578130902 0.921457287
vn -0.999975723 -0.000000000 0.006967985
v -0.230075296 -0.210263083 1.050447722
vt 0.611675334 0.921875000
vn -0.999975723 -0.000000000 0.006967985
f 148/148/148 149/149/149 150/150/150
g wood
v -0.237388328 -0.230072084 0.000954168
vt 0.578125000 0.578437243
vn -0.000189431 -0.999665253 -0.025871730
v -0.190434354 -0.230072084 0.000610374
vt 0.612120834 0.578324740
vn -0.000189431 -0.999665253 -0.025871730
v -0.183130216 -0.257201739 1.048827459
vt 0.617409210 0.921344783
vn -0.000189431 -0.999665253 -0.025871730
f 151/151/151 152/152/152 153/153/153
g wood
v -0.237388328 -0.230072084 0.000954168
vt 0.578125000 0.578437243
vn -0.000189431 -0.999665253 -0.025871730
v -0.183130216 -0.257201739 1.048827459
vt 0.617409210 0.921344783
vn -0.000189431 -0.999665253 -0.025871730
v -0.230084190 -0.257201739 1.049171254
vt 0.583413376 0.921457287
vn -0.000189431 -0.999665253 -0.025871730
f 154/154/154 155/155/155 156/156/156
g wood
v -0.190434354 -0.230072084 0.000610374
vt 0.597518949 0.578324740
vn 0.999975723 0.000000000 -0.006967985
v -0.190425460 -0.183133428 0.001886842
vt 0.631063381 0.578742453
vn 0.999975723 0.000000000 -0.006967985
v -0.183121322 -0.210263083 1.050103928
vt 0.611675334 0.921762496
vn 0.999975723 0.000000000 -0.006967985
f 157/157/157 158/158/158 159/159/159
g wood
v -0.190434354 -0.230072084 0.000610374
vt 0.597518949 0.578324740
vn 0.999975723 0.000000000 -0.006967985
v -0.183121322 -0.210263083 1.050103928
vt 0.611675334 0.921762496
vn 0.999975723 0.000000000 -0.006967985
v -0.183130216 -0.257201739 1.048827459
vt 0.578130902 0.921344783
vn 0.999975723 0.000000000 -0.006967985
f 160/160/160 161/161/161 162/162/162
g wood
v 0.234269869 0.183146147 0.000947818
vt 0.919617159 0.892822911
vn 0.023265537 0.046531073 -0.998645870
v 0.193585893 0.183146147 0.000000000
vt 0.890160958 0.892822911
vn 0.023265537 0.046531073 -0.998645870
v 0.193543918 0.223798676 0.001893193
vt 0.890130567 0.921875000
vn 0.023265537 0.046531073 -0.998645870
f 163/163/163 164/164/164 165/165/165
g wood
v 0.234269869 0.183146147 0.000947818
vt 0.919617159 0.892822911
vn 0.023265537 0.046531073 -0.998645870
v 0.193543918 0.223798676 0.001893193
vt 0.890130567 0.921875000
vn 0.023265537 0.046531073 -0.998645870
v 0.234227895 0.223798676 0.002841011
vt 0.919586769 0.921875000
vn 0.023265537 0.046531073 -0.998645870
f 166/166/166 167/167/167 168/168/168
g wood
v 0.223793412 0.202929711 0.473469090
vt 0.912031946 0.906961118
vn -0.023265537 -0.046531073 0.998645870
v 0.183109436 0.202929711 0.472521272
vt 0.882575744 0.906961118
vn -0.023265537 -0.046531073 0.998645870
v 0.183151410 0.162277181 0.470628079
vt 0.882606135 0.877909028
vn -0.023265537 -0.046531073 0.998645870
f 169/169/169 170/170/170 171/171/171
g wood
v 0.223793412 0.202929711 0.473469090
vt 0.912031946 0.906961118
vn -0.023265537 -0.046531073 0.998645870
v 0.183151410 0.162277181 0.470628079
vt 0.882606135 0.877909028
vn -0.023265537 -0.046531073 0.998645870
v 0.223835387 0.162277181 0.471575897
vt 0.912062337 0.877909028
vn -0.023265537 -0.046531073 0.998645870
f 172/172/172 173/173/173 174/174/174
g wood
v 0.234227895 0.223798676 0.002841011
vt 0.919586769 0.579054696
vn -0.001031511 0.999018786 0.044276417
v 0.193543918 0.223798676 0.001893193
vt 0.890130567 0.578744531
vn -0.001031511 0.999018786 0.044276417
v 0.183109436 0.202929711 0.472521272
vt 0.882575744 0.732753530
vn -0.001031511 0.999018786 0.044276417
f 175/175/175 176/176/176 177/177/177
g wood
v 0.234227895 0.223798676 0.002841011
vt 0.919586769 0.579054696
vn -0.001031511 0.999018786 0.044276417
v 0.183109436 0.202929711 0.472521272
vt 0.882575744 0.732753530
vn -0.001031511 0.999018786 0.044276417
v 0.223793412 0.202929711 0.473469090
vt 0.912031946 0.733063695
vn -0.001031511 0.999018786 0.044276417
f 178/178/178 179/179/179 180/180/180
g wood
v 0.193543918 0.223798676 0.001893193
vt 0.921875000 0.578744531
vn -0.999754305 -0.000000000 -0.022165951
v 0.193585893 0.183146147 0.000000000
vt 0.892822911 0.578125000
vn -0.999754305 -0.000000000 -0.022165951
v 0.183151410 0.162277181 0.470628079
vt 0.877909028 0.732133999
vn -0.999754305 -0.000000000 -0.022165951
f 181/181/181 182/182/182 183/183/183
g wood
v 0.193543918 0.223798676 0.001893193
vt 0.921875000 0.578744531
vn -0.999754305 -0.000000000 -0.022165951
v 0.183151410 0.162277181 0.470628079
vt 0.877909028 0.732133999
vn -0.999754305 -0.000000000 -0.022165951
v 0.183109436 0.202929711 0.472521272
vt 0.906961118 0.732753530
vn -0.999754305 -0.000000000 -0.022165951
f 184/184/184 185/185/185 186/186/186
g wood
v 0.193585893 0.183146147 0.000000000
vt 0.890160958 0.578125000
vn 0.001031511 -0.999018786 -0.044276417
v 0.234269869 0.183146147 0.000947818
vt 0.919617159 0.578435165
vn 0.001031511 -0.999018786 -0.044276417
v 0.223835387 0.162277181 0.471575897
vt 0.912062337 0.732444164
vn 0.001031511 -0.999018786 -0.044276417
f 187/187/187 188/188/188 189/189/189
g wood
v 0.193585893 0.183146147 0.000000000
vt 0.890160958 0.578125000
vn 0.001031511 -0.999018786 -0.044276417
v 0.223835387 0.162277181 0.471575897
vt 0.912062337 0.732444164
vn 0.001031511 -0.999018786 -0.044276417
v 0.183151410 0.162277181 0.470628079
vt 0.882606135 0.732133999
vn 0.001031511 -0.999018786 -0.044276417
f 190/190/190 191/191/191 192/192/192
g wood
v 0.234269869 0.183146147 0.000947818
vt 0.892822911 0.578435165
vn 0.999754305 0.000000000 0.022165951
v 0.234227895 0.223798676 0.002841011
vt 0.921875000 0.579054696
vn 0.999754305 0.000000000 0.022165951
v 0.223793412 0.202929711 0.473469090
vt 0.906961118 0.733063695
vn 0.999754305 0.000000000 0.022165951
f 193/193/193 194/194/194 195/195/195
g wood
v 0.234269869 0.183146147 0.000947818
vt 0.892822911 0.578435165
vn 0.999754305 0.000000000 0.022165951
v 0.223793412 0.202929711 0.473469090
vt 0.906961118 0.733063695
vn 0.999754305 0.000000000 0.022165951
v 0.223835387 0.162277181 0.471575897
vt 0.877909028 0.732444164
vn 0.999754305 0.000000000 0.022165951
f 196/196/196 197/197/197 198/198/198
g wood
v 0.237388328 -0.230072084 0.000954168
vt 0.921875000 0.597518949
vn 0.007319038 0.027185000 -0.999603625
v 0.190434354 -0.230072084 0.000610374
vt 0.887879166 0.597518949
vn 0.007319038 0.027185000 -0.999603625
v 0.190425460 -0.183133428 0.001886842
vt 0.887872726 0.631063381
vn 0.007319038 0.027185000 -0.999603625
f 199/199/199 200/200/200 201/201/201
g wood
v 0.237388328 -0.230072084 0.000954168
vt 0.921875000 0.597518949
vn 0.007319038 0.027185000 -0.999603625
v 0.190425460 -0.183133428 0.001886842
vt 0.887872726 0.631063381
vn 0.007319038 0.027185000 -0.999603625
v 0.237379434 -0.183133428 0.002230637
vt 0.921868561 0.631063381
vn 0.007319038 0.027185000 -0.999603625
f 202/202/202 203/203/203 204/204/204
g wood
v 0.230075296 -0.210263083 1.050447722
vt 0.916580185 0.611675334
vn -0.007319038 -0.027185000 0.999603625
v 0.183121322 -0.210263083 1.050103928
vt 0.882584350 0.611675334
vn -0.007319038 -0.027185000 0.999603625
v 0.183130216 -0.257201739 1.048827459
vt 0.882590790 0.578130902
vn -0.007319038 -0.027185000 0.999603625
f 205/205/205 206/206/206 207/207/207
g wood
v 0.230075296 -0.210263083 1.050447722
vt 0.916580185 0.611675334
vn -0.007319038 -0.027185000 0.999603625
v 0.183130216 -0.257201739 1.048827459
vt 0.882590790 0.578130902
vn -0.007319038 -0.027185000 0.999603625
v 0.230084190 -0.257201739 1.049171254
vt 0.916586624 0.578130902
vn -0.007319038 -0.027185000 0.999603625
f 208/208/208 209/209/209 210/210/210
g wood
v 0.237379434 -0.183133428 0.002230637
vt 0.921868561 0.578854957
vn -0.000189431 0.999665253 0.025871730
v 0.190425460 -0.183133428 0.001886842
vt 0.887872726 0.578742453
vn -0.000189431 0.999665253 0.025871730
v 0.183121322 -0.210263083 1.050103928
vt 0.882584350 0.921762496
vn -0.000189431 0.999665253 0.025871730
f 211/211/211 212/212/212 213/213/213
g wood
v 0.237379434 -0.183133428 0.002230637
vt 0.921868561 0.578854957
vn -0.000189431 0.999665253 0.025871730
v 0.183121322 -0.210263083 1.050103928
vt 0.882584350 0.921762496
vn -0.000189431 0.999665253 0.025871730
v 0.230075296 -0.210263083 1.050447722
vt 0.916580185 0.921875000
vn -0.000189431 0.999665253 0.025871730
f 214/214/214 215/215/215 216/216/216
g wood
v 0.190425460 -0.183133428 0.001886842
vt 0.631063381 0.578742453
vn -0.999975723 0.000000000 -0.006967985
v 0.190434354 -0.230072084 0.000610374
vt 0.597518949 0.578324740
vn -0.999975723 0.000000000 -0.006967985
v 0.183130216 -0.257201739 1.048827459
vt 0.578130902 0.921344783
vn -0.999975723 0.000000000 -0.006967985
f 217/217/217 218/218/218 219/219/219
g wood
v 0.190425460 -0.183133428 0.001886842
vt 0.631063381 0.578742453
vn -0.999975723 0.000000000 -0.006967985
v 0.183130216 -0.257201739 1.048827459
vt 0.578130902 0.921344783
vn -0.999975723 0.000000000 -0.006967985
v 0.183121322 -0.210263083 1.050103928
vt 0.611675334 0.921762496
vn -0.999975723 0.000000000 -0.006967985
f 220/220/220 221/221/221 222/222/222
g wood
v 0.190434354 -0.230072084 0.000610374
vt 0.887879166 0.578324740
vn 0.000189431 -0.999665253 -0.025871730
v 0.237388328 -0.230072084 0.000954168
vt 0.921875000 0.578437243
vn 0.000189431 -0.999665253 -0.025871730
v 0.230084190 -0.257201739 1.049171254
vt 0.916586624 0.921457287
vn 0.000189431 -0.999665253 -0.025871730
f 223/223/223 224/224/224 225/225/225
g wood
v 0.190434354 -0.230072084 0.000610374
vt 0.887879166 0.578324740
vn 0.000189431 -0.999665253 -0.025871730
v 0.230084190 -0.257201739 1.049171254
vt 0.916586624 0.921457287
vn 0.000189431 -0.999665253 -0.025871730
v 0.183130216 -0.257201739 1.048827459
vt 0.882590790 0.921344783
vn 0.000189431 -0.999665253 -0.025871730
f 226/226/226 227/227/227 228/228/228
g wood
v 0.237388328 -0.230072084 0.000954168
vt 0.597518949 0.578437243
vn 0.999975723 -0.000000000 0.006967985
v 0.237379434 -0.183133428 0.002230637
vt 0.631063381 0.578854957
vn 0.999975723 -0.000000000 0.006967985
v 0.230075296 -0.210263083 1.050447722
vt 0.611675334 0.921875000
vn 0.999975723 -0.000000000 0.006967985
f 229/229/229 230/230/230 231/231/231
g wood
v 0.237388328 -0.230072084 0.000954168
vt 0.597518949 0.578437243
vn 0.999975723 -0.000000000 0.006967985
v 0.230075296 -0.210263083 1.050447722
vt 0.611675334 0.921875000
vn 0.999975723 -0.000000000 0.006967985
v 0.230084190 -0.257201739 1.049171254
vt 0.578130902 0.921457287
vn 0.999975723 -0.000000000 0.006967985
f 232/232/232 233/233/233 234/234/234
g wood
v -0.215993790 -0.206081032 0.994552713
vt 0.614664012 0.903583838
vn -1.000000000 0.000000000 0.000000000
v -0.215993790 -0.257209997 0.994552713
vt 0.578125000 0.903583838
vn -1.000000000 0.000000000 0.000000000
v -0.215993790 -0.257209997 1.046963567
vt 0.578125000 0.920734840
vn -1.000000000 0.000000000 0.000000000
f 235/235/235 236/236/236 237/237/237
g wood
v -0.215993790 -0.206081032 0.994552713
vt 0.614664012 0.903583838
vn -1.000000000 0.000000000 0.000000000
v -0.215993790 -0.257209997 1.046963567
vt 0.578125000 0.920734840
vn -1.000000000 0.000000000 0.000000000
v -0.215993790 -0.206081032 1.046963567
vt 0.614664012 0.920734840
vn -1.000000000 0.000000000 0.000000000
f 238/238/238 239/239/239 240/240/240
g wood
v 0.215993790 -0.206081032 1.046963567
vt 0.614664012 0.920734840
vn 1.000000000 0.000000000 0.000000000
v 0.215993790 -0.257209997 1.046963567
vt 0.578125000 0.920734840
vn 1.000000000 0.000000000 0.000000000
v 0.215993790 -0.257209997 0.994552713
vt 0.578125000 0.903583838
vn 1.000000000 0.000000000 0.000000000
f 241/241/241 242/242/242 243/243/243
g wood
v 0.215993790 -0.206081032 1.046963567
vt 0.614664012 0.920734840
vn 1.000000000 0.000000000 0.000000000
v 0.215993790 -0.257209997 0.994552713
vt 0.578125000 0.903583838
vn 1.000000000 0.000000000 0.000000000
v 0.215993790 -0.206081032 0.994552713
vt 0.614664012 0.903583838
vn 1.000000000 0.000000000 0.000000000
f 244/244/244 245/245/245 246/246/246
g wood
v -0.215993790 -0.206081032 1.046963567
vt 0.593615173 0.614664012
vn 0.000000000 0.000000000 1.000000000
v -0.215993790 -0.257209997 1.046963567
vt 0.593615173 0.578125000
vn 0.000000000 0.000000000 1.000000000
v 0.215993790 -0.257209997 1.046963567
vt 0.906384827 0.578125000
vn 0.000000000 0.000000000 1.000000000
f 247/247/247 248/248/248 249/249/249
g wood
v -0.215993790 -0.206081032 1.046963567
vt 0.593615173 0.614664012
vn -0.000000000 0.000000000 1.000000000
v 0.215993790 -0.257209997 1.046963567
vt 0.906384827 0.578125000
vn -0.000000000 0.000000000 1.000000000
v 0.215993790 -0.206081032 1.046963567
vt 0.906384827 0.614664012
vn -0.000000000 0.000000000 1.000000000
f 250/250/250 251/251/251 252/252/252
g wood
v -0.215993790 -0.257209997 1.046963567
vt 0.593615173 0.920734840
vn 0.000000000 -1.000000000 0.000000000
v -0.215993790 -0.257209997 0.994552713
vt 0.593615173 0.903583838
vn 0.000000000 -1.000000000 0.000000000
v 0.215993790 -0.257209997 0.994552713
vt 0.906384827 0.903583838
vn 0.000000000 -1.000000000 0.000000000
f 253/253/253 254/254/254 255/255/255
g wood
v -0.215993790 -0.257209997 1.046963567
vt 0.593615173 0.920734840
vn 0.000000000 -1.000000000 0.000000000
v 0.215993790 -0.257209997 0.994552713
vt 0.906384827 0.903583838
vn 0.000000000 -1.000000000 0.000000000
v 0.215993790 -0.257209997 1.046963567
vt 0.906384827 0.920734840
vn 0.000000000 -1.000000000 0.000000000
f 256/256/256 257/257/257 258/258/258
g wood
v -0.215993790 -0.257209997 0.994552713
vt 0.593615173 0.578125000
vn 0.000000000 0.000000000 -1.000000000
v -0.215993790 -0.206081032 0.994552713
vt 0.593615173 0.614664012
vn 0.000000000 0.000000000 -1.000000000
v 0.215993790 -0.206081032 0.994552713
vt 0.906384827 0.614664012
vn 0.000000000 0.000000000 -1.000000000
f 259/259/259 260/260/260 261/261/261
g wood
v -0.215993790 -0.257209997 0.994552713
vt 0.593615173 0.578125000
vn 0.000000000 0.000000000 -1.000000000
v 0.215993790 -0.206081032 0.994552713
vt 0.906384827 0.614664012
vn 0.000000000 0.000000000 -1.000000000
v 0.215993790 -0.257209997 0.994552713
vt 0.906384827 0.578125000
vn 0.000000000 0.000000000 -1.000000000
f 262/262/262 263/263/263 264/264/264
g wood
v -0.215993790 -0.206081032 0.994552713
vt 0.593615173 0.903583838
vn 0.000000000 1.000000000 0.000000000
v -0.215993790 -0.206081032 1.046963567
vt 0.593615173 0.920734840
vn 0.000000000 1.000000000 0.000000000
v 0.215993790 -0.206081032 1.046963567
vt 0.906384827 0.920734840
vn 0.000000000 1.000000000 0.000000000
f 265/265/265 266/266/266 267/267/267
g wood
v -0.215993790 -0.206081032 0.994552713
vt 0.593615173 0.903583838
vn 0.000000000 1.000000000 0.000000000
v 0.215993790 -0.206081032 1.046963567
vt 0.906384827 0.920734840
vn 0.000000000 1.000000000 0.000000000
v 0.215993790 -0.206081032 0.994552713
vt 0.906384827 0.903583838
vn 0.000000000 1.000000000 0.000000000
f 268/268/268 269/269/269 270/270/270
g wood
v -0.201385515 -0.190429308 0.535690336
vt 0.625849424 0.753425064
vn -1.000000000 0.000000000 0.000000000
v -0.201385515 -0.222776204 0.535690336
vt 0.602732906 0.753425064
vn -1.000000000 0.000000000 0.000000000
v -0.201385515 -0.222776204 0.568848224
vt 0.602732906 0.764275698
vn -1.000000000 0.000000000 0.000000000
f 271/271/271 272/272/272 273/273/273
g wood
v -0.201385515 -0.190429308 0.535690336
vt 0.625849424 0.753425064
vn -1.000000000 0.000000000 0.000000000
v -0.201385515 -0.222776204 0.568848224
vt 0.602732906 0.764275698
vn -1.000000000 0.000000000 0.000000000
v -0.201385515 -0.190429308 0.568848224
vt 0.625849424 0.764275698
vn -1.000000000 0.000000000 0.000000000
f 274/274/274 275/275/275 276/276/276
g wood
v 0.201385515 -0.190429308 0.568848224
vt 0.625849424 0.764275698
vn 1.000000000 0.000000000 0.000000000
v 0.201385515 -0.222776204 0.568848224
vt 0.602732906 0.764275698
vn 1.000000000 0.000000000 0.000000000
v 0.201385515 -0.222776204 0.535690336
vt 0.602732906 0.753425064
vn 1.000000000 0.000000000 0.000000000
f 277/277/277 278/278/278 279/279/279
g wood
v 0.201385515 -0.190429308 0.568848224
vt 0.625849424 0.764275698
vn 1.000000000 0.000000000 0.000000000
v 0.201385515 -0.222776204 0.535690336
vt 0.602732906 0.753425064
vn 1.000000000 0.000000000 0.000000000
v 0.201385515 -0.190429308 0.535690336
vt 0.625849424 0.753425064
vn 1.000000000 0.000000000 0.000000000
f 280/280/280 281/281/281 282/282/282
g wood
v -0.201385515 -0.190429308 0.568848224
vt 0.604191924 0.625849424
vn 0.000000000 0.000000000 1.000000000
v -0.201385515 -0.222776204 0.568848224
vt 0.604191924 0.602732906
vn 0.000000000 0.000000000 1.000000000
v 0.201385515 -0.222776204 0.568848224
vt 0.895808076 0.602732906
vn 0.000000000 0.000000000 1.000000000
f 283/283/283 284/284/284 285/285/285
g wood
v -0.201385515 -0.190429308 0.568848224
vt 0.604191924 0.625849424
vn -0.000000000 0.000000000 1.000000000
v 0.201385515 -0.222776204 0.568848224
vt 0.895808076 0.602732906
vn -0.000000000 0.000000000 1.000000000
v 0.201385515 -0.190429308 0.568848224
vt 0.895808076 0.625849424
vn -0.000000000 0.000000000 1.000000000
f 286/286/286 287/287/287 288/288/288
g wood
v -0.201385515 -0.222776204 0.568848224
vt 0.604191924 0.764275698
vn 0.000000000 -1.000000000 0.000000000
v -0.201385515 -0.222776204 0.535690336
vt 0.604191924 0.753425064
vn 0.000000000 -1.000000000 0.000000000
v 0.201385515 -0.222776204 0.535690336
vt 0.895808076 0.753425064
vn 0.000000000 -1.000000000 0.000000000
f 289/289/289 290/290/290 291/291/291
g wood
v -0.201385515 -0.222776204 0.568848224
vt 0.604191924 0.764275698
vn 0.000000000 -1.000000000 0.000000000
v 0.201385515 -0.222776204 0.535690336
vt 0.895808076 0.753425064
vn 0.000000000 -1.000000000 0.000000000
v 0.201385515 -0.222776204 0.568848224
vt 0.895808076 0.764275698
vn 0.000000000 -1.000000000 0.000000000
f 292/292/292 293/293/293 294/294/294
g wood
v -0.201385515 -0.222776204 0.535690336
vt 0.604191924 0.602732906
vn 0.000000000 0.000000000 -1.000000000
v -0.201385515 -0.190429308 0.535690336
vt 0.604191924 0.625849424
vn 0.000000000 0.000000000 -1.000000000
v 0.201385515 -0.190429308 0.535690336
vt 0.895808076 0.625849424
vn 0.000000000 0.000000000 -1.000000000
f 295/295/295 296/296/296 297/297/297
g wood
v -0.201385515 -0.222776204 0.535690336
vt 0.604191924 0.602732906
vn 0.000000000 0.000000000 -1.000000000
v 0.201385515 -0.190429308 0.535690336
vt 0.895808076 0.625849424
vn 0.000000000 0.000000000 -1.000000000
v 0.201385515 -0.222776204 0.535690336
vt 0.895808076 0.602732906
vn 0.000000000 0.000000000 -1.000000000
f 298/298/298 299/299/299 300/300/300
g wood
v -0.201385515 -0.190429308 0.535690336
vt 0.604191924 0.753425064
vn 0.000000000 1.000000000 0.000000000
v -0.201385515 -0.190429308 0.568848224
vt 0.604191924 0.764275698
vn 0.000000000 1.000000000 0.000000000
v 0.201385515 -0.190429308 0.568848224
vt 0.895808076 0.764275698
vn 0.000000000 1.000000000 0.000000000
f 301/301/301 302/302/302 303/303/303
g wood
v -0.201385515 -0.190429308 0.535690336
vt 0.604191924 0.753425064
vn 0.000000000 1.000000000 0.000000000
v 0.201385515 -0.190429308 0.568848224
vt 0.895808076 0.764275698
vn 0.000000000 1.000000000 0.000000000
v 0.201385515 -0.190429308 0.535690336
vt 0.895808076 0.753425064
vn 0.000000000 1.000000000 0.000000000
f 304/304/304 305/305/305 306/306/306
g wood
v -0.124170343 -0.219114369 0.541186129
vt 0.660097611 0.605349815
vn 0.000000000 0.052987989 -0.998595150
v -0.138778619 -0.219114369 0.541186129
vt 0.649520860 0.605349815
vn 0.000000000 0.052987989 -0.998595150
v -0.138778619 -0.204525626 0.541960245
vt 0.649520860 0.615775574
vn 0.000000000 0.052987989 -0.998595150
f 307/307/307 308/308/308 309/309/309
g wood
v -0.124170343 -0.219114369 0.541186129
vt 0.660097611 0.605349815
vn 0.000000000 0.052987989 -0.998595150
v -0.138778619 -0.204525626 0.541960245
vt 0.649520860 0.615775574
vn 0.000000000 0.052987989 -0.998595150
v -0.124170343 -0.204525626 0.541960245
vt 0.660097611 0.615775574
vn 0.000000000 0.052987989 -0.998595150
f 310/310/310 311/311/311 312/312/312
g wood
v -0.124170343 -0.227481488 0.996544185
vt 0.660097611 0.599370303
vn 0.000000000 -0.052987989 0.998595150
v -0.138778619 -0.227481488 0.996544185
vt 0.649520860 0.599370303
vn 0.000000000 -0.052987989 0.998595150
v -0.138778619 -0.242070231 0.995770069
vt 0.649520860 0.588944544
vn 0.000000000 -0.052987989 0.998595150
f 313/313/313 314/314/314 315/315/315
g wood
v -0.124170343 -0.227481488 0.996544185
vt 0.660097611 0.599370303
vn 0.000000000 -0.052987989 0.998595150
v -0.138778619 -0.242070231 0.995770069
vt 0.649520860 0.588944544
vn 0.000000000 -0.052987989 0.998595150
v -0.124170343 -0.242070231 0.995770069
vt 0.660097611 0.588944544
vn 0.000000000 -0.052987989 0.998595150
f 316/316/316 317/317/317 318/318/318
g wood
v -0.124170343 -0.204525626 0.541960245
vt 0.660097611 0.755476838
vn 0.000000000 0.998727378 0.050434355
v -0.138778619 -0.204525626 0.541960245
vt 0.649520860 0.755476838
vn 0.000000000 0.998727378 0.050434355
v -0.138778619 -0.227481488 0.996544185
vt 0.649520860 0.904235530
vn 0.000000000 0.998727378 0.050434355
f 319/319/319 320/320/320 321/321/321
g wood
v -0.124170343 -0.204525626 0.541960245
vt 0.660097611 0.755476838
vn 0.000000000 0.998727378 0.050434355
v -0.138778619 -0.227481488 0.996544185
vt 0.649520860 0.904235530
vn 0.000000000 0.998727378 0.050434355
v -0.124170343 -0.227481488 0.996544185
vt 0.660097611 0.904235530
vn 0.000000000 0.998727378 0.050434355
f 322/322/322 323/323/323 324/324/324
g wood
v -0.138778619 -0.204525626 0.541960245
vt 0.615775574 0.755476838
vn -1.000000000 -0.000000000 0.000000000
v -0.138778619 -0.219114369 0.541186129
vt 0.605349815 0.755223515
vn -1.000000000 -0.000000000 0.000000000
v -0.138778619 -0.242070231 0.995770069
vt 0.588944544 0.903982207
vn -1.000000000 -0.000000000 0.000000000
f 325/325/325 326/326/326 327/327/327
g wood
v -0.138778619 -0.204525626 0.541960245
vt 0.615775574 0.755476838
vn -1.000000000 0.000000000 0.000000000
v -0.138778619 -0.242070231 0.995770069
vt 0.588944544 0.903982207
vn -1.000000000 0.000000000 0.000000000
v -0.138778619 -0.227481488 0.996544185
vt 0.599370303 0.904235530
vn -1.000000000 0.000000000 0.000000000
f 328/328/328 329/329/329 330/330/330
g wood
v -0.138778619 -0.219114369 0.541186129
vt 0.649520860 0.755223515
vn 0.000000000 -0.998727378 -0.050434355
v -0.124170343 -0.219114369 0.541186129
vt 0.660097611 0.755223515
vn 0.000000000 -0.998727378 -0.050434355
v -0.124170343 -0.242070231 0.995770069
vt 0.660097611 0.903982207
vn 0.000000000 -0.998727378 -0.050434355
f 331/331/331 332/332/332 333/333/333
g wood
v -0.138778619 -0.219114369 0.541186129
vt 0.649520860 0.755223515
vn 0.000000000 -0.998727378 -0.050434355
v -0.124170343 -0.242070231 0.995770069
vt 0.660097611 0.903982207
vn 0.000000000 -0.998727378 -0.050434355
v -0.138778619 -0.242070231 0.995770069
vt 0.649520860 0.903982207
vn 0.000000000 -0.998727378 -0.050434355
f 334/334/334 335/335/335 336/336/336
g wood
v -0.124170343 -0.219114369 0.541186129
vt 0.605349815 0.755223515
vn 1.000000000 0.000000000 -0.000000000
v -0.124170343 -0.204525626 0.541960245
vt 0.615775574 0.755476838
vn 1.000000000 0.000000000 -0.000000000
v -0.124170343 -0.227481488 0.996544185
vt 0.599370303 0.904235530
vn 1.000000000 0.000000000 -0.000000000
f 337/337/337 338/338/338 339/339/339
g wood
v -0.124170343 -0.219114369 0.541186129
vt 0.605349815 0.755223515
vn 1.000000000 0.000000000 0.000000000
v -0.124170343 -0.227481488 0.996544185
vt 0.599370303 0.904235530
vn 1.000000000 0.000000000 0.000000000
v -0.124170343 -0.242070231 0.995770069
vt 0.588944544 0.903982207
vn 1.000000000 0.000000000 0.000000000
f 340/340/340 341/341/341 342/342/342
g wood
v -0.058433103 -0.219114369 0.541186129
vt 0.707692993 0.605349815
vn 0.000000000 0.052987989 -0.998595150
v -0.073041378 -0.219114369 0.541186129
vt 0.697116242 0.605349815
vn 0.000000000 0.052987989 -0.998595150
v -0.073041378 -0.204525626 0.541960245
vt 0.697116242 0.615775574
vn 0.000000000 0.052987989 -0.998595150
f 343/343/343 344/344/344 345/345/345
g wood
v -0.058433103 -0.219114369 0.541186129
vt 0.707692993 0.605349815
vn 0.000000000 0.052987989 -0.998595150
v -0.073041378 -0.204525626 0.541960245
vt 0.697116242 0.615775574
vn 0.000000000 0.052987989 -0.998595150
v -0.058433103 -0.204525626 0.541960245
vt 0.707692993 0.615775574
vn 0.000000000 0.052987989 -0.998595150
f 346/346/346 347/347/347 348/348/348
g wood
v -0.058433103 -0.227481488 0.996544185
vt 0.707692993 0.599370303
vn 0.000000000 -0.052987989 0.998595150
v -0.073041378 -0.227481488 0.996544185
vt 0.697116242 0.599370303
vn 0.000000000 -0.052987989 0.998595150
v -0.073041378 -0.242070231 0.995770069
vt 0.697116242 0.588944544
vn 0.000000000 -0.052987989 0.998595150
f 349/349/349 350/350/350 351/351/351
g wood
v -0.058433103 -0.227481488 0.996544185
vt 0.707692993 0.599370303
vn 0.000000000 -0.052987989 0.998595150
v -0.073041378 -0.242070231 0.995770069
vt 0.697116242 0.588944544
vn 0.000000000 -0.052987989 0.998595150
v -0.058433103 -0.242070231 0.995770069
vt 0.707692993 0.588944544
vn 0.000000000 -0.052987989 0.998595150
f 352/352/352 353/353/353 354/354/354
g wood
v -0.058433103 -0.204525626 0.541960245
vt 0.707692993 0.755476838
vn 0.000000000 0.998727378 0.050434355
v -0.073041378 -0.204525626 0.541960245
vt 0.697116242 0.755476838
vn 0.000000000 0.998727378 0.050434355
v -0.073041378 -0.227481488 0.996544185
vt 0.697116242 0.904235530
vn 0.000000000 0.998727378 0.050434355
f 355/355/355 356/356/356 357/357/357
g wood
v -0.058433103 -0.204525626 0.541960245
vt 0.707692993 0.755476838
vn 0.000000000 0.998727378 0.050434355
v -0.073041378 -0.227481488 0.996544185
vt 0.697116242 0.904235530
vn 0.000000000 0.998727378 0.050434355
v -0.058433103 -0.227481488 0.996544185
vt 0.707692993 0.904235530
vn 0.000000000 0.998727378 0.050434355
f 358/358/358 359/359/359 360/360/360
g wood
v -0.073041378 -0.204525626 0.541960245
vt 0.615775574 0.755476838
vn -1.000000000 -0.000000000 0.000000000
v -0.073041378 -0.219114369 0.541186129
vt 0.605349815 0.755223515
vn -1.000000000 -0.000000000 0.000000000
v -0.073041378 -0.242070231 0.995770069
vt 0.588944544 0.903982207
vn -1.000000000 -0.000000000 0.000000000
f 361/361/361 362/362/362 363/363/363
g wood
v -0.073041378 -0.204525626 0.541960245
vt 0.615775574 0.755476838
vn -1.000000000 0.000000000 0.000000000
v -0.073041378 -0.242070231 0.995770069
vt 0.588944544 0.903982207
vn -1.000000000 0.000000000 0.000000000
v -0.073041378 -0.227481488 0.996544185
vt 0.599370303 0.904235530
vn -1.000000000 0.000000000 0.000000000
f 364/364/364 365/365/365 366/366/366
g wood
v -0.073041378 -0.219114369 0.541186129
vt 0.697116242 0.755223515
vn 0.000000000 -0.998727378 -0.050434355
v -0.058433103 -0.219114369 0.541186129
vt 0.707692993 0.755223515
vn 0.000000000 -0.998727378 -0.050434355
v -0.058433103 -0.242070231 0.995770069
vt 0.707692993 0.903982207
vn 0.000000000 -0.998727378 -0.050434355
f 367/367/367 368/368/368 369/369/369
g wood
v -0.073041378 -0.219114369 0.541186129
vt 0.697116242 0.755223515
vn 0.000000000 -0.998727378 -0.050434355
v -0.058433103 -0.242070231 0.995770069
vt 0.707692993 0.903982207
vn 0.000000000 -0.998727378 -0.050434355
v -0.073041378 -0.242070231 0.995770069
vt 0.697116242 0.903982207
vn 0.000000000 -0.998727378 -0.050434355
f 370/370/370 371/371/371 372/372/372
g wood
v -0.058433103 -0.219114369 0.541186129
vt 0.605349815 0.755223515
vn 1.000000000 0.000000000 -0.000000000
v -0.058433103 -0.204525626 0.541960245
vt 0.615775574 0.755476838
vn 1.000000000 0.000000000 -0.000000000
v -0.058433103 -0.227481488 0.996544185
vt 0.599370303 0.904235530
vn 1.000000000 0.000000000 -0.000000000
f 373/373/373 374/374/374 375/375/375
g wood
v -0.058433103 -0.219114369 0.541186129
vt 0.605349815 0.755223515
vn 1.000000000 0.000000000 0.000000000
v -0.058433103 -0.227481488 0.996544185
vt 0.599370303 0.904235530
vn 1.000000000 0.000000000 0.000000000
v -0.058433103 -0.242070231 0.995770069
vt 0.588944544 0.903982207
vn 1.000000000 0.000000000 0.000000000
f 376/376/376 377/377/377 378/378/378
g wood
v 0.007304138 -0.219114369 0.541186129
vt 0.755288376 0.605349815
vn 0.000000000 0.052987989 -0.998595150
v -0.007304138 -0.219114369 0.541186129
vt 0.744711624 0.605349815
vn 0.000000000 0.052987989 -0.998595150
v -0.007304138 -0.204525626 0.541960245
vt 0.744711624 0.615775574
vn 0.000000000 0.052987989 -0.998595150
f 379/379/379 380/380/380 381/381/381
g wood
v 0.007304138 -0.219114369 0.541186129
vt 0.755288376 0.605349815
vn 0.000000000 0.052987989 -0.998595150
v -0.007304138 -0.204525626 0.541960245
vt 0.744711624 0.615775574
vn 0.000000000 0.052987989 -0.998595150
v 0.007304138 -0.204525626 0.541960245
vt 0.755288376 0.615775574
vn 0.000000000 0.052987989 -0.998595150
f 382/382/382 383/383/383 384/384/384
g wood
v 0.007304138 -0.227481488 0.996544185
vt 0.755288376 0.599370303
vn 0.000000000 -0.052987989 0.998595150
v -0.007304138 -0.227481488 0.996544185
vt 0.744711624 0.599370303
vn 0.000000000 -0.052987989 0.998595150
v -0.007304138 -0.242070231 0.995770069
vt 0.744711624 0.588944544
vn 0.000000000 -0.052987989 0.998595150
f 385/385/385 386/386/386 387/387/387
g wood
v 0.007304138 -0.227481488 0.996544185
vt 0.755288376 0.599370303
vn 0.000000000 -0.052987989 0.998595150
v -0.007304138 -0.242070231 0.995770069
vt 0.744711624 0.588944544
vn 0.000000000 -0.052987989 0.998595150
v 0.007304138 -0.242070231 0.995770069
vt 0.755288376 0.588944544
vn 0.000000000 -0.052987989 0.998595150
f 388/388/388 389/389/389 390/390/390
g wood
v 0.007304138 -0.204525626 0.541960245
vt 0.755288376 0.755476838
vn 0.000000000 0.998727378 0.050434355
v -0.007304138 -0.204525626 0.541960245
vt 0.744711624 0.755476838
vn 0.000000000 0.998727378 0.050434355
v -0.007304138 -0.227481488 0.996544185
vt 0.744711624 0.904235530
vn 0.000000000 0.998727378 0.050434355
f 391/391/391 392/392/392 393/393/393
g wood
v 0.007304138 -0.204525626 0.541960245
vt 0.755288376 0.755476838
vn 0.000000000 0.998727378 0.050434355
v -0.007304138 -0.227481488 0.996544185
vt 0.744711624 0.904235530
vn 0.000000000 0.998727378 0.050434355
v 0.007304138 -0.227481488 0.996544185
vt 0.755288376 0.904235530
vn 0.000000000 0.998727378 0.050434355
f 394/394/394 395/395/395 396/396/396
g wood
v -0.007304138 -0.204525626 0.541960245
vt 0.615775574 0.755476838
vn -1.000000000 -0.000000000 0.000000000
v -0.007304138 -0.219114369 0.541186129
vt 0.605349815 0.755223515
vn -1.000000000 -0.000000000 0.000000000
v -0.007304138 -0.242070231 0.995770069
vt 0.588944544 0.903982207
vn -1.000000000 -0.000000000 0.000000000
f 397/397/397 398/398/398 399/399/399
g wood
v -0.007304138 -0.204525626 0.541960245
vt 0.615775574 0.755476838
vn -1.000000000 0.000000000 0.000000000
v -0.007304138 -0.242070231 0.995770069
vt 0.588944544 0.903982207
vn -1.000000000 0.000000000 0.000000000
v -0.007304138 -0.227481488 0.996544185
vt 0.599370303 0.904235530
vn -1.000000000 0.000000000 0.000000000
f 400/400/400 401/401/401 402/402/402
g wood
v -0.007304138 -0.219114369 0.541186129
vt 0.744711624 0.755223515
vn 0.000000000 -0.998727378 -0.050434355
v 0.007304138 -0.219114369 0.541186129
vt 0.755288376 0.755223515
vn 0.000000000 -0.998727378 -0.050434355
v 0.007304138 -0.242070231 0.995770069
vt 0.755288376 0.903982207
vn 0.000000000 -0.998727378 -0.050434355
f 403/403/403 404/404/404 405/405/405
g wood
v -0.007304138 -0.219114369 0.541186129
vt 0.744711624 0.755223515
vn 0.000000000 -0.998727378 -0.050434355
v 0.007304138 -0.242070231 0.995770069
vt 0.755288376 0.903982207
vn 0.000000000 -0.998727378 -0.050434355
v -0.007304138 -0.242070231 0.995770069
vt 0.744711624 0.903982207
vn 0.000000000 -0.998727378 -0.050434355
f 406/406/406 407/407/407 408/408/408
g wood
v 0.007304138 -0.219114369 0.541186129
vt 0.605349815 0.755223515
vn 1.000000000 0.000000000 -0.000000000
v 0.007304138 -0.204525626 0.541960245
vt 0.615775574 0.755476838
vn 1.000000000 0.000000000 -0.000000000
v 0.007304138 -0.227481488 0.996544185
vt 0.599370303 0.904235530
vn 1.000000000 0.000000000 -0.000000000
f 409/409/409 410/410/410 411/411/411
g wood
v 0.007304138 -0.219114369 0.541186129
vt 0.605349815 0.755223515
vn 1.000000000 0.000000000 0.000000000
v 0.007304138 -0.227481488 0.996544185
vt 0.599370303 0.904235530
vn 1.000000000 0.000000000 0.000000000
v 0.007304138 -0.242070231 0.995770069
vt 0.588944544 0.903982207
vn 1.000000000 0.000000000 0.000000000
f 412/412/412 413/413/413 414/414/414
g wood
v 0.073041378 -0.219114369 0.541186129
vt 0.802883758 0.605349815
vn 0.000000000 0.052987989 -0.998595150
v 0.058433103 -0.219114369 0.541186129
vt 0.792307007 0.605349815
vn 0.000000000 0.052987989 -0.998595150
v 0.058433103 -0.204525626 0.541960245
vt 0.792307007 0.615775574
vn 0.000000000 0.052987989 -0.998595150
f 415/415/415 416/416/416 417/417/417
g wood
v 0.073041378 -0.219114369 0.541186129
vt 0.802883758 0.605349815
vn 0.000000000 0.052987989 -0.998595150
v 0.058433103 -0.204525626 0.541960245
vt 0.792307007 0.615775574
vn 0.000000000 0.052987989 -0.998595150
v 0.073041378 -0.204525626 0.541960245
vt 0.802883758 0.615775574
vn 0.000000000 0.052987989 -0.998595150
f 418/418/418 419/419/419 420/420/420
g wood
v 0.073041378 -0.227481488 0.996544185
vt 0.802883758 0.599370303
vn 0.000000000 -0.052987989 0.998595150
v 0.058433103 -0.227481488 0.996544185
vt 0.792307007 0.599370303
vn 0.000000000 -0.052987989 0.998595150
v 0.058433103 -0.242070231 0.995770069
vt 0.792307007 0.588944544
vn 0.000000000 -0.052987989 0.998595150
f 421/421/421 422/422/422 423/423/423
g wood
v 0.073041378 -0.227481488 0.996544185
vt 0.802883758 0.599370303
vn 0.000000000 -0.052987989 0.998595150
v 0.058433103 -0.242070231 0.995770069
vt 0.792307007 0.588944544
vn 0.000000000 -0.052987989 0.998595150
v 0.073041378 -0.242070231 0.995770069
vt 0.802883758 0.588944544
vn 0.000000000 -0.052987989 0.998595150
f 424/424/424 425/425/425 426/426/426
g wood
v 0.073041378 -0.204525626 0.541960245
vt 0.802883758 0.755476838
vn 0.000000000 0.998727378 0.050434355
v 0.058433103 -0.204525626 0.541960245
vt 0.792307007 0.755476838
vn 0.000000000 0.998727378 0.050434355
v 0.058433103 -0.227481488 0.996544185
vt 0.792307007 0.904235530
vn 0.000000000 0.998727378 0.050434355
f 427/427/427 428/428/428 429/429/429
g wood
v 0.073041378 -0.204525626 0.541960245
vt 0.802883758 0.755476838
vn 0.000000000 0.998727378 0.050434355
v 0.058433103 -0.227481488 0.996544185
vt 0.792307007 0.904235530
vn 0.000000000 0.998727378 0.050434355
v 0.073041378 -0.227481488 0.996544185
vt 0.802883758 0.904235530
vn 0.000000000 0.998727378 0.050434355
f 430/430/430 431/431/431 432/432/432
g wood
v 0.058433103 -0.204525626 0.541960245
vt 0.615775574 0.755476838
vn -1.000000000 -0.000000000 0.000000000
v 0.058433103 -0.219114369 0.541186129
vt 0.605349815 0.755223515
vn -1.000000000 -0.000000000 0.000000000
v 0.058433103 -0.242070231 0.995770069
vt 0.588944544 0.903982207
vn -1.000000000 -0.000000000 0.000000000
f 433/433/433 434/434/434 435/435/435
g wood
v 0.058433103 -0.204525626 0.541960245
vt 0.615775574 0.755476838
vn -1.000000000 0.000000000 0.000000000
v 0.058433103 -0.242070231 0.995770069
vt 0.588944544 0.903982207
vn -1.000000000 0.000000000 0.000000000
v 0.058433103 -0.227481488 0.996544185
vt 0.599370303 0.904235530
vn -1.000000000 0.000000000 0.000000000
f 436/436/436 437/437/437 438/438/438
g wood
v 0.058433103 -0.219114369 0.541186129
vt 0.792307007 0.755223515
vn 0.000000000 -0.998727378 -0.050434355
v 0.073041378 -0.219114369 0.541186129
vt 0.802883758 0.755223515
vn 0.000000000 -0.998727378 -0.050434355
v 0.073041378 -0.242070231 0.995770069
vt 0.802883758 0.903982207
vn 0.000000000 -0.998727378 -0.050434355
f 439/439/439 440/440/440 441/441/441
g wood
v 0.058433103 -0.219114369 0.541186129
vt 0.792307007 0.755223515
vn 0.000000000 -0.998727378 -0.050434355
v 0.073041378 -0.242070231 0.995770069
vt 0.802883758 0.903982207
vn 0.000000000 -0.998727378 -0.050434355
v 0.058433103 -0.242070231 0.995770069
vt 0.792307007 0.903982207
vn 0.000000000 -0.998727378 -0.050434355
f 442/442/442 443/443/443 444/444/444
g wood
v 0.073041378 -0.219114369 0.541186129
vt 0.605349815 0.755223515
vn 1.000000000 0.000000000 -0.000000000
v 0.073041378 -0.204525626 0.541960245
vt 0.615775574 0.755476838
vn 1.000000000 0.000000000 -0.000000000
v 0.073041378 -0.227481488 0.996544185
vt 0.599370303 0.904235530
vn 1.000000000 0.000000000 -0.000000000
f 445/445/445 446/446/446 447/447/447
g wood
v 0.073041378 -0.219114369 0.541186129
vt 0.605349815 0.755223515
vn 1.000000000 0.000000000 0.000000000
v 0.073041378 -0.227481488 0.996544185
vt 0.599370303 0.904235530
vn 1.000000000 0.000000000 0.000000000
v 0.073041378 -0.242070231 0.995770069
vt 0.588944544 0.903982207
vn 1.000000000 0.000000000 0.000000000
f 448/448/448 449/449/449 450/450/450
g wood
v 0.138778619 -0.219114369 0.541186129
vt 0.850479140 0.605349815
vn 0.000000000 0.052987989 -0.998595150
v 0.124170343 -0.219114369 0.541186129
vt 0.839902389 0.605349815
vn 0.000000000 0.052987989 -0.998595150
v 0.124170343 -0.204525626 0.541960245
vt 0.839902389 0.615775574
vn 0.000000000 0.052987989 -0.998595150
f 451/451/451 452/452/452 453/453/453
g wood
v 0.138778619 -0.219114369 0.541186129
vt 0.850479140 0.605349815
vn 0.000000000 0.052987989 -0.998595150
v 0.124170343 -0.204525626 0.541960245
vt 0.839902389 0.615775574
vn 0.000000000 0.052987989 -0.998595150
v 0.138778619 -0.204525626 0.541960245
vt 0.850479140 0.615775574
vn 0.000000000 0.052987989 -0.998595150
f 454/454/454 455/455/455 456/456/456
g wood
v 0.138778619 -0.227481488 0.996544185
vt 0.850479140 0.599370303
vn 0.000000000 -0.052987989 0.998595150
v 0.124170343 -0.227481488 0.996544185
vt 0.839902389 0.599370303
vn 0.000000000 -0.052987989 0.998595150
v 0.124170343 -0.242070231 0.995770069
vt 0.839902389 0.588944544
vn 0.000000000 -0.052987989 0.998595150
f 457/457/457 458/458/458 459/459/459
g wood
v 0.138778619 -0.227481488 0.996544185
vt 0.850479140 0.599370303
vn 0.000000000 -0.052987989 0.998595150
v 0.124170343 -0.242070231 0.995770069
vt 0.839902389 0.588944544
vn 0.000000000 -0.052987989 0.998595150
v 0.138778619 -0.242070231 0.995770069
vt 0.850479140 0.588944544
vn 0.000000000 -0.052987989 0.998595150
f 460/460/460 461/461/461 462/462/462
g wood
v 0.138778619 -0.204525626 0.541960245
vt 0.850479140 0.755476838
vn 0.000000000 0.998727378 0.050434355
v 0.124170343 -0.204525626 0.541960245
vt 0.839902389 0.755476838
vn 0.000000000 0.998727378 0.050434355
v 0.124170343 -0.227481488 0.996544185
vt 0.839902389 0.904235530
vn 0.000000000 0.998727378 0.050434355
f 463/463/463 464/464/464 465/465/465
g wood
v 0.138778619 -0.204525626 0.541960245
vt 0.850479140 0.755476838
vn 0.000000000 0.998727378 0.050434355
v 0.124170343 -0.227481488 0.996544185
vt 0.839902389 0.904235530
vn 0.000000000 0.998727378 0.050434355
v 0.138778619 -0.227481488 0.996544185
vt 0.850479140 0.904235530
vn 0.000000000 0.998727378 0.050434355
f 466/466/466 467/467/467 468/468/468
g wood
v 0.124170343 -0.204525626 0.541960245
vt 0.615775574 0.755476838
vn -1.000000000 -0.000000000 0.000000000
v 0.124170343 -0.219114369 0.541186129
vt 0.605349815 0.755223515
vn -1.000000000 -0.000000000 0.000000000
v 0.124170343 -0.242070231 0.995770069
vt 0.588944544 0.903982207
vn -1.000000000 -0.000000000 0.000000000
f 469/469/469 470/470/470 471/471/471
g wood
v 0.124170343 -0.204525626 0.541960245
vt 0.615775574 0.755476838
vn -1.000000000 0.000000000 0.000000000
v 0.124170343 -0.242070231 0.995770069
vt 0.588944544 0.903982207
vn -1.000000000 0.000000000 0.000000000
v 0.124170343 -0.227481488 0.996544185
vt 0.599370303 0.904235530
vn -1.000000000 0.000000000 0.000000000
f 472/472/472 473/473/473 474/474/474
g wood
v 0.124170343 -0.219114369 0.541186129
vt 0.839902389 0.755223515
vn 0.000000000 -0.998727378 -0.050434355
v 0.138778619 -0.219114369 0.541186129
vt 0.850479140 0.755223515
vn 0.000000000 -0.998727378 -0.050434355
v 0.138778619 -0.242070231 0.995770069
vt 0.850479140 0.903982207
vn 0.000000000 -0.998727378 -0.050434355
f 475/475/475 476/476/476 477/477/477
g wood
v 0.124170343 -0.219114369 0.541186129
vt 0.839902389 0.755223515
vn 0.000000000 -0.998727378 -0.050434355
v 0.138778619 -0.242070231 0.995770069
vt 0.850479140 0.903982207
vn 0.000000000 -0.998727378 -0.050434355
v 0.124170343 -0.242070231 0.995770069
vt 0.839902389 0.903982207
vn 0.000000000 -0.998727378 -0.050434355
f 478/478/478 479/479/479 480/480/480
g wood
v 0.138778619 -0.219114369 0.541186129
vt 0.605349815 0.755223515
vn 1.000000000 0.000000000 -0.000000000
v 0.138778619 -0.204525626 0.541960245
vt 0.615775574 0.755476838
vn 1.000000000 0.000000000 -0.000000000
v 0.138778619 -0.227481488 0.996544185
vt 0.599370303 0.904235530
vn 1.000000000 0.000000000 -0.000000000
f 481/481/481 482/482/482 483/483/483
g wood
v 0.138778619 -0.219114369 0.541186129
vt 0.605349815 0.755223515
vn 1.000000000 0.000000000 0.000000000
v 0.138778619 -0.227481488 0.996544185
vt 0.599370303 0.904235530
vn 1.000000000 0.000000000 0.000000000
v 0.138778619 -0.242070231 0.995770069
vt 0.588944544 0.903982207
vn 1.000000000 0.000000000 0.000000000
f 484/484/484 485/485/485 486/486/486
g wood
v -0.219124135 -0.195124825 0.424985777
vt 0.591348726 0.717197947
vn 0.000000000 -1.000000000 0.000000000
v -0.181559998 -0.195124825 0.424985777
vt 0.618546087 0.717197947
vn 0.000000000 -1.000000000 0.000000000
v -0.181559998 -0.195124825 0.463491710
vt 0.618546087 0.729798683
vn 0.000000000 -1.000000000 0.000000000
f 487/487/487 488/488/488 489/489/489
g wood
v -0.219124135 -0.195124825 0.424985777
vt 0.591348726 0.717197947
vn 0.000000000 -1.000000000 0.000000000
v -0.181559998 -0.195124825 0.463491710
vt 0.618546087 0.729798683
vn 0.000000000 -1.000000000 0.000000000
v -0.219124135 -0.195124825 0.463491710
vt 0.591348726 0.729798683
vn 0.000000000 -1.000000000 0.000000000
f 490/490/490 491/491/491 492/492/492
g wood
v -0.219124135 0.188864136 0.463491710
vt 0.591348726 0.729798683
vn -0.000000000 1.000000000 0.000000000
v -0.181559998 0.188864136 0.463491710
vt 0.618546087 0.729798683
vn -0.000000000 1.000000000 0.000000000
v -0.181559998 0.188864136 0.424985777
vt 0.618546087 0.717197947
vn -0.000000000 1.000000000 0.000000000
f 493/493/493 494/494/494 495/495/495
g wood
v -0.219124135 0.188864136 0.463491710
vt 0.591348726 0.729798683
vn 0.000000000 1.000000000 0.000000000
v -0.181559998 0.188864136 0.424985777
vt 0.618546087 0.717197947
vn 0.000000000 1.000000000 0.000000000
v -0.219124135 0.188864136 0.424985777
vt 0.591348726 0.717197947
vn 0.000000000 1.000000000 0.000000000
f 496/496/496 497/497/497 498/498/498
g wood
v -0.219124135 -0.195124825 0.463491710
vt 0.591348726 0.622493801
vn 0.000000000 0.000000000 1.000000000
v -0.181559998 -0.195124825 0.463491710
vt 0.618546087 0.622493801
vn 0.000000000 0.000000000 1.000000000
v -0.181559998 0.188864136 0.463491710
vt 0.618546087 0.896909238
vn 0.000000000 0.000000000 1.000000000
f 499/499/499 500/500/500 501/501/501
g wood
v -0.219124135 -0.195124825 0.463491710
vt 0.591348726 0.622493801
vn 0.000000000 0.000000000 1.000000000
v -0.181559998 0.188864136 0.463491710
vt 0.618546087 0.896909238
vn 0.000000000 0.000000000 1.000000000
v -0.219124135 0.188864136 0.463491710
vt 0.591348726 0.896909238
vn 0.000000000 0.000000000 1.000000000
f 502/502/502 503/503/503 504/504/504
g wood
v -0.181559998 -0.195124825 0.463491710
vt 0.622493801 0.729798683
vn 1.000000000 0.000000000 0.000000000
v -0.181559998 -0.195124825 0.424985777
vt 0.622493801 0.717197947
vn 1.000000000 0.000000000 0.000000000
v -0.181559998 0.188864136 0.424985777
vt 0.896909238 0.717197947
vn 1.000000000 0.000000000 0.000000000
f 505/505/505 506/506/506 507/507/507
g wood
v -0.181559998 -0.195124825 0.463491710
vt 0.622493801 0.729798683
vn 1.000000000 -0.000000000 0.000000000
v -0.181559998 0.188864136 0.424985777
vt 0.896909238 0.717197947
vn 1.000000000 -0.000000000 0.000000000
v -0.181559998 0.188864136 0.463491710
vt 0.896909238 0.729798683
vn 1.000000000 -0.000000000 0.000000000
f 508/508/508 509/509/509 510/510/510
g wood
v -0.181559998 -0.195124825 0.424985777
vt 0.618546087 0.622493801
vn 0.000000000 0.000000000 -1.000000000
v -0.219124135 -0.195124825 0.424985777
vt 0.591348726 0.622493801
vn 0.000000000 0.000000000 -1.000000000
v -0.219124135 0.188864136 0.424985777
vt 0.591348726 0.896909238
vn 0.000000000 0.000000000 -1.000000000
f 511/511/511 512/512/512 513/513/513
g wood
v -0.181559998 -0.195124825 0.424985777
vt 0.618546087 0.622493801
vn 0.000000000 0.000000000 -1.000000000
v -0.219124135 0.188864136 0.424985777
vt 0.591348726 0.896909238
vn 0.000000000 0.000000000 -1.000000000
v -0.181559998 0.188864136 0.424985777
vt 0.618546087 0.896909238
vn 0.000000000 0.000000000 -1.000000000
f 514/514/514 515/515/515 516/516/516
g wood
v -0.219124135 -0.195124825 0.424985777
vt 0.622493801 0.717197947
vn -1.000000000 0.000000000 0.000000000
v -0.219124135 -0.195124825 0.463491710
vt 0.622493801 0.729798683
vn -1.000000000 0.000000000 0.000000000
v -0.219124135 0.188864136 0.463491710
vt 0.896909238 0.729798683
vn -1.000000000 0.000000000 0.000000000
f 517/517/517 518/518/518 519/519/519
g wood
v -0.219124135 -0.195124825 0.424985777
vt 0.622493801 0.717197947
vn -1.000000000 0.000000000 0.000000000
v -0.219124135 0.188864136 0.463491710
vt 0.896909238 0.729798683
vn -1.000000000 0.000000000 0.000000000
v -0.219124135 0.188864136 0.424985777
vt 0.896909238 0.717197947
vn -1.000000000 0.000000000 0.000000000
f 520/520/520 521/521/521 522/522/522
g wood
v 0.181559998 -0.195124825 0.424985777
vt 0.881453913 0.717197947
vn 0.000000000 -1.000000000 0.000000000
v 0.219124135 -0.195124825 0.424985777
vt 0.908651274 0.717197947
vn 0.000000000 -1.000000000 0.000000000
v 0.219124135 -0.195124825 0.463491710
vt 0.908651274 0.729798683
vn 0.000000000 -1.000000000 0.000000000
f 523/523/523 524/524/524 525/525/525
g wood
v 0.181559998 -0.195124825 0.424985777
vt 0.881453913 0.717197947
vn 0.000000000 -1.000000000 0.000000000
v 0.219124135 -0.195124825 0.463491710
vt 0.908651274 0.729798683
vn 0.000000000 -1.000000000 0.000000000
v 0.181559998 -0.195124825 0.463491710
vt 0.881453913 0.729798683
vn 0.000000000 -1.000000000 0.000000000
f 526/526/526 527/527/527 528/528/528
g wood
v 0.181559998 0.188864136 0.463491710
vt 0.881453913 0.729798683
vn -0.000000000 1.000000000 0.000000000
v 0.219124135 0.188864136 0.463491710
vt 0.908651274 0.729798683
vn -0.000000000 1.000000000 0.000000000
v 0.219124135 0.188864136 0.424985777
vt 0.908651274 0.717197947
vn -0.000000000 1.000000000 0.000000000
f 529/529/529 530/530/530 531/531/531
g wood
v 0.181559998 0.188864136 0.463491710
vt 0.881453913 0.729798683
vn 0.000000000 1.000000000 0.000000000
v 0.219124135 0.188864136 0.424985777
vt 0.908651274 0.717197947
vn 0.000000000 1.000000000 0.000000000
v 0.181559998 0.188864136 0.424985777
vt 0.881453913 0.717197947
vn 0.000000000 1.000000000 0.000000000
f 532/532/532 533/533/533 534/534/534
g wood
v 0.181559998 -0.195124825 0.463491710
vt 0.881453913 0.622493801
vn 0.000000000 0.000000000 1.000000000
v 0.219124135 -0.195124825 0.463491710
vt 0.908651274 0.622493801
vn 0.000000000 0.000000000 1.000000000
v 0.219124135 0.188864136 0.463491710
vt 0.908651274 0.896909238
vn 0.000000000 0.000000000 1.000000000
f 535/535/535 536/536/536 537/537/537
g wood
v 0.181559998 -0.195124825 0.463491710
vt 0.881453913 0.622493801
vn 0.000000000 0.000000000 1.000000000
v 0.219124135 0.188864136 0.463491710
vt 0.908651274 0.896909238
vn 0.000000000 0.000000000 1.000000000
v 0.181559998 0.188864136 0.463491710
vt 0.881453913 0.896909238
vn 0.000000000 0.000000000 1.000000000
f 538/538/538 539/539/539 540/540/540
g wood
v 0.219124135 -0.195124825 0.463491710
vt 0.622493801 0.729798683
vn 1.000000000 0.000000000 0.000000000
v 0.219124135 -0.195124825 0.424985777
vt 0.622493801 0.717197947
vn 1.000000000 0.000000000 0.000000000
v 0.219124135 0.188864136 0.424985777
vt 0.896909238 0.717197947
vn 1.000000000 0.000000000 0.000000000
f 541/541/541 542/542/542 543/543/543
g wood
v 0.219124135 -0.195124825 0.463491710
vt 0.622493801 0.729798683
vn 1.000000000 -0.000000000 0.000000000
v 0.219124135 0.188864136 0.424985777
vt 0.896909238 0.717197947
vn 1.000000000 -0.000000000 0.000000000
v 0.219124135 0.188864136 0.463491710
vt 0.896909238 0.729798683
vn 1.000000000 -0.000000000 0.000000000
f 544/544/544 545/545/545 546/546/546
g wood
v 0.219124135 -0.195124825 0.424985777
vt 0.908651274 0.622493801
vn 0.000000000 0.000000000 -1.000000000
v 0.181559998 -0.195124825 0.424985777
vt 0.881453913 0.622493801
vn 0.000000000 0.000000000 -1.000000000
v 0.181559998 0.188864136 0.424985777
vt 0.881453913 0.896909238
vn 0.000000000 0.000000000 -1.000000000
f 547/547/547 548/548/548 549/549/549
g wood
v 0.219124135 -0.195124825 0.424985777
vt 0.908651274 0.622493801
vn 0.000000000 0.000000000 -1.000000000
v 0.181559998 0.188864136 0.424985777
vt 0.881453913 0.896909238
vn 0.000000000 0.000000000 -1.000000000
v 0.219124135 0.188864136 0.424985777
vt 0.908651274 0.896909238
vn 0.000000000 0.000000000 -1.000000000
f 550/550/550 551/551/551 552/552/552
g wood
v 0.181559998 -0.195124825 0.424985777
vt 0.622493801 0.717197947
vn -1.000000000 0.000000000 0.000000000
v 0.181559998 -0.195124825 0.463491710
vt 0.622493801 0.729798683
vn -1.000000000 0.000000000 0.000000000
v 0.181559998 0.188864136 0.463491710
vt 0.896909238 0.729798683
vn -1.000000000 0.000000000 0.000000000
f 553/553/553 554/554/554 555/555/555
g wood
v 0.181559998 -0.195124825 0.424985777
vt 0.622493801 0.717197947
vn -1.000000000 0.000000000 0.000000000
v 0.181559998 0.188864136 0.463491710
vt 0.896909238 0.729798683
vn -1.000000000 0.000000000 0.000000000
v 0.181559998 0.188864136 0.424985777
vt 0.896909238 0.717197947
vn -1.000000000 0.000000000 0.000000000
f 556/556/556 557/557/557 558/558/558
g wood
v -0.202428963 0.206602756 0.424985777
vt 0.909586038 0.717197947
vn -1.000000000 0.000000000 0.000000000
v -0.202428963 0.169038619 0.424985777
vt 0.882741050 0.717197947
vn -1.000000000 0.000000000 0.000000000
v -0.202428963 0.169038619 0.463491710
vt 0.882741050 0.729798683
vn -1.000000000 0.000000000 0.000000000
f 559/559/559 560/560/560 561/561/561
g wood
v -0.202428963 0.206602756 0.424985777
vt 0.909586038 0.717197947
vn -1.000000000 0.000000000 0.000000000
v -0.202428963 0.169038619 0.463491710
vt 0.882741050 0.729798683
vn -1.000000000 0.000000000 0.000000000
v -0.202428963 0.206602756 0.463491710
vt 0.909586038 0.729798683
vn -1.000000000 0.000000000 0.000000000
f 562/562/562 563/563/563 564/564/564
g wood
v 0.202428963 0.206602756 0.463491710
vt 0.909586038 0.729798683
vn 1.000000000 0.000000000 0.000000000
v 0.202428963 0.169038619 0.463491710
vt 0.882741050 0.729798683
vn 1.000000000 0.000000000 0.000000000
v 0.202428963 0.169038619 0.424985777
vt 0.882741050 0.717197947
vn 1.000000000 0.000000000 0.000000000
f 565/565/565 566/566/566 567/567/567
g wood
v 0.202428963 0.206602756 0.463491710
vt 0.909586038 0.729798683
vn 1.000000000 0.000000000 0.000000000
v 0.202428963 0.169038619 0.424985777
vt 0.882741050 0.717197947
vn 1.000000000 0.000000000 0.000000000
v 0.202428963 0.206602756 0.424985777
vt 0.909586038 0.717197947
vn 1.000000000 0.000000000 0.000000000
f 568/568/568 569/569/569 570/570/570
g wood
v -0.202428963 0.206602756 0.463491710
vt 0.603436442 0.909586038
vn 0.000000000 0.000000000 1.000000000
v -0.202428963 0.169038619 0.463491710
vt 0.603436442 0.882741050
vn 0.000000000 0.000000000 1.000000000
v 0.202428963 0.169038619 0.463491710
vt 0.896563558 0.882741050
vn 0.000000000 0.000000000 1.000000000
f 571/571/571 572/572/572 573/573/573
g wood
v -0.202428963 0.206602756 0.463491710
vt 0.603436442 0.909586038
vn -0.000000000 0.000000000 1.000000000
v 0.202428963 0.169038619 0.463491710
vt 0.896563558 0.882741050
vn -0.000000000 0.000000000 1.000000000
v 0.202428963 0.206602756 0.463491710
vt 0.896563558 0.909586038
vn -0.000000000 0.000000000 1.000000000
f 574/574/574 575/575/575 576/576/576
g wood
v -0.202428963 0.169038619 0.463491710
vt 0.603436442 0.729798683
vn 0.000000000 -1.000000000 0.000000000
v -0.202428963 0.169038619 0.424985777
vt 0.603436442 0.717197947
vn 0.000000000 -1.000000000 0.000000000
v 0.202428963 0.169038619 0.424985777
vt 0.896563558 0.717197947
vn 0.000000000 -1.000000000 0.000000000
f 577/577/577 578/578/578 579/579/579
g wood
v -0.202428963 0.169038619 0.463491710
vt 0.603436442 0.729798683
vn 0.000000000 -1.000000000 0.000000000
v 0.202428963 0.169038619 0.424985777
vt 0.896563558 0.717197947
vn 0.000000000 -1.000000000 0.000000000
v 0.202428963 0.169038619 0.463491710
vt 0.896563558 0.729798683
vn 0.000000000 -1.000000000 0.000000000
f 580/580/580 581/581/581 582/582/582
g wood
v -0.202428963 0.169038619 0.424985777
vt 0.603436442 0.882741050
vn 0.000000000 0.000000000 -1.000000000
v -0.202428963 0.206602756 0.424985777
vt 0.603436442 0.909586038
vn 0.000000000 0.000000000 -1.000000000
v 0.202428963 0.206602756 0.424985777
vt 0.896563558 0.909586038
vn 0.000000000 0.000000000 -1.000000000
f 583/583/583 584/584/584 585/585/585
g wood
v -0.202428963 0.169038619 0.424985777
vt 0.603436442 0.882741050
vn 0.000000000 0.000000000 -1.000000000
v 0.202428963 0.206602756 0.424985777
vt 0.896563558 0.909586038
vn 0.000000000 0.000000000 -1.000000000
v 0.202428963 0.169038619 0.424985777
vt 0.896563558 0.882741050
vn 0.000000000 0.000000000 -1.000000000
f 586/586/586 587/587/587 588/588/588
g wood
v -0.202428963 0.206602756 0.424985777
vt 0.603436442 0.717197947
vn 0.000000000 1.000000000 0.000000000
v -0.202428963 0.206602756 0.463491710
vt 0.603436442 0.729798683
vn 0.000000000 1.000000000 0.000000000
v 0.202428963 0.206602756 0.463491710
vt 0.896563558 0.729798683
vn 0.000000000 1.000000000 0.000000000
f 589/589/589 590/590/590 591/591/591
g wood
v -0.202428963 0.206602756 0.424985777
vt 0.603436442 0.717197947
vn 0.000000000 1.000000000 0.000000000
v 0.202428963 0.206602756 0.463491710
vt 0.896563558 0.729798683
vn 0.000000000 1.000000000 0.000000000
v 0.202428963 0.206602756 0.424985777
vt 0.896563558 0.717197947
vn 0.000000000 1.000000000 0.000000000
f 592/592/592 593/593/593 594/594/594
