mtllib pz_chair_seating_indoor_02_blue_rattan_fidelity_r1.mtl
o pz_chair_seating_indoor_02_blue_rattan
usemtl UV_Base
g pz_chair_seating_indoor_02_blue_rattan__lower_body__frame
v -0.40027000 -0.42656250 0.33810000
v -0.40027000 -0.42656250 0.07350000
v 0.39277000 -0.42656250 0.07350000
vt 0.276240458 0.230468750
vt 0.276240458 0.019531250
vt 0.473759542 0.019531250
vn 0.00000000 -1.00000000 0.00000000
f 1/1/1 2/2/1 3/3/1
g pz_chair_seating_indoor_02_blue_rattan__lower_body__frame
v 0.39277000 -0.42656250 0.07350000
v 0.39277000 -0.42656250 0.33810000
v -0.40027000 -0.42656250 0.33810000
vt 0.473759542 0.019531250
vt 0.473759542 0.230468750
vt 0.276240458 0.230468750
vn 0.00000000 -1.00000000 0.00000000
f 4/4/2 5/5/2 6/6/2
g pz_chair_seating_indoor_02_blue_rattan__lower_body__frame
v 0.39277000 -0.42656250 0.33810000
v 0.39277000 -0.42656250 0.07350000
v 0.41970750 -0.39962500 0.07350000
vt 0.269531250 0.230468750
vt 0.269531250 0.019531250
vt 0.276353291 0.019531250
vn 0.70710678 -0.70710678 0.00000000
f 7/7/3 8/8/3 9/9/3
g pz_chair_seating_indoor_02_blue_rattan__lower_body__frame
v 0.41970750 -0.39962500 0.07350000
v 0.41970750 -0.39962500 0.33810000
v 0.39277000 -0.42656250 0.33810000
vt 0.276353291 0.019531250
vt 0.276353291 0.230468750
vt 0.269531250 0.230468750
vn 0.70710678 -0.70710678 0.00000000
f 10/10/4 11/11/4 12/12/4
g pz_chair_seating_indoor_02_blue_rattan__lower_body__frame
v 0.41970750 -0.39962500 0.33810000
v 0.41970750 -0.39962500 0.07350000
v 0.41970750 0.37940750 0.07350000
vt 0.276353291 0.230468750
vt 0.276353291 0.019531250
vt 0.473646709 0.019531250
vn 1.00000000 0.00000000 0.00000000
f 13/13/5 14/14/5 15/15/5
g pz_chair_seating_indoor_02_blue_rattan__lower_body__frame
v 0.41970750 0.37940750 0.07350000
v 0.41970750 0.37940750 0.33810000
v 0.41970750 -0.39962500 0.33810000
vt 0.473646709 0.019531250
vt 0.473646709 0.230468750
vt 0.276353291 0.230468750
vn 1.00000000 0.00000000 -0.00000000
f 16/16/6 17/17/6 18/18/6
g pz_chair_seating_indoor_02_blue_rattan__lower_body__frame
v 0.41970750 0.37940750 0.33810000
v 0.41970750 0.37940750 0.07350000
v 0.39277000 0.40634500 0.07350000
vt 0.473646709 0.230468750
vt 0.473646709 0.019531250
vt 0.480468750 0.019531250
vn 0.70710678 0.70710678 0.00000000
f 19/19/7 20/20/7 21/21/7
g pz_chair_seating_indoor_02_blue_rattan__lower_body__frame
v 0.39277000 0.40634500 0.07350000
v 0.39277000 0.40634500 0.33810000
v 0.41970750 0.37940750 0.33810000
vt 0.480468750 0.019531250
vt 0.480468750 0.230468750
vt 0.473646709 0.230468750
vn 0.70710678 0.70710678 -0.00000000
f 22/22/8 23/23/8 24/24/8
g pz_chair_seating_indoor_02_blue_rattan__lower_body__frame
v 0.39277000 0.40634500 0.33810000
v 0.39277000 0.40634500 0.07350000
v -0.40027000 0.40634500 0.07350000
vt 0.473759542 0.230468750
vt 0.473759542 0.019531250
vt 0.276240458 0.019531250
vn 0.00000000 1.00000000 0.00000000
f 25/25/9 26/26/9 27/27/9
g pz_chair_seating_indoor_02_blue_rattan__lower_body__frame
v -0.40027000 0.40634500 0.07350000
v -0.40027000 0.40634500 0.33810000
v 0.39277000 0.40634500 0.33810000
vt 0.276240458 0.019531250
vt 0.276240458 0.230468750
vt 0.473759542 0.230468750
vn 0.00000000 1.00000000 0.00000000
f 28/28/10 29/29/10 30/30/10
g pz_chair_seating_indoor_02_blue_rattan__lower_body__frame
v -0.40027000 0.40634500 0.33810000
v -0.40027000 0.40634500 0.07350000
v -0.42720750 0.37940750 0.07350000
vt 0.480468750 0.230468750
vt 0.480468750 0.019531250
vt 0.473646709 0.019531250
vn -0.70710678 0.70710678 0.00000000
f 31/31/11 32/32/11 33/33/11
g pz_chair_seating_indoor_02_blue_rattan__lower_body__frame
v -0.42720750 0.37940750 0.07350000
v -0.42720750 0.37940750 0.33810000
v -0.40027000 0.40634500 0.33810000
vt 0.473646709 0.019531250
vt 0.473646709 0.230468750
vt 0.480468750 0.230468750
vn -0.70710678 0.70710678 0.00000000
f 34/34/12 35/35/12 36/36/12
g pz_chair_seating_indoor_02_blue_rattan__lower_body__frame
v -0.42720750 0.37940750 0.33810000
v -0.42720750 0.37940750 0.07350000
v -0.42720750 -0.39962500 0.07350000
vt 0.473646709 0.230468750
vt 0.473646709 0.019531250
vt 0.276353291 0.019531250
vn -1.00000000 0.00000000 -0.00000000
f 37/37/13 38/38/13 39/39/13
g pz_chair_seating_indoor_02_blue_rattan__lower_body__frame
v -0.42720750 -0.39962500 0.07350000
v -0.42720750 -0.39962500 0.33810000
v -0.42720750 0.37940750 0.33810000
vt 0.276353291 0.019531250
vt 0.276353291 0.230468750
vt 0.473646709 0.230468750
vn -1.00000000 0.00000000 0.00000000
f 40/40/14 41/41/14 42/42/14
g pz_chair_seating_indoor_02_blue_rattan__lower_body__frame
v -0.42720750 -0.39962500 0.33810000
v -0.42720750 -0.39962500 0.07350000
v -0.40027000 -0.42656250 0.07350000
vt 0.276353291 0.230468750
vt 0.276353291 0.019531250
vt 0.269531250 0.019531250
vn -0.70710678 -0.70710678 -0.00000000
f 43/43/15 44/44/15 45/45/15
g pz_chair_seating_indoor_02_blue_rattan__lower_body__frame
v -0.40027000 -0.42656250 0.07350000
v -0.40027000 -0.42656250 0.33810000
v -0.42720750 -0.39962500 0.33810000
vt 0.269531250 0.019531250
vt 0.269531250 0.230468750
vt 0.276353291 0.230468750
vn -0.70710678 -0.70710678 0.00000000
f 46/46/16 47/47/16 48/48/16
g pz_chair_seating_indoor_02_blue_rattan__rear_body_bridge__frame
v -0.42720750 -0.39423750 0.07350000
v -0.42720750 -0.39423750 0.44100000
v 0.41970750 -0.39423750 0.44100000
vt 0.269531250 0.019531250
vt 0.269531250 0.230468750
vt 0.480468750 0.230468750
vn 0.00000000 1.00000000 0.00000000
f 49/49/17 50/50/17 51/51/17
g pz_chair_seating_indoor_02_blue_rattan__rear_body_bridge__frame
v 0.41970750 -0.39423750 0.44100000
v 0.41970750 -0.39423750 0.07350000
v -0.42720750 -0.39423750 0.07350000
vt 0.480468750 0.230468750
vt 0.480468750 0.019531250
vt 0.269531250 0.019531250
vn 0.00000000 1.00000000 0.00000000
f 52/52/18 53/53/18 54/54/18
g pz_chair_seating_indoor_02_blue_rattan__rear_body_bridge__frame
v -0.42720750 -0.44811250 0.44100000
v -0.42720750 -0.44811250 0.07350000
v 0.41970750 -0.44811250 0.07350000
vt 0.269531250 0.230468750
vt 0.269531250 0.019531250
vt 0.480468750 0.019531250
vn 0.00000000 -1.00000000 0.00000000
f 55/55/19 56/56/19 57/57/19
g pz_chair_seating_indoor_02_blue_rattan__rear_body_bridge__frame
v 0.41970750 -0.44811250 0.07350000
v 0.41970750 -0.44811250 0.44100000
v -0.42720750 -0.44811250 0.44100000
vt 0.480468750 0.019531250
vt 0.480468750 0.230468750
vt 0.269531250 0.230468750
vn 0.00000000 -1.00000000 0.00000000
f 58/58/20 59/59/20 60/60/20
g pz_chair_seating_indoor_02_blue_rattan__rear_body_bridge__frame
v 0.41970750 -0.44811250 0.07350000
v 0.41970750 -0.39423750 0.07350000
v 0.41970750 -0.39423750 0.44100000
vt 0.269531250 0.019531250
vt 0.480468750 0.019531250
vt 0.480468750 0.230468750
vn 1.00000000 0.00000000 0.00000000
f 61/61/21 62/62/21 63/63/21
g pz_chair_seating_indoor_02_blue_rattan__rear_body_bridge__frame
v 0.41970750 -0.39423750 0.44100000
v 0.41970750 -0.44811250 0.44100000
v 0.41970750 -0.44811250 0.07350000
vt 0.480468750 0.230468750
vt 0.269531250 0.230468750
vt 0.269531250 0.019531250
vn 1.00000000 0.00000000 0.00000000
f 64/64/22 65/65/22 66/66/22
g pz_chair_seating_indoor_02_blue_rattan__rear_body_bridge__frame
v 0.41970750 -0.44811250 0.44100000
v 0.41970750 -0.39423750 0.44100000
v -0.42720750 -0.39423750 0.44100000
vt 0.730468750 0.019531250
vt 0.730468750 0.230468750
vt 0.519531250 0.230468750
vn 0.00000000 -0.00000000 1.00000000
f 67/67/23 68/68/23 69/69/23
g pz_chair_seating_indoor_02_blue_rattan__rear_body_bridge__frame
v -0.42720750 -0.39423750 0.44100000
v -0.42720750 -0.44811250 0.44100000
v 0.41970750 -0.44811250 0.44100000
vt 0.519531250 0.230468750
vt 0.519531250 0.019531250
vt 0.730468750 0.019531250
vn 0.00000000 0.00000000 1.00000000
f 70/70/24 71/71/24 72/72/24
g pz_chair_seating_indoor_02_blue_rattan__rear_body_bridge__frame
v -0.42720750 -0.44811250 0.44100000
v -0.42720750 -0.39423750 0.44100000
v -0.42720750 -0.39423750 0.07350000
vt 0.269531250 0.230468750
vt 0.480468750 0.230468750
vt 0.480468750 0.019531250
vn -1.00000000 0.00000000 0.00000000
f 73/73/25 74/74/25 75/75/25
g pz_chair_seating_indoor_02_blue_rattan__rear_body_bridge__frame
v -0.42720750 -0.39423750 0.07350000
v -0.42720750 -0.44811250 0.07350000
v -0.42720750 -0.44811250 0.44100000
vt 0.480468750 0.019531250
vt 0.269531250 0.019531250
vt 0.269531250 0.230468750
vn -1.00000000 0.00000000 0.00000000
f 76/76/26 77/77/26 78/78/26
g pz_chair_seating_indoor_02_blue_rattan__seat_0__seat
v -0.28319962 -0.22527203 0.42630000
v -0.24642994 -0.26204172 0.42630000
v 0.23892994 -0.26204172 0.42630000
vt 0.022167971 0.783872428
vt 0.035698498 0.772167968
vt 0.214301502 0.772167968
vn 0.00000000 0.00000000 1.00000000
f 79/79/27 80/80/27 81/81/27
g pz_chair_seating_indoor_02_blue_rattan__seat_0__seat
v -0.28319962 -0.22527203 0.42630000
v 0.23892994 -0.26204172 0.42630000
v 0.27569963 -0.22527203 0.42630000
vt 0.022167971 0.783872428
vt 0.214301502 0.772167968
vt 0.227832033 0.783872428
vn -0.00000000 0.00000000 1.00000000
f 82/82/28 83/83/28 84/84/28
g pz_chair_seating_indoor_02_blue_rattan__seat_0__seat
v -0.28319962 -0.22527203 0.42630000
v 0.27569963 -0.22527203 0.42630000
v 0.27569963 0.34728453 0.42630000
vt 0.022167971 0.783872428
vt 0.227832033 0.783872428
vt 0.227832033 0.966127572
vn 0.00000000 0.00000000 1.00000000
f 85/85/29 86/86/29 87/87/29
g pz_chair_seating_indoor_02_blue_rattan__seat_0__seat
v -0.28319962 -0.22527203 0.42630000
v 0.27569963 0.34728453 0.42630000
v 0.23892994 0.38405422 0.42630000
vt 0.022167971 0.783872428
vt 0.227832033 0.966127572
vt 0.214301502 0.977832032
vn 0.00000000 0.00000000 1.00000000
f 88/88/30 89/89/30 90/90/30
g pz_chair_seating_indoor_02_blue_rattan__seat_0__seat
v -0.28319962 -0.22527203 0.42630000
v 0.23892994 0.38405422 0.42630000
v -0.24642994 0.38405422 0.42630000
vt 0.022167971 0.783872428
vt 0.214301502 0.977832032
vt 0.035698498 0.977832032
vn 0.00000000 0.00000000 1.00000000
f 91/91/31 92/92/31 93/93/31
g pz_chair_seating_indoor_02_blue_rattan__seat_0__seat
v -0.24642994 0.38405422 0.42630000
v -0.28319962 0.34728453 0.42630000
v -0.28319962 -0.22527203 0.42630000
vt 0.035698498 0.977832032
vt 0.022167971 0.966127572
vt 0.022167971 0.783872428
vn 0.00000000 0.00000000 1.00000000
f 94/94/32 95/95/32 96/96/32
g pz_chair_seating_indoor_02_blue_rattan__seat_0__seat
v -0.24642994 -0.26204172 0.42630000
v -0.25265250 -0.27032500 0.32830000
v 0.24515250 -0.27032500 0.32830000
vt 0.285698498 0.980468750
vt 0.283408717 0.769531250
vt 0.466591283 0.769531250
vn 0.00000000 -0.99644693 0.08422296
f 97/97/33 98/98/33 99/99/33
g pz_chair_seating_indoor_02_blue_rattan__seat_0__seat
v 0.24515250 -0.27032500 0.32830000
v 0.23892994 -0.26204172 0.42630000
v -0.24642994 -0.26204172 0.42630000
vt 0.466591283 0.769531250
vt 0.464301502 0.980468750
vt 0.285698498 0.980468750
vn 0.00000000 -0.99644693 0.08422296
f 100/100/34 101/101/34 102/102/34
g pz_chair_seating_indoor_02_blue_rattan__seat_0__seat
v 0.23892994 -0.26204172 0.42630000
v 0.24515250 -0.27032500 0.32830000
v 0.28286500 -0.23261250 0.32830000
vt 0.522167968 0.980468750
vt 0.519531250 0.769531250
vt 0.531535823 0.769531250
vn 0.70326521 -0.70326521 0.10409648
f 103/103/35 104/104/35 105/105/35
g pz_chair_seating_indoor_02_blue_rattan__seat_0__seat
v 0.28286500 -0.23261250 0.32830000
v 0.27569963 -0.22527203 0.42630000
v 0.23892994 -0.26204172 0.42630000
vt 0.480468750 0.769531250
vt 0.477832033 0.980468750
vt 0.464301502 0.980468750
vn 0.70326521 -0.70326521 0.10409648
f 106/106/36 107/107/36 108/108/36
g pz_chair_seating_indoor_02_blue_rattan__seat_0__seat
v 0.27569963 -0.22527203 0.42630000
v 0.28286500 -0.23261250 0.32830000
v 0.28286500 0.35462500 0.32830000
vt 0.533872428 0.980468750
vt 0.531535823 0.769531250
vt 0.718464177 0.769531250
vn 0.99733769 0.00000000 0.07292141
f 109/109/37 110/110/37 111/111/37
g pz_chair_seating_indoor_02_blue_rattan__seat_0__seat
v 0.28286500 0.35462500 0.32830000
v 0.27569963 0.34728453 0.42630000
v 0.27569963 -0.22527203 0.42630000
vt 0.718464177 0.769531250
vt 0.716127572 0.980468750
vt 0.533872428 0.980468750
vn 0.99733769 0.00000000 0.07292141
f 112/112/38 113/113/38 114/114/38
g pz_chair_seating_indoor_02_blue_rattan__seat_0__seat
v 0.27569963 0.34728453 0.42630000
v 0.28286500 0.35462500 0.32830000
v 0.24515250 0.39233750 0.32830000
vt 0.716127572 0.980468750
vt 0.718464177 0.769531250
vt 0.730468750 0.769531250
vn 0.70326521 0.70326521 0.10409648
f 115/115/39 116/116/39 117/117/39
g pz_chair_seating_indoor_02_blue_rattan__seat_0__seat
v 0.24515250 0.39233750 0.32830000
v 0.23892994 0.38405422 0.42630000
v 0.27569963 0.34728453 0.42630000
vt 0.730468750 0.769531250
vt 0.727832032 0.980468750
vt 0.716127572 0.980468750
vn 0.70326521 0.70326521 0.10409648
f 118/118/40 119/119/40 120/120/40
g pz_chair_seating_indoor_02_blue_rattan__seat_0__seat
v 0.23892994 0.38405422 0.42630000
v 0.24515250 0.39233750 0.32830000
v -0.25265250 0.39233750 0.32830000
vt 0.464301502 0.980468750
vt 0.466591283 0.769531250
vt 0.283408717 0.769531250
vn 0.00000000 0.99644693 0.08422296
f 121/121/41 122/122/41 123/123/41
g pz_chair_seating_indoor_02_blue_rattan__seat_0__seat
v -0.25265250 0.39233750 0.32830000
v -0.24642994 0.38405422 0.42630000
v 0.23892994 0.38405422 0.42630000
vt 0.283408717 0.769531250
vt 0.285698498 0.980468750
vt 0.464301502 0.980468750
vn 0.00000000 0.99644693 0.08422296
f 124/124/42 125/125/42 126/126/42
g pz_chair_seating_indoor_02_blue_rattan__seat_0__seat
v -0.24642994 0.38405422 0.42630000
v -0.25265250 0.39233750 0.32830000
v -0.29036500 0.35462500 0.32830000
vt 0.727832032 0.980468750
vt 0.730468750 0.769531250
vt 0.718464177 0.769531250
vn -0.70326521 0.70326521 0.10409648
f 127/127/43 128/128/43 129/129/43
g pz_chair_seating_indoor_02_blue_rattan__seat_0__seat
v -0.29036500 0.35462500 0.32830000
v -0.28319962 0.34728453 0.42630000
v -0.24642994 0.38405422 0.42630000
vt 0.718464177 0.769531250
vt 0.716127572 0.980468750
vt 0.727832032 0.980468750
vn -0.70326521 0.70326521 0.10409648
f 130/130/44 131/131/44 132/132/44
g pz_chair_seating_indoor_02_blue_rattan__seat_0__seat
v -0.28319962 0.34728453 0.42630000
v -0.29036500 0.35462500 0.32830000
v -0.29036500 -0.23261250 0.32830000
vt 0.716127572 0.980468750
vt 0.718464177 0.769531250
vt 0.531535823 0.769531250
vn -0.99733769 0.00000000 0.07292141
f 133/133/45 134/134/45 135/135/45
g pz_chair_seating_indoor_02_blue_rattan__seat_0__seat
v -0.29036500 -0.23261250 0.32830000
v -0.28319962 -0.22527203 0.42630000
v -0.28319962 0.34728453 0.42630000
vt 0.531535823 0.769531250
vt 0.533872428 0.980468750
vt 0.716127572 0.980468750
vn -0.99733769 0.00000000 0.07292141
f 136/136/46 137/137/46 138/138/46
g pz_chair_seating_indoor_02_blue_rattan__seat_0__seat
v -0.28319962 -0.22527203 0.42630000
v -0.29036500 -0.23261250 0.32830000
v -0.25265250 -0.27032500 0.32830000
vt 0.533872428 0.980468750
vt 0.531535823 0.769531250
vt 0.519531250 0.769531250
vn -0.70326521 -0.70326521 0.10409648
f 139/139/47 140/140/47 141/141/47
g pz_chair_seating_indoor_02_blue_rattan__seat_0__seat
v -0.25265250 -0.27032500 0.32830000
v -0.24642994 -0.26204172 0.42630000
v -0.28319962 -0.22527203 0.42630000
vt 0.519531250 0.769531250
vt 0.522167968 0.980468750
vt 0.533872428 0.980468750
vn -0.70326521 -0.70326521 0.10409648
f 142/142/48 143/143/48 144/144/48
g pz_chair_seating_indoor_02_blue_rattan__rear_shell__frame
v -0.42397500 -0.37040320 0.37926000
v -0.42397500 -0.39231955 0.60074000
v -0.38949500 -0.39542275 0.63210000
vt 0.269531250 0.042807112
vt 0.269531250 0.207192888
vt 0.278185096 0.230468750
vn 0.00000000 0.99513971 0.09847314
f 145/145/49 146/146/49 147/147/49
g pz_chair_seating_indoor_02_blue_rattan__rear_shell__frame
v -0.42397500 -0.37040320 0.37926000
v -0.38949500 -0.39542275 0.63210000
v 0.38199500 -0.39542275 0.63210000
vt 0.269531250 0.042807112
vt 0.278185096 0.230468750
vt 0.471814904 0.230468750
vn 0.00000000 0.99513971 0.09847314
f 148/148/50 149/149/50 150/150/50
g pz_chair_seating_indoor_02_blue_rattan__rear_shell__frame
v -0.42397500 -0.37040320 0.37926000
v 0.38199500 -0.39542275 0.63210000
v 0.41647500 -0.39231955 0.60074000
vt 0.269531250 0.042807112
vt 0.471814904 0.230468750
vt 0.480468750 0.207192888
vn -0.00000000 0.99513971 0.09847314
f 151/151/51 152/152/51 153/153/51
g pz_chair_seating_indoor_02_blue_rattan__rear_shell__frame
v -0.42397500 -0.37040320 0.37926000
v 0.41647500 -0.39231955 0.60074000
v 0.41647500 -0.37040320 0.37926000
vt 0.269531250 0.042807112
vt 0.480468750 0.207192888
vt 0.480468750 0.042807112
vn -0.00000000 0.99513971 0.09847314
f 154/154/52 155/155/52 156/156/52
g pz_chair_seating_indoor_02_blue_rattan__rear_shell__frame
v -0.42397500 -0.37040320 0.37926000
v 0.41647500 -0.37040320 0.37926000
v 0.38199500 -0.36730000 0.34790000
vt 0.269531250 0.042807112
vt 0.480468750 0.042807112
vt 0.471814904 0.019531250
vn -0.00000000 0.99513971 0.09847314
f 157/157/53 158/158/53 159/159/53
g pz_chair_seating_indoor_02_blue_rattan__rear_shell__frame
v 0.38199500 -0.36730000 0.34790000
v -0.38949500 -0.36730000 0.34790000
v -0.42397500 -0.37040320 0.37926000
vt 0.471814904 0.019531250
vt 0.278185096 0.019531250
vt 0.269531250 0.042807112
vn 0.00000000 0.99513971 0.09847314
f 160/160/54 161/161/54 162/162/54
g pz_chair_seating_indoor_02_blue_rattan__rear_shell__frame
v -0.42397500 -0.47313205 0.60074000
v -0.42397500 -0.45121570 0.37926000
v -0.38949500 -0.44811250 0.34790000
vt 0.269531250 0.207192888
vt 0.269531250 0.042807112
vt 0.278185096 0.019531250
vn -0.00000000 -0.99513971 -0.09847314
f 163/163/55 164/164/55 165/165/55
g pz_chair_seating_indoor_02_blue_rattan__rear_shell__frame
v -0.42397500 -0.47313205 0.60074000
v -0.38949500 -0.44811250 0.34790000
v 0.38199500 -0.44811250 0.34790000
vt 0.269531250 0.207192888
vt 0.278185096 0.019531250
vt 0.471814904 0.019531250
vn 0.00000000 -0.99513971 -0.09847314
f 166/166/56 167/167/56 168/168/56
g pz_chair_seating_indoor_02_blue_rattan__rear_shell__frame
v -0.42397500 -0.47313205 0.60074000
v 0.38199500 -0.44811250 0.34790000
v 0.41647500 -0.45121570 0.37926000
vt 0.269531250 0.207192888
vt 0.471814904 0.019531250
vt 0.480468750 0.042807112
vn 0.00000000 -0.99513971 -0.09847314
f 169/169/57 170/170/57 171/171/57
g pz_chair_seating_indoor_02_blue_rattan__rear_shell__frame
v -0.42397500 -0.47313205 0.60074000
v 0.41647500 -0.45121570 0.37926000
v 0.41647500 -0.47313205 0.60074000
vt 0.269531250 0.207192888
vt 0.480468750 0.042807112
vt 0.480468750 0.207192888
vn 0.00000000 -0.99513971 -0.09847314
f 172/172/58 173/173/58 174/174/58
g pz_chair_seating_indoor_02_blue_rattan__rear_shell__frame
v -0.42397500 -0.47313205 0.60074000
v 0.41647500 -0.47313205 0.60074000
v 0.38199500 -0.47623525 0.63210000
vt 0.269531250 0.207192888
vt 0.480468750 0.207192888
vt 0.471814904 0.230468750
vn 0.00000000 -0.99513971 -0.09847314
f 175/175/59 176/176/59 177/177/59
g pz_chair_seating_indoor_02_blue_rattan__rear_shell__frame
v 0.38199500 -0.47623525 0.63210000
v -0.38949500 -0.47623525 0.63210000
v -0.42397500 -0.47313205 0.60074000
vt 0.471814904 0.230468750
vt 0.278185096 0.230468750
vt 0.269531250 0.207192888
vn -0.00000000 -0.99513971 -0.09847314
f 178/178/60 179/179/60 180/180/60
g pz_chair_seating_indoor_02_blue_rattan__rear_shell__frame
v -0.42397500 -0.45121570 0.37926000
v -0.42397500 -0.37040320 0.37926000
v -0.38949500 -0.36730000 0.34790000
vt 0.519531250 0.067978023
vt 0.519531250 0.224459848
vt 0.528185096 0.230468750
vn -0.67284364 0.00000000 -0.73978472
f 181/181/61 182/182/61 183/183/61
g pz_chair_seating_indoor_02_blue_rattan__rear_shell__frame
v -0.38949500 -0.36730000 0.34790000
v -0.38949500 -0.44811250 0.34790000
v -0.42397500 -0.45121570 0.37926000
vt 0.528185096 0.230468750
vt 0.528185096 0.073986925
vt 0.519531250 0.067978023
vn -0.67284364 -0.00000000 -0.73978472
f 184/184/62 185/185/62 186/186/62
g pz_chair_seating_indoor_02_blue_rattan__rear_shell__frame
v 0.38199500 -0.44811250 0.34790000
v 0.38199500 -0.36730000 0.34790000
v 0.41647500 -0.37040320 0.37926000
vt 0.721814904 0.073986925
vt 0.721814904 0.230468750
vt 0.730468750 0.224459848
vn 0.67284364 0.00000000 -0.73978472
f 187/187/63 188/188/63 189/189/63
g pz_chair_seating_indoor_02_blue_rattan__rear_shell__frame
v 0.41647500 -0.37040320 0.37926000
v 0.41647500 -0.45121570 0.37926000
v 0.38199500 -0.44811250 0.34790000
vt 0.730468750 0.224459848
vt 0.730468750 0.067978023
vt 0.721814904 0.073986925
vn 0.67284364 0.00000000 -0.73978472
f 190/190/64 191/191/64 192/192/64
g pz_chair_seating_indoor_02_blue_rattan__rear_shell__frame
v 0.41647500 -0.45121570 0.37926000
v 0.41647500 -0.37040320 0.37926000
v 0.41647500 -0.39231955 0.60074000
vt 0.317978023 0.042807112
vt 0.474459848 0.042807112
vt 0.432021977 0.207192888
vn 1.00000000 0.00000000 0.00000000
f 193/193/65 194/194/65 195/195/65
g pz_chair_seating_indoor_02_blue_rattan__rear_shell__frame
v 0.41647500 -0.39231955 0.60074000
v 0.41647500 -0.47313205 0.60074000
v 0.41647500 -0.45121570 0.37926000
vt 0.432021977 0.207192888
vt 0.275540152 0.207192888
vt 0.317978023 0.042807112
vn 1.00000000 0.00000000 0.00000000
f 196/196/66 197/197/66 198/198/66
g pz_chair_seating_indoor_02_blue_rattan__rear_shell__frame
v 0.41647500 -0.47313205 0.60074000
v 0.41647500 -0.39231955 0.60074000
v 0.38199500 -0.39542275 0.63210000
vt 0.730468750 0.025540152
vt 0.730468750 0.182021977
vt 0.721814904 0.176013075
vn 0.67284364 -0.00000000 0.73978472
f 199/199/67 200/200/67 201/201/67
g pz_chair_seating_indoor_02_blue_rattan__rear_shell__frame
v 0.38199500 -0.39542275 0.63210000
v 0.38199500 -0.47623525 0.63210000
v 0.41647500 -0.47313205 0.60074000
vt 0.721814904 0.176013075
vt 0.721814904 0.019531250
vt 0.730468750 0.025540152
vn 0.67284364 0.00000000 0.73978472
f 202/202/68 203/203/68 204/204/68
g pz_chair_seating_indoor_02_blue_rattan__rear_shell__frame
v 0.38199500 -0.47623525 0.63210000
v 0.38199500 -0.39542275 0.63210000
v -0.38949500 -0.39542275 0.63210000
vt 0.721814904 0.019531250
vt 0.721814904 0.176013075
vt 0.528185096 0.176013075
vn 0.00000000 -0.00000000 1.00000000
f 205/205/69 206/206/69 207/207/69
g pz_chair_seating_indoor_02_blue_rattan__rear_shell__frame
v -0.38949500 -0.39542275 0.63210000
v -0.38949500 -0.47623525 0.63210000
v 0.38199500 -0.47623525 0.63210000
vt 0.528185096 0.176013075
vt 0.528185096 0.019531250
vt 0.721814904 0.019531250
vn 0.00000000 0.00000000 1.00000000
f 208/208/70 209/209/70 210/210/70
g pz_chair_seating_indoor_02_blue_rattan__rear_shell__frame
v -0.38949500 -0.47623525 0.63210000
v -0.38949500 -0.39542275 0.63210000
v -0.42397500 -0.39231955 0.60074000
vt 0.528185096 0.019531250
vt 0.528185096 0.176013075
vt 0.519531250 0.182021977
vn -0.67284364 0.00000000 0.73978472
f 211/211/71 212/212/71 213/213/71
g pz_chair_seating_indoor_02_blue_rattan__rear_shell__frame
v -0.42397500 -0.39231955 0.60074000
v -0.42397500 -0.47313205 0.60074000
v -0.38949500 -0.47623525 0.63210000
vt 0.519531250 0.182021977
vt 0.519531250 0.025540152
vt 0.528185096 0.019531250
vn -0.67284364 0.00000000 0.73978472
f 214/214/72 215/215/72 216/216/72
g pz_chair_seating_indoor_02_blue_rattan__rear_shell__frame
v -0.42397500 -0.47313205 0.60074000
v -0.42397500 -0.39231955 0.60074000
v -0.42397500 -0.37040320 0.37926000
vt 0.275540152 0.207192888
vt 0.432021977 0.207192888
vt 0.474459848 0.042807112
vn -1.00000000 0.00000000 0.00000000
f 217/217/73 218/218/73 219/219/73
g pz_chair_seating_indoor_02_blue_rattan__rear_shell__frame
v -0.42397500 -0.37040320 0.37926000
v -0.42397500 -0.45121570 0.37926000
v -0.42397500 -0.47313205 0.60074000
vt 0.474459848 0.042807112
vt 0.317978023 0.042807112
vt 0.275540152 0.207192888
vn -1.00000000 0.00000000 0.00000000
f 220/220/74 221/221/74 222/222/74
g pz_chair_seating_indoor_02_blue_rattan__back_cushion_0__back
v -0.26773750 -0.27114032 0.47095542
v -0.26773750 -0.30151143 0.74718458
v -0.22818881 -0.30534375 0.78204000
vt 0.778221559 0.800118120
vt 0.778221559 0.949881880
vt 0.792720202 0.968779518
vn 0.00000000 0.99400987 0.10929037
f 223/223/75 224/224/75 225/225/75
g pz_chair_seating_indoor_02_blue_rattan__back_cushion_0__back
v -0.26773750 -0.27114032 0.47095542
v -0.22818881 -0.30534375 0.78204000
v 0.22068881 -0.30534375 0.78204000
vt 0.778221559 0.800118120
vt 0.792720202 0.968779518
vt 0.957279798 0.968779518
vn 0.00000000 0.99400987 0.10929037
f 226/226/76 227/227/76 228/228/76
g pz_chair_seating_indoor_02_blue_rattan__back_cushion_0__back
v -0.26773750 -0.27114032 0.47095542
v 0.22068881 -0.30534375 0.78204000
v 0.26023750 -0.30151143 0.74718458
vt 0.778221559 0.800118120
vt 0.957279798 0.968779518
vt 0.971778441 0.949881880
vn -0.00000000 0.99400987 0.10929037
f 229/229/77 230/230/77 231/231/77
g pz_chair_seating_indoor_02_blue_rattan__back_cushion_0__back
v -0.26773750 -0.27114032 0.47095542
v 0.26023750 -0.30151143 0.74718458
v 0.26023750 -0.27114032 0.47095542
vt 0.778221559 0.800118120
vt 0.971778441 0.949881880
vt 0.971778441 0.800118120
vn -0.00000000 0.99400987 0.10929037
f 232/232/78 233/233/78 234/234/78
g pz_chair_seating_indoor_02_blue_rattan__back_cushion_0__back
v -0.26773750 -0.27114032 0.47095542
v 0.26023750 -0.27114032 0.47095542
v 0.22068881 -0.26730800 0.43610000
vt 0.778221559 0.800118120
vt 0.971778441 0.800118120
vt 0.957279798 0.781220482
vn -0.00000000 0.99400987 0.10929037
f 235/235/79 236/236/79 237/237/79
g pz_chair_seating_indoor_02_blue_rattan__back_cushion_0__back
v 0.22068881 -0.26730800 0.43610000
v -0.22818881 -0.26730800 0.43610000
v -0.26773750 -0.27114032 0.47095542
vt 0.957279798 0.781220482
vt 0.792720202 0.781220482
vt 0.778221559 0.800118120
vn 0.00000000 0.99400987 0.10929037
f 238/238/80 239/239/80 240/240/80
g pz_chair_seating_indoor_02_blue_rattan__back_cushion_0__back
v -0.29144250 -0.40576675 0.76440000
v -0.29144250 -0.37161000 0.45374000
v -0.24834250 -0.36730000 0.41454000
vt 0.019531250 0.709215601
vt 0.019531250 0.540784399
vt 0.035331812 0.519531250
vn -0.00000000 -0.99400987 -0.10929037
f 241/241/81 242/242/81 243/243/81
g pz_chair_seating_indoor_02_blue_rattan__back_cushion_0__back
v -0.29144250 -0.40576675 0.76440000
v -0.24834250 -0.36730000 0.41454000
v 0.24084250 -0.36730000 0.41454000
vt 0.019531250 0.709215601
vt 0.035331812 0.519531250
vt 0.214668188 0.519531250
vn 0.00000000 -0.99400987 -0.10929037
f 244/244/82 245/245/82 246/246/82
g pz_chair_seating_indoor_02_blue_rattan__back_cushion_0__back
v -0.29144250 -0.40576675 0.76440000
v 0.24084250 -0.36730000 0.41454000
v 0.28394250 -0.37161000 0.45374000
vt 0.019531250 0.709215601
vt 0.214668188 0.519531250
vt 0.230468750 0.540784399
vn 0.00000000 -0.99400987 -0.10929037
f 247/247/83 248/248/83 249/249/83
g pz_chair_seating_indoor_02_blue_rattan__back_cushion_0__back
v -0.29144250 -0.40576675 0.76440000
v 0.28394250 -0.37161000 0.45374000
v 0.28394250 -0.40576675 0.76440000
vt 0.019531250 0.709215601
vt 0.230468750 0.540784399
vt 0.230468750 0.709215601
vn 0.00000000 -0.99400987 -0.10929037
f 250/250/84 251/251/84 252/252/84
g pz_chair_seating_indoor_02_blue_rattan__back_cushion_0__back
v -0.29144250 -0.40576675 0.76440000
v 0.28394250 -0.40576675 0.76440000
v 0.24084250 -0.41007675 0.80360000
vt 0.019531250 0.709215601
vt 0.230468750 0.709215601
vt 0.214668188 0.730468750
vn 0.00000000 -0.99400987 -0.10929037
f 253/253/85 254/254/85 255/255/85
g pz_chair_seating_indoor_02_blue_rattan__back_cushion_0__back
v 0.24084250 -0.41007675 0.80360000
v -0.24834250 -0.41007675 0.80360000
v -0.29144250 -0.40576675 0.76440000
vt 0.214668188 0.730468750
vt 0.035331812 0.730468750
vt 0.019531250 0.709215601
vn -0.00000000 -0.99400987 -0.10929037
f 256/256/86 257/257/86 258/258/86
g pz_chair_seating_indoor_02_blue_rattan__back_cushion_0__back
v -0.29144250 -0.29295250 0.45374000
v -0.26773750 -0.27114032 0.47095542
v -0.22818881 -0.26730800 0.43610000
vt 0.769531250 0.790784399
vt 0.778221559 0.800118120
vt 0.792720202 0.781220482
vn -0.43854573 0.79991753 -0.40964569
f 259/259/87 260/260/87 261/261/87
g pz_chair_seating_indoor_02_blue_rattan__back_cushion_0__back
v -0.22818881 -0.26730800 0.43610000
v -0.24834250 -0.28864250 0.41454000
v -0.29144250 -0.29295250 0.45374000
vt 0.792720202 0.781220482
vt 0.785331812 0.769531250
vt 0.769531250 0.790784399
vn -0.43743164 0.80933045 -0.39196657
f 262/262/88 263/263/88 264/264/88
g pz_chair_seating_indoor_02_blue_rattan__back_cushion_0__back
v -0.29144250 -0.37161000 0.45374000
v -0.29144250 -0.29295250 0.45374000
v -0.24834250 -0.28864250 0.41454000
vt 0.269531250 0.576364976
vt 0.269531250 0.692579599
vt 0.285331812 0.698947524
vn -0.67284364 0.00000000 -0.73978472
f 265/265/89 266/266/89 267/267/89
g pz_chair_seating_indoor_02_blue_rattan__back_cushion_0__back
v -0.24834250 -0.28864250 0.41454000
v -0.24834250 -0.36730000 0.41454000
v -0.29144250 -0.37161000 0.45374000
vt 0.285331812 0.698947524
vt 0.285331812 0.582732901
vt 0.269531250 0.576364976
vn -0.67284364 -0.00000000 -0.73978472
f 268/268/90 269/269/90 270/270/90
g pz_chair_seating_indoor_02_blue_rattan__back_cushion_0__back
v -0.24834250 -0.28864250 0.41454000
v -0.22818881 -0.26730800 0.43610000
v 0.22068881 -0.26730800 0.43610000
vt 0.785331812 0.769531250
vt 0.792720202 0.781220482
vt 0.957279798 0.781220482
vn 0.00000000 0.71081428 -0.70337974
f 271/271/91 272/272/91 273/273/91
g pz_chair_seating_indoor_02_blue_rattan__back_cushion_0__back
v 0.22068881 -0.26730800 0.43610000
v 0.24084250 -0.28864250 0.41454000
v -0.24834250 -0.28864250 0.41454000
vt 0.957279798 0.781220482
vt 0.964668188 0.769531250
vt 0.785331812 0.769531250
vn 0.00000000 0.71081428 -0.70337974
f 274/274/92 275/275/92 276/276/92
g pz_chair_seating_indoor_02_blue_rattan__back_cushion_0__back
v 0.24084250 -0.28864250 0.41454000
v 0.22068881 -0.26730800 0.43610000
v 0.26023750 -0.27114032 0.47095542
vt 0.964668188 0.769531250
vt 0.957279798 0.781220482
vt 0.971778441 0.800118120
vn 0.43020447 0.80971610 -0.39910394
f 277/277/93 278/278/93 279/279/93
g pz_chair_seating_indoor_02_blue_rattan__back_cushion_0__back
v 0.26023750 -0.27114032 0.47095542
v 0.28394250 -0.29295250 0.45374000
v 0.24084250 -0.28864250 0.41454000
vt 0.971778441 0.800118120
vt 0.980468750 0.790784399
vt 0.964668188 0.769531250
vn 0.44509506 0.80049843 -0.40136349
f 280/280/94 281/281/94 282/282/94
g pz_chair_seating_indoor_02_blue_rattan__back_cushion_0__back
v 0.24084250 -0.36730000 0.41454000
v 0.24084250 -0.28864250 0.41454000
v 0.28394250 -0.29295250 0.45374000
vt 0.464668188 0.582732901
vt 0.464668188 0.698947524
vt 0.480468750 0.692579599
vn 0.67284364 0.00000000 -0.73978472
f 283/283/95 284/284/95 285/285/95
g pz_chair_seating_indoor_02_blue_rattan__back_cushion_0__back
v 0.28394250 -0.29295250 0.45374000
v 0.28394250 -0.37161000 0.45374000
v 0.24084250 -0.36730000 0.41454000
vt 0.480468750 0.692579599
vt 0.480468750 0.576364976
vt 0.464668188 0.582732901
vn 0.67284364 0.00000000 -0.73978472
f 286/286/96 287/287/96 288/288/96
g pz_chair_seating_indoor_02_blue_rattan__back_cushion_0__back
v 0.28394250 -0.29295250 0.45374000
v 0.26023750 -0.27114032 0.47095542
v 0.26023750 -0.30151143 0.74718458
vt 0.980468750 0.790784399
vt 0.971778441 0.800118120
vt 0.971778441 0.949881880
vn 0.70497941 0.70497941 0.07751177
f 289/289/97 290/290/97 291/291/97
g pz_chair_seating_indoor_02_blue_rattan__back_cushion_0__back
v 0.26023750 -0.30151143 0.74718458
v 0.28394250 -0.32710925 0.76440000
v 0.28394250 -0.29295250 0.45374000
vt 0.429933980 0.699881880
vt 0.392113797 0.709215601
vt 0.442579599 0.540784399
vn 0.70497941 0.70497941 0.07751177
f 292/292/98 293/293/98 294/294/98
g pz_chair_seating_indoor_02_blue_rattan__back_cushion_0__back
v 0.28394250 -0.37161000 0.45374000
v 0.28394250 -0.29295250 0.45374000
v 0.28394250 -0.32710925 0.76440000
vt 0.326364976 0.540784399
vt 0.442579599 0.540784399
vt 0.392113797 0.709215601
vn 1.00000000 0.00000000 0.00000000
f 295/295/99 296/296/99 297/297/99
g pz_chair_seating_indoor_02_blue_rattan__back_cushion_0__back
v 0.28394250 -0.32710925 0.76440000
v 0.28394250 -0.40576675 0.76440000
v 0.28394250 -0.37161000 0.45374000
vt 0.392113797 0.709215601
vt 0.275899175 0.709215601
vt 0.326364976 0.540784399
vn 1.00000000 0.00000000 0.00000000
f 298/298/100 299/299/100 300/300/100
g pz_chair_seating_indoor_02_blue_rattan__back_cushion_0__back
v 0.28394250 -0.32710925 0.76440000
v 0.26023750 -0.30151143 0.74718458
v 0.22068881 -0.30534375 0.78204000
vt 0.980468750 0.959215601
vt 0.971778441 0.949881880
vt 0.957279798 0.968779518
vn 0.40456275 0.73793179 0.54017187
f 301/301/101 302/302/101 303/303/101
g pz_chair_seating_indoor_02_blue_rattan__back_cushion_0__back
v 0.22068881 -0.30534375 0.78204000
v 0.24084250 -0.33141925 0.80360000
v 0.28394250 -0.32710925 0.76440000
vt 0.957279798 0.968779518
vt 0.964668188 0.980468750
vt 0.980468750 0.959215601
vn 0.40420019 0.74784604 0.52663889
f 304/304/102 305/305/102 306/306/102
g pz_chair_seating_indoor_02_blue_rattan__back_cushion_0__back
v 0.28394250 -0.40576675 0.76440000
v 0.28394250 -0.32710925 0.76440000
v 0.24084250 -0.33141925 0.80360000
vt 0.480468750 0.525899175
vt 0.480468750 0.642113797
vt 0.464668188 0.635745873
vn 0.67284364 -0.00000000 0.73978472
f 307/307/103 308/308/103 309/309/103
g pz_chair_seating_indoor_02_blue_rattan__back_cushion_0__back
v 0.24084250 -0.33141925 0.80360000
v 0.24084250 -0.41007675 0.80360000
v 0.28394250 -0.40576675 0.76440000
vt 0.464668188 0.635745873
vt 0.464668188 0.519531250
vt 0.480468750 0.525899175
vn 0.67284364 0.00000000 0.73978472
f 310/310/104 311/311/104 312/312/104
g pz_chair_seating_indoor_02_blue_rattan__back_cushion_0__back
v 0.24084250 -0.33141925 0.80360000
v 0.22068881 -0.30534375 0.78204000
v -0.22818881 -0.30534375 0.78204000
vt 0.464668188 0.635745873
vt 0.457279798 0.674271816
vt 0.292720202 0.674271816
vn 0.00000000 0.63722166 0.77068058
f 313/313/105 314/314/105 315/315/105
g pz_chair_seating_indoor_02_blue_rattan__back_cushion_0__back
v -0.22818881 -0.30534375 0.78204000
v -0.24834250 -0.33141925 0.80360000
v 0.24084250 -0.33141925 0.80360000
vt 0.292720202 0.674271816
vt 0.285331812 0.635745873
vt 0.464668188 0.635745873
vn 0.00000000 0.63722166 0.77068058
f 316/316/106 317/317/106 318/318/106
g pz_chair_seating_indoor_02_blue_rattan__back_cushion_0__back
v 0.24084250 -0.41007675 0.80360000
v 0.24084250 -0.33141925 0.80360000
v -0.24834250 -0.33141925 0.80360000
vt 0.464668188 0.519531250
vt 0.464668188 0.635745873
vt 0.285331812 0.635745873
vn 0.00000000 -0.00000000 1.00000000
f 319/319/107 320/320/107 321/321/107
g pz_chair_seating_indoor_02_blue_rattan__back_cushion_0__back
v -0.24834250 -0.33141925 0.80360000
v -0.24834250 -0.41007675 0.80360000
v 0.24084250 -0.41007675 0.80360000
vt 0.285331812 0.635745873
vt 0.285331812 0.519531250
vt 0.464668188 0.519531250
vn 0.00000000 0.00000000 1.00000000
f 322/322/108 323/323/108 324/324/108
g pz_chair_seating_indoor_02_blue_rattan__back_cushion_0__back
v -0.24834250 -0.33141925 0.80360000
v -0.22818881 -0.30534375 0.78204000
v -0.26773750 -0.30151143 0.74718458
vt 0.785331812 0.980468750
vt 0.792720202 0.968779518
vt 0.778221559 0.949881880
vn -0.39707506 0.74736106 0.53271271
f 325/325/109 326/326/109 327/327/109
g pz_chair_seating_indoor_02_blue_rattan__back_cushion_0__back
v -0.26773750 -0.30151143 0.74718458
v -0.29144250 -0.32710925 0.76440000
v -0.24834250 -0.33141925 0.80360000
vt 0.778221559 0.949881880
vt 0.769531250 0.959215601
vt 0.785331812 0.980468750
vn -0.41108873 0.73933842 0.53327737
f 328/328/110 329/329/110 330/330/110
g pz_chair_seating_indoor_02_blue_rattan__back_cushion_0__back
v -0.24834250 -0.41007675 0.80360000
v -0.24834250 -0.33141925 0.80360000
v -0.29144250 -0.32710925 0.76440000
vt 0.285331812 0.519531250
vt 0.285331812 0.635745873
vt 0.269531250 0.642113797
vn -0.67284364 0.00000000 0.73978472
f 331/331/111 332/332/111 333/333/111
g pz_chair_seating_indoor_02_blue_rattan__back_cushion_0__back
v -0.29144250 -0.32710925 0.76440000
v -0.29144250 -0.40576675 0.76440000
v -0.24834250 -0.41007675 0.80360000
vt 0.269531250 0.642113797
vt 0.269531250 0.525899175
vt 0.285331812 0.519531250
vn -0.67284364 0.00000000 0.73978472
f 334/334/112 335/335/112 336/336/112
g pz_chair_seating_indoor_02_blue_rattan__back_cushion_0__back
v -0.29144250 -0.32710925 0.76440000
v -0.26773750 -0.30151143 0.74718458
v -0.26773750 -0.27114032 0.47095542
vt 0.392113797 0.709215601
vt 0.429933980 0.699881880
vt 0.474806587 0.550118120
vn -0.70497941 0.70497941 0.07751177
f 337/337/113 338/338/113 339/339/113
g pz_chair_seating_indoor_02_blue_rattan__back_cushion_0__back
v -0.26773750 -0.27114032 0.47095542
v -0.29144250 -0.29295250 0.45374000
v -0.29144250 -0.32710925 0.76440000
vt 0.778221559 0.800118120
vt 0.769531250 0.790784399
vt 0.769531250 0.959215601
vn -0.70497941 0.70497941 0.07751177
f 340/340/114 341/341/114 342/342/114
g pz_chair_seating_indoor_02_blue_rattan__back_cushion_0__back
v -0.29144250 -0.40576675 0.76440000
v -0.29144250 -0.32710925 0.76440000
v -0.29144250 -0.29295250 0.45374000
vt 0.275899175 0.709215601
vt 0.392113797 0.709215601
vt 0.442579599 0.540784399
vn -1.00000000 0.00000000 0.00000000
f 343/343/115 344/344/115 345/345/115
g pz_chair_seating_indoor_02_blue_rattan__back_cushion_0__back
v -0.29144250 -0.29295250 0.45374000
v -0.29144250 -0.37161000 0.45374000
v -0.29144250 -0.40576675 0.76440000
vt 0.442579599 0.540784399
vt 0.326364976 0.540784399
vt 0.275899175 0.709215601
vn -1.00000000 0.00000000 0.00000000
f 346/346/116 347/347/116 348/348/116
g pz_chair_seating_indoor_02_blue_rattan__arm_panel_-1__frame
v -0.43798250 -0.44272500 0.09310000
v -0.43798250 -0.42117500 0.60760000
v -0.43798250 0.39233750 0.55860000
vt 0.269531250 0.019531250
vt 0.274974798 0.230468750
vt 0.480468750 0.210379464
vn -1.00000000 0.00000000 0.00000000
f 349/349/117 350/350/117 351/351/117
g pz_chair_seating_indoor_02_blue_rattan__arm_panel_-1__frame
v -0.43798250 0.39233750 0.55860000
v -0.43798250 0.39233750 0.09310000
v -0.43798250 -0.44272500 0.09310000
vt 0.480468750 0.210379464
vt 0.480468750 0.019531250
vt 0.269531250 0.019531250
vn -1.00000000 0.00000000 -0.00000000
f 352/352/118 353/353/118 354/354/118
g pz_chair_seating_indoor_02_blue_rattan__arm_panel_-1__frame
v -0.32161250 -0.42117500 0.60760000
v -0.32161250 -0.44272500 0.09310000
v -0.32161250 0.39233750 0.09310000
vt 0.274974798 0.230468750
vt 0.269531250 0.019531250
vt 0.480468750 0.019531250
vn 1.00000000 0.00000000 0.00000000
f 355/355/119 356/356/119 357/357/119
g pz_chair_seating_indoor_02_blue_rattan__arm_panel_-1__frame
v -0.32161250 0.39233750 0.09310000
v -0.32161250 0.39233750 0.55860000
v -0.32161250 -0.42117500 0.60760000
vt 0.480468750 0.019531250
vt 0.480468750 0.210379464
vt 0.274974798 0.230468750
vn 1.00000000 0.00000000 -0.00000000
f 358/358/120 359/359/120 360/360/120
g pz_chair_seating_indoor_02_blue_rattan__arm_panel_-1__frame
v -0.32161250 0.39233750 0.09310000
v -0.43798250 0.39233750 0.09310000
v -0.43798250 0.39233750 0.55860000
vt 0.480468750 0.019531250
vt 0.269531250 0.019531250
vt 0.269531250 0.210379464
vn 0.00000000 1.00000000 0.00000000
f 361/361/121 362/362/121 363/363/121
g pz_chair_seating_indoor_02_blue_rattan__arm_panel_-1__frame
v -0.43798250 0.39233750 0.55860000
v -0.32161250 0.39233750 0.55860000
v -0.32161250 0.39233750 0.09310000
vt 0.269531250 0.210379464
vt 0.480468750 0.210379464
vt 0.480468750 0.019531250
vn -0.00000000 1.00000000 0.00000000
f 364/364/122 365/365/122 366/366/122
g pz_chair_seating_indoor_02_blue_rattan__arm_panel_-1__frame
v -0.32161250 0.39233750 0.55860000
v -0.43798250 0.39233750 0.55860000
v -0.43798250 -0.42117500 0.60760000
vt 0.730468750 0.230468750
vt 0.519531250 0.230468750
vt 0.519531250 0.024974798
vn 0.00000000 0.06012367 0.99819094
f 367/367/123 368/368/123 369/369/123
g pz_chair_seating_indoor_02_blue_rattan__arm_panel_-1__frame
v -0.43798250 -0.42117500 0.60760000
v -0.32161250 -0.42117500 0.60760000
v -0.32161250 0.39233750 0.55860000
vt 0.519531250 0.024974798
vt 0.730468750 0.024974798
vt 0.730468750 0.230468750
vn -0.00000000 0.06012367 0.99819094
f 370/370/124 371/371/124 372/372/124
g pz_chair_seating_indoor_02_blue_rattan__arm_panel_-1__frame
v -0.32161250 -0.42117500 0.60760000
v -0.43798250 -0.42117500 0.60760000
v -0.43798250 -0.44272500 0.09310000
vt 0.480468750 0.230468750
vt 0.269531250 0.230468750
vt 0.269531250 0.019531250
vn 0.00000000 -0.99912396 0.04184863
f 373/373/125 374/374/125 375/375/125
g pz_chair_seating_indoor_02_blue_rattan__arm_panel_-1__frame
v -0.43798250 -0.44272500 0.09310000
v -0.32161250 -0.44272500 0.09310000
v -0.32161250 -0.42117500 0.60760000
vt 0.269531250 0.019531250
vt 0.480468750 0.019531250
vt 0.480468750 0.230468750
vn 0.00000000 -0.99912396 0.04184863
f 376/376/126 377/377/126 378/378/126
g pz_chair_seating_indoor_02_blue_rattan__rounded_rail_-1__frame
v -0.34477875 -0.44272500 0.58183418
v -0.30976000 -0.44272500 0.63700000
v -0.34477875 -0.44272500 0.69216582
vt 0.677734375 0.084401840
vt 0.730468750 0.157435295
vt 0.677734375 0.230468750
vn 0.00000000 -1.00000000 0.00000000
f 379/379/127 380/380/127 381/381/127
g pz_chair_seating_indoor_02_blue_rattan__rounded_rail_-1__frame
v -0.34477875 -0.44272500 0.58183418
v -0.34477875 -0.44272500 0.69216582
v -0.41481625 -0.44272500 0.69216582
vt 0.677734375 0.084401840
vt 0.677734375 0.230468750
vt 0.572265625 0.230468750
vn 0.00000000 -1.00000000 0.00000000
f 382/382/128 383/383/128 384/384/128
g pz_chair_seating_indoor_02_blue_rattan__rounded_rail_-1__frame
v -0.34477875 -0.44272500 0.58183418
v -0.41481625 -0.44272500 0.69216582
v -0.44983500 -0.44272500 0.63700000
vt 0.677734375 0.084401840
vt 0.572265625 0.230468750
vt 0.519531250 0.157435295
vn 0.00000000 -1.00000000 0.00000000
f 385/385/129 386/386/129 387/387/129
g pz_chair_seating_indoor_02_blue_rattan__rounded_rail_-1__frame
v -0.44983500 -0.44272500 0.63700000
v -0.41481625 -0.44272500 0.58183418
v -0.34477875 -0.44272500 0.58183418
vt 0.519531250 0.157435295
vt 0.572265625 0.084401840
vt 0.677734375 0.084401840
vn 0.00000000 -1.00000000 0.00000000
f 388/388/130 389/389/130 390/390/130
g pz_chair_seating_indoor_02_blue_rattan__rounded_rail_-1__frame
v -0.30976000 0.39233750 0.58800000
v -0.34477875 0.39233750 0.53283418
v -0.41481625 0.39233750 0.53283418
vt 0.730468750 0.092564705
vt 0.677734375 0.019531250
vt 0.572265625 0.019531250
vn 0.00000000 1.00000000 0.00000000
f 391/391/131 392/392/131 393/393/131
g pz_chair_seating_indoor_02_blue_rattan__rounded_rail_-1__frame
v -0.30976000 0.39233750 0.58800000
v -0.41481625 0.39233750 0.53283418
v -0.44983500 0.39233750 0.58800000
vt 0.730468750 0.092564705
vt 0.572265625 0.019531250
vt 0.519531250 0.092564705
vn 0.00000000 1.00000000 0.00000000
f 394/394/132 395/395/132 396/396/132
g pz_chair_seating_indoor_02_blue_rattan__rounded_rail_-1__frame
v -0.30976000 0.39233750 0.58800000
v -0.44983500 0.39233750 0.58800000
v -0.41481625 0.39233750 0.64316582
vt 0.730468750 0.092564705
vt 0.519531250 0.092564705
vt 0.572265625 0.165598160
vn 0.00000000 1.00000000 0.00000000
f 397/397/133 398/398/133 399/399/133
g pz_chair_seating_indoor_02_blue_rattan__rounded_rail_-1__frame
v -0.41481625 0.39233750 0.64316582
v -0.34477875 0.39233750 0.64316582
v -0.30976000 0.39233750 0.58800000
vt 0.572265625 0.165598160
vt 0.677734375 0.165598160
vt 0.730468750 0.092564705
vn -0.00000000 1.00000000 0.00000000
f 400/400/134 401/401/134 402/402/134
g pz_chair_seating_indoor_02_blue_rattan__rounded_rail_-1__frame
v -0.34477875 -0.44272500 0.69216582
v -0.30976000 -0.44272500 0.63700000
v -0.30976000 0.39233750 0.58800000
vt 0.519531250 0.230468750
vt 0.519531250 0.157435295
vt 0.730468750 0.092564705
vn 0.84384529 0.03143189 0.53566517
f 403/403/135 404/404/135 405/405/135
g pz_chair_seating_indoor_02_blue_rattan__rounded_rail_-1__frame
v -0.30976000 0.39233750 0.58800000
v -0.34477875 0.39233750 0.64316582
v -0.34477875 -0.44272500 0.69216582
vt 0.730468750 0.092564705
vt 0.730468750 0.165598160
vt 0.519531250 0.230468750
vn 0.84384529 0.03143189 0.53566517
f 406/406/136 407/407/136 408/408/136
g pz_chair_seating_indoor_02_blue_rattan__rounded_rail_-1__frame
v -0.41481625 -0.44272500 0.69216582
v -0.34477875 -0.44272500 0.69216582
v -0.34477875 0.39233750 0.64316582
vt 0.572265625 0.019531250
vt 0.677734375 0.019531250
vt 0.677734375 0.230468750
vn -0.00000000 0.05857748 0.99828286
f 409/409/137 410/410/137 411/411/137
g pz_chair_seating_indoor_02_blue_rattan__rounded_rail_-1__frame
v -0.34477875 0.39233750 0.64316582
v -0.41481625 0.39233750 0.64316582
v -0.41481625 -0.44272500 0.69216582
vt 0.677734375 0.230468750
vt 0.572265625 0.230468750
vt 0.572265625 0.019531250
vn 0.00000000 0.05857748 0.99828286
f 412/412/138 413/413/138 414/414/138
g pz_chair_seating_indoor_02_blue_rattan__rounded_rail_-1__frame
v -0.44983500 -0.44272500 0.63700000
v -0.41481625 -0.44272500 0.69216582
v -0.41481625 0.39233750 0.64316582
vt 0.519531250 0.157435295
vt 0.519531250 0.230468750
vt 0.730468750 0.165598160
vn -0.84384529 0.03143189 0.53566517
f 415/415/139 416/416/139 417/417/139
g pz_chair_seating_indoor_02_blue_rattan__rounded_rail_-1__frame
v -0.41481625 0.39233750 0.64316582
v -0.44983500 0.39233750 0.58800000
v -0.44983500 -0.44272500 0.63700000
vt 0.730468750 0.165598160
vt 0.730468750 0.092564705
vt 0.519531250 0.157435295
vn -0.84384529 0.03143189 0.53566517
f 418/418/140 419/419/140 420/420/140
g pz_chair_seating_indoor_02_blue_rattan__rounded_rail_-1__frame
v -0.41481625 -0.44272500 0.58183418
v -0.44983500 -0.44272500 0.63700000
v -0.44983500 0.39233750 0.58800000
vt 0.519531250 0.084401840
vt 0.519531250 0.157435295
vt 0.730468750 0.092564705
vn -0.84384529 -0.03143189 -0.53566517
f 421/421/141 422/422/141 423/423/141
g pz_chair_seating_indoor_02_blue_rattan__rounded_rail_-1__frame
v -0.44983500 0.39233750 0.58800000
v -0.41481625 0.39233750 0.53283418
v -0.41481625 -0.44272500 0.58183418
vt 0.730468750 0.092564705
vt 0.730468750 0.019531250
vt 0.519531250 0.084401840
vn -0.84384529 -0.03143189 -0.53566517
f 424/424/142 425/425/142 426/426/142
g pz_chair_seating_indoor_02_blue_rattan__rounded_rail_-1__frame
v -0.34477875 -0.44272500 0.58183418
v -0.41481625 -0.44272500 0.58183418
v -0.41481625 0.39233750 0.53283418
vt 0.677734375 0.019531250
vt 0.572265625 0.019531250
vt 0.572265625 0.230468750
vn -0.00000000 -0.05857748 -0.99828286
f 427/427/143 428/428/143 429/429/143
g pz_chair_seating_indoor_02_blue_rattan__rounded_rail_-1__frame
v -0.41481625 0.39233750 0.53283418
v -0.34477875 0.39233750 0.53283418
v -0.34477875 -0.44272500 0.58183418
vt 0.572265625 0.230468750
vt 0.677734375 0.230468750
vt 0.677734375 0.019531250
vn -0.00000000 -0.05857748 -0.99828286
f 430/430/144 431/431/144 432/432/144
g pz_chair_seating_indoor_02_blue_rattan__rounded_rail_-1__frame
v -0.30976000 -0.44272500 0.63700000
v -0.34477875 -0.44272500 0.58183418
v -0.34477875 0.39233750 0.53283418
vt 0.519531250 0.157435295
vt 0.519531250 0.084401840
vt 0.730468750 0.019531250
vn 0.84384529 -0.03143189 -0.53566517
f 433/433/145 434/434/145 435/435/145
g pz_chair_seating_indoor_02_blue_rattan__rounded_rail_-1__frame
v -0.34477875 0.39233750 0.53283418
v -0.30976000 0.39233750 0.58800000
v -0.30976000 -0.44272500 0.63700000
vt 0.730468750 0.019531250
vt 0.730468750 0.092564705
vt 0.519531250 0.157435295
vn 0.84384529 -0.03143189 -0.53566517
f 436/436/146 437/437/146 438/438/146
g pz_chair_seating_indoor_02_blue_rattan__arm_panel_1__frame
v 0.31411250 -0.44272500 0.09310000
v 0.31411250 -0.42117500 0.60760000
v 0.31411250 0.39233750 0.55860000
vt 0.269531250 0.019531250
vt 0.274974798 0.230468750
vt 0.480468750 0.210379464
vn -1.00000000 0.00000000 0.00000000
f 439/439/147 440/440/147 441/441/147
g pz_chair_seating_indoor_02_blue_rattan__arm_panel_1__frame
v 0.31411250 0.39233750 0.55860000
v 0.31411250 0.39233750 0.09310000
v 0.31411250 -0.44272500 0.09310000
vt 0.480468750 0.210379464
vt 0.480468750 0.019531250
vt 0.269531250 0.019531250
vn -1.00000000 0.00000000 -0.00000000
f 442/442/148 443/443/148 444/444/148
g pz_chair_seating_indoor_02_blue_rattan__arm_panel_1__frame
v 0.43048250 -0.42117500 0.60760000
v 0.43048250 -0.44272500 0.09310000
v 0.43048250 0.39233750 0.09310000
vt 0.274974798 0.230468750
vt 0.269531250 0.019531250
vt 0.480468750 0.019531250
vn 1.00000000 0.00000000 0.00000000
f 445/445/149 446/446/149 447/447/149
g pz_chair_seating_indoor_02_blue_rattan__arm_panel_1__frame
v 0.43048250 0.39233750 0.09310000
v 0.43048250 0.39233750 0.55860000
v 0.43048250 -0.42117500 0.60760000
vt 0.480468750 0.019531250
vt 0.480468750 0.210379464
vt 0.274974798 0.230468750
vn 1.00000000 0.00000000 -0.00000000
f 448/448/150 449/449/150 450/450/150
g pz_chair_seating_indoor_02_blue_rattan__arm_panel_1__frame
v 0.43048250 0.39233750 0.09310000
v 0.31411250 0.39233750 0.09310000
v 0.31411250 0.39233750 0.55860000
vt 0.480468750 0.019531250
vt 0.269531250 0.019531250
vt 0.269531250 0.210379464
vn 0.00000000 1.00000000 0.00000000
f 451/451/151 452/452/151 453/453/151
g pz_chair_seating_indoor_02_blue_rattan__arm_panel_1__frame
v 0.31411250 0.39233750 0.55860000
v 0.43048250 0.39233750 0.55860000
v 0.43048250 0.39233750 0.09310000
vt 0.269531250 0.210379464
vt 0.480468750 0.210379464
vt 0.480468750 0.019531250
vn -0.00000000 1.00000000 0.00000000
f 454/454/152 455/455/152 456/456/152
g pz_chair_seating_indoor_02_blue_rattan__arm_panel_1__frame
v 0.43048250 0.39233750 0.55860000
v 0.31411250 0.39233750 0.55860000
v 0.31411250 -0.42117500 0.60760000
vt 0.730468750 0.230468750
vt 0.519531250 0.230468750
vt 0.519531250 0.024974798
vn 0.00000000 0.06012367 0.99819094
f 457/457/153 458/458/153 459/459/153
g pz_chair_seating_indoor_02_blue_rattan__arm_panel_1__frame
v 0.31411250 -0.42117500 0.60760000
v 0.43048250 -0.42117500 0.60760000
v 0.43048250 0.39233750 0.55860000
vt 0.519531250 0.024974798
vt 0.730468750 0.024974798
vt 0.730468750 0.230468750
vn -0.00000000 0.06012367 0.99819094
f 460/460/154 461/461/154 462/462/154
g pz_chair_seating_indoor_02_blue_rattan__arm_panel_1__frame
v 0.43048250 -0.42117500 0.60760000
v 0.31411250 -0.42117500 0.60760000
v 0.31411250 -0.44272500 0.09310000
vt 0.480468750 0.230468750
vt 0.269531250 0.230468750
vt 0.269531250 0.019531250
vn 0.00000000 -0.99912396 0.04184863
f 463/463/155 464/464/155 465/465/155
g pz_chair_seating_indoor_02_blue_rattan__arm_panel_1__frame
v 0.31411250 -0.44272500 0.09310000
v 0.43048250 -0.44272500 0.09310000
v 0.43048250 -0.42117500 0.60760000
vt 0.269531250 0.019531250
vt 0.480468750 0.019531250
vt 0.480468750 0.230468750
vn 0.00000000 -0.99912396 0.04184863
f 466/466/156 467/467/156 468/468/156
g pz_chair_seating_indoor_02_blue_rattan__rounded_rail_1__frame
v 0.40731625 -0.44272500 0.58183418
v 0.44233500 -0.44272500 0.63700000
v 0.40731625 -0.44272500 0.69216582
vt 0.677734375 0.084401840
vt 0.730468750 0.157435295
vt 0.677734375 0.230468750
vn 0.00000000 -1.00000000 0.00000000
f 469/469/157 470/470/157 471/471/157
g pz_chair_seating_indoor_02_blue_rattan__rounded_rail_1__frame
v 0.40731625 -0.44272500 0.58183418
v 0.40731625 -0.44272500 0.69216582
v 0.33727875 -0.44272500 0.69216582
vt 0.677734375 0.084401840
vt 0.677734375 0.230468750
vt 0.572265625 0.230468750
vn 0.00000000 -1.00000000 0.00000000
f 472/472/158 473/473/158 474/474/158
g pz_chair_seating_indoor_02_blue_rattan__rounded_rail_1__frame
v 0.40731625 -0.44272500 0.58183418
v 0.33727875 -0.44272500 0.69216582
v 0.30226000 -0.44272500 0.63700000
vt 0.677734375 0.084401840
vt 0.572265625 0.230468750
vt 0.519531250 0.157435295
vn 0.00000000 -1.00000000 0.00000000
f 475/475/159 476/476/159 477/477/159
g pz_chair_seating_indoor_02_blue_rattan__rounded_rail_1__frame
v 0.30226000 -0.44272500 0.63700000
v 0.33727875 -0.44272500 0.58183418
v 0.40731625 -0.44272500 0.58183418
vt 0.519531250 0.157435295
vt 0.572265625 0.084401840
vt 0.677734375 0.084401840
vn 0.00000000 -1.00000000 0.00000000
f 478/478/160 479/479/160 480/480/160
g pz_chair_seating_indoor_02_blue_rattan__rounded_rail_1__frame
v 0.44233500 0.39233750 0.58800000
v 0.40731625 0.39233750 0.53283418
v 0.33727875 0.39233750 0.53283418
vt 0.730468750 0.092564705
vt 0.677734375 0.019531250
vt 0.572265625 0.019531250
vn 0.00000000 1.00000000 0.00000000
f 481/481/161 482/482/161 483/483/161
g pz_chair_seating_indoor_02_blue_rattan__rounded_rail_1__frame
v 0.44233500 0.39233750 0.58800000
v 0.33727875 0.39233750 0.53283418
v 0.30226000 0.39233750 0.58800000
vt 0.730468750 0.092564705
vt 0.572265625 0.019531250
vt 0.519531250 0.092564705
vn 0.00000000 1.00000000 0.00000000
f 484/484/162 485/485/162 486/486/162
g pz_chair_seating_indoor_02_blue_rattan__rounded_rail_1__frame
v 0.44233500 0.39233750 0.58800000
v 0.30226000 0.39233750 0.58800000
v 0.33727875 0.39233750 0.64316582
vt 0.730468750 0.092564705
vt 0.519531250 0.092564705
vt 0.572265625 0.165598160
vn 0.00000000 1.00000000 0.00000000
f 487/487/163 488/488/163 489/489/163
g pz_chair_seating_indoor_02_blue_rattan__rounded_rail_1__frame
v 0.33727875 0.39233750 0.64316582
v 0.40731625 0.39233750 0.64316582
v 0.44233500 0.39233750 0.58800000
vt 0.572265625 0.165598160
vt 0.677734375 0.165598160
vt 0.730468750 0.092564705
vn -0.00000000 1.00000000 0.00000000
f 490/490/164 491/491/164 492/492/164
g pz_chair_seating_indoor_02_blue_rattan__rounded_rail_1__frame
v 0.40731625 -0.44272500 0.69216582
v 0.44233500 -0.44272500 0.63700000
v 0.44233500 0.39233750 0.58800000
vt 0.519531250 0.230468750
vt 0.519531250 0.157435295
vt 0.730468750 0.092564705
vn 0.84384529 0.03143189 0.53566517
f 493/493/165 494/494/165 495/495/165
g pz_chair_seating_indoor_02_blue_rattan__rounded_rail_1__frame
v 0.44233500 0.39233750 0.58800000
v 0.40731625 0.39233750 0.64316582
v 0.40731625 -0.44272500 0.69216582
vt 0.730468750 0.092564705
vt 0.730468750 0.165598160
vt 0.519531250 0.230468750
vn 0.84384529 0.03143189 0.53566517
f 496/496/166 497/497/166 498/498/166
g pz_chair_seating_indoor_02_blue_rattan__rounded_rail_1__frame
v 0.33727875 -0.44272500 0.69216582
v 0.40731625 -0.44272500 0.69216582
v 0.40731625 0.39233750 0.64316582
vt 0.572265625 0.019531250
vt 0.677734375 0.019531250
vt 0.677734375 0.230468750
vn -0.00000000 0.05857748 0.99828286
f 499/499/167 500/500/167 501/501/167
g pz_chair_seating_indoor_02_blue_rattan__rounded_rail_1__frame
v 0.40731625 0.39233750 0.64316582
v 0.33727875 0.39233750 0.64316582
v 0.33727875 -0.44272500 0.69216582
vt 0.677734375 0.230468750
vt 0.572265625 0.230468750
vt 0.572265625 0.019531250
vn 0.00000000 0.05857748 0.99828286
f 502/502/168 503/503/168 504/504/168
g pz_chair_seating_indoor_02_blue_rattan__rounded_rail_1__frame
v 0.30226000 -0.44272500 0.63700000
v 0.33727875 -0.44272500 0.69216582
v 0.33727875 0.39233750 0.64316582
vt 0.519531250 0.157435295
vt 0.519531250 0.230468750
vt 0.730468750 0.165598160
vn -0.84384529 0.03143189 0.53566517
f 505/505/169 506/506/169 507/507/169
g pz_chair_seating_indoor_02_blue_rattan__rounded_rail_1__frame
v 0.33727875 0.39233750 0.64316582
v 0.30226000 0.39233750 0.58800000
v 0.30226000 -0.44272500 0.63700000
vt 0.730468750 0.165598160
vt 0.730468750 0.092564705
vt 0.519531250 0.157435295
vn -0.84384529 0.03143189 0.53566517
f 508/508/170 509/509/170 510/510/170
g pz_chair_seating_indoor_02_blue_rattan__rounded_rail_1__frame
v 0.33727875 -0.44272500 0.58183418
v 0.30226000 -0.44272500 0.63700000
v 0.30226000 0.39233750 0.58800000
vt 0.519531250 0.084401840
vt 0.519531250 0.157435295
vt 0.730468750 0.092564705
vn -0.84384529 -0.03143189 -0.53566517
f 511/511/171 512/512/171 513/513/171
g pz_chair_seating_indoor_02_blue_rattan__rounded_rail_1__frame
v 0.30226000 0.39233750 0.58800000
v 0.33727875 0.39233750 0.53283418
v 0.33727875 -0.44272500 0.58183418
vt 0.730468750 0.092564705
vt 0.730468750 0.019531250
vt 0.519531250 0.084401840
vn -0.84384529 -0.03143189 -0.53566517
f 514/514/172 515/515/172 516/516/172
g pz_chair_seating_indoor_02_blue_rattan__rounded_rail_1__frame
v 0.40731625 -0.44272500 0.58183418
v 0.33727875 -0.44272500 0.58183418
v 0.33727875 0.39233750 0.53283418
vt 0.677734375 0.019531250
vt 0.572265625 0.019531250
vt 0.572265625 0.230468750
vn -0.00000000 -0.05857748 -0.99828286
f 517/517/173 518/518/173 519/519/173
g pz_chair_seating_indoor_02_blue_rattan__rounded_rail_1__frame
v 0.33727875 0.39233750 0.53283418
v 0.40731625 0.39233750 0.53283418
v 0.40731625 -0.44272500 0.58183418
vt 0.572265625 0.230468750
vt 0.677734375 0.230468750
vt 0.677734375 0.019531250
vn -0.00000000 -0.05857748 -0.99828286
f 520/520/174 521/521/174 522/522/174
g pz_chair_seating_indoor_02_blue_rattan__rounded_rail_1__frame
v 0.44233500 -0.44272500 0.63700000
v 0.40731625 -0.44272500 0.58183418
v 0.40731625 0.39233750 0.53283418
vt 0.519531250 0.157435295
vt 0.519531250 0.084401840
vt 0.730468750 0.019531250
vn 0.84384529 -0.03143189 -0.53566517
f 523/523/175 524/524/175 525/525/175
g pz_chair_seating_indoor_02_blue_rattan__rounded_rail_1__frame
v 0.40731625 0.39233750 0.53283418
v 0.44233500 0.39233750 0.58800000
v 0.44233500 -0.44272500 0.63700000
vt 0.730468750 0.019531250
vt 0.730468750 0.092564705
vt 0.519531250 0.157435295
vn 0.84384529 -0.03143189 -0.53566517
f 526/526/176 527/527/176 528/528/176
g pz_chair_seating_indoor_02_blue_rattan__foot_-1_-1__frame
v -0.37279375 -0.37268750 0.09114000
v -0.37279375 -0.37268750 0.00000000
v -0.34316250 -0.40231875 0.00000000
vt 0.875000000 0.230468750
vt 0.875000000 0.019531250
vt 0.769531250 0.019531250
vn -0.70710678 -0.70710678 -0.00000000
f 529/529/177 530/530/177 531/531/177
g pz_chair_seating_indoor_02_blue_rattan__foot_-1_-1__frame
v -0.34316250 -0.40231875 0.00000000
v -0.34316250 -0.40231875 0.09114000
v -0.37279375 -0.37268750 0.09114000
vt 0.769531250 0.019531250
vt 0.769531250 0.230468750
vt 0.875000000 0.230468750
vn -0.70710678 -0.70710678 0.00000000
f 532/532/178 533/533/178 534/534/178
g pz_chair_seating_indoor_02_blue_rattan__foot_-1_-1__frame
v -0.34316250 -0.40231875 0.09114000
v -0.34316250 -0.40231875 0.00000000
v -0.31353125 -0.37268750 0.00000000
vt 0.769531250 0.230468750
vt 0.769531250 0.019531250
vt 0.875000000 0.019531250
vn 0.70710678 -0.70710678 0.00000000
f 535/535/179 536/536/179 537/537/179
g pz_chair_seating_indoor_02_blue_rattan__foot_-1_-1__frame
v -0.31353125 -0.37268750 0.00000000
v -0.31353125 -0.37268750 0.09114000
v -0.34316250 -0.40231875 0.09114000
vt 0.875000000 0.019531250
vt 0.875000000 0.230468750
vt 0.769531250 0.230468750
vn 0.70710678 -0.70710678 0.00000000
f 538/538/180 539/539/180 540/540/180
g pz_chair_seating_indoor_02_blue_rattan__foot_-1_-1__frame
v -0.31353125 -0.37268750 0.09114000
v -0.31353125 -0.37268750 0.00000000
v -0.34316250 -0.34305625 0.00000000
vt 0.875000000 0.230468750
vt 0.875000000 0.019531250
vt 0.980468750 0.019531250
vn 0.70710678 0.70710678 0.00000000
f 541/541/181 542/542/181 543/543/181
g pz_chair_seating_indoor_02_blue_rattan__foot_-1_-1__frame
v -0.34316250 -0.34305625 0.00000000
v -0.34316250 -0.34305625 0.09114000
v -0.31353125 -0.37268750 0.09114000
vt 0.980468750 0.019531250
vt 0.980468750 0.230468750
vt 0.875000000 0.230468750
vn 0.70710678 0.70710678 -0.00000000
f 544/544/182 545/545/182 546/546/182
g pz_chair_seating_indoor_02_blue_rattan__foot_-1_-1__frame
v -0.34316250 -0.34305625 0.09114000
v -0.34316250 -0.34305625 0.00000000
v -0.37279375 -0.37268750 0.00000000
vt 0.980468750 0.230468750
vt 0.980468750 0.019531250
vt 0.875000000 0.019531250
vn -0.70710678 0.70710678 0.00000000
f 547/547/183 548/548/183 549/549/183
g pz_chair_seating_indoor_02_blue_rattan__foot_-1_-1__frame
v -0.37279375 -0.37268750 0.00000000
v -0.37279375 -0.37268750 0.09114000
v -0.34316250 -0.34305625 0.09114000
vt 0.875000000 0.019531250
vt 0.875000000 0.230468750
vt 0.980468750 0.230468750
vn -0.70710678 0.70710678 0.00000000
f 550/550/184 551/551/184 552/552/184
g pz_chair_seating_indoor_02_blue_rattan__foot_-1_1__frame
v -0.37279375 0.32768750 0.09114000
v -0.37279375 0.32768750 0.00000000
v -0.34316250 0.29805625 0.00000000
vt 0.875000000 0.230468750
vt 0.875000000 0.019531250
vt 0.769531250 0.019531250
vn -0.70710678 -0.70710678 -0.00000000
f 553/553/185 554/554/185 555/555/185
g pz_chair_seating_indoor_02_blue_rattan__foot_-1_1__frame
v -0.34316250 0.29805625 0.00000000
v -0.34316250 0.29805625 0.09114000
v -0.37279375 0.32768750 0.09114000
vt 0.769531250 0.019531250
vt 0.769531250 0.230468750
vt 0.875000000 0.230468750
vn -0.70710678 -0.70710678 0.00000000
f 556/556/186 557/557/186 558/558/186
g pz_chair_seating_indoor_02_blue_rattan__foot_-1_1__frame
v -0.34316250 0.29805625 0.09114000
v -0.34316250 0.29805625 0.00000000
v -0.31353125 0.32768750 0.00000000
vt 0.769531250 0.230468750
vt 0.769531250 0.019531250
vt 0.875000000 0.019531250
vn 0.70710678 -0.70710678 0.00000000
f 559/559/187 560/560/187 561/561/187
g pz_chair_seating_indoor_02_blue_rattan__foot_-1_1__frame
v -0.31353125 0.32768750 0.00000000
v -0.31353125 0.32768750 0.09114000
v -0.34316250 0.29805625 0.09114000
vt 0.875000000 0.019531250
vt 0.875000000 0.230468750
vt 0.769531250 0.230468750
vn 0.70710678 -0.70710678 0.00000000
f 562/562/188 563/563/188 564/564/188
g pz_chair_seating_indoor_02_blue_rattan__foot_-1_1__frame
v -0.31353125 0.32768750 0.09114000
v -0.31353125 0.32768750 0.00000000
v -0.34316250 0.35731875 0.00000000
vt 0.875000000 0.230468750
vt 0.875000000 0.019531250
vt 0.980468750 0.019531250
vn 0.70710678 0.70710678 0.00000000
f 565/565/189 566/566/189 567/567/189
g pz_chair_seating_indoor_02_blue_rattan__foot_-1_1__frame
v -0.34316250 0.35731875 0.00000000
v -0.34316250 0.35731875 0.09114000
v -0.31353125 0.32768750 0.09114000
vt 0.980468750 0.019531250
vt 0.980468750 0.230468750
vt 0.875000000 0.230468750
vn 0.70710678 0.70710678 -0.00000000
f 568/568/190 569/569/190 570/570/190
g pz_chair_seating_indoor_02_blue_rattan__foot_-1_1__frame
v -0.34316250 0.35731875 0.09114000
v -0.34316250 0.35731875 0.00000000
v -0.37279375 0.32768750 0.00000000
vt 0.980468750 0.230468750
vt 0.980468750 0.019531250
vt 0.875000000 0.019531250
vn -0.70710678 0.70710678 0.00000000
f 571/571/191 572/572/191 573/573/191
g pz_chair_seating_indoor_02_blue_rattan__foot_-1_1__frame
v -0.37279375 0.32768750 0.00000000
v -0.37279375 0.32768750 0.09114000
v -0.34316250 0.35731875 0.09114000
vt 0.875000000 0.019531250
vt 0.875000000 0.230468750
vt 0.980468750 0.230468750
vn -0.70710678 0.70710678 0.00000000
f 574/574/192 575/575/192 576/576/192
g pz_chair_seating_indoor_02_blue_rattan__foot_1_-1__frame
v 0.30603125 -0.37268750 0.09114000
v 0.30603125 -0.37268750 0.00000000
v 0.33566250 -0.40231875 0.00000000
vt 0.875000000 0.230468750
vt 0.875000000 0.019531250
vt 0.769531250 0.019531250
vn -0.70710678 -0.70710678 -0.00000000
f 577/577/193 578/578/193 579/579/193
g pz_chair_seating_indoor_02_blue_rattan__foot_1_-1__frame
v 0.33566250 -0.40231875 0.00000000
v 0.33566250 -0.40231875 0.09114000
v 0.30603125 -0.37268750 0.09114000
vt 0.769531250 0.019531250
vt 0.769531250 0.230468750
vt 0.875000000 0.230468750
vn -0.70710678 -0.70710678 0.00000000
f 580/580/194 581/581/194 582/582/194
g pz_chair_seating_indoor_02_blue_rattan__foot_1_-1__frame
v 0.33566250 -0.40231875 0.09114000
v 0.33566250 -0.40231875 0.00000000
v 0.36529375 -0.37268750 0.00000000
vt 0.769531250 0.230468750
vt 0.769531250 0.019531250
vt 0.875000000 0.019531250
vn 0.70710678 -0.70710678 0.00000000
f 583/583/195 584/584/195 585/585/195
g pz_chair_seating_indoor_02_blue_rattan__foot_1_-1__frame
v 0.36529375 -0.37268750 0.00000000
v 0.36529375 -0.37268750 0.09114000
v 0.33566250 -0.40231875 0.09114000
vt 0.875000000 0.019531250
vt 0.875000000 0.230468750
vt 0.769531250 0.230468750
vn 0.70710678 -0.70710678 0.00000000
f 586/586/196 587/587/196 588/588/196
g pz_chair_seating_indoor_02_blue_rattan__foot_1_-1__frame
v 0.36529375 -0.37268750 0.09114000
v 0.36529375 -0.37268750 0.00000000
v 0.33566250 -0.34305625 0.00000000
vt 0.875000000 0.230468750
vt 0.875000000 0.019531250
vt 0.980468750 0.019531250
vn 0.70710678 0.70710678 0.00000000
f 589/589/197 590/590/197 591/591/197
g pz_chair_seating_indoor_02_blue_rattan__foot_1_-1__frame
v 0.33566250 -0.34305625 0.00000000
v 0.33566250 -0.34305625 0.09114000
v 0.36529375 -0.37268750 0.09114000
vt 0.980468750 0.019531250
vt 0.980468750 0.230468750
vt 0.875000000 0.230468750
vn 0.70710678 0.70710678 -0.00000000
f 592/592/198 593/593/198 594/594/198
g pz_chair_seating_indoor_02_blue_rattan__foot_1_-1__frame
v 0.33566250 -0.34305625 0.09114000
v 0.33566250 -0.34305625 0.00000000
v 0.30603125 -0.37268750 0.00000000
vt 0.980468750 0.230468750
vt 0.980468750 0.019531250
vt 0.875000000 0.019531250
vn -0.70710678 0.70710678 0.00000000
f 595/595/199 596/596/199 597/597/199
g pz_chair_seating_indoor_02_blue_rattan__foot_1_-1__frame
v 0.30603125 -0.37268750 0.00000000
v 0.30603125 -0.37268750 0.09114000
v 0.33566250 -0.34305625 0.09114000
vt 0.875000000 0.019531250
vt 0.875000000 0.230468750
vt 0.980468750 0.230468750
vn -0.70710678 0.70710678 0.00000000
f 598/598/200 599/599/200 600/600/200
g pz_chair_seating_indoor_02_blue_rattan__foot_1_1__frame
v 0.30603125 0.32768750 0.09114000
v 0.30603125 0.32768750 0.00000000
v 0.33566250 0.29805625 0.00000000
vt 0.875000000 0.230468750
vt 0.875000000 0.019531250
vt 0.769531250 0.019531250
vn -0.70710678 -0.70710678 -0.00000000
f 601/601/201 602/602/201 603/603/201
g pz_chair_seating_indoor_02_blue_rattan__foot_1_1__frame
v 0.33566250 0.29805625 0.00000000
v 0.33566250 0.29805625 0.09114000
v 0.30603125 0.32768750 0.09114000
vt 0.769531250 0.019531250
vt 0.769531250 0.230468750
vt 0.875000000 0.230468750
vn -0.70710678 -0.70710678 0.00000000
f 604/604/202 605/605/202 606/606/202
g pz_chair_seating_indoor_02_blue_rattan__foot_1_1__frame
v 0.33566250 0.29805625 0.09114000
v 0.33566250 0.29805625 0.00000000
v 0.36529375 0.32768750 0.00000000
vt 0.769531250 0.230468750
vt 0.769531250 0.019531250
vt 0.875000000 0.019531250
vn 0.70710678 -0.70710678 0.00000000
f 607/607/203 608/608/203 609/609/203
g pz_chair_seating_indoor_02_blue_rattan__foot_1_1__frame
v 0.36529375 0.32768750 0.00000000
v 0.36529375 0.32768750 0.09114000
v 0.33566250 0.29805625 0.09114000
vt 0.875000000 0.019531250
vt 0.875000000 0.230468750
vt 0.769531250 0.230468750
vn 0.70710678 -0.70710678 0.00000000
f 610/610/204 611/611/204 612/612/204
g pz_chair_seating_indoor_02_blue_rattan__foot_1_1__frame
v 0.36529375 0.32768750 0.09114000
v 0.36529375 0.32768750 0.00000000
v 0.33566250 0.35731875 0.00000000
vt 0.875000000 0.230468750
vt 0.875000000 0.019531250
vt 0.980468750 0.019531250
vn 0.70710678 0.70710678 0.00000000
f 613/613/205 614/614/205 615/615/205
g pz_chair_seating_indoor_02_blue_rattan__foot_1_1__frame
v 0.33566250 0.35731875 0.00000000
v 0.33566250 0.35731875 0.09114000
v 0.36529375 0.32768750 0.09114000
vt 0.980468750 0.019531250
vt 0.980468750 0.230468750
vt 0.875000000 0.230468750
vn 0.70710678 0.70710678 -0.00000000
f 616/616/206 617/617/206 618/618/206
g pz_chair_seating_indoor_02_blue_rattan__foot_1_1__frame
v 0.33566250 0.35731875 0.09114000
v 0.33566250 0.35731875 0.00000000
v 0.30603125 0.32768750 0.00000000
vt 0.980468750 0.230468750
vt 0.980468750 0.019531250
vt 0.875000000 0.019531250
vn -0.70710678 0.70710678 0.00000000
f 619/619/207 620/620/207 621/621/207
g pz_chair_seating_indoor_02_blue_rattan__foot_1_1__frame
v 0.30603125 0.32768750 0.00000000
v 0.30603125 0.32768750 0.09114000
v 0.33566250 0.35731875 0.09114000
vt 0.875000000 0.019531250
vt 0.875000000 0.230468750
vt 0.980468750 0.230468750
vn -0.70710678 0.70710678 0.00000000
f 622/622/208 623/623/208 624/624/208
