# G015 native chair fidelity candidate; tile units XYZ, Z up.
# Surface charts and native palette swatches; 32x32 PNG, nearest sampling.
mtllib pz_chair_seating_indoor_03_fancy_wooden_fidelity_r1.mtl
o pz_chair_seating_indoor_03_fancy_wooden_fidelity_r1
usemtl pz_chair_seating_indoor_03_fancy_wooden_fidelity_r1_PS1
g seat
v 0.000000000 0.000000000 0.438603558
vt 0.250000000 0.750000000
vn 0.000000000 0.093889701 0.995582605
v -0.220167372 -0.224341161 0.459760340
vt 0.095678191 0.578125000
vn 0.000000000 0.093889701 0.995582605
v 0.220167372 -0.224341161 0.459760340
vt 0.404321809 0.578125000
vn 0.000000000 0.093889701 0.995582605
f 1/1/1 2/2/2 3/3/3
g seat
v -0.220167372 -0.224341161 0.459760340
vt 0.095678191 0.907848171
vn 0.000000000 -1.000000000 0.000000000
v -0.220167372 -0.224341161 0.406391197
vt 0.095678191 0.578125000
vn 0.000000000 -1.000000000 0.000000000
v 0.220167372 -0.224341161 0.406391197
vt 0.404321809 0.578125000
vn 0.000000000 -1.000000000 0.000000000
f 4/4/4 5/5/5 6/6/6
g seat
v -0.220167372 -0.224341161 0.459760340
vt 0.095678191 0.907848171
vn 0.000000000 -1.000000000 0.000000000
v 0.220167372 -0.224341161 0.406391197
vt 0.404321809 0.578125000
vn 0.000000000 -1.000000000 0.000000000
v 0.220167372 -0.224341161 0.459760340
vt 0.404321809 0.907848171
vn 0.000000000 -1.000000000 0.000000000
f 7/7/7 8/8/8 9/9/9
g seat
v 0.000000000 0.000000000 0.438603558
vt 0.250000000 0.750000000
vn -0.092947369 0.002679584 0.995667418
v 0.220167372 -0.224341161 0.459760340
vt 0.404321809 0.578125000
vn -0.092947369 0.002679584 0.995667418
v 0.245210106 -0.199298427 0.462030729
vt 0.421875000 0.597311046
vn -0.092947369 0.002679584 0.995667418
f 10/10/10 11/11/11 12/12/12
g seat
v 0.220167372 -0.224341161 0.459760340
vt 0.078125000 0.907848171
vn 0.707106781 -0.707106781 0.000000000
v 0.220167372 -0.224341161 0.406391197
vt 0.078125000 0.578125000
vn 0.707106781 -0.707106781 0.000000000
v 0.245210106 -0.199298427 0.406391197
vt 0.097311046 0.578125000
vn 0.707106781 -0.707106781 0.000000000
f 13/13/13 14/14/14 15/15/15
g seat
v 0.220167372 -0.224341161 0.459760340
vt 0.078125000 0.907848171
vn 0.707106781 -0.707106781 0.000000000
v 0.245210106 -0.199298427 0.406391197
vt 0.097311046 0.578125000
vn 0.707106781 -0.707106781 0.000000000
v 0.245210106 -0.199298427 0.462030729
vt 0.097311046 0.921875000
vn 0.707106781 -0.707106781 0.000000000
f 16/16/16 17/17/17 18/18/18
g seat
v 0.000000000 0.000000000 0.438603558
vt 0.250000000 0.750000000
vn -0.095106109 0.000000000 0.995467141
v 0.245210106 -0.199298427 0.462030729
vt 0.421875000 0.597311046
vn -0.095106109 0.000000000 0.995467141
v 0.245210106 0.199298427 0.462030729
vt 0.421875000 0.902688954
vn -0.095106109 0.000000000 0.995467141
f 19/19/19 20/20/20 21/21/21
g seat
v 0.245210106 -0.199298427 0.462030729
vt 0.097311046 0.921875000
vn 1.000000000 0.000000000 0.000000000
v 0.245210106 -0.199298427 0.406391197
vt 0.097311046 0.578125000
vn 1.000000000 0.000000000 0.000000000
v 0.245210106 0.199298427 0.406391197
vt 0.402688954 0.578125000
vn 1.000000000 0.000000000 0.000000000
f 22/22/22 23/23/23 24/24/24
g seat
v 0.245210106 -0.199298427 0.462030729
vt 0.097311046 0.921875000
vn 1.000000000 -0.000000000 0.000000000
v 0.245210106 0.199298427 0.406391197
vt 0.402688954 0.578125000
vn 1.000000000 -0.000000000 0.000000000
v 0.245210106 0.199298427 0.462030729
vt 0.402688954 0.921875000
vn 1.000000000 -0.000000000 0.000000000
f 25/25/25 26/26/26 27/27/27
g seat
v 0.000000000 0.000000000 0.438603558
vt 0.250000000 0.750000000
vn -0.092947369 -0.002679584 0.995667418
v 0.245210106 0.199298427 0.462030729
vt 0.421875000 0.902688954
vn -0.092947369 -0.002679584 0.995667418
v 0.220167372 0.224341161 0.459760340
vt 0.404321809 0.921875000
vn -0.092947369 -0.002679584 0.995667418
f 28/28/28 29/29/29 30/30/30
g seat
v 0.245210106 0.199298427 0.462030729
vt 0.402688954 0.921875000
vn 0.707106781 0.707106781 0.000000000
v 0.245210106 0.199298427 0.406391197
vt 0.402688954 0.578125000
vn 0.707106781 0.707106781 0.000000000
v 0.220167372 0.224341161 0.406391197
vt 0.421875000 0.578125000
vn 0.707106781 0.707106781 0.000000000
f 31/31/31 32/32/32 33/33/33
g seat
v 0.245210106 0.199298427 0.462030729
vt 0.402688954 0.921875000
vn 0.707106781 0.707106781 0.000000000
v 0.220167372 0.224341161 0.406391197
vt 0.421875000 0.578125000
vn 0.707106781 0.707106781 0.000000000
v 0.220167372 0.224341161 0.459760340
vt 0.421875000 0.907848171
vn 0.707106781 0.707106781 0.000000000
f 34/34/34 35/35/35 36/36/36
g seat
v 0.000000000 0.000000000 0.438603558
vt 0.250000000 0.750000000
vn 0.000000000 -0.093889701 0.995582605
v 0.220167372 0.224341161 0.459760340
vt 0.404321809 0.921875000
vn 0.000000000 -0.093889701 0.995582605
v -0.220167372 0.224341161 0.459760340
vt 0.095678191 0.921875000
vn 0.000000000 -0.093889701 0.995582605
f 37/37/37 38/38/38 39/39/39
g seat
v 0.220167372 0.224341161 0.459760340
vt 0.404321809 0.907848171
vn 0.000000000 1.000000000 0.000000000
v 0.220167372 0.224341161 0.406391197
vt 0.404321809 0.578125000
vn 0.000000000 1.000000000 0.000000000
v -0.220167372 0.224341161 0.406391197
vt 0.095678191 0.578125000
vn 0.000000000 1.000000000 0.000000000
f 40/40/40 41/41/41 42/42/42
g seat
v 0.220167372 0.224341161 0.459760340
vt 0.404321809 0.907848171
vn 0.000000000 1.000000000 0.000000000
v -0.220167372 0.224341161 0.406391197
vt 0.095678191 0.578125000
vn 0.000000000 1.000000000 0.000000000
v -0.220167372 0.224341161 0.459760340
vt 0.095678191 0.907848171
vn 0.000000000 1.000000000 0.000000000
f 43/43/43 44/44/44 45/45/45
g seat
v 0.000000000 0.000000000 0.438603558
vt 0.250000000 0.750000000
vn 0.092947369 -0.002679584 0.995667418
v -0.220167372 0.224341161 0.459760340
vt 0.095678191 0.921875000
vn 0.092947369 -0.002679584 0.995667418
v -0.245210106 0.199298427 0.462030729
vt 0.078125000 0.902688954
vn 0.092947369 -0.002679584 0.995667418
f 46/46/46 47/47/47 48/48/48
g seat
v -0.220167372 0.224341161 0.459760340
vt 0.421875000 0.907848171
vn -0.707106781 0.707106781 0.000000000
v -0.220167372 0.224341161 0.406391197
vt 0.421875000 0.578125000
vn -0.707106781 0.707106781 0.000000000
v -0.245210106 0.199298427 0.406391197
vt 0.402688954 0.578125000
vn -0.707106781 0.707106781 0.000000000
f 49/49/49 50/50/50 51/51/51
g seat
v -0.220167372 0.224341161 0.459760340
vt 0.421875000 0.907848171
vn -0.707106781 0.707106781 0.000000000
v -0.245210106 0.199298427 0.406391197
vt 0.402688954 0.578125000
vn -0.707106781 0.707106781 0.000000000
v -0.245210106 0.199298427 0.462030729
vt 0.402688954 0.921875000
vn -0.707106781 0.707106781 0.000000000
f 52/52/52 53/53/53 54/54/54
g seat
v 0.000000000 0.000000000 0.438603558
vt 0.250000000 0.750000000
vn 0.095106109 0.000000000 0.995467141
v -0.245210106 0.199298427 0.462030729
vt 0.078125000 0.902688954
vn 0.095106109 0.000000000 0.995467141
v -0.245210106 -0.199298427 0.462030729
vt 0.078125000 0.597311046
vn 0.095106109 0.000000000 0.995467141
f 55/55/55 56/56/56 57/57/57
g seat
v -0.245210106 0.199298427 0.462030729
vt 0.402688954 0.921875000
vn -1.000000000 0.000000000 -0.000000000
v -0.245210106 0.199298427 0.406391197
vt 0.402688954 0.578125000
vn -1.000000000 0.000000000 -0.000000000
v -0.245210106 -0.199298427 0.406391197
vt 0.097311046 0.578125000
vn -1.000000000 0.000000000 -0.000000000
f 58/58/58 59/59/59 60/60/60
g seat
v -0.245210106 0.199298427 0.462030729
vt 0.402688954 0.921875000
vn -1.000000000 -0.000000000 0.000000000
v -0.245210106 -0.199298427 0.406391197
vt 0.097311046 0.578125000
vn -1.000000000 -0.000000000 0.000000000
v -0.245210106 -0.199298427 0.462030729
vt 0.097311046 0.921875000
vn -1.000000000 -0.000000000 0.000000000
f 61/61/61 62/62/62 63/63/63
g seat
v 0.000000000 0.000000000 0.438603558
vt 0.250000000 0.750000000
vn 0.092947369 0.002679584 0.995667418
v -0.245210106 -0.199298427 0.462030729
vt 0.078125000 0.597311046
vn 0.092947369 0.002679584 0.995667418
v -0.220167372 -0.224341161 0.459760340
vt 0.095678191 0.578125000
vn 0.092947369 0.002679584 0.995667418
f 64/64/64 65/65/65 66/66/66
g seat
v -0.245210106 -0.199298427 0.462030729
vt 0.097311046 0.921875000
vn -0.707106781 -0.707106781 -0.000000000
v -0.245210106 -0.199298427 0.406391197
vt 0.097311046 0.578125000
vn -0.707106781 -0.707106781 -0.000000000
v -0.220167372 -0.224341161 0.406391197
vt 0.078125000 0.578125000
vn -0.707106781 -0.707106781 -0.000000000
f 67/67/67 68/68/68 69/69/69
g seat
v -0.245210106 -0.199298427 0.462030729
vt 0.097311046 0.921875000
vn -0.707106781 -0.707106781 0.000000000
v -0.220167372 -0.224341161 0.406391197
vt 0.078125000 0.578125000
vn -0.707106781 -0.707106781 0.000000000
v -0.220167372 -0.224341161 0.459760340
vt 0.078125000 0.907848171
vn -0.707106781 -0.707106781 0.000000000
f 70/70/70 71/71/71 72/72/72
g seat
v -0.245210106 -0.199298427 0.406391197
vt 0.078125000 0.597311046
vn 0.000000000 0.000000000 -1.000000000
v -0.245210106 0.199298427 0.406391197
vt 0.078125000 0.902688954
vn 0.000000000 0.000000000 -1.000000000
v -0.220167372 0.224341161 0.406391197
vt 0.095678191 0.921875000
vn 0.000000000 0.000000000 -1.000000000
f 73/73/73 74/74/74 75/75/75
g seat
v -0.245210106 -0.199298427 0.406391197
vt 0.078125000 0.597311046
vn 0.000000000 0.000000000 -1.000000000
v -0.220167372 0.224341161 0.406391197
vt 0.095678191 0.921875000
vn 0.000000000 0.000000000 -1.000000000
v 0.220167372 0.224341161 0.406391197
vt 0.404321809 0.921875000
vn 0.000000000 0.000000000 -1.000000000
f 76/76/76 77/77/77 78/78/78
g seat
v -0.245210106 -0.199298427 0.406391197
vt 0.078125000 0.597311046
vn 0.000000000 0.000000000 -1.000000000
v 0.220167372 0.224341161 0.406391197
vt 0.404321809 0.921875000
vn 0.000000000 0.000000000 -1.000000000
v 0.245210106 0.199298427 0.406391197
vt 0.421875000 0.902688954
vn 0.000000000 0.000000000 -1.000000000
f 79/79/79 80/80/80 81/81/81
g seat
v -0.245210106 -0.199298427 0.406391197
vt 0.078125000 0.597311046
vn 0.000000000 0.000000000 -1.000000000
v 0.245210106 0.199298427 0.406391197
vt 0.421875000 0.902688954
vn 0.000000000 0.000000000 -1.000000000
v 0.245210106 -0.199298427 0.406391197
vt 0.421875000 0.597311046
vn 0.000000000 0.000000000 -1.000000000
f 82/82/82 83/83/83 84/84/84
g seat
v -0.245210106 -0.199298427 0.406391197
vt 0.078125000 0.597311046
vn 0.000000000 0.000000000 -1.000000000
v 0.245210106 -0.199298427 0.406391197
vt 0.421875000 0.597311046
vn 0.000000000 0.000000000 -1.000000000
v 0.220167372 -0.224341161 0.406391197
vt 0.404321809 0.578125000
vn 0.000000000 0.000000000 -1.000000000
f 85/85/85 86/86/86 87/87/87
g seat
v -0.245210106 -0.199298427 0.406391197
vt 0.078125000 0.597311046
vn 0.000000000 0.000000000 -1.000000000
v 0.220167372 -0.224341161 0.406391197
vt 0.404321809 0.578125000
vn 0.000000000 0.000000000 -1.000000000
v -0.220167372 -0.224341161 0.406391197
vt 0.095678191 0.578125000
vn 0.000000000 0.000000000 -1.000000000
f 88/88/88 89/89/89 90/90/90
g wood
v -0.193585707 0.183145971 0.000000000
vt 0.609838574 0.892822911
vn -0.021237099 0.042474198 -0.998871828
v -0.234269644 0.183145971 0.000864985
vt 0.580382274 0.892822911
vn -0.021237099 0.042474198 -0.998871828
v -0.234227669 0.223798461 0.002592724
vt 0.580412665 0.921875000
vn -0.021237099 0.042474198 -0.998871828
f 91/91/91 92/92/92 93/93/93
g wood
v -0.193585707 0.183145971 0.000000000
vt 0.609838574 0.892822911
vn -0.021237099 0.042474198 -0.998871828
v -0.234227669 0.223798461 0.002592724
vt 0.580412665 0.921875000
vn -0.021237099 0.042474198 -0.998871828
v -0.193543732 0.223798461 0.001727740
vt 0.609868965 0.921875000
vn -0.021237099 0.042474198 -0.998871828
f 94/94/94 95/95/95 96/96/96
g wood
v -0.183109260 0.202929515 0.431225878
vt 0.617423812 0.906961117
vn 0.021237099 -0.042474198 0.998871828
v -0.223793197 0.202929515 0.432090863
vt 0.587967512 0.906961117
vn 0.021237099 -0.042474198 0.998871828
v -0.223835172 0.162277025 0.430363123
vt 0.587937121 0.877909028
vn 0.021237099 -0.042474198 0.998871828
f 97/97/97 98/98/98 99/99/99
g wood
v -0.183109260 0.202929515 0.431225878
vt 0.617423812 0.906961117
vn 0.021237099 -0.042474198 0.998871828
v -0.223835172 0.162277025 0.430363123
vt 0.587937121 0.877909028
vn 0.021237099 -0.042474198 0.998871828
v -0.183151234 0.162277025 0.429498138
vt 0.617393422 0.877909028
vn 0.021237099 -0.042474198 0.998871828
f 100/100/100 101/101/101 102/102/102
g wood
v -0.193543732 0.223798461 0.001727740
vt 0.609868965 0.578677115
vn 0.001031309 0.998822317 0.048506862
v -0.234227669 0.223798461 0.002592724
vt 0.580412665 0.578953529
vn 0.001031309 0.998822317 0.048506862
v -0.223793197 0.202929515 0.432090863
vt 0.587967512 0.716203623
vn 0.001031309 0.998822317 0.048506862
f 103/103/103 104/104/104 105/105/105
g wood
v -0.193543732 0.223798461 0.001727740
vt 0.609868965 0.578677115
vn 0.001031309 0.998822317 0.048506862
v -0.223793197 0.202929515 0.432090863
vt 0.587967512 0.716203623
vn 0.001031309 0.998822317 0.048506862
v -0.183109260 0.202929515 0.431225878
vt 0.617423812 0.715927209
vn 0.001031309 0.998822317 0.048506862
f 106/106/106 107/107/107 108/108/108
g wood
v -0.234227669 0.223798461 0.002592724
vt 0.921875000 0.578953529
vn -0.999705018 -0.000000000 0.024287404
v -0.234269644 0.183145971 0.000864985
vt 0.892822911 0.578401414
vn -0.999705018 -0.000000000 0.024287404
v -0.223835172 0.162277025 0.430363123
vt 0.877909028 0.715651508
vn -0.999705018 -0.000000000 0.024287404
f 109/109/109 110/110/110 111/111/111
g wood
v -0.234227669 0.223798461 0.002592724
vt 0.921875000 0.578953529
vn -0.999705018 -0.000000000 0.024287404
v -0.223835172 0.162277025 0.430363123
vt 0.877909028 0.715651508
vn -0.999705018 -0.000000000 0.024287404
v -0.223793197 0.202929515 0.432090863
vt 0.906961117 0.716203623
vn -0.999705018 -0.000000000 0.024287404
f 112/112/112 113/113/113 114/114/114
g wood
v -0.234269644 0.183145971 0.000864985
vt 0.580382274 0.578401414
vn -0.001031309 -0.998822317 -0.048506862
v -0.193585707 0.183145971 0.000000000
vt 0.609838574 0.578125000
vn -0.001031309 -0.998822317 -0.048506862
v -0.183151234 0.162277025 0.429498138
vt 0.617393422 0.715375094
vn -0.001031309 -0.998822317 -0.048506862
f 115/115/115 116/116/116 117/117/117
g wood
v -0.234269644 0.183145971 0.000864985
vt 0.580382274 0.578401414
vn -0.001031309 -0.998822317 -0.048506862
v -0.183151234 0.162277025 0.429498138
vt 0.617393422 0.715375094
vn -0.001031309 -0.998822317 -0.048506862
v -0.223835172 0.162277025 0.430363123
vt 0.587937121 0.715651508
vn -0.001031309 -0.998822317 -0.048506862
f 118/118/118 119/119/119 120/120/120
g wood
v -0.193585707 0.183145971 0.000000000
vt 0.892822911 0.578125000
vn 0.999705018 0.000000000 -0.024287404
v -0.193543732 0.223798461 0.001727740
vt 0.921875000 0.578677115
vn 0.999705018 0.000000000 -0.024287404
v -0.183109260 0.202929515 0.431225878
vt 0.906961117 0.715927209
vn 0.999705018 0.000000000 -0.024287404
f 121/121/121 122/122/122 123/123/123
g wood
v -0.193585707 0.183145971 0.000000000
vt 0.892822911 0.578125000
vn 0.999705018 0.000000000 -0.024287404
v -0.183109260 0.202929515 0.431225878
vt 0.906961117 0.715927209
vn 0.999705018 0.000000000 -0.024287404
v -0.183151234 0.162277025 0.429498138
vt 0.877909028 0.715375094
vn 0.999705018 0.000000000 -0.024287404
f 124/124/124 125/125/125 126/126/126
g wood
v -0.190433130 -0.230073566 0.000637642
vt 0.612121127 0.597517731
vn -0.005951544 0.022105734 -0.999737923
v -0.237387306 -0.230073566 0.000917165
vt 0.578125000 0.597517731
vn -0.005951544 0.022105734 -0.999737923
v -0.237380246 -0.183131549 0.001955083
vt 0.578130112 0.631064598
vn -0.005951544 0.022105734 -0.999737923
f 127/127/127 128/128/128 129/129/129
g wood
v -0.190433130 -0.230073566 0.000637642
vt 0.612121127 0.597517731
vn -0.005951544 0.022105734 -0.999737923
v -0.237380246 -0.183131549 0.001955083
vt 0.578130112 0.631064598
vn -0.005951544 0.022105734 -0.999737923
v -0.190426070 -0.183131549 0.001675559
vt 0.612126239 0.631064598
vn -0.005951544 0.022105734 -0.999737923
f 130/130/130 131/131/131 132/132/132
g wood
v -0.183121939 -0.210261178 1.075420906
vt 0.617414632 0.611676551
vn 0.005951544 -0.022105734 0.999737923
v -0.230076115 -0.210261178 1.075700429
vt 0.583418505 0.611676551
vn 0.005951544 -0.022105734 0.999737923
v -0.230083176 -0.257203194 1.074662511
vt 0.583413393 0.578129684
vn 0.005951544 -0.022105734 0.999737923
f 133/133/133 134/134/134 135/135/135
g wood
v -0.183121939 -0.210261178 1.075420906
vt 0.617414632 0.611676551
vn 0.005951544 -0.022105734 0.999737923
v -0.230083176 -0.257203194 1.074662511
vt 0.583413393 0.578129684
vn 0.005951544 -0.022105734 0.999737923
v -0.183129000 -0.257203194 1.074382988
vt 0.617409520 0.578129684
vn 0.005951544 -0.022105734 0.999737923
f 136/136/136 137/137/137 138/138/138
g wood
v -0.190426070 -0.183131549 0.001675559
vt 0.612126239 0.578660440
vn 0.000150359 0.999680973 0.025257269
v -0.237380246 -0.183131549 0.001955083
vt 0.578130112 0.578749765
vn 0.000150359 0.999680973 0.025257269
v -0.230076115 -0.210261178 1.075700429
vt 0.583418505 0.921875000
vn 0.000150359 0.999680973 0.025257269
f 139/139/139 140/140/140 141/141/141
g wood
v -0.190426070 -0.183131549 0.001675559
vt 0.612126239 0.578660440
vn 0.000150359 0.999680973 0.025257269
v -0.230076115 -0.210261178 1.075700429
vt 0.583418505 0.921875000
vn 0.000150359 0.999680973 0.025257269
v -0.183121939 -0.210261178 1.075420906
vt 0.617414632 0.921785676
vn 0.000150359 0.999680973 0.025257269
f 142/142/142 143/143/143 144/144/144
g wood
v -0.237380246 -0.183131549 0.001955083
vt 0.631064598 0.578749765
vn -0.999976864 -0.000000000 0.006802322
v -0.237387306 -0.230073566 0.000917165
vt 0.597517731 0.578418089
vn -0.999976864 -0.000000000 0.006802322
v -0.230083176 -0.257203194 1.074662511
vt 0.578129684 0.921543324
vn -0.999976864 -0.000000000 0.006802322
f 145/145/145 146/146/146 147/147/147
g wood
v -0.237380246 -0.183131549 0.001955083
vt 0.631064598 0.578749765
vn -0.999976864 0.000000000 0.006802322
v -0.230083176 -0.257203194 1.074662511
vt 0.578129684 0.921543324
vn -0.999976864 0.000000000 0.006802322
v -0.230076115 -0.210261178 1.075700429
vt 0.611676551 0.921875000
vn -0.999976864 0.000000000 0.006802322
f 148/148/148 149/149/149 150/150/150
g wood
v -0.237387306 -0.230073566 0.000917165
vt 0.578125000 0.578418089
vn -0.000150359 -0.999680973 -0.025257269
v -0.190433130 -0.230073566 0.000637642
vt 0.612121127 0.578328764
vn -0.000150359 -0.999680973 -0.025257269
v -0.183129000 -0.257203194 1.074382988
vt 0.617409520 0.921454000
vn -0.000150359 -0.999680973 -0.025257269
f 151/151/151 152/152/152 153/153/153
g wood
v -0.237387306 -0.230073566 0.000917165
vt 0.578125000 0.578418089
vn -0.000150359 -0.999680973 -0.025257269
v -0.183129000 -0.257203194 1.074382988
vt 0.617409520 0.921454000
vn -0.000150359 -0.999680973 -0.025257269
v -0.230083176 -0.257203194 1.074662511
vt 0.583413393 0.921543324
vn -0.000150359 -0.999680973 -0.025257269
f 154/154/154 155/155/155 156/156/156
g wood
v -0.190433130 -0.230073566 0.000637642
vt 0.597517731 0.578328764
vn 0.999976864 0.000000000 -0.006802322
v -0.190426070 -0.183131549 0.001675559
vt 0.631064598 0.578660440
vn 0.999976864 0.000000000 -0.006802322
v -0.183121939 -0.210261178 1.075420906
vt 0.611676551 0.921785676
vn 0.999976864 0.000000000 -0.006802322
f 157/157/157 158/158/158 159/159/159
g wood
v -0.190433130 -0.230073566 0.000637642
vt 0.597517731 0.578328764
vn 0.999976864 -0.000000000 -0.006802322
v -0.183121939 -0.210261178 1.075420906
vt 0.611676551 0.921785676
vn 0.999976864 -0.000000000 -0.006802322
v -0.183129000 -0.257203194 1.074382988
vt 0.578129684 0.921454000
vn 0.999976864 -0.000000000 -0.006802322
f 160/160/160 161/161/161 162/162/162
g wood
v 0.234269644 0.183145971 0.000864985
vt 0.919617726 0.892822911
vn 0.021237099 0.042474198 -0.998871828
v 0.193585707 0.183145971 0.000000000
vt 0.890161426 0.892822911
vn 0.021237099 0.042474198 -0.998871828
v 0.193543732 0.223798461 0.001727740
vt 0.890131035 0.921875000
vn 0.021237099 0.042474198 -0.998871828
f 163/163/163 164/164/164 165/165/165
g wood
v 0.234269644 0.183145971 0.000864985
vt 0.919617726 0.892822911
vn 0.021237099 0.042474198 -0.998871828
v 0.193543732 0.223798461 0.001727740
vt 0.890131035 0.921875000
vn 0.021237099 0.042474198 -0.998871828
v 0.234227669 0.223798461 0.002592724
vt 0.919587335 0.921875000
vn 0.021237099 0.042474198 -0.998871828
f 166/166/166 167/167/167 168/168/168
g wood
v 0.223793197 0.202929515 0.432090863
vt 0.912032488 0.906961117
vn -0.021237099 -0.042474198 0.998871828
v 0.183109260 0.202929515 0.431225878
vt 0.882576188 0.906961117
vn -0.021237099 -0.042474198 0.998871828
v 0.183151234 0.162277025 0.429498138
vt 0.882606578 0.877909028
vn -0.021237099 -0.042474198 0.998871828
f 169/169/169 170/170/170 171/171/171
g wood
v 0.223793197 0.202929515 0.432090863
vt 0.912032488 0.906961117
vn -0.021237099 -0.042474198 0.998871828
v 0.183151234 0.162277025 0.429498138
vt 0.882606578 0.877909028
vn -0.021237099 -0.042474198 0.998871828
v 0.223835172 0.162277025 0.430363123
vt 0.912062879 0.877909028
vn -0.021237099 -0.042474198 0.998871828
f 172/172/172 173/173/173 174/174/174
g wood
v 0.234227669 0.223798461 0.002592724
vt 0.919587335 0.578953529
vn -0.001031309 0.998822317 0.048506862
v 0.193543732 0.223798461 0.001727740
vt 0.890131035 0.578677115
vn -0.001031309 0.998822317 0.048506862
v 0.183109260 0.202929515 0.431225878
vt 0.882576188 0.715927209
vn -0.001031309 0.998822317 0.048506862
f 175/175/175 176/176/176 177/177/177
g wood
v 0.234227669 0.223798461 0.002592724
vt 0.919587335 0.578953529
vn -0.001031309 0.998822317 0.048506862
v 0.183109260 0.202929515 0.431225878
vt 0.882576188 0.715927209
vn -0.001031309 0.998822317 0.048506862
v 0.223793197 0.202929515 0.432090863
vt 0.912032488 0.716203623
vn -0.001031309 0.998822317 0.048506862
f 178/178/178 179/179/179 180/180/180
g wood
v 0.193543732 0.223798461 0.001727740
vt 0.921875000 0.578677115
vn -0.999705018 0.000000000 -0.024287404
v 0.193585707 0.183145971 0.000000000
vt 0.892822911 0.578125000
vn -0.999705018 0.000000000 -0.024287404
v 0.183151234 0.162277025 0.429498138
vt 0.877909028 0.715375094
vn -0.999705018 0.000000000 -0.024287404
f 181/181/181 182/182/182 183/183/183
g wood
v 0.193543732 0.223798461 0.001727740
vt 0.921875000 0.578677115
vn -0.999705018 0.000000000 -0.024287404
v 0.183151234 0.162277025 0.429498138
vt 0.877909028 0.715375094
vn -0.999705018 0.000000000 -0.024287404
v 0.183109260 0.202929515 0.431225878
vt 0.906961117 0.715927209
vn -0.999705018 0.000000000 -0.024287404
f 184/184/184 185/185/185 186/186/186
g wood
v 0.193585707 0.183145971 0.000000000
vt 0.890161426 0.578125000
vn 0.001031309 -0.998822317 -0.048506862
v 0.234269644 0.183145971 0.000864985
vt 0.919617726 0.578401414
vn 0.001031309 -0.998822317 -0.048506862
v 0.223835172 0.162277025 0.430363123
vt 0.912062879 0.715651508
vn 0.001031309 -0.998822317 -0.048506862
f 187/187/187 188/188/188 189/189/189
g wood
v 0.193585707 0.183145971 0.000000000
vt 0.890161426 0.578125000
vn 0.001031309 -0.998822317 -0.048506862
v 0.223835172 0.162277025 0.430363123
vt 0.912062879 0.715651508
vn 0.001031309 -0.998822317 -0.048506862
v 0.183151234 0.162277025 0.429498138
vt 0.882606578 0.715375094
vn 0.001031309 -0.998822317 -0.048506862
f 190/190/190 191/191/191 192/192/192
g wood
v 0.234269644 0.183145971 0.000864985
vt 0.892822911 0.578401414
vn 0.999705018 -0.000000000 0.024287404
v 0.234227669 0.223798461 0.002592724
vt 0.921875000 0.578953529
vn 0.999705018 -0.000000000 0.024287404
v 0.223793197 0.202929515 0.432090863
vt 0.906961117 0.716203623
vn 0.999705018 -0.000000000 0.024287404
f 193/193/193 194/194/194 195/195/195
g wood
v 0.234269644 0.183145971 0.000864985
vt 0.892822911 0.578401414
vn 0.999705018 -0.000000000 0.024287404
v 0.223793197 0.202929515 0.432090863
vt 0.906961117 0.716203623
vn 0.999705018 -0.000000000 0.024287404
v 0.223835172 0.162277025 0.430363123
vt 0.877909028 0.715651508
vn 0.999705018 -0.000000000 0.024287404
f 196/196/196 197/197/197 198/198/198
g wood
v 0.237387306 -0.230073566 0.000917165
vt 0.921875000 0.597517731
vn 0.005951544 0.022105734 -0.999737923
v 0.190433130 -0.230073566 0.000637642
vt 0.887878873 0.597517731
vn 0.005951544 0.022105734 -0.999737923
v 0.190426070 -0.183131549 0.001675559
vt 0.887873761 0.631064598
vn 0.005951544 0.022105734 -0.999737923
f 199/199/199 200/200/200 201/201/201
g wood
v 0.237387306 -0.230073566 0.000917165
vt 0.921875000 0.597517731
vn 0.005951544 0.022105734 -0.999737923
v 0.190426070 -0.183131549 0.001675559
vt 0.887873761 0.631064598
vn 0.005951544 0.022105734 -0.999737923
v 0.237380246 -0.183131549 0.001955083
vt 0.921869888 0.631064598
vn 0.005951544 0.022105734 -0.999737923
f 202/202/202 203/203/203 204/204/204
g wood
v 0.230076115 -0.210261178 1.075700429
vt 0.916581495 0.611676551
vn -0.005951544 -0.022105734 0.999737923
v 0.183121939 -0.210261178 1.075420906
vt 0.882585368 0.611676551
vn -0.005951544 -0.022105734 0.999737923
v 0.183129000 -0.257203194 1.074382988
vt 0.882590480 0.578129684
vn -0.005951544 -0.022105734 0.999737923
f 205/205/205 206/206/206 207/207/207
g wood
v 0.230076115 -0.210261178 1.075700429
vt 0.916581495 0.611676551
vn -0.005951544 -0.022105734 0.999737923
v 0.183129000 -0.257203194 1.074382988
vt 0.882590480 0.578129684
vn -0.005951544 -0.022105734 0.999737923
v 0.230083176 -0.257203194 1.074662511
vt 0.916586607 0.578129684
vn -0.005951544 -0.022105734 0.999737923
f 208/208/208 209/209/209 210/210/210
g wood
v 0.237380246 -0.183131549 0.001955083
vt 0.921869888 0.578749765
vn -0.000150359 0.999680973 0.025257269
v 0.190426070 -0.183131549 0.001675559
vt 0.887873761 0.578660440
vn -0.000150359 0.999680973 0.025257269
v 0.183121939 -0.210261178 1.075420906
vt 0.882585368 0.921785676
vn -0.000150359 0.999680973 0.025257269
f 211/211/211 212/212/212 213/213/213
g wood
v 0.237380246 -0.183131549 0.001955083
vt 0.921869888 0.578749765
vn -0.000150359 0.999680973 0.025257269
v 0.183121939 -0.210261178 1.075420906
vt 0.882585368 0.921785676
vn -0.000150359 0.999680973 0.025257269
v 0.230076115 -0.210261178 1.075700429
vt 0.916581495 0.921875000
vn -0.000150359 0.999680973 0.025257269
f 214/214/214 215/215/215 216/216/216
g wood
v 0.190426070 -0.183131549 0.001675559
vt 0.631064598 0.578660440
vn -0.999976864 0.000000000 -0.006802322
v 0.190433130 -0.230073566 0.000637642
vt 0.597517731 0.578328764
vn -0.999976864 0.000000000 -0.006802322
v 0.183129000 -0.257203194 1.074382988
vt 0.578129684 0.921454000
vn -0.999976864 0.000000000 -0.006802322
f 217/217/217 218/218/218 219/219/219
g wood
v 0.190426070 -0.183131549 0.001675559
vt 0.631064598 0.578660440
vn -0.999976864 -0.000000000 -0.006802322
v 0.183129000 -0.257203194 1.074382988
vt 0.578129684 0.921454000
vn -0.999976864 -0.000000000 -0.006802322
v 0.183121939 -0.210261178 1.075420906
vt 0.611676551 0.921785676
vn -0.999976864 -0.000000000 -0.006802322
f 220/220/220 221/221/221 222/222/222
g wood
v 0.190433130 -0.230073566 0.000637642
vt 0.887878873 0.578328764
vn 0.000150359 -0.999680973 -0.025257269
v 0.237387306 -0.230073566 0.000917165
vt 0.921875000 0.578418089
vn 0.000150359 -0.999680973 -0.025257269
v 0.230083176 -0.257203194 1.074662511
vt 0.916586607 0.921543324
vn 0.000150359 -0.999680973 -0.025257269
f 223/223/223 224/224/224 225/225/225
g wood
v 0.190433130 -0.230073566 0.000637642
vt 0.887878873 0.578328764
vn 0.000150359 -0.999680973 -0.025257269
v 0.230083176 -0.257203194 1.074662511
vt 0.916586607 0.921543324
vn 0.000150359 -0.999680973 -0.025257269
v 0.183129000 -0.257203194 1.074382988
vt 0.882590480 0.921454000
vn 0.000150359 -0.999680973 -0.025257269
f 226/226/226 227/227/227 228/228/228
g wood
v 0.237387306 -0.230073566 0.000917165
vt 0.597517731 0.578418089
vn 0.999976864 -0.000000000 0.006802322
v 0.237380246 -0.183131549 0.001955083
vt 0.631064598 0.578749765
vn 0.999976864 -0.000000000 0.006802322
v 0.230076115 -0.210261178 1.075700429
vt 0.611676551 0.921875000
vn 0.999976864 -0.000000000 0.006802322
f 229/229/229 230/230/230 231/231/231
g wood
v 0.237387306 -0.230073566 0.000917165
vt 0.597517731 0.578418089
vn 0.999976864 0.000000000 0.006802322
v 0.230076115 -0.210261178 1.075700429
vt 0.611676551 0.921875000
vn 0.999976864 0.000000000 0.006802322
v 0.230083176 -0.257203194 1.074662511
vt 0.578129684 0.921543324
vn 0.999976864 0.000000000 0.006802322
f 232/232/232 233/233/233 234/234/234
g wood
v -0.215993583 -0.206080834 1.024770903
vt 0.614664012 0.905600000
vn -1.000000000 0.000000000 0.000000000
v -0.215993583 -0.257209749 1.024770903
vt 0.578125000 0.905600000
vn -1.000000000 0.000000000 0.000000000
v -0.215993583 -0.257209749 1.072601378
vt 0.578125000 0.920884670
vn -1.000000000 0.000000000 0.000000000
f 235/235/235 236/236/236 237/237/237
g wood
v -0.215993583 -0.206080834 1.024770903
vt 0.614664012 0.905600000
vn -1.000000000 0.000000000 0.000000000
v -0.215993583 -0.257209749 1.072601378
vt 0.578125000 0.920884670
vn -1.000000000 0.000000000 0.000000000
v -0.215993583 -0.206080834 1.072601378
vt 0.614664012 0.920884670
vn -1.000000000 0.000000000 0.000000000
f 238/238/238 239/239/239 240/240/240
g wood
v 0.215993583 -0.206080834 1.072601378
vt 0.614664012 0.920884670
vn 1.000000000 0.000000000 0.000000000
v 0.215993583 -0.257209749 1.072601378
vt 0.578125000 0.920884670
vn 1.000000000 0.000000000 0.000000000
v 0.215993583 -0.257209749 1.024770903
vt 0.578125000 0.905600000
vn 1.000000000 0.000000000 0.000000000
f 241/241/241 242/242/242 243/243/243
g wood
v 0.215993583 -0.206080834 1.072601378
vt 0.614664012 0.920884670
vn 1.000000000 0.000000000 0.000000000
v 0.215993583 -0.257209749 1.024770903
vt 0.578125000 0.905600000
vn 1.000000000 0.000000000 0.000000000
v 0.215993583 -0.206080834 1.024770903
vt 0.614664012 0.905600000
vn 1.000000000 0.000000000 0.000000000
f 244/244/244 245/245/245 246/246/246
g wood
v -0.215993583 -0.206080834 1.072601378
vt 0.593614649 0.614664012
vn 0.000000000 0.000000000 1.000000000
v -0.215993583 -0.257209749 1.072601378
vt 0.593614649 0.578125000
vn 0.000000000 0.000000000 1.000000000
v 0.215993583 -0.257209749 1.072601378
vt 0.906385351 0.578125000
vn 0.000000000 0.000000000 1.000000000
f 247/247/247 248/248/248 249/249/249
g wood
v -0.215993583 -0.206080834 1.072601378
vt 0.593614649 0.614664012
vn -0.000000000 0.000000000 1.000000000
v 0.215993583 -0.257209749 1.072601378
vt 0.906385351 0.578125000
vn -0.000000000 0.000000000 1.000000000
v 0.215993583 -0.206080834 1.072601378
vt 0.906385351 0.614664012
vn -0.000000000 0.000000000 1.000000000
f 250/250/250 251/251/251 252/252/252
g wood
v -0.215993583 -0.257209749 1.072601378
vt 0.593614649 0.920884670
vn 0.000000000 -1.000000000 0.000000000
v -0.215993583 -0.257209749 1.024770903
vt 0.593614649 0.905600000
vn 0.000000000 -1.000000000 0.000000000
v 0.215993583 -0.257209749 1.024770903
vt 0.906385351 0.905600000
vn 0.000000000 -1.000000000 0.000000000
f 253/253/253 254/254/254 255/255/255
g wood
v -0.215993583 -0.257209749 1.072601378
vt 0.593614649 0.920884670
vn 0.000000000 -1.000000000 0.000000000
v 0.215993583 -0.257209749 1.024770903
vt 0.906385351 0.905600000
vn 0.000000000 -1.000000000 0.000000000
v 0.215993583 -0.257209749 1.072601378
vt 0.906385351 0.920884670
vn 0.000000000 -1.000000000 0.000000000
f 256/256/256 257/257/257 258/258/258
g wood
v -0.215993583 -0.257209749 1.024770903
vt 0.593614649 0.578125000
vn 0.000000000 0.000000000 -1.000000000
v -0.215993583 -0.206080834 1.024770903
vt 0.593614649 0.614664012
vn 0.000000000 0.000000000 -1.000000000
v 0.215993583 -0.206080834 1.024770903
vt 0.906385351 0.614664012
vn 0.000000000 0.000000000 -1.000000000
f 259/259/259 260/260/260 261/261/261
g wood
v -0.215993583 -0.257209749 1.024770903
vt 0.593614649 0.578125000
vn 0.000000000 0.000000000 -1.000000000
v 0.215993583 -0.206080834 1.024770903
vt 0.906385351 0.614664012
vn 0.000000000 0.000000000 -1.000000000
v 0.215993583 -0.257209749 1.024770903
vt 0.906385351 0.578125000
vn 0.000000000 0.000000000 -1.000000000
f 262/262/262 263/263/263 264/264/264
g wood
v -0.215993583 -0.206080834 1.024770903
vt 0.593614649 0.905600000
vn 0.000000000 1.000000000 0.000000000
v -0.215993583 -0.206080834 1.072601378
vt 0.593614649 0.920884670
vn 0.000000000 1.000000000 0.000000000
v 0.215993583 -0.206080834 1.072601378
vt 0.906385351 0.920884670
vn 0.000000000 1.000000000 0.000000000
f 265/265/265 266/266/266 267/267/267
g wood
v -0.215993583 -0.206080834 1.024770903
vt 0.593614649 0.905600000
vn 0.000000000 1.000000000 0.000000000
v 0.215993583 -0.206080834 1.072601378
vt 0.906385351 0.920884670
vn 0.000000000 1.000000000 0.000000000
v 0.215993583 -0.206080834 1.024770903
vt 0.906385351 0.905600000
vn 0.000000000 1.000000000 0.000000000
f 268/268/268 269/269/269 270/270/270
g wood
v -0.201385321 -0.190429125 0.488874363
vt 0.625849423 0.734349315
vn -1.000000000 0.000000000 0.000000000
v -0.201385321 -0.222775990 0.488874363
vt 0.602732906 0.734349315
vn -1.000000000 0.000000000 0.000000000
v -0.201385321 -0.222775990 0.519134459
vt 0.602732906 0.744019208
vn -1.000000000 0.000000000 0.000000000
f 271/271/271 272/272/272 273/273/273
g wood
v -0.201385321 -0.190429125 0.488874363
vt 0.625849423 0.734349315
vn -1.000000000 0.000000000 0.000000000
v -0.201385321 -0.222775990 0.519134459
vt 0.602732906 0.744019208
vn -1.000000000 0.000000000 0.000000000
v -0.201385321 -0.190429125 0.519134459
vt 0.625849423 0.744019208
vn -1.000000000 0.000000000 0.000000000
f 274/274/274 275/275/275 276/276/276
g wood
v 0.201385321 -0.190429125 0.519134459
vt 0.625849423 0.744019208
vn 1.000000000 0.000000000 0.000000000
v 0.201385321 -0.222775990 0.519134459
vt 0.602732906 0.744019208
vn 1.000000000 0.000000000 0.000000000
v 0.201385321 -0.222775990 0.488874363
vt 0.602732906 0.734349315
vn 1.000000000 0.000000000 0.000000000
f 277/277/277 278/278/278 279/279/279
g wood
v 0.201385321 -0.190429125 0.519134459
vt 0.625849423 0.744019208
vn 1.000000000 0.000000000 0.000000000
v 0.201385321 -0.222775990 0.488874363
vt 0.602732906 0.734349315
vn 1.000000000 0.000000000 0.000000000
v 0.201385321 -0.190429125 0.488874363
vt 0.625849423 0.734349315
vn 1.000000000 0.000000000 0.000000000
f 280/280/280 281/281/281 282/282/282
g wood
v -0.201385321 -0.190429125 0.519134459
vt 0.604191437 0.625849423
vn 0.000000000 0.000000000 1.000000000
v -0.201385321 -0.222775990 0.519134459
vt 0.604191437 0.602732906
vn 0.000000000 0.000000000 1.000000000
v 0.201385321 -0.222775990 0.519134459
vt 0.895808563 0.602732906
vn 0.000000000 0.000000000 1.000000000
f 283/283/283 284/284/284 285/285/285
g wood
v -0.201385321 -0.190429125 0.519134459
vt 0.604191437 0.625849423
vn -0.000000000 0.000000000 1.000000000
v 0.201385321 -0.222775990 0.519134459
vt 0.895808563 0.602732906
vn -0.000000000 0.000000000 1.000000000
v 0.201385321 -0.190429125 0.519134459
vt 0.895808563 0.625849423
vn -0.000000000 0.000000000 1.000000000
f 286/286/286 287/287/287 288/288/288
g wood
v -0.201385321 -0.222775990 0.519134459
vt 0.604191437 0.744019208
vn 0.000000000 -1.000000000 0.000000000
v -0.201385321 -0.222775990 0.488874363
vt 0.604191437 0.734349315
vn 0.000000000 -1.000000000 0.000000000
v 0.201385321 -0.222775990 0.488874363
vt 0.895808563 0.734349315
vn 0.000000000 -1.000000000 0.000000000
f 289/289/289 290/290/290 291/291/291
g wood
v -0.201385321 -0.222775990 0.519134459
vt 0.604191437 0.744019208
vn 0.000000000 -1.000000000 0.000000000
v 0.201385321 -0.222775990 0.488874363
vt 0.895808563 0.734349315
vn 0.000000000 -1.000000000 0.000000000
v 0.201385321 -0.222775990 0.519134459
vt 0.895808563 0.744019208
vn 0.000000000 -1.000000000 0.000000000
f 292/292/292 293/293/293 294/294/294
g wood
v -0.201385321 -0.222775990 0.488874363
vt 0.604191437 0.602732906
vn 0.000000000 0.000000000 -1.000000000
v -0.201385321 -0.190429125 0.488874363
vt 0.604191437 0.625849423
vn 0.000000000 0.000000000 -1.000000000
v 0.201385321 -0.190429125 0.488874363
vt 0.895808563 0.625849423
vn 0.000000000 0.000000000 -1.000000000
f 295/295/295 296/296/296 297/297/297
g wood
v -0.201385321 -0.222775990 0.488874363
vt 0.604191437 0.602732906
vn 0.000000000 0.000000000 -1.000000000
v 0.201385321 -0.190429125 0.488874363
vt 0.895808563 0.625849423
vn 0.000000000 0.000000000 -1.000000000
v 0.201385321 -0.222775990 0.488874363
vt 0.895808563 0.602732906
vn 0.000000000 0.000000000 -1.000000000
f 298/298/298 299/299/299 300/300/300
g wood
v -0.201385321 -0.190429125 0.488874363
vt 0.604191437 0.734349315
vn 0.000000000 1.000000000 0.000000000
v -0.201385321 -0.190429125 0.519134459
vt 0.604191437 0.744019208
vn 0.000000000 1.000000000 0.000000000
v 0.201385321 -0.190429125 0.519134459
vt 0.895808563 0.744019208
vn 0.000000000 1.000000000 0.000000000
f 301/301/301 302/302/302 303/303/303
g wood
v -0.201385321 -0.190429125 0.488874363
vt 0.604191437 0.734349315
vn 0.000000000 1.000000000 0.000000000
v 0.201385321 -0.190429125 0.519134459
vt 0.895808563 0.744019208
vn 0.000000000 1.000000000 0.000000000
v 0.201385321 -0.190429125 0.488874363
vt 0.895808563 0.734349315
vn 0.000000000 1.000000000 0.000000000
f 304/304/304 305/305/305 306/306/306
g wood
v -0.122083329 -0.221203177 0.493888746
vt 0.661608280 0.603856908
vn 0.000000000 0.037735912 -0.999287747
v -0.140865380 -0.221203177 0.493888746
vt 0.648009554 0.603856908
vn 0.000000000 0.037735912 -0.999287747
v -0.140865380 -0.202436410 0.494597432
vt 0.648009554 0.617268480
vn 0.000000000 0.037735912 -0.999287747
f 307/307/307 308/308/308 309/309/309
g wood
v -0.122083329 -0.221203177 0.493888746
vt 0.661608280 0.603856908
vn 0.000000000 0.037735912 -0.999287747
v -0.140865380 -0.202436410 0.494597432
vt 0.648009554 0.617268480
vn 0.000000000 0.037735912 -0.999287747
v -0.122083329 -0.202436410 0.494597432
vt 0.661608280 0.617268480
vn 0.000000000 0.037735912 -0.999287747
f 310/310/310 311/311/311 312/312/312
g wood
v -0.122083329 -0.225392250 1.026589445
vt 0.661608280 0.600863209
vn 0.000000000 -0.037735912 0.999287747
v -0.140865380 -0.225392250 1.026589445
vt 0.648009554 0.600863209
vn 0.000000000 -0.037735912 0.999287747
v -0.140865380 -0.244159017 1.025880759
vt 0.648009554 0.587451637
vn 0.000000000 -0.037735912 0.999287747
f 313/313/313 314/314/314 315/315/315
g wood
v -0.122083329 -0.225392250 1.026589445
vt 0.661608280 0.600863209
vn 0.000000000 -0.037735912 0.999287747
v -0.140865380 -0.244159017 1.025880759
vt 0.648009554 0.587451637
vn 0.000000000 -0.037735912 0.999287747
v -0.122083329 -0.244159017 1.025880759
vt 0.661608280 0.587451637
vn 0.000000000 -0.037735912 0.999287747
f 316/316/316 317/317/317 318/318/318
g wood
v -0.122083329 -0.202436410 0.494597432
vt 0.661608280 0.736178174
vn 0.000000000 0.999070306 0.043110606
v -0.140865380 -0.202436410 0.494597432
vt 0.648009554 0.736178174
vn 0.000000000 0.999070306 0.043110606
v -0.140865380 -0.225392250 1.026589445
vt 0.648009554 0.906181132
vn 0.000000000 0.999070306 0.043110606
f 319/319/319 320/320/320 321/321/321
g wood
v -0.122083329 -0.202436410 0.494597432
vt 0.661608280 0.736178174
vn 0.000000000 0.999070306 0.043110606
v -0.140865380 -0.225392250 1.026589445
vt 0.648009554 0.906181132
vn 0.000000000 0.999070306 0.043110606
v -0.122083329 -0.225392250 1.026589445
vt 0.661608280 0.906181132
vn 0.000000000 0.999070306 0.043110606
f 322/322/322 323/323/323 324/324/324
g wood
v -0.140865380 -0.202436410 0.494597432
vt 0.617268480 0.736178174
vn -1.000000000 -0.000000000 0.000000000
v -0.140865380 -0.221203177 0.493888746
vt 0.603856908 0.735951707
vn -1.000000000 -0.000000000 0.000000000
v -0.140865380 -0.244159017 1.025880759
vt 0.587451637 0.905954665
vn -1.000000000 -0.000000000 0.000000000
f 325/325/325 326/326/326 327/327/327
g wood
v -0.140865380 -0.202436410 0.494597432
vt 0.617268480 0.736178174
vn -1.000000000 0.000000000 0.000000000
v -0.140865380 -0.244159017 1.025880759
vt 0.587451637 0.905954665
vn -1.000000000 0.000000000 0.000000000
v -0.140865380 -0.225392250 1.026589445
vt 0.600863209 0.906181132
vn -1.000000000 0.000000000 0.000000000
f 328/328/328 329/329/329 330/330/330
g wood
v -0.140865380 -0.221203177 0.493888746
vt 0.648009554 0.735951707
vn 0.000000000 -0.999070306 -0.043110606
v -0.122083329 -0.221203177 0.493888746
vt 0.661608280 0.735951707
vn 0.000000000 -0.999070306 -0.043110606
v -0.122083329 -0.244159017 1.025880759
vt 0.661608280 0.905954665
vn 0.000000000 -0.999070306 -0.043110606
f 331/331/331 332/332/332 333/333/333
g wood
v -0.140865380 -0.221203177 0.493888746
vt 0.648009554 0.735951707
vn 0.000000000 -0.999070306 -0.043110606
v -0.122083329 -0.244159017 1.025880759
vt 0.661608280 0.905954665
vn 0.000000000 -0.999070306 -0.043110606
v -0.140865380 -0.244159017 1.025880759
vt 0.648009554 0.905954665
vn 0.000000000 -0.999070306 -0.043110606
f 334/334/334 335/335/335 336/336/336
g wood
v -0.122083329 -0.221203177 0.493888746
vt 0.603856908 0.735951707
vn 1.000000000 0.000000000 -0.000000000
v -0.122083329 -0.202436410 0.494597432
vt 0.617268480 0.736178174
vn 1.000000000 0.000000000 -0.000000000
v -0.122083329 -0.225392250 1.026589445
vt 0.600863209 0.906181132
vn 1.000000000 0.000000000 -0.000000000
f 337/337/337 338/338/338 339/339/339
g wood
v -0.122083329 -0.221203177 0.493888746
vt 0.603856908 0.735951707
vn 1.000000000 0.000000000 0.000000000
v -0.122083329 -0.225392250 1.026589445
vt 0.600863209 0.906181132
vn 1.000000000 0.000000000 0.000000000
v -0.122083329 -0.244159017 1.025880759
vt 0.587451637 0.905954665
vn 1.000000000 0.000000000 0.000000000
f 340/340/340 341/341/341 342/342/342
g wood
v -0.056346152 -0.221203177 0.493888746
vt 0.709203822 0.603856908
vn 0.000000000 0.037735912 -0.999287747
v -0.075128203 -0.221203177 0.493888746
vt 0.695605095 0.603856908
vn 0.000000000 0.037735912 -0.999287747
v -0.075128203 -0.202436410 0.494597432
vt 0.695605095 0.617268480
vn 0.000000000 0.037735912 -0.999287747
f 343/343/343 344/344/344 345/345/345
g wood
v -0.056346152 -0.221203177 0.493888746
vt 0.709203822 0.603856908
vn 0.000000000 0.037735912 -0.999287747
v -0.075128203 -0.202436410 0.494597432
vt 0.695605095 0.617268480
vn 0.000000000 0.037735912 -0.999287747
v -0.056346152 -0.202436410 0.494597432
vt 0.709203822 0.617268480
vn 0.000000000 0.037735912 -0.999287747
f 346/346/346 347/347/347 348/348/348
g wood
v -0.056346152 -0.225392250 1.026589445
vt 0.709203822 0.600863209
vn 0.000000000 -0.037735912 0.999287747
v -0.075128203 -0.225392250 1.026589445
vt 0.695605095 0.600863209
vn 0.000000000 -0.037735912 0.999287747
v -0.075128203 -0.244159017 1.025880759
vt 0.695605095 0.587451637
vn 0.000000000 -0.037735912 0.999287747
f 349/349/349 350/350/350 351/351/351
g wood
v -0.056346152 -0.225392250 1.026589445
vt 0.709203822 0.600863209
vn 0.000000000 -0.037735912 0.999287747
v -0.075128203 -0.244159017 1.025880759
vt 0.695605095 0.587451637
vn 0.000000000 -0.037735912 0.999287747
v -0.056346152 -0.244159017 1.025880759
vt 0.709203822 0.587451637
vn 0.000000000 -0.037735912 0.999287747
f 352/352/352 353/353/353 354/354/354
g wood
v -0.056346152 -0.202436410 0.494597432
vt 0.709203822 0.736178174
vn 0.000000000 0.999070306 0.043110606
v -0.075128203 -0.202436410 0.494597432
vt 0.695605095 0.736178174
vn 0.000000000 0.999070306 0.043110606
v -0.075128203 -0.225392250 1.026589445
vt 0.695605095 0.906181132
vn 0.000000000 0.999070306 0.043110606
f 355/355/355 356/356/356 357/357/357
g wood
v -0.056346152 -0.202436410 0.494597432
vt 0.709203822 0.736178174
vn 0.000000000 0.999070306 0.043110606
v -0.075128203 -0.225392250 1.026589445
vt 0.695605095 0.906181132
vn 0.000000000 0.999070306 0.043110606
v -0.056346152 -0.225392250 1.026589445
vt 0.709203822 0.906181132
vn 0.000000000 0.999070306 0.043110606
f 358/358/358 359/359/359 360/360/360
g wood
v -0.075128203 -0.202436410 0.494597432
vt 0.617268480 0.736178174
vn -1.000000000 -0.000000000 0.000000000
v -0.075128203 -0.221203177 0.493888746
vt 0.603856908 0.735951707
vn -1.000000000 -0.000000000 0.000000000
v -0.075128203 -0.244159017 1.025880759
vt 0.587451637 0.905954665
vn -1.000000000 -0.000000000 0.000000000
f 361/361/361 362/362/362 363/363/363
g wood
v -0.075128203 -0.202436410 0.494597432
vt 0.617268480 0.736178174
vn -1.000000000 0.000000000 0.000000000
v -0.075128203 -0.244159017 1.025880759
vt 0.587451637 0.905954665
vn -1.000000000 0.000000000 0.000000000
v -0.075128203 -0.225392250 1.026589445
vt 0.600863209 0.906181132
vn -1.000000000 0.000000000 0.000000000
f 364/364/364 365/365/365 366/366/366
g wood
v -0.075128203 -0.221203177 0.493888746
vt 0.695605095 0.735951707
vn 0.000000000 -0.999070306 -0.043110606
v -0.056346152 -0.221203177 0.493888746
vt 0.709203822 0.735951707
vn 0.000000000 -0.999070306 -0.043110606
v -0.056346152 -0.244159017 1.025880759
vt 0.709203822 0.905954665
vn 0.000000000 -0.999070306 -0.043110606
f 367/367/367 368/368/368 369/369/369
g wood
v -0.075128203 -0.221203177 0.493888746
vt 0.695605095 0.735951707
vn 0.000000000 -0.999070306 -0.043110606
v -0.056346152 -0.244159017 1.025880759
vt 0.709203822 0.905954665
vn 0.000000000 -0.999070306 -0.043110606
v -0.075128203 -0.244159017 1.025880759
vt 0.695605095 0.905954665
vn 0.000000000 -0.999070306 -0.043110606
f 370/370/370 371/371/371 372/372/372
g wood
v -0.056346152 -0.221203177 0.493888746
vt 0.603856908 0.735951707
vn 1.000000000 0.000000000 -0.000000000
v -0.056346152 -0.202436410 0.494597432
vt 0.617268480 0.736178174
vn 1.000000000 0.000000000 -0.000000000
v -0.056346152 -0.225392250 1.026589445
vt 0.600863209 0.906181132
vn 1.000000000 0.000000000 -0.000000000
f 373/373/373 374/374/374 375/375/375
g wood
v -0.056346152 -0.221203177 0.493888746
vt 0.603856908 0.735951707
vn 1.000000000 0.000000000 0.000000000
v -0.056346152 -0.225392250 1.026589445
vt 0.600863209 0.906181132
vn 1.000000000 0.000000000 0.000000000
v -0.056346152 -0.244159017 1.025880759
vt 0.587451637 0.905954665
vn 1.000000000 0.000000000 0.000000000
f 376/376/376 377/377/377 378/378/378
g wood
v 0.009391025 -0.221203177 0.493888746
vt 0.756799363 0.603856908
vn 0.000000000 0.037735912 -0.999287747
v -0.009391025 -0.221203177 0.493888746
vt 0.743200637 0.603856908
vn 0.000000000 0.037735912 -0.999287747
v -0.009391025 -0.202436410 0.494597432
vt 0.743200637 0.617268480
vn 0.000000000 0.037735912 -0.999287747
f 379/379/379 380/380/380 381/381/381
g wood
v 0.009391025 -0.221203177 0.493888746
vt 0.756799363 0.603856908
vn 0.000000000 0.037735912 -0.999287747
v -0.009391025 -0.202436410 0.494597432
vt 0.743200637 0.617268480
vn 0.000000000 0.037735912 -0.999287747
v 0.009391025 -0.202436410 0.494597432
vt 0.756799363 0.617268480
vn 0.000000000 0.037735912 -0.999287747
f 382/382/382 383/383/383 384/384/384
g wood
v 0.009391025 -0.225392250 1.026589445
vt 0.756799363 0.600863209
vn 0.000000000 -0.037735912 0.999287747
v -0.009391025 -0.225392250 1.026589445
vt 0.743200637 0.600863209
vn 0.000000000 -0.037735912 0.999287747
v -0.009391025 -0.244159017 1.025880759
vt 0.743200637 0.587451637
vn 0.000000000 -0.037735912 0.999287747
f 385/385/385 386/386/386 387/387/387
g wood
v 0.009391025 -0.225392250 1.026589445
vt 0.756799363 0.600863209
vn 0.000000000 -0.037735912 0.999287747
v -0.009391025 -0.244159017 1.025880759
vt 0.743200637 0.587451637
vn 0.000000000 -0.037735912 0.999287747
v 0.009391025 -0.244159017 1.025880759
vt 0.756799363 0.587451637
vn 0.000000000 -0.037735912 0.999287747
f 388/388/388 389/389/389 390/390/390
g wood
v 0.009391025 -0.202436410 0.494597432
vt 0.756799363 0.736178174
vn 0.000000000 0.999070306 0.043110606
v -0.009391025 -0.202436410 0.494597432
vt 0.743200637 0.736178174
vn 0.000000000 0.999070306 0.043110606
v -0.009391025 -0.225392250 1.026589445
vt 0.743200637 0.906181132
vn 0.000000000 0.999070306 0.043110606
f 391/391/391 392/392/392 393/393/393
g wood
v 0.009391025 -0.202436410 0.494597432
vt 0.756799363 0.736178174
vn 0.000000000 0.999070306 0.043110606
v -0.009391025 -0.225392250 1.026589445
vt 0.743200637 0.906181132
vn 0.000000000 0.999070306 0.043110606
v 0.009391025 -0.225392250 1.026589445
vt 0.756799363 0.906181132
vn 0.000000000 0.999070306 0.043110606
f 394/394/394 395/395/395 396/396/396
g wood
v -0.009391025 -0.202436410 0.494597432
vt 0.617268480 0.736178174
vn -1.000000000 -0.000000000 0.000000000
v -0.009391025 -0.221203177 0.493888746
vt 0.603856908 0.735951707
vn -1.000000000 -0.000000000 0.000000000
v -0.009391025 -0.244159017 1.025880759
vt 0.587451637 0.905954665
vn -1.000000000 -0.000000000 0.000000000
f 397/397/397 398/398/398 399/399/399
g wood
v -0.009391025 -0.202436410 0.494597432
vt 0.617268480 0.736178174
vn -1.000000000 0.000000000 0.000000000
v -0.009391025 -0.244159017 1.025880759
vt 0.587451637 0.905954665
vn -1.000000000 0.000000000 0.000000000
v -0.009391025 -0.225392250 1.026589445
vt 0.600863209 0.906181132
vn -1.000000000 0.000000000 0.000000000
f 400/400/400 401/401/401 402/402/402
g wood
v -0.009391025 -0.221203177 0.493888746
vt 0.743200637 0.735951707
vn 0.000000000 -0.999070306 -0.043110606
v 0.009391025 -0.221203177 0.493888746
vt 0.756799363 0.735951707
vn 0.000000000 -0.999070306 -0.043110606
v 0.009391025 -0.244159017 1.025880759
vt 0.756799363 0.905954665
vn 0.000000000 -0.999070306 -0.043110606
f 403/403/403 404/404/404 405/405/405
g wood
v -0.009391025 -0.221203177 0.493888746
vt 0.743200637 0.735951707
vn 0.000000000 -0.999070306 -0.043110606
v 0.009391025 -0.244159017 1.025880759
vt 0.756799363 0.905954665
vn 0.000000000 -0.999070306 -0.043110606
v -0.009391025 -0.244159017 1.025880759
vt 0.743200637 0.905954665
vn 0.000000000 -0.999070306 -0.043110606
f 406/406/406 407/407/407 408/408/408
g wood
v 0.009391025 -0.221203177 0.493888746
vt 0.603856908 0.735951707
vn 1.000000000 0.000000000 -0.000000000
v 0.009391025 -0.202436410 0.494597432
vt 0.617268480 0.736178174
vn 1.000000000 0.000000000 -0.000000000
v 0.009391025 -0.225392250 1.026589445
vt 0.600863209 0.906181132
vn 1.000000000 0.000000000 -0.000000000
f 409/409/409 410/410/410 411/411/411
g wood
v 0.009391025 -0.221203177 0.493888746
vt 0.603856908 0.735951707
vn 1.000000000 0.000000000 0.000000000
v 0.009391025 -0.225392250 1.026589445
vt 0.600863209 0.906181132
vn 1.000000000 0.000000000 0.000000000
v 0.009391025 -0.244159017 1.025880759
vt 0.587451637 0.905954665
vn 1.000000000 0.000000000 0.000000000
f 412/412/412 413/413/413 414/414/414
g wood
v 0.075128203 -0.221203177 0.493888746
vt 0.804394905 0.603856908
vn 0.000000000 0.037735912 -0.999287747
v 0.056346152 -0.221203177 0.493888746
vt 0.790796178 0.603856908
vn 0.000000000 0.037735912 -0.999287747
v 0.056346152 -0.202436410 0.494597432
vt 0.790796178 0.617268480
vn 0.000000000 0.037735912 -0.999287747
f 415/415/415 416/416/416 417/417/417
g wood
v 0.075128203 -0.221203177 0.493888746
vt 0.804394905 0.603856908
vn 0.000000000 0.037735912 -0.999287747
v 0.056346152 -0.202436410 0.494597432
vt 0.790796178 0.617268480
vn 0.000000000 0.037735912 -0.999287747
v 0.075128203 -0.202436410 0.494597432
vt 0.804394905 0.617268480
vn 0.000000000 0.037735912 -0.999287747
f 418/418/418 419/419/419 420/420/420
g wood
v 0.075128203 -0.225392250 1.026589445
vt 0.804394905 0.600863209
vn 0.000000000 -0.037735912 0.999287747
v 0.056346152 -0.225392250 1.026589445
vt 0.790796178 0.600863209
vn 0.000000000 -0.037735912 0.999287747
v 0.056346152 -0.244159017 1.025880759
vt 0.790796178 0.587451637
vn 0.000000000 -0.037735912 0.999287747
f 421/421/421 422/422/422 423/423/423
g wood
v 0.075128203 -0.225392250 1.026589445
vt 0.804394905 0.600863209
vn 0.000000000 -0.037735912 0.999287747
v 0.056346152 -0.244159017 1.025880759
vt 0.790796178 0.587451637
vn 0.000000000 -0.037735912 0.999287747
v 0.075128203 -0.244159017 1.025880759
vt 0.804394905 0.587451637
vn 0.000000000 -0.037735912 0.999287747
f 424/424/424 425/425/425 426/426/426
g wood
v 0.075128203 -0.202436410 0.494597432
vt 0.804394905 0.736178174
vn 0.000000000 0.999070306 0.043110606
v 0.056346152 -0.202436410 0.494597432
vt 0.790796178 0.736178174
vn 0.000000000 0.999070306 0.043110606
v 0.056346152 -0.225392250 1.026589445
vt 0.790796178 0.906181132
vn 0.000000000 0.999070306 0.043110606
f 427/427/427 428/428/428 429/429/429
g wood
v 0.075128203 -0.202436410 0.494597432
vt 0.804394905 0.736178174
vn 0.000000000 0.999070306 0.043110606
v 0.056346152 -0.225392250 1.026589445
vt 0.790796178 0.906181132
vn 0.000000000 0.999070306 0.043110606
v 0.075128203 -0.225392250 1.026589445
vt 0.804394905 0.906181132
vn 0.000000000 0.999070306 0.043110606
f 430/430/430 431/431/431 432/432/432
g wood
v 0.056346152 -0.202436410 0.494597432
vt 0.617268480 0.736178174
vn -1.000000000 -0.000000000 0.000000000
v 0.056346152 -0.221203177 0.493888746
vt 0.603856908 0.735951707
vn -1.000000000 -0.000000000 0.000000000
v 0.056346152 -0.244159017 1.025880759
vt 0.587451637 0.905954665
vn -1.000000000 -0.000000000 0.000000000
f 433/433/433 434/434/434 435/435/435
g wood
v 0.056346152 -0.202436410 0.494597432
vt 0.617268480 0.736178174
vn -1.000000000 0.000000000 0.000000000
v 0.056346152 -0.244159017 1.025880759
vt 0.587451637 0.905954665
vn -1.000000000 0.000000000 0.000000000
v 0.056346152 -0.225392250 1.026589445
vt 0.600863209 0.906181132
vn -1.000000000 0.000000000 0.000000000
f 436/436/436 437/437/437 438/438/438
g wood
v 0.056346152 -0.221203177 0.493888746
vt 0.790796178 0.735951707
vn 0.000000000 -0.999070306 -0.043110606
v 0.075128203 -0.221203177 0.493888746
vt 0.804394905 0.735951707
vn 0.000000000 -0.999070306 -0.043110606
v 0.075128203 -0.244159017 1.025880759
vt 0.804394905 0.905954665
vn 0.000000000 -0.999070306 -0.043110606
f 439/439/439 440/440/440 441/441/441
g wood
v 0.056346152 -0.221203177 0.493888746
vt 0.790796178 0.735951707
vn 0.000000000 -0.999070306 -0.043110606
v 0.075128203 -0.244159017 1.025880759
vt 0.804394905 0.905954665
vn 0.000000000 -0.999070306 -0.043110606
v 0.056346152 -0.244159017 1.025880759
vt 0.790796178 0.905954665
vn 0.000000000 -0.999070306 -0.043110606
f 442/442/442 443/443/443 444/444/444
g wood
v 0.075128203 -0.221203177 0.493888746
vt 0.603856908 0.735951707
vn 1.000000000 0.000000000 -0.000000000
v 0.075128203 -0.202436410 0.494597432
vt 0.617268480 0.736178174
vn 1.000000000 0.000000000 -0.000000000
v 0.075128203 -0.225392250 1.026589445
vt 0.600863209 0.906181132
vn 1.000000000 0.000000000 -0.000000000
f 445/445/445 446/446/446 447/447/447
g wood
v 0.075128203 -0.221203177 0.493888746
vt 0.603856908 0.735951707
vn 1.000000000 0.000000000 0.000000000
v 0.075128203 -0.225392250 1.026589445
vt 0.600863209 0.906181132
vn 1.000000000 0.000000000 0.000000000
v 0.075128203 -0.244159017 1.025880759
vt 0.587451637 0.905954665
vn 1.000000000 0.000000000 0.000000000
f 448/448/448 449/449/449 450/450/450
g wood
v 0.140865380 -0.221203177 0.493888746
vt 0.851990446 0.603856908
vn 0.000000000 0.037735912 -0.999287747
v 0.122083329 -0.221203177 0.493888746
vt 0.838391720 0.603856908
vn 0.000000000 0.037735912 -0.999287747
v 0.122083329 -0.202436410 0.494597432
vt 0.838391720 0.617268480
vn 0.000000000 0.037735912 -0.999287747
f 451/451/451 452/452/452 453/453/453
g wood
v 0.140865380 -0.221203177 0.493888746
vt 0.851990446 0.603856908
vn 0.000000000 0.037735912 -0.999287747
v 0.122083329 -0.202436410 0.494597432
vt 0.838391720 0.617268480
vn 0.000000000 0.037735912 -0.999287747
v 0.140865380 -0.202436410 0.494597432
vt 0.851990446 0.617268480
vn 0.000000000 0.037735912 -0.999287747
f 454/454/454 455/455/455 456/456/456
g wood
v 0.140865380 -0.225392250 1.026589445
vt 0.851990446 0.600863209
vn 0.000000000 -0.037735912 0.999287747
v 0.122083329 -0.225392250 1.026589445
vt 0.838391720 0.600863209
vn 0.000000000 -0.037735912 0.999287747
v 0.122083329 -0.244159017 1.025880759
vt 0.838391720 0.587451637
vn 0.000000000 -0.037735912 0.999287747
f 457/457/457 458/458/458 459/459/459
g wood
v 0.140865380 -0.225392250 1.026589445
vt 0.851990446 0.600863209
vn 0.000000000 -0.037735912 0.999287747
v 0.122083329 -0.244159017 1.025880759
vt 0.838391720 0.587451637
vn 0.000000000 -0.037735912 0.999287747
v 0.140865380 -0.244159017 1.025880759
vt 0.851990446 0.587451637
vn 0.000000000 -0.037735912 0.999287747
f 460/460/460 461/461/461 462/462/462
g wood
v 0.140865380 -0.202436410 0.494597432
vt 0.851990446 0.736178174
vn 0.000000000 0.999070306 0.043110606
v 0.122083329 -0.202436410 0.494597432
vt 0.838391720 0.736178174
vn 0.000000000 0.999070306 0.043110606
v 0.122083329 -0.225392250 1.026589445
vt 0.838391720 0.906181132
vn 0.000000000 0.999070306 0.043110606
f 463/463/463 464/464/464 465/465/465
g wood
v 0.140865380 -0.202436410 0.494597432
vt 0.851990446 0.736178174
vn 0.000000000 0.999070306 0.043110606
v 0.122083329 -0.225392250 1.026589445
vt 0.838391720 0.906181132
vn 0.000000000 0.999070306 0.043110606
v 0.140865380 -0.225392250 1.026589445
vt 0.851990446 0.906181132
vn 0.000000000 0.999070306 0.043110606
f 466/466/466 467/467/467 468/468/468
g wood
v 0.122083329 -0.202436410 0.494597432
vt 0.617268480 0.736178174
vn -1.000000000 -0.000000000 0.000000000
v 0.122083329 -0.221203177 0.493888746
vt 0.603856908 0.735951707
vn -1.000000000 -0.000000000 0.000000000
v 0.122083329 -0.244159017 1.025880759
vt 0.587451637 0.905954665
vn -1.000000000 -0.000000000 0.000000000
f 469/469/469 470/470/470 471/471/471
g wood
v 0.122083329 -0.202436410 0.494597432
vt 0.617268480 0.736178174
vn -1.000000000 0.000000000 0.000000000
v 0.122083329 -0.244159017 1.025880759
vt 0.587451637 0.905954665
vn -1.000000000 0.000000000 0.000000000
v 0.122083329 -0.225392250 1.026589445
vt 0.600863209 0.906181132
vn -1.000000000 0.000000000 0.000000000
f 472/472/472 473/473/473 474/474/474
g wood
v 0.122083329 -0.221203177 0.493888746
vt 0.838391720 0.735951707
vn 0.000000000 -0.999070306 -0.043110606
v 0.140865380 -0.221203177 0.493888746
vt 0.851990446 0.735951707
vn 0.000000000 -0.999070306 -0.043110606
v 0.140865380 -0.244159017 1.025880759
vt 0.851990446 0.905954665
vn 0.000000000 -0.999070306 -0.043110606
f 475/475/475 476/476/476 477/477/477
g wood
v 0.122083329 -0.221203177 0.493888746
vt 0.838391720 0.735951707
vn 0.000000000 -0.999070306 -0.043110606
v 0.140865380 -0.244159017 1.025880759
vt 0.851990446 0.905954665
vn 0.000000000 -0.999070306 -0.043110606
v 0.122083329 -0.244159017 1.025880759
vt 0.838391720 0.905954665
vn 0.000000000 -0.999070306 -0.043110606
f 478/478/478 479/479/479 480/480/480
g wood
v 0.140865380 -0.221203177 0.493888746
vt 0.603856908 0.735951707
vn 1.000000000 0.000000000 -0.000000000
v 0.140865380 -0.202436410 0.494597432
vt 0.617268480 0.736178174
vn 1.000000000 0.000000000 -0.000000000
v 0.140865380 -0.225392250 1.026589445
vt 0.600863209 0.906181132
vn 1.000000000 0.000000000 -0.000000000
f 481/481/481 482/482/482 483/483/483
g wood
v 0.140865380 -0.221203177 0.493888746
vt 0.603856908 0.735951707
vn 1.000000000 0.000000000 0.000000000
v 0.140865380 -0.225392250 1.026589445
vt 0.600863209 0.906181132
vn 1.000000000 0.000000000 0.000000000
v 0.140865380 -0.244159017 1.025880759
vt 0.587451637 0.905954665
vn 1.000000000 0.000000000 0.000000000
f 484/484/484 485/485/485 486/486/486
g wood
v -0.219123925 -0.195124638 0.387844687
vt 0.591348195 0.702064349
vn 0.000000000 -1.000000000 0.000000000
v -0.181559823 -0.195124638 0.387844687
vt 0.618545648 0.702064349
vn 0.000000000 -1.000000000 0.000000000
v -0.181559823 -0.195124638 0.422985444
vt 0.618545648 0.713293902
vn 0.000000000 -1.000000000 0.000000000
f 487/487/487 488/488/488 489/489/489
g wood
v -0.219123925 -0.195124638 0.387844687
vt 0.591348195 0.702064349
vn 0.000000000 -1.000000000 0.000000000
v -0.181559823 -0.195124638 0.422985444
vt 0.618545648 0.713293902
vn 0.000000000 -1.000000000 0.000000000
v -0.219123925 -0.195124638 0.422985444
vt 0.591348195 0.713293902
vn 0.000000000 -1.000000000 0.000000000
f 490/490/490 491/491/491 492/492/492
g wood
v -0.219123925 0.188863954 0.422985444
vt 0.591348195 0.713293902
vn -0.000000000 1.000000000 0.000000000
v -0.181559823 0.188863954 0.422985444
vt 0.618545648 0.713293902
vn -0.000000000 1.000000000 0.000000000
v -0.181559823 0.188863954 0.387844687
vt 0.618545648 0.702064349
vn -0.000000000 1.000000000 0.000000000
f 493/493/493 494/494/494 495/495/495
g wood
v -0.219123925 0.188863954 0.422985444
vt 0.591348195 0.713293902
vn 0.000000000 1.000000000 0.000000000
v -0.181559823 0.188863954 0.387844687
vt 0.618545648 0.702064349
vn 0.000000000 1.000000000 0.000000000
v -0.219123925 0.188863954 0.387844687
vt 0.591348195 0.702064349
vn 0.000000000 1.000000000 0.000000000
f 496/496/496 497/497/497 498/498/498
g wood
v -0.219123925 -0.195124638 0.422985444
vt 0.591348195 0.622493800
vn 0.000000000 0.000000000 1.000000000
v -0.181559823 -0.195124638 0.422985444
vt 0.618545648 0.622493800
vn 0.000000000 0.000000000 1.000000000
v -0.181559823 0.188863954 0.422985444
vt 0.618545648 0.896909237
vn 0.000000000 0.000000000 1.000000000
f 499/499/499 500/500/500 501/501/501
g wood
v -0.219123925 -0.195124638 0.422985444
vt 0.591348195 0.622493800
vn 0.000000000 0.000000000 1.000000000
v -0.181559823 0.188863954 0.422985444
vt 0.618545648 0.896909237
vn 0.000000000 0.000000000 1.000000000
v -0.219123925 0.188863954 0.422985444
vt 0.591348195 0.896909237
vn 0.000000000 0.000000000 1.000000000
f 502/502/502 503/503/503 504/504/504
g wood
v -0.181559823 -0.195124638 0.422985444
vt 0.622493800 0.713293902
vn 1.000000000 0.000000000 0.000000000
v -0.181559823 -0.195124638 0.387844687
vt 0.622493800 0.702064349
vn 1.000000000 0.000000000 0.000000000
v -0.181559823 0.188863954 0.387844687
vt 0.896909237 0.702064349
vn 1.000000000 0.000000000 0.000000000
f 505/505/505 506/506/506 507/507/507
g wood
v -0.181559823 -0.195124638 0.422985444
vt 0.622493800 0.713293902
vn 1.000000000 -0.000000000 0.000000000
v -0.181559823 0.188863954 0.387844687
vt 0.896909237 0.702064349
vn 1.000000000 -0.000000000 0.000000000
v -0.181559823 0.188863954 0.422985444
vt 0.896909237 0.713293902
vn 1.000000000 -0.000000000 0.000000000
f 508/508/508 509/509/509 510/510/510
g wood
v -0.181559823 -0.195124638 0.387844687
vt 0.618545648 0.622493800
vn 0.000000000 0.000000000 -1.000000000
v -0.219123925 -0.195124638 0.387844687
vt 0.591348195 0.622493800
vn 0.000000000 0.000000000 -1.000000000
v -0.219123925 0.188863954 0.387844687
vt 0.591348195 0.896909237
vn 0.000000000 0.000000000 -1.000000000
f 511/511/511 512/512/512 513/513/513
g wood
v -0.181559823 -0.195124638 0.387844687
vt 0.618545648 0.622493800
vn 0.000000000 0.000000000 -1.000000000
v -0.219123925 0.188863954 0.387844687
vt 0.591348195 0.896909237
vn 0.000000000 0.000000000 -1.000000000
v -0.181559823 0.188863954 0.387844687
vt 0.618545648 0.896909237
vn 0.000000000 0.000000000 -1.000000000
f 514/514/514 515/515/515 516/516/516
g wood
v -0.219123925 -0.195124638 0.387844687
vt 0.622493800 0.702064349
vn -1.000000000 0.000000000 0.000000000
v -0.219123925 -0.195124638 0.422985444
vt 0.622493800 0.713293902
vn -1.000000000 0.000000000 0.000000000
v -0.219123925 0.188863954 0.422985444
vt 0.896909237 0.713293902
vn -1.000000000 0.000000000 0.000000000
f 517/517/517 518/518/518 519/519/519
g wood
v -0.219123925 -0.195124638 0.387844687
vt 0.622493800 0.702064349
vn -1.000000000 0.000000000 0.000000000
v -0.219123925 0.188863954 0.422985444
vt 0.896909237 0.713293902
vn -1.000000000 0.000000000 0.000000000
v -0.219123925 0.188863954 0.387844687
vt 0.896909237 0.702064349
vn -1.000000000 0.000000000 0.000000000
f 520/520/520 521/521/521 522/522/522
g wood
v 0.181559823 -0.195124638 0.387844687
vt 0.881454352 0.702064349
vn 0.000000000 -1.000000000 0.000000000
v 0.219123925 -0.195124638 0.387844687
vt 0.908651805 0.702064349
vn 0.000000000 -1.000000000 0.000000000
v 0.219123925 -0.195124638 0.422985444
vt 0.908651805 0.713293902
vn 0.000000000 -1.000000000 0.000000000
f 523/523/523 524/524/524 525/525/525
g wood
v 0.181559823 -0.195124638 0.387844687
vt 0.881454352 0.702064349
vn 0.000000000 -1.000000000 0.000000000
v 0.219123925 -0.195124638 0.422985444
vt 0.908651805 0.713293902
vn 0.000000000 -1.000000000 0.000000000
v 0.181559823 -0.195124638 0.422985444
vt 0.881454352 0.713293902
vn 0.000000000 -1.000000000 0.000000000
f 526/526/526 527/527/527 528/528/528
g wood
v 0.181559823 0.188863954 0.422985444
vt 0.881454352 0.713293902
vn -0.000000000 1.000000000 0.000000000
v 0.219123925 0.188863954 0.422985444
vt 0.908651805 0.713293902
vn -0.000000000 1.000000000 0.000000000
v 0.219123925 0.188863954 0.387844687
vt 0.908651805 0.702064349
vn -0.000000000 1.000000000 0.000000000
f 529/529/529 530/530/530 531/531/531
g wood
v 0.181559823 0.188863954 0.422985444
vt 0.881454352 0.713293902
vn 0.000000000 1.000000000 0.000000000
v 0.219123925 0.188863954 0.387844687
vt 0.908651805 0.702064349
vn 0.000000000 1.000000000 0.000000000
v 0.181559823 0.188863954 0.387844687
vt 0.881454352 0.702064349
vn 0.000000000 1.000000000 0.000000000
f 532/532/532 533/533/533 534/534/534
g wood
v 0.181559823 -0.195124638 0.422985444
vt 0.881454352 0.622493800
vn 0.000000000 0.000000000 1.000000000
v 0.219123925 -0.195124638 0.422985444
vt 0.908651805 0.622493800
vn 0.000000000 0.000000000 1.000000000
v 0.219123925 0.188863954 0.422985444
vt 0.908651805 0.896909237
vn 0.000000000 0.000000000 1.000000000
f 535/535/535 536/536/536 537/537/537
g wood
v 0.181559823 -0.195124638 0.422985444
vt 0.881454352 0.622493800
vn 0.000000000 0.000000000 1.000000000
v 0.219123925 0.188863954 0.422985444
vt 0.908651805 0.896909237
vn 0.000000000 0.000000000 1.000000000
v 0.181559823 0.188863954 0.422985444
vt 0.881454352 0.896909237
vn 0.000000000 0.000000000 1.000000000
f 538/538/538 539/539/539 540/540/540
g wood
v 0.219123925 -0.195124638 0.422985444
vt 0.622493800 0.713293902
vn 1.000000000 0.000000000 0.000000000
v 0.219123925 -0.195124638 0.387844687
vt 0.622493800 0.702064349
vn 1.000000000 0.000000000 0.000000000
v 0.219123925 0.188863954 0.387844687
vt 0.896909237 0.702064349
vn 1.000000000 0.000000000 0.000000000
f 541/541/541 542/542/542 543/543/543
g wood
v 0.219123925 -0.195124638 0.422985444
vt 0.622493800 0.713293902
vn 1.000000000 -0.000000000 0.000000000
v 0.219123925 0.188863954 0.387844687
vt 0.896909237 0.702064349
vn 1.000000000 -0.000000000 0.000000000
v 0.219123925 0.188863954 0.422985444
vt 0.896909237 0.713293902
vn 1.000000000 -0.000000000 0.000000000
f 544/544/544 545/545/545 546/546/546
g wood
v 0.219123925 -0.195124638 0.387844687
vt 0.908651805 0.622493800
vn 0.000000000 0.000000000 -1.000000000
v 0.181559823 -0.195124638 0.387844687
vt 0.881454352 0.622493800
vn 0.000000000 0.000000000 -1.000000000
v 0.181559823 0.188863954 0.387844687
vt 0.881454352 0.896909237
vn 0.000000000 0.000000000 -1.000000000
f 547/547/547 548/548/548 549/549/549
g wood
v 0.219123925 -0.195124638 0.387844687
vt 0.908651805 0.622493800
vn 0.000000000 0.000000000 -1.000000000
v 0.181559823 0.188863954 0.387844687
vt 0.881454352 0.896909237
vn 0.000000000 0.000000000 -1.000000000
v 0.219123925 0.188863954 0.387844687
vt 0.908651805 0.896909237
vn 0.000000000 0.000000000 -1.000000000
f 550/550/550 551/551/551 552/552/552
g wood
v 0.181559823 -0.195124638 0.387844687
vt 0.622493800 0.702064349
vn -1.000000000 0.000000000 0.000000000
v 0.181559823 -0.195124638 0.422985444
vt 0.622493800 0.713293902
vn -1.000000000 0.000000000 0.000000000
v 0.181559823 0.188863954 0.422985444
vt 0.896909237 0.713293902
vn -1.000000000 0.000000000 0.000000000
f 553/553/553 554/554/554 555/555/555
g wood
v 0.181559823 -0.195124638 0.387844687
vt 0.622493800 0.702064349
vn -1.000000000 0.000000000 0.000000000
v 0.181559823 0.188863954 0.422985444
vt 0.896909237 0.713293902
vn -1.000000000 0.000000000 0.000000000
v 0.181559823 0.188863954 0.387844687
vt 0.896909237 0.702064349
vn -1.000000000 0.000000000 0.000000000
f 556/556/556 557/557/557 558/558/558
g wood
v -0.202428768 0.206602557 0.387844687
vt 0.909586037 0.702064349
vn -1.000000000 0.000000000 0.000000000
v -0.202428768 0.169038456 0.387844687
vt 0.882741049 0.702064349
vn -1.000000000 0.000000000 0.000000000
v -0.202428768 0.169038456 0.422985444
vt 0.882741049 0.713293902
vn -1.000000000 0.000000000 0.000000000
f 559/559/559 560/560/560 561/561/561
g wood
v -0.202428768 0.206602557 0.387844687
vt 0.909586037 0.702064349
vn -1.000000000 0.000000000 0.000000000
v -0.202428768 0.169038456 0.422985444
vt 0.882741049 0.713293902
vn -1.000000000 0.000000000 0.000000000
v -0.202428768 0.206602557 0.422985444
vt 0.909586037 0.713293902
vn -1.000000000 0.000000000 0.000000000
f 562/562/562 563/563/563 564/564/564
g wood
v 0.202428768 0.206602557 0.422985444
vt 0.909586037 0.713293902
vn 1.000000000 0.000000000 0.000000000
v 0.202428768 0.169038456 0.422985444
vt 0.882741049 0.713293902
vn 1.000000000 0.000000000 0.000000000
v 0.202428768 0.169038456 0.387844687
vt 0.882741049 0.702064349
vn 1.000000000 0.000000000 0.000000000
f 565/565/565 566/566/566 567/567/567
g wood
v 0.202428768 0.206602557 0.422985444
vt 0.909586037 0.713293902
vn 1.000000000 0.000000000 0.000000000
v 0.202428768 0.169038456 0.387844687
vt 0.882741049 0.702064349
vn 1.000000000 0.000000000 0.000000000
v 0.202428768 0.206602557 0.387844687
vt 0.909586037 0.702064349
vn 1.000000000 0.000000000 0.000000000
f 568/568/568 569/569/569 570/570/570
g wood
v -0.202428768 0.206602557 0.422985444
vt 0.603435952 0.909586037
vn 0.000000000 0.000000000 1.000000000
v -0.202428768 0.169038456 0.422985444
vt 0.603435952 0.882741049
vn 0.000000000 0.000000000 1.000000000
v 0.202428768 0.169038456 0.422985444
vt 0.896564048 0.882741049
vn 0.000000000 0.000000000 1.000000000
f 571/571/571 572/572/572 573/573/573
g wood
v -0.202428768 0.206602557 0.422985444
vt 0.603435952 0.909586037
vn -0.000000000 0.000000000 1.000000000
v 0.202428768 0.169038456 0.422985444
vt 0.896564048 0.882741049
vn -0.000000000 0.000000000 1.000000000
v 0.202428768 0.206602557 0.422985444
vt 0.896564048 0.909586037
vn -0.000000000 0.000000000 1.000000000
f 574/574/574 575/575/575 576/576/576
g wood
v -0.202428768 0.169038456 0.422985444
vt 0.603435952 0.713293902
vn 0.000000000 -1.000000000 0.000000000
v -0.202428768 0.169038456 0.387844687
vt 0.603435952 0.702064349
vn 0.000000000 -1.000000000 0.000000000
v 0.202428768 0.169038456 0.387844687
vt 0.896564048 0.702064349
vn 0.000000000 -1.000000000 0.000000000
f 577/577/577 578/578/578 579/579/579
g wood
v -0.202428768 0.169038456 0.422985444
vt 0.603435952 0.713293902
vn 0.000000000 -1.000000000 0.000000000
v 0.202428768 0.169038456 0.387844687
vt 0.896564048 0.702064349
vn 0.000000000 -1.000000000 0.000000000
v 0.202428768 0.169038456 0.422985444
vt 0.896564048 0.713293902
vn 0.000000000 -1.000000000 0.000000000
f 580/580/580 581/581/581 582/582/582
g wood
v -0.202428768 0.169038456 0.387844687
vt 0.603435952 0.882741049
vn 0.000000000 0.000000000 -1.000000000
v -0.202428768 0.206602557 0.387844687
vt 0.603435952 0.909586037
vn 0.000000000 0.000000000 -1.000000000
v 0.202428768 0.206602557 0.387844687
vt 0.896564048 0.909586037
vn 0.000000000 0.000000000 -1.000000000
f 583/583/583 584/584/584 585/585/585
g wood
v -0.202428768 0.169038456 0.387844687
vt 0.603435952 0.882741049
vn 0.000000000 0.000000000 -1.000000000
v 0.202428768 0.206602557 0.387844687
vt 0.896564048 0.909586037
vn 0.000000000 0.000000000 -1.000000000
v 0.202428768 0.169038456 0.387844687
vt 0.896564048 0.882741049
vn 0.000000000 0.000000000 -1.000000000
f 586/586/586 587/587/587 588/588/588
g wood
v -0.202428768 0.206602557 0.387844687
vt 0.603435952 0.702064349
vn 0.000000000 1.000000000 0.000000000
v -0.202428768 0.206602557 0.422985444
vt 0.603435952 0.713293902
vn 0.000000000 1.000000000 0.000000000
v 0.202428768 0.206602557 0.422985444
vt 0.896564048 0.713293902
vn 0.000000000 1.000000000 0.000000000
f 589/589/589 590/590/590 591/591/591
g wood
v -0.202428768 0.206602557 0.387844687
vt 0.603435952 0.702064349
vn 0.000000000 1.000000000 0.000000000
v 0.202428768 0.206602557 0.422985444
vt 0.896564048 0.713293902
vn 0.000000000 1.000000000 0.000000000
v 0.202428768 0.206602557 0.387844687
vt 0.896564048 0.702064349
vn 0.000000000 1.000000000 0.000000000
f 592/592/592 593/593/593 594/594/594
