# Original G023 Desktop; Z up; tile units
mtllib pz_g023_appliances_com_01_desktop_computer.mtl
o pz_g023_appliances_com_01_desktop_computer
usemtl NativeSurface
g desktop_case_bottom
v 0.10520000 0.23700000 0.86680000
v 0.10520000 -0.24860000 0.86680000
v -0.44580000 -0.24860000 0.86680000
v -0.44580000 0.23700000 0.86680000
vt 0.49609375 0.05078125
vt 0.49609375 0.05078125
vt 0.49609375 0.05078125
vt 0.49609375 0.05078125
vn -0.00000000 -0.00000000 -1.00000000
f 1/1/1 2/2/1 3/3/1
f 1/1/1 3/3/1 4/4/1
g desktop_case_top
v 0.10520000 0.23700000 1.10430000
v -0.44580000 0.23700000 1.10430000
v -0.44580000 -0.24860000 1.10430000
v 0.10520000 -0.24860000 1.10430000
vt 0.37890625 0.98046875
vt 0.67578125 0.98046875
vt 0.67578125 0.72265625
vt 0.37890625 0.72265625
vn -0.00000000 -0.00000000 1.00000000
f 5/5/2 6/6/2 7/7/2
f 5/5/2 7/7/2 8/8/2
g desktop_case_front
v 0.10520000 0.23700000 0.86680000
v -0.44580000 0.23700000 0.86680000
v -0.44580000 0.23700000 1.10430000
v 0.10520000 0.23700000 1.10430000
vt 0.01953125 0.39453125
vt 0.31640625 0.39453125
vt 0.31640625 0.26171875
vt 0.01953125 0.26171875
vn -0.00000000 1.00000000 0.00000000
f 9/9/3 10/10/3 11/11/3
f 9/9/3 11/11/3 12/12/3
g desktop_case_right
v -0.44580000 0.23700000 0.86680000
v -0.44580000 -0.24860000 0.86680000
v -0.44580000 -0.24860000 1.10430000
v -0.44580000 0.23700000 1.10430000
vt 0.69140625 0.39453125
vt 0.94921875 0.39453125
vt 0.94921875 0.26171875
vt 0.69140625 0.26171875
vn -1.00000000 -0.00000000 0.00000000
f 13/13/4 14/14/4 15/15/4
f 13/13/4 15/15/4 16/16/4
g desktop_case_rear
v -0.44580000 -0.24860000 0.86680000
v 0.10520000 -0.24860000 0.86680000
v 0.10520000 -0.24860000 1.10430000
v -0.44580000 -0.24860000 1.10430000
vt 0.35546875 0.39453125
vt 0.65234375 0.39453125
vt 0.65234375 0.26171875
vt 0.35546875 0.26171875
vn -0.00000000 -1.00000000 0.00000000
f 17/17/5 18/18/5 19/19/5
f 17/17/5 19/19/5 20/20/5
g desktop_case_left
v 0.10520000 -0.24860000 0.86680000
v 0.10520000 0.23700000 0.86680000
v 0.10520000 0.23700000 1.10430000
v 0.10520000 -0.24860000 1.10430000
vt 0.01953125 0.22265625
vt 0.27734375 0.22265625
vt 0.27734375 0.08984375
vt 0.01953125 0.08984375
vn 1.00000000 -0.00000000 0.00000000
f 21/21/6 22/22/6 23/23/6
f 21/21/6 23/23/6 24/24/6
g crt_bottom
v 0.07020000 0.19960000 1.13940000
v 0.10520000 -0.11320000 1.10440000
v -0.38720000 -0.11320000 1.10440000
v -0.35220000 0.19960000 1.13940000
vt 0.49609375 0.05078125
vt 0.49609375 0.05078125
vt 0.49609375 0.05078125
vt 0.49609375 0.05078125
vn -0.00000000 0.11119865 -0.99379820
f 25/25/7 26/26/7 27/27/7
f 25/25/7 27/27/7 28/28/7
g crt_rear
v 0.07020000 0.19960000 1.13940000
v -0.35220000 0.19960000 1.13940000
v -0.35220000 0.19960000 1.50350000
v 0.07020000 0.19960000 1.50350000
vt 0.71484375 0.98046875
vt 0.94140625 0.98046875
vt 0.94140625 0.76953125
vt 0.71484375 0.76953125
vn -0.00000000 1.00000000 0.00000000
f 29/29/8 30/30/8 31/31/8
f 29/29/8 31/31/8 32/32/8
g crt_right
v -0.35220000 0.19960000 1.13940000
v -0.38720000 -0.11320000 1.10440000
v -0.38720000 -0.11320000 1.53850000
v -0.35220000 0.19960000 1.50350000
vt 0.01953125 0.64453125
vt 0.19140625 0.64453125
vt 0.19140625 0.43359375
vt 0.01953125 0.43359375
vn -0.99379820 0.11119865 0.00000000
f 33/33/9 34/34/9 35/35/9
f 33/33/9 35/35/9 36/36/9
g crt_screen
v 0.10520000 -0.11320000 1.10440000
v 0.10520000 -0.11320000 1.53850000
v -0.38720000 -0.11320000 1.53850000
v -0.38720000 -0.11320000 1.10440000
vt 0.08203125 0.98046875
vt 0.33984375 0.98046875
vt 0.33984375 0.71484375
vt 0.08203125 0.71484375
vn -0.00000000 -1.00000000 0.00000000
f 37/37/10 38/38/10 39/39/10
f 37/37/10 39/39/10 40/40/10
g crt_left
v 0.07020000 0.19960000 1.13940000
v 0.07020000 0.19960000 1.50350000
v 0.10520000 -0.11320000 1.53850000
v 0.10520000 -0.11320000 1.10440000
vt 0.49609375 0.64453125
vt 0.70703125 0.64453125
vt 0.70703125 0.47265625
vt 0.49609375 0.47265625
vn 0.99379820 0.11119865 0.00000000
f 41/41/11 42/42/11 43/43/11
f 41/41/11 43/43/11 44/44/11
g crt_top
v 0.07020000 0.19960000 1.50350000
v -0.35220000 0.19960000 1.50350000
v -0.38720000 -0.11320000 1.53850000
v 0.10520000 -0.11320000 1.53850000
vt 0.23046875 0.64453125
vt 0.45703125 0.64453125
vt 0.45703125 0.45703125
vt 0.23046875 0.45703125
vn -0.00000000 0.11119865 0.99379820
f 45/45/12 46/46/12 47/47/12
f 45/45/12 47/47/12 48/48/12
g keyboard_bottom
v 0.10520000 -0.28890000 0.86680000
v 0.10520000 -0.49590000 0.86680000
v -0.44580000 -0.49590000 0.86680000
v -0.44580000 -0.28890000 0.86680000
vt 0.49609375 0.05078125
vt 0.49609375 0.05078125
vt 0.49609375 0.05078125
vt 0.49609375 0.05078125
vn -0.00000000 -0.00000000 -1.00000000
f 49/49/13 50/50/13 51/51/13
f 49/49/13 51/51/13 52/52/13
g keyboard_rear
v 0.10520000 -0.28890000 0.86680000
v -0.44580000 -0.28890000 0.86680000
v -0.44580000 -0.28890000 0.92180000
v 0.10520000 -0.28890000 0.92180000
vt 0.01953125 0.05078125
vt 0.31640625 0.05078125
vt 0.31640625 0.02734375
vt 0.01953125 0.02734375
vn -0.00000000 1.00000000 0.00000000
f 53/53/14 54/54/14 55/55/14
f 53/53/14 55/55/14 56/56/14
g keyboard_right
v -0.44580000 -0.28890000 0.86680000
v -0.44580000 -0.49590000 0.86680000
v -0.44580000 -0.49590000 0.88880000
v -0.44580000 -0.28890000 0.92180000
vt 0.35546875 0.05078125
vt 0.45703125 0.05078125
vt 0.45703125 0.02734375
vt 0.35546875 0.02734375
vn -1.00000000 -0.00000000 0.00000000
f 57/57/15 58/58/15 59/59/15
f 57/57/15 59/59/15 60/60/15
g keyboard_front
v 0.10520000 -0.49590000 0.86680000
v 0.10520000 -0.49590000 0.88880000
v -0.44580000 -0.49590000 0.88880000
v -0.44580000 -0.49590000 0.86680000
vt 0.01953125 0.98046875
vt 0.04296875 0.98046875
vt 0.04296875 0.68359375
vt 0.01953125 0.68359375
vn -0.00000000 -1.00000000 0.00000000
f 61/61/16 62/62/16 63/63/16
f 61/61/16 63/63/16 64/64/16
g keyboard_left
v 0.10520000 -0.28890000 0.86680000
v 0.10520000 -0.28890000 0.92180000
v 0.10520000 -0.49590000 0.88880000
v 0.10520000 -0.49590000 0.86680000
vt 0.65234375 0.22265625
vt 0.67578125 0.22265625
vt 0.67578125 0.12109375
vt 0.65234375 0.12109375
vn 1.00000000 -0.00000000 0.00000000
f 65/65/17 66/66/17 67/67/17
f 65/65/17 67/67/17 68/68/17
g keyboard_keys
v 0.10520000 -0.28890000 0.92180000
v -0.44580000 -0.28890000 0.92180000
v -0.44580000 -0.49590000 0.88880000
v 0.10520000 -0.49590000 0.88880000
vt 0.31640625 0.22265625
vt 0.61328125 0.22265625
vt 0.61328125 0.10546875
vt 0.31640625 0.10546875
vn 0.00000000 -0.15743228 0.98752978
f 69/69/18 70/70/18 71/71/18
f 69/69/18 71/71/18 72/72/18
