# G016 original low-poly geometry; continuous native face pixels; Z-up tile units
mtllib pz_g016_popsicle_freezer_part0.mtl
o pz_g016_popsicle_freezer_part0
usemtl Native_Surface
g native_component_0_z-
v -0.500000000 -0.409012300 0.000000000
v -0.500000000 0.313212300 0.000000000
v 0.099324681 0.313212300 0.000000000
v 0.099324681 -0.409012300 0.000000000
vt 0.722656250 0.506835938
vt 0.777343750 0.506835938
vt 0.777343750 0.493164062
vt 0.722656250 0.493164062
vn 0.000000000 0.000000000 -1.000000000
f 1/1/1 2/2/1 3/3/1
vn 0.000000000 0.000000000 -1.000000000
f 1/1/2 3/3/2 4/4/2
g native_component_0_z+
v -0.500000000 -0.409012300 0.774900000
v 0.099324681 -0.409012300 0.774900000
v 0.099324681 0.313212300 0.774900000
v -0.500000000 0.313212300 0.774900000
vt 0.019531250 0.506835938
vt 0.683593750 0.506835938
vt 0.683593750 0.307617188
vt 0.019531250 0.307617188
vn 0.000000000 0.000000000 1.000000000
f 5/5/3 6/6/3 7/7/3
vn 0.000000000 0.000000000 1.000000000
f 5/5/4 7/7/4 8/8/4
g native_component_0_y-
v -0.500000000 -0.409012300 0.000000000
v 0.099324681 -0.409012300 0.000000000
v 0.099324681 -0.409012300 0.774900000
v -0.500000000 -0.409012300 0.774900000
vt 0.722656250 0.506835938
vt 0.777343750 0.506835938
vt 0.777343750 0.493164062
vt 0.722656250 0.493164062
vn 0.000000000 -1.000000000 0.000000000
f 9/9/5 10/10/5 11/11/5
vn 0.000000000 -1.000000000 0.000000000
f 9/9/6 11/11/6 12/12/6
g native_component_0_x+
v 0.099324681 -0.409012300 0.000000000
v 0.099324681 0.313212300 0.000000000
v 0.099324681 0.313212300 0.774900000
v 0.099324681 -0.409012300 0.774900000
vt 0.019531250 0.995117188
vt 0.816406250 0.995117188
vt 0.816406250 0.760742188
vt 0.019531250 0.760742188
vn 1.000000000 0.000000000 0.000000000
f 13/13/7 14/14/7 15/15/7
vn 1.000000000 0.000000000 0.000000000
f 13/13/8 15/15/8 16/16/8
g native_component_0_y+
v 0.099324681 0.313212300 0.000000000
v -0.500000000 0.313212300 0.000000000
v -0.500000000 0.313212300 0.774900000
v 0.099324681 0.313212300 0.774900000
vt 0.019531250 0.750976562
vt 0.683593750 0.750976562
vt 0.683593750 0.516601562
vt 0.019531250 0.516601562
vn 0.000000000 1.000000000 0.000000000
f 17/17/9 18/18/9 19/19/9
vn 0.000000000 1.000000000 -0.000000000
f 17/17/10 19/19/10 20/20/10
