# G016 original candidate; native measured tile units, Z up.
mtllib pz_g016_storage_hardwood_wall.mtl
o pz_g016_storage_hardwood_wall
usemtl native_storage
v -0.453125000 -0.453125000 0.780000000
v -0.453125000 -0.050347222 0.780000000
v 0.503472222 -0.050347222 0.780000000
v 0.503472222 -0.453125000 0.780000000
v -0.453125000 -0.453125000 0.847848082
v 0.503472222 -0.453125000 0.847848082
v 0.503472222 -0.050347222 0.847848082
v -0.453125000 -0.050347222 0.847848082
v -0.453125000 -0.453125000 1.458480824
v -0.453125000 -0.050347222 1.458480824
v 0.503472222 -0.050347222 1.458480824
v 0.503472222 -0.453125000 1.458480824
v -0.453125000 -0.453125000 1.526328906
v 0.503472222 -0.453125000 1.526328906
v 0.503472222 -0.050347222 1.526328906
v -0.453125000 -0.050347222 1.526328906
vt 0.644531250 0.511718750
vt 0.644531250 0.082031250
vt 0.917968750 0.082031250
vt 0.917968750 0.511718750
vt 0.019531250 0.980468750
vt 0.292968750 0.980468750
vt 0.292968750 0.550781250
vt 0.019531250 0.550781250
vt 0.332031250 0.980468750
vt 0.605468750 0.980468750
vt 0.605468750 0.550781250
vt 0.332031250 0.550781250
vn 0.000000000 0.000000000 -1.000000000
vn 0.000000000 0.000000000 1.000000000
vn 0.000000000 -1.000000000 0.000000000
vn 0.000000000 1.000000000 0.000000000
vn -1.000000000 0.000000000 0.000000000
vn 1.000000000 0.000000000 0.000000000
f 1/1/1 2/2/1 3/3/1
f 1/1/1 3/3/1 4/4/1
f 5/5/2 6/6/2 7/7/2
f 5/5/2 7/7/2 8/8/2
f 1/9/3 4/10/3 6/11/3
f 1/9/3 6/11/3 5/12/3
f 2/9/4 8/12/4 7/11/4
f 2/9/4 7/11/4 3/10/4
f 1/9/5 5/12/5 8/11/5
f 1/9/5 8/11/5 2/10/5
f 4/9/6 3/10/6 7/11/6
f 4/9/6 7/11/6 6/12/6
f 9/1/1 10/2/1 11/3/1
f 9/1/1 11/3/1 12/4/1
f 13/5/2 14/6/2 15/7/2
f 13/5/2 15/7/2 16/8/2
f 9/9/3 12/10/3 14/11/3
f 9/9/3 14/11/3 13/12/3
f 10/9/4 16/12/4 15/11/4
f 10/9/4 15/11/4 11/10/4
f 9/9/5 13/12/5 16/11/5
f 9/9/5 16/11/5 10/10/5
f 12/9/6 11/10/6 15/11/6
f 12/9/6 15/11/6 14/12/6
