# G016 original candidate; native measured tile units, Z up.
mtllib pz_g016_storage_big_wall.mtl
o pz_g016_storage_big_wall
usemtl native_storage
v -0.441271552 -0.441271552 0.000000000
v -0.441271552 -0.372629310 0.000000000
v 0.490301724 -0.372629310 0.000000000
v 0.490301724 -0.441271552 0.000000000
v -0.441271552 -0.441271552 1.971073777
v 0.490301724 -0.441271552 1.971073777
v 0.490301724 -0.372629310 1.971073777
v -0.441271552 -0.372629310 1.971073777
v -0.441271552 0.049030172 0.000000000
v 0.490301724 0.049030172 0.000000000
v -0.441271552 -0.372629310 0.146366865
v 0.490301724 -0.372629310 0.146366865
v 0.490301724 0.049030172 0.146366865
v -0.441271552 0.049030172 0.146366865
v -0.441271552 -0.372629310 0.829412233
v -0.441271552 0.049030172 0.829412233
v 0.490301724 0.049030172 0.829412233
v 0.490301724 -0.372629310 0.829412233
v -0.441271552 -0.372629310 0.897716770
v 0.490301724 -0.372629310 0.897716770
v 0.490301724 0.049030172 0.897716770
v -0.441271552 0.049030172 0.897716770
v -0.441271552 -0.372629310 1.512457601
v -0.441271552 0.049030172 1.512457601
v 0.490301724 0.049030172 1.512457601
v 0.490301724 -0.372629310 1.512457601
v -0.441271552 -0.372629310 1.580762138
v 0.490301724 -0.372629310 1.580762138
v 0.490301724 0.049030172 1.580762138
v -0.441271552 0.049030172 1.580762138
v -0.441271552 -0.371648707 1.883253659
v -0.441271552 -0.359881466 1.883253659
v 0.490301724 -0.359881466 1.883253659
v 0.490301724 -0.371648707 1.883253659
v -0.441271552 -0.371648707 1.971073777
v 0.490301724 -0.371648707 1.971073777
v 0.490301724 -0.359881466 1.971073777
v -0.441271552 -0.359881466 1.971073777
v -0.441271552 -0.371648707 0.000000000
v -0.441271552 -0.359881466 0.000000000
v -0.382435345 -0.359881466 0.000000000
v -0.382435345 -0.371648707 0.000000000
v -0.382435345 -0.371648707 1.971073777
v -0.382435345 -0.359881466 1.971073777
v 0.431465517 -0.371648707 0.000000000
v 0.431465517 -0.359881466 0.000000000
v 0.490301724 -0.359881466 0.000000000
v 0.490301724 -0.371648707 0.000000000
v 0.431465517 -0.371648707 1.971073777
v 0.431465517 -0.359881466 1.971073777
vt 0.332031250 0.980468750
vt 0.332031250 0.550781250
vt 0.605468750 0.550781250
vt 0.605468750 0.980468750
vt 0.019531250 0.511718750
vt 0.292968750 0.511718750
vt 0.292968750 0.082031250
vt 0.019531250 0.082031250
vt 0.644531250 0.980468750
vt 0.644531250 0.550781250
vt 0.917968750 0.550781250
vt 0.917968750 0.980468750
vt 0.644531250 0.511718750
vt 0.644531250 0.082031250
vt 0.917968750 0.082031250
vt 0.917968750 0.511718750
vt 0.019531250 0.980468750
vt 0.292968750 0.980468750
vt 0.292968750 0.550781250
vt 0.019531250 0.550781250
vn 0.000000000 0.000000000 -1.000000000
vn 0.000000000 0.000000000 1.000000000
vn 0.000000000 -1.000000000 0.000000000
vn 0.000000000 1.000000000 0.000000000
vn -1.000000000 0.000000000 0.000000000
vn 1.000000000 0.000000000 0.000000000
f 1/1/1 2/2/1 3/3/1
f 1/1/1 3/3/1 4/4/1
f 5/1/2 6/4/2 7/3/2
f 5/1/2 7/3/2 8/2/2
f 1/5/3 4/6/3 6/7/3
f 1/5/3 6/7/3 5/8/3
f 2/9/4 8/10/4 7/11/4
f 2/9/4 7/11/4 3/12/4
f 1/1/5 5/2/5 8/3/5
f 1/1/5 8/3/5 2/4/5
f 4/1/6 3/4/6 7/3/6
f 4/1/6 7/3/6 6/2/6
f 2/13/1 9/14/1 10/15/1
f 2/13/1 10/15/1 3/16/1
f 11/17/2 12/18/2 13/19/2
f 11/17/2 13/19/2 14/20/2
f 9/1/4 14/2/4 13/3/4
f 9/1/4 13/3/4 10/4/4
f 2/1/5 11/2/5 14/3/5
f 2/1/5 14/3/5 9/4/5
f 3/1/6 10/4/6 13/3/6
f 3/1/6 13/3/6 12/2/6
f 15/13/1 16/14/1 17/15/1
f 15/13/1 17/15/1 18/16/1
f 19/17/2 20/18/2 21/19/2
f 19/17/2 21/19/2 22/20/2
f 16/1/4 22/2/4 21/3/4
f 16/1/4 21/3/4 17/4/4
f 15/1/5 19/2/5 22/3/5
f 15/1/5 22/3/5 16/4/5
f 18/1/6 17/4/6 21/3/6
f 18/1/6 21/3/6 20/2/6
f 23/13/1 24/14/1 25/15/1
f 23/13/1 25/15/1 26/16/1
f 27/17/2 28/18/2 29/19/2
f 27/17/2 29/19/2 30/20/2
f 24/1/4 30/2/4 29/3/4
f 24/1/4 29/3/4 25/4/4
f 23/1/5 27/2/5 30/3/5
f 23/1/5 30/3/5 24/4/5
f 26/1/6 25/4/6 29/3/6
f 26/1/6 29/3/6 28/2/6
f 31/1/1 32/2/1 33/3/1
f 31/1/1 33/3/1 34/4/1
f 35/1/2 36/4/2 37/3/2
f 35/1/2 37/3/2 38/2/2
f 31/1/3 34/4/3 36/3/3
f 31/1/3 36/3/3 35/2/3
f 32/1/4 38/2/4 37/3/4
f 32/1/4 37/3/4 33/4/4
f 31/1/5 35/2/5 38/3/5
f 31/1/5 38/3/5 32/4/5
f 34/1/6 33/4/6 37/3/6
f 34/1/6 37/3/6 36/2/6
f 39/1/1 40/2/1 41/3/1
f 39/1/1 41/3/1 42/4/1
f 35/1/2 43/4/2 44/3/2
f 35/1/2 44/3/2 38/2/2
f 39/1/3 42/4/3 43/3/3
f 39/1/3 43/3/3 35/2/3
f 40/1/4 38/2/4 44/3/4
f 40/1/4 44/3/4 41/4/4
f 39/1/5 35/2/5 38/3/5
f 39/1/5 38/3/5 40/4/5
f 42/1/6 41/4/6 44/3/6
f 42/1/6 44/3/6 43/2/6
f 45/1/1 46/2/1 47/3/1
f 45/1/1 47/3/1 48/4/1
f 49/1/2 36/4/2 37/3/2
f 49/1/2 37/3/2 50/2/2
f 45/1/3 48/4/3 36/3/3
f 45/1/3 36/3/3 49/2/3
f 46/1/4 50/2/4 37/3/4
f 46/1/4 37/3/4 47/4/4
f 45/1/5 49/2/5 50/3/5
f 45/1/5 50/3/5 46/4/5
f 48/1/6 47/4/6 37/3/6
f 48/1/6 37/3/6 36/2/6
