# Original G022 Long; Z up; tile units
mtllib pz_g022_location_shop_generic_01_long_shelves_part1.mtl
o pz_g022_location_shop_generic_01_long_shelves_part1
usemtl NativeSurface
g rear_panel_bottom
v 0.50000000 0.04000000 0.00000000
v -0.50000000 0.04000000 0.00000000
v -0.50000000 0.12000000 0.00000000
v 0.50000000 0.12000000 0.00000000
vt 0.60546875 0.42382812
vt 0.64453125 0.42382812
vt 0.64453125 0.40429688
vt 0.60546875 0.40429688
vn -0.00000000 -0.00000000 -1.00000000
f 1/1/1 2/2/1 3/3/1
f 1/1/1 3/3/1 4/4/1
g rear_panel_top
v 0.50000000 0.12000000 1.06000000
v -0.50000000 0.12000000 1.06000000
v -0.50000000 0.04000000 1.06000000
v 0.50000000 0.04000000 1.06000000
vt 0.01953125 0.31054688
vt 0.56640625 0.31054688
vt 0.56640625 0.29492188
vt 0.01953125 0.29492188
vn -0.00000000 -0.00000000 1.00000000
f 5/5/2 6/6/2 7/7/2
f 5/5/2 7/7/2 8/8/2
g rear_panel_front
v 0.50000000 0.12000000 0.00000000
v -0.50000000 0.12000000 0.00000000
v -0.50000000 0.12000000 1.06000000
v 0.50000000 0.12000000 1.06000000
vt 0.60546875 0.42382812
vt 0.64453125 0.42382812
vt 0.64453125 0.40429688
vt 0.60546875 0.40429688
vn -0.00000000 1.00000000 0.00000000
f 9/9/3 10/10/3 11/11/3
f 9/9/3 11/11/3 12/12/3
g rear_panel_rear
v -0.50000000 0.04000000 0.00000000
v 0.50000000 0.04000000 0.00000000
v 0.50000000 0.04000000 1.06000000
v -0.50000000 0.04000000 1.06000000
vt 0.01953125 0.99023438
vt 0.56640625 0.99023438
vt 0.56640625 0.66992188
vt 0.01953125 0.66992188
vn -0.00000000 -1.00000000 0.00000000
f 13/13/4 14/14/4 15/15/4
f 13/13/4 15/15/4 16/16/4
g open_shelf_0_bottom
v 0.50000000 -0.32000000 0.00000000
v -0.50000000 -0.32000000 0.00000000
v -0.50000000 0.04000000 0.00000000
v 0.50000000 0.04000000 0.00000000
vt 0.60546875 0.42382812
vt 0.64453125 0.42382812
vt 0.64453125 0.40429688
vt 0.60546875 0.40429688
vn -0.00000000 -0.00000000 -1.00000000
f 17/17/5 18/18/5 19/19/5
f 17/17/5 19/19/5 20/20/5
g open_shelf_0_top
v 0.50000000 0.04000000 0.15000000
v -0.50000000 0.04000000 0.15000000
v -0.50000000 -0.32000000 0.15000000
v 0.50000000 -0.32000000 0.15000000
vt 0.01953125 0.65039062
vt 0.56640625 0.65039062
vt 0.56640625 0.55664062
vt 0.01953125 0.55664062
vn -0.00000000 -0.00000000 1.00000000
f 21/21/6 22/22/6 23/23/6
f 21/21/6 23/23/6 24/24/6
g open_shelf_0_front
v 0.50000000 0.04000000 0.00000000
v -0.50000000 0.04000000 0.00000000
v -0.50000000 0.04000000 0.15000000
v 0.50000000 0.04000000 0.15000000
vt 0.60546875 0.42382812
vt 0.64453125 0.42382812
vt 0.64453125 0.40429688
vt 0.60546875 0.40429688
vn -0.00000000 1.00000000 0.00000000
f 25/25/7 26/26/7 27/27/7
f 25/25/7 27/27/7 28/28/7
g open_shelf_1_bottom
v 0.50000000 -0.32000000 0.40000000
v -0.50000000 -0.32000000 0.40000000
v -0.50000000 0.04000000 0.40000000
v 0.50000000 0.04000000 0.40000000
vt 0.60546875 0.42382812
vt 0.64453125 0.42382812
vt 0.64453125 0.40429688
vt 0.60546875 0.40429688
vn -0.00000000 -0.00000000 -1.00000000
f 29/29/8 30/30/8 31/31/8
f 29/29/8 31/31/8 32/32/8
g open_shelf_1_top
v 0.50000000 0.04000000 0.48000000
v -0.50000000 0.04000000 0.48000000
v -0.50000000 -0.32000000 0.48000000
v 0.50000000 -0.32000000 0.48000000
vt 0.01953125 0.53710938
vt 0.56640625 0.53710938
vt 0.56640625 0.44335938
vt 0.01953125 0.44335938
vn -0.00000000 -0.00000000 1.00000000
f 33/33/9 34/34/9 35/35/9
f 33/33/9 35/35/9 36/36/9
g open_shelf_1_front
v 0.50000000 0.04000000 0.40000000
v -0.50000000 0.04000000 0.40000000
v -0.50000000 0.04000000 0.48000000
v 0.50000000 0.04000000 0.48000000
vt 0.60546875 0.42382812
vt 0.64453125 0.42382812
vt 0.64453125 0.40429688
vt 0.60546875 0.40429688
vn -0.00000000 1.00000000 0.00000000
f 37/37/10 38/38/10 39/39/10
f 37/37/10 39/39/10 40/40/10
g open_shelf_2_bottom
v 0.50000000 -0.32000000 0.76000000
v -0.50000000 -0.32000000 0.76000000
v -0.50000000 0.04000000 0.76000000
v 0.50000000 0.04000000 0.76000000
vt 0.60546875 0.42382812
vt 0.64453125 0.42382812
vt 0.64453125 0.40429688
vt 0.60546875 0.40429688
vn -0.00000000 -0.00000000 -1.00000000
f 41/41/11 42/42/11 43/43/11
f 41/41/11 43/43/11 44/44/11
g open_shelf_2_top
v 0.50000000 0.04000000 0.82000000
v -0.50000000 0.04000000 0.82000000
v -0.50000000 -0.32000000 0.82000000
v 0.50000000 -0.32000000 0.82000000
vt 0.01953125 0.42382812
vt 0.56640625 0.42382812
vt 0.56640625 0.33007812
vt 0.01953125 0.33007812
vn -0.00000000 -0.00000000 1.00000000
f 45/45/12 46/46/12 47/47/12
f 45/45/12 47/47/12 48/48/12
g open_shelf_2_front
v 0.50000000 0.04000000 0.76000000
v -0.50000000 0.04000000 0.76000000
v -0.50000000 0.04000000 0.82000000
v 0.50000000 0.04000000 0.82000000
vt 0.60546875 0.42382812
vt 0.64453125 0.42382812
vt 0.64453125 0.40429688
vt 0.60546875 0.40429688
vn -0.00000000 1.00000000 0.00000000
f 49/49/13 50/50/13 51/51/13
f 49/49/13 51/51/13 52/52/13
