# G018 authored low-poly bar counter; tile units; Z up
mtllib pz_g018_bar_oak_corner.mtl
o pz_g018_bar_oak_corner
usemtl Native_Bar
v -0.4600000 -0.4600000 0.7550000
v 0.4600000 -0.4600000 0.7550000
v 0.4600000 0.1600000 0.7550000
v -0.4600000 0.1600000 0.7550000
vt 0.25781250 0.51562500
vt 0.49218750 0.51562500
vt 0.49218750 0.98437500
vt 0.25781250 0.98437500
g side
f 1/1 2/2 3/3
f 1/1 3/3 4/4
v -0.4600000 0.1600000 0.0600000
v 0.4600000 0.1600000 0.0600000
v 0.4600000 -0.4600000 0.0600000
v -0.4600000 -0.4600000 0.0600000
vt 0.25781250 0.51562500
vt 0.49218750 0.51562500
vt 0.49218750 0.98437500
vt 0.25781250 0.98437500
g side
f 5/5 6/6 7/7
f 5/5 7/7 8/8
v -0.4600000 0.1600000 0.7550000
v 0.1600000 0.1600000 0.7550000
v 0.1600000 0.4600000 0.7550000
v -0.4600000 0.4600000 0.7550000
vt 0.25781250 0.51562500
vt 0.49218750 0.51562500
vt 0.49218750 0.98437500
vt 0.25781250 0.98437500
g side
f 9/9 10/10 11/11
f 9/9 11/11 12/12
v -0.4600000 0.4600000 0.0600000
v 0.1600000 0.4600000 0.0600000
v 0.1600000 0.1600000 0.0600000
v -0.4600000 0.1600000 0.0600000
vt 0.25781250 0.51562500
vt 0.49218750 0.51562500
vt 0.49218750 0.98437500
vt 0.25781250 0.98437500
g side
f 13/13 14/14 15/15
f 13/13 15/15 16/16
v -0.4600000 -0.4600000 0.0600000
v 0.4600000 -0.4600000 0.0600000
v 0.4600000 -0.4600000 0.7550000
v -0.4600000 -0.4600000 0.7550000
vt 0.25781250 0.51562500
vt 0.49218750 0.51562500
vt 0.49218750 0.98437500
vt 0.25781250 0.98437500
g side
f 17/17 18/18 19/19
f 17/17 19/19 20/20
v 0.4600000 -0.4600000 0.0600000
v 0.4600000 0.1600000 0.0600000
v 0.4600000 0.1600000 0.7550000
v 0.4600000 -0.4600000 0.7550000
vt 0.25781250 0.51562500
vt 0.49218750 0.51562500
vt 0.49218750 0.98437500
vt 0.25781250 0.98437500
g side
f 21/21 22/22 23/23
f 21/21 23/23 24/24
v 0.4600000 0.1600000 0.0600000
v 0.1600000 0.1600000 0.0600000
v 0.1600000 0.1600000 0.7550000
v 0.4600000 0.1600000 0.7550000
vt 0.25781250 0.51562500
vt 0.49218750 0.51562500
vt 0.49218750 0.98437500
vt 0.25781250 0.98437500
g side
f 25/25 26/26 27/27
f 25/25 27/27 28/28
v 0.1600000 0.1600000 0.0600000
v 0.1600000 0.4600000 0.0600000
v 0.1600000 0.4600000 0.7550000
v 0.1600000 0.1600000 0.7550000
vt 0.25781250 0.51562500
vt 0.49218750 0.51562500
vt 0.49218750 0.98437500
vt 0.25781250 0.98437500
g side
f 29/29 30/30 31/31
f 29/29 31/31 32/32
v 0.1600000 0.4600000 0.0600000
v -0.4600000 0.4600000 0.0600000
v -0.4600000 0.4600000 0.7550000
v 0.1600000 0.4600000 0.7550000
vt 0.25781250 0.51562500
vt 0.49218750 0.51562500
vt 0.49218750 0.98437500
vt 0.25781250 0.98437500
g side
f 33/33 34/34 35/35
f 33/33 35/35 36/36
v -0.4600000 0.4600000 0.0600000
v -0.4600000 -0.4600000 0.0600000
v -0.4600000 -0.4600000 0.7550000
v -0.4600000 0.4600000 0.7550000
vt 0.25781250 0.51562500
vt 0.49218750 0.51562500
vt 0.49218750 0.98437500
vt 0.25781250 0.98437500
g side
f 37/37 38/38 39/39
f 37/37 39/39 40/40
v -0.5000000 -0.5000000 0.8200000
v 0.5000000 -0.5000000 0.8200000
v 0.5000000 0.2000000 0.8200000
v -0.5000000 0.2000000 0.8200000
vt 0.00781250 0.51562500
vt 0.24218750 0.51562500
vt 0.24218750 0.98437500
vt 0.00781250 0.98437500
g top
f 41/41 42/42 43/43
f 41/41 43/43 44/44
v -0.5000000 0.2000000 0.7550000
v 0.5000000 0.2000000 0.7550000
v 0.5000000 -0.5000000 0.7550000
v -0.5000000 -0.5000000 0.7550000
vt 0.75781250 0.51562500
vt 0.99218750 0.51562500
vt 0.99218750 0.98437500
vt 0.75781250 0.98437500
g trim
f 45/45 46/46 47/47
f 45/45 47/47 48/48
v -0.5000000 0.2000000 0.8200000
v 0.2000000 0.2000000 0.8200000
v 0.2000000 0.5000000 0.8200000
v -0.5000000 0.5000000 0.8200000
vt 0.00781250 0.51562500
vt 0.24218750 0.51562500
vt 0.24218750 0.98437500
vt 0.00781250 0.98437500
g top
f 49/49 50/50 51/51
f 49/49 51/51 52/52
v -0.5000000 0.5000000 0.7550000
v 0.2000000 0.5000000 0.7550000
v 0.2000000 0.2000000 0.7550000
v -0.5000000 0.2000000 0.7550000
vt 0.75781250 0.51562500
vt 0.99218750 0.51562500
vt 0.99218750 0.98437500
vt 0.75781250 0.98437500
g trim
f 53/53 54/54 55/55
f 53/53 55/55 56/56
v -0.5000000 -0.5000000 0.7550000
v 0.5000000 -0.5000000 0.7550000
v 0.5000000 -0.5000000 0.8200000
v -0.5000000 -0.5000000 0.8200000
vt 0.75781250 0.51562500
vt 0.99218750 0.51562500
vt 0.99218750 0.98437500
vt 0.75781250 0.98437500
g trim
f 57/57 58/58 59/59
f 57/57 59/59 60/60
v 0.5000000 -0.5000000 0.7550000
v 0.5000000 0.2000000 0.7550000
v 0.5000000 0.2000000 0.8200000
v 0.5000000 -0.5000000 0.8200000
vt 0.75781250 0.51562500
vt 0.99218750 0.51562500
vt 0.99218750 0.98437500
vt 0.75781250 0.98437500
g trim
f 61/61 62/62 63/63
f 61/61 63/63 64/64
v 0.5000000 0.2000000 0.7550000
v 0.2000000 0.2000000 0.7550000
v 0.2000000 0.2000000 0.8200000
v 0.5000000 0.2000000 0.8200000
vt 0.75781250 0.51562500
vt 0.99218750 0.51562500
vt 0.99218750 0.98437500
vt 0.75781250 0.98437500
g trim
f 65/65 66/66 67/67
f 65/65 67/67 68/68
v 0.2000000 0.2000000 0.7550000
v 0.2000000 0.5000000 0.7550000
v 0.2000000 0.5000000 0.8200000
v 0.2000000 0.2000000 0.8200000
vt 0.75781250 0.51562500
vt 0.99218750 0.51562500
vt 0.99218750 0.98437500
vt 0.75781250 0.98437500
g trim
f 69/69 70/70 71/71
f 69/69 71/71 72/72
v 0.2000000 0.5000000 0.7550000
v -0.5000000 0.5000000 0.7550000
v -0.5000000 0.5000000 0.8200000
v 0.2000000 0.5000000 0.8200000
vt 0.75781250 0.51562500
vt 0.99218750 0.51562500
vt 0.99218750 0.98437500
vt 0.75781250 0.98437500
g trim
f 73/73 74/74 75/75
f 73/73 75/75 76/76
v -0.5000000 0.5000000 0.7550000
v -0.5000000 -0.5000000 0.7550000
v -0.5000000 -0.5000000 0.8200000
v -0.5000000 0.5000000 0.8200000
vt 0.75781250 0.51562500
vt 0.99218750 0.51562500
vt 0.99218750 0.98437500
vt 0.75781250 0.98437500
g trim
f 77/77 78/78 79/79
f 77/77 79/79 80/80
v -0.4400000 -0.4400000 0.0950000
v 0.4400000 -0.4400000 0.0950000
v 0.4400000 0.1400000 0.0950000
v -0.4400000 0.1400000 0.0950000
vt 0.25781250 0.01562500
vt 0.49218750 0.01562500
vt 0.49218750 0.48437500
vt 0.25781250 0.48437500
g plinth
f 81/81 82/82 83/83
f 81/81 83/83 84/84
v -0.4400000 0.1400000 0.0250000
v 0.4400000 0.1400000 0.0250000
v 0.4400000 -0.4400000 0.0250000
v -0.4400000 -0.4400000 0.0250000
vt 0.25781250 0.01562500
vt 0.49218750 0.01562500
vt 0.49218750 0.48437500
vt 0.25781250 0.48437500
g plinth
f 85/85 86/86 87/87
f 85/85 87/87 88/88
v -0.4400000 0.1400000 0.0950000
v 0.1400000 0.1400000 0.0950000
v 0.1400000 0.4400000 0.0950000
v -0.4400000 0.4400000 0.0950000
vt 0.25781250 0.01562500
vt 0.49218750 0.01562500
vt 0.49218750 0.48437500
vt 0.25781250 0.48437500
g plinth
f 89/89 90/90 91/91
f 89/89 91/91 92/92
v -0.4400000 0.4400000 0.0250000
v 0.1400000 0.4400000 0.0250000
v 0.1400000 0.1400000 0.0250000
v -0.4400000 0.1400000 0.0250000
vt 0.25781250 0.01562500
vt 0.49218750 0.01562500
vt 0.49218750 0.48437500
vt 0.25781250 0.48437500
g plinth
f 93/93 94/94 95/95
f 93/93 95/95 96/96
v -0.4400000 -0.4400000 0.0250000
v 0.4400000 -0.4400000 0.0250000
v 0.4400000 -0.4400000 0.0950000
v -0.4400000 -0.4400000 0.0950000
vt 0.25781250 0.01562500
vt 0.49218750 0.01562500
vt 0.49218750 0.48437500
vt 0.25781250 0.48437500
g plinth
f 97/97 98/98 99/99
f 97/97 99/99 100/100
v 0.4400000 -0.4400000 0.0250000
v 0.4400000 0.1400000 0.0250000
v 0.4400000 0.1400000 0.0950000
v 0.4400000 -0.4400000 0.0950000
vt 0.25781250 0.01562500
vt 0.49218750 0.01562500
vt 0.49218750 0.48437500
vt 0.25781250 0.48437500
g plinth
f 101/101 102/102 103/103
f 101/101 103/103 104/104
v 0.4400000 0.1400000 0.0250000
v 0.1400000 0.1400000 0.0250000
v 0.1400000 0.1400000 0.0950000
v 0.4400000 0.1400000 0.0950000
vt 0.25781250 0.01562500
vt 0.49218750 0.01562500
vt 0.49218750 0.48437500
vt 0.25781250 0.48437500
g plinth
f 105/105 106/106 107/107
f 105/105 107/107 108/108
v 0.1400000 0.1400000 0.0250000
v 0.1400000 0.4400000 0.0250000
v 0.1400000 0.4400000 0.0950000
v 0.1400000 0.1400000 0.0950000
vt 0.25781250 0.01562500
vt 0.49218750 0.01562500
vt 0.49218750 0.48437500
vt 0.25781250 0.48437500
g plinth
f 109/109 110/110 111/111
f 109/109 111/111 112/112
v 0.1400000 0.4400000 0.0250000
v -0.4400000 0.4400000 0.0250000
v -0.4400000 0.4400000 0.0950000
v 0.1400000 0.4400000 0.0950000
vt 0.25781250 0.01562500
vt 0.49218750 0.01562500
vt 0.49218750 0.48437500
vt 0.25781250 0.48437500
g plinth
f 113/113 114/114 115/115
f 113/113 115/115 116/116
v -0.4400000 0.4400000 0.0250000
v -0.4400000 -0.4400000 0.0250000
v -0.4400000 -0.4400000 0.0950000
v -0.4400000 0.4400000 0.0950000
vt 0.25781250 0.01562500
vt 0.49218750 0.01562500
vt 0.49218750 0.48437500
vt 0.25781250 0.48437500
g plinth
f 117/117 118/118 119/119
f 117/117 119/119 120/120
