# Original G020 Yellow Wall; Z up; tile units
mtllib pz_g020_furniture_storage_02_yellow_wall_locker.mtl
o pz_g020_furniture_storage_02_yellow_wall_locker
usemtl NativeSurface
g locker_body_bottom
v 0.49226542 0.44787278 0.03500000
v 0.49226542 0.06872722 0.03500000
v -0.50786542 0.06872722 0.03500000
v -0.50786542 0.44787278 0.03500000
vt 0.01953125 0.12402344
vt 0.05859375 0.12402344
vt 0.05859375 0.11035156
vt 0.01953125 0.11035156
vn -0.00000000 -0.00000000 -1.00000000
f 1/1/1 2/2/1 3/3/1
f 1/1/1 3/3/1 4/4/1
g locker_body_front
v 0.49226542 0.44787278 0.03500000
v -0.50786542 0.44787278 0.03500000
v -0.50786542 0.44787278 1.74640000
v 0.49226542 0.44787278 1.74640000
vt 0.01953125 0.99511719
vt 0.56640625 0.99511719
vt 0.56640625 0.73535156
vt 0.01953125 0.73535156
vn -0.00000000 1.00000000 0.00000000
f 5/5/2 6/6/2 7/7/2
f 5/5/2 7/7/2 8/8/2
g locker_body_right
v -0.50786542 0.44787278 0.03500000
v -0.50786542 0.06872722 0.03500000
v -0.50786542 0.06872722 1.74640000
v -0.50786542 0.44787278 1.74640000
vt 0.60546875 0.72558594
vt 0.80859375 0.72558594
vt 0.80859375 0.46582031
vt 0.60546875 0.46582031
vn -1.00000000 -0.00000000 0.00000000
f 9/9/3 10/10/3 11/11/3
f 9/9/3 11/11/3 12/12/3
g locker_body_rear
v -0.50786542 0.06872722 0.03500000
v 0.49226542 0.06872722 0.03500000
v 0.49226542 0.06872722 1.74640000
v -0.50786542 0.06872722 1.74640000
vt 0.01953125 0.72558594
vt 0.56640625 0.72558594
vt 0.56640625 0.46582031
vt 0.01953125 0.46582031
vn -0.00000000 -1.00000000 0.00000000
f 13/13/4 14/14/4 15/15/4
f 13/13/4 15/15/4 16/16/4
g locker_body_left
v 0.49226542 0.06872722 0.03500000
v 0.49226542 0.44787278 0.03500000
v 0.49226542 0.44787278 1.74640000
v 0.49226542 0.06872722 1.74640000
vt 0.01953125 0.45605469
vt 0.22265625 0.45605469
vt 0.22265625 0.19628906
vt 0.01953125 0.19628906
vn 1.00000000 -0.00000000 0.00000000
f 17/17/5 18/18/5 19/19/5
f 17/17/5 19/19/5 20/20/5
g sloped_roof_bottom
v 0.50526542 0.45987278 1.74000000
v 0.50526542 0.05972722 1.74000000
v -0.52086542 0.05972722 1.74000000
v -0.52086542 0.45987278 1.74000000
vt 0.01953125 0.12402344
vt 0.05859375 0.12402344
vt 0.05859375 0.11035156
vt 0.01953125 0.11035156
vn -0.00000000 -0.00000000 -1.00000000
f 21/21/6 22/22/6 23/23/6
f 21/21/6 23/23/6 24/24/6
g sloped_roof_top
v 0.50526542 0.45987278 1.89500000
v -0.52086542 0.45987278 1.89500000
v -0.52086542 0.05972722 1.74800000
v 0.50526542 0.05972722 1.74800000
vt 0.32421875 0.45605469
vt 0.88671875 0.45605469
vt 0.88671875 0.38964844
vt 0.32421875 0.38964844
vn 0.00000000 -0.34483349 0.93866387
f 25/25/7 26/26/7 27/27/7
f 25/25/7 27/27/7 28/28/7
g sloped_roof_front
v 0.50526542 0.05972722 1.74000000
v 0.50526542 0.05972722 1.74800000
v -0.52086542 0.05972722 1.74800000
v -0.52086542 0.05972722 1.74000000
vt 0.26171875 0.45605469
vt 0.28515625 0.45605469
vt 0.28515625 0.31542969
vt 0.26171875 0.31542969
vn -0.00000000 -1.00000000 0.00000000
f 29/29/8 30/30/8 31/31/8
f 29/29/8 31/31/8 32/32/8
g sloped_roof_right
v -0.52086542 0.45987278 1.74000000
v -0.52086542 0.05972722 1.74000000
v -0.52086542 0.05972722 1.74800000
v -0.52086542 0.45987278 1.89500000
vt 0.74609375 0.18652344
vt 0.95703125 0.18652344
vt 0.95703125 0.16503906
vt 0.74609375 0.16503906
vn -1.00000000 -0.00000000 0.00000000
f 33/33/9 34/34/9 35/35/9
f 33/33/9 35/35/9 36/36/9
g sloped_roof_rear
v 0.50526542 0.45987278 1.74000000
v -0.52086542 0.45987278 1.74000000
v -0.52086542 0.45987278 1.89500000
v 0.50526542 0.45987278 1.89500000
vt 0.14453125 0.18652344
vt 0.70703125 0.18652344
vt 0.70703125 0.16503906
vt 0.14453125 0.16503906
vn -0.00000000 1.00000000 0.00000000
f 37/37/10 38/38/10 39/39/10
f 37/37/10 39/39/10 40/40/10
g sloped_roof_left
v 0.50526542 0.45987278 1.74000000
v 0.50526542 0.45987278 1.89500000
v 0.50526542 0.05972722 1.74800000
v 0.50526542 0.05972722 1.74000000
vt 0.01953125 0.18652344
vt 0.10546875 0.18652344
vt 0.10546875 0.13378906
vt 0.01953125 0.13378906
vn 1.00000000 -0.00000000 0.00000000
f 41/41/11 42/42/11 43/43/11
f 41/41/11 43/43/11 44/44/11
g recessed_plinth_bottom
v 0.47226542 0.43787278 0.00000000
v 0.47226542 0.07872722 0.00000000
v -0.48786542 0.07872722 0.00000000
v -0.48786542 0.43787278 0.00000000
vt 0.01953125 0.12402344
vt 0.05859375 0.12402344
vt 0.05859375 0.11035156
vt 0.01953125 0.11035156
vn -0.00000000 -0.00000000 -1.00000000
f 45/45/12 46/46/12 47/47/12
f 45/45/12 47/47/12 48/48/12
g recessed_plinth_top
v 0.47226542 0.43787278 0.03500000
v -0.48786542 0.43787278 0.03500000
v -0.48786542 0.07872722 0.03500000
v 0.47226542 0.07872722 0.03500000
vt 0.01953125 0.12402344
vt 0.05859375 0.12402344
vt 0.05859375 0.11035156
vt 0.01953125 0.11035156
vn -0.00000000 -0.00000000 1.00000000
f 49/49/13 50/50/13 51/51/13
f 49/49/13 51/51/13 52/52/13
g recessed_plinth_front
v 0.47226542 0.43787278 0.00000000
v -0.48786542 0.43787278 0.00000000
v -0.48786542 0.43787278 0.03500000
v 0.47226542 0.43787278 0.03500000
vt 0.01953125 0.12402344
vt 0.05859375 0.12402344
vt 0.05859375 0.11035156
vt 0.01953125 0.11035156
vn -0.00000000 1.00000000 0.00000000
f 53/53/14 54/54/14 55/55/14
f 53/53/14 55/55/14 56/56/14
g recessed_plinth_right
v -0.48786542 0.43787278 0.00000000
v -0.48786542 0.07872722 0.00000000
v -0.48786542 0.07872722 0.03500000
v -0.48786542 0.43787278 0.03500000
vt 0.01953125 0.12402344
vt 0.05859375 0.12402344
vt 0.05859375 0.11035156
vt 0.01953125 0.11035156
vn -1.00000000 -0.00000000 0.00000000
f 57/57/15 58/58/15 59/59/15
f 57/57/15 59/59/15 60/60/15
g recessed_plinth_rear
v -0.48786542 0.07872722 0.00000000
v 0.47226542 0.07872722 0.00000000
v 0.47226542 0.07872722 0.03500000
v -0.48786542 0.07872722 0.03500000
vt 0.01953125 0.12402344
vt 0.05859375 0.12402344
vt 0.05859375 0.11035156
vt 0.01953125 0.11035156
vn -0.00000000 -1.00000000 0.00000000
f 61/61/16 62/62/16 63/63/16
f 61/61/16 63/63/16 64/64/16
g recessed_plinth_left
v 0.47226542 0.07872722 0.00000000
v 0.47226542 0.43787278 0.00000000
v 0.47226542 0.43787278 0.03500000
v 0.47226542 0.07872722 0.03500000
vt 0.01953125 0.12402344
vt 0.05859375 0.12402344
vt 0.05859375 0.11035156
vt 0.01953125 0.11035156
vn 1.00000000 -0.00000000 0.00000000
f 65/65/17 66/66/17 67/67/17
f 65/65/17 67/67/17 68/68/17
g door_handle_bottom
v 0.25423271 0.06872722 0.95200000
v 0.25423271 0.05672722 0.95200000
v 0.23023271 0.05672722 0.95200000
v 0.23023271 0.06872722 0.95200000
vt 0.01953125 0.12402344
vt 0.05859375 0.12402344
vt 0.05859375 0.11035156
vt 0.01953125 0.11035156
vn -0.00000000 -0.00000000 -1.00000000
f 69/69/18 70/70/18 71/71/18
f 69/69/18 71/71/18 72/72/18
g door_handle_top
v 0.25423271 0.06872722 1.00800000
v 0.23023271 0.06872722 1.00800000
v 0.23023271 0.05672722 1.00800000
v 0.25423271 0.05672722 1.00800000
vt 0.01953125 0.12402344
vt 0.05859375 0.12402344
vt 0.05859375 0.11035156
vt 0.01953125 0.11035156
vn -0.00000000 -0.00000000 1.00000000
f 73/73/19 74/74/19 75/75/19
f 73/73/19 75/75/19 76/76/19
g door_handle_front
v 0.25423271 0.06872722 0.95200000
v 0.23023271 0.06872722 0.95200000
v 0.23023271 0.06872722 1.00800000
v 0.25423271 0.06872722 1.00800000
vt 0.01953125 0.12402344
vt 0.05859375 0.12402344
vt 0.05859375 0.11035156
vt 0.01953125 0.11035156
vn -0.00000000 1.00000000 0.00000000
f 77/77/20 78/78/20 79/79/20
f 77/77/20 79/79/20 80/80/20
g door_handle_right
v 0.23023271 0.06872722 0.95200000
v 0.23023271 0.05672722 0.95200000
v 0.23023271 0.05672722 1.00800000
v 0.23023271 0.06872722 1.00800000
vt 0.01953125 0.12402344
vt 0.05859375 0.12402344
vt 0.05859375 0.11035156
vt 0.01953125 0.11035156
vn -1.00000000 -0.00000000 0.00000000
f 81/81/21 82/82/21 83/83/21
f 81/81/21 83/83/21 84/84/21
g door_handle_left
v 0.25423271 0.05672722 0.95200000
v 0.25423271 0.06872722 0.95200000
v 0.25423271 0.06872722 1.00800000
v 0.25423271 0.05672722 1.00800000
vt 0.01953125 0.12402344
vt 0.05859375 0.12402344
vt 0.05859375 0.11035156
vt 0.01953125 0.11035156
vn 1.00000000 -0.00000000 0.00000000
f 85/85/22 86/86/22 87/87/22
f 85/85/22 87/87/22 88/88/22
g door_handle_bottom
v -0.24583271 0.06872722 0.95200000
v -0.24583271 0.05672722 0.95200000
v -0.26983271 0.05672722 0.95200000
v -0.26983271 0.06872722 0.95200000
vt 0.01953125 0.12402344
vt 0.05859375 0.12402344
vt 0.05859375 0.11035156
vt 0.01953125 0.11035156
vn -0.00000000 -0.00000000 -1.00000000
f 89/89/23 90/90/23 91/91/23
f 89/89/23 91/91/23 92/92/23
g door_handle_top
v -0.24583271 0.06872722 1.00800000
v -0.26983271 0.06872722 1.00800000
v -0.26983271 0.05672722 1.00800000
v -0.24583271 0.05672722 1.00800000
vt 0.01953125 0.12402344
vt 0.05859375 0.12402344
vt 0.05859375 0.11035156
vt 0.01953125 0.11035156
vn -0.00000000 -0.00000000 1.00000000
f 93/93/24 94/94/24 95/95/24
f 93/93/24 95/95/24 96/96/24
g door_handle_front
v -0.24583271 0.06872722 0.95200000
v -0.26983271 0.06872722 0.95200000
v -0.26983271 0.06872722 1.00800000
v -0.24583271 0.06872722 1.00800000
vt 0.01953125 0.12402344
vt 0.05859375 0.12402344
vt 0.05859375 0.11035156
vt 0.01953125 0.11035156
vn -0.00000000 1.00000000 0.00000000
f 97/97/25 98/98/25 99/99/25
f 97/97/25 99/99/25 100/100/25
g door_handle_right
v -0.26983271 0.06872722 0.95200000
v -0.26983271 0.05672722 0.95200000
v -0.26983271 0.05672722 1.00800000
v -0.26983271 0.06872722 1.00800000
vt 0.01953125 0.12402344
vt 0.05859375 0.12402344
vt 0.05859375 0.11035156
vt 0.01953125 0.11035156
vn -1.00000000 -0.00000000 0.00000000
f 101/101/26 102/102/26 103/103/26
f 101/101/26 103/103/26 104/104/26
g door_handle_left
v -0.24583271 0.05672722 0.95200000
v -0.24583271 0.06872722 0.95200000
v -0.24583271 0.06872722 1.00800000
v -0.24583271 0.05672722 1.00800000
vt 0.01953125 0.12402344
vt 0.05859375 0.12402344
vt 0.05859375 0.11035156
vt 0.01953125 0.11035156
vn 1.00000000 -0.00000000 0.00000000
f 105/105/27 106/106/27 107/107/27
f 105/105/27 107/107/27 108/108/27
