# Original G020 Green Wall; Z up; tile units
mtllib pz_g020_furniture_storage_02_green_wall_locker.mtl
o pz_g020_furniture_storage_02_green_wall_locker
usemtl NativeSurface
g locker_body_top
v 0.46420000 0.41700000 1.24960000
v -0.47440000 0.41700000 1.24960000
v -0.47440000 0.01040000 1.24960000
v 0.46420000 0.01040000 1.24960000
vt 0.27734375 0.60839844
vt 0.79296875 0.60839844
vt 0.79296875 0.55371094
vt 0.27734375 0.55371094
vn -0.00000000 -0.00000000 1.00000000
f 1/1/1 2/2/1 3/3/1
f 1/1/1 3/3/1 4/4/1
g locker_body_front
v 0.46420000 0.41700000 0.03300000
v -0.47440000 0.41700000 0.03300000
v -0.47440000 0.41700000 1.24960000
v 0.46420000 0.41700000 1.24960000
vt 0.01953125 0.99511719
vt 0.53515625 0.99511719
vt 0.53515625 0.81152344
vt 0.01953125 0.81152344
vn -0.00000000 1.00000000 0.00000000
f 5/5/2 6/6/2 7/7/2
f 5/5/2 7/7/2 8/8/2
g locker_body_right
v -0.47440000 0.41700000 0.03300000
v -0.47440000 0.01040000 0.03300000
v -0.47440000 0.01040000 1.24960000
v -0.47440000 0.41700000 1.24960000
vt 0.57421875 0.80175781
vt 0.79296875 0.80175781
vt 0.79296875 0.61816406
vt 0.57421875 0.61816406
vn -1.00000000 -0.00000000 0.00000000
f 9/9/3 10/10/3 11/11/3
f 9/9/3 11/11/3 12/12/3
g locker_body_rear
v -0.47440000 0.01040000 0.03300000
v 0.46420000 0.01040000 0.03300000
v 0.46420000 0.01040000 1.24960000
v -0.47440000 0.01040000 1.24960000
vt 0.01953125 0.80175781
vt 0.53515625 0.80175781
vt 0.53515625 0.61816406
vt 0.01953125 0.61816406
vn -0.00000000 -1.00000000 0.00000000
f 13/13/4 14/14/4 15/15/4
f 13/13/4 15/15/4 16/16/4
g locker_body_left
v 0.46420000 0.01040000 0.03300000
v 0.46420000 0.41700000 0.03300000
v 0.46420000 0.41700000 1.24960000
v 0.46420000 0.01040000 1.24960000
vt 0.01953125 0.60839844
vt 0.23828125 0.60839844
vt 0.23828125 0.42480469
vt 0.01953125 0.42480469
vn 1.00000000 -0.00000000 0.00000000
f 17/17/5 18/18/5 19/19/5
f 17/17/5 19/19/5 20/20/5
g recessed_plinth_bottom
v 0.44920000 0.40500000 0.00000000
v 0.44920000 0.02240000 0.00000000
v -0.45940000 0.02240000 0.00000000
v -0.45940000 0.40500000 0.00000000
vt 0.83203125 0.60839844
vt 0.87109375 0.60839844
vt 0.87109375 0.59863281
vt 0.83203125 0.59863281
vn -0.00000000 -0.00000000 -1.00000000
f 21/21/6 22/22/6 23/23/6
f 21/21/6 23/23/6 24/24/6
g recessed_plinth_top
v 0.44920000 0.40500000 0.03300000
v -0.45940000 0.40500000 0.03300000
v -0.45940000 0.02240000 0.03300000
v 0.44920000 0.02240000 0.03300000
vt 0.83203125 0.60839844
vt 0.87109375 0.60839844
vt 0.87109375 0.59863281
vt 0.83203125 0.59863281
vn -0.00000000 -0.00000000 1.00000000
f 25/25/7 26/26/7 27/27/7
f 25/25/7 27/27/7 28/28/7
g recessed_plinth_front
v 0.44920000 0.40500000 0.00000000
v -0.45940000 0.40500000 0.00000000
v -0.45940000 0.40500000 0.03300000
v 0.44920000 0.40500000 0.03300000
vt 0.83203125 0.60839844
vt 0.87109375 0.60839844
vt 0.87109375 0.59863281
vt 0.83203125 0.59863281
vn -0.00000000 1.00000000 0.00000000
f 29/29/8 30/30/8 31/31/8
f 29/29/8 31/31/8 32/32/8
g recessed_plinth_right
v -0.45940000 0.40500000 0.00000000
v -0.45940000 0.02240000 0.00000000
v -0.45940000 0.02240000 0.03300000
v -0.45940000 0.40500000 0.03300000
vt 0.83203125 0.60839844
vt 0.87109375 0.60839844
vt 0.87109375 0.59863281
vt 0.83203125 0.59863281
vn -1.00000000 -0.00000000 0.00000000
f 33/33/9 34/34/9 35/35/9
f 33/33/9 35/35/9 36/36/9
g recessed_plinth_rear
v -0.45940000 0.02240000 0.00000000
v 0.44920000 0.02240000 0.00000000
v 0.44920000 0.02240000 0.03300000
v -0.45940000 0.02240000 0.03300000
vt 0.83203125 0.60839844
vt 0.87109375 0.60839844
vt 0.87109375 0.59863281
vt 0.83203125 0.59863281
vn -0.00000000 -1.00000000 0.00000000
f 37/37/10 38/38/10 39/39/10
f 37/37/10 39/39/10 40/40/10
g recessed_plinth_left
v 0.44920000 0.02240000 0.00000000
v 0.44920000 0.40500000 0.00000000
v 0.44920000 0.40500000 0.03300000
v 0.44920000 0.02240000 0.03300000
vt 0.83203125 0.60839844
vt 0.87109375 0.60839844
vt 0.87109375 0.59863281
vt 0.83203125 0.59863281
vn 1.00000000 -0.00000000 0.00000000
f 41/41/11 42/42/11 43/43/11
f 41/41/11 43/43/11 44/44/11
g door_handle_bottom
v 0.30690000 0.01040000 0.51200000
v 0.30690000 -0.00160000 0.51200000
v 0.28290000 -0.00160000 0.51200000
v 0.28290000 0.01040000 0.51200000
vt 0.83203125 0.60839844
vt 0.87109375 0.60839844
vt 0.87109375 0.59863281
vt 0.83203125 0.59863281
vn -0.00000000 -0.00000000 -1.00000000
f 45/45/12 46/46/12 47/47/12
f 45/45/12 47/47/12 48/48/12
g door_handle_top
v 0.30690000 0.01040000 0.56800000
v 0.28290000 0.01040000 0.56800000
v 0.28290000 -0.00160000 0.56800000
v 0.30690000 -0.00160000 0.56800000
vt 0.83203125 0.60839844
vt 0.87109375 0.60839844
vt 0.87109375 0.59863281
vt 0.83203125 0.59863281
vn -0.00000000 -0.00000000 1.00000000
f 49/49/13 50/50/13 51/51/13
f 49/49/13 51/51/13 52/52/13
g door_handle_front
v 0.30690000 0.01040000 0.51200000
v 0.28290000 0.01040000 0.51200000
v 0.28290000 0.01040000 0.56800000
v 0.30690000 0.01040000 0.56800000
vt 0.83203125 0.60839844
vt 0.87109375 0.60839844
vt 0.87109375 0.59863281
vt 0.83203125 0.59863281
vn -0.00000000 1.00000000 0.00000000
f 53/53/14 54/54/14 55/55/14
f 53/53/14 55/55/14 56/56/14
g door_handle_right
v 0.28290000 0.01040000 0.51200000
v 0.28290000 -0.00160000 0.51200000
v 0.28290000 -0.00160000 0.56800000
v 0.28290000 0.01040000 0.56800000
vt 0.83203125 0.60839844
vt 0.87109375 0.60839844
vt 0.87109375 0.59863281
vt 0.83203125 0.59863281
vn -1.00000000 -0.00000000 0.00000000
f 57/57/15 58/58/15 59/59/15
f 57/57/15 59/59/15 60/60/15
g door_handle_left
v 0.30690000 -0.00160000 0.51200000
v 0.30690000 0.01040000 0.51200000
v 0.30690000 0.01040000 0.56800000
v 0.30690000 -0.00160000 0.56800000
vt 0.83203125 0.60839844
vt 0.87109375 0.60839844
vt 0.87109375 0.59863281
vt 0.83203125 0.59863281
vn 1.00000000 -0.00000000 0.00000000
f 61/61/16 62/62/16 63/63/16
f 61/61/16 63/63/16 64/64/16
g door_handle_bottom
v -0.29310000 0.01040000 0.51200000
v -0.29310000 -0.00160000 0.51200000
v -0.31710000 -0.00160000 0.51200000
v -0.31710000 0.01040000 0.51200000
vt 0.83203125 0.60839844
vt 0.87109375 0.60839844
vt 0.87109375 0.59863281
vt 0.83203125 0.59863281
vn -0.00000000 -0.00000000 -1.00000000
f 65/65/17 66/66/17 67/67/17
f 65/65/17 67/67/17 68/68/17
g door_handle_top
v -0.29310000 0.01040000 0.56800000
v -0.31710000 0.01040000 0.56800000
v -0.31710000 -0.00160000 0.56800000
v -0.29310000 -0.00160000 0.56800000
vt 0.83203125 0.60839844
vt 0.87109375 0.60839844
vt 0.87109375 0.59863281
vt 0.83203125 0.59863281
vn -0.00000000 -0.00000000 1.00000000
f 69/69/18 70/70/18 71/71/18
f 69/69/18 71/71/18 72/72/18
g door_handle_front
v -0.29310000 0.01040000 0.51200000
v -0.31710000 0.01040000 0.51200000
v -0.31710000 0.01040000 0.56800000
v -0.29310000 0.01040000 0.56800000
vt 0.83203125 0.60839844
vt 0.87109375 0.60839844
vt 0.87109375 0.59863281
vt 0.83203125 0.59863281
vn -0.00000000 1.00000000 0.00000000
f 73/73/19 74/74/19 75/75/19
f 73/73/19 75/75/19 76/76/19
g door_handle_right
v -0.31710000 0.01040000 0.51200000
v -0.31710000 -0.00160000 0.51200000
v -0.31710000 -0.00160000 0.56800000
v -0.31710000 0.01040000 0.56800000
vt 0.83203125 0.60839844
vt 0.87109375 0.60839844
vt 0.87109375 0.59863281
vt 0.83203125 0.59863281
vn -1.00000000 -0.00000000 0.00000000
f 77/77/20 78/78/20 79/79/20
f 77/77/20 79/79/20 80/80/20
g door_handle_left
v -0.29310000 -0.00160000 0.51200000
v -0.29310000 0.01040000 0.51200000
v -0.29310000 0.01040000 0.56800000
v -0.29310000 -0.00160000 0.56800000
vt 0.83203125 0.60839844
vt 0.87109375 0.60839844
vt 0.87109375 0.59863281
vt 0.83203125 0.59863281
vn 1.00000000 -0.00000000 0.00000000
f 81/81/21 82/82/21 83/83/21
f 81/81/21 83/83/21 84/84/21
