# G016 original low-poly geometry; continuous native face pixels; Z-up tile units
mtllib pz_g016_shop_generic_shop_gun_shelves.mtl
o pz_g016_shop_generic_shop_gun_shelves
usemtl Native_Surface
g physical_component_0_z-
v -0.499900000 -0.475200000 0.840800000
v -0.499900000 -0.418000000 0.840800000
v 0.481500000 -0.418000000 0.840800000
v 0.481500000 -0.475200000 0.840800000
vt 0.666015625 0.990234375
vt 0.708984375 0.990234375
vt 0.708984375 0.947265625
vt 0.666015625 0.947265625
vn 0.000000000 0.000000000 -1.000000000
f 1/1/1 2/2/1 3/3/1
f 1/1/1 3/3/1 4/4/1
g physical_component_0_z+
v -0.499900000 -0.475200000 2.096700000
v 0.481500000 -0.475200000 2.096700000
v 0.481500000 -0.418000000 2.096700000
v -0.499900000 -0.418000000 2.096700000
vt 0.009765625 0.205078125
vt 0.552734375 0.205078125
vt 0.552734375 0.177734375
vt 0.009765625 0.177734375
vn 0.000000000 0.000000000 1.000000000
f 5/5/2 6/6/2 7/7/2
f 5/5/2 7/7/2 8/8/2
g physical_component_0_y-
v -0.499900000 -0.475200000 0.840800000
v 0.481500000 -0.475200000 0.840800000
v 0.481500000 -0.475200000 2.096700000
v -0.499900000 -0.475200000 2.096700000
vt 0.666015625 0.990234375
vt 0.708984375 0.990234375
vt 0.708984375 0.947265625
vt 0.666015625 0.947265625
vn 0.000000000 -1.000000000 0.000000000
f 9/9/3 10/10/3 11/11/3
f 9/9/3 11/11/3 12/12/3
g physical_component_0_x+
v 0.481500000 -0.475200000 0.840800000
v 0.481500000 -0.418000000 0.840800000
v 0.481500000 -0.418000000 2.096700000
v 0.481500000 -0.475200000 2.096700000
vt 0.572265625 0.990234375
vt 0.599609375 0.990234375
vt 0.599609375 0.224609375
vt 0.572265625 0.224609375
vn 1.000000000 0.000000000 0.000000000
f 13/13/4 14/14/4 15/15/4
f 13/13/4 15/15/4 16/16/4
g physical_component_0_y+
v 0.481500000 -0.418000000 0.840800000
v -0.499900000 -0.418000000 0.840800000
v -0.499900000 -0.418000000 2.096700000
v 0.481500000 -0.418000000 2.096700000
vt 0.009765625 0.990234375
vt 0.552734375 0.990234375
vt 0.552734375 0.224609375
vt 0.009765625 0.224609375
vn 0.000000000 1.000000000 0.000000000
f 17/17/5 18/18/5 19/19/5
f 17/17/5 19/19/5 20/20/5
g physical_component_0_x-
v -0.499900000 -0.418000000 0.840800000
v -0.499900000 -0.475200000 0.840800000
v -0.499900000 -0.475200000 2.096700000
v -0.499900000 -0.418000000 2.096700000
vt 0.619140625 0.990234375
vt 0.646484375 0.990234375
vt 0.646484375 0.224609375
vt 0.619140625 0.224609375
vn -1.000000000 0.000000000 0.000000000
f 21/21/6 22/22/6 23/23/6
f 21/21/6 23/23/6 24/24/6
