# Original G018 mesh; native Project Zomboid sprite texture.
mtllib pz_g018_fencing_damaged_01_128.mtl
o pz_g018_fencing_damaged_01_128
usemtl native
v -0.30882913 -0.23786722 0.00000000
v 0.34819487 -0.17526150 0.00000000
v 0.34819487 -0.17526150 0.04200000
v -0.30882913 -0.23786722 0.04200000
v 0.34819487 -0.17526150 0.00000000
v 0.33965772 -0.08566731 0.00000000
v 0.33965772 -0.08566731 0.04200000
v 0.34819487 -0.17526150 0.04200000
v 0.33965772 -0.08566731 0.00000000
v -0.31736627 -0.14827305 0.00000000
v -0.31736627 -0.14827305 0.04200000
v 0.33965772 -0.08566731 0.04200000
v -0.31736627 -0.14827305 0.00000000
v -0.30882913 -0.23786722 0.00000000
v -0.30882913 -0.23786722 0.04200000
v -0.31736627 -0.14827305 0.04200000
v -0.30882913 -0.23786722 0.04200000
v 0.34819487 -0.17526150 0.04200000
v 0.33965772 -0.08566731 0.04200000
v -0.31736627 -0.14827305 0.04200000
v -0.31736627 -0.14827305 0.00000000
v 0.33965772 -0.08566731 0.00000000
v 0.34819487 -0.17526150 0.00000000
v -0.30882913 -0.23786722 0.00000000
v 0.11055458 -0.34202915 0.00600000
v 0.17316031 0.31499484 0.00600000
v 0.17316031 0.31499484 0.04800000
v 0.11055458 -0.34202915 0.04800000
v 0.17316031 0.31499484 0.00600000
v 0.08356614 0.32353199 0.00600000
v 0.08356614 0.32353199 0.04800000
v 0.17316031 0.31499484 0.04800000
v 0.08356614 0.32353199 0.00600000
v 0.02096041 -0.33349201 0.00600000
v 0.02096041 -0.33349201 0.04800000
v 0.08356614 0.32353199 0.04800000
v 0.02096041 -0.33349201 0.00600000
v 0.11055458 -0.34202915 0.00600000
v 0.11055458 -0.34202915 0.04800000
v 0.02096041 -0.33349201 0.04800000
v 0.11055458 -0.34202915 0.04800000
v 0.17316031 0.31499484 0.04800000
v 0.08356614 0.32353199 0.04800000
v 0.02096041 -0.33349201 0.04800000
v 0.02096041 -0.33349201 0.00600000
v 0.08356614 0.32353199 0.00600000
v 0.17316031 0.31499484 0.00600000
v 0.11055458 -0.34202915 0.00600000
v -0.30942485 -0.13842876 0.01200000
v 0.33869797 -0.01378189 0.01200000
v 0.33869797 -0.01378189 0.05400000
v -0.30942485 -0.13842876 0.05400000
v 0.33869797 -0.01378189 0.01200000
v 0.32170066 0.07459849 0.01200000
v 0.32170066 0.07459849 0.05400000
v 0.33869797 -0.01378189 0.05400000
v 0.32170066 0.07459849 0.01200000
v -0.32642213 -0.05004838 0.01200000
v -0.32642213 -0.05004838 0.05400000
v 0.32170066 0.07459849 0.05400000
v -0.32642213 -0.05004838 0.01200000
v -0.30942485 -0.13842876 0.01200000
v -0.30942485 -0.13842876 0.05400000
v -0.32642213 -0.05004838 0.05400000
v -0.30942485 -0.13842876 0.05400000
v 0.33869797 -0.01378189 0.05400000
v 0.32170066 0.07459849 0.05400000
v -0.32642213 -0.05004838 0.05400000
v -0.32642213 -0.05004838 0.01200000
v 0.32170066 0.07459849 0.01200000
v 0.33869797 -0.01378189 0.01200000
v -0.30942485 -0.13842876 0.01200000
v 0.01250000 -0.33000001 0.01800000
v 0.01250000 0.33000001 0.01800000
v 0.01250000 0.33000001 0.06000000
v 0.01250000 -0.33000001 0.06000000
v 0.01250000 0.33000001 0.01800000
v -0.07750000 0.33000001 0.01800000
v -0.07750000 0.33000001 0.06000000
v 0.01250000 0.33000001 0.06000000
v -0.07750000 0.33000001 0.01800000
v -0.07750000 -0.33000001 0.01800000
v -0.07750000 -0.33000001 0.06000000
v -0.07750000 0.33000001 0.06000000
v -0.07750000 -0.33000001 0.01800000
v 0.01250000 -0.33000001 0.01800000
v 0.01250000 -0.33000001 0.06000000
v -0.07750000 -0.33000001 0.06000000
v 0.01250000 -0.33000001 0.06000000
v 0.01250000 0.33000001 0.06000000
v -0.07750000 0.33000001 0.06000000
v -0.07750000 -0.33000001 0.06000000
v -0.07750000 -0.33000001 0.01800000
v -0.07750000 0.33000001 0.01800000
v 0.01250000 0.33000001 0.01800000
v 0.01250000 -0.33000001 0.01800000
v -0.31414631 0.11387866 0.02400000
v 0.33397648 -0.01076821 0.02400000
v 0.33397648 -0.01076821 0.06600000
v -0.31414631 0.11387866 0.06600000
v 0.33397648 -0.01076821 0.02400000
v 0.35097378 0.07761217 0.02400000
v 0.35097378 0.07761217 0.06600000
v 0.33397648 -0.01076821 0.06600000
v 0.35097378 0.07761217 0.02400000
v -0.29714900 0.20225903 0.02400000
v -0.29714900 0.20225903 0.06600000
v 0.35097378 0.07761217 0.06600000
v -0.29714900 0.20225903 0.02400000
v -0.31414631 0.11387866 0.02400000
v -0.31414631 0.11387866 0.06600000
v -0.29714900 0.20225903 0.06600000
v -0.31414631 0.11387866 0.06600000
v 0.33397648 -0.01076821 0.06600000
v 0.35097378 0.07761217 0.06600000
v -0.29714900 0.20225903 0.06600000
v -0.29714900 0.20225903 0.02400000
v 0.35097378 0.07761217 0.02400000
v 0.33397648 -0.01076821 0.02400000
v -0.31414631 0.11387866 0.02400000
v -0.08566731 -0.33965772 0.03000000
v -0.14827305 0.31736627 0.03000000
v -0.14827305 0.31736627 0.07200000
v -0.08566731 -0.33965772 0.07200000
v -0.14827305 0.31736627 0.03000000
v -0.23786722 0.30882913 0.03000000
v -0.23786722 0.30882913 0.07200000
v -0.14827305 0.31736627 0.07200000
v -0.23786722 0.30882913 0.03000000
v -0.17526150 -0.34819487 0.03000000
v -0.17526150 -0.34819487 0.07200000
v -0.23786722 0.30882913 0.07200000
v -0.17526150 -0.34819487 0.03000000
v -0.08566731 -0.33965772 0.03000000
v -0.08566731 -0.33965772 0.07200000
v -0.17526150 -0.34819487 0.07200000
v -0.08566731 -0.33965772 0.07200000
v -0.14827305 0.31736627 0.07200000
v -0.23786722 0.30882913 0.07200000
v -0.17526150 -0.34819487 0.07200000
v -0.17526150 -0.34819487 0.03000000
v -0.23786722 0.30882913 0.03000000
v -0.14827305 0.31736627 0.03000000
v -0.08566731 -0.33965772 0.03000000
vt 0.00000000 0.13200000
vt 0.25000000 0.13200000
vt 0.25000000 0.99699998
vt 0.00000000 0.13200000
vt 0.25000000 0.99699998
vt 0.00000000 0.99699998
vt 0.25000000 0.13200000
vt 0.50000000 0.13200000
vt 0.50000000 0.99699998
vt 0.25000000 0.13200000
vt 0.50000000 0.99699998
vt 0.25000000 0.99699998
vt 0.50000000 0.13200000
vt 0.75000000 0.13200000
vt 0.75000000 0.99699998
vt 0.50000000 0.13200000
vt 0.75000000 0.99699998
vt 0.50000000 0.99699998
vt 0.75000000 0.13200000
vt 1.00000000 0.13200000
vt 1.00000000 0.99699998
vt 0.75000000 0.13200000
vt 1.00000000 0.99699998
vt 0.75000000 0.99699998
vt 0.00200000 0.00200000
vt 0.24800000 0.00200000
vt 0.24800000 0.12300000
vt 0.00200000 0.00200000
vt 0.24800000 0.12300000
vt 0.00200000 0.12300000
vt 0.00200000 0.00200000
vt 0.24800000 0.00200000
vt 0.24800000 0.12300000
vt 0.00200000 0.00200000
vt 0.24800000 0.12300000
vt 0.00200000 0.12300000
vt 0.00000000 0.13200000
vt 0.25000000 0.13200000
vt 0.25000000 0.99699998
vt 0.00000000 0.13200000
vt 0.25000000 0.99699998
vt 0.00000000 0.99699998
vt 0.25000000 0.13200000
vt 0.50000000 0.13200000
vt 0.50000000 0.99699998
vt 0.25000000 0.13200000
vt 0.50000000 0.99699998
vt 0.25000000 0.99699998
vt 0.50000000 0.13200000
vt 0.75000000 0.13200000
vt 0.75000000 0.99699998
vt 0.50000000 0.13200000
vt 0.75000000 0.99699998
vt 0.50000000 0.99699998
vt 0.75000000 0.13200000
vt 1.00000000 0.13200000
vt 1.00000000 0.99699998
vt 0.75000000 0.13200000
vt 1.00000000 0.99699998
vt 0.75000000 0.99699998
vt 0.00200000 0.00200000
vt 0.24800000 0.00200000
vt 0.24800000 0.12300000
vt 0.00200000 0.00200000
vt 0.24800000 0.12300000
vt 0.00200000 0.12300000
vt 0.00200000 0.00200000
vt 0.24800000 0.00200000
vt 0.24800000 0.12300000
vt 0.00200000 0.00200000
vt 0.24800000 0.12300000
vt 0.00200000 0.12300000
vt 0.00000000 0.13200000
vt 0.25000000 0.13200000
vt 0.25000000 0.99699998
vt 0.00000000 0.13200000
vt 0.25000000 0.99699998
vt 0.00000000 0.99699998
vt 0.25000000 0.13200000
vt 0.50000000 0.13200000
vt 0.50000000 0.99699998
vt 0.25000000 0.13200000
vt 0.50000000 0.99699998
vt 0.25000000 0.99699998
vt 0.50000000 0.13200000
vt 0.75000000 0.13200000
vt 0.75000000 0.99699998
vt 0.50000000 0.13200000
vt 0.75000000 0.99699998
vt 0.50000000 0.99699998
vt 0.75000000 0.13200000
vt 1.00000000 0.13200000
vt 1.00000000 0.99699998
vt 0.75000000 0.13200000
vt 1.00000000 0.99699998
vt 0.75000000 0.99699998
vt 0.00200000 0.00200000
vt 0.24800000 0.00200000
vt 0.24800000 0.12300000
vt 0.00200000 0.00200000
vt 0.24800000 0.12300000
vt 0.00200000 0.12300000
vt 0.00200000 0.00200000
vt 0.24800000 0.00200000
vt 0.24800000 0.12300000
vt 0.00200000 0.00200000
vt 0.24800000 0.12300000
vt 0.00200000 0.12300000
vt 0.00000000 0.13200000
vt 0.25000000 0.13200000
vt 0.25000000 0.99699998
vt 0.00000000 0.13200000
vt 0.25000000 0.99699998
vt 0.00000000 0.99699998
vt 0.25000000 0.13200000
vt 0.50000000 0.13200000
vt 0.50000000 0.99699998
vt 0.25000000 0.13200000
vt 0.50000000 0.99699998
vt 0.25000000 0.99699998
vt 0.50000000 0.13200000
vt 0.75000000 0.13200000
vt 0.75000000 0.99699998
vt 0.50000000 0.13200000
vt 0.75000000 0.99699998
vt 0.50000000 0.99699998
vt 0.75000000 0.13200000
vt 1.00000000 0.13200000
vt 1.00000000 0.99699998
vt 0.75000000 0.13200000
vt 1.00000000 0.99699998
vt 0.75000000 0.99699998
vt 0.00200000 0.00200000
vt 0.24800000 0.00200000
vt 0.24800000 0.12300000
vt 0.00200000 0.00200000
vt 0.24800000 0.12300000
vt 0.00200000 0.12300000
vt 0.00200000 0.00200000
vt 0.24800000 0.00200000
vt 0.24800000 0.12300000
vt 0.00200000 0.00200000
vt 0.24800000 0.12300000
vt 0.00200000 0.12300000
vt 0.00000000 0.13200000
vt 0.25000000 0.13200000
vt 0.25000000 0.99699998
vt 0.00000000 0.13200000
vt 0.25000000 0.99699998
vt 0.00000000 0.99699998
vt 0.25000000 0.13200000
vt 0.50000000 0.13200000
vt 0.50000000 0.99699998
vt 0.25000000 0.13200000
vt 0.50000000 0.99699998
vt 0.25000000 0.99699998
vt 0.50000000 0.13200000
vt 0.75000000 0.13200000
vt 0.75000000 0.99699998
vt 0.50000000 0.13200000
vt 0.75000000 0.99699998
vt 0.50000000 0.99699998
vt 0.75000000 0.13200000
vt 1.00000000 0.13200000
vt 1.00000000 0.99699998
vt 0.75000000 0.13200000
vt 1.00000000 0.99699998
vt 0.75000000 0.99699998
vt 0.00200000 0.00200000
vt 0.24800000 0.00200000
vt 0.24800000 0.12300000
vt 0.00200000 0.00200000
vt 0.24800000 0.12300000
vt 0.00200000 0.12300000
vt 0.00200000 0.00200000
vt 0.24800000 0.00200000
vt 0.24800000 0.12300000
vt 0.00200000 0.00200000
vt 0.24800000 0.12300000
vt 0.00200000 0.12300000
vt 0.00000000 0.13200000
vt 0.25000000 0.13200000
vt 0.25000000 0.99699998
vt 0.00000000 0.13200000
vt 0.25000000 0.99699998
vt 0.00000000 0.99699998
vt 0.25000000 0.13200000
vt 0.50000000 0.13200000
vt 0.50000000 0.99699998
vt 0.25000000 0.13200000
vt 0.50000000 0.99699998
vt 0.25000000 0.99699998
vt 0.50000000 0.13200000
vt 0.75000000 0.13200000
vt 0.75000000 0.99699998
vt 0.50000000 0.13200000
vt 0.75000000 0.99699998
vt 0.50000000 0.99699998
vt 0.75000000 0.13200000
vt 1.00000000 0.13200000
vt 1.00000000 0.99699998
vt 0.75000000 0.13200000
vt 1.00000000 0.99699998
vt 0.75000000 0.99699998
vt 0.00200000 0.00200000
vt 0.24800000 0.00200000
vt 0.24800000 0.12300000
vt 0.00200000 0.00200000
vt 0.24800000 0.12300000
vt 0.00200000 0.12300000
vt 0.00200000 0.00200000
vt 0.24800000 0.00200000
vt 0.24800000 0.12300000
vt 0.00200000 0.00200000
vt 0.24800000 0.12300000
vt 0.00200000 0.12300000
vn 0.09485715 -0.99549085 0.00000000
vn 0.09485715 -0.99549085 0.00000000
vn 0.99549097 0.09485715 0.00000000
vn 0.99549097 0.09485715 0.00000000
vn -0.09485718 0.99549085 0.00000000
vn -0.09485718 0.99549085 0.00000000
vn -0.99549085 -0.09485716 -0.00000000
vn -0.99549085 -0.09485716 0.00000000
vn 0.00000000 0.00000000 1.00000000
vn -0.00000000 0.00000000 1.00000000
vn -0.00000000 0.00000000 -1.00000000
vn 0.00000000 0.00000000 -1.00000000
vn 0.99549085 -0.09485716 0.00000000
vn 0.99549085 -0.09485716 0.00000000
vn 0.09485716 0.99549091 0.00000000
vn 0.09485716 0.99549091 0.00000000
vn -0.99549085 0.09485716 0.00000000
vn -0.99549085 0.09485716 0.00000000
vn -0.09485716 -0.99549091 -0.00000000
vn -0.09485716 -0.99549091 0.00000000
vn 0.00000000 0.00000000 1.00000000
vn -0.00000000 0.00000000 0.99999994
vn -0.00000000 0.00000000 -1.00000000
vn -0.00000000 0.00000000 -1.00000000
vn 0.18885888 -0.98200423 0.00000000
vn 0.18885888 -0.98200423 0.00000000
vn 0.98200423 0.18885897 0.00000000
vn 0.98200423 0.18885897 0.00000000
vn -0.18885888 0.98200423 0.00000000
vn -0.18885888 0.98200423 0.00000000
vn -0.98200434 -0.18885864 -0.00000000
vn -0.98200434 -0.18885864 0.00000000
vn 0.00000000 0.00000000 0.99999994
vn -0.00000000 0.00000000 0.99999994
vn -0.00000000 0.00000000 -0.99999994
vn -0.00000000 0.00000000 -1.00000000
vn 1.00000000 0.00000000 0.00000000
vn 1.00000000 -0.00000000 0.00000000
vn -0.00000000 1.00000000 0.00000000
vn 0.00000000 1.00000000 0.00000000
vn -1.00000000 0.00000000 0.00000000
vn -1.00000000 -0.00000000 -0.00000000
vn -0.00000000 -1.00000000 -0.00000000
vn 0.00000000 -1.00000000 -0.00000000
vn -0.00000000 0.00000000 1.00000000
vn -0.00000000 0.00000000 1.00000000
vn -0.00000000 -0.00000000 -1.00000000
vn -0.00000000 0.00000000 -1.00000000
vn -0.18885891 -0.98200428 -0.00000000
vn -0.18885891 -0.98200428 0.00000000
vn 0.98200417 -0.18885897 0.00000000
vn 0.98200417 -0.18885897 0.00000000
vn 0.18885890 0.98200428 0.00000000
vn 0.18885890 0.98200428 0.00000000
vn -0.98200423 0.18885900 0.00000000
vn -0.98200423 0.18885900 0.00000000
vn 0.00000000 0.00000000 0.99999994
vn 0.00000000 0.00000000 0.99999994
vn 0.00000000 0.00000000 -0.99999994
vn 0.00000000 0.00000000 -0.99999994
vn 0.99549091 0.09485718 0.00000000
vn 0.99549091 0.09485718 0.00000000
vn -0.09485716 0.99549091 0.00000000
vn -0.09485716 0.99549091 0.00000000
vn -0.99549091 -0.09485715 -0.00000000
vn -0.99549091 -0.09485715 0.00000000
vn 0.09485715 -0.99549091 0.00000000
vn 0.09485715 -0.99549091 0.00000000
vn -0.00000000 0.00000000 1.00000000
vn -0.00000000 -0.00000000 1.00000000
vn 0.00000000 -0.00000000 -1.00000000
vn -0.00000000 0.00000000 -1.00000000
f 1/1/1 2/2/1 3/3/1
f 1/4/2 3/5/2 4/6/2
f 5/7/3 6/8/3 7/9/3
f 5/10/4 7/11/4 8/12/4
f 9/13/5 10/14/5 11/15/5
f 9/16/6 11/17/6 12/18/6
f 13/19/7 14/20/7 15/21/7
f 13/22/8 15/23/8 16/24/8
f 17/25/9 18/26/9 19/27/9
f 17/28/10 19/29/10 20/30/10
f 21/31/11 22/32/11 23/33/11
f 21/34/12 23/35/12 24/36/12
f 25/37/13 26/38/13 27/39/13
f 25/40/14 27/41/14 28/42/14
f 29/43/15 30/44/15 31/45/15
f 29/46/16 31/47/16 32/48/16
f 33/49/17 34/50/17 35/51/17
f 33/52/18 35/53/18 36/54/18
f 37/55/19 38/56/19 39/57/19
f 37/58/20 39/59/20 40/60/20
f 41/61/21 42/62/21 43/63/21
f 41/64/22 43/65/22 44/66/22
f 45/67/23 46/68/23 47/69/23
f 45/70/24 47/71/24 48/72/24
f 49/73/25 50/74/25 51/75/25
f 49/76/26 51/77/26 52/78/26
f 53/79/27 54/80/27 55/81/27
f 53/82/28 55/83/28 56/84/28
f 57/85/29 58/86/29 59/87/29
f 57/88/30 59/89/30 60/90/30
f 61/91/31 62/92/31 63/93/31
f 61/94/32 63/95/32 64/96/32
f 65/97/33 66/98/33 67/99/33
f 65/100/34 67/101/34 68/102/34
f 69/103/35 70/104/35 71/105/35
f 69/106/36 71/107/36 72/108/36
f 73/109/37 74/110/37 75/111/37
f 73/112/38 75/113/38 76/114/38
f 77/115/39 78/116/39 79/117/39
f 77/118/40 79/119/40 80/120/40
f 81/121/41 82/122/41 83/123/41
f 81/124/42 83/125/42 84/126/42
f 85/127/43 86/128/43 87/129/43
f 85/130/44 87/131/44 88/132/44
f 89/133/45 90/134/45 91/135/45
f 89/136/46 91/137/46 92/138/46
f 93/139/47 94/140/47 95/141/47
f 93/142/48 95/143/48 96/144/48
f 97/145/49 98/146/49 99/147/49
f 97/148/50 99/149/50 100/150/50
f 101/151/51 102/152/51 103/153/51
f 101/154/52 103/155/52 104/156/52
f 105/157/53 106/158/53 107/159/53
f 105/160/54 107/161/54 108/162/54
f 109/163/55 110/164/55 111/165/55
f 109/166/56 111/167/56 112/168/56
f 113/169/57 114/170/57 115/171/57
f 113/172/58 115/173/58 116/174/58
f 117/175/59 118/176/59 119/177/59
f 117/178/60 119/179/60 120/180/60
f 121/181/61 122/182/61 123/183/61
f 121/184/62 123/185/62 124/186/62
f 125/187/63 126/188/63 127/189/63
f 125/190/64 127/191/64 128/192/64
f 129/193/65 130/194/65 131/195/65
f 129/196/66 131/197/66 132/198/66
f 133/199/67 134/200/67 135/201/67
f 133/202/68 135/203/68 136/204/68
f 137/205/69 138/206/69 139/207/69
f 137/208/70 139/209/70 140/210/70
f 141/211/71 142/212/71 143/213/71
f 141/214/72 143/215/72 144/216/72
