# G016 original low-poly geometry; continuous native face pixels; Z-up tile units
mtllib pz_g016_white_washing_machine.mtl
o pz_g016_white_washing_machine
usemtl Native_Surface
g native_component_0_z-
v -0.400000000 -0.450000000 0.000000000
v -0.400000000 0.300000000 0.000000000
v 0.400000000 0.300000000 0.000000000
v 0.400000000 -0.450000000 0.000000000
vt 0.019531250 0.216308594
vt 0.074218750 0.216308594
vt 0.074218750 0.209472656
vt 0.019531250 0.209472656
vn 0.000000000 0.000000000 -1.000000000
f 1/1/1 2/2/1 3/3/1
vn 0.000000000 0.000000000 -1.000000000
f 1/1/2 3/3/2 4/4/2
g native_component_0_z+
v -0.400000000 -0.450000000 0.900000000
v 0.400000000 -0.450000000 0.900000000
v 0.400000000 0.300000000 0.900000000
v -0.400000000 0.300000000 0.900000000
vt 0.019531250 0.431152344
vt 0.902343750 0.431152344
vt 0.902343750 0.327636719
vt 0.019531250 0.327636719
vn 0.000000000 0.000000000 1.000000000
f 5/5/3 6/6/3 7/7/3
vn 0.000000000 0.000000000 1.000000000
f 5/5/4 7/7/4 8/8/4
g native_component_0_y-
v -0.400000000 -0.450000000 0.000000000
v 0.400000000 -0.450000000 0.000000000
v 0.400000000 -0.450000000 0.900000000
v -0.400000000 -0.450000000 0.900000000
vt 0.019531250 0.997558594
vt 0.902343750 0.997558594
vt 0.902343750 0.860839844
vt 0.019531250 0.860839844
vn 0.000000000 -1.000000000 0.000000000
f 9/9/5 10/10/5 11/11/5
vn 0.000000000 -1.000000000 0.000000000
f 9/9/6 11/11/6 12/12/6
g native_component_0_x+
v 0.400000000 -0.450000000 0.000000000
v 0.400000000 0.300000000 0.000000000
v 0.400000000 0.300000000 0.900000000
v 0.400000000 -0.450000000 0.900000000
vt 0.019531250 0.714355469
vt 0.847656250 0.714355469
vt 0.847656250 0.577636719
vt 0.019531250 0.577636719
vn 1.000000000 0.000000000 0.000000000
f 13/13/7 14/14/7 15/15/7
vn 1.000000000 0.000000000 0.000000000
f 13/13/8 15/15/8 16/16/8
g native_component_0_y+
v 0.400000000 0.300000000 0.000000000
v -0.400000000 0.300000000 0.000000000
v -0.400000000 0.300000000 0.900000000
v 0.400000000 0.300000000 0.900000000
vt 0.019531250 0.855957031
vt 0.902343750 0.855957031
vt 0.902343750 0.719238281
vt 0.019531250 0.719238281
vn 0.000000000 1.000000000 0.000000000
f 17/17/9 18/18/9 19/19/9
vn 0.000000000 1.000000000 -0.000000000
f 17/17/10 19/19/10 20/20/10
g native_component_0_x-
v -0.400000000 0.300000000 0.000000000
v -0.400000000 -0.450000000 0.000000000
v -0.400000000 -0.450000000 0.900000000
v -0.400000000 0.300000000 0.900000000
vt 0.019531250 0.572753906
vt 0.847656250 0.572753906
vt 0.847656250 0.436035156
vt 0.019531250 0.436035156
vn -1.000000000 0.000000000 0.000000000
f 21/21/11 22/22/11 23/23/11
vn -1.000000000 0.000000000 0.000000000
f 21/21/12 23/23/12 24/24/12
g native_component_1_z-
v -0.400000000 -0.450000000 0.900000000
v -0.400000000 -0.300000000 0.900000000
v 0.400000000 -0.300000000 0.900000000
v 0.400000000 -0.450000000 0.900000000
vt 0.019531250 0.216308594
vt 0.074218750 0.216308594
vt 0.074218750 0.209472656
vt 0.019531250 0.209472656
vn 0.000000000 0.000000000 -1.000000000
f 25/25/13 26/26/13 27/27/13
vn 0.000000000 0.000000000 -1.000000000
f 25/25/14 27/27/14 28/28/14
g native_component_1_z+
v -0.400000000 -0.450000000 1.050000000
v 0.400000000 -0.450000000 1.050000000
v 0.400000000 -0.300000000 1.050000000
v -0.400000000 -0.300000000 1.050000000
vt 0.019531250 0.240722656
vt 0.902343750 0.240722656
vt 0.902343750 0.221191406
vt 0.019531250 0.221191406
vn 0.000000000 0.000000000 1.000000000
f 29/29/15 30/30/15 31/31/15
vn 0.000000000 0.000000000 1.000000000
f 29/29/16 31/31/16 32/32/16
g native_component_1_y-
v -0.400000000 -0.450000000 0.900000000
v 0.400000000 -0.450000000 0.900000000
v 0.400000000 -0.450000000 1.050000000
v -0.400000000 -0.450000000 1.050000000
vt 0.019531250 0.322753906
vt 0.902343750 0.322753906
vt 0.902343750 0.300292969
vt 0.019531250 0.300292969
vn 0.000000000 -1.000000000 0.000000000
f 33/33/17 34/34/17 35/35/17
vn 0.000000000 -1.000000000 0.000000000
f 33/33/18 35/35/18 36/36/18
g native_component_1_x+
v 0.400000000 -0.450000000 0.900000000
v 0.400000000 -0.300000000 0.900000000
v 0.400000000 -0.300000000 1.050000000
v 0.400000000 -0.450000000 1.050000000
vt 0.019531250 0.268066406
vt 0.175781250 0.268066406
vt 0.175781250 0.245605469
vt 0.019531250 0.245605469
vn 1.000000000 0.000000000 0.000000000
f 37/37/19 38/38/19 39/39/19
vn 1.000000000 0.000000000 0.000000000
f 37/37/20 39/39/20 40/40/20
g native_component_1_y+
v 0.400000000 -0.300000000 0.900000000
v -0.400000000 -0.300000000 0.900000000
v -0.400000000 -0.300000000 1.050000000
v 0.400000000 -0.300000000 1.050000000
vt 0.019531250 0.295410156
vt 0.902343750 0.295410156
vt 0.902343750 0.272949219
vt 0.019531250 0.272949219
vn 0.000000000 1.000000000 0.000000000
f 41/41/21 42/42/21 43/43/21
vn 0.000000000 1.000000000 -0.000000000
f 41/41/22 43/43/22 44/44/22
g native_component_1_x-
v -0.400000000 -0.300000000 0.900000000
v -0.400000000 -0.450000000 0.900000000
v -0.400000000 -0.450000000 1.050000000
v -0.400000000 -0.300000000 1.050000000
vt 0.214843750 0.268066406
vt 0.371093750 0.268066406
vt 0.371093750 0.245605469
vt 0.214843750 0.245605469
vn -1.000000000 0.000000000 0.000000000
f 45/45/23 46/46/23 47/47/23
vn -1.000000000 0.000000000 0.000000000
f 45/45/24 47/47/24 48/48/24
