# G016 original low-poly geometry; continuous native face pixels; Z-up tile units
mtllib pz_g016_mini_fridge.mtl
o pz_g016_mini_fridge
usemtl Native_Surface
g native_component_0_z-
v -0.310700000 -0.412600000 0.000000000
v -0.310700000 0.163800000 0.000000000
v 0.245300000 0.163800000 0.000000000
v 0.245300000 -0.412600000 0.000000000
vt 0.675781250 0.470214844
vt 0.730468750 0.470214844
vt 0.730468750 0.463378906
vt 0.675781250 0.463378906
vn 0.000000000 0.000000000 -1.000000000
f 1/1/1 2/2/1 3/3/1
vn 0.000000000 0.000000000 -1.000000000
f 1/1/2 3/3/2 4/4/2
g native_component_0_z+
v -0.310700000 -0.412600000 0.835200000
v 0.245300000 -0.412600000 0.835200000
v 0.245300000 0.163800000 0.835200000
v -0.310700000 0.163800000 0.835200000
vt 0.019531250 0.470214844
vt 0.636718750 0.470214844
vt 0.636718750 0.391113281
vt 0.019531250 0.391113281
vn 0.000000000 0.000000000 1.000000000
f 5/5/3 6/6/3 7/7/3
vn 0.000000000 0.000000000 1.000000000
f 5/5/4 7/7/4 8/8/4
g native_component_0_y-
v -0.310700000 -0.412600000 0.000000000
v 0.245300000 -0.412600000 0.000000000
v 0.245300000 -0.412600000 0.835200000
v -0.310700000 -0.412600000 0.835200000
vt 0.019531250 0.733886719
vt 0.636718750 0.733886719
vt 0.636718750 0.606933594
vt 0.019531250 0.606933594
vn 0.000000000 -1.000000000 0.000000000
f 9/9/5 10/10/5 11/11/5
vn 0.000000000 -1.000000000 0.000000000
f 9/9/6 11/11/6 12/12/6
g native_component_0_x+
v 0.245300000 -0.412600000 0.000000000
v 0.245300000 0.163800000 0.000000000
v 0.245300000 0.163800000 0.835200000
v 0.245300000 -0.412600000 0.835200000
vt 0.019531250 0.997558594
vt 0.652343750 0.997558594
vt 0.652343750 0.870605469
vt 0.019531250 0.870605469
vn 1.000000000 0.000000000 0.000000000
f 13/13/7 14/14/7 15/15/7
vn 1.000000000 0.000000000 0.000000000
f 13/13/8 15/15/8 16/16/8
g native_component_0_y+
v 0.245300000 0.163800000 0.000000000
v -0.310700000 0.163800000 0.000000000
v -0.310700000 0.163800000 0.835200000
v 0.245300000 0.163800000 0.835200000
vt 0.019531250 0.602050781
vt 0.636718750 0.602050781
vt 0.636718750 0.475097656
vt 0.019531250 0.475097656
vn 0.000000000 1.000000000 0.000000000
f 17/17/9 18/18/9 19/19/9
vn 0.000000000 1.000000000 -0.000000000
f 17/17/10 19/19/10 20/20/10
g native_component_0_x-
v -0.310700000 0.163800000 0.000000000
v -0.310700000 -0.412600000 0.000000000
v -0.310700000 -0.412600000 0.835200000
v -0.310700000 0.163800000 0.835200000
vt 0.019531250 0.865722656
vt 0.652343750 0.865722656
vt 0.652343750 0.738769531
vt 0.019531250 0.738769531
vn -1.000000000 0.000000000 0.000000000
f 21/21/11 22/22/11 23/23/11
vn -1.000000000 0.000000000 0.000000000
f 21/21/12 23/23/12 24/24/12
