# Original G019 Spiffos Dinner; Z up; tile units
mtllib pz_g019_spiffos_dinner_chair.mtl
o pz_g019_spiffos_dinner_chair
usemtl NativeSurface
g seat_rim_side
v -0.00780000 -0.25640000 0.37645000
v 0.12430000 -0.22100391 0.37645000
v 0.12430000 -0.22100391 0.51795000
v -0.00780000 -0.25640000 0.51795000
vt 0.55468750 0.96093750
vt 0.64843750 0.96093750
vt 0.64843750 0.89843750
vt 0.55468750 0.89843750
vn 0.25881905 -0.96592583 0.00000000
f 1/1/1 2/2/1 3/3/1
f 1/1/1 3/3/1 4/4/1
g seat_rim_side
v 0.12430000 -0.22100391 0.37645000
v 0.22100391 -0.12430000 0.37645000
v 0.22100391 -0.12430000 0.51795000
v 0.12430000 -0.22100391 0.51795000
vt 0.55468750 0.96093750
vt 0.64843750 0.96093750
vt 0.64843750 0.89843750
vt 0.55468750 0.89843750
vn 0.70710678 -0.70710678 0.00000000
f 5/5/2 6/6/2 7/7/2
f 5/5/2 7/7/2 8/8/2
g seat_rim_side
v 0.22100391 -0.12430000 0.37645000
v 0.25640000 0.00780000 0.37645000
v 0.25640000 0.00780000 0.51795000
v 0.22100391 -0.12430000 0.51795000
vt 0.55468750 0.96093750
vt 0.64843750 0.96093750
vt 0.64843750 0.89843750
vt 0.55468750 0.89843750
vn 0.96592583 -0.25881905 0.00000000
f 9/9/3 10/10/3 11/11/3
f 9/9/3 11/11/3 12/12/3
g seat_rim_side
v 0.25640000 0.00780000 0.37645000
v 0.22100391 0.13990000 0.37645000
v 0.22100391 0.13990000 0.51795000
v 0.25640000 0.00780000 0.51795000
vt 0.55468750 0.96093750
vt 0.64843750 0.96093750
vt 0.64843750 0.89843750
vt 0.55468750 0.89843750
vn 0.96592583 0.25881905 0.00000000
f 13/13/4 14/14/4 15/15/4
f 13/13/4 15/15/4 16/16/4
g seat_rim_side
v 0.22100391 0.13990000 0.37645000
v 0.12430000 0.23660391 0.37645000
v 0.12430000 0.23660391 0.51795000
v 0.22100391 0.13990000 0.51795000
vt 0.55468750 0.96093750
vt 0.64843750 0.96093750
vt 0.64843750 0.89843750
vt 0.55468750 0.89843750
vn 0.70710678 0.70710678 0.00000000
f 17/17/5 18/18/5 19/19/5
f 17/17/5 19/19/5 20/20/5
g seat_rim_side
v 0.12430000 0.23660391 0.37645000
v -0.00780000 0.27200000 0.37645000
v -0.00780000 0.27200000 0.51795000
v 0.12430000 0.23660391 0.51795000
vt 0.55468750 0.96093750
vt 0.64843750 0.96093750
vt 0.64843750 0.89843750
vt 0.55468750 0.89843750
vn 0.25881905 0.96592583 0.00000000
f 21/21/6 22/22/6 23/23/6
f 21/21/6 23/23/6 24/24/6
g seat_rim_side
v -0.00780000 0.27200000 0.37645000
v -0.13990000 0.23660391 0.37645000
v -0.13990000 0.23660391 0.51795000
v -0.00780000 0.27200000 0.51795000
vt 0.55468750 0.96093750
vt 0.64843750 0.96093750
vt 0.64843750 0.89843750
vt 0.55468750 0.89843750
vn -0.25881905 0.96592583 0.00000000
f 25/25/7 26/26/7 27/27/7
f 25/25/7 27/27/7 28/28/7
g seat_rim_side
v -0.13990000 0.23660391 0.37645000
v -0.23660391 0.13990000 0.37645000
v -0.23660391 0.13990000 0.51795000
v -0.13990000 0.23660391 0.51795000
vt 0.55468750 0.96093750
vt 0.64843750 0.96093750
vt 0.64843750 0.89843750
vt 0.55468750 0.89843750
vn -0.70710678 0.70710678 0.00000000
f 29/29/8 30/30/8 31/31/8
f 29/29/8 31/31/8 32/32/8
g seat_rim_side
v -0.23660391 0.13990000 0.37645000
v -0.27200000 0.00780000 0.37645000
v -0.27200000 0.00780000 0.51795000
v -0.23660391 0.13990000 0.51795000
vt 0.55468750 0.96093750
vt 0.64843750 0.96093750
vt 0.64843750 0.89843750
vt 0.55468750 0.89843750
vn -0.96592583 0.25881905 0.00000000
f 33/33/9 34/34/9 35/35/9
f 33/33/9 35/35/9 36/36/9
g seat_rim_side
v -0.27200000 0.00780000 0.37645000
v -0.23660391 -0.12430000 0.37645000
v -0.23660391 -0.12430000 0.51795000
v -0.27200000 0.00780000 0.51795000
vt 0.55468750 0.96093750
vt 0.64843750 0.96093750
vt 0.64843750 0.89843750
vt 0.55468750 0.89843750
vn -0.96592583 -0.25881905 0.00000000
f 37/37/10 38/38/10 39/39/10
f 37/37/10 39/39/10 40/40/10
g seat_rim_side
v -0.23660391 -0.12430000 0.37645000
v -0.13990000 -0.22100391 0.37645000
v -0.13990000 -0.22100391 0.51795000
v -0.23660391 -0.12430000 0.51795000
vt 0.55468750 0.96093750
vt 0.64843750 0.96093750
vt 0.64843750 0.89843750
vt 0.55468750 0.89843750
vn -0.70710678 -0.70710678 0.00000000
f 41/41/11 42/42/11 43/43/11
f 41/41/11 43/43/11 44/44/11
g seat_rim_side
v -0.13990000 -0.22100391 0.37645000
v -0.00780000 -0.25640000 0.37645000
v -0.00780000 -0.25640000 0.51795000
v -0.13990000 -0.22100391 0.51795000
vt 0.55468750 0.96093750
vt 0.64843750 0.96093750
vt 0.64843750 0.89843750
vt 0.55468750 0.89843750
vn -0.25881905 -0.96592583 0.00000000
f 45/45/12 46/46/12 47/47/12
f 45/45/12 47/47/12 48/48/12
g seat_rim_cap0
v -0.00780000 -0.25640000 0.37645000
v 0.22100391 -0.12430000 0.37645000
v 0.12430000 -0.22100391 0.37645000
vt 0.55468750 0.96093750
vt 0.64843750 0.96093750
vt 0.64843750 0.89843750
vn -0.00000000 -0.00000000 -1.00000000
f 49/49/13 50/50/13 51/51/13
g seat_rim_cap1
v -0.00780000 -0.25640000 0.51795000
v 0.12430000 -0.22100391 0.51795000
v 0.22100391 -0.12430000 0.51795000
vt 0.55468750 0.96093750
vt 0.64843750 0.96093750
vt 0.64843750 0.89843750
vn -0.00000000 -0.00000000 1.00000000
f 52/52/14 53/53/14 54/54/14
g seat_rim_cap0
v -0.00780000 -0.25640000 0.37645000
v 0.25640000 0.00780000 0.37645000
v 0.22100391 -0.12430000 0.37645000
vt 0.55468750 0.96093750
vt 0.64843750 0.96093750
vt 0.64843750 0.89843750
vn -0.00000000 -0.00000000 -1.00000000
f 55/55/15 56/56/15 57/57/15
g seat_rim_cap1
v -0.00780000 -0.25640000 0.51795000
v 0.22100391 -0.12430000 0.51795000
v 0.25640000 0.00780000 0.51795000
vt 0.55468750 0.96093750
vt 0.64843750 0.96093750
vt 0.64843750 0.89843750
vn -0.00000000 -0.00000000 1.00000000
f 58/58/16 59/59/16 60/60/16
g seat_rim_cap0
v -0.00780000 -0.25640000 0.37645000
v 0.22100391 0.13990000 0.37645000
v 0.25640000 0.00780000 0.37645000
vt 0.55468750 0.96093750
vt 0.64843750 0.96093750
vt 0.64843750 0.89843750
vn -0.00000000 -0.00000000 -1.00000000
f 61/61/17 62/62/17 63/63/17
g seat_rim_cap1
v -0.00780000 -0.25640000 0.51795000
v 0.25640000 0.00780000 0.51795000
v 0.22100391 0.13990000 0.51795000
vt 0.55468750 0.96093750
vt 0.64843750 0.96093750
vt 0.64843750 0.89843750
vn -0.00000000 -0.00000000 1.00000000
f 64/64/18 65/65/18 66/66/18
g seat_rim_cap0
v -0.00780000 -0.25640000 0.37645000
v 0.12430000 0.23660391 0.37645000
v 0.22100391 0.13990000 0.37645000
vt 0.55468750 0.96093750
vt 0.64843750 0.96093750
vt 0.64843750 0.89843750
vn -0.00000000 -0.00000000 -1.00000000
f 67/67/19 68/68/19 69/69/19
g seat_rim_cap1
v -0.00780000 -0.25640000 0.51795000
v 0.22100391 0.13990000 0.51795000
v 0.12430000 0.23660391 0.51795000
vt 0.55468750 0.96093750
vt 0.64843750 0.96093750
vt 0.64843750 0.89843750
vn -0.00000000 -0.00000000 1.00000000
f 70/70/20 71/71/20 72/72/20
g seat_rim_cap0
v -0.00780000 -0.25640000 0.37645000
v -0.00780000 0.27200000 0.37645000
v 0.12430000 0.23660391 0.37645000
vt 0.55468750 0.96093750
vt 0.64843750 0.96093750
vt 0.64843750 0.89843750
vn -0.00000000 -0.00000000 -1.00000000
f 73/73/21 74/74/21 75/75/21
g seat_rim_cap1
v -0.00780000 -0.25640000 0.51795000
v 0.12430000 0.23660391 0.51795000
v -0.00780000 0.27200000 0.51795000
vt 0.55468750 0.96093750
vt 0.64843750 0.96093750
vt 0.64843750 0.89843750
vn -0.00000000 -0.00000000 1.00000000
f 76/76/22 77/77/22 78/78/22
g seat_rim_cap0
v -0.00780000 -0.25640000 0.37645000
v -0.13990000 0.23660391 0.37645000
v -0.00780000 0.27200000 0.37645000
vt 0.55468750 0.96093750
vt 0.64843750 0.96093750
vt 0.64843750 0.89843750
vn -0.00000000 0.00000000 -1.00000000
f 79/79/23 80/80/23 81/81/23
g seat_rim_cap1
v -0.00780000 -0.25640000 0.51795000
v -0.00780000 0.27200000 0.51795000
v -0.13990000 0.23660391 0.51795000
vt 0.55468750 0.96093750
vt 0.64843750 0.96093750
vt 0.64843750 0.89843750
vn -0.00000000 -0.00000000 1.00000000
f 82/82/24 83/83/24 84/84/24
g seat_rim_cap0
v -0.00780000 -0.25640000 0.37645000
v -0.23660391 0.13990000 0.37645000
v -0.13990000 0.23660391 0.37645000
vt 0.55468750 0.96093750
vt 0.64843750 0.96093750
vt 0.64843750 0.89843750
vn -0.00000000 -0.00000000 -1.00000000
f 85/85/25 86/86/25 87/87/25
g seat_rim_cap1
v -0.00780000 -0.25640000 0.51795000
v -0.13990000 0.23660391 0.51795000
v -0.23660391 0.13990000 0.51795000
vt 0.55468750 0.96093750
vt 0.64843750 0.96093750
vt 0.64843750 0.89843750
vn -0.00000000 -0.00000000 1.00000000
f 88/88/26 89/89/26 90/90/26
g seat_rim_cap0
v -0.00780000 -0.25640000 0.37645000
v -0.27200000 0.00780000 0.37645000
v -0.23660391 0.13990000 0.37645000
vt 0.55468750 0.96093750
vt 0.64843750 0.96093750
vt 0.64843750 0.89843750
vn -0.00000000 -0.00000000 -1.00000000
f 91/91/27 92/92/27 93/93/27
g seat_rim_cap1
v -0.00780000 -0.25640000 0.51795000
v -0.23660391 0.13990000 0.51795000
v -0.27200000 0.00780000 0.51795000
vt 0.55468750 0.96093750
vt 0.64843750 0.96093750
vt 0.64843750 0.89843750
vn -0.00000000 -0.00000000 1.00000000
f 94/94/28 95/95/28 96/96/28
g seat_rim_cap0
v -0.00780000 -0.25640000 0.37645000
v -0.23660391 -0.12430000 0.37645000
v -0.27200000 0.00780000 0.37645000
vt 0.55468750 0.96093750
vt 0.64843750 0.96093750
vt 0.64843750 0.89843750
vn -0.00000000 -0.00000000 -1.00000000
f 97/97/29 98/98/29 99/99/29
g seat_rim_cap1
v -0.00780000 -0.25640000 0.51795000
v -0.27200000 0.00780000 0.51795000
v -0.23660391 -0.12430000 0.51795000
vt 0.55468750 0.96093750
vt 0.64843750 0.96093750
vt 0.64843750 0.89843750
vn -0.00000000 -0.00000000 1.00000000
f 100/100/30 101/101/30 102/102/30
g seat_rim_cap0
v -0.00780000 -0.25640000 0.37645000
v -0.13990000 -0.22100391 0.37645000
v -0.23660391 -0.12430000 0.37645000
vt 0.55468750 0.96093750
vt 0.64843750 0.96093750
vt 0.64843750 0.89843750
vn -0.00000000 -0.00000000 -1.00000000
f 103/103/31 104/104/31 105/105/31
g seat_rim_cap1
v -0.00780000 -0.25640000 0.51795000
v -0.23660391 -0.12430000 0.51795000
v -0.13990000 -0.22100391 0.51795000
vt 0.55468750 0.96093750
vt 0.64843750 0.96093750
vt 0.64843750 0.89843750
vn -0.00000000 -0.00000000 1.00000000
f 106/106/32 107/107/32 108/108/32
g seat_cushion_side
v -0.00780000 -0.25111600 0.51795000
v 0.12165800 -0.21642783 0.51795000
v 0.12165800 -0.21642783 0.55995000
v -0.00780000 -0.25111600 0.55995000
vt 0.25781250 0.96093750
vt 0.47656250 0.96093750
vt 0.47656250 0.86718750
vt 0.25781250 0.86718750
vn 0.25881905 -0.96592583 0.00000000
f 109/109/33 110/110/33 111/111/33
f 109/109/33 111/111/33 112/112/33
g seat_cushion_side
v 0.12165800 -0.21642783 0.51795000
v 0.21642783 -0.12165800 0.51795000
v 0.21642783 -0.12165800 0.55995000
v 0.12165800 -0.21642783 0.55995000
vt 0.25781250 0.96093750
vt 0.47656250 0.96093750
vt 0.47656250 0.86718750
vt 0.25781250 0.86718750
vn 0.70710678 -0.70710678 0.00000000
f 113/113/34 114/114/34 115/115/34
f 113/113/34 115/115/34 116/116/34
g seat_cushion_side
v 0.21642783 -0.12165800 0.51795000
v 0.25111600 0.00780000 0.51795000
v 0.25111600 0.00780000 0.55995000
v 0.21642783 -0.12165800 0.55995000
vt 0.25781250 0.96093750
vt 0.47656250 0.96093750
vt 0.47656250 0.86718750
vt 0.25781250 0.86718750
vn 0.96592583 -0.25881905 0.00000000
f 117/117/35 118/118/35 119/119/35
f 117/117/35 119/119/35 120/120/35
g seat_cushion_side
v 0.25111600 0.00780000 0.51795000
v 0.21642783 0.13725800 0.51795000
v 0.21642783 0.13725800 0.55995000
v 0.25111600 0.00780000 0.55995000
vt 0.25781250 0.96093750
vt 0.47656250 0.96093750
vt 0.47656250 0.86718750
vt 0.25781250 0.86718750
vn 0.96592583 0.25881905 0.00000000
f 121/121/36 122/122/36 123/123/36
f 121/121/36 123/123/36 124/124/36
g seat_cushion_side
v 0.21642783 0.13725800 0.51795000
v 0.12165800 0.23202783 0.51795000
v 0.12165800 0.23202783 0.55995000
v 0.21642783 0.13725800 0.55995000
vt 0.25781250 0.96093750
vt 0.47656250 0.96093750
vt 0.47656250 0.86718750
vt 0.25781250 0.86718750
vn 0.70710678 0.70710678 0.00000000
f 125/125/37 126/126/37 127/127/37
f 125/125/37 127/127/37 128/128/37
g seat_cushion_side
v 0.12165800 0.23202783 0.51795000
v -0.00780000 0.26671600 0.51795000
v -0.00780000 0.26671600 0.55995000
v 0.12165800 0.23202783 0.55995000
vt 0.25781250 0.96093750
vt 0.47656250 0.96093750
vt 0.47656250 0.86718750
vt 0.25781250 0.86718750
vn 0.25881905 0.96592583 0.00000000
f 129/129/38 130/130/38 131/131/38
f 129/129/38 131/131/38 132/132/38
g seat_cushion_side
v -0.00780000 0.26671600 0.51795000
v -0.13725800 0.23202783 0.51795000
v -0.13725800 0.23202783 0.55995000
v -0.00780000 0.26671600 0.55995000
vt 0.25781250 0.96093750
vt 0.47656250 0.96093750
vt 0.47656250 0.86718750
vt 0.25781250 0.86718750
vn -0.25881905 0.96592583 0.00000000
f 133/133/39 134/134/39 135/135/39
f 133/133/39 135/135/39 136/136/39
g seat_cushion_side
v -0.13725800 0.23202783 0.51795000
v -0.23202783 0.13725800 0.51795000
v -0.23202783 0.13725800 0.55995000
v -0.13725800 0.23202783 0.55995000
vt 0.25781250 0.96093750
vt 0.47656250 0.96093750
vt 0.47656250 0.86718750
vt 0.25781250 0.86718750
vn -0.70710678 0.70710678 0.00000000
f 137/137/40 138/138/40 139/139/40
f 137/137/40 139/139/40 140/140/40
g seat_cushion_side
v -0.23202783 0.13725800 0.51795000
v -0.26671600 0.00780000 0.51795000
v -0.26671600 0.00780000 0.55995000
v -0.23202783 0.13725800 0.55995000
vt 0.25781250 0.96093750
vt 0.47656250 0.96093750
vt 0.47656250 0.86718750
vt 0.25781250 0.86718750
vn -0.96592583 0.25881905 0.00000000
f 141/141/41 142/142/41 143/143/41
f 141/141/41 143/143/41 144/144/41
g seat_cushion_side
v -0.26671600 0.00780000 0.51795000
v -0.23202783 -0.12165800 0.51795000
v -0.23202783 -0.12165800 0.55995000
v -0.26671600 0.00780000 0.55995000
vt 0.25781250 0.96093750
vt 0.47656250 0.96093750
vt 0.47656250 0.86718750
vt 0.25781250 0.86718750
vn -0.96592583 -0.25881905 0.00000000
f 145/145/42 146/146/42 147/147/42
f 145/145/42 147/147/42 148/148/42
g seat_cushion_side
v -0.23202783 -0.12165800 0.51795000
v -0.13725800 -0.21642783 0.51795000
v -0.13725800 -0.21642783 0.55995000
v -0.23202783 -0.12165800 0.55995000
vt 0.25781250 0.96093750
vt 0.47656250 0.96093750
vt 0.47656250 0.86718750
vt 0.25781250 0.86718750
vn -0.70710678 -0.70710678 0.00000000
f 149/149/43 150/150/43 151/151/43
f 149/149/43 151/151/43 152/152/43
g seat_cushion_side
v -0.13725800 -0.21642783 0.51795000
v -0.00780000 -0.25111600 0.51795000
v -0.00780000 -0.25111600 0.55995000
v -0.13725800 -0.21642783 0.55995000
vt 0.25781250 0.96093750
vt 0.47656250 0.96093750
vt 0.47656250 0.86718750
vt 0.25781250 0.86718750
vn -0.25881905 -0.96592583 0.00000000
f 153/153/44 154/154/44 155/155/44
f 153/153/44 155/155/44 156/156/44
g seat_cushion_cap0
v -0.00780000 -0.25111600 0.51795000
v 0.21642783 -0.12165800 0.51795000
v 0.12165800 -0.21642783 0.51795000
vt 0.25781250 0.96093750
vt 0.47656250 0.96093750
vt 0.47656250 0.86718750
vn -0.00000000 -0.00000000 -1.00000000
f 157/157/45 158/158/45 159/159/45
g seat_cushion_cap1
v -0.00780000 -0.25111600 0.55995000
v 0.12165800 -0.21642783 0.55995000
v 0.21642783 -0.12165800 0.55995000
vt 0.25781250 0.96093750
vt 0.47656250 0.96093750
vt 0.47656250 0.86718750
vn -0.00000000 -0.00000000 1.00000000
f 160/160/46 161/161/46 162/162/46
g seat_cushion_cap0
v -0.00780000 -0.25111600 0.51795000
v 0.25111600 0.00780000 0.51795000
v 0.21642783 -0.12165800 0.51795000
vt 0.25781250 0.96093750
vt 0.47656250 0.96093750
vt 0.47656250 0.86718750
vn -0.00000000 -0.00000000 -1.00000000
f 163/163/47 164/164/47 165/165/47
g seat_cushion_cap1
v -0.00780000 -0.25111600 0.55995000
v 0.21642783 -0.12165800 0.55995000
v 0.25111600 0.00780000 0.55995000
vt 0.25781250 0.96093750
vt 0.47656250 0.96093750
vt 0.47656250 0.86718750
vn -0.00000000 -0.00000000 1.00000000
f 166/166/48 167/167/48 168/168/48
g seat_cushion_cap0
v -0.00780000 -0.25111600 0.51795000
v 0.21642783 0.13725800 0.51795000
v 0.25111600 0.00780000 0.51795000
vt 0.25781250 0.96093750
vt 0.47656250 0.96093750
vt 0.47656250 0.86718750
vn -0.00000000 -0.00000000 -1.00000000
f 169/169/49 170/170/49 171/171/49
g seat_cushion_cap1
v -0.00780000 -0.25111600 0.55995000
v 0.25111600 0.00780000 0.55995000
v 0.21642783 0.13725800 0.55995000
vt 0.25781250 0.96093750
vt 0.47656250 0.96093750
vt 0.47656250 0.86718750
vn -0.00000000 -0.00000000 1.00000000
f 172/172/50 173/173/50 174/174/50
g seat_cushion_cap0
v -0.00780000 -0.25111600 0.51795000
v 0.12165800 0.23202783 0.51795000
v 0.21642783 0.13725800 0.51795000
vt 0.25781250 0.96093750
vt 0.47656250 0.96093750
vt 0.47656250 0.86718750
vn -0.00000000 -0.00000000 -1.00000000
f 175/175/51 176/176/51 177/177/51
g seat_cushion_cap1
v -0.00780000 -0.25111600 0.55995000
v 0.21642783 0.13725800 0.55995000
v 0.12165800 0.23202783 0.55995000
vt 0.25781250 0.96093750
vt 0.47656250 0.96093750
vt 0.47656250 0.86718750
vn -0.00000000 -0.00000000 1.00000000
f 178/178/52 179/179/52 180/180/52
g seat_cushion_cap0
v -0.00780000 -0.25111600 0.51795000
v -0.00780000 0.26671600 0.51795000
v 0.12165800 0.23202783 0.51795000
vt 0.25781250 0.96093750
vt 0.47656250 0.96093750
vt 0.47656250 0.86718750
vn -0.00000000 -0.00000000 -1.00000000
f 181/181/53 182/182/53 183/183/53
g seat_cushion_cap1
v -0.00780000 -0.25111600 0.55995000
v 0.12165800 0.23202783 0.55995000
v -0.00780000 0.26671600 0.55995000
vt 0.25781250 0.96093750
vt 0.47656250 0.96093750
vt 0.47656250 0.86718750
vn -0.00000000 -0.00000000 1.00000000
f 184/184/54 185/185/54 186/186/54
g seat_cushion_cap0
v -0.00780000 -0.25111600 0.51795000
v -0.13725800 0.23202783 0.51795000
v -0.00780000 0.26671600 0.51795000
vt 0.25781250 0.96093750
vt 0.47656250 0.96093750
vt 0.47656250 0.86718750
vn -0.00000000 0.00000000 -1.00000000
f 187/187/55 188/188/55 189/189/55
g seat_cushion_cap1
v -0.00780000 -0.25111600 0.55995000
v -0.00780000 0.26671600 0.55995000
v -0.13725800 0.23202783 0.55995000
vt 0.25781250 0.96093750
vt 0.47656250 0.96093750
vt 0.47656250 0.86718750
vn -0.00000000 -0.00000000 1.00000000
f 190/190/56 191/191/56 192/192/56
g seat_cushion_cap0
v -0.00780000 -0.25111600 0.51795000
v -0.23202783 0.13725800 0.51795000
v -0.13725800 0.23202783 0.51795000
vt 0.25781250 0.96093750
vt 0.47656250 0.96093750
vt 0.47656250 0.86718750
vn -0.00000000 -0.00000000 -1.00000000
f 193/193/57 194/194/57 195/195/57
g seat_cushion_cap1
v -0.00780000 -0.25111600 0.55995000
v -0.13725800 0.23202783 0.55995000
v -0.23202783 0.13725800 0.55995000
vt 0.25781250 0.96093750
vt 0.47656250 0.96093750
vt 0.47656250 0.86718750
vn -0.00000000 -0.00000000 1.00000000
f 196/196/58 197/197/58 198/198/58
g seat_cushion_cap0
v -0.00780000 -0.25111600 0.51795000
v -0.26671600 0.00780000 0.51795000
v -0.23202783 0.13725800 0.51795000
vt 0.25781250 0.96093750
vt 0.47656250 0.96093750
vt 0.47656250 0.86718750
vn -0.00000000 -0.00000000 -1.00000000
f 199/199/59 200/200/59 201/201/59
g seat_cushion_cap1
v -0.00780000 -0.25111600 0.55995000
v -0.23202783 0.13725800 0.55995000
v -0.26671600 0.00780000 0.55995000
vt 0.25781250 0.96093750
vt 0.47656250 0.96093750
vt 0.47656250 0.86718750
vn -0.00000000 -0.00000000 1.00000000
f 202/202/60 203/203/60 204/204/60
g seat_cushion_cap0
v -0.00780000 -0.25111600 0.51795000
v -0.23202783 -0.12165800 0.51795000
v -0.26671600 0.00780000 0.51795000
vt 0.25781250 0.96093750
vt 0.47656250 0.96093750
vt 0.47656250 0.86718750
vn -0.00000000 -0.00000000 -1.00000000
f 205/205/61 206/206/61 207/207/61
g seat_cushion_cap1
v -0.00780000 -0.25111600 0.55995000
v -0.26671600 0.00780000 0.55995000
v -0.23202783 -0.12165800 0.55995000
vt 0.25781250 0.96093750
vt 0.47656250 0.96093750
vt 0.47656250 0.86718750
vn -0.00000000 -0.00000000 1.00000000
f 208/208/62 209/209/62 210/210/62
g seat_cushion_cap0
v -0.00780000 -0.25111600 0.51795000
v -0.13725800 -0.21642783 0.51795000
v -0.23202783 -0.12165800 0.51795000
vt 0.25781250 0.96093750
vt 0.47656250 0.96093750
vt 0.47656250 0.86718750
vn -0.00000000 -0.00000000 -1.00000000
f 211/211/63 212/212/63 213/213/63
g seat_cushion_cap1
v -0.00780000 -0.25111600 0.55995000
v -0.23202783 -0.12165800 0.55995000
v -0.13725800 -0.21642783 0.55995000
vt 0.25781250 0.96093750
vt 0.47656250 0.96093750
vt 0.47656250 0.86718750
vn -0.00000000 -0.00000000 1.00000000
f 214/214/64 215/215/64 216/216/64
g swivel_1_side
v -0.00780000 -0.05540000 0.00000000
v 0.03688915 -0.03688915 0.00000000
v 0.03688915 -0.03688915 0.41600000
v -0.00780000 -0.05540000 0.41600000
vt 0.13281250 0.96093750
vt 0.17968750 0.96093750
vt 0.17968750 0.75781250
vt 0.13281250 0.75781250
vn 0.38268343 -0.92387953 0.00000000
f 217/217/65 218/218/65 219/219/65
f 217/217/65 219/219/65 220/220/65
g swivel_1_side
v 0.03688915 -0.03688915 0.00000000
v 0.05540000 0.00780000 0.00000000
v 0.05540000 0.00780000 0.41600000
v 0.03688915 -0.03688915 0.41600000
vt 0.13281250 0.96093750
vt 0.17968750 0.96093750
vt 0.17968750 0.75781250
vt 0.13281250 0.75781250
vn 0.92387953 -0.38268343 0.00000000
f 221/221/66 222/222/66 223/223/66
f 221/221/66 223/223/66 224/224/66
g swivel_1_side
v 0.05540000 0.00780000 0.00000000
v 0.03688915 0.05248915 0.00000000
v 0.03688915 0.05248915 0.41600000
v 0.05540000 0.00780000 0.41600000
vt 0.13281250 0.96093750
vt 0.17968750 0.96093750
vt 0.17968750 0.75781250
vt 0.13281250 0.75781250
vn 0.92387953 0.38268343 0.00000000
f 225/225/67 226/226/67 227/227/67
f 225/225/67 227/227/67 228/228/67
g swivel_1_side
v 0.03688915 0.05248915 0.00000000
v -0.00780000 0.07100000 0.00000000
v -0.00780000 0.07100000 0.41600000
v 0.03688915 0.05248915 0.41600000
vt 0.13281250 0.96093750
vt 0.17968750 0.96093750
vt 0.17968750 0.75781250
vt 0.13281250 0.75781250
vn 0.38268343 0.92387953 0.00000000
f 229/229/68 230/230/68 231/231/68
f 229/229/68 231/231/68 232/232/68
g swivel_1_side
v -0.00780000 0.07100000 0.00000000
v -0.05248915 0.05248915 0.00000000
v -0.05248915 0.05248915 0.41600000
v -0.00780000 0.07100000 0.41600000
vt 0.13281250 0.96093750
vt 0.17968750 0.96093750
vt 0.17968750 0.75781250
vt 0.13281250 0.75781250
vn -0.38268343 0.92387953 0.00000000
f 233/233/69 234/234/69 235/235/69
f 233/233/69 235/235/69 236/236/69
g swivel_1_side
v -0.05248915 0.05248915 0.00000000
v -0.07100000 0.00780000 0.00000000
v -0.07100000 0.00780000 0.41600000
v -0.05248915 0.05248915 0.41600000
vt 0.13281250 0.96093750
vt 0.17968750 0.96093750
vt 0.17968750 0.75781250
vt 0.13281250 0.75781250
vn -0.92387953 0.38268343 0.00000000
f 237/237/70 238/238/70 239/239/70
f 237/237/70 239/239/70 240/240/70
g swivel_1_side
v -0.07100000 0.00780000 0.00000000
v -0.05248915 -0.03688915 0.00000000
v -0.05248915 -0.03688915 0.41600000
v -0.07100000 0.00780000 0.41600000
vt 0.13281250 0.96093750
vt 0.17968750 0.96093750
vt 0.17968750 0.75781250
vt 0.13281250 0.75781250
vn -0.92387953 -0.38268343 0.00000000
f 241/241/71 242/242/71 243/243/71
f 241/241/71 243/243/71 244/244/71
g swivel_1_side
v -0.05248915 -0.03688915 0.00000000
v -0.00780000 -0.05540000 0.00000000
v -0.00780000 -0.05540000 0.41600000
v -0.05248915 -0.03688915 0.41600000
vt 0.13281250 0.96093750
vt 0.17968750 0.96093750
vt 0.17968750 0.75781250
vt 0.13281250 0.75781250
vn -0.38268343 -0.92387953 0.00000000
f 245/245/72 246/246/72 247/247/72
f 245/245/72 247/247/72 248/248/72
g swivel_1_cap0
v -0.00780000 -0.05540000 0.00000000
v 0.05540000 0.00780000 0.00000000
v 0.03688915 -0.03688915 0.00000000
vt 0.13281250 0.96093750
vt 0.17968750 0.96093750
vt 0.17968750 0.75781250
vn -0.00000000 -0.00000000 -1.00000000
f 249/249/73 250/250/73 251/251/73
g swivel_1_cap1
v -0.00780000 -0.05540000 0.41600000
v 0.03688915 -0.03688915 0.41600000
v 0.05540000 0.00780000 0.41600000
vt 0.13281250 0.96093750
vt 0.17968750 0.96093750
vt 0.17968750 0.75781250
vn -0.00000000 -0.00000000 1.00000000
f 252/252/74 253/253/74 254/254/74
g swivel_1_cap0
v -0.00780000 -0.05540000 0.00000000
v 0.03688915 0.05248915 0.00000000
v 0.05540000 0.00780000 0.00000000
vt 0.13281250 0.96093750
vt 0.17968750 0.96093750
vt 0.17968750 0.75781250
vn -0.00000000 -0.00000000 -1.00000000
f 255/255/75 256/256/75 257/257/75
g swivel_1_cap1
v -0.00780000 -0.05540000 0.41600000
v 0.05540000 0.00780000 0.41600000
v 0.03688915 0.05248915 0.41600000
vt 0.13281250 0.96093750
vt 0.17968750 0.96093750
vt 0.17968750 0.75781250
vn -0.00000000 -0.00000000 1.00000000
f 258/258/76 259/259/76 260/260/76
g swivel_1_cap0
v -0.00780000 -0.05540000 0.00000000
v -0.00780000 0.07100000 0.00000000
v 0.03688915 0.05248915 0.00000000
vt 0.13281250 0.96093750
vt 0.17968750 0.96093750
vt 0.17968750 0.75781250
vn -0.00000000 -0.00000000 -1.00000000
f 261/261/77 262/262/77 263/263/77
g swivel_1_cap1
v -0.00780000 -0.05540000 0.41600000
v 0.03688915 0.05248915 0.41600000
v -0.00780000 0.07100000 0.41600000
vt 0.13281250 0.96093750
vt 0.17968750 0.96093750
vt 0.17968750 0.75781250
vn -0.00000000 -0.00000000 1.00000000
f 264/264/78 265/265/78 266/266/78
g swivel_1_cap0
v -0.00780000 -0.05540000 0.00000000
v -0.05248915 0.05248915 0.00000000
v -0.00780000 0.07100000 0.00000000
vt 0.13281250 0.96093750
vt 0.17968750 0.96093750
vt 0.17968750 0.75781250
vn -0.00000000 0.00000000 -1.00000000
f 267/267/79 268/268/79 269/269/79
g swivel_1_cap1
v -0.00780000 -0.05540000 0.41600000
v -0.00780000 0.07100000 0.41600000
v -0.05248915 0.05248915 0.41600000
vt 0.13281250 0.96093750
vt 0.17968750 0.96093750
vt 0.17968750 0.75781250
vn -0.00000000 -0.00000000 1.00000000
f 270/270/80 271/271/80 272/272/80
g swivel_1_cap0
v -0.00780000 -0.05540000 0.00000000
v -0.07100000 0.00780000 0.00000000
v -0.05248915 0.05248915 0.00000000
vt 0.13281250 0.96093750
vt 0.17968750 0.96093750
vt 0.17968750 0.75781250
vn -0.00000000 -0.00000000 -1.00000000
f 273/273/81 274/274/81 275/275/81
g swivel_1_cap1
v -0.00780000 -0.05540000 0.41600000
v -0.05248915 0.05248915 0.41600000
v -0.07100000 0.00780000 0.41600000
vt 0.13281250 0.96093750
vt 0.17968750 0.96093750
vt 0.17968750 0.75781250
vn -0.00000000 -0.00000000 1.00000000
f 276/276/82 277/277/82 278/278/82
g swivel_1_cap0
v -0.00780000 -0.05540000 0.00000000
v -0.05248915 -0.03688915 0.00000000
v -0.07100000 0.00780000 0.00000000
vt 0.13281250 0.96093750
vt 0.17968750 0.96093750
vt 0.17968750 0.75781250
vn -0.00000000 -0.00000000 -1.00000000
f 279/279/83 280/280/83 281/281/83
g swivel_1_cap1
v -0.00780000 -0.05540000 0.41600000
v -0.07100000 0.00780000 0.41600000
v -0.05248915 -0.03688915 0.41600000
vt 0.13281250 0.96093750
vt 0.17968750 0.96093750
vt 0.17968750 0.75781250
vn -0.00000000 -0.00000000 1.00000000
f 282/282/84 283/283/84 284/284/84
g swivel_2_side
v -0.05670000 -0.16250000 0.00000000
v 0.02645576 -0.12805576 0.00000000
v 0.02645576 -0.12805576 0.05760000
v -0.05670000 -0.16250000 0.05760000
vt 0.13281250 0.96093750
vt 0.17968750 0.96093750
vt 0.17968750 0.75781250
vt 0.13281250 0.75781250
vn 0.38268343 -0.92387953 0.00000000
f 285/285/85 286/286/85 287/287/85
f 285/285/85 287/287/85 288/288/85
g swivel_2_side
v 0.02645576 -0.12805576 0.00000000
v 0.06090000 -0.04490000 0.00000000
v 0.06090000 -0.04490000 0.05760000
v 0.02645576 -0.12805576 0.05760000
vt 0.13281250 0.96093750
vt 0.17968750 0.96093750
vt 0.17968750 0.75781250
vt 0.13281250 0.75781250
vn 0.92387953 -0.38268343 0.00000000
f 289/289/86 290/290/86 291/291/86
f 289/289/86 291/291/86 292/292/86
g swivel_2_side
v 0.06090000 -0.04490000 0.00000000
v 0.02645576 0.03825576 0.00000000
v 0.02645576 0.03825576 0.05760000
v 0.06090000 -0.04490000 0.05760000
vt 0.13281250 0.96093750
vt 0.17968750 0.96093750
vt 0.17968750 0.75781250
vt 0.13281250 0.75781250
vn 0.92387953 0.38268343 0.00000000
f 293/293/87 294/294/87 295/295/87
f 293/293/87 295/295/87 296/296/87
g swivel_2_side
v 0.02645576 0.03825576 0.00000000
v -0.05670000 0.07270000 0.00000000
v -0.05670000 0.07270000 0.05760000
v 0.02645576 0.03825576 0.05760000
vt 0.13281250 0.96093750
vt 0.17968750 0.96093750
vt 0.17968750 0.75781250
vt 0.13281250 0.75781250
vn 0.38268343 0.92387953 0.00000000
f 297/297/88 298/298/88 299/299/88
f 297/297/88 299/299/88 300/300/88
g swivel_2_side
v -0.05670000 0.07270000 0.00000000
v -0.13985576 0.03825576 0.00000000
v -0.13985576 0.03825576 0.05760000
v -0.05670000 0.07270000 0.05760000
vt 0.13281250 0.96093750
vt 0.17968750 0.96093750
vt 0.17968750 0.75781250
vt 0.13281250 0.75781250
vn -0.38268343 0.92387953 0.00000000
f 301/301/89 302/302/89 303/303/89
f 301/301/89 303/303/89 304/304/89
g swivel_2_side
v -0.13985576 0.03825576 0.00000000
v -0.17430000 -0.04490000 0.00000000
v -0.17430000 -0.04490000 0.05760000
v -0.13985576 0.03825576 0.05760000
vt 0.13281250 0.96093750
vt 0.17968750 0.96093750
vt 0.17968750 0.75781250
vt 0.13281250 0.75781250
vn -0.92387953 0.38268343 0.00000000
f 305/305/90 306/306/90 307/307/90
f 305/305/90 307/307/90 308/308/90
g swivel_2_side
v -0.17430000 -0.04490000 0.00000000
v -0.13985576 -0.12805576 0.00000000
v -0.13985576 -0.12805576 0.05760000
v -0.17430000 -0.04490000 0.05760000
vt 0.13281250 0.96093750
vt 0.17968750 0.96093750
vt 0.17968750 0.75781250
vt 0.13281250 0.75781250
vn -0.92387953 -0.38268343 0.00000000
f 309/309/91 310/310/91 311/311/91
f 309/309/91 311/311/91 312/312/91
g swivel_2_side
v -0.13985576 -0.12805576 0.00000000
v -0.05670000 -0.16250000 0.00000000
v -0.05670000 -0.16250000 0.05760000
v -0.13985576 -0.12805576 0.05760000
vt 0.13281250 0.96093750
vt 0.17968750 0.96093750
vt 0.17968750 0.75781250
vt 0.13281250 0.75781250
vn -0.38268343 -0.92387953 0.00000000
f 313/313/92 314/314/92 315/315/92
f 313/313/92 315/315/92 316/316/92
g swivel_2_cap0
v -0.05670000 -0.16250000 0.00000000
v 0.06090000 -0.04490000 0.00000000
v 0.02645576 -0.12805576 0.00000000
vt 0.13281250 0.96093750
vt 0.17968750 0.96093750
vt 0.17968750 0.75781250
vn -0.00000000 -0.00000000 -1.00000000
f 317/317/93 318/318/93 319/319/93
g swivel_2_cap1
v -0.05670000 -0.16250000 0.05760000
v 0.02645576 -0.12805576 0.05760000
v 0.06090000 -0.04490000 0.05760000
vt 0.13281250 0.96093750
vt 0.17968750 0.96093750
vt 0.17968750 0.75781250
vn -0.00000000 -0.00000000 1.00000000
f 320/320/94 321/321/94 322/322/94
g swivel_2_cap0
v -0.05670000 -0.16250000 0.00000000
v 0.02645576 0.03825576 0.00000000
v 0.06090000 -0.04490000 0.00000000
vt 0.13281250 0.96093750
vt 0.17968750 0.96093750
vt 0.17968750 0.75781250
vn -0.00000000 -0.00000000 -1.00000000
f 323/323/95 324/324/95 325/325/95
g swivel_2_cap1
v -0.05670000 -0.16250000 0.05760000
v 0.06090000 -0.04490000 0.05760000
v 0.02645576 0.03825576 0.05760000
vt 0.13281250 0.96093750
vt 0.17968750 0.96093750
vt 0.17968750 0.75781250
vn -0.00000000 -0.00000000 1.00000000
f 326/326/96 327/327/96 328/328/96
g swivel_2_cap0
v -0.05670000 -0.16250000 0.00000000
v -0.05670000 0.07270000 0.00000000
v 0.02645576 0.03825576 0.00000000
vt 0.13281250 0.96093750
vt 0.17968750 0.96093750
vt 0.17968750 0.75781250
vn -0.00000000 -0.00000000 -1.00000000
f 329/329/97 330/330/97 331/331/97
g swivel_2_cap1
v -0.05670000 -0.16250000 0.05760000
v 0.02645576 0.03825576 0.05760000
v -0.05670000 0.07270000 0.05760000
vt 0.13281250 0.96093750
vt 0.17968750 0.96093750
vt 0.17968750 0.75781250
vn -0.00000000 -0.00000000 1.00000000
f 332/332/98 333/333/98 334/334/98
g swivel_2_cap0
v -0.05670000 -0.16250000 0.00000000
v -0.13985576 0.03825576 0.00000000
v -0.05670000 0.07270000 0.00000000
vt 0.13281250 0.96093750
vt 0.17968750 0.96093750
vt 0.17968750 0.75781250
vn -0.00000000 0.00000000 -1.00000000
f 335/335/99 336/336/99 337/337/99
g swivel_2_cap1
v -0.05670000 -0.16250000 0.05760000
v -0.05670000 0.07270000 0.05760000
v -0.13985576 0.03825576 0.05760000
vt 0.13281250 0.96093750
vt 0.17968750 0.96093750
vt 0.17968750 0.75781250
vn -0.00000000 -0.00000000 1.00000000
f 338/338/100 339/339/100 340/340/100
g swivel_2_cap0
v -0.05670000 -0.16250000 0.00000000
v -0.17430000 -0.04490000 0.00000000
v -0.13985576 0.03825576 0.00000000
vt 0.13281250 0.96093750
vt 0.17968750 0.96093750
vt 0.17968750 0.75781250
vn -0.00000000 -0.00000000 -1.00000000
f 341/341/101 342/342/101 343/343/101
g swivel_2_cap1
v -0.05670000 -0.16250000 0.05760000
v -0.13985576 0.03825576 0.05760000
v -0.17430000 -0.04490000 0.05760000
vt 0.13281250 0.96093750
vt 0.17968750 0.96093750
vt 0.17968750 0.75781250
vn -0.00000000 -0.00000000 1.00000000
f 344/344/102 345/345/102 346/346/102
g swivel_2_cap0
v -0.05670000 -0.16250000 0.00000000
v -0.13985576 -0.12805576 0.00000000
v -0.17430000 -0.04490000 0.00000000
vt 0.13281250 0.96093750
vt 0.17968750 0.96093750
vt 0.17968750 0.75781250
vn -0.00000000 -0.00000000 -1.00000000
f 347/347/103 348/348/103 349/349/103
g swivel_2_cap1
v -0.05670000 -0.16250000 0.05760000
v -0.17430000 -0.04490000 0.05760000
v -0.13985576 -0.12805576 0.05760000
vt 0.13281250 0.96093750
vt 0.17968750 0.96093750
vt 0.17968750 0.75781250
vn -0.00000000 -0.00000000 1.00000000
f 350/350/104 351/351/104 352/352/104
g back_upright_side
v 0.16591087 0.14090000 0.54000000
v 0.18891087 0.16390000 0.54000000
v 0.18891087 0.16390000 1.05230000
v 0.16591087 0.14090000 1.05230000
vt 0.03906250 0.96093750
vt 0.05468750 0.96093750
vt 0.05468750 0.50781250
vt 0.03906250 0.50781250
vn 0.70710678 -0.70710678 0.00000000
f 353/353/105 354/354/105 355/355/105
f 353/353/105 355/355/105 356/356/105
g back_upright_side
v 0.18891087 0.16390000 0.54000000
v 0.16591087 0.18690000 0.54000000
v 0.16591087 0.18690000 1.05230000
v 0.18891087 0.16390000 1.05230000
vt 0.03906250 0.96093750
vt 0.05468750 0.96093750
vt 0.05468750 0.50781250
vt 0.03906250 0.50781250
vn 0.70710678 0.70710678 0.00000000
f 357/357/106 358/358/106 359/359/106
f 357/357/106 359/359/106 360/360/106
g back_upright_side
v 0.16591087 0.18690000 0.54000000
v 0.14291087 0.16390000 0.54000000
v 0.14291087 0.16390000 1.05230000
v 0.16591087 0.18690000 1.05230000
vt 0.03906250 0.96093750
vt 0.05468750 0.96093750
vt 0.05468750 0.50781250
vt 0.03906250 0.50781250
vn -0.70710678 0.70710678 0.00000000
f 361/361/107 362/362/107 363/363/107
f 361/361/107 363/363/107 364/364/107
g back_upright_side
v 0.14291087 0.16390000 0.54000000
v 0.16591087 0.14090000 0.54000000
v 0.16591087 0.14090000 1.05230000
v 0.14291087 0.16390000 1.05230000
vt 0.03906250 0.96093750
vt 0.05468750 0.96093750
vt 0.05468750 0.50781250
vt 0.03906250 0.50781250
vn -0.70710678 -0.70710678 0.00000000
f 365/365/108 366/366/108 367/367/108
f 365/365/108 367/367/108 368/368/108
g back_upright_cap0
v 0.16591087 0.14090000 0.54000000
v 0.16591087 0.18690000 0.54000000
v 0.18891087 0.16390000 0.54000000
vt 0.03906250 0.96093750
vt 0.05468750 0.96093750
vt 0.05468750 0.50781250
vn -0.00000000 0.00000000 -1.00000000
f 369/369/109 370/370/109 371/371/109
g back_upright_cap1
v 0.16591087 0.14090000 1.05230000
v 0.18891087 0.16390000 1.05230000
v 0.16591087 0.18690000 1.05230000
vt 0.03906250 0.96093750
vt 0.05468750 0.96093750
vt 0.05468750 0.50781250
vn -0.00000000 -0.00000000 1.00000000
f 372/372/110 373/373/110 374/374/110
g back_upright_cap0
v 0.16591087 0.14090000 0.54000000
v 0.14291087 0.16390000 0.54000000
v 0.16591087 0.18690000 0.54000000
vt 0.03906250 0.96093750
vt 0.05468750 0.96093750
vt 0.05468750 0.50781250
vn -0.00000000 -0.00000000 -1.00000000
f 375/375/111 376/376/111 377/377/111
g back_upright_cap1
v 0.16591087 0.14090000 1.05230000
v 0.16591087 0.18690000 1.05230000
v 0.14291087 0.16390000 1.05230000
vt 0.03906250 0.96093750
vt 0.05468750 0.96093750
vt 0.05468750 0.50781250
vn -0.00000000 -0.00000000 1.00000000
f 378/378/112 379/379/112 380/380/112
g back_upright_side
v -0.00780000 0.14090000 0.54000000
v 0.01520000 0.16390000 0.54000000
v 0.01520000 0.16390000 1.05230000
v -0.00780000 0.14090000 1.05230000
vt 0.03906250 0.96093750
vt 0.05468750 0.96093750
vt 0.05468750 0.50781250
vt 0.03906250 0.50781250
vn 0.70710678 -0.70710678 0.00000000
f 381/381/113 382/382/113 383/383/113
f 381/381/113 383/383/113 384/384/113
g back_upright_side
v 0.01520000 0.16390000 0.54000000
v -0.00780000 0.18690000 0.54000000
v -0.00780000 0.18690000 1.05230000
v 0.01520000 0.16390000 1.05230000
vt 0.03906250 0.96093750
vt 0.05468750 0.96093750
vt 0.05468750 0.50781250
vt 0.03906250 0.50781250
vn 0.70710678 0.70710678 0.00000000
f 385/385/114 386/386/114 387/387/114
f 385/385/114 387/387/114 388/388/114
g back_upright_side
v -0.00780000 0.18690000 0.54000000
v -0.03080000 0.16390000 0.54000000
v -0.03080000 0.16390000 1.05230000
v -0.00780000 0.18690000 1.05230000
vt 0.03906250 0.96093750
vt 0.05468750 0.96093750
vt 0.05468750 0.50781250
vt 0.03906250 0.50781250
vn -0.70710678 0.70710678 0.00000000
f 389/389/115 390/390/115 391/391/115
f 389/389/115 391/391/115 392/392/115
g back_upright_side
v -0.03080000 0.16390000 0.54000000
v -0.00780000 0.14090000 0.54000000
v -0.00780000 0.14090000 1.05230000
v -0.03080000 0.16390000 1.05230000
vt 0.03906250 0.96093750
vt 0.05468750 0.96093750
vt 0.05468750 0.50781250
vt 0.03906250 0.50781250
vn -0.70710678 -0.70710678 0.00000000
f 393/393/116 394/394/116 395/395/116
f 393/393/116 395/395/116 396/396/116
g back_upright_cap0
v -0.00780000 0.14090000 0.54000000
v -0.00780000 0.18690000 0.54000000
v 0.01520000 0.16390000 0.54000000
vt 0.03906250 0.96093750
vt 0.05468750 0.96093750
vt 0.05468750 0.50781250
vn -0.00000000 -0.00000000 -1.00000000
f 397/397/117 398/398/117 399/399/117
g back_upright_cap1
v -0.00780000 0.14090000 1.05230000
v 0.01520000 0.16390000 1.05230000
v -0.00780000 0.18690000 1.05230000
vt 0.03906250 0.96093750
vt 0.05468750 0.96093750
vt 0.05468750 0.50781250
vn -0.00000000 -0.00000000 1.00000000
f 400/400/118 401/401/118 402/402/118
g back_upright_cap0
v -0.00780000 0.14090000 0.54000000
v -0.03080000 0.16390000 0.54000000
v -0.00780000 0.18690000 0.54000000
vt 0.03906250 0.96093750
vt 0.05468750 0.96093750
vt 0.05468750 0.50781250
vn -0.00000000 0.00000000 -1.00000000
f 403/403/119 404/404/119 405/405/119
g back_upright_cap1
v -0.00780000 0.14090000 1.05230000
v -0.00780000 0.18690000 1.05230000
v -0.03080000 0.16390000 1.05230000
vt 0.03906250 0.96093750
vt 0.05468750 0.96093750
vt 0.05468750 0.50781250
vn -0.00000000 -0.00000000 1.00000000
f 406/406/120 407/407/120 408/408/120
g back_upright_side
v -0.18151087 0.14090000 0.54000000
v -0.15851087 0.16390000 0.54000000
v -0.15851087 0.16390000 1.05230000
v -0.18151087 0.14090000 1.05230000
vt 0.03906250 0.96093750
vt 0.05468750 0.96093750
vt 0.05468750 0.50781250
vt 0.03906250 0.50781250
vn 0.70710678 -0.70710678 0.00000000
f 409/409/121 410/410/121 411/411/121
f 409/409/121 411/411/121 412/412/121
g back_upright_side
v -0.15851087 0.16390000 0.54000000
v -0.18151087 0.18690000 0.54000000
v -0.18151087 0.18690000 1.05230000
v -0.15851087 0.16390000 1.05230000
vt 0.03906250 0.96093750
vt 0.05468750 0.96093750
vt 0.05468750 0.50781250
vt 0.03906250 0.50781250
vn 0.70710678 0.70710678 0.00000000
f 413/413/122 414/414/122 415/415/122
f 413/413/122 415/415/122 416/416/122
g back_upright_side
v -0.18151087 0.18690000 0.54000000
v -0.20451087 0.16390000 0.54000000
v -0.20451087 0.16390000 1.05230000
v -0.18151087 0.18690000 1.05230000
vt 0.03906250 0.96093750
vt 0.05468750 0.96093750
vt 0.05468750 0.50781250
vt 0.03906250 0.50781250
vn -0.70710678 0.70710678 0.00000000
f 417/417/123 418/418/123 419/419/123
f 417/417/123 419/419/123 420/420/123
g back_upright_side
v -0.20451087 0.16390000 0.54000000
v -0.18151087 0.14090000 0.54000000
v -0.18151087 0.14090000 1.05230000
v -0.20451087 0.16390000 1.05230000
vt 0.03906250 0.96093750
vt 0.05468750 0.96093750
vt 0.05468750 0.50781250
vt 0.03906250 0.50781250
vn -0.70710678 -0.70710678 0.00000000
f 421/421/124 422/422/124 423/423/124
f 421/421/124 423/423/124 424/424/124
g back_upright_cap0
v -0.18151087 0.14090000 0.54000000
v -0.18151087 0.18690000 0.54000000
v -0.15851087 0.16390000 0.54000000
vt 0.03906250 0.96093750
vt 0.05468750 0.96093750
vt 0.05468750 0.50781250
vn -0.00000000 0.00000000 -1.00000000
f 425/425/125 426/426/125 427/427/125
g back_upright_cap1
v -0.18151087 0.14090000 1.05230000
v -0.15851087 0.16390000 1.05230000
v -0.18151087 0.18690000 1.05230000
vt 0.03906250 0.96093750
vt 0.05468750 0.96093750
vt 0.05468750 0.50781250
vn -0.00000000 -0.00000000 1.00000000
f 428/428/126 429/429/126 430/430/126
g back_upright_cap0
v -0.18151087 0.14090000 0.54000000
v -0.20451087 0.16390000 0.54000000
v -0.18151087 0.18690000 0.54000000
vt 0.03906250 0.96093750
vt 0.05468750 0.96093750
vt 0.05468750 0.50781250
vn -0.00000000 -0.00000000 -1.00000000
f 431/431/127 432/432/127 433/433/127
g back_upright_cap1
v -0.18151087 0.14090000 1.05230000
v -0.18151087 0.18690000 1.05230000
v -0.20451087 0.16390000 1.05230000
vt 0.03906250 0.96093750
vt 0.05468750 0.96093750
vt 0.05468750 0.50781250
vn -0.00000000 -0.00000000 1.00000000
f 434/434/128 435/435/128 436/436/128
g arched_back_side
v 0.16591087 0.13890000 1.05230000
v 0.18991575 0.16390000 1.05928327
v 0.16664290 0.16390000 1.13928327
v 0.14263803 0.13890000 1.13230000
vt 0.03906250 0.96093750
vt 0.05468750 0.96093750
vt 0.05468750 0.50781250
vt 0.03906250 0.50781250
vn 0.67896034 -0.70710678 0.19751673
f 437/437/129 438/438/129 439/439/129
f 437/437/129 439/439/129 440/440/129
g arched_back_side
v 0.18991575 0.16390000 1.05928327
v 0.16591087 0.18890000 1.05230000
v 0.14263803 0.18890000 1.13230000
v 0.16664290 0.16390000 1.13928327
vt 0.03906250 0.96093750
vt 0.05468750 0.96093750
vt 0.05468750 0.50781250
vt 0.03906250 0.50781250
vn 0.67896034 0.70710678 0.19751673
f 441/441/130 442/442/130 443/443/130
f 441/441/130 443/443/130 444/444/130
g arched_back_side
v 0.16591087 0.18890000 1.05230000
v 0.14190600 0.16390000 1.04531673
v 0.11863316 0.16390000 1.12531673
v 0.14263803 0.18890000 1.13230000
vt 0.03906250 0.96093750
vt 0.05468750 0.96093750
vt 0.05468750 0.50781250
vt 0.03906250 0.50781250
vn -0.67896034 0.70710678 -0.19751673
f 445/445/131 446/446/131 447/447/131
f 445/445/131 447/447/131 448/448/131
g arched_back_side
v 0.14190600 0.16390000 1.04531673
v 0.16591087 0.13890000 1.05230000
v 0.14263803 0.13890000 1.13230000
v 0.11863316 0.16390000 1.12531673
vt 0.03906250 0.96093750
vt 0.05468750 0.96093750
vt 0.05468750 0.50781250
vt 0.03906250 0.50781250
vn -0.67896034 -0.70710678 -0.19751673
f 449/449/132 450/450/132 451/451/132
f 449/449/132 451/451/132 452/452/132
g arched_back_cap0
v 0.16591087 0.13890000 1.05230000
v 0.16591087 0.18890000 1.05230000
v 0.18991575 0.16390000 1.05928327
vt 0.03906250 0.96093750
vt 0.05468750 0.96093750
vt 0.05468750 0.50781250
vn 0.27933084 0.00000000 -0.96019492
f 453/453/133 454/454/133 455/455/133
g arched_back_cap1
v 0.14263803 0.13890000 1.13230000
v 0.16664290 0.16390000 1.13928327
v 0.14263803 0.18890000 1.13230000
vt 0.03906250 0.96093750
vt 0.05468750 0.96093750
vt 0.05468750 0.50781250
vn -0.27933084 -0.00000000 0.96019492
f 456/456/134 457/457/134 458/458/134
g arched_back_cap0
v 0.16591087 0.13890000 1.05230000
v 0.14190600 0.16390000 1.04531673
v 0.16591087 0.18890000 1.05230000
vt 0.03906250 0.96093750
vt 0.05468750 0.96093750
vt 0.05468750 0.50781250
vn 0.27933084 0.00000000 -0.96019492
f 459/459/135 460/460/135 461/461/135
g arched_back_cap1
v 0.14263803 0.13890000 1.13230000
v 0.14263803 0.18890000 1.13230000
v 0.11863316 0.16390000 1.12531673
vt 0.03906250 0.96093750
vt 0.05468750 0.96093750
vt 0.05468750 0.50781250
vn -0.27933084 -0.00000000 0.96019492
f 462/462/136 463/463/136 464/464/136
g arched_back_side
v 0.14263803 0.13890000 1.13230000
v 0.15957510 0.16390000 1.15068846
v 0.09599251 0.16390000 1.20925253
v 0.07905544 0.13890000 1.19086406
vt 0.03906250 0.96093750
vt 0.05468750 0.96093750
vt 0.05468750 0.50781250
vt 0.03906250 0.50781250
vn 0.47905279 -0.70710678 0.52010424
f 465/465/137 466/466/137 467/467/137
f 465/465/137 467/467/137 468/468/137
g arched_back_side
v 0.15957510 0.16390000 1.15068846
v 0.14263803 0.18890000 1.13230000
v 0.07905544 0.18890000 1.19086406
v 0.09599251 0.16390000 1.20925253
vt 0.03906250 0.96093750
vt 0.05468750 0.96093750
vt 0.05468750 0.50781250
vt 0.03906250 0.50781250
vn 0.47905279 0.70710678 0.52010424
f 469/469/138 470/470/138 471/471/138
f 469/469/138 471/471/138 472/472/138
g arched_back_side
v 0.14263803 0.18890000 1.13230000
v 0.12570096 0.16390000 1.11391154
v 0.06211836 0.16390000 1.17247560
v 0.07905544 0.18890000 1.19086406
vt 0.03906250 0.96093750
vt 0.05468750 0.96093750
vt 0.05468750 0.50781250
vt 0.03906250 0.50781250
vn -0.47905279 0.70710678 -0.52010424
f 473/473/139 474/474/139 475/475/139
f 473/473/139 475/475/139 476/476/139
g arched_back_side
v 0.12570096 0.16390000 1.11391154
v 0.14263803 0.13890000 1.13230000
v 0.07905544 0.13890000 1.19086406
v 0.06211836 0.16390000 1.17247560
vt 0.03906250 0.96093750
vt 0.05468750 0.96093750
vt 0.05468750 0.50781250
vt 0.03906250 0.50781250
vn -0.47905279 -0.70710678 -0.52010424
f 477/477/140 478/478/140 479/479/140
f 477/477/140 479/479/140 480/480/140
g arched_back_cap0
v 0.14263803 0.13890000 1.13230000
v 0.14263803 0.18890000 1.13230000
v 0.15957510 0.16390000 1.15068846
vt 0.03906250 0.96093750
vt 0.05468750 0.96093750
vt 0.05468750 0.50781250
vn 0.73553848 0.00000000 -0.67748295
f 481/481/141 482/482/141 483/483/141
g arched_back_cap1
v 0.07905544 0.13890000 1.19086406
v 0.09599251 0.16390000 1.20925253
v 0.07905544 0.18890000 1.19086406
vt 0.03906250 0.96093750
vt 0.05468750 0.96093750
vt 0.05468750 0.50781250
vn -0.73553848 -0.00000000 0.67748295
f 484/484/142 485/485/142 486/486/142
g arched_back_cap0
v 0.14263803 0.13890000 1.13230000
v 0.12570096 0.16390000 1.11391154
v 0.14263803 0.18890000 1.13230000
vt 0.03906250 0.96093750
vt 0.05468750 0.96093750
vt 0.05468750 0.50781250
vn 0.73553848 0.00000000 -0.67748295
f 487/487/143 488/488/143 489/489/143
g arched_back_cap1
v 0.07905544 0.13890000 1.19086406
v 0.07905544 0.18890000 1.19086406
v 0.06211836 0.16390000 1.17247560
vt 0.03906250 0.96093750
vt 0.05468750 0.96093750
vt 0.05468750 0.50781250
vn -0.73553848 -0.00000000 0.67748295
f 490/490/144 491/491/144 492/492/144
g arched_back_side
v 0.08504570 0.16390000 1.21513579
v 0.07905544 0.18890000 1.19086406
v -0.00780000 0.18890000 1.21230000
v -0.00180973 0.16390000 1.23657173
vt 0.03906250 0.96093750
vt 0.05468750 0.96093750
vt 0.05468750 0.50781250
vt 0.03906250 0.50781250
vn 0.16943031 0.70710678 0.68650810
f 493/493/145 494/494/145 495/495/145
f 493/493/145 495/495/145 496/496/145
g arched_back_side
v 0.07905544 0.18890000 1.19086406
v 0.07306517 0.16390000 1.16659234
v -0.01379027 0.16390000 1.18802827
v -0.00780000 0.18890000 1.21230000
vt 0.03906250 0.96093750
vt 0.05468750 0.96093750
vt 0.05468750 0.50781250
vt 0.03906250 0.50781250
vn -0.16943031 0.70710678 -0.68650810
f 497/497/146 498/498/146 499/499/146
f 497/497/146 499/499/146 500/500/146
g arched_back_side
v 0.07306517 0.16390000 1.16659234
v 0.07905544 0.13890000 1.19086406
v -0.00780000 0.13890000 1.21230000
v -0.01379027 0.16390000 1.18802827
vt 0.03906250 0.96093750
vt 0.05468750 0.96093750
vt 0.05468750 0.50781250
vt 0.03906250 0.50781250
vn -0.16943031 -0.70710678 -0.68650810
f 501/501/147 502/502/147 503/503/147
f 501/501/147 503/503/147 504/504/147
g arched_back_side
v 0.07905544 0.13890000 1.19086406
v 0.08504570 0.16390000 1.21513579
v -0.00180973 0.16390000 1.23657173
v -0.00780000 0.13890000 1.21230000
vt 0.03906250 0.96093750
vt 0.05468750 0.96093750
vt 0.05468750 0.50781250
vt 0.03906250 0.50781250
vn 0.16943031 -0.70710678 0.68650810
f 505/505/148 506/506/148 507/507/148
f 505/505/148 507/507/148 508/508/148
g arched_back_cap0
v 0.08504570 0.16390000 1.21513579
v 0.07306517 0.16390000 1.16659234
v 0.07905544 0.18890000 1.19086406
vt 0.03906250 0.96093750
vt 0.05468750 0.96093750
vt 0.05468750 0.50781250
vn 0.97086907 -0.00000000 -0.23961064
f 509/509/149 510/510/149 511/511/149
g arched_back_cap1
v -0.00180973 0.16390000 1.23657173
v -0.00780000 0.18890000 1.21230000
v -0.01379027 0.16390000 1.18802827
vt 0.03906250 0.96093750
vt 0.05468750 0.96093750
vt 0.05468750 0.50781250
vn -0.97086907 0.00000000 0.23961064
f 512/512/150 513/513/150 514/514/150
g arched_back_cap0
v 0.08504570 0.16390000 1.21513579
v 0.07905544 0.13890000 1.19086406
v 0.07306517 0.16390000 1.16659234
vt 0.03906250 0.96093750
vt 0.05468750 0.96093750
vt 0.05468750 0.50781250
vn 0.97086907 -0.00000000 -0.23961064
f 515/515/151 516/516/151 517/517/151
g arched_back_cap1
v -0.00180973 0.16390000 1.23657173
v -0.01379027 0.16390000 1.18802827
v -0.00780000 0.13890000 1.21230000
vt 0.03906250 0.96093750
vt 0.05468750 0.96093750
vt 0.05468750 0.50781250
vn -0.97086907 -0.00000000 0.23961064
f 518/518/152 519/519/152 520/520/152
g arched_back_side
v -0.01379027 0.16390000 1.23657173
v -0.00780000 0.18890000 1.21230000
v -0.09465544 0.18890000 1.19086406
v -0.10064570 0.16390000 1.21513579
vt 0.03906250 0.96093750
vt 0.05468750 0.96093750
vt 0.05468750 0.50781250
vt 0.03906250 0.50781250
vn -0.16943031 0.70710678 0.68650810
f 521/521/153 522/522/153 523/523/153
f 521/521/153 523/523/153 524/524/153
g arched_back_side
v -0.00780000 0.18890000 1.21230000
v -0.00180973 0.16390000 1.18802827
v -0.08866517 0.16390000 1.16659234
v -0.09465544 0.18890000 1.19086406
vt 0.03906250 0.96093750
vt 0.05468750 0.96093750
vt 0.05468750 0.50781250
vt 0.03906250 0.50781250
vn 0.16943031 0.70710678 -0.68650810
f 525/525/154 526/526/154 527/527/154
f 525/525/154 527/527/154 528/528/154
g arched_back_side
v -0.00180973 0.16390000 1.18802827
v -0.00780000 0.13890000 1.21230000
v -0.09465544 0.13890000 1.19086406
v -0.08866517 0.16390000 1.16659234
vt 0.03906250 0.96093750
vt 0.05468750 0.96093750
vt 0.05468750 0.50781250
vt 0.03906250 0.50781250
vn 0.16943031 -0.70710678 -0.68650810
f 529/529/155 530/530/155 531/531/155
f 529/529/155 531/531/155 532/532/155
g arched_back_side
v -0.00780000 0.13890000 1.21230000
v -0.01379027 0.16390000 1.23657173
v -0.10064570 0.16390000 1.21513579
v -0.09465544 0.13890000 1.19086406
vt 0.03906250 0.96093750
vt 0.05468750 0.96093750
vt 0.05468750 0.50781250
vt 0.03906250 0.50781250
vn -0.16943031 -0.70710678 0.68650810
f 533/533/156 534/534/156 535/535/156
f 533/533/156 535/535/156 536/536/156
g arched_back_cap0
v -0.01379027 0.16390000 1.23657173
v -0.00180973 0.16390000 1.18802827
v -0.00780000 0.18890000 1.21230000
vt 0.03906250 0.96093750
vt 0.05468750 0.96093750
vt 0.05468750 0.50781250
vn 0.97086907 -0.00000000 0.23961064
f 537/537/157 538/538/157 539/539/157
g arched_back_cap1
v -0.10064570 0.16390000 1.21513579
v -0.09465544 0.18890000 1.19086406
v -0.08866517 0.16390000 1.16659234
vt 0.03906250 0.96093750
vt 0.05468750 0.96093750
vt 0.05468750 0.50781250
vn -0.97086907 -0.00000000 -0.23961064
f 540/540/158 541/541/158 542/542/158
g arched_back_cap0
v -0.01379027 0.16390000 1.23657173
v -0.00780000 0.13890000 1.21230000
v -0.00180973 0.16390000 1.18802827
vt 0.03906250 0.96093750
vt 0.05468750 0.96093750
vt 0.05468750 0.50781250
vn 0.97086907 0.00000000 0.23961064
f 543/543/159 544/544/159 545/545/159
g arched_back_cap1
v -0.10064570 0.16390000 1.21513579
v -0.08866517 0.16390000 1.16659234
v -0.09465544 0.13890000 1.19086406
vt 0.03906250 0.96093750
vt 0.05468750 0.96093750
vt 0.05468750 0.50781250
vn -0.97086907 -0.00000000 -0.23961064
f 546/546/160 547/547/160 548/548/160
g arched_back_side
v -0.09465544 0.18890000 1.19086406
v -0.07771836 0.16390000 1.17247560
v -0.14130096 0.16390000 1.11391154
v -0.15823803 0.18890000 1.13230000
vt 0.03906250 0.96093750
vt 0.05468750 0.96093750
vt 0.05468750 0.50781250
vt 0.03906250 0.50781250
vn 0.47905279 0.70710678 -0.52010424
f 549/549/161 550/550/161 551/551/161
f 549/549/161 551/551/161 552/552/161
g arched_back_side
v -0.07771836 0.16390000 1.17247560
v -0.09465544 0.13890000 1.19086406
v -0.15823803 0.13890000 1.13230000
v -0.14130096 0.16390000 1.11391154
vt 0.03906250 0.96093750
vt 0.05468750 0.96093750
vt 0.05468750 0.50781250
vt 0.03906250 0.50781250
vn 0.47905279 -0.70710678 -0.52010424
f 553/553/162 554/554/162 555/555/162
f 553/553/162 555/555/162 556/556/162
g arched_back_side
v -0.09465544 0.13890000 1.19086406
v -0.11159251 0.16390000 1.20925253
v -0.17517510 0.16390000 1.15068846
v -0.15823803 0.13890000 1.13230000
vt 0.03906250 0.96093750
vt 0.05468750 0.96093750
vt 0.05468750 0.50781250
vt 0.03906250 0.50781250
vn -0.47905279 -0.70710678 0.52010424
f 557/557/163 558/558/163 559/559/163
f 557/557/163 559/559/163 560/560/163
g arched_back_side
v -0.11159251 0.16390000 1.20925253
v -0.09465544 0.18890000 1.19086406
v -0.15823803 0.18890000 1.13230000
v -0.17517510 0.16390000 1.15068846
vt 0.03906250 0.96093750
vt 0.05468750 0.96093750
vt 0.05468750 0.50781250
vt 0.03906250 0.50781250
vn -0.47905279 0.70710678 0.52010424
f 561/561/164 562/562/164 563/563/164
f 561/561/164 563/563/164 564/564/164
g arched_back_cap0
v -0.09465544 0.18890000 1.19086406
v -0.09465544 0.13890000 1.19086406
v -0.07771836 0.16390000 1.17247560
vt 0.03906250 0.96093750
vt 0.05468750 0.96093750
vt 0.05468750 0.50781250
vn 0.73553848 -0.00000000 0.67748295
f 565/565/165 566/566/165 567/567/165
g arched_back_cap1
v -0.15823803 0.18890000 1.13230000
v -0.14130096 0.16390000 1.11391154
v -0.15823803 0.13890000 1.13230000
vt 0.03906250 0.96093750
vt 0.05468750 0.96093750
vt 0.05468750 0.50781250
vn -0.73553848 -0.00000000 -0.67748295
f 568/568/166 569/569/166 570/570/166
g arched_back_cap0
v -0.09465544 0.18890000 1.19086406
v -0.11159251 0.16390000 1.20925253
v -0.09465544 0.13890000 1.19086406
vt 0.03906250 0.96093750
vt 0.05468750 0.96093750
vt 0.05468750 0.50781250
vn 0.73553848 -0.00000000 0.67748295
f 571/571/167 572/572/167 573/573/167
g arched_back_cap1
v -0.15823803 0.18890000 1.13230000
v -0.15823803 0.13890000 1.13230000
v -0.17517510 0.16390000 1.15068846
vt 0.03906250 0.96093750
vt 0.05468750 0.96093750
vt 0.05468750 0.50781250
vn -0.73553848 -0.00000000 -0.67748295
f 574/574/168 575/575/168 576/576/168
g arched_back_side
v -0.15823803 0.18890000 1.13230000
v -0.13423316 0.16390000 1.12531673
v -0.15750600 0.16390000 1.04531673
v -0.18151087 0.18890000 1.05230000
vt 0.03906250 0.96093750
vt 0.05468750 0.96093750
vt 0.05468750 0.50781250
vt 0.03906250 0.50781250
vn 0.67896034 0.70710678 -0.19751673
f 577/577/169 578/578/169 579/579/169
f 577/577/169 579/579/169 580/580/169
g arched_back_side
v -0.13423316 0.16390000 1.12531673
v -0.15823803 0.13890000 1.13230000
v -0.18151087 0.13890000 1.05230000
v -0.15750600 0.16390000 1.04531673
vt 0.03906250 0.96093750
vt 0.05468750 0.96093750
vt 0.05468750 0.50781250
vt 0.03906250 0.50781250
vn 0.67896034 -0.70710678 -0.19751673
f 581/581/170 582/582/170 583/583/170
f 581/581/170 583/583/170 584/584/170
g arched_back_side
v -0.15823803 0.13890000 1.13230000
v -0.18224290 0.16390000 1.13928327
v -0.20551575 0.16390000 1.05928327
v -0.18151087 0.13890000 1.05230000
vt 0.03906250 0.96093750
vt 0.05468750 0.96093750
vt 0.05468750 0.50781250
vt 0.03906250 0.50781250
vn -0.67896034 -0.70710678 0.19751673
f 585/585/171 586/586/171 587/587/171
f 585/585/171 587/587/171 588/588/171
g arched_back_side
v -0.18224290 0.16390000 1.13928327
v -0.15823803 0.18890000 1.13230000
v -0.18151087 0.18890000 1.05230000
v -0.20551575 0.16390000 1.05928327
vt 0.03906250 0.96093750
vt 0.05468750 0.96093750
vt 0.05468750 0.50781250
vt 0.03906250 0.50781250
vn -0.67896034 0.70710678 0.19751673
f 589/589/172 590/590/172 591/591/172
f 589/589/172 591/591/172 592/592/172
g arched_back_cap0
v -0.15823803 0.18890000 1.13230000
v -0.15823803 0.13890000 1.13230000
v -0.13423316 0.16390000 1.12531673
vt 0.03906250 0.96093750
vt 0.05468750 0.96093750
vt 0.05468750 0.50781250
vn 0.27933084 -0.00000000 0.96019492
f 593/593/173 594/594/173 595/595/173
g arched_back_cap1
v -0.18151087 0.18890000 1.05230000
v -0.15750600 0.16390000 1.04531673
v -0.18151087 0.13890000 1.05230000
vt 0.03906250 0.96093750
vt 0.05468750 0.96093750
vt 0.05468750 0.50781250
vn -0.27933084 -0.00000000 -0.96019492
f 596/596/174 597/597/174 598/598/174
g arched_back_cap0
v -0.15823803 0.18890000 1.13230000
v -0.18224290 0.16390000 1.13928327
v -0.15823803 0.13890000 1.13230000
vt 0.03906250 0.96093750
vt 0.05468750 0.96093750
vt 0.05468750 0.50781250
vn 0.27933084 -0.00000000 0.96019492
f 599/599/175 600/600/175 601/601/175
g arched_back_cap1
v -0.18151087 0.18890000 1.05230000
v -0.18151087 0.13890000 1.05230000
v -0.20551575 0.16390000 1.05928327
vt 0.03906250 0.96093750
vt 0.05468750 0.96093750
vt 0.05468750 0.50781250
vn -0.27933084 -0.00000000 -0.96019492
f 602/602/176 603/603/176 604/604/176
