# G016 original low-poly geometry; continuous native face pixels; Z-up tile units
mtllib pz_g016_shop_gas2go_low_shelves.mtl
o pz_g016_shop_gas2go_low_shelves
usemtl Native_Surface
g physical_component_0_z-
v -0.504687500 -0.500000000 0.000000000
v -0.504687500 -0.460000000 0.000000000
v 0.504687500 -0.460000000 0.000000000
v 0.504687500 -0.500000000 0.000000000
vt 0.769531250 0.561035156
vt 0.855468750 0.561035156
vt 0.855468750 0.550292969
vt 0.769531250 0.550292969
vn 0.000000000 0.000000000 -1.000000000
f 1/1/1 2/2/1 3/3/1
f 1/1/1 3/3/1 4/4/1
g physical_component_0_z+
v -0.504687500 -0.500000000 0.861148738
v 0.504687500 -0.500000000 0.861148738
v 0.504687500 -0.460000000 0.861148738
v -0.504687500 -0.460000000 0.861148738
vt 0.019531250 0.534667969
vt 0.730468750 0.534667969
vt 0.730468750 0.527832031
vt 0.019531250 0.527832031
vn 0.000000000 0.000000000 1.000000000
f 5/5/2 6/6/2 7/7/2
f 5/5/2 7/7/2 8/8/2
g physical_component_0_y-
v -0.504687500 -0.500000000 0.000000000
v 0.504687500 -0.500000000 0.000000000
v 0.504687500 -0.500000000 0.861148738
v -0.504687500 -0.500000000 0.861148738
vt 0.769531250 0.561035156
vt 0.855468750 0.561035156
vt 0.855468750 0.550292969
vt 0.769531250 0.550292969
vn 0.000000000 -1.000000000 0.000000000
f 9/9/3 10/10/3 11/11/3
f 9/9/3 11/11/3 12/12/3
g physical_component_0_x+
v 0.504687500 -0.500000000 0.000000000
v 0.504687500 -0.460000000 0.000000000
v 0.504687500 -0.460000000 0.861148738
v 0.504687500 -0.500000000 0.861148738
vt 0.019531250 0.821777344
vt 0.074218750 0.821777344
vt 0.074218750 0.738769531
vt 0.019531250 0.738769531
vn 1.000000000 0.000000000 0.000000000
f 13/13/4 14/14/4 15/15/4
f 13/13/4 15/15/4 16/16/4
g physical_component_0_y+
v 0.504687500 -0.460000000 0.000000000
v -0.504687500 -0.460000000 0.000000000
v -0.504687500 -0.460000000 0.861148738
v 0.504687500 -0.460000000 0.861148738
vt 0.019531250 0.561035156
vt 0.730468750 0.561035156
vt 0.730468750 0.539550781
vt 0.019531250 0.539550781
vn 0.000000000 1.000000000 0.000000000
f 17/17/5 18/18/5 19/19/5
f 17/17/5 19/19/5 20/20/5
g physical_component_0_x-
v -0.504687500 -0.460000000 0.000000000
v -0.504687500 -0.500000000 0.000000000
v -0.504687500 -0.500000000 0.861148738
v -0.504687500 -0.460000000 0.861148738
vt 0.113281250 0.821777344
vt 0.167968750 0.821777344
vt 0.167968750 0.738769531
vt 0.113281250 0.738769531
vn -1.000000000 0.000000000 0.000000000
f 21/21/6 22/22/6 23/23/6
f 21/21/6 23/23/6 24/24/6
g physical_component_1_z-
v -0.504687500 -0.500000000 0.000000000
v -0.504687500 0.100000000 0.000000000
v -0.464687500 0.100000000 0.000000000
v -0.464687500 -0.500000000 0.000000000
vt 0.769531250 0.561035156
vt 0.855468750 0.561035156
vt 0.855468750 0.550292969
vt 0.769531250 0.550292969
vn 0.000000000 0.000000000 -1.000000000
f 25/25/7 26/26/7 27/27/7
f 25/25/7 27/27/7 28/28/7
g physical_component_1_z+
v -0.504687500 -0.500000000 0.861148738
v -0.464687500 -0.500000000 0.861148738
v -0.464687500 0.100000000 0.861148738
v -0.504687500 0.100000000 0.861148738
vt 0.769531250 0.618652344
vt 0.824218750 0.618652344
vt 0.824218750 0.565917969
vt 0.769531250 0.565917969
vn 0.000000000 0.000000000 1.000000000
f 29/29/8 30/30/8 31/31/8
f 29/29/8 31/31/8 32/32/8
g physical_component_1_y-
v -0.504687500 -0.500000000 0.000000000
v -0.464687500 -0.500000000 0.000000000
v -0.464687500 -0.500000000 0.861148738
v -0.504687500 -0.500000000 0.861148738
vt 0.769531250 0.561035156
vt 0.855468750 0.561035156
vt 0.855468750 0.550292969
vt 0.769531250 0.550292969
vn 0.000000000 -1.000000000 0.000000000
f 33/33/9 34/34/9 35/35/9
f 33/33/9 35/35/9 36/36/9
g physical_component_1_x+
v -0.464687500 -0.500000000 0.000000000
v -0.464687500 0.100000000 0.000000000
v -0.464687500 0.100000000 0.861148738
v -0.464687500 -0.500000000 0.861148738
vt 0.019531250 0.997558594
vt 0.441406250 0.997558594
vt 0.441406250 0.914550781
vt 0.019531250 0.914550781
vn 1.000000000 0.000000000 0.000000000
f 37/37/10 38/38/10 39/39/10
f 37/37/10 39/39/10 40/40/10
g physical_component_1_y+
v -0.464687500 0.100000000 0.000000000
v -0.504687500 0.100000000 0.000000000
v -0.504687500 0.100000000 0.861148738
v -0.464687500 0.100000000 0.861148738
vt 0.207031250 0.821777344
vt 0.261718750 0.821777344
vt 0.261718750 0.738769531
vt 0.207031250 0.738769531
vn 0.000000000 1.000000000 0.000000000
f 41/41/11 42/42/11 43/43/11
f 41/41/11 43/43/11 44/44/11
g physical_component_1_x-
v -0.504687500 0.100000000 0.000000000
v -0.504687500 -0.500000000 0.000000000
v -0.504687500 -0.500000000 0.861148738
v -0.504687500 0.100000000 0.861148738
vt 0.480468750 0.997558594
vt 0.902343750 0.997558594
vt 0.902343750 0.914550781
vt 0.480468750 0.914550781
vn -1.000000000 0.000000000 0.000000000
f 45/45/12 46/46/12 47/47/12
f 45/45/12 47/47/12 48/48/12
g physical_component_2_z-
v 0.464687500 -0.500000000 0.000000000
v 0.464687500 0.100000000 0.000000000
v 0.504687500 0.100000000 0.000000000
v 0.504687500 -0.500000000 0.000000000
vt 0.769531250 0.561035156
vt 0.855468750 0.561035156
vt 0.855468750 0.550292969
vt 0.769531250 0.550292969
vn 0.000000000 0.000000000 -1.000000000
f 49/49/13 50/50/13 51/51/13
f 49/49/13 51/51/13 52/52/13
g physical_component_2_z+
v 0.464687500 -0.500000000 0.861148738
v 0.504687500 -0.500000000 0.861148738
v 0.504687500 0.100000000 0.861148738
v 0.464687500 0.100000000 0.861148738
vt 0.863281250 0.618652344
vt 0.917968750 0.618652344
vt 0.917968750 0.565917969
vt 0.863281250 0.565917969
vn 0.000000000 0.000000000 1.000000000
f 53/53/14 54/54/14 55/55/14
f 53/53/14 55/55/14 56/56/14
g physical_component_2_y-
v 0.464687500 -0.500000000 0.000000000
v 0.504687500 -0.500000000 0.000000000
v 0.504687500 -0.500000000 0.861148738
v 0.464687500 -0.500000000 0.861148738
vt 0.769531250 0.561035156
vt 0.855468750 0.561035156
vt 0.855468750 0.550292969
vt 0.769531250 0.550292969
vn 0.000000000 -1.000000000 0.000000000
f 57/57/15 58/58/15 59/59/15
f 57/57/15 59/59/15 60/60/15
g physical_component_2_x+
v 0.504687500 -0.500000000 0.000000000
v 0.504687500 0.100000000 0.000000000
v 0.504687500 0.100000000 0.861148738
v 0.504687500 -0.500000000 0.861148738
vt 0.019531250 0.909667969
vt 0.441406250 0.909667969
vt 0.441406250 0.826660156
vt 0.019531250 0.826660156
vn 1.000000000 0.000000000 0.000000000
f 61/61/16 62/62/16 63/63/16
f 61/61/16 63/63/16 64/64/16
g physical_component_2_y+
v 0.504687500 0.100000000 0.000000000
v 0.464687500 0.100000000 0.000000000
v 0.464687500 0.100000000 0.861148738
v 0.504687500 0.100000000 0.861148738
vt 0.300781250 0.821777344
vt 0.355468750 0.821777344
vt 0.355468750 0.738769531
vt 0.300781250 0.738769531
vn 0.000000000 1.000000000 0.000000000
f 65/65/17 66/66/17 67/67/17
f 65/65/17 67/67/17 68/68/17
g physical_component_2_x-
v 0.464687500 0.100000000 0.000000000
v 0.464687500 -0.500000000 0.000000000
v 0.464687500 -0.500000000 0.861148738
v 0.464687500 0.100000000 0.861148738
vt 0.480468750 0.909667969
vt 0.902343750 0.909667969
vt 0.902343750 0.826660156
vt 0.480468750 0.826660156
vn -1.000000000 0.000000000 0.000000000
f 69/69/18 70/70/18 71/71/18
f 69/69/18 71/71/18 72/72/18
g physical_component_3_z-
v -0.504687500 -0.500000000 0.000000000
v -0.504687500 0.100000000 0.000000000
v 0.504687500 0.100000000 0.000000000
v 0.504687500 -0.500000000 0.000000000
vt 0.769531250 0.561035156
vt 0.855468750 0.561035156
vt 0.855468750 0.550292969
vt 0.769531250 0.550292969
vn 0.000000000 0.000000000 -1.000000000
f 73/73/19 74/74/19 75/75/19
f 73/73/19 75/75/19 76/76/19
g physical_component_3_z+
v -0.504687500 -0.500000000 0.060000000
v 0.504687500 -0.500000000 0.060000000
v 0.504687500 0.100000000 0.060000000
v -0.504687500 0.100000000 0.060000000
vt 0.019531250 0.733886719
vt 0.730468750 0.733886719
vt 0.730468750 0.681152344
vt 0.019531250 0.681152344
vn 0.000000000 0.000000000 1.000000000
f 77/77/20 78/78/20 79/79/20
f 77/77/20 79/79/20 80/80/20
g physical_component_3_y-
v -0.504687500 -0.500000000 0.000000000
v 0.504687500 -0.500000000 0.000000000
v 0.504687500 -0.500000000 0.060000000
v -0.504687500 -0.500000000 0.060000000
vt 0.769531250 0.561035156
vt 0.855468750 0.561035156
vt 0.855468750 0.550292969
vt 0.769531250 0.550292969
vn 0.000000000 -1.000000000 0.000000000
f 81/81/21 82/82/21 83/83/21
f 81/81/21 83/83/21 84/84/21
g physical_component_3_x+
v 0.504687500 -0.500000000 0.000000000
v 0.504687500 0.100000000 0.000000000
v 0.504687500 0.100000000 0.060000000
v 0.504687500 -0.500000000 0.060000000
vt 0.019531250 0.487792969
vt 0.441406250 0.487792969
vt 0.441406250 0.480957031
vt 0.019531250 0.480957031
vn 1.000000000 0.000000000 0.000000000
f 85/85/22 86/86/22 87/87/22
f 85/85/22 87/87/22 88/88/22
g physical_component_3_y+
v 0.504687500 0.100000000 0.000000000
v -0.504687500 0.100000000 0.000000000
v -0.504687500 0.100000000 0.060000000
v 0.504687500 0.100000000 0.060000000
vt 0.019531250 0.522949219
vt 0.730468750 0.522949219
vt 0.730468750 0.516113281
vt 0.019531250 0.516113281
vn 0.000000000 1.000000000 0.000000000
f 89/89/23 90/90/23 91/91/23
f 89/89/23 91/91/23 92/92/23
g physical_component_3_x-
v -0.504687500 0.100000000 0.000000000
v -0.504687500 -0.500000000 0.000000000
v -0.504687500 -0.500000000 0.060000000
v -0.504687500 0.100000000 0.060000000
vt 0.480468750 0.487792969
vt 0.902343750 0.487792969
vt 0.902343750 0.480957031
vt 0.480468750 0.480957031
vn -1.000000000 0.000000000 0.000000000
f 93/93/24 94/94/24 95/95/24
f 93/93/24 95/95/24 96/96/24
g physical_component_4_z-
v -0.504687500 -0.500000000 0.361682470
v -0.504687500 0.100000000 0.361682470
v 0.504687500 0.100000000 0.361682470
v 0.504687500 -0.500000000 0.361682470
vt 0.769531250 0.561035156
vt 0.855468750 0.561035156
vt 0.855468750 0.550292969
vt 0.769531250 0.550292969
vn 0.000000000 0.000000000 -1.000000000
f 97/97/25 98/98/25 99/99/25
f 97/97/25 99/99/25 100/100/25
g physical_component_4_z+
v -0.504687500 -0.500000000 0.406682470
v 0.504687500 -0.500000000 0.406682470
v 0.504687500 0.100000000 0.406682470
v -0.504687500 0.100000000 0.406682470
vt 0.019531250 0.676269531
vt 0.730468750 0.676269531
vt 0.730468750 0.623535156
vt 0.019531250 0.623535156
vn 0.000000000 0.000000000 1.000000000
f 101/101/26 102/102/26 103/103/26
f 101/101/26 103/103/26 104/104/26
g physical_component_4_y-
v -0.504687500 -0.500000000 0.361682470
v 0.504687500 -0.500000000 0.361682470
v 0.504687500 -0.500000000 0.406682470
v -0.504687500 -0.500000000 0.406682470
vt 0.769531250 0.561035156
vt 0.855468750 0.561035156
vt 0.855468750 0.550292969
vt 0.769531250 0.550292969
vn 0.000000000 -1.000000000 0.000000000
f 105/105/27 106/106/27 107/107/27
f 105/105/27 107/107/27 108/108/27
g physical_component_4_x+
v 0.504687500 -0.500000000 0.361682470
v 0.504687500 0.100000000 0.361682470
v 0.504687500 0.100000000 0.406682470
v 0.504687500 -0.500000000 0.406682470
vt 0.019531250 0.476074219
vt 0.441406250 0.476074219
vt 0.441406250 0.469238281
vt 0.019531250 0.469238281
vn 1.000000000 0.000000000 0.000000000
f 109/109/28 110/110/28 111/111/28
f 109/109/28 111/111/28 112/112/28
g physical_component_4_y+
v 0.504687500 0.100000000 0.361682470
v -0.504687500 0.100000000 0.361682470
v -0.504687500 0.100000000 0.406682470
v 0.504687500 0.100000000 0.406682470
vt 0.019531250 0.511230469
vt 0.730468750 0.511230469
vt 0.730468750 0.504394531
vt 0.019531250 0.504394531
vn 0.000000000 1.000000000 0.000000000
f 113/113/29 114/114/29 115/115/29
f 113/113/29 115/115/29 116/116/29
g physical_component_4_x-
v -0.504687500 0.100000000 0.361682470
v -0.504687500 -0.500000000 0.361682470
v -0.504687500 -0.500000000 0.406682470
v -0.504687500 0.100000000 0.406682470
vt 0.480468750 0.476074219
vt 0.902343750 0.476074219
vt 0.902343750 0.469238281
vt 0.480468750 0.469238281
vn -1.000000000 0.000000000 0.000000000
f 117/117/30 118/118/30 119/119/30
f 117/117/30 119/119/30 120/120/30
g physical_component_5_z-
v -0.504687500 -0.500000000 0.801148738
v -0.504687500 0.100000000 0.801148738
v 0.504687500 0.100000000 0.801148738
v 0.504687500 -0.500000000 0.801148738
vt 0.769531250 0.561035156
vt 0.855468750 0.561035156
vt 0.855468750 0.550292969
vt 0.769531250 0.550292969
vn 0.000000000 0.000000000 -1.000000000
f 121/121/31 122/122/31 123/123/31
f 121/121/31 123/123/31 124/124/31
g physical_component_5_z+
v -0.504687500 -0.500000000 0.861148738
v 0.504687500 -0.500000000 0.861148738
v 0.504687500 0.100000000 0.861148738
v -0.504687500 0.100000000 0.861148738
vt 0.019531250 0.618652344
vt 0.730468750 0.618652344
vt 0.730468750 0.565917969
vt 0.019531250 0.565917969
vn 0.000000000 0.000000000 1.000000000
f 125/125/32 126/126/32 127/127/32
f 125/125/32 127/127/32 128/128/32
g physical_component_5_y-
v -0.504687500 -0.500000000 0.801148738
v 0.504687500 -0.500000000 0.801148738
v 0.504687500 -0.500000000 0.861148738
v -0.504687500 -0.500000000 0.861148738
vt 0.769531250 0.561035156
vt 0.855468750 0.561035156
vt 0.855468750 0.550292969
vt 0.769531250 0.550292969
vn 0.000000000 -1.000000000 0.000000000
f 129/129/33 130/130/33 131/131/33
f 129/129/33 131/131/33 132/132/33
g physical_component_5_x+
v 0.504687500 -0.500000000 0.801148738
v 0.504687500 0.100000000 0.801148738
v 0.504687500 0.100000000 0.861148738
v 0.504687500 -0.500000000 0.861148738
vt 0.019531250 0.464355469
vt 0.441406250 0.464355469
vt 0.441406250 0.457519531
vt 0.019531250 0.457519531
vn 1.000000000 0.000000000 0.000000000
f 133/133/34 134/134/34 135/135/34
f 133/133/34 135/135/34 136/136/34
g physical_component_5_y+
v 0.504687500 0.100000000 0.801148738
v -0.504687500 0.100000000 0.801148738
v -0.504687500 0.100000000 0.861148738
v 0.504687500 0.100000000 0.861148738
vt 0.019531250 0.499511719
vt 0.730468750 0.499511719
vt 0.730468750 0.492675781
vt 0.019531250 0.492675781
vn 0.000000000 1.000000000 0.000000000
f 137/137/35 138/138/35 139/139/35
f 137/137/35 139/139/35 140/140/35
g physical_component_5_x-
v -0.504687500 0.100000000 0.801148738
v -0.504687500 -0.500000000 0.801148738
v -0.504687500 -0.500000000 0.861148738
v -0.504687500 0.100000000 0.861148738
vt 0.480468750 0.464355469
vt 0.902343750 0.464355469
vt 0.902343750 0.457519531
vt 0.480468750 0.457519531
vn -1.000000000 0.000000000 0.000000000
f 141/141/36 142/142/36 143/143/36
f 141/141/36 143/143/36 144/144/36
