# Original G022 Long; Z up; tile units
mtllib pz_g022_location_shop_generic_01_long_shelves_part0.mtl
o pz_g022_location_shop_generic_01_long_shelves_part0
usemtl NativeSurface
g left_end_bottom
v 0.20000000 0.45000000 0.00000000
v 0.20000000 -0.40000000 0.00000000
v 0.08000000 -0.40000000 0.00000000
v 0.08000000 0.45000000 0.00000000
vt 0.74218750 0.17285156
vt 0.82031250 0.17285156
vt 0.82031250 0.16308594
vt 0.74218750 0.16308594
vn -0.00000000 -0.00000000 -1.00000000
f 1/1/1 2/2/1 3/3/1
f 1/1/1 3/3/1 4/4/1
g left_end_top
v 0.20000000 0.45000000 1.13000000
v 0.08000000 0.45000000 1.13000000
v 0.08000000 -0.40000000 1.13000000
v 0.20000000 -0.40000000 1.13000000
vt 0.17968750 0.45605469
vt 0.28906250 0.45605469
vt 0.28906250 0.34082031
vt 0.17968750 0.34082031
vn -0.00000000 -0.00000000 1.00000000
f 5/5/2 6/6/2 7/7/2
f 5/5/2 7/7/2 8/8/2
g left_end_front
v 0.20000000 0.45000000 0.00000000
v 0.08000000 0.45000000 0.00000000
v 0.08000000 0.45000000 1.13000000
v 0.20000000 0.45000000 1.13000000
vt 0.74218750 0.17285156
vt 0.82031250 0.17285156
vt 0.82031250 0.16308594
vt 0.74218750 0.16308594
vn -0.00000000 1.00000000 0.00000000
f 9/9/3 10/10/3 11/11/3
f 9/9/3 11/11/3 12/12/3
g left_end_right
v 0.08000000 0.45000000 0.00000000
v 0.08000000 -0.40000000 0.00000000
v 0.08000000 -0.40000000 1.13000000
v 0.08000000 0.45000000 1.13000000
vt 0.03906250 0.99511719
vt 0.96093750 0.99511719
vt 0.96093750 0.82519531
vt 0.03906250 0.82519531
vn -1.00000000 -0.00000000 0.00000000
f 13/13/4 14/14/4 15/15/4
f 13/13/4 15/15/4 16/16/4
g left_end_rear
v 0.08000000 -0.40000000 0.00000000
v 0.20000000 -0.40000000 0.00000000
v 0.20000000 -0.40000000 1.13000000
v 0.08000000 -0.40000000 1.13000000
vt 0.03906250 0.63574219
vt 0.14843750 0.63574219
vt 0.14843750 0.46582031
vt 0.03906250 0.46582031
vn -0.00000000 -1.00000000 0.00000000
f 17/17/5 18/18/5 19/19/5
f 17/17/5 19/19/5 20/20/5
g left_end_left
v 0.20000000 -0.40000000 0.00000000
v 0.20000000 0.45000000 0.00000000
v 0.20000000 0.45000000 1.13000000
v 0.20000000 -0.40000000 1.13000000
vt 0.03906250 0.81542969
vt 0.96093750 0.81542969
vt 0.96093750 0.64550781
vt 0.03906250 0.64550781
vn 1.00000000 -0.00000000 0.00000000
f 21/21/6 22/22/6 23/23/6
f 21/21/6 23/23/6 24/24/6
g rear_panel_bottom
v 0.08000000 0.12000000 0.00000000
v 0.08000000 0.04000000 0.00000000
v -0.50000000 0.04000000 0.00000000
v -0.50000000 0.12000000 0.00000000
vt 0.74218750 0.17285156
vt 0.82031250 0.17285156
vt 0.82031250 0.16308594
vt 0.74218750 0.16308594
vn -0.00000000 -0.00000000 -1.00000000
f 25/25/7 26/26/7 27/27/7
f 25/25/7 27/27/7 28/28/7
g rear_panel_top
v 0.08000000 0.12000000 1.06000000
v -0.50000000 0.12000000 1.06000000
v -0.50000000 0.04000000 1.06000000
v 0.08000000 0.04000000 1.06000000
vt 0.03906250 0.11621094
vt 0.66406250 0.11621094
vt 0.66406250 0.10839844
vt 0.03906250 0.10839844
vn -0.00000000 -0.00000000 1.00000000
f 29/29/8 30/30/8 31/31/8
f 29/29/8 31/31/8 32/32/8
g rear_panel_front
v 0.08000000 0.12000000 0.00000000
v -0.50000000 0.12000000 0.00000000
v -0.50000000 0.12000000 1.06000000
v 0.08000000 0.12000000 1.06000000
vt 0.74218750 0.17285156
vt 0.82031250 0.17285156
vt 0.82031250 0.16308594
vt 0.74218750 0.16308594
vn -0.00000000 1.00000000 0.00000000
f 33/33/9 34/34/9 35/35/9
f 33/33/9 35/35/9 36/36/9
g rear_panel_rear
v -0.50000000 0.04000000 0.00000000
v 0.08000000 0.04000000 0.00000000
v 0.08000000 0.04000000 1.06000000
v -0.50000000 0.04000000 1.06000000
vt 0.22656250 0.63574219
vt 0.85156250 0.63574219
vt 0.85156250 0.47558594
vt 0.22656250 0.47558594
vn -0.00000000 -1.00000000 0.00000000
f 37/37/10 38/38/10 39/39/10
f 37/37/10 39/39/10 40/40/10
g rear_panel_left
v 0.08000000 0.04000000 0.00000000
v 0.08000000 0.12000000 0.00000000
v 0.08000000 0.12000000 1.06000000
v 0.08000000 0.04000000 1.06000000
vt 0.03906250 0.45605469
vt 0.10156250 0.45605469
vt 0.10156250 0.29589844
vt 0.03906250 0.29589844
vn 1.00000000 -0.00000000 0.00000000
f 41/41/11 42/42/11 43/43/11
f 41/41/11 43/43/11 44/44/11
g open_shelf_0_bottom
v 0.08000000 0.04000000 0.00000000
v 0.08000000 -0.32000000 0.00000000
v -0.50000000 -0.32000000 0.00000000
v -0.50000000 0.04000000 0.00000000
vt 0.74218750 0.17285156
vt 0.82031250 0.17285156
vt 0.82031250 0.16308594
vt 0.74218750 0.16308594
vn -0.00000000 -0.00000000 -1.00000000
f 45/45/12 46/46/12 47/47/12
f 45/45/12 47/47/12 48/48/12
g open_shelf_0_top
v 0.08000000 0.04000000 0.15000000
v -0.50000000 0.04000000 0.15000000
v -0.50000000 -0.32000000 0.15000000
v 0.08000000 -0.32000000 0.15000000
vt 0.03906250 0.28613281
vt 0.66406250 0.28613281
vt 0.66406250 0.23925781
vt 0.03906250 0.23925781
vn -0.00000000 -0.00000000 1.00000000
f 49/49/13 50/50/13 51/51/13
f 49/49/13 51/51/13 52/52/13
g open_shelf_0_front
v 0.08000000 0.04000000 0.00000000
v -0.50000000 0.04000000 0.00000000
v -0.50000000 0.04000000 0.15000000
v 0.08000000 0.04000000 0.15000000
vt 0.74218750 0.17285156
vt 0.82031250 0.17285156
vt 0.82031250 0.16308594
vt 0.74218750 0.16308594
vn -0.00000000 1.00000000 0.00000000
f 53/53/14 54/54/14 55/55/14
f 53/53/14 55/55/14 56/56/14
g open_shelf_1_bottom
v 0.08000000 0.04000000 0.40000000
v 0.08000000 -0.32000000 0.40000000
v -0.50000000 -0.32000000 0.40000000
v -0.50000000 0.04000000 0.40000000
vt 0.74218750 0.17285156
vt 0.82031250 0.17285156
vt 0.82031250 0.16308594
vt 0.74218750 0.16308594
vn -0.00000000 -0.00000000 -1.00000000
f 57/57/15 58/58/15 59/59/15
f 57/57/15 59/59/15 60/60/15
g open_shelf_1_top
v 0.08000000 0.04000000 0.48000000
v -0.50000000 0.04000000 0.48000000
v -0.50000000 -0.32000000 0.48000000
v 0.08000000 -0.32000000 0.48000000
vt 0.03906250 0.22949219
vt 0.66406250 0.22949219
vt 0.66406250 0.18261719
vt 0.03906250 0.18261719
vn -0.00000000 -0.00000000 1.00000000
f 61/61/16 62/62/16 63/63/16
f 61/61/16 63/63/16 64/64/16
g open_shelf_1_front
v 0.08000000 0.04000000 0.40000000
v -0.50000000 0.04000000 0.40000000
v -0.50000000 0.04000000 0.48000000
v 0.08000000 0.04000000 0.48000000
vt 0.74218750 0.17285156
vt 0.82031250 0.17285156
vt 0.82031250 0.16308594
vt 0.74218750 0.16308594
vn -0.00000000 1.00000000 0.00000000
f 65/65/17 66/66/17 67/67/17
f 65/65/17 67/67/17 68/68/17
g open_shelf_2_bottom
v 0.08000000 0.04000000 0.76000000
v 0.08000000 -0.32000000 0.76000000
v -0.50000000 -0.32000000 0.76000000
v -0.50000000 0.04000000 0.76000000
vt 0.74218750 0.17285156
vt 0.82031250 0.17285156
vt 0.82031250 0.16308594
vt 0.74218750 0.16308594
vn -0.00000000 -0.00000000 -1.00000000
f 69/69/18 70/70/18 71/71/18
f 69/69/18 71/71/18 72/72/18
g open_shelf_2_top
v 0.08000000 0.04000000 0.82000000
v -0.50000000 0.04000000 0.82000000
v -0.50000000 -0.32000000 0.82000000
v 0.08000000 -0.32000000 0.82000000
vt 0.03906250 0.17285156
vt 0.66406250 0.17285156
vt 0.66406250 0.12597656
vt 0.03906250 0.12597656
vn -0.00000000 -0.00000000 1.00000000
f 73/73/19 74/74/19 75/75/19
f 73/73/19 75/75/19 76/76/19
g open_shelf_2_front
v 0.08000000 0.04000000 0.76000000
v -0.50000000 0.04000000 0.76000000
v -0.50000000 0.04000000 0.82000000
v 0.08000000 0.04000000 0.82000000
vt 0.74218750 0.17285156
vt 0.82031250 0.17285156
vt 0.82031250 0.16308594
vt 0.74218750 0.16308594
vn -0.00000000 1.00000000 0.00000000
f 77/77/20 78/78/20 79/79/20
f 77/77/20 79/79/20 80/80/20
