# Original G019 Spiffos Type A; Z up; tile units
mtllib pz_g019_spiffos_type_a_table_part1.mtl
o pz_g019_spiffos_type_a_table_part1
usemtl NativeSurface
g tabletop_edge
v -0.47632018 -0.30327667 0.77260000
v -0.38632018 -0.39327667 0.77260000
v -0.38632018 -0.39327667 0.91510000
v -0.47632018 -0.30327667 0.91510000
vt 0.77343750 0.92187500
vt 0.94531250 0.92187500
vt 0.94531250 0.82812500
vt 0.77343750 0.82812500
vn -0.70710678 -0.70710678 0.00000000
f 1/1/1 2/2/1 3/3/1
f 1/1/1 3/3/1 4/4/1
g tabletop_edge
v -0.38632018 -0.39327667 0.77260000
v 0.45712018 -0.39327667 0.77260000
v 0.45712018 -0.39327667 0.91510000
v -0.38632018 -0.39327667 0.91510000
vt 0.77343750 0.92187500
vt 0.94531250 0.92187500
vt 0.94531250 0.82812500
vt 0.77343750 0.82812500
vn -0.00000000 -1.00000000 0.00000000
f 5/5/2 6/6/2 7/7/2
f 5/5/2 7/7/2 8/8/2
g tabletop_edge
v 0.45712018 -0.39327667 0.77260000
v 0.54712018 -0.30327667 0.77260000
v 0.54712018 -0.30327667 0.91510000
v 0.45712018 -0.39327667 0.91510000
vt 0.77343750 0.92187500
vt 0.94531250 0.92187500
vt 0.94531250 0.82812500
vt 0.77343750 0.82812500
vn 0.70710678 -0.70710678 0.00000000
f 9/9/3 10/10/3 11/11/3
f 9/9/3 11/11/3 12/12/3
g tabletop_edge
v 0.54712018 -0.30327667 0.77260000
v 0.54712018 0.50000000 0.77260000
v 0.54712018 0.50000000 0.91510000
v 0.54712018 -0.30327667 0.91510000
vt 0.77343750 0.92187500
vt 0.94531250 0.92187500
vt 0.94531250 0.82812500
vt 0.77343750 0.82812500
vn 1.00000000 -0.00000000 0.00000000
f 13/13/4 14/14/4 15/15/4
f 13/13/4 15/15/4 16/16/4
g tabletop_edge
v -0.47632018 0.50000000 0.77260000
v -0.47632018 -0.30327667 0.77260000
v -0.47632018 -0.30327667 0.91510000
v -0.47632018 0.50000000 0.91510000
vt 0.77343750 0.92187500
vt 0.94531250 0.92187500
vt 0.94531250 0.82812500
vt 0.77343750 0.82812500
vn -1.00000000 -0.00000000 0.00000000
f 17/17/5 18/18/5 19/19/5
f 17/17/5 19/19/5 20/20/5
g tabletop_rim
v -0.47632018 -0.30327667 0.91510000
v -0.38632018 -0.39327667 0.91510000
v -0.31132018 -0.31827667 0.91510000
v -0.40132018 -0.22827667 0.91510000
vt 0.03906250 0.54687500
vt 0.08593750 0.54687500
vt 0.08593750 0.51562500
vt 0.03906250 0.51562500
vn -0.00000000 -0.00000000 1.00000000
f 21/21/6 22/22/6 23/23/6
f 21/21/6 23/23/6 24/24/6
g tabletop_rim
v -0.38632018 -0.39327667 0.91510000
v 0.45712018 -0.39327667 0.91510000
v 0.38212018 -0.31827667 0.91510000
v -0.31132018 -0.31827667 0.91510000
vt 0.03906250 0.54687500
vt 0.08593750 0.54687500
vt 0.08593750 0.51562500
vt 0.03906250 0.51562500
vn -0.00000000 -0.00000000 1.00000000
f 25/25/7 26/26/7 27/27/7
f 25/25/7 27/27/7 28/28/7
g tabletop_rim
v 0.45712018 -0.39327667 0.91510000
v 0.54712018 -0.30327667 0.91510000
v 0.47212018 -0.22827667 0.91510000
v 0.38212018 -0.31827667 0.91510000
vt 0.03906250 0.54687500
vt 0.08593750 0.54687500
vt 0.08593750 0.51562500
vt 0.03906250 0.51562500
vn -0.00000000 -0.00000000 1.00000000
f 29/29/8 30/30/8 31/31/8
f 29/29/8 31/31/8 32/32/8
g tabletop_rim
v 0.54712018 -0.30327667 0.91510000
v 0.54712018 0.50000000 0.91510000
v 0.47212018 0.50000000 0.91510000
v 0.47212018 -0.22827667 0.91510000
vt 0.03906250 0.54687500
vt 0.08593750 0.54687500
vt 0.08593750 0.51562500
vt 0.03906250 0.51562500
vn -0.00000000 -0.00000000 1.00000000
f 33/33/9 34/34/9 35/35/9
f 33/33/9 35/35/9 36/36/9
g tabletop_rim
v -0.47632018 0.50000000 0.91510000
v -0.47632018 -0.30327667 0.91510000
v -0.40132018 -0.22827667 0.91510000
v -0.40132018 0.50000000 0.91510000
vt 0.03906250 0.54687500
vt 0.08593750 0.54687500
vt 0.08593750 0.51562500
vt 0.03906250 0.51562500
vn -0.00000000 0.00000000 1.00000000
f 37/37/10 38/38/10 39/39/10
f 37/37/10 39/39/10 40/40/10
g tabletop_top
v -0.40132018 -0.22827667 0.91510000
v -0.31132018 -0.31827667 0.91510000
v 0.38212018 -0.31827667 0.91510000
vt 0.03906250 0.92187500
vt 0.33593750 0.92187500
vt 0.33593750 0.70312500
vn -0.00000000 -0.00000000 1.00000000
f 41/41/11 42/42/11 43/43/11
g tabletop_bottom
v -0.47632018 -0.30327667 0.77260000
v 0.45712018 -0.39327667 0.77260000
v -0.38632018 -0.39327667 0.77260000
vt 0.41406250 0.92187500
vt 0.52343750 0.92187500
vt 0.52343750 0.70312500
vn -0.00000000 -0.00000000 -1.00000000
f 44/44/12 45/45/12 46/46/12
g tabletop_top
v -0.40132018 -0.22827667 0.91510000
v 0.38212018 -0.31827667 0.91510000
v 0.47212018 -0.22827667 0.91510000
vt 0.03906250 0.92187500
vt 0.33593750 0.92187500
vt 0.33593750 0.70312500
vn -0.00000000 -0.00000000 1.00000000
f 47/47/13 48/48/13 49/49/13
g tabletop_bottom
v -0.47632018 -0.30327667 0.77260000
v 0.54712018 -0.30327667 0.77260000
v 0.45712018 -0.39327667 0.77260000
vt 0.41406250 0.92187500
vt 0.52343750 0.92187500
vt 0.52343750 0.70312500
vn -0.00000000 -0.00000000 -1.00000000
f 50/50/14 51/51/14 52/52/14
g tabletop_top
v -0.40132018 -0.22827667 0.91510000
v 0.47212018 -0.22827667 0.91510000
v 0.47212018 0.50000000 0.91510000
v 0.01619473 0.50000000 0.91510000
vt 0.03906250 0.92187500
vt 0.33593750 0.92187500
vt 0.33593750 0.70312500
vt 0.03906250 0.70312500
vn -0.00000000 -0.00000000 1.00000000
f 53/53/15 54/54/15 55/55/15
f 53/53/15 55/55/15 56/56/15
g tabletop_bottom
v -0.47632018 -0.30327667 0.77260000
v 0.01491350 0.50000000 0.77260000
v 0.54712018 0.50000000 0.77260000
v 0.54712018 -0.30327667 0.77260000
vt 0.41406250 0.92187500
vt 0.52343750 0.92187500
vt 0.52343750 0.70312500
vt 0.41406250 0.70312500
vn 0.00000000 -0.00000000 -1.00000000
f 57/57/16 58/58/16 59/59/16
f 57/57/16 59/59/16 60/60/16
g tabletop_top
v -0.40132018 -0.22827667 0.91510000
v 0.01619473 0.50000000 0.91510000
v -0.04771468 0.50000000 0.91510000
vt 0.03906250 0.92187500
vt 0.33593750 0.92187500
vt 0.33593750 0.70312500
vn -0.00000000 -0.00000000 1.00000000
f 61/61/17 62/62/17 63/63/17
g tabletop_bottom
v -0.47632018 -0.30327667 0.77260000
v -0.05114967 0.50000000 0.77260000
v 0.01491350 0.50000000 0.77260000
vt 0.41406250 0.92187500
vt 0.52343750 0.92187500
vt 0.52343750 0.70312500
vn -0.00000000 -0.00000000 -1.00000000
f 64/64/18 65/65/18 66/66/18
g tabletop_top
v -0.40132018 -0.22827667 0.91510000
v -0.04771468 0.50000000 0.91510000
v -0.36069871 0.50000000 0.91510000
vt 0.03906250 0.92187500
vt 0.33593750 0.92187500
vt 0.33593750 0.70312500
vn -0.00000000 -0.00000000 1.00000000
f 67/67/19 68/68/19 69/69/19
g tabletop_bottom
v -0.47632018 -0.30327667 0.77260000
v -0.43532630 0.50000000 0.77260000
v -0.05114967 0.50000000 0.77260000
vt 0.41406250 0.92187500
vt 0.52343750 0.92187500
vt 0.52343750 0.70312500
vn -0.00000000 -0.00000000 -1.00000000
f 70/70/20 71/71/20 72/72/20
g tabletop_top
v -0.40132018 -0.22827667 0.91510000
v -0.36069871 0.50000000 0.91510000
v -0.40132018 0.50000000 0.91510000
vt 0.03906250 0.92187500
vt 0.33593750 0.92187500
vt 0.33593750 0.70312500
vn -0.00000000 -0.00000000 1.00000000
f 73/73/21 74/74/21 75/75/21
g tabletop_bottom
v -0.47632018 -0.30327667 0.77260000
v -0.47632018 0.50000000 0.77260000
v -0.43532630 0.50000000 0.77260000
vt 0.41406250 0.92187500
vt 0.52343750 0.92187500
vt 0.52343750 0.70312500
vn -0.00000000 0.00000000 -1.00000000
f 76/76/22 77/77/22 78/78/22
g pedestal_1_side
v -0.06320000 0.39820000 0.00000000
v 0.04531298 0.46085000 0.00000000
v 0.04531298 0.46085000 0.06525000
v -0.06320000 0.39820000 0.06525000
vt 0.60156250 0.92187500
vt 0.69531250 0.92187500
vt 0.69531250 0.76562500
vt 0.60156250 0.76562500
vn 0.50000000 -0.86602540 0.00000000
f 79/79/23 80/80/23 81/81/23
f 79/79/23 81/81/23 82/82/23
g pedestal_1_side
v 0.04531298 0.46085000 0.00000000
v 0.04531298 0.50000000 0.00000000
v 0.04531298 0.50000000 0.06525000
v 0.04531298 0.46085000 0.06525000
vt 0.60156250 0.92187500
vt 0.69531250 0.92187500
vt 0.69531250 0.76562500
vt 0.60156250 0.76562500
vn 1.00000000 -0.00000000 0.00000000
f 83/83/24 84/84/24 85/85/24
f 83/83/24 85/85/24 86/86/24
g pedestal_1_side
v -0.17171298 0.50000000 0.00000000
v -0.17171298 0.46085000 0.00000000
v -0.17171298 0.46085000 0.06525000
v -0.17171298 0.50000000 0.06525000
vt 0.60156250 0.92187500
vt 0.69531250 0.92187500
vt 0.69531250 0.76562500
vt 0.60156250 0.76562500
vn -1.00000000 -0.00000000 0.00000000
f 87/87/25 88/88/25 89/89/25
f 87/87/25 89/89/25 90/90/25
g pedestal_1_side
v -0.17171298 0.46085000 0.00000000
v -0.06320000 0.39820000 0.00000000
v -0.06320000 0.39820000 0.06525000
v -0.17171298 0.46085000 0.06525000
vt 0.60156250 0.92187500
vt 0.69531250 0.92187500
vt 0.69531250 0.76562500
vt 0.60156250 0.76562500
vn -0.50000000 -0.86602540 0.00000000
f 91/91/26 92/92/26 93/93/26
f 91/91/26 93/93/26 94/94/26
g pedestal_1_cap0
v -0.06320000 0.39820000 0.00000000
v -0.00442574 0.50000000 0.00000000
v 0.04531298 0.50000000 0.00000000
v 0.04531298 0.46085000 0.00000000
vt 0.60156250 0.92187500
vt 0.69531250 0.92187500
vt 0.69531250 0.76562500
vt 0.60156250 0.76562500
vn -0.00000000 -0.00000000 -1.00000000
f 95/95/27 96/96/27 97/97/27
f 95/95/27 97/97/27 98/98/27
g pedestal_1_cap1
v -0.06320000 0.39820000 0.06525000
v 0.04531298 0.46085000 0.06525000
v 0.04531298 0.50000000 0.06525000
v -0.00442574 0.50000000 0.06525000
vt 0.60156250 0.92187500
vt 0.69531250 0.92187500
vt 0.69531250 0.76562500
vt 0.60156250 0.76562500
vn -0.00000000 -0.00000000 1.00000000
f 99/99/28 100/100/28 101/101/28
f 99/99/28 101/101/28 102/102/28
g pedestal_1_cap0
v -0.06320000 0.39820000 0.00000000
v -0.06320000 0.50000000 0.00000000
v -0.00442574 0.50000000 0.00000000
vt 0.60156250 0.92187500
vt 0.69531250 0.92187500
vt 0.69531250 0.76562500
vn -0.00000000 -0.00000000 -1.00000000
f 103/103/29 104/104/29 105/105/29
g pedestal_1_cap1
v -0.06320000 0.39820000 0.06525000
v -0.00442574 0.50000000 0.06525000
v -0.06320000 0.50000000 0.06525000
vt 0.60156250 0.92187500
vt 0.69531250 0.92187500
vt 0.69531250 0.76562500
vn -0.00000000 -0.00000000 1.00000000
f 106/106/30 107/107/30 108/108/30
g pedestal_1_cap0
v -0.06320000 0.39820000 0.00000000
v -0.12197426 0.50000000 0.00000000
v -0.06320000 0.50000000 0.00000000
vt 0.60156250 0.92187500
vt 0.69531250 0.92187500
vt 0.69531250 0.76562500
vn -0.00000000 0.00000000 -1.00000000
f 109/109/31 110/110/31 111/111/31
g pedestal_1_cap1
v -0.06320000 0.39820000 0.06525000
v -0.06320000 0.50000000 0.06525000
v -0.12197426 0.50000000 0.06525000
vt 0.60156250 0.92187500
vt 0.69531250 0.92187500
vt 0.69531250 0.76562500
vn -0.00000000 -0.00000000 1.00000000
f 112/112/32 113/113/32 114/114/32
g pedestal_1_cap0
v -0.06320000 0.39820000 0.00000000
v -0.17171298 0.46085000 0.00000000
v -0.17171298 0.50000000 0.00000000
v -0.12197426 0.50000000 0.00000000
vt 0.60156250 0.92187500
vt 0.69531250 0.92187500
vt 0.69531250 0.76562500
vt 0.60156250 0.76562500
vn -0.00000000 -0.00000000 -1.00000000
f 115/115/33 116/116/33 117/117/33
f 115/115/33 117/117/33 118/118/33
g pedestal_1_cap1
v -0.06320000 0.39820000 0.06525000
v -0.12197426 0.50000000 0.06525000
v -0.17171298 0.50000000 0.06525000
v -0.17171298 0.46085000 0.06525000
vt 0.60156250 0.92187500
vt 0.69531250 0.92187500
vt 0.69531250 0.76562500
vt 0.60156250 0.76562500
vn -0.00000000 -0.00000000 1.00000000
f 119/119/34 120/120/34 121/121/34
f 119/119/34 121/121/34 122/122/34
