# Original G019 Spiffos Type A; Z up; tile units
mtllib pz_g019_spiffos_type_a_table_part0.mtl
o pz_g019_spiffos_type_a_table_part0
usemtl NativeSurface
g tabletop_edge
v 0.54712018 -0.50000000 0.77260000
v 0.54712018 0.37027667 0.77260000
v 0.54712018 0.37027667 0.91510000
v 0.54712018 -0.50000000 0.91510000
vt 0.77343750 0.92187500
vt 0.94531250 0.92187500
vt 0.94531250 0.82812500
vt 0.77343750 0.82812500
vn 1.00000000 -0.00000000 0.00000000
f 1/1/1 2/2/1 3/3/1
f 1/1/1 3/3/1 4/4/1
g tabletop_edge
v 0.54712018 0.37027667 0.77260000
v 0.45712018 0.46027667 0.77260000
v 0.45712018 0.46027667 0.91510000
v 0.54712018 0.37027667 0.91510000
vt 0.77343750 0.92187500
vt 0.94531250 0.92187500
vt 0.94531250 0.82812500
vt 0.77343750 0.82812500
vn 0.70710678 0.70710678 0.00000000
f 5/5/2 6/6/2 7/7/2
f 5/5/2 7/7/2 8/8/2
g tabletop_edge
v 0.45712018 0.46027667 0.77260000
v -0.38632018 0.46027667 0.77260000
v -0.38632018 0.46027667 0.91510000
v 0.45712018 0.46027667 0.91510000
vt 0.77343750 0.92187500
vt 0.94531250 0.92187500
vt 0.94531250 0.82812500
vt 0.77343750 0.82812500
vn -0.00000000 1.00000000 0.00000000
f 9/9/3 10/10/3 11/11/3
f 9/9/3 11/11/3 12/12/3
g tabletop_edge
v -0.38632018 0.46027667 0.77260000
v -0.47632018 0.37027667 0.77260000
v -0.47632018 0.37027667 0.91510000
v -0.38632018 0.46027667 0.91510000
vt 0.77343750 0.92187500
vt 0.94531250 0.92187500
vt 0.94531250 0.82812500
vt 0.77343750 0.82812500
vn -0.70710678 0.70710678 0.00000000
f 13/13/4 14/14/4 15/15/4
f 13/13/4 15/15/4 16/16/4
g tabletop_edge
v -0.47632018 0.37027667 0.77260000
v -0.47632018 -0.50000000 0.77260000
v -0.47632018 -0.50000000 0.91510000
v -0.47632018 0.37027667 0.91510000
vt 0.77343750 0.92187500
vt 0.94531250 0.92187500
vt 0.94531250 0.82812500
vt 0.77343750 0.82812500
vn -1.00000000 -0.00000000 0.00000000
f 17/17/5 18/18/5 19/19/5
f 17/17/5 19/19/5 20/20/5
g tabletop_rim
v 0.54712018 -0.50000000 0.91510000
v 0.54712018 0.37027667 0.91510000
v 0.47212018 0.29527667 0.91510000
v 0.47212018 -0.50000000 0.91510000
vt 0.03906250 0.54687500
vt 0.08593750 0.54687500
vt 0.08593750 0.51562500
vt 0.03906250 0.51562500
vn -0.00000000 -0.00000000 1.00000000
f 21/21/6 22/22/6 23/23/6
f 21/21/6 23/23/6 24/24/6
g tabletop_rim
v 0.54712018 0.37027667 0.91510000
v 0.45712018 0.46027667 0.91510000
v 0.38212018 0.38527667 0.91510000
v 0.47212018 0.29527667 0.91510000
vt 0.03906250 0.54687500
vt 0.08593750 0.54687500
vt 0.08593750 0.51562500
vt 0.03906250 0.51562500
vn -0.00000000 -0.00000000 1.00000000
f 25/25/7 26/26/7 27/27/7
f 25/25/7 27/27/7 28/28/7
g tabletop_rim
v 0.45712018 0.46027667 0.91510000
v -0.38632018 0.46027667 0.91510000
v -0.31132018 0.38527667 0.91510000
v 0.38212018 0.38527667 0.91510000
vt 0.03906250 0.54687500
vt 0.08593750 0.54687500
vt 0.08593750 0.51562500
vt 0.03906250 0.51562500
vn -0.00000000 -0.00000000 1.00000000
f 29/29/8 30/30/8 31/31/8
f 29/29/8 31/31/8 32/32/8
g tabletop_rim
v -0.38632018 0.46027667 0.91510000
v -0.47632018 0.37027667 0.91510000
v -0.40132018 0.29527667 0.91510000
v -0.31132018 0.38527667 0.91510000
vt 0.03906250 0.54687500
vt 0.08593750 0.54687500
vt 0.08593750 0.51562500
vt 0.03906250 0.51562500
vn -0.00000000 -0.00000000 1.00000000
f 33/33/9 34/34/9 35/35/9
f 33/33/9 35/35/9 36/36/9
g tabletop_rim
v -0.47632018 0.37027667 0.91510000
v -0.47632018 -0.50000000 0.91510000
v -0.40132018 -0.50000000 0.91510000
v -0.40132018 0.29527667 0.91510000
vt 0.03906250 0.54687500
vt 0.08593750 0.54687500
vt 0.08593750 0.51562500
vt 0.03906250 0.51562500
vn -0.00000000 0.00000000 1.00000000
f 37/37/10 38/38/10 39/39/10
f 37/37/10 39/39/10 40/40/10
g tabletop_top
v 0.47212018 -0.50000000 0.91510000
v 0.47212018 0.29527667 0.91510000
v 0.01619473 -0.50000000 0.91510000
vt 0.03906250 0.92187500
vt 0.33593750 0.92187500
vt 0.33593750 0.70312500
vn -0.00000000 -0.00000000 1.00000000
f 41/41/11 42/42/11 43/43/11
g tabletop_bottom
v 0.01491350 -0.50000000 0.77260000
v 0.54712018 0.37027667 0.77260000
v 0.54712018 -0.50000000 0.77260000
vt 0.41406250 0.92187500
vt 0.52343750 0.92187500
vt 0.52343750 0.70312500
vn 0.00000000 -0.00000000 -1.00000000
f 44/44/12 45/45/12 46/46/12
g tabletop_top
v 0.01619473 -0.50000000 0.91510000
v 0.47212018 0.29527667 0.91510000
v 0.38212018 0.38527667 0.91510000
v -0.04771468 -0.50000000 0.91510000
vt 0.03906250 0.92187500
vt 0.33593750 0.92187500
vt 0.33593750 0.70312500
vt 0.03906250 0.70312500
vn -0.00000000 -0.00000000 1.00000000
f 47/47/13 48/48/13 49/49/13
f 47/47/13 49/49/13 50/50/13
g tabletop_bottom
v -0.05114967 -0.50000000 0.77260000
v 0.45712018 0.46027667 0.77260000
v 0.54712018 0.37027667 0.77260000
v 0.01491350 -0.50000000 0.77260000
vt 0.41406250 0.92187500
vt 0.52343750 0.92187500
vt 0.52343750 0.70312500
vt 0.41406250 0.70312500
vn -0.00000000 -0.00000000 -1.00000000
f 51/51/14 52/52/14 53/53/14
f 51/51/14 53/53/14 54/54/14
g tabletop_top
v -0.04771468 -0.50000000 0.91510000
v 0.38212018 0.38527667 0.91510000
v -0.31132018 0.38527667 0.91510000
v -0.36069871 -0.50000000 0.91510000
vt 0.03906250 0.92187500
vt 0.33593750 0.92187500
vt 0.33593750 0.70312500
vt 0.03906250 0.70312500
vn -0.00000000 -0.00000000 1.00000000
f 55/55/15 56/56/15 57/57/15
f 55/55/15 57/57/15 58/58/15
g tabletop_bottom
v -0.43532630 -0.50000000 0.77260000
v -0.38632018 0.46027667 0.77260000
v 0.45712018 0.46027667 0.77260000
v -0.05114967 -0.50000000 0.77260000
vt 0.41406250 0.92187500
vt 0.52343750 0.92187500
vt 0.52343750 0.70312500
vt 0.41406250 0.70312500
vn -0.00000000 -0.00000000 -1.00000000
f 59/59/16 60/60/16 61/61/16
f 59/59/16 61/61/16 62/62/16
g tabletop_top
v -0.36069871 -0.50000000 0.91510000
v -0.31132018 0.38527667 0.91510000
v -0.40132018 0.29527667 0.91510000
v -0.40132018 -0.50000000 0.91510000
vt 0.03906250 0.92187500
vt 0.33593750 0.92187500
vt 0.33593750 0.70312500
vt 0.03906250 0.70312500
vn -0.00000000 -0.00000000 1.00000000
f 63/63/17 64/64/17 65/65/17
f 63/63/17 65/65/17 66/66/17
g tabletop_bottom
v -0.47632018 -0.50000000 0.77260000
v -0.47632018 0.37027667 0.77260000
v -0.38632018 0.46027667 0.77260000
v -0.43532630 -0.50000000 0.77260000
vt 0.41406250 0.92187500
vt 0.52343750 0.92187500
vt 0.52343750 0.70312500
vt 0.41406250 0.70312500
vn -0.00000000 0.00000000 -1.00000000
f 67/67/18 68/68/18 69/69/18
f 67/67/18 69/69/18 70/70/18
g pedestal_0_side
v -0.00780000 -0.48410000 0.00000000
v 0.04537396 -0.45340000 0.00000000
v 0.04537396 -0.45340000 0.76725000
v -0.00780000 -0.48410000 0.76725000
vt 0.60156250 0.92187500
vt 0.69531250 0.92187500
vt 0.69531250 0.76562500
vt 0.60156250 0.76562500
vn 0.50000000 -0.86602540 0.00000000
f 71/71/19 72/72/19 73/73/19
f 71/71/19 73/73/19 74/74/19
g pedestal_0_side
v 0.04537396 -0.45340000 0.00000000
v 0.04537396 -0.39200000 0.00000000
v 0.04537396 -0.39200000 0.76725000
v 0.04537396 -0.45340000 0.76725000
vt 0.60156250 0.92187500
vt 0.69531250 0.92187500
vt 0.69531250 0.76562500
vt 0.60156250 0.76562500
vn 1.00000000 -0.00000000 0.00000000
f 75/75/20 76/76/20 77/77/20
f 75/75/20 77/77/20 78/78/20
g pedestal_0_side
v 0.04537396 -0.39200000 0.00000000
v -0.00780000 -0.36130000 0.00000000
v -0.00780000 -0.36130000 0.76725000
v 0.04537396 -0.39200000 0.76725000
vt 0.60156250 0.92187500
vt 0.69531250 0.92187500
vt 0.69531250 0.76562500
vt 0.60156250 0.76562500
vn 0.50000000 0.86602540 0.00000000
f 79/79/21 80/80/21 81/81/21
f 79/79/21 81/81/21 82/82/21
g pedestal_0_side
v -0.00780000 -0.36130000 0.00000000
v -0.06097396 -0.39200000 0.00000000
v -0.06097396 -0.39200000 0.76725000
v -0.00780000 -0.36130000 0.76725000
vt 0.60156250 0.92187500
vt 0.69531250 0.92187500
vt 0.69531250 0.76562500
vt 0.60156250 0.76562500
vn -0.50000000 0.86602540 0.00000000
f 83/83/22 84/84/22 85/85/22
f 83/83/22 85/85/22 86/86/22
g pedestal_0_side
v -0.06097396 -0.39200000 0.00000000
v -0.06097396 -0.45340000 0.00000000
v -0.06097396 -0.45340000 0.76725000
v -0.06097396 -0.39200000 0.76725000
vt 0.60156250 0.92187500
vt 0.69531250 0.92187500
vt 0.69531250 0.76562500
vt 0.60156250 0.76562500
vn -1.00000000 0.00000000 0.00000000
f 87/87/23 88/88/23 89/89/23
f 87/87/23 89/89/23 90/90/23
g pedestal_0_side
v -0.06097396 -0.45340000 0.00000000
v -0.00780000 -0.48410000 0.00000000
v -0.00780000 -0.48410000 0.76725000
v -0.06097396 -0.45340000 0.76725000
vt 0.60156250 0.92187500
vt 0.69531250 0.92187500
vt 0.69531250 0.76562500
vt 0.60156250 0.76562500
vn -0.50000000 -0.86602540 0.00000000
f 91/91/24 92/92/24 93/93/24
f 91/91/24 93/93/24 94/94/24
g pedestal_0_cap0
v -0.00780000 -0.48410000 0.00000000
v 0.04537396 -0.39200000 0.00000000
v 0.04537396 -0.45340000 0.00000000
vt 0.60156250 0.92187500
vt 0.69531250 0.92187500
vt 0.69531250 0.76562500
vn -0.00000000 -0.00000000 -1.00000000
f 95/95/25 96/96/25 97/97/25
g pedestal_0_cap1
v -0.00780000 -0.48410000 0.76725000
v 0.04537396 -0.45340000 0.76725000
v 0.04537396 -0.39200000 0.76725000
vt 0.60156250 0.92187500
vt 0.69531250 0.92187500
vt 0.69531250 0.76562500
vn -0.00000000 -0.00000000 1.00000000
f 98/98/26 99/99/26 100/100/26
g pedestal_0_cap0
v -0.00780000 -0.48410000 0.00000000
v -0.00780000 -0.36130000 0.00000000
v 0.04537396 -0.39200000 0.00000000
vt 0.60156250 0.92187500
vt 0.69531250 0.92187500
vt 0.69531250 0.76562500
vn -0.00000000 -0.00000000 -1.00000000
f 101/101/27 102/102/27 103/103/27
g pedestal_0_cap1
v -0.00780000 -0.48410000 0.76725000
v 0.04537396 -0.39200000 0.76725000
v -0.00780000 -0.36130000 0.76725000
vt 0.60156250 0.92187500
vt 0.69531250 0.92187500
vt 0.69531250 0.76562500
vn -0.00000000 -0.00000000 1.00000000
f 104/104/28 105/105/28 106/106/28
g pedestal_0_cap0
v -0.00780000 -0.48410000 0.00000000
v -0.06097396 -0.39200000 0.00000000
v -0.00780000 -0.36130000 0.00000000
vt 0.60156250 0.92187500
vt 0.69531250 0.92187500
vt 0.69531250 0.76562500
vn -0.00000000 0.00000000 -1.00000000
f 107/107/29 108/108/29 109/109/29
g pedestal_0_cap1
v -0.00780000 -0.48410000 0.76725000
v -0.00780000 -0.36130000 0.76725000
v -0.06097396 -0.39200000 0.76725000
vt 0.60156250 0.92187500
vt 0.69531250 0.92187500
vt 0.69531250 0.76562500
vn -0.00000000 -0.00000000 1.00000000
f 110/110/30 111/111/30 112/112/30
g pedestal_0_cap0
v -0.00780000 -0.48410000 0.00000000
v -0.06097396 -0.45340000 0.00000000
v -0.06097396 -0.39200000 0.00000000
vt 0.60156250 0.92187500
vt 0.69531250 0.92187500
vt 0.69531250 0.76562500
vn -0.00000000 -0.00000000 -1.00000000
f 113/113/31 114/114/31 115/115/31
g pedestal_0_cap1
v -0.00780000 -0.48410000 0.76725000
v -0.06097396 -0.39200000 0.76725000
v -0.06097396 -0.45340000 0.76725000
vt 0.60156250 0.92187500
vt 0.69531250 0.92187500
vt 0.69531250 0.76562500
vn -0.00000000 -0.00000000 1.00000000
f 116/116/32 117/117/32 118/118/32
g pedestal_1_side
v 0.04531298 -0.50000000 0.00000000
v 0.04531298 -0.41385000 0.00000000
v 0.04531298 -0.41385000 0.06525000
v 0.04531298 -0.50000000 0.06525000
vt 0.60156250 0.92187500
vt 0.69531250 0.92187500
vt 0.69531250 0.76562500
vt 0.60156250 0.76562500
vn 1.00000000 -0.00000000 0.00000000
f 119/119/33 120/120/33 121/121/33
f 119/119/33 121/121/33 122/122/33
g pedestal_1_side
v 0.04531298 -0.41385000 0.00000000
v -0.06320000 -0.35120000 0.00000000
v -0.06320000 -0.35120000 0.06525000
v 0.04531298 -0.41385000 0.06525000
vt 0.60156250 0.92187500
vt 0.69531250 0.92187500
vt 0.69531250 0.76562500
vt 0.60156250 0.76562500
vn 0.50000000 0.86602540 0.00000000
f 123/123/34 124/124/34 125/125/34
f 123/123/34 125/125/34 126/126/34
g pedestal_1_side
v -0.06320000 -0.35120000 0.00000000
v -0.17171298 -0.41385000 0.00000000
v -0.17171298 -0.41385000 0.06525000
v -0.06320000 -0.35120000 0.06525000
vt 0.60156250 0.92187500
vt 0.69531250 0.92187500
vt 0.69531250 0.76562500
vt 0.60156250 0.76562500
vn -0.50000000 0.86602540 0.00000000
f 127/127/35 128/128/35 129/129/35
f 127/127/35 129/129/35 130/130/35
g pedestal_1_side
v -0.17171298 -0.41385000 0.00000000
v -0.17171298 -0.50000000 0.00000000
v -0.17171298 -0.50000000 0.06525000
v -0.17171298 -0.41385000 0.06525000
vt 0.60156250 0.92187500
vt 0.69531250 0.92187500
vt 0.69531250 0.76562500
vt 0.60156250 0.76562500
vn -1.00000000 -0.00000000 0.00000000
f 131/131/36 132/132/36 133/133/36
f 131/131/36 133/133/36 134/134/36
g pedestal_1_cap0
v -0.00442574 -0.50000000 0.00000000
v 0.04531298 -0.41385000 0.00000000
v 0.04531298 -0.50000000 0.00000000
vt 0.60156250 0.92187500
vt 0.69531250 0.92187500
vt 0.69531250 0.76562500
vn -0.00000000 -0.00000000 -1.00000000
f 135/135/37 136/136/37 137/137/37
g pedestal_1_cap1
v 0.04531298 -0.50000000 0.06525000
v 0.04531298 -0.41385000 0.06525000
v -0.00442574 -0.50000000 0.06525000
vt 0.60156250 0.92187500
vt 0.69531250 0.92187500
vt 0.69531250 0.76562500
vn -0.00000000 -0.00000000 1.00000000
f 138/138/38 139/139/38 140/140/38
g pedestal_1_cap0
v -0.06320000 -0.50000000 0.00000000
v -0.06320000 -0.35120000 0.00000000
v 0.04531298 -0.41385000 0.00000000
v -0.00442574 -0.50000000 0.00000000
vt 0.60156250 0.92187500
vt 0.69531250 0.92187500
vt 0.69531250 0.76562500
vt 0.60156250 0.76562500
vn -0.00000000 -0.00000000 -1.00000000
f 141/141/39 142/142/39 143/143/39
f 141/141/39 143/143/39 144/144/39
g pedestal_1_cap1
v -0.00442574 -0.50000000 0.06525000
v 0.04531298 -0.41385000 0.06525000
v -0.06320000 -0.35120000 0.06525000
v -0.06320000 -0.50000000 0.06525000
vt 0.60156250 0.92187500
vt 0.69531250 0.92187500
vt 0.69531250 0.76562500
vt 0.60156250 0.76562500
vn -0.00000000 -0.00000000 1.00000000
f 145/145/40 146/146/40 147/147/40
f 145/145/40 147/147/40 148/148/40
g pedestal_1_cap0
v -0.12197426 -0.50000000 0.00000000
v -0.17171298 -0.41385000 0.00000000
v -0.06320000 -0.35120000 0.00000000
v -0.06320000 -0.50000000 0.00000000
vt 0.60156250 0.92187500
vt 0.69531250 0.92187500
vt 0.69531250 0.76562500
vt 0.60156250 0.76562500
vn -0.00000000 0.00000000 -1.00000000
f 149/149/41 150/150/41 151/151/41
f 149/149/41 151/151/41 152/152/41
g pedestal_1_cap1
v -0.06320000 -0.50000000 0.06525000
v -0.06320000 -0.35120000 0.06525000
v -0.17171298 -0.41385000 0.06525000
v -0.12197426 -0.50000000 0.06525000
vt 0.60156250 0.92187500
vt 0.69531250 0.92187500
vt 0.69531250 0.76562500
vt 0.60156250 0.76562500
vn -0.00000000 -0.00000000 1.00000000
f 153/153/42 154/154/42 155/155/42
f 153/153/42 155/155/42 156/156/42
g pedestal_1_cap0
v -0.17171298 -0.50000000 0.00000000
v -0.17171298 -0.41385000 0.00000000
v -0.12197426 -0.50000000 0.00000000
vt 0.60156250 0.92187500
vt 0.69531250 0.92187500
vt 0.69531250 0.76562500
vn -0.00000000 -0.00000000 -1.00000000
f 157/157/43 158/158/43 159/159/43
g pedestal_1_cap1
v -0.12197426 -0.50000000 0.06525000
v -0.17171298 -0.41385000 0.06525000
v -0.17171298 -0.50000000 0.06525000
vt 0.60156250 0.92187500
vt 0.69531250 0.92187500
vt 0.69531250 0.76562500
vn -0.00000000 -0.00000000 1.00000000
f 160/160/44 161/161/44 162/162/44
