# Original G024 Washing; Z up; tile units
mtllib pz_g024_washing_bin.mtl
o pz_g024_washing_bin
usemtl NativeSurface
g fabric_outer_0
v 0.42640000 0.34350000 0.06500000
v -0.45060000 0.34350000 0.06500000
v -0.46860000 0.36150000 0.77500000
v 0.44440000 0.36150000 0.77500000
vt 0.01953125 0.98046875
vt 0.51171875 0.98046875
vt 0.51171875 0.61328125
vt 0.01953125 0.61328125
vn -0.00000000 0.99967879 -0.02534397
f 1/1/1 2/2/1 3/3/1
f 1/1/1 3/3/1 4/4/1
g fabric_inner_0
v 0.41701000 0.34362000 0.75700000
v -0.44121000 0.34362000 0.75700000
v -0.38921000 0.30430000 0.10000000
v 0.36501000 0.30430000 0.10000000
vt 0.01953125 0.57421875
vt 0.51171875 0.57421875
vt 0.51171875 0.33203125
vt 0.01953125 0.33203125
vn 0.00000000 -0.99821392 0.05974090
f 5/5/2 6/6/2 7/7/2
f 5/5/2 7/7/2 8/8/2
g mouth_rim_0
v 0.44440000 0.36150000 0.77500000
v -0.46860000 0.36150000 0.77500000
v -0.44121000 0.34362000 0.75700000
v 0.41701000 0.34362000 0.75700000
vt 0.55078125 0.57421875
vt 0.55859375 0.57421875
vt 0.55859375 0.35546875
vt 0.55078125 0.35546875
vn 0.00000000 -0.70946772 0.70473793
f 9/9/3 10/10/3 11/11/3
f 9/9/3 11/11/3 12/12/3
g fabric_outer_1
v -0.45060000 0.34350000 0.06500000
v -0.45060000 -0.21650000 0.06500000
v -0.46860000 -0.23450000 0.77500000
v -0.46860000 0.36150000 0.77500000
vt 0.55078125 0.98046875
vt 0.87109375 0.98046875
vt 0.87109375 0.61328125
vt 0.55078125 0.61328125
vn -0.99967879 -0.00000000 -0.02534397
f 13/13/4 14/14/4 15/15/4
f 13/13/4 15/15/4 16/16/4
g fabric_inner_1
v -0.44121000 0.34362000 0.75700000
v -0.44121000 -0.21662000 0.75700000
v -0.38921000 -0.17730000 0.10000000
v -0.38921000 0.30430000 0.10000000
vt 0.01953125 0.57421875
vt 0.51171875 0.57421875
vt 0.51171875 0.33203125
vt 0.01953125 0.33203125
vn 0.99688246 -0.00000000 0.07890090
f 17/17/5 18/18/5 19/19/5
f 17/17/5 19/19/5 20/20/5
g mouth_rim_1
v -0.46860000 0.36150000 0.77500000
v -0.46860000 -0.23450000 0.77500000
v -0.44121000 -0.21662000 0.75700000
v -0.44121000 0.34362000 0.75700000
vt 0.55078125 0.57421875
vt 0.55859375 0.57421875
vt 0.55859375 0.35546875
vt 0.55078125 0.35546875
vn 0.54919615 -0.00000000 0.83569348
f 21/21/6 22/22/6 23/23/6
f 21/21/6 23/23/6 24/24/6
g fabric_outer_2
v -0.45060000 -0.21650000 0.06500000
v 0.42640000 -0.21650000 0.06500000
v 0.44440000 -0.23450000 0.77500000
v -0.46860000 -0.23450000 0.77500000
vt 0.01953125 0.98046875
vt 0.51171875 0.98046875
vt 0.51171875 0.61328125
vt 0.01953125 0.61328125
vn -0.00000000 -0.99967879 -0.02534397
f 25/25/7 26/26/7 27/27/7
f 25/25/7 27/27/7 28/28/7
g fabric_inner_2
v -0.44121000 -0.21662000 0.75700000
v 0.41701000 -0.21662000 0.75700000
v 0.36501000 -0.17730000 0.10000000
v -0.38921000 -0.17730000 0.10000000
vt 0.01953125 0.57421875
vt 0.51171875 0.57421875
vt 0.51171875 0.33203125
vt 0.01953125 0.33203125
vn -0.00000000 0.99821392 0.05974090
f 29/29/8 30/30/8 31/31/8
f 29/29/8 31/31/8 32/32/8
g mouth_rim_2
v -0.46860000 -0.23450000 0.77500000
v 0.44440000 -0.23450000 0.77500000
v 0.41701000 -0.21662000 0.75700000
v -0.44121000 -0.21662000 0.75700000
vt 0.55078125 0.57421875
vt 0.55859375 0.57421875
vt 0.55859375 0.35546875
vt 0.55078125 0.35546875
vn -0.00000000 0.70946772 0.70473793
f 33/33/9 34/34/9 35/35/9
f 33/33/9 35/35/9 36/36/9
g fabric_outer_3
v 0.42640000 -0.21650000 0.06500000
v 0.42640000 0.34350000 0.06500000
v 0.44440000 0.36150000 0.77500000
v 0.44440000 -0.23450000 0.77500000
vt 0.55078125 0.98046875
vt 0.87109375 0.98046875
vt 0.87109375 0.61328125
vt 0.55078125 0.61328125
vn 0.99967879 0.00000000 -0.02534397
f 37/37/10 38/38/10 39/39/10
f 37/37/10 39/39/10 40/40/10
g fabric_inner_3
v 0.41701000 -0.21662000 0.75700000
v 0.41701000 0.34362000 0.75700000
v 0.36501000 0.30430000 0.10000000
v 0.36501000 -0.17730000 0.10000000
vt 0.01953125 0.57421875
vt 0.51171875 0.57421875
vt 0.51171875 0.33203125
vt 0.01953125 0.33203125
vn -0.99688246 -0.00000000 0.07890090
f 41/41/11 42/42/11 43/43/11
f 41/41/11 43/43/11 44/44/11
g mouth_rim_3
v 0.44440000 -0.23450000 0.77500000
v 0.44440000 0.36150000 0.77500000
v 0.41701000 0.34362000 0.75700000
v 0.41701000 -0.21662000 0.75700000
vt 0.55078125 0.57421875
vt 0.55859375 0.57421875
vt 0.55859375 0.35546875
vt 0.55078125 0.35546875
vn -0.54919615 -0.00000000 0.83569348
f 45/45/12 46/46/12 47/47/12
f 45/45/12 47/47/12 48/48/12
g bag_bottom
v 0.42640000 -0.21650000 0.06500000
v -0.45060000 -0.21650000 0.06500000
v -0.45060000 0.34350000 0.06500000
v 0.42640000 0.34350000 0.06500000
vt 0.59765625 0.57421875
vt 0.66796875 0.57421875
vt 0.66796875 0.48046875
vt 0.59765625 0.48046875
vn -0.00000000 -0.00000000 -1.00000000
f 49/49/13 50/50/13 51/51/13
f 49/49/13 51/51/13 52/52/13
g bag_inside_floor
v 0.36501000 0.30430000 0.10000000
v -0.38921000 0.30430000 0.10000000
v -0.38921000 -0.17730000 0.10000000
v 0.36501000 -0.17730000 0.10000000
vt 0.01953125 0.57421875
vt 0.51171875 0.57421875
vt 0.51171875 0.33203125
vt 0.01953125 0.33203125
vn -0.00000000 -0.00000000 1.00000000
f 53/53/14 54/54/14 55/55/14
f 53/53/14 55/55/14 56/56/14
g frame_post_front
v 0.44440000 0.36150000 0.00000000
v 0.42640000 0.36150000 0.00000000
v 0.42640000 0.36150000 0.79930000
v 0.44440000 0.36150000 0.79930000
vt 0.55078125 0.57421875
vt 0.55859375 0.57421875
vt 0.55859375 0.35546875
vt 0.55078125 0.35546875
vn -0.00000000 1.00000000 0.00000000
f 57/57/15 58/58/15 59/59/15
f 57/57/15 59/59/15 60/60/15
g frame_post_right
v 0.42640000 0.36150000 0.00000000
v 0.42640000 0.34350000 0.00000000
v 0.42640000 0.34350000 0.79930000
v 0.42640000 0.36150000 0.79930000
vt 0.55078125 0.57421875
vt 0.55859375 0.57421875
vt 0.55859375 0.35546875
vt 0.55078125 0.35546875
vn -1.00000000 -0.00000000 0.00000000
f 61/61/16 62/62/16 63/63/16
f 61/61/16 63/63/16 64/64/16
g frame_post_rear
v 0.42640000 0.34350000 0.00000000
v 0.44440000 0.34350000 0.00000000
v 0.44440000 0.34350000 0.79930000
v 0.42640000 0.34350000 0.79930000
vt 0.55078125 0.57421875
vt 0.55859375 0.57421875
vt 0.55859375 0.35546875
vt 0.55078125 0.35546875
vn -0.00000000 -1.00000000 0.00000000
f 65/65/17 66/66/17 67/67/17
f 65/65/17 67/67/17 68/68/17
g frame_post_left
v 0.44440000 0.34350000 0.00000000
v 0.44440000 0.36150000 0.00000000
v 0.44440000 0.36150000 0.79930000
v 0.44440000 0.34350000 0.79930000
vt 0.55078125 0.57421875
vt 0.55859375 0.57421875
vt 0.55859375 0.35546875
vt 0.55078125 0.35546875
vn 1.00000000 -0.00000000 0.00000000
f 69/69/18 70/70/18 71/71/18
f 69/69/18 71/71/18 72/72/18
g frame_post_front
v 0.44440000 -0.21650000 0.00000000
v 0.42640000 -0.21650000 0.00000000
v 0.42640000 -0.21650000 0.79930000
v 0.44440000 -0.21650000 0.79930000
vt 0.55078125 0.57421875
vt 0.55859375 0.57421875
vt 0.55859375 0.35546875
vt 0.55078125 0.35546875
vn -0.00000000 1.00000000 0.00000000
f 73/73/19 74/74/19 75/75/19
f 73/73/19 75/75/19 76/76/19
g frame_post_right
v 0.42640000 -0.21650000 0.00000000
v 0.42640000 -0.23450000 0.00000000
v 0.42640000 -0.23450000 0.79930000
v 0.42640000 -0.21650000 0.79930000
vt 0.55078125 0.57421875
vt 0.55859375 0.57421875
vt 0.55859375 0.35546875
vt 0.55078125 0.35546875
vn -1.00000000 -0.00000000 0.00000000
f 77/77/20 78/78/20 79/79/20
f 77/77/20 79/79/20 80/80/20
g frame_post_rear
v 0.42640000 -0.23450000 0.00000000
v 0.44440000 -0.23450000 0.00000000
v 0.44440000 -0.23450000 0.79930000
v 0.42640000 -0.23450000 0.79930000
vt 0.55078125 0.57421875
vt 0.55859375 0.57421875
vt 0.55859375 0.35546875
vt 0.55078125 0.35546875
vn -0.00000000 -1.00000000 0.00000000
f 81/81/21 82/82/21 83/83/21
f 81/81/21 83/83/21 84/84/21
g frame_post_left
v 0.44440000 -0.23450000 0.00000000
v 0.44440000 -0.21650000 0.00000000
v 0.44440000 -0.21650000 0.79930000
v 0.44440000 -0.23450000 0.79930000
vt 0.55078125 0.57421875
vt 0.55859375 0.57421875
vt 0.55859375 0.35546875
vt 0.55078125 0.35546875
vn 1.00000000 -0.00000000 0.00000000
f 85/85/22 86/86/22 87/87/22
f 85/85/22 87/87/22 88/88/22
g frame_post_front
v -0.45060000 0.36150000 0.00000000
v -0.46860000 0.36150000 0.00000000
v -0.46860000 0.36150000 0.79930000
v -0.45060000 0.36150000 0.79930000
vt 0.55078125 0.57421875
vt 0.55859375 0.57421875
vt 0.55859375 0.35546875
vt 0.55078125 0.35546875
vn -0.00000000 1.00000000 0.00000000
f 89/89/23 90/90/23 91/91/23
f 89/89/23 91/91/23 92/92/23
g frame_post_right
v -0.46860000 0.36150000 0.00000000
v -0.46860000 0.34350000 0.00000000
v -0.46860000 0.34350000 0.79930000
v -0.46860000 0.36150000 0.79930000
vt 0.55078125 0.57421875
vt 0.55859375 0.57421875
vt 0.55859375 0.35546875
vt 0.55078125 0.35546875
vn -1.00000000 -0.00000000 0.00000000
f 93/93/24 94/94/24 95/95/24
f 93/93/24 95/95/24 96/96/24
g frame_post_rear
v -0.46860000 0.34350000 0.00000000
v -0.45060000 0.34350000 0.00000000
v -0.45060000 0.34350000 0.79930000
v -0.46860000 0.34350000 0.79930000
vt 0.55078125 0.57421875
vt 0.55859375 0.57421875
vt 0.55859375 0.35546875
vt 0.55078125 0.35546875
vn -0.00000000 -1.00000000 0.00000000
f 97/97/25 98/98/25 99/99/25
f 97/97/25 99/99/25 100/100/25
g frame_post_left
v -0.45060000 0.34350000 0.00000000
v -0.45060000 0.36150000 0.00000000
v -0.45060000 0.36150000 0.79930000
v -0.45060000 0.34350000 0.79930000
vt 0.55078125 0.57421875
vt 0.55859375 0.57421875
vt 0.55859375 0.35546875
vt 0.55078125 0.35546875
vn 1.00000000 -0.00000000 0.00000000
f 101/101/26 102/102/26 103/103/26
f 101/101/26 103/103/26 104/104/26
g frame_post_front
v -0.45060000 -0.21650000 0.00000000
v -0.46860000 -0.21650000 0.00000000
v -0.46860000 -0.21650000 0.79930000
v -0.45060000 -0.21650000 0.79930000
vt 0.55078125 0.57421875
vt 0.55859375 0.57421875
vt 0.55859375 0.35546875
vt 0.55078125 0.35546875
vn -0.00000000 1.00000000 0.00000000
f 105/105/27 106/106/27 107/107/27
f 105/105/27 107/107/27 108/108/27
g frame_post_right
v -0.46860000 -0.21650000 0.00000000
v -0.46860000 -0.23450000 0.00000000
v -0.46860000 -0.23450000 0.79930000
v -0.46860000 -0.21650000 0.79930000
vt 0.55078125 0.57421875
vt 0.55859375 0.57421875
vt 0.55859375 0.35546875
vt 0.55078125 0.35546875
vn -1.00000000 -0.00000000 0.00000000
f 109/109/28 110/110/28 111/111/28
f 109/109/28 111/111/28 112/112/28
g frame_post_rear
v -0.46860000 -0.23450000 0.00000000
v -0.45060000 -0.23450000 0.00000000
v -0.45060000 -0.23450000 0.79930000
v -0.46860000 -0.23450000 0.79930000
vt 0.55078125 0.57421875
vt 0.55859375 0.57421875
vt 0.55859375 0.35546875
vt 0.55078125 0.35546875
vn -0.00000000 -1.00000000 0.00000000
f 113/113/29 114/114/29 115/115/29
f 113/113/29 115/115/29 116/116/29
g frame_post_left
v -0.45060000 -0.23450000 0.00000000
v -0.45060000 -0.21650000 0.00000000
v -0.45060000 -0.21650000 0.79930000
v -0.45060000 -0.23450000 0.79930000
vt 0.55078125 0.57421875
vt 0.55859375 0.57421875
vt 0.55859375 0.35546875
vt 0.55078125 0.35546875
vn 1.00000000 -0.00000000 0.00000000
f 117/117/30 118/118/30 119/119/30
f 117/117/30 119/119/30 120/120/30
g lower_frame_long_bottom
v 0.42640000 0.36150000 0.03500000
v 0.42640000 0.34350000 0.03500000
v -0.45060000 0.34350000 0.03500000
v -0.45060000 0.36150000 0.03500000
vt 0.55078125 0.57421875
vt 0.55859375 0.57421875
vt 0.55859375 0.35546875
vt 0.55078125 0.35546875
vn -0.00000000 -0.00000000 -1.00000000
f 121/121/31 122/122/31 123/123/31
f 121/121/31 123/123/31 124/124/31
g lower_frame_long_top
v 0.42640000 0.36150000 0.05700000
v -0.45060000 0.36150000 0.05700000
v -0.45060000 0.34350000 0.05700000
v 0.42640000 0.34350000 0.05700000
vt 0.55078125 0.57421875
vt 0.55859375 0.57421875
vt 0.55859375 0.35546875
vt 0.55078125 0.35546875
vn -0.00000000 -0.00000000 1.00000000
f 125/125/32 126/126/32 127/127/32
f 125/125/32 127/127/32 128/128/32
g lower_frame_long_front
v 0.42640000 0.36150000 0.03500000
v -0.45060000 0.36150000 0.03500000
v -0.45060000 0.36150000 0.05700000
v 0.42640000 0.36150000 0.05700000
vt 0.55078125 0.57421875
vt 0.55859375 0.57421875
vt 0.55859375 0.35546875
vt 0.55078125 0.35546875
vn -0.00000000 1.00000000 0.00000000
f 129/129/33 130/130/33 131/131/33
f 129/129/33 131/131/33 132/132/33
g lower_frame_long_rear
v -0.45060000 0.34350000 0.03500000
v 0.42640000 0.34350000 0.03500000
v 0.42640000 0.34350000 0.05700000
v -0.45060000 0.34350000 0.05700000
vt 0.55078125 0.57421875
vt 0.55859375 0.57421875
vt 0.55859375 0.35546875
vt 0.55078125 0.35546875
vn -0.00000000 -1.00000000 0.00000000
f 133/133/34 134/134/34 135/135/34
f 133/133/34 135/135/34 136/136/34
g lower_frame_long_bottom
v 0.42640000 -0.21650000 0.03500000
v 0.42640000 -0.23450000 0.03500000
v -0.45060000 -0.23450000 0.03500000
v -0.45060000 -0.21650000 0.03500000
vt 0.55078125 0.57421875
vt 0.55859375 0.57421875
vt 0.55859375 0.35546875
vt 0.55078125 0.35546875
vn -0.00000000 -0.00000000 -1.00000000
f 137/137/35 138/138/35 139/139/35
f 137/137/35 139/139/35 140/140/35
g lower_frame_long_top
v 0.42640000 -0.21650000 0.05700000
v -0.45060000 -0.21650000 0.05700000
v -0.45060000 -0.23450000 0.05700000
v 0.42640000 -0.23450000 0.05700000
vt 0.55078125 0.57421875
vt 0.55859375 0.57421875
vt 0.55859375 0.35546875
vt 0.55078125 0.35546875
vn -0.00000000 -0.00000000 1.00000000
f 141/141/36 142/142/36 143/143/36
f 141/141/36 143/143/36 144/144/36
g lower_frame_long_front
v 0.42640000 -0.21650000 0.03500000
v -0.45060000 -0.21650000 0.03500000
v -0.45060000 -0.21650000 0.05700000
v 0.42640000 -0.21650000 0.05700000
vt 0.55078125 0.57421875
vt 0.55859375 0.57421875
vt 0.55859375 0.35546875
vt 0.55078125 0.35546875
vn -0.00000000 1.00000000 0.00000000
f 145/145/37 146/146/37 147/147/37
f 145/145/37 147/147/37 148/148/37
g lower_frame_long_rear
v -0.45060000 -0.23450000 0.03500000
v 0.42640000 -0.23450000 0.03500000
v 0.42640000 -0.23450000 0.05700000
v -0.45060000 -0.23450000 0.05700000
vt 0.55078125 0.57421875
vt 0.55859375 0.57421875
vt 0.55859375 0.35546875
vt 0.55078125 0.35546875
vn -0.00000000 -1.00000000 0.00000000
f 149/149/38 150/150/38 151/151/38
f 149/149/38 151/151/38 152/152/38
g lower_frame_short_bottom
v 0.44440000 0.34350000 0.03500000
v 0.44440000 -0.21650000 0.03500000
v 0.42640000 -0.21650000 0.03500000
v 0.42640000 0.34350000 0.03500000
vt 0.55078125 0.57421875
vt 0.55859375 0.57421875
vt 0.55859375 0.35546875
vt 0.55078125 0.35546875
vn -0.00000000 -0.00000000 -1.00000000
f 153/153/39 154/154/39 155/155/39
f 153/153/39 155/155/39 156/156/39
g lower_frame_short_top
v 0.44440000 0.34350000 0.05700000
v 0.42640000 0.34350000 0.05700000
v 0.42640000 -0.21650000 0.05700000
v 0.44440000 -0.21650000 0.05700000
vt 0.55078125 0.57421875
vt 0.55859375 0.57421875
vt 0.55859375 0.35546875
vt 0.55078125 0.35546875
vn -0.00000000 -0.00000000 1.00000000
f 157/157/40 158/158/40 159/159/40
f 157/157/40 159/159/40 160/160/40
g lower_frame_short_right
v 0.42640000 0.34350000 0.03500000
v 0.42640000 -0.21650000 0.03500000
v 0.42640000 -0.21650000 0.05700000
v 0.42640000 0.34350000 0.05700000
vt 0.55078125 0.57421875
vt 0.55859375 0.57421875
vt 0.55859375 0.35546875
vt 0.55078125 0.35546875
vn -1.00000000 -0.00000000 0.00000000
f 161/161/41 162/162/41 163/163/41
f 161/161/41 163/163/41 164/164/41
g lower_frame_short_left
v 0.44440000 -0.21650000 0.03500000
v 0.44440000 0.34350000 0.03500000
v 0.44440000 0.34350000 0.05700000
v 0.44440000 -0.21650000 0.05700000
vt 0.55078125 0.57421875
vt 0.55859375 0.57421875
vt 0.55859375 0.35546875
vt 0.55078125 0.35546875
vn 1.00000000 -0.00000000 0.00000000
f 165/165/42 166/166/42 167/167/42
f 165/165/42 167/167/42 168/168/42
g lower_frame_short_bottom
v -0.45060000 0.34350000 0.03500000
v -0.45060000 -0.21650000 0.03500000
v -0.46860000 -0.21650000 0.03500000
v -0.46860000 0.34350000 0.03500000
vt 0.55078125 0.57421875
vt 0.55859375 0.57421875
vt 0.55859375 0.35546875
vt 0.55078125 0.35546875
vn -0.00000000 -0.00000000 -1.00000000
f 169/169/43 170/170/43 171/171/43
f 169/169/43 171/171/43 172/172/43
g lower_frame_short_top
v -0.45060000 0.34350000 0.05700000
v -0.46860000 0.34350000 0.05700000
v -0.46860000 -0.21650000 0.05700000
v -0.45060000 -0.21650000 0.05700000
vt 0.55078125 0.57421875
vt 0.55859375 0.57421875
vt 0.55859375 0.35546875
vt 0.55078125 0.35546875
vn -0.00000000 -0.00000000 1.00000000
f 173/173/44 174/174/44 175/175/44
f 173/173/44 175/175/44 176/176/44
g lower_frame_short_right
v -0.46860000 0.34350000 0.03500000
v -0.46860000 -0.21650000 0.03500000
v -0.46860000 -0.21650000 0.05700000
v -0.46860000 0.34350000 0.05700000
vt 0.55078125 0.57421875
vt 0.55859375 0.57421875
vt 0.55859375 0.35546875
vt 0.55078125 0.35546875
vn -1.00000000 -0.00000000 0.00000000
f 177/177/45 178/178/45 179/179/45
f 177/177/45 179/179/45 180/180/45
g lower_frame_short_left
v -0.45060000 -0.21650000 0.03500000
v -0.45060000 0.34350000 0.03500000
v -0.45060000 0.34350000 0.05700000
v -0.45060000 -0.21650000 0.05700000
vt 0.55078125 0.57421875
vt 0.55859375 0.57421875
vt 0.55859375 0.35546875
vt 0.55078125 0.35546875
vn 1.00000000 -0.00000000 0.00000000
f 181/181/46 182/182/46 183/183/46
f 181/181/46 183/183/46 184/184/46
