# Original G019 Pizza Dinner; Z up; tile units
mtllib pz_g019_pizza_dinner_table_part1.mtl
o pz_g019_pizza_dinner_table_part1
usemtl NativeSurface
g tabletop_edge
v -0.44117186 -0.40952200 0.76860000
v -0.35117186 -0.49952200 0.76860000
v -0.35117186 -0.49952200 0.95940000
v -0.44117186 -0.40952200 0.95940000
vt 0.75781250 0.84375000
vt 0.78906250 0.84375000
vt 0.78906250 0.71875000
vt 0.75781250 0.71875000
vn -0.70710678 -0.70710678 0.00000000
f 1/1/1 2/2/1 3/3/1
f 1/1/1 3/3/1 4/4/1
g tabletop_edge
v -0.35117186 -0.49952200 0.76860000
v 0.50000000 -0.49952200 0.76860000
v 0.50000000 -0.49952200 0.95940000
v -0.35117186 -0.49952200 0.95940000
vt 0.75781250 0.84375000
vt 0.78906250 0.84375000
vt 0.78906250 0.71875000
vt 0.75781250 0.71875000
vn -0.00000000 -1.00000000 0.00000000
f 5/5/2 6/6/2 7/7/2
f 5/5/2 7/7/2 8/8/2
g tabletop_edge
v 0.50000000 0.50112200 0.76860000
v -0.35117186 0.50112200 0.76860000
v -0.35117186 0.50112200 0.95940000
v 0.50000000 0.50112200 0.95940000
vt 0.75781250 0.84375000
vt 0.78906250 0.84375000
vt 0.78906250 0.71875000
vt 0.75781250 0.71875000
vn -0.00000000 1.00000000 0.00000000
f 9/9/3 10/10/3 11/11/3
f 9/9/3 11/11/3 12/12/3
g tabletop_edge
v -0.35117186 0.50112200 0.76860000
v -0.44117186 0.41112200 0.76860000
v -0.44117186 0.41112200 0.95940000
v -0.35117186 0.50112200 0.95940000
vt 0.75781250 0.84375000
vt 0.78906250 0.84375000
vt 0.78906250 0.71875000
vt 0.75781250 0.71875000
vn -0.70710678 0.70710678 0.00000000
f 13/13/4 14/14/4 15/15/4
f 13/13/4 15/15/4 16/16/4
g tabletop_edge
v -0.44117186 0.41112200 0.76860000
v -0.44117186 -0.40952200 0.76860000
v -0.44117186 -0.40952200 0.95940000
v -0.44117186 0.41112200 0.95940000
vt 0.75781250 0.84375000
vt 0.78906250 0.84375000
vt 0.78906250 0.71875000
vt 0.75781250 0.71875000
vn -1.00000000 -0.00000000 0.00000000
f 17/17/5 18/18/5 19/19/5
f 17/17/5 19/19/5 20/20/5
g tabletop_rim
v -0.44117186 -0.40952200 0.95940000
v -0.35117186 -0.49952200 0.95940000
v -0.27617186 -0.42452200 0.95940000
v -0.36617186 -0.33452200 0.95940000
vt 0.86718750 0.84375000
vt 0.88281250 0.84375000
vt 0.88281250 0.71875000
vt 0.86718750 0.71875000
vn -0.00000000 -0.00000000 1.00000000
f 21/21/6 22/22/6 23/23/6
f 21/21/6 23/23/6 24/24/6
g tabletop_rim
v -0.35117186 -0.49952200 0.95940000
v 0.50000000 -0.49952200 0.95940000
v 0.50000000 -0.42452200 0.95940000
v -0.27617186 -0.42452200 0.95940000
vt 0.86718750 0.84375000
vt 0.88281250 0.84375000
vt 0.88281250 0.71875000
vt 0.86718750 0.71875000
vn -0.00000000 -0.00000000 1.00000000
f 25/25/7 26/26/7 27/27/7
f 25/25/7 27/27/7 28/28/7
g tabletop_rim
v 0.50000000 0.50112200 0.95940000
v -0.35117186 0.50112200 0.95940000
v -0.27617186 0.42612200 0.95940000
v 0.50000000 0.42612200 0.95940000
vt 0.86718750 0.84375000
vt 0.88281250 0.84375000
vt 0.88281250 0.71875000
vt 0.86718750 0.71875000
vn -0.00000000 -0.00000000 1.00000000
f 29/29/8 30/30/8 31/31/8
f 29/29/8 31/31/8 32/32/8
g tabletop_rim
v -0.35117186 0.50112200 0.95940000
v -0.44117186 0.41112200 0.95940000
v -0.36617186 0.33612200 0.95940000
v -0.27617186 0.42612200 0.95940000
vt 0.86718750 0.84375000
vt 0.88281250 0.84375000
vt 0.88281250 0.71875000
vt 0.86718750 0.71875000
vn -0.00000000 -0.00000000 1.00000000
f 33/33/9 34/34/9 35/35/9
f 33/33/9 35/35/9 36/36/9
g tabletop_rim
v -0.44117186 0.41112200 0.95940000
v -0.44117186 -0.40952200 0.95940000
v -0.36617186 -0.33452200 0.95940000
v -0.36617186 0.33612200 0.95940000
vt 0.86718750 0.84375000
vt 0.88281250 0.84375000
vt 0.88281250 0.71875000
vt 0.86718750 0.71875000
vn -0.00000000 0.00000000 1.00000000
f 37/37/10 38/38/10 39/39/10
f 37/37/10 39/39/10 40/40/10
g tabletop_top
v -0.36617186 -0.33452200 0.95940000
v -0.27617186 -0.42452200 0.95940000
v 0.50000000 -0.42452200 0.95940000
v 0.50000000 -0.38224369 0.95940000
vt 0.22656250 0.84375000
vt 0.46093750 0.84375000
vt 0.46093750 0.53125000
vt 0.22656250 0.53125000
vn -0.00000000 -0.00000000 1.00000000
f 41/41/11 42/42/11 43/43/11
f 41/41/11 43/43/11 44/44/11
g tabletop_bottom
v -0.44117186 -0.40952200 0.76860000
v 0.50000000 -0.45701479 0.76860000
v 0.50000000 -0.49952200 0.76860000
v -0.35117186 -0.49952200 0.76860000
vt 0.03906250 0.84375000
vt 0.14843750 0.84375000
vt 0.14843750 0.40625000
vt 0.03906250 0.40625000
vn -0.00000000 -0.00000000 -1.00000000
f 45/45/12 46/46/12 47/47/12
f 45/45/12 47/47/12 48/48/12
g tabletop_top
v -0.36617186 -0.33452200 0.95940000
v 0.50000000 -0.38224369 0.95940000
v 0.50000000 -0.33452200 0.95940000
vt 0.22656250 0.84375000
vt 0.46093750 0.84375000
vt 0.46093750 0.53125000
vn -0.00000000 -0.00000000 1.00000000
f 49/49/13 50/50/13 51/51/13
g tabletop_bottom
v -0.44117186 -0.40952200 0.76860000
v 0.50000000 -0.40952200 0.76860000
v 0.50000000 -0.45701479 0.76860000
vt 0.03906250 0.84375000
vt 0.14843750 0.84375000
vt 0.14843750 0.40625000
vn -0.00000000 -0.00000000 -1.00000000
f 52/52/14 53/53/14 54/54/14
g tabletop_top
v -0.36617186 -0.33452200 0.95940000
v 0.50000000 -0.33452200 0.95940000
v 0.50000000 0.00251207 0.95940000
vt 0.22656250 0.84375000
vt 0.46093750 0.84375000
vt 0.46093750 0.53125000
vn -0.00000000 -0.00000000 1.00000000
f 55/55/15 56/56/15 57/57/15
g tabletop_bottom
v -0.44117186 -0.40952200 0.76860000
v 0.50000000 0.00272727 0.76860000
v 0.50000000 -0.40952200 0.76860000
vt 0.03906250 0.84375000
vt 0.14843750 0.84375000
vt 0.14843750 0.40625000
vn 0.00000000 -0.00000000 -1.00000000
f 58/58/16 59/59/16 60/60/16
g tabletop_top
v -0.36617186 -0.33452200 0.95940000
v 0.50000000 0.00251207 0.95940000
v 0.50000000 0.06880264 0.95940000
vt 0.22656250 0.84375000
vt 0.46093750 0.84375000
vt 0.46093750 0.53125000
vn -0.00000000 -0.00000000 1.00000000
f 61/61/17 62/62/17 63/63/17
g tabletop_bottom
v -0.44117186 -0.40952200 0.76860000
v 0.50000000 0.07102271 0.76860000
v 0.50000000 0.00272727 0.76860000
vt 0.03906250 0.84375000
vt 0.14843750 0.84375000
vt 0.14843750 0.40625000
vn -0.00000000 -0.00000000 -1.00000000
f 64/64/18 65/65/18 66/66/18
g tabletop_top
v -0.36617186 -0.33452200 0.95940000
v 0.50000000 0.06880264 0.95940000
v 0.50000000 0.42612200 0.95940000
v -0.27617186 0.42612200 0.95940000
vt 0.22656250 0.84375000
vt 0.46093750 0.84375000
vt 0.46093750 0.53125000
vt 0.22656250 0.53125000
vn -0.00000000 -0.00000000 1.00000000
f 67/67/19 68/68/19 69/69/19
f 67/67/19 69/69/19 70/70/19
g tabletop_bottom
v -0.44117186 -0.40952200 0.76860000
v -0.35117186 0.50112200 0.76860000
v 0.50000000 0.50112200 0.76860000
v 0.50000000 0.07102271 0.76860000
vt 0.03906250 0.84375000
vt 0.14843750 0.84375000
vt 0.14843750 0.40625000
vt 0.03906250 0.40625000
vn -0.00000000 -0.00000000 -1.00000000
f 71/71/20 72/72/20 73/73/20
f 71/71/20 73/73/20 74/74/20
g tabletop_top
v -0.36617186 -0.33452200 0.95940000
v -0.27617186 0.42612200 0.95940000
v -0.36617186 0.33612200 0.95940000
vt 0.22656250 0.84375000
vt 0.46093750 0.84375000
vt 0.46093750 0.53125000
vn -0.00000000 -0.00000000 1.00000000
f 75/75/21 76/76/21 77/77/21
g tabletop_bottom
v -0.44117186 -0.40952200 0.76860000
v -0.44117186 0.41112200 0.76860000
v -0.35117186 0.50112200 0.76860000
vt 0.03906250 0.84375000
vt 0.14843750 0.84375000
vt 0.14843750 0.40625000
vn -0.00000000 0.00000000 -1.00000000
f 78/78/22 79/79/22 80/80/22
g pedestal_0_side
v 0.50000000 -0.01649423 0.06404989
v 0.46032604 -0.03940000 0.06404989
v 0.46032604 -0.03940000 0.69275011
v 0.50000000 -0.01649423 0.69275011
vt 0.53906250 0.84375000
vt 0.67968750 0.84375000
vt 0.67968750 0.53125000
vt 0.53906250 0.53125000
vn -0.50000000 0.86602540 0.00000000
f 81/81/23 82/82/23 83/83/23
f 81/81/23 83/83/23 84/84/23
g pedestal_0_side
v 0.46032604 -0.03940000 0.06404989
v 0.46032604 -0.10080000 0.06404989
v 0.46032604 -0.10080000 0.69275011
v 0.46032604 -0.03940000 0.69275011
vt 0.53906250 0.84375000
vt 0.67968750 0.84375000
vt 0.67968750 0.53125000
vt 0.53906250 0.53125000
vn -1.00000000 -0.00000000 0.00000000
f 85/85/24 86/86/24 87/87/24
f 85/85/24 87/87/24 88/88/24
g pedestal_0_side
v 0.46032604 -0.10080000 0.06404989
v 0.50000000 -0.12370577 0.06404989
v 0.50000000 -0.12370577 0.69275011
v 0.46032604 -0.10080000 0.69275011
vt 0.53906250 0.84375000
vt 0.67968750 0.84375000
vt 0.67968750 0.53125000
vt 0.53906250 0.53125000
vn -0.50000000 -0.86602540 0.00000000
f 89/89/25 90/90/25 91/91/25
f 89/89/25 91/91/25 92/92/25
g pedestal_0_cap0
v 0.50000000 -0.10811731 0.06404989
v 0.46032604 -0.03940000 0.06404989
v 0.50000000 -0.01649423 0.06404989
vt 0.53906250 0.84375000
vt 0.67968750 0.84375000
vt 0.67968750 0.53125000
vn -0.00000000 -0.00000000 -1.00000000
f 93/93/26 94/94/26 95/95/26
g pedestal_0_cap1
v 0.50000000 -0.01649423 0.69275011
v 0.46032604 -0.03940000 0.69275011
v 0.50000000 -0.10811731 0.69275011
vt 0.53906250 0.84375000
vt 0.67968750 0.84375000
vt 0.67968750 0.53125000
vn -0.00000000 -0.00000000 1.00000000
f 96/96/27 97/97/27 98/98/27
g pedestal_0_cap0
v 0.50000000 -0.12370577 0.06404989
v 0.46032604 -0.10080000 0.06404989
v 0.46032604 -0.03940000 0.06404989
v 0.50000000 -0.10811731 0.06404989
vt 0.53906250 0.84375000
vt 0.67968750 0.84375000
vt 0.67968750 0.53125000
vt 0.53906250 0.53125000
vn -0.00000000 -0.00000000 -1.00000000
f 99/99/28 100/100/28 101/101/28
f 99/99/28 101/101/28 102/102/28
g pedestal_0_cap1
v 0.50000000 -0.10811731 0.69275011
v 0.46032604 -0.03940000 0.69275011
v 0.46032604 -0.10080000 0.69275011
v 0.50000000 -0.12370577 0.69275011
vt 0.53906250 0.84375000
vt 0.67968750 0.84375000
vt 0.67968750 0.53125000
vt 0.53906250 0.53125000
vn -0.00000000 -0.00000000 1.00000000
f 103/103/29 104/104/29 105/105/29
f 103/103/29 105/105/29 106/106/29
g pedestal_1_side
v 0.50000000 0.04524996 0.00000000
v 0.40958702 -0.00695000 0.00000000
v 0.40958702 -0.00695000 0.06525022
v 0.50000000 0.04524996 0.06525022
vt 0.53906250 0.84375000
vt 0.67968750 0.84375000
vt 0.67968750 0.53125000
vt 0.53906250 0.53125000
vn -0.50000000 0.86602540 0.00000000
f 107/107/30 108/108/30 109/109/30
f 107/107/30 109/109/30 110/110/30
g pedestal_1_side
v 0.40958702 -0.00695000 0.00000000
v 0.40958702 -0.13225000 0.00000000
v 0.40958702 -0.13225000 0.06525022
v 0.40958702 -0.00695000 0.06525022
vt 0.53906250 0.84375000
vt 0.67968750 0.84375000
vt 0.67968750 0.53125000
vt 0.53906250 0.53125000
vn -1.00000000 -0.00000000 0.00000000
f 111/111/31 112/112/31 113/113/31
f 111/111/31 113/113/31 114/114/31
g pedestal_1_side
v 0.40958702 -0.13225000 0.00000000
v 0.50000000 -0.18444996 0.00000000
v 0.50000000 -0.18444996 0.06525022
v 0.40958702 -0.13225000 0.06525022
vt 0.53906250 0.84375000
vt 0.67968750 0.84375000
vt 0.67968750 0.53125000
vt 0.53906250 0.53125000
vn -0.50000000 -0.86602540 0.00000000
f 115/115/32 116/116/32 117/117/32
f 115/115/32 117/117/32 118/118/32
g pedestal_1_cap0
v 0.50000000 -0.16354988 0.00000000
v 0.40958702 -0.00695000 0.00000000
v 0.50000000 0.04524996 0.00000000
vt 0.53906250 0.84375000
vt 0.67968750 0.84375000
vt 0.67968750 0.53125000
vn -0.00000000 -0.00000000 -1.00000000
f 119/119/33 120/120/33 121/121/33
g pedestal_1_cap1
v 0.50000000 0.04524996 0.06525022
v 0.40958702 -0.00695000 0.06525022
v 0.50000000 -0.16354988 0.06525022
vt 0.53906250 0.84375000
vt 0.67968750 0.84375000
vt 0.67968750 0.53125000
vn -0.00000000 -0.00000000 1.00000000
f 122/122/34 123/123/34 124/124/34
g pedestal_1_cap0
v 0.50000000 -0.18444996 0.00000000
v 0.40958702 -0.13225000 0.00000000
v 0.40958702 -0.00695000 0.00000000
v 0.50000000 -0.16354988 0.00000000
vt 0.53906250 0.84375000
vt 0.67968750 0.84375000
vt 0.67968750 0.53125000
vt 0.53906250 0.53125000
vn -0.00000000 -0.00000000 -1.00000000
f 125/125/35 126/126/35 127/127/35
f 125/125/35 127/127/35 128/128/35
g pedestal_1_cap1
v 0.50000000 -0.16354988 0.06525022
v 0.40958702 -0.00695000 0.06525022
v 0.40958702 -0.13225000 0.06525022
v 0.50000000 -0.18444996 0.06525022
vt 0.53906250 0.84375000
vt 0.67968750 0.84375000
vt 0.67968750 0.53125000
vt 0.53906250 0.53125000
vn -0.00000000 -0.00000000 1.00000000
f 129/129/36 130/130/36 131/131/36
f 129/129/36 131/131/36 132/132/36
