# Original G019 Small Black; Z up; tile units
mtllib pz_g019_small_black_display.mtl
o pz_g019_small_black_display
usemtl NativeSurface
g wire_deck_side
v 0.30000000 0.35000000 0.96400000
v 0.30600000 0.35000000 0.97000000
v 0.30600000 -0.45000000 0.97000000
v 0.30000000 -0.45000000 0.96400000
vt 0.03906250 0.68750000
vt 0.05468750 0.68750000
vt 0.05468750 0.43750000
vt 0.03906250 0.43750000
vn 0.70710678 -0.00000000 -0.70710678
f 1/1/1 2/2/1 3/3/1
f 1/1/1 3/3/1 4/4/1
g wire_deck_side
v 0.30600000 0.35000000 0.97000000
v 0.30000000 0.35000000 0.97600000
v 0.30000000 -0.45000000 0.97600000
v 0.30600000 -0.45000000 0.97000000
vt 0.03906250 0.68750000
vt 0.05468750 0.68750000
vt 0.05468750 0.43750000
vt 0.03906250 0.43750000
vn 0.70710678 -0.00000000 0.70710678
f 5/5/2 6/6/2 7/7/2
f 5/5/2 7/7/2 8/8/2
g wire_deck_side
v 0.30000000 0.35000000 0.97600000
v 0.29400000 0.35000000 0.97000000
v 0.29400000 -0.45000000 0.97000000
v 0.30000000 -0.45000000 0.97600000
vt 0.03906250 0.68750000
vt 0.05468750 0.68750000
vt 0.05468750 0.43750000
vt 0.03906250 0.43750000
vn -0.70710678 -0.00000000 0.70710678
f 9/9/3 10/10/3 11/11/3
f 9/9/3 11/11/3 12/12/3
g wire_deck_side
v 0.29400000 0.35000000 0.97000000
v 0.30000000 0.35000000 0.96400000
v 0.30000000 -0.45000000 0.96400000
v 0.29400000 -0.45000000 0.97000000
vt 0.03906250 0.68750000
vt 0.05468750 0.68750000
vt 0.05468750 0.43750000
vt 0.03906250 0.43750000
vn -0.70710678 -0.00000000 -0.70710678
f 13/13/4 14/14/4 15/15/4
f 13/13/4 15/15/4 16/16/4
g wire_deck_cap0
v 0.30000000 0.35000000 0.96400000
v 0.30000000 0.35000000 0.97600000
v 0.30600000 0.35000000 0.97000000
vt 0.03906250 0.68750000
vt 0.05468750 0.68750000
vt 0.05468750 0.43750000
vn -0.00000000 1.00000000 0.00000000
f 17/17/5 18/18/5 19/19/5
g wire_deck_cap1
v 0.30000000 -0.45000000 0.96400000
v 0.30600000 -0.45000000 0.97000000
v 0.30000000 -0.45000000 0.97600000
vt 0.03906250 0.68750000
vt 0.05468750 0.68750000
vt 0.05468750 0.43750000
vn -0.00000000 -1.00000000 -0.00000000
f 20/20/6 21/21/6 22/22/6
g wire_deck_cap0
v 0.30000000 0.35000000 0.96400000
v 0.29400000 0.35000000 0.97000000
v 0.30000000 0.35000000 0.97600000
vt 0.03906250 0.68750000
vt 0.05468750 0.68750000
vt 0.05468750 0.43750000
vn -0.00000000 1.00000000 0.00000000
f 23/23/7 24/24/7 25/25/7
g wire_deck_cap1
v 0.30000000 -0.45000000 0.96400000
v 0.30000000 -0.45000000 0.97600000
v 0.29400000 -0.45000000 0.97000000
vt 0.03906250 0.68750000
vt 0.05468750 0.68750000
vt 0.05468750 0.43750000
vn -0.00000000 -1.00000000 0.00000000
f 26/26/8 27/27/8 28/28/8
g wire_deck_side
v 0.22500000 0.35000000 0.96400000
v 0.23100000 0.35000000 0.97000000
v 0.23100000 -0.45000000 0.97000000
v 0.22500000 -0.45000000 0.96400000
vt 0.03906250 0.68750000
vt 0.05468750 0.68750000
vt 0.05468750 0.43750000
vt 0.03906250 0.43750000
vn 0.70710678 -0.00000000 -0.70710678
f 29/29/9 30/30/9 31/31/9
f 29/29/9 31/31/9 32/32/9
g wire_deck_side
v 0.23100000 0.35000000 0.97000000
v 0.22500000 0.35000000 0.97600000
v 0.22500000 -0.45000000 0.97600000
v 0.23100000 -0.45000000 0.97000000
vt 0.03906250 0.68750000
vt 0.05468750 0.68750000
vt 0.05468750 0.43750000
vt 0.03906250 0.43750000
vn 0.70710678 -0.00000000 0.70710678
f 33/33/10 34/34/10 35/35/10
f 33/33/10 35/35/10 36/36/10
g wire_deck_side
v 0.22500000 0.35000000 0.97600000
v 0.21900000 0.35000000 0.97000000
v 0.21900000 -0.45000000 0.97000000
v 0.22500000 -0.45000000 0.97600000
vt 0.03906250 0.68750000
vt 0.05468750 0.68750000
vt 0.05468750 0.43750000
vt 0.03906250 0.43750000
vn -0.70710678 -0.00000000 0.70710678
f 37/37/11 38/38/11 39/39/11
f 37/37/11 39/39/11 40/40/11
g wire_deck_side
v 0.21900000 0.35000000 0.97000000
v 0.22500000 0.35000000 0.96400000
v 0.22500000 -0.45000000 0.96400000
v 0.21900000 -0.45000000 0.97000000
vt 0.03906250 0.68750000
vt 0.05468750 0.68750000
vt 0.05468750 0.43750000
vt 0.03906250 0.43750000
vn -0.70710678 -0.00000000 -0.70710678
f 41/41/12 42/42/12 43/43/12
f 41/41/12 43/43/12 44/44/12
g wire_deck_cap0
v 0.22500000 0.35000000 0.96400000
v 0.22500000 0.35000000 0.97600000
v 0.23100000 0.35000000 0.97000000
vt 0.03906250 0.68750000
vt 0.05468750 0.68750000
vt 0.05468750 0.43750000
vn -0.00000000 1.00000000 0.00000000
f 45/45/13 46/46/13 47/47/13
g wire_deck_cap1
v 0.22500000 -0.45000000 0.96400000
v 0.23100000 -0.45000000 0.97000000
v 0.22500000 -0.45000000 0.97600000
vt 0.03906250 0.68750000
vt 0.05468750 0.68750000
vt 0.05468750 0.43750000
vn -0.00000000 -1.00000000 -0.00000000
f 48/48/14 49/49/14 50/50/14
g wire_deck_cap0
v 0.22500000 0.35000000 0.96400000
v 0.21900000 0.35000000 0.97000000
v 0.22500000 0.35000000 0.97600000
vt 0.03906250 0.68750000
vt 0.05468750 0.68750000
vt 0.05468750 0.43750000
vn -0.00000000 1.00000000 0.00000000
f 51/51/15 52/52/15 53/53/15
g wire_deck_cap1
v 0.22500000 -0.45000000 0.96400000
v 0.22500000 -0.45000000 0.97600000
v 0.21900000 -0.45000000 0.97000000
vt 0.03906250 0.68750000
vt 0.05468750 0.68750000
vt 0.05468750 0.43750000
vn -0.00000000 -1.00000000 0.00000000
f 54/54/16 55/55/16 56/56/16
g wire_deck_side
v 0.15000000 0.35000000 0.96400000
v 0.15600000 0.35000000 0.97000000
v 0.15600000 -0.45000000 0.97000000
v 0.15000000 -0.45000000 0.96400000
vt 0.03906250 0.68750000
vt 0.05468750 0.68750000
vt 0.05468750 0.43750000
vt 0.03906250 0.43750000
vn 0.70710678 -0.00000000 -0.70710678
f 57/57/17 58/58/17 59/59/17
f 57/57/17 59/59/17 60/60/17
g wire_deck_side
v 0.15600000 0.35000000 0.97000000
v 0.15000000 0.35000000 0.97600000
v 0.15000000 -0.45000000 0.97600000
v 0.15600000 -0.45000000 0.97000000
vt 0.03906250 0.68750000
vt 0.05468750 0.68750000
vt 0.05468750 0.43750000
vt 0.03906250 0.43750000
vn 0.70710678 -0.00000000 0.70710678
f 61/61/18 62/62/18 63/63/18
f 61/61/18 63/63/18 64/64/18
g wire_deck_side
v 0.15000000 0.35000000 0.97600000
v 0.14400000 0.35000000 0.97000000
v 0.14400000 -0.45000000 0.97000000
v 0.15000000 -0.45000000 0.97600000
vt 0.03906250 0.68750000
vt 0.05468750 0.68750000
vt 0.05468750 0.43750000
vt 0.03906250 0.43750000
vn -0.70710678 -0.00000000 0.70710678
f 65/65/19 66/66/19 67/67/19
f 65/65/19 67/67/19 68/68/19
g wire_deck_side
v 0.14400000 0.35000000 0.97000000
v 0.15000000 0.35000000 0.96400000
v 0.15000000 -0.45000000 0.96400000
v 0.14400000 -0.45000000 0.97000000
vt 0.03906250 0.68750000
vt 0.05468750 0.68750000
vt 0.05468750 0.43750000
vt 0.03906250 0.43750000
vn -0.70710678 -0.00000000 -0.70710678
f 69/69/20 70/70/20 71/71/20
f 69/69/20 71/71/20 72/72/20
g wire_deck_cap0
v 0.15000000 0.35000000 0.96400000
v 0.15000000 0.35000000 0.97600000
v 0.15600000 0.35000000 0.97000000
vt 0.03906250 0.68750000
vt 0.05468750 0.68750000
vt 0.05468750 0.43750000
vn -0.00000000 1.00000000 0.00000000
f 73/73/21 74/74/21 75/75/21
g wire_deck_cap1
v 0.15000000 -0.45000000 0.96400000
v 0.15600000 -0.45000000 0.97000000
v 0.15000000 -0.45000000 0.97600000
vt 0.03906250 0.68750000
vt 0.05468750 0.68750000
vt 0.05468750 0.43750000
vn -0.00000000 -1.00000000 -0.00000000
f 76/76/22 77/77/22 78/78/22
g wire_deck_cap0
v 0.15000000 0.35000000 0.96400000
v 0.14400000 0.35000000 0.97000000
v 0.15000000 0.35000000 0.97600000
vt 0.03906250 0.68750000
vt 0.05468750 0.68750000
vt 0.05468750 0.43750000
vn -0.00000000 1.00000000 0.00000000
f 79/79/23 80/80/23 81/81/23
g wire_deck_cap1
v 0.15000000 -0.45000000 0.96400000
v 0.15000000 -0.45000000 0.97600000
v 0.14400000 -0.45000000 0.97000000
vt 0.03906250 0.68750000
vt 0.05468750 0.68750000
vt 0.05468750 0.43750000
vn -0.00000000 -1.00000000 0.00000000
f 82/82/24 83/83/24 84/84/24
g wire_deck_side
v 0.07500000 0.35000000 0.96400000
v 0.08100000 0.35000000 0.97000000
v 0.08100000 -0.45000000 0.97000000
v 0.07500000 -0.45000000 0.96400000
vt 0.03906250 0.68750000
vt 0.05468750 0.68750000
vt 0.05468750 0.43750000
vt 0.03906250 0.43750000
vn 0.70710678 -0.00000000 -0.70710678
f 85/85/25 86/86/25 87/87/25
f 85/85/25 87/87/25 88/88/25
g wire_deck_side
v 0.08100000 0.35000000 0.97000000
v 0.07500000 0.35000000 0.97600000
v 0.07500000 -0.45000000 0.97600000
v 0.08100000 -0.45000000 0.97000000
vt 0.03906250 0.68750000
vt 0.05468750 0.68750000
vt 0.05468750 0.43750000
vt 0.03906250 0.43750000
vn 0.70710678 -0.00000000 0.70710678
f 89/89/26 90/90/26 91/91/26
f 89/89/26 91/91/26 92/92/26
g wire_deck_side
v 0.07500000 0.35000000 0.97600000
v 0.06900000 0.35000000 0.97000000
v 0.06900000 -0.45000000 0.97000000
v 0.07500000 -0.45000000 0.97600000
vt 0.03906250 0.68750000
vt 0.05468750 0.68750000
vt 0.05468750 0.43750000
vt 0.03906250 0.43750000
vn -0.70710678 -0.00000000 0.70710678
f 93/93/27 94/94/27 95/95/27
f 93/93/27 95/95/27 96/96/27
g wire_deck_side
v 0.06900000 0.35000000 0.97000000
v 0.07500000 0.35000000 0.96400000
v 0.07500000 -0.45000000 0.96400000
v 0.06900000 -0.45000000 0.97000000
vt 0.03906250 0.68750000
vt 0.05468750 0.68750000
vt 0.05468750 0.43750000
vt 0.03906250 0.43750000
vn -0.70710678 -0.00000000 -0.70710678
f 97/97/28 98/98/28 99/99/28
f 97/97/28 99/99/28 100/100/28
g wire_deck_cap0
v 0.07500000 0.35000000 0.96400000
v 0.07500000 0.35000000 0.97600000
v 0.08100000 0.35000000 0.97000000
vt 0.03906250 0.68750000
vt 0.05468750 0.68750000
vt 0.05468750 0.43750000
vn -0.00000000 1.00000000 0.00000000
f 101/101/29 102/102/29 103/103/29
g wire_deck_cap1
v 0.07500000 -0.45000000 0.96400000
v 0.08100000 -0.45000000 0.97000000
v 0.07500000 -0.45000000 0.97600000
vt 0.03906250 0.68750000
vt 0.05468750 0.68750000
vt 0.05468750 0.43750000
vn -0.00000000 -1.00000000 -0.00000000
f 104/104/30 105/105/30 106/106/30
g wire_deck_cap0
v 0.07500000 0.35000000 0.96400000
v 0.06900000 0.35000000 0.97000000
v 0.07500000 0.35000000 0.97600000
vt 0.03906250 0.68750000
vt 0.05468750 0.68750000
vt 0.05468750 0.43750000
vn -0.00000000 1.00000000 0.00000000
f 107/107/31 108/108/31 109/109/31
g wire_deck_cap1
v 0.07500000 -0.45000000 0.96400000
v 0.07500000 -0.45000000 0.97600000
v 0.06900000 -0.45000000 0.97000000
vt 0.03906250 0.68750000
vt 0.05468750 0.68750000
vt 0.05468750 0.43750000
vn -0.00000000 -1.00000000 0.00000000
f 110/110/32 111/111/32 112/112/32
g wire_deck_side
v -0.00000000 0.35000000 0.96400000
v 0.00600000 0.35000000 0.97000000
v 0.00600000 -0.45000000 0.97000000
v -0.00000000 -0.45000000 0.96400000
vt 0.03906250 0.68750000
vt 0.05468750 0.68750000
vt 0.05468750 0.43750000
vt 0.03906250 0.43750000
vn 0.70710678 -0.00000000 -0.70710678
f 113/113/33 114/114/33 115/115/33
f 113/113/33 115/115/33 116/116/33
g wire_deck_side
v 0.00600000 0.35000000 0.97000000
v 0.00000000 0.35000000 0.97600000
v 0.00000000 -0.45000000 0.97600000
v 0.00600000 -0.45000000 0.97000000
vt 0.03906250 0.68750000
vt 0.05468750 0.68750000
vt 0.05468750 0.43750000
vt 0.03906250 0.43750000
vn 0.70710678 -0.00000000 0.70710678
f 117/117/34 118/118/34 119/119/34
f 117/117/34 119/119/34 120/120/34
g wire_deck_side
v 0.00000000 0.35000000 0.97600000
v -0.00600000 0.35000000 0.97000000
v -0.00600000 -0.45000000 0.97000000
v 0.00000000 -0.45000000 0.97600000
vt 0.03906250 0.68750000
vt 0.05468750 0.68750000
vt 0.05468750 0.43750000
vt 0.03906250 0.43750000
vn -0.70710678 -0.00000000 0.70710678
f 121/121/35 122/122/35 123/123/35
f 121/121/35 123/123/35 124/124/35
g wire_deck_side
v -0.00600000 0.35000000 0.97000000
v -0.00000000 0.35000000 0.96400000
v -0.00000000 -0.45000000 0.96400000
v -0.00600000 -0.45000000 0.97000000
vt 0.03906250 0.68750000
vt 0.05468750 0.68750000
vt 0.05468750 0.43750000
vt 0.03906250 0.43750000
vn -0.70710678 -0.00000000 -0.70710678
f 125/125/36 126/126/36 127/127/36
f 125/125/36 127/127/36 128/128/36
g wire_deck_cap0
v -0.00000000 0.35000000 0.96400000
v 0.00000000 0.35000000 0.97600000
v 0.00600000 0.35000000 0.97000000
vt 0.03906250 0.68750000
vt 0.05468750 0.68750000
vt 0.05468750 0.43750000
vn -0.00000000 1.00000000 0.00000000
f 129/129/37 130/130/37 131/131/37
g wire_deck_cap1
v -0.00000000 -0.45000000 0.96400000
v 0.00600000 -0.45000000 0.97000000
v 0.00000000 -0.45000000 0.97600000
vt 0.03906250 0.68750000
vt 0.05468750 0.68750000
vt 0.05468750 0.43750000
vn -0.00000000 -1.00000000 0.00000000
f 132/132/38 133/133/38 134/134/38
g wire_deck_cap0
v -0.00000000 0.35000000 0.96400000
v -0.00600000 0.35000000 0.97000000
v 0.00000000 0.35000000 0.97600000
vt 0.03906250 0.68750000
vt 0.05468750 0.68750000
vt 0.05468750 0.43750000
vn -0.00000000 1.00000000 0.00000000
f 135/135/39 136/136/39 137/137/39
g wire_deck_cap1
v -0.00000000 -0.45000000 0.96400000
v 0.00000000 -0.45000000 0.97600000
v -0.00600000 -0.45000000 0.97000000
vt 0.03906250 0.68750000
vt 0.05468750 0.68750000
vt 0.05468750 0.43750000
vn -0.00000000 -1.00000000 -0.00000000
f 138/138/40 139/139/40 140/140/40
g wire_deck_side
v -0.07500000 0.35000000 0.96400000
v -0.06900000 0.35000000 0.97000000
v -0.06900000 -0.45000000 0.97000000
v -0.07500000 -0.45000000 0.96400000
vt 0.03906250 0.68750000
vt 0.05468750 0.68750000
vt 0.05468750 0.43750000
vt 0.03906250 0.43750000
vn 0.70710678 -0.00000000 -0.70710678
f 141/141/41 142/142/41 143/143/41
f 141/141/41 143/143/41 144/144/41
g wire_deck_side
v -0.06900000 0.35000000 0.97000000
v -0.07500000 0.35000000 0.97600000
v -0.07500000 -0.45000000 0.97600000
v -0.06900000 -0.45000000 0.97000000
vt 0.03906250 0.68750000
vt 0.05468750 0.68750000
vt 0.05468750 0.43750000
vt 0.03906250 0.43750000
vn 0.70710678 -0.00000000 0.70710678
f 145/145/42 146/146/42 147/147/42
f 145/145/42 147/147/42 148/148/42
g wire_deck_side
v -0.07500000 0.35000000 0.97600000
v -0.08100000 0.35000000 0.97000000
v -0.08100000 -0.45000000 0.97000000
v -0.07500000 -0.45000000 0.97600000
vt 0.03906250 0.68750000
vt 0.05468750 0.68750000
vt 0.05468750 0.43750000
vt 0.03906250 0.43750000
vn -0.70710678 -0.00000000 0.70710678
f 149/149/43 150/150/43 151/151/43
f 149/149/43 151/151/43 152/152/43
g wire_deck_side
v -0.08100000 0.35000000 0.97000000
v -0.07500000 0.35000000 0.96400000
v -0.07500000 -0.45000000 0.96400000
v -0.08100000 -0.45000000 0.97000000
vt 0.03906250 0.68750000
vt 0.05468750 0.68750000
vt 0.05468750 0.43750000
vt 0.03906250 0.43750000
vn -0.70710678 -0.00000000 -0.70710678
f 153/153/44 154/154/44 155/155/44
f 153/153/44 155/155/44 156/156/44
g wire_deck_cap0
v -0.07500000 0.35000000 0.96400000
v -0.07500000 0.35000000 0.97600000
v -0.06900000 0.35000000 0.97000000
vt 0.03906250 0.68750000
vt 0.05468750 0.68750000
vt 0.05468750 0.43750000
vn -0.00000000 1.00000000 0.00000000
f 157/157/45 158/158/45 159/159/45
g wire_deck_cap1
v -0.07500000 -0.45000000 0.96400000
v -0.06900000 -0.45000000 0.97000000
v -0.07500000 -0.45000000 0.97600000
vt 0.03906250 0.68750000
vt 0.05468750 0.68750000
vt 0.05468750 0.43750000
vn -0.00000000 -1.00000000 -0.00000000
f 160/160/46 161/161/46 162/162/46
g wire_deck_cap0
v -0.07500000 0.35000000 0.96400000
v -0.08100000 0.35000000 0.97000000
v -0.07500000 0.35000000 0.97600000
vt 0.03906250 0.68750000
vt 0.05468750 0.68750000
vt 0.05468750 0.43750000
vn -0.00000000 1.00000000 0.00000000
f 163/163/47 164/164/47 165/165/47
g wire_deck_cap1
v -0.07500000 -0.45000000 0.96400000
v -0.07500000 -0.45000000 0.97600000
v -0.08100000 -0.45000000 0.97000000
vt 0.03906250 0.68750000
vt 0.05468750 0.68750000
vt 0.05468750 0.43750000
vn -0.00000000 -1.00000000 0.00000000
f 166/166/48 167/167/48 168/168/48
g wire_deck_side
v -0.15000000 0.35000000 0.96400000
v -0.14400000 0.35000000 0.97000000
v -0.14400000 -0.45000000 0.97000000
v -0.15000000 -0.45000000 0.96400000
vt 0.03906250 0.68750000
vt 0.05468750 0.68750000
vt 0.05468750 0.43750000
vt 0.03906250 0.43750000
vn 0.70710678 -0.00000000 -0.70710678
f 169/169/49 170/170/49 171/171/49
f 169/169/49 171/171/49 172/172/49
g wire_deck_side
v -0.14400000 0.35000000 0.97000000
v -0.15000000 0.35000000 0.97600000
v -0.15000000 -0.45000000 0.97600000
v -0.14400000 -0.45000000 0.97000000
vt 0.03906250 0.68750000
vt 0.05468750 0.68750000
vt 0.05468750 0.43750000
vt 0.03906250 0.43750000
vn 0.70710678 -0.00000000 0.70710678
f 173/173/50 174/174/50 175/175/50
f 173/173/50 175/175/50 176/176/50
g wire_deck_side
v -0.15000000 0.35000000 0.97600000
v -0.15600000 0.35000000 0.97000000
v -0.15600000 -0.45000000 0.97000000
v -0.15000000 -0.45000000 0.97600000
vt 0.03906250 0.68750000
vt 0.05468750 0.68750000
vt 0.05468750 0.43750000
vt 0.03906250 0.43750000
vn -0.70710678 -0.00000000 0.70710678
f 177/177/51 178/178/51 179/179/51
f 177/177/51 179/179/51 180/180/51
g wire_deck_side
v -0.15600000 0.35000000 0.97000000
v -0.15000000 0.35000000 0.96400000
v -0.15000000 -0.45000000 0.96400000
v -0.15600000 -0.45000000 0.97000000
vt 0.03906250 0.68750000
vt 0.05468750 0.68750000
vt 0.05468750 0.43750000
vt 0.03906250 0.43750000
vn -0.70710678 -0.00000000 -0.70710678
f 181/181/52 182/182/52 183/183/52
f 181/181/52 183/183/52 184/184/52
g wire_deck_cap0
v -0.15000000 0.35000000 0.96400000
v -0.15000000 0.35000000 0.97600000
v -0.14400000 0.35000000 0.97000000
vt 0.03906250 0.68750000
vt 0.05468750 0.68750000
vt 0.05468750 0.43750000
vn -0.00000000 1.00000000 0.00000000
f 185/185/53 186/186/53 187/187/53
g wire_deck_cap1
v -0.15000000 -0.45000000 0.96400000
v -0.14400000 -0.45000000 0.97000000
v -0.15000000 -0.45000000 0.97600000
vt 0.03906250 0.68750000
vt 0.05468750 0.68750000
vt 0.05468750 0.43750000
vn -0.00000000 -1.00000000 -0.00000000
f 188/188/54 189/189/54 190/190/54
g wire_deck_cap0
v -0.15000000 0.35000000 0.96400000
v -0.15600000 0.35000000 0.97000000
v -0.15000000 0.35000000 0.97600000
vt 0.03906250 0.68750000
vt 0.05468750 0.68750000
vt 0.05468750 0.43750000
vn -0.00000000 1.00000000 0.00000000
f 191/191/55 192/192/55 193/193/55
g wire_deck_cap1
v -0.15000000 -0.45000000 0.96400000
v -0.15000000 -0.45000000 0.97600000
v -0.15600000 -0.45000000 0.97000000
vt 0.03906250 0.68750000
vt 0.05468750 0.68750000
vt 0.05468750 0.43750000
vn -0.00000000 -1.00000000 0.00000000
f 194/194/56 195/195/56 196/196/56
g wire_frame_side
v 0.30000000 0.35000000 0.97900000
v 0.30000000 0.35900000 0.97000000
v -0.15000000 0.35900000 0.97000000
v -0.15000000 0.35000000 0.97900000
vt 0.03906250 0.68750000
vt 0.05468750 0.68750000
vt 0.05468750 0.43750000
vt 0.03906250 0.43750000
vn -0.00000000 0.70710678 0.70710678
f 197/197/57 198/198/57 199/199/57
f 197/197/57 199/199/57 200/200/57
g wire_frame_side
v 0.30000000 0.35900000 0.97000000
v 0.30000000 0.35000000 0.96100000
v -0.15000000 0.35000000 0.96100000
v -0.15000000 0.35900000 0.97000000
vt 0.03906250 0.68750000
vt 0.05468750 0.68750000
vt 0.05468750 0.43750000
vt 0.03906250 0.43750000
vn -0.00000000 0.70710678 -0.70710678
f 201/201/58 202/202/58 203/203/58
f 201/201/58 203/203/58 204/204/58
g wire_frame_side
v 0.30000000 0.35000000 0.96100000
v 0.30000000 0.34100000 0.97000000
v -0.15000000 0.34100000 0.97000000
v -0.15000000 0.35000000 0.96100000
vt 0.03906250 0.68750000
vt 0.05468750 0.68750000
vt 0.05468750 0.43750000
vt 0.03906250 0.43750000
vn -0.00000000 -0.70710678 -0.70710678
f 205/205/59 206/206/59 207/207/59
f 205/205/59 207/207/59 208/208/59
g wire_frame_side
v 0.30000000 0.34100000 0.97000000
v 0.30000000 0.35000000 0.97900000
v -0.15000000 0.35000000 0.97900000
v -0.15000000 0.34100000 0.97000000
vt 0.03906250 0.68750000
vt 0.05468750 0.68750000
vt 0.05468750 0.43750000
vt 0.03906250 0.43750000
vn -0.00000000 -0.70710678 0.70710678
f 209/209/60 210/210/60 211/211/60
f 209/209/60 211/211/60 212/212/60
g wire_frame_cap0
v 0.30000000 0.35000000 0.97900000
v 0.30000000 0.35000000 0.96100000
v 0.30000000 0.35900000 0.97000000
vt 0.03906250 0.68750000
vt 0.05468750 0.68750000
vt 0.05468750 0.43750000
vn 1.00000000 -0.00000000 -0.00000000
f 213/213/61 214/214/61 215/215/61
g wire_frame_cap1
v -0.15000000 0.35000000 0.97900000
v -0.15000000 0.35900000 0.97000000
v -0.15000000 0.35000000 0.96100000
vt 0.03906250 0.68750000
vt 0.05468750 0.68750000
vt 0.05468750 0.43750000
vn -1.00000000 -0.00000000 0.00000000
f 216/216/62 217/217/62 218/218/62
g wire_frame_cap0
v 0.30000000 0.35000000 0.97900000
v 0.30000000 0.34100000 0.97000000
v 0.30000000 0.35000000 0.96100000
vt 0.03906250 0.68750000
vt 0.05468750 0.68750000
vt 0.05468750 0.43750000
vn 1.00000000 -0.00000000 0.00000000
f 219/219/63 220/220/63 221/221/63
g wire_frame_cap1
v -0.15000000 0.35000000 0.97900000
v -0.15000000 0.35000000 0.96100000
v -0.15000000 0.34100000 0.97000000
vt 0.03906250 0.68750000
vt 0.05468750 0.68750000
vt 0.05468750 0.43750000
vn -1.00000000 -0.00000000 0.00000000
f 222/222/64 223/223/64 224/224/64
g wire_frame_side
v 0.30000000 0.08333333 0.97600000
v 0.30000000 0.08933333 0.97000000
v -0.15000000 0.08933333 0.97000000
v -0.15000000 0.08333333 0.97600000
vt 0.03906250 0.68750000
vt 0.05468750 0.68750000
vt 0.05468750 0.43750000
vt 0.03906250 0.43750000
vn -0.00000000 0.70710678 0.70710678
f 225/225/65 226/226/65 227/227/65
f 225/225/65 227/227/65 228/228/65
g wire_frame_side
v 0.30000000 0.08933333 0.97000000
v 0.30000000 0.08333333 0.96400000
v -0.15000000 0.08333333 0.96400000
v -0.15000000 0.08933333 0.97000000
vt 0.03906250 0.68750000
vt 0.05468750 0.68750000
vt 0.05468750 0.43750000
vt 0.03906250 0.43750000
vn -0.00000000 0.70710678 -0.70710678
f 229/229/66 230/230/66 231/231/66
f 229/229/66 231/231/66 232/232/66
g wire_frame_side
v 0.30000000 0.08333333 0.96400000
v 0.30000000 0.07733333 0.97000000
v -0.15000000 0.07733333 0.97000000
v -0.15000000 0.08333333 0.96400000
vt 0.03906250 0.68750000
vt 0.05468750 0.68750000
vt 0.05468750 0.43750000
vt 0.03906250 0.43750000
vn -0.00000000 -0.70710678 -0.70710678
f 233/233/67 234/234/67 235/235/67
f 233/233/67 235/235/67 236/236/67
g wire_frame_side
v 0.30000000 0.07733333 0.97000000
v 0.30000000 0.08333333 0.97600000
v -0.15000000 0.08333333 0.97600000
v -0.15000000 0.07733333 0.97000000
vt 0.03906250 0.68750000
vt 0.05468750 0.68750000
vt 0.05468750 0.43750000
vt 0.03906250 0.43750000
vn -0.00000000 -0.70710678 0.70710678
f 237/237/68 238/238/68 239/239/68
f 237/237/68 239/239/68 240/240/68
g wire_frame_cap0
v 0.30000000 0.08333333 0.97600000
v 0.30000000 0.08333333 0.96400000
v 0.30000000 0.08933333 0.97000000
vt 0.03906250 0.68750000
vt 0.05468750 0.68750000
vt 0.05468750 0.43750000
vn 1.00000000 -0.00000000 -0.00000000
f 241/241/69 242/242/69 243/243/69
g wire_frame_cap1
v -0.15000000 0.08333333 0.97600000
v -0.15000000 0.08933333 0.97000000
v -0.15000000 0.08333333 0.96400000
vt 0.03906250 0.68750000
vt 0.05468750 0.68750000
vt 0.05468750 0.43750000
vn -1.00000000 -0.00000000 0.00000000
f 244/244/70 245/245/70 246/246/70
g wire_frame_cap0
v 0.30000000 0.08333333 0.97600000
v 0.30000000 0.07733333 0.97000000
v 0.30000000 0.08333333 0.96400000
vt 0.03906250 0.68750000
vt 0.05468750 0.68750000
vt 0.05468750 0.43750000
vn 1.00000000 -0.00000000 0.00000000
f 247/247/71 248/248/71 249/249/71
g wire_frame_cap1
v -0.15000000 0.08333333 0.97600000
v -0.15000000 0.08333333 0.96400000
v -0.15000000 0.07733333 0.97000000
vt 0.03906250 0.68750000
vt 0.05468750 0.68750000
vt 0.05468750 0.43750000
vn -1.00000000 -0.00000000 0.00000000
f 250/250/72 251/251/72 252/252/72
g wire_frame_side
v 0.30000000 -0.18333333 0.97600000
v 0.30000000 -0.17733333 0.97000000
v -0.15000000 -0.17733333 0.97000000
v -0.15000000 -0.18333333 0.97600000
vt 0.03906250 0.68750000
vt 0.05468750 0.68750000
vt 0.05468750 0.43750000
vt 0.03906250 0.43750000
vn -0.00000000 0.70710678 0.70710678
f 253/253/73 254/254/73 255/255/73
f 253/253/73 255/255/73 256/256/73
g wire_frame_side
v 0.30000000 -0.17733333 0.97000000
v 0.30000000 -0.18333333 0.96400000
v -0.15000000 -0.18333333 0.96400000
v -0.15000000 -0.17733333 0.97000000
vt 0.03906250 0.68750000
vt 0.05468750 0.68750000
vt 0.05468750 0.43750000
vt 0.03906250 0.43750000
vn -0.00000000 0.70710678 -0.70710678
f 257/257/74 258/258/74 259/259/74
f 257/257/74 259/259/74 260/260/74
g wire_frame_side
v 0.30000000 -0.18333333 0.96400000
v 0.30000000 -0.18933333 0.97000000
v -0.15000000 -0.18933333 0.97000000
v -0.15000000 -0.18333333 0.96400000
vt 0.03906250 0.68750000
vt 0.05468750 0.68750000
vt 0.05468750 0.43750000
vt 0.03906250 0.43750000
vn -0.00000000 -0.70710678 -0.70710678
f 261/261/75 262/262/75 263/263/75
f 261/261/75 263/263/75 264/264/75
g wire_frame_side
v 0.30000000 -0.18933333 0.97000000
v 0.30000000 -0.18333333 0.97600000
v -0.15000000 -0.18333333 0.97600000
v -0.15000000 -0.18933333 0.97000000
vt 0.03906250 0.68750000
vt 0.05468750 0.68750000
vt 0.05468750 0.43750000
vt 0.03906250 0.43750000
vn -0.00000000 -0.70710678 0.70710678
f 265/265/76 266/266/76 267/267/76
f 265/265/76 267/267/76 268/268/76
g wire_frame_cap0
v 0.30000000 -0.18333333 0.97600000
v 0.30000000 -0.18333333 0.96400000
v 0.30000000 -0.17733333 0.97000000
vt 0.03906250 0.68750000
vt 0.05468750 0.68750000
vt 0.05468750 0.43750000
vn 1.00000000 -0.00000000 -0.00000000
f 269/269/77 270/270/77 271/271/77
g wire_frame_cap1
v -0.15000000 -0.18333333 0.97600000
v -0.15000000 -0.17733333 0.97000000
v -0.15000000 -0.18333333 0.96400000
vt 0.03906250 0.68750000
vt 0.05468750 0.68750000
vt 0.05468750 0.43750000
vn -1.00000000 -0.00000000 0.00000000
f 272/272/78 273/273/78 274/274/78
g wire_frame_cap0
v 0.30000000 -0.18333333 0.97600000
v 0.30000000 -0.18933333 0.97000000
v 0.30000000 -0.18333333 0.96400000
vt 0.03906250 0.68750000
vt 0.05468750 0.68750000
vt 0.05468750 0.43750000
vn 1.00000000 -0.00000000 0.00000000
f 275/275/79 276/276/79 277/277/79
g wire_frame_cap1
v -0.15000000 -0.18333333 0.97600000
v -0.15000000 -0.18333333 0.96400000
v -0.15000000 -0.18933333 0.97000000
vt 0.03906250 0.68750000
vt 0.05468750 0.68750000
vt 0.05468750 0.43750000
vn -1.00000000 -0.00000000 0.00000000
f 278/278/80 279/279/80 280/280/80
g wire_frame_side
v 0.30000000 -0.45000000 0.97900000
v 0.30000000 -0.44100000 0.97000000
v -0.15000000 -0.44100000 0.97000000
v -0.15000000 -0.45000000 0.97900000
vt 0.03906250 0.68750000
vt 0.05468750 0.68750000
vt 0.05468750 0.43750000
vt 0.03906250 0.43750000
vn -0.00000000 0.70710678 0.70710678
f 281/281/81 282/282/81 283/283/81
f 281/281/81 283/283/81 284/284/81
g wire_frame_side
v 0.30000000 -0.44100000 0.97000000
v 0.30000000 -0.45000000 0.96100000
v -0.15000000 -0.45000000 0.96100000
v -0.15000000 -0.44100000 0.97000000
vt 0.03906250 0.68750000
vt 0.05468750 0.68750000
vt 0.05468750 0.43750000
vt 0.03906250 0.43750000
vn -0.00000000 0.70710678 -0.70710678
f 285/285/82 286/286/82 287/287/82
f 285/285/82 287/287/82 288/288/82
g wire_frame_side
v 0.30000000 -0.45000000 0.96100000
v 0.30000000 -0.45900000 0.97000000
v -0.15000000 -0.45900000 0.97000000
v -0.15000000 -0.45000000 0.96100000
vt 0.03906250 0.68750000
vt 0.05468750 0.68750000
vt 0.05468750 0.43750000
vt 0.03906250 0.43750000
vn -0.00000000 -0.70710678 -0.70710678
f 289/289/83 290/290/83 291/291/83
f 289/289/83 291/291/83 292/292/83
g wire_frame_side
v 0.30000000 -0.45900000 0.97000000
v 0.30000000 -0.45000000 0.97900000
v -0.15000000 -0.45000000 0.97900000
v -0.15000000 -0.45900000 0.97000000
vt 0.03906250 0.68750000
vt 0.05468750 0.68750000
vt 0.05468750 0.43750000
vt 0.03906250 0.43750000
vn -0.00000000 -0.70710678 0.70710678
f 293/293/84 294/294/84 295/295/84
f 293/293/84 295/295/84 296/296/84
g wire_frame_cap0
v 0.30000000 -0.45000000 0.97900000
v 0.30000000 -0.45000000 0.96100000
v 0.30000000 -0.44100000 0.97000000
vt 0.03906250 0.68750000
vt 0.05468750 0.68750000
vt 0.05468750 0.43750000
vn 1.00000000 -0.00000000 -0.00000000
f 297/297/85 298/298/85 299/299/85
g wire_frame_cap1
v -0.15000000 -0.45000000 0.97900000
v -0.15000000 -0.44100000 0.97000000
v -0.15000000 -0.45000000 0.96100000
vt 0.03906250 0.68750000
vt 0.05468750 0.68750000
vt 0.05468750 0.43750000
vn -1.00000000 -0.00000000 0.00000000
f 300/300/86 301/301/86 302/302/86
g wire_frame_cap0
v 0.30000000 -0.45000000 0.97900000
v 0.30000000 -0.45900000 0.97000000
v 0.30000000 -0.45000000 0.96100000
vt 0.03906250 0.68750000
vt 0.05468750 0.68750000
vt 0.05468750 0.43750000
vn 1.00000000 -0.00000000 0.00000000
f 303/303/87 304/304/87 305/305/87
g wire_frame_cap1
v -0.15000000 -0.45000000 0.97900000
v -0.15000000 -0.45000000 0.96100000
v -0.15000000 -0.45900000 0.97000000
vt 0.03906250 0.68750000
vt 0.05468750 0.68750000
vt 0.05468750 0.43750000
vn -1.00000000 -0.00000000 0.00000000
f 306/306/88 307/307/88 308/308/88
g wire_deck_side
v 0.30000000 0.35000000 1.22400000
v 0.30600000 0.35000000 1.23000000
v 0.30600000 -0.45000000 1.23000000
v 0.30000000 -0.45000000 1.22400000
vt 0.03906250 0.68750000
vt 0.05468750 0.68750000
vt 0.05468750 0.43750000
vt 0.03906250 0.43750000
vn 0.70710678 -0.00000000 -0.70710678
f 309/309/89 310/310/89 311/311/89
f 309/309/89 311/311/89 312/312/89
g wire_deck_side
v 0.30600000 0.35000000 1.23000000
v 0.30000000 0.35000000 1.23600000
v 0.30000000 -0.45000000 1.23600000
v 0.30600000 -0.45000000 1.23000000
vt 0.03906250 0.68750000
vt 0.05468750 0.68750000
vt 0.05468750 0.43750000
vt 0.03906250 0.43750000
vn 0.70710678 -0.00000000 0.70710678
f 313/313/90 314/314/90 315/315/90
f 313/313/90 315/315/90 316/316/90
g wire_deck_side
v 0.30000000 0.35000000 1.23600000
v 0.29400000 0.35000000 1.23000000
v 0.29400000 -0.45000000 1.23000000
v 0.30000000 -0.45000000 1.23600000
vt 0.03906250 0.68750000
vt 0.05468750 0.68750000
vt 0.05468750 0.43750000
vt 0.03906250 0.43750000
vn -0.70710678 -0.00000000 0.70710678
f 317/317/91 318/318/91 319/319/91
f 317/317/91 319/319/91 320/320/91
g wire_deck_side
v 0.29400000 0.35000000 1.23000000
v 0.30000000 0.35000000 1.22400000
v 0.30000000 -0.45000000 1.22400000
v 0.29400000 -0.45000000 1.23000000
vt 0.03906250 0.68750000
vt 0.05468750 0.68750000
vt 0.05468750 0.43750000
vt 0.03906250 0.43750000
vn -0.70710678 -0.00000000 -0.70710678
f 321/321/92 322/322/92 323/323/92
f 321/321/92 323/323/92 324/324/92
g wire_deck_cap0
v 0.30000000 0.35000000 1.22400000
v 0.30000000 0.35000000 1.23600000
v 0.30600000 0.35000000 1.23000000
vt 0.03906250 0.68750000
vt 0.05468750 0.68750000
vt 0.05468750 0.43750000
vn -0.00000000 1.00000000 0.00000000
f 325/325/93 326/326/93 327/327/93
g wire_deck_cap1
v 0.30000000 -0.45000000 1.22400000
v 0.30600000 -0.45000000 1.23000000
v 0.30000000 -0.45000000 1.23600000
vt 0.03906250 0.68750000
vt 0.05468750 0.68750000
vt 0.05468750 0.43750000
vn -0.00000000 -1.00000000 -0.00000000
f 328/328/94 329/329/94 330/330/94
g wire_deck_cap0
v 0.30000000 0.35000000 1.22400000
v 0.29400000 0.35000000 1.23000000
v 0.30000000 0.35000000 1.23600000
vt 0.03906250 0.68750000
vt 0.05468750 0.68750000
vt 0.05468750 0.43750000
vn -0.00000000 1.00000000 0.00000000
f 331/331/95 332/332/95 333/333/95
g wire_deck_cap1
v 0.30000000 -0.45000000 1.22400000
v 0.30000000 -0.45000000 1.23600000
v 0.29400000 -0.45000000 1.23000000
vt 0.03906250 0.68750000
vt 0.05468750 0.68750000
vt 0.05468750 0.43750000
vn -0.00000000 -1.00000000 0.00000000
f 334/334/96 335/335/96 336/336/96
g wire_deck_side
v 0.22500000 0.35000000 1.22400000
v 0.23100000 0.35000000 1.23000000
v 0.23100000 -0.45000000 1.23000000
v 0.22500000 -0.45000000 1.22400000
vt 0.03906250 0.68750000
vt 0.05468750 0.68750000
vt 0.05468750 0.43750000
vt 0.03906250 0.43750000
vn 0.70710678 -0.00000000 -0.70710678
f 337/337/97 338/338/97 339/339/97
f 337/337/97 339/339/97 340/340/97
g wire_deck_side
v 0.23100000 0.35000000 1.23000000
v 0.22500000 0.35000000 1.23600000
v 0.22500000 -0.45000000 1.23600000
v 0.23100000 -0.45000000 1.23000000
vt 0.03906250 0.68750000
vt 0.05468750 0.68750000
vt 0.05468750 0.43750000
vt 0.03906250 0.43750000
vn 0.70710678 -0.00000000 0.70710678
f 341/341/98 342/342/98 343/343/98
f 341/341/98 343/343/98 344/344/98
g wire_deck_side
v 0.22500000 0.35000000 1.23600000
v 0.21900000 0.35000000 1.23000000
v 0.21900000 -0.45000000 1.23000000
v 0.22500000 -0.45000000 1.23600000
vt 0.03906250 0.68750000
vt 0.05468750 0.68750000
vt 0.05468750 0.43750000
vt 0.03906250 0.43750000
vn -0.70710678 -0.00000000 0.70710678
f 345/345/99 346/346/99 347/347/99
f 345/345/99 347/347/99 348/348/99
g wire_deck_side
v 0.21900000 0.35000000 1.23000000
v 0.22500000 0.35000000 1.22400000
v 0.22500000 -0.45000000 1.22400000
v 0.21900000 -0.45000000 1.23000000
vt 0.03906250 0.68750000
vt 0.05468750 0.68750000
vt 0.05468750 0.43750000
vt 0.03906250 0.43750000
vn -0.70710678 -0.00000000 -0.70710678
f 349/349/100 350/350/100 351/351/100
f 349/349/100 351/351/100 352/352/100
g wire_deck_cap0
v 0.22500000 0.35000000 1.22400000
v 0.22500000 0.35000000 1.23600000
v 0.23100000 0.35000000 1.23000000
vt 0.03906250 0.68750000
vt 0.05468750 0.68750000
vt 0.05468750 0.43750000
vn -0.00000000 1.00000000 0.00000000
f 353/353/101 354/354/101 355/355/101
g wire_deck_cap1
v 0.22500000 -0.45000000 1.22400000
v 0.23100000 -0.45000000 1.23000000
v 0.22500000 -0.45000000 1.23600000
vt 0.03906250 0.68750000
vt 0.05468750 0.68750000
vt 0.05468750 0.43750000
vn -0.00000000 -1.00000000 -0.00000000
f 356/356/102 357/357/102 358/358/102
g wire_deck_cap0
v 0.22500000 0.35000000 1.22400000
v 0.21900000 0.35000000 1.23000000
v 0.22500000 0.35000000 1.23600000
vt 0.03906250 0.68750000
vt 0.05468750 0.68750000
vt 0.05468750 0.43750000
vn -0.00000000 1.00000000 0.00000000
f 359/359/103 360/360/103 361/361/103
g wire_deck_cap1
v 0.22500000 -0.45000000 1.22400000
v 0.22500000 -0.45000000 1.23600000
v 0.21900000 -0.45000000 1.23000000
vt 0.03906250 0.68750000
vt 0.05468750 0.68750000
vt 0.05468750 0.43750000
vn -0.00000000 -1.00000000 0.00000000
f 362/362/104 363/363/104 364/364/104
g wire_deck_side
v 0.15000000 0.35000000 1.22400000
v 0.15600000 0.35000000 1.23000000
v 0.15600000 -0.45000000 1.23000000
v 0.15000000 -0.45000000 1.22400000
vt 0.03906250 0.68750000
vt 0.05468750 0.68750000
vt 0.05468750 0.43750000
vt 0.03906250 0.43750000
vn 0.70710678 -0.00000000 -0.70710678
f 365/365/105 366/366/105 367/367/105
f 365/365/105 367/367/105 368/368/105
g wire_deck_side
v 0.15600000 0.35000000 1.23000000
v 0.15000000 0.35000000 1.23600000
v 0.15000000 -0.45000000 1.23600000
v 0.15600000 -0.45000000 1.23000000
vt 0.03906250 0.68750000
vt 0.05468750 0.68750000
vt 0.05468750 0.43750000
vt 0.03906250 0.43750000
vn 0.70710678 -0.00000000 0.70710678
f 369/369/106 370/370/106 371/371/106
f 369/369/106 371/371/106 372/372/106
g wire_deck_side
v 0.15000000 0.35000000 1.23600000
v 0.14400000 0.35000000 1.23000000
v 0.14400000 -0.45000000 1.23000000
v 0.15000000 -0.45000000 1.23600000
vt 0.03906250 0.68750000
vt 0.05468750 0.68750000
vt 0.05468750 0.43750000
vt 0.03906250 0.43750000
vn -0.70710678 -0.00000000 0.70710678
f 373/373/107 374/374/107 375/375/107
f 373/373/107 375/375/107 376/376/107
g wire_deck_side
v 0.14400000 0.35000000 1.23000000
v 0.15000000 0.35000000 1.22400000
v 0.15000000 -0.45000000 1.22400000
v 0.14400000 -0.45000000 1.23000000
vt 0.03906250 0.68750000
vt 0.05468750 0.68750000
vt 0.05468750 0.43750000
vt 0.03906250 0.43750000
vn -0.70710678 -0.00000000 -0.70710678
f 377/377/108 378/378/108 379/379/108
f 377/377/108 379/379/108 380/380/108
g wire_deck_cap0
v 0.15000000 0.35000000 1.22400000
v 0.15000000 0.35000000 1.23600000
v 0.15600000 0.35000000 1.23000000
vt 0.03906250 0.68750000
vt 0.05468750 0.68750000
vt 0.05468750 0.43750000
vn -0.00000000 1.00000000 0.00000000
f 381/381/109 382/382/109 383/383/109
g wire_deck_cap1
v 0.15000000 -0.45000000 1.22400000
v 0.15600000 -0.45000000 1.23000000
v 0.15000000 -0.45000000 1.23600000
vt 0.03906250 0.68750000
vt 0.05468750 0.68750000
vt 0.05468750 0.43750000
vn -0.00000000 -1.00000000 -0.00000000
f 384/384/110 385/385/110 386/386/110
g wire_deck_cap0
v 0.15000000 0.35000000 1.22400000
v 0.14400000 0.35000000 1.23000000
v 0.15000000 0.35000000 1.23600000
vt 0.03906250 0.68750000
vt 0.05468750 0.68750000
vt 0.05468750 0.43750000
vn -0.00000000 1.00000000 0.00000000
f 387/387/111 388/388/111 389/389/111
g wire_deck_cap1
v 0.15000000 -0.45000000 1.22400000
v 0.15000000 -0.45000000 1.23600000
v 0.14400000 -0.45000000 1.23000000
vt 0.03906250 0.68750000
vt 0.05468750 0.68750000
vt 0.05468750 0.43750000
vn -0.00000000 -1.00000000 0.00000000
f 390/390/112 391/391/112 392/392/112
g wire_deck_side
v 0.07500000 0.35000000 1.22400000
v 0.08100000 0.35000000 1.23000000
v 0.08100000 -0.45000000 1.23000000
v 0.07500000 -0.45000000 1.22400000
vt 0.03906250 0.68750000
vt 0.05468750 0.68750000
vt 0.05468750 0.43750000
vt 0.03906250 0.43750000
vn 0.70710678 -0.00000000 -0.70710678
f 393/393/113 394/394/113 395/395/113
f 393/393/113 395/395/113 396/396/113
g wire_deck_side
v 0.08100000 0.35000000 1.23000000
v 0.07500000 0.35000000 1.23600000
v 0.07500000 -0.45000000 1.23600000
v 0.08100000 -0.45000000 1.23000000
vt 0.03906250 0.68750000
vt 0.05468750 0.68750000
vt 0.05468750 0.43750000
vt 0.03906250 0.43750000
vn 0.70710678 -0.00000000 0.70710678
f 397/397/114 398/398/114 399/399/114
f 397/397/114 399/399/114 400/400/114
g wire_deck_side
v 0.07500000 0.35000000 1.23600000
v 0.06900000 0.35000000 1.23000000
v 0.06900000 -0.45000000 1.23000000
v 0.07500000 -0.45000000 1.23600000
vt 0.03906250 0.68750000
vt 0.05468750 0.68750000
vt 0.05468750 0.43750000
vt 0.03906250 0.43750000
vn -0.70710678 -0.00000000 0.70710678
f 401/401/115 402/402/115 403/403/115
f 401/401/115 403/403/115 404/404/115
g wire_deck_side
v 0.06900000 0.35000000 1.23000000
v 0.07500000 0.35000000 1.22400000
v 0.07500000 -0.45000000 1.22400000
v 0.06900000 -0.45000000 1.23000000
vt 0.03906250 0.68750000
vt 0.05468750 0.68750000
vt 0.05468750 0.43750000
vt 0.03906250 0.43750000
vn -0.70710678 -0.00000000 -0.70710678
f 405/405/116 406/406/116 407/407/116
f 405/405/116 407/407/116 408/408/116
g wire_deck_cap0
v 0.07500000 0.35000000 1.22400000
v 0.07500000 0.35000000 1.23600000
v 0.08100000 0.35000000 1.23000000
vt 0.03906250 0.68750000
vt 0.05468750 0.68750000
vt 0.05468750 0.43750000
vn -0.00000000 1.00000000 0.00000000
f 409/409/117 410/410/117 411/411/117
g wire_deck_cap1
v 0.07500000 -0.45000000 1.22400000
v 0.08100000 -0.45000000 1.23000000
v 0.07500000 -0.45000000 1.23600000
vt 0.03906250 0.68750000
vt 0.05468750 0.68750000
vt 0.05468750 0.43750000
vn -0.00000000 -1.00000000 -0.00000000
f 412/412/118 413/413/118 414/414/118
g wire_deck_cap0
v 0.07500000 0.35000000 1.22400000
v 0.06900000 0.35000000 1.23000000
v 0.07500000 0.35000000 1.23600000
vt 0.03906250 0.68750000
vt 0.05468750 0.68750000
vt 0.05468750 0.43750000
vn -0.00000000 1.00000000 0.00000000
f 415/415/119 416/416/119 417/417/119
g wire_deck_cap1
v 0.07500000 -0.45000000 1.22400000
v 0.07500000 -0.45000000 1.23600000
v 0.06900000 -0.45000000 1.23000000
vt 0.03906250 0.68750000
vt 0.05468750 0.68750000
vt 0.05468750 0.43750000
vn -0.00000000 -1.00000000 0.00000000
f 418/418/120 419/419/120 420/420/120
g wire_deck_side
v -0.00000000 0.35000000 1.22400000
v 0.00600000 0.35000000 1.23000000
v 0.00600000 -0.45000000 1.23000000
v -0.00000000 -0.45000000 1.22400000
vt 0.03906250 0.68750000
vt 0.05468750 0.68750000
vt 0.05468750 0.43750000
vt 0.03906250 0.43750000
vn 0.70710678 -0.00000000 -0.70710678
f 421/421/121 422/422/121 423/423/121
f 421/421/121 423/423/121 424/424/121
g wire_deck_side
v 0.00600000 0.35000000 1.23000000
v 0.00000000 0.35000000 1.23600000
v 0.00000000 -0.45000000 1.23600000
v 0.00600000 -0.45000000 1.23000000
vt 0.03906250 0.68750000
vt 0.05468750 0.68750000
vt 0.05468750 0.43750000
vt 0.03906250 0.43750000
vn 0.70710678 -0.00000000 0.70710678
f 425/425/122 426/426/122 427/427/122
f 425/425/122 427/427/122 428/428/122
g wire_deck_side
v 0.00000000 0.35000000 1.23600000
v -0.00600000 0.35000000 1.23000000
v -0.00600000 -0.45000000 1.23000000
v 0.00000000 -0.45000000 1.23600000
vt 0.03906250 0.68750000
vt 0.05468750 0.68750000
vt 0.05468750 0.43750000
vt 0.03906250 0.43750000
vn -0.70710678 -0.00000000 0.70710678
f 429/429/123 430/430/123 431/431/123
f 429/429/123 431/431/123 432/432/123
g wire_deck_side
v -0.00600000 0.35000000 1.23000000
v -0.00000000 0.35000000 1.22400000
v -0.00000000 -0.45000000 1.22400000
v -0.00600000 -0.45000000 1.23000000
vt 0.03906250 0.68750000
vt 0.05468750 0.68750000
vt 0.05468750 0.43750000
vt 0.03906250 0.43750000
vn -0.70710678 -0.00000000 -0.70710678
f 433/433/124 434/434/124 435/435/124
f 433/433/124 435/435/124 436/436/124
g wire_deck_cap0
v -0.00000000 0.35000000 1.22400000
v 0.00000000 0.35000000 1.23600000
v 0.00600000 0.35000000 1.23000000
vt 0.03906250 0.68750000
vt 0.05468750 0.68750000
vt 0.05468750 0.43750000
vn -0.00000000 1.00000000 0.00000000
f 437/437/125 438/438/125 439/439/125
g wire_deck_cap1
v -0.00000000 -0.45000000 1.22400000
v 0.00600000 -0.45000000 1.23000000
v 0.00000000 -0.45000000 1.23600000
vt 0.03906250 0.68750000
vt 0.05468750 0.68750000
vt 0.05468750 0.43750000
vn -0.00000000 -1.00000000 0.00000000
f 440/440/126 441/441/126 442/442/126
g wire_deck_cap0
v -0.00000000 0.35000000 1.22400000
v -0.00600000 0.35000000 1.23000000
v 0.00000000 0.35000000 1.23600000
vt 0.03906250 0.68750000
vt 0.05468750 0.68750000
vt 0.05468750 0.43750000
vn -0.00000000 1.00000000 0.00000000
f 443/443/127 444/444/127 445/445/127
g wire_deck_cap1
v -0.00000000 -0.45000000 1.22400000
v 0.00000000 -0.45000000 1.23600000
v -0.00600000 -0.45000000 1.23000000
vt 0.03906250 0.68750000
vt 0.05468750 0.68750000
vt 0.05468750 0.43750000
vn -0.00000000 -1.00000000 -0.00000000
f 446/446/128 447/447/128 448/448/128
g wire_deck_side
v -0.07500000 0.35000000 1.22400000
v -0.06900000 0.35000000 1.23000000
v -0.06900000 -0.45000000 1.23000000
v -0.07500000 -0.45000000 1.22400000
vt 0.03906250 0.68750000
vt 0.05468750 0.68750000
vt 0.05468750 0.43750000
vt 0.03906250 0.43750000
vn 0.70710678 -0.00000000 -0.70710678
f 449/449/129 450/450/129 451/451/129
f 449/449/129 451/451/129 452/452/129
g wire_deck_side
v -0.06900000 0.35000000 1.23000000
v -0.07500000 0.35000000 1.23600000
v -0.07500000 -0.45000000 1.23600000
v -0.06900000 -0.45000000 1.23000000
vt 0.03906250 0.68750000
vt 0.05468750 0.68750000
vt 0.05468750 0.43750000
vt 0.03906250 0.43750000
vn 0.70710678 -0.00000000 0.70710678
f 453/453/130 454/454/130 455/455/130
f 453/453/130 455/455/130 456/456/130
g wire_deck_side
v -0.07500000 0.35000000 1.23600000
v -0.08100000 0.35000000 1.23000000
v -0.08100000 -0.45000000 1.23000000
v -0.07500000 -0.45000000 1.23600000
vt 0.03906250 0.68750000
vt 0.05468750 0.68750000
vt 0.05468750 0.43750000
vt 0.03906250 0.43750000
vn -0.70710678 -0.00000000 0.70710678
f 457/457/131 458/458/131 459/459/131
f 457/457/131 459/459/131 460/460/131
g wire_deck_side
v -0.08100000 0.35000000 1.23000000
v -0.07500000 0.35000000 1.22400000
v -0.07500000 -0.45000000 1.22400000
v -0.08100000 -0.45000000 1.23000000
vt 0.03906250 0.68750000
vt 0.05468750 0.68750000
vt 0.05468750 0.43750000
vt 0.03906250 0.43750000
vn -0.70710678 -0.00000000 -0.70710678
f 461/461/132 462/462/132 463/463/132
f 461/461/132 463/463/132 464/464/132
g wire_deck_cap0
v -0.07500000 0.35000000 1.22400000
v -0.07500000 0.35000000 1.23600000
v -0.06900000 0.35000000 1.23000000
vt 0.03906250 0.68750000
vt 0.05468750 0.68750000
vt 0.05468750 0.43750000
vn -0.00000000 1.00000000 0.00000000
f 465/465/133 466/466/133 467/467/133
g wire_deck_cap1
v -0.07500000 -0.45000000 1.22400000
v -0.06900000 -0.45000000 1.23000000
v -0.07500000 -0.45000000 1.23600000
vt 0.03906250 0.68750000
vt 0.05468750 0.68750000
vt 0.05468750 0.43750000
vn -0.00000000 -1.00000000 -0.00000000
f 468/468/134 469/469/134 470/470/134
g wire_deck_cap0
v -0.07500000 0.35000000 1.22400000
v -0.08100000 0.35000000 1.23000000
v -0.07500000 0.35000000 1.23600000
vt 0.03906250 0.68750000
vt 0.05468750 0.68750000
vt 0.05468750 0.43750000
vn -0.00000000 1.00000000 0.00000000
f 471/471/135 472/472/135 473/473/135
g wire_deck_cap1
v -0.07500000 -0.45000000 1.22400000
v -0.07500000 -0.45000000 1.23600000
v -0.08100000 -0.45000000 1.23000000
vt 0.03906250 0.68750000
vt 0.05468750 0.68750000
vt 0.05468750 0.43750000
vn -0.00000000 -1.00000000 0.00000000
f 474/474/136 475/475/136 476/476/136
g wire_deck_side
v -0.15000000 0.35000000 1.22400000
v -0.14400000 0.35000000 1.23000000
v -0.14400000 -0.45000000 1.23000000
v -0.15000000 -0.45000000 1.22400000
vt 0.03906250 0.68750000
vt 0.05468750 0.68750000
vt 0.05468750 0.43750000
vt 0.03906250 0.43750000
vn 0.70710678 -0.00000000 -0.70710678
f 477/477/137 478/478/137 479/479/137
f 477/477/137 479/479/137 480/480/137
g wire_deck_side
v -0.14400000 0.35000000 1.23000000
v -0.15000000 0.35000000 1.23600000
v -0.15000000 -0.45000000 1.23600000
v -0.14400000 -0.45000000 1.23000000
vt 0.03906250 0.68750000
vt 0.05468750 0.68750000
vt 0.05468750 0.43750000
vt 0.03906250 0.43750000
vn 0.70710678 -0.00000000 0.70710678
f 481/481/138 482/482/138 483/483/138
f 481/481/138 483/483/138 484/484/138
g wire_deck_side
v -0.15000000 0.35000000 1.23600000
v -0.15600000 0.35000000 1.23000000
v -0.15600000 -0.45000000 1.23000000
v -0.15000000 -0.45000000 1.23600000
vt 0.03906250 0.68750000
vt 0.05468750 0.68750000
vt 0.05468750 0.43750000
vt 0.03906250 0.43750000
vn -0.70710678 -0.00000000 0.70710678
f 485/485/139 486/486/139 487/487/139
f 485/485/139 487/487/139 488/488/139
g wire_deck_side
v -0.15600000 0.35000000 1.23000000
v -0.15000000 0.35000000 1.22400000
v -0.15000000 -0.45000000 1.22400000
v -0.15600000 -0.45000000 1.23000000
vt 0.03906250 0.68750000
vt 0.05468750 0.68750000
vt 0.05468750 0.43750000
vt 0.03906250 0.43750000
vn -0.70710678 -0.00000000 -0.70710678
f 489/489/140 490/490/140 491/491/140
f 489/489/140 491/491/140 492/492/140
g wire_deck_cap0
v -0.15000000 0.35000000 1.22400000
v -0.15000000 0.35000000 1.23600000
v -0.14400000 0.35000000 1.23000000
vt 0.03906250 0.68750000
vt 0.05468750 0.68750000
vt 0.05468750 0.43750000
vn -0.00000000 1.00000000 0.00000000
f 493/493/141 494/494/141 495/495/141
g wire_deck_cap1
v -0.15000000 -0.45000000 1.22400000
v -0.14400000 -0.45000000 1.23000000
v -0.15000000 -0.45000000 1.23600000
vt 0.03906250 0.68750000
vt 0.05468750 0.68750000
vt 0.05468750 0.43750000
vn -0.00000000 -1.00000000 -0.00000000
f 496/496/142 497/497/142 498/498/142
g wire_deck_cap0
v -0.15000000 0.35000000 1.22400000
v -0.15600000 0.35000000 1.23000000
v -0.15000000 0.35000000 1.23600000
vt 0.03906250 0.68750000
vt 0.05468750 0.68750000
vt 0.05468750 0.43750000
vn -0.00000000 1.00000000 0.00000000
f 499/499/143 500/500/143 501/501/143
g wire_deck_cap1
v -0.15000000 -0.45000000 1.22400000
v -0.15000000 -0.45000000 1.23600000
v -0.15600000 -0.45000000 1.23000000
vt 0.03906250 0.68750000
vt 0.05468750 0.68750000
vt 0.05468750 0.43750000
vn -0.00000000 -1.00000000 0.00000000
f 502/502/144 503/503/144 504/504/144
g wire_frame_side
v 0.30000000 0.35000000 1.23900000
v 0.30000000 0.35900000 1.23000000
v -0.15000000 0.35900000 1.23000000
v -0.15000000 0.35000000 1.23900000
vt 0.03906250 0.68750000
vt 0.05468750 0.68750000
vt 0.05468750 0.43750000
vt 0.03906250 0.43750000
vn -0.00000000 0.70710678 0.70710678
f 505/505/145 506/506/145 507/507/145
f 505/505/145 507/507/145 508/508/145
g wire_frame_side
v 0.30000000 0.35900000 1.23000000
v 0.30000000 0.35000000 1.22100000
v -0.15000000 0.35000000 1.22100000
v -0.15000000 0.35900000 1.23000000
vt 0.03906250 0.68750000
vt 0.05468750 0.68750000
vt 0.05468750 0.43750000
vt 0.03906250 0.43750000
vn -0.00000000 0.70710678 -0.70710678
f 509/509/146 510/510/146 511/511/146
f 509/509/146 511/511/146 512/512/146
g wire_frame_side
v 0.30000000 0.35000000 1.22100000
v 0.30000000 0.34100000 1.23000000
v -0.15000000 0.34100000 1.23000000
v -0.15000000 0.35000000 1.22100000
vt 0.03906250 0.68750000
vt 0.05468750 0.68750000
vt 0.05468750 0.43750000
vt 0.03906250 0.43750000
vn -0.00000000 -0.70710678 -0.70710678
f 513/513/147 514/514/147 515/515/147
f 513/513/147 515/515/147 516/516/147
g wire_frame_side
v 0.30000000 0.34100000 1.23000000
v 0.30000000 0.35000000 1.23900000
v -0.15000000 0.35000000 1.23900000
v -0.15000000 0.34100000 1.23000000
vt 0.03906250 0.68750000
vt 0.05468750 0.68750000
vt 0.05468750 0.43750000
vt 0.03906250 0.43750000
vn -0.00000000 -0.70710678 0.70710678
f 517/517/148 518/518/148 519/519/148
f 517/517/148 519/519/148 520/520/148
g wire_frame_cap0
v 0.30000000 0.35000000 1.23900000
v 0.30000000 0.35000000 1.22100000
v 0.30000000 0.35900000 1.23000000
vt 0.03906250 0.68750000
vt 0.05468750 0.68750000
vt 0.05468750 0.43750000
vn 1.00000000 -0.00000000 -0.00000000
f 521/521/149 522/522/149 523/523/149
g wire_frame_cap1
v -0.15000000 0.35000000 1.23900000
v -0.15000000 0.35900000 1.23000000
v -0.15000000 0.35000000 1.22100000
vt 0.03906250 0.68750000
vt 0.05468750 0.68750000
vt 0.05468750 0.43750000
vn -1.00000000 -0.00000000 0.00000000
f 524/524/150 525/525/150 526/526/150
g wire_frame_cap0
v 0.30000000 0.35000000 1.23900000
v 0.30000000 0.34100000 1.23000000
v 0.30000000 0.35000000 1.22100000
vt 0.03906250 0.68750000
vt 0.05468750 0.68750000
vt 0.05468750 0.43750000
vn 1.00000000 -0.00000000 0.00000000
f 527/527/151 528/528/151 529/529/151
g wire_frame_cap1
v -0.15000000 0.35000000 1.23900000
v -0.15000000 0.35000000 1.22100000
v -0.15000000 0.34100000 1.23000000
vt 0.03906250 0.68750000
vt 0.05468750 0.68750000
vt 0.05468750 0.43750000
vn -1.00000000 -0.00000000 0.00000000
f 530/530/152 531/531/152 532/532/152
g wire_frame_side
v 0.30000000 0.08333333 1.23600000
v 0.30000000 0.08933333 1.23000000
v -0.15000000 0.08933333 1.23000000
v -0.15000000 0.08333333 1.23600000
vt 0.03906250 0.68750000
vt 0.05468750 0.68750000
vt 0.05468750 0.43750000
vt 0.03906250 0.43750000
vn -0.00000000 0.70710678 0.70710678
f 533/533/153 534/534/153 535/535/153
f 533/533/153 535/535/153 536/536/153
g wire_frame_side
v 0.30000000 0.08933333 1.23000000
v 0.30000000 0.08333333 1.22400000
v -0.15000000 0.08333333 1.22400000
v -0.15000000 0.08933333 1.23000000
vt 0.03906250 0.68750000
vt 0.05468750 0.68750000
vt 0.05468750 0.43750000
vt 0.03906250 0.43750000
vn -0.00000000 0.70710678 -0.70710678
f 537/537/154 538/538/154 539/539/154
f 537/537/154 539/539/154 540/540/154
g wire_frame_side
v 0.30000000 0.08333333 1.22400000
v 0.30000000 0.07733333 1.23000000
v -0.15000000 0.07733333 1.23000000
v -0.15000000 0.08333333 1.22400000
vt 0.03906250 0.68750000
vt 0.05468750 0.68750000
vt 0.05468750 0.43750000
vt 0.03906250 0.43750000
vn -0.00000000 -0.70710678 -0.70710678
f 541/541/155 542/542/155 543/543/155
f 541/541/155 543/543/155 544/544/155
g wire_frame_side
v 0.30000000 0.07733333 1.23000000
v 0.30000000 0.08333333 1.23600000
v -0.15000000 0.08333333 1.23600000
v -0.15000000 0.07733333 1.23000000
vt 0.03906250 0.68750000
vt 0.05468750 0.68750000
vt 0.05468750 0.43750000
vt 0.03906250 0.43750000
vn -0.00000000 -0.70710678 0.70710678
f 545/545/156 546/546/156 547/547/156
f 545/545/156 547/547/156 548/548/156
g wire_frame_cap0
v 0.30000000 0.08333333 1.23600000
v 0.30000000 0.08333333 1.22400000
v 0.30000000 0.08933333 1.23000000
vt 0.03906250 0.68750000
vt 0.05468750 0.68750000
vt 0.05468750 0.43750000
vn 1.00000000 -0.00000000 -0.00000000
f 549/549/157 550/550/157 551/551/157
g wire_frame_cap1
v -0.15000000 0.08333333 1.23600000
v -0.15000000 0.08933333 1.23000000
v -0.15000000 0.08333333 1.22400000
vt 0.03906250 0.68750000
vt 0.05468750 0.68750000
vt 0.05468750 0.43750000
vn -1.00000000 -0.00000000 0.00000000
f 552/552/158 553/553/158 554/554/158
g wire_frame_cap0
v 0.30000000 0.08333333 1.23600000
v 0.30000000 0.07733333 1.23000000
v 0.30000000 0.08333333 1.22400000
vt 0.03906250 0.68750000
vt 0.05468750 0.68750000
vt 0.05468750 0.43750000
vn 1.00000000 -0.00000000 0.00000000
f 555/555/159 556/556/159 557/557/159
g wire_frame_cap1
v -0.15000000 0.08333333 1.23600000
v -0.15000000 0.08333333 1.22400000
v -0.15000000 0.07733333 1.23000000
vt 0.03906250 0.68750000
vt 0.05468750 0.68750000
vt 0.05468750 0.43750000
vn -1.00000000 -0.00000000 0.00000000
f 558/558/160 559/559/160 560/560/160
g wire_frame_side
v 0.30000000 -0.18333333 1.23600000
v 0.30000000 -0.17733333 1.23000000
v -0.15000000 -0.17733333 1.23000000
v -0.15000000 -0.18333333 1.23600000
vt 0.03906250 0.68750000
vt 0.05468750 0.68750000
vt 0.05468750 0.43750000
vt 0.03906250 0.43750000
vn -0.00000000 0.70710678 0.70710678
f 561/561/161 562/562/161 563/563/161
f 561/561/161 563/563/161 564/564/161
g wire_frame_side
v 0.30000000 -0.17733333 1.23000000
v 0.30000000 -0.18333333 1.22400000
v -0.15000000 -0.18333333 1.22400000
v -0.15000000 -0.17733333 1.23000000
vt 0.03906250 0.68750000
vt 0.05468750 0.68750000
vt 0.05468750 0.43750000
vt 0.03906250 0.43750000
vn -0.00000000 0.70710678 -0.70710678
f 565/565/162 566/566/162 567/567/162
f 565/565/162 567/567/162 568/568/162
g wire_frame_side
v 0.30000000 -0.18333333 1.22400000
v 0.30000000 -0.18933333 1.23000000
v -0.15000000 -0.18933333 1.23000000
v -0.15000000 -0.18333333 1.22400000
vt 0.03906250 0.68750000
vt 0.05468750 0.68750000
vt 0.05468750 0.43750000
vt 0.03906250 0.43750000
vn -0.00000000 -0.70710678 -0.70710678
f 569/569/163 570/570/163 571/571/163
f 569/569/163 571/571/163 572/572/163
g wire_frame_side
v 0.30000000 -0.18933333 1.23000000
v 0.30000000 -0.18333333 1.23600000
v -0.15000000 -0.18333333 1.23600000
v -0.15000000 -0.18933333 1.23000000
vt 0.03906250 0.68750000
vt 0.05468750 0.68750000
vt 0.05468750 0.43750000
vt 0.03906250 0.43750000
vn -0.00000000 -0.70710678 0.70710678
f 573/573/164 574/574/164 575/575/164
f 573/573/164 575/575/164 576/576/164
g wire_frame_cap0
v 0.30000000 -0.18333333 1.23600000
v 0.30000000 -0.18333333 1.22400000
v 0.30000000 -0.17733333 1.23000000
vt 0.03906250 0.68750000
vt 0.05468750 0.68750000
vt 0.05468750 0.43750000
vn 1.00000000 -0.00000000 -0.00000000
f 577/577/165 578/578/165 579/579/165
g wire_frame_cap1
v -0.15000000 -0.18333333 1.23600000
v -0.15000000 -0.17733333 1.23000000
v -0.15000000 -0.18333333 1.22400000
vt 0.03906250 0.68750000
vt 0.05468750 0.68750000
vt 0.05468750 0.43750000
vn -1.00000000 -0.00000000 0.00000000
f 580/580/166 581/581/166 582/582/166
g wire_frame_cap0
v 0.30000000 -0.18333333 1.23600000
v 0.30000000 -0.18933333 1.23000000
v 0.30000000 -0.18333333 1.22400000
vt 0.03906250 0.68750000
vt 0.05468750 0.68750000
vt 0.05468750 0.43750000
vn 1.00000000 -0.00000000 0.00000000
f 583/583/167 584/584/167 585/585/167
g wire_frame_cap1
v -0.15000000 -0.18333333 1.23600000
v -0.15000000 -0.18333333 1.22400000
v -0.15000000 -0.18933333 1.23000000
vt 0.03906250 0.68750000
vt 0.05468750 0.68750000
vt 0.05468750 0.43750000
vn -1.00000000 -0.00000000 0.00000000
f 586/586/168 587/587/168 588/588/168
g wire_frame_side
v 0.30000000 -0.45000000 1.23900000
v 0.30000000 -0.44100000 1.23000000
v -0.15000000 -0.44100000 1.23000000
v -0.15000000 -0.45000000 1.23900000
vt 0.03906250 0.68750000
vt 0.05468750 0.68750000
vt 0.05468750 0.43750000
vt 0.03906250 0.43750000
vn -0.00000000 0.70710678 0.70710678
f 589/589/169 590/590/169 591/591/169
f 589/589/169 591/591/169 592/592/169
g wire_frame_side
v 0.30000000 -0.44100000 1.23000000
v 0.30000000 -0.45000000 1.22100000
v -0.15000000 -0.45000000 1.22100000
v -0.15000000 -0.44100000 1.23000000
vt 0.03906250 0.68750000
vt 0.05468750 0.68750000
vt 0.05468750 0.43750000
vt 0.03906250 0.43750000
vn -0.00000000 0.70710678 -0.70710678
f 593/593/170 594/594/170 595/595/170
f 593/593/170 595/595/170 596/596/170
g wire_frame_side
v 0.30000000 -0.45000000 1.22100000
v 0.30000000 -0.45900000 1.23000000
v -0.15000000 -0.45900000 1.23000000
v -0.15000000 -0.45000000 1.22100000
vt 0.03906250 0.68750000
vt 0.05468750 0.68750000
vt 0.05468750 0.43750000
vt 0.03906250 0.43750000
vn -0.00000000 -0.70710678 -0.70710678
f 597/597/171 598/598/171 599/599/171
f 597/597/171 599/599/171 600/600/171
g wire_frame_side
v 0.30000000 -0.45900000 1.23000000
v 0.30000000 -0.45000000 1.23900000
v -0.15000000 -0.45000000 1.23900000
v -0.15000000 -0.45900000 1.23000000
vt 0.03906250 0.68750000
vt 0.05468750 0.68750000
vt 0.05468750 0.43750000
vt 0.03906250 0.43750000
vn -0.00000000 -0.70710678 0.70710678
f 601/601/172 602/602/172 603/603/172
f 601/601/172 603/603/172 604/604/172
g wire_frame_cap0
v 0.30000000 -0.45000000 1.23900000
v 0.30000000 -0.45000000 1.22100000
v 0.30000000 -0.44100000 1.23000000
vt 0.03906250 0.68750000
vt 0.05468750 0.68750000
vt 0.05468750 0.43750000
vn 1.00000000 -0.00000000 -0.00000000
f 605/605/173 606/606/173 607/607/173
g wire_frame_cap1
v -0.15000000 -0.45000000 1.23900000
v -0.15000000 -0.44100000 1.23000000
v -0.15000000 -0.45000000 1.22100000
vt 0.03906250 0.68750000
vt 0.05468750 0.68750000
vt 0.05468750 0.43750000
vn -1.00000000 -0.00000000 0.00000000
f 608/608/174 609/609/174 610/610/174
g wire_frame_cap0
v 0.30000000 -0.45000000 1.23900000
v 0.30000000 -0.45900000 1.23000000
v 0.30000000 -0.45000000 1.22100000
vt 0.03906250 0.68750000
vt 0.05468750 0.68750000
vt 0.05468750 0.43750000
vn 1.00000000 -0.00000000 0.00000000
f 611/611/175 612/612/175 613/613/175
g wire_frame_cap1
v -0.15000000 -0.45000000 1.23900000
v -0.15000000 -0.45000000 1.22100000
v -0.15000000 -0.45900000 1.23000000
vt 0.03906250 0.68750000
vt 0.05468750 0.68750000
vt 0.05468750 0.43750000
vn -1.00000000 -0.00000000 0.00000000
f 614/614/176 615/615/176 616/616/176
g wire_post_side
v 0.30000000 0.34100000 0.89000000
v 0.30900000 0.35000000 0.89000000
v 0.30900000 0.35000000 1.31000000
v 0.30000000 0.34100000 1.31000000
vt 0.03906250 0.68750000
vt 0.05468750 0.68750000
vt 0.05468750 0.43750000
vt 0.03906250 0.43750000
vn 0.70710678 -0.70710678 0.00000000
f 617/617/177 618/618/177 619/619/177
f 617/617/177 619/619/177 620/620/177
g wire_post_side
v 0.30900000 0.35000000 0.89000000
v 0.30000000 0.35900000 0.89000000
v 0.30000000 0.35900000 1.31000000
v 0.30900000 0.35000000 1.31000000
vt 0.03906250 0.68750000
vt 0.05468750 0.68750000
vt 0.05468750 0.43750000
vt 0.03906250 0.43750000
vn 0.70710678 0.70710678 0.00000000
f 621/621/178 622/622/178 623/623/178
f 621/621/178 623/623/178 624/624/178
g wire_post_side
v 0.30000000 0.35900000 0.89000000
v 0.29100000 0.35000000 0.89000000
v 0.29100000 0.35000000 1.31000000
v 0.30000000 0.35900000 1.31000000
vt 0.03906250 0.68750000
vt 0.05468750 0.68750000
vt 0.05468750 0.43750000
vt 0.03906250 0.43750000
vn -0.70710678 0.70710678 0.00000000
f 625/625/179 626/626/179 627/627/179
f 625/625/179 627/627/179 628/628/179
g wire_post_side
v 0.29100000 0.35000000 0.89000000
v 0.30000000 0.34100000 0.89000000
v 0.30000000 0.34100000 1.31000000
v 0.29100000 0.35000000 1.31000000
vt 0.03906250 0.68750000
vt 0.05468750 0.68750000
vt 0.05468750 0.43750000
vt 0.03906250 0.43750000
vn -0.70710678 -0.70710678 0.00000000
f 629/629/180 630/630/180 631/631/180
f 629/629/180 631/631/180 632/632/180
g wire_post_cap0
v 0.30000000 0.34100000 0.89000000
v 0.30000000 0.35900000 0.89000000
v 0.30900000 0.35000000 0.89000000
vt 0.03906250 0.68750000
vt 0.05468750 0.68750000
vt 0.05468750 0.43750000
vn -0.00000000 0.00000000 -1.00000000
f 633/633/181 634/634/181 635/635/181
g wire_post_cap1
v 0.30000000 0.34100000 1.31000000
v 0.30900000 0.35000000 1.31000000
v 0.30000000 0.35900000 1.31000000
vt 0.03906250 0.68750000
vt 0.05468750 0.68750000
vt 0.05468750 0.43750000
vn -0.00000000 -0.00000000 1.00000000
f 636/636/182 637/637/182 638/638/182
g wire_post_cap0
v 0.30000000 0.34100000 0.89000000
v 0.29100000 0.35000000 0.89000000
v 0.30000000 0.35900000 0.89000000
vt 0.03906250 0.68750000
vt 0.05468750 0.68750000
vt 0.05468750 0.43750000
vn -0.00000000 -0.00000000 -1.00000000
f 639/639/183 640/640/183 641/641/183
g wire_post_cap1
v 0.30000000 0.34100000 1.31000000
v 0.30000000 0.35900000 1.31000000
v 0.29100000 0.35000000 1.31000000
vt 0.03906250 0.68750000
vt 0.05468750 0.68750000
vt 0.05468750 0.43750000
vn -0.00000000 -0.00000000 1.00000000
f 642/642/184 643/643/184 644/644/184
g wire_post_side
v 0.30000000 -0.45900000 0.89000000
v 0.30900000 -0.45000000 0.89000000
v 0.30900000 -0.45000000 1.31000000
v 0.30000000 -0.45900000 1.31000000
vt 0.03906250 0.68750000
vt 0.05468750 0.68750000
vt 0.05468750 0.43750000
vt 0.03906250 0.43750000
vn 0.70710678 -0.70710678 0.00000000
f 645/645/185 646/646/185 647/647/185
f 645/645/185 647/647/185 648/648/185
g wire_post_side
v 0.30900000 -0.45000000 0.89000000
v 0.30000000 -0.44100000 0.89000000
v 0.30000000 -0.44100000 1.31000000
v 0.30900000 -0.45000000 1.31000000
vt 0.03906250 0.68750000
vt 0.05468750 0.68750000
vt 0.05468750 0.43750000
vt 0.03906250 0.43750000
vn 0.70710678 0.70710678 0.00000000
f 649/649/186 650/650/186 651/651/186
f 649/649/186 651/651/186 652/652/186
g wire_post_side
v 0.30000000 -0.44100000 0.89000000
v 0.29100000 -0.45000000 0.89000000
v 0.29100000 -0.45000000 1.31000000
v 0.30000000 -0.44100000 1.31000000
vt 0.03906250 0.68750000
vt 0.05468750 0.68750000
vt 0.05468750 0.43750000
vt 0.03906250 0.43750000
vn -0.70710678 0.70710678 0.00000000
f 653/653/187 654/654/187 655/655/187
f 653/653/187 655/655/187 656/656/187
g wire_post_side
v 0.29100000 -0.45000000 0.89000000
v 0.30000000 -0.45900000 0.89000000
v 0.30000000 -0.45900000 1.31000000
v 0.29100000 -0.45000000 1.31000000
vt 0.03906250 0.68750000
vt 0.05468750 0.68750000
vt 0.05468750 0.43750000
vt 0.03906250 0.43750000
vn -0.70710678 -0.70710678 0.00000000
f 657/657/188 658/658/188 659/659/188
f 657/657/188 659/659/188 660/660/188
g wire_post_cap0
v 0.30000000 -0.45900000 0.89000000
v 0.30000000 -0.44100000 0.89000000
v 0.30900000 -0.45000000 0.89000000
vt 0.03906250 0.68750000
vt 0.05468750 0.68750000
vt 0.05468750 0.43750000
vn -0.00000000 0.00000000 -1.00000000
f 661/661/189 662/662/189 663/663/189
g wire_post_cap1
v 0.30000000 -0.45900000 1.31000000
v 0.30900000 -0.45000000 1.31000000
v 0.30000000 -0.44100000 1.31000000
vt 0.03906250 0.68750000
vt 0.05468750 0.68750000
vt 0.05468750 0.43750000
vn -0.00000000 -0.00000000 1.00000000
f 664/664/190 665/665/190 666/666/190
g wire_post_cap0
v 0.30000000 -0.45900000 0.89000000
v 0.29100000 -0.45000000 0.89000000
v 0.30000000 -0.44100000 0.89000000
vt 0.03906250 0.68750000
vt 0.05468750 0.68750000
vt 0.05468750 0.43750000
vn -0.00000000 -0.00000000 -1.00000000
f 667/667/191 668/668/191 669/669/191
g wire_post_cap1
v 0.30000000 -0.45900000 1.31000000
v 0.30000000 -0.44100000 1.31000000
v 0.29100000 -0.45000000 1.31000000
vt 0.03906250 0.68750000
vt 0.05468750 0.68750000
vt 0.05468750 0.43750000
vn -0.00000000 -0.00000000 1.00000000
f 670/670/192 671/671/192 672/672/192
g wire_handle_side
v 0.30000000 0.35000000 1.30100000
v 0.30900000 0.35000000 1.31000000
v 0.30900000 -0.45000000 1.31000000
v 0.30000000 -0.45000000 1.30100000
vt 0.03906250 0.68750000
vt 0.05468750 0.68750000
vt 0.05468750 0.43750000
vt 0.03906250 0.43750000
vn 0.70710678 -0.00000000 -0.70710678
f 673/673/193 674/674/193 675/675/193
f 673/673/193 675/675/193 676/676/193
g wire_handle_side
v 0.30900000 0.35000000 1.31000000
v 0.30000000 0.35000000 1.31900000
v 0.30000000 -0.45000000 1.31900000
v 0.30900000 -0.45000000 1.31000000
vt 0.03906250 0.68750000
vt 0.05468750 0.68750000
vt 0.05468750 0.43750000
vt 0.03906250 0.43750000
vn 0.70710678 -0.00000000 0.70710678
f 677/677/194 678/678/194 679/679/194
f 677/677/194 679/679/194 680/680/194
g wire_handle_side
v 0.30000000 0.35000000 1.31900000
v 0.29100000 0.35000000 1.31000000
v 0.29100000 -0.45000000 1.31000000
v 0.30000000 -0.45000000 1.31900000
vt 0.03906250 0.68750000
vt 0.05468750 0.68750000
vt 0.05468750 0.43750000
vt 0.03906250 0.43750000
vn -0.70710678 -0.00000000 0.70710678
f 681/681/195 682/682/195 683/683/195
f 681/681/195 683/683/195 684/684/195
g wire_handle_side
v 0.29100000 0.35000000 1.31000000
v 0.30000000 0.35000000 1.30100000
v 0.30000000 -0.45000000 1.30100000
v 0.29100000 -0.45000000 1.31000000
vt 0.03906250 0.68750000
vt 0.05468750 0.68750000
vt 0.05468750 0.43750000
vt 0.03906250 0.43750000
vn -0.70710678 -0.00000000 -0.70710678
f 685/685/196 686/686/196 687/687/196
f 685/685/196 687/687/196 688/688/196
g wire_handle_cap0
v 0.30000000 0.35000000 1.30100000
v 0.30000000 0.35000000 1.31900000
v 0.30900000 0.35000000 1.31000000
vt 0.03906250 0.68750000
vt 0.05468750 0.68750000
vt 0.05468750 0.43750000
vn -0.00000000 1.00000000 0.00000000
f 689/689/197 690/690/197 691/691/197
g wire_handle_cap1
v 0.30000000 -0.45000000 1.30100000
v 0.30900000 -0.45000000 1.31000000
v 0.30000000 -0.45000000 1.31900000
vt 0.03906250 0.68750000
vt 0.05468750 0.68750000
vt 0.05468750 0.43750000
vn -0.00000000 -1.00000000 -0.00000000
f 692/692/198 693/693/198 694/694/198
g wire_handle_cap0
v 0.30000000 0.35000000 1.30100000
v 0.29100000 0.35000000 1.31000000
v 0.30000000 0.35000000 1.31900000
vt 0.03906250 0.68750000
vt 0.05468750 0.68750000
vt 0.05468750 0.43750000
vn -0.00000000 1.00000000 0.00000000
f 695/695/199 696/696/199 697/697/199
g wire_handle_cap1
v 0.30000000 -0.45000000 1.30100000
v 0.30000000 -0.45000000 1.31900000
v 0.29100000 -0.45000000 1.31000000
vt 0.03906250 0.68750000
vt 0.05468750 0.68750000
vt 0.05468750 0.43750000
vn -0.00000000 -1.00000000 0.00000000
f 698/698/200 699/699/200 700/700/200
g wire_post_side
v -0.15000000 0.34100000 0.89000000
v -0.14100000 0.35000000 0.89000000
v -0.14100000 0.35000000 1.55000000
v -0.15000000 0.34100000 1.55000000
vt 0.03906250 0.68750000
vt 0.05468750 0.68750000
vt 0.05468750 0.43750000
vt 0.03906250 0.43750000
vn 0.70710678 -0.70710678 0.00000000
f 701/701/201 702/702/201 703/703/201
f 701/701/201 703/703/201 704/704/201
g wire_post_side
v -0.14100000 0.35000000 0.89000000
v -0.15000000 0.35900000 0.89000000
v -0.15000000 0.35900000 1.55000000
v -0.14100000 0.35000000 1.55000000
vt 0.03906250 0.68750000
vt 0.05468750 0.68750000
vt 0.05468750 0.43750000
vt 0.03906250 0.43750000
vn 0.70710678 0.70710678 0.00000000
f 705/705/202 706/706/202 707/707/202
f 705/705/202 707/707/202 708/708/202
g wire_post_side
v -0.15000000 0.35900000 0.89000000
v -0.15900000 0.35000000 0.89000000
v -0.15900000 0.35000000 1.55000000
v -0.15000000 0.35900000 1.55000000
vt 0.03906250 0.68750000
vt 0.05468750 0.68750000
vt 0.05468750 0.43750000
vt 0.03906250 0.43750000
vn -0.70710678 0.70710678 0.00000000
f 709/709/203 710/710/203 711/711/203
f 709/709/203 711/711/203 712/712/203
g wire_post_side
v -0.15900000 0.35000000 0.89000000
v -0.15000000 0.34100000 0.89000000
v -0.15000000 0.34100000 1.55000000
v -0.15900000 0.35000000 1.55000000
vt 0.03906250 0.68750000
vt 0.05468750 0.68750000
vt 0.05468750 0.43750000
vt 0.03906250 0.43750000
vn -0.70710678 -0.70710678 0.00000000
f 713/713/204 714/714/204 715/715/204
f 713/713/204 715/715/204 716/716/204
g wire_post_cap0
v -0.15000000 0.34100000 0.89000000
v -0.15000000 0.35900000 0.89000000
v -0.14100000 0.35000000 0.89000000
vt 0.03906250 0.68750000
vt 0.05468750 0.68750000
vt 0.05468750 0.43750000
vn -0.00000000 0.00000000 -1.00000000
f 717/717/205 718/718/205 719/719/205
g wire_post_cap1
v -0.15000000 0.34100000 1.55000000
v -0.14100000 0.35000000 1.55000000
v -0.15000000 0.35900000 1.55000000
vt 0.03906250 0.68750000
vt 0.05468750 0.68750000
vt 0.05468750 0.43750000
vn -0.00000000 -0.00000000 1.00000000
f 720/720/206 721/721/206 722/722/206
g wire_post_cap0
v -0.15000000 0.34100000 0.89000000
v -0.15900000 0.35000000 0.89000000
v -0.15000000 0.35900000 0.89000000
vt 0.03906250 0.68750000
vt 0.05468750 0.68750000
vt 0.05468750 0.43750000
vn -0.00000000 -0.00000000 -1.00000000
f 723/723/207 724/724/207 725/725/207
g wire_post_cap1
v -0.15000000 0.34100000 1.55000000
v -0.15000000 0.35900000 1.55000000
v -0.15900000 0.35000000 1.55000000
vt 0.03906250 0.68750000
vt 0.05468750 0.68750000
vt 0.05468750 0.43750000
vn -0.00000000 -0.00000000 1.00000000
f 726/726/208 727/727/208 728/728/208
g wire_post_side
v -0.15000000 -0.45900000 0.89000000
v -0.14100000 -0.45000000 0.89000000
v -0.14100000 -0.45000000 1.55000000
v -0.15000000 -0.45900000 1.55000000
vt 0.03906250 0.68750000
vt 0.05468750 0.68750000
vt 0.05468750 0.43750000
vt 0.03906250 0.43750000
vn 0.70710678 -0.70710678 0.00000000
f 729/729/209 730/730/209 731/731/209
f 729/729/209 731/731/209 732/732/209
g wire_post_side
v -0.14100000 -0.45000000 0.89000000
v -0.15000000 -0.44100000 0.89000000
v -0.15000000 -0.44100000 1.55000000
v -0.14100000 -0.45000000 1.55000000
vt 0.03906250 0.68750000
vt 0.05468750 0.68750000
vt 0.05468750 0.43750000
vt 0.03906250 0.43750000
vn 0.70710678 0.70710678 0.00000000
f 733/733/210 734/734/210 735/735/210
f 733/733/210 735/735/210 736/736/210
g wire_post_side
v -0.15000000 -0.44100000 0.89000000
v -0.15900000 -0.45000000 0.89000000
v -0.15900000 -0.45000000 1.55000000
v -0.15000000 -0.44100000 1.55000000
vt 0.03906250 0.68750000
vt 0.05468750 0.68750000
vt 0.05468750 0.43750000
vt 0.03906250 0.43750000
vn -0.70710678 0.70710678 0.00000000
f 737/737/211 738/738/211 739/739/211
f 737/737/211 739/739/211 740/740/211
g wire_post_side
v -0.15900000 -0.45000000 0.89000000
v -0.15000000 -0.45900000 0.89000000
v -0.15000000 -0.45900000 1.55000000
v -0.15900000 -0.45000000 1.55000000
vt 0.03906250 0.68750000
vt 0.05468750 0.68750000
vt 0.05468750 0.43750000
vt 0.03906250 0.43750000
vn -0.70710678 -0.70710678 0.00000000
f 741/741/212 742/742/212 743/743/212
f 741/741/212 743/743/212 744/744/212
g wire_post_cap0
v -0.15000000 -0.45900000 0.89000000
v -0.15000000 -0.44100000 0.89000000
v -0.14100000 -0.45000000 0.89000000
vt 0.03906250 0.68750000
vt 0.05468750 0.68750000
vt 0.05468750 0.43750000
vn -0.00000000 0.00000000 -1.00000000
f 745/745/213 746/746/213 747/747/213
g wire_post_cap1
v -0.15000000 -0.45900000 1.55000000
v -0.14100000 -0.45000000 1.55000000
v -0.15000000 -0.44100000 1.55000000
vt 0.03906250 0.68750000
vt 0.05468750 0.68750000
vt 0.05468750 0.43750000
vn -0.00000000 -0.00000000 1.00000000
f 748/748/214 749/749/214 750/750/214
g wire_post_cap0
v -0.15000000 -0.45900000 0.89000000
v -0.15900000 -0.45000000 0.89000000
v -0.15000000 -0.44100000 0.89000000
vt 0.03906250 0.68750000
vt 0.05468750 0.68750000
vt 0.05468750 0.43750000
vn -0.00000000 -0.00000000 -1.00000000
f 751/751/215 752/752/215 753/753/215
g wire_post_cap1
v -0.15000000 -0.45900000 1.55000000
v -0.15000000 -0.44100000 1.55000000
v -0.15900000 -0.45000000 1.55000000
vt 0.03906250 0.68750000
vt 0.05468750 0.68750000
vt 0.05468750 0.43750000
vn -0.00000000 -0.00000000 1.00000000
f 754/754/216 755/755/216 756/756/216
g wire_handle_side
v -0.15000000 0.35000000 1.54100000
v -0.14100000 0.35000000 1.55000000
v -0.14100000 -0.45000000 1.55000000
v -0.15000000 -0.45000000 1.54100000
vt 0.03906250 0.68750000
vt 0.05468750 0.68750000
vt 0.05468750 0.43750000
vt 0.03906250 0.43750000
vn 0.70710678 -0.00000000 -0.70710678
f 757/757/217 758/758/217 759/759/217
f 757/757/217 759/759/217 760/760/217
g wire_handle_side
v -0.14100000 0.35000000 1.55000000
v -0.15000000 0.35000000 1.55900000
v -0.15000000 -0.45000000 1.55900000
v -0.14100000 -0.45000000 1.55000000
vt 0.03906250 0.68750000
vt 0.05468750 0.68750000
vt 0.05468750 0.43750000
vt 0.03906250 0.43750000
vn 0.70710678 -0.00000000 0.70710678
f 761/761/218 762/762/218 763/763/218
f 761/761/218 763/763/218 764/764/218
g wire_handle_side
v -0.15000000 0.35000000 1.55900000
v -0.15900000 0.35000000 1.55000000
v -0.15900000 -0.45000000 1.55000000
v -0.15000000 -0.45000000 1.55900000
vt 0.03906250 0.68750000
vt 0.05468750 0.68750000
vt 0.05468750 0.43750000
vt 0.03906250 0.43750000
vn -0.70710678 -0.00000000 0.70710678
f 765/765/219 766/766/219 767/767/219
f 765/765/219 767/767/219 768/768/219
g wire_handle_side
v -0.15900000 0.35000000 1.55000000
v -0.15000000 0.35000000 1.54100000
v -0.15000000 -0.45000000 1.54100000
v -0.15900000 -0.45000000 1.55000000
vt 0.03906250 0.68750000
vt 0.05468750 0.68750000
vt 0.05468750 0.43750000
vt 0.03906250 0.43750000
vn -0.70710678 -0.00000000 -0.70710678
f 769/769/220 770/770/220 771/771/220
f 769/769/220 771/771/220 772/772/220
g wire_handle_cap0
v -0.15000000 0.35000000 1.54100000
v -0.15000000 0.35000000 1.55900000
v -0.14100000 0.35000000 1.55000000
vt 0.03906250 0.68750000
vt 0.05468750 0.68750000
vt 0.05468750 0.43750000
vn -0.00000000 1.00000000 0.00000000
f 773/773/221 774/774/221 775/775/221
g wire_handle_cap1
v -0.15000000 -0.45000000 1.54100000
v -0.14100000 -0.45000000 1.55000000
v -0.15000000 -0.45000000 1.55900000
vt 0.03906250 0.68750000
vt 0.05468750 0.68750000
vt 0.05468750 0.43750000
vn -0.00000000 -1.00000000 -0.00000000
f 776/776/222 777/777/222 778/778/222
g wire_handle_cap0
v -0.15000000 0.35000000 1.54100000
v -0.15900000 0.35000000 1.55000000
v -0.15000000 0.35000000 1.55900000
vt 0.03906250 0.68750000
vt 0.05468750 0.68750000
vt 0.05468750 0.43750000
vn -0.00000000 1.00000000 0.00000000
f 779/779/223 780/780/223 781/781/223
g wire_handle_cap1
v -0.15000000 -0.45000000 1.54100000
v -0.15000000 -0.45000000 1.55900000
v -0.15900000 -0.45000000 1.55000000
vt 0.03906250 0.68750000
vt 0.05468750 0.68750000
vt 0.05468750 0.43750000
vn -0.00000000 -1.00000000 0.00000000
f 782/782/224 783/783/224 784/784/224
