# G016 original low-poly geometry; continuous native face pixels; Z-up tile units
mtllib pz_g016_large_fridge_part0.mtl
o pz_g016_large_fridge_part0
usemtl Native_Surface
g native_component_0_z-
v -0.500000000 -0.378769497 0.000000000
v -0.500000000 0.204569497 0.000000000
v 0.298400654 0.204569497 0.000000000
v 0.298400654 -0.378769497 0.000000000
vt 0.019531250 0.493408203
vt 0.074218750 0.493408203
vt 0.074218750 0.489990234
vt 0.019531250 0.489990234
vn 0.000000000 0.000000000 -1.000000000
f 1/1/1 2/2/1 3/3/1
vn 0.000000000 0.000000000 -1.000000000
f 1/1/2 3/3/2 4/4/2
g native_component_0_z+
v -0.500000000 -0.378769497 1.987400000
v 0.298400654 -0.378769497 1.987400000
v 0.298400654 0.204569497 1.987400000
v -0.500000000 0.204569497 1.987400000
vt 0.019531250 0.535888672
vt 0.902343750 0.535888672
vt 0.902343750 0.495849609
vt 0.019531250 0.495849609
vn 0.000000000 0.000000000 1.000000000
f 5/5/3 6/6/3 7/7/3
vn 0.000000000 0.000000000 1.000000000
f 5/5/4 7/7/4 8/8/4
g native_component_0_y-
v -0.500000000 -0.378769497 0.000000000
v 0.298400654 -0.378769497 0.000000000
v 0.298400654 -0.378769497 1.987400000
v -0.500000000 -0.378769497 1.987400000
vt 0.019531250 0.998779297
vt 0.902343750 0.998779297
vt 0.902343750 0.846923828
vt 0.019531250 0.846923828
vn 0.000000000 -1.000000000 0.000000000
f 9/9/5 10/10/5 11/11/5
vn 0.000000000 -1.000000000 0.000000000
f 9/9/6 11/11/6 12/12/6
g native_component_0_x+
v 0.298400654 -0.378769497 0.000000000
v 0.298400654 0.204569497 0.000000000
v 0.298400654 0.204569497 1.987400000
v 0.298400654 -0.378769497 1.987400000
vt 0.019531250 0.690185547
vt 0.660156250 0.690185547
vt 0.660156250 0.538330078
vt 0.019531250 0.538330078
vn 1.000000000 0.000000000 0.000000000
f 13/13/7 14/14/7 15/15/7
vn 1.000000000 0.000000000 0.000000000
f 13/13/8 15/15/8 16/16/8
g native_component_0_y+
v 0.298400654 0.204569497 0.000000000
v -0.500000000 0.204569497 0.000000000
v -0.500000000 0.204569497 1.987400000
v 0.298400654 0.204569497 1.987400000
vt 0.019531250 0.844482422
vt 0.902343750 0.844482422
vt 0.902343750 0.692626953
vt 0.019531250 0.692626953
vn 0.000000000 1.000000000 0.000000000
f 17/17/9 18/18/9 19/19/9
vn 0.000000000 1.000000000 -0.000000000
f 17/17/10 19/19/10 20/20/10
