# Original G023 Red; Z up; tile units
mtllib pz_g023_appliances_misc_01_red_generator.mtl
o pz_g023_appliances_misc_01_red_generator
usemtl NativeSurface
g engine_case_bottom
v 0.31215379 0.11341648 0.06000000
v 0.31215379 -0.15221648 0.06000000
v -0.31215379 -0.15221648 0.06000000
v -0.31215379 0.11341648 0.06000000
vt 0.75781250 0.45898438
vt 0.75781250 0.45898438
vt 0.75781250 0.45898438
vt 0.75781250 0.45898438
vn -0.00000000 -0.00000000 -1.00000000
f 1/1/1 2/2/1 3/3/1
f 1/1/1 3/3/1 4/4/1
g engine_case_front
v 0.31215379 0.11341648 0.06000000
v -0.31215379 0.11341648 0.06000000
v -0.31215379 0.11341648 0.38527200
v 0.31215379 0.11341648 0.38527200
vt 0.03906250 0.99023438
vt 0.71093750 0.99023438
vt 0.71093750 0.89648438
vt 0.03906250 0.89648438
vn -0.00000000 1.00000000 0.00000000
f 5/5/2 6/6/2 7/7/2
f 5/5/2 7/7/2 8/8/2
g engine_case_right
v -0.31215379 0.11341648 0.06000000
v -0.31215379 -0.15221648 0.06000000
v -0.31215379 -0.15221648 0.38527200
v -0.31215379 0.11341648 0.38527200
vt 0.03906250 0.76367188
vt 0.32031250 0.76367188
vt 0.32031250 0.66992188
vt 0.03906250 0.66992188
vn -1.00000000 -0.00000000 0.00000000
f 9/9/3 10/10/3 11/11/3
f 9/9/3 11/11/3 12/12/3
g engine_case_rear
v -0.31215379 -0.15221648 0.06000000
v 0.31215379 -0.15221648 0.06000000
v 0.31215379 -0.15221648 0.38527200
v -0.31215379 -0.15221648 0.38527200
vt 0.03906250 0.87695312
vt 0.71093750 0.87695312
vt 0.71093750 0.78320312
vt 0.03906250 0.78320312
vn -0.00000000 -1.00000000 0.00000000
f 13/13/4 14/14/4 15/15/4
f 13/13/4 15/15/4 16/16/4
g engine_case_left
v 0.31215379 -0.15221648 0.06000000
v 0.31215379 0.11341648 0.06000000
v 0.31215379 0.11341648 0.38527200
v 0.31215379 -0.15221648 0.38527200
vt 0.39843750 0.76367188
vt 0.67968750 0.76367188
vt 0.67968750 0.66992188
vt 0.39843750 0.66992188
vn 1.00000000 -0.00000000 0.00000000
f 17/17/5 18/18/5 19/19/5
f 17/17/5 19/19/5 20/20/5
g fuel_tank_bottom
v 0.31415379 0.11441648 0.38527200
v 0.31415379 -0.15321648 0.38527200
v -0.31415379 -0.15321648 0.38527200
v -0.31415379 0.11441648 0.38527200
vt 0.75781250 0.45898438
vt 0.75781250 0.45898438
vt 0.75781250 0.45898438
vt 0.75781250 0.45898438
vn -0.00000000 -0.00000000 -1.00000000
f 21/21/6 22/22/6 23/23/6
f 21/21/6 23/23/6 24/24/6
g fuel_tank_top
v 0.31415379 0.11441648 0.50299400
v -0.31415379 0.11441648 0.50299400
v -0.31415379 -0.15321648 0.50299400
v 0.31415379 -0.15321648 0.50299400
vt 0.03906250 0.65039062
vt 0.71093750 0.65039062
vt 0.71093750 0.58007812
vt 0.03906250 0.58007812
vn -0.00000000 -0.00000000 1.00000000
f 25/25/7 26/26/7 27/27/7
f 25/25/7 27/27/7 28/28/7
g fuel_tank_front
v 0.31415379 0.11441648 0.38527200
v -0.31415379 0.11441648 0.38527200
v -0.31415379 0.11441648 0.50299400
v 0.31415379 0.11441648 0.50299400
vt 0.03906250 0.56054688
vt 0.71093750 0.56054688
vt 0.71093750 0.52929688
vt 0.03906250 0.52929688
vn -0.00000000 1.00000000 0.00000000
f 29/29/8 30/30/8 31/31/8
f 29/29/8 31/31/8 32/32/8
g fuel_tank_right
v -0.31415379 0.11441648 0.38527200
v -0.31415379 -0.15321648 0.38527200
v -0.31415379 -0.15321648 0.50299400
v -0.31415379 0.11441648 0.50299400
vt 0.03906250 0.45898438
vt 0.32031250 0.45898438
vt 0.32031250 0.42773438
vt 0.03906250 0.42773438
vn -1.00000000 -0.00000000 0.00000000
f 33/33/9 34/34/9 35/35/9
f 33/33/9 35/35/9 36/36/9
g fuel_tank_rear
v -0.31415379 -0.15321648 0.38527200
v 0.31415379 -0.15321648 0.38527200
v 0.31415379 -0.15321648 0.50299400
v -0.31415379 -0.15321648 0.50299400
vt 0.03906250 0.50976562
vt 0.71093750 0.50976562
vt 0.71093750 0.47851562
vt 0.03906250 0.47851562
vn -0.00000000 -1.00000000 0.00000000
f 37/37/10 38/38/10 39/39/10
f 37/37/10 39/39/10 40/40/10
g fuel_tank_left
v 0.31415379 -0.15321648 0.38527200
v 0.31415379 0.11441648 0.38527200
v 0.31415379 0.11441648 0.50299400
v 0.31415379 -0.15321648 0.50299400
vt 0.39843750 0.45898438
vt 0.67968750 0.45898438
vt 0.67968750 0.42773438
vt 0.39843750 0.42773438
vn 1.00000000 -0.00000000 0.00000000
f 41/41/11 42/42/11 43/43/11
f 41/41/11 43/43/11 44/44/11
g frame_vertical_front
v 0.33715379 0.13641648 0.00000000
v 0.30115379 0.13641648 0.00000000
v 0.30115379 0.13641648 0.49764300
v 0.33715379 0.13641648 0.49764300
vt 0.83593750 0.45898438
vt 0.83593750 0.45898438
vt 0.83593750 0.45898438
vt 0.83593750 0.45898438
vn -0.00000000 1.00000000 0.00000000
f 45/45/12 46/46/12 47/47/12
f 45/45/12 47/47/12 48/48/12
g frame_vertical_right
v 0.30115379 0.13641648 0.00000000
v 0.30115379 0.10041648 0.00000000
v 0.30115379 0.10041648 0.49764300
v 0.30115379 0.13641648 0.49764300
vt 0.83593750 0.45898438
vt 0.83593750 0.45898438
vt 0.83593750 0.45898438
vt 0.83593750 0.45898438
vn -1.00000000 -0.00000000 0.00000000
f 49/49/13 50/50/13 51/51/13
f 49/49/13 51/51/13 52/52/13
g frame_vertical_rear
v 0.30115379 0.10041648 0.00000000
v 0.33715379 0.10041648 0.00000000
v 0.33715379 0.10041648 0.49764300
v 0.30115379 0.10041648 0.49764300
vt 0.83593750 0.45898438
vt 0.83593750 0.45898438
vt 0.83593750 0.45898438
vt 0.83593750 0.45898438
vn -0.00000000 -1.00000000 0.00000000
f 53/53/14 54/54/14 55/55/14
f 53/53/14 55/55/14 56/56/14
g frame_vertical_left
v 0.33715379 0.10041648 0.00000000
v 0.33715379 0.13641648 0.00000000
v 0.33715379 0.13641648 0.49764300
v 0.33715379 0.10041648 0.49764300
vt 0.83593750 0.45898438
vt 0.83593750 0.45898438
vt 0.83593750 0.45898438
vt 0.83593750 0.45898438
vn 1.00000000 -0.00000000 0.00000000
f 57/57/15 58/58/15 59/59/15
f 57/57/15 59/59/15 60/60/15
g frame_vertical_front
v -0.30115379 0.13641648 0.00000000
v -0.33715379 0.13641648 0.00000000
v -0.33715379 0.13641648 0.49764300
v -0.30115379 0.13641648 0.49764300
vt 0.83593750 0.45898438
vt 0.83593750 0.45898438
vt 0.83593750 0.45898438
vt 0.83593750 0.45898438
vn -0.00000000 1.00000000 0.00000000
f 61/61/16 62/62/16 63/63/16
f 61/61/16 63/63/16 64/64/16
g frame_vertical_right
v -0.33715379 0.13641648 0.00000000
v -0.33715379 0.10041648 0.00000000
v -0.33715379 0.10041648 0.49764300
v -0.33715379 0.13641648 0.49764300
vt 0.83593750 0.45898438
vt 0.83593750 0.45898438
vt 0.83593750 0.45898438
vt 0.83593750 0.45898438
vn -1.00000000 -0.00000000 0.00000000
f 65/65/17 66/66/17 67/67/17
f 65/65/17 67/67/17 68/68/17
g frame_vertical_rear
v -0.33715379 0.10041648 0.00000000
v -0.30115379 0.10041648 0.00000000
v -0.30115379 0.10041648 0.49764300
v -0.33715379 0.10041648 0.49764300
vt 0.83593750 0.45898438
vt 0.83593750 0.45898438
vt 0.83593750 0.45898438
vt 0.83593750 0.45898438
vn -0.00000000 -1.00000000 0.00000000
f 69/69/18 70/70/18 71/71/18
f 69/69/18 71/71/18 72/72/18
g frame_vertical_left
v -0.30115379 0.10041648 0.00000000
v -0.30115379 0.13641648 0.00000000
v -0.30115379 0.13641648 0.49764300
v -0.30115379 0.10041648 0.49764300
vt 0.83593750 0.45898438
vt 0.83593750 0.45898438
vt 0.83593750 0.45898438
vt 0.83593750 0.45898438
vn 1.00000000 -0.00000000 0.00000000
f 73/73/19 74/74/19 75/75/19
f 73/73/19 75/75/19 76/76/19
g frame_base_top
v 0.33715379 0.13641648 0.03200000
v -0.33715379 0.13641648 0.03200000
v -0.33715379 0.10041648 0.03200000
v 0.33715379 0.10041648 0.03200000
vt 0.83593750 0.45898438
vt 0.83593750 0.45898438
vt 0.83593750 0.45898438
vt 0.83593750 0.45898438
vn -0.00000000 -0.00000000 1.00000000
f 77/77/20 78/78/20 79/79/20
f 77/77/20 79/79/20 80/80/20
g frame_base_front
v 0.33715379 0.13641648 0.00000000
v -0.33715379 0.13641648 0.00000000
v -0.33715379 0.13641648 0.03200000
v 0.33715379 0.13641648 0.03200000
vt 0.83593750 0.45898438
vt 0.83593750 0.45898438
vt 0.83593750 0.45898438
vt 0.83593750 0.45898438
vn -0.00000000 1.00000000 0.00000000
f 81/81/21 82/82/21 83/83/21
f 81/81/21 83/83/21 84/84/21
g frame_base_right
v -0.33715379 0.13641648 0.00000000
v -0.33715379 0.10041648 0.00000000
v -0.33715379 0.10041648 0.03200000
v -0.33715379 0.13641648 0.03200000
vt 0.83593750 0.45898438
vt 0.83593750 0.45898438
vt 0.83593750 0.45898438
vt 0.83593750 0.45898438
vn -1.00000000 -0.00000000 0.00000000
f 85/85/22 86/86/22 87/87/22
f 85/85/22 87/87/22 88/88/22
g frame_base_rear
v -0.33715379 0.10041648 0.00000000
v 0.33715379 0.10041648 0.00000000
v 0.33715379 0.10041648 0.03200000
v -0.33715379 0.10041648 0.03200000
vt 0.83593750 0.45898438
vt 0.83593750 0.45898438
vt 0.83593750 0.45898438
vt 0.83593750 0.45898438
vn -0.00000000 -1.00000000 0.00000000
f 89/89/23 90/90/23 91/91/23
f 89/89/23 91/91/23 92/92/23
g frame_base_left
v 0.33715379 0.10041648 0.00000000
v 0.33715379 0.13641648 0.00000000
v 0.33715379 0.13641648 0.03200000
v 0.33715379 0.10041648 0.03200000
vt 0.83593750 0.45898438
vt 0.83593750 0.45898438
vt 0.83593750 0.45898438
vt 0.83593750 0.45898438
vn 1.00000000 -0.00000000 0.00000000
f 93/93/24 94/94/24 95/95/24
f 93/93/24 95/95/24 96/96/24
g frame_top_grip_bottom
v 0.33715379 0.13641648 0.49764300
v 0.33715379 0.10041648 0.49764300
v -0.33715379 0.10041648 0.49764300
v -0.33715379 0.13641648 0.49764300
vt 0.83593750 0.45898438
vt 0.83593750 0.45898438
vt 0.83593750 0.45898438
vt 0.83593750 0.45898438
vn -0.00000000 -0.00000000 -1.00000000
f 97/97/25 98/98/25 99/99/25
f 97/97/25 99/99/25 100/100/25
g frame_top_grip_top
v 0.33715379 0.13641648 0.53510000
v -0.33715379 0.13641648 0.53510000
v -0.33715379 0.10041648 0.53510000
v 0.33715379 0.10041648 0.53510000
vt 0.83593750 0.45898438
vt 0.83593750 0.45898438
vt 0.83593750 0.45898438
vt 0.83593750 0.45898438
vn -0.00000000 -0.00000000 1.00000000
f 101/101/26 102/102/26 103/103/26
f 101/101/26 103/103/26 104/104/26
g frame_top_grip_front
v 0.33715379 0.13641648 0.49764300
v -0.33715379 0.13641648 0.49764300
v -0.33715379 0.13641648 0.53510000
v 0.33715379 0.13641648 0.53510000
vt 0.83593750 0.45898438
vt 0.83593750 0.45898438
vt 0.83593750 0.45898438
vt 0.83593750 0.45898438
vn -0.00000000 1.00000000 0.00000000
f 105/105/27 106/106/27 107/107/27
f 105/105/27 107/107/27 108/108/27
g frame_top_grip_right
v -0.33715379 0.13641648 0.49764300
v -0.33715379 0.10041648 0.49764300
v -0.33715379 0.10041648 0.53510000
v -0.33715379 0.13641648 0.53510000
vt 0.83593750 0.45898438
vt 0.83593750 0.45898438
vt 0.83593750 0.45898438
vt 0.83593750 0.45898438
vn -1.00000000 -0.00000000 0.00000000
f 109/109/28 110/110/28 111/111/28
f 109/109/28 111/111/28 112/112/28
g frame_top_grip_rear
v -0.33715379 0.10041648 0.49764300
v 0.33715379 0.10041648 0.49764300
v 0.33715379 0.10041648 0.53510000
v -0.33715379 0.10041648 0.53510000
vt 0.83593750 0.45898438
vt 0.83593750 0.45898438
vt 0.83593750 0.45898438
vt 0.83593750 0.45898438
vn -0.00000000 -1.00000000 0.00000000
f 113/113/29 114/114/29 115/115/29
f 113/113/29 115/115/29 116/116/29
g frame_top_grip_left
v 0.33715379 0.10041648 0.49764300
v 0.33715379 0.13641648 0.49764300
v 0.33715379 0.13641648 0.53510000
v 0.33715379 0.10041648 0.53510000
vt 0.83593750 0.45898438
vt 0.83593750 0.45898438
vt 0.83593750 0.45898438
vt 0.83593750 0.45898438
vn 1.00000000 -0.00000000 0.00000000
f 117/117/30 118/118/30 119/119/30
f 117/117/30 119/119/30 120/120/30
g frame_vertical_front
v 0.33715379 -0.13921648 0.00000000
v 0.30115379 -0.13921648 0.00000000
v 0.30115379 -0.13921648 0.49764300
v 0.33715379 -0.13921648 0.49764300
vt 0.83593750 0.45898438
vt 0.83593750 0.45898438
vt 0.83593750 0.45898438
vt 0.83593750 0.45898438
vn -0.00000000 1.00000000 0.00000000
f 121/121/31 122/122/31 123/123/31
f 121/121/31 123/123/31 124/124/31
g frame_vertical_right
v 0.30115379 -0.13921648 0.00000000
v 0.30115379 -0.17521648 0.00000000
v 0.30115379 -0.17521648 0.49764300
v 0.30115379 -0.13921648 0.49764300
vt 0.83593750 0.45898438
vt 0.83593750 0.45898438
vt 0.83593750 0.45898438
vt 0.83593750 0.45898438
vn -1.00000000 -0.00000000 0.00000000
f 125/125/32 126/126/32 127/127/32
f 125/125/32 127/127/32 128/128/32
g frame_vertical_rear
v 0.30115379 -0.17521648 0.00000000
v 0.33715379 -0.17521648 0.00000000
v 0.33715379 -0.17521648 0.49764300
v 0.30115379 -0.17521648 0.49764300
vt 0.83593750 0.45898438
vt 0.83593750 0.45898438
vt 0.83593750 0.45898438
vt 0.83593750 0.45898438
vn -0.00000000 -1.00000000 0.00000000
f 129/129/33 130/130/33 131/131/33
f 129/129/33 131/131/33 132/132/33
g frame_vertical_left
v 0.33715379 -0.17521648 0.00000000
v 0.33715379 -0.13921648 0.00000000
v 0.33715379 -0.13921648 0.49764300
v 0.33715379 -0.17521648 0.49764300
vt 0.83593750 0.45898438
vt 0.83593750 0.45898438
vt 0.83593750 0.45898438
vt 0.83593750 0.45898438
vn 1.00000000 -0.00000000 0.00000000
f 133/133/34 134/134/34 135/135/34
f 133/133/34 135/135/34 136/136/34
g frame_vertical_front
v -0.30115379 -0.13921648 0.00000000
v -0.33715379 -0.13921648 0.00000000
v -0.33715379 -0.13921648 0.49764300
v -0.30115379 -0.13921648 0.49764300
vt 0.83593750 0.45898438
vt 0.83593750 0.45898438
vt 0.83593750 0.45898438
vt 0.83593750 0.45898438
vn -0.00000000 1.00000000 0.00000000
f 137/137/35 138/138/35 139/139/35
f 137/137/35 139/139/35 140/140/35
g frame_vertical_right
v -0.33715379 -0.13921648 0.00000000
v -0.33715379 -0.17521648 0.00000000
v -0.33715379 -0.17521648 0.49764300
v -0.33715379 -0.13921648 0.49764300
vt 0.83593750 0.45898438
vt 0.83593750 0.45898438
vt 0.83593750 0.45898438
vt 0.83593750 0.45898438
vn -1.00000000 -0.00000000 0.00000000
f 141/141/36 142/142/36 143/143/36
f 141/141/36 143/143/36 144/144/36
g frame_vertical_rear
v -0.33715379 -0.17521648 0.00000000
v -0.30115379 -0.17521648 0.00000000
v -0.30115379 -0.17521648 0.49764300
v -0.33715379 -0.17521648 0.49764300
vt 0.83593750 0.45898438
vt 0.83593750 0.45898438
vt 0.83593750 0.45898438
vt 0.83593750 0.45898438
vn -0.00000000 -1.00000000 0.00000000
f 145/145/37 146/146/37 147/147/37
f 145/145/37 147/147/37 148/148/37
g frame_vertical_left
v -0.30115379 -0.17521648 0.00000000
v -0.30115379 -0.13921648 0.00000000
v -0.30115379 -0.13921648 0.49764300
v -0.30115379 -0.17521648 0.49764300
vt 0.83593750 0.45898438
vt 0.83593750 0.45898438
vt 0.83593750 0.45898438
vt 0.83593750 0.45898438
vn 1.00000000 -0.00000000 0.00000000
f 149/149/38 150/150/38 151/151/38
f 149/149/38 151/151/38 152/152/38
g frame_base_top
v 0.33715379 -0.13921648 0.03200000
v -0.33715379 -0.13921648 0.03200000
v -0.33715379 -0.17521648 0.03200000
v 0.33715379 -0.17521648 0.03200000
vt 0.83593750 0.45898438
vt 0.83593750 0.45898438
vt 0.83593750 0.45898438
vt 0.83593750 0.45898438
vn -0.00000000 -0.00000000 1.00000000
f 153/153/39 154/154/39 155/155/39
f 153/153/39 155/155/39 156/156/39
g frame_base_front
v 0.33715379 -0.13921648 0.00000000
v -0.33715379 -0.13921648 0.00000000
v -0.33715379 -0.13921648 0.03200000
v 0.33715379 -0.13921648 0.03200000
vt 0.83593750 0.45898438
vt 0.83593750 0.45898438
vt 0.83593750 0.45898438
vt 0.83593750 0.45898438
vn -0.00000000 1.00000000 0.00000000
f 157/157/40 158/158/40 159/159/40
f 157/157/40 159/159/40 160/160/40
g frame_base_right
v -0.33715379 -0.13921648 0.00000000
v -0.33715379 -0.17521648 0.00000000
v -0.33715379 -0.17521648 0.03200000
v -0.33715379 -0.13921648 0.03200000
vt 0.83593750 0.45898438
vt 0.83593750 0.45898438
vt 0.83593750 0.45898438
vt 0.83593750 0.45898438
vn -1.00000000 -0.00000000 0.00000000
f 161/161/41 162/162/41 163/163/41
f 161/161/41 163/163/41 164/164/41
g frame_base_rear
v -0.33715379 -0.17521648 0.00000000
v 0.33715379 -0.17521648 0.00000000
v 0.33715379 -0.17521648 0.03200000
v -0.33715379 -0.17521648 0.03200000
vt 0.83593750 0.45898438
vt 0.83593750 0.45898438
vt 0.83593750 0.45898438
vt 0.83593750 0.45898438
vn -0.00000000 -1.00000000 0.00000000
f 165/165/42 166/166/42 167/167/42
f 165/165/42 167/167/42 168/168/42
g frame_base_left
v 0.33715379 -0.17521648 0.00000000
v 0.33715379 -0.13921648 0.00000000
v 0.33715379 -0.13921648 0.03200000
v 0.33715379 -0.17521648 0.03200000
vt 0.83593750 0.45898438
vt 0.83593750 0.45898438
vt 0.83593750 0.45898438
vt 0.83593750 0.45898438
vn 1.00000000 -0.00000000 0.00000000
f 169/169/43 170/170/43 171/171/43
f 169/169/43 171/171/43 172/172/43
g frame_top_grip_bottom
v 0.33715379 -0.13921648 0.49764300
v 0.33715379 -0.17521648 0.49764300
v -0.33715379 -0.17521648 0.49764300
v -0.33715379 -0.13921648 0.49764300
vt 0.83593750 0.45898438
vt 0.83593750 0.45898438
vt 0.83593750 0.45898438
vt 0.83593750 0.45898438
vn -0.00000000 -0.00000000 -1.00000000
f 173/173/44 174/174/44 175/175/44
f 173/173/44 175/175/44 176/176/44
g frame_top_grip_top
v 0.33715379 -0.13921648 0.53510000
v -0.33715379 -0.13921648 0.53510000
v -0.33715379 -0.17521648 0.53510000
v 0.33715379 -0.17521648 0.53510000
vt 0.83593750 0.45898438
vt 0.83593750 0.45898438
vt 0.83593750 0.45898438
vt 0.83593750 0.45898438
vn -0.00000000 -0.00000000 1.00000000
f 177/177/45 178/178/45 179/179/45
f 177/177/45 179/179/45 180/180/45
g frame_top_grip_front
v 0.33715379 -0.13921648 0.49764300
v -0.33715379 -0.13921648 0.49764300
v -0.33715379 -0.13921648 0.53510000
v 0.33715379 -0.13921648 0.53510000
vt 0.83593750 0.45898438
vt 0.83593750 0.45898438
vt 0.83593750 0.45898438
vt 0.83593750 0.45898438
vn -0.00000000 1.00000000 0.00000000
f 181/181/46 182/182/46 183/183/46
f 181/181/46 183/183/46 184/184/46
g frame_top_grip_right
v -0.33715379 -0.13921648 0.49764300
v -0.33715379 -0.17521648 0.49764300
v -0.33715379 -0.17521648 0.53510000
v -0.33715379 -0.13921648 0.53510000
vt 0.83593750 0.45898438
vt 0.83593750 0.45898438
vt 0.83593750 0.45898438
vt 0.83593750 0.45898438
vn -1.00000000 -0.00000000 0.00000000
f 185/185/47 186/186/47 187/187/47
f 185/185/47 187/187/47 188/188/47
g frame_top_grip_rear
v -0.33715379 -0.17521648 0.49764300
v 0.33715379 -0.17521648 0.49764300
v 0.33715379 -0.17521648 0.53510000
v -0.33715379 -0.17521648 0.53510000
vt 0.83593750 0.45898438
vt 0.83593750 0.45898438
vt 0.83593750 0.45898438
vt 0.83593750 0.45898438
vn -0.00000000 -1.00000000 0.00000000
f 189/189/48 190/190/48 191/191/48
f 189/189/48 191/191/48 192/192/48
g frame_top_grip_left
v 0.33715379 -0.17521648 0.49764300
v 0.33715379 -0.13921648 0.49764300
v 0.33715379 -0.13921648 0.53510000
v 0.33715379 -0.17521648 0.53510000
vt 0.83593750 0.45898438
vt 0.83593750 0.45898438
vt 0.83593750 0.45898438
vt 0.83593750 0.45898438
vn 1.00000000 -0.00000000 0.00000000
f 193/193/49 194/194/49 195/195/49
f 193/193/49 195/195/49 196/196/49
