# Original G019 50s Diner; Z up; tile units
mtllib pz_g019_50s_diner_table_part0.mtl
o pz_g019_50s_diner_table_part0
usemtl NativeSurface
g tabletop_edge
v -0.50000000 -0.49990000 0.74510000
v 0.41000000 -0.49990000 0.74510000
v 0.41000000 -0.49990000 0.96290000
v -0.50000000 -0.49990000 0.96290000
vt 0.00976562 0.34863281
vt 0.51367188 0.34863281
vt 0.51367188 0.28417969
vt 0.00976562 0.28417969
vn -0.00000000 -1.00000000 0.00000000
f 1/1/1 2/2/1 3/3/1
f 1/1/1 3/3/1 4/4/1
g tabletop_edge
v 0.41000000 -0.49990000 0.74510000
v 0.47363961 -0.47353961 0.74510000
v 0.47363961 -0.47353961 0.96290000
v 0.41000000 -0.49990000 0.96290000
vt 0.00976562 0.27441406
vt 0.04882812 0.27441406
vt 0.04882812 0.20996094
vt 0.00976562 0.20996094
vn 0.38268343 -0.92387953 0.00000000
f 5/5/2 6/6/2 7/7/2
f 5/5/2 7/7/2 8/8/2
g tabletop_edge
v 0.47363961 -0.47353961 0.74510000
v 0.50000000 -0.40990000 0.74510000
v 0.50000000 -0.40990000 0.96290000
v 0.47363961 -0.47353961 0.96290000
vt 0.06835938 0.27441406
vt 0.10742188 0.27441406
vt 0.10742188 0.20996094
vt 0.06835938 0.20996094
vn 0.92387953 -0.38268343 0.00000000
f 9/9/3 10/10/3 11/11/3
f 9/9/3 11/11/3 12/12/3
g tabletop_edge
v 0.50000000 -0.40990000 0.74510000
v 0.50000000 0.36750000 0.74510000
v 0.50000000 0.36750000 0.96290000
v 0.50000000 -0.40990000 0.96290000
vt 0.53320312 0.34863281
vt 0.96289062 0.34863281
vt 0.96289062 0.28417969
vt 0.53320312 0.28417969
vn 1.00000000 -0.00000000 0.00000000
f 13/13/4 14/14/4 15/15/4
f 13/13/4 15/15/4 16/16/4
g tabletop_edge
v 0.50000000 0.36750000 0.74510000
v 0.47363961 0.43113961 0.74510000
v 0.47363961 0.43113961 0.96290000
v 0.50000000 0.36750000 0.96290000
vt 0.12695312 0.27441406
vt 0.15039062 0.27441406
vt 0.15039062 0.20996094
vt 0.12695312 0.20996094
vn 0.92387953 0.38268343 0.00000000
f 17/17/5 18/18/5 19/19/5
f 17/17/5 19/19/5 20/20/5
g tabletop_edge
v 0.47363961 0.43113961 0.74510000
v 0.41000000 0.45750000 0.74510000
v 0.41000000 0.45750000 0.96290000
v 0.47363961 0.43113961 0.96290000
vt 0.30273438 0.27441406
vt 0.33007812 0.27441406
vt 0.33007812 0.26074219
vt 0.30273438 0.26074219
vn 0.38268343 0.92387953 0.00000000
f 21/21/6 22/22/6 23/23/6
f 21/21/6 23/23/6 24/24/6
g tabletop_edge
v 0.41000000 0.45750000 0.74510000
v -0.50000000 0.45750000 0.74510000
v -0.50000000 0.45750000 0.96290000
v 0.41000000 0.45750000 0.96290000
vt 0.30273438 0.27441406
vt 0.33007812 0.27441406
vt 0.33007812 0.26074219
vt 0.30273438 0.26074219
vn -0.00000000 1.00000000 0.00000000
f 25/25/7 26/26/7 27/27/7
f 25/25/7 27/27/7 28/28/7
g tabletop_top
v -0.50000000 -0.49990000 0.96290000
v 0.41000000 -0.49990000 0.96290000
v -0.50000000 -0.45659874 0.96290000
vt 0.00976562 0.99511719
vt 0.51367188 0.99511719
vt 0.51367188 0.73535156
vn -0.00000000 -0.00000000 1.00000000
f 29/29/8 30/30/8 31/31/8
g tabletop_bottom
v -0.50000000 -0.45659874 0.74510000
v 0.41000000 -0.49990000 0.74510000
v -0.50000000 -0.49990000 0.74510000
vt 0.30273438 0.27441406
vt 0.33007812 0.27441406
vt 0.33007812 0.26074219
vn -0.00000000 -0.00000000 -1.00000000
f 32/32/9 33/33/9 34/34/9
g tabletop_top
v -0.50000000 -0.45659874 0.96290000
v 0.41000000 -0.49990000 0.96290000
v 0.47363961 -0.47353961 0.96290000
v -0.50000000 -0.44184611 0.96290000
vt 0.00976562 0.15136719
vt 0.52929688 0.15136719
vt 0.52929688 0.14550781
vt 0.00976562 0.14550781
vn -0.00000000 -0.00000000 1.00000000
f 35/35/10 36/36/10 37/37/10
f 35/35/10 37/37/10 38/38/10
g tabletop_bottom
v -0.50000000 -0.44184611 0.74510000
v 0.47363961 -0.47353961 0.74510000
v 0.41000000 -0.49990000 0.74510000
v -0.50000000 -0.45659874 0.74510000
vt 0.30273438 0.27441406
vt 0.33007812 0.27441406
vt 0.33007812 0.26074219
vt 0.30273438 0.26074219
vn -0.00000000 -0.00000000 -1.00000000
f 39/39/11 40/40/11 41/41/11
f 39/39/11 41/41/11 42/42/11
g tabletop_top
v -0.50000000 -0.44184611 0.96290000
v 0.47363961 -0.47353961 0.96290000
v 0.50000000 -0.40990000 0.96290000
v -0.50000000 -0.40990000 0.96290000
vt 0.00976562 0.16699219
vt 0.56054688 0.16699219
vt 0.56054688 0.16113281
vt 0.00976562 0.16113281
vn -0.00000000 -0.00000000 1.00000000
f 43/43/12 44/44/12 45/45/12
f 43/43/12 45/45/12 46/46/12
g tabletop_bottom
v -0.50000000 -0.40990000 0.74510000
v 0.50000000 -0.40990000 0.74510000
v 0.47363961 -0.47353961 0.74510000
v -0.50000000 -0.44184611 0.74510000
vt 0.30273438 0.27441406
vt 0.33007812 0.27441406
vt 0.33007812 0.26074219
vt 0.30273438 0.26074219
vn -0.00000000 -0.00000000 -1.00000000
f 47/47/13 48/48/13 49/49/13
f 47/47/13 49/49/13 50/50/13
g tabletop_top
v -0.50000000 -0.40990000 0.96290000
v 0.50000000 -0.40990000 0.96290000
v 0.50000000 0.36750000 0.96290000
v -0.50000000 -0.02484884 0.96290000
vt 0.00976562 0.46386719
vt 0.56445312 0.46386719
vt 0.56445312 0.35839844
vt 0.00976562 0.35839844
vn -0.00000000 -0.00000000 1.00000000
f 51/51/14 52/52/14 53/53/14
f 51/51/14 53/53/14 54/54/14
g tabletop_bottom
v -0.50000000 -0.02484884 0.74510000
v 0.50000000 0.36750000 0.74510000
v 0.50000000 -0.40990000 0.74510000
v -0.50000000 -0.40990000 0.74510000
vt 0.30273438 0.27441406
vt 0.33007812 0.27441406
vt 0.33007812 0.26074219
vt 0.30273438 0.26074219
vn 0.00000000 -0.00000000 -1.00000000
f 55/55/15 56/56/15 57/57/15
f 55/55/15 57/57/15 58/58/15
g tabletop_top
v -0.50000000 -0.02484884 0.96290000
v 0.50000000 0.36750000 0.96290000
v 0.47363961 0.43113961 0.96290000
v -0.50000000 0.01228903 0.96290000
vt 0.00976562 0.20019531
vt 0.71679688 0.20019531
vt 0.71679688 0.19238281
vt 0.00976562 0.19238281
vn -0.00000000 -0.00000000 1.00000000
f 59/59/16 60/60/16 61/61/16
f 59/59/16 61/61/16 62/62/16
g tabletop_bottom
v -0.50000000 0.01228903 0.74510000
v 0.47363961 0.43113961 0.74510000
v 0.50000000 0.36750000 0.74510000
v -0.50000000 -0.02484884 0.74510000
vt 0.30273438 0.27441406
vt 0.33007812 0.27441406
vt 0.33007812 0.26074219
vt 0.30273438 0.26074219
vn -0.00000000 -0.00000000 -1.00000000
f 63/63/17 64/64/17 65/65/17
f 63/63/17 65/65/17 66/66/17
g tabletop_top
v -0.50000000 0.01228903 0.96290000
v 0.47363961 0.43113961 0.96290000
v 0.41000000 0.45750000 0.96290000
v -0.50000000 0.04017209 0.96290000
vt 0.00976562 0.18261719
vt 0.71289062 0.18261719
vt 0.71289062 0.17675781
vt 0.00976562 0.17675781
vn -0.00000000 -0.00000000 1.00000000
f 67/67/18 68/68/18 69/69/18
f 67/67/18 69/69/18 70/70/18
g tabletop_bottom
v -0.50000000 0.04017209 0.74510000
v 0.41000000 0.45750000 0.74510000
v 0.47363961 0.43113961 0.74510000
v -0.50000000 0.01228903 0.74510000
vt 0.30273438 0.27441406
vt 0.33007812 0.27441406
vt 0.33007812 0.26074219
vt 0.30273438 0.26074219
vn -0.00000000 -0.00000000 -1.00000000
f 71/71/19 72/72/19 73/73/19
f 71/71/19 73/73/19 74/74/19
g tabletop_top
v -0.50000000 0.04017209 0.96290000
v 0.41000000 0.45750000 0.96290000
v -0.50000000 0.45750000 0.96290000
vt 0.00976562 0.72558594
vt 0.67773438 0.72558594
vt 0.67773438 0.47363281
vn -0.00000000 -0.00000000 1.00000000
f 75/75/20 76/76/20 77/77/20
g tabletop_bottom
v -0.50000000 0.45750000 0.74510000
v 0.41000000 0.45750000 0.74510000
v -0.50000000 0.04017209 0.74510000
vt 0.30273438 0.27441406
vt 0.33007812 0.27441406
vt 0.33007812 0.26074219
vn -0.00000000 -0.00000000 -1.00000000
f 78/78/21 79/79/21 80/80/21
g pedestal_0_side
v -0.43030000 -0.49870000 0.00000000
v -0.18535000 -0.43306585 0.00000000
v -0.18535000 -0.43306585 0.10085086
v -0.43030000 -0.49870000 0.10085086
vt 0.19726562 0.27441406
vt 0.28320312 0.27441406
vt 0.28320312 0.25292969
vt 0.19726562 0.25292969
vn 0.25881905 -0.96592583 0.00000000
f 81/81/22 82/82/22 83/83/22
f 81/81/22 83/83/22 84/84/22
g pedestal_0_side
v -0.18535000 -0.43306585 0.00000000
v -0.00603415 -0.25375000 0.00000000
v -0.00603415 -0.25375000 0.10085086
v -0.18535000 -0.43306585 0.10085086
vt 0.19726562 0.27441406
vt 0.28320312 0.27441406
vt 0.28320312 0.25292969
vt 0.19726562 0.25292969
vn 0.70710678 -0.70710678 0.00000000
f 85/85/23 86/86/23 87/87/23
f 85/85/23 87/87/23 88/88/23
g pedestal_0_side
v -0.00603415 -0.25375000 0.00000000
v 0.05960000 -0.00880000 0.00000000
v 0.05960000 -0.00880000 0.10085086
v -0.00603415 -0.25375000 0.10085086
vt 0.19726562 0.27441406
vt 0.28320312 0.27441406
vt 0.28320312 0.25292969
vt 0.19726562 0.25292969
vn 0.96592583 -0.25881905 0.00000000
f 89/89/24 90/90/24 91/91/24
f 89/89/24 91/91/24 92/92/24
g pedestal_0_side
v 0.05960000 -0.00880000 0.00000000
v -0.00603415 0.23615000 0.00000000
v -0.00603415 0.23615000 0.10085086
v 0.05960000 -0.00880000 0.10085086
vt 0.19726562 0.27441406
vt 0.28320312 0.27441406
vt 0.28320312 0.25292969
vt 0.19726562 0.25292969
vn 0.96592583 0.25881905 0.00000000
f 93/93/25 94/94/25 95/95/25
f 93/93/25 95/95/25 96/96/25
g pedestal_0_side
v -0.00603415 0.23615000 0.00000000
v -0.18535000 0.41546585 0.00000000
v -0.18535000 0.41546585 0.10085086
v -0.00603415 0.23615000 0.10085086
vt 0.19726562 0.27441406
vt 0.28320312 0.27441406
vt 0.28320312 0.25292969
vt 0.19726562 0.25292969
vn 0.70710678 0.70710678 0.00000000
f 97/97/26 98/98/26 99/99/26
f 97/97/26 99/99/26 100/100/26
g pedestal_0_side
v -0.18535000 0.41546585 0.00000000
v -0.43030000 0.48110000 0.00000000
v -0.43030000 0.48110000 0.10085086
v -0.18535000 0.41546585 0.10085086
vt 0.19726562 0.27441406
vt 0.28320312 0.27441406
vt 0.28320312 0.25292969
vt 0.19726562 0.25292969
vn 0.25881905 0.96592583 0.00000000
f 101/101/27 102/102/27 103/103/27
f 101/101/27 103/103/27 104/104/27
g pedestal_0_side
v -0.43030000 0.48110000 0.00000000
v -0.50000000 0.46242394 0.00000000
v -0.50000000 0.46242394 0.10085086
v -0.43030000 0.48110000 0.10085086
vt 0.19726562 0.27441406
vt 0.28320312 0.27441406
vt 0.28320312 0.25292969
vt 0.19726562 0.25292969
vn -0.25881905 0.96592583 0.00000000
f 105/105/28 106/106/28 107/107/28
f 105/105/28 107/107/28 108/108/28
g pedestal_0_side
v -0.50000000 -0.48002394 0.00000000
v -0.43030000 -0.49870000 0.00000000
v -0.43030000 -0.49870000 0.10085086
v -0.50000000 -0.48002394 0.10085086
vt 0.19726562 0.27441406
vt 0.28320312 0.27441406
vt 0.28320312 0.25292969
vt 0.19726562 0.25292969
vn -0.25881905 -0.96592583 0.00000000
f 109/109/29 110/110/29 111/111/29
f 109/109/29 111/111/29 112/112/29
g pedestal_0_cap0
v -0.43030000 -0.49870000 0.00000000
v -0.00603415 -0.25375000 0.00000000
v -0.18535000 -0.43306585 0.00000000
vt 0.19726562 0.27441406
vt 0.28320312 0.27441406
vt 0.28320312 0.25292969
vn -0.00000000 -0.00000000 -1.00000000
f 113/113/30 114/114/30 115/115/30
g pedestal_0_cap1
v -0.43030000 -0.49870000 0.10085086
v -0.18535000 -0.43306585 0.10085086
v -0.00603415 -0.25375000 0.10085086
vt 0.19726562 0.27441406
vt 0.28320312 0.27441406
vt 0.28320312 0.25292969
vn -0.00000000 -0.00000000 1.00000000
f 116/116/31 117/117/31 118/118/31
g pedestal_0_cap0
v -0.43030000 -0.49870000 0.00000000
v 0.05960000 -0.00880000 0.00000000
v -0.00603415 -0.25375000 0.00000000
vt 0.19726562 0.27441406
vt 0.28320312 0.27441406
vt 0.28320312 0.25292969
vn -0.00000000 -0.00000000 -1.00000000
f 119/119/32 120/120/32 121/121/32
g pedestal_0_cap1
v -0.43030000 -0.49870000 0.10085086
v -0.00603415 -0.25375000 0.10085086
v 0.05960000 -0.00880000 0.10085086
vt 0.19726562 0.27441406
vt 0.28320312 0.27441406
vt 0.28320312 0.25292969
vn -0.00000000 -0.00000000 1.00000000
f 122/122/33 123/123/33 124/124/33
g pedestal_0_cap0
v -0.43030000 -0.49870000 0.00000000
v -0.00603415 0.23615000 0.00000000
v 0.05960000 -0.00880000 0.00000000
vt 0.19726562 0.27441406
vt 0.28320312 0.27441406
vt 0.28320312 0.25292969
vn -0.00000000 -0.00000000 -1.00000000
f 125/125/34 126/126/34 127/127/34
g pedestal_0_cap1
v -0.43030000 -0.49870000 0.10085086
v 0.05960000 -0.00880000 0.10085086
v -0.00603415 0.23615000 0.10085086
vt 0.19726562 0.27441406
vt 0.28320312 0.27441406
vt 0.28320312 0.25292969
vn -0.00000000 -0.00000000 1.00000000
f 128/128/35 129/129/35 130/130/35
g pedestal_0_cap0
v -0.43030000 -0.49870000 0.00000000
v -0.18535000 0.41546585 0.00000000
v -0.00603415 0.23615000 0.00000000
vt 0.19726562 0.27441406
vt 0.28320312 0.27441406
vt 0.28320312 0.25292969
vn -0.00000000 -0.00000000 -1.00000000
f 131/131/36 132/132/36 133/133/36
g pedestal_0_cap1
v -0.43030000 -0.49870000 0.10085086
v -0.00603415 0.23615000 0.10085086
v -0.18535000 0.41546585 0.10085086
vt 0.19726562 0.27441406
vt 0.28320312 0.27441406
vt 0.28320312 0.25292969
vn -0.00000000 -0.00000000 1.00000000
f 134/134/37 135/135/37 136/136/37
g pedestal_0_cap0
v -0.43030000 -0.49870000 0.00000000
v -0.43030000 0.48110000 0.00000000
v -0.18535000 0.41546585 0.00000000
vt 0.19726562 0.27441406
vt 0.28320312 0.27441406
vt 0.28320312 0.25292969
vn -0.00000000 -0.00000000 -1.00000000
f 137/137/38 138/138/38 139/139/38
g pedestal_0_cap1
v -0.43030000 -0.49870000 0.10085086
v -0.18535000 0.41546585 0.10085086
v -0.43030000 0.48110000 0.10085086
vt 0.19726562 0.27441406
vt 0.28320312 0.27441406
vt 0.28320312 0.25292969
vn -0.00000000 -0.00000000 1.00000000
f 140/140/39 141/141/39 142/142/39
g pedestal_0_cap0
v -0.43030000 -0.49870000 0.00000000
v -0.50000000 -0.23857606 0.00000000
v -0.50000000 0.46242394 0.00000000
v -0.43030000 0.48110000 0.00000000
vt 0.19726562 0.27441406
vt 0.28320312 0.27441406
vt 0.28320312 0.25292969
vt 0.19726562 0.25292969
vn -0.00000000 0.00000000 -1.00000000
f 143/143/40 144/144/40 145/145/40
f 143/143/40 145/145/40 146/146/40
g pedestal_0_cap1
v -0.43030000 -0.49870000 0.10085086
v -0.43030000 0.48110000 0.10085086
v -0.50000000 0.46242394 0.10085086
v -0.50000000 -0.23857606 0.10085086
vt 0.19726562 0.27441406
vt 0.28320312 0.27441406
vt 0.28320312 0.25292969
vt 0.19726562 0.25292969
vn -0.00000000 -0.00000000 1.00000000
f 147/147/41 148/148/41 149/149/41
f 147/147/41 149/149/41 150/150/41
g pedestal_0_cap0
v -0.43030000 -0.49870000 0.00000000
v -0.50000000 -0.37797606 0.00000000
v -0.50000000 -0.23857606 0.00000000
vt 0.19726562 0.27441406
vt 0.28320312 0.27441406
vt 0.28320312 0.25292969
vn -0.00000000 -0.00000000 -1.00000000
f 151/151/42 152/152/42 153/153/42
g pedestal_0_cap1
v -0.43030000 -0.49870000 0.10085086
v -0.50000000 -0.23857606 0.10085086
v -0.50000000 -0.37797606 0.10085086
vt 0.19726562 0.27441406
vt 0.28320312 0.27441406
vt 0.28320312 0.25292969
vn -0.00000000 -0.00000000 1.00000000
f 154/154/43 155/155/43 156/156/43
g pedestal_0_cap0
v -0.43030000 -0.49870000 0.00000000
v -0.50000000 -0.42900000 0.00000000
v -0.50000000 -0.37797606 0.00000000
vt 0.19726562 0.27441406
vt 0.28320312 0.27441406
vt 0.28320312 0.25292969
vn -0.00000000 -0.00000000 -1.00000000
f 157/157/44 158/158/44 159/159/44
g pedestal_0_cap1
v -0.43030000 -0.49870000 0.10085086
v -0.50000000 -0.37797606 0.10085086
v -0.50000000 -0.42900000 0.10085086
vt 0.19726562 0.27441406
vt 0.28320312 0.27441406
vt 0.28320312 0.25292969
vn -0.00000000 -0.00000000 1.00000000
f 160/160/45 161/161/45 162/162/45
g pedestal_0_cap0
v -0.43030000 -0.49870000 0.00000000
v -0.50000000 -0.45845869 0.00000000
v -0.50000000 -0.42900000 0.00000000
vt 0.19726562 0.27441406
vt 0.28320312 0.27441406
vt 0.28320312 0.25292969
vn -0.00000000 -0.00000000 -1.00000000
f 163/163/46 164/164/46 165/165/46
g pedestal_0_cap1
v -0.43030000 -0.49870000 0.10085086
v -0.50000000 -0.42900000 0.10085086
v -0.50000000 -0.45845869 0.10085086
vt 0.19726562 0.27441406
vt 0.28320312 0.27441406
vt 0.28320312 0.25292969
vn -0.00000000 -0.00000000 1.00000000
f 166/166/47 167/167/47 168/168/47
g pedestal_0_cap0
v -0.43030000 -0.49870000 0.00000000
v -0.50000000 -0.48002394 0.00000000
v -0.50000000 -0.45845869 0.00000000
vt 0.19726562 0.27441406
vt 0.28320312 0.27441406
vt 0.28320312 0.25292969
vn -0.00000000 -0.00000000 -1.00000000
f 169/169/48 170/170/48 171/171/48
g pedestal_0_cap1
v -0.43030000 -0.49870000 0.10085086
v -0.50000000 -0.45845869 0.10085086
v -0.50000000 -0.48002394 0.10085086
vt 0.19726562 0.27441406
vt 0.28320312 0.27441406
vt 0.28320312 0.25292969
vn -0.00000000 -0.00000000 1.00000000
f 172/172/49 173/173/49 174/174/49
g pedestal_1_side
v -0.33090000 0.00580000 0.00000000
v -0.28803174 0.03055000 0.00000000
v -0.28803174 0.03055000 0.74465009
v -0.33090000 0.00580000 0.74465009
vt 0.16992188 0.27441406
vt 0.17773438 0.27441406
vt 0.17773438 0.24902344
vt 0.16992188 0.24902344
vn 0.50000000 -0.86602540 0.00000000
f 175/175/50 176/176/50 177/177/50
f 175/175/50 177/177/50 178/178/50
g pedestal_1_side
v -0.28803174 0.03055000 0.00000000
v -0.28803174 0.08005000 0.00000000
v -0.28803174 0.08005000 0.74465009
v -0.28803174 0.03055000 0.74465009
vt 0.16992188 0.27441406
vt 0.17773438 0.27441406
vt 0.17773438 0.24902344
vt 0.16992188 0.24902344
vn 1.00000000 -0.00000000 0.00000000
f 179/179/51 180/180/51 181/181/51
f 179/179/51 181/181/51 182/182/51
g pedestal_1_side
v -0.28803174 0.08005000 0.00000000
v -0.33090000 0.10480000 0.00000000
v -0.33090000 0.10480000 0.74465009
v -0.28803174 0.08005000 0.74465009
vt 0.16992188 0.27441406
vt 0.17773438 0.27441406
vt 0.17773438 0.24902344
vt 0.16992188 0.24902344
vn 0.50000000 0.86602540 0.00000000
f 183/183/52 184/184/52 185/185/52
f 183/183/52 185/185/52 186/186/52
g pedestal_1_side
v -0.33090000 0.10480000 0.00000000
v -0.37376826 0.08005000 0.00000000
v -0.37376826 0.08005000 0.74465009
v -0.33090000 0.10480000 0.74465009
vt 0.16992188 0.27441406
vt 0.17773438 0.27441406
vt 0.17773438 0.24902344
vt 0.16992188 0.24902344
vn -0.50000000 0.86602540 0.00000000
f 187/187/53 188/188/53 189/189/53
f 187/187/53 189/189/53 190/190/53
g pedestal_1_side
v -0.37376826 0.08005000 0.00000000
v -0.37376826 0.03055000 0.00000000
v -0.37376826 0.03055000 0.74465009
v -0.37376826 0.08005000 0.74465009
vt 0.16992188 0.27441406
vt 0.17773438 0.27441406
vt 0.17773438 0.24902344
vt 0.16992188 0.24902344
vn -1.00000000 -0.00000000 0.00000000
f 191/191/54 192/192/54 193/193/54
f 191/191/54 193/193/54 194/194/54
g pedestal_1_side
v -0.37376826 0.03055000 0.00000000
v -0.33090000 0.00580000 0.00000000
v -0.33090000 0.00580000 0.74465009
v -0.37376826 0.03055000 0.74465009
vt 0.16992188 0.27441406
vt 0.17773438 0.27441406
vt 0.17773438 0.24902344
vt 0.16992188 0.24902344
vn -0.50000000 -0.86602540 0.00000000
f 195/195/55 196/196/55 197/197/55
f 195/195/55 197/197/55 198/198/55
g pedestal_1_cap0
v -0.33090000 0.00580000 0.00000000
v -0.28803174 0.08005000 0.00000000
v -0.28803174 0.03055000 0.00000000
vt 0.16992188 0.27441406
vt 0.17773438 0.27441406
vt 0.17773438 0.24902344
vn -0.00000000 -0.00000000 -1.00000000
f 199/199/56 200/200/56 201/201/56
g pedestal_1_cap1
v -0.33090000 0.00580000 0.74465009
v -0.28803174 0.03055000 0.74465009
v -0.28803174 0.08005000 0.74465009
vt 0.16992188 0.27441406
vt 0.17773438 0.27441406
vt 0.17773438 0.24902344
vn -0.00000000 -0.00000000 1.00000000
f 202/202/57 203/203/57 204/204/57
g pedestal_1_cap0
v -0.33090000 0.00580000 0.00000000
v -0.33090000 0.10480000 0.00000000
v -0.28803174 0.08005000 0.00000000
vt 0.16992188 0.27441406
vt 0.17773438 0.27441406
vt 0.17773438 0.24902344
vn -0.00000000 0.00000000 -1.00000000
f 205/205/58 206/206/58 207/207/58
g pedestal_1_cap1
v -0.33090000 0.00580000 0.74465009
v -0.28803174 0.08005000 0.74465009
v -0.33090000 0.10480000 0.74465009
vt 0.16992188 0.27441406
vt 0.17773438 0.27441406
vt 0.17773438 0.24902344
vn -0.00000000 -0.00000000 1.00000000
f 208/208/59 209/209/59 210/210/59
g pedestal_1_cap0
v -0.33090000 0.00580000 0.00000000
v -0.37376826 0.08005000 0.00000000
v -0.33090000 0.10480000 0.00000000
vt 0.16992188 0.27441406
vt 0.17773438 0.27441406
vt 0.17773438 0.24902344
vn -0.00000000 -0.00000000 -1.00000000
f 211/211/60 212/212/60 213/213/60
g pedestal_1_cap1
v -0.33090000 0.00580000 0.74465009
v -0.33090000 0.10480000 0.74465009
v -0.37376826 0.08005000 0.74465009
vt 0.16992188 0.27441406
vt 0.17773438 0.27441406
vt 0.17773438 0.24902344
vn -0.00000000 -0.00000000 1.00000000
f 214/214/61 215/215/61 216/216/61
g pedestal_1_cap0
v -0.33090000 0.00580000 0.00000000
v -0.37376826 0.03055000 0.00000000
v -0.37376826 0.08005000 0.00000000
vt 0.16992188 0.27441406
vt 0.17773438 0.27441406
vt 0.17773438 0.24902344
vn -0.00000000 -0.00000000 -1.00000000
f 217/217/62 218/218/62 219/219/62
g pedestal_1_cap1
v -0.33090000 0.00580000 0.74465009
v -0.37376826 0.08005000 0.74465009
v -0.37376826 0.03055000 0.74465009
vt 0.16992188 0.27441406
vt 0.17773438 0.27441406
vt 0.17773438 0.24902344
vn -0.00000000 -0.00000000 1.00000000
f 220/220/63 221/221/63 222/222/63
