# Authored through Blender MCP; native tiles are the scale reference.
mtllib pz_house_clock_round.mtl
usemtl native
v -0.1046875 -0.4450000 1.5671850
vt 0.293437800 0.667435100
vn 0.0000000 -1.0000000 0.0000000
v 0.0776135 -0.4450000 1.6426966
vt 0.475738600 0.668101100
vn 0.0000000 -1.0000000 0.0000000
v 0.1531250 -0.4450000 1.8249975
vt 0.551249800 0.760859300
vn 0.0000000 -1.0000000 0.0000000
o pz_house_clock_round_|_1_parte_1
f 1/1/1 2/2/2 3/3/3
v 0.1531250 -0.4450000 1.8249975
vt 0.551249800 0.760859300
vn 0.0000000 -0.9999999 0.0000000
v 0.0776135 -0.4450000 2.0072985
vt 0.475738600 0.891373300
vn 0.0000000 -0.9999999 0.0000000
v -0.1046875 -0.4450000 2.0828102
vt 0.293437800 0.983189900
vn 0.0000000 -0.9999999 0.0000000
f 4/4/4 5/5/5 6/6/6
v -0.1046875 -0.4450000 2.0828102
vt 0.293437800 0.983189900
vn 0.0000000 -1.0000000 0.0000000
v -0.2869885 -0.4450000 2.0072985
vt 0.111136200 0.982523700
vn 0.0000000 -1.0000000 0.0000000
v -0.3625000 -0.4450000 1.8249975
vt 0.035625000 0.889765700
vn 0.0000000 -1.0000000 0.0000000
f 7/7/7 8/8/8 9/9/9
v -0.3625000 -0.4450000 1.8249975
vt 0.035625000 0.889765700
vn 0.0000000 -1.0000000 0.0000000
v -0.2869885 -0.4450000 1.6426966
vt 0.111136200 0.759251700
vn 0.0000000 -1.0000000 0.0000000
v -0.1046875 -0.4450000 1.5671850
vt 0.293437800 0.667435100
vn 0.0000000 -1.0000000 0.0000000
f 10/10/10 11/11/11 12/12/12
v -0.1046875 -0.4450000 1.5671850
vt 0.293437800 0.667435100
vn 0.0000000 -1.0000000 -0.0000000
v 0.1531250 -0.4450000 1.8249975
vt 0.551249800 0.760859300
vn 0.0000000 -1.0000000 -0.0000000
v -0.1046875 -0.4450000 2.0828102
vt 0.293437800 0.983189900
vn 0.0000000 -1.0000000 -0.0000000
f 13/13/13 14/14/14 15/15/15
v -0.1046875 -0.4450000 2.0828102
vt 0.293437800 0.983189900
vn 0.0000000 -1.0000000 0.0000000
v -0.3625000 -0.4450000 1.8249975
vt 0.035625000 0.889765700
vn 0.0000000 -1.0000000 0.0000000
v -0.1046875 -0.4450000 1.5671850
vt 0.293437800 0.667435100
vn 0.0000000 -1.0000000 0.0000000
f 16/16/16 17/17/17 18/18/18
v 0.0776135 -0.4050000 2.0072985
vt 0.482613600 0.537623300
vn 0.0000000 1.0000000 -0.0000000
v 0.1531250 -0.4050000 1.8249975
vt 0.558124800 0.407109300
vn 0.0000000 1.0000000 -0.0000000
v 0.0776135 -0.4050000 1.6426966
vt 0.482613600 0.314351300
vn 0.0000000 1.0000000 -0.0000000
f 19/19/19 20/20/20 21/21/21
v 0.0776135 -0.4050000 1.6426966
vt 0.482613600 0.314351300
vn -0.0000000 1.0000000 0.0000000
v -0.1046875 -0.4050000 1.5671850
vt 0.300312800 0.313685100
vn -0.0000000 1.0000000 0.0000000
v -0.2869885 -0.4050000 1.6426966
vt 0.118011200 0.405501700
vn -0.0000000 1.0000000 0.0000000
f 22/22/22 23/23/23 24/24/24
v -0.2869885 -0.4050000 1.6426966
vt 0.118011200 0.405501700
vn 0.0000000 1.0000000 0.0000000
v -0.3625000 -0.4050000 1.8249975
vt 0.042500000 0.536015700
vn 0.0000000 1.0000000 0.0000000
v -0.2869885 -0.4050000 2.0072985
vt 0.118011200 0.628773900
vn 0.0000000 1.0000000 0.0000000
f 25/25/25 26/26/26 27/27/27
v -0.2869885 -0.4050000 2.0072985
vt 0.118011200 0.628773900
vn 0.0000000 1.0000000 0.0000000
v -0.1046875 -0.4050000 2.0828102
vt 0.300312800 0.629439900
vn 0.0000000 1.0000000 0.0000000
v 0.0776135 -0.4050000 2.0072985
vt 0.482613600 0.537623300
vn 0.0000000 1.0000000 0.0000000
f 28/28/28 29/29/29 30/30/30
v 0.0776135 -0.4050000 2.0072985
vt 0.482613600 0.537623300
vn 0.0000000 1.0000000 0.0000000
v 0.0776135 -0.4050000 1.6426966
vt 0.482613600 0.314351300
vn 0.0000000 1.0000000 0.0000000
v -0.2869885 -0.4050000 1.6426966
vt 0.118011200 0.405501700
vn 0.0000000 1.0000000 0.0000000
f 31/31/31 32/32/32 33/33/33
v -0.2869885 -0.4050000 1.6426966
vt 0.118011200 0.405501700
vn 0.0000000 1.0000000 0.0000000
v -0.2869885 -0.4050000 2.0072985
vt 0.118011200 0.628773900
vn 0.0000000 1.0000000 0.0000000
v 0.0776135 -0.4050000 2.0072985
vt 0.482613600 0.537623300
vn 0.0000000 1.0000000 0.0000000
f 34/34/34 35/35/35 36/36/36
v 0.1531250 -0.4450000 1.8249975
vt 0.754374800 0.495234300
vn 0.9238795 0.0000000 0.3826835
v 0.1531250 -0.4050000 1.8249975
vt 0.714374800 0.485234300
vn 0.9238795 0.0000000 0.3826835
v 0.0776135 -0.4050000 2.0072985
vt 0.638863600 0.615748300
vn 0.9238795 0.0000000 0.3826835
f 37/37/37 38/38/38 39/39/39
v 0.1531250 -0.4450000 1.8249975
vt 0.754374800 0.495234300
vn 0.9238795 -0.0000000 0.3826835
v 0.0776135 -0.4050000 2.0072985
vt 0.638863600 0.615748300
vn 0.9238795 -0.0000000 0.3826835
v 0.0776135 -0.4450000 2.0072985
vt 0.678863600 0.625748300
vn 0.9238795 -0.0000000 0.3826835
f 40/40/40 41/41/41 42/42/42
v 0.0776135 -0.4450000 2.0072985
vt 0.256988600 0.188248300
vn 0.3826841 0.0000000 0.9238793
v 0.0776135 -0.4050000 2.0072985
vt 0.216988600 0.178248300
vn 0.3826841 0.0000000 0.9238793
v -0.1046875 -0.4050000 2.0828102
vt 0.034687800 0.270064900
vn 0.3826841 0.0000000 0.9238793
f 43/43/43 44/44/44 45/45/45
v 0.0776135 -0.4450000 2.0072985
vt 0.256988600 0.188248300
vn 0.3826841 -0.0000000 0.9238793
v -0.1046875 -0.4050000 2.0828102
vt 0.034687800 0.270064900
vn 0.3826841 -0.0000000 0.9238793
v -0.1046875 -0.4450000 2.0828102
vt 0.074687800 0.280064900
vn 0.3826841 -0.0000000 0.9238793
f 46/46/46 47/47/47 48/48/48
v -0.1046875 -0.4450000 2.0828102
vt 0.262187800 0.139439900
vn -0.3826841 0.0000000 0.9238792
v -0.1046875 -0.4050000 2.0828102
vt 0.222187800 0.129439900
vn -0.3826841 0.0000000 0.9238792
v -0.2869885 -0.4050000 2.0072985
vt 0.039886200 0.128773900
vn -0.3826841 0.0000000 0.9238792
f 49/49/49 50/50/50 51/51/51
v -0.1046875 -0.4450000 2.0828102
vt 0.262187800 0.139439900
vn -0.3826841 0.0000000 0.9238792
v -0.2869885 -0.4050000 2.0072985
vt 0.039886200 0.128773900
vn -0.3826841 0.0000000 0.9238792
v -0.2869885 -0.4450000 2.0072985
vt 0.079886200 0.138773700
vn -0.3826841 0.0000000 0.9238792
f 52/52/52 53/53/53 54/54/54
v -0.2869885 -0.4450000 2.0072985
vt 0.454886200 0.279398700
vn -0.9238795 0.0000000 0.3826836
v -0.2869885 -0.4050000 2.0072985
vt 0.414886200 0.269398900
vn -0.9238795 0.0000000 0.3826836
v -0.3625000 -0.4050000 1.8249975
vt 0.339375000 0.176640700
vn -0.9238795 0.0000000 0.3826836
f 55/55/55 56/56/56 57/57/57
v -0.2869885 -0.4450000 2.0072985
vt 0.454886200 0.279398700
vn -0.9238795 0.0000000 0.3826836
v -0.3625000 -0.4050000 1.8249975
vt 0.339375000 0.176640700
vn -0.9238795 0.0000000 0.3826836
v -0.3625000 -0.4450000 1.8249975
vt 0.379375000 0.186640700
vn -0.9238795 0.0000000 0.3826836
f 58/58/58 59/59/59 60/60/60
v -0.3625000 -0.4450000 1.8249975
vt 0.879375000 0.631953200
vn -0.9238795 -0.0000000 -0.3826836
v -0.3625000 -0.4050000 1.8249975
vt 0.839375000 0.621953200
vn -0.9238795 -0.0000000 -0.3826836
v -0.2869885 -0.4050000 1.6426966
vt 0.914886200 0.491439200
vn -0.9238795 -0.0000000 -0.3826836
f 61/61/61 62/62/62 63/63/63
v -0.3625000 -0.4450000 1.8249975
vt 0.879375000 0.631953200
vn -0.9238795 0.0000000 -0.3826836
v -0.2869885 -0.4050000 1.6426966
vt 0.914886200 0.491439200
vn -0.9238795 0.0000000 -0.3826836
v -0.2869885 -0.4450000 1.6426966
vt 0.954886200 0.501439200
vn -0.9238795 0.0000000 -0.3826836
f 64/64/64 65/65/65 66/66/66
v -0.2869885 -0.4450000 1.6426966
vt 0.579886200 0.274876700
vn -0.3826836 -0.0000000 -0.9238794
v -0.2869885 -0.4050000 1.6426966
vt 0.539886200 0.264876700
vn -0.3826836 -0.0000000 -0.9238794
v -0.1046875 -0.4050000 1.5671850
vt 0.722187800 0.173060100
vn -0.3826836 -0.0000000 -0.9238794
f 67/67/67 68/68/68 69/69/69
v -0.2869885 -0.4450000 1.6426966
vt 0.579886200 0.274876700
vn -0.3826836 0.0000000 -0.9238794
v -0.1046875 -0.4050000 1.5671850
vt 0.722187800 0.173060100
vn -0.3826836 0.0000000 -0.9238794
v -0.1046875 -0.4450000 1.5671850
vt 0.762187800 0.183060100
vn -0.3826836 0.0000000 -0.9238794
f 70/70/70 71/71/71 72/72/72
v -0.1046875 -0.4450000 1.5671850
vt 0.371562800 0.136185100
vn 0.3826836 0.0000000 -0.9238794
v -0.1046875 -0.4050000 1.5671850
vt 0.331562800 0.126185100
vn 0.3826836 0.0000000 -0.9238794
v 0.0776135 -0.4050000 1.6426966
vt 0.513863600 0.126851300
vn 0.3826836 0.0000000 -0.9238794
f 73/73/73 74/74/74 75/75/75
v -0.1046875 -0.4450000 1.5671850
vt 0.371562800 0.136185100
vn 0.3826836 0.0000000 -0.9238794
v 0.0776135 -0.4050000 1.6426966
vt 0.513863600 0.126851300
vn 0.3826836 0.0000000 -0.9238794
v 0.0776135 -0.4450000 1.6426966
vt 0.553863600 0.136851100
vn 0.3826836 0.0000000 -0.9238794
f 76/76/76 77/77/77 78/78/78
v 0.0776135 -0.4450000 1.6426966
vt 0.881988600 0.183726100
vn 0.9238795 0.0000000 -0.3826835
v 0.0776135 -0.4050000 1.6426966
vt 0.841988600 0.173726300
vn 0.9238795 0.0000000 -0.3826835
v 0.1531250 -0.4050000 1.8249975
vt 0.917499800 0.266484300
vn 0.9238795 0.0000000 -0.3826835
f 79/79/79 80/80/80 81/81/81
v 0.0776135 -0.4450000 1.6426966
vt 0.881988600 0.183726100
vn 0.9238795 0.0000000 -0.3826835
v 0.1531250 -0.4050000 1.8249975
vt 0.917499800 0.266484300
vn 0.9238795 0.0000000 -0.3826835
v 0.1531250 -0.4450000 1.8249975
vt 0.957499800 0.276484300
vn 0.9238795 0.0000000 -0.3826835
f 82/82/82 83/83/83 84/84/84
