# Authored through Blender MCP; native tiles are the scale reference.
mtllib pz_house_bunk_head.mtl
usemtl native
v -0.4500000 -0.4850000 0.0000000
vt 0.275241375 0.588676870
vn -0.0000000 -0.0000000 -1.0000000
v -0.4500000 -0.4350000 0.0000000
vt 0.275241375 0.603684127
vn -0.0000000 -0.0000000 -1.0000000
v -0.4000000 -0.4350000 0.0000000
vt 0.260551333 0.603684127
vn -0.0000000 -0.0000000 -1.0000000
o pz_house_bunk_head_|_1_estrutura_madeira
f 1/1/1 2/2/2 3/3/3
v -0.4500000 -0.4850000 0.0000000
vt 0.275241375 0.588676870
vn -0.0000000 0.0000000 -1.0000000
v -0.4000000 -0.4350000 0.0000000
vt 0.260551333 0.603684127
vn -0.0000000 0.0000000 -1.0000000
v -0.4000000 -0.4850000 0.0000000
vt 0.260551333 0.588676870
vn -0.0000000 0.0000000 -1.0000000
f 4/4/4 5/5/5 6/6/6
v -0.4500000 -0.4850000 2.0500000
vt 0.190291613 0.588676155
vn 0.0000000 0.0000000 1.0000000
v -0.4000000 -0.4850000 2.0500000
vt 0.204981744 0.588676155
vn 0.0000000 0.0000000 1.0000000
v -0.4000000 -0.4350000 2.0500000
vt 0.204981744 0.603683412
vn 0.0000000 0.0000000 1.0000000
f 7/7/7 8/8/8 9/9/9
v -0.4500000 -0.4850000 2.0500000
vt 0.190291613 0.588676155
vn -0.0000000 0.0000000 1.0000000
v -0.4000000 -0.4350000 2.0500000
vt 0.204981744 0.603683412
vn -0.0000000 0.0000000 1.0000000
v -0.4500000 -0.4350000 2.0500000
vt 0.190291613 0.603683412
vn -0.0000000 0.0000000 1.0000000
f 10/10/10 11/11/11 12/12/12
v -0.4500000 -0.4850000 0.0000000
vt 0.065473489 0.619577050
vn -0.0000000 -1.0000000 -0.0000000
v -0.4000000 -0.4850000 0.0000000
vt 0.050783433 0.619577050
vn -0.0000000 -1.0000000 -0.0000000
v -0.4000000 -0.4850000 2.0500000
vt 0.050783433 0.004280637
vn -0.0000000 -1.0000000 -0.0000000
f 13/13/13 14/14/14 15/15/15
v -0.4500000 -0.4850000 0.0000000
vt 0.065473489 0.619577050
vn 0.0000000 -1.0000000 -0.0000000
v -0.4000000 -0.4850000 2.0500000
vt 0.050783433 0.004280637
vn 0.0000000 -1.0000000 -0.0000000
v -0.4500000 -0.4850000 2.0500000
vt 0.065473489 0.004280637
vn 0.0000000 -1.0000000 -0.0000000
f 16/16/16 17/17/17 18/18/18
v -0.4000000 -0.4850000 0.0000000
vt 0.042222094 0.619577229
vn 1.0000000 0.0000000 0.0000000
v -0.4000000 -0.4350000 0.0000000
vt 0.027532034 0.619577229
vn 1.0000000 0.0000000 0.0000000
v -0.4000000 -0.4350000 2.0500000
vt 0.027532034 0.004280604
vn 1.0000000 0.0000000 0.0000000
f 19/19/19 20/20/20 21/21/21
v -0.4000000 -0.4850000 0.0000000
vt 0.042222094 0.619577229
vn 1.0000000 -0.0000000 0.0000000
v -0.4000000 -0.4350000 2.0500000
vt 0.027532034 0.004280604
vn 1.0000000 -0.0000000 0.0000000
v -0.4000000 -0.4850000 2.0500000
vt 0.042222094 0.004280604
vn 1.0000000 -0.0000000 0.0000000
f 22/22/22 23/23/23 24/24/24
v -0.4000000 -0.4350000 0.0000000
vt 0.158478945 0.619575739
vn -0.0000000 1.0000000 0.0000000
v -0.4500000 -0.4350000 0.0000000
vt 0.143788829 0.619575739
vn -0.0000000 1.0000000 0.0000000
v -0.4500000 -0.4350000 2.0500000
vt 0.143788829 0.004280637
vn -0.0000000 1.0000000 0.0000000
f 25/25/25 26/26/26 27/27/27
v -0.4000000 -0.4350000 0.0000000
vt 0.158478945 0.619575739
vn 0.0000000 1.0000000 0.0000000
v -0.4500000 -0.4350000 2.0500000
vt 0.143788829 0.004280637
vn 0.0000000 1.0000000 0.0000000
v -0.4000000 -0.4350000 2.0500000
vt 0.158478945 0.004280637
vn 0.0000000 1.0000000 0.0000000
f 28/28/28 29/29/29 30/30/30
v -0.4500000 -0.4350000 0.0000000
vt 0.111976154 0.619575918
vn -1.0000000 0.0000000 0.0000000
v -0.4500000 -0.4850000 0.0000000
vt 0.097286031 0.619575918
vn -1.0000000 0.0000000 0.0000000
v -0.4500000 -0.4850000 2.0500000
vt 0.097286031 0.004280604
vn -1.0000000 0.0000000 0.0000000
f 31/31/31 32/32/32 33/33/33
v -0.4500000 -0.4350000 0.0000000
vt 0.111976154 0.619575918
vn -1.0000000 -0.0000000 -0.0000000
v -0.4500000 -0.4850000 2.0500000
vt 0.097286031 0.004280604
vn -1.0000000 -0.0000000 -0.0000000
v -0.4500000 -0.4350000 2.0500000
vt 0.111976154 0.004280604
vn -1.0000000 -0.0000000 -0.0000000
f 34/34/34 35/35/35 36/36/36
v 0.4000000 -0.4850000 0.0000000
vt 0.228738710 0.588676274
vn -0.0000000 -0.0000000 -1.0000000
v 0.4000000 -0.4350000 0.0000000
vt 0.228738710 0.603683531
vn -0.0000000 -0.0000000 -1.0000000
v 0.4500000 -0.4350000 0.0000000
vt 0.214048594 0.603683531
vn -0.0000000 -0.0000000 -1.0000000
o pz_house_bunk_head_|_2_estrutura_madeira
f 37/37/37 38/38/38 39/39/39
v 0.4000000 -0.4850000 0.0000000
vt 0.228738710 0.588676274
vn -0.0000000 0.0000000 -1.0000000
v 0.4500000 -0.4350000 0.0000000
vt 0.214048594 0.603683531
vn -0.0000000 0.0000000 -1.0000000
v 0.4500000 -0.4850000 0.0000000
vt 0.214048594 0.588676274
vn -0.0000000 0.0000000 -1.0000000
f 40/40/40 41/41/41 42/42/42
v 0.4000000 -0.4850000 2.0500000
vt 0.237299919 0.588676810
vn 0.0000000 0.0000000 1.0000000
v 0.4500000 -0.4850000 2.0500000
vt 0.251990050 0.588676810
vn 0.0000000 0.0000000 1.0000000
v 0.4500000 -0.4350000 2.0500000
vt 0.251990050 0.603684008
vn 0.0000000 0.0000000 1.0000000
f 43/43/43 44/44/44 45/45/45
v 0.4000000 -0.4850000 2.0500000
vt 0.237299919 0.588676810
vn -0.0000000 0.0000000 1.0000000
v 0.4500000 -0.4350000 2.0500000
vt 0.251990050 0.603684008
vn -0.0000000 0.0000000 1.0000000
v 0.4000000 -0.4350000 2.0500000
vt 0.237299919 0.603684008
vn -0.0000000 0.0000000 1.0000000
f 46/46/46 47/47/47 48/48/48
v 0.4000000 -0.4850000 0.0000000
vt 0.181730345 0.619575739
vn -0.0000000 -1.0000000 -0.0000000
v 0.4500000 -0.4850000 0.0000000
vt 0.167040229 0.619575739
vn -0.0000000 -1.0000000 -0.0000000
v 0.4500000 -0.4850000 2.0500000
vt 0.167040229 0.004280637
vn -0.0000000 -1.0000000 -0.0000000
f 49/49/49 50/50/50 51/51/51
v 0.4000000 -0.4850000 0.0000000
vt 0.181730345 0.619575739
vn 0.0000000 -1.0000000 -0.0000000
v 0.4500000 -0.4850000 2.0500000
vt 0.167040229 0.004280637
vn 0.0000000 -1.0000000 -0.0000000
v 0.4000000 -0.4850000 2.0500000
vt 0.181730345 0.004280637
vn 0.0000000 -1.0000000 -0.0000000
f 52/52/52 53/53/53 54/54/54
v 0.4500000 -0.4850000 0.0000000
vt 0.018970761 0.619577229
vn 1.0000000 0.0000000 0.0000000
v 0.4500000 -0.4350000 0.0000000
vt 0.004280637 0.619577229
vn 1.0000000 0.0000000 0.0000000
v 0.4500000 -0.4350000 2.0500000
vt 0.004280637 0.004280604
vn 1.0000000 0.0000000 0.0000000
f 55/55/55 56/56/56 57/57/57
v 0.4500000 -0.4850000 0.0000000
vt 0.018970761 0.619577229
vn 1.0000000 -0.0000000 0.0000000
v 0.4500000 -0.4350000 2.0500000
vt 0.004280637 0.004280604
vn 1.0000000 -0.0000000 0.0000000
v 0.4500000 -0.4850000 2.0500000
vt 0.018970761 0.004280604
vn 1.0000000 -0.0000000 0.0000000
f 58/58/58 59/59/59 60/60/60
v 0.4500000 -0.4350000 0.0000000
vt 0.088724755 0.619577050
vn -0.0000000 1.0000000 0.0000000
v 0.4000000 -0.4350000 0.0000000
vt 0.074034698 0.619577050
vn -0.0000000 1.0000000 0.0000000
v 0.4000000 -0.4350000 2.0500000
vt 0.074034698 0.004280637
vn -0.0000000 1.0000000 0.0000000
f 61/61/61 62/62/62 63/63/63
v 0.4500000 -0.4350000 0.0000000
vt 0.088724755 0.619577050
vn 0.0000000 1.0000000 0.0000000
v 0.4000000 -0.4350000 2.0500000
vt 0.074034698 0.004280637
vn 0.0000000 1.0000000 0.0000000
v 0.4500000 -0.4350000 2.0500000
vt 0.088724755 0.004280637
vn 0.0000000 1.0000000 0.0000000
f 64/64/64 65/65/65 66/66/66
v 0.4000000 -0.4350000 0.0000000
vt 0.135227546 0.619575918
vn -1.0000000 0.0000000 0.0000000
v 0.4000000 -0.4850000 0.0000000
vt 0.120537430 0.619575918
vn -1.0000000 0.0000000 0.0000000
v 0.4000000 -0.4850000 2.0500000
vt 0.120537430 0.004280604
vn -1.0000000 0.0000000 0.0000000
f 67/67/67 68/68/68 69/69/69
v 0.4000000 -0.4350000 0.0000000
vt 0.135227546 0.619575918
vn -1.0000000 -0.0000000 -0.0000000
v 0.4000000 -0.4850000 2.0500000
vt 0.120537430 0.004280604
vn -1.0000000 -0.0000000 -0.0000000
v 0.4000000 -0.4350000 2.0500000
vt 0.135227546 0.004280604
vn -1.0000000 -0.0000000 -0.0000000
f 70/70/70 71/71/71 72/72/72
v 0.3900000 0.5000000 0.5600000
vt 0.875513315 0.296478301
vn 0.0000000 1.0000000 0.0000000
v 0.3900000 0.5000000 0.3700000
vt 0.931335688 0.296478301
vn 0.0000000 1.0000000 0.0000000
v -0.3900000 0.5000000 0.3700000
vt 0.931335628 0.530590892
vn 0.0000000 1.0000000 0.0000000
o pz_house_bunk_head_|_3_colchao
f 73/73/73 74/74/74 75/75/75
v 0.3900000 0.5000000 0.5600000
vt 0.875513315 0.296478301
vn -0.0000000 1.0000000 0.0000000
v -0.3900000 0.5000000 0.3700000
vt 0.931335628 0.530590892
vn -0.0000000 1.0000000 0.0000000
v -0.3900000 0.5000000 0.5600000
vt 0.875513315 0.530590892
vn -0.0000000 1.0000000 0.0000000
f 76/76/76 77/77/77 78/78/78
v -0.3900000 -0.4100000 0.3700000
vt 0.989590466 0.004280571
vn -0.0000000 -1.0000000 -0.0000000
v 0.3900000 -0.4100000 0.3700000
vt 0.989590466 0.238393098
vn -0.0000000 -1.0000000 -0.0000000
v 0.3900000 -0.4100000 0.5600000
vt 0.933768094 0.238393098
vn -0.0000000 -1.0000000 -0.0000000
f 79/79/79 80/80/80 81/81/81
v -0.3900000 -0.4100000 0.3700000
vt 0.989590466 0.004280571
vn 0.0000000 -1.0000000 -0.0000000
v 0.3900000 -0.4100000 0.5600000
vt 0.933768094 0.238393098
vn 0.0000000 -1.0000000 -0.0000000
v -0.3900000 -0.4100000 0.5600000
vt 0.933768094 0.004280571
vn 0.0000000 -1.0000000 -0.0000000
f 82/82/82 83/83/83 84/84/84
v -0.3900000 0.5000000 0.3700000
vt 0.641735375 0.578170836
vn -1.0000000 0.0000000 0.0000000
v -0.3900000 -0.4100000 0.3700000
vt 0.641735375 0.851302266
vn -1.0000000 0.0000000 0.0000000
v -0.3900000 -0.4100000 0.5600000
vt 0.585913002 0.851302266
vn -1.0000000 0.0000000 0.0000000
f 85/85/85 86/86/86 87/87/87
v -0.3900000 0.5000000 0.3700000
vt 0.641735375 0.578170836
vn -1.0000000 -0.0000000 -0.0000000
v -0.3900000 -0.4100000 0.5600000
vt 0.585913002 0.851302266
vn -1.0000000 -0.0000000 -0.0000000
v -0.3900000 0.5000000 0.5600000
vt 0.585913122 0.578170836
vn -1.0000000 -0.0000000 -0.0000000
f 88/88/88 89/89/89 90/90/90
v -0.3900000 -0.4100000 0.5600000
vt 0.521529436 0.296478301
vn 0.0000000 0.0000000 1.0000000
v 0.3900000 -0.4100000 0.5600000
vt 0.750694931 0.296478301
vn 0.0000000 0.0000000 1.0000000
v 0.3900000 0.5000000 0.5600000
vt 0.750694931 0.569609642
vn 0.0000000 0.0000000 1.0000000
f 91/91/91 92/92/92 93/93/93
v -0.3900000 -0.4100000 0.5600000
vt 0.521529436 0.296478301
vn -0.0000000 0.0000000 1.0000000
v 0.3900000 0.5000000 0.5600000
vt 0.750694931 0.569609642
vn -0.0000000 0.0000000 1.0000000
v -0.3900000 0.5000000 0.5600000
vt 0.521529436 0.569609642
vn -0.0000000 0.0000000 1.0000000
f 94/94/94 95/95/95 96/96/96
v 0.3900000 -0.4100000 0.3700000
vt 0.815078616 0.588675618
vn 1.0000000 0.0000000 0.0000000
v 0.3900000 0.5000000 0.3700000
vt 0.815078616 0.861806870
vn 1.0000000 0.0000000 0.0000000
v 0.3900000 0.5000000 0.5600000
vt 0.759256244 0.861806870
vn 1.0000000 0.0000000 0.0000000
f 97/97/97 98/98/98 99/99/99
v 0.3900000 -0.4100000 0.3700000
vt 0.815078616 0.588675618
vn 1.0000000 -0.0000000 0.0000000
v 0.3900000 0.5000000 0.5600000
vt 0.759256244 0.861806870
vn 1.0000000 -0.0000000 0.0000000
v 0.3900000 -0.4100000 0.5600000
vt 0.759256244 0.588675618
vn 1.0000000 -0.0000000 0.0000000
f 100/100/100 101/101/101 102/102/102
v -0.3900000 -0.4100000 0.3700000
vt 0.793501437 0.004280630
vn -0.0000000 -0.0000000 -1.0000000
v -0.3900000 0.5000000 0.3700000
vt 0.793501437 0.277411908
vn -0.0000000 -0.0000000 -1.0000000
v 0.3900000 0.5000000 0.3700000
vt 0.564335942 0.277411908
vn -0.0000000 -0.0000000 -1.0000000
f 103/103/103 104/104/104 105/105/105
v -0.3900000 -0.4100000 0.3700000
vt 0.793501437 0.004280630
vn -0.0000000 0.0000000 -1.0000000
v 0.3900000 0.5000000 0.3700000
vt 0.564335942 0.277411908
vn -0.0000000 0.0000000 -1.0000000
v 0.3900000 -0.4100000 0.3700000
vt 0.564335942 0.004280630
vn -0.0000000 0.0000000 -1.0000000
f 106/106/106 107/107/107 108/108/108
v -0.4250000 -0.4700000 0.2500000
vt 0.829010546 0.296478271
vn -0.0000000 -0.0000000 -1.0000000
v -0.4250000 -0.4200000 0.2500000
vt 0.843700647 0.296478271
vn -0.0000000 -0.0000000 -1.0000000
v 0.4250000 -0.4200000 0.2500000
vt 0.843700647 0.551600933
vn -0.0000000 -0.0000000 -1.0000000
o pz_house_bunk_head_|_4_estrutura_madeira
f 109/109/109 110/110/110 111/111/111
v -0.4250000 -0.4700000 0.2500000
vt 0.829010546 0.296478271
vn -0.0000000 0.0000000 -1.0000000
v 0.4250000 -0.4200000 0.2500000
vt 0.843700647 0.551600933
vn -0.0000000 0.0000000 -1.0000000
v 0.4250000 -0.4700000 0.2500000
vt 0.829010546 0.551600933
vn -0.0000000 0.0000000 -1.0000000
f 112/112/112 113/113/113 114/114/114
v -0.4250000 -0.4700000 0.5900000
vt 0.852261901 0.551600933
vn 0.0000000 0.0000000 1.0000000
v 0.4250000 -0.4700000 0.5900000
vt 0.852261901 0.296478271
vn 0.0000000 0.0000000 1.0000000
v 0.4250000 -0.4200000 0.5900000
vt 0.866952002 0.296478271
vn 0.0000000 0.0000000 1.0000000
f 115/115/115 116/116/116 117/117/117
v -0.4250000 -0.4700000 0.5900000
vt 0.852261901 0.551600933
vn -0.0000000 0.0000000 1.0000000
v 0.4250000 -0.4200000 0.5900000
vt 0.866952002 0.296478271
vn -0.0000000 0.0000000 1.0000000
v -0.4250000 -0.4200000 0.5900000
vt 0.866952002 0.551600933
vn -0.0000000 0.0000000 1.0000000
f 118/118/118 119/119/119 120/120/120
v -0.4250000 -0.4700000 0.2500000
vt 0.925206840 0.004280641
vn -0.0000000 -1.0000000 -0.0000000
v 0.4250000 -0.4700000 0.2500000
vt 0.925206840 0.259403229
vn -0.0000000 -1.0000000 -0.0000000
v 0.4250000 -0.4700000 0.5900000
vt 0.825314105 0.259403229
vn -0.0000000 -1.0000000 -0.0000000
f 121/121/121 122/122/122 123/123/123
v -0.4250000 -0.4700000 0.2500000
vt 0.925206840 0.004280641
vn 0.0000000 -1.0000000 -0.0000000
v 0.4250000 -0.4700000 0.5900000
vt 0.825314105 0.259403229
vn 0.0000000 -1.0000000 -0.0000000
v -0.4250000 -0.4700000 0.5900000
vt 0.825314164 0.004280633
vn 0.0000000 -1.0000000 -0.0000000
f 124/124/124 125/125/125 126/126/126
v 0.4250000 -0.4700000 0.2500000
vt 0.750694990 0.943903804
vn 1.0000000 0.0000000 0.0000000
v 0.4250000 -0.4200000 0.2500000
vt 0.736004889 0.943903804
vn 1.0000000 0.0000000 0.0000000
v 0.4250000 -0.4200000 0.5900000
vt 0.736004889 0.841854751
vn 1.0000000 0.0000000 0.0000000
f 127/127/127 128/128/128 129/129/129
v 0.4250000 -0.4700000 0.2500000
vt 0.750694990 0.943903804
vn 1.0000000 -0.0000000 0.0000000
v 0.4250000 -0.4200000 0.5900000
vt 0.736004889 0.841854751
vn 1.0000000 -0.0000000 0.0000000
v 0.4250000 -0.4700000 0.5900000
vt 0.750694990 0.841854751
vn 1.0000000 -0.0000000 0.0000000
f 130/130/130 131/131/131 132/132/132
v 0.4250000 -0.4200000 0.2500000
vt 0.127424777 0.628138483
vn -0.0000000 1.0000000 0.0000000
v -0.4250000 -0.4200000 0.2500000
vt 0.127424642 0.883261144
vn -0.0000000 1.0000000 0.0000000
v -0.4250000 -0.4200000 0.5900000
vt 0.027532067 0.883261144
vn -0.0000000 1.0000000 0.0000000
f 133/133/133 134/134/134 135/135/135
v 0.4250000 -0.4200000 0.2500000
vt 0.127424777 0.628138483
vn 0.0000000 1.0000000 0.0000000
v -0.4250000 -0.4200000 0.5900000
vt 0.027532067 0.883261144
vn 0.0000000 1.0000000 0.0000000
v 0.4250000 -0.4200000 0.5900000
vt 0.027532067 0.628138483
vn 0.0000000 1.0000000 0.0000000
f 136/136/136 137/137/137 138/138/138
v -0.4250000 -0.4200000 0.2500000
vt 0.946783960 0.933398485
vn -1.0000000 0.0000000 0.0000000
v -0.4250000 -0.4700000 0.2500000
vt 0.932093859 0.933398485
vn -1.0000000 0.0000000 0.0000000
v -0.4250000 -0.4700000 0.5900000
vt 0.932093859 0.831349432
vn -1.0000000 0.0000000 0.0000000
f 139/139/139 140/140/140 141/141/141
v -0.4250000 -0.4200000 0.2500000
vt 0.946783960 0.933398485
vn -1.0000000 -0.0000000 -0.0000000
v -0.4250000 -0.4700000 0.5900000
vt 0.932093859 0.831349432
vn -1.0000000 -0.0000000 -0.0000000
v -0.4250000 -0.4200000 0.5900000
vt 0.946783960 0.831349432
vn -1.0000000 -0.0000000 -0.0000000
f 142/142/142 143/143/143 144/144/144
v -0.4000000 0.5000000 0.3800000
vt 0.018970761 0.849359214
vn 0.0000000 1.0000000 0.0000000
v -0.4000000 0.5000000 0.2500000
vt 0.018970761 0.888377964
vn 0.0000000 1.0000000 0.0000000
v -0.4500000 0.5000000 0.2500000
vt 0.004280637 0.888377964
vn 0.0000000 1.0000000 0.0000000
o pz_house_bunk_head_|_5_estrutura_madeira
f 145/145/145 146/146/146 147/147/147
v -0.4000000 0.5000000 0.3800000
vt 0.018970761 0.849359214
vn -0.0000000 1.0000000 0.0000000
v -0.4500000 0.5000000 0.2500000
vt 0.004280637 0.888377964
vn -0.0000000 1.0000000 0.0000000
v -0.4500000 0.5000000 0.3800000
vt 0.004280637 0.849359214
vn -0.0000000 1.0000000 0.0000000
f 148/148/148 149/149/149 150/150/150
v -0.4500000 -0.4450000 0.2500000
vt 0.344995499 0.898882091
vn -0.0000000 -1.0000000 -0.0000000
v -0.4000000 -0.4450000 0.2500000
vt 0.330305398 0.898882091
vn -0.0000000 -1.0000000 -0.0000000
v -0.4000000 -0.4450000 0.3800000
vt 0.330305398 0.859863400
vn -0.0000000 -1.0000000 -0.0000000
f 151/151/151 152/152/152 153/153/153
v -0.4500000 -0.4450000 0.2500000
vt 0.344995499 0.898882091
vn 0.0000000 -1.0000000 -0.0000000
v -0.4000000 -0.4450000 0.3800000
vt 0.330305398 0.859863400
vn 0.0000000 -1.0000000 -0.0000000
v -0.4500000 -0.4450000 0.3800000
vt 0.344995499 0.859863400
vn 0.0000000 -1.0000000 -0.0000000
f 154/154/154 155/155/155 156/156/156
v -0.4500000 0.5000000 0.2500000
vt 0.415508002 0.004280637
vn -1.0000000 0.0000000 0.0000000
v -0.4500000 -0.4450000 0.2500000
vt 0.415507972 0.287916958
vn -1.0000000 0.0000000 0.0000000
v -0.4500000 -0.4450000 0.3800000
vt 0.377313733 0.287916958
vn -1.0000000 0.0000000 0.0000000
f 157/157/157 158/158/158 159/159/159
v -0.4500000 0.5000000 0.2500000
vt 0.415508002 0.004280637
vn -1.0000000 -0.0000000 -0.0000000
v -0.4500000 -0.4450000 0.3800000
vt 0.377313733 0.287916958
vn -1.0000000 -0.0000000 -0.0000000
v -0.4500000 0.5000000 0.3800000
vt 0.377313763 0.004280637
vn -1.0000000 -0.0000000 -0.0000000
f 160/160/160 161/161/161 162/162/162
v -0.4500000 -0.4450000 0.3800000
vt 0.190291598 0.296478450
vn 0.0000000 0.0000000 1.0000000
v -0.4000000 -0.4450000 0.3800000
vt 0.204981700 0.296478450
vn 0.0000000 0.0000000 1.0000000
v -0.4000000 0.5000000 0.3800000
vt 0.204981700 0.580114841
vn 0.0000000 0.0000000 1.0000000
f 163/163/163 164/164/164 165/165/165
v -0.4500000 -0.4450000 0.3800000
vt 0.190291598 0.296478450
vn -0.0000000 0.0000000 1.0000000
v -0.4000000 0.5000000 0.3800000
vt 0.204981700 0.580114841
vn -0.0000000 0.0000000 1.0000000
v -0.4500000 0.5000000 0.3800000
vt 0.190291598 0.580114841
vn -0.0000000 0.0000000 1.0000000
f 166/166/166 167/167/167 168/168/168
v -0.4000000 -0.4450000 0.2500000
vt 0.462263614 0.004280637
vn 1.0000000 0.0000000 0.0000000
v -0.4000000 0.5000000 0.2500000
vt 0.462263614 0.287916958
vn 1.0000000 0.0000000 0.0000000
v -0.4000000 0.5000000 0.3800000
vt 0.424069345 0.287916958
vn 1.0000000 0.0000000 0.0000000
f 169/169/169 170/170/170 171/171/171
v -0.4000000 -0.4450000 0.2500000
vt 0.462263614 0.004280637
vn 1.0000000 -0.0000000 0.0000000
v -0.4000000 0.5000000 0.3800000
vt 0.424069345 0.287916958
vn 1.0000000 -0.0000000 0.0000000
v -0.4000000 -0.4450000 0.3800000
vt 0.424069375 0.004280637
vn 1.0000000 -0.0000000 0.0000000
f 172/172/172 173/173/173 174/174/174
v -0.4500000 -0.4450000 0.2500000
vt 0.773946404 0.296478301
vn -0.0000000 -0.0000000 -1.0000000
v -0.4500000 0.5000000 0.2500000
vt 0.773946404 0.580114365
vn -0.0000000 -0.0000000 -1.0000000
v -0.4000000 0.5000000 0.2500000
vt 0.759256244 0.580114365
vn -0.0000000 -0.0000000 -1.0000000
f 175/175/175 176/176/176 177/177/177
v -0.4500000 -0.4450000 0.2500000
vt 0.773946404 0.296478301
vn -0.0000000 0.0000000 -1.0000000
v -0.4000000 0.5000000 0.2500000
vt 0.759256244 0.580114365
vn -0.0000000 0.0000000 -1.0000000
v -0.4000000 -0.4450000 0.2500000
vt 0.759256244 0.296478301
vn -0.0000000 0.0000000 -1.0000000
f 178/178/178 179/179/179 180/180/180
v 0.4500000 0.5000000 0.3800000
vt 0.838330030 0.852359593
vn 0.0000000 1.0000000 0.0000000
v 0.4500000 0.5000000 0.2500000
vt 0.838330030 0.891378343
vn 0.0000000 1.0000000 0.0000000
v 0.4000000 0.5000000 0.2500000
vt 0.823639929 0.891378343
vn 0.0000000 1.0000000 0.0000000
o pz_house_bunk_head_|_6_estrutura_madeira
f 181/181/181 182/182/182 183/183/183
v 0.4500000 0.5000000 0.3800000
vt 0.838330030 0.852359593
vn -0.0000000 1.0000000 0.0000000
v 0.4000000 0.5000000 0.2500000
vt 0.823639929 0.891378343
vn -0.0000000 1.0000000 0.0000000
v 0.4000000 0.5000000 0.3800000
vt 0.823639929 0.852359593
vn -0.0000000 1.0000000 0.0000000
f 184/184/184 185/185/185 186/186/186
v 0.4000000 -0.4450000 0.2500000
vt 0.861581326 0.891378343
vn -0.0000000 -1.0000000 -0.0000000
v 0.4500000 -0.4450000 0.2500000
vt 0.846891224 0.891378343
vn -0.0000000 -1.0000000 -0.0000000
v 0.4500000 -0.4450000 0.3800000
vt 0.846891224 0.852359593
vn -0.0000000 -1.0000000 -0.0000000
f 187/187/187 188/188/188 189/189/189
v 0.4000000 -0.4450000 0.2500000
vt 0.861581326 0.891378343
vn 0.0000000 -1.0000000 -0.0000000
v 0.4500000 -0.4450000 0.3800000
vt 0.846891224 0.852359593
vn 0.0000000 -1.0000000 -0.0000000
v 0.4000000 -0.4450000 0.3800000
vt 0.861581326 0.852359593
vn 0.0000000 -1.0000000 -0.0000000
f 190/190/190 191/191/191 192/192/192
v 0.4000000 0.5000000 0.2500000
vt 0.509019077 0.004280637
vn -1.0000000 0.0000000 0.0000000
v 0.4000000 -0.4450000 0.2500000
vt 0.509019077 0.287916958
vn -1.0000000 0.0000000 0.0000000
v 0.4000000 -0.4450000 0.3800000
vt 0.470824808 0.287916958
vn -1.0000000 0.0000000 0.0000000
f 193/193/193 194/194/194 195/195/195
v 0.4000000 0.5000000 0.2500000
vt 0.509019077 0.004280637
vn -1.0000000 -0.0000000 -0.0000000
v 0.4000000 -0.4450000 0.3800000
vt 0.470824808 0.287916958
vn -1.0000000 -0.0000000 -0.0000000
v 0.4000000 0.5000000 0.3800000
vt 0.470824867 0.004280637
vn -1.0000000 -0.0000000 -0.0000000
f 196/196/196 197/197/197 198/198/198
v 0.4000000 -0.4450000 0.3800000
vt 0.782507658 0.296478301
vn 0.0000000 0.0000000 1.0000000
v 0.4500000 -0.4450000 0.3800000
vt 0.797197759 0.296478301
vn 0.0000000 0.0000000 1.0000000
v 0.4500000 0.5000000 0.3800000
vt 0.797197759 0.580114365
vn 0.0000000 0.0000000 1.0000000
f 199/199/199 200/200/200 201/201/201
v 0.4000000 -0.4450000 0.3800000
vt 0.782507658 0.296478301
vn -0.0000000 0.0000000 1.0000000
v 0.4500000 0.5000000 0.3800000
vt 0.797197759 0.580114365
vn -0.0000000 0.0000000 1.0000000
v 0.4000000 0.5000000 0.3800000
vt 0.782507658 0.580114365
vn -0.0000000 0.0000000 1.0000000
f 202/202/202 203/203/203 204/204/204
v 0.4500000 -0.4450000 0.2500000
vt 0.275241375 0.004280637
vn 1.0000000 0.0000000 0.0000000
v 0.4500000 0.5000000 0.2500000
vt 0.275241345 0.287917018
vn 1.0000000 0.0000000 0.0000000
v 0.4500000 0.5000000 0.3800000
vt 0.237047076 0.287917018
vn 1.0000000 0.0000000 0.0000000
f 205/205/205 206/206/206 207/207/207
v 0.4500000 -0.4450000 0.2500000
vt 0.275241375 0.004280637
vn 1.0000000 -0.0000000 0.0000000
v 0.4500000 0.5000000 0.3800000
vt 0.237047076 0.287917018
vn 1.0000000 -0.0000000 0.0000000
v 0.4500000 -0.4450000 0.3800000
vt 0.237047106 0.004280637
vn 1.0000000 -0.0000000 0.0000000
f 208/208/208 209/209/209 210/210/210
v 0.4000000 -0.4450000 0.2500000
vt 0.820449233 0.296478301
vn -0.0000000 -0.0000000 -1.0000000
v 0.4000000 0.5000000 0.2500000
vt 0.820449233 0.580113709
vn -0.0000000 -0.0000000 -1.0000000
v 0.4500000 0.5000000 0.2500000
vt 0.805759072 0.580113709
vn -0.0000000 -0.0000000 -1.0000000
f 211/211/211 212/212/212 213/213/213
v 0.4000000 -0.4450000 0.2500000
vt 0.820449233 0.296478301
vn -0.0000000 0.0000000 -1.0000000
v 0.4500000 0.5000000 0.2500000
vt 0.805759072 0.580113709
vn -0.0000000 0.0000000 -1.0000000
v 0.4500000 -0.4450000 0.2500000
vt 0.805759072 0.296478301
vn -0.0000000 0.0000000 -1.0000000
f 214/214/214 215/215/215 216/216/216
v 0.3900000 0.5000000 1.8099999
vt 0.932093859 0.588675618
vn 0.0000000 1.0000000 0.0000000
v 0.3900000 0.5000000 1.6200000
vt 0.987916231 0.588675618
vn 0.0000000 1.0000000 0.0000000
v -0.3900000 0.5000000 1.6200000
vt 0.987916172 0.822788239
vn 0.0000000 1.0000000 0.0000000
o pz_house_bunk_head_|_7_colchao
f 217/217/217 218/218/218 219/219/219
v 0.3900000 0.5000000 1.8099999
vt 0.932093859 0.588675618
vn -0.0000000 1.0000000 0.0000000
v -0.3900000 0.5000000 1.6200000
vt 0.987916172 0.822788239
vn -0.0000000 1.0000000 0.0000000
v -0.3900000 0.5000000 1.8099999
vt 0.932093859 0.822788239
vn -0.0000000 1.0000000 0.0000000
f 220/220/220 221/221/221 222/222/222
v -0.3900000 -0.4100000 1.6200000
vt 0.995719314 0.296478331
vn -0.0000000 -1.0000000 -0.0000000
v 0.3900000 -0.4100000 1.6200000
vt 0.995719314 0.530590832
vn -0.0000000 -1.0000000 -0.0000000
v 0.3900000 -0.4100000 1.8099999
vt 0.939896941 0.530590832
vn -0.0000000 -1.0000000 -0.0000000
f 223/223/223 224/224/224 225/225/225
v -0.3900000 -0.4100000 1.6200000
vt 0.995719314 0.296478331
vn 0.0000000 -1.0000000 -0.0000000
v 0.3900000 -0.4100000 1.8099999
vt 0.939896941 0.530590832
vn 0.0000000 -1.0000000 -0.0000000
v -0.3900000 -0.4100000 1.8099999
vt 0.939897001 0.296478331
vn 0.0000000 -1.0000000 -0.0000000
f 226/226/226 227/227/227 228/228/228
v -0.3900000 0.5000000 1.6200000
vt 0.577351689 0.578170836
vn -1.0000000 0.0000000 0.0000000
v -0.3900000 -0.4100000 1.6200000
vt 0.577351689 0.851302266
vn -1.0000000 0.0000000 0.0000000
v -0.3900000 -0.4100000 1.8099999
vt 0.521529377 0.851302266
vn -1.0000000 0.0000000 0.0000000
f 229/229/229 230/230/230 231/231/231
v -0.3900000 0.5000000 1.6200000
vt 0.577351689 0.578170836
vn -1.0000000 -0.0000000 -0.0000000
v -0.3900000 -0.4100000 1.8099999
vt 0.521529377 0.851302266
vn -1.0000000 -0.0000000 -0.0000000
v -0.3900000 0.5000000 1.8099999
vt 0.521529377 0.578170836
vn -1.0000000 -0.0000000 -0.0000000
f 232/232/232 233/233/233 234/234/234
v -0.3900000 -0.4100000 1.8099999
vt 0.283802658 0.296478331
vn 0.0000000 0.0000000 1.0000000
v 0.3900000 -0.4100000 1.8099999
vt 0.512968183 0.296478331
vn 0.0000000 0.0000000 1.0000000
v 0.3900000 0.5000000 1.8099999
vt 0.512968183 0.569609702
vn 0.0000000 0.0000000 1.0000000
f 235/235/235 236/236/236 237/237/237
v -0.3900000 -0.4100000 1.8099999
vt 0.283802658 0.296478331
vn -0.0000000 0.0000000 1.0000000
v 0.3900000 0.5000000 1.8099999
vt 0.512968183 0.569609702
vn -0.0000000 0.0000000 1.0000000
v -0.3900000 0.5000000 1.8099999
vt 0.283802658 0.569609702
vn -0.0000000 0.0000000 1.0000000
f 238/238/238 239/239/239 240/240/240
v 0.3900000 -0.4100000 1.6200000
vt 0.706119061 0.578170955
vn 1.0000000 0.0000000 0.0000000
v 0.3900000 0.5000000 1.6200000
vt 0.706118941 0.851302266
vn 1.0000000 0.0000000 0.0000000
v 0.3900000 0.5000000 1.8099999
vt 0.650296688 0.851302266
vn 1.0000000 0.0000000 0.0000000
f 241/241/241 242/242/242 243/243/243
v 0.3900000 -0.4100000 1.6200000
vt 0.706119061 0.578170955
vn 1.0000000 -0.0000000 0.0000000
v 0.3900000 0.5000000 1.8099999
vt 0.650296688 0.851302266
vn 1.0000000 -0.0000000 0.0000000
v 0.3900000 -0.4100000 1.8099999
vt 0.650296688 0.578170955
vn 1.0000000 -0.0000000 0.0000000
f 244/244/244 245/245/245 246/246/246
v -0.3900000 -0.4100000 1.6200000
vt 0.512968123 0.578170836
vn -0.0000000 -0.0000000 -1.0000000
v -0.3900000 0.5000000 1.6200000
vt 0.512968123 0.851302147
vn -0.0000000 -0.0000000 -1.0000000
v 0.3900000 0.5000000 1.6200000
vt 0.283802658 0.851302147
vn -0.0000000 -0.0000000 -1.0000000
f 247/247/247 248/248/248 249/249/249
v -0.3900000 -0.4100000 1.6200000
vt 0.512968123 0.578170836
vn -0.0000000 0.0000000 -1.0000000
v 0.3900000 0.5000000 1.6200000
vt 0.283802658 0.851302147
vn -0.0000000 0.0000000 -1.0000000
v 0.3900000 -0.4100000 1.6200000
vt 0.283802658 0.578170836
vn -0.0000000 0.0000000 -1.0000000
f 250/250/250 251/251/251 252/252/252
v -0.4250000 -0.4700000 1.5000000
vt 0.143788844 0.628137171
vn -0.0000000 -0.0000000 -1.0000000
v -0.4250000 -0.4200000 1.5000000
vt 0.158478945 0.628137171
vn -0.0000000 -0.0000000 -1.0000000
v 0.4250000 -0.4200000 1.5000000
vt 0.158478931 0.883259833
vn -0.0000000 -0.0000000 -1.0000000
o pz_house_bunk_head_|_8_estrutura_madeira
f 253/253/253 254/254/254 255/255/255
v -0.4250000 -0.4700000 1.5000000
vt 0.143788844 0.628137171
vn -0.0000000 0.0000000 -1.0000000
v 0.4250000 -0.4200000 1.5000000
vt 0.158478931 0.883259833
vn -0.0000000 0.0000000 -1.0000000
v 0.4250000 -0.4700000 1.5000000
vt 0.143788829 0.883259833
vn -0.0000000 0.0000000 -1.0000000
f 256/256/256 257/257/257 258/258/258
v -0.4250000 -0.4700000 1.8400000
vt 0.736004829 0.833293498
vn 0.0000000 0.0000000 1.0000000
v 0.4250000 -0.4700000 1.8400000
vt 0.736004889 0.578170836
vn 0.0000000 0.0000000 1.0000000
v 0.4250000 -0.4200000 1.8400000
vt 0.750694990 0.578170836
vn 0.0000000 0.0000000 1.0000000
f 259/259/259 260/260/260 261/261/261
v -0.4250000 -0.4700000 1.8400000
vt 0.736004829 0.833293498
vn -0.0000000 0.0000000 1.0000000
v 0.4250000 -0.4200000 1.8400000
vt 0.750694990 0.578170836
vn -0.0000000 0.0000000 1.0000000
v -0.4250000 -0.4200000 1.8400000
vt 0.750694931 0.833293498
vn -0.0000000 0.0000000 1.0000000
f 262/262/262 263/263/263 264/264/264
v -0.4250000 -0.4700000 1.5000000
vt 0.923532546 0.588675618
vn -0.0000000 -1.0000000 -0.0000000
v 0.4250000 -0.4700000 1.5000000
vt 0.923532546 0.843798220
vn -0.0000000 -1.0000000 -0.0000000
v 0.4250000 -0.4700000 1.8400000
vt 0.823639870 0.843798220
vn -0.0000000 -1.0000000 -0.0000000
f 265/265/265 266/266/266 267/267/267
v -0.4250000 -0.4700000 1.5000000
vt 0.923532546 0.588675618
vn 0.0000000 -1.0000000 -0.0000000
v 0.4250000 -0.4700000 1.8400000
vt 0.823639870 0.843798220
vn 0.0000000 -1.0000000 -0.0000000
v -0.4250000 -0.4700000 1.8400000
vt 0.823639870 0.588675618
vn 0.0000000 -1.0000000 -0.0000000
f 268/268/268 269/269/269 270/270/270
v 0.4250000 -0.4700000 1.5000000
vt 0.018970745 0.840797961
vn 1.0000000 0.0000000 0.0000000
v 0.4250000 -0.4200000 1.5000000
vt 0.004280637 0.840797961
vn 1.0000000 0.0000000 0.0000000
v 0.4250000 -0.4200000 1.8400000
vt 0.004280637 0.738748968
vn 1.0000000 0.0000000 0.0000000
f 271/271/271 272/272/272 273/273/273
v 0.4250000 -0.4700000 1.5000000
vt 0.018970745 0.840797961
vn 1.0000000 -0.0000000 0.0000000
v 0.4250000 -0.4200000 1.8400000
vt 0.004280637 0.738748968
vn 1.0000000 -0.0000000 0.0000000
v 0.4250000 -0.4700000 1.8400000
vt 0.018970745 0.738748968
vn 1.0000000 -0.0000000 0.0000000
f 274/274/274 275/275/275 276/276/276
v 0.4250000 -0.4200000 1.5000000
vt 0.266932935 0.628137052
vn -0.0000000 1.0000000 0.0000000
v -0.4250000 -0.4200000 1.5000000
vt 0.266932935 0.883259714
vn -0.0000000 1.0000000 0.0000000
v -0.4250000 -0.4200000 1.8400000
vt 0.167040259 0.883259714
vn -0.0000000 1.0000000 0.0000000
f 277/277/277 278/278/278 279/279/279
v 0.4250000 -0.4200000 1.5000000
vt 0.266932935 0.628137052
vn 0.0000000 1.0000000 0.0000000
v -0.4250000 -0.4200000 1.8400000
vt 0.167040259 0.883259714
vn 0.0000000 1.0000000 0.0000000
v 0.4250000 -0.4200000 1.8400000
vt 0.167040259 0.628137052
vn 0.0000000 1.0000000 0.0000000
f 280/280/280 281/281/281 282/282/282
v -0.4250000 -0.4200000 1.5000000
vt 0.018970745 0.730187595
vn -1.0000000 0.0000000 0.0000000
v -0.4250000 -0.4700000 1.5000000
vt 0.004280637 0.730187595
vn -1.0000000 0.0000000 0.0000000
v -0.4250000 -0.4700000 1.8400000
vt 0.004280637 0.628138483
vn -1.0000000 0.0000000 0.0000000
f 283/283/283 284/284/284 285/285/285
v -0.4250000 -0.4200000 1.5000000
vt 0.018970745 0.730187595
vn -1.0000000 -0.0000000 -0.0000000
v -0.4250000 -0.4700000 1.8400000
vt 0.004280637 0.628138483
vn -1.0000000 -0.0000000 -0.0000000
v -0.4250000 -0.4200000 1.8400000
vt 0.018970745 0.628138483
vn -1.0000000 -0.0000000 -0.0000000
f 286/286/286 287/287/287 288/288/288
v -0.4000000 0.5000000 1.6300000
vt 0.884832740 0.852359593
vn 0.0000000 1.0000000 0.0000000
v -0.4000000 0.5000000 1.5000000
vt 0.884832740 0.891378343
vn 0.0000000 1.0000000 0.0000000
v -0.4500000 0.5000000 1.5000000
vt 0.870142639 0.891378343
vn 0.0000000 1.0000000 0.0000000
o pz_house_bunk_head_|_9_estrutura_madeira
f 289/289/289 290/290/290 291/291/291
v -0.4000000 0.5000000 1.6300000
vt 0.884832740 0.852359593
vn -0.0000000 1.0000000 0.0000000
v -0.4500000 0.5000000 1.5000000
vt 0.870142639 0.891378343
vn -0.0000000 1.0000000 0.0000000
v -0.4500000 0.5000000 1.6300000
vt 0.870142639 0.852359593
vn -0.0000000 1.0000000 0.0000000
f 292/292/292 293/293/293 294/294/294
v -0.4500000 -0.4450000 1.5000000
vt 0.298492759 0.898882210
vn -0.0000000 -1.0000000 -0.0000000
v -0.4000000 -0.4450000 1.5000000
vt 0.283802658 0.898882210
vn -0.0000000 -1.0000000 -0.0000000
v -0.4000000 -0.4450000 1.6300000
vt 0.283802658 0.859863400
vn -0.0000000 -1.0000000 -0.0000000
f 295/295/295 296/296/296 297/297/297
v -0.4500000 -0.4450000 1.5000000
vt 0.298492759 0.898882210
vn 0.0000000 -1.0000000 -0.0000000
v -0.4000000 -0.4450000 1.6300000
vt 0.283802658 0.859863400
vn 0.0000000 -1.0000000 -0.0000000
v -0.4500000 -0.4450000 1.6300000
vt 0.298492759 0.859863400
vn 0.0000000 -1.0000000 -0.0000000
f 298/298/298 299/299/299 300/300/300
v -0.4500000 0.5000000 1.5000000
vt 0.555774748 0.004280571
vn -1.0000000 0.0000000 0.0000000
v -0.4500000 -0.4450000 1.5000000
vt 0.555774748 0.287916839
vn -1.0000000 0.0000000 0.0000000
v -0.4500000 -0.4450000 1.6300000
vt 0.517580450 0.287916839
vn -1.0000000 0.0000000 0.0000000
f 301/301/301 302/302/302 303/303/303
v -0.4500000 0.5000000 1.5000000
vt 0.555774748 0.004280571
vn -1.0000000 -0.0000000 -0.0000000
v -0.4500000 -0.4450000 1.6300000
vt 0.517580450 0.287916839
vn -1.0000000 -0.0000000 -0.0000000
v -0.4500000 0.5000000 1.6300000
vt 0.517580509 0.004280571
vn -1.0000000 -0.0000000 -0.0000000
f 304/304/304 305/305/305 306/306/306
v -0.4500000 -0.4450000 1.6300000
vt 0.802062690 0.004280637
vn 0.0000000 0.0000000 1.0000000
v -0.4000000 -0.4450000 1.6300000
vt 0.816752791 0.004280637
vn 0.0000000 0.0000000 1.0000000
v -0.4000000 0.5000000 1.6300000
vt 0.816752791 0.287916690
vn 0.0000000 0.0000000 1.0000000
f 307/307/307 308/308/308 309/309/309
v -0.4500000 -0.4450000 1.6300000
vt 0.802062690 0.004280637
vn -0.0000000 0.0000000 1.0000000
v -0.4000000 0.5000000 1.6300000
vt 0.816752791 0.287916690
vn -0.0000000 0.0000000 1.0000000
v -0.4500000 0.5000000 1.6300000
vt 0.802062690 0.287916690
vn -0.0000000 0.0000000 1.0000000
f 310/310/310 311/311/311 312/312/312
v -0.4000000 -0.4450000 1.5000000
vt 0.228485793 0.004280637
vn 1.0000000 0.0000000 0.0000000
v -0.4000000 0.5000000 1.5000000
vt 0.228485793 0.287917227
vn 1.0000000 0.0000000 0.0000000
v -0.4000000 0.5000000 1.6300000
vt 0.190291613 0.287917227
vn 1.0000000 0.0000000 0.0000000
f 313/313/313 314/314/314 315/315/315
v -0.4000000 -0.4450000 1.5000000
vt 0.228485793 0.004280637
vn 1.0000000 -0.0000000 0.0000000
v -0.4000000 0.5000000 1.6300000
vt 0.190291613 0.287917227
vn 1.0000000 -0.0000000 0.0000000
v -0.4000000 -0.4450000 1.6300000
vt 0.190291613 0.004280637
vn 1.0000000 -0.0000000 0.0000000
f 316/316/316 317/317/317 318/318/318
v -0.4500000 -0.4450000 1.5000000
vt 0.251990080 0.296478301
vn -0.0000000 -0.0000000 -1.0000000
v -0.4500000 0.5000000 1.5000000
vt 0.251990080 0.580115020
vn -0.0000000 -0.0000000 -1.0000000
v -0.4000000 0.5000000 1.5000000
vt 0.237300023 0.580115020
vn -0.0000000 -0.0000000 -1.0000000
f 319/319/319 320/320/320 321/321/321
v -0.4500000 -0.4450000 1.5000000
vt 0.251990080 0.296478301
vn -0.0000000 0.0000000 -1.0000000
v -0.4000000 0.5000000 1.5000000
vt 0.237300023 0.580115020
vn -0.0000000 0.0000000 -1.0000000
v -0.4000000 -0.4450000 1.5000000
vt 0.237300023 0.296478301
vn -0.0000000 0.0000000 -1.0000000
f 322/322/322 323/323/323 324/324/324
v 0.4500000 0.5000000 1.6300000
vt 0.890203416 0.539152145
vn 0.0000000 1.0000000 0.0000000
v 0.4500000 0.5000000 1.5000000
vt 0.890203416 0.578170955
vn 0.0000000 1.0000000 0.0000000
v 0.4000000 0.5000000 1.5000000
vt 0.875513315 0.578170955
vn 0.0000000 1.0000000 0.0000000
o pz_house_bunk_head_|_10_estrutura_madeira
f 325/325/325 326/326/326 327/327/327
v 0.4500000 0.5000000 1.6300000
vt 0.890203416 0.539152145
vn -0.0000000 1.0000000 0.0000000
v 0.4000000 0.5000000 1.5000000
vt 0.875513315 0.578170955
vn -0.0000000 1.0000000 0.0000000
v 0.4000000 0.5000000 1.6300000
vt 0.875513315 0.539152145
vn -0.0000000 1.0000000 0.0000000
f 328/328/328 329/329/329 330/330/330
v 0.4000000 -0.4450000 1.5000000
vt 0.321744114 0.898882210
vn -0.0000000 -1.0000000 -0.0000000
v 0.4500000 -0.4450000 1.5000000
vt 0.307054013 0.898882210
vn -0.0000000 -1.0000000 -0.0000000
v 0.4500000 -0.4450000 1.6300000
vt 0.307054013 0.859863400
vn -0.0000000 -1.0000000 -0.0000000
f 331/331/331 332/332/332 333/333/333
v 0.4000000 -0.4450000 1.5000000
vt 0.321744114 0.898882210
vn 0.0000000 -1.0000000 -0.0000000
v 0.4500000 -0.4450000 1.6300000
vt 0.307054013 0.859863400
vn 0.0000000 -1.0000000 -0.0000000
v 0.4000000 -0.4450000 1.6300000
vt 0.321744114 0.859863400
vn 0.0000000 -1.0000000 -0.0000000
f 334/334/334 335/335/335 336/336/336
v 0.4000000 0.5000000 1.5000000
vt 0.321997017 0.004280637
vn -1.0000000 0.0000000 0.0000000
v 0.4000000 -0.4450000 1.5000000
vt 0.321996957 0.287917018
vn -1.0000000 0.0000000 0.0000000
v 0.4000000 -0.4450000 1.6300000
vt 0.283802718 0.287917018
vn -1.0000000 0.0000000 0.0000000
f 337/337/337 338/338/338 339/339/339
v 0.4000000 0.5000000 1.5000000
vt 0.321997017 0.004280637
vn -1.0000000 -0.0000000 -0.0000000
v 0.4000000 -0.4450000 1.6300000
vt 0.283802718 0.287917018
vn -1.0000000 -0.0000000 -0.0000000
v 0.4000000 0.5000000 1.6300000
vt 0.283802778 0.004280637
vn -1.0000000 -0.0000000 -0.0000000
f 340/340/340 341/341/341 342/342/342
v 0.4000000 -0.4450000 1.6300000
vt 0.213795736 0.296478480
vn 0.0000000 0.0000000 1.0000000
v 0.4500000 -0.4450000 1.6300000
vt 0.228485793 0.296478480
vn 0.0000000 0.0000000 1.0000000
v 0.4500000 0.5000000 1.6300000
vt 0.228485793 0.580115139
vn 0.0000000 0.0000000 1.0000000
f 343/343/343 344/344/344 345/345/345
v 0.4000000 -0.4450000 1.6300000
vt 0.213795736 0.296478480
vn -0.0000000 0.0000000 1.0000000
v 0.4500000 0.5000000 1.6300000
vt 0.228485793 0.580115139
vn -0.0000000 0.0000000 1.0000000
v 0.4000000 0.5000000 1.6300000
vt 0.213795736 0.580115139
vn -0.0000000 0.0000000 1.0000000
f 346/346/346 347/347/347 348/348/348
v 0.4500000 -0.4450000 1.5000000
vt 0.368752480 0.004280637
vn 1.0000000 0.0000000 0.0000000
v 0.4500000 0.5000000 1.5000000
vt 0.368752480 0.287917018
vn 1.0000000 0.0000000 0.0000000
v 0.4500000 0.5000000 1.6300000
vt 0.330558240 0.287917018
vn 1.0000000 0.0000000 0.0000000
f 349/349/349 350/350/350 351/351/351
v 0.4500000 -0.4450000 1.5000000
vt 0.368752480 0.004280637
vn 1.0000000 -0.0000000 0.0000000
v 0.4500000 0.5000000 1.6300000
vt 0.330558240 0.287917018
vn 1.0000000 -0.0000000 0.0000000
v 0.4500000 -0.4450000 1.6300000
vt 0.330558240 0.004280637
vn 1.0000000 -0.0000000 0.0000000
f 352/352/352 353/353/353 354/354/354
v 0.4000000 -0.4450000 1.5000000
vt 0.275241315 0.296478271
vn -0.0000000 -0.0000000 -1.0000000
v 0.4000000 0.5000000 1.5000000
vt 0.275241315 0.580115557
vn -0.0000000 -0.0000000 -1.0000000
v 0.4500000 0.5000000 1.5000000
vt 0.260551244 0.580115557
vn -0.0000000 -0.0000000 -1.0000000
f 355/355/355 356/356/356 357/357/357
v 0.4000000 -0.4450000 1.5000000
vt 0.275241315 0.296478271
vn -0.0000000 0.0000000 -1.0000000
v 0.4500000 0.5000000 1.5000000
vt 0.260551244 0.580115557
vn -0.0000000 0.0000000 -1.0000000
v 0.4500000 -0.4450000 1.5000000
vt 0.260551244 0.296478271
vn -0.0000000 0.0000000 -1.0000000
f 358/358/358 359/359/359 360/360/360
