# Bunk/radio fidelity: Z-up, tile units; component UVs
mtllib pz_house_makeshift_radio_open_v2.mtl
o pz_house_makeshift_radio_open_v2
usemtl UV_Base
g L_base
v -0.23000000 -0.15000000 0.00000000
v -0.23000000 0.15000000 0.00000000
v 0.23000000 0.15000000 0.00000000
v 0.23000000 -0.15000000 0.00000000
vt 0.16796875 0.94140625
vt 0.28515625 0.94140625
vt 0.28515625 0.98046875
vt 0.16796875 0.98046875
vn 0.00000000 0.00000000 -1.00000000
f 1/1/1 2/2/1 3/3/1
f 1/1/1 3/3/1 4/4/1
v -0.23000000 -0.15000000 0.02600000
v 0.23000000 -0.15000000 0.02600000
v 0.23000000 0.15000000 0.02600000
v -0.23000000 0.15000000 0.02600000
vt 0.16796875 0.94140625
vt 0.28515625 0.94140625
vt 0.28515625 0.98046875
vt 0.16796875 0.98046875
vn 0.00000000 0.00000000 1.00000000
f 5/5/2 6/6/2 7/7/2
f 5/5/2 7/7/2 8/8/2
v -0.23000000 -0.15000000 0.00000000
v 0.23000000 -0.15000000 0.00000000
v 0.23000000 -0.15000000 0.02600000
v -0.23000000 -0.15000000 0.02600000
vt 0.16796875 0.94140625
vt 0.28515625 0.94140625
vt 0.28515625 0.98046875
vt 0.16796875 0.98046875
vn 0.00000000 -1.00000000 0.00000000
f 9/9/3 10/10/3 11/11/3
f 9/9/3 11/11/3 12/12/3
v 0.23000000 -0.15000000 0.00000000
v 0.23000000 0.15000000 0.00000000
v 0.23000000 0.15000000 0.02600000
v 0.23000000 -0.15000000 0.02600000
vt 0.16796875 0.94140625
vt 0.28515625 0.94140625
vt 0.28515625 0.98046875
vt 0.16796875 0.98046875
vn 1.00000000 0.00000000 0.00000000
f 13/13/4 14/14/4 15/15/4
f 13/13/4 15/15/4 16/16/4
v 0.23000000 0.15000000 0.00000000
v -0.23000000 0.15000000 0.00000000
v -0.23000000 0.15000000 0.02600000
v 0.23000000 0.15000000 0.02600000
vt 0.16796875 0.94140625
vt 0.28515625 0.94140625
vt 0.28515625 0.98046875
vt 0.16796875 0.98046875
vn 0.00000000 1.00000000 0.00000000
f 17/17/5 18/18/5 19/19/5
f 17/17/5 19/19/5 20/20/5
v -0.23000000 0.15000000 0.00000000
v -0.23000000 -0.15000000 0.00000000
v -0.23000000 -0.15000000 0.02600000
v -0.23000000 0.15000000 0.02600000
vt 0.16796875 0.94140625
vt 0.28515625 0.94140625
vt 0.28515625 0.98046875
vt 0.16796875 0.98046875
vn -1.00000000 0.00000000 0.00000000
f 21/21/6 22/22/6 23/23/6
f 21/21/6 23/23/6 24/24/6
g L_back_only
v -0.23000000 0.12800000 0.02600000
v -0.23000000 0.15000000 0.02600000
v 0.23000000 0.15000000 0.02600000
v 0.23000000 0.12800000 0.02600000
vt 0.01953125 0.86328125
vt 0.13671875 0.86328125
vt 0.13671875 0.98046875
vt 0.01953125 0.98046875
vn 0.00000000 0.00000000 -1.00000000
f 25/25/7 26/26/7 27/27/7
f 25/25/7 27/27/7 28/28/7
v -0.23000000 0.12800000 0.44000000
v 0.23000000 0.12800000 0.44000000
v 0.23000000 0.15000000 0.44000000
v -0.23000000 0.15000000 0.44000000
vt 0.01953125 0.86328125
vt 0.13671875 0.86328125
vt 0.13671875 0.98046875
vt 0.01953125 0.98046875
vn 0.00000000 0.00000000 1.00000000
f 29/29/8 30/30/8 31/31/8
f 29/29/8 31/31/8 32/32/8
v -0.23000000 0.12800000 0.02600000
v 0.23000000 0.12800000 0.02600000
v 0.23000000 0.12800000 0.44000000
v -0.23000000 0.12800000 0.44000000
vt 0.01953125 0.86328125
vt 0.13671875 0.86328125
vt 0.13671875 0.98046875
vt 0.01953125 0.98046875
vn 0.00000000 -1.00000000 0.00000000
f 33/33/9 34/34/9 35/35/9
f 33/33/9 35/35/9 36/36/9
v 0.23000000 0.12800000 0.02600000
v 0.23000000 0.15000000 0.02600000
v 0.23000000 0.15000000 0.44000000
v 0.23000000 0.12800000 0.44000000
vt 0.01953125 0.86328125
vt 0.13671875 0.86328125
vt 0.13671875 0.98046875
vt 0.01953125 0.98046875
vn 1.00000000 0.00000000 0.00000000
f 37/37/10 38/38/10 39/39/10
f 37/37/10 39/39/10 40/40/10
v 0.23000000 0.15000000 0.02600000
v -0.23000000 0.15000000 0.02600000
v -0.23000000 0.15000000 0.44000000
v 0.23000000 0.15000000 0.44000000
vt 0.01953125 0.86328125
vt 0.13671875 0.86328125
vt 0.13671875 0.98046875
vt 0.01953125 0.98046875
vn 0.00000000 1.00000000 0.00000000
f 41/41/11 42/42/11 43/43/11
f 41/41/11 43/43/11 44/44/11
v -0.23000000 0.15000000 0.02600000
v -0.23000000 0.12800000 0.02600000
v -0.23000000 0.12800000 0.44000000
v -0.23000000 0.15000000 0.44000000
vt 0.01953125 0.86328125
vt 0.13671875 0.86328125
vt 0.13671875 0.98046875
vt 0.01953125 0.98046875
vn -1.00000000 0.00000000 0.00000000
f 45/45/12 46/46/12 47/47/12
f 45/45/12 47/47/12 48/48/12
g rear_black_speaker_plate
v -0.21000000 0.11300000 0.19000000
v -0.21000000 0.12700000 0.19000000
v 0.03000000 0.12700000 0.19000000
v 0.03000000 0.11300000 0.19000000
vt 0.25390625 0.71484375
vt 0.30859375 0.71484375
vt 0.30859375 0.76953125
vt 0.25390625 0.76953125
vn 0.00000000 0.00000000 -1.00000000
f 49/49/13 50/50/13 51/51/13
f 49/49/13 51/51/13 52/52/13
v -0.21000000 0.11300000 0.38500000
v 0.03000000 0.11300000 0.38500000
v 0.03000000 0.12700000 0.38500000
v -0.21000000 0.12700000 0.38500000
vt 0.25390625 0.71484375
vt 0.30859375 0.71484375
vt 0.30859375 0.76953125
vt 0.25390625 0.76953125
vn 0.00000000 0.00000000 1.00000000
f 53/53/14 54/54/14 55/55/14
f 53/53/14 55/55/14 56/56/14
v -0.21000000 0.11300000 0.19000000
v 0.03000000 0.11300000 0.19000000
v 0.03000000 0.11300000 0.38500000
v -0.21000000 0.11300000 0.38500000
vt 0.31640625 0.80078125
vt 0.46484375 0.80078125
vt 0.46484375 0.98046875
vt 0.31640625 0.98046875
vn 0.00000000 -1.00000000 0.00000000
f 57/57/15 58/58/15 59/59/15
f 57/57/15 59/59/15 60/60/15
v 0.03000000 0.11300000 0.19000000
v 0.03000000 0.12700000 0.19000000
v 0.03000000 0.12700000 0.38500000
v 0.03000000 0.11300000 0.38500000
vt 0.25390625 0.71484375
vt 0.30859375 0.71484375
vt 0.30859375 0.76953125
vt 0.25390625 0.76953125
vn 1.00000000 0.00000000 0.00000000
f 61/61/16 62/62/16 63/63/16
f 61/61/16 63/63/16 64/64/16
v 0.03000000 0.12700000 0.19000000
v -0.21000000 0.12700000 0.19000000
v -0.21000000 0.12700000 0.38500000
v 0.03000000 0.12700000 0.38500000
vt 0.25390625 0.71484375
vt 0.30859375 0.71484375
vt 0.30859375 0.76953125
vt 0.25390625 0.76953125
vn 0.00000000 1.00000000 0.00000000
f 65/65/17 66/66/17 67/67/17
f 65/65/17 67/67/17 68/68/17
v -0.21000000 0.12700000 0.19000000
v -0.21000000 0.11300000 0.19000000
v -0.21000000 0.11300000 0.38500000
v -0.21000000 0.12700000 0.38500000
vt 0.25390625 0.71484375
vt 0.30859375 0.71484375
vt 0.30859375 0.76953125
vt 0.25390625 0.76953125
vn -1.00000000 0.00000000 0.00000000
f 69/69/18 70/70/18 71/71/18
f 69/69/18 71/71/18 72/72/18
g rear_white_commands
v 0.10500000 0.11000000 0.12000000
v 0.10500000 0.12600000 0.12000000
v 0.20400000 0.12600000 0.12000000
v 0.20400000 0.11000000 0.12000000
vt 0.16796875 0.71484375
vt 0.22265625 0.71484375
vt 0.22265625 0.76953125
vt 0.16796875 0.76953125
vn 0.00000000 0.00000000 -1.00000000
f 73/73/19 74/74/19 75/75/19
f 73/73/19 75/75/19 76/76/19
v 0.10500000 0.11000000 0.29000000
v 0.20400000 0.11000000 0.29000000
v 0.20400000 0.12600000 0.29000000
v 0.10500000 0.12600000 0.29000000
vt 0.16796875 0.71484375
vt 0.22265625 0.71484375
vt 0.22265625 0.76953125
vt 0.16796875 0.76953125
vn 0.00000000 0.00000000 1.00000000
f 77/77/20 78/78/20 79/79/20
f 77/77/20 79/79/20 80/80/20
v 0.10500000 0.11000000 0.12000000
v 0.20400000 0.11000000 0.12000000
v 0.20400000 0.11000000 0.29000000
v 0.10500000 0.11000000 0.29000000
vt 0.49609375 0.80078125
vt 0.58203125 0.80078125
vt 0.58203125 0.98046875
vt 0.49609375 0.98046875
vn 0.00000000 -1.00000000 0.00000000
f 81/81/21 82/82/21 83/83/21
f 81/81/21 83/83/21 84/84/21
v 0.20400000 0.11000000 0.12000000
v 0.20400000 0.12600000 0.12000000
v 0.20400000 0.12600000 0.29000000
v 0.20400000 0.11000000 0.29000000
vt 0.16796875 0.71484375
vt 0.22265625 0.71484375
vt 0.22265625 0.76953125
vt 0.16796875 0.76953125
vn 1.00000000 0.00000000 0.00000000
f 85/85/22 86/86/22 87/87/22
f 85/85/22 87/87/22 88/88/22
v 0.20400000 0.12600000 0.12000000
v 0.10500000 0.12600000 0.12000000
v 0.10500000 0.12600000 0.29000000
v 0.20400000 0.12600000 0.29000000
vt 0.16796875 0.71484375
vt 0.22265625 0.71484375
vt 0.22265625 0.76953125
vt 0.16796875 0.76953125
vn 0.00000000 1.00000000 0.00000000
f 89/89/23 90/90/23 91/91/23
f 89/89/23 91/91/23 92/92/23
v 0.10500000 0.12600000 0.12000000
v 0.10500000 0.11000000 0.12000000
v 0.10500000 0.11000000 0.29000000
v 0.10500000 0.12600000 0.29000000
vt 0.16796875 0.71484375
vt 0.22265625 0.71484375
vt 0.22265625 0.76953125
vt 0.16796875 0.76953125
vn -1.00000000 0.00000000 0.00000000
f 93/93/24 94/94/24 95/95/24
f 93/93/24 95/95/24 96/96/24
g red_battery
v -0.20800000 -0.12500000 0.02600000
v -0.20800000 -0.03500000 0.02600000
v -0.07300000 -0.03500000 0.02600000
v -0.07300000 -0.12500000 0.02600000
vt 0.61328125 0.92578125
vt 0.73046875 0.92578125
vt 0.73046875 0.98046875
vt 0.61328125 0.98046875
vn 0.00000000 0.00000000 -1.00000000
f 97/97/25 98/98/25 99/99/25
f 97/97/25 99/99/25 100/100/25
v -0.20800000 -0.12500000 0.12800000
v -0.07300000 -0.12500000 0.12800000
v -0.07300000 -0.03500000 0.12800000
v -0.20800000 -0.03500000 0.12800000
vt 0.76171875 0.92578125
vt 0.84765625 0.92578125
vt 0.84765625 0.98046875
vt 0.76171875 0.98046875
vn 0.00000000 0.00000000 1.00000000
f 101/101/26 102/102/26 103/103/26
f 101/101/26 103/103/26 104/104/26
v -0.20800000 -0.12500000 0.02600000
v -0.07300000 -0.12500000 0.02600000
v -0.07300000 -0.12500000 0.12800000
v -0.20800000 -0.12500000 0.12800000
vt 0.76171875 0.92578125
vt 0.84765625 0.92578125
vt 0.84765625 0.98046875
vt 0.76171875 0.98046875
vn 0.00000000 -1.00000000 0.00000000
f 105/105/27 106/106/27 107/107/27
f 105/105/27 107/107/27 108/108/27
v -0.07300000 -0.12500000 0.02600000
v -0.07300000 -0.03500000 0.02600000
v -0.07300000 -0.03500000 0.12800000
v -0.07300000 -0.12500000 0.12800000
vt 0.61328125 0.92578125
vt 0.73046875 0.92578125
vt 0.73046875 0.98046875
vt 0.61328125 0.98046875
vn 1.00000000 0.00000000 0.00000000
f 109/109/28 110/110/28 111/111/28
f 109/109/28 111/111/28 112/112/28
v -0.07300000 -0.03500000 0.02600000
v -0.20800000 -0.03500000 0.02600000
v -0.20800000 -0.03500000 0.12800000
v -0.07300000 -0.03500000 0.12800000
vt 0.61328125 0.92578125
vt 0.73046875 0.92578125
vt 0.73046875 0.98046875
vt 0.61328125 0.98046875
vn 0.00000000 1.00000000 0.00000000
f 113/113/29 114/114/29 115/115/29
f 113/113/29 115/115/29 116/116/29
v -0.20800000 -0.03500000 0.02600000
v -0.20800000 -0.12500000 0.02600000
v -0.20800000 -0.12500000 0.12800000
v -0.20800000 -0.03500000 0.12800000
vt 0.61328125 0.92578125
vt 0.73046875 0.92578125
vt 0.73046875 0.98046875
vt 0.61328125 0.98046875
vn -1.00000000 0.00000000 0.00000000
f 117/117/30 118/118/30 119/119/30
f 117/117/30 119/119/30 120/120/30
g yellow_horizontal_tube
v -0.02650000 0.03000000 0.10200000
v -0.02650000 -0.00250000 0.15829165
v -0.00401000 -0.00250000 0.15829165
v -0.00401000 0.03000000 0.10200000
vt 0.87890625 0.92578125
vt 0.88802083 0.92578125
vt 0.88802083 0.98046875
vt 0.87890625 0.98046875
vn 0.00000000 0.86602540 0.50000000
f 121/121/31 122/122/31 123/123/31
f 121/121/31 123/123/31 124/124/31
v -0.02650000 -0.00250000 0.15829165
v -0.02650000 -0.06750000 0.15829165
v -0.00401000 -0.06750000 0.15829165
v -0.00401000 -0.00250000 0.15829165
vt 0.88802083 0.92578125
vt 0.89713542 0.92578125
vt 0.89713542 0.98046875
vt 0.88802083 0.98046875
vn 0.00000000 0.00000000 1.00000000
f 125/125/32 126/126/32 127/127/32
f 125/125/32 127/127/32 128/128/32
v -0.02650000 -0.06750000 0.15829165
v -0.02650000 -0.10000000 0.10200000
v -0.00401000 -0.10000000 0.10200000
v -0.00401000 -0.06750000 0.15829165
vt 0.89713542 0.92578125
vt 0.90625000 0.92578125
vt 0.90625000 0.98046875
vt 0.89713542 0.98046875
vn 0.00000000 -0.86602540 0.50000000
f 129/129/33 130/130/33 131/131/33
f 129/129/33 131/131/33 132/132/33
v -0.02650000 -0.10000000 0.10200000
v -0.02650000 -0.06750000 0.04570835
v -0.00401000 -0.06750000 0.04570835
v -0.00401000 -0.10000000 0.10200000
vt 0.90625000 0.92578125
vt 0.91536458 0.92578125
vt 0.91536458 0.98046875
vt 0.90625000 0.98046875
vn 0.00000000 -0.86602540 -0.50000000
f 133/133/34 134/134/34 135/135/34
f 133/133/34 135/135/34 136/136/34
v -0.02650000 -0.06750000 0.04570835
v -0.02650000 -0.00250000 0.04570835
v -0.00401000 -0.00250000 0.04570835
v -0.00401000 -0.06750000 0.04570835
vt 0.91536458 0.92578125
vt 0.92447917 0.92578125
vt 0.92447917 0.98046875
vt 0.91536458 0.98046875
vn 0.00000000 -0.00000000 -1.00000000
f 137/137/35 138/138/35 139/139/35
f 137/137/35 139/139/35 140/140/35
v -0.02650000 -0.00250000 0.04570835
v -0.02650000 0.03000000 0.10200000
v -0.00401000 0.03000000 0.10200000
v -0.00401000 -0.00250000 0.04570835
vt 0.92447917 0.92578125
vt 0.93359375 0.92578125
vt 0.93359375 0.98046875
vt 0.92447917 0.98046875
vn 0.00000000 0.86602540 -0.50000000
f 141/141/36 142/142/36 143/143/36
f 141/141/36 143/143/36 144/144/36
v -0.00401000 0.03000000 0.10200000
v -0.00401000 -0.00250000 0.15829165
v 0.12228000 -0.00250000 0.15829165
v 0.12228000 0.03000000 0.10200000
vt 0.01953125 0.65234375
vt 0.03906250 0.65234375
vt 0.03906250 0.76953125
vt 0.01953125 0.76953125
vn 0.00000000 0.86602540 0.50000000
f 145/145/37 146/146/37 147/147/37
f 145/145/37 147/147/37 148/148/37
v -0.00401000 -0.00250000 0.15829165
v -0.00401000 -0.06750000 0.15829165
v 0.12228000 -0.06750000 0.15829165
v 0.12228000 -0.00250000 0.15829165
vt 0.03906250 0.65234375
vt 0.05859375 0.65234375
vt 0.05859375 0.76953125
vt 0.03906250 0.76953125
vn 0.00000000 0.00000000 1.00000000
f 149/149/38 150/150/38 151/151/38
f 149/149/38 151/151/38 152/152/38
v -0.00401000 -0.06750000 0.15829165
v -0.00401000 -0.10000000 0.10200000
v 0.12228000 -0.10000000 0.10200000
v 0.12228000 -0.06750000 0.15829165
vt 0.05859375 0.65234375
vt 0.07812500 0.65234375
vt 0.07812500 0.76953125
vt 0.05859375 0.76953125
vn 0.00000000 -0.86602540 0.50000000
f 153/153/39 154/154/39 155/155/39
f 153/153/39 155/155/39 156/156/39
v -0.00401000 -0.10000000 0.10200000
v -0.00401000 -0.06750000 0.04570835
v 0.12228000 -0.06750000 0.04570835
v 0.12228000 -0.10000000 0.10200000
vt 0.07812500 0.65234375
vt 0.09765625 0.65234375
vt 0.09765625 0.76953125
vt 0.07812500 0.76953125
vn 0.00000000 -0.86602540 -0.50000000
f 157/157/40 158/158/40 159/159/40
f 157/157/40 159/159/40 160/160/40
v -0.00401000 -0.06750000 0.04570835
v -0.00401000 -0.00250000 0.04570835
v 0.12228000 -0.00250000 0.04570835
v 0.12228000 -0.06750000 0.04570835
vt 0.09765625 0.65234375
vt 0.11718750 0.65234375
vt 0.11718750 0.76953125
vt 0.09765625 0.76953125
vn 0.00000000 -0.00000000 -1.00000000
f 161/161/41 162/162/41 163/163/41
f 161/161/41 163/163/41 164/164/41
v -0.00401000 -0.00250000 0.04570835
v -0.00401000 0.03000000 0.10200000
v 0.12228000 0.03000000 0.10200000
v 0.12228000 -0.00250000 0.04570835
vt 0.11718750 0.65234375
vt 0.13671875 0.65234375
vt 0.13671875 0.76953125
vt 0.11718750 0.76953125
vn 0.00000000 0.86602540 -0.50000000
f 165/165/42 166/166/42 167/167/42
f 165/165/42 167/167/42 168/168/42
v 0.12228000 0.03000000 0.10200000
v 0.12228000 -0.00250000 0.15829165
v 0.14650000 -0.00250000 0.15829165
v 0.14650000 0.03000000 0.10200000
vt 0.87890625 0.92578125
vt 0.88802083 0.92578125
vt 0.88802083 0.98046875
vt 0.87890625 0.98046875
vn 0.00000000 0.86602540 0.50000000
f 169/169/43 170/170/43 171/171/43
f 169/169/43 171/171/43 172/172/43
v 0.12228000 -0.00250000 0.15829165
v 0.12228000 -0.06750000 0.15829165
v 0.14650000 -0.06750000 0.15829165
v 0.14650000 -0.00250000 0.15829165
vt 0.88802083 0.92578125
vt 0.89713542 0.92578125
vt 0.89713542 0.98046875
vt 0.88802083 0.98046875
vn 0.00000000 0.00000000 1.00000000
f 173/173/44 174/174/44 175/175/44
f 173/173/44 175/175/44 176/176/44
v 0.12228000 -0.06750000 0.15829165
v 0.12228000 -0.10000000 0.10200000
v 0.14650000 -0.10000000 0.10200000
v 0.14650000 -0.06750000 0.15829165
vt 0.89713542 0.92578125
vt 0.90625000 0.92578125
vt 0.90625000 0.98046875
vt 0.89713542 0.98046875
vn 0.00000000 -0.86602540 0.50000000
f 177/177/45 178/178/45 179/179/45
f 177/177/45 179/179/45 180/180/45
v 0.12228000 -0.10000000 0.10200000
v 0.12228000 -0.06750000 0.04570835
v 0.14650000 -0.06750000 0.04570835
v 0.14650000 -0.10000000 0.10200000
vt 0.90625000 0.92578125
vt 0.91536458 0.92578125
vt 0.91536458 0.98046875
vt 0.90625000 0.98046875
vn 0.00000000 -0.86602540 -0.50000000
f 181/181/46 182/182/46 183/183/46
f 181/181/46 183/183/46 184/184/46
v 0.12228000 -0.06750000 0.04570835
v 0.12228000 -0.00250000 0.04570835
v 0.14650000 -0.00250000 0.04570835
v 0.14650000 -0.06750000 0.04570835
vt 0.91536458 0.92578125
vt 0.92447917 0.92578125
vt 0.92447917 0.98046875
vt 0.91536458 0.98046875
vn 0.00000000 -0.00000000 -1.00000000
f 185/185/47 186/186/47 187/187/47
f 185/185/47 187/187/47 188/188/47
v 0.12228000 -0.00250000 0.04570835
v 0.12228000 0.03000000 0.10200000
v 0.14650000 0.03000000 0.10200000
v 0.14650000 -0.00250000 0.04570835
vt 0.92447917 0.92578125
vt 0.93359375 0.92578125
vt 0.93359375 0.98046875
vt 0.92447917 0.98046875
vn 0.00000000 0.86602540 -0.50000000
f 189/189/48 190/190/48 191/191/48
f 189/189/48 191/191/48 192/192/48
v -0.02650000 -0.00250000 0.04570835
v -0.02650000 -0.06750000 0.04570835
v -0.02650000 -0.10000000 0.10200000
v -0.02650000 -0.06750000 0.15829165
v -0.02650000 -0.00250000 0.15829165
v -0.02650000 0.03000000 0.10200000
vt 0.91992188 0.92944462
vt 0.89257812 0.92944462
vt 0.87890625 0.95312500
vt 0.89257812 0.97680538
vt 0.91992188 0.97680538
vt 0.93359375 0.95312500
vn -1.00000000 0.00000000 0.00000000
f 193/193/49 194/194/49 195/195/49
f 193/193/49 195/195/49 196/196/49
f 193/193/49 196/196/49 197/197/49
f 193/193/49 197/197/49 198/198/49
v 0.14650000 0.03000000 0.10200000
v 0.14650000 -0.00250000 0.15829165
v 0.14650000 -0.06750000 0.15829165
v 0.14650000 -0.10000000 0.10200000
v 0.14650000 -0.06750000 0.04570835
v 0.14650000 -0.00250000 0.04570835
vt 0.93359375 0.95312500
vt 0.91992188 0.97680538
vt 0.89257812 0.97680538
vt 0.87890625 0.95312500
vt 0.89257812 0.92944462
vt 0.91992188 0.92944462
vn 1.00000000 0.00000000 0.00000000
f 199/199/50 200/200/50 201/201/50
f 199/199/50 201/201/50 202/202/50
f 199/199/50 202/202/50 203/203/50
f 199/199/50 203/203/50 204/204/50
g white_rear_component
v 0.05700000 0.05100000 0.02700000
v 0.05700000 0.09800000 0.02700000
v 0.09100000 0.09800000 0.02700000
v 0.09100000 0.05100000 0.02700000
vt 0.16796875 0.71484375
vt 0.22265625 0.71484375
vt 0.22265625 0.76953125
vt 0.16796875 0.76953125
vn 0.00000000 0.00000000 -1.00000000
f 205/205/51 206/206/51 207/207/51
f 205/205/51 207/207/51 208/208/51
v 0.05700000 0.05100000 0.15600000
v 0.09100000 0.05100000 0.15600000
v 0.09100000 0.09800000 0.15600000
v 0.05700000 0.09800000 0.15600000
vt 0.16796875 0.71484375
vt 0.22265625 0.71484375
vt 0.22265625 0.76953125
vt 0.16796875 0.76953125
vn 0.00000000 0.00000000 1.00000000
f 209/209/52 210/210/52 211/211/52
f 209/209/52 211/211/52 212/212/52
v 0.05700000 0.05100000 0.02700000
v 0.09100000 0.05100000 0.02700000
v 0.09100000 0.05100000 0.15600000
v 0.05700000 0.05100000 0.15600000
vt 0.16796875 0.71484375
vt 0.22265625 0.71484375
vt 0.22265625 0.76953125
vt 0.16796875 0.76953125
vn 0.00000000 -1.00000000 0.00000000
f 213/213/53 214/214/53 215/215/53
f 213/213/53 215/215/53 216/216/53
v 0.09100000 0.05100000 0.02700000
v 0.09100000 0.09800000 0.02700000
v 0.09100000 0.09800000 0.15600000
v 0.09100000 0.05100000 0.15600000
vt 0.16796875 0.71484375
vt 0.22265625 0.71484375
vt 0.22265625 0.76953125
vt 0.16796875 0.76953125
vn 1.00000000 0.00000000 0.00000000
f 217/217/54 218/218/54 219/219/54
f 217/217/54 219/219/54 220/220/54
v 0.09100000 0.09800000 0.02700000
v 0.05700000 0.09800000 0.02700000
v 0.05700000 0.09800000 0.15600000
v 0.09100000 0.09800000 0.15600000
vt 0.16796875 0.71484375
vt 0.22265625 0.71484375
vt 0.22265625 0.76953125
vt 0.16796875 0.76953125
vn 0.00000000 1.00000000 0.00000000
f 221/221/55 222/222/55 223/223/55
f 221/221/55 223/223/55 224/224/55
v 0.05700000 0.09800000 0.02700000
v 0.05700000 0.05100000 0.02700000
v 0.05700000 0.05100000 0.15600000
v 0.05700000 0.09800000 0.15600000
vt 0.16796875 0.71484375
vt 0.22265625 0.71484375
vt 0.22265625 0.76953125
vt 0.16796875 0.76953125
vn -1.00000000 0.00000000 0.00000000
f 225/225/56 226/226/56 227/227/56
f 225/225/56 227/227/56 228/228/56
g white_side_component
v 0.16300000 0.03200000 0.02600000
v 0.16300000 0.09900000 0.02600000
v 0.20800000 0.09900000 0.02600000
v 0.20800000 0.03200000 0.02600000
vt 0.16796875 0.71484375
vt 0.22265625 0.71484375
vt 0.22265625 0.76953125
vt 0.16796875 0.76953125
vn 0.00000000 0.00000000 -1.00000000
f 229/229/57 230/230/57 231/231/57
f 229/229/57 231/231/57 232/232/57
v 0.16300000 0.03200000 0.11000000
v 0.20800000 0.03200000 0.11000000
v 0.20800000 0.09900000 0.11000000
v 0.16300000 0.09900000 0.11000000
vt 0.16796875 0.71484375
vt 0.22265625 0.71484375
vt 0.22265625 0.76953125
vt 0.16796875 0.76953125
vn 0.00000000 0.00000000 1.00000000
f 233/233/58 234/234/58 235/235/58
f 233/233/58 235/235/58 236/236/58
v 0.16300000 0.03200000 0.02600000
v 0.20800000 0.03200000 0.02600000
v 0.20800000 0.03200000 0.11000000
v 0.16300000 0.03200000 0.11000000
vt 0.16796875 0.71484375
vt 0.22265625 0.71484375
vt 0.22265625 0.76953125
vt 0.16796875 0.76953125
vn 0.00000000 -1.00000000 0.00000000
f 237/237/59 238/238/59 239/239/59
f 237/237/59 239/239/59 240/240/59
v 0.20800000 0.03200000 0.02600000
v 0.20800000 0.09900000 0.02600000
v 0.20800000 0.09900000 0.11000000
v 0.20800000 0.03200000 0.11000000
vt 0.16796875 0.71484375
vt 0.22265625 0.71484375
vt 0.22265625 0.76953125
vt 0.16796875 0.76953125
vn 1.00000000 0.00000000 0.00000000
f 241/241/60 242/242/60 243/243/60
f 241/241/60 243/243/60 244/244/60
v 0.20800000 0.09900000 0.02600000
v 0.16300000 0.09900000 0.02600000
v 0.16300000 0.09900000 0.11000000
v 0.20800000 0.09900000 0.11000000
vt 0.16796875 0.71484375
vt 0.22265625 0.71484375
vt 0.22265625 0.76953125
vt 0.16796875 0.76953125
vn 0.00000000 1.00000000 0.00000000
f 245/245/61 246/246/61 247/247/61
f 245/245/61 247/247/61 248/248/61
v 0.16300000 0.09900000 0.02600000
v 0.16300000 0.03200000 0.02600000
v 0.16300000 0.03200000 0.11000000
v 0.16300000 0.09900000 0.11000000
vt 0.16796875 0.71484375
vt 0.22265625 0.71484375
vt 0.22265625 0.76953125
vt 0.16796875 0.76953125
vn -1.00000000 0.00000000 0.00000000
f 249/249/62 250/250/62 251/251/62
f 249/249/62 251/251/62 252/252/62
g black_side_component
v 0.15500000 -0.09600000 0.02700000
v 0.15500000 -0.03200000 0.02700000
v 0.20700000 -0.03200000 0.02700000
v 0.20700000 -0.09600000 0.02700000
vt 0.25390625 0.71484375
vt 0.30859375 0.71484375
vt 0.30859375 0.76953125
vt 0.25390625 0.76953125
vn 0.00000000 0.00000000 -1.00000000
f 253/253/63 254/254/63 255/255/63
f 253/253/63 255/255/63 256/256/63
v 0.15500000 -0.09600000 0.06400000
v 0.20700000 -0.09600000 0.06400000
v 0.20700000 -0.03200000 0.06400000
v 0.15500000 -0.03200000 0.06400000
vt 0.25390625 0.71484375
vt 0.30859375 0.71484375
vt 0.30859375 0.76953125
vt 0.25390625 0.76953125
vn 0.00000000 0.00000000 1.00000000
f 257/257/64 258/258/64 259/259/64
f 257/257/64 259/259/64 260/260/64
v 0.15500000 -0.09600000 0.02700000
v 0.20700000 -0.09600000 0.02700000
v 0.20700000 -0.09600000 0.06400000
v 0.15500000 -0.09600000 0.06400000
vt 0.25390625 0.71484375
vt 0.30859375 0.71484375
vt 0.30859375 0.76953125
vt 0.25390625 0.76953125
vn 0.00000000 -1.00000000 0.00000000
f 261/261/65 262/262/65 263/263/65
f 261/261/65 263/263/65 264/264/65
v 0.20700000 -0.09600000 0.02700000
v 0.20700000 -0.03200000 0.02700000
v 0.20700000 -0.03200000 0.06400000
v 0.20700000 -0.09600000 0.06400000
vt 0.25390625 0.71484375
vt 0.30859375 0.71484375
vt 0.30859375 0.76953125
vt 0.25390625 0.76953125
vn 1.00000000 0.00000000 0.00000000
f 265/265/66 266/266/66 267/267/66
f 265/265/66 267/267/66 268/268/66
v 0.20700000 -0.03200000 0.02700000
v 0.15500000 -0.03200000 0.02700000
v 0.15500000 -0.03200000 0.06400000
v 0.20700000 -0.03200000 0.06400000
vt 0.25390625 0.71484375
vt 0.30859375 0.71484375
vt 0.30859375 0.76953125
vt 0.25390625 0.76953125
vn 0.00000000 1.00000000 0.00000000
f 269/269/67 270/270/67 271/271/67
f 269/269/67 271/271/67 272/272/67
v 0.15500000 -0.03200000 0.02700000
v 0.15500000 -0.09600000 0.02700000
v 0.15500000 -0.09600000 0.06400000
v 0.15500000 -0.03200000 0.06400000
vt 0.25390625 0.71484375
vt 0.30859375 0.71484375
vt 0.30859375 0.76953125
vt 0.25390625 0.76953125
vn -1.00000000 0.00000000 0.00000000
f 273/273/68 274/274/68 275/275/68
f 273/273/68 275/275/68 276/276/68
