# G015 native chair fidelity candidate; tile units XYZ, Z up.
# Surface charts and native palette swatches; 32x32 PNG, nearest sampling.
mtllib pz_house_stool_bar_fidelity_r1.mtl
o pz_house_stool_bar_fidelity_r1
usemtl pz_house_stool_bar_fidelity_r1_PS1
g seat
v 0.158765598 -0.115349959 0.670819019
vt 0.389049796 0.643775408
vn 0.000000000 0.000000000 -1.000000000
v 0.060643062 -0.186640154 0.670819019
vt 0.303112296 0.578125000
vn 0.000000000 0.000000000 -1.000000000
v -0.060643062 -0.186640154 0.670819019
vt 0.196887704 0.578125000
vn 0.000000000 0.000000000 -1.000000000
f 1/1/1 2/2/2 3/3/3
g seat
v 0.158765598 -0.115349959 0.670819019
vt 0.389049796 0.643775408
vn -0.000000000 0.000000000 -1.000000000
v -0.060643062 -0.186640154 0.670819019
vt 0.196887704 0.578125000
vn -0.000000000 0.000000000 -1.000000000
v -0.158765598 -0.115349959 0.670819019
vt 0.110950204 0.643775408
vn -0.000000000 0.000000000 -1.000000000
f 4/4/4 5/5/5 6/6/6
g seat
v 0.158765598 -0.115349959 0.670819019
vt 0.389049796 0.643775408
vn 0.000000000 0.000000000 -1.000000000
v -0.158765598 -0.115349959 0.670819019
vt 0.110950204 0.643775408
vn 0.000000000 0.000000000 -1.000000000
v -0.196245071 0.000000000 0.670819019
vt 0.078125000 0.750000000
vn 0.000000000 0.000000000 -1.000000000
f 7/7/7 8/8/8 9/9/9
g seat
v 0.158765598 -0.115349959 0.670819019
vt 0.389049796 0.643775408
vn 0.000000000 0.000000000 -1.000000000
v -0.196245071 0.000000000 0.670819019
vt 0.078125000 0.750000000
vn 0.000000000 0.000000000 -1.000000000
v -0.158765598 0.115349959 0.670819019
vt 0.110950204 0.856224592
vn 0.000000000 0.000000000 -1.000000000
f 10/10/10 11/11/11 12/12/12
g seat
v 0.158765598 -0.115349959 0.670819019
vt 0.389049796 0.643775408
vn 0.000000000 0.000000000 -1.000000000
v -0.158765598 0.115349959 0.670819019
vt 0.110950204 0.856224592
vn 0.000000000 0.000000000 -1.000000000
v -0.060643062 0.186640154 0.670819019
vt 0.196887704 0.921875000
vn 0.000000000 0.000000000 -1.000000000
f 13/13/13 14/14/14 15/15/15
g seat
v 0.158765598 -0.115349959 0.670819019
vt 0.389049796 0.643775408
vn 0.000000000 0.000000000 -1.000000000
v -0.060643062 0.186640154 0.670819019
vt 0.196887704 0.921875000
vn 0.000000000 0.000000000 -1.000000000
v 0.060643062 0.186640154 0.670819019
vt 0.303112296 0.921875000
vn 0.000000000 0.000000000 -1.000000000
f 16/16/16 17/17/17 18/18/18
g seat
v 0.158765598 -0.115349959 0.670819019
vt 0.389049796 0.643775408
vn 0.000000000 0.000000000 -1.000000000
v 0.060643062 0.186640154 0.670819019
vt 0.303112296 0.921875000
vn 0.000000000 0.000000000 -1.000000000
v 0.158765598 0.115349959 0.670819019
vt 0.389049796 0.856224592
vn 0.000000000 0.000000000 -1.000000000
f 19/19/19 20/20/20 21/21/21
g seat
v 0.158765598 -0.115349959 0.670819019
vt 0.389049796 0.643775408
vn 0.000000000 0.000000000 -1.000000000
v 0.158765598 0.115349959 0.670819019
vt 0.389049796 0.856224592
vn 0.000000000 0.000000000 -1.000000000
v 0.196245071 0.000000000 0.670819019
vt 0.421875000 0.750000000
vn 0.000000000 0.000000000 -1.000000000
f 22/22/22 23/23/23 24/24/24
g seat
v 0.164845860 0.000000000 0.735816766
vt 0.394375000 0.750000000
vn 0.000000000 0.000000000 1.000000000
v 0.133363102 0.096893965 0.735816766
vt 0.366801829 0.839228657
vn 0.000000000 0.000000000 1.000000000
v 0.050940172 0.156777729 0.735816766
vt 0.294614328 0.894375000
vn 0.000000000 0.000000000 1.000000000
f 25/25/25 26/26/26 27/27/27
g seat
v 0.164845860 0.000000000 0.735816766
vt 0.394375000 0.750000000
vn 0.000000000 0.000000000 1.000000000
v 0.050940172 0.156777729 0.735816766
vt 0.294614328 0.894375000
vn 0.000000000 0.000000000 1.000000000
v -0.050940172 0.156777729 0.735816766
vt 0.205385672 0.894375000
vn 0.000000000 0.000000000 1.000000000
f 28/28/28 29/29/29 30/30/30
g seat
v 0.164845860 0.000000000 0.735816766
vt 0.394375000 0.750000000
vn 0.000000000 0.000000000 1.000000000
v -0.050940172 0.156777729 0.735816766
vt 0.205385672 0.894375000
vn 0.000000000 0.000000000 1.000000000
v -0.133363102 0.096893965 0.735816766
vt 0.133198171 0.839228657
vn 0.000000000 0.000000000 1.000000000
f 31/31/31 32/32/32 33/33/33
g seat
v 0.164845860 0.000000000 0.735816766
vt 0.394375000 0.750000000
vn 0.000000000 0.000000000 1.000000000
v -0.133363102 0.096893965 0.735816766
vt 0.133198171 0.839228657
vn 0.000000000 0.000000000 1.000000000
v -0.164845860 0.000000000 0.735816766
vt 0.105625000 0.750000000
vn 0.000000000 0.000000000 1.000000000
f 34/34/34 35/35/35 36/36/36
g seat
v 0.164845860 0.000000000 0.735816766
vt 0.394375000 0.750000000
vn 0.000000000 0.000000000 1.000000000
v -0.164845860 0.000000000 0.735816766
vt 0.105625000 0.750000000
vn 0.000000000 0.000000000 1.000000000
v -0.133363102 -0.096893965 0.735816766
vt 0.133198171 0.660771343
vn 0.000000000 0.000000000 1.000000000
f 37/37/37 38/38/38 39/39/39
g seat
v 0.164845860 0.000000000 0.735816766
vt 0.394375000 0.750000000
vn 0.000000000 0.000000000 1.000000000
v -0.133363102 -0.096893965 0.735816766
vt 0.133198171 0.660771343
vn 0.000000000 0.000000000 1.000000000
v -0.050940172 -0.156777729 0.735816766
vt 0.205385672 0.605625000
vn 0.000000000 0.000000000 1.000000000
f 40/40/40 41/41/41 42/42/42
g seat
v 0.164845860 0.000000000 0.735816766
vt 0.394375000 0.750000000
vn 0.000000000 0.000000000 1.000000000
v -0.050940172 -0.156777729 0.735816766
vt 0.205385672 0.605625000
vn 0.000000000 0.000000000 1.000000000
v 0.050940172 -0.156777729 0.735816766
vt 0.294614328 0.605625000
vn 0.000000000 0.000000000 1.000000000
f 43/43/43 44/44/44 45/45/45
g seat
v 0.164845860 0.000000000 0.735816766
vt 0.394375000 0.750000000
vn 0.000000000 0.000000000 1.000000000
v 0.050940172 -0.156777729 0.735816766
vt 0.294614328 0.605625000
vn 0.000000000 0.000000000 1.000000000
v 0.133363102 -0.096893965 0.735816766
vt 0.366801829 0.660771343
vn 0.000000000 0.000000000 1.000000000
f 46/46/46 47/47/47 48/48/48
g seat
v 0.196245071 0.000000000 0.670819019
vt 0.250000000 0.578125000
vn 0.951056516 0.309016994 0.000000000
v 0.158765598 0.115349959 0.670819019
vt 0.356224592 0.578125000
vn 0.951056516 0.309016994 0.000000000
v 0.158765598 0.115349959 0.721888677
vt 0.356224592 0.848214284
vn 0.951056516 0.309016994 0.000000000
f 49/49/49 50/50/50 51/51/51
g seat
v 0.196245071 0.000000000 0.670819019
vt 0.250000000 0.578125000
vn 0.951056516 0.309016994 -0.000000000
v 0.158765598 0.115349959 0.721888677
vt 0.356224592 0.848214284
vn 0.951056516 0.309016994 -0.000000000
v 0.196245071 0.000000000 0.721888677
vt 0.250000000 0.848214284
vn 0.951056516 0.309016994 -0.000000000
f 52/52/52 53/53/53 54/54/54
g seat
v 0.158765598 0.115349959 0.670819019
vt 0.389049796 0.578125000
vn 0.587785252 0.809016994 0.000000000
v 0.060643062 0.186640154 0.670819019
vt 0.303112296 0.578125000
vn 0.587785252 0.809016994 0.000000000
v 0.060643062 0.186640154 0.721888677
vt 0.303112296 0.848214284
vn 0.587785252 0.809016994 0.000000000
f 55/55/55 56/56/56 57/57/57
g seat
v 0.158765598 0.115349959 0.670819019
vt 0.389049796 0.578125000
vn 0.587785252 0.809016994 -0.000000000
v 0.060643062 0.186640154 0.721888677
vt 0.303112296 0.848214284
vn 0.587785252 0.809016994 -0.000000000
v 0.158765598 0.115349959 0.721888677
vt 0.389049796 0.848214284
vn 0.587785252 0.809016994 -0.000000000
f 58/58/58 59/59/59 60/60/60
g seat
v 0.060643062 0.186640154 0.670819019
vt 0.303112296 0.578125000
vn 0.000000000 1.000000000 0.000000000
v -0.060643062 0.186640154 0.670819019
vt 0.196887704 0.578125000
vn 0.000000000 1.000000000 0.000000000
v -0.060643062 0.186640154 0.721888677
vt 0.196887704 0.848214284
vn 0.000000000 1.000000000 0.000000000
f 61/61/61 62/62/62 63/63/63
g seat
v 0.060643062 0.186640154 0.670819019
vt 0.303112296 0.578125000
vn 0.000000000 1.000000000 -0.000000000
v -0.060643062 0.186640154 0.721888677
vt 0.196887704 0.848214284
vn 0.000000000 1.000000000 -0.000000000
v 0.060643062 0.186640154 0.721888677
vt 0.303112296 0.848214284
vn 0.000000000 1.000000000 -0.000000000
f 64/64/64 65/65/65 66/66/66
g seat
v -0.060643062 0.186640154 0.670819019
vt 0.196887704 0.578125000
vn -0.587785252 0.809016994 0.000000000
v -0.158765598 0.115349959 0.670819019
vt 0.110950204 0.578125000
vn -0.587785252 0.809016994 0.000000000
v -0.158765598 0.115349959 0.721888677
vt 0.110950204 0.848214284
vn -0.587785252 0.809016994 0.000000000
f 67/67/67 68/68/68 69/69/69
g seat
v -0.060643062 0.186640154 0.670819019
vt 0.196887704 0.578125000
vn -0.587785252 0.809016994 0.000000000
v -0.158765598 0.115349959 0.721888677
vt 0.110950204 0.848214284
vn -0.587785252 0.809016994 0.000000000
v -0.060643062 0.186640154 0.721888677
vt 0.196887704 0.848214284
vn -0.587785252 0.809016994 0.000000000
f 70/70/70 71/71/71 72/72/72
g seat
v -0.158765598 0.115349959 0.670819019
vt 0.356224592 0.578125000
vn -0.951056516 0.309016994 0.000000000
v -0.196245071 0.000000000 0.670819019
vt 0.250000000 0.578125000
vn -0.951056516 0.309016994 0.000000000
v -0.196245071 0.000000000 0.721888677
vt 0.250000000 0.848214284
vn -0.951056516 0.309016994 0.000000000
f 73/73/73 74/74/74 75/75/75
g seat
v -0.158765598 0.115349959 0.670819019
vt 0.356224592 0.578125000
vn -0.951056516 0.309016994 0.000000000
v -0.196245071 0.000000000 0.721888677
vt 0.250000000 0.848214284
vn -0.951056516 0.309016994 0.000000000
v -0.158765598 0.115349959 0.721888677
vt 0.356224592 0.848214284
vn -0.951056516 0.309016994 0.000000000
f 76/76/76 77/77/77 78/78/78
g seat
v -0.196245071 0.000000000 0.670819019
vt 0.250000000 0.578125000
vn -0.951056516 -0.309016994 0.000000000
v -0.158765598 -0.115349959 0.670819019
vt 0.143775408 0.578125000
vn -0.951056516 -0.309016994 0.000000000
v -0.158765598 -0.115349959 0.721888677
vt 0.143775408 0.848214284
vn -0.951056516 -0.309016994 0.000000000
f 79/79/79 80/80/80 81/81/81
g seat
v -0.196245071 0.000000000 0.670819019
vt 0.250000000 0.578125000
vn -0.951056516 -0.309016994 0.000000000
v -0.158765598 -0.115349959 0.721888677
vt 0.143775408 0.848214284
vn -0.951056516 -0.309016994 0.000000000
v -0.196245071 0.000000000 0.721888677
vt 0.250000000 0.848214284
vn -0.951056516 -0.309016994 0.000000000
f 82/82/82 83/83/83 84/84/84
g seat
v -0.158765598 -0.115349959 0.670819019
vt 0.110950204 0.578125000
vn -0.587785252 -0.809016994 0.000000000
v -0.060643062 -0.186640154 0.670819019
vt 0.196887704 0.578125000
vn -0.587785252 -0.809016994 0.000000000
v -0.060643062 -0.186640154 0.721888677
vt 0.196887704 0.848214284
vn -0.587785252 -0.809016994 0.000000000
f 85/85/85 86/86/86 87/87/87
g seat
v -0.158765598 -0.115349959 0.670819019
vt 0.110950204 0.578125000
vn -0.587785252 -0.809016994 0.000000000
v -0.060643062 -0.186640154 0.721888677
vt 0.196887704 0.848214284
vn -0.587785252 -0.809016994 0.000000000
v -0.158765598 -0.115349959 0.721888677
vt 0.110950204 0.848214284
vn -0.587785252 -0.809016994 0.000000000
f 88/88/88 89/89/89 90/90/90
g seat
v -0.060643062 -0.186640154 0.670819019
vt 0.196887704 0.578125000
vn -0.000000000 -1.000000000 0.000000000
v 0.060643062 -0.186640154 0.670819019
vt 0.303112296 0.578125000
vn -0.000000000 -1.000000000 0.000000000
v 0.060643062 -0.186640154 0.721888677
vt 0.303112296 0.848214284
vn -0.000000000 -1.000000000 0.000000000
f 91/91/91 92/92/92 93/93/93
g seat
v -0.060643062 -0.186640154 0.670819019
vt 0.196887704 0.578125000
vn -0.000000000 -1.000000000 0.000000000
v 0.060643062 -0.186640154 0.721888677
vt 0.303112296 0.848214284
vn -0.000000000 -1.000000000 0.000000000
v -0.060643062 -0.186640154 0.721888677
vt 0.196887704 0.848214284
vn -0.000000000 -1.000000000 0.000000000
f 94/94/94 95/95/95 96/96/96
g seat
v 0.060643062 -0.186640154 0.670819019
vt 0.303112296 0.578125000
vn 0.587785252 -0.809016994 0.000000000
v 0.158765598 -0.115349959 0.670819019
vt 0.389049796 0.578125000
vn 0.587785252 -0.809016994 0.000000000
v 0.158765598 -0.115349959 0.721888677
vt 0.389049796 0.848214284
vn 0.587785252 -0.809016994 0.000000000
f 97/97/97 98/98/98 99/99/99
g seat
v 0.060643062 -0.186640154 0.670819019
vt 0.303112296 0.578125000
vn 0.587785252 -0.809016994 0.000000000
v 0.158765598 -0.115349959 0.721888677
vt 0.389049796 0.848214284
vn 0.587785252 -0.809016994 0.000000000
v 0.060643062 -0.186640154 0.721888677
vt 0.303112296 0.848214284
vn 0.587785252 -0.809016994 0.000000000
f 100/100/100 101/101/101 102/102/102
g seat
v 0.158765598 -0.115349959 0.670819019
vt 0.143775408 0.578125000
vn 0.951056516 -0.309016994 0.000000000
v 0.196245071 0.000000000 0.670819019
vt 0.250000000 0.578125000
vn 0.951056516 -0.309016994 0.000000000
v 0.196245071 0.000000000 0.721888677
vt 0.250000000 0.848214284
vn 0.951056516 -0.309016994 0.000000000
f 103/103/103 104/104/104 105/105/105
g seat
v 0.158765598 -0.115349959 0.670819019
vt 0.143775408 0.578125000
vn 0.951056516 -0.309016994 0.000000000
v 0.196245071 0.000000000 0.721888677
vt 0.250000000 0.848214284
vn 0.951056516 -0.309016994 0.000000000
v 0.158765598 -0.115349959 0.721888677
vt 0.143775408 0.848214284
vn 0.951056516 -0.309016994 0.000000000
f 106/106/106 107/107/107 108/108/108
g seat
v 0.196245071 0.000000000 0.721888677
vt 0.421875000 0.750000000
vn 0.402005239 0.130619420 0.906272782
v 0.158765598 0.115349959 0.721888677
vt 0.389049796 0.856224592
vn 0.402005239 0.130619420 0.906272782
v 0.133363102 0.096893965 0.735816766
vt 0.366801829 0.839228657
vn 0.402005239 0.130619420 0.906272782
f 109/109/109 110/110/110 111/111/111
g seat
v 0.196245071 0.000000000 0.721888677
vt 0.421875000 0.750000000
vn 0.402005239 0.130619420 0.906272782
v 0.133363102 0.096893965 0.735816766
vt 0.366801829 0.839228657
vn 0.402005239 0.130619420 0.906272782
v 0.164845860 0.000000000 0.735816766
vt 0.394375000 0.750000000
vn 0.402005239 0.130619420 0.906272782
f 112/112/112 113/113/113 114/114/114
g seat
v 0.158765598 0.115349959 0.721888677
vt 0.389049796 0.856224592
vn 0.248452901 0.341966081 0.906272782
v 0.060643062 0.186640154 0.721888677
vt 0.303112296 0.921875000
vn 0.248452901 0.341966081 0.906272782
v 0.050940172 0.156777729 0.735816766
vt 0.294614328 0.894375000
vn 0.248452901 0.341966081 0.906272782
f 115/115/115 116/116/116 117/117/117
g seat
v 0.158765598 0.115349959 0.721888677
vt 0.389049796 0.856224592
vn 0.248452901 0.341966081 0.906272782
v 0.050940172 0.156777729 0.735816766
vt 0.294614328 0.894375000
vn 0.248452901 0.341966081 0.906272782
v 0.133363102 0.096893965 0.735816766
vt 0.366801829 0.839228657
vn 0.248452901 0.341966081 0.906272782
f 118/118/118 119/119/119 120/120/120
g seat
v 0.060643062 0.186640154 0.721888677
vt 0.303112296 0.921875000
vn 0.000000000 0.422693323 0.906272782
v -0.060643062 0.186640154 0.721888677
vt 0.196887704 0.921875000
vn 0.000000000 0.422693323 0.906272782
v -0.050940172 0.156777729 0.735816766
vt 0.205385672 0.894375000
vn 0.000000000 0.422693323 0.906272782
f 121/121/121 122/122/122 123/123/123
g seat
v 0.060643062 0.186640154 0.721888677
vt 0.303112296 0.921875000
vn 0.000000000 0.422693323 0.906272782
v -0.050940172 0.156777729 0.735816766
vt 0.205385672 0.894375000
vn 0.000000000 0.422693323 0.906272782
v 0.050940172 0.156777729 0.735816766
vt 0.294614328 0.894375000
vn 0.000000000 0.422693323 0.906272782
f 124/124/124 125/125/125 126/126/126
g seat
v -0.060643062 0.186640154 0.721888677
vt 0.196887704 0.921875000
vn -0.248452901 0.341966081 0.906272782
v -0.158765598 0.115349959 0.721888677
vt 0.110950204 0.856224592
vn -0.248452901 0.341966081 0.906272782
v -0.133363102 0.096893965 0.735816766
vt 0.133198171 0.839228657
vn -0.248452901 0.341966081 0.906272782
f 127/127/127 128/128/128 129/129/129
g seat
v -0.060643062 0.186640154 0.721888677
vt 0.196887704 0.921875000
vn -0.248452901 0.341966081 0.906272782
v -0.133363102 0.096893965 0.735816766
vt 0.133198171 0.839228657
vn -0.248452901 0.341966081 0.906272782
v -0.050940172 0.156777729 0.735816766
vt 0.205385672 0.894375000
vn -0.248452901 0.341966081 0.906272782
f 130/130/130 131/131/131 132/132/132
g seat
v -0.158765598 0.115349959 0.721888677
vt 0.110950204 0.856224592
vn -0.402005239 0.130619420 0.906272782
v -0.196245071 0.000000000 0.721888677
vt 0.078125000 0.750000000
vn -0.402005239 0.130619420 0.906272782
v -0.164845860 0.000000000 0.735816766
vt 0.105625000 0.750000000
vn -0.402005239 0.130619420 0.906272782
f 133/133/133 134/134/134 135/135/135
g seat
v -0.158765598 0.115349959 0.721888677
vt 0.110950204 0.856224592
vn -0.402005239 0.130619420 0.906272782
v -0.164845860 0.000000000 0.735816766
vt 0.105625000 0.750000000
vn -0.402005239 0.130619420 0.906272782
v -0.133363102 0.096893965 0.735816766
vt 0.133198171 0.839228657
vn -0.402005239 0.130619420 0.906272782
f 136/136/136 137/137/137 138/138/138
g seat
v -0.196245071 0.000000000 0.721888677
vt 0.078125000 0.750000000
vn -0.402005239 -0.130619420 0.906272782
v -0.158765598 -0.115349959 0.721888677
vt 0.110950204 0.643775408
vn -0.402005239 -0.130619420 0.906272782
v -0.133363102 -0.096893965 0.735816766
vt 0.133198171 0.660771343
vn -0.402005239 -0.130619420 0.906272782
f 139/139/139 140/140/140 141/141/141
g seat
v -0.196245071 0.000000000 0.721888677
vt 0.078125000 0.750000000
vn -0.402005239 -0.130619420 0.906272782
v -0.133363102 -0.096893965 0.735816766
vt 0.133198171 0.660771343
vn -0.402005239 -0.130619420 0.906272782
v -0.164845860 0.000000000 0.735816766
vt 0.105625000 0.750000000
vn -0.402005239 -0.130619420 0.906272782
f 142/142/142 143/143/143 144/144/144
g seat
v -0.158765598 -0.115349959 0.721888677
vt 0.110950204 0.643775408
vn -0.248452901 -0.341966081 0.906272782
v -0.060643062 -0.186640154 0.721888677
vt 0.196887704 0.578125000
vn -0.248452901 -0.341966081 0.906272782
v -0.050940172 -0.156777729 0.735816766
vt 0.205385672 0.605625000
vn -0.248452901 -0.341966081 0.906272782
f 145/145/145 146/146/146 147/147/147
g seat
v -0.158765598 -0.115349959 0.721888677
vt 0.110950204 0.643775408
vn -0.248452901 -0.341966081 0.906272782
v -0.050940172 -0.156777729 0.735816766
vt 0.205385672 0.605625000
vn -0.248452901 -0.341966081 0.906272782
v -0.133363102 -0.096893965 0.735816766
vt 0.133198171 0.660771343
vn -0.248452901 -0.341966081 0.906272782
f 148/148/148 149/149/149 150/150/150
g seat
v -0.060643062 -0.186640154 0.721888677
vt 0.196887704 0.578125000
vn -0.000000000 -0.422693323 0.906272782
v 0.060643062 -0.186640154 0.721888677
vt 0.303112296 0.578125000
vn -0.000000000 -0.422693323 0.906272782
v 0.050940172 -0.156777729 0.735816766
vt 0.294614328 0.605625000
vn -0.000000000 -0.422693323 0.906272782
f 151/151/151 152/152/152 153/153/153
g seat
v -0.060643062 -0.186640154 0.721888677
vt 0.196887704 0.578125000
vn -0.000000000 -0.422693323 0.906272782
v 0.050940172 -0.156777729 0.735816766
vt 0.294614328 0.605625000
vn -0.000000000 -0.422693323 0.906272782
v -0.050940172 -0.156777729 0.735816766
vt 0.205385672 0.605625000
vn -0.000000000 -0.422693323 0.906272782
f 154/154/154 155/155/155 156/156/156
g seat
v 0.060643062 -0.186640154 0.721888677
vt 0.303112296 0.578125000
vn 0.248452901 -0.341966081 0.906272782
v 0.158765598 -0.115349959 0.721888677
vt 0.389049796 0.643775408
vn 0.248452901 -0.341966081 0.906272782
v 0.133363102 -0.096893965 0.735816766
vt 0.366801829 0.660771343
vn 0.248452901 -0.341966081 0.906272782
f 157/157/157 158/158/158 159/159/159
g seat
v 0.060643062 -0.186640154 0.721888677
vt 0.303112296 0.578125000
vn 0.248452901 -0.341966081 0.906272782
v 0.133363102 -0.096893965 0.735816766
vt 0.366801829 0.660771343
vn 0.248452901 -0.341966081 0.906272782
v 0.050940172 -0.156777729 0.735816766
vt 0.294614328 0.605625000
vn 0.248452901 -0.341966081 0.906272782
f 160/160/160 161/161/161 162/162/162
g seat
v 0.158765598 -0.115349959 0.721888677
vt 0.389049796 0.643775408
vn 0.402005239 -0.130619420 0.906272782
v 0.196245071 0.000000000 0.721888677
vt 0.421875000 0.750000000
vn 0.402005239 -0.130619420 0.906272782
v 0.164845860 0.000000000 0.735816766
vt 0.394375000 0.750000000
vn 0.402005239 -0.130619420 0.906272782
f 163/163/163 164/164/164 165/165/165
g seat
v 0.158765598 -0.115349959 0.721888677
vt 0.389049796 0.643775408
vn 0.402005239 -0.130619420 0.906272782
v 0.164845860 0.000000000 0.735816766
vt 0.394375000 0.750000000
vn 0.402005239 -0.130619420 0.906272782
v 0.133363102 -0.096893965 0.735816766
vt 0.366801829 0.660771343
vn 0.402005239 -0.130619420 0.906272782
f 166/166/166 167/167/167 168/168/168
g wood
v 0.171996112 0.138974204 0.002276343
vt 0.908480624 0.878053584
vn 0.068776185 0.068776185 -0.995258596
v 0.139055209 0.138974204 0.000000000
vt 0.878128224 0.878053584
vn 0.068776185 0.068776185 -0.995258596
v 0.138893595 0.171915503 0.002265202
vt 0.877979310 0.908406350
vn 0.068776185 0.068776185 -0.995258596
f 169/169/169 170/170/170 171/171/171
g wood
v 0.171996112 0.138974204 0.002276343
vt 0.908480624 0.878053584
vn 0.068776185 0.068776185 -0.995258596
v 0.138893595 0.171915503 0.002265202
vt 0.877979310 0.908406350
vn 0.068776185 0.068776185 -0.995258596
v 0.171834497 0.171915503 0.004541545
vt 0.908331709 0.908406350
vn 0.068776185 0.068776185 -0.995258596
f 172/172/172 173/173/173 174/174/174
g wood
v 0.124467182 0.124548187 0.668447095
vt 0.864686527 0.864761166
vn -0.068776185 -0.068776185 0.995258596
v 0.091526279 0.124548187 0.666170753
vt 0.834334126 0.864761166
vn -0.068776185 -0.068776185 0.995258596
v 0.091687893 0.091606888 0.663905551
vt 0.834483041 0.834408401
vn -0.068776185 -0.068776185 0.995258596
f 175/175/175 176/176/176 177/177/177
g wood
v 0.124467182 0.124548187 0.668447095
vt 0.864686527 0.864761166
vn -0.068776185 -0.068776185 0.995258596
v 0.091687893 0.091606888 0.663905551
vt 0.834483041 0.834408401
vn -0.068776185 -0.068776185 0.995258596
v 0.124628796 0.091606888 0.666181894
vt 0.864835441 0.834408401
vn -0.068776185 -0.068776185 0.995258596
f 178/178/178 179/179/179 180/180/180
g wood
v 0.171834497 0.171915503 0.004541545
vt 0.908331709 0.580460497
vn -0.004893749 0.997477296 0.070817330
v 0.138893595 0.171915503 0.002265202
vt 0.877979310 0.579289884
vn -0.004893749 0.997477296 0.070817330
v 0.091526279 0.124548187 0.666170753
vt 0.834334126 0.920704387
vn -0.004893749 0.997477296 0.070817330
f 181/181/181 182/182/182 183/183/183
g wood
v 0.171834497 0.171915503 0.004541545
vt 0.908331709 0.580460497
vn -0.004893749 0.997477296 0.070817330
v 0.091526279 0.124548187 0.666170753
vt 0.834334126 0.920704387
vn -0.004893749 0.997477296 0.070817330
v 0.124467182 0.124548187 0.668447095
vt 0.864686527 0.921875000
vn -0.004893749 0.997477296 0.070817330
f 184/184/184 185/185/185 186/186/186
g wood
v 0.138893595 0.171915503 0.002265202
vt 0.908406350 0.579289884
vn -0.997464517 -0.000000000 -0.071165570
v 0.139055209 0.138974204 0.000000000
vt 0.878053584 0.578125000
vn -0.997464517 -0.000000000 -0.071165570
v 0.091687893 0.091606888 0.663905551
vt 0.834408401 0.919539504
vn -0.997464517 -0.000000000 -0.071165570
f 187/187/187 188/188/188 189/189/189
g wood
v 0.138893595 0.171915503 0.002265202
vt 0.908406350 0.579289884
vn -0.997464517 0.000000000 -0.071165570
v 0.091687893 0.091606888 0.663905551
vt 0.834408401 0.919539504
vn -0.997464517 0.000000000 -0.071165570
v 0.091526279 0.124548187 0.666170753
vt 0.864761166 0.920704387
vn -0.997464517 0.000000000 -0.071165570
f 190/190/190 191/191/191 192/192/192
g wood
v 0.139055209 0.138974204 0.000000000
vt 0.878128224 0.578125000
vn 0.004893749 -0.997477296 -0.070817330
v 0.171996112 0.138974204 0.002276343
vt 0.908480624 0.579295613
vn 0.004893749 -0.997477296 -0.070817330
v 0.124628796 0.091606888 0.666181894
vt 0.864835441 0.920710117
vn 0.004893749 -0.997477296 -0.070817330
f 193/193/193 194/194/194 195/195/195
g wood
v 0.139055209 0.138974204 0.000000000
vt 0.878128224 0.578125000
vn 0.004893749 -0.997477296 -0.070817330
v 0.124628796 0.091606888 0.666181894
vt 0.864835441 0.920710117
vn 0.004893749 -0.997477296 -0.070817330
v 0.091687893 0.091606888 0.663905551
vt 0.834483041 0.919539504
vn 0.004893749 -0.997477296 -0.070817330
f 196/196/196 197/197/197 198/198/198
g wood
v 0.171996112 0.138974204 0.002276343
vt 0.878053584 0.579295613
vn 0.997464517 0.000000000 0.071165570
v 0.171834497 0.171915503 0.004541545
vt 0.908406350 0.580460497
vn 0.997464517 0.000000000 0.071165570
v 0.124467182 0.124548187 0.668447095
vt 0.864761166 0.921875000
vn 0.997464517 0.000000000 0.071165570
f 199/199/199 200/200/200 201/201/201
g wood
v 0.171996112 0.138974204 0.002276343
vt 0.878053584 0.579295613
vn 0.997464517 0.000000000 0.071165570
v 0.124467182 0.124548187 0.668447095
vt 0.864761166 0.921875000
vn 0.997464517 0.000000000 0.071165570
v 0.124628796 0.091606888 0.666181894
vt 0.834408401 0.920710117
vn 0.997464517 0.000000000 0.071165570
f 202/202/202 203/203/203 204/204/204
g wood
v -0.139055209 0.138974204 0.000000000
vt 0.621871776 0.878053584
vn -0.068776185 0.068776185 -0.995258596
v -0.171996112 0.138974204 0.002276343
vt 0.591519376 0.878053584
vn -0.068776185 0.068776185 -0.995258596
v -0.171834497 0.171915503 0.004541545
vt 0.591668291 0.908406350
vn -0.068776185 0.068776185 -0.995258596
f 205/205/205 206/206/206 207/207/207
g wood
v -0.139055209 0.138974204 0.000000000
vt 0.621871776 0.878053584
vn -0.068776185 0.068776185 -0.995258596
v -0.171834497 0.171915503 0.004541545
vt 0.591668291 0.908406350
vn -0.068776185 0.068776185 -0.995258596
v -0.138893595 0.171915503 0.002265202
vt 0.622020690 0.908406350
vn -0.068776185 0.068776185 -0.995258596
f 208/208/208 209/209/209 210/210/210
g wood
v -0.091526279 0.124548187 0.666170753
vt 0.665665874 0.864761166
vn 0.068776185 -0.068776185 0.995258596
v -0.124467182 0.124548187 0.668447095
vt 0.635313473 0.864761166
vn 0.068776185 -0.068776185 0.995258596
v -0.124628796 0.091606888 0.666181894
vt 0.635164559 0.834408401
vn 0.068776185 -0.068776185 0.995258596
f 211/211/211 212/212/212 213/213/213
g wood
v -0.091526279 0.124548187 0.666170753
vt 0.665665874 0.864761166
vn 0.068776185 -0.068776185 0.995258596
v -0.124628796 0.091606888 0.666181894
vt 0.635164559 0.834408401
vn 0.068776185 -0.068776185 0.995258596
v -0.091687893 0.091606888 0.663905551
vt 0.665516959 0.834408401
vn 0.068776185 -0.068776185 0.995258596
f 214/214/214 215/215/215 216/216/216
g wood
v -0.138893595 0.171915503 0.002265202
vt 0.622020690 0.579289884
vn 0.004893749 0.997477296 0.070817330
v -0.171834497 0.171915503 0.004541545
vt 0.591668291 0.580460497
vn 0.004893749 0.997477296 0.070817330
v -0.124467182 0.124548187 0.668447095
vt 0.635313473 0.921875000
vn 0.004893749 0.997477296 0.070817330
f 217/217/217 218/218/218 219/219/219
g wood
v -0.138893595 0.171915503 0.002265202
vt 0.622020690 0.579289884
vn 0.004893749 0.997477296 0.070817330
v -0.124467182 0.124548187 0.668447095
vt 0.635313473 0.921875000
vn 0.004893749 0.997477296 0.070817330
v -0.091526279 0.124548187 0.666170753
vt 0.665665874 0.920704387
vn 0.004893749 0.997477296 0.070817330
f 220/220/220 221/221/221 222/222/222
g wood
v -0.171834497 0.171915503 0.004541545
vt 0.908406350 0.580460497
vn -0.997464517 -0.000000000 0.071165570
v -0.171996112 0.138974204 0.002276343
vt 0.878053584 0.579295613
vn -0.997464517 -0.000000000 0.071165570
v -0.124628796 0.091606888 0.666181894
vt 0.834408401 0.920710117
vn -0.997464517 -0.000000000 0.071165570
f 223/223/223 224/224/224 225/225/225
g wood
v -0.171834497 0.171915503 0.004541545
vt 0.908406350 0.580460497
vn -0.997464517 0.000000000 0.071165570
v -0.124628796 0.091606888 0.666181894
vt 0.834408401 0.920710117
vn -0.997464517 0.000000000 0.071165570
v -0.124467182 0.124548187 0.668447095
vt 0.864761166 0.921875000
vn -0.997464517 0.000000000 0.071165570
f 226/226/226 227/227/227 228/228/228
g wood
v -0.171996112 0.138974204 0.002276343
vt 0.591519376 0.579295613
vn -0.004893749 -0.997477296 -0.070817330
v -0.139055209 0.138974204 0.000000000
vt 0.621871776 0.578125000
vn -0.004893749 -0.997477296 -0.070817330
v -0.091687893 0.091606888 0.663905551
vt 0.665516959 0.919539504
vn -0.004893749 -0.997477296 -0.070817330
f 229/229/229 230/230/230 231/231/231
g wood
v -0.171996112 0.138974204 0.002276343
vt 0.591519376 0.579295613
vn -0.004893749 -0.997477296 -0.070817330
v -0.091687893 0.091606888 0.663905551
vt 0.665516959 0.919539504
vn -0.004893749 -0.997477296 -0.070817330
v -0.124628796 0.091606888 0.666181894
vt 0.635164559 0.920710117
vn -0.004893749 -0.997477296 -0.070817330
f 232/232/232 233/233/233 234/234/234
g wood
v -0.139055209 0.138974204 0.000000000
vt 0.878053584 0.578125000
vn 0.997464517 0.000000000 -0.071165570
v -0.138893595 0.171915503 0.002265202
vt 0.908406350 0.579289884
vn 0.997464517 0.000000000 -0.071165570
v -0.091526279 0.124548187 0.666170753
vt 0.864761166 0.920704387
vn 0.997464517 0.000000000 -0.071165570
f 235/235/235 236/236/236 237/237/237
g wood
v -0.139055209 0.138974204 0.000000000
vt 0.878053584 0.578125000
vn 0.997464517 -0.000000000 -0.071165570
v -0.091526279 0.124548187 0.666170753
vt 0.864761166 0.920704387
vn 0.997464517 -0.000000000 -0.071165570
v -0.091687893 0.091606888 0.663905551
vt 0.834408401 0.919539504
vn 0.997464517 -0.000000000 -0.071165570
f 238/238/238 239/239/239 240/240/240
g wood
v -0.138893595 -0.171915503 0.002265202
vt 0.622020690 0.591593650
vn -0.068776185 -0.068776185 -0.995258596
v -0.171834497 -0.171915503 0.004541545
vt 0.591668291 0.591593650
vn -0.068776185 -0.068776185 -0.995258596
v -0.171996112 -0.138974204 0.002276343
vt 0.591519376 0.621946416
vn -0.068776185 -0.068776185 -0.995258596
f 241/241/241 242/242/242 243/243/243
g wood
v -0.138893595 -0.171915503 0.002265202
vt 0.622020690 0.591593650
vn -0.068776185 -0.068776185 -0.995258596
v -0.171996112 -0.138974204 0.002276343
vt 0.591519376 0.621946416
vn -0.068776185 -0.068776185 -0.995258596
v -0.139055209 -0.138974204 0.000000000
vt 0.621871776 0.621946416
vn -0.068776185 -0.068776185 -0.995258596
f 244/244/244 245/245/245 246/246/246
g wood
v -0.091687893 -0.091606888 0.663905551
vt 0.665516959 0.665591599
vn 0.068776185 0.068776185 0.995258596
v -0.124628796 -0.091606888 0.666181894
vt 0.635164559 0.665591599
vn 0.068776185 0.068776185 0.995258596
v -0.124467182 -0.124548187 0.668447095
vt 0.635313473 0.635238834
vn 0.068776185 0.068776185 0.995258596
f 247/247/247 248/248/248 249/249/249
g wood
v -0.091687893 -0.091606888 0.663905551
vt 0.665516959 0.665591599
vn 0.068776185 0.068776185 0.995258596
v -0.124467182 -0.124548187 0.668447095
vt 0.635313473 0.635238834
vn 0.068776185 0.068776185 0.995258596
v -0.091526279 -0.124548187 0.666170753
vt 0.665665874 0.635238834
vn 0.068776185 0.068776185 0.995258596
f 250/250/250 251/251/251 252/252/252
g wood
v -0.139055209 -0.138974204 0.000000000
vt 0.621871776 0.578125000
vn -0.004893749 0.997477296 -0.070817330
v -0.171996112 -0.138974204 0.002276343
vt 0.591519376 0.579295613
vn -0.004893749 0.997477296 -0.070817330
v -0.124628796 -0.091606888 0.666181894
vt 0.635164559 0.920710117
vn -0.004893749 0.997477296 -0.070817330
f 253/253/253 254/254/254 255/255/255
g wood
v -0.139055209 -0.138974204 0.000000000
vt 0.621871776 0.578125000
vn -0.004893749 0.997477296 -0.070817330
v -0.124628796 -0.091606888 0.666181894
vt 0.635164559 0.920710117
vn -0.004893749 0.997477296 -0.070817330
v -0.091687893 -0.091606888 0.663905551
vt 0.665516959 0.919539504
vn -0.004893749 0.997477296 -0.070817330
f 256/256/256 257/257/257 258/258/258
g wood
v -0.171996112 -0.138974204 0.002276343
vt 0.621946416 0.579295613
vn -0.997464517 0.000000000 0.071165570
v -0.171834497 -0.171915503 0.004541545
vt 0.591593650 0.580460497
vn -0.997464517 0.000000000 0.071165570
v -0.124467182 -0.124548187 0.668447095
vt 0.635238834 0.921875000
vn -0.997464517 0.000000000 0.071165570
f 259/259/259 260/260/260 261/261/261
g wood
v -0.171996112 -0.138974204 0.002276343
vt 0.621946416 0.579295613
vn -0.997464517 -0.000000000 0.071165570
v -0.124467182 -0.124548187 0.668447095
vt 0.635238834 0.921875000
vn -0.997464517 -0.000000000 0.071165570
v -0.124628796 -0.091606888 0.666181894
vt 0.665591599 0.920710117
vn -0.997464517 -0.000000000 0.071165570
f 262/262/262 263/263/263 264/264/264
g wood
v -0.171834497 -0.171915503 0.004541545
vt 0.591668291 0.580460497
vn 0.004893749 -0.997477296 0.070817330
v -0.138893595 -0.171915503 0.002265202
vt 0.622020690 0.579289884
vn 0.004893749 -0.997477296 0.070817330
v -0.091526279 -0.124548187 0.666170753
vt 0.665665874 0.920704387
vn 0.004893749 -0.997477296 0.070817330
f 265/265/265 266/266/266 267/267/267
g wood
v -0.171834497 -0.171915503 0.004541545
vt 0.591668291 0.580460497
vn 0.004893749 -0.997477296 0.070817330
v -0.091526279 -0.124548187 0.666170753
vt 0.665665874 0.920704387
vn 0.004893749 -0.997477296 0.070817330
v -0.124467182 -0.124548187 0.668447095
vt 0.635313473 0.921875000
vn 0.004893749 -0.997477296 0.070817330
f 268/268/268 269/269/269 270/270/270
g wood
v -0.138893595 -0.171915503 0.002265202
vt 0.591593650 0.579289884
vn 0.997464517 -0.000000000 -0.071165570
v -0.139055209 -0.138974204 0.000000000
vt 0.621946416 0.578125000
vn 0.997464517 -0.000000000 -0.071165570
v -0.091687893 -0.091606888 0.663905551
vt 0.665591599 0.919539504
vn 0.997464517 -0.000000000 -0.071165570
f 271/271/271 272/272/272 273/273/273
g wood
v -0.138893595 -0.171915503 0.002265202
vt 0.591593650 0.579289884
vn 0.997464517 0.000000000 -0.071165570
v -0.091687893 -0.091606888 0.663905551
vt 0.665591599 0.919539504
vn 0.997464517 0.000000000 -0.071165570
v -0.091526279 -0.124548187 0.666170753
vt 0.635238834 0.920704387
vn 0.997464517 0.000000000 -0.071165570
f 274/274/274 275/275/275 276/276/276
g wood
v 0.171834497 -0.171915503 0.004541545
vt 0.908331709 0.591593650
vn 0.068776185 -0.068776185 -0.995258596
v 0.138893595 -0.171915503 0.002265202
vt 0.877979310 0.591593650
vn 0.068776185 -0.068776185 -0.995258596
v 0.139055209 -0.138974204 0.000000000
vt 0.878128224 0.621946416
vn 0.068776185 -0.068776185 -0.995258596
f 277/277/277 278/278/278 279/279/279
g wood
v 0.171834497 -0.171915503 0.004541545
vt 0.908331709 0.591593650
vn 0.068776185 -0.068776185 -0.995258596
v 0.139055209 -0.138974204 0.000000000
vt 0.878128224 0.621946416
vn 0.068776185 -0.068776185 -0.995258596
v 0.171996112 -0.138974204 0.002276343
vt 0.908480624 0.621946416
vn 0.068776185 -0.068776185 -0.995258596
f 280/280/280 281/281/281 282/282/282
g wood
v 0.124628796 -0.091606888 0.666181894
vt 0.864835441 0.665591599
vn -0.068776185 0.068776185 0.995258596
v 0.091687893 -0.091606888 0.663905551
vt 0.834483041 0.665591599
vn -0.068776185 0.068776185 0.995258596
v 0.091526279 -0.124548187 0.666170753
vt 0.834334126 0.635238834
vn -0.068776185 0.068776185 0.995258596
f 283/283/283 284/284/284 285/285/285
g wood
v 0.124628796 -0.091606888 0.666181894
vt 0.864835441 0.665591599
vn -0.068776185 0.068776185 0.995258596
v 0.091526279 -0.124548187 0.666170753
vt 0.834334126 0.635238834
vn -0.068776185 0.068776185 0.995258596
v 0.124467182 -0.124548187 0.668447095
vt 0.864686527 0.635238834
vn -0.068776185 0.068776185 0.995258596
f 286/286/286 287/287/287 288/288/288
g wood
v 0.171996112 -0.138974204 0.002276343
vt 0.908480624 0.579295613
vn 0.004893749 0.997477296 -0.070817330
v 0.139055209 -0.138974204 0.000000000
vt 0.878128224 0.578125000
vn 0.004893749 0.997477296 -0.070817330
v 0.091687893 -0.091606888 0.663905551
vt 0.834483041 0.919539504
vn 0.004893749 0.997477296 -0.070817330
f 289/289/289 290/290/290 291/291/291
g wood
v 0.171996112 -0.138974204 0.002276343
vt 0.908480624 0.579295613
vn 0.004893749 0.997477296 -0.070817330
v 0.091687893 -0.091606888 0.663905551
vt 0.834483041 0.919539504
vn 0.004893749 0.997477296 -0.070817330
v 0.124628796 -0.091606888 0.666181894
vt 0.864835441 0.920710117
vn 0.004893749 0.997477296 -0.070817330
f 292/292/292 293/293/293 294/294/294
g wood
v 0.139055209 -0.138974204 0.000000000
vt 0.621946416 0.578125000
vn -0.997464517 0.000000000 -0.071165570
v 0.138893595 -0.171915503 0.002265202
vt 0.591593650 0.579289884
vn -0.997464517 0.000000000 -0.071165570
v 0.091526279 -0.124548187 0.666170753
vt 0.635238834 0.920704387
vn -0.997464517 0.000000000 -0.071165570
f 295/295/295 296/296/296 297/297/297
g wood
v 0.139055209 -0.138974204 0.000000000
vt 0.621946416 0.578125000
vn -0.997464517 0.000000000 -0.071165570
v 0.091526279 -0.124548187 0.666170753
vt 0.635238834 0.920704387
vn -0.997464517 0.000000000 -0.071165570
v 0.091687893 -0.091606888 0.663905551
vt 0.665591599 0.919539504
vn -0.997464517 0.000000000 -0.071165570
f 298/298/298 299/299/299 300/300/300
g wood
v 0.138893595 -0.171915503 0.002265202
vt 0.877979310 0.579289884
vn -0.004893749 -0.997477296 0.070817330
v 0.171834497 -0.171915503 0.004541545
vt 0.908331709 0.580460497
vn -0.004893749 -0.997477296 0.070817330
v 0.124467182 -0.124548187 0.668447095
vt 0.864686527 0.921875000
vn -0.004893749 -0.997477296 0.070817330
f 301/301/301 302/302/302 303/303/303
g wood
v 0.138893595 -0.171915503 0.002265202
vt 0.877979310 0.579289884
vn -0.004893749 -0.997477296 0.070817330
v 0.124467182 -0.124548187 0.668447095
vt 0.864686527 0.921875000
vn -0.004893749 -0.997477296 0.070817330
v 0.091526279 -0.124548187 0.666170753
vt 0.834334126 0.920704387
vn -0.004893749 -0.997477296 0.070817330
f 304/304/304 305/305/305 306/306/306
g wood
v 0.171834497 -0.171915503 0.004541545
vt 0.591593650 0.580460497
vn 0.997464517 -0.000000000 0.071165570
v 0.171996112 -0.138974204 0.002276343
vt 0.621946416 0.579295613
vn 0.997464517 -0.000000000 0.071165570
v 0.124628796 -0.091606888 0.666181894
vt 0.665591599 0.920710117
vn 0.997464517 -0.000000000 0.071165570
f 307/307/307 308/308/308 309/309/309
g wood
v 0.171834497 -0.171915503 0.004541545
vt 0.591593650 0.580460497
vn 0.997464517 0.000000000 0.071165570
v 0.124628796 -0.091606888 0.666181894
vt 0.665591599 0.920710117
vn 0.997464517 0.000000000 0.071165570
v 0.124467182 -0.124548187 0.668447095
vt 0.635238834 0.921875000
vn 0.997464517 0.000000000 0.071165570
f 310/310/310 311/311/311 312/312/312
g wood
v 0.171714438 -0.000000000 0.389471632
vt 0.908221084 0.778411417
vn 0.382683432 -0.923879533 -0.000000000
v 0.156896093 -0.006137959 0.373686465
vt 0.894567168 0.770293869
vn 0.382683432 -0.923879533 -0.000000000
v 0.171714438 0.000000000 0.357901298
vt 0.908221084 0.762176321
vn 0.382683432 -0.923879533 -0.000000000
f 313/313/313 314/314/314 315/315/315
g wood
v 0.171714438 -0.000000000 0.389471632
vt 0.908221084 0.778411417
vn 0.382683432 -0.923879533 -0.000000000
v 0.171714438 0.000000000 0.357901298
vt 0.908221084 0.762176321
vn 0.382683432 -0.923879533 -0.000000000
v 0.186532782 0.006137959 0.373686465
vt 0.921875000 0.770293869
vn 0.382683432 -0.923879533 -0.000000000
f 316/316/316 317/317/317 318/318/318
g wood
v 0.136238788 0.127558403 0.373686465
vt 0.875533118 0.770293869
vn -0.382683432 0.923879533 0.000000000
v 0.121420443 0.121420443 0.357901298
vt 0.861879201 0.762176321
vn -0.382683432 0.923879533 0.000000000
v 0.106602099 0.115282484 0.373686465
vt 0.848225285 0.770293869
vn -0.382683432 0.923879533 0.000000000
f 319/319/319 320/320/320 321/321/321
g wood
v 0.136238788 0.127558403 0.373686465
vt 0.875533118 0.770293869
vn -0.382683432 0.923879533 -0.000000000
v 0.106602099 0.115282484 0.373686465
vt 0.848225285 0.770293869
vn -0.382683432 0.923879533 -0.000000000
v 0.121420443 0.121420443 0.389471632
vt 0.861879201 0.778411417
vn -0.382683432 0.923879533 -0.000000000
f 322/322/322 323/323/323 324/324/324
g wood
v 0.186532782 0.006137959 0.373686465
vt 0.921875000 0.755655637
vn 0.648044874 0.268428976 -0.712729771
v 0.171714438 0.000000000 0.357901298
vt 0.908221084 0.750000000
vn 0.648044874 0.268428976 -0.712729771
v 0.121420443 0.121420443 0.357901298
vt 0.861879201 0.861879201
vn 0.648044874 0.268428976 -0.712729771
f 325/325/325 326/326/326 327/327/327
g wood
v 0.186532782 0.006137959 0.373686465
vt 0.921875000 0.755655637
vn 0.648044874 0.268428976 -0.712729771
v 0.121420443 0.121420443 0.357901298
vt 0.861879201 0.861879201
vn 0.648044874 0.268428976 -0.712729771
v 0.136238788 0.127558403 0.373686465
vt 0.875533118 0.867534839
vn 0.648044874 0.268428976 -0.712729771
f 328/328/328 329/329/329 330/330/330
g wood
v 0.171714438 0.000000000 0.357901298
vt 0.908221084 0.750000000
vn -0.648044874 -0.268428976 -0.712729771
v 0.156896093 -0.006137959 0.373686465
vt 0.894567168 0.744344363
vn -0.648044874 -0.268428976 -0.712729771
v 0.106602099 0.115282484 0.373686465
vt 0.848225285 0.856223564
vn -0.648044874 -0.268428976 -0.712729771
f 331/331/331 332/332/332 333/333/333
g wood
v 0.171714438 0.000000000 0.357901298
vt 0.908221084 0.750000000
vn -0.648044874 -0.268428976 -0.712729771
v 0.106602099 0.115282484 0.373686465
vt 0.848225285 0.856223564
vn -0.648044874 -0.268428976 -0.712729771
v 0.121420443 0.121420443 0.357901298
vt 0.861879201 0.861879201
vn -0.648044874 -0.268428976 -0.712729771
f 334/334/334 335/335/335 336/336/336
g wood
v 0.156896093 -0.006137959 0.373686465
vt 0.894567168 0.744344363
vn -0.648044874 -0.268428976 0.712729771
v 0.171714438 -0.000000000 0.389471632
vt 0.908221084 0.750000000
vn -0.648044874 -0.268428976 0.712729771
v 0.121420443 0.121420443 0.389471632
vt 0.861879201 0.861879201
vn -0.648044874 -0.268428976 0.712729771
f 337/337/337 338/338/338 339/339/339
g wood
v 0.156896093 -0.006137959 0.373686465
vt 0.894567168 0.744344363
vn -0.648044874 -0.268428976 0.712729771
v 0.121420443 0.121420443 0.389471632
vt 0.861879201 0.861879201
vn -0.648044874 -0.268428976 0.712729771
v 0.106602099 0.115282484 0.373686465
vt 0.848225285 0.856223564
vn -0.648044874 -0.268428976 0.712729771
f 340/340/340 341/341/341 342/342/342
g wood
v 0.171714438 -0.000000000 0.389471632
vt 0.908221084 0.750000000
vn 0.648044874 0.268428976 0.712729771
v 0.186532782 0.006137959 0.373686465
vt 0.921875000 0.755655637
vn 0.648044874 0.268428976 0.712729771
v 0.136238788 0.127558403 0.373686465
vt 0.875533118 0.867534839
vn 0.648044874 0.268428976 0.712729771
f 343/343/343 344/344/344 345/345/345
g wood
v 0.171714438 -0.000000000 0.389471632
vt 0.908221084 0.750000000
vn 0.648044874 0.268428976 0.712729771
v 0.136238788 0.127558403 0.373686465
vt 0.875533118 0.867534839
vn 0.648044874 0.268428976 0.712729771
v 0.121420443 0.121420443 0.389471632
vt 0.861879201 0.861879201
vn 0.648044874 0.268428976 0.712729771
f 346/346/346 347/347/347 348/348/348
g wood
v 0.121420443 0.121420443 0.389471632
vt 0.861879201 0.778411417
vn 0.923879533 -0.382683432 0.000000000
v 0.115282484 0.106602099 0.373686465
vt 0.848225285 0.770293869
vn 0.923879533 -0.382683432 0.000000000
v 0.121420443 0.121420443 0.357901298
vt 0.861879201 0.762176321
vn 0.923879533 -0.382683432 0.000000000
f 349/349/349 350/350/350 351/351/351
g wood
v 0.121420443 0.121420443 0.389471632
vt 0.861879201 0.778411417
vn 0.923879533 -0.382683432 0.000000000
v 0.121420443 0.121420443 0.357901298
vt 0.861879201 0.762176321
vn 0.923879533 -0.382683432 0.000000000
v 0.127558403 0.136238788 0.373686465
vt 0.875533118 0.770293869
vn 0.923879533 -0.382683432 0.000000000
f 352/352/352 353/353/353 354/354/354
g wood
v 0.006137959 0.186532782 0.373686465
vt 0.921875000 0.770293869
vn -0.923879533 0.382683432 -0.000000000
v 0.000000000 0.171714438 0.357901298
vt 0.908221084 0.762176321
vn -0.923879533 0.382683432 -0.000000000
v -0.006137959 0.156896093 0.373686465
vt 0.894567168 0.770293869
vn -0.923879533 0.382683432 -0.000000000
f 355/355/355 356/356/356 357/357/357
g wood
v 0.006137959 0.186532782 0.373686465
vt 0.921875000 0.770293869
vn -0.923879533 0.382683432 -0.000000000
v -0.006137959 0.156896093 0.373686465
vt 0.894567168 0.770293869
vn -0.923879533 0.382683432 -0.000000000
v 0.000000000 0.171714438 0.389471632
vt 0.908221084 0.778411417
vn -0.923879533 0.382683432 -0.000000000
f 358/358/358 359/359/359 360/360/360
g wood
v 0.127558403 0.136238788 0.373686465
vt 0.867534839 0.875533118
vn 0.268428976 0.648044874 -0.712729771
v 0.121420443 0.121420443 0.357901298
vt 0.861879201 0.861879201
vn 0.268428976 0.648044874 -0.712729771
v 0.000000000 0.171714438 0.357901298
vt 0.750000000 0.908221084
vn 0.268428976 0.648044874 -0.712729771
f 361/361/361 362/362/362 363/363/363
g wood
v 0.127558403 0.136238788 0.373686465
vt 0.867534839 0.875533118
vn 0.268428976 0.648044874 -0.712729771
v 0.000000000 0.171714438 0.357901298
vt 0.750000000 0.908221084
vn 0.268428976 0.648044874 -0.712729771
v 0.006137959 0.186532782 0.373686465
vt 0.755655637 0.921875000
vn 0.268428976 0.648044874 -0.712729771
f 364/364/364 365/365/365 366/366/366
g wood
v 0.121420443 0.121420443 0.357901298
vt 0.861879201 0.861879201
vn -0.268428976 -0.648044874 -0.712729771
v 0.115282484 0.106602099 0.373686465
vt 0.856223564 0.848225285
vn -0.268428976 -0.648044874 -0.712729771
v -0.006137959 0.156896093 0.373686465
vt 0.744344363 0.894567168
vn -0.268428976 -0.648044874 -0.712729771
f 367/367/367 368/368/368 369/369/369
g wood
v 0.121420443 0.121420443 0.357901298
vt 0.861879201 0.861879201
vn -0.268428976 -0.648044874 -0.712729771
v -0.006137959 0.156896093 0.373686465
vt 0.744344363 0.894567168
vn -0.268428976 -0.648044874 -0.712729771
v 0.000000000 0.171714438 0.357901298
vt 0.750000000 0.908221084
vn -0.268428976 -0.648044874 -0.712729771
f 370/370/370 371/371/371 372/372/372
g wood
v 0.115282484 0.106602099 0.373686465
vt 0.856223564 0.848225285
vn -0.268428976 -0.648044874 0.712729771
v 0.121420443 0.121420443 0.389471632
vt 0.861879201 0.861879201
vn -0.268428976 -0.648044874 0.712729771
v 0.000000000 0.171714438 0.389471632
vt 0.750000000 0.908221084
vn -0.268428976 -0.648044874 0.712729771
f 373/373/373 374/374/374 375/375/375
g wood
v 0.115282484 0.106602099 0.373686465
vt 0.856223564 0.848225285
vn -0.268428976 -0.648044874 0.712729771
v 0.000000000 0.171714438 0.389471632
vt 0.750000000 0.908221084
vn -0.268428976 -0.648044874 0.712729771
v -0.006137959 0.156896093 0.373686465
vt 0.744344363 0.894567168
vn -0.268428976 -0.648044874 0.712729771
f 376/376/376 377/377/377 378/378/378
g wood
v 0.121420443 0.121420443 0.389471632
vt 0.861879201 0.861879201
vn 0.268428976 0.648044874 0.712729771
v 0.127558403 0.136238788 0.373686465
vt 0.867534839 0.875533118
vn 0.268428976 0.648044874 0.712729771
v 0.006137959 0.186532782 0.373686465
vt 0.755655637 0.921875000
vn 0.268428976 0.648044874 0.712729771
f 379/379/379 380/380/380 381/381/381
g wood
v 0.121420443 0.121420443 0.389471632
vt 0.861879201 0.861879201
vn 0.268428976 0.648044874 0.712729771
v 0.006137959 0.186532782 0.373686465
vt 0.755655637 0.921875000
vn 0.268428976 0.648044874 0.712729771
v 0.000000000 0.171714438 0.389471632
vt 0.750000000 0.908221084
vn 0.268428976 0.648044874 0.712729771
f 382/382/382 383/383/383 384/384/384
g wood
v 0.000000000 0.171714438 0.389471632
vt 0.908221084 0.778411417
vn 0.923879533 0.382683432 -0.000000000
v 0.006137959 0.156896093 0.373686465
vt 0.894567168 0.770293869
vn 0.923879533 0.382683432 -0.000000000
v 0.000000000 0.171714438 0.357901298
vt 0.908221084 0.762176321
vn 0.923879533 0.382683432 -0.000000000
f 385/385/385 386/386/386 387/387/387
g wood
v 0.000000000 0.171714438 0.389471632
vt 0.908221084 0.778411417
vn 0.923879533 0.382683432 -0.000000000
v 0.000000000 0.171714438 0.357901298
vt 0.908221084 0.762176321
vn 0.923879533 0.382683432 -0.000000000
v -0.006137959 0.186532782 0.373686465
vt 0.921875000 0.770293869
vn 0.923879533 0.382683432 -0.000000000
f 388/388/388 389/389/389 390/390/390
g wood
v -0.127558403 0.136238788 0.373686465
vt 0.875533118 0.770293869
vn -0.923879533 -0.382683432 0.000000000
v -0.121420443 0.121420443 0.357901298
vt 0.861879201 0.762176321
vn -0.923879533 -0.382683432 0.000000000
v -0.115282484 0.106602099 0.373686465
vt 0.848225285 0.770293869
vn -0.923879533 -0.382683432 0.000000000
f 391/391/391 392/392/392 393/393/393
g wood
v -0.127558403 0.136238788 0.373686465
vt 0.875533118 0.770293869
vn -0.923879533 -0.382683432 -0.000000000
v -0.115282484 0.106602099 0.373686465
vt 0.848225285 0.770293869
vn -0.923879533 -0.382683432 -0.000000000
v -0.121420443 0.121420443 0.389471632
vt 0.861879201 0.778411417
vn -0.923879533 -0.382683432 -0.000000000
f 394/394/394 395/395/395 396/396/396
g wood
v -0.006137959 0.186532782 0.373686465
vt 0.744344363 0.921875000
vn -0.268428976 0.648044874 -0.712729771
v 0.000000000 0.171714438 0.357901298
vt 0.750000000 0.908221084
vn -0.268428976 0.648044874 -0.712729771
v -0.121420443 0.121420443 0.357901298
vt 0.638120799 0.861879201
vn -0.268428976 0.648044874 -0.712729771
f 397/397/397 398/398/398 399/399/399
g wood
v -0.006137959 0.186532782 0.373686465
vt 0.744344363 0.921875000
vn -0.268428976 0.648044874 -0.712729771
v -0.121420443 0.121420443 0.357901298
vt 0.638120799 0.861879201
vn -0.268428976 0.648044874 -0.712729771
v -0.127558403 0.136238788 0.373686465
vt 0.632465161 0.875533118
vn -0.268428976 0.648044874 -0.712729771
f 400/400/400 401/401/401 402/402/402
g wood
v 0.000000000 0.171714438 0.357901298
vt 0.750000000 0.908221084
vn 0.268428976 -0.648044874 -0.712729771
v 0.006137959 0.156896093 0.373686465
vt 0.755655637 0.894567168
vn 0.268428976 -0.648044874 -0.712729771
v -0.115282484 0.106602099 0.373686465
vt 0.643776436 0.848225285
vn 0.268428976 -0.648044874 -0.712729771
f 403/403/403 404/404/404 405/405/405
g wood
v 0.000000000 0.171714438 0.357901298
vt 0.750000000 0.908221084
vn 0.268428976 -0.648044874 -0.712729771
v -0.115282484 0.106602099 0.373686465
vt 0.643776436 0.848225285
vn 0.268428976 -0.648044874 -0.712729771
v -0.121420443 0.121420443 0.357901298
vt 0.638120799 0.861879201
vn 0.268428976 -0.648044874 -0.712729771
f 406/406/406 407/407/407 408/408/408
g wood
v 0.006137959 0.156896093 0.373686465
vt 0.755655637 0.894567168
vn 0.268428976 -0.648044874 0.712729771
v 0.000000000 0.171714438 0.389471632
vt 0.750000000 0.908221084
vn 0.268428976 -0.648044874 0.712729771
v -0.121420443 0.121420443 0.389471632
vt 0.638120799 0.861879201
vn 0.268428976 -0.648044874 0.712729771
f 409/409/409 410/410/410 411/411/411
g wood
v 0.006137959 0.156896093 0.373686465
vt 0.755655637 0.894567168
vn 0.268428976 -0.648044874 0.712729771
v -0.121420443 0.121420443 0.389471632
vt 0.638120799 0.861879201
vn 0.268428976 -0.648044874 0.712729771
v -0.115282484 0.106602099 0.373686465
vt 0.643776436 0.848225285
vn 0.268428976 -0.648044874 0.712729771
f 412/412/412 413/413/413 414/414/414
g wood
v 0.000000000 0.171714438 0.389471632
vt 0.750000000 0.908221084
vn -0.268428976 0.648044874 0.712729771
v -0.006137959 0.186532782 0.373686465
vt 0.744344363 0.921875000
vn -0.268428976 0.648044874 0.712729771
v -0.127558403 0.136238788 0.373686465
vt 0.632465161 0.875533118
vn -0.268428976 0.648044874 0.712729771
f 415/415/415 416/416/416 417/417/417
g wood
v 0.000000000 0.171714438 0.389471632
vt 0.750000000 0.908221084
vn -0.268428976 0.648044874 0.712729771
v -0.127558403 0.136238788 0.373686465
vt 0.632465161 0.875533118
vn -0.268428976 0.648044874 0.712729771
v -0.121420443 0.121420443 0.389471632
vt 0.638120799 0.861879201
vn -0.268428976 0.648044874 0.712729771
f 418/418/418 419/419/419 420/420/420
g wood
v -0.121420443 0.121420443 0.389471632
vt 0.638120799 0.778411417
vn 0.382683432 0.923879533 0.000000000
v -0.106602099 0.115282484 0.373686465
vt 0.651774715 0.770293869
vn 0.382683432 0.923879533 0.000000000
v -0.121420443 0.121420443 0.357901298
vt 0.638120799 0.762176321
vn 0.382683432 0.923879533 0.000000000
f 421/421/421 422/422/422 423/423/423
g wood
v -0.121420443 0.121420443 0.389471632
vt 0.638120799 0.778411417
vn 0.382683432 0.923879533 0.000000000
v -0.121420443 0.121420443 0.357901298
vt 0.638120799 0.762176321
vn 0.382683432 0.923879533 0.000000000
v -0.136238788 0.127558403 0.373686465
vt 0.624466882 0.770293869
vn 0.382683432 0.923879533 0.000000000
f 424/424/424 425/425/425 426/426/426
g wood
v -0.186532782 0.006137959 0.373686465
vt 0.578125000 0.770293869
vn -0.382683432 -0.923879533 0.000000000
v -0.171714438 0.000000000 0.357901298
vt 0.591778916 0.762176321
vn -0.382683432 -0.923879533 0.000000000
v -0.156896093 -0.006137959 0.373686465
vt 0.605432832 0.770293869
vn -0.382683432 -0.923879533 0.000000000
f 427/427/427 428/428/428 429/429/429
g wood
v -0.186532782 0.006137959 0.373686465
vt 0.578125000 0.770293869
vn -0.382683432 -0.923879533 -0.000000000
v -0.156896093 -0.006137959 0.373686465
vt 0.605432832 0.770293869
vn -0.382683432 -0.923879533 -0.000000000
v -0.171714438 0.000000000 0.389471632
vt 0.591778916 0.778411417
vn -0.382683432 -0.923879533 -0.000000000
f 430/430/430 431/431/431 432/432/432
g wood
v -0.136238788 0.127558403 0.373686465
vt 0.624466882 0.867534839
vn -0.648044874 0.268428976 -0.712729771
v -0.121420443 0.121420443 0.357901298
vt 0.638120799 0.861879201
vn -0.648044874 0.268428976 -0.712729771
v -0.171714438 0.000000000 0.357901298
vt 0.591778916 0.750000000
vn -0.648044874 0.268428976 -0.712729771
f 433/433/433 434/434/434 435/435/435
g wood
v -0.136238788 0.127558403 0.373686465
vt 0.624466882 0.867534839
vn -0.648044874 0.268428976 -0.712729771
v -0.171714438 0.000000000 0.357901298
vt 0.591778916 0.750000000
vn -0.648044874 0.268428976 -0.712729771
v -0.186532782 0.006137959 0.373686465
vt 0.578125000 0.755655637
vn -0.648044874 0.268428976 -0.712729771
f 436/436/436 437/437/437 438/438/438
g wood
v -0.121420443 0.121420443 0.357901298
vt 0.638120799 0.861879201
vn 0.648044874 -0.268428976 -0.712729771
v -0.106602099 0.115282484 0.373686465
vt 0.651774715 0.856223564
vn 0.648044874 -0.268428976 -0.712729771
v -0.156896093 -0.006137959 0.373686465
vt 0.605432832 0.744344363
vn 0.648044874 -0.268428976 -0.712729771
f 439/439/439 440/440/440 441/441/441
g wood
v -0.121420443 0.121420443 0.357901298
vt 0.638120799 0.861879201
vn 0.648044874 -0.268428976 -0.712729771
v -0.156896093 -0.006137959 0.373686465
vt 0.605432832 0.744344363
vn 0.648044874 -0.268428976 -0.712729771
v -0.171714438 0.000000000 0.357901298
vt 0.591778916 0.750000000
vn 0.648044874 -0.268428976 -0.712729771
f 442/442/442 443/443/443 444/444/444
g wood
v -0.106602099 0.115282484 0.373686465
vt 0.651774715 0.856223564
vn 0.648044874 -0.268428976 0.712729771
v -0.121420443 0.121420443 0.389471632
vt 0.638120799 0.861879201
vn 0.648044874 -0.268428976 0.712729771
v -0.171714438 0.000000000 0.389471632
vt 0.591778916 0.750000000
vn 0.648044874 -0.268428976 0.712729771
f 445/445/445 446/446/446 447/447/447
g wood
v -0.106602099 0.115282484 0.373686465
vt 0.651774715 0.856223564
vn 0.648044874 -0.268428976 0.712729771
v -0.171714438 0.000000000 0.389471632
vt 0.591778916 0.750000000
vn 0.648044874 -0.268428976 0.712729771
v -0.156896093 -0.006137959 0.373686465
vt 0.605432832 0.744344363
vn 0.648044874 -0.268428976 0.712729771
f 448/448/448 449/449/449 450/450/450
g wood
v -0.121420443 0.121420443 0.389471632
vt 0.638120799 0.861879201
vn -0.648044874 0.268428976 0.712729771
v -0.136238788 0.127558403 0.373686465
vt 0.624466882 0.867534839
vn -0.648044874 0.268428976 0.712729771
v -0.186532782 0.006137959 0.373686465
vt 0.578125000 0.755655637
vn -0.648044874 0.268428976 0.712729771
f 451/451/451 452/452/452 453/453/453
g wood
v -0.121420443 0.121420443 0.389471632
vt 0.638120799 0.861879201
vn -0.648044874 0.268428976 0.712729771
v -0.186532782 0.006137959 0.373686465
vt 0.578125000 0.755655637
vn -0.648044874 0.268428976 0.712729771
v -0.171714438 0.000000000 0.389471632
vt 0.591778916 0.750000000
vn -0.648044874 0.268428976 0.712729771
f 454/454/454 455/455/455 456/456/456
g wood
v -0.171714438 0.000000000 0.389471632
vt 0.591778916 0.778411417
vn -0.382683432 0.923879533 -0.000000000
v -0.156896093 0.006137959 0.373686465
vt 0.605432832 0.770293869
vn -0.382683432 0.923879533 -0.000000000
v -0.171714438 0.000000000 0.357901298
vt 0.591778916 0.762176321
vn -0.382683432 0.923879533 -0.000000000
f 457/457/457 458/458/458 459/459/459
g wood
v -0.171714438 0.000000000 0.389471632
vt 0.591778916 0.778411417
vn -0.382683432 0.923879533 -0.000000000
v -0.171714438 0.000000000 0.357901298
vt 0.591778916 0.762176321
vn -0.382683432 0.923879533 -0.000000000
v -0.186532782 -0.006137959 0.373686465
vt 0.578125000 0.770293869
vn -0.382683432 0.923879533 -0.000000000
f 460/460/460 461/461/461 462/462/462
g wood
v -0.136238788 -0.127558403 0.373686465
vt 0.624466882 0.770293869
vn 0.382683432 -0.923879533 0.000000000
v -0.121420443 -0.121420443 0.357901298
vt 0.638120799 0.762176321
vn 0.382683432 -0.923879533 0.000000000
v -0.106602099 -0.115282484 0.373686465
vt 0.651774715 0.770293869
vn 0.382683432 -0.923879533 0.000000000
f 463/463/463 464/464/464 465/465/465
g wood
v -0.136238788 -0.127558403 0.373686465
vt 0.624466882 0.770293869
vn 0.382683432 -0.923879533 -0.000000000
v -0.106602099 -0.115282484 0.373686465
vt 0.651774715 0.770293869
vn 0.382683432 -0.923879533 -0.000000000
v -0.121420443 -0.121420443 0.389471632
vt 0.638120799 0.778411417
vn 0.382683432 -0.923879533 -0.000000000
f 466/466/466 467/467/467 468/468/468
g wood
v -0.186532782 -0.006137959 0.373686465
vt 0.578125000 0.744344363
vn -0.648044874 -0.268428976 -0.712729771
v -0.171714438 0.000000000 0.357901298
vt 0.591778916 0.750000000
vn -0.648044874 -0.268428976 -0.712729771
v -0.121420443 -0.121420443 0.357901298
vt 0.638120799 0.638120799
vn -0.648044874 -0.268428976 -0.712729771
f 469/469/469 470/470/470 471/471/471
g wood
v -0.186532782 -0.006137959 0.373686465
vt 0.578125000 0.744344363
vn -0.648044874 -0.268428976 -0.712729771
v -0.121420443 -0.121420443 0.357901298
vt 0.638120799 0.638120799
vn -0.648044874 -0.268428976 -0.712729771
v -0.136238788 -0.127558403 0.373686465
vt 0.624466882 0.632465161
vn -0.648044874 -0.268428976 -0.712729771
f 472/472/472 473/473/473 474/474/474
g wood
v -0.171714438 0.000000000 0.357901298
vt 0.591778916 0.750000000
vn 0.648044874 0.268428976 -0.712729771
v -0.156896093 0.006137959 0.373686465
vt 0.605432832 0.755655637
vn 0.648044874 0.268428976 -0.712729771
v -0.106602099 -0.115282484 0.373686465
vt 0.651774715 0.643776436
vn 0.648044874 0.268428976 -0.712729771
f 475/475/475 476/476/476 477/477/477
g wood
v -0.171714438 0.000000000 0.357901298
vt 0.591778916 0.750000000
vn 0.648044874 0.268428976 -0.712729771
v -0.106602099 -0.115282484 0.373686465
vt 0.651774715 0.643776436
vn 0.648044874 0.268428976 -0.712729771
v -0.121420443 -0.121420443 0.357901298
vt 0.638120799 0.638120799
vn 0.648044874 0.268428976 -0.712729771
f 478/478/478 479/479/479 480/480/480
g wood
v -0.156896093 0.006137959 0.373686465
vt 0.605432832 0.755655637
vn 0.648044874 0.268428976 0.712729771
v -0.171714438 0.000000000 0.389471632
vt 0.591778916 0.750000000
vn 0.648044874 0.268428976 0.712729771
v -0.121420443 -0.121420443 0.389471632
vt 0.638120799 0.638120799
vn 0.648044874 0.268428976 0.712729771
f 481/481/481 482/482/482 483/483/483
g wood
v -0.156896093 0.006137959 0.373686465
vt 0.605432832 0.755655637
vn 0.648044874 0.268428976 0.712729771
v -0.121420443 -0.121420443 0.389471632
vt 0.638120799 0.638120799
vn 0.648044874 0.268428976 0.712729771
v -0.106602099 -0.115282484 0.373686465
vt 0.651774715 0.643776436
vn 0.648044874 0.268428976 0.712729771
f 484/484/484 485/485/485 486/486/486
g wood
v -0.171714438 0.000000000 0.389471632
vt 0.591778916 0.750000000
vn -0.648044874 -0.268428976 0.712729771
v -0.186532782 -0.006137959 0.373686465
vt 0.578125000 0.744344363
vn -0.648044874 -0.268428976 0.712729771
v -0.136238788 -0.127558403 0.373686465
vt 0.624466882 0.632465161
vn -0.648044874 -0.268428976 0.712729771
f 487/487/487 488/488/488 489/489/489
g wood
v -0.171714438 0.000000000 0.389471632
vt 0.591778916 0.750000000
vn -0.648044874 -0.268428976 0.712729771
v -0.136238788 -0.127558403 0.373686465
vt 0.624466882 0.632465161
vn -0.648044874 -0.268428976 0.712729771
v -0.121420443 -0.121420443 0.389471632
vt 0.638120799 0.638120799
vn -0.648044874 -0.268428976 0.712729771
f 490/490/490 491/491/491 492/492/492
g wood
v -0.121420443 -0.121420443 0.389471632
vt 0.638120799 0.778411417
vn -0.923879533 0.382683432 0.000000000
v -0.115282484 -0.106602099 0.373686465
vt 0.651774715 0.770293869
vn -0.923879533 0.382683432 0.000000000
v -0.121420443 -0.121420443 0.357901298
vt 0.638120799 0.762176321
vn -0.923879533 0.382683432 0.000000000
f 493/493/493 494/494/494 495/495/495
g wood
v -0.121420443 -0.121420443 0.389471632
vt 0.638120799 0.778411417
vn -0.923879533 0.382683432 0.000000000
v -0.121420443 -0.121420443 0.357901298
vt 0.638120799 0.762176321
vn -0.923879533 0.382683432 0.000000000
v -0.127558403 -0.136238788 0.373686465
vt 0.624466882 0.770293869
vn -0.923879533 0.382683432 0.000000000
f 496/496/496 497/497/497 498/498/498
g wood
v -0.006137959 -0.186532782 0.373686465
vt 0.578125000 0.770293869
vn 0.923879533 -0.382683432 0.000000000
v -0.000000000 -0.171714438 0.357901298
vt 0.591778916 0.762176321
vn 0.923879533 -0.382683432 0.000000000
v 0.006137959 -0.156896093 0.373686465
vt 0.605432832 0.770293869
vn 0.923879533 -0.382683432 0.000000000
f 499/499/499 500/500/500 501/501/501
g wood
v -0.006137959 -0.186532782 0.373686465
vt 0.578125000 0.770293869
vn 0.923879533 -0.382683432 -0.000000000
v 0.006137959 -0.156896093 0.373686465
vt 0.605432832 0.770293869
vn 0.923879533 -0.382683432 -0.000000000
v -0.000000000 -0.171714438 0.389471632
vt 0.591778916 0.778411417
vn 0.923879533 -0.382683432 -0.000000000
f 502/502/502 503/503/503 504/504/504
g wood
v -0.127558403 -0.136238788 0.373686465
vt 0.632465161 0.624466882
vn -0.268428976 -0.648044874 -0.712729771
v -0.121420443 -0.121420443 0.357901298
vt 0.638120799 0.638120799
vn -0.268428976 -0.648044874 -0.712729771
v -0.000000000 -0.171714438 0.357901298
vt 0.750000000 0.591778916
vn -0.268428976 -0.648044874 -0.712729771
f 505/505/505 506/506/506 507/507/507
g wood
v -0.127558403 -0.136238788 0.373686465
vt 0.632465161 0.624466882
vn -0.268428976 -0.648044874 -0.712729771
v -0.000000000 -0.171714438 0.357901298
vt 0.750000000 0.591778916
vn -0.268428976 -0.648044874 -0.712729771
v -0.006137959 -0.186532782 0.373686465
vt 0.744344363 0.578125000
vn -0.268428976 -0.648044874 -0.712729771
f 508/508/508 509/509/509 510/510/510
g wood
v -0.121420443 -0.121420443 0.357901298
vt 0.638120799 0.638120799
vn 0.268428976 0.648044874 -0.712729771
v -0.115282484 -0.106602099 0.373686465
vt 0.643776436 0.651774715
vn 0.268428976 0.648044874 -0.712729771
v 0.006137959 -0.156896093 0.373686465
vt 0.755655637 0.605432832
vn 0.268428976 0.648044874 -0.712729771
f 511/511/511 512/512/512 513/513/513
g wood
v -0.121420443 -0.121420443 0.357901298
vt 0.638120799 0.638120799
vn 0.268428976 0.648044874 -0.712729771
v 0.006137959 -0.156896093 0.373686465
vt 0.755655637 0.605432832
vn 0.268428976 0.648044874 -0.712729771
v -0.000000000 -0.171714438 0.357901298
vt 0.750000000 0.591778916
vn 0.268428976 0.648044874 -0.712729771
f 514/514/514 515/515/515 516/516/516
g wood
v -0.115282484 -0.106602099 0.373686465
vt 0.643776436 0.651774715
vn 0.268428976 0.648044874 0.712729771
v -0.121420443 -0.121420443 0.389471632
vt 0.638120799 0.638120799
vn 0.268428976 0.648044874 0.712729771
v -0.000000000 -0.171714438 0.389471632
vt 0.750000000 0.591778916
vn 0.268428976 0.648044874 0.712729771
f 517/517/517 518/518/518 519/519/519
g wood
v -0.115282484 -0.106602099 0.373686465
vt 0.643776436 0.651774715
vn 0.268428976 0.648044874 0.712729771
v -0.000000000 -0.171714438 0.389471632
vt 0.750000000 0.591778916
vn 0.268428976 0.648044874 0.712729771
v 0.006137959 -0.156896093 0.373686465
vt 0.755655637 0.605432832
vn 0.268428976 0.648044874 0.712729771
f 520/520/520 521/521/521 522/522/522
g wood
v -0.121420443 -0.121420443 0.389471632
vt 0.638120799 0.638120799
vn -0.268428976 -0.648044874 0.712729771
v -0.127558403 -0.136238788 0.373686465
vt 0.632465161 0.624466882
vn -0.268428976 -0.648044874 0.712729771
v -0.006137959 -0.186532782 0.373686465
vt 0.744344363 0.578125000
vn -0.268428976 -0.648044874 0.712729771
f 523/523/523 524/524/524 525/525/525
g wood
v -0.121420443 -0.121420443 0.389471632
vt 0.638120799 0.638120799
vn -0.268428976 -0.648044874 0.712729771
v -0.006137959 -0.186532782 0.373686465
vt 0.744344363 0.578125000
vn -0.268428976 -0.648044874 0.712729771
v -0.000000000 -0.171714438 0.389471632
vt 0.750000000 0.591778916
vn -0.268428976 -0.648044874 0.712729771
f 526/526/526 527/527/527 528/528/528
g wood
v -0.000000000 -0.171714438 0.389471632
vt 0.591778916 0.778411417
vn -0.923879533 -0.382683432 -0.000000000
v -0.006137959 -0.156896093 0.373686465
vt 0.605432832 0.770293869
vn -0.923879533 -0.382683432 -0.000000000
v -0.000000000 -0.171714438 0.357901298
vt 0.591778916 0.762176321
vn -0.923879533 -0.382683432 -0.000000000
f 529/529/529 530/530/530 531/531/531
g wood
v -0.000000000 -0.171714438 0.389471632
vt 0.591778916 0.778411417
vn -0.923879533 -0.382683432 -0.000000000
v -0.000000000 -0.171714438 0.357901298
vt 0.591778916 0.762176321
vn -0.923879533 -0.382683432 -0.000000000
v 0.006137959 -0.186532782 0.373686465
vt 0.578125000 0.770293869
vn -0.923879533 -0.382683432 -0.000000000
f 532/532/532 533/533/533 534/534/534
g wood
v 0.127558403 -0.136238788 0.373686465
vt 0.624466882 0.770293869
vn 0.923879533 0.382683432 0.000000000
v 0.121420443 -0.121420443 0.357901298
vt 0.638120799 0.762176321
vn 0.923879533 0.382683432 0.000000000
v 0.115282484 -0.106602099 0.373686465
vt 0.651774715 0.770293869
vn 0.923879533 0.382683432 0.000000000
f 535/535/535 536/536/536 537/537/537
g wood
v 0.127558403 -0.136238788 0.373686465
vt 0.624466882 0.770293869
vn 0.923879533 0.382683432 -0.000000000
v 0.115282484 -0.106602099 0.373686465
vt 0.651774715 0.770293869
vn 0.923879533 0.382683432 -0.000000000
v 0.121420443 -0.121420443 0.389471632
vt 0.638120799 0.778411417
vn 0.923879533 0.382683432 -0.000000000
f 538/538/538 539/539/539 540/540/540
g wood
v 0.006137959 -0.186532782 0.373686465
vt 0.755655637 0.578125000
vn 0.268428976 -0.648044874 -0.712729771
v -0.000000000 -0.171714438 0.357901298
vt 0.750000000 0.591778916
vn 0.268428976 -0.648044874 -0.712729771
v 0.121420443 -0.121420443 0.357901298
vt 0.861879201 0.638120799
vn 0.268428976 -0.648044874 -0.712729771
f 541/541/541 542/542/542 543/543/543
g wood
v 0.006137959 -0.186532782 0.373686465
vt 0.755655637 0.578125000
vn 0.268428976 -0.648044874 -0.712729771
v 0.121420443 -0.121420443 0.357901298
vt 0.861879201 0.638120799
vn 0.268428976 -0.648044874 -0.712729771
v 0.127558403 -0.136238788 0.373686465
vt 0.867534839 0.624466882
vn 0.268428976 -0.648044874 -0.712729771
f 544/544/544 545/545/545 546/546/546
g wood
v -0.000000000 -0.171714438 0.357901298
vt 0.750000000 0.591778916
vn -0.268428976 0.648044874 -0.712729771
v -0.006137959 -0.156896093 0.373686465
vt 0.744344363 0.605432832
vn -0.268428976 0.648044874 -0.712729771
v 0.115282484 -0.106602099 0.373686465
vt 0.856223564 0.651774715
vn -0.268428976 0.648044874 -0.712729771
f 547/547/547 548/548/548 549/549/549
g wood
v -0.000000000 -0.171714438 0.357901298
vt 0.750000000 0.591778916
vn -0.268428976 0.648044874 -0.712729771
v 0.115282484 -0.106602099 0.373686465
vt 0.856223564 0.651774715
vn -0.268428976 0.648044874 -0.712729771
v 0.121420443 -0.121420443 0.357901298
vt 0.861879201 0.638120799
vn -0.268428976 0.648044874 -0.712729771
f 550/550/550 551/551/551 552/552/552
g wood
v -0.006137959 -0.156896093 0.373686465
vt 0.744344363 0.605432832
vn -0.268428976 0.648044874 0.712729771
v -0.000000000 -0.171714438 0.389471632
vt 0.750000000 0.591778916
vn -0.268428976 0.648044874 0.712729771
v 0.121420443 -0.121420443 0.389471632
vt 0.861879201 0.638120799
vn -0.268428976 0.648044874 0.712729771
f 553/553/553 554/554/554 555/555/555
g wood
v -0.006137959 -0.156896093 0.373686465
vt 0.744344363 0.605432832
vn -0.268428976 0.648044874 0.712729771
v 0.121420443 -0.121420443 0.389471632
vt 0.861879201 0.638120799
vn -0.268428976 0.648044874 0.712729771
v 0.115282484 -0.106602099 0.373686465
vt 0.856223564 0.651774715
vn -0.268428976 0.648044874 0.712729771
f 556/556/556 557/557/557 558/558/558
g wood
v -0.000000000 -0.171714438 0.389471632
vt 0.750000000 0.591778916
vn 0.268428976 -0.648044874 0.712729771
v 0.006137959 -0.186532782 0.373686465
vt 0.755655637 0.578125000
vn 0.268428976 -0.648044874 0.712729771
v 0.127558403 -0.136238788 0.373686465
vt 0.867534839 0.624466882
vn 0.268428976 -0.648044874 0.712729771
f 559/559/559 560/560/560 561/561/561
g wood
v -0.000000000 -0.171714438 0.389471632
vt 0.750000000 0.591778916
vn 0.268428976 -0.648044874 0.712729771
v 0.127558403 -0.136238788 0.373686465
vt 0.867534839 0.624466882
vn 0.268428976 -0.648044874 0.712729771
v 0.121420443 -0.121420443 0.389471632
vt 0.861879201 0.638120799
vn 0.268428976 -0.648044874 0.712729771
f 562/562/562 563/563/563 564/564/564
g wood
v 0.121420443 -0.121420443 0.389471632
vt 0.861879201 0.778411417
vn -0.382683432 -0.923879533 -0.000000000
v 0.106602099 -0.115282484 0.373686465
vt 0.848225285 0.770293869
vn -0.382683432 -0.923879533 -0.000000000
v 0.121420443 -0.121420443 0.357901298
vt 0.861879201 0.762176321
vn -0.382683432 -0.923879533 -0.000000000
f 565/565/565 566/566/566 567/567/567
g wood
v 0.121420443 -0.121420443 0.389471632
vt 0.861879201 0.778411417
vn -0.382683432 -0.923879533 -0.000000000
v 0.121420443 -0.121420443 0.357901298
vt 0.861879201 0.762176321
vn -0.382683432 -0.923879533 -0.000000000
v 0.136238788 -0.127558403 0.373686465
vt 0.875533118 0.770293869
vn -0.382683432 -0.923879533 -0.000000000
f 568/568/568 569/569/569 570/570/570
g wood
v 0.186532782 -0.006137959 0.373686465
vt 0.921875000 0.770293869
vn 0.382683432 0.923879533 0.000000000
v 0.171714438 -0.000000000 0.357901298
vt 0.908221084 0.762176321
vn 0.382683432 0.923879533 0.000000000
v 0.156896093 0.006137959 0.373686465
vt 0.894567168 0.770293869
vn 0.382683432 0.923879533 0.000000000
f 571/571/571 572/572/572 573/573/573
g wood
v 0.186532782 -0.006137959 0.373686465
vt 0.921875000 0.770293869
vn 0.382683432 0.923879533 -0.000000000
v 0.156896093 0.006137959 0.373686465
vt 0.894567168 0.770293869
vn 0.382683432 0.923879533 -0.000000000
v 0.171714438 0.000000000 0.389471632
vt 0.908221084 0.778411417
vn 0.382683432 0.923879533 -0.000000000
f 574/574/574 575/575/575 576/576/576
g wood
v 0.136238788 -0.127558403 0.373686465
vt 0.875533118 0.632465161
vn 0.648044874 -0.268428976 -0.712729771
v 0.121420443 -0.121420443 0.357901298
vt 0.861879201 0.638120799
vn 0.648044874 -0.268428976 -0.712729771
v 0.171714438 -0.000000000 0.357901298
vt 0.908221084 0.750000000
vn 0.648044874 -0.268428976 -0.712729771
f 577/577/577 578/578/578 579/579/579
g wood
v 0.136238788 -0.127558403 0.373686465
vt 0.875533118 0.632465161
vn 0.648044874 -0.268428976 -0.712729771
v 0.171714438 -0.000000000 0.357901298
vt 0.908221084 0.750000000
vn 0.648044874 -0.268428976 -0.712729771
v 0.186532782 -0.006137959 0.373686465
vt 0.921875000 0.744344363
vn 0.648044874 -0.268428976 -0.712729771
f 580/580/580 581/581/581 582/582/582
g wood
v 0.121420443 -0.121420443 0.357901298
vt 0.861879201 0.638120799
vn -0.648044874 0.268428976 -0.712729771
v 0.106602099 -0.115282484 0.373686465
vt 0.848225285 0.643776436
vn -0.648044874 0.268428976 -0.712729771
v 0.156896093 0.006137959 0.373686465
vt 0.894567168 0.755655637
vn -0.648044874 0.268428976 -0.712729771
f 583/583/583 584/584/584 585/585/585
g wood
v 0.121420443 -0.121420443 0.357901298
vt 0.861879201 0.638120799
vn -0.648044874 0.268428976 -0.712729771
v 0.156896093 0.006137959 0.373686465
vt 0.894567168 0.755655637
vn -0.648044874 0.268428976 -0.712729771
v 0.171714438 -0.000000000 0.357901298
vt 0.908221084 0.750000000
vn -0.648044874 0.268428976 -0.712729771
f 586/586/586 587/587/587 588/588/588
g wood
v 0.106602099 -0.115282484 0.373686465
vt 0.848225285 0.643776436
vn -0.648044874 0.268428976 0.712729771
v 0.121420443 -0.121420443 0.389471632
vt 0.861879201 0.638120799
vn -0.648044874 0.268428976 0.712729771
v 0.171714438 0.000000000 0.389471632
vt 0.908221084 0.750000000
vn -0.648044874 0.268428976 0.712729771
f 589/589/589 590/590/590 591/591/591
g wood
v 0.106602099 -0.115282484 0.373686465
vt 0.848225285 0.643776436
vn -0.648044874 0.268428976 0.712729771
v 0.171714438 0.000000000 0.389471632
vt 0.908221084 0.750000000
vn -0.648044874 0.268428976 0.712729771
v 0.156896093 0.006137959 0.373686465
vt 0.894567168 0.755655637
vn -0.648044874 0.268428976 0.712729771
f 592/592/592 593/593/593 594/594/594
g wood
v 0.121420443 -0.121420443 0.389471632
vt 0.861879201 0.638120799
vn 0.648044874 -0.268428976 0.712729771
v 0.136238788 -0.127558403 0.373686465
vt 0.875533118 0.632465161
vn 0.648044874 -0.268428976 0.712729771
v 0.186532782 -0.006137959 0.373686465
vt 0.921875000 0.744344363
vn 0.648044874 -0.268428976 0.712729771
f 595/595/595 596/596/596 597/597/597
g wood
v 0.121420443 -0.121420443 0.389471632
vt 0.861879201 0.638120799
vn 0.648044874 -0.268428976 0.712729771
v 0.186532782 -0.006137959 0.373686465
vt 0.921875000 0.744344363
vn 0.648044874 -0.268428976 0.712729771
v 0.171714438 0.000000000 0.389471632
vt 0.908221084 0.750000000
vn 0.648044874 -0.268428976 0.712729771
f 598/598/598 599/599/599 600/600/600
