# Authored through Blender MCP; native tiles are the scale reference.
mtllib pz_house_makeshift_radio.mtl
usemtl native
v -0.0992000 -0.1289000 0.0000000
vt 0.725634694 0.001846241
vn -0.0000000 -0.0000000 -0.9999999
v -0.0992000 0.1193000 0.0000000
vt 0.993261635 0.001846261
vn -0.0000000 -0.0000000 -0.9999999
v 0.3740000 0.1193000 0.0000000
vt 0.993261635 0.498153746
vn -0.0000000 -0.0000000 -0.9999999
o pz_house_makeshift_radio_|_1_caixa_painel_nativo
f 1/1/1 2/2/2 3/3/3
v -0.0992000 -0.1289000 0.0000000
vt 0.725634694 0.001846241
vn -0.0000000 0.0000000 -0.9999999
v 0.3740000 0.1193000 0.0000000
vt 0.993261635 0.498153746
vn -0.0000000 0.0000000 -0.9999999
v 0.3740000 -0.1289000 0.0000000
vt 0.725634634 0.498153746
vn -0.0000000 0.0000000 -0.9999999
f 4/4/4 5/5/5 6/6/6
v -0.0992000 -0.1289000 0.3322000
vt 0.001846248 0.998153687
vn 0.0000000 0.0000000 0.9999999
v 0.3740000 -0.1289000 0.3322000
vt 0.001846286 0.501846254
vn 0.0000000 0.0000000 0.9999999
v 0.3740000 0.1193000 0.3322000
vt 0.269473195 0.501846254
vn 0.0000000 0.0000000 0.9999999
f 7/7/7 8/8/8 9/9/9
v -0.0992000 -0.1289000 0.3322000
vt 0.001846248 0.998153687
vn -0.0000000 0.0000000 0.9999999
v 0.3740000 0.1193000 0.3322000
vt 0.269473195 0.501846254
vn -0.0000000 0.0000000 0.9999999
v -0.0992000 0.1193000 0.3322000
vt 0.269473195 0.998153746
vn -0.0000000 0.0000000 0.9999999
f 10/10/10 11/11/11 12/12/12
v -0.0992000 -0.1289000 0.0000000
vt 0.360047966 0.001846279
vn -0.0000000 -1.0000000 -0.0000000
v 0.3740000 -0.1289000 0.0000000
vt 0.360047907 0.498153776
vn -0.0000000 -1.0000000 -0.0000000
v 0.3740000 -0.1289000 0.3322000
vt 0.001846208 0.498153716
vn -0.0000000 -1.0000000 -0.0000000
f 13/13/13 14/14/14 15/15/15
v -0.0992000 -0.1289000 0.0000000
vt 0.360047966 0.001846279
vn 0.0000000 -1.0000000 -0.0000000
v 0.3740000 -0.1289000 0.3322000
vt 0.001846208 0.498153716
vn 0.0000000 -1.0000000 -0.0000000
v -0.0992000 -0.1289000 0.3322000
vt 0.001846238 0.001846252
vn 0.0000000 -1.0000000 -0.0000000
f 16/16/16 17/17/17 18/18/18
v 0.3740000 -0.1289000 0.0000000
vt 0.812111914 0.850268304
vn 1.0000000 0.0000000 0.0000000
v 0.3740000 0.1193000 0.0000000
vt 0.544485033 0.850268304
vn 1.0000000 0.0000000 0.0000000
v 0.3740000 0.1193000 0.3322000
vt 0.544485033 0.501846254
vn 1.0000000 0.0000000 0.0000000
f 19/19/19 20/20/20 21/21/21
v 0.3740000 -0.1289000 0.0000000
vt 0.812111914 0.850268304
vn 1.0000000 -0.0000000 0.0000000
v 0.3740000 0.1193000 0.3322000
vt 0.544485033 0.501846254
vn 1.0000000 -0.0000000 0.0000000
v 0.3740000 -0.1289000 0.3322000
vt 0.812111914 0.501846254
vn 1.0000000 -0.0000000 0.0000000
f 22/22/22 23/23/23 24/24/24
v 0.3740000 0.1193000 0.0000000
vt 0.721942127 0.001846269
vn -0.0000000 1.0000000 0.0000000
v -0.0992000 0.1193000 0.0000000
vt 0.721942127 0.498153716
vn -0.0000000 1.0000000 0.0000000
v -0.0992000 0.1193000 0.3322000
vt 0.363740444 0.498153687
vn -0.0000000 1.0000000 0.0000000
f 25/25/25 26/26/26 27/27/27
v 0.3740000 0.1193000 0.0000000
vt 0.721942127 0.001846269
vn 0.0000000 1.0000000 0.0000000
v -0.0992000 0.1193000 0.3322000
vt 0.363740444 0.498153687
vn 0.0000000 1.0000000 0.0000000
v 0.3740000 0.1193000 0.3322000
vt 0.363740504 0.001846243
vn 0.0000000 1.0000000 0.0000000
f 28/28/28 29/29/29 30/30/30
v -0.0992000 0.1193000 0.0000000
vt 0.540792584 0.850268424
vn -1.0000000 0.0000000 0.0000000
v -0.0992000 -0.1289000 0.0000000
vt 0.273165703 0.850268424
vn -1.0000000 0.0000000 0.0000000
v -0.0992000 -0.1289000 0.3322000
vt 0.273165703 0.501846254
vn -1.0000000 0.0000000 0.0000000
f 31/31/31 32/32/32 33/33/33
v -0.0992000 0.1193000 0.0000000
vt 0.540792584 0.850268424
vn -1.0000000 -0.0000000 -0.0000000
v -0.0992000 -0.1289000 0.3322000
vt 0.273165703 0.501846254
vn -1.0000000 -0.0000000 -0.0000000
v -0.0992000 0.1193000 0.3322000
vt 0.540792584 0.501846254
vn -1.0000000 -0.0000000 -0.0000000
f 34/34/34 35/35/35 36/36/36
v -0.0930000 -0.0000000 0.4800000
vt 0.820254266 0.809461296
vn 0.0000000 0.0000000 0.9999999
v -0.0870000 0.0000000 0.4800000
vt 0.815804422 0.804886520
vn 0.0000000 0.0000000 0.9999999
v -0.0900000 0.0030000 0.4800000
vt 0.820254266 0.804886520
vn 0.0000000 0.0000000 0.9999999
o pz_house_makeshift_radio_|_2_antena
f 37/37/37 38/38/38 39/39/39
v -0.0930000 -0.0000000 0.4800000
vt 0.820254266 0.809461296
vn 0.0000000 0.0000000 1.0000000
v -0.0900000 -0.0030000 0.4800000
vt 0.815804422 0.809461296
vn 0.0000000 0.0000000 1.0000000
v -0.0870000 0.0000000 0.4800000
vt 0.815804422 0.804886520
vn 0.0000000 0.0000000 1.0000000
f 40/40/40 41/41/41 42/42/42
v -0.0870000 0.0000000 0.2400000
vt 0.815804422 0.813153803
vn -0.0000000 0.0000000 1.0000000
v -0.0900000 0.0030000 0.2400000
vt 0.820254266 0.813153803
vn -0.0000000 0.0000000 1.0000000
v -0.0930000 -0.0000000 0.2400000
vt 0.820254266 0.817728579
vn -0.0000000 0.0000000 1.0000000
f 43/43/43 44/44/44 45/45/45
v -0.0900000 -0.0030000 0.2400000
vt 0.815804422 0.817728579
vn -0.0000000 0.0000000 1.0000000
v -0.0870000 0.0000000 0.2400000
vt 0.815804422 0.813153803
vn -0.0000000 0.0000000 1.0000000
v -0.0930000 -0.0000000 0.2400000
vt 0.820254266 0.817728579
vn -0.0000000 0.0000000 1.0000000
f 46/46/46 47/47/47 48/48/48
v -0.0900000 -0.0030000 0.2400000
vt 0.815804422 0.801194131
vn -0.7071068 -0.7071067 -0.0000000
v -0.0900000 -0.0030000 0.4800000
vt 0.815804422 0.501846313
vn -0.7071068 -0.7071067 -0.0000000
v -0.0930000 -0.0000000 0.4800000
vt 0.819651306 0.501846313
vn -0.7071068 -0.7071067 -0.0000000
f 49/49/49 50/50/50 51/51/51
v -0.0900000 -0.0030000 0.2400000
vt 0.815804422 0.801194131
vn -0.7071068 -0.7071067 0.0000000
v -0.0930000 -0.0000000 0.4800000
vt 0.819651306 0.501846313
vn -0.7071068 -0.7071067 0.0000000
v -0.0930000 -0.0000000 0.2400000
vt 0.819651306 0.801194131
vn -0.7071068 -0.7071067 0.0000000
f 52/52/52 53/53/53 54/54/54
v -0.0870000 0.0000000 0.2400000
vt 0.834730089 0.801192939
vn 0.7071070 -0.7071065 0.0000000
v -0.0870000 0.0000000 0.4800000
vt 0.834730089 0.501846313
vn 0.7071070 -0.7071065 0.0000000
v -0.0900000 -0.0030000 0.4800000
vt 0.838576913 0.501846313
vn 0.7071070 -0.7071065 0.0000000
f 55/55/55 56/56/56 57/57/57
v -0.0870000 0.0000000 0.2400000
vt 0.834730089 0.801192939
vn 0.7071070 -0.7071065 0.0000000
v -0.0900000 -0.0030000 0.4800000
vt 0.838576913 0.501846313
vn 0.7071070 -0.7071065 0.0000000
v -0.0900000 -0.0030000 0.2400000
vt 0.838576913 0.801192939
vn 0.7071070 -0.7071065 0.0000000
f 58/58/58 59/59/59 60/60/60
v -0.0900000 0.0030000 0.2400000
vt 0.827190638 0.801192939
vn 0.7071069 0.7071067 0.0000000
v -0.0900000 0.0030000 0.4800000
vt 0.827190638 0.501846313
vn 0.7071069 0.7071067 0.0000000
v -0.0870000 0.0000000 0.4800000
vt 0.831037581 0.501846313
vn 0.7071069 0.7071067 0.0000000
f 61/61/61 62/62/62 63/63/63
v -0.0900000 0.0030000 0.2400000
vt 0.827190638 0.801192939
vn 0.7071069 0.7071067 -0.0000000
v -0.0870000 0.0000000 0.4800000
vt 0.831037581 0.501846313
vn 0.7071069 0.7071067 -0.0000000
v -0.0870000 0.0000000 0.2400000
vt 0.831037581 0.801192939
vn 0.7071069 0.7071067 -0.0000000
f 64/64/64 65/65/65 66/66/66
v -0.0930000 -0.0000000 0.2400000
vt 0.819651306 0.801194131
vn -0.7071070 0.7071065 0.0000000
v -0.0930000 -0.0000000 0.4800000
vt 0.819651306 0.501846313
vn -0.7071070 0.7071065 0.0000000
v -0.0900000 0.0030000 0.4800000
vt 0.823498130 0.501846313
vn -0.7071070 0.7071065 0.0000000
f 67/67/67 68/68/68 69/69/69
v -0.0930000 -0.0000000 0.2400000
vt 0.819651306 0.801194131
vn -0.7071070 0.7071065 0.0000000
v -0.0900000 0.0030000 0.4800000
vt 0.823498130 0.501846313
vn -0.7071070 0.7071065 0.0000000
v -0.0900000 0.0030000 0.2400000
vt 0.823498130 0.801194131
vn -0.7071070 0.7071065 0.0000000
f 70/70/70 71/71/71 72/72/72
