# Authored through Blender MCP; native tiles are the scale reference.
mtllib pz_house_bath_foot.mtl
usemtl native
v 0.5000000 0.4299999 0.0250000
vt 0.002642290 0.401471853
vn 0.0000000 0.0000000 -1.0000000
v 0.4900145 -0.5000000 0.0250000
vt 0.002642320 0.006859575
vn 0.0000000 0.0000000 -1.0000000
v -0.3900145 -0.5000001 0.0250000
vt 0.370807141 0.002850685
vn 0.0000000 0.0000000 -1.0000000
o pz_house_bath_foot_|_1_parte_1
f 1/1/1 2/2/2 3/3/3
v -0.3900145 -0.5000001 0.0250000
vt 0.370807141 0.002850685
vn 0.0000000 0.0000000 -1.0000000
v -0.3794975 0.4794974 0.0250000
vt 0.370807081 0.418465525
vn 0.0000000 0.0000000 -1.0000000
v -0.3300000 0.5000000 0.0250000
vt 0.350191593 0.427389562
vn 0.0000000 0.0000000 -1.0000000
f 4/4/4 5/5/5 6/6/6
v -0.3300000 0.5000000 0.0250000
vt 0.350191593 0.427389562
vn 0.0000000 0.0000000 -1.0000000
v 0.4794975 0.4794974 0.0250000
vt 0.011441961 0.422378600
vn 0.0000000 0.0000000 -1.0000000
v 0.5000000 0.4299999 0.0250000
vt 0.002642290 0.401471853
vn 0.0000000 0.0000000 -1.0000000
f 7/7/7 8/8/8 9/9/9
v -0.3900145 -0.5000001 0.0250000
vt 0.370807141 0.002850685
vn -0.0000000 0.0000000 -1.0000000
v -0.3300000 0.5000000 0.0250000
vt 0.350191593 0.427389562
vn -0.0000000 0.0000000 -1.0000000
v 0.5000000 0.4299999 0.0250000
vt 0.002642290 0.401471853
vn -0.0000000 0.0000000 -1.0000000
f 10/10/10 11/11/11 12/12/12
v 0.5000000 0.4299999 0.0250000
vt 0.823957264 0.482072234
vn 0.9238795 0.3826836 0.0000000
v 0.4794975 0.4794974 0.0250000
vt 0.845989645 0.482688785
vn 0.9238795 0.3826836 0.0000000
v 0.4794975 0.4794974 0.5500000
vt 0.844191909 0.703160226
vn 0.9238795 0.3826836 0.0000000
f 13/13/13 14/14/14 15/15/15
v 0.5000000 0.4299999 0.0250000
vt 0.823957264 0.482072234
vn 0.9238795 0.3826836 0.0000000
v 0.4794975 0.4794974 0.5500000
vt 0.844191909 0.703160226
vn 0.9238795 0.3826836 0.0000000
v 0.5000000 0.4299999 0.5500000
vt 0.822159648 0.702543676
vn 0.9238795 0.3826836 0.0000000
f 16/16/16 17/17/17 18/18/18
v 0.4794975 0.4794974 0.0250000
vt 0.384812266 0.709608138
vn 0.0253194 0.9996794 0.0000000
v -0.3300000 0.5000000 0.0250000
vt 0.724624813 0.709608138
vn 0.0253194 0.9996794 0.0000000
v -0.3300000 0.5000000 0.5500000
vt 0.724624813 0.931687176
vn 0.0253194 0.9996794 0.0000000
f 19/19/19 20/20/20 21/21/21
v 0.4794975 0.4794974 0.0250000
vt 0.384812266 0.709608138
vn 0.0253194 0.9996794 0.0000000
v -0.3300000 0.5000000 0.5500000
vt 0.724624813 0.931687176
vn 0.0253194 0.9996794 0.0000000
v 0.4794975 0.4794974 0.5500000
vt 0.384812206 0.931687176
vn 0.0253194 0.9996794 0.0000000
f 22/22/22 23/23/23 24/24/24
v -0.3300000 0.5000000 0.0250000
vt 0.724624813 0.709608138
vn -0.3826842 0.9238792 0.0000000
v -0.3794975 0.4794974 0.0250000
vt 0.747107744 0.709608138
vn -0.3826842 0.9238792 0.0000000
v -0.3794975 0.4794974 0.5500000
vt 0.747107744 0.931687176
vn -0.3826842 0.9238792 0.0000000
f 25/25/25 26/26/26 27/27/27
v -0.3300000 0.5000000 0.0250000
vt 0.724624813 0.709608138
vn -0.3826842 0.9238792 0.0000000
v -0.3794975 0.4794974 0.5500000
vt 0.747107744 0.931687176
vn -0.3826842 0.9238792 0.0000000
v -0.3300000 0.5000000 0.5500000
vt 0.724624813 0.931687176
vn -0.3826842 0.9238792 0.0000000
f 28/28/28 29/29/29 30/30/30
v 0.4900145 -0.5000000 0.0250000
vt 0.430202246 0.482688725
vn 0.9999424 -0.0107365 0.0000000
v 0.5000000 0.4299999 0.0250000
vt 0.823957264 0.482072234
vn 0.9999424 -0.0107365 0.0000000
v 0.5000000 0.4299999 0.5500000
vt 0.822159648 0.702543676
vn 0.9999424 -0.0107365 0.0000000
f 31/31/31 32/32/32 33/33/33
v 0.4900145 -0.5000000 0.0250000
vt 0.430202246 0.482688725
vn 0.9999424 -0.0107365 0.0000000
v 0.5000000 0.4299999 0.5500000
vt 0.822159648 0.702543676
vn 0.9999424 -0.0107365 0.0000000
v 0.4900145 -0.5000000 0.5500000
vt 0.428404540 0.703160226
vn 0.9999424 -0.0107365 0.0000000
f 34/34/34 35/35/35 36/36/36
v 0.5000000 0.4299999 0.5500000
vt 0.744910300 0.402570605
vn -0.0000000 0.0000000 0.9999999
v 0.4794975 0.4794974 0.5500000
vt 0.736110628 0.423477292
vn -0.0000000 0.0000000 0.9999999
v 0.3857107 0.3507106 0.5500000
vt 0.697452903 0.368410289
vn -0.0000000 0.0000000 0.9999999
f 37/37/37 38/38/38 39/39/39
v 0.5000000 0.4299999 0.5500000
vt 0.744910300 0.402570605
vn 0.0000000 -0.0000000 1.0000000
v 0.3857107 0.3507106 0.5500000
vt 0.697452903 0.368410289
vn 0.0000000 -0.0000000 1.0000000
v 0.4150000 0.2800000 0.5500000
vt 0.710023880 0.338543624
vn 0.0000000 -0.0000000 1.0000000
f 40/40/40 41/41/41 42/42/42
v 0.4794975 0.4794974 0.5500000
vt 0.736110628 0.423477292
vn -0.0000000 -0.0000000 1.0000000
v -0.3300000 0.5000000 0.5500000
vt 0.397361040 0.428488255
vn -0.0000000 -0.0000000 1.0000000
v -0.2150000 0.3800000 0.5500000
vt 0.446010888 0.378100276
vn -0.0000000 -0.0000000 1.0000000
f 43/43/43 44/44/44 45/45/45
v 0.4794975 0.4794974 0.5500000
vt 0.736110628 0.423477292
vn 0.0000000 -0.0000000 1.0000000
v -0.2150000 0.3800000 0.5500000
vt 0.446010888 0.378100276
vn 0.0000000 -0.0000000 1.0000000
v 0.3857107 0.3507106 0.5500000
vt 0.697452903 0.368410289
vn 0.0000000 -0.0000000 1.0000000
f 46/46/46 47/47/47 48/48/48
v -0.3300000 0.5000000 0.5500000
vt 0.397361040 0.428488255
vn 0.0000000 -0.0000000 1.0000000
v -0.3794975 0.4794974 0.5500000
vt 0.376745611 0.419564217
vn 0.0000000 -0.0000000 1.0000000
v -0.2857107 0.3507106 0.5500000
vt 0.416560233 0.365351677
vn 0.0000000 -0.0000000 1.0000000
f 49/49/49 50/50/50 51/51/51
v -0.3300000 0.5000000 0.5500000
vt 0.397361040 0.428488255
vn 0.0000000 0.0000000 0.9999999
v -0.2857107 0.3507106 0.5500000
vt 0.416560233 0.365351677
vn 0.0000000 0.0000000 0.9999999
v -0.2150000 0.3800000 0.5500000
vt 0.446010888 0.378100276
vn 0.0000000 0.0000000 0.9999999
f 52/52/52 53/53/53 54/54/54
v 0.4900145 -0.5000000 0.5500000
vt 0.744910300 0.007958367
vn -0.0000000 0.0000000 1.0000000
v 0.5000000 0.4299999 0.5500000
vt 0.744910300 0.402570605
vn -0.0000000 0.0000000 1.0000000
v 0.4150000 0.2800000 0.5500000
vt 0.710023880 0.338543624
vn -0.0000000 0.0000000 1.0000000
f 55/55/55 56/56/56 57/57/57
v 0.4900145 -0.5000000 0.5500000
vt 0.744910300 0.007958367
vn -0.0000000 0.0000000 1.0000000
v 0.4150000 0.2800000 0.5500000
vt 0.710023880 0.338543624
vn -0.0000000 0.0000000 1.0000000
v 0.4009904 -0.5000000 0.5500000
vt 0.707666516 0.007552827
vn -0.0000000 0.0000000 1.0000000
f 58/58/58 59/59/59 60/60/60
v 0.4150000 0.2800000 0.5500000
vt 0.751038253 0.034401454
vn -0.8666897 -0.3589945 0.3463694
v 0.3857107 0.3507106 0.5500000
vt 0.753448427 0.003017463
vn -0.8666897 -0.3589945 0.3463694
v 0.2907107 0.1507107 0.1050000
vt 0.944871485 0.087884881
vn -0.8666897 -0.3589945 0.3463694
f 61/61/61 62/62/62 63/63/63
v 0.4150000 0.2800000 0.5500000
vt 0.751038253 0.034401454
vn -0.8666897 -0.3589945 0.3463694
v 0.2907107 0.1507107 0.1050000
vt 0.944871485 0.087884881
vn -0.8666897 -0.3589945 0.3463694
v 0.3200000 0.0800000 0.1050000
vt 0.942461312 0.119268902
vn -0.8666897 -0.3589945 0.3463694
f 64/64/64 65/65/65 66/66/66
v 0.3857107 0.3507106 0.5500000
vt 0.336198419 0.903121352
vn -0.0446003 -0.9147313 0.4015938
v -0.2150000 0.3800000 0.5500000
vt 0.072865173 0.903121352
vn -0.0446003 -0.9147313 0.4015938
v -0.1200000 0.1799999 0.1050000
vt 0.116442271 0.703113914
vn -0.0446003 -0.9147313 0.4015938
f 67/67/67 68/68/68 69/69/69
v 0.3857107 0.3507106 0.5500000
vt 0.336198419 0.903121352
vn -0.0645379 -0.9049879 0.4205137
v -0.1200000 0.1799999 0.1050000
vt 0.116442271 0.703113914
vn -0.0645379 -0.9049879 0.4205137
v 0.2907107 0.1507107 0.1050000
vt 0.296543479 0.702695668
vn -0.0645379 -0.9049879 0.4205137
f 70/70/70 71/71/71 72/72/72
v -0.2150000 0.3800000 0.5500000
vt 0.072865173 0.903121352
vn 0.3427036 -0.8273585 0.4450079
v -0.2857107 0.3507106 0.5500000
vt 0.042073332 0.901643693
vn 0.3427036 -0.8273585 0.4450079
v -0.1907107 0.1507107 0.1050000
vt 0.085650429 0.701636195
vn 0.3427036 -0.8273585 0.4450079
f 73/73/73 74/74/74 75/75/75
v -0.2150000 0.3800000 0.5500000
vt 0.072865173 0.903121352
vn 0.3427024 -0.8273589 0.4450080
v -0.1907107 0.1507107 0.1050000
vt 0.085650429 0.701636195
vn 0.3427024 -0.8273589 0.4450080
v -0.1200000 0.1799999 0.1050000
vt 0.116442271 0.703113914
vn 0.3427024 -0.8273589 0.4450080
f 76/76/76 77/77/77 78/78/78
v 0.4009904 -0.5000000 0.5500000
vt 0.751480520 0.364764303
vn -0.9793966 0.0175910 0.2011786
v 0.4150000 0.2800000 0.5500000
vt 0.751038253 0.034401454
vn -0.9793966 0.0175910 0.2011786
v 0.3200000 0.0800000 0.1050000
vt 0.942461312 0.119268902
vn -0.9793966 0.0175910 0.2011786
f 79/79/79 80/80/80 81/81/81
v 0.4009904 -0.5000000 0.5500000
vt 0.751480520 0.364764303
vn -0.9777907 0.0232701 0.2082883
v 0.3200000 0.0800000 0.1050000
vt 0.942461312 0.119268902
vn -0.9777907 0.0232701 0.2082883
v 0.3061967 -0.5000000 0.1050000
vt 0.943061709 0.364764363
vn -0.9777907 0.0232701 0.2082883
f 82/82/82 83/83/83 84/84/84
v -0.3794975 0.4794974 0.5500000
vt 0.376745611 0.419564217
vn 0.0000000 -0.0000000 1.0000000
v -0.3900145 -0.5000001 0.5500000
vt 0.376745552 0.003949447
vn 0.0000000 -0.0000000 1.0000000
v -0.3009904 -0.5000000 0.5500000
vt 0.413989216 0.004355036
vn 0.0000000 -0.0000000 1.0000000
f 85/85/85 86/86/86 87/87/87
v -0.3794975 0.4794974 0.5500000
vt 0.376745611 0.419564217
vn 0.0000000 0.0000000 1.0000000
v -0.3009904 -0.5000000 0.5500000
vt 0.413989216 0.004355036
vn 0.0000000 0.0000000 1.0000000
v -0.2857107 0.3507106 0.5500000
vt 0.416560233 0.365351677
vn 0.0000000 0.0000000 1.0000000
f 88/88/88 89/89/89 90/90/90
v -0.2857107 0.3507106 0.5500000
vt 0.434520274 0.366961777
vn 0.9779046 -0.0175642 0.2083126
v -0.3009904 -0.5000000 0.5500000
vt 0.434674710 0.005823007
vn 0.9779046 -0.0175642 0.2083126
v -0.2061968 -0.5000000 0.1050000
vt 0.625153303 0.002982184
vn 0.9779046 -0.0175642 0.2083126
f 91/91/91 92/92/92 93/93/93
v -0.2857107 0.3507106 0.5500000
vt 0.434520274 0.366961777
vn 0.9755180 -0.0232161 0.2186909
v -0.2061968 -0.5000000 0.1050000
vt 0.625153303 0.002982184
vn 0.9755180 -0.0232161 0.2186909
v -0.1907107 0.1507107 0.1050000
vt 0.625153303 0.279023528
vn 0.9755180 -0.0232161 0.2186909
f 94/94/94 95/95/95 96/96/96
v 0.3061967 -0.5000000 0.1050000
vt 0.772307515 0.992436111
vn 0.0000000 0.0000000 1.0000000
v 0.3200000 0.0800000 0.1050000
vt 0.772307515 0.746278226
vn 0.0000000 0.0000000 1.0000000
v 0.2907107 0.1507107 0.1050000
vt 0.785261929 0.716580570
vn 0.0000000 0.0000000 1.0000000
f 97/97/97 98/98/98 99/99/99
v 0.2907107 0.1507107 0.1050000
vt 0.785261929 0.716580570
vn -0.0000000 0.0000000 1.0000000
v -0.1200000 0.1799999 0.1050000
vt 0.957337677 0.708302975
vn -0.0000000 0.0000000 1.0000000
v -0.1907107 0.1507107 0.1050000
vt 0.986621678 0.721440315
vn -0.0000000 0.0000000 1.0000000
f 100/100/100 101/101/101 102/102/102
v -0.1907107 0.1507107 0.1050000
vt 0.986621678 0.721440315
vn 0.0000000 -0.0000000 1.0000000
v -0.2061968 -0.5000000 0.1050000
vt 0.986621678 0.997608542
vn 0.0000000 -0.0000000 1.0000000
v 0.3061967 -0.5000000 0.1050000
vt 0.772307515 0.992436111
vn 0.0000000 -0.0000000 1.0000000
f 103/103/103 104/104/104 105/105/105
v 0.2907107 0.1507107 0.1050000
vt 0.785261929 0.716580570
vn 0.0000000 -0.0000000 1.0000000
v -0.1907107 0.1507107 0.1050000
vt 0.986621678 0.721440315
vn 0.0000000 -0.0000000 1.0000000
v 0.3061967 -0.5000000 0.1050000
vt 0.772307515 0.992436111
vn 0.0000000 -0.0000000 1.0000000
f 106/106/106 107/107/107 108/108/108
v -0.3794975 0.4794974 0.0250000
vt 0.008413756 0.435259163
vn -0.9999424 0.0107365 0.0000000
v -0.3900145 -0.5000001 0.0250000
vt 0.426290840 0.435259193
vn -0.9999424 0.0107365 0.0000000
v -0.3900145 -0.5000001 0.5500000
vt 0.421011448 0.653719306
vn -0.9999424 0.0107365 0.0000000
f 109/109/109 110/110/110 111/111/111
v -0.3794975 0.4794974 0.0250000
vt 0.008413756 0.435259163
vn -0.9999424 0.0107365 0.0000000
v -0.3900145 -0.5000001 0.5500000
vt 0.421011448 0.653719306
vn -0.9999424 0.0107365 0.0000000
v -0.3794975 0.4794974 0.5500000
vt 0.003134318 0.653719306
vn -0.9999424 0.0107365 0.0000000
f 112/112/112 113/113/113 114/114/114
v 0.4900145 -0.5000000 0.5500000
vt 0.377948642 0.877851546
vn 0.0000000 -1.0000000 0.0000000
v 0.4009904 -0.5000000 0.5500000
vt 0.340074509 0.877851546
vn 0.0000000 -1.0000000 0.0000000
v 0.3061967 -0.5000000 0.1050000
vt 0.299470961 0.692174733
vn 0.0000000 -1.0000000 0.0000000
f 115/115/115 116/116/116 117/117/117
v -0.2061968 -0.5000000 0.1050000
vt 0.081479795 0.692174733
vn 0.0000007 -1.0000000 0.0000001
v -0.3009904 -0.5000000 0.5500000
vt 0.041425820 0.877851546
vn 0.0000007 -1.0000000 0.0000001
v -0.3900145 -0.5000001 0.5500000
vt 0.003551719 0.877851546
vn 0.0000007 -1.0000000 0.0000001
f 118/118/118 119/119/119 120/120/120
v 0.4900145 -0.5000000 0.0250000
vt 0.377624482 0.658794641
vn 0.0000000 -0.9999999 0.0000000
v 0.4900145 -0.5000000 0.5500000
vt 0.377948642 0.877851546
vn 0.0000000 -0.9999999 0.0000000
v 0.3061967 -0.5000000 0.1050000
vt 0.299470961 0.692174733
vn 0.0000000 -0.9999999 0.0000000
f 121/121/121 122/122/122 123/123/123
v -0.2061968 -0.5000000 0.1050000
vt 0.081479795 0.692174733
vn 0.0000003 -0.9999999 0.0000000
v -0.3900145 -0.5000001 0.5500000
vt 0.003551719 0.877851546
vn 0.0000003 -0.9999999 0.0000000
v -0.3900145 -0.5000001 0.0250000
vt 0.003227544 0.658794641
vn 0.0000003 -0.9999999 0.0000000
f 124/124/124 125/125/125 126/126/126
v 0.4900145 -0.5000000 0.0250000
vt 0.377624482 0.658794641
vn 0.0000000 -1.0000000 0.0000000
v 0.3061967 -0.5000000 0.1050000
vt 0.299470961 0.692174733
vn 0.0000000 -1.0000000 0.0000000
v -0.2061968 -0.5000000 0.1050000
vt 0.081479795 0.692174733
vn 0.0000000 -1.0000000 0.0000000
f 127/127/127 128/128/128 129/129/129
v -0.2061968 -0.5000000 0.1050000
vt 0.081479795 0.692174733
vn 0.0000001 -1.0000000 0.0000006
v -0.3900145 -0.5000001 0.0250000
vt 0.003227544 0.658794641
vn 0.0000001 -1.0000000 0.0000006
v 0.4900145 -0.5000000 0.0250000
vt 0.377624482 0.658794641
vn 0.0000001 -1.0000000 0.0000006
f 130/130/130 131/131/131 132/132/132
