# Authored through Blender MCP; native tiles are the scale reference.
mtllib pz_house_lamp_yellow.mtl
usemtl native
v 0.1300000 0.0000000 0.0000000
vt 0.876889765 0.239670232
vn 0.0000000 0.0000000 -1.0000000
v 0.0919239 -0.0919239 0.0000000
vt 0.785565257 0.337737620
vn 0.0000000 0.0000000 -1.0000000
v -0.0000000 -0.1300000 0.0000000
vt 0.656412840 0.337720960
vn 0.0000000 0.0000000 -1.0000000
o pz_house_lamp_yellow_|_1_parte_1
f 1/1/1 2/2/2 3/3/3
v -0.0000000 -0.1300000 0.0000000
vt 0.656412840 0.337720960
vn 0.0000000 0.0000000 -1.0000000
v -0.0919239 -0.0919239 0.0000000
vt 0.565088212 0.239630103
vn 0.0000000 0.0000000 -1.0000000
v -0.1300000 0.0000000 0.0000000
vt 0.565088272 0.100925326
vn 0.0000000 0.0000000 -1.0000000
f 4/4/4 5/5/5 6/6/6
v -0.1300000 0.0000000 0.0000000
vt 0.565088272 0.100925326
vn 0.0000000 0.0000000 -1.0000000
v -0.0919239 0.0919239 0.0000000
vt 0.656412721 0.002857937
vn 0.0000000 0.0000000 -1.0000000
v 0.0000000 0.1300000 0.0000000
vt 0.785565138 0.002874631
vn 0.0000000 0.0000000 -1.0000000
f 7/7/7 8/8/8 9/9/9
v 0.0000000 0.1300000 0.0000000
vt 0.785565138 0.002874631
vn 0.0000000 0.0000000 -1.0000000
v 0.0919239 0.0919239 0.0000000
vt 0.876889765 0.100965470
vn 0.0000000 0.0000000 -1.0000000
v 0.1300000 0.0000000 0.0000000
vt 0.876889765 0.239670232
vn 0.0000000 0.0000000 -1.0000000
f 10/10/10 11/11/11 12/12/12
v 0.1300000 0.0000000 0.0000000
vt 0.876889765 0.239670232
vn 0.0000000 0.0000000 -1.0000000
v -0.0000000 -0.1300000 0.0000000
vt 0.656412840 0.337720960
vn 0.0000000 0.0000000 -1.0000000
v -0.1300000 0.0000000 0.0000000
vt 0.565088272 0.100925326
vn 0.0000000 0.0000000 -1.0000000
f 13/13/13 14/14/14 15/15/15
v -0.1300000 0.0000000 0.0000000
vt 0.565088272 0.100925326
vn -0.0000000 0.0000000 -1.0000000
v 0.0000000 0.1300000 0.0000000
vt 0.785565138 0.002874631
vn -0.0000000 0.0000000 -1.0000000
v 0.1300000 0.0000000 0.0000000
vt 0.876889765 0.239670232
vn -0.0000000 0.0000000 -1.0000000
f 16/16/16 17/17/17 18/18/18
v 0.0707107 -0.0707107 0.0420000
vt 0.441942841 0.652975202
vn 0.0000000 0.0000000 1.0000000
v 0.1000000 0.0000000 0.0420000
vt 0.331533909 0.652975202
vn 0.0000000 0.0000000 1.0000000
v 0.0707107 0.0707107 0.0420000
vt 0.253463000 0.580289662
vn 0.0000000 0.0000000 1.0000000
f 19/19/19 20/20/20 21/21/21
v 0.0707107 0.0707107 0.0420000
vt 0.253463000 0.580289662
vn -0.0000000 0.0000000 1.0000000
v 0.0000000 0.1000000 0.0420000
vt 0.253463089 0.477496713
vn -0.0000000 0.0000000 1.0000000
v -0.0707107 0.0707107 0.0420000
vt 0.331533998 0.404811054
vn -0.0000000 0.0000000 1.0000000
f 22/22/22 23/23/23 24/24/24
v -0.0707107 0.0707107 0.0420000
vt 0.331533998 0.404811054
vn 0.0000000 -0.0000000 1.0000000
v -0.1000000 0.0000000 0.0420000
vt 0.441942960 0.404811054
vn 0.0000000 -0.0000000 1.0000000
v -0.0707107 -0.0707107 0.0420000
vt 0.520013809 0.477496594
vn 0.0000000 -0.0000000 1.0000000
f 25/25/25 26/26/26 27/27/27
v -0.0707107 -0.0707107 0.0420000
vt 0.520013809 0.477496594
vn 0.0000000 0.0000000 1.0000000
v -0.0000000 -0.1000000 0.0420000
vt 0.520013750 0.580289543
vn 0.0000000 0.0000000 1.0000000
v 0.0707107 -0.0707107 0.0420000
vt 0.441942841 0.652975202
vn 0.0000000 0.0000000 1.0000000
f 28/28/28 29/29/29 30/30/30
v 0.0707107 -0.0707107 0.0420000
vt 0.441942841 0.652975202
vn -0.0000000 0.0000000 1.0000000
v 0.0707107 0.0707107 0.0420000
vt 0.253463000 0.580289662
vn -0.0000000 0.0000000 1.0000000
v -0.0707107 0.0707107 0.0420000
vt 0.331533998 0.404811054
vn -0.0000000 0.0000000 1.0000000
f 31/31/31 32/32/32 33/33/33
v -0.0707107 0.0707107 0.0420000
vt 0.331533998 0.404811054
vn 0.0000000 -0.0000000 1.0000000
v -0.0707107 -0.0707107 0.0420000
vt 0.520013809 0.477496594
vn 0.0000000 -0.0000000 1.0000000
v 0.0707107 -0.0707107 0.0420000
vt 0.441942841 0.652975202
vn 0.0000000 -0.0000000 1.0000000
f 34/34/34 35/35/35 36/36/36
v 0.1300000 0.0000000 0.0000000
vt 0.284046948 0.751761973
vn 0.9238796 0.3826834 0.0000000
v 0.0919239 0.0919239 0.0000000
vt 0.395376414 0.751555502
vn 0.9238796 0.3826834 0.0000000
v 0.0919239 0.0919239 0.0250000
vt 0.395348936 0.788257480
vn 0.9238796 0.3826834 0.0000000
f 37/37/37 38/38/38 39/39/39
v 0.1300000 0.0000000 0.0000000
vt 0.284046948 0.751761973
vn 0.9238796 0.3826834 0.0000000
v 0.0919239 0.0919239 0.0250000
vt 0.395348936 0.788257480
vn 0.9238796 0.3826834 0.0000000
v 0.1300000 0.0000000 0.0250000
vt 0.284019530 0.788463831
vn 0.9238796 0.3826834 0.0000000
f 40/40/40 41/41/41 42/42/42
v 0.0919239 0.0919239 0.0000000
vt 0.395376414 0.751555502
vn 0.3826834 0.9238796 0.0000000
v 0.0000000 0.1300000 0.0000000
vt 0.529326975 0.751761913
vn 0.3826834 0.9238796 0.0000000
v 0.0000000 0.1300000 0.0250000
vt 0.529299557 0.788463831
vn 0.3826834 0.9238796 0.0000000
f 43/43/43 44/44/44 45/45/45
v 0.0919239 0.0919239 0.0000000
vt 0.395376414 0.751555502
vn 0.3826834 0.9238796 0.0000000
v 0.0000000 0.1300000 0.0250000
vt 0.529299557 0.788463831
vn 0.3826834 0.9238796 0.0000000
v 0.0919239 0.0919239 0.0250000
vt 0.395348936 0.788257480
vn 0.3826834 0.9238796 0.0000000
f 46/46/46 47/47/47 48/48/48
v 0.0000000 0.1300000 0.0000000
vt 0.047897294 0.003445615
vn -0.3826834 0.9238796 0.0000000
v -0.0919239 0.0919239 0.0000000
vt 0.039638691 0.130311802
vn -0.3826834 0.9238796 0.0000000
v -0.0919239 0.0919239 0.0250000
vt 0.003564816 0.130105406
vn -0.3826834 0.9238796 0.0000000
f 49/49/49 50/50/50 51/51/51
v 0.0000000 0.1300000 0.0000000
vt 0.047897294 0.003445615
vn -0.3826834 0.9238796 0.0000000
v -0.0919239 0.0919239 0.0250000
vt 0.003564816 0.130105406
vn -0.3826834 0.9238796 0.0000000
v 0.0000000 0.1300000 0.0250000
vt 0.011823419 0.003239227
vn -0.3826834 0.9238796 0.0000000
f 52/52/52 53/53/53 54/54/54
v -0.0919239 0.0919239 0.0000000
vt 0.039638691 0.130311802
vn -0.9238796 0.3826834 0.0000000
v -0.1300000 0.0000000 0.0000000
vt 0.047897235 0.252996176
vn -0.9238796 0.3826834 0.0000000
v -0.1300000 0.0000000 0.0250000
vt 0.011823419 0.252789795
vn -0.9238796 0.3826834 0.0000000
f 55/55/55 56/56/56 57/57/57
v -0.0919239 0.0919239 0.0000000
vt 0.039638691 0.130311802
vn -0.9238796 0.3826834 0.0000000
v -0.1300000 0.0000000 0.0250000
vt 0.011823419 0.252789795
vn -0.9238796 0.3826834 0.0000000
v -0.0919239 0.0919239 0.0250000
vt 0.003564816 0.130105406
vn -0.9238796 0.3826834 0.0000000
f 58/58/58 59/59/59 60/60/60
v -0.1300000 0.0000000 0.0000000
vt 0.535467684 0.734198213
vn -0.9238796 -0.3826834 -0.0000000
v -0.0919239 -0.0919239 0.0000000
vt 0.401895881 0.741794586
vn -0.9238796 -0.3826834 -0.0000000
v -0.0919239 -0.0919239 0.0250000
vt 0.400991797 0.705351293
vn -0.9238796 -0.3826834 -0.0000000
f 61/61/61 62/62/62 63/63/63
v -0.1300000 0.0000000 0.0000000
vt 0.535467684 0.734198213
vn -0.9238796 -0.3826834 0.0000000
v -0.0919239 -0.0919239 0.0250000
vt 0.400991797 0.705351293
vn -0.9238796 -0.3826834 0.0000000
v -0.1300000 0.0000000 0.0250000
vt 0.534563541 0.697754800
vn -0.9238796 -0.3826834 0.0000000
f 64/64/64 65/65/65 66/66/66
v -0.0919239 -0.0919239 0.0000000
vt 0.401895881 0.741794586
vn -0.3826834 -0.9238796 -0.0000000
v -0.0000000 -0.1300000 0.0000000
vt 0.288447201 0.734198213
vn -0.3826834 -0.9238796 -0.0000000
v -0.0000000 -0.1300000 0.0250000
vt 0.287543088 0.697754800
vn -0.3826834 -0.9238796 -0.0000000
f 67/67/67 68/68/68 69/69/69
v -0.0919239 -0.0919239 0.0000000
vt 0.401895881 0.741794586
vn -0.3826834 -0.9238796 0.0000000
v -0.0000000 -0.1300000 0.0250000
vt 0.287543088 0.697754800
vn -0.3826834 -0.9238796 0.0000000
v -0.0919239 -0.0919239 0.0250000
vt 0.400991797 0.705351293
vn -0.3826834 -0.9238796 0.0000000
f 70/70/70 71/71/71 72/72/72
v -0.0000000 -0.1300000 0.0000000
vt 0.090654157 0.004743895
vn 0.3826834 -0.9238796 0.0000000
v 0.0919239 -0.0919239 0.0000000
vt 0.098250933 0.118202440
vn 0.3826834 -0.9238796 0.0000000
v 0.0919239 -0.0919239 0.0250000
vt 0.061808120 0.117298983
vn 0.3826834 -0.9238796 0.0000000
f 73/73/73 74/74/74 75/75/75
v -0.0000000 -0.1300000 0.0000000
vt 0.090654157 0.004743895
vn 0.3826834 -0.9238796 0.0000000
v 0.0919239 -0.0919239 0.0250000
vt 0.061808120 0.117298983
vn 0.3826834 -0.9238796 0.0000000
v -0.0000000 -0.1300000 0.0250000
vt 0.054211345 0.003840431
vn 0.3826834 -0.9238796 0.0000000
f 76/76/76 77/77/77 78/78/78
v 0.0919239 -0.0919239 0.0000000
vt 0.098250933 0.118202440
vn 0.9238796 -0.3826834 0.0000000
v 0.1300000 0.0000000 0.0000000
vt 0.090654097 0.251768053
vn 0.9238796 -0.3826834 0.0000000
v 0.1300000 0.0000000 0.0250000
vt 0.054211285 0.250864565
vn 0.9238796 -0.3826834 0.0000000
f 79/79/79 80/80/80 81/81/81
v 0.0919239 -0.0919239 0.0000000
vt 0.098250933 0.118202440
vn 0.9238796 -0.3826834 0.0000000
v 0.1300000 0.0000000 0.0250000
vt 0.054211285 0.250864565
vn 0.9238796 -0.3826834 0.0000000
v 0.0919239 -0.0919239 0.0250000
vt 0.061808120 0.117298983
vn 0.9238796 -0.3826834 0.0000000
f 82/82/82 83/83/83 84/84/84
v 0.1300000 0.0000000 0.0250000
vt 0.315006524 0.690212905
vn 0.4830433 0.2000830 0.8524294
v 0.0919239 0.0919239 0.0250000
vt 0.213514373 0.595721722
vn 0.4830433 0.2000830 0.8524294
v 0.0707107 0.0707107 0.0420000
vt 0.253463000 0.580289662
vn 0.4830433 0.2000830 0.8524294
f 85/85/85 86/86/86 87/87/87
v 0.1300000 0.0000000 0.0250000
vt 0.315006524 0.690212905
vn 0.4830434 0.2000831 0.8524293
v 0.0707107 0.0707107 0.0420000
vt 0.253463000 0.580289662
vn 0.4830434 0.2000831 0.8524293
v 0.1000000 0.0000000 0.0420000
vt 0.331533909 0.652975202
vn 0.4830434 0.2000831 0.8524293
f 88/88/88 89/89/89 90/90/90
v 0.0919239 0.0919239 0.0250000
vt 0.213514373 0.595721722
vn 0.2000831 0.4830434 0.8524294
v 0.0000000 0.1300000 0.0250000
vt 0.213514477 0.462090880
vn 0.2000831 0.4830434 0.8524294
v 0.0000000 0.1000000 0.0420000
vt 0.253463089 0.477496713
vn 0.2000831 0.4830434 0.8524294
f 91/91/91 92/92/92 93/93/93
v 0.0919239 0.0919239 0.0250000
vt 0.213514373 0.595721722
vn 0.2000831 0.4830433 0.8524294
v 0.0000000 0.1000000 0.0420000
vt 0.253463089 0.477496713
vn 0.2000831 0.4830433 0.8524294
v 0.0707107 0.0707107 0.0420000
vt 0.253463000 0.580289662
vn 0.2000831 0.4830433 0.8524294
f 94/94/94 95/95/95 96/96/96
v 0.0000000 0.1300000 0.0250000
vt 0.213514477 0.462090880
vn -0.2000830 0.4830433 0.8524294
v -0.0919239 0.0919239 0.0250000
vt 0.315006673 0.367599547
vn -0.2000830 0.4830433 0.8524294
v -0.0707107 0.0707107 0.0420000
vt 0.331533998 0.404811054
vn -0.2000830 0.4830433 0.8524294
f 97/97/97 98/98/98 99/99/99
v 0.0000000 0.1300000 0.0250000
vt 0.213514477 0.462090880
vn -0.2000831 0.4830434 0.8524293
v -0.0707107 0.0707107 0.0420000
vt 0.331533998 0.404811054
vn -0.2000831 0.4830434 0.8524293
v 0.0000000 0.1000000 0.0420000
vt 0.253463089 0.477496713
vn -0.2000831 0.4830434 0.8524293
f 100/100/100 101/101/101 102/102/102
v -0.0919239 0.0919239 0.0250000
vt 0.315006673 0.367599547
vn -0.4830434 0.2000831 0.8524294
v -0.1300000 0.0000000 0.0250000
vt 0.458538294 0.367599547
vn -0.4830434 0.2000831 0.8524294
v -0.1000000 0.0000000 0.0420000
vt 0.441942960 0.404811054
vn -0.4830434 0.2000831 0.8524294
f 103/103/103 104/104/104 105/105/105
v -0.0919239 0.0919239 0.0250000
vt 0.315006673 0.367599547
vn -0.4830433 0.2000831 0.8524294
v -0.1000000 0.0000000 0.0420000
vt 0.441942960 0.404811054
vn -0.4830433 0.2000831 0.8524294
v -0.0707107 0.0707107 0.0420000
vt 0.331533998 0.404811054
vn -0.4830433 0.2000831 0.8524294
f 106/106/106 107/107/107 108/108/108
v -0.1300000 0.0000000 0.0250000
vt 0.458538294 0.367599547
vn -0.4830433 -0.2000830 0.8524294
v -0.0919239 -0.0919239 0.0250000
vt 0.560030401 0.462090731
vn -0.4830433 -0.2000830 0.8524294
v -0.0707107 -0.0707107 0.0420000
vt 0.520013809 0.477496594
vn -0.4830433 -0.2000830 0.8524294
f 109/109/109 110/110/110 111/111/111
v -0.1300000 0.0000000 0.0250000
vt 0.458538294 0.367599547
vn -0.4830434 -0.2000831 0.8524293
v -0.0707107 -0.0707107 0.0420000
vt 0.520013809 0.477496594
vn -0.4830434 -0.2000831 0.8524293
v -0.1000000 0.0000000 0.0420000
vt 0.441942960 0.404811054
vn -0.4830434 -0.2000831 0.8524293
f 112/112/112 113/113/113 114/114/114
v -0.0919239 -0.0919239 0.0250000
vt 0.560030401 0.462090731
vn -0.2000831 -0.4830434 0.8524294
v -0.0000000 -0.1300000 0.0250000
vt 0.560030282 0.595721602
vn -0.2000831 -0.4830434 0.8524294
v -0.0000000 -0.1000000 0.0420000
vt 0.520013750 0.580289543
vn -0.2000831 -0.4830434 0.8524294
f 115/115/115 116/116/116 117/117/117
v -0.0919239 -0.0919239 0.0250000
vt 0.560030401 0.462090731
vn -0.2000831 -0.4830433 0.8524294
v -0.0000000 -0.1000000 0.0420000
vt 0.520013750 0.580289543
vn -0.2000831 -0.4830433 0.8524294
v -0.0707107 -0.0707107 0.0420000
vt 0.520013809 0.477496594
vn -0.2000831 -0.4830433 0.8524294
f 118/118/118 119/119/119 120/120/120
v -0.0000000 -0.1300000 0.0250000
vt 0.560030282 0.595721602
vn 0.2000830 -0.4830433 0.8524294
v 0.0919239 -0.0919239 0.0250000
vt 0.458538145 0.690212905
vn 0.2000830 -0.4830433 0.8524294
v 0.0707107 -0.0707107 0.0420000
vt 0.441942841 0.652975202
vn 0.2000830 -0.4830433 0.8524294
f 121/121/121 122/122/122 123/123/123
v -0.0000000 -0.1300000 0.0250000
vt 0.560030282 0.595721602
vn 0.2000831 -0.4830434 0.8524293
v 0.0707107 -0.0707107 0.0420000
vt 0.441942841 0.652975202
vn 0.2000831 -0.4830434 0.8524293
v -0.0000000 -0.1000000 0.0420000
vt 0.520013750 0.580289543
vn 0.2000831 -0.4830434 0.8524293
f 124/124/124 125/125/125 126/126/126
v 0.0919239 -0.0919239 0.0250000
vt 0.458538145 0.690212905
vn 0.4830434 -0.2000831 0.8524294
v 0.1300000 0.0000000 0.0250000
vt 0.315006524 0.690212905
vn 0.4830434 -0.2000831 0.8524294
v 0.1000000 0.0000000 0.0420000
vt 0.331533909 0.652975202
vn 0.4830434 -0.2000831 0.8524294
f 127/127/127 128/128/128 129/129/129
v 0.0919239 -0.0919239 0.0250000
vt 0.458538145 0.690212905
vn 0.4830433 -0.2000831 0.8524294
v 0.1000000 0.0000000 0.0420000
vt 0.331533909 0.652975202
vn 0.4830433 -0.2000831 0.8524294
v 0.0707107 -0.0707107 0.0420000
vt 0.441942841 0.652975202
vn 0.4830433 -0.2000831 0.8524294
f 130/130/130 131/131/131 132/132/132
v -0.0120000 0.1200000 0.4900000
vt 0.504959345 0.070123509
vn 0.0000000 0.8619345 0.5070196
v 0.0120000 0.1200000 0.4900000
vt 0.522746623 0.093744218
vn 0.0000000 0.8619345 0.5070196
v -0.0000000 0.1260842 0.4796568
vt 0.499530584 0.086416446
vn 0.0000000 0.8619345 0.5070196
o pz_house_lamp_yellow_|_2_parte_2
f 133/133/133 134/134/134 135/135/135
v 0.0000000 0.1139158 0.5003432
vt 0.528175414 0.077451356
vn -0.0000000 0.8619339 0.5070207
v 0.0120000 0.1200000 0.4900000
vt 0.522746623 0.093744218
vn -0.0000000 0.8619339 0.5070207
v -0.0120000 0.1200000 0.4900000
vt 0.504959345 0.070123509
vn -0.0000000 0.8619339 0.5070207
f 136/136/136 137/137/137 138/138/138
v 0.0120000 0.0000000 0.0400000
vt 0.122813694 0.003359734
vn -0.0000000 0.0000000 1.0000000
v -0.0000000 0.0120000 0.0400000
vt 0.122813664 0.027018987
vn -0.0000000 0.0000000 1.0000000
v -0.0120000 -0.0000000 0.0400000
vt 0.100786470 0.027018987
vn -0.0000000 0.0000000 1.0000000
f 139/139/139 140/140/140 141/141/141
v 0.0000000 -0.0120000 0.0400000
vt 0.100786500 0.003359733
vn -0.0000000 0.0000000 1.0000000
v 0.0120000 0.0000000 0.0400000
vt 0.122813694 0.003359734
vn -0.0000000 0.0000000 1.0000000
v -0.0120000 -0.0000000 0.0400000
vt 0.100786470 0.027018987
vn -0.0000000 0.0000000 1.0000000
f 142/142/142 143/143/143 144/144/144
v 0.0000000 -0.0120000 0.0400000
vt 0.002752912 0.450298160
vn -0.7050611 -0.7091466 0.0002043
v 0.0000000 -0.0119305 0.2812896
vt 0.170221403 0.178288952
vn -0.7050611 -0.7091466 0.0002043
v -0.0120000 -0.0000000 0.2800000
vt 0.188760653 0.193235591
vn -0.7050611 -0.7091466 0.0002043
f 145/145/145 146/146/146 147/147/147
v 0.0000000 -0.0120000 0.0400000
vt 0.002752912 0.450298160
vn -0.7071066 -0.7071069 0.0000000
v -0.0120000 -0.0000000 0.2800000
vt 0.188760653 0.193235591
vn -0.7071066 -0.7071069 0.0000000
v -0.0120000 -0.0000000 0.0400000
vt 0.022259355 0.463830233
vn -0.7071066 -0.7071069 0.0000000
f 148/148/148 149/149/149 150/150/150
v 0.0120000 0.0000000 0.0400000
vt 0.028230539 0.469775379
vn 0.7050503 -0.7091573 -0.0000000
v 0.0120000 0.0000000 0.2800000
vt 0.298084080 0.302084774
vn 0.7050503 -0.7091573 -0.0000000
v 0.0000000 -0.0119305 0.2812896
vt 0.313112289 0.320558608
vn 0.7050503 -0.7091573 -0.0000000
f 151/151/151 152/152/152 153/153/153
v 0.0120000 0.0000000 0.0400000
vt 0.028230539 0.469775379
vn 0.7071069 -0.7071066 0.0002037
v 0.0000000 -0.0119305 0.2812896
vt 0.313112289 0.320558608
vn 0.7071069 -0.7071066 0.0002037
v 0.0000000 -0.0120000 0.0400000
vt 0.041848399 0.489222527
vn 0.7071069 -0.7071066 0.0002037
f 154/154/154 155/155/155 156/156/156
v -0.0000000 0.0120000 0.0400000
vt 0.068107203 0.508895934
vn 0.7050388 0.7091687 0.0002065
v -0.0000000 0.0119305 0.2787104
vt 0.331859708 0.318102777
vn 0.7050388 0.7091687 0.0002065
v 0.0120000 0.0000000 0.2800000
vt 0.347856104 0.336306721
vn 0.7050388 0.7091687 0.0002065
f 157/157/157 158/158/158 159/159/159
v -0.0000000 0.0120000 0.0400000
vt 0.068107203 0.508895934
vn 0.7071066 0.7071070 0.0000000
v 0.0120000 0.0000000 0.2800000
vt 0.347856104 0.336306721
vn 0.7071066 0.7071070 0.0000000
v 0.0120000 0.0000000 0.0400000
vt 0.082711935 0.528174162
vn 0.7071066 0.7071070 0.0000000
f 160/160/160 161/161/161 162/162/162
v -0.0120000 -0.0000000 0.0400000
vt 0.595224142 0.620209157
vn -0.7050503 0.7091572 -0.0000000
v -0.0120000 -0.0000000 0.2800000
vt 0.537715316 0.310288608
vn -0.7050503 0.7091572 -0.0000000
v -0.0000000 0.0119305 0.2787104
vt 0.561716974 0.308013290
vn -0.7050503 0.7091572 -0.0000000
f 163/163/163 164/164/164 165/165/165
v -0.0120000 -0.0000000 0.0400000
vt 0.595224142 0.620209157
vn -0.7071070 0.7071066 0.0002059
v -0.0000000 0.0119305 0.2787104
vt 0.561716974 0.308013290
vn -0.7071070 0.7071066 0.0002059
v -0.0000000 0.0120000 0.0400000
vt 0.618980885 0.616247892
vn -0.7071070 0.7071066 0.0002059
f 166/166/166 167/167/167 168/168/168
v 0.0000000 -0.0119305 0.2812896
vt 0.170221403 0.178288952
vn -0.6764842 -0.7185689 0.1613315
v 0.0000000 0.0252840 0.4470427
vt 0.324018836 0.012532406
vn -0.6764842 -0.7185689 0.1613315
v -0.0120000 0.0350000 0.4400000
vt 0.336257726 0.032708459
vn -0.6764842 -0.7185689 0.1613315
f 169/169/169 170/170/170 171/171/171
v 0.0000000 -0.0119305 0.2812896
vt 0.170221403 0.178288952
vn -0.7050499 -0.6927761 0.1515448
v -0.0120000 0.0350000 0.4400000
vt 0.336257726 0.032708459
vn -0.7050499 -0.6927761 0.1515448
v -0.0120000 -0.0000000 0.2800000
vt 0.188760653 0.193235591
vn -0.7050499 -0.6927761 0.1515448
f 172/172/172 173/173/173 174/174/174
v 0.0120000 0.0000000 0.2800000
vt 0.298084080 0.302084774
vn 0.6756095 -0.7202290 0.1575501
v 0.0120000 0.0350000 0.4400000
vt 0.457960188 0.153886274
vn 0.6756095 -0.7202290 0.1575501
v 0.0000000 0.0252840 0.4470427
vt 0.478189975 0.166036934
vn 0.6756095 -0.7202290 0.1575501
f 175/175/175 176/176/176 177/177/177
v 0.0120000 0.0000000 0.2800000
vt 0.298084080 0.302084774
vn 0.7048340 -0.6921419 0.1553982
v 0.0000000 0.0252840 0.4470427
vt 0.478189975 0.166036934
vn 0.7048340 -0.6921419 0.1553982
v 0.0000000 -0.0119305 0.2812896
vt 0.313112289 0.320558608
vn 0.7048340 -0.6921419 0.1553982
f 178/178/178 179/179/179 180/180/180
v -0.0000000 0.0119305 0.2787104
vt 0.331859708 0.318102777
vn 0.6746508 0.7220076 -0.1534641
v -0.0000000 0.0447160 0.4329573
vt 0.486663282 0.174387395
vn 0.6746508 0.7220076 -0.1534641
v 0.0120000 0.0350000 0.4400000
vt 0.507961571 0.186613932
vn 0.6746508 0.7220076 -0.1534641
f 181/181/181 182/182/182 183/183/183
v -0.0000000 0.0119305 0.2787104
vt 0.331859708 0.318102777
vn 0.7050499 0.6927762 -0.1515448
v 0.0120000 0.0350000 0.4400000
vt 0.507961571 0.186613932
vn 0.7050499 0.6927762 -0.1515448
v 0.0120000 0.0000000 0.2800000
vt 0.347856104 0.336306721
vn 0.7050499 0.6927762 -0.1515448
f 184/184/184 185/185/185 186/186/186
v -0.0120000 -0.0000000 0.2800000
vt 0.537715316 0.310288608
vn -0.6756096 0.7202289 -0.1575501
v -0.0120000 0.0350000 0.4400000
vt 0.531696737 0.093333356
vn -0.6756096 0.7202289 -0.1575501
v -0.0000000 0.0447160 0.4329573
vt 0.555031955 0.099141471
vn -0.6756096 0.7202289 -0.1575501
f 187/187/187 188/188/188 189/189/189
v -0.0120000 -0.0000000 0.2800000
vt 0.537715316 0.310288608
vn -0.7052709 0.6934465 -0.1473934
v -0.0000000 0.0447160 0.4329573
vt 0.555031955 0.099141471
vn -0.7052709 0.6934465 -0.1473934
v -0.0000000 0.0119305 0.2787104
vt 0.561716974 0.308013290
vn -0.7052709 0.6934465 -0.1473934
f 190/190/190 191/191/191 192/192/192
v 0.0000000 0.0252840 0.4470427
vt 0.324018836 0.012532406
vn -0.7070897 -0.3644226 0.6059870
v 0.0000000 0.1139158 0.5003432
vt 0.453416765 0.002752929
vn -0.7070897 -0.3644226 0.6059870
v -0.0120000 0.1200000 0.4900000
vt 0.459578812 0.024588427
vn -0.7070897 -0.3644226 0.6059870
f 193/193/193 194/194/194 195/195/195
v 0.0000000 0.0252840 0.4470427
vt 0.324018836 0.012532406
vn -0.6756094 -0.3738056 0.6354693
v -0.0120000 0.1200000 0.4900000
vt 0.459578812 0.024588427
vn -0.6756094 -0.3738056 0.6354693
v -0.0120000 0.0350000 0.4400000
vt 0.336257726 0.032708459
vn -0.6756094 -0.3738056 0.6354693
f 196/196/196 197/197/197 198/198/198
v 0.0120000 0.0350000 0.4400000
vt 0.457960188 0.153886274
vn 0.7071064 -0.3585177 0.6094798
v 0.0120000 0.1200000 0.4900000
vt 0.465544343 0.030539239
vn 0.7071064 -0.3585177 0.6094798
v 0.0000000 0.1139158 0.5003432
vt 0.487407029 0.036606230
vn 0.7071064 -0.3585177 0.6094798
f 199/199/199 200/200/200 201/201/201
v 0.0120000 0.0350000 0.4400000
vt 0.457960188 0.153886274
vn 0.6771442 -0.3792272 0.6306050
v 0.0000000 0.1139158 0.5003432
vt 0.487407029 0.036606230
vn 0.6771442 -0.3792272 0.6306050
v 0.0000000 0.0252840 0.4470427
vt 0.478189975 0.166036934
vn 0.6771442 -0.3792272 0.6306050
f 202/202/202 203/203/203 204/204/204
v -0.0000000 0.0447160 0.4329573
vt 0.486663282 0.174387395
vn 0.7070868 0.3519879 -0.6132967
v -0.0000000 0.1260842 0.4796568
vt 0.499530584 0.086416446
vn 0.7070868 0.3519879 -0.6132967
v 0.0120000 0.1200000 0.4900000
vt 0.522746623 0.093744218
vn 0.7070868 0.3519879 -0.6132967
f 205/205/205 206/206/206 207/207/207
v -0.0000000 0.0447160 0.4329573
vt 0.486663282 0.174387395
vn 0.6756091 0.3738057 -0.6354695
v 0.0120000 0.1200000 0.4900000
vt 0.522746623 0.093744218
vn 0.6756091 0.3738057 -0.6354695
v 0.0120000 0.0350000 0.4400000
vt 0.507961571 0.186613932
vn 0.6756091 0.3738057 -0.6354695
f 208/208/208 209/209/209 210/210/210
v -0.0120000 0.0350000 0.4400000
vt 0.531696737 0.093333356
vn -0.7071072 0.3585172 -0.6094792
v -0.0120000 0.1200000 0.4900000
vt 0.598208606 0.003651167
vn -0.7071072 0.3585172 -0.6094792
v -0.0000000 0.1260842 0.4796568
vt 0.618980885 0.014794460
vn -0.7071072 0.3585172 -0.6094792
f 211/211/211 212/212/212 213/213/213
v -0.0120000 0.0350000 0.4400000
vt 0.531696737 0.093333356
vn -0.6738672 0.3677801 -0.6408126
v -0.0000000 0.1260842 0.4796568
vt 0.618980885 0.014794460
vn -0.6738672 0.3677801 -0.6408126
v -0.0000000 0.0447160 0.4329573
vt 0.555031955 0.099141471
vn -0.6738672 0.3677801 -0.6408126
f 214/214/214 215/215/215 216/216/216
v 0.1100000 0.2050000 0.4400000
vt 0.816549003 0.709399521
vn 0.8109081 -0.2470311 0.5304750
v 0.0777817 0.2438909 0.5073609
vt 0.816711009 0.817939103
vn 0.8109081 -0.2470311 0.5304750
v 0.0318198 0.1256471 0.5225568
vt 0.623350143 0.799484551
vn 0.8109081 -0.2470311 0.5304750
o pz_house_lamp_yellow_|_3_parte_3
f 217/217/217 218/218/218 219/219/219
v 0.1100000 0.2050000 0.4400000
vt 0.816549003 0.709399521
vn 0.8109082 -0.2470315 0.5304747
v 0.0318198 0.1256471 0.5225568
vt 0.623350143 0.799484551
vn 0.8109082 -0.2470315 0.5304747
v 0.0450000 0.1097372 0.4950000
vt 0.623283863 0.755082011
vn 0.8109082 -0.2470315 0.5304747
f 220/220/220 221/221/221 222/222/222
v 0.0777817 0.2438909 0.5073609
vt 0.259288669 0.764706969
vn 0.3358897 -0.0095222 0.9418532
v 0.0000000 0.2600000 0.5352628
vt 0.304577976 0.861188889
vn 0.3358897 -0.0095222 0.9418532
v 0.0000000 0.1322372 0.5339711
vt 0.125443518 0.901141107
vn 0.3358897 -0.0095222 0.9418532
f 223/223/223 224/224/224 225/225/225
v 0.0777817 0.2438909 0.5073609
vt 0.259288669 0.764706969
vn 0.3358884 -0.0095211 0.9418537
v 0.0000000 0.1322372 0.5339711
vt 0.125443518 0.901141107
vn 0.3358884 -0.0095211 0.9418537
v 0.0318198 0.1256471 0.5225568
vt 0.106916033 0.861671150
vn 0.3358884 -0.0095211 0.9418537
f 226/226/226 227/227/227 228/228/228
v 0.0000000 0.2600000 0.5352628
vt 0.304577976 0.861188889
vn -0.3358898 -0.0095218 0.9418532
v -0.0777817 0.2438909 0.5073609
vt 0.304578006 0.967771828
vn -0.3358898 -0.0095218 0.9418532
v -0.0318198 0.1256471 0.5225568
vt 0.125443503 0.944743156
vn -0.3358898 -0.0095218 0.9418532
f 229/229/229 230/230/230 231/231/231
v 0.0000000 0.2600000 0.5352628
vt 0.304577976 0.861188889
vn -0.3358881 -0.0095222 0.9418539
v -0.0318198 0.1256471 0.5225568
vt 0.125443503 0.944743156
vn -0.3358881 -0.0095222 0.9418539
v 0.0000000 0.1322372 0.5339711
vt 0.125443518 0.901141107
vn -0.3358881 -0.0095222 0.9418539
f 232/232/232 233/233/233 234/234/234
v -0.0777817 0.2438909 0.5073609
vt 0.287384033 0.743589699
vn -0.8109080 -0.2470312 0.5304751
v -0.1100000 0.2050000 0.4400000
vt 0.192506418 0.793376446
vn -0.8109080 -0.2470312 0.5304751
v -0.0450000 0.1097372 0.4950000
vt 0.155336976 0.603542447
vn -0.8109080 -0.2470312 0.5304751
f 235/235/235 236/236/236 237/237/237
v -0.0777817 0.2438909 0.5073609
vt 0.287384033 0.743589699
vn -0.8109083 -0.2470312 0.5304746
v -0.0450000 0.1097372 0.4950000
vt 0.155336976 0.603542447
vn -0.8109083 -0.2470312 0.5304746
v -0.0318198 0.1256471 0.5225568
vt 0.194150582 0.583175182
vn -0.8109083 -0.2470312 0.5304746
f 238/238/238 239/239/239 240/240/240
v -0.1100000 0.2050000 0.4400000
vt 0.192506418 0.793376446
vn -0.8109080 -0.5829204 -0.0513021
v -0.0777817 0.1661091 0.3726390
vt 0.075065799 0.793376446
vn -0.8109080 -0.5829204 -0.0513021
v -0.0318198 0.0938273 0.4674432
vt 0.107293047 0.603542566
vn -0.8109080 -0.5829204 -0.0513021
f 241/241/241 242/242/242 243/243/243
v -0.1100000 0.2050000 0.4400000
vt 0.192506418 0.793376446
vn -0.8109080 -0.5829204 -0.0513020
v -0.0318198 0.0938273 0.4674432
vt 0.107293047 0.603542566
vn -0.8109080 -0.5829204 -0.0513020
v -0.0450000 0.1097372 0.4950000
vt 0.155336976 0.603542447
vn -0.8109080 -0.5829204 -0.0513020
f 244/244/244 245/245/245 246/246/246
v -0.0777817 0.1661091 0.3726390
vt 0.075065799 0.793376446
vn -0.3358891 -0.8204299 -0.4626806
v -0.0000000 0.1500000 0.3447372
vt 0.003857409 0.743589759
vn -0.3358891 -0.8204299 -0.4626806
v -0.0000000 0.0872372 0.4560288
vt 0.078162357 0.583175242
vn -0.3358891 -0.8204299 -0.4626806
f 247/247/247 248/248/248 249/249/249
v -0.0777817 0.1661091 0.3726390
vt 0.075065799 0.793376446
vn -0.3358891 -0.8204299 -0.4626806
v -0.0000000 0.0872372 0.4560288
vt 0.078162357 0.583175242
vn -0.3358891 -0.8204299 -0.4626806
v -0.0318198 0.0938273 0.4674432
vt 0.107293047 0.603542566
vn -0.3358891 -0.8204299 -0.4626806
f 250/250/250 251/251/251 252/252/252
v -0.0000000 0.1500000 0.3447372
vt 0.678881288 0.556270182
vn 0.3358891 -0.8204299 -0.4626805
v 0.0777817 0.1661091 0.3726390
vt 0.759458005 0.601012588
vn 0.3358891 -0.8204299 -0.4626805
v 0.0318198 0.0938273 0.4674432
vt 0.599928498 0.710741937
vn 0.3358891 -0.8204299 -0.4626805
f 253/253/253 254/254/254 255/255/255
v -0.0000000 0.1500000 0.3447372
vt 0.678881288 0.556270182
vn 0.3358890 -0.8204299 -0.4626805
v 0.0318198 0.0938273 0.4674432
vt 0.599928498 0.710741937
vn 0.3358890 -0.8204299 -0.4626805
v -0.0000000 0.0872372 0.4560288
vt 0.566965282 0.692438066
vn 0.3358890 -0.8204299 -0.4626805
f 256/256/256 257/257/257 258/258/258
v 0.0777817 0.1661091 0.3726390
vt 0.759458005 0.601012588
vn 0.8109080 -0.5829204 -0.0513021
v 0.1100000 0.2050000 0.4400000
vt 0.816549003 0.709399521
vn 0.8109080 -0.5829204 -0.0513021
v 0.0450000 0.1097372 0.4950000
vt 0.623283863 0.755082011
vn 0.8109080 -0.5829204 -0.0513021
f 259/259/259 260/260/260 261/261/261
v 0.0777817 0.1661091 0.3726390
vt 0.759458005 0.601012588
vn 0.8109081 -0.5829205 -0.0513021
v 0.0450000 0.1097372 0.4950000
vt 0.623283863 0.755082011
vn 0.8109081 -0.5829205 -0.0513021
v 0.0318198 0.0938273 0.4674432
vt 0.599928498 0.710741937
vn 0.8109081 -0.5829205 -0.0513021
f 262/262/262 263/263/263 264/264/264
v 0.0450000 0.1097372 0.4950000
vt 0.623283863 0.755082011
vn 0.0000003 -0.8660256 0.4999997
v 0.0318198 0.1256471 0.5225568
vt 0.623350143 0.799484551
vn 0.0000003 -0.8660256 0.4999997
v 0.0176777 0.1185760 0.5103093
vt 0.605650902 0.779797494
vn 0.0000003 -0.8660256 0.4999997
f 265/265/265 266/266/266 267/267/267
v 0.0450000 0.1097372 0.4950000
vt 0.623283863 0.755082011
vn 0.0000000 -0.8660257 0.4999993
v 0.0176777 0.1185760 0.5103093
vt 0.605650902 0.779797494
vn 0.0000000 -0.8660257 0.4999993
v 0.0250000 0.1097372 0.4950000
vt 0.605614126 0.755129457
vn 0.0000000 -0.8660257 0.4999993
f 268/268/268 269/269/269 270/270/270
v 0.0318198 0.1256471 0.5225568
vt 0.623350143 0.799484551
vn -0.0000008 -0.8660257 0.4999995
v 0.0000000 0.1322372 0.5339711
vt 0.600088477 0.817939162
vn -0.0000008 -0.8660257 0.4999995
v 0.0000000 0.1222372 0.5166506
vt 0.592727780 0.790050089
vn -0.0000008 -0.8660257 0.4999995
f 271/271/271 272/272/272 273/273/273
v 0.0318198 0.1256471 0.5225568
vt 0.623350143 0.799484551
vn -0.0000011 -0.8660249 0.5000009
v 0.0000000 0.1222372 0.5166506
vt 0.592727780 0.790050089
vn -0.0000011 -0.8660249 0.5000009
v 0.0176777 0.1185760 0.5103093
vt 0.605650902 0.779797494
vn -0.0000011 -0.8660249 0.5000009
f 274/274/274 275/275/275 276/276/276
v 0.0000000 0.1322372 0.5339711
vt 0.600088477 0.817939162
vn 0.0000004 -0.8660252 0.5000003
v -0.0318198 0.1256471 0.5225568
vt 0.567125261 0.799635470
vn 0.0000004 -0.8660252 0.5000003
v -0.0176777 0.1185760 0.5103093
vt 0.574414790 0.779881239
vn 0.0000004 -0.8660252 0.5000003
f 277/277/277 278/278/278 279/279/279
v 0.0000000 0.1322372 0.5339711
vt 0.600088477 0.817939162
vn 0.0000018 -0.8660257 0.4999995
v -0.0176777 0.1185760 0.5103093
vt 0.574414790 0.779881239
vn 0.0000018 -0.8660257 0.4999995
v 0.0000000 0.1222372 0.5166506
vt 0.592727780 0.790050089
vn 0.0000018 -0.8660257 0.4999995
f 280/280/280 281/281/281 282/282/282
v -0.0318198 0.1256471 0.5225568
vt 0.567125261 0.799635470
vn 0.0000000 -0.8660256 0.4999996
v -0.0450000 0.1097372 0.4950000
vt 0.543769896 0.755295396
vn 0.0000000 -0.8660256 0.4999996
v -0.0250000 0.1097372 0.4950000
vt 0.561439633 0.755248010
vn 0.0000000 -0.8660256 0.4999996
f 283/283/283 284/284/284 285/285/285
v -0.0318198 0.1256471 0.5225568
vt 0.567125261 0.799635470
vn -0.0000005 -0.8660256 0.4999995
v -0.0250000 0.1097372 0.4950000
vt 0.561439633 0.755248010
vn -0.0000005 -0.8660256 0.4999995
v -0.0176777 0.1185760 0.5103093
vt 0.574414790 0.779881239
vn -0.0000005 -0.8660256 0.4999995
f 286/286/286 287/287/287 288/288/288
v -0.0450000 0.1097372 0.4950000
vt 0.543769896 0.755295396
vn 0.0000004 -0.8660254 0.4999999
v -0.0318198 0.0938273 0.4674432
vt 0.543703616 0.710892677
vn 0.0000004 -0.8660254 0.4999999
v -0.0176777 0.1008984 0.4796907
vt 0.561402857 0.730579913
vn 0.0000004 -0.8660254 0.4999999
f 289/289/289 290/290/290 291/291/291
v -0.0450000 0.1097372 0.4950000
vt 0.543769896 0.755295396
vn 0.0000000 -0.8660257 0.4999993
v -0.0176777 0.1008984 0.4796907
vt 0.561402857 0.730579913
vn 0.0000000 -0.8660257 0.4999993
v -0.0250000 0.1097372 0.4950000
vt 0.561439633 0.755248010
vn 0.0000000 -0.8660257 0.4999993
f 292/292/292 293/293/293 294/294/294
v -0.0318198 0.0938273 0.4674432
vt 0.543703616 0.710892677
vn -0.0000002 -0.8660254 0.4999998
v -0.0000000 0.0872372 0.4560288
vt 0.566965282 0.692438066
vn -0.0000002 -0.8660254 0.4999998
v -0.0000000 0.0972372 0.4733494
vt 0.574325979 0.720327258
vn -0.0000002 -0.8660254 0.4999998
f 295/295/295 296/296/296 297/297/297
v -0.0318198 0.0938273 0.4674432
vt 0.543703616 0.710892677
vn -0.0000004 -0.8660250 0.5000006
v -0.0000000 0.0972372 0.4733494
vt 0.574325979 0.720327258
vn -0.0000004 -0.8660250 0.5000006
v -0.0176777 0.1008984 0.4796907
vt 0.561402857 0.730579913
vn -0.0000004 -0.8660250 0.5000006
f 298/298/298 299/299/299 300/300/300
v -0.0000000 0.0872372 0.4560288
vt 0.566965282 0.692438066
vn -0.0000000 -0.8660252 0.5000002
v 0.0318198 0.0938273 0.4674432
vt 0.599928498 0.710741937
vn -0.0000000 -0.8660252 0.5000002
v 0.0176777 0.1008984 0.4796907
vt 0.592638969 0.730496049
vn -0.0000000 -0.8660252 0.5000002
f 301/301/301 302/302/302 303/303/303
v -0.0000000 0.0872372 0.4560288
vt 0.566965282 0.692438066
vn 0.0000008 -0.8660255 0.4999998
v 0.0176777 0.1008984 0.4796907
vt 0.592638969 0.730496049
vn 0.0000008 -0.8660255 0.4999998
v -0.0000000 0.0972372 0.4733494
vt 0.574325979 0.720327258
vn 0.0000008 -0.8660255 0.4999998
f 304/304/304 305/305/305 306/306/306
v 0.0318198 0.0938273 0.4674432
vt 0.599928498 0.710741937
vn 0.0000000 -0.8660255 0.4999998
v 0.0450000 0.1097372 0.4950000
vt 0.623283863 0.755082011
vn 0.0000000 -0.8660255 0.4999998
v 0.0250000 0.1097372 0.4950000
vt 0.605614126 0.755129457
vn 0.0000000 -0.8660255 0.4999998
f 307/307/307 308/308/308 309/309/309
v 0.0318198 0.0938273 0.4674432
vt 0.599928498 0.710741937
vn -0.0000008 -0.8660256 0.4999996
v 0.0250000 0.1097372 0.4950000
vt 0.605614126 0.755129457
vn -0.0000008 -0.8660256 0.4999996
v 0.0176777 0.1008984 0.4796907
vt 0.592638969 0.730496049
vn -0.0000008 -0.8660256 0.4999996
f 310/310/310 311/311/311 312/312/312
v 0.0250000 0.1097372 0.4950000
vt 0.797735989 0.381476074
vn -0.7943425 0.2777210 -0.5402696
v 0.0176777 0.1185760 0.5103093
vt 0.822851658 0.382322907
vn -0.7943425 0.2777210 -0.5402696
v 0.0622254 0.2257204 0.4998888
vt 0.812489748 0.530338705
vn -0.7943425 0.2777210 -0.5402696
f 313/313/313 314/314/314 315/315/315
v 0.0250000 0.1097372 0.4950000
vt 0.797735989 0.381476074
vn -0.7943420 0.2777209 -0.5402703
v 0.0622254 0.2257204 0.4998888
vt 0.812489748 0.530338705
vn -0.7943420 0.2777209 -0.5402703
v 0.0880000 0.1946077 0.4460000
vt 0.724082410 0.527357936
vn -0.7943420 0.2777209 -0.5402703
f 316/316/316 317/317/317 318/318/318
v 0.0176777 0.1185760 0.5103093
vt 0.783946991 0.628503621
vn -0.3290250 0.0450637 -0.9432454
v 0.0000000 0.1222372 0.5166506
vt 0.793992639 0.604914069
vn -0.3290250 0.0450637 -0.9432454
v 0.0000000 0.2386077 0.5222102
vt 0.948836803 0.645247459
vn -0.3290250 0.0450637 -0.9432454
f 319/319/319 320/320/320 321/321/321
v 0.0176777 0.1185760 0.5103093
vt 0.783946991 0.628503621
vn -0.3290273 0.0450633 -0.9432446
v 0.0000000 0.2386077 0.5222102
vt 0.948836803 0.645247459
vn -0.3290273 0.0450633 -0.9432446
v 0.0622254 0.2257204 0.4998888
vt 0.913476467 0.728282332
vn -0.3290273 0.0450633 -0.9432446
f 322/322/322 323/323/323 324/324/324
v 0.0000000 0.1222372 0.5166506
vt 0.793992639 0.604914069
vn 0.3290253 0.0450624 -0.9432454
v -0.0176777 0.1185760 0.5103093
vt 0.793992579 0.578707993
vn 0.3290253 0.0450624 -0.9432454
v -0.0622254 0.2257204 0.4998888
vt 0.948836803 0.553002000
vn 0.3290253 0.0450624 -0.9432454
f 325/325/325 326/326/326 327/327/327
v 0.0000000 0.1222372 0.5166506
vt 0.793992639 0.604914069
vn 0.3290272 0.0450637 -0.9432446
v -0.0622254 0.2257204 0.4998888
vt 0.948836803 0.553002000
vn 0.3290272 0.0450637 -0.9432446
v 0.0000000 0.2386077 0.5222102
vt 0.948836803 0.645247459
vn 0.3290272 0.0450637 -0.9432446
f 328/328/328 329/329/329 330/330/330
v -0.0176777 0.1185760 0.5103093
vt 0.989878237 0.946203828
vn 0.7943422 0.2777214 -0.5402697
v -0.0250000 0.1097372 0.4950000
vt 0.968402565 0.949045122
vn 0.7943422 0.2777214 -0.5402697
v -0.0880000 0.1946077 0.4460000
vt 0.870789707 0.818942070
vn 0.7943422 0.2777214 -0.5402697
f 331/331/331 332/332/332 333/333/333
v -0.0176777 0.1185760 0.5103093
vt 0.989878237 0.946203828
vn 0.7943420 0.2777208 -0.5402702
v -0.0880000 0.1946077 0.4460000
vt 0.870789707 0.818942070
vn 0.7943420 0.2777208 -0.5402702
v -0.0622254 0.2257204 0.4998888
vt 0.946384132 0.808940828
vn 0.7943420 0.2777208 -0.5402702
f 334/334/334 335/335/335 336/336/336
v -0.0250000 0.1097372 0.4950000
vt 0.968402565 0.949045122
vn 0.7943420 0.6067481 0.0296218
v -0.0176777 0.1008984 0.4796907
vt 0.950631738 0.970187902
vn 0.7943420 0.6067481 0.0296218
v -0.0622254 0.1634950 0.3921112
vt 0.808236480 0.893364906
vn 0.7943420 0.6067481 0.0296218
f 337/337/337 338/338/338 339/339/339
v -0.0250000 0.1097372 0.4950000
vt 0.968402565 0.949045122
vn 0.7943420 0.6067482 0.0296218
v -0.0622254 0.1634950 0.3921112
vt 0.808236480 0.893364906
vn 0.7943420 0.6067482 0.0296218
v -0.0880000 0.1946077 0.4460000
vt 0.870789707 0.818942070
vn 0.7943420 0.6067482 0.0296218
f 340/340/340 341/341/341 342/342/342
v -0.0176777 0.1008984 0.4796907
vt 0.950631738 0.970187902
vn 0.3290271 0.8394055 0.4325962
v -0.0000000 0.0972372 0.4733494
vt 0.946975827 0.997247159
vn 0.3290271 0.8394055 0.4325962
v -0.0000000 0.1506077 0.3697897
vt 0.795367241 0.988613367
vn 0.3290271 0.8394055 0.4325962
f 343/343/343 344/344/344 345/345/345
v -0.0176777 0.1008984 0.4796907
vt 0.950631738 0.970187902
vn 0.3290273 0.8394055 0.4325962
v -0.0000000 0.1506077 0.3697897
vt 0.795367241 0.988613367
vn 0.3290273 0.8394055 0.4325962
v -0.0622254 0.1634950 0.3921112
vt 0.808236480 0.893364906
vn 0.3290273 0.8394055 0.4325962
f 346/346/346 347/347/347 348/348/348
v -0.0000000 0.0972372 0.4733494
vt 0.768951178 0.343729734
vn -0.3290271 0.8394055 0.4325963
v 0.0176777 0.1008984 0.4796907
vt 0.775409639 0.365490377
vn -0.3290271 0.8394055 0.4325963
v 0.0622254 0.1634950 0.3921112
vt 0.645493627 0.471087933
vn -0.3290271 0.8394055 0.4325963
f 349/349/349 350/350/350 351/351/351
v -0.0000000 0.0972372 0.4733494
vt 0.768951178 0.343729734
vn -0.3290272 0.8394055 0.4325962
v 0.0622254 0.1634950 0.3921112
vt 0.645493627 0.471087933
vn -0.3290272 0.8394055 0.4325962
v -0.0000000 0.1506077 0.3697897
vt 0.622759461 0.394490719
vn -0.3290272 0.8394055 0.4325962
f 352/352/352 353/353/353 354/354/354
v 0.0176777 0.1008984 0.4796907
vt 0.775409639 0.365490377
vn -0.7943420 0.6067481 0.0296217
v 0.0250000 0.1097372 0.4950000
vt 0.797735989 0.381476074
vn -0.7943420 0.6067481 0.0296217
v 0.0880000 0.1946077 0.4460000
vt 0.724082410 0.527357936
vn -0.7943420 0.6067481 0.0296217
f 355/355/355 356/356/356 357/357/357
v 0.0176777 0.1008984 0.4796907
vt 0.775409639 0.365490377
vn -0.7943420 0.6067482 0.0296218
v 0.0880000 0.1946077 0.4460000
vt 0.724082410 0.527357936
vn -0.7943420 0.6067482 0.0296218
v 0.0622254 0.1634950 0.3921112
vt 0.645493627 0.471087933
vn -0.7943420 0.6067482 0.0296218
f 358/358/358 359/359/359 360/360/360
v 0.0880000 0.1946077 0.4460000
vt 0.724082410 0.527357936
vn -0.4697025 0.6484728 -0.5990513
v 0.0622254 0.2257204 0.4998888
vt 0.812489748 0.530338705
vn -0.4697025 0.6484728 -0.5990513
v 0.0777817 0.2438909 0.5073609
vt 0.822851658 0.563714862
vn -0.4697025 0.6484728 -0.5990513
f 361/361/361 362/362/362 363/363/363
v 0.0880000 0.1946077 0.4460000
vt 0.724082410 0.527357936
vn -0.4697021 0.6484731 -0.5990514
v 0.0777817 0.2438909 0.5073609
vt 0.822851658 0.563714862
vn -0.4697021 0.6484731 -0.5990514
v 0.1100000 0.2050000 0.4400000
vt 0.712342620 0.559988976
vn -0.4697021 0.6484731 -0.5990514
f 364/364/364 365/365/365 366/366/366
v 0.0622254 0.2257204 0.4998888
vt 0.913476467 0.728282332
vn -0.1945566 0.5109017 -0.8373334
v 0.0000000 0.2386077 0.5222102
vt 0.948836803 0.645247459
vn -0.1945566 0.5109017 -0.8373334
v 0.0000000 0.2600000 0.5352628
vt 0.977596760 0.652738810
vn -0.1945566 0.5109017 -0.8373334
f 367/367/367 368/368/368 369/369/369
v 0.0622254 0.2257204 0.4998888
vt 0.913476467 0.728282332
vn -0.1945578 0.5109002 -0.8373340
v 0.0000000 0.2600000 0.5352628
vt 0.977596760 0.652738810
vn -0.1945578 0.5109002 -0.8373340
v 0.0777817 0.2438909 0.5073609
vt 0.933396220 0.756532311
vn -0.1945578 0.5109002 -0.8373340
f 370/370/370 371/371/371 372/372/372
v 0.0000000 0.2386077 0.5222102
vt 0.948836803 0.645247459
vn 0.1945573 0.5109000 -0.8373343
v -0.0622254 0.2257204 0.4998888
vt 0.948836803 0.553002000
vn 0.1945573 0.5109000 -0.8373343
v -0.0777817 0.2438909 0.5073609
vt 0.977596760 0.537432134
vn 0.1945573 0.5109000 -0.8373343
f 373/373/373 374/374/374 375/375/375
v 0.0000000 0.2386077 0.5222102
vt 0.948836803 0.645247459
vn 0.1945572 0.5109016 -0.8373333
v -0.0777817 0.2438909 0.5073609
vt 0.977596760 0.537432134
vn 0.1945572 0.5109016 -0.8373333
v 0.0000000 0.2600000 0.5352628
vt 0.977596760 0.652738810
vn 0.1945572 0.5109016 -0.8373333
f 376/376/376 377/377/377 378/378/378
v -0.0622254 0.2257204 0.4998888
vt 0.946384132 0.808940828
vn 0.4697022 0.6484731 -0.5990514
v -0.0880000 0.1946077 0.4460000
vt 0.870789707 0.818942070
vn 0.4697022 0.6484731 -0.5990514
v -0.1100000 0.2050000 0.4400000
vt 0.855223119 0.785158098
vn 0.4697022 0.6484731 -0.5990514
f 379/379/379 380/380/380 381/381/381
v -0.0622254 0.2257204 0.4998888
vt 0.946384132 0.808940828
vn 0.4697024 0.6484728 -0.5990514
v -0.1100000 0.2050000 0.4400000
vt 0.855223119 0.785158098
vn 0.4697024 0.6484728 -0.5990514
v -0.0777817 0.2438909 0.5073609
vt 0.949715912 0.772656560
vn 0.4697024 0.6484728 -0.5990514
f 382/382/382 383/383/383 384/384/384
v -0.0880000 0.1946077 0.4460000
vt 0.870789707 0.818942070
vn 0.4697015 0.8430306 -0.2620688
v -0.0622254 0.1634950 0.3921112
vt 0.808236480 0.893364906
vn 0.4697015 0.8430306 -0.2620688
v -0.0777817 0.1661091 0.3726390
vt 0.777031541 0.878186643
vn 0.4697015 0.8430306 -0.2620688
f 385/385/385 386/386/386 387/387/387
v -0.0880000 0.1946077 0.4460000
vt 0.870789707 0.818942070
vn 0.4697021 0.8430303 -0.2620687
v -0.0777817 0.1661091 0.3726390
vt 0.777031541 0.878186643
vn 0.4697021 0.8430303 -0.2620687
v -0.1100000 0.2050000 0.4400000
vt 0.855223119 0.785158098
vn 0.4697021 0.8430303 -0.2620687
f 388/388/388 389/389/389 390/390/390
v -0.0622254 0.1634950 0.3921112
vt 0.808236480 0.893364906
vn 0.1945568 0.9806027 -0.0237865
v -0.0000000 0.1506077 0.3697897
vt 0.795367241 0.988613367
vn 0.1945568 0.9806027 -0.0237865
v -0.0000000 0.1500000 0.3447372
vt 0.760945082 0.997247159
vn 0.1945568 0.9806027 -0.0237865
f 391/391/391 392/392/392 393/393/393
v -0.0622254 0.1634950 0.3921112
vt 0.808236480 0.893364906
vn 0.1945568 0.9806028 -0.0237864
v -0.0000000 0.1500000 0.3447372
vt 0.760945082 0.997247159
vn 0.1945568 0.9806028 -0.0237864
v -0.0777817 0.1661091 0.3726390
vt 0.777031541 0.878186643
vn 0.1945568 0.9806028 -0.0237864
f 394/394/394 395/395/395 396/396/396
v -0.0000000 0.1506077 0.3697897
vt 0.622759461 0.394490719
vn -0.1945568 0.9806027 -0.0237864
v 0.0622254 0.1634950 0.3921112
vt 0.645493627 0.471087933
vn -0.1945568 0.9806027 -0.0237864
v 0.0777817 0.1661091 0.3726390
vt 0.614106536 0.489651322
vn -0.1945568 0.9806027 -0.0237864
f 397/397/397 398/398/398 399/399/399
v -0.0000000 0.1506077 0.3697897
vt 0.622759461 0.394490719
vn -0.1945568 0.9806028 -0.0237865
v 0.0777817 0.1661091 0.3726390
vt 0.614106536 0.489651322
vn -0.1945568 0.9806028 -0.0237865
v -0.0000000 0.1500000 0.3447372
vt 0.585689068 0.393904895
vn -0.1945568 0.9806028 -0.0237865
f 400/400/400 401/401/401 402/402/402
v 0.0622254 0.1634950 0.3921112
vt 0.645493627 0.471087933
vn -0.4697021 0.8430303 -0.2620685
v 0.0880000 0.1946077 0.4460000
vt 0.724082410 0.527357936
vn -0.4697021 0.8430303 -0.2620685
v 0.1100000 0.2050000 0.4400000
vt 0.712342620 0.559988976
vn -0.4697021 0.8430303 -0.2620685
f 403/403/403 404/404/404 405/405/405
v 0.0622254 0.1634950 0.3921112
vt 0.645493627 0.471087933
vn -0.4697016 0.8430304 -0.2620689
v 0.1100000 0.2050000 0.4400000
vt 0.712342620 0.559988976
vn -0.4697016 0.8430304 -0.2620689
v 0.0777817 0.1661091 0.3726390
vt 0.614106536 0.489651322
vn -0.4697016 0.8430304 -0.2620689
f 406/406/406 407/407/407 408/408/408
