# Authored through Blender MCP; native tiles are the scale reference.
mtllib pz_house_value_radio.mtl
usemtl native
v -0.1732000 -0.1811000 0.0000000
vt 0.002312077 0.911005318
vn -0.0000000 -0.0000000 -1.0000000
v -0.1732000 -0.0633000 0.0000000
vt 0.002312068 0.711448967
vn -0.0000000 -0.0000000 -1.0000000
v 0.2404000 -0.0633000 0.0000000
vt 0.499072522 0.711449027
vn -0.0000000 -0.0000000 -1.0000000
o pz_house_value_radio_|_1_caixa_painel_nativo
f 1/1/1 2/2/2 3/3/3
v -0.1732000 -0.1811000 0.0000000
vt 0.002312077 0.911005318
vn -0.0000000 0.0000000 -1.0000000
v 0.2404000 -0.0633000 0.0000000
vt 0.499072522 0.711449027
vn -0.0000000 0.0000000 -1.0000000
v 0.2404000 -0.1811000 0.0000000
vt 0.499072522 0.911005378
vn -0.0000000 0.0000000 -1.0000000
f 4/4/4 5/5/5 6/6/6
v -0.1732000 -0.1811000 0.2924000
vt 0.499072522 0.705038846
vn 0.0000000 0.0000000 1.0000000
v 0.2404000 -0.1811000 0.2924000
vt 0.002312068 0.705038846
vn 0.0000000 0.0000000 1.0000000
v 0.2404000 -0.0633000 0.2924000
vt 0.002312119 0.505482435
vn 0.0000000 0.0000000 1.0000000
f 7/7/7 8/8/8 9/9/9
v -0.1732000 -0.1811000 0.2924000
vt 0.499072522 0.705038846
vn -0.0000000 0.0000000 1.0000000
v 0.2404000 -0.0633000 0.2924000
vt 0.002312119 0.505482435
vn -0.0000000 0.0000000 1.0000000
v -0.1732000 -0.0633000 0.2924000
vt 0.499072522 0.505482435
vn -0.0000000 0.0000000 1.0000000
f 10/10/10 11/11/11 12/12/12
v -0.1732000 -0.1811000 0.0000000
vt 0.998144984 0.004292413
vn -0.0000000 -1.0000000 -0.0000000
v 0.2404000 -0.1811000 0.0000000
vt 0.998144925 0.501052916
vn -0.0000000 -1.0000000 -0.0000000
v 0.2404000 -0.1811000 0.2924000
vt 0.502811432 0.501052856
vn -0.0000000 -1.0000000 -0.0000000
f 13/13/13 14/14/14 15/15/15
v -0.1732000 -0.1811000 0.0000000
vt 0.998144984 0.004292413
vn 0.0000000 -1.0000000 -0.0000000
v 0.2404000 -0.1811000 0.2924000
vt 0.502811432 0.501052856
vn 0.0000000 -1.0000000 -0.0000000
v -0.1732000 -0.1811000 0.2924000
vt 0.502811491 0.004292386
vn 0.0000000 -1.0000000 -0.0000000
f 16/16/16 17/17/17 18/18/18
v 0.2404000 -0.1811000 0.0000000
vt 0.705038905 0.857533395
vn 1.0000000 0.0000000 0.0000000
v 0.2404000 -0.0633000 0.0000000
vt 0.505482554 0.857533395
vn 1.0000000 0.0000000 0.0000000
v 0.2404000 -0.0633000 0.2924000
vt 0.505482554 0.506341934
vn 1.0000000 0.0000000 0.0000000
f 19/19/19 20/20/20 21/21/21
v 0.2404000 -0.1811000 0.0000000
vt 0.705038905 0.857533395
vn 1.0000000 -0.0000000 0.0000000
v 0.2404000 -0.0633000 0.2924000
vt 0.505482554 0.506341934
vn 1.0000000 -0.0000000 0.0000000
v 0.2404000 -0.1811000 0.2924000
vt 0.705038905 0.506341934
vn 1.0000000 -0.0000000 0.0000000
f 22/22/22 23/23/23 24/24/24
v 0.2404000 -0.0633000 0.0000000
vt 0.498082221 0.002312004
vn -0.0000000 1.0000000 0.0000000
v -0.1732000 -0.0633000 0.0000000
vt 0.498082161 0.499072492
vn -0.0000000 1.0000000 0.0000000
v -0.1732000 -0.0633000 0.2924000
vt 0.002748646 0.499072462
vn -0.0000000 1.0000000 0.0000000
f 25/25/25 26/26/26 27/27/27
v 0.2404000 -0.0633000 0.0000000
vt 0.498082221 0.002312004
vn 0.0000000 1.0000000 0.0000000
v -0.1732000 -0.0633000 0.2924000
vt 0.002748646 0.499072462
vn 0.0000000 1.0000000 0.0000000
v 0.2404000 -0.0633000 0.2924000
vt 0.002748765 0.002311977
vn 0.0000000 1.0000000 0.0000000
f 28/28/28 29/29/29 30/30/30
v -0.1732000 -0.0633000 0.0000000
vt 0.909024894 0.857533336
vn -1.0000000 0.0000000 0.0000000
v -0.1732000 -0.1811000 0.0000000
vt 0.709468484 0.857533336
vn -1.0000000 0.0000000 0.0000000
v -0.1732000 -0.1811000 0.2924000
vt 0.709468484 0.506341934
vn -1.0000000 0.0000000 0.0000000
f 31/31/31 32/32/32 33/33/33
v -0.1732000 -0.0633000 0.0000000
vt 0.909024894 0.857533336
vn -1.0000000 -0.0000000 -0.0000000
v -0.1732000 -0.1811000 0.2924000
vt 0.709468484 0.506341934
vn -1.0000000 -0.0000000 -0.0000000
v -0.1732000 -0.0633000 0.2924000
vt 0.909024894 0.506341934
vn -1.0000000 -0.0000000 -0.0000000
f 34/34/34 35/35/35 36/36/36
v -0.0930000 -0.0000000 0.4800000
vt 0.861494124 0.862339795
vn 0.0000000 0.0000000 0.9999999
v -0.0870000 0.0000000 0.4800000
vt 0.854306996 0.867435515
vn 0.0000000 0.0000000 0.9999999
v -0.0900000 0.0030000 0.4800000
vt 0.854306996 0.862339795
vn 0.0000000 0.0000000 0.9999999
o pz_house_value_radio_|_2_antena
f 37/37/37 38/38/38 39/39/39
v -0.0930000 -0.0000000 0.4800000
vt 0.861494124 0.862339795
vn 0.0000000 0.0000000 1.0000000
v -0.0900000 -0.0030000 0.4800000
vt 0.861494124 0.867435515
vn 0.0000000 0.0000000 1.0000000
v -0.0870000 0.0000000 0.4800000
vt 0.854306996 0.867435515
vn 0.0000000 0.0000000 1.0000000
f 40/40/40 41/41/41 42/42/42
v -0.0870000 0.0000000 0.2400000
vt 0.866300642 0.864209175
vn -0.0000000 0.0000000 1.0000000
v -0.0900000 0.0030000 0.2400000
vt 0.871396363 0.864209175
vn -0.0000000 0.0000000 1.0000000
v -0.0930000 -0.0000000 0.2400000
vt 0.871396363 0.871396363
vn -0.0000000 0.0000000 1.0000000
f 43/43/43 44/44/44 45/45/45
v -0.0900000 -0.0030000 0.2400000
vt 0.866300642 0.871396363
vn -0.0000000 0.0000000 1.0000000
v -0.0870000 0.0000000 0.2400000
vt 0.866300642 0.864209175
vn -0.0000000 0.0000000 1.0000000
v -0.0930000 -0.0000000 0.2400000
vt 0.871396363 0.871396363
vn -0.0000000 0.0000000 1.0000000
f 46/46/46 47/47/47 48/48/48
v -0.0900000 -0.0030000 0.2400000
vt 0.847631097 0.875357211
vn -0.7071068 -0.7071067 -0.0000000
v -0.0900000 -0.0030000 0.4800000
vt 0.504836142 0.875357211
vn -0.7071068 -0.7071067 -0.0000000
v -0.0930000 -0.0000000 0.4800000
vt 0.504836142 0.869313538
vn -0.7071068 -0.7071067 -0.0000000
f 49/49/49 50/50/50 51/51/51
v -0.0900000 -0.0030000 0.2400000
vt 0.847631097 0.875357211
vn -0.7071068 -0.7071067 0.0000000
v -0.0930000 -0.0000000 0.4800000
vt 0.504836142 0.869313538
vn -0.7071068 -0.7071067 0.0000000
v -0.0930000 -0.0000000 0.2400000
vt 0.847631097 0.869313538
vn -0.7071068 -0.7071067 0.0000000
f 52/52/52 53/53/53 54/54/54
v -0.0870000 0.0000000 0.2400000
vt 0.847631037 0.895161808
vn 0.7071070 -0.7071065 0.0000000
v -0.0870000 0.0000000 0.4800000
vt 0.504835904 0.895161808
vn 0.7071070 -0.7071065 0.0000000
v -0.0900000 -0.0030000 0.4800000
vt 0.504835904 0.889118254
vn 0.7071070 -0.7071065 0.0000000
f 55/55/55 56/56/56 57/57/57
v -0.0870000 0.0000000 0.2400000
vt 0.847631037 0.895161808
vn 0.7071070 -0.7071065 0.0000000
v -0.0900000 -0.0030000 0.4800000
vt 0.504835904 0.889118254
vn 0.7071070 -0.7071065 0.0000000
v -0.0900000 -0.0030000 0.2400000
vt 0.847631037 0.889118195
vn 0.7071070 -0.7071065 0.0000000
f 58/58/58 59/59/59 60/60/60
v -0.0900000 0.0030000 0.2400000
vt 0.847631037 0.885259509
vn 0.7071069 0.7071067 0.0000000
v -0.0900000 0.0030000 0.4800000
vt 0.504831851 0.885259509
vn 0.7071069 0.7071067 0.0000000
v -0.0870000 0.0000000 0.4800000
vt 0.504831851 0.879215896
vn 0.7071069 0.7071067 0.0000000
f 61/61/61 62/62/62 63/63/63
v -0.0900000 0.0030000 0.2400000
vt 0.847631037 0.885259509
vn 0.7071069 0.7071067 -0.0000000
v -0.0870000 0.0000000 0.4800000
vt 0.504831851 0.879215896
vn 0.7071069 0.7071067 -0.0000000
v -0.0870000 0.0000000 0.2400000
vt 0.847631037 0.879215896
vn 0.7071069 0.7071067 -0.0000000
f 64/64/64 65/65/65 66/66/66
v -0.0930000 -0.0000000 0.2400000
vt 0.847631097 0.869313538
vn -0.7071070 0.7071065 0.0000000
v -0.0930000 -0.0000000 0.4800000
vt 0.504836142 0.869313538
vn -0.7071070 0.7071065 0.0000000
v -0.0900000 0.0030000 0.4800000
vt 0.504836142 0.863269925
vn -0.7071070 0.7071065 0.0000000
f 67/67/67 68/68/68 69/69/69
v -0.0930000 -0.0000000 0.2400000
vt 0.847631097 0.869313538
vn -0.7071070 0.7071065 0.0000000
v -0.0900000 0.0030000 0.4800000
vt 0.504836142 0.863269925
vn -0.7071070 0.7071065 0.0000000
v -0.0900000 0.0030000 0.2400000
vt 0.847631097 0.863269925
vn -0.7071070 0.7071065 0.0000000
f 70/70/70 71/71/71 72/72/72
