# Authored through Blender MCP; native tiles are the scale reference.
mtllib pz_house_toilet_tank.mtl
usemtl native
v 0.1900000 0.1000000 0.0000000
vt 0.056350525 0.139823690
vn 0.0000000 0.0000000 -1.0000000
v 0.1343503 -0.0767767 0.0000000
vt 0.105987571 0.068178818
vn 0.0000000 0.0000000 -1.0000000
v -0.0000000 -0.1500000 0.0000000
vt 0.176184937 0.054264653
vn 0.0000000 0.0000000 -1.0000000
o pz_house_toilet_tank_|_1_parte_1
f 1/1/1 2/2/2 3/3/3
v -0.0000000 -0.1500000 0.0000000
vt 0.176184937 0.054264653
vn 0.0000000 0.0000000 -1.0000000
v -0.1343503 -0.0767767 0.0000000
vt 0.225821912 0.106231920
vn 0.0000000 0.0000000 -1.0000000
v -0.1900000 0.1000000 0.0000000
vt 0.225821912 0.193638891
vn 0.0000000 0.0000000 -1.0000000
f 4/4/4 5/5/5 6/6/6
v -0.1900000 0.1000000 0.0000000
vt 0.225821912 0.193638891
vn 0.0000000 0.0000000 -1.0000000
v -0.1343503 0.2767767 0.0000000
vt 0.176184937 0.265283793
vn 0.0000000 0.0000000 -1.0000000
v 0.0000000 0.3500000 0.0000000
vt 0.105987638 0.279197931
vn 0.0000000 0.0000000 -1.0000000
f 7/7/7 8/8/8 9/9/9
v 0.0000000 0.3500000 0.0000000
vt 0.105987638 0.279197931
vn 0.0000000 0.0000000 -1.0000000
v 0.1343503 0.2767767 0.0000000
vt 0.056350525 0.227230683
vn 0.0000000 0.0000000 -1.0000000
v 0.1900000 0.1000000 0.0000000
vt 0.056350525 0.139823690
vn 0.0000000 0.0000000 -1.0000000
f 10/10/10 11/11/11 12/12/12
v 0.1900000 0.1000000 0.0000000
vt 0.056350525 0.139823690
vn 0.0000000 0.0000000 -1.0000000
v -0.0000000 -0.1500000 0.0000000
vt 0.176184937 0.054264653
vn 0.0000000 0.0000000 -1.0000000
v -0.1900000 0.1000000 0.0000000
vt 0.225821912 0.193638891
vn 0.0000000 0.0000000 -1.0000000
f 13/13/13 14/14/14 15/15/15
v -0.1900000 0.1000000 0.0000000
vt 0.225821912 0.193638891
vn -0.0000000 0.0000000 -1.0000000
v 0.0000000 0.3500000 0.0000000
vt 0.105987638 0.279197931
vn -0.0000000 0.0000000 -1.0000000
v 0.1900000 0.1000000 0.0000000
vt 0.056350525 0.139823690
vn -0.0000000 0.0000000 -1.0000000
f 16/16/16 17/17/17 18/18/18
v 0.0848528 -0.0060660 0.2800000
vt 0.985404551 0.463188618
vn 0.0000000 0.0000000 1.0000000
v 0.1200000 0.1000000 0.2800000
vt 0.985404551 0.515887558
vn 0.0000000 0.0000000 1.0000000
v 0.0848528 0.2060660 0.2800000
vt 0.954206407 0.558158338
vn 0.0000000 0.0000000 1.0000000
f 19/19/19 20/20/20 21/21/21
v 0.0848528 0.2060660 0.2800000
vt 0.954206407 0.558158338
vn -0.0000000 0.0000000 0.9999999
v 0.0000000 0.2500000 0.2800000
vt 0.910085618 0.565239012
vn -0.0000000 0.0000000 0.9999999
v -0.0848528 0.2060660 0.2800000
vt 0.878887534 0.532982111
vn -0.0000000 0.0000000 0.9999999
f 22/22/22 23/23/23 24/24/24
v -0.0848528 0.2060660 0.2800000
vt 0.878887534 0.532982111
vn 0.0000000 -0.0000000 1.0000000
v -0.1200000 0.1000000 0.2800000
vt 0.878887534 0.480283082
vn 0.0000000 -0.0000000 1.0000000
v -0.0848528 -0.0060660 0.2800000
vt 0.910085618 0.438012391
vn 0.0000000 -0.0000000 1.0000000
f 25/25/25 26/26/26 27/27/27
v -0.0848528 -0.0060660 0.2800000
vt 0.910085618 0.438012391
vn 0.0000000 0.0000000 1.0000000
v -0.0000000 -0.0500000 0.2800000
vt 0.954206467 0.430931598
vn 0.0000000 0.0000000 1.0000000
v 0.0848528 -0.0060660 0.2800000
vt 0.985404551 0.463188618
vn 0.0000000 0.0000000 1.0000000
f 28/28/28 29/29/29 30/30/30
v 0.0848528 -0.0060660 0.2800000
vt 0.985404551 0.463188618
vn -0.0000000 0.0000000 1.0000000
v 0.0848528 0.2060660 0.2800000
vt 0.954206407 0.558158338
vn -0.0000000 0.0000000 1.0000000
v -0.0848528 0.2060660 0.2800000
vt 0.878887534 0.532982111
vn -0.0000000 0.0000000 1.0000000
f 31/31/31 32/32/32 33/33/33
v -0.0848528 0.2060660 0.2800000
vt 0.878887534 0.532982111
vn 0.0000000 -0.0000000 1.0000000
v -0.0848528 -0.0060660 0.2800000
vt 0.910085618 0.438012391
vn 0.0000000 -0.0000000 1.0000000
v 0.0848528 -0.0060660 0.2800000
vt 0.985404551 0.463188618
vn 0.0000000 -0.0000000 1.0000000
f 34/34/34 35/35/35 36/36/36
v 0.1900000 0.1000000 0.0000000
vt 0.090665780 0.813965499
vn 0.8818797 0.2776178 0.3810728
v 0.1343503 0.2767767 0.0000000
vt 0.176551640 0.818357944
vn 0.8818797 0.2776178 0.3810728
v 0.1131371 0.2343503 0.0800000
vt 0.155940682 0.858040929
vn 0.8818797 0.2776178 0.3810728
f 37/37/37 38/38/38 39/39/39
v 0.1900000 0.1000000 0.0000000
vt 0.090665780 0.813965499
vn 0.8900608 0.3104633 0.3337728
v 0.1131371 0.2343503 0.0800000
vt 0.155940682 0.858040929
vn 0.8900608 0.3104633 0.3337728
v 0.1600000 0.1000000 0.0800000
vt 0.090667009 0.854342043
vn 0.8900608 0.3104633 0.3337728
f 40/40/40 41/41/41 42/42/42
v 0.1343503 0.2767767 0.0000000
vt 0.986536443 0.860350132
vn 0.3996754 0.7333254 0.5499941
v 0.0000000 0.3500000 0.0000000
vt 0.989510357 0.928350687
vn 0.3996754 0.7333254 0.5499941
v 0.0000000 0.2900000 0.0800000
vt 0.946357548 0.928351521
vn 0.3996754 0.7333254 0.5499941
f 43/43/43 44/44/44 45/45/45
v 0.1343503 0.2767767 0.0000000
vt 0.986536443 0.860350132
vn 0.3796567 0.7718506 0.5100073
v 0.0000000 0.2900000 0.0800000
vt 0.946357548 0.928351521
vn 0.3796567 0.7718506 0.5100073
v 0.1131371 0.2343503 0.0800000
vt 0.944097459 0.871087849
vn 0.3796567 0.7718506 0.5100073
f 46/46/46 47/47/47 48/48/48
v 0.0000000 0.3500000 0.0000000
vt 0.989510357 0.928350687
vn -0.4117047 0.7553967 0.5097793
v -0.1343503 0.2767767 0.0000000
vt 0.986536443 0.996353567
vn -0.4117047 0.7553967 0.5097793
v -0.1131371 0.2343503 0.0800000
vt 0.944097459 0.985617042
vn -0.4117047 0.7553967 0.5097793
f 49/49/49 50/50/50 51/51/51
v 0.0000000 0.3500000 0.0000000
vt 0.989510357 0.928350687
vn -0.3661728 0.7444375 0.5583282
v -0.1131371 0.2343503 0.0800000
vt 0.944097459 0.985617042
vn -0.3661728 0.7444375 0.5583282
v 0.0000000 0.2900000 0.0800000
vt 0.946357548 0.928351521
vn -0.3661728 0.7444375 0.5583282
f 52/52/52 53/53/53 54/54/54
v -0.1343503 0.2767767 0.0000000
vt 0.908761919 0.140680939
vn -0.8981259 0.2827321 0.3367972
v -0.1900000 0.1000000 0.0000000
vt 0.822884619 0.145073459
vn -0.8981259 0.2827321 0.3367972
v -0.1600000 0.1000000 0.0800000
vt 0.822883368 0.104696877
vn -0.8981259 0.2827321 0.3367972
f 55/55/55 56/56/56 57/57/57
v -0.1343503 0.2767767 0.0000000
vt 0.908761919 0.140680939
vn -0.8689725 0.3031075 0.3911682
v -0.1600000 0.1000000 0.0800000
vt 0.822883368 0.104696877
vn -0.8689725 0.3031075 0.3911682
v -0.1131371 0.2343503 0.0800000
vt 0.888149679 0.100997947
vn -0.8689725 0.3031075 0.3911682
f 58/58/58 59/59/59 60/60/60
v -0.1900000 0.1000000 0.0000000
vt 0.822884619 0.145073459
vn -0.8818797 -0.2776178 0.3810728
v -0.1343503 -0.0767767 0.0000000
vt 0.736998737 0.140680939
vn -0.8818797 -0.2776178 0.3810728
v -0.1131371 -0.0343503 0.0800000
vt 0.757609725 0.100997955
vn -0.8818797 -0.2776178 0.3810728
f 61/61/61 62/62/62 63/63/63
v -0.1900000 0.1000000 0.0000000
vt 0.822884619 0.145073459
vn -0.8900607 -0.3104634 0.3337728
v -0.1131371 -0.0343503 0.0800000
vt 0.757609725 0.100997955
vn -0.8900607 -0.3104634 0.3337728
v -0.1600000 0.1000000 0.0800000
vt 0.822883368 0.104696877
vn -0.8900607 -0.3104634 0.3337728
f 64/64/64 65/65/65 66/66/66
v -0.1343503 -0.0767767 0.0000000
vt 0.976956248 0.292373866
vn -0.3996755 -0.7333254 0.5499941
v -0.0000000 -0.1500000 0.0000000
vt 0.979930103 0.360374361
vn -0.3996755 -0.7333254 0.5499941
v -0.0000000 -0.0900000 0.0800000
vt 0.936777532 0.360375285
vn -0.3996755 -0.7333254 0.5499941
f 67/67/67 68/68/68 69/69/69
v -0.1343503 -0.0767767 0.0000000
vt 0.976956248 0.292373866
vn -0.3796568 -0.7718505 0.5100073
v -0.0000000 -0.0900000 0.0800000
vt 0.936777532 0.360375285
vn -0.3796568 -0.7718505 0.5100073
v -0.1131371 -0.0343503 0.0800000
vt 0.934517264 0.303111494
vn -0.3796568 -0.7718505 0.5100073
f 70/70/70 71/71/71 72/72/72
v -0.0000000 -0.1500000 0.0000000
vt 0.979930103 0.360374361
vn 0.4117047 -0.7553967 0.5097794
v 0.1343503 -0.0767767 0.0000000
vt 0.976956248 0.428377271
vn 0.4117047 -0.7553967 0.5097794
v 0.1131371 -0.0343503 0.0800000
vt 0.934517264 0.417640716
vn 0.4117047 -0.7553967 0.5097794
f 73/73/73 74/74/74 75/75/75
v -0.0000000 -0.1500000 0.0000000
vt 0.979930103 0.360374361
vn 0.3661729 -0.7444375 0.5583281
v 0.1131371 -0.0343503 0.0800000
vt 0.934517264 0.417640716
vn 0.3661729 -0.7444375 0.5583281
v -0.0000000 -0.0900000 0.0800000
vt 0.936777532 0.360375285
vn 0.3661729 -0.7444375 0.5583281
f 76/76/76 77/77/77 78/78/78
v 0.1343503 -0.0767767 0.0000000
vt 0.004788445 0.818357944
vn 0.8981259 -0.2827321 0.3367972
v 0.1900000 0.1000000 0.0000000
vt 0.090665780 0.813965499
vn 0.8981259 -0.2827321 0.3367972
v 0.1600000 0.1000000 0.0800000
vt 0.090667009 0.854342043
vn 0.8981259 -0.2827321 0.3367972
f 79/79/79 80/80/80 81/81/81
v 0.1343503 -0.0767767 0.0000000
vt 0.004788445 0.818357944
vn 0.8689725 -0.3031076 0.3911682
v 0.1600000 0.1000000 0.0800000
vt 0.090667009 0.854342043
vn 0.8689725 -0.3031076 0.3911682
v 0.1131371 -0.0343503 0.0800000
vt 0.025400624 0.858040929
vn 0.8689725 -0.3031076 0.3911682
f 82/82/82 83/83/83 84/84/84
v 0.1600000 0.1000000 0.0800000
vt 0.090667009 0.854342043
vn 0.9292560 0.3241351 0.1772563
v 0.1131371 0.2343503 0.0800000
vt 0.155940682 0.858040929
vn 0.9292560 0.3241351 0.1772563
v 0.0848528 0.2060660 0.2800000
vt 0.142199203 0.955294967
vn 0.9292560 0.3241351 0.1772563
f 85/85/85 86/86/86 87/87/87
v 0.1600000 0.1000000 0.0800000
vt 0.090667009 0.854342043
vn 0.9325832 0.3090309 0.1865167
v 0.0848528 0.2060660 0.2800000
vt 0.142199203 0.955294967
vn 0.9325832 0.3090309 0.1865167
v 0.1200000 0.1000000 0.2800000
vt 0.090667531 0.952520788
vn 0.9325832 0.3090309 0.1865167
f 88/88/88 89/89/89 90/90/90
v 0.1131371 0.2343503 0.0800000
vt 0.944097459 0.871087849
vn 0.4344334 0.8832129 0.1766425
v 0.0000000 0.2900000 0.0800000
vt 0.946357548 0.928351521
vn 0.4344334 0.8832129 0.1766425
v 0.0000000 0.2500000 0.2800000
vt 0.842943370 0.928351939
vn 0.4344334 0.8832129 0.1766425
f 91/91/91 92/92/92 93/93/93
v 0.1131371 0.2343503 0.0800000
vt 0.944097459 0.871087849
vn 0.4516594 0.8723218 0.1872392
v 0.0000000 0.2500000 0.2800000
vt 0.842943370 0.928351939
vn 0.4516594 0.8723218 0.1872392
v 0.0848528 0.2060660 0.2800000
vt 0.841159105 0.885404229
vn 0.4516594 0.8723218 0.1872392
f 94/94/94 95/95/95 96/96/96
v 0.0000000 0.2900000 0.0800000
vt 0.946357548 0.928351521
vn -0.4336706 0.8816620 0.1860161
v -0.1131371 0.2343503 0.0800000
vt 0.944097459 0.985617042
vn -0.4336706 0.8816620 0.1860161
v -0.0848528 0.2060660 0.2800000
vt 0.841159105 0.971301079
vn -0.4336706 0.8816620 0.1860161
f 97/97/97 98/98/98 99/99/99
v 0.0000000 0.2900000 0.0800000
vt 0.946357548 0.928351521
vn -0.4527065 0.8743442 0.1748688
v -0.0848528 0.2060660 0.2800000
vt 0.841159105 0.971301079
vn -0.4527065 0.8743442 0.1748688
v 0.0000000 0.2500000 0.2800000
vt 0.842943370 0.928351939
vn -0.4527065 0.8743442 0.1748688
f 100/100/100 101/101/101 102/102/102
v -0.1131371 0.2343503 0.0800000
vt 0.888149679 0.100997947
vn -0.9278093 0.3236305 0.1855619
v -0.1600000 0.1000000 0.0800000
vt 0.822883368 0.104696877
vn -0.9278093 0.3236305 0.1855619
v -0.1200000 0.1000000 0.2800000
vt 0.822882771 0.006518069
vn -0.9278093 0.3236305 0.1855619
f 103/103/103 104/104/104 105/105/105
v -0.1131371 0.2343503 0.0800000
vt 0.888149679 0.100997947
vn -0.9344336 0.3096440 0.1759392
v -0.1200000 0.1000000 0.2800000
vt 0.822882771 0.006518069
vn -0.9344336 0.3096440 0.1759392
v -0.0848528 0.2060660 0.2800000
vt 0.874409020 0.003743940
vn -0.9344336 0.3096440 0.1759392
f 106/106/106 107/107/107 108/108/108
v -0.1600000 0.1000000 0.0800000
vt 0.822883368 0.104696877
vn -0.9292560 -0.3241351 0.1772562
v -0.1131371 -0.0343503 0.0800000
vt 0.757609725 0.100997955
vn -0.9292560 -0.3241351 0.1772562
v -0.0848528 -0.0060660 0.2800000
vt 0.771351218 0.003743941
vn -0.9292560 -0.3241351 0.1772562
f 109/109/109 110/110/110 111/111/111
v -0.1600000 0.1000000 0.0800000
vt 0.822883368 0.104696877
vn -0.9325832 -0.3090309 0.1865166
v -0.0848528 -0.0060660 0.2800000
vt 0.771351218 0.003743941
vn -0.9325832 -0.3090309 0.1865166
v -0.1200000 0.1000000 0.2800000
vt 0.822882771 0.006518069
vn -0.9325832 -0.3090309 0.1865166
f 112/112/112 113/113/113 114/114/114
v -0.1131371 -0.0343503 0.0800000
vt 0.934517264 0.303111494
vn -0.4344336 -0.8832129 0.1766426
v -0.0000000 -0.0900000 0.0800000
vt 0.936777532 0.360375285
vn -0.4344336 -0.8832129 0.1766426
v -0.0000000 -0.0500000 0.2800000
vt 0.833363056 0.360375732
vn -0.4344336 -0.8832129 0.1766426
f 115/115/115 116/116/116 117/117/117
v -0.1131371 -0.0343503 0.0800000
vt 0.934517264 0.303111494
vn -0.4516594 -0.8723218 0.1872392
v -0.0000000 -0.0500000 0.2800000
vt 0.833363056 0.360375732
vn -0.4516594 -0.8723218 0.1872392
v -0.0848528 -0.0060660 0.2800000
vt 0.831578732 0.317427903
vn -0.4516594 -0.8723218 0.1872392
f 118/118/118 119/119/119 120/120/120
v -0.0000000 -0.0900000 0.0800000
vt 0.936777532 0.360375285
vn 0.4336707 -0.8816620 0.1860161
v 0.1131371 -0.0343503 0.0800000
vt 0.934517264 0.417640716
vn 0.4336707 -0.8816620 0.1860161
v 0.0848528 -0.0060660 0.2800000
vt 0.831578910 0.403324783
vn 0.4336707 -0.8816620 0.1860161
f 121/121/121 122/122/122 123/123/123
v -0.0000000 -0.0900000 0.0800000
vt 0.936777532 0.360375285
vn 0.4527065 -0.8743442 0.1748688
v 0.0848528 -0.0060660 0.2800000
vt 0.831578910 0.403324783
vn 0.4527065 -0.8743442 0.1748688
v -0.0000000 -0.0500000 0.2800000
vt 0.833363056 0.360375732
vn 0.4527065 -0.8743442 0.1748688
f 124/124/124 125/125/125 126/126/126
v 0.1131371 -0.0343503 0.0800000
vt 0.025400624 0.858040929
vn 0.9278093 -0.3236305 0.1855619
v 0.1600000 0.1000000 0.0800000
vt 0.090667009 0.854342043
vn 0.9278093 -0.3236305 0.1855619
v 0.1200000 0.1000000 0.2800000
vt 0.090667531 0.952520788
vn 0.9278093 -0.3236305 0.1855619
f 127/127/127 128/128/128 129/129/129
v 0.1131371 -0.0343503 0.0800000
vt 0.025400624 0.858040929
vn 0.9344336 -0.3096440 0.1759391
v 0.1200000 0.1000000 0.2800000
vt 0.090667531 0.952520788
vn 0.9344336 -0.3096440 0.1759391
v 0.0848528 -0.0060660 0.2800000
vt 0.039141346 0.955294967
vn 0.9344336 -0.3096440 0.1759391
f 130/130/130 131/131/131 132/132/132
v 0.1700000 0.0500000 0.2600000
vt 0.409505635 0.475601763
vn 0.0000000 0.0000000 -1.0000000
v 0.1202082 -0.1197056 0.2600000
vt 0.321249694 0.449481547
vn 0.0000000 0.0000000 -1.0000000
v -0.0000000 -0.1900000 0.2600000
vt 0.284692854 0.386421770
vn 0.0000000 0.0000000 -1.0000000
o pz_house_toilet_tank_|_2_parte_2
f 133/133/133 134/134/134 135/135/135
v -0.0000000 -0.1900000 0.2600000
vt 0.284692854 0.386421770
vn 0.0000000 0.0000000 -1.0000000
v -0.1202082 -0.1197056 0.2600000
vt 0.321249723 0.323361963
vn 0.0000000 0.0000000 -1.0000000
v -0.1700000 0.0500000 0.2600000
vt 0.409505635 0.297241777
vn 0.0000000 0.0000000 -1.0000000
f 136/136/136 137/137/137 138/138/138
v -0.1700000 0.0500000 0.2600000
vt 0.409505635 0.297241777
vn 0.0000000 0.0000000 -1.0000000
v -0.1202082 0.2197056 0.2600000
vt 0.497761548 0.323361963
vn 0.0000000 0.0000000 -1.0000000
v 0.0000000 0.2900000 0.2600000
vt 0.534318328 0.386421770
vn 0.0000000 0.0000000 -1.0000000
f 139/139/139 140/140/140 141/141/141
v 0.0000000 0.2900000 0.2600000
vt 0.534318328 0.386421770
vn 0.0000000 0.0000000 -1.0000000
v 0.1202082 0.2197056 0.2600000
vt 0.497761488 0.449481577
vn 0.0000000 0.0000000 -1.0000000
v 0.1700000 0.0500000 0.2600000
vt 0.409505635 0.475601763
vn 0.0000000 0.0000000 -1.0000000
f 142/142/142 143/143/143 144/144/144
v 0.1700000 0.0500000 0.2600000
vt 0.409505635 0.475601763
vn 0.0000000 0.0000000 -1.0000000
v -0.0000000 -0.1900000 0.2600000
vt 0.284692854 0.386421770
vn 0.0000000 0.0000000 -1.0000000
v -0.1700000 0.0500000 0.2600000
vt 0.409505635 0.297241777
vn 0.0000000 0.0000000 -1.0000000
f 145/145/145 146/146/146 147/147/147
v -0.1700000 0.0500000 0.2600000
vt 0.409505635 0.297241777
vn -0.0000000 0.0000000 -1.0000000
v 0.0000000 0.2900000 0.2600000
vt 0.534318328 0.386421770
vn -0.0000000 0.0000000 -1.0000000
v 0.1700000 0.0500000 0.2600000
vt 0.409505635 0.475601763
vn -0.0000000 0.0000000 -1.0000000
f 148/148/148 149/149/149 150/150/150
v 0.0919239 -0.0702082 0.3400000
vt 0.944345951 0.185073957
vn 0.0000000 0.0000000 1.0000000
v 0.1300000 0.0500000 0.3400000
vt 0.944345951 0.244544014
vn 0.0000000 0.0000000 1.0000000
v 0.0919239 0.1702082 0.3400000
vt 0.910402715 0.293168783
vn 0.0000000 0.0000000 1.0000000
f 151/151/151 152/152/152 153/153/153
v 0.0919239 0.1702082 0.3400000
vt 0.910402715 0.293168783
vn -0.0000000 0.0000000 1.0000000
v 0.0000000 0.2200000 0.3400000
vt 0.862399936 0.302464455
vn -0.0000000 0.0000000 1.0000000
v -0.0919239 0.1702082 0.3400000
vt 0.828456700 0.266985893
vn -0.0000000 0.0000000 1.0000000
f 154/154/154 155/155/155 156/156/156
v -0.0919239 0.1702082 0.3400000
vt 0.828456700 0.266985893
vn 0.0000000 -0.0000000 1.0000000
v -0.1300000 0.0500000 0.3400000
vt 0.828456700 0.207515836
vn 0.0000000 -0.0000000 1.0000000
v -0.0919239 -0.0702082 0.3400000
vt 0.862399876 0.158891082
vn 0.0000000 -0.0000000 1.0000000
f 157/157/157 158/158/158 159/159/159
v -0.0919239 -0.0702082 0.3400000
vt 0.862399876 0.158891082
vn 0.0000000 0.0000000 1.0000000
v -0.0000000 -0.1200000 0.3400000
vt 0.910402715 0.149595380
vn 0.0000000 0.0000000 1.0000000
v 0.0919239 -0.0702082 0.3400000
vt 0.944345951 0.185073957
vn 0.0000000 0.0000000 1.0000000
f 160/160/160 161/161/161 162/162/162
v 0.0919239 -0.0702082 0.3400000
vt 0.944345951 0.185073957
vn -0.0000000 0.0000000 1.0000000
v 0.0919239 0.1702082 0.3400000
vt 0.910402715 0.293168783
vn -0.0000000 0.0000000 1.0000000
v -0.0919239 0.1702082 0.3400000
vt 0.828456700 0.266985893
vn -0.0000000 0.0000000 1.0000000
f 163/163/163 164/164/164 165/165/165
v -0.0919239 0.1702082 0.3400000
vt 0.828456700 0.266985893
vn 0.0000000 -0.0000000 1.0000000
v -0.0919239 -0.0702082 0.3400000
vt 0.862399876 0.158891082
vn 0.0000000 -0.0000000 1.0000000
v 0.0919239 -0.0702082 0.3400000
vt 0.944345951 0.185073957
vn 0.0000000 -0.0000000 1.0000000
f 166/166/166 167/167/167 168/168/168
v 0.1700000 0.0500000 0.2600000
vt 0.681571484 0.538027823
vn 0.7586881 0.2226001 -0.6122430
v 0.1202082 0.2197056 0.2600000
vt 0.592987716 0.583030999
vn 0.7586881 0.2226001 -0.6122430
v 0.2262742 0.3257716 0.4300000
vt 0.495245993 0.538027883
vn 0.7586881 0.2226001 -0.6122430
f 169/169/169 170/170/170 171/171/171
v 0.1700000 0.0500000 0.2600000
vt 0.409505635 0.475601763
vn 0.7266136 0.2469524 -0.6411296
v 0.2262742 0.3257716 0.4300000
vt 0.552921414 0.505122542
vn 0.7266136 0.2469524 -0.6411296
v 0.3200000 0.0500000 0.4300000
vt 0.409505635 0.554290056
vn 0.7266136 0.2469524 -0.6411296
f 172/172/172 173/173/173 174/174/174
v 0.1202082 0.2197056 0.2600000
vt 0.698489666 0.344866872
vn 0.4015753 0.6867210 -0.6059303
v 0.0000000 0.2900000 0.2600000
vt 0.695484281 0.279696405
vn 0.4015753 0.6867210 -0.6059303
v 0.0000000 0.4400000 0.4300000
vt 0.780151665 0.279699177
vn 0.4015753 0.6867210 -0.6059303
f 175/175/175 176/176/176 177/177/177
v 0.1202082 0.2197056 0.2600000
vt 0.930659950 0.733578920
vn 0.3453843 0.6841692 -0.6423566
v 0.0000000 0.4400000 0.4300000
vt 0.788976252 0.692292929
vn 0.3453843 0.6841692 -0.6423566
v 0.2262742 0.3257716 0.4300000
vt 0.930659950 0.646073639
vn 0.3453843 0.6841692 -0.6423566
f 178/178/178 179/179/179 180/180/180
v 0.0000000 0.2900000 0.2600000
vt 0.534318328 0.386421770
vn -0.3839532 0.6565861 -0.6492108
v -0.1202082 0.2197056 0.2600000
vt 0.497761548 0.323361963
vn -0.3839532 0.6565861 -0.6492108
v -0.2262742 0.3257716 0.4300000
vt 0.552921414 0.267720968
vn -0.3839532 0.6565861 -0.6492108
f 181/181/181 182/182/182 183/183/183
v 0.0000000 0.2900000 0.2600000
vt 0.695484281 0.279696405
vn -0.3540204 0.7012766 -0.6187735
v -0.2262742 0.3257716 0.4300000
vt 0.785035372 0.157020971
vn -0.3540204 0.7012766 -0.6187735
v 0.0000000 0.4400000 0.4300000
vt 0.780151665 0.279699177
vn -0.3540204 0.7012766 -0.6187735
f 184/184/184 185/185/185 186/186/186
v -0.1202082 0.2197056 0.2600000
vt 0.497761548 0.323361963
vn -0.7323245 0.2148650 -0.6461686
v -0.1700000 0.0500000 0.2600000
vt 0.409505635 0.297241777
vn -0.7323245 0.2148650 -0.6461686
v -0.3200000 0.0500000 0.4300000
vt 0.409505665 0.218553528
vn -0.7323245 0.2148650 -0.6461686
f 187/187/187 188/188/188 189/189/189
v -0.1202082 0.2197056 0.2600000
vt 0.555039167 0.676500857
vn -0.7424024 0.2523185 -0.6206239
v -0.3200000 0.0500000 0.4300000
vt 0.644415975 0.746978402
vn -0.7424024 0.2523185 -0.6206239
v -0.2262742 0.3257716 0.4300000
vt 0.499155432 0.754999757
vn -0.7424024 0.2523185 -0.6206239
f 190/190/190 191/191/191 192/192/192
v -0.1700000 0.0500000 0.2600000
vt 0.264143169 0.462592691
vn -0.7586881 -0.2226001 -0.6122430
v -0.1202082 -0.1197056 0.2600000
vt 0.219140008 0.374008924
vn -0.7586881 -0.2226001 -0.6122430
v -0.2262742 -0.2257717 0.4300000
vt 0.264143169 0.276267111
vn -0.7586881 -0.2226001 -0.6122430
f 193/193/193 194/194/194 195/195/195
v -0.1700000 0.0500000 0.2600000
vt 0.409505635 0.297241777
vn -0.7266136 -0.2469524 -0.6411296
v -0.2262742 -0.2257717 0.4300000
vt 0.266089708 0.267720968
vn -0.7266136 -0.2469524 -0.6411296
v -0.3200000 0.0500000 0.4300000
vt 0.409505665 0.218553528
vn -0.7266136 -0.2469524 -0.6411296
f 196/196/196 197/197/197 198/198/198
v -0.1202082 -0.1197056 0.2600000
vt 0.061242372 0.684803545
vn -0.4015753 -0.6867210 -0.6059303
v -0.0000000 -0.1900000 0.2600000
vt 0.126412958 0.681798220
vn -0.4015753 -0.6867210 -0.6059303
v -0.0000000 -0.3400000 0.4300000
vt 0.126410261 0.766465545
vn -0.4015753 -0.6867210 -0.6059303
f 199/199/199 200/200/200 201/201/201
v -0.1202082 -0.1197056 0.2600000
vt 0.470804483 0.791295350
vn -0.3453842 -0.6841692 -0.6423567
v -0.0000000 -0.3400000 0.4300000
vt 0.470804513 0.938871682
vn -0.3453842 -0.6841692 -0.6423567
v -0.2262742 -0.2257717 0.4300000
vt 0.386793166 0.815775812
vn -0.3453842 -0.6841692 -0.6423567
f 202/202/202 203/203/203 204/204/204
v -0.0000000 -0.1900000 0.2600000
vt 0.284692854 0.386421770
vn 0.3839532 -0.6565861 -0.6492109
v 0.1202082 -0.1197056 0.2600000
vt 0.321249694 0.449481547
vn 0.3839532 -0.6565861 -0.6492109
v 0.2262742 -0.2257717 0.4300000
vt 0.266089708 0.505122542
vn 0.3839532 -0.6565861 -0.6492109
f 205/205/205 206/206/206 207/207/207
v -0.0000000 -0.1900000 0.2600000
vt 0.126412958 0.681798220
vn 0.3540204 -0.7012767 -0.6187735
v 0.2262742 -0.2257717 0.4300000
vt 0.249088407 0.771349251
vn 0.3540204 -0.7012767 -0.6187735
v -0.0000000 -0.3400000 0.4300000
vt 0.126410261 0.766465545
vn 0.3540204 -0.7012767 -0.6187735
f 208/208/208 209/209/209 210/210/210
v 0.1202082 -0.1197056 0.2600000
vt 0.321249694 0.449481547
vn 0.7323245 -0.2148650 -0.6461686
v 0.1700000 0.0500000 0.2600000
vt 0.409505635 0.475601763
vn 0.7323245 -0.2148650 -0.6461686
v 0.3200000 0.0500000 0.4300000
vt 0.409505635 0.554290056
vn 0.7323245 -0.2148650 -0.6461686
f 211/211/211 212/212/212 213/213/213
v 0.1202082 -0.1197056 0.2600000
vt 0.624493480 0.664008021
vn 0.7424024 -0.2523185 -0.6206240
v 0.3200000 0.0500000 0.4300000
vt 0.694971025 0.574631155
vn 0.7424024 -0.2523185 -0.6206240
v 0.2262742 -0.2257717 0.4300000
vt 0.702992380 0.719891787
vn 0.7424024 -0.2523185 -0.6206240
f 214/214/214 215/215/215 216/216/216
v 0.3200000 0.0500000 0.4300000
vt 0.694971025 0.574631155
vn 0.9468110 0.3217904 0.0000000
v 0.2262742 0.3257716 0.4300000
vt 0.702992380 0.429354876
vn 0.9468110 0.3217904 0.0000000
v 0.2262742 0.3257716 0.5000000
vt 0.739053309 0.429355860
vn 0.9468110 0.3217904 0.0000000
f 217/217/217 218/218/218 219/219/219
v 0.3200000 0.0500000 0.4300000
vt 0.694971025 0.574631155
vn 0.9468110 0.3217904 0.0000000
v 0.2262742 0.3257716 0.5000000
vt 0.739053309 0.429355860
vn 0.9468110 0.3217904 0.0000000
v 0.3200000 0.0500000 0.5000000
vt 0.731031954 0.574632049
vn 0.9468110 0.3217904 0.0000000
f 220/220/220 221/221/221 222/222/222
v 0.2262742 0.3257716 0.4300000
vt 0.785035372 0.402373374
vn 0.4506546 0.8926985 0.0000000
v 0.0000000 0.4400000 0.4300000
vt 0.780151665 0.279699177
vn 0.4506546 0.8926985 0.0000000
v 0.0000000 0.4400000 0.5000000
vt 0.817655444 0.279699177
vn 0.4506546 0.8926985 0.0000000
f 223/223/223 224/224/224 225/225/225
v 0.2262742 0.3257716 0.4300000
vt 0.785035372 0.402373374
vn 0.4506546 0.8926985 0.0000000
v 0.0000000 0.4400000 0.5000000
vt 0.817655444 0.279699177
vn 0.4506546 0.8926985 0.0000000
v 0.2262742 0.3257716 0.5000000
vt 0.822538972 0.402373523
vn 0.4506546 0.8926985 0.0000000
f 226/226/226 227/227/227 228/228/228
v 0.0000000 0.4400000 0.4300000
vt 0.780151665 0.279699177
vn -0.4506546 0.8926985 0.0000000
v -0.2262742 0.3257716 0.4300000
vt 0.785035372 0.157020971
vn -0.4506546 0.8926985 0.0000000
v -0.2262742 0.3257716 0.5000000
vt 0.822539091 0.157021090
vn -0.4506546 0.8926985 0.0000000
f 229/229/229 230/230/230 231/231/231
v 0.0000000 0.4400000 0.4300000
vt 0.780151665 0.279699177
vn -0.4506546 0.8926985 0.0000000
v -0.2262742 0.3257716 0.5000000
vt 0.822539091 0.157021090
vn -0.4506546 0.8926985 0.0000000
v 0.0000000 0.4400000 0.5000000
vt 0.817655444 0.279699177
vn -0.4506546 0.8926985 0.0000000
f 232/232/232 233/233/233 234/234/234
v -0.2262742 0.3257716 0.4300000
vt 0.499155432 0.754999757
vn -0.9468110 0.3217904 0.0000000
v -0.3200000 0.0500000 0.4300000
vt 0.644415975 0.746978402
vn -0.9468110 0.3217904 0.0000000
v -0.3200000 0.0500000 0.5000000
vt 0.644415021 0.783039272
vn -0.9468110 0.3217904 0.0000000
f 235/235/235 236/236/236 237/237/237
v -0.2262742 0.3257716 0.4300000
vt 0.499155432 0.754999757
vn -0.9468110 0.3217904 0.0000000
v -0.3200000 0.0500000 0.5000000
vt 0.644415021 0.783039272
vn -0.9468110 0.3217904 0.0000000
v -0.2262742 0.3257716 0.5000000
vt 0.499154449 0.791060805
vn -0.9468110 0.3217904 0.0000000
f 238/238/238 239/239/239 240/240/240
v -0.3200000 0.0500000 0.4300000
vt 0.644415975 0.746978402
vn -0.9468110 -0.3217903 -0.0000000
v -0.2262742 -0.2257717 0.4300000
vt 0.789692283 0.754999816
vn -0.9468110 -0.3217903 -0.0000000
v -0.2262742 -0.2257717 0.5000000
vt 0.789691329 0.791060805
vn -0.9468110 -0.3217903 -0.0000000
f 241/241/241 242/242/242 243/243/243
v -0.3200000 0.0500000 0.4300000
vt 0.644415975 0.746978402
vn -0.9468110 -0.3217903 0.0000000
v -0.2262742 -0.2257717 0.5000000
vt 0.789691329 0.791060805
vn -0.9468110 -0.3217903 0.0000000
v -0.3200000 0.0500000 0.5000000
vt 0.644415021 0.783039272
vn -0.9468110 -0.3217903 0.0000000
f 244/244/244 245/245/245 246/246/246
v -0.2262742 -0.2257717 0.4300000
vt 0.003735856 0.771349251
vn -0.4506545 -0.8926985 -0.0000000
v -0.0000000 -0.3400000 0.4300000
vt 0.126410261 0.766465545
vn -0.4506545 -0.8926985 -0.0000000
v -0.0000000 -0.3400000 0.5000000
vt 0.126410067 0.803969264
vn -0.4506545 -0.8926985 -0.0000000
f 247/247/247 248/248/248 249/249/249
v -0.2262742 -0.2257717 0.4300000
vt 0.003735856 0.771349251
vn -0.4506545 -0.8926985 0.0000000
v -0.0000000 -0.3400000 0.5000000
vt 0.126410067 0.803969264
vn -0.4506545 -0.8926985 0.0000000
v -0.2262742 -0.2257717 0.5000000
vt 0.003735793 0.808852971
vn -0.4506545 -0.8926985 0.0000000
f 250/250/250 251/251/251 252/252/252
v -0.0000000 -0.3400000 0.4300000
vt 0.126410261 0.766465545
vn 0.4506545 -0.8926985 0.0000000
v 0.2262742 -0.2257717 0.4300000
vt 0.249088407 0.771349251
vn 0.4506545 -0.8926985 0.0000000
v 0.2262742 -0.2257717 0.5000000
vt 0.249088332 0.808852971
vn 0.4506545 -0.8926985 0.0000000
f 253/253/253 254/254/254 255/255/255
v -0.0000000 -0.3400000 0.4300000
vt 0.126410261 0.766465545
vn 0.4506545 -0.8926985 0.0000000
v 0.2262742 -0.2257717 0.5000000
vt 0.249088332 0.808852971
vn 0.4506545 -0.8926985 0.0000000
v -0.0000000 -0.3400000 0.5000000
vt 0.126410067 0.803969264
vn 0.4506545 -0.8926985 0.0000000
f 256/256/256 257/257/257 258/258/258
v 0.2262742 -0.2257717 0.4300000
vt 0.702992380 0.719891787
vn 0.9468110 -0.3217903 0.0000000
v 0.3200000 0.0500000 0.4300000
vt 0.694971025 0.574631155
vn 0.9468110 -0.3217903 0.0000000
v 0.3200000 0.0500000 0.5000000
vt 0.731031954 0.574632049
vn 0.9468110 -0.3217903 0.0000000
f 259/259/259 260/260/260 261/261/261
v 0.2262742 -0.2257717 0.4300000
vt 0.702992380 0.719891787
vn 0.9468110 -0.3217903 0.0000000
v 0.3200000 0.0500000 0.5000000
vt 0.731031954 0.574632049
vn 0.9468110 -0.3217903 0.0000000
v 0.2262742 -0.2257717 0.5000000
vt 0.739053428 0.719892800
vn 0.9468110 -0.3217903 0.0000000
f 262/262/262 263/263/263 264/264/264
v 0.3200000 0.0500000 0.5000000
vt 0.287409663 0.226831406
vn -0.0000000 0.0000000 1.0000000
v 0.2262742 0.3257716 0.5000000
vt 0.204427645 0.335751593
vn -0.0000000 0.0000000 1.0000000
v 0.1732412 0.2621320 0.5000000
vt 0.190525562 0.299284995
vn -0.0000000 0.0000000 1.0000000
f 265/265/265 266/266/266 267/267/267
v 0.3200000 0.0500000 0.5000000
vt 0.287409663 0.226831406
vn -0.0000000 -0.0000000 1.0000000
v 0.1732412 0.2621320 0.5000000
vt 0.190525562 0.299284995
vn -0.0000000 -0.0000000 1.0000000
v 0.2450000 0.0500000 0.5000000
vt 0.254208267 0.215448961
vn -0.0000000 -0.0000000 1.0000000
f 268/268/268 269/269/269 270/270/270
v 0.2262742 0.3257716 0.5000000
vt 0.204427645 0.335751593
vn -0.0000000 0.0000000 1.0000000
v 0.0000000 0.4400000 0.5000000
vt 0.087073311 0.352418989
vn -0.0000000 0.0000000 1.0000000
v 0.0000000 0.3500000 0.5000000
vt 0.100614190 0.312229931
vn -0.0000000 0.0000000 1.0000000
f 271/271/271 272/272/272 273/273/273
v 0.2262742 0.3257716 0.5000000
vt 0.204427645 0.335751593
vn -0.0000000 -0.0000000 1.0000000
v 0.0000000 0.3500000 0.5000000
vt 0.100614190 0.312229931
vn -0.0000000 -0.0000000 1.0000000
v 0.1732412 0.2621320 0.5000000
vt 0.190525562 0.299284995
vn -0.0000000 -0.0000000 1.0000000
f 274/274/274 275/275/275 276/276/276
v 0.0000000 0.4400000 0.5000000
vt 0.087073311 0.352418989
vn 0.0000000 -0.0000000 1.0000000
v -0.2262742 0.3257716 0.5000000
vt 0.004091258 0.267070055
vn 0.0000000 -0.0000000 1.0000000
v -0.1732412 0.2621320 0.5000000
vt 0.037143014 0.246700659
vn 0.0000000 -0.0000000 1.0000000
f 277/277/277 278/278/278 279/279/279
v 0.0000000 0.4400000 0.5000000
vt 0.087073311 0.352418989
vn 0.0000000 -0.0000000 1.0000000
v -0.1732412 0.2621320 0.5000000
vt 0.037143014 0.246700659
vn 0.0000000 -0.0000000 1.0000000
v 0.0000000 0.3500000 0.5000000
vt 0.100614190 0.312229931
vn 0.0000000 -0.0000000 1.0000000
f 280/280/280 281/281/281 282/282/282
v -0.2262742 0.3257716 0.5000000
vt 0.004091258 0.267070055
vn 0.0000000 -0.0000000 0.9999999
v -0.3200000 0.0500000 0.5000000
vt 0.004091242 0.129701063
vn 0.0000000 -0.0000000 0.9999999
v -0.2450000 0.0500000 0.5000000
vt 0.037292615 0.141083524
vn 0.0000000 -0.0000000 0.9999999
f 283/283/283 284/284/284 285/285/285
v -0.2262742 0.3257716 0.5000000
vt 0.004091258 0.267070055
vn 0.0000000 -0.0000000 1.0000000
v -0.2450000 0.0500000 0.5000000
vt 0.037292615 0.141083524
vn 0.0000000 -0.0000000 1.0000000
v -0.1732412 0.2621320 0.5000000
vt 0.037143014 0.246700659
vn 0.0000000 -0.0000000 1.0000000
f 286/286/286 287/287/287 288/288/288
v -0.3200000 0.0500000 0.5000000
vt 0.004091242 0.129701063
vn 0.0000000 0.0000000 1.0000000
v -0.2262742 -0.2257717 0.5000000
vt 0.087073237 0.020780856
vn 0.0000000 0.0000000 1.0000000
v -0.1732412 -0.1621320 0.5000000
vt 0.100975297 0.057247497
vn 0.0000000 0.0000000 1.0000000
f 289/289/289 290/290/290 291/291/291
v -0.3200000 0.0500000 0.5000000
vt 0.004091242 0.129701063
vn 0.0000000 0.0000000 1.0000000
v -0.1732412 -0.1621320 0.5000000
vt 0.100975297 0.057247497
vn 0.0000000 0.0000000 1.0000000
v -0.2450000 0.0500000 0.5000000
vt 0.037292615 0.141083524
vn 0.0000000 0.0000000 1.0000000
f 292/292/292 293/293/293 294/294/294
v -0.2262742 -0.2257717 0.5000000
vt 0.087073237 0.020780856
vn 0.0000000 0.0000000 1.0000000
v -0.0000000 -0.3400000 0.5000000
vt 0.204427540 0.004113501
vn 0.0000000 0.0000000 1.0000000
v -0.0000000 -0.2500000 0.5000000
vt 0.190886691 0.044302594
vn 0.0000000 0.0000000 1.0000000
f 295/295/295 296/296/296 297/297/297
v -0.2262742 -0.2257717 0.5000000
vt 0.087073237 0.020780856
vn 0.0000000 0.0000000 1.0000000
v -0.0000000 -0.2500000 0.5000000
vt 0.190886691 0.044302594
vn 0.0000000 0.0000000 1.0000000
v -0.1732412 -0.1621320 0.5000000
vt 0.100975297 0.057247497
vn 0.0000000 0.0000000 1.0000000
f 298/298/298 299/299/299 300/300/300
v -0.0000000 -0.3400000 0.5000000
vt 0.204427540 0.004113501
vn 0.0000000 0.0000000 0.9999999
v 0.2262742 -0.2257717 0.5000000
vt 0.287409663 0.089462414
vn 0.0000000 0.0000000 0.9999999
v 0.1732412 -0.1621320 0.5000000
vt 0.254357845 0.109831817
vn 0.0000000 0.0000000 0.9999999
f 301/301/301 302/302/302 303/303/303
v -0.0000000 -0.3400000 0.5000000
vt 0.204427540 0.004113501
vn -0.0000000 0.0000000 1.0000000
v 0.1732412 -0.1621320 0.5000000
vt 0.254357845 0.109831817
vn -0.0000000 0.0000000 1.0000000
v -0.0000000 -0.2500000 0.5000000
vt 0.190886691 0.044302594
vn -0.0000000 0.0000000 1.0000000
f 304/304/304 305/305/305 306/306/306
v 0.2262742 -0.2257717 0.5000000
vt 0.287409663 0.089462414
vn -0.0000000 0.0000000 1.0000000
v 0.3200000 0.0500000 0.5000000
vt 0.287409663 0.226831406
vn -0.0000000 0.0000000 1.0000000
v 0.2450000 0.0500000 0.5000000
vt 0.254208267 0.215448961
vn -0.0000000 0.0000000 1.0000000
f 307/307/307 308/308/308 309/309/309
v 0.2262742 -0.2257717 0.5000000
vt 0.287409663 0.089462414
vn -0.0000000 0.0000000 1.0000000
v 0.2450000 0.0500000 0.5000000
vt 0.254208267 0.215448961
vn -0.0000000 0.0000000 1.0000000
v 0.1732412 -0.1621320 0.5000000
vt 0.254357845 0.109831817
vn -0.0000000 0.0000000 1.0000000
f 310/310/310 311/311/311 312/312/312
v 0.2450000 0.0500000 0.5000000
vt 0.296919942 0.111636207
vn -0.7885886 -0.2667593 0.5540465
v 0.1732412 0.2621320 0.5000000
vt 0.302819699 0.004282017
vn -0.7885886 -0.2667593 0.5540465
v 0.0919239 0.1702082 0.3400000
vt 0.388687372 0.050795235
vn -0.7885886 -0.2667593 0.5540465
f 313/313/313 314/314/314 315/315/315
v 0.2450000 0.0500000 0.5000000
vt 0.296919942 0.111636207
vn -0.7864190 -0.2490994 0.5652387
v 0.0919239 0.1702082 0.3400000
vt 0.388687372 0.050795235
vn -0.7864190 -0.2490994 0.5652387
v 0.1300000 0.0500000 0.3400000
vt 0.385556847 0.111629106
vn -0.7864190 -0.2490994 0.5652387
f 316/316/316 317/317/317 318/318/318
v 0.1732412 0.2621320 0.5000000
vt 0.804283321 0.895075858
vn -0.3662875 -0.7221754 0.5867675
v 0.0000000 0.3500000 0.5000000
vt 0.800536215 0.801393270
vn -0.3662875 -0.7221754 0.5867675
v 0.0000000 0.2200000 0.3400000
vt 0.891583800 0.801391423
vn -0.3662875 -0.7221754 0.5867675
f 319/319/319 320/320/320 321/321/321
v 0.1732412 0.2621320 0.5000000
vt 0.804283321 0.895075858
vn -0.3815303 -0.7043675 0.5985826
v 0.0000000 0.2200000 0.3400000
vt 0.891583800 0.801391423
vn -0.3815303 -0.7043675 0.5985826
v 0.0919239 0.1702082 0.3400000
vt 0.893707156 0.851100445
vn -0.3815303 -0.7043675 0.5985826
f 322/322/322 323/323/323 324/324/324
v 0.0000000 0.3500000 0.5000000
vt 0.800536215 0.801393270
vn 0.3632159 -0.7161194 0.5960264
v -0.1732412 0.2621320 0.5000000
vt 0.804283321 0.707707822
vn 0.3632159 -0.7161194 0.5960264
v -0.0919239 0.1702082 0.3400000
vt 0.893707156 0.751680553
vn 0.3632159 -0.7161194 0.5960264
f 325/325/325 326/326/326 327/327/327
v 0.0000000 0.3500000 0.5000000
vt 0.800536215 0.801393270
vn 0.3875403 -0.7154629 0.5813136
v -0.0919239 0.1702082 0.3400000
vt 0.893707156 0.751680553
vn 0.3875403 -0.7154629 0.5813136
v 0.0000000 0.2200000 0.3400000
vt 0.891583800 0.801391423
vn 0.3875403 -0.7154629 0.5813136
f 328/328/328 329/329/329 330/330/330
v -0.1732412 0.2621320 0.5000000
vt 0.473541647 0.782423913
vn 0.7830128 -0.2648732 0.5627905
v -0.2450000 0.0500000 0.5000000
vt 0.366198987 0.788323641
vn 0.7830128 -0.2648732 0.5627905
v -0.1300000 0.0500000 0.3400000
vt 0.366191894 0.699686766
vn 0.7830128 -0.2648732 0.5627905
f 331/331/331 332/332/332 333/333/333
v -0.1732412 0.2621320 0.5000000
vt 0.473541647 0.782423913
vn 0.7963825 -0.2522553 0.5496747
v -0.1300000 0.0500000 0.3400000
vt 0.366191894 0.699686766
vn 0.7963825 -0.2522553 0.5496747
v -0.0919239 0.1702082 0.3400000
vt 0.427019656 0.696556270
vn 0.7963825 -0.2522553 0.5496747
f 334/334/334 335/335/335 336/336/336
v -0.2450000 0.0500000 0.5000000
vt 0.366198987 0.788323641
vn 0.7885886 0.2667593 0.5540465
v -0.1732412 -0.1621320 0.5000000
vt 0.258844882 0.782423973
vn 0.7885886 0.2667593 0.5540465
v -0.0919239 -0.0702082 0.3400000
vt 0.305358052 0.696556270
vn 0.7885886 0.2667593 0.5540465
f 337/337/337 338/338/338 339/339/339
v -0.2450000 0.0500000 0.5000000
vt 0.366198987 0.788323641
vn 0.7864190 0.2490994 0.5652387
v -0.0919239 -0.0702082 0.3400000
vt 0.305358052 0.696556270
vn 0.7864190 0.2490994 0.5652387
v -0.1300000 0.0500000 0.3400000
vt 0.366191894 0.699686766
vn 0.7864190 0.2490994 0.5652387
f 340/340/340 341/341/341 342/342/342
v -0.1732412 -0.1621320 0.5000000
vt 0.413322479 0.888591468
vn 0.3662875 0.7221754 0.5867675
v -0.0000000 -0.2500000 0.5000000
vt 0.319639921 0.892338634
vn 0.3662875 0.7221754 0.5867675
v -0.0000000 -0.1200000 0.3400000
vt 0.319637984 0.801290989
vn 0.3662875 0.7221754 0.5867675
f 343/343/343 344/344/344 345/345/345
v -0.1732412 -0.1621320 0.5000000
vt 0.413322479 0.888591468
vn 0.3815303 0.7043675 0.5985826
v -0.0000000 -0.1200000 0.3400000
vt 0.319637984 0.801290989
vn 0.3815303 0.7043675 0.5985826
v -0.0919239 -0.0702082 0.3400000
vt 0.369347006 0.799167633
vn 0.3815303 0.7043675 0.5985826
f 346/346/346 347/347/347 348/348/348
v -0.0000000 -0.2500000 0.5000000
vt 0.319639921 0.892338634
vn -0.3632159 0.7161194 0.5960263
v 0.1732412 -0.1621320 0.5000000
vt 0.225954399 0.888591528
vn -0.3632159 0.7161194 0.5960263
v 0.0919239 -0.0702082 0.3400000
vt 0.269927263 0.799167633
vn -0.3632159 0.7161194 0.5960263
f 349/349/349 350/350/350 351/351/351
v -0.0000000 -0.2500000 0.5000000
vt 0.319639921 0.892338634
vn -0.3875403 0.7154629 0.5813136
v 0.0919239 -0.0702082 0.3400000
vt 0.269927263 0.799167633
vn -0.3875403 0.7154629 0.5813136
v -0.0000000 -0.1200000 0.3400000
vt 0.319637984 0.801290989
vn -0.3875403 0.7154629 0.5813136
f 352/352/352 353/353/353 354/354/354
v 0.1732412 -0.1621320 0.5000000
vt 0.302819788 0.218978778
vn -0.7830128 0.2648732 0.5627905
v 0.2450000 0.0500000 0.5000000
vt 0.296919942 0.111636207
vn -0.7830128 0.2648732 0.5627905
v 0.1300000 0.0500000 0.3400000
vt 0.385556847 0.111629106
vn -0.7830128 0.2648732 0.5627905
f 355/355/355 356/356/356 357/357/357
v 0.1732412 -0.1621320 0.5000000
vt 0.302819788 0.218978778
vn -0.7963825 0.2522553 0.5496747
v 0.1300000 0.0500000 0.3400000
vt 0.385556847 0.111629106
vn -0.7963825 0.2522553 0.5496747
v 0.0919239 -0.0702082 0.3400000
vt 0.388687372 0.172456786
vn -0.7963825 0.2522553 0.5496747
f 358/358/358 359/359/359 360/360/360
v -0.3300000 -0.3800000 0.5200000
vt 0.563144267 0.218378425
vn -0.0000000 -0.0000000 -1.0000000
v -0.3300000 -0.1150000 0.5200000
vt 0.687045991 0.218378425
vn -0.0000000 -0.0000000 -1.0000000
v 0.3300000 -0.1150000 0.5200000
vt 0.687045932 0.529654920
vn -0.0000000 -0.0000000 -1.0000000
o pz_house_toilet_tank_|_3_parte_3
f 361/361/361 362/362/362 363/363/363
v -0.3300000 -0.3800000 0.5200000
vt 0.563144267 0.218378425
vn -0.0000000 0.0000000 -1.0000000
v 0.3300000 -0.1150000 0.5200000
vt 0.687045932 0.529654920
vn -0.0000000 0.0000000 -1.0000000
v 0.3300000 -0.3800000 0.5200000
vt 0.563144267 0.529654920
vn -0.0000000 0.0000000 -1.0000000
f 364/364/364 365/365/365 366/366/366
v -0.3300000 -0.3800000 0.9617000
vt 0.529654920 0.688414574
vn 0.0000000 0.0000000 1.0000000
v 0.3300000 -0.3800000 0.9617000
vt 0.218378425 0.688414574
vn 0.0000000 0.0000000 1.0000000
v 0.3300000 -0.1150000 0.9617000
vt 0.218378454 0.564512849
vn 0.0000000 0.0000000 1.0000000
f 367/367/367 368/368/368 369/369/369
v -0.3300000 -0.3800000 0.9617000
vt 0.529654920 0.688414574
vn -0.0000000 0.0000000 1.0000000
v 0.3300000 -0.1150000 0.9617000
vt 0.218378454 0.564512849
vn -0.0000000 0.0000000 1.0000000
v -0.3300000 -0.1150000 0.9617000
vt 0.529654920 0.564512908
vn -0.0000000 0.0000000 1.0000000
f 370/370/370 371/371/371 372/372/372
v -0.3300000 -0.3800000 0.5200000
vt 0.417702287 0.004576093
vn -0.0000000 -1.0000000 -0.0000000
v 0.3300000 -0.3800000 0.5200000
vt 0.729473114 0.004576080
vn -0.0000000 -1.0000000 -0.0000000
v 0.3300000 -0.3800000 0.9617000
vt 0.729472578 0.210767090
vn -0.0000000 -1.0000000 -0.0000000
f 373/373/373 374/374/374 375/375/375
v -0.3300000 -0.3800000 0.5200000
vt 0.417702287 0.004576093
vn 0.0000000 -1.0000000 -0.0000000
v 0.3300000 -0.3800000 0.9617000
vt 0.729472578 0.210767090
vn 0.0000000 -1.0000000 -0.0000000
v -0.3300000 -0.3800000 0.9617000
vt 0.417701781 0.210767105
vn 0.0000000 -1.0000000 -0.0000000
f 376/376/376 377/377/377 378/378/378
v 0.3300000 -0.3800000 0.5200000
vt 0.719889343 0.797700226
vn 1.0000000 0.0000000 0.0000000
v 0.3300000 -0.1150000 0.5200000
vt 0.719892800 0.922448099
vn 1.0000000 0.0000000 0.0000000
v 0.3300000 -0.1150000 0.9617000
vt 0.512986422 0.922448099
vn 1.0000000 0.0000000 0.0000000
f 379/379/379 380/380/380 381/381/381
v 0.3300000 -0.3800000 0.5200000
vt 0.719889343 0.797700226
vn 1.0000000 -0.0000000 0.0000000
v 0.3300000 -0.1150000 0.9617000
vt 0.512986422 0.922448099
vn 1.0000000 -0.0000000 0.0000000
v 0.3300000 -0.3800000 0.9617000
vt 0.512982965 0.797700226
vn 1.0000000 -0.0000000 0.0000000
f 382/382/382 383/383/383 384/384/384
v 0.3300000 -0.1150000 0.5200000
vt 0.210767090 0.361588985
vn -0.0000000 1.0000000 0.0000000
v -0.3300000 -0.1150000 0.5200000
vt 0.210767075 0.673359752
vn -0.0000000 1.0000000 0.0000000
v -0.3300000 -0.1150000 0.9617000
vt 0.004576063 0.673359275
vn -0.0000000 1.0000000 0.0000000
f 385/385/385 386/386/386 387/387/387
v 0.3300000 -0.1150000 0.5200000
vt 0.210767090 0.361588985
vn 0.0000000 1.0000000 0.0000000
v -0.3300000 -0.1150000 0.9617000
vt 0.004576063 0.673359275
vn 0.0000000 1.0000000 0.0000000
v 0.3300000 -0.1150000 0.9617000
vt 0.004576078 0.361588448
vn 0.0000000 1.0000000 0.0000000
f 388/388/388 389/389/389 390/390/390
v -0.3300000 -0.1150000 0.5200000
vt 0.870440722 0.651458442
vn -1.0000000 0.0000000 0.0000000
v -0.3300000 -0.3800000 0.5200000
vt 0.745692790 0.651461899
vn -1.0000000 0.0000000 0.0000000
v -0.3300000 -0.3800000 0.9617000
vt 0.745692790 0.444555491
vn -1.0000000 0.0000000 0.0000000
f 391/391/391 392/392/392 393/393/393
v -0.3300000 -0.1150000 0.5200000
vt 0.870440722 0.651458442
vn -1.0000000 -0.0000000 -0.0000000
v -0.3300000 -0.3800000 0.9617000
vt 0.745692790 0.444555491
vn -1.0000000 -0.0000000 -0.0000000
v -0.3300000 -0.1150000 0.9617000
vt 0.870440722 0.444552094
vn -1.0000000 -0.0000000 -0.0000000
f 394/394/394 395/395/395 396/396/396
