# Authored through Blender MCP; native tiles are the scale reference.
mtllib pz_house_drawers_lightwood.mtl
usemtl native
v -0.4920000 -0.5077000 0.0000000
vt 0.203725926 0.390749425
vn -0.0000000 -0.0000000 -1.0000000
v -0.4920000 0.1339000 0.0000000
vt 0.013622222 0.272754023
vn -0.0000000 -0.0000000 -1.0000000
v 0.4626000 0.1339000 0.0000000
vt 0.296466667 0.097195402
vn -0.0000000 -0.0000000 -1.0000000
o pz_house_drawers_lightwood_|_1_corpo_gavetas
f 1/1/1 2/2/2 3/3/3
v -0.4920000 -0.5077000 0.0000000
vt 0.203725926 0.390749425
vn -0.0000000 0.0000000 -1.0000000
v 0.4626000 0.1339000 0.0000000
vt 0.296466667 0.097195402
vn -0.0000000 0.0000000 -1.0000000
v 0.4626000 -0.5077000 0.0000000
vt 0.486570370 0.215190805
vn -0.0000000 0.0000000 -1.0000000
f 4/4/4 5/5/5 6/6/6
v -0.4920000 -0.5077000 0.8674000
vt 0.652777778 0.390804598
vn 0.0000000 0.0000000 1.0000000
v 0.4626000 -0.5077000 0.8674000
vt 0.925925926 0.229885057
vn 0.0000000 0.0000000 1.0000000
v 0.4626000 0.1339000 0.8674000
vt 0.782407407 0.143678161
vn 0.0000000 0.0000000 1.0000000
f 7/7/7 8/8/8 9/9/9
v -0.4920000 -0.5077000 0.8674000
vt 0.652777778 0.390804598
vn -0.0000000 0.0000000 1.0000000
v 0.4626000 0.1339000 0.8674000
vt 0.782407407 0.143678161
vn -0.0000000 0.0000000 1.0000000
v -0.4920000 0.1339000 0.8674000
vt 0.509259259 0.298850575
vn -0.0000000 0.0000000 1.0000000
f 10/10/10 11/11/11 12/12/12
v -0.4920000 -0.5077000 0.0000000
vt 0.449074074 0.597701149
vn -0.0000000 -1.0000000 -0.0000000
v 0.4626000 -0.5077000 0.0000000
vt 0.319444444 0.557471264
vn -0.0000000 -1.0000000 -0.0000000
v 0.4626000 -0.5077000 0.8674000
vt 0.319444444 0.908045977
vn -0.0000000 -1.0000000 -0.0000000
f 13/13/13 14/14/14 15/15/15
v -0.4920000 -0.5077000 0.0000000
vt 0.449074074 0.597701149
vn 0.0000000 -1.0000000 -0.0000000
v 0.4626000 -0.5077000 0.8674000
vt 0.319444444 0.908045977
vn 0.0000000 -1.0000000 -0.0000000
v -0.4920000 -0.5077000 0.8674000
vt 0.449074074 0.988505747
vn 0.0000000 -1.0000000 -0.0000000
f 16/16/16 17/17/17 18/18/18
v 0.4626000 -0.5077000 0.0000000
vt 0.597222222 0.597701149
vn 1.0000000 0.0000000 0.0000000
v 0.4626000 0.1339000 0.0000000
vt 0.467592593 0.557471264
vn 1.0000000 0.0000000 0.0000000
v 0.4626000 0.1339000 0.8674000
vt 0.467592593 0.908045977
vn 1.0000000 0.0000000 0.0000000
f 19/19/19 20/20/20 21/21/21
v 0.4626000 -0.5077000 0.0000000
vt 0.597222222 0.597701149
vn 1.0000000 -0.0000000 0.0000000
v 0.4626000 0.1339000 0.8674000
vt 0.467592593 0.908045977
vn 1.0000000 -0.0000000 0.0000000
v 0.4626000 -0.5077000 0.8674000
vt 0.597222222 0.988505747
vn 1.0000000 -0.0000000 0.0000000
f 22/22/22 23/23/23 24/24/24
v 0.4626000 0.1339000 0.0000000
vt 0.296466667 0.419034483
vn -0.0000000 1.0000000 0.0000000
v -0.4920000 0.1339000 0.0000000
vt 0.013622222 0.594593103
vn -0.0000000 1.0000000 0.0000000
v -0.4920000 0.1339000 0.8674000
vt 0.013622222 0.985340175
vn -0.0000000 1.0000000 0.0000000
f 25/25/25 26/26/26 27/27/27
v 0.4626000 0.1339000 0.0000000
vt 0.296466667 0.419034483
vn 0.0000000 1.0000000 0.0000000
v -0.4920000 0.1339000 0.8674000
vt 0.013622222 0.985340175
vn 0.0000000 1.0000000 0.0000000
v 0.4626000 0.1339000 0.8674000
vt 0.296466667 0.809781554
vn 0.0000000 1.0000000 0.0000000
f 28/28/28 29/29/29 30/30/30
v -0.4920000 0.1339000 0.0000000
vt 0.615740741 0.557471264
vn -1.0000000 0.0000000 0.0000000
v -0.4920000 -0.5077000 0.0000000
vt 0.745370370 0.597701149
vn -1.0000000 0.0000000 0.0000000
v -0.4920000 -0.5077000 0.8674000
vt 0.745370370 0.988505747
vn -1.0000000 0.0000000 0.0000000
f 31/31/31 32/32/32 33/33/33
v -0.4920000 0.1339000 0.0000000
vt 0.615740741 0.557471264
vn -1.0000000 -0.0000000 -0.0000000
v -0.4920000 -0.5077000 0.8674000
vt 0.745370370 0.988505747
vn -1.0000000 -0.0000000 -0.0000000
v -0.4920000 0.1339000 0.8674000
vt 0.615740741 0.908045977
vn -1.0000000 -0.0000000 -0.0000000
f 34/34/34 35/35/35 36/36/36
