# Authored through Blender MCP; native tiles are the scale reference.
mtllib pz_house_drawers_dark.mtl
usemtl native
v -0.4528960 0.1537407 0.0000000
vt 0.010508429 0.271267657
vn -0.0000000 0.0000000 -1.0000000
v 0.4687039 0.1540592 0.0000000
vt 0.295349117 0.095664152
vn -0.0000000 0.0000000 -1.0000000
v 0.4688960 -0.4019407 0.0000000
vt 0.467311861 0.201532343
vn -0.0000000 0.0000000 -1.0000000
o pz_house_drawers_dark_|_1_corpo_gavetas
f 1/1/1 2/2/2 3/3/3
v -0.4528960 0.1537407 0.0000000
vt 0.010508429 0.271267657
vn 0.0000000 0.0000000 -1.0000000
v 0.4688960 -0.4019407 0.0000000
vt 0.467311861 0.201532343
vn 0.0000000 0.0000000 -1.0000000
v -0.4527039 -0.4022592 0.0000000
vt 0.182471173 0.377135848
vn 0.0000000 0.0000000 -1.0000000
f 4/4/4 5/5/5 6/6/6
v -0.4528960 0.1537407 0.8651000
vt 0.488013975 0.291717784
vn 0.0000000 0.0000000 1.0000000
v -0.4527039 -0.4022592 0.8651000
vt 0.647400381 0.380918888
vn 0.0000000 0.0000000 1.0000000
v 0.4688960 -0.4019407 0.8651000
vt 0.922616810 0.220183570
vn 0.0000000 0.0000000 1.0000000
f 7/7/7 8/8/8 9/9/9
v -0.4528960 0.1537407 0.8651000
vt 0.488013975 0.291717784
vn 0.0000000 0.0000000 1.0000000
v 0.4688960 -0.4019407 0.8651000
vt 0.922616810 0.220183570
vn 0.0000000 0.0000000 1.0000000
v 0.4687039 0.1540592 0.8651000
vt 0.768057549 0.125034734
vn 0.0000000 0.0000000 1.0000000
f 10/10/10 11/11/11 12/12/12
v -0.4528960 0.1537407 0.0000000
vt 0.318920788 0.547642901
vn -1.0000000 -0.0003455 -0.0000000
v -0.4527039 -0.4022592 0.0000000
vt 0.458937198 0.589285714
vn -1.0000000 -0.0003455 -0.0000000
v -0.4527039 -0.4022592 0.8651000
vt 0.458937198 0.988095238
vn -1.0000000 -0.0003455 -0.0000000
f 13/13/13 14/14/14 15/15/15
v -0.4528960 0.1537407 0.0000000
vt 0.318920788 0.547642901
vn -1.0000000 -0.0003455 0.0000000
v -0.4527039 -0.4022592 0.8651000
vt 0.458937198 0.988095238
vn -1.0000000 -0.0003455 0.0000000
v -0.4528960 0.1537407 0.8651000
vt 0.318920788 0.898860642
vn -1.0000000 -0.0003455 0.0000000
f 16/16/16 17/17/17 18/18/18
v -0.4527039 -0.4022592 0.0000000
vt 0.618328292 0.589277032
vn 0.0003456 -0.9999999 0.0000000
v 0.4688960 -0.4019407 0.0000000
vt 0.478260870 0.547619048
vn 0.0003456 -0.9999999 0.0000000
v 0.4688960 -0.4019407 0.8651000
vt 0.478260870 0.898809524
vn 0.0003456 -0.9999999 0.0000000
f 19/19/19 20/20/20 21/21/21
v -0.4527039 -0.4022592 0.0000000
vt 0.618328292 0.589277032
vn 0.0003456 -0.9999999 0.0000000
v 0.4688960 -0.4019407 0.8651000
vt 0.478260870 0.898809524
vn 0.0003456 -0.9999999 0.0000000
v -0.4527039 -0.4022592 0.8651000
vt 0.618328292 0.988076632
vn 0.0003456 -0.9999999 0.0000000
f 22/22/22 23/23/23 24/24/24
v 0.4688960 -0.4019407 0.0000000
vt 0.777697569 0.589261861
vn 1.0000000 0.0003455 0.0000000
v 0.4687039 0.1540592 0.0000000
vt 0.637681159 0.547619048
vn 1.0000000 0.0003455 0.0000000
v 0.4687039 0.1540592 0.8651000
vt 0.637681159 0.898809524
vn 1.0000000 0.0003455 0.0000000
f 25/25/25 26/26/26 27/27/27
v 0.4688960 -0.4019407 0.0000000
vt 0.777697569 0.589261861
vn 1.0000000 0.0003455 0.0000000
v 0.4687039 0.1540592 0.8651000
vt 0.637681159 0.898809524
vn 1.0000000 0.0003455 0.0000000
v 0.4688960 -0.4019407 0.8651000
vt 0.777697569 0.988044120
vn 1.0000000 0.0003455 0.0000000
f 28/28/28 29/29/29 30/30/30
v 0.4687039 0.1540592 0.0000000
vt 0.295349117 0.405187962
vn -0.0003456 0.9999999 0.0000000
v -0.4528960 0.1537407 0.0000000
vt 0.010508429 0.580791467
vn -0.0003456 0.9999999 0.0000000
v -0.4528960 0.1537407 0.8651000
vt 0.010508429 0.984420724
vn -0.0003456 0.9999999 0.0000000
f 31/31/31 32/32/32 33/33/33
v 0.4687039 0.1540592 0.0000000
vt 0.295349117 0.405187962
vn -0.0003456 0.9999999 0.0000000
v -0.4528960 0.1537407 0.8651000
vt 0.010508429 0.984420724
vn -0.0003456 0.9999999 0.0000000
v 0.4687039 0.1540592 0.8651000
vt 0.295349117 0.808817219
vn -0.0003456 0.9999999 0.0000000
f 34/34/34 35/35/35 36/36/36
