# Authored through Blender MCP; native tiles are the scale reference.
mtllib pz_house_premium_ham.mtl
usemtl native
v -0.2345000 -0.3219000 0.0000000
vt 0.434325000 0.607220600
vn -0.0000000 -0.0000000 -0.9999999
v -0.2345000 0.0543000 0.0000000
vt 0.246225000 0.513170600
vn -0.0000000 -0.0000000 -0.9999999
v 0.3675000 0.0543000 0.0000000
vt 0.547225000 0.362670600
vn -0.0000000 -0.0000000 -0.9999999
o pz_house_premium_ham_|_1_caixa_painel_nativo
f 1/1/1 2/2/2 3/3/3
v -0.2345000 -0.3219000 0.0000000
vt 0.434325000 0.607220600
vn -0.0000000 0.0000000 -0.9999999
v 0.3675000 0.0543000 0.0000000
vt 0.547225000 0.362670600
vn -0.0000000 0.0000000 -0.9999999
v 0.3675000 -0.3219000 0.0000000
vt 0.735325000 0.456720600
vn -0.0000000 0.0000000 -0.9999999
f 4/4/4 5/5/5 6/6/6
v -0.2345000 -0.3219000 0.3095000
vt 0.207762500 0.288937500
vn 0.0000000 0.0000000 0.9999999
v 0.3675000 -0.3219000 0.3095000
vt 0.508762500 0.138437500
vn 0.0000000 0.0000000 0.9999999
v 0.3675000 0.0543000 0.3095000
vt 0.320662500 0.044387500
vn 0.0000000 0.0000000 0.9999999
f 7/7/7 8/8/8 9/9/9
v -0.2345000 -0.3219000 0.3095000
vt 0.207762500 0.288937500
vn -0.0000000 0.0000000 0.9999999
v 0.3675000 0.0543000 0.3095000
vt 0.320662500 0.044387500
vn -0.0000000 0.0000000 0.9999999
v -0.2345000 0.0543000 0.3095000
vt 0.019662500 0.194887300
vn -0.0000000 0.0000000 0.9999999
f 10/10/10 11/11/11 12/12/12
v -0.2345000 -0.3219000 0.0000000
vt 0.323487500 0.641520600
vn -0.0000000 -1.0000000 -0.0000000
v 0.3675000 -0.3219000 0.0000000
vt 0.022487500 0.792020600
vn -0.0000000 -1.0000000 -0.0000000
v 0.3675000 -0.3219000 0.3095000
vt 0.022487500 0.981550000
vn -0.0000000 -1.0000000 -0.0000000
f 13/13/13 14/14/14 15/15/15
v -0.2345000 -0.3219000 0.0000000
vt 0.323487500 0.641520600
vn 0.0000000 -1.0000000 -0.0000000
v 0.3675000 -0.3219000 0.3095000
vt 0.022487500 0.981550000
vn 0.0000000 -1.0000000 -0.0000000
v -0.2345000 -0.3219000 0.3095000
vt 0.323487500 0.831050000
vn 0.0000000 -1.0000000 -0.0000000
f 16/16/16 17/17/17 18/18/18
v 0.3675000 -0.3219000 0.0000000
vt 0.891575000 0.792658100
vn 1.0000000 0.0000000 0.0000000
v 0.3675000 0.0543000 0.0000000
vt 0.703475000 0.698608100
vn 1.0000000 0.0000000 0.0000000
v 0.3675000 0.0543000 0.3095000
vt 0.703475000 0.888137500
vn 1.0000000 0.0000000 0.0000000
f 19/19/19 20/20/20 21/21/21
v 0.3675000 -0.3219000 0.0000000
vt 0.891575000 0.792658100
vn 1.0000000 -0.0000000 0.0000000
v 0.3675000 0.0543000 0.3095000
vt 0.703475000 0.888137500
vn 1.0000000 -0.0000000 0.0000000
v 0.3675000 -0.3219000 0.3095000
vt 0.891575000 0.982187500
vn 1.0000000 -0.0000000 0.0000000
f 22/22/22 23/23/23 24/24/24
v 0.3675000 0.0543000 0.0000000
vt 0.664412500 0.643920600
vn -0.0000000 1.0000000 0.0000000
v -0.2345000 0.0543000 0.0000000
vt 0.363412500 0.794420600
vn -0.0000000 1.0000000 0.0000000
v -0.2345000 0.0543000 0.3095000
vt 0.363412500 0.983949800
vn -0.0000000 1.0000000 0.0000000
f 25/25/25 26/26/26 27/27/27
v 0.3675000 0.0543000 0.0000000
vt 0.664412500 0.643920600
vn 0.0000000 1.0000000 0.0000000
v -0.2345000 0.0543000 0.3095000
vt 0.363412500 0.983949800
vn 0.0000000 1.0000000 0.0000000
v 0.3675000 0.0543000 0.3095000
vt 0.664412500 0.833450000
vn 0.0000000 1.0000000 0.0000000
f 28/28/28 29/29/29 30/30/30
v -0.2345000 0.0543000 0.0000000
vt 0.019787500 0.415320600
vn -1.0000000 0.0000000 0.0000000
v -0.2345000 -0.3219000 0.0000000
vt 0.207887500 0.321270600
vn -1.0000000 0.0000000 0.0000000
v -0.2345000 -0.3219000 0.3095000
vt 0.207887500 0.510800000
vn -1.0000000 0.0000000 0.0000000
f 31/31/31 32/32/32 33/33/33
v -0.2345000 0.0543000 0.0000000
vt 0.019787500 0.415320600
vn -1.0000000 -0.0000000 -0.0000000
v -0.2345000 -0.3219000 0.3095000
vt 0.207887500 0.510800000
vn -1.0000000 -0.0000000 -0.0000000
v -0.2345000 0.0543000 0.3095000
vt 0.019787500 0.604850000
vn -1.0000000 -0.0000000 -0.0000000
f 34/34/34 35/35/35 36/36/36
