# Authored through Blender MCP; native tiles are the scale reference.
mtllib pz_house_drawers_white.mtl
usemtl native
v -0.5027024 0.0921398 0.0000000
vt 0.013756274 0.276275430
vn -0.0000000 0.0000000 -1.0000000
v 0.4244976 0.0924602 0.0000000
vt 0.292255429 0.098547047
vn -0.0000000 0.0000000 -1.0000000
v 0.4247023 -0.5001398 0.0000000
vt 0.470375181 0.212059899
vn -0.0000000 0.0000000 -1.0000000
o pz_house_drawers_white_|_1_corpo_gavetas
f 1/1/1 2/2/2 3/3/3
v -0.5027024 0.0921398 0.0000000
vt 0.013756274 0.276275430
vn 0.0000000 0.0000000 -1.0000000
v 0.4247023 -0.5001398 0.0000000
vt 0.470375181 0.212059899
vn 0.0000000 0.0000000 -1.0000000
v -0.5024976 -0.5004601 0.0000000
vt 0.191876026 0.389788283
vn 0.0000000 0.0000000 -1.0000000
f 4/4/4 5/5/5 6/6/6
v -0.5027024 0.0921398 0.8186000
vt 0.493051616 0.293468181
vn 0.0000000 0.0000000 1.0000000
v -0.5024976 -0.5004601 0.8186000
vt 0.666723689 0.395173879
vn 0.0000000 0.0000000 1.0000000
v 0.4247023 -0.5001398 0.8186000
vt 0.924796399 0.233477942
vn 0.0000000 0.0000000 1.0000000
f 7/7/7 8/8/8 9/9/9
v -0.5027024 0.0921398 0.8186000
vt 0.493051616 0.293468181
vn 0.0000000 0.0000000 1.0000000
v 0.4247023 -0.5001398 0.8186000
vt 0.924796399 0.233477942
vn 0.0000000 0.0000000 1.0000000
v 0.4244976 0.0924602 0.8186000
vt 0.765198112 0.131772214
vn 0.0000000 0.0000000 1.0000000
f 10/10/10 11/11/11 12/12/12
v -0.5027024 0.0921398 0.0000000
vt 0.314632637 0.532956782
vn -0.9999999 -0.0003455 -0.0000000
v -0.5024976 -0.5004601 0.0000000
vt 0.460093897 0.574850299
vn -0.9999999 -0.0003455 -0.0000000
v -0.5024976 -0.5004601 0.8186000
vt 0.460093897 0.988023952
vn -0.9999999 -0.0003455 -0.0000000
f 13/13/13 14/14/14 15/15/15
v -0.5027024 0.0921398 0.0000000
vt 0.314632637 0.532956782
vn -0.9999999 -0.0003455 0.0000000
v -0.5024976 -0.5004601 0.8186000
vt 0.460093897 0.988023952
vn -0.9999999 -0.0003455 0.0000000
v -0.5027024 0.0921398 0.8186000
vt 0.314632637 0.892267342
vn -0.9999999 -0.0003455 0.0000000
f 16/16/16 17/17/17 18/18/18
v -0.5024976 -0.5004601 0.0000000
vt 0.624381005 0.574841044
vn 0.0003455 -0.9999999 0.0000000
v 0.4247023 -0.5001398 0.0000000
vt 0.478873239 0.532934132
vn 0.0003455 -0.9999999 0.0000000
v 0.4247023 -0.5001398 0.8186000
vt 0.478873239 0.892215569
vn 0.0003455 -0.9999999 0.0000000
f 19/19/19 20/20/20 21/21/21
v -0.5024976 -0.5004601 0.0000000
vt 0.624381005 0.574841044
vn 0.0003455 -0.9999999 0.0000000
v 0.4247023 -0.5001398 0.8186000
vt 0.478873239 0.892215569
vn 0.0003455 -0.9999999 0.0000000
v -0.5024976 -0.5004601 0.8186000
vt 0.624381005 0.988002795
vn 0.0003455 -0.9999999 0.0000000
f 22/22/22 23/23/23 24/24/24
v 0.4247023 -0.5001398 0.0000000
vt 0.788653772 0.574827655
vn 0.9999999 0.0003455 0.0000000
v 0.4244976 0.0924602 0.0000000
vt 0.643192488 0.532934132
vn 0.9999999 0.0003455 0.0000000
v 0.4244976 0.0924602 0.8186000
vt 0.643192488 0.892215569
vn 0.9999999 0.0003455 0.0000000
f 25/25/25 26/26/26 27/27/27
v 0.4247023 -0.5001398 0.0000000
vt 0.788653772 0.574827655
vn 0.9999999 0.0003455 0.0000000
v 0.4244976 0.0924602 0.8186000
vt 0.643192488 0.892215569
vn 0.9999999 0.0003455 0.0000000
v 0.4247023 -0.5001398 0.8186000
vt 0.788653772 0.987972197
vn 0.9999999 0.0003455 0.0000000
f 28/28/28 29/29/29 30/30/30
v 0.4244976 0.0924602 0.0000000
vt 0.292255429 0.421900340
vn -0.0003455 0.9999999 0.0000000
v -0.5027024 0.0921398 0.0000000
vt 0.013756274 0.599628723
vn -0.0003455 0.9999999 0.0000000
v -0.5027024 0.0921398 0.8186000
vt 0.013756274 0.983849466
vn -0.0003455 0.9999999 0.0000000
f 31/31/31 32/32/32 33/33/33
v 0.4244976 0.0924602 0.0000000
vt 0.292255429 0.421900340
vn -0.0003455 0.9999999 0.0000000
v -0.5027024 0.0921398 0.8186000
vt 0.013756274 0.983849466
vn -0.0003455 0.9999999 0.0000000
v 0.4244976 0.0924602 0.8186000
vt 0.292255429 0.806121083
vn -0.0003455 0.9999999 0.0000000
f 34/34/34 35/35/35 36/36/36
