# Native geometry authored with Blender MCP in an isolated background process.
mtllib pz_mailbox_residential.mtl
o pz_mailbox_residential_|_wood_support_post
usemtl wood
v -0.0200000 -0.0240000 0.0120000
vt 0.650568267 0.337500000
vn -0.5773503 -0.5773503 -0.5773503
v -0.0220000 -0.0220000 0.0120000
vt 0.650000000 0.338021067
vn -0.5773503 -0.5773503 -0.5773503
v -0.0200000 -0.0220000 0.0100000
vt 0.650568267 0.338021067
vn -0.5773503 -0.5773503 -0.5773503
f 1/1/1 2/2/2 3/3/3
v 0.0200000 -0.0240000 0.0120000
vt 0.661931733 0.337500000
vn 0.5773503 -0.5773503 -0.5773503
v 0.0200000 -0.0220000 0.0100000
vt 0.661931733 0.338021067
vn 0.5773503 -0.5773503 -0.5773503
v 0.0220000 -0.0220000 0.0120000
vt 0.662500000 0.338021067
vn 0.5773503 -0.5773503 -0.5773503
f 4/4/4 5/5/5 6/6/6
v 0.0200000 0.0240000 0.0120000
vt 0.661931733 0.349999733
vn 0.5773503 0.5773503 -0.5773503
v 0.0220000 0.0220000 0.0120000
vt 0.662500000 0.349479200
vn 0.5773503 0.5773503 -0.5773503
v 0.0200000 0.0220000 0.0100000
vt 0.661931733 0.349479200
vn 0.5773503 0.5773503 -0.5773503
f 7/7/7 8/8/8 9/9/9
v -0.0220000 0.0220000 0.0120000
vt 0.650000000 0.349479200
vn -0.5773503 0.5773503 -0.5773503
v -0.0200000 0.0240000 0.0120000
vt 0.650568267 0.349999733
vn -0.5773503 0.5773503 -0.5773503
v -0.0200000 0.0220000 0.0100000
vt 0.650568267 0.349479200
vn -0.5773503 0.5773503 -0.5773503
f 10/10/10 11/11/11 12/12/12
v -0.0220000 -0.0220000 0.6580001
vt 0.650000000 0.338021067
vn -0.5773478 -0.5773478 0.5773553
v -0.0200000 -0.0240000 0.6580001
vt 0.650568267 0.337500000
vn -0.5773478 -0.5773478 0.5773553
v -0.0200000 -0.0220000 0.6600000
vt 0.650568267 0.338021067
vn -0.5773478 -0.5773478 0.5773553
f 13/13/13 14/14/14 15/15/15
v 0.0200000 -0.0240000 0.6580001
vt 0.661931733 0.337500000
vn 0.5773478 -0.5773478 0.5773553
v 0.0220000 -0.0220000 0.6580001
vt 0.662500000 0.338021067
vn 0.5773478 -0.5773478 0.5773553
v 0.0200000 -0.0220000 0.6600000
vt 0.661931733 0.338021067
vn 0.5773478 -0.5773478 0.5773553
f 16/16/16 17/17/17 18/18/18
v 0.0220000 0.0220000 0.6580001
vt 0.662500000 0.349479200
vn 0.5773478 0.5773478 0.5773553
v 0.0200000 0.0240000 0.6580001
vt 0.661931733 0.349999733
vn 0.5773478 0.5773478 0.5773553
v 0.0200000 0.0220000 0.6600000
vt 0.661931733 0.349479200
vn 0.5773478 0.5773478 0.5773553
f 19/19/19 20/20/20 21/21/21
v -0.0220000 0.0220000 0.6580001
vt 0.650000000 0.349479200
vn -0.5773478 0.5773478 0.5773553
v -0.0200000 0.0220000 0.6600000
vt 0.650568267 0.349479200
vn -0.5773478 0.5773478 0.5773553
v -0.0200000 0.0240000 0.6580001
vt 0.650568267 0.349999733
vn -0.5773478 0.5773478 0.5773553
f 22/22/22 23/23/23 24/24/24
v -0.0200000 -0.0220000 0.0100000
vt 0.650568267 0.338021067
vn -0.0000000 -0.7071068 -0.7071068
v 0.0200000 -0.0220000 0.0100000
vt 0.661931733 0.338021067
vn -0.0000000 -0.7071068 -0.7071068
v 0.0200000 -0.0240000 0.0120000
vt 0.661931733 0.337500000
vn -0.0000000 -0.7071068 -0.7071068
f 25/25/25 26/26/26 27/27/27
v -0.0200000 -0.0220000 0.0100000
vt 0.650568267 0.338021067
vn 0.0000000 -0.7071068 -0.7071068
v 0.0200000 -0.0240000 0.0120000
vt 0.661931733 0.337500000
vn 0.0000000 -0.7071068 -0.7071068
v -0.0200000 -0.0240000 0.0120000
vt 0.650568267 0.337500000
vn 0.0000000 -0.7071068 -0.7071068
f 28/28/28 29/29/29 30/30/30
v -0.0220000 -0.0220000 0.0120000
vt 0.650520800 0.337500000
vn -0.7071068 -0.0000000 -0.7071068
v -0.0220000 0.0220000 0.0120000
vt 0.661979200 0.337500000
vn -0.7071068 -0.0000000 -0.7071068
v -0.0200000 0.0220000 0.0100000
vt 0.661979200 0.338068000
vn -0.7071068 -0.0000000 -0.7071068
f 31/31/31 32/32/32 33/33/33
v -0.0220000 -0.0220000 0.0120000
vt 0.650520800 0.337500000
vn -0.7071068 0.0000000 -0.7071068
v -0.0200000 0.0220000 0.0100000
vt 0.661979200 0.338068000
vn -0.7071068 0.0000000 -0.7071068
v -0.0200000 -0.0220000 0.0100000
vt 0.650520800 0.338068000
vn -0.7071068 0.0000000 -0.7071068
f 34/34/34 35/35/35 36/36/36
v 0.0200000 0.0220000 0.0100000
vt 0.661931733 0.349479200
vn 0.0000000 0.7071068 -0.7071068
v -0.0200000 0.0220000 0.0100000
vt 0.650568267 0.349479200
vn 0.0000000 0.7071068 -0.7071068
v -0.0200000 0.0240000 0.0120000
vt 0.650568267 0.349999733
vn 0.0000000 0.7071068 -0.7071068
f 37/37/37 38/38/38 39/39/39
v 0.0200000 0.0220000 0.0100000
vt 0.661931733 0.349479200
vn 0.0000000 0.7071068 -0.7071068
v -0.0200000 0.0240000 0.0120000
vt 0.650568267 0.349999733
vn 0.0000000 0.7071068 -0.7071068
v 0.0200000 0.0240000 0.0120000
vt 0.661931733 0.349999733
vn 0.0000000 0.7071068 -0.7071068
f 40/40/40 41/41/41 42/42/42
v 0.0200000 -0.0220000 0.0100000
vt 0.650520800 0.349431733
vn 0.7071068 0.0000000 -0.7071068
v 0.0200000 0.0220000 0.0100000
vt 0.661979200 0.349431733
vn 0.7071068 0.0000000 -0.7071068
v 0.0220000 0.0220000 0.0120000
vt 0.661979200 0.349999733
vn 0.7071068 0.0000000 -0.7071068
f 43/43/43 44/44/44 45/45/45
v 0.0200000 -0.0220000 0.0100000
vt 0.650520800 0.349431733
vn 0.7071068 0.0000000 -0.7071068
v 0.0220000 0.0220000 0.0120000
vt 0.661979200 0.349999733
vn 0.7071068 0.0000000 -0.7071068
v 0.0220000 -0.0220000 0.0120000
vt 0.650520800 0.349999733
vn 0.7071068 0.0000000 -0.7071068
f 46/46/46 47/47/47 48/48/48
v -0.0200000 -0.0220000 0.6600000
vt 0.650520800 0.338068000
vn -0.7071022 0.0000000 0.7071114
v -0.0200000 0.0220000 0.6600000
vt 0.661979200 0.338068000
vn -0.7071022 0.0000000 0.7071114
v -0.0220000 0.0220000 0.6580001
vt 0.661979200 0.337500000
vn -0.7071022 0.0000000 0.7071114
f 49/49/49 50/50/50 51/51/51
v -0.0200000 -0.0220000 0.6600000
vt 0.650520800 0.338068000
vn -0.7071022 0.0000000 0.7071114
v -0.0220000 0.0220000 0.6580001
vt 0.661979200 0.337500000
vn -0.7071022 0.0000000 0.7071114
v -0.0220000 -0.0220000 0.6580001
vt 0.650520800 0.337500000
vn -0.7071022 0.0000000 0.7071114
f 52/52/52 53/53/53 54/54/54
v -0.0200000 -0.0240000 0.6580001
vt 0.650568267 0.337500000
vn 0.0000000 -0.7071022 0.7071114
v 0.0200000 -0.0240000 0.6580001
vt 0.661931733 0.337500000
vn 0.0000000 -0.7071022 0.7071114
v 0.0200000 -0.0220000 0.6600000
vt 0.661931733 0.338021067
vn 0.0000000 -0.7071022 0.7071114
f 55/55/55 56/56/56 57/57/57
v -0.0200000 -0.0240000 0.6580001
vt 0.650568267 0.337500000
vn 0.0000000 -0.7071022 0.7071114
v 0.0200000 -0.0220000 0.6600000
vt 0.661931733 0.338021067
vn 0.0000000 -0.7071022 0.7071114
v -0.0200000 -0.0220000 0.6600000
vt 0.650568267 0.338021067
vn 0.0000000 -0.7071022 0.7071114
f 58/58/58 59/59/59 60/60/60
v 0.0220000 -0.0220000 0.6580001
vt 0.650520800 0.349999733
vn 0.7071022 0.0000000 0.7071114
v 0.0220000 0.0220000 0.6580001
vt 0.661979200 0.349999733
vn 0.7071022 0.0000000 0.7071114
v 0.0200000 0.0220000 0.6600000
vt 0.661979200 0.349431733
vn 0.7071022 0.0000000 0.7071114
f 61/61/61 62/62/62 63/63/63
v 0.0220000 -0.0220000 0.6580001
vt 0.650520800 0.349999733
vn 0.7071022 -0.0000000 0.7071114
v 0.0200000 0.0220000 0.6600000
vt 0.661979200 0.349431733
vn 0.7071022 -0.0000000 0.7071114
v 0.0200000 -0.0220000 0.6600000
vt 0.650520800 0.349431733
vn 0.7071022 -0.0000000 0.7071114
f 64/64/64 65/65/65 66/66/66
v 0.0200000 0.0240000 0.6580001
vt 0.661931733 0.349999733
vn -0.0000000 0.7071022 0.7071114
v -0.0200000 0.0240000 0.6580001
vt 0.650568267 0.349999733
vn -0.0000000 0.7071022 0.7071114
v -0.0200000 0.0220000 0.6600000
vt 0.650568267 0.349479200
vn -0.0000000 0.7071022 0.7071114
f 67/67/67 68/68/68 69/69/69
v 0.0200000 0.0240000 0.6580001
vt 0.661931733 0.349999733
vn 0.0000000 0.7071022 0.7071114
v -0.0200000 0.0220000 0.6600000
vt 0.650568267 0.349479200
vn 0.0000000 0.7071022 0.7071114
v 0.0200000 0.0220000 0.6600000
vt 0.661931733 0.349479200
vn 0.0000000 0.7071022 0.7071114
f 70/70/70 71/71/71 72/72/72
v -0.0200000 -0.0240000 0.0120000
vt 0.650038400 0.338068000
vn -0.7071068 -0.7071068 -0.0000000
v -0.0200000 -0.0240000 0.6580001
vt 0.662461600 0.338068000
vn -0.7071068 -0.7071068 -0.0000000
v -0.0220000 -0.0220000 0.6580001
vt 0.662461600 0.337500000
vn -0.7071068 -0.7071068 -0.0000000
f 73/73/73 74/74/74 75/75/75
v -0.0200000 -0.0240000 0.0120000
vt 0.650038400 0.338068000
vn -0.7071068 -0.7071068 0.0000000
v -0.0220000 -0.0220000 0.6580001
vt 0.662461600 0.337500000
vn -0.7071068 -0.7071068 0.0000000
v -0.0220000 -0.0220000 0.0120000
vt 0.650038400 0.337500000
vn -0.7071068 -0.7071068 0.0000000
f 76/76/76 77/77/77 78/78/78
v 0.0220000 -0.0220000 0.0120000
vt 0.650038400 0.349999733
vn 0.7071068 -0.7071068 0.0000000
v 0.0220000 -0.0220000 0.6580001
vt 0.662461600 0.349999733
vn 0.7071068 -0.7071068 0.0000000
v 0.0200000 -0.0240000 0.6580001
vt 0.662461600 0.349431733
vn 0.7071068 -0.7071068 0.0000000
f 79/79/79 80/80/80 81/81/81
v 0.0220000 -0.0220000 0.0120000
vt 0.650038400 0.349999733
vn 0.7071068 -0.7071068 0.0000000
v 0.0200000 -0.0240000 0.6580001
vt 0.662461600 0.349431733
vn 0.7071068 -0.7071068 0.0000000
v 0.0200000 -0.0240000 0.0120000
vt 0.650038400 0.349431733
vn 0.7071068 -0.7071068 0.0000000
f 82/82/82 83/83/83 84/84/84
v 0.0200000 0.0240000 0.0120000
vt 0.650038400 0.349431733
vn 0.7071068 0.7071068 0.0000000
v 0.0200000 0.0240000 0.6580001
vt 0.662461600 0.349431733
vn 0.7071068 0.7071068 0.0000000
v 0.0220000 0.0220000 0.6580001
vt 0.662461600 0.349999733
vn 0.7071068 0.7071068 0.0000000
f 85/85/85 86/86/86 87/87/87
v 0.0200000 0.0240000 0.0120000
vt 0.650038400 0.349431733
vn 0.7071068 0.7071068 -0.0000000
v 0.0220000 0.0220000 0.6580001
vt 0.662461600 0.349999733
vn 0.7071068 0.7071068 -0.0000000
v 0.0220000 0.0220000 0.0120000
vt 0.650038400 0.349999733
vn 0.7071068 0.7071068 -0.0000000
f 88/88/88 89/89/89 90/90/90
v -0.0220000 0.0220000 0.0120000
vt 0.650038400 0.337500000
vn -0.7071068 0.7071068 0.0000000
v -0.0220000 0.0220000 0.6580001
vt 0.662461600 0.337500000
vn -0.7071068 0.7071068 0.0000000
v -0.0200000 0.0240000 0.6580001
vt 0.662461600 0.338068000
vn -0.7071068 0.7071068 0.0000000
f 91/91/91 92/92/92 93/93/93
v -0.0220000 0.0220000 0.0120000
vt 0.650038400 0.337500000
vn -0.7071068 0.7071068 0.0000000
v -0.0200000 0.0240000 0.6580001
vt 0.662461600 0.338068000
vn -0.7071068 0.7071068 0.0000000
v -0.0200000 0.0240000 0.0120000
vt 0.650038400 0.338068000
vn -0.7071068 0.7071068 0.0000000
f 94/94/94 95/95/95 96/96/96
v -0.0200000 -0.0240000 0.0120000
vt 0.650568267 0.337538400
vn -0.0000000 -1.0000000 -0.0000000
v 0.0200000 -0.0240000 0.0120000
vt 0.661931733 0.337538400
vn -0.0000000 -1.0000000 -0.0000000
v 0.0200000 -0.0240000 0.6580001
vt 0.661931733 0.349961333
vn -0.0000000 -1.0000000 -0.0000000
f 97/97/97 98/98/98 99/99/99
v -0.0200000 -0.0240000 0.0120000
vt 0.650568267 0.337538400
vn 0.0000000 -1.0000000 -0.0000000
v 0.0200000 -0.0240000 0.6580001
vt 0.661931733 0.349961333
vn 0.0000000 -1.0000000 -0.0000000
v -0.0200000 -0.0240000 0.6580001
vt 0.650568267 0.349961333
vn 0.0000000 -1.0000000 -0.0000000
f 100/100/100 101/101/101 102/102/102
v -0.0200000 -0.0220000 0.0100000
vt 0.650568267 0.338021067
vn -0.0000000 -0.0000000 -0.9999999
v -0.0200000 0.0220000 0.0100000
vt 0.650568267 0.349479200
vn -0.0000000 -0.0000000 -0.9999999
v 0.0200000 0.0220000 0.0100000
vt 0.661931733 0.349479200
vn -0.0000000 -0.0000000 -0.9999999
f 103/103/103 104/104/104 105/105/105
v -0.0200000 -0.0220000 0.0100000
vt 0.650568267 0.338021067
vn -0.0000000 0.0000000 -0.9999999
v 0.0200000 0.0220000 0.0100000
vt 0.661931733 0.349479200
vn -0.0000000 0.0000000 -0.9999999
v 0.0200000 -0.0220000 0.0100000
vt 0.661931733 0.338021067
vn -0.0000000 0.0000000 -0.9999999
f 106/106/106 107/107/107 108/108/108
v -0.0220000 0.0220000 0.0120000
vt 0.661979200 0.337538400
vn -1.0000000 0.0000000 0.0000000
v -0.0220000 -0.0220000 0.0120000
vt 0.650520800 0.337538400
vn -1.0000000 0.0000000 0.0000000
v -0.0220000 -0.0220000 0.6580001
vt 0.650520800 0.349961333
vn -1.0000000 0.0000000 0.0000000
f 109/109/109 110/110/110 111/111/111
v -0.0220000 0.0220000 0.0120000
vt 0.661979200 0.337538400
vn -1.0000000 -0.0000000 -0.0000000
v -0.0220000 -0.0220000 0.6580001
vt 0.650520800 0.349961333
vn -1.0000000 -0.0000000 -0.0000000
v -0.0220000 0.0220000 0.6580001
vt 0.661979200 0.349961333
vn -1.0000000 -0.0000000 -0.0000000
f 112/112/112 113/113/113 114/114/114
v 0.0220000 -0.0220000 0.0120000
vt 0.650520800 0.337538400
vn 1.0000000 0.0000000 0.0000000
v 0.0220000 0.0220000 0.0120000
vt 0.661979200 0.337538400
vn 1.0000000 0.0000000 0.0000000
v 0.0220000 0.0220000 0.6580001
vt 0.661979200 0.349961333
vn 1.0000000 0.0000000 0.0000000
f 115/115/115 116/116/116 117/117/117
v 0.0220000 -0.0220000 0.0120000
vt 0.650520800 0.337538400
vn 1.0000000 -0.0000000 0.0000000
v 0.0220000 0.0220000 0.6580001
vt 0.661979200 0.349961333
vn 1.0000000 -0.0000000 0.0000000
v 0.0220000 -0.0220000 0.6580001
vt 0.650520800 0.349961333
vn 1.0000000 -0.0000000 0.0000000
f 118/118/118 119/119/119 120/120/120
v 0.0200000 0.0240000 0.0120000
vt 0.661931733 0.337538400
vn -0.0000000 1.0000000 0.0000000
v -0.0200000 0.0240000 0.0120000
vt 0.650568267 0.337538400
vn -0.0000000 1.0000000 0.0000000
v -0.0200000 0.0240000 0.6580001
vt 0.650568267 0.349961333
vn -0.0000000 1.0000000 0.0000000
f 121/121/121 122/122/122 123/123/123
v 0.0200000 0.0240000 0.0120000
vt 0.661931733 0.337538400
vn 0.0000000 1.0000000 0.0000000
v -0.0200000 0.0240000 0.6580001
vt 0.650568267 0.349961333
vn 0.0000000 1.0000000 0.0000000
v 0.0200000 0.0240000 0.6580001
vt 0.661931733 0.349961333
vn 0.0000000 1.0000000 0.0000000
f 124/124/124 125/125/125 126/126/126
v -0.0200000 -0.0220000 0.6600000
vt 0.650568267 0.338021067
vn 0.0000000 0.0000000 0.9999999
v 0.0200000 -0.0220000 0.6600000
vt 0.661931733 0.338021067
vn 0.0000000 0.0000000 0.9999999
v 0.0200000 0.0220000 0.6600000
vt 0.661931733 0.349479200
vn 0.0000000 0.0000000 0.9999999
f 127/127/127 128/128/128 129/129/129
v -0.0200000 -0.0220000 0.6600000
vt 0.650568267 0.338021067
vn -0.0000000 0.0000000 0.9999999
v 0.0200000 0.0220000 0.6600000
vt 0.661931733 0.349479200
vn -0.0000000 0.0000000 0.9999999
v -0.0200000 0.0220000 0.6600000
vt 0.650568267 0.349479200
vn -0.0000000 0.0000000 0.9999999
f 130/130/130 131/131/131 132/132/132
o pz_mailbox_residential_|_rounded_residential_mailbox_body
usemtl metal
v -0.0930000 -0.2000000 0.6500000
vt 0.337500000 0.629166667
vn -0.0000000 -1.0000000 -0.0000000
v 0.0930000 -0.2000000 0.6500000
vt 0.350000000 0.629166667
vn -0.0000000 -1.0000000 -0.0000000
v 0.0930000 -0.2000000 0.7740000
vt 0.350000000 0.636802400
vn -0.0000000 -1.0000000 -0.0000000
f 133/133/133 134/134/134 135/135/135
v 0.0930000 -0.2000000 0.7740000
vt 0.350000000 0.636802400
vn 0.0000000 -1.0000000 0.0000000
v 0.0820000 -0.2000000 0.8170000
vt 0.349260800 0.639449867
vn 0.0000000 -1.0000000 0.0000000
v 0.0480000 -0.2000000 0.8450000
vt 0.346975733 0.641174133
vn 0.0000000 -1.0000000 0.0000000
f 136/136/136 137/137/137 138/138/138
v 0.0480000 -0.2000000 0.8450000
vt 0.346975733 0.641174133
vn 0.0000000 -0.9999999 0.0000000
v 0.0000000 -0.2000000 0.8530000
vt 0.343749867 0.641666400
vn 0.0000000 -0.9999999 0.0000000
v -0.0480000 -0.2000000 0.8450000
vt 0.340524267 0.641174133
vn 0.0000000 -0.9999999 0.0000000
f 139/139/139 140/140/140 141/141/141
v -0.0480000 -0.2000000 0.8450000
vt 0.340524267 0.641174133
vn 0.0000000 -1.0000000 0.0000000
v -0.0820000 -0.2000000 0.8170000
vt 0.338239200 0.639449867
vn 0.0000000 -1.0000000 0.0000000
v -0.0930000 -0.2000000 0.7740000
vt 0.337500000 0.636802400
vn 0.0000000 -1.0000000 0.0000000
f 142/142/142 143/143/143 144/144/144
v -0.0930000 -0.2000000 0.7740000
vt 0.337500000 0.636802400
vn -0.0000000 -1.0000000 0.0000000
v -0.0930000 -0.2000000 0.6500000
vt 0.337500000 0.629166667
vn -0.0000000 -1.0000000 0.0000000
v 0.0930000 -0.2000000 0.7740000
vt 0.350000000 0.636802400
vn -0.0000000 -1.0000000 0.0000000
f 145/145/145 146/146/146 147/147/147
v 0.0930000 -0.2000000 0.7740000
vt 0.350000000 0.636802400
vn 0.0000000 -1.0000000 0.0000000
v 0.0480000 -0.2000000 0.8450000
vt 0.346975733 0.641174133
vn 0.0000000 -1.0000000 0.0000000
v -0.0480000 -0.2000000 0.8450000
vt 0.340524267 0.641174133
vn 0.0000000 -1.0000000 0.0000000
f 148/148/148 149/149/149 150/150/150
v 0.0930000 -0.2000000 0.7740000
vt 0.350000000 0.636802400
vn 0.0000000 -1.0000000 0.0000000
v -0.0480000 -0.2000000 0.8450000
vt 0.340524267 0.641174133
vn 0.0000000 -1.0000000 0.0000000
v -0.0930000 -0.2000000 0.7740000
vt 0.337500000 0.636802400
vn 0.0000000 -1.0000000 0.0000000
f 151/151/151 152/152/152 153/153/153
v 0.0930000 0.1400000 0.6500000
vt 0.350000000 0.629166667
vn -0.0000000 1.0000000 0.0000000
v -0.0930000 0.1400000 0.6500000
vt 0.337500000 0.629166667
vn -0.0000000 1.0000000 0.0000000
v -0.0930000 0.1400000 0.7740000
vt 0.337500000 0.636802400
vn -0.0000000 1.0000000 0.0000000
f 154/154/154 155/155/155 156/156/156
v -0.0930000 0.1400000 0.7740000
vt 0.337500000 0.636802400
vn 0.0000000 1.0000000 0.0000000
v -0.0820000 0.1400000 0.8170000
vt 0.338239200 0.639449867
vn 0.0000000 1.0000000 0.0000000
v -0.0480000 0.1400000 0.8450000
vt 0.340524267 0.641174133
vn 0.0000000 1.0000000 0.0000000
f 157/157/157 158/158/158 159/159/159
v -0.0480000 0.1400000 0.8450000
vt 0.340524267 0.641174133
vn 0.0000000 0.9999999 0.0000000
v 0.0000000 0.1400000 0.8530000
vt 0.343749867 0.641666400
vn 0.0000000 0.9999999 0.0000000
v 0.0480000 0.1400000 0.8450000
vt 0.346975733 0.641174133
vn 0.0000000 0.9999999 0.0000000
f 160/160/160 161/161/161 162/162/162
v 0.0480000 0.1400000 0.8450000
vt 0.346975733 0.641174133
vn 0.0000000 1.0000000 0.0000000
v 0.0820000 0.1400000 0.8170000
vt 0.349260800 0.639449867
vn 0.0000000 1.0000000 0.0000000
v 0.0930000 0.1400000 0.7740000
vt 0.350000000 0.636802400
vn 0.0000000 1.0000000 0.0000000
f 163/163/163 164/164/164 165/165/165
v 0.0930000 0.1400000 0.7740000
vt 0.350000000 0.636802400
vn -0.0000000 1.0000000 0.0000000
v 0.0930000 0.1400000 0.6500000
vt 0.350000000 0.629166667
vn -0.0000000 1.0000000 0.0000000
v -0.0930000 0.1400000 0.7740000
vt 0.337500000 0.636802400
vn -0.0000000 1.0000000 0.0000000
f 166/166/166 167/167/167 168/168/168
v -0.0930000 0.1400000 0.7740000
vt 0.337500000 0.636802400
vn 0.0000000 1.0000000 0.0000000
v -0.0480000 0.1400000 0.8450000
vt 0.340524267 0.641174133
vn 0.0000000 1.0000000 0.0000000
v 0.0480000 0.1400000 0.8450000
vt 0.346975733 0.641174133
vn 0.0000000 1.0000000 0.0000000
f 169/169/169 170/170/170 171/171/171
v -0.0930000 0.1400000 0.7740000
vt 0.337500000 0.636802400
vn 0.0000000 1.0000000 0.0000000
v 0.0480000 0.1400000 0.8450000
vt 0.346975733 0.641174133
vn 0.0000000 1.0000000 0.0000000
v 0.0930000 0.1400000 0.7740000
vt 0.350000000 0.636802400
vn 0.0000000 1.0000000 0.0000000
f 172/172/172 173/173/173 174/174/174
v -0.0930000 -0.2000000 0.6500000
vt 0.337500000 0.629166667
vn -1.0000000 -0.0000000 -0.0000000
v -0.0930000 -0.2000000 0.7740000
vt 0.337500000 0.636802400
vn -1.0000000 -0.0000000 -0.0000000
v -0.0930000 0.1400000 0.7740000
vt 0.350000000 0.636802400
vn -1.0000000 -0.0000000 -0.0000000
f 175/175/175 176/176/176 177/177/177
v -0.0930000 -0.2000000 0.6500000
vt 0.337500000 0.629166667
vn -1.0000000 -0.0000000 0.0000000
v -0.0930000 0.1400000 0.7740000
vt 0.350000000 0.636802400
vn -1.0000000 -0.0000000 0.0000000
v -0.0930000 0.1400000 0.6500000
vt 0.350000000 0.629166667
vn -1.0000000 -0.0000000 0.0000000
f 178/178/178 179/179/179 180/180/180
v -0.0930000 -0.2000000 0.7740000
vt 0.337500000 0.636802400
vn -0.9688027 0.0000000 0.2478334
v -0.0820000 -0.2000000 0.8170000
vt 0.337500000 0.639449867
vn -0.9688027 0.0000000 0.2478334
v -0.0820000 0.1400000 0.8170000
vt 0.350000000 0.639449867
vn -0.9688027 0.0000000 0.2478334
f 181/181/181 182/182/182 183/183/183
v -0.0930000 -0.2000000 0.7740000
vt 0.337500000 0.636802400
vn -0.9688027 0.0000000 0.2478334
v -0.0820000 0.1400000 0.8170000
vt 0.350000000 0.639449867
vn -0.9688027 0.0000000 0.2478334
v -0.0930000 0.1400000 0.7740000
vt 0.350000000 0.636802400
vn -0.9688027 0.0000000 0.2478334
f 184/184/184 185/185/185 186/186/186
v -0.0820000 -0.2000000 0.8170000
vt 0.337500000 0.629905867
vn -0.6357080 0.0000000 0.7719296
v -0.0480000 -0.2000000 0.8450000
vt 0.337500000 0.632190667
vn -0.6357080 0.0000000 0.7719296
v -0.0480000 0.1400000 0.8450000
vt 0.350000000 0.632190667
vn -0.6357080 0.0000000 0.7719296
f 187/187/187 188/188/188 189/189/189
v -0.0820000 -0.2000000 0.8170000
vt 0.337500000 0.629905867
vn -0.6357080 0.0000000 0.7719296
v -0.0480000 0.1400000 0.8450000
vt 0.350000000 0.632190667
vn -0.6357080 0.0000000 0.7719296
v -0.0820000 0.1400000 0.8170000
vt 0.350000000 0.629905867
vn -0.6357080 0.0000000 0.7719296
f 190/190/190 191/191/191 192/192/192
v -0.0480000 -0.2000000 0.8450000
vt 0.337500000 0.632190667
vn -0.1643981 0.0000000 0.9863940
v 0.0000000 -0.2000000 0.8530000
vt 0.337500000 0.635416800
vn -0.1643981 0.0000000 0.9863940
v 0.0000000 0.1400000 0.8530000
vt 0.350000000 0.635416800
vn -0.1643981 0.0000000 0.9863940
f 193/193/193 194/194/194 195/195/195
v -0.0480000 -0.2000000 0.8450000
vt 0.337500000 0.632190667
vn -0.1643981 0.0000000 0.9863940
v 0.0000000 0.1400000 0.8530000
vt 0.350000000 0.635416800
vn -0.1643981 0.0000000 0.9863940
v -0.0480000 0.1400000 0.8450000
vt 0.350000000 0.632190667
vn -0.1643981 0.0000000 0.9863940
f 196/196/196 197/197/197 198/198/198
v 0.0000000 -0.2000000 0.8530000
vt 0.337500000 0.635416800
vn 0.1643981 0.0000000 0.9863940
v 0.0480000 -0.2000000 0.8450000
vt 0.337500000 0.638642400
vn 0.1643981 0.0000000 0.9863940
v 0.0480000 0.1400000 0.8450000
vt 0.350000000 0.638642400
vn 0.1643981 0.0000000 0.9863940
f 199/199/199 200/200/200 201/201/201
v 0.0000000 -0.2000000 0.8530000
vt 0.337500000 0.635416800
vn 0.1643981 0.0000000 0.9863940
v 0.0480000 0.1400000 0.8450000
vt 0.350000000 0.638642400
vn 0.1643981 0.0000000 0.9863940
v 0.0000000 0.1400000 0.8530000
vt 0.350000000 0.635416800
vn 0.1643981 0.0000000 0.9863940
f 202/202/202 203/203/203 204/204/204
v 0.0480000 -0.2000000 0.8450000
vt 0.337500000 0.638642400
vn 0.6357080 0.0000000 0.7719296
v 0.0820000 -0.2000000 0.8170000
vt 0.337500000 0.640927200
vn 0.6357080 0.0000000 0.7719296
v 0.0820000 0.1400000 0.8170000
vt 0.350000000 0.640927200
vn 0.6357080 0.0000000 0.7719296
f 205/205/205 206/206/206 207/207/207
v 0.0480000 -0.2000000 0.8450000
vt 0.337500000 0.638642400
vn 0.6357080 0.0000000 0.7719296
v 0.0820000 0.1400000 0.8170000
vt 0.350000000 0.640927200
vn 0.6357080 0.0000000 0.7719296
v 0.0480000 0.1400000 0.8450000
vt 0.350000000 0.638642400
vn 0.6357080 0.0000000 0.7719296
f 208/208/208 209/209/209 210/210/210
v 0.0820000 -0.2000000 0.8170000
vt 0.337500000 0.639449867
vn 0.9688027 0.0000000 0.2478334
v 0.0930000 -0.2000000 0.7740000
vt 0.337500000 0.636802400
vn 0.9688027 0.0000000 0.2478334
v 0.0930000 0.1400000 0.7740000
vt 0.350000000 0.636802400
vn 0.9688027 0.0000000 0.2478334
f 211/211/211 212/212/212 213/213/213
v 0.0820000 -0.2000000 0.8170000
vt 0.337500000 0.639449867
vn 0.9688027 0.0000000 0.2478334
v 0.0930000 0.1400000 0.7740000
vt 0.350000000 0.636802400
vn 0.9688027 0.0000000 0.2478334
v 0.0820000 0.1400000 0.8170000
vt 0.350000000 0.639449867
vn 0.9688027 0.0000000 0.2478334
f 214/214/214 215/215/215 216/216/216
v 0.0930000 -0.2000000 0.7740000
vt 0.337500000 0.636802400
vn 1.0000000 0.0000000 -0.0000000
v 0.0930000 -0.2000000 0.6500000
vt 0.337500000 0.629166667
vn 1.0000000 0.0000000 -0.0000000
v 0.0930000 0.1400000 0.6500000
vt 0.350000000 0.629166667
vn 1.0000000 0.0000000 -0.0000000
f 217/217/217 218/218/218 219/219/219
v 0.0930000 -0.2000000 0.7740000
vt 0.337500000 0.636802400
vn 1.0000000 0.0000000 0.0000000
v 0.0930000 0.1400000 0.6500000
vt 0.350000000 0.629166667
vn 1.0000000 0.0000000 0.0000000
v 0.0930000 0.1400000 0.7740000
vt 0.350000000 0.636802400
vn 1.0000000 0.0000000 0.0000000
f 220/220/220 221/221/221 222/222/222
v 0.0930000 -0.2000000 0.6500000
vt 0.350000000 0.629166667
vn 0.0000000 0.0000000 -1.0000000
v -0.0930000 -0.2000000 0.6500000
vt 0.337500000 0.629166667
vn 0.0000000 0.0000000 -1.0000000
v -0.0930000 0.1400000 0.6500000
vt 0.337500000 0.641666400
vn 0.0000000 0.0000000 -1.0000000
f 223/223/223 224/224/224 225/225/225
v 0.0930000 -0.2000000 0.6500000
vt 0.350000000 0.629166667
vn -0.0000000 -0.0000000 -1.0000000
v -0.0930000 0.1400000 0.6500000
vt 0.337500000 0.641666400
vn -0.0000000 -0.0000000 -1.0000000
v 0.0930000 0.1400000 0.6500000
vt 0.350000000 0.641666400
vn -0.0000000 -0.0000000 -1.0000000
f 226/226/226 227/227/227 228/228/228
o pz_mailbox_residential_|_front_door_lower_seam
usemtl metal
v -0.0820000 -0.2060000 0.6530000
vt 0.337500000 0.629166667
vn -0.0000000 -0.0000000 -1.0000000
v -0.0820000 -0.1990000 0.6530000
vt 0.337500000 0.641666400
vn -0.0000000 -0.0000000 -1.0000000
v 0.0820000 -0.1990000 0.6530000
vt 0.350000000 0.641666400
vn -0.0000000 -0.0000000 -1.0000000
f 229/229/229 230/230/230 231/231/231
v -0.0820000 -0.2060000 0.6530000
vt 0.337500000 0.629166667
vn -0.0000000 0.0000000 -1.0000000
v 0.0820000 -0.1990000 0.6530000
vt 0.350000000 0.641666400
vn -0.0000000 0.0000000 -1.0000000
v 0.0820000 -0.2060000 0.6530000
vt 0.350000000 0.629166667
vn -0.0000000 0.0000000 -1.0000000
f 232/232/232 233/233/233 234/234/234
v -0.0820000 -0.2060000 0.6740000
vt 0.337500000 0.629166667
vn 0.0000000 0.0000000 1.0000000
v 0.0820000 -0.2060000 0.6740000
vt 0.350000000 0.629166667
vn 0.0000000 0.0000000 1.0000000
v 0.0820000 -0.1990000 0.6740000
vt 0.350000000 0.641666400
vn 0.0000000 0.0000000 1.0000000
f 235/235/235 236/236/236 237/237/237
v -0.0820000 -0.2060000 0.6740000
vt 0.337500000 0.629166667
vn -0.0000000 0.0000000 1.0000000
v 0.0820000 -0.1990000 0.6740000
vt 0.350000000 0.641666400
vn -0.0000000 0.0000000 1.0000000
v -0.0820000 -0.1990000 0.6740000
vt 0.337500000 0.641666400
vn -0.0000000 0.0000000 1.0000000
f 238/238/238 239/239/239 240/240/240
v -0.0820000 -0.2060000 0.6530000
vt 0.337500000 0.629166667
vn -0.0000000 -0.9999999 -0.0000000
v 0.0820000 -0.2060000 0.6530000
vt 0.350000000 0.629166667
vn -0.0000000 -0.9999999 -0.0000000
v 0.0820000 -0.2060000 0.6740000
vt 0.350000000 0.641666400
vn -0.0000000 -0.9999999 -0.0000000
f 241/241/241 242/242/242 243/243/243
v -0.0820000 -0.2060000 0.6530000
vt 0.337500000 0.629166667
vn 0.0000000 -0.9999999 -0.0000000
v 0.0820000 -0.2060000 0.6740000
vt 0.350000000 0.641666400
vn 0.0000000 -0.9999999 -0.0000000
v -0.0820000 -0.2060000 0.6740000
vt 0.337500000 0.641666400
vn 0.0000000 -0.9999999 -0.0000000
f 244/244/244 245/245/245 246/246/246
v 0.0820000 -0.2060000 0.6530000
vt 0.337500000 0.629166667
vn 1.0000000 0.0000000 0.0000000
v 0.0820000 -0.1990000 0.6530000
vt 0.350000000 0.629166667
vn 1.0000000 0.0000000 0.0000000
v 0.0820000 -0.1990000 0.6740000
vt 0.350000000 0.641666400
vn 1.0000000 0.0000000 0.0000000
f 247/247/247 248/248/248 249/249/249
v 0.0820000 -0.2060000 0.6530000
vt 0.337500000 0.629166667
vn 1.0000000 -0.0000000 0.0000000
v 0.0820000 -0.1990000 0.6740000
vt 0.350000000 0.641666400
vn 1.0000000 -0.0000000 0.0000000
v 0.0820000 -0.2060000 0.6740000
vt 0.337500000 0.641666400
vn 1.0000000 -0.0000000 0.0000000
f 250/250/250 251/251/251 252/252/252
v 0.0820000 -0.1990000 0.6530000
vt 0.350000000 0.629166667
vn -0.0000000 0.9999999 0.0000000
v -0.0820000 -0.1990000 0.6530000
vt 0.337500000 0.629166667
vn -0.0000000 0.9999999 0.0000000
v -0.0820000 -0.1990000 0.6740000
vt 0.337500000 0.641666400
vn -0.0000000 0.9999999 0.0000000
f 253/253/253 254/254/254 255/255/255
v 0.0820000 -0.1990000 0.6530000
vt 0.350000000 0.629166667
vn 0.0000000 0.9999999 0.0000000
v -0.0820000 -0.1990000 0.6740000
vt 0.337500000 0.641666400
vn 0.0000000 0.9999999 0.0000000
v 0.0820000 -0.1990000 0.6740000
vt 0.350000000 0.641666400
vn 0.0000000 0.9999999 0.0000000
f 256/256/256 257/257/257 258/258/258
v -0.0820000 -0.1990000 0.6530000
vt 0.350000000 0.629166667
vn -1.0000000 0.0000000 0.0000000
v -0.0820000 -0.2060000 0.6530000
vt 0.337500000 0.629166667
vn -1.0000000 0.0000000 0.0000000
v -0.0820000 -0.2060000 0.6740000
vt 0.337500000 0.641666400
vn -1.0000000 0.0000000 0.0000000
f 259/259/259 260/260/260 261/261/261
v -0.0820000 -0.1990000 0.6530000
vt 0.350000000 0.629166667
vn -1.0000000 -0.0000000 -0.0000000
v -0.0820000 -0.2060000 0.6740000
vt 0.337500000 0.641666400
vn -1.0000000 -0.0000000 -0.0000000
v -0.0820000 -0.1990000 0.6740000
vt 0.350000000 0.641666400
vn -1.0000000 -0.0000000 -0.0000000
f 262/262/262 263/263/263 264/264/264
o pz_mailbox_residential_|_EDITABLE_curved_door_pull
usemtl metal
v 0.0233890 -0.2063387 0.7650000
vt 0.341012533 0.641666400
vn 0.8939984 0.3933591 -0.2145588
v 0.0266110 -0.2136613 0.7650000
vt 0.341012533 0.636760800
vn 0.8939984 0.3933591 -0.2145588
v 0.0242144 -0.2103456 0.7610931
vt 0.337500000 0.638982133
vn 0.8939984 0.3933591 -0.2145588
f 265/265/265 266/266/266 267/267/267
v 0.0257856 -0.2096544 0.7689068
vt 0.344525333 0.639445067
vn 0.8939984 0.3933591 -0.2145584
v 0.0266110 -0.2136613 0.7650000
vt 0.341012533 0.636760800
vn 0.8939984 0.3933591 -0.2145584
v 0.0233890 -0.2063387 0.7650000
vt 0.341012533 0.641666400
vn 0.8939984 0.3933591 -0.2145584
f 268/268/268 269/269/269 270/270/270
v -0.0266110 -0.2136613 0.7650000
vt 0.341012533 0.636760800
vn -0.8939981 0.3933594 -0.2145590
v -0.0233890 -0.2063387 0.7650000
vt 0.341012533 0.641666400
vn -0.8939981 0.3933594 -0.2145590
v -0.0242144 -0.2103456 0.7610931
vt 0.337500000 0.638982133
vn -0.8939981 0.3933594 -0.2145590
f 271/271/271 272/272/272 273/273/273
v -0.0257856 -0.2096543 0.7689068
vt 0.344525333 0.639445067
vn -0.8939981 0.3933594 -0.2145590
v -0.0233890 -0.2063387 0.7650000
vt 0.341012533 0.641666400
vn -0.8939981 0.3933594 -0.2145590
v -0.0266110 -0.2136613 0.7650000
vt 0.341012533 0.636760800
vn -0.8939981 0.3933594 -0.2145590
f 274/274/274 275/275/275 276/276/276
v -0.0257856 -0.2096543 0.7689068
vt 0.337693867 0.639445067
vn 0.1770074 0.6927157 0.6991518
v -0.0175677 -0.2143262 0.7714552
vt 0.339624000 0.636314933
vn 0.1770074 0.6927157 0.6991518
v -0.0146362 -0.2112810 0.7676958
vt 0.340312533 0.638355467
vn 0.1770074 0.6927157 0.6991518
f 277/277/277 278/278/278 279/279/279
v -0.0257856 -0.2096543 0.7689068
vt 0.337693867 0.639445067
vn 0.1770605 0.6941503 0.6977140
v -0.0146362 -0.2112810 0.7676958
vt 0.340312533 0.638355467
vn 0.1770605 0.6941503 0.6977140
v -0.0233890 -0.2063387 0.7650000
vt 0.338256800 0.641666400
vn 0.1770605 0.6941503 0.6977140
f 280/280/280 281/281/281 282/282/282
v -0.0266110 -0.2136613 0.7650000
vt 0.337500000 0.636760800
vn -0.5148530 -0.5402575 0.6656187
v -0.0185773 -0.2182400 0.7674975
vt 0.339386933 0.633693067
vn -0.5148530 -0.5402575 0.6656187
v -0.0175677 -0.2143262 0.7714552
vt 0.339624000 0.636314933
vn -0.5148530 -0.5402575 0.6656187
f 283/283/283 284/284/284 285/285/285
v -0.0266110 -0.2136613 0.7650000
vt 0.337500000 0.636760800
vn -0.5142605 -0.5420706 0.6646018
v -0.0175677 -0.2143262 0.7714552
vt 0.339624000 0.636314933
vn -0.5142605 -0.5420706 0.6646018
v -0.0257856 -0.2096543 0.7689068
vt 0.337693867 0.639445067
vn -0.5142605 -0.5420706 0.6646018
f 286/286/286 287/287/287 288/288/288
v -0.0242144 -0.2103456 0.7610931
vt 0.338062933 0.638982133
vn -0.1764421 -0.6930398 -0.6989735
v -0.0156458 -0.2151948 0.7637382
vt 0.340075467 0.635733067
vn -0.1764421 -0.6930398 -0.6989735
v -0.0185773 -0.2182400 0.7674975
vt 0.339386933 0.633693067
vn -0.1764421 -0.6930398 -0.6989735
f 289/289/289 290/290/290 291/291/291
v -0.0242144 -0.2103456 0.7610931
vt 0.338062933 0.638982133
vn -0.1783051 -0.6935641 -0.6979799
v -0.0185773 -0.2182400 0.7674975
vt 0.339386933 0.633693067
vn -0.1783051 -0.6935641 -0.6979799
v -0.0266110 -0.2136613 0.7650000
vt 0.337500000 0.636760800
vn -0.1783051 -0.6935641 -0.6979799
f 292/292/292 293/293/293 294/294/294
v -0.0233890 -0.2063387 0.7650000
vt 0.338256800 0.641666400
vn 0.5114672 0.5421848 -0.6666610
v -0.0146362 -0.2112810 0.7676958
vt 0.340312533 0.638355467
vn 0.5114672 0.5421848 -0.6666610
v -0.0156458 -0.2151948 0.7637382
vt 0.340075467 0.635733067
vn 0.5114672 0.5421848 -0.6666610
f 295/295/295 296/296/296 297/297/297
v -0.0233890 -0.2063387 0.7650000
vt 0.338256800 0.641666400
vn 0.5125970 0.5429590 -0.6651616
v -0.0156458 -0.2151948 0.7637382
vt 0.340075467 0.635733067
vn 0.5125970 0.5429590 -0.6651616
v -0.0242144 -0.2103456 0.7610931
vt 0.338062933 0.638982133
vn 0.5125970 0.5429590 -0.6651616
f 298/298/298 299/299/299 300/300/300
v -0.0175677 -0.2143262 0.7714552
vt 0.339624000 0.636314933
vn 0.1818987 0.6938529 0.6967646
v -0.0098622 -0.2187930 0.7738916
vt 0.341433600 0.633322400
vn 0.1818987 0.6938529 0.6967646
v -0.0077347 -0.2153671 0.7699246
vt 0.341933333 0.635617867
vn 0.1818987 0.6938529 0.6967646
f 301/301/301 302/302/302 303/303/303
v -0.0175677 -0.2143262 0.7714552
vt 0.339624000 0.636314933
vn 0.1820873 0.6897873 0.7007409
v -0.0077347 -0.2153671 0.7699246
vt 0.341933333 0.635617867
vn 0.1820873 0.6897873 0.7007409
v -0.0146362 -0.2112810 0.7676958
vt 0.340312533 0.638355467
vn 0.1820873 0.6897873 0.7007409
f 304/304/304 305/305/305 306/306/306
v -0.0185773 -0.2182400 0.7674975
vt 0.339386933 0.633693067
vn -0.5194782 -0.5411958 0.6612483
v -0.0105949 -0.2228379 0.7700055
vt 0.341261600 0.630612533
vn -0.5194782 -0.5411958 0.6612483
v -0.0098622 -0.2187930 0.7738916
vt 0.341433600 0.633322400
vn -0.5194782 -0.5411958 0.6612483
f 307/307/307 308/308/308 309/309/309
v -0.0185773 -0.2182400 0.7674975
vt 0.339386933 0.633693067
vn -0.5209900 -0.5367292 0.6636952
v -0.0098622 -0.2187930 0.7738916
vt 0.341433600 0.633322400
vn -0.5209900 -0.5367292 0.6636952
v -0.0175677 -0.2143262 0.7714552
vt 0.339624000 0.636314933
vn -0.5209900 -0.5367292 0.6636952
f 310/310/310 311/311/311 312/312/312
v -0.0156458 -0.2151948 0.7637382
vt 0.340075467 0.635733067
vn -0.1837745 -0.6930469 -0.6970746
v -0.0084674 -0.2194120 0.7660385
vt 0.341761333 0.632908000
vn -0.1837745 -0.6930469 -0.6970746
v -0.0105949 -0.2228379 0.7700055
vt 0.341261600 0.630612533
vn -0.1837745 -0.6930469 -0.6970746
f 313/313/313 314/314/314 315/315/315
v -0.0156458 -0.2151948 0.7637382
vt 0.340075467 0.635733067
vn -0.1786398 -0.6917779 -0.6996651
v -0.0105949 -0.2228379 0.7700055
vt 0.341261600 0.630612533
vn -0.1786398 -0.6917779 -0.6996651
v -0.0185773 -0.2182400 0.7674975
vt 0.339386933 0.633693067
vn -0.1786398 -0.6917779 -0.6996651
f 316/316/316 317/317/317 318/318/318
v -0.0146362 -0.2112810 0.7676958
vt 0.340312533 0.638355467
vn 0.5296072 0.5358300 -0.6575732
v -0.0077347 -0.2153671 0.7699246
vt 0.341933333 0.635617867
vn 0.5296072 0.5358300 -0.6575732
v -0.0084674 -0.2194120 0.7660385
vt 0.341761333 0.632908000
vn 0.5296072 0.5358300 -0.6575732
f 319/319/319 320/320/320 321/321/321
v -0.0146362 -0.2112810 0.7676958
vt 0.340312533 0.638355467
vn 0.5258442 0.5339063 -0.6621420
v -0.0084674 -0.2194120 0.7660385
vt 0.341761333 0.632908000
vn 0.5258442 0.5339063 -0.6621420
v -0.0156458 -0.2151948 0.7637382
vt 0.340075467 0.635733067
vn 0.5258442 0.5339063 -0.6621420
f 322/322/322 323/323/323 324/324/324
v -0.0098622 -0.2187930 0.7738916
vt 0.341433600 0.640673867
vn 0.0759296 0.7365003 0.6721622
v 0.0000000 -0.2208175 0.7749959
vt 0.343750133 0.641666400
vn 0.0759296 0.7365003 0.6721622
v -0.0000000 -0.2170042 0.7708175
vt 0.343750133 0.637910133
vn 0.0759296 0.7365003 0.6721622
f 325/325/325 326/326/326 327/327/327
v -0.0098622 -0.2187930 0.7738916
vt 0.341433600 0.640673867
vn 0.0773538 0.7336727 0.6750857
v -0.0000000 -0.2170042 0.7708175
vt 0.343750133 0.637910133
vn 0.0773538 0.7336727 0.6750857
v -0.0077347 -0.2153671 0.7699246
vt 0.341933333 0.637106933
vn 0.0773538 0.7336727 0.6750857
f 328/328/328 329/329/329 330/330/330
v -0.0105949 -0.2228379 0.7700055
vt 0.341261600 0.630612533
vn -0.2142674 -0.6584517 0.7214782
v 0.0000000 -0.2249958 0.7711825
vt 0.343750133 0.629166667
vn -0.2142674 -0.6584517 0.7214782
v 0.0000000 -0.2208175 0.7749959
vt 0.343750133 0.631966133
vn -0.2142674 -0.6584517 0.7214782
f 331/331/331 332/332/332 333/333/333
v -0.0105949 -0.2228379 0.7700055
vt 0.341261600 0.630612533
vn -0.2156417 -0.6559213 0.7233713
v 0.0000000 -0.2208175 0.7749959
vt 0.343750133 0.631966133
vn -0.2156417 -0.6559213 0.7233713
v -0.0098622 -0.2187930 0.7738916
vt 0.341433600 0.633322400
vn -0.2156417 -0.6559213 0.7233713
f 334/334/334 335/335/335 336/336/336
v -0.0084674 -0.2194120 0.7660385
vt 0.341761333 0.633613067
vn -0.0773313 -0.7364207 -0.6720897
v -0.0000000 -0.2211825 0.7670042
vt 0.343749867 0.634481333
vn -0.0773313 -0.7364207 -0.6720897
v 0.0000000 -0.2249958 0.7711825
vt 0.343750133 0.638238133
vn -0.0773313 -0.7364207 -0.6720897
f 337/337/337 338/338/338 339/339/339
v -0.0084674 -0.2194120 0.7660385
vt 0.341761333 0.633613067
vn -0.0746873 -0.7345594 -0.6744214
v 0.0000000 -0.2249958 0.7711825
vt 0.343750133 0.638238133
vn -0.0746873 -0.7345594 -0.6744214
v -0.0105949 -0.2228379 0.7700055
vt 0.341261600 0.637180000
vn -0.0746873 -0.7345594 -0.6744214
f 340/340/340 341/341/341 342/342/342
v -0.0077347 -0.2153671 0.7699246
vt 0.341933333 0.635617867
vn 0.2222434 0.6572493 -0.7201606
v -0.0000000 -0.2170042 0.7708175
vt 0.343750133 0.634520800
vn 0.2222434 0.6572493 -0.7201606
v -0.0000000 -0.2211825 0.7670042
vt 0.343749867 0.631721333
vn 0.2222434 0.6572493 -0.7201606
f 343/343/343 344/344/344 345/345/345
v -0.0077347 -0.2153671 0.7699246
vt 0.341933333 0.635617867
vn 0.2194226 0.6549711 -0.7230951
v -0.0000000 -0.2211825 0.7670042
vt 0.343749867 0.631721333
vn 0.2194226 0.6549711 -0.7230951
v -0.0084674 -0.2194120 0.7660385
vt 0.341761333 0.632908000
vn 0.2194226 0.6549711 -0.7230951
f 346/346/346 347/347/347 348/348/348
v 0.0000000 -0.2208175 0.7749959
vt 0.343750133 0.641666400
vn -0.0752228 0.7343817 0.6745554
v 0.0098622 -0.2187930 0.7738916
vt 0.346066400 0.640673867
vn -0.0752228 0.7343817 0.6745554
v 0.0077347 -0.2153671 0.7699246
vt 0.345566667 0.637106933
vn -0.0752228 0.7343817 0.6745554
f 349/349/349 350/350/350 351/351/351
v 0.0000000 -0.2208175 0.7749959
vt 0.343750133 0.641666400
vn -0.0782702 0.7363663 0.6720405
v 0.0077347 -0.2153671 0.7699246
vt 0.345566667 0.637106933
vn -0.0782702 0.7363663 0.6720405
v -0.0000000 -0.2170042 0.7708175
vt 0.343750133 0.637910133
vn -0.0782702 0.7363663 0.6720405
f 352/352/352 353/353/353 354/354/354
v 0.0000000 -0.2249958 0.7711825
vt 0.343750133 0.629166667
vn 0.2140593 -0.6563162 0.7234830
v 0.0105949 -0.2228379 0.7700054
vt 0.346238400 0.630612533
vn 0.2140593 -0.6563162 0.7234830
v 0.0098622 -0.2187930 0.7738916
vt 0.346066400 0.633322400
vn 0.2140593 -0.6563162 0.7234830
f 355/355/355 356/356/356 357/357/357
v 0.0000000 -0.2249958 0.7711825
vt 0.343750133 0.629166667
vn 0.2158755 -0.6582137 0.7212159
v 0.0098622 -0.2187930 0.7738916
vt 0.346066400 0.633322400
vn 0.2158755 -0.6582137 0.7212159
v 0.0000000 -0.2208175 0.7749959
vt 0.343750133 0.631966133
vn 0.2158755 -0.6582137 0.7212159
f 358/358/358 359/359/359 360/360/360
v -0.0000000 -0.2211825 0.7670042
vt 0.343749867 0.634481333
vn 0.0764944 -0.7339590 -0.6748723
v 0.0084674 -0.2194120 0.7660384
vt 0.345738667 0.633613067
vn 0.0764944 -0.7339590 -0.6748723
v 0.0105949 -0.2228379 0.7700054
vt 0.346238400 0.637179467
vn 0.0764944 -0.7339590 -0.6748723
f 361/361/361 362/362/362 363/363/363
v -0.0000000 -0.2211825 0.7670042
vt 0.343749867 0.634481333
vn 0.0753332 -0.7365335 -0.6721930
v 0.0105949 -0.2228379 0.7700054
vt 0.346238400 0.637179467
vn 0.0753332 -0.7365335 -0.6721930
v 0.0000000 -0.2249958 0.7711825
vt 0.343750133 0.638238133
vn 0.0753332 -0.7365335 -0.6721930
f 364/364/364 365/365/365 366/366/366
v -0.0000000 -0.2170042 0.7708175
vt 0.343750133 0.634520800
vn -0.2219480 0.6543309 -0.7229040
v 0.0077347 -0.2153671 0.7699246
vt 0.345566667 0.635617867
vn -0.2219480 0.6543309 -0.7229040
v 0.0084674 -0.2194120 0.7660384
vt 0.345738667 0.632908000
vn -0.2219480 0.6543309 -0.7229040
f 367/367/367 368/368/368 369/369/369
v -0.0000000 -0.2170042 0.7708175
vt 0.343750133 0.634520800
vn -0.2196989 0.6576386 -0.7205858
v 0.0084674 -0.2194120 0.7660384
vt 0.345738667 0.632908000
vn -0.2196989 0.6576386 -0.7205858
v -0.0000000 -0.2211825 0.7670042
vt 0.343749867 0.631721333
vn -0.2196989 0.6576386 -0.7205858
f 370/370/370 371/371/371 372/372/372
v 0.0098622 -0.2187930 0.7738916
vt 0.346066400 0.633322400
vn -0.1794332 0.6913196 0.6999150
v 0.0175677 -0.2143263 0.7714551
vt 0.347876000 0.636314933
vn -0.1794332 0.6913196 0.6999150
v 0.0146362 -0.2112810 0.7676957
vt 0.347187467 0.638355467
vn -0.1794332 0.6913196 0.6999150
f 373/373/373 374/374/374 375/375/375
v 0.0098622 -0.2187930 0.7738916
vt 0.346066400 0.633322400
vn -0.1848649 0.6925765 0.6972537
v 0.0146362 -0.2112810 0.7676957
vt 0.347187467 0.638355467
vn -0.1848649 0.6925765 0.6972537
v 0.0077347 -0.2153671 0.7699246
vt 0.345566667 0.635617867
vn -0.1848649 0.6925765 0.6972537
f 376/376/376 377/377/377 378/378/378
v 0.0105949 -0.2228379 0.7700054
vt 0.346238400 0.630612533
vn 0.5186741 -0.5380668 0.6644256
v 0.0185773 -0.2182400 0.7674975
vt 0.348113067 0.633693067
vn 0.5186741 -0.5380668 0.6644256
v 0.0175677 -0.2143263 0.7714551
vt 0.347876000 0.636314933
vn 0.5186741 -0.5380668 0.6644256
f 379/379/379 380/380/380 381/381/381
v 0.0105949 -0.2228379 0.7700054
vt 0.346238400 0.630612533
vn 0.5218257 -0.5399640 0.6604065
v 0.0175677 -0.2143263 0.7714551
vt 0.347876000 0.636314933
vn 0.5218257 -0.5399640 0.6604065
v 0.0098622 -0.2187930 0.7738916
vt 0.346066400 0.633322400
vn 0.5218257 -0.5399640 0.6604065
f 382/382/382 383/383/383 384/384/384
v 0.0084674 -0.2194120 0.7660384
vt 0.345738667 0.632908000
vn 0.1811128 -0.6903500 -0.7004392
v 0.0156458 -0.2151948 0.7637381
vt 0.347424533 0.635733067
vn 0.1811128 -0.6903500 -0.7004392
v 0.0185773 -0.2182400 0.7674975
vt 0.348113067 0.633693067
vn 0.1811128 -0.6903500 -0.7004392
f 385/385/385 386/386/386 387/387/387
v 0.0084674 -0.2194120 0.7660384
vt 0.345738667 0.632908000
vn 0.1810113 -0.6942328 -0.6966174
v 0.0185773 -0.2182400 0.7674975
vt 0.348113067 0.633693067
vn 0.1810113 -0.6942328 -0.6966174
v 0.0105949 -0.2228379 0.7700054
vt 0.346238400 0.630612533
vn 0.1810113 -0.6942328 -0.6966174
f 388/388/388 389/389/389 390/390/390
v 0.0077347 -0.2153671 0.7699246
vt 0.345566667 0.635617867
vn -0.5286679 0.5322518 -0.6612246
v 0.0146362 -0.2112810 0.7676957
vt 0.347187467 0.638355467
vn -0.5286679 0.5322518 -0.6612246
v 0.0156458 -0.2151948 0.7637381
vt 0.347424533 0.635733067
vn -0.5286679 0.5322518 -0.6612246
f 391/391/391 392/392/392 393/393/393
v 0.0077347 -0.2153671 0.7699246
vt 0.345566667 0.635617867
vn -0.5267449 0.5373595 -0.6586233
v 0.0156458 -0.2151948 0.7637381
vt 0.347424533 0.635733067
vn -0.5267449 0.5373595 -0.6586233
v 0.0084674 -0.2194120 0.7660384
vt 0.345738667 0.632908000
vn -0.5267449 0.5373595 -0.6586233
f 394/394/394 395/395/395 396/396/396
v 0.0175677 -0.2143263 0.7714551
vt 0.347876000 0.636314933
vn -0.1779690 0.6937212 0.6979098
v 0.0257856 -0.2096544 0.7689068
vt 0.349806133 0.639445067
vn -0.1779690 0.6937212 0.6979098
v 0.0233890 -0.2063387 0.7650000
vt 0.349243200 0.641666400
vn -0.1779690 0.6937212 0.6979098
f 397/397/397 398/398/398 399/399/399
v 0.0175677 -0.2143263 0.7714551
vt 0.347876000 0.636314933
vn -0.1761655 0.6931969 0.6988875
v 0.0233890 -0.2063387 0.7650000
vt 0.349243200 0.641666400
vn -0.1761655 0.6931969 0.6988875
v 0.0146362 -0.2112810 0.7676957
vt 0.347187467 0.638355467
vn -0.1761655 0.6931969 0.6988875
f 400/400/400 401/401/401 402/402/402
v 0.0185773 -0.2182400 0.7674975
vt 0.348113067 0.633693067
vn 0.5151861 -0.5415764 0.6642878
v 0.0266110 -0.2136613 0.7650000
vt 0.350000000 0.636760800
vn 0.5151861 -0.5415764 0.6642878
v 0.0257856 -0.2096544 0.7689068
vt 0.349806133 0.639445067
vn 0.5151861 -0.5415764 0.6642878
f 403/403/403 404/404/404 405/405/405
v 0.0185773 -0.2182400 0.7674975
vt 0.348113067 0.633693067
vn 0.5139285 -0.5407859 0.6659039
v 0.0257856 -0.2096544 0.7689068
vt 0.349806133 0.639445067
vn 0.5139285 -0.5407859 0.6659039
v 0.0175677 -0.2143263 0.7714551
vt 0.347876000 0.636314933
vn 0.5139285 -0.5407859 0.6659039
f 406/406/406 407/407/407 408/408/408
v 0.0156458 -0.2151948 0.7637381
vt 0.347424533 0.635733067
vn 0.1773627 -0.6940066 -0.6977802
v 0.0242144 -0.2103456 0.7610931
vt 0.349437067 0.638982133
vn 0.1773627 -0.6940066 -0.6977802
v 0.0266110 -0.2136613 0.7650000
vt 0.350000000 0.636760800
vn 0.1773627 -0.6940066 -0.6977802
f 409/409/409 410/410/410 411/411/411
v 0.0156458 -0.2151948 0.7637381
vt 0.347424533 0.635733067
vn 0.1773259 -0.6925316 -0.6992535
v 0.0266110 -0.2136613 0.7650000
vt 0.350000000 0.636760800
vn 0.1773259 -0.6925316 -0.6992535
v 0.0185773 -0.2182400 0.7674975
vt 0.348113067 0.633693067
vn 0.1773259 -0.6925316 -0.6992535
f 412/412/412 413/413/413 414/414/414
v 0.0146362 -0.2112810 0.7676957
vt 0.347187467 0.638355467
vn -0.5117719 0.5434002 -0.6654366
v 0.0233890 -0.2063387 0.7650000
vt 0.349243200 0.641666400
vn -0.5117719 0.5434002 -0.6654366
v 0.0242144 -0.2103456 0.7610931
vt 0.349437067 0.638982133
vn -0.5117719 0.5434002 -0.6654366
f 415/415/415 416/416/416 417/417/417
v 0.0146362 -0.2112810 0.7676957
vt 0.347187467 0.638355467
vn -0.5122800 0.5417243 -0.6664113
v 0.0242144 -0.2103456 0.7610931
vt 0.349437067 0.638982133
vn -0.5122800 0.5417243 -0.6664113
v 0.0156458 -0.2151948 0.7637381
vt 0.347424533 0.635733067
vn -0.5122800 0.5417243 -0.6664113
f 418/418/418 419/419/419 420/420/420
o pz_mailbox_residential_|_red_signal_flag_staff
usemtl red
v 0.0950000 -0.0480000 0.7740000
vt 0.483333333 0.650000267
vn -0.0000000 -0.0000000 -1.0000000
v 0.0950000 -0.0380000 0.7740000
vt 0.483333333 0.662500000
vn -0.0000000 -0.0000000 -1.0000000
v 0.1040000 -0.0380000 0.7740000
vt 0.495833333 0.662500000
vn -0.0000000 -0.0000000 -1.0000000
f 421/421/421 422/422/422 423/423/423
v 0.0950000 -0.0480000 0.7740000
vt 0.483333333 0.650000267
vn -0.0000000 0.0000000 -1.0000000
v 0.1040000 -0.0380000 0.7740000
vt 0.495833333 0.662500000
vn -0.0000000 0.0000000 -1.0000000
v 0.1040000 -0.0480000 0.7740000
vt 0.495833333 0.650000267
vn -0.0000000 0.0000000 -1.0000000
f 424/424/424 425/425/425 426/426/426
v 0.0950000 -0.0480000 0.8750000
vt 0.483333333 0.650000267
vn 0.0000000 0.0000000 1.0000000
v 0.1040000 -0.0480000 0.8750000
vt 0.495833333 0.650000267
vn 0.0000000 0.0000000 1.0000000
v 0.1040000 -0.0380000 0.8750000
vt 0.495833333 0.662500000
vn 0.0000000 0.0000000 1.0000000
f 427/427/427 428/428/428 429/429/429
v 0.0950000 -0.0480000 0.8750000
vt 0.483333333 0.650000267
vn -0.0000000 0.0000000 1.0000000
v 0.1040000 -0.0380000 0.8750000
vt 0.495833333 0.662500000
vn -0.0000000 0.0000000 1.0000000
v 0.0950000 -0.0380000 0.8750000
vt 0.483333333 0.662500000
vn -0.0000000 0.0000000 1.0000000
f 430/430/430 431/431/431 432/432/432
v 0.0950000 -0.0480000 0.7740000
vt 0.483333333 0.650000267
vn -0.0000000 -1.0000000 -0.0000000
v 0.1040000 -0.0480000 0.7740000
vt 0.495833333 0.650000267
vn -0.0000000 -1.0000000 -0.0000000
v 0.1040000 -0.0480000 0.8750000
vt 0.495833333 0.662500000
vn -0.0000000 -1.0000000 -0.0000000
f 433/433/433 434/434/434 435/435/435
v 0.0950000 -0.0480000 0.7740000
vt 0.483333333 0.650000267
vn 0.0000000 -1.0000000 -0.0000000
v 0.1040000 -0.0480000 0.8750000
vt 0.495833333 0.662500000
vn 0.0000000 -1.0000000 -0.0000000
v 0.0950000 -0.0480000 0.8750000
vt 0.483333333 0.662500000
vn 0.0000000 -1.0000000 -0.0000000
f 436/436/436 437/437/437 438/438/438
v 0.1040000 -0.0480000 0.7740000
vt 0.483333333 0.650000267
vn 1.0000000 0.0000000 0.0000000
v 0.1040000 -0.0380000 0.7740000
vt 0.495833333 0.650000267
vn 1.0000000 0.0000000 0.0000000
v 0.1040000 -0.0380000 0.8750000
vt 0.495833333 0.662500000
vn 1.0000000 0.0000000 0.0000000
f 439/439/439 440/440/440 441/441/441
v 0.1040000 -0.0480000 0.7740000
vt 0.483333333 0.650000267
vn 1.0000000 -0.0000000 0.0000000
v 0.1040000 -0.0380000 0.8750000
vt 0.495833333 0.662500000
vn 1.0000000 -0.0000000 0.0000000
v 0.1040000 -0.0480000 0.8750000
vt 0.483333333 0.662500000
vn 1.0000000 -0.0000000 0.0000000
f 442/442/442 443/443/443 444/444/444
v 0.1040000 -0.0380000 0.7740000
vt 0.495833333 0.650000267
vn -0.0000000 1.0000000 0.0000000
v 0.0950000 -0.0380000 0.7740000
vt 0.483333333 0.650000267
vn -0.0000000 1.0000000 0.0000000
v 0.0950000 -0.0380000 0.8750000
vt 0.483333333 0.662500000
vn -0.0000000 1.0000000 0.0000000
f 445/445/445 446/446/446 447/447/447
v 0.1040000 -0.0380000 0.7740000
vt 0.495833333 0.650000267
vn 0.0000000 1.0000000 0.0000000
v 0.0950000 -0.0380000 0.8750000
vt 0.483333333 0.662500000
vn 0.0000000 1.0000000 0.0000000
v 0.1040000 -0.0380000 0.8750000
vt 0.495833333 0.662500000
vn 0.0000000 1.0000000 0.0000000
f 448/448/448 449/449/449 450/450/450
v 0.0950000 -0.0380000 0.7740000
vt 0.495833333 0.650000267
vn -1.0000000 0.0000000 0.0000000
v 0.0950000 -0.0480000 0.7740000
vt 0.483333333 0.650000267
vn -1.0000000 0.0000000 0.0000000
v 0.0950000 -0.0480000 0.8750000
vt 0.483333333 0.662500000
vn -1.0000000 0.0000000 0.0000000
f 451/451/451 452/452/452 453/453/453
v 0.0950000 -0.0380000 0.7740000
vt 0.495833333 0.650000267
vn -1.0000000 -0.0000000 -0.0000000
v 0.0950000 -0.0480000 0.8750000
vt 0.483333333 0.662500000
vn -1.0000000 -0.0000000 -0.0000000
v 0.0950000 -0.0380000 0.8750000
vt 0.495833333 0.662500000
vn -1.0000000 -0.0000000 -0.0000000
f 454/454/454 455/455/455 456/456/456
o pz_mailbox_residential_|_red_flag
usemtl red
v 0.0950000 -0.0430000 0.8560000
vt 0.483333333 0.650000267
vn -0.0000000 -0.0000000 -1.0000000
v 0.0950000 -0.0340000 0.8560000
vt 0.483333333 0.662500000
vn -0.0000000 -0.0000000 -1.0000000
v 0.1320000 -0.0340000 0.8560000
vt 0.495833333 0.662500000
vn -0.0000000 -0.0000000 -1.0000000
f 457/457/457 458/458/458 459/459/459
v 0.0950000 -0.0430000 0.8560000
vt 0.483333333 0.650000267
vn -0.0000000 0.0000000 -1.0000000
v 0.1320000 -0.0340000 0.8560000
vt 0.495833333 0.662500000
vn -0.0000000 0.0000000 -1.0000000
v 0.1320000 -0.0430000 0.8560000
vt 0.495833333 0.650000267
vn -0.0000000 0.0000000 -1.0000000
f 460/460/460 461/461/461 462/462/462
v 0.0950000 -0.0430000 0.8790000
vt 0.483333333 0.650000267
vn 0.0000000 0.0000000 1.0000000
v 0.1320000 -0.0430000 0.8790000
vt 0.495833333 0.650000267
vn 0.0000000 0.0000000 1.0000000
v 0.1320000 -0.0340000 0.8790000
vt 0.495833333 0.662500000
vn 0.0000000 0.0000000 1.0000000
f 463/463/463 464/464/464 465/465/465
v 0.0950000 -0.0430000 0.8790000
vt 0.483333333 0.650000267
vn -0.0000000 0.0000000 1.0000000
v 0.1320000 -0.0340000 0.8790000
vt 0.495833333 0.662500000
vn -0.0000000 0.0000000 1.0000000
v 0.0950000 -0.0340000 0.8790000
vt 0.483333333 0.662500000
vn -0.0000000 0.0000000 1.0000000
f 466/466/466 467/467/467 468/468/468
v 0.0950000 -0.0430000 0.8560000
vt 0.483333333 0.650000267
vn -0.0000000 -1.0000000 -0.0000000
v 0.1320000 -0.0430000 0.8560000
vt 0.495833333 0.650000267
vn -0.0000000 -1.0000000 -0.0000000
v 0.1320000 -0.0430000 0.8790000
vt 0.495833333 0.662500000
vn -0.0000000 -1.0000000 -0.0000000
f 469/469/469 470/470/470 471/471/471
v 0.0950000 -0.0430000 0.8560000
vt 0.483333333 0.650000267
vn 0.0000000 -1.0000000 -0.0000000
v 0.1320000 -0.0430000 0.8790000
vt 0.495833333 0.662500000
vn 0.0000000 -1.0000000 -0.0000000
v 0.0950000 -0.0430000 0.8790000
vt 0.483333333 0.662500000
vn 0.0000000 -1.0000000 -0.0000000
f 472/472/472 473/473/473 474/474/474
v 0.1320000 -0.0430000 0.8560000
vt 0.483333333 0.650000267
vn 1.0000000 0.0000000 0.0000000
v 0.1320000 -0.0340000 0.8560000
vt 0.495833333 0.650000267
vn 1.0000000 0.0000000 0.0000000
v 0.1320000 -0.0340000 0.8790000
vt 0.495833333 0.662500000
vn 1.0000000 0.0000000 0.0000000
f 475/475/475 476/476/476 477/477/477
v 0.1320000 -0.0430000 0.8560000
vt 0.483333333 0.650000267
vn 1.0000000 -0.0000000 0.0000000
v 0.1320000 -0.0340000 0.8790000
vt 0.495833333 0.662500000
vn 1.0000000 -0.0000000 0.0000000
v 0.1320000 -0.0430000 0.8790000
vt 0.483333333 0.662500000
vn 1.0000000 -0.0000000 0.0000000
f 478/478/478 479/479/479 480/480/480
v 0.1320000 -0.0340000 0.8560000
vt 0.495833333 0.650000267
vn -0.0000000 1.0000000 0.0000000
v 0.0950000 -0.0340000 0.8560000
vt 0.483333333 0.650000267
vn -0.0000000 1.0000000 0.0000000
v 0.0950000 -0.0340000 0.8790000
vt 0.483333333 0.662500000
vn -0.0000000 1.0000000 0.0000000
f 481/481/481 482/482/482 483/483/483
v 0.1320000 -0.0340000 0.8560000
vt 0.495833333 0.650000267
vn 0.0000000 1.0000000 0.0000000
v 0.0950000 -0.0340000 0.8790000
vt 0.483333333 0.662500000
vn 0.0000000 1.0000000 0.0000000
v 0.1320000 -0.0340000 0.8790000
vt 0.495833333 0.662500000
vn 0.0000000 1.0000000 0.0000000
f 484/484/484 485/485/485 486/486/486
v 0.0950000 -0.0340000 0.8560000
vt 0.495833333 0.650000267
vn -1.0000000 0.0000000 0.0000000
v 0.0950000 -0.0430000 0.8560000
vt 0.483333333 0.650000267
vn -1.0000000 0.0000000 0.0000000
v 0.0950000 -0.0430000 0.8790000
vt 0.483333333 0.662500000
vn -1.0000000 0.0000000 0.0000000
f 487/487/487 488/488/488 489/489/489
v 0.0950000 -0.0340000 0.8560000
vt 0.495833333 0.650000267
vn -1.0000000 -0.0000000 -0.0000000
v 0.0950000 -0.0430000 0.8790000
vt 0.483333333 0.662500000
vn -1.0000000 -0.0000000 -0.0000000
v 0.0950000 -0.0340000 0.8790000
vt 0.495833333 0.662500000
vn -1.0000000 -0.0000000 -0.0000000
f 490/490/490 491/491/491 492/492/492
