mtllib pz_native_fixtures_windows_metal_58.mtl
o pz_native_fixtures_windows_metal_58_frame
usemtl Native_pz_native_fixtures_windows_metal_58
v -0.50000000 0.50000000 2.43673198
v -0.50000000 -0.37500000 2.43673198
v -0.50000000 -0.37500000 0.72719227
v -0.50000000 0.50000000 0.72719227
vt 0.015625000 0.992187500
vt 0.453125000 0.992187500
vt 0.453125000 0.468750000
vt 0.015625000 0.468750000
vn 1.00000000 0.00000000 0.00000000
f 1/1/1 2/2/1 3/3/1
f 1/1/1 3/3/1 4/4/1
v -0.46000000 0.50000000 0.72719227
v -0.46000000 -0.37500000 0.72719227
v -0.46000000 -0.37500000 2.43673198
v -0.46000000 0.50000000 2.43673198
vt 0.015625000 0.468750000
vt 0.453125000 0.468750000
vt 0.453125000 0.992187500
vt 0.015625000 0.992187500
vn -1.00000000 0.00000000 0.00000000
f 5/5/2 6/6/2 7/7/2
f 5/5/2 7/7/2 8/8/2
v -0.46000000 0.46875000 2.41121647
v -0.46000000 0.32812500 2.39845871
v -0.50000000 0.32812500 2.39845871
v -0.50000000 0.46875000 2.41121647
vt 0.019531250 0.447265625
vt 0.042968750 0.447265625
vt 0.042968750 0.458984375
vt 0.019531250 0.458984375
vn 0.00000000 0.09035079 -0.99591000
f 9/9/3 10/10/3 11/11/3
f 9/9/3 11/11/3 12/12/3
v -0.46000000 0.32812500 2.39845871
v -0.46000000 0.29687500 2.37294319
v -0.50000000 0.29687500 2.37294319
v -0.50000000 0.32812500 2.39845871
vt 0.050781250 0.447265625
vt 0.074218750 0.447265625
vt 0.074218750 0.458984375
vt 0.050781250 0.458984375
vn 0.00000000 0.63245553 -0.77459667
f 13/13/4 14/14/4 15/15/4
f 13/13/4 15/15/4 16/16/4
v -0.46000000 0.29687500 2.37294319
v -0.46000000 0.26562500 2.38570095
v -0.50000000 0.26562500 2.38570095
v -0.50000000 0.29687500 2.37294319
vt 0.082031250 0.447265625
vt 0.105468750 0.447265625
vt 0.105468750 0.458984375
vt 0.082031250 0.458984375
vn 0.00000000 -0.37796447 -0.92582010
f 17/17/5 18/18/5 19/19/5
f 17/17/5 19/19/5 20/20/5
v -0.46000000 0.26562500 2.38570095
v -0.46000000 0.01562500 2.27088112
v -0.50000000 0.01562500 2.27088112
v -0.50000000 0.26562500 2.38570095
vt 0.113281250 0.447265625
vt 0.136718750 0.447265625
vt 0.136718750 0.458984375
vt 0.113281250 0.458984375
vn 0.00000000 0.41736501 -0.90873893
f 21/21/6 22/22/6 23/23/6
f 21/21/6 23/23/6 24/24/6
v -0.46000000 0.01562500 2.27088112
v -0.46000000 0.01562500 2.24536560
v -0.50000000 0.01562500 2.24536560
v -0.50000000 0.01562500 2.27088112
vt 0.144531250 0.447265625
vt 0.167968750 0.447265625
vt 0.167968750 0.458984375
vt 0.144531250 0.458984375
vn 0.00000000 1.00000000 0.00000000
f 25/25/7 26/26/7 27/27/7
f 25/25/7 27/27/7 28/28/7
v -0.46000000 0.01562500 2.24536560
v -0.46000000 -0.10937500 2.16881904
v -0.50000000 -0.10937500 2.16881904
v -0.50000000 0.01562500 2.24536560
vt 0.175781250 0.447265625
vt 0.199218750 0.447265625
vt 0.199218750 0.458984375
vt 0.175781250 0.458984375
vn 0.00000000 0.52223297 -0.85280287
f 29/29/8 30/30/8 31/31/8
f 29/29/8 31/31/8 32/32/8
v -0.46000000 -0.10937500 2.16881904
v -0.46000000 -0.26562500 1.95193714
v -0.50000000 -0.26562500 1.95193714
v -0.50000000 -0.10937500 2.16881904
vt 0.207031250 0.447265625
vt 0.230468750 0.447265625
vt 0.230468750 0.458984375
vt 0.207031250 0.458984375
vn 0.00000000 0.81136573 -0.58453883
f 33/33/9 34/34/9 35/35/9
f 33/33/9 35/35/9 36/36/9
v -0.46000000 -0.26562500 1.95193714
v -0.46000000 -0.34375000 1.67126644
v -0.50000000 -0.34375000 1.67126644
v -0.50000000 -0.26562500 1.95193714
vt 0.238281250 0.447265625
vt 0.261718750 0.447265625
vt 0.261718750 0.458984375
vt 0.238281250 0.458984375
vn 0.00000000 0.96337534 -0.26815659
f 37/37/10 38/38/10 39/39/10
f 37/37/10 39/39/10 40/40/10
v -0.46000000 -0.34375000 1.67126644
v -0.46000000 -0.35937500 0.75270779
v -0.50000000 -0.35937500 0.75270779
v -0.50000000 -0.34375000 1.67126644
vt 0.269531250 0.447265625
vt 0.292968750 0.447265625
vt 0.292968750 0.458984375
vt 0.269531250 0.458984375
vn 0.00000000 0.99985536 -0.01700788
f 41/41/11 42/42/11 43/43/11
f 41/41/11 43/43/11 44/44/11
v -0.46000000 -0.35937500 0.75270779
v -0.46000000 0.39062500 0.75270779
v -0.50000000 0.39062500 0.75270779
v -0.50000000 -0.35937500 0.75270779
vt 0.300781250 0.447265625
vt 0.324218750 0.447265625
vt 0.324218750 0.458984375
vt 0.300781250 0.458984375
vn 0.00000000 -0.00000000 1.00000000
f 45/45/12 46/46/12 47/47/12
f 45/45/12 47/47/12 48/48/12
v -0.46000000 0.39062500 0.75270779
v -0.46000000 0.46875000 0.80373882
v -0.50000000 0.46875000 0.80373882
v -0.50000000 0.39062500 0.75270779
vt 0.332031250 0.447265625
vt 0.355468750 0.447265625
vt 0.355468750 0.458984375
vt 0.332031250 0.458984375
vn 0.00000000 -0.54686874 0.83721836
f 49/49/13 50/50/13 51/51/13
f 49/49/13 51/51/13 52/52/13
v -0.46000000 0.46875000 0.80373882
v -0.46000000 0.46875000 2.41121647
v -0.50000000 0.46875000 2.41121647
v -0.50000000 0.46875000 0.80373882
vt 0.363281250 0.447265625
vt 0.386718750 0.447265625
vt 0.386718750 0.458984375
vt 0.363281250 0.458984375
vn 0.00000000 -1.00000000 0.00000000
f 53/53/14 54/54/14 55/55/14
f 53/53/14 55/55/14 56/56/14
v -0.46000000 0.34375000 2.30915439
v -0.46000000 0.35937500 2.29639663
v -0.50000000 0.35937500 2.29639663
v -0.50000000 0.34375000 2.30915439
vt 0.394531250 0.447265625
vt 0.417968750 0.447265625
vt 0.417968750 0.458984375
vt 0.394531250 0.458984375
vn 0.00000000 0.63245553 0.77459667
f 57/57/15 58/58/15 59/59/15
f 57/57/15 59/59/15 60/60/15
v -0.46000000 0.35937500 2.29639663
v -0.46000000 0.29687500 2.25812336
v -0.50000000 0.29687500 2.25812336
v -0.50000000 0.35937500 2.29639663
vt 0.425781250 0.447265625
vt 0.449218750 0.447265625
vt 0.449218750 0.458984375
vt 0.425781250 0.458984375
vn 0.00000000 0.52223297 -0.85280287
f 61/61/16 62/62/16 63/63/16
f 61/61/16 63/63/16 64/64/16
v -0.46000000 0.29687500 2.25812336
v -0.46000000 0.21875000 2.13054577
v -0.50000000 0.21875000 2.13054577
v -0.50000000 0.29687500 2.25812336
vt 0.457031250 0.447265625
vt 0.480468750 0.447265625
vt 0.480468750 0.458984375
vt 0.457031250 0.458984375
vn 0.00000000 0.85280287 -0.52223297
f 65/65/17 66/66/17 67/67/17
f 65/65/17 67/67/17 68/68/17
v -0.46000000 0.21875000 2.13054577
v -0.46000000 0.26562500 2.14330352
v -0.50000000 0.26562500 2.14330352
v -0.50000000 0.21875000 2.13054577
vt 0.488281250 0.447265625
vt 0.511718750 0.447265625
vt 0.511718750 0.458984375
vt 0.488281250 0.458984375
vn 0.00000000 -0.26261287 0.96490128
f 69/69/18 70/70/18 71/71/18
f 69/69/18 71/71/18 72/72/18
v -0.46000000 0.26562500 2.14330352
v -0.46000000 0.29687500 2.21985008
v -0.50000000 0.29687500 2.21985008
v -0.50000000 0.26562500 2.14330352
vt 0.019531250 0.431640625
vt 0.042968750 0.431640625
vt 0.042968750 0.443359375
vt 0.019531250 0.443359375
vn 0.00000000 -0.92582010 0.37796447
f 73/73/19 74/74/19 75/75/19
f 73/73/19 75/75/19 76/76/19
v -0.46000000 0.29687500 2.21985008
v -0.46000000 0.42187500 2.29639663
v -0.50000000 0.42187500 2.29639663
v -0.50000000 0.29687500 2.21985008
vt 0.050781250 0.431640625
vt 0.074218750 0.431640625
vt 0.074218750 0.443359375
vt 0.050781250 0.443359375
vn 0.00000000 -0.52223297 0.85280287
f 77/77/20 78/78/20 79/79/20
f 77/77/20 79/79/20 80/80/20
v -0.46000000 0.42187500 2.29639663
v -0.46000000 0.42187500 1.62023540
v -0.50000000 0.42187500 1.62023540
v -0.50000000 0.42187500 2.29639663
vt 0.082031250 0.431640625
vt 0.105468750 0.431640625
vt 0.105468750 0.443359375
vt 0.082031250 0.443359375
vn 0.00000000 1.00000000 0.00000000
f 81/81/21 82/82/21 83/83/21
f 81/81/21 83/83/21 84/84/21
v -0.46000000 0.42187500 1.62023540
v -0.46000000 0.35937500 1.62023540
v -0.50000000 0.35937500 1.62023540
v -0.50000000 0.42187500 1.62023540
vt 0.113281250 0.431640625
vt 0.136718750 0.431640625
vt 0.136718750 0.443359375
vt 0.113281250 0.443359375
vn 0.00000000 -0.00000000 -1.00000000
f 85/85/22 86/86/22 87/87/22
f 85/85/22 87/87/22 88/88/22
v -0.46000000 0.35937500 1.62023540
v -0.46000000 0.35937500 1.55644661
v -0.50000000 0.35937500 1.55644661
v -0.50000000 0.35937500 1.62023540
vt 0.144531250 0.431640625
vt 0.167968750 0.431640625
vt 0.167968750 0.443359375
vt 0.144531250 0.443359375
vn 0.00000000 1.00000000 0.00000000
f 89/89/23 90/90/23 91/91/23
f 89/89/23 91/91/23 92/92/23
v -0.46000000 0.35937500 1.55644661
v -0.46000000 0.32812500 1.55644661
v -0.50000000 0.32812500 1.55644661
v -0.50000000 0.35937500 1.55644661
vt 0.175781250 0.431640625
vt 0.199218750 0.431640625
vt 0.199218750 0.443359375
vt 0.175781250 0.443359375
vn 0.00000000 -0.00000000 -1.00000000
f 93/93/24 94/94/24 95/95/24
f 93/93/24 95/95/24 96/96/24
v -0.46000000 0.32812500 1.55644661
v -0.46000000 0.32812500 1.53093109
v -0.50000000 0.32812500 1.53093109
v -0.50000000 0.32812500 1.55644661
vt 0.207031250 0.431640625
vt 0.230468750 0.431640625
vt 0.230468750 0.443359375
vt 0.207031250 0.443359375
vn 0.00000000 1.00000000 0.00000000
f 97/97/25 98/98/25 99/99/25
f 97/97/25 99/99/25 100/100/25
v -0.46000000 0.32812500 1.53093109
v -0.46000000 0.42187500 1.53093109
v -0.50000000 0.42187500 1.53093109
v -0.50000000 0.32812500 1.53093109
vt 0.238281250 0.431640625
vt 0.261718750 0.431640625
vt 0.261718750 0.443359375
vt 0.238281250 0.443359375
vn 0.00000000 -0.00000000 1.00000000
f 101/101/26 102/102/26 103/103/26
f 101/101/26 103/103/26 104/104/26
v -0.46000000 0.42187500 1.53093109
v -0.46000000 0.42187500 0.86752762
v -0.50000000 0.42187500 0.86752762
v -0.50000000 0.42187500 1.53093109
vt 0.269531250 0.431640625
vt 0.292968750 0.431640625
vt 0.292968750 0.443359375
vt 0.269531250 0.443359375
vn 0.00000000 1.00000000 0.00000000
f 105/105/27 106/106/27 107/107/27
f 105/105/27 107/107/27 108/108/27
v -0.46000000 0.42187500 0.86752762
v -0.46000000 0.10937500 0.86752762
v -0.50000000 0.10937500 0.86752762
v -0.50000000 0.42187500 0.86752762
vt 0.300781250 0.431640625
vt 0.324218750 0.431640625
vt 0.324218750 0.443359375
vt 0.300781250 0.443359375
vn 0.00000000 -0.00000000 -1.00000000
f 109/109/28 110/110/28 111/111/28
f 109/109/28 111/111/28 112/112/28
v -0.46000000 0.10937500 0.86752762
v -0.46000000 0.09375000 0.93131641
v -0.50000000 0.09375000 0.93131641
v -0.50000000 0.10937500 0.86752762
vt 0.332031250 0.431640625
vt 0.355468750 0.431640625
vt 0.355468750 0.443359375
vt 0.332031250 0.443359375
vn 0.00000000 -0.97128586 -0.23791548
f 113/113/29 114/114/29 115/115/29
f 113/113/29 115/115/29 116/116/29
v -0.46000000 0.09375000 0.93131641
v -0.46000000 0.06250000 0.86752762
v -0.50000000 0.06250000 0.86752762
v -0.50000000 0.09375000 0.93131641
vt 0.363281250 0.431640625
vt 0.386718750 0.431640625
vt 0.386718750 0.443359375
vt 0.363281250 0.443359375
vn 0.00000000 0.89802651 -0.43994135
f 117/117/30 118/118/30 119/119/30
f 117/117/30 119/119/30 120/120/30
v -0.46000000 0.06250000 0.86752762
v -0.46000000 -0.25000000 0.86752762
v -0.50000000 -0.25000000 0.86752762
v -0.50000000 0.06250000 0.86752762
vt 0.394531250 0.431640625
vt 0.417968750 0.431640625
vt 0.417968750 0.443359375
vt 0.394531250 0.443359375
vn 0.00000000 -0.00000000 -1.00000000
f 121/121/31 122/122/31 123/123/31
f 121/121/31 123/123/31 124/124/31
v -0.46000000 -0.25000000 0.86752762
v -0.46000000 -0.25000000 1.53093109
v -0.50000000 -0.25000000 1.53093109
v -0.50000000 -0.25000000 0.86752762
vt 0.425781250 0.431640625
vt 0.449218750 0.431640625
vt 0.449218750 0.443359375
vt 0.425781250 0.443359375
vn 0.00000000 -1.00000000 0.00000000
f 125/125/32 126/126/32 127/127/32
f 125/125/32 127/127/32 128/128/32
v -0.46000000 -0.25000000 1.53093109
v -0.46000000 -0.21875000 1.53093109
v -0.50000000 -0.21875000 1.53093109
v -0.50000000 -0.25000000 1.53093109
vt 0.457031250 0.431640625
vt 0.480468750 0.431640625
vt 0.480468750 0.443359375
vt 0.457031250 0.443359375
vn 0.00000000 -0.00000000 1.00000000
f 129/129/33 130/130/33 131/131/33
f 129/129/33 131/131/33 132/132/33
v -0.46000000 -0.21875000 1.53093109
v -0.46000000 -0.25000000 1.68402420
v -0.50000000 -0.25000000 1.68402420
v -0.50000000 -0.21875000 1.53093109
vt 0.488281250 0.431640625
vt 0.511718750 0.431640625
vt 0.511718750 0.443359375
vt 0.488281250 0.443359375
vn 0.00000000 -0.97979590 -0.20000000
f 133/133/34 134/134/34 135/135/34
f 133/133/34 135/135/34 136/136/34
v -0.46000000 -0.25000000 1.68402420
v -0.46000000 -0.20312500 1.88814834
v -0.50000000 -0.20312500 1.88814834
v -0.50000000 -0.25000000 1.68402420
vt 0.019531250 0.416015625
vt 0.042968750 0.416015625
vt 0.042968750 0.427734375
vt 0.019531250 0.427734375
vn 0.00000000 -0.97463185 0.22381413
f 137/137/35 138/138/35 139/139/35
f 137/137/35 139/139/35 140/140/35
v -0.46000000 -0.20312500 1.88814834
v -0.46000000 -0.10937500 2.05399921
v -0.50000000 -0.10937500 2.05399921
v -0.50000000 -0.20312500 1.88814834
vt 0.050781250 0.416015625
vt 0.074218750 0.416015625
vt 0.074218750 0.427734375
vt 0.050781250 0.427734375
vn 0.00000000 -0.87054439 0.49208990
f 141/141/36 142/142/36 143/143/36
f 141/141/36 143/143/36 144/144/36
v -0.46000000 -0.10937500 2.05399921
v -0.46000000 -0.03125000 1.99021042
v -0.50000000 -0.03125000 1.99021042
v -0.50000000 -0.10937500 2.05399921
vt 0.082031250 0.416015625
vt 0.105468750 0.416015625
vt 0.105468750 0.427734375
vt 0.082031250 0.427734375
vn 0.00000000 0.63245553 0.77459667
f 145/145/37 146/146/37 147/147/37
f 145/145/37 147/147/37 148/148/37
v -0.46000000 -0.03125000 1.99021042
v -0.46000000 -0.03125000 1.95193714
v -0.50000000 -0.03125000 1.95193714
v -0.50000000 -0.03125000 1.99021042
vt 0.113281250 0.416015625
vt 0.136718750 0.416015625
vt 0.136718750 0.427734375
vt 0.113281250 0.427734375
vn 0.00000000 1.00000000 0.00000000
f 149/149/38 150/150/38 151/151/38
f 149/149/38 151/151/38 152/152/38
v -0.46000000 -0.03125000 1.95193714
v -0.46000000 0.03125000 1.96469490
v -0.50000000 0.03125000 1.96469490
v -0.50000000 -0.03125000 1.95193714
vt 0.144531250 0.416015625
vt 0.167968750 0.416015625
vt 0.167968750 0.427734375
vt 0.144531250 0.427734375
vn 0.00000000 -0.20000000 0.97979590
f 153/153/39 154/154/39 155/155/39
f 153/153/39 155/155/39 156/156/39
v -0.46000000 0.03125000 1.96469490
v -0.46000000 -0.06250000 2.10503025
v -0.50000000 -0.06250000 2.10503025
v -0.50000000 0.03125000 1.96469490
vt 0.175781250 0.416015625
vt 0.199218750 0.416015625
vt 0.199218750 0.427734375
vt 0.175781250 0.427734375
vn 0.00000000 -0.83152184 -0.55549206
f 157/157/40 158/158/40 159/159/40
f 157/157/40 159/159/40 160/160/40
v -0.46000000 -0.06250000 2.10503025
v -0.46000000 0.01562500 2.18157680
v -0.50000000 0.01562500 2.18157680
v -0.50000000 -0.06250000 2.10503025
vt 0.207031250 0.416015625
vt 0.230468750 0.416015625
vt 0.230468750 0.427734375
vt 0.207031250 0.427734375
vn 0.00000000 -0.69985421 0.71428571
f 161/161/41 162/162/41 163/163/41
f 161/161/41 163/163/41 164/164/41
v -0.46000000 0.01562500 2.18157680
v -0.46000000 0.04687500 2.18157680
v -0.50000000 0.04687500 2.18157680
v -0.50000000 0.01562500 2.18157680
vt 0.238281250 0.416015625
vt 0.261718750 0.416015625
vt 0.261718750 0.427734375
vt 0.238281250 0.427734375
vn 0.00000000 -0.00000000 1.00000000
f 165/165/42 166/166/42 167/167/42
f 165/165/42 167/167/42 168/168/42
v -0.46000000 0.04687500 2.18157680
v -0.46000000 0.04687500 2.20709232
v -0.50000000 0.04687500 2.20709232
v -0.50000000 0.04687500 2.18157680
vt 0.269531250 0.416015625
vt 0.292968750 0.416015625
vt 0.292968750 0.427734375
vt 0.269531250 0.427734375
vn 0.00000000 -1.00000000 0.00000000
f 169/169/43 170/170/43 171/171/43
f 169/169/43 171/171/43 172/172/43
v -0.46000000 0.04687500 2.20709232
v -0.46000000 0.20312500 2.28363887
v -0.50000000 0.20312500 2.28363887
v -0.50000000 0.04687500 2.20709232
vt 0.300781250 0.416015625
vt 0.324218750 0.416015625
vt 0.324218750 0.427734375
vt 0.300781250 0.427734375
vn 0.00000000 -0.43994135 0.89802651
f 173/173/44 174/174/44 175/175/44
f 173/173/44 175/175/44 176/176/44
v -0.46000000 0.20312500 2.28363887
v -0.46000000 0.34375000 2.30915439
v -0.50000000 0.34375000 2.30915439
v -0.50000000 0.20312500 2.28363887
vt 0.332031250 0.416015625
vt 0.355468750 0.416015625
vt 0.355468750 0.427734375
vt 0.332031250 0.427734375
vn 0.00000000 -0.17852874 0.98393470
f 177/177/45 178/178/45 179/179/45
f 177/177/45 179/179/45 180/180/45
