mtllib pz_native_fixtures_windows_01_73.mtl
o pz_native_fixtures_windows_01_73_glass
usemtl Native_pz_native_fixtures_windows_01_73
v -0.43750000 -0.50600000 2.37294319
v 0.35937500 -0.50600000 2.37294319
v 0.35937500 -0.50600000 -0.12757759
v -0.43750000 -0.50600000 -0.12757759
vt 0.445312500 0.992187500
vt 0.843750000 0.992187500
vt 0.843750000 0.226562500
vt 0.445312500 0.226562500
vn -0.00000000 1.00000000 0.00000000
f 1/1/1 2/2/1 3/3/1
f 1/1/1 3/3/1 4/4/1
v -0.43750000 -0.50700000 -0.12757759
v 0.35937500 -0.50700000 -0.12757759
v 0.35937500 -0.50700000 2.37294319
v -0.43750000 -0.50700000 2.37294319
vt 0.445312500 0.226562500
vt 0.843750000 0.226562500
vt 0.843750000 0.992187500
vt 0.445312500 0.992187500
vn 0.00000000 -1.00000000 0.00000000
f 5/5/2 6/6/2 7/7/2
f 5/5/2 7/7/2 8/8/2
