# Physical native .18 props; X/Y ground, Z up.
mtllib pz_native_electrical_191.mtl
usemtl Native_pz_native_electrical_191
o conduit
v -0.593750000 -0.501000000 2.219850079
vt 0.003906250 0.507812500
vn -0.696526033 0.707106781 0.121866670
v -0.605570439 -0.513000000 2.221918225
vt 0.246093750 0.507812500
vn -0.696526033 0.707106781 0.121866670
v -0.589945439 -0.513000000 2.311222539
vt 0.246093750 0.992187500
vn -0.696526033 0.707106781 0.121866670
f 1/1/1 2/2/2 3/3/3
v -0.593750000 -0.501000000 2.219850079
vt 0.003906250 0.507812500
vn -0.696526033 0.707106781 0.121866670
v -0.589945439 -0.513000000 2.311222539
vt 0.246093750 0.992187500
vn -0.696526033 0.707106781 0.121866670
v -0.578125000 -0.501000000 2.309154393
vt 0.003906250 0.992187500
vn -0.696526033 0.707106781 0.121866670
f 4/4/4 5/5/5 6/6/6
v -0.605570439 -0.513000000 2.221918225
vt 0.003906250 0.507812500
vn -0.696526033 -0.707106781 0.121866670
v -0.593750000 -0.525000000 2.219850079
vt 0.246093750 0.507812500
vn -0.696526033 -0.707106781 0.121866670
v -0.578125000 -0.525000000 2.309154393
vt 0.246093750 0.992187500
vn -0.696526033 -0.707106781 0.121866670
f 7/7/7 8/8/8 9/9/9
v -0.605570439 -0.513000000 2.221918225
vt 0.003906250 0.507812500
vn -0.696526033 -0.707106781 0.121866670
v -0.578125000 -0.525000000 2.309154393
vt 0.246093750 0.992187500
vn -0.696526033 -0.707106781 0.121866670
v -0.589945439 -0.513000000 2.311222539
vt 0.003906250 0.992187500
vn -0.696526033 -0.707106781 0.121866670
f 10/10/10 11/11/11 12/12/12
v -0.593750000 -0.525000000 2.219850079
vt 0.003906250 0.507812500
vn 0.696526033 -0.707106781 -0.121866670
v -0.581929561 -0.513000000 2.217781933
vt 0.246093750 0.507812500
vn 0.696526033 -0.707106781 -0.121866670
v -0.566304561 -0.513000000 2.307086247
vt 0.246093750 0.992187500
vn 0.696526033 -0.707106781 -0.121866670
f 13/13/13 14/14/14 15/15/15
v -0.593750000 -0.525000000 2.219850079
vt 0.003906250 0.507812500
vn 0.696526033 -0.707106781 -0.121866670
v -0.566304561 -0.513000000 2.307086247
vt 0.246093750 0.992187500
vn 0.696526033 -0.707106781 -0.121866670
v -0.578125000 -0.525000000 2.309154393
vt 0.003906250 0.992187500
vn 0.696526033 -0.707106781 -0.121866670
f 16/16/16 17/17/17 18/18/18
v -0.581929561 -0.513000000 2.217781933
vt 0.003906250 0.507812500
vn 0.696526033 0.707106781 -0.121866670
v -0.593750000 -0.501000000 2.219850079
vt 0.246093750 0.507812500
vn 0.696526033 0.707106781 -0.121866670
v -0.578125000 -0.501000000 2.309154393
vt 0.246093750 0.992187500
vn 0.696526033 0.707106781 -0.121866670
f 19/19/19 20/20/20 21/21/21
v -0.581929561 -0.513000000 2.217781933
vt 0.003906250 0.507812500
vn 0.696526033 0.707106781 -0.121866670
v -0.578125000 -0.501000000 2.309154393
vt 0.246093750 0.992187500
vn 0.696526033 0.707106781 -0.121866670
v -0.566304561 -0.513000000 2.307086247
vt 0.003906250 0.992187500
vn 0.696526033 0.707106781 -0.121866670
f 22/22/22 23/23/23 24/24/24
o conduit_end
v -0.581929561 -0.513000000 2.217781933
vt 0.003906250 0.507812500
vn -0.172345497 0.000000000 -0.985036563
v -0.593750000 -0.525000000 2.219850079
vt 0.246093750 0.507812500
vn -0.172345497 0.000000000 -0.985036563
v -0.605570439 -0.513000000 2.221918225
vt 0.246093750 0.992187500
vn -0.172345497 0.000000000 -0.985036563
f 25/25/25 26/26/26 27/27/27
v -0.581929561 -0.513000000 2.217781933
vt 0.003906250 0.507812500
vn -0.172345497 0.000000000 -0.985036563
v -0.605570439 -0.513000000 2.221918225
vt 0.246093750 0.992187500
vn -0.172345497 0.000000000 -0.985036563
v -0.593750000 -0.501000000 2.219850079
vt 0.003906250 0.992187500
vn -0.172345497 0.000000000 -0.985036563
f 28/28/28 29/29/29 30/30/30
v -0.578125000 -0.501000000 2.309154393
vt 0.003906250 0.507812500
vn 0.172345497 0.000000000 0.985036563
v -0.589945439 -0.513000000 2.311222539
vt 0.246093750 0.507812500
vn 0.172345497 0.000000000 0.985036563
v -0.578125000 -0.525000000 2.309154393
vt 0.246093750 0.992187500
vn 0.172345497 0.000000000 0.985036563
f 31/31/31 32/32/32 33/33/33
v -0.578125000 -0.501000000 2.309154393
vt 0.003906250 0.507812500
vn 0.172345497 0.000000000 0.985036563
v -0.578125000 -0.525000000 2.309154393
vt 0.246093750 0.992187500
vn 0.172345497 0.000000000 0.985036563
v -0.566304561 -0.513000000 2.307086247
vt 0.003906250 0.992187500
vn 0.172345497 0.000000000 0.985036563
f 34/34/34 35/35/35 36/36/36
o conduit
v -0.578125000 -0.525000000 2.309154393
vt 0.003906250 0.507812500
vn -0.015189922 -0.707106781 -0.706943609
v -0.578382782 -0.513000000 2.297157162
vt 0.246093750 0.507812500
vn -0.015189922 -0.707106781 -0.706943609
v -0.281507782 -0.513000000 2.290778283
vt 0.246093750 0.992187500
vn -0.015189922 -0.707106781 -0.706943609
f 37/37/37 38/38/38 39/39/39
v -0.578125000 -0.525000000 2.309154393
vt 0.003906250 0.507812500
vn -0.015189922 -0.707106781 -0.706943609
v -0.281507782 -0.513000000 2.290778283
vt 0.246093750 0.992187500
vn -0.015189922 -0.707106781 -0.706943609
v -0.281250000 -0.525000000 2.302775513
vt 0.003906250 0.992187500
vn -0.015189922 -0.707106781 -0.706943609
f 40/40/40 41/41/41 42/42/42
v -0.578382782 -0.513000000 2.297157162
vt 0.003906250 0.507812500
vn -0.015189922 0.707106781 -0.706943609
v -0.578125000 -0.501000000 2.309154393
vt 0.246093750 0.507812500
vn -0.015189922 0.707106781 -0.706943609
v -0.281250000 -0.501000000 2.302775513
vt 0.246093750 0.992187500
vn -0.015189922 0.707106781 -0.706943609
f 43/43/43 44/44/44 45/45/45
v -0.578382782 -0.513000000 2.297157162
vt 0.003906250 0.507812500
vn -0.015189922 0.707106781 -0.706943609
v -0.281250000 -0.501000000 2.302775513
vt 0.246093750 0.992187500
vn -0.015189922 0.707106781 -0.706943609
v -0.281507782 -0.513000000 2.290778283
vt 0.003906250 0.992187500
vn -0.015189922 0.707106781 -0.706943609
f 46/46/46 47/47/47 48/48/48
v -0.578125000 -0.501000000 2.309154393
vt 0.003906250 0.507812500
vn 0.015189922 0.707106781 0.706943609
v -0.577867218 -0.513000000 2.321151624
vt 0.246093750 0.507812500
vn 0.015189922 0.707106781 0.706943609
v -0.280992218 -0.513000000 2.314772744
vt 0.246093750 0.992187500
vn 0.015189922 0.707106781 0.706943609
f 49/49/49 50/50/50 51/51/51
v -0.578125000 -0.501000000 2.309154393
vt 0.003906250 0.507812500
vn 0.015189922 0.707106781 0.706943609
v -0.280992218 -0.513000000 2.314772744
vt 0.246093750 0.992187500
vn 0.015189922 0.707106781 0.706943609
v -0.281250000 -0.501000000 2.302775513
vt 0.003906250 0.992187500
vn 0.015189922 0.707106781 0.706943609
f 52/52/52 53/53/53 54/54/54
v -0.577867218 -0.513000000 2.321151624
vt 0.003906250 0.507812500
vn 0.015189922 -0.707106781 0.706943609
v -0.578125000 -0.525000000 2.309154393
vt 0.246093750 0.507812500
vn 0.015189922 -0.707106781 0.706943609
v -0.281250000 -0.525000000 2.302775513
vt 0.246093750 0.992187500
vn 0.015189922 -0.707106781 0.706943609
f 55/55/55 56/56/56 57/57/57
v -0.577867218 -0.513000000 2.321151624
vt 0.003906250 0.507812500
vn 0.015189922 -0.707106781 0.706943609
v -0.281250000 -0.525000000 2.302775513
vt 0.246093750 0.992187500
vn 0.015189922 -0.707106781 0.706943609
v -0.280992218 -0.513000000 2.314772744
vt 0.003906250 0.992187500
vn 0.015189922 -0.707106781 0.706943609
f 58/58/58 59/59/59 60/60/60
o conduit_end
v -0.577867218 -0.513000000 2.321151624
vt 0.003906250 0.507812500
vn -0.999769240 0.000000000 0.021481794
v -0.578125000 -0.501000000 2.309154393
vt 0.246093750 0.507812500
vn -0.999769240 0.000000000 0.021481794
v -0.578382782 -0.513000000 2.297157162
vt 0.246093750 0.992187500
vn -0.999769240 0.000000000 0.021481794
f 61/61/61 62/62/62 63/63/63
v -0.577867218 -0.513000000 2.321151624
vt 0.003906250 0.507812500
vn -0.999769240 0.000000000 0.021481794
v -0.578382782 -0.513000000 2.297157162
vt 0.246093750 0.992187500
vn -0.999769240 0.000000000 0.021481794
v -0.578125000 -0.525000000 2.309154393
vt 0.003906250 0.992187500
vn -0.999769240 0.000000000 0.021481794
f 64/64/64 65/65/65 66/66/66
v -0.281250000 -0.525000000 2.302775513
vt 0.003906250 0.507812500
vn 0.999769240 0.000000000 -0.021481794
v -0.281507782 -0.513000000 2.290778283
vt 0.246093750 0.507812500
vn 0.999769240 0.000000000 -0.021481794
v -0.281250000 -0.501000000 2.302775513
vt 0.246093750 0.992187500
vn 0.999769240 0.000000000 -0.021481794
f 67/67/67 68/68/68 69/69/69
v -0.281250000 -0.525000000 2.302775513
vt 0.003906250 0.507812500
vn 0.999769240 0.000000000 -0.021481794
v -0.281250000 -0.501000000 2.302775513
vt 0.246093750 0.992187500
vn 0.999769240 0.000000000 -0.021481794
v -0.280992218 -0.513000000 2.314772744
vt 0.003906250 0.992187500
vn 0.999769240 0.000000000 -0.021481794
f 70/70/70 71/71/71 72/72/72
o conduit
v -0.281250000 -0.525000000 2.302775513
vt 0.003906250 0.507812500
vn -0.095346259 -0.707106781 -0.700649050
v -0.282868080 -0.513000000 2.290885105
vt 0.246093750 0.507812500
vn -0.095346259 -0.707106781 -0.700649050
v -0.142243080 -0.513000000 2.271748466
vt 0.246093750 0.992187500
vn -0.095346259 -0.707106781 -0.700649050
f 73/73/73 74/74/74 75/75/75
v -0.281250000 -0.525000000 2.302775513
vt 0.003906250 0.507812500
vn -0.095346259 -0.707106781 -0.700649050
v -0.142243080 -0.513000000 2.271748466
vt 0.246093750 0.992187500
vn -0.095346259 -0.707106781 -0.700649050
v -0.140625000 -0.525000000 2.283638875
vt 0.003906250 0.992187500
vn -0.095346259 -0.707106781 -0.700649050
f 76/76/76 77/77/77 78/78/78
v -0.282868080 -0.513000000 2.290885105
vt 0.003906250 0.507812500
vn -0.095346259 0.707106781 -0.700649050
v -0.281250000 -0.501000000 2.302775513
vt 0.246093750 0.507812500
vn -0.095346259 0.707106781 -0.700649050
v -0.140625000 -0.501000000 2.283638875
vt 0.246093750 0.992187500
vn -0.095346259 0.707106781 -0.700649050
f 79/79/79 80/80/80 81/81/81
v -0.282868080 -0.513000000 2.290885105
vt 0.003906250 0.507812500
vn -0.095346259 0.707106781 -0.700649050
v -0.140625000 -0.501000000 2.283638875
vt 0.246093750 0.992187500
vn -0.095346259 0.707106781 -0.700649050
v -0.142243080 -0.513000000 2.271748466
vt 0.003906250 0.992187500
vn -0.095346259 0.707106781 -0.700649050
f 82/82/82 83/83/83 84/84/84
v -0.281250000 -0.501000000 2.302775513
vt 0.003906250 0.507812500
vn 0.095346259 0.707106781 0.700649050
v -0.279631920 -0.513000000 2.314665922
vt 0.246093750 0.507812500
vn 0.095346259 0.707106781 0.700649050
v -0.139006920 -0.513000000 2.295529283
vt 0.246093750 0.992187500
vn 0.095346259 0.707106781 0.700649050
f 85/85/85 86/86/86 87/87/87
v -0.281250000 -0.501000000 2.302775513
vt 0.003906250 0.507812500
vn 0.095346259 0.707106781 0.700649050
v -0.139006920 -0.513000000 2.295529283
vt 0.246093750 0.992187500
vn 0.095346259 0.707106781 0.700649050
v -0.140625000 -0.501000000 2.283638875
vt 0.003906250 0.992187500
vn 0.095346259 0.707106781 0.700649050
f 88/88/88 89/89/89 90/90/90
v -0.279631920 -0.513000000 2.314665922
vt 0.003906250 0.507812500
vn 0.095346259 -0.707106781 0.700649050
v -0.281250000 -0.525000000 2.302775513
vt 0.246093750 0.507812500
vn 0.095346259 -0.707106781 0.700649050
v -0.140625000 -0.525000000 2.283638875
vt 0.246093750 0.992187500
vn 0.095346259 -0.707106781 0.700649050
f 91/91/91 92/92/92 93/93/93
v -0.279631920 -0.513000000 2.314665922
vt 0.003906250 0.507812500
vn 0.095346259 -0.707106781 0.700649050
v -0.140625000 -0.525000000 2.283638875
vt 0.246093750 0.992187500
vn 0.095346259 -0.707106781 0.700649050
v -0.139006920 -0.513000000 2.295529283
vt 0.003906250 0.992187500
vn 0.095346259 -0.707106781 0.700649050
f 94/94/94 95/95/95 96/96/96
o conduit_end
v -0.279631920 -0.513000000 2.314665922
vt 0.003906250 0.507812500
vn -0.990867389 0.000000000 0.134839972
v -0.281250000 -0.501000000 2.302775513
vt 0.246093750 0.507812500
vn -0.990867389 0.000000000 0.134839972
v -0.282868080 -0.513000000 2.290885105
vt 0.246093750 0.992187500
vn -0.990867389 0.000000000 0.134839972
f 97/97/97 98/98/98 99/99/99
v -0.279631920 -0.513000000 2.314665922
vt 0.003906250 0.507812500
vn -0.990867389 0.000000000 0.134839972
v -0.282868080 -0.513000000 2.290885105
vt 0.246093750 0.992187500
vn -0.990867389 0.000000000 0.134839972
v -0.281250000 -0.525000000 2.302775513
vt 0.003906250 0.992187500
vn -0.990867389 0.000000000 0.134839972
f 100/100/100 101/101/101 102/102/102
v -0.140625000 -0.525000000 2.283638875
vt 0.003906250 0.507812500
vn 0.990867389 0.000000000 -0.134839972
v -0.142243080 -0.513000000 2.271748466
vt 0.246093750 0.507812500
vn 0.990867389 0.000000000 -0.134839972
v -0.140625000 -0.501000000 2.283638875
vt 0.246093750 0.992187500
vn 0.990867389 0.000000000 -0.134839972
f 103/103/103 104/104/104 105/105/105
v -0.140625000 -0.525000000 2.283638875
vt 0.003906250 0.507812500
vn 0.990867389 0.000000000 -0.134839972
v -0.140625000 -0.501000000 2.283638875
vt 0.246093750 0.992187500
vn 0.990867389 0.000000000 -0.134839972
v -0.139006920 -0.513000000 2.295529283
vt 0.003906250 0.992187500
vn 0.990867389 0.000000000 -0.134839972
f 106/106/106 107/107/107 108/108/108
o conduit
v -0.140625000 -0.525000000 2.283638875
vt 0.003906250 0.507812500
vn -0.547722558 -0.707106781 -0.447213596
v -0.149920160 -0.513000000 2.276049408
vt 0.246093750 0.507812500
vn -0.547722558 -0.707106781 -0.447213596
v -0.134295160 -0.513000000 2.256912770
vt 0.246093750 0.992187500
vn -0.547722558 -0.707106781 -0.447213596
f 109/109/109 110/110/110 111/111/111
v -0.140625000 -0.525000000 2.283638875
vt 0.003906250 0.507812500
vn -0.547722558 -0.707106781 -0.447213596
v -0.134295160 -0.513000000 2.256912770
vt 0.246093750 0.992187500
vn -0.547722558 -0.707106781 -0.447213596
v -0.125000000 -0.525000000 2.264502236
vt 0.003906250 0.992187500
vn -0.547722558 -0.707106781 -0.447213596
f 112/112/112 113/113/113 114/114/114
v -0.149920160 -0.513000000 2.276049408
vt 0.003906250 0.507812500
vn -0.547722558 0.707106781 -0.447213596
v -0.140625000 -0.501000000 2.283638875
vt 0.246093750 0.507812500
vn -0.547722558 0.707106781 -0.447213596
v -0.125000000 -0.501000000 2.264502236
vt 0.246093750 0.992187500
vn -0.547722558 0.707106781 -0.447213596
f 115/115/115 116/116/116 117/117/117
v -0.149920160 -0.513000000 2.276049408
vt 0.003906250 0.507812500
vn -0.547722558 0.707106781 -0.447213596
v -0.125000000 -0.501000000 2.264502236
vt 0.246093750 0.992187500
vn -0.547722558 0.707106781 -0.447213596
v -0.134295160 -0.513000000 2.256912770
vt 0.003906250 0.992187500
vn -0.547722558 0.707106781 -0.447213596
f 118/118/118 119/119/119 120/120/120
v -0.140625000 -0.501000000 2.283638875
vt 0.003906250 0.507812500
vn 0.547722558 0.707106781 0.447213596
v -0.131329840 -0.513000000 2.291228341
vt 0.246093750 0.507812500
vn 0.547722558 0.707106781 0.447213596
v -0.115704840 -0.513000000 2.272091703
vt 0.246093750 0.992187500
vn 0.547722558 0.707106781 0.447213596
f 121/121/121 122/122/122 123/123/123
v -0.140625000 -0.501000000 2.283638875
vt 0.003906250 0.507812500
vn 0.547722558 0.707106781 0.447213596
v -0.115704840 -0.513000000 2.272091703
vt 0.246093750 0.992187500
vn 0.547722558 0.707106781 0.447213596
v -0.125000000 -0.501000000 2.264502236
vt 0.003906250 0.992187500
vn 0.547722558 0.707106781 0.447213596
f 124/124/124 125/125/125 126/126/126
v -0.131329840 -0.513000000 2.291228341
vt 0.003906250 0.507812500
vn 0.547722558 -0.707106781 0.447213596
v -0.140625000 -0.525000000 2.283638875
vt 0.246093750 0.507812500
vn 0.547722558 -0.707106781 0.447213596
v -0.125000000 -0.525000000 2.264502236
vt 0.246093750 0.992187500
vn 0.547722558 -0.707106781 0.447213596
f 127/127/127 128/128/128 129/129/129
v -0.131329840 -0.513000000 2.291228341
vt 0.003906250 0.507812500
vn 0.547722558 -0.707106781 0.447213596
v -0.125000000 -0.525000000 2.264502236
vt 0.246093750 0.992187500
vn 0.547722558 -0.707106781 0.447213596
v -0.115704840 -0.513000000 2.272091703
vt 0.003906250 0.992187500
vn 0.547722558 -0.707106781 0.447213596
f 130/130/130 131/131/131 132/132/132
o conduit_end
v -0.131329840 -0.513000000 2.291228341
vt 0.003906250 0.507812500
vn -0.632455532 0.000000000 0.774596669
v -0.140625000 -0.501000000 2.283638875
vt 0.246093750 0.507812500
vn -0.632455532 0.000000000 0.774596669
v -0.149920160 -0.513000000 2.276049408
vt 0.246093750 0.992187500
vn -0.632455532 0.000000000 0.774596669
f 133/133/133 134/134/134 135/135/135
v -0.131329840 -0.513000000 2.291228341
vt 0.003906250 0.507812500
vn -0.632455532 0.000000000 0.774596669
v -0.149920160 -0.513000000 2.276049408
vt 0.246093750 0.992187500
vn -0.632455532 0.000000000 0.774596669
v -0.140625000 -0.525000000 2.283638875
vt 0.003906250 0.992187500
vn -0.632455532 0.000000000 0.774596669
f 136/136/136 137/137/137 138/138/138
v -0.125000000 -0.525000000 2.264502236
vt 0.003906250 0.507812500
vn 0.632455532 0.000000000 -0.774596669
v -0.134295160 -0.513000000 2.256912770
vt 0.246093750 0.507812500
vn 0.632455532 0.000000000 -0.774596669
v -0.125000000 -0.501000000 2.264502236
vt 0.246093750 0.992187500
vn 0.632455532 0.000000000 -0.774596669
f 139/139/139 140/140/140 141/141/141
v -0.125000000 -0.525000000 2.264502236
vt 0.003906250 0.507812500
vn 0.632455532 0.000000000 -0.774596669
v -0.125000000 -0.501000000 2.264502236
vt 0.246093750 0.992187500
vn 0.632455532 0.000000000 -0.774596669
v -0.115704840 -0.513000000 2.272091703
vt 0.003906250 0.992187500
vn 0.632455532 0.000000000 -0.774596669
f 142/142/142 143/143/143 144/144/144
o conduit
v -0.125000000 -0.525000000 2.264502236
vt 0.003906250 0.507812500
vn 0.369274473 -0.707106781 -0.603022689
v -0.118733204 -0.513000000 2.254268602
vt 0.246093750 0.507812500
vn 0.369274473 -0.707106781 -0.603022689
v -0.056233204 -0.513000000 2.292541879
vt 0.246093750 0.992187500
vn 0.369274473 -0.707106781 -0.603022689
f 145/145/145 146/146/146 147/147/147
v -0.125000000 -0.525000000 2.264502236
vt 0.003906250 0.507812500
vn 0.369274473 -0.707106781 -0.603022689
v -0.056233204 -0.513000000 2.292541879
vt 0.246093750 0.992187500
vn 0.369274473 -0.707106781 -0.603022689
v -0.062500000 -0.525000000 2.302775513
vt 0.003906250 0.992187500
vn 0.369274473 -0.707106781 -0.603022689
f 148/148/148 149/149/149 150/150/150
v -0.118733204 -0.513000000 2.254268602
vt 0.003906250 0.507812500
vn 0.369274473 0.707106781 -0.603022689
v -0.125000000 -0.501000000 2.264502236
vt 0.246093750 0.507812500
vn 0.369274473 0.707106781 -0.603022689
v -0.062500000 -0.501000000 2.302775513
vt 0.246093750 0.992187500
vn 0.369274473 0.707106781 -0.603022689
f 151/151/151 152/152/152 153/153/153
v -0.118733204 -0.513000000 2.254268602
vt 0.003906250 0.507812500
vn 0.369274473 0.707106781 -0.603022689
v -0.062500000 -0.501000000 2.302775513
vt 0.246093750 0.992187500
vn 0.369274473 0.707106781 -0.603022689
v -0.056233204 -0.513000000 2.292541879
vt 0.003906250 0.992187500
vn 0.369274473 0.707106781 -0.603022689
f 154/154/154 155/155/155 156/156/156
v -0.125000000 -0.501000000 2.264502236
vt 0.003906250 0.507812500
vn -0.369274473 0.707106781 0.603022689
v -0.131266796 -0.513000000 2.274735871
vt 0.246093750 0.507812500
vn -0.369274473 0.707106781 0.603022689
v -0.068766796 -0.513000000 2.313009148
vt 0.246093750 0.992187500
vn -0.369274473 0.707106781 0.603022689
f 157/157/157 158/158/158 159/159/159
v -0.125000000 -0.501000000 2.264502236
vt 0.003906250 0.507812500
vn -0.369274473 0.707106781 0.603022689
v -0.068766796 -0.513000000 2.313009148
vt 0.246093750 0.992187500
vn -0.369274473 0.707106781 0.603022689
v -0.062500000 -0.501000000 2.302775513
vt 0.003906250 0.992187500
vn -0.369274473 0.707106781 0.603022689
f 160/160/160 161/161/161 162/162/162
v -0.131266796 -0.513000000 2.274735871
vt 0.003906250 0.507812500
vn -0.369274473 -0.707106781 0.603022689
v -0.125000000 -0.525000000 2.264502236
vt 0.246093750 0.507812500
vn -0.369274473 -0.707106781 0.603022689
v -0.062500000 -0.525000000 2.302775513
vt 0.246093750 0.992187500
vn -0.369274473 -0.707106781 0.603022689
f 163/163/163 164/164/164 165/165/165
v -0.131266796 -0.513000000 2.274735871
vt 0.003906250 0.507812500
vn -0.369274473 -0.707106781 0.603022689
v -0.062500000 -0.525000000 2.302775513
vt 0.246093750 0.992187500
vn -0.369274473 -0.707106781 0.603022689
v -0.068766796 -0.513000000 2.313009148
vt 0.003906250 0.992187500
vn -0.369274473 -0.707106781 0.603022689
f 166/166/166 167/167/167 168/168/168
o conduit_end
v -0.131266796 -0.513000000 2.274735871
vt 0.003906250 0.507812500
vn -0.852802865 0.000000000 -0.522232968
v -0.125000000 -0.501000000 2.264502236
vt 0.246093750 0.507812500
vn -0.852802865 0.000000000 -0.522232968
v -0.118733204 -0.513000000 2.254268602
vt 0.246093750 0.992187500
vn -0.852802865 0.000000000 -0.522232968
f 169/169/169 170/170/170 171/171/171
v -0.131266796 -0.513000000 2.274735871
vt 0.003906250 0.507812500
vn -0.852802865 0.000000000 -0.522232968
v -0.118733204 -0.513000000 2.254268602
vt 0.246093750 0.992187500
vn -0.852802865 0.000000000 -0.522232968
v -0.125000000 -0.525000000 2.264502236
vt 0.003906250 0.992187500
vn -0.852802865 0.000000000 -0.522232968
f 172/172/172 173/173/173 174/174/174
v -0.062500000 -0.525000000 2.302775513
vt 0.003906250 0.507812500
vn 0.852802865 -0.000000000 0.522232968
v -0.056233204 -0.513000000 2.292541879
vt 0.246093750 0.507812500
vn 0.852802865 -0.000000000 0.522232968
v -0.062500000 -0.501000000 2.302775513
vt 0.246093750 0.992187500
vn 0.852802865 -0.000000000 0.522232968
f 175/175/175 176/176/176 177/177/177
v -0.062500000 -0.525000000 2.302775513
vt 0.003906250 0.507812500
vn 0.852802865 -0.000000000 0.522232968
v -0.062500000 -0.501000000 2.302775513
vt 0.246093750 0.992187500
vn 0.852802865 -0.000000000 0.522232968
v -0.068766796 -0.513000000 2.313009148
vt 0.003906250 0.992187500
vn 0.852802865 -0.000000000 0.522232968
f 178/178/178 179/179/179 180/180/180
o conduit
v -0.062500000 -0.525000000 2.302775513
vt 0.003906250 0.507812500
vn -0.547722558 -0.707106781 -0.447213596
v -0.071795160 -0.513000000 2.295186047
vt 0.246093750 0.507812500
vn -0.547722558 -0.707106781 -0.447213596
v -0.056170160 -0.513000000 2.276049408
vt 0.246093750 0.992187500
vn -0.547722558 -0.707106781 -0.447213596
f 181/181/181 182/182/182 183/183/183
v -0.062500000 -0.525000000 2.302775513
vt 0.003906250 0.507812500
vn -0.547722558 -0.707106781 -0.447213596
v -0.056170160 -0.513000000 2.276049408
vt 0.246093750 0.992187500
vn -0.547722558 -0.707106781 -0.447213596
v -0.046875000 -0.525000000 2.283638875
vt 0.003906250 0.992187500
vn -0.547722558 -0.707106781 -0.447213596
f 184/184/184 185/185/185 186/186/186
v -0.071795160 -0.513000000 2.295186047
vt 0.003906250 0.507812500
vn -0.547722558 0.707106781 -0.447213596
v -0.062500000 -0.501000000 2.302775513
vt 0.246093750 0.507812500
vn -0.547722558 0.707106781 -0.447213596
v -0.046875000 -0.501000000 2.283638875
vt 0.246093750 0.992187500
vn -0.547722558 0.707106781 -0.447213596
f 187/187/187 188/188/188 189/189/189
v -0.071795160 -0.513000000 2.295186047
vt 0.003906250 0.507812500
vn -0.547722558 0.707106781 -0.447213596
v -0.046875000 -0.501000000 2.283638875
vt 0.246093750 0.992187500
vn -0.547722558 0.707106781 -0.447213596
v -0.056170160 -0.513000000 2.276049408
vt 0.003906250 0.992187500
vn -0.547722558 0.707106781 -0.447213596
f 190/190/190 191/191/191 192/192/192
v -0.062500000 -0.501000000 2.302775513
vt 0.003906250 0.507812500
vn 0.547722558 0.707106781 0.447213596
v -0.053204840 -0.513000000 2.310364980
vt 0.246093750 0.507812500
vn 0.547722558 0.707106781 0.447213596
v -0.037579840 -0.513000000 2.291228341
vt 0.246093750 0.992187500
vn 0.547722558 0.707106781 0.447213596
f 193/193/193 194/194/194 195/195/195
v -0.062500000 -0.501000000 2.302775513
vt 0.003906250 0.507812500
vn 0.547722558 0.707106781 0.447213596
v -0.037579840 -0.513000000 2.291228341
vt 0.246093750 0.992187500
vn 0.547722558 0.707106781 0.447213596
v -0.046875000 -0.501000000 2.283638875
vt 0.003906250 0.992187500
vn 0.547722558 0.707106781 0.447213596
f 196/196/196 197/197/197 198/198/198
v -0.053204840 -0.513000000 2.310364980
vt 0.003906250 0.507812500
vn 0.547722558 -0.707106781 0.447213596
v -0.062500000 -0.525000000 2.302775513
vt 0.246093750 0.507812500
vn 0.547722558 -0.707106781 0.447213596
v -0.046875000 -0.525000000 2.283638875
vt 0.246093750 0.992187500
vn 0.547722558 -0.707106781 0.447213596
f 199/199/199 200/200/200 201/201/201
v -0.053204840 -0.513000000 2.310364980
vt 0.003906250 0.507812500
vn 0.547722558 -0.707106781 0.447213596
v -0.046875000 -0.525000000 2.283638875
vt 0.246093750 0.992187500
vn 0.547722558 -0.707106781 0.447213596
v -0.037579840 -0.513000000 2.291228341
vt 0.003906250 0.992187500
vn 0.547722558 -0.707106781 0.447213596
f 202/202/202 203/203/203 204/204/204
o conduit_end
v -0.053204840 -0.513000000 2.310364980
vt 0.003906250 0.507812500
vn -0.632455532 0.000000000 0.774596669
v -0.062500000 -0.501000000 2.302775513
vt 0.246093750 0.507812500
vn -0.632455532 0.000000000 0.774596669
v -0.071795160 -0.513000000 2.295186047
vt 0.246093750 0.992187500
vn -0.632455532 0.000000000 0.774596669
f 205/205/205 206/206/206 207/207/207
v -0.053204840 -0.513000000 2.310364980
vt 0.003906250 0.507812500
vn -0.632455532 0.000000000 0.774596669
v -0.071795160 -0.513000000 2.295186047
vt 0.246093750 0.992187500
vn -0.632455532 0.000000000 0.774596669
v -0.062500000 -0.525000000 2.302775513
vt 0.003906250 0.992187500
vn -0.632455532 0.000000000 0.774596669
f 208/208/208 209/209/209 210/210/210
v -0.046875000 -0.525000000 2.283638875
vt 0.003906250 0.507812500
vn 0.632455532 0.000000000 -0.774596669
v -0.056170160 -0.513000000 2.276049408
vt 0.246093750 0.507812500
vn 0.632455532 0.000000000 -0.774596669
v -0.046875000 -0.501000000 2.283638875
vt 0.246093750 0.992187500
vn 0.632455532 0.000000000 -0.774596669
f 211/211/211 212/212/212 213/213/213
v -0.046875000 -0.525000000 2.283638875
vt 0.003906250 0.507812500
vn 0.632455532 0.000000000 -0.774596669
v -0.046875000 -0.501000000 2.283638875
vt 0.246093750 0.992187500
vn 0.632455532 0.000000000 -0.774596669
v -0.037579840 -0.513000000 2.291228341
vt 0.003906250 0.992187500
vn 0.632455532 0.000000000 -0.774596669
f 214/214/214 215/215/215 216/216/216
o conduit
v -0.046875000 -0.525000000 2.283638875
vt 0.003906250 0.507812500
vn -0.121866670 -0.707106781 -0.696526033
v -0.048943146 -0.513000000 2.271818436
vt 0.246093750 0.507812500
vn -0.121866670 -0.707106781 -0.696526033
v 0.060431854 -0.513000000 2.252681797
vt 0.246093750 0.992187500
vn -0.121866670 -0.707106781 -0.696526033
f 217/217/217 218/218/218 219/219/219
v -0.046875000 -0.525000000 2.283638875
vt 0.003906250 0.507812500
vn -0.121866670 -0.707106781 -0.696526033
v 0.060431854 -0.513000000 2.252681797
vt 0.246093750 0.992187500
vn -0.121866670 -0.707106781 -0.696526033
v 0.062500000 -0.525000000 2.264502236
vt 0.003906250 0.992187500
vn -0.121866670 -0.707106781 -0.696526033
f 220/220/220 221/221/221 222/222/222
v -0.048943146 -0.513000000 2.271818436
vt 0.003906250 0.507812500
vn -0.121866670 0.707106781 -0.696526033
v -0.046875000 -0.501000000 2.283638875
vt 0.246093750 0.507812500
vn -0.121866670 0.707106781 -0.696526033
v 0.062500000 -0.501000000 2.264502236
vt 0.246093750 0.992187500
vn -0.121866670 0.707106781 -0.696526033
f 223/223/223 224/224/224 225/225/225
v -0.048943146 -0.513000000 2.271818436
vt 0.003906250 0.507812500
vn -0.121866670 0.707106781 -0.696526033
v 0.062500000 -0.501000000 2.264502236
vt 0.246093750 0.992187500
vn -0.121866670 0.707106781 -0.696526033
v 0.060431854 -0.513000000 2.252681797
vt 0.003906250 0.992187500
vn -0.121866670 0.707106781 -0.696526033
f 226/226/226 227/227/227 228/228/228
v -0.046875000 -0.501000000 2.283638875
vt 0.003906250 0.507812500
vn 0.121866670 0.707106781 0.696526033
v -0.044806854 -0.513000000 2.295459314
vt 0.246093750 0.507812500
vn 0.121866670 0.707106781 0.696526033
v 0.064568146 -0.513000000 2.276322675
vt 0.246093750 0.992187500
vn 0.121866670 0.707106781 0.696526033
f 229/229/229 230/230/230 231/231/231
v -0.046875000 -0.501000000 2.283638875
vt 0.003906250 0.507812500
vn 0.121866670 0.707106781 0.696526033
v 0.064568146 -0.513000000 2.276322675
vt 0.246093750 0.992187500
vn 0.121866670 0.707106781 0.696526033
v 0.062500000 -0.501000000 2.264502236
vt 0.003906250 0.992187500
vn 0.121866670 0.707106781 0.696526033
f 232/232/232 233/233/233 234/234/234
v -0.044806854 -0.513000000 2.295459314
vt 0.003906250 0.507812500
vn 0.121866670 -0.707106781 0.696526033
v -0.046875000 -0.525000000 2.283638875
vt 0.246093750 0.507812500
vn 0.121866670 -0.707106781 0.696526033
v 0.062500000 -0.525000000 2.264502236
vt 0.246093750 0.992187500
vn 0.121866670 -0.707106781 0.696526033
f 235/235/235 236/236/236 237/237/237
v -0.044806854 -0.513000000 2.295459314
vt 0.003906250 0.507812500
vn 0.121866670 -0.707106781 0.696526033
v 0.062500000 -0.525000000 2.264502236
vt 0.246093750 0.992187500
vn 0.121866670 -0.707106781 0.696526033
v 0.064568146 -0.513000000 2.276322675
vt 0.003906250 0.992187500
vn 0.121866670 -0.707106781 0.696526033
f 238/238/238 239/239/239 240/240/240
o conduit_end
v -0.044806854 -0.513000000 2.295459314
vt 0.003906250 0.507812500
vn -0.985036563 0.000000000 0.172345497
v -0.046875000 -0.501000000 2.283638875
vt 0.246093750 0.507812500
vn -0.985036563 0.000000000 0.172345497
v -0.048943146 -0.513000000 2.271818436
vt 0.246093750 0.992187500
vn -0.985036563 0.000000000 0.172345497
f 241/241/241 242/242/242 243/243/243
v -0.044806854 -0.513000000 2.295459314
vt 0.003906250 0.507812500
vn -0.985036563 0.000000000 0.172345497
v -0.048943146 -0.513000000 2.271818436
vt 0.246093750 0.992187500
vn -0.985036563 0.000000000 0.172345497
v -0.046875000 -0.525000000 2.283638875
vt 0.003906250 0.992187500
vn -0.985036563 0.000000000 0.172345497
f 244/244/244 245/245/245 246/246/246
v 0.062500000 -0.525000000 2.264502236
vt 0.003906250 0.507812500
vn 0.985036563 0.000000000 -0.172345497
v 0.060431854 -0.513000000 2.252681797
vt 0.246093750 0.507812500
vn 0.985036563 0.000000000 -0.172345497
v 0.062500000 -0.501000000 2.264502236
vt 0.246093750 0.992187500
vn 0.985036563 0.000000000 -0.172345497
f 247/247/247 248/248/248 249/249/249
v 0.062500000 -0.525000000 2.264502236
vt 0.003906250 0.507812500
vn 0.985036563 0.000000000 -0.172345497
v 0.062500000 -0.501000000 2.264502236
vt 0.246093750 0.992187500
vn 0.985036563 0.000000000 -0.172345497
v 0.064568146 -0.513000000 2.276322675
vt 0.003906250 0.992187500
vn 0.985036563 0.000000000 -0.172345497
f 250/250/250 251/251/251 252/252/252
o conduit
v 0.062500000 -0.525000000 2.264502236
vt 0.003906250 0.507812500
vn -0.547722558 -0.707106781 -0.447213596
v 0.053204840 -0.513000000 2.256912770
vt 0.246093750 0.507812500
vn -0.547722558 -0.707106781 -0.447213596
v 0.084454840 -0.513000000 2.218639493
vt 0.246093750 0.992187500
vn -0.547722558 -0.707106781 -0.447213596
f 253/253/253 254/254/254 255/255/255
v 0.062500000 -0.525000000 2.264502236
vt 0.003906250 0.507812500
vn -0.547722558 -0.707106781 -0.447213596
v 0.084454840 -0.513000000 2.218639493
vt 0.246093750 0.992187500
vn -0.547722558 -0.707106781 -0.447213596
v 0.093750000 -0.525000000 2.226228959
vt 0.003906250 0.992187500
vn -0.547722558 -0.707106781 -0.447213596
f 256/256/256 257/257/257 258/258/258
v 0.053204840 -0.513000000 2.256912770
vt 0.003906250 0.507812500
vn -0.547722558 0.707106781 -0.447213596
v 0.062500000 -0.501000000 2.264502236
vt 0.246093750 0.507812500
vn -0.547722558 0.707106781 -0.447213596
v 0.093750000 -0.501000000 2.226228959
vt 0.246093750 0.992187500
vn -0.547722558 0.707106781 -0.447213596
f 259/259/259 260/260/260 261/261/261
v 0.053204840 -0.513000000 2.256912770
vt 0.003906250 0.507812500
vn -0.547722558 0.707106781 -0.447213596
v 0.093750000 -0.501000000 2.226228959
vt 0.246093750 0.992187500
vn -0.547722558 0.707106781 -0.447213596
v 0.084454840 -0.513000000 2.218639493
vt 0.003906250 0.992187500
vn -0.547722558 0.707106781 -0.447213596
f 262/262/262 263/263/263 264/264/264
v 0.062500000 -0.501000000 2.264502236
vt 0.003906250 0.507812500
vn 0.547722558 0.707106781 0.447213596
v 0.071795160 -0.513000000 2.272091703
vt 0.246093750 0.507812500
vn 0.547722558 0.707106781 0.447213596
v 0.103045160 -0.513000000 2.233818425
vt 0.246093750 0.992187500
vn 0.547722558 0.707106781 0.447213596
f 265/265/265 266/266/266 267/267/267
v 0.062500000 -0.501000000 2.264502236
vt 0.003906250 0.507812500
vn 0.547722558 0.707106781 0.447213596
v 0.103045160 -0.513000000 2.233818425
vt 0.246093750 0.992187500
vn 0.547722558 0.707106781 0.447213596
v 0.093750000 -0.501000000 2.226228959
vt 0.003906250 0.992187500
vn 0.547722558 0.707106781 0.447213596
f 268/268/268 269/269/269 270/270/270
v 0.071795160 -0.513000000 2.272091703
vt 0.003906250 0.507812500
vn 0.547722558 -0.707106781 0.447213596
v 0.062500000 -0.525000000 2.264502236
vt 0.246093750 0.507812500
vn 0.547722558 -0.707106781 0.447213596
v 0.093750000 -0.525000000 2.226228959
vt 0.246093750 0.992187500
vn 0.547722558 -0.707106781 0.447213596
f 271/271/271 272/272/272 273/273/273
v 0.071795160 -0.513000000 2.272091703
vt 0.003906250 0.507812500
vn 0.547722558 -0.707106781 0.447213596
v 0.093750000 -0.525000000 2.226228959
vt 0.246093750 0.992187500
vn 0.547722558 -0.707106781 0.447213596
v 0.103045160 -0.513000000 2.233818425
vt 0.003906250 0.992187500
vn 0.547722558 -0.707106781 0.447213596
f 274/274/274 275/275/275 276/276/276
o conduit_end
v 0.071795160 -0.513000000 2.272091703
vt 0.003906250 0.507812500
vn -0.632455532 0.000000000 0.774596669
v 0.062500000 -0.501000000 2.264502236
vt 0.246093750 0.507812500
vn -0.632455532 0.000000000 0.774596669
v 0.053204840 -0.513000000 2.256912770
vt 0.246093750 0.992187500
vn -0.632455532 0.000000000 0.774596669
f 277/277/277 278/278/278 279/279/279
v 0.071795160 -0.513000000 2.272091703
vt 0.003906250 0.507812500
vn -0.632455532 0.000000000 0.774596669
v 0.053204840 -0.513000000 2.256912770
vt 0.246093750 0.992187500
vn -0.632455532 0.000000000 0.774596669
v 0.062500000 -0.525000000 2.264502236
vt 0.003906250 0.992187500
vn -0.632455532 0.000000000 0.774596669
f 280/280/280 281/281/281 282/282/282
v 0.093750000 -0.525000000 2.226228959
vt 0.003906250 0.507812500
vn 0.632455532 0.000000000 -0.774596669
v 0.084454840 -0.513000000 2.218639493
vt 0.246093750 0.507812500
vn 0.632455532 0.000000000 -0.774596669
v 0.093750000 -0.501000000 2.226228959
vt 0.246093750 0.992187500
vn 0.632455532 0.000000000 -0.774596669
f 283/283/283 284/284/284 285/285/285
v 0.093750000 -0.525000000 2.226228959
vt 0.003906250 0.507812500
vn 0.632455532 0.000000000 -0.774596669
v 0.093750000 -0.501000000 2.226228959
vt 0.246093750 0.992187500
vn 0.632455532 0.000000000 -0.774596669
v 0.103045160 -0.513000000 2.233818425
vt 0.003906250 0.992187500
vn 0.632455532 0.000000000 -0.774596669
f 286/286/286 287/287/287 288/288/288
o conduit
v -0.433874484 -0.534000000 2.221333464
vt 0.253906250 0.007812500
vn 0.006560516 -0.707106781 -0.707076346
v -0.433679646 -0.513000000 2.200334367
vt 0.496093750 0.007812500
vn 0.006560516 -0.707106781 -0.707076346
v -0.409680679 -0.513000000 2.200557039
vt 0.496093750 0.492187500
vn 0.006560516 -0.707106781 -0.707076346
f 289/289/289 290/290/290 291/291/291
v -0.433874484 -0.534000000 2.221333464
vt 0.253906250 0.007812500
vn 0.006560516 -0.707106781 -0.707076346
v -0.409680679 -0.513000000 2.200557039
vt 0.496093750 0.492187500
vn 0.006560516 -0.707106781 -0.707076346
v -0.409875516 -0.534000000 2.221556135
vt 0.253906250 0.492187500
vn 0.006560516 -0.707106781 -0.707076346
f 292/292/292 293/293/293 294/294/294
v -0.433679646 -0.513000000 2.200334367
vt 0.253906250 0.007812500
vn 0.006560516 0.707106781 -0.707076346
v -0.433874484 -0.492000000 2.221333464
vt 0.496093750 0.007812500
vn 0.006560516 0.707106781 -0.707076346
v -0.409875516 -0.492000000 2.221556135
vt 0.496093750 0.492187500
vn 0.006560516 0.707106781 -0.707076346
f 295/295/295 296/296/296 297/297/297
v -0.433679646 -0.513000000 2.200334367
vt 0.253906250 0.007812500
vn 0.006560516 0.707106781 -0.707076346
v -0.409875516 -0.492000000 2.221556135
vt 0.496093750 0.492187500
vn 0.006560516 0.707106781 -0.707076346
v -0.409680679 -0.513000000 2.200557039
vt 0.253906250 0.492187500
vn 0.006560516 0.707106781 -0.707076346
f 298/298/298 299/299/299 300/300/300
v -0.433874484 -0.492000000 2.221333464
vt 0.253906250 0.007812500
vn -0.006560516 0.707106781 0.707076346
v -0.434069321 -0.513000000 2.242332560
vt 0.496093750 0.007812500
vn -0.006560516 0.707106781 0.707076346
v -0.410070354 -0.513000000 2.242555231
vt 0.496093750 0.492187500
vn -0.006560516 0.707106781 0.707076346
f 301/301/301 302/302/302 303/303/303
v -0.433874484 -0.492000000 2.221333464
vt 0.253906250 0.007812500
vn -0.006560516 0.707106781 0.707076346
v -0.410070354 -0.513000000 2.242555231
vt 0.496093750 0.492187500
vn -0.006560516 0.707106781 0.707076346
v -0.409875516 -0.492000000 2.221556135
vt 0.253906250 0.492187500
vn -0.006560516 0.707106781 0.707076346
f 304/304/304 305/305/305 306/306/306
v -0.434069321 -0.513000000 2.242332560
vt 0.253906250 0.007812500
vn -0.006560516 -0.707106781 0.707076346
v -0.433874484 -0.534000000 2.221333464
vt 0.496093750 0.007812500
vn -0.006560516 -0.707106781 0.707076346
v -0.409875516 -0.534000000 2.221556135
vt 0.496093750 0.492187500
vn -0.006560516 -0.707106781 0.707076346
f 307/307/307 308/308/308 309/309/309
v -0.434069321 -0.513000000 2.242332560
vt 0.253906250 0.007812500
vn -0.006560516 -0.707106781 0.707076346
v -0.409875516 -0.534000000 2.221556135
vt 0.496093750 0.492187500
vn -0.006560516 -0.707106781 0.707076346
v -0.410070354 -0.513000000 2.242555231
vt 0.253906250 0.492187500
vn -0.006560516 -0.707106781 0.707076346
f 310/310/310 311/311/311 312/312/312
o conduit_end
v -0.434069321 -0.513000000 2.242332560
vt 0.253906250 0.007812500
vn -0.999956959 0.000000000 -0.009277971
v -0.433874484 -0.492000000 2.221333464
vt 0.496093750 0.007812500
vn -0.999956959 0.000000000 -0.009277971
v -0.433679646 -0.513000000 2.200334367
vt 0.496093750 0.492187500
vn -0.999956959 0.000000000 -0.009277971
f 313/313/313 314/314/314 315/315/315
v -0.434069321 -0.513000000 2.242332560
vt 0.253906250 0.007812500
vn -0.999956959 0.000000000 -0.009277971
v -0.433679646 -0.513000000 2.200334367
vt 0.496093750 0.492187500
vn -0.999956959 0.000000000 -0.009277971
v -0.433874484 -0.534000000 2.221333464
vt 0.253906250 0.492187500
vn -0.999956959 0.000000000 -0.009277971
f 316/316/316 317/317/317 318/318/318
v -0.409875516 -0.534000000 2.221556135
vt 0.253906250 0.007812500
vn 0.999956959 -0.000000000 0.009277971
v -0.409680679 -0.513000000 2.200557039
vt 0.496093750 0.007812500
vn 0.999956959 -0.000000000 0.009277971
v -0.409875516 -0.492000000 2.221556135
vt 0.496093750 0.492187500
vn 0.999956959 -0.000000000 0.009277971
f 319/319/319 320/320/320 321/321/321
v -0.409875516 -0.534000000 2.221556135
vt 0.253906250 0.007812500
vn 0.999956959 -0.000000000 0.009277971
v -0.409875516 -0.492000000 2.221556135
vt 0.496093750 0.492187500
vn 0.999956959 -0.000000000 0.009277971
v -0.410070354 -0.513000000 2.242555231
vt 0.253906250 0.492187500
vn 0.999956959 -0.000000000 0.009277971
f 322/322/322 323/323/323 324/324/324
o conduit
v -0.090124484 -0.534000000 2.224522903
vt 0.253906250 0.007812500
vn 0.006560516 -0.707106781 -0.707076346
v -0.089929646 -0.513000000 2.203523807
vt 0.496093750 0.007812500
vn 0.006560516 -0.707106781 -0.707076346
v -0.065930679 -0.513000000 2.203746479
vt 0.496093750 0.492187500
vn 0.006560516 -0.707106781 -0.707076346
f 325/325/325 326/326/326 327/327/327
v -0.090124484 -0.534000000 2.224522903
vt 0.253906250 0.007812500
vn 0.006560516 -0.707106781 -0.707076346
v -0.065930679 -0.513000000 2.203746479
vt 0.496093750 0.492187500
vn 0.006560516 -0.707106781 -0.707076346
v -0.066125516 -0.534000000 2.224745575
vt 0.253906250 0.492187500
vn 0.006560516 -0.707106781 -0.707076346
f 328/328/328 329/329/329 330/330/330
v -0.089929646 -0.513000000 2.203523807
vt 0.253906250 0.007812500
vn 0.006560516 0.707106781 -0.707076346
v -0.090124484 -0.492000000 2.224522903
vt 0.496093750 0.007812500
vn 0.006560516 0.707106781 -0.707076346
v -0.066125516 -0.492000000 2.224745575
vt 0.496093750 0.492187500
vn 0.006560516 0.707106781 -0.707076346
f 331/331/331 332/332/332 333/333/333
v -0.089929646 -0.513000000 2.203523807
vt 0.253906250 0.007812500
vn 0.006560516 0.707106781 -0.707076346
v -0.066125516 -0.492000000 2.224745575
vt 0.496093750 0.492187500
vn 0.006560516 0.707106781 -0.707076346
v -0.065930679 -0.513000000 2.203746479
vt 0.253906250 0.492187500
vn 0.006560516 0.707106781 -0.707076346
f 334/334/334 335/335/335 336/336/336
v -0.090124484 -0.492000000 2.224522903
vt 0.253906250 0.007812500
vn -0.006560516 0.707106781 0.707076346
v -0.090319321 -0.513000000 2.245522000
vt 0.496093750 0.007812500
vn -0.006560516 0.707106781 0.707076346
v -0.066320354 -0.513000000 2.245744671
vt 0.496093750 0.492187500
vn -0.006560516 0.707106781 0.707076346
f 337/337/337 338/338/338 339/339/339
v -0.090124484 -0.492000000 2.224522903
vt 0.253906250 0.007812500
vn -0.006560516 0.707106781 0.707076346
v -0.066320354 -0.513000000 2.245744671
vt 0.496093750 0.492187500
vn -0.006560516 0.707106781 0.707076346
v -0.066125516 -0.492000000 2.224745575
vt 0.253906250 0.492187500
vn -0.006560516 0.707106781 0.707076346
f 340/340/340 341/341/341 342/342/342
v -0.090319321 -0.513000000 2.245522000
vt 0.253906250 0.007812500
vn -0.006560516 -0.707106781 0.707076346
v -0.090124484 -0.534000000 2.224522903
vt 0.496093750 0.007812500
vn -0.006560516 -0.707106781 0.707076346
v -0.066125516 -0.534000000 2.224745575
vt 0.496093750 0.492187500
vn -0.006560516 -0.707106781 0.707076346
f 343/343/343 344/344/344 345/345/345
v -0.090319321 -0.513000000 2.245522000
vt 0.253906250 0.007812500
vn -0.006560516 -0.707106781 0.707076346
v -0.066125516 -0.534000000 2.224745575
vt 0.496093750 0.492187500
vn -0.006560516 -0.707106781 0.707076346
v -0.066320354 -0.513000000 2.245744671
vt 0.253906250 0.492187500
vn -0.006560516 -0.707106781 0.707076346
f 346/346/346 347/347/347 348/348/348
o conduit_end
v -0.090319321 -0.513000000 2.245522000
vt 0.253906250 0.007812500
vn -0.999956959 0.000000000 -0.009277971
v -0.090124484 -0.492000000 2.224522903
vt 0.496093750 0.007812500
vn -0.999956959 0.000000000 -0.009277971
v -0.089929646 -0.513000000 2.203523807
vt 0.496093750 0.492187500
vn -0.999956959 0.000000000 -0.009277971
f 349/349/349 350/350/350 351/351/351
v -0.090319321 -0.513000000 2.245522000
vt 0.253906250 0.007812500
vn -0.999956959 0.000000000 -0.009277971
v -0.089929646 -0.513000000 2.203523807
vt 0.496093750 0.492187500
vn -0.999956959 0.000000000 -0.009277971
v -0.090124484 -0.534000000 2.224522903
vt 0.253906250 0.492187500
vn -0.999956959 0.000000000 -0.009277971
f 352/352/352 353/353/353 354/354/354
v -0.066125516 -0.534000000 2.224745575
vt 0.253906250 0.007812500
vn 0.999956959 -0.000000000 0.009277971
v -0.065930679 -0.513000000 2.203746479
vt 0.496093750 0.007812500
vn 0.999956959 -0.000000000 0.009277971
v -0.066125516 -0.492000000 2.224745575
vt 0.496093750 0.492187500
vn 0.999956959 -0.000000000 0.009277971
f 355/355/355 356/356/356 357/357/357
v -0.066125516 -0.534000000 2.224745575
vt 0.253906250 0.007812500
vn 0.999956959 -0.000000000 0.009277971
v -0.066125516 -0.492000000 2.224745575
vt 0.496093750 0.492187500
vn 0.999956959 -0.000000000 0.009277971
v -0.066320354 -0.513000000 2.245744671
vt 0.253906250 0.492187500
vn 0.999956959 -0.000000000 0.009277971
f 358/358/358 359/359/359 360/360/360
o conduit
v -0.593750000 -0.525000000 2.181576802
vt 0.003906250 0.507812500
vn 0.579324122 -0.707106781 -0.405442427
v -0.583918544 -0.513000000 2.174696216
vt 0.246093750 0.507812500
vn 0.579324122 -0.707106781 -0.405442427
v -0.552668544 -0.513000000 2.219348373
vt 0.246093750 0.992187500
vn 0.579324122 -0.707106781 -0.405442427
f 361/361/361 362/362/362 363/363/363
v -0.593750000 -0.525000000 2.181576802
vt 0.003906250 0.507812500
vn 0.579324122 -0.707106781 -0.405442427
v -0.552668544 -0.513000000 2.219348373
vt 0.246093750 0.992187500
vn 0.579324122 -0.707106781 -0.405442427
v -0.562500000 -0.525000000 2.226228959
vt 0.003906250 0.992187500
vn 0.579324122 -0.707106781 -0.405442427
f 364/364/364 365/365/365 366/366/366
v -0.583918544 -0.513000000 2.174696216
vt 0.003906250 0.507812500
vn 0.579324122 0.707106781 -0.405442427
v -0.593750000 -0.501000000 2.181576802
vt 0.246093750 0.507812500
vn 0.579324122 0.707106781 -0.405442427
v -0.562500000 -0.501000000 2.226228959
vt 0.246093750 0.992187500
vn 0.579324122 0.707106781 -0.405442427
f 367/367/367 368/368/368 369/369/369
v -0.583918544 -0.513000000 2.174696216
vt 0.003906250 0.507812500
vn 0.579324122 0.707106781 -0.405442427
v -0.562500000 -0.501000000 2.226228959
vt 0.246093750 0.992187500
vn 0.579324122 0.707106781 -0.405442427
v -0.552668544 -0.513000000 2.219348373
vt 0.003906250 0.992187500
vn 0.579324122 0.707106781 -0.405442427
f 370/370/370 371/371/371 372/372/372
v -0.593750000 -0.501000000 2.181576802
vt 0.003906250 0.507812500
vn -0.579324122 0.707106781 0.405442427
v -0.603581456 -0.513000000 2.188457388
vt 0.246093750 0.507812500
vn -0.579324122 0.707106781 0.405442427
v -0.572331456 -0.513000000 2.233109545
vt 0.246093750 0.992187500
vn -0.579324122 0.707106781 0.405442427
f 373/373/373 374/374/374 375/375/375
v -0.593750000 -0.501000000 2.181576802
vt 0.003906250 0.507812500
vn -0.579324122 0.707106781 0.405442427
v -0.572331456 -0.513000000 2.233109545
vt 0.246093750 0.992187500
vn -0.579324122 0.707106781 0.405442427
v -0.562500000 -0.501000000 2.226228959
vt 0.003906250 0.992187500
vn -0.579324122 0.707106781 0.405442427
f 376/376/376 377/377/377 378/378/378
v -0.603581456 -0.513000000 2.188457388
vt 0.003906250 0.507812500
vn -0.579324122 -0.707106781 0.405442427
v -0.593750000 -0.525000000 2.181576802
vt 0.246093750 0.507812500
vn -0.579324122 -0.707106781 0.405442427
v -0.562500000 -0.525000000 2.226228959
vt 0.246093750 0.992187500
vn -0.579324122 -0.707106781 0.405442427
f 379/379/379 380/380/380 381/381/381
v -0.603581456 -0.513000000 2.188457388
vt 0.003906250 0.507812500
vn -0.579324122 -0.707106781 0.405442427
v -0.562500000 -0.525000000 2.226228959
vt 0.246093750 0.992187500
vn -0.579324122 -0.707106781 0.405442427
v -0.572331456 -0.513000000 2.233109545
vt 0.003906250 0.992187500
vn -0.579324122 -0.707106781 0.405442427
f 382/382/382 383/383/383 384/384/384
o conduit_end
v -0.603581456 -0.513000000 2.188457388
vt 0.003906250 0.507812500
vn -0.573382179 0.000000000 -0.819288030
v -0.593750000 -0.501000000 2.181576802
vt 0.246093750 0.507812500
vn -0.573382179 0.000000000 -0.819288030
v -0.583918544 -0.513000000 2.174696216
vt 0.246093750 0.992187500
vn -0.573382179 0.000000000 -0.819288030
f 385/385/385 386/386/386 387/387/387
v -0.603581456 -0.513000000 2.188457388
vt 0.003906250 0.507812500
vn -0.573382179 0.000000000 -0.819288030
v -0.583918544 -0.513000000 2.174696216
vt 0.246093750 0.992187500
vn -0.573382179 0.000000000 -0.819288030
v -0.593750000 -0.525000000 2.181576802
vt 0.003906250 0.992187500
vn -0.573382179 0.000000000 -0.819288030
f 388/388/388 389/389/389 390/390/390
v -0.562500000 -0.525000000 2.226228959
vt 0.003906250 0.507812500
vn 0.573382179 -0.000000000 0.819288030
v -0.552668544 -0.513000000 2.219348373
vt 0.246093750 0.507812500
vn 0.573382179 -0.000000000 0.819288030
v -0.562500000 -0.501000000 2.226228959
vt 0.246093750 0.992187500
vn 0.573382179 -0.000000000 0.819288030
f 391/391/391 392/392/392 393/393/393
v -0.562500000 -0.525000000 2.226228959
vt 0.003906250 0.507812500
vn 0.573382179 -0.000000000 0.819288030
v -0.562500000 -0.501000000 2.226228959
vt 0.246093750 0.992187500
vn 0.573382179 -0.000000000 0.819288030
v -0.572331456 -0.513000000 2.233109545
vt 0.003906250 0.992187500
vn 0.573382179 -0.000000000 0.819288030
f 394/394/394 395/395/395 396/396/396
o conduit
v -0.562500000 -0.525000000 2.226228959
vt 0.003906250 0.507812500
vn 0.071795816 -0.707106781 -0.703452458
v -0.561281585 -0.513000000 2.214290975
vt 0.246093750 0.507812500
vn 0.071795816 -0.707106781 -0.703452458
v -0.436281585 -0.513000000 2.227048734
vt 0.246093750 0.992187500
vn 0.071795816 -0.707106781 -0.703452458
f 397/397/397 398/398/398 399/399/399
v -0.562500000 -0.525000000 2.226228959
vt 0.003906250 0.507812500
vn 0.071795816 -0.707106781 -0.703452458
v -0.436281585 -0.513000000 2.227048734
vt 0.246093750 0.992187500
vn 0.071795816 -0.707106781 -0.703452458
v -0.437500000 -0.525000000 2.238986718
vt 0.003906250 0.992187500
vn 0.071795816 -0.707106781 -0.703452458
f 400/400/400 401/401/401 402/402/402
v -0.561281585 -0.513000000 2.214290975
vt 0.003906250 0.507812500
vn 0.071795816 0.707106781 -0.703452458
v -0.562500000 -0.501000000 2.226228959
vt 0.246093750 0.507812500
vn 0.071795816 0.707106781 -0.703452458
v -0.437500000 -0.501000000 2.238986718
vt 0.246093750 0.992187500
vn 0.071795816 0.707106781 -0.703452458
f 403/403/403 404/404/404 405/405/405
v -0.561281585 -0.513000000 2.214290975
vt 0.003906250 0.507812500
vn 0.071795816 0.707106781 -0.703452458
v -0.437500000 -0.501000000 2.238986718
vt 0.246093750 0.992187500
vn 0.071795816 0.707106781 -0.703452458
v -0.436281585 -0.513000000 2.227048734
vt 0.003906250 0.992187500
vn 0.071795816 0.707106781 -0.703452458
f 406/406/406 407/407/407 408/408/408
v -0.562500000 -0.501000000 2.226228959
vt 0.003906250 0.507812500
vn -0.071795816 0.707106781 0.703452458
v -0.563718415 -0.513000000 2.238166943
vt 0.246093750 0.507812500
vn -0.071795816 0.707106781 0.703452458
v -0.438718415 -0.513000000 2.250924702
vt 0.246093750 0.992187500
vn -0.071795816 0.707106781 0.703452458
f 409/409/409 410/410/410 411/411/411
v -0.562500000 -0.501000000 2.226228959
vt 0.003906250 0.507812500
vn -0.071795816 0.707106781 0.703452458
v -0.438718415 -0.513000000 2.250924702
vt 0.246093750 0.992187500
vn -0.071795816 0.707106781 0.703452458
v -0.437500000 -0.501000000 2.238986718
vt 0.003906250 0.992187500
vn -0.071795816 0.707106781 0.703452458
f 412/412/412 413/413/413 414/414/414
v -0.563718415 -0.513000000 2.238166943
vt 0.003906250 0.507812500
vn -0.071795816 -0.707106781 0.703452458
v -0.562500000 -0.525000000 2.226228959
vt 0.246093750 0.507812500
vn -0.071795816 -0.707106781 0.703452458
v -0.437500000 -0.525000000 2.238986718
vt 0.246093750 0.992187500
vn -0.071795816 -0.707106781 0.703452458
f 415/415/415 416/416/416 417/417/417
v -0.563718415 -0.513000000 2.238166943
vt 0.003906250 0.507812500
vn -0.071795816 -0.707106781 0.703452458
v -0.437500000 -0.525000000 2.238986718
vt 0.246093750 0.992187500
vn -0.071795816 -0.707106781 0.703452458
v -0.438718415 -0.513000000 2.250924702
vt 0.003906250 0.992187500
vn -0.071795816 -0.707106781 0.703452458
f 418/418/418 419/419/419 420/420/420
o conduit_end
v -0.563718415 -0.513000000 2.238166943
vt 0.003906250 0.507812500
vn -0.994832007 0.000000000 -0.101534617
v -0.562500000 -0.501000000 2.226228959
vt 0.246093750 0.507812500
vn -0.994832007 0.000000000 -0.101534617
v -0.561281585 -0.513000000 2.214290975
vt 0.246093750 0.992187500
vn -0.994832007 0.000000000 -0.101534617
f 421/421/421 422/422/422 423/423/423
v -0.563718415 -0.513000000 2.238166943
vt 0.003906250 0.507812500
vn -0.994832007 0.000000000 -0.101534617
v -0.561281585 -0.513000000 2.214290975
vt 0.246093750 0.992187500
vn -0.994832007 0.000000000 -0.101534617
v -0.562500000 -0.525000000 2.226228959
vt 0.003906250 0.992187500
vn -0.994832007 0.000000000 -0.101534617
f 424/424/424 425/425/425 426/426/426
v -0.437500000 -0.525000000 2.238986718
vt 0.003906250 0.507812500
vn 0.994832007 -0.000000000 0.101534617
v -0.436281585 -0.513000000 2.227048734
vt 0.246093750 0.507812500
vn 0.994832007 -0.000000000 0.101534617
v -0.437500000 -0.501000000 2.238986718
vt 0.246093750 0.992187500
vn 0.994832007 -0.000000000 0.101534617
f 427/427/427 428/428/428 429/429/429
v -0.437500000 -0.525000000 2.238986718
vt 0.003906250 0.507812500
vn 0.994832007 -0.000000000 0.101534617
v -0.437500000 -0.501000000 2.238986718
vt 0.246093750 0.992187500
vn 0.994832007 -0.000000000 0.101534617
v -0.438718415 -0.513000000 2.250924702
vt 0.003906250 0.992187500
vn 0.994832007 -0.000000000 0.101534617
f 430/430/430 431/431/431 432/432/432
o conduit
v -0.437500000 -0.525000000 2.238986718
vt 0.003906250 0.507812500
vn -0.045485883 -0.707106781 -0.705642285
v -0.438271921 -0.513000000 2.227011571
vt 0.246093750 0.507812500
vn -0.045485883 -0.707106781 -0.705642285
v -0.141396921 -0.513000000 2.207874933
vt 0.246093750 0.992187500
vn -0.045485883 -0.707106781 -0.705642285
f 433/433/433 434/434/434 435/435/435
v -0.437500000 -0.525000000 2.238986718
vt 0.003906250 0.507812500
vn -0.045485883 -0.707106781 -0.705642285
v -0.141396921 -0.513000000 2.207874933
vt 0.246093750 0.992187500
vn -0.045485883 -0.707106781 -0.705642285
v -0.140625000 -0.525000000 2.219850079
vt 0.003906250 0.992187500
vn -0.045485883 -0.707106781 -0.705642285
f 436/436/436 437/437/437 438/438/438
v -0.438271921 -0.513000000 2.227011571
vt 0.003906250 0.507812500
vn -0.045485883 0.707106781 -0.705642285
v -0.437500000 -0.501000000 2.238986718
vt 0.246093750 0.507812500
vn -0.045485883 0.707106781 -0.705642285
v -0.140625000 -0.501000000 2.219850079
vt 0.246093750 0.992187500
vn -0.045485883 0.707106781 -0.705642285
f 439/439/439 440/440/440 441/441/441
v -0.438271921 -0.513000000 2.227011571
vt 0.003906250 0.507812500
vn -0.045485883 0.707106781 -0.705642285
v -0.140625000 -0.501000000 2.219850079
vt 0.246093750 0.992187500
vn -0.045485883 0.707106781 -0.705642285
v -0.141396921 -0.513000000 2.207874933
vt 0.003906250 0.992187500
vn -0.045485883 0.707106781 -0.705642285
f 442/442/442 443/443/443 444/444/444
v -0.437500000 -0.501000000 2.238986718
vt 0.003906250 0.507812500
vn 0.045485883 0.707106781 0.705642285
v -0.436728079 -0.513000000 2.250961865
vt 0.246093750 0.507812500
vn 0.045485883 0.707106781 0.705642285
v -0.139853079 -0.513000000 2.231825226
vt 0.246093750 0.992187500
vn 0.045485883 0.707106781 0.705642285
f 445/445/445 446/446/446 447/447/447
v -0.437500000 -0.501000000 2.238986718
vt 0.003906250 0.507812500
vn 0.045485883 0.707106781 0.705642285
v -0.139853079 -0.513000000 2.231825226
vt 0.246093750 0.992187500
vn 0.045485883 0.707106781 0.705642285
v -0.140625000 -0.501000000 2.219850079
vt 0.003906250 0.992187500
vn 0.045485883 0.707106781 0.705642285
f 448/448/448 449/449/449 450/450/450
v -0.436728079 -0.513000000 2.250961865
vt 0.003906250 0.507812500
vn 0.045485883 -0.707106781 0.705642285
v -0.437500000 -0.525000000 2.238986718
vt 0.246093750 0.507812500
vn 0.045485883 -0.707106781 0.705642285
v -0.140625000 -0.525000000 2.219850079
vt 0.246093750 0.992187500
vn 0.045485883 -0.707106781 0.705642285
f 451/451/451 452/452/452 453/453/453
v -0.436728079 -0.513000000 2.250961865
vt 0.003906250 0.507812500
vn 0.045485883 -0.707106781 0.705642285
v -0.140625000 -0.525000000 2.219850079
vt 0.246093750 0.992187500
vn 0.045485883 -0.707106781 0.705642285
v -0.139853079 -0.513000000 2.231825226
vt 0.003906250 0.992187500
vn 0.045485883 -0.707106781 0.705642285
f 454/454/454 455/455/455 456/456/456
o conduit_end
v -0.436728079 -0.513000000 2.250961865
vt 0.003906250 0.507812500
vn -0.997928890 0.000000000 0.064326752
v -0.437500000 -0.501000000 2.238986718
vt 0.246093750 0.507812500
vn -0.997928890 0.000000000 0.064326752
v -0.438271921 -0.513000000 2.227011571
vt 0.246093750 0.992187500
vn -0.997928890 0.000000000 0.064326752
f 457/457/457 458/458/458 459/459/459
v -0.436728079 -0.513000000 2.250961865
vt 0.003906250 0.507812500
vn -0.997928890 0.000000000 0.064326752
v -0.438271921 -0.513000000 2.227011571
vt 0.246093750 0.992187500
vn -0.997928890 0.000000000 0.064326752
v -0.437500000 -0.525000000 2.238986718
vt 0.003906250 0.992187500
vn -0.997928890 0.000000000 0.064326752
f 460/460/460 461/461/461 462/462/462
v -0.140625000 -0.525000000 2.219850079
vt 0.003906250 0.507812500
vn 0.997928890 0.000000000 -0.064326752
v -0.141396921 -0.513000000 2.207874933
vt 0.246093750 0.507812500
vn 0.997928890 0.000000000 -0.064326752
v -0.140625000 -0.501000000 2.219850079
vt 0.246093750 0.992187500
vn 0.997928890 0.000000000 -0.064326752
f 463/463/463 464/464/464 465/465/465
v -0.140625000 -0.525000000 2.219850079
vt 0.003906250 0.507812500
vn 0.997928890 0.000000000 -0.064326752
v -0.140625000 -0.501000000 2.219850079
vt 0.246093750 0.992187500
vn 0.997928890 0.000000000 -0.064326752
v -0.139853079 -0.513000000 2.231825226
vt 0.003906250 0.992187500
vn 0.997928890 0.000000000 -0.064326752
f 466/466/466 467/467/467 468/468/468
o conduit
v -0.140625000 -0.525000000 2.219850079
vt 0.003906250 0.507812500
vn -0.603022689 -0.707106781 -0.369274473
v -0.150858634 -0.513000000 2.213583284
vt 0.246093750 0.507812500
vn -0.603022689 -0.707106781 -0.369274473
v -0.135233634 -0.513000000 2.188067766
vt 0.246093750 0.992187500
vn -0.603022689 -0.707106781 -0.369274473
f 469/469/469 470/470/470 471/471/471
v -0.140625000 -0.525000000 2.219850079
vt 0.003906250 0.507812500
vn -0.603022689 -0.707106781 -0.369274473
v -0.135233634 -0.513000000 2.188067766
vt 0.246093750 0.992187500
vn -0.603022689 -0.707106781 -0.369274473
v -0.125000000 -0.525000000 2.194334561
vt 0.003906250 0.992187500
vn -0.603022689 -0.707106781 -0.369274473
f 472/472/472 473/473/473 474/474/474
v -0.150858634 -0.513000000 2.213583284
vt 0.003906250 0.507812500
vn -0.603022689 0.707106781 -0.369274473
v -0.140625000 -0.501000000 2.219850079
vt 0.246093750 0.507812500
vn -0.603022689 0.707106781 -0.369274473
v -0.125000000 -0.501000000 2.194334561
vt 0.246093750 0.992187500
vn -0.603022689 0.707106781 -0.369274473
f 475/475/475 476/476/476 477/477/477
v -0.150858634 -0.513000000 2.213583284
vt 0.003906250 0.507812500
vn -0.603022689 0.707106781 -0.369274473
v -0.125000000 -0.501000000 2.194334561
vt 0.246093750 0.992187500
vn -0.603022689 0.707106781 -0.369274473
v -0.135233634 -0.513000000 2.188067766
vt 0.003906250 0.992187500
vn -0.603022689 0.707106781 -0.369274473
f 478/478/478 479/479/479 480/480/480
v -0.140625000 -0.501000000 2.219850079
vt 0.003906250 0.507812500
vn 0.603022689 0.707106781 0.369274473
v -0.130391366 -0.513000000 2.226116875
vt 0.246093750 0.507812500
vn 0.603022689 0.707106781 0.369274473
v -0.114766366 -0.513000000 2.200601357
vt 0.246093750 0.992187500
vn 0.603022689 0.707106781 0.369274473
f 481/481/481 482/482/482 483/483/483
v -0.140625000 -0.501000000 2.219850079
vt 0.003906250 0.507812500
vn 0.603022689 0.707106781 0.369274473
v -0.114766366 -0.513000000 2.200601357
vt 0.246093750 0.992187500
vn 0.603022689 0.707106781 0.369274473
v -0.125000000 -0.501000000 2.194334561
vt 0.003906250 0.992187500
vn 0.603022689 0.707106781 0.369274473
f 484/484/484 485/485/485 486/486/486
v -0.130391366 -0.513000000 2.226116875
vt 0.003906250 0.507812500
vn 0.603022689 -0.707106781 0.369274473
v -0.140625000 -0.525000000 2.219850079
vt 0.246093750 0.507812500
vn 0.603022689 -0.707106781 0.369274473
v -0.125000000 -0.525000000 2.194334561
vt 0.246093750 0.992187500
vn 0.603022689 -0.707106781 0.369274473
f 487/487/487 488/488/488 489/489/489
v -0.130391366 -0.513000000 2.226116875
vt 0.003906250 0.507812500
vn 0.603022689 -0.707106781 0.369274473
v -0.125000000 -0.525000000 2.194334561
vt 0.246093750 0.992187500
vn 0.603022689 -0.707106781 0.369274473
v -0.114766366 -0.513000000 2.200601357
vt 0.003906250 0.992187500
vn 0.603022689 -0.707106781 0.369274473
f 490/490/490 491/491/491 492/492/492
o conduit_end
v -0.130391366 -0.513000000 2.226116875
vt 0.003906250 0.507812500
vn -0.522232968 0.000000000 0.852802865
v -0.140625000 -0.501000000 2.219850079
vt 0.246093750 0.507812500
vn -0.522232968 0.000000000 0.852802865
v -0.150858634 -0.513000000 2.213583284
vt 0.246093750 0.992187500
vn -0.522232968 0.000000000 0.852802865
f 493/493/493 494/494/494 495/495/495
v -0.130391366 -0.513000000 2.226116875
vt 0.003906250 0.507812500
vn -0.522232968 0.000000000 0.852802865
v -0.150858634 -0.513000000 2.213583284
vt 0.246093750 0.992187500
vn -0.522232968 0.000000000 0.852802865
v -0.140625000 -0.525000000 2.219850079
vt 0.003906250 0.992187500
vn -0.522232968 0.000000000 0.852802865
f 496/496/496 497/497/497 498/498/498
v -0.125000000 -0.525000000 2.194334561
vt 0.003906250 0.507812500
vn 0.522232968 0.000000000 -0.852802865
v -0.135233634 -0.513000000 2.188067766
vt 0.246093750 0.507812500
vn 0.522232968 0.000000000 -0.852802865
v -0.125000000 -0.501000000 2.194334561
vt 0.246093750 0.992187500
vn 0.522232968 0.000000000 -0.852802865
f 499/499/499 500/500/500 501/501/501
v -0.125000000 -0.525000000 2.194334561
vt 0.003906250 0.507812500
vn 0.522232968 0.000000000 -0.852802865
v -0.125000000 -0.501000000 2.194334561
vt 0.246093750 0.992187500
vn 0.522232968 0.000000000 -0.852802865
v -0.114766366 -0.513000000 2.200601357
vt 0.003906250 0.992187500
vn 0.522232968 0.000000000 -0.852802865
f 502/502/502 503/503/503 504/504/504
o conduit
v -0.125000000 -0.525000000 2.194334561
vt 0.003906250 0.507812500
vn 0.267261242 -0.707106781 -0.654653671
v -0.120464426 -0.513000000 2.183224720
vt 0.246093750 0.507812500
vn 0.267261242 -0.707106781 -0.654653671
v -0.057964426 -0.513000000 2.208740238
vt 0.246093750 0.992187500
vn 0.267261242 -0.707106781 -0.654653671
f 505/505/505 506/506/506 507/507/507
v -0.125000000 -0.525000000 2.194334561
vt 0.003906250 0.507812500
vn 0.267261242 -0.707106781 -0.654653671
v -0.057964426 -0.513000000 2.208740238
vt 0.246093750 0.992187500
vn 0.267261242 -0.707106781 -0.654653671
v -0.062500000 -0.525000000 2.219850079
vt 0.003906250 0.992187500
vn 0.267261242 -0.707106781 -0.654653671
f 508/508/508 509/509/509 510/510/510
v -0.120464426 -0.513000000 2.183224720
vt 0.003906250 0.507812500
vn 0.267261242 0.707106781 -0.654653671
v -0.125000000 -0.501000000 2.194334561
vt 0.246093750 0.507812500
vn 0.267261242 0.707106781 -0.654653671
v -0.062500000 -0.501000000 2.219850079
vt 0.246093750 0.992187500
vn 0.267261242 0.707106781 -0.654653671
f 511/511/511 512/512/512 513/513/513
v -0.120464426 -0.513000000 2.183224720
vt 0.003906250 0.507812500
vn 0.267261242 0.707106781 -0.654653671
v -0.062500000 -0.501000000 2.219850079
vt 0.246093750 0.992187500
vn 0.267261242 0.707106781 -0.654653671
v -0.057964426 -0.513000000 2.208740238
vt 0.003906250 0.992187500
vn 0.267261242 0.707106781 -0.654653671
f 514/514/514 515/515/515 516/516/516
v -0.125000000 -0.501000000 2.194334561
vt 0.003906250 0.507812500
vn -0.267261242 0.707106781 0.654653671
v -0.129535574 -0.513000000 2.205444402
vt 0.246093750 0.507812500
vn -0.267261242 0.707106781 0.654653671
v -0.067035574 -0.513000000 2.230959921
vt 0.246093750 0.992187500
vn -0.267261242 0.707106781 0.654653671
f 517/517/517 518/518/518 519/519/519
v -0.125000000 -0.501000000 2.194334561
vt 0.003906250 0.507812500
vn -0.267261242 0.707106781 0.654653671
v -0.067035574 -0.513000000 2.230959921
vt 0.246093750 0.992187500
vn -0.267261242 0.707106781 0.654653671
v -0.062500000 -0.501000000 2.219850079
vt 0.003906250 0.992187500
vn -0.267261242 0.707106781 0.654653671
f 520/520/520 521/521/521 522/522/522
v -0.129535574 -0.513000000 2.205444402
vt 0.003906250 0.507812500
vn -0.267261242 -0.707106781 0.654653671
v -0.125000000 -0.525000000 2.194334561
vt 0.246093750 0.507812500
vn -0.267261242 -0.707106781 0.654653671
v -0.062500000 -0.525000000 2.219850079
vt 0.246093750 0.992187500
vn -0.267261242 -0.707106781 0.654653671
f 523/523/523 524/524/524 525/525/525
v -0.129535574 -0.513000000 2.205444402
vt 0.003906250 0.507812500
vn -0.267261242 -0.707106781 0.654653671
v -0.062500000 -0.525000000 2.219850079
vt 0.246093750 0.992187500
vn -0.267261242 -0.707106781 0.654653671
v -0.067035574 -0.513000000 2.230959921
vt 0.003906250 0.992187500
vn -0.267261242 -0.707106781 0.654653671
f 526/526/526 527/527/527 528/528/528
o conduit_end
v -0.129535574 -0.513000000 2.205444402
vt 0.003906250 0.507812500
vn -0.925820100 0.000000000 -0.377964473
v -0.125000000 -0.501000000 2.194334561
vt 0.246093750 0.507812500
vn -0.925820100 0.000000000 -0.377964473
v -0.120464426 -0.513000000 2.183224720
vt 0.246093750 0.992187500
vn -0.925820100 0.000000000 -0.377964473
f 529/529/529 530/530/530 531/531/531
v -0.129535574 -0.513000000 2.205444402
vt 0.003906250 0.507812500
vn -0.925820100 0.000000000 -0.377964473
v -0.120464426 -0.513000000 2.183224720
vt 0.246093750 0.992187500
vn -0.925820100 0.000000000 -0.377964473
v -0.125000000 -0.525000000 2.194334561
vt 0.003906250 0.992187500
vn -0.925820100 0.000000000 -0.377964473
f 532/532/532 533/533/533 534/534/534
v -0.062500000 -0.525000000 2.219850079
vt 0.003906250 0.507812500
vn 0.925820100 -0.000000000 0.377964473
v -0.057964426 -0.513000000 2.208740238
vt 0.246093750 0.507812500
vn 0.925820100 -0.000000000 0.377964473
v -0.062500000 -0.501000000 2.219850079
vt 0.246093750 0.992187500
vn 0.925820100 -0.000000000 0.377964473
f 535/535/535 536/536/536 537/537/537
v -0.062500000 -0.525000000 2.219850079
vt 0.003906250 0.507812500
vn 0.925820100 -0.000000000 0.377964473
v -0.062500000 -0.501000000 2.219850079
vt 0.246093750 0.992187500
vn 0.925820100 -0.000000000 0.377964473
v -0.067035574 -0.513000000 2.230959921
vt 0.003906250 0.992187500
vn 0.925820100 -0.000000000 0.377964473
f 538/538/538 539/539/539 540/540/540
o conduit
v -0.062500000 -0.525000000 2.219850079
vt 0.003906250 0.507812500
vn -0.547722558 -0.707106781 -0.447213596
v -0.071795160 -0.513000000 2.212260613
vt 0.246093750 0.507812500
vn -0.547722558 -0.707106781 -0.447213596
v -0.056170160 -0.513000000 2.193123974
vt 0.246093750 0.992187500
vn -0.547722558 -0.707106781 -0.447213596
f 541/541/541 542/542/542 543/543/543
v -0.062500000 -0.525000000 2.219850079
vt 0.003906250 0.507812500
vn -0.547722558 -0.707106781 -0.447213596
v -0.056170160 -0.513000000 2.193123974
vt 0.246093750 0.992187500
vn -0.547722558 -0.707106781 -0.447213596
v -0.046875000 -0.525000000 2.200713441
vt 0.003906250 0.992187500
vn -0.547722558 -0.707106781 -0.447213596
f 544/544/544 545/545/545 546/546/546
v -0.071795160 -0.513000000 2.212260613
vt 0.003906250 0.507812500
vn -0.547722558 0.707106781 -0.447213596
v -0.062500000 -0.501000000 2.219850079
vt 0.246093750 0.507812500
vn -0.547722558 0.707106781 -0.447213596
v -0.046875000 -0.501000000 2.200713441
vt 0.246093750 0.992187500
vn -0.547722558 0.707106781 -0.447213596
f 547/547/547 548/548/548 549/549/549
v -0.071795160 -0.513000000 2.212260613
vt 0.003906250 0.507812500
vn -0.547722558 0.707106781 -0.447213596
v -0.046875000 -0.501000000 2.200713441
vt 0.246093750 0.992187500
vn -0.547722558 0.707106781 -0.447213596
v -0.056170160 -0.513000000 2.193123974
vt 0.003906250 0.992187500
vn -0.547722558 0.707106781 -0.447213596
f 550/550/550 551/551/551 552/552/552
v -0.062500000 -0.501000000 2.219850079
vt 0.003906250 0.507812500
vn 0.547722558 0.707106781 0.447213596
v -0.053204840 -0.513000000 2.227439546
vt 0.246093750 0.507812500
vn 0.547722558 0.707106781 0.447213596
v -0.037579840 -0.513000000 2.208302907
vt 0.246093750 0.992187500
vn 0.547722558 0.707106781 0.447213596
f 553/553/553 554/554/554 555/555/555
v -0.062500000 -0.501000000 2.219850079
vt 0.003906250 0.507812500
vn 0.547722558 0.707106781 0.447213596
v -0.037579840 -0.513000000 2.208302907
vt 0.246093750 0.992187500
vn 0.547722558 0.707106781 0.447213596
v -0.046875000 -0.501000000 2.200713441
vt 0.003906250 0.992187500
vn 0.547722558 0.707106781 0.447213596
f 556/556/556 557/557/557 558/558/558
v -0.053204840 -0.513000000 2.227439546
vt 0.003906250 0.507812500
vn 0.547722558 -0.707106781 0.447213596
v -0.062500000 -0.525000000 2.219850079
vt 0.246093750 0.507812500
vn 0.547722558 -0.707106781 0.447213596
v -0.046875000 -0.525000000 2.200713441
vt 0.246093750 0.992187500
vn 0.547722558 -0.707106781 0.447213596
f 559/559/559 560/560/560 561/561/561
v -0.053204840 -0.513000000 2.227439546
vt 0.003906250 0.507812500
vn 0.547722558 -0.707106781 0.447213596
v -0.046875000 -0.525000000 2.200713441
vt 0.246093750 0.992187500
vn 0.547722558 -0.707106781 0.447213596
v -0.037579840 -0.513000000 2.208302907
vt 0.003906250 0.992187500
vn 0.547722558 -0.707106781 0.447213596
f 562/562/562 563/563/563 564/564/564
o conduit_end
v -0.053204840 -0.513000000 2.227439546
vt 0.003906250 0.507812500
vn -0.632455532 0.000000000 0.774596669
v -0.062500000 -0.501000000 2.219850079
vt 0.246093750 0.507812500
vn -0.632455532 0.000000000 0.774596669
v -0.071795160 -0.513000000 2.212260613
vt 0.246093750 0.992187500
vn -0.632455532 0.000000000 0.774596669
f 565/565/565 566/566/566 567/567/567
v -0.053204840 -0.513000000 2.227439546
vt 0.003906250 0.507812500
vn -0.632455532 -0.000000000 0.774596669
v -0.071795160 -0.513000000 2.212260613
vt 0.246093750 0.992187500
vn -0.632455532 -0.000000000 0.774596669
v -0.062500000 -0.525000000 2.219850079
vt 0.003906250 0.992187500
vn -0.632455532 -0.000000000 0.774596669
f 568/568/568 569/569/569 570/570/570
v -0.046875000 -0.525000000 2.200713441
vt 0.003906250 0.507812500
vn 0.632455532 0.000000000 -0.774596669
v -0.056170160 -0.513000000 2.193123974
vt 0.246093750 0.507812500
vn 0.632455532 0.000000000 -0.774596669
v -0.046875000 -0.501000000 2.200713441
vt 0.246093750 0.992187500
vn 0.632455532 0.000000000 -0.774596669
f 571/571/571 572/572/572 573/573/573
v -0.046875000 -0.525000000 2.200713441
vt 0.003906250 0.507812500
vn 0.632455532 0.000000000 -0.774596669
v -0.046875000 -0.501000000 2.200713441
vt 0.246093750 0.992187500
vn 0.632455532 0.000000000 -0.774596669
v -0.037579840 -0.513000000 2.208302907
vt 0.003906250 0.992187500
vn 0.632455532 0.000000000 -0.774596669
f 574/574/574 575/575/575 576/576/576
o conduit
v -0.046875000 -0.525000000 2.200713441
vt 0.003906250 0.507812500
vn 0.071795816 -0.707106781 -0.703452458
v -0.045656585 -0.513000000 2.188775457
vt 0.246093750 0.507812500
vn 0.071795816 -0.707106781 -0.703452458
v 0.016843415 -0.513000000 2.195154336
vt 0.246093750 0.992187500
vn 0.071795816 -0.707106781 -0.703452458
f 577/577/577 578/578/578 579/579/579
v -0.046875000 -0.525000000 2.200713441
vt 0.003906250 0.507812500
vn 0.071795816 -0.707106781 -0.703452458
v 0.016843415 -0.513000000 2.195154336
vt 0.246093750 0.992187500
vn 0.071795816 -0.707106781 -0.703452458
v 0.015625000 -0.525000000 2.207092320
vt 0.003906250 0.992187500
vn 0.071795816 -0.707106781 -0.703452458
f 580/580/580 581/581/581 582/582/582
v -0.045656585 -0.513000000 2.188775457
vt 0.003906250 0.507812500
vn 0.071795816 0.707106781 -0.703452458
v -0.046875000 -0.501000000 2.200713441
vt 0.246093750 0.507812500
vn 0.071795816 0.707106781 -0.703452458
v 0.015625000 -0.501000000 2.207092320
vt 0.246093750 0.992187500
vn 0.071795816 0.707106781 -0.703452458
f 583/583/583 584/584/584 585/585/585
v -0.045656585 -0.513000000 2.188775457
vt 0.003906250 0.507812500
vn 0.071795816 0.707106781 -0.703452458
v 0.015625000 -0.501000000 2.207092320
vt 0.246093750 0.992187500
vn 0.071795816 0.707106781 -0.703452458
v 0.016843415 -0.513000000 2.195154336
vt 0.003906250 0.992187500
vn 0.071795816 0.707106781 -0.703452458
f 586/586/586 587/587/587 588/588/588
v -0.046875000 -0.501000000 2.200713441
vt 0.003906250 0.507812500
vn -0.071795816 0.707106781 0.703452458
v -0.048093415 -0.513000000 2.212651425
vt 0.246093750 0.507812500
vn -0.071795816 0.707106781 0.703452458
v 0.014406585 -0.513000000 2.219030304
vt 0.246093750 0.992187500
vn -0.071795816 0.707106781 0.703452458
f 589/589/589 590/590/590 591/591/591
v -0.046875000 -0.501000000 2.200713441
vt 0.003906250 0.507812500
vn -0.071795816 0.707106781 0.703452458
v 0.014406585 -0.513000000 2.219030304
vt 0.246093750 0.992187500
vn -0.071795816 0.707106781 0.703452458
v 0.015625000 -0.501000000 2.207092320
vt 0.003906250 0.992187500
vn -0.071795816 0.707106781 0.703452458
f 592/592/592 593/593/593 594/594/594
v -0.048093415 -0.513000000 2.212651425
vt 0.003906250 0.507812500
vn -0.071795816 -0.707106781 0.703452458
v -0.046875000 -0.525000000 2.200713441
vt 0.246093750 0.507812500
vn -0.071795816 -0.707106781 0.703452458
v 0.015625000 -0.525000000 2.207092320
vt 0.246093750 0.992187500
vn -0.071795816 -0.707106781 0.703452458
f 595/595/595 596/596/596 597/597/597
v -0.048093415 -0.513000000 2.212651425
vt 0.003906250 0.507812500
vn -0.071795816 -0.707106781 0.703452458
v 0.015625000 -0.525000000 2.207092320
vt 0.246093750 0.992187500
vn -0.071795816 -0.707106781 0.703452458
v 0.014406585 -0.513000000 2.219030304
vt 0.003906250 0.992187500
vn -0.071795816 -0.707106781 0.703452458
f 598/598/598 599/599/599 600/600/600
o conduit_end
v -0.048093415 -0.513000000 2.212651425
vt 0.003906250 0.507812500
vn -0.994832007 0.000000000 -0.101534617
v -0.046875000 -0.501000000 2.200713441
vt 0.246093750 0.507812500
vn -0.994832007 0.000000000 -0.101534617
v -0.045656585 -0.513000000 2.188775457
vt 0.246093750 0.992187500
vn -0.994832007 0.000000000 -0.101534617
f 601/601/601 602/602/602 603/603/603
v -0.048093415 -0.513000000 2.212651425
vt 0.003906250 0.507812500
vn -0.994832007 0.000000000 -0.101534617
v -0.045656585 -0.513000000 2.188775457
vt 0.246093750 0.992187500
vn -0.994832007 0.000000000 -0.101534617
v -0.046875000 -0.525000000 2.200713441
vt 0.003906250 0.992187500
vn -0.994832007 0.000000000 -0.101534617
f 604/604/604 605/605/605 606/606/606
v 0.015625000 -0.525000000 2.207092320
vt 0.003906250 0.507812500
vn 0.994832007 -0.000000000 0.101534617
v 0.016843415 -0.513000000 2.195154336
vt 0.246093750 0.507812500
vn 0.994832007 -0.000000000 0.101534617
v 0.015625000 -0.501000000 2.207092320
vt 0.246093750 0.992187500
vn 0.994832007 -0.000000000 0.101534617
f 607/607/607 608/608/608 609/609/609
v 0.015625000 -0.525000000 2.207092320
vt 0.003906250 0.507812500
vn 0.994832007 -0.000000000 0.101534617
v 0.015625000 -0.501000000 2.207092320
vt 0.246093750 0.992187500
vn 0.994832007 -0.000000000 0.101534617
v 0.014406585 -0.513000000 2.219030304
vt 0.003906250 0.992187500
vn 0.994832007 -0.000000000 0.101534617
f 610/610/610 611/611/611 612/612/612
o conduit
v 0.015625000 -0.525000000 2.207092320
vt 0.003906250 0.507812500
vn -0.321412173 -0.707106781 -0.629836657
v 0.010170455 -0.513000000 2.196403638
vt 0.246093750 0.507812500
vn -0.321412173 -0.707106781 -0.629836657
v 0.072670455 -0.513000000 2.164509240
vt 0.246093750 0.992187500
vn -0.321412173 -0.707106781 -0.629836657
f 613/613/613 614/614/614 615/615/615
v 0.015625000 -0.525000000 2.207092320
vt 0.003906250 0.507812500
vn -0.321412173 -0.707106781 -0.629836657
v 0.072670455 -0.513000000 2.164509240
vt 0.246093750 0.992187500
vn -0.321412173 -0.707106781 -0.629836657
v 0.078125000 -0.525000000 2.175197923
vt 0.003906250 0.992187500
vn -0.321412173 -0.707106781 -0.629836657
f 616/616/616 617/617/617 618/618/618
v 0.010170455 -0.513000000 2.196403638
vt 0.003906250 0.507812500
vn -0.321412173 0.707106781 -0.629836657
v 0.015625000 -0.501000000 2.207092320
vt 0.246093750 0.507812500
vn -0.321412173 0.707106781 -0.629836657
v 0.078125000 -0.501000000 2.175197923
vt 0.246093750 0.992187500
vn -0.321412173 0.707106781 -0.629836657
f 619/619/619 620/620/620 621/621/621
v 0.010170455 -0.513000000 2.196403638
vt 0.003906250 0.507812500
vn -0.321412173 0.707106781 -0.629836657
v 0.078125000 -0.501000000 2.175197923
vt 0.246093750 0.992187500
vn -0.321412173 0.707106781 -0.629836657
v 0.072670455 -0.513000000 2.164509240
vt 0.003906250 0.992187500
vn -0.321412173 0.707106781 -0.629836657
f 622/622/622 623/623/623 624/624/624
v 0.015625000 -0.501000000 2.207092320
vt 0.003906250 0.507812500
vn 0.321412173 0.707106781 0.629836657
v 0.021079545 -0.513000000 2.217781003
vt 0.246093750 0.507812500
vn 0.321412173 0.707106781 0.629836657
v 0.083579545 -0.513000000 2.185886605
vt 0.246093750 0.992187500
vn 0.321412173 0.707106781 0.629836657
f 625/625/625 626/626/626 627/627/627
v 0.015625000 -0.501000000 2.207092320
vt 0.003906250 0.507812500
vn 0.321412173 0.707106781 0.629836657
v 0.083579545 -0.513000000 2.185886605
vt 0.246093750 0.992187500
vn 0.321412173 0.707106781 0.629836657
v 0.078125000 -0.501000000 2.175197923
vt 0.003906250 0.992187500
vn 0.321412173 0.707106781 0.629836657
f 628/628/628 629/629/629 630/630/630
v 0.021079545 -0.513000000 2.217781003
vt 0.003906250 0.507812500
vn 0.321412173 -0.707106781 0.629836657
v 0.015625000 -0.525000000 2.207092320
vt 0.246093750 0.507812500
vn 0.321412173 -0.707106781 0.629836657
v 0.078125000 -0.525000000 2.175197923
vt 0.246093750 0.992187500
vn 0.321412173 -0.707106781 0.629836657
f 631/631/631 632/632/632 633/633/633
v 0.021079545 -0.513000000 2.217781003
vt 0.003906250 0.507812500
vn 0.321412173 -0.707106781 0.629836657
v 0.078125000 -0.525000000 2.175197923
vt 0.246093750 0.992187500
vn 0.321412173 -0.707106781 0.629836657
v 0.083579545 -0.513000000 2.185886605
vt 0.003906250 0.992187500
vn 0.321412173 -0.707106781 0.629836657
f 634/634/634 635/635/635 636/636/636
o conduit_end
v 0.021079545 -0.513000000 2.217781003
vt 0.003906250 0.507812500
vn -0.890723543 -0.000000000 0.454545455
v 0.015625000 -0.501000000 2.207092320
vt 0.246093750 0.507812500
vn -0.890723543 -0.000000000 0.454545455
v 0.010170455 -0.513000000 2.196403638
vt 0.246093750 0.992187500
vn -0.890723543 -0.000000000 0.454545455
f 637/637/637 638/638/638 639/639/639
v 0.021079545 -0.513000000 2.217781003
vt 0.003906250 0.507812500
vn -0.890723543 0.000000000 0.454545455
v 0.010170455 -0.513000000 2.196403638
vt 0.246093750 0.992187500
vn -0.890723543 0.000000000 0.454545455
v 0.015625000 -0.525000000 2.207092320
vt 0.003906250 0.992187500
vn -0.890723543 0.000000000 0.454545455
f 640/640/640 641/641/641 642/642/642
v 0.078125000 -0.525000000 2.175197923
vt 0.003906250 0.507812500
vn 0.890723543 0.000000000 -0.454545455
v 0.072670455 -0.513000000 2.164509240
vt 0.246093750 0.507812500
vn 0.890723543 0.000000000 -0.454545455
v 0.078125000 -0.501000000 2.175197923
vt 0.246093750 0.992187500
vn 0.890723543 0.000000000 -0.454545455
f 643/643/643 644/644/644 645/645/645
v 0.078125000 -0.525000000 2.175197923
vt 0.003906250 0.507812500
vn 0.890723543 0.000000000 -0.454545455
v 0.078125000 -0.501000000 2.175197923
vt 0.246093750 0.992187500
vn 0.890723543 0.000000000 -0.454545455
v 0.083579545 -0.513000000 2.185886605
vt 0.003906250 0.992187500
vn 0.890723543 0.000000000 -0.454545455
f 646/646/646 647/647/647 648/648/648
o conduit
v 0.078125000 -0.525000000 2.175197923
vt 0.003906250 0.507812500
vn 0.447213595 -0.707106781 -0.547722558
v 0.085714466 -0.513000000 2.165902763
vt 0.246093750 0.507812500
vn 0.447213595 -0.707106781 -0.547722558
v 0.101339466 -0.513000000 2.178660522
vt 0.246093750 0.992187500
vn 0.447213595 -0.707106781 -0.547722558
f 649/649/649 650/650/650 651/651/651
v 0.078125000 -0.525000000 2.175197923
vt 0.003906250 0.507812500
vn 0.447213595 -0.707106781 -0.547722558
v 0.101339466 -0.513000000 2.178660522
vt 0.246093750 0.992187500
vn 0.447213595 -0.707106781 -0.547722558
v 0.093750000 -0.525000000 2.187955682
vt 0.003906250 0.992187500
vn 0.447213595 -0.707106781 -0.547722558
f 652/652/652 653/653/653 654/654/654
v 0.085714466 -0.513000000 2.165902763
vt 0.003906250 0.507812500
vn 0.447213595 0.707106781 -0.547722558
v 0.078125000 -0.501000000 2.175197923
vt 0.246093750 0.507812500
vn 0.447213595 0.707106781 -0.547722558
v 0.093750000 -0.501000000 2.187955682
vt 0.246093750 0.992187500
vn 0.447213595 0.707106781 -0.547722558
f 655/655/655 656/656/656 657/657/657
v 0.085714466 -0.513000000 2.165902763
vt 0.003906250 0.507812500
vn 0.447213595 0.707106781 -0.547722558
v 0.093750000 -0.501000000 2.187955682
vt 0.246093750 0.992187500
vn 0.447213595 0.707106781 -0.547722558
v 0.101339466 -0.513000000 2.178660522
vt 0.003906250 0.992187500
vn 0.447213595 0.707106781 -0.547722558
f 658/658/658 659/659/659 660/660/660
v 0.078125000 -0.501000000 2.175197923
vt 0.003906250 0.507812500
vn -0.447213595 0.707106781 0.547722558
v 0.070535534 -0.513000000 2.184493083
vt 0.246093750 0.507812500
vn -0.447213595 0.707106781 0.547722558
v 0.086160534 -0.513000000 2.197250842
vt 0.246093750 0.992187500
vn -0.447213595 0.707106781 0.547722558
f 661/661/661 662/662/662 663/663/663
v 0.078125000 -0.501000000 2.175197923
vt 0.003906250 0.507812500
vn -0.447213595 0.707106781 0.547722558
v 0.086160534 -0.513000000 2.197250842
vt 0.246093750 0.992187500
vn -0.447213595 0.707106781 0.547722558
v 0.093750000 -0.501000000 2.187955682
vt 0.003906250 0.992187500
vn -0.447213595 0.707106781 0.547722558
f 664/664/664 665/665/665 666/666/666
v 0.070535534 -0.513000000 2.184493083
vt 0.003906250 0.507812500
vn -0.447213595 -0.707106781 0.547722558
v 0.078125000 -0.525000000 2.175197923
vt 0.246093750 0.507812500
vn -0.447213595 -0.707106781 0.547722558
v 0.093750000 -0.525000000 2.187955682
vt 0.246093750 0.992187500
vn -0.447213595 -0.707106781 0.547722558
f 667/667/667 668/668/668 669/669/669
v 0.070535534 -0.513000000 2.184493083
vt 0.003906250 0.507812500
vn -0.447213595 -0.707106781 0.547722558
v 0.093750000 -0.525000000 2.187955682
vt 0.246093750 0.992187500
vn -0.447213595 -0.707106781 0.547722558
v 0.086160534 -0.513000000 2.197250842
vt 0.003906250 0.992187500
vn -0.447213595 -0.707106781 0.547722558
f 670/670/670 671/671/671 672/672/672
o conduit_end
v 0.070535534 -0.513000000 2.184493083
vt 0.003906250 0.507812500
vn -0.774596669 0.000000000 -0.632455532
v 0.078125000 -0.501000000 2.175197923
vt 0.246093750 0.507812500
vn -0.774596669 0.000000000 -0.632455532
v 0.085714466 -0.513000000 2.165902763
vt 0.246093750 0.992187500
vn -0.774596669 0.000000000 -0.632455532
f 673/673/673 674/674/674 675/675/675
v 0.070535534 -0.513000000 2.184493083
vt 0.003906250 0.507812500
vn -0.774596669 0.000000000 -0.632455532
v 0.085714466 -0.513000000 2.165902763
vt 0.246093750 0.992187500
vn -0.774596669 0.000000000 -0.632455532
v 0.078125000 -0.525000000 2.175197923
vt 0.003906250 0.992187500
vn -0.774596669 0.000000000 -0.632455532
f 676/676/676 677/677/677 678/678/678
v 0.093750000 -0.525000000 2.187955682
vt 0.003906250 0.507812500
vn 0.774596669 -0.000000000 0.632455532
v 0.101339466 -0.513000000 2.178660522
vt 0.246093750 0.507812500
vn 0.774596669 -0.000000000 0.632455532
v 0.093750000 -0.501000000 2.187955682
vt 0.246093750 0.992187500
vn 0.774596669 -0.000000000 0.632455532
f 679/679/679 680/680/680 681/681/681
v 0.093750000 -0.525000000 2.187955682
vt 0.003906250 0.507812500
vn 0.774596669 -0.000000000 0.632455532
v 0.093750000 -0.501000000 2.187955682
vt 0.246093750 0.992187500
vn 0.774596669 -0.000000000 0.632455532
v 0.086160534 -0.513000000 2.197250842
vt 0.003906250 0.992187500
vn 0.774596669 -0.000000000 0.632455532
f 682/682/682 683/683/683 684/684/684
o conduit
v -0.433874484 -0.534000000 2.183060186
vt 0.253906250 0.007812500
vn 0.006560516 -0.707106781 -0.707076346
v -0.433679646 -0.513000000 2.162061090
vt 0.496093750 0.007812500
vn 0.006560516 -0.707106781 -0.707076346
v -0.409680679 -0.513000000 2.162283762
vt 0.496093750 0.492187500
vn 0.006560516 -0.707106781 -0.707076346
f 685/685/685 686/686/686 687/687/687
v -0.433874484 -0.534000000 2.183060186
vt 0.253906250 0.007812500
vn 0.006560516 -0.707106781 -0.707076346
v -0.409680679 -0.513000000 2.162283762
vt 0.496093750 0.492187500
vn 0.006560516 -0.707106781 -0.707076346
v -0.409875516 -0.534000000 2.183282858
vt 0.253906250 0.492187500
vn 0.006560516 -0.707106781 -0.707076346
f 688/688/688 689/689/689 690/690/690
v -0.433679646 -0.513000000 2.162061090
vt 0.253906250 0.007812500
vn 0.006560516 0.707106781 -0.707076346
v -0.433874484 -0.492000000 2.183060186
vt 0.496093750 0.007812500
vn 0.006560516 0.707106781 -0.707076346
v -0.409875516 -0.492000000 2.183282858
vt 0.496093750 0.492187500
vn 0.006560516 0.707106781 -0.707076346
f 691/691/691 692/692/692 693/693/693
v -0.433679646 -0.513000000 2.162061090
vt 0.253906250 0.007812500
vn 0.006560516 0.707106781 -0.707076346
v -0.409875516 -0.492000000 2.183282858
vt 0.496093750 0.492187500
vn 0.006560516 0.707106781 -0.707076346
v -0.409680679 -0.513000000 2.162283762
vt 0.253906250 0.492187500
vn 0.006560516 0.707106781 -0.707076346
f 694/694/694 695/695/695 696/696/696
v -0.433874484 -0.492000000 2.183060186
vt 0.253906250 0.007812500
vn -0.006560516 0.707106781 0.707076346
v -0.434069321 -0.513000000 2.204059283
vt 0.496093750 0.007812500
vn -0.006560516 0.707106781 0.707076346
v -0.410070354 -0.513000000 2.204281954
vt 0.496093750 0.492187500
vn -0.006560516 0.707106781 0.707076346
f 697/697/697 698/698/698 699/699/699
v -0.433874484 -0.492000000 2.183060186
vt 0.253906250 0.007812500
vn -0.006560516 0.707106781 0.707076346
v -0.410070354 -0.513000000 2.204281954
vt 0.496093750 0.492187500
vn -0.006560516 0.707106781 0.707076346
v -0.409875516 -0.492000000 2.183282858
vt 0.253906250 0.492187500
vn -0.006560516 0.707106781 0.707076346
f 700/700/700 701/701/701 702/702/702
v -0.434069321 -0.513000000 2.204059283
vt 0.253906250 0.007812500
vn -0.006560516 -0.707106781 0.707076346
v -0.433874484 -0.534000000 2.183060186
vt 0.496093750 0.007812500
vn -0.006560516 -0.707106781 0.707076346
v -0.409875516 -0.534000000 2.183282858
vt 0.496093750 0.492187500
vn -0.006560516 -0.707106781 0.707076346
f 703/703/703 704/704/704 705/705/705
v -0.434069321 -0.513000000 2.204059283
vt 0.253906250 0.007812500
vn -0.006560516 -0.707106781 0.707076346
v -0.409875516 -0.534000000 2.183282858
vt 0.496093750 0.492187500
vn -0.006560516 -0.707106781 0.707076346
v -0.410070354 -0.513000000 2.204281954
vt 0.253906250 0.492187500
vn -0.006560516 -0.707106781 0.707076346
f 706/706/706 707/707/707 708/708/708
o conduit_end
v -0.434069321 -0.513000000 2.204059283
vt 0.253906250 0.007812500
vn -0.999956959 0.000000000 -0.009277971
v -0.433874484 -0.492000000 2.183060186
vt 0.496093750 0.007812500
vn -0.999956959 0.000000000 -0.009277971
v -0.433679646 -0.513000000 2.162061090
vt 0.496093750 0.492187500
vn -0.999956959 0.000000000 -0.009277971
f 709/709/709 710/710/710 711/711/711
v -0.434069321 -0.513000000 2.204059283
vt 0.253906250 0.007812500
vn -0.999956959 0.000000000 -0.009277971
v -0.433679646 -0.513000000 2.162061090
vt 0.496093750 0.492187500
vn -0.999956959 0.000000000 -0.009277971
v -0.433874484 -0.534000000 2.183060186
vt 0.253906250 0.492187500
vn -0.999956959 0.000000000 -0.009277971
f 712/712/712 713/713/713 714/714/714
v -0.409875516 -0.534000000 2.183282858
vt 0.253906250 0.007812500
vn 0.999956959 -0.000000000 0.009277971
v -0.409680679 -0.513000000 2.162283762
vt 0.496093750 0.007812500
vn 0.999956959 -0.000000000 0.009277971
v -0.409875516 -0.492000000 2.183282858
vt 0.496093750 0.492187500
vn 0.999956959 -0.000000000 0.009277971
f 715/715/715 716/716/716 717/717/717
v -0.409875516 -0.534000000 2.183282858
vt 0.253906250 0.007812500
vn 0.999956959 -0.000000000 0.009277971
v -0.409875516 -0.492000000 2.183282858
vt 0.496093750 0.492187500
vn 0.999956959 -0.000000000 0.009277971
v -0.410070354 -0.513000000 2.204281954
vt 0.253906250 0.492187500
vn 0.999956959 -0.000000000 0.009277971
f 718/718/718 719/719/719 720/720/720
o conduit
v -0.090124484 -0.534000000 2.186249626
vt 0.253906250 0.007812500
vn 0.006560516 -0.707106781 -0.707076346
v -0.089929646 -0.513000000 2.165250530
vt 0.496093750 0.007812500
vn 0.006560516 -0.707106781 -0.707076346
v -0.065930679 -0.513000000 2.165473201
vt 0.496093750 0.492187500
vn 0.006560516 -0.707106781 -0.707076346
f 721/721/721 722/722/722 723/723/723
v -0.090124484 -0.534000000 2.186249626
vt 0.253906250 0.007812500
vn 0.006560516 -0.707106781 -0.707076346
v -0.065930679 -0.513000000 2.165473201
vt 0.496093750 0.492187500
vn 0.006560516 -0.707106781 -0.707076346
v -0.066125516 -0.534000000 2.186472297
vt 0.253906250 0.492187500
vn 0.006560516 -0.707106781 -0.707076346
f 724/724/724 725/725/725 726/726/726
v -0.089929646 -0.513000000 2.165250530
vt 0.253906250 0.007812500
vn 0.006560516 0.707106781 -0.707076346
v -0.090124484 -0.492000000 2.186249626
vt 0.496093750 0.007812500
vn 0.006560516 0.707106781 -0.707076346
v -0.066125516 -0.492000000 2.186472297
vt 0.496093750 0.492187500
vn 0.006560516 0.707106781 -0.707076346
f 727/727/727 728/728/728 729/729/729
v -0.089929646 -0.513000000 2.165250530
vt 0.253906250 0.007812500
vn 0.006560516 0.707106781 -0.707076346
v -0.066125516 -0.492000000 2.186472297
vt 0.496093750 0.492187500
vn 0.006560516 0.707106781 -0.707076346
v -0.065930679 -0.513000000 2.165473201
vt 0.253906250 0.492187500
vn 0.006560516 0.707106781 -0.707076346
f 730/730/730 731/731/731 732/732/732
v -0.090124484 -0.492000000 2.186249626
vt 0.253906250 0.007812500
vn -0.006560516 0.707106781 0.707076346
v -0.090319321 -0.513000000 2.207248722
vt 0.496093750 0.007812500
vn -0.006560516 0.707106781 0.707076346
v -0.066320354 -0.513000000 2.207471394
vt 0.496093750 0.492187500
vn -0.006560516 0.707106781 0.707076346
f 733/733/733 734/734/734 735/735/735
v -0.090124484 -0.492000000 2.186249626
vt 0.253906250 0.007812500
vn -0.006560516 0.707106781 0.707076346
v -0.066320354 -0.513000000 2.207471394
vt 0.496093750 0.492187500
vn -0.006560516 0.707106781 0.707076346
v -0.066125516 -0.492000000 2.186472297
vt 0.253906250 0.492187500
vn -0.006560516 0.707106781 0.707076346
f 736/736/736 737/737/737 738/738/738
v -0.090319321 -0.513000000 2.207248722
vt 0.253906250 0.007812500
vn -0.006560516 -0.707106781 0.707076346
v -0.090124484 -0.534000000 2.186249626
vt 0.496093750 0.007812500
vn -0.006560516 -0.707106781 0.707076346
v -0.066125516 -0.534000000 2.186472297
vt 0.496093750 0.492187500
vn -0.006560516 -0.707106781 0.707076346
f 739/739/739 740/740/740 741/741/741
v -0.090319321 -0.513000000 2.207248722
vt 0.253906250 0.007812500
vn -0.006560516 -0.707106781 0.707076346
v -0.066125516 -0.534000000 2.186472297
vt 0.496093750 0.492187500
vn -0.006560516 -0.707106781 0.707076346
v -0.066320354 -0.513000000 2.207471394
vt 0.253906250 0.492187500
vn -0.006560516 -0.707106781 0.707076346
f 742/742/742 743/743/743 744/744/744
o conduit_end
v -0.090319321 -0.513000000 2.207248722
vt 0.253906250 0.007812500
vn -0.999956959 0.000000000 -0.009277971
v -0.090124484 -0.492000000 2.186249626
vt 0.496093750 0.007812500
vn -0.999956959 0.000000000 -0.009277971
v -0.089929646 -0.513000000 2.165250530
vt 0.496093750 0.492187500
vn -0.999956959 0.000000000 -0.009277971
f 745/745/745 746/746/746 747/747/747
v -0.090319321 -0.513000000 2.207248722
vt 0.253906250 0.007812500
vn -0.999956959 0.000000000 -0.009277971
v -0.089929646 -0.513000000 2.165250530
vt 0.496093750 0.492187500
vn -0.999956959 0.000000000 -0.009277971
v -0.090124484 -0.534000000 2.186249626
vt 0.253906250 0.492187500
vn -0.999956959 0.000000000 -0.009277971
f 748/748/748 749/749/749 750/750/750
v -0.066125516 -0.534000000 2.186472297
vt 0.253906250 0.007812500
vn 0.999956959 -0.000000000 0.009277971
v -0.065930679 -0.513000000 2.165473201
vt 0.496093750 0.007812500
vn 0.999956959 -0.000000000 0.009277971
v -0.066125516 -0.492000000 2.186472297
vt 0.496093750 0.492187500
vn 0.999956959 -0.000000000 0.009277971
f 751/751/751 752/752/752 753/753/753
v -0.066125516 -0.534000000 2.186472297
vt 0.253906250 0.007812500
vn 0.999956959 -0.000000000 0.009277971
v -0.066125516 -0.492000000 2.186472297
vt 0.496093750 0.492187500
vn 0.999956959 -0.000000000 0.009277971
v -0.066320354 -0.513000000 2.207471394
vt 0.253906250 0.492187500
vn 0.999956959 -0.000000000 0.009277971
f 754/754/754 755/755/755 756/756/756
