mtllib pz_native_fixtures_windows_white_4.mtl
o pz_native_fixtures_windows_white_4_glass
usemtl Native_pz_native_fixtures_windows_white_4
v -0.49400000 0.26562500 2.43673198
v -0.49400000 -0.64062500 2.43673198
v -0.49400000 -0.64062500 -0.10206207
v -0.49400000 0.26562500 -0.10206207
vt 0.500000000 0.992187500
vt 0.953125000 0.992187500
vt 0.953125000 0.214843750
vt 0.500000000 0.214843750
vn 1.00000000 0.00000000 0.00000000
f 1/1/1 2/2/1 3/3/1
f 1/1/1 3/3/1 4/4/1
v -0.49300000 0.26562500 -0.10206207
v -0.49300000 -0.64062500 -0.10206207
v -0.49300000 -0.64062500 2.43673198
v -0.49300000 0.26562500 2.43673198
vt 0.500000000 0.214843750
vt 0.953125000 0.214843750
vt 0.953125000 0.992187500
vt 0.500000000 0.992187500
vn -1.00000000 0.00000000 0.00000000
f 5/5/2 6/6/2 7/7/2
f 5/5/2 7/7/2 8/8/2
