mtllib pz_native_fixtures_windows_wood_111.mtl
o pz_native_fixtures_windows_wood_111_glass
usemtl Native_pz_native_fixtures_windows_wood_111
v -0.65625000 -0.50600000 2.87049579
v 0.51562500 -0.50600000 2.87049579
v 0.51562500 -0.50600000 -0.10206207
v -0.65625000 -0.50600000 -0.10206207
vt 0.316406250 0.992187500
vt 0.609375000 0.992187500
vt 0.609375000 0.082031250
vt 0.316406250 0.082031250
vn -0.00000000 1.00000000 0.00000000
f 1/1/1 2/2/1 3/3/1
f 1/1/1 3/3/1 4/4/1
v -0.65625000 -0.50700000 -0.10206207
v 0.51562500 -0.50700000 -0.10206207
v 0.51562500 -0.50700000 2.87049579
v -0.65625000 -0.50700000 2.87049579
vt 0.316406250 0.082031250
vt 0.609375000 0.082031250
vt 0.609375000 0.992187500
vt 0.316406250 0.992187500
vn 0.00000000 -1.00000000 0.00000000
f 5/5/2 6/6/2 7/7/2
f 5/5/2 7/7/2 8/8/2
