mtllib pz_native_fixtures_windows_church_114.mtl
o pz_native_fixtures_windows_church_114_frame
usemtl Native_pz_native_fixtures_windows_church_114
v -0.50000000 0.39062500 2.11778801
v -0.50000000 -0.48437500 2.11778801
v -0.50000000 -0.48437500 0.75270779
v -0.50000000 0.39062500 0.75270779
vt 0.015625000 0.984375000
vt 0.453125000 0.984375000
vt 0.453125000 0.148437500
vt 0.015625000 0.148437500
vn 1.00000000 0.00000000 0.00000000
f 1/1/1 2/2/1 3/3/1
f 1/1/1 3/3/1 4/4/1
v -0.46000000 0.39062500 0.75270779
v -0.46000000 -0.48437500 0.75270779
v -0.46000000 -0.48437500 2.11778801
v -0.46000000 0.39062500 2.11778801
vt 0.015625000 0.148437500
vt 0.453125000 0.148437500
vt 0.453125000 0.984375000
vt 0.015625000 0.984375000
vn -1.00000000 0.00000000 0.00000000
f 5/5/2 6/6/2 7/7/2
f 5/5/2 7/7/2 8/8/2
v -0.46000000 0.03125000 2.09227249
v -0.46000000 -0.10937500 2.09227249
v -0.50000000 -0.10937500 2.09227249
v -0.50000000 0.03125000 2.09227249
vt 0.019531250 0.105468750
vt 0.042968750 0.105468750
vt 0.042968750 0.128906250
vt 0.019531250 0.128906250
vn 0.00000000 -0.00000000 -1.00000000
f 9/9/3 10/10/3 11/11/3
f 9/9/3 11/11/3 12/12/3
v -0.46000000 -0.10937500 2.09227249
v -0.46000000 -0.23437500 2.04124145
v -0.50000000 -0.23437500 2.04124145
v -0.50000000 -0.10937500 2.09227249
vt 0.050781250 0.105468750
vt 0.074218750 0.105468750
vt 0.074218750 0.128906250
vt 0.050781250 0.128906250
vn 0.00000000 0.37796447 -0.92582010
f 13/13/4 14/14/4 15/15/4
f 13/13/4 15/15/4 16/16/4
v -0.46000000 -0.23437500 2.04124145
v -0.46000000 -0.39062500 1.91366386
v -0.50000000 -0.39062500 1.91366386
v -0.50000000 -0.23437500 2.04124145
vt 0.082031250 0.105468750
vt 0.105468750 0.105468750
vt 0.105468750 0.128906250
vt 0.082031250 0.128906250
vn 0.00000000 0.63245553 -0.77459667
f 17/17/5 18/18/5 19/19/5
f 17/17/5 19/19/5 20/20/5
v -0.46000000 -0.39062500 1.91366386
v -0.46000000 -0.45312500 1.81160179
v -0.50000000 -0.45312500 1.81160179
v -0.50000000 -0.39062500 1.91366386
vt 0.113281250 0.105468750
vt 0.136718750 0.105468750
vt 0.136718750 0.128906250
vt 0.113281250 0.128906250
vn 0.00000000 0.85280287 -0.52223297
f 21/21/6 22/22/6 23/23/6
f 21/21/6 23/23/6 24/24/6
v -0.46000000 -0.45312500 1.81160179
v -0.46000000 -0.46875000 0.77822330
v -0.50000000 -0.46875000 0.77822330
v -0.50000000 -0.45312500 1.81160179
vt 0.144531250 0.105468750
vt 0.167968750 0.105468750
vt 0.167968750 0.128906250
vt 0.144531250 0.128906250
vn 0.00000000 0.99988571 -0.01511858
f 25/25/7 26/26/7 27/27/7
f 25/25/7 27/27/7 28/28/7
v -0.46000000 -0.46875000 0.77822330
v -0.46000000 -0.43750000 0.76546554
v -0.50000000 -0.43750000 0.76546554
v -0.50000000 -0.46875000 0.77822330
vt 0.175781250 0.105468750
vt 0.199218750 0.105468750
vt 0.199218750 0.128906250
vt 0.175781250 0.128906250
vn 0.00000000 0.37796447 0.92582010
f 29/29/8 30/30/8 31/31/8
f 29/29/8 31/31/8 32/32/8
v -0.46000000 -0.43750000 0.76546554
v -0.46000000 0.29687500 0.76546554
v -0.50000000 0.29687500 0.76546554
v -0.50000000 -0.43750000 0.76546554
vt 0.207031250 0.105468750
vt 0.230468750 0.105468750
vt 0.230468750 0.128906250
vt 0.207031250 0.128906250
vn 0.00000000 -0.00000000 1.00000000
f 33/33/9 34/34/9 35/35/9
f 33/33/9 35/35/9 36/36/9
v -0.46000000 0.29687500 0.76546554
v -0.46000000 0.37500000 0.82925434
v -0.50000000 0.37500000 0.82925434
v -0.50000000 0.29687500 0.76546554
vt 0.238281250 0.105468750
vt 0.261718750 0.105468750
vt 0.261718750 0.128906250
vt 0.238281250 0.128906250
vn 0.00000000 -0.63245553 0.77459667
f 37/37/10 38/38/10 39/39/10
f 37/37/10 39/39/10 40/40/10
v -0.46000000 0.37500000 0.82925434
v -0.46000000 0.35937500 1.79884403
v -0.50000000 0.35937500 1.79884403
v -0.50000000 0.37500000 0.82925434
vt 0.269531250 0.105468750
vt 0.292968750 0.105468750
vt 0.292968750 0.128906250
vt 0.269531250 0.128906250
vn 0.00000000 -0.99987018 -0.01611297
f 41/41/11 42/42/11 43/43/11
f 41/41/11 43/43/11 44/44/11
v -0.46000000 0.35937500 1.79884403
v -0.46000000 0.25000000 1.99021042
v -0.50000000 0.25000000 1.99021042
v -0.50000000 0.35937500 1.79884403
vt 0.300781250 0.105468750
vt 0.324218750 0.105468750
vt 0.324218750 0.128906250
vt 0.300781250 0.128906250
vn 0.00000000 -0.86819862 -0.49621684
f 45/45/12 46/46/12 47/47/12
f 45/45/12 47/47/12 48/48/12
v -0.46000000 0.25000000 1.99021042
v -0.46000000 0.15625000 2.02848369
v -0.50000000 0.15625000 2.02848369
v -0.50000000 0.25000000 1.99021042
vt 0.332031250 0.105468750
vt 0.355468750 0.105468750
vt 0.355468750 0.128906250
vt 0.332031250 0.128906250
vn 0.00000000 -0.37796447 -0.92582010
f 49/49/13 50/50/13 51/51/13
f 49/49/13 51/51/13 52/52/13
v -0.46000000 0.15625000 2.02848369
v -0.46000000 0.15625000 2.05399921
v -0.50000000 0.15625000 2.05399921
v -0.50000000 0.15625000 2.02848369
vt 0.363281250 0.105468750
vt 0.386718750 0.105468750
vt 0.386718750 0.128906250
vt 0.363281250 0.128906250
vn 0.00000000 -1.00000000 0.00000000
f 53/53/14 54/54/14 55/55/14
f 53/53/14 55/55/14 56/56/14
v -0.46000000 0.15625000 2.05399921
v -0.46000000 0.03125000 2.09227249
v -0.50000000 0.03125000 2.09227249
v -0.50000000 0.15625000 2.05399921
vt 0.394531250 0.105468750
vt 0.417968750 0.105468750
vt 0.417968750 0.128906250
vt 0.394531250 0.128906250
vn 0.00000000 -0.29277002 -0.95618289
f 57/57/15 58/58/15 59/59/15
f 57/57/15 59/59/15 60/60/15
v -0.46000000 0.01562500 2.00296818
v -0.46000000 0.18750000 1.91366386
v -0.50000000 0.18750000 1.91366386
v -0.50000000 0.01562500 2.00296818
vt 0.425781250 0.105468750
vt 0.449218750 0.105468750
vt 0.449218750 0.128906250
vt 0.425781250 0.128906250
vn 0.00000000 0.46106545 0.88736613
f 61/61/16 62/62/16 63/63/16
f 61/61/16 63/63/16 64/64/16
v -0.46000000 0.18750000 1.91366386
v -0.46000000 0.28125000 1.73505523
v -0.50000000 0.28125000 1.73505523
v -0.50000000 0.18750000 1.91366386
vt 0.457031250 0.105468750
vt 0.480468750 0.105468750
vt 0.480468750 0.128906250
vt 0.457031250 0.128906250
vn 0.00000000 0.88543774 0.46475800
f 65/65/17 66/66/17 67/67/17
f 65/65/17 67/67/17 68/68/17
v -0.46000000 0.28125000 1.73505523
v -0.46000000 0.28125000 0.91855865
v -0.50000000 0.28125000 0.91855865
v -0.50000000 0.28125000 1.73505523
vt 0.488281250 0.105468750
vt 0.511718750 0.105468750
vt 0.511718750 0.128906250
vt 0.488281250 0.128906250
vn 0.00000000 1.00000000 0.00000000
f 69/69/18 70/70/18 71/71/18
f 69/69/18 71/71/18 72/72/18
v -0.46000000 0.28125000 0.91855865
v -0.46000000 -0.31250000 0.91855865
v -0.50000000 -0.31250000 0.91855865
v -0.50000000 0.28125000 0.91855865
vt 0.019531250 0.074218750
vt 0.042968750 0.074218750
vt 0.042968750 0.097656250
vt 0.019531250 0.097656250
vn 0.00000000 -0.00000000 -1.00000000
f 73/73/19 74/74/19 75/75/19
f 73/73/19 75/75/19 76/76/19
v -0.46000000 -0.31250000 0.91855865
v -0.46000000 -0.31250000 1.78608627
v -0.50000000 -0.31250000 1.78608627
v -0.50000000 -0.31250000 0.91855865
vt 0.050781250 0.074218750
vt 0.074218750 0.074218750
vt 0.074218750 0.097656250
vt 0.050781250 0.097656250
vn 0.00000000 -1.00000000 0.00000000
f 77/77/20 78/78/20 79/79/20
f 77/77/20 79/79/20 80/80/20
v -0.46000000 -0.31250000 1.78608627
v -0.46000000 -0.26562500 1.90090610
v -0.50000000 -0.26562500 1.90090610
v -0.50000000 -0.31250000 1.78608627
vt 0.082031250 0.074218750
vt 0.105468750 0.074218750
vt 0.105468750 0.097656250
vt 0.082031250 0.097656250
vn 0.00000000 -0.92582010 0.37796447
f 81/81/21 82/82/21 83/83/21
f 81/81/21 83/83/21 84/84/21
v -0.46000000 -0.26562500 1.90090610
v -0.46000000 -0.17187500 1.97745266
v -0.50000000 -0.17187500 1.97745266
v -0.50000000 -0.26562500 1.90090610
vt 0.113281250 0.074218750
vt 0.136718750 0.074218750
vt 0.136718750 0.097656250
vt 0.113281250 0.097656250
vn 0.00000000 -0.63245553 0.77459667
f 85/85/22 86/86/22 87/87/22
f 85/85/22 87/87/22 88/88/22
v -0.46000000 -0.17187500 1.97745266
v -0.46000000 -0.10937500 2.00296818
v -0.50000000 -0.10937500 2.00296818
v -0.50000000 -0.17187500 1.97745266
vt 0.144531250 0.074218750
vt 0.167968750 0.074218750
vt 0.167968750 0.097656250
vt 0.144531250 0.097656250
vn 0.00000000 -0.37796447 0.92582010
f 89/89/23 90/90/23 91/91/23
f 89/89/23 91/91/23 92/92/23
v -0.46000000 -0.10937500 2.00296818
v -0.46000000 0.01562500 2.00296818
v -0.50000000 0.01562500 2.00296818
v -0.50000000 -0.10937500 2.00296818
vt 0.175781250 0.074218750
vt 0.199218750 0.074218750
vt 0.199218750 0.097656250
vt 0.175781250 0.097656250
vn 0.00000000 -0.00000000 1.00000000
f 93/93/24 94/94/24 95/95/24
f 93/93/24 95/95/24 96/96/24
