mtllib pz_native_fixtures_windows_01_36.mtl
o pz_native_fixtures_windows_01_36_glass
usemtl Native_pz_native_fixtures_windows_01_36
v -0.49400000 0.29687500 1.86263283
v -0.49400000 -0.51562500 1.86263283
v -0.49400000 -0.51562500 -0.82925434
v -0.49400000 0.29687500 -0.82925434
vt 0.453125000 0.992187500
vt 0.859375000 0.992187500
vt 0.859375000 0.167968750
vt 0.453125000 0.167968750
vn 1.00000000 0.00000000 0.00000000
f 1/1/1 2/2/1 3/3/1
f 1/1/1 3/3/1 4/4/1
v -0.49300000 0.29687500 -0.82925434
v -0.49300000 -0.51562500 -0.82925434
v -0.49300000 -0.51562500 1.86263283
v -0.49300000 0.29687500 1.86263283
vt 0.453125000 0.167968750
vt 0.859375000 0.167968750
vt 0.859375000 0.992187500
vt 0.453125000 0.992187500
vn -1.00000000 0.00000000 0.00000000
f 5/5/2 6/6/2 7/7/2
f 5/5/2 7/7/2 8/8/2
