mtllib pz_native_location_community_church_small_01_208.mtl
o pz_native_location_community_church_small_01_208_glass
usemtl Native_pz_native_location_community_church_small_01_208
v -1.28125000 -0.50600000 1.44162678
v -0.03125000 -0.50600000 1.44162678
v -0.03125000 -0.50600000 -0.85476986
v -1.28125000 -0.50600000 -0.85476986
vt 0.335937500 0.992187500
vt 0.648437500 0.992187500
vt 0.648437500 0.289062500
vt 0.335937500 0.289062500
vn -0.00000000 1.00000000 0.00000000
f 1/1/1 2/2/1 3/3/1
f 1/1/1 3/3/1 4/4/1
v -1.28125000 -0.50700000 -0.85476986
v -0.03125000 -0.50700000 -0.85476986
v -0.03125000 -0.50700000 1.44162678
v -1.28125000 -0.50700000 1.44162678
vt 0.335937500 0.289062500
vt 0.648437500 0.289062500
vt 0.648437500 0.992187500
vt 0.335937500 0.992187500
vn 0.00000000 -1.00000000 0.00000000
f 5/5/2 6/6/2 7/7/2
f 5/5/2 7/7/2 8/8/2
