mtllib pz_native_fixtures_railings_01_77.mtl
o pz_native_fixtures_railings_01_77_frame
usemtl Native_pz_native_fixtures_railings_01_77
v -0.50000000 0.51562500 0.16585087
v -0.50000000 -0.57812500 0.16585087
v -0.50000000 -0.57812500 -0.85476986
v -0.50000000 0.51562500 -0.85476986
vt 0.015625000 0.984375000
vt 0.562500000 0.984375000
vt 0.562500000 0.359375000
vt 0.015625000 0.359375000
vn 1.00000000 0.00000000 0.00000000
f 1/1/1 2/2/1 3/3/1
f 1/1/1 3/3/1 4/4/1
v -0.45500000 0.51562500 -0.85476986
v -0.45500000 -0.57812500 -0.85476986
v -0.45500000 -0.57812500 0.16585087
v -0.45500000 0.51562500 0.16585087
vt 0.015625000 0.359375000
vt 0.562500000 0.359375000
vt 0.562500000 0.984375000
vt 0.015625000 0.984375000
vn -1.00000000 0.00000000 0.00000000
f 5/5/2 6/6/2 7/7/2
f 5/5/2 7/7/2 8/8/2
v -0.45500000 -0.37500000 -0.63788795
v -0.45500000 -0.45312500 -0.63788795
v -0.50000000 -0.45312500 -0.63788795
v -0.50000000 -0.37500000 -0.63788795
vt 0.019531250 0.316406250
vt 0.042968750 0.316406250
vt 0.042968750 0.339843750
vt 0.019531250 0.339843750
vn 0.00000000 -0.00000000 -1.00000000
f 9/9/3 10/10/3 11/11/3
f 9/9/3 11/11/3 12/12/3
v -0.45500000 -0.45312500 -0.63788795
v -0.45500000 -0.56250000 -0.70167675
v -0.50000000 -0.56250000 -0.70167675
v -0.50000000 -0.45312500 -0.63788795
vt 0.050781250 0.316406250
vt 0.074218750 0.316406250
vt 0.074218750 0.339843750
vt 0.050781250 0.339843750
vn 0.00000000 0.50379272 -0.86382457
f 13/13/4 14/14/4 15/15/4
f 13/13/4 15/15/4 16/16/4
v -0.45500000 -0.56250000 -0.70167675
v -0.45500000 -0.56250000 -0.84201210
v -0.50000000 -0.56250000 -0.84201210
v -0.50000000 -0.56250000 -0.70167675
vt 0.082031250 0.316406250
vt 0.105468750 0.316406250
vt 0.105468750 0.339843750
vt 0.082031250 0.339843750
vn 0.00000000 1.00000000 0.00000000
f 17/17/5 18/18/5 19/19/5
f 17/17/5 19/19/5 20/20/5
v -0.45500000 -0.56250000 -0.84201210
v -0.45500000 -0.37500000 -0.76546554
v -0.50000000 -0.37500000 -0.76546554
v -0.50000000 -0.56250000 -0.84201210
vt 0.113281250 0.316406250
vt 0.136718750 0.316406250
vt 0.136718750 0.339843750
vt 0.113281250 0.339843750
vn 0.00000000 -0.37796447 0.92582010
f 21/21/6 22/22/6 23/23/6
f 21/21/6 23/23/6 24/24/6
v -0.45500000 -0.37500000 -0.76546554
v -0.45500000 -0.37500000 -0.63788795
v -0.50000000 -0.37500000 -0.63788795
v -0.50000000 -0.37500000 -0.76546554
vt 0.144531250 0.316406250
vt 0.167968750 0.316406250
vt 0.167968750 0.339843750
vt 0.144531250 0.339843750
vn 0.00000000 -1.00000000 0.00000000
f 25/25/7 26/26/7 27/27/7
f 25/25/7 27/27/7 28/28/7
