mtllib pz_native_location_entertainment_theatre_01_24.mtl
o pz_native_location_entertainment_theatre_01_24_glass
usemtl Native_pz_native_location_entertainment_theatre_01_24
v -0.49400000 -0.26562500 1.84987507
v -0.49400000 -1.37500000 1.84987507
v -0.49400000 -1.37500000 0.12757759
v -0.49400000 -0.26562500 0.12757759
vt 0.300781250 0.992187500
vt 0.578125000 0.992187500
vt 0.578125000 0.464843750
vt 0.300781250 0.464843750
vn 1.00000000 0.00000000 0.00000000
f 1/1/1 2/2/1 3/3/1
f 1/1/1 3/3/1 4/4/1
v -0.49300000 -0.26562500 0.12757759
v -0.49300000 -1.37500000 0.12757759
v -0.49300000 -1.37500000 1.84987507
v -0.49300000 -0.26562500 1.84987507
vt 0.300781250 0.464843750
vt 0.578125000 0.464843750
vt 0.578125000 0.992187500
vt 0.300781250 0.992187500
vn -1.00000000 0.00000000 0.00000000
f 5/5/2 6/6/2 7/7/2
f 5/5/2 7/7/2 8/8/2
