mtllib pz_native_fixtures_windows_white_21.mtl
o pz_native_fixtures_windows_white_21_frame
usemtl Native_pz_native_fixtures_windows_white_21
v -0.40625000 -0.50000000 2.43673198
v 0.46875000 -0.50000000 2.43673198
v 0.46875000 -0.50000000 -0.10206207
v -0.40625000 -0.50000000 -0.10206207
vt 0.015625000 0.992187500
vt 0.453125000 0.992187500
vt 0.453125000 0.214843750
vt 0.015625000 0.214843750
vn -0.00000000 1.00000000 0.00000000
f 1/1/1 2/2/1 3/3/1
f 1/1/1 3/3/1 4/4/1
v -0.40625000 -0.54000000 -0.10206207
v 0.46875000 -0.54000000 -0.10206207
v 0.46875000 -0.54000000 2.43673198
v -0.40625000 -0.54000000 2.43673198
vt 0.015625000 0.214843750
vt 0.453125000 0.214843750
vt 0.453125000 0.992187500
vt 0.015625000 0.992187500
vn 0.00000000 -1.00000000 0.00000000
f 5/5/2 6/6/2 7/7/2
f 5/5/2 7/7/2 8/8/2
v -0.35937500 -0.54000000 2.41121647
v 0.45312500 -0.54000000 2.41121647
v 0.45312500 -0.50000000 2.41121647
v -0.35937500 -0.50000000 2.41121647
vt 0.019531250 0.193359375
vt 0.042968750 0.193359375
vt 0.042968750 0.205078125
vt 0.019531250 0.205078125
vn 0.00000000 0.00000000 1.00000000
f 9/9/3 10/10/3 11/11/3
f 9/9/3 11/11/3 12/12/3
v 0.45312500 -0.54000000 2.41121647
v 0.45312500 -0.54000000 -0.03827328
v 0.45312500 -0.50000000 -0.03827328
v 0.45312500 -0.50000000 2.41121647
vt 0.050781250 0.193359375
vt 0.074218750 0.193359375
vt 0.074218750 0.205078125
vt 0.050781250 0.205078125
vn 1.00000000 0.00000000 0.00000000
f 13/13/4 14/14/4 15/15/4
f 13/13/4 15/15/4 16/16/4
v 0.45312500 -0.54000000 -0.03827328
v 0.39062500 -0.54000000 -0.06378880
v 0.39062500 -0.50000000 -0.06378880
v 0.45312500 -0.50000000 -0.03827328
vt 0.082031250 0.193359375
vt 0.105468750 0.193359375
vt 0.105468750 0.205078125
vt 0.082031250 0.205078125
vn 0.37796447 0.00000000 -0.92582010
f 17/17/5 18/18/5 19/19/5
f 17/17/5 19/19/5 20/20/5
v 0.39062500 -0.54000000 -0.06378880
v -0.37500000 -0.54000000 -0.07654655
v -0.37500000 -0.50000000 -0.07654655
v 0.39062500 -0.50000000 -0.06378880
vt 0.113281250 0.193359375
vt 0.136718750 0.193359375
vt 0.136718750 0.205078125
vt 0.113281250 0.205078125
vn 0.01666088 0.00000000 -0.99986120
f 21/21/6 22/22/6 23/23/6
f 21/21/6 23/23/6 24/24/6
v -0.37500000 -0.54000000 -0.07654655
v -0.35937500 -0.54000000 2.41121647
v -0.35937500 -0.50000000 2.41121647
v -0.37500000 -0.50000000 -0.07654655
vt 0.144531250 0.193359375
vt 0.167968750 0.193359375
vt 0.167968750 0.205078125
vt 0.144531250 0.205078125
vn -0.99998028 0.00000000 0.00628062
f 25/25/7 26/26/7 27/27/7
f 25/25/7 27/27/7 28/28/7
v -0.25000000 -0.54000000 1.54368885
v -0.28125000 -0.54000000 1.53093109
v -0.28125000 -0.50000000 1.53093109
v -0.25000000 -0.50000000 1.54368885
vt 0.175781250 0.193359375
vt 0.199218750 0.193359375
vt 0.199218750 0.205078125
vt 0.175781250 0.205078125
vn 0.37796447 0.00000000 -0.92582010
f 29/29/8 30/30/8 31/31/8
f 29/29/8 31/31/8 32/32/8
v -0.28125000 -0.54000000 1.53093109
v -0.28125000 -0.54000000 0.79098106
v -0.28125000 -0.50000000 0.79098106
v -0.28125000 -0.50000000 1.53093109
vt 0.207031250 0.193359375
vt 0.230468750 0.193359375
vt 0.230468750 0.205078125
vt 0.207031250 0.205078125
vn 1.00000000 0.00000000 0.00000000
f 33/33/9 34/34/9 35/35/9
f 33/33/9 35/35/9 36/36/9
v -0.28125000 -0.54000000 0.79098106
v 0.01562500 -0.54000000 0.79098106
v 0.01562500 -0.50000000 0.79098106
v -0.28125000 -0.50000000 0.79098106
vt 0.238281250 0.193359375
vt 0.261718750 0.193359375
vt 0.261718750 0.205078125
vt 0.238281250 0.205078125
vn 0.00000000 0.00000000 1.00000000
f 37/37/10 38/38/10 39/39/10
f 37/37/10 39/39/10 40/40/10
v 0.01562500 -0.54000000 0.79098106
v 0.03125000 -0.54000000 1.54368885
v 0.03125000 -0.50000000 1.54368885
v 0.01562500 -0.50000000 0.79098106
vt 0.269531250 0.193359375
vt 0.292968750 0.193359375
vt 0.292968750 0.205078125
vt 0.269531250 0.205078125
vn -0.99978461 0.00000000 0.02075392
f 41/41/11 42/42/11 43/43/11
f 41/41/11 43/43/11 44/44/11
v 0.03125000 -0.54000000 1.54368885
v -0.25000000 -0.54000000 1.54368885
v -0.25000000 -0.50000000 1.54368885
v 0.03125000 -0.50000000 1.54368885
vt 0.300781250 0.193359375
vt 0.324218750 0.193359375
vt 0.324218750 0.205078125
vt 0.300781250 0.205078125
vn 0.00000000 0.00000000 -1.00000000
f 45/45/12 46/46/12 47/47/12
f 45/45/12 47/47/12 48/48/12
v -0.25000000 -0.54000000 2.33466991
v -0.28125000 -0.54000000 2.32191215
v -0.28125000 -0.50000000 2.32191215
v -0.25000000 -0.50000000 2.33466991
vt 0.332031250 0.193359375
vt 0.355468750 0.193359375
vt 0.355468750 0.205078125
vt 0.332031250 0.205078125
vn 0.37796447 0.00000000 -0.92582010
f 49/49/13 50/50/13 51/51/13
f 49/49/13 51/51/13 52/52/13
v -0.28125000 -0.54000000 2.32191215
v -0.28125000 -0.54000000 1.62023540
v -0.28125000 -0.50000000 1.62023540
v -0.28125000 -0.50000000 2.32191215
vt 0.363281250 0.193359375
vt 0.386718750 0.193359375
vt 0.386718750 0.205078125
vt 0.363281250 0.205078125
vn 1.00000000 0.00000000 0.00000000
f 53/53/14 54/54/14 55/55/14
f 53/53/14 55/55/14 56/56/14
v -0.28125000 -0.54000000 1.62023540
v 0.03125000 -0.54000000 1.62023540
v 0.03125000 -0.50000000 1.62023540
v -0.28125000 -0.50000000 1.62023540
vt 0.394531250 0.193359375
vt 0.417968750 0.193359375
vt 0.417968750 0.205078125
vt 0.394531250 0.205078125
vn 0.00000000 0.00000000 1.00000000
f 57/57/15 58/58/15 59/59/15
f 57/57/15 59/59/15 60/60/15
v 0.03125000 -0.54000000 1.62023540
v 0.03125000 -0.54000000 2.33466991
v 0.03125000 -0.50000000 2.33466991
v 0.03125000 -0.50000000 1.62023540
vt 0.425781250 0.193359375
vt 0.449218750 0.193359375
vt 0.449218750 0.205078125
vt 0.425781250 0.205078125
vn -1.00000000 0.00000000 0.00000000
f 61/61/16 62/62/16 63/63/16
f 61/61/16 63/63/16 64/64/16
v 0.03125000 -0.54000000 2.33466991
v -0.25000000 -0.54000000 2.33466991
v -0.25000000 -0.50000000 2.33466991
v 0.03125000 -0.50000000 2.33466991
vt 0.457031250 0.193359375
vt 0.480468750 0.193359375
vt 0.480468750 0.205078125
vt 0.457031250 0.205078125
vn 0.00000000 0.00000000 -1.00000000
f 65/65/17 66/66/17 67/67/17
f 65/65/17 67/67/17 68/68/17
v -0.26562500 -0.54000000 0.71443451
v -0.28125000 -0.54000000 0.03827328
v -0.28125000 -0.50000000 0.03827328
v -0.26562500 -0.50000000 0.71443451
vt 0.488281250 0.193359375
vt 0.511718750 0.193359375
vt 0.511718750 0.205078125
vt 0.488281250 0.205078125
vn 0.99973311 0.00000000 -0.02310223
f 69/69/18 70/70/18 71/71/18
f 69/69/18 71/71/18 72/72/18
v -0.28125000 -0.54000000 0.03827328
v 0.03125000 -0.54000000 0.03827328
v 0.03125000 -0.50000000 0.03827328
v -0.28125000 -0.50000000 0.03827328
vt 0.019531250 0.177734375
vt 0.042968750 0.177734375
vt 0.042968750 0.189453125
vt 0.019531250 0.189453125
vn 0.00000000 0.00000000 1.00000000
f 73/73/19 74/74/19 75/75/19
f 73/73/19 75/75/19 76/76/19
v 0.03125000 -0.54000000 0.03827328
v 0.03125000 -0.54000000 0.71443451
v 0.03125000 -0.50000000 0.71443451
v 0.03125000 -0.50000000 0.03827328
vt 0.050781250 0.177734375
vt 0.074218750 0.177734375
vt 0.074218750 0.189453125
vt 0.050781250 0.189453125
vn -1.00000000 0.00000000 0.00000000
f 77/77/20 78/78/20 79/79/20
f 77/77/20 79/79/20 80/80/20
v 0.03125000 -0.54000000 0.71443451
v -0.26562500 -0.54000000 0.71443451
v -0.26562500 -0.50000000 0.71443451
v 0.03125000 -0.50000000 0.71443451
vt 0.082031250 0.177734375
vt 0.105468750 0.177734375
vt 0.105468750 0.189453125
vt 0.082031250 0.189453125
vn 0.00000000 0.00000000 -1.00000000
f 81/81/21 82/82/21 83/83/21
f 81/81/21 83/83/21 84/84/21
v 0.09375000 -0.54000000 1.54368885
v 0.07812500 -0.54000000 0.80373882
v 0.07812500 -0.50000000 0.80373882
v 0.09375000 -0.50000000 1.54368885
vt 0.113281250 0.177734375
vt 0.136718750 0.177734375
vt 0.136718750 0.189453125
vt 0.113281250 0.189453125
vn 0.99977713 0.00000000 -0.02111158
f 85/85/22 86/86/22 87/87/22
f 85/85/22 87/87/22 88/88/22
v 0.07812500 -0.54000000 0.80373882
v 0.35937500 -0.54000000 0.79098106
v 0.35937500 -0.50000000 0.79098106
v 0.07812500 -0.50000000 0.80373882
vt 0.144531250 0.177734375
vt 0.167968750 0.177734375
vt 0.167968750 0.189453125
vt 0.144531250 0.189453125
vn 0.04531433 0.00000000 0.99897278
f 89/89/23 90/90/23 91/91/23
f 89/89/23 91/91/23 92/92/23
v 0.35937500 -0.54000000 0.79098106
v 0.35937500 -0.54000000 1.53093109
v 0.35937500 -0.50000000 1.53093109
v 0.35937500 -0.50000000 0.79098106
vt 0.175781250 0.177734375
vt 0.199218750 0.177734375
vt 0.199218750 0.189453125
vt 0.175781250 0.189453125
vn -1.00000000 0.00000000 0.00000000
f 93/93/24 94/94/24 95/95/24
f 93/93/24 95/95/24 96/96/24
v 0.35937500 -0.54000000 1.53093109
v 0.09375000 -0.54000000 1.54368885
v 0.09375000 -0.50000000 1.54368885
v 0.35937500 -0.50000000 1.53093109
vt 0.207031250 0.177734375
vt 0.230468750 0.177734375
vt 0.230468750 0.189453125
vt 0.207031250 0.189453125
vn -0.04797391 0.00000000 -0.99884859
f 97/97/25 98/98/25 99/99/25
f 97/97/25 99/99/25 100/100/25
v 0.12500000 -0.54000000 2.33466991
v 0.07812500 -0.54000000 2.32191215
v 0.07812500 -0.50000000 2.32191215
v 0.12500000 -0.50000000 2.33466991
vt 0.238281250 0.177734375
vt 0.261718750 0.177734375
vt 0.261718750 0.189453125
vt 0.238281250 0.189453125
vn 0.26261287 0.00000000 -0.96490128
f 101/101/26 102/102/26 103/103/26
f 101/101/26 103/103/26 104/104/26
v 0.07812500 -0.54000000 2.32191215
v 0.07812500 -0.54000000 1.62023540
v 0.07812500 -0.50000000 1.62023540
v 0.07812500 -0.50000000 2.32191215
vt 0.269531250 0.177734375
vt 0.292968750 0.177734375
vt 0.292968750 0.189453125
vt 0.269531250 0.189453125
vn 1.00000000 0.00000000 0.00000000
f 105/105/27 106/106/27 107/107/27
f 105/105/27 107/107/27 108/108/27
v 0.07812500 -0.54000000 1.62023540
v 0.35937500 -0.54000000 1.62023540
v 0.35937500 -0.50000000 1.62023540
v 0.07812500 -0.50000000 1.62023540
vt 0.300781250 0.177734375
vt 0.324218750 0.177734375
vt 0.324218750 0.189453125
vt 0.300781250 0.189453125
vn 0.00000000 0.00000000 1.00000000
f 109/109/28 110/110/28 111/111/28
f 109/109/28 111/111/28 112/112/28
v 0.35937500 -0.54000000 1.62023540
v 0.35937500 -0.54000000 2.32191215
v 0.35937500 -0.50000000 2.32191215
v 0.35937500 -0.50000000 1.62023540
vt 0.332031250 0.177734375
vt 0.355468750 0.177734375
vt 0.355468750 0.189453125
vt 0.332031250 0.189453125
vn -1.00000000 0.00000000 0.00000000
f 113/113/29 114/114/29 115/115/29
f 113/113/29 115/115/29 116/116/29
v 0.35937500 -0.54000000 2.32191215
v 0.12500000 -0.54000000 2.33466991
v 0.12500000 -0.50000000 2.33466991
v 0.35937500 -0.50000000 2.32191215
vt 0.363281250 0.177734375
vt 0.386718750 0.177734375
vt 0.386718750 0.189453125
vt 0.363281250 0.189453125
vn -0.05435264 0.00000000 -0.99852180
f 117/117/30 118/118/30 119/119/30
f 117/117/30 119/119/30 120/120/30
v 0.09375000 -0.54000000 0.71443451
v 0.07812500 -0.54000000 0.03827328
v 0.07812500 -0.50000000 0.03827328
v 0.09375000 -0.50000000 0.71443451
vt 0.394531250 0.177734375
vt 0.417968750 0.177734375
vt 0.417968750 0.189453125
vt 0.394531250 0.189453125
vn 0.99973311 0.00000000 -0.02310223
f 121/121/31 122/122/31 123/123/31
f 121/121/31 123/123/31 124/124/31
v 0.07812500 -0.54000000 0.03827328
v 0.35937500 -0.54000000 0.03827328
v 0.35937500 -0.50000000 0.03827328
v 0.07812500 -0.50000000 0.03827328
vt 0.425781250 0.177734375
vt 0.449218750 0.177734375
vt 0.449218750 0.189453125
vt 0.425781250 0.189453125
vn 0.00000000 0.00000000 1.00000000
f 125/125/32 126/126/32 127/127/32
f 125/125/32 127/127/32 128/128/32
v 0.35937500 -0.54000000 0.03827328
v 0.35937500 -0.54000000 0.71443451
v 0.35937500 -0.50000000 0.71443451
v 0.35937500 -0.50000000 0.03827328
vt 0.457031250 0.177734375
vt 0.480468750 0.177734375
vt 0.480468750 0.189453125
vt 0.457031250 0.189453125
vn -1.00000000 0.00000000 0.00000000
f 129/129/33 130/130/33 131/131/33
f 129/129/33 131/131/33 132/132/33
v 0.35937500 -0.54000000 0.71443451
v 0.09375000 -0.54000000 0.71443451
v 0.09375000 -0.50000000 0.71443451
v 0.35937500 -0.50000000 0.71443451
vt 0.488281250 0.177734375
vt 0.511718750 0.177734375
vt 0.511718750 0.189453125
vt 0.488281250 0.189453125
vn 0.00000000 0.00000000 -1.00000000
f 133/133/34 134/134/34 135/135/34
f 133/133/34 135/135/34 136/136/34
