mtllib pz_native_fixtures_railings_01_53.mtl
o pz_native_fixtures_railings_01_53_frame
usemtl Native_pz_native_fixtures_railings_01_53
v -1.51562500 -0.50000000 1.18647159
v 0.51562500 -0.50000000 1.18647159
v 0.51562500 -0.50000000 -0.08930431
v -1.51562500 -0.50000000 -0.08930431
vt 0.007812500 0.984375000
vt 0.515625000 0.984375000
vt 0.515625000 0.203125000
vt 0.007812500 0.203125000
vn -0.00000000 1.00000000 0.00000000
f 1/1/1 2/2/1 3/3/1
f 1/1/1 3/3/1 4/4/1
v -1.51562500 -0.54500000 -0.08930431
v 0.51562500 -0.54500000 -0.08930431
v 0.51562500 -0.54500000 1.18647159
v -1.51562500 -0.54500000 1.18647159
vt 0.007812500 0.203125000
vt 0.515625000 0.203125000
vt 0.515625000 0.984375000
vt 0.007812500 0.984375000
vn 0.00000000 -1.00000000 0.00000000
f 5/5/2 6/6/2 7/7/2
f 5/5/2 7/7/2 8/8/2
v -0.48437500 -0.54500000 1.17371384
v 0.50000000 -0.54500000 1.17371384
v 0.50000000 -0.50000000 1.17371384
v -0.48437500 -0.50000000 1.17371384
vt 0.009765625 0.160156250
vt 0.021484375 0.160156250
vt 0.021484375 0.183593750
vt 0.009765625 0.183593750
vn 0.00000000 0.00000000 1.00000000
f 9/9/3 10/10/3 11/11/3
f 9/9/3 11/11/3 12/12/3
v 0.50000000 -0.54500000 1.17371384
v 0.42187500 -0.54500000 1.02062073
v 0.42187500 -0.50000000 1.02062073
v 0.50000000 -0.50000000 1.17371384
vt 0.025390625 0.160156250
vt 0.037109375 0.160156250
vt 0.037109375 0.183593750
vt 0.025390625 0.183593750
vn 0.89072354 0.00000000 -0.45454545
f 13/13/4 14/14/4 15/15/4
f 13/13/4 15/15/4 16/16/4
v 0.42187500 -0.54500000 1.02062073
v 0.39062500 -0.54500000 1.00786297
v 0.39062500 -0.50000000 1.00786297
v 0.42187500 -0.50000000 1.02062073
vt 0.041015625 0.160156250
vt 0.052734375 0.160156250
vt 0.052734375 0.183593750
vt 0.041015625 0.183593750
vn 0.37796447 0.00000000 -0.92582010
f 17/17/5 18/18/5 19/19/5
f 17/17/5 19/19/5 20/20/5
v 0.39062500 -0.54500000 1.00786297
v -0.07812500 -0.54500000 1.02062073
v -0.07812500 -0.50000000 1.02062073
v 0.39062500 -0.50000000 1.00786297
vt 0.056640625 0.160156250
vt 0.068359375 0.160156250
vt 0.068359375 0.183593750
vt 0.056640625 0.183593750
vn -0.02720648 0.00000000 -0.99962984
f 21/21/6 22/22/6 23/23/6
f 21/21/6 23/23/6 24/24/6
v -0.07812500 -0.54500000 1.02062073
v -0.07812500 -0.54500000 -0.03827328
v -0.07812500 -0.50000000 -0.03827328
v -0.07812500 -0.50000000 1.02062073
vt 0.072265625 0.160156250
vt 0.083984375 0.160156250
vt 0.083984375 0.183593750
vt 0.072265625 0.183593750
vn 1.00000000 0.00000000 0.00000000
f 25/25/7 26/26/7 27/27/7
f 25/25/7 27/27/7 28/28/7
v -0.07812500 -0.54500000 -0.03827328
v -0.10937500 -0.54500000 -0.06378880
v -0.10937500 -0.50000000 -0.06378880
v -0.07812500 -0.50000000 -0.03827328
vt 0.087890625 0.160156250
vt 0.099609375 0.160156250
vt 0.099609375 0.183593750
vt 0.087890625 0.183593750
vn 0.63245553 0.00000000 -0.77459667
f 29/29/8 30/30/8 31/31/8
f 29/29/8 31/31/8 32/32/8
v -0.10937500 -0.54500000 -0.06378880
v -0.18750000 -0.54500000 -0.06378880
v -0.18750000 -0.50000000 -0.06378880
v -0.10937500 -0.50000000 -0.06378880
vt 0.103515625 0.160156250
vt 0.115234375 0.160156250
vt 0.115234375 0.183593750
vt 0.103515625 0.183593750
vn 0.00000000 0.00000000 -1.00000000
f 33/33/9 34/34/9 35/35/9
f 33/33/9 35/35/9 36/36/9
v -0.18750000 -0.54500000 -0.06378880
v -0.18750000 -0.54500000 1.00786297
v -0.18750000 -0.50000000 1.00786297
v -0.18750000 -0.50000000 -0.06378880
vt 0.119140625 0.160156250
vt 0.130859375 0.160156250
vt 0.130859375 0.183593750
vt 0.119140625 0.183593750
vn -1.00000000 0.00000000 0.00000000
f 37/37/10 38/38/10 39/39/10
f 37/37/10 39/39/10 40/40/10
v -0.18750000 -0.54500000 1.00786297
v -0.46875000 -0.54500000 1.00786297
v -0.46875000 -0.50000000 1.00786297
v -0.18750000 -0.50000000 1.00786297
vt 0.134765625 0.160156250
vt 0.146484375 0.160156250
vt 0.146484375 0.183593750
vt 0.134765625 0.183593750
vn 0.00000000 0.00000000 -1.00000000
f 41/41/11 42/42/11 43/43/11
f 41/41/11 43/43/11 44/44/11
v -0.46875000 -0.54500000 1.00786297
v -0.50000000 -0.54500000 1.09716728
v -0.50000000 -0.50000000 1.09716728
v -0.46875000 -0.50000000 1.00786297
vt 0.150390625 0.160156250
vt 0.162109375 0.160156250
vt 0.162109375 0.183593750
vt 0.150390625 0.183593750
vn -0.94387981 0.00000000 -0.33028913
f 45/45/12 46/46/12 47/47/12
f 45/45/12 47/47/12 48/48/12
v -0.50000000 -0.54500000 1.09716728
v -0.48437500 -0.54500000 1.17371384
v -0.48437500 -0.50000000 1.17371384
v -0.50000000 -0.50000000 1.09716728
vt 0.166015625 0.160156250
vt 0.177734375 0.160156250
vt 0.177734375 0.183593750
vt 0.166015625 0.183593750
vn -0.97979590 0.00000000 0.20000000
f 49/49/13 50/50/13 51/51/13
f 49/49/13 51/51/13 52/52/13
