mtllib pz_native_fixtures_windows_wood_73.mtl
o pz_native_fixtures_windows_wood_73_glass
usemtl Native_pz_native_fixtures_windows_wood_73
v -0.50000000 -0.50600000 2.39845871
v 0.37500000 -0.50600000 2.39845871
v 0.37500000 -0.50600000 0.73995003
v -0.50000000 -0.50600000 0.73995003
vt 0.484375000 0.992187500
vt 0.921875000 0.992187500
vt 0.921875000 0.484375000
vt 0.484375000 0.484375000
vn -0.00000000 1.00000000 0.00000000
f 1/1/1 2/2/1 3/3/1
f 1/1/1 3/3/1 4/4/1
v -0.50000000 -0.50700000 0.73995003
v 0.37500000 -0.50700000 0.73995003
v 0.37500000 -0.50700000 2.39845871
v -0.50000000 -0.50700000 2.39845871
vt 0.484375000 0.484375000
vt 0.921875000 0.484375000
vt 0.921875000 0.992187500
vt 0.484375000 0.992187500
vn 0.00000000 -1.00000000 0.00000000
f 5/5/2 6/6/2 7/7/2
f 5/5/2 7/7/2 8/8/2
