mtllib pz_native_fixtures_windows_metal_51.mtl
o pz_native_fixtures_windows_metal_51_glass
usemtl Native_pz_native_fixtures_windows_metal_51
v -0.50000000 -0.50600000 2.10503025
v 0.35937500 -0.50600000 2.10503025
v 0.35937500 -0.50600000 0.75270779
v -0.50000000 -0.50600000 0.75270779
vt 0.476562500 0.984375000
vt 0.906250000 0.984375000
vt 0.906250000 0.156250000
vt 0.476562500 0.156250000
vn -0.00000000 1.00000000 0.00000000
f 1/1/1 2/2/1 3/3/1
f 1/1/1 3/3/1 4/4/1
v -0.50000000 -0.50700000 0.75270779
v 0.35937500 -0.50700000 0.75270779
v 0.35937500 -0.50700000 2.10503025
v -0.50000000 -0.50700000 2.10503025
vt 0.476562500 0.156250000
vt 0.906250000 0.156250000
vt 0.906250000 0.984375000
vt 0.476562500 0.984375000
vn 0.00000000 -1.00000000 0.00000000
f 5/5/2 6/6/2 7/7/2
f 5/5/2 7/7/2 8/8/2
