mtllib pz_native_location_community_church_small_01_72.mtl
o pz_native_location_community_church_small_01_72_glass
usemtl Native_pz_native_location_community_church_small_01_72
v -0.49400000 0.48437500 2.16881904
v -0.49400000 -0.51562500 2.16881904
v -0.49400000 -0.51562500 -0.05103104
v -0.49400000 0.48437500 -0.05103104
vt 0.273437500 0.992187500
vt 0.523437500 0.992187500
vt 0.523437500 0.312500000
vt 0.273437500 0.312500000
vn 1.00000000 0.00000000 0.00000000
f 1/1/1 2/2/1 3/3/1
f 1/1/1 3/3/1 4/4/1
v -0.49300000 0.48437500 -0.05103104
v -0.49300000 -0.51562500 -0.05103104
v -0.49300000 -0.51562500 2.16881904
v -0.49300000 0.48437500 2.16881904
vt 0.273437500 0.312500000
vt 0.523437500 0.312500000
vt 0.523437500 0.992187500
vt 0.273437500 0.992187500
vn -1.00000000 0.00000000 0.00000000
f 5/5/2 6/6/2 7/7/2
f 5/5/2 7/7/2 8/8/2
