mtllib pz_native_street_decoration_01_1.mtl
o pz_native_street_decoration_01_1
usemtl Native_pz_native_street_decoration_01_1
v -0.12109375 0.58203125 1.72411502
v -0.12109375 0.58203125 1.47170363
v -0.12109375 0.40354944 1.29322182
v -0.12109375 0.15113806 1.29322182
v -0.12109375 -0.02734375 1.47170363
v -0.12109375 -0.02734375 1.72411502
v -0.12109375 0.15113806 1.90259682
v -0.12109375 0.40354944 1.90259682
vt 0.003906250 0.176372190
vt 0.003906250 0.073627810
vt 0.294511241 0.000976562
vt 0.705488759 0.000976562
vt 0.996093750 0.073627810
vt 0.996093750 0.176372190
vt 0.705488759 0.249023438
vt 0.294511241 0.249023438
vn -1.00000000 0.00000000 -0.00000000
f 1/1/1 2/2/1 3/3/1
f 1/1/1 3/3/1 4/4/1
f 1/1/1 4/4/1 5/5/1
f 1/1/1 5/5/1 6/6/1
f 1/1/1 6/6/1 7/7/1
f 1/1/1 7/7/1 8/8/1
v -0.10709375 0.40354944 1.90259682
v -0.10709375 0.15113806 1.90259682
v -0.10709375 -0.02734375 1.72411502
v -0.10709375 -0.02734375 1.47170363
v -0.10709375 0.15113806 1.29322182
v -0.10709375 0.40354944 1.29322182
v -0.10709375 0.58203125 1.47170363
v -0.10709375 0.58203125 1.72411502
vt 0.705488759 0.499023438
vt 0.294511241 0.499023438
vt 0.003906250 0.426372190
vt 0.003906250 0.323627810
vt 0.294511241 0.250976562
vt 0.705488759 0.250976562
vt 0.996093750 0.323627810
vt 0.996093750 0.426372190
vn 1.00000000 0.00000000 0.00000000
f 9/9/2 10/10/2 11/11/2
f 9/9/2 11/11/2 12/12/2
f 9/9/2 12/12/2 13/13/2
f 9/9/2 13/13/2 14/14/2
f 9/9/2 14/14/2 15/15/2
f 9/9/2 15/15/2 16/16/2
v -0.12109375 0.58203125 1.72411502
v -0.10709375 0.58203125 1.72411502
v -0.10709375 0.58203125 1.47170363
v -0.12109375 0.58203125 1.47170363
vt 0.011718750 0.247070312
vt 0.011718750 0.247070312
vt 0.011718750 0.247070312
vt 0.011718750 0.247070312
vn -0.00000000 1.00000000 0.00000000
f 17/17/3 18/18/3 19/19/3
f 17/17/3 19/19/3 20/20/3
v -0.12109375 0.58203125 1.47170363
v -0.10709375 0.58203125 1.47170363
v -0.10709375 0.40354944 1.29322182
v -0.12109375 0.40354944 1.29322182
vt 0.011718750 0.247070312
vt 0.011718750 0.247070312
vt 0.011718750 0.247070312
vt 0.011718750 0.247070312
vn 0.00000000 0.70710678 -0.70710678
f 21/21/4 22/22/4 23/23/4
f 21/21/4 23/23/4 24/24/4
v -0.12109375 0.40354944 1.29322182
v -0.10709375 0.40354944 1.29322182
v -0.10709375 0.15113806 1.29322182
v -0.12109375 0.15113806 1.29322182
vt 0.011718750 0.247070312
vt 0.011718750 0.247070312
vt 0.011718750 0.247070312
vt 0.011718750 0.247070312
vn 0.00000000 0.00000000 -1.00000000
f 25/25/5 26/26/5 27/27/5
f 25/25/5 27/27/5 28/28/5
v -0.12109375 0.15113806 1.29322182
v -0.10709375 0.15113806 1.29322182
v -0.10709375 -0.02734375 1.47170363
v -0.12109375 -0.02734375 1.47170363
vt 0.011718750 0.247070312
vt 0.011718750 0.247070312
vt 0.011718750 0.247070312
vt 0.011718750 0.247070312
vn 0.00000000 -0.70710678 -0.70710678
f 29/29/6 30/30/6 31/31/6
f 29/29/6 31/31/6 32/32/6
v -0.12109375 -0.02734375 1.47170363
v -0.10709375 -0.02734375 1.47170363
v -0.10709375 -0.02734375 1.72411502
v -0.12109375 -0.02734375 1.72411502
vt 0.011718750 0.247070312
vt 0.011718750 0.247070312
vt 0.011718750 0.247070312
vt 0.011718750 0.247070312
vn 0.00000000 -1.00000000 0.00000000
f 33/33/7 34/34/7 35/35/7
f 33/33/7 35/35/7 36/36/7
v -0.12109375 -0.02734375 1.72411502
v -0.10709375 -0.02734375 1.72411502
v -0.10709375 0.15113806 1.90259682
v -0.12109375 0.15113806 1.90259682
vt 0.011718750 0.247070312
vt 0.011718750 0.247070312
vt 0.011718750 0.247070312
vt 0.011718750 0.247070312
vn 0.00000000 -0.70710678 0.70710678
f 37/37/8 38/38/8 39/39/8
f 37/37/8 39/39/8 40/40/8
v -0.12109375 0.15113806 1.90259682
v -0.10709375 0.15113806 1.90259682
v -0.10709375 0.40354944 1.90259682
v -0.12109375 0.40354944 1.90259682
vt 0.011718750 0.247070312
vt 0.011718750 0.247070312
vt 0.011718750 0.247070312
vt 0.011718750 0.247070312
vn 0.00000000 0.00000000 1.00000000
f 41/41/9 42/42/9 43/43/9
f 41/41/9 43/43/9 44/44/9
v -0.12109375 0.40354944 1.90259682
v -0.10709375 0.40354944 1.90259682
v -0.10709375 0.58203125 1.72411502
v -0.12109375 0.58203125 1.72411502
vt 0.011718750 0.247070312
vt 0.011718750 0.247070312
vt 0.011718750 0.247070312
vt 0.011718750 0.247070312
vn -0.00000000 0.70710678 0.70710678
f 45/45/10 46/46/10 47/47/10
f 45/45/10 47/47/10 48/48/10
v -0.14453125 0.25390625 0.00000000
v -0.09765625 0.25390625 0.00000000
v -0.09765625 0.25390625 1.38102742
v -0.14453125 0.25390625 1.38102742
vt 0.300781250 0.555664062
vt 0.324218750 0.552734375
vt 0.324218750 0.764160156
vt 0.300781250 0.767089844
vn 0.00000000 -1.00000000 0.00000000
f 49/49/11 50/50/11 51/51/11
f 49/49/11 51/51/11 52/52/11
v -0.09765625 0.25390625 0.00000000
v -0.09765625 0.30078125 0.00000000
v -0.09765625 0.30078125 1.38102742
v -0.09765625 0.25390625 1.38102742
vt 0.324218750 0.552734375
vt 0.300781250 0.549804688
vt 0.300781250 0.761230469
vt 0.324218750 0.764160156
vn 1.00000000 0.00000000 0.00000000
f 53/53/12 54/54/12 55/55/12
f 53/53/12 55/55/12 56/56/12
v -0.09765625 0.30078125 0.00000000
v -0.14453125 0.30078125 0.00000000
v -0.14453125 0.30078125 1.38102742
v -0.09765625 0.30078125 1.38102742
vt 0.300781250 0.549804688
vt 0.277343750 0.552734375
vt 0.277343750 0.764160156
vt 0.300781250 0.761230469
vn 0.00000000 1.00000000 0.00000000
f 57/57/13 58/58/13 59/59/13
f 57/57/13 59/59/13 60/60/13
v -0.14453125 0.30078125 0.00000000
v -0.14453125 0.25390625 0.00000000
v -0.14453125 0.25390625 1.38102742
v -0.14453125 0.30078125 1.38102742
vt 0.277343750 0.552734375
vt 0.300781250 0.555664062
vt 0.300781250 0.767089844
vt 0.277343750 0.764160156
vn -1.00000000 0.00000000 0.00000000
f 61/61/14 62/62/14 63/63/14
f 61/61/14 63/63/14 64/64/14
