mtllib pz_native_street_decoration_01_4.mtl
o pz_native_street_decoration_01_4
usemtl Native_pz_native_street_decoration_01_4
v -0.05052119 -0.22980094 1.07324288
v 0.02776691 -0.22980094 1.02408909
v 0.07995898 -0.22980094 1.04866599
v 0.14519906 -0.22980094 1.15311778
v 0.14519906 -0.22980094 1.33744449
v 0.07995898 -0.22980094 1.38045405
v -0.01137714 -0.22980094 1.33744449
v -0.05052119 -0.22980094 1.28214648
vt 0.589639875 0.744326222
vt 0.628783925 0.731908109
vt 0.654879958 0.732408658
vt 0.687500000 0.744322004
vt 0.687500000 0.772541152
vt 0.654879958 0.783203125
vt 0.609211900 0.782327164
vt 0.589639875 0.776307923
vn 0.00000000 -1.00000000 0.00000000
f 1/1/1 2/2/1 3/3/1
f 1/1/1 3/3/1 4/4/1
f 1/1/1 4/4/1 5/5/1
f 1/1/1 5/5/1 6/6/1
f 1/1/1 6/6/1 7/7/1
f 1/1/1 7/7/1 8/8/1
v -0.05052119 -0.17552119 1.28214648
v -0.01137714 -0.17552119 1.33744449
v 0.07995898 -0.17552119 1.38045405
v 0.14519906 -0.17552119 1.33744449
v 0.14519906 -0.17552119 1.15311778
v 0.07995898 -0.17552119 1.04866599
v 0.02776691 -0.17552119 1.02408909
v -0.05052119 -0.17552119 1.07324288
vt 0.398437500 0.225063876
vt 0.378865475 0.235976124
vt 0.333197416 0.248269099
vt 0.300577375 0.245762136
vt 0.300577375 0.217542988
vt 0.333197416 0.197474632
vt 0.359293450 0.193369569
vt 0.398437500 0.193082175
vn 0.00000000 1.00000000 0.00000000
f 9/9/2 10/10/2 11/11/2
f 9/9/2 11/11/2 12/12/2
f 9/9/2 12/12/2 13/13/2
f 9/9/2 13/13/2 14/14/2
f 9/9/2 14/14/2 15/15/2
f 9/9/2 15/15/2 16/16/2
v -0.05052119 -0.22980094 1.07324288
v -0.05052119 -0.17552119 1.07324288
v 0.02776691 -0.17552119 1.02408909
v 0.02776691 -0.22980094 1.02408909
vt 0.589639875 0.744326222
vt 0.562500000 0.740933737
vt 0.601644050 0.728515625
vt 0.628783925 0.731908109
vn -0.53173821 0.00000000 -0.84690878
f 17/17/3 18/18/3 19/19/3
f 17/17/3 19/19/3 20/20/3
v 0.02776691 -0.22980094 1.02408909
v 0.02776691 -0.17552119 1.02408909
v 0.07995898 -0.17552119 1.04866599
v 0.07995898 -0.22980094 1.04866599
vt 0.628783925 0.731908109
vt 0.601644050 0.728515625
vt 0.627740084 0.729016174
vt 0.654879958 0.732408658
vn 0.42602297 0.00000000 -0.90471235
f 21/21/4 22/22/4 23/23/4
f 21/21/4 23/23/4 24/24/4
v 0.07995898 -0.22980094 1.04866599
v 0.07995898 -0.17552119 1.04866599
v 0.14519906 -0.17552119 1.15311778
v 0.14519906 -0.22980094 1.15311778
vt 0.654879958 0.732408658
vt 0.627740084 0.729016174
vt 0.660360125 0.740929519
vt 0.687500000 0.744322004
vn 0.84815261 0.00000000 -0.52975198
f 25/25/5 26/26/5 27/27/5
f 25/25/5 27/27/5 28/28/5
v 0.14519906 -0.22980094 1.15311778
v 0.14519906 -0.17552119 1.15311778
v 0.14519906 -0.17552119 1.33744449
v 0.14519906 -0.22980094 1.33744449
vt 0.687500000 0.744322004
vt 0.660360125 0.740929519
vt 0.660360125 0.769148668
vt 0.687500000 0.772541152
vn 1.00000000 0.00000000 0.00000000
f 29/29/6 30/30/6 31/31/6
f 29/29/6 31/31/6 32/32/6
v 0.14519906 -0.22980094 1.33744449
v 0.14519906 -0.17552119 1.33744449
v 0.07995898 -0.17552119 1.38045405
v 0.07995898 -0.22980094 1.38045405
vt 0.687500000 0.772541152
vt 0.660360125 0.769148668
vt 0.627740084 0.779810641
vt 0.654879958 0.783203125
vn 0.55040631 -0.00000000 0.83489694
f 33/33/7 34/34/7 35/35/7
f 33/33/7 35/35/7 36/36/7
v 0.07995898 -0.22980094 1.38045405
v 0.07995898 -0.17552119 1.38045405
v -0.01137714 -0.17552119 1.33744449
v -0.01137714 -0.22980094 1.33744449
vt 0.654879958 0.783203125
vt 0.627740084 0.779810641
vt 0.582072025 0.778934680
vt 0.609211900 0.782327164
vn -0.42602297 0.00000000 0.90471235
f 37/37/8 38/38/8 39/39/8
f 37/37/8 39/39/8 40/40/8
v -0.01137714 -0.22980094 1.33744449
v -0.01137714 -0.17552119 1.33744449
v -0.05052119 -0.17552119 1.28214648
v -0.05052119 -0.22980094 1.28214648
vt 0.609211900 0.782327164
vt 0.582072025 0.778934680
vt 0.562500000 0.772915439
vt 0.589639875 0.776307923
vn -0.81620110 0.00000000 0.57776792
f 41/41/9 42/42/9 43/43/9
f 41/41/9 43/43/9 44/44/9
v -0.05052119 -0.22980094 1.28214648
v -0.05052119 -0.17552119 1.28214648
v -0.05052119 -0.17552119 1.07324288
v -0.05052119 -0.22980094 1.07324288
vt 0.589639875 0.776307923
vt 0.562500000 0.772915439
vt 0.562500000 0.740933737
vt 0.589639875 0.744326222
vn -1.00000000 0.00000000 0.00000000
f 45/45/10 46/46/10 47/47/10
f 45/45/10 47/47/10 48/48/10
v 0.02734375 -0.23046875 0.00000000
v 0.05859375 -0.23046875 0.00000000
v 0.05859375 -0.23046875 1.08759896
v 0.02734375 -0.23046875 1.08759896
vt 0.628906250 0.575195312
vt 0.644531250 0.573242188
vt 0.644531250 0.739746094
vt 0.628906250 0.741699219
vn 0.00000000 -1.00000000 0.00000000
f 49/49/11 50/50/11 51/51/11
f 49/49/11 51/51/11 52/52/11
v 0.05859375 -0.23046875 0.00000000
v 0.05859375 -0.19921875 0.00000000
v 0.05859375 -0.19921875 1.08759896
v 0.05859375 -0.23046875 1.08759896
vt 0.644531250 0.573242188
vt 0.628906250 0.571289062
vt 0.628906250 0.737792969
vt 0.644531250 0.739746094
vn 1.00000000 0.00000000 0.00000000
f 53/53/12 54/54/12 55/55/12
f 53/53/12 55/55/12 56/56/12
v 0.05859375 -0.19921875 0.00000000
v 0.02734375 -0.19921875 0.00000000
v 0.02734375 -0.19921875 1.08759896
v 0.05859375 -0.19921875 1.08759896
vt 0.628906250 0.571289062
vt 0.613281250 0.573242188
vt 0.613281250 0.739746094
vt 0.628906250 0.737792969
vn 0.00000000 1.00000000 0.00000000
f 57/57/13 58/58/13 59/59/13
f 57/57/13 59/59/13 60/60/13
v 0.02734375 -0.19921875 0.00000000
v 0.02734375 -0.23046875 0.00000000
v 0.02734375 -0.23046875 1.08759896
v 0.02734375 -0.19921875 1.08759896
vt 0.613281250 0.573242188
vt 0.628906250 0.575195312
vt 0.628906250 0.741699219
vt 0.613281250 0.739746094
vn -1.00000000 0.00000000 0.00000000
f 61/61/14 62/62/14 63/63/14
f 61/61/14 63/63/14 64/64/14
