# Physical native .18 props; X/Y ground, Z up.
mtllib pz_native_electrical_200.mtl
usemtl Native_pz_native_electrical_200
o conduit
v 0.406250000 0.501000000 0.956831931
vt 0.003906250 0.507812500
vn 0.024042352 -0.707106781 -0.706697931
v 0.406658012 0.513000000 0.944838869
vt 0.246093750 0.507812500
vn 0.024042352 -0.707106781 -0.706697931
v 0.500408012 0.513000000 0.948028309
vt 0.246093750 0.992187500
vn 0.024042352 -0.707106781 -0.706697931
f 1/1/1 2/2/2 3/3/3
v 0.406250000 0.501000000 0.956831931
vt 0.003906250 0.507812500
vn 0.024042352 -0.707106781 -0.706697931
v 0.500408012 0.513000000 0.948028309
vt 0.246093750 0.992187500
vn 0.024042352 -0.707106781 -0.706697931
v 0.500000000 0.501000000 0.960021371
vt 0.003906250 0.992187500
vn 0.024042352 -0.707106781 -0.706697931
f 4/4/4 5/5/5 6/6/6
v 0.406658012 0.513000000 0.944838869
vt 0.003906250 0.507812500
vn 0.024042352 0.707106781 -0.706697931
v 0.406250000 0.525000000 0.956831931
vt 0.246093750 0.507812500
vn 0.024042352 0.707106781 -0.706697931
v 0.500000000 0.525000000 0.960021371
vt 0.246093750 0.992187500
vn 0.024042352 0.707106781 -0.706697931
f 7/7/7 8/8/8 9/9/9
v 0.406658012 0.513000000 0.944838869
vt 0.003906250 0.507812500
vn 0.024042352 0.707106781 -0.706697931
v 0.500000000 0.525000000 0.960021371
vt 0.246093750 0.992187500
vn 0.024042352 0.707106781 -0.706697931
v 0.500408012 0.513000000 0.948028309
vt 0.003906250 0.992187500
vn 0.024042352 0.707106781 -0.706697931
f 10/10/10 11/11/11 12/12/12
v 0.406250000 0.525000000 0.956831931
vt 0.003906250 0.507812500
vn -0.024042352 0.707106781 0.706697931
v 0.405841988 0.513000000 0.968824992
vt 0.246093750 0.507812500
vn -0.024042352 0.707106781 0.706697931
v 0.499591988 0.513000000 0.972014432
vt 0.246093750 0.992187500
vn -0.024042352 0.707106781 0.706697931
f 13/13/13 14/14/14 15/15/15
v 0.406250000 0.525000000 0.956831931
vt 0.003906250 0.507812500
vn -0.024042352 0.707106781 0.706697931
v 0.499591988 0.513000000 0.972014432
vt 0.246093750 0.992187500
vn -0.024042352 0.707106781 0.706697931
v 0.500000000 0.525000000 0.960021371
vt 0.003906250 0.992187500
vn -0.024042352 0.707106781 0.706697931
f 16/16/16 17/17/17 18/18/18
v 0.405841988 0.513000000 0.968824992
vt 0.003906250 0.507812500
vn -0.024042352 -0.707106781 0.706697931
v 0.406250000 0.501000000 0.956831931
vt 0.246093750 0.507812500
vn -0.024042352 -0.707106781 0.706697931
v 0.500000000 0.501000000 0.960021371
vt 0.246093750 0.992187500
vn -0.024042352 -0.707106781 0.706697931
f 19/19/19 20/20/20 21/21/21
v 0.405841988 0.513000000 0.968824992
vt 0.003906250 0.507812500
vn -0.024042352 -0.707106781 0.706697931
v 0.500000000 0.501000000 0.960021371
vt 0.246093750 0.992187500
vn -0.024042352 -0.707106781 0.706697931
v 0.499591988 0.513000000 0.972014432
vt 0.003906250 0.992187500
vn -0.024042352 -0.707106781 0.706697931
f 22/22/22 23/23/23 24/24/24
o conduit_end
v 0.405841988 0.513000000 0.968824992
vt 0.003906250 0.507812500
vn -0.999421798 0.000000000 -0.034001020
v 0.406250000 0.525000000 0.956831931
vt 0.246093750 0.507812500
vn -0.999421798 0.000000000 -0.034001020
v 0.406658012 0.513000000 0.944838869
vt 0.246093750 0.992187500
vn -0.999421798 0.000000000 -0.034001020
f 25/25/25 26/26/26 27/27/27
v 0.405841988 0.513000000 0.968824992
vt 0.003906250 0.507812500
vn -0.999421798 0.000000000 -0.034001020
v 0.406658012 0.513000000 0.944838869
vt 0.246093750 0.992187500
vn -0.999421798 0.000000000 -0.034001020
v 0.406250000 0.501000000 0.956831931
vt 0.003906250 0.992187500
vn -0.999421798 0.000000000 -0.034001020
f 28/28/28 29/29/29 30/30/30
v 0.500000000 0.501000000 0.960021371
vt 0.003906250 0.507812500
vn 0.999421798 -0.000000000 0.034001020
v 0.500408012 0.513000000 0.948028309
vt 0.246093750 0.507812500
vn 0.999421798 -0.000000000 0.034001020
v 0.500000000 0.525000000 0.960021371
vt 0.246093750 0.992187500
vn 0.999421798 -0.000000000 0.034001020
f 31/31/31 32/32/32 33/33/33
v 0.500000000 0.501000000 0.960021371
vt 0.003906250 0.507812500
vn 0.999421798 -0.000000000 0.034001020
v 0.500000000 0.525000000 0.960021371
vt 0.246093750 0.992187500
vn 0.999421798 -0.000000000 0.034001020
v 0.499591988 0.513000000 0.972014432
vt 0.003906250 0.992187500
vn 0.999421798 -0.000000000 0.034001020
f 34/34/34 35/35/35 36/36/36
o conduit
v 0.501000000 0.500000000 0.960021371
vt 0.003906250 0.507812500
vn -0.707106781 0.207019668 -0.676123404
v 0.513000000 0.503513240 0.948547176
vt 0.246093750 0.507812500
vn -0.707106781 0.207019668 -0.676123404
v 0.513000000 0.472263240 0.938978857
vt 0.246093750 0.992187500
vn -0.707106781 0.207019668 -0.676123404
f 37/37/37 38/38/38 39/39/39
v 0.501000000 0.500000000 0.960021371
vt 0.003906250 0.507812500
vn -0.707106781 0.207019668 -0.676123404
v 0.513000000 0.472263240 0.938978857
vt 0.246093750 0.992187500
vn -0.707106781 0.207019668 -0.676123404
v 0.501000000 0.468750000 0.950453051
vt 0.003906250 0.992187500
vn -0.707106781 0.207019668 -0.676123404
f 40/40/40 41/41/41 42/42/42
v 0.513000000 0.503513240 0.948547176
vt 0.003906250 0.507812500
vn 0.707106781 0.207019668 -0.676123404
v 0.525000000 0.500000000 0.960021371
vt 0.246093750 0.507812500
vn 0.707106781 0.207019668 -0.676123404
v 0.525000000 0.468750000 0.950453051
vt 0.246093750 0.992187500
vn 0.707106781 0.207019668 -0.676123404
f 43/43/43 44/44/44 45/45/45
v 0.513000000 0.503513240 0.948547176
vt 0.003906250 0.507812500
vn 0.707106781 0.207019668 -0.676123404
v 0.525000000 0.468750000 0.950453051
vt 0.246093750 0.992187500
vn 0.707106781 0.207019668 -0.676123404
v 0.513000000 0.472263240 0.938978857
vt 0.003906250 0.992187500
vn 0.707106781 0.207019668 -0.676123404
f 46/46/46 47/47/47 48/48/48
v 0.525000000 0.500000000 0.960021371
vt 0.003906250 0.507812500
vn 0.707106781 -0.207019668 0.676123404
v 0.513000000 0.496486760 0.971495565
vt 0.246093750 0.507812500
vn 0.707106781 -0.207019668 0.676123404
v 0.513000000 0.465236760 0.961927246
vt 0.246093750 0.992187500
vn 0.707106781 -0.207019668 0.676123404
f 49/49/49 50/50/50 51/51/51
v 0.525000000 0.500000000 0.960021371
vt 0.003906250 0.507812500
vn 0.707106781 -0.207019668 0.676123404
v 0.513000000 0.465236760 0.961927246
vt 0.246093750 0.992187500
vn 0.707106781 -0.207019668 0.676123404
v 0.525000000 0.468750000 0.950453051
vt 0.003906250 0.992187500
vn 0.707106781 -0.207019668 0.676123404
f 52/52/52 53/53/53 54/54/54
v 0.513000000 0.496486760 0.971495565
vt 0.003906250 0.507812500
vn -0.707106781 -0.207019668 0.676123404
v 0.501000000 0.500000000 0.960021371
vt 0.246093750 0.507812500
vn -0.707106781 -0.207019668 0.676123404
v 0.501000000 0.468750000 0.950453051
vt 0.246093750 0.992187500
vn -0.707106781 -0.207019668 0.676123404
f 55/55/55 56/56/56 57/57/57
v 0.513000000 0.496486760 0.971495565
vt 0.003906250 0.507812500
vn -0.707106781 -0.207019668 0.676123404
v 0.501000000 0.468750000 0.950453051
vt 0.246093750 0.992187500
vn -0.707106781 -0.207019668 0.676123404
v 0.513000000 0.465236760 0.961927246
vt 0.003906250 0.992187500
vn -0.707106781 -0.207019668 0.676123404
f 58/58/58 59/59/59 60/60/60
o conduit_end
v 0.513000000 0.496486760 0.971495565
vt 0.003906250 0.507812500
vn -0.000000000 0.956182887 0.292770022
v 0.525000000 0.500000000 0.960021371
vt 0.246093750 0.507812500
vn -0.000000000 0.956182887 0.292770022
v 0.513000000 0.503513240 0.948547176
vt 0.246093750 0.992187500
vn -0.000000000 0.956182887 0.292770022
f 61/61/61 62/62/62 63/63/63
v 0.513000000 0.496486760 0.971495565
vt 0.003906250 0.507812500
vn 0.000000000 0.956182887 0.292770022
v 0.513000000 0.503513240 0.948547176
vt 0.246093750 0.992187500
vn 0.000000000 0.956182887 0.292770022
v 0.501000000 0.500000000 0.960021371
vt 0.003906250 0.992187500
vn 0.000000000 0.956182887 0.292770022
f 64/64/64 65/65/65 66/66/66
v 0.501000000 0.468750000 0.950453051
vt 0.003906250 0.507812500
vn 0.000000000 -0.956182887 -0.292770022
v 0.513000000 0.472263240 0.938978857
vt 0.246093750 0.507812500
vn 0.000000000 -0.956182887 -0.292770022
v 0.525000000 0.468750000 0.950453051
vt 0.246093750 0.992187500
vn 0.000000000 -0.956182887 -0.292770022
f 67/67/67 68/68/68 69/69/69
v 0.501000000 0.468750000 0.950453051
vt 0.003906250 0.507812500
vn 0.000000000 -0.956182887 -0.292770022
v 0.525000000 0.468750000 0.950453051
vt 0.246093750 0.992187500
vn 0.000000000 -0.956182887 -0.292770022
v 0.513000000 0.465236760 0.961927246
vt 0.003906250 0.992187500
vn 0.000000000 -0.956182887 -0.292770022
f 70/70/70 71/71/71 72/72/72
o conduit
v 0.406250000 0.501000000 0.880285376
vt 0.003906250 0.507812500
vn 0.024042352 -0.707106781 -0.706697931
v 0.406658012 0.513000000 0.868292315
vt 0.246093750 0.507812500
vn 0.024042352 -0.707106781 -0.706697931
v 0.500408012 0.513000000 0.871481755
vt 0.246093750 0.992187500
vn 0.024042352 -0.707106781 -0.706697931
f 73/73/73 74/74/74 75/75/75
v 0.406250000 0.501000000 0.880285376
vt 0.003906250 0.507812500
vn 0.024042352 -0.707106781 -0.706697931
v 0.500408012 0.513000000 0.871481755
vt 0.246093750 0.992187500
vn 0.024042352 -0.707106781 -0.706697931
v 0.500000000 0.501000000 0.883474816
vt 0.003906250 0.992187500
vn 0.024042352 -0.707106781 -0.706697931
f 76/76/76 77/77/77 78/78/78
v 0.406658012 0.513000000 0.868292315
vt 0.003906250 0.507812500
vn 0.024042352 0.707106781 -0.706697931
v 0.406250000 0.525000000 0.880285376
vt 0.246093750 0.507812500
vn 0.024042352 0.707106781 -0.706697931
v 0.500000000 0.525000000 0.883474816
vt 0.246093750 0.992187500
vn 0.024042352 0.707106781 -0.706697931
f 79/79/79 80/80/80 81/81/81
v 0.406658012 0.513000000 0.868292315
vt 0.003906250 0.507812500
vn 0.024042352 0.707106781 -0.706697931
v 0.500000000 0.525000000 0.883474816
vt 0.246093750 0.992187500
vn 0.024042352 0.707106781 -0.706697931
v 0.500408012 0.513000000 0.871481755
vt 0.003906250 0.992187500
vn 0.024042352 0.707106781 -0.706697931
f 82/82/82 83/83/83 84/84/84
v 0.406250000 0.525000000 0.880285376
vt 0.003906250 0.507812500
vn -0.024042352 0.707106781 0.706697931
v 0.405841988 0.513000000 0.892278438
vt 0.246093750 0.507812500
vn -0.024042352 0.707106781 0.706697931
v 0.499591988 0.513000000 0.895467878
vt 0.246093750 0.992187500
vn -0.024042352 0.707106781 0.706697931
f 85/85/85 86/86/86 87/87/87
v 0.406250000 0.525000000 0.880285376
vt 0.003906250 0.507812500
vn -0.024042352 0.707106781 0.706697931
v 0.499591988 0.513000000 0.895467878
vt 0.246093750 0.992187500
vn -0.024042352 0.707106781 0.706697931
v 0.500000000 0.525000000 0.883474816
vt 0.003906250 0.992187500
vn -0.024042352 0.707106781 0.706697931
f 88/88/88 89/89/89 90/90/90
v 0.405841988 0.513000000 0.892278438
vt 0.003906250 0.507812500
vn -0.024042352 -0.707106781 0.706697931
v 0.406250000 0.501000000 0.880285376
vt 0.246093750 0.507812500
vn -0.024042352 -0.707106781 0.706697931
v 0.500000000 0.501000000 0.883474816
vt 0.246093750 0.992187500
vn -0.024042352 -0.707106781 0.706697931
f 91/91/91 92/92/92 93/93/93
v 0.405841988 0.513000000 0.892278438
vt 0.003906250 0.507812500
vn -0.024042352 -0.707106781 0.706697931
v 0.500000000 0.501000000 0.883474816
vt 0.246093750 0.992187500
vn -0.024042352 -0.707106781 0.706697931
v 0.499591988 0.513000000 0.895467878
vt 0.003906250 0.992187500
vn -0.024042352 -0.707106781 0.706697931
f 94/94/94 95/95/95 96/96/96
o conduit_end
v 0.405841988 0.513000000 0.892278438
vt 0.003906250 0.507812500
vn -0.999421798 0.000000000 -0.034001020
v 0.406250000 0.525000000 0.880285376
vt 0.246093750 0.507812500
vn -0.999421798 0.000000000 -0.034001020
v 0.406658012 0.513000000 0.868292315
vt 0.246093750 0.992187500
vn -0.999421798 0.000000000 -0.034001020
f 97/97/97 98/98/98 99/99/99
v 0.405841988 0.513000000 0.892278438
vt 0.003906250 0.507812500
vn -0.999421798 0.000000000 -0.034001020
v 0.406658012 0.513000000 0.868292315
vt 0.246093750 0.992187500
vn -0.999421798 0.000000000 -0.034001020
v 0.406250000 0.501000000 0.880285376
vt 0.003906250 0.992187500
vn -0.999421798 0.000000000 -0.034001020
f 100/100/100 101/101/101 102/102/102
v 0.500000000 0.501000000 0.883474816
vt 0.003906250 0.507812500
vn 0.999421798 -0.000000000 0.034001020
v 0.500408012 0.513000000 0.871481755
vt 0.246093750 0.507812500
vn 0.999421798 -0.000000000 0.034001020
v 0.500000000 0.525000000 0.883474816
vt 0.246093750 0.992187500
vn 0.999421798 -0.000000000 0.034001020
f 103/103/103 104/104/104 105/105/105
v 0.500000000 0.501000000 0.883474816
vt 0.003906250 0.507812500
vn 0.999421798 -0.000000000 0.034001020
v 0.500000000 0.525000000 0.883474816
vt 0.246093750 0.992187500
vn 0.999421798 -0.000000000 0.034001020
v 0.499591988 0.513000000 0.895467878
vt 0.003906250 0.992187500
vn 0.999421798 -0.000000000 0.034001020
f 106/106/106 107/107/107 108/108/108
o conduit
v 0.501000000 0.500000000 0.883474816
vt 0.003906250 0.507812500
vn -0.707106781 0.207019668 -0.676123404
v 0.513000000 0.503513240 0.872000621
vt 0.246093750 0.507812500
vn -0.707106781 0.207019668 -0.676123404
v 0.513000000 0.472263240 0.862432302
vt 0.246093750 0.992187500
vn -0.707106781 0.207019668 -0.676123404
f 109/109/109 110/110/110 111/111/111
v 0.501000000 0.500000000 0.883474816
vt 0.003906250 0.507812500
vn -0.707106781 0.207019668 -0.676123404
v 0.513000000 0.472263240 0.862432302
vt 0.246093750 0.992187500
vn -0.707106781 0.207019668 -0.676123404
v 0.501000000 0.468750000 0.873906497
vt 0.003906250 0.992187500
vn -0.707106781 0.207019668 -0.676123404
f 112/112/112 113/113/113 114/114/114
v 0.513000000 0.503513240 0.872000621
vt 0.003906250 0.507812500
vn 0.707106781 0.207019668 -0.676123404
v 0.525000000 0.500000000 0.883474816
vt 0.246093750 0.507812500
vn 0.707106781 0.207019668 -0.676123404
v 0.525000000 0.468750000 0.873906497
vt 0.246093750 0.992187500
vn 0.707106781 0.207019668 -0.676123404
f 115/115/115 116/116/116 117/117/117
v 0.513000000 0.503513240 0.872000621
vt 0.003906250 0.507812500
vn 0.707106781 0.207019668 -0.676123404
v 0.525000000 0.468750000 0.873906497
vt 0.246093750 0.992187500
vn 0.707106781 0.207019668 -0.676123404
v 0.513000000 0.472263240 0.862432302
vt 0.003906250 0.992187500
vn 0.707106781 0.207019668 -0.676123404
f 118/118/118 119/119/119 120/120/120
v 0.525000000 0.500000000 0.883474816
vt 0.003906250 0.507812500
vn 0.707106781 -0.207019668 0.676123404
v 0.513000000 0.496486760 0.894949011
vt 0.246093750 0.507812500
vn 0.707106781 -0.207019668 0.676123404
v 0.513000000 0.465236760 0.885380691
vt 0.246093750 0.992187500
vn 0.707106781 -0.207019668 0.676123404
f 121/121/121 122/122/122 123/123/123
v 0.525000000 0.500000000 0.883474816
vt 0.003906250 0.507812500
vn 0.707106781 -0.207019668 0.676123404
v 0.513000000 0.465236760 0.885380691
vt 0.246093750 0.992187500
vn 0.707106781 -0.207019668 0.676123404
v 0.525000000 0.468750000 0.873906497
vt 0.003906250 0.992187500
vn 0.707106781 -0.207019668 0.676123404
f 124/124/124 125/125/125 126/126/126
v 0.513000000 0.496486760 0.894949011
vt 0.003906250 0.507812500
vn -0.707106781 -0.207019668 0.676123404
v 0.501000000 0.500000000 0.883474816
vt 0.246093750 0.507812500
vn -0.707106781 -0.207019668 0.676123404
v 0.501000000 0.468750000 0.873906497
vt 0.246093750 0.992187500
vn -0.707106781 -0.207019668 0.676123404
f 127/127/127 128/128/128 129/129/129
v 0.513000000 0.496486760 0.894949011
vt 0.003906250 0.507812500
vn -0.707106781 -0.207019668 0.676123404
v 0.501000000 0.468750000 0.873906497
vt 0.246093750 0.992187500
vn -0.707106781 -0.207019668 0.676123404
v 0.513000000 0.465236760 0.885380691
vt 0.003906250 0.992187500
vn -0.707106781 -0.207019668 0.676123404
f 130/130/130 131/131/131 132/132/132
o conduit_end
v 0.513000000 0.496486760 0.894949011
vt 0.003906250 0.507812500
vn 0.000000000 0.956182887 0.292770022
v 0.525000000 0.500000000 0.883474816
vt 0.246093750 0.507812500
vn 0.000000000 0.956182887 0.292770022
v 0.513000000 0.503513240 0.872000621
vt 0.246093750 0.992187500
vn 0.000000000 0.956182887 0.292770022
f 133/133/133 134/134/134 135/135/135
v 0.513000000 0.496486760 0.894949011
vt 0.003906250 0.507812500
vn 0.000000000 0.956182887 0.292770022
v 0.513000000 0.503513240 0.872000621
vt 0.246093750 0.992187500
vn 0.000000000 0.956182887 0.292770022
v 0.501000000 0.500000000 0.883474816
vt 0.003906250 0.992187500
vn 0.000000000 0.956182887 0.292770022
f 136/136/136 137/137/137 138/138/138
v 0.501000000 0.468750000 0.873906497
vt 0.003906250 0.507812500
vn 0.000000000 -0.956182887 -0.292770022
v 0.513000000 0.472263240 0.862432302
vt 0.246093750 0.507812500
vn 0.000000000 -0.956182887 -0.292770022
v 0.525000000 0.468750000 0.873906497
vt 0.246093750 0.992187500
vn 0.000000000 -0.956182887 -0.292770022
f 139/139/139 140/140/140 141/141/141
v 0.501000000 0.468750000 0.873906497
vt 0.003906250 0.507812500
vn 0.000000000 -0.956182887 -0.292770022
v 0.525000000 0.468750000 0.873906497
vt 0.246093750 0.992187500
vn 0.000000000 -0.956182887 -0.292770022
v 0.513000000 0.465236760 0.885380691
vt 0.003906250 0.992187500
vn 0.000000000 -0.956182887 -0.292770022
f 142/142/142 143/143/143 144/144/144
