mtllib pz_native_fixtures_windows_metal_114.mtl
o pz_native_fixtures_windows_metal_114_glass
usemtl Native_pz_native_fixtures_windows_metal_114
v -0.49400000 0.48437500 1.79884403
v -0.49400000 -0.54687500 1.79884403
v -0.49400000 -0.54687500 0.82925434
v -0.49400000 0.48437500 0.82925434
vt 0.281250000 0.984375000
vt 0.539062500 0.984375000
vt 0.539062500 0.390625000
vt 0.281250000 0.390625000
vn 1.00000000 0.00000000 0.00000000
f 1/1/1 2/2/1 3/3/1
f 1/1/1 3/3/1 4/4/1
v -0.49300000 0.48437500 0.82925434
v -0.49300000 -0.54687500 0.82925434
v -0.49300000 -0.54687500 1.79884403
v -0.49300000 0.48437500 1.79884403
vt 0.281250000 0.390625000
vt 0.539062500 0.390625000
vt 0.539062500 0.984375000
vt 0.281250000 0.984375000
vn -1.00000000 0.00000000 0.00000000
f 5/5/2 6/6/2 7/7/2
f 5/5/2 7/7/2 8/8/2
