mtllib pz_native_fixtures_windows_white_87.mtl
o pz_native_fixtures_windows_white_87_glass
usemtl Native_pz_native_fixtures_windows_white_87
v -0.45312500 -0.50600000 2.38570095
v 0.35937500 -0.50600000 2.38570095
v 0.35937500 -0.50600000 1.56920437
v -0.45312500 -0.50600000 1.56920437
vt 0.453125000 0.984375000
vt 0.859375000 0.984375000
vt 0.859375000 0.484375000
vt 0.453125000 0.484375000
vn -0.00000000 1.00000000 0.00000000
f 1/1/1 2/2/1 3/3/1
f 1/1/1 3/3/1 4/4/1
v -0.45312500 -0.50700000 1.56920437
v 0.35937500 -0.50700000 1.56920437
v 0.35937500 -0.50700000 2.38570095
v -0.45312500 -0.50700000 2.38570095
vt 0.453125000 0.484375000
vt 0.859375000 0.484375000
vt 0.859375000 0.984375000
vt 0.453125000 0.984375000
vn 0.00000000 -1.00000000 0.00000000
f 5/5/2 6/6/2 7/7/2
f 5/5/2 7/7/2 8/8/2
