mtllib pz_native_fixtures_windows_metal_8.mtl
o pz_native_fixtures_windows_metal_8_frame
usemtl Native_pz_native_fixtures_windows_metal_8
v -0.50000000 0.50000000 2.43673198
v -0.50000000 -0.56250000 2.43673198
v -0.50000000 -0.56250000 0.73995003
v -0.50000000 0.50000000 0.73995003
vt 0.007812500 0.992187500
vt 0.273437500 0.992187500
vt 0.273437500 0.472656250
vt 0.007812500 0.472656250
vn 1.00000000 0.00000000 0.00000000
f 1/1/1 2/2/1 3/3/1
f 1/1/1 3/3/1 4/4/1
v -0.46000000 0.50000000 0.73995003
v -0.46000000 -0.56250000 0.73995003
v -0.46000000 -0.56250000 2.43673198
v -0.46000000 0.50000000 2.43673198
vt 0.007812500 0.472656250
vt 0.273437500 0.472656250
vt 0.273437500 0.992187500
vt 0.007812500 0.992187500
vn -1.00000000 0.00000000 0.00000000
f 5/5/2 6/6/2 7/7/2
f 5/5/2 7/7/2 8/8/2
v -0.46000000 0.48437500 2.41121647
v -0.46000000 -0.54687500 2.41121647
v -0.50000000 -0.54687500 2.41121647
v -0.50000000 0.48437500 2.41121647
vt 0.009765625 0.451171875
vt 0.021484375 0.451171875
vt 0.021484375 0.462890625
vt 0.009765625 0.462890625
vn 0.00000000 -0.00000000 -1.00000000
f 9/9/3 10/10/3 11/11/3
f 9/9/3 11/11/3 12/12/3
v -0.46000000 -0.54687500 2.41121647
v -0.46000000 -0.53125000 0.75270779
v -0.50000000 -0.53125000 0.75270779
v -0.50000000 -0.54687500 2.41121647
vt 0.025390625 0.451171875
vt 0.037109375 0.451171875
vt 0.037109375 0.462890625
vt 0.025390625 0.462890625
vn 0.00000000 0.99995562 0.00942070
f 13/13/4 14/14/4 15/15/4
f 13/13/4 15/15/4 16/16/4
v -0.46000000 -0.53125000 0.75270779
v -0.46000000 0.32812500 0.75270779
v -0.50000000 0.32812500 0.75270779
v -0.50000000 -0.53125000 0.75270779
vt 0.041015625 0.451171875
vt 0.052734375 0.451171875
vt 0.052734375 0.462890625
vt 0.041015625 0.462890625
vn 0.00000000 -0.00000000 1.00000000
f 17/17/5 18/18/5 19/19/5
f 17/17/5 19/19/5 20/20/5
v -0.46000000 0.32812500 0.75270779
v -0.46000000 0.35937500 0.79098106
v -0.50000000 0.35937500 0.79098106
v -0.50000000 0.32812500 0.75270779
vt 0.056640625 0.451171875
vt 0.068359375 0.451171875
vt 0.068359375 0.462890625
vt 0.056640625 0.462890625
vn 0.00000000 -0.77459667 0.63245553
f 21/21/6 22/22/6 23/23/6
f 21/21/6 23/23/6 24/24/6
v -0.46000000 0.35937500 0.79098106
v -0.46000000 0.39062500 0.76546554
v -0.50000000 0.39062500 0.76546554
v -0.50000000 0.35937500 0.79098106
vt 0.072265625 0.451171875
vt 0.083984375 0.451171875
vt 0.083984375 0.462890625
vt 0.072265625 0.462890625
vn 0.00000000 0.63245553 0.77459667
f 25/25/7 26/26/7 27/27/7
f 25/25/7 27/27/7 28/28/7
v -0.46000000 0.39062500 0.76546554
v -0.46000000 0.48437500 0.80373882
v -0.50000000 0.48437500 0.80373882
v -0.50000000 0.39062500 0.76546554
vt 0.087890625 0.451171875
vt 0.099609375 0.451171875
vt 0.099609375 0.462890625
vt 0.087890625 0.462890625
vn 0.00000000 -0.37796447 0.92582010
f 29/29/8 30/30/8 31/31/8
f 29/29/8 31/31/8 32/32/8
v -0.46000000 0.48437500 0.80373882
v -0.46000000 0.48437500 2.41121647
v -0.50000000 0.48437500 2.41121647
v -0.50000000 0.48437500 0.80373882
vt 0.103515625 0.451171875
vt 0.115234375 0.451171875
vt 0.115234375 0.462890625
vt 0.103515625 0.462890625
vn 0.00000000 -1.00000000 0.00000000
f 33/33/9 34/34/9 35/35/9
f 33/33/9 35/35/9 36/36/9
v -0.46000000 0.35937500 2.33466991
v -0.46000000 0.37500000 0.88028538
v -0.50000000 0.37500000 0.88028538
v -0.50000000 0.35937500 2.33466991
vt 0.119140625 0.451171875
vt 0.130859375 0.451171875
vt 0.130859375 0.462890625
vt 0.119140625 0.462890625
vn 0.00000000 0.99994229 0.01074276
f 37/37/10 38/38/10 39/39/10
f 37/37/10 39/39/10 40/40/10
v -0.46000000 0.37500000 0.88028538
v -0.46000000 0.03125000 0.86752762
v -0.50000000 0.03125000 0.86752762
v -0.50000000 0.37500000 0.88028538
vt 0.134765625 0.451171875
vt 0.146484375 0.451171875
vt 0.146484375 0.462890625
vt 0.134765625 0.462890625
vn 0.00000000 0.03708795 -0.99931201
f 41/41/11 42/42/11 43/43/11
f 41/41/11 43/43/11 44/44/11
v -0.46000000 0.03125000 0.86752762
v -0.46000000 0.01562500 2.33466991
v -0.50000000 0.01562500 2.33466991
v -0.50000000 0.03125000 0.86752762
vt 0.150390625 0.451171875
vt 0.162109375 0.451171875
vt 0.162109375 0.462890625
vt 0.150390625 0.462890625
vn 0.00000000 -0.99994329 -0.01064935
f 45/45/12 46/46/12 47/47/12
f 45/45/12 47/47/12 48/48/12
v -0.46000000 0.01562500 2.33466991
v -0.46000000 0.35937500 2.33466991
v -0.50000000 0.35937500 2.33466991
v -0.50000000 0.01562500 2.33466991
vt 0.166015625 0.451171875
vt 0.177734375 0.451171875
vt 0.177734375 0.462890625
vt 0.166015625 0.462890625
vn 0.00000000 -0.00000000 1.00000000
f 49/49/13 50/50/13 51/51/13
f 49/49/13 51/51/13 52/52/13
v -0.46000000 -0.10937500 2.33466991
v -0.46000000 -0.07812500 2.32191215
v -0.50000000 -0.07812500 2.32191215
v -0.50000000 -0.10937500 2.33466991
vt 0.181640625 0.451171875
vt 0.193359375 0.451171875
vt 0.193359375 0.462890625
vt 0.181640625 0.462890625
vn 0.00000000 0.37796447 0.92582010
f 53/53/14 54/54/14 55/55/14
f 53/53/14 55/55/14 56/56/14
v -0.46000000 -0.07812500 2.32191215
v -0.46000000 -0.07812500 0.86752762
v -0.50000000 -0.07812500 0.86752762
v -0.50000000 -0.07812500 2.32191215
vt 0.197265625 0.451171875
vt 0.208984375 0.451171875
vt 0.208984375 0.462890625
vt 0.197265625 0.462890625
vn 0.00000000 1.00000000 0.00000000
f 57/57/15 58/58/15 59/59/15
f 57/57/15 59/59/15 60/60/15
v -0.46000000 -0.07812500 0.86752762
v -0.46000000 -0.43750000 0.86752762
v -0.50000000 -0.43750000 0.86752762
v -0.50000000 -0.07812500 0.86752762
vt 0.212890625 0.451171875
vt 0.224609375 0.451171875
vt 0.224609375 0.462890625
vt 0.212890625 0.462890625
vn 0.00000000 -0.00000000 -1.00000000
f 61/61/16 62/62/16 63/63/16
f 61/61/16 63/63/16 64/64/16
v -0.46000000 -0.43750000 0.86752762
v -0.46000000 -0.43750000 2.32191215
v -0.50000000 -0.43750000 2.32191215
v -0.50000000 -0.43750000 0.86752762
vt 0.228515625 0.451171875
vt 0.240234375 0.451171875
vt 0.240234375 0.462890625
vt 0.228515625 0.462890625
vn 0.00000000 -1.00000000 0.00000000
f 65/65/17 66/66/17 67/67/17
f 65/65/17 67/67/17 68/68/17
v -0.46000000 -0.43750000 2.32191215
v -0.46000000 -0.10937500 2.33466991
v -0.50000000 -0.10937500 2.33466991
v -0.50000000 -0.43750000 2.32191215
vt 0.244140625 0.451171875
vt 0.255859375 0.451171875
vt 0.255859375 0.462890625
vt 0.244140625 0.462890625
vn 0.00000000 -0.03885143 0.99924500
f 69/69/18 70/70/18 71/71/18
f 69/69/18 71/71/18 72/72/18
