mtllib pz_native_location_entertainment_theatre_01_27.mtl
o pz_native_location_entertainment_theatre_01_27_glass
usemtl Native_pz_native_location_entertainment_theatre_01_27
v -0.81250000 -0.50600000 2.33466991
v 0.29687500 -0.50600000 2.33466991
v 0.29687500 -0.50600000 0.59961468
v -0.81250000 -0.50600000 0.59961468
vt 0.300781250 0.992187500
vt 0.578125000 0.992187500
vt 0.578125000 0.460937500
vt 0.300781250 0.460937500
vn -0.00000000 1.00000000 0.00000000
f 1/1/1 2/2/1 3/3/1
f 1/1/1 3/3/1 4/4/1
v -0.81250000 -0.50700000 0.59961468
v 0.29687500 -0.50700000 0.59961468
v 0.29687500 -0.50700000 2.33466991
v -0.81250000 -0.50700000 2.33466991
vt 0.300781250 0.460937500
vt 0.578125000 0.460937500
vt 0.578125000 0.992187500
vt 0.300781250 0.992187500
vn 0.00000000 -1.00000000 0.00000000
f 5/5/2 6/6/2 7/7/2
f 5/5/2 7/7/2 8/8/2
