mtllib pz_native_fixtures_railings_01_43.mtl
o pz_native_fixtures_railings_01_43_frame
usemtl Native_pz_native_fixtures_railings_01_43
v -0.50000000 -0.01562500 0.42100605
v -0.50000000 -0.56250000 0.42100605
v -0.50000000 -0.56250000 -0.03827328
v -0.50000000 -0.01562500 -0.03827328
vt 0.015625000 0.968750000
vt 0.289062500 0.968750000
vt 0.289062500 0.406250000
vt 0.015625000 0.406250000
vn 1.00000000 0.00000000 0.00000000
f 1/1/1 2/2/1 3/3/1
f 1/1/1 3/3/1 4/4/1
v -0.45500000 -0.01562500 -0.03827328
v -0.45500000 -0.56250000 -0.03827328
v -0.45500000 -0.56250000 0.42100605
v -0.45500000 -0.01562500 0.42100605
vt 0.015625000 0.406250000
vt 0.289062500 0.406250000
vt 0.289062500 0.968750000
vt 0.015625000 0.968750000
vn -1.00000000 0.00000000 0.00000000
f 5/5/2 6/6/2 7/7/2
f 5/5/2 7/7/2 8/8/2
v -0.45500000 -0.53125000 0.40824829
v -0.45500000 -0.53125000 0.12757759
v -0.50000000 -0.53125000 0.12757759
v -0.50000000 -0.53125000 0.40824829
vt 0.019531250 0.320312500
vt 0.042968750 0.320312500
vt 0.042968750 0.367187500
vt 0.019531250 0.367187500
vn 0.00000000 1.00000000 0.00000000
f 9/9/3 10/10/3 11/11/3
f 9/9/3 11/11/3 12/12/3
v -0.45500000 -0.53125000 0.12757759
v -0.45500000 -0.50000000 0.14033535
v -0.50000000 -0.50000000 0.14033535
v -0.50000000 -0.53125000 0.12757759
vt 0.050781250 0.320312500
vt 0.074218750 0.320312500
vt 0.074218750 0.367187500
vt 0.050781250 0.367187500
vn 0.00000000 -0.37796447 0.92582010
f 13/13/4 14/14/4 15/15/4
f 13/13/4 15/15/4 16/16/4
v -0.45500000 -0.50000000 0.14033535
v -0.45500000 -0.50000000 0.11481983
v -0.50000000 -0.50000000 0.11481983
v -0.50000000 -0.50000000 0.14033535
vt 0.082031250 0.320312500
vt 0.105468750 0.320312500
vt 0.105468750 0.367187500
vt 0.082031250 0.367187500
vn 0.00000000 1.00000000 0.00000000
f 17/17/5 18/18/5 19/19/5
f 17/17/5 19/19/5 20/20/5
v -0.45500000 -0.50000000 0.11481983
v -0.45500000 -0.35937500 0.02551552
v -0.50000000 -0.35937500 0.02551552
v -0.50000000 -0.50000000 0.11481983
vt 0.113281250 0.320312500
vt 0.136718750 0.320312500
vt 0.136718750 0.367187500
vt 0.113281250 0.367187500
vn 0.00000000 0.53608771 0.84416229
f 21/21/6 22/22/6 23/23/6
f 21/21/6 23/23/6 24/24/6
v -0.45500000 -0.35937500 0.02551552
v -0.45500000 -0.37500000 0.00000000
v -0.50000000 -0.37500000 0.00000000
v -0.50000000 -0.35937500 0.02551552
vt 0.144531250 0.320312500
vt 0.167968750 0.320312500
vt 0.167968750 0.367187500
vt 0.144531250 0.367187500
vn 0.00000000 0.85280287 -0.52223297
f 25/25/7 26/26/7 27/27/7
f 25/25/7 27/27/7 28/28/7
v -0.45500000 -0.37500000 0.00000000
v -0.45500000 -0.34375000 0.01275776
v -0.50000000 -0.34375000 0.01275776
v -0.50000000 -0.37500000 0.00000000
vt 0.175781250 0.320312500
vt 0.199218750 0.320312500
vt 0.199218750 0.367187500
vt 0.175781250 0.367187500
vn 0.00000000 -0.37796447 0.92582010
f 29/29/8 30/30/8 31/31/8
f 29/29/8 31/31/8 32/32/8
v -0.45500000 -0.34375000 0.01275776
v -0.45500000 -0.34375000 -0.02551552
v -0.50000000 -0.34375000 -0.02551552
v -0.50000000 -0.34375000 0.01275776
vt 0.207031250 0.320312500
vt 0.230468750 0.320312500
vt 0.230468750 0.367187500
vt 0.207031250 0.367187500
vn 0.00000000 1.00000000 0.00000000
f 33/33/9 34/34/9 35/35/9
f 33/33/9 35/35/9 36/36/9
v -0.45500000 -0.34375000 -0.02551552
v -0.45500000 -0.03125000 -0.02551552
v -0.50000000 -0.03125000 -0.02551552
v -0.50000000 -0.34375000 -0.02551552
vt 0.238281250 0.320312500
vt 0.261718750 0.320312500
vt 0.261718750 0.367187500
vt 0.238281250 0.367187500
vn 0.00000000 -0.00000000 1.00000000
f 37/37/10 38/38/10 39/39/10
f 37/37/10 39/39/10 40/40/10
v -0.45500000 -0.03125000 -0.02551552
v -0.45500000 -0.03125000 0.00000000
v -0.50000000 -0.03125000 0.00000000
v -0.50000000 -0.03125000 -0.02551552
vt 0.269531250 0.320312500
vt 0.292968750 0.320312500
vt 0.292968750 0.367187500
vt 0.269531250 0.367187500
vn 0.00000000 -1.00000000 0.00000000
f 41/41/11 42/42/11 43/43/11
f 41/41/11 43/43/11 44/44/11
v -0.45500000 -0.03125000 0.00000000
v -0.45500000 -0.09375000 0.02551552
v -0.50000000 -0.09375000 0.02551552
v -0.50000000 -0.03125000 0.00000000
vt 0.300781250 0.320312500
vt 0.324218750 0.320312500
vt 0.324218750 0.367187500
vt 0.300781250 0.367187500
vn 0.00000000 -0.37796447 -0.92582010
f 45/45/12 46/46/12 47/47/12
f 45/45/12 47/47/12 48/48/12
v -0.45500000 -0.09375000 0.02551552
v -0.45500000 -0.09375000 0.05103104
v -0.50000000 -0.09375000 0.05103104
v -0.50000000 -0.09375000 0.02551552
vt 0.332031250 0.320312500
vt 0.355468750 0.320312500
vt 0.355468750 0.367187500
vt 0.332031250 0.367187500
vn 0.00000000 -1.00000000 0.00000000
f 49/49/13 50/50/13 51/51/13
f 49/49/13 51/51/13 52/52/13
v -0.45500000 -0.09375000 0.05103104
v -0.45500000 -0.12500000 0.05103104
v -0.50000000 -0.12500000 0.05103104
v -0.50000000 -0.09375000 0.05103104
vt 0.363281250 0.320312500
vt 0.386718750 0.320312500
vt 0.386718750 0.367187500
vt 0.363281250 0.367187500
vn 0.00000000 -0.00000000 -1.00000000
f 53/53/14 54/54/14 55/55/14
f 53/53/14 55/55/14 56/56/14
v -0.45500000 -0.12500000 0.05103104
v -0.45500000 -0.12500000 0.07654655
v -0.50000000 -0.12500000 0.07654655
v -0.50000000 -0.12500000 0.05103104
vt 0.394531250 0.320312500
vt 0.417968750 0.320312500
vt 0.417968750 0.367187500
vt 0.394531250 0.367187500
vn 0.00000000 -1.00000000 0.00000000
f 57/57/15 58/58/15 59/59/15
f 57/57/15 59/59/15 60/60/15
v -0.45500000 -0.12500000 0.07654655
v -0.45500000 -0.18750000 0.10206207
v -0.50000000 -0.18750000 0.10206207
v -0.50000000 -0.12500000 0.07654655
vt 0.425781250 0.320312500
vt 0.449218750 0.320312500
vt 0.449218750 0.367187500
vt 0.425781250 0.367187500
vn 0.00000000 -0.37796447 -0.92582010
f 61/61/16 62/62/16 63/63/16
f 61/61/16 63/63/16 64/64/16
v -0.45500000 -0.18750000 0.10206207
v -0.45500000 -0.18750000 0.12757759
v -0.50000000 -0.18750000 0.12757759
v -0.50000000 -0.18750000 0.10206207
vt 0.457031250 0.320312500
vt 0.480468750 0.320312500
vt 0.480468750 0.367187500
vt 0.457031250 0.367187500
vn 0.00000000 -1.00000000 0.00000000
f 65/65/17 66/66/17 67/67/17
f 65/65/17 67/67/17 68/68/17
v -0.45500000 -0.18750000 0.12757759
v -0.45500000 -0.21875000 0.12757759
v -0.50000000 -0.21875000 0.12757759
v -0.50000000 -0.18750000 0.12757759
vt 0.488281250 0.320312500
vt 0.511718750 0.320312500
vt 0.511718750 0.367187500
vt 0.488281250 0.367187500
vn 0.00000000 -0.00000000 -1.00000000
f 69/69/18 70/70/18 71/71/18
f 69/69/18 71/71/18 72/72/18
v -0.45500000 -0.21875000 0.12757759
v -0.45500000 -0.21875000 0.15309311
v -0.50000000 -0.21875000 0.15309311
v -0.50000000 -0.21875000 0.12757759
vt 0.019531250 0.257812500
vt 0.042968750 0.257812500
vt 0.042968750 0.304687500
vt 0.019531250 0.304687500
vn 0.00000000 -1.00000000 0.00000000
f 73/73/19 74/74/19 75/75/19
f 73/73/19 75/75/19 76/76/19
v -0.45500000 -0.21875000 0.15309311
v -0.45500000 -0.25000000 0.15309311
v -0.50000000 -0.25000000 0.15309311
v -0.50000000 -0.21875000 0.15309311
vt 0.050781250 0.257812500
vt 0.074218750 0.257812500
vt 0.074218750 0.304687500
vt 0.050781250 0.304687500
vn 0.00000000 -0.00000000 -1.00000000
f 77/77/20 78/78/20 79/79/20
f 77/77/20 79/79/20 80/80/20
v -0.45500000 -0.25000000 0.15309311
v -0.45500000 -0.25000000 0.17860863
v -0.50000000 -0.25000000 0.17860863
v -0.50000000 -0.25000000 0.15309311
vt 0.082031250 0.257812500
vt 0.105468750 0.257812500
vt 0.105468750 0.304687500
vt 0.082031250 0.304687500
vn 0.00000000 -1.00000000 0.00000000
f 81/81/21 82/82/21 83/83/21
f 81/81/21 83/83/21 84/84/21
v -0.45500000 -0.25000000 0.17860863
v -0.45500000 -0.28125000 0.17860863
v -0.50000000 -0.28125000 0.17860863
v -0.50000000 -0.25000000 0.17860863
vt 0.113281250 0.257812500
vt 0.136718750 0.257812500
vt 0.136718750 0.304687500
vt 0.113281250 0.304687500
vn 0.00000000 -0.00000000 -1.00000000
f 85/85/22 86/86/22 87/87/22
f 85/85/22 87/87/22 88/88/22
v -0.45500000 -0.28125000 0.17860863
v -0.45500000 -0.28125000 0.20412415
v -0.50000000 -0.28125000 0.20412415
v -0.50000000 -0.28125000 0.17860863
vt 0.144531250 0.257812500
vt 0.167968750 0.257812500
vt 0.167968750 0.304687500
vt 0.144531250 0.304687500
vn 0.00000000 -1.00000000 0.00000000
f 89/89/23 90/90/23 91/91/23
f 89/89/23 91/91/23 92/92/23
v -0.45500000 -0.28125000 0.20412415
v -0.45500000 -0.31250000 0.20412415
v -0.50000000 -0.31250000 0.20412415
v -0.50000000 -0.28125000 0.20412415
vt 0.175781250 0.257812500
vt 0.199218750 0.257812500
vt 0.199218750 0.304687500
vt 0.175781250 0.304687500
vn 0.00000000 -0.00000000 -1.00000000
f 93/93/24 94/94/24 95/95/24
f 93/93/24 95/95/24 96/96/24
v -0.45500000 -0.31250000 0.20412415
v -0.45500000 -0.31250000 0.22963966
v -0.50000000 -0.31250000 0.22963966
v -0.50000000 -0.31250000 0.20412415
vt 0.207031250 0.257812500
vt 0.230468750 0.257812500
vt 0.230468750 0.304687500
vt 0.207031250 0.304687500
vn 0.00000000 -1.00000000 0.00000000
f 97/97/25 98/98/25 99/99/25
f 97/97/25 99/99/25 100/100/25
v -0.45500000 -0.31250000 0.22963966
v -0.45500000 -0.46875000 0.33170174
v -0.50000000 -0.46875000 0.33170174
v -0.50000000 -0.31250000 0.22963966
vt 0.238281250 0.257812500
vt 0.261718750 0.257812500
vt 0.261718750 0.304687500
vt 0.238281250 0.304687500
vn 0.00000000 -0.54686874 -0.83721836
f 101/101/26 102/102/26 103/103/26
f 101/101/26 103/103/26 104/104/26
v -0.45500000 -0.46875000 0.33170174
v -0.45500000 -0.46875000 0.35721725
v -0.50000000 -0.46875000 0.35721725
v -0.50000000 -0.46875000 0.33170174
vt 0.269531250 0.257812500
vt 0.292968750 0.257812500
vt 0.292968750 0.304687500
vt 0.269531250 0.304687500
vn 0.00000000 -1.00000000 0.00000000
f 105/105/27 106/106/27 107/107/27
f 105/105/27 107/107/27 108/108/27
v -0.45500000 -0.46875000 0.35721725
v -0.45500000 -0.50000000 0.35721725
v -0.50000000 -0.50000000 0.35721725
v -0.50000000 -0.46875000 0.35721725
vt 0.300781250 0.257812500
vt 0.324218750 0.257812500
vt 0.324218750 0.304687500
vt 0.300781250 0.304687500
vn 0.00000000 -0.00000000 -1.00000000
f 109/109/28 110/110/28 111/111/28
f 109/109/28 111/111/28 112/112/28
v -0.45500000 -0.50000000 0.35721725
v -0.45500000 -0.50000000 0.38273277
v -0.50000000 -0.50000000 0.38273277
v -0.50000000 -0.50000000 0.35721725
vt 0.332031250 0.257812500
vt 0.355468750 0.257812500
vt 0.355468750 0.304687500
vt 0.332031250 0.304687500
vn 0.00000000 -1.00000000 0.00000000
f 113/113/29 114/114/29 115/115/29
f 113/113/29 115/115/29 116/116/29
v -0.45500000 -0.50000000 0.38273277
v -0.45500000 -0.53125000 0.38273277
v -0.50000000 -0.53125000 0.38273277
v -0.50000000 -0.50000000 0.38273277
vt 0.363281250 0.257812500
vt 0.386718750 0.257812500
vt 0.386718750 0.304687500
vt 0.363281250 0.304687500
vn 0.00000000 -0.00000000 -1.00000000
f 117/117/30 118/118/30 119/119/30
f 117/117/30 119/119/30 120/120/30
v -0.45500000 -0.53125000 0.38273277
v -0.45500000 -0.53125000 0.40824829
v -0.50000000 -0.53125000 0.40824829
v -0.50000000 -0.53125000 0.38273277
vt 0.394531250 0.257812500
vt 0.417968750 0.257812500
vt 0.417968750 0.304687500
vt 0.394531250 0.304687500
vn 0.00000000 -1.00000000 0.00000000
f 121/121/31 122/122/31 123/123/31
f 121/121/31 123/123/31 124/124/31
