mtllib pz_native_fixtures_windows_01_44.mtl
o pz_native_fixtures_windows_01_44_glass
usemtl Native_pz_native_fixtures_windows_01_44
v -0.49400000 0.29687500 2.47500526
v -0.49400000 -0.54687500 2.47500526
v -0.49400000 -0.54687500 0.90580089
v -0.49400000 0.29687500 0.90580089
vt 0.468750000 0.992187500
vt 0.890625000 0.992187500
vt 0.890625000 0.511718750
vt 0.468750000 0.511718750
vn 1.00000000 0.00000000 0.00000000
f 1/1/1 2/2/1 3/3/1
f 1/1/1 3/3/1 4/4/1
v -0.49300000 0.29687500 0.90580089
v -0.49300000 -0.54687500 0.90580089
v -0.49300000 -0.54687500 2.47500526
v -0.49300000 0.29687500 2.47500526
vt 0.468750000 0.511718750
vt 0.890625000 0.511718750
vt 0.890625000 0.992187500
vt 0.468750000 0.992187500
vn -1.00000000 0.00000000 0.00000000
f 5/5/2 6/6/2 7/7/2
f 5/5/2 7/7/2 8/8/2
