mtllib pz_native_fixtures_windows_01_21.mtl
o pz_native_fixtures_windows_01_21_glass
usemtl Native_pz_native_fixtures_windows_01_21
v -0.37500000 -0.50600000 1.84987507
v 0.26562500 -0.50600000 1.84987507
v 0.26562500 -0.50600000 0.86752762
v -0.37500000 -0.50600000 0.86752762
vt 0.367187500 0.984375000
vt 0.687500000 0.984375000
vt 0.687500000 0.382812500
vt 0.367187500 0.382812500
vn -0.00000000 1.00000000 0.00000000
f 1/1/1 2/2/1 3/3/1
f 1/1/1 3/3/1 4/4/1
v -0.37500000 -0.50700000 0.86752762
v 0.26562500 -0.50700000 0.86752762
v 0.26562500 -0.50700000 1.84987507
v -0.37500000 -0.50700000 1.84987507
vt 0.367187500 0.382812500
vt 0.687500000 0.382812500
vt 0.687500000 0.984375000
vt 0.367187500 0.984375000
vn 0.00000000 -1.00000000 0.00000000
f 5/5/2 6/6/2 7/7/2
f 5/5/2 7/7/2 8/8/2
