mtllib pz_native_street_decoration_01_5.mtl
o pz_native_street_decoration_01_5
usemtl Native_pz_native_street_decoration_01_5
v -0.26105094 0.12957406 1.15949666
v -0.26105094 0.06433398 1.05504487
v -0.26105094 0.01214191 1.03046797
v -0.26105094 -0.06614619 1.09191021
v -0.26105094 -0.06614619 1.28852536
v -0.26105094 -0.02700214 1.34382337
v -0.26105094 0.06433398 1.38683293
v -0.26105094 0.12957406 1.34382337
vt 0.304687500 0.748228254
vt 0.337307542 0.736314908
vt 0.363403575 0.735814359
vt 0.402547625 0.750113748
vt 0.402547625 0.780214173
vt 0.382975600 0.786233414
vt 0.337307542 0.787109375
vt 0.304687500 0.776447402
vn -1.00000000 0.00000000 0.00000000
f 1/1/1 2/2/1 3/3/1
f 1/1/1 3/3/1 4/4/1
f 1/1/1 4/4/1 5/5/1
f 1/1/1 5/5/1 6/6/1
f 1/1/1 6/6/1 7/7/1
f 1/1/1 7/7/1 8/8/1
v -0.20677119 0.12957406 1.34382337
v -0.20677119 0.06433398 1.38683293
v -0.20677119 -0.02700214 1.34382337
v -0.20677119 -0.06614619 1.28852536
v -0.20677119 -0.06614619 1.09191021
v -0.20677119 0.01214191 1.03046797
v -0.20677119 0.06433398 1.05504487
v -0.20677119 0.12957406 1.15949666
vt 0.691610125 0.245762136
vt 0.658990084 0.248269099
vt 0.613322025 0.235976124
vt 0.601562500 0.226040439
vt 0.601562500 0.195940014
vt 0.632894050 0.194346131
vt 0.658990084 0.197608135
vt 0.691610125 0.217542988
vn 1.00000000 0.00000000 0.00000000
f 9/9/2 10/10/2 11/11/2
f 9/9/2 11/11/2 12/12/2
f 9/9/2 12/12/2 13/13/2
f 9/9/2 13/13/2 14/14/2
f 9/9/2 14/14/2 15/15/2
f 9/9/2 15/15/2 16/16/2
v -0.26105094 0.12957406 1.15949666
v -0.20677119 0.12957406 1.15949666
v -0.20677119 0.06433398 1.05504487
v -0.26105094 0.06433398 1.05504487
vt 0.304687500 0.748228254
vt 0.331827375 0.744835769
vt 0.364447416 0.732922424
vt 0.337307542 0.736314908
vn 0.00000000 0.84815261 -0.52975198
f 17/17/3 18/18/3 19/19/3
f 17/17/3 19/19/3 20/20/3
v -0.26105094 0.06433398 1.05504487
v -0.20677119 0.06433398 1.05504487
v -0.20677119 0.01214191 1.03046797
v -0.26105094 0.01214191 1.03046797
vt 0.337307542 0.736314908
vt 0.364447416 0.732922424
vt 0.390543450 0.732421875
vt 0.363403575 0.735814359
vn 0.00000000 0.42602297 -0.90471235
f 21/21/4 22/22/4 23/23/4
f 21/21/4 23/23/4 24/24/4
v -0.26105094 0.01214191 1.03046797
v -0.20677119 0.01214191 1.03046797
v -0.20677119 -0.06614619 1.09191021
v -0.26105094 -0.06614619 1.09191021
vt 0.363403575 0.735814359
vt 0.390543450 0.732421875
vt 0.429687500 0.746721264
vt 0.402547625 0.750113748
vn 0.00000000 -0.61738753 -0.78665916
f 25/25/5 26/26/5 27/27/5
f 25/25/5 27/27/5 28/28/5
v -0.26105094 -0.06614619 1.09191021
v -0.20677119 -0.06614619 1.09191021
v -0.20677119 -0.06614619 1.28852536
v -0.26105094 -0.06614619 1.28852536
vt 0.402547625 0.750113748
vt 0.429687500 0.746721264
vt 0.429687500 0.776821689
vt 0.402547625 0.780214173
vn 0.00000000 -1.00000000 0.00000000
f 29/29/6 30/30/6 31/31/6
f 29/29/6 31/31/6 32/32/6
v -0.26105094 -0.06614619 1.28852536
v -0.20677119 -0.06614619 1.28852536
v -0.20677119 -0.02700214 1.34382337
v -0.26105094 -0.02700214 1.34382337
vt 0.402547625 0.780214173
vt 0.429687500 0.776821689
vt 0.410115475 0.782840930
vt 0.382975600 0.786233414
vn 0.00000000 -0.81620110 0.57776792
f 33/33/7 34/34/7 35/35/7
f 33/33/7 35/35/7 36/36/7
v -0.26105094 -0.02700214 1.34382337
v -0.20677119 -0.02700214 1.34382337
v -0.20677119 0.06433398 1.38683293
v -0.26105094 0.06433398 1.38683293
vt 0.382975600 0.786233414
vt 0.410115475 0.782840930
vt 0.364447416 0.783716891
vt 0.337307542 0.787109375
vn 0.00000000 -0.42602297 0.90471235
f 37/37/8 38/38/8 39/39/8
f 37/37/8 39/39/8 40/40/8
v -0.26105094 0.06433398 1.38683293
v -0.20677119 0.06433398 1.38683293
v -0.20677119 0.12957406 1.34382337
v -0.26105094 0.12957406 1.34382337
vt 0.337307542 0.787109375
vt 0.364447416 0.783716891
vt 0.331827375 0.773054918
vt 0.304687500 0.776447402
vn -0.00000000 0.55040631 0.83489694
f 41/41/9 42/42/9 43/43/9
f 41/41/9 43/43/9 44/44/9
v -0.26105094 0.12957406 1.34382337
v -0.20677119 0.12957406 1.34382337
v -0.20677119 0.12957406 1.15949666
v -0.26105094 0.12957406 1.15949666
vt 0.304687500 0.776447402
vt 0.331827375 0.773054918
vt 0.331827375 0.744835769
vt 0.304687500 0.748228254
vn -0.00000000 1.00000000 0.00000000
f 45/45/10 46/46/10 47/47/10
f 45/45/10 47/47/10 48/48/10
v -0.26953125 0.00390625 0.00000000
v -0.23828125 0.00390625 0.00000000
v -0.23828125 0.00390625 1.09397784
v -0.26953125 0.00390625 1.09397784
vt 0.363281250 0.579101562
vt 0.378906250 0.577148438
vt 0.378906250 0.744628906
vt 0.363281250 0.746582031
vn 0.00000000 -1.00000000 0.00000000
f 49/49/11 50/50/11 51/51/11
f 49/49/11 51/51/11 52/52/11
v -0.23828125 0.00390625 0.00000000
v -0.23828125 0.03515625 0.00000000
v -0.23828125 0.03515625 1.09397784
v -0.23828125 0.00390625 1.09397784
vt 0.378906250 0.577148438
vt 0.363281250 0.575195312
vt 0.363281250 0.742675781
vt 0.378906250 0.744628906
vn 1.00000000 0.00000000 0.00000000
f 53/53/12 54/54/12 55/55/12
f 53/53/12 55/55/12 56/56/12
v -0.23828125 0.03515625 0.00000000
v -0.26953125 0.03515625 0.00000000
v -0.26953125 0.03515625 1.09397784
v -0.23828125 0.03515625 1.09397784
vt 0.363281250 0.575195312
vt 0.347656250 0.577148438
vt 0.347656250 0.744628906
vt 0.363281250 0.742675781
vn 0.00000000 1.00000000 0.00000000
f 57/57/13 58/58/13 59/59/13
f 57/57/13 59/59/13 60/60/13
v -0.26953125 0.03515625 0.00000000
v -0.26953125 0.00390625 0.00000000
v -0.26953125 0.00390625 1.09397784
v -0.26953125 0.03515625 1.09397784
vt 0.347656250 0.577148438
vt 0.363281250 0.579101562
vt 0.363281250 0.746582031
vt 0.347656250 0.744628906
vn -1.00000000 0.00000000 0.00000000
f 61/61/14 62/62/14 63/63/14
f 61/61/14 63/63/14 64/64/14
