mtllib pz_native_street_decoration_01_40.mtl
o pz_native_street_decoration_01_40
usemtl Native_pz_native_street_decoration_01_40
v -0.31680801 0.19180801 0.00000000
v 0.48868301 0.19180801 0.00000000
v 0.46947607 0.22061842 0.14718059
v -0.29760107 0.22061842 0.14718059
vt 0.507812500 0.753906250
vt 0.992187500 0.753906250
vt 0.992187500 0.996093750
vt 0.507812500 0.996093750
vn 0.00000000 -0.98137480 0.19210284
f 1/1/1 2/2/1 3/3/1
f 1/1/1 3/3/1 4/4/1
v 0.48868301 0.19180801 0.00000000
v 0.48868301 0.35506699 0.00000000
v 0.46947607 0.32625658 0.14718059
v 0.46947607 0.22061842 0.14718059
vt 0.507812500 0.753906250
vt 0.992187500 0.753906250
vt 0.992187500 0.996093750
vt 0.507812500 0.996093750
vn 0.99159223 -0.00000000 0.12940192
f 5/5/2 6/6/2 7/7/2
f 5/5/2 7/7/2 8/8/2
v 0.48868301 0.35506699 0.00000000
v -0.31680801 0.35506699 0.00000000
v -0.29760107 0.32625658 0.14718059
v 0.46947607 0.32625658 0.14718059
vt 0.507812500 0.753906250
vt 0.992187500 0.753906250
vt 0.992187500 0.996093750
vt 0.507812500 0.996093750
vn 0.00000000 0.98137480 0.19210284
f 9/9/3 10/10/3 11/11/3
f 9/9/3 11/11/3 12/12/3
v -0.31680801 0.35506699 0.00000000
v -0.31680801 0.19180801 0.00000000
v -0.29760107 0.22061842 0.14718059
v -0.29760107 0.32625658 0.14718059
vt 0.507812500 0.753906250
vt 0.992187500 0.753906250
vt 0.992187500 0.996093750
vt 0.507812500 0.996093750
vn -0.99159223 0.00000000 0.12940192
f 13/13/4 14/14/4 15/15/4
f 13/13/4 15/15/4 16/16/4
v -0.29760107 0.22061842 0.14718059
v 0.46947607 0.22061842 0.14718059
v 0.46947607 0.32625658 0.14718059
v -0.29760107 0.32625658 0.14718059
vt 0.007812500 0.503906250
vt 0.492187500 0.503906250
vt 0.492187500 0.746093750
vt 0.007812500 0.746093750
vn 0.00000000 0.00000000 1.00000000
f 17/17/5 18/18/5 19/19/5
f 17/17/5 19/19/5 20/20/5
