mtllib pz_native_street_decoration_01_93.mtl
o pz_native_street_decoration_01_93
usemtl Native_pz_native_street_decoration_01_93
v 0.37896453 -0.30853547 0.00000000
v 0.37896453 0.37103543 0.00000000
v 0.37896453 0.37103543 1.22474484
v 0.37896453 -0.30853547 1.22474484
vt 0.507812500 0.753906250
vt 0.992187500 0.753906250
vt 0.992187500 0.996093750
vt 0.507812500 0.996093750
vn 1.00000000 0.00000000 0.00000000
f 1/1/1 2/2/1 3/3/1
f 1/1/1 3/3/1 4/4/1
v 0.37896453 0.37103543 0.00000000
v -0.41021457 0.37103543 0.00000000
v -0.41021457 0.37103543 1.22474484
v 0.37896453 0.37103543 1.22474484
vt 0.492187500 0.753906250
vt 0.007812500 0.753906250
vt 0.007812500 0.996093750
vt 0.492187500 0.996093750
vn 0.00000000 1.00000000 0.00000000
f 5/5/2 6/6/2 7/7/2
f 5/5/2 7/7/2 8/8/2
v -0.41021457 0.37103543 0.00000000
v -0.41021457 -0.30853547 0.00000000
v -0.41021457 -0.30853547 1.22474484
v -0.41021457 0.37103543 1.22474484
vt 0.992187500 0.753906250
vt 0.507812500 0.753906250
vt 0.507812500 0.996093750
vt 0.992187500 0.996093750
vn -1.00000000 0.00000000 0.00000000
f 9/9/3 10/10/3 11/11/3
f 9/9/3 11/11/3 12/12/3
v -0.41021457 -0.30853547 0.00000000
v 0.37896453 -0.30853547 0.00000000
v 0.37896453 -0.30853547 1.22474484
v -0.41021457 -0.30853547 1.22474484
vt 0.507812500 0.503906250
vt 0.992187500 0.503906250
vt 0.992187500 0.746093750
vt 0.507812500 0.746093750
vn 0.00000000 -1.00000000 0.00000000
f 13/13/4 14/14/4 15/15/4
f 13/13/4 15/15/4 16/16/4
v 0.37896453 -0.30853547 1.22474484
v 0.37896453 0.37103543 1.22474484
v -0.41021457 0.37103543 1.22474484
v -0.41021457 -0.30853547 1.22474484
vt 0.007812500 0.503906250
vt 0.492187500 0.503906250
vt 0.492187500 0.746093750
vt 0.007812500 0.746093750
vn 0.00000000 -0.00000000 1.00000000
f 17/17/5 18/18/5 19/19/5
f 17/17/5 19/19/5 20/20/5
v 0.07754196 0.08057368 1.22474484
v 0.07754196 0.26690763 1.22474484
v 0.07754196 0.26690763 1.46124730
v 0.07754196 0.08057368 1.46124730
vt 0.507812500 0.753906250
vt 0.992187500 0.753906250
vt 0.992187500 0.996093750
vt 0.507812500 0.996093750
vn 1.00000000 -0.00000000 0.00000000
f 21/21/6 22/22/6 23/23/6
f 21/21/6 23/23/6 24/24/6
v 0.07754196 0.26690763 1.22474484
v -0.10879200 0.26690763 1.22474484
v -0.10879200 0.26690763 1.46124730
v 0.07754196 0.26690763 1.46124730
vt 0.492187500 0.253906250
vt 0.007812500 0.253906250
vt 0.007812500 0.496093750
vt 0.492187500 0.496093750
vn 0.00000000 1.00000000 0.00000000
f 25/25/7 26/26/7 27/27/7
f 25/25/7 27/27/7 28/28/7
v -0.10879200 0.26690763 1.22474484
v -0.10879200 0.08057368 1.22474484
v -0.10879200 0.08057368 1.46124730
v -0.10879200 0.26690763 1.46124730
vt 0.992187500 0.753906250
vt 0.507812500 0.753906250
vt 0.507812500 0.996093750
vt 0.992187500 0.996093750
vn -1.00000000 0.00000000 0.00000000
f 29/29/8 30/30/8 31/31/8
f 29/29/8 31/31/8 32/32/8
v -0.10879200 0.08057368 1.22474484
v 0.07754196 0.08057368 1.22474484
v 0.07754196 0.08057368 1.46124730
v -0.10879200 0.08057368 1.46124730
vt 0.507812500 0.503906250
vt 0.992187500 0.503906250
vt 0.992187500 0.746093750
vt 0.507812500 0.746093750
vn -0.00000000 -1.00000000 0.00000000
f 33/33/9 34/34/9 35/35/9
f 33/33/9 35/35/9 36/36/9
v 0.07754196 0.08057368 1.46124730
v 0.07754196 0.26690763 1.46124730
v -0.10879200 0.26690763 1.46124730
v -0.10879200 0.08057368 1.46124730
vt 0.007812500 0.503906250
vt 0.492187500 0.503906250
vt 0.492187500 0.746093750
vt 0.007812500 0.746093750
vn 0.00000000 -0.00000000 1.00000000
f 37/37/10 38/38/10 39/39/10
f 37/37/10 39/39/10 40/40/10
