mtllib pz_native_lighting_outdoor_01_25_wall_lamp.mtl
o pz_native_lighting_outdoor_01_25_wall_lamp
usemtl Native_pz_native_lighting_outdoor_01_25_wall_lamp
v -0.50000000 0.09375000 1.76919944
v -0.47828295 0.09375000 1.76919944
v -0.47828295 0.09375000 1.61753805
v -0.50000000 0.09375000 1.61753805
vt 0.757812500 0.984375000
vt 0.992187500 0.984375000
vt 0.992187500 0.515625000
vt 0.757812500 0.515625000
vn -0.00000000 1.00000000 0.00000000
f 1/1/1 2/2/1 3/3/1
f 1/1/1 3/3/1 4/4/1
v -0.47828295 0.09375000 1.76919944
v -0.47828295 -0.01011413 1.76919944
v -0.47828295 -0.01011413 1.61753805
v -0.47828295 0.09375000 1.61753805
vt 0.757812500 0.984375000
vt 0.992187500 0.984375000
vt 0.992187500 0.515625000
vt 0.757812500 0.515625000
vn 1.00000000 0.00000000 0.00000000
f 5/5/2 6/6/2 7/7/2
f 5/5/2 7/7/2 8/8/2
v -0.47828295 -0.01011413 1.76919944
v -0.50000000 -0.01011413 1.76919944
v -0.50000000 -0.01011413 1.61753805
v -0.47828295 -0.01011413 1.61753805
vt 0.757812500 0.984375000
vt 0.992187500 0.984375000
vt 0.992187500 0.515625000
vt 0.757812500 0.515625000
vn -0.00000000 -1.00000000 0.00000000
f 9/9/3 10/10/3 11/11/3
f 9/9/3 11/11/3 12/12/3
v -0.47828295 -0.01011413 1.76919944
v -0.47828295 0.09375000 1.76919944
v -0.50000000 0.09375000 1.76919944
v -0.50000000 -0.01011413 1.76919944
vt 0.757812500 0.984375000
vt 0.992187500 0.984375000
vt 0.992187500 0.515625000
vt 0.757812500 0.515625000
vn 0.00000000 -0.00000000 1.00000000
f 13/13/4 14/14/4 15/15/4
f 13/13/4 15/15/4 16/16/4
v -0.50000000 -0.01011413 1.61753805
v -0.50000000 0.09375000 1.61753805
v -0.47828295 0.09375000 1.61753805
v -0.47828295 -0.01011413 1.61753805
vt 0.757812500 0.984375000
vt 0.992187500 0.984375000
vt 0.992187500 0.515625000
vt 0.757812500 0.515625000
vn 0.00000000 0.00000000 -1.00000000
f 17/17/5 18/18/5 19/19/5
f 17/17/5 19/19/5 20/20/5
v -0.41502026 0.05881388 1.77678250
v -0.40368192 0.04181793 1.76661428
v -0.46694462 0.04181793 1.72111587
v -0.47828295 0.05881388 1.73128409
vt 0.757812500 0.984375000
vt 0.992187500 0.984375000
vt 0.992187500 0.515625000
vt 0.757812500 0.515625000
vn 0.43936373 0.65859794 -0.61090775
f 21/21/6 22/22/6 23/23/6
f 21/21/6 23/23/6 24/24/6
v -0.40368192 0.04181793 1.76661428
v -0.41502026 0.02482199 1.77678250
v -0.47828295 0.02482199 1.73128409
v -0.46694462 0.04181793 1.72111587
vt 0.757812500 0.984375000
vt 0.992187500 0.984375000
vt 0.992187500 0.515625000
vt 0.757812500 0.515625000
vn 0.43936373 -0.65859794 -0.61090775
f 25/25/7 26/26/7 27/27/7
f 25/25/7 27/27/7 28/28/7
v -0.41502026 0.02482199 1.77678250
v -0.42635859 0.04181793 1.78695072
v -0.48962129 0.04181793 1.74145231
v -0.47828295 0.02482199 1.73128409
vt 0.757812500 0.984375000
vt 0.992187500 0.984375000
vt 0.992187500 0.515625000
vt 0.757812500 0.515625000
vn -0.43936373 -0.65859794 0.61090775
f 29/29/8 30/30/8 31/31/8
f 29/29/8 31/31/8 32/32/8
v -0.42635859 0.04181793 1.78695072
v -0.41502026 0.05881388 1.77678250
v -0.47828295 0.05881388 1.73128409
v -0.48962129 0.04181793 1.74145231
vt 0.757812500 0.984375000
vt 0.992187500 0.984375000
vt 0.992187500 0.515625000
vt 0.757812500 0.515625000
vn -0.43936373 0.65859794 0.61090775
f 33/33/9 34/34/9 35/35/9
f 33/33/9 35/35/9 36/36/9
v -0.29227174 0.05881388 1.76919944
v -0.29357527 0.04181793 1.75559012
v -0.41632379 0.04181793 1.76317318
v -0.41502026 0.05881388 1.77678250
vt 0.757812500 0.984375000
vt 0.992187500 0.984375000
vt 0.992187500 0.515625000
vt 0.757812500 0.515625000
vn -0.04805555 0.62656777 -0.77788398
f 37/37/10 38/38/10 39/39/10
f 37/37/10 39/39/10 40/40/10
v -0.29357527 0.04181793 1.75559012
v -0.29227174 0.02482199 1.76919944
v -0.41502026 0.02482199 1.77678250
v -0.41632379 0.04181793 1.76317318
vt 0.757812500 0.984375000
vt 0.992187500 0.984375000
vt 0.992187500 0.515625000
vt 0.757812500 0.515625000
vn -0.04805555 -0.62656777 -0.77788398
f 41/41/11 42/42/11 43/43/11
f 41/41/11 43/43/11 44/44/11
v -0.29227174 0.02482199 1.76919944
v -0.29096821 0.04181793 1.78280875
v -0.41371673 0.04181793 1.79039182
v -0.41502026 0.02482199 1.77678250
vt 0.757812500 0.984375000
vt 0.992187500 0.984375000
vt 0.992187500 0.515625000
vt 0.757812500 0.515625000
vn 0.04805555 -0.62656777 0.77788398
f 45/45/12 46/46/12 47/47/12
f 45/45/12 47/47/12 48/48/12
v -0.29096821 0.04181793 1.78280875
v -0.29227174 0.05881388 1.76919944
v -0.41502026 0.05881388 1.77678250
v -0.41371673 0.04181793 1.79039182
vt 0.757812500 0.984375000
vt 0.992187500 0.984375000
vt 0.992187500 0.515625000
vt 0.757812500 0.515625000
vn 0.04805555 0.62656777 0.77788398
f 49/49/13 50/50/13 51/51/13
f 49/49/13 51/51/13 52/52/13
v -0.27016703 0.04181793 1.69186348
v -0.25450296 0.02482199 1.69716028
v -0.29227174 0.02482199 1.76919944
v -0.30793581 0.04181793 1.76390264
vt 0.757812500 0.984375000
vt 0.992187500 0.984375000
vt 0.992187500 0.515625000
vt 0.757812500 0.515625000
vn -0.63859563 -0.69289401 -0.33480367
f 53/53/14 54/54/14 55/55/14
f 53/53/14 55/55/14 56/56/14
v -0.25450296 0.02482199 1.69716028
v -0.23883890 0.04181793 1.70245707
v -0.27660767 0.04181793 1.77449623
v -0.29227174 0.02482199 1.76919944
vt 0.757812500 0.984375000
vt 0.992187500 0.984375000
vt 0.992187500 0.515625000
vt 0.757812500 0.515625000
vn 0.63859563 -0.69289401 0.33480367
f 57/57/15 58/58/15 59/59/15
f 57/57/15 59/59/15 60/60/15
v -0.23883890 0.04181793 1.70245707
v -0.25450296 0.05881388 1.69716028
v -0.29227174 0.05881388 1.76919944
v -0.27660767 0.04181793 1.77449623
vt 0.757812500 0.984375000
vt 0.992187500 0.984375000
vt 0.992187500 0.515625000
vt 0.757812500 0.515625000
vn 0.63859563 0.69289401 0.33480367
f 61/61/16 62/62/16 63/63/16
f 61/61/16 63/63/16 64/64/16
v -0.25450296 0.05881388 1.69716028
v -0.27016703 0.04181793 1.69186348
v -0.30793581 0.04181793 1.76390264
v -0.29227174 0.05881388 1.76919944
vt 0.757812500 0.984375000
vt 0.992187500 0.984375000
vt 0.992187500 0.515625000
vt 0.757812500 0.515625000
vn -0.63859563 0.69289401 -0.33480367
f 65/65/17 66/66/17 67/67/17
f 65/65/17 67/67/17 68/68/17
v -0.25450296 0.17400865 1.56066503
v -0.16103001 0.13529088 1.56066503
v -0.18773657 0.10858433 1.51137508
v -0.25450296 0.13623987 1.51137508
vt 0.257812500 0.984375000
vt 0.492187500 0.984375000
vt 0.492187500 0.515625000
vt 0.257812500 0.515625000
vn 0.31233857 0.75405200 -0.57779771
f 69/69/18 70/70/18 71/71/18
f 69/69/18 71/71/18 72/72/18
v -0.16103001 0.13529088 1.56066503
v -0.12231225 0.04181793 1.56066503
v -0.16008103 0.04181793 1.51137508
v -0.18773657 0.10858433 1.51137508
vt 0.257812500 0.984375000
vt 0.492187500 0.984375000
vt 0.492187500 0.515625000
vt 0.257812500 0.515625000
vn 0.75405200 0.31233857 -0.57779771
f 73/73/19 74/74/19 75/75/19
f 73/73/19 75/75/19 76/76/19
v -0.12231225 0.04181793 1.56066503
v -0.16103001 -0.05165501 1.56066503
v -0.18773657 -0.02494846 1.51137508
v -0.16008103 0.04181793 1.51137508
vt 0.257812500 0.984375000
vt 0.492187500 0.984375000
vt 0.492187500 0.515625000
vt 0.257812500 0.515625000
vn 0.75405200 -0.31233857 -0.57779771
f 77/77/20 78/78/20 79/79/20
f 77/77/20 79/79/20 80/80/20
v -0.16103001 -0.05165501 1.56066503
v -0.25450296 -0.09037278 1.56066503
v -0.25450296 -0.05260400 1.51137508
v -0.18773657 -0.02494846 1.51137508
vt 0.257812500 0.984375000
vt 0.492187500 0.984375000
vt 0.492187500 0.515625000
vt 0.257812500 0.515625000
vn 0.31233857 -0.75405200 -0.57779771
f 81/81/21 82/82/21 83/83/21
f 81/81/21 83/83/21 84/84/21
v -0.25450296 -0.09037278 1.56066503
v -0.34797591 -0.05165501 1.56066503
v -0.32126936 -0.02494846 1.51137508
v -0.25450296 -0.05260400 1.51137508
vt 0.257812500 0.984375000
vt 0.492187500 0.984375000
vt 0.492187500 0.515625000
vt 0.257812500 0.515625000
vn -0.31233857 -0.75405200 -0.57779771
f 85/85/22 86/86/22 87/87/22
f 85/85/22 87/87/22 88/88/22
v -0.34797591 -0.05165501 1.56066503
v -0.38669368 0.04181793 1.56066503
v -0.34892490 0.04181793 1.51137508
v -0.32126936 -0.02494846 1.51137508
vt 0.257812500 0.984375000
vt 0.492187500 0.984375000
vt 0.492187500 0.515625000
vt 0.257812500 0.515625000
vn -0.75405200 -0.31233857 -0.57779771
f 89/89/23 90/90/23 91/91/23
f 89/89/23 91/91/23 92/92/23
v -0.38669368 0.04181793 1.56066503
v -0.34797591 0.13529088 1.56066503
v -0.32126936 0.10858433 1.51137508
v -0.34892490 0.04181793 1.51137508
vt 0.257812500 0.984375000
vt 0.492187500 0.984375000
vt 0.492187500 0.515625000
vt 0.257812500 0.515625000
vn -0.75405200 0.31233857 -0.57779771
f 93/93/24 94/94/24 95/95/24
f 93/93/24 95/95/24 96/96/24
v -0.34797591 0.13529088 1.56066503
v -0.25450296 0.17400865 1.56066503
v -0.25450296 0.13623987 1.51137508
v -0.32126936 0.10858433 1.51137508
vt 0.257812500 0.984375000
vt 0.492187500 0.984375000
vt 0.492187500 0.515625000
vt 0.257812500 0.515625000
vn -0.31233857 0.75405200 -0.57779771
f 97/97/25 98/98/25 99/99/25
f 97/97/25 99/99/25 100/100/25
v -0.25450296 0.16456645 1.65166186
v -0.16770665 0.12861424 1.65166186
v -0.16103001 0.13529088 1.56066503
v -0.25450296 0.17400865 1.56066503
vt 0.257812500 0.984375000
vt 0.492187500 0.984375000
vt 0.492187500 0.515625000
vt 0.257812500 0.515625000
vn 0.38093700 0.91966326 0.09542792
f 101/101/26 102/102/26 103/103/26
f 101/101/26 103/103/26 104/104/26
v -0.16770665 0.12861424 1.65166186
v -0.13175444 0.04181793 1.65166186
v -0.12231225 0.04181793 1.56066503
v -0.16103001 0.13529088 1.56066503
vt 0.257812500 0.984375000
vt 0.492187500 0.984375000
vt 0.492187500 0.515625000
vt 0.257812500 0.515625000
vn 0.91966326 0.38093700 0.09542792
f 105/105/27 106/106/27 107/107/27
f 105/105/27 107/107/27 108/108/27
v -0.13175444 0.04181793 1.65166186
v -0.16770665 -0.04497838 1.65166186
v -0.16103001 -0.05165501 1.56066503
v -0.12231225 0.04181793 1.56066503
vt 0.257812500 0.984375000
vt 0.492187500 0.984375000
vt 0.492187500 0.515625000
vt 0.257812500 0.515625000
vn 0.91966326 -0.38093700 0.09542792
f 109/109/28 110/110/28 111/111/28
f 109/109/28 111/111/28 112/112/28
v -0.16770665 -0.04497838 1.65166186
v -0.25450296 -0.08093058 1.65166186
v -0.25450296 -0.09037278 1.56066503
v -0.16103001 -0.05165501 1.56066503
vt 0.257812500 0.984375000
vt 0.492187500 0.984375000
vt 0.492187500 0.515625000
vt 0.257812500 0.515625000
vn 0.38093700 -0.91966326 0.09542792
f 113/113/29 114/114/29 115/115/29
f 113/113/29 115/115/29 116/116/29
v -0.25450296 -0.08093058 1.65166186
v -0.34129927 -0.04497838 1.65166186
v -0.34797591 -0.05165501 1.56066503
v -0.25450296 -0.09037278 1.56066503
vt 0.257812500 0.984375000
vt 0.492187500 0.984375000
vt 0.492187500 0.515625000
vt 0.257812500 0.515625000
vn -0.38093700 -0.91966326 0.09542792
f 117/117/30 118/118/30 119/119/30
f 117/117/30 119/119/30 120/120/30
v -0.34129927 -0.04497838 1.65166186
v -0.37725148 0.04181793 1.65166186
v -0.38669368 0.04181793 1.56066503
v -0.34797591 -0.05165501 1.56066503
vt 0.257812500 0.984375000
vt 0.492187500 0.984375000
vt 0.492187500 0.515625000
vt 0.257812500 0.515625000
vn -0.91966326 -0.38093700 0.09542792
f 121/121/31 122/122/31 123/123/31
f 121/121/31 123/123/31 124/124/31
v -0.37725148 0.04181793 1.65166186
v -0.34129927 0.12861424 1.65166186
v -0.34797591 0.13529088 1.56066503
v -0.38669368 0.04181793 1.56066503
vt 0.257812500 0.984375000
vt 0.492187500 0.984375000
vt 0.492187500 0.515625000
vt 0.257812500 0.515625000
vn -0.91966326 0.38093700 0.09542792
f 125/125/32 126/126/32 127/127/32
f 125/125/32 127/127/32 128/128/32
v -0.34129927 0.12861424 1.65166186
v -0.25450296 0.16456645 1.65166186
v -0.25450296 0.17400865 1.56066503
v -0.34797591 0.13529088 1.56066503
vt 0.257812500 0.984375000
vt 0.492187500 0.984375000
vt 0.492187500 0.515625000
vt 0.257812500 0.515625000
vn -0.38093700 0.91966326 0.09542792
f 129/129/33 130/130/33 131/131/33
f 129/129/33 131/131/33 132/132/33
v -0.25450296 0.13623987 1.51137508
v -0.18773657 0.10858433 1.51137508
v -0.16008103 0.04181793 1.51137508
v -0.18773657 -0.02494846 1.51137508
v -0.25450296 -0.05260400 1.51137508
v -0.32126936 -0.02494846 1.51137508
v -0.34892490 0.04181793 1.51137508
v -0.32126936 0.10858433 1.51137508
vt 0.454549513 0.909099026
vt 0.375000000 0.975000000
vt 0.295450487 0.909099026
vt 0.262500000 0.750000000
vt 0.295450487 0.590900974
vt 0.375000000 0.525000000
vt 0.454549513 0.590900974
vt 0.487500000 0.750000000
vn 0.00000000 0.00000000 -1.00000000
f 133/133/34 134/134/34 135/135/34
f 133/133/34 135/135/34 136/136/34
f 133/133/34 136/136/34 137/137/34
f 133/133/34 137/137/34 138/138/34
f 133/133/34 138/138/34 139/139/34
f 133/133/34 139/139/34 140/140/34
v -0.25450296 0.13151877 1.69716028
v -0.19107489 0.10524601 1.69716028
v -0.16770665 0.12861424 1.65166186
v -0.25450296 0.16456645 1.65166186
vt 0.757812500 0.984375000
vt 0.992187500 0.984375000
vt 0.992187500 0.515625000
vt 0.757812500 0.515625000
vn 0.31776637 0.76715587 0.55722204
f 141/141/35 142/142/35 143/143/35
f 141/141/35 143/143/35 144/144/35
v -0.19107489 0.10524601 1.69716028
v -0.16480212 0.04181793 1.69716028
v -0.13175444 0.04181793 1.65166186
v -0.16770665 0.12861424 1.65166186
vt 0.757812500 0.984375000
vt 0.992187500 0.984375000
vt 0.992187500 0.515625000
vt 0.757812500 0.515625000
vn 0.76715587 0.31776637 0.55722204
f 145/145/36 146/146/36 147/147/36
f 145/145/36 147/147/36 148/148/36
v -0.16480212 0.04181793 1.69716028
v -0.19107489 -0.02161014 1.69716028
v -0.16770665 -0.04497838 1.65166186
v -0.13175444 0.04181793 1.65166186
vt 0.757812500 0.984375000
vt 0.992187500 0.984375000
vt 0.992187500 0.515625000
vt 0.757812500 0.515625000
vn 0.76715587 -0.31776637 0.55722204
f 149/149/37 150/150/37 151/151/37
f 149/149/37 151/151/37 152/152/37
v -0.19107489 -0.02161014 1.69716028
v -0.25450296 -0.04788291 1.69716028
v -0.25450296 -0.08093058 1.65166186
v -0.16770665 -0.04497838 1.65166186
vt 0.757812500 0.984375000
vt 0.992187500 0.984375000
vt 0.992187500 0.515625000
vt 0.757812500 0.515625000
vn 0.31776637 -0.76715587 0.55722204
f 153/153/38 154/154/38 155/155/38
f 153/153/38 155/155/38 156/156/38
v -0.25450296 -0.04788291 1.69716028
v -0.31793104 -0.02161014 1.69716028
v -0.34129927 -0.04497838 1.65166186
v -0.25450296 -0.08093058 1.65166186
vt 0.757812500 0.984375000
vt 0.992187500 0.984375000
vt 0.992187500 0.515625000
vt 0.757812500 0.515625000
vn -0.31776637 -0.76715587 0.55722204
f 157/157/39 158/158/39 159/159/39
f 157/157/39 159/159/39 160/160/39
v -0.31793104 -0.02161014 1.69716028
v -0.34420380 0.04181793 1.69716028
v -0.37725148 0.04181793 1.65166186
v -0.34129927 -0.04497838 1.65166186
vt 0.757812500 0.984375000
vt 0.992187500 0.984375000
vt 0.992187500 0.515625000
vt 0.757812500 0.515625000
vn -0.76715587 -0.31776637 0.55722204
f 161/161/40 162/162/40 163/163/40
f 161/161/40 163/163/40 164/164/40
v -0.34420380 0.04181793 1.69716028
v -0.31793104 0.10524601 1.69716028
v -0.34129927 0.12861424 1.65166186
v -0.37725148 0.04181793 1.65166186
vt 0.757812500 0.984375000
vt 0.992187500 0.984375000
vt 0.992187500 0.515625000
vt 0.757812500 0.515625000
vn -0.76715587 0.31776637 0.55722204
f 165/165/41 166/166/41 167/167/41
f 165/165/41 167/167/41 168/168/41
v -0.31793104 0.10524601 1.69716028
v -0.25450296 0.13151877 1.69716028
v -0.25450296 0.16456645 1.65166186
v -0.34129927 0.12861424 1.65166186
vt 0.757812500 0.984375000
vt 0.992187500 0.984375000
vt 0.992187500 0.515625000
vt 0.757812500 0.515625000
vn -0.31776637 0.76715587 0.55722204
f 169/169/42 170/170/42 171/171/42
f 169/169/42 171/171/42 172/172/42
v -0.31793104 0.10524601 1.69716028
v -0.34420380 0.04181793 1.69716028
v -0.31793104 -0.02161014 1.69716028
v -0.25450296 -0.04788291 1.69716028
v -0.19107489 -0.02161014 1.69716028
v -0.16480212 0.04181793 1.69716028
v -0.19107489 0.10524601 1.69716028
v -0.25450296 0.13151877 1.69716028
vt 0.954549513 0.909099026
vt 0.875000000 0.975000000
vt 0.795450487 0.909099026
vt 0.762500000 0.750000000
vt 0.795450487 0.590900974
vt 0.875000000 0.525000000
vt 0.954549513 0.590900974
vt 0.987500000 0.750000000
vn 0.00000000 0.00000000 1.00000000
f 173/173/43 174/174/43 175/175/43
f 173/173/43 175/175/43 176/176/43
f 173/173/43 176/176/43 177/177/43
f 173/173/43 177/177/43 178/178/43
f 173/173/43 178/178/43 179/179/43
f 173/173/43 179/179/43 180/180/43
