mtllib pz_native_location_community_church_small_01_211.mtl
o pz_native_location_community_church_small_01_211_glass
usemtl Native_pz_native_location_community_church_small_01_211
v -1.21875000 -0.50600000 0.76546554
v -0.46875000 -0.50600000 0.76546554
v -0.46875000 -0.50600000 -0.80373882
v -1.21875000 -0.50600000 -0.80373882
vt 0.421875000 0.992187500
vt 0.796875000 0.992187500
vt 0.796875000 0.511718750
vt 0.421875000 0.511718750
vn -0.00000000 1.00000000 0.00000000
f 1/1/1 2/2/1 3/3/1
f 1/1/1 3/3/1 4/4/1
v -1.21875000 -0.50700000 -0.80373882
v -0.46875000 -0.50700000 -0.80373882
v -0.46875000 -0.50700000 0.76546554
v -1.21875000 -0.50700000 0.76546554
vt 0.421875000 0.511718750
vt 0.796875000 0.511718750
vt 0.796875000 0.992187500
vt 0.421875000 0.992187500
vn 0.00000000 -1.00000000 0.00000000
f 5/5/2 6/6/2 7/7/2
f 5/5/2 7/7/2 8/8/2
