mtllib pz_native_street_decoration_01_16.mtl
o pz_native_street_decoration_01_16
usemtl Native_pz_native_street_decoration_01_16
v -0.02148438 0.00195312 -0.24558686
v 0.00585938 0.00195312 -0.24558686
v 0.00585938 0.00195312 0.91536921
v -0.02148438 0.00195312 0.91536921
vt 0.488281250 0.052246094
vt 0.501953125 0.048828125
vt 0.501953125 0.404296875
vt 0.488281250 0.407714844
vn 0.00000000 -1.00000000 0.00000000
f 1/1/1 2/2/1 3/3/1
f 1/1/1 3/3/1 4/4/1
v 0.00585938 0.00195312 -0.24558686
v 0.00585938 0.02929688 -0.24558686
v 0.00585938 0.02929688 0.91536921
v 0.00585938 0.00195312 0.91536921
vt 0.501953125 0.048828125
vt 0.488281250 0.045410156
vt 0.488281250 0.400878906
vt 0.501953125 0.404296875
vn 1.00000000 0.00000000 0.00000000
f 5/5/2 6/6/2 7/7/2
f 5/5/2 7/7/2 8/8/2
v 0.00585938 0.02929688 -0.24558686
v -0.02148438 0.02929688 -0.24558686
v -0.02148438 0.02929688 0.91536921
v 0.00585938 0.02929688 0.91536921
vt 0.488281250 0.045410156
vt 0.474609375 0.048828125
vt 0.474609375 0.404296875
vt 0.488281250 0.400878906
vn 0.00000000 1.00000000 0.00000000
f 9/9/3 10/10/3 11/11/3
f 9/9/3 11/11/3 12/12/3
v -0.02148438 0.02929688 -0.24558686
v -0.02148438 0.00195312 -0.24558686
v -0.02148438 0.00195312 0.91536921
v -0.02148438 0.02929688 0.91536921
vt 0.474609375 0.048828125
vt 0.488281250 0.052246094
vt 0.488281250 0.407714844
vt 0.474609375 0.404296875
vn -1.00000000 0.00000000 0.00000000
f 13/13/4 14/14/4 15/15/4
f 13/13/4 15/15/4 16/16/4
v -0.02148438 0.00195312 0.91536921
v 0.00585938 0.00195312 0.91536921
v 0.00585938 0.02929688 0.91536921
v -0.02148438 0.02929688 0.91536921
vt 0.488281250 0.407714844
vt 0.501953125 0.404296875
vt 0.488281250 0.400878906
vt 0.474609375 0.404296875
vn 0.00000000 0.00000000 1.00000000
f 17/17/5 18/18/5 19/19/5
f 17/17/5 19/19/5 20/20/5
v -0.01700000 -0.00137500 0.33695793
v 0.01425000 -0.00137500 0.82175278
v 0.04550000 -0.00137500 0.83451054
v 0.06112500 -0.00137500 0.81537390
v 0.10800000 -0.00137500 0.74520622
v 0.12362500 -0.00137500 0.71331183
v 0.18612500 -0.00137500 -0.06491148
v 0.02987500 -0.00137500 -0.17973131
v 0.01425000 -0.00137500 -0.18611019
v -0.01700000 -0.00137500 0.15834931
vt 0.492187500 0.230468750
vt 0.507812500 0.375000000
vt 0.523437500 0.375000000
vt 0.531250000 0.367187500
vt 0.554687500 0.339843750
vt 0.562500000 0.328125000
vt 0.593750000 0.082031250
vt 0.515625000 0.066406250
vt 0.507812500 0.066406250
vt 0.492187500 0.175781250
vn 0.00000000 1.00000000 0.00000000
f 21/21/6 22/22/6 23/23/6
f 21/21/6 23/23/6 24/24/6
f 21/21/6 24/24/6 25/25/6
f 21/21/6 25/25/6 26/26/6
f 21/21/6 26/26/6 27/27/6
f 21/21/6 27/27/6 28/28/6
f 21/21/6 28/28/6 29/29/6
f 21/21/6 29/29/6 30/30/6
v -0.01700000 -0.00137500 0.15834931
v 0.01425000 -0.00137500 -0.18611019
v 0.02987500 -0.00137500 -0.17973131
v 0.18612500 -0.00137500 -0.06491148
v 0.12362500 -0.00137500 0.71331183
v 0.10800000 -0.00137500 0.74520622
v 0.06112500 -0.00137500 0.81537390
v 0.04550000 -0.00137500 0.83451054
v 0.01425000 -0.00137500 0.82175278
v -0.01700000 -0.00137500 0.33695793
vt 0.492187500 0.175781250
vt 0.507812500 0.066406250
vt 0.515625000 0.066406250
vt 0.593750000 0.082031250
vt 0.562500000 0.328125000
vt 0.554687500 0.339843750
vt 0.531250000 0.367187500
vt 0.523437500 0.375000000
vt 0.507812500 0.375000000
vt 0.492187500 0.230468750
vn 0.00000000 -1.00000000 0.00000000
f 31/31/7 32/32/7 33/33/7
f 31/31/7 33/33/7 34/34/7
f 31/31/7 34/34/7 35/35/7
f 31/31/7 35/35/7 36/36/7
f 31/31/7 36/36/7 37/37/7
f 31/31/7 37/37/7 38/38/7
f 31/31/7 38/38/7 39/39/7
f 31/31/7 39/39/7 40/40/7
