mtllib pz_native_location_entertainment_theatre_01_25.mtl
o pz_native_location_entertainment_theatre_01_25_glass
usemtl Native_pz_native_location_entertainment_theatre_01_25
v -1.43750000 -0.50600000 1.82435955
v -0.32812500 -0.50600000 1.82435955
v -0.32812500 -0.50600000 0.08930431
v -1.43750000 -0.50600000 0.08930431
vt 0.300781250 0.992187500
vt 0.578125000 0.992187500
vt 0.578125000 0.460937500
vt 0.300781250 0.460937500
vn -0.00000000 1.00000000 0.00000000
f 1/1/1 2/2/1 3/3/1
f 1/1/1 3/3/1 4/4/1
v -1.43750000 -0.50700000 0.08930431
v -0.32812500 -0.50700000 0.08930431
v -0.32812500 -0.50700000 1.82435955
v -1.43750000 -0.50700000 1.82435955
vt 0.300781250 0.460937500
vt 0.578125000 0.460937500
vt 0.578125000 0.992187500
vt 0.300781250 0.992187500
vn 0.00000000 -1.00000000 0.00000000
f 5/5/2 6/6/2 7/7/2
f 5/5/2 7/7/2 8/8/2
