mtllib pz_native_location_community_church_small_01_264.mtl
o pz_native_location_community_church_small_01_264_glass
usemtl Native_pz_native_location_community_church_small_01_264
v -1.48437500 -0.50600000 2.46224750
v -0.46875000 -0.50600000 2.46224750
v -0.46875000 -0.50600000 0.52306812
v -1.48437500 -0.50600000 0.52306812
vt 0.277343750 0.992187500
vt 0.531250000 0.992187500
vt 0.531250000 0.398437500
vt 0.277343750 0.398437500
vn -0.00000000 1.00000000 0.00000000
f 1/1/1 2/2/1 3/3/1
f 1/1/1 3/3/1 4/4/1
v -1.48437500 -0.50700000 0.52306812
v -0.46875000 -0.50700000 0.52306812
v -0.46875000 -0.50700000 2.46224750
v -1.48437500 -0.50700000 2.46224750
vt 0.277343750 0.398437500
vt 0.531250000 0.398437500
vt 0.531250000 0.992187500
vt 0.277343750 0.992187500
vn 0.00000000 -1.00000000 0.00000000
f 5/5/2 6/6/2 7/7/2
f 5/5/2 7/7/2 8/8/2
