mtllib pz_native_fixtures_windows_metal_18.mtl
o pz_native_fixtures_windows_metal_18_glass
usemtl Native_pz_native_fixtures_windows_metal_18
v -0.49400000 0.39062500 2.11778801
v -0.49400000 -0.46875000 2.11778801
v -0.49400000 -0.46875000 0.76546554
v -0.49400000 0.39062500 0.76546554
vt 0.476562500 0.984375000
vt 0.906250000 0.984375000
vt 0.906250000 0.156250000
vt 0.476562500 0.156250000
vn 1.00000000 0.00000000 0.00000000
f 1/1/1 2/2/1 3/3/1
f 1/1/1 3/3/1 4/4/1
v -0.49300000 0.39062500 0.76546554
v -0.49300000 -0.46875000 0.76546554
v -0.49300000 -0.46875000 2.11778801
v -0.49300000 0.39062500 2.11778801
vt 0.476562500 0.156250000
vt 0.906250000 0.156250000
vt 0.906250000 0.984375000
vt 0.476562500 0.984375000
vn -1.00000000 0.00000000 0.00000000
f 5/5/2 6/6/2 7/7/2
f 5/5/2 7/7/2 8/8/2
