mtllib pz_native_fixtures_windows_wood_88.mtl
o pz_native_fixtures_windows_wood_88_frame
usemtl Native_pz_native_fixtures_windows_wood_88
v -0.50000000 0.51562500 2.87049579
v -0.50000000 -0.64062500 2.87049579
v -0.50000000 -0.64062500 0.73995003
v -0.50000000 0.51562500 0.73995003
vt 0.007812500 0.992187500
vt 0.296875000 0.992187500
vt 0.296875000 0.339843750
vt 0.007812500 0.339843750
vn 1.00000000 0.00000000 0.00000000
f 1/1/1 2/2/1 3/3/1
f 1/1/1 3/3/1 4/4/1
v -0.46000000 0.51562500 0.73995003
v -0.46000000 -0.64062500 0.73995003
v -0.46000000 -0.64062500 2.87049579
v -0.46000000 0.51562500 2.87049579
vt 0.007812500 0.339843750
vt 0.296875000 0.339843750
vt 0.296875000 0.992187500
vt 0.007812500 0.992187500
vn -1.00000000 0.00000000 0.00000000
f 5/5/2 6/6/2 7/7/2
f 5/5/2 7/7/2 8/8/2
v -0.46000000 -0.43750000 2.41121647
v -0.46000000 -0.54687500 2.41121647
v -0.50000000 -0.54687500 2.41121647
v -0.50000000 -0.43750000 2.41121647
vt 0.009765625 0.318359375
vt 0.021484375 0.318359375
vt 0.021484375 0.330078125
vt 0.009765625 0.330078125
vn 0.00000000 -0.00000000 -1.00000000
f 9/9/3 10/10/3 11/11/3
f 9/9/3 11/11/3 12/12/3
v -0.46000000 -0.54687500 2.41121647
v -0.46000000 -0.59375000 2.34742767
v -0.50000000 -0.59375000 2.34742767
v -0.50000000 -0.54687500 2.41121647
vt 0.025390625 0.318359375
vt 0.037109375 0.318359375
vt 0.037109375 0.330078125
vt 0.025390625 0.330078125
vn 0.00000000 0.80582296 -0.59215653
f 13/13/4 14/14/4 15/15/4
f 13/13/4 15/15/4 16/16/4
v -0.46000000 -0.59375000 2.34742767
v -0.46000000 -0.59375000 2.32191215
v -0.50000000 -0.59375000 2.32191215
v -0.50000000 -0.59375000 2.34742767
vt 0.041015625 0.318359375
vt 0.052734375 0.318359375
vt 0.052734375 0.330078125
vt 0.041015625 0.330078125
vn 0.00000000 1.00000000 0.00000000
f 17/17/5 18/18/5 19/19/5
f 17/17/5 19/19/5 20/20/5
v -0.46000000 -0.59375000 2.32191215
v -0.46000000 -0.56250000 2.32191215
v -0.50000000 -0.56250000 2.32191215
v -0.50000000 -0.59375000 2.32191215
vt 0.056640625 0.318359375
vt 0.068359375 0.318359375
vt 0.068359375 0.330078125
vt 0.056640625 0.330078125
vn 0.00000000 -0.00000000 1.00000000
f 21/21/6 22/22/6 23/23/6
f 21/21/6 23/23/6 24/24/6
v -0.46000000 -0.56250000 2.32191215
v -0.46000000 -0.56250000 0.82925434
v -0.50000000 -0.56250000 0.82925434
v -0.50000000 -0.56250000 2.32191215
vt 0.072265625 0.318359375
vt 0.083984375 0.318359375
vt 0.083984375 0.330078125
vt 0.072265625 0.330078125
vn 0.00000000 1.00000000 0.00000000
f 25/25/7 26/26/7 27/27/7
f 25/25/7 27/27/7 28/28/7
v -0.46000000 -0.56250000 0.82925434
v -0.46000000 -0.62500000 0.79098106
v -0.50000000 -0.62500000 0.79098106
v -0.50000000 -0.56250000 0.82925434
vt 0.087890625 0.318359375
vt 0.099609375 0.318359375
vt 0.099609375 0.330078125
vt 0.087890625 0.330078125
vn 0.00000000 0.52223297 -0.85280287
f 29/29/8 30/30/8 31/31/8
f 29/29/8 31/31/8 32/32/8
v -0.46000000 -0.62500000 0.79098106
v -0.46000000 -0.62500000 0.75270779
v -0.50000000 -0.62500000 0.75270779
v -0.50000000 -0.62500000 0.79098106
vt 0.103515625 0.318359375
vt 0.115234375 0.318359375
vt 0.115234375 0.330078125
vt 0.103515625 0.330078125
vn 0.00000000 1.00000000 0.00000000
f 33/33/9 34/34/9 35/35/9
f 33/33/9 35/35/9 36/36/9
v -0.46000000 -0.62500000 0.75270779
v -0.46000000 0.10937500 0.75270779
v -0.50000000 0.10937500 0.75270779
v -0.50000000 -0.62500000 0.75270779
vt 0.119140625 0.318359375
vt 0.130859375 0.318359375
vt 0.130859375 0.330078125
vt 0.119140625 0.330078125
vn 0.00000000 -0.00000000 1.00000000
f 37/37/10 38/38/10 39/39/10
f 37/37/10 39/39/10 40/40/10
v -0.46000000 0.10937500 0.75270779
v -0.46000000 0.14062500 0.79098106
v -0.50000000 0.14062500 0.79098106
v -0.50000000 0.10937500 0.75270779
vt 0.134765625 0.318359375
vt 0.146484375 0.318359375
vt 0.146484375 0.330078125
vt 0.134765625 0.330078125
vn 0.00000000 -0.77459667 0.63245553
f 41/41/11 42/42/11 43/43/11
f 41/41/11 43/43/11 44/44/11
v -0.46000000 0.14062500 0.79098106
v -0.46000000 0.20312500 0.77822330
v -0.50000000 0.20312500 0.77822330
v -0.50000000 0.14062500 0.79098106
vt 0.150390625 0.318359375
vt 0.162109375 0.318359375
vt 0.162109375 0.330078125
vt 0.150390625 0.330078125
vn 0.00000000 0.20000000 0.97979590
f 45/45/12 46/46/12 47/47/12
f 45/45/12 47/47/12 48/48/12
v -0.46000000 0.20312500 0.77822330
v -0.46000000 0.25000000 0.80373882
v -0.50000000 0.25000000 0.80373882
v -0.50000000 0.20312500 0.77822330
vt 0.166015625 0.318359375
vt 0.177734375 0.318359375
vt 0.177734375 0.330078125
vt 0.166015625 0.330078125
vn 0.00000000 -0.47809144 0.87831007
f 49/49/13 50/50/13 51/51/13
f 49/49/13 51/51/13 52/52/13
v -0.46000000 0.25000000 0.80373882
v -0.46000000 0.25000000 1.65850868
v -0.50000000 0.25000000 1.65850868
v -0.50000000 0.25000000 0.80373882
vt 0.181640625 0.318359375
vt 0.193359375 0.318359375
vt 0.193359375 0.330078125
vt 0.181640625 0.330078125
vn 0.00000000 -1.00000000 0.00000000
f 53/53/14 54/54/14 55/55/14
f 53/53/14 55/55/14 56/56/14
v -0.46000000 0.25000000 1.65850868
v -0.46000000 0.21875000 1.84987507
v -0.50000000 0.21875000 1.84987507
v -0.50000000 0.25000000 1.65850868
vt 0.197265625 0.318359375
vt 0.208984375 0.318359375
vt 0.208984375 0.330078125
vt 0.197265625 0.330078125
vn 0.00000000 -0.98692754 -0.16116459
f 57/57/15 58/58/15 59/59/15
f 57/57/15 59/59/15 60/60/15
v -0.46000000 0.21875000 1.84987507
v -0.46000000 0.15625000 2.00296818
v -0.50000000 0.15625000 2.00296818
v -0.50000000 0.21875000 1.84987507
vt 0.212890625 0.318359375
vt 0.224609375 0.318359375
vt 0.224609375 0.330078125
vt 0.212890625 0.330078125
vn 0.00000000 -0.92582010 -0.37796447
f 61/61/16 62/62/16 63/63/16
f 61/61/16 63/63/16 64/64/16
v -0.46000000 0.15625000 2.00296818
v -0.46000000 0.00000000 2.20709232
v -0.50000000 0.00000000 2.20709232
v -0.50000000 0.15625000 2.00296818
vt 0.228515625 0.318359375
vt 0.240234375 0.318359375
vt 0.240234375 0.330078125
vt 0.228515625 0.330078125
vn 0.00000000 -0.79406667 -0.60783067
f 65/65/17 66/66/17 67/67/17
f 65/65/17 67/67/17 68/68/17
v -0.46000000 0.00000000 2.20709232
v -0.46000000 -0.03125000 2.20709232
v -0.50000000 -0.03125000 2.20709232
v -0.50000000 0.00000000 2.20709232
vt 0.244140625 0.318359375
vt 0.255859375 0.318359375
vt 0.255859375 0.330078125
vt 0.244140625 0.330078125
vn 0.00000000 -0.00000000 -1.00000000
f 69/69/18 70/70/18 71/71/18
f 69/69/18 71/71/18 72/72/18
v -0.46000000 -0.03125000 2.20709232
v -0.46000000 -0.03125000 2.23260784
v -0.50000000 -0.03125000 2.23260784
v -0.50000000 -0.03125000 2.20709232
vt 0.009765625 0.302734375
vt 0.021484375 0.302734375
vt 0.021484375 0.314453125
vt 0.009765625 0.314453125
vn 0.00000000 -1.00000000 0.00000000
f 73/73/19 74/74/19 75/75/19
f 73/73/19 75/75/19 76/76/19
v -0.46000000 -0.03125000 2.23260784
v -0.46000000 -0.18750000 2.33466991
v -0.50000000 -0.18750000 2.33466991
v -0.50000000 -0.03125000 2.23260784
vt 0.025390625 0.302734375
vt 0.037109375 0.302734375
vt 0.037109375 0.314453125
vt 0.025390625 0.314453125
vn 0.00000000 -0.54686874 -0.83721836
f 77/77/20 78/78/20 79/79/20
f 77/77/20 79/79/20 80/80/20
v -0.46000000 -0.18750000 2.33466991
v -0.46000000 -0.43750000 2.41121647
v -0.50000000 -0.43750000 2.41121647
v -0.50000000 -0.18750000 2.33466991
vt 0.041015625 0.302734375
vt 0.052734375 0.302734375
vt 0.052734375 0.314453125
vt 0.041015625 0.314453125
vn 0.00000000 -0.29277002 -0.95618289
f 81/81/21 82/82/21 83/83/21
f 81/81/21 83/83/21 84/84/21
v -0.46000000 -0.48437500 2.32191215
v -0.46000000 -0.20312500 2.21985008
v -0.50000000 -0.20312500 2.21985008
v -0.50000000 -0.48437500 2.32191215
vt 0.056640625 0.302734375
vt 0.068359375 0.302734375
vt 0.068359375 0.314453125
vt 0.056640625 0.314453125
vn 0.00000000 0.34112115 0.94001934
f 85/85/22 86/86/22 87/87/22
f 85/85/22 87/87/22 88/88/22
v -0.46000000 -0.20312500 2.21985008
v -0.46000000 -0.25000000 2.10503025
v -0.50000000 -0.25000000 2.10503025
v -0.50000000 -0.20312500 2.21985008
vt 0.072265625 0.302734375
vt 0.083984375 0.302734375
vt 0.083984375 0.314453125
vt 0.072265625 0.314453125
vn 0.00000000 0.92582010 -0.37796447
f 89/89/23 90/90/23 91/91/23
f 89/89/23 91/91/23 92/92/23
v -0.46000000 -0.25000000 2.10503025
v -0.46000000 -0.20312500 2.11778801
v -0.50000000 -0.20312500 2.11778801
v -0.50000000 -0.25000000 2.10503025
vt 0.087890625 0.302734375
vt 0.099609375 0.302734375
vt 0.099609375 0.314453125
vt 0.087890625 0.314453125
vn 0.00000000 -0.26261287 0.96490128
f 93/93/24 94/94/24 95/95/24
f 93/93/24 95/95/24 96/96/24
v -0.46000000 -0.20312500 2.11778801
v -0.46000000 -0.20312500 2.15606128
v -0.50000000 -0.20312500 2.15606128
v -0.50000000 -0.20312500 2.11778801
vt 0.103515625 0.302734375
vt 0.115234375 0.302734375
vt 0.115234375 0.314453125
vt 0.103515625 0.314453125
vn 0.00000000 -1.00000000 0.00000000
f 97/97/25 98/98/25 99/99/25
f 97/97/25 99/99/25 100/100/25
v -0.46000000 -0.20312500 2.15606128
v -0.46000000 -0.15625000 2.19433456
v -0.50000000 -0.15625000 2.19433456
v -0.50000000 -0.20312500 2.15606128
vt 0.119140625 0.302734375
vt 0.130859375 0.302734375
vt 0.130859375 0.314453125
vt 0.119140625 0.314453125
vn 0.00000000 -0.63245553 0.77459667
f 101/101/26 102/102/26 103/103/26
f 101/101/26 103/103/26 104/104/26
v -0.46000000 -0.15625000 2.19433456
v -0.46000000 0.03125000 2.00296818
v -0.50000000 0.03125000 2.00296818
v -0.50000000 -0.15625000 2.19433456
vt 0.134765625 0.302734375
vt 0.146484375 0.302734375
vt 0.146484375 0.314453125
vt 0.134765625 0.314453125
vn 0.00000000 0.71428571 0.69985421
f 105/105/27 106/106/27 107/107/27
f 105/105/27 107/107/27 108/108/27
v -0.46000000 0.03125000 2.00296818
v -0.46000000 0.03125000 1.95193714
v -0.50000000 0.03125000 1.95193714
v -0.50000000 0.03125000 2.00296818
vt 0.150390625 0.302734375
vt 0.162109375 0.302734375
vt 0.162109375 0.314453125
vt 0.150390625 0.314453125
vn 0.00000000 1.00000000 0.00000000
f 109/109/28 110/110/28 111/111/28
f 109/109/28 111/111/28 112/112/28
v -0.46000000 0.03125000 1.95193714
v -0.46000000 -0.01562500 1.93917938
v -0.50000000 -0.01562500 1.93917938
v -0.50000000 0.03125000 1.95193714
vt 0.166015625 0.302734375
vt 0.177734375 0.302734375
vt 0.177734375 0.314453125
vt 0.166015625 0.314453125
vn 0.00000000 0.26261287 -0.96490128
f 113/113/29 114/114/29 115/115/29
f 113/113/29 115/115/29 116/116/29
v -0.46000000 -0.01562500 1.93917938
v -0.46000000 -0.01562500 1.91366386
v -0.50000000 -0.01562500 1.91366386
v -0.50000000 -0.01562500 1.93917938
vt 0.181640625 0.302734375
vt 0.193359375 0.302734375
vt 0.193359375 0.314453125
vt 0.181640625 0.314453125
vn 0.00000000 1.00000000 0.00000000
f 117/117/30 118/118/30 119/119/30
f 117/117/30 119/119/30 120/120/30
v -0.46000000 -0.01562500 1.91366386
v -0.46000000 0.06250000 1.93917938
v -0.50000000 0.06250000 1.93917938
v -0.50000000 -0.01562500 1.91366386
vt 0.197265625 0.302734375
vt 0.208984375 0.302734375
vt 0.208984375 0.314453125
vt 0.197265625 0.314453125
vn 0.00000000 -0.31046021 0.95058638
f 121/121/31 122/122/31 123/123/31
f 121/121/31 123/123/31 124/124/31
v -0.46000000 0.06250000 1.93917938
v -0.46000000 0.09375000 1.88814834
v -0.50000000 0.09375000 1.88814834
v -0.50000000 0.06250000 1.93917938
vt 0.212890625 0.302734375
vt 0.224609375 0.302734375
vt 0.224609375 0.314453125
vt 0.212890625 0.314453125
vn 0.00000000 0.85280287 0.52223297
f 125/125/32 126/126/32 127/127/32
f 125/125/32 127/127/32 128/128/32
v -0.46000000 0.09375000 1.88814834
v -0.46000000 0.14062500 1.73505523
v -0.50000000 0.14062500 1.73505523
v -0.50000000 0.09375000 1.88814834
vt 0.228515625 0.302734375
vt 0.240234375 0.302734375
vt 0.240234375 0.314453125
vt 0.228515625 0.314453125
vn 0.00000000 0.95618289 0.29277002
f 129/129/33 130/130/33 131/131/33
f 129/129/33 131/131/33 132/132/33
v -0.46000000 0.14062500 1.73505523
v -0.46000000 0.14062500 1.62023540
v -0.50000000 0.14062500 1.62023540
v -0.50000000 0.14062500 1.73505523
vt 0.244140625 0.302734375
vt 0.255859375 0.302734375
vt 0.255859375 0.314453125
vt 0.244140625 0.314453125
vn 0.00000000 1.00000000 0.00000000
f 133/133/34 134/134/34 135/135/34
f 133/133/34 135/135/34 136/136/34
v -0.46000000 0.14062500 1.62023540
v -0.46000000 0.04687500 1.62023540
v -0.50000000 0.04687500 1.62023540
v -0.50000000 0.14062500 1.62023540
vt 0.009765625 0.287109375
vt 0.021484375 0.287109375
vt 0.021484375 0.298828125
vt 0.009765625 0.298828125
vn 0.00000000 -0.00000000 -1.00000000
f 137/137/35 138/138/35 139/139/35
f 137/137/35 139/139/35 140/140/35
v -0.46000000 0.04687500 1.62023540
v -0.46000000 0.04687500 1.54368885
v -0.50000000 0.04687500 1.54368885
v -0.50000000 0.04687500 1.62023540
vt 0.025390625 0.287109375
vt 0.037109375 0.287109375
vt 0.037109375 0.298828125
vt 0.025390625 0.298828125
vn 0.00000000 1.00000000 0.00000000
f 141/141/36 142/142/36 143/143/36
f 141/141/36 143/143/36 144/144/36
v -0.46000000 0.04687500 1.54368885
v -0.46000000 0.14062500 1.53093109
v -0.50000000 0.14062500 1.53093109
v -0.50000000 0.04687500 1.54368885
vt 0.041015625 0.287109375
vt 0.052734375 0.287109375
vt 0.052734375 0.298828125
vt 0.041015625 0.298828125
vn 0.00000000 0.13483997 0.99086739
f 145/145/37 146/146/37 147/147/37
f 145/145/37 147/147/37 148/148/37
v -0.46000000 0.14062500 1.53093109
v -0.46000000 0.14062500 1.22474487
v -0.50000000 0.14062500 1.22474487
v -0.50000000 0.14062500 1.53093109
vt 0.056640625 0.287109375
vt 0.068359375 0.287109375
vt 0.068359375 0.298828125
vt 0.056640625 0.298828125
vn 0.00000000 1.00000000 0.00000000
f 149/149/38 150/150/38 151/151/38
f 149/149/38 151/151/38 152/152/38
v -0.46000000 0.14062500 1.22474487
v -0.46000000 0.09375000 1.22474487
v -0.50000000 0.09375000 1.22474487
v -0.50000000 0.14062500 1.22474487
vt 0.072265625 0.287109375
vt 0.083984375 0.287109375
vt 0.083984375 0.298828125
vt 0.072265625 0.298828125
vn 0.00000000 -0.00000000 -1.00000000
f 153/153/39 154/154/39 155/155/39
f 153/153/39 155/155/39 156/156/39
v -0.46000000 0.09375000 1.22474487
v -0.46000000 0.09375000 1.18647159
v -0.50000000 0.09375000 1.18647159
v -0.50000000 0.09375000 1.22474487
vt 0.087890625 0.287109375
vt 0.099609375 0.287109375
vt 0.099609375 0.298828125
vt 0.087890625 0.298828125
vn 0.00000000 1.00000000 0.00000000
f 157/157/40 158/158/40 159/159/40
f 157/157/40 159/159/40 160/160/40
v -0.46000000 0.09375000 1.18647159
v -0.46000000 0.14062500 1.18647159
v -0.50000000 0.14062500 1.18647159
v -0.50000000 0.09375000 1.18647159
vt 0.103515625 0.287109375
vt 0.115234375 0.287109375
vt 0.115234375 0.298828125
vt 0.103515625 0.298828125
vn 0.00000000 -0.00000000 1.00000000
f 161/161/41 162/162/41 163/163/41
f 161/161/41 163/163/41 164/164/41
v -0.46000000 0.14062500 1.18647159
v -0.46000000 0.14062500 0.86752762
v -0.50000000 0.14062500 0.86752762
v -0.50000000 0.14062500 1.18647159
vt 0.119140625 0.287109375
vt 0.130859375 0.287109375
vt 0.130859375 0.298828125
vt 0.119140625 0.298828125
vn 0.00000000 1.00000000 0.00000000
f 165/165/42 166/166/42 167/167/42
f 165/165/42 167/167/42 168/168/42
v -0.46000000 0.14062500 0.86752762
v -0.46000000 -0.15625000 0.86752762
v -0.50000000 -0.15625000 0.86752762
v -0.50000000 0.14062500 0.86752762
vt 0.134765625 0.287109375
vt 0.146484375 0.287109375
vt 0.146484375 0.298828125
vt 0.134765625 0.298828125
vn 0.00000000 -0.00000000 -1.00000000
f 169/169/43 170/170/43 171/171/43
f 169/169/43 171/171/43 172/172/43
v -0.46000000 -0.15625000 0.86752762
v -0.46000000 -0.15625000 0.93131641
v -0.50000000 -0.15625000 0.93131641
v -0.50000000 -0.15625000 0.86752762
vt 0.150390625 0.287109375
vt 0.162109375 0.287109375
vt 0.162109375 0.298828125
vt 0.150390625 0.298828125
vn 0.00000000 -1.00000000 0.00000000
f 173/173/44 174/174/44 175/175/44
f 173/173/44 175/175/44 176/176/44
v -0.46000000 -0.15625000 0.93131641
v -0.46000000 -0.20312500 0.93131641
v -0.50000000 -0.20312500 0.93131641
v -0.50000000 -0.15625000 0.93131641
vt 0.166015625 0.287109375
vt 0.177734375 0.287109375
vt 0.177734375 0.298828125
vt 0.166015625 0.298828125
vn 0.00000000 -0.00000000 -1.00000000
f 177/177/45 178/178/45 179/179/45
f 177/177/45 179/179/45 180/180/45
v -0.46000000 -0.20312500 0.93131641
v -0.46000000 -0.20312500 0.86752762
v -0.50000000 -0.20312500 0.86752762
v -0.50000000 -0.20312500 0.93131641
vt 0.181640625 0.287109375
vt 0.193359375 0.287109375
vt 0.193359375 0.298828125
vt 0.181640625 0.298828125
vn 0.00000000 1.00000000 0.00000000
f 181/181/46 182/182/46 183/183/46
f 181/181/46 183/183/46 184/184/46
v -0.46000000 -0.20312500 0.86752762
v -0.46000000 -0.50000000 0.86752762
v -0.50000000 -0.50000000 0.86752762
v -0.50000000 -0.20312500 0.86752762
vt 0.197265625 0.287109375
vt 0.208984375 0.287109375
vt 0.208984375 0.298828125
vt 0.197265625 0.298828125
vn 0.00000000 -0.00000000 -1.00000000
f 185/185/47 186/186/47 187/187/47
f 185/185/47 187/187/47 188/188/47
v -0.46000000 -0.50000000 0.86752762
v -0.46000000 -0.50000000 1.53093109
v -0.50000000 -0.50000000 1.53093109
v -0.50000000 -0.50000000 0.86752762
vt 0.212890625 0.287109375
vt 0.224609375 0.287109375
vt 0.224609375 0.298828125
vt 0.212890625 0.298828125
vn 0.00000000 -1.00000000 0.00000000
f 189/189/48 190/190/48 191/191/48
f 189/189/48 191/191/48 192/192/48
v -0.46000000 -0.50000000 1.53093109
v -0.46000000 -0.45312500 1.56920437
v -0.50000000 -0.45312500 1.56920437
v -0.50000000 -0.50000000 1.53093109
vt 0.228515625 0.287109375
vt 0.240234375 0.287109375
vt 0.240234375 0.298828125
vt 0.228515625 0.298828125
vn 0.00000000 -0.63245553 0.77459667
f 193/193/49 194/194/49 195/195/49
f 193/193/49 195/195/49 196/196/49
v -0.46000000 -0.45312500 1.56920437
v -0.46000000 -0.50000000 1.62023540
v -0.50000000 -0.50000000 1.62023540
v -0.50000000 -0.45312500 1.56920437
vt 0.244140625 0.287109375
vt 0.255859375 0.287109375
vt 0.255859375 0.298828125
vt 0.244140625 0.298828125
vn 0.00000000 -0.73645969 -0.67648143
f 197/197/50 198/198/50 199/199/50
f 197/197/50 199/199/50 200/200/50
v -0.46000000 -0.50000000 1.62023540
v -0.46000000 -0.50000000 1.93917938
v -0.50000000 -0.50000000 1.93917938
v -0.50000000 -0.50000000 1.62023540
vt 0.009765625 0.271484375
vt 0.021484375 0.271484375
vt 0.021484375 0.283203125
vt 0.009765625 0.283203125
vn 0.00000000 -1.00000000 0.00000000
f 201/201/51 202/202/51 203/203/51
f 201/201/51 203/203/51 204/204/51
v -0.46000000 -0.50000000 1.93917938
v -0.46000000 -0.42187500 1.95193714
v -0.50000000 -0.42187500 1.95193714
v -0.50000000 -0.50000000 1.93917938
vt 0.025390625 0.271484375
vt 0.037109375 0.271484375
vt 0.037109375 0.283203125
vt 0.025390625 0.283203125
vn 0.00000000 -0.16116459 0.98692754
f 205/205/52 206/206/52 207/207/52
f 205/205/52 207/207/52 208/208/52
v -0.46000000 -0.42187500 1.95193714
v -0.46000000 -0.42187500 1.97745266
v -0.50000000 -0.42187500 1.97745266
v -0.50000000 -0.42187500 1.95193714
vt 0.041015625 0.271484375
vt 0.052734375 0.271484375
vt 0.052734375 0.283203125
vt 0.041015625 0.283203125
vn 0.00000000 -1.00000000 0.00000000
f 209/209/53 210/210/53 211/211/53
f 209/209/53 211/211/53 212/212/53
v -0.46000000 -0.42187500 1.97745266
v -0.46000000 -0.50000000 1.97745266
v -0.50000000 -0.50000000 1.97745266
v -0.50000000 -0.42187500 1.97745266
vt 0.056640625 0.271484375
vt 0.068359375 0.271484375
vt 0.068359375 0.283203125
vt 0.056640625 0.283203125
vn 0.00000000 -0.00000000 -1.00000000
f 213/213/54 214/214/54 215/215/54
f 213/213/54 215/215/54 216/216/54
v -0.46000000 -0.50000000 1.97745266
v -0.46000000 -0.48437500 2.32191215
v -0.50000000 -0.48437500 2.32191215
v -0.50000000 -0.50000000 1.97745266
vt 0.072265625 0.271484375
vt 0.083984375 0.271484375
vt 0.083984375 0.283203125
vt 0.072265625 0.283203125
vn 0.00000000 -0.99897278 0.04531433
f 217/217/55 218/218/55 219/219/55
f 217/217/55 219/219/55 220/220/55
