mtllib pz_native_fixtures_windows_white_49.mtl
o pz_native_fixtures_windows_white_49_frame
usemtl Native_pz_native_fixtures_windows_white_49
v -0.50000000 -0.50000000 2.39845871
v 0.35937500 -0.50000000 2.39845871
v 0.35937500 -0.50000000 0.75270779
v -0.50000000 -0.50000000 0.75270779
vt 0.015625000 0.992187500
vt 0.445312500 0.992187500
vt 0.445312500 0.488281250
vt 0.015625000 0.488281250
vn -0.00000000 1.00000000 0.00000000
f 1/1/1 2/2/1 3/3/1
f 1/1/1 3/3/1 4/4/1
v -0.50000000 -0.54000000 0.75270779
v 0.35937500 -0.54000000 0.75270779
v 0.35937500 -0.54000000 2.39845871
v -0.50000000 -0.54000000 2.39845871
vt 0.015625000 0.488281250
vt 0.445312500 0.488281250
vt 0.445312500 0.992187500
vt 0.015625000 0.992187500
vn 0.00000000 -1.00000000 0.00000000
f 5/5/2 6/6/2 7/7/2
f 5/5/2 7/7/2 8/8/2
v -0.45312500 -0.54000000 2.38570095
v 0.34375000 -0.54000000 2.38570095
v 0.34375000 -0.50000000 2.38570095
v -0.45312500 -0.50000000 2.38570095
vt 0.019531250 0.466796875
vt 0.042968750 0.466796875
vt 0.042968750 0.478515625
vt 0.019531250 0.478515625
vn 0.00000000 0.00000000 1.00000000
f 9/9/3 10/10/3 11/11/3
f 9/9/3 11/11/3 12/12/3
v 0.34375000 -0.54000000 2.38570095
v 0.32812500 -0.54000000 0.79098106
v 0.32812500 -0.50000000 0.79098106
v 0.34375000 -0.50000000 2.38570095
vt 0.050781250 0.466796875
vt 0.074218750 0.466796875
vt 0.074218750 0.478515625
vt 0.050781250 0.478515625
vn 0.99995200 0.00000000 -0.00979749
f 13/13/4 14/14/4 15/15/4
f 13/13/4 15/15/4 16/16/4
v 0.32812500 -0.54000000 0.79098106
v -0.46875000 -0.54000000 0.77822330
v -0.46875000 -0.50000000 0.77822330
v 0.32812500 -0.50000000 0.79098106
vt 0.082031250 0.466796875
vt 0.105468750 0.466796875
vt 0.105468750 0.478515625
vt 0.082031250 0.478515625
vn 0.01600769 0.00000000 -0.99987187
f 17/17/5 18/18/5 19/19/5
f 17/17/5 19/19/5 20/20/5
v -0.46875000 -0.54000000 0.77822330
v -0.48437500 -0.54000000 0.80373882
v -0.48437500 -0.50000000 0.80373882
v -0.46875000 -0.50000000 0.77822330
vt 0.113281250 0.466796875
vt 0.136718750 0.466796875
vt 0.136718750 0.478515625
vt 0.113281250 0.478515625
vn -0.85280287 0.00000000 -0.52223297
f 21/21/6 22/22/6 23/23/6
f 21/21/6 23/23/6 24/24/6
v -0.48437500 -0.54000000 0.80373882
v -0.48437500 -0.54000000 2.37294319
v -0.48437500 -0.50000000 2.37294319
v -0.48437500 -0.50000000 0.80373882
vt 0.144531250 0.466796875
vt 0.167968750 0.466796875
vt 0.167968750 0.478515625
vt 0.144531250 0.478515625
vn -1.00000000 0.00000000 0.00000000
f 25/25/7 26/26/7 27/27/7
f 25/25/7 27/27/7 28/28/7
v -0.48437500 -0.54000000 2.37294319
v -0.45312500 -0.54000000 2.38570095
v -0.45312500 -0.50000000 2.38570095
v -0.48437500 -0.50000000 2.37294319
vt 0.175781250 0.466796875
vt 0.199218750 0.466796875
vt 0.199218750 0.478515625
vt 0.175781250 0.478515625
vn -0.37796447 0.00000000 0.92582010
f 29/29/8 30/30/8 31/31/8
f 29/29/8 31/31/8 32/32/8
v -0.37500000 -0.54000000 1.64575092
v -0.39062500 -0.54000000 0.85476986
v -0.39062500 -0.50000000 0.85476986
v -0.37500000 -0.50000000 1.64575092
vt 0.207031250 0.466796875
vt 0.230468750 0.466796875
vt 0.230468750 0.478515625
vt 0.207031250 0.478515625
vn 0.99980495 0.00000000 -0.01975010
f 33/33/9 34/34/9 35/35/9
f 33/33/9 35/35/9 36/36/9
v -0.39062500 -0.54000000 0.85476986
v 0.26562500 -0.54000000 0.85476986
v 0.26562500 -0.50000000 0.85476986
v -0.39062500 -0.50000000 0.85476986
vt 0.238281250 0.466796875
vt 0.261718750 0.466796875
vt 0.261718750 0.478515625
vt 0.238281250 0.478515625
vn 0.00000000 0.00000000 1.00000000
f 37/37/10 38/38/10 39/39/10
f 37/37/10 39/39/10 40/40/10
v 0.26562500 -0.54000000 0.85476986
v 0.26562500 -0.54000000 1.64575092
v 0.26562500 -0.50000000 1.64575092
v 0.26562500 -0.50000000 0.85476986
vt 0.269531250 0.466796875
vt 0.292968750 0.466796875
vt 0.292968750 0.478515625
vt 0.269531250 0.478515625
vn -1.00000000 0.00000000 0.00000000
f 41/41/11 42/42/11 43/43/11
f 41/41/11 43/43/11 44/44/11
v 0.26562500 -0.54000000 1.64575092
v -0.37500000 -0.54000000 1.64575092
v -0.37500000 -0.50000000 1.64575092
v 0.26562500 -0.50000000 1.64575092
vt 0.300781250 0.466796875
vt 0.324218750 0.466796875
vt 0.324218750 0.478515625
vt 0.300781250 0.478515625
vn 0.00000000 0.00000000 -1.00000000
f 45/45/12 46/46/12 47/47/12
f 45/45/12 47/47/12 48/48/12
v -0.37500000 -0.54000000 2.29639663
v -0.37500000 -0.54000000 1.87539058
v -0.37500000 -0.50000000 1.87539058
v -0.37500000 -0.50000000 2.29639663
vt 0.332031250 0.466796875
vt 0.355468750 0.466796875
vt 0.355468750 0.478515625
vt 0.332031250 0.478515625
vn 1.00000000 0.00000000 0.00000000
f 49/49/13 50/50/13 51/51/13
f 49/49/13 51/51/13 52/52/13
v -0.37500000 -0.54000000 1.87539058
v 0.26562500 -0.54000000 1.87539058
v 0.26562500 -0.50000000 1.87539058
v -0.37500000 -0.50000000 1.87539058
vt 0.363281250 0.466796875
vt 0.386718750 0.466796875
vt 0.386718750 0.478515625
vt 0.363281250 0.478515625
vn 0.00000000 0.00000000 1.00000000
f 53/53/14 54/54/14 55/55/14
f 53/53/14 55/55/14 56/56/14
v 0.26562500 -0.54000000 1.87539058
v 0.26562500 -0.54000000 2.29639663
v 0.26562500 -0.50000000 2.29639663
v 0.26562500 -0.50000000 1.87539058
vt 0.394531250 0.466796875
vt 0.417968750 0.466796875
vt 0.417968750 0.478515625
vt 0.394531250 0.478515625
vn -1.00000000 0.00000000 0.00000000
f 57/57/15 58/58/15 59/59/15
f 57/57/15 59/59/15 60/60/15
v 0.26562500 -0.54000000 2.29639663
v -0.37500000 -0.54000000 2.29639663
v -0.37500000 -0.50000000 2.29639663
v 0.26562500 -0.50000000 2.29639663
vt 0.425781250 0.466796875
vt 0.449218750 0.466796875
vt 0.449218750 0.478515625
vt 0.425781250 0.478515625
vn 0.00000000 0.00000000 -1.00000000
f 61/61/16 62/62/16 63/63/16
f 61/61/16 63/63/16 64/64/16
v -0.37500000 -0.54000000 1.77332851
v -0.39062500 -0.54000000 1.70953972
v -0.39062500 -0.50000000 1.70953972
v -0.37500000 -0.50000000 1.77332851
vt 0.457031250 0.466796875
vt 0.480468750 0.466796875
vt 0.480468750 0.478515625
vt 0.457031250 0.478515625
vn 0.97128586 0.00000000 -0.23791548
f 65/65/17 66/66/17 67/67/17
f 65/65/17 67/67/17 68/68/17
v -0.39062500 -0.54000000 1.70953972
v 0.26562500 -0.54000000 1.70953972
v 0.26562500 -0.50000000 1.70953972
v -0.39062500 -0.50000000 1.70953972
vt 0.488281250 0.466796875
vt 0.511718750 0.466796875
vt 0.511718750 0.478515625
vt 0.488281250 0.478515625
vn 0.00000000 0.00000000 1.00000000
f 69/69/18 70/70/18 71/71/18
f 69/69/18 71/71/18 72/72/18
v 0.26562500 -0.54000000 1.70953972
v 0.25000000 -0.54000000 1.77332851
v 0.25000000 -0.50000000 1.77332851
v 0.26562500 -0.50000000 1.70953972
vt 0.019531250 0.451171875
vt 0.042968750 0.451171875
vt 0.042968750 0.462890625
vt 0.019531250 0.462890625
vn -0.97128586 0.00000000 -0.23791548
f 73/73/19 74/74/19 75/75/19
f 73/73/19 75/75/19 76/76/19
v 0.25000000 -0.54000000 1.77332851
v -0.37500000 -0.54000000 1.77332851
v -0.37500000 -0.50000000 1.77332851
v 0.25000000 -0.50000000 1.77332851
vt 0.050781250 0.451171875
vt 0.074218750 0.451171875
vt 0.074218750 0.462890625
vt 0.050781250 0.462890625
vn 0.00000000 0.00000000 -1.00000000
f 77/77/20 78/78/20 79/79/20
f 77/77/20 79/79/20 80/80/20
v -0.37500000 -0.54000000 1.84987507
v -0.39062500 -0.54000000 1.79884403
v -0.39062500 -0.50000000 1.79884403
v -0.37500000 -0.50000000 1.84987507
vt 0.082031250 0.451171875
vt 0.105468750 0.451171875
vt 0.105468750 0.462890625
vt 0.082031250 0.462890625
vn 0.95618289 0.00000000 -0.29277002
f 81/81/21 82/82/21 83/83/21
f 81/81/21 83/83/21 84/84/21
v -0.39062500 -0.54000000 1.79884403
v 0.26562500 -0.54000000 1.79884403
v 0.26562500 -0.50000000 1.79884403
v -0.39062500 -0.50000000 1.79884403
vt 0.113281250 0.451171875
vt 0.136718750 0.451171875
vt 0.136718750 0.462890625
vt 0.113281250 0.462890625
vn 0.00000000 0.00000000 1.00000000
f 85/85/22 86/86/22 87/87/22
f 85/85/22 87/87/22 88/88/22
v 0.26562500 -0.54000000 1.79884403
v 0.25000000 -0.54000000 1.84987507
v 0.25000000 -0.50000000 1.84987507
v 0.26562500 -0.50000000 1.79884403
vt 0.144531250 0.451171875
vt 0.167968750 0.451171875
vt 0.167968750 0.462890625
vt 0.144531250 0.462890625
vn -0.95618289 0.00000000 -0.29277002
f 89/89/23 90/90/23 91/91/23
f 89/89/23 91/91/23 92/92/23
v 0.25000000 -0.54000000 1.84987507
v -0.37500000 -0.54000000 1.84987507
v -0.37500000 -0.50000000 1.84987507
v 0.25000000 -0.50000000 1.84987507
vt 0.175781250 0.451171875
vt 0.199218750 0.451171875
vt 0.199218750 0.462890625
vt 0.175781250 0.462890625
vn 0.00000000 0.00000000 -1.00000000
f 93/93/24 94/94/24 95/95/24
f 93/93/24 95/95/24 96/96/24
