mtllib pz_native_location_restaurant_seahorse_01_24.mtl
o pz_native_location_restaurant_seahorse_01_24_glass
usemtl Native_pz_native_location_restaurant_seahorse_01_24
v -0.57812500 -0.50600000 2.46224750
v 0.45312500 -0.50600000 2.46224750
v 0.45312500 -0.50600000 -0.07654655
v -0.57812500 -0.50600000 -0.07654655
vt 0.281250000 0.992187500
vt 0.539062500 0.992187500
vt 0.539062500 0.214843750
vt 0.281250000 0.214843750
vn -0.00000000 1.00000000 0.00000000
f 1/1/1 2/2/1 3/3/1
f 1/1/1 3/3/1 4/4/1
v -0.57812500 -0.50700000 -0.07654655
v 0.45312500 -0.50700000 -0.07654655
v 0.45312500 -0.50700000 2.46224750
v -0.57812500 -0.50700000 2.46224750
vt 0.281250000 0.214843750
vt 0.539062500 0.214843750
vt 0.539062500 0.992187500
vt 0.281250000 0.992187500
vn 0.00000000 -1.00000000 0.00000000
f 5/5/2 6/6/2 7/7/2
f 5/5/2 7/7/2 8/8/2
