mtllib pz_native_fixtures_railings_01_35.mtl
o pz_native_fixtures_railings_01_35_frame
usemtl Native_pz_native_fixtures_railings_01_35
v -0.41015625 -0.26953125 2.56112013
v -0.41015625 -0.50390625 2.56112013
v -0.41015625 -0.50390625 -0.02870496
v -0.41015625 -0.26953125 -0.02870496
vt 0.015625000 0.992187500
vt 0.132812500 0.992187500
vt 0.132812500 0.199218750
vt 0.015625000 0.199218750
vn 1.00000000 0.00000000 0.00000000
f 1/1/1 2/2/1 3/3/1
f 1/1/1 3/3/1 4/4/1
v -0.36515625 -0.26953125 -0.02870496
v -0.36515625 -0.50390625 -0.02870496
v -0.36515625 -0.50390625 2.56112013
v -0.36515625 -0.26953125 2.56112013
vt 0.015625000 0.199218750
vt 0.132812500 0.199218750
vt 0.132812500 0.992187500
vt 0.015625000 0.992187500
vn -1.00000000 0.00000000 0.00000000
f 5/5/2 6/6/2 7/7/2
f 5/5/2 7/7/2 8/8/2
v -0.36515625 -0.28515625 2.53560462
v -0.36515625 -0.36328125 2.53560462
v -0.41015625 -0.36328125 2.53560462
v -0.41015625 -0.28515625 2.53560462
vt 0.019531250 0.177734375
vt 0.042968750 0.177734375
vt 0.042968750 0.189453125
vt 0.019531250 0.189453125
vn 0.00000000 -0.00000000 -1.00000000
f 9/9/3 10/10/3 11/11/3
f 9/9/3 11/11/3 12/12/3
v -0.36515625 -0.36328125 2.53560462
v -0.36515625 -0.47265625 2.47181582
v -0.41015625 -0.47265625 2.47181582
v -0.41015625 -0.36328125 2.53560462
vt 0.050781250 0.177734375
vt 0.074218750 0.177734375
vt 0.074218750 0.189453125
vt 0.050781250 0.189453125
vn 0.00000000 0.50379272 -0.86382457
f 13/13/4 14/14/4 15/15/4
f 13/13/4 15/15/4 16/16/4
v -0.36515625 -0.47265625 2.47181582
v -0.36515625 -0.48828125 -0.01594720
v -0.41015625 -0.48828125 -0.01594720
v -0.41015625 -0.47265625 2.47181582
vt 0.082031250 0.177734375
vt 0.105468750 0.177734375
vt 0.105468750 0.189453125
vt 0.082031250 0.189453125
vn 0.00000000 0.99998028 -0.00628062
f 17/17/5 18/18/5 19/19/5
f 17/17/5 19/19/5 20/20/5
v -0.36515625 -0.48828125 -0.01594720
v -0.36515625 -0.39453125 -0.01594720
v -0.41015625 -0.39453125 -0.01594720
v -0.41015625 -0.48828125 -0.01594720
vt 0.113281250 0.177734375
vt 0.136718750 0.177734375
vt 0.136718750 0.189453125
vt 0.113281250 0.189453125
vn 0.00000000 -0.00000000 1.00000000
f 21/21/6 22/22/6 23/23/6
f 21/21/6 23/23/6 24/24/6
v -0.36515625 -0.39453125 -0.01594720
v -0.36515625 -0.28515625 0.06059936
v -0.41015625 -0.28515625 0.06059936
v -0.41015625 -0.39453125 -0.01594720
vt 0.144531250 0.177734375
vt 0.167968750 0.177734375
vt 0.167968750 0.189453125
vt 0.144531250 0.189453125
vn 0.00000000 -0.57338218 0.81928803
f 25/25/7 26/26/7 27/27/7
f 25/25/7 27/27/7 28/28/7
v -0.36515625 -0.28515625 0.06059936
v -0.36515625 -0.28515625 2.53560462
v -0.41015625 -0.28515625 2.53560462
v -0.41015625 -0.28515625 0.06059936
vt 0.175781250 0.177734375
vt 0.199218750 0.177734375
vt 0.199218750 0.189453125
vt 0.175781250 0.189453125
vn 0.00000000 -1.00000000 0.00000000
f 29/29/8 30/30/8 31/31/8
f 29/29/8 31/31/8 32/32/8
