mtllib pz_native_fixtures_windows_church_7.mtl
o pz_native_fixtures_windows_church_7_glass
usemtl Native_pz_native_fixtures_windows_church_7
v -0.64062500 -0.50600000 2.41121647
v 0.25000000 -0.50600000 2.41121647
v 0.25000000 -0.50600000 -0.11481983
v -0.64062500 -0.50600000 -0.11481983
vt 0.492187500 0.992187500
vt 0.937500000 0.992187500
vt 0.937500000 0.218750000
vt 0.492187500 0.218750000
vn -0.00000000 1.00000000 0.00000000
f 1/1/1 2/2/1 3/3/1
f 1/1/1 3/3/1 4/4/1
v -0.64062500 -0.50700000 -0.11481983
v 0.25000000 -0.50700000 -0.11481983
v 0.25000000 -0.50700000 2.41121647
v -0.64062500 -0.50700000 2.41121647
vt 0.492187500 0.218750000
vt 0.937500000 0.218750000
vt 0.937500000 0.992187500
vt 0.492187500 0.992187500
vn 0.00000000 -1.00000000 0.00000000
f 5/5/2 6/6/2 7/7/2
f 5/5/2 7/7/2 8/8/2
