mtllib pz_native_fixtures_windows_wood_9.mtl
o pz_native_fixtures_windows_wood_9_glass
usemtl Native_pz_native_fixtures_windows_wood_9
v -0.59375000 -0.50600000 2.41121647
v 0.46875000 -0.50600000 2.41121647
v 0.46875000 -0.50600000 0.71443451
v -0.59375000 -0.50600000 0.71443451
vt 0.289062500 0.992187500
vt 0.554687500 0.992187500
vt 0.554687500 0.472656250
vt 0.289062500 0.472656250
vn -0.00000000 1.00000000 0.00000000
f 1/1/1 2/2/1 3/3/1
f 1/1/1 3/3/1 4/4/1
v -0.59375000 -0.50700000 0.71443451
v 0.46875000 -0.50700000 0.71443451
v 0.46875000 -0.50700000 2.41121647
v -0.59375000 -0.50700000 2.41121647
vt 0.289062500 0.472656250
vt 0.554687500 0.472656250
vt 0.554687500 0.992187500
vt 0.289062500 0.992187500
vn 0.00000000 -1.00000000 0.00000000
f 5/5/2 6/6/2 7/7/2
f 5/5/2 7/7/2 8/8/2
