mtllib pz_native_fixtures_windows_church_124.mtl
o pz_native_fixtures_windows_church_124_glass
usemtl Native_pz_native_fixtures_windows_church_124
v -0.49400000 0.50000000 1.78608627
v -0.49400000 -0.39062500 1.78608627
v -0.49400000 -0.39062500 0.80373882
v -0.49400000 0.50000000 0.80373882
vt 0.492187500 0.984375000
vt 0.937500000 0.984375000
vt 0.937500000 0.382812500
vt 0.492187500 0.382812500
vn 1.00000000 0.00000000 0.00000000
f 1/1/1 2/2/1 3/3/1
f 1/1/1 3/3/1 4/4/1
v -0.49300000 0.50000000 0.80373882
v -0.49300000 -0.39062500 0.80373882
v -0.49300000 -0.39062500 1.78608627
v -0.49300000 0.50000000 1.78608627
vt 0.492187500 0.382812500
vt 0.937500000 0.382812500
vt 0.937500000 0.984375000
vt 0.492187500 0.984375000
vn -1.00000000 0.00000000 0.00000000
f 5/5/2 6/6/2 7/7/2
f 5/5/2 7/7/2 8/8/2
