mtllib pz_native_street_decoration_01_26.mtl
o pz_native_street_decoration_01_26
usemtl Native_pz_native_street_decoration_01_26
v -0.19000000 -0.19000000 0.00000000
v 0.19000000 -0.19000000 0.00000000
v 0.19000000 -0.19000000 0.02500000
v -0.19000000 -0.19000000 0.02500000
vt 0.335937500 0.726562500
vt 0.570312500 0.726562500
vt 0.570312500 0.960937500
vt 0.335937500 0.960937500
vn 0.00000000 -1.00000000 0.00000000
f 1/1/1 2/2/1 3/3/1
f 1/1/1 3/3/1 4/4/1
v 0.19000000 -0.19000000 0.00000000
v 0.19000000 0.19000000 0.00000000
v 0.19000000 0.19000000 0.02500000
v 0.19000000 -0.19000000 0.02500000
vt 0.335937500 0.726562500
vt 0.570312500 0.726562500
vt 0.570312500 0.960937500
vt 0.335937500 0.960937500
vn 1.00000000 0.00000000 0.00000000
f 5/5/2 6/6/2 7/7/2
f 5/5/2 7/7/2 8/8/2
v 0.19000000 0.19000000 0.00000000
v -0.19000000 0.19000000 0.00000000
v -0.19000000 0.19000000 0.02500000
v 0.19000000 0.19000000 0.02500000
vt 0.335937500 0.726562500
vt 0.570312500 0.726562500
vt 0.570312500 0.960937500
vt 0.335937500 0.960937500
vn 0.00000000 1.00000000 0.00000000
f 9/9/3 10/10/3 11/11/3
f 9/9/3 11/11/3 12/12/3
v -0.19000000 0.19000000 0.00000000
v -0.19000000 -0.19000000 0.00000000
v -0.19000000 -0.19000000 0.02500000
v -0.19000000 0.19000000 0.02500000
vt 0.335937500 0.726562500
vt 0.570312500 0.726562500
vt 0.570312500 0.960937500
vt 0.335937500 0.960937500
vn -1.00000000 0.00000000 0.00000000
f 13/13/4 14/14/4 15/15/4
f 13/13/4 15/15/4 16/16/4
v -0.19000000 -0.19000000 0.02500000
v 0.19000000 -0.19000000 0.02500000
v 0.19000000 0.19000000 0.02500000
v -0.19000000 0.19000000 0.02500000
vt 0.370260924 0.760885924
vt 0.535989076 0.760885924
vt 0.535989076 0.926614076
vt 0.370260924 0.926614076
vn 0.00000000 0.00000000 1.00000000
f 17/17/5 18/18/5 19/19/5
f 17/17/5 19/19/5 20/20/5
v 0.13856406 0.08000000 0.02500000
v 0.00000000 0.16000000 0.02500000
v 0.00000000 0.02500000 0.56000000
v 0.02165064 0.01250000 0.56000000
vt 0.039062500 0.226562500
vt 0.273437500 0.226562500
vt 0.273437500 0.960937500
vt 0.039062500 0.960937500
vn 0.48847246 0.84605911 0.21349155
f 21/21/6 22/22/6 23/23/6
f 21/21/6 23/23/6 24/24/6
v 0.00000000 0.16000000 0.02500000
v -0.13856406 0.08000000 0.02500000
v -0.02165064 0.01250000 0.56000000
v 0.00000000 0.02500000 0.56000000
vt 0.039062500 0.226562500
vt 0.273437500 0.226562500
vt 0.273437500 0.960937500
vt 0.039062500 0.960937500
vn -0.48847246 0.84605911 0.21349155
f 25/25/7 26/26/7 27/27/7
f 25/25/7 27/27/7 28/28/7
v -0.13856406 0.08000000 0.02500000
v -0.13856406 -0.08000000 0.02500000
v -0.02165064 -0.01250000 0.56000000
v -0.02165064 0.01250000 0.56000000
vt 0.039062500 0.226562500
vt 0.273437500 0.226562500
vt 0.273437500 0.960937500
vt 0.039062500 0.960937500
vn -0.97694491 0.00000000 0.21349155
f 29/29/8 30/30/8 31/31/8
f 29/29/8 31/31/8 32/32/8
v -0.13856406 -0.08000000 0.02500000
v -0.00000000 -0.16000000 0.02500000
v -0.00000000 -0.02500000 0.56000000
v -0.02165064 -0.01250000 0.56000000
vt 0.039062500 0.226562500
vt 0.273437500 0.226562500
vt 0.273437500 0.960937500
vt 0.039062500 0.960937500
vn -0.48847246 -0.84605911 0.21349155
f 33/33/9 34/34/9 35/35/9
f 33/33/9 35/35/9 36/36/9
v -0.00000000 -0.16000000 0.02500000
v 0.13856406 -0.08000000 0.02500000
v 0.02165064 -0.01250000 0.56000000
v -0.00000000 -0.02500000 0.56000000
vt 0.039062500 0.226562500
vt 0.273437500 0.226562500
vt 0.273437500 0.960937500
vt 0.039062500 0.960937500
vn 0.48847246 -0.84605911 0.21349155
f 37/37/10 38/38/10 39/39/10
f 37/37/10 39/39/10 40/40/10
v 0.13856406 -0.08000000 0.02500000
v 0.13856406 0.08000000 0.02500000
v 0.02165064 0.01250000 0.56000000
v 0.02165064 -0.01250000 0.56000000
vt 0.039062500 0.226562500
vt 0.273437500 0.226562500
vt 0.273437500 0.960937500
vt 0.039062500 0.960937500
vn 0.97694491 0.00000000 0.21349155
f 41/41/11 42/42/11 43/43/11
f 41/41/11 43/43/11 44/44/11
v 0.02165064 0.01250000 0.56000000
v 0.00000000 0.02500000 0.56000000
v -0.02165064 0.01250000 0.56000000
v -0.02165064 -0.01250000 0.56000000
v -0.00000000 -0.02500000 0.56000000
v 0.02165064 -0.01250000 0.56000000
vt 0.554612352 0.605468750
vt 0.453125000 0.664062500
vt 0.351637648 0.605468750
vt 0.351637648 0.488281250
vt 0.453125000 0.429687500
vt 0.554612352 0.488281250
vn 0.00000000 0.00000000 1.00000000
f 45/45/12 46/46/12 47/47/12
f 45/45/12 47/47/12 48/48/12
f 45/45/12 48/48/12 49/49/12
f 45/45/12 49/49/12 50/50/12
