# Physical native .18 props; X/Y ground, Z up.
mtllib pz_native_electrical_211.mtl
usemtl Native_pz_native_electrical_211
o conduit
v 0.501000000 0.296875000 0.165850868
vt 0.003906250 0.507812500
vn -0.707106781 0.547722558 -0.447213596
v 0.513000000 0.306170160 0.158261402
vt 0.246093750 0.507812500
vn -0.707106781 0.547722558 -0.447213596
v 0.513000000 0.274920160 0.119988124
vt 0.246093750 0.992187500
vn -0.707106781 0.547722558 -0.447213596
f 1/1/1 2/2/2 3/3/3
v 0.501000000 0.296875000 0.165850868
vt 0.003906250 0.507812500
vn -0.707106781 0.547722558 -0.447213596
v 0.513000000 0.274920160 0.119988124
vt 0.246093750 0.992187500
vn -0.707106781 0.547722558 -0.447213596
v 0.501000000 0.265625000 0.127577591
vt 0.003906250 0.992187500
vn -0.707106781 0.547722558 -0.447213596
f 4/4/4 5/5/5 6/6/6
v 0.513000000 0.306170160 0.158261402
vt 0.003906250 0.507812500
vn 0.707106781 0.547722558 -0.447213596
v 0.525000000 0.296875000 0.165850868
vt 0.246093750 0.507812500
vn 0.707106781 0.547722558 -0.447213596
v 0.525000000 0.265625000 0.127577591
vt 0.246093750 0.992187500
vn 0.707106781 0.547722558 -0.447213596
f 7/7/7 8/8/8 9/9/9
v 0.513000000 0.306170160 0.158261402
vt 0.003906250 0.507812500
vn 0.707106781 0.547722558 -0.447213596
v 0.525000000 0.265625000 0.127577591
vt 0.246093750 0.992187500
vn 0.707106781 0.547722558 -0.447213596
v 0.513000000 0.274920160 0.119988124
vt 0.003906250 0.992187500
vn 0.707106781 0.547722558 -0.447213596
f 10/10/10 11/11/11 12/12/12
v 0.525000000 0.296875000 0.165850868
vt 0.003906250 0.507812500
vn 0.707106781 -0.547722558 0.447213596
v 0.513000000 0.287579840 0.173440334
vt 0.246093750 0.507812500
vn 0.707106781 -0.547722558 0.447213596
v 0.513000000 0.256329840 0.135167057
vt 0.246093750 0.992187500
vn 0.707106781 -0.547722558 0.447213596
f 13/13/13 14/14/14 15/15/15
v 0.525000000 0.296875000 0.165850868
vt 0.003906250 0.507812500
vn 0.707106781 -0.547722558 0.447213596
v 0.513000000 0.256329840 0.135167057
vt 0.246093750 0.992187500
vn 0.707106781 -0.547722558 0.447213596
v 0.525000000 0.265625000 0.127577591
vt 0.003906250 0.992187500
vn 0.707106781 -0.547722558 0.447213596
f 16/16/16 17/17/17 18/18/18
v 0.513000000 0.287579840 0.173440334
vt 0.003906250 0.507812500
vn -0.707106781 -0.547722558 0.447213596
v 0.501000000 0.296875000 0.165850868
vt 0.246093750 0.507812500
vn -0.707106781 -0.547722558 0.447213596
v 0.501000000 0.265625000 0.127577591
vt 0.246093750 0.992187500
vn -0.707106781 -0.547722558 0.447213596
f 19/19/19 20/20/20 21/21/21
v 0.513000000 0.287579840 0.173440334
vt 0.003906250 0.507812500
vn -0.707106781 -0.547722558 0.447213596
v 0.501000000 0.265625000 0.127577591
vt 0.246093750 0.992187500
vn -0.707106781 -0.547722558 0.447213596
v 0.513000000 0.256329840 0.135167057
vt 0.003906250 0.992187500
vn -0.707106781 -0.547722558 0.447213596
f 22/22/22 23/23/23 24/24/24
o conduit_end
v 0.513000000 0.287579840 0.173440334
vt 0.003906250 0.507812500
vn 0.000000000 0.632455532 0.774596669
v 0.525000000 0.296875000 0.165850868
vt 0.246093750 0.507812500
vn 0.000000000 0.632455532 0.774596669
v 0.513000000 0.306170160 0.158261402
vt 0.246093750 0.992187500
vn 0.000000000 0.632455532 0.774596669
f 25/25/25 26/26/26 27/27/27
v 0.513000000 0.287579840 0.173440334
vt 0.003906250 0.507812500
vn 0.000000000 0.632455532 0.774596669
v 0.513000000 0.306170160 0.158261402
vt 0.246093750 0.992187500
vn 0.000000000 0.632455532 0.774596669
v 0.501000000 0.296875000 0.165850868
vt 0.003906250 0.992187500
vn 0.000000000 0.632455532 0.774596669
f 28/28/28 29/29/29 30/30/30
v 0.501000000 0.265625000 0.127577591
vt 0.003906250 0.507812500
vn 0.000000000 -0.632455532 -0.774596669
v 0.513000000 0.274920160 0.119988124
vt 0.246093750 0.507812500
vn 0.000000000 -0.632455532 -0.774596669
v 0.525000000 0.265625000 0.127577591
vt 0.246093750 0.992187500
vn 0.000000000 -0.632455532 -0.774596669
f 31/31/31 32/32/32 33/33/33
v 0.501000000 0.265625000 0.127577591
vt 0.003906250 0.507812500
vn 0.000000000 -0.632455532 -0.774596669
v 0.525000000 0.265625000 0.127577591
vt 0.246093750 0.992187500
vn 0.000000000 -0.632455532 -0.774596669
v 0.513000000 0.256329840 0.135167057
vt 0.003906250 0.992187500
vn 0.000000000 -0.632455532 -0.774596669
f 34/34/34 35/35/35 36/36/36
o conduit
v 0.501000000 0.265625000 0.127577591
vt 0.003906250 0.507812500
vn -0.707106781 0.311085508 -0.635000635
v 0.513000000 0.270904296 0.116801273
vt 0.246093750 0.507812500
vn -0.707106781 0.311085508 -0.635000635
v 0.513000000 0.192779296 0.078527995
vt 0.246093750 0.992187500
vn -0.707106781 0.311085508 -0.635000635
f 37/37/37 38/38/38 39/39/39
v 0.501000000 0.265625000 0.127577591
vt 0.003906250 0.507812500
vn -0.707106781 0.311085508 -0.635000635
v 0.513000000 0.192779296 0.078527995
vt 0.246093750 0.992187500
vn -0.707106781 0.311085508 -0.635000635
v 0.501000000 0.187500000 0.089304314
vt 0.003906250 0.992187500
vn -0.707106781 0.311085508 -0.635000635
f 40/40/40 41/41/41 42/42/42
v 0.513000000 0.270904296 0.116801273
vt 0.003906250 0.507812500
vn 0.707106781 0.311085508 -0.635000635
v 0.525000000 0.265625000 0.127577591
vt 0.246093750 0.507812500
vn 0.707106781 0.311085508 -0.635000635
v 0.525000000 0.187500000 0.089304314
vt 0.246093750 0.992187500
vn 0.707106781 0.311085508 -0.635000635
f 43/43/43 44/44/44 45/45/45
v 0.513000000 0.270904296 0.116801273
vt 0.003906250 0.507812500
vn 0.707106781 0.311085508 -0.635000635
v 0.525000000 0.187500000 0.089304314
vt 0.246093750 0.992187500
vn 0.707106781 0.311085508 -0.635000635
v 0.513000000 0.192779296 0.078527995
vt 0.003906250 0.992187500
vn 0.707106781 0.311085508 -0.635000635
f 46/46/46 47/47/47 48/48/48
v 0.525000000 0.265625000 0.127577591
vt 0.003906250 0.507812500
vn 0.707106781 -0.311085508 0.635000635
v 0.513000000 0.260345704 0.138353909
vt 0.246093750 0.507812500
vn 0.707106781 -0.311085508 0.635000635
v 0.513000000 0.182220704 0.100080632
vt 0.246093750 0.992187500
vn 0.707106781 -0.311085508 0.635000635
f 49/49/49 50/50/50 51/51/51
v 0.525000000 0.265625000 0.127577591
vt 0.003906250 0.507812500
vn 0.707106781 -0.311085508 0.635000635
v 0.513000000 0.182220704 0.100080632
vt 0.246093750 0.992187500
vn 0.707106781 -0.311085508 0.635000635
v 0.525000000 0.187500000 0.089304314
vt 0.003906250 0.992187500
vn 0.707106781 -0.311085508 0.635000635
f 52/52/52 53/53/53 54/54/54
v 0.513000000 0.260345704 0.138353909
vt 0.003906250 0.507812500
vn -0.707106781 -0.311085508 0.635000635
v 0.501000000 0.265625000 0.127577591
vt 0.246093750 0.507812500
vn -0.707106781 -0.311085508 0.635000635
v 0.501000000 0.187500000 0.089304314
vt 0.246093750 0.992187500
vn -0.707106781 -0.311085508 0.635000635
f 55/55/55 56/56/56 57/57/57
v 0.513000000 0.260345704 0.138353909
vt 0.003906250 0.507812500
vn -0.707106781 -0.311085508 0.635000635
v 0.501000000 0.187500000 0.089304314
vt 0.246093750 0.992187500
vn -0.707106781 -0.311085508 0.635000635
v 0.513000000 0.182220704 0.100080632
vt 0.003906250 0.992187500
vn -0.707106781 -0.311085508 0.635000635
f 58/58/58 59/59/59 60/60/60
o conduit_end
v 0.513000000 0.260345704 0.138353909
vt 0.003906250 0.507812500
vn 0.000000000 0.898026510 0.439941345
v 0.525000000 0.265625000 0.127577591
vt 0.246093750 0.507812500
vn 0.000000000 0.898026510 0.439941345
v 0.513000000 0.270904296 0.116801273
vt 0.246093750 0.992187500
vn 0.000000000 0.898026510 0.439941345
f 61/61/61 62/62/62 63/63/63
v 0.513000000 0.260345704 0.138353909
vt 0.003906250 0.507812500
vn 0.000000000 0.898026510 0.439941345
v 0.513000000 0.270904296 0.116801273
vt 0.246093750 0.992187500
vn 0.000000000 0.898026510 0.439941345
v 0.501000000 0.265625000 0.127577591
vt 0.003906250 0.992187500
vn 0.000000000 0.898026510 0.439941345
f 64/64/64 65/65/65 66/66/66
v 0.501000000 0.187500000 0.089304314
vt 0.003906250 0.507812500
vn 0.000000000 -0.898026510 -0.439941345
v 0.513000000 0.192779296 0.078527995
vt 0.246093750 0.507812500
vn 0.000000000 -0.898026510 -0.439941345
v 0.525000000 0.187500000 0.089304314
vt 0.246093750 0.992187500
vn 0.000000000 -0.898026510 -0.439941345
f 67/67/67 68/68/68 69/69/69
v 0.501000000 0.187500000 0.089304314
vt 0.003906250 0.507812500
vn 0.000000000 -0.898026510 -0.439941345
v 0.525000000 0.187500000 0.089304314
vt 0.246093750 0.992187500
vn 0.000000000 -0.898026510 -0.439941345
v 0.513000000 0.182220704 0.100080632
vt 0.003906250 0.992187500
vn 0.000000000 -0.898026510 -0.439941345
f 70/70/70 71/71/71 72/72/72
o conduit
v 0.501000000 0.187500000 0.089304314
vt 0.003906250 0.507812500
vn -0.707106781 -0.078246080 -0.702764221
v 0.513000000 0.186172120 0.077378009
vt 0.246093750 0.507812500
vn -0.707106781 -0.078246080 -0.702764221
v 0.513000000 0.014297120 0.096514648
vt 0.246093750 0.992187500
vn -0.707106781 -0.078246080 -0.702764221
f 73/73/73 74/74/74 75/75/75
v 0.501000000 0.187500000 0.089304314
vt 0.003906250 0.507812500
vn -0.707106781 -0.078246080 -0.702764221
v 0.513000000 0.014297120 0.096514648
vt 0.246093750 0.992187500
vn -0.707106781 -0.078246080 -0.702764221
v 0.501000000 0.015625000 0.108440952
vt 0.003906250 0.992187500
vn -0.707106781 -0.078246080 -0.702764221
f 76/76/76 77/77/77 78/78/78
v 0.513000000 0.186172120 0.077378009
vt 0.003906250 0.507812500
vn 0.707106781 -0.078246080 -0.702764221
v 0.525000000 0.187500000 0.089304314
vt 0.246093750 0.507812500
vn 0.707106781 -0.078246080 -0.702764221
v 0.525000000 0.015625000 0.108440952
vt 0.246093750 0.992187500
vn 0.707106781 -0.078246080 -0.702764221
f 79/79/79 80/80/80 81/81/81
v 0.513000000 0.186172120 0.077378009
vt 0.003906250 0.507812500
vn 0.707106781 -0.078246080 -0.702764221
v 0.525000000 0.015625000 0.108440952
vt 0.246093750 0.992187500
vn 0.707106781 -0.078246080 -0.702764221
v 0.513000000 0.014297120 0.096514648
vt 0.003906250 0.992187500
vn 0.707106781 -0.078246080 -0.702764221
f 82/82/82 83/83/83 84/84/84
v 0.525000000 0.187500000 0.089304314
vt 0.003906250 0.507812500
vn 0.707106781 0.078246080 0.702764221
v 0.513000000 0.188827880 0.101230618
vt 0.246093750 0.507812500
vn 0.707106781 0.078246080 0.702764221
v 0.513000000 0.016952880 0.120367256
vt 0.246093750 0.992187500
vn 0.707106781 0.078246080 0.702764221
f 85/85/85 86/86/86 87/87/87
v 0.525000000 0.187500000 0.089304314
vt 0.003906250 0.507812500
vn 0.707106781 0.078246080 0.702764221
v 0.513000000 0.016952880 0.120367256
vt 0.246093750 0.992187500
vn 0.707106781 0.078246080 0.702764221
v 0.525000000 0.015625000 0.108440952
vt 0.003906250 0.992187500
vn 0.707106781 0.078246080 0.702764221
f 88/88/88 89/89/89 90/90/90
v 0.513000000 0.188827880 0.101230618
vt 0.003906250 0.507812500
vn -0.707106781 0.078246080 0.702764221
v 0.501000000 0.187500000 0.089304314
vt 0.246093750 0.507812500
vn -0.707106781 0.078246080 0.702764221
v 0.501000000 0.015625000 0.108440952
vt 0.246093750 0.992187500
vn -0.707106781 0.078246080 0.702764221
f 91/91/91 92/92/92 93/93/93
v 0.513000000 0.188827880 0.101230618
vt 0.003906250 0.507812500
vn -0.707106781 0.078246080 0.702764221
v 0.501000000 0.015625000 0.108440952
vt 0.246093750 0.992187500
vn -0.707106781 0.078246080 0.702764221
v 0.513000000 0.016952880 0.120367256
vt 0.003906250 0.992187500
vn -0.707106781 0.078246080 0.702764221
f 94/94/94 95/95/95 96/96/96
o conduit_end
v 0.513000000 0.188827880 0.101230618
vt 0.003906250 0.507812500
vn 0.000000000 0.993858693 -0.110656667
v 0.525000000 0.187500000 0.089304314
vt 0.246093750 0.507812500
vn 0.000000000 0.993858693 -0.110656667
v 0.513000000 0.186172120 0.077378009
vt 0.246093750 0.992187500
vn 0.000000000 0.993858693 -0.110656667
f 97/97/97 98/98/98 99/99/99
v 0.513000000 0.188827880 0.101230618
vt 0.003906250 0.507812500
vn 0.000000000 0.993858693 -0.110656667
v 0.513000000 0.186172120 0.077378009
vt 0.246093750 0.992187500
vn 0.000000000 0.993858693 -0.110656667
v 0.501000000 0.187500000 0.089304314
vt 0.003906250 0.992187500
vn 0.000000000 0.993858693 -0.110656667
f 100/100/100 101/101/101 102/102/102
v 0.501000000 0.015625000 0.108440952
vt 0.003906250 0.507812500
vn 0.000000000 -0.993858693 0.110656667
v 0.513000000 0.014297120 0.096514648
vt 0.246093750 0.507812500
vn 0.000000000 -0.993858693 0.110656667
v 0.525000000 0.015625000 0.108440952
vt 0.246093750 0.992187500
vn 0.000000000 -0.993858693 0.110656667
f 103/103/103 104/104/104 105/105/105
v 0.501000000 0.015625000 0.108440952
vt 0.003906250 0.507812500
vn 0.000000000 -0.993858693 0.110656667
v 0.525000000 0.015625000 0.108440952
vt 0.246093750 0.992187500
vn 0.000000000 -0.993858693 0.110656667
v 0.513000000 0.016952880 0.120367256
vt 0.003906250 0.992187500
vn 0.000000000 -0.993858693 0.110656667
f 106/106/106 107/107/107 108/108/108
o conduit
v 0.513000000 0.026951558 0.112404422
vt 0.003906250 0.507812500
vn -0.707106781 0.667423812 0.233549683
v 0.501000000 0.015625000 0.108440952
vt 0.246093750 0.507812500
vn -0.707106781 0.667423812 0.233549683
v 0.501000000 0.000000000 0.153093109
vt 0.246093750 0.992187500
vn -0.707106781 0.667423812 0.233549683
f 109/109/109 110/110/110 111/111/111
v 0.513000000 0.026951558 0.112404422
vt 0.003906250 0.507812500
vn -0.707106781 0.667423812 0.233549683
v 0.501000000 0.000000000 0.153093109
vt 0.246093750 0.992187500
vn -0.707106781 0.667423812 0.233549683
v 0.513000000 0.011326558 0.157056578
vt 0.003906250 0.992187500
vn -0.707106781 0.667423812 0.233549683
f 112/112/112 113/113/113 114/114/114
v 0.501000000 0.015625000 0.108440952
vt 0.003906250 0.507812500
vn -0.707106781 -0.667423812 -0.233549683
v 0.513000000 0.004298442 0.104477483
vt 0.246093750 0.507812500
vn -0.707106781 -0.667423812 -0.233549683
v 0.513000000 -0.011326558 0.149129639
vt 0.246093750 0.992187500
vn -0.707106781 -0.667423812 -0.233549683
f 115/115/115 116/116/116 117/117/117
v 0.501000000 0.015625000 0.108440952
vt 0.003906250 0.507812500
vn -0.707106781 -0.667423812 -0.233549683
v 0.513000000 -0.011326558 0.149129639
vt 0.246093750 0.992187500
vn -0.707106781 -0.667423812 -0.233549683
v 0.501000000 0.000000000 0.153093109
vt 0.003906250 0.992187500
vn -0.707106781 -0.667423812 -0.233549683
f 118/118/118 119/119/119 120/120/120
v 0.513000000 0.004298442 0.104477483
vt 0.003906250 0.507812500
vn 0.707106781 -0.667423812 -0.233549683
v 0.525000000 0.015625000 0.108440952
vt 0.246093750 0.507812500
vn 0.707106781 -0.667423812 -0.233549683
v 0.525000000 -0.000000000 0.153093109
vt 0.246093750 0.992187500
vn 0.707106781 -0.667423812 -0.233549683
f 121/121/121 122/122/122 123/123/123
v 0.513000000 0.004298442 0.104477483
vt 0.003906250 0.507812500
vn 0.707106781 -0.667423812 -0.233549683
v 0.525000000 -0.000000000 0.153093109
vt 0.246093750 0.992187500
vn 0.707106781 -0.667423812 -0.233549683
v 0.513000000 -0.011326558 0.149129639
vt 0.003906250 0.992187500
vn 0.707106781 -0.667423812 -0.233549683
f 124/124/124 125/125/125 126/126/126
v 0.525000000 0.015625000 0.108440952
vt 0.003906250 0.507812500
vn 0.707106781 0.667423812 0.233549683
v 0.513000000 0.026951558 0.112404422
vt 0.246093750 0.507812500
vn 0.707106781 0.667423812 0.233549683
v 0.513000000 0.011326558 0.157056578
vt 0.246093750 0.992187500
vn 0.707106781 0.667423812 0.233549683
f 127/127/127 128/128/128 129/129/129
v 0.525000000 0.015625000 0.108440952
vt 0.003906250 0.507812500
vn 0.707106781 0.667423812 0.233549683
v 0.513000000 0.011326558 0.157056578
vt 0.246093750 0.992187500
vn 0.707106781 0.667423812 0.233549683
v 0.525000000 -0.000000000 0.153093109
vt 0.003906250 0.992187500
vn 0.707106781 0.667423812 0.233549683
f 130/130/130 131/131/131 132/132/132
o conduit_end
v 0.525000000 0.015625000 0.108440952
vt 0.003906250 0.507812500
vn 0.000000000 0.330289130 -0.943879807
v 0.513000000 0.004298442 0.104477483
vt 0.246093750 0.507812500
vn 0.000000000 0.330289130 -0.943879807
v 0.501000000 0.015625000 0.108440952
vt 0.246093750 0.992187500
vn 0.000000000 0.330289130 -0.943879807
f 133/133/133 134/134/134 135/135/135
v 0.525000000 0.015625000 0.108440952
vt 0.003906250 0.507812500
vn 0.000000000 0.330289130 -0.943879807
v 0.501000000 0.015625000 0.108440952
vt 0.246093750 0.992187500
vn 0.000000000 0.330289130 -0.943879807
v 0.513000000 0.026951558 0.112404422
vt 0.003906250 0.992187500
vn 0.000000000 0.330289130 -0.943879807
f 136/136/136 137/137/137 138/138/138
v 0.513000000 0.011326558 0.157056578
vt 0.003906250 0.507812500
vn 0.000000000 -0.330289130 0.943879807
v 0.501000000 0.000000000 0.153093109
vt 0.246093750 0.507812500
vn 0.000000000 -0.330289130 0.943879807
v 0.513000000 -0.011326558 0.149129639
vt 0.246093750 0.992187500
vn 0.000000000 -0.330289130 0.943879807
f 139/139/139 140/140/140 141/141/141
v 0.513000000 0.011326558 0.157056578
vt 0.003906250 0.507812500
vn -0.000000000 -0.330289130 0.943879807
v 0.513000000 -0.011326558 0.149129639
vt 0.246093750 0.992187500
vn -0.000000000 -0.330289130 0.943879807
v 0.525000000 -0.000000000 0.153093109
vt 0.003906250 0.992187500
vn -0.000000000 -0.330289130 0.943879807
f 142/142/142 143/143/143 144/144/144
o conduit
v 0.501000000 0.000000000 0.153093109
vt 0.003906250 0.507812500
vn -0.707106781 0.411054154 -0.575355962
v 0.513000000 0.006975820 0.143328994
vt 0.246093750 0.507812500
vn -0.707106781 0.411054154 -0.575355962
v 0.513000000 -0.055524180 0.098676838
vt 0.246093750 0.992187500
vn -0.707106781 0.411054154 -0.575355962
f 145/145/145 146/146/146 147/147/147
v 0.501000000 0.000000000 0.153093109
vt 0.003906250 0.507812500
vn -0.707106781 0.411054154 -0.575355962
v 0.513000000 -0.055524180 0.098676838
vt 0.246093750 0.992187500
vn -0.707106781 0.411054154 -0.575355962
v 0.501000000 -0.062500000 0.108440952
vt 0.003906250 0.992187500
vn -0.707106781 0.411054154 -0.575355962
f 148/148/148 149/149/149 150/150/150
v 0.513000000 0.006975820 0.143328994
vt 0.003906250 0.507812500
vn 0.707106781 0.411054154 -0.575355962
v 0.525000000 0.000000000 0.153093109
vt 0.246093750 0.507812500
vn 0.707106781 0.411054154 -0.575355962
v 0.525000000 -0.062500000 0.108440952
vt 0.246093750 0.992187500
vn 0.707106781 0.411054154 -0.575355962
f 151/151/151 152/152/152 153/153/153
v 0.513000000 0.006975820 0.143328994
vt 0.003906250 0.507812500
vn 0.707106781 0.411054154 -0.575355962
v 0.525000000 -0.062500000 0.108440952
vt 0.246093750 0.992187500
vn 0.707106781 0.411054154 -0.575355962
v 0.513000000 -0.055524180 0.098676838
vt 0.003906250 0.992187500
vn 0.707106781 0.411054154 -0.575355962
f 154/154/154 155/155/155 156/156/156
v 0.525000000 0.000000000 0.153093109
vt 0.003906250 0.507812500
vn 0.707106781 -0.411054154 0.575355962
v 0.513000000 -0.006975820 0.162857223
vt 0.246093750 0.507812500
vn 0.707106781 -0.411054154 0.575355962
v 0.513000000 -0.069475820 0.118205067
vt 0.246093750 0.992187500
vn 0.707106781 -0.411054154 0.575355962
f 157/157/157 158/158/158 159/159/159
v 0.525000000 0.000000000 0.153093109
vt 0.003906250 0.507812500
vn 0.707106781 -0.411054154 0.575355962
v 0.513000000 -0.069475820 0.118205067
vt 0.246093750 0.992187500
vn 0.707106781 -0.411054154 0.575355962
v 0.525000000 -0.062500000 0.108440952
vt 0.003906250 0.992187500
vn 0.707106781 -0.411054154 0.575355962
f 160/160/160 161/161/161 162/162/162
v 0.513000000 -0.006975820 0.162857223
vt 0.003906250 0.507812500
vn -0.707106781 -0.411054154 0.575355962
v 0.501000000 0.000000000 0.153093109
vt 0.246093750 0.507812500
vn -0.707106781 -0.411054154 0.575355962
v 0.501000000 -0.062500000 0.108440952
vt 0.246093750 0.992187500
vn -0.707106781 -0.411054154 0.575355962
f 163/163/163 164/164/164 165/165/165
v 0.513000000 -0.006975820 0.162857223
vt 0.003906250 0.507812500
vn -0.707106781 -0.411054154 0.575355962
v 0.501000000 -0.062500000 0.108440952
vt 0.246093750 0.992187500
vn -0.707106781 -0.411054154 0.575355962
v 0.513000000 -0.069475820 0.118205067
vt 0.003906250 0.992187500
vn -0.707106781 -0.411054154 0.575355962
f 166/166/166 167/167/167 168/168/168
o conduit_end
v 0.513000000 -0.006975820 0.162857223
vt 0.003906250 0.507812500
vn 0.000000000 0.813676204 0.581318359
v 0.525000000 0.000000000 0.153093109
vt 0.246093750 0.507812500
vn 0.000000000 0.813676204 0.581318359
v 0.513000000 0.006975820 0.143328994
vt 0.246093750 0.992187500
vn 0.000000000 0.813676204 0.581318359
f 169/169/169 170/170/170 171/171/171
v 0.513000000 -0.006975820 0.162857223
vt 0.003906250 0.507812500
vn 0.000000000 0.813676204 0.581318359
v 0.513000000 0.006975820 0.143328994
vt 0.246093750 0.992187500
vn 0.000000000 0.813676204 0.581318359
v 0.501000000 0.000000000 0.153093109
vt 0.003906250 0.992187500
vn 0.000000000 0.813676204 0.581318359
f 172/172/172 173/173/173 174/174/174
v 0.501000000 -0.062500000 0.108440952
vt 0.003906250 0.507812500
vn 0.000000000 -0.813676204 -0.581318359
v 0.513000000 -0.055524180 0.098676838
vt 0.246093750 0.507812500
vn 0.000000000 -0.813676204 -0.581318359
v 0.525000000 -0.062500000 0.108440952
vt 0.246093750 0.992187500
vn 0.000000000 -0.813676204 -0.581318359
f 175/175/175 176/176/176 177/177/177
v 0.501000000 -0.062500000 0.108440952
vt 0.003906250 0.507812500
vn 0.000000000 -0.813676204 -0.581318359
v 0.525000000 -0.062500000 0.108440952
vt 0.246093750 0.992187500
vn 0.000000000 -0.813676204 -0.581318359
v 0.513000000 -0.069475820 0.118205067
vt 0.003906250 0.992187500
vn 0.000000000 -0.813676204 -0.581318359
f 178/178/178 179/179/179 180/180/180
o conduit
v 0.501000000 -0.062500000 0.108440952
vt 0.003906250 0.507812500
vn -0.707106781 -0.088130530 -0.701593194
v 0.513000000 -0.063995625 0.096534521
vt 0.246093750 0.507812500
vn -0.707106781 -0.088130530 -0.701593194
v 0.513000000 -0.470245625 0.147565557
vt 0.246093750 0.992187500
vn -0.707106781 -0.088130530 -0.701593194
f 181/181/181 182/182/182 183/183/183
v 0.501000000 -0.062500000 0.108440952
vt 0.003906250 0.507812500
vn -0.707106781 -0.088130530 -0.701593194
v 0.513000000 -0.470245625 0.147565557
vt 0.246093750 0.992187500
vn -0.707106781 -0.088130530 -0.701593194
v 0.501000000 -0.468750000 0.159471988
vt 0.003906250 0.992187500
vn -0.707106781 -0.088130530 -0.701593194
f 184/184/184 185/185/185 186/186/186
v 0.513000000 -0.063995625 0.096534521
vt 0.003906250 0.507812500
vn 0.707106781 -0.088130530 -0.701593194
v 0.525000000 -0.062500000 0.108440952
vt 0.246093750 0.507812500
vn 0.707106781 -0.088130530 -0.701593194
v 0.525000000 -0.468750000 0.159471988
vt 0.246093750 0.992187500
vn 0.707106781 -0.088130530 -0.701593194
f 187/187/187 188/188/188 189/189/189
v 0.513000000 -0.063995625 0.096534521
vt 0.003906250 0.507812500
vn 0.707106781 -0.088130530 -0.701593194
v 0.525000000 -0.468750000 0.159471988
vt 0.246093750 0.992187500
vn 0.707106781 -0.088130530 -0.701593194
v 0.513000000 -0.470245625 0.147565557
vt 0.003906250 0.992187500
vn 0.707106781 -0.088130530 -0.701593194
f 190/190/190 191/191/191 192/192/192
v 0.525000000 -0.062500000 0.108440952
vt 0.003906250 0.507812500
vn 0.707106781 0.088130530 0.701593194
v 0.513000000 -0.061004375 0.120347383
vt 0.246093750 0.507812500
vn 0.707106781 0.088130530 0.701593194
v 0.513000000 -0.467254375 0.171378420
vt 0.246093750 0.992187500
vn 0.707106781 0.088130530 0.701593194
f 193/193/193 194/194/194 195/195/195
v 0.525000000 -0.062500000 0.108440952
vt 0.003906250 0.507812500
vn 0.707106781 0.088130530 0.701593194
v 0.513000000 -0.467254375 0.171378420
vt 0.246093750 0.992187500
vn 0.707106781 0.088130530 0.701593194
v 0.525000000 -0.468750000 0.159471988
vt 0.003906250 0.992187500
vn 0.707106781 0.088130530 0.701593194
f 196/196/196 197/197/197 198/198/198
v 0.513000000 -0.061004375 0.120347383
vt 0.003906250 0.507812500
vn -0.707106781 0.088130530 0.701593194
v 0.501000000 -0.062500000 0.108440952
vt 0.246093750 0.507812500
vn -0.707106781 0.088130530 0.701593194
v 0.501000000 -0.468750000 0.159471988
vt 0.246093750 0.992187500
vn -0.707106781 0.088130530 0.701593194
f 199/199/199 200/200/200 201/201/201
v 0.513000000 -0.061004375 0.120347383
vt 0.003906250 0.507812500
vn -0.707106781 0.088130530 0.701593194
v 0.501000000 -0.468750000 0.159471988
vt 0.246093750 0.992187500
vn -0.707106781 0.088130530 0.701593194
v 0.513000000 -0.467254375 0.171378420
vt 0.003906250 0.992187500
vn -0.707106781 0.088130530 0.701593194
f 202/202/202 203/203/203 204/204/204
o conduit_end
v 0.513000000 -0.061004375 0.120347383
vt 0.003906250 0.507812500
vn 0.000000000 0.992202610 -0.124635391
v 0.525000000 -0.062500000 0.108440952
vt 0.246093750 0.507812500
vn 0.000000000 0.992202610 -0.124635391
v 0.513000000 -0.063995625 0.096534521
vt 0.246093750 0.992187500
vn 0.000000000 0.992202610 -0.124635391
f 205/205/205 206/206/206 207/207/207
v 0.513000000 -0.061004375 0.120347383
vt 0.003906250 0.507812500
vn 0.000000000 0.992202610 -0.124635391
v 0.513000000 -0.063995625 0.096534521
vt 0.246093750 0.992187500
vn 0.000000000 0.992202610 -0.124635391
v 0.501000000 -0.062500000 0.108440952
vt 0.003906250 0.992187500
vn 0.000000000 0.992202610 -0.124635391
f 208/208/208 209/209/209 210/210/210
v 0.501000000 -0.468750000 0.159471988
vt 0.003906250 0.507812500
vn 0.000000000 -0.992202610 0.124635391
v 0.513000000 -0.470245625 0.147565557
vt 0.246093750 0.507812500
vn 0.000000000 -0.992202610 0.124635391
v 0.525000000 -0.468750000 0.159471988
vt 0.246093750 0.992187500
vn 0.000000000 -0.992202610 0.124635391
f 211/211/211 212/212/212 213/213/213
v 0.501000000 -0.468750000 0.159471988
vt 0.003906250 0.507812500
vn 0.000000000 -0.992202610 0.124635391
v 0.525000000 -0.468750000 0.159471988
vt 0.246093750 0.992187500
vn 0.000000000 -0.992202610 0.124635391
v 0.513000000 -0.467254375 0.171378420
vt 0.003906250 0.992187500
vn 0.000000000 -0.992202610 0.124635391
f 214/214/214 215/215/215 216/216/216
o conduit
v 0.492000000 0.117468334 0.164356124
vt 0.253906250 0.007812500
vn -0.707106781 0.005891125 -0.707082240
v 0.513000000 0.117643291 0.143356853
vt 0.496093750 0.007812500
vn -0.707106781 0.005891125 -0.707082240
v 0.513000000 0.093644124 0.143156901
vt 0.496093750 0.492187500
vn -0.707106781 0.005891125 -0.707082240
f 217/217/217 218/218/218 219/219/219
v 0.492000000 0.117468334 0.164356124
vt 0.253906250 0.007812500
vn -0.707106781 0.005891125 -0.707082240
v 0.513000000 0.093644124 0.143156901
vt 0.496093750 0.492187500
vn -0.707106781 0.005891125 -0.707082240
v 0.492000000 0.093469166 0.164156172
vt 0.253906250 0.492187500
vn -0.707106781 0.005891125 -0.707082240
f 220/220/220 221/221/221 222/222/222
v 0.513000000 0.117643291 0.143356853
vt 0.253906250 0.007812500
vn 0.707106781 0.005891125 -0.707082240
v 0.534000000 0.117468334 0.164356124
vt 0.496093750 0.007812500
vn 0.707106781 0.005891125 -0.707082240
v 0.534000000 0.093469166 0.164156172
vt 0.496093750 0.492187500
vn 0.707106781 0.005891125 -0.707082240
f 223/223/223 224/224/224 225/225/225
v 0.513000000 0.117643291 0.143356853
vt 0.253906250 0.007812500
vn 0.707106781 0.005891125 -0.707082240
v 0.534000000 0.093469166 0.164156172
vt 0.496093750 0.492187500
vn 0.707106781 0.005891125 -0.707082240
v 0.513000000 0.093644124 0.143156901
vt 0.253906250 0.492187500
vn 0.707106781 0.005891125 -0.707082240
f 226/226/226 227/227/227 228/228/228
v 0.534000000 0.117468334 0.164356124
vt 0.253906250 0.007812500
vn 0.707106781 -0.005891125 0.707082240
v 0.513000000 0.117293376 0.185355395
vt 0.496093750 0.007812500
vn 0.707106781 -0.005891125 0.707082240
v 0.513000000 0.093294209 0.185155444
vt 0.496093750 0.492187500
vn 0.707106781 -0.005891125 0.707082240
f 229/229/229 230/230/230 231/231/231
v 0.534000000 0.117468334 0.164356124
vt 0.253906250 0.007812500
vn 0.707106781 -0.005891125 0.707082240
v 0.513000000 0.093294209 0.185155444
vt 0.496093750 0.492187500
vn 0.707106781 -0.005891125 0.707082240
v 0.534000000 0.093469166 0.164156172
vt 0.253906250 0.492187500
vn 0.707106781 -0.005891125 0.707082240
f 232/232/232 233/233/233 234/234/234
v 0.513000000 0.117293376 0.185355395
vt 0.253906250 0.007812500
vn -0.707106781 -0.005891125 0.707082240
v 0.492000000 0.117468334 0.164356124
vt 0.496093750 0.007812500
vn -0.707106781 -0.005891125 0.707082240
v 0.492000000 0.093469166 0.164156172
vt 0.496093750 0.492187500
vn -0.707106781 -0.005891125 0.707082240
f 235/235/235 236/236/236 237/237/237
v 0.513000000 0.117293376 0.185355395
vt 0.253906250 0.007812500
vn -0.707106781 -0.005891125 0.707082240
v 0.492000000 0.093469166 0.164156172
vt 0.496093750 0.492187500
vn -0.707106781 -0.005891125 0.707082240
v 0.513000000 0.093294209 0.185155444
vt 0.253906250 0.492187500
vn -0.707106781 -0.005891125 0.707082240
f 238/238/238 239/239/239 240/240/240
o conduit_end
v 0.513000000 0.117293376 0.185355395
vt 0.253906250 0.007812500
vn 0.000000000 0.999965294 0.008331309
v 0.534000000 0.117468334 0.164356124
vt 0.496093750 0.007812500
vn 0.000000000 0.999965294 0.008331309
v 0.513000000 0.117643291 0.143356853
vt 0.496093750 0.492187500
vn 0.000000000 0.999965294 0.008331309
f 241/241/241 242/242/242 243/243/243
v 0.513000000 0.117293376 0.185355395
vt 0.253906250 0.007812500
vn 0.000000000 0.999965294 0.008331309
v 0.513000000 0.117643291 0.143356853
vt 0.496093750 0.492187500
vn 0.000000000 0.999965294 0.008331309
v 0.492000000 0.117468334 0.164356124
vt 0.253906250 0.492187500
vn 0.000000000 0.999965294 0.008331309
f 244/244/244 245/245/245 246/246/246
v 0.492000000 0.093469166 0.164156172
vt 0.253906250 0.007812500
vn 0.000000000 -0.999965294 -0.008331309
v 0.513000000 0.093644124 0.143156901
vt 0.496093750 0.007812500
vn 0.000000000 -0.999965294 -0.008331309
v 0.534000000 0.093469166 0.164156172
vt 0.496093750 0.492187500
vn 0.000000000 -0.999965294 -0.008331309
f 247/247/247 248/248/248 249/249/249
v 0.492000000 0.093469166 0.164156172
vt 0.253906250 0.007812500
vn 0.000000000 -0.999965294 -0.008331309
v 0.534000000 0.093469166 0.164156172
vt 0.496093750 0.492187500
vn 0.000000000 -0.999965294 -0.008331309
v 0.513000000 0.093294209 0.185155444
vt 0.253906250 0.492187500
vn 0.000000000 -0.999965294 -0.008331309
f 250/250/250 251/251/251 252/252/252
o conduit
v 0.492000000 -0.265344166 0.161166684
vt 0.253906250 0.007812500
vn -0.707106781 0.005891125 -0.707082240
v 0.513000000 -0.265169209 0.140167413
vt 0.496093750 0.007812500
vn -0.707106781 0.005891125 -0.707082240
v 0.513000000 -0.289168376 0.139967461
vt 0.496093750 0.492187500
vn -0.707106781 0.005891125 -0.707082240
f 253/253/253 254/254/254 255/255/255
v 0.492000000 -0.265344166 0.161166684
vt 0.253906250 0.007812500
vn -0.707106781 0.005891125 -0.707082240
v 0.513000000 -0.289168376 0.139967461
vt 0.496093750 0.492187500
vn -0.707106781 0.005891125 -0.707082240
v 0.492000000 -0.289343334 0.160966733
vt 0.253906250 0.492187500
vn -0.707106781 0.005891125 -0.707082240
f 256/256/256 257/257/257 258/258/258
v 0.513000000 -0.265169209 0.140167413
vt 0.253906250 0.007812500
vn 0.707106781 0.005891125 -0.707082240
v 0.534000000 -0.265344166 0.161166684
vt 0.496093750 0.007812500
vn 0.707106781 0.005891125 -0.707082240
v 0.534000000 -0.289343334 0.160966733
vt 0.496093750 0.492187500
vn 0.707106781 0.005891125 -0.707082240
f 259/259/259 260/260/260 261/261/261
v 0.513000000 -0.265169209 0.140167413
vt 0.253906250 0.007812500
vn 0.707106781 0.005891125 -0.707082240
v 0.534000000 -0.289343334 0.160966733
vt 0.496093750 0.492187500
vn 0.707106781 0.005891125 -0.707082240
v 0.513000000 -0.289168376 0.139967461
vt 0.253906250 0.492187500
vn 0.707106781 0.005891125 -0.707082240
f 262/262/262 263/263/263 264/264/264
v 0.534000000 -0.265344166 0.161166684
vt 0.253906250 0.007812500
vn 0.707106781 -0.005891125 0.707082240
v 0.513000000 -0.265519124 0.182165955
vt 0.496093750 0.007812500
vn 0.707106781 -0.005891125 0.707082240
v 0.513000000 -0.289518291 0.181966004
vt 0.496093750 0.492187500
vn 0.707106781 -0.005891125 0.707082240
f 265/265/265 266/266/266 267/267/267
v 0.534000000 -0.265344166 0.161166684
vt 0.253906250 0.007812500
vn 0.707106781 -0.005891125 0.707082240
v 0.513000000 -0.289518291 0.181966004
vt 0.496093750 0.492187500
vn 0.707106781 -0.005891125 0.707082240
v 0.534000000 -0.289343334 0.160966733
vt 0.253906250 0.492187500
vn 0.707106781 -0.005891125 0.707082240
f 268/268/268 269/269/269 270/270/270
v 0.513000000 -0.265519124 0.182165955
vt 0.253906250 0.007812500
vn -0.707106781 -0.005891125 0.707082240
v 0.492000000 -0.265344166 0.161166684
vt 0.496093750 0.007812500
vn -0.707106781 -0.005891125 0.707082240
v 0.492000000 -0.289343334 0.160966733
vt 0.496093750 0.492187500
vn -0.707106781 -0.005891125 0.707082240
f 271/271/271 272/272/272 273/273/273
v 0.513000000 -0.265519124 0.182165955
vt 0.253906250 0.007812500
vn -0.707106781 -0.005891125 0.707082240
v 0.492000000 -0.289343334 0.160966733
vt 0.496093750 0.492187500
vn -0.707106781 -0.005891125 0.707082240
v 0.513000000 -0.289518291 0.181966004
vt 0.253906250 0.492187500
vn -0.707106781 -0.005891125 0.707082240
f 274/274/274 275/275/275 276/276/276
o conduit_end
v 0.513000000 -0.265519124 0.182165955
vt 0.253906250 0.007812500
vn 0.000000000 0.999965294 0.008331309
v 0.534000000 -0.265344166 0.161166684
vt 0.496093750 0.007812500
vn 0.000000000 0.999965294 0.008331309
v 0.513000000 -0.265169209 0.140167413
vt 0.496093750 0.492187500
vn 0.000000000 0.999965294 0.008331309
f 277/277/277 278/278/278 279/279/279
v 0.513000000 -0.265519124 0.182165955
vt 0.253906250 0.007812500
vn 0.000000000 0.999965294 0.008331309
v 0.513000000 -0.265169209 0.140167413
vt 0.496093750 0.492187500
vn 0.000000000 0.999965294 0.008331309
v 0.492000000 -0.265344166 0.161166684
vt 0.253906250 0.492187500
vn 0.000000000 0.999965294 0.008331309
f 280/280/280 281/281/281 282/282/282
v 0.492000000 -0.289343334 0.160966733
vt 0.253906250 0.007812500
vn 0.000000000 -0.999965294 -0.008331309
v 0.513000000 -0.289168376 0.139967461
vt 0.496093750 0.007812500
vn 0.000000000 -0.999965294 -0.008331309
v 0.534000000 -0.289343334 0.160966733
vt 0.496093750 0.492187500
vn 0.000000000 -0.999965294 -0.008331309
f 283/283/283 284/284/284 285/285/285
v 0.492000000 -0.289343334 0.160966733
vt 0.253906250 0.007812500
vn 0.000000000 -0.999965294 -0.008331309
v 0.534000000 -0.289343334 0.160966733
vt 0.496093750 0.492187500
vn 0.000000000 -0.999965294 -0.008331309
v 0.513000000 -0.289518291 0.181966004
vt 0.253906250 0.492187500
vn 0.000000000 -0.999965294 -0.008331309
f 286/286/286 287/287/287 288/288/288
o conduit
v 0.501000000 0.296875000 0.127577591
vt 0.003906250 0.507812500
vn -0.707106781 0.547722558 -0.447213596
v 0.513000000 0.306170160 0.119988124
vt 0.246093750 0.507812500
vn -0.707106781 0.547722558 -0.447213596
v 0.513000000 0.290545160 0.100851486
vt 0.246093750 0.992187500
vn -0.707106781 0.547722558 -0.447213596
f 289/289/289 290/290/290 291/291/291
v 0.501000000 0.296875000 0.127577591
vt 0.003906250 0.507812500
vn -0.707106781 0.547722558 -0.447213596
v 0.513000000 0.290545160 0.100851486
vt 0.246093750 0.992187500
vn -0.707106781 0.547722558 -0.447213596
v 0.501000000 0.281250000 0.108440952
vt 0.003906250 0.992187500
vn -0.707106781 0.547722558 -0.447213596
f 292/292/292 293/293/293 294/294/294
v 0.513000000 0.306170160 0.119988124
vt 0.003906250 0.507812500
vn 0.707106781 0.547722558 -0.447213596
v 0.525000000 0.296875000 0.127577591
vt 0.246093750 0.507812500
vn 0.707106781 0.547722558 -0.447213596
v 0.525000000 0.281250000 0.108440952
vt 0.246093750 0.992187500
vn 0.707106781 0.547722558 -0.447213596
f 295/295/295 296/296/296 297/297/297
v 0.513000000 0.306170160 0.119988124
vt 0.003906250 0.507812500
vn 0.707106781 0.547722558 -0.447213596
v 0.525000000 0.281250000 0.108440952
vt 0.246093750 0.992187500
vn 0.707106781 0.547722558 -0.447213596
v 0.513000000 0.290545160 0.100851486
vt 0.003906250 0.992187500
vn 0.707106781 0.547722558 -0.447213596
f 298/298/298 299/299/299 300/300/300
v 0.525000000 0.296875000 0.127577591
vt 0.003906250 0.507812500
vn 0.707106781 -0.547722558 0.447213596
v 0.513000000 0.287579840 0.135167057
vt 0.246093750 0.507812500
vn 0.707106781 -0.547722558 0.447213596
v 0.513000000 0.271954840 0.116030419
vt 0.246093750 0.992187500
vn 0.707106781 -0.547722558 0.447213596
f 301/301/301 302/302/302 303/303/303
v 0.525000000 0.296875000 0.127577591
vt 0.003906250 0.507812500
vn 0.707106781 -0.547722558 0.447213596
v 0.513000000 0.271954840 0.116030419
vt 0.246093750 0.992187500
vn 0.707106781 -0.547722558 0.447213596
v 0.525000000 0.281250000 0.108440952
vt 0.003906250 0.992187500
vn 0.707106781 -0.547722558 0.447213596
f 304/304/304 305/305/305 306/306/306
v 0.513000000 0.287579840 0.135167057
vt 0.003906250 0.507812500
vn -0.707106781 -0.547722558 0.447213596
v 0.501000000 0.296875000 0.127577591
vt 0.246093750 0.507812500
vn -0.707106781 -0.547722558 0.447213596
v 0.501000000 0.281250000 0.108440952
vt 0.246093750 0.992187500
vn -0.707106781 -0.547722558 0.447213596
f 307/307/307 308/308/308 309/309/309
v 0.513000000 0.287579840 0.135167057
vt 0.003906250 0.507812500
vn -0.707106781 -0.547722558 0.447213596
v 0.501000000 0.281250000 0.108440952
vt 0.246093750 0.992187500
vn -0.707106781 -0.547722558 0.447213596
v 0.513000000 0.271954840 0.116030419
vt 0.003906250 0.992187500
vn -0.707106781 -0.547722558 0.447213596
f 310/310/310 311/311/311 312/312/312
o conduit_end
v 0.513000000 0.287579840 0.135167057
vt 0.003906250 0.507812500
vn -0.000000000 0.632455532 0.774596669
v 0.525000000 0.296875000 0.127577591
vt 0.246093750 0.507812500
vn -0.000000000 0.632455532 0.774596669
v 0.513000000 0.306170160 0.119988124
vt 0.246093750 0.992187500
vn -0.000000000 0.632455532 0.774596669
f 313/313/313 314/314/314 315/315/315
v 0.513000000 0.287579840 0.135167057
vt 0.003906250 0.507812500
vn 0.000000000 0.632455532 0.774596669
v 0.513000000 0.306170160 0.119988124
vt 0.246093750 0.992187500
vn 0.000000000 0.632455532 0.774596669
v 0.501000000 0.296875000 0.127577591
vt 0.003906250 0.992187500
vn 0.000000000 0.632455532 0.774596669
f 316/316/316 317/317/317 318/318/318
v 0.501000000 0.281250000 0.108440952
vt 0.003906250 0.507812500
vn 0.000000000 -0.632455532 -0.774596669
v 0.513000000 0.290545160 0.100851486
vt 0.246093750 0.507812500
vn 0.000000000 -0.632455532 -0.774596669
v 0.525000000 0.281250000 0.108440952
vt 0.246093750 0.992187500
vn 0.000000000 -0.632455532 -0.774596669
f 319/319/319 320/320/320 321/321/321
v 0.501000000 0.281250000 0.108440952
vt 0.003906250 0.507812500
vn 0.000000000 -0.632455532 -0.774596669
v 0.525000000 0.281250000 0.108440952
vt 0.246093750 0.992187500
vn 0.000000000 -0.632455532 -0.774596669
v 0.513000000 0.271954840 0.116030419
vt 0.003906250 0.992187500
vn 0.000000000 -0.632455532 -0.774596669
f 322/322/322 323/323/323 324/324/324
o conduit
v 0.513000000 0.269317479 0.109711760
vt 0.003906250 0.507812500
vn -0.707106781 -0.703130517 0.074883086
v 0.501000000 0.281250000 0.108440952
vt 0.246093750 0.507812500
vn -0.707106781 -0.703130517 0.074883086
v 0.501000000 0.265625000 -0.038273277
vt 0.246093750 0.992187500
vn -0.707106781 -0.703130517 0.074883086
f 325/325/325 326/326/326 327/327/327
v 0.513000000 0.269317479 0.109711760
vt 0.003906250 0.507812500
vn -0.707106781 -0.703130517 0.074883086
v 0.501000000 0.265625000 -0.038273277
vt 0.246093750 0.992187500
vn -0.707106781 -0.703130517 0.074883086
v 0.513000000 0.253692479 -0.037002469
vt 0.003906250 0.992187500
vn -0.707106781 -0.703130517 0.074883086
f 328/328/328 329/329/329 330/330/330
v 0.501000000 0.281250000 0.108440952
vt 0.003906250 0.507812500
vn -0.707106781 0.703130517 -0.074883086
v 0.513000000 0.293182521 0.107170144
vt 0.246093750 0.507812500
vn -0.707106781 0.703130517 -0.074883086
v 0.513000000 0.277557521 -0.039544085
vt 0.246093750 0.992187500
vn -0.707106781 0.703130517 -0.074883086
f 331/331/331 332/332/332 333/333/333
v 0.501000000 0.281250000 0.108440952
vt 0.003906250 0.507812500
vn -0.707106781 0.703130517 -0.074883086
v 0.513000000 0.277557521 -0.039544085
vt 0.246093750 0.992187500
vn -0.707106781 0.703130517 -0.074883086
v 0.501000000 0.265625000 -0.038273277
vt 0.003906250 0.992187500
vn -0.707106781 0.703130517 -0.074883086
f 334/334/334 335/335/335 336/336/336
v 0.513000000 0.293182521 0.107170144
vt 0.003906250 0.507812500
vn 0.707106781 0.703130517 -0.074883086
v 0.525000000 0.281250000 0.108440952
vt 0.246093750 0.507812500
vn 0.707106781 0.703130517 -0.074883086
v 0.525000000 0.265625000 -0.038273277
vt 0.246093750 0.992187500
vn 0.707106781 0.703130517 -0.074883086
f 337/337/337 338/338/338 339/339/339
v 0.513000000 0.293182521 0.107170144
vt 0.003906250 0.507812500
vn 0.707106781 0.703130517 -0.074883086
v 0.525000000 0.265625000 -0.038273277
vt 0.246093750 0.992187500
vn 0.707106781 0.703130517 -0.074883086
v 0.513000000 0.277557521 -0.039544085
vt 0.003906250 0.992187500
vn 0.707106781 0.703130517 -0.074883086
f 340/340/340 341/341/341 342/342/342
v 0.525000000 0.281250000 0.108440952
vt 0.003906250 0.507812500
vn 0.707106781 -0.703130517 0.074883086
v 0.513000000 0.269317479 0.109711760
vt 0.246093750 0.507812500
vn 0.707106781 -0.703130517 0.074883086
v 0.513000000 0.253692479 -0.037002469
vt 0.246093750 0.992187500
vn 0.707106781 -0.703130517 0.074883086
f 343/343/343 344/344/344 345/345/345
v 0.525000000 0.281250000 0.108440952
vt 0.003906250 0.507812500
vn 0.707106781 -0.703130517 0.074883086
v 0.513000000 0.253692479 -0.037002469
vt 0.246093750 0.992187500
vn 0.707106781 -0.703130517 0.074883086
v 0.525000000 0.265625000 -0.038273277
vt 0.003906250 0.992187500
vn 0.707106781 -0.703130517 0.074883086
f 346/346/346 347/347/347 348/348/348
o conduit_end
v 0.525000000 0.281250000 0.108440952
vt 0.003906250 0.507812500
vn 0.000000000 0.105900676 0.994376713
v 0.513000000 0.293182521 0.107170144
vt 0.246093750 0.507812500
vn 0.000000000 0.105900676 0.994376713
v 0.501000000 0.281250000 0.108440952
vt 0.246093750 0.992187500
vn 0.000000000 0.105900676 0.994376713
f 349/349/349 350/350/350 351/351/351
v 0.525000000 0.281250000 0.108440952
vt 0.003906250 0.507812500
vn 0.000000000 0.105900676 0.994376713
v 0.501000000 0.281250000 0.108440952
vt 0.246093750 0.992187500
vn 0.000000000 0.105900676 0.994376713
v 0.513000000 0.269317479 0.109711760
vt 0.003906250 0.992187500
vn 0.000000000 0.105900676 0.994376713
f 352/352/352 353/353/353 354/354/354
v 0.513000000 0.253692479 -0.037002469
vt 0.003906250 0.507812500
vn 0.000000000 -0.105900676 -0.994376713
v 0.501000000 0.265625000 -0.038273277
vt 0.246093750 0.507812500
vn 0.000000000 -0.105900676 -0.994376713
v 0.513000000 0.277557521 -0.039544085
vt 0.246093750 0.992187500
vn 0.000000000 -0.105900676 -0.994376713
f 355/355/355 356/356/356 357/357/357
v 0.513000000 0.253692479 -0.037002469
vt 0.003906250 0.507812500
vn 0.000000000 -0.105900676 -0.994376713
v 0.513000000 0.277557521 -0.039544085
vt 0.246093750 0.992187500
vn 0.000000000 -0.105900676 -0.994376713
v 0.525000000 0.265625000 -0.038273277
vt 0.003906250 0.992187500
vn 0.000000000 -0.105900676 -0.994376713
f 358/358/358 359/359/359 360/360/360
o conduit
v 0.501000000 0.265625000 -0.038273277
vt 0.003906250 0.507812500
vn -0.707106781 0.397778642 -0.584612822
v 0.513000000 0.272375527 -0.048194486
vt 0.246093750 0.507812500
vn -0.707106781 0.397778642 -0.584612822
v 0.513000000 0.225500527 -0.080088884
vt 0.246093750 0.992187500
vn -0.707106781 0.397778642 -0.584612822
f 361/361/361 362/362/362 363/363/363
v 0.501000000 0.265625000 -0.038273277
vt 0.003906250 0.507812500
vn -0.707106781 0.397778642 -0.584612822
v 0.513000000 0.225500527 -0.080088884
vt 0.246093750 0.992187500
vn -0.707106781 0.397778642 -0.584612822
v 0.501000000 0.218750000 -0.070167675
vt 0.003906250 0.992187500
vn -0.707106781 0.397778642 -0.584612822
f 364/364/364 365/365/365 366/366/366
v 0.513000000 0.272375527 -0.048194486
vt 0.003906250 0.507812500
vn 0.707106781 0.397778642 -0.584612822
v 0.525000000 0.265625000 -0.038273277
vt 0.246093750 0.507812500
vn 0.707106781 0.397778642 -0.584612822
v 0.525000000 0.218750000 -0.070167675
vt 0.246093750 0.992187500
vn 0.707106781 0.397778642 -0.584612822
f 367/367/367 368/368/368 369/369/369
v 0.513000000 0.272375527 -0.048194486
vt 0.003906250 0.507812500
vn 0.707106781 0.397778642 -0.584612822
v 0.525000000 0.218750000 -0.070167675
vt 0.246093750 0.992187500
vn 0.707106781 0.397778642 -0.584612822
v 0.513000000 0.225500527 -0.080088884
vt 0.003906250 0.992187500
vn 0.707106781 0.397778642 -0.584612822
f 370/370/370 371/371/371 372/372/372
v 0.525000000 0.265625000 -0.038273277
vt 0.003906250 0.507812500
vn 0.707106781 -0.397778642 0.584612822
v 0.513000000 0.258874473 -0.028352069
vt 0.246093750 0.507812500
vn 0.707106781 -0.397778642 0.584612822
v 0.513000000 0.211999473 -0.060246466
vt 0.246093750 0.992187500
vn 0.707106781 -0.397778642 0.584612822
f 373/373/373 374/374/374 375/375/375
v 0.525000000 0.265625000 -0.038273277
vt 0.003906250 0.507812500
vn 0.707106781 -0.397778642 0.584612822
v 0.513000000 0.211999473 -0.060246466
vt 0.246093750 0.992187500
vn 0.707106781 -0.397778642 0.584612822
v 0.525000000 0.218750000 -0.070167675
vt 0.003906250 0.992187500
vn 0.707106781 -0.397778642 0.584612822
f 376/376/376 377/377/377 378/378/378
v 0.513000000 0.258874473 -0.028352069
vt 0.003906250 0.507812500
vn -0.707106781 -0.397778642 0.584612822
v 0.501000000 0.265625000 -0.038273277
vt 0.246093750 0.507812500
vn -0.707106781 -0.397778642 0.584612822
v 0.501000000 0.218750000 -0.070167675
vt 0.246093750 0.992187500
vn -0.707106781 -0.397778642 0.584612822
f 379/379/379 380/380/380 381/381/381
v 0.513000000 0.258874473 -0.028352069
vt 0.003906250 0.507812500
vn -0.707106781 -0.397778642 0.584612822
v 0.501000000 0.218750000 -0.070167675
vt 0.246093750 0.992187500
vn -0.707106781 -0.397778642 0.584612822
v 0.513000000 0.211999473 -0.060246466
vt 0.003906250 0.992187500
vn -0.707106781 -0.397778642 0.584612822
f 382/382/382 383/383/383 384/384/384
o conduit_end
v 0.513000000 0.258874473 -0.028352069
vt 0.003906250 0.507812500
vn 0.000000000 0.826767382 0.562543950
v 0.525000000 0.265625000 -0.038273277
vt 0.246093750 0.507812500
vn 0.000000000 0.826767382 0.562543950
v 0.513000000 0.272375527 -0.048194486
vt 0.246093750 0.992187500
vn 0.000000000 0.826767382 0.562543950
f 385/385/385 386/386/386 387/387/387
v 0.513000000 0.258874473 -0.028352069
vt 0.003906250 0.507812500
vn 0.000000000 0.826767382 0.562543950
v 0.513000000 0.272375527 -0.048194486
vt 0.246093750 0.992187500
vn 0.000000000 0.826767382 0.562543950
v 0.501000000 0.265625000 -0.038273277
vt 0.003906250 0.992187500
vn 0.000000000 0.826767382 0.562543950
f 388/388/388 389/389/389 390/390/390
v 0.501000000 0.218750000 -0.070167675
vt 0.003906250 0.507812500
vn 0.000000000 -0.826767382 -0.562543950
v 0.513000000 0.225500527 -0.080088884
vt 0.246093750 0.507812500
vn 0.000000000 -0.826767382 -0.562543950
v 0.525000000 0.218750000 -0.070167675
vt 0.246093750 0.992187500
vn 0.000000000 -0.826767382 -0.562543950
f 391/391/391 392/392/392 393/393/393
v 0.501000000 0.218750000 -0.070167675
vt 0.003906250 0.507812500
vn 0.000000000 -0.826767382 -0.562543950
v 0.525000000 0.218750000 -0.070167675
vt 0.246093750 0.992187500
vn 0.000000000 -0.826767382 -0.562543950
v 0.513000000 0.211999473 -0.060246466
vt 0.003906250 0.992187500
vn 0.000000000 -0.826767382 -0.562543950
f 394/394/394 395/395/395 396/396/396
o conduit
v 0.501000000 0.218750000 -0.070167675
vt 0.003906250 0.507812500
vn -0.707106781 -0.514674929 -0.484881138
v 0.513000000 0.210015677 -0.078396381
vt 0.246093750 0.507812500
vn -0.707106781 -0.514674929 -0.484881138
v 0.513000000 0.131890677 0.004529053
vt 0.246093750 0.992187500
vn -0.707106781 -0.514674929 -0.484881138
f 397/397/397 398/398/398 399/399/399
v 0.501000000 0.218750000 -0.070167675
vt 0.003906250 0.507812500
vn -0.707106781 -0.514674929 -0.484881138
v 0.513000000 0.131890677 0.004529053
vt 0.246093750 0.992187500
vn -0.707106781 -0.514674929 -0.484881138
v 0.501000000 0.140625000 0.012757759
vt 0.003906250 0.992187500
vn -0.707106781 -0.514674929 -0.484881138
f 400/400/400 401/401/401 402/402/402
v 0.513000000 0.210015677 -0.078396381
vt 0.003906250 0.507812500
vn 0.707106781 -0.514674929 -0.484881138
v 0.525000000 0.218750000 -0.070167675
vt 0.246093750 0.507812500
vn 0.707106781 -0.514674929 -0.484881138
v 0.525000000 0.140625000 0.012757759
vt 0.246093750 0.992187500
vn 0.707106781 -0.514674929 -0.484881138
f 403/403/403 404/404/404 405/405/405
v 0.513000000 0.210015677 -0.078396381
vt 0.003906250 0.507812500
vn 0.707106781 -0.514674929 -0.484881138
v 0.525000000 0.140625000 0.012757759
vt 0.246093750 0.992187500
vn 0.707106781 -0.514674929 -0.484881138
v 0.513000000 0.131890677 0.004529053
vt 0.003906250 0.992187500
vn 0.707106781 -0.514674929 -0.484881138
f 406/406/406 407/407/407 408/408/408
v 0.525000000 0.218750000 -0.070167675
vt 0.003906250 0.507812500
vn 0.707106781 0.514674929 0.484881138
v 0.513000000 0.227484323 -0.061938969
vt 0.246093750 0.507812500
vn 0.707106781 0.514674929 0.484881138
v 0.513000000 0.149359323 0.020986465
vt 0.246093750 0.992187500
vn 0.707106781 0.514674929 0.484881138
f 409/409/409 410/410/410 411/411/411
v 0.525000000 0.218750000 -0.070167675
vt 0.003906250 0.507812500
vn 0.707106781 0.514674929 0.484881138
v 0.513000000 0.149359323 0.020986465
vt 0.246093750 0.992187500
vn 0.707106781 0.514674929 0.484881138
v 0.525000000 0.140625000 0.012757759
vt 0.003906250 0.992187500
vn 0.707106781 0.514674929 0.484881138
f 412/412/412 413/413/413 414/414/414
v 0.513000000 0.227484323 -0.061938969
vt 0.003906250 0.507812500
vn -0.707106781 0.514674929 0.484881138
v 0.501000000 0.218750000 -0.070167675
vt 0.246093750 0.507812500
vn -0.707106781 0.514674929 0.484881138
v 0.501000000 0.140625000 0.012757759
vt 0.246093750 0.992187500
vn -0.707106781 0.514674929 0.484881138
f 415/415/415 416/416/416 417/417/417
v 0.513000000 0.227484323 -0.061938969
vt 0.003906250 0.507812500
vn -0.707106781 0.514674929 0.484881138
v 0.501000000 0.140625000 0.012757759
vt 0.246093750 0.992187500
vn -0.707106781 0.514674929 0.484881138
v 0.513000000 0.149359323 0.020986465
vt 0.003906250 0.992187500
vn -0.707106781 0.514674929 0.484881138
f 418/418/418 419/419/419 420/420/420
o conduit_end
v 0.513000000 0.227484323 -0.061938969
vt 0.003906250 0.507812500
vn -0.000000000 0.685725481 -0.727860264
v 0.525000000 0.218750000 -0.070167675
vt 0.246093750 0.507812500
vn -0.000000000 0.685725481 -0.727860264
v 0.513000000 0.210015677 -0.078396381
vt 0.246093750 0.992187500
vn -0.000000000 0.685725481 -0.727860264
f 421/421/421 422/422/422 423/423/423
v 0.513000000 0.227484323 -0.061938969
vt 0.003906250 0.507812500
vn 0.000000000 0.685725481 -0.727860264
v 0.513000000 0.210015677 -0.078396381
vt 0.246093750 0.992187500
vn 0.000000000 0.685725481 -0.727860264
v 0.501000000 0.218750000 -0.070167675
vt 0.003906250 0.992187500
vn 0.000000000 0.685725481 -0.727860264
f 424/424/424 425/425/425 426/426/426
v 0.501000000 0.140625000 0.012757759
vt 0.003906250 0.507812500
vn 0.000000000 -0.685725481 0.727860264
v 0.513000000 0.131890677 0.004529053
vt 0.246093750 0.507812500
vn 0.000000000 -0.685725481 0.727860264
v 0.525000000 0.140625000 0.012757759
vt 0.246093750 0.992187500
vn 0.000000000 -0.685725481 0.727860264
f 427/427/427 428/428/428 429/429/429
v 0.501000000 0.140625000 0.012757759
vt 0.003906250 0.507812500
vn 0.000000000 -0.685725481 0.727860264
v 0.525000000 0.140625000 0.012757759
vt 0.246093750 0.992187500
vn 0.000000000 -0.685725481 0.727860264
v 0.513000000 0.149359323 0.020986465
vt 0.003906250 0.992187500
vn 0.000000000 -0.685725481 0.727860264
f 430/430/430 431/431/431 432/432/432
o conduit
v 0.501000000 0.140625000 0.012757759
vt 0.003906250 0.507812500
vn -0.707106781 -0.241209076 -0.664694051
v 0.513000000 0.136531546 0.001477527
vt 0.246093750 0.507812500
vn -0.707106781 -0.241209076 -0.664694051
v 0.513000000 -0.004093454 0.052508563
vt 0.246093750 0.992187500
vn -0.707106781 -0.241209076 -0.664694051
f 433/433/433 434/434/434 435/435/435
v 0.501000000 0.140625000 0.012757759
vt 0.003906250 0.507812500
vn -0.707106781 -0.241209076 -0.664694051
v 0.513000000 -0.004093454 0.052508563
vt 0.246093750 0.992187500
vn -0.707106781 -0.241209076 -0.664694051
v 0.501000000 0.000000000 0.063788795
vt 0.003906250 0.992187500
vn -0.707106781 -0.241209076 -0.664694051
f 436/436/436 437/437/437 438/438/438
v 0.513000000 0.136531546 0.001477527
vt 0.003906250 0.507812500
vn 0.707106781 -0.241209076 -0.664694051
v 0.525000000 0.140625000 0.012757759
vt 0.246093750 0.507812500
vn 0.707106781 -0.241209076 -0.664694051
v 0.525000000 -0.000000000 0.063788795
vt 0.246093750 0.992187500
vn 0.707106781 -0.241209076 -0.664694051
f 439/439/439 440/440/440 441/441/441
v 0.513000000 0.136531546 0.001477527
vt 0.003906250 0.507812500
vn 0.707106781 -0.241209076 -0.664694051
v 0.525000000 -0.000000000 0.063788795
vt 0.246093750 0.992187500
vn 0.707106781 -0.241209076 -0.664694051
v 0.513000000 -0.004093454 0.052508563
vt 0.003906250 0.992187500
vn 0.707106781 -0.241209076 -0.664694051
f 442/442/442 443/443/443 444/444/444
v 0.525000000 0.140625000 0.012757759
vt 0.003906250 0.507812500
vn 0.707106781 0.241209076 0.664694051
v 0.513000000 0.144718454 0.024037991
vt 0.246093750 0.507812500
vn 0.707106781 0.241209076 0.664694051
v 0.513000000 0.004093454 0.075069027
vt 0.246093750 0.992187500
vn 0.707106781 0.241209076 0.664694051
f 445/445/445 446/446/446 447/447/447
v 0.525000000 0.140625000 0.012757759
vt 0.003906250 0.507812500
vn 0.707106781 0.241209076 0.664694051
v 0.513000000 0.004093454 0.075069027
vt 0.246093750 0.992187500
vn 0.707106781 0.241209076 0.664694051
v 0.525000000 -0.000000000 0.063788795
vt 0.003906250 0.992187500
vn 0.707106781 0.241209076 0.664694051
f 448/448/448 449/449/449 450/450/450
v 0.513000000 0.144718454 0.024037991
vt 0.003906250 0.507812500
vn -0.707106781 0.241209076 0.664694051
v 0.501000000 0.140625000 0.012757759
vt 0.246093750 0.507812500
vn -0.707106781 0.241209076 0.664694051
v 0.501000000 0.000000000 0.063788795
vt 0.246093750 0.992187500
vn -0.707106781 0.241209076 0.664694051
f 451/451/451 452/452/452 453/453/453
v 0.513000000 0.144718454 0.024037991
vt 0.003906250 0.507812500
vn -0.707106781 0.241209076 0.664694051
v 0.501000000 0.000000000 0.063788795
vt 0.246093750 0.992187500
vn -0.707106781 0.241209076 0.664694051
v 0.513000000 0.004093454 0.075069027
vt 0.003906250 0.992187500
vn -0.707106781 0.241209076 0.664694051
f 454/454/454 455/455/455 456/456/456
o conduit_end
v 0.513000000 0.144718454 0.024037991
vt 0.003906250 0.507812500
vn -0.000000000 0.940019342 -0.341121146
v 0.525000000 0.140625000 0.012757759
vt 0.246093750 0.507812500
vn -0.000000000 0.940019342 -0.341121146
v 0.513000000 0.136531546 0.001477527
vt 0.246093750 0.992187500
vn -0.000000000 0.940019342 -0.341121146
f 457/457/457 458/458/458 459/459/459
v 0.513000000 0.144718454 0.024037991
vt 0.003906250 0.507812500
vn 0.000000000 0.940019342 -0.341121146
v 0.513000000 0.136531546 0.001477527
vt 0.246093750 0.992187500
vn 0.000000000 0.940019342 -0.341121146
v 0.501000000 0.140625000 0.012757759
vt 0.003906250 0.992187500
vn 0.000000000 0.940019342 -0.341121146
f 460/460/460 461/461/461 462/462/462
v 0.501000000 0.000000000 0.063788795
vt 0.003906250 0.507812500
vn -0.000000000 -0.940019342 0.341121146
v 0.513000000 -0.004093454 0.052508563
vt 0.246093750 0.507812500
vn -0.000000000 -0.940019342 0.341121146
v 0.525000000 -0.000000000 0.063788795
vt 0.246093750 0.992187500
vn -0.000000000 -0.940019342 0.341121146
f 463/463/463 464/464/464 465/465/465
v 0.501000000 0.000000000 0.063788795
vt 0.003906250 0.507812500
vn -0.000000000 -0.940019342 0.341121146
v 0.525000000 -0.000000000 0.063788795
vt 0.246093750 0.992187500
vn -0.000000000 -0.940019342 0.341121146
v 0.513000000 0.004093454 0.075069027
vt 0.003906250 0.992187500
vn -0.000000000 -0.940019342 0.341121146
f 466/466/466 467/467/467 468/468/468
o conduit
v 0.501000000 0.000000000 0.063788795
vt 0.003906250 0.507812500
vn -0.707106781 0.321412173 -0.629836657
v 0.513000000 0.005454545 0.053100113
vt 0.246093750 0.507812500
vn -0.707106781 0.321412173 -0.629836657
v 0.513000000 -0.057045455 0.021205715
vt 0.246093750 0.992187500
vn -0.707106781 0.321412173 -0.629836657
f 469/469/469 470/470/470 471/471/471
v 0.501000000 0.000000000 0.063788795
vt 0.003906250 0.507812500
vn -0.707106781 0.321412173 -0.629836657
v 0.513000000 -0.057045455 0.021205715
vt 0.246093750 0.992187500
vn -0.707106781 0.321412173 -0.629836657
v 0.501000000 -0.062500000 0.031894398
vt 0.003906250 0.992187500
vn -0.707106781 0.321412173 -0.629836657
f 472/472/472 473/473/473 474/474/474
v 0.513000000 0.005454545 0.053100113
vt 0.003906250 0.507812500
vn 0.707106781 0.321412173 -0.629836657
v 0.525000000 0.000000000 0.063788795
vt 0.246093750 0.507812500
vn 0.707106781 0.321412173 -0.629836657
v 0.525000000 -0.062500000 0.031894398
vt 0.246093750 0.992187500
vn 0.707106781 0.321412173 -0.629836657
f 475/475/475 476/476/476 477/477/477
v 0.513000000 0.005454545 0.053100113
vt 0.003906250 0.507812500
vn 0.707106781 0.321412173 -0.629836657
v 0.525000000 -0.062500000 0.031894398
vt 0.246093750 0.992187500
vn 0.707106781 0.321412173 -0.629836657
v 0.513000000 -0.057045455 0.021205715
vt 0.003906250 0.992187500
vn 0.707106781 0.321412173 -0.629836657
f 478/478/478 479/479/479 480/480/480
v 0.525000000 0.000000000 0.063788795
vt 0.003906250 0.507812500
vn 0.707106781 -0.321412173 0.629836657
v 0.513000000 -0.005454545 0.074477478
vt 0.246093750 0.507812500
vn 0.707106781 -0.321412173 0.629836657
v 0.513000000 -0.067954545 0.042583080
vt 0.246093750 0.992187500
vn 0.707106781 -0.321412173 0.629836657
f 481/481/481 482/482/482 483/483/483
v 0.525000000 0.000000000 0.063788795
vt 0.003906250 0.507812500
vn 0.707106781 -0.321412173 0.629836657
v 0.513000000 -0.067954545 0.042583080
vt 0.246093750 0.992187500
vn 0.707106781 -0.321412173 0.629836657
v 0.525000000 -0.062500000 0.031894398
vt 0.003906250 0.992187500
vn 0.707106781 -0.321412173 0.629836657
f 484/484/484 485/485/485 486/486/486
v 0.513000000 -0.005454545 0.074477478
vt 0.003906250 0.507812500
vn -0.707106781 -0.321412173 0.629836657
v 0.501000000 0.000000000 0.063788795
vt 0.246093750 0.507812500
vn -0.707106781 -0.321412173 0.629836657
v 0.501000000 -0.062500000 0.031894398
vt 0.246093750 0.992187500
vn -0.707106781 -0.321412173 0.629836657
f 487/487/487 488/488/488 489/489/489
v 0.513000000 -0.005454545 0.074477478
vt 0.003906250 0.507812500
vn -0.707106781 -0.321412173 0.629836657
v 0.501000000 -0.062500000 0.031894398
vt 0.246093750 0.992187500
vn -0.707106781 -0.321412173 0.629836657
v 0.513000000 -0.067954545 0.042583080
vt 0.003906250 0.992187500
vn -0.707106781 -0.321412173 0.629836657
f 490/490/490 491/491/491 492/492/492
o conduit_end
v 0.513000000 -0.005454545 0.074477478
vt 0.003906250 0.507812500
vn 0.000000000 0.890723543 0.454545455
v 0.525000000 0.000000000 0.063788795
vt 0.246093750 0.507812500
vn 0.000000000 0.890723543 0.454545455
v 0.513000000 0.005454545 0.053100113
vt 0.246093750 0.992187500
vn 0.000000000 0.890723543 0.454545455
f 493/493/493 494/494/494 495/495/495
v 0.513000000 -0.005454545 0.074477478
vt 0.003906250 0.507812500
vn -0.000000000 0.890723543 0.454545455
v 0.513000000 0.005454545 0.053100113
vt 0.246093750 0.992187500
vn -0.000000000 0.890723543 0.454545455
v 0.501000000 0.000000000 0.063788795
vt 0.003906250 0.992187500
vn -0.000000000 0.890723543 0.454545455
f 496/496/496 497/497/497 498/498/498
v 0.501000000 -0.062500000 0.031894398
vt 0.003906250 0.507812500
vn 0.000000000 -0.890723543 -0.454545455
v 0.513000000 -0.057045455 0.021205715
vt 0.246093750 0.507812500
vn 0.000000000 -0.890723543 -0.454545455
v 0.525000000 -0.062500000 0.031894398
vt 0.246093750 0.992187500
vn 0.000000000 -0.890723543 -0.454545455
f 499/499/499 500/500/500 501/501/501
v 0.501000000 -0.062500000 0.031894398
vt 0.003906250 0.507812500
vn 0.000000000 -0.890723543 -0.454545455
v 0.525000000 -0.062500000 0.031894398
vt 0.246093750 0.992187500
vn 0.000000000 -0.890723543 -0.454545455
v 0.513000000 -0.067954545 0.042583080
vt 0.003906250 0.992187500
vn 0.000000000 -0.890723543 -0.454545455
f 502/502/502 503/503/503 504/504/504
o conduit
v 0.501000000 -0.062500000 0.031894398
vt 0.003906250 0.507812500
vn -0.707106781 -0.447213595 -0.547722558
v 0.513000000 -0.070089466 0.022599238
vt 0.246093750 0.507812500
vn -0.707106781 -0.447213595 -0.547722558
v 0.513000000 -0.101339466 0.048114756
vt 0.246093750 0.992187500
vn -0.707106781 -0.447213595 -0.547722558
f 505/505/505 506/506/506 507/507/507
v 0.501000000 -0.062500000 0.031894398
vt 0.003906250 0.507812500
vn -0.707106781 -0.447213595 -0.547722558
v 0.513000000 -0.101339466 0.048114756
vt 0.246093750 0.992187500
vn -0.707106781 -0.447213595 -0.547722558
v 0.501000000 -0.093750000 0.057409916
vt 0.003906250 0.992187500
vn -0.707106781 -0.447213595 -0.547722558
f 508/508/508 509/509/509 510/510/510
v 0.513000000 -0.070089466 0.022599238
vt 0.003906250 0.507812500
vn 0.707106781 -0.447213595 -0.547722558
v 0.525000000 -0.062500000 0.031894398
vt 0.246093750 0.507812500
vn 0.707106781 -0.447213595 -0.547722558
v 0.525000000 -0.093750000 0.057409916
vt 0.246093750 0.992187500
vn 0.707106781 -0.447213595 -0.547722558
f 511/511/511 512/512/512 513/513/513
v 0.513000000 -0.070089466 0.022599238
vt 0.003906250 0.507812500
vn 0.707106781 -0.447213595 -0.547722558
v 0.525000000 -0.093750000 0.057409916
vt 0.246093750 0.992187500
vn 0.707106781 -0.447213595 -0.547722558
v 0.513000000 -0.101339466 0.048114756
vt 0.003906250 0.992187500
vn 0.707106781 -0.447213595 -0.547722558
f 514/514/514 515/515/515 516/516/516
v 0.525000000 -0.062500000 0.031894398
vt 0.003906250 0.507812500
vn 0.707106781 0.447213595 0.547722558
v 0.513000000 -0.054910534 0.041189558
vt 0.246093750 0.507812500
vn 0.707106781 0.447213595 0.547722558
v 0.513000000 -0.086160534 0.066705076
vt 0.246093750 0.992187500
vn 0.707106781 0.447213595 0.547722558
f 517/517/517 518/518/518 519/519/519
v 0.525000000 -0.062500000 0.031894398
vt 0.003906250 0.507812500
vn 0.707106781 0.447213595 0.547722558
v 0.513000000 -0.086160534 0.066705076
vt 0.246093750 0.992187500
vn 0.707106781 0.447213595 0.547722558
v 0.525000000 -0.093750000 0.057409916
vt 0.003906250 0.992187500
vn 0.707106781 0.447213595 0.547722558
f 520/520/520 521/521/521 522/522/522
v 0.513000000 -0.054910534 0.041189558
vt 0.003906250 0.507812500
vn -0.707106781 0.447213595 0.547722558
v 0.501000000 -0.062500000 0.031894398
vt 0.246093750 0.507812500
vn -0.707106781 0.447213595 0.547722558
v 0.501000000 -0.093750000 0.057409916
vt 0.246093750 0.992187500
vn -0.707106781 0.447213595 0.547722558
f 523/523/523 524/524/524 525/525/525
v 0.513000000 -0.054910534 0.041189558
vt 0.003906250 0.507812500
vn -0.707106781 0.447213595 0.547722558
v 0.501000000 -0.093750000 0.057409916
vt 0.246093750 0.992187500
vn -0.707106781 0.447213595 0.547722558
v 0.513000000 -0.086160534 0.066705076
vt 0.003906250 0.992187500
vn -0.707106781 0.447213595 0.547722558
f 526/526/526 527/527/527 528/528/528
o conduit_end
v 0.513000000 -0.054910534 0.041189558
vt 0.003906250 0.507812500
vn 0.000000000 0.774596669 -0.632455532
v 0.525000000 -0.062500000 0.031894398
vt 0.246093750 0.507812500
vn 0.000000000 0.774596669 -0.632455532
v 0.513000000 -0.070089466 0.022599238
vt 0.246093750 0.992187500
vn 0.000000000 0.774596669 -0.632455532
f 529/529/529 530/530/530 531/531/531
v 0.513000000 -0.054910534 0.041189558
vt 0.003906250 0.507812500
vn -0.000000000 0.774596669 -0.632455532
v 0.513000000 -0.070089466 0.022599238
vt 0.246093750 0.992187500
vn -0.000000000 0.774596669 -0.632455532
v 0.501000000 -0.062500000 0.031894398
vt 0.003906250 0.992187500
vn -0.000000000 0.774596669 -0.632455532
f 532/532/532 533/533/533 534/534/534
v 0.501000000 -0.093750000 0.057409916
vt 0.003906250 0.507812500
vn 0.000000000 -0.774596669 0.632455532
v 0.513000000 -0.101339466 0.048114756
vt 0.246093750 0.507812500
vn 0.000000000 -0.774596669 0.632455532
v 0.525000000 -0.093750000 0.057409916
vt 0.246093750 0.992187500
vn 0.000000000 -0.774596669 0.632455532
f 535/535/535 536/536/536 537/537/537
v 0.501000000 -0.093750000 0.057409916
vt 0.003906250 0.507812500
vn 0.000000000 -0.774596669 0.632455532
v 0.525000000 -0.093750000 0.057409916
vt 0.246093750 0.992187500
vn 0.000000000 -0.774596669 0.632455532
v 0.513000000 -0.086160534 0.066705076
vt 0.003906250 0.992187500
vn 0.000000000 -0.774596669 0.632455532
f 538/538/538 539/539/539 540/540/540
o conduit
v 0.501000000 -0.093750000 0.057409916
vt 0.003906250 0.507812500
vn -0.707106781 -0.048001536 -0.705475622
v 0.513000000 -0.094564613 0.045437598
vt 0.246093750 0.507812500
vn -0.707106781 -0.048001536 -0.705475622
v 0.513000000 -0.469564613 0.070953116
vt 0.246093750 0.992187500
vn -0.707106781 -0.048001536 -0.705475622
f 541/541/541 542/542/542 543/543/543
v 0.501000000 -0.093750000 0.057409916
vt 0.003906250 0.507812500
vn -0.707106781 -0.048001536 -0.705475622
v 0.513000000 -0.469564613 0.070953116
vt 0.246093750 0.992187500
vn -0.707106781 -0.048001536 -0.705475622
v 0.501000000 -0.468750000 0.082925434
vt 0.003906250 0.992187500
vn -0.707106781 -0.048001536 -0.705475622
f 544/544/544 545/545/545 546/546/546
v 0.513000000 -0.094564613 0.045437598
vt 0.003906250 0.507812500
vn 0.707106781 -0.048001536 -0.705475622
v 0.525000000 -0.093750000 0.057409916
vt 0.246093750 0.507812500
vn 0.707106781 -0.048001536 -0.705475622
v 0.525000000 -0.468750000 0.082925434
vt 0.246093750 0.992187500
vn 0.707106781 -0.048001536 -0.705475622
f 547/547/547 548/548/548 549/549/549
v 0.513000000 -0.094564613 0.045437598
vt 0.003906250 0.507812500
vn 0.707106781 -0.048001536 -0.705475622
v 0.525000000 -0.468750000 0.082925434
vt 0.246093750 0.992187500
vn 0.707106781 -0.048001536 -0.705475622
v 0.513000000 -0.469564613 0.070953116
vt 0.003906250 0.992187500
vn 0.707106781 -0.048001536 -0.705475622
f 550/550/550 551/551/551 552/552/552
v 0.525000000 -0.093750000 0.057409916
vt 0.003906250 0.507812500
vn 0.707106781 0.048001536 0.705475622
v 0.513000000 -0.092935387 0.069382234
vt 0.246093750 0.507812500
vn 0.707106781 0.048001536 0.705475622
v 0.513000000 -0.467935387 0.094897752
vt 0.246093750 0.992187500
vn 0.707106781 0.048001536 0.705475622
f 553/553/553 554/554/554 555/555/555
v 0.525000000 -0.093750000 0.057409916
vt 0.003906250 0.507812500
vn 0.707106781 0.048001536 0.705475622
v 0.513000000 -0.467935387 0.094897752
vt 0.246093750 0.992187500
vn 0.707106781 0.048001536 0.705475622
v 0.525000000 -0.468750000 0.082925434
vt 0.003906250 0.992187500
vn 0.707106781 0.048001536 0.705475622
f 556/556/556 557/557/557 558/558/558
v 0.513000000 -0.092935387 0.069382234
vt 0.003906250 0.507812500
vn -0.707106781 0.048001536 0.705475622
v 0.501000000 -0.093750000 0.057409916
vt 0.246093750 0.507812500
vn -0.707106781 0.048001536 0.705475622
v 0.501000000 -0.468750000 0.082925434
vt 0.246093750 0.992187500
vn -0.707106781 0.048001536 0.705475622
f 559/559/559 560/560/560 561/561/561
v 0.513000000 -0.092935387 0.069382234
vt 0.003906250 0.507812500
vn -0.707106781 0.048001536 0.705475622
v 0.501000000 -0.468750000 0.082925434
vt 0.246093750 0.992187500
vn -0.707106781 0.048001536 0.705475622
v 0.513000000 -0.467935387 0.094897752
vt 0.003906250 0.992187500
vn -0.707106781 0.048001536 0.705475622
f 562/562/562 563/563/563 564/564/564
o conduit_end
v 0.513000000 -0.092935387 0.069382234
vt 0.003906250 0.507812500
vn 0.000000000 0.997693192 -0.067884423
v 0.525000000 -0.093750000 0.057409916
vt 0.246093750 0.507812500
vn 0.000000000 0.997693192 -0.067884423
v 0.513000000 -0.094564613 0.045437598
vt 0.246093750 0.992187500
vn 0.000000000 0.997693192 -0.067884423
f 565/565/565 566/566/566 567/567/567
v 0.513000000 -0.092935387 0.069382234
vt 0.003906250 0.507812500
vn 0.000000000 0.997693192 -0.067884423
v 0.513000000 -0.094564613 0.045437598
vt 0.246093750 0.992187500
vn 0.000000000 0.997693192 -0.067884423
v 0.501000000 -0.093750000 0.057409916
vt 0.003906250 0.992187500
vn 0.000000000 0.997693192 -0.067884423
f 568/568/568 569/569/569 570/570/570
v 0.501000000 -0.468750000 0.082925434
vt 0.003906250 0.507812500
vn 0.000000000 -0.997693192 0.067884423
v 0.513000000 -0.469564613 0.070953116
vt 0.246093750 0.507812500
vn 0.000000000 -0.997693192 0.067884423
v 0.525000000 -0.468750000 0.082925434
vt 0.246093750 0.992187500
vn 0.000000000 -0.997693192 0.067884423
f 571/571/571 572/572/572 573/573/573
v 0.501000000 -0.468750000 0.082925434
vt 0.003906250 0.507812500
vn 0.000000000 -0.997693192 0.067884423
v 0.525000000 -0.468750000 0.082925434
vt 0.246093750 0.992187500
vn 0.000000000 -0.997693192 0.067884423
v 0.513000000 -0.467935387 0.094897752
vt 0.003906250 0.992187500
vn 0.000000000 -0.997693192 0.067884423
f 574/574/574 575/575/575 576/576/576
o conduit
v 0.492000000 0.117448394 0.117113219
vt 0.253906250 0.007812500
vn -0.707106781 0.041169348 -0.705907278
v 0.513000000 0.118671061 0.096148842
vt 0.496093750 0.007812500
vn -0.707106781 0.041169348 -0.705907278
v 0.513000000 0.094711774 0.094751508
vt 0.496093750 0.492187500
vn -0.707106781 0.041169348 -0.705907278
f 577/577/577 578/578/578 579/579/579
v 0.492000000 0.117448394 0.117113219
vt 0.253906250 0.007812500
vn -0.707106781 0.041169348 -0.705907278
v 0.513000000 0.094711774 0.094751508
vt 0.496093750 0.492187500
vn -0.707106781 0.041169348 -0.705907278
v 0.492000000 0.093489106 0.115715885
vt 0.253906250 0.492187500
vn -0.707106781 0.041169348 -0.705907278
f 580/580/580 581/581/581 582/582/582
v 0.513000000 0.118671061 0.096148842
vt 0.253906250 0.007812500
vn 0.707106781 0.041169348 -0.705907278
v 0.534000000 0.117448394 0.117113219
vt 0.496093750 0.007812500
vn 0.707106781 0.041169348 -0.705907278
v 0.534000000 0.093489106 0.115715885
vt 0.496093750 0.492187500
vn 0.707106781 0.041169348 -0.705907278
f 583/583/583 584/584/584 585/585/585
v 0.513000000 0.118671061 0.096148842
vt 0.253906250 0.007812500
vn 0.707106781 0.041169348 -0.705907278
v 0.534000000 0.093489106 0.115715885
vt 0.496093750 0.492187500
vn 0.707106781 0.041169348 -0.705907278
v 0.513000000 0.094711774 0.094751508
vt 0.253906250 0.492187500
vn 0.707106781 0.041169348 -0.705907278
f 586/586/586 587/587/587 588/588/588
v 0.534000000 0.117448394 0.117113219
vt 0.253906250 0.007812500
vn 0.707106781 -0.041169348 0.705907278
v 0.513000000 0.116225726 0.138077595
vt 0.496093750 0.007812500
vn 0.707106781 -0.041169348 0.705907278
v 0.513000000 0.092266439 0.136680261
vt 0.496093750 0.492187500
vn 0.707106781 -0.041169348 0.705907278
f 589/589/589 590/590/590 591/591/591
v 0.534000000 0.117448394 0.117113219
vt 0.253906250 0.007812500
vn 0.707106781 -0.041169348 0.705907278
v 0.513000000 0.092266439 0.136680261
vt 0.496093750 0.492187500
vn 0.707106781 -0.041169348 0.705907278
v 0.534000000 0.093489106 0.115715885
vt 0.253906250 0.492187500
vn 0.707106781 -0.041169348 0.705907278
f 592/592/592 593/593/593 594/594/594
v 0.513000000 0.116225726 0.138077595
vt 0.253906250 0.007812500
vn -0.707106781 -0.041169348 0.705907278
v 0.492000000 0.117448394 0.117113219
vt 0.496093750 0.007812500
vn -0.707106781 -0.041169348 0.705907278
v 0.492000000 0.093489106 0.115715885
vt 0.496093750 0.492187500
vn -0.707106781 -0.041169348 0.705907278
f 595/595/595 596/596/596 597/597/597
v 0.513000000 0.116225726 0.138077595
vt 0.253906250 0.007812500
vn -0.707106781 -0.041169348 0.705907278
v 0.492000000 0.093489106 0.115715885
vt 0.496093750 0.492187500
vn -0.707106781 -0.041169348 0.705907278
v 0.513000000 0.092266439 0.136680261
vt 0.253906250 0.492187500
vn -0.707106781 -0.041169348 0.705907278
f 598/598/598 599/599/599 600/600/600
o conduit_end
v 0.513000000 0.116225726 0.138077595
vt 0.253906250 0.007812500
vn 0.000000000 0.998303646 0.058222251
v 0.534000000 0.117448394 0.117113219
vt 0.496093750 0.007812500
vn 0.000000000 0.998303646 0.058222251
v 0.513000000 0.118671061 0.096148842
vt 0.496093750 0.492187500
vn 0.000000000 0.998303646 0.058222251
f 601/601/601 602/602/602 603/603/603
v 0.513000000 0.116225726 0.138077595
vt 0.253906250 0.007812500
vn 0.000000000 0.998303646 0.058222251
v 0.513000000 0.118671061 0.096148842
vt 0.496093750 0.492187500
vn 0.000000000 0.998303646 0.058222251
v 0.492000000 0.117448394 0.117113219
vt 0.253906250 0.492187500
vn 0.000000000 0.998303646 0.058222251
f 604/604/604 605/605/605 606/606/606
v 0.492000000 0.093489106 0.115715885
vt 0.253906250 0.007812500
vn 0.000000000 -0.998303646 -0.058222251
v 0.513000000 0.094711774 0.094751508
vt 0.496093750 0.007812500
vn 0.000000000 -0.998303646 -0.058222251
v 0.534000000 0.093489106 0.115715885
vt 0.496093750 0.492187500
vn 0.000000000 -0.998303646 -0.058222251
f 607/607/607 608/608/608 609/609/609
v 0.492000000 0.093489106 0.115715885
vt 0.253906250 0.007812500
vn 0.000000000 -0.998303646 -0.058222251
v 0.534000000 0.093489106 0.115715885
vt 0.496093750 0.492187500
vn 0.000000000 -0.998303646 -0.058222251
v 0.513000000 0.092266439 0.136680261
vt 0.253906250 0.492187500
vn 0.000000000 -0.998303646 -0.058222251
f 610/610/610 611/611/611 612/612/612
o conduit
v 0.492000000 -0.265364106 0.094787140
vt 0.253906250 0.007812500
vn -0.707106781 0.041169348 -0.705907278
v 0.513000000 -0.264141439 0.073822764
vt 0.496093750 0.007812500
vn -0.707106781 0.041169348 -0.705907278
v 0.513000000 -0.288100726 0.072425430
vt 0.496093750 0.492187500
vn -0.707106781 0.041169348 -0.705907278
f 613/613/613 614/614/614 615/615/615
v 0.492000000 -0.265364106 0.094787140
vt 0.253906250 0.007812500
vn -0.707106781 0.041169348 -0.705907278
v 0.513000000 -0.288100726 0.072425430
vt 0.496093750 0.492187500
vn -0.707106781 0.041169348 -0.705907278
v 0.492000000 -0.289323394 0.093389806
vt 0.253906250 0.492187500
vn -0.707106781 0.041169348 -0.705907278
f 616/616/616 617/617/617 618/618/618
v 0.513000000 -0.264141439 0.073822764
vt 0.253906250 0.007812500
vn 0.707106781 0.041169348 -0.705907278
v 0.534000000 -0.265364106 0.094787140
vt 0.496093750 0.007812500
vn 0.707106781 0.041169348 -0.705907278
v 0.534000000 -0.289323394 0.093389806
vt 0.496093750 0.492187500
vn 0.707106781 0.041169348 -0.705907278
f 619/619/619 620/620/620 621/621/621
v 0.513000000 -0.264141439 0.073822764
vt 0.253906250 0.007812500
vn 0.707106781 0.041169348 -0.705907278
v 0.534000000 -0.289323394 0.093389806
vt 0.496093750 0.492187500
vn 0.707106781 0.041169348 -0.705907278
v 0.513000000 -0.288100726 0.072425430
vt 0.253906250 0.492187500
vn 0.707106781 0.041169348 -0.705907278
f 622/622/622 623/623/623 624/624/624
v 0.534000000 -0.265364106 0.094787140
vt 0.253906250 0.007812500
vn 0.707106781 -0.041169348 0.705907278
v 0.513000000 -0.266586774 0.115751517
vt 0.496093750 0.007812500
vn 0.707106781 -0.041169348 0.705907278
v 0.513000000 -0.290546061 0.114354183
vt 0.496093750 0.492187500
vn 0.707106781 -0.041169348 0.705907278
f 625/625/625 626/626/626 627/627/627
v 0.534000000 -0.265364106 0.094787140
vt 0.253906250 0.007812500
vn 0.707106781 -0.041169348 0.705907278
v 0.513000000 -0.290546061 0.114354183
vt 0.496093750 0.492187500
vn 0.707106781 -0.041169348 0.705907278
v 0.534000000 -0.289323394 0.093389806
vt 0.253906250 0.492187500
vn 0.707106781 -0.041169348 0.705907278
f 628/628/628 629/629/629 630/630/630
v 0.513000000 -0.266586774 0.115751517
vt 0.253906250 0.007812500
vn -0.707106781 -0.041169348 0.705907278
v 0.492000000 -0.265364106 0.094787140
vt 0.496093750 0.007812500
vn -0.707106781 -0.041169348 0.705907278
v 0.492000000 -0.289323394 0.093389806
vt 0.496093750 0.492187500
vn -0.707106781 -0.041169348 0.705907278
f 631/631/631 632/632/632 633/633/633
v 0.513000000 -0.266586774 0.115751517
vt 0.253906250 0.007812500
vn -0.707106781 -0.041169348 0.705907278
v 0.492000000 -0.289323394 0.093389806
vt 0.496093750 0.492187500
vn -0.707106781 -0.041169348 0.705907278
v 0.513000000 -0.290546061 0.114354183
vt 0.253906250 0.492187500
vn -0.707106781 -0.041169348 0.705907278
f 634/634/634 635/635/635 636/636/636
o conduit_end
v 0.513000000 -0.266586774 0.115751517
vt 0.253906250 0.007812500
vn 0.000000000 0.998303646 0.058222251
v 0.534000000 -0.265364106 0.094787140
vt 0.496093750 0.007812500
vn 0.000000000 0.998303646 0.058222251
v 0.513000000 -0.264141439 0.073822764
vt 0.496093750 0.492187500
vn 0.000000000 0.998303646 0.058222251
f 637/637/637 638/638/638 639/639/639
v 0.513000000 -0.266586774 0.115751517
vt 0.253906250 0.007812500
vn 0.000000000 0.998303646 0.058222251
v 0.513000000 -0.264141439 0.073822764
vt 0.496093750 0.492187500
vn 0.000000000 0.998303646 0.058222251
v 0.492000000 -0.265364106 0.094787140
vt 0.253906250 0.492187500
vn 0.000000000 0.998303646 0.058222251
f 640/640/640 641/641/641 642/642/642
v 0.492000000 -0.289323394 0.093389806
vt 0.253906250 0.007812500
vn 0.000000000 -0.998303646 -0.058222251
v 0.513000000 -0.288100726 0.072425430
vt 0.496093750 0.007812500
vn 0.000000000 -0.998303646 -0.058222251
v 0.534000000 -0.289323394 0.093389806
vt 0.496093750 0.492187500
vn 0.000000000 -0.998303646 -0.058222251
f 643/643/643 644/644/644 645/645/645
v 0.492000000 -0.289323394 0.093389806
vt 0.253906250 0.007812500
vn 0.000000000 -0.998303646 -0.058222251
v 0.534000000 -0.289323394 0.093389806
vt 0.496093750 0.492187500
vn 0.000000000 -0.998303646 -0.058222251
v 0.513000000 -0.290546061 0.114354183
vt 0.253906250 0.492187500
vn 0.000000000 -0.998303646 -0.058222251
f 646/646/646 647/647/647 648/648/648
