mtllib pz_native_location_community_church_small_01_245.mtl
o pz_native_location_community_church_small_01_245_glass
usemtl Native_pz_native_location_community_church_small_01_245
v -0.54687500 -0.50600000 2.14330352
v 0.45312500 -0.50600000 2.14330352
v 0.45312500 -0.50600000 -0.10206207
v -0.54687500 -0.50600000 -0.10206207
vt 0.273437500 0.992187500
vt 0.523437500 0.992187500
vt 0.523437500 0.304687500
vt 0.273437500 0.304687500
vn -0.00000000 1.00000000 0.00000000
f 1/1/1 2/2/1 3/3/1
f 1/1/1 3/3/1 4/4/1
v -0.54687500 -0.50700000 -0.10206207
v 0.45312500 -0.50700000 -0.10206207
v 0.45312500 -0.50700000 2.14330352
v -0.54687500 -0.50700000 2.14330352
vt 0.273437500 0.304687500
vt 0.523437500 0.304687500
vt 0.523437500 0.992187500
vt 0.273437500 0.992187500
vn 0.00000000 -1.00000000 0.00000000
f 5/5/2 6/6/2 7/7/2
f 5/5/2 7/7/2 8/8/2
