mtllib pz_native_fixtures_railings_01_103.mtl
o pz_native_fixtures_railings_01_103_frame
usemtl Native_pz_native_fixtures_railings_01_103
v -0.50000000 -0.20312500 0.24239742
v -0.50000000 -0.54687500 0.24239742
v -0.50000000 -0.54687500 -0.07654655
v -0.50000000 -0.20312500 -0.07654655
vt 0.015625000 0.968750000
vt 0.187500000 0.968750000
vt 0.187500000 0.578125000
vt 0.015625000 0.578125000
vn 1.00000000 0.00000000 0.00000000
f 1/1/1 2/2/1 3/3/1
f 1/1/1 3/3/1 4/4/1
v -0.45500000 -0.20312500 -0.07654655
v -0.45500000 -0.54687500 -0.07654655
v -0.45500000 -0.54687500 0.24239742
v -0.45500000 -0.20312500 0.24239742
vt 0.015625000 0.578125000
vt 0.187500000 0.578125000
vt 0.187500000 0.968750000
vt 0.015625000 0.968750000
vn -1.00000000 0.00000000 0.00000000
f 5/5/2 6/6/2 7/7/2
f 5/5/2 7/7/2 8/8/2
v -0.45500000 -0.50000000 0.22963966
v -0.45500000 -0.53125000 0.10206207
v -0.50000000 -0.53125000 0.10206207
v -0.50000000 -0.50000000 0.22963966
vt 0.019531250 0.492187500
vt 0.042968750 0.492187500
vt 0.042968750 0.539062500
vt 0.019531250 0.539062500
vn 0.00000000 0.97128586 -0.23791548
f 9/9/3 10/10/3 11/11/3
f 9/9/3 11/11/3 12/12/3
v -0.45500000 -0.53125000 0.10206207
v -0.45500000 -0.50000000 0.03827328
v -0.50000000 -0.50000000 0.03827328
v -0.50000000 -0.53125000 0.10206207
vt 0.050781250 0.492187500
vt 0.074218750 0.492187500
vt 0.074218750 0.539062500
vt 0.050781250 0.539062500
vn 0.00000000 0.89802651 0.43994135
f 13/13/4 14/14/4 15/15/4
f 13/13/4 15/15/4 16/16/4
v -0.45500000 -0.50000000 0.03827328
v -0.45500000 -0.43750000 0.00000000
v -0.50000000 -0.43750000 0.00000000
v -0.50000000 -0.50000000 0.03827328
vt 0.082031250 0.492187500
vt 0.105468750 0.492187500
vt 0.105468750 0.539062500
vt 0.082031250 0.539062500
vn 0.00000000 0.52223297 0.85280287
f 17/17/5 18/18/5 19/19/5
f 17/17/5 19/19/5 20/20/5
v -0.45500000 -0.43750000 0.00000000
v -0.45500000 -0.43750000 -0.03827328
v -0.50000000 -0.43750000 -0.03827328
v -0.50000000 -0.43750000 0.00000000
vt 0.113281250 0.492187500
vt 0.136718750 0.492187500
vt 0.136718750 0.539062500
vt 0.113281250 0.539062500
vn 0.00000000 1.00000000 0.00000000
f 21/21/6 22/22/6 23/23/6
f 21/21/6 23/23/6 24/24/6
v -0.45500000 -0.43750000 -0.03827328
v -0.45500000 -0.34375000 -0.03827328
v -0.50000000 -0.34375000 -0.03827328
v -0.50000000 -0.43750000 -0.03827328
vt 0.144531250 0.492187500
vt 0.167968750 0.492187500
vt 0.167968750 0.539062500
vt 0.144531250 0.539062500
vn 0.00000000 -0.00000000 1.00000000
f 25/25/7 26/26/7 27/27/7
f 25/25/7 27/27/7 28/28/7
v -0.45500000 -0.34375000 -0.03827328
v -0.45500000 -0.34375000 -0.06378880
v -0.50000000 -0.34375000 -0.06378880
v -0.50000000 -0.34375000 -0.03827328
vt 0.175781250 0.492187500
vt 0.199218750 0.492187500
vt 0.199218750 0.539062500
vt 0.175781250 0.539062500
vn 0.00000000 1.00000000 0.00000000
f 29/29/8 30/30/8 31/31/8
f 29/29/8 31/31/8 32/32/8
v -0.45500000 -0.34375000 -0.06378880
v -0.45500000 -0.31250000 -0.03827328
v -0.50000000 -0.31250000 -0.03827328
v -0.50000000 -0.34375000 -0.06378880
vt 0.207031250 0.492187500
vt 0.230468750 0.492187500
vt 0.230468750 0.539062500
vt 0.207031250 0.539062500
vn 0.00000000 -0.63245553 0.77459667
f 33/33/9 34/34/9 35/35/9
f 33/33/9 35/35/9 36/36/9
v -0.45500000 -0.31250000 -0.03827328
v -0.45500000 -0.23437500 -0.05103104
v -0.50000000 -0.23437500 -0.05103104
v -0.50000000 -0.31250000 -0.03827328
vt 0.238281250 0.492187500
vt 0.261718750 0.492187500
vt 0.261718750 0.539062500
vt 0.238281250 0.539062500
vn 0.00000000 0.16116459 0.98692754
f 37/37/10 38/38/10 39/39/10
f 37/37/10 39/39/10 40/40/10
v -0.45500000 -0.23437500 -0.05103104
v -0.45500000 -0.21875000 -0.01275776
v -0.50000000 -0.21875000 -0.01275776
v -0.50000000 -0.23437500 -0.05103104
vt 0.269531250 0.492187500
vt 0.292968750 0.492187500
vt 0.292968750 0.539062500
vt 0.269531250 0.539062500
vn 0.00000000 -0.92582010 0.37796447
f 41/41/11 42/42/11 43/43/11
f 41/41/11 43/43/11 44/44/11
v -0.45500000 -0.21875000 -0.01275776
v -0.45500000 -0.50000000 0.22963966
v -0.50000000 -0.50000000 0.22963966
v -0.50000000 -0.21875000 -0.01275776
vt 0.300781250 0.492187500
vt 0.324218750 0.492187500
vt 0.324218750 0.539062500
vt 0.300781250 0.539062500
vn 0.00000000 -0.65284773 -0.75748917
f 45/45/12 46/46/12 47/47/12
f 45/45/12 47/47/12 48/48/12
