mtllib pz_native_location_community_police_01_37.mtl
o pz_native_location_community_police_01_37_glass
usemtl Native_pz_native_location_community_police_01_37
v -1.39062500 -0.50600000 1.82435955
v -0.32812500 -0.50600000 1.82435955
v -0.32812500 -0.50600000 0.12757759
v -1.39062500 -0.50600000 0.12757759
vt 0.289062500 0.992187500
vt 0.554687500 0.992187500
vt 0.554687500 0.472656250
vt 0.289062500 0.472656250
vn -0.00000000 1.00000000 0.00000000
f 1/1/1 2/2/1 3/3/1
f 1/1/1 3/3/1 4/4/1
v -1.39062500 -0.50700000 0.12757759
v -0.32812500 -0.50700000 0.12757759
v -0.32812500 -0.50700000 1.82435955
v -1.39062500 -0.50700000 1.82435955
vt 0.289062500 0.472656250
vt 0.554687500 0.472656250
vt 0.554687500 0.992187500
vt 0.289062500 0.992187500
vn 0.00000000 -1.00000000 0.00000000
f 5/5/2 6/6/2 7/7/2
f 5/5/2 7/7/2 8/8/2
