mtllib pz_native_location_hospitality_sunstarmotel_01_36.mtl
o pz_native_location_hospitality_sunstarmotel_01_36_frame
usemtl Native_pz_native_location_hospitality_sunstarmotel_01_36
v -0.50000000 0.29687500 1.87539058
v -0.50000000 -0.54687500 1.87539058
v -0.50000000 -0.54687500 0.90580089
v -0.50000000 0.29687500 0.90580089
vt 0.015625000 0.984375000
vt 0.437500000 0.984375000
vt 0.437500000 0.390625000
vt 0.015625000 0.390625000
vn 1.00000000 0.00000000 0.00000000
f 1/1/1 2/2/1 3/3/1
f 1/1/1 3/3/1 4/4/1
v -0.46000000 0.29687500 0.90580089
v -0.46000000 -0.54687500 0.90580089
v -0.46000000 -0.54687500 1.87539058
v -0.46000000 0.29687500 1.87539058
vt 0.015625000 0.390625000
vt 0.437500000 0.390625000
vt 0.437500000 0.984375000
vt 0.015625000 0.984375000
vn -1.00000000 0.00000000 0.00000000
f 5/5/2 6/6/2 7/7/2
f 5/5/2 7/7/2 8/8/2
v -0.46000000 0.28125000 1.86263283
v -0.46000000 -0.53125000 1.84987507
v -0.50000000 -0.53125000 1.84987507
v -0.50000000 0.28125000 1.86263283
vt 0.019531250 0.347656250
vt 0.042968750 0.347656250
vt 0.042968750 0.371093750
vt 0.019531250 0.371093750
vn 0.00000000 0.01569992 -0.99987675
f 9/9/3 10/10/3 11/11/3
f 9/9/3 11/11/3 12/12/3
v -0.46000000 -0.53125000 1.84987507
v -0.46000000 -0.53125000 1.79884403
v -0.50000000 -0.53125000 1.79884403
v -0.50000000 -0.53125000 1.84987507
vt 0.050781250 0.347656250
vt 0.074218750 0.347656250
vt 0.074218750 0.371093750
vt 0.050781250 0.371093750
vn 0.00000000 1.00000000 0.00000000
f 13/13/4 14/14/4 15/15/4
f 13/13/4 15/15/4 16/16/4
v -0.46000000 -0.53125000 1.79884403
v -0.46000000 0.21875000 1.81160179
v -0.50000000 0.21875000 1.81160179
v -0.50000000 -0.53125000 1.79884403
vt 0.082031250 0.347656250
vt 0.105468750 0.347656250
vt 0.105468750 0.371093750
vt 0.082031250 0.371093750
vn 0.00000000 -0.01700788 0.99985536
f 17/17/5 18/18/5 19/19/5
f 17/17/5 19/19/5 20/20/5
v -0.46000000 0.21875000 1.81160179
v -0.46000000 0.21875000 1.32680694
v -0.50000000 0.21875000 1.32680694
v -0.50000000 0.21875000 1.81160179
vt 0.113281250 0.347656250
vt 0.136718750 0.347656250
vt 0.136718750 0.371093750
vt 0.113281250 0.371093750
vn 0.00000000 1.00000000 0.00000000
f 21/21/6 22/22/6 23/23/6
f 21/21/6 23/23/6 24/24/6
v -0.46000000 0.21875000 1.32680694
v -0.46000000 -0.53125000 1.32680694
v -0.50000000 -0.53125000 1.32680694
v -0.50000000 0.21875000 1.32680694
vt 0.144531250 0.347656250
vt 0.167968750 0.347656250
vt 0.167968750 0.371093750
vt 0.144531250 0.371093750
vn 0.00000000 -0.00000000 -1.00000000
f 25/25/7 26/26/7 27/27/7
f 25/25/7 27/27/7 28/28/7
v -0.46000000 -0.53125000 1.32680694
v -0.46000000 -0.53125000 0.93131641
v -0.50000000 -0.53125000 0.93131641
v -0.50000000 -0.53125000 1.32680694
vt 0.175781250 0.347656250
vt 0.199218750 0.347656250
vt 0.199218750 0.371093750
vt 0.175781250 0.371093750
vn 0.00000000 1.00000000 0.00000000
f 29/29/8 30/30/8 31/31/8
f 29/29/8 31/31/8 32/32/8
v -0.46000000 -0.53125000 0.93131641
v -0.46000000 0.28125000 0.94407417
v -0.50000000 0.28125000 0.94407417
v -0.50000000 -0.53125000 0.93131641
vt 0.207031250 0.347656250
vt 0.230468750 0.347656250
vt 0.230468750 0.371093750
vt 0.207031250 0.371093750
vn 0.00000000 -0.01569992 0.99987675
f 33/33/9 34/34/9 35/35/9
f 33/33/9 35/35/9 36/36/9
v -0.46000000 0.28125000 0.94407417
v -0.46000000 0.28125000 1.86263283
v -0.50000000 0.28125000 1.86263283
v -0.50000000 0.28125000 0.94407417
vt 0.238281250 0.347656250
vt 0.261718750 0.347656250
vt 0.261718750 0.371093750
vt 0.238281250 0.371093750
vn 0.00000000 -1.00000000 0.00000000
f 37/37/10 38/38/10 39/39/10
f 37/37/10 39/39/10 40/40/10
v -0.46000000 0.20312500 1.27577591
v -0.46000000 0.21875000 1.02062073
v -0.50000000 0.21875000 1.02062073
v -0.50000000 0.20312500 1.27577591
vt 0.269531250 0.347656250
vt 0.292968750 0.347656250
vt 0.292968750 0.371093750
vt 0.269531250 0.371093750
vn 0.00000000 0.99813026 0.06112275
f 41/41/11 42/42/11 43/43/11
f 41/41/11 43/43/11 44/44/11
v -0.46000000 0.21875000 1.02062073
v -0.46000000 -0.46875000 1.02062073
v -0.50000000 -0.46875000 1.02062073
v -0.50000000 0.21875000 1.02062073
vt 0.300781250 0.347656250
vt 0.324218750 0.347656250
vt 0.324218750 0.371093750
vt 0.300781250 0.371093750
vn 0.00000000 -0.00000000 -1.00000000
f 45/45/12 46/46/12 47/47/12
f 45/45/12 47/47/12 48/48/12
v -0.46000000 -0.46875000 1.02062073
v -0.46000000 -0.45312500 1.27577591
v -0.50000000 -0.45312500 1.27577591
v -0.50000000 -0.46875000 1.02062073
vt 0.332031250 0.347656250
vt 0.355468750 0.347656250
vt 0.355468750 0.371093750
vt 0.332031250 0.371093750
vn 0.00000000 -0.99813026 0.06112275
f 49/49/13 50/50/13 51/51/13
f 49/49/13 51/51/13 52/52/13
v -0.46000000 -0.45312500 1.27577591
v -0.46000000 0.20312500 1.27577591
v -0.50000000 0.20312500 1.27577591
v -0.50000000 -0.45312500 1.27577591
vt 0.363281250 0.347656250
vt 0.386718750 0.347656250
vt 0.386718750 0.371093750
vt 0.363281250 0.371093750
vn 0.00000000 -0.00000000 1.00000000
f 53/53/14 54/54/14 55/55/14
f 53/53/14 55/55/14 56/56/14
