mtllib pz_native_location_restaurant_seahorse_01_20.mtl
o pz_native_location_restaurant_seahorse_01_20_glass
usemtl Native_pz_native_location_restaurant_seahorse_01_20
v -0.49400000 0.51562500 2.47500526
v -0.49400000 -0.54687500 2.47500526
v -0.49400000 -0.54687500 -0.84201210
v -0.49400000 0.51562500 -0.84201210
vt 0.289062500 0.996093750
vt 0.554687500 0.996093750
vt 0.554687500 0.488281250
vt 0.289062500 0.488281250
vn 1.00000000 0.00000000 0.00000000
f 1/1/1 2/2/1 3/3/1
f 1/1/1 3/3/1 4/4/1
v -0.49300000 0.51562500 -0.84201210
v -0.49300000 -0.54687500 -0.84201210
v -0.49300000 -0.54687500 2.47500526
v -0.49300000 0.51562500 2.47500526
vt 0.289062500 0.488281250
vt 0.554687500 0.488281250
vt 0.554687500 0.996093750
vt 0.289062500 0.996093750
vn -1.00000000 0.00000000 0.00000000
f 5/5/2 6/6/2 7/7/2
f 5/5/2 7/7/2 8/8/2
