mtllib pz_native_location_community_church_small_01_271.mtl
o pz_native_location_community_church_small_01_271_frame
usemtl Native_pz_native_location_community_church_small_01_271
v -0.56250000 -0.50000000 2.47500526
v 0.45312500 -0.50000000 2.47500526
v 0.45312500 -0.50000000 1.28853367
v -0.56250000 -0.50000000 1.28853367
vt 0.007812500 0.984375000
vt 0.261718750 0.984375000
vt 0.261718750 0.257812500
vt 0.007812500 0.257812500
vn -0.00000000 1.00000000 0.00000000
f 1/1/1 2/2/1 3/3/1
f 1/1/1 3/3/1 4/4/1
v -0.56250000 -0.54000000 1.28853367
v 0.45312500 -0.54000000 1.28853367
v 0.45312500 -0.54000000 2.47500526
v -0.56250000 -0.54000000 2.47500526
vt 0.007812500 0.257812500
vt 0.261718750 0.257812500
vt 0.261718750 0.984375000
vt 0.007812500 0.984375000
vn 0.00000000 -1.00000000 0.00000000
f 5/5/2 6/6/2 7/7/2
f 5/5/2 7/7/2 8/8/2
v 0.35937500 -0.54000000 2.46224750
v 0.43750000 -0.54000000 2.46224750
v 0.43750000 -0.50000000 2.46224750
v 0.35937500 -0.50000000 2.46224750
vt 0.009765625 0.214843750
vt 0.021484375 0.214843750
vt 0.021484375 0.238281250
vt 0.009765625 0.238281250
vn 0.00000000 0.00000000 1.00000000
f 9/9/3 10/10/3 11/11/3
f 9/9/3 11/11/3 12/12/3
v 0.43750000 -0.54000000 2.46224750
v 0.43750000 -0.54000000 1.33956470
v 0.43750000 -0.50000000 1.33956470
v 0.43750000 -0.50000000 2.46224750
vt 0.025390625 0.214843750
vt 0.037109375 0.214843750
vt 0.037109375 0.238281250
vt 0.025390625 0.238281250
vn 1.00000000 0.00000000 0.00000000
f 13/13/4 14/14/4 15/15/4
f 13/13/4 15/15/4 16/16/4
v 0.43750000 -0.54000000 1.33956470
v 0.39062500 -0.54000000 1.31404918
v 0.39062500 -0.50000000 1.31404918
v 0.43750000 -0.50000000 1.33956470
vt 0.041015625 0.214843750
vt 0.052734375 0.214843750
vt 0.052734375 0.238281250
vt 0.041015625 0.238281250
vn 0.47809144 0.00000000 -0.87831007
f 17/17/5 18/18/5 19/19/5
f 17/17/5 19/19/5 20/20/5
v 0.39062500 -0.54000000 1.31404918
v -0.53125000 -0.54000000 1.31404918
v -0.53125000 -0.50000000 1.31404918
v 0.39062500 -0.50000000 1.31404918
vt 0.056640625 0.214843750
vt 0.068359375 0.214843750
vt 0.068359375 0.238281250
vt 0.056640625 0.238281250
vn 0.00000000 0.00000000 -1.00000000
f 21/21/6 22/22/6 23/23/6
f 21/21/6 23/23/6 24/24/6
v -0.53125000 -0.54000000 1.31404918
v -0.53125000 -0.54000000 2.36018543
v -0.53125000 -0.50000000 2.36018543
v -0.53125000 -0.50000000 1.31404918
vt 0.072265625 0.214843750
vt 0.083984375 0.214843750
vt 0.083984375 0.238281250
vt 0.072265625 0.238281250
vn -1.00000000 0.00000000 0.00000000
f 25/25/7 26/26/7 27/27/7
f 25/25/7 27/27/7 28/28/7
v -0.53125000 -0.54000000 2.36018543
v -0.43750000 -0.54000000 2.39845871
v -0.43750000 -0.50000000 2.39845871
v -0.53125000 -0.50000000 2.36018543
vt 0.087890625 0.214843750
vt 0.099609375 0.214843750
vt 0.099609375 0.238281250
vt 0.087890625 0.238281250
vn -0.37796447 0.00000000 0.92582010
f 29/29/8 30/30/8 31/31/8
f 29/29/8 31/31/8 32/32/8
v -0.43750000 -0.54000000 2.39845871
v -0.43750000 -0.54000000 2.18157680
v -0.43750000 -0.50000000 2.18157680
v -0.43750000 -0.50000000 2.39845871
vt 0.103515625 0.214843750
vt 0.115234375 0.214843750
vt 0.115234375 0.238281250
vt 0.103515625 0.238281250
vn 1.00000000 0.00000000 0.00000000
f 33/33/9 34/34/9 35/35/9
f 33/33/9 35/35/9 36/36/9
v -0.43750000 -0.54000000 2.18157680
v -0.37500000 -0.54000000 2.16881904
v -0.37500000 -0.50000000 2.16881904
v -0.43750000 -0.50000000 2.18157680
vt 0.119140625 0.214843750
vt 0.130859375 0.214843750
vt 0.130859375 0.238281250
vt 0.119140625 0.238281250
vn 0.20000000 0.00000000 0.97979590
f 37/37/10 38/38/10 39/39/10
f 37/37/10 39/39/10 40/40/10
v -0.37500000 -0.54000000 2.16881904
v -0.39062500 -0.54000000 2.13054577
v -0.39062500 -0.50000000 2.13054577
v -0.37500000 -0.50000000 2.16881904
vt 0.134765625 0.214843750
vt 0.146484375 0.214843750
vt 0.146484375 0.238281250
vt 0.134765625 0.238281250
vn 0.92582010 0.00000000 -0.37796447
f 41/41/11 42/42/11 43/43/11
f 41/41/11 43/43/11 44/44/11
v -0.39062500 -0.54000000 2.13054577
v -0.43750000 -0.54000000 2.13054577
v -0.43750000 -0.50000000 2.13054577
v -0.39062500 -0.50000000 2.13054577
vt 0.150390625 0.214843750
vt 0.162109375 0.214843750
vt 0.162109375 0.238281250
vt 0.150390625 0.238281250
vn 0.00000000 0.00000000 -1.00000000
f 45/45/12 46/46/12 47/47/12
f 45/45/12 47/47/12 48/48/12
v -0.43750000 -0.54000000 2.13054577
v -0.43750000 -0.54000000 1.45438453
v -0.43750000 -0.50000000 1.45438453
v -0.43750000 -0.50000000 2.13054577
vt 0.166015625 0.214843750
vt 0.177734375 0.214843750
vt 0.177734375 0.238281250
vt 0.166015625 0.238281250
vn 1.00000000 0.00000000 0.00000000
f 49/49/13 50/50/13 51/51/13
f 49/49/13 51/51/13 52/52/13
v -0.43750000 -0.54000000 1.45438453
v -0.09375000 -0.54000000 1.45438453
v -0.09375000 -0.50000000 1.45438453
v -0.43750000 -0.50000000 1.45438453
vt 0.181640625 0.214843750
vt 0.193359375 0.214843750
vt 0.193359375 0.238281250
vt 0.181640625 0.238281250
vn 0.00000000 0.00000000 1.00000000
f 53/53/14 54/54/14 55/55/14
f 53/53/14 55/55/14 56/56/14
v -0.09375000 -0.54000000 1.45438453
v -0.07812500 -0.54000000 1.56920437
v -0.07812500 -0.50000000 1.56920437
v -0.09375000 -0.50000000 1.45438453
vt 0.197265625 0.214843750
vt 0.208984375 0.214843750
vt 0.208984375 0.238281250
vt 0.197265625 0.238281250
vn -0.99086739 0.00000000 0.13483997
f 57/57/15 58/58/15 59/59/15
f 57/57/15 59/59/15 60/60/15
v -0.07812500 -0.54000000 1.56920437
v -0.01562500 -0.54000000 1.55644661
v -0.01562500 -0.50000000 1.55644661
v -0.07812500 -0.50000000 1.56920437
vt 0.212890625 0.214843750
vt 0.224609375 0.214843750
vt 0.224609375 0.238281250
vt 0.212890625 0.238281250
vn 0.20000000 0.00000000 0.97979590
f 61/61/16 62/62/16 63/63/16
f 61/61/16 63/63/16 64/64/16
v -0.01562500 -0.54000000 1.55644661
v -0.01562500 -0.54000000 1.45438453
v -0.01562500 -0.50000000 1.45438453
v -0.01562500 -0.50000000 1.55644661
vt 0.228515625 0.214843750
vt 0.240234375 0.214843750
vt 0.240234375 0.238281250
vt 0.228515625 0.238281250
vn 1.00000000 0.00000000 0.00000000
f 65/65/17 66/66/17 67/67/17
f 65/65/17 67/67/17 68/68/17
v -0.01562500 -0.54000000 1.45438453
v 0.34375000 -0.54000000 1.45438453
v 0.34375000 -0.50000000 1.45438453
v -0.01562500 -0.50000000 1.45438453
vt 0.244140625 0.214843750
vt 0.255859375 0.214843750
vt 0.255859375 0.238281250
vt 0.244140625 0.238281250
vn 0.00000000 0.00000000 1.00000000
f 69/69/18 70/70/18 71/71/18
f 69/69/18 71/71/18 72/72/18
v 0.34375000 -0.54000000 1.45438453
v 0.34375000 -0.54000000 2.14330352
v 0.34375000 -0.50000000 2.14330352
v 0.34375000 -0.50000000 1.45438453
vt 0.009765625 0.183593750
vt 0.021484375 0.183593750
vt 0.021484375 0.207031250
vt 0.009765625 0.207031250
vn -1.00000000 0.00000000 0.00000000
f 73/73/19 74/74/19 75/75/19
f 73/73/19 75/75/19 76/76/19
v 0.34375000 -0.54000000 2.14330352
v 0.28125000 -0.54000000 2.13054577
v 0.28125000 -0.50000000 2.13054577
v 0.34375000 -0.50000000 2.14330352
vt 0.025390625 0.183593750
vt 0.037109375 0.183593750
vt 0.037109375 0.207031250
vt 0.025390625 0.207031250
vn 0.20000000 0.00000000 -0.97979590
f 77/77/20 78/78/20 79/79/20
f 77/77/20 79/79/20 80/80/20
v 0.28125000 -0.54000000 2.13054577
v 0.28125000 -0.54000000 2.15606128
v 0.28125000 -0.50000000 2.15606128
v 0.28125000 -0.50000000 2.13054577
vt 0.041015625 0.183593750
vt 0.052734375 0.183593750
vt 0.052734375 0.207031250
vt 0.041015625 0.207031250
vn -1.00000000 0.00000000 0.00000000
f 81/81/21 82/82/21 83/83/21
f 81/81/21 83/83/21 84/84/21
v 0.28125000 -0.54000000 2.15606128
v 0.29687500 -0.54000000 2.18157680
v 0.29687500 -0.50000000 2.18157680
v 0.28125000 -0.50000000 2.15606128
vt 0.056640625 0.183593750
vt 0.068359375 0.183593750
vt 0.068359375 0.207031250
vt 0.056640625 0.207031250
vn -0.85280287 0.00000000 0.52223297
f 85/85/22 86/86/22 87/87/22
f 85/85/22 87/87/22 88/88/22
v 0.29687500 -0.54000000 2.18157680
v 0.34375000 -0.54000000 2.18157680
v 0.34375000 -0.50000000 2.18157680
v 0.29687500 -0.50000000 2.18157680
vt 0.072265625 0.183593750
vt 0.083984375 0.183593750
vt 0.083984375 0.207031250
vt 0.072265625 0.207031250
vn 0.00000000 0.00000000 1.00000000
f 89/89/23 90/90/23 91/91/23
f 89/89/23 91/91/23 92/92/23
v 0.34375000 -0.54000000 2.18157680
v 0.35937500 -0.54000000 2.46224750
v 0.35937500 -0.50000000 2.46224750
v 0.34375000 -0.50000000 2.18157680
vt 0.087890625 0.183593750
vt 0.099609375 0.183593750
vt 0.099609375 0.207031250
vt 0.087890625 0.207031250
vn -0.99845401 0.00000000 0.05558416
f 93/93/24 94/94/24 95/95/24
f 93/93/24 95/95/24 96/96/24
