mtllib pz_native_fixtures_railings_01_91.mtl
o pz_native_fixtures_railings_01_91_frame
usemtl Native_pz_native_fixtures_railings_01_91
v -0.41796875 -0.30859375 1.32999638
v -0.41796875 -0.52734375 1.32999638
v -0.41796875 -0.52734375 -0.02232608
v -0.41796875 -0.30859375 -0.02232608
vt 0.015625000 0.984375000
vt 0.125000000 0.984375000
vt 0.125000000 0.156250000
vt 0.015625000 0.156250000
vn 1.00000000 0.00000000 0.00000000
f 1/1/1 2/2/1 3/3/1
f 1/1/1 3/3/1 4/4/1
v -0.37296875 -0.30859375 -0.02232608
v -0.37296875 -0.52734375 -0.02232608
v -0.37296875 -0.52734375 1.32999638
v -0.37296875 -0.30859375 1.32999638
vt 0.015625000 0.156250000
vt 0.125000000 0.156250000
vt 0.125000000 0.984375000
vt 0.015625000 0.984375000
vn -1.00000000 0.00000000 0.00000000
f 5/5/2 6/6/2 7/7/2
f 5/5/2 7/7/2 8/8/2
v -0.37296875 -0.35546875 1.31723862
v -0.37296875 -0.44921875 1.27896535
v -0.41796875 -0.44921875 1.27896535
v -0.41796875 -0.35546875 1.31723862
vt 0.019531250 0.113281250
vt 0.042968750 0.113281250
vt 0.042968750 0.136718750
vt 0.019531250 0.136718750
vn 0.00000000 0.37796447 -0.92582010
f 9/9/3 10/10/3 11/11/3
f 9/9/3 11/11/3 12/12/3
v -0.37296875 -0.44921875 1.27896535
v -0.37296875 -0.44921875 1.07484120
v -0.41796875 -0.44921875 1.07484120
v -0.41796875 -0.44921875 1.27896535
vt 0.050781250 0.113281250
vt 0.074218750 0.113281250
vt 0.074218750 0.136718750
vt 0.050781250 0.136718750
vn 0.00000000 1.00000000 0.00000000
f 13/13/4 14/14/4 15/15/4
f 13/13/4 15/15/4 16/16/4
v -0.37296875 -0.44921875 1.07484120
v -0.37296875 -0.51171875 1.04932568
v -0.41796875 -0.51171875 1.04932568
v -0.41796875 -0.44921875 1.07484120
vt 0.082031250 0.113281250
vt 0.105468750 0.113281250
vt 0.105468750 0.136718750
vt 0.082031250 0.136718750
vn 0.00000000 0.37796447 -0.92582010
f 17/17/5 18/18/5 19/19/5
f 17/17/5 19/19/5 20/20/5
v -0.37296875 -0.51171875 1.04932568
v -0.37296875 -0.48046875 1.04932568
v -0.41796875 -0.48046875 1.04932568
v -0.41796875 -0.51171875 1.04932568
vt 0.113281250 0.113281250
vt 0.136718750 0.113281250
vt 0.136718750 0.136718750
vt 0.113281250 0.136718750
vn 0.00000000 -0.00000000 1.00000000
f 21/21/6 22/22/6 23/23/6
f 21/21/6 23/23/6 24/24/6
v -0.37296875 -0.48046875 1.04932568
v -0.37296875 -0.48046875 0.15628255
v -0.41796875 -0.48046875 0.15628255
v -0.41796875 -0.48046875 1.04932568
vt 0.144531250 0.113281250
vt 0.167968750 0.113281250
vt 0.167968750 0.136718750
vt 0.144531250 0.136718750
vn 0.00000000 1.00000000 0.00000000
f 25/25/7 26/26/7 27/27/7
f 25/25/7 27/27/7 28/28/7
v -0.37296875 -0.48046875 0.15628255
v -0.37296875 -0.51171875 -0.00956832
v -0.41796875 -0.51171875 -0.00956832
v -0.41796875 -0.48046875 0.15628255
vt 0.175781250 0.113281250
vt 0.199218750 0.113281250
vt 0.199218750 0.136718750
vt 0.175781250 0.136718750
vn 0.00000000 0.98270763 -0.18516402
f 29/29/8 30/30/8 31/31/8
f 29/29/8 31/31/8 32/32/8
v -0.37296875 -0.51171875 -0.00956832
v -0.37296875 -0.40234375 -0.00956832
v -0.41796875 -0.40234375 -0.00956832
v -0.41796875 -0.51171875 -0.00956832
vt 0.207031250 0.113281250
vt 0.230468750 0.113281250
vt 0.230468750 0.136718750
vt 0.207031250 0.136718750
vn 0.00000000 -0.00000000 1.00000000
f 33/33/9 34/34/9 35/35/9
f 33/33/9 35/35/9 36/36/9
v -0.37296875 -0.40234375 -0.00956832
v -0.37296875 -0.32421875 0.05422048
v -0.41796875 -0.32421875 0.05422048
v -0.41796875 -0.40234375 -0.00956832
vt 0.238281250 0.113281250
vt 0.261718750 0.113281250
vt 0.261718750 0.136718750
vt 0.238281250 0.136718750
vn 0.00000000 -0.63245553 0.77459667
f 37/37/10 38/38/10 39/39/10
f 37/37/10 39/39/10 40/40/10
v -0.37296875 -0.32421875 0.05422048
v -0.37296875 -0.35546875 1.31723862
v -0.41796875 -0.35546875 1.31723862
v -0.41796875 -0.32421875 0.05422048
vt 0.269531250 0.113281250
vt 0.292968750 0.113281250
vt 0.292968750 0.136718750
vt 0.269531250 0.136718750
vn 0.00000000 -0.99969405 -0.02473475
f 41/41/11 42/42/11 43/43/11
f 41/41/11 43/43/11 44/44/11
