mtllib pz_native_fixtures_windows_church_12.mtl
o pz_native_fixtures_windows_church_12_glass
usemtl Native_pz_native_fixtures_windows_church_12
v -0.49400000 0.50000000 2.43673198
v -0.49400000 -0.34375000 2.43673198
v -0.49400000 -0.34375000 0.73995003
v -0.49400000 0.50000000 0.73995003
vt 0.468750000 0.992187500
vt 0.890625000 0.992187500
vt 0.890625000 0.472656250
vt 0.468750000 0.472656250
vn 1.00000000 0.00000000 0.00000000
f 1/1/1 2/2/1 3/3/1
f 1/1/1 3/3/1 4/4/1
v -0.49300000 0.50000000 0.73995003
v -0.49300000 -0.34375000 0.73995003
v -0.49300000 -0.34375000 2.43673198
v -0.49300000 0.50000000 2.43673198
vt 0.468750000 0.472656250
vt 0.890625000 0.472656250
vt 0.890625000 0.992187500
vt 0.468750000 0.992187500
vn -1.00000000 0.00000000 0.00000000
f 5/5/2 6/6/2 7/7/2
f 5/5/2 7/7/2 8/8/2
