mtllib pz_native_location_restaurant_seahorse_01_28.mtl
o pz_native_location_restaurant_seahorse_01_28_frame
usemtl Native_pz_native_location_restaurant_seahorse_01_28
v -0.50000000 0.48437500 2.47500526
v -0.50000000 -0.54687500 2.47500526
v -0.50000000 -0.54687500 -0.84201210
v -0.50000000 0.48437500 -0.84201210
vt 0.007812500 0.996093750
vt 0.265625000 0.996093750
vt 0.265625000 0.488281250
vt 0.007812500 0.488281250
vn 1.00000000 0.00000000 0.00000000
f 1/1/1 2/2/1 3/3/1
f 1/1/1 3/3/1 4/4/1
v -0.46000000 0.48437500 -0.84201210
v -0.46000000 -0.54687500 -0.84201210
v -0.46000000 -0.54687500 2.47500526
v -0.46000000 0.48437500 2.47500526
vt 0.007812500 0.488281250
vt 0.265625000 0.488281250
vt 0.265625000 0.996093750
vt 0.007812500 0.996093750
vn -1.00000000 0.00000000 0.00000000
f 5/5/2 6/6/2 7/7/2
f 5/5/2 7/7/2 8/8/2
v -0.46000000 0.46875000 2.46224750
v -0.46000000 -0.51562500 2.44948974
v -0.50000000 -0.51562500 2.44948974
v -0.50000000 0.46875000 2.46224750
vt 0.009765625 0.477539062
vt 0.021484375 0.477539062
vt 0.021484375 0.483398438
vt 0.009765625 0.483398438
vn 0.00000000 0.01295917 -0.99991603
f 9/9/3 10/10/3 11/11/3
f 9/9/3 11/11/3 12/12/3
v -0.46000000 -0.51562500 2.44948974
v -0.46000000 -0.53125000 1.74781299
v -0.50000000 -0.53125000 1.74781299
v -0.50000000 -0.51562500 2.44948974
vt 0.025390625 0.477539062
vt 0.037109375 0.477539062
vt 0.037109375 0.483398438
vt 0.025390625 0.483398438
vn 0.00000000 0.99975216 -0.02226257
f 13/13/4 14/14/4 15/15/4
f 13/13/4 15/15/4 16/16/4
v -0.46000000 -0.53125000 1.74781299
v -0.46000000 0.45312500 1.74781299
v -0.50000000 0.45312500 1.74781299
v -0.50000000 -0.53125000 1.74781299
vt 0.041015625 0.477539062
vt 0.052734375 0.477539062
vt 0.052734375 0.483398438
vt 0.041015625 0.483398438
vn 0.00000000 -0.00000000 1.00000000
f 17/17/5 18/18/5 19/19/5
f 17/17/5 19/19/5 20/20/5
v -0.46000000 0.45312500 1.74781299
v -0.46000000 0.46875000 2.46224750
v -0.50000000 0.46875000 2.46224750
v -0.50000000 0.45312500 1.74781299
vt 0.056640625 0.477539062
vt 0.068359375 0.477539062
vt 0.068359375 0.483398438
vt 0.056640625 0.483398438
vn 0.00000000 -0.99976093 0.02186522
f 21/21/6 22/22/6 23/23/6
f 21/21/6 23/23/6 24/24/6
v -0.46000000 0.46875000 0.48479484
v -0.46000000 -0.51562500 0.48479484
v -0.50000000 -0.51562500 0.48479484
v -0.50000000 0.46875000 0.48479484
vt 0.072265625 0.477539062
vt 0.083984375 0.477539062
vt 0.083984375 0.483398438
vt 0.072265625 0.483398438
vn 0.00000000 -0.00000000 -1.00000000
f 25/25/7 26/26/7 27/27/7
f 25/25/7 27/27/7 28/28/7
v -0.46000000 -0.51562500 0.48479484
v -0.46000000 -0.53125000 -0.05103104
v -0.50000000 -0.53125000 -0.05103104
v -0.50000000 -0.51562500 0.48479484
vt 0.087890625 0.477539062
vt 0.099609375 0.477539062
vt 0.099609375 0.483398438
vt 0.087890625 0.483398438
vn 0.00000000 0.99957510 -0.02914820
f 29/29/8 30/30/8 31/31/8
f 29/29/8 31/31/8 32/32/8
v -0.46000000 -0.53125000 -0.05103104
v -0.46000000 0.45312500 -0.05103104
v -0.50000000 0.45312500 -0.05103104
v -0.50000000 -0.53125000 -0.05103104
vt 0.103515625 0.477539062
vt 0.115234375 0.477539062
vt 0.115234375 0.483398438
vt 0.103515625 0.483398438
vn 0.00000000 -0.00000000 1.00000000
f 33/33/9 34/34/9 35/35/9
f 33/33/9 35/35/9 36/36/9
v -0.46000000 0.45312500 -0.05103104
v -0.46000000 0.46875000 0.48479484
v -0.50000000 0.46875000 0.48479484
v -0.50000000 0.45312500 -0.05103104
vt 0.119140625 0.477539062
vt 0.130859375 0.477539062
vt 0.130859375 0.483398438
vt 0.119140625 0.483398438
vn 0.00000000 -0.99957510 0.02914820
f 37/37/10 38/38/10 39/39/10
f 37/37/10 39/39/10 40/40/10
