mtllib pz_native_fixtures_windows_white_9.mtl
o pz_native_fixtures_windows_white_9_frame
usemtl Native_pz_native_fixtures_windows_white_9
v -0.60937500 -0.50000000 2.42397422
v 0.45312500 -0.50000000 2.42397422
v 0.45312500 -0.50000000 0.71443451
v -0.60937500 -0.50000000 0.71443451
vt 0.007812500 0.992187500
vt 0.273437500 0.992187500
vt 0.273437500 0.468750000
vt 0.007812500 0.468750000
vn -0.00000000 1.00000000 0.00000000
f 1/1/1 2/2/1 3/3/1
f 1/1/1 3/3/1 4/4/1
v -0.60937500 -0.54000000 0.71443451
v 0.45312500 -0.54000000 0.71443451
v 0.45312500 -0.54000000 2.42397422
v -0.60937500 -0.54000000 2.42397422
vt 0.007812500 0.468750000
vt 0.273437500 0.468750000
vt 0.273437500 0.992187500
vt 0.007812500 0.992187500
vn 0.00000000 -1.00000000 0.00000000
f 5/5/2 6/6/2 7/7/2
f 5/5/2 7/7/2 8/8/2
v -0.57812500 -0.54000000 2.39845871
v 0.42187500 -0.54000000 2.39845871
v 0.42187500 -0.50000000 2.39845871
v -0.57812500 -0.50000000 2.39845871
vt 0.009765625 0.447265625
vt 0.021484375 0.447265625
vt 0.021484375 0.458984375
vt 0.009765625 0.458984375
vn 0.00000000 0.00000000 1.00000000
f 9/9/3 10/10/3 11/11/3
f 9/9/3 11/11/3 12/12/3
v 0.42187500 -0.54000000 2.39845871
v 0.43750000 -0.54000000 0.82925434
v 0.43750000 -0.50000000 0.82925434
v 0.42187500 -0.50000000 2.39845871
vt 0.025390625 0.447265625
vt 0.037109375 0.447265625
vt 0.037109375 0.458984375
vt 0.025390625 0.458984375
vn 0.99995043 0.00000000 0.00995678
f 13/13/4 14/14/4 15/15/4
f 13/13/4 15/15/4 16/16/4
v 0.43750000 -0.54000000 0.82925434
v 0.42187500 -0.54000000 0.77822330
v 0.42187500 -0.50000000 0.77822330
v 0.43750000 -0.50000000 0.82925434
vt 0.041015625 0.447265625
vt 0.052734375 0.447265625
vt 0.052734375 0.458984375
vt 0.041015625 0.458984375
vn 0.95618289 0.00000000 -0.29277002
f 17/17/5 18/18/5 19/19/5
f 17/17/5 19/19/5 20/20/5
v 0.42187500 -0.54000000 0.77822330
v 0.35937500 -0.54000000 0.75270779
v 0.35937500 -0.50000000 0.75270779
v 0.42187500 -0.50000000 0.77822330
vt 0.056640625 0.447265625
vt 0.068359375 0.447265625
vt 0.068359375 0.458984375
vt 0.056640625 0.458984375
vn 0.37796447 0.00000000 -0.92582010
f 21/21/6 22/22/6 23/23/6
f 21/21/6 23/23/6 24/24/6
v 0.35937500 -0.54000000 0.75270779
v 0.32812500 -0.54000000 0.77822330
v 0.32812500 -0.50000000 0.77822330
v 0.35937500 -0.50000000 0.75270779
vt 0.072265625 0.447265625
vt 0.083984375 0.447265625
vt 0.083984375 0.458984375
vt 0.072265625 0.458984375
vn -0.63245553 0.00000000 -0.77459667
f 25/25/7 26/26/7 27/27/7
f 25/25/7 27/27/7 28/28/7
v 0.32812500 -0.54000000 0.77822330
v 0.29687500 -0.54000000 0.73995003
v 0.29687500 -0.50000000 0.73995003
v 0.32812500 -0.50000000 0.77822330
vt 0.087890625 0.447265625
vt 0.099609375 0.447265625
vt 0.099609375 0.458984375
vt 0.087890625 0.458984375
vn 0.77459667 0.00000000 -0.63245553
f 29/29/8 30/30/8 31/31/8
f 29/29/8 31/31/8 32/32/8
v 0.29687500 -0.54000000 0.73995003
v -0.59375000 -0.54000000 0.73995003
v -0.59375000 -0.50000000 0.73995003
v 0.29687500 -0.50000000 0.73995003
vt 0.103515625 0.447265625
vt 0.115234375 0.447265625
vt 0.115234375 0.458984375
vt 0.103515625 0.458984375
vn 0.00000000 0.00000000 -1.00000000
f 33/33/9 34/34/9 35/35/9
f 33/33/9 35/35/9 36/36/9
v -0.59375000 -0.54000000 0.73995003
v -0.57812500 -0.54000000 2.39845871
v -0.57812500 -0.50000000 2.39845871
v -0.59375000 -0.50000000 0.73995003
vt 0.119140625 0.447265625
vt 0.130859375 0.447265625
vt 0.130859375 0.458984375
vt 0.119140625 0.458984375
vn -0.99995562 0.00000000 0.00942070
f 37/37/10 38/38/10 39/39/10
f 37/37/10 39/39/10 40/40/10
v -0.46875000 -0.54000000 2.32191215
v -0.48437500 -0.54000000 1.60747764
v -0.48437500 -0.50000000 1.60747764
v -0.46875000 -0.50000000 2.32191215
vt 0.134765625 0.447265625
vt 0.146484375 0.447265625
vt 0.146484375 0.458984375
vt 0.134765625 0.458984375
vn 0.99976093 0.00000000 -0.02186522
f 41/41/11 42/42/11 43/43/11
f 41/41/11 43/43/11 44/44/11
v -0.48437500 -0.54000000 1.60747764
v -0.07812500 -0.54000000 1.60747764
v -0.07812500 -0.50000000 1.60747764
v -0.48437500 -0.50000000 1.60747764
vt 0.150390625 0.447265625
vt 0.162109375 0.447265625
vt 0.162109375 0.458984375
vt 0.150390625 0.458984375
vn 0.00000000 0.00000000 1.00000000
f 45/45/12 46/46/12 47/47/12
f 45/45/12 47/47/12 48/48/12
v -0.07812500 -0.54000000 1.60747764
v -0.07812500 -0.54000000 2.30915439
v -0.07812500 -0.50000000 2.30915439
v -0.07812500 -0.50000000 1.60747764
vt 0.166015625 0.447265625
vt 0.177734375 0.447265625
vt 0.177734375 0.458984375
vt 0.166015625 0.458984375
vn -1.00000000 0.00000000 0.00000000
f 49/49/13 50/50/13 51/51/13
f 49/49/13 51/51/13 52/52/13
v -0.07812500 -0.54000000 2.30915439
v -0.46875000 -0.54000000 2.32191215
v -0.46875000 -0.50000000 2.32191215
v -0.07812500 -0.50000000 2.30915439
vt 0.181640625 0.447265625
vt 0.193359375 0.447265625
vt 0.193359375 0.458984375
vt 0.181640625 0.458984375
vn -0.03264246 0.00000000 -0.99946709
f 53/53/14 54/54/14 55/55/14
f 53/53/14 55/55/14 56/56/14
v -0.46875000 -0.54000000 1.53093109
v -0.48437500 -0.54000000 0.86752762
v -0.48437500 -0.50000000 0.86752762
v -0.46875000 -0.50000000 1.53093109
vt 0.197265625 0.447265625
vt 0.208984375 0.447265625
vt 0.208984375 0.458984375
vt 0.197265625 0.458984375
vn 0.99972275 0.00000000 -0.02354626
f 57/57/15 58/58/15 59/59/15
f 57/57/15 59/59/15 60/60/15
v -0.48437500 -0.54000000 0.86752762
v -0.07812500 -0.54000000 0.85476986
v -0.07812500 -0.50000000 0.85476986
v -0.48437500 -0.50000000 0.86752762
vt 0.212890625 0.447265625
vt 0.224609375 0.447265625
vt 0.224609375 0.458984375
vt 0.212890625 0.458984375
vn 0.03138824 0.00000000 0.99950727
f 61/61/16 62/62/16 63/63/16
f 61/61/16 63/63/16 64/64/16
v -0.07812500 -0.54000000 0.85476986
v -0.07812500 -0.54000000 1.51817333
v -0.07812500 -0.50000000 1.51817333
v -0.07812500 -0.50000000 0.85476986
vt 0.228515625 0.447265625
vt 0.240234375 0.447265625
vt 0.240234375 0.458984375
vt 0.228515625 0.458984375
vn -1.00000000 0.00000000 0.00000000
f 65/65/17 66/66/17 67/67/17
f 65/65/17 67/67/17 68/68/17
v -0.07812500 -0.54000000 1.51817333
v -0.46875000 -0.54000000 1.53093109
v -0.46875000 -0.50000000 1.53093109
v -0.07812500 -0.50000000 1.51817333
vt 0.244140625 0.447265625
vt 0.255859375 0.447265625
vt 0.255859375 0.458984375
vt 0.244140625 0.458984375
vn -0.03264246 0.00000000 -0.99946709
f 69/69/18 70/70/18 71/71/18
f 69/69/18 71/71/18 72/72/18
v 0.00000000 -0.54000000 2.32191215
v -0.03125000 -0.54000000 2.30915439
v -0.03125000 -0.50000000 2.30915439
v 0.00000000 -0.50000000 2.32191215
vt 0.009765625 0.431640625
vt 0.021484375 0.431640625
vt 0.021484375 0.443359375
vt 0.009765625 0.443359375
vn 0.37796447 0.00000000 -0.92582010
f 73/73/19 74/74/19 75/75/19
f 73/73/19 75/75/19 76/76/19
v -0.03125000 -0.54000000 2.30915439
v -0.03125000 -0.54000000 1.60747764
v -0.03125000 -0.50000000 1.60747764
v -0.03125000 -0.50000000 2.30915439
vt 0.025390625 0.431640625
vt 0.037109375 0.431640625
vt 0.037109375 0.443359375
vt 0.025390625 0.443359375
vn 1.00000000 0.00000000 0.00000000
f 77/77/20 78/78/20 79/79/20
f 77/77/20 79/79/20 80/80/20
v -0.03125000 -0.54000000 1.60747764
v 0.32812500 -0.54000000 1.60747764
v 0.32812500 -0.50000000 1.60747764
v -0.03125000 -0.50000000 1.60747764
vt 0.041015625 0.431640625
vt 0.052734375 0.431640625
vt 0.052734375 0.443359375
vt 0.041015625 0.443359375
vn 0.00000000 0.00000000 1.00000000
f 81/81/21 82/82/21 83/83/21
f 81/81/21 83/83/21 84/84/21
v 0.32812500 -0.54000000 1.60747764
v 0.32812500 -0.54000000 2.30915439
v 0.32812500 -0.50000000 2.30915439
v 0.32812500 -0.50000000 1.60747764
vt 0.056640625 0.431640625
vt 0.068359375 0.431640625
vt 0.068359375 0.443359375
vt 0.056640625 0.443359375
vn -1.00000000 0.00000000 0.00000000
f 85/85/22 86/86/22 87/87/22
f 85/85/22 87/87/22 88/88/22
v 0.32812500 -0.54000000 2.30915439
v 0.00000000 -0.54000000 2.32191215
v 0.00000000 -0.50000000 2.32191215
v 0.32812500 -0.50000000 2.30915439
vt 0.072265625 0.431640625
vt 0.083984375 0.431640625
vt 0.083984375 0.443359375
vt 0.072265625 0.443359375
vn -0.03885143 0.00000000 -0.99924500
f 89/89/23 90/90/23 91/91/23
f 89/89/23 91/91/23 92/92/23
v 0.00000000 -0.54000000 1.53093109
v -0.03125000 -0.54000000 1.51817333
v -0.03125000 -0.50000000 1.51817333
v 0.00000000 -0.50000000 1.53093109
vt 0.087890625 0.431640625
vt 0.099609375 0.431640625
vt 0.099609375 0.443359375
vt 0.087890625 0.443359375
vn 0.37796447 0.00000000 -0.92582010
f 93/93/24 94/94/24 95/95/24
f 93/93/24 95/95/24 96/96/24
v -0.03125000 -0.54000000 1.51817333
v -0.03125000 -0.54000000 0.85476986
v -0.03125000 -0.50000000 0.85476986
v -0.03125000 -0.50000000 1.51817333
vt 0.103515625 0.431640625
vt 0.115234375 0.431640625
vt 0.115234375 0.443359375
vt 0.103515625 0.443359375
vn 1.00000000 0.00000000 0.00000000
f 97/97/25 98/98/25 99/99/25
f 97/97/25 99/99/25 100/100/25
v -0.03125000 -0.54000000 0.85476986
v 0.32812500 -0.54000000 0.85476986
v 0.32812500 -0.50000000 0.85476986
v -0.03125000 -0.50000000 0.85476986
vt 0.119140625 0.431640625
vt 0.130859375 0.431640625
vt 0.130859375 0.443359375
vt 0.119140625 0.443359375
vn 0.00000000 0.00000000 1.00000000
f 101/101/26 102/102/26 103/103/26
f 101/101/26 103/103/26 104/104/26
v 0.32812500 -0.54000000 0.85476986
v 0.32812500 -0.54000000 1.51817333
v 0.32812500 -0.50000000 1.51817333
v 0.32812500 -0.50000000 0.85476986
vt 0.134765625 0.431640625
vt 0.146484375 0.431640625
vt 0.146484375 0.443359375
vt 0.134765625 0.443359375
vn -1.00000000 0.00000000 0.00000000
f 105/105/27 106/106/27 107/107/27
f 105/105/27 107/107/27 108/108/27
v 0.32812500 -0.54000000 1.51817333
v 0.00000000 -0.54000000 1.53093109
v 0.00000000 -0.50000000 1.53093109
v 0.32812500 -0.50000000 1.51817333
vt 0.150390625 0.431640625
vt 0.162109375 0.431640625
vt 0.162109375 0.443359375
vt 0.150390625 0.443359375
vn -0.03885143 0.00000000 -0.99924500
f 109/109/28 110/110/28 111/111/28
f 109/109/28 111/111/28 112/112/28
