mtllib pz_native_fixtures_railings_01_13.mtl
o pz_native_fixtures_railings_01_13_frame
usemtl Native_pz_native_fixtures_railings_01_13
v -0.50000000 -0.20312500 0.22963966
v -0.50000000 -0.53125000 0.22963966
v -0.50000000 -0.53125000 -0.05103104
v -0.50000000 -0.20312500 -0.05103104
vt 0.015625000 0.968750000
vt 0.179687500 0.968750000
vt 0.179687500 0.625000000
vt 0.015625000 0.625000000
vn 1.00000000 0.00000000 0.00000000
f 1/1/1 2/2/1 3/3/1
f 1/1/1 3/3/1 4/4/1
v -0.45500000 -0.20312500 -0.05103104
v -0.45500000 -0.53125000 -0.05103104
v -0.45500000 -0.53125000 0.22963966
v -0.45500000 -0.20312500 0.22963966
vt 0.015625000 0.625000000
vt 0.179687500 0.625000000
vt 0.179687500 0.968750000
vt 0.015625000 0.968750000
vn -1.00000000 0.00000000 0.00000000
f 5/5/2 6/6/2 7/7/2
f 5/5/2 7/7/2 8/8/2
v -0.45500000 -0.50000000 0.21688190
v -0.45500000 -0.51562500 0.06378880
v -0.50000000 -0.51562500 0.06378880
v -0.50000000 -0.50000000 0.21688190
vt 0.019531250 0.539062500
vt 0.042968750 0.539062500
vt 0.042968750 0.585937500
vt 0.019531250 0.585937500
vn 0.00000000 0.99483201 -0.10153462
f 9/9/3 10/10/3 11/11/3
f 9/9/3 11/11/3 12/12/3
v -0.45500000 -0.51562500 0.06378880
v -0.45500000 -0.43750000 0.01275776
v -0.50000000 -0.43750000 0.01275776
v -0.50000000 -0.51562500 0.06378880
vt 0.050781250 0.539062500
vt 0.074218750 0.539062500
vt 0.074218750 0.585937500
vt 0.050781250 0.585937500
vn 0.00000000 0.54686874 0.83721836
f 13/13/4 14/14/4 15/15/4
f 13/13/4 15/15/4 16/16/4
v -0.45500000 -0.43750000 0.01275776
v -0.45500000 -0.43750000 -0.03827328
v -0.50000000 -0.43750000 -0.03827328
v -0.50000000 -0.43750000 0.01275776
vt 0.082031250 0.539062500
vt 0.105468750 0.539062500
vt 0.105468750 0.585937500
vt 0.082031250 0.585937500
vn 0.00000000 1.00000000 0.00000000
f 17/17/5 18/18/5 19/19/5
f 17/17/5 19/19/5 20/20/5
v -0.45500000 -0.43750000 -0.03827328
v -0.45500000 -0.21875000 -0.03827328
v -0.50000000 -0.21875000 -0.03827328
v -0.50000000 -0.43750000 -0.03827328
vt 0.113281250 0.539062500
vt 0.136718750 0.539062500
vt 0.136718750 0.585937500
vt 0.113281250 0.585937500
vn 0.00000000 -0.00000000 1.00000000
f 21/21/6 22/22/6 23/23/6
f 21/21/6 23/23/6 24/24/6
v -0.45500000 -0.21875000 -0.03827328
v -0.45500000 -0.28125000 0.02551552
v -0.50000000 -0.28125000 0.02551552
v -0.50000000 -0.21875000 -0.03827328
vt 0.144531250 0.539062500
vt 0.167968750 0.539062500
vt 0.167968750 0.585937500
vt 0.144531250 0.585937500
vn 0.00000000 -0.71428571 -0.69985421
f 25/25/7 26/26/7 27/27/7
f 25/25/7 27/27/7 28/28/7
v -0.45500000 -0.28125000 0.02551552
v -0.45500000 -0.31250000 0.02551552
v -0.50000000 -0.31250000 0.02551552
v -0.50000000 -0.28125000 0.02551552
vt 0.175781250 0.539062500
vt 0.199218750 0.539062500
vt 0.199218750 0.585937500
vt 0.175781250 0.585937500
vn 0.00000000 -0.00000000 -1.00000000
f 29/29/8 30/30/8 31/31/8
f 29/29/8 31/31/8 32/32/8
v -0.45500000 -0.31250000 0.02551552
v -0.45500000 -0.31250000 0.05103104
v -0.50000000 -0.31250000 0.05103104
v -0.50000000 -0.31250000 0.02551552
vt 0.207031250 0.539062500
vt 0.230468750 0.539062500
vt 0.230468750 0.585937500
vt 0.207031250 0.585937500
vn 0.00000000 -1.00000000 0.00000000
f 33/33/9 34/34/9 35/35/9
f 33/33/9 35/35/9 36/36/9
v -0.45500000 -0.31250000 0.05103104
v -0.45500000 -0.34375000 0.05103104
v -0.50000000 -0.34375000 0.05103104
v -0.50000000 -0.31250000 0.05103104
vt 0.238281250 0.539062500
vt 0.261718750 0.539062500
vt 0.261718750 0.585937500
vt 0.238281250 0.585937500
vn 0.00000000 -0.00000000 -1.00000000
f 37/37/10 38/38/10 39/39/10
f 37/37/10 39/39/10 40/40/10
v -0.45500000 -0.34375000 0.05103104
v -0.45500000 -0.34375000 0.07654655
v -0.50000000 -0.34375000 0.07654655
v -0.50000000 -0.34375000 0.05103104
vt 0.269531250 0.539062500
vt 0.292968750 0.539062500
vt 0.292968750 0.585937500
vt 0.269531250 0.585937500
vn 0.00000000 -1.00000000 0.00000000
f 41/41/11 42/42/11 43/43/11
f 41/41/11 43/43/11 44/44/11
v -0.45500000 -0.34375000 0.07654655
v -0.45500000 -0.37500000 0.07654655
v -0.50000000 -0.37500000 0.07654655
v -0.50000000 -0.34375000 0.07654655
vt 0.300781250 0.539062500
vt 0.324218750 0.539062500
vt 0.324218750 0.585937500
vt 0.300781250 0.585937500
vn 0.00000000 -0.00000000 -1.00000000
f 45/45/12 46/46/12 47/47/12
f 45/45/12 47/47/12 48/48/12
v -0.45500000 -0.37500000 0.07654655
v -0.45500000 -0.37500000 0.10206207
v -0.50000000 -0.37500000 0.10206207
v -0.50000000 -0.37500000 0.07654655
vt 0.332031250 0.539062500
vt 0.355468750 0.539062500
vt 0.355468750 0.585937500
vt 0.332031250 0.585937500
vn 0.00000000 -1.00000000 0.00000000
f 49/49/13 50/50/13 51/51/13
f 49/49/13 51/51/13 52/52/13
v -0.45500000 -0.37500000 0.10206207
v -0.45500000 -0.40625000 0.10206207
v -0.50000000 -0.40625000 0.10206207
v -0.50000000 -0.37500000 0.10206207
vt 0.363281250 0.539062500
vt 0.386718750 0.539062500
vt 0.386718750 0.585937500
vt 0.363281250 0.585937500
vn 0.00000000 -0.00000000 -1.00000000
f 53/53/14 54/54/14 55/55/14
f 53/53/14 55/55/14 56/56/14
v -0.45500000 -0.40625000 0.10206207
v -0.45500000 -0.40625000 0.12757759
v -0.50000000 -0.40625000 0.12757759
v -0.50000000 -0.40625000 0.10206207
vt 0.394531250 0.539062500
vt 0.417968750 0.539062500
vt 0.417968750 0.585937500
vt 0.394531250 0.585937500
vn 0.00000000 -1.00000000 0.00000000
f 57/57/15 58/58/15 59/59/15
f 57/57/15 59/59/15 60/60/15
v -0.45500000 -0.40625000 0.12757759
v -0.45500000 -0.43750000 0.12757759
v -0.50000000 -0.43750000 0.12757759
v -0.50000000 -0.40625000 0.12757759
vt 0.425781250 0.539062500
vt 0.449218750 0.539062500
vt 0.449218750 0.585937500
vt 0.425781250 0.585937500
vn 0.00000000 -0.00000000 -1.00000000
f 61/61/16 62/62/16 63/63/16
f 61/61/16 63/63/16 64/64/16
v -0.45500000 -0.43750000 0.12757759
v -0.45500000 -0.43750000 0.16585087
v -0.50000000 -0.43750000 0.16585087
v -0.50000000 -0.43750000 0.12757759
vt 0.457031250 0.539062500
vt 0.480468750 0.539062500
vt 0.480468750 0.585937500
vt 0.457031250 0.585937500
vn 0.00000000 -1.00000000 0.00000000
f 65/65/17 66/66/17 67/67/17
f 65/65/17 67/67/17 68/68/17
v -0.45500000 -0.43750000 0.16585087
v -0.45500000 -0.46875000 0.16585087
v -0.50000000 -0.46875000 0.16585087
v -0.50000000 -0.43750000 0.16585087
vt 0.488281250 0.539062500
vt 0.511718750 0.539062500
vt 0.511718750 0.585937500
vt 0.488281250 0.585937500
vn 0.00000000 -0.00000000 -1.00000000
f 69/69/18 70/70/18 71/71/18
f 69/69/18 71/71/18 72/72/18
v -0.45500000 -0.46875000 0.16585087
v -0.45500000 -0.50000000 0.21688190
v -0.50000000 -0.50000000 0.21688190
v -0.50000000 -0.46875000 0.16585087
vt 0.019531250 0.476562500
vt 0.042968750 0.476562500
vt 0.042968750 0.523437500
vt 0.019531250 0.523437500
vn 0.00000000 -0.85280287 -0.52223297
f 73/73/19 74/74/19 75/75/19
f 73/73/19 75/75/19 76/76/19
