mtllib pz_native_location_hospitality_sunstarmotel_01_31.mtl
o pz_native_location_hospitality_sunstarmotel_01_31_glass
usemtl Native_pz_native_location_hospitality_sunstarmotel_01_31
v -0.57812500 -0.50600000 1.86263283
v 0.26562500 -0.50600000 1.86263283
v 0.26562500 -0.50600000 0.89304314
v -0.57812500 -0.50600000 0.89304314
vt 0.468750000 0.984375000
vt 0.890625000 0.984375000
vt 0.890625000 0.390625000
vt 0.468750000 0.390625000
vn -0.00000000 1.00000000 0.00000000
f 1/1/1 2/2/1 3/3/1
f 1/1/1 3/3/1 4/4/1
v -0.57812500 -0.50700000 0.89304314
v 0.26562500 -0.50700000 0.89304314
v 0.26562500 -0.50700000 1.86263283
v -0.57812500 -0.50700000 1.86263283
vt 0.468750000 0.390625000
vt 0.890625000 0.390625000
vt 0.890625000 0.984375000
vt 0.468750000 0.984375000
vn 0.00000000 -1.00000000 0.00000000
f 5/5/2 6/6/2 7/7/2
f 5/5/2 7/7/2 8/8/2
