mtllib pz_native_fixtures_windows_church_82.mtl
o pz_native_fixtures_windows_church_82_glass
usemtl Native_pz_native_fixtures_windows_church_82
v -0.49400000 0.39062500 2.11778801
v -0.49400000 -0.48437500 2.11778801
v -0.49400000 -0.48437500 0.75270779
v -0.49400000 0.39062500 0.75270779
vt 0.484375000 0.984375000
vt 0.921875000 0.984375000
vt 0.921875000 0.148437500
vt 0.484375000 0.148437500
vn 1.00000000 0.00000000 0.00000000
f 1/1/1 2/2/1 3/3/1
f 1/1/1 3/3/1 4/4/1
v -0.49300000 0.39062500 0.75270779
v -0.49300000 -0.48437500 0.75270779
v -0.49300000 -0.48437500 2.11778801
v -0.49300000 0.39062500 2.11778801
vt 0.484375000 0.148437500
vt 0.921875000 0.148437500
vt 0.921875000 0.984375000
vt 0.484375000 0.984375000
vn -1.00000000 0.00000000 0.00000000
f 5/5/2 6/6/2 7/7/2
f 5/5/2 7/7/2 8/8/2
