mtllib pz_native_fixtures_railings_01_46.mtl
o pz_native_fixtures_railings_01_46_frame
usemtl Native_pz_native_fixtures_railings_01_46
v -0.50000000 0.51562500 1.50541557
v -0.50000000 -0.59375000 1.50541557
v -0.50000000 -0.59375000 -0.82925434
v -0.50000000 0.51562500 -0.82925434
vt 0.015625000 0.992187500
vt 0.570312500 0.992187500
vt 0.570312500 0.277343750
vt 0.015625000 0.277343750
vn 1.00000000 0.00000000 0.00000000
f 1/1/1 2/2/1 3/3/1
f 1/1/1 3/3/1 4/4/1
v -0.45500000 0.51562500 -0.82925434
v -0.45500000 -0.59375000 -0.82925434
v -0.45500000 -0.59375000 1.50541557
v -0.45500000 0.51562500 1.50541557
vt 0.015625000 0.277343750
vt 0.570312500 0.277343750
vt 0.570312500 0.992187500
vt 0.015625000 0.992187500
vn -1.00000000 0.00000000 0.00000000
f 5/5/2 6/6/2 7/7/2
f 5/5/2 7/7/2 8/8/2
v -0.45500000 -0.40625000 1.49265781
v -0.45500000 -0.57812500 1.42886902
v -0.50000000 -0.57812500 1.42886902
v -0.50000000 -0.40625000 1.49265781
vt 0.019531250 0.255859375
vt 0.042968750 0.255859375
vt 0.042968750 0.267578125
vt 0.019531250 0.267578125
vn 0.00000000 0.34794450 -0.93751513
f 9/9/3 10/10/3 11/11/3
f 9/9/3 11/11/3 12/12/3
v -0.45500000 -0.57812500 1.42886902
v -0.45500000 -0.57812500 -0.81649658
v -0.50000000 -0.57812500 -0.81649658
v -0.50000000 -0.57812500 1.42886902
vt 0.050781250 0.255859375
vt 0.074218750 0.255859375
vt 0.074218750 0.267578125
vt 0.050781250 0.267578125
vn 0.00000000 1.00000000 0.00000000
f 13/13/4 14/14/4 15/15/4
f 13/13/4 15/15/4 16/16/4
v -0.45500000 -0.57812500 -0.81649658
v -0.45500000 -0.51562500 -0.81649658
v -0.50000000 -0.51562500 -0.81649658
v -0.50000000 -0.57812500 -0.81649658
vt 0.082031250 0.255859375
vt 0.105468750 0.255859375
vt 0.105468750 0.267578125
vt 0.082031250 0.267578125
vn 0.00000000 -0.00000000 1.00000000
f 17/17/5 18/18/5 19/19/5
f 17/17/5 19/19/5 20/20/5
v -0.45500000 -0.51562500 -0.81649658
v -0.45500000 -0.39062500 -0.75270779
v -0.50000000 -0.39062500 -0.75270779
v -0.50000000 -0.51562500 -0.81649658
vt 0.113281250 0.255859375
vt 0.136718750 0.255859375
vt 0.136718750 0.267578125
vt 0.113281250 0.267578125
vn 0.00000000 -0.45454545 0.89072354
f 21/21/6 22/22/6 23/23/6
f 21/21/6 23/23/6 24/24/6
v -0.45500000 -0.39062500 -0.75270779
v -0.45500000 -0.40625000 1.49265781
v -0.50000000 -0.40625000 1.49265781
v -0.50000000 -0.39062500 -0.75270779
vt 0.144531250 0.255859375
vt 0.167968750 0.255859375
vt 0.167968750 0.267578125
vt 0.144531250 0.267578125
vn 0.00000000 -0.99997579 -0.00695861
f 25/25/7 26/26/7 27/27/7
f 25/25/7 27/27/7 28/28/7
