# Physical native .18 props; X/Y ground, Z up.
mtllib pz_native_electrical_194.mtl
usemtl Native_pz_native_electrical_194
o conduit
v -0.525000000 0.500000000 2.321912152
vt 0.003906250 0.507812500
vn -0.707106781 0.411054154 -0.575355962
v -0.513000000 0.506975820 2.312148038
vt 0.246093750 0.507812500
vn -0.707106781 0.411054154 -0.575355962
v -0.513000000 0.444475820 2.267495881
vt 0.246093750 0.992187500
vn -0.707106781 0.411054154 -0.575355962
f 1/1/1 2/2/2 3/3/3
v -0.525000000 0.500000000 2.321912152
vt 0.003906250 0.507812500
vn -0.707106781 0.411054154 -0.575355962
v -0.513000000 0.444475820 2.267495881
vt 0.246093750 0.992187500
vn -0.707106781 0.411054154 -0.575355962
v -0.525000000 0.437500000 2.277259995
vt 0.003906250 0.992187500
vn -0.707106781 0.411054154 -0.575355962
f 4/4/4 5/5/5 6/6/6
v -0.513000000 0.506975820 2.312148038
vt 0.003906250 0.507812500
vn 0.707106781 0.411054154 -0.575355962
v -0.501000000 0.500000000 2.321912152
vt 0.246093750 0.507812500
vn 0.707106781 0.411054154 -0.575355962
v -0.501000000 0.437500000 2.277259995
vt 0.246093750 0.992187500
vn 0.707106781 0.411054154 -0.575355962
f 7/7/7 8/8/8 9/9/9
v -0.513000000 0.506975820 2.312148038
vt 0.003906250 0.507812500
vn 0.707106781 0.411054154 -0.575355962
v -0.501000000 0.437500000 2.277259995
vt 0.246093750 0.992187500
vn 0.707106781 0.411054154 -0.575355962
v -0.513000000 0.444475820 2.267495881
vt 0.003906250 0.992187500
vn 0.707106781 0.411054154 -0.575355962
f 10/10/10 11/11/11 12/12/12
v -0.501000000 0.500000000 2.321912152
vt 0.003906250 0.507812500
vn 0.707106781 -0.411054154 0.575355962
v -0.513000000 0.493024180 2.331676266
vt 0.246093750 0.507812500
vn 0.707106781 -0.411054154 0.575355962
v -0.513000000 0.430524180 2.287024110
vt 0.246093750 0.992187500
vn 0.707106781 -0.411054154 0.575355962
f 13/13/13 14/14/14 15/15/15
v -0.501000000 0.500000000 2.321912152
vt 0.003906250 0.507812500
vn 0.707106781 -0.411054154 0.575355962
v -0.513000000 0.430524180 2.287024110
vt 0.246093750 0.992187500
vn 0.707106781 -0.411054154 0.575355962
v -0.501000000 0.437500000 2.277259995
vt 0.003906250 0.992187500
vn 0.707106781 -0.411054154 0.575355962
f 16/16/16 17/17/17 18/18/18
v -0.513000000 0.493024180 2.331676266
vt 0.003906250 0.507812500
vn -0.707106781 -0.411054154 0.575355962
v -0.525000000 0.500000000 2.321912152
vt 0.246093750 0.507812500
vn -0.707106781 -0.411054154 0.575355962
v -0.525000000 0.437500000 2.277259995
vt 0.246093750 0.992187500
vn -0.707106781 -0.411054154 0.575355962
f 19/19/19 20/20/20 21/21/21
v -0.513000000 0.493024180 2.331676266
vt 0.003906250 0.507812500
vn -0.707106781 -0.411054154 0.575355962
v -0.525000000 0.437500000 2.277259995
vt 0.246093750 0.992187500
vn -0.707106781 -0.411054154 0.575355962
v -0.513000000 0.430524180 2.287024110
vt 0.003906250 0.992187500
vn -0.707106781 -0.411054154 0.575355962
f 22/22/22 23/23/23 24/24/24
o conduit_end
v -0.513000000 0.493024180 2.331676266
vt 0.003906250 0.507812500
vn 0.000000000 0.813676204 0.581318359
v -0.501000000 0.500000000 2.321912152
vt 0.246093750 0.507812500
vn 0.000000000 0.813676204 0.581318359
v -0.513000000 0.506975820 2.312148038
vt 0.246093750 0.992187500
vn 0.000000000 0.813676204 0.581318359
f 25/25/25 26/26/26 27/27/27
v -0.513000000 0.493024180 2.331676266
vt 0.003906250 0.507812500
vn 0.000000000 0.813676204 0.581318359
v -0.513000000 0.506975820 2.312148038
vt 0.246093750 0.992187500
vn 0.000000000 0.813676204 0.581318359
v -0.525000000 0.500000000 2.321912152
vt 0.003906250 0.992187500
vn 0.000000000 0.813676204 0.581318359
f 28/28/28 29/29/29 30/30/30
v -0.525000000 0.437500000 2.277259995
vt 0.003906250 0.507812500
vn 0.000000000 -0.813676204 -0.581318359
v -0.513000000 0.444475820 2.267495881
vt 0.246093750 0.507812500
vn 0.000000000 -0.813676204 -0.581318359
v -0.501000000 0.437500000 2.277259995
vt 0.246093750 0.992187500
vn 0.000000000 -0.813676204 -0.581318359
f 31/31/31 32/32/32 33/33/33
v -0.525000000 0.437500000 2.277259995
vt 0.003906250 0.507812500
vn 0.000000000 -0.813676204 -0.581318359
v -0.501000000 0.437500000 2.277259995
vt 0.246093750 0.992187500
vn 0.000000000 -0.813676204 -0.581318359
v -0.513000000 0.430524180 2.287024110
vt 0.003906250 0.992187500
vn 0.000000000 -0.813676204 -0.581318359
f 34/34/34 35/35/35 36/36/36
o conduit
v -0.525000000 0.437500000 2.277259995
vt 0.003906250 0.507812500
vn -0.707106781 -0.141421356 -0.692820323
v -0.513000000 0.435100000 2.265502444
vt 0.246093750 0.507812500
vn -0.707106781 -0.141421356 -0.692820323
v -0.513000000 0.372600000 2.278260204
vt 0.246093750 0.992187500
vn -0.707106781 -0.141421356 -0.692820323
f 37/37/37 38/38/38 39/39/39
v -0.525000000 0.437500000 2.277259995
vt 0.003906250 0.507812500
vn -0.707106781 -0.141421356 -0.692820323
v -0.513000000 0.372600000 2.278260204
vt 0.246093750 0.992187500
vn -0.707106781 -0.141421356 -0.692820323
v -0.525000000 0.375000000 2.290017754
vt 0.003906250 0.992187500
vn -0.707106781 -0.141421356 -0.692820323
f 40/40/40 41/41/41 42/42/42
v -0.513000000 0.435100000 2.265502444
vt 0.003906250 0.507812500
vn 0.707106781 -0.141421356 -0.692820323
v -0.501000000 0.437500000 2.277259995
vt 0.246093750 0.507812500
vn 0.707106781 -0.141421356 -0.692820323
v -0.501000000 0.375000000 2.290017754
vt 0.246093750 0.992187500
vn 0.707106781 -0.141421356 -0.692820323
f 43/43/43 44/44/44 45/45/45
v -0.513000000 0.435100000 2.265502444
vt 0.003906250 0.507812500
vn 0.707106781 -0.141421356 -0.692820323
v -0.501000000 0.375000000 2.290017754
vt 0.246093750 0.992187500
vn 0.707106781 -0.141421356 -0.692820323
v -0.513000000 0.372600000 2.278260204
vt 0.003906250 0.992187500
vn 0.707106781 -0.141421356 -0.692820323
f 46/46/46 47/47/47 48/48/48
v -0.501000000 0.437500000 2.277259995
vt 0.003906250 0.507812500
vn 0.707106781 0.141421356 0.692820323
v -0.513000000 0.439900000 2.289017546
vt 0.246093750 0.507812500
vn 0.707106781 0.141421356 0.692820323
v -0.513000000 0.377400000 2.301775305
vt 0.246093750 0.992187500
vn 0.707106781 0.141421356 0.692820323
f 49/49/49 50/50/50 51/51/51
v -0.501000000 0.437500000 2.277259995
vt 0.003906250 0.507812500
vn 0.707106781 0.141421356 0.692820323
v -0.513000000 0.377400000 2.301775305
vt 0.246093750 0.992187500
vn 0.707106781 0.141421356 0.692820323
v -0.501000000 0.375000000 2.290017754
vt 0.003906250 0.992187500
vn 0.707106781 0.141421356 0.692820323
f 52/52/52 53/53/53 54/54/54
v -0.513000000 0.439900000 2.289017546
vt 0.003906250 0.507812500
vn -0.707106781 0.141421356 0.692820323
v -0.525000000 0.437500000 2.277259995
vt 0.246093750 0.507812500
vn -0.707106781 0.141421356 0.692820323
v -0.525000000 0.375000000 2.290017754
vt 0.246093750 0.992187500
vn -0.707106781 0.141421356 0.692820323
f 55/55/55 56/56/56 57/57/57
v -0.513000000 0.439900000 2.289017546
vt 0.003906250 0.507812500
vn -0.707106781 0.141421356 0.692820323
v -0.525000000 0.375000000 2.290017754
vt 0.246093750 0.992187500
vn -0.707106781 0.141421356 0.692820323
v -0.513000000 0.377400000 2.301775305
vt 0.003906250 0.992187500
vn -0.707106781 0.141421356 0.692820323
f 58/58/58 59/59/59 60/60/60
o conduit_end
v -0.513000000 0.439900000 2.289017546
vt 0.003906250 0.507812500
vn 0.000000000 0.979795897 -0.200000000
v -0.501000000 0.437500000 2.277259995
vt 0.246093750 0.507812500
vn 0.000000000 0.979795897 -0.200000000
v -0.513000000 0.435100000 2.265502444
vt 0.246093750 0.992187500
vn 0.000000000 0.979795897 -0.200000000
f 61/61/61 62/62/62 63/63/63
v -0.513000000 0.439900000 2.289017546
vt 0.003906250 0.507812500
vn 0.000000000 0.979795897 -0.200000000
v -0.513000000 0.435100000 2.265502444
vt 0.246093750 0.992187500
vn 0.000000000 0.979795897 -0.200000000
v -0.525000000 0.437500000 2.277259995
vt 0.003906250 0.992187500
vn 0.000000000 0.979795897 -0.200000000
f 64/64/64 65/65/65 66/66/66
v -0.525000000 0.375000000 2.290017754
vt 0.003906250 0.507812500
vn 0.000000000 -0.979795897 0.200000000
v -0.513000000 0.372600000 2.278260204
vt 0.246093750 0.507812500
vn 0.000000000 -0.979795897 0.200000000
v -0.501000000 0.375000000 2.290017754
vt 0.246093750 0.992187500
vn 0.000000000 -0.979795897 0.200000000
f 67/67/67 68/68/68 69/69/69
v -0.525000000 0.375000000 2.290017754
vt 0.003906250 0.507812500
vn 0.000000000 -0.979795897 0.200000000
v -0.501000000 0.375000000 2.290017754
vt 0.246093750 0.992187500
vn 0.000000000 -0.979795897 0.200000000
v -0.513000000 0.377400000 2.301775305
vt 0.003906250 0.992187500
vn 0.000000000 -0.979795897 0.200000000
f 70/70/70 71/71/71 72/72/72
o conduit
v -0.525000000 0.375000000 2.290017754
vt 0.003906250 0.507812500
vn -0.707106781 0.066323653 -0.703989469
v -0.513000000 0.376125550 2.278070657
vt 0.246093750 0.507812500
vn -0.707106781 0.066323653 -0.703989469
v -0.513000000 -0.030124450 2.239797380
vt 0.246093750 0.992187500
vn -0.707106781 0.066323653 -0.703989469
f 73/73/73 74/74/74 75/75/75
v -0.525000000 0.375000000 2.290017754
vt 0.003906250 0.507812500
vn -0.707106781 0.066323653 -0.703989469
v -0.513000000 -0.030124450 2.239797380
vt 0.246093750 0.992187500
vn -0.707106781 0.066323653 -0.703989469
v -0.525000000 -0.031250000 2.251744477
vt 0.003906250 0.992187500
vn -0.707106781 0.066323653 -0.703989469
f 76/76/76 77/77/77 78/78/78
v -0.513000000 0.376125550 2.278070657
vt 0.003906250 0.507812500
vn 0.707106781 0.066323653 -0.703989469
v -0.501000000 0.375000000 2.290017754
vt 0.246093750 0.507812500
vn 0.707106781 0.066323653 -0.703989469
v -0.501000000 -0.031250000 2.251744477
vt 0.246093750 0.992187500
vn 0.707106781 0.066323653 -0.703989469
f 79/79/79 80/80/80 81/81/81
v -0.513000000 0.376125550 2.278070657
vt 0.003906250 0.507812500
vn 0.707106781 0.066323653 -0.703989469
v -0.501000000 -0.031250000 2.251744477
vt 0.246093750 0.992187500
vn 0.707106781 0.066323653 -0.703989469
v -0.513000000 -0.030124450 2.239797380
vt 0.003906250 0.992187500
vn 0.707106781 0.066323653 -0.703989469
f 82/82/82 83/83/83 84/84/84
v -0.501000000 0.375000000 2.290017754
vt 0.003906250 0.507812500
vn 0.707106781 -0.066323653 0.703989469
v -0.513000000 0.373874450 2.301964852
vt 0.246093750 0.507812500
vn 0.707106781 -0.066323653 0.703989469
v -0.513000000 -0.032375550 2.263691575
vt 0.246093750 0.992187500
vn 0.707106781 -0.066323653 0.703989469
f 85/85/85 86/86/86 87/87/87
v -0.501000000 0.375000000 2.290017754
vt 0.003906250 0.507812500
vn 0.707106781 -0.066323653 0.703989469
v -0.513000000 -0.032375550 2.263691575
vt 0.246093750 0.992187500
vn 0.707106781 -0.066323653 0.703989469
v -0.501000000 -0.031250000 2.251744477
vt 0.003906250 0.992187500
vn 0.707106781 -0.066323653 0.703989469
f 88/88/88 89/89/89 90/90/90
v -0.513000000 0.373874450 2.301964852
vt 0.003906250 0.507812500
vn -0.707106781 -0.066323653 0.703989469
v -0.525000000 0.375000000 2.290017754
vt 0.246093750 0.507812500
vn -0.707106781 -0.066323653 0.703989469
v -0.525000000 -0.031250000 2.251744477
vt 0.246093750 0.992187500
vn -0.707106781 -0.066323653 0.703989469
f 91/91/91 92/92/92 93/93/93
v -0.513000000 0.373874450 2.301964852
vt 0.003906250 0.507812500
vn -0.707106781 -0.066323653 0.703989469
v -0.525000000 -0.031250000 2.251744477
vt 0.246093750 0.992187500
vn -0.707106781 -0.066323653 0.703989469
v -0.513000000 -0.032375550 2.263691575
vt 0.003906250 0.992187500
vn -0.707106781 -0.066323653 0.703989469
f 94/94/94 95/95/95 96/96/96
o conduit_end
v -0.513000000 0.373874450 2.301964852
vt 0.003906250 0.507812500
vn 0.000000000 0.995591455 0.093795810
v -0.501000000 0.375000000 2.290017754
vt 0.246093750 0.507812500
vn 0.000000000 0.995591455 0.093795810
v -0.513000000 0.376125550 2.278070657
vt 0.246093750 0.992187500
vn 0.000000000 0.995591455 0.093795810
f 97/97/97 98/98/98 99/99/99
v -0.513000000 0.373874450 2.301964852
vt 0.003906250 0.507812500
vn 0.000000000 0.995591455 0.093795810
v -0.513000000 0.376125550 2.278070657
vt 0.246093750 0.992187500
vn 0.000000000 0.995591455 0.093795810
v -0.525000000 0.375000000 2.290017754
vt 0.003906250 0.992187500
vn 0.000000000 0.995591455 0.093795810
f 100/100/100 101/101/101 102/102/102
v -0.525000000 -0.031250000 2.251744477
vt 0.003906250 0.507812500
vn 0.000000000 -0.995591455 -0.093795810
v -0.513000000 -0.030124450 2.239797380
vt 0.246093750 0.507812500
vn 0.000000000 -0.995591455 -0.093795810
v -0.501000000 -0.031250000 2.251744477
vt 0.246093750 0.992187500
vn 0.000000000 -0.995591455 -0.093795810
f 103/103/103 104/104/104 105/105/105
v -0.525000000 -0.031250000 2.251744477
vt 0.003906250 0.507812500
vn 0.000000000 -0.995591455 -0.093795810
v -0.501000000 -0.031250000 2.251744477
vt 0.246093750 0.992187500
vn 0.000000000 -0.995591455 -0.093795810
v -0.513000000 -0.032375550 2.263691575
vt 0.003906250 0.992187500
vn 0.000000000 -0.995591455 -0.093795810
f 106/106/106 107/107/107 108/108/108
o conduit
v -0.525000000 -0.031250000 2.251744477
vt 0.003906250 0.507812500
vn -0.707106781 -0.064909488 -0.704121267
v -0.513000000 -0.032351551 2.239795143
vt 0.246093750 0.507812500
vn -0.707106781 -0.064909488 -0.704121267
v -0.513000000 -0.516726551 2.284447300
vt 0.246093750 0.992187500
vn -0.707106781 -0.064909488 -0.704121267
f 109/109/109 110/110/110 111/111/111
v -0.525000000 -0.031250000 2.251744477
vt 0.003906250 0.507812500
vn -0.707106781 -0.064909488 -0.704121267
v -0.513000000 -0.516726551 2.284447300
vt 0.246093750 0.992187500
vn -0.707106781 -0.064909488 -0.704121267
v -0.525000000 -0.515625000 2.296396634
vt 0.003906250 0.992187500
vn -0.707106781 -0.064909488 -0.704121267
f 112/112/112 113/113/113 114/114/114
v -0.513000000 -0.032351551 2.239795143
vt 0.003906250 0.507812500
vn 0.707106781 -0.064909488 -0.704121267
v -0.501000000 -0.031250000 2.251744477
vt 0.246093750 0.507812500
vn 0.707106781 -0.064909488 -0.704121267
v -0.501000000 -0.515625000 2.296396634
vt 0.246093750 0.992187500
vn 0.707106781 -0.064909488 -0.704121267
f 115/115/115 116/116/116 117/117/117
v -0.513000000 -0.032351551 2.239795143
vt 0.003906250 0.507812500
vn 0.707106781 -0.064909488 -0.704121267
v -0.501000000 -0.515625000 2.296396634
vt 0.246093750 0.992187500
vn 0.707106781 -0.064909488 -0.704121267
v -0.513000000 -0.516726551 2.284447300
vt 0.003906250 0.992187500
vn 0.707106781 -0.064909488 -0.704121267
f 118/118/118 119/119/119 120/120/120
v -0.501000000 -0.031250000 2.251744477
vt 0.003906250 0.507812500
vn 0.707106781 0.064909488 0.704121267
v -0.513000000 -0.030148449 2.263693811
vt 0.246093750 0.507812500
vn 0.707106781 0.064909488 0.704121267
v -0.513000000 -0.514523449 2.308345968
vt 0.246093750 0.992187500
vn 0.707106781 0.064909488 0.704121267
f 121/121/121 122/122/122 123/123/123
v -0.501000000 -0.031250000 2.251744477
vt 0.003906250 0.507812500
vn 0.707106781 0.064909488 0.704121267
v -0.513000000 -0.514523449 2.308345968
vt 0.246093750 0.992187500
vn 0.707106781 0.064909488 0.704121267
v -0.501000000 -0.515625000 2.296396634
vt 0.003906250 0.992187500
vn 0.707106781 0.064909488 0.704121267
f 124/124/124 125/125/125 126/126/126
v -0.513000000 -0.030148449 2.263693811
vt 0.003906250 0.507812500
vn -0.707106781 0.064909488 0.704121267
v -0.525000000 -0.031250000 2.251744477
vt 0.246093750 0.507812500
vn -0.707106781 0.064909488 0.704121267
v -0.525000000 -0.515625000 2.296396634
vt 0.246093750 0.992187500
vn -0.707106781 0.064909488 0.704121267
f 127/127/127 128/128/128 129/129/129
v -0.513000000 -0.030148449 2.263693811
vt 0.003906250 0.507812500
vn -0.707106781 0.064909488 0.704121267
v -0.525000000 -0.515625000 2.296396634
vt 0.246093750 0.992187500
vn -0.707106781 0.064909488 0.704121267
v -0.513000000 -0.514523449 2.308345968
vt 0.003906250 0.992187500
vn -0.707106781 0.064909488 0.704121267
f 130/130/130 131/131/131 132/132/132
o conduit_end
v -0.513000000 -0.030148449 2.263693811
vt 0.003906250 0.507812500
vn 0.000000000 0.995777845 -0.091795878
v -0.501000000 -0.031250000 2.251744477
vt 0.246093750 0.507812500
vn 0.000000000 0.995777845 -0.091795878
v -0.513000000 -0.032351551 2.239795143
vt 0.246093750 0.992187500
vn 0.000000000 0.995777845 -0.091795878
f 133/133/133 134/134/134 135/135/135
v -0.513000000 -0.030148449 2.263693811
vt 0.003906250 0.507812500
vn 0.000000000 0.995777845 -0.091795878
v -0.513000000 -0.032351551 2.239795143
vt 0.246093750 0.992187500
vn 0.000000000 0.995777845 -0.091795878
v -0.525000000 -0.031250000 2.251744477
vt 0.003906250 0.992187500
vn 0.000000000 0.995777845 -0.091795878
f 136/136/136 137/137/137 138/138/138
v -0.525000000 -0.515625000 2.296396634
vt 0.003906250 0.507812500
vn 0.000000000 -0.995777845 0.091795878
v -0.513000000 -0.516726551 2.284447300
vt 0.246093750 0.507812500
vn 0.000000000 -0.995777845 0.091795878
v -0.501000000 -0.515625000 2.296396634
vt 0.246093750 0.992187500
vn 0.000000000 -0.995777845 0.091795878
f 139/139/139 140/140/140 141/141/141
v -0.525000000 -0.515625000 2.296396634
vt 0.003906250 0.507812500
vn 0.000000000 -0.995777845 0.091795878
v -0.501000000 -0.515625000 2.296396634
vt 0.246093750 0.992187500
vn 0.000000000 -0.995777845 0.091795878
v -0.513000000 -0.514523449 2.308345968
vt 0.003906250 0.992187500
vn 0.000000000 -0.995777845 0.091795878
f 142/142/142 143/143/143 144/144/144
o conduit
v -0.534000000 0.258089965 2.315834653
vt 0.253906250 0.007812500
vn -0.707106781 0.017759020 -0.706883737
v -0.513000000 0.258617381 2.294841277
vt 0.496093750 0.007812500
vn -0.707106781 0.017759020 -0.706883737
v -0.513000000 0.234624951 2.294238516
vt 0.496093750 0.492187500
vn -0.707106781 0.017759020 -0.706883737
f 145/145/145 146/146/146 147/147/147
v -0.534000000 0.258089965 2.315834653
vt 0.253906250 0.007812500
vn -0.707106781 0.017759020 -0.706883737
v -0.513000000 0.234624951 2.294238516
vt 0.496093750 0.492187500
vn -0.707106781 0.017759020 -0.706883737
v -0.534000000 0.234097535 2.315231892
vt 0.253906250 0.492187500
vn -0.707106781 0.017759020 -0.706883737
f 148/148/148 149/149/149 150/150/150
v -0.513000000 0.258617381 2.294841277
vt 0.253906250 0.007812500
vn 0.707106781 0.017759020 -0.706883737
v -0.492000000 0.258089965 2.315834653
vt 0.496093750 0.007812500
vn 0.707106781 0.017759020 -0.706883737
v -0.492000000 0.234097535 2.315231892
vt 0.496093750 0.492187500
vn 0.707106781 0.017759020 -0.706883737
f 151/151/151 152/152/152 153/153/153
v -0.513000000 0.258617381 2.294841277
vt 0.253906250 0.007812500
vn 0.707106781 0.017759020 -0.706883737
v -0.492000000 0.234097535 2.315231892
vt 0.496093750 0.492187500
vn 0.707106781 0.017759020 -0.706883737
v -0.513000000 0.234624951 2.294238516
vt 0.253906250 0.492187500
vn 0.707106781 0.017759020 -0.706883737
f 154/154/154 155/155/155 156/156/156
v -0.492000000 0.258089965 2.315834653
vt 0.253906250 0.007812500
vn 0.707106781 -0.017759020 0.706883737
v -0.513000000 0.257562549 2.336828029
vt 0.496093750 0.007812500
vn 0.707106781 -0.017759020 0.706883737
v -0.513000000 0.233570119 2.336225268
vt 0.496093750 0.492187500
vn 0.707106781 -0.017759020 0.706883737
f 157/157/157 158/158/158 159/159/159
v -0.492000000 0.258089965 2.315834653
vt 0.253906250 0.007812500
vn 0.707106781 -0.017759020 0.706883737
v -0.513000000 0.233570119 2.336225268
vt 0.496093750 0.492187500
vn 0.707106781 -0.017759020 0.706883737
v -0.492000000 0.234097535 2.315231892
vt 0.253906250 0.492187500
vn 0.707106781 -0.017759020 0.706883737
f 160/160/160 161/161/161 162/162/162
v -0.513000000 0.257562549 2.336828029
vt 0.253906250 0.007812500
vn -0.707106781 -0.017759020 0.706883737
v -0.534000000 0.258089965 2.315834653
vt 0.496093750 0.007812500
vn -0.707106781 -0.017759020 0.706883737
v -0.534000000 0.234097535 2.315231892
vt 0.496093750 0.492187500
vn -0.707106781 -0.017759020 0.706883737
f 163/163/163 164/164/164 165/165/165
v -0.513000000 0.257562549 2.336828029
vt 0.253906250 0.007812500
vn -0.707106781 -0.017759020 0.706883737
v -0.534000000 0.234097535 2.315231892
vt 0.496093750 0.492187500
vn -0.707106781 -0.017759020 0.706883737
v -0.513000000 0.233570119 2.336225268
vt 0.253906250 0.492187500
vn -0.707106781 -0.017759020 0.706883737
f 166/166/166 167/167/167 168/168/168
o conduit_end
v -0.513000000 0.257562549 2.336828029
vt 0.253906250 0.007812500
vn 0.000000000 0.999684567 0.025115047
v -0.492000000 0.258089965 2.315834653
vt 0.496093750 0.007812500
vn 0.000000000 0.999684567 0.025115047
v -0.513000000 0.258617381 2.294841277
vt 0.496093750 0.492187500
vn 0.000000000 0.999684567 0.025115047
f 169/169/169 170/170/170 171/171/171
v -0.513000000 0.257562549 2.336828029
vt 0.253906250 0.007812500
vn 0.000000000 0.999684567 0.025115047
v -0.513000000 0.258617381 2.294841277
vt 0.496093750 0.492187500
vn 0.000000000 0.999684567 0.025115047
v -0.534000000 0.258089965 2.315834653
vt 0.253906250 0.492187500
vn 0.000000000 0.999684567 0.025115047
f 172/172/172 173/173/173 174/174/174
v -0.534000000 0.234097535 2.315231892
vt 0.253906250 0.007812500
vn 0.000000000 -0.999684567 -0.025115047
v -0.513000000 0.234624951 2.294238516
vt 0.496093750 0.007812500
vn 0.000000000 -0.999684567 -0.025115047
v -0.492000000 0.234097535 2.315231892
vt 0.496093750 0.492187500
vn 0.000000000 -0.999684567 -0.025115047
f 175/175/175 176/176/176 177/177/177
v -0.534000000 0.234097535 2.315231892
vt 0.253906250 0.007812500
vn 0.000000000 -0.999684567 -0.025115047
v -0.492000000 0.234097535 2.315231892
vt 0.496093750 0.492187500
vn 0.000000000 -0.999684567 -0.025115047
v -0.513000000 0.233570119 2.336225268
vt 0.253906250 0.492187500
vn 0.000000000 -0.999684567 -0.025115047
f 178/178/178 179/179/179 180/180/180
o conduit
v -0.534000000 -0.249722535 2.303076894
vt 0.253906250 0.007812500
vn -0.707106781 0.017759020 -0.706883737
v -0.513000000 -0.249195119 2.282083518
vt 0.496093750 0.007812500
vn -0.707106781 0.017759020 -0.706883737
v -0.513000000 -0.273187549 2.281480757
vt 0.496093750 0.492187500
vn -0.707106781 0.017759020 -0.706883737
f 181/181/181 182/182/182 183/183/183
v -0.534000000 -0.249722535 2.303076894
vt 0.253906250 0.007812500
vn -0.707106781 0.017759020 -0.706883737
v -0.513000000 -0.273187549 2.281480757
vt 0.496093750 0.492187500
vn -0.707106781 0.017759020 -0.706883737
v -0.534000000 -0.273714965 2.302474133
vt 0.253906250 0.492187500
vn -0.707106781 0.017759020 -0.706883737
f 184/184/184 185/185/185 186/186/186
v -0.513000000 -0.249195119 2.282083518
vt 0.253906250 0.007812500
vn 0.707106781 0.017759020 -0.706883737
v -0.492000000 -0.249722535 2.303076894
vt 0.496093750 0.007812500
vn 0.707106781 0.017759020 -0.706883737
v -0.492000000 -0.273714965 2.302474133
vt 0.496093750 0.492187500
vn 0.707106781 0.017759020 -0.706883737
f 187/187/187 188/188/188 189/189/189
v -0.513000000 -0.249195119 2.282083518
vt 0.253906250 0.007812500
vn 0.707106781 0.017759020 -0.706883737
v -0.492000000 -0.273714965 2.302474133
vt 0.496093750 0.492187500
vn 0.707106781 0.017759020 -0.706883737
v -0.513000000 -0.273187549 2.281480757
vt 0.253906250 0.492187500
vn 0.707106781 0.017759020 -0.706883737
f 190/190/190 191/191/191 192/192/192
v -0.492000000 -0.249722535 2.303076894
vt 0.253906250 0.007812500
vn 0.707106781 -0.017759020 0.706883737
v -0.513000000 -0.250249951 2.324070270
vt 0.496093750 0.007812500
vn 0.707106781 -0.017759020 0.706883737
v -0.513000000 -0.274242381 2.323467509
vt 0.496093750 0.492187500
vn 0.707106781 -0.017759020 0.706883737
f 193/193/193 194/194/194 195/195/195
v -0.492000000 -0.249722535 2.303076894
vt 0.253906250 0.007812500
vn 0.707106781 -0.017759020 0.706883737
v -0.513000000 -0.274242381 2.323467509
vt 0.496093750 0.492187500
vn 0.707106781 -0.017759020 0.706883737
v -0.492000000 -0.273714965 2.302474133
vt 0.253906250 0.492187500
vn 0.707106781 -0.017759020 0.706883737
f 196/196/196 197/197/197 198/198/198
v -0.513000000 -0.250249951 2.324070270
vt 0.253906250 0.007812500
vn -0.707106781 -0.017759020 0.706883737
v -0.534000000 -0.249722535 2.303076894
vt 0.496093750 0.007812500
vn -0.707106781 -0.017759020 0.706883737
v -0.534000000 -0.273714965 2.302474133
vt 0.496093750 0.492187500
vn -0.707106781 -0.017759020 0.706883737
f 199/199/199 200/200/200 201/201/201
v -0.513000000 -0.250249951 2.324070270
vt 0.253906250 0.007812500
vn -0.707106781 -0.017759020 0.706883737
v -0.534000000 -0.273714965 2.302474133
vt 0.496093750 0.492187500
vn -0.707106781 -0.017759020 0.706883737
v -0.513000000 -0.274242381 2.323467509
vt 0.253906250 0.492187500
vn -0.707106781 -0.017759020 0.706883737
f 202/202/202 203/203/203 204/204/204
o conduit_end
v -0.513000000 -0.250249951 2.324070270
vt 0.253906250 0.007812500
vn 0.000000000 0.999684567 0.025115047
v -0.492000000 -0.249722535 2.303076894
vt 0.496093750 0.007812500
vn 0.000000000 0.999684567 0.025115047
v -0.513000000 -0.249195119 2.282083518
vt 0.496093750 0.492187500
vn 0.000000000 0.999684567 0.025115047
f 205/205/205 206/206/206 207/207/207
v -0.513000000 -0.250249951 2.324070270
vt 0.253906250 0.007812500
vn 0.000000000 0.999684567 0.025115047
v -0.513000000 -0.249195119 2.282083518
vt 0.496093750 0.492187500
vn 0.000000000 0.999684567 0.025115047
v -0.534000000 -0.249722535 2.303076894
vt 0.253906250 0.492187500
vn 0.000000000 0.999684567 0.025115047
f 208/208/208 209/209/209 210/210/210
v -0.534000000 -0.273714965 2.302474133
vt 0.253906250 0.007812500
vn 0.000000000 -0.999684567 -0.025115047
v -0.513000000 -0.273187549 2.281480757
vt 0.496093750 0.007812500
vn 0.000000000 -0.999684567 -0.025115047
v -0.492000000 -0.273714965 2.302474133
vt 0.496093750 0.492187500
vn 0.000000000 -0.999684567 -0.025115047
f 211/211/211 212/212/212 213/213/213
v -0.534000000 -0.273714965 2.302474133
vt 0.253906250 0.007812500
vn 0.000000000 -0.999684567 -0.025115047
v -0.492000000 -0.273714965 2.302474133
vt 0.496093750 0.492187500
vn 0.000000000 -0.999684567 -0.025115047
v -0.513000000 -0.274242381 2.323467509
vt 0.253906250 0.492187500
vn 0.000000000 -0.999684567 -0.025115047
f 214/214/214 215/215/215 216/216/216
o conduit
v -0.525000000 0.500000000 2.232607838
vt 0.003906250 0.507812500
vn -0.707106781 0.411054154 -0.575355962
v -0.513000000 0.506975820 2.222843724
vt 0.246093750 0.507812500
vn -0.707106781 0.411054154 -0.575355962
v -0.513000000 0.444475820 2.178191567
vt 0.246093750 0.992187500
vn -0.707106781 0.411054154 -0.575355962
f 217/217/217 218/218/218 219/219/219
v -0.525000000 0.500000000 2.232607838
vt 0.003906250 0.507812500
vn -0.707106781 0.411054154 -0.575355962
v -0.513000000 0.444475820 2.178191567
vt 0.246093750 0.992187500
vn -0.707106781 0.411054154 -0.575355962
v -0.525000000 0.437500000 2.187955682
vt 0.003906250 0.992187500
vn -0.707106781 0.411054154 -0.575355962
f 220/220/220 221/221/221 222/222/222
v -0.513000000 0.506975820 2.222843724
vt 0.003906250 0.507812500
vn 0.707106781 0.411054154 -0.575355962
v -0.501000000 0.500000000 2.232607838
vt 0.246093750 0.507812500
vn 0.707106781 0.411054154 -0.575355962
v -0.501000000 0.437500000 2.187955682
vt 0.246093750 0.992187500
vn 0.707106781 0.411054154 -0.575355962
f 223/223/223 224/224/224 225/225/225
v -0.513000000 0.506975820 2.222843724
vt 0.003906250 0.507812500
vn 0.707106781 0.411054154 -0.575355962
v -0.501000000 0.437500000 2.187955682
vt 0.246093750 0.992187500
vn 0.707106781 0.411054154 -0.575355962
v -0.513000000 0.444475820 2.178191567
vt 0.003906250 0.992187500
vn 0.707106781 0.411054154 -0.575355962
f 226/226/226 227/227/227 228/228/228
v -0.501000000 0.500000000 2.232607838
vt 0.003906250 0.507812500
vn 0.707106781 -0.411054154 0.575355962
v -0.513000000 0.493024180 2.242371953
vt 0.246093750 0.507812500
vn 0.707106781 -0.411054154 0.575355962
v -0.513000000 0.430524180 2.197719796
vt 0.246093750 0.992187500
vn 0.707106781 -0.411054154 0.575355962
f 229/229/229 230/230/230 231/231/231
v -0.501000000 0.500000000 2.232607838
vt 0.003906250 0.507812500
vn 0.707106781 -0.411054154 0.575355962
v -0.513000000 0.430524180 2.197719796
vt 0.246093750 0.992187500
vn 0.707106781 -0.411054154 0.575355962
v -0.501000000 0.437500000 2.187955682
vt 0.003906250 0.992187500
vn 0.707106781 -0.411054154 0.575355962
f 232/232/232 233/233/233 234/234/234
v -0.513000000 0.493024180 2.242371953
vt 0.003906250 0.507812500
vn -0.707106781 -0.411054154 0.575355962
v -0.525000000 0.500000000 2.232607838
vt 0.246093750 0.507812500
vn -0.707106781 -0.411054154 0.575355962
v -0.525000000 0.437500000 2.187955682
vt 0.246093750 0.992187500
vn -0.707106781 -0.411054154 0.575355962
f 235/235/235 236/236/236 237/237/237
v -0.513000000 0.493024180 2.242371953
vt 0.003906250 0.507812500
vn -0.707106781 -0.411054154 0.575355962
v -0.525000000 0.437500000 2.187955682
vt 0.246093750 0.992187500
vn -0.707106781 -0.411054154 0.575355962
v -0.513000000 0.430524180 2.197719796
vt 0.003906250 0.992187500
vn -0.707106781 -0.411054154 0.575355962
f 238/238/238 239/239/239 240/240/240
o conduit_end
v -0.513000000 0.493024180 2.242371953
vt 0.003906250 0.507812500
vn 0.000000000 0.813676204 0.581318359
v -0.501000000 0.500000000 2.232607838
vt 0.246093750 0.507812500
vn 0.000000000 0.813676204 0.581318359
v -0.513000000 0.506975820 2.222843724
vt 0.246093750 0.992187500
vn 0.000000000 0.813676204 0.581318359
f 241/241/241 242/242/242 243/243/243
v -0.513000000 0.493024180 2.242371953
vt 0.003906250 0.507812500
vn 0.000000000 0.813676204 0.581318359
v -0.513000000 0.506975820 2.222843724
vt 0.246093750 0.992187500
vn 0.000000000 0.813676204 0.581318359
v -0.525000000 0.500000000 2.232607838
vt 0.003906250 0.992187500
vn 0.000000000 0.813676204 0.581318359
f 244/244/244 245/245/245 246/246/246
v -0.525000000 0.437500000 2.187955682
vt 0.003906250 0.507812500
vn 0.000000000 -0.813676204 -0.581318359
v -0.513000000 0.444475820 2.178191567
vt 0.246093750 0.507812500
vn 0.000000000 -0.813676204 -0.581318359
v -0.501000000 0.437500000 2.187955682
vt 0.246093750 0.992187500
vn 0.000000000 -0.813676204 -0.581318359
f 247/247/247 248/248/248 249/249/249
v -0.525000000 0.437500000 2.187955682
vt 0.003906250 0.507812500
vn 0.000000000 -0.813676204 -0.581318359
v -0.501000000 0.437500000 2.187955682
vt 0.246093750 0.992187500
vn 0.000000000 -0.813676204 -0.581318359
v -0.513000000 0.430524180 2.197719796
vt 0.003906250 0.992187500
vn 0.000000000 -0.813676204 -0.581318359
f 250/250/250 251/251/251 252/252/252
o conduit
v -0.525000000 0.437500000 2.187955682
vt 0.003906250 0.507812500
vn -0.707106781 -0.369274473 -0.603022689
v -0.513000000 0.431233204 2.177722047
vt 0.246093750 0.507812500
vn -0.707106781 -0.369274473 -0.603022689
v -0.513000000 0.399983204 2.196858686
vt 0.246093750 0.992187500
vn -0.707106781 -0.369274473 -0.603022689
f 253/253/253 254/254/254 255/255/255
v -0.525000000 0.437500000 2.187955682
vt 0.003906250 0.507812500
vn -0.707106781 -0.369274473 -0.603022689
v -0.513000000 0.399983204 2.196858686
vt 0.246093750 0.992187500
vn -0.707106781 -0.369274473 -0.603022689
v -0.525000000 0.406250000 2.207092320
vt 0.003906250 0.992187500
vn -0.707106781 -0.369274473 -0.603022689
f 256/256/256 257/257/257 258/258/258
v -0.513000000 0.431233204 2.177722047
vt 0.003906250 0.507812500
vn 0.707106781 -0.369274473 -0.603022689
v -0.501000000 0.437500000 2.187955682
vt 0.246093750 0.507812500
vn 0.707106781 -0.369274473 -0.603022689
v -0.501000000 0.406250000 2.207092320
vt 0.246093750 0.992187500
vn 0.707106781 -0.369274473 -0.603022689
f 259/259/259 260/260/260 261/261/261
v -0.513000000 0.431233204 2.177722047
vt 0.003906250 0.507812500
vn 0.707106781 -0.369274473 -0.603022689
v -0.501000000 0.406250000 2.207092320
vt 0.246093750 0.992187500
vn 0.707106781 -0.369274473 -0.603022689
v -0.513000000 0.399983204 2.196858686
vt 0.003906250 0.992187500
vn 0.707106781 -0.369274473 -0.603022689
f 262/262/262 263/263/263 264/264/264
v -0.501000000 0.437500000 2.187955682
vt 0.003906250 0.507812500
vn 0.707106781 0.369274473 0.603022689
v -0.513000000 0.443766796 2.198189316
vt 0.246093750 0.507812500
vn 0.707106781 0.369274473 0.603022689
v -0.513000000 0.412516796 2.217325955
vt 0.246093750 0.992187500
vn 0.707106781 0.369274473 0.603022689
f 265/265/265 266/266/266 267/267/267
v -0.501000000 0.437500000 2.187955682
vt 0.003906250 0.507812500
vn 0.707106781 0.369274473 0.603022689
v -0.513000000 0.412516796 2.217325955
vt 0.246093750 0.992187500
vn 0.707106781 0.369274473 0.603022689
v -0.501000000 0.406250000 2.207092320
vt 0.003906250 0.992187500
vn 0.707106781 0.369274473 0.603022689
f 268/268/268 269/269/269 270/270/270
v -0.513000000 0.443766796 2.198189316
vt 0.003906250 0.507812500
vn -0.707106781 0.369274473 0.603022689
v -0.525000000 0.437500000 2.187955682
vt 0.246093750 0.507812500
vn -0.707106781 0.369274473 0.603022689
v -0.525000000 0.406250000 2.207092320
vt 0.246093750 0.992187500
vn -0.707106781 0.369274473 0.603022689
f 271/271/271 272/272/272 273/273/273
v -0.513000000 0.443766796 2.198189316
vt 0.003906250 0.507812500
vn -0.707106781 0.369274473 0.603022689
v -0.525000000 0.406250000 2.207092320
vt 0.246093750 0.992187500
vn -0.707106781 0.369274473 0.603022689
v -0.513000000 0.412516796 2.217325955
vt 0.003906250 0.992187500
vn -0.707106781 0.369274473 0.603022689
f 274/274/274 275/275/275 276/276/276
o conduit_end
v -0.513000000 0.443766796 2.198189316
vt 0.003906250 0.507812500
vn 0.000000000 0.852802865 -0.522232968
v -0.501000000 0.437500000 2.187955682
vt 0.246093750 0.507812500
vn 0.000000000 0.852802865 -0.522232968
v -0.513000000 0.431233204 2.177722047
vt 0.246093750 0.992187500
vn 0.000000000 0.852802865 -0.522232968
f 277/277/277 278/278/278 279/279/279
v -0.513000000 0.443766796 2.198189316
vt 0.003906250 0.507812500
vn 0.000000000 0.852802865 -0.522232968
v -0.513000000 0.431233204 2.177722047
vt 0.246093750 0.992187500
vn 0.000000000 0.852802865 -0.522232968
v -0.525000000 0.437500000 2.187955682
vt 0.003906250 0.992187500
vn 0.000000000 0.852802865 -0.522232968
f 280/280/280 281/281/281 282/282/282
v -0.525000000 0.406250000 2.207092320
vt 0.003906250 0.507812500
vn 0.000000000 -0.852802865 0.522232968
v -0.513000000 0.399983204 2.196858686
vt 0.246093750 0.507812500
vn 0.000000000 -0.852802865 0.522232968
v -0.501000000 0.406250000 2.207092320
vt 0.246093750 0.992187500
vn 0.000000000 -0.852802865 0.522232968
f 283/283/283 284/284/284 285/285/285
v -0.525000000 0.406250000 2.207092320
vt 0.003906250 0.507812500
vn 0.000000000 -0.852802865 0.522232968
v -0.501000000 0.406250000 2.207092320
vt 0.246093750 0.992187500
vn 0.000000000 -0.852802865 0.522232968
v -0.513000000 0.412516796 2.217325955
vt 0.003906250 0.992187500
vn 0.000000000 -0.852802865 0.522232968
f 286/286/286 287/287/287 288/288/288
o conduit
v -0.525000000 0.406250000 2.207092320
vt 0.003906250 0.507812500
vn -0.707106781 0.067612340 -0.703866871
v -0.513000000 0.407397419 2.195147303
vt 0.246093750 0.507812500
vn -0.707106781 0.067612340 -0.703866871
v -0.513000000 0.141772419 2.169631785
vt 0.246093750 0.992187500
vn -0.707106781 0.067612340 -0.703866871
f 289/289/289 290/290/290 291/291/291
v -0.525000000 0.406250000 2.207092320
vt 0.003906250 0.507812500
vn -0.707106781 0.067612340 -0.703866871
v -0.513000000 0.141772419 2.169631785
vt 0.246093750 0.992187500
vn -0.707106781 0.067612340 -0.703866871
v -0.525000000 0.140625000 2.181576802
vt 0.003906250 0.992187500
vn -0.707106781 0.067612340 -0.703866871
f 292/292/292 293/293/293 294/294/294
v -0.513000000 0.407397419 2.195147303
vt 0.003906250 0.507812500
vn 0.707106781 0.067612340 -0.703866871
v -0.501000000 0.406250000 2.207092320
vt 0.246093750 0.507812500
vn 0.707106781 0.067612340 -0.703866871
v -0.501000000 0.140625000 2.181576802
vt 0.246093750 0.992187500
vn 0.707106781 0.067612340 -0.703866871
f 295/295/295 296/296/296 297/297/297
v -0.513000000 0.407397419 2.195147303
vt 0.003906250 0.507812500
vn 0.707106781 0.067612340 -0.703866871
v -0.501000000 0.140625000 2.181576802
vt 0.246093750 0.992187500
vn 0.707106781 0.067612340 -0.703866871
v -0.513000000 0.141772419 2.169631785
vt 0.003906250 0.992187500
vn 0.707106781 0.067612340 -0.703866871
f 298/298/298 299/299/299 300/300/300
v -0.501000000 0.406250000 2.207092320
vt 0.003906250 0.507812500
vn 0.707106781 -0.067612340 0.703866871
v -0.513000000 0.405102581 2.219037337
vt 0.246093750 0.507812500
vn 0.707106781 -0.067612340 0.703866871
v -0.513000000 0.139477581 2.193521819
vt 0.246093750 0.992187500
vn 0.707106781 -0.067612340 0.703866871
f 301/301/301 302/302/302 303/303/303
v -0.501000000 0.406250000 2.207092320
vt 0.003906250 0.507812500
vn 0.707106781 -0.067612340 0.703866871
v -0.513000000 0.139477581 2.193521819
vt 0.246093750 0.992187500
vn 0.707106781 -0.067612340 0.703866871
v -0.501000000 0.140625000 2.181576802
vt 0.003906250 0.992187500
vn 0.707106781 -0.067612340 0.703866871
f 304/304/304 305/305/305 306/306/306
v -0.513000000 0.405102581 2.219037337
vt 0.003906250 0.507812500
vn -0.707106781 -0.067612340 0.703866871
v -0.525000000 0.406250000 2.207092320
vt 0.246093750 0.507812500
vn -0.707106781 -0.067612340 0.703866871
v -0.525000000 0.140625000 2.181576802
vt 0.246093750 0.992187500
vn -0.707106781 -0.067612340 0.703866871
f 307/307/307 308/308/308 309/309/309
v -0.513000000 0.405102581 2.219037337
vt 0.003906250 0.507812500
vn -0.707106781 -0.067612340 0.703866871
v -0.525000000 0.140625000 2.181576802
vt 0.246093750 0.992187500
vn -0.707106781 -0.067612340 0.703866871
v -0.513000000 0.139477581 2.193521819
vt 0.003906250 0.992187500
vn -0.707106781 -0.067612340 0.703866871
f 310/310/310 311/311/311 312/312/312
o conduit_end
v -0.513000000 0.405102581 2.219037337
vt 0.003906250 0.507812500
vn 0.000000000 0.995418074 0.095618289
v -0.501000000 0.406250000 2.207092320
vt 0.246093750 0.507812500
vn 0.000000000 0.995418074 0.095618289
v -0.513000000 0.407397419 2.195147303
vt 0.246093750 0.992187500
vn 0.000000000 0.995418074 0.095618289
f 313/313/313 314/314/314 315/315/315
v -0.513000000 0.405102581 2.219037337
vt 0.003906250 0.507812500
vn 0.000000000 0.995418074 0.095618289
v -0.513000000 0.407397419 2.195147303
vt 0.246093750 0.992187500
vn 0.000000000 0.995418074 0.095618289
v -0.525000000 0.406250000 2.207092320
vt 0.003906250 0.992187500
vn 0.000000000 0.995418074 0.095618289
f 316/316/316 317/317/317 318/318/318
v -0.525000000 0.140625000 2.181576802
vt 0.003906250 0.507812500
vn 0.000000000 -0.995418074 -0.095618289
v -0.513000000 0.141772419 2.169631785
vt 0.246093750 0.507812500
vn 0.000000000 -0.995418074 -0.095618289
v -0.501000000 0.140625000 2.181576802
vt 0.246093750 0.992187500
vn 0.000000000 -0.995418074 -0.095618289
f 319/319/319 320/320/320 321/321/321
v -0.525000000 0.140625000 2.181576802
vt 0.003906250 0.507812500
vn 0.000000000 -0.995418074 -0.095618289
v -0.501000000 0.140625000 2.181576802
vt 0.246093750 0.992187500
vn 0.000000000 -0.995418074 -0.095618289
v -0.513000000 0.139477581 2.193521819
vt 0.003906250 0.992187500
vn 0.000000000 -0.995418074 -0.095618289
f 322/322/322 323/323/323 324/324/324
o conduit
v -0.525000000 0.140625000 2.181576802
vt 0.003906250 0.507812500
vn -0.707106781 -0.041169348 -0.705907278
v -0.513000000 0.139926333 2.169597158
vt 0.246093750 0.507812500
vn -0.707106781 -0.041169348 -0.705907278
v -0.513000000 -0.516323667 2.207870436
vt 0.246093750 0.992187500
vn -0.707106781 -0.041169348 -0.705907278
f 325/325/325 326/326/326 327/327/327
v -0.525000000 0.140625000 2.181576802
vt 0.003906250 0.507812500
vn -0.707106781 -0.041169348 -0.705907278
v -0.513000000 -0.516323667 2.207870436
vt 0.246093750 0.992187500
vn -0.707106781 -0.041169348 -0.705907278
v -0.525000000 -0.515625000 2.219850079
vt 0.003906250 0.992187500
vn -0.707106781 -0.041169348 -0.705907278
f 328/328/328 329/329/329 330/330/330
v -0.513000000 0.139926333 2.169597158
vt 0.003906250 0.507812500
vn 0.707106781 -0.041169348 -0.705907278
v -0.501000000 0.140625000 2.181576802
vt 0.246093750 0.507812500
vn 0.707106781 -0.041169348 -0.705907278
v -0.501000000 -0.515625000 2.219850079
vt 0.246093750 0.992187500
vn 0.707106781 -0.041169348 -0.705907278
f 331/331/331 332/332/332 333/333/333
v -0.513000000 0.139926333 2.169597158
vt 0.003906250 0.507812500
vn 0.707106781 -0.041169348 -0.705907278
v -0.501000000 -0.515625000 2.219850079
vt 0.246093750 0.992187500
vn 0.707106781 -0.041169348 -0.705907278
v -0.513000000 -0.516323667 2.207870436
vt 0.003906250 0.992187500
vn 0.707106781 -0.041169348 -0.705907278
f 334/334/334 335/335/335 336/336/336
v -0.501000000 0.140625000 2.181576802
vt 0.003906250 0.507812500
vn 0.707106781 0.041169348 0.705907278
v -0.513000000 0.141323667 2.193556446
vt 0.246093750 0.507812500
vn 0.707106781 0.041169348 0.705907278
v -0.513000000 -0.514926333 2.231829723
vt 0.246093750 0.992187500
vn 0.707106781 0.041169348 0.705907278
f 337/337/337 338/338/338 339/339/339
v -0.501000000 0.140625000 2.181576802
vt 0.003906250 0.507812500
vn 0.707106781 0.041169348 0.705907278
v -0.513000000 -0.514926333 2.231829723
vt 0.246093750 0.992187500
vn 0.707106781 0.041169348 0.705907278
v -0.501000000 -0.515625000 2.219850079
vt 0.003906250 0.992187500
vn 0.707106781 0.041169348 0.705907278
f 340/340/340 341/341/341 342/342/342
v -0.513000000 0.141323667 2.193556446
vt 0.003906250 0.507812500
vn -0.707106781 0.041169348 0.705907278
v -0.525000000 0.140625000 2.181576802
vt 0.246093750 0.507812500
vn -0.707106781 0.041169348 0.705907278
v -0.525000000 -0.515625000 2.219850079
vt 0.246093750 0.992187500
vn -0.707106781 0.041169348 0.705907278
f 343/343/343 344/344/344 345/345/345
v -0.513000000 0.141323667 2.193556446
vt 0.003906250 0.507812500
vn -0.707106781 0.041169348 0.705907278
v -0.525000000 -0.515625000 2.219850079
vt 0.246093750 0.992187500
vn -0.707106781 0.041169348 0.705907278
v -0.513000000 -0.514926333 2.231829723
vt 0.003906250 0.992187500
vn -0.707106781 0.041169348 0.705907278
f 346/346/346 347/347/347 348/348/348
o conduit_end
v -0.513000000 0.141323667 2.193556446
vt 0.003906250 0.507812500
vn 0.000000000 0.998303646 -0.058222251
v -0.501000000 0.140625000 2.181576802
vt 0.246093750 0.507812500
vn 0.000000000 0.998303646 -0.058222251
v -0.513000000 0.139926333 2.169597158
vt 0.246093750 0.992187500
vn 0.000000000 0.998303646 -0.058222251
f 349/349/349 350/350/350 351/351/351
v -0.513000000 0.141323667 2.193556446
vt 0.003906250 0.507812500
vn 0.000000000 0.998303646 -0.058222251
v -0.513000000 0.139926333 2.169597158
vt 0.246093750 0.992187500
vn 0.000000000 0.998303646 -0.058222251
v -0.525000000 0.140625000 2.181576802
vt 0.003906250 0.992187500
vn 0.000000000 0.998303646 -0.058222251
f 352/352/352 353/353/353 354/354/354
v -0.525000000 -0.515625000 2.219850079
vt 0.003906250 0.507812500
vn 0.000000000 -0.998303646 0.058222251
v -0.513000000 -0.516323667 2.207870436
vt 0.246093750 0.507812500
vn 0.000000000 -0.998303646 0.058222251
v -0.501000000 -0.515625000 2.219850079
vt 0.246093750 0.992187500
vn 0.000000000 -0.998303646 0.058222251
f 355/355/355 356/356/356 357/357/357
v -0.525000000 -0.515625000 2.219850079
vt 0.003906250 0.507812500
vn 0.000000000 -0.998303646 0.058222251
v -0.501000000 -0.515625000 2.219850079
vt 0.246093750 0.992187500
vn 0.000000000 -0.998303646 0.058222251
v -0.513000000 -0.514926333 2.231829723
vt 0.003906250 0.992187500
vn 0.000000000 -0.998303646 0.058222251
f 358/358/358 359/359/359 360/360/360
o conduit
v -0.534000000 0.258092803 2.229569125
vt 0.253906250 0.007812500
vn -0.707106781 0.008881611 -0.707051000
v -0.513000000 0.258356574 2.208570781
vt 0.496093750 0.007812500
vn -0.707106781 0.008881611 -0.707051000
v -0.513000000 0.234358467 2.208269329
vt 0.496093750 0.492187500
vn -0.707106781 0.008881611 -0.707051000
f 361/361/361 362/362/362 363/363/363
v -0.534000000 0.258092803 2.229569125
vt 0.253906250 0.007812500
vn -0.707106781 0.008881611 -0.707051000
v -0.513000000 0.234358467 2.208269329
vt 0.496093750 0.492187500
vn -0.707106781 0.008881611 -0.707051000
v -0.534000000 0.234094697 2.229267673
vt 0.253906250 0.492187500
vn -0.707106781 0.008881611 -0.707051000
f 364/364/364 365/365/365 366/366/366
v -0.513000000 0.258356574 2.208570781
vt 0.253906250 0.007812500
vn 0.707106781 0.008881611 -0.707051000
v -0.492000000 0.258092803 2.229569125
vt 0.496093750 0.007812500
vn 0.707106781 0.008881611 -0.707051000
v -0.492000000 0.234094697 2.229267673
vt 0.496093750 0.492187500
vn 0.707106781 0.008881611 -0.707051000
f 367/367/367 368/368/368 369/369/369
v -0.513000000 0.258356574 2.208570781
vt 0.253906250 0.007812500
vn 0.707106781 0.008881611 -0.707051000
v -0.492000000 0.234094697 2.229267673
vt 0.496093750 0.492187500
vn 0.707106781 0.008881611 -0.707051000
v -0.513000000 0.234358467 2.208269329
vt 0.253906250 0.492187500
vn 0.707106781 0.008881611 -0.707051000
f 370/370/370 371/371/371 372/372/372
v -0.492000000 0.258092803 2.229569125
vt 0.253906250 0.007812500
vn 0.707106781 -0.008881611 0.707051000
v -0.513000000 0.257829033 2.250567468
vt 0.496093750 0.007812500
vn 0.707106781 -0.008881611 0.707051000
v -0.513000000 0.233830926 2.250266016
vt 0.496093750 0.492187500
vn 0.707106781 -0.008881611 0.707051000
f 373/373/373 374/374/374 375/375/375
v -0.492000000 0.258092803 2.229569125
vt 0.253906250 0.007812500
vn 0.707106781 -0.008881611 0.707051000
v -0.513000000 0.233830926 2.250266016
vt 0.496093750 0.492187500
vn 0.707106781 -0.008881611 0.707051000
v -0.492000000 0.234094697 2.229267673
vt 0.253906250 0.492187500
vn 0.707106781 -0.008881611 0.707051000
f 376/376/376 377/377/377 378/378/378
v -0.513000000 0.257829033 2.250567468
vt 0.253906250 0.007812500
vn -0.707106781 -0.008881611 0.707051000
v -0.534000000 0.258092803 2.229569125
vt 0.496093750 0.007812500
vn -0.707106781 -0.008881611 0.707051000
v -0.534000000 0.234094697 2.229267673
vt 0.496093750 0.492187500
vn -0.707106781 -0.008881611 0.707051000
f 379/379/379 380/380/380 381/381/381
v -0.513000000 0.257829033 2.250567468
vt 0.253906250 0.007812500
vn -0.707106781 -0.008881611 0.707051000
v -0.534000000 0.234094697 2.229267673
vt 0.496093750 0.492187500
vn -0.707106781 -0.008881611 0.707051000
v -0.513000000 0.233830926 2.250266016
vt 0.253906250 0.492187500
vn -0.707106781 -0.008881611 0.707051000
f 382/382/382 383/383/383 384/384/384
o conduit_end
v -0.513000000 0.257829033 2.250567468
vt 0.253906250 0.007812500
vn 0.000000000 0.999921114 0.012560495
v -0.492000000 0.258092803 2.229569125
vt 0.496093750 0.007812500
vn 0.000000000 0.999921114 0.012560495
v -0.513000000 0.258356574 2.208570781
vt 0.496093750 0.492187500
vn 0.000000000 0.999921114 0.012560495
f 385/385/385 386/386/386 387/387/387
v -0.513000000 0.257829033 2.250567468
vt 0.253906250 0.007812500
vn 0.000000000 0.999921114 0.012560495
v -0.513000000 0.258356574 2.208570781
vt 0.496093750 0.492187500
vn 0.000000000 0.999921114 0.012560495
v -0.534000000 0.258092803 2.229569125
vt 0.253906250 0.492187500
vn 0.000000000 0.999921114 0.012560495
f 388/388/388 389/389/389 390/390/390
v -0.534000000 0.234094697 2.229267673
vt 0.253906250 0.007812500
vn 0.000000000 -0.999921114 -0.012560495
v -0.513000000 0.234358467 2.208269329
vt 0.496093750 0.007812500
vn 0.000000000 -0.999921114 -0.012560495
v -0.492000000 0.234094697 2.229267673
vt 0.496093750 0.492187500
vn 0.000000000 -0.999921114 -0.012560495
f 391/391/391 392/392/392 393/393/393
v -0.534000000 0.234094697 2.229267673
vt 0.253906250 0.007812500
vn 0.000000000 -0.999921114 -0.012560495
v -0.492000000 0.234094697 2.229267673
vt 0.496093750 0.492187500
vn 0.000000000 -0.999921114 -0.012560495
v -0.513000000 0.233830926 2.250266016
vt 0.253906250 0.492187500
vn 0.000000000 -0.999921114 -0.012560495
f 394/394/394 395/395/395 396/396/396
o conduit
v -0.534000000 -0.249719697 2.223190245
vt 0.253906250 0.007812500
vn -0.707106781 0.008881611 -0.707051000
v -0.513000000 -0.249455926 2.202191902
vt 0.496093750 0.007812500
vn -0.707106781 0.008881611 -0.707051000
v -0.513000000 -0.273454033 2.201890450
vt 0.496093750 0.492187500
vn -0.707106781 0.008881611 -0.707051000
f 397/397/397 398/398/398 399/399/399
v -0.534000000 -0.249719697 2.223190245
vt 0.253906250 0.007812500
vn -0.707106781 0.008881611 -0.707051000
v -0.513000000 -0.273454033 2.201890450
vt 0.496093750 0.492187500
vn -0.707106781 0.008881611 -0.707051000
v -0.534000000 -0.273717803 2.222888793
vt 0.253906250 0.492187500
vn -0.707106781 0.008881611 -0.707051000
f 400/400/400 401/401/401 402/402/402
v -0.513000000 -0.249455926 2.202191902
vt 0.253906250 0.007812500
vn 0.707106781 0.008881611 -0.707051000
v -0.492000000 -0.249719697 2.223190245
vt 0.496093750 0.007812500
vn 0.707106781 0.008881611 -0.707051000
v -0.492000000 -0.273717803 2.222888793
vt 0.496093750 0.492187500
vn 0.707106781 0.008881611 -0.707051000
f 403/403/403 404/404/404 405/405/405
v -0.513000000 -0.249455926 2.202191902
vt 0.253906250 0.007812500
vn 0.707106781 0.008881611 -0.707051000
v -0.492000000 -0.273717803 2.222888793
vt 0.496093750 0.492187500
vn 0.707106781 0.008881611 -0.707051000
v -0.513000000 -0.273454033 2.201890450
vt 0.253906250 0.492187500
vn 0.707106781 0.008881611 -0.707051000
f 406/406/406 407/407/407 408/408/408
v -0.492000000 -0.249719697 2.223190245
vt 0.253906250 0.007812500
vn 0.707106781 -0.008881611 0.707051000
v -0.513000000 -0.249983467 2.244188588
vt 0.496093750 0.007812500
vn 0.707106781 -0.008881611 0.707051000
v -0.513000000 -0.273981574 2.243887137
vt 0.496093750 0.492187500
vn 0.707106781 -0.008881611 0.707051000
f 409/409/409 410/410/410 411/411/411
v -0.492000000 -0.249719697 2.223190245
vt 0.253906250 0.007812500
vn 0.707106781 -0.008881611 0.707051000
v -0.513000000 -0.273981574 2.243887137
vt 0.496093750 0.492187500
vn 0.707106781 -0.008881611 0.707051000
v -0.492000000 -0.273717803 2.222888793
vt 0.253906250 0.492187500
vn 0.707106781 -0.008881611 0.707051000
f 412/412/412 413/413/413 414/414/414
v -0.513000000 -0.249983467 2.244188588
vt 0.253906250 0.007812500
vn -0.707106781 -0.008881611 0.707051000
v -0.534000000 -0.249719697 2.223190245
vt 0.496093750 0.007812500
vn -0.707106781 -0.008881611 0.707051000
v -0.534000000 -0.273717803 2.222888793
vt 0.496093750 0.492187500
vn -0.707106781 -0.008881611 0.707051000
f 415/415/415 416/416/416 417/417/417
v -0.513000000 -0.249983467 2.244188588
vt 0.253906250 0.007812500
vn -0.707106781 -0.008881611 0.707051000
v -0.534000000 -0.273717803 2.222888793
vt 0.496093750 0.492187500
vn -0.707106781 -0.008881611 0.707051000
v -0.513000000 -0.273981574 2.243887137
vt 0.253906250 0.492187500
vn -0.707106781 -0.008881611 0.707051000
f 418/418/418 419/419/419 420/420/420
o conduit_end
v -0.513000000 -0.249983467 2.244188588
vt 0.253906250 0.007812500
vn 0.000000000 0.999921114 0.012560495
v -0.492000000 -0.249719697 2.223190245
vt 0.496093750 0.007812500
vn 0.000000000 0.999921114 0.012560495
v -0.513000000 -0.249455926 2.202191902
vt 0.496093750 0.492187500
vn 0.000000000 0.999921114 0.012560495
f 421/421/421 422/422/422 423/423/423
v -0.513000000 -0.249983467 2.244188588
vt 0.253906250 0.007812500
vn 0.000000000 0.999921114 0.012560495
v -0.513000000 -0.249455926 2.202191902
vt 0.496093750 0.492187500
vn 0.000000000 0.999921114 0.012560495
v -0.534000000 -0.249719697 2.223190245
vt 0.253906250 0.492187500
vn 0.000000000 0.999921114 0.012560495
f 424/424/424 425/425/425 426/426/426
v -0.534000000 -0.273717803 2.222888793
vt 0.253906250 0.007812500
vn 0.000000000 -0.999921114 -0.012560495
v -0.513000000 -0.273454033 2.201890450
vt 0.496093750 0.007812500
vn 0.000000000 -0.999921114 -0.012560495
v -0.492000000 -0.273717803 2.222888793
vt 0.496093750 0.492187500
vn 0.000000000 -0.999921114 -0.012560495
f 427/427/427 428/428/428 429/429/429
v -0.534000000 -0.273717803 2.222888793
vt 0.253906250 0.007812500
vn 0.000000000 -0.999921114 -0.012560495
v -0.492000000 -0.273717803 2.222888793
vt 0.496093750 0.492187500
vn 0.000000000 -0.999921114 -0.012560495
v -0.513000000 -0.273981574 2.243887137
vt 0.253906250 0.492187500
vn 0.000000000 -0.999921114 -0.012560495
f 430/430/430 431/431/431 432/432/432
