mtllib pz_native_location_community_church_small_01_200.mtl
o pz_native_location_community_church_small_01_200_frame
usemtl Native_pz_native_location_community_church_small_01_200
v -1.51562500 -0.50000000 2.47500526
v 0.51562500 -0.50000000 2.47500526
v 0.51562500 -0.50000000 -0.84201210
v -1.51562500 -0.50000000 -0.84201210
vt 0.003906250 0.996093750
vt 0.257812500 0.996093750
vt 0.257812500 0.488281250
vt 0.003906250 0.488281250
vn -0.00000000 1.00000000 0.00000000
f 1/1/1 2/2/1 3/3/1
f 1/1/1 3/3/1 4/4/1
v -1.51562500 -0.54000000 -0.84201210
v 0.51562500 -0.54000000 -0.84201210
v 0.51562500 -0.54000000 2.47500526
v -1.51562500 -0.54000000 2.47500526
vt 0.003906250 0.488281250
vt 0.257812500 0.488281250
vt 0.257812500 0.996093750
vt 0.003906250 0.996093750
vn 0.00000000 -1.00000000 0.00000000
f 5/5/2 6/6/2 7/7/2
f 5/5/2 7/7/2 8/8/2
v 0.48437500 -0.54000000 2.46224750
v 0.50000000 -0.54000000 2.42397422
v 0.50000000 -0.50000000 2.42397422
v 0.48437500 -0.50000000 2.46224750
vt 0.004882812 0.477539062
vt 0.010742188 0.477539062
vt 0.010742188 0.483398438
vt 0.004882812 0.483398438
vn 0.92582010 0.00000000 0.37796447
f 9/9/3 10/10/3 11/11/3
f 9/9/3 11/11/3 12/12/3
v 0.50000000 -0.54000000 2.42397422
v 0.45312500 -0.54000000 2.37294319
v 0.45312500 -0.50000000 2.37294319
v 0.50000000 -0.50000000 2.42397422
vt 0.012695312 0.477539062
vt 0.018554688 0.477539062
vt 0.018554688 0.483398438
vt 0.012695312 0.483398438
vn 0.73645969 0.00000000 -0.67648143
f 13/13/4 14/14/4 15/15/4
f 13/13/4 15/15/4 16/16/4
v 0.45312500 -0.54000000 2.37294319
v 0.23437500 -0.54000000 1.09716728
v 0.23437500 -0.50000000 1.09716728
v 0.45312500 -0.50000000 2.37294319
vt 0.020507812 0.477539062
vt 0.026367188 0.477539062
vt 0.026367188 0.483398438
vt 0.020507812 0.483398438
vn 0.98561639 0.00000000 -0.16899801
f 17/17/5 18/18/5 19/19/5
f 17/17/5 19/19/5 20/20/5
v 0.23437500 -0.54000000 1.09716728
v 0.10937500 -0.54000000 0.61237244
v 0.10937500 -0.50000000 0.61237244
v 0.23437500 -0.50000000 1.09716728
vt 0.028320312 0.477539062
vt 0.034179688 0.477539062
vt 0.034179688 0.483398438
vt 0.028320312 0.483398438
vn 0.96832966 0.00000000 -0.24967511
f 21/21/6 22/22/6 23/23/6
f 21/21/6 23/23/6 24/24/6
v 0.10937500 -0.54000000 0.61237244
v -0.20312500 -0.54000000 -0.24239742
v -0.20312500 -0.50000000 -0.24239742
v 0.10937500 -0.50000000 0.61237244
vt 0.036132812 0.477539062
vt 0.041992188 0.477539062
vt 0.041992188 0.483398438
vt 0.036132812 0.483398438
vn 0.93920107 0.00000000 -0.34336767
f 25/25/7 26/26/7 27/27/7
f 25/25/7 27/27/7 28/28/7
v -0.20312500 -0.54000000 -0.24239742
v -0.48437500 -0.54000000 -0.81649658
v -0.48437500 -0.50000000 -0.81649658
v -0.20312500 -0.50000000 -0.24239742
vt 0.043945312 0.477539062
vt 0.049804688 0.477539062
vt 0.049804688 0.483398438
vt 0.043945312 0.483398438
vn 0.89802651 0.00000000 -0.43994135
f 29/29/8 30/30/8 31/31/8
f 29/29/8 31/31/8 32/32/8
v -0.48437500 -0.54000000 -0.81649658
v -1.50000000 -0.54000000 -0.82925434
v -1.50000000 -0.50000000 -0.82925434
v -0.48437500 -0.50000000 -0.81649658
vt 0.051757812 0.477539062
vt 0.057617188 0.477539062
vt 0.057617188 0.483398438
vt 0.051757812 0.483398438
vn 0.01256049 0.00000000 -0.99992111
f 33/33/9 34/34/9 35/35/9
f 33/33/9 35/35/9 36/36/9
v -1.50000000 -0.54000000 -0.82925434
v -1.48437500 -0.54000000 -0.75270779
v -1.48437500 -0.50000000 -0.75270779
v -1.50000000 -0.50000000 -0.82925434
vt 0.059570312 0.477539062
vt 0.065429688 0.477539062
vt 0.065429688 0.483398438
vt 0.059570312 0.483398438
vn -0.97979590 0.00000000 0.20000000
f 37/37/10 38/38/10 39/39/10
f 37/37/10 39/39/10 40/40/10
v -1.48437500 -0.54000000 -0.75270779
v -1.23437500 -0.54000000 -0.29342846
v -1.23437500 -0.50000000 -0.29342846
v -1.48437500 -0.50000000 -0.75270779
vt 0.067382812 0.477539062
vt 0.073242188 0.477539062
vt 0.073242188 0.483398438
vt 0.067382812 0.483398438
vn -0.87831007 0.00000000 0.47809144
f 41/41/11 42/42/11 43/43/11
f 41/41/11 43/43/11 44/44/11
v -1.23437500 -0.54000000 -0.29342846
v -1.01562500 -0.54000000 0.24239742
v -1.01562500 -0.50000000 0.24239742
v -1.23437500 -0.50000000 -0.29342846
vt 0.075195312 0.477539062
vt 0.081054688 0.477539062
vt 0.081054688 0.483398438
vt 0.075195312 0.483398438
vn -0.92582010 0.00000000 0.37796447
f 45/45/12 46/46/12 47/47/12
f 45/45/12 47/47/12 48/48/12
v -1.01562500 -0.54000000 0.24239742
v -0.89062500 -0.54000000 0.63788795
v -0.89062500 -0.50000000 0.63788795
v -1.01562500 -0.50000000 0.24239742
vt 0.083007812 0.477539062
vt 0.088867188 0.477539062
vt 0.088867188 0.483398438
vt 0.083007812 0.483398438
vn -0.95350769 0.00000000 0.30136868
f 49/49/13 50/50/13 51/51/13
f 49/49/13 51/51/13 52/52/13
v -0.89062500 -0.54000000 0.63788795
v -0.76562500 -0.54000000 1.13544056
v -0.76562500 -0.50000000 1.13544056
v -0.89062500 -0.50000000 0.63788795
vt 0.090820312 0.477539062
vt 0.096679688 0.477539062
vt 0.096679688 0.483398438
vt 0.090820312 0.483398438
vn -0.96986123 0.00000000 0.24365796
f 53/53/14 54/54/14 55/55/14
f 53/53/14 55/55/14 56/56/14
v -0.76562500 -0.54000000 1.13544056
v -0.54687500 -0.54000000 2.42397422
v -0.54687500 -0.50000000 2.42397422
v -0.76562500 -0.50000000 1.13544056
vt 0.098632812 0.477539062
vt 0.104492188 0.477539062
vt 0.104492188 0.483398438
vt 0.098632812 0.483398438
vn -0.98589384 0.00000000 0.16737186
f 57/57/15 58/58/15 59/59/15
f 57/57/15 59/59/15 60/60/15
v -0.54687500 -0.54000000 2.42397422
v -0.51562500 -0.54000000 2.44948974
v -0.51562500 -0.50000000 2.44948974
v -0.54687500 -0.50000000 2.42397422
vt 0.106445312 0.477539062
vt 0.112304688 0.477539062
vt 0.112304688 0.483398438
vt 0.106445312 0.483398438
vn -0.63245553 0.00000000 0.77459667
f 61/61/16 62/62/16 63/63/16
f 61/61/16 63/63/16 64/64/16
v -0.51562500 -0.54000000 2.44948974
v 0.45312500 -0.54000000 2.43673198
v 0.45312500 -0.50000000 2.43673198
v -0.51562500 -0.50000000 2.44948974
vt 0.114257812 0.477539062
vt 0.120117188 0.477539062
vt 0.120117188 0.483398438
vt 0.114257812 0.483398438
vn 0.01316816 0.00000000 0.99991330
f 65/65/17 66/66/17 67/67/17
f 65/65/17 67/67/17 68/68/17
v 0.45312500 -0.54000000 2.43673198
v 0.48437500 -0.54000000 2.46224750
v 0.48437500 -0.50000000 2.46224750
v 0.45312500 -0.50000000 2.43673198
vt 0.122070312 0.477539062
vt 0.127929688 0.477539062
vt 0.127929688 0.483398438
vt 0.122070312 0.483398438
vn -0.63245553 0.00000000 0.77459667
f 69/69/18 70/70/18 71/71/18
f 69/69/18 71/71/18 72/72/18
