mtllib pz_native_fixtures_windows_church_127.mtl
o pz_native_fixtures_windows_church_127_frame
usemtl Native_pz_native_fixtures_windows_church_127
v -0.45312500 -0.50000000 2.38570095
v 0.35937500 -0.50000000 2.38570095
v 0.35937500 -0.50000000 1.56920437
v -0.45312500 -0.50000000 1.56920437
vt 0.015625000 0.984375000
vt 0.421875000 0.984375000
vt 0.421875000 0.484375000
vt 0.015625000 0.484375000
vn -0.00000000 1.00000000 0.00000000
f 1/1/1 2/2/1 3/3/1
f 1/1/1 3/3/1 4/4/1
v -0.45312500 -0.54000000 1.56920437
v 0.35937500 -0.54000000 1.56920437
v 0.35937500 -0.54000000 2.38570095
v -0.45312500 -0.54000000 2.38570095
vt 0.015625000 0.484375000
vt 0.421875000 0.484375000
vt 0.421875000 0.984375000
vt 0.015625000 0.984375000
vn 0.00000000 -1.00000000 0.00000000
f 5/5/2 6/6/2 7/7/2
f 5/5/2 7/7/2 8/8/2
v -0.10937500 -0.54000000 2.36018543
v 0.12500000 -0.54000000 2.33466991
v 0.12500000 -0.50000000 2.33466991
v -0.10937500 -0.50000000 2.36018543
vt 0.019531250 0.441406250
vt 0.042968750 0.441406250
vt 0.042968750 0.464843750
vt 0.019531250 0.464843750
vn 0.10822676 0.00000000 0.99412623
f 9/9/3 10/10/3 11/11/3
f 9/9/3 11/11/3 12/12/3
v 0.12500000 -0.54000000 2.33466991
v 0.18750000 -0.54000000 2.27088112
v 0.18750000 -0.50000000 2.27088112
v 0.12500000 -0.50000000 2.33466991
vt 0.050781250 0.441406250
vt 0.074218750 0.441406250
vt 0.074218750 0.464843750
vt 0.050781250 0.464843750
vn 0.71428571 0.00000000 0.69985421
f 13/13/4 14/14/4 15/15/4
f 13/13/4 15/15/4 16/16/4
v 0.18750000 -0.54000000 2.27088112
v 0.21875000 -0.54000000 2.27088112
v 0.21875000 -0.50000000 2.27088112
v 0.18750000 -0.50000000 2.27088112
vt 0.082031250 0.441406250
vt 0.105468750 0.441406250
vt 0.105468750 0.464843750
vt 0.082031250 0.464843750
vn 0.00000000 0.00000000 1.00000000
f 17/17/5 18/18/5 19/19/5
f 17/17/5 19/19/5 20/20/5
v 0.21875000 -0.54000000 2.27088112
v 0.32812500 -0.54000000 2.09227249
v 0.32812500 -0.50000000 2.09227249
v 0.21875000 -0.50000000 2.27088112
vt 0.113281250 0.441406250
vt 0.136718750 0.441406250
vt 0.136718750 0.464843750
vt 0.113281250 0.464843750
vn 0.85280287 0.00000000 0.52223297
f 21/21/6 22/22/6 23/23/6
f 21/21/6 23/23/6 24/24/6
v 0.32812500 -0.54000000 2.09227249
v 0.32812500 -0.54000000 1.87539058
v 0.32812500 -0.50000000 1.87539058
v 0.32812500 -0.50000000 2.09227249
vt 0.144531250 0.441406250
vt 0.167968750 0.441406250
vt 0.167968750 0.464843750
vt 0.144531250 0.464843750
vn 1.00000000 0.00000000 0.00000000
f 25/25/7 26/26/7 27/27/7
f 25/25/7 27/27/7 28/28/7
v 0.32812500 -0.54000000 1.87539058
v 0.26562500 -0.54000000 1.74781299
v 0.26562500 -0.50000000 1.74781299
v 0.32812500 -0.50000000 1.87539058
vt 0.175781250 0.441406250
vt 0.199218750 0.441406250
vt 0.199218750 0.464843750
vt 0.175781250 0.464843750
vn 0.89802651 0.00000000 -0.43994135
f 29/29/8 30/30/8 31/31/8
f 29/29/8 31/31/8 32/32/8
v 0.26562500 -0.54000000 1.74781299
v 0.23437500 -0.54000000 1.74781299
v 0.23437500 -0.50000000 1.74781299
v 0.26562500 -0.50000000 1.74781299
vt 0.207031250 0.441406250
vt 0.230468750 0.441406250
vt 0.230468750 0.464843750
vt 0.207031250 0.464843750
vn 0.00000000 0.00000000 -1.00000000
f 33/33/9 34/34/9 35/35/9
f 33/33/9 35/35/9 36/36/9
v 0.23437500 -0.54000000 1.74781299
v 0.20312500 -0.54000000 1.68402420
v 0.20312500 -0.50000000 1.68402420
v 0.23437500 -0.50000000 1.74781299
vt 0.238281250 0.441406250
vt 0.261718750 0.441406250
vt 0.261718750 0.464843750
vt 0.238281250 0.464843750
vn 0.89802651 0.00000000 -0.43994135
f 37/37/10 38/38/10 39/39/10
f 37/37/10 39/39/10 40/40/10
v 0.20312500 -0.54000000 1.68402420
v 0.01562500 -0.54000000 1.59471988
v 0.01562500 -0.50000000 1.59471988
v 0.20312500 -0.50000000 1.68402420
vt 0.269531250 0.441406250
vt 0.292968750 0.441406250
vt 0.292968750 0.464843750
vt 0.269531250 0.464843750
vn 0.43000658 0.00000000 -0.90282575
f 41/41/11 42/42/11 43/43/11
f 41/41/11 43/43/11 44/44/11
v 0.01562500 -0.54000000 1.59471988
v -0.15625000 -0.54000000 1.59471988
v -0.15625000 -0.50000000 1.59471988
v 0.01562500 -0.50000000 1.59471988
vt 0.300781250 0.441406250
vt 0.324218750 0.441406250
vt 0.324218750 0.464843750
vt 0.300781250 0.464843750
vn 0.00000000 0.00000000 -1.00000000
f 45/45/12 46/46/12 47/47/12
f 45/45/12 47/47/12 48/48/12
v -0.15625000 -0.54000000 1.59471988
v -0.25000000 -0.54000000 1.63299316
v -0.25000000 -0.50000000 1.63299316
v -0.15625000 -0.50000000 1.59471988
vt 0.332031250 0.441406250
vt 0.355468750 0.441406250
vt 0.355468750 0.464843750
vt 0.332031250 0.464843750
vn -0.37796447 0.00000000 -0.92582010
f 49/49/13 50/50/13 51/51/13
f 49/49/13 51/51/13 52/52/13
v -0.25000000 -0.54000000 1.63299316
v -0.37500000 -0.54000000 1.74781299
v -0.37500000 -0.50000000 1.74781299
v -0.25000000 -0.50000000 1.63299316
vt 0.363281250 0.441406250
vt 0.386718750 0.441406250
vt 0.386718750 0.464843750
vt 0.363281250 0.464843750
vn -0.67648143 0.00000000 -0.73645969
f 53/53/14 54/54/14 55/55/14
f 53/53/14 55/55/14 56/56/14
v -0.37500000 -0.54000000 1.74781299
v -0.43750000 -0.54000000 1.90090610
v -0.43750000 -0.50000000 1.90090610
v -0.37500000 -0.50000000 1.74781299
vt 0.394531250 0.441406250
vt 0.417968750 0.441406250
vt 0.417968750 0.464843750
vt 0.394531250 0.464843750
vn -0.92582010 0.00000000 -0.37796447
f 57/57/15 58/58/15 59/59/15
f 57/57/15 59/59/15 60/60/15
v -0.43750000 -0.54000000 1.90090610
v -0.43750000 -0.54000000 2.04124145
v -0.43750000 -0.50000000 2.04124145
v -0.43750000 -0.50000000 1.90090610
vt 0.425781250 0.441406250
vt 0.449218750 0.441406250
vt 0.449218750 0.464843750
vt 0.425781250 0.464843750
vn -1.00000000 0.00000000 0.00000000
f 61/61/16 62/62/16 63/63/16
f 61/61/16 63/63/16 64/64/16
v -0.43750000 -0.54000000 2.04124145
v -0.39062500 -0.54000000 2.16881904
v -0.39062500 -0.50000000 2.16881904
v -0.43750000 -0.50000000 2.04124145
vt 0.457031250 0.441406250
vt 0.480468750 0.441406250
vt 0.480468750 0.464843750
vt 0.457031250 0.464843750
vn -0.93864651 0.00000000 0.34488075
f 65/65/17 66/66/17 67/67/17
f 65/65/17 67/67/17 68/68/17
v -0.39062500 -0.54000000 2.16881904
v -0.26562500 -0.54000000 2.29639663
v -0.26562500 -0.50000000 2.29639663
v -0.39062500 -0.50000000 2.16881904
vt 0.488281250 0.441406250
vt 0.511718750 0.441406250
vt 0.511718750 0.464843750
vt 0.488281250 0.464843750
vn -0.71428571 0.00000000 0.69985421
f 69/69/18 70/70/18 71/71/18
f 69/69/18 71/71/18 72/72/18
v -0.26562500 -0.54000000 2.29639663
v -0.10937500 -0.54000000 2.36018543
v -0.10937500 -0.50000000 2.36018543
v -0.26562500 -0.50000000 2.29639663
vt 0.019531250 0.410156250
vt 0.042968750 0.410156250
vt 0.042968750 0.433593750
vt 0.019531250 0.433593750
vn -0.37796447 0.00000000 0.92582010
f 73/73/19 74/74/19 75/75/19
f 73/73/19 75/75/19 76/76/19
v -0.09375000 -0.54000000 2.28363887
v -0.20312500 -0.54000000 2.25812336
v -0.20312500 -0.50000000 2.25812336
v -0.09375000 -0.50000000 2.28363887
vt 0.050781250 0.410156250
vt 0.074218750 0.410156250
vt 0.074218750 0.433593750
vt 0.050781250 0.433593750
vn 0.22718473 0.00000000 -0.97385168
f 77/77/20 78/78/20 79/79/20
f 77/77/20 79/79/20 80/80/20
v -0.20312500 -0.54000000 2.25812336
v -0.32812500 -0.54000000 2.13054577
v -0.32812500 -0.50000000 2.13054577
v -0.20312500 -0.50000000 2.25812336
vt 0.082031250 0.410156250
vt 0.105468750 0.410156250
vt 0.105468750 0.433593750
vt 0.082031250 0.433593750
vn 0.71428571 0.00000000 -0.69985421
f 81/81/21 82/82/21 83/83/21
f 81/81/21 83/83/21 84/84/21
v -0.32812500 -0.54000000 2.13054577
v -0.35937500 -0.54000000 1.93917938
v -0.35937500 -0.50000000 1.93917938
v -0.32812500 -0.50000000 2.13054577
vt 0.113281250 0.410156250
vt 0.136718750 0.410156250
vt 0.136718750 0.433593750
vt 0.113281250 0.433593750
vn 0.98692754 0.00000000 -0.16116459
f 85/85/22 86/86/22 87/87/22
f 85/85/22 87/87/22 88/88/22
v -0.35937500 -0.54000000 1.93917938
v -0.31250000 -0.54000000 1.81160179
v -0.31250000 -0.50000000 1.81160179
v -0.35937500 -0.50000000 1.93917938
vt 0.144531250 0.410156250
vt 0.167968750 0.410156250
vt 0.167968750 0.433593750
vt 0.144531250 0.433593750
vn 0.93864651 0.00000000 0.34488075
f 89/89/23 90/90/23 91/91/23
f 89/89/23 91/91/23 92/92/23
v -0.31250000 -0.54000000 1.81160179
v -0.25000000 -0.54000000 1.73505523
v -0.25000000 -0.50000000 1.73505523
v -0.31250000 -0.50000000 1.81160179
vt 0.175781250 0.410156250
vt 0.199218750 0.410156250
vt 0.199218750 0.433593750
vt 0.175781250 0.433593750
vn 0.77459667 0.00000000 0.63245553
f 93/93/24 94/94/24 95/95/24
f 93/93/24 95/95/24 96/96/24
v -0.25000000 -0.54000000 1.73505523
v -0.15625000 -0.54000000 1.68402420
v -0.15625000 -0.50000000 1.68402420
v -0.25000000 -0.50000000 1.73505523
vt 0.207031250 0.410156250
vt 0.230468750 0.410156250
vt 0.230468750 0.433593750
vt 0.207031250 0.433593750
vn 0.47809144 0.00000000 0.87831007
f 97/97/25 98/98/25 99/99/25
f 97/97/25 99/99/25 100/100/25
v -0.15625000 -0.54000000 1.68402420
v 0.01562500 -0.54000000 1.67126644
v 0.01562500 -0.50000000 1.67126644
v -0.15625000 -0.50000000 1.68402420
vt 0.238281250 0.410156250
vt 0.261718750 0.410156250
vt 0.261718750 0.433593750
vt 0.238281250 0.433593750
vn 0.07402332 0.00000000 0.99725651
f 101/101/26 102/102/26 103/103/26
f 101/101/26 103/103/26 104/104/26
v 0.01562500 -0.54000000 1.67126644
v 0.14062500 -0.54000000 1.72229748
v 0.14062500 -0.50000000 1.72229748
v 0.01562500 -0.50000000 1.67126644
vt 0.269531250 0.410156250
vt 0.292968750 0.410156250
vt 0.292968750 0.433593750
vt 0.269531250 0.433593750
vn -0.37796447 0.00000000 0.92582010
f 105/105/27 106/106/27 107/107/27
f 105/105/27 107/107/27 108/108/27
v 0.14062500 -0.54000000 1.72229748
v 0.23437500 -0.54000000 1.83711731
v 0.23437500 -0.50000000 1.83711731
v 0.14062500 -0.50000000 1.72229748
vt 0.300781250 0.410156250
vt 0.324218750 0.410156250
vt 0.324218750 0.433593750
vt 0.300781250 0.433593750
vn -0.77459667 0.00000000 0.63245553
f 109/109/28 110/110/28 111/111/28
f 109/109/28 111/111/28 112/112/28
v 0.23437500 -0.54000000 1.83711731
v 0.25000000 -0.54000000 2.06675697
v 0.25000000 -0.50000000 2.06675697
v 0.23437500 -0.50000000 1.83711731
vt 0.332031250 0.410156250
vt 0.355468750 0.410156250
vt 0.355468750 0.433593750
vt 0.332031250 0.433593750
vn -0.99769319 0.00000000 0.06788442
f 113/113/29 114/114/29 115/115/29
f 113/113/29 115/115/29 116/116/29
v 0.25000000 -0.54000000 2.06675697
v 0.21875000 -0.54000000 2.14330352
v 0.21875000 -0.50000000 2.14330352
v 0.25000000 -0.50000000 2.06675697
vt 0.363281250 0.410156250
vt 0.386718750 0.410156250
vt 0.386718750 0.433593750
vt 0.363281250 0.433593750
vn -0.92582010 0.00000000 -0.37796447
f 117/117/30 118/118/30 119/119/30
f 117/117/30 119/119/30 120/120/30
v 0.21875000 -0.54000000 2.14330352
v 0.12500000 -0.54000000 2.23260784
v 0.12500000 -0.50000000 2.23260784
v 0.21875000 -0.50000000 2.14330352
vt 0.394531250 0.410156250
vt 0.417968750 0.410156250
vt 0.417968750 0.433593750
vt 0.394531250 0.433593750
vn -0.68973049 0.00000000 -0.72406619
f 121/121/31 122/122/31 123/123/31
f 121/121/31 123/123/31 124/124/31
v 0.12500000 -0.54000000 2.23260784
v 0.09375000 -0.54000000 2.23260784
v 0.09375000 -0.50000000 2.23260784
v 0.12500000 -0.50000000 2.23260784
vt 0.425781250 0.410156250
vt 0.449218750 0.410156250
vt 0.449218750 0.433593750
vt 0.425781250 0.433593750
vn 0.00000000 0.00000000 -1.00000000
f 125/125/32 126/126/32 127/127/32
f 125/125/32 127/127/32 128/128/32
v 0.09375000 -0.54000000 2.23260784
v 0.09375000 -0.54000000 2.25812336
v 0.09375000 -0.50000000 2.25812336
v 0.09375000 -0.50000000 2.23260784
vt 0.457031250 0.410156250
vt 0.480468750 0.410156250
vt 0.480468750 0.433593750
vt 0.457031250 0.433593750
vn -1.00000000 0.00000000 0.00000000
f 129/129/33 130/130/33 131/131/33
f 129/129/33 131/131/33 132/132/33
v 0.09375000 -0.54000000 2.25812336
v -0.09375000 -0.54000000 2.28363887
v -0.09375000 -0.50000000 2.28363887
v 0.09375000 -0.50000000 2.25812336
vt 0.488281250 0.410156250
vt 0.511718750 0.410156250
vt 0.511718750 0.433593750
vt 0.488281250 0.433593750
vn -0.13483997 0.00000000 -0.99086739
f 133/133/34 134/134/34 135/135/34
f 133/133/34 135/135/34 136/136/34
