mtllib pz_native_fixtures_windows_church_98.mtl
o pz_native_fixtures_windows_church_98_glass
usemtl Native_pz_native_fixtures_windows_church_98
v -0.49400000 0.50000000 2.42397422
v -0.49400000 -0.35937500 2.42397422
v -0.49400000 -0.35937500 0.72719227
v -0.49400000 0.50000000 0.72719227
vt 0.476562500 0.992187500
vt 0.906250000 0.992187500
vt 0.906250000 0.472656250
vt 0.476562500 0.472656250
vn 1.00000000 0.00000000 0.00000000
f 1/1/1 2/2/1 3/3/1
f 1/1/1 3/3/1 4/4/1
v -0.49300000 0.50000000 0.72719227
v -0.49300000 -0.35937500 0.72719227
v -0.49300000 -0.35937500 2.42397422
v -0.49300000 0.50000000 2.42397422
vt 0.476562500 0.472656250
vt 0.906250000 0.472656250
vt 0.906250000 0.992187500
vt 0.476562500 0.992187500
vn -1.00000000 0.00000000 0.00000000
f 5/5/2 6/6/2 7/7/2
f 5/5/2 7/7/2 8/8/2
