mtllib pz_native_lighting_outdoor_01_44_wall_lamp.mtl
o pz_native_lighting_outdoor_01_44_wall_lamp
usemtl Native_pz_native_lighting_outdoor_01_44_wall_lamp
v 0.45175439 -0.06250000 1.75475142
v 0.45175439 -0.03295375 1.87408314
v 0.43947368 -0.01744703 1.85524129
v 0.43947368 -0.04057018 1.75475142
vt 0.007812500 0.484375000
vt 0.242187500 0.484375000
vt 0.242187500 0.015625000
vt 0.007812500 0.015625000
vn -0.84716521 -0.51575562 0.12769985
f 1/1/1 2/2/1 3/3/1
f 1/1/1 3/3/1 4/4/1
v 0.50000000 -0.06250000 1.75475142
v 0.50000000 -0.03295375 1.87408314
v 0.45175439 -0.03295375 1.87408314
v 0.45175439 -0.06250000 1.75475142
vt 0.757812500 0.984375000
vt 0.992187500 0.984375000
vt 0.992187500 0.515625000
vt 0.757812500 0.515625000
vn 0.00000000 -0.97068872 0.24034019
f 5/5/2 6/6/2 7/7/2
f 5/5/2 7/7/2 8/8/2
v 0.45175439 -0.03295375 1.87408314
v 0.45175439 0.03837719 1.92351196
v 0.43947368 0.03837719 1.89686556
v 0.43947368 -0.01744703 1.85524129
vt 0.007812500 0.484375000
vt 0.242187500 0.484375000
vt 0.242187500 0.015625000
vt 0.007812500 0.015625000
vn -0.87224012 -0.27856267 0.40199505
f 9/9/3 10/10/3 11/11/3
f 9/9/3 11/11/3 12/12/3
v 0.50000000 -0.03295375 1.87408314
v 0.50000000 0.03837719 1.92351196
v 0.45175439 0.03837719 1.92351196
v 0.45175439 -0.03295375 1.87408314
vt 0.757812500 0.984375000
vt 0.992187500 0.984375000
vt 0.992187500 0.515625000
vt 0.757812500 0.515625000
vn 0.00000000 -0.56956709 0.82194485
f 13/13/4 14/14/4 15/15/4
f 13/13/4 15/15/4 16/16/4
v 0.45175439 0.03837719 1.92351196
v 0.45175439 0.10970814 1.87408314
v 0.43947368 0.09420141 1.85524129
v 0.43947368 0.03837719 1.89686556
vt 0.007812500 0.484375000
vt 0.242187500 0.484375000
vt 0.242187500 0.015625000
vt 0.007812500 0.015625000
vn -0.89264122 0.25674253 0.37050630
f 17/17/5 18/18/5 19/19/5
f 17/17/5 19/19/5 20/20/5
v 0.50000000 0.03837719 1.92351196
v 0.50000000 0.10970814 1.87408314
v 0.45175439 0.10970814 1.87408314
v 0.45175439 0.03837719 1.92351196
vt 0.757812500 0.984375000
vt 0.992187500 0.984375000
vt 0.992187500 0.515625000
vt 0.757812500 0.515625000
vn 0.00000000 0.56956709 0.82194485
f 21/21/6 22/22/6 23/23/6
f 21/21/6 23/23/6 24/24/6
v 0.45175439 0.10970814 1.87408314
v 0.45175439 0.13925439 1.75475142
v 0.43947368 0.11732456 1.75475142
v 0.43947368 0.09420141 1.85524129
vt 0.007812500 0.484375000
vt 0.242187500 0.484375000
vt 0.242187500 0.015625000
vt 0.007812500 0.015625000
vn -0.86619050 0.48506668 0.12010134
f 25/25/7 26/26/7 27/27/7
f 25/25/7 27/27/7 28/28/7
v 0.50000000 0.10970814 1.87408314
v 0.50000000 0.13925439 1.75475142
v 0.45175439 0.13925439 1.75475142
v 0.45175439 0.10970814 1.87408314
vt 0.757812500 0.984375000
vt 0.992187500 0.984375000
vt 0.992187500 0.515625000
vt 0.757812500 0.515625000
vn 0.00000000 0.97068872 0.24034019
f 29/29/8 30/30/8 31/31/8
f 29/29/8 31/31/8 32/32/8
v 0.45175439 0.13925439 1.75475142
v 0.45175439 0.10970814 1.63541971
v 0.43947368 0.09420141 1.65426156
v 0.43947368 0.11732456 1.75475142
vt 0.007812500 0.484375000
vt 0.242187500 0.484375000
vt 0.242187500 0.015625000
vt 0.007812500 0.015625000
vn -0.84716521 0.51575562 -0.12769985
f 33/33/9 34/34/9 35/35/9
f 33/33/9 35/35/9 36/36/9
v 0.50000000 0.13925439 1.75475142
v 0.50000000 0.10970814 1.63541971
v 0.45175439 0.10970814 1.63541971
v 0.45175439 0.13925439 1.75475142
vt 0.757812500 0.984375000
vt 0.992187500 0.984375000
vt 0.992187500 0.515625000
vt 0.757812500 0.515625000
vn 0.00000000 0.97068872 -0.24034019
f 37/37/10 38/38/10 39/39/10
f 37/37/10 39/39/10 40/40/10
v 0.45175439 0.10970814 1.63541971
v 0.45175439 0.03837719 1.58599089
v 0.43947368 0.03837719 1.61263729
v 0.43947368 0.09420141 1.65426156
vt 0.007812500 0.484375000
vt 0.242187500 0.484375000
vt 0.242187500 0.015625000
vt 0.007812500 0.015625000
vn -0.87224012 0.27856267 -0.40199505
f 41/41/11 42/42/11 43/43/11
f 41/41/11 43/43/11 44/44/11
v 0.50000000 0.10970814 1.63541971
v 0.50000000 0.03837719 1.58599089
v 0.45175439 0.03837719 1.58599089
v 0.45175439 0.10970814 1.63541971
vt 0.757812500 0.984375000
vt 0.992187500 0.984375000
vt 0.992187500 0.515625000
vt 0.757812500 0.515625000
vn 0.00000000 0.56956709 -0.82194485
f 45/45/12 46/46/12 47/47/12
f 45/45/12 47/47/12 48/48/12
v 0.45175439 0.03837719 1.58599089
v 0.45175439 -0.03295375 1.63541971
v 0.43947368 -0.01744703 1.65426156
v 0.43947368 0.03837719 1.61263729
vt 0.007812500 0.484375000
vt 0.242187500 0.484375000
vt 0.242187500 0.015625000
vt 0.007812500 0.015625000
vn -0.89264122 -0.25674253 -0.37050630
f 49/49/13 50/50/13 51/51/13
f 49/49/13 51/51/13 52/52/13
v 0.50000000 0.03837719 1.58599089
v 0.50000000 -0.03295375 1.63541971
v 0.45175439 -0.03295375 1.63541971
v 0.45175439 0.03837719 1.58599089
vt 0.757812500 0.984375000
vt 0.992187500 0.984375000
vt 0.992187500 0.515625000
vt 0.757812500 0.515625000
vn 0.00000000 -0.56956709 -0.82194485
f 53/53/14 54/54/14 55/55/14
f 53/53/14 55/55/14 56/56/14
v 0.45175439 -0.03295375 1.63541971
v 0.45175439 -0.06250000 1.75475142
v 0.43947368 -0.04057018 1.75475142
v 0.43947368 -0.01744703 1.65426156
vt 0.007812500 0.484375000
vt 0.242187500 0.484375000
vt 0.242187500 0.015625000
vt 0.007812500 0.015625000
vn -0.86619050 -0.48506668 -0.12010134
f 57/57/15 58/58/15 59/59/15
f 57/57/15 59/59/15 60/60/15
v 0.50000000 -0.03295375 1.63541971
v 0.50000000 -0.06250000 1.75475142
v 0.45175439 -0.06250000 1.75475142
v 0.45175439 -0.03295375 1.63541971
vt 0.757812500 0.984375000
vt 0.992187500 0.984375000
vt 0.992187500 0.515625000
vt 0.757812500 0.515625000
vn 0.00000000 -0.97068872 -0.24034019
f 61/61/16 62/62/16 63/63/16
f 61/61/16 63/63/16 64/64/16
v 0.43947368 -0.04057018 1.75475142
v 0.43947368 -0.01744703 1.85524129
v 0.43947368 0.03837719 1.89686556
v 0.43947368 0.09420141 1.85524129
v 0.43947368 0.11732456 1.75475142
v 0.43947368 0.09420141 1.65426156
v 0.43947368 0.03837719 1.61263729
v 0.43947368 -0.01744703 1.65426156
vt 0.454549513 0.909099026
vt 0.375000000 0.975000000
vt 0.295450487 0.909099026
vt 0.262500000 0.750000000
vt 0.295450487 0.590900974
vt 0.375000000 0.525000000
vt 0.454549513 0.590900974
vt 0.487500000 0.750000000
vn -1.00000000 0.00000000 0.00000000
f 65/65/17 66/66/17 67/67/17
f 65/65/17 67/67/17 68/68/17
f 65/65/17 68/68/17 69/69/17
f 65/65/17 69/69/17 70/70/17
f 65/65/17 70/70/17 71/71/17
f 65/65/17 71/71/17 72/72/17
