mtllib pz_native_location_community_church_small_01_248.mtl
o pz_native_location_community_church_small_01_248_glass
usemtl Native_pz_native_location_community_church_small_01_248
v -0.49400000 0.48437500 2.47500526
v -0.49400000 -0.53125000 2.47500526
v -0.49400000 -0.53125000 1.28853367
v -0.49400000 0.48437500 1.28853367
vt 0.277343750 0.984375000
vt 0.531250000 0.984375000
vt 0.531250000 0.257812500
vt 0.277343750 0.257812500
vn 1.00000000 0.00000000 0.00000000
f 1/1/1 2/2/1 3/3/1
f 1/1/1 3/3/1 4/4/1
v -0.49300000 0.48437500 1.28853367
v -0.49300000 -0.53125000 1.28853367
v -0.49300000 -0.53125000 2.47500526
v -0.49300000 0.48437500 2.47500526
vt 0.277343750 0.257812500
vt 0.531250000 0.257812500
vt 0.531250000 0.984375000
vt 0.277343750 0.984375000
vn -1.00000000 0.00000000 0.00000000
f 5/5/2 6/6/2 7/7/2
f 5/5/2 7/7/2 8/8/2
