mtllib pz_native_street_decoration_01_58.mtl
o pz_native_street_decoration_01_58
usemtl Native_pz_native_street_decoration_01_58
v -0.055937520 -0.575312520 1.010000000
v -0.005937520 -0.575312520 1.010000000
v -0.005937520 -0.575312520 1.130000000
v -0.055937520 -0.575312520 1.130000000
vt 0.007812500 0.753906250
vt 0.492187500 0.753906250
vt 0.492187500 0.996093750
vt 0.007812500 0.996093750
vn 0.000000000 -1.000000000 0.000000000
vn 0.000000000 -1.000000000 0.000000000
vn 0.000000000 -1.000000000 0.000000000
vn 0.000000000 -1.000000000 0.000000000
f 1/1/1 2/2/2 3/3/3
f 1/1/1 3/3/3 4/4/4
v -0.005937520 -0.575312520 1.010000000
v -0.005937520 0.424687480 1.010000000
v -0.005937520 0.424687480 1.130000000
v -0.005937520 -0.575312520 1.130000000
vt 0.007812500 0.753906250
vt 0.492187500 0.753906250
vt 0.492187500 0.996093750
vt 0.007812500 0.996093750
vn 1.000000000 0.000000000 0.000000000
vn 1.000000000 0.000000000 0.000000000
vn 1.000000000 0.000000000 0.000000000
vn 1.000000000 0.000000000 0.000000000
f 5/5/5 6/6/6 7/7/7
f 5/5/5 7/7/7 8/8/8
v -0.005937520 0.424687480 1.010000000
v -0.055937520 0.424687480 1.010000000
v -0.055937520 0.424687480 1.130000000
v -0.005937520 0.424687480 1.130000000
vt 0.007812500 0.753906250
vt 0.492187500 0.753906250
vt 0.492187500 0.996093750
vt 0.007812500 0.996093750
vn 0.000000000 1.000000000 0.000000000
vn 0.000000000 1.000000000 0.000000000
vn 0.000000000 1.000000000 0.000000000
vn 0.000000000 1.000000000 0.000000000
f 9/9/9 10/10/10 11/11/11
f 9/9/9 11/11/11 12/12/12
v -0.055937520 0.424687480 1.010000000
v -0.055937520 -0.575312520 1.010000000
v -0.055937520 -0.575312520 1.130000000
v -0.055937520 0.424687480 1.130000000
vt 0.007812500 0.753906250
vt 0.492187500 0.753906250
vt 0.492187500 0.996093750
vt 0.007812500 0.996093750
vn -1.000000000 0.000000000 0.000000000
vn -1.000000000 0.000000000 0.000000000
vn -1.000000000 0.000000000 0.000000000
vn -1.000000000 0.000000000 0.000000000
f 13/13/13 14/14/14 15/15/15
f 13/13/13 15/15/15 16/16/16
v -0.055937520 -0.575312520 1.130000000
v -0.005937520 -0.575312520 1.130000000
v -0.005937520 0.424687480 1.130000000
v -0.055937520 0.424687480 1.130000000
vt 0.007812500 0.503906250
vt 0.492187500 0.503906250
vt 0.492187500 0.746093750
vt 0.007812500 0.746093750
vn 0.000000000 0.000000000 1.000000000
vn 0.000000000 0.000000000 1.000000000
vn 0.000000000 0.000000000 1.000000000
vn 0.000000000 0.000000000 1.000000000
f 17/17/17 18/18/18 19/19/19
f 17/17/17 19/19/19 20/20/20
