mtllib pz_native_fixtures_windows_metal_14.mtl
o pz_native_fixtures_windows_metal_14_glass
usemtl Native_pz_native_fixtures_windows_metal_14
v -0.49400000 0.50000000 2.44948974
v -0.49400000 -0.57812500 2.44948974
v -0.49400000 -0.57812500 -0.08930431
v -0.49400000 0.50000000 -0.08930431
vt 0.292968750 0.992187500
vt 0.562500000 0.992187500
vt 0.562500000 0.214843750
vt 0.292968750 0.214843750
vn 1.00000000 0.00000000 0.00000000
f 1/1/1 2/2/1 3/3/1
f 1/1/1 3/3/1 4/4/1
v -0.49300000 0.50000000 -0.08930431
v -0.49300000 -0.57812500 -0.08930431
v -0.49300000 -0.57812500 2.44948974
v -0.49300000 0.50000000 2.44948974
vt 0.292968750 0.214843750
vt 0.562500000 0.214843750
vt 0.562500000 0.992187500
vt 0.292968750 0.992187500
vn -1.00000000 0.00000000 0.00000000
f 5/5/2 6/6/2 7/7/2
f 5/5/2 7/7/2 8/8/2
