mtllib pz_native_street_decoration_01_7.mtl
o pz_native_street_decoration_01_7
usemtl Native_pz_native_street_decoration_01_7
v 0.31707406 0.11394906 1.15949666
v 0.31707406 0.04870898 1.05504487
v 0.31707406 -0.00348309 1.03046797
v 0.31707406 -0.08177119 1.09191021
v 0.31707406 -0.08177119 1.30081380
v 0.31707406 -0.04262714 1.34382337
v 0.31707406 0.04870898 1.38683293
v 0.31707406 0.11394906 1.34382337
vt 0.601562500 0.713072004
vt 0.634182542 0.701158658
vt 0.660278575 0.700658109
vt 0.699422625 0.714957498
vt 0.699422625 0.746939200
vt 0.679850600 0.751077164
vt 0.634182542 0.751953125
vt 0.601562500 0.741291152
vn -1.00000000 0.00000000 0.00000000
f 1/1/1 2/2/1 3/3/1
f 1/1/1 3/3/1 4/4/1
f 1/1/1 4/4/1 5/5/1
f 1/1/1 5/5/1 6/6/1
f 1/1/1 6/6/1 7/7/1
f 1/1/1 7/7/1 8/8/1
v 0.37135381 0.11394906 1.34382337
v 0.37135381 0.04870898 1.38683293
v 0.37135381 -0.04262714 1.34382337
v 0.37135381 -0.08177119 1.30081380
v 0.37135381 -0.08177119 1.09191021
v 0.37135381 -0.00348309 1.03046797
v 0.37135381 0.04870898 1.05504487
v 0.37135381 0.11394906 1.15949666
vt 0.394735125 0.280918386
vt 0.362115084 0.283425349
vt 0.316447025 0.271132374
vt 0.304687500 0.263077965
vt 0.304687500 0.231096264
vt 0.336019050 0.229502381
vt 0.362115084 0.232764385
vt 0.394735125 0.252699238
vn 1.00000000 0.00000000 0.00000000
f 9/9/2 10/10/2 11/11/2
f 9/9/2 11/11/2 12/12/2
f 9/9/2 12/12/2 13/13/2
f 9/9/2 13/13/2 14/14/2
f 9/9/2 14/14/2 15/15/2
f 9/9/2 15/15/2 16/16/2
v 0.31707406 0.11394906 1.15949666
v 0.37135381 0.11394906 1.15949666
v 0.37135381 0.04870898 1.05504487
v 0.31707406 0.04870898 1.05504487
vt 0.601562500 0.713072004
vt 0.628702375 0.709679519
vt 0.661322416 0.697766174
vt 0.634182542 0.701158658
vn 0.00000000 0.84815261 -0.52975198
f 17/17/3 18/18/3 19/19/3
f 17/17/3 19/19/3 20/20/3
v 0.31707406 0.04870898 1.05504487
v 0.37135381 0.04870898 1.05504487
v 0.37135381 -0.00348309 1.03046797
v 0.31707406 -0.00348309 1.03046797
vt 0.634182542 0.701158658
vt 0.661322416 0.697766174
vt 0.687418450 0.697265625
vt 0.660278575 0.700658109
vn 0.00000000 0.42602297 -0.90471235
f 21/21/4 22/22/4 23/23/4
f 21/21/4 23/23/4 24/24/4
v 0.31707406 -0.00348309 1.03046797
v 0.37135381 -0.00348309 1.03046797
v 0.37135381 -0.08177119 1.09191021
v 0.31707406 -0.08177119 1.09191021
vt 0.660278575 0.700658109
vt 0.687418450 0.697265625
vt 0.726562500 0.711565014
vt 0.699422625 0.714957498
vn 0.00000000 -0.61738753 -0.78665916
f 25/25/5 26/26/5 27/27/5
f 25/25/5 27/27/5 28/28/5
v 0.31707406 -0.08177119 1.09191021
v 0.37135381 -0.08177119 1.09191021
v 0.37135381 -0.08177119 1.30081380
v 0.31707406 -0.08177119 1.30081380
vt 0.699422625 0.714957498
vt 0.726562500 0.711565014
vt 0.726562500 0.743546715
vt 0.699422625 0.746939200
vn 0.00000000 -1.00000000 0.00000000
f 29/29/6 30/30/6 31/31/6
f 29/29/6 31/31/6 32/32/6
v 0.31707406 -0.08177119 1.30081380
v 0.37135381 -0.08177119 1.30081380
v 0.37135381 -0.04262714 1.34382337
v 0.31707406 -0.04262714 1.34382337
vt 0.699422625 0.746939200
vt 0.726562500 0.743546715
vt 0.706990475 0.747684680
vt 0.679850600 0.751077164
vn 0.00000000 -0.73955955 0.67309113
f 33/33/7 34/34/7 35/35/7
f 33/33/7 35/35/7 36/36/7
v 0.31707406 -0.04262714 1.34382337
v 0.37135381 -0.04262714 1.34382337
v 0.37135381 0.04870898 1.38683293
v 0.31707406 0.04870898 1.38683293
vt 0.679850600 0.751077164
vt 0.706990475 0.747684680
vt 0.661322416 0.748560641
vt 0.634182542 0.751953125
vn 0.00000000 -0.42602297 0.90471235
f 37/37/8 38/38/8 39/39/8
f 37/37/8 39/39/8 40/40/8
v 0.31707406 0.04870898 1.38683293
v 0.37135381 0.04870898 1.38683293
v 0.37135381 0.11394906 1.34382337
v 0.31707406 0.11394906 1.34382337
vt 0.634182542 0.751953125
vt 0.661322416 0.748560641
vt 0.628702375 0.737898668
vt 0.601562500 0.741291152
vn -0.00000000 0.55040631 0.83489694
f 41/41/9 42/42/9 43/43/9
f 41/41/9 43/43/9 44/44/9
v 0.31707406 0.11394906 1.34382337
v 0.37135381 0.11394906 1.34382337
v 0.37135381 0.11394906 1.15949666
v 0.31707406 0.11394906 1.15949666
vt 0.601562500 0.741291152
vt 0.628702375 0.737898668
vt 0.628702375 0.709679519
vt 0.601562500 0.713072004
vn -0.00000000 1.00000000 0.00000000
f 45/45/10 46/46/10 47/47/10
f 45/45/10 47/47/10 48/48/10
v 0.30859375 -0.01171875 0.00000000
v 0.33984375 -0.01171875 0.00000000
v 0.33984375 -0.01171875 1.09397784
v 0.30859375 -0.01171875 1.09397784
vt 0.660156250 0.543945312
vt 0.675781250 0.541992188
vt 0.675781250 0.709472656
vt 0.660156250 0.711425781
vn 0.00000000 -1.00000000 0.00000000
f 49/49/11 50/50/11 51/51/11
f 49/49/11 51/51/11 52/52/11
v 0.33984375 -0.01171875 0.00000000
v 0.33984375 0.01953125 0.00000000
v 0.33984375 0.01953125 1.09397784
v 0.33984375 -0.01171875 1.09397784
vt 0.675781250 0.541992188
vt 0.660156250 0.540039062
vt 0.660156250 0.707519531
vt 0.675781250 0.709472656
vn 1.00000000 0.00000000 0.00000000
f 53/53/12 54/54/12 55/55/12
f 53/53/12 55/55/12 56/56/12
v 0.33984375 0.01953125 0.00000000
v 0.30859375 0.01953125 0.00000000
v 0.30859375 0.01953125 1.09397784
v 0.33984375 0.01953125 1.09397784
vt 0.660156250 0.540039062
vt 0.644531250 0.541992188
vt 0.644531250 0.709472656
vt 0.660156250 0.707519531
vn 0.00000000 1.00000000 0.00000000
f 57/57/13 58/58/13 59/59/13
f 57/57/13 59/59/13 60/60/13
v 0.30859375 0.01953125 0.00000000
v 0.30859375 -0.01171875 0.00000000
v 0.30859375 -0.01171875 1.09397784
v 0.30859375 0.01953125 1.09397784
vt 0.644531250 0.541992188
vt 0.660156250 0.543945312
vt 0.660156250 0.711425781
vt 0.644531250 0.709472656
vn -1.00000000 0.00000000 0.00000000
f 61/61/14 62/62/14 63/63/14
f 61/61/14 63/63/14 64/64/14
