# Reviewed receiver: low arch, separate supported cups.
mtllib pz_phone_modern_black.mtl
o pz_phone_modern_black
usemtl body
g base
v -0.187000006 -0.133000001 0.008000000
vt 0.778930783 0.577789426
vn -0.000000000 -0.000000000 -1.000000000
v -0.187000006 0.133000001 0.008000000
vt 0.399366498 0.577789366
vn -0.000000000 -0.000000000 -1.000000000
v 0.187000006 0.133000001 0.008000000
vt 0.399366558 0.000000047
vn -0.000000000 -0.000000000 -1.000000000
f 1/1/1 2/2/2 3/3/3
g base
v -0.187000006 -0.133000001 0.008000000
vt 0.778930783 0.577789426
vn -0.000000000 0.000000000 -1.000000000
v 0.187000006 0.133000001 0.008000000
vt 0.399366558 0.000000047
vn -0.000000000 0.000000000 -1.000000000
v 0.187000006 -0.133000001 0.008000000
vt 0.778930843 0.000000078
vn -0.000000000 0.000000000 -1.000000000
f 4/4/4 5/5/5 6/6/6
g base
v -0.187000006 -0.133000001 0.041999999
vt 0.388933539 0.000000010
vn 0.000000000 -0.261274576 0.965264440
v 0.187000006 -0.133000001 0.041999999
vt 0.388933539 0.577789366
vn 0.000000000 -0.261274576 0.965264440
v 0.187000006 0.133000001 0.114000000
vt 0.000000002 0.577789366
vn 0.000000000 -0.261274576 0.965264440
f 7/7/7 8/8/8 9/9/9
g base
v -0.187000006 -0.133000001 0.041999999
vt 0.388933539 0.000000010
vn 0.000000000 -0.261274576 0.965264440
v 0.187000006 0.133000001 0.114000000
vt 0.000000002 0.577789366
vn 0.000000000 -0.261274576 0.965264440
v -0.187000006 0.133000001 0.114000000
vt 0.000000000 0.000000016
vn 0.000000000 -0.261274576 0.965264440
f 10/10/10 11/11/11 12/12/12
g base
v -0.187000006 -0.133000001 0.008000000
vt 1.000000000 0.000000004
vn -0.000000000 -1.000000000 -0.000000000
v 0.187000006 -0.133000001 0.008000000
vt 0.999999940 0.577789366
vn -0.000000000 -1.000000000 -0.000000000
v 0.187000006 -0.133000001 0.041999999
vt 0.951396585 0.577789366
vn -0.000000000 -1.000000000 -0.000000000
f 13/13/13 14/14/14 15/15/15
g base
v -0.187000006 -0.133000001 0.008000000
vt 1.000000000 0.000000004
vn 0.000000000 -1.000000000 -0.000000000
v 0.187000006 -0.133000001 0.041999999
vt 0.951396585 0.577789366
vn 0.000000000 -1.000000000 -0.000000000
v -0.187000006 -0.133000001 0.041999999
vt 0.951396644 0.000000000
vn 0.000000000 -1.000000000 -0.000000000
f 16/16/16 17/17/17 18/18/18
g base
v 0.187000006 -0.133000001 0.008000000
vt 0.162034944 1.000000000
vn 0.999999940 0.000000000 0.000000000
v 0.187000006 0.133000001 0.008000000
vt 0.162034914 0.589058936
vn 0.999999940 0.000000000 0.000000000
v 0.187000006 0.133000001 0.114000000
vt 0.313636810 0.589058876
vn 0.999999940 0.000000000 0.000000000
f 19/19/19 20/20/20 21/21/21
g base
v 0.187000006 -0.133000001 0.008000000
vt 0.162034944 1.000000000
vn 1.000000000 -0.000000000 0.000000000
v 0.187000006 0.133000001 0.114000000
vt 0.313636810 0.589058876
vn 1.000000000 -0.000000000 0.000000000
v 0.187000006 -0.133000001 0.041999999
vt 0.210661978 0.999999940
vn 1.000000000 -0.000000000 0.000000000
f 22/22/22 23/23/23 24/24/24
g base
v 0.187000006 0.133000001 0.008000000
vt 0.940963745 0.000000022
vn -0.000000000 1.000000000 0.000000000
v -0.187000006 0.133000001 0.008000000
vt 0.940963686 0.577789366
vn -0.000000000 1.000000000 0.000000000
v -0.187000006 0.133000001 0.114000000
vt 0.789363742 0.577789366
vn -0.000000000 1.000000000 0.000000000
f 25/25/25 26/26/26 27/27/27
g base
v 0.187000006 0.133000001 0.008000000
vt 0.940963745 0.000000022
vn 0.000000000 1.000000000 0.000000000
v -0.187000006 0.133000001 0.114000000
vt 0.789363742 0.577789366
vn 0.000000000 1.000000000 0.000000000
v 0.187000006 0.133000001 0.114000000
vt 0.789363801 0.000000010
vn 0.000000000 1.000000000 0.000000000
f 28/28/28 29/29/29 30/30/30
g base
v -0.187000006 0.133000001 0.008000000
vt 0.000000033 1.000000000
vn -1.000000000 0.000000000 0.000000000
v -0.187000006 -0.133000001 0.008000000
vt 0.000000014 0.589058936
vn -1.000000000 0.000000000 0.000000000
v -0.187000006 -0.133000001 0.041999999
vt 0.048627041 0.589058936
vn -1.000000000 0.000000000 0.000000000
f 31/31/31 32/32/32 33/33/33
g base
v -0.187000006 0.133000001 0.008000000
vt 0.000000033 1.000000000
vn -0.999999940 0.000000000 -0.000000000
v -0.187000006 -0.133000001 0.041999999
vt 0.048627041 0.589058936
vn -0.999999940 0.000000000 -0.000000000
v -0.187000006 0.133000001 0.114000000
vt 0.151601925 1.000000000
vn -0.999999940 0.000000000 -0.000000000
f 34/34/34 35/35/35 36/36/36
g cradle_0
v -0.128000006 -0.100000001 0.052616540
vt 0.858754337 0.760997117
vn -0.000000000 -0.000000000 -1.000000000
v -0.128000006 -0.057999998 0.052616540
vt 0.798823118 0.760997117
vn -0.000000000 -0.000000000 -1.000000000
v -0.083999999 -0.057999998 0.052616540
vt 0.798823118 0.693021953
vn -0.000000000 -0.000000000 -1.000000000
f 37/37/37 38/38/38 39/39/39
g cradle_0
v -0.128000006 -0.100000001 0.052616540
vt 0.858754337 0.760997117
vn -0.000000000 0.000000000 -1.000000000
v -0.083999999 -0.057999998 0.052616540
vt 0.798823118 0.693021953
vn -0.000000000 0.000000000 -1.000000000
v -0.083999999 -0.100000001 0.052616540
vt 0.858754337 0.693021953
vn -0.000000000 0.000000000 -1.000000000
f 40/40/40 41/41/41 42/42/42
g cradle_0
v -0.128000006 -0.100000001 0.069616541
vt 0.859988511 0.589058876
vn 0.000000000 0.000000000 1.000000000
v -0.083999999 -0.100000001 0.069616541
vt 0.859988511 0.657034039
vn 0.000000000 0.000000000 1.000000000
v -0.083999999 -0.057999998 0.069616541
vt 0.800231040 0.657034039
vn 0.000000000 0.000000000 1.000000000
f 43/43/43 44/44/44 45/45/45
g cradle_0
v -0.128000006 -0.100000001 0.069616541
vt 0.859988511 0.589058876
vn -0.000000000 0.000000000 1.000000000
v -0.083999999 -0.057999998 0.069616541
vt 0.800231040 0.657034039
vn -0.000000000 0.000000000 1.000000000
v -0.128000006 -0.057999998 0.069616541
vt 0.800231040 0.589058876
vn -0.000000000 0.000000000 1.000000000
f 46/46/46 47/47/47 48/48/48
g cradle_0
v -0.128000006 -0.100000001 0.052616540
vt 0.894723117 0.589058876
vn -0.000000000 -1.000000000 -0.000000000
v -0.083999999 -0.100000001 0.052616540
vt 0.894723117 0.657034099
vn -0.000000000 -1.000000000 -0.000000000
v -0.083999999 -0.100000001 0.069616541
vt 0.870421410 0.657034099
vn -0.000000000 -1.000000000 -0.000000000
f 49/49/49 50/50/50 51/51/51
g cradle_0
v -0.128000006 -0.100000001 0.052616540
vt 0.894723117 0.589058876
vn 0.000000000 -1.000000000 -0.000000000
v -0.083999999 -0.100000001 0.069616541
vt 0.870421410 0.657034099
vn 0.000000000 -1.000000000 -0.000000000
v -0.128000006 -0.100000001 0.069616541
vt 0.870421410 0.589058876
vn 0.000000000 -1.000000000 -0.000000000
f 52/52/52 53/53/53 54/54/54
g cradle_0
v -0.083999999 -0.100000001 0.052616540
vt 0.735447764 0.973106325
vn 1.000000000 0.000000000 0.000000000
v -0.083999999 -0.057999998 0.052616540
vt 0.735447764 0.908220828
vn 1.000000000 0.000000000 0.000000000
v -0.083999999 -0.057999998 0.069616541
vt 0.759761274 0.908220828
vn 1.000000000 0.000000000 0.000000000
f 55/55/55 56/56/56 57/57/57
g cradle_0
v -0.083999999 -0.100000001 0.052616540
vt 0.735447764 0.973106325
vn 1.000000000 -0.000000000 0.000000000
v -0.083999999 -0.057999998 0.069616541
vt 0.759761274 0.908220828
vn 1.000000000 -0.000000000 0.000000000
v -0.083999999 -0.100000001 0.069616541
vt 0.759761274 0.973106325
vn 1.000000000 -0.000000000 0.000000000
f 58/58/58 59/59/59 60/60/60
g cradle_0
v -0.083999999 -0.057999998 0.052616540
vt 0.886486292 0.879866242
vn -0.000000000 1.000000000 0.000000000
v -0.128000006 -0.057999998 0.052616540
vt 0.886486292 0.947841406
vn -0.000000000 1.000000000 0.000000000
v -0.128000006 -0.057999998 0.069616541
vt 0.862173080 0.947841406
vn -0.000000000 1.000000000 0.000000000
f 61/61/61 62/62/62 63/63/63
g cradle_0
v -0.083999999 -0.057999998 0.052616540
vt 0.886486292 0.879866242
vn 0.000000000 1.000000000 0.000000000
v -0.128000006 -0.057999998 0.069616541
vt 0.862173080 0.947841406
vn 0.000000000 1.000000000 0.000000000
v -0.083999999 -0.057999998 0.069616541
vt 0.862173080 0.879866242
vn 0.000000000 1.000000000 0.000000000
f 64/64/64 65/65/65 66/66/66
g cradle_0
v -0.128000006 -0.057999998 0.052616540
vt 0.921232760 0.879866183
vn -1.000000000 0.000000000 0.000000000
v -0.128000006 -0.100000001 0.052616540
vt 0.921232760 0.944751620
vn -1.000000000 0.000000000 0.000000000
v -0.128000006 -0.100000001 0.069616541
vt 0.896919250 0.944751620
vn -1.000000000 0.000000000 0.000000000
f 67/67/67 68/68/68 69/69/69
g cradle_0
v -0.128000006 -0.057999998 0.052616540
vt 0.921232760 0.879866183
vn -1.000000000 -0.000000000 -0.000000000
v -0.128000006 -0.100000001 0.069616541
vt 0.896919250 0.944751620
vn -1.000000000 -0.000000000 -0.000000000
v -0.128000006 -0.057999998 0.069616541
vt 0.896919250 0.879866183
vn -1.000000000 -0.000000000 -0.000000000
f 70/70/70 71/71/71 72/72/72
g receiver_cup_0
v -0.075999998 -0.079000004 0.066616543
vt 0.642463207 0.656972528
vn 0.000000000 0.000000000 -1.000000000
v -0.090999998 -0.102382682 0.066616543
vt 0.606373250 0.674755037
vn 0.000000000 0.000000000 -1.000000000
v -0.120999999 -0.102382682 0.066616543
vt 0.570283353 0.649689496
vn 0.000000000 0.000000000 -1.000000000
f 73/73/73 74/74/74 75/75/75
g receiver_cup_0
v -0.120999999 -0.102382682 0.066616543
vt 0.570283353 0.649689496
vn 0.000000000 -0.000000000 -1.000000000
v -0.136000007 -0.079000004 0.066616543
vt 0.570283353 0.606841445
vn 0.000000000 -0.000000000 -1.000000000
v -0.120999999 -0.055617314 0.066616543
vt 0.606373250 0.589058876
vn 0.000000000 -0.000000000 -1.000000000
f 76/76/76 77/77/77 78/78/78
g receiver_cup_0
v -0.120999999 -0.055617314 0.066616543
vt 0.606373250 0.589058876
vn 0.000000000 0.000000000 -1.000000000
v -0.090999998 -0.055617314 0.066616543
vt 0.642463207 0.614124417
vn 0.000000000 0.000000000 -1.000000000
v -0.075999998 -0.079000004 0.066616543
vt 0.642463207 0.656972528
vn 0.000000000 0.000000000 -1.000000000
f 79/79/79 80/80/80 81/81/81
g receiver_cup_0
v -0.120999999 -0.102382682 0.066616543
vt 0.570283353 0.649689496
vn -0.000000000 -0.000000000 -1.000000000
v -0.120999999 -0.055617314 0.066616543
vt 0.606373250 0.589058876
vn -0.000000000 -0.000000000 -1.000000000
v -0.075999998 -0.079000004 0.066616543
vt 0.642463207 0.656972528
vn -0.000000000 -0.000000000 -1.000000000
f 82/82/82 83/83/83 84/84/84
g receiver_cup_0
v -0.090999998 -0.102382682 0.103616543
vt 0.652896285 0.753425419
vn 0.000000000 0.000000000 1.000000000
v -0.075999998 -0.079000004 0.103616543
vt 0.652896345 0.710665166
vn 0.000000000 0.000000000 1.000000000
v -0.090999998 -0.055617314 0.103616543
vt 0.688955545 0.693021953
vn 0.000000000 0.000000000 1.000000000
f 85/85/85 86/86/86 87/87/87
g receiver_cup_0
v -0.090999998 -0.055617314 0.103616543
vt 0.688955545 0.693021953
vn 0.000000000 0.000000000 1.000000000
v -0.120999999 -0.055617314 0.103616543
vt 0.725014746 0.718139052
vn 0.000000000 0.000000000 1.000000000
v -0.136000007 -0.079000004 0.103616543
vt 0.725014746 0.760899305
vn 0.000000000 0.000000000 1.000000000
f 88/88/88 89/89/89 90/90/90
g receiver_cup_0
v -0.136000007 -0.079000004 0.103616543
vt 0.725014746 0.760899305
vn 0.000000000 0.000000000 1.000000000
v -0.120999999 -0.102382682 0.103616543
vt 0.688955545 0.778542459
vn 0.000000000 0.000000000 1.000000000
v -0.090999998 -0.102382682 0.103616543
vt 0.652896285 0.753425419
vn 0.000000000 0.000000000 1.000000000
f 91/91/91 92/92/92 93/93/93
g receiver_cup_0
v -0.090999998 -0.055617314 0.103616543
vt 0.688955545 0.693021953
vn 0.000000000 -0.000000000 1.000000000
v -0.136000007 -0.079000004 0.103616543
vt 0.725014746 0.760899305
vn 0.000000000 -0.000000000 1.000000000
v -0.090999998 -0.102382682 0.103616543
vt 0.652896285 0.753425419
vn 0.000000000 -0.000000000 1.000000000
f 94/94/94 95/95/95 96/96/96
g receiver_cup_0
v -0.075999998 -0.079000004 0.066616543
vt 0.735472441 0.848785937
vn 0.762456417 0.489115953 -0.423586667
v -0.090999998 -0.055617314 0.066616543
vt 0.735447764 0.812662721
vn 0.762456417 0.489115953 -0.423586667
v -0.086000003 -0.047823086 0.084616542
vt 0.761199713 0.800621390
vn 0.762456417 0.489115953 -0.423586667
f 97/97/97 98/98/98 99/99/99
g receiver_cup_0
v -0.075999998 -0.079000004 0.066616543
vt 0.735472441 0.848785937
vn 0.762456417 0.489116043 -0.423586816
v -0.086000003 -0.047823086 0.084616542
vt 0.761199713 0.800621390
vn 0.762456417 0.489116043 -0.423586816
v -0.066000000 -0.079000004 0.084616542
vt 0.761232615 0.848785579
vn 0.762456417 0.489116043 -0.423586816
f 100/100/100 101/101/101 102/102/102
g receiver_cup_0
v -0.090999998 -0.055617314 0.066616543
vt 0.851740122 0.887590647
vn 0.000000000 0.917662919 -0.397359669
v -0.120999999 -0.055617314 0.066616543
vt 0.851740122 0.933937311
vn 0.000000000 0.917662919 -0.397359669
v -0.126000002 -0.047823086 0.084616542
vt 0.825937271 0.941661835
vn 0.000000000 0.917662919 -0.397359669
f 103/103/103 104/104/104 105/105/105
g receiver_cup_0
v -0.090999998 -0.055617314 0.066616543
vt 0.851740122 0.887590647
vn 0.000000000 0.917662978 -0.397359669
v -0.126000002 -0.047823086 0.084616542
vt 0.825937271 0.941661835
vn 0.000000000 0.917662978 -0.397359669
v -0.086000003 -0.047823086 0.084616542
vt 0.825937271 0.879866183
vn 0.000000000 0.917662978 -0.397359669
f 106/106/106 107/107/107 108/108/108
g receiver_cup_0
v -0.120999999 -0.055617314 0.066616543
vt 0.735447764 0.777310491
vn -0.762456357 0.489116192 -0.423586518
v -0.136000007 -0.079000004 0.066616543
vt 0.735472441 0.741187215
vn -0.762456357 0.489116192 -0.423586518
v -0.145999998 -0.079000004 0.084616542
vt 0.761232615 0.741187572
vn -0.762456357 0.489116192 -0.423586518
f 109/109/109 110/110/110 111/111/111
g receiver_cup_0
v -0.120999999 -0.055617314 0.066616543
vt 0.735447764 0.777310491
vn -0.762456417 0.489115864 -0.423586905
v -0.145999998 -0.079000004 0.084616542
vt 0.761232615 0.741187572
vn -0.762456417 0.489115864 -0.423586905
v -0.126000002 -0.047823086 0.084616542
vt 0.761199713 0.789351881
vn -0.762456417 0.489115864 -0.423586905
f 112/112/112 113/113/113 114/114/114
g receiver_cup_0
v -0.136000007 -0.079000004 0.066616543
vt 0.735472441 0.741187215
vn -0.762456059 -0.489116222 -0.423587084
v -0.120999999 -0.102382682 0.066616543
vt 0.735447764 0.705063045
vn -0.762456059 -0.489116222 -0.423587084
v -0.126000002 -0.110176913 0.084616542
vt 0.761199713 0.693021953
vn -0.762456059 -0.489116222 -0.423587084
f 115/115/115 116/116/116 117/117/117
g receiver_cup_0
v -0.136000007 -0.079000004 0.066616543
vt 0.735472441 0.741187215
vn -0.762456536 -0.489116043 -0.423586547
v -0.126000002 -0.110176913 0.084616542
vt 0.761199713 0.693021953
vn -0.762456536 -0.489116043 -0.423586547
v -0.145999998 -0.079000004 0.084616542
vt 0.761232615 0.741187572
vn -0.762456536 -0.489116043 -0.423586547
f 118/118/118 119/119/119 120/120/120
g receiver_cup_0
v -0.120999999 -0.102382682 0.066616543
vt 0.376961648 0.898394942
vn -0.000000000 -0.917662859 -0.397359818
v -0.090999998 -0.102382682 0.066616543
vt 0.376961648 0.944741666
vn -0.000000000 -0.917662859 -0.397359818
v -0.086000003 -0.110176913 0.084616542
vt 0.351578802 0.952466071
vn -0.000000000 -0.917662859 -0.397359818
f 121/121/121 122/122/122 123/123/123
g receiver_cup_0
v -0.120999999 -0.102382682 0.066616543
vt 0.376961648 0.898394942
vn 0.000000000 -0.917662859 -0.397359848
v -0.086000003 -0.110176913 0.084616542
vt 0.351578802 0.952466071
vn 0.000000000 -0.917662859 -0.397359848
v -0.126000002 -0.110176913 0.084616542
vt 0.351578802 0.890670419
vn 0.000000000 -0.917662859 -0.397359848
f 124/124/124 125/125/125 126/126/126
g receiver_cup_0
v -0.090999998 -0.102382682 0.066616543
vt 0.735447764 0.884910166
vn 0.762456298 -0.489116132 -0.423586786
v -0.075999998 -0.079000004 0.066616543
vt 0.735472441 0.848785937
vn 0.762456298 -0.489116132 -0.423586786
v -0.066000000 -0.079000004 0.084616542
vt 0.761232615 0.848785579
vn 0.762456298 -0.489116132 -0.423586786
f 127/127/127 128/128/128 129/129/129
g receiver_cup_0
v -0.090999998 -0.102382682 0.066616543
vt 0.735447764 0.884910166
vn 0.762456298 -0.489116073 -0.423586786
v -0.066000000 -0.079000004 0.084616542
vt 0.761232615 0.848785579
vn 0.762456298 -0.489116073 -0.423586786
v -0.086000003 -0.110176913 0.084616542
vt 0.761199713 0.896951199
vn 0.762456298 -0.489116073 -0.423586786
f 130/130/130 131/131/131 132/132/132
g receiver_cup_0
v -0.066000000 -0.079000004 0.084616542
vt 0.761232615 0.848785579
vn 0.769565344 0.493676454 0.405034155
v -0.086000003 -0.047823086 0.084616542
vt 0.761199713 0.800621390
vn 0.769565344 0.493676454 0.405034155
v -0.090999998 -0.055617314 0.103616543
vt 0.788365424 0.812662721
vn 0.769565344 0.493676454 0.405034155
f 133/133/133 134/134/134 135/135/135
g receiver_cup_0
v -0.066000000 -0.079000004 0.084616542
vt 0.761232615 0.848785579
vn 0.769565344 0.493676305 0.405034274
v -0.090999998 -0.055617314 0.103616543
vt 0.788365424 0.812662721
vn 0.769565344 0.493676305 0.405034274
v -0.075999998 -0.079000004 0.103616543
vt 0.788390100 0.848785937
vn 0.769565344 0.493676305 0.405034274
f 136/136/136 137/137/137 138/138/138
g receiver_cup_0
v -0.086000003 -0.047823086 0.084616542
vt 0.825937271 0.879866183
vn -0.000000000 0.925179601 0.379529446
v -0.126000002 -0.047823086 0.084616542
vt 0.825937271 0.941661835
vn -0.000000000 0.925179601 0.379529446
v -0.120999999 -0.055617314 0.103616543
vt 0.798823178 0.933937311
vn -0.000000000 0.925179601 0.379529446
f 139/139/139 140/140/140 141/141/141
g receiver_cup_0
v -0.086000003 -0.047823086 0.084616542
vt 0.825937271 0.879866183
vn 0.000000000 0.925179660 0.379529506
v -0.120999999 -0.055617314 0.103616543
vt 0.798823178 0.933937311
vn 0.000000000 0.925179660 0.379529506
v -0.090999998 -0.055617314 0.103616543
vt 0.798823178 0.887590587
vn 0.000000000 0.925179660 0.379529506
f 142/142/142 143/143/143 144/144/144
g receiver_cup_0
v -0.126000002 -0.047823086 0.084616542
vt 0.761199713 0.789351881
vn -0.769565523 0.493676335 0.405034035
v -0.145999998 -0.079000004 0.084616542
vt 0.761232615 0.741187572
vn -0.769565523 0.493676335 0.405034035
v -0.136000007 -0.079000004 0.103616543
vt 0.788390100 0.741187215
vn -0.769565523 0.493676335 0.405034035
f 145/145/145 146/146/146 147/147/147
g receiver_cup_0
v -0.126000002 -0.047823086 0.084616542
vt 0.761199713 0.789351881
vn -0.769565165 0.493676454 0.405034423
v -0.136000007 -0.079000004 0.103616543
vt 0.788390100 0.741187215
vn -0.769565165 0.493676454 0.405034423
v -0.120999999 -0.055617314 0.103616543
vt 0.788365424 0.777310491
vn -0.769565165 0.493676454 0.405034423
f 148/148/148 149/149/149 150/150/150
g receiver_cup_0
v -0.145999998 -0.079000004 0.084616542
vt 0.761232615 0.741187572
vn -0.769565284 -0.493676335 0.405034512
v -0.126000002 -0.110176913 0.084616542
vt 0.761199713 0.693021953
vn -0.769565284 -0.493676335 0.405034512
v -0.120999999 -0.102382682 0.103616543
vt 0.788365424 0.705063045
vn -0.769565284 -0.493676335 0.405034512
f 151/151/151 152/152/152 153/153/153
g receiver_cup_0
v -0.145999998 -0.079000004 0.084616542
vt 0.761232615 0.741187572
vn -0.769565344 -0.493676782 0.405033946
v -0.120999999 -0.102382682 0.103616543
vt 0.788365424 0.705063045
vn -0.769565344 -0.493676782 0.405033946
v -0.136000007 -0.079000004 0.103616543
vt 0.788390100 0.741187215
vn -0.769565344 -0.493676782 0.405033946
f 154/154/154 155/155/155 156/156/156
g receiver_cup_0
v -0.126000002 -0.110176913 0.084616542
vt 0.351578802 0.890670419
vn 0.000000000 -0.925179541 0.379529625
v -0.086000003 -0.110176913 0.084616542
vt 0.351578802 0.952466071
vn 0.000000000 -0.925179541 0.379529625
v -0.090999998 -0.102382682 0.103616543
vt 0.324069798 0.944741666
vn 0.000000000 -0.925179541 0.379529625
f 157/157/157 158/158/158 159/159/159
g receiver_cup_0
v -0.126000002 -0.110176913 0.084616542
vt 0.351578802 0.890670419
vn 0.000000000 -0.925179541 0.379529625
v -0.090999998 -0.102382682 0.103616543
vt 0.324069798 0.944741666
vn 0.000000000 -0.925179541 0.379529625
v -0.120999999 -0.102382682 0.103616543
vt 0.324069798 0.898394942
vn 0.000000000 -0.925179541 0.379529625
f 160/160/160 161/161/161 162/162/162
g receiver_cup_0
v -0.086000003 -0.110176913 0.084616542
vt 0.761199713 0.896951199
vn 0.769565284 -0.493676543 0.405034244
v -0.066000000 -0.079000004 0.084616542
vt 0.761232615 0.848785579
vn 0.769565284 -0.493676543 0.405034244
v -0.075999998 -0.079000004 0.103616543
vt 0.788390100 0.848785937
vn 0.769565284 -0.493676543 0.405034244
f 163/163/163 164/164/164 165/165/165
g receiver_cup_0
v -0.086000003 -0.110176913 0.084616542
vt 0.761199713 0.896951199
vn 0.769565344 -0.493676513 0.405034304
v -0.075999998 -0.079000004 0.103616543
vt 0.788390100 0.848785937
vn 0.769565344 -0.493676513 0.405034304
v -0.090999998 -0.102382682 0.103616543
vt 0.788365424 0.884910166
vn 0.769565344 -0.493676513 0.405034304
f 166/166/166 167/167/167 168/168/168
g cradle_1
v -0.128000006 0.068999998 0.098360904
vt 0.789798081 0.657034099
vn -0.000000000 -0.000000000 -1.000000000
v -0.128000006 0.111000001 0.098360904
vt 0.729866862 0.657034099
vn -0.000000000 -0.000000000 -1.000000000
v -0.083999999 0.111000001 0.098360904
vt 0.729866862 0.589058876
vn -0.000000000 -0.000000000 -1.000000000
f 169/169/169 170/170/170 171/171/171
g cradle_1
v -0.128000006 0.068999998 0.098360904
vt 0.789798081 0.657034099
vn -0.000000000 0.000000000 -1.000000000
v -0.083999999 0.111000001 0.098360904
vt 0.729866862 0.589058876
vn -0.000000000 0.000000000 -1.000000000
v -0.083999999 0.068999998 0.098360904
vt 0.789798081 0.589058876
vn -0.000000000 0.000000000 -1.000000000
f 172/172/172 173/173/173 174/174/174
g cradle_1
v -0.128000006 0.068999998 0.115360901
vt 0.858580470 0.800621390
vn 0.000000000 0.000000000 1.000000000
v -0.083999999 0.068999998 0.115360901
vt 0.858580470 0.868596613
vn 0.000000000 0.000000000 1.000000000
v -0.083999999 0.111000001 0.115360901
vt 0.798822999 0.868596613
vn 0.000000000 0.000000000 1.000000000
f 175/175/175 176/176/176 177/177/177
g cradle_1
v -0.128000006 0.068999998 0.115360901
vt 0.858580470 0.800621390
vn -0.000000000 0.000000000 1.000000000
v -0.083999999 0.111000001 0.115360901
vt 0.798822999 0.868596613
vn -0.000000000 0.000000000 1.000000000
v -0.128000006 0.111000001 0.115360901
vt 0.798822999 0.800621390
vn -0.000000000 0.000000000 1.000000000
f 178/178/178 179/179/179 180/180/180
g cradle_1
v -0.128000006 0.068999998 0.098360904
vt 0.893488944 0.693021953
vn -0.000000000 -1.000000000 -0.000000000
v -0.083999999 0.068999998 0.098360904
vt 0.893488944 0.760997176
vn -0.000000000 -1.000000000 -0.000000000
v -0.083999999 0.068999998 0.115360901
vt 0.869187236 0.760997176
vn -0.000000000 -1.000000000 -0.000000000
f 181/181/181 182/182/182 183/183/183
g cradle_1
v -0.128000006 0.068999998 0.098360904
vt 0.893488944 0.693021953
vn 0.000000000 -1.000000000 -0.000000000
v -0.083999999 0.068999998 0.115360901
vt 0.869187236 0.760997176
vn 0.000000000 -1.000000000 -0.000000000
v -0.128000006 0.068999998 0.115360901
vt 0.869187236 0.693021953
vn 0.000000000 -1.000000000 -0.000000000
f 184/184/184 185/185/185 186/186/186
g cradle_1
v -0.083999999 0.068999998 0.098360904
vt 0.928073287 0.800621390
vn 1.000000000 0.000000000 0.000000000
v -0.083999999 0.111000001 0.098360904
vt 0.928073287 0.865506768
vn 1.000000000 0.000000000 0.000000000
v -0.083999999 0.111000001 0.115360901
vt 0.903759778 0.865506768
vn 1.000000000 0.000000000 0.000000000
f 187/187/187 188/188/188 189/189/189
g cradle_1
v -0.083999999 0.068999998 0.098360904
vt 0.928073287 0.800621390
vn 1.000000000 -0.000000000 0.000000000
v -0.083999999 0.111000001 0.115360901
vt 0.903759778 0.865506768
vn 1.000000000 -0.000000000 0.000000000
v -0.083999999 0.068999998 0.115360901
vt 0.903759778 0.800621390
vn 1.000000000 -0.000000000 0.000000000
f 190/190/190 191/191/191 192/192/192
g cradle_1
v -0.083999999 0.111000001 0.098360904
vt 0.893326759 0.800621271
vn -0.000000000 1.000000000 0.000000000
v -0.128000006 0.111000001 0.098360904
vt 0.893326759 0.868596554
vn -0.000000000 1.000000000 0.000000000
v -0.128000006 0.111000001 0.115360901
vt 0.869013548 0.868596554
vn -0.000000000 1.000000000 0.000000000
f 193/193/193 194/194/194 195/195/195
g cradle_1
v -0.083999999 0.111000001 0.098360904
vt 0.893326759 0.800621271
vn 0.000000000 1.000000000 0.000000000
v -0.128000006 0.111000001 0.115360901
vt 0.869013548 0.868596554
vn 0.000000000 1.000000000 0.000000000
v -0.083999999 0.111000001 0.115360901
vt 0.869013548 0.800621271
vn 0.000000000 1.000000000 0.000000000
f 196/196/196 197/197/197 198/198/198
g cradle_1
v -0.128000006 0.111000001 0.098360904
vt 0.928235471 0.693021894
vn -1.000000000 0.000000000 0.000000000
v -0.128000006 0.068999998 0.098360904
vt 0.928235471 0.757907331
vn -1.000000000 0.000000000 0.000000000
v -0.128000006 0.068999998 0.115360901
vt 0.903921962 0.757907331
vn -1.000000000 0.000000000 0.000000000
f 199/199/199 200/200/200 201/201/201
g cradle_1
v -0.128000006 0.111000001 0.098360904
vt 0.928235471 0.693021894
vn -1.000000000 -0.000000000 -0.000000000
v -0.128000006 0.068999998 0.115360901
vt 0.903921962 0.757907331
vn -1.000000000 -0.000000000 -0.000000000
v -0.128000006 0.111000001 0.115360901
vt 0.903921962 0.693021894
vn -1.000000000 -0.000000000 -0.000000000
f 202/202/202 203/203/203 204/204/204
g receiver_cup_1
v -0.075999998 0.090000004 0.112360902
vt 0.642463267 0.703807235
vn 0.000000000 0.000000000 -1.000000000
v -0.090999998 0.066617317 0.112360902
vt 0.642463267 0.746655345
vn 0.000000000 0.000000000 -1.000000000
v -0.120999999 0.066617317 0.112360902
vt 0.606373310 0.771720827
vn 0.000000000 0.000000000 -1.000000000
f 205/205/205 206/206/206 207/207/207
g receiver_cup_1
v -0.120999999 0.066617317 0.112360902
vt 0.606373310 0.771720827
vn 0.000000000 -0.000000000 -1.000000000
v -0.136000007 0.090000004 0.112360902
vt 0.570283413 0.753938317
vn 0.000000000 -0.000000000 -1.000000000
v -0.120999999 0.113382682 0.112360902
vt 0.570283413 0.711090207
vn 0.000000000 -0.000000000 -1.000000000
f 208/208/208 209/209/209 210/210/210
g receiver_cup_1
v -0.120999999 0.113382682 0.112360902
vt 0.570283413 0.711090207
vn 0.000000000 0.000000000 -1.000000000
v -0.090999998 0.113382682 0.112360902
vt 0.606373370 0.686024666
vn 0.000000000 0.000000000 -1.000000000
v -0.075999998 0.090000004 0.112360902
vt 0.642463267 0.703807235
vn 0.000000000 0.000000000 -1.000000000
f 211/211/211 212/212/212 213/213/213
g receiver_cup_1
v -0.120999999 0.066617317 0.112360902
vt 0.606373310 0.771720827
vn -0.000000000 -0.000000000 -1.000000000
v -0.120999999 0.113382682 0.112360902
vt 0.570283413 0.711090207
vn -0.000000000 -0.000000000 -1.000000000
v -0.075999998 0.090000004 0.112360902
vt 0.642463267 0.703807235
vn -0.000000000 -0.000000000 -1.000000000
f 214/214/214 215/215/215 216/216/216
g receiver_cup_1
v -0.090999998 0.066617317 0.149360895
vt 0.719433963 0.658578992
vn 0.000000000 0.000000000 1.000000000
v -0.075999998 0.090000004 0.149360895
vt 0.686165154 0.681752324
vn 0.000000000 0.000000000 1.000000000
v -0.090999998 0.113382682 0.149360895
vt 0.652896285 0.658578992
vn 0.000000000 0.000000000 1.000000000
f 217/217/217 218/218/218 219/219/219
g receiver_cup_1
v -0.090999998 0.113382682 0.149360895
vt 0.652896285 0.658578992
vn 0.000000000 0.000000000 1.000000000
v -0.120999999 0.113382682 0.149360895
vt 0.652896345 0.612232268
vn 0.000000000 0.000000000 1.000000000
v -0.136000007 0.090000004 0.149360895
vt 0.686165154 0.589058876
vn 0.000000000 0.000000000 1.000000000
f 220/220/220 221/221/221 222/222/222
g receiver_cup_1
v -0.136000007 0.090000004 0.149360895
vt 0.686165154 0.589058876
vn 0.000000000 0.000000000 1.000000000
v -0.120999999 0.066617317 0.149360895
vt 0.719433963 0.612232268
vn 0.000000000 0.000000000 1.000000000
v -0.090999998 0.066617317 0.149360895
vt 0.719433963 0.658578992
vn 0.000000000 0.000000000 1.000000000
f 223/223/223 224/224/224 225/225/225
g receiver_cup_1
v -0.090999998 0.113382682 0.149360895
vt 0.652896285 0.658578992
vn 0.000000000 -0.000000000 1.000000000
v -0.136000007 0.090000004 0.149360895
vt 0.686165154 0.589058876
vn 0.000000000 -0.000000000 1.000000000
v -0.090999998 0.066617317 0.149360895
vt 0.719433963 0.658578992
vn 0.000000000 -0.000000000 1.000000000
f 226/226/226 227/227/227 228/228/228
g receiver_cup_1
v -0.075999998 0.090000004 0.112360902
vt 0.570308208 0.831154943
vn 0.762456298 0.489116132 -0.423586816
v -0.090999998 0.113382682 0.112360902
vt 0.570283473 0.795031726
vn 0.762456298 0.489116132 -0.423586816
v -0.086000003 0.121176913 0.130360901
vt 0.596035421 0.782990336
vn 0.762456298 0.489116132 -0.423586816
f 229/229/229 230/230/230 231/231/231
g receiver_cup_1
v -0.075999998 0.090000004 0.112360902
vt 0.570308208 0.831154943
vn 0.762456357 0.489116132 -0.423586786
v -0.086000003 0.121176913 0.130360901
vt 0.596035421 0.782990336
vn 0.762456357 0.489116132 -0.423586786
v -0.066000000 0.090000004 0.130360901
vt 0.596068382 0.831154585
vn 0.762456357 0.489116132 -0.423586786
f 232/232/232 233/233/233 234/234/234
g receiver_cup_1
v -0.090999998 0.113382682 0.112360902
vt 0.547986567 0.895865321
vn 0.000000000 0.917662859 -0.397359818
v -0.120999999 0.113382682 0.112360902
vt 0.547986567 0.942212105
vn 0.000000000 0.917662859 -0.397359818
v -0.126000002 0.121176913 0.130360901
vt 0.522183776 0.949936509
vn 0.000000000 0.917662859 -0.397359818
f 235/235/235 236/236/236 237/237/237
g receiver_cup_1
v -0.090999998 0.113382682 0.112360902
vt 0.547986567 0.895865321
vn 0.000000000 0.917662859 -0.397359848
v -0.126000002 0.121176913 0.130360901
vt 0.522183776 0.949936509
vn 0.000000000 0.917662859 -0.397359848
v -0.086000003 0.121176913 0.130360901
vt 0.522183776 0.888140857
vn 0.000000000 0.917662859 -0.397359848
f 238/238/238 239/239/239 240/240/240
g receiver_cup_1
v -0.120999999 0.113382682 0.112360902
vt 0.652896285 0.874100506
vn -0.762456298 0.489116371 -0.423586458
v -0.136000007 0.090000004 0.112360902
vt 0.652921021 0.837977290
vn -0.762456298 0.489116371 -0.423586458
v -0.145999998 0.090000004 0.130360901
vt 0.678681135 0.837977588
vn -0.762456298 0.489116371 -0.423586458
f 241/241/241 242/242/242 243/243/243
g receiver_cup_1
v -0.120999999 0.113382682 0.112360902
vt 0.652896285 0.874100506
vn -0.762456357 0.489115953 -0.423587054
v -0.145999998 0.090000004 0.130360901
vt 0.678681135 0.837977588
vn -0.762456357 0.489115953 -0.423587054
v -0.126000002 0.121176913 0.130360901
vt 0.678648233 0.886141896
vn -0.762456357 0.489115953 -0.423587054
f 244/244/244 245/245/245 246/246/246
g receiver_cup_1
v -0.136000007 0.090000004 0.112360902
vt 0.652921021 0.837977290
vn -0.762456179 -0.489116132 -0.423587054
v -0.120999999 0.066617317 0.112360902
vt 0.652896285 0.801853120
vn -0.762456179 -0.489116132 -0.423587054
v -0.126000002 0.058823086 0.130360901
vt 0.678648233 0.789812028
vn -0.762456179 -0.489116132 -0.423587054
f 247/247/247 248/248/248 249/249/249
g receiver_cup_1
v -0.136000007 0.090000004 0.112360902
vt 0.652921021 0.837977290
vn -0.762456536 -0.489115953 -0.423586577
v -0.126000002 0.058823086 0.130360901
vt 0.678648233 0.789812028
vn -0.762456536 -0.489115953 -0.423586577
v -0.145999998 0.090000004 0.130360901
vt 0.678681135 0.837977588
vn -0.762456536 -0.489115953 -0.423586577
f 250/250/250 251/251/251 252/252/252
g receiver_cup_1
v -0.120999999 0.066617317 0.112360902
vt 0.623225927 0.898314297
vn -0.000000000 -0.917662859 -0.397359818
v -0.090999998 0.066617317 0.112360902
vt 0.623225927 0.944661021
vn -0.000000000 -0.917662859 -0.397359818
v -0.086000003 0.058823086 0.130360901
vt 0.597843051 0.952385485
vn -0.000000000 -0.917662859 -0.397359818
f 253/253/253 254/254/254 255/255/255
g receiver_cup_1
v -0.120999999 0.066617317 0.112360902
vt 0.623225927 0.898314297
vn 0.000000000 -0.917662859 -0.397359848
v -0.086000003 0.058823086 0.130360901
vt 0.597843051 0.952385485
vn 0.000000000 -0.917662859 -0.397359848
v -0.126000002 0.058823086 0.130360901
vt 0.597843051 0.890589833
vn 0.000000000 -0.917662859 -0.397359848
f 256/256/256 257/257/257 258/258/258
g receiver_cup_1
v -0.090999998 0.066617317 0.112360902
vt 0.570283473 0.867279172
vn 0.762456417 -0.489116013 -0.423586816
v -0.075999998 0.090000004 0.112360902
vt 0.570308208 0.831154943
vn 0.762456417 -0.489116013 -0.423586816
v -0.066000000 0.090000004 0.130360901
vt 0.596068382 0.831154585
vn 0.762456417 -0.489116013 -0.423586816
f 259/259/259 260/260/260 261/261/261
g receiver_cup_1
v -0.090999998 0.066617317 0.112360902
vt 0.570283473 0.867279172
vn 0.762456417 -0.489116043 -0.423586786
v -0.066000000 0.090000004 0.130360901
vt 0.596068382 0.831154585
vn 0.762456417 -0.489116043 -0.423586786
v -0.086000003 0.058823086 0.130360901
vt 0.596035480 0.879320204
vn 0.762456417 -0.489116043 -0.423586786
f 262/262/262 263/263/263 264/264/264
g receiver_cup_1
v -0.066000000 0.090000004 0.130360901
vt 0.596068382 0.831154585
vn 0.769565225 0.493676454 0.405034393
v -0.086000003 0.121176913 0.130360901
vt 0.596035421 0.782990336
vn 0.769565225 0.493676454 0.405034393
v -0.090999998 0.113382682 0.149360895
vt 0.623201132 0.795031726
vn 0.769565225 0.493676454 0.405034393
f 265/265/265 266/266/266 267/267/267
g receiver_cup_1
v -0.066000000 0.090000004 0.130360901
vt 0.596068382 0.831154585
vn 0.769565225 0.493676513 0.405034363
v -0.090999998 0.113382682 0.149360895
vt 0.623201132 0.795031726
vn 0.769565225 0.493676513 0.405034363
v -0.075999998 0.090000004 0.149360895
vt 0.623225868 0.831154943
vn 0.769565225 0.493676513 0.405034363
f 268/268/268 269/269/269 270/270/270
g receiver_cup_1
v -0.086000003 0.121176913 0.130360901
vt 0.522183776 0.888140857
vn -0.000000000 0.925179422 0.379529744
v -0.126000002 0.121176913 0.130360901
vt 0.522183776 0.949936509
vn -0.000000000 0.925179422 0.379529744
v -0.120999999 0.113382682 0.149360895
vt 0.495069653 0.942212105
vn -0.000000000 0.925179422 0.379529744
f 271/271/271 272/272/272 273/273/273
g receiver_cup_1
v -0.086000003 0.121176913 0.130360901
vt 0.522183776 0.888140857
vn 0.000000000 0.925179541 0.379529744
v -0.120999999 0.113382682 0.149360895
vt 0.495069653 0.942212105
vn 0.000000000 0.925179541 0.379529744
v -0.090999998 0.113382682 0.149360895
vt 0.495069653 0.895865321
vn 0.000000000 0.925179541 0.379529744
f 274/274/274 275/275/275 276/276/276
g receiver_cup_1
v -0.126000002 0.121176913 0.130360901
vt 0.678648233 0.886141896
vn -0.769565403 0.493676424 0.405034155
v -0.145999998 0.090000004 0.130360901
vt 0.678681135 0.837977588
vn -0.769565403 0.493676424 0.405034155
v -0.136000007 0.090000004 0.149360895
vt 0.705838680 0.837977290
vn -0.769565403 0.493676424 0.405034155
f 277/277/277 278/278/278 279/279/279
g receiver_cup_1
v -0.126000002 0.121176913 0.130360901
vt 0.678648233 0.886141896
vn -0.769565046 0.493676573 0.405034721
v -0.136000007 0.090000004 0.149360895
vt 0.705838680 0.837977290
vn -0.769565046 0.493676573 0.405034721
v -0.120999999 0.113382682 0.149360895
vt 0.705813944 0.874100506
vn -0.769565046 0.493676573 0.405034721
f 280/280/280 281/281/281 282/282/282
g receiver_cup_1
v -0.145999998 0.090000004 0.130360901
vt 0.678681135 0.837977588
vn -0.769565284 -0.493676215 0.405034572
v -0.126000002 0.058823086 0.130360901
vt 0.678648233 0.789812028
vn -0.769565284 -0.493676215 0.405034572
v -0.120999999 0.066617317 0.149360895
vt 0.705813885 0.801853120
vn -0.769565284 -0.493676215 0.405034572
f 283/283/283 284/284/284 285/285/285
g receiver_cup_1
v -0.145999998 0.090000004 0.130360901
vt 0.678681135 0.837977588
vn -0.769565344 -0.493676603 0.405034155
v -0.120999999 0.066617317 0.149360895
vt 0.705813885 0.801853120
vn -0.769565344 -0.493676603 0.405034155
v -0.136000007 0.090000004 0.149360895
vt 0.705838680 0.837977290
vn -0.769565344 -0.493676603 0.405034155
f 286/286/286 287/287/287 288/288/288
g receiver_cup_1
v -0.126000002 0.058823086 0.130360901
vt 0.597843051 0.890589833
vn 0.000000000 -0.925179422 0.379529744
v -0.086000003 0.058823086 0.130360901
vt 0.597843051 0.952385485
vn 0.000000000 -0.925179422 0.379529744
v -0.090999998 0.066617317 0.149360895
vt 0.570334077 0.944661021
vn 0.000000000 -0.925179422 0.379529744
f 289/289/289 290/290/290 291/291/291
g receiver_cup_1
v -0.126000002 0.058823086 0.130360901
vt 0.597843051 0.890589833
vn 0.000000000 -0.925179541 0.379529744
v -0.090999998 0.066617317 0.149360895
vt 0.570334077 0.944661021
vn 0.000000000 -0.925179541 0.379529744
v -0.120999999 0.066617317 0.149360895
vt 0.570334077 0.898314238
vn 0.000000000 -0.925179541 0.379529744
f 292/292/292 293/293/293 294/294/294
g receiver_cup_1
v -0.086000003 0.058823086 0.130360901
vt 0.596035480 0.879320204
vn 0.769565284 -0.493676364 0.405034393
v -0.066000000 0.090000004 0.130360901
vt 0.596068382 0.831154585
vn 0.769565284 -0.493676364 0.405034393
v -0.075999998 0.090000004 0.149360895
vt 0.623225868 0.831154943
vn 0.769565284 -0.493676364 0.405034393
f 295/295/295 296/296/296 297/297/297
g receiver_cup_1
v -0.086000003 0.058823086 0.130360901
vt 0.596035480 0.879320204
vn 0.769565344 -0.493676424 0.405034363
v -0.075999998 0.090000004 0.149360895
vt 0.623225868 0.831154943
vn 0.769565344 -0.493676424 0.405034363
v -0.090999998 0.066617317 0.149360895
vt 0.623201132 0.867279172
vn 0.769565344 -0.493676424 0.405034363
f 298/298/298 299/299/299 300/300/300
g nearly_straight_receiver_grip
v -0.086999997 -0.079000004 0.086999997
vt 0.696117759 0.939415216
vn -0.000000000 0.760833859 0.648946643
v -0.096500002 -0.068321921 0.074480869
vt 0.674507022 0.945828557
vn -0.000000000 0.760833859 0.648946643
v -0.115499996 -0.068321921 0.074480869
vt 0.652896285 0.928033352
vn -0.000000000 0.760833859 0.648946643
f 301/301/301 302/302/302 303/303/303
g nearly_straight_receiver_grip
v -0.115499996 -0.068321921 0.074480869
vt 0.652896285 0.928033352
vn 0.000000000 0.760833859 0.648946643
v -0.125000000 -0.079000004 0.086999997
vt 0.652896285 0.903824747
vn 0.000000000 0.760833859 0.648946643
v -0.115499996 -0.089678086 0.099519126
vt 0.674507022 0.897411406
vn 0.000000000 0.760833859 0.648946643
f 304/304/304 305/305/305 306/306/306
g nearly_straight_receiver_grip
v -0.115499996 -0.089678086 0.099519126
vt 0.674507022 0.897411406
vn 0.000000000 0.760833859 0.648946643
v -0.096500002 -0.089678086 0.099519126
vt 0.696117759 0.915206671
vn 0.000000000 0.760833859 0.648946643
v -0.086999997 -0.079000004 0.086999997
vt 0.696117759 0.939415216
vn 0.000000000 0.760833859 0.648946643
f 307/307/307 308/308/308 309/309/309
g nearly_straight_receiver_grip
v -0.115499996 -0.068321921 0.074480869
vt 0.652896285 0.928033352
vn 0.000000000 0.760833859 0.648946643
v -0.115499996 -0.089678086 0.099519126
vt 0.674507022 0.897411406
vn 0.000000000 0.760833859 0.648946643
v -0.086999997 -0.079000004 0.086999997
vt 0.696117759 0.939415216
vn 0.000000000 0.760833859 0.648946643
f 310/310/310 311/311/311 312/312/312
g nearly_straight_receiver_grip
v -0.096500002 0.085479610 0.105178624
vt 0.432918221 0.948044658
vn 0.000000000 -0.961523950 0.274721175
v -0.086999997 0.090000004 0.120999999
vt 0.409569770 0.934374630
vn 0.000000000 -0.961523950 0.274721175
v -0.096500002 0.094520397 0.136821374
vt 0.409569740 0.905687511
vn 0.000000000 -0.961523950 0.274721175
f 313/313/313 314/314/314 315/315/315
g nearly_straight_receiver_grip
v -0.096500002 0.094520397 0.136821374
vt 0.409569740 0.905687511
vn 0.000000000 -0.961523950 0.274721205
v -0.115499996 0.094520397 0.136821374
vt 0.432918191 0.890670359
vn 0.000000000 -0.961523950 0.274721205
v -0.125000000 0.090000004 0.120999999
vt 0.456266612 0.904340446
vn 0.000000000 -0.961523950 0.274721205
f 316/316/316 317/317/317 318/318/318
g nearly_straight_receiver_grip
v -0.125000000 0.090000004 0.120999999
vt 0.456266612 0.904340446
vn 0.000000000 -0.961523950 0.274721205
v -0.115499996 0.085479610 0.105178624
vt 0.456266612 0.933027506
vn 0.000000000 -0.961523950 0.274721205
v -0.096500002 0.085479610 0.105178624
vt 0.432918221 0.948044658
vn 0.000000000 -0.961523950 0.274721205
f 319/319/319 320/320/320 321/321/321
g nearly_straight_receiver_grip
v -0.096500002 0.094520397 0.136821374
vt 0.409569740 0.905687511
vn 0.000000000 -0.961523950 0.274721175
v -0.125000000 0.090000004 0.120999999
vt 0.456266612 0.904340446
vn 0.000000000 -0.961523950 0.274721175
v -0.096500002 0.085479610 0.105178624
vt 0.432918221 0.948044658
vn 0.000000000 -0.961523950 0.274721175
f 322/322/322 323/323/323 324/324/324
g nearly_straight_receiver_grip
v -0.086999997 -0.079000004 0.086999997
vt 0.378604203 0.867012620
vn -0.865962327 0.315270692 -0.388218611
v -0.096500002 -0.089678086 0.099519126
vt 0.358041108 0.879400730
vn -0.865962327 0.315270692 -0.388218611
v -0.096500002 -0.050133314 0.131633267
vt 0.324069738 0.809779286
vn -0.865962327 0.315270692 -0.388218611
f 325/325/325 326/326/326 327/327/327
g nearly_straight_receiver_grip
v -0.086999997 -0.079000004 0.086999997
vt 0.378604203 0.867012620
vn -0.848398149 0.343525469 -0.402754039
v -0.096500002 -0.050133314 0.131633267
vt 0.324069738 0.809779286
vn -0.848398149 0.343525469 -0.402754039
v -0.086999997 -0.045000002 0.115999997
vt 0.347448379 0.806733072
vn -0.848398149 0.343525469 -0.402754039
f 328/328/328 329/329/329 330/330/330
g nearly_straight_receiver_grip
v -0.096500002 -0.089678086 0.099519126
vt 0.522243679 0.876871288
vn 0.000000000 0.630403578 -0.776267529
v -0.115499996 -0.089678086 0.099519126
vt 0.495069683 0.876871288
vn 0.000000000 0.630403578 -0.776267529
v -0.115499996 -0.050133314 0.131633267
vt 0.495069683 0.812563598
vn 0.000000000 0.630403578 -0.776267529
f 331/331/331 332/332/332 333/333/333
g nearly_straight_receiver_grip
v -0.096500002 -0.089678086 0.099519126
vt 0.522243679 0.876871288
vn 0.000000000 0.630403578 -0.776267529
v -0.115499996 -0.050133314 0.131633267
vt 0.495069683 0.812563598
vn 0.000000000 0.630403578 -0.776267529
v -0.096500002 -0.050133314 0.131633267
vt 0.522243679 0.812563598
vn 0.000000000 0.630403578 -0.776267529
f 334/334/334 335/335/335 336/336/336
g nearly_straight_receiver_grip
v -0.115499996 -0.089678086 0.099519126
vt 0.450665325 0.879400790
vn 0.866025329 0.324473381 -0.380417109
v -0.125000000 -0.079000004 0.086999997
vt 0.430102259 0.867012620
vn 0.866025329 0.324473381 -0.380417109
v -0.125000000 -0.045000002 0.115999997
vt 0.461258084 0.806733191
vn 0.866025329 0.324473381 -0.380417109
f 337/337/337 338/338/338 339/339/339
g nearly_straight_receiver_grip
v -0.115499996 -0.089678086 0.099519126
vt 0.450665325 0.879400790
vn 0.850655854 0.331417650 -0.408101678
v -0.125000000 -0.045000002 0.115999997
vt 0.461258084 0.806733191
vn 0.850655854 0.331417650 -0.408101678
v -0.115499996 -0.050133314 0.131633267
vt 0.484636724 0.809779286
vn 0.850655854 0.331417650 -0.408101678
f 340/340/340 341/341/341 342/342/342
g nearly_straight_receiver_grip
v -0.125000000 -0.079000004 0.086999997
vt 0.430102259 0.867012620
vn 0.865914762 -0.336589634 0.369998783
v -0.115499996 -0.068321921 0.074480869
vt 0.409569710 0.854617178
vn 0.865914762 -0.336589634 0.369998783
v -0.115499996 -0.039866690 0.100366727
vt 0.437910020 0.803679764
vn 0.865914762 -0.336589634 0.369998783
f 343/343/343 344/344/344 345/345/345
g nearly_straight_receiver_grip
v -0.125000000 -0.079000004 0.086999997
vt 0.430102259 0.867012620
vn 0.848398149 -0.343525469 0.402754039
v -0.115499996 -0.039866690 0.100366727
vt 0.437910020 0.803679764
vn 0.848398149 -0.343525469 0.402754039
v -0.125000000 -0.045000002 0.115999997
vt 0.461258084 0.806733191
vn 0.848398149 -0.343525469 0.402754039
f 346/346/346 347/347/347 348/348/348
g nearly_straight_receiver_grip
v -0.115499996 -0.068321921 0.074480869
vt 0.559850514 0.830256045
vn 0.000000000 -0.672921360 0.739714086
v -0.096500002 -0.068321921 0.074480869
vt 0.532676637 0.830256045
vn 0.000000000 -0.672921360 0.739714086
v -0.096500002 -0.039866690 0.100366727
vt 0.532676637 0.782457650
vn 0.000000000 -0.672921360 0.739714086
f 349/349/349 350/350/350 351/351/351
g nearly_straight_receiver_grip
v -0.115499996 -0.068321921 0.074480869
vt 0.559850514 0.830256045
vn 0.000000000 -0.672921360 0.739714086
v -0.096500002 -0.039866690 0.100366727
vt 0.532676637 0.782457650
vn 0.000000000 -0.672921360 0.739714086
v -0.115499996 -0.039866690 0.100366727
vt 0.559850514 0.782457650
vn 0.000000000 -0.672921360 0.739714086
f 352/352/352 353/353/353 354/354/354
g nearly_straight_receiver_grip
v -0.096500002 -0.068321921 0.074480869
vt 0.399136752 0.854617178
vn -0.866025329 -0.324473381 0.380417109
v -0.086999997 -0.079000004 0.086999997
vt 0.378604203 0.867012620
vn -0.866025329 -0.324473381 0.380417109
v -0.086999997 -0.045000002 0.115999997
vt 0.347448379 0.806733072
vn -0.866025329 -0.324473381 0.380417109
f 355/355/355 356/356/356 357/357/357
g nearly_straight_receiver_grip
v -0.096500002 -0.068321921 0.074480869
vt 0.399136752 0.854617178
vn -0.845116317 -0.359732002 0.395438194
v -0.086999997 -0.045000002 0.115999997
vt 0.347448379 0.806733072
vn -0.845116317 -0.359732002 0.395438194
v -0.096500002 -0.039866690 0.100366727
vt 0.370796412 0.803679764
vn -0.845116317 -0.359732002 0.395438194
f 358/358/358 359/359/359 360/360/360
g nearly_straight_receiver_grip
v -0.086999997 -0.045000002 0.115999997
vt 0.347448379 0.806733072
vn -0.862959981 0.075565979 -0.499589652
v -0.096500002 -0.050133314 0.131633267
vt 0.324069738 0.809779286
vn -0.862959981 0.075565979 -0.499589652
v -0.096500002 0.054390993 0.147443205
vt 0.331155956 0.646643341
vn -0.862959981 0.075565979 -0.499589652
f 361/361/361 362/362/362 363/363/363
g nearly_straight_receiver_grip
v -0.086999997 -0.045000002 0.115999997
vt 0.347448379 0.806733072
vn -0.864662349 0.074519344 -0.496795565
v -0.096500002 0.054390993 0.147443205
vt 0.331155956 0.646643341
vn -0.864662349 0.074519344 -0.496795565
v -0.086999997 0.055000000 0.130999997
vt 0.354404032 0.650696456
vn -0.864662349 0.074519344 -0.496795565
f 364/364/364 365/365/365 366/366/366
g nearly_straight_receiver_grip
v -0.096500002 -0.050133314 0.131633267
vt 0.522243679 0.812563598
vn 0.000000000 0.149554998 -0.988753498
v -0.115499996 -0.050133314 0.131633267
vt 0.495069683 0.812563598
vn 0.000000000 0.149554998 -0.988753498
v -0.115499996 0.054390993 0.147443205
vt 0.495069683 0.649802804
vn 0.000000000 0.149554998 -0.988753498
f 367/367/367 368/368/368 369/369/369
g nearly_straight_receiver_grip
v -0.096500002 -0.050133314 0.131633267
vt 0.522243679 0.812563598
vn 0.000000000 0.149554998 -0.988753498
v -0.115499996 0.054390993 0.147443205
vt 0.495069683 0.649802804
vn 0.000000000 0.149554998 -0.988753498
v -0.096500002 0.054390993 0.147443205
vt 0.522243679 0.649802804
vn 0.000000000 0.149554998 -0.988753498
f 370/370/370 371/371/371 372/372/372
g nearly_straight_receiver_grip
v -0.115499996 -0.050133314 0.131633267
vt 0.484636724 0.809779286
vn 0.862914145 0.074963927 -0.499759495
v -0.125000000 -0.045000002 0.115999997
vt 0.461258084 0.806733191
vn 0.862914145 0.074963927 -0.499759495
v -0.125000000 0.055000000 0.130999997
vt 0.454302430 0.650696516
vn 0.862914145 0.074963927 -0.499759495
f 373/373/373 374/374/374 375/375/375
g nearly_straight_receiver_grip
v -0.115499996 -0.050133314 0.131633267
vt 0.484636724 0.809779286
vn 0.864632070 0.075137258 -0.496755183
v -0.125000000 0.055000000 0.130999997
vt 0.454302430 0.650696516
vn 0.864632070 0.075137258 -0.496755183
v -0.115499996 0.054390993 0.147443205
vt 0.477550507 0.646643341
vn 0.864632070 0.075137258 -0.496755183
f 376/376/376 377/377/377 378/378/378
g nearly_straight_receiver_grip
v -0.125000000 -0.045000002 0.115999997
vt 0.461258084 0.806733191
vn 0.862863541 -0.074304305 0.499945313
v -0.115499996 -0.039866690 0.100366727
vt 0.437910020 0.803679764
vn 0.862863541 -0.074304305 0.499945313
v -0.115499996 0.055609006 0.114556789
vt 0.431084931 0.654742360
vn 0.862863541 -0.074304305 0.499945313
f 379/379/379 380/380/380 381/381/381
g nearly_straight_receiver_grip
v -0.125000000 -0.045000002 0.115999997
vt 0.461258084 0.806733191
vn 0.864662290 -0.074519344 0.496795595
v -0.115499996 0.055609006 0.114556789
vt 0.431084931 0.654742360
vn 0.864662290 -0.074519344 0.496795595
v -0.125000000 0.055000000 0.130999997
vt 0.454302430 0.650696516
vn 0.864662290 -0.074519344 0.496795595
f 382/382/382 383/383/383 384/384/384
g nearly_straight_receiver_grip
v -0.115499996 -0.039866690 0.100366727
vt 0.559850514 0.782457650
vn 0.000000000 -0.147010058 0.989135027
v -0.096500002 -0.039866690 0.100366727
vt 0.532676637 0.782457650
vn 0.000000000 -0.147010058 0.989135027
v -0.096500002 0.055609006 0.114556789
vt 0.532676637 0.633493602
vn 0.000000000 -0.147010058 0.989135027
f 385/385/385 386/386/386 387/387/387
g nearly_straight_receiver_grip
v -0.115499996 -0.039866690 0.100366727
vt 0.559850514 0.782457650
vn 0.000000000 -0.147010058 0.989135027
v -0.096500002 0.055609006 0.114556789
vt 0.532676637 0.633493602
vn 0.000000000 -0.147010058 0.989135027
v -0.115499996 0.055609006 0.114556789
vt 0.559850514 0.633493602
vn 0.000000000 -0.147010058 0.989135027
f 388/388/388 389/389/389 390/390/390
g nearly_straight_receiver_grip
v -0.096500002 -0.039866690 0.100366727
vt 0.370796412 0.803679764
vn -0.862914145 -0.074963927 0.499759495
v -0.086999997 -0.045000002 0.115999997
vt 0.347448379 0.806733072
vn -0.862914145 -0.074963927 0.499759495
v -0.086999997 0.055000000 0.130999997
vt 0.354404032 0.650696456
vn -0.862914145 -0.074963927 0.499759495
f 391/391/391 392/392/392 393/393/393
g nearly_straight_receiver_grip
v -0.096500002 -0.039866690 0.100366727
vt 0.370796412 0.803679764
vn -0.864695132 -0.073842719 0.496839553
v -0.086999997 0.055000000 0.130999997
vt 0.354404032 0.650696456
vn -0.864695132 -0.073842719 0.496839553
v -0.096500002 0.055609006 0.114556789
vt 0.377621561 0.654742360
vn -0.864695132 -0.073842719 0.496839553
f 394/394/394 395/395/395 396/396/396
g nearly_straight_receiver_grip
v -0.086999997 0.055000000 0.130999997
vt 0.354404032 0.650696456
vn -0.856145561 -0.132220894 -0.499532104
v -0.096500002 0.054390993 0.147443205
vt 0.331155956 0.646643341
vn -0.856145561 -0.132220894 -0.499532104
v -0.096500002 0.094520397 0.136821374
vt 0.357287318 0.589058816
vn -0.856145561 -0.132220894 -0.499532104
f 397/397/397 398/398/398 399/399/399
g nearly_straight_receiver_grip
v -0.086999997 0.055000000 0.130999997
vt 0.354404032 0.650696456
vn -0.866025269 -0.137360603 -0.480762243
v -0.096500002 0.094520397 0.136821374
vt 0.357287318 0.589058816
vn -0.866025269 -0.137360603 -0.480762243
v -0.086999997 0.090000004 0.120999999
vt 0.378227323 0.600695014
vn -0.866025269 -0.137360603 -0.480762243
f 400/400/400 401/401/401 402/402/402
g nearly_straight_receiver_grip
v -0.096500002 0.054390993 0.147443205
vt 0.522243679 0.649802804
vn 0.000000000 -0.255877733 -0.966709137
v -0.115499996 0.054390993 0.147443205
vt 0.495069683 0.649802804
vn 0.000000000 -0.255877733 -0.966709137
v -0.115499996 0.094520397 0.136821374
vt 0.495069683 0.589058936
vn 0.000000000 -0.255877733 -0.966709137
f 403/403/403 404/404/404 405/405/405
g nearly_straight_receiver_grip
v -0.096500002 0.054390993 0.147443205
vt 0.522243679 0.649802804
vn -0.000000000 -0.255877733 -0.966709137
v -0.115499996 0.094520397 0.136821374
vt 0.495069683 0.589058936
vn -0.000000000 -0.255877733 -0.966709137
v -0.096500002 0.094520397 0.136821374
vt 0.522243679 0.589058936
vn -0.000000000 -0.255877733 -0.966709137
f 406/406/406 407/407/407 408/408/408
g nearly_straight_receiver_grip
v -0.115499996 0.054390993 0.147443205
vt 0.477550507 0.646643341
vn 0.854731083 -0.142599761 -0.499099314
v -0.125000000 0.055000000 0.130999997
vt 0.454302430 0.650696516
vn 0.854731083 -0.142599761 -0.499099314
v -0.125000000 0.090000004 0.120999999
vt 0.430479169 0.600695014
vn 0.854731083 -0.142599761 -0.499099314
f 409/409/409 410/410/410 411/411/411
g nearly_straight_receiver_grip
v -0.115499996 0.054390993 0.147443205
vt 0.477550507 0.646643341
vn 0.865983903 -0.127957240 -0.483424097
v -0.125000000 0.090000004 0.120999999
vt 0.430479169 0.600695014
vn 0.865983903 -0.127957240 -0.483424097
v -0.115499996 0.094520397 0.136821374
vt 0.451419175 0.589058816
vn 0.865983903 -0.127957240 -0.483424097
f 412/412/412 413/413/413 414/414/414
g nearly_straight_receiver_grip
v -0.125000000 0.055000000 0.130999997
vt 0.454302430 0.650696516
vn 0.852687597 0.156487882 0.498433083
v -0.115499996 0.055609006 0.114556789
vt 0.431084931 0.654742360
vn 0.852687597 0.156487882 0.498433083
v -0.115499996 0.085479610 0.105178624
vt 0.409569710 0.612323999
vn 0.852687597 0.156487882 0.498433083
f 415/415/415 416/416/416 417/417/417
g nearly_straight_receiver_grip
v -0.125000000 0.055000000 0.130999997
vt 0.454302430 0.650696516
vn 0.866025269 0.137360573 0.480762213
v -0.115499996 0.085479610 0.105178624
vt 0.409569710 0.612323999
vn 0.866025269 0.137360573 0.480762213
v -0.125000000 0.090000004 0.120999999
vt 0.430479169 0.600695014
vn 0.866025269 0.137360573 0.480762213
f 418/418/418 419/419/419 420/420/420
g nearly_straight_receiver_grip
v -0.115499996 0.055609006 0.114556789
vt 0.559850514 0.633493602
vn 0.000000000 0.299543500 0.954082668
v -0.096500002 0.055609006 0.114556789
vt 0.532676637 0.633493602
vn 0.000000000 0.299543500 0.954082668
v -0.096500002 0.085479610 0.105178624
vt 0.532676637 0.589058936
vn 0.000000000 0.299543500 0.954082668
f 421/421/421 422/422/422 423/423/423
g nearly_straight_receiver_grip
v -0.115499996 0.055609006 0.114556789
vt 0.559850514 0.633493602
vn -0.000000000 0.299543500 0.954082668
v -0.096500002 0.085479610 0.105178624
vt 0.532676637 0.589058936
vn -0.000000000 0.299543500 0.954082668
v -0.115499996 0.085479610 0.105178624
vt 0.559850514 0.589058936
vn -0.000000000 0.299543500 0.954082668
f 424/424/424 425/425/425 426/426/426
g nearly_straight_receiver_grip
v -0.096500002 0.055609006 0.114556789
vt 0.377621561 0.654742360
vn -0.854731083 0.142599761 0.499099314
v -0.086999997 0.055000000 0.130999997
vt 0.354404032 0.650696456
vn -0.854731083 0.142599761 0.499099314
v -0.086999997 0.090000004 0.120999999
vt 0.378227323 0.600695014
vn -0.854731083 0.142599761 0.499099314
f 427/427/427 428/428/428 429/429/429
g nearly_straight_receiver_grip
v -0.096500002 0.055609006 0.114556789
vt 0.377621561 0.654742360
vn -0.865952551 0.149809554 0.477161735
v -0.086999997 0.090000004 0.120999999
vt 0.378227323 0.600695014
vn -0.865952551 0.149809554 0.477161735
v -0.096500002 0.085479610 0.105178624
vt 0.399136752 0.612323940
vn -0.865952551 0.149809554 0.477161735
f 430/430/430 431/431/431 432/432/432
