# G009-r3: solid simple pot; native PNG foliage, no leaf/stem geometry.
mtllib pz_plant_native_2.mtl
usemtl UV_Base
o pot_soil_and_rim
v 0.127500091 0.000000000 0.010000000
vn 0.000000000 0.000000000 -1.000000000
v 0.090156169 -0.090156169 0.010000000
vn 0.000000000 0.000000000 -1.000000000
v 0.000000000 -0.127500091 0.010000000
vn 0.000000000 0.000000000 -1.000000000
vt 0.463151042 0.848763021
vt 0.434224015 0.918599015
vt 0.364388021 0.947526042
vt 0.364388021 0.947526042
vt 0.294552026 0.918599015
vt 0.265625000 0.848763021
vt 0.265625000 0.848763021
vt 0.294552026 0.778927026
vt 0.364388021 0.750000000
vt 0.364388021 0.750000000
vt 0.434224015 0.778927026
vt 0.463151042 0.848763021
vt 0.463151042 0.848763021
vt 0.364388021 0.947526042
vt 0.265625000 0.848763021
vt 0.265625000 0.848763021
vt 0.364388021 0.750000000
vt 0.463151042 0.848763021
vt 0.620967946 0.774105839
vt 0.645073785 0.832302517
vt 0.620967946 0.890499196
vt 0.620967946 0.890499196
vt 0.562771267 0.914605035
vt 0.504574589 0.890499196
vt 0.504574589 0.890499196
vt 0.480468750 0.832302517
vt 0.504574589 0.774105839
vt 0.504574589 0.774105839
vt 0.562771267 0.750000000
vt 0.620967946 0.774105839
vt 0.620967946 0.774105839
vt 0.620967946 0.890499196
vt 0.504574589 0.890499196
vt 0.504574589 0.890499196
vt 0.504574589 0.774105839
vt 0.620967946 0.774105839
vt 0.007812500 0.396386402
vt 0.007812500 0.320796462
vt 0.326277910 0.312500000
vt 0.007812500 0.396386402
vt 0.326277910 0.312500000
vt 0.326277910 0.404682860
vt 0.343750000 0.396386398
vt 0.343750000 0.320796458
vt 0.662215410 0.312500000
vt 0.343750000 0.396386398
vt 0.662215410 0.312500000
vt 0.662215410 0.404682860
vt 0.007812500 0.505761402
vt 0.007812500 0.430171462
vt 0.326277910 0.421875000
vt 0.007812500 0.505761402
vt 0.326277910 0.421875000
vt 0.326277910 0.514057860
vt 0.343750000 0.505761398
vt 0.343750000 0.430171458
vt 0.662215410 0.421875000
vt 0.343750000 0.505761398
vt 0.662215410 0.421875000
vt 0.662215410 0.514057860
vt 0.007812500 0.615136402
vt 0.007812500 0.539546462
vt 0.326277910 0.531250000
vt 0.007812500 0.615136402
vt 0.326277910 0.531250000
vt 0.326277910 0.623432860
vt 0.343750000 0.615136398
vt 0.343750000 0.539546458
vt 0.662215410 0.531250000
vt 0.343750000 0.615136398
vt 0.662215410 0.531250000
vt 0.662215410 0.623432860
vt 0.007812500 0.724511402
vt 0.007812500 0.648921462
vt 0.326277910 0.640625000
vt 0.007812500 0.724511402
vt 0.326277910 0.640625000
vt 0.326277910 0.732807860
vt 0.343750000 0.724511398
vt 0.343750000 0.648921458
vt 0.662215410 0.640625000
vt 0.343750000 0.724511398
vt 0.662215410 0.640625000
vt 0.662215410 0.732807860
vt 0.248697917 0.870442708
vt 0.213421067 0.955608567
vt 0.199226760 0.941414260
vt 0.248697917 0.870442708
vt 0.199226760 0.941414260
vt 0.228624132 0.870442708
vt 0.213421067 0.955608567
vt 0.128255208 0.990885417
vt 0.128255208 0.970811632
vt 0.213421067 0.955608567
vt 0.128255208 0.970811632
vt 0.199226760 0.941414260
vt 0.128255208 0.990885417
vt 0.043089350 0.955608567
vt 0.057283657 0.941414260
vt 0.128255208 0.990885417
vt 0.057283657 0.941414260
vt 0.128255208 0.970811632
vt 0.043089350 0.955608567
vt 0.007812500 0.870442708
vt 0.027886285 0.870442708
vt 0.043089350 0.955608567
vt 0.027886285 0.870442708
vt 0.057283657 0.941414260
vt 0.007812500 0.870442708
vt 0.043089350 0.785276850
vt 0.057283657 0.799471157
vt 0.007812500 0.870442708
vt 0.057283657 0.799471157
vt 0.027886285 0.870442708
vt 0.043089350 0.785276850
vt 0.128255208 0.750000000
vt 0.128255208 0.770073785
vt 0.043089350 0.785276850
vt 0.128255208 0.770073785
vt 0.057283657 0.799471157
vt 0.128255208 0.750000000
vt 0.213421067 0.785276850
vt 0.199226760 0.799471157
vt 0.128255208 0.750000000
vt 0.199226760 0.799471157
vt 0.128255208 0.770073785
vt 0.213421067 0.785276850
vt 0.248697917 0.870442708
vt 0.228624132 0.870442708
vt 0.213421067 0.785276850
vt 0.228624132 0.870442708
vt 0.199226760 0.799471157
vt 0.738281250 0.312500000
vt 0.726622940 0.388429246
vt 0.683165543 0.374761987
vt 0.738281250 0.312500000
vt 0.683165543 0.374761987
vt 0.692725354 0.312500001
vt 0.769042603 0.388429246
vt 0.757384293 0.312500000
vt 0.802940189 0.312500002
vt 0.769042603 0.388429246
vt 0.802940189 0.312500002
vt 0.812500000 0.374761988
vt 0.831603043 0.388429246
vt 0.843261353 0.312500000
vt 0.886718750 0.326167259
vt 0.831603043 0.388429246
vt 0.886718750 0.326167259
vt 0.877158938 0.388429245
vt 0.917480103 0.388429246
vt 0.905821793 0.312500000
vt 0.951377689 0.312500002
vt 0.917480103 0.388429246
vt 0.951377689 0.312500002
vt 0.960937500 0.374761988
vt 0.683165543 0.497804246
vt 0.694823853 0.421875000
vt 0.738281250 0.435542259
vt 0.683165543 0.497804246
vt 0.738281250 0.435542259
vt 0.728721438 0.497804245
vt 0.800841691 0.421875000
vt 0.812500000 0.497804246
vt 0.766944104 0.497804245
vt 0.800841691 0.421875000
vt 0.766944104 0.497804245
vt 0.757384293 0.435542259
vt 0.886718750 0.421875000
vt 0.875060440 0.497804246
vt 0.831603043 0.484136987
vt 0.886718750 0.421875000
vt 0.831603043 0.484136987
vt 0.841162854 0.421875001
vt 0.949279191 0.421875000
vt 0.960937500 0.497804246
vt 0.915381604 0.497804245
vt 0.949279191 0.421875000
vt 0.915381604 0.497804245
vt 0.905821793 0.435542259
vt 0.007812500 0.007812500
vt 0.369140625 0.007812500
vt 0.369140625 0.296874983
vt 0.007812500 0.007812500
vt 0.369140625 0.296874983
vt 0.007812500 0.296874983
vt 0.386718750 0.007812500
vt 0.748046875 0.007812500
vt 0.748046875 0.296874983
vt 0.386718750 0.007812500
vt 0.748046875 0.296874983
vt 0.386718750 0.296874983
f 1/1/1 2/2/2 3/3/3
v 0.000000000 -0.127500091 0.010000000
vn 0.000000000 0.000000000 -1.000000000
v -0.090156169 -0.090156169 0.010000000
vn 0.000000000 0.000000000 -1.000000000
v -0.127500091 0.000000000 0.010000000
vn 0.000000000 0.000000000 -1.000000000
f 4/4/4 5/5/5 6/6/6
v -0.127500091 0.000000000 0.010000000
vn 0.000000000 0.000000000 -1.000000000
v -0.090156169 0.090156169 0.010000000
vn 0.000000000 0.000000000 -1.000000000
v 0.000000000 0.127500091 0.010000000
vn 0.000000000 0.000000000 -1.000000000
f 7/7/7 8/8/8 9/9/9
v 0.000000000 0.127500091 0.010000000
vn 0.000000000 0.000000000 -1.000000000
v 0.090156169 0.090156169 0.010000000
vn 0.000000000 0.000000000 -1.000000000
v 0.127500091 0.000000000 0.010000000
vn 0.000000000 0.000000000 -1.000000000
f 10/10/10 11/11/11 12/12/12
v 0.127500091 0.000000000 0.010000000
vn 0.000000000 0.000000000 -1.000000000
v 0.000000000 -0.127500091 0.010000000
vn 0.000000000 0.000000000 -1.000000000
v -0.127500091 0.000000000 0.010000000
vn 0.000000000 0.000000000 -1.000000000
f 13/13/13 14/14/14 15/15/15
v -0.127500091 0.000000000 0.010000000
vn -0.000000000 0.000000000 -1.000000000
v 0.000000000 0.127500091 0.010000000
vn -0.000000000 0.000000000 -1.000000000
v 0.127500091 0.000000000 0.010000000
vn -0.000000000 0.000000000 -1.000000000
f 16/16/16 17/17/17 18/18/18
v 0.075130163 -0.075130163 0.211964912
vn 0.000000000 0.000000000 1.000000000
v 0.106250076 0.000000000 0.211964912
vn 0.000000000 0.000000000 1.000000000
v 0.075130163 0.075130163 0.211964912
vn 0.000000000 0.000000000 1.000000000
f 19/19/19 20/20/20 21/21/21
v 0.075130163 0.075130163 0.211964912
vn -0.000000000 0.000000000 1.000000000
v 0.000000000 0.106250076 0.211964912
vn -0.000000000 0.000000000 1.000000000
v -0.075130163 0.075130163 0.211964912
vn -0.000000000 0.000000000 1.000000000
f 22/22/22 23/23/23 24/24/24
v -0.075130163 0.075130163 0.211964912
vn 0.000000000 -0.000000000 1.000000000
v -0.106250076 0.000000000 0.211964912
vn 0.000000000 -0.000000000 1.000000000
v -0.075130163 -0.075130163 0.211964912
vn 0.000000000 -0.000000000 1.000000000
f 25/25/25 26/26/26 27/27/27
v -0.075130163 -0.075130163 0.211964912
vn 0.000000000 0.000000000 1.000000000
v 0.000000000 -0.106250076 0.211964912
vn 0.000000000 0.000000000 1.000000000
v 0.075130163 -0.075130163 0.211964912
vn 0.000000000 0.000000000 1.000000000
f 28/28/28 29/29/29 30/30/30
v 0.075130163 -0.075130163 0.211964912
vn -0.000000000 0.000000000 1.000000000
v 0.075130163 0.075130163 0.211964912
vn -0.000000000 0.000000000 1.000000000
v -0.075130163 0.075130163 0.211964912
vn -0.000000000 0.000000000 1.000000000
f 31/31/31 32/32/32 33/33/33
v -0.075130163 0.075130163 0.211964912
vn 0.000000000 -0.000000000 1.000000000
v -0.075130163 -0.075130163 0.211964912
vn 0.000000000 -0.000000000 1.000000000
v 0.075130163 -0.075130163 0.211964912
vn 0.000000000 -0.000000000 1.000000000
f 34/34/34 35/35/35 36/36/36
v 0.127500091 0.000000000 0.010000000
vn 0.918221589 0.380339812 -0.110502221
v 0.090156169 0.090156169 0.010000000
vn 0.918221589 0.380339812 -0.110502221
v 0.109946563 0.109946563 0.242565656
vn 0.918221589 0.380339812 -0.110502221
f 37/37/37 38/38/38 39/39/39
v 0.127500091 0.000000000 0.010000000
vn 0.918221589 0.380339812 -0.110502221
v 0.109946563 0.109946563 0.242565656
vn 0.918221589 0.380339812 -0.110502221
v 0.155487916 0.000000000 0.242565656
vn 0.918221589 0.380339812 -0.110502221
f 40/40/40 41/41/41 42/42/42
v 0.090156169 0.090156169 0.010000000
vn 0.380339811 0.918221587 -0.110502238
v 0.000000000 0.127500091 0.010000000
vn 0.380339811 0.918221587 -0.110502238
v 0.000000000 0.155487916 0.242565656
vn 0.380339811 0.918221587 -0.110502238
f 43/43/43 44/44/44 45/45/45
v 0.090156169 0.090156169 0.010000000
vn 0.380339812 0.918221589 -0.110502221
v 0.000000000 0.155487916 0.242565656
vn 0.380339812 0.918221589 -0.110502221
v 0.109946563 0.109946563 0.242565656
vn 0.380339812 0.918221589 -0.110502221
f 46/46/46 47/47/47 48/48/48
v 0.000000000 0.127500091 0.010000000
vn -0.380339812 0.918221589 -0.110502221
v -0.090156169 0.090156169 0.010000000
vn -0.380339812 0.918221589 -0.110502221
v -0.109946563 0.109946563 0.242565656
vn -0.380339812 0.918221589 -0.110502221
f 49/49/49 50/50/50 51/51/51
v 0.000000000 0.127500091 0.010000000
vn -0.380339812 0.918221589 -0.110502221
v -0.109946563 0.109946563 0.242565656
vn -0.380339812 0.918221589 -0.110502221
v 0.000000000 0.155487916 0.242565656
vn -0.380339812 0.918221589 -0.110502221
f 52/52/52 53/53/53 54/54/54
v -0.090156169 0.090156169 0.010000000
vn -0.918221587 0.380339811 -0.110502238
v -0.127500091 0.000000000 0.010000000
vn -0.918221587 0.380339811 -0.110502238
v -0.155487916 0.000000000 0.242565656
vn -0.918221587 0.380339811 -0.110502238
f 55/55/55 56/56/56 57/57/57
v -0.090156169 0.090156169 0.010000000
vn -0.918221589 0.380339812 -0.110502221
v -0.155487916 0.000000000 0.242565656
vn -0.918221589 0.380339812 -0.110502221
v -0.109946563 0.109946563 0.242565656
vn -0.918221589 0.380339812 -0.110502221
f 58/58/58 59/59/59 60/60/60
v -0.127500091 0.000000000 0.010000000
vn -0.918221589 -0.380339812 -0.110502221
v -0.090156169 -0.090156169 0.010000000
vn -0.918221589 -0.380339812 -0.110502221
v -0.109946563 -0.109946563 0.242565656
vn -0.918221589 -0.380339812 -0.110502221
f 61/61/61 62/62/62 63/63/63
v -0.127500091 0.000000000 0.010000000
vn -0.918221589 -0.380339812 -0.110502221
v -0.109946563 -0.109946563 0.242565656
vn -0.918221589 -0.380339812 -0.110502221
v -0.155487916 0.000000000 0.242565656
vn -0.918221589 -0.380339812 -0.110502221
f 64/64/64 65/65/65 66/66/66
v -0.090156169 -0.090156169 0.010000000
vn -0.380339811 -0.918221587 -0.110502238
v 0.000000000 -0.127500091 0.010000000
vn -0.380339811 -0.918221587 -0.110502238
v 0.000000000 -0.155487916 0.242565656
vn -0.380339811 -0.918221587 -0.110502238
f 67/67/67 68/68/68 69/69/69
v -0.090156169 -0.090156169 0.010000000
vn -0.380339812 -0.918221589 -0.110502221
v 0.000000000 -0.155487916 0.242565656
vn -0.380339812 -0.918221589 -0.110502221
v -0.109946563 -0.109946563 0.242565656
vn -0.380339812 -0.918221589 -0.110502221
f 70/70/70 71/71/71 72/72/72
v 0.000000000 -0.127500091 0.010000000
vn 0.380339812 -0.918221589 -0.110502221
v 0.090156169 -0.090156169 0.010000000
vn 0.380339812 -0.918221589 -0.110502221
v 0.109946563 -0.109946563 0.242565656
vn 0.380339812 -0.918221589 -0.110502221
f 73/73/73 74/74/74 75/75/75
v 0.000000000 -0.127500091 0.010000000
vn 0.380339812 -0.918221589 -0.110502221
v 0.109946563 -0.109946563 0.242565656
vn 0.380339812 -0.918221589 -0.110502221
v 0.000000000 -0.155487916 0.242565656
vn 0.380339812 -0.918221589 -0.110502221
f 76/76/76 77/77/77 78/78/78
v 0.090156169 -0.090156169 0.010000000
vn 0.918221587 -0.380339811 -0.110502238
v 0.127500091 0.000000000 0.010000000
vn 0.918221587 -0.380339811 -0.110502238
v 0.155487916 0.000000000 0.242565656
vn 0.918221587 -0.380339811 -0.110502238
f 79/79/79 80/80/80 81/81/81
v 0.090156169 -0.090156169 0.010000000
vn 0.918221589 -0.380339812 -0.110502221
v 0.155487916 0.000000000 0.242565656
vn 0.918221589 -0.380339812 -0.110502221
v 0.109946563 -0.109946563 0.242565656
vn 0.918221589 -0.380339812 -0.110502221
f 82/82/82 83/83/83 84/84/84
v 0.155487916 0.000000000 0.242565656
vn -0.000000000 0.000000000 1.000000000
v 0.109946563 0.109946563 0.242565656
vn -0.000000000 0.000000000 1.000000000
v 0.091622140 0.091622140 0.242565656
vn -0.000000000 0.000000000 1.000000000
f 85/85/85 86/86/86 87/87/87
v 0.155487916 0.000000000 0.242565656
vn -0.000000000 -0.000000000 1.000000000
v 0.091622140 0.091622140 0.242565656
vn -0.000000000 -0.000000000 1.000000000
v 0.129573263 0.000000000 0.242565656
vn -0.000000000 -0.000000000 1.000000000
f 88/88/88 89/89/89 90/90/90
v 0.109946563 0.109946563 0.242565656
vn -0.000000000 0.000000000 1.000000000
v 0.000000000 0.155487916 0.242565656
vn -0.000000000 0.000000000 1.000000000
v 0.000000000 0.129573263 0.242565656
vn -0.000000000 0.000000000 1.000000000
f 91/91/91 92/92/92 93/93/93
v 0.109946563 0.109946563 0.242565656
vn -0.000000000 -0.000000000 1.000000000
v 0.000000000 0.129573263 0.242565656
vn -0.000000000 -0.000000000 1.000000000
v 0.091622140 0.091622140 0.242565656
vn -0.000000000 -0.000000000 1.000000000
f 94/94/94 95/95/95 96/96/96
v 0.000000000 0.155487916 0.242565656
vn 0.000000000 -0.000000000 1.000000000
v -0.109946563 0.109946563 0.242565656
vn 0.000000000 -0.000000000 1.000000000
v -0.091622140 0.091622140 0.242565656
vn 0.000000000 -0.000000000 1.000000000
f 97/97/97 98/98/98 99/99/99
v 0.000000000 0.155487916 0.242565656
vn 0.000000000 -0.000000000 1.000000000
v -0.091622140 0.091622140 0.242565656
vn 0.000000000 -0.000000000 1.000000000
v 0.000000000 0.129573263 0.242565656
vn 0.000000000 -0.000000000 1.000000000
f 100/100/100 101/101/101 102/102/102
v -0.109946563 0.109946563 0.242565656
vn 0.000000000 -0.000000000 1.000000000
v -0.155487916 0.000000000 0.242565656
vn 0.000000000 -0.000000000 1.000000000
v -0.129573263 0.000000000 0.242565656
vn 0.000000000 -0.000000000 1.000000000
f 103/103/103 104/104/104 105/105/105
v -0.109946563 0.109946563 0.242565656
vn 0.000000000 -0.000000000 1.000000000
v -0.129573263 0.000000000 0.242565656
vn 0.000000000 -0.000000000 1.000000000
v -0.091622140 0.091622140 0.242565656
vn 0.000000000 -0.000000000 1.000000000
f 106/106/106 107/107/107 108/108/108
v -0.155487916 0.000000000 0.242565656
vn 0.000000000 0.000000000 1.000000000
v -0.109946563 -0.109946563 0.242565656
vn 0.000000000 0.000000000 1.000000000
v -0.091622140 -0.091622140 0.242565656
vn 0.000000000 0.000000000 1.000000000
f 109/109/109 110/110/110 111/111/111
v -0.155487916 0.000000000 0.242565656
vn 0.000000000 0.000000000 1.000000000
v -0.091622140 -0.091622140 0.242565656
vn 0.000000000 0.000000000 1.000000000
v -0.129573263 0.000000000 0.242565656
vn 0.000000000 0.000000000 1.000000000
f 112/112/112 113/113/113 114/114/114
v -0.109946563 -0.109946563 0.242565656
vn 0.000000000 0.000000000 1.000000000
v 0.000000000 -0.155487916 0.242565656
vn 0.000000000 0.000000000 1.000000000
v 0.000000000 -0.129573263 0.242565656
vn 0.000000000 0.000000000 1.000000000
f 115/115/115 116/116/116 117/117/117
v -0.109946563 -0.109946563 0.242565656
vn 0.000000000 0.000000000 1.000000000
v 0.000000000 -0.129573263 0.242565656
vn 0.000000000 0.000000000 1.000000000
v -0.091622140 -0.091622140 0.242565656
vn 0.000000000 0.000000000 1.000000000
f 118/118/118 119/119/119 120/120/120
v 0.000000000 -0.155487916 0.242565656
vn 0.000000000 0.000000000 1.000000000
v 0.109946563 -0.109946563 0.242565656
vn 0.000000000 0.000000000 1.000000000
v 0.091622140 -0.091622140 0.242565656
vn 0.000000000 0.000000000 1.000000000
f 121/121/121 122/122/122 123/123/123
v 0.000000000 -0.155487916 0.242565656
vn -0.000000000 0.000000000 1.000000000
v 0.091622140 -0.091622140 0.242565656
vn -0.000000000 0.000000000 1.000000000
v 0.000000000 -0.129573263 0.242565656
vn -0.000000000 0.000000000 1.000000000
f 124/124/124 125/125/125 126/126/126
v 0.109946563 -0.109946563 0.242565656
vn -0.000000000 0.000000000 1.000000000
v 0.155487916 0.000000000 0.242565656
vn -0.000000000 0.000000000 1.000000000
v 0.129573263 0.000000000 0.242565656
vn -0.000000000 0.000000000 1.000000000
f 127/127/127 128/128/128 129/129/129
v 0.109946563 -0.109946563 0.242565656
vn -0.000000000 0.000000000 1.000000000
v 0.129573263 0.000000000 0.242565656
vn -0.000000000 0.000000000 1.000000000
v 0.091622140 -0.091622140 0.242565656
vn -0.000000000 0.000000000 1.000000000
f 130/130/130 131/131/131 132/132/132
v 0.129573263 0.000000000 0.242565656
vn -0.755392533 -0.312893792 0.575742647
v 0.091622140 0.091622140 0.242565656
vn -0.755392533 -0.312893792 0.575742647
v 0.075130163 0.075130163 0.211964912
vn -0.755392533 -0.312893792 0.575742647
f 133/133/133 134/134/134 135/135/135
v 0.129573263 0.000000000 0.242565656
vn -0.755392469 -0.312893708 0.575742777
v 0.075130163 0.075130163 0.211964912
vn -0.755392469 -0.312893708 0.575742777
v 0.106250076 0.000000000 0.211964912
vn -0.755392469 -0.312893708 0.575742777
f 136/136/136 137/137/137 138/138/138
v 0.091622140 0.091622140 0.242565656
vn -0.312893776 -0.755392493 0.575742709
v 0.000000000 0.129573263 0.242565656
vn -0.312893776 -0.755392493 0.575742709
v 0.000000000 0.106250076 0.211964912
vn -0.312893776 -0.755392493 0.575742709
f 139/139/139 140/140/140 141/141/141
v 0.091622140 0.091622140 0.242565656
vn -0.312893748 -0.755392542 0.575742660
v 0.000000000 0.106250076 0.211964912
vn -0.312893748 -0.755392542 0.575742660
v 0.075130163 0.075130163 0.211964912
vn -0.312893748 -0.755392542 0.575742660
f 142/142/142 143/143/143 144/144/144
v 0.000000000 0.129573263 0.242565656
vn 0.312893792 -0.755392533 0.575742647
v -0.091622140 0.091622140 0.242565656
vn 0.312893792 -0.755392533 0.575742647
v -0.075130163 0.075130163 0.211964912
vn 0.312893792 -0.755392533 0.575742647
f 145/145/145 146/146/146 147/147/147
v 0.000000000 0.129573263 0.242565656
vn 0.312893708 -0.755392469 0.575742777
v -0.075130163 0.075130163 0.211964912
vn 0.312893708 -0.755392469 0.575742777
v 0.000000000 0.106250076 0.211964912
vn 0.312893708 -0.755392469 0.575742777
f 148/148/148 149/149/149 150/150/150
v -0.091622140 0.091622140 0.242565656
vn 0.755392493 -0.312893776 0.575742709
v -0.129573263 0.000000000 0.242565656
vn 0.755392493 -0.312893776 0.575742709
v -0.106250076 0.000000000 0.211964912
vn 0.755392493 -0.312893776 0.575742709
f 151/151/151 152/152/152 153/153/153
v -0.091622140 0.091622140 0.242565656
vn 0.755392542 -0.312893748 0.575742660
v -0.106250076 0.000000000 0.211964912
vn 0.755392542 -0.312893748 0.575742660
v -0.075130163 0.075130163 0.211964912
vn 0.755392542 -0.312893748 0.575742660
f 154/154/154 155/155/155 156/156/156
v -0.129573263 0.000000000 0.242565656
vn 0.755392533 0.312893792 0.575742647
v -0.091622140 -0.091622140 0.242565656
vn 0.755392533 0.312893792 0.575742647
v -0.075130163 -0.075130163 0.211964912
vn 0.755392533 0.312893792 0.575742647
f 157/157/157 158/158/158 159/159/159
v -0.129573263 0.000000000 0.242565656
vn 0.755392469 0.312893708 0.575742777
v -0.075130163 -0.075130163 0.211964912
vn 0.755392469 0.312893708 0.575742777
v -0.106250076 0.000000000 0.211964912
vn 0.755392469 0.312893708 0.575742777
f 160/160/160 161/161/161 162/162/162
v -0.091622140 -0.091622140 0.242565656
vn 0.312893776 0.755392493 0.575742709
v 0.000000000 -0.129573263 0.242565656
vn 0.312893776 0.755392493 0.575742709
v 0.000000000 -0.106250076 0.211964912
vn 0.312893776 0.755392493 0.575742709
f 163/163/163 164/164/164 165/165/165
v -0.091622140 -0.091622140 0.242565656
vn 0.312893748 0.755392542 0.575742660
v 0.000000000 -0.106250076 0.211964912
vn 0.312893748 0.755392542 0.575742660
v -0.075130163 -0.075130163 0.211964912
vn 0.312893748 0.755392542 0.575742660
f 166/166/166 167/167/167 168/168/168
v 0.000000000 -0.129573263 0.242565656
vn -0.312893792 0.755392533 0.575742647
v 0.091622140 -0.091622140 0.242565656
vn -0.312893792 0.755392533 0.575742647
v 0.075130163 -0.075130163 0.211964912
vn -0.312893792 0.755392533 0.575742647
f 169/169/169 170/170/170 171/171/171
v 0.000000000 -0.129573263 0.242565656
vn -0.312893708 0.755392469 0.575742777
v 0.075130163 -0.075130163 0.211964912
vn -0.312893708 0.755392469 0.575742777
v 0.000000000 -0.106250076 0.211964912
vn -0.312893708 0.755392469 0.575742777
f 172/172/172 173/173/173 174/174/174
v 0.091622140 -0.091622140 0.242565656
vn -0.755392493 0.312893776 0.575742709
v 0.129573263 0.000000000 0.242565656
vn -0.755392493 0.312893776 0.575742709
v 0.106250076 0.000000000 0.211964912
vn -0.755392493 0.312893776 0.575742709
f 175/175/175 176/176/176 177/177/177
v 0.091622140 -0.091622140 0.242565656
vn -0.755392542 0.312893748 0.575742660
v 0.106250076 0.000000000 0.211964912
vn -0.755392542 0.312893748 0.575742660
v 0.075130163 -0.075130163 0.211964912
vn -0.755392542 0.312893748 0.575742660
f 178/178/178 179/179/179 180/180/180
o foliage_PNG_crossed_cards
v -0.233231873 0.000000000 0.207964912
vn -0.000000000 -1.000000000 -0.000000000
v 0.233231873 0.000000000 0.207964912
vn -0.000000000 -1.000000000 -0.000000000
v 0.233231873 0.000000000 0.419477243
vn -0.000000000 -1.000000000 -0.000000000
f 181/181/181 182/182/182 183/183/183
v -0.233231873 0.000000000 0.207964912
vn 0.000000000 -1.000000000 -0.000000000
v 0.233231873 0.000000000 0.419477243
vn 0.000000000 -1.000000000 -0.000000000
v -0.233231873 0.000000000 0.419477243
vn 0.000000000 -1.000000000 -0.000000000
f 184/184/184 185/185/185 186/186/186
v 0.000000000 -0.233231873 0.207964912
vn 1.000000000 0.000000000 0.000000000
v 0.000000000 0.233231873 0.207964912
vn 1.000000000 0.000000000 0.000000000
v 0.000000000 0.233231873 0.419477243
vn 1.000000000 0.000000000 0.000000000
f 187/187/187 188/188/188 189/189/189
v 0.000000000 -0.233231873 0.207964912
vn 1.000000000 -0.000000000 0.000000000
v 0.000000000 0.233231873 0.419477243
vn 1.000000000 -0.000000000 0.000000000
v 0.000000000 -0.233231873 0.419477243
vn 1.000000000 -0.000000000 0.000000000
f 190/190/190 191/191/191 192/192/192
# Foliage reverse faces for runtime culling; same positions/UV.
vn 0.000000000 1.000000000 0.000000000
vn 0.000000000 1.000000000 0.000000000
vn 0.000000000 1.000000000 0.000000000
vn -0.000000000 1.000000000 0.000000000
vn -0.000000000 1.000000000 0.000000000
vn -0.000000000 1.000000000 0.000000000
vn -1.000000000 -0.000000000 -0.000000000
vn -1.000000000 -0.000000000 -0.000000000
vn -1.000000000 -0.000000000 -0.000000000
vn -1.000000000 0.000000000 -0.000000000
vn -1.000000000 0.000000000 -0.000000000
vn -1.000000000 0.000000000 -0.000000000
usemtl UV_Base
f 183/183/193 182/182/194 181/181/195
f 186/186/196 185/185/197 184/184/198
f 189/189/199 188/188/200 187/187/201
f 192/192/202 191/191/203 190/190/204
