mtllib pz_sofa_seating_indoor_03_victorian_c5_1_0_fidelity_r1.mtl
o pz_sofa_seating_indoor_03_victorian_c5_1_0
usemtl UV_Base
g pz_sofa_seating_indoor_03_victorian_c5_1_0__lower_body__body
v -0.50000000 -0.41912083 0.34974375
v -0.50000000 -0.41912083 0.06589375
v 0.40660917 -0.41912083 0.06589375
vt 0.877032943 0.480468750
vt 0.877032943 0.269531250
vt 0.977564875 0.269531250
vn 0.00000000 -1.00000000 0.00000000
f 1/1/1 2/2/1 3/3/1
g pz_sofa_seating_indoor_03_victorian_c5_1_0__lower_body__body
v 0.40660917 -0.41912083 0.06589375
v 0.40660917 -0.41912083 0.34974375
v -0.50000000 -0.41912083 0.34974375
vt 0.977564875 0.269531250
vt 0.977564875 0.480468750
vt 0.877032943 0.480468750
vn 0.00000000 -1.00000000 0.00000000
f 4/4/2 5/5/2 6/6/2
g pz_sofa_seating_indoor_03_victorian_c5_1_0__lower_body__body
v 0.40660917 -0.41912083 0.34974375
v 0.40660917 -0.41912083 0.06589375
v 0.43279667 -0.39293333 0.06589375
vt 0.019531250 0.230468750
vt 0.019531250 0.019531250
vt 0.026181234 0.019531250
vn 0.70710678 -0.70710678 0.00000000
f 7/7/3 8/8/3 9/9/3
g pz_sofa_seating_indoor_03_victorian_c5_1_0__lower_body__body
v 0.43279667 -0.39293333 0.06589375
v 0.43279667 -0.39293333 0.34974375
v 0.40660917 -0.41912083 0.34974375
vt 0.026181234 0.019531250
vt 0.026181234 0.230468750
vt 0.019531250 0.230468750
vn 0.70710678 -0.70710678 0.00000000
f 10/10/4 11/11/4 12/12/4
g pz_sofa_seating_indoor_03_victorian_c5_1_0__lower_body__body
v 0.43279667 -0.39293333 0.34974375
v 0.43279667 -0.39293333 0.06589375
v 0.43279667 0.38535917 0.06589375
vt 0.026181234 0.230468750
vt 0.026181234 0.019531250
vt 0.223818766 0.019531250
vn 1.00000000 0.00000000 0.00000000
f 13/13/5 14/14/5 15/15/5
g pz_sofa_seating_indoor_03_victorian_c5_1_0__lower_body__body
v 0.43279667 0.38535917 0.06589375
v 0.43279667 0.38535917 0.34974375
v 0.43279667 -0.39293333 0.34974375
vt 0.223818766 0.019531250
vt 0.223818766 0.230468750
vt 0.026181234 0.230468750
vn 1.00000000 0.00000000 -0.00000000
f 16/16/6 17/17/6 18/18/6
g pz_sofa_seating_indoor_03_victorian_c5_1_0__lower_body__body
v 0.43279667 0.38535917 0.34974375
v 0.43279667 0.38535917 0.06589375
v 0.40660917 0.41154667 0.06589375
vt 0.223818766 0.230468750
vt 0.223818766 0.019531250
vt 0.230468750 0.019531250
vn 0.70710678 0.70710678 0.00000000
f 19/19/7 20/20/7 21/21/7
g pz_sofa_seating_indoor_03_victorian_c5_1_0__lower_body__body
v 0.40660917 0.41154667 0.06589375
v 0.40660917 0.41154667 0.34974375
v 0.43279667 0.38535917 0.34974375
vt 0.230468750 0.019531250
vt 0.230468750 0.230468750
vt 0.223818766 0.230468750
vn 0.70710678 0.70710678 -0.00000000
f 22/22/8 23/23/8 24/24/8
g pz_sofa_seating_indoor_03_victorian_c5_1_0__lower_body__body
v 0.40660917 0.41154667 0.34974375
v 0.40660917 0.41154667 0.06589375
v -0.50000000 0.41154667 0.06589375
vt 0.727564875 0.480468750
vt 0.727564875 0.269531250
vt 0.627032943 0.269531250
vn 0.00000000 1.00000000 0.00000000
f 25/25/9 26/26/9 27/27/9
g pz_sofa_seating_indoor_03_victorian_c5_1_0__lower_body__body
v -0.50000000 0.41154667 0.06589375
v -0.50000000 0.41154667 0.34974375
v 0.40660917 0.41154667 0.34974375
vt 0.627032943 0.269531250
vt 0.627032943 0.480468750
vt 0.727564875 0.480468750
vn 0.00000000 1.00000000 0.00000000
f 28/28/10 29/29/10 30/30/10
g pz_sofa_seating_indoor_03_victorian_c5_1_0__rear_body_bridge__body
v -0.50000000 -0.38769583 0.06589375
v -0.50000000 -0.38769583 0.45618750
v 0.43279667 -0.38769583 0.45618750
vt 0.627032943 0.269531250
vt 0.627032943 0.480468750
vt 0.730468750 0.480468750
vn 0.00000000 1.00000000 0.00000000
f 31/31/11 32/32/11 33/33/11
g pz_sofa_seating_indoor_03_victorian_c5_1_0__rear_body_bridge__body
v 0.43279667 -0.38769583 0.45618750
v 0.43279667 -0.38769583 0.06589375
v -0.50000000 -0.38769583 0.06589375
vt 0.730468750 0.480468750
vt 0.730468750 0.269531250
vt 0.627032943 0.269531250
vn 0.00000000 1.00000000 0.00000000
f 34/34/12 35/35/12 36/36/12
g pz_sofa_seating_indoor_03_victorian_c5_1_0__rear_body_bridge__body
v -0.50000000 -0.44007083 0.45618750
v -0.50000000 -0.44007083 0.06589375
v 0.43279667 -0.44007083 0.06589375
vt 0.877032943 0.480468750
vt 0.877032943 0.269531250
vt 0.980468750 0.269531250
vn 0.00000000 -1.00000000 0.00000000
f 37/37/13 38/38/13 39/39/13
g pz_sofa_seating_indoor_03_victorian_c5_1_0__rear_body_bridge__body
v 0.43279667 -0.44007083 0.06589375
v 0.43279667 -0.44007083 0.45618750
v -0.50000000 -0.44007083 0.45618750
vt 0.980468750 0.269531250
vt 0.980468750 0.480468750
vt 0.877032943 0.480468750
vn 0.00000000 -1.00000000 0.00000000
f 40/40/14 41/41/14 42/42/14
g pz_sofa_seating_indoor_03_victorian_c5_1_0__rear_body_bridge__body
v 0.43279667 -0.44007083 0.06589375
v 0.43279667 -0.38769583 0.06589375
v 0.43279667 -0.38769583 0.45618750
vt 0.019531250 0.019531250
vt 0.230468750 0.019531250
vt 0.230468750 0.230468750
vn 1.00000000 0.00000000 0.00000000
f 43/43/15 44/44/15 45/45/15
g pz_sofa_seating_indoor_03_victorian_c5_1_0__rear_body_bridge__body
v 0.43279667 -0.38769583 0.45618750
v 0.43279667 -0.44007083 0.45618750
v 0.43279667 -0.44007083 0.06589375
vt 0.230468750 0.230468750
vt 0.019531250 0.230468750
vt 0.019531250 0.019531250
vn 1.00000000 0.00000000 0.00000000
f 46/46/16 47/47/16 48/48/16
g pz_sofa_seating_indoor_03_victorian_c5_1_0__rear_body_bridge__body
v 0.43279667 -0.44007083 0.45618750
v 0.43279667 -0.38769583 0.45618750
v -0.50000000 -0.38769583 0.45618750
vt 0.230468750 0.019531250
vt 0.230468750 0.230468750
vt 0.127032943 0.230468750
vn 0.00000000 -0.00000000 1.00000000
f 49/49/17 50/50/17 51/51/17
g pz_sofa_seating_indoor_03_victorian_c5_1_0__rear_body_bridge__body
v -0.50000000 -0.38769583 0.45618750
v -0.50000000 -0.44007083 0.45618750
v 0.43279667 -0.44007083 0.45618750
vt 0.127032943 0.230468750
vt 0.127032943 0.019531250
vt 0.230468750 0.019531250
vn 0.00000000 0.00000000 1.00000000
f 52/52/18 53/53/18 54/54/18
g pz_sofa_seating_indoor_03_victorian_c5_1_0__seat_1__seat
v -0.50000000 -0.22805892 0.44098125
v -0.46914011 -0.25891880 0.44098125
v 0.18143595 -0.25891880 0.44098125
vt 0.023559645 0.781954308
vt 0.032349358 0.772167968
vt 0.217650642 0.772167968
vn 0.00000000 0.00000000 1.00000000
f 55/55/19 56/56/19 57/57/19
g pz_sofa_seating_indoor_03_victorian_c5_1_0__seat_1__seat
v -0.50000000 -0.22805892 0.44098125
v 0.18143595 -0.25891880 0.44098125
v 0.21718189 -0.22317286 0.44098125
vt 0.023559645 0.781954308
vt 0.217650642 0.772167968
vt 0.227832032 0.783503784
vn -0.00000000 0.00000000 1.00000000
f 58/58/20 59/59/20 60/60/20
g pz_sofa_seating_indoor_03_victorian_c5_1_0__seat_1__seat
v -0.50000000 -0.22805892 0.44098125
v 0.21718189 -0.22317286 0.44098125
v 0.21718189 0.35386870 0.44098125
vt 0.023559645 0.781954308
vt 0.227832032 0.783503784
vt 0.227832032 0.966496216
vn 0.00000000 0.00000000 1.00000000
f 61/61/21 62/62/21 63/63/21
g pz_sofa_seating_indoor_03_victorian_c5_1_0__seat_1__seat
v -0.50000000 -0.22805892 0.44098125
v 0.21718189 0.35386870 0.44098125
v 0.18143595 0.38961464 0.44098125
vt 0.023559645 0.781954308
vt 0.227832032 0.966496216
vt 0.217650642 0.977832032
vn 0.00000000 0.00000000 1.00000000
f 64/64/22 65/65/22 66/66/22
g pz_sofa_seating_indoor_03_victorian_c5_1_0__seat_1__seat
v -0.50000000 -0.22805892 0.44098125
v 0.18143595 0.38961464 0.44098125
v -0.46914011 0.38961464 0.44098125
vt 0.023559645 0.781954308
vt 0.217650642 0.977832032
vt 0.032349358 0.977832032
vn 0.00000000 0.00000000 1.00000000
f 67/67/23 68/68/23 69/69/23
g pz_sofa_seating_indoor_03_victorian_c5_1_0__seat_1__seat
v -0.46914011 0.38961464 0.44098125
v -0.50000000 0.35875475 0.44098125
v -0.50000000 -0.22805892 0.44098125
vt 0.032349358 0.977832032
vt 0.023559645 0.968045689
vt 0.023559645 0.781954308
vn 0.00000000 0.00000000 1.00000000
f 70/70/24 71/71/24 72/72/24
g pz_sofa_seating_indoor_03_victorian_c5_1_0__seat_1__seat
v -0.46914011 -0.25891880 0.44098125
v -0.47748083 -0.26723333 0.33960625
v 0.18977667 -0.26723333 0.33960625
vt 0.282349358 0.980468750
vt 0.279973700 0.769531250
vt 0.470026300 0.769531250
vn 0.00000000 -0.99665343 0.08174309
f 73/73/25 74/74/25 75/75/25
g pz_sofa_seating_indoor_03_victorian_c5_1_0__seat_1__seat
v 0.18977667 -0.26723333 0.33960625
v 0.18143595 -0.25891880 0.44098125
v -0.46914011 -0.25891880 0.44098125
vt 0.470026300 0.769531250
vt 0.467650642 0.980468750
vt 0.282349358 0.980468750
vn 0.00000000 -0.99665343 0.08174309
f 76/76/26 77/77/26 78/78/26
g pz_sofa_seating_indoor_03_victorian_c5_1_0__seat_1__seat
v 0.18143595 -0.25891880 0.44098125
v 0.18977667 -0.26723333 0.33960625
v 0.22643917 -0.23057083 0.33960625
vt 0.467650642 0.980468750
vt 0.470026300 0.769531250
vt 0.480468750 0.769531250
vn 0.70238293 -0.70238293 0.11539692
f 79/79/27 80/80/27 81/81/27
g pz_sofa_seating_indoor_03_victorian_c5_1_0__seat_1__seat
v 0.22643917 -0.23057083 0.33960625
v 0.21718189 -0.22317286 0.44098125
v 0.18143595 -0.25891880 0.44098125
vt 0.531157726 0.769531250
vt 0.533503784 0.980468750
vt 0.522167968 0.980468750
vn 0.70238293 -0.70238293 0.11539692
f 82/82/28 83/83/28 84/84/28
g pz_sofa_seating_indoor_03_victorian_c5_1_0__seat_1__seat
v 0.21718189 -0.22317286 0.44098125
v 0.22643917 -0.23057083 0.33960625
v 0.22643917 0.36126667 0.33960625
vt 0.533503784 0.980468750
vt 0.531157726 0.769531250
vt 0.718842274 0.769531250
vn 0.99585648 0.00000000 0.09093883
f 85/85/29 86/86/29 87/87/29
g pz_sofa_seating_indoor_03_victorian_c5_1_0__seat_1__seat
v 0.22643917 0.36126667 0.33960625
v 0.21718189 0.35386870 0.44098125
v 0.21718189 -0.22317286 0.44098125
vt 0.718842274 0.769531250
vt 0.716496216 0.980468750
vt 0.533503784 0.980468750
vn 0.99585648 0.00000000 0.09093883
f 88/88/30 89/89/30 90/90/30
g pz_sofa_seating_indoor_03_victorian_c5_1_0__seat_1__seat
v 0.21718189 0.35386870 0.44098125
v 0.22643917 0.36126667 0.33960625
v 0.18977667 0.39792917 0.33960625
vt 0.477832032 0.980468750
vt 0.480468750 0.769531250
vt 0.470026300 0.769531250
vn 0.70238293 0.70238293 0.11539692
f 91/91/31 92/92/31 93/93/31
g pz_sofa_seating_indoor_03_victorian_c5_1_0__seat_1__seat
v 0.18977667 0.39792917 0.33960625
v 0.18143595 0.38961464 0.44098125
v 0.21718189 0.35386870 0.44098125
vt 0.730468750 0.769531250
vt 0.727832032 0.980468750
vt 0.716496216 0.980468750
vn 0.70238293 0.70238293 0.11539692
f 94/94/32 95/95/32 96/96/32
g pz_sofa_seating_indoor_03_victorian_c5_1_0__seat_1__seat
v 0.18143595 0.38961464 0.44098125
v 0.18977667 0.39792917 0.33960625
v -0.47748083 0.39792917 0.33960625
vt 0.467650642 0.980468750
vt 0.470026300 0.769531250
vt 0.279973700 0.769531250
vn 0.00000000 0.99665343 0.08174309
f 97/97/33 98/98/33 99/99/33
g pz_sofa_seating_indoor_03_victorian_c5_1_0__seat_1__seat
v -0.47748083 0.39792917 0.33960625
v -0.46914011 0.38961464 0.44098125
v 0.18143595 0.38961464 0.44098125
vt 0.279973700 0.769531250
vt 0.282349358 0.980468750
vt 0.467650642 0.980468750
vn 0.00000000 0.99665343 0.08174309
f 100/100/34 101/101/34 102/102/34
g pz_sofa_seating_indoor_03_victorian_c5_1_0__seat_1__seat
v -0.46914011 0.38961464 0.44098125
v -0.47748083 0.39792917 0.33960625
v -0.50000000 0.37541000 0.33960625
vt 0.727832032 0.980468750
vt 0.730468750 0.769531250
vt 0.723327431 0.769531250
vn -0.70238293 0.70238293 0.11539692
f 103/103/35 104/104/35 105/105/35
g pz_sofa_seating_indoor_03_victorian_c5_1_0__seat_1__seat
v -0.50000000 0.37541000 0.33960625
v -0.50000000 0.35875475 0.44098125
v -0.46914011 0.38961464 0.44098125
vt 0.723327431 0.769531250
vt 0.718045689 0.980468750
vt 0.727832032 0.980468750
vn -0.70238293 0.70238293 0.11539692
f 106/106/36 107/107/36 108/108/36
g pz_sofa_seating_indoor_03_victorian_c5_1_0__seat_1__seat
v -0.50000000 -0.22805892 0.44098125
v -0.50000000 -0.24471417 0.33960625
v -0.47748083 -0.26723333 0.33960625
vt 0.273559645 0.980468750
vt 0.273559645 0.769531250
vt 0.279973700 0.769531250
vn -0.70238293 -0.70238293 0.11539692
f 109/109/37 110/110/37 111/111/37
g pz_sofa_seating_indoor_03_victorian_c5_1_0__seat_1__seat
v -0.47748083 -0.26723333 0.33960625
v -0.46914011 -0.25891880 0.44098125
v -0.50000000 -0.22805892 0.44098125
vt 0.279973700 0.769531250
vt 0.282349358 0.980468750
vt 0.273559645 0.980468750
vn -0.70238293 -0.70238293 0.11539692
f 112/112/38 113/113/38 114/114/38
g pz_sofa_seating_indoor_03_victorian_c5_1_0__sculpted_back__back
v -0.50000000 -0.21586303 0.51659828
v -0.50000000 -0.24935100 0.84068827
v -0.40119764 -0.24990678 0.84606703
vt 0.877085777 0.819245090
vt 0.877085777 0.964267658
vt 0.888326489 0.966674525
vn 0.00000000 0.99470391 0.10278198
f 115/115/39 116/116/39 117/117/39
g pz_sofa_seating_indoor_03_victorian_c5_1_0__sculpted_back__back
v -0.50000000 -0.21586303 0.51659828
v -0.40119764 -0.24990678 0.84606703
v -0.16692625 -0.24858896 0.83331340
vt 0.877085777 0.819245090
vt 0.888326489 0.966674525
vt 0.914979467 0.960967579
vn -0.00000000 0.99470391 0.10278198
f 118/118/40 119/119/40 120/120/40
g pz_sofa_seating_indoor_03_victorian_c5_1_0__sculpted_back__back
v -0.50000000 -0.21586303 0.51659828
v -0.16692625 -0.24858896 0.83331340
v 0.06734514 -0.24990678 0.84606703
vt 0.877085777 0.819245090
vt 0.914979467 0.960967579
vt 0.941632446 0.966674525
vn 0.00000000 0.99470391 0.10278198
f 121/121/41 122/122/41 123/123/41
g pz_sofa_seating_indoor_03_victorian_c5_1_0__sculpted_back__back
v -0.50000000 -0.21586303 0.51659828
v 0.06734514 -0.24990678 0.84606703
v 0.30161653 -0.24858896 0.83331340
vt 0.877085777 0.819245090
vt 0.941632446 0.966674525
vt 0.968285425 0.960967579
vn -0.00000000 0.99470391 0.10278198
f 124/124/42 125/125/42 126/126/42
g pz_sofa_seating_indoor_03_victorian_c5_1_0__sculpted_back__back
v -0.50000000 -0.21586303 0.51659828
v 0.30161653 -0.24858896 0.83331340
v 0.33537917 -0.24221948 0.77167086
vt 0.877085777 0.819245090
vt 0.968285425 0.960967579
vt 0.972126589 0.933384007
vn 0.00000000 0.99470391 0.10278198
f 127/127/43 128/128/43 129/129/43
g pz_sofa_seating_indoor_03_victorian_c5_1_0__sculpted_back__back
v 0.33537917 -0.24221948 0.77167086
v 0.32090946 -0.21586303 0.51659828
v -0.50000000 -0.21586303 0.51659828
vt 0.972126589 0.933384007
vt 0.970480375 0.819245090
vt 0.877085777 0.819245090
vn 0.00000000 0.99470391 0.10278198
f 130/130/44 131/131/44 132/132/44
g pz_sofa_seating_indoor_03_victorian_c5_1_0__sculpted_back__back
v -0.50000000 -0.45654772 0.86908504
v -0.50000000 -0.40864583 0.40550000
v 0.39299167 -0.40864583 0.40550000
vt 0.127085777 0.726974538
vt 0.127085777 0.519531250
vt 0.228681144 0.519531250
vn 0.00000000 -0.99470391 -0.10278198
f 133/133/45 134/134/45 135/135/45
g pz_sofa_seating_indoor_03_victorian_c5_1_0__sculpted_back__back
v -0.50000000 -0.45654772 0.86908504
v 0.39299167 -0.40864583 0.40550000
v 0.40870417 -0.44635583 0.77045000
vt 0.127085777 0.726974538
vt 0.228681144 0.519531250
vt 0.230468750 0.682837702
vn 0.00000000 -0.99470391 -0.10278198
f 136/136/46 137/137/46 138/138/46
g pz_sofa_seating_indoor_03_victorian_c5_1_0__sculpted_back__back
v 0.40870417 -0.44635583 0.77045000
v 0.37204167 -0.45546908 0.85864625
v 0.11764881 -0.45735458 0.87689375
vt 0.230468750 0.682837702
vt 0.226297669 0.722303427
vt 0.197355478 0.730468750
vn -0.00000000 -0.99470391 -0.10278198
f 139/139/47 140/140/47 141/141/47
g pz_sofa_seating_indoor_03_victorian_c5_1_0__sculpted_back__back
v 0.40870417 -0.44635583 0.77045000
v 0.11764881 -0.45735458 0.87689375
v -0.13674405 -0.45546908 0.85864625
vt 0.230468750 0.682837702
vt 0.197355478 0.730468750
vt 0.168413286 0.722303427
vn 0.00000000 -0.99470391 -0.10278198
f 142/142/48 143/143/48 144/144/48
g pz_sofa_seating_indoor_03_victorian_c5_1_0__sculpted_back__back
v -0.50000000 -0.45654772 0.86908504
v 0.40870417 -0.44635583 0.77045000
v -0.13674405 -0.45546908 0.85864625
vt 0.127085777 0.726974538
vt 0.230468750 0.682837702
vt 0.168413286 0.722303427
vn -0.00000000 -0.99470391 -0.10278198
f 145/145/49 146/146/49 147/147/49
g pz_sofa_seating_indoor_03_victorian_c5_1_0__sculpted_back__back
v -0.13674405 -0.45546908 0.85864625
v -0.39113690 -0.45735458 0.87689375
v -0.50000000 -0.45654772 0.86908504
vt 0.168413286 0.722303427
vt 0.139471096 0.730468750
vt 0.127085777 0.726974538
vn 0.00000000 -0.99470391 -0.10278198
f 148/148/50 149/149/50 150/150/50
g pz_sofa_seating_indoor_03_victorian_c5_1_0__sculpted_back__back
v -0.50000000 -0.27770833 0.40550000
v -0.50000000 -0.21586303 0.51659828
v 0.32090946 -0.21586303 0.51659828
vt 0.877085777 0.769531250
vt 0.877085777 0.819245090
vt 0.970480375 0.819245090
vn 0.00000000 0.87374284 -0.48638817
f 151/151/51 152/152/51 153/153/51
g pz_sofa_seating_indoor_03_victorian_c5_1_0__sculpted_back__back
v 0.32090946 -0.21586303 0.51659828
v 0.39299167 -0.27770833 0.40550000
v -0.50000000 -0.27770833 0.40550000
vt 0.970480375 0.819245090
vt 0.978681144 0.769531250
vt 0.877085777 0.769531250
vn 0.00000000 0.87374284 -0.48638817
f 154/154/52 155/155/52 156/156/52
g pz_sofa_seating_indoor_03_victorian_c5_1_0__sculpted_back__back
v 0.39299167 -0.27770833 0.40550000
v 0.32090946 -0.21586303 0.51659828
v 0.33537917 -0.24221948 0.77167086
vt 0.978681144 0.769531250
vt 0.970480375 0.819245090
vt 0.972126589 0.933384007
vn 0.68268498 0.72979153 0.03668158
f 157/157/53 158/158/53 159/159/53
g pz_sofa_seating_indoor_03_victorian_c5_1_0__sculpted_back__back
v 0.33537917 -0.24221948 0.77167086
v 0.40870417 -0.31541833 0.77045000
v 0.39299167 -0.27770833 0.40550000
vt 0.972126589 0.933384007
vt 0.980468750 0.932837702
vt 0.978681144 0.769531250
vn 0.70621112 0.70671737 0.04261945
f 160/160/54 161/161/54 162/162/54
g pz_sofa_seating_indoor_03_victorian_c5_1_0__sculpted_back__back
v 0.39299167 -0.40864583 0.40550000
v 0.39299167 -0.27770833 0.40550000
v 0.40870417 -0.31541833 0.77045000
vt 0.312077260 0.519531250
vt 0.426448255 0.519531250
vt 0.393509409 0.682837702
vn 0.99907447 0.00000000 -0.04301400
f 163/163/55 164/164/55 165/165/55
g pz_sofa_seating_indoor_03_victorian_c5_1_0__sculpted_back__back
v 0.40870417 -0.31541833 0.77045000
v 0.40870417 -0.44635583 0.77045000
v 0.39299167 -0.40864583 0.40550000
vt 0.393509409 0.682837702
vt 0.279138414 0.682837702
vt 0.312077260 0.519531250
vn 0.99907447 0.00000000 -0.04301400
f 166/166/56 167/167/56 168/168/56
g pz_sofa_seating_indoor_03_victorian_c5_1_0__sculpted_back__back
v 0.40870417 -0.31541833 0.77045000
v 0.33537917 -0.24221948 0.77167086
v 0.30161653 -0.24858896 0.83331340
vt 0.393509409 0.682837702
vt 0.457446977 0.683384007
vt 0.451883378 0.710967579
vn 0.64489577 0.63901466 0.41924899
f 169/169/57 170/170/57 171/171/57
g pz_sofa_seating_indoor_03_victorian_c5_1_0__sculpted_back__back
v 0.30161653 -0.24858896 0.83331340
v 0.37204167 -0.32453158 0.85864625
v 0.40870417 -0.31541833 0.77045000
vt 0.968285425 0.960967579
vt 0.976297669 0.972303427
vt 0.980468750 0.932837702
vn 0.63250256 0.69832605 0.33508392
f 172/172/58 173/173/58 174/174/58
g pz_sofa_seating_indoor_03_victorian_c5_1_0__sculpted_back__back
v 0.40870417 -0.44635583 0.77045000
v 0.40870417 -0.31541833 0.77045000
v 0.37204167 -0.32453158 0.85864625
vt 0.279138414 0.682837702
vt 0.393509409 0.682837702
vt 0.385549188 0.722303427
vn 0.92339604 -0.00000000 0.38384860
f 175/175/59 176/176/59 177/177/59
g pz_sofa_seating_indoor_03_victorian_c5_1_0__sculpted_back__back
v 0.37204167 -0.32453158 0.85864625
v 0.37204167 -0.45546908 0.85864625
v 0.40870417 -0.44635583 0.77045000
vt 0.385549188 0.722303427
vt 0.271178192 0.722303427
vt 0.279138414 0.682837702
vn 0.92339604 0.00000000 0.38384860
f 178/178/60 179/179/60 180/180/60
g pz_sofa_seating_indoor_03_victorian_c5_1_0__sculpted_back__back
v 0.37204167 -0.32453158 0.85864625
v 0.30161653 -0.24858896 0.83331340
v 0.06734514 -0.24990678 0.84606703
vt 0.476297669 0.635549188
vt 0.468285425 0.701883378
vt 0.441632446 0.700732291
vn 0.04878832 0.35648189 0.93302752
f 181/181/61 182/182/61 183/183/61
g pz_sofa_seating_indoor_03_victorian_c5_1_0__sculpted_back__back
v 0.06734514 -0.24990678 0.84606703
v 0.11764881 -0.32641708 0.87689375
v 0.37204167 -0.32453158 0.85864625
vt 0.441632446 0.700732291
vt 0.447355478 0.633902245
vt 0.476297669 0.635549188
vn 0.06231246 0.40796626 0.91086809
f 184/184/62 185/185/62 186/186/62
g pz_sofa_seating_indoor_03_victorian_c5_1_0__sculpted_back__back
v 0.37204167 -0.45546908 0.85864625
v 0.37204167 -0.32453158 0.85864625
v 0.11764881 -0.32641708 0.87689375
vt 0.476297669 0.521178192
vt 0.476297669 0.635549188
vt 0.447355478 0.633902245
vn 0.07154579 -0.00000000 0.99743732
f 187/187/63 188/188/63 189/189/63
g pz_sofa_seating_indoor_03_victorian_c5_1_0__sculpted_back__back
v 0.11764881 -0.32641708 0.87689375
v 0.11764881 -0.45735458 0.87689375
v 0.37204167 -0.45546908 0.85864625
vt 0.447355478 0.633902245
vt 0.447355478 0.519531250
vt 0.476297669 0.521178192
vn 0.07154579 0.00000000 0.99743732
f 190/190/64 191/191/64 192/192/64
g pz_sofa_seating_indoor_03_victorian_c5_1_0__sculpted_back__back
v 0.11764881 -0.32641708 0.87689375
v 0.06734514 -0.24990678 0.84606703
v -0.16692625 -0.24858896 0.83331340
vt 0.447355478 0.633902245
vt 0.441632446 0.700732291
vt 0.414979467 0.701883378
vn -0.04907786 0.34533702 0.93719460
f 193/193/65 194/194/65 195/195/65
g pz_sofa_seating_indoor_03_victorian_c5_1_0__sculpted_back__back
v -0.16692625 -0.24858896 0.83331340
v -0.13674405 -0.32453158 0.85864625
v 0.11764881 -0.32641708 0.87689375
vt 0.414979467 0.701883378
vt 0.418413286 0.635549188
vt 0.447355478 0.633902245
vn -0.06627613 0.29193969 0.95413767
f 196/196/66 197/197/66 198/198/66
g pz_sofa_seating_indoor_03_victorian_c5_1_0__sculpted_back__back
v 0.11764881 -0.45735458 0.87689375
v 0.11764881 -0.32641708 0.87689375
v -0.13674405 -0.32453158 0.85864625
vt 0.447355478 0.519531250
vt 0.447355478 0.633902245
vt 0.418413286 0.635549188
vn -0.07154579 0.00000000 0.99743732
f 199/199/67 200/200/67 201/201/67
g pz_sofa_seating_indoor_03_victorian_c5_1_0__sculpted_back__back
v -0.13674405 -0.32453158 0.85864625
v -0.13674405 -0.45546908 0.85864625
v 0.11764881 -0.45735458 0.87689375
vt 0.418413286 0.635549188
vt 0.418413286 0.521178192
vt 0.447355478 0.519531250
vn -0.07154579 0.00000000 0.99743732
f 202/202/68 203/203/68 204/204/68
g pz_sofa_seating_indoor_03_victorian_c5_1_0__sculpted_back__back
v -0.13674405 -0.32453158 0.85864625
v -0.16692625 -0.24858896 0.83331340
v -0.40119764 -0.24990678 0.84606703
vt 0.418413286 0.635549188
vt 0.414979467 0.701883378
vt 0.388326489 0.700732291
vn 0.04937262 0.33365405 0.94140178
f 205/205/69 206/206/69 207/207/69
g pz_sofa_seating_indoor_03_victorian_c5_1_0__sculpted_back__back
v -0.40119764 -0.24990678 0.84606703
v -0.39113690 -0.32641708 0.87689375
v -0.13674405 -0.32453158 0.85864625
vt 0.388326489 0.700732291
vt 0.389471096 0.633902245
vt 0.418413286 0.635549188
vn 0.06337201 0.38012281 0.92276250
f 208/208/70 209/209/70 210/210/70
g pz_sofa_seating_indoor_03_victorian_c5_1_0__sculpted_back__back
v -0.13674405 -0.45546908 0.85864625
v -0.13674405 -0.32453158 0.85864625
v -0.39113690 -0.32641708 0.87689375
vt 0.418413286 0.521178192
vt 0.418413286 0.635549188
vt 0.389471096 0.633902245
vn 0.07154579 -0.00000000 0.99743732
f 211/211/71 212/212/71 213/213/71
g pz_sofa_seating_indoor_03_victorian_c5_1_0__sculpted_back__back
v -0.39113690 -0.32641708 0.87689375
v -0.39113690 -0.45735458 0.87689375
v -0.13674405 -0.45546908 0.85864625
vt 0.389471096 0.633902245
vt 0.389471096 0.519531250
vt 0.418413286 0.521178192
vn 0.07154579 0.00000000 0.99743732
f 214/214/72 215/215/72 216/216/72
g pz_sofa_seating_indoor_03_victorian_c5_1_0__sculpted_back__back
v -0.39113690 -0.32641708 0.87689375
v -0.40119764 -0.24990678 0.84606703
v -0.50000000 -0.24935100 0.84068827
vt 0.389471096 0.633902245
vt 0.388326489 0.700732291
vt 0.377085777 0.701217753
vn -0.04848622 0.36778456 0.92864611
f 217/217/73 218/218/73 219/219/73
g pz_sofa_seating_indoor_03_victorian_c5_1_0__sculpted_back__back
v -0.50000000 -0.24935100 0.84068827
v -0.50000000 -0.32561022 0.86908504
v -0.39113690 -0.32641708 0.87689375
vt 0.377085777 0.701217753
vt 0.377085777 0.634607019
vt 0.389471096 0.633902245
vn -0.06449942 0.34823642 0.93518513
f 220/220/74 221/221/74 222/222/74
g pz_sofa_seating_indoor_03_victorian_c5_1_0__sculpted_back__back
v -0.39113690 -0.45735458 0.87689375
v -0.39113690 -0.32641708 0.87689375
v -0.50000000 -0.32561022 0.86908504
vt 0.389471096 0.519531250
vt 0.389471096 0.633902245
vt 0.377085777 0.634607019
vn -0.07154579 0.00000000 0.99743732
f 223/223/75 224/224/75 225/225/75
g pz_sofa_seating_indoor_03_victorian_c5_1_0__sculpted_back__back
v -0.50000000 -0.32561022 0.86908504
v -0.50000000 -0.45654772 0.86908504
v -0.39113690 -0.45735458 0.87689375
vt 0.377085777 0.634607019
vt 0.377085777 0.520236024
vt 0.389471096 0.519531250
vn -0.07154579 0.00000000 0.99743732
f 226/226/76 227/227/76 228/228/76
g pz_sofa_seating_indoor_03_victorian_c5_1_0__chester_side_1__arm
v 0.25681667 -0.41912083 0.06589375
v 0.25681667 -0.41912083 0.62345625
v 0.25681667 0.39269167 0.62345625
vt 0.769531250 0.519531250
vt 0.769531250 0.730468750
vt 0.980468750 0.730468750
vn -1.00000000 0.00000000 0.00000000
f 229/229/77 230/230/77 231/231/77
g pz_sofa_seating_indoor_03_victorian_c5_1_0__chester_side_1__arm
v 0.25681667 0.39269167 0.62345625
v 0.25681667 0.39269167 0.06589375
v 0.25681667 -0.41912083 0.06589375
vt 0.980468750 0.730468750
vt 0.980468750 0.519531250
vt 0.769531250 0.519531250
vn -1.00000000 0.00000000 -0.00000000
f 232/232/78 233/233/78 234/234/78
g pz_sofa_seating_indoor_03_victorian_c5_1_0__chester_side_1__arm
v 0.44327167 -0.41912083 0.62345625
v 0.44327167 -0.41912083 0.06589375
v 0.44327167 0.39269167 0.06589375
vt 0.519531250 0.730468750
vt 0.519531250 0.519531250
vt 0.730468750 0.519531250
vn 1.00000000 0.00000000 0.00000000
f 235/235/79 236/236/79 237/237/79
g pz_sofa_seating_indoor_03_victorian_c5_1_0__chester_side_1__arm
v 0.44327167 0.39269167 0.06589375
v 0.44327167 0.39269167 0.62345625
v 0.44327167 -0.41912083 0.62345625
vt 0.730468750 0.519531250
vt 0.730468750 0.730468750
vt 0.519531250 0.730468750
vn 1.00000000 0.00000000 -0.00000000
f 238/238/80 239/239/80 240/240/80
g pz_sofa_seating_indoor_03_victorian_c5_1_0__chester_side_1__arm
v 0.44327167 0.39269167 0.06589375
v 0.25681667 0.39269167 0.06589375
v 0.25681667 0.39269167 0.62345625
vt 0.480468750 0.269531250
vt 0.269531250 0.269531250
vt 0.269531250 0.480468750
vn 0.00000000 1.00000000 0.00000000
f 241/241/81 242/242/81 243/243/81
g pz_sofa_seating_indoor_03_victorian_c5_1_0__chester_side_1__arm
v 0.25681667 0.39269167 0.62345625
v 0.44327167 0.39269167 0.62345625
v 0.44327167 0.39269167 0.06589375
vt 0.269531250 0.480468750
vt 0.480468750 0.480468750
vt 0.480468750 0.269531250
vn -0.00000000 1.00000000 0.00000000
f 244/244/82 245/245/82 246/246/82
g pz_sofa_seating_indoor_03_victorian_c5_1_0__chester_side_1__arm
v 0.44327167 0.39269167 0.62345625
v 0.25681667 0.39269167 0.62345625
v 0.25681667 -0.41912083 0.62345625
vt 0.230468750 0.480468750
vt 0.230468750 0.269531250
vt 0.019531250 0.269531250
vn 0.00000000 0.00000000 1.00000000
f 247/247/83 248/248/83 249/249/83
g pz_sofa_seating_indoor_03_victorian_c5_1_0__chester_side_1__arm
v 0.25681667 -0.41912083 0.62345625
v 0.44327167 -0.41912083 0.62345625
v 0.44327167 0.39269167 0.62345625
vt 0.019531250 0.269531250
vt 0.019531250 0.480468750
vt 0.230468750 0.480468750
vn 0.00000000 0.00000000 1.00000000
f 250/250/84 251/251/84 252/252/84
g pz_sofa_seating_indoor_03_victorian_c5_1_0__chester_side_1__arm
v 0.44327167 -0.41912083 0.62345625
v 0.25681667 -0.41912083 0.62345625
v 0.25681667 -0.41912083 0.06589375
vt 0.480468750 0.480468750
vt 0.269531250 0.480468750
vt 0.269531250 0.269531250
vn -0.00000000 -1.00000000 0.00000000
f 253/253/85 254/254/85 255/255/85
g pz_sofa_seating_indoor_03_victorian_c5_1_0__chester_side_1__arm
v 0.25681667 -0.41912083 0.06589375
v 0.44327167 -0.41912083 0.06589375
v 0.44327167 -0.41912083 0.62345625
vt 0.269531250 0.269531250
vt 0.480468750 0.269531250
vt 0.480468750 0.480468750
vn 0.00000000 -1.00000000 0.00000000
f 256/256/86 257/257/86 258/258/86
g pz_sofa_seating_indoor_03_victorian_c5_1_0__chester_roll_1__arm
v 0.40399042 -0.39817083 0.68002287
v 0.45793667 -0.39817083 0.77045000
v 0.40399042 -0.39817083 0.86087713
vt 0.427734375 0.337601117
vt 0.480468750 0.409034933
vt 0.427734375 0.480468750
vn 0.00000000 -1.00000000 0.00000000
f 259/259/87 260/260/87 261/261/87
g pz_sofa_seating_indoor_03_victorian_c5_1_0__chester_roll_1__arm
v 0.40399042 -0.39817083 0.68002287
v 0.40399042 -0.39817083 0.86087713
v 0.29609792 -0.39817083 0.86087713
vt 0.427734375 0.337601117
vt 0.427734375 0.480468750
vt 0.322265625 0.480468750
vn 0.00000000 -1.00000000 0.00000000
f 262/262/88 263/263/88 264/264/88
g pz_sofa_seating_indoor_03_victorian_c5_1_0__chester_roll_1__arm
v 0.40399042 -0.39817083 0.68002287
v 0.29609792 -0.39817083 0.86087713
v 0.24215167 -0.39817083 0.77045000
vt 0.427734375 0.337601117
vt 0.322265625 0.480468750
vt 0.269531250 0.409034933
vn 0.00000000 -1.00000000 0.00000000
f 265/265/89 266/266/89 267/267/89
g pz_sofa_seating_indoor_03_victorian_c5_1_0__chester_roll_1__arm
v 0.24215167 -0.39817083 0.77045000
v 0.29609792 -0.39817083 0.68002287
v 0.40399042 -0.39817083 0.68002287
vt 0.269531250 0.409034933
vt 0.322265625 0.337601117
vt 0.427734375 0.337601117
vn 0.00000000 -1.00000000 0.00000000
f 268/268/90 269/269/90 270/270/90
g pz_sofa_seating_indoor_03_victorian_c5_1_0__chester_roll_1__arm
v 0.45793667 0.40840417 0.68428125
v 0.40399042 0.40840417 0.59385412
v 0.29609792 0.40840417 0.59385412
vt 0.480468750 0.340965067
vt 0.427734375 0.269531250
vt 0.322265625 0.269531250
vn 0.00000000 1.00000000 0.00000000
f 271/271/91 272/272/91 273/273/91
g pz_sofa_seating_indoor_03_victorian_c5_1_0__chester_roll_1__arm
v 0.45793667 0.40840417 0.68428125
v 0.29609792 0.40840417 0.59385412
v 0.24215167 0.40840417 0.68428125
vt 0.480468750 0.340965067
vt 0.322265625 0.269531250
vt 0.269531250 0.340965067
vn 0.00000000 1.00000000 0.00000000
f 274/274/92 275/275/92 276/276/92
g pz_sofa_seating_indoor_03_victorian_c5_1_0__chester_roll_1__arm
v 0.45793667 0.40840417 0.68428125
v 0.24215167 0.40840417 0.68428125
v 0.29609792 0.40840417 0.77470838
vt 0.480468750 0.340965067
vt 0.269531250 0.340965067
vt 0.322265625 0.412398883
vn 0.00000000 1.00000000 0.00000000
f 277/277/93 278/278/93 279/279/93
g pz_sofa_seating_indoor_03_victorian_c5_1_0__chester_roll_1__arm
v 0.29609792 0.40840417 0.77470838
v 0.40399042 0.40840417 0.77470838
v 0.45793667 0.40840417 0.68428125
vt 0.322265625 0.412398883
vt 0.427734375 0.412398883
vt 0.480468750 0.340965067
vn -0.00000000 1.00000000 0.00000000
f 280/280/94 281/281/94 282/282/94
g pz_sofa_seating_indoor_03_victorian_c5_1_0__chester_roll_1__arm
v 0.40399042 -0.39817083 0.86087713
v 0.45793667 -0.39817083 0.77045000
v 0.45793667 0.40840417 0.68428125
vt 0.519531250 0.730468750
vt 0.519531250 0.659034933
vt 0.730468750 0.590965067
vn 0.85750567 0.05465181 0.51156349
f 283/283/95 284/284/95 285/285/95
g pz_sofa_seating_indoor_03_victorian_c5_1_0__chester_roll_1__arm
v 0.45793667 0.40840417 0.68428125
v 0.40399042 0.40840417 0.77470838
v 0.40399042 -0.39817083 0.86087713
vt 0.730468750 0.590965067
vt 0.730468750 0.662398883
vt 0.519531250 0.730468750
vn 0.85750567 0.05465181 0.51156349
f 286/286/96 287/287/96 288/288/96
g pz_sofa_seating_indoor_03_victorian_c5_1_0__chester_roll_1__arm
v 0.29609792 -0.39817083 0.86087713
v 0.40399042 -0.39817083 0.86087713
v 0.40399042 0.40840417 0.77470838
vt 0.019531250 0.322265625
vt 0.019531250 0.427734375
vt 0.230468750 0.427734375
vn -0.00000000 0.10622842 0.99434175
f 289/289/97 290/290/97 291/291/97
g pz_sofa_seating_indoor_03_victorian_c5_1_0__chester_roll_1__arm
v 0.40399042 0.40840417 0.77470838
v 0.29609792 0.40840417 0.77470838
v 0.29609792 -0.39817083 0.86087713
vt 0.230468750 0.427734375
vt 0.230468750 0.322265625
vt 0.019531250 0.322265625
vn 0.00000000 0.10622842 0.99434175
f 292/292/98 293/293/98 294/294/98
g pz_sofa_seating_indoor_03_victorian_c5_1_0__chester_roll_1__arm
v 0.24215167 -0.39817083 0.77045000
v 0.29609792 -0.39817083 0.86087713
v 0.29609792 0.40840417 0.77470838
vt 0.769531250 0.659034933
vt 0.769531250 0.730468750
vt 0.980468750 0.662398883
vn -0.85750567 0.05465181 0.51156349
f 295/295/99 296/296/99 297/297/99
g pz_sofa_seating_indoor_03_victorian_c5_1_0__chester_roll_1__arm
v 0.29609792 0.40840417 0.77470838
v 0.24215167 0.40840417 0.68428125
v 0.24215167 -0.39817083 0.77045000
vt 0.980468750 0.662398883
vt 0.980468750 0.590965067
vt 0.769531250 0.659034933
vn -0.85750567 0.05465181 0.51156349
f 298/298/100 299/299/100 300/300/100
g pz_sofa_seating_indoor_03_victorian_c5_1_0__chester_roll_1__arm
v 0.29609792 -0.39817083 0.68002287
v 0.24215167 -0.39817083 0.77045000
v 0.24215167 0.40840417 0.68428125
vt 0.769531250 0.587601117
vt 0.769531250 0.659034933
vt 0.980468750 0.590965067
vn -0.85750567 -0.05465181 -0.51156349
f 301/301/101 302/302/101 303/303/101
g pz_sofa_seating_indoor_03_victorian_c5_1_0__chester_roll_1__arm
v 0.24215167 0.40840417 0.68428125
v 0.29609792 0.40840417 0.59385412
v 0.29609792 -0.39817083 0.68002287
vt 0.980468750 0.590965067
vt 0.980468750 0.519531250
vt 0.769531250 0.587601117
vn -0.85750567 -0.05465181 -0.51156349
f 304/304/102 305/305/102 306/306/102
g pz_sofa_seating_indoor_03_victorian_c5_1_0__chester_roll_1__arm
v 0.40399042 -0.39817083 0.68002287
v 0.29609792 -0.39817083 0.68002287
v 0.29609792 0.40840417 0.59385412
vt 0.019531250 0.427734375
vt 0.019531250 0.322265625
vt 0.230468750 0.322265625
vn -0.00000000 -0.10622842 -0.99434175
f 307/307/103 308/308/103 309/309/103
g pz_sofa_seating_indoor_03_victorian_c5_1_0__chester_roll_1__arm
v 0.29609792 0.40840417 0.59385412
v 0.40399042 0.40840417 0.59385412
v 0.40399042 -0.39817083 0.68002287
vt 0.230468750 0.322265625
vt 0.230468750 0.427734375
vt 0.019531250 0.427734375
vn 0.00000000 -0.10622842 -0.99434175
f 310/310/104 311/311/104 312/312/104
g pz_sofa_seating_indoor_03_victorian_c5_1_0__chester_roll_1__arm
v 0.45793667 -0.39817083 0.77045000
v 0.40399042 -0.39817083 0.68002287
v 0.40399042 0.40840417 0.59385412
vt 0.519531250 0.659034933
vt 0.519531250 0.587601117
vt 0.730468750 0.519531250
vn 0.85750567 -0.05465181 -0.51156349
f 313/313/105 314/314/105 315/315/105
g pz_sofa_seating_indoor_03_victorian_c5_1_0__chester_roll_1__arm
v 0.40399042 0.40840417 0.59385412
v 0.45793667 0.40840417 0.68428125
v 0.45793667 -0.39817083 0.77045000
vt 0.730468750 0.519531250
vt 0.730468750 0.590965067
vt 0.519531250 0.659034933
vn 0.85750567 -0.05465181 -0.51156349
f 316/316/106 317/317/106 318/318/106
g pz_sofa_seating_indoor_03_victorian_c5_1_0__foot_1_-1__frame
v 0.32228542 -0.36674583 0.08414125
v 0.32228542 -0.36674583 0.00000000
v 0.35109167 -0.39555208 0.00000000
vt 0.875000000 0.230468750
vt 0.875000000 0.019531250
vt 0.769531250 0.019531250
vn -0.70710678 -0.70710678 -0.00000000
f 319/319/107 320/320/107 321/321/107
g pz_sofa_seating_indoor_03_victorian_c5_1_0__foot_1_-1__frame
v 0.35109167 -0.39555208 0.00000000
v 0.35109167 -0.39555208 0.08414125
v 0.32228542 -0.36674583 0.08414125
vt 0.769531250 0.019531250
vt 0.769531250 0.230468750
vt 0.875000000 0.230468750
vn -0.70710678 -0.70710678 0.00000000
f 322/322/108 323/323/108 324/324/108
g pz_sofa_seating_indoor_03_victorian_c5_1_0__foot_1_-1__frame
v 0.35109167 -0.39555208 0.08414125
v 0.35109167 -0.39555208 0.00000000
v 0.37989792 -0.36674583 0.00000000
vt 0.875000000 0.230468750
vt 0.875000000 0.019531250
vt 0.980468750 0.019531250
vn 0.70710678 -0.70710678 0.00000000
f 325/325/109 326/326/109 327/327/109
g pz_sofa_seating_indoor_03_victorian_c5_1_0__foot_1_-1__frame
v 0.37989792 -0.36674583 0.00000000
v 0.37989792 -0.36674583 0.08414125
v 0.35109167 -0.39555208 0.08414125
vt 0.980468750 0.019531250
vt 0.980468750 0.230468750
vt 0.875000000 0.230468750
vn 0.70710678 -0.70710678 0.00000000
f 328/328/110 329/329/110 330/330/110
g pz_sofa_seating_indoor_03_victorian_c5_1_0__foot_1_-1__frame
v 0.37989792 -0.36674583 0.08414125
v 0.37989792 -0.36674583 0.00000000
v 0.35109167 -0.33793958 0.00000000
vt 0.980468750 0.230468750
vt 0.980468750 0.019531250
vt 0.875000000 0.019531250
vn 0.70710678 0.70710678 0.00000000
f 331/331/111 332/332/111 333/333/111
g pz_sofa_seating_indoor_03_victorian_c5_1_0__foot_1_-1__frame
v 0.35109167 -0.33793958 0.00000000
v 0.35109167 -0.33793958 0.08414125
v 0.37989792 -0.36674583 0.08414125
vt 0.875000000 0.019531250
vt 0.875000000 0.230468750
vt 0.980468750 0.230468750
vn 0.70710678 0.70710678 -0.00000000
f 334/334/112 335/335/112 336/336/112
g pz_sofa_seating_indoor_03_victorian_c5_1_0__foot_1_-1__frame
v 0.35109167 -0.33793958 0.08414125
v 0.35109167 -0.33793958 0.00000000
v 0.32228542 -0.36674583 0.00000000
vt 0.980468750 0.230468750
vt 0.980468750 0.019531250
vt 0.875000000 0.019531250
vn -0.70710678 0.70710678 0.00000000
f 337/337/113 338/338/113 339/339/113
g pz_sofa_seating_indoor_03_victorian_c5_1_0__foot_1_-1__frame
v 0.32228542 -0.36674583 0.00000000
v 0.32228542 -0.36674583 0.08414125
v 0.35109167 -0.33793958 0.08414125
vt 0.875000000 0.019531250
vt 0.875000000 0.230468750
vt 0.980468750 0.230468750
vn -0.70710678 0.70710678 0.00000000
f 340/340/114 341/341/114 342/342/114
g pz_sofa_seating_indoor_03_victorian_c5_1_0__foot_1_1__frame
v 0.32228542 0.33507917 0.08414125
v 0.32228542 0.33507917 0.00000000
v 0.35109167 0.30627292 0.00000000
vt 0.875000000 0.230468750
vt 0.875000000 0.019531250
vt 0.769531250 0.019531250
vn -0.70710678 -0.70710678 -0.00000000
f 343/343/115 344/344/115 345/345/115
g pz_sofa_seating_indoor_03_victorian_c5_1_0__foot_1_1__frame
v 0.35109167 0.30627292 0.00000000
v 0.35109167 0.30627292 0.08414125
v 0.32228542 0.33507917 0.08414125
vt 0.769531250 0.019531250
vt 0.769531250 0.230468750
vt 0.875000000 0.230468750
vn -0.70710678 -0.70710678 0.00000000
f 346/346/116 347/347/116 348/348/116
g pz_sofa_seating_indoor_03_victorian_c5_1_0__foot_1_1__frame
v 0.35109167 0.30627292 0.08414125
v 0.35109167 0.30627292 0.00000000
v 0.37989792 0.33507917 0.00000000
vt 0.875000000 0.230468750
vt 0.875000000 0.019531250
vt 0.980468750 0.019531250
vn 0.70710678 -0.70710678 0.00000000
f 349/349/117 350/350/117 351/351/117
g pz_sofa_seating_indoor_03_victorian_c5_1_0__foot_1_1__frame
v 0.37989792 0.33507917 0.00000000
v 0.37989792 0.33507917 0.08414125
v 0.35109167 0.30627292 0.08414125
vt 0.980468750 0.019531250
vt 0.980468750 0.230468750
vt 0.875000000 0.230468750
vn 0.70710678 -0.70710678 0.00000000
f 352/352/118 353/353/118 354/354/118
g pz_sofa_seating_indoor_03_victorian_c5_1_0__foot_1_1__frame
v 0.37989792 0.33507917 0.08414125
v 0.37989792 0.33507917 0.00000000
v 0.35109167 0.36388542 0.00000000
vt 0.875000000 0.230468750
vt 0.875000000 0.019531250
vt 0.980468750 0.019531250
vn 0.70710678 0.70710678 0.00000000
f 355/355/119 356/356/119 357/357/119
g pz_sofa_seating_indoor_03_victorian_c5_1_0__foot_1_1__frame
v 0.35109167 0.36388542 0.00000000
v 0.35109167 0.36388542 0.08414125
v 0.37989792 0.33507917 0.08414125
vt 0.980468750 0.019531250
vt 0.980468750 0.230468750
vt 0.875000000 0.230468750
vn 0.70710678 0.70710678 -0.00000000
f 358/358/120 359/359/120 360/360/120
g pz_sofa_seating_indoor_03_victorian_c5_1_0__foot_1_1__frame
v 0.35109167 0.36388542 0.08414125
v 0.35109167 0.36388542 0.00000000
v 0.32228542 0.33507917 0.00000000
vt 0.980468750 0.230468750
vt 0.980468750 0.019531250
vt 0.875000000 0.019531250
vn -0.70710678 0.70710678 0.00000000
f 361/361/121 362/362/121 363/363/121
g pz_sofa_seating_indoor_03_victorian_c5_1_0__foot_1_1__frame
v 0.32228542 0.33507917 0.00000000
v 0.32228542 0.33507917 0.08414125
v 0.35109167 0.36388542 0.08414125
vt 0.875000000 0.019531250
vt 0.875000000 0.230468750
vt 0.980468750 0.230468750
vn -0.70710678 0.70710678 0.00000000
f 364/364/122 365/365/122 366/366/122
