mtllib pz_sofa_seating_indoor_03_victorian_c6_0_0_fidelity_r1.mtl
o pz_sofa_seating_indoor_03_victorian_c6_0_0
usemtl UV_Base
g pz_sofa_seating_indoor_03_victorian_c6_0_0__bowed_wood_apron__frame
v -0.33902917 -0.34717083 0.35707500
v -0.33902917 -0.34717083 0.15525000
v 0.50000000 -0.34717083 0.15525000
vt 0.271041265 0.230468750
vt 0.271041265 0.019531250
vt 0.370741974 0.019531250
vn 0.00000000 -1.00000000 0.00000000
f 1/1/1 2/2/1 3/3/1
g pz_sofa_seating_indoor_03_victorian_c6_0_0__bowed_wood_apron__frame
v 0.50000000 -0.34717083 0.15525000
v 0.50000000 -0.34717083 0.35707500
v -0.33902917 -0.34717083 0.35707500
vt 0.370741974 0.019531250
vt 0.370741974 0.230468750
vt 0.271041265 0.230468750
vn 0.00000000 -1.00000000 0.00000000
f 4/4/2 5/5/2 6/6/2
g pz_sofa_seating_indoor_03_victorian_c6_0_0__bowed_wood_apron__frame
v 0.50000000 0.47020177 0.35707500
v 0.50000000 0.47020177 0.15525000
v 0.08129583 0.44949167 0.15525000
vt 0.370741974 0.230468750
vt 0.370741974 0.019531250
vt 0.320987920 0.019531250
vn -0.04940197 0.99877898 0.00000000
f 7/7/3 8/8/3 9/9/3
g pz_sofa_seating_indoor_03_victorian_c6_0_0__bowed_wood_apron__frame
v 0.08129583 0.44949167 0.15525000
v 0.08129583 0.44949167 0.35707500
v 0.50000000 0.47020177 0.35707500
vt 0.320987920 0.019531250
vt 0.320987920 0.230468750
vt 0.370741974 0.230468750
vn -0.04940197 0.99877898 0.00000000
f 10/10/4 11/11/4 12/12/4
g pz_sofa_seating_indoor_03_victorian_c6_0_0__bowed_wood_apron__frame
v 0.08129583 0.44949167 0.35707500
v 0.08129583 0.44949167 0.15525000
v -0.35173667 0.37617917 0.15525000
vt 0.320987920 0.230468750
vt 0.320987920 0.019531250
vt 0.269531250 0.019531250
vn -0.16692488 0.98596962 0.00000000
f 13/13/5 14/14/5 15/15/5
g pz_sofa_seating_indoor_03_victorian_c6_0_0__bowed_wood_apron__frame
v -0.35173667 0.37617917 0.15525000
v -0.35173667 0.37617917 0.35707500
v 0.08129583 0.44949167 0.35707500
vt 0.269531250 0.019531250
vt 0.269531250 0.230468750
vt 0.320987920 0.230468750
vn -0.16692488 0.98596962 0.00000000
f 16/16/6 17/17/6 18/18/6
g pz_sofa_seating_indoor_03_victorian_c6_0_0__bowed_wood_apron__frame
v -0.35173667 0.37617917 0.35707500
v -0.35173667 0.37617917 0.15525000
v -0.35173667 -0.32273333 0.15525000
vt 0.455800641 0.230468750
vt 0.455800641 0.019531250
vt 0.275824135 0.019531250
vn -1.00000000 0.00000000 -0.00000000
f 19/19/7 20/20/7 21/21/7
g pz_sofa_seating_indoor_03_victorian_c6_0_0__bowed_wood_apron__frame
v -0.35173667 -0.32273333 0.15525000
v -0.35173667 -0.32273333 0.35707500
v -0.35173667 0.37617917 0.35707500
vt 0.275824135 0.019531250
vt 0.275824135 0.230468750
vt 0.455800641 0.230468750
vn -1.00000000 0.00000000 0.00000000
f 22/22/8 23/23/8 24/24/8
g pz_sofa_seating_indoor_03_victorian_c6_0_0__bowed_wood_apron__frame
v -0.35173667 -0.32273333 0.35707500
v -0.35173667 -0.32273333 0.15525000
v -0.33902917 -0.34717083 0.15525000
vt 0.275824135 0.230468750
vt 0.275824135 0.019531250
vt 0.269531250 0.019531250
vn -0.88721680 -0.46135274 -0.00000000
f 25/25/9 26/26/9 27/27/9
g pz_sofa_seating_indoor_03_victorian_c6_0_0__bowed_wood_apron__frame
v -0.33902917 -0.34717083 0.15525000
v -0.33902917 -0.34717083 0.35707500
v -0.35173667 -0.32273333 0.35707500
vt 0.269531250 0.019531250
vt 0.269531250 0.230468750
vt 0.275824135 0.230468750
vn -0.88721680 -0.46135274 0.00000000
f 28/28/10 29/29/10 30/30/10
g pz_sofa_seating_indoor_03_victorian_c6_0_0__rear_body_bridge__frame
v -0.35173667 -0.31784583 0.15525000
v -0.35173667 -0.31784583 0.46575000
v 0.50000000 -0.31784583 0.46575000
vt 0.269531250 0.019531250
vt 0.269531250 0.230468750
vt 0.370741974 0.230468750
vn 0.00000000 1.00000000 0.00000000
f 31/31/11 32/32/11 33/33/11
g pz_sofa_seating_indoor_03_victorian_c6_0_0__rear_body_bridge__frame
v 0.50000000 -0.31784583 0.46575000
v 0.50000000 -0.31784583 0.15525000
v -0.35173667 -0.31784583 0.15525000
vt 0.370741974 0.230468750
vt 0.370741974 0.019531250
vt 0.269531250 0.019531250
vn 0.00000000 1.00000000 0.00000000
f 34/34/12 35/35/12 36/36/12
g pz_sofa_seating_indoor_03_victorian_c6_0_0__rear_body_bridge__frame
v -0.35173667 -0.36672083 0.46575000
v -0.35173667 -0.36672083 0.15525000
v 0.50000000 -0.36672083 0.15525000
vt 0.269531250 0.230468750
vt 0.269531250 0.019531250
vt 0.370741974 0.019531250
vn 0.00000000 -1.00000000 0.00000000
f 37/37/13 38/38/13 39/39/13
g pz_sofa_seating_indoor_03_victorian_c6_0_0__rear_body_bridge__frame
v 0.50000000 -0.36672083 0.15525000
v 0.50000000 -0.36672083 0.46575000
v -0.35173667 -0.36672083 0.46575000
vt 0.370741974 0.019531250
vt 0.370741974 0.230468750
vt 0.269531250 0.230468750
vn 0.00000000 -1.00000000 0.00000000
f 40/40/14 41/41/14 42/42/14
g pz_sofa_seating_indoor_03_victorian_c6_0_0__rear_body_bridge__frame
v 0.50000000 -0.36672083 0.46575000
v 0.50000000 -0.31784583 0.46575000
v -0.35173667 -0.31784583 0.46575000
vt 0.620741974 0.019531250
vt 0.620741974 0.230468750
vt 0.519531250 0.230468750
vn 0.00000000 -0.00000000 1.00000000
f 43/43/15 44/44/15 45/45/15
g pz_sofa_seating_indoor_03_victorian_c6_0_0__rear_body_bridge__frame
v -0.35173667 -0.31784583 0.46575000
v -0.35173667 -0.36672083 0.46575000
v 0.50000000 -0.36672083 0.46575000
vt 0.519531250 0.230468750
vt 0.519531250 0.019531250
vt 0.620741974 0.019531250
vn 0.00000000 0.00000000 1.00000000
f 46/46/16 47/47/16 48/48/16
g pz_sofa_seating_indoor_03_victorian_c6_0_0__rear_body_bridge__frame
v -0.35173667 -0.36672083 0.46575000
v -0.35173667 -0.31784583 0.46575000
v -0.35173667 -0.31784583 0.15525000
vt 0.269531250 0.230468750
vt 0.480468750 0.230468750
vt 0.480468750 0.019531250
vn -1.00000000 0.00000000 0.00000000
f 49/49/17 50/50/17 51/51/17
g pz_sofa_seating_indoor_03_victorian_c6_0_0__rear_body_bridge__frame
v -0.35173667 -0.31784583 0.15525000
v -0.35173667 -0.36672083 0.15525000
v -0.35173667 -0.36672083 0.46575000
vt 0.480468750 0.019531250
vt 0.269531250 0.019531250
vt 0.269531250 0.230468750
vn -1.00000000 0.00000000 0.00000000
f 52/52/18 53/53/18 54/54/18
g pz_sofa_seating_indoor_03_victorian_c6_0_0__seat_0__seat
v -0.15053051 -0.16431724 0.45022500
v -0.11717332 -0.19767443 0.45022500
v 0.48992749 -0.19767443 0.45022500
vt 0.022167970 0.783503782
vt 0.032349360 0.772167967
vt 0.217650643 0.772167967
vn 0.00000000 0.00000000 1.00000000
f 55/55/19 56/56/19 57/57/19
g pz_sofa_seating_indoor_03_victorian_c6_0_0__seat_0__seat
v -0.15053051 -0.16431724 0.45022500
v 0.48992749 -0.19767443 0.45022500
v 0.50000000 -0.18760192 0.45022500
vt 0.022167970 0.783503782
vt 0.217650643 0.772167967
vt 0.220725007 0.775590920
vn 0.00000000 0.00000000 1.00000000
f 58/58/20 59/59/20 60/60/20
g pz_sofa_seating_indoor_03_victorian_c6_0_0__seat_0__seat
v -0.15053051 -0.16431724 0.45022500
v 0.50000000 -0.18760192 0.45022500
v 0.50000000 0.39744775 0.45022500
vt 0.022167970 0.783503782
vt 0.220725007 0.775590920
vt 0.220725007 0.974409076
vn -0.00000000 0.00000000 1.00000000
f 61/61/21 62/62/21 63/63/21
g pz_sofa_seating_indoor_03_victorian_c6_0_0__seat_0__seat
v -0.15053051 -0.16431724 0.45022500
v 0.50000000 0.39744775 0.45022500
v 0.48992749 0.40752026 0.45022500
vt 0.022167970 0.783503782
vt 0.220725007 0.974409076
vt 0.217650643 0.977832030
vn 0.00000000 0.00000000 1.00000000
f 64/64/22 65/65/22 66/66/22
g pz_sofa_seating_indoor_03_victorian_c6_0_0__seat_0__seat
v -0.15053051 -0.16431724 0.45022500
v 0.48992749 0.40752026 0.45022500
v -0.11717332 0.40752026 0.45022500
vt 0.022167970 0.783503782
vt 0.217650643 0.977832030
vt 0.032349360 0.977832030
vn 0.00000000 0.00000000 1.00000000
f 67/67/23 68/68/23 69/69/23
g pz_sofa_seating_indoor_03_victorian_c6_0_0__seat_0__seat
v -0.11717332 0.40752026 0.45022500
v -0.15053051 0.37416307 0.45022500
v -0.15053051 -0.16431724 0.45022500
vt 0.032349360 0.977832030
vt 0.022167970 0.966496215
vt 0.022167970 0.783503782
vn 0.00000000 0.00000000 1.00000000
f 70/70/24 71/71/24 72/72/24
g pz_sofa_seating_indoor_03_victorian_c6_0_0__seat_0__seat
v -0.11717332 -0.19767443 0.45022500
v -0.12495667 -0.20543333 0.34672500
v 0.49771083 -0.20543333 0.34672500
vt 0.282349360 0.980468750
vt 0.279973700 0.769531250
vt 0.470026300 0.769531250
vn 0.00000000 -0.99720189 0.07475552
f 73/73/25 74/74/25 75/75/25
g pz_sofa_seating_indoor_03_victorian_c6_0_0__seat_0__seat
v 0.49771083 -0.20543333 0.34672500
v 0.48992749 -0.19767443 0.45022500
v -0.11717332 -0.19767443 0.45022500
vt 0.470026300 0.769531250
vt 0.467650643 0.980468750
vt 0.282349360 0.980468750
vn 0.00000000 -0.99720189 0.07475552
f 76/76/26 77/77/26 78/78/26
g pz_sofa_seating_indoor_03_victorian_c6_0_0__seat_0__seat
v 0.48992749 -0.19767443 0.45022500
v 0.49771083 -0.20543333 0.34672500
v 0.50000000 -0.20314417 0.34672500
vt 0.467650643 0.980468750
vt 0.470026300 0.769531250
vt 0.470725007 0.769531250
vn 0.70315386 -0.70315386 0.10559027
f 79/79/27 80/80/27 81/81/27
g pz_sofa_seating_indoor_03_victorian_c6_0_0__seat_0__seat
v 0.50000000 -0.20314417 0.34672500
v 0.50000000 -0.18760192 0.45022500
v 0.48992749 -0.19767443 0.45022500
vt 0.520309178 0.769531250
vt 0.525590920 0.980468750
vt 0.522167967 0.980468750
vn 0.70315386 -0.70315386 0.10559027
f 82/82/28 83/83/28 84/84/28
g pz_sofa_seating_indoor_03_victorian_c6_0_0__seat_0__seat
v 0.50000000 0.39744775 0.45022500
v 0.50000000 0.41299000 0.34672500
v 0.49771083 0.41527917 0.34672500
vt 0.470725007 0.980468750
vt 0.470725007 0.769531250
vt 0.470026300 0.769531250
vn 0.70315386 0.70315386 0.10559027
f 85/85/29 86/86/29 87/87/29
g pz_sofa_seating_indoor_03_victorian_c6_0_0__seat_0__seat
v 0.49771083 0.41527917 0.34672500
v 0.48992749 0.40752026 0.45022500
v 0.50000000 0.39744775 0.45022500
vt 0.730468750 0.769531250
vt 0.727832030 0.980468750
vt 0.724409076 0.980468750
vn 0.70315386 0.70315386 0.10559027
f 88/88/30 89/89/30 90/90/30
g pz_sofa_seating_indoor_03_victorian_c6_0_0__seat_0__seat
v 0.48992749 0.40752026 0.45022500
v 0.49771083 0.41527917 0.34672500
v -0.12495667 0.41527917 0.34672500
vt 0.467650643 0.980468750
vt 0.470026300 0.769531250
vt 0.279973700 0.769531250
vn 0.00000000 0.99720189 0.07475552
f 91/91/31 92/92/31 93/93/31
g pz_sofa_seating_indoor_03_victorian_c6_0_0__seat_0__seat
v -0.12495667 0.41527917 0.34672500
v -0.11717332 0.40752026 0.45022500
v 0.48992749 0.40752026 0.45022500
vt 0.279973700 0.769531250
vt 0.282349360 0.980468750
vt 0.467650643 0.980468750
vn 0.00000000 0.99720189 0.07475552
f 94/94/32 95/95/32 96/96/32
g pz_sofa_seating_indoor_03_victorian_c6_0_0__seat_0__seat
v -0.11717332 0.40752026 0.45022500
v -0.12495667 0.41527917 0.34672500
v -0.15916917 0.38106667 0.34672500
vt 0.727832030 0.980468750
vt 0.730468750 0.769531250
vt 0.718842274 0.769531250
vn -0.70315386 0.70315386 0.10559027
f 97/97/33 98/98/33 99/99/33
g pz_sofa_seating_indoor_03_victorian_c6_0_0__seat_0__seat
v -0.15916917 0.38106667 0.34672500
v -0.15053051 0.37416307 0.45022500
v -0.11717332 0.40752026 0.45022500
vt 0.718842274 0.769531250
vt 0.716496215 0.980468750
vt 0.727832030 0.980468750
vn -0.70315386 0.70315386 0.10559027
f 100/100/34 101/101/34 102/102/34
g pz_sofa_seating_indoor_03_victorian_c6_0_0__seat_0__seat
v -0.15053051 0.37416307 0.45022500
v -0.15916917 0.38106667 0.34672500
v -0.15916917 -0.17122083 0.34672500
vt 0.716496215 0.980468750
vt 0.718842274 0.769531250
vt 0.531157726 0.769531250
vn -0.99653487 0.00000000 0.08317606
f 103/103/35 104/104/35 105/105/35
g pz_sofa_seating_indoor_03_victorian_c6_0_0__seat_0__seat
v -0.15916917 -0.17122083 0.34672500
v -0.15053051 -0.16431724 0.45022500
v -0.15053051 0.37416307 0.45022500
vt 0.531157726 0.769531250
vt 0.533503782 0.980468750
vt 0.716496215 0.980468750
vn -0.99653487 0.00000000 0.08317606
f 106/106/36 107/107/36 108/108/36
g pz_sofa_seating_indoor_03_victorian_c6_0_0__seat_0__seat
v -0.15053051 -0.16431724 0.45022500
v -0.15916917 -0.17122083 0.34672500
v -0.12495667 -0.20543333 0.34672500
vt 0.533503782 0.980468750
vt 0.531157726 0.769531250
vt 0.519531250 0.769531250
vn -0.70315386 -0.70315386 0.10559027
f 109/109/37 110/110/37 111/111/37
g pz_sofa_seating_indoor_03_victorian_c6_0_0__seat_0__seat
v -0.12495667 -0.20543333 0.34672500
v -0.11717332 -0.19767443 0.45022500
v -0.15053051 -0.16431724 0.45022500
vt 0.279973700 0.769531250
vt 0.282349360 0.980468750
vt 0.272167970 0.980468750
vn -0.70315386 -0.70315386 0.10559027
f 112/112/38 113/113/38 114/114/38
g pz_sofa_seating_indoor_03_victorian_c6_0_0__sculpted_back__back
v -0.24732641 -0.15749589 0.52742710
v -0.26082917 -0.18209105 0.78784645
v -0.22932274 -0.18926464 0.86380210
vt 0.779519625 0.819245091
vt 0.777873411 0.933384007
vt 0.781714576 0.966674527
vn -0.00000000 0.99556974 0.09402603
f 115/115/39 116/116/39 117/117/39
g pz_sofa_seating_indoor_03_victorian_c6_0_0__sculpted_back__back
v -0.24732641 -0.15749589 0.52742710
v -0.22932274 -0.18926464 0.86380210
v -0.01070672 -0.18803488 0.85078113
vt 0.779519625 0.819245091
vt 0.781714576 0.966674527
vt 0.808367554 0.960967580
vn -0.00000000 0.99556974 0.09402603
f 118/118/40 119/119/40 120/120/40
g pz_sofa_seating_indoor_03_victorian_c6_0_0__sculpted_back__back
v -0.24732641 -0.15749589 0.52742710
v -0.01070672 -0.18803488 0.85078113
v 0.20790930 -0.18926464 0.86380210
vt 0.779519625 0.819245091
vt 0.808367554 0.960967580
vt 0.835020533 0.966674527
vn 0.00000000 0.99556974 0.09402603
f 121/121/41 122/122/41 123/123/41
g pz_sofa_seating_indoor_03_victorian_c6_0_0__sculpted_back__back
v -0.24732641 -0.15749589 0.52742710
v 0.20790930 -0.18926464 0.86380210
v 0.42652532 -0.18803488 0.85078113
vt 0.779519625 0.819245091
vt 0.835020533 0.966674527
vt 0.861673511 0.960967580
vn -0.00000000 0.99556974 0.09402603
f 124/124/42 125/125/42 126/126/42
g pz_sofa_seating_indoor_03_victorian_c6_0_0__sculpted_back__back
v -0.24732641 -0.15749589 0.52742710
v 0.42652532 -0.18803488 0.85078113
v 0.50000000 -0.18844819 0.85515735
vt 0.779519625 0.819245091
vt 0.861673511 0.960967580
vt 0.870631313 0.962885629
vn 0.00000000 0.99556974 0.09402603
f 127/127/43 128/128/43 129/129/43
g pz_sofa_seating_indoor_03_victorian_c6_0_0__sculpted_back__back
v 0.50000000 -0.18844819 0.85515735
v 0.50000000 -0.15749589 0.52742710
v -0.24732641 -0.15749589 0.52742710
vt 0.870631313 0.962885629
vt 0.870631313 0.819245091
vt 0.779519625 0.819245091
vn 0.00000000 0.99556974 0.09402603
f 130/130/44 131/131/44 132/132/44
g pz_sofa_seating_indoor_03_victorian_c6_0_0__sculpted_back__back
v -0.32925417 -0.37258583 0.78660000
v -0.31459167 -0.33739583 0.41400000
v 0.50000000 -0.33739583 0.41400000
vt 0.019531250 0.682837702
vt 0.021318856 0.519531250
vt 0.120631313 0.519531250
vn 0.00000000 -0.99556974 -0.09402603
f 133/133/45 134/134/45 135/135/45
g pz_sofa_seating_indoor_03_victorian_c6_0_0__sculpted_back__back
v -0.32925417 -0.37258583 0.78660000
v 0.50000000 -0.33739583 0.41400000
v 0.50000000 -0.38170425 0.88314789
vt 0.019531250 0.682837702
vt 0.120631313 0.519531250
vt 0.120631313 0.725153572
vn -0.00000000 -0.99556974 -0.09402603
f 136/136/46 137/137/46 138/138/46
g pz_sofa_seating_indoor_03_victorian_c6_0_0__sculpted_back__back
v -0.32925417 -0.37258583 0.78660000
v 0.50000000 -0.38170425 0.88314789
v 0.41713690 -0.38109008 0.87664500
vt 0.019531250 0.682837702
vt 0.120631313 0.725153572
vt 0.110528904 0.722303427
vn 0.00000000 -0.99556974 -0.09402603
f 139/139/47 140/140/47 141/141/47
g pz_sofa_seating_indoor_03_victorian_c6_0_0__sculpted_back__back
v -0.32925417 -0.37258583 0.78660000
v 0.41713690 -0.38109008 0.87664500
v 0.17974405 -0.38284958 0.89527500
vt 0.019531250 0.682837702
vt 0.110528904 0.722303427
vt 0.081586714 0.730468750
vn -0.00000000 -0.99556974 -0.09402603
f 142/142/48 143/143/48 144/144/48
g pz_sofa_seating_indoor_03_victorian_c6_0_0__sculpted_back__back
v -0.32925417 -0.37258583 0.78660000
v 0.17974405 -0.38284958 0.89527500
v -0.05764881 -0.38109008 0.87664500
vt 0.019531250 0.682837702
vt 0.081586714 0.730468750
vt 0.052644522 0.722303427
vn 0.00000000 -0.99556974 -0.09402603
f 145/145/49 146/146/49 147/147/49
g pz_sofa_seating_indoor_03_victorian_c6_0_0__sculpted_back__back
v -0.05764881 -0.38109008 0.87664500
v -0.29504167 -0.38284958 0.89527500
v -0.32925417 -0.37258583 0.78660000
vt 0.052644522 0.722303427
vt 0.023702331 0.730468750
vt 0.019531250 0.682837702
vn -0.00000000 -0.99556974 -0.09402603
f 148/148/50 149/149/50 150/150/50
g pz_sofa_seating_indoor_03_victorian_c6_0_0__sculpted_back__back
v -0.31459167 -0.21520833 0.41400000
v -0.24732641 -0.15749589 0.52742710
v 0.50000000 -0.15749589 0.52742710
vt 0.771318856 0.769531250
vt 0.779519625 0.819245091
vt 0.870631313 0.819245091
vn 0.00000000 0.89126559 -0.45348170
f 151/151/51 152/152/51 153/153/51
g pz_sofa_seating_indoor_03_victorian_c6_0_0__sculpted_back__back
v 0.50000000 -0.15749589 0.52742710
v 0.50000000 -0.21520833 0.41400000
v -0.31459167 -0.21520833 0.41400000
vt 0.870631313 0.819245091
vt 0.870631313 0.769531250
vt 0.771318856 0.769531250
vn 0.00000000 0.89126559 -0.45348170
f 154/154/52 155/155/52 156/156/52
g pz_sofa_seating_indoor_03_victorian_c6_0_0__sculpted_back__back
v 0.50000000 -0.25951675 0.88314789
v 0.50000000 -0.18844819 0.85515735
v 0.42652532 -0.18803488 0.85078113
vt 0.370631313 0.634974307
vt 0.370631313 0.701496512
vt 0.361673511 0.701883382
vn -0.05328043 0.36593419 0.92911429
f 157/157/53 158/158/53 159/159/53
g pz_sofa_seating_indoor_03_victorian_c6_0_0__sculpted_back__back
v 0.42652532 -0.18803488 0.85078113
v 0.41713690 -0.25890258 0.87664500
v 0.50000000 -0.25951675 0.88314789
vt 0.361673511 0.701883382
vt 0.360528904 0.635549187
vt 0.370631313 0.634974307
vn -0.07070132 0.35023518 0.93398964
f 160/160/54 161/161/54 162/162/54
g pz_sofa_seating_indoor_03_victorian_c6_0_0__sculpted_back__back
v 0.50000000 -0.38170425 0.88314789
v 0.50000000 -0.25951675 0.88314789
v 0.41713690 -0.25890258 0.87664500
vt 0.370631313 0.520603312
vt 0.370631313 0.634974307
vt 0.360528904 0.635549187
vn -0.07823696 0.00000000 0.99693479
f 163/163/55 164/164/55 165/165/55
g pz_sofa_seating_indoor_03_victorian_c6_0_0__sculpted_back__back
v 0.41713690 -0.25890258 0.87664500
v 0.41713690 -0.38109008 0.87664500
v 0.50000000 -0.38170425 0.88314789
vt 0.360528904 0.635549187
vt 0.360528904 0.521178192
vt 0.370631313 0.520603312
vn -0.07823696 0.00000000 0.99693479
f 166/166/56 167/167/56 168/168/56
g pz_sofa_seating_indoor_03_victorian_c6_0_0__sculpted_back__back
v 0.41713690 -0.25890258 0.87664500
v 0.42652532 -0.18803488 0.85078113
v 0.20790930 -0.18926464 0.86380210
vt 0.360528904 0.635549187
vt 0.361673511 0.701883382
vt 0.335020533 0.700732291
vn 0.05411530 0.33600439 0.94030452
f 169/169/57 170/170/57 171/171/57
g pz_sofa_seating_indoor_03_victorian_c6_0_0__sculpted_back__back
v 0.20790930 -0.18926464 0.86380210
v 0.17974405 -0.26066208 0.89527500
v 0.41713690 -0.25890258 0.87664500
vt 0.335020533 0.700732291
vt 0.331586714 0.633902245
vt 0.360528904 0.635549187
vn 0.06959747 0.37926768 0.92266582
f 172/172/58 173/173/58 174/174/58
g pz_sofa_seating_indoor_03_victorian_c6_0_0__sculpted_back__back
v 0.41713690 -0.38109008 0.87664500
v 0.41713690 -0.25890258 0.87664500
v 0.17974405 -0.26066208 0.89527500
vt 0.360528904 0.521178192
vt 0.360528904 0.635549187
vt 0.331586714 0.633902245
vn 0.07823696 -0.00000000 0.99693479
f 175/175/59 176/176/59 177/177/59
g pz_sofa_seating_indoor_03_victorian_c6_0_0__sculpted_back__back
v 0.17974405 -0.26066208 0.89527500
v 0.17974405 -0.38284958 0.89527500
v 0.41713690 -0.38109008 0.87664500
vt 0.331586714 0.633902245
vt 0.331586714 0.519531250
vt 0.360528904 0.521178192
vn 0.07823696 0.00000000 0.99693479
f 178/178/60 179/179/60 180/180/60
g pz_sofa_seating_indoor_03_victorian_c6_0_0__sculpted_back__back
v 0.17974405 -0.26066208 0.89527500
v 0.20790930 -0.18926464 0.86380210
v -0.01070672 -0.18803488 0.85078113
vt 0.331586714 0.633902245
vt 0.335020533 0.700732291
vt 0.308367554 0.701883382
vn -0.05160952 0.41980072 0.90614779
f 181/181/61 182/182/61 183/183/61
g pz_sofa_seating_indoor_03_victorian_c6_0_0__sculpted_back__back
v -0.01070672 -0.18803488 0.85078113
v -0.05764881 -0.25890258 0.87664500
v 0.17974405 -0.26066208 0.89527500
vt 0.308367554 0.701883382
vt 0.302644522 0.635549187
vt 0.331586714 0.633902245
vn -0.06947731 0.38230299 0.92142136
f 184/184/62 185/185/62 186/186/62
g pz_sofa_seating_indoor_03_victorian_c6_0_0__sculpted_back__back
v 0.17974405 -0.38284958 0.89527500
v 0.17974405 -0.26066208 0.89527500
v -0.05764881 -0.25890258 0.87664500
vt 0.331586714 0.519531250
vt 0.331586714 0.633902245
vt 0.302644522 0.635549187
vn -0.07823696 0.00000000 0.99693479
f 187/187/63 188/188/63 189/189/63
g pz_sofa_seating_indoor_03_victorian_c6_0_0__sculpted_back__back
v -0.05764881 -0.25890258 0.87664500
v -0.05764881 -0.38109008 0.87664500
v 0.17974405 -0.38284958 0.89527500
vt 0.302644522 0.635549187
vt 0.302644522 0.521178192
vt 0.331586714 0.519531250
vn -0.07823696 0.00000000 0.99693479
f 190/190/64 191/191/64 192/192/64
g pz_sofa_seating_indoor_03_victorian_c6_0_0__sculpted_back__back
v -0.05764881 -0.25890258 0.87664500
v -0.01070672 -0.18803488 0.85078113
v -0.22932274 -0.18926464 0.86380210
vt 0.302644522 0.635549187
vt 0.308367554 0.701883382
vt 0.281714576 0.700732291
vn 0.05478626 0.31010210 0.94912336
f 193/193/65 194/194/65 195/195/65
g pz_sofa_seating_indoor_03_victorian_c6_0_0__sculpted_back__back
v -0.22932274 -0.18926464 0.86380210
v -0.29504167 -0.26066208 0.89527500
v -0.05764881 -0.25890258 0.87664500
vt 0.281714576 0.700732291
vt 0.273702331 0.633902245
vt 0.302644522 0.635549187
vn 0.07081751 0.34704944 0.93516927
f 196/196/66 197/197/66 198/198/66
g pz_sofa_seating_indoor_03_victorian_c6_0_0__sculpted_back__back
v -0.05764881 -0.38109008 0.87664500
v -0.05764881 -0.25890258 0.87664500
v -0.29504167 -0.26066208 0.89527500
vt 0.302644522 0.521178192
vt 0.302644522 0.635549187
vt 0.273702331 0.633902245
vn 0.07823696 -0.00000000 0.99693479
f 199/199/67 200/200/67 201/201/67
g pz_sofa_seating_indoor_03_victorian_c6_0_0__sculpted_back__back
v -0.29504167 -0.26066208 0.89527500
v -0.29504167 -0.38284958 0.89527500
v -0.05764881 -0.38109008 0.87664500
vt 0.273702331 0.633902245
vt 0.273702331 0.519531250
vt 0.302644522 0.521178192
vn 0.07823696 0.00000000 0.99693479
f 202/202/68 203/203/68 204/204/68
g pz_sofa_seating_indoor_03_victorian_c6_0_0__sculpted_back__back
v -0.29504167 -0.26066208 0.89527500
v -0.22932274 -0.18926464 0.86380210
v -0.26082917 -0.18209105 0.78784645
vt 0.773702331 0.980468750
vt 0.781714576 0.966674527
vt 0.777873411 0.933384007
vn -0.62023973 0.71404751 0.32471346
f 205/205/69 206/206/69 207/207/69
g pz_sofa_seating_indoor_03_victorian_c6_0_0__sculpted_back__back
v -0.26082917 -0.18209105 0.78784645
v -0.32925417 -0.25039833 0.78660000
v -0.29504167 -0.26066208 0.89527500
vt 0.457446977 0.683384007
vt 0.393509409 0.682837702
vt 0.383902245 0.730468750
vn -0.68110576 0.67719978 0.27837994
f 208/208/70 209/209/70 210/210/70
g pz_sofa_seating_indoor_03_victorian_c6_0_0__sculpted_back__back
v -0.29504167 -0.38284958 0.89527500
v -0.29504167 -0.26066208 0.89527500
v -0.32925417 -0.25039833 0.78660000
vt 0.269531250 0.730468750
vt 0.383902245 0.730468750
vt 0.393509409 0.682837702
vn -0.95384925 0.00000000 0.30028588
f 211/211/71 212/212/71 213/213/71
g pz_sofa_seating_indoor_03_victorian_c6_0_0__sculpted_back__back
v -0.32925417 -0.25039833 0.78660000
v -0.32925417 -0.37258583 0.78660000
v -0.29504167 -0.38284958 0.89527500
vt 0.393509409 0.682837702
vt 0.279138414 0.682837702
vt 0.269531250 0.730468750
vn -0.95384925 0.00000000 0.30028588
f 214/214/72 215/215/72 216/216/72
g pz_sofa_seating_indoor_03_victorian_c6_0_0__sculpted_back__back
v -0.32925417 -0.25039833 0.78660000
v -0.26082917 -0.18209105 0.78784645
v -0.24732641 -0.15749589 0.52742710
vt 0.769531250 0.932837702
vt 0.777873411 0.933384007
vt 0.779519625 0.819245091
vn -0.70645153 0.70711879 0.03015390
f 217/217/73 218/218/73 219/219/73
g pz_sofa_seating_indoor_03_victorian_c6_0_0__sculpted_back__back
v -0.24732641 -0.15749589 0.52742710
v -0.31459167 -0.21520833 0.41400000
v -0.32925417 -0.25039833 0.78660000
vt 0.779519625 0.819245091
vt 0.771318856 0.769531250
vt 0.769531250 0.932837702
vn -0.68966216 0.72296168 0.04114023
f 220/220/74 221/221/74 222/222/74
g pz_sofa_seating_indoor_03_victorian_c6_0_0__sculpted_back__back
v -0.32925417 -0.37258583 0.78660000
v -0.32925417 -0.25039833 0.78660000
v -0.31459167 -0.21520833 0.41400000
vt 0.279138414 0.682837702
vt 0.393509409 0.682837702
vt 0.426448255 0.519531250
vn -0.99922661 0.00000000 -0.03932142
f 223/223/75 224/224/75 225/225/75
g pz_sofa_seating_indoor_03_victorian_c6_0_0__sculpted_back__back
v -0.31459167 -0.21520833 0.41400000
v -0.31459167 -0.33739583 0.41400000
v -0.32925417 -0.37258583 0.78660000
vt 0.426448255 0.519531250
vt 0.312077260 0.519531250
vt 0.279138414 0.682837702
vn -0.99922661 -0.00000000 -0.03932142
f 226/226/76 227/227/76 228/228/76
g pz_sofa_seating_indoor_03_victorian_c6_0_0__chester_side_-1__arm
v -0.36151167 -0.34717083 0.15525000
v -0.36151167 -0.34717083 0.63652500
v -0.36151167 0.41039167 0.63652500
vt 0.519531250 0.519531250
vt 0.519531250 0.730468750
vt 0.730468750 0.730468750
vn -1.00000000 0.00000000 0.00000000
f 229/229/77 230/230/77 231/231/77
g pz_sofa_seating_indoor_03_victorian_c6_0_0__chester_side_-1__arm
v -0.36151167 0.41039167 0.63652500
v -0.36151167 0.41039167 0.15525000
v -0.36151167 -0.34717083 0.15525000
vt 0.730468750 0.730468750
vt 0.730468750 0.519531250
vt 0.519531250 0.519531250
vn -1.00000000 0.00000000 -0.00000000
f 232/232/78 233/233/78 234/234/78
g pz_sofa_seating_indoor_03_victorian_c6_0_0__chester_side_-1__arm
v -0.18751667 -0.34717083 0.63652500
v -0.18751667 -0.34717083 0.15525000
v -0.18751667 0.41039167 0.15525000
vt 0.769531250 0.730468750
vt 0.769531250 0.519531250
vt 0.980468750 0.519531250
vn 1.00000000 0.00000000 0.00000000
f 235/235/79 236/236/79 237/237/79
g pz_sofa_seating_indoor_03_victorian_c6_0_0__chester_side_-1__arm
v -0.18751667 0.41039167 0.15525000
v -0.18751667 0.41039167 0.63652500
v -0.18751667 -0.34717083 0.63652500
vt 0.980468750 0.519531250
vt 0.980468750 0.730468750
vt 0.769531250 0.730468750
vn 1.00000000 0.00000000 -0.00000000
f 238/238/80 239/239/80 240/240/80
g pz_sofa_seating_indoor_03_victorian_c6_0_0__chester_side_-1__arm
v -0.18751667 0.41039167 0.15525000
v -0.36151167 0.41039167 0.15525000
v -0.36151167 0.41039167 0.63652500
vt 0.480468750 0.269531250
vt 0.269531250 0.269531250
vt 0.269531250 0.480468750
vn 0.00000000 1.00000000 0.00000000
f 241/241/81 242/242/81 243/243/81
g pz_sofa_seating_indoor_03_victorian_c6_0_0__chester_side_-1__arm
v -0.36151167 0.41039167 0.63652500
v -0.18751667 0.41039167 0.63652500
v -0.18751667 0.41039167 0.15525000
vt 0.269531250 0.480468750
vt 0.480468750 0.480468750
vt 0.480468750 0.269531250
vn -0.00000000 1.00000000 0.00000000
f 244/244/82 245/245/82 246/246/82
g pz_sofa_seating_indoor_03_victorian_c6_0_0__chester_side_-1__arm
v -0.18751667 0.41039167 0.63652500
v -0.36151167 0.41039167 0.63652500
v -0.36151167 -0.34717083 0.63652500
vt 0.230468750 0.480468750
vt 0.230468750 0.269531250
vt 0.019531250 0.269531250
vn 0.00000000 0.00000000 1.00000000
f 247/247/83 248/248/83 249/249/83
g pz_sofa_seating_indoor_03_victorian_c6_0_0__chester_side_-1__arm
v -0.36151167 -0.34717083 0.63652500
v -0.18751667 -0.34717083 0.63652500
v -0.18751667 0.41039167 0.63652500
vt 0.019531250 0.269531250
vt 0.019531250 0.480468750
vt 0.230468750 0.480468750
vn 0.00000000 0.00000000 1.00000000
f 250/250/84 251/251/84 252/252/84
g pz_sofa_seating_indoor_03_victorian_c6_0_0__chester_side_-1__arm
v -0.18751667 -0.34717083 0.63652500
v -0.36151167 -0.34717083 0.63652500
v -0.36151167 -0.34717083 0.15525000
vt 0.480468750 0.480468750
vt 0.269531250 0.480468750
vt 0.269531250 0.269531250
vn -0.00000000 -1.00000000 0.00000000
f 253/253/85 254/254/85 255/255/85
g pz_sofa_seating_indoor_03_victorian_c6_0_0__chester_side_-1__arm
v -0.36151167 -0.34717083 0.15525000
v -0.18751667 -0.34717083 0.15525000
v -0.18751667 -0.34717083 0.63652500
vt 0.269531250 0.269531250
vt 0.480468750 0.269531250
vt 0.480468750 0.480468750
vn 0.00000000 -1.00000000 0.00000000
f 256/256/86 257/257/86 258/258/86
g pz_sofa_seating_indoor_03_victorian_c6_0_0__chester_roll_-1__arm
v -0.21342042 -0.32762083 0.67455796
v -0.15232667 -0.32762083 0.78660000
v -0.21342042 -0.32762083 0.89864204
vt 0.427734375 0.328998280
vt 0.480468750 0.404733515
vt 0.427734375 0.480468750
vn 0.00000000 -1.00000000 0.00000000
f 259/259/87 260/260/87 261/261/87
g pz_sofa_seating_indoor_03_victorian_c6_0_0__chester_roll_-1__arm
v -0.21342042 -0.32762083 0.67455796
v -0.21342042 -0.32762083 0.89864204
v -0.33560792 -0.32762083 0.89864204
vt 0.427734375 0.328998280
vt 0.427734375 0.480468750
vt 0.322265625 0.480468750
vn 0.00000000 -1.00000000 0.00000000
f 262/262/88 263/263/88 264/264/88
g pz_sofa_seating_indoor_03_victorian_c6_0_0__chester_roll_-1__arm
v -0.21342042 -0.32762083 0.67455796
v -0.33560792 -0.32762083 0.89864204
v -0.39670167 -0.32762083 0.78660000
vt 0.427734375 0.328998280
vt 0.322265625 0.480468750
vt 0.269531250 0.404733515
vn 0.00000000 -1.00000000 0.00000000
f 265/265/89 266/266/89 267/267/89
g pz_sofa_seating_indoor_03_victorian_c6_0_0__chester_roll_-1__arm
v -0.39670167 -0.32762083 0.78660000
v -0.33560792 -0.32762083 0.67455796
v -0.21342042 -0.32762083 0.67455796
vt 0.269531250 0.404733515
vt 0.322265625 0.328998280
vt 0.427734375 0.328998280
vn 0.00000000 -1.00000000 0.00000000
f 268/268/90 269/269/90 270/270/90
g pz_sofa_seating_indoor_03_victorian_c6_0_0__chester_roll_-1__arm
v -0.15232667 0.42505417 0.69862500
v -0.21342042 0.42505417 0.58658296
v -0.33560792 0.42505417 0.58658296
vt 0.480468750 0.345266485
vt 0.427734375 0.269531250
vt 0.322265625 0.269531250
vn 0.00000000 1.00000000 0.00000000
f 271/271/91 272/272/91 273/273/91
g pz_sofa_seating_indoor_03_victorian_c6_0_0__chester_roll_-1__arm
v -0.15232667 0.42505417 0.69862500
v -0.33560792 0.42505417 0.58658296
v -0.39670167 0.42505417 0.69862500
vt 0.480468750 0.345266485
vt 0.322265625 0.269531250
vt 0.269531250 0.345266485
vn 0.00000000 1.00000000 0.00000000
f 274/274/92 275/275/92 276/276/92
g pz_sofa_seating_indoor_03_victorian_c6_0_0__chester_roll_-1__arm
v -0.15232667 0.42505417 0.69862500
v -0.39670167 0.42505417 0.69862500
v -0.33560792 0.42505417 0.81066704
vt 0.480468750 0.345266485
vt 0.269531250 0.345266485
vt 0.322265625 0.421001720
vn 0.00000000 1.00000000 0.00000000
f 277/277/93 278/278/93 279/279/93
g pz_sofa_seating_indoor_03_victorian_c6_0_0__chester_roll_-1__arm
v -0.33560792 0.42505417 0.81066704
v -0.21342042 0.42505417 0.81066704
v -0.15232667 0.42505417 0.69862500
vt 0.322265625 0.421001720
vt 0.427734375 0.421001720
vt 0.480468750 0.345266485
vn -0.00000000 1.00000000 0.00000000
f 280/280/94 281/281/94 282/282/94
g pz_sofa_seating_indoor_03_victorian_c6_0_0__chester_roll_-1__arm
v -0.21342042 -0.32762083 0.89864204
v -0.15232667 -0.32762083 0.78660000
v -0.15232667 0.42505417 0.69862500
vt 0.769531250 0.730468750
vt 0.769531250 0.654733515
vt 0.980468750 0.595266485
vn 0.87659050 0.05586816 0.47798311
f 283/283/95 284/284/95 285/285/95
g pz_sofa_seating_indoor_03_victorian_c6_0_0__chester_roll_-1__arm
v -0.15232667 0.42505417 0.69862500
v -0.21342042 0.42505417 0.81066704
v -0.21342042 -0.32762083 0.89864204
vt 0.980468750 0.595266485
vt 0.980468750 0.671001720
vt 0.769531250 0.730468750
vn 0.87659050 0.05586816 0.47798311
f 286/286/96 287/287/96 288/288/96
g pz_sofa_seating_indoor_03_victorian_c6_0_0__chester_roll_-1__arm
v -0.33560792 -0.32762083 0.89864204
v -0.21342042 -0.32762083 0.89864204
v -0.21342042 0.42505417 0.81066704
vt 0.019531250 0.322265625
vt 0.019531250 0.427734375
vt 0.230468750 0.427734375
vn -0.00000000 0.11609280 0.99323837
f 289/289/97 290/290/97 291/291/97
g pz_sofa_seating_indoor_03_victorian_c6_0_0__chester_roll_-1__arm
v -0.21342042 0.42505417 0.81066704
v -0.33560792 0.42505417 0.81066704
v -0.33560792 -0.32762083 0.89864204
vt 0.230468750 0.427734375
vt 0.230468750 0.322265625
vt 0.019531250 0.322265625
vn 0.00000000 0.11609280 0.99323837
f 292/292/98 293/293/98 294/294/98
g pz_sofa_seating_indoor_03_victorian_c6_0_0__chester_roll_-1__arm
v -0.39670167 -0.32762083 0.78660000
v -0.33560792 -0.32762083 0.89864204
v -0.33560792 0.42505417 0.81066704
vt 0.519531250 0.654733515
vt 0.519531250 0.730468750
vt 0.730468750 0.671001720
vn -0.87659050 0.05586816 0.47798311
f 295/295/99 296/296/99 297/297/99
g pz_sofa_seating_indoor_03_victorian_c6_0_0__chester_roll_-1__arm
v -0.33560792 0.42505417 0.81066704
v -0.39670167 0.42505417 0.69862500
v -0.39670167 -0.32762083 0.78660000
vt 0.730468750 0.671001720
vt 0.730468750 0.595266485
vt 0.519531250 0.654733515
vn -0.87659050 0.05586816 0.47798311
f 298/298/100 299/299/100 300/300/100
g pz_sofa_seating_indoor_03_victorian_c6_0_0__chester_roll_-1__arm
v -0.33560792 -0.32762083 0.67455796
v -0.39670167 -0.32762083 0.78660000
v -0.39670167 0.42505417 0.69862500
vt 0.519531250 0.578998280
vt 0.519531250 0.654733515
vt 0.730468750 0.595266485
vn -0.87659050 -0.05586816 -0.47798311
f 301/301/101 302/302/101 303/303/101
g pz_sofa_seating_indoor_03_victorian_c6_0_0__chester_roll_-1__arm
v -0.39670167 0.42505417 0.69862500
v -0.33560792 0.42505417 0.58658296
v -0.33560792 -0.32762083 0.67455796
vt 0.730468750 0.595266485
vt 0.730468750 0.519531250
vt 0.519531250 0.578998280
vn -0.87659050 -0.05586816 -0.47798311
f 304/304/102 305/305/102 306/306/102
g pz_sofa_seating_indoor_03_victorian_c6_0_0__chester_roll_-1__arm
v -0.21342042 -0.32762083 0.67455796
v -0.33560792 -0.32762083 0.67455796
v -0.33560792 0.42505417 0.58658296
vt 0.019531250 0.427734375
vt 0.019531250 0.322265625
vt 0.230468750 0.322265625
vn -0.00000000 -0.11609280 -0.99323837
f 307/307/103 308/308/103 309/309/103
g pz_sofa_seating_indoor_03_victorian_c6_0_0__chester_roll_-1__arm
v -0.33560792 0.42505417 0.58658296
v -0.21342042 0.42505417 0.58658296
v -0.21342042 -0.32762083 0.67455796
vt 0.230468750 0.322265625
vt 0.230468750 0.427734375
vt 0.019531250 0.427734375
vn 0.00000000 -0.11609280 -0.99323837
f 310/310/104 311/311/104 312/312/104
g pz_sofa_seating_indoor_03_victorian_c6_0_0__chester_roll_-1__arm
v -0.15232667 -0.32762083 0.78660000
v -0.21342042 -0.32762083 0.67455796
v -0.21342042 0.42505417 0.58658296
vt 0.769531250 0.654733515
vt 0.769531250 0.578998280
vt 0.980468750 0.519531250
vn 0.87659050 -0.05586816 -0.47798311
f 313/313/105 314/314/105 315/315/105
g pz_sofa_seating_indoor_03_victorian_c6_0_0__chester_roll_-1__arm
v -0.21342042 0.42505417 0.58658296
v -0.15232667 0.42505417 0.69862500
v -0.15232667 -0.32762083 0.78660000
vt 0.980468750 0.519531250
vt 0.980468750 0.595266485
vt 0.769531250 0.654733515
vn 0.87659050 -0.05586816 -0.47798311
f 316/316/106 317/317/106 318/318/106
g pz_sofa_seating_indoor_03_victorian_c6_0_0__curved_foot_-1_-1_0__frame
v -0.25937613 -0.31678908 0.08280000
v -0.29358863 -0.32851908 0.00000000
v -0.28314420 -0.30427099 -0.00868939
vt 0.820320970 0.212172278
vt 0.769531250 0.037827722
vt 0.874523040 0.019531250
vn 0.84043893 -0.46294528 -0.28168078
f 319/319/107 320/320/107 321/321/107
g pz_sofa_seating_indoor_03_victorian_c6_0_0__curved_foot_-1_-1_0__frame
v -0.28314420 -0.30427099 -0.00868939
v -0.24893170 -0.29254099 0.07411061
v -0.25937613 -0.31678908 0.08280000
vt 0.874523040 0.019531250
vt 0.925312760 0.193875807
vt 0.820320970 0.212172278
vn 0.84043893 -0.46294528 -0.28168078
f 322/322/108 323/323/108 324/324/108
g pz_sofa_seating_indoor_03_victorian_c6_0_0__curved_foot_-1_-1_0__frame
v -0.24893170 -0.29254099 0.07411061
v -0.28314420 -0.30427099 -0.00868939
v -0.30626971 -0.29153259 -0.00000000
vt 0.980468750 0.193875807
vt 0.874000168 0.019531250
vt 0.802034066 0.037827722
vn 0.37957666 0.88123634 -0.28168078
f 325/325/109 326/326/109 327/327/109
g pz_sofa_seating_indoor_03_victorian_c6_0_0__curved_foot_-1_-1_0__frame
v -0.30626971 -0.29153259 -0.00000000
v -0.27205721 -0.27980259 0.08280000
v -0.24893170 -0.29254099 0.07411061
vt 0.802034066 0.037827722
vt 0.908502648 0.212172278
vt 0.980468750 0.193875807
vn 0.37957666 0.88123634 -0.28168078
f 328/328/110 329/329/110 330/330/110
g pz_sofa_seating_indoor_03_victorian_c6_0_0__curved_foot_-1_-1_0__frame
v -0.27205721 -0.27980259 0.08280000
v -0.30626971 -0.29153259 -0.00000000
v -0.31671413 -0.31578068 0.00868939
vt 0.980468750 0.212172278
vt 0.929679030 0.037827722
vt 0.824687240 0.056124193
vn -0.84043893 0.46294528 0.28168078
f 331/331/111 332/332/111 333/333/111
g pz_sofa_seating_indoor_03_victorian_c6_0_0__curved_foot_-1_-1_0__frame
v -0.31671413 -0.31578068 0.00868939
v -0.28250163 -0.30405068 0.09148939
v -0.27205721 -0.27980259 0.08280000
vt 0.824687240 0.056124193
vt 0.875476960 0.230468750
vt 0.980468750 0.212172278
vn -0.84043893 0.46294528 0.28168078
f 334/334/112 335/335/112 336/336/112
g pz_sofa_seating_indoor_03_victorian_c6_0_0__curved_foot_-1_-1_0__frame
v -0.28250163 -0.30405068 0.09148939
v -0.31671413 -0.31578068 0.00868939
v -0.29358863 -0.32851908 0.00000000
vt 0.875999832 0.230468750
vt 0.769531250 0.056124193
vt 0.841497321 0.037827722
vn -0.37957666 -0.88123634 0.28168078
f 337/337/113 338/338/113 339/339/113
g pz_sofa_seating_indoor_03_victorian_c6_0_0__curved_foot_-1_-1_0__frame
v -0.29358863 -0.32851908 0.00000000
v -0.25937613 -0.31678908 0.08280000
v -0.28250163 -0.30405068 0.09148939
vt 0.841497321 0.037827722
vt 0.947965903 0.212172278
vt 0.875999832 0.230468750
vn -0.37957666 -0.88123634 0.28168078
f 340/340/114 341/341/114 342/342/114
g pz_sofa_seating_indoor_03_victorian_c6_0_0__curved_foot_-1_-1_1__frame
v -0.29837656 -0.29829583 0.19971795
v -0.28860156 -0.29829583 0.08069295
v -0.26571667 -0.32126708 0.08280000
vt 0.769531250 0.223255847
vt 0.806652903 0.019531250
vt 0.893560827 0.023137702
vn -0.70459129 -0.70725014 -0.05786499
f 343/343/115 344/344/115 345/345/115
g pz_sofa_seating_indoor_03_victorian_c6_0_0__curved_foot_-1_-1_1__frame
v -0.26571667 -0.32126708 0.08280000
v -0.27549167 -0.32126708 0.20182500
v -0.29837656 -0.29829583 0.19971795
vt 0.893560827 0.023137702
vt 0.856439173 0.226862298
vt 0.769531250 0.223255847
vn -0.70459129 -0.70725014 -0.05786499
f 346/346/116 347/347/116 348/348/116
g pz_sofa_seating_indoor_03_victorian_c6_0_0__curved_foot_-1_-1_1__frame
v -0.27549167 -0.32126708 0.20182500
v -0.26571667 -0.32126708 0.08280000
v -0.24283178 -0.29829583 0.08490705
vt 0.856439173 0.226862298
vt 0.893560827 0.023137702
vt 0.980468750 0.026744153
vn 0.70459129 -0.70725014 0.05786499
f 349/349/117 350/350/117 351/351/117
g pz_sofa_seating_indoor_03_victorian_c6_0_0__curved_foot_-1_-1_1__frame
v -0.24283178 -0.29829583 0.08490705
v -0.25260678 -0.29829583 0.20393205
v -0.27549167 -0.32126708 0.20182500
vt 0.980468750 0.026744153
vt 0.943347097 0.230468750
vt 0.856439173 0.226862298
vn 0.70459129 -0.70725014 0.05786499
f 352/352/118 353/353/118 354/354/118
g pz_sofa_seating_indoor_03_victorian_c6_0_0__curved_foot_-1_-1_1__frame
v -0.25260678 -0.29829583 0.20393205
v -0.24283178 -0.29829583 0.08490705
v -0.26571667 -0.27532458 0.08280000
vt 0.943347097 0.230468750
vt 0.980468750 0.026744153
vt 0.893560827 0.023137702
vn 0.70459129 0.70725014 0.05786499
f 355/355/119 356/356/119 357/357/119
g pz_sofa_seating_indoor_03_victorian_c6_0_0__curved_foot_-1_-1_1__frame
v -0.26571667 -0.27532458 0.08280000
v -0.27549167 -0.27532458 0.20182500
v -0.25260678 -0.29829583 0.20393205
vt 0.893560827 0.023137702
vt 0.856439173 0.226862298
vt 0.943347097 0.230468750
vn 0.70459129 0.70725014 0.05786499
f 358/358/120 359/359/120 360/360/120
g pz_sofa_seating_indoor_03_victorian_c6_0_0__curved_foot_-1_-1_1__frame
v -0.27549167 -0.27532458 0.20182500
v -0.26571667 -0.27532458 0.08280000
v -0.28860156 -0.29829583 0.08069295
vt 0.856439173 0.226862298
vt 0.893560827 0.023137702
vt 0.806652903 0.019531250
vn -0.70459129 0.70725014 -0.05786499
f 361/361/121 362/362/121 363/363/121
g pz_sofa_seating_indoor_03_victorian_c6_0_0__curved_foot_-1_-1_1__frame
v -0.28860156 -0.29829583 0.08069295
v -0.29837656 -0.29829583 0.19971795
v -0.27549167 -0.27532458 0.20182500
vt 0.806652903 0.019531250
vt 0.769531250 0.223255847
vt 0.856439173 0.226862298
vn -0.70459129 0.70725014 -0.05786499
f 364/364/122 365/365/122 366/366/122
g pz_sofa_seating_indoor_03_victorian_c6_0_0__curved_foot_-1_1_0__frame
v -0.27205721 0.33813592 0.08280000
v -0.30626971 0.34986592 0.00000000
v -0.28314420 0.36260432 -0.00868939
vt 0.908502648 0.212172278
vt 0.802034066 0.037827722
vt 0.874000168 0.019531250
vn 0.37957666 -0.88123634 -0.28168078
f 367/367/123 368/368/123 369/369/123
g pz_sofa_seating_indoor_03_victorian_c6_0_0__curved_foot_-1_1_0__frame
v -0.28314420 0.36260432 -0.00868939
v -0.24893170 0.35087432 0.07411061
v -0.27205721 0.33813592 0.08280000
vt 0.874000168 0.019531250
vt 0.980468750 0.193875807
vt 0.908502648 0.212172278
vn 0.37957666 -0.88123634 -0.28168078
f 370/370/124 371/371/124 372/372/124
g pz_sofa_seating_indoor_03_victorian_c6_0_0__curved_foot_-1_1_0__frame
v -0.24893170 0.35087432 0.07411061
v -0.28314420 0.36260432 -0.00868939
v -0.29358863 0.38685241 -0.00000000
vt 0.824687240 0.193875807
vt 0.875476960 0.019531250
vt 0.980468750 0.037827722
vn 0.84043893 0.46294528 -0.28168078
f 373/373/125 374/374/125 375/375/125
g pz_sofa_seating_indoor_03_victorian_c6_0_0__curved_foot_-1_1_0__frame
v -0.29358863 0.38685241 -0.00000000
v -0.25937613 0.37512241 0.08280000
v -0.24893170 0.35087432 0.07411061
vt 0.980468750 0.037827722
vt 0.929679030 0.212172278
vt 0.824687240 0.193875807
vn 0.84043893 0.46294528 -0.28168078
f 376/376/126 377/377/126 378/378/126
g pz_sofa_seating_indoor_03_victorian_c6_0_0__curved_foot_-1_1_0__frame
v -0.25937613 0.37512241 0.08280000
v -0.29358863 0.38685241 -0.00000000
v -0.31671413 0.37411401 0.00868939
vt 0.947965903 0.212172278
vt 0.841497321 0.037827722
vt 0.769531250 0.056124193
vn -0.37957666 0.88123634 0.28168078
f 379/379/127 380/380/127 381/381/127
g pz_sofa_seating_indoor_03_victorian_c6_0_0__curved_foot_-1_1_0__frame
v -0.31671413 0.37411401 0.00868939
v -0.28250163 0.36238401 0.09148939
v -0.25937613 0.37512241 0.08280000
vt 0.769531250 0.056124193
vt 0.875999832 0.230468750
vt 0.947965903 0.212172278
vn -0.37957666 0.88123634 0.28168078
f 382/382/128 383/383/128 384/384/128
g pz_sofa_seating_indoor_03_victorian_c6_0_0__curved_foot_-1_1_0__frame
v -0.28250163 0.36238401 0.09148939
v -0.31671413 0.37411401 0.00868939
v -0.30626971 0.34986592 0.00000000
vt 0.874523040 0.230468750
vt 0.925312760 0.056124193
vt 0.820320970 0.037827722
vn -0.84043893 -0.46294528 0.28168078
f 385/385/129 386/386/129 387/387/129
g pz_sofa_seating_indoor_03_victorian_c6_0_0__curved_foot_-1_1_0__frame
v -0.30626971 0.34986592 0.00000000
v -0.27205721 0.33813592 0.08280000
v -0.28250163 0.36238401 0.09148939
vt 0.820320970 0.037827722
vt 0.769531250 0.212172278
vt 0.874523040 0.230468750
vn -0.84043893 -0.46294528 0.28168078
f 388/388/130 389/389/130 390/390/130
g pz_sofa_seating_indoor_03_victorian_c6_0_0__curved_foot_-1_1_1__frame
v -0.29837656 0.35662917 0.19971795
v -0.28860156 0.35662917 0.08069295
v -0.26571667 0.33365792 0.08280000
vt 0.769531250 0.223255847
vt 0.806652903 0.019531250
vt 0.893560827 0.023137702
vn -0.70459129 -0.70725014 -0.05786499
f 391/391/131 392/392/131 393/393/131
g pz_sofa_seating_indoor_03_victorian_c6_0_0__curved_foot_-1_1_1__frame
v -0.26571667 0.33365792 0.08280000
v -0.27549167 0.33365792 0.20182500
v -0.29837656 0.35662917 0.19971795
vt 0.893560827 0.023137702
vt 0.856439173 0.226862298
vt 0.769531250 0.223255847
vn -0.70459129 -0.70725014 -0.05786499
f 394/394/132 395/395/132 396/396/132
g pz_sofa_seating_indoor_03_victorian_c6_0_0__curved_foot_-1_1_1__frame
v -0.27549167 0.33365792 0.20182500
v -0.26571667 0.33365792 0.08280000
v -0.24283178 0.35662917 0.08490705
vt 0.856439173 0.226862298
vt 0.893560827 0.023137702
vt 0.980468750 0.026744153
vn 0.70459129 -0.70725014 0.05786499
f 397/397/133 398/398/133 399/399/133
g pz_sofa_seating_indoor_03_victorian_c6_0_0__curved_foot_-1_1_1__frame
v -0.24283178 0.35662917 0.08490705
v -0.25260678 0.35662917 0.20393205
v -0.27549167 0.33365792 0.20182500
vt 0.980468750 0.026744153
vt 0.943347097 0.230468750
vt 0.856439173 0.226862298
vn 0.70459129 -0.70725014 0.05786499
f 400/400/134 401/401/134 402/402/134
g pz_sofa_seating_indoor_03_victorian_c6_0_0__curved_foot_-1_1_1__frame
v -0.25260678 0.35662917 0.20393205
v -0.24283178 0.35662917 0.08490705
v -0.26571667 0.37960042 0.08280000
vt 0.943347097 0.230468750
vt 0.980468750 0.026744153
vt 0.893560827 0.023137702
vn 0.70459129 0.70725014 0.05786499
f 403/403/135 404/404/135 405/405/135
g pz_sofa_seating_indoor_03_victorian_c6_0_0__curved_foot_-1_1_1__frame
v -0.26571667 0.37960042 0.08280000
v -0.27549167 0.37960042 0.20182500
v -0.25260678 0.35662917 0.20393205
vt 0.893560827 0.023137702
vt 0.856439173 0.226862298
vt 0.943347097 0.230468750
vn 0.70459129 0.70725014 0.05786499
f 406/406/136 407/407/136 408/408/136
g pz_sofa_seating_indoor_03_victorian_c6_0_0__curved_foot_-1_1_1__frame
v -0.27549167 0.37960042 0.20182500
v -0.26571667 0.37960042 0.08280000
v -0.28860156 0.35662917 0.08069295
vt 0.856439173 0.226862298
vt 0.893560827 0.023137702
vt 0.806652903 0.019531250
vn -0.70459129 0.70725014 -0.05786499
f 409/409/137 410/410/137 411/411/137
g pz_sofa_seating_indoor_03_victorian_c6_0_0__curved_foot_-1_1_1__frame
v -0.28860156 0.35662917 0.08069295
v -0.29837656 0.35662917 0.19971795
v -0.27549167 0.37960042 0.20182500
vt 0.806652903 0.019531250
vt 0.769531250 0.223255847
vt 0.856439173 0.226862298
vn -0.70459129 0.70725014 -0.05786499
f 412/412/138 413/413/138 414/414/138
