mtllib pz_sofa_seating_indoor_03_victorian_c2_0_0_fidelity_r1.mtl
o pz_sofa_seating_indoor_03_victorian_c2_0_0
usemtl UV_Base
g pz_sofa_seating_indoor_03_victorian_c2_0_0__lower_body__body
v -0.32101250 -0.45056250 0.38941875
v -0.32101250 -0.45056250 0.20317500
v 0.50000000 -0.45056250 0.20317500
vt 0.772534347 0.480468750
vt 0.772534347 0.269531250
vt 0.875000000 0.269531250
vn 0.00000000 -1.00000000 0.00000000
f 1/1/1 2/2/1 3/3/1
g pz_sofa_seating_indoor_03_victorian_c2_0_0__lower_body__body
v 0.50000000 -0.45056250 0.20317500
v 0.50000000 -0.45056250 0.38941875
v -0.32101250 -0.45056250 0.38941875
vt 0.875000000 0.269531250
vt 0.875000000 0.480468750
vt 0.772534347 0.480468750
vn 0.00000000 -1.00000000 0.00000000
f 4/4/2 5/5/2 6/6/2
g pz_sofa_seating_indoor_03_victorian_c2_0_0__lower_body__body
v 0.50000000 0.31270000 0.38941875
v 0.50000000 0.31270000 0.20317500
v -0.32101250 0.31270000 0.20317500
vt 0.625000000 0.480468750
vt 0.625000000 0.269531250
vt 0.522534347 0.269531250
vn 0.00000000 1.00000000 0.00000000
f 7/7/3 8/8/3 9/9/3
g pz_sofa_seating_indoor_03_victorian_c2_0_0__lower_body__body
v -0.32101250 0.31270000 0.20317500
v -0.32101250 0.31270000 0.38941875
v 0.50000000 0.31270000 0.38941875
vt 0.522534347 0.269531250
vt 0.522534347 0.480468750
vt 0.625000000 0.480468750
vn 0.00000000 1.00000000 0.00000000
f 10/10/4 11/11/4 12/12/4
g pz_sofa_seating_indoor_03_victorian_c2_0_0__lower_body__body
v -0.32101250 0.31270000 0.38941875
v -0.32101250 0.31270000 0.20317500
v -0.34507500 0.28863750 0.20317500
vt 0.522534347 0.480468750
vt 0.522534347 0.269531250
vt 0.519531250 0.269531250
vn -0.70710678 0.70710678 0.00000000
f 13/13/5 14/14/5 15/15/5
g pz_sofa_seating_indoor_03_victorian_c2_0_0__lower_body__body
v -0.34507500 0.28863750 0.20317500
v -0.34507500 0.28863750 0.38941875
v -0.32101250 0.31270000 0.38941875
vt 0.519531250 0.269531250
vt 0.519531250 0.480468750
vt 0.522534347 0.480468750
vn -0.70710678 0.70710678 0.00000000
f 16/16/6 17/17/6 18/18/6
g pz_sofa_seating_indoor_03_victorian_c2_0_0__lower_body__body
v -0.34507500 0.28863750 0.38941875
v -0.34507500 0.28863750 0.20317500
v -0.34507500 -0.42650000 0.20317500
vt 0.223818766 0.230468750
vt 0.223818766 0.019531250
vt 0.026181234 0.019531250
vn -1.00000000 0.00000000 -0.00000000
f 19/19/7 20/20/7 21/21/7
g pz_sofa_seating_indoor_03_victorian_c2_0_0__lower_body__body
v -0.34507500 -0.42650000 0.20317500
v -0.34507500 -0.42650000 0.38941875
v -0.34507500 0.28863750 0.38941875
vt 0.026181234 0.019531250
vt 0.026181234 0.230468750
vt 0.223818766 0.230468750
vn -1.00000000 0.00000000 0.00000000
f 22/22/8 23/23/8 24/24/8
g pz_sofa_seating_indoor_03_victorian_c2_0_0__lower_body__body
v -0.34507500 -0.42650000 0.38941875
v -0.34507500 -0.42650000 0.20317500
v -0.32101250 -0.45056250 0.20317500
vt 0.769531250 0.480468750
vt 0.769531250 0.269531250
vt 0.772534347 0.269531250
vn -0.70710678 -0.70710678 -0.00000000
f 25/25/9 26/26/9 27/27/9
g pz_sofa_seating_indoor_03_victorian_c2_0_0__lower_body__body
v -0.32101250 -0.45056250 0.20317500
v -0.32101250 -0.45056250 0.38941875
v -0.34507500 -0.42650000 0.38941875
vt 0.772534347 0.269531250
vt 0.772534347 0.480468750
vt 0.769531250 0.480468750
vn -0.70710678 -0.70710678 0.00000000
f 28/28/10 29/29/10 30/30/10
g pz_sofa_seating_indoor_03_victorian_c2_0_0__rear_body_bridge__body
v -0.34507500 -0.42168750 0.20317500
v -0.34507500 -0.42168750 0.50793750
v 0.50000000 -0.42168750 0.50793750
vt 0.519531250 0.269531250
vt 0.519531250 0.480468750
vt 0.625000000 0.480468750
vn 0.00000000 1.00000000 0.00000000
f 31/31/11 32/32/11 33/33/11
g pz_sofa_seating_indoor_03_victorian_c2_0_0__rear_body_bridge__body
v 0.50000000 -0.42168750 0.50793750
v 0.50000000 -0.42168750 0.20317500
v -0.34507500 -0.42168750 0.20317500
vt 0.625000000 0.480468750
vt 0.625000000 0.269531250
vt 0.519531250 0.269531250
vn 0.00000000 1.00000000 0.00000000
f 34/34/12 35/35/12 36/36/12
g pz_sofa_seating_indoor_03_victorian_c2_0_0__rear_body_bridge__body
v -0.34507500 -0.46981250 0.50793750
v -0.34507500 -0.46981250 0.20317500
v 0.50000000 -0.46981250 0.20317500
vt 0.769531250 0.480468750
vt 0.769531250 0.269531250
vt 0.875000000 0.269531250
vn 0.00000000 -1.00000000 0.00000000
f 37/37/13 38/38/13 39/39/13
g pz_sofa_seating_indoor_03_victorian_c2_0_0__rear_body_bridge__body
v 0.50000000 -0.46981250 0.20317500
v 0.50000000 -0.46981250 0.50793750
v -0.34507500 -0.46981250 0.50793750
vt 0.875000000 0.269531250
vt 0.875000000 0.480468750
vt 0.769531250 0.480468750
vn 0.00000000 -1.00000000 0.00000000
f 40/40/14 41/41/14 42/42/14
g pz_sofa_seating_indoor_03_victorian_c2_0_0__rear_body_bridge__body
v 0.50000000 -0.46981250 0.50793750
v 0.50000000 -0.42168750 0.50793750
v -0.34507500 -0.42168750 0.50793750
vt 0.125000000 0.019531250
vt 0.125000000 0.230468750
vt 0.019531250 0.230468750
vn 0.00000000 -0.00000000 1.00000000
f 43/43/15 44/44/15 45/45/15
g pz_sofa_seating_indoor_03_victorian_c2_0_0__rear_body_bridge__body
v -0.34507500 -0.42168750 0.50793750
v -0.34507500 -0.46981250 0.50793750
v 0.50000000 -0.46981250 0.50793750
vt 0.019531250 0.230468750
vt 0.019531250 0.019531250
vt 0.125000000 0.019531250
vn 0.00000000 0.00000000 1.00000000
f 46/46/16 47/47/16 48/48/16
g pz_sofa_seating_indoor_03_victorian_c2_0_0__rear_body_bridge__body
v -0.34507500 -0.46981250 0.50793750
v -0.34507500 -0.42168750 0.50793750
v -0.34507500 -0.42168750 0.20317500
vt 0.019531250 0.230468750
vt 0.230468750 0.230468750
vt 0.230468750 0.019531250
vn -1.00000000 0.00000000 0.00000000
f 49/49/17 50/50/17 51/51/17
g pz_sofa_seating_indoor_03_victorian_c2_0_0__rear_body_bridge__body
v -0.34507500 -0.42168750 0.20317500
v -0.34507500 -0.46981250 0.20317500
v -0.34507500 -0.46981250 0.50793750
vt 0.230468750 0.019531250
vt 0.019531250 0.019531250
vt 0.019531250 0.230468750
vn -1.00000000 0.00000000 0.00000000
f 52/52/18 53/53/18 54/54/18
g pz_sofa_seating_indoor_03_victorian_c2_0_0__seat_0__seat
v -0.23596760 -0.27051484 0.49100625
v -0.20312229 -0.30336016 0.49100625
v 0.20853896 -0.30336016 0.49100625
vt 0.022167971 0.783503785
vt 0.036319166 0.772167967
vt 0.213680834 0.772167967
vn 0.00000000 0.00000000 1.00000000
f 55/55/19 56/56/19 57/57/19
g pz_sofa_seating_indoor_03_victorian_c2_0_0__seat_0__seat
v -0.23596760 -0.27051484 0.49100625
v 0.20853896 -0.30336016 0.49100625
v 0.24138427 -0.27051484 0.49100625
vt 0.022167971 0.783503785
vt 0.213680834 0.772167967
vt 0.227832029 0.783503785
vn -0.00000000 0.00000000 1.00000000
f 58/58/20 59/59/20 60/60/20
g pz_sofa_seating_indoor_03_victorian_c2_0_0__seat_0__seat
v -0.23596760 -0.27051484 0.49100625
v 0.24138427 -0.27051484 0.49100625
v 0.24138427 0.25970234 0.49100625
vt 0.022167971 0.783503785
vt 0.227832029 0.783503785
vt 0.227832029 0.966496215
vn 0.00000000 0.00000000 1.00000000
f 61/61/21 62/62/21 63/63/21
g pz_sofa_seating_indoor_03_victorian_c2_0_0__seat_0__seat
v -0.23596760 -0.27051484 0.49100625
v 0.24138427 0.25970234 0.49100625
v 0.20853896 0.29254766 0.49100625
vt 0.022167971 0.783503785
vt 0.227832029 0.966496215
vt 0.213680834 0.977832033
vn 0.00000000 0.00000000 1.00000000
f 64/64/22 65/65/22 66/66/22
g pz_sofa_seating_indoor_03_victorian_c2_0_0__seat_0__seat
v -0.23596760 -0.27051484 0.49100625
v 0.20853896 0.29254766 0.49100625
v -0.20312229 0.29254766 0.49100625
vt 0.022167971 0.783503785
vt 0.213680834 0.977832033
vt 0.036319166 0.977832033
vn 0.00000000 0.00000000 1.00000000
f 67/67/23 68/68/23 69/69/23
g pz_sofa_seating_indoor_03_victorian_c2_0_0__seat_0__seat
v -0.20312229 0.29254766 0.49100625
v -0.23596760 0.25970234 0.49100625
v -0.23596760 -0.27051484 0.49100625
vt 0.036319166 0.977832033
vt 0.022167971 0.966496215
vt 0.022167971 0.783503785
vn 0.00000000 0.00000000 1.00000000
f 70/70/24 71/71/24 72/72/24
g pz_sofa_seating_indoor_03_victorian_c2_0_0__seat_0__seat
v -0.20312229 -0.30336016 0.49100625
v -0.20840000 -0.31100000 0.37813125
v 0.21381667 -0.31100000 0.37813125
vt 0.286319166 0.980468750
vt 0.284045298 0.769531250
vt 0.465954702 0.769531250
vn 0.00000000 -0.99771727 0.06752960
f 73/73/25 74/74/25 75/75/25
g pz_sofa_seating_indoor_03_victorian_c2_0_0__seat_0__seat
v 0.21381667 -0.31100000 0.37813125
v 0.20853896 -0.30336016 0.49100625
v -0.20312229 -0.30336016 0.49100625
vt 0.465954702 0.769531250
vt 0.463680834 0.980468750
vt 0.286319166 0.980468750
vn 0.00000000 -0.99771727 0.06752960
f 76/76/26 77/77/26 78/78/26
g pz_sofa_seating_indoor_03_victorian_c2_0_0__seat_0__seat
v 0.20853896 -0.30336016 0.49100625
v 0.21381667 -0.31100000 0.37813125
v 0.24750417 -0.27731250 0.37813125
vt 0.463680834 0.980468750
vt 0.465954702 0.769531250
vt 0.480468750 0.769531250
vn 0.70480288 -0.70480288 0.08065850
f 79/79/27 80/80/27 81/81/27
g pz_sofa_seating_indoor_03_victorian_c2_0_0__seat_0__seat
v 0.24750417 -0.27731250 0.37813125
v 0.24138427 -0.27051484 0.49100625
v 0.20853896 -0.30336016 0.49100625
vt 0.531157726 0.769531250
vt 0.533503785 0.980468750
vt 0.522167967 0.980468750
vn 0.70480288 -0.70480288 0.08065850
f 82/82/28 83/83/28 84/84/28
g pz_sofa_seating_indoor_03_victorian_c2_0_0__seat_0__seat
v 0.24138427 -0.27051484 0.49100625
v 0.24750417 -0.27731250 0.37813125
v 0.24750417 0.26650000 0.37813125
vt 0.533503785 0.980468750
vt 0.531157726 0.769531250
vt 0.718842274 0.769531250
vn 0.99853342 0.00000000 0.05413883
f 85/85/29 86/86/29 87/87/29
g pz_sofa_seating_indoor_03_victorian_c2_0_0__seat_0__seat
v 0.24750417 0.26650000 0.37813125
v 0.24138427 0.25970234 0.49100625
v 0.24138427 -0.27051484 0.49100625
vt 0.718842274 0.769531250
vt 0.716496215 0.980468750
vt 0.533503785 0.980468750
vn 0.99853342 0.00000000 0.05413883
f 88/88/30 89/89/30 90/90/30
g pz_sofa_seating_indoor_03_victorian_c2_0_0__seat_0__seat
v 0.24138427 0.25970234 0.49100625
v 0.24750417 0.26650000 0.37813125
v 0.21381667 0.30018750 0.37813125
vt 0.477832029 0.980468750
vt 0.480468750 0.769531250
vt 0.465954702 0.769531250
vn 0.70480288 0.70480288 0.08065850
f 91/91/31 92/92/31 93/93/31
g pz_sofa_seating_indoor_03_victorian_c2_0_0__seat_0__seat
v 0.21381667 0.30018750 0.37813125
v 0.20853896 0.29254766 0.49100625
v 0.24138427 0.25970234 0.49100625
vt 0.730468750 0.769531250
vt 0.727832033 0.980468750
vt 0.716496215 0.980468750
vn 0.70480288 0.70480288 0.08065850
f 94/94/32 95/95/32 96/96/32
g pz_sofa_seating_indoor_03_victorian_c2_0_0__seat_0__seat
v 0.20853896 0.29254766 0.49100625
v 0.21381667 0.30018750 0.37813125
v -0.20840000 0.30018750 0.37813125
vt 0.463680834 0.980468750
vt 0.465954702 0.769531250
vt 0.284045298 0.769531250
vn 0.00000000 0.99771727 0.06752960
f 97/97/33 98/98/33 99/99/33
g pz_sofa_seating_indoor_03_victorian_c2_0_0__seat_0__seat
v -0.20840000 0.30018750 0.37813125
v -0.20312229 0.29254766 0.49100625
v 0.20853896 0.29254766 0.49100625
vt 0.284045298 0.769531250
vt 0.286319166 0.980468750
vt 0.463680834 0.980468750
vn 0.00000000 0.99771727 0.06752960
f 100/100/34 101/101/34 102/102/34
g pz_sofa_seating_indoor_03_victorian_c2_0_0__seat_0__seat
v -0.20312229 0.29254766 0.49100625
v -0.20840000 0.30018750 0.37813125
v -0.24208750 0.26650000 0.37813125
vt 0.727832033 0.980468750
vt 0.730468750 0.769531250
vt 0.718842274 0.769531250
vn -0.70480288 0.70480288 0.08065850
f 103/103/35 104/104/35 105/105/35
g pz_sofa_seating_indoor_03_victorian_c2_0_0__seat_0__seat
v -0.24208750 0.26650000 0.37813125
v -0.23596760 0.25970234 0.49100625
v -0.20312229 0.29254766 0.49100625
vt 0.718842274 0.769531250
vt 0.716496215 0.980468750
vt 0.727832033 0.980468750
vn -0.70480288 0.70480288 0.08065850
f 106/106/36 107/107/36 108/108/36
g pz_sofa_seating_indoor_03_victorian_c2_0_0__seat_0__seat
v -0.23596760 0.25970234 0.49100625
v -0.24208750 0.26650000 0.37813125
v -0.24208750 -0.27731250 0.37813125
vt 0.716496215 0.980468750
vt 0.718842274 0.769531250
vt 0.531157726 0.769531250
vn -0.99853342 0.00000000 0.05413883
f 109/109/37 110/110/37 111/111/37
g pz_sofa_seating_indoor_03_victorian_c2_0_0__seat_0__seat
v -0.24208750 -0.27731250 0.37813125
v -0.23596760 -0.27051484 0.49100625
v -0.23596760 0.25970234 0.49100625
vt 0.531157726 0.769531250
vt 0.533503785 0.980468750
vt 0.716496215 0.980468750
vn -0.99853342 0.00000000 0.05413883
f 112/112/38 113/113/38 114/114/38
g pz_sofa_seating_indoor_03_victorian_c2_0_0__seat_0__seat
v -0.23596760 -0.27051484 0.49100625
v -0.24208750 -0.27731250 0.37813125
v -0.20840000 -0.31100000 0.37813125
vt 0.533503785 0.980468750
vt 0.531157726 0.769531250
vt 0.519531250 0.769531250
vn -0.70480288 -0.70480288 0.08065850
f 115/115/39 116/116/39 117/117/39
g pz_sofa_seating_indoor_03_victorian_c2_0_0__seat_0__seat
v -0.20840000 -0.31100000 0.37813125
v -0.20312229 -0.30336016 0.49100625
v -0.23596760 -0.27051484 0.49100625
vt 0.519531250 0.769531250
vt 0.522167967 0.980468750
vt 0.533503785 0.980468750
vn -0.70480288 -0.70480288 0.08065850
f 118/118/40 119/119/40 120/120/40
g pz_sofa_seating_indoor_03_victorian_c2_0_0__seat_1__seat
v 0.26132406 -0.27051484 0.49100625
v 0.29416938 -0.30336016 0.49100625
v 0.50000000 -0.30336016 0.49100625
vt 0.022167966 0.783503785
vt 0.036319167 0.772167967
vt 0.125000000 0.772167967
vn 0.00000000 0.00000000 1.00000000
f 121/121/41 122/122/41 123/123/41
g pz_sofa_seating_indoor_03_victorian_c2_0_0__seat_1__seat
v 0.26132406 -0.27051484 0.49100625
v 0.50000000 -0.30336016 0.49100625
v 0.50000000 0.29254766 0.49100625
vt 0.022167966 0.783503785
vt 0.125000000 0.772167967
vt 0.125000000 0.977832033
vn -0.00000000 0.00000000 1.00000000
f 124/124/42 125/125/42 126/126/42
g pz_sofa_seating_indoor_03_victorian_c2_0_0__seat_1__seat
v 0.26132406 -0.27051484 0.49100625
v 0.50000000 0.29254766 0.49100625
v 0.29416938 0.29254766 0.49100625
vt 0.022167966 0.783503785
vt 0.125000000 0.977832033
vt 0.036319167 0.977832033
vn 0.00000000 0.00000000 1.00000000
f 127/127/43 128/128/43 129/129/43
g pz_sofa_seating_indoor_03_victorian_c2_0_0__seat_1__seat
v 0.29416938 0.29254766 0.49100625
v 0.26132406 0.25970234 0.49100625
v 0.26132406 -0.27051484 0.49100625
vt 0.036319167 0.977832033
vt 0.022167966 0.966496215
vt 0.022167966 0.783503785
vn 0.00000000 0.00000000 1.00000000
f 130/130/44 131/131/44 132/132/44
g pz_sofa_seating_indoor_03_victorian_c2_0_0__seat_1__seat
v 0.29416938 -0.30336016 0.49100625
v 0.28889167 -0.31100000 0.37813125
v 0.50000000 -0.31100000 0.37813125
vt 0.286319167 0.980468750
vt 0.284045298 0.769531250
vt 0.375000000 0.769531250
vn 0.00000000 -0.99771727 0.06752960
f 133/133/45 134/134/45 135/135/45
g pz_sofa_seating_indoor_03_victorian_c2_0_0__seat_1__seat
v 0.50000000 -0.31100000 0.37813125
v 0.50000000 -0.30336016 0.49100625
v 0.29416938 -0.30336016 0.49100625
vt 0.375000000 0.769531250
vt 0.375000000 0.980468750
vt 0.286319167 0.980468750
vn 0.00000000 -0.99771727 0.06752960
f 136/136/46 137/137/46 138/138/46
g pz_sofa_seating_indoor_03_victorian_c2_0_0__seat_1__seat
v 0.50000000 0.29254766 0.49100625
v 0.50000000 0.30018750 0.37813125
v 0.28889167 0.30018750 0.37813125
vt 0.375000000 0.980468750
vt 0.375000000 0.769531250
vt 0.284045298 0.769531250
vn 0.00000000 0.99771727 0.06752960
f 139/139/47 140/140/47 141/141/47
g pz_sofa_seating_indoor_03_victorian_c2_0_0__seat_1__seat
v 0.28889167 0.30018750 0.37813125
v 0.29416938 0.29254766 0.49100625
v 0.50000000 0.29254766 0.49100625
vt 0.284045298 0.769531250
vt 0.286319167 0.980468750
vt 0.375000000 0.980468750
vn 0.00000000 0.99771727 0.06752960
f 142/142/48 143/143/48 144/144/48
g pz_sofa_seating_indoor_03_victorian_c2_0_0__seat_1__seat
v 0.29416938 0.29254766 0.49100625
v 0.28889167 0.30018750 0.37813125
v 0.25520417 0.26650000 0.37813125
vt 0.727832033 0.980468750
vt 0.730468750 0.769531250
vt 0.718842274 0.769531250
vn -0.70480288 0.70480288 0.08065850
f 145/145/49 146/146/49 147/147/49
g pz_sofa_seating_indoor_03_victorian_c2_0_0__seat_1__seat
v 0.25520417 0.26650000 0.37813125
v 0.26132406 0.25970234 0.49100625
v 0.29416938 0.29254766 0.49100625
vt 0.718842274 0.769531250
vt 0.716496215 0.980468750
vt 0.727832033 0.980468750
vn -0.70480288 0.70480288 0.08065850
f 148/148/50 149/149/50 150/150/50
g pz_sofa_seating_indoor_03_victorian_c2_0_0__seat_1__seat
v 0.26132406 0.25970234 0.49100625
v 0.25520417 0.26650000 0.37813125
v 0.25520417 -0.27731250 0.37813125
vt 0.716496215 0.980468750
vt 0.718842274 0.769531250
vt 0.531157726 0.769531250
vn -0.99853342 0.00000000 0.05413883
f 151/151/51 152/152/51 153/153/51
g pz_sofa_seating_indoor_03_victorian_c2_0_0__seat_1__seat
v 0.25520417 -0.27731250 0.37813125
v 0.26132406 -0.27051484 0.49100625
v 0.26132406 0.25970234 0.49100625
vt 0.531157726 0.769531250
vt 0.533503785 0.980468750
vt 0.716496215 0.980468750
vn -0.99853342 0.00000000 0.05413883
f 154/154/52 155/155/52 156/156/52
g pz_sofa_seating_indoor_03_victorian_c2_0_0__seat_1__seat
v 0.26132406 -0.27051484 0.49100625
v 0.25520417 -0.27731250 0.37813125
v 0.28889167 -0.31100000 0.37813125
vt 0.533503785 0.980468750
vt 0.531157726 0.769531250
vt 0.519531250 0.769531250
vn -0.70480288 -0.70480288 0.08065850
f 157/157/53 158/158/53 159/159/53
g pz_sofa_seating_indoor_03_victorian_c2_0_0__seat_1__seat
v 0.28889167 -0.31100000 0.37813125
v 0.29416938 -0.30336016 0.49100625
v 0.26132406 -0.27051484 0.49100625
vt 0.519531250 0.769531250
vt 0.522167967 0.980468750
vt 0.533503785 0.980468750
vn -0.70480288 -0.70480288 0.08065850
f 160/160/54 161/161/54 162/162/54
g pz_sofa_seating_indoor_03_victorian_c2_0_0__sculpted_back__back
v -0.29420322 -0.25659375 0.49071307
v -0.29887500 -0.28815000 0.86078182
v -0.21945468 -0.29516250 0.94301932
vt 0.773213873 0.782617007
vt 0.772615132 0.906112303
vt 0.782793744 0.933555703
vn 0.00000000 0.99638411 0.08496299
f 163/163/55 164/164/55 165/165/55
g pz_sofa_seating_indoor_03_victorian_c2_0_0__sculpted_back__back
v -0.29420322 -0.25659375 0.49071307
v -0.21945468 -0.29516250 0.94301932
v 0.11317632 -0.30173672 1.02011697
vt 0.773213873 0.782617007
vt 0.782793744 0.933555703
vt 0.825424170 0.959283887
vn -0.00000000 0.99638411 0.08496299
f 166/166/56 167/167/56 168/168/56
g pz_sofa_seating_indoor_03_victorian_c2_0_0__sculpted_back__back
v -0.29420322 -0.25659375 0.49071307
v 0.11317632 -0.30173672 1.02011697
v 0.29817895 -0.30436641 1.05095604
vt 0.773213873 0.782617007
vt 0.825424170 0.959283887
vt 0.849134349 0.969575165
vn -0.00000000 0.99638411 0.08496299
f 169/169/57 170/170/57 171/171/57
g pz_sofa_seating_indoor_03_victorian_c2_0_0__sculpted_back__back
v -0.29420322 -0.25659375 0.49071307
v 0.29817895 -0.30436641 1.05095604
v 0.50000000 -0.30568125 1.06637557
vt 0.773213873 0.782617007
vt 0.849134349 0.969575165
vt 0.875000000 0.974720802
vn 0.00000000 0.99638411 0.08496299
f 172/172/58 173/173/58 174/174/58
g pz_sofa_seating_indoor_03_victorian_c2_0_0__sculpted_back__back
v 0.50000000 -0.30568125 1.06637557
v 0.50000000 -0.25659375 0.49071307
v -0.29420322 -0.25659375 0.49071307
vt 0.875000000 0.974720802
vt 0.875000000 0.782617007
vt 0.773213873 0.782617007
vn 0.00000000 0.99638411 0.08496299
f 175/175/59 176/176/59 177/177/59
g pz_sofa_seating_indoor_03_victorian_c2_0_0__sculpted_back__back
v -0.32293750 -0.47558750 0.85785000
v -0.31812500 -0.44093750 0.45150000
v 0.50000000 -0.44093750 0.45150000
vt 0.019531250 0.655133929
vt 0.020148026 0.519531250
vt 0.125000000 0.519531250
vn 0.00000000 -0.99638411 -0.08496299
f 178/178/60 179/179/60 180/180/60
g pz_sofa_seating_indoor_03_victorian_c2_0_0__sculpted_back__back
v -0.32293750 -0.47558750 0.85785000
v 0.50000000 -0.44093750 0.45150000
v 0.50000000 -0.49483750 1.08360000
vt 0.019531250 0.655133929
vt 0.125000000 0.519531250
vt 0.125000000 0.730468750
vn -0.00000000 -0.99638411 -0.08496299
f 181/181/61 182/182/61 183/183/61
g pz_sofa_seating_indoor_03_victorian_c2_0_0__sculpted_back__back
v -0.32293750 -0.47558750 0.85785000
v 0.50000000 -0.49483750 1.08360000
v 0.29210000 -0.49339375 1.06666875
vt 0.019531250 0.655133929
vt 0.125000000 0.730468750
vt 0.098355263 0.724818638
vn -0.00000000 -0.99638411 -0.08496299
f 184/184/62 185/185/62 186/186/62
g pz_sofa_seating_indoor_03_victorian_c2_0_0__sculpted_back__back
v -0.32293750 -0.47558750 0.85785000
v 0.29210000 -0.49339375 1.06666875
v 0.10152500 -0.49050625 1.03280625
vt 0.019531250 0.655133929
vt 0.098355263 0.724818638
vt 0.073930921 0.713518415
vn 0.00000000 -0.99638411 -0.08496299
f 187/187/63 188/188/63 189/189/63
g pz_sofa_seating_indoor_03_victorian_c2_0_0__sculpted_back__back
v 0.10152500 -0.49050625 1.03280625
v -0.24112500 -0.48328750 0.94815000
v -0.32293750 -0.47558750 0.85785000
vt 0.073930921 0.713518415
vt 0.030016447 0.685267857
vt 0.019531250 0.655133929
vn 0.00000000 -0.99638411 -0.08496299
f 190/190/64 191/191/64 192/192/64
g pz_sofa_seating_indoor_03_victorian_c2_0_0__sculpted_back__frame
v -0.31812500 -0.27731250 0.45150000
v -0.29420322 -0.25659375 0.49071307
v 0.50000000 -0.25659375 0.49071307
vt 0.270148026 0.019531250
vt 0.273213873 0.032617007
vt 0.375000000 0.032617007
vn 0.00000000 0.88417092 -0.46716355
f 193/193/65 194/194/65 195/195/65
g pz_sofa_seating_indoor_03_victorian_c2_0_0__sculpted_back__frame
v 0.50000000 -0.25659375 0.49071307
v 0.50000000 -0.27731250 0.45150000
v -0.31812500 -0.27731250 0.45150000
vt 0.375000000 0.032617007
vt 0.375000000 0.019531250
vt 0.270148026 0.019531250
vn 0.00000000 0.88417092 -0.46716355
f 196/196/66 197/197/66 198/198/66
g pz_sofa_seating_indoor_03_victorian_c2_0_0__sculpted_back__frame
v 0.50000000 -0.33121250 1.08360000
v 0.50000000 -0.30568125 1.06637557
v 0.29817895 -0.30436641 1.05095604
vt 0.625000000 0.019531250
vt 0.625000000 0.091704773
vt 0.599134349 0.095421654
vn -0.05958659 0.55827473 0.82751360
f 199/199/67 200/200/67 201/201/67
g pz_sofa_seating_indoor_03_victorian_c2_0_0__sculpted_back__frame
v 0.29817895 -0.30436641 1.05095604
v 0.29210000 -0.32976875 1.06666875
v 0.50000000 -0.33121250 1.08360000
vt 0.599134349 0.095421654
vt 0.598355263 0.023612543
vt 0.625000000 0.019531250
vn -0.06482047 0.53611804 0.84165061
f 202/202/68 203/203/68 204/204/68
g pz_sofa_seating_indoor_03_victorian_c2_0_0__sculpted_back__back
v 0.50000000 -0.49483750 1.08360000
v 0.50000000 -0.33121250 1.08360000
v 0.29210000 -0.32976875 1.06666875
vt 0.375000000 0.519531250
vt 0.375000000 0.664402410
vt 0.348355263 0.665680685
vn -0.08117066 0.00000000 0.99670022
f 205/205/69 206/206/69 207/207/69
g pz_sofa_seating_indoor_03_victorian_c2_0_0__sculpted_back__back
v 0.29210000 -0.32976875 1.06666875
v 0.29210000 -0.49339375 1.06666875
v 0.50000000 -0.49483750 1.08360000
vt 0.348355263 0.665680685
vt 0.348355263 0.520809525
vt 0.375000000 0.519531250
vn -0.08117066 0.00000000 0.99670022
f 208/208/70 209/209/70 210/210/70
g pz_sofa_seating_indoor_03_victorian_c2_0_0__sculpted_back__frame
v 0.29210000 -0.32976875 1.06666875
v 0.29817895 -0.30436641 1.05095604
v 0.11317632 -0.30173672 1.02011697
vt 0.598355263 0.023612543
vt 0.599134349 0.095421654
vt 0.575424170 0.102855446
vn -0.13044495 0.54394691 0.82891850
f 211/211/71 212/212/71 213/213/71
g pz_sofa_seating_indoor_03_victorian_c2_0_0__sculpted_back__frame
v 0.11317632 -0.30173672 1.02011697
v 0.10152500 -0.32688125 1.03280625
v 0.29210000 -0.32976875 1.06666875
vt 0.575424170 0.102855446
vt 0.573930921 0.031775130
vt 0.598355263 0.023612543
vn -0.14435254 0.49831472 0.85489460
f 214/214/72 215/215/72 216/216/72
g pz_sofa_seating_indoor_03_victorian_c2_0_0__sculpted_back__back
v 0.29210000 -0.49339375 1.06666875
v 0.29210000 -0.32976875 1.06666875
v 0.10152500 -0.32688125 1.03280625
vt 0.348355263 0.520809525
vt 0.348355263 0.665680685
vt 0.323930921 0.668237235
vn -0.17494569 0.00000000 0.98457808
f 217/217/73 218/218/73 219/219/73
g pz_sofa_seating_indoor_03_victorian_c2_0_0__sculpted_back__back
v 0.10152500 -0.32688125 1.03280625
v 0.10152500 -0.49050625 1.03280625
v 0.29210000 -0.49339375 1.06666875
vt 0.323930921 0.668237235
vt 0.323930921 0.523366075
vt 0.348355263 0.520809525
vn -0.17494569 0.00000000 0.98457808
f 220/220/74 221/221/74 222/222/74
g pz_sofa_seating_indoor_03_victorian_c2_0_0__sculpted_back__frame
v 0.10152500 -0.32688125 1.03280625
v 0.11317632 -0.30173672 1.02011697
v -0.21945468 -0.29516250 0.94301932
vt 0.573930921 0.031775130
vt 0.575424170 0.102855446
vt 0.532793744 0.121439911
vn -0.18469767 0.50965479 0.84032063
f 223/223/75 224/224/75 225/225/75
g pz_sofa_seating_indoor_03_victorian_c2_0_0__sculpted_back__frame
v -0.21945468 -0.29516250 0.94301932
v -0.24112500 -0.31966250 0.94815000
v 0.10152500 -0.32688125 1.03280625
vt 0.532793744 0.121439911
vt 0.530016447 0.052181598
vt 0.573930921 0.031775130
vn -0.21450654 0.37830697 0.90048364
f 226/226/76 227/227/76 228/228/76
g pz_sofa_seating_indoor_03_victorian_c2_0_0__sculpted_back__back
v 0.10152500 -0.49050625 1.03280625
v 0.10152500 -0.32688125 1.03280625
v -0.24112500 -0.31966250 0.94815000
vt 0.323930921 0.523366075
vt 0.323930921 0.668237235
vt 0.280016447 0.674628610
vn -0.23985145 0.00000000 0.97080960
f 229/229/77 230/230/77 231/231/77
g pz_sofa_seating_indoor_03_victorian_c2_0_0__sculpted_back__back
v -0.24112500 -0.31966250 0.94815000
v -0.24112500 -0.48328750 0.94815000
v 0.10152500 -0.49050625 1.03280625
vt 0.280016447 0.674628610
vt 0.280016447 0.529757450
vt 0.323930921 0.523366075
vn -0.23985145 0.00000000 0.97080960
f 232/232/78 233/233/78 234/234/78
g pz_sofa_seating_indoor_03_victorian_c2_0_0__sculpted_back__frame
v -0.24112500 -0.31966250 0.94815000
v -0.21945468 -0.29516250 0.94301932
v -0.29887500 -0.28815000 0.86078182
vt 0.280016447 0.185267857
vt 0.282793744 0.183555703
vt 0.272615132 0.156112303
vn -0.54650891 0.60471409 0.57935213
f 235/235/79 236/236/79 237/237/79
g pz_sofa_seating_indoor_03_victorian_c2_0_0__sculpted_back__frame
v -0.29887500 -0.28815000 0.86078182
v -0.32293750 -0.31196250 0.85785000
v -0.24112500 -0.31966250 0.94815000
vt 0.391263336 0.156112303
vt 0.323948496 0.155133929
vt 0.302181598 0.185267857
vn -0.60242412 0.53592276 0.59149977
f 238/238/80 239/239/80 240/240/80
g pz_sofa_seating_indoor_03_victorian_c2_0_0__sculpted_back__back
v -0.24112500 -0.48328750 0.94815000
v -0.24112500 -0.31966250 0.94815000
v -0.32293750 -0.31196250 0.85785000
vt 0.279757450 0.685267857
vt 0.424628610 0.685267857
vt 0.431446076 0.655133929
vn -0.74107627 0.00000000 0.67142085
f 241/241/81 242/242/81 243/243/81
g pz_sofa_seating_indoor_03_victorian_c2_0_0__sculpted_back__back
v -0.32293750 -0.31196250 0.85785000
v -0.32293750 -0.47558750 0.85785000
v -0.24112500 -0.48328750 0.94815000
vt 0.431446076 0.655133929
vt 0.286574916 0.655133929
vt 0.279757450 0.685267857
vn -0.74107627 0.00000000 0.67142085
f 244/244/82 245/245/82 246/246/82
g pz_sofa_seating_indoor_03_victorian_c2_0_0__sculpted_back__frame
v -0.32293750 -0.31196250 0.85785000
v -0.29887500 -0.28815000 0.86078182
v -0.29420322 -0.25659375 0.49071307
vt 0.269531250 0.155133929
vt 0.272615132 0.156112303
vt 0.273213873 0.032617007
vn -0.70563085 0.70671621 0.05135467
f 247/247/83 248/248/83 249/249/83
g pz_sofa_seating_indoor_03_victorian_c2_0_0__sculpted_back__frame
v -0.29420322 -0.25659375 0.49071307
v -0.31812500 -0.27731250 0.45150000
v -0.32293750 -0.31196250 0.85785000
vt 0.273213873 0.032617007
vt 0.270148026 0.019531250
vt 0.269531250 0.155133929
vn -0.70140529 0.71084073 0.05230742
f 250/250/84 251/251/84 252/252/84
g pz_sofa_seating_indoor_03_victorian_c2_0_0__sculpted_back__back
v -0.32293750 -0.47558750 0.85785000
v -0.32293750 -0.31196250 0.85785000
v -0.31812500 -0.27731250 0.45150000
vt 0.286574916 0.655133929
vt 0.431446076 0.655133929
vt 0.462124675 0.519531250
vn -0.99992988 0.00000000 -0.01184241
f 253/253/85 254/254/85 255/255/85
g pz_sofa_seating_indoor_03_victorian_c2_0_0__sculpted_back__back
v -0.31812500 -0.27731250 0.45150000
v -0.31812500 -0.44093750 0.45150000
v -0.32293750 -0.47558750 0.85785000
vt 0.462124675 0.519531250
vt 0.317253514 0.519531250
vt 0.286574916 0.655133929
vn -0.99992988 -0.00000000 -0.01184241
f 256/256/86 257/257/86 258/258/86
g pz_sofa_seating_indoor_03_victorian_c2_0_0__curved_victorian_side_-1__arm
v -0.35470000 -0.44093750 0.19188750
v -0.35470000 -0.44093750 0.84091875
v -0.35470000 -0.36875000 0.81834375
vt 0.519531250 0.519531250
vt 0.519531250 0.730468750
vt 0.540077110 0.723131793
vn -1.00000000 0.00000000 0.00000000
f 259/259/87 260/260/87 261/261/87
g pz_sofa_seating_indoor_03_victorian_c2_0_0__curved_victorian_side_-1__arm
v -0.35470000 -0.44093750 0.19188750
v -0.35470000 -0.36875000 0.81834375
v -0.35470000 0.22800000 0.63774375
vt 0.519531250 0.519531250
vt 0.540077110 0.723131793
vt 0.709922890 0.664436141
vn -1.00000000 0.00000000 0.00000000
f 262/262/88 263/263/88 264/264/88
g pz_sofa_seating_indoor_03_victorian_c2_0_0__curved_victorian_side_-1__arm
v -0.35470000 -0.44093750 0.19188750
v -0.35470000 0.22800000 0.63774375
v -0.35470000 0.30018750 0.59259375
vt 0.519531250 0.519531250
vt 0.709922890 0.664436141
vt 0.730468750 0.649762228
vn -1.00000000 0.00000000 0.00000000
f 265/265/89 266/266/89 267/267/89
g pz_sofa_seating_indoor_03_victorian_c2_0_0__curved_victorian_side_-1__arm
v -0.35470000 0.30018750 0.59259375
v -0.35470000 0.30018750 0.19188750
v -0.35470000 -0.44093750 0.19188750
vt 0.730468750 0.649762228
vt 0.730468750 0.519531250
vt 0.519531250 0.519531250
vn -1.00000000 0.00000000 -0.00000000
f 268/268/90 269/269/90 270/270/90
g pz_sofa_seating_indoor_03_victorian_c2_0_0__curved_victorian_side_-1__arm
v -0.27000000 -0.44093750 0.84091875
v -0.27000000 -0.44093750 0.19188750
v -0.27000000 0.30018750 0.19188750
vt 0.769531250 0.730468750
vt 0.769531250 0.519531250
vt 0.980468750 0.519531250
vn 1.00000000 0.00000000 0.00000000
f 271/271/91 272/272/91 273/273/91
g pz_sofa_seating_indoor_03_victorian_c2_0_0__curved_victorian_side_-1__arm
v -0.27000000 -0.44093750 0.84091875
v -0.27000000 0.30018750 0.19188750
v -0.27000000 0.30018750 0.59259375
vt 0.769531250 0.730468750
vt 0.980468750 0.519531250
vt 0.980468750 0.649762228
vn 1.00000000 0.00000000 0.00000000
f 274/274/92 275/275/92 276/276/92
g pz_sofa_seating_indoor_03_victorian_c2_0_0__curved_victorian_side_-1__arm
v -0.27000000 0.30018750 0.59259375
v -0.27000000 0.22800000 0.63774375
v -0.27000000 -0.36875000 0.81834375
vt 0.980468750 0.649762228
vt 0.959922890 0.664436141
vt 0.790077110 0.723131793
vn 1.00000000 0.00000000 0.00000000
f 277/277/93 278/278/93 279/279/93
g pz_sofa_seating_indoor_03_victorian_c2_0_0__curved_victorian_side_-1__arm
v -0.27000000 0.30018750 0.59259375
v -0.27000000 -0.36875000 0.81834375
v -0.27000000 -0.44093750 0.84091875
vt 0.980468750 0.649762228
vt 0.790077110 0.723131793
vt 0.769531250 0.730468750
vn 1.00000000 0.00000000 0.00000000
f 280/280/94 281/281/94 282/282/94
g pz_sofa_seating_indoor_03_victorian_c2_0_0__curved_victorian_side_-1__arm
v -0.27000000 0.30018750 0.19188750
v -0.35470000 0.30018750 0.19188750
v -0.35470000 0.30018750 0.59259375
vt 0.480468750 0.269531250
vt 0.269531250 0.269531250
vt 0.269531250 0.399762228
vn 0.00000000 1.00000000 0.00000000
f 283/283/95 284/284/95 285/285/95
g pz_sofa_seating_indoor_03_victorian_c2_0_0__curved_victorian_side_-1__arm
v -0.35470000 0.30018750 0.59259375
v -0.27000000 0.30018750 0.59259375
v -0.27000000 0.30018750 0.19188750
vt 0.269531250 0.399762228
vt 0.480468750 0.399762228
vt 0.480468750 0.269531250
vn -0.00000000 1.00000000 0.00000000
f 286/286/96 287/287/96 288/288/96
g pz_sofa_seating_indoor_03_victorian_c2_0_0__curved_victorian_side_-1__arm
v -0.27000000 0.30018750 0.59259375
v -0.35470000 0.30018750 0.59259375
v -0.35470000 0.22800000 0.63774375
vt 0.230468750 0.480468750
vt 0.230468750 0.269531250
vt 0.209922890 0.269531250
vn 0.00000000 0.53027604 0.84782506
f 289/289/97 290/290/97 291/291/97
g pz_sofa_seating_indoor_03_victorian_c2_0_0__curved_victorian_side_-1__arm
v -0.35470000 0.22800000 0.63774375
v -0.27000000 0.22800000 0.63774375
v -0.27000000 0.30018750 0.59259375
vt 0.209922890 0.269531250
vt 0.209922890 0.480468750
vt 0.230468750 0.480468750
vn -0.00000000 0.53027604 0.84782506
f 292/292/98 293/293/98 294/294/98
g pz_sofa_seating_indoor_03_victorian_c2_0_0__curved_victorian_side_-1__arm
v -0.27000000 0.22800000 0.63774375
v -0.35470000 0.22800000 0.63774375
v -0.35470000 -0.36875000 0.81834375
vt 0.209922890 0.480468750
vt 0.209922890 0.269531250
vt 0.040077110 0.269531250
vn 0.00000000 0.28966461 0.95712821
f 295/295/99 296/296/99 297/297/99
g pz_sofa_seating_indoor_03_victorian_c2_0_0__curved_victorian_side_-1__arm
v -0.35470000 -0.36875000 0.81834375
v -0.27000000 -0.36875000 0.81834375
v -0.27000000 0.22800000 0.63774375
vt 0.040077110 0.269531250
vt 0.040077110 0.480468750
vt 0.209922890 0.480468750
vn -0.00000000 0.28966461 0.95712821
f 298/298/100 299/299/100 300/300/100
g pz_sofa_seating_indoor_03_victorian_c2_0_0__curved_victorian_side_-1__arm
v -0.27000000 -0.36875000 0.81834375
v -0.35470000 -0.36875000 0.81834375
v -0.35470000 -0.44093750 0.84091875
vt 0.040077110 0.480468750
vt 0.040077110 0.269531250
vt 0.019531250 0.269531250
vn 0.00000000 0.29847260 0.95441820
f 301/301/101 302/302/101 303/303/101
g pz_sofa_seating_indoor_03_victorian_c2_0_0__curved_victorian_side_-1__arm
v -0.35470000 -0.44093750 0.84091875
v -0.27000000 -0.44093750 0.84091875
v -0.27000000 -0.36875000 0.81834375
vt 0.019531250 0.269531250
vt 0.019531250 0.480468750
vt 0.040077110 0.480468750
vn -0.00000000 0.29847260 0.95441820
f 304/304/102 305/305/102 306/306/102
g pz_sofa_seating_indoor_03_victorian_c2_0_0__curved_victorian_side_-1__arm
v -0.27000000 -0.44093750 0.84091875
v -0.35470000 -0.44093750 0.84091875
v -0.35470000 -0.44093750 0.19188750
vt 0.480468750 0.480468750
vt 0.269531250 0.480468750
vt 0.269531250 0.269531250
vn -0.00000000 -1.00000000 0.00000000
f 307/307/103 308/308/103 309/309/103
g pz_sofa_seating_indoor_03_victorian_c2_0_0__curved_victorian_side_-1__arm
v -0.35470000 -0.44093750 0.19188750
v -0.27000000 -0.44093750 0.19188750
v -0.27000000 -0.44093750 0.84091875
vt 0.269531250 0.269531250
vt 0.480468750 0.269531250
vt 0.480468750 0.480468750
vn 0.00000000 -1.00000000 0.00000000
f 310/310/104 311/311/104 312/312/104
g pz_sofa_seating_indoor_03_victorian_c2_0_0__victorian_roll_-1_0__arm
v -0.28010625 -0.43612500 0.76413700
v -0.24786250 -0.43612500 0.82963125
v -0.28010625 -0.43612500 0.89512550
vt 0.427734375 0.361667211
vt 0.480468750 0.421067981
vt 0.427734375 0.480468750
vn 0.00000000 -1.00000000 0.00000000
f 313/313/105 314/314/105 315/315/105
g pz_sofa_seating_indoor_03_victorian_c2_0_0__victorian_roll_-1_0__arm
v -0.28010625 -0.43612500 0.76413700
v -0.28010625 -0.43612500 0.89512550
v -0.34459375 -0.43612500 0.89512550
vt 0.427734375 0.361667211
vt 0.427734375 0.480468750
vt 0.322265625 0.480468750
vn 0.00000000 -1.00000000 0.00000000
f 316/316/106 317/317/106 318/318/106
g pz_sofa_seating_indoor_03_victorian_c2_0_0__victorian_roll_-1_0__arm
v -0.28010625 -0.43612500 0.76413700
v -0.34459375 -0.43612500 0.89512550
v -0.37683750 -0.43612500 0.82963125
vt 0.427734375 0.361667211
vt 0.322265625 0.480468750
vt 0.269531250 0.421067981
vn 0.00000000 -1.00000000 0.00000000
f 319/319/107 320/320/107 321/321/107
g pz_sofa_seating_indoor_03_victorian_c2_0_0__victorian_roll_-1_0__arm
v -0.37683750 -0.43612500 0.82963125
v -0.34459375 -0.43612500 0.76413700
v -0.28010625 -0.43612500 0.76413700
vt 0.269531250 0.421067981
vt 0.322265625 0.361667211
vt 0.427734375 0.361667211
vn 0.00000000 -1.00000000 0.00000000
f 322/322/108 323/323/108 324/324/108
g pz_sofa_seating_indoor_03_victorian_c2_0_0__victorian_roll_-1_0__arm
v -0.24786250 -0.17625000 0.72804375
v -0.28010625 -0.17625000 0.66254950
v -0.34459375 -0.17625000 0.66254950
vt 0.480468750 0.328932019
vt 0.427734375 0.269531250
vt 0.322265625 0.269531250
vn 0.00000000 1.00000000 0.00000000
f 325/325/109 326/326/109 327/327/109
g pz_sofa_seating_indoor_03_victorian_c2_0_0__victorian_roll_-1_0__arm
v -0.24786250 -0.17625000 0.72804375
v -0.34459375 -0.17625000 0.66254950
v -0.37683750 -0.17625000 0.72804375
vt 0.480468750 0.328932019
vt 0.322265625 0.269531250
vt 0.269531250 0.328932019
vn 0.00000000 1.00000000 0.00000000
f 328/328/110 329/329/110 330/330/110
g pz_sofa_seating_indoor_03_victorian_c2_0_0__victorian_roll_-1_0__arm
v -0.24786250 -0.17625000 0.72804375
v -0.37683750 -0.17625000 0.72804375
v -0.34459375 -0.17625000 0.79353800
vt 0.480468750 0.328932019
vt 0.269531250 0.328932019
vt 0.322265625 0.388332789
vn 0.00000000 1.00000000 0.00000000
f 331/331/111 332/332/111 333/333/111
g pz_sofa_seating_indoor_03_victorian_c2_0_0__victorian_roll_-1_0__arm
v -0.34459375 -0.17625000 0.79353800
v -0.28010625 -0.17625000 0.79353800
v -0.24786250 -0.17625000 0.72804375
vt 0.322265625 0.388332789
vt 0.427734375 0.388332789
vt 0.480468750 0.328932019
vn -0.00000000 1.00000000 0.00000000
f 334/334/112 335/335/112 336/336/112
g pz_sofa_seating_indoor_03_victorian_c2_0_0__victorian_roll_-1_0__arm
v -0.28010625 -0.43612500 0.89512550
v -0.24786250 -0.43612500 0.82963125
v -0.24786250 -0.17625000 0.72804375
vt 0.769531250 0.730468750
vt 0.769531250 0.671067981
vt 0.980468750 0.578932019
vn 0.88408715 0.17014265 0.43524864
f 337/337/113 338/338/113 339/339/113
g pz_sofa_seating_indoor_03_victorian_c2_0_0__victorian_roll_-1_0__arm
v -0.24786250 -0.17625000 0.72804375
v -0.28010625 -0.17625000 0.79353800
v -0.28010625 -0.43612500 0.89512550
vt 0.980468750 0.578932019
vt 0.980468750 0.638332789
vt 0.769531250 0.730468750
vn 0.88408715 0.17014265 0.43524864
f 340/340/114 341/341/114 342/342/114
g pz_sofa_seating_indoor_03_victorian_c2_0_0__victorian_roll_-1_0__arm
v -0.34459375 -0.43612500 0.89512550
v -0.28010625 -0.43612500 0.89512550
v -0.28010625 -0.17625000 0.79353800
vt 0.019531250 0.322265625
vt 0.019531250 0.427734375
vt 0.230468750 0.427734375
vn 0.00000000 0.36408008 0.93136765
f 343/343/115 344/344/115 345/345/115
g pz_sofa_seating_indoor_03_victorian_c2_0_0__victorian_roll_-1_0__arm
v -0.28010625 -0.17625000 0.79353800
v -0.34459375 -0.17625000 0.79353800
v -0.34459375 -0.43612500 0.89512550
vt 0.230468750 0.427734375
vt 0.230468750 0.322265625
vt 0.019531250 0.322265625
vn 0.00000000 0.36408008 0.93136765
f 346/346/116 347/347/116 348/348/116
g pz_sofa_seating_indoor_03_victorian_c2_0_0__victorian_roll_-1_0__arm
v -0.37683750 -0.43612500 0.82963125
v -0.34459375 -0.43612500 0.89512550
v -0.34459375 -0.17625000 0.79353800
vt 0.519531250 0.671067981
vt 0.519531250 0.730468750
vt 0.730468750 0.638332789
vn -0.88408715 0.17014265 0.43524864
f 349/349/117 350/350/117 351/351/117
g pz_sofa_seating_indoor_03_victorian_c2_0_0__victorian_roll_-1_0__arm
v -0.34459375 -0.17625000 0.79353800
v -0.37683750 -0.17625000 0.72804375
v -0.37683750 -0.43612500 0.82963125
vt 0.730468750 0.638332789
vt 0.730468750 0.578932019
vt 0.519531250 0.671067981
vn -0.88408715 0.17014265 0.43524864
f 352/352/118 353/353/118 354/354/118
g pz_sofa_seating_indoor_03_victorian_c2_0_0__victorian_roll_-1_0__arm
v -0.34459375 -0.43612500 0.76413700
v -0.37683750 -0.43612500 0.82963125
v -0.37683750 -0.17625000 0.72804375
vt 0.519531250 0.611667211
vt 0.519531250 0.671067981
vt 0.730468750 0.578932019
vn -0.88408715 -0.17014265 -0.43524864
f 355/355/119 356/356/119 357/357/119
g pz_sofa_seating_indoor_03_victorian_c2_0_0__victorian_roll_-1_0__arm
v -0.37683750 -0.17625000 0.72804375
v -0.34459375 -0.17625000 0.66254950
v -0.34459375 -0.43612500 0.76413700
vt 0.730468750 0.578932019
vt 0.730468750 0.519531250
vt 0.519531250 0.611667211
vn -0.88408715 -0.17014265 -0.43524864
f 358/358/120 359/359/120 360/360/120
g pz_sofa_seating_indoor_03_victorian_c2_0_0__victorian_roll_-1_0__arm
v -0.28010625 -0.43612500 0.76413700
v -0.34459375 -0.43612500 0.76413700
v -0.34459375 -0.17625000 0.66254950
vt 0.019531250 0.427734375
vt 0.019531250 0.322265625
vt 0.230468750 0.322265625
vn -0.00000000 -0.36408008 -0.93136765
f 361/361/121 362/362/121 363/363/121
g pz_sofa_seating_indoor_03_victorian_c2_0_0__victorian_roll_-1_0__arm
v -0.34459375 -0.17625000 0.66254950
v -0.28010625 -0.17625000 0.66254950
v -0.28010625 -0.43612500 0.76413700
vt 0.230468750 0.322265625
vt 0.230468750 0.427734375
vt 0.019531250 0.427734375
vn -0.00000000 -0.36408008 -0.93136765
f 364/364/122 365/365/122 366/366/122
g pz_sofa_seating_indoor_03_victorian_c2_0_0__victorian_roll_-1_0__arm
v -0.24786250 -0.43612500 0.82963125
v -0.28010625 -0.43612500 0.76413700
v -0.28010625 -0.17625000 0.66254950
vt 0.769531250 0.671067981
vt 0.769531250 0.611667211
vt 0.980468750 0.519531250
vn 0.88408715 -0.17014265 -0.43524864
f 367/367/123 368/368/123 369/369/123
g pz_sofa_seating_indoor_03_victorian_c2_0_0__victorian_roll_-1_0__arm
v -0.28010625 -0.17625000 0.66254950
v -0.24786250 -0.17625000 0.72804375
v -0.24786250 -0.43612500 0.82963125
vt 0.980468750 0.519531250
vt 0.980468750 0.578932019
vt 0.769531250 0.671067981
vn 0.88408715 -0.17014265 -0.43524864
f 370/370/124 371/371/124 372/372/124
g pz_sofa_seating_indoor_03_victorian_c2_0_0__victorian_roll_-1_1__arm
v -0.28010625 -0.17625000 0.66254950
v -0.24786250 -0.17625000 0.72804375
v -0.28010625 -0.17625000 0.79353800
vt 0.427734375 0.348896106
vt 0.480468750 0.414682428
vt 0.427734375 0.480468750
vn 0.00000000 -1.00000000 0.00000000
f 373/373/125 374/374/125 375/375/125
g pz_sofa_seating_indoor_03_victorian_c2_0_0__victorian_roll_-1_1__arm
v -0.28010625 -0.17625000 0.66254950
v -0.28010625 -0.17625000 0.79353800
v -0.34459375 -0.17625000 0.79353800
vt 0.427734375 0.348896106
vt 0.427734375 0.480468750
vt 0.322265625 0.480468750
vn 0.00000000 -1.00000000 0.00000000
f 376/376/126 377/377/126 378/378/126
g pz_sofa_seating_indoor_03_victorian_c2_0_0__victorian_roll_-1_1__arm
v -0.28010625 -0.17625000 0.66254950
v -0.34459375 -0.17625000 0.79353800
v -0.37683750 -0.17625000 0.72804375
vt 0.427734375 0.348896106
vt 0.322265625 0.480468750
vt 0.269531250 0.414682428
vn 0.00000000 -1.00000000 0.00000000
f 379/379/127 380/380/127 381/381/127
g pz_sofa_seating_indoor_03_victorian_c2_0_0__victorian_roll_-1_1__arm
v -0.37683750 -0.17625000 0.72804375
v -0.34459375 -0.17625000 0.66254950
v -0.28010625 -0.17625000 0.66254950
vt 0.269531250 0.414682428
vt 0.322265625 0.348896106
vt 0.427734375 0.348896106
vn 0.00000000 -1.00000000 0.00000000
f 382/382/128 383/383/128 384/384/128
g pz_sofa_seating_indoor_03_victorian_c2_0_0__victorian_roll_-1_1__arm
v -0.24786250 0.07400000 0.64903125
v -0.28010625 0.07400000 0.58353700
v -0.34459375 0.07400000 0.58353700
vt 0.480468750 0.335317572
vt 0.427734375 0.269531250
vt 0.322265625 0.269531250
vn 0.00000000 1.00000000 0.00000000
f 385/385/129 386/386/129 387/387/129
g pz_sofa_seating_indoor_03_victorian_c2_0_0__victorian_roll_-1_1__arm
v -0.24786250 0.07400000 0.64903125
v -0.34459375 0.07400000 0.58353700
v -0.37683750 0.07400000 0.64903125
vt 0.480468750 0.335317572
vt 0.322265625 0.269531250
vt 0.269531250 0.335317572
vn 0.00000000 1.00000000 0.00000000
f 388/388/130 389/389/130 390/390/130
g pz_sofa_seating_indoor_03_victorian_c2_0_0__victorian_roll_-1_1__arm
v -0.24786250 0.07400000 0.64903125
v -0.37683750 0.07400000 0.64903125
v -0.34459375 0.07400000 0.71452550
vt 0.480468750 0.335317572
vt 0.269531250 0.335317572
vt 0.322265625 0.401103894
vn 0.00000000 1.00000000 0.00000000
f 391/391/131 392/392/131 393/393/131
g pz_sofa_seating_indoor_03_victorian_c2_0_0__victorian_roll_-1_1__arm
v -0.34459375 0.07400000 0.71452550
v -0.28010625 0.07400000 0.71452550
v -0.24786250 0.07400000 0.64903125
vt 0.322265625 0.401103894
vt 0.427734375 0.401103894
vt 0.480468750 0.335317572
vn -0.00000000 1.00000000 0.00000000
f 394/394/132 395/395/132 396/396/132
g pz_sofa_seating_indoor_03_victorian_c2_0_0__victorian_roll_-1_1__arm
v -0.28010625 -0.17625000 0.79353800
v -0.24786250 -0.17625000 0.72804375
v -0.24786250 0.07400000 0.64903125
vt 0.769531250 0.730468750
vt 0.769531250 0.664682428
vt 0.980468750 0.585317572
vn 0.88856950 0.13811965 0.43745537
f 397/397/133 398/398/133 399/399/133
g pz_sofa_seating_indoor_03_victorian_c2_0_0__victorian_roll_-1_1__arm
v -0.24786250 0.07400000 0.64903125
v -0.28010625 0.07400000 0.71452550
v -0.28010625 -0.17625000 0.79353800
vt 0.980468750 0.585317572
vt 0.980468750 0.651103894
vt 0.769531250 0.730468750
vn 0.88856950 0.13811965 0.43745537
f 400/400/134 401/401/134 402/402/134
g pz_sofa_seating_indoor_03_victorian_c2_0_0__victorian_roll_-1_1__arm
v -0.34459375 -0.17625000 0.79353800
v -0.28010625 -0.17625000 0.79353800
v -0.28010625 0.07400000 0.71452550
vt 0.019531250 0.322265625
vt 0.019531250 0.427734375
vt 0.230468750 0.427734375
vn -0.00000000 0.30108350 0.95359778
f 403/403/135 404/404/135 405/405/135
g pz_sofa_seating_indoor_03_victorian_c2_0_0__victorian_roll_-1_1__arm
v -0.28010625 0.07400000 0.71452550
v -0.34459375 0.07400000 0.71452550
v -0.34459375 -0.17625000 0.79353800
vt 0.230468750 0.427734375
vt 0.230468750 0.322265625
vt 0.019531250 0.322265625
vn 0.00000000 0.30108350 0.95359778
f 406/406/136 407/407/136 408/408/136
g pz_sofa_seating_indoor_03_victorian_c2_0_0__victorian_roll_-1_1__arm
v -0.37683750 -0.17625000 0.72804375
v -0.34459375 -0.17625000 0.79353800
v -0.34459375 0.07400000 0.71452550
vt 0.519531250 0.664682428
vt 0.519531250 0.730468750
vt 0.730468750 0.651103894
vn -0.88856950 0.13811965 0.43745537
f 409/409/137 410/410/137 411/411/137
g pz_sofa_seating_indoor_03_victorian_c2_0_0__victorian_roll_-1_1__arm
v -0.34459375 0.07400000 0.71452550
v -0.37683750 0.07400000 0.64903125
v -0.37683750 -0.17625000 0.72804375
vt 0.730468750 0.651103894
vt 0.730468750 0.585317572
vt 0.519531250 0.664682428
vn -0.88856950 0.13811965 0.43745537
f 412/412/138 413/413/138 414/414/138
g pz_sofa_seating_indoor_03_victorian_c2_0_0__victorian_roll_-1_1__arm
v -0.34459375 -0.17625000 0.66254950
v -0.37683750 -0.17625000 0.72804375
v -0.37683750 0.07400000 0.64903125
vt 0.519531250 0.598896106
vt 0.519531250 0.664682428
vt 0.730468750 0.585317572
vn -0.88856950 -0.13811965 -0.43745537
f 415/415/139 416/416/139 417/417/139
g pz_sofa_seating_indoor_03_victorian_c2_0_0__victorian_roll_-1_1__arm
v -0.37683750 0.07400000 0.64903125
v -0.34459375 0.07400000 0.58353700
v -0.34459375 -0.17625000 0.66254950
vt 0.730468750 0.585317572
vt 0.730468750 0.519531250
vt 0.519531250 0.598896106
vn -0.88856950 -0.13811965 -0.43745537
f 418/418/140 419/419/140 420/420/140
g pz_sofa_seating_indoor_03_victorian_c2_0_0__victorian_roll_-1_1__arm
v -0.28010625 -0.17625000 0.66254950
v -0.34459375 -0.17625000 0.66254950
v -0.34459375 0.07400000 0.58353700
vt 0.019531250 0.427734375
vt 0.019531250 0.322265625
vt 0.230468750 0.322265625
vn -0.00000000 -0.30108350 -0.95359778
f 421/421/141 422/422/141 423/423/141
g pz_sofa_seating_indoor_03_victorian_c2_0_0__victorian_roll_-1_1__arm
v -0.34459375 0.07400000 0.58353700
v -0.28010625 0.07400000 0.58353700
v -0.28010625 -0.17625000 0.66254950
vt 0.230468750 0.322265625
vt 0.230468750 0.427734375
vt 0.019531250 0.427734375
vn -0.00000000 -0.30108350 -0.95359778
f 424/424/142 425/425/142 426/426/142
g pz_sofa_seating_indoor_03_victorian_c2_0_0__victorian_roll_-1_1__arm
v -0.24786250 -0.17625000 0.72804375
v -0.28010625 -0.17625000 0.66254950
v -0.28010625 0.07400000 0.58353700
vt 0.769531250 0.664682428
vt 0.769531250 0.598896106
vt 0.980468750 0.519531250
vn 0.88856950 -0.13811965 -0.43745537
f 427/427/143 428/428/143 429/429/143
g pz_sofa_seating_indoor_03_victorian_c2_0_0__victorian_roll_-1_1__arm
v -0.28010625 0.07400000 0.58353700
v -0.24786250 0.07400000 0.64903125
v -0.24786250 -0.17625000 0.72804375
vt 0.980468750 0.519531250
vt 0.980468750 0.585317572
vt 0.769531250 0.664682428
vn 0.88856950 -0.13811965 -0.43745537
f 430/430/144 431/431/144 432/432/144
g pz_sofa_seating_indoor_03_victorian_c2_0_0__victorian_roll_-1_2__arm
v -0.28010625 0.07400000 0.58353700
v -0.24786250 0.07400000 0.64903125
v -0.28010625 0.07400000 0.71452550
vt 0.427734375 0.300540663
vt 0.480468750 0.390504707
vt 0.427734375 0.480468750
vn 0.00000000 -1.00000000 0.00000000
f 433/433/145 434/434/145 435/435/145
g pz_sofa_seating_indoor_03_victorian_c2_0_0__victorian_roll_-1_2__arm
v -0.28010625 0.07400000 0.58353700
v -0.28010625 0.07400000 0.71452550
v -0.34459375 0.07400000 0.71452550
vt 0.427734375 0.300540663
vt 0.427734375 0.480468750
vt 0.322265625 0.480468750
vn 0.00000000 -1.00000000 0.00000000
f 436/436/146 437/437/146 438/438/146
g pz_sofa_seating_indoor_03_victorian_c2_0_0__victorian_roll_-1_2__arm
v -0.28010625 0.07400000 0.58353700
v -0.34459375 0.07400000 0.71452550
v -0.37683750 0.07400000 0.64903125
vt 0.427734375 0.300540663
vt 0.322265625 0.480468750
vt 0.269531250 0.390504707
vn 0.00000000 -1.00000000 0.00000000
f 439/439/147 440/440/147 441/441/147
g pz_sofa_seating_indoor_03_victorian_c2_0_0__victorian_roll_-1_2__arm
v -0.37683750 0.07400000 0.64903125
v -0.34459375 0.07400000 0.58353700
v -0.28010625 0.07400000 0.58353700
vt 0.269531250 0.390504707
vt 0.322265625 0.300540663
vt 0.427734375 0.300540663
vn 0.00000000 -1.00000000 0.00000000
f 442/442/148 443/443/148 444/444/148
g pz_sofa_seating_indoor_03_victorian_c2_0_0__victorian_roll_-1_2__arm
v -0.24786250 0.30018750 0.62645625
v -0.28010625 0.30018750 0.56096200
v -0.34459375 0.30018750 0.56096200
vt 0.480468750 0.359495293
vt 0.427734375 0.269531250
vt 0.322265625 0.269531250
vn 0.00000000 1.00000000 0.00000000
f 445/445/149 446/446/149 447/447/149
g pz_sofa_seating_indoor_03_victorian_c2_0_0__victorian_roll_-1_2__arm
v -0.24786250 0.30018750 0.62645625
v -0.34459375 0.30018750 0.56096200
v -0.37683750 0.30018750 0.62645625
vt 0.480468750 0.359495293
vt 0.322265625 0.269531250
vt 0.269531250 0.359495293
vn 0.00000000 1.00000000 0.00000000
f 448/448/150 449/449/150 450/450/150
g pz_sofa_seating_indoor_03_victorian_c2_0_0__victorian_roll_-1_2__arm
v -0.24786250 0.30018750 0.62645625
v -0.37683750 0.30018750 0.62645625
v -0.34459375 0.30018750 0.69195050
vt 0.480468750 0.359495293
vt 0.269531250 0.359495293
vt 0.322265625 0.449459337
vn 0.00000000 1.00000000 0.00000000
f 451/451/151 452/452/151 453/453/151
g pz_sofa_seating_indoor_03_victorian_c2_0_0__victorian_roll_-1_2__arm
v -0.34459375 0.30018750 0.69195050
v -0.28010625 0.30018750 0.69195050
v -0.24786250 0.30018750 0.62645625
vt 0.322265625 0.449459337
vt 0.427734375 0.449459337
vt 0.480468750 0.359495293
vn -0.00000000 1.00000000 0.00000000
f 454/454/152 455/455/152 456/456/152
g pz_sofa_seating_indoor_03_victorian_c2_0_0__victorian_roll_-1_2__arm
v -0.28010625 0.07400000 0.71452550
v -0.24786250 0.07400000 0.64903125
v -0.24786250 0.30018750 0.62645625
vt 0.769531250 0.730468750
vt 0.769531250 0.640504707
vt 0.980468750 0.609495293
vn 0.89629788 0.04404067 0.44126016
f 457/457/153 458/458/153 459/459/153
g pz_sofa_seating_indoor_03_victorian_c2_0_0__victorian_roll_-1_2__arm
v -0.24786250 0.30018750 0.62645625
v -0.28010625 0.30018750 0.69195050
v -0.28010625 0.07400000 0.71452550
vt 0.980468750 0.609495293
vt 0.980468750 0.699459337
vt 0.769531250 0.730468750
vn 0.89629788 0.04404067 0.44126016
f 460/460/154 461/461/154 462/462/154
g pz_sofa_seating_indoor_03_victorian_c2_0_0__victorian_roll_-1_2__arm
v -0.34459375 0.07400000 0.71452550
v -0.28010625 0.07400000 0.71452550
v -0.28010625 0.30018750 0.69195050
vt 0.019531250 0.322265625
vt 0.019531250 0.427734375
vt 0.230468750 0.427734375
vn -0.00000000 0.09931316 0.99505623
f 463/463/155 464/464/155 465/465/155
g pz_sofa_seating_indoor_03_victorian_c2_0_0__victorian_roll_-1_2__arm
v -0.28010625 0.30018750 0.69195050
v -0.34459375 0.30018750 0.69195050
v -0.34459375 0.07400000 0.71452550
vt 0.230468750 0.427734375
vt 0.230468750 0.322265625
vt 0.019531250 0.322265625
vn 0.00000000 0.09931316 0.99505623
f 466/466/156 467/467/156 468/468/156
g pz_sofa_seating_indoor_03_victorian_c2_0_0__victorian_roll_-1_2__arm
v -0.37683750 0.07400000 0.64903125
v -0.34459375 0.07400000 0.71452550
v -0.34459375 0.30018750 0.69195050
vt 0.519531250 0.640504707
vt 0.519531250 0.730468750
vt 0.730468750 0.699459337
vn -0.89629788 0.04404067 0.44126016
f 469/469/157 470/470/157 471/471/157
g pz_sofa_seating_indoor_03_victorian_c2_0_0__victorian_roll_-1_2__arm
v -0.34459375 0.30018750 0.69195050
v -0.37683750 0.30018750 0.62645625
v -0.37683750 0.07400000 0.64903125
vt 0.730468750 0.699459337
vt 0.730468750 0.609495293
vt 0.519531250 0.640504707
vn -0.89629788 0.04404067 0.44126016
f 472/472/158 473/473/158 474/474/158
g pz_sofa_seating_indoor_03_victorian_c2_0_0__victorian_roll_-1_2__arm
v -0.34459375 0.07400000 0.58353700
v -0.37683750 0.07400000 0.64903125
v -0.37683750 0.30018750 0.62645625
vt 0.519531250 0.550540663
vt 0.519531250 0.640504707
vt 0.730468750 0.609495293
vn -0.89629788 -0.04404067 -0.44126016
f 475/475/159 476/476/159 477/477/159
g pz_sofa_seating_indoor_03_victorian_c2_0_0__victorian_roll_-1_2__arm
v -0.37683750 0.30018750 0.62645625
v -0.34459375 0.30018750 0.56096200
v -0.34459375 0.07400000 0.58353700
vt 0.730468750 0.609495293
vt 0.730468750 0.519531250
vt 0.519531250 0.550540663
vn -0.89629788 -0.04404067 -0.44126016
f 478/478/160 479/479/160 480/480/160
g pz_sofa_seating_indoor_03_victorian_c2_0_0__victorian_roll_-1_2__arm
v -0.28010625 0.07400000 0.58353700
v -0.34459375 0.07400000 0.58353700
v -0.34459375 0.30018750 0.56096200
vt 0.019531250 0.427734375
vt 0.019531250 0.322265625
vt 0.230468750 0.322265625
vn -0.00000000 -0.09931316 -0.99505623
f 481/481/161 482/482/161 483/483/161
g pz_sofa_seating_indoor_03_victorian_c2_0_0__victorian_roll_-1_2__arm
v -0.34459375 0.30018750 0.56096200
v -0.28010625 0.30018750 0.56096200
v -0.28010625 0.07400000 0.58353700
vt 0.230468750 0.322265625
vt 0.230468750 0.427734375
vt 0.019531250 0.427734375
vn 0.00000000 -0.09931316 -0.99505623
f 484/484/162 485/485/162 486/486/162
g pz_sofa_seating_indoor_03_victorian_c2_0_0__victorian_roll_-1_2__arm
v -0.24786250 0.07400000 0.64903125
v -0.28010625 0.07400000 0.58353700
v -0.28010625 0.30018750 0.56096200
vt 0.769531250 0.640504707
vt 0.769531250 0.550540663
vt 0.980468750 0.519531250
vn 0.89629788 -0.04404067 -0.44126016
f 487/487/163 488/488/163 489/489/163
g pz_sofa_seating_indoor_03_victorian_c2_0_0__victorian_roll_-1_2__arm
v -0.28010625 0.30018750 0.56096200
v -0.24786250 0.30018750 0.62645625
v -0.24786250 0.07400000 0.64903125
vt 0.980468750 0.519531250
vt 0.980468750 0.609495293
vt 0.769531250 0.640504707
vn 0.89629788 -0.04404067 -0.44126016
f 490/490/164 491/491/164 492/492/164
g pz_sofa_seating_indoor_03_victorian_c2_0_0__curved_foot_-1_-1_0__frame
v -0.25413176 -0.42064696 0.09030000
v -0.28781926 -0.43219696 0.00000000
v -0.27753510 -0.40832096 -0.00947648
vt 0.820320972 0.212172266
vt 0.769531250 0.037827734
vt 0.874523060 0.019531250
vn 0.84666983 -0.46637749 -0.25620742
f 493/493/165 494/494/165 495/495/165
g pz_sofa_seating_indoor_03_victorian_c2_0_0__curved_foot_-1_-1_0__frame
v -0.27753510 -0.40832096 -0.00947648
v -0.24384760 -0.39677096 0.08082352
v -0.25413176 -0.42064696 0.09030000
vt 0.874523060 0.019531250
vt 0.925312783 0.193875783
vt 0.820320972 0.212172266
vn 0.84666983 -0.46637749 -0.25620742
f 496/496/166 497/497/166 498/498/166
g pz_sofa_seating_indoor_03_victorian_c2_0_0__curved_foot_-1_-1_0__frame
v -0.24384760 -0.39677096 0.08082352
v -0.27753510 -0.40832096 -0.00947648
v -0.30030574 -0.39577804 -0.00000000
vt 0.980468750 0.193875783
vt 0.874000183 0.019531250
vt 0.802034101 0.037827734
vn 0.38239079 0.88776970 -0.25620742
f 499/499/167 500/500/167 501/501/167
g pz_sofa_seating_indoor_03_victorian_c2_0_0__curved_foot_-1_-1_0__frame
v -0.30030574 -0.39577804 -0.00000000
v -0.26661824 -0.38422804 0.09030000
v -0.24384760 -0.39677096 0.08082352
vt 0.802034101 0.037827734
vt 0.908502667 0.212172266
vt 0.980468750 0.193875783
vn 0.38239079 0.88776970 -0.25620742
f 502/502/168 503/503/168 504/504/168
g pz_sofa_seating_indoor_03_victorian_c2_0_0__curved_foot_-1_-1_0__frame
v -0.26661824 -0.38422804 0.09030000
v -0.30030574 -0.39577804 -0.00000000
v -0.31058990 -0.41965404 0.00947648
vt 0.980468750 0.212172266
vt 0.929679028 0.037827734
vt 0.824687217 0.056124217
vn -0.84666983 0.46637749 0.25620742
f 505/505/169 506/506/169 507/507/169
g pz_sofa_seating_indoor_03_victorian_c2_0_0__curved_foot_-1_-1_0__frame
v -0.31058990 -0.41965404 0.00947648
v -0.27690240 -0.40810404 0.09977648
v -0.26661824 -0.38422804 0.09030000
vt 0.824687217 0.056124217
vt 0.875476940 0.230468750
vt 0.980468750 0.212172266
vn -0.84666983 0.46637749 0.25620742
f 508/508/170 509/509/170 510/510/170
g pz_sofa_seating_indoor_03_victorian_c2_0_0__curved_foot_-1_-1_0__frame
v -0.27690240 -0.40810404 0.09977648
v -0.31058990 -0.41965404 0.00947648
v -0.28781926 -0.43219696 0.00000000
vt 0.875999817 0.230468750
vt 0.769531250 0.056124217
vt 0.841497333 0.037827734
vn -0.38239079 -0.88776970 0.25620742
f 511/511/171 512/512/171 513/513/171
g pz_sofa_seating_indoor_03_victorian_c2_0_0__curved_foot_-1_-1_0__frame
v -0.28781926 -0.43219696 0.00000000
v -0.25413176 -0.42064696 0.09030000
v -0.27690240 -0.40810404 0.09977648
vt 0.841497333 0.037827734
vt 0.947965899 0.212172266
vt 0.875999817 0.230468750
vn -0.38239079 -0.88776970 0.25620742
f 514/514/172 515/515/172 516/516/172
g pz_sofa_seating_indoor_03_victorian_c2_0_0__curved_foot_-1_-1_1__frame
v -0.29256515 -0.40243750 0.25214373
v -0.28294015 -0.40243750 0.08847498
v -0.26037500 -0.42505625 0.09030000
vt 0.769531250 0.225867173
vt 0.806610280 0.019531250
vt 0.893539515 0.021832039
vn -0.70565909 -0.70733524 -0.04149826
f 517/517/173 518/518/173 519/519/173
g pz_sofa_seating_indoor_03_victorian_c2_0_0__curved_foot_-1_-1_1__frame
v -0.26037500 -0.42505625 0.09030000
v -0.27000000 -0.42505625 0.25396875
v -0.29256515 -0.40243750 0.25214373
vt 0.893539515 0.021832039
vt 0.856460485 0.228167961
vt 0.769531250 0.225867173
vn -0.70565909 -0.70733524 -0.04149826
f 520/520/174 521/521/174 522/522/174
g pz_sofa_seating_indoor_03_victorian_c2_0_0__curved_foot_-1_-1_1__frame
v -0.27000000 -0.42505625 0.25396875
v -0.26037500 -0.42505625 0.09030000
v -0.23780985 -0.40243750 0.09212502
vt 0.856460485 0.228167961
vt 0.893539515 0.021832039
vt 0.980468750 0.024132827
vn 0.70565909 -0.70733524 0.04149826
f 523/523/175 524/524/175 525/525/175
g pz_sofa_seating_indoor_03_victorian_c2_0_0__curved_foot_-1_-1_1__frame
v -0.23780985 -0.40243750 0.09212502
v -0.24743485 -0.40243750 0.25579377
v -0.27000000 -0.42505625 0.25396875
vt 0.980468750 0.024132827
vt 0.943389720 0.230468750
vt 0.856460485 0.228167961
vn 0.70565909 -0.70733524 0.04149826
f 526/526/176 527/527/176 528/528/176
g pz_sofa_seating_indoor_03_victorian_c2_0_0__curved_foot_-1_-1_1__frame
v -0.24743485 -0.40243750 0.25579377
v -0.23780985 -0.40243750 0.09212502
v -0.26037500 -0.37981875 0.09030000
vt 0.943389720 0.230468750
vt 0.980468750 0.024132827
vt 0.893539515 0.021832039
vn 0.70565909 0.70733524 0.04149826
f 529/529/177 530/530/177 531/531/177
g pz_sofa_seating_indoor_03_victorian_c2_0_0__curved_foot_-1_-1_1__frame
v -0.26037500 -0.37981875 0.09030000
v -0.27000000 -0.37981875 0.25396875
v -0.24743485 -0.40243750 0.25579377
vt 0.893539515 0.021832039
vt 0.856460485 0.228167961
vt 0.943389720 0.230468750
vn 0.70565909 0.70733524 0.04149826
f 532/532/178 533/533/178 534/534/178
g pz_sofa_seating_indoor_03_victorian_c2_0_0__curved_foot_-1_-1_1__frame
v -0.27000000 -0.37981875 0.25396875
v -0.26037500 -0.37981875 0.09030000
v -0.28294015 -0.40243750 0.08847498
vt 0.856460485 0.228167961
vt 0.893539515 0.021832039
vt 0.806610280 0.019531250
vn -0.70565909 0.70733524 -0.04149826
f 535/535/179 536/536/179 537/537/179
g pz_sofa_seating_indoor_03_victorian_c2_0_0__curved_foot_-1_-1_1__frame
v -0.28294015 -0.40243750 0.08847498
v -0.29256515 -0.40243750 0.25214373
v -0.27000000 -0.37981875 0.25396875
vt 0.806610280 0.019531250
vt 0.769531250 0.225867173
vt 0.856460485 0.228167961
vn -0.70565909 0.70733524 -0.04149826
f 538/538/180 539/539/180 540/540/180
g pz_sofa_seating_indoor_03_victorian_c2_0_0__curved_foot_-1_1_0__frame
v -0.26661824 0.22422804 0.09030000
v -0.30030574 0.23577804 0.00000000
v -0.27753510 0.24832096 -0.00947648
vt 0.908502667 0.212172266
vt 0.802034101 0.037827734
vt 0.874000183 0.019531250
vn 0.38239079 -0.88776970 -0.25620742
f 541/541/181 542/542/181 543/543/181
g pz_sofa_seating_indoor_03_victorian_c2_0_0__curved_foot_-1_1_0__frame
v -0.27753510 0.24832096 -0.00947648
v -0.24384760 0.23677096 0.08082352
v -0.26661824 0.22422804 0.09030000
vt 0.874000183 0.019531250
vt 0.980468750 0.193875783
vt 0.908502667 0.212172266
vn 0.38239079 -0.88776970 -0.25620742
f 544/544/182 545/545/182 546/546/182
g pz_sofa_seating_indoor_03_victorian_c2_0_0__curved_foot_-1_1_0__frame
v -0.24384760 0.23677096 0.08082352
v -0.27753510 0.24832096 -0.00947648
v -0.28781926 0.27219696 -0.00000000
vt 0.824687217 0.193875783
vt 0.875476940 0.019531250
vt 0.980468750 0.037827734
vn 0.84666983 0.46637749 -0.25620742
f 547/547/183 548/548/183 549/549/183
g pz_sofa_seating_indoor_03_victorian_c2_0_0__curved_foot_-1_1_0__frame
v -0.28781926 0.27219696 -0.00000000
v -0.25413176 0.26064696 0.09030000
v -0.24384760 0.23677096 0.08082352
vt 0.980468750 0.037827734
vt 0.929679028 0.212172266
vt 0.824687217 0.193875783
vn 0.84666983 0.46637749 -0.25620742
f 550/550/184 551/551/184 552/552/184
g pz_sofa_seating_indoor_03_victorian_c2_0_0__curved_foot_-1_1_0__frame
v -0.25413176 0.26064696 0.09030000
v -0.28781926 0.27219696 -0.00000000
v -0.31058990 0.25965404 0.00947648
vt 0.947965899 0.212172266
vt 0.841497333 0.037827734
vt 0.769531250 0.056124217
vn -0.38239079 0.88776970 0.25620742
f 553/553/185 554/554/185 555/555/185
g pz_sofa_seating_indoor_03_victorian_c2_0_0__curved_foot_-1_1_0__frame
v -0.31058990 0.25965404 0.00947648
v -0.27690240 0.24810404 0.09977648
v -0.25413176 0.26064696 0.09030000
vt 0.769531250 0.056124217
vt 0.875999817 0.230468750
vt 0.947965899 0.212172266
vn -0.38239079 0.88776970 0.25620742
f 556/556/186 557/557/186 558/558/186
g pz_sofa_seating_indoor_03_victorian_c2_0_0__curved_foot_-1_1_0__frame
v -0.27690240 0.24810404 0.09977648
v -0.31058990 0.25965404 0.00947648
v -0.30030574 0.23577804 0.00000000
vt 0.874523060 0.230468750
vt 0.925312783 0.056124217
vt 0.820320972 0.037827734
vn -0.84666983 -0.46637749 0.25620742
f 559/559/187 560/560/187 561/561/187
g pz_sofa_seating_indoor_03_victorian_c2_0_0__curved_foot_-1_1_0__frame
v -0.30030574 0.23577804 0.00000000
v -0.26661824 0.22422804 0.09030000
v -0.27690240 0.24810404 0.09977648
vt 0.820320972 0.037827734
vt 0.769531250 0.212172266
vt 0.874523060 0.230468750
vn -0.84666983 -0.46637749 0.25620742
f 562/562/188 563/563/188 564/564/188
g pz_sofa_seating_indoor_03_victorian_c2_0_0__curved_foot_-1_1_1__frame
v -0.29256515 0.24243750 0.25214373
v -0.28294015 0.24243750 0.08847498
v -0.26037500 0.21981875 0.09030000
vt 0.769531250 0.225867173
vt 0.806610280 0.019531250
vt 0.893539515 0.021832039
vn -0.70565909 -0.70733524 -0.04149826
f 565/565/189 566/566/189 567/567/189
g pz_sofa_seating_indoor_03_victorian_c2_0_0__curved_foot_-1_1_1__frame
v -0.26037500 0.21981875 0.09030000
v -0.27000000 0.21981875 0.25396875
v -0.29256515 0.24243750 0.25214373
vt 0.893539515 0.021832039
vt 0.856460485 0.228167961
vt 0.769531250 0.225867173
vn -0.70565909 -0.70733524 -0.04149826
f 568/568/190 569/569/190 570/570/190
g pz_sofa_seating_indoor_03_victorian_c2_0_0__curved_foot_-1_1_1__frame
v -0.27000000 0.21981875 0.25396875
v -0.26037500 0.21981875 0.09030000
v -0.23780985 0.24243750 0.09212502
vt 0.856460485 0.228167961
vt 0.893539515 0.021832039
vt 0.980468750 0.024132827
vn 0.70565909 -0.70733524 0.04149826
f 571/571/191 572/572/191 573/573/191
g pz_sofa_seating_indoor_03_victorian_c2_0_0__curved_foot_-1_1_1__frame
v -0.23780985 0.24243750 0.09212502
v -0.24743485 0.24243750 0.25579377
v -0.27000000 0.21981875 0.25396875
vt 0.980468750 0.024132827
vt 0.943389720 0.230468750
vt 0.856460485 0.228167961
vn 0.70565909 -0.70733524 0.04149826
f 574/574/192 575/575/192 576/576/192
g pz_sofa_seating_indoor_03_victorian_c2_0_0__curved_foot_-1_1_1__frame
v -0.24743485 0.24243750 0.25579377
v -0.23780985 0.24243750 0.09212502
v -0.26037500 0.26505625 0.09030000
vt 0.943389720 0.230468750
vt 0.980468750 0.024132827
vt 0.893539515 0.021832039
vn 0.70565909 0.70733524 0.04149826
f 577/577/193 578/578/193 579/579/193
g pz_sofa_seating_indoor_03_victorian_c2_0_0__curved_foot_-1_1_1__frame
v -0.26037500 0.26505625 0.09030000
v -0.27000000 0.26505625 0.25396875
v -0.24743485 0.24243750 0.25579377
vt 0.893539515 0.021832039
vt 0.856460485 0.228167961
vt 0.943389720 0.230468750
vn 0.70565909 0.70733524 0.04149826
f 580/580/194 581/581/194 582/582/194
g pz_sofa_seating_indoor_03_victorian_c2_0_0__curved_foot_-1_1_1__frame
v -0.27000000 0.26505625 0.25396875
v -0.26037500 0.26505625 0.09030000
v -0.28294015 0.24243750 0.08847498
vt 0.856460485 0.228167961
vt 0.893539515 0.021832039
vt 0.806610280 0.019531250
vn -0.70565909 0.70733524 -0.04149826
f 583/583/195 584/584/195 585/585/195
g pz_sofa_seating_indoor_03_victorian_c2_0_0__curved_foot_-1_1_1__frame
v -0.28294015 0.24243750 0.08847498
v -0.29256515 0.24243750 0.25214373
v -0.27000000 0.26505625 0.25396875
vt 0.806610280 0.019531250
vt 0.769531250 0.225867173
vt 0.856460485 0.228167961
vn -0.70565909 0.70733524 -0.04149826
f 586/586/196 587/587/196 588/588/196
