mtllib pz_sofa_seating_indoor_03_victorian_c4_0_0_fidelity_r1.mtl
o pz_sofa_seating_indoor_03_victorian_c4_0_0
usemtl UV_Base
g pz_sofa_seating_indoor_03_victorian_c4_0_0__lower_body__body
v -0.41796125 -0.38444375 0.33723750
v -0.41796125 -0.38444375 0.06353750
v 0.50000000 -0.38444375 0.06353750
vt 0.772435125 0.480468750
vt 0.772435125 0.269531250
vt 0.873622123 0.269531250
vn 0.00000000 -1.00000000 0.00000000
f 1/1/1 2/2/1 3/3/1
g pz_sofa_seating_indoor_03_victorian_c4_0_0__lower_body__body
v 0.50000000 -0.38444375 0.06353750
v 0.50000000 -0.38444375 0.33723750
v -0.41796125 -0.38444375 0.33723750
vt 0.873622123 0.269531250
vt 0.873622123 0.480468750
vt 0.772435125 0.480468750
vn 0.00000000 -1.00000000 0.00000000
f 4/4/2 5/5/2 6/6/2
g pz_sofa_seating_indoor_03_victorian_c4_0_0__lower_body__body
v 0.50000000 0.45118000 0.33723750
v 0.50000000 0.45118000 0.06353750
v -0.41796125 0.45118000 0.06353750
vt 0.623622123 0.480468750
vt 0.623622123 0.269531250
vt 0.522435125 0.269531250
vn 0.00000000 1.00000000 0.00000000
f 7/7/3 8/8/3 9/9/3
g pz_sofa_seating_indoor_03_victorian_c4_0_0__lower_body__body
v -0.41796125 0.45118000 0.06353750
v -0.41796125 0.45118000 0.33723750
v 0.50000000 0.45118000 0.33723750
vt 0.522435125 0.269531250
vt 0.522435125 0.480468750
vt 0.623622123 0.480468750
vn 0.00000000 1.00000000 0.00000000
f 10/10/4 11/11/4 12/12/4
g pz_sofa_seating_indoor_03_victorian_c4_0_0__lower_body__body
v -0.41796125 0.45118000 0.33723750
v -0.41796125 0.45118000 0.06353750
v -0.44430500 0.42483625 0.06353750
vt 0.230468750 0.230468750
vt 0.230468750 0.019531250
vt 0.223818766 0.019531250
vn -0.70710678 0.70710678 0.00000000
f 13/13/5 14/14/5 15/15/5
g pz_sofa_seating_indoor_03_victorian_c4_0_0__lower_body__body
v -0.44430500 0.42483625 0.06353750
v -0.44430500 0.42483625 0.33723750
v -0.41796125 0.45118000 0.33723750
vt 0.223818766 0.019531250
vt 0.223818766 0.230468750
vt 0.230468750 0.230468750
vn -0.70710678 0.70710678 0.00000000
f 16/16/6 17/17/6 18/18/6
g pz_sofa_seating_indoor_03_victorian_c4_0_0__lower_body__body
v -0.44430500 0.42483625 0.33723750
v -0.44430500 0.42483625 0.06353750
v -0.44430500 -0.35810000 0.06353750
vt 0.223818766 0.230468750
vt 0.223818766 0.019531250
vt 0.026181234 0.019531250
vn -1.00000000 0.00000000 -0.00000000
f 19/19/7 20/20/7 21/21/7
g pz_sofa_seating_indoor_03_victorian_c4_0_0__lower_body__body
v -0.44430500 -0.35810000 0.06353750
v -0.44430500 -0.35810000 0.33723750
v -0.44430500 0.42483625 0.33723750
vt 0.026181234 0.019531250
vt 0.026181234 0.230468750
vt 0.223818766 0.230468750
vn -1.00000000 0.00000000 0.00000000
f 22/22/8 23/23/8 24/24/8
g pz_sofa_seating_indoor_03_victorian_c4_0_0__lower_body__body
v -0.44430500 -0.35810000 0.33723750
v -0.44430500 -0.35810000 0.06353750
v -0.41796125 -0.38444375 0.06353750
vt 0.026181234 0.230468750
vt 0.026181234 0.019531250
vt 0.019531250 0.019531250
vn -0.70710678 -0.70710678 -0.00000000
f 25/25/9 26/26/9 27/27/9
g pz_sofa_seating_indoor_03_victorian_c4_0_0__lower_body__body
v -0.41796125 -0.38444375 0.06353750
v -0.41796125 -0.38444375 0.33723750
v -0.44430500 -0.35810000 0.33723750
vt 0.019531250 0.019531250
vt 0.019531250 0.230468750
vt 0.026181234 0.230468750
vn -0.70710678 -0.70710678 0.00000000
f 28/28/10 29/29/10 30/30/10
g pz_sofa_seating_indoor_03_victorian_c4_0_0__rear_body_bridge__body
v -0.44430500 -0.35283125 0.06353750
v -0.44430500 -0.35283125 0.43987500
v 0.50000000 -0.35283125 0.43987500
vt 0.519531250 0.269531250
vt 0.519531250 0.480468750
vt 0.623622123 0.480468750
vn 0.00000000 1.00000000 0.00000000
f 31/31/11 32/32/11 33/33/11
g pz_sofa_seating_indoor_03_victorian_c4_0_0__rear_body_bridge__body
v 0.50000000 -0.35283125 0.43987500
v 0.50000000 -0.35283125 0.06353750
v -0.44430500 -0.35283125 0.06353750
vt 0.623622123 0.480468750
vt 0.623622123 0.269531250
vt 0.519531250 0.269531250
vn 0.00000000 1.00000000 0.00000000
f 34/34/12 35/35/12 36/36/12
g pz_sofa_seating_indoor_03_victorian_c4_0_0__rear_body_bridge__body
v -0.44430500 -0.40551875 0.43987500
v -0.44430500 -0.40551875 0.06353750
v 0.50000000 -0.40551875 0.06353750
vt 0.769531250 0.480468750
vt 0.769531250 0.269531250
vt 0.873622123 0.269531250
vn 0.00000000 -1.00000000 0.00000000
f 37/37/13 38/38/13 39/39/13
g pz_sofa_seating_indoor_03_victorian_c4_0_0__rear_body_bridge__body
v 0.50000000 -0.40551875 0.06353750
v 0.50000000 -0.40551875 0.43987500
v -0.44430500 -0.40551875 0.43987500
vt 0.873622123 0.269531250
vt 0.873622123 0.480468750
vt 0.769531250 0.480468750
vn 0.00000000 -1.00000000 0.00000000
f 40/40/14 41/41/14 42/42/14
g pz_sofa_seating_indoor_03_victorian_c4_0_0__rear_body_bridge__body
v 0.50000000 -0.40551875 0.43987500
v 0.50000000 -0.35283125 0.43987500
v -0.44430500 -0.35283125 0.43987500
vt 0.123622123 0.019531250
vt 0.123622123 0.230468750
vt 0.019531250 0.230468750
vn 0.00000000 -0.00000000 1.00000000
f 43/43/15 44/44/15 45/45/15
g pz_sofa_seating_indoor_03_victorian_c4_0_0__rear_body_bridge__body
v -0.44430500 -0.35283125 0.43987500
v -0.44430500 -0.40551875 0.43987500
v 0.50000000 -0.40551875 0.43987500
vt 0.019531250 0.230468750
vt 0.019531250 0.019531250
vt 0.123622123 0.019531250
vn 0.00000000 0.00000000 1.00000000
f 46/46/16 47/47/16 48/48/16
g pz_sofa_seating_indoor_03_victorian_c4_0_0__rear_body_bridge__body
v -0.44430500 -0.40551875 0.43987500
v -0.44430500 -0.35283125 0.43987500
v -0.44430500 -0.35283125 0.06353750
vt 0.019531250 0.230468750
vt 0.230468750 0.230468750
vt 0.230468750 0.019531250
vn -1.00000000 0.00000000 0.00000000
f 49/49/17 50/50/17 51/51/17
g pz_sofa_seating_indoor_03_victorian_c4_0_0__rear_body_bridge__body
v -0.44430500 -0.35283125 0.06353750
v -0.44430500 -0.40551875 0.06353750
v -0.44430500 -0.40551875 0.43987500
vt 0.230468750 0.019531250
vt 0.019531250 0.019531250
vt 0.019531250 0.230468750
vn -1.00000000 0.00000000 0.00000000
f 52/52/18 53/53/18 54/54/18
g pz_sofa_seating_indoor_03_victorian_c4_0_0__seat_0__seat
v -0.22740373 -0.18732664 0.42521250
v -0.19144452 -0.22328586 0.42521250
v 0.46301327 -0.22328586 0.42521250
vt 0.022167970 0.783503783
vt 0.032349357 0.772167969
vt 0.217650643 0.772167969
vn 0.00000000 0.00000000 1.00000000
f 55/55/19 56/56/19 57/57/19
g pz_sofa_seating_indoor_03_victorian_c4_0_0__seat_0__seat
v -0.22740373 -0.18732664 0.42521250
v 0.46301327 -0.22328586 0.42521250
v 0.49897248 -0.18732664 0.42521250
vt 0.022167970 0.783503783
vt 0.217650643 0.772167969
vt 0.227832030 0.783503783
vn -0.00000000 0.00000000 1.00000000
f 58/58/20 59/59/20 60/60/20
g pz_sofa_seating_indoor_03_victorian_c4_0_0__seat_0__seat
v -0.22740373 -0.18732664 0.42521250
v 0.49897248 -0.18732664 0.42521250
v 0.49897248 0.39315789 0.42521250
vt 0.022167970 0.783503783
vt 0.227832030 0.783503783
vt 0.227832030 0.966496217
vn 0.00000000 0.00000000 1.00000000
f 61/61/21 62/62/21 63/63/21
g pz_sofa_seating_indoor_03_victorian_c4_0_0__seat_0__seat
v -0.22740373 -0.18732664 0.42521250
v 0.49897248 0.39315789 0.42521250
v 0.46301327 0.42911711 0.42521250
vt 0.022167970 0.783503783
vt 0.227832030 0.966496217
vt 0.217650643 0.977832031
vn 0.00000000 0.00000000 1.00000000
f 64/64/22 65/65/22 66/66/22
g pz_sofa_seating_indoor_03_victorian_c4_0_0__seat_0__seat
v -0.22740373 -0.18732664 0.42521250
v 0.46301327 0.42911711 0.42521250
v -0.19144452 0.42911711 0.42521250
vt 0.022167970 0.783503783
vt 0.217650643 0.977832031
vt 0.032349357 0.977832031
vn 0.00000000 0.00000000 1.00000000
f 67/67/23 68/68/23 69/69/23
g pz_sofa_seating_indoor_03_victorian_c4_0_0__seat_0__seat
v -0.19144452 0.42911711 0.42521250
v -0.22740373 0.39315789 0.42521250
v -0.22740373 -0.18732664 0.42521250
vt 0.032349357 0.977832031
vt 0.022167970 0.966496217
vt 0.022167970 0.783503783
vn 0.00000000 0.00000000 1.00000000
f 70/70/24 71/71/24 72/72/24
g pz_sofa_seating_indoor_03_victorian_c4_0_0__seat_0__seat
v -0.19144452 -0.22328586 0.42521250
v -0.19983500 -0.23165000 0.32746250
v 0.47140375 -0.23165000 0.32746250
vt 0.282349357 0.980468750
vt 0.279973700 0.769531250
vt 0.470026300 0.769531250
vn 0.00000000 -0.99635915 0.08525512
f 73/73/25 74/74/25 75/75/25
g pz_sofa_seating_indoor_03_victorian_c4_0_0__seat_0__seat
v 0.47140375 -0.23165000 0.32746250
v 0.46301327 -0.22328586 0.42521250
v -0.19144452 -0.22328586 0.42521250
vt 0.470026300 0.769531250
vt 0.467650643 0.980468750
vt 0.282349357 0.980468750
vn 0.00000000 -0.99635915 0.08525512
f 76/76/26 77/77/26 78/78/26
g pz_sofa_seating_indoor_03_victorian_c4_0_0__seat_0__seat
v 0.46301327 -0.22328586 0.42521250
v 0.47140375 -0.23165000 0.32746250
v 0.50000000 -0.20305375 0.32746250
vt 0.522167969 0.980468750
vt 0.519531250 0.769531250
vt 0.528545956 0.769531250
vn 0.70196980 -0.70196980 0.12031960
f 79/79/27 80/80/27 81/81/27
g pz_sofa_seating_indoor_03_victorian_c4_0_0__seat_0__seat
v 0.46301327 -0.22328586 0.42521250
v 0.50000000 -0.20305375 0.32746250
v 0.50000000 -0.18814778 0.41442705
vt 0.522167969 0.980468750
vt 0.528545956 0.769531250
vt 0.533244927 0.957194521
vn 0.70196980 -0.70196980 0.12031960
f 82/82/28 83/83/28 84/84/28
g pz_sofa_seating_indoor_03_victorian_c4_0_0__seat_0__seat
v 0.50000000 -0.18814778 0.41442705
v 0.49897248 -0.18732664 0.42521250
v 0.46301327 -0.22328586 0.42521250
vt 0.533244927 0.957194521
vt 0.533503783 0.980468750
vt 0.522167969 0.980468750
vn 0.70196980 -0.70196980 0.12031960
f 85/85/29 86/86/29 87/87/29
g pz_sofa_seating_indoor_03_victorian_c4_0_0__seat_0__seat
v 0.50000000 -0.18814778 0.41442705
v 0.50000000 0.39397903 0.41442705
v 0.49897248 0.39315789 0.42521250
vt 0.533244927 0.957194521
vt 0.716755073 0.957194521
vt 0.716496217 0.980468750
vn 0.99549260 -0.00000000 0.09483929
f 88/88/30 89/89/30 90/90/30
g pz_sofa_seating_indoor_03_victorian_c4_0_0__seat_0__seat
v 0.49897248 0.39315789 0.42521250
v 0.49897248 -0.18732664 0.42521250
v 0.50000000 -0.18814778 0.41442705
vt 0.716496217 0.980468750
vt 0.533503783 0.980468750
vt 0.533244927 0.957194521
vn 0.99549260 0.00000000 0.09483929
f 91/91/31 92/92/31 93/93/31
g pz_sofa_seating_indoor_03_victorian_c4_0_0__seat_0__seat
v 0.50000000 0.39397903 0.41442705
v 0.50000000 0.40888500 0.32746250
v 0.47140375 0.43748125 0.32746250
vt 0.478122959 0.957194521
vt 0.478122959 0.769531250
vt 0.470026300 0.769531250
vn 0.70196980 0.70196980 0.12031960
f 94/94/32 95/95/32 96/96/32
g pz_sofa_seating_indoor_03_victorian_c4_0_0__seat_0__seat
v 0.50000000 0.39397903 0.41442705
v 0.47140375 0.43748125 0.32746250
v 0.46301327 0.42911711 0.42521250
vt 0.716755073 0.957194521
vt 0.730468750 0.769531250
vt 0.727832031 0.980468750
vn 0.70196980 0.70196980 0.12031960
f 97/97/33 98/98/33 99/99/33
g pz_sofa_seating_indoor_03_victorian_c4_0_0__seat_0__seat
v 0.46301327 0.42911711 0.42521250
v 0.49897248 0.39315789 0.42521250
v 0.50000000 0.39397903 0.41442705
vt 0.727832031 0.980468750
vt 0.716496217 0.980468750
vt 0.716755073 0.957194521
vn 0.70196980 0.70196980 0.12031960
f 100/100/34 101/101/34 102/102/34
g pz_sofa_seating_indoor_03_victorian_c4_0_0__seat_0__seat
v 0.46301327 0.42911711 0.42521250
v 0.47140375 0.43748125 0.32746250
v -0.19983500 0.43748125 0.32746250
vt 0.467650643 0.980468750
vt 0.470026300 0.769531250
vt 0.279973700 0.769531250
vn 0.00000000 0.99635915 0.08525512
f 103/103/35 104/104/35 105/105/35
g pz_sofa_seating_indoor_03_victorian_c4_0_0__seat_0__seat
v -0.19983500 0.43748125 0.32746250
v -0.19144452 0.42911711 0.42521250
v 0.46301327 0.42911711 0.42521250
vt 0.279973700 0.769531250
vt 0.282349357 0.980468750
vt 0.467650643 0.980468750
vn 0.00000000 0.99635915 0.08525512
f 106/106/36 107/107/36 108/108/36
g pz_sofa_seating_indoor_03_victorian_c4_0_0__seat_0__seat
v -0.19144452 0.42911711 0.42521250
v -0.19983500 0.43748125 0.32746250
v -0.23671625 0.40060000 0.32746250
vt 0.282349357 0.980468750
vt 0.279973700 0.769531250
vt 0.269531250 0.769531250
vn -0.70196980 0.70196980 0.12031960
f 109/109/37 110/110/37 111/111/37
g pz_sofa_seating_indoor_03_victorian_c4_0_0__seat_0__seat
v -0.23671625 0.40060000 0.32746250
v -0.22740373 0.39315789 0.42521250
v -0.19144452 0.42911711 0.42521250
vt 0.718842274 0.769531250
vt 0.716496217 0.980468750
vt 0.727832031 0.980468750
vn -0.70196980 0.70196980 0.12031960
f 112/112/38 113/113/38 114/114/38
g pz_sofa_seating_indoor_03_victorian_c4_0_0__seat_0__seat
v -0.22740373 0.39315789 0.42521250
v -0.23671625 0.40060000 0.32746250
v -0.23671625 -0.19476875 0.32746250
vt 0.716496217 0.980468750
vt 0.718842274 0.769531250
vt 0.531157726 0.769531250
vn -0.99549260 0.00000000 0.09483929
f 115/115/39 116/116/39 117/117/39
g pz_sofa_seating_indoor_03_victorian_c4_0_0__seat_0__seat
v -0.23671625 -0.19476875 0.32746250
v -0.22740373 -0.18732664 0.42521250
v -0.22740373 0.39315789 0.42521250
vt 0.531157726 0.769531250
vt 0.533503783 0.980468750
vt 0.716496217 0.980468750
vn -0.99549260 0.00000000 0.09483929
f 118/118/40 119/119/40 120/120/40
g pz_sofa_seating_indoor_03_victorian_c4_0_0__seat_0__seat
v -0.22740373 -0.18732664 0.42521250
v -0.23671625 -0.19476875 0.32746250
v -0.19983500 -0.23165000 0.32746250
vt 0.533503783 0.980468750
vt 0.531157726 0.769531250
vt 0.519531250 0.769531250
vn -0.70196980 -0.70196980 0.12031960
f 121/121/41 122/122/41 123/123/41
g pz_sofa_seating_indoor_03_victorian_c4_0_0__seat_0__seat
v -0.19983500 -0.23165000 0.32746250
v -0.19144452 -0.22328586 0.42521250
v -0.22740373 -0.18732664 0.42521250
vt 0.519531250 0.769531250
vt 0.522167969 0.980468750
vt 0.533503783 0.980468750
vn -0.70196980 -0.70196980 0.12031960
f 124/124/42 125/125/42 126/126/42
g pz_sofa_seating_indoor_03_victorian_c4_0_0__sculpted_back__back
v -0.33175021 -0.17997319 0.49812559
v -0.34630625 -0.20648690 0.74407720
v -0.31234216 -0.21422007 0.81581309
vt 0.779519625 0.819245089
vt 0.777873411 0.933384006
vt 0.781714576 0.966674525
vn -0.00000000 0.99423968 0.10717955
f 127/127/43 128/128/43 129/129/43
g pz_sofa_seating_indoor_03_victorian_c4_0_0__sculpted_back__back
v -0.33175021 -0.17997319 0.49812559
v -0.31234216 -0.21422007 0.81581309
v -0.07667297 -0.21289438 0.80351551
vt 0.779519625 0.819245089
vt 0.781714576 0.966674525
vt 0.808367554 0.960967579
vn 0.00000000 0.99423968 0.10717955
f 130/130/44 131/131/44 132/132/44
g pz_sofa_seating_indoor_03_victorian_c4_0_0__sculpted_back__back
v -0.33175021 -0.17997319 0.49812559
v -0.07667297 -0.21289438 0.80351551
v 0.15899622 -0.21422007 0.81581309
vt 0.779519625 0.819245089
vt 0.808367554 0.960967579
vt 0.835020533 0.966674525
vn 0.00000000 0.99423968 0.10717955
f 133/133/45 134/134/45 135/135/45
g pz_sofa_seating_indoor_03_victorian_c4_0_0__sculpted_back__back
v -0.33175021 -0.17997319 0.49812559
v 0.15899622 -0.21422007 0.81581309
v 0.39466541 -0.21289438 0.80351551
vt 0.779519625 0.819245089
vt 0.835020533 0.966674525
vt 0.861673511 0.960967579
vn 0.00000000 0.99423968 0.10717955
f 136/136/46 137/137/46 138/138/46
g pz_sofa_seating_indoor_03_victorian_c4_0_0__sculpted_back__back
v -0.33175021 -0.17997319 0.49812559
v 0.39466541 -0.21289438 0.80351551
v 0.50000000 -0.21348691 0.80901203
vt 0.779519625 0.819245089
vt 0.861673511 0.960967579
vt 0.873586314 0.963518352
vn 0.00000000 0.99423968 0.10717955
f 139/139/47 140/140/47 141/141/47
g pz_sofa_seating_indoor_03_victorian_c4_0_0__sculpted_back__back
v 0.50000000 -0.21348691 0.80901203
v 0.50000000 -0.17997319 0.49812559
v -0.33175021 -0.17997319 0.49812559
vt 0.873586314 0.963518352
vt 0.873586314 0.819245089
vt 0.779519625 0.819245089
vn 0.00000000 0.99423968 0.10717955
f 142/142/48 143/143/48 144/144/48
g pz_sofa_seating_indoor_03_victorian_c4_0_0__sculpted_back__back
v -0.42006875 -0.41184125 0.74290000
v -0.40426250 -0.37390625 0.39100000
v 0.50000000 -0.37390625 0.39100000
vt 0.019531250 0.682837702
vt 0.021318856 0.519531250
vt 0.123586314 0.519531250
vn 0.00000000 -0.99423968 -0.10717955
f 145/145/49 146/146/49 147/147/49
g pz_sofa_seating_indoor_03_victorian_c4_0_0__sculpted_back__back
v -0.42006875 -0.41184125 0.74290000
v 0.50000000 -0.37390625 0.39100000
v 0.50000000 -0.42186460 0.83588057
vt 0.019531250 0.682837702
vt 0.123586314 0.519531250
vt 0.123586314 0.725987252
vn 0.00000000 -0.99423968 -0.10717955
f 148/148/50 149/149/50 150/150/50
g pz_sofa_seating_indoor_03_victorian_c4_0_0__sculpted_back__back
v -0.42006875 -0.41184125 0.74290000
v 0.50000000 -0.42186460 0.83588057
v 0.38454464 -0.42100888 0.82794250
vt 0.019531250 0.682837702
vt 0.123586314 0.725987252
vt 0.110528904 0.722303427
vn 0.00000000 -0.99423968 -0.10717955
f 151/151/51 152/152/51 153/153/51
g pz_sofa_seating_indoor_03_victorian_c4_0_0__sculpted_back__back
v -0.42006875 -0.41184125 0.74290000
v 0.38454464 -0.42100888 0.82794250
v 0.12863393 -0.42290562 0.84553750
vt 0.019531250 0.682837702
vt 0.110528904 0.722303427
vt 0.081586713 0.730468750
vn -0.00000000 -0.99423968 -0.10717955
f 154/154/52 155/155/52 156/156/52
g pz_sofa_seating_indoor_03_victorian_c4_0_0__sculpted_back__back
v -0.42006875 -0.41184125 0.74290000
v 0.12863393 -0.42290562 0.84553750
v -0.12727679 -0.42100888 0.82794250
vt 0.019531250 0.682837702
vt 0.081586713 0.730468750
vt 0.052644521 0.722303427
vn 0.00000000 -0.99423968 -0.10717955
f 157/157/53 158/158/53 159/159/53
g pz_sofa_seating_indoor_03_victorian_c4_0_0__sculpted_back__back
v -0.12727679 -0.42100888 0.82794250
v -0.38318750 -0.42290562 0.84553750
v -0.42006875 -0.41184125 0.74290000
vt 0.052644521 0.722303427
vt 0.023702331 0.730468750
vt 0.019531250 0.682837702
vn -0.00000000 -0.99423968 -0.10717955
f 160/160/54 161/161/54 162/162/54
g pz_sofa_seating_indoor_03_victorian_c4_0_0__sculpted_back__back
v -0.40426250 -0.24218750 0.39100000
v -0.33175021 -0.17997319 0.49812559
v 0.50000000 -0.17997319 0.49812559
vt 0.771318856 0.769531250
vt 0.779519625 0.819245089
vt 0.873586314 0.819245089
vn 0.00000000 0.86474565 -0.50221007
f 163/163/55 164/164/55 165/165/55
g pz_sofa_seating_indoor_03_victorian_c4_0_0__sculpted_back__back
v 0.50000000 -0.17997319 0.49812559
v 0.50000000 -0.24218750 0.39100000
v -0.40426250 -0.24218750 0.39100000
vt 0.873586314 0.819245089
vt 0.873586314 0.769531250
vt 0.771318856 0.769531250
vn 0.00000000 0.86474565 -0.50221007
f 166/166/56 167/167/56 168/168/56
g pz_sofa_seating_indoor_03_victorian_c4_0_0__sculpted_back__back
v 0.50000000 -0.29014585 0.83588057
v 0.50000000 -0.21348691 0.80901203
v 0.39466541 -0.21289438 0.80351551
vt 0.373586314 0.634806160
vt 0.373586314 0.701368887
vt 0.361673511 0.701883380
vn -0.04733065 0.33039543 0.94265512
f 169/169/57 170/170/57 171/171/57
g pz_sofa_seating_indoor_03_victorian_c4_0_0__sculpted_back__back
v 0.39466541 -0.21289438 0.80351551
v 0.38454464 -0.28929013 0.82794250
v 0.50000000 -0.29014585 0.83588057
vt 0.361673511 0.701883380
vt 0.360528904 0.635549179
vt 0.373586314 0.634806160
vn -0.06288171 0.31149896 0.94816364
f 172/172/58 173/173/58 174/174/58
g pz_sofa_seating_indoor_03_victorian_c4_0_0__sculpted_back__back
v 0.50000000 -0.42186460 0.83588057
v 0.50000000 -0.29014585 0.83588057
v 0.38454464 -0.28929013 0.82794250
vt 0.373586314 0.520435165
vt 0.373586314 0.634806160
vt 0.360528904 0.635549179
vn -0.06859252 0.00000000 0.99764476
f 175/175/59 176/176/59 177/177/59
g pz_sofa_seating_indoor_03_victorian_c4_0_0__sculpted_back__back
v 0.38454464 -0.28929013 0.82794250
v 0.38454464 -0.42100888 0.82794250
v 0.50000000 -0.42186460 0.83588057
vt 0.360528904 0.635549179
vt 0.360528904 0.521178184
vt 0.373586314 0.520435165
vn -0.06859252 0.00000000 0.99764476
f 178/178/60 179/179/60 180/180/60
g pz_sofa_seating_indoor_03_victorian_c4_0_0__sculpted_back__back
v 0.38454464 -0.28929013 0.82794250
v 0.39466541 -0.21289438 0.80351551
v 0.15899622 -0.21422007 0.81581309
vt 0.360528904 0.635549179
vt 0.361673511 0.701883380
vt 0.335020533 0.700732287
vn 0.04806202 0.29841935 0.95322397
f 181/181/61 182/182/61 183/183/61
g pz_sofa_seating_indoor_03_victorian_c4_0_0__sculpted_back__back
v 0.15899622 -0.21422007 0.81581309
v 0.12863393 -0.29118687 0.84553750
v 0.38454464 -0.28929013 0.82794250
vt 0.335020533 0.700732287
vt 0.331586713 0.633902245
vt 0.360528904 0.635549179
vn 0.06205642 0.33817311 0.93903565
f 184/184/62 185/185/62 186/186/62
g pz_sofa_seating_indoor_03_victorian_c4_0_0__sculpted_back__back
v 0.38454464 -0.42100888 0.82794250
v 0.38454464 -0.28929013 0.82794250
v 0.12863393 -0.29118687 0.84553750
vt 0.360528904 0.521178184
vt 0.360528904 0.635549179
vt 0.331586713 0.633902245
vn 0.06859252 -0.00000000 0.99764476
f 187/187/63 188/188/63 189/189/63
g pz_sofa_seating_indoor_03_victorian_c4_0_0__sculpted_back__back
v 0.12863393 -0.29118687 0.84553750
v 0.12863393 -0.42290562 0.84553750
v 0.38454464 -0.42100888 0.82794250
vt 0.331586713 0.633902245
vt 0.331586713 0.519531250
vt 0.360528904 0.521178184
vn 0.06859252 0.00000000 0.99764476
f 190/190/64 191/191/64 192/192/64
g pz_sofa_seating_indoor_03_victorian_c4_0_0__sculpted_back__back
v 0.12863393 -0.29118687 0.84553750
v 0.15899622 -0.21422007 0.81581309
v -0.07667297 -0.21289438 0.80351551
vt 0.331586713 0.633902245
vt 0.335020533 0.700732287
vt 0.308367554 0.701883380
vn -0.04618577 0.37568298 0.92559666
f 193/193/65 194/194/65 195/195/65
g pz_sofa_seating_indoor_03_victorian_c4_0_0__sculpted_back__back
v -0.07667297 -0.21289438 0.80351551
v -0.12727679 -0.28929013 0.82794250
v 0.12863393 -0.29118687 0.84553750
vt 0.308367554 0.701883380
vt 0.302644521 0.635549179
vt 0.331586713 0.633902245
vn -0.06196640 0.34097375 0.93802829
f 196/196/66 197/197/66 198/198/66
g pz_sofa_seating_indoor_03_victorian_c4_0_0__sculpted_back__back
v 0.12863393 -0.42290562 0.84553750
v 0.12863393 -0.29118687 0.84553750
v -0.12727679 -0.28929013 0.82794250
vt 0.331586713 0.519531250
vt 0.331586713 0.633902245
vt 0.302644521 0.635549179
vn -0.06859252 0.00000000 0.99764476
f 199/199/67 200/200/67 201/201/67
g pz_sofa_seating_indoor_03_victorian_c4_0_0__sculpted_back__back
v -0.12727679 -0.28929013 0.82794250
v -0.12727679 -0.42100888 0.82794250
v 0.12863393 -0.42290562 0.84553750
vt 0.302644521 0.635549179
vt 0.302644521 0.521178184
vt 0.331586713 0.519531250
vn -0.06859252 0.00000000 0.99764476
f 202/202/68 203/203/68 204/204/68
g pz_sofa_seating_indoor_03_victorian_c4_0_0__sculpted_back__back
v -0.12727679 -0.28929013 0.82794250
v -0.07667297 -0.21289438 0.80351551
v -0.31234216 -0.21422007 0.81581309
vt 0.302644521 0.635549179
vt 0.308367554 0.701883380
vt 0.281714576 0.700732287
vn 0.04856139 0.27486798 0.96025485
f 205/205/69 206/206/69 207/207/69
g pz_sofa_seating_indoor_03_victorian_c4_0_0__sculpted_back__back
v -0.31234216 -0.21422007 0.81581309
v -0.38318750 -0.29118687 0.84553750
v -0.12727679 -0.28929013 0.82794250
vt 0.281714576 0.700732287
vt 0.273702331 0.633902245
vt 0.302644521 0.635549179
vn 0.06296842 0.30858408 0.94911056
f 208/208/70 209/209/70 210/210/70
g pz_sofa_seating_indoor_03_victorian_c4_0_0__sculpted_back__back
v -0.12727679 -0.42100888 0.82794250
v -0.12727679 -0.28929013 0.82794250
v -0.38318750 -0.29118687 0.84553750
vt 0.302644521 0.521178184
vt 0.302644521 0.635549179
vt 0.273702331 0.633902245
vn 0.06859252 -0.00000000 0.99764476
f 211/211/71 212/212/71 213/213/71
g pz_sofa_seating_indoor_03_victorian_c4_0_0__sculpted_back__back
v -0.38318750 -0.29118687 0.84553750
v -0.38318750 -0.42290562 0.84553750
v -0.12727679 -0.42100888 0.82794250
vt 0.273702331 0.633902245
vt 0.273702331 0.519531250
vt 0.302644521 0.521178184
vn 0.06859252 0.00000000 0.99764476
f 214/214/72 215/215/72 216/216/72
g pz_sofa_seating_indoor_03_victorian_c4_0_0__sculpted_back__back
v -0.38318750 -0.29118687 0.84553750
v -0.31234216 -0.21422007 0.81581309
v -0.34630625 -0.20648690 0.74407720
vt 0.773702331 0.980468750
vt 0.781714576 0.966674525
vt 0.777873411 0.933384006
vn -0.61056848 0.70291354 0.36485433
f 217/217/73 218/218/73 219/219/73
g pz_sofa_seating_indoor_03_victorian_c4_0_0__sculpted_back__back
v -0.34630625 -0.20648690 0.74407720
v -0.42006875 -0.28012250 0.74290000
v -0.38318750 -0.29118687 0.84553750
vt 0.457446975 0.683384006
vt 0.393509405 0.682837702
vt 0.383902245 0.730468750
vn -0.67325159 0.66939064 0.31408354
f 220/220/74 221/221/74 222/222/74
g pz_sofa_seating_indoor_03_victorian_c4_0_0__sculpted_back__back
v -0.38318750 -0.42290562 0.84553750
v -0.38318750 -0.29118687 0.84553750
v -0.42006875 -0.28012250 0.74290000
vt 0.269531250 0.730468750
vt 0.383902245 0.730468750
vt 0.393509405 0.682837702
vn -0.94108668 0.00000000 0.33816542
f 223/223/75 224/224/75 225/225/75
g pz_sofa_seating_indoor_03_victorian_c4_0_0__sculpted_back__back
v -0.42006875 -0.28012250 0.74290000
v -0.42006875 -0.41184125 0.74290000
v -0.38318750 -0.42290562 0.84553750
vt 0.393509405 0.682837702
vt 0.279138409 0.682837702
vt 0.269531250 0.730468750
vn -0.94108668 0.00000000 0.33816542
f 226/226/76 227/227/76 228/228/76
g pz_sofa_seating_indoor_03_victorian_c4_0_0__sculpted_back__back
v -0.42006875 -0.28012250 0.74290000
v -0.34630625 -0.20648690 0.74407720
v -0.33175021 -0.17997319 0.49812559
vt 0.769531250 0.932837702
vt 0.777873411 0.933384006
vt 0.779519625 0.819245089
vn -0.70635429 0.70702145 0.03441344
f 229/229/77 230/230/77 231/231/77
g pz_sofa_seating_indoor_03_victorian_c4_0_0__sculpted_back__back
v -0.33175021 -0.17997319 0.49812559
v -0.40426250 -0.24218750 0.39100000
v -0.42006875 -0.28012250 0.74290000
vt 0.779519625 0.819245089
vt 0.771318856 0.769531250
vt 0.769531250 0.932837702
vn -0.68948548 0.72277647 0.04694614
f 232/232/78 233/233/78 234/234/78
g pz_sofa_seating_indoor_03_victorian_c4_0_0__sculpted_back__back
v -0.42006875 -0.41184125 0.74290000
v -0.42006875 -0.28012250 0.74290000
v -0.40426250 -0.24218750 0.39100000
vt 0.279138409 0.682837702
vt 0.393509405 0.682837702
vt 0.426448251 0.519531250
vn -0.99899276 0.00000000 -0.04487164
f 235/235/79 236/236/79 237/237/79
g pz_sofa_seating_indoor_03_victorian_c4_0_0__sculpted_back__back
v -0.40426250 -0.24218750 0.39100000
v -0.40426250 -0.37390625 0.39100000
v -0.42006875 -0.41184125 0.74290000
vt 0.426448251 0.519531250
vt 0.312077256 0.519531250
vt 0.279138409 0.682837702
vn -0.99899276 -0.00000000 -0.04487164
f 238/238/80 239/239/80 240/240/80
g pz_sofa_seating_indoor_03_victorian_c4_0_0__chester_side_-1__arm
v -0.45484250 -0.38444375 0.06353750
v -0.45484250 -0.38444375 0.60116250
v -0.45484250 0.43221250 0.60116250
vt 0.519531250 0.519531250
vt 0.519531250 0.730468750
vt 0.730468750 0.730468750
vn -1.00000000 0.00000000 0.00000000
f 241/241/81 242/242/81 243/243/81
g pz_sofa_seating_indoor_03_victorian_c4_0_0__chester_side_-1__arm
v -0.45484250 0.43221250 0.60116250
v -0.45484250 0.43221250 0.06353750
v -0.45484250 -0.38444375 0.06353750
vt 0.730468750 0.730468750
vt 0.730468750 0.519531250
vt 0.519531250 0.519531250
vn -1.00000000 0.00000000 -0.00000000
f 244/244/82 245/245/82 246/246/82
g pz_sofa_seating_indoor_03_victorian_c4_0_0__chester_side_-1__arm
v -0.26727500 -0.38444375 0.60116250
v -0.26727500 -0.38444375 0.06353750
v -0.26727500 0.43221250 0.06353750
vt 0.769531250 0.730468750
vt 0.769531250 0.519531250
vt 0.980468750 0.519531250
vn 1.00000000 0.00000000 0.00000000
f 247/247/83 248/248/83 249/249/83
g pz_sofa_seating_indoor_03_victorian_c4_0_0__chester_side_-1__arm
v -0.26727500 0.43221250 0.06353750
v -0.26727500 0.43221250 0.60116250
v -0.26727500 -0.38444375 0.60116250
vt 0.980468750 0.519531250
vt 0.980468750 0.730468750
vt 0.769531250 0.730468750
vn 1.00000000 0.00000000 -0.00000000
f 250/250/84 251/251/84 252/252/84
g pz_sofa_seating_indoor_03_victorian_c4_0_0__chester_side_-1__arm
v -0.26727500 0.43221250 0.06353750
v -0.45484250 0.43221250 0.06353750
v -0.45484250 0.43221250 0.60116250
vt 0.480468750 0.269531250
vt 0.269531250 0.269531250
vt 0.269531250 0.480468750
vn 0.00000000 1.00000000 0.00000000
f 253/253/85 254/254/85 255/255/85
g pz_sofa_seating_indoor_03_victorian_c4_0_0__chester_side_-1__arm
v -0.45484250 0.43221250 0.60116250
v -0.26727500 0.43221250 0.60116250
v -0.26727500 0.43221250 0.06353750
vt 0.269531250 0.480468750
vt 0.480468750 0.480468750
vt 0.480468750 0.269531250
vn -0.00000000 1.00000000 0.00000000
f 256/256/86 257/257/86 258/258/86
g pz_sofa_seating_indoor_03_victorian_c4_0_0__chester_side_-1__arm
v -0.26727500 0.43221250 0.60116250
v -0.45484250 0.43221250 0.60116250
v -0.45484250 -0.38444375 0.60116250
vt 0.230468750 0.480468750
vt 0.230468750 0.269531250
vt 0.019531250 0.269531250
vn 0.00000000 0.00000000 1.00000000
f 259/259/87 260/260/87 261/261/87
g pz_sofa_seating_indoor_03_victorian_c4_0_0__chester_side_-1__arm
v -0.45484250 -0.38444375 0.60116250
v -0.26727500 -0.38444375 0.60116250
v -0.26727500 0.43221250 0.60116250
vt 0.019531250 0.269531250
vt 0.019531250 0.480468750
vt 0.230468750 0.480468750
vn 0.00000000 0.00000000 1.00000000
f 262/262/88 263/263/88 264/264/88
g pz_sofa_seating_indoor_03_victorian_c4_0_0__chester_side_-1__arm
v -0.26727500 -0.38444375 0.60116250
v -0.45484250 -0.38444375 0.60116250
v -0.45484250 -0.38444375 0.06353750
vt 0.480468750 0.480468750
vt 0.269531250 0.480468750
vt 0.269531250 0.269531250
vn -0.00000000 -1.00000000 0.00000000
f 265/265/89 266/266/89 267/267/89
g pz_sofa_seating_indoor_03_victorian_c4_0_0__chester_side_-1__arm
v -0.45484250 -0.38444375 0.06353750
v -0.26727500 -0.38444375 0.06353750
v -0.26727500 -0.38444375 0.60116250
vt 0.269531250 0.269531250
vt 0.480468750 0.269531250
vt 0.480468750 0.480468750
vn 0.00000000 -1.00000000 0.00000000
f 268/268/90 269/269/90 270/270/90
g pz_sofa_seating_indoor_03_victorian_c4_0_0__chester_roll_-1__arm
v -0.30679062 -0.36336875 0.65570640
v -0.25252250 -0.36336875 0.74290000
v -0.30679062 -0.36336875 0.83009360
vt 0.427734380 0.337601121
vt 0.480468750 0.409034935
vt 0.427734380 0.480468750
vn 0.00000000 -1.00000000 0.00000000
f 271/271/91 272/272/91 273/273/91
g pz_sofa_seating_indoor_03_victorian_c4_0_0__chester_roll_-1__arm
v -0.30679062 -0.36336875 0.65570640
v -0.30679062 -0.36336875 0.83009360
v -0.41532687 -0.36336875 0.83009360
vt 0.427734380 0.337601121
vt 0.427734380 0.480468750
vt 0.322265630 0.480468750
vn 0.00000000 -1.00000000 0.00000000
f 274/274/92 275/275/92 276/276/92
g pz_sofa_seating_indoor_03_victorian_c4_0_0__chester_roll_-1__arm
v -0.30679062 -0.36336875 0.65570640
v -0.41532687 -0.36336875 0.83009360
v -0.46959500 -0.36336875 0.74290000
vt 0.427734380 0.337601121
vt 0.322265630 0.480468750
vt 0.269531250 0.409034935
vn 0.00000000 -1.00000000 0.00000000
f 277/277/93 278/278/93 279/279/93
g pz_sofa_seating_indoor_03_victorian_c4_0_0__chester_roll_-1__arm
v -0.46959500 -0.36336875 0.74290000
v -0.41532688 -0.36336875 0.65570640
v -0.30679062 -0.36336875 0.65570640
vt 0.269531250 0.409034935
vt 0.322265620 0.337601121
vt 0.427734380 0.337601121
vn 0.00000000 -1.00000000 0.00000000
f 280/280/94 281/281/94 282/282/94
g pz_sofa_seating_indoor_03_victorian_c4_0_0__chester_roll_-1__arm
v -0.25252250 0.44801875 0.65981250
v -0.30679062 0.44801875 0.57261890
v -0.41532688 0.44801875 0.57261890
vt 0.480468750 0.340965065
vt 0.427734380 0.269531250
vt 0.322265620 0.269531250
vn 0.00000000 1.00000000 0.00000000
f 283/283/95 284/284/95 285/285/95
g pz_sofa_seating_indoor_03_victorian_c4_0_0__chester_roll_-1__arm
v -0.25252250 0.44801875 0.65981250
v -0.41532688 0.44801875 0.57261890
v -0.46959500 0.44801875 0.65981250
vt 0.480468750 0.340965065
vt 0.322265620 0.269531250
vt 0.269531250 0.340965065
vn 0.00000000 1.00000000 0.00000000
f 286/286/96 287/287/96 288/288/96
g pz_sofa_seating_indoor_03_victorian_c4_0_0__chester_roll_-1__arm
v -0.25252250 0.44801875 0.65981250
v -0.46959500 0.44801875 0.65981250
v -0.41532687 0.44801875 0.74700610
vt 0.480468750 0.340965065
vt 0.269531250 0.340965065
vt 0.322265630 0.412398879
vn 0.00000000 1.00000000 0.00000000
f 289/289/97 290/290/97 291/291/97
g pz_sofa_seating_indoor_03_victorian_c4_0_0__chester_roll_-1__arm
v -0.41532687 0.44801875 0.74700610
v -0.30679062 0.44801875 0.74700610
v -0.25252250 0.44801875 0.65981250
vt 0.322265630 0.412398879
vt 0.427734380 0.412398879
vt 0.480468750 0.340965065
vn -0.00000000 1.00000000 0.00000000
f 292/292/98 293/293/98 294/294/98
g pz_sofa_seating_indoor_03_victorian_c4_0_0__chester_roll_-1__arm
v -0.30679062 -0.36336875 0.83009360
v -0.25252250 -0.36336875 0.74290000
v -0.25252250 0.44801875 0.65981250
vt 0.769531250 0.730468750
vt 0.769531250 0.659034935
vt 0.980468750 0.590965065
vn 0.84775389 0.05403030 0.52763061
f 295/295/99 296/296/99 297/297/99
g pz_sofa_seating_indoor_03_victorian_c4_0_0__chester_roll_-1__arm
v -0.25252250 0.44801875 0.65981250
v -0.30679062 0.44801875 0.74700610
v -0.30679062 -0.36336875 0.83009360
vt 0.980468750 0.590965065
vt 0.980468750 0.662398879
vt 0.769531250 0.730468750
vn 0.84775389 0.05403030 0.52763061
f 298/298/100 299/299/100 300/300/100
g pz_sofa_seating_indoor_03_victorian_c4_0_0__chester_roll_-1__arm
v -0.41532687 -0.36336875 0.83009360
v -0.30679062 -0.36336875 0.83009360
v -0.30679062 0.44801875 0.74700610
vt 0.019531250 0.322265630
vt 0.019531250 0.427734380
vt 0.230468750 0.427734380
vn -0.00000000 0.10186904 0.99479782
f 301/301/101 302/302/101 303/303/101
g pz_sofa_seating_indoor_03_victorian_c4_0_0__chester_roll_-1__arm
v -0.30679062 0.44801875 0.74700610
v -0.41532687 0.44801875 0.74700610
v -0.41532687 -0.36336875 0.83009360
vt 0.230468750 0.427734380
vt 0.230468750 0.322265630
vt 0.019531250 0.322265630
vn 0.00000000 0.10186904 0.99479782
f 304/304/102 305/305/102 306/306/102
g pz_sofa_seating_indoor_03_victorian_c4_0_0__chester_roll_-1__arm
v -0.46959500 -0.36336875 0.74290000
v -0.41532687 -0.36336875 0.83009360
v -0.41532687 0.44801875 0.74700610
vt 0.519531250 0.659034935
vt 0.519531250 0.730468750
vt 0.730468750 0.662398879
vn -0.84775389 0.05403030 0.52763061
f 307/307/103 308/308/103 309/309/103
g pz_sofa_seating_indoor_03_victorian_c4_0_0__chester_roll_-1__arm
v -0.41532687 0.44801875 0.74700610
v -0.46959500 0.44801875 0.65981250
v -0.46959500 -0.36336875 0.74290000
vt 0.730468750 0.662398879
vt 0.730468750 0.590965065
vt 0.519531250 0.659034935
vn -0.84775389 0.05403030 0.52763061
f 310/310/104 311/311/104 312/312/104
g pz_sofa_seating_indoor_03_victorian_c4_0_0__chester_roll_-1__arm
v -0.41532688 -0.36336875 0.65570640
v -0.46959500 -0.36336875 0.74290000
v -0.46959500 0.44801875 0.65981250
vt 0.519531250 0.587601121
vt 0.519531250 0.659034935
vt 0.730468750 0.590965065
vn -0.84775389 -0.05403030 -0.52763061
f 313/313/105 314/314/105 315/315/105
g pz_sofa_seating_indoor_03_victorian_c4_0_0__chester_roll_-1__arm
v -0.46959500 0.44801875 0.65981250
v -0.41532688 0.44801875 0.57261890
v -0.41532688 -0.36336875 0.65570640
vt 0.730468750 0.590965065
vt 0.730468750 0.519531250
vt 0.519531250 0.587601121
vn -0.84775389 -0.05403030 -0.52763061
f 316/316/106 317/317/106 318/318/106
g pz_sofa_seating_indoor_03_victorian_c4_0_0__chester_roll_-1__arm
v -0.30679062 -0.36336875 0.65570640
v -0.41532688 -0.36336875 0.65570640
v -0.41532688 0.44801875 0.57261890
vt 0.019531250 0.427734380
vt 0.019531250 0.322265620
vt 0.230468750 0.322265620
vn -0.00000000 -0.10186904 -0.99479782
f 319/319/107 320/320/107 321/321/107
g pz_sofa_seating_indoor_03_victorian_c4_0_0__chester_roll_-1__arm
v -0.41532688 0.44801875 0.57261890
v -0.30679062 0.44801875 0.57261890
v -0.30679062 -0.36336875 0.65570640
vt 0.230468750 0.322265620
vt 0.230468750 0.427734380
vt 0.019531250 0.427734380
vn 0.00000000 -0.10186904 -0.99479782
f 322/322/108 323/323/108 324/324/108
g pz_sofa_seating_indoor_03_victorian_c4_0_0__chester_roll_-1__arm
v -0.25252250 -0.36336875 0.74290000
v -0.30679062 -0.36336875 0.65570640
v -0.30679062 0.44801875 0.57261890
vt 0.769531250 0.659034935
vt 0.769531250 0.587601121
vt 0.980468750 0.519531250
vn 0.84775389 -0.05403030 -0.52763061
f 325/325/109 326/326/109 327/327/109
g pz_sofa_seating_indoor_03_victorian_c4_0_0__chester_roll_-1__arm
v -0.30679062 0.44801875 0.57261890
v -0.25252250 0.44801875 0.65981250
v -0.25252250 -0.36336875 0.74290000
vt 0.980468750 0.519531250
vt 0.980468750 0.590965065
vt 0.769531250 0.659034935
vn 0.84775389 -0.05403030 -0.52763061
f 328/328/110 329/329/110 330/330/110
g pz_sofa_seating_indoor_03_victorian_c4_0_0__foot_-1_-1__frame
v -0.39109063 -0.33175625 0.08113250
v -0.39109063 -0.33175625 0.00000000
v -0.36211250 -0.36073437 0.00000000
vt 0.769531250 0.230468750
vt 0.769531250 0.019531250
vt 0.875000018 0.019531250
vn -0.70710678 -0.70710678 -0.00000000
f 331/331/111 332/332/111 333/333/111
g pz_sofa_seating_indoor_03_victorian_c4_0_0__foot_-1_-1__frame
v -0.36211250 -0.36073437 0.00000000
v -0.36211250 -0.36073437 0.08113250
v -0.39109063 -0.33175625 0.08113250
vt 0.875000018 0.019531250
vt 0.875000018 0.230468750
vt 0.769531250 0.230468750
vn -0.70710678 -0.70710678 0.00000000
f 334/334/112 335/335/112 336/336/112
g pz_sofa_seating_indoor_03_victorian_c4_0_0__foot_-1_-1__frame
v -0.36211250 -0.36073437 0.08113250
v -0.36211250 -0.36073437 0.00000000
v -0.33313438 -0.33175625 0.00000000
vt 0.875000018 0.230468750
vt 0.875000018 0.019531250
vt 0.980468750 0.019531250
vn 0.70710678 -0.70710678 0.00000000
f 337/337/113 338/338/113 339/339/113
g pz_sofa_seating_indoor_03_victorian_c4_0_0__foot_-1_-1__frame
v -0.33313438 -0.33175625 0.00000000
v -0.33313438 -0.33175625 0.08113250
v -0.36211250 -0.36073437 0.08113250
vt 0.980468750 0.019531250
vt 0.980468750 0.230468750
vt 0.875000018 0.230468750
vn 0.70710678 -0.70710678 0.00000000
f 340/340/114 341/341/114 342/342/114
g pz_sofa_seating_indoor_03_victorian_c4_0_0__foot_-1_-1__frame
v -0.33313438 -0.33175625 0.08113250
v -0.33313438 -0.33175625 0.00000000
v -0.36211250 -0.30277812 0.00000000
vt 0.874999982 0.230468750
vt 0.874999982 0.019531250
vt 0.980468750 0.019531250
vn 0.70710678 0.70710678 0.00000000
f 343/343/115 344/344/115 345/345/115
g pz_sofa_seating_indoor_03_victorian_c4_0_0__foot_-1_-1__frame
v -0.36211250 -0.30277812 0.00000000
v -0.36211250 -0.30277812 0.08113250
v -0.33313438 -0.33175625 0.08113250
vt 0.980468750 0.019531250
vt 0.980468750 0.230468750
vt 0.874999982 0.230468750
vn 0.70710678 0.70710678 -0.00000000
f 346/346/116 347/347/116 348/348/116
g pz_sofa_seating_indoor_03_victorian_c4_0_0__foot_-1_-1__frame
v -0.36211250 -0.30277812 0.08113250
v -0.36211250 -0.30277812 0.00000000
v -0.39109063 -0.33175625 0.00000000
vt 0.980468750 0.230468750
vt 0.980468750 0.019531250
vt 0.874999982 0.019531250
vn -0.70710678 0.70710678 0.00000000
f 349/349/117 350/350/117 351/351/117
g pz_sofa_seating_indoor_03_victorian_c4_0_0__foot_-1_-1__frame
v -0.39109063 -0.33175625 0.00000000
v -0.39109063 -0.33175625 0.08113250
v -0.36211250 -0.30277812 0.08113250
vt 0.874999982 0.019531250
vt 0.874999982 0.230468750
vt 0.980468750 0.230468750
vn -0.70710678 0.70710678 0.00000000
f 352/352/118 353/353/118 354/354/118
g pz_sofa_seating_indoor_03_victorian_c4_0_0__foot_-1_1__frame
v -0.39109063 0.37425625 0.08113250
v -0.39109063 0.37425625 0.00000000
v -0.36211250 0.34527812 0.00000000
vt 0.875000018 0.230468750
vt 0.875000018 0.019531250
vt 0.769531250 0.019531250
vn -0.70710678 -0.70710678 -0.00000000
f 355/355/119 356/356/119 357/357/119
g pz_sofa_seating_indoor_03_victorian_c4_0_0__foot_-1_1__frame
v -0.36211250 0.34527812 0.00000000
v -0.36211250 0.34527812 0.08113250
v -0.39109063 0.37425625 0.08113250
vt 0.769531250 0.019531250
vt 0.769531250 0.230468750
vt 0.875000018 0.230468750
vn -0.70710678 -0.70710678 0.00000000
f 358/358/120 359/359/120 360/360/120
g pz_sofa_seating_indoor_03_victorian_c4_0_0__foot_-1_1__frame
v -0.36211250 0.34527812 0.08113250
v -0.36211250 0.34527812 0.00000000
v -0.33313438 0.37425625 0.00000000
vt 0.769531250 0.230468750
vt 0.769531250 0.019531250
vt 0.875000018 0.019531250
vn 0.70710678 -0.70710678 0.00000000
f 361/361/121 362/362/121 363/363/121
g pz_sofa_seating_indoor_03_victorian_c4_0_0__foot_-1_1__frame
v -0.33313438 0.37425625 0.00000000
v -0.33313438 0.37425625 0.08113250
v -0.36211250 0.34527812 0.08113250
vt 0.875000018 0.019531250
vt 0.875000018 0.230468750
vt 0.769531250 0.230468750
vn 0.70710678 -0.70710678 0.00000000
f 364/364/122 365/365/122 366/366/122
g pz_sofa_seating_indoor_03_victorian_c4_0_0__foot_-1_1__frame
v -0.33313438 0.37425625 0.08113250
v -0.33313438 0.37425625 0.00000000
v -0.36211250 0.40323437 0.00000000
vt 0.980468750 0.230468750
vt 0.980468750 0.019531250
vt 0.875000018 0.019531250
vn 0.70710678 0.70710678 0.00000000
f 367/367/123 368/368/123 369/369/123
g pz_sofa_seating_indoor_03_victorian_c4_0_0__foot_-1_1__frame
v -0.36211250 0.40323437 0.00000000
v -0.36211250 0.40323437 0.08113250
v -0.33313438 0.37425625 0.08113250
vt 0.875000018 0.019531250
vt 0.875000018 0.230468750
vt 0.980468750 0.230468750
vn 0.70710678 0.70710678 -0.00000000
f 370/370/124 371/371/124 372/372/124
g pz_sofa_seating_indoor_03_victorian_c4_0_0__foot_-1_1__frame
v -0.36211250 0.40323437 0.08113250
v -0.36211250 0.40323437 0.00000000
v -0.39109063 0.37425625 0.00000000
vt 0.875000018 0.230468750
vt 0.875000018 0.019531250
vt 0.769531250 0.019531250
vn -0.70710678 0.70710678 0.00000000
f 373/373/125 374/374/125 375/375/125
g pz_sofa_seating_indoor_03_victorian_c4_0_0__foot_-1_1__frame
v -0.39109063 0.37425625 0.00000000
v -0.39109063 0.37425625 0.08113250
v -0.36211250 0.40323437 0.08113250
vt 0.769531250 0.019531250
vt 0.769531250 0.230468750
vt 0.875000018 0.230468750
vn -0.70710678 0.70710678 0.00000000
f 376/376/126 377/377/126 378/378/126
