# Native geometry authored with Blender MCP in an isolated background process.
mtllib pz_street_pole_03.mtl
o pz_street_pole_03_|_tapered_native_street_pole
usemtl metal
v 0.0710000 0.0000000 0.0150000
vt 0.760913457 0.138341084
vt 0.760913457 0.080852799
vt 0.768755195 0.031066447
vt 0.768755195 0.031066447
vt 0.782337501 0.002322391
vt 0.798020976 0.002322390
vt 0.798020976 0.002322390
vt 0.811603282 0.031066388
vt 0.819445020 0.080852672
vt 0.819445020 0.080852672
vt 0.819445020 0.138341025
vt 0.811603219 0.188127309
vt 0.811603219 0.188127309
vt 0.798020976 0.216871485
vt 0.782337501 0.216871500
vt 0.782337501 0.216871500
vt 0.768755195 0.188127384
vt 0.760913457 0.138341084
vt 0.760913457 0.138341084
vt 0.768755195 0.031066447
vt 0.798020976 0.002322390
vt 0.798020976 0.002322390
vt 0.819445020 0.080852672
vt 0.811603219 0.188127309
vt 0.811603219 0.188127309
vt 0.782337501 0.216871500
vt 0.760913457 0.138341084
vt 0.798020976 0.002322390
vt 0.811603219 0.188127309
vt 0.760913457 0.138341084
vt 0.869666397 0.781954348
vt 0.874448828 0.792075515
vt 0.877210125 0.809605837
vt 0.877210125 0.809605837
vt 0.877210062 0.829848111
vt 0.874448828 0.847378552
vt 0.874448828 0.847378552
vt 0.869666397 0.857499719
vt 0.864144060 0.857499719
vt 0.864144060 0.857499719
vt 0.859361564 0.847378552
vt 0.856600396 0.829848111
vt 0.856600396 0.829848111
vt 0.856600396 0.809605896
vt 0.859361564 0.792075515
vt 0.859361564 0.792075515
vt 0.864144060 0.781954348
vt 0.869666397 0.781954348
vt 0.869666397 0.781954348
vt 0.877210125 0.809605837
vt 0.874448828 0.847378552
vt 0.874448828 0.847378552
vt 0.864144060 0.857499719
vt 0.856600396 0.829848111
vt 0.856600396 0.829848111
vt 0.859361564 0.792075515
vt 0.869666397 0.781954348
vt 0.874448828 0.847378552
vt 0.856600396 0.829848111
vt 0.869666397 0.781954348
vt 0.562514267 0.994812548
vt 0.506345065 0.995623171
vt 0.507715413 0.972896278
vt 0.562514267 0.994812548
vt 0.507715413 0.972896278
vt 0.566257821 0.972051620
vt 0.506345065 0.995623171
vt 0.441486574 0.995623171
vt 0.440116226 0.972896278
vt 0.506345065 0.995623171
vt 0.440116226 0.972896278
vt 0.507715413 0.972896278
vt 0.441486574 0.995623171
vt 0.385317373 0.994812548
vt 0.381573755 0.972051620
vt 0.441486574 0.995623171
vt 0.381573755 0.972051620
vt 0.440116226 0.972896278
vt 0.752184023 0.994812548
vt 0.696014916 0.995623171
vt 0.697385200 0.972896278
vt 0.752184023 0.994812548
vt 0.697385200 0.972896278
vt 0.755927640 0.972051620
vt 0.696014916 0.995623171
vt 0.631156361 0.995623171
vt 0.629786013 0.972896278
vt 0.696014916 0.995623171
vt 0.629786013 0.972896278
vt 0.697385200 0.972896278
vt 0.631156361 0.995623171
vt 0.574987192 0.994812548
vt 0.571243574 0.972051620
vt 0.631156361 0.995623171
vt 0.571243574 0.972051620
vt 0.629786013 0.972896278
vt 0.183179795 0.997406483
vt 0.127089351 0.997677505
vt 0.128457731 0.974783957
vt 0.183179795 0.997406483
vt 0.128457731 0.974783957
vt 0.186918151 0.974501431
vt 0.127089351 0.997677505
vt 0.062321693 0.997677505
vt 0.060953333 0.974783957
vt 0.127089351 0.997677505
vt 0.060953333 0.974783957
vt 0.128457731 0.974783957
vt 0.062321693 0.997677505
vt 0.006231233 0.997406483
vt 0.002492887 0.974501431
vt 0.062321693 0.997677505
vt 0.002492887 0.974501431
vt 0.060953333 0.974783957
vt 0.372844512 0.994812787
vt 0.316675278 0.995623410
vt 0.318045562 0.972896516
vt 0.372844512 0.994812787
vt 0.318045562 0.972896516
vt 0.376588066 0.972051859
vt 0.316675278 0.995623410
vt 0.251816676 0.995623410
vt 0.250446455 0.972896516
vt 0.316675278 0.995623410
vt 0.250446455 0.972896516
vt 0.318045562 0.972896516
vt 0.251816676 0.995623410
vt 0.195647570 0.994812787
vt 0.191903952 0.972051859
vt 0.251816676 0.995623410
vt 0.191903952 0.972051859
vt 0.250446455 0.972896516
vt 0.566257821 0.972051620
vt 0.507715413 0.972896278
vt 0.497666781 0.942871451
vt 0.566257821 0.972051620
vt 0.497666781 0.942871451
vt 0.538804796 0.942277908
vt 0.507715413 0.972896278
vt 0.440116226 0.972896278
vt 0.450164795 0.942871451
vt 0.507715413 0.972896278
vt 0.450164795 0.942871451
vt 0.497666781 0.942871451
vt 0.440116226 0.972896278
vt 0.381573755 0.972051620
vt 0.409026812 0.942277908
vt 0.440116226 0.972896278
vt 0.409026812 0.942277908
vt 0.450164795 0.942871451
vt 0.755927640 0.972051620
vt 0.697385200 0.972896278
vt 0.687336664 0.942871451
vt 0.755927640 0.972051620
vt 0.687336664 0.942871451
vt 0.728474679 0.942277908
vt 0.697385200 0.972896278
vt 0.629786013 0.972896278
vt 0.639834614 0.942871451
vt 0.697385200 0.972896278
vt 0.639834614 0.942871451
vt 0.687336664 0.942871451
vt 0.629786013 0.972896278
vt 0.571243574 0.972051620
vt 0.598696598 0.942277908
vt 0.629786013 0.972896278
vt 0.598696598 0.942277908
vt 0.639834614 0.942871451
vt 0.186918151 0.974501431
vt 0.128457731 0.974783957
vt 0.118423230 0.945278704
vt 0.186918151 0.974501431
vt 0.118423230 0.945278704
vt 0.159503609 0.945080101
vt 0.128457731 0.974783957
vt 0.060953333 0.974783957
vt 0.070987821 0.945278704
vt 0.128457731 0.974783957
vt 0.070987821 0.945278704
vt 0.118423230 0.945278704
vt 0.060953333 0.974783957
vt 0.002492887 0.974501431
vt 0.029907456 0.945080101
vt 0.060953333 0.974783957
vt 0.029907456 0.945080101
vt 0.070987821 0.945278704
vt 0.376588066 0.972051859
vt 0.318045562 0.972896516
vt 0.307997057 0.942871690
vt 0.376588066 0.972051859
vt 0.307997057 0.942871690
vt 0.349135041 0.942278147
vt 0.318045562 0.972896516
vt 0.250446455 0.972896516
vt 0.260495024 0.942871690
vt 0.318045562 0.972896516
vt 0.260495024 0.942871690
vt 0.307997057 0.942871690
vt 0.250446455 0.972896516
vt 0.191903952 0.972051859
vt 0.219357040 0.942278147
vt 0.250446455 0.972896516
vt 0.219357040 0.942278147
vt 0.260495024 0.942871690
vt 0.538804796 0.942277908
vt 0.497666781 0.942871451
vt 0.489445332 0.908861578
vt 0.538804796 0.942277908
vt 0.489445332 0.908861578
vt 0.516343251 0.908473611
vt 0.497666781 0.942871451
vt 0.450164795 0.942871451
vt 0.458386275 0.908861578
vt 0.497666781 0.942871451
vt 0.458386275 0.908861578
vt 0.489445332 0.908861578
vt 0.450164795 0.942871451
vt 0.409026812 0.942277908
vt 0.431488389 0.908473611
vt 0.450164795 0.942871451
vt 0.431488389 0.908473611
vt 0.458386275 0.908861578
vt 0.728474679 0.942277908
vt 0.687336664 0.942871451
vt 0.679115151 0.908861578
vt 0.728474679 0.942277908
vt 0.679115151 0.908861578
vt 0.706013166 0.908473611
vt 0.687336664 0.942871451
vt 0.639834614 0.942871451
vt 0.648055998 0.908861578
vt 0.687336664 0.942871451
vt 0.648055998 0.908861578
vt 0.679115151 0.908861578
vt 0.639834614 0.942871451
vt 0.598696598 0.942277908
vt 0.621158176 0.908473611
vt 0.639834614 0.942871451
vt 0.621158176 0.908473611
vt 0.648055998 0.908861578
vt 0.159503609 0.945080101
vt 0.118423230 0.945278704
vt 0.110213322 0.911660254
vt 0.159503609 0.945080101
vt 0.110213322 0.911660254
vt 0.137073508 0.911530435
vt 0.118423230 0.945278704
vt 0.070987821 0.945278704
vt 0.079197706 0.911660254
vt 0.118423230 0.945278704
vt 0.079197706 0.911660254
vt 0.110213322 0.911660254
vt 0.070987821 0.945278704
vt 0.029907456 0.945080101
vt 0.052337555 0.911530435
vt 0.070987821 0.945278704
vt 0.052337555 0.911530435
vt 0.079197706 0.911660254
vt 0.349135041 0.942278147
vt 0.307997057 0.942871690
vt 0.299775482 0.908861816
vt 0.349135041 0.942278147
vt 0.299775482 0.908861816
vt 0.326673432 0.908473730
vt 0.307997057 0.942871690
vt 0.260495024 0.942871690
vt 0.268716456 0.908861816
vt 0.307997057 0.942871690
vt 0.268716456 0.908861816
vt 0.299775482 0.908861816
vt 0.260495024 0.942871690
vt 0.219357040 0.942278147
vt 0.241818586 0.908473730
vt 0.260495024 0.942871690
vt 0.241818586 0.908473730
vt 0.268716456 0.908861816
vt 0.516343251 0.908473611
vt 0.489445332 0.908861578
vt 0.485334512 0.002607887
vt 0.516343251 0.908473611
vt 0.485334512 0.002607887
vt 0.505112430 0.002322452
vt 0.489445332 0.908861578
vt 0.458386275 0.908861578
vt 0.462497063 0.002607887
vt 0.489445332 0.908861578
vt 0.462497063 0.002607887
vt 0.485334512 0.002607887
vt 0.458386275 0.908861578
vt 0.431488389 0.908473611
vt 0.442719146 0.002322452
vt 0.458386275 0.908861578
vt 0.442719146 0.002322452
vt 0.462497063 0.002607887
vt 0.706013166 0.908473611
vt 0.679115151 0.908861578
vt 0.675004363 0.002607887
vt 0.706013166 0.908473611
vt 0.675004363 0.002607887
vt 0.694782185 0.002322452
vt 0.679115151 0.908861578
vt 0.648055998 0.908861578
vt 0.652166915 0.002607887
vt 0.679115151 0.908861578
vt 0.652166915 0.002607887
vt 0.675004363 0.002607887
vt 0.648055998 0.908861578
vt 0.621158176 0.908473611
vt 0.632388964 0.002322452
vt 0.648055998 0.908861578
vt 0.632388964 0.002322452
vt 0.652166915 0.002607887
vt 0.137073508 0.911530435
vt 0.110213322 0.911660254
vt 0.106108236 0.002417991
vt 0.137073508 0.911530435
vt 0.106108236 0.002417991
vt 0.125858442 0.002322482
vt 0.110213322 0.911660254
vt 0.079197706 0.911660254
vt 0.083302815 0.002417991
vt 0.110213322 0.911660254
vt 0.083302815 0.002417991
vt 0.106108236 0.002417991
vt 0.079197706 0.911660254
vt 0.052337555 0.911530435
vt 0.063552600 0.002322482
vt 0.079197706 0.911660254
vt 0.063552600 0.002322482
vt 0.083302815 0.002417991
vt 0.326673432 0.908473730
vt 0.299775482 0.908861816
vt 0.295664757 0.002607887
vt 0.326673432 0.908473730
vt 0.295664757 0.002607887
vt 0.315442675 0.002322452
vt 0.299775482 0.908861816
vt 0.268716456 0.908861816
vt 0.272827308 0.002607887
vt 0.299775482 0.908861816
vt 0.272827308 0.002607887
vt 0.295664757 0.002607887
vt 0.268716456 0.908861816
vt 0.241818586 0.908473730
vt 0.253049359 0.002322452
vt 0.268716456 0.908861816
vt 0.253049359 0.002322452
vt 0.272827308 0.002607887
vt 0.924604627 0.107001469
vt 0.920186680 0.078952715
vt 0.920186680 0.046565033
vt 0.920186680 0.046565033
vt 0.924604627 0.018516405
vt 0.932256607 0.002322504
vt 0.932256607 0.002322504
vt 0.941092373 0.002322503
vt 0.948744352 0.018516405
vt 0.948744352 0.018516405
vt 0.953162236 0.046565033
vt 0.953162236 0.078952715
vt 0.953162236 0.078952715
vt 0.948744352 0.107001469
vt 0.941092309 0.123195246
vt 0.941092309 0.123195246
vt 0.932256607 0.123195246
vt 0.924604627 0.107001469
vt 0.924604627 0.107001469
vt 0.920186680 0.046565033
vt 0.932256607 0.002322504
vt 0.932256607 0.002322504
vt 0.948744352 0.018516405
vt 0.953162236 0.078952715
vt 0.953162236 0.078952715
vt 0.941092309 0.123195246
vt 0.924604627 0.107001469
vt 0.932256607 0.002322504
vt 0.953162236 0.078952715
vt 0.924604627 0.107001469
vt 0.792271900 0.428623319
vt 0.803749900 0.452914149
vt 0.810376693 0.494987160
vt 0.810376693 0.494987160
vt 0.810376693 0.543568730
vt 0.803749900 0.585641742
vt 0.803749900 0.585641742
vt 0.792271900 0.609932542
vt 0.779018250 0.609932542
vt 0.779018250 0.609932542
vt 0.767540314 0.585641742
vt 0.760913457 0.543568790
vt 0.760913457 0.543568790
vt 0.760913457 0.494987160
vt 0.767540314 0.452914149
vt 0.767540314 0.452914149
vt 0.779018250 0.428623319
vt 0.792271900 0.428623319
vt 0.792271900 0.428623319
vt 0.810376693 0.494987160
vt 0.803749900 0.585641742
vt 0.803749900 0.585641742
vt 0.779018250 0.609932542
vt 0.760913457 0.543568790
vt 0.760913457 0.543568790
vt 0.767540314 0.452914149
vt 0.792271900 0.428623319
vt 0.803749900 0.585641742
vt 0.760913457 0.543568790
vt 0.792271900 0.428623319
vt 0.905564218 0.470078677
vt 0.906063504 0.500114858
vt 0.853163745 0.484941125
vt 0.905564218 0.470078677
vt 0.853163745 0.484941125
vt 0.852227425 0.428623319
vt 0.906063504 0.500114858
vt 0.906063504 0.534797668
vt 0.853163745 0.549971461
vt 0.906063504 0.500114858
vt 0.853163745 0.549971461
vt 0.853163745 0.484941125
vt 0.906063504 0.534797668
vt 0.905564218 0.564833820
vt 0.852227425 0.606289148
vt 0.906063504 0.534797668
vt 0.852227425 0.606289148
vt 0.853163745 0.549971461
vt 0.851115229 0.656032860
vt 0.851614578 0.686069012
vt 0.798714820 0.670895219
vt 0.851115229 0.656032860
vt 0.798714820 0.670895219
vt 0.797778435 0.614577472
vt 0.851614578 0.686069012
vt 0.851614578 0.720751762
vt 0.798714820 0.735925555
vt 0.851614578 0.686069012
vt 0.798714820 0.735925555
vt 0.798714820 0.670895219
vt 0.851614578 0.720751762
vt 0.851115229 0.750787973
vt 0.797778435 0.792243302
vt 0.851614578 0.720751762
vt 0.797778435 0.792243302
vt 0.798714820 0.735925555
vt 0.915034648 0.043548018
vt 0.915200927 0.073417686
vt 0.861245401 0.058328029
vt 0.915034648 0.043548018
vt 0.861245401 0.058328029
vt 0.860933444 0.002322447
vt 0.915200927 0.073417686
vt 0.915200927 0.107908219
vt 0.861245401 0.122997880
vt 0.915200927 0.073417686
vt 0.861245401 0.122997880
vt 0.861245401 0.058328029
vt 0.915200927 0.107908219
vt 0.915034648 0.137777895
vt 0.860933444 0.179003462
vt 0.915200927 0.107908219
vt 0.860933444 0.179003462
vt 0.861245401 0.122997880
vt 0.911335047 0.262971878
vt 0.911834333 0.293008029
vt 0.858934575 0.277834296
vt 0.911335047 0.262971878
vt 0.858934575 0.277834296
vt 0.857998318 0.221516520
vt 0.911834333 0.293008029
vt 0.911834333 0.327690840
vt 0.858934575 0.342864633
vt 0.911834333 0.293008029
vt 0.858934575 0.342864633
vt 0.858934575 0.277834296
vt 0.911834333 0.327690840
vt 0.911335047 0.357726991
vt 0.857998318 0.399182349
vt 0.911834333 0.327690840
vt 0.857998318 0.399182349
vt 0.858934575 0.342864633
vt 0.852227425 0.428623319
vt 0.853163745 0.484941125
vt 0.816111374 0.491444111
vt 0.852227425 0.428623319
vt 0.816111374 0.491444111
vt 0.815362383 0.446389884
vt 0.853163745 0.484941125
vt 0.853163745 0.549971461
vt 0.816111374 0.543468356
vt 0.853163745 0.484941125
vt 0.816111374 0.543468356
vt 0.816111374 0.491444111
vt 0.853163745 0.549971461
vt 0.852227425 0.606289148
vt 0.815362383 0.588522613
vt 0.853163745 0.549971461
vt 0.815362383 0.588522613
vt 0.816111374 0.543468356
vt 0.797778435 0.614577472
vt 0.798714820 0.670895219
vt 0.761662449 0.677398205
vt 0.797778435 0.614577472
vt 0.761662449 0.677398205
vt 0.760913393 0.632344067
vt 0.798714820 0.670895219
vt 0.798714820 0.735925555
vt 0.761662449 0.729422390
vt 0.798714820 0.670895219
vt 0.761662449 0.729422390
vt 0.761662449 0.677398205
vt 0.798714820 0.735925555
vt 0.797778435 0.792243302
vt 0.760913393 0.774476707
vt 0.798714820 0.735925555
vt 0.760913393 0.774476707
vt 0.761662449 0.729422390
vt 0.860933444 0.002322447
vt 0.861245401 0.058328029
vt 0.824680160 0.064794987
vt 0.860933444 0.002322447
vt 0.824680160 0.064794987
vt 0.824430773 0.019990569
vt 0.861245401 0.058328029
vt 0.861245401 0.122997880
vt 0.824680160 0.116530806
vt 0.861245401 0.058328029
vt 0.824680160 0.116530806
vt 0.824680160 0.064794987
vt 0.861245401 0.122997880
vt 0.860933444 0.179003462
vt 0.824430773 0.161335349
vt 0.861245401 0.122997880
vt 0.824430773 0.161335349
vt 0.824680160 0.116530806
vt 0.857998318 0.221516520
vt 0.858934575 0.277834296
vt 0.821882332 0.284337312
vt 0.857998318 0.221516520
vt 0.821882332 0.284337312
vt 0.821133212 0.239283085
vt 0.858934575 0.277834296
vt 0.858934575 0.342864633
vt 0.821882332 0.336361527
vt 0.858934575 0.277834296
vt 0.821882332 0.336361527
vt 0.821882332 0.284337312
vt 0.858934575 0.342864633
vt 0.857998318 0.399182349
vt 0.821133212 0.381415784
vt 0.858934575 0.342864633
vt 0.821133212 0.381415784
vt 0.821882332 0.336361527
vt 0.760913457 0.349872231
vt 0.760913393 0.295622736
vt 0.768313362 0.248641178
vt 0.768313362 0.248641178
vt 0.781130489 0.221516460
vt 0.795930362 0.221516460
vt 0.795930362 0.221516460
vt 0.808747426 0.248641238
vt 0.816147395 0.295622706
vt 0.816147395 0.295622706
vt 0.816147395 0.349872172
vt 0.808747490 0.396853656
vt 0.808747490 0.396853656
vt 0.795930362 0.423978418
vt 0.781130489 0.423978418
vt 0.781130489 0.423978418
vt 0.768313362 0.396853715
vt 0.760913457 0.349872231
vt 0.760913457 0.349872231
vt 0.768313362 0.248641178
vt 0.795930362 0.221516460
vt 0.795930362 0.221516460
vt 0.816147395 0.295622706
vt 0.808747490 0.396853656
vt 0.808747490 0.396853656
vt 0.781130489 0.423978418
vt 0.760913457 0.349872231
vt 0.795930362 0.221516460
vt 0.808747490 0.396853656
vt 0.760913457 0.349872231
vt 0.888467721 0.781954288
vt 0.890763256 0.786812425
vt 0.892088564 0.795226991
vt 0.892088564 0.795226991
vt 0.892088628 0.804943323
vt 0.890763256 0.813358009
vt 0.890763256 0.813358009
vt 0.888467721 0.818216205
vt 0.885816978 0.818216264
vt 0.885816978 0.818216264
vt 0.883521314 0.813358009
vt 0.882196007 0.804943323
vt 0.882196007 0.804943323
vt 0.882196007 0.795227051
vt 0.883521314 0.786812484
vt 0.883521314 0.786812484
vt 0.885816978 0.781954288
vt 0.888467721 0.781954288
vt 0.888467721 0.781954288
vt 0.892088564 0.795226991
vt 0.890763256 0.813358009
vt 0.890763256 0.813358009
vt 0.885816978 0.818216264
vt 0.882196007 0.804943323
vt 0.882196007 0.804943323
vt 0.883521314 0.786812484
vt 0.888467721 0.781954288
vt 0.890763256 0.813358009
vt 0.882196007 0.804943323
vt 0.888467721 0.781954288
vt 0.957093245 0.614577472
vt 0.957937309 0.665348411
vt 0.924332209 0.679348528
vt 0.957093245 0.614577472
vt 0.924332209 0.679348528
vt 0.923891272 0.652826369
vt 0.957937309 0.665348411
vt 0.957937309 0.723973751
vt 0.924332209 0.709973693
vt 0.957937309 0.665348411
vt 0.924332209 0.709973693
vt 0.924332209 0.679348528
vt 0.957937309 0.723973751
vt 0.957093245 0.774744809
vt 0.923891272 0.736495912
vt 0.957937309 0.723973751
vt 0.923891272 0.736495912
vt 0.924332209 0.709973693
vt 0.964571075 0.221516445
vt 0.965415075 0.272287339
vt 0.931809976 0.286287427
vt 0.964571075 0.221516445
vt 0.931809976 0.286287427
vt 0.931369037 0.259765267
vt 0.965415075 0.272287339
vt 0.965415075 0.330912650
vt 0.931809976 0.316912562
vt 0.965415075 0.272287339
vt 0.931809976 0.316912562
vt 0.931809976 0.286287427
vt 0.965415075 0.330912650
vt 0.964571075 0.381683648
vt 0.931369037 0.343434721
vt 0.965415075 0.330912650
vt 0.931369037 0.343434721
vt 0.931809976 0.316912562
vt 0.904069369 0.614577591
vt 0.904356631 0.666161478
vt 0.871067327 0.680385709
vt 0.904069369 0.614577591
vt 0.871067327 0.680385709
vt 0.870917298 0.653438866
vt 0.904356631 0.666161478
vt 0.904356631 0.725725472
vt 0.871067327 0.711501241
vt 0.904356631 0.666161478
vt 0.871067327 0.711501241
vt 0.871067327 0.680385709
vt 0.904356631 0.725725472
vt 0.904069369 0.777309477
vt 0.870917298 0.738448143
vt 0.904356631 0.725725472
vt 0.870917298 0.738448143
vt 0.871067327 0.711501241
vt 0.958800182 0.428623319
vt 0.959644309 0.479394257
vt 0.926039082 0.493394345
vt 0.958800182 0.428623319
vt 0.926039082 0.493394345
vt 0.925598272 0.466872185
vt 0.959644309 0.479394257
vt 0.959644309 0.538019657
vt 0.926039082 0.524019539
vt 0.959644309 0.479394257
vt 0.926039082 0.524019539
vt 0.926039082 0.493394345
vt 0.959644309 0.538019657
vt 0.958800182 0.588790715
vt 0.925598272 0.550541759
vt 0.959644309 0.538019657
vt 0.925598272 0.550541759
vt 0.926039082 0.524019539
vt 0.923891272 0.652826369
vt 0.924332209 0.679348528
vt 0.909493500 0.689411104
vt 0.923891272 0.652826369
vt 0.909493500 0.689411104
vt 0.909342384 0.680317760
vt 0.924332209 0.679348528
vt 0.924332209 0.709973693
vt 0.909493500 0.699911118
vt 0.924332209 0.679348528
vt 0.909493500 0.699911118
vt 0.909493500 0.689411104
vt 0.924332209 0.709973693
vt 0.923891272 0.736495912
vt 0.909342384 0.709004402
vt 0.924332209 0.709973693
vt 0.909342384 0.709004402
vt 0.909493500 0.699911118
vt 0.931369037 0.259765267
vt 0.931809976 0.286287427
vt 0.916971267 0.296349972
vt 0.931369037 0.259765267
vt 0.916971267 0.296349972
vt 0.916820086 0.287256688
vt 0.931809976 0.286287427
vt 0.931809976 0.316912562
vt 0.916971267 0.306850016
vt 0.931809976 0.286287427
vt 0.916971267 0.306850016
vt 0.916971267 0.296349972
vt 0.931809976 0.316912562
vt 0.931369037 0.343434721
vt 0.916820086 0.315943271
vt 0.931809976 0.316912562
vt 0.916820086 0.315943271
vt 0.916971267 0.306850016
vt 0.870917298 0.653438866
vt 0.871067327 0.680385709
vt 0.856652026 0.690609396
vt 0.870917298 0.653438866
vt 0.856652026 0.690609396
vt 0.856600459 0.681370497
vt 0.871067327 0.680385709
vt 0.871067327 0.711501241
vt 0.856652026 0.701277554
vt 0.871067327 0.680385709
vt 0.856652026 0.701277554
vt 0.856652026 0.690609396
vt 0.871067327 0.711501241
vt 0.870917298 0.738448143
vt 0.856600459 0.710516453
vt 0.871067327 0.711501241
vt 0.856600459 0.710516453
vt 0.856652026 0.701277554
vt 0.925598272 0.466872185
vt 0.926039082 0.493394345
vt 0.911200437 0.503456950
vt 0.925598272 0.466872185
vt 0.911200437 0.503456950
vt 0.911049321 0.494363636
vt 0.926039082 0.493394345
vt 0.926039082 0.524019539
vt 0.911200437 0.513957024
vt 0.926039082 0.493394345
vt 0.911200437 0.513957024
vt 0.911200437 0.503456950
vt 0.926039082 0.524019539
vt 0.925598272 0.550541759
vt 0.911049321 0.523050249
vt 0.926039082 0.524019539
vt 0.911049321 0.523050249
vt 0.911200437 0.513957024
vn 0.0000000 0.0000000 -1.0000000
v 0.0614878 -0.0355000 0.0150000
vn 0.0000000 0.0000000 -1.0000000
v 0.0355000 -0.0614878 0.0150000
vn 0.0000000 0.0000000 -1.0000000
f 1/1/1 2/2/2 3/3/3
v 0.0355000 -0.0614878 0.0150000
vn 0.0000000 0.0000000 -1.0000000
v -0.0000000 -0.0710000 0.0150000
vn 0.0000000 0.0000000 -1.0000000
v -0.0355000 -0.0614878 0.0150000
vn 0.0000000 0.0000000 -1.0000000
f 4/4/4 5/5/5 6/6/6
v -0.0355000 -0.0614878 0.0150000
vn 0.0000000 0.0000000 -1.0000000
v -0.0614878 -0.0355000 0.0150000
vn 0.0000000 0.0000000 -1.0000000
v -0.0710000 0.0000000 0.0150000
vn 0.0000000 0.0000000 -1.0000000
f 7/7/7 8/8/8 9/9/9
v -0.0710000 0.0000000 0.0150000
vn 0.0000000 0.0000000 -1.0000000
v -0.0614878 0.0355000 0.0150000
vn 0.0000000 0.0000000 -1.0000000
v -0.0355000 0.0614878 0.0150000
vn 0.0000000 0.0000000 -1.0000000
f 10/10/10 11/11/11 12/12/12
v -0.0355000 0.0614878 0.0150000
vn -0.0000000 0.0000000 -1.0000000
v 0.0000000 0.0710000 0.0150000
vn -0.0000000 0.0000000 -1.0000000
v 0.0355000 0.0614878 0.0150000
vn -0.0000000 0.0000000 -1.0000000
f 13/13/13 14/14/14 15/15/15
v 0.0355000 0.0614878 0.0150000
vn 0.0000000 0.0000000 -1.0000000
v 0.0614878 0.0355000 0.0150000
vn 0.0000000 0.0000000 -1.0000000
v 0.0710000 0.0000000 0.0150000
vn 0.0000000 0.0000000 -1.0000000
f 16/16/16 17/17/17 18/18/18
v 0.0710000 0.0000000 0.0150000
vn 0.0000000 0.0000000 -1.0000000
v 0.0355000 -0.0614878 0.0150000
vn 0.0000000 0.0000000 -1.0000000
v -0.0355000 -0.0614878 0.0150000
vn 0.0000000 0.0000000 -1.0000000
f 19/19/19 20/20/20 21/21/21
v -0.0355000 -0.0614878 0.0150000
vn 0.0000000 -0.0000000 -1.0000000
v -0.0710000 0.0000000 0.0150000
vn 0.0000000 -0.0000000 -1.0000000
v -0.0355000 0.0614878 0.0150000
vn 0.0000000 -0.0000000 -1.0000000
f 22/22/22 23/23/23 24/24/24
v -0.0355000 0.0614878 0.0150000
vn 0.0000000 0.0000000 -1.0000000
v 0.0355000 0.0614878 0.0150000
vn 0.0000000 0.0000000 -1.0000000
v 0.0710000 0.0000000 0.0150000
vn 0.0000000 0.0000000 -1.0000000
f 25/25/25 26/26/26 27/27/27
v -0.0355000 -0.0614878 0.0150000
vn -0.0000000 -0.0000000 -1.0000000
v -0.0355000 0.0614878 0.0150000
vn -0.0000000 -0.0000000 -1.0000000
v 0.0710000 0.0000000 0.0150000
vn -0.0000000 -0.0000000 -1.0000000
f 28/28/28 29/29/29 30/30/30
v 0.0216506 -0.0125000 2.4000001
vn 0.0000000 0.0000000 1.0000000
v 0.0250000 0.0000000 2.4000001
vn 0.0000000 0.0000000 1.0000000
v 0.0216506 0.0125000 2.4000001
vn 0.0000000 0.0000000 1.0000000
f 31/31/31 32/32/32 33/33/33
v 0.0216506 0.0125000 2.4000001
vn 0.0000000 0.0000000 1.0000000
v 0.0125000 0.0216506 2.4000001
vn 0.0000000 0.0000000 1.0000000
v 0.0000000 0.0250000 2.4000001
vn 0.0000000 0.0000000 1.0000000
f 34/34/34 35/35/35 36/36/36
v 0.0000000 0.0250000 2.4000001
vn 0.0000000 0.0000000 1.0000000
v -0.0125000 0.0216506 2.4000001
vn 0.0000000 0.0000000 1.0000000
v -0.0216506 0.0125000 2.4000001
vn 0.0000000 0.0000000 1.0000000
f 37/37/37 38/38/38 39/39/39
v -0.0216506 0.0125000 2.4000001
vn 0.0000000 -0.0000000 1.0000000
v -0.0250000 0.0000000 2.4000001
vn 0.0000000 -0.0000000 1.0000000
v -0.0216506 -0.0125000 2.4000001
vn 0.0000000 -0.0000000 1.0000000
f 40/40/40 41/41/41 42/42/42
v -0.0216506 -0.0125000 2.4000001
vn 0.0000000 0.0000000 1.0000000
v -0.0125000 -0.0216506 2.4000001
vn 0.0000000 0.0000000 1.0000000
v -0.0000000 -0.0250000 2.4000001
vn 0.0000000 0.0000000 1.0000000
f 43/43/43 44/44/44 45/45/45
v -0.0000000 -0.0250000 2.4000001
vn 0.0000000 0.0000000 1.0000000
v 0.0125000 -0.0216506 2.4000001
vn 0.0000000 0.0000000 1.0000000
v 0.0216506 -0.0125000 2.4000001
vn 0.0000000 0.0000000 1.0000000
f 46/46/46 47/47/47 48/48/48
v 0.0216506 -0.0125000 2.4000001
vn 0.0000000 0.0000000 1.0000000
v 0.0216506 0.0125000 2.4000001
vn 0.0000000 0.0000000 1.0000000
v 0.0000000 0.0250000 2.4000001
vn 0.0000000 0.0000000 1.0000000
f 49/49/49 50/50/50 51/51/51
v 0.0000000 0.0250000 2.4000001
vn 0.0000000 0.0000000 1.0000000
v -0.0216506 0.0125000 2.4000001
vn 0.0000000 0.0000000 1.0000000
v -0.0216506 -0.0125000 2.4000001
vn 0.0000000 0.0000000 1.0000000
f 52/52/52 53/53/53 54/54/54
v -0.0216506 -0.0125000 2.4000001
vn 0.0000000 0.0000000 1.0000000
v -0.0000000 -0.0250000 2.4000001
vn 0.0000000 0.0000000 1.0000000
v 0.0216506 -0.0125000 2.4000001
vn 0.0000000 0.0000000 1.0000000
f 55/55/55 56/56/56 57/57/57
v 0.0000000 0.0250000 2.4000001
vn 0.0000000 -0.0000000 1.0000000
v -0.0216506 -0.0125000 2.4000001
vn 0.0000000 -0.0000000 1.0000000
v 0.0216506 -0.0125000 2.4000001
vn 0.0000000 -0.0000000 1.0000000
f 58/58/58 59/59/59 60/60/60
v 0.0710000 0.0000000 0.0150000
vn 0.9645879 0.2584606 -0.0526138
v 0.0614878 0.0355000 0.0150000
vn 0.9645879 0.2584606 -0.0526138
v 0.0640859 0.0370000 0.0700000
vn 0.9645879 0.2584606 -0.0526138
f 61/61/61 62/62/62 63/63/63
v 0.0710000 0.0000000 0.0150000
vn 0.9645879 0.2584606 -0.0526139
v 0.0640859 0.0370000 0.0700000
vn 0.9645879 0.2584606 -0.0526139
v 0.0740000 0.0000000 0.0700000
vn 0.9645879 0.2584606 -0.0526139
f 64/64/64 65/65/65 66/66/66
v 0.0614878 0.0355000 0.0150000
vn 0.7061274 0.7061274 -0.0526138
v 0.0355000 0.0614878 0.0150000
vn 0.7061274 0.7061274 -0.0526138
v 0.0370000 0.0640859 0.0700000
vn 0.7061274 0.7061274 -0.0526138
f 67/67/67 68/68/68 69/69/69
v 0.0614878 0.0355000 0.0150000
vn 0.7061274 0.7061274 -0.0526139
v 0.0370000 0.0640859 0.0700000
vn 0.7061274 0.7061274 -0.0526139
v 0.0640859 0.0370000 0.0700000
vn 0.7061274 0.7061274 -0.0526139
f 70/70/70 71/71/71 72/72/72
v 0.0355000 0.0614878 0.0150000
vn 0.2584606 0.9645879 -0.0526139
v 0.0000000 0.0710000 0.0150000
vn 0.2584606 0.9645879 -0.0526139
v 0.0000000 0.0740000 0.0700000
vn 0.2584606 0.9645879 -0.0526139
f 73/73/73 74/74/74 75/75/75
v 0.0355000 0.0614878 0.0150000
vn 0.2584606 0.9645879 -0.0526138
v 0.0000000 0.0740000 0.0700000
vn 0.2584606 0.9645879 -0.0526138
v 0.0370000 0.0640859 0.0700000
vn 0.2584606 0.9645879 -0.0526138
f 76/76/76 77/77/77 78/78/78
v 0.0000000 0.0710000 0.0150000
vn -0.2584606 0.9645879 -0.0526138
v -0.0355000 0.0614878 0.0150000
vn -0.2584606 0.9645879 -0.0526138
v -0.0370000 0.0640859 0.0700000
vn -0.2584606 0.9645879 -0.0526138
f 79/79/79 80/80/80 81/81/81
v 0.0000000 0.0710000 0.0150000
vn -0.2584606 0.9645879 -0.0526139
v -0.0370000 0.0640859 0.0700000
vn -0.2584606 0.9645879 -0.0526139
v 0.0000000 0.0740000 0.0700000
vn -0.2584606 0.9645879 -0.0526139
f 82/82/82 83/83/83 84/84/84
v -0.0355000 0.0614878 0.0150000
vn -0.7061274 0.7061274 -0.0526138
v -0.0614878 0.0355000 0.0150000
vn -0.7061274 0.7061274 -0.0526138
v -0.0640859 0.0370000 0.0700000
vn -0.7061274 0.7061274 -0.0526138
f 85/85/85 86/86/86 87/87/87
v -0.0355000 0.0614878 0.0150000
vn -0.7061274 0.7061274 -0.0526139
v -0.0640859 0.0370000 0.0700000
vn -0.7061274 0.7061274 -0.0526139
v -0.0370000 0.0640859 0.0700000
vn -0.7061274 0.7061274 -0.0526139
f 88/88/88 89/89/89 90/90/90
v -0.0614878 0.0355000 0.0150000
vn -0.9645879 0.2584606 -0.0526139
v -0.0710000 0.0000000 0.0150000
vn -0.9645879 0.2584606 -0.0526139
v -0.0740000 0.0000000 0.0700000
vn -0.9645879 0.2584606 -0.0526139
f 91/91/91 92/92/92 93/93/93
v -0.0614878 0.0355000 0.0150000
vn -0.9645879 0.2584606 -0.0526138
v -0.0740000 0.0000000 0.0700000
vn -0.9645879 0.2584606 -0.0526138
v -0.0640859 0.0370000 0.0700000
vn -0.9645879 0.2584606 -0.0526138
f 94/94/94 95/95/95 96/96/96
v -0.0710000 0.0000000 0.0150000
vn -0.9645879 -0.2584606 -0.0526138
v -0.0614878 -0.0355000 0.0150000
vn -0.9645879 -0.2584606 -0.0526138
v -0.0640859 -0.0370000 0.0700000
vn -0.9645879 -0.2584606 -0.0526138
f 97/97/97 98/98/98 99/99/99
v -0.0710000 0.0000000 0.0150000
vn -0.9645879 -0.2584606 -0.0526139
v -0.0640859 -0.0370000 0.0700000
vn -0.9645879 -0.2584606 -0.0526139
v -0.0740000 0.0000000 0.0700000
vn -0.9645879 -0.2584606 -0.0526139
f 100/100/100 101/101/101 102/102/102
v -0.0614878 -0.0355000 0.0150000
vn -0.7061274 -0.7061274 -0.0526138
v -0.0355000 -0.0614878 0.0150000
vn -0.7061274 -0.7061274 -0.0526138
v -0.0370000 -0.0640859 0.0700000
vn -0.7061274 -0.7061274 -0.0526138
f 103/103/103 104/104/104 105/105/105
v -0.0614878 -0.0355000 0.0150000
vn -0.7061274 -0.7061274 -0.0526139
v -0.0370000 -0.0640859 0.0700000
vn -0.7061274 -0.7061274 -0.0526139
v -0.0640859 -0.0370000 0.0700000
vn -0.7061274 -0.7061274 -0.0526139
f 106/106/106 107/107/107 108/108/108
v -0.0355000 -0.0614878 0.0150000
vn -0.2584606 -0.9645879 -0.0526139
v -0.0000000 -0.0710000 0.0150000
vn -0.2584606 -0.9645879 -0.0526139
v -0.0000000 -0.0740000 0.0700000
vn -0.2584606 -0.9645879 -0.0526139
f 109/109/109 110/110/110 111/111/111
v -0.0355000 -0.0614878 0.0150000
vn -0.2584606 -0.9645879 -0.0526138
v -0.0000000 -0.0740000 0.0700000
vn -0.2584606 -0.9645879 -0.0526138
v -0.0370000 -0.0640859 0.0700000
vn -0.2584606 -0.9645879 -0.0526138
f 112/112/112 113/113/113 114/114/114
v -0.0000000 -0.0710000 0.0150000
vn 0.2584606 -0.9645879 -0.0526138
v 0.0355000 -0.0614878 0.0150000
vn 0.2584606 -0.9645879 -0.0526138
v 0.0370000 -0.0640859 0.0700000
vn 0.2584606 -0.9645879 -0.0526138
f 115/115/115 116/116/116 117/117/117
v -0.0000000 -0.0710000 0.0150000
vn 0.2584606 -0.9645879 -0.0526139
v 0.0370000 -0.0640859 0.0700000
vn 0.2584606 -0.9645879 -0.0526139
v -0.0000000 -0.0740000 0.0700000
vn 0.2584606 -0.9645879 -0.0526139
f 118/118/118 119/119/119 120/120/120
v 0.0355000 -0.0614878 0.0150000
vn 0.7061274 -0.7061274 -0.0526138
v 0.0614878 -0.0355000 0.0150000
vn 0.7061274 -0.7061274 -0.0526138
v 0.0640859 -0.0370000 0.0700000
vn 0.7061274 -0.7061274 -0.0526138
f 121/121/121 122/122/122 123/123/123
v 0.0355000 -0.0614878 0.0150000
vn 0.7061274 -0.7061274 -0.0526139
v 0.0640859 -0.0370000 0.0700000
vn 0.7061274 -0.7061274 -0.0526139
v 0.0370000 -0.0640859 0.0700000
vn 0.7061274 -0.7061274 -0.0526139
f 124/124/124 125/125/125 126/126/126
v 0.0614878 -0.0355000 0.0150000
vn 0.9645879 -0.2584606 -0.0526139
v 0.0710000 0.0000000 0.0150000
vn 0.9645879 -0.2584606 -0.0526139
v 0.0740000 0.0000000 0.0700000
vn 0.9645879 -0.2584606 -0.0526139
f 127/127/127 128/128/128 129/129/129
v 0.0614878 -0.0355000 0.0150000
vn 0.9645879 -0.2584606 -0.0526138
v 0.0740000 0.0000000 0.0700000
vn 0.9645879 -0.2584606 -0.0526138
v 0.0640859 -0.0370000 0.0700000
vn 0.9645879 -0.2584606 -0.0526138
f 130/130/130 131/131/131 132/132/132
v 0.0740000 0.0000000 0.0700000
vn 0.9242742 0.2476586 0.2904862
v 0.0640859 0.0370000 0.0700000
vn 0.9242742 0.2476586 0.2904862
v 0.0450333 0.0260000 0.1400000
vn 0.9242742 0.2476586 0.2904862
f 133/133/133 134/134/134 135/135/135
v 0.0740000 0.0000000 0.0700000
vn 0.9242743 0.2476586 0.2904862
v 0.0450333 0.0260000 0.1400000
vn 0.9242743 0.2476586 0.2904862
v 0.0520000 0.0000000 0.1400000
vn 0.9242743 0.2476586 0.2904862
f 136/136/136 137/137/137 138/138/138
v 0.0640859 0.0370000 0.0700000
vn 0.6766158 0.6766158 0.2904862
v 0.0370000 0.0640859 0.0700000
vn 0.6766158 0.6766158 0.2904862
v 0.0260000 0.0450333 0.1400000
vn 0.6766158 0.6766158 0.2904862
f 139/139/139 140/140/140 141/141/141
v 0.0640859 0.0370000 0.0700000
vn 0.6766157 0.6766157 0.2904862
v 0.0260000 0.0450333 0.1400000
vn 0.6766157 0.6766157 0.2904862
v 0.0450333 0.0260000 0.1400000
vn 0.6766157 0.6766157 0.2904862
f 142/142/142 143/143/143 144/144/144
v 0.0370000 0.0640859 0.0700000
vn 0.2476586 0.9242742 0.2904862
v 0.0000000 0.0740000 0.0700000
vn 0.2476586 0.9242742 0.2904862
v 0.0000000 0.0520000 0.1400000
vn 0.2476586 0.9242742 0.2904862
f 145/145/145 146/146/146 147/147/147
v 0.0370000 0.0640859 0.0700000
vn 0.2476586 0.9242743 0.2904862
v 0.0000000 0.0520000 0.1400000
vn 0.2476586 0.9242743 0.2904862
v 0.0260000 0.0450333 0.1400000
vn 0.2476586 0.9242743 0.2904862
f 148/148/148 149/149/149 150/150/150
v 0.0000000 0.0740000 0.0700000
vn -0.2476586 0.9242742 0.2904862
v -0.0370000 0.0640859 0.0700000
vn -0.2476586 0.9242742 0.2904862
v -0.0260000 0.0450333 0.1400000
vn -0.2476586 0.9242742 0.2904862
f 151/151/151 152/152/152 153/153/153
v 0.0000000 0.0740000 0.0700000
vn -0.2476586 0.9242743 0.2904862
v -0.0260000 0.0450333 0.1400000
vn -0.2476586 0.9242743 0.2904862
v 0.0000000 0.0520000 0.1400000
vn -0.2476586 0.9242743 0.2904862
f 154/154/154 155/155/155 156/156/156
v -0.0370000 0.0640859 0.0700000
vn -0.6766158 0.6766158 0.2904862
v -0.0640859 0.0370000 0.0700000
vn -0.6766158 0.6766158 0.2904862
v -0.0450333 0.0260000 0.1400000
vn -0.6766158 0.6766158 0.2904862
f 157/157/157 158/158/158 159/159/159
v -0.0370000 0.0640859 0.0700000
vn -0.6766157 0.6766157 0.2904862
v -0.0450333 0.0260000 0.1400000
vn -0.6766157 0.6766157 0.2904862
v -0.0260000 0.0450333 0.1400000
vn -0.6766157 0.6766157 0.2904862
f 160/160/160 161/161/161 162/162/162
v -0.0640859 0.0370000 0.0700000
vn -0.9242742 0.2476586 0.2904862
v -0.0740000 0.0000000 0.0700000
vn -0.9242742 0.2476586 0.2904862
v -0.0520000 0.0000000 0.1400000
vn -0.9242742 0.2476586 0.2904862
f 163/163/163 164/164/164 165/165/165
v -0.0640859 0.0370000 0.0700000
vn -0.9242743 0.2476586 0.2904862
v -0.0520000 0.0000000 0.1400000
vn -0.9242743 0.2476586 0.2904862
v -0.0450333 0.0260000 0.1400000
vn -0.9242743 0.2476586 0.2904862
f 166/166/166 167/167/167 168/168/168
v -0.0740000 0.0000000 0.0700000
vn -0.9242742 -0.2476586 0.2904862
v -0.0640859 -0.0370000 0.0700000
vn -0.9242742 -0.2476586 0.2904862
v -0.0450333 -0.0260000 0.1400000
vn -0.9242742 -0.2476586 0.2904862
f 169/169/169 170/170/170 171/171/171
v -0.0740000 0.0000000 0.0700000
vn -0.9242743 -0.2476586 0.2904862
v -0.0450333 -0.0260000 0.1400000
vn -0.9242743 -0.2476586 0.2904862
v -0.0520000 0.0000000 0.1400000
vn -0.9242743 -0.2476586 0.2904862
f 172/172/172 173/173/173 174/174/174
v -0.0640859 -0.0370000 0.0700000
vn -0.6766158 -0.6766158 0.2904862
v -0.0370000 -0.0640859 0.0700000
vn -0.6766158 -0.6766158 0.2904862
v -0.0260000 -0.0450333 0.1400000
vn -0.6766158 -0.6766158 0.2904862
f 175/175/175 176/176/176 177/177/177
v -0.0640859 -0.0370000 0.0700000
vn -0.6766157 -0.6766157 0.2904862
v -0.0260000 -0.0450333 0.1400000
vn -0.6766157 -0.6766157 0.2904862
v -0.0450333 -0.0260000 0.1400000
vn -0.6766157 -0.6766157 0.2904862
f 178/178/178 179/179/179 180/180/180
v -0.0370000 -0.0640859 0.0700000
vn -0.2476586 -0.9242742 0.2904862
v -0.0000000 -0.0740000 0.0700000
vn -0.2476586 -0.9242742 0.2904862
v -0.0000000 -0.0520000 0.1400000
vn -0.2476586 -0.9242742 0.2904862
f 181/181/181 182/182/182 183/183/183
v -0.0370000 -0.0640859 0.0700000
vn -0.2476586 -0.9242743 0.2904862
v -0.0000000 -0.0520000 0.1400000
vn -0.2476586 -0.9242743 0.2904862
v -0.0260000 -0.0450333 0.1400000
vn -0.2476586 -0.9242743 0.2904862
f 184/184/184 185/185/185 186/186/186
v -0.0000000 -0.0740000 0.0700000
vn 0.2476586 -0.9242742 0.2904862
v 0.0370000 -0.0640859 0.0700000
vn 0.2476586 -0.9242742 0.2904862
v 0.0260000 -0.0450333 0.1400000
vn 0.2476586 -0.9242742 0.2904862
f 187/187/187 188/188/188 189/189/189
v -0.0000000 -0.0740000 0.0700000
vn 0.2476586 -0.9242743 0.2904862
v 0.0260000 -0.0450333 0.1400000
vn 0.2476586 -0.9242743 0.2904862
v -0.0000000 -0.0520000 0.1400000
vn 0.2476586 -0.9242743 0.2904862
f 190/190/190 191/191/191 192/192/192
v 0.0370000 -0.0640859 0.0700000
vn 0.6766158 -0.6766158 0.2904862
v 0.0640859 -0.0370000 0.0700000
vn 0.6766158 -0.6766158 0.2904862
v 0.0450333 -0.0260000 0.1400000
vn 0.6766158 -0.6766158 0.2904862
f 193/193/193 194/194/194 195/195/195
v 0.0370000 -0.0640859 0.0700000
vn 0.6766157 -0.6766157 0.2904862
v 0.0450333 -0.0260000 0.1400000
vn 0.6766157 -0.6766157 0.2904862
v 0.0260000 -0.0450333 0.1400000
vn 0.6766157 -0.6766157 0.2904862
f 196/196/196 197/197/197 198/198/198
v 0.0640859 -0.0370000 0.0700000
vn 0.9242742 -0.2476586 0.2904862
v 0.0740000 0.0000000 0.0700000
vn 0.9242742 -0.2476586 0.2904862
v 0.0520000 0.0000000 0.1400000
vn 0.9242742 -0.2476586 0.2904862
f 199/199/199 200/200/200 201/201/201
v 0.0640859 -0.0370000 0.0700000
vn 0.9242743 -0.2476586 0.2904862
v 0.0520000 0.0000000 0.1400000
vn 0.9242743 -0.2476586 0.2904862
v 0.0450333 -0.0260000 0.1400000
vn 0.9242743 -0.2476586 0.2904862
f 202/202/202 203/203/203 204/204/204
v 0.0520000 0.0000000 0.1400000
vn 0.9438912 0.2529149 0.2123755
v 0.0450333 0.0260000 0.1400000
vn 0.9438912 0.2529149 0.2123755
v 0.0294449 0.0170000 0.2200000
vn 0.9438912 0.2529149 0.2123755
f 205/205/205 206/206/206 207/207/207
v 0.0520000 0.0000000 0.1400000
vn 0.9438913 0.2529150 0.2123755
v 0.0294449 0.0170000 0.2200000
vn 0.9438913 0.2529150 0.2123755
v 0.0340000 0.0000000 0.2200000
vn 0.9438913 0.2529150 0.2123755
f 208/208/208 209/209/209 210/210/210
v 0.0450333 0.0260000 0.1400000
vn 0.6909763 0.6909763 0.2123755
v 0.0260000 0.0450333 0.1400000
vn 0.6909763 0.6909763 0.2123755
v 0.0170000 0.0294449 0.2200000
vn 0.6909763 0.6909763 0.2123755
f 211/211/211 212/212/212 213/213/213
v 0.0450333 0.0260000 0.1400000
vn 0.6909764 0.6909764 0.2123755
v 0.0170000 0.0294449 0.2200000
vn 0.6909764 0.6909764 0.2123755
v 0.0294449 0.0170000 0.2200000
vn 0.6909764 0.6909764 0.2123755
f 214/214/214 215/215/215 216/216/216
v 0.0260000 0.0450333 0.1400000
vn 0.2529149 0.9438912 0.2123755
v 0.0000000 0.0520000 0.1400000
vn 0.2529149 0.9438912 0.2123755
v 0.0000000 0.0340000 0.2200000
vn 0.2529149 0.9438912 0.2123755
f 217/217/217 218/218/218 219/219/219
v 0.0260000 0.0450333 0.1400000
vn 0.2529150 0.9438913 0.2123755
v 0.0000000 0.0340000 0.2200000
vn 0.2529150 0.9438913 0.2123755
v 0.0170000 0.0294449 0.2200000
vn 0.2529150 0.9438913 0.2123755
f 220/220/220 221/221/221 222/222/222
v 0.0000000 0.0520000 0.1400000
vn -0.2529149 0.9438912 0.2123755
v -0.0260000 0.0450333 0.1400000
vn -0.2529149 0.9438912 0.2123755
v -0.0170000 0.0294449 0.2200000
vn -0.2529149 0.9438912 0.2123755
f 223/223/223 224/224/224 225/225/225
v 0.0000000 0.0520000 0.1400000
vn -0.2529150 0.9438913 0.2123755
v -0.0170000 0.0294449 0.2200000
vn -0.2529150 0.9438913 0.2123755
v 0.0000000 0.0340000 0.2200000
vn -0.2529150 0.9438913 0.2123755
f 226/226/226 227/227/227 228/228/228
v -0.0260000 0.0450333 0.1400000
vn -0.6909763 0.6909763 0.2123755
v -0.0450333 0.0260000 0.1400000
vn -0.6909763 0.6909763 0.2123755
v -0.0294449 0.0170000 0.2200000
vn -0.6909763 0.6909763 0.2123755
f 229/229/229 230/230/230 231/231/231
v -0.0260000 0.0450333 0.1400000
vn -0.6909764 0.6909764 0.2123755
v -0.0294449 0.0170000 0.2200000
vn -0.6909764 0.6909764 0.2123755
v -0.0170000 0.0294449 0.2200000
vn -0.6909764 0.6909764 0.2123755
f 232/232/232 233/233/233 234/234/234
v -0.0450333 0.0260000 0.1400000
vn -0.9438912 0.2529149 0.2123755
v -0.0520000 0.0000000 0.1400000
vn -0.9438912 0.2529149 0.2123755
v -0.0340000 0.0000000 0.2200000
vn -0.9438912 0.2529149 0.2123755
f 235/235/235 236/236/236 237/237/237
v -0.0450333 0.0260000 0.1400000
vn -0.9438913 0.2529150 0.2123755
v -0.0340000 0.0000000 0.2200000
vn -0.9438913 0.2529150 0.2123755
v -0.0294449 0.0170000 0.2200000
vn -0.9438913 0.2529150 0.2123755
f 238/238/238 239/239/239 240/240/240
v -0.0520000 0.0000000 0.1400000
vn -0.9438912 -0.2529149 0.2123755
v -0.0450333 -0.0260000 0.1400000
vn -0.9438912 -0.2529149 0.2123755
v -0.0294449 -0.0170000 0.2200000
vn -0.9438912 -0.2529149 0.2123755
f 241/241/241 242/242/242 243/243/243
v -0.0520000 0.0000000 0.1400000
vn -0.9438913 -0.2529150 0.2123755
v -0.0294449 -0.0170000 0.2200000
vn -0.9438913 -0.2529150 0.2123755
v -0.0340000 0.0000000 0.2200000
vn -0.9438913 -0.2529150 0.2123755
f 244/244/244 245/245/245 246/246/246
v -0.0450333 -0.0260000 0.1400000
vn -0.6909763 -0.6909763 0.2123755
v -0.0260000 -0.0450333 0.1400000
vn -0.6909763 -0.6909763 0.2123755
v -0.0170000 -0.0294449 0.2200000
vn -0.6909763 -0.6909763 0.2123755
f 247/247/247 248/248/248 249/249/249
v -0.0450333 -0.0260000 0.1400000
vn -0.6909764 -0.6909764 0.2123755
v -0.0170000 -0.0294449 0.2200000
vn -0.6909764 -0.6909764 0.2123755
v -0.0294449 -0.0170000 0.2200000
vn -0.6909764 -0.6909764 0.2123755
f 250/250/250 251/251/251 252/252/252
v -0.0260000 -0.0450333 0.1400000
vn -0.2529149 -0.9438912 0.2123755
v -0.0000000 -0.0520000 0.1400000
vn -0.2529149 -0.9438912 0.2123755
v -0.0000000 -0.0340000 0.2200000
vn -0.2529149 -0.9438912 0.2123755
f 253/253/253 254/254/254 255/255/255
v -0.0260000 -0.0450333 0.1400000
vn -0.2529150 -0.9438913 0.2123755
v -0.0000000 -0.0340000 0.2200000
vn -0.2529150 -0.9438913 0.2123755
v -0.0170000 -0.0294449 0.2200000
vn -0.2529150 -0.9438913 0.2123755
f 256/256/256 257/257/257 258/258/258
v -0.0000000 -0.0520000 0.1400000
vn 0.2529149 -0.9438912 0.2123755
v 0.0260000 -0.0450333 0.1400000
vn 0.2529149 -0.9438912 0.2123755
v 0.0170000 -0.0294449 0.2200000
vn 0.2529149 -0.9438912 0.2123755
f 259/259/259 260/260/260 261/261/261
v -0.0000000 -0.0520000 0.1400000
vn 0.2529150 -0.9438913 0.2123755
v 0.0170000 -0.0294449 0.2200000
vn 0.2529150 -0.9438913 0.2123755
v -0.0000000 -0.0340000 0.2200000
vn 0.2529150 -0.9438913 0.2123755
f 262/262/262 263/263/263 264/264/264
v 0.0260000 -0.0450333 0.1400000
vn 0.6909763 -0.6909763 0.2123755
v 0.0450333 -0.0260000 0.1400000
vn 0.6909763 -0.6909763 0.2123755
v 0.0294449 -0.0170000 0.2200000
vn 0.6909763 -0.6909763 0.2123755
f 265/265/265 266/266/266 267/267/267
v 0.0260000 -0.0450333 0.1400000
vn 0.6909764 -0.6909764 0.2123755
v 0.0294449 -0.0170000 0.2200000
vn 0.6909764 -0.6909764 0.2123755
v 0.0170000 -0.0294449 0.2200000
vn 0.6909764 -0.6909764 0.2123755
f 268/268/268 269/269/269 270/270/270
v 0.0450333 -0.0260000 0.1400000
vn 0.9438912 -0.2529149 0.2123755
v 0.0520000 0.0000000 0.1400000
vn 0.9438912 -0.2529149 0.2123755
v 0.0340000 0.0000000 0.2200000
vn 0.9438912 -0.2529149 0.2123755
f 271/271/271 272/272/272 273/273/273
v 0.0450333 -0.0260000 0.1400000
vn 0.9438913 -0.2529150 0.2123755
v 0.0340000 0.0000000 0.2200000
vn 0.9438913 -0.2529150 0.2123755
v 0.0294449 -0.0170000 0.2200000
vn 0.9438913 -0.2529150 0.2123755
f 274/274/274 275/275/275 276/276/276
v 0.0340000 0.0000000 0.2200000
vn 0.9659181 0.2588170 0.0039877
v 0.0294449 0.0170000 0.2200000
vn 0.9659181 0.2588170 0.0039877
v 0.0216506 0.0125000 2.4000001
vn 0.9659181 0.2588170 0.0039877
f 277/277/277 278/278/278 279/279/279
v 0.0340000 0.0000000 0.2200000
vn 0.9659181 0.2588170 0.0039877
v 0.0216506 0.0125000 2.4000001
vn 0.9659181 0.2588170 0.0039877
v 0.0250000 0.0000000 2.4000001
vn 0.9659181 0.2588170 0.0039877
f 280/280/280 281/281/281 282/282/282
v 0.0294449 0.0170000 0.2200000
vn 0.7071012 0.7071012 0.0039877
v 0.0170000 0.0294449 0.2200000
vn 0.7071012 0.7071012 0.0039877
v 0.0125000 0.0216506 2.4000001
vn 0.7071012 0.7071012 0.0039877
f 283/283/283 284/284/284 285/285/285
v 0.0294449 0.0170000 0.2200000
vn 0.7071012 0.7071012 0.0039877
v 0.0125000 0.0216506 2.4000001
vn 0.7071012 0.7071012 0.0039877
v 0.0216506 0.0125000 2.4000001
vn 0.7071012 0.7071012 0.0039877
f 286/286/286 287/287/287 288/288/288
v 0.0170000 0.0294449 0.2200000
vn 0.2588170 0.9659181 0.0039877
v 0.0000000 0.0340000 0.2200000
vn 0.2588170 0.9659181 0.0039877
v 0.0000000 0.0250000 2.4000001
vn 0.2588170 0.9659181 0.0039877
f 289/289/289 290/290/290 291/291/291
v 0.0170000 0.0294449 0.2200000
vn 0.2588170 0.9659181 0.0039877
v 0.0000000 0.0250000 2.4000001
vn 0.2588170 0.9659181 0.0039877
v 0.0125000 0.0216506 2.4000001
vn 0.2588170 0.9659181 0.0039877
f 292/292/292 293/293/293 294/294/294
v 0.0000000 0.0340000 0.2200000
vn -0.2588170 0.9659181 0.0039877
v -0.0170000 0.0294449 0.2200000
vn -0.2588170 0.9659181 0.0039877
v -0.0125000 0.0216506 2.4000001
vn -0.2588170 0.9659181 0.0039877
f 295/295/295 296/296/296 297/297/297
v 0.0000000 0.0340000 0.2200000
vn -0.2588170 0.9659181 0.0039877
v -0.0125000 0.0216506 2.4000001
vn -0.2588170 0.9659181 0.0039877
v 0.0000000 0.0250000 2.4000001
vn -0.2588170 0.9659181 0.0039877
f 298/298/298 299/299/299 300/300/300
v -0.0170000 0.0294449 0.2200000
vn -0.7071012 0.7071012 0.0039877
v -0.0294449 0.0170000 0.2200000
vn -0.7071012 0.7071012 0.0039877
v -0.0216506 0.0125000 2.4000001
vn -0.7071012 0.7071012 0.0039877
f 301/301/301 302/302/302 303/303/303
v -0.0170000 0.0294449 0.2200000
vn -0.7071012 0.7071012 0.0039877
v -0.0216506 0.0125000 2.4000001
vn -0.7071012 0.7071012 0.0039877
v -0.0125000 0.0216506 2.4000001
vn -0.7071012 0.7071012 0.0039877
f 304/304/304 305/305/305 306/306/306
v -0.0294449 0.0170000 0.2200000
vn -0.9659181 0.2588170 0.0039877
v -0.0340000 0.0000000 0.2200000
vn -0.9659181 0.2588170 0.0039877
v -0.0250000 0.0000000 2.4000001
vn -0.9659181 0.2588170 0.0039877
f 307/307/307 308/308/308 309/309/309
v -0.0294449 0.0170000 0.2200000
vn -0.9659181 0.2588170 0.0039877
v -0.0250000 0.0000000 2.4000001
vn -0.9659181 0.2588170 0.0039877
v -0.0216506 0.0125000 2.4000001
vn -0.9659181 0.2588170 0.0039877
f 310/310/310 311/311/311 312/312/312
v -0.0340000 0.0000000 0.2200000
vn -0.9659181 -0.2588170 0.0039877
v -0.0294449 -0.0170000 0.2200000
vn -0.9659181 -0.2588170 0.0039877
v -0.0216506 -0.0125000 2.4000001
vn -0.9659181 -0.2588170 0.0039877
f 313/313/313 314/314/314 315/315/315
v -0.0340000 0.0000000 0.2200000
vn -0.9659181 -0.2588170 0.0039877
v -0.0216506 -0.0125000 2.4000001
vn -0.9659181 -0.2588170 0.0039877
v -0.0250000 0.0000000 2.4000001
vn -0.9659181 -0.2588170 0.0039877
f 316/316/316 317/317/317 318/318/318
v -0.0294449 -0.0170000 0.2200000
vn -0.7071012 -0.7071012 0.0039877
v -0.0170000 -0.0294449 0.2200000
vn -0.7071012 -0.7071012 0.0039877
v -0.0125000 -0.0216506 2.4000001
vn -0.7071012 -0.7071012 0.0039877
f 319/319/319 320/320/320 321/321/321
v -0.0294449 -0.0170000 0.2200000
vn -0.7071012 -0.7071012 0.0039877
v -0.0125000 -0.0216506 2.4000001
vn -0.7071012 -0.7071012 0.0039877
v -0.0216506 -0.0125000 2.4000001
vn -0.7071012 -0.7071012 0.0039877
f 322/322/322 323/323/323 324/324/324
v -0.0170000 -0.0294449 0.2200000
vn -0.2588170 -0.9659181 0.0039877
v -0.0000000 -0.0340000 0.2200000
vn -0.2588170 -0.9659181 0.0039877
v -0.0000000 -0.0250000 2.4000001
vn -0.2588170 -0.9659181 0.0039877
f 325/325/325 326/326/326 327/327/327
v -0.0170000 -0.0294449 0.2200000
vn -0.2588170 -0.9659181 0.0039877
v -0.0000000 -0.0250000 2.4000001
vn -0.2588170 -0.9659181 0.0039877
v -0.0125000 -0.0216506 2.4000001
vn -0.2588170 -0.9659181 0.0039877
f 328/328/328 329/329/329 330/330/330
v -0.0000000 -0.0340000 0.2200000
vn 0.2588170 -0.9659181 0.0039877
v 0.0170000 -0.0294449 0.2200000
vn 0.2588170 -0.9659181 0.0039877
v 0.0125000 -0.0216506 2.4000001
vn 0.2588170 -0.9659181 0.0039877
f 331/331/331 332/332/332 333/333/333
v -0.0000000 -0.0340000 0.2200000
vn 0.2588170 -0.9659181 0.0039877
v 0.0125000 -0.0216506 2.4000001
vn 0.2588170 -0.9659181 0.0039877
v -0.0000000 -0.0250000 2.4000001
vn 0.2588170 -0.9659181 0.0039877
f 334/334/334 335/335/335 336/336/336
v 0.0170000 -0.0294449 0.2200000
vn 0.7071012 -0.7071012 0.0039877
v 0.0294449 -0.0170000 0.2200000
vn 0.7071012 -0.7071012 0.0039877
v 0.0216506 -0.0125000 2.4000001
vn 0.7071012 -0.7071012 0.0039877
f 337/337/337 338/338/338 339/339/339
v 0.0170000 -0.0294449 0.2200000
vn 0.7071012 -0.7071012 0.0039877
v 0.0216506 -0.0125000 2.4000001
vn 0.7071012 -0.7071012 0.0039877
v 0.0125000 -0.0216506 2.4000001
vn 0.7071012 -0.7071012 0.0039877
f 340/340/340 341/341/341 342/342/342
v 0.0294449 -0.0170000 0.2200000
vn 0.9659181 -0.2588170 0.0039877
v 0.0340000 0.0000000 0.2200000
vn 0.9659181 -0.2588170 0.0039877
v 0.0250000 0.0000000 2.4000001
vn 0.9659181 -0.2588170 0.0039877
f 343/343/343 344/344/344 345/345/345
v 0.0294449 -0.0170000 0.2200000
vn 0.9659181 -0.2588170 0.0039877
v 0.0250000 0.0000000 2.4000001
vn 0.9659181 -0.2588170 0.0039877
v 0.0216506 -0.0125000 2.4000001
vn 0.9659181 -0.2588170 0.0039877
f 346/346/346 347/347/347 348/348/348
o pz_street_pole_03_|_curved_native_lantern_glass
usemtl glass
v 0.0400000 0.0000000 2.4000001
vn 0.0000000 0.0000000 -1.0000000
v 0.0346410 -0.0200000 2.4000001
vn 0.0000000 0.0000000 -1.0000000
v 0.0200000 -0.0346410 2.4000001
vn 0.0000000 0.0000000 -1.0000000
f 349/349/349 350/350/350 351/351/351
v 0.0200000 -0.0346410 2.4000001
vn 0.0000000 0.0000000 -1.0000000
v -0.0000000 -0.0400000 2.4000001
vn 0.0000000 0.0000000 -1.0000000
v -0.0200000 -0.0346410 2.4000001
vn 0.0000000 0.0000000 -1.0000000
f 352/352/352 353/353/353 354/354/354
v -0.0200000 -0.0346410 2.4000001
vn 0.0000000 0.0000000 -1.0000000
v -0.0346410 -0.0200000 2.4000001
vn 0.0000000 0.0000000 -1.0000000
v -0.0400000 0.0000000 2.4000001
vn 0.0000000 0.0000000 -1.0000000
f 355/355/355 356/356/356 357/357/357
v -0.0400000 0.0000000 2.4000001
vn 0.0000000 0.0000000 -1.0000000
v -0.0346410 0.0200000 2.4000001
vn 0.0000000 0.0000000 -1.0000000
v -0.0200000 0.0346410 2.4000001
vn 0.0000000 0.0000000 -1.0000000
f 358/358/358 359/359/359 360/360/360
v -0.0200000 0.0346410 2.4000001
vn -0.0000000 0.0000000 -1.0000000
v 0.0000000 0.0400000 2.4000001
vn -0.0000000 0.0000000 -1.0000000
v 0.0200000 0.0346410 2.4000001
vn -0.0000000 0.0000000 -1.0000000
f 361/361/361 362/362/362 363/363/363
v 0.0200000 0.0346410 2.4000001
vn 0.0000000 0.0000000 -1.0000000
v 0.0346410 0.0200000 2.4000001
vn 0.0000000 0.0000000 -1.0000000
v 0.0400000 0.0000000 2.4000001
vn 0.0000000 0.0000000 -1.0000000
f 364/364/364 365/365/365 366/366/366
v 0.0400000 0.0000000 2.4000001
vn 0.0000000 0.0000000 -1.0000000
v 0.0200000 -0.0346410 2.4000001
vn 0.0000000 0.0000000 -1.0000000
v -0.0200000 -0.0346410 2.4000001
vn 0.0000000 0.0000000 -1.0000000
f 367/367/367 368/368/368 369/369/369
v -0.0200000 -0.0346410 2.4000001
vn 0.0000000 -0.0000000 -1.0000000
v -0.0400000 0.0000000 2.4000001
vn 0.0000000 -0.0000000 -1.0000000
v -0.0200000 0.0346410 2.4000001
vn 0.0000000 -0.0000000 -1.0000000
f 370/370/370 371/371/371 372/372/372
v -0.0200000 0.0346410 2.4000001
vn 0.0000000 0.0000000 -1.0000000
v 0.0200000 0.0346410 2.4000001
vn 0.0000000 0.0000000 -1.0000000
v 0.0400000 0.0000000 2.4000001
vn 0.0000000 0.0000000 -1.0000000
f 373/373/373 374/374/374 375/375/375
v -0.0200000 -0.0346410 2.4000001
vn -0.0000000 -0.0000000 -1.0000000
v -0.0200000 0.0346410 2.4000001
vn -0.0000000 -0.0000000 -1.0000000
v 0.0400000 0.0000000 2.4000001
vn -0.0000000 -0.0000000 -1.0000000
f 376/376/376 377/377/377 378/378/378
v 0.0519615 -0.0300000 2.5999999
vn 0.0000000 0.0000000 1.0000000
v 0.0600000 0.0000000 2.5999999
vn 0.0000000 0.0000000 1.0000000
v 0.0519615 0.0300000 2.5999999
vn 0.0000000 0.0000000 1.0000000
f 379/379/379 380/380/380 381/381/381
v 0.0519615 0.0300000 2.5999999
vn 0.0000000 0.0000000 1.0000000
v 0.0300000 0.0519615 2.5999999
vn 0.0000000 0.0000000 1.0000000
v 0.0000000 0.0600000 2.5999999
vn 0.0000000 0.0000000 1.0000000
f 382/382/382 383/383/383 384/384/384
v 0.0000000 0.0600000 2.5999999
vn 0.0000000 0.0000000 1.0000000
v -0.0300000 0.0519615 2.5999999
vn 0.0000000 0.0000000 1.0000000
v -0.0519615 0.0300000 2.5999999
vn 0.0000000 0.0000000 1.0000000
f 385/385/385 386/386/386 387/387/387
v -0.0519615 0.0300000 2.5999999
vn 0.0000000 -0.0000000 1.0000000
v -0.0600000 0.0000000 2.5999999
vn 0.0000000 -0.0000000 1.0000000
v -0.0519615 -0.0300000 2.5999999
vn 0.0000000 -0.0000000 1.0000000
f 388/388/388 389/389/389 390/390/390
v -0.0519615 -0.0300000 2.5999999
vn 0.0000000 0.0000000 1.0000000
v -0.0300000 -0.0519615 2.5999999
vn 0.0000000 0.0000000 1.0000000
v -0.0000000 -0.0600000 2.5999999
vn 0.0000000 0.0000000 1.0000000
f 391/391/391 392/392/392 393/393/393
v -0.0000000 -0.0600000 2.5999999
vn 0.0000000 0.0000000 1.0000000
v 0.0300000 -0.0519615 2.5999999
vn 0.0000000 0.0000000 1.0000000
v 0.0519615 -0.0300000 2.5999999
vn 0.0000000 0.0000000 1.0000000
f 394/394/394 395/395/395 396/396/396
v 0.0519615 -0.0300000 2.5999999
vn 0.0000000 0.0000000 1.0000000
v 0.0519615 0.0300000 2.5999999
vn 0.0000000 0.0000000 1.0000000
v 0.0000000 0.0600000 2.5999999
vn 0.0000000 0.0000000 1.0000000
f 397/397/397 398/398/398 399/399/399
v 0.0000000 0.0600000 2.5999999
vn 0.0000000 0.0000000 1.0000000
v -0.0519615 0.0300000 2.5999999
vn 0.0000000 0.0000000 1.0000000
v -0.0519615 -0.0300000 2.5999999
vn 0.0000000 0.0000000 1.0000000
f 400/400/400 401/401/401 402/402/402
v -0.0519615 -0.0300000 2.5999999
vn 0.0000000 0.0000000 1.0000000
v -0.0000000 -0.0600000 2.5999999
vn 0.0000000 0.0000000 1.0000000
v 0.0519615 -0.0300000 2.5999999
vn 0.0000000 0.0000000 1.0000000
f 403/403/403 404/404/404 405/405/405
v 0.0000000 0.0600000 2.5999999
vn 0.0000000 -0.0000000 0.9999999
v -0.0519615 -0.0300000 2.5999999
vn 0.0000000 -0.0000000 0.9999999
v 0.0519615 -0.0300000 2.5999999
vn 0.0000000 -0.0000000 0.9999999
f 406/406/406 407/407/407 408/408/408
v 0.0400000 0.0000000 2.4000001
vn 0.9297333 0.2491212 -0.2711725
v 0.0346410 0.0200000 2.4000001
vn 0.9297333 0.2491212 -0.2711725
v 0.0649519 0.0375000 2.5200000
vn 0.9297333 0.2491212 -0.2711725
f 409/409/409 410/410/410 411/411/411
v 0.0400000 0.0000000 2.4000001
vn 0.9297333 0.2491214 -0.2711725
v 0.0649519 0.0375000 2.5200000
vn 0.9297333 0.2491214 -0.2711725
v 0.0750000 0.0000000 2.5200000
vn 0.9297333 0.2491214 -0.2711725
f 412/412/412 413/413/413 414/414/414
v 0.0346410 0.0200000 2.4000001
vn 0.6806120 0.6806120 -0.2711725
v 0.0200000 0.0346410 2.4000001
vn 0.6806120 0.6806120 -0.2711725
v 0.0375000 0.0649519 2.5200000
vn 0.6806120 0.6806120 -0.2711725
f 415/415/415 416/416/416 417/417/417
v 0.0346410 0.0200000 2.4000001
vn 0.6806120 0.6806120 -0.2711725
v 0.0375000 0.0649519 2.5200000
vn 0.6806120 0.6806120 -0.2711725
v 0.0649519 0.0375000 2.5200000
vn 0.6806120 0.6806120 -0.2711725
f 418/418/418 419/419/419 420/420/420
v 0.0200000 0.0346410 2.4000001
vn 0.2491212 0.9297333 -0.2711725
v 0.0000000 0.0400000 2.4000001
vn 0.2491212 0.9297333 -0.2711725
v 0.0000000 0.0750000 2.5200000
vn 0.2491212 0.9297333 -0.2711725
f 421/421/421 422/422/422 423/423/423
v 0.0200000 0.0346410 2.4000001
vn 0.2491214 0.9297333 -0.2711725
v 0.0000000 0.0750000 2.5200000
vn 0.2491214 0.9297333 -0.2711725
v 0.0375000 0.0649519 2.5200000
vn 0.2491214 0.9297333 -0.2711725
f 424/424/424 425/425/425 426/426/426
v 0.0000000 0.0400000 2.4000001
vn -0.2491212 0.9297333 -0.2711725
v -0.0200000 0.0346410 2.4000001
vn -0.2491212 0.9297333 -0.2711725
v -0.0375000 0.0649519 2.5200000
vn -0.2491212 0.9297333 -0.2711725
f 427/427/427 428/428/428 429/429/429
v 0.0000000 0.0400000 2.4000001
vn -0.2491214 0.9297333 -0.2711725
v -0.0375000 0.0649519 2.5200000
vn -0.2491214 0.9297333 -0.2711725
v 0.0000000 0.0750000 2.5200000
vn -0.2491214 0.9297333 -0.2711725
f 430/430/430 431/431/431 432/432/432
v -0.0200000 0.0346410 2.4000001
vn -0.6806120 0.6806120 -0.2711725
v -0.0346410 0.0200000 2.4000001
vn -0.6806120 0.6806120 -0.2711725
v -0.0649519 0.0375000 2.5200000
vn -0.6806120 0.6806120 -0.2711725
f 433/433/433 434/434/434 435/435/435
v -0.0200000 0.0346410 2.4000001
vn -0.6806120 0.6806120 -0.2711725
v -0.0649519 0.0375000 2.5200000
vn -0.6806120 0.6806120 -0.2711725
v -0.0375000 0.0649519 2.5200000
vn -0.6806120 0.6806120 -0.2711725
f 436/436/436 437/437/437 438/438/438
v -0.0346410 0.0200000 2.4000001
vn -0.9297333 0.2491212 -0.2711725
v -0.0400000 0.0000000 2.4000001
vn -0.9297333 0.2491212 -0.2711725
v -0.0750000 0.0000000 2.5200000
vn -0.9297333 0.2491212 -0.2711725
f 439/439/439 440/440/440 441/441/441
v -0.0346410 0.0200000 2.4000001
vn -0.9297333 0.2491214 -0.2711725
v -0.0750000 0.0000000 2.5200000
vn -0.9297333 0.2491214 -0.2711725
v -0.0649519 0.0375000 2.5200000
vn -0.9297333 0.2491214 -0.2711725
f 442/442/442 443/443/443 444/444/444
v -0.0400000 0.0000000 2.4000001
vn -0.9297333 -0.2491212 -0.2711725
v -0.0346410 -0.0200000 2.4000001
vn -0.9297333 -0.2491212 -0.2711725
v -0.0649519 -0.0375000 2.5200000
vn -0.9297333 -0.2491212 -0.2711725
f 445/445/445 446/446/446 447/447/447
v -0.0400000 0.0000000 2.4000001
vn -0.9297333 -0.2491214 -0.2711725
v -0.0649519 -0.0375000 2.5200000
vn -0.9297333 -0.2491214 -0.2711725
v -0.0750000 0.0000000 2.5200000
vn -0.9297333 -0.2491214 -0.2711725
f 448/448/448 449/449/449 450/450/450
v -0.0346410 -0.0200000 2.4000001
vn -0.6806120 -0.6806120 -0.2711725
v -0.0200000 -0.0346410 2.4000001
vn -0.6806120 -0.6806120 -0.2711725
v -0.0375000 -0.0649519 2.5200000
vn -0.6806120 -0.6806120 -0.2711725
f 451/451/451 452/452/452 453/453/453
v -0.0346410 -0.0200000 2.4000001
vn -0.6806120 -0.6806120 -0.2711725
v -0.0375000 -0.0649519 2.5200000
vn -0.6806120 -0.6806120 -0.2711725
v -0.0649519 -0.0375000 2.5200000
vn -0.6806120 -0.6806120 -0.2711725
f 454/454/454 455/455/455 456/456/456
v -0.0200000 -0.0346410 2.4000001
vn -0.2491212 -0.9297333 -0.2711725
v -0.0000000 -0.0400000 2.4000001
vn -0.2491212 -0.9297333 -0.2711725
v -0.0000000 -0.0750000 2.5200000
vn -0.2491212 -0.9297333 -0.2711725
f 457/457/457 458/458/458 459/459/459
v -0.0200000 -0.0346410 2.4000001
vn -0.2491214 -0.9297333 -0.2711725
v -0.0000000 -0.0750000 2.5200000
vn -0.2491214 -0.9297333 -0.2711725
v -0.0375000 -0.0649519 2.5200000
vn -0.2491214 -0.9297333 -0.2711725
f 460/460/460 461/461/461 462/462/462
v -0.0000000 -0.0400000 2.4000001
vn 0.2491212 -0.9297333 -0.2711725
v 0.0200000 -0.0346410 2.4000001
vn 0.2491212 -0.9297333 -0.2711725
v 0.0375000 -0.0649519 2.5200000
vn 0.2491212 -0.9297333 -0.2711725
f 463/463/463 464/464/464 465/465/465
v -0.0000000 -0.0400000 2.4000001
vn 0.2491214 -0.9297333 -0.2711725
v 0.0375000 -0.0649519 2.5200000
vn 0.2491214 -0.9297333 -0.2711725
v -0.0000000 -0.0750000 2.5200000
vn 0.2491214 -0.9297333 -0.2711725
f 466/466/466 467/467/467 468/468/468
v 0.0200000 -0.0346410 2.4000001
vn 0.6806120 -0.6806120 -0.2711725
v 0.0346410 -0.0200000 2.4000001
vn 0.6806120 -0.6806120 -0.2711725
v 0.0649519 -0.0375000 2.5200000
vn 0.6806120 -0.6806120 -0.2711725
f 469/469/469 470/470/470 471/471/471
v 0.0200000 -0.0346410 2.4000001
vn 0.6806120 -0.6806120 -0.2711725
v 0.0649519 -0.0375000 2.5200000
vn 0.6806120 -0.6806120 -0.2711725
v 0.0375000 -0.0649519 2.5200000
vn 0.6806120 -0.6806120 -0.2711725
f 472/472/472 473/473/473 474/474/474
v 0.0346410 -0.0200000 2.4000001
vn 0.9297333 -0.2491212 -0.2711725
v 0.0400000 0.0000000 2.4000001
vn 0.9297333 -0.2491212 -0.2711725
v 0.0750000 0.0000000 2.5200000
vn 0.9297333 -0.2491212 -0.2711725
f 475/475/475 476/476/476 477/477/477
v 0.0346410 -0.0200000 2.4000001
vn 0.9297333 -0.2491214 -0.2711725
v 0.0750000 0.0000000 2.5200000
vn 0.9297333 -0.2491214 -0.2711725
v 0.0649519 -0.0375000 2.5200000
vn 0.9297333 -0.2491214 -0.2711725
f 478/478/478 479/479/479 480/480/480
v 0.0750000 0.0000000 2.5200000
vn 0.9504634 0.2546760 0.1782121
v 0.0649519 0.0375000 2.5200000
vn 0.9504634 0.2546760 0.1782121
v 0.0519615 0.0300000 2.5999999
vn 0.9504634 0.2546760 0.1782121
f 481/481/481 482/482/482 483/483/483
v 0.0750000 0.0000000 2.5200000
vn 0.9504634 0.2546759 0.1782121
v 0.0519615 0.0300000 2.5999999
vn 0.9504634 0.2546759 0.1782121
v 0.0600000 0.0000000 2.5999999
vn 0.9504634 0.2546759 0.1782121
f 484/484/484 485/485/485 486/486/486
v 0.0649519 0.0375000 2.5200000
vn 0.6957875 0.6957875 0.1782121
v 0.0375000 0.0649519 2.5200000
vn 0.6957875 0.6957875 0.1782121
v 0.0300000 0.0519615 2.5999999
vn 0.6957875 0.6957875 0.1782121
f 487/487/487 488/488/488 489/489/489
v 0.0649519 0.0375000 2.5200000
vn 0.6957874 0.6957874 0.1782121
v 0.0300000 0.0519615 2.5999999
vn 0.6957874 0.6957874 0.1782121
v 0.0519615 0.0300000 2.5999999
vn 0.6957874 0.6957874 0.1782121
f 490/490/490 491/491/491 492/492/492
v 0.0375000 0.0649519 2.5200000
vn 0.2546760 0.9504634 0.1782121
v 0.0000000 0.0750000 2.5200000
vn 0.2546760 0.9504634 0.1782121
v 0.0000000 0.0600000 2.5999999
vn 0.2546760 0.9504634 0.1782121
f 493/493/493 494/494/494 495/495/495
v 0.0375000 0.0649519 2.5200000
vn 0.2546759 0.9504634 0.1782121
v 0.0000000 0.0600000 2.5999999
vn 0.2546759 0.9504634 0.1782121
v 0.0300000 0.0519615 2.5999999
vn 0.2546759 0.9504634 0.1782121
f 496/496/496 497/497/497 498/498/498
v 0.0000000 0.0750000 2.5200000
vn -0.2546760 0.9504634 0.1782121
v -0.0375000 0.0649519 2.5200000
vn -0.2546760 0.9504634 0.1782121
v -0.0300000 0.0519615 2.5999999
vn -0.2546760 0.9504634 0.1782121
f 499/499/499 500/500/500 501/501/501
v 0.0000000 0.0750000 2.5200000
vn -0.2546759 0.9504634 0.1782121
v -0.0300000 0.0519615 2.5999999
vn -0.2546759 0.9504634 0.1782121
v 0.0000000 0.0600000 2.5999999
vn -0.2546759 0.9504634 0.1782121
f 502/502/502 503/503/503 504/504/504
v -0.0375000 0.0649519 2.5200000
vn -0.6957875 0.6957875 0.1782121
v -0.0649519 0.0375000 2.5200000
vn -0.6957875 0.6957875 0.1782121
v -0.0519615 0.0300000 2.5999999
vn -0.6957875 0.6957875 0.1782121
f 505/505/505 506/506/506 507/507/507
v -0.0375000 0.0649519 2.5200000
vn -0.6957874 0.6957874 0.1782121
v -0.0519615 0.0300000 2.5999999
vn -0.6957874 0.6957874 0.1782121
v -0.0300000 0.0519615 2.5999999
vn -0.6957874 0.6957874 0.1782121
f 508/508/508 509/509/509 510/510/510
v -0.0649519 0.0375000 2.5200000
vn -0.9504634 0.2546760 0.1782121
v -0.0750000 0.0000000 2.5200000
vn -0.9504634 0.2546760 0.1782121
v -0.0600000 0.0000000 2.5999999
vn -0.9504634 0.2546760 0.1782121
f 511/511/511 512/512/512 513/513/513
v -0.0649519 0.0375000 2.5200000
vn -0.9504634 0.2546759 0.1782121
v -0.0600000 0.0000000 2.5999999
vn -0.9504634 0.2546759 0.1782121
v -0.0519615 0.0300000 2.5999999
vn -0.9504634 0.2546759 0.1782121
f 514/514/514 515/515/515 516/516/516
v -0.0750000 0.0000000 2.5200000
vn -0.9504634 -0.2546760 0.1782121
v -0.0649519 -0.0375000 2.5200000
vn -0.9504634 -0.2546760 0.1782121
v -0.0519615 -0.0300000 2.5999999
vn -0.9504634 -0.2546760 0.1782121
f 517/517/517 518/518/518 519/519/519
v -0.0750000 0.0000000 2.5200000
vn -0.9504634 -0.2546759 0.1782121
v -0.0519615 -0.0300000 2.5999999
vn -0.9504634 -0.2546759 0.1782121
v -0.0600000 0.0000000 2.5999999
vn -0.9504634 -0.2546759 0.1782121
f 520/520/520 521/521/521 522/522/522
v -0.0649519 -0.0375000 2.5200000
vn -0.6957875 -0.6957875 0.1782121
v -0.0375000 -0.0649519 2.5200000
vn -0.6957875 -0.6957875 0.1782121
v -0.0300000 -0.0519615 2.5999999
vn -0.6957875 -0.6957875 0.1782121
f 523/523/523 524/524/524 525/525/525
v -0.0649519 -0.0375000 2.5200000
vn -0.6957874 -0.6957874 0.1782121
v -0.0300000 -0.0519615 2.5999999
vn -0.6957874 -0.6957874 0.1782121
v -0.0519615 -0.0300000 2.5999999
vn -0.6957874 -0.6957874 0.1782121
f 526/526/526 527/527/527 528/528/528
v -0.0375000 -0.0649519 2.5200000
vn -0.2546760 -0.9504634 0.1782121
v -0.0000000 -0.0750000 2.5200000
vn -0.2546760 -0.9504634 0.1782121
v -0.0000000 -0.0600000 2.5999999
vn -0.2546760 -0.9504634 0.1782121
f 529/529/529 530/530/530 531/531/531
v -0.0375000 -0.0649519 2.5200000
vn -0.2546759 -0.9504634 0.1782121
v -0.0000000 -0.0600000 2.5999999
vn -0.2546759 -0.9504634 0.1782121
v -0.0300000 -0.0519615 2.5999999
vn -0.2546759 -0.9504634 0.1782121
f 532/532/532 533/533/533 534/534/534
v -0.0000000 -0.0750000 2.5200000
vn 0.2546760 -0.9504634 0.1782121
v 0.0375000 -0.0649519 2.5200000
vn 0.2546760 -0.9504634 0.1782121
v 0.0300000 -0.0519615 2.5999999
vn 0.2546760 -0.9504634 0.1782121
f 535/535/535 536/536/536 537/537/537
v -0.0000000 -0.0750000 2.5200000
vn 0.2546759 -0.9504634 0.1782121
v 0.0300000 -0.0519615 2.5999999
vn 0.2546759 -0.9504634 0.1782121
v -0.0000000 -0.0600000 2.5999999
vn 0.2546759 -0.9504634 0.1782121
f 538/538/538 539/539/539 540/540/540
v 0.0375000 -0.0649519 2.5200000
vn 0.6957875 -0.6957875 0.1782121
v 0.0649519 -0.0375000 2.5200000
vn 0.6957875 -0.6957875 0.1782121
v 0.0519615 -0.0300000 2.5999999
vn 0.6957875 -0.6957875 0.1782121
f 541/541/541 542/542/542 543/543/543
v 0.0375000 -0.0649519 2.5200000
vn 0.6957874 -0.6957874 0.1782121
v 0.0519615 -0.0300000 2.5999999
vn 0.6957874 -0.6957874 0.1782121
v 0.0300000 -0.0519615 2.5999999
vn 0.6957874 -0.6957874 0.1782121
f 544/544/544 545/545/545 546/546/546
v 0.0649519 -0.0375000 2.5200000
vn 0.9504634 -0.2546760 0.1782121
v 0.0750000 0.0000000 2.5200000
vn 0.9504634 -0.2546760 0.1782121
v 0.0600000 0.0000000 2.5999999
vn 0.9504634 -0.2546760 0.1782121
f 547/547/547 548/548/548 549/549/549
v 0.0649519 -0.0375000 2.5200000
vn 0.9504634 -0.2546759 0.1782121
v 0.0600000 0.0000000 2.5999999
vn 0.9504634 -0.2546759 0.1782121
v 0.0519615 -0.0300000 2.5999999
vn 0.9504634 -0.2546759 0.1782121
f 550/550/550 551/551/551 552/552/552
o pz_street_pole_03_|_lantern_cap
usemtl metal
v 0.0670000 0.0000000 2.5999999
vn 0.0000000 0.0000000 -1.0000000
v 0.0580237 -0.0335000 2.5999999
vn 0.0000000 0.0000000 -1.0000000
v 0.0335000 -0.0580237 2.5999999
vn 0.0000000 0.0000000 -1.0000000
f 553/553/553 554/554/554 555/555/555
v 0.0335000 -0.0580237 2.5999999
vn 0.0000000 0.0000000 -1.0000000
v -0.0000000 -0.0670000 2.5999999
vn 0.0000000 0.0000000 -1.0000000
v -0.0335000 -0.0580237 2.5999999
vn 0.0000000 0.0000000 -1.0000000
f 556/556/556 557/557/557 558/558/558
v -0.0335000 -0.0580237 2.5999999
vn 0.0000000 0.0000000 -1.0000000
v -0.0580237 -0.0335000 2.5999999
vn 0.0000000 0.0000000 -1.0000000
v -0.0670000 0.0000000 2.5999999
vn 0.0000000 0.0000000 -1.0000000
f 559/559/559 560/560/560 561/561/561
v -0.0670000 0.0000000 2.5999999
vn 0.0000000 0.0000000 -1.0000000
v -0.0580237 0.0335000 2.5999999
vn 0.0000000 0.0000000 -1.0000000
v -0.0335000 0.0580237 2.5999999
vn 0.0000000 0.0000000 -1.0000000
f 562/562/562 563/563/563 564/564/564
v -0.0335000 0.0580237 2.5999999
vn -0.0000000 0.0000000 -1.0000000
v 0.0000000 0.0670000 2.5999999
vn -0.0000000 0.0000000 -1.0000000
v 0.0335000 0.0580237 2.5999999
vn -0.0000000 0.0000000 -1.0000000
f 565/565/565 566/566/566 567/567/567
v 0.0335000 0.0580237 2.5999999
vn 0.0000000 0.0000000 -1.0000000
v 0.0580237 0.0335000 2.5999999
vn 0.0000000 0.0000000 -1.0000000
v 0.0670000 0.0000000 2.5999999
vn 0.0000000 0.0000000 -1.0000000
f 568/568/568 569/569/569 570/570/570
v 0.0670000 0.0000000 2.5999999
vn 0.0000000 0.0000000 -0.9999999
v 0.0335000 -0.0580237 2.5999999
vn 0.0000000 0.0000000 -0.9999999
v -0.0335000 -0.0580237 2.5999999
vn 0.0000000 0.0000000 -0.9999999
f 571/571/571 572/572/572 573/573/573
v -0.0335000 -0.0580237 2.5999999
vn 0.0000000 -0.0000000 -0.9999999
v -0.0670000 0.0000000 2.5999999
vn 0.0000000 -0.0000000 -0.9999999
v -0.0335000 0.0580237 2.5999999
vn 0.0000000 -0.0000000 -0.9999999
f 574/574/574 575/575/575 576/576/576
v -0.0335000 0.0580237 2.5999999
vn 0.0000000 0.0000000 -0.9999999
v 0.0335000 0.0580237 2.5999999
vn 0.0000000 0.0000000 -0.9999999
v 0.0670000 0.0000000 2.5999999
vn 0.0000000 0.0000000 -0.9999999
f 577/577/577 578/578/578 579/579/579
v -0.0335000 -0.0580237 2.5999999
vn -0.0000000 -0.0000000 -1.0000000
v -0.0335000 0.0580237 2.5999999
vn -0.0000000 -0.0000000 -1.0000000
v 0.0670000 0.0000000 2.5999999
vn -0.0000000 -0.0000000 -1.0000000
f 580/580/580 581/581/581 582/582/582
v 0.0103923 -0.0060000 2.7000000
vn 0.0000000 0.0000000 1.0000000
v 0.0120000 0.0000000 2.7000000
vn 0.0000000 0.0000000 1.0000000
v 0.0103923 0.0060000 2.7000000
vn 0.0000000 0.0000000 1.0000000
f 583/583/583 584/584/584 585/585/585
v 0.0103923 0.0060000 2.7000000
vn 0.0000000 0.0000000 1.0000000
v 0.0060000 0.0103923 2.7000000
vn 0.0000000 0.0000000 1.0000000
v 0.0000000 0.0120000 2.7000000
vn 0.0000000 0.0000000 1.0000000
f 586/586/586 587/587/587 588/588/588
v 0.0000000 0.0120000 2.7000000
vn 0.0000000 0.0000000 1.0000000
v -0.0060000 0.0103923 2.7000000
vn 0.0000000 0.0000000 1.0000000
v -0.0103923 0.0060000 2.7000000
vn 0.0000000 0.0000000 1.0000000
f 589/589/589 590/590/590 591/591/591
v -0.0103923 0.0060000 2.7000000
vn 0.0000000 -0.0000000 1.0000000
v -0.0120000 0.0000000 2.7000000
vn 0.0000000 -0.0000000 1.0000000
v -0.0103923 -0.0060000 2.7000000
vn 0.0000000 -0.0000000 1.0000000
f 592/592/592 593/593/593 594/594/594
v -0.0103923 -0.0060000 2.7000000
vn 0.0000000 0.0000000 1.0000000
v -0.0060000 -0.0103923 2.7000000
vn 0.0000000 0.0000000 1.0000000
v -0.0000000 -0.0120000 2.7000000
vn 0.0000000 0.0000000 1.0000000
f 595/595/595 596/596/596 597/597/597
v -0.0000000 -0.0120000 2.7000000
vn 0.0000000 0.0000000 1.0000000
v 0.0060000 -0.0103923 2.7000000
vn 0.0000000 0.0000000 1.0000000
v 0.0103923 -0.0060000 2.7000000
vn 0.0000000 0.0000000 1.0000000
f 598/598/598 599/599/599 600/600/600
v 0.0103923 -0.0060000 2.7000000
vn 0.0000000 0.0000000 1.0000000
v 0.0103923 0.0060000 2.7000000
vn 0.0000000 0.0000000 1.0000000
v 0.0000000 0.0120000 2.7000000
vn 0.0000000 0.0000000 1.0000000
f 601/601/601 602/602/602 603/603/603
v 0.0000000 0.0120000 2.7000000
vn 0.0000000 0.0000000 1.0000000
v -0.0103923 0.0060000 2.7000000
vn 0.0000000 0.0000000 1.0000000
v -0.0103923 -0.0060000 2.7000000
vn 0.0000000 0.0000000 1.0000000
f 604/604/604 605/605/605 606/606/606
v -0.0103923 -0.0060000 2.7000000
vn 0.0000000 0.0000000 1.0000000
v -0.0000000 -0.0120000 2.7000000
vn 0.0000000 0.0000000 1.0000000
v 0.0103923 -0.0060000 2.7000000
vn 0.0000000 0.0000000 1.0000000
f 607/607/607 608/608/608 609/609/609
v 0.0000000 0.0120000 2.7000000
vn 0.0000000 -0.0000000 1.0000000
v -0.0103923 -0.0060000 2.7000000
vn 0.0000000 -0.0000000 1.0000000
v 0.0103923 -0.0060000 2.7000000
vn 0.0000000 -0.0000000 1.0000000
f 610/610/610 611/611/611 612/612/612
v 0.0670000 0.0000000 2.5999999
vn 0.8836159 0.2367642 0.4039377
v 0.0580237 0.0335000 2.5999999
vn 0.8836159 0.2367642 0.4039377
v 0.0303109 0.0175000 2.6700001
vn 0.8836159 0.2367642 0.4039377
f 613/613/613 614/614/614 615/615/615
v 0.0670000 0.0000000 2.5999999
vn 0.8836159 0.2367641 0.4039377
v 0.0303109 0.0175000 2.6700001
vn 0.8836159 0.2367641 0.4039377
v 0.0350000 0.0000000 2.6700001
vn 0.8836159 0.2367641 0.4039377
f 616/616/616 617/617/617 618/618/618
v 0.0580237 0.0335000 2.5999999
vn 0.6468517 0.6468517 0.4039377
v 0.0335000 0.0580237 2.5999999
vn 0.6468517 0.6468517 0.4039377
v 0.0175000 0.0303109 2.6700001
vn 0.6468517 0.6468517 0.4039377
f 619/619/619 620/620/620 621/621/621
v 0.0580237 0.0335000 2.5999999
vn 0.6468517 0.6468517 0.4039377
v 0.0175000 0.0303109 2.6700001
vn 0.6468517 0.6468517 0.4039377
v 0.0303109 0.0175000 2.6700001
vn 0.6468517 0.6468517 0.4039377
f 622/622/622 623/623/623 624/624/624
v 0.0335000 0.0580237 2.5999999
vn 0.2367642 0.8836159 0.4039378
v 0.0000000 0.0670000 2.5999999
vn 0.2367642 0.8836159 0.4039378
v 0.0000000 0.0350000 2.6700001
vn 0.2367642 0.8836159 0.4039378
f 625/625/625 626/626/626 627/627/627
v 0.0335000 0.0580237 2.5999999
vn 0.2367641 0.8836159 0.4039377
v 0.0000000 0.0350000 2.6700001
vn 0.2367641 0.8836159 0.4039377
v 0.0175000 0.0303109 2.6700001
vn 0.2367641 0.8836159 0.4039377
f 628/628/628 629/629/629 630/630/630
v 0.0000000 0.0670000 2.5999999
vn -0.2367642 0.8836159 0.4039377
v -0.0335000 0.0580237 2.5999999
vn -0.2367642 0.8836159 0.4039377
v -0.0175000 0.0303109 2.6700001
vn -0.2367642 0.8836159 0.4039377
f 631/631/631 632/632/632 633/633/633
v 0.0000000 0.0670000 2.5999999
vn -0.2367641 0.8836159 0.4039377
v -0.0175000 0.0303109 2.6700001
vn -0.2367641 0.8836159 0.4039377
v 0.0000000 0.0350000 2.6700001
vn -0.2367641 0.8836159 0.4039377
f 634/634/634 635/635/635 636/636/636
v -0.0335000 0.0580237 2.5999999
vn -0.6468517 0.6468517 0.4039377
v -0.0580237 0.0335000 2.5999999
vn -0.6468517 0.6468517 0.4039377
v -0.0303109 0.0175000 2.6700001
vn -0.6468517 0.6468517 0.4039377
f 637/637/637 638/638/638 639/639/639
v -0.0335000 0.0580237 2.5999999
vn -0.6468517 0.6468517 0.4039377
v -0.0303109 0.0175000 2.6700001
vn -0.6468517 0.6468517 0.4039377
v -0.0175000 0.0303109 2.6700001
vn -0.6468517 0.6468517 0.4039377
f 640/640/640 641/641/641 642/642/642
v -0.0580237 0.0335000 2.5999999
vn -0.8836159 0.2367642 0.4039378
v -0.0670000 0.0000000 2.5999999
vn -0.8836159 0.2367642 0.4039378
v -0.0350000 0.0000000 2.6700001
vn -0.8836159 0.2367642 0.4039378
f 643/643/643 644/644/644 645/645/645
v -0.0580237 0.0335000 2.5999999
vn -0.8836159 0.2367641 0.4039377
v -0.0350000 0.0000000 2.6700001
vn -0.8836159 0.2367641 0.4039377
v -0.0303109 0.0175000 2.6700001
vn -0.8836159 0.2367641 0.4039377
f 646/646/646 647/647/647 648/648/648
v -0.0670000 0.0000000 2.5999999
vn -0.8836159 -0.2367642 0.4039377
v -0.0580237 -0.0335000 2.5999999
vn -0.8836159 -0.2367642 0.4039377
v -0.0303109 -0.0175000 2.6700001
vn -0.8836159 -0.2367642 0.4039377
f 649/649/649 650/650/650 651/651/651
v -0.0670000 0.0000000 2.5999999
vn -0.8836159 -0.2367641 0.4039377
v -0.0303109 -0.0175000 2.6700001
vn -0.8836159 -0.2367641 0.4039377
v -0.0350000 0.0000000 2.6700001
vn -0.8836159 -0.2367641 0.4039377
f 652/652/652 653/653/653 654/654/654
v -0.0580237 -0.0335000 2.5999999
vn -0.6468517 -0.6468517 0.4039377
v -0.0335000 -0.0580237 2.5999999
vn -0.6468517 -0.6468517 0.4039377
v -0.0175000 -0.0303109 2.6700001
vn -0.6468517 -0.6468517 0.4039377
f 655/655/655 656/656/656 657/657/657
v -0.0580237 -0.0335000 2.5999999
vn -0.6468517 -0.6468517 0.4039377
v -0.0175000 -0.0303109 2.6700001
vn -0.6468517 -0.6468517 0.4039377
v -0.0303109 -0.0175000 2.6700001
vn -0.6468517 -0.6468517 0.4039377
f 658/658/658 659/659/659 660/660/660
v -0.0335000 -0.0580237 2.5999999
vn -0.2367642 -0.8836159 0.4039378
v -0.0000000 -0.0670000 2.5999999
vn -0.2367642 -0.8836159 0.4039378
v -0.0000000 -0.0350000 2.6700001
vn -0.2367642 -0.8836159 0.4039378
f 661/661/661 662/662/662 663/663/663
v -0.0335000 -0.0580237 2.5999999
vn -0.2367641 -0.8836159 0.4039377
v -0.0000000 -0.0350000 2.6700001
vn -0.2367641 -0.8836159 0.4039377
v -0.0175000 -0.0303109 2.6700001
vn -0.2367641 -0.8836159 0.4039377
f 664/664/664 665/665/665 666/666/666
v -0.0000000 -0.0670000 2.5999999
vn 0.2367642 -0.8836159 0.4039377
v 0.0335000 -0.0580237 2.5999999
vn 0.2367642 -0.8836159 0.4039377
v 0.0175000 -0.0303109 2.6700001
vn 0.2367642 -0.8836159 0.4039377
f 667/667/667 668/668/668 669/669/669
v -0.0000000 -0.0670000 2.5999999
vn 0.2367641 -0.8836159 0.4039377
v 0.0175000 -0.0303109 2.6700001
vn 0.2367641 -0.8836159 0.4039377
v -0.0000000 -0.0350000 2.6700001
vn 0.2367641 -0.8836159 0.4039377
f 670/670/670 671/671/671 672/672/672
v 0.0335000 -0.0580237 2.5999999
vn 0.6468517 -0.6468517 0.4039377
v 0.0580237 -0.0335000 2.5999999
vn 0.6468517 -0.6468517 0.4039377
v 0.0303109 -0.0175000 2.6700001
vn 0.6468517 -0.6468517 0.4039377
f 673/673/673 674/674/674 675/675/675
v 0.0335000 -0.0580237 2.5999999
vn 0.6468517 -0.6468517 0.4039377
v 0.0303109 -0.0175000 2.6700001
vn 0.6468517 -0.6468517 0.4039377
v 0.0175000 -0.0303109 2.6700001
vn 0.6468517 -0.6468517 0.4039377
f 676/676/676 677/677/677 678/678/678
v 0.0580237 -0.0335000 2.5999999
vn 0.8836159 -0.2367642 0.4039378
v 0.0670000 0.0000000 2.5999999
vn 0.8836159 -0.2367642 0.4039378
v 0.0350000 0.0000000 2.6700001
vn 0.8836159 -0.2367642 0.4039378
f 679/679/679 680/680/680 681/681/681
v 0.0580237 -0.0335000 2.5999999
vn 0.8836159 -0.2367641 0.4039377
v 0.0350000 0.0000000 2.6700001
vn 0.8836159 -0.2367641 0.4039377
v 0.0303109 -0.0175000 2.6700001
vn 0.8836159 -0.2367641 0.4039377
f 682/682/682 683/683/683 684/684/684
v 0.0350000 0.0000000 2.6700001
vn 0.7762498 0.2079955 0.5951254
v 0.0303109 0.0175000 2.6700001
vn 0.7762498 0.2079955 0.5951254
v 0.0103923 0.0060000 2.7000000
vn 0.7762498 0.2079955 0.5951254
f 685/685/685 686/686/686 687/687/687
v 0.0350000 0.0000000 2.6700001
vn 0.7762498 0.2079955 0.5951254
v 0.0103923 0.0060000 2.7000000
vn 0.7762498 0.2079955 0.5951254
v 0.0120000 0.0000000 2.7000000
vn 0.7762498 0.2079955 0.5951254
f 688/688/688 689/689/689 690/690/690
v 0.0303109 0.0175000 2.6700001
vn 0.5682542 0.5682542 0.5951254
v 0.0175000 0.0303109 2.6700001
vn 0.5682542 0.5682542 0.5951254
v 0.0060000 0.0103923 2.7000000
vn 0.5682542 0.5682542 0.5951254
f 691/691/691 692/692/692 693/693/693
v 0.0303109 0.0175000 2.6700001
vn 0.5682542 0.5682542 0.5951254
v 0.0060000 0.0103923 2.7000000
vn 0.5682542 0.5682542 0.5951254
v 0.0103923 0.0060000 2.7000000
vn 0.5682542 0.5682542 0.5951254
f 694/694/694 695/695/695 696/696/696
v 0.0175000 0.0303109 2.6700001
vn 0.2079955 0.7762498 0.5951254
v 0.0000000 0.0350000 2.6700001
vn 0.2079955 0.7762498 0.5951254
v 0.0000000 0.0120000 2.7000000
vn 0.2079955 0.7762498 0.5951254
f 697/697/697 698/698/698 699/699/699
v 0.0175000 0.0303109 2.6700001
vn 0.2079955 0.7762498 0.5951254
v 0.0000000 0.0120000 2.7000000
vn 0.2079955 0.7762498 0.5951254
v 0.0060000 0.0103923 2.7000000
vn 0.2079955 0.7762498 0.5951254
f 700/700/700 701/701/701 702/702/702
v 0.0000000 0.0350000 2.6700001
vn -0.2079955 0.7762498 0.5951254
v -0.0175000 0.0303109 2.6700001
vn -0.2079955 0.7762498 0.5951254
v -0.0060000 0.0103923 2.7000000
vn -0.2079955 0.7762498 0.5951254
f 703/703/703 704/704/704 705/705/705
v 0.0000000 0.0350000 2.6700001
vn -0.2079955 0.7762498 0.5951254
v -0.0060000 0.0103923 2.7000000
vn -0.2079955 0.7762498 0.5951254
v 0.0000000 0.0120000 2.7000000
vn -0.2079955 0.7762498 0.5951254
f 706/706/706 707/707/707 708/708/708
v -0.0175000 0.0303109 2.6700001
vn -0.5682542 0.5682542 0.5951254
v -0.0303109 0.0175000 2.6700001
vn -0.5682542 0.5682542 0.5951254
v -0.0103923 0.0060000 2.7000000
vn -0.5682542 0.5682542 0.5951254
f 709/709/709 710/710/710 711/711/711
v -0.0175000 0.0303109 2.6700001
vn -0.5682542 0.5682542 0.5951254
v -0.0103923 0.0060000 2.7000000
vn -0.5682542 0.5682542 0.5951254
v -0.0060000 0.0103923 2.7000000
vn -0.5682542 0.5682542 0.5951254
f 712/712/712 713/713/713 714/714/714
v -0.0303109 0.0175000 2.6700001
vn -0.7762498 0.2079955 0.5951254
v -0.0350000 0.0000000 2.6700001
vn -0.7762498 0.2079955 0.5951254
v -0.0120000 0.0000000 2.7000000
vn -0.7762498 0.2079955 0.5951254
f 715/715/715 716/716/716 717/717/717
v -0.0303109 0.0175000 2.6700001
vn -0.7762498 0.2079955 0.5951254
v -0.0120000 0.0000000 2.7000000
vn -0.7762498 0.2079955 0.5951254
v -0.0103923 0.0060000 2.7000000
vn -0.7762498 0.2079955 0.5951254
f 718/718/718 719/719/719 720/720/720
v -0.0350000 0.0000000 2.6700001
vn -0.7762498 -0.2079955 0.5951254
v -0.0303109 -0.0175000 2.6700001
vn -0.7762498 -0.2079955 0.5951254
v -0.0103923 -0.0060000 2.7000000
vn -0.7762498 -0.2079955 0.5951254
f 721/721/721 722/722/722 723/723/723
v -0.0350000 0.0000000 2.6700001
vn -0.7762498 -0.2079955 0.5951254
v -0.0103923 -0.0060000 2.7000000
vn -0.7762498 -0.2079955 0.5951254
v -0.0120000 0.0000000 2.7000000
vn -0.7762498 -0.2079955 0.5951254
f 724/724/724 725/725/725 726/726/726
v -0.0303109 -0.0175000 2.6700001
vn -0.5682542 -0.5682542 0.5951254
v -0.0175000 -0.0303109 2.6700001
vn -0.5682542 -0.5682542 0.5951254
v -0.0060000 -0.0103923 2.7000000
vn -0.5682542 -0.5682542 0.5951254
f 727/727/727 728/728/728 729/729/729
v -0.0303109 -0.0175000 2.6700001
vn -0.5682542 -0.5682542 0.5951254
v -0.0060000 -0.0103923 2.7000000
vn -0.5682542 -0.5682542 0.5951254
v -0.0103923 -0.0060000 2.7000000
vn -0.5682542 -0.5682542 0.5951254
f 730/730/730 731/731/731 732/732/732
v -0.0175000 -0.0303109 2.6700001
vn -0.2079955 -0.7762498 0.5951254
v -0.0000000 -0.0350000 2.6700001
vn -0.2079955 -0.7762498 0.5951254
v -0.0000000 -0.0120000 2.7000000
vn -0.2079955 -0.7762498 0.5951254
f 733/733/733 734/734/734 735/735/735
v -0.0175000 -0.0303109 2.6700001
vn -0.2079955 -0.7762498 0.5951254
v -0.0000000 -0.0120000 2.7000000
vn -0.2079955 -0.7762498 0.5951254
v -0.0060000 -0.0103923 2.7000000
vn -0.2079955 -0.7762498 0.5951254
f 736/736/736 737/737/737 738/738/738
v -0.0000000 -0.0350000 2.6700001
vn 0.2079955 -0.7762498 0.5951254
v 0.0175000 -0.0303109 2.6700001
vn 0.2079955 -0.7762498 0.5951254
v 0.0060000 -0.0103923 2.7000000
vn 0.2079955 -0.7762498 0.5951254
f 739/739/739 740/740/740 741/741/741
v -0.0000000 -0.0350000 2.6700001
vn 0.2079955 -0.7762498 0.5951254
v 0.0060000 -0.0103923 2.7000000
vn 0.2079955 -0.7762498 0.5951254
v -0.0000000 -0.0120000 2.7000000
vn 0.2079955 -0.7762498 0.5951254
f 742/742/742 743/743/743 744/744/744
v 0.0175000 -0.0303109 2.6700001
vn 0.5682542 -0.5682542 0.5951254
v 0.0303109 -0.0175000 2.6700001
vn 0.5682542 -0.5682542 0.5951254
v 0.0103923 -0.0060000 2.7000000
vn 0.5682542 -0.5682542 0.5951254
f 745/745/745 746/746/746 747/747/747
v 0.0175000 -0.0303109 2.6700001
vn 0.5682542 -0.5682542 0.5951254
v 0.0103923 -0.0060000 2.7000000
vn 0.5682542 -0.5682542 0.5951254
v 0.0060000 -0.0103923 2.7000000
vn 0.5682542 -0.5682542 0.5951254
f 748/748/748 749/749/749 750/750/750
v 0.0303109 -0.0175000 2.6700001
vn 0.7762498 -0.2079955 0.5951254
v 0.0350000 0.0000000 2.6700001
vn 0.7762498 -0.2079955 0.5951254
v 0.0120000 0.0000000 2.7000000
vn 0.7762498 -0.2079955 0.5951254
f 751/751/751 752/752/752 753/753/753
v 0.0303109 -0.0175000 2.6700001
vn 0.7762498 -0.2079955 0.5951254
v 0.0120000 0.0000000 2.7000000
vn 0.7762498 -0.2079955 0.5951254
v 0.0103923 -0.0060000 2.7000000
vn 0.7762498 -0.2079955 0.5951254
f 754/754/754 755/755/755 756/756/756
