# Authored in live Blender MCP. Native sprite faces. Tile units, Z up.
mtllib pz_stove_green.mtl
usemtl original
v -0.4700000 0.4700000 0.0300000
vt 0.539569935 0.185000000
vn 0.0000000 0.0000000 -0.9999999
v 0.4700000 0.4700000 0.0300000
vt 0.539569935 0.185000000
vn 0.0000000 0.0000000 -0.9999999
v 0.4700000 -0.4700000 0.0300000
vt 0.357849484 0.045000000
vn 0.0000000 0.0000000 -0.9999999
f 1/1/1 2/2/2 3/3/3
v -0.4700000 0.4700000 0.0300000
vt 0.539569935 0.185000000
vn 0.0000000 0.0000000 -0.9999999
v 0.4700000 -0.4700000 0.0300000
vt 0.357849484 0.045000000
vn 0.0000000 0.0000000 -0.9999999
v -0.4700000 -0.4700000 0.0300000
vt 0.357849484 0.045000000
vn 0.0000000 0.0000000 -0.9999999
f 4/4/4 5/5/5 6/6/6
v -0.4700000 -0.4700000 0.8650000
vt 0.036666677 0.780080600
vn 0.0000000 0.0000000 0.9999999
v 0.4700000 -0.4700000 0.8650000
vt 0.324731242 0.567822600
vn 0.0000000 0.0000000 0.9999999
v 0.4700000 0.4700000 0.8650000
vt 0.511720435 0.711854800
vn 0.0000000 0.0000000 0.9999999
f 7/7/7 8/8/8 9/9/9
v -0.4700000 -0.4700000 0.8650000
vt 0.036666677 0.780080600
vn -0.0000000 0.0000000 0.9999999
v 0.4700000 0.4700000 0.8650000
vt 0.511720435 0.711854800
vn -0.0000000 0.0000000 0.9999999
v -0.4700000 0.4700000 0.8650000
vt 0.223655871 0.924112900
vn -0.0000000 0.0000000 0.9999999
f 10/10/10 11/11/11 12/12/12
v -0.4700000 -0.4700000 0.0300000
vt 0.021505355 0.258064500
vn -0.0000000 -1.0000000 -0.0000000
v 0.4700000 -0.4700000 0.0300000
vt 0.327957000 0.032258100
vn -0.0000000 -1.0000000 -0.0000000
v 0.4700000 -0.4700000 0.8650000
vt 0.327957000 0.491385600
vn -0.0000000 -1.0000000 -0.0000000
f 13/13/13 14/14/14 15/15/15
v -0.4700000 -0.4700000 0.0300000
vt 0.021505355 0.258064500
vn 0.0000000 -1.0000000 -0.0000000
v 0.4700000 -0.4700000 0.8650000
vt 0.327957000 0.491385600
vn 0.0000000 -1.0000000 -0.0000000
v -0.4700000 -0.4700000 0.8650000
vt 0.021505355 0.717192100
vn 0.0000000 -1.0000000 -0.0000000
f 16/16/16 17/17/17 18/18/18
v 0.4700000 -0.4700000 0.0300000
vt 0.357849484 0.045000000
vn 1.0000000 0.0000000 0.0000000
v 0.4700000 0.4700000 0.0300000
vt 0.539569935 0.185000000
vn 1.0000000 0.0000000 0.0000000
v 0.4700000 0.4700000 0.8650000
vt 0.539569935 0.706875000
vn 1.0000000 0.0000000 0.0000000
f 19/19/19 20/20/20 21/21/21
v 0.4700000 -0.4700000 0.0300000
vt 0.357849484 0.045000000
vn 1.0000000 -0.0000000 0.0000000
v 0.4700000 0.4700000 0.8650000
vt 0.539569935 0.706875000
vn 1.0000000 -0.0000000 0.0000000
v 0.4700000 -0.4700000 0.8650000
vt 0.357849484 0.528920500
vn 1.0000000 -0.0000000 0.0000000
f 22/22/22 23/23/23 24/24/24
v 0.4700000 0.4700000 0.0300000
vt 0.592258032 0.260000000
vn -0.0000000 1.0000000 0.0000000
v -0.4700000 0.4700000 0.0300000
vt 0.910967806 0.045000000
vn -0.0000000 1.0000000 0.0000000
v -0.4700000 0.4700000 0.8650000
vt 0.910967806 0.571619300
vn -0.0000000 1.0000000 0.0000000
f 25/25/25 26/26/26 27/27/27
v 0.4700000 0.4700000 0.0300000
vt 0.592258032 0.260000000
vn 0.0000000 1.0000000 0.0000000
v -0.4700000 0.4700000 0.8650000
vt 0.910967806 0.571619300
vn 0.0000000 1.0000000 0.0000000
v 0.4700000 0.4700000 0.8650000
vt 0.592258032 0.781875000
vn 0.0000000 1.0000000 0.0000000
f 28/28/28 29/29/29 30/30/30
v -0.4700000 0.4700000 0.0300000
vt 0.539569935 0.185000000
vn -1.0000000 0.0000000 0.0000000
v -0.4700000 -0.4700000 0.0300000
vt 0.357849484 0.045000000
vn -1.0000000 0.0000000 0.0000000
v -0.4700000 -0.4700000 0.8650000
vt 0.357849484 0.528920500
vn -1.0000000 0.0000000 0.0000000
f 31/31/31 32/32/32 33/33/33
v -0.4700000 0.4700000 0.0300000
vt 0.539569935 0.185000000
vn -1.0000000 -0.0000000 -0.0000000
v -0.4700000 -0.4700000 0.8650000
vt 0.357849484 0.528920500
vn -1.0000000 -0.0000000 -0.0000000
v -0.4700000 0.4700000 0.8650000
vt 0.539569935 0.706875000
vn -1.0000000 -0.0000000 -0.0000000
f 34/34/34 35/35/35 36/36/36
v -0.5000000 0.5000000 0.8650000
vt 0.539569935 0.706875000
vn 0.0000000 0.0000000 -1.0000000
v 0.5000000 0.5000000 0.8650000
vt 0.539569935 0.706875000
vn 0.0000000 0.0000000 -1.0000000
v 0.5000000 -0.5000000 0.8650000
vt 0.357849484 0.528920500
vn 0.0000000 0.0000000 -1.0000000
f 37/37/37 38/38/38 39/39/39
v -0.5000000 0.5000000 0.8650000
vt 0.539569935 0.706875000
vn 0.0000000 0.0000000 -1.0000000
v 0.5000000 -0.5000000 0.8650000
vt 0.357849484 0.528920500
vn 0.0000000 0.0000000 -1.0000000
v -0.5000000 -0.5000000 0.8650000
vt 0.357849484 0.528920500
vn 0.0000000 0.0000000 -1.0000000
f 40/40/40 41/41/41 42/42/42
v -0.5000000 -0.5000000 0.9100000
vt 0.021505355 0.782258100
vn 0.0000000 0.0000000 1.0000000
v 0.5000000 -0.5000000 0.9100000
vt 0.327957000 0.556451600
vn 0.0000000 0.0000000 1.0000000
v 0.5000000 0.5000000 0.9100000
vt 0.526881758 0.709677400
vn 0.0000000 0.0000000 1.0000000
f 43/43/43 44/44/44 45/45/45
v -0.5000000 -0.5000000 0.9100000
vt 0.021505355 0.782258100
vn -0.0000000 0.0000000 1.0000000
v 0.5000000 0.5000000 0.9100000
vt 0.526881758 0.709677400
vn -0.0000000 0.0000000 1.0000000
v -0.5000000 0.5000000 0.9100000
vt 0.220430113 0.935483900
vn -0.0000000 0.0000000 1.0000000
f 46/46/46 47/47/47 48/48/48
v -0.5000000 -0.5000000 0.8650000
vt 0.021505355 0.717192100
vn -0.0000000 -1.0000000 -0.0000000
v 0.5000000 -0.5000000 0.8650000
vt 0.327957000 0.491385600
vn -0.0000000 -1.0000000 -0.0000000
v 0.5000000 -0.5000000 0.9100000
vt 0.327957000 0.516129000
vn -0.0000000 -1.0000000 -0.0000000
f 49/49/49 50/50/50 51/51/51
v -0.5000000 -0.5000000 0.8650000
vt 0.021505355 0.717192100
vn 0.0000000 -1.0000000 -0.0000000
v 0.5000000 -0.5000000 0.9100000
vt 0.327957000 0.516129000
vn 0.0000000 -1.0000000 -0.0000000
v -0.5000000 -0.5000000 0.9100000
vt 0.021505355 0.741935500
vn 0.0000000 -1.0000000 -0.0000000
f 52/52/52 53/53/53 54/54/54
v 0.5000000 -0.5000000 0.8650000
vt 0.357849484 0.528920500
vn 1.0000000 0.0000000 0.0000000
v 0.5000000 0.5000000 0.8650000
vt 0.539569935 0.706875000
vn 1.0000000 0.0000000 0.0000000
v 0.5000000 0.5000000 0.9100000
vt 0.539569935 0.735000000
vn 1.0000000 0.0000000 0.0000000
f 55/55/55 56/56/56 57/57/57
v 0.5000000 -0.5000000 0.8650000
vt 0.357849484 0.528920500
vn 1.0000000 -0.0000000 0.0000000
v 0.5000000 0.5000000 0.9100000
vt 0.539569935 0.735000000
vn 1.0000000 -0.0000000 0.0000000
v 0.5000000 -0.5000000 0.9100000
vt 0.357849484 0.555000000
vn 1.0000000 -0.0000000 0.0000000
f 58/58/58 59/59/59 60/60/60
v 0.5000000 0.5000000 0.8650000
vt 0.592258032 0.781875000
vn -0.0000000 1.0000000 0.0000000
v -0.5000000 0.5000000 0.8650000
vt 0.910967806 0.571619300
vn -0.0000000 1.0000000 0.0000000
v -0.5000000 0.5000000 0.9100000
vt 0.910967806 0.600000000
vn -0.0000000 1.0000000 0.0000000
f 61/61/61 62/62/62 63/63/63
v 0.5000000 0.5000000 0.8650000
vt 0.592258032 0.781875000
vn 0.0000000 1.0000000 0.0000000
v -0.5000000 0.5000000 0.9100000
vt 0.910967806 0.600000000
vn 0.0000000 1.0000000 0.0000000
v 0.5000000 0.5000000 0.9100000
vt 0.592258032 0.810000000
vn 0.0000000 1.0000000 0.0000000
f 64/64/64 65/65/65 66/66/66
v -0.5000000 0.5000000 0.8650000
vt 0.539569935 0.706875000
vn -1.0000000 0.0000000 0.0000000
v -0.5000000 -0.5000000 0.8650000
vt 0.357849484 0.528920500
vn -1.0000000 0.0000000 0.0000000
v -0.5000000 -0.5000000 0.9100000
vt 0.357849484 0.555000000
vn -1.0000000 0.0000000 0.0000000
f 67/67/67 68/68/68 69/69/69
v -0.5000000 0.5000000 0.8650000
vt 0.539569935 0.706875000
vn -1.0000000 -0.0000000 -0.0000000
v -0.5000000 -0.5000000 0.9100000
vt 0.357849484 0.555000000
vn -1.0000000 -0.0000000 -0.0000000
v -0.5000000 0.5000000 0.9100000
vt 0.539569935 0.735000000
vn -1.0000000 -0.0000000 -0.0000000
f 70/70/70 71/71/71 72/72/72
v -0.4270000 -0.4700000 0.2000000
vt 0.357849484 0.143522700
vn 0.0000000 0.0000000 -0.9999999
v 0.4270000 -0.4700000 0.2000000
vt 0.357849484 0.143522700
vn 0.0000000 0.0000000 -0.9999999
v 0.4270000 -0.5010000 0.2000000
vt 0.357849484 0.143522700
vn 0.0000000 0.0000000 -0.9999999
f 73/73/73 74/74/74 75/75/75
v -0.4270000 -0.4700000 0.2000000
vt 0.357849484 0.143522700
vn 0.0000000 0.0000000 -0.9999999
v 0.4270000 -0.5010000 0.2000000
vt 0.357849484 0.143522700
vn 0.0000000 0.0000000 -0.9999999
v -0.4270000 -0.5010000 0.2000000
vt 0.357849484 0.143522700
vn 0.0000000 0.0000000 -0.9999999
f 76/76/76 77/77/77 78/78/78
v -0.4270000 -0.5010000 0.7100000
vt 0.043876339 0.765774200
vn 0.0000000 0.0000000 0.9999999
v 0.4270000 -0.5010000 0.7100000
vt 0.305586016 0.572935500
vn 0.0000000 0.0000000 0.9999999
v 0.4270000 -0.4700000 0.7100000
vt 0.311553742 0.577532200
vn 0.0000000 0.0000000 0.9999999
f 79/79/79 80/80/80 81/81/81
v -0.4270000 -0.5010000 0.7100000
vt 0.043876339 0.765774200
vn -0.0000000 0.0000000 0.9999999
v 0.4270000 -0.4700000 0.7100000
vt 0.311553742 0.577532200
vn -0.0000000 0.0000000 0.9999999
v -0.4270000 -0.4700000 0.7100000
vt 0.049844065 0.770371000
vn -0.0000000 0.0000000 0.9999999
f 82/82/82 83/83/83 84/84/84
v -0.4270000 -0.5010000 0.2000000
vt 0.035523871 0.341210200
vn -0.0000000 -1.0000000 -0.0000000
v 0.4270000 -0.5010000 0.2000000
vt 0.313938484 0.136062600
vn -0.0000000 -1.0000000 -0.0000000
v 0.4270000 -0.5010000 0.7100000
vt 0.313938484 0.416487800
vn -0.0000000 -1.0000000 -0.0000000
f 85/85/85 86/86/86 87/87/87
v -0.4270000 -0.5010000 0.2000000
vt 0.035523871 0.341210200
vn 0.0000000 -1.0000000 -0.0000000
v 0.4270000 -0.5010000 0.7100000
vt 0.313938484 0.416487800
vn 0.0000000 -1.0000000 -0.0000000
v -0.4270000 -0.5010000 0.7100000
vt 0.035523871 0.621635400
vn 0.0000000 -1.0000000 -0.0000000
f 88/88/88 89/89/89 90/90/90
v 0.4270000 -0.5010000 0.2000000
vt 0.357849484 0.143522700
vn 1.0000000 0.0000000 0.0000000
v 0.4270000 -0.4700000 0.2000000
vt 0.357849484 0.143522700
vn 1.0000000 0.0000000 0.0000000
v 0.4270000 -0.4700000 0.7100000
vt 0.357849484 0.439090900
vn 1.0000000 0.0000000 0.0000000
f 91/91/91 92/92/92 93/93/93
v 0.4270000 -0.5010000 0.2000000
vt 0.357849484 0.143522700
vn 1.0000000 -0.0000000 0.0000000
v 0.4270000 -0.4700000 0.7100000
vt 0.357849484 0.439090900
vn 1.0000000 -0.0000000 0.0000000
v 0.4270000 -0.5010000 0.7100000
vt 0.357849484 0.439090900
vn 1.0000000 -0.0000000 0.0000000
f 94/94/94 95/95/95 96/96/96
v 0.4270000 -0.4700000 0.2000000
vt 0.606837339 0.356459100
vn -0.0000000 1.0000000 0.0000000
v -0.4270000 -0.4700000 0.2000000
vt 0.896388500 0.162006800
vn -0.0000000 1.0000000 0.0000000
v -0.4270000 -0.4700000 0.7100000
vt 0.896388500 0.483522000
vn -0.0000000 1.0000000 0.0000000
f 97/97/97 98/98/98 99/99/99
v 0.4270000 -0.4700000 0.2000000
vt 0.606837339 0.356459100
vn 0.0000000 1.0000000 0.0000000
v -0.4270000 -0.4700000 0.7100000
vt 0.896388500 0.483522000
vn 0.0000000 1.0000000 0.0000000
v 0.4270000 -0.4700000 0.7100000
vt 0.606837339 0.675341600
vn 0.0000000 1.0000000 0.0000000
f 100/100/100 101/101/101 102/102/102
v -0.4270000 -0.4700000 0.2000000
vt 0.357849484 0.143522700
vn -1.0000000 0.0000000 0.0000000
v -0.4270000 -0.5010000 0.2000000
vt 0.357849484 0.143522700
vn -1.0000000 0.0000000 0.0000000
v -0.4270000 -0.5010000 0.7100000
vt 0.357849484 0.439090900
vn -1.0000000 0.0000000 0.0000000
f 103/103/103 104/104/104 105/105/105
v -0.4270000 -0.4700000 0.2000000
vt 0.357849484 0.143522700
vn -1.0000000 -0.0000000 -0.0000000
v -0.4270000 -0.5010000 0.7100000
vt 0.357849484 0.439090900
vn -1.0000000 -0.0000000 -0.0000000
v -0.4270000 -0.4700000 0.7100000
vt 0.357849484 0.439090900
vn -1.0000000 -0.0000000 -0.0000000
f 106/106/106 107/107/107 108/108/108
v -0.4800000 0.4650000 0.9100000
vt 0.220430113 0.903225800
vn 0.0000000 0.0000000 -1.0000000
v 0.4800000 0.4650000 0.9100000
vt 0.516129081 0.685483900
vn 0.0000000 0.0000000 -1.0000000
v 0.4800000 0.4050000 0.9100000
vt 0.516129081 0.685483900
vn 0.0000000 0.0000000 -1.0000000
f 109/109/109 110/110/110 111/111/111
v -0.4800000 0.4650000 0.9100000
vt 0.220430113 0.903225800
vn 0.0000000 0.0000000 -1.0000000
v 0.4800000 0.4050000 0.9100000
vt 0.516129081 0.685483900
vn 0.0000000 0.0000000 -1.0000000
v -0.4800000 0.4050000 0.9100000
vt 0.220430113 0.903225800
vn 0.0000000 0.0000000 -1.0000000
f 112/112/112 113/113/113 114/114/114
v -0.4800000 0.4050000 1.1050000
vt 0.220430113 0.983871000
vn 0.0000000 0.0000000 1.0000000
v 0.4800000 0.4050000 1.1050000
vt 0.516129081 0.766129000
vn 0.0000000 0.0000000 1.0000000
v 0.4800000 0.4650000 1.1050000
vt 0.516129081 0.766129000
vn 0.0000000 0.0000000 1.0000000
f 115/115/115 116/116/116 117/117/117
v -0.4800000 0.4050000 1.1050000
vt 0.220430113 0.983871000
vn -0.0000000 0.0000000 1.0000000
v 0.4800000 0.4650000 1.1050000
vt 0.516129081 0.766129000
vn -0.0000000 0.0000000 1.0000000
v -0.4800000 0.4650000 1.1050000
vt 0.220430113 0.983871000
vn -0.0000000 0.0000000 1.0000000
f 118/118/118 119/119/119 120/120/120
v -0.4800000 0.4050000 0.9100000
vt 0.220430113 0.903225800
vn -0.0000000 -0.9999999 -0.0000000
v 0.4800000 0.4050000 0.9100000
vt 0.516129081 0.685483900
vn -0.0000000 -0.9999999 -0.0000000
v 0.4800000 0.4050000 1.1050000
vt 0.516129081 0.766129000
vn -0.0000000 -0.9999999 -0.0000000
f 121/121/121 122/122/122 123/123/123
v -0.4800000 0.4050000 0.9100000
vt 0.220430113 0.903225800
vn 0.0000000 -0.9999999 -0.0000000
v 0.4800000 0.4050000 1.1050000
vt 0.516129081 0.766129000
vn 0.0000000 -0.9999999 -0.0000000
v -0.4800000 0.4050000 1.1050000
vt 0.220430113 0.983871000
vn 0.0000000 -0.9999999 -0.0000000
f 124/124/124 125/125/125 126/126/126
v 0.4800000 0.4050000 0.9100000
vt 0.516129081 0.685483900
vn 0.9999999 0.0000000 0.0000000
v 0.4800000 0.4650000 0.9100000
vt 0.516129081 0.685483900
vn 0.9999999 0.0000000 0.0000000
v 0.4800000 0.4650000 1.1050000
vt 0.516129081 0.766129000
vn 0.9999999 0.0000000 0.0000000
f 127/127/127 128/128/128 129/129/129
v 0.4800000 0.4050000 0.9100000
vt 0.516129081 0.685483900
vn 0.9999999 -0.0000000 0.0000000
v 0.4800000 0.4650000 1.1050000
vt 0.516129081 0.766129000
vn 0.9999999 -0.0000000 0.0000000
v 0.4800000 0.4050000 1.1050000
vt 0.516129081 0.766129000
vn 0.9999999 -0.0000000 0.0000000
f 130/130/130 131/131/131 132/132/132
v 0.4800000 0.4650000 0.9100000
vt 0.516129081 0.685483900
vn -0.0000000 0.9999999 0.0000000
v -0.4800000 0.4650000 0.9100000
vt 0.220430113 0.903225800
vn -0.0000000 0.9999999 0.0000000
v -0.4800000 0.4650000 1.1050000
vt 0.220430113 0.983871000
vn -0.0000000 0.9999999 0.0000000
f 133/133/133 134/134/134 135/135/135
v 0.4800000 0.4650000 0.9100000
vt 0.516129081 0.685483900
vn 0.0000000 0.9999999 0.0000000
v -0.4800000 0.4650000 1.1050000
vt 0.220430113 0.983871000
vn 0.0000000 0.9999999 0.0000000
v 0.4800000 0.4650000 1.1050000
vt 0.516129081 0.766129000
vn 0.0000000 0.9999999 0.0000000
f 136/136/136 137/137/137 138/138/138
v -0.4800000 0.4650000 0.9100000
vt 0.220430113 0.903225800
vn -0.9999999 0.0000000 0.0000000
v -0.4800000 0.4050000 0.9100000
vt 0.220430113 0.903225800
vn -0.9999999 0.0000000 0.0000000
v -0.4800000 0.4050000 1.1050000
vt 0.220430113 0.983871000
vn -0.9999999 0.0000000 0.0000000
f 139/139/139 140/140/140 141/141/141
v -0.4800000 0.4650000 0.9100000
vt 0.220430113 0.903225800
vn -0.9999999 -0.0000000 -0.0000000
v -0.4800000 0.4050000 1.1050000
vt 0.220430113 0.983871000
vn -0.9999999 -0.0000000 -0.0000000
v -0.4800000 0.4650000 1.1050000
vt 0.220430113 0.983871000
vn -0.9999999 -0.0000000 -0.0000000
f 142/142/142 143/143/143 144/144/144
