mtllib pz_sofa_seating_indoor_03_victorian_c1_1_0_fidelity_r1.mtl
o pz_sofa_seating_indoor_03_victorian_c1_1_0
usemtl UV_Base
g pz_sofa_seating_indoor_03_victorian_c1_1_0__lower_body__body
v -0.50000000 -0.41934792 0.37260000
v -0.50000000 -0.41934792 0.19440000
v 0.32847625 -0.41934792 0.19440000
vt 0.875000000 0.480468750
vt 0.875000000 0.269531250
vt 0.977465653 0.269531250
vn 0.00000000 -1.00000000 0.00000000
f 1/1/1 2/2/1 3/3/1
g pz_sofa_seating_indoor_03_victorian_c1_1_0__lower_body__body
v 0.32847625 -0.41934792 0.19440000
v 0.32847625 -0.41934792 0.37260000
v -0.50000000 -0.41934792 0.37260000
vt 0.977465653 0.269531250
vt 0.977465653 0.480468750
vt 0.875000000 0.480468750
vn 0.00000000 -1.00000000 0.00000000
f 4/4/2 5/5/2 6/6/2
g pz_sofa_seating_indoor_03_victorian_c1_1_0__lower_body__body
v 0.32847625 -0.41934792 0.37260000
v 0.32847625 -0.41934792 0.19440000
v 0.35275750 -0.39506667 0.19440000
vt 0.977465653 0.480468750
vt 0.977465653 0.269531250
vt 0.980468750 0.269531250
vn 0.70710678 -0.70710678 0.00000000
f 7/7/3 8/8/3 9/9/3
g pz_sofa_seating_indoor_03_victorian_c1_1_0__lower_body__body
v 0.35275750 -0.39506667 0.19440000
v 0.35275750 -0.39506667 0.37260000
v 0.32847625 -0.41934792 0.37260000
vt 0.980468750 0.269531250
vt 0.980468750 0.480468750
vt 0.977465653 0.480468750
vn 0.70710678 -0.70710678 0.00000000
f 10/10/4 11/11/4 12/12/4
g pz_sofa_seating_indoor_03_victorian_c1_1_0__lower_body__body
v 0.35275750 -0.39506667 0.37260000
v 0.35275750 -0.39506667 0.19440000
v 0.35275750 0.32657208 0.19440000
vt 0.026181234 0.230468750
vt 0.026181234 0.019531250
vt 0.223818766 0.019531250
vn 1.00000000 0.00000000 0.00000000
f 13/13/5 14/14/5 15/15/5
g pz_sofa_seating_indoor_03_victorian_c1_1_0__lower_body__body
v 0.35275750 0.32657208 0.19440000
v 0.35275750 0.32657208 0.37260000
v 0.35275750 -0.39506667 0.37260000
vt 0.223818766 0.019531250
vt 0.223818766 0.230468750
vt 0.026181234 0.230468750
vn 1.00000000 0.00000000 -0.00000000
f 16/16/6 17/17/6 18/18/6
g pz_sofa_seating_indoor_03_victorian_c1_1_0__lower_body__body
v 0.35275750 0.32657208 0.37260000
v 0.35275750 0.32657208 0.19440000
v 0.32847625 0.35085333 0.19440000
vt 0.223818766 0.230468750
vt 0.223818766 0.019531250
vt 0.230468750 0.019531250
vn 0.70710678 0.70710678 0.00000000
f 19/19/7 20/20/7 21/21/7
g pz_sofa_seating_indoor_03_victorian_c1_1_0__lower_body__body
v 0.32847625 0.35085333 0.19440000
v 0.32847625 0.35085333 0.37260000
v 0.35275750 0.32657208 0.37260000
vt 0.230468750 0.019531250
vt 0.230468750 0.230468750
vt 0.223818766 0.230468750
vn 0.70710678 0.70710678 -0.00000000
f 22/22/8 23/23/8 24/24/8
g pz_sofa_seating_indoor_03_victorian_c1_1_0__lower_body__body
v 0.32847625 0.35085333 0.37260000
v 0.32847625 0.35085333 0.19440000
v -0.50000000 0.35085333 0.19440000
vt 0.727465653 0.480468750
vt 0.727465653 0.269531250
vt 0.625000000 0.269531250
vn 0.00000000 1.00000000 0.00000000
f 25/25/9 26/26/9 27/27/9
g pz_sofa_seating_indoor_03_victorian_c1_1_0__lower_body__body
v -0.50000000 0.35085333 0.19440000
v -0.50000000 0.35085333 0.37260000
v 0.32847625 0.35085333 0.37260000
vt 0.625000000 0.269531250
vt 0.625000000 0.480468750
vt 0.727465653 0.480468750
vn 0.00000000 1.00000000 0.00000000
f 28/28/10 29/29/10 30/30/10
g pz_sofa_seating_indoor_03_victorian_c1_1_0__rear_body_bridge__body
v -0.50000000 -0.39021042 0.19440000
v -0.50000000 -0.39021042 0.48600000
v 0.35275750 -0.39021042 0.48600000
vt 0.625000000 0.269531250
vt 0.625000000 0.480468750
vt 0.730468750 0.480468750
vn 0.00000000 1.00000000 0.00000000
f 31/31/11 32/32/11 33/33/11
g pz_sofa_seating_indoor_03_victorian_c1_1_0__rear_body_bridge__body
v 0.35275750 -0.39021042 0.48600000
v 0.35275750 -0.39021042 0.19440000
v -0.50000000 -0.39021042 0.19440000
vt 0.730468750 0.480468750
vt 0.730468750 0.269531250
vt 0.625000000 0.269531250
vn 0.00000000 1.00000000 0.00000000
f 34/34/12 35/35/12 36/36/12
g pz_sofa_seating_indoor_03_victorian_c1_1_0__rear_body_bridge__body
v -0.50000000 -0.43877292 0.48600000
v -0.50000000 -0.43877292 0.19440000
v 0.35275750 -0.43877292 0.19440000
vt 0.875000000 0.480468750
vt 0.875000000 0.269531250
vt 0.980468750 0.269531250
vn 0.00000000 -1.00000000 0.00000000
f 37/37/13 38/38/13 39/39/13
g pz_sofa_seating_indoor_03_victorian_c1_1_0__rear_body_bridge__body
v 0.35275750 -0.43877292 0.19440000
v 0.35275750 -0.43877292 0.48600000
v -0.50000000 -0.43877292 0.48600000
vt 0.980468750 0.269531250
vt 0.980468750 0.480468750
vt 0.875000000 0.480468750
vn 0.00000000 -1.00000000 0.00000000
f 40/40/14 41/41/14 42/42/14
g pz_sofa_seating_indoor_03_victorian_c1_1_0__rear_body_bridge__body
v 0.35275750 -0.43877292 0.19440000
v 0.35275750 -0.39021042 0.19440000
v 0.35275750 -0.39021042 0.48600000
vt 0.019531250 0.019531250
vt 0.230468750 0.019531250
vt 0.230468750 0.230468750
vn 1.00000000 0.00000000 0.00000000
f 43/43/15 44/44/15 45/45/15
g pz_sofa_seating_indoor_03_victorian_c1_1_0__rear_body_bridge__body
v 0.35275750 -0.39021042 0.48600000
v 0.35275750 -0.43877292 0.48600000
v 0.35275750 -0.43877292 0.19440000
vt 0.230468750 0.230468750
vt 0.019531250 0.230468750
vt 0.019531250 0.019531250
vn 1.00000000 0.00000000 0.00000000
f 46/46/16 47/47/16 48/48/16
g pz_sofa_seating_indoor_03_victorian_c1_1_0__rear_body_bridge__body
v 0.35275750 -0.43877292 0.48600000
v 0.35275750 -0.39021042 0.48600000
v -0.50000000 -0.39021042 0.48600000
vt 0.230468750 0.019531250
vt 0.230468750 0.230468750
vt 0.125000000 0.230468750
vn 0.00000000 -0.00000000 1.00000000
f 49/49/17 50/50/17 51/51/17
g pz_sofa_seating_indoor_03_victorian_c1_1_0__rear_body_bridge__body
v -0.50000000 -0.39021042 0.48600000
v -0.50000000 -0.43877292 0.48600000
v 0.35275750 -0.43877292 0.48600000
vt 0.125000000 0.230468750
vt 0.125000000 0.019531250
vt 0.230468750 0.019531250
vn 0.00000000 0.00000000 1.00000000
f 52/52/18 53/53/18 54/54/18
g pz_sofa_seating_indoor_03_victorian_c1_1_0__seat_1__seat
v -0.50000000 0.33051779 0.46980000
v -0.50000000 -0.27080737 0.46980000
v -0.29229819 -0.27080737 0.46980000
vt 0.125000000 0.977832034
vt 0.125000000 0.772167970
vt 0.213680833 0.772167970
vn 0.00000000 0.00000000 1.00000000
f 55/55/19 56/56/19 57/57/19
g pz_sofa_seating_indoor_03_victorian_c1_1_0__seat_1__seat
v -0.50000000 0.33051779 0.46980000
v -0.29229819 -0.27080737 0.46980000
v -0.25915428 -0.23766346 0.46980000
vt 0.125000000 0.977832034
vt 0.213680833 0.772167970
vt 0.227832032 0.783503786
vn 0.00000000 0.00000000 1.00000000
f 58/58/20 59/59/20 60/60/20
g pz_sofa_seating_indoor_03_victorian_c1_1_0__seat_1__seat
v -0.50000000 0.33051779 0.46980000
v -0.25915428 -0.23766346 0.46980000
v -0.25915428 0.29737388 0.46980000
vt 0.125000000 0.977832034
vt 0.227832032 0.783503786
vt 0.227832032 0.966496218
vn 0.00000000 0.00000000 1.00000000
f 61/61/21 62/62/21 63/63/21
g pz_sofa_seating_indoor_03_victorian_c1_1_0__seat_1__seat
v -0.25915428 0.29737388 0.46980000
v -0.29229819 0.33051779 0.46980000
v -0.50000000 0.33051779 0.46980000
vt 0.227832032 0.966496218
vt 0.213680833 0.977832034
vt 0.125000000 0.977832034
vn 0.00000000 0.00000000 1.00000000
f 64/64/22 65/65/22 66/66/22
g pz_sofa_seating_indoor_03_victorian_c1_1_0__seat_1__seat
v -0.50000000 -0.27080737 0.46980000
v -0.50000000 -0.27851667 0.36180000
v -0.28697250 -0.27851667 0.36180000
vt 0.375000000 0.980468750
vt 0.375000000 0.769531250
vt 0.465954702 0.769531250
vn 0.00000000 -0.99746197 0.07120121
f 67/67/23 68/68/23 69/69/23
g pz_sofa_seating_indoor_03_victorian_c1_1_0__seat_1__seat
v -0.28697250 -0.27851667 0.36180000
v -0.29229819 -0.27080737 0.46980000
v -0.50000000 -0.27080737 0.46980000
vt 0.465954702 0.769531250
vt 0.463680833 0.980468750
vt 0.375000000 0.980468750
vn 0.00000000 -0.99746197 0.07120121
f 70/70/24 71/71/24 72/72/24
g pz_sofa_seating_indoor_03_victorian_c1_1_0__seat_1__seat
v -0.29229819 -0.27080737 0.46980000
v -0.28697250 -0.27851667 0.36180000
v -0.25297875 -0.24452292 0.36180000
vt 0.463680833 0.980468750
vt 0.465954702 0.769531250
vt 0.480468750 0.769531250
vn 0.70454564 -0.70454564 0.08503464
f 73/73/25 74/74/25 75/75/25
g pz_sofa_seating_indoor_03_victorian_c1_1_0__seat_1__seat
v -0.25297875 -0.24452292 0.36180000
v -0.25915428 -0.23766346 0.46980000
v -0.29229819 -0.27080737 0.46980000
vt 0.531157726 0.769531250
vt 0.533503786 0.980468750
vt 0.522167970 0.980468750
vn 0.70454564 -0.70454564 0.08503464
f 76/76/26 77/77/26 78/78/26
g pz_sofa_seating_indoor_03_victorian_c1_1_0__seat_1__seat
v -0.25915428 -0.23766346 0.46980000
v -0.25297875 -0.24452292 0.36180000
v -0.25297875 0.30423333 0.36180000
vt 0.533503786 0.980468750
vt 0.531157726 0.769531250
vt 0.718842274 0.769531250
vn 0.99836917 0.00000000 0.05708759
f 79/79/27 80/80/27 81/81/27
g pz_sofa_seating_indoor_03_victorian_c1_1_0__seat_1__seat
v -0.25297875 0.30423333 0.36180000
v -0.25915428 0.29737388 0.46980000
v -0.25915428 -0.23766346 0.46980000
vt 0.718842274 0.769531250
vt 0.716496218 0.980468750
vt 0.533503786 0.980468750
vn 0.99836917 0.00000000 0.05708759
f 82/82/28 83/83/28 84/84/28
g pz_sofa_seating_indoor_03_victorian_c1_1_0__seat_1__seat
v -0.25915428 0.29737388 0.46980000
v -0.25297875 0.30423333 0.36180000
v -0.28697250 0.33822708 0.36180000
vt 0.477832032 0.980468750
vt 0.480468750 0.769531250
vt 0.465954702 0.769531250
vn 0.70454564 0.70454564 0.08503464
f 85/85/29 86/86/29 87/87/29
g pz_sofa_seating_indoor_03_victorian_c1_1_0__seat_1__seat
v -0.28697250 0.33822708 0.36180000
v -0.29229819 0.33051779 0.46980000
v -0.25915428 0.29737388 0.46980000
vt 0.730468750 0.769531250
vt 0.727832034 0.980468750
vt 0.716496218 0.980468750
vn 0.70454564 0.70454564 0.08503464
f 88/88/30 89/89/30 90/90/30
g pz_sofa_seating_indoor_03_victorian_c1_1_0__seat_1__seat
v -0.29229819 0.33051779 0.46980000
v -0.28697250 0.33822708 0.36180000
v -0.50000000 0.33822708 0.36180000
vt 0.463680833 0.980468750
vt 0.465954702 0.769531250
vt 0.375000000 0.769531250
vn 0.00000000 0.99746197 0.07120121
f 91/91/31 92/92/31 93/93/31
g pz_sofa_seating_indoor_03_victorian_c1_1_0__seat_1__seat
v -0.50000000 0.33822708 0.36180000
v -0.50000000 0.33051779 0.46980000
v -0.29229819 0.33051779 0.46980000
vt 0.375000000 0.769531250
vt 0.375000000 0.980468750
vt 0.463680833 0.980468750
vn 0.00000000 0.99746197 0.07120121
f 94/94/32 95/95/32 96/96/32
g pz_sofa_seating_indoor_03_victorian_c1_1_0__seat_2__seat
v -0.23903322 -0.23766346 0.46980000
v -0.20588931 -0.27080737 0.46980000
v 0.20951431 -0.27080737 0.46980000
vt 0.022167968 0.783503786
vt 0.036319167 0.772167970
vt 0.213680833 0.772167970
vn 0.00000000 0.00000000 1.00000000
f 97/97/33 98/98/33 99/99/33
g pz_sofa_seating_indoor_03_victorian_c1_1_0__seat_2__seat
v -0.23903322 -0.23766346 0.46980000
v 0.20951431 -0.27080737 0.46980000
v 0.24265822 -0.23766346 0.46980000
vt 0.022167968 0.783503786
vt 0.213680833 0.772167970
vt 0.227832032 0.783503786
vn -0.00000000 0.00000000 1.00000000
f 100/100/34 101/101/34 102/102/34
g pz_sofa_seating_indoor_03_victorian_c1_1_0__seat_2__seat
v -0.23903322 -0.23766346 0.46980000
v 0.24265822 -0.23766346 0.46980000
v 0.24265822 0.29737388 0.46980000
vt 0.022167968 0.783503786
vt 0.227832032 0.783503786
vt 0.227832032 0.966496218
vn 0.00000000 0.00000000 1.00000000
f 103/103/35 104/104/35 105/105/35
g pz_sofa_seating_indoor_03_victorian_c1_1_0__seat_2__seat
v -0.23903322 -0.23766346 0.46980000
v 0.24265822 0.29737388 0.46980000
v 0.20951431 0.33051779 0.46980000
vt 0.022167968 0.783503786
vt 0.227832032 0.966496218
vt 0.213680833 0.977832034
vn 0.00000000 0.00000000 1.00000000
f 106/106/36 107/107/36 108/108/36
g pz_sofa_seating_indoor_03_victorian_c1_1_0__seat_2__seat
v -0.23903322 -0.23766346 0.46980000
v 0.20951431 0.33051779 0.46980000
v -0.20588931 0.33051779 0.46980000
vt 0.022167968 0.783503786
vt 0.213680833 0.977832034
vt 0.036319167 0.977832034
vn 0.00000000 0.00000000 1.00000000
f 109/109/37 110/110/37 111/111/37
g pz_sofa_seating_indoor_03_victorian_c1_1_0__seat_2__seat
v -0.20588931 0.33051779 0.46980000
v -0.23903322 0.29737388 0.46980000
v -0.23903322 -0.23766346 0.46980000
vt 0.036319167 0.977832034
vt 0.022167968 0.966496218
vt 0.022167968 0.783503786
vn 0.00000000 0.00000000 1.00000000
f 112/112/38 113/113/38 114/114/38
g pz_sofa_seating_indoor_03_victorian_c1_1_0__seat_2__seat
v -0.20588931 -0.27080737 0.46980000
v -0.21121500 -0.27851667 0.36180000
v 0.21484000 -0.27851667 0.36180000
vt 0.286319167 0.980468750
vt 0.284045298 0.769531250
vt 0.465954702 0.769531250
vn 0.00000000 -0.99746197 0.07120121
f 115/115/39 116/116/39 117/117/39
g pz_sofa_seating_indoor_03_victorian_c1_1_0__seat_2__seat
v 0.21484000 -0.27851667 0.36180000
v 0.20951431 -0.27080737 0.46980000
v -0.20588931 -0.27080737 0.46980000
vt 0.465954702 0.769531250
vt 0.463680833 0.980468750
vt 0.286319167 0.980468750
vn 0.00000000 -0.99746197 0.07120121
f 118/118/40 119/119/40 120/120/40
g pz_sofa_seating_indoor_03_victorian_c1_1_0__seat_2__seat
v 0.20951431 -0.27080737 0.46980000
v 0.21484000 -0.27851667 0.36180000
v 0.24883375 -0.24452292 0.36180000
vt 0.522167970 0.980468750
vt 0.519531250 0.769531250
vt 0.531157726 0.769531250
vn 0.70454564 -0.70454564 0.08503464
f 121/121/41 122/122/41 123/123/41
g pz_sofa_seating_indoor_03_victorian_c1_1_0__seat_2__seat
v 0.24883375 -0.24452292 0.36180000
v 0.24265822 -0.23766346 0.46980000
v 0.20951431 -0.27080737 0.46980000
vt 0.480468750 0.769531250
vt 0.477832032 0.980468750
vt 0.463680833 0.980468750
vn 0.70454564 -0.70454564 0.08503464
f 124/124/42 125/125/42 126/126/42
g pz_sofa_seating_indoor_03_victorian_c1_1_0__seat_2__seat
v 0.24265822 -0.23766346 0.46980000
v 0.24883375 -0.24452292 0.36180000
v 0.24883375 0.30423333 0.36180000
vt 0.533503786 0.980468750
vt 0.531157726 0.769531250
vt 0.718842274 0.769531250
vn 0.99836917 0.00000000 0.05708759
f 127/127/43 128/128/43 129/129/43
g pz_sofa_seating_indoor_03_victorian_c1_1_0__seat_2__seat
v 0.24883375 0.30423333 0.36180000
v 0.24265822 0.29737388 0.46980000
v 0.24265822 -0.23766346 0.46980000
vt 0.718842274 0.769531250
vt 0.716496218 0.980468750
vt 0.533503786 0.980468750
vn 0.99836917 0.00000000 0.05708759
f 130/130/44 131/131/44 132/132/44
g pz_sofa_seating_indoor_03_victorian_c1_1_0__seat_2__seat
v 0.24265822 0.29737388 0.46980000
v 0.24883375 0.30423333 0.36180000
v 0.21484000 0.33822708 0.36180000
vt 0.716496218 0.980468750
vt 0.718842274 0.769531250
vt 0.730468750 0.769531250
vn 0.70454564 0.70454564 0.08503464
f 133/133/45 134/134/45 135/135/45
g pz_sofa_seating_indoor_03_victorian_c1_1_0__seat_2__seat
v 0.21484000 0.33822708 0.36180000
v 0.20951431 0.33051779 0.46980000
v 0.24265822 0.29737388 0.46980000
vt 0.465954702 0.769531250
vt 0.463680833 0.980468750
vt 0.477832032 0.980468750
vn 0.70454564 0.70454564 0.08503464
f 136/136/46 137/137/46 138/138/46
g pz_sofa_seating_indoor_03_victorian_c1_1_0__seat_2__seat
v 0.20951431 0.33051779 0.46980000
v 0.21484000 0.33822708 0.36180000
v -0.21121500 0.33822708 0.36180000
vt 0.463680833 0.980468750
vt 0.465954702 0.769531250
vt 0.284045298 0.769531250
vn 0.00000000 0.99746197 0.07120121
f 139/139/47 140/140/47 141/141/47
g pz_sofa_seating_indoor_03_victorian_c1_1_0__seat_2__seat
v -0.21121500 0.33822708 0.36180000
v -0.20588931 0.33051779 0.46980000
v 0.20951431 0.33051779 0.46980000
vt 0.284045298 0.769531250
vt 0.286319167 0.980468750
vt 0.463680833 0.980468750
vn 0.00000000 0.99746197 0.07120121
f 142/142/48 143/143/48 144/144/48
g pz_sofa_seating_indoor_03_victorian_c1_1_0__seat_2__seat
v -0.20588931 0.33051779 0.46980000
v -0.21121500 0.33822708 0.36180000
v -0.24520875 0.30423333 0.36180000
vt 0.727832034 0.980468750
vt 0.730468750 0.769531250
vt 0.718842274 0.769531250
vn -0.70454564 0.70454564 0.08503464
f 145/145/49 146/146/49 147/147/49
g pz_sofa_seating_indoor_03_victorian_c1_1_0__seat_2__seat
v -0.24520875 0.30423333 0.36180000
v -0.23903322 0.29737388 0.46980000
v -0.20588931 0.33051779 0.46980000
vt 0.269531250 0.769531250
vt 0.272167968 0.980468750
vt 0.286319167 0.980468750
vn -0.70454564 0.70454564 0.08503464
f 148/148/50 149/149/50 150/150/50
g pz_sofa_seating_indoor_03_victorian_c1_1_0__seat_2__seat
v -0.23903322 0.29737388 0.46980000
v -0.24520875 0.30423333 0.36180000
v -0.24520875 -0.24452292 0.36180000
vt 0.716496218 0.980468750
vt 0.718842274 0.769531250
vt 0.531157726 0.769531250
vn -0.99836917 0.00000000 0.05708759
f 151/151/51 152/152/51 153/153/51
g pz_sofa_seating_indoor_03_victorian_c1_1_0__seat_2__seat
v -0.24520875 -0.24452292 0.36180000
v -0.23903322 -0.23766346 0.46980000
v -0.23903322 0.29737388 0.46980000
vt 0.531157726 0.769531250
vt 0.533503786 0.980468750
vt 0.716496218 0.980468750
vn -0.99836917 0.00000000 0.05708759
f 154/154/52 155/155/52 156/156/52
g pz_sofa_seating_indoor_03_victorian_c1_1_0__seat_2__seat
v -0.23903322 -0.23766346 0.46980000
v -0.24520875 -0.24452292 0.36180000
v -0.21121500 -0.27851667 0.36180000
vt 0.533503786 0.980468750
vt 0.531157726 0.769531250
vt 0.519531250 0.769531250
vn -0.70454564 -0.70454564 0.08503464
f 157/157/53 158/158/53 159/159/53
g pz_sofa_seating_indoor_03_victorian_c1_1_0__seat_2__seat
v -0.21121500 -0.27851667 0.36180000
v -0.20588931 -0.27080737 0.46980000
v -0.23903322 -0.23766346 0.46980000
vt 0.519531250 0.769531250
vt 0.522167970 0.980468750
vt 0.533503786 0.980468750
vn -0.70454564 -0.70454564 0.08503464
f 160/160/54 161/161/54 162/162/54
g pz_sofa_seating_indoor_03_victorian_c1_1_0__sculpted_back__back
v -0.50000000 -0.22361581 0.46951948
v -0.50000000 -0.27314956 1.02031948
v -0.29634421 -0.27182277 1.00556591
vt 0.875000000 0.782617006
vt 0.875000000 0.974720801
vt 0.900865651 0.969575164
vn 0.00000000 0.99598061 0.08956909
f 163/163/55 164/164/55 165/165/55
g pz_sofa_seating_indoor_03_victorian_c1_1_0__sculpted_back__back
v -0.50000000 -0.22361581 0.46951948
v -0.29634421 -0.27182277 1.00556591
v -0.10965974 -0.26916917 0.97605877
vt 0.875000000 0.782617006
vt 0.900865651 0.969575164
vt 0.924575831 0.959283890
vn 0.00000000 0.99598061 0.08956909
f 166/166/56 167/167/56 168/168/56
g pz_sofa_seating_indoor_03_victorian_c1_1_0__sculpted_back__back
v -0.50000000 -0.22361581 0.46951948
v -0.10965974 -0.26916917 0.97605877
v 0.22599518 -0.26253519 0.90229091
vt 0.875000000 0.782617006
vt 0.924575831 0.959283890
vt 0.967206256 0.933555702
vn -0.00000000 0.99598061 0.08956909
f 169/169/57 170/170/57 171/171/57
g pz_sofa_seating_indoor_03_victorian_c1_1_0__sculpted_back__back
v -0.50000000 -0.22361581 0.46951948
v 0.22599518 -0.26253519 0.90229091
v 0.30613750 -0.25545894 0.82360519
vt 0.875000000 0.782617006
vt 0.967206256 0.933555702
vt 0.977384868 0.906112301
vn -0.00000000 0.99598061 0.08956909
f 172/172/58 173/173/58 174/174/58
g pz_sofa_seating_indoor_03_victorian_c1_1_0__sculpted_back__back
v 0.30613750 -0.25545894 0.82360519
v 0.30142325 -0.22361581 0.46951948
v -0.50000000 -0.22361581 0.46951948
vt 0.977384868 0.906112301
vt 0.976786127 0.782617006
vt 0.875000000 0.782617006
vn 0.00000000 0.99598061 0.08956909
f 175/175/59 176/176/59 177/177/59
g pz_sofa_seating_indoor_03_victorian_c1_1_0__sculpted_back__back
v -0.50000000 -0.46402542 1.03680000
v -0.50000000 -0.40963542 0.43200000
v 0.32556250 -0.40963542 0.43200000
vt 0.125000000 0.730468750
vt 0.125000000 0.519531250
vt 0.229851974 0.519531250
vn 0.00000000 -0.99598061 -0.08956909
f 178/178/60 179/179/60 180/180/60
g pz_sofa_seating_indoor_03_victorian_c1_1_0__sculpted_back__back
v -0.50000000 -0.46402542 1.03680000
v 0.32556250 -0.40963542 0.43200000
v 0.33041875 -0.44460042 0.82080000
vt 0.125000000 0.730468750
vt 0.229851974 0.519531250
vt 0.230468750 0.655133929
vn 0.00000000 -0.99598061 -0.08956909
f 181/181/61 182/182/61 183/183/61
g pz_sofa_seating_indoor_03_victorian_c1_1_0__sculpted_back__back
v -0.50000000 -0.46402542 1.03680000
v 0.33041875 -0.44460042 0.82080000
v 0.24786250 -0.45237042 0.90720000
vt 0.125000000 0.730468750
vt 0.230468750 0.655133929
vt 0.219983553 0.685267857
vn 0.00000000 -0.99598061 -0.08956909
f 184/184/62 185/185/62 186/186/62
g pz_sofa_seating_indoor_03_victorian_c1_1_0__sculpted_back__back
v -0.50000000 -0.46402542 1.03680000
v 0.24786250 -0.45237042 0.90720000
v -0.09790250 -0.45965479 0.98820000
vt 0.125000000 0.730468750
vt 0.219983553 0.685267857
vt 0.176069079 0.713518415
vn 0.00000000 -0.99598061 -0.08956909
f 187/187/63 188/188/63 189/189/63
g pz_sofa_seating_indoor_03_victorian_c1_1_0__sculpted_back__back
v -0.09790250 -0.45965479 0.98820000
v -0.29021000 -0.46256854 1.02060000
v -0.50000000 -0.46402542 1.03680000
vt 0.176069079 0.713518415
vt 0.151644737 0.724818638
vt 0.125000000 0.730468750
vn 0.00000000 -0.99598061 -0.08956909
f 190/190/64 191/191/64 192/192/64
g pz_sofa_seating_indoor_03_victorian_c1_1_0__sculpted_back__frame
v -0.50000000 -0.24452292 0.43200000
v -0.50000000 -0.22361581 0.46951948
v 0.30142325 -0.22361581 0.46951948
vt 0.375000000 0.019531250
vt 0.375000000 0.032617006
vt 0.476786127 0.032617006
vn 0.00000000 0.87353440 -0.48676242
f 193/193/65 194/194/65 195/195/65
g pz_sofa_seating_indoor_03_victorian_c1_1_0__sculpted_back__frame
v 0.30142325 -0.22361581 0.46951948
v 0.32556250 -0.24452292 0.43200000
v -0.50000000 -0.24452292 0.43200000
vt 0.476786127 0.032617006
vt 0.479851974 0.019531250
vt 0.375000000 0.019531250
vn 0.00000000 0.87353440 -0.48676242
f 196/196/66 197/197/66 198/198/66
g pz_sofa_seating_indoor_03_victorian_c1_1_0__sculpted_back__frame
v 0.32556250 -0.24452292 0.43200000
v 0.30142325 -0.22361581 0.46951948
v 0.30613750 -0.25545894 0.82360519
vt 0.479851974 0.019531250
vt 0.476786127 0.032617006
vt 0.477384868 0.156112301
vn 0.70087204 0.71119218 0.05462658
f 199/199/67 200/200/67 201/201/67
g pz_sofa_seating_indoor_03_victorian_c1_1_0__sculpted_back__frame
v 0.30613750 -0.25545894 0.82360519
v 0.33041875 -0.27948792 0.82080000
v 0.32556250 -0.24452292 0.43200000
vt 0.477384868 0.156112301
vt 0.480468750 0.155133929
vt 0.479851974 0.019531250
vn 0.70553779 0.70655588 0.05472855
f 202/202/68 203/203/68 204/204/68
g pz_sofa_seating_indoor_03_victorian_c1_1_0__sculpted_back__back
v 0.32556250 -0.40963542 0.43200000
v 0.32556250 -0.24452292 0.43200000
v 0.33041875 -0.27948792 0.82080000
vt 0.317253513 0.519531250
vt 0.462124668 0.519531250
vt 0.431446071 0.655133929
vn 0.99992200 0.00000000 -0.01248938
f 205/205/69 206/206/69 207/207/69
g pz_sofa_seating_indoor_03_victorian_c1_1_0__sculpted_back__back
v 0.33041875 -0.27948792 0.82080000
v 0.33041875 -0.44460042 0.82080000
v 0.32556250 -0.40963542 0.43200000
vt 0.431446071 0.655133929
vt 0.286574915 0.655133929
vt 0.317253513 0.519531250
vn 0.99992200 0.00000000 -0.01248938
f 208/208/70 209/209/70 210/210/70
g pz_sofa_seating_indoor_03_victorian_c1_1_0__sculpted_back__frame
v 0.33041875 -0.27948792 0.82080000
v 0.30613750 -0.25545894 0.82360519
v 0.22599518 -0.26253519 0.90229091
vt 0.730468750 0.073948490
vt 0.727384868 0.141263331
vt 0.717206256 0.121439908
vn 0.57891475 0.51079506 0.63556756
f 211/211/71 212/212/71 213/213/71
g pz_sofa_seating_indoor_03_victorian_c1_1_0__sculpted_back__frame
v 0.22599518 -0.26253519 0.90229091
v 0.24786250 -0.28725792 0.90720000
v 0.33041875 -0.27948792 0.82080000
vt 0.467206256 0.183555702
vt 0.469983553 0.185267857
vt 0.480468750 0.155133929
vn 0.54990077 0.60146310 0.57952678
f 214/214/72 215/215/72 216/216/72
g pz_sofa_seating_indoor_03_victorian_c1_1_0__sculpted_back__back
v 0.33041875 -0.44460042 0.82080000
v 0.33041875 -0.27948792 0.82080000
v 0.24786250 -0.28725792 0.90720000
vt 0.286574915 0.655133929
vt 0.431446071 0.655133929
vt 0.424628605 0.685267857
vn 0.72300637 -0.00000000 0.69084137
f 217/217/73 218/218/73 219/219/73
g pz_sofa_seating_indoor_03_victorian_c1_1_0__sculpted_back__back
v 0.24786250 -0.28725792 0.90720000
v 0.24786250 -0.45237042 0.90720000
v 0.33041875 -0.44460042 0.82080000
vt 0.424628605 0.685267857
vt 0.279757449 0.685267857
vt 0.286574915 0.655133929
vn 0.72300637 0.00000000 0.69084137
f 220/220/74 221/221/74 222/222/74
g pz_sofa_seating_indoor_03_victorian_c1_1_0__sculpted_back__frame
v 0.24786250 -0.28725792 0.90720000
v 0.22599518 -0.26253519 0.90229091
v -0.10965974 -0.26916917 0.97605877
vt 0.719983553 0.052181594
vt 0.717206256 0.121439908
vt 0.674575831 0.102855461
vn 0.19412951 0.35341609 0.91510153
f 223/223/75 224/224/75 225/225/75
g pz_sofa_seating_indoor_03_victorian_c1_1_0__sculpted_back__frame
v -0.10965974 -0.26916917 0.97605877
v -0.09790250 -0.29454229 0.98820000
v 0.24786250 -0.28725792 0.90720000
vt 0.674575831 0.102855461
vt 0.676069079 0.031775143
vt 0.719983553 0.052181594
vn 0.18849391 0.49360323 0.84901466
f 226/226/76 227/227/76 228/228/76
g pz_sofa_seating_indoor_03_victorian_c1_1_0__sculpted_back__back
v 0.24786250 -0.45237042 0.90720000
v 0.24786250 -0.28725792 0.90720000
v -0.09790250 -0.29454229 0.98820000
vt 0.469983553 0.529757449
vt 0.469983553 0.674628605
vt 0.426069079 0.668237234
vn 0.22808810 -0.00000000 0.97364050
f 229/229/77 230/230/77 231/231/77
g pz_sofa_seating_indoor_03_victorian_c1_1_0__sculpted_back__back
v -0.09790250 -0.29454229 0.98820000
v -0.09790250 -0.45965479 0.98820000
v 0.24786250 -0.45237042 0.90720000
vt 0.426069079 0.668237234
vt 0.426069079 0.523366079
vt 0.469983553 0.529757449
vn 0.22808810 0.00000000 0.97364050
f 232/232/78 233/233/78 234/234/78
g pz_sofa_seating_indoor_03_victorian_c1_1_0__sculpted_back__frame
v -0.09790250 -0.29454229 0.98820000
v -0.10965974 -0.26916917 0.97605877
v -0.29634421 -0.27182277 1.00556591
vt 0.676069079 0.031775143
vt 0.674575831 0.102855461
vt 0.650865651 0.095421660
vn 0.13064095 0.47654510 0.86938928
f 235/235/79 236/236/79 237/237/79
g pz_sofa_seating_indoor_03_victorian_c1_1_0__sculpted_back__frame
v -0.29634421 -0.27182277 1.00556591
v -0.29021000 -0.29745604 1.02060000
v -0.09790250 -0.29454229 0.98820000
vt 0.650865651 0.095421660
vt 0.651644737 0.023612557
vt 0.676069079 0.031775143
vn 0.13366265 0.52497764 0.84055504
f 238/238/80 239/239/80 240/240/80
g pz_sofa_seating_indoor_03_victorian_c1_1_0__sculpted_back__back
v -0.09790250 -0.45965479 0.98820000
v -0.09790250 -0.29454229 0.98820000
v -0.29021000 -0.29745604 1.02060000
vt 0.426069079 0.523366079
vt 0.426069079 0.668237234
vt 0.401644737 0.665680685
vn 0.16613870 -0.00000000 0.98610239
f 241/241/81 242/242/81 243/243/81
g pz_sofa_seating_indoor_03_victorian_c1_1_0__sculpted_back__back
v -0.29021000 -0.29745604 1.02060000
v -0.29021000 -0.46256854 1.02060000
v -0.09790250 -0.45965479 0.98820000
vt 0.401644737 0.665680685
vt 0.401644737 0.520809529
vt 0.426069079 0.523366079
vn 0.16613870 0.00000000 0.98610239
f 244/244/82 245/245/82 246/246/82
g pz_sofa_seating_indoor_03_victorian_c1_1_0__sculpted_back__frame
v -0.29021000 -0.29745604 1.02060000
v -0.29634421 -0.27182277 1.00556591
v -0.50000000 -0.27314956 1.02031948
vt 0.651644737 0.023612557
vt 0.650865651 0.095421660
vt 0.625000000 0.091704787
vn 0.05857579 0.51543615 0.85492365
f 247/247/83 248/248/83 249/249/83
g pz_sofa_seating_indoor_03_victorian_c1_1_0__sculpted_back__frame
v -0.50000000 -0.27314956 1.02031948
v -0.50000000 -0.29891292 1.03680000
v -0.29021000 -0.29745604 1.02060000
vt 0.625000000 0.091704787
vt 0.625000000 0.019531250
vt 0.651644737 0.023612557
vn 0.06119244 0.53785767 0.84081188
f 250/250/84 251/251/84 252/252/84
g pz_sofa_seating_indoor_03_victorian_c1_1_0__sculpted_back__back
v -0.29021000 -0.46256854 1.02060000
v -0.29021000 -0.29745604 1.02060000
v -0.50000000 -0.29891292 1.03680000
vt 0.401644737 0.520809529
vt 0.401644737 0.665680685
vt 0.375000000 0.664402405
vn 0.07699087 -0.00000000 0.99703180
f 253/253/85 254/254/85 255/255/85
g pz_sofa_seating_indoor_03_victorian_c1_1_0__sculpted_back__back
v -0.50000000 -0.29891292 1.03680000
v -0.50000000 -0.46402542 1.03680000
v -0.29021000 -0.46256854 1.02060000
vt 0.375000000 0.664402405
vt 0.375000000 0.519531250
vt 0.401644737 0.520809529
vn 0.07699087 0.00000000 0.99703180
f 256/256/86 257/257/86 258/258/86
g pz_sofa_seating_indoor_03_victorian_c1_1_0__curved_victorian_side_1__arm
v 0.27700000 -0.40963542 0.18360000
v 0.27700000 -0.40963542 0.80460000
v 0.27700000 -0.33679167 0.78300000
vt 0.769531250 0.519531250
vt 0.769531250 0.730468750
vt 0.790077110 0.723131793
vn -1.00000000 0.00000000 0.00000000
f 259/259/87 260/260/87 261/261/87
g pz_sofa_seating_indoor_03_victorian_c1_1_0__curved_victorian_side_1__arm
v 0.27700000 -0.40963542 0.18360000
v 0.27700000 -0.33679167 0.78300000
v 0.27700000 0.26538333 0.61020000
vt 0.769531250 0.519531250
vt 0.790077110 0.723131793
vt 0.959922890 0.664436141
vn -1.00000000 0.00000000 0.00000000
f 262/262/88 263/263/88 264/264/88
g pz_sofa_seating_indoor_03_victorian_c1_1_0__curved_victorian_side_1__arm
v 0.27700000 -0.40963542 0.18360000
v 0.27700000 0.26538333 0.61020000
v 0.27700000 0.33822708 0.56700000
vt 0.769531250 0.519531250
vt 0.959922890 0.664436141
vt 0.980468750 0.649762228
vn -1.00000000 0.00000000 0.00000000
f 265/265/89 266/266/89 267/267/89
g pz_sofa_seating_indoor_03_victorian_c1_1_0__curved_victorian_side_1__arm
v 0.27700000 0.33822708 0.56700000
v 0.27700000 0.33822708 0.18360000
v 0.27700000 -0.40963542 0.18360000
vt 0.980468750 0.649762228
vt 0.980468750 0.519531250
vt 0.769531250 0.519531250
vn -1.00000000 0.00000000 -0.00000000
f 268/268/90 269/269/90 270/270/90
g pz_sofa_seating_indoor_03_victorian_c1_1_0__curved_victorian_side_1__arm
v 0.36247000 -0.40963542 0.80460000
v 0.36247000 -0.40963542 0.18360000
v 0.36247000 0.33822708 0.18360000
vt 0.519531250 0.730468750
vt 0.519531250 0.519531250
vt 0.730468750 0.519531250
vn 1.00000000 0.00000000 0.00000000
f 271/271/91 272/272/91 273/273/91
g pz_sofa_seating_indoor_03_victorian_c1_1_0__curved_victorian_side_1__arm
v 0.36247000 -0.40963542 0.80460000
v 0.36247000 0.33822708 0.18360000
v 0.36247000 0.33822708 0.56700000
vt 0.519531250 0.730468750
vt 0.730468750 0.519531250
vt 0.730468750 0.649762228
vn 1.00000000 0.00000000 0.00000000
f 274/274/92 275/275/92 276/276/92
g pz_sofa_seating_indoor_03_victorian_c1_1_0__curved_victorian_side_1__arm
v 0.36247000 0.33822708 0.56700000
v 0.36247000 0.26538333 0.61020000
v 0.36247000 -0.33679167 0.78300000
vt 0.730468750 0.649762228
vt 0.709922890 0.664436141
vt 0.540077110 0.723131793
vn 1.00000000 0.00000000 0.00000000
f 277/277/93 278/278/93 279/279/93
g pz_sofa_seating_indoor_03_victorian_c1_1_0__curved_victorian_side_1__arm
v 0.36247000 0.33822708 0.56700000
v 0.36247000 -0.33679167 0.78300000
v 0.36247000 -0.40963542 0.80460000
vt 0.730468750 0.649762228
vt 0.540077110 0.723131793
vt 0.519531250 0.730468750
vn 1.00000000 0.00000000 0.00000000
f 280/280/94 281/281/94 282/282/94
g pz_sofa_seating_indoor_03_victorian_c1_1_0__curved_victorian_side_1__arm
v 0.36247000 0.33822708 0.18360000
v 0.27700000 0.33822708 0.18360000
v 0.27700000 0.33822708 0.56700000
vt 0.480468750 0.269531250
vt 0.269531250 0.269531250
vt 0.269531250 0.399762228
vn 0.00000000 1.00000000 0.00000000
f 283/283/95 284/284/95 285/285/95
g pz_sofa_seating_indoor_03_victorian_c1_1_0__curved_victorian_side_1__arm
v 0.27700000 0.33822708 0.56700000
v 0.36247000 0.33822708 0.56700000
v 0.36247000 0.33822708 0.18360000
vt 0.269531250 0.399762228
vt 0.480468750 0.399762228
vt 0.480468750 0.269531250
vn -0.00000000 1.00000000 0.00000000
f 286/286/96 287/287/96 288/288/96
g pz_sofa_seating_indoor_03_victorian_c1_1_0__curved_victorian_side_1__arm
v 0.36247000 0.33822708 0.56700000
v 0.27700000 0.33822708 0.56700000
v 0.27700000 0.26538333 0.61020000
vt 0.230468750 0.480468750
vt 0.230468750 0.269531250
vt 0.209922890 0.269531250
vn 0.00000000 0.51009366 0.86011886
f 289/289/97 290/290/97 291/291/97
g pz_sofa_seating_indoor_03_victorian_c1_1_0__curved_victorian_side_1__arm
v 0.27700000 0.26538333 0.61020000
v 0.36247000 0.26538333 0.61020000
v 0.36247000 0.33822708 0.56700000
vt 0.209922890 0.269531250
vt 0.209922890 0.480468750
vt 0.230468750 0.480468750
vn -0.00000000 0.51009366 0.86011886
f 292/292/98 293/293/98 294/294/98
g pz_sofa_seating_indoor_03_victorian_c1_1_0__curved_victorian_side_1__arm
v 0.36247000 0.26538333 0.61020000
v 0.27700000 0.26538333 0.61020000
v 0.27700000 -0.33679167 0.78300000
vt 0.209922890 0.480468750
vt 0.209922890 0.269531250
vt 0.040077110 0.269531250
vn 0.00000000 0.27582776 0.96120708
f 295/295/99 296/296/99 297/297/99
g pz_sofa_seating_indoor_03_victorian_c1_1_0__curved_victorian_side_1__arm
v 0.27700000 -0.33679167 0.78300000
v 0.36247000 -0.33679167 0.78300000
v 0.36247000 0.26538333 0.61020000
vt 0.040077110 0.269531250
vt 0.040077110 0.480468750
vt 0.209922890 0.480468750
vn -0.00000000 0.27582776 0.96120708
f 298/298/100 299/299/100 300/300/100
g pz_sofa_seating_indoor_03_victorian_c1_1_0__curved_victorian_side_1__arm
v 0.36247000 -0.33679167 0.78300000
v 0.27700000 -0.33679167 0.78300000
v 0.27700000 -0.40963542 0.80460000
vt 0.040077110 0.480468750
vt 0.040077110 0.269531250
vt 0.019531250 0.269531250
vn 0.00000000 0.28428998 0.95873834
f 301/301/101 302/302/101 303/303/101
g pz_sofa_seating_indoor_03_victorian_c1_1_0__curved_victorian_side_1__arm
v 0.27700000 -0.40963542 0.80460000
v 0.36247000 -0.40963542 0.80460000
v 0.36247000 -0.33679167 0.78300000
vt 0.019531250 0.269531250
vt 0.019531250 0.480468750
vt 0.040077110 0.480468750
vn -0.00000000 0.28428998 0.95873834
f 304/304/102 305/305/102 306/306/102
g pz_sofa_seating_indoor_03_victorian_c1_1_0__curved_victorian_side_1__arm
v 0.36247000 -0.40963542 0.80460000
v 0.27700000 -0.40963542 0.80460000
v 0.27700000 -0.40963542 0.18360000
vt 0.480468750 0.480468750
vt 0.269531250 0.480468750
vt 0.269531250 0.269531250
vn -0.00000000 -1.00000000 0.00000000
f 307/307/103 308/308/103 309/309/103
g pz_sofa_seating_indoor_03_victorian_c1_1_0__curved_victorian_side_1__arm
v 0.27700000 -0.40963542 0.18360000
v 0.36247000 -0.40963542 0.18360000
v 0.36247000 -0.40963542 0.80460000
vt 0.269531250 0.269531250
vt 0.480468750 0.269531250
vt 0.480468750 0.480468750
vn 0.00000000 -1.00000000 0.00000000
f 310/310/104 311/311/104 312/312/104
g pz_sofa_seating_indoor_03_victorian_c1_1_0__victorian_roll_1_0__arm
v 0.35227188 -0.40477917 0.73113440
v 0.38480875 -0.40477917 0.79380000
v 0.35227188 -0.40477917 0.85646560
vt 0.427734383 0.361667207
vt 0.480468750 0.421067978
vt 0.427734383 0.480468750
vn 0.00000000 -1.00000000 0.00000000
f 313/313/105 314/314/105 315/315/105
g pz_sofa_seating_indoor_03_victorian_c1_1_0__victorian_roll_1_0__arm
v 0.35227188 -0.40477917 0.73113440
v 0.35227188 -0.40477917 0.85646560
v 0.28719813 -0.40477917 0.85646560
vt 0.427734383 0.361667207
vt 0.427734383 0.480468750
vt 0.322265633 0.480468750
vn 0.00000000 -1.00000000 0.00000000
f 316/316/106 317/317/106 318/318/106
g pz_sofa_seating_indoor_03_victorian_c1_1_0__victorian_roll_1_0__arm
v 0.35227188 -0.40477917 0.73113440
v 0.28719813 -0.40477917 0.85646560
v 0.25466125 -0.40477917 0.79380000
vt 0.427734383 0.361667207
vt 0.322265633 0.480468750
vt 0.269531250 0.421067978
vn 0.00000000 -1.00000000 0.00000000
f 319/319/107 320/320/107 321/321/107
g pz_sofa_seating_indoor_03_victorian_c1_1_0__victorian_roll_1_0__arm
v 0.25466125 -0.40477917 0.79380000
v 0.28719812 -0.40477917 0.73113440
v 0.35227188 -0.40477917 0.73113440
vt 0.269531250 0.421067978
vt 0.322265617 0.361667207
vt 0.427734383 0.361667207
vn 0.00000000 -1.00000000 0.00000000
f 322/322/108 323/323/108 324/324/108
g pz_sofa_seating_indoor_03_victorian_c1_1_0__victorian_roll_1_0__arm
v 0.38480875 -0.14254167 0.69660000
v 0.35227188 -0.14254167 0.63393440
v 0.28719812 -0.14254167 0.63393440
vt 0.480468750 0.328932022
vt 0.427734383 0.269531250
vt 0.322265617 0.269531250
vn 0.00000000 1.00000000 0.00000000
f 325/325/109 326/326/109 327/327/109
g pz_sofa_seating_indoor_03_victorian_c1_1_0__victorian_roll_1_0__arm
v 0.38480875 -0.14254167 0.69660000
v 0.28719812 -0.14254167 0.63393440
v 0.25466125 -0.14254167 0.69660000
vt 0.480468750 0.328932022
vt 0.322265617 0.269531250
vt 0.269531250 0.328932022
vn 0.00000000 1.00000000 0.00000000
f 328/328/110 329/329/110 330/330/110
g pz_sofa_seating_indoor_03_victorian_c1_1_0__victorian_roll_1_0__arm
v 0.38480875 -0.14254167 0.69660000
v 0.25466125 -0.14254167 0.69660000
v 0.28719813 -0.14254167 0.75926560
vt 0.480468750 0.328932022
vt 0.269531250 0.328932022
vt 0.322265633 0.388332793
vn 0.00000000 1.00000000 0.00000000
f 331/331/111 332/332/111 333/333/111
g pz_sofa_seating_indoor_03_victorian_c1_1_0__victorian_roll_1_0__arm
v 0.28719813 -0.14254167 0.75926560
v 0.35227188 -0.14254167 0.75926560
v 0.38480875 -0.14254167 0.69660000
vt 0.322265633 0.388332793
vt 0.427734383 0.388332793
vt 0.480468750 0.328932022
vn -0.00000000 1.00000000 0.00000000
f 334/334/112 335/335/112 336/336/112
g pz_sofa_seating_indoor_03_victorian_c1_1_0__victorian_roll_1_0__arm
v 0.35227188 -0.40477917 0.85646560
v 0.38480875 -0.40477917 0.79380000
v 0.38480875 -0.14254167 0.69660000
vt 0.519531250 0.730468750
vt 0.519531250 0.671067978
vt 0.730468750 0.578932022
vn 0.87483321 0.16836173 0.45422592
f 337/337/113 338/338/113 339/339/113
g pz_sofa_seating_indoor_03_victorian_c1_1_0__victorian_roll_1_0__arm
v 0.38480875 -0.14254167 0.69660000
v 0.35227188 -0.14254167 0.75926560
v 0.35227188 -0.40477917 0.85646560
vt 0.730468750 0.578932022
vt 0.730468750 0.638332793
vt 0.519531250 0.730468750
vn 0.87483321 0.16836173 0.45422592
f 340/340/114 341/341/114 342/342/114
g pz_sofa_seating_indoor_03_victorian_c1_1_0__victorian_roll_1_0__arm
v 0.28719813 -0.40477917 0.85646560
v 0.35227188 -0.40477917 0.85646560
v 0.35227188 -0.14254167 0.75926560
vt 0.019531250 0.322265633
vt 0.019531250 0.427734383
vt 0.230468750 0.427734383
vn 0.00000000 0.34755017 0.93766139
f 343/343/115 344/344/115 345/345/115
g pz_sofa_seating_indoor_03_victorian_c1_1_0__victorian_roll_1_0__arm
v 0.35227188 -0.14254167 0.75926560
v 0.28719813 -0.14254167 0.75926560
v 0.28719813 -0.40477917 0.85646560
vt 0.230468750 0.427734383
vt 0.230468750 0.322265633
vt 0.019531250 0.322265633
vn 0.00000000 0.34755017 0.93766139
f 346/346/116 347/347/116 348/348/116
g pz_sofa_seating_indoor_03_victorian_c1_1_0__victorian_roll_1_0__arm
v 0.25466125 -0.40477917 0.79380000
v 0.28719813 -0.40477917 0.85646560
v 0.28719813 -0.14254167 0.75926560
vt 0.769531250 0.671067978
vt 0.769531250 0.730468750
vt 0.980468750 0.638332793
vn -0.87483321 0.16836173 0.45422592
f 349/349/117 350/350/117 351/351/117
g pz_sofa_seating_indoor_03_victorian_c1_1_0__victorian_roll_1_0__arm
v 0.28719813 -0.14254167 0.75926560
v 0.25466125 -0.14254167 0.69660000
v 0.25466125 -0.40477917 0.79380000
vt 0.980468750 0.638332793
vt 0.980468750 0.578932022
vt 0.769531250 0.671067978
vn -0.87483321 0.16836173 0.45422592
f 352/352/118 353/353/118 354/354/118
g pz_sofa_seating_indoor_03_victorian_c1_1_0__victorian_roll_1_0__arm
v 0.28719812 -0.40477917 0.73113440
v 0.25466125 -0.40477917 0.79380000
v 0.25466125 -0.14254167 0.69660000
vt 0.769531250 0.611667207
vt 0.769531250 0.671067978
vt 0.980468750 0.578932022
vn -0.87483321 -0.16836173 -0.45422592
f 355/355/119 356/356/119 357/357/119
g pz_sofa_seating_indoor_03_victorian_c1_1_0__victorian_roll_1_0__arm
v 0.25466125 -0.14254167 0.69660000
v 0.28719812 -0.14254167 0.63393440
v 0.28719812 -0.40477917 0.73113440
vt 0.980468750 0.578932022
vt 0.980468750 0.519531250
vt 0.769531250 0.611667207
vn -0.87483321 -0.16836173 -0.45422592
f 358/358/120 359/359/120 360/360/120
g pz_sofa_seating_indoor_03_victorian_c1_1_0__victorian_roll_1_0__arm
v 0.35227188 -0.40477917 0.73113440
v 0.28719812 -0.40477917 0.73113440
v 0.28719812 -0.14254167 0.63393440
vt 0.019531250 0.427734383
vt 0.019531250 0.322265617
vt 0.230468750 0.322265617
vn -0.00000000 -0.34755017 -0.93766139
f 361/361/121 362/362/121 363/363/121
g pz_sofa_seating_indoor_03_victorian_c1_1_0__victorian_roll_1_0__arm
v 0.28719812 -0.14254167 0.63393440
v 0.35227188 -0.14254167 0.63393440
v 0.35227188 -0.40477917 0.73113440
vt 0.230468750 0.322265617
vt 0.230468750 0.427734383
vt 0.019531250 0.427734383
vn -0.00000000 -0.34755017 -0.93766139
f 364/364/122 365/365/122 366/366/122
g pz_sofa_seating_indoor_03_victorian_c1_1_0__victorian_roll_1_0__arm
v 0.38480875 -0.40477917 0.79380000
v 0.35227188 -0.40477917 0.73113440
v 0.35227188 -0.14254167 0.63393440
vt 0.519531250 0.671067978
vt 0.519531250 0.611667207
vt 0.730468750 0.519531250
vn 0.87483321 -0.16836173 -0.45422592
f 367/367/123 368/368/123 369/369/123
g pz_sofa_seating_indoor_03_victorian_c1_1_0__victorian_roll_1_0__arm
v 0.35227188 -0.14254167 0.63393440
v 0.38480875 -0.14254167 0.69660000
v 0.38480875 -0.40477917 0.79380000
vt 0.730468750 0.519531250
vt 0.730468750 0.578932022
vt 0.519531250 0.671067978
vn 0.87483321 -0.16836173 -0.45422592
f 370/370/124 371/371/124 372/372/124
g pz_sofa_seating_indoor_03_victorian_c1_1_0__victorian_roll_1_1__arm
v 0.35227188 -0.14254167 0.63393440
v 0.38480875 -0.14254167 0.69660000
v 0.35227188 -0.14254167 0.75926560
vt 0.427734383 0.348896102
vt 0.480468750 0.414682426
vt 0.427734383 0.480468750
vn 0.00000000 -1.00000000 0.00000000
f 373/373/125 374/374/125 375/375/125
g pz_sofa_seating_indoor_03_victorian_c1_1_0__victorian_roll_1_1__arm
v 0.35227188 -0.14254167 0.63393440
v 0.35227188 -0.14254167 0.75926560
v 0.28719813 -0.14254167 0.75926560
vt 0.427734383 0.348896102
vt 0.427734383 0.480468750
vt 0.322265633 0.480468750
vn 0.00000000 -1.00000000 0.00000000
f 376/376/126 377/377/126 378/378/126
g pz_sofa_seating_indoor_03_victorian_c1_1_0__victorian_roll_1_1__arm
v 0.35227188 -0.14254167 0.63393440
v 0.28719813 -0.14254167 0.75926560
v 0.25466125 -0.14254167 0.69660000
vt 0.427734383 0.348896102
vt 0.322265633 0.480468750
vt 0.269531250 0.414682426
vn 0.00000000 -1.00000000 0.00000000
f 379/379/127 380/380/127 381/381/127
g pz_sofa_seating_indoor_03_victorian_c1_1_0__victorian_roll_1_1__arm
v 0.25466125 -0.14254167 0.69660000
v 0.28719812 -0.14254167 0.63393440
v 0.35227188 -0.14254167 0.63393440
vt 0.269531250 0.414682426
vt 0.322265617 0.348896102
vt 0.427734383 0.348896102
vn 0.00000000 -1.00000000 0.00000000
f 382/382/128 383/383/128 384/384/128
g pz_sofa_seating_indoor_03_victorian_c1_1_0__victorian_roll_1_1__arm
v 0.38480875 0.10998333 0.62100000
v 0.35227188 0.10998333 0.55833440
v 0.28719812 0.10998333 0.55833440
vt 0.480468750 0.335317574
vt 0.427734383 0.269531250
vt 0.322265617 0.269531250
vn 0.00000000 1.00000000 0.00000000
f 385/385/129 386/386/129 387/387/129
g pz_sofa_seating_indoor_03_victorian_c1_1_0__victorian_roll_1_1__arm
v 0.38480875 0.10998333 0.62100000
v 0.28719812 0.10998333 0.55833440
v 0.25466125 0.10998333 0.62100000
vt 0.480468750 0.335317574
vt 0.322265617 0.269531250
vt 0.269531250 0.335317574
vn 0.00000000 1.00000000 0.00000000
f 388/388/130 389/389/130 390/390/130
g pz_sofa_seating_indoor_03_victorian_c1_1_0__victorian_roll_1_1__arm
v 0.38480875 0.10998333 0.62100000
v 0.25466125 0.10998333 0.62100000
v 0.28719813 0.10998333 0.68366560
vt 0.480468750 0.335317574
vt 0.269531250 0.335317574
vt 0.322265633 0.401103898
vn 0.00000000 1.00000000 0.00000000
f 391/391/131 392/392/131 393/393/131
g pz_sofa_seating_indoor_03_victorian_c1_1_0__victorian_roll_1_1__arm
v 0.28719813 0.10998333 0.68366560
v 0.35227188 0.10998333 0.68366560
v 0.38480875 0.10998333 0.62100000
vt 0.322265633 0.401103898
vt 0.427734383 0.401103898
vt 0.480468750 0.335317574
vn -0.00000000 1.00000000 0.00000000
f 394/394/132 395/395/132 396/396/132
g pz_sofa_seating_indoor_03_victorian_c1_1_0__victorian_roll_1_1__arm
v 0.35227188 -0.14254167 0.75926560
v 0.38480875 -0.14254167 0.69660000
v 0.38480875 0.10998333 0.62100000
vt 0.519531250 0.730468750
vt 0.519531250 0.664682426
vt 0.730468750 0.585317574
vn 0.87917559 0.13665945 0.45648054
f 397/397/133 398/398/133 399/399/133
g pz_sofa_seating_indoor_03_victorian_c1_1_0__victorian_roll_1_1__arm
v 0.38480875 0.10998333 0.62100000
v 0.35227188 0.10998333 0.68366560
v 0.35227188 -0.14254167 0.75926560
vt 0.730468750 0.585317574
vt 0.730468750 0.651103898
vt 0.519531250 0.730468750
vn 0.87917559 0.13665945 0.45648054
f 400/400/134 401/401/134 402/402/134
g pz_sofa_seating_indoor_03_victorian_c1_1_0__victorian_roll_1_1__arm
v 0.28719813 -0.14254167 0.75926560
v 0.35227188 -0.14254167 0.75926560
v 0.35227188 0.10998333 0.68366560
vt 0.019531250 0.322265633
vt 0.019531250 0.427734383
vt 0.230468750 0.427734383
vn -0.00000000 0.28679967 0.95799058
f 403/403/135 404/404/135 405/405/135
g pz_sofa_seating_indoor_03_victorian_c1_1_0__victorian_roll_1_1__arm
v 0.35227188 0.10998333 0.68366560
v 0.28719813 0.10998333 0.68366560
v 0.28719813 -0.14254167 0.75926560
vt 0.230468750 0.427734383
vt 0.230468750 0.322265633
vt 0.019531250 0.322265633
vn 0.00000000 0.28679967 0.95799058
f 406/406/136 407/407/136 408/408/136
g pz_sofa_seating_indoor_03_victorian_c1_1_0__victorian_roll_1_1__arm
v 0.25466125 -0.14254167 0.69660000
v 0.28719813 -0.14254167 0.75926560
v 0.28719813 0.10998333 0.68366560
vt 0.769531250 0.664682426
vt 0.769531250 0.730468750
vt 0.980468750 0.651103898
vn -0.87917559 0.13665945 0.45648054
f 409/409/137 410/410/137 411/411/137
g pz_sofa_seating_indoor_03_victorian_c1_1_0__victorian_roll_1_1__arm
v 0.28719813 0.10998333 0.68366560
v 0.25466125 0.10998333 0.62100000
v 0.25466125 -0.14254167 0.69660000
vt 0.980468750 0.651103898
vt 0.980468750 0.585317574
vt 0.769531250 0.664682426
vn -0.87917559 0.13665945 0.45648054
f 412/412/138 413/413/138 414/414/138
g pz_sofa_seating_indoor_03_victorian_c1_1_0__victorian_roll_1_1__arm
v 0.28719812 -0.14254167 0.63393440
v 0.25466125 -0.14254167 0.69660000
v 0.25466125 0.10998333 0.62100000
vt 0.769531250 0.598896102
vt 0.769531250 0.664682426
vt 0.980468750 0.585317574
vn -0.87917559 -0.13665945 -0.45648054
f 415/415/139 416/416/139 417/417/139
g pz_sofa_seating_indoor_03_victorian_c1_1_0__victorian_roll_1_1__arm
v 0.25466125 0.10998333 0.62100000
v 0.28719812 0.10998333 0.55833440
v 0.28719812 -0.14254167 0.63393440
vt 0.980468750 0.585317574
vt 0.980468750 0.519531250
vt 0.769531250 0.598896102
vn -0.87917559 -0.13665945 -0.45648054
f 418/418/140 419/419/140 420/420/140
g pz_sofa_seating_indoor_03_victorian_c1_1_0__victorian_roll_1_1__arm
v 0.35227188 -0.14254167 0.63393440
v 0.28719812 -0.14254167 0.63393440
v 0.28719812 0.10998333 0.55833440
vt 0.019531250 0.427734383
vt 0.019531250 0.322265617
vt 0.230468750 0.322265617
vn -0.00000000 -0.28679967 -0.95799058
f 421/421/141 422/422/141 423/423/141
g pz_sofa_seating_indoor_03_victorian_c1_1_0__victorian_roll_1_1__arm
v 0.28719812 0.10998333 0.55833440
v 0.35227188 0.10998333 0.55833440
v 0.35227188 -0.14254167 0.63393440
vt 0.230468750 0.322265617
vt 0.230468750 0.427734383
vt 0.019531250 0.427734383
vn -0.00000000 -0.28679967 -0.95799058
f 424/424/142 425/425/142 426/426/142
g pz_sofa_seating_indoor_03_victorian_c1_1_0__victorian_roll_1_1__arm
v 0.38480875 -0.14254167 0.69660000
v 0.35227188 -0.14254167 0.63393440
v 0.35227188 0.10998333 0.55833440
vt 0.519531250 0.664682426
vt 0.519531250 0.598896102
vt 0.730468750 0.519531250
vn 0.87917559 -0.13665945 -0.45648054
f 427/427/143 428/428/143 429/429/143
g pz_sofa_seating_indoor_03_victorian_c1_1_0__victorian_roll_1_1__arm
v 0.35227188 0.10998333 0.55833440
v 0.38480875 0.10998333 0.62100000
v 0.38480875 -0.14254167 0.69660000
vt 0.730468750 0.519531250
vt 0.730468750 0.585317574
vt 0.519531250 0.664682426
vn 0.87917559 -0.13665945 -0.45648054
f 430/430/144 431/431/144 432/432/144
g pz_sofa_seating_indoor_03_victorian_c1_1_0__victorian_roll_1_2__arm
v 0.35227188 0.10998333 0.55833440
v 0.38480875 0.10998333 0.62100000
v 0.35227188 0.10998333 0.68366560
vt 0.427734383 0.300540661
vt 0.480468750 0.390504706
vt 0.427734383 0.480468750
vn 0.00000000 -1.00000000 0.00000000
f 433/433/145 434/434/145 435/435/145
g pz_sofa_seating_indoor_03_victorian_c1_1_0__victorian_roll_1_2__arm
v 0.35227188 0.10998333 0.55833440
v 0.35227188 0.10998333 0.68366560
v 0.28719813 0.10998333 0.68366560
vt 0.427734383 0.300540661
vt 0.427734383 0.480468750
vt 0.322265633 0.480468750
vn 0.00000000 -1.00000000 0.00000000
f 436/436/146 437/437/146 438/438/146
g pz_sofa_seating_indoor_03_victorian_c1_1_0__victorian_roll_1_2__arm
v 0.35227188 0.10998333 0.55833440
v 0.28719813 0.10998333 0.68366560
v 0.25466125 0.10998333 0.62100000
vt 0.427734383 0.300540661
vt 0.322265633 0.480468750
vt 0.269531250 0.390504706
vn 0.00000000 -1.00000000 0.00000000
f 439/439/147 440/440/147 441/441/147
g pz_sofa_seating_indoor_03_victorian_c1_1_0__victorian_roll_1_2__arm
v 0.25466125 0.10998333 0.62100000
v 0.28719812 0.10998333 0.55833440
v 0.35227188 0.10998333 0.55833440
vt 0.269531250 0.390504706
vt 0.322265617 0.300540661
vt 0.427734383 0.300540661
vn 0.00000000 -1.00000000 0.00000000
f 442/442/148 443/443/148 444/444/148
g pz_sofa_seating_indoor_03_victorian_c1_1_0__victorian_roll_1_2__arm
v 0.38480875 0.33822708 0.59940000
v 0.35227188 0.33822708 0.53673440
v 0.28719812 0.33822708 0.53673440
vt 0.480468750 0.359495294
vt 0.427734383 0.269531250
vt 0.322265617 0.269531250
vn 0.00000000 1.00000000 0.00000000
f 445/445/149 446/446/149 447/447/149
g pz_sofa_seating_indoor_03_victorian_c1_1_0__victorian_roll_1_2__arm
v 0.38480875 0.33822708 0.59940000
v 0.28719812 0.33822708 0.53673440
v 0.25466125 0.33822708 0.59940000
vt 0.480468750 0.359495294
vt 0.322265617 0.269531250
vt 0.269531250 0.359495294
vn 0.00000000 1.00000000 0.00000000
f 448/448/150 449/449/150 450/450/150
g pz_sofa_seating_indoor_03_victorian_c1_1_0__victorian_roll_1_2__arm
v 0.38480875 0.33822708 0.59940000
v 0.25466125 0.33822708 0.59940000
v 0.28719813 0.33822708 0.66206560
vt 0.480468750 0.359495294
vt 0.269531250 0.359495294
vt 0.322265633 0.449459339
vn 0.00000000 1.00000000 0.00000000
f 451/451/151 452/452/151 453/453/151
g pz_sofa_seating_indoor_03_victorian_c1_1_0__victorian_roll_1_2__arm
v 0.28719813 0.33822708 0.66206560
v 0.35227188 0.33822708 0.66206560
v 0.38480875 0.33822708 0.59940000
vt 0.322265633 0.449459339
vt 0.427734383 0.449459339
vt 0.480468750 0.359495294
vn -0.00000000 1.00000000 0.00000000
f 454/454/152 455/455/152 456/456/152
g pz_sofa_seating_indoor_03_victorian_c1_1_0__victorian_roll_1_2__arm
v 0.35227188 0.10998333 0.68366560
v 0.38480875 0.10998333 0.62100000
v 0.38480875 0.33822708 0.59940000
vt 0.519531250 0.730468750
vt 0.519531250 0.640504706
vt 0.730468750 0.609495294
vn 0.88665937 0.04356707 0.46036623
f 457/457/153 458/458/153 459/459/153
g pz_sofa_seating_indoor_03_victorian_c1_1_0__victorian_roll_1_2__arm
v 0.38480875 0.33822708 0.59940000
v 0.35227188 0.33822708 0.66206560
v 0.35227188 0.10998333 0.68366560
vt 0.730468750 0.609495294
vt 0.730468750 0.699459339
vt 0.519531250 0.730468750
vn 0.88665937 0.04356707 0.46036623
f 460/460/154 461/461/154 462/462/154
g pz_sofa_seating_indoor_03_victorian_c1_1_0__victorian_roll_1_2__arm
v 0.28719813 0.10998333 0.68366560
v 0.35227188 0.10998333 0.68366560
v 0.35227188 0.33822708 0.66206560
vt 0.019531250 0.322265633
vt 0.019531250 0.427734383
vt 0.230468750 0.427734383
vn -0.00000000 0.09421472 0.99555190
f 463/463/155 464/464/155 465/465/155
g pz_sofa_seating_indoor_03_victorian_c1_1_0__victorian_roll_1_2__arm
v 0.35227188 0.33822708 0.66206560
v 0.28719813 0.33822708 0.66206560
v 0.28719813 0.10998333 0.68366560
vt 0.230468750 0.427734383
vt 0.230468750 0.322265633
vt 0.019531250 0.322265633
vn 0.00000000 0.09421472 0.99555190
f 466/466/156 467/467/156 468/468/156
g pz_sofa_seating_indoor_03_victorian_c1_1_0__victorian_roll_1_2__arm
v 0.25466125 0.10998333 0.62100000
v 0.28719813 0.10998333 0.68366560
v 0.28719813 0.33822708 0.66206560
vt 0.769531250 0.640504706
vt 0.769531250 0.730468750
vt 0.980468750 0.699459339
vn -0.88665937 0.04356707 0.46036623
f 469/469/157 470/470/157 471/471/157
g pz_sofa_seating_indoor_03_victorian_c1_1_0__victorian_roll_1_2__arm
v 0.28719813 0.33822708 0.66206560
v 0.25466125 0.33822708 0.59940000
v 0.25466125 0.10998333 0.62100000
vt 0.980468750 0.699459339
vt 0.980468750 0.609495294
vt 0.769531250 0.640504706
vn -0.88665937 0.04356707 0.46036623
f 472/472/158 473/473/158 474/474/158
g pz_sofa_seating_indoor_03_victorian_c1_1_0__victorian_roll_1_2__arm
v 0.28719812 0.10998333 0.55833440
v 0.25466125 0.10998333 0.62100000
v 0.25466125 0.33822708 0.59940000
vt 0.769531250 0.550540661
vt 0.769531250 0.640504706
vt 0.980468750 0.609495294
vn -0.88665937 -0.04356707 -0.46036623
f 475/475/159 476/476/159 477/477/159
g pz_sofa_seating_indoor_03_victorian_c1_1_0__victorian_roll_1_2__arm
v 0.25466125 0.33822708 0.59940000
v 0.28719812 0.33822708 0.53673440
v 0.28719812 0.10998333 0.55833440
vt 0.980468750 0.609495294
vt 0.980468750 0.519531250
vt 0.769531250 0.550540661
vn -0.88665937 -0.04356707 -0.46036623
f 478/478/160 479/479/160 480/480/160
g pz_sofa_seating_indoor_03_victorian_c1_1_0__victorian_roll_1_2__arm
v 0.35227188 0.10998333 0.55833440
v 0.28719812 0.10998333 0.55833440
v 0.28719812 0.33822708 0.53673440
vt 0.019531250 0.427734383
vt 0.019531250 0.322265617
vt 0.230468750 0.322265617
vn -0.00000000 -0.09421472 -0.99555190
f 481/481/161 482/482/161 483/483/161
g pz_sofa_seating_indoor_03_victorian_c1_1_0__victorian_roll_1_2__arm
v 0.28719812 0.33822708 0.53673440
v 0.35227188 0.33822708 0.53673440
v 0.35227188 0.10998333 0.55833440
vt 0.230468750 0.322265617
vt 0.230468750 0.427734383
vt 0.019531250 0.427734383
vn 0.00000000 -0.09421472 -0.99555190
f 484/484/162 485/485/162 486/486/162
g pz_sofa_seating_indoor_03_victorian_c1_1_0__victorian_roll_1_2__arm
v 0.38480875 0.10998333 0.62100000
v 0.35227188 0.10998333 0.55833440
v 0.35227188 0.33822708 0.53673440
vt 0.519531250 0.640504706
vt 0.519531250 0.550540661
vt 0.730468750 0.519531250
vn 0.88665937 -0.04356707 -0.46036623
f 487/487/163 488/488/163 489/489/163
g pz_sofa_seating_indoor_03_victorian_c1_1_0__victorian_roll_1_2__arm
v 0.35227188 0.33822708 0.53673440
v 0.38480875 0.33822708 0.59940000
v 0.38480875 0.10998333 0.62100000
vt 0.730468750 0.519531250
vt 0.730468750 0.609495294
vt 0.519531250 0.640504706
vn 0.88665937 -0.04356707 -0.46036623
f 490/490/164 491/491/164 492/492/164
g pz_sofa_seating_indoor_03_victorian_c1_1_0__curved_foot_1_-1_0__frame
v 0.27358750 -0.35241042 0.08640000
v 0.30758125 -0.36406542 0.00000000
v 0.28460360 -0.37672237 -0.00906719
vt 0.841497344 0.212172278
vt 0.947965908 0.037827722
vt 0.875999814 0.019531250
vn -0.38098954 0.88451652 -0.26921647
f 493/493/165 494/494/165 495/495/165
g pz_sofa_seating_indoor_03_victorian_c1_1_0__curved_foot_1_-1_0__frame
v 0.28460360 -0.37672237 -0.00906719
v 0.25060985 -0.36506737 0.07733281
v 0.27358750 -0.35241042 0.08640000
vt 0.875999814 0.019531250
vt 0.769531250 0.193875805
vt 0.841497344 0.212172278
vn -0.38098954 0.88451652 -0.26921647
f 496/496/166 497/497/166 498/498/166
g pz_sofa_seating_indoor_03_victorian_c1_1_0__curved_foot_1_-1_0__frame
v 0.25060985 -0.36506737 0.07733281
v 0.28460360 -0.37672237 -0.00906719
v 0.29498125 -0.40081542 -0.00000000
vt 0.925312766 0.193875805
vt 0.874523043 0.019531250
vt 0.769531250 0.037827722
vn -0.84356725 -0.46466848 -0.26921647
f 499/499/167 500/500/167 501/501/167
g pz_sofa_seating_indoor_03_victorian_c1_1_0__curved_foot_1_-1_0__frame
v 0.29498125 -0.40081542 -0.00000000
v 0.26098750 -0.38916042 0.08640000
v 0.25060985 -0.36506737 0.07733281
vt 0.769531250 0.037827722
vt 0.820320973 0.212172278
vt 0.925312766 0.193875805
vn -0.84356725 -0.46466848 -0.26921647
f 502/502/168 503/503/168 504/504/168
g pz_sofa_seating_indoor_03_victorian_c1_1_0__curved_foot_1_-1_0__frame
v 0.26098750 -0.38916042 0.08640000
v 0.29498125 -0.40081542 -0.00000000
v 0.31795890 -0.38815847 0.00906719
vt 0.802034092 0.212172278
vt 0.908502656 0.037827722
vt 0.980468750 0.056124195
vn 0.38098954 -0.88451652 0.26921647
f 505/505/169 506/506/169 507/507/169
g pz_sofa_seating_indoor_03_victorian_c1_1_0__curved_foot_1_-1_0__frame
v 0.31795890 -0.38815847 0.00906719
v 0.28396515 -0.37650347 0.09546719
v 0.26098750 -0.38916042 0.08640000
vt 0.980468750 0.056124195
vt 0.874000186 0.230468750
vt 0.802034092 0.212172278
vn 0.38098954 -0.88451652 0.26921647
f 508/508/170 509/509/170 510/510/170
g pz_sofa_seating_indoor_03_victorian_c1_1_0__curved_foot_1_-1_0__frame
v 0.28396515 -0.37650347 0.09546719
v 0.31795890 -0.38815847 0.00906719
v 0.30758125 -0.36406542 0.00000000
vt 0.875476957 0.230468750
vt 0.824687234 0.056124195
vt 0.929679027 0.037827722
vn 0.84356725 0.46466848 0.26921647
f 511/511/171 512/512/171 513/513/171
g pz_sofa_seating_indoor_03_victorian_c1_1_0__curved_foot_1_-1_0__frame
v 0.30758125 -0.36406542 0.00000000
v 0.27358750 -0.35241042 0.08640000
v 0.28396515 -0.37650347 0.09546719
vt 0.929679027 0.037827722
vt 0.980468750 0.212172278
vt 0.875476957 0.230468750
vn 0.84356725 0.46466848 0.26921647
f 514/514/172 515/515/172 516/516/172
g pz_sofa_seating_indoor_03_victorian_c1_1_0__curved_foot_1_-1_1__frame
v 0.25422971 -0.37078542 0.24474620
v 0.24451721 -0.37078542 0.08814620
v 0.26728750 -0.39360979 0.08640000
vt 0.806610277 0.230468750
vt 0.769531250 0.024132831
vt 0.856460486 0.021832040
vn -0.70559089 -0.70726688 0.04376150
f 517/517/173 518/518/173 519/519/173
g pz_sofa_seating_indoor_03_victorian_c1_1_0__curved_foot_1_-1_1__frame
v 0.26728750 -0.39360979 0.08640000
v 0.27700000 -0.39360979 0.24300000
v 0.25422971 -0.37078542 0.24474620
vt 0.856460486 0.021832040
vt 0.893539514 0.228167960
vt 0.806610277 0.230468750
vn -0.70559089 -0.70726688 0.04376150
f 520/520/174 521/521/174 522/522/174
g pz_sofa_seating_indoor_03_victorian_c1_1_0__curved_foot_1_-1_1__frame
v 0.27700000 -0.39360979 0.24300000
v 0.26728750 -0.39360979 0.08640000
v 0.29005779 -0.37078542 0.08465380
vt 0.893539514 0.228167960
vt 0.856460486 0.021832040
vt 0.943389723 0.019531250
vn 0.70559089 -0.70726688 -0.04376150
f 523/523/175 524/524/175 525/525/175
g pz_sofa_seating_indoor_03_victorian_c1_1_0__curved_foot_1_-1_1__frame
v 0.29005779 -0.37078542 0.08465380
v 0.29977029 -0.37078542 0.24125380
v 0.27700000 -0.39360979 0.24300000
vt 0.943389723 0.019531250
vt 0.980468750 0.225867169
vt 0.893539514 0.228167960
vn 0.70559089 -0.70726688 -0.04376150
f 526/526/176 527/527/176 528/528/176
g pz_sofa_seating_indoor_03_victorian_c1_1_0__curved_foot_1_-1_1__frame
v 0.29977029 -0.37078542 0.24125380
v 0.29005779 -0.37078542 0.08465380
v 0.26728750 -0.34796104 0.08640000
vt 0.980468750 0.225867169
vt 0.943389723 0.019531250
vt 0.856460486 0.021832040
vn 0.70559089 0.70726688 -0.04376150
f 529/529/177 530/530/177 531/531/177
g pz_sofa_seating_indoor_03_victorian_c1_1_0__curved_foot_1_-1_1__frame
v 0.26728750 -0.34796104 0.08640000
v 0.27700000 -0.34796104 0.24300000
v 0.29977029 -0.37078542 0.24125380
vt 0.856460486 0.021832040
vt 0.893539514 0.228167960
vt 0.980468750 0.225867169
vn 0.70559089 0.70726688 -0.04376150
f 532/532/178 533/533/178 534/534/178
g pz_sofa_seating_indoor_03_victorian_c1_1_0__curved_foot_1_-1_1__frame
v 0.27700000 -0.34796104 0.24300000
v 0.26728750 -0.34796104 0.08640000
v 0.24451721 -0.37078542 0.08814620
vt 0.893539514 0.228167960
vt 0.856460486 0.021832040
vt 0.769531250 0.024132831
vn -0.70559089 0.70726688 0.04376150
f 535/535/179 536/536/179 537/537/179
g pz_sofa_seating_indoor_03_victorian_c1_1_0__curved_foot_1_-1_1__frame
v 0.24451721 -0.37078542 0.08814620
v 0.25422971 -0.37078542 0.24474620
v 0.27700000 -0.34796104 0.24300000
vt 0.769531250 0.024132831
vt 0.806610277 0.230468750
vt 0.893539514 0.228167960
vn -0.70559089 0.70726688 0.04376150
f 538/538/180 539/539/180 540/540/180
g pz_sofa_seating_indoor_03_victorian_c1_1_0__curved_foot_1_1_0__frame
v 0.26098750 0.29832708 0.08640000
v 0.29498125 0.30998208 0.00000000
v 0.28460360 0.28588903 -0.00906719
vt 0.929679027 0.212172278
vt 0.980468750 0.037827722
vt 0.875476957 0.019531250
vn -0.84356725 0.46466848 -0.26921647
f 541/541/181 542/542/181 543/543/181
g pz_sofa_seating_indoor_03_victorian_c1_1_0__curved_foot_1_1_0__frame
v 0.28460360 0.28588903 -0.00906719
v 0.25060985 0.27423403 0.07733281
v 0.26098750 0.29832708 0.08640000
vt 0.875476957 0.019531250
vt 0.824687234 0.193875805
vt 0.929679027 0.212172278
vn -0.84356725 0.46466848 -0.26921647
f 544/544/182 545/545/182 546/546/182
g pz_sofa_seating_indoor_03_victorian_c1_1_0__curved_foot_1_1_0__frame
v 0.25060985 0.27423403 0.07733281
v 0.28460360 0.28588903 -0.00906719
v 0.30758125 0.27323208 -0.00000000
vt 0.769531250 0.193875805
vt 0.875999814 0.019531250
vt 0.947965908 0.037827722
vn -0.38098954 -0.88451652 -0.26921647
f 547/547/183 548/548/183 549/549/183
g pz_sofa_seating_indoor_03_victorian_c1_1_0__curved_foot_1_1_0__frame
v 0.30758125 0.27323208 -0.00000000
v 0.27358750 0.26157708 0.08640000
v 0.25060985 0.27423403 0.07733281
vt 0.947965908 0.037827722
vt 0.841497344 0.212172278
vt 0.769531250 0.193875805
vn -0.38098954 -0.88451652 -0.26921647
f 550/550/184 551/551/184 552/552/184
g pz_sofa_seating_indoor_03_victorian_c1_1_0__curved_foot_1_1_0__frame
v 0.27358750 0.26157708 0.08640000
v 0.30758125 0.27323208 -0.00000000
v 0.31795890 0.29732513 0.00906719
vt 0.769531250 0.212172278
vt 0.820320973 0.037827722
vt 0.925312766 0.056124195
vn 0.84356725 -0.46466848 0.26921647
f 553/553/185 554/554/185 555/555/185
g pz_sofa_seating_indoor_03_victorian_c1_1_0__curved_foot_1_1_0__frame
v 0.31795890 0.29732513 0.00906719
v 0.28396515 0.28567013 0.09546719
v 0.27358750 0.26157708 0.08640000
vt 0.925312766 0.056124195
vt 0.874523043 0.230468750
vt 0.769531250 0.212172278
vn 0.84356725 -0.46466848 0.26921647
f 556/556/186 557/557/186 558/558/186
g pz_sofa_seating_indoor_03_victorian_c1_1_0__curved_foot_1_1_0__frame
v 0.28396515 0.28567013 0.09546719
v 0.31795890 0.29732513 0.00906719
v 0.29498125 0.30998208 0.00000000
vt 0.874000186 0.230468750
vt 0.980468750 0.056124195
vt 0.908502656 0.037827722
vn 0.38098954 0.88451652 0.26921647
f 559/559/187 560/560/187 561/561/187
g pz_sofa_seating_indoor_03_victorian_c1_1_0__curved_foot_1_1_0__frame
v 0.29498125 0.30998208 0.00000000
v 0.26098750 0.29832708 0.08640000
v 0.28396515 0.28567013 0.09546719
vt 0.908502656 0.037827722
vt 0.802034092 0.212172278
vt 0.874000186 0.230468750
vn 0.38098954 0.88451652 0.26921647
f 562/562/188 563/563/188 564/564/188
g pz_sofa_seating_indoor_03_victorian_c1_1_0__curved_foot_1_1_1__frame
v 0.25422971 0.27995208 0.24474620
v 0.24451721 0.27995208 0.08814620
v 0.26728750 0.25712771 0.08640000
vt 0.806610277 0.230468750
vt 0.769531250 0.024132831
vt 0.856460486 0.021832040
vn -0.70559089 -0.70726688 0.04376150
f 565/565/189 566/566/189 567/567/189
g pz_sofa_seating_indoor_03_victorian_c1_1_0__curved_foot_1_1_1__frame
v 0.26728750 0.25712771 0.08640000
v 0.27700000 0.25712771 0.24300000
v 0.25422971 0.27995208 0.24474620
vt 0.856460486 0.021832040
vt 0.893539514 0.228167960
vt 0.806610277 0.230468750
vn -0.70559089 -0.70726688 0.04376150
f 568/568/190 569/569/190 570/570/190
g pz_sofa_seating_indoor_03_victorian_c1_1_0__curved_foot_1_1_1__frame
v 0.27700000 0.25712771 0.24300000
v 0.26728750 0.25712771 0.08640000
v 0.29005779 0.27995208 0.08465380
vt 0.893539514 0.228167960
vt 0.856460486 0.021832040
vt 0.943389723 0.019531250
vn 0.70559089 -0.70726688 -0.04376150
f 571/571/191 572/572/191 573/573/191
g pz_sofa_seating_indoor_03_victorian_c1_1_0__curved_foot_1_1_1__frame
v 0.29005779 0.27995208 0.08465380
v 0.29977029 0.27995208 0.24125380
v 0.27700000 0.25712771 0.24300000
vt 0.943389723 0.019531250
vt 0.980468750 0.225867169
vt 0.893539514 0.228167960
vn 0.70559089 -0.70726688 -0.04376150
f 574/574/192 575/575/192 576/576/192
g pz_sofa_seating_indoor_03_victorian_c1_1_0__curved_foot_1_1_1__frame
v 0.29977029 0.27995208 0.24125380
v 0.29005779 0.27995208 0.08465380
v 0.26728750 0.30277646 0.08640000
vt 0.980468750 0.225867169
vt 0.943389723 0.019531250
vt 0.856460486 0.021832040
vn 0.70559089 0.70726688 -0.04376150
f 577/577/193 578/578/193 579/579/193
g pz_sofa_seating_indoor_03_victorian_c1_1_0__curved_foot_1_1_1__frame
v 0.26728750 0.30277646 0.08640000
v 0.27700000 0.30277646 0.24300000
v 0.29977029 0.27995208 0.24125380
vt 0.856460486 0.021832040
vt 0.893539514 0.228167960
vt 0.980468750 0.225867169
vn 0.70559089 0.70726688 -0.04376150
f 580/580/194 581/581/194 582/582/194
g pz_sofa_seating_indoor_03_victorian_c1_1_0__curved_foot_1_1_1__frame
v 0.27700000 0.30277646 0.24300000
v 0.26728750 0.30277646 0.08640000
v 0.24451721 0.27995208 0.08814620
vt 0.893539514 0.228167960
vt 0.856460486 0.021832040
vt 0.769531250 0.024132831
vn -0.70559089 0.70726688 0.04376150
f 583/583/195 584/584/195 585/585/195
g pz_sofa_seating_indoor_03_victorian_c1_1_0__curved_foot_1_1_1__frame
v 0.24451721 0.27995208 0.08814620
v 0.25422971 0.27995208 0.24474620
v 0.27700000 0.30277646 0.24300000
vt 0.769531250 0.024132831
vt 0.806610277 0.230468750
vt 0.893539514 0.228167960
vn -0.70559089 0.70726688 0.04376150
f 586/586/196 587/587/196 588/588/196
