# Native geometry authored with Blender MCP in an isolated background process.
mtllib pz_trashbin_grey.mtl
o pz_trashbin_grey_|_square_native_bin_base
usemtl body
v -0.1800000 -0.1700000 0.0300000
vt 0.002703151 0.685340285
vt 0.010814179 0.685340285
vt 0.010814179 0.693701446
vt 0.590461135 0.690676033
vt 0.582350075 0.699037254
vt 0.582350075 0.690676033
vt 0.314686358 0.690676033
vt 0.322797358 0.690676033
vt 0.322797358 0.699037254
vt 0.270366937 0.685340285
vt 0.278477967 0.685340285
vt 0.270366937 0.693701446
vt 0.010814179 0.367616385
vt 0.002703151 0.367616355
vt 0.010814179 0.359255195
vt 0.590461135 0.372952133
vt 0.582350075 0.372952133
vt 0.582350075 0.364591002
vt 0.322797358 0.372952133
vt 0.314686358 0.372952133
vt 0.322797358 0.364591002
vt 0.270366937 0.367616355
vt 0.270366937 0.359255195
vt 0.278477967 0.367616326
vt 0.010738416 0.699107766
vt 0.010738356 0.997296810
vt 0.002703136 0.997296810
vt 0.010738416 0.699107766
vt 0.002703136 0.997296810
vt 0.002703136 0.699107766
vt 0.010814179 0.685340285
vt 0.270366937 0.685340285
vt 0.270366937 0.693701446
vt 0.010814179 0.685340285
vt 0.270366937 0.693701446
vt 0.010814179 0.693701446
vt 0.267865926 0.997296810
vt 0.267865986 0.699107826
vt 0.275901198 0.699107826
vt 0.267865926 0.997296810
vt 0.275901198 0.699107826
vt 0.275901198 0.997296810
vt 0.582350075 0.699037254
vt 0.322797358 0.699037254
vt 0.322797358 0.690676033
vt 0.582350075 0.699037254
vt 0.322797358 0.690676033
vt 0.582350075 0.690676033
vt 0.010814179 0.359255195
vt 0.270366937 0.359255195
vt 0.270366937 0.367616355
vt 0.010814179 0.359255195
vt 0.270366937 0.367616355
vt 0.010814179 0.367616385
vt 0.595867455 0.979175627
vt 0.595867455 0.680986583
vt 0.603902757 0.680986583
vt 0.595867455 0.979175627
vt 0.603902757 0.680986583
vt 0.603902698 0.979175687
vt 0.582350075 0.372952133
vt 0.322797358 0.372952133
vt 0.322797358 0.364591002
vt 0.582350075 0.372952133
vt 0.322797358 0.364591002
vt 0.582350075 0.364591002
vt 0.869065344 0.680986583
vt 0.869065344 0.979175627
vt 0.861030221 0.979175687
vt 0.869065344 0.680986583
vt 0.861030221 0.979175687
vt 0.861030221 0.680986583
vt 0.002703151 0.685340285
vt 0.002703151 0.367616355
vt 0.010814179 0.367616385
vt 0.002703151 0.685340285
vt 0.010814179 0.367616385
vt 0.010814179 0.685340285
vt 0.582350075 0.690676033
vt 0.582350075 0.372952133
vt 0.590461135 0.372952133
vt 0.582350075 0.690676033
vt 0.590461135 0.372952133
vt 0.590461135 0.690676033
vt 0.314686358 0.690676033
vt 0.314686358 0.372952133
vt 0.322797358 0.372952133
vt 0.314686358 0.690676033
vt 0.322797358 0.372952133
vt 0.322797358 0.690676033
vt 0.270366937 0.685340285
vt 0.270366937 0.367616355
vt 0.278477967 0.367616326
vt 0.270366937 0.685340285
vt 0.278477967 0.367616326
vt 0.278477967 0.685340285
vt 0.822254837 0.313692391
vt 0.536447346 0.313692391
vt 0.536447346 0.002703151
vt 0.822254837 0.313692391
vt 0.536447346 0.002703151
vt 0.822254837 0.002703151
vt 0.010738416 0.699107766
vt 0.267865986 0.699107826
vt 0.267865926 0.997296810
vt 0.010738416 0.699107766
vt 0.267865926 0.997296810
vt 0.010738356 0.997296810
vt 0.270366937 0.685340285
vt 0.010814179 0.685340285
vt 0.010814179 0.367616385
vt 0.270366937 0.685340285
vt 0.010814179 0.367616385
vt 0.270366937 0.367616355
vt 0.582350075 0.690676033
vt 0.322797358 0.690676033
vt 0.322797358 0.372952133
vt 0.582350075 0.690676033
vt 0.322797358 0.372952133
vt 0.582350075 0.372952133
vt 0.881674886 0.675580263
vt 0.595867395 0.675580263
vt 0.595867395 0.364591032
vt 0.881674886 0.675580263
vt 0.595867395 0.364591032
vt 0.881674886 0.364591032
vt 0.603902698 0.979175687
vt 0.603902757 0.680986583
vt 0.861030221 0.680986583
vt 0.603902698 0.979175687
vt 0.861030221 0.680986583
vt 0.861030221 0.979175687
vt 0.498188496 0.036569059
vt 0.498188496 0.002703255
vt 0.531041145 0.036568940
vt 0.498188436 0.325318962
vt 0.531041145 0.325318962
vt 0.498188496 0.359184653
vt 0.387307882 0.036568914
vt 0.387307882 0.002703165
vt 0.420160532 0.036568917
vt 0.387307882 0.359184682
vt 0.387307882 0.325318992
vt 0.420160532 0.325318992
vt 0.035064027 0.353848934
vt 0.002703138 0.320490152
vt 0.035064027 0.320490152
vt 0.002703159 0.036061991
vt 0.035064049 0.002703139
vt 0.035064045 0.036061991
vt 0.276919156 0.002703158
vt 0.309280038 0.036062017
vt 0.276919156 0.036062013
vt 0.276919097 0.353848934
vt 0.276919097 0.320490152
vt 0.309279978 0.320490152
vt 0.531041145 0.036568940
vt 0.531041145 0.325318962
vt 0.498188436 0.325318962
vt 0.531041145 0.036568940
vt 0.498188436 0.325318962
vt 0.498188496 0.036569059
vt 0.945331573 0.927948654
vt 0.945331573 0.680986524
vt 0.977387249 0.680986524
vt 0.945331573 0.927948654
vt 0.977387249 0.680986524
vt 0.977387249 0.927948654
vt 0.420160532 0.036568917
vt 0.420160532 0.325318992
vt 0.387307882 0.325318992
vt 0.420160532 0.036568917
vt 0.387307882 0.325318992
vt 0.387307882 0.036568914
vt 0.930576801 0.002703136
vt 0.930576742 0.249665320
vt 0.898521066 0.249665260
vt 0.930576801 0.002703136
vt 0.898521066 0.249665260
vt 0.898521125 0.002703136
vt 0.035064027 0.320490152
vt 0.276919097 0.320490152
vt 0.276919097 0.353848934
vt 0.035064027 0.320490152
vt 0.276919097 0.353848934
vt 0.035064027 0.353848934
vt 0.002703138 0.320490152
vt 0.002703159 0.036061991
vt 0.035064045 0.036061991
vt 0.002703138 0.320490152
vt 0.035064045 0.036061991
vt 0.035064027 0.320490152
vt 0.035064049 0.002703139
vt 0.276919156 0.002703158
vt 0.276919156 0.036062013
vt 0.035064049 0.002703139
vt 0.276919156 0.036062013
vt 0.035064045 0.036061991
vt 0.309280038 0.036062017
vt 0.309279978 0.320490152
vt 0.276919097 0.320490152
vt 0.309280038 0.036062017
vt 0.276919097 0.320490152
vt 0.276919156 0.036062013
vt 0.498188496 0.036569059
vt 0.425566882 0.036568940
vt 0.425566882 0.002703196
vt 0.498188496 0.036569059
vt 0.425566882 0.002703196
vt 0.498188496 0.002703255
vt 0.498188496 0.359184653
vt 0.425566882 0.359184653
vt 0.425566882 0.325318962
vt 0.498188496 0.359184653
vt 0.425566882 0.325318962
vt 0.498188436 0.325318962
vt 0.387307882 0.036568914
vt 0.314686358 0.036568910
vt 0.314686358 0.002703160
vt 0.387307882 0.036568914
vt 0.314686358 0.002703160
vt 0.387307882 0.002703165
vt 0.387307882 0.359184682
vt 0.314686298 0.359184712
vt 0.314686298 0.325318992
vt 0.387307882 0.359184682
vt 0.314686298 0.325318992
vt 0.387307882 0.325318992
vt 0.498188496 0.036569059
vt 0.498188436 0.325318962
vt 0.425566882 0.325318962
vt 0.498188496 0.036569059
vt 0.425566882 0.325318962
vt 0.425566882 0.036568940
vt 0.314686298 0.704443574
vt 0.540156722 0.704443634
vt 0.540156722 0.969602883
vt 0.314686298 0.704443574
vt 0.540156722 0.969602883
vt 0.314686298 0.969602883
vt 0.945331573 0.680986524
vt 0.945331573 0.927948654
vt 0.874471664 0.927948654
vt 0.945331573 0.680986524
vt 0.874471664 0.927948654
vt 0.874471664 0.680986524
vt 0.898521125 0.002703136
vt 0.898521066 0.249665260
vt 0.827661157 0.249665320
vt 0.898521125 0.002703136
vt 0.827661157 0.249665320
vt 0.827661216 0.002703136
vt 0.387307882 0.036568914
vt 0.387307882 0.325318992
vt 0.314686298 0.325318992
vt 0.387307882 0.036568914
vt 0.314686298 0.325318992
vt 0.314686358 0.036568910
vt 0.035064027 0.320490152
vt 0.035064045 0.036061991
vt 0.276919156 0.036062013
vt 0.035064027 0.320490152
vt 0.276919156 0.036062013
vt 0.276919097 0.320490152
vt 0.283884287 0.359255254
vt 0.287853867 0.359255254
vt 0.287853837 0.588404953
vt 0.283884287 0.359255254
vt 0.287853837 0.588404953
vt 0.283884287 0.588404953
vt 0.305310488 0.588403642
vt 0.305310547 0.359255254
vt 0.309280068 0.359255254
vt 0.305310488 0.588403642
vt 0.309280068 0.359255254
vt 0.309280068 0.588403642
vt 0.995526314 0.002703136
vt 0.995526314 0.231853053
vt 0.935983062 0.231853053
vt 0.995526314 0.002703136
vt 0.935983062 0.231853053
vt 0.935983062 0.002703136
vt 0.297229648 0.420634687
vt 0.293260127 0.420634687
vt 0.293260127 0.359255224
vt 0.297229648 0.420634687
vt 0.293260127 0.359255224
vt 0.297229648 0.359255224
vt 0.946624458 0.364591002
vt 0.946624398 0.593741000
vt 0.887081206 0.593741000
vt 0.946624458 0.364591002
vt 0.887081206 0.593741000
vt 0.887081206 0.364591002
vt 0.297229648 0.487420231
vt 0.293260127 0.487420231
vt 0.293260127 0.426040947
vt 0.297229648 0.487420231
vt 0.293260127 0.426040947
vt 0.297229648 0.426040947
vn -0.5773503 -0.5773501 -0.5773505
v -0.1900000 -0.1600000 0.0300000
vn -0.5773503 -0.5773501 -0.5773505
v -0.1800000 -0.1600000 0.0200000
vn -0.5773503 -0.5773501 -0.5773505
f 1/1/1 2/2/2 3/3/3
v 0.1800000 -0.1700000 0.0300000
vn 0.5773501 -0.5773501 -0.5773505
v 0.1800000 -0.1600000 0.0200000
vn 0.5773501 -0.5773501 -0.5773505
v 0.1900000 -0.1600000 0.0300000
vn 0.5773501 -0.5773501 -0.5773505
f 4/4/4 5/5/5 6/6/6
v 0.1800000 0.1700000 0.0300000
vn 0.5773503 0.5773501 -0.5773505
v 0.1900000 0.1600000 0.0300000
vn 0.5773503 0.5773501 -0.5773505
v 0.1800000 0.1600000 0.0200000
vn 0.5773503 0.5773501 -0.5773505
f 7/7/7 8/8/8 9/9/9
v -0.1900000 0.1600000 0.0300000
vn -0.5773501 0.5773501 -0.5773505
v -0.1800000 0.1700000 0.0300000
vn -0.5773501 0.5773501 -0.5773505
v -0.1800000 0.1600000 0.0200000
vn -0.5773501 0.5773501 -0.5773505
f 10/10/10 11/11/11 12/12/12
v -0.1900000 -0.1600000 0.4100000
vn -0.5773500 -0.5773500 0.5773508
v -0.1800000 -0.1700000 0.4100000
vn -0.5773500 -0.5773500 0.5773508
v -0.1800000 -0.1600000 0.4200000
vn -0.5773500 -0.5773500 0.5773508
f 13/13/13 14/14/14 15/15/15
v 0.1800000 -0.1700000 0.4100000
vn 0.5773500 -0.5773500 0.5773508
v 0.1900000 -0.1600000 0.4100000
vn 0.5773500 -0.5773500 0.5773508
v 0.1800000 -0.1600000 0.4200000
vn 0.5773500 -0.5773500 0.5773508
f 16/16/16 17/17/17 18/18/18
v 0.1900000 0.1600000 0.4100000
vn 0.5773500 0.5773500 0.5773508
v 0.1800000 0.1700000 0.4100000
vn 0.5773500 0.5773500 0.5773508
v 0.1800000 0.1600000 0.4200000
vn 0.5773500 0.5773500 0.5773508
f 19/19/19 20/20/20 21/21/21
v -0.1900000 0.1600000 0.4100000
vn -0.5773500 0.5773500 0.5773508
v -0.1800000 0.1600000 0.4200000
vn -0.5773500 0.5773500 0.5773508
v -0.1800000 0.1700000 0.4100000
vn -0.5773500 0.5773500 0.5773508
f 22/22/22 23/23/23 24/24/24
v -0.1800000 -0.1600000 0.0200000
vn -0.0000000 -0.7071066 -0.7071070
v 0.1800000 -0.1600000 0.0200000
vn -0.0000000 -0.7071066 -0.7071070
v 0.1800000 -0.1700000 0.0300000
vn -0.0000000 -0.7071066 -0.7071070
f 25/25/25 26/26/26 27/27/27
v -0.1800000 -0.1600000 0.0200000
vn 0.0000000 -0.7071066 -0.7071070
v 0.1800000 -0.1700000 0.0300000
vn 0.0000000 -0.7071066 -0.7071070
v -0.1800000 -0.1700000 0.0300000
vn 0.0000000 -0.7071066 -0.7071070
f 28/28/28 29/29/29 30/30/30
v -0.1900000 -0.1600000 0.0300000
vn -0.7071066 -0.0000000 -0.7071069
v -0.1900000 0.1600000 0.0300000
vn -0.7071066 -0.0000000 -0.7071069
v -0.1800000 0.1600000 0.0200000
vn -0.7071066 -0.0000000 -0.7071069
f 31/31/31 32/32/32 33/33/33
v -0.1900000 -0.1600000 0.0300000
vn -0.7071066 0.0000000 -0.7071069
v -0.1800000 0.1600000 0.0200000
vn -0.7071066 0.0000000 -0.7071069
v -0.1800000 -0.1600000 0.0200000
vn -0.7071066 0.0000000 -0.7071069
f 34/34/34 35/35/35 36/36/36
v 0.1800000 0.1600000 0.0200000
vn 0.0000000 0.7071066 -0.7071070
v -0.1800000 0.1600000 0.0200000
vn 0.0000000 0.7071066 -0.7071070
v -0.1800000 0.1700000 0.0300000
vn 0.0000000 0.7071066 -0.7071070
f 37/37/37 38/38/38 39/39/39
v 0.1800000 0.1600000 0.0200000
vn 0.0000000 0.7071066 -0.7071070
v -0.1800000 0.1700000 0.0300000
vn 0.0000000 0.7071066 -0.7071070
v 0.1800000 0.1700000 0.0300000
vn 0.0000000 0.7071066 -0.7071070
f 40/40/40 41/41/41 42/42/42
v 0.1800000 -0.1600000 0.0200000
vn 0.7071066 0.0000000 -0.7071069
v 0.1800000 0.1600000 0.0200000
vn 0.7071066 0.0000000 -0.7071069
v 0.1900000 0.1600000 0.0300000
vn 0.7071066 0.0000000 -0.7071069
f 43/43/43 44/44/44 45/45/45
v 0.1800000 -0.1600000 0.0200000
vn 0.7071065 0.0000000 -0.7071069
v 0.1900000 0.1600000 0.0300000
vn 0.7071065 0.0000000 -0.7071069
v 0.1900000 -0.1600000 0.0300000
vn 0.7071065 0.0000000 -0.7071069
f 46/46/46 47/47/47 48/48/48
v -0.1800000 -0.1600000 0.4200000
vn -0.7071063 0.0000000 0.7071073
v -0.1800000 0.1600000 0.4200000
vn -0.7071063 0.0000000 0.7071073
v -0.1900000 0.1600000 0.4100000
vn -0.7071063 0.0000000 0.7071073
f 49/49/49 50/50/50 51/51/51
v -0.1800000 -0.1600000 0.4200000
vn -0.7071063 0.0000000 0.7071073
v -0.1900000 0.1600000 0.4100000
vn -0.7071063 0.0000000 0.7071073
v -0.1900000 -0.1600000 0.4100000
vn -0.7071063 0.0000000 0.7071073
f 52/52/52 53/53/53 54/54/54
v -0.1800000 -0.1700000 0.4100000
vn 0.0000000 -0.7071062 0.7071073
v 0.1800000 -0.1700000 0.4100000
vn 0.0000000 -0.7071062 0.7071073
v 0.1800000 -0.1600000 0.4200000
vn 0.0000000 -0.7071062 0.7071073
f 55/55/55 56/56/56 57/57/57
v -0.1800000 -0.1700000 0.4100000
vn 0.0000000 -0.7071062 0.7071073
v 0.1800000 -0.1600000 0.4200000
vn 0.0000000 -0.7071062 0.7071073
v -0.1800000 -0.1600000 0.4200000
vn 0.0000000 -0.7071062 0.7071073
f 58/58/58 59/59/59 60/60/60
v 0.1900000 -0.1600000 0.4100000
vn 0.7071063 0.0000000 0.7071073
v 0.1900000 0.1600000 0.4100000
vn 0.7071063 0.0000000 0.7071073
v 0.1800000 0.1600000 0.4200000
vn 0.7071063 0.0000000 0.7071073
f 61/61/61 62/62/62 63/63/63
v 0.1900000 -0.1600000 0.4100000
vn 0.7071063 -0.0000000 0.7071073
v 0.1800000 0.1600000 0.4200000
vn 0.7071063 -0.0000000 0.7071073
v 0.1800000 -0.1600000 0.4200000
vn 0.7071063 -0.0000000 0.7071073
f 64/64/64 65/65/65 66/66/66
v 0.1800000 0.1700000 0.4100000
vn -0.0000000 0.7071062 0.7071073
v -0.1800000 0.1700000 0.4100000
vn -0.0000000 0.7071062 0.7071073
v -0.1800000 0.1600000 0.4200000
vn -0.0000000 0.7071062 0.7071073
f 67/67/67 68/68/68 69/69/69
v 0.1800000 0.1700000 0.4100000
vn 0.0000000 0.7071062 0.7071073
v -0.1800000 0.1600000 0.4200000
vn 0.0000000 0.7071062 0.7071073
v 0.1800000 0.1600000 0.4200000
vn 0.0000000 0.7071062 0.7071073
f 70/70/70 71/71/71 72/72/72
v -0.1800000 -0.1700000 0.0300000
vn -0.7071068 -0.7071068 -0.0000000
v -0.1800000 -0.1700000 0.4100000
vn -0.7071068 -0.7071068 -0.0000000
v -0.1900000 -0.1600000 0.4100000
vn -0.7071068 -0.7071068 -0.0000000
f 73/73/73 74/74/74 75/75/75
v -0.1800000 -0.1700000 0.0300000
vn -0.7071068 -0.7071068 0.0000000
v -0.1900000 -0.1600000 0.4100000
vn -0.7071068 -0.7071068 0.0000000
v -0.1900000 -0.1600000 0.0300000
vn -0.7071068 -0.7071068 0.0000000
f 76/76/76 77/77/77 78/78/78
v 0.1900000 -0.1600000 0.0300000
vn 0.7071068 -0.7071068 0.0000000
v 0.1900000 -0.1600000 0.4100000
vn 0.7071068 -0.7071068 0.0000000
v 0.1800000 -0.1700000 0.4100000
vn 0.7071068 -0.7071068 0.0000000
f 79/79/79 80/80/80 81/81/81
v 0.1900000 -0.1600000 0.0300000
vn 0.7071068 -0.7071068 0.0000000
v 0.1800000 -0.1700000 0.4100000
vn 0.7071068 -0.7071068 0.0000000
v 0.1800000 -0.1700000 0.0300000
vn 0.7071068 -0.7071068 0.0000000
f 82/82/82 83/83/83 84/84/84
v 0.1800000 0.1700000 0.0300000
vn 0.7071068 0.7071068 0.0000000
v 0.1800000 0.1700000 0.4100000
vn 0.7071068 0.7071068 0.0000000
v 0.1900000 0.1600000 0.4100000
vn 0.7071068 0.7071068 0.0000000
f 85/85/85 86/86/86 87/87/87
v 0.1800000 0.1700000 0.0300000
vn 0.7071068 0.7071068 -0.0000000
v 0.1900000 0.1600000 0.4100000
vn 0.7071068 0.7071068 -0.0000000
v 0.1900000 0.1600000 0.0300000
vn 0.7071068 0.7071068 -0.0000000
f 88/88/88 89/89/89 90/90/90
v -0.1900000 0.1600000 0.0300000
vn -0.7071068 0.7071068 0.0000000
v -0.1900000 0.1600000 0.4100000
vn -0.7071068 0.7071068 0.0000000
v -0.1800000 0.1700000 0.4100000
vn -0.7071068 0.7071068 0.0000000
f 91/91/91 92/92/92 93/93/93
v -0.1900000 0.1600000 0.0300000
vn -0.7071068 0.7071068 0.0000000
v -0.1800000 0.1700000 0.4100000
vn -0.7071068 0.7071068 0.0000000
v -0.1800000 0.1700000 0.0300000
vn -0.7071068 0.7071068 0.0000000
f 94/94/94 95/95/95 96/96/96
v -0.1800000 -0.1700000 0.0300000
vn -0.0000000 -0.9999999 -0.0000000
v 0.1800000 -0.1700000 0.0300000
vn -0.0000000 -0.9999999 -0.0000000
v 0.1800000 -0.1700000 0.4100000
vn -0.0000000 -0.9999999 -0.0000000
f 97/97/97 98/98/98 99/99/99
v -0.1800000 -0.1700000 0.0300000
vn 0.0000000 -0.9999999 -0.0000000
v 0.1800000 -0.1700000 0.4100000
vn 0.0000000 -0.9999999 -0.0000000
v -0.1800000 -0.1700000 0.4100000
vn 0.0000000 -0.9999999 -0.0000000
f 100/100/100 101/101/101 102/102/102
v -0.1800000 -0.1600000 0.0200000
vn -0.0000000 -0.0000000 -1.0000000
v -0.1800000 0.1600000 0.0200000
vn -0.0000000 -0.0000000 -1.0000000
v 0.1800000 0.1600000 0.0200000
vn -0.0000000 -0.0000000 -1.0000000
f 103/103/103 104/104/104 105/105/105
v -0.1800000 -0.1600000 0.0200000
vn -0.0000000 0.0000000 -1.0000000
v 0.1800000 0.1600000 0.0200000
vn -0.0000000 0.0000000 -1.0000000
v 0.1800000 -0.1600000 0.0200000
vn -0.0000000 0.0000000 -1.0000000
f 106/106/106 107/107/107 108/108/108
v -0.1900000 0.1600000 0.0300000
vn -0.9999999 0.0000000 0.0000000
v -0.1900000 -0.1600000 0.0300000
vn -0.9999999 0.0000000 0.0000000
v -0.1900000 -0.1600000 0.4100000
vn -0.9999999 0.0000000 0.0000000
f 109/109/109 110/110/110 111/111/111
v -0.1900000 0.1600000 0.0300000
vn -0.9999999 -0.0000000 -0.0000000
v -0.1900000 -0.1600000 0.4100000
vn -0.9999999 -0.0000000 -0.0000000
v -0.1900000 0.1600000 0.4100000
vn -0.9999999 -0.0000000 -0.0000000
f 112/112/112 113/113/113 114/114/114
v 0.1900000 -0.1600000 0.0300000
vn 0.9999999 0.0000000 0.0000000
v 0.1900000 0.1600000 0.0300000
vn 0.9999999 0.0000000 0.0000000
v 0.1900000 0.1600000 0.4100000
vn 0.9999999 0.0000000 0.0000000
f 115/115/115 116/116/116 117/117/117
v 0.1900000 -0.1600000 0.0300000
vn 0.9999999 -0.0000000 0.0000000
v 0.1900000 0.1600000 0.4100000
vn 0.9999999 -0.0000000 0.0000000
v 0.1900000 -0.1600000 0.4100000
vn 0.9999999 -0.0000000 0.0000000
f 118/118/118 119/119/119 120/120/120
v 0.1800000 0.1700000 0.0300000
vn -0.0000000 0.9999999 0.0000000
v -0.1800000 0.1700000 0.0300000
vn -0.0000000 0.9999999 0.0000000
v -0.1800000 0.1700000 0.4100000
vn -0.0000000 0.9999999 0.0000000
f 121/121/121 122/122/122 123/123/123
v 0.1800000 0.1700000 0.0300000
vn 0.0000000 0.9999999 0.0000000
v -0.1800000 0.1700000 0.4100000
vn 0.0000000 0.9999999 0.0000000
v 0.1800000 0.1700000 0.4100000
vn 0.0000000 0.9999999 0.0000000
f 124/124/124 125/125/125 126/126/126
v -0.1800000 -0.1600000 0.4200000
vn 0.0000000 0.0000000 1.0000000
v 0.1800000 -0.1600000 0.4200000
vn 0.0000000 0.0000000 1.0000000
v 0.1800000 0.1600000 0.4200000
vn 0.0000000 0.0000000 1.0000000
f 127/127/127 128/128/128 129/129/129
v -0.1800000 -0.1600000 0.4200000
vn -0.0000000 0.0000000 1.0000000
v 0.1800000 0.1600000 0.4200000
vn -0.0000000 0.0000000 1.0000000
v -0.1800000 0.1600000 0.4200000
vn -0.0000000 0.0000000 1.0000000
f 130/130/130 131/131/131 132/132/132
o pz_trashbin_grey_|_rounded_hood
usemtl lid
v -0.1620000 -0.1800000 0.4580000
vn -0.5773502 -0.5773502 -0.5773504
v -0.2000000 -0.1420000 0.4580000
vn -0.5773502 -0.5773502 -0.5773504
v -0.1620000 -0.1420000 0.4200000
vn -0.5773502 -0.5773502 -0.5773504
f 133/133/133 134/134/134 135/135/135
v 0.1620000 -0.1800000 0.4580000
vn 0.5773502 -0.5773502 -0.5773504
v 0.1620000 -0.1420000 0.4200000
vn 0.5773502 -0.5773502 -0.5773504
v 0.2000000 -0.1420000 0.4580000
vn 0.5773502 -0.5773502 -0.5773504
f 136/136/136 137/137/137 138/138/138
v 0.1620000 0.1800000 0.4580000
vn 0.5773502 0.5773502 -0.5773504
v 0.2000000 0.1420000 0.4580000
vn 0.5773502 0.5773502 -0.5773504
v 0.1620000 0.1420000 0.4200000
vn 0.5773502 0.5773502 -0.5773504
f 139/139/139 140/140/140 141/141/141
v -0.2000000 0.1420000 0.4580000
vn -0.5773502 0.5773502 -0.5773504
v -0.1620000 0.1800000 0.4580000
vn -0.5773502 0.5773502 -0.5773504
v -0.1620000 0.1420000 0.4200000
vn -0.5773502 0.5773502 -0.5773504
f 142/142/142 143/143/143 144/144/144
v -0.2000000 -0.1420000 0.5420000
vn -0.5773502 -0.5773502 0.5773504
v -0.1620000 -0.1800000 0.5420000
vn -0.5773502 -0.5773502 0.5773504
v -0.1620000 -0.1420000 0.5800000
vn -0.5773502 -0.5773502 0.5773504
f 145/145/145 146/146/146 147/147/147
v 0.1620000 -0.1800000 0.5420000
vn 0.5773502 -0.5773502 0.5773504
v 0.2000000 -0.1420000 0.5420000
vn 0.5773502 -0.5773502 0.5773504
v 0.1620000 -0.1420000 0.5800000
vn 0.5773502 -0.5773502 0.5773504
f 148/148/148 149/149/149 150/150/150
v 0.2000000 0.1420000 0.5420000
vn 0.5773502 0.5773502 0.5773504
v 0.1620000 0.1800000 0.5420000
vn 0.5773502 0.5773502 0.5773504
v 0.1620000 0.1420000 0.5800000
vn 0.5773502 0.5773502 0.5773504
f 151/151/151 152/152/152 153/153/153
v -0.2000000 0.1420000 0.5420000
vn -0.5773502 0.5773502 0.5773504
v -0.1620000 0.1420000 0.5800000
vn -0.5773502 0.5773502 0.5773504
v -0.1620000 0.1800000 0.5420000
vn -0.5773502 0.5773502 0.5773504
f 154/154/154 155/155/155 156/156/156
v -0.1620000 -0.1420000 0.4200000
vn -0.0000000 -0.7071066 -0.7071069
v 0.1620000 -0.1420000 0.4200000
vn -0.0000000 -0.7071066 -0.7071069
v 0.1620000 -0.1800000 0.4580000
vn -0.0000000 -0.7071066 -0.7071069
f 157/157/157 158/158/158 159/159/159
v -0.1620000 -0.1420000 0.4200000
vn 0.0000000 -0.7071066 -0.7071069
v 0.1620000 -0.1800000 0.4580000
vn 0.0000000 -0.7071066 -0.7071069
v -0.1620000 -0.1800000 0.4580000
vn 0.0000000 -0.7071066 -0.7071069
f 160/160/160 161/161/161 162/162/162
v -0.2000000 -0.1420000 0.4580000
vn -0.7071066 -0.0000000 -0.7071069
v -0.2000000 0.1420000 0.4580000
vn -0.7071066 -0.0000000 -0.7071069
v -0.1620000 0.1420000 0.4200000
vn -0.7071066 -0.0000000 -0.7071069
f 163/163/163 164/164/164 165/165/165
v -0.2000000 -0.1420000 0.4580000
vn -0.7071066 0.0000000 -0.7071069
v -0.1620000 0.1420000 0.4200000
vn -0.7071066 0.0000000 -0.7071069
v -0.1620000 -0.1420000 0.4200000
vn -0.7071066 0.0000000 -0.7071069
f 166/166/166 167/167/167 168/168/168
v 0.1620000 0.1420000 0.4200000
vn 0.0000000 0.7071066 -0.7071069
v -0.1620000 0.1420000 0.4200000
vn 0.0000000 0.7071066 -0.7071069
v -0.1620000 0.1800000 0.4580000
vn 0.0000000 0.7071066 -0.7071069
f 169/169/169 170/170/170 171/171/171
v 0.1620000 0.1420000 0.4200000
vn 0.0000000 0.7071066 -0.7071069
v -0.1620000 0.1800000 0.4580000
vn 0.0000000 0.7071066 -0.7071069
v 0.1620000 0.1800000 0.4580000
vn 0.0000000 0.7071066 -0.7071069
f 172/172/172 173/173/173 174/174/174
v 0.1620000 -0.1420000 0.4200000
vn 0.7071066 0.0000000 -0.7071069
v 0.1620000 0.1420000 0.4200000
vn 0.7071066 0.0000000 -0.7071069
v 0.2000000 0.1420000 0.4580000
vn 0.7071066 0.0000000 -0.7071069
f 175/175/175 176/176/176 177/177/177
v 0.1620000 -0.1420000 0.4200000
vn 0.7071066 0.0000000 -0.7071069
v 0.2000000 0.1420000 0.4580000
vn 0.7071066 0.0000000 -0.7071069
v 0.2000000 -0.1420000 0.4580000
vn 0.7071066 0.0000000 -0.7071069
f 178/178/178 179/179/179 180/180/180
v -0.1620000 -0.1420000 0.5800000
vn -0.7071066 0.0000000 0.7071069
v -0.1620000 0.1420000 0.5800000
vn -0.7071066 0.0000000 0.7071069
v -0.2000000 0.1420000 0.5420000
vn -0.7071066 0.0000000 0.7071069
f 181/181/181 182/182/182 183/183/183
v -0.1620000 -0.1420000 0.5800000
vn -0.7071066 0.0000000 0.7071069
v -0.2000000 0.1420000 0.5420000
vn -0.7071066 0.0000000 0.7071069
v -0.2000000 -0.1420000 0.5420000
vn -0.7071066 0.0000000 0.7071069
f 184/184/184 185/185/185 186/186/186
v -0.1620000 -0.1800000 0.5420000
vn 0.0000000 -0.7071066 0.7071069
v 0.1620000 -0.1800000 0.5420000
vn 0.0000000 -0.7071066 0.7071069
v 0.1620000 -0.1420000 0.5800000
vn 0.0000000 -0.7071066 0.7071069
f 187/187/187 188/188/188 189/189/189
v -0.1620000 -0.1800000 0.5420000
vn 0.0000000 -0.7071066 0.7071069
v 0.1620000 -0.1420000 0.5800000
vn 0.0000000 -0.7071066 0.7071069
v -0.1620000 -0.1420000 0.5800000
vn 0.0000000 -0.7071066 0.7071069
f 190/190/190 191/191/191 192/192/192
v 0.2000000 -0.1420000 0.5420000
vn 0.7071066 0.0000000 0.7071069
v 0.2000000 0.1420000 0.5420000
vn 0.7071066 0.0000000 0.7071069
v 0.1620000 0.1420000 0.5800000
vn 0.7071066 0.0000000 0.7071069
f 193/193/193 194/194/194 195/195/195
v 0.2000000 -0.1420000 0.5420000
vn 0.7071066 -0.0000000 0.7071069
v 0.1620000 0.1420000 0.5800000
vn 0.7071066 -0.0000000 0.7071069
v 0.1620000 -0.1420000 0.5800000
vn 0.7071066 -0.0000000 0.7071069
f 196/196/196 197/197/197 198/198/198
v 0.1620000 0.1800000 0.5420000
vn -0.0000000 0.7071066 0.7071069
v -0.1620000 0.1800000 0.5420000
vn -0.0000000 0.7071066 0.7071069
v -0.1620000 0.1420000 0.5800000
vn -0.0000000 0.7071066 0.7071069
f 199/199/199 200/200/200 201/201/201
v 0.1620000 0.1800000 0.5420000
vn 0.0000000 0.7071066 0.7071069
v -0.1620000 0.1420000 0.5800000
vn 0.0000000 0.7071066 0.7071069
v 0.1620000 0.1420000 0.5800000
vn 0.0000000 0.7071066 0.7071069
f 202/202/202 203/203/203 204/204/204
v -0.1620000 -0.1800000 0.4580000
vn -0.7071068 -0.7071068 -0.0000000
v -0.1620000 -0.1800000 0.5420000
vn -0.7071068 -0.7071068 -0.0000000
v -0.2000000 -0.1420000 0.5420000
vn -0.7071068 -0.7071068 -0.0000000
f 205/205/205 206/206/206 207/207/207
v -0.1620000 -0.1800000 0.4580000
vn -0.7071068 -0.7071068 0.0000000
v -0.2000000 -0.1420000 0.5420000
vn -0.7071068 -0.7071068 0.0000000
v -0.2000000 -0.1420000 0.4580000
vn -0.7071068 -0.7071068 0.0000000
f 208/208/208 209/209/209 210/210/210
v 0.2000000 -0.1420000 0.4580000
vn 0.7071068 -0.7071068 0.0000000
v 0.2000000 -0.1420000 0.5420000
vn 0.7071068 -0.7071068 0.0000000
v 0.1620000 -0.1800000 0.5420000
vn 0.7071068 -0.7071068 0.0000000
f 211/211/211 212/212/212 213/213/213
v 0.2000000 -0.1420000 0.4580000
vn 0.7071068 -0.7071068 0.0000000
v 0.1620000 -0.1800000 0.5420000
vn 0.7071068 -0.7071068 0.0000000
v 0.1620000 -0.1800000 0.4580000
vn 0.7071068 -0.7071068 0.0000000
f 214/214/214 215/215/215 216/216/216
v 0.1620000 0.1800000 0.4580000
vn 0.7071068 0.7071068 0.0000000
v 0.1620000 0.1800000 0.5420000
vn 0.7071068 0.7071068 0.0000000
v 0.2000000 0.1420000 0.5420000
vn 0.7071068 0.7071068 0.0000000
f 217/217/217 218/218/218 219/219/219
v 0.1620000 0.1800000 0.4580000
vn 0.7071068 0.7071068 -0.0000000
v 0.2000000 0.1420000 0.5420000
vn 0.7071068 0.7071068 -0.0000000
v 0.2000000 0.1420000 0.4580000
vn 0.7071068 0.7071068 -0.0000000
f 220/220/220 221/221/221 222/222/222
v -0.2000000 0.1420000 0.4580000
vn -0.7071068 0.7071068 0.0000000
v -0.2000000 0.1420000 0.5420000
vn -0.7071068 0.7071068 0.0000000
v -0.1620000 0.1800000 0.5420000
vn -0.7071068 0.7071068 0.0000000
f 223/223/223 224/224/224 225/225/225
v -0.2000000 0.1420000 0.4580000
vn -0.7071068 0.7071068 0.0000000
v -0.1620000 0.1800000 0.5420000
vn -0.7071068 0.7071068 0.0000000
v -0.1620000 0.1800000 0.4580000
vn -0.7071068 0.7071068 0.0000000
f 226/226/226 227/227/227 228/228/228
v -0.1620000 -0.1800000 0.4580000
vn -0.0000000 -1.0000000 -0.0000000
v 0.1620000 -0.1800000 0.4580000
vn -0.0000000 -1.0000000 -0.0000000
v 0.1620000 -0.1800000 0.5420000
vn -0.0000000 -1.0000000 -0.0000000
f 229/229/229 230/230/230 231/231/231
v -0.1620000 -0.1800000 0.4580000
vn 0.0000000 -1.0000000 -0.0000000
v 0.1620000 -0.1800000 0.5420000
vn 0.0000000 -1.0000000 -0.0000000
v -0.1620000 -0.1800000 0.5420000
vn 0.0000000 -1.0000000 -0.0000000
f 232/232/232 233/233/233 234/234/234
v -0.1620000 -0.1420000 0.4200000
vn -0.0000000 -0.0000000 -1.0000000
v -0.1620000 0.1420000 0.4200000
vn -0.0000000 -0.0000000 -1.0000000
v 0.1620000 0.1420000 0.4200000
vn -0.0000000 -0.0000000 -1.0000000
f 235/235/235 236/236/236 237/237/237
v -0.1620000 -0.1420000 0.4200000
vn -0.0000000 0.0000000 -1.0000000
v 0.1620000 0.1420000 0.4200000
vn -0.0000000 0.0000000 -1.0000000
v 0.1620000 -0.1420000 0.4200000
vn -0.0000000 0.0000000 -1.0000000
f 238/238/238 239/239/239 240/240/240
v -0.2000000 0.1420000 0.4580000
vn -1.0000000 0.0000000 0.0000000
v -0.2000000 -0.1420000 0.4580000
vn -1.0000000 0.0000000 0.0000000
v -0.2000000 -0.1420000 0.5420000
vn -1.0000000 0.0000000 0.0000000
f 241/241/241 242/242/242 243/243/243
v -0.2000000 0.1420000 0.4580000
vn -1.0000000 -0.0000000 -0.0000000
v -0.2000000 -0.1420000 0.5420000
vn -1.0000000 -0.0000000 -0.0000000
v -0.2000000 0.1420000 0.5420000
vn -1.0000000 -0.0000000 -0.0000000
f 244/244/244 245/245/245 246/246/246
v 0.2000000 -0.1420000 0.4580000
vn 1.0000000 0.0000000 0.0000000
v 0.2000000 0.1420000 0.4580000
vn 1.0000000 0.0000000 0.0000000
v 0.2000000 0.1420000 0.5420000
vn 1.0000000 0.0000000 0.0000000
f 247/247/247 248/248/248 249/249/249
v 0.2000000 -0.1420000 0.4580000
vn 1.0000000 -0.0000000 0.0000000
v 0.2000000 0.1420000 0.5420000
vn 1.0000000 -0.0000000 0.0000000
v 0.2000000 -0.1420000 0.5420000
vn 1.0000000 -0.0000000 0.0000000
f 250/250/250 251/251/251 252/252/252
v 0.1620000 0.1800000 0.4580000
vn -0.0000000 1.0000000 0.0000000
v -0.1620000 0.1800000 0.4580000
vn -0.0000000 1.0000000 0.0000000
v -0.1620000 0.1800000 0.5420000
vn -0.0000000 1.0000000 0.0000000
f 253/253/253 254/254/254 255/255/255
v 0.1620000 0.1800000 0.4580000
vn 0.0000000 1.0000000 0.0000000
v -0.1620000 0.1800000 0.5420000
vn 0.0000000 1.0000000 0.0000000
v 0.1620000 0.1800000 0.5420000
vn 0.0000000 1.0000000 0.0000000
f 256/256/256 257/257/257 258/258/258
v -0.1620000 -0.1420000 0.5800000
vn 0.0000000 0.0000000 1.0000000
v 0.1620000 -0.1420000 0.5800000
vn 0.0000000 0.0000000 1.0000000
v 0.1620000 0.1420000 0.5800000
vn 0.0000000 0.0000000 1.0000000
f 259/259/259 260/260/260 261/261/261
v -0.1620000 -0.1420000 0.5800000
vn -0.0000000 0.0000000 1.0000000
v 0.1620000 0.1420000 0.5800000
vn -0.0000000 0.0000000 1.0000000
v -0.1620000 0.1420000 0.5800000
vn -0.0000000 0.0000000 1.0000000
f 262/262/262 263/263/263 264/264/264
o pz_trashbin_grey_|_front_waste_opening
usemtl inside
v -0.1400000 -0.1840000 0.4300000
vn -0.0000000 -0.0000000 -1.0000000
v -0.1400000 -0.1790000 0.4300000
vn -0.0000000 -0.0000000 -1.0000000
v 0.1400000 -0.1790000 0.4300000
vn -0.0000000 -0.0000000 -1.0000000
f 265/265/265 266/266/266 267/267/267
v -0.1400000 -0.1840000 0.4300000
vn -0.0000000 0.0000000 -1.0000000
v 0.1400000 -0.1790000 0.4300000
vn -0.0000000 0.0000000 -1.0000000
v 0.1400000 -0.1840000 0.4300000
vn -0.0000000 0.0000000 -1.0000000
f 268/268/268 269/269/269 270/270/270
v -0.1400000 -0.1840000 0.5050000
vn 0.0000000 0.0000000 1.0000000
v 0.1400000 -0.1840000 0.5050000
vn 0.0000000 0.0000000 1.0000000
v 0.1400000 -0.1790000 0.5050000
vn 0.0000000 0.0000000 1.0000000
f 271/271/271 272/272/272 273/273/273
v -0.1400000 -0.1840000 0.5050000
vn -0.0000000 0.0000000 1.0000000
v 0.1400000 -0.1790000 0.5050000
vn -0.0000000 0.0000000 1.0000000
v -0.1400000 -0.1790000 0.5050000
vn -0.0000000 0.0000000 1.0000000
f 274/274/274 275/275/275 276/276/276
v -0.1400000 -0.1840000 0.4300000
vn -0.0000000 -1.0000000 -0.0000000
v 0.1400000 -0.1840000 0.4300000
vn -0.0000000 -1.0000000 -0.0000000
v 0.1400000 -0.1840000 0.5050000
vn -0.0000000 -1.0000000 -0.0000000
f 277/277/277 278/278/278 279/279/279
v -0.1400000 -0.1840000 0.4300000
vn 0.0000000 -1.0000000 -0.0000000
v 0.1400000 -0.1840000 0.5050000
vn 0.0000000 -1.0000000 -0.0000000
v -0.1400000 -0.1840000 0.5050000
vn 0.0000000 -1.0000000 -0.0000000
f 280/280/280 281/281/281 282/282/282
v 0.1400000 -0.1840000 0.4300000
vn 0.9999999 0.0000000 0.0000000
v 0.1400000 -0.1790000 0.4300000
vn 0.9999999 0.0000000 0.0000000
v 0.1400000 -0.1790000 0.5050000
vn 0.9999999 0.0000000 0.0000000
f 283/283/283 284/284/284 285/285/285
v 0.1400000 -0.1840000 0.4300000
vn 0.9999999 -0.0000000 0.0000000
v 0.1400000 -0.1790000 0.5050000
vn 0.9999999 -0.0000000 0.0000000
v 0.1400000 -0.1840000 0.5050000
vn 0.9999999 -0.0000000 0.0000000
f 286/286/286 287/287/287 288/288/288
v 0.1400000 -0.1790000 0.4300000
vn -0.0000000 1.0000000 0.0000000
v -0.1400000 -0.1790000 0.4300000
vn -0.0000000 1.0000000 0.0000000
v -0.1400000 -0.1790000 0.5050000
vn -0.0000000 1.0000000 0.0000000
f 289/289/289 290/290/290 291/291/291
v 0.1400000 -0.1790000 0.4300000
vn 0.0000000 1.0000000 0.0000000
v -0.1400000 -0.1790000 0.5050000
vn 0.0000000 1.0000000 0.0000000
v 0.1400000 -0.1790000 0.5050000
vn 0.0000000 1.0000000 0.0000000
f 292/292/292 293/293/293 294/294/294
v -0.1400000 -0.1790000 0.4300000
vn -0.9999999 0.0000000 0.0000000
v -0.1400000 -0.1840000 0.4300000
vn -0.9999999 0.0000000 0.0000000
v -0.1400000 -0.1840000 0.5050000
vn -0.9999999 0.0000000 0.0000000
f 295/295/295 296/296/296 297/297/297
v -0.1400000 -0.1790000 0.4300000
vn -0.9999999 -0.0000000 -0.0000000
v -0.1400000 -0.1840000 0.5050000
vn -0.9999999 -0.0000000 -0.0000000
v -0.1400000 -0.1790000 0.5050000
vn -0.9999999 -0.0000000 -0.0000000
f 298/298/298 299/299/299 300/300/300
