# Physical vanilla furniture; Z up; per-tile mesh.
# Tile-local game axes; ObjReader performs the scene conversion.
mtllib pz_wardrobe_storage_01_fancy_oak_0_0.mtl
usemtl original
v -0.4750000 -0.4700000 0.0550000
vt 0.921568627 0.158371041
vn 0.00000000 0.00000000 -1.00000000
v -0.4750000 0.0850000 0.0550000
vt 0.921568627 0.158371041
vn 0.00000000 0.00000000 -1.00000000
v 0.5000000 0.0850000 0.0550000
vt 0.852941176 0.126696833
vn 0.00000000 0.00000000 -1.00000000
f 1/1/1 2/2/2 3/3/3
v -0.4750000 -0.4700000 0.0550000
vt 0.921568627 0.158371041
vn 0.00000000 0.00000000 -1.00000000
v 0.5000000 0.0850000 0.0550000
vt 0.852941176 0.126696833
vn 0.00000000 0.00000000 -1.00000000
v 0.5000000 -0.4700000 0.0550000
vt 0.852941176 0.126696833
vn 0.00000000 0.00000000 -1.00000000
f 4/4/4 5/5/5 6/6/6
v -0.4750000 -0.4700000 0.0550000
vt 0.921568627 0.158371041
vn 0.00000000 -1.00000000 0.00000000
v 0.5000000 -0.4700000 0.0550000
vt 0.852941176 0.126696833
vn 0.00000000 -1.00000000 0.00000000
v 0.5000000 -0.4700000 1.9352480
vt 0.852941176 0.719457014
vn 0.00000000 -1.00000000 0.00000000
f 7/7/7 8/8/8 9/9/9
v -0.4750000 -0.4700000 0.0550000
vt 0.921568627 0.158371041
vn 0.00000000 -1.00000000 0.00000000
v 0.5000000 -0.4700000 1.9352480
vt 0.852941176 0.719457014
vn 0.00000000 -1.00000000 0.00000000
v -0.4750000 -0.4700000 1.9352480
vt 0.921568627 0.751131222
vn 0.00000000 -1.00000000 0.00000000
f 10/10/10 11/11/11 12/12/12
v 0.5000000 0.0850000 0.0550000
vt 0.852941176 0.126696833
vn 0.00000000 1.00000000 0.00000000
v -0.4750000 0.0850000 0.0550000
vt 0.921568627 0.158371041
vn 0.00000000 1.00000000 0.00000000
v -0.4750000 0.0850000 1.9352480
vt 0.921568627 0.751131222
vn 0.00000000 1.00000000 0.00000000
f 13/13/13 14/14/14 15/15/15
v 0.5000000 0.0850000 0.0550000
vt 0.852941176 0.126696833
vn 0.00000000 1.00000000 -0.00000000
v -0.4750000 0.0850000 1.9352480
vt 0.921568627 0.751131222
vn 0.00000000 1.00000000 -0.00000000
v 0.5000000 0.0850000 1.9352480
vt 0.852941176 0.719457014
vn 0.00000000 1.00000000 -0.00000000
f 16/16/16 17/17/17 18/18/18
v -0.4750000 0.0850000 0.0550000
vt 0.784313725 0.095022624
vn -1.00000000 0.00000000 0.00000000
v -0.4750000 -0.4700000 0.0550000
vt 0.921568627 0.158371041
vn -1.00000000 0.00000000 0.00000000
v -0.4750000 -0.4700000 1.9352480
vt 0.921568627 0.751131222
vn -1.00000000 0.00000000 0.00000000
f 19/19/19 20/20/20 21/21/21
v -0.4750000 0.0850000 0.0550000
vt 0.784313725 0.095022624
vn -1.00000000 0.00000000 0.00000000
v -0.4750000 -0.4700000 1.9352480
vt 0.921568627 0.751131222
vn -1.00000000 0.00000000 0.00000000
v -0.4750000 0.0850000 1.9352480
vt 0.784313725 0.687782805
vn -1.00000000 0.00000000 0.00000000
f 22/22/22 23/23/23 24/24/24
v -0.4750000 -0.4700000 1.9352480
vt 0.750000000 0.923076923
vn 0.00000000 0.00000000 1.00000000
v 0.5000000 -0.4700000 1.9352480
vt 0.828431373 0.886877828
vn 0.00000000 0.00000000 1.00000000
v 0.5000000 0.0850000 1.9352480
vt 0.671568627 0.814479638
vn 0.00000000 0.00000000 1.00000000
f 25/25/25 26/26/26 27/27/27
v -0.4750000 -0.4700000 1.9352480
vt 0.750000000 0.923076923
vn 0.00000000 0.00000000 1.00000000
v 0.5000000 0.0850000 1.9352480
vt 0.671568627 0.814479638
vn 0.00000000 0.00000000 1.00000000
v -0.4750000 0.0850000 1.9352480
vt 0.593137255 0.850678733
vn 0.00000000 0.00000000 1.00000000
f 28/28/28 29/29/29 30/30/30
v -0.4950000 -0.4900000 0.0250000
vt 0.921568627 0.293089268
vn 0.00000000 0.00000000 -1.00000000
v -0.4950000 0.1250000 0.0250000
vt 0.921568627 0.293089268
vn 0.00000000 0.00000000 -1.00000000
v 0.5000000 0.1250000 0.0250000
vt 0.852941176 0.261415060
vn 0.00000000 0.00000000 -1.00000000
f 31/31/31 32/32/32 33/33/33
v -0.4950000 -0.4900000 0.0250000
vt 0.921568627 0.293089268
vn 0.00000000 0.00000000 -1.00000000
v 0.5000000 0.1250000 0.0250000
vt 0.852941176 0.261415060
vn 0.00000000 0.00000000 -1.00000000
v 0.5000000 -0.4900000 0.0250000
vt 0.852941176 0.261415060
vn 0.00000000 0.00000000 -1.00000000
f 34/34/34 35/35/35 36/36/36
v -0.4950000 -0.4900000 0.0250000
vt 0.921568627 0.293089268
vn 0.00000000 -1.00000000 0.00000000
v 0.5000000 -0.4900000 0.0250000
vt 0.852941176 0.261415060
vn 0.00000000 -1.00000000 0.00000000
v 0.5000000 -0.4900000 0.1000000
vt 0.852941176 0.665569720
vn 0.00000000 -1.00000000 0.00000000
f 37/37/37 38/38/38 39/39/39
v -0.4950000 -0.4900000 0.0250000
vt 0.921568627 0.293089268
vn 0.00000000 -1.00000000 0.00000000
v 0.5000000 -0.4900000 0.1000000
vt 0.852941176 0.665569720
vn 0.00000000 -1.00000000 0.00000000
v -0.4950000 -0.4900000 0.1000000
vt 0.921568627 0.697243928
vn 0.00000000 -1.00000000 0.00000000
f 40/40/40 41/41/41 42/42/42
v 0.5000000 0.1250000 0.0250000
vt 0.852941176 0.261415060
vn 0.00000000 1.00000000 0.00000000
v -0.4950000 0.1250000 0.0250000
vt 0.921568627 0.293089268
vn 0.00000000 1.00000000 0.00000000
v -0.4950000 0.1250000 0.1000000
vt 0.921568627 0.697243928
vn 0.00000000 1.00000000 0.00000000
f 43/43/43 44/44/44 45/45/45
v 0.5000000 0.1250000 0.0250000
vt 0.852941176 0.261415060
vn 0.00000000 1.00000000 -0.00000000
v -0.4950000 0.1250000 0.1000000
vt 0.921568627 0.697243928
vn 0.00000000 1.00000000 -0.00000000
v 0.5000000 0.1250000 0.1000000
vt 0.852941176 0.665569720
vn 0.00000000 1.00000000 -0.00000000
f 46/46/46 47/47/47 48/48/48
v -0.4950000 0.1250000 0.0250000
vt 0.784313725 0.229740852
vn -1.00000000 0.00000000 0.00000000
v -0.4950000 -0.4900000 0.0250000
vt 0.921568627 0.293089268
vn -1.00000000 0.00000000 0.00000000
v -0.4950000 -0.4900000 0.1000000
vt 0.921568627 0.697243928
vn -1.00000000 0.00000000 0.00000000
f 49/49/49 50/50/50 51/51/51
v -0.4950000 0.1250000 0.0250000
vt 0.784313725 0.229740852
vn -1.00000000 0.00000000 0.00000000
v -0.4950000 -0.4900000 0.1000000
vt 0.921568627 0.697243928
vn -1.00000000 0.00000000 0.00000000
v -0.4950000 0.1250000 0.1000000
vt 0.784313725 0.633895512
vn -1.00000000 0.00000000 0.00000000
f 52/52/52 53/53/53 54/54/54
v -0.4950000 -0.4900000 0.1000000
vt 0.750000000 0.923076923
vn 0.00000000 0.00000000 1.00000000
v 0.5000000 -0.4900000 0.1000000
vt 0.828431373 0.886877828
vn 0.00000000 0.00000000 1.00000000
v 0.5000000 0.1250000 0.1000000
vt 0.671568627 0.814479638
vn 0.00000000 0.00000000 1.00000000
f 55/55/55 56/56/56 57/57/57
v -0.4950000 -0.4900000 0.1000000
vt 0.750000000 0.923076923
vn 0.00000000 0.00000000 1.00000000
v 0.5000000 0.1250000 0.1000000
vt 0.671568627 0.814479638
vn 0.00000000 0.00000000 1.00000000
v -0.4950000 0.1250000 0.1000000
vt 0.593137255 0.850678733
vn 0.00000000 0.00000000 1.00000000
f 58/58/58 59/59/59 60/60/60
v -0.4950000 -0.4900000 1.9352480
vt 0.921568627 0.158371041
vn 0.00000000 0.00000000 -1.00000000
v -0.4950000 0.1350000 1.9352480
vt 0.921568627 0.158371041
vn 0.00000000 0.00000000 -1.00000000
v 0.5000000 0.1350000 1.9352480
vt 0.852941176 0.126696833
vn 0.00000000 0.00000000 -1.00000000
f 61/61/61 62/62/62 63/63/63
v -0.4950000 -0.4900000 1.9352480
vt 0.921568627 0.158371041
vn 0.00000000 0.00000000 -1.00000000
v 0.5000000 0.1350000 1.9352480
vt 0.852941176 0.126696833
vn 0.00000000 0.00000000 -1.00000000
v 0.5000000 -0.4900000 1.9352480
vt 0.852941176 0.126696833
vn 0.00000000 0.00000000 -1.00000000
f 64/64/64 65/65/65 66/66/66
v -0.4950000 -0.4900000 1.9352480
vt 0.921568627 0.158371041
vn 0.00000000 -1.00000000 0.00000000
v 0.5000000 -0.4900000 1.9352480
vt 0.852941176 0.126696833
vn 0.00000000 -1.00000000 0.00000000
v 0.5000000 -0.4900000 1.9902480
vt 0.852941176 0.719457014
vn 0.00000000 -1.00000000 0.00000000
f 67/67/67 68/68/68 69/69/69
v -0.4950000 -0.4900000 1.9352480
vt 0.921568627 0.158371041
vn 0.00000000 -1.00000000 0.00000000
v 0.5000000 -0.4900000 1.9902480
vt 0.852941176 0.719457014
vn 0.00000000 -1.00000000 0.00000000
v -0.4950000 -0.4900000 1.9902480
vt 0.921568627 0.751131222
vn 0.00000000 -1.00000000 0.00000000
f 70/70/70 71/71/71 72/72/72
v 0.5000000 0.1350000 1.9352480
vt 0.852941176 0.126696833
vn 0.00000000 1.00000000 0.00000000
v -0.4950000 0.1350000 1.9352480
vt 0.921568627 0.158371041
vn 0.00000000 1.00000000 0.00000000
v -0.4950000 0.1350000 1.9902480
vt 0.921568627 0.751131222
vn 0.00000000 1.00000000 0.00000000
f 73/73/73 74/74/74 75/75/75
v 0.5000000 0.1350000 1.9352480
vt 0.852941176 0.126696833
vn 0.00000000 1.00000000 -0.00000000
v -0.4950000 0.1350000 1.9902480
vt 0.921568627 0.751131222
vn 0.00000000 1.00000000 -0.00000000
v 0.5000000 0.1350000 1.9902480
vt 0.852941176 0.719457014
vn 0.00000000 1.00000000 -0.00000000
f 76/76/76 77/77/77 78/78/78
v -0.4950000 0.1350000 1.9352480
vt 0.784313725 0.095022624
vn -1.00000000 0.00000000 0.00000000
v -0.4950000 -0.4900000 1.9352480
vt 0.921568627 0.158371041
vn -1.00000000 0.00000000 0.00000000
v -0.4950000 -0.4900000 1.9902480
vt 0.921568627 0.751131222
vn -1.00000000 0.00000000 0.00000000
f 79/79/79 80/80/80 81/81/81
v -0.4950000 0.1350000 1.9352480
vt 0.784313725 0.095022624
vn -1.00000000 0.00000000 0.00000000
v -0.4950000 -0.4900000 1.9902480
vt 0.921568627 0.751131222
vn -1.00000000 0.00000000 0.00000000
v -0.4950000 0.1350000 1.9902480
vt 0.784313725 0.687782805
vn -1.00000000 0.00000000 0.00000000
f 82/82/82 83/83/83 84/84/84
v -0.4950000 -0.4900000 1.9902480
vt 0.750000000 0.927601810
vn 0.00000000 0.00000000 1.00000000
v 0.5000000 -0.4900000 1.9902480
vt 0.835784320 0.888009047
vn 0.00000000 0.00000000 1.00000000
v 0.5000000 0.1350000 1.9902480
vt 0.659313732 0.806561083
vn 0.00000000 0.00000000 1.00000000
f 85/85/85 86/86/86 87/87/87
v -0.4950000 -0.4900000 1.9902480
vt 0.750000000 0.927601810
vn 0.00000000 0.00000000 1.00000000
v 0.5000000 0.1350000 1.9902480
vt 0.659313732 0.806561083
vn 0.00000000 0.00000000 1.00000000
v -0.4950000 0.1350000 1.9902480
vt 0.573529412 0.846153846
vn 0.00000000 0.00000000 1.00000000
f 88/88/88 89/89/89 90/90/90
v -0.4650000 0.0840000 0.4150000
vt 0.921568627 0.158371041
vn 0.00000000 0.00000000 -1.00000000
v -0.4650000 0.1300000 0.4150000
vt 0.921568627 0.158371041
vn 0.00000000 0.00000000 -1.00000000
v 0.4650000 0.1300000 0.4150000
vt 0.855430249 0.127845635
vn 0.00000000 0.00000000 -1.00000000
f 91/91/91 92/92/92 93/93/93
v -0.4650000 0.0840000 0.4150000
vt 0.921568627 0.158371041
vn 0.00000000 0.00000000 -1.00000000
v 0.4650000 0.1300000 0.4150000
vt 0.855430249 0.127845635
vn 0.00000000 0.00000000 -1.00000000
v 0.4650000 0.0840000 0.4150000
vt 0.855430249 0.127845635
vn 0.00000000 0.00000000 -1.00000000
f 94/94/94 95/95/95 96/96/96
v -0.4650000 0.0840000 0.4150000
vt 0.921568627 0.158371041
vn 0.00000000 -1.00000000 0.00000000
v 0.4650000 0.0840000 0.4150000
vt 0.855430249 0.127845635
vn 0.00000000 -1.00000000 0.00000000
v 0.4650000 0.0840000 1.9202480
vt 0.855430249 0.720605816
vn 0.00000000 -1.00000000 0.00000000
f 97/97/97 98/98/98 99/99/99
v -0.4650000 0.0840000 0.4150000
vt 0.921568627 0.158371041
vn 0.00000000 -1.00000000 0.00000000
v 0.4650000 0.0840000 1.9202480
vt 0.855430249 0.720605816
vn 0.00000000 -1.00000000 0.00000000
v -0.4650000 0.0840000 1.9202480
vt 0.921568627 0.751131222
vn 0.00000000 -1.00000000 0.00000000
f 100/100/100 101/101/101 102/102/102
v 0.4650000 0.0840000 0.4150000
vt 0.921568627 0.158371041
vn 1.00000000 0.00000000 0.00000000
v 0.4650000 0.1300000 0.4150000
vt 0.784313725 0.095022624
vn 1.00000000 0.00000000 0.00000000
v 0.4650000 0.1300000 1.9202480
vt 0.784313725 0.687782805
vn 1.00000000 0.00000000 0.00000000
f 103/103/103 104/104/104 105/105/105
v 0.4650000 0.0840000 0.4150000
vt 0.921568627 0.158371041
vn 1.00000000 0.00000000 0.00000000
v 0.4650000 0.1300000 1.9202480
vt 0.784313725 0.687782805
vn 1.00000000 0.00000000 0.00000000
v 0.4650000 0.0840000 1.9202480
vt 0.921568627 0.751131222
vn 1.00000000 0.00000000 0.00000000
f 106/106/106 107/107/107 108/108/108
v 0.4650000 0.1300000 0.4150000
vt 0.220588235 0.278280549
vn 0.00000000 1.00000000 0.00000000
v -0.4650000 0.1300000 0.4150000
vt 0.078431373 0.343891403
vn 0.00000000 1.00000000 0.00000000
v -0.4650000 0.1300000 1.9202480
vt 0.078431373 0.748868784
vn 0.00000000 1.00000000 0.00000000
f 109/109/109 110/110/110 111/111/111
v 0.4650000 0.1300000 0.4150000
vt 0.220588235 0.278280549
vn 0.00000000 1.00000000 -0.00000000
v -0.4650000 0.1300000 1.9202480
vt 0.078431373 0.748868784
vn 0.00000000 1.00000000 -0.00000000
v 0.4650000 0.1300000 1.9202480
vt 0.220588235 0.683257919
vn 0.00000000 1.00000000 -0.00000000
f 112/112/112 113/113/113 114/114/114
v -0.4650000 0.1300000 0.4150000
vt 0.784313725 0.095022624
vn -1.00000000 0.00000000 0.00000000
v -0.4650000 0.0840000 0.4150000
vt 0.921568627 0.158371041
vn -1.00000000 0.00000000 0.00000000
v -0.4650000 0.0840000 1.9202480
vt 0.921568627 0.751131222
vn -1.00000000 0.00000000 0.00000000
f 115/115/115 116/116/116 117/117/117
v -0.4650000 0.1300000 0.4150000
vt 0.784313725 0.095022624
vn -1.00000000 0.00000000 0.00000000
v -0.4650000 0.0840000 1.9202480
vt 0.921568627 0.751131222
vn -1.00000000 0.00000000 0.00000000
v -0.4650000 0.1300000 1.9202480
vt 0.784313725 0.687782805
vn -1.00000000 0.00000000 0.00000000
f 118/118/118 119/119/119 120/120/120
v -0.4650000 0.0840000 1.9202480
vt 0.750000000 0.923076923
vn 0.00000000 0.00000000 1.00000000
v 0.4650000 0.0840000 1.9202480
vt 0.825586711 0.888190749
vn 0.00000000 0.00000000 1.00000000
v 0.4650000 0.1300000 1.9202480
vt 0.668723965 0.815792559
vn 0.00000000 0.00000000 1.00000000
f 121/121/121 122/122/122 123/123/123
v -0.4650000 0.0840000 1.9202480
vt 0.750000000 0.923076923
vn 0.00000000 0.00000000 1.00000000
v 0.4650000 0.1300000 1.9202480
vt 0.668723965 0.815792559
vn 0.00000000 0.00000000 1.00000000
v -0.4650000 0.1300000 1.9202480
vt 0.593137255 0.850678733
vn 0.00000000 0.00000000 1.00000000
f 124/124/124 125/125/125 126/126/126
v -0.4650000 0.0920000 0.1300000
vt 0.921568627 0.158371041
vn 0.00000000 0.00000000 -1.00000000
v -0.4650000 0.1330000 0.1300000
vt 0.921568627 0.158371041
vn 0.00000000 0.00000000 -1.00000000
v 0.4650000 0.1330000 0.1300000
vt 0.855430249 0.127845635
vn 0.00000000 0.00000000 -1.00000000
f 127/127/127 128/128/128 129/129/129
v -0.4650000 0.0920000 0.1300000
vt 0.921568627 0.158371041
vn 0.00000000 0.00000000 -1.00000000
v 0.4650000 0.1330000 0.1300000
vt 0.855430249 0.127845635
vn 0.00000000 0.00000000 -1.00000000
v 0.4650000 0.0920000 0.1300000
vt 0.855430249 0.127845635
vn 0.00000000 0.00000000 -1.00000000
f 130/130/130 131/131/131 132/132/132
v -0.4650000 0.0920000 0.1300000
vt 0.921568627 0.158371041
vn 0.00000000 -1.00000000 0.00000000
v 0.4650000 0.0920000 0.1300000
vt 0.855430249 0.127845635
vn 0.00000000 -1.00000000 0.00000000
v 0.4650000 0.0920000 0.2750000
vt 0.855430249 0.400703502
vn 0.00000000 -1.00000000 0.00000000
f 133/133/133 134/134/134 135/135/135
v -0.4650000 0.0920000 0.1300000
vt 0.921568627 0.158371041
vn 0.00000000 -1.00000000 0.00000000
v 0.4650000 0.0920000 0.2750000
vt 0.855430249 0.400703502
vn 0.00000000 -1.00000000 0.00000000
v -0.4650000 0.0920000 0.2750000
vt 0.921568627 0.431228907
vn 0.00000000 -1.00000000 0.00000000
f 136/136/136 137/137/137 138/138/138
v 0.4650000 0.0920000 0.1300000
vt 0.921568627 0.158371041
vn 1.00000000 0.00000000 0.00000000
v 0.4650000 0.1330000 0.1300000
vt 0.784313725 0.095022624
vn 1.00000000 0.00000000 0.00000000
v 0.4650000 0.1330000 0.2750000
vt 0.784313725 0.367880491
vn 1.00000000 0.00000000 0.00000000
f 139/139/139 140/140/140 141/141/141
v 0.4650000 0.0920000 0.1300000
vt 0.921568627 0.158371041
vn 1.00000000 0.00000000 0.00000000
v 0.4650000 0.1330000 0.2750000
vt 0.784313725 0.367880491
vn 1.00000000 0.00000000 0.00000000
v 0.4650000 0.0920000 0.2750000
vt 0.921568627 0.431228907
vn 1.00000000 0.00000000 0.00000000
f 142/142/142 143/143/143 144/144/144
v 0.4650000 0.1330000 0.1300000
vt 0.220588235 0.074660628
vn 0.00000000 1.00000000 0.00000000
v -0.4650000 0.1330000 0.1300000
vt 0.078431373 0.140271493
vn 0.00000000 1.00000000 0.00000000
v -0.4650000 0.1330000 0.2750000
vt 0.078431373 0.220462543
vn 0.00000000 1.00000000 0.00000000
f 145/145/145 146/146/146 147/147/147
v 0.4650000 0.1330000 0.1300000
vt 0.220588235 0.074660628
vn 0.00000000 1.00000000 -0.00000000
v -0.4650000 0.1330000 0.2750000
vt 0.078431373 0.220462543
vn 0.00000000 1.00000000 -0.00000000
v 0.4650000 0.1330000 0.2750000
vt 0.220588235 0.154851689
vn 0.00000000 1.00000000 -0.00000000
f 148/148/148 149/149/149 150/150/150
v -0.4650000 0.1330000 0.1300000
vt 0.784313725 0.095022624
vn -1.00000000 0.00000000 0.00000000
v -0.4650000 0.0920000 0.1300000
vt 0.921568627 0.158371041
vn -1.00000000 0.00000000 0.00000000
v -0.4650000 0.0920000 0.2750000
vt 0.921568627 0.431228907
vn -1.00000000 0.00000000 0.00000000
f 151/151/151 152/152/152 153/153/153
v -0.4650000 0.1330000 0.1300000
vt 0.784313725 0.095022624
vn -1.00000000 0.00000000 0.00000000
v -0.4650000 0.0920000 0.2750000
vt 0.921568627 0.431228907
vn -1.00000000 0.00000000 0.00000000
v -0.4650000 0.1330000 0.2750000
vt 0.784313725 0.367880491
vn -1.00000000 0.00000000 0.00000000
f 154/154/154 155/155/155 156/156/156
v -0.4650000 0.0920000 0.2750000
vt 0.750000000 0.923076923
vn 0.00000000 0.00000000 1.00000000
v 0.4650000 0.0920000 0.2750000
vt 0.825586711 0.888190749
vn 0.00000000 0.00000000 1.00000000
v 0.4650000 0.1330000 0.2750000
vt 0.668723965 0.815792559
vn 0.00000000 0.00000000 1.00000000
f 157/157/157 158/158/158 159/159/159
v -0.4650000 0.0920000 0.2750000
vt 0.750000000 0.923076923
vn 0.00000000 0.00000000 1.00000000
v 0.4650000 0.1330000 0.2750000
vt 0.668723965 0.815792559
vn 0.00000000 0.00000000 1.00000000
v -0.4650000 0.1330000 0.2750000
vt 0.593137255 0.850678733
vn 0.00000000 0.00000000 1.00000000
f 160/160/160 161/161/161 162/162/162
v -0.4650000 0.0920000 0.3000000
vt 0.921568627 0.478273355
vn 0.00000000 0.00000000 -1.00000000
v -0.4650000 0.1330000 0.3000000
vt 0.921568627 0.478273355
vn 0.00000000 0.00000000 -1.00000000
v 0.4650000 0.1330000 0.3000000
vt 0.855430249 0.447747962
vn 0.00000000 0.00000000 -1.00000000
f 163/163/163 164/164/164 165/165/165
v -0.4650000 0.0920000 0.3000000
vt 0.921568627 0.478273355
vn 0.00000000 0.00000000 -1.00000000
v 0.4650000 0.1330000 0.3000000
vt 0.855430249 0.447747962
vn 0.00000000 0.00000000 -1.00000000
v 0.4650000 0.0920000 0.3000000
vt 0.855430249 0.447747962
vn 0.00000000 0.00000000 -1.00000000
f 166/166/166 167/167/167 168/168/168
v -0.4650000 0.0920000 0.3000000
vt 0.921568627 0.478273355
vn 0.00000000 -1.00000000 0.00000000
v 0.4650000 0.0920000 0.3000000
vt 0.855430249 0.447747962
vn 0.00000000 -1.00000000 0.00000000
v 0.4650000 0.0920000 0.4450000
vt 0.855430249 0.720605816
vn 0.00000000 -1.00000000 0.00000000
f 169/169/169 170/170/170 171/171/171
v -0.4650000 0.0920000 0.3000000
vt 0.921568627 0.478273355
vn 0.00000000 -1.00000000 0.00000000
v 0.4650000 0.0920000 0.4450000
vt 0.855430249 0.720605816
vn 0.00000000 -1.00000000 0.00000000
v -0.4650000 0.0920000 0.4450000
vt 0.921568627 0.751131222
vn 0.00000000 -1.00000000 0.00000000
f 172/172/172 173/173/173 174/174/174
v 0.4650000 0.0920000 0.3000000
vt 0.921568627 0.478273355
vn 1.00000000 0.00000000 0.00000000
v 0.4650000 0.1330000 0.3000000
vt 0.784313725 0.414924939
vn 1.00000000 0.00000000 0.00000000
v 0.4650000 0.1330000 0.4450000
vt 0.784313725 0.687782805
vn 1.00000000 0.00000000 0.00000000
f 175/175/175 176/176/176 177/177/177
v 0.4650000 0.0920000 0.3000000
vt 0.921568627 0.478273355
vn 1.00000000 0.00000000 0.00000000
v 0.4650000 0.1330000 0.4450000
vt 0.784313725 0.687782805
vn 1.00000000 0.00000000 0.00000000
v 0.4650000 0.0920000 0.4450000
vt 0.921568627 0.751131222
vn 1.00000000 0.00000000 0.00000000
f 178/178/178 179/179/179 180/180/180
v 0.4650000 0.1330000 0.3000000
vt 0.220588235 0.168677728
vn 0.00000000 1.00000000 0.00000000
v -0.4650000 0.1330000 0.3000000
vt 0.078431373 0.234288582
vn 0.00000000 1.00000000 0.00000000
v -0.4650000 0.1330000 0.4450000
vt 0.078431373 0.314479644
vn 0.00000000 1.00000000 0.00000000
f 181/181/181 182/182/182 183/183/183
v 0.4650000 0.1330000 0.3000000
vt 0.220588235 0.168677728
vn 0.00000000 1.00000000 -0.00000000
v -0.4650000 0.1330000 0.4450000
vt 0.078431373 0.314479644
vn 0.00000000 1.00000000 -0.00000000
v 0.4650000 0.1330000 0.4450000
vt 0.220588235 0.248868778
vn 0.00000000 1.00000000 -0.00000000
f 184/184/184 185/185/185 186/186/186
v -0.4650000 0.1330000 0.3000000
vt 0.784313725 0.414924939
vn -1.00000000 0.00000000 0.00000000
v -0.4650000 0.0920000 0.3000000
vt 0.921568627 0.478273355
vn -1.00000000 0.00000000 0.00000000
v -0.4650000 0.0920000 0.4450000
vt 0.921568627 0.751131222
vn -1.00000000 0.00000000 0.00000000
f 187/187/187 188/188/188 189/189/189
v -0.4650000 0.1330000 0.3000000
vt 0.784313725 0.414924939
vn -1.00000000 0.00000000 0.00000000
v -0.4650000 0.0920000 0.4450000
vt 0.921568627 0.751131222
vn -1.00000000 0.00000000 0.00000000
v -0.4650000 0.1330000 0.4450000
vt 0.784313725 0.687782805
vn -1.00000000 0.00000000 0.00000000
f 190/190/190 191/191/191 192/192/192
v -0.4650000 0.0920000 0.4450000
vt 0.750000000 0.923076923
vn 0.00000000 0.00000000 1.00000000
v 0.4650000 0.0920000 0.4450000
vt 0.825586711 0.888190749
vn 0.00000000 0.00000000 1.00000000
v 0.4650000 0.1330000 0.4450000
vt 0.668723965 0.815792559
vn 0.00000000 0.00000000 1.00000000
f 193/193/193 194/194/194 195/195/195
v -0.4650000 0.0920000 0.4450000
vt 0.750000000 0.923076923
vn 0.00000000 0.00000000 1.00000000
v 0.4650000 0.1330000 0.4450000
vt 0.668723965 0.815792559
vn 0.00000000 0.00000000 1.00000000
v -0.4650000 0.1330000 0.4450000
vt 0.593137255 0.850678733
vn 0.00000000 0.00000000 1.00000000
f 196/196/196 197/197/197 198/198/198
v -0.4350000 -0.4350000 0.0000000
vt 0.917430287 0.156461037
vn 0.00000000 0.00000000 -1.00000000
v -0.4350000 -0.3650000 0.0000000
vt 0.917430287 0.156461037
vn 0.00000000 0.00000000 -1.00000000
v -0.3650000 -0.3650000 0.0000000
vt 0.912602227 0.154232702
vn 0.00000000 0.00000000 -1.00000000
f 199/199/199 200/200/200 201/201/201
v -0.4350000 -0.4350000 0.0000000
vt 0.917430287 0.156461037
vn 0.00000000 0.00000000 -1.00000000
v -0.3650000 -0.3650000 0.0000000
vt 0.912602227 0.154232702
vn 0.00000000 0.00000000 -1.00000000
v -0.3650000 -0.4350000 0.0000000
vt 0.912602227 0.154232702
vn 0.00000000 0.00000000 -1.00000000
f 202/202/202 203/203/203 204/204/204
v -0.4350000 -0.4350000 0.0000000
vt 0.917430287 0.156461037
vn 0.00000000 -1.00000000 0.00000000
v -0.3650000 -0.4350000 0.0000000
vt 0.912602227 0.154232702
vn 0.00000000 -1.00000000 0.00000000
v -0.3650000 -0.4350000 0.1100000
vt 0.912602227 0.746992883
vn 0.00000000 -1.00000000 0.00000000
f 205/205/205 206/206/206 207/207/207
v -0.4350000 -0.4350000 0.0000000
vt 0.917430287 0.156461037
vn 0.00000000 -1.00000000 0.00000000
v -0.3650000 -0.4350000 0.1100000
vt 0.912602227 0.746992883
vn 0.00000000 -1.00000000 0.00000000
v -0.4350000 -0.4350000 0.1100000
vt 0.917430287 0.749221218
vn 0.00000000 -1.00000000 0.00000000
f 208/208/208 209/209/209 210/210/210
v -0.3650000 -0.4350000 0.0000000
vt 0.909293804 0.152705738
vn 1.00000000 0.00000000 0.00000000
v -0.3650000 -0.3650000 0.0000000
vt 0.893671291 0.145495341
vn 1.00000000 0.00000000 0.00000000
v -0.3650000 -0.3650000 0.1100000
vt 0.893671291 0.738255522
vn 1.00000000 0.00000000 0.00000000
f 211/211/211 212/212/212 213/213/213
v -0.3650000 -0.4350000 0.0000000
vt 0.909293804 0.152705738
vn 1.00000000 0.00000000 0.00000000
v -0.3650000 -0.3650000 0.1100000
vt 0.893671291 0.738255522
vn 1.00000000 0.00000000 0.00000000
v -0.3650000 -0.4350000 0.1100000
vt 0.909293804 0.745465919
vn 1.00000000 0.00000000 0.00000000
f 214/214/214 215/215/215 216/216/216
v -0.3650000 -0.3650000 0.0000000
vt 0.912602227 0.154232702
vn 0.00000000 1.00000000 0.00000000
v -0.4350000 -0.3650000 0.0000000
vt 0.917430287 0.156461037
vn 0.00000000 1.00000000 0.00000000
v -0.4350000 -0.3650000 0.1100000
vt 0.917430287 0.749221218
vn 0.00000000 1.00000000 0.00000000
f 217/217/217 218/218/218 219/219/219
v -0.3650000 -0.3650000 0.0000000
vt 0.912602227 0.154232702
vn 0.00000000 1.00000000 -0.00000000
v -0.4350000 -0.3650000 0.1100000
vt 0.917430287 0.749221218
vn 0.00000000 1.00000000 -0.00000000
v -0.3650000 -0.3650000 0.1100000
vt 0.912602227 0.746992883
vn 0.00000000 1.00000000 -0.00000000
f 220/220/220 221/221/221 222/222/222
v -0.4350000 -0.3650000 0.0000000
vt 0.893671291 0.145495341
vn -1.00000000 0.00000000 0.00000000
v -0.4350000 -0.4350000 0.0000000
vt 0.909293804 0.152705738
vn -1.00000000 0.00000000 0.00000000
v -0.4350000 -0.4350000 0.1100000
vt 0.909293804 0.745465919
vn -1.00000000 0.00000000 0.00000000
f 223/223/223 224/224/224 225/225/225
v -0.4350000 -0.3650000 0.0000000
vt 0.893671291 0.145495341
vn -1.00000000 0.00000000 0.00000000
v -0.4350000 -0.4350000 0.1100000
vt 0.909293804 0.745465919
vn -1.00000000 0.00000000 0.00000000
v -0.4350000 -0.3650000 0.1100000
vt 0.893671291 0.738255522
vn -1.00000000 0.00000000 0.00000000
f 226/226/226 227/227/227 228/228/228
v -0.4350000 -0.4350000 0.1100000
vt 0.740701151 0.914419432
vn 0.00000000 0.00000000 1.00000000
v -0.3650000 -0.4350000 0.1100000
vt 0.746218943 0.911872753
vn 0.00000000 0.00000000 1.00000000
v -0.3650000 -0.3650000 0.1100000
vt 0.728364649 0.903632310
vn 0.00000000 0.00000000 1.00000000
f 229/229/229 230/230/230 231/231/231
v -0.4350000 -0.4350000 0.1100000
vt 0.740701151 0.914419432
vn 0.00000000 0.00000000 1.00000000
v -0.3650000 -0.3650000 0.1100000
vt 0.728364649 0.903632310
vn 0.00000000 0.00000000 1.00000000
v -0.4350000 -0.3650000 0.1100000
vt 0.722846858 0.906178989
vn 0.00000000 0.00000000 1.00000000
f 232/232/232 233/233/233 234/234/234
v -0.4350000 -0.0050000 0.0000000
vt 0.917430287 0.156461037
vn 0.00000000 0.00000000 -1.00000000
v -0.4350000 0.0650000 0.0000000
vt 0.917430287 0.156461037
vn 0.00000000 0.00000000 -1.00000000
v -0.3650000 0.0650000 0.0000000
vt 0.912602227 0.154232702
vn 0.00000000 0.00000000 -1.00000000
f 235/235/235 236/236/236 237/237/237
v -0.4350000 -0.0050000 0.0000000
vt 0.917430287 0.156461037
vn 0.00000000 0.00000000 -1.00000000
v -0.3650000 0.0650000 0.0000000
vt 0.912602227 0.154232702
vn 0.00000000 0.00000000 -1.00000000
v -0.3650000 -0.0050000 0.0000000
vt 0.912602227 0.154232702
vn 0.00000000 0.00000000 -1.00000000
f 238/238/238 239/239/239 240/240/240
v -0.4350000 -0.0050000 0.0000000
vt 0.917430287 0.156461037
vn 0.00000000 -1.00000000 0.00000000
v -0.3650000 -0.0050000 0.0000000
vt 0.912602227 0.154232702
vn 0.00000000 -1.00000000 0.00000000
v -0.3650000 -0.0050000 0.1100000
vt 0.912602227 0.746992883
vn 0.00000000 -1.00000000 0.00000000
f 241/241/241 242/242/242 243/243/243
v -0.4350000 -0.0050000 0.0000000
vt 0.917430287 0.156461037
vn 0.00000000 -1.00000000 0.00000000
v -0.3650000 -0.0050000 0.1100000
vt 0.912602227 0.746992883
vn 0.00000000 -1.00000000 0.00000000
v -0.4350000 -0.0050000 0.1100000
vt 0.917430287 0.749221218
vn 0.00000000 -1.00000000 0.00000000
f 244/244/244 245/245/245 246/246/246
v -0.3650000 -0.0050000 0.0000000
vt 0.813326958 0.108413347
vn 1.00000000 0.00000000 0.00000000
v -0.3650000 0.0650000 0.0000000
vt 0.797704445 0.101202963
vn 1.00000000 0.00000000 0.00000000
v -0.3650000 0.0650000 0.1100000
vt 0.797704445 0.693963144
vn 1.00000000 0.00000000 0.00000000
f 247/247/247 248/248/248 249/249/249
v -0.3650000 -0.0050000 0.0000000
vt 0.813326958 0.108413347
vn 1.00000000 0.00000000 0.00000000
v -0.3650000 0.0650000 0.1100000
vt 0.797704445 0.693963144
vn 1.00000000 0.00000000 0.00000000
v -0.3650000 -0.0050000 0.1100000
vt 0.813326958 0.701173528
vn 1.00000000 0.00000000 0.00000000
f 250/250/250 251/251/251 252/252/252
v -0.3650000 0.0650000 0.0000000
vt 0.912602227 0.154232702
vn 0.00000000 1.00000000 0.00000000
v -0.4350000 0.0650000 0.0000000
vt 0.917430287 0.156461037
vn 0.00000000 1.00000000 0.00000000
v -0.4350000 0.0650000 0.1100000
vt 0.917430287 0.749221218
vn 0.00000000 1.00000000 0.00000000
f 253/253/253 254/254/254 255/255/255
v -0.3650000 0.0650000 0.0000000
vt 0.912602227 0.154232702
vn 0.00000000 1.00000000 -0.00000000
v -0.4350000 0.0650000 0.1100000
vt 0.917430287 0.749221218
vn 0.00000000 1.00000000 -0.00000000
v -0.3650000 0.0650000 0.1100000
vt 0.912602227 0.746992883
vn 0.00000000 1.00000000 -0.00000000
f 256/256/256 257/257/257 258/258/258
v -0.4350000 0.0650000 0.0000000
vt 0.797704445 0.101202963
vn -1.00000000 0.00000000 0.00000000
v -0.4350000 -0.0050000 0.0000000
vt 0.813326958 0.108413347
vn -1.00000000 0.00000000 0.00000000
v -0.4350000 -0.0050000 0.1100000
vt 0.813326958 0.701173528
vn -1.00000000 0.00000000 0.00000000
f 259/259/259 260/260/260 261/261/261
v -0.4350000 0.0650000 0.0000000
vt 0.797704445 0.101202963
vn -1.00000000 0.00000000 0.00000000
v -0.4350000 -0.0050000 0.1100000
vt 0.813326958 0.701173528
vn -1.00000000 0.00000000 0.00000000
v -0.4350000 0.0650000 0.1100000
vt 0.797704445 0.693963144
vn -1.00000000 0.00000000 0.00000000
f 262/262/262 263/263/263 264/264/264
v -0.4350000 -0.0050000 0.1100000
vt 0.631024765 0.863799555
vn 0.00000000 0.00000000 1.00000000
v -0.3650000 -0.0050000 0.1100000
vt 0.636542544 0.861252888
vn 0.00000000 0.00000000 1.00000000
v -0.3650000 0.0650000 0.1100000
vt 0.618688251 0.853012445
vn 0.00000000 0.00000000 1.00000000
f 265/265/265 266/266/266 267/267/267
v -0.4350000 -0.0050000 0.1100000
vt 0.631024765 0.863799555
vn 0.00000000 0.00000000 1.00000000
v -0.3650000 0.0650000 0.1100000
vt 0.618688251 0.853012445
vn 0.00000000 0.00000000 1.00000000
v -0.4350000 0.0650000 0.1100000
vt 0.613170472 0.855559112
vn 0.00000000 0.00000000 1.00000000
f 268/268/268 269/269/269 270/270/270
