# Physical vanilla furniture; Z up; per-tile mesh.
# Tile-local game axes; ObjReader performs the scene conversion.
mtllib pz_wardrobe_storage_01_light_wood_1_0.mtl
usemtl original
v -0.5000000 0.0850000 0.0550000
vt 0.700224000 0.117294341
vn 0.00000000 0.00000000 -1.00000000
v 0.4750000 0.0850000 0.0550000
vt 0.569561966 0.084157375
vn 0.00000000 0.00000000 -1.00000000
v 0.4750000 -0.4700000 0.0550000
vt 0.569561966 0.084157375
vn 0.00000000 0.00000000 -1.00000000
f 1/1/1 2/2/2 3/3/3
v -0.5000000 0.0850000 0.0550000
vt 0.700224000 0.117294341
vn 0.00000000 0.00000000 -1.00000000
v 0.4750000 -0.4700000 0.0550000
vt 0.569561966 0.084157375
vn 0.00000000 0.00000000 -1.00000000
v -0.5000000 -0.4700000 0.0550000
vt 0.700224000 0.117294341
vn 0.00000000 0.00000000 -1.00000000
f 4/4/4 5/5/5 6/6/6
v -0.5000000 -0.4700000 0.0550000
vt 0.700224000 0.117294341
vn 0.00000000 -1.00000000 0.00000000
v 0.4750000 -0.4700000 0.0550000
vt 0.569561966 0.084157375
vn 0.00000000 -1.00000000 0.00000000
v 0.4750000 -0.4700000 1.8076680
vt 0.569561966 0.704292023
vn 0.00000000 -1.00000000 0.00000000
f 7/7/7 8/8/8 9/9/9
v -0.5000000 -0.4700000 0.0550000
vt 0.700224000 0.117294341
vn 0.00000000 -1.00000000 0.00000000
v 0.4750000 -0.4700000 1.8076680
vt 0.569561966 0.704292023
vn 0.00000000 -1.00000000 0.00000000
v -0.5000000 -0.4700000 1.8076680
vt 0.700224000 0.737428989
vn 0.00000000 -1.00000000 0.00000000
f 10/10/10 11/11/11 12/12/12
v 0.4750000 -0.4700000 0.0550000
vt 0.830886008 0.150431308
vn 1.00000000 0.00000000 0.00000000
v 0.4750000 0.0850000 0.0550000
vt 0.569561966 0.084157375
vn 1.00000000 0.00000000 0.00000000
v 0.4750000 0.0850000 1.8076680
vt 0.569561966 0.704292023
vn 1.00000000 0.00000000 0.00000000
f 13/13/13 14/14/14 15/15/15
v 0.4750000 -0.4700000 0.0550000
vt 0.830886008 0.150431308
vn 1.00000000 0.00000000 0.00000000
v 0.4750000 0.0850000 1.8076680
vt 0.569561966 0.704292023
vn 1.00000000 0.00000000 0.00000000
v 0.4750000 -0.4700000 1.8076680
vt 0.830886008 0.770565956
vn 1.00000000 0.00000000 0.00000000
f 16/16/16 17/17/17 18/18/18
v 0.4750000 0.0850000 0.0550000
vt 0.569561966 0.084157375
vn 0.00000000 1.00000000 0.00000000
v -0.5000000 0.0850000 0.0550000
vt 0.700224000 0.117294341
vn 0.00000000 1.00000000 0.00000000
v -0.5000000 0.0850000 1.8076680
vt 0.700224000 0.737428989
vn 0.00000000 1.00000000 0.00000000
f 19/19/19 20/20/20 21/21/21
v 0.4750000 0.0850000 0.0550000
vt 0.569561966 0.084157375
vn 0.00000000 1.00000000 -0.00000000
v -0.5000000 0.0850000 1.8076680
vt 0.700224000 0.737428989
vn 0.00000000 1.00000000 -0.00000000
v 0.4750000 0.0850000 1.8076680
vt 0.569561966 0.704292023
vn 0.00000000 1.00000000 -0.00000000
f 22/22/22 23/23/23 24/24/24
v -0.5000000 -0.4700000 1.8076680
vt 0.653558988 0.912581525
vn 0.00000000 0.00000000 1.00000000
v 0.4750000 -0.4700000 1.8076680
vt 0.802887001 0.874710713
vn 0.00000000 0.00000000 1.00000000
v 0.4750000 0.0850000 1.8076680
vt 0.504230949 0.798969078
vn 0.00000000 0.00000000 1.00000000
f 25/25/25 26/26/26 27/27/27
v -0.5000000 -0.4700000 1.8076680
vt 0.653558988 0.912581525
vn 0.00000000 0.00000000 1.00000000
v 0.4750000 0.0850000 1.8076680
vt 0.504230949 0.798969078
vn 0.00000000 0.00000000 1.00000000
v -0.5000000 0.0850000 1.8076680
vt 0.354902936 0.836839889
vn 0.00000000 0.00000000 1.00000000
f 28/28/28 29/29/29 30/30/30
v -0.5000000 0.1250000 0.0250000
vt 0.700224000 0.258234031
vn 0.00000000 0.00000000 -1.00000000
v 0.4950000 0.1250000 0.0250000
vt 0.569561966 0.225097064
vn 0.00000000 0.00000000 -1.00000000
v 0.4950000 -0.4900000 0.0250000
vt 0.569561966 0.225097064
vn 0.00000000 0.00000000 -1.00000000
f 31/31/31 32/32/32 33/33/33
v -0.5000000 0.1250000 0.0250000
vt 0.700224000 0.258234031
vn 0.00000000 0.00000000 -1.00000000
v 0.4950000 -0.4900000 0.0250000
vt 0.569561966 0.225097064
vn 0.00000000 0.00000000 -1.00000000
v -0.5000000 -0.4900000 0.0250000
vt 0.700224000 0.258234031
vn 0.00000000 0.00000000 -1.00000000
f 34/34/34 35/35/35 36/36/36
v -0.5000000 -0.4900000 0.0250000
vt 0.700224000 0.258234031
vn 0.00000000 -1.00000000 0.00000000
v 0.4950000 -0.4900000 0.0250000
vt 0.569561966 0.225097064
vn 0.00000000 -1.00000000 0.00000000
v 0.4950000 -0.4900000 0.1000000
vt 0.569561966 0.647916147
vn 0.00000000 -1.00000000 0.00000000
f 37/37/37 38/38/38 39/39/39
v -0.5000000 -0.4900000 0.0250000
vt 0.700224000 0.258234031
vn 0.00000000 -1.00000000 0.00000000
v 0.4950000 -0.4900000 0.1000000
vt 0.569561966 0.647916147
vn 0.00000000 -1.00000000 0.00000000
v -0.5000000 -0.4900000 0.1000000
vt 0.700224000 0.681053113
vn 0.00000000 -1.00000000 0.00000000
f 40/40/40 41/41/41 42/42/42
v 0.4950000 -0.4900000 0.0250000
vt 0.830886008 0.291370998
vn 1.00000000 0.00000000 0.00000000
v 0.4950000 0.1250000 0.0250000
vt 0.569561966 0.225097064
vn 1.00000000 0.00000000 0.00000000
v 0.4950000 0.1250000 0.1000000
vt 0.569561966 0.647916147
vn 1.00000000 0.00000000 0.00000000
f 43/43/43 44/44/44 45/45/45
v 0.4950000 -0.4900000 0.0250000
vt 0.830886008 0.291370998
vn 1.00000000 0.00000000 0.00000000
v 0.4950000 0.1250000 0.1000000
vt 0.569561966 0.647916147
vn 1.00000000 0.00000000 0.00000000
v 0.4950000 -0.4900000 0.1000000
vt 0.830886008 0.714190080
vn 1.00000000 0.00000000 0.00000000
f 46/46/46 47/47/47 48/48/48
v 0.4950000 0.1250000 0.0250000
vt 0.569561966 0.225097064
vn 0.00000000 1.00000000 0.00000000
v -0.5000000 0.1250000 0.0250000
vt 0.700224000 0.258234031
vn 0.00000000 1.00000000 0.00000000
v -0.5000000 0.1250000 0.1000000
vt 0.700224000 0.681053113
vn 0.00000000 1.00000000 0.00000000
f 49/49/49 50/50/50 51/51/51
v 0.4950000 0.1250000 0.0250000
vt 0.569561966 0.225097064
vn 0.00000000 1.00000000 -0.00000000
v -0.5000000 0.1250000 0.1000000
vt 0.700224000 0.681053113
vn 0.00000000 1.00000000 -0.00000000
v 0.4950000 0.1250000 0.1000000
vt 0.569561966 0.647916147
vn 0.00000000 1.00000000 -0.00000000
f 52/52/52 53/53/53 54/54/54
v -0.5000000 -0.4900000 0.1000000
vt 0.653558988 0.912581525
vn 0.00000000 0.00000000 1.00000000
v 0.4950000 -0.4900000 0.1000000
vt 0.802887001 0.874710713
vn 0.00000000 0.00000000 1.00000000
v 0.4950000 0.1250000 0.1000000
vt 0.504230949 0.798969078
vn 0.00000000 0.00000000 1.00000000
f 55/55/55 56/56/56 57/57/57
v -0.5000000 -0.4900000 0.1000000
vt 0.653558988 0.912581525
vn 0.00000000 0.00000000 1.00000000
v 0.4950000 0.1250000 0.1000000
vt 0.504230949 0.798969078
vn 0.00000000 0.00000000 1.00000000
v -0.5000000 0.1250000 0.1000000
vt 0.354902936 0.836839889
vn 0.00000000 0.00000000 1.00000000
f 58/58/58 59/59/59 60/60/60
v -0.5000000 0.1350000 1.8076680
vt 0.700224000 0.117294341
vn 0.00000000 0.00000000 -1.00000000
v 0.4950000 0.1350000 1.8076680
vt 0.569561966 0.084157375
vn 0.00000000 0.00000000 -1.00000000
v 0.4950000 -0.4900000 1.8076680
vt 0.569561966 0.084157375
vn 0.00000000 0.00000000 -1.00000000
f 61/61/61 62/62/62 63/63/63
v -0.5000000 0.1350000 1.8076680
vt 0.700224000 0.117294341
vn 0.00000000 0.00000000 -1.00000000
v 0.4950000 -0.4900000 1.8076680
vt 0.569561966 0.084157375
vn 0.00000000 0.00000000 -1.00000000
v -0.5000000 -0.4900000 1.8076680
vt 0.700224000 0.117294341
vn 0.00000000 0.00000000 -1.00000000
f 64/64/64 65/65/65 66/66/66
v -0.5000000 -0.4900000 1.8076680
vt 0.700224000 0.117294341
vn 0.00000000 -1.00000000 0.00000000
v 0.4950000 -0.4900000 1.8076680
vt 0.569561966 0.084157375
vn 0.00000000 -1.00000000 0.00000000
v 0.4950000 -0.4900000 1.8626680
vt 0.569561966 0.704292023
vn 0.00000000 -1.00000000 0.00000000
f 67/67/67 68/68/68 69/69/69
v -0.5000000 -0.4900000 1.8076680
vt 0.700224000 0.117294341
vn 0.00000000 -1.00000000 0.00000000
v 0.4950000 -0.4900000 1.8626680
vt 0.569561966 0.704292023
vn 0.00000000 -1.00000000 0.00000000
v -0.5000000 -0.4900000 1.8626680
vt 0.700224000 0.737428989
vn 0.00000000 -1.00000000 0.00000000
f 70/70/70 71/71/71 72/72/72
v 0.4950000 -0.4900000 1.8076680
vt 0.830886008 0.150431308
vn 1.00000000 0.00000000 0.00000000
v 0.4950000 0.1350000 1.8076680
vt 0.569561966 0.084157375
vn 1.00000000 0.00000000 0.00000000
v 0.4950000 0.1350000 1.8626680
vt 0.569561966 0.704292023
vn 1.00000000 0.00000000 0.00000000
f 73/73/73 74/74/74 75/75/75
v 0.4950000 -0.4900000 1.8076680
vt 0.830886008 0.150431308
vn 1.00000000 0.00000000 0.00000000
v 0.4950000 0.1350000 1.8626680
vt 0.569561966 0.704292023
vn 1.00000000 0.00000000 0.00000000
v 0.4950000 -0.4900000 1.8626680
vt 0.830886008 0.770565956
vn 1.00000000 0.00000000 0.00000000
f 76/76/76 77/77/77 78/78/78
v 0.4950000 0.1350000 1.8076680
vt 0.569561966 0.084157375
vn 0.00000000 1.00000000 0.00000000
v -0.5000000 0.1350000 1.8076680
vt 0.700224000 0.117294341
vn 0.00000000 1.00000000 0.00000000
v -0.5000000 0.1350000 1.8626680
vt 0.700224000 0.737428989
vn 0.00000000 1.00000000 0.00000000
f 79/79/79 80/80/80 81/81/81
v 0.4950000 0.1350000 1.8076680
vt 0.569561966 0.084157375
vn 0.00000000 1.00000000 -0.00000000
v -0.5000000 0.1350000 1.8626680
vt 0.700224000 0.737428989
vn 0.00000000 1.00000000 -0.00000000
v 0.4950000 0.1350000 1.8626680
vt 0.569561966 0.704292023
vn 0.00000000 1.00000000 -0.00000000
f 82/82/82 83/83/83 84/84/84
v -0.5000000 -0.4900000 1.8626680
vt 0.667558478 0.913764989
vn 0.00000000 0.00000000 1.00000000
v 0.4950000 -0.4900000 1.8626680
vt 0.830886008 0.872343784
vn 0.00000000 0.00000000 1.00000000
v 0.4950000 0.1350000 1.8626680
vt 0.494897946 0.787134446
vn 0.00000000 0.00000000 1.00000000
f 85/85/85 86/86/86 87/87/87
v -0.5000000 -0.4900000 1.8626680
vt 0.667558478 0.913764989
vn 0.00000000 0.00000000 1.00000000
v 0.4950000 0.1350000 1.8626680
vt 0.494897946 0.787134446
vn 0.00000000 0.00000000 1.00000000
v -0.5000000 0.1350000 1.8626680
vt 0.331570442 0.828555651
vn 0.00000000 0.00000000 1.00000000
f 88/88/88 89/89/89 90/90/90
v -0.4650000 0.0840000 0.4150000
vt 0.695484944 0.116092487
vn 0.00000000 0.00000000 -1.00000000
v -0.4650000 0.1300000 0.4150000
vt 0.695484944 0.116092487
vn 0.00000000 0.00000000 -1.00000000
v 0.4650000 0.1300000 0.4150000
vt 0.569561966 0.084157375
vn 0.00000000 0.00000000 -1.00000000
f 91/91/91 92/92/92 93/93/93
v -0.4650000 0.0840000 0.4150000
vt 0.695484944 0.116092487
vn 0.00000000 0.00000000 -1.00000000
v 0.4650000 0.1300000 0.4150000
vt 0.569561966 0.084157375
vn 0.00000000 0.00000000 -1.00000000
v 0.4650000 0.0840000 0.4150000
vt 0.569561966 0.084157375
vn 0.00000000 0.00000000 -1.00000000
f 94/94/94 95/95/95 96/96/96
v -0.4650000 0.0840000 0.4150000
vt 0.695484944 0.116092487
vn 0.00000000 -1.00000000 0.00000000
v 0.4650000 0.0840000 0.4150000
vt 0.569561966 0.084157375
vn 0.00000000 -1.00000000 0.00000000
v 0.4650000 0.0840000 1.7926680
vt 0.569561966 0.704292023
vn 0.00000000 -1.00000000 0.00000000
f 97/97/97 98/98/98 99/99/99
v -0.4650000 0.0840000 0.4150000
vt 0.695484944 0.116092487
vn 0.00000000 -1.00000000 0.00000000
v 0.4650000 0.0840000 1.7926680
vt 0.569561966 0.704292023
vn 0.00000000 -1.00000000 0.00000000
v -0.4650000 0.0840000 1.7926680
vt 0.695484944 0.736227135
vn 0.00000000 -1.00000000 0.00000000
f 100/100/100 101/101/101 102/102/102
v 0.4650000 0.0840000 0.4150000
vt 0.830886008 0.150431308
vn 1.00000000 0.00000000 0.00000000
v 0.4650000 0.1300000 0.4150000
vt 0.569561966 0.084157375
vn 1.00000000 0.00000000 0.00000000
v 0.4650000 0.1300000 1.7926680
vt 0.569561966 0.704292023
vn 1.00000000 0.00000000 0.00000000
f 103/103/103 104/104/104 105/105/105
v 0.4650000 0.0840000 0.4150000
vt 0.830886008 0.150431308
vn 1.00000000 0.00000000 0.00000000
v 0.4650000 0.1300000 1.7926680
vt 0.569561966 0.704292023
vn 1.00000000 0.00000000 0.00000000
v 0.4650000 0.0840000 1.7926680
vt 0.830886008 0.770565956
vn 1.00000000 0.00000000 0.00000000
f 106/106/106 107/107/107 108/108/108
v 0.4650000 0.1300000 0.4150000
vt 0.457565962 0.346886178
vn 0.00000000 1.00000000 0.00000000
v -0.4650000 0.1300000 0.4150000
vt 0.168242913 0.420260885
vn 0.00000000 1.00000000 0.00000000
v -0.4650000 0.1300000 1.7926680
vt 0.168242913 0.810803709
vn 0.00000000 1.00000000 0.00000000
f 109/109/109 110/110/110 111/111/111
v 0.4650000 0.1300000 0.4150000
vt 0.457565962 0.346886178
vn 0.00000000 1.00000000 -0.00000000
v -0.4650000 0.1300000 1.7926680
vt 0.168242913 0.810803709
vn 0.00000000 1.00000000 -0.00000000
v 0.4650000 0.1300000 1.7926680
vt 0.457565962 0.737428989
vn 0.00000000 1.00000000 -0.00000000
f 112/112/112 113/113/113 114/114/114
v -0.4650000 0.1300000 0.4150000
vt 0.569561966 0.084157375
vn -1.00000000 0.00000000 0.00000000
v -0.4650000 0.0840000 0.4150000
vt 0.830886008 0.150431308
vn -1.00000000 0.00000000 0.00000000
v -0.4650000 0.0840000 1.7926680
vt 0.830886008 0.770565956
vn -1.00000000 0.00000000 0.00000000
f 115/115/115 116/116/116 117/117/117
v -0.4650000 0.1300000 0.4150000
vt 0.569561966 0.084157375
vn -1.00000000 0.00000000 0.00000000
v -0.4650000 0.0840000 1.7926680
vt 0.830886008 0.770565956
vn -1.00000000 0.00000000 0.00000000
v -0.4650000 0.1300000 1.7926680
vt 0.569561966 0.704292023
vn -1.00000000 0.00000000 0.00000000
f 118/118/118 119/119/119 120/120/120
v -0.4650000 0.0840000 1.7926680
vt 0.658975033 0.911207980
vn 0.00000000 0.00000000 1.00000000
v 0.4650000 0.0840000 1.7926680
vt 0.802887001 0.874710713
vn 0.00000000 0.00000000 1.00000000
v 0.4650000 0.1300000 1.7926680
vt 0.504230949 0.798969078
vn 0.00000000 0.00000000 1.00000000
f 121/121/121 122/122/122 123/123/123
v -0.4650000 0.0840000 1.7926680
vt 0.658975033 0.911207980
vn 0.00000000 0.00000000 1.00000000
v 0.4650000 0.1300000 1.7926680
vt 0.504230949 0.798969078
vn 0.00000000 0.00000000 1.00000000
v -0.4650000 0.1300000 1.7926680
vt 0.360318981 0.835466331
vn 0.00000000 0.00000000 1.00000000
f 124/124/124 125/125/125 126/126/126
v -0.4650000 0.0920000 0.1300000
vt 0.695484944 0.116092487
vn 0.00000000 0.00000000 -1.00000000
v -0.4650000 0.1330000 0.1300000
vt 0.695484944 0.116092487
vn 0.00000000 0.00000000 -1.00000000
v 0.4650000 0.1330000 0.1300000
vt 0.569561966 0.084157375
vn 0.00000000 0.00000000 -1.00000000
f 127/127/127 128/128/128 129/129/129
v -0.4650000 0.0920000 0.1300000
vt 0.695484944 0.116092487
vn 0.00000000 0.00000000 -1.00000000
v 0.4650000 0.1330000 0.1300000
vt 0.569561966 0.084157375
vn 0.00000000 0.00000000 -1.00000000
v 0.4650000 0.0920000 0.1300000
vt 0.569561966 0.084157375
vn 0.00000000 0.00000000 -1.00000000
f 130/130/130 131/131/131 132/132/132
v -0.4650000 0.0920000 0.1300000
vt 0.695484944 0.116092487
vn 0.00000000 -1.00000000 0.00000000
v 0.4650000 0.0920000 0.1300000
vt 0.569561966 0.084157375
vn 0.00000000 -1.00000000 0.00000000
v 0.4650000 0.0920000 0.2750000
vt 0.569561966 0.369616183
vn 0.00000000 -1.00000000 0.00000000
f 133/133/133 134/134/134 135/135/135
v -0.4650000 0.0920000 0.1300000
vt 0.695484944 0.116092487
vn 0.00000000 -1.00000000 0.00000000
v 0.4650000 0.0920000 0.2750000
vt 0.569561966 0.369616183
vn 0.00000000 -1.00000000 0.00000000
v -0.4650000 0.0920000 0.2750000
vt 0.695484944 0.401551295
vn 0.00000000 -1.00000000 0.00000000
f 136/136/136 137/137/137 138/138/138
v 0.4650000 0.0920000 0.1300000
vt 0.830886008 0.150431308
vn 1.00000000 0.00000000 0.00000000
v 0.4650000 0.1330000 0.1300000
vt 0.569561966 0.084157375
vn 1.00000000 0.00000000 0.00000000
v 0.4650000 0.1330000 0.2750000
vt 0.569561966 0.369616183
vn 1.00000000 0.00000000 0.00000000
f 139/139/139 140/140/140 141/141/141
v 0.4650000 0.0920000 0.1300000
vt 0.830886008 0.150431308
vn 1.00000000 0.00000000 0.00000000
v 0.4650000 0.1330000 0.2750000
vt 0.569561966 0.369616183
vn 1.00000000 0.00000000 0.00000000
v 0.4650000 0.0920000 0.2750000
vt 0.830886008 0.435890116
vn 1.00000000 0.00000000 0.00000000
f 142/142/142 143/143/143 144/144/144
v 0.4650000 0.1330000 0.1300000
vt 0.457565962 0.095992007
vn 0.00000000 1.00000000 0.00000000
v -0.4650000 0.1330000 0.1300000
vt 0.168242913 0.169366713
vn 0.00000000 1.00000000 0.00000000
v -0.4650000 0.1330000 0.2750000
vt 0.168242913 0.257619252
vn 0.00000000 1.00000000 0.00000000
f 145/145/145 146/146/146 147/147/147
v 0.4650000 0.1330000 0.1300000
vt 0.457565962 0.095992007
vn 0.00000000 1.00000000 -0.00000000
v -0.4650000 0.1330000 0.2750000
vt 0.168242913 0.257619252
vn 0.00000000 1.00000000 -0.00000000
v 0.4650000 0.1330000 0.2750000
vt 0.457565962 0.184244532
vn 0.00000000 1.00000000 -0.00000000
f 148/148/148 149/149/149 150/150/150
v -0.4650000 0.1330000 0.1300000
vt 0.569561966 0.084157375
vn -1.00000000 0.00000000 0.00000000
v -0.4650000 0.0920000 0.1300000
vt 0.830886008 0.150431308
vn -1.00000000 0.00000000 0.00000000
v -0.4650000 0.0920000 0.2750000
vt 0.830886008 0.435890116
vn -1.00000000 0.00000000 0.00000000
f 151/151/151 152/152/152 153/153/153
v -0.4650000 0.1330000 0.1300000
vt 0.569561966 0.084157375
vn -1.00000000 0.00000000 0.00000000
v -0.4650000 0.0920000 0.2750000
vt 0.830886008 0.435890116
vn -1.00000000 0.00000000 0.00000000
v -0.4650000 0.1330000 0.2750000
vt 0.569561966 0.369616183
vn -1.00000000 0.00000000 0.00000000
f 154/154/154 155/155/155 156/156/156
v -0.4650000 0.0920000 0.2750000
vt 0.658975033 0.911207980
vn 0.00000000 0.00000000 1.00000000
v 0.4650000 0.0920000 0.2750000
vt 0.802887001 0.874710713
vn 0.00000000 0.00000000 1.00000000
v 0.4650000 0.1330000 0.2750000
vt 0.504230949 0.798969078
vn 0.00000000 0.00000000 1.00000000
f 157/157/157 158/158/158 159/159/159
v -0.4650000 0.0920000 0.2750000
vt 0.658975033 0.911207980
vn 0.00000000 0.00000000 1.00000000
v 0.4650000 0.1330000 0.2750000
vt 0.504230949 0.798969078
vn 0.00000000 0.00000000 1.00000000
v -0.4650000 0.1330000 0.2750000
vt 0.360318981 0.835466331
vn 0.00000000 0.00000000 1.00000000
f 160/160/160 161/161/161 162/162/162
v -0.4650000 0.0920000 0.3000000
vt 0.695484944 0.450768327
vn 0.00000000 0.00000000 -1.00000000
v -0.4650000 0.1330000 0.3000000
vt 0.695484944 0.450768327
vn 0.00000000 0.00000000 -1.00000000
v 0.4650000 0.1330000 0.3000000
vt 0.569561966 0.418833215
vn 0.00000000 0.00000000 -1.00000000
f 163/163/163 164/164/164 165/165/165
v -0.4650000 0.0920000 0.3000000
vt 0.695484944 0.450768327
vn 0.00000000 0.00000000 -1.00000000
v 0.4650000 0.1330000 0.3000000
vt 0.569561966 0.418833215
vn 0.00000000 0.00000000 -1.00000000
v 0.4650000 0.0920000 0.3000000
vt 0.569561966 0.418833215
vn 0.00000000 0.00000000 -1.00000000
f 166/166/166 167/167/167 168/168/168
v -0.4650000 0.0920000 0.3000000
vt 0.695484944 0.450768327
vn 0.00000000 -1.00000000 0.00000000
v 0.4650000 0.0920000 0.3000000
vt 0.569561966 0.418833215
vn 0.00000000 -1.00000000 0.00000000
v 0.4650000 0.0920000 0.4450000
vt 0.569561966 0.704292023
vn 0.00000000 -1.00000000 0.00000000
f 169/169/169 170/170/170 171/171/171
v -0.4650000 0.0920000 0.3000000
vt 0.695484944 0.450768327
vn 0.00000000 -1.00000000 0.00000000
v 0.4650000 0.0920000 0.4450000
vt 0.569561966 0.704292023
vn 0.00000000 -1.00000000 0.00000000
v -0.4650000 0.0920000 0.4450000
vt 0.695484944 0.736227135
vn 0.00000000 -1.00000000 0.00000000
f 172/172/172 173/173/173 174/174/174
v 0.4650000 0.0920000 0.3000000
vt 0.830886008 0.485107148
vn 1.00000000 0.00000000 0.00000000
v 0.4650000 0.1330000 0.3000000
vt 0.569561966 0.418833215
vn 1.00000000 0.00000000 0.00000000
v 0.4650000 0.1330000 0.4450000
vt 0.569561966 0.704292023
vn 1.00000000 0.00000000 0.00000000
f 175/175/175 176/176/176 177/177/177
v 0.4650000 0.0920000 0.3000000
vt 0.830886008 0.485107148
vn 1.00000000 0.00000000 0.00000000
v 0.4650000 0.1330000 0.4450000
vt 0.569561966 0.704292023
vn 1.00000000 0.00000000 0.00000000
v 0.4650000 0.0920000 0.4450000
vt 0.830886008 0.770565956
vn 1.00000000 0.00000000 0.00000000
f 178/178/178 179/179/179 180/180/180
v 0.4650000 0.1330000 0.3000000
vt 0.457565962 0.199460493
vn 0.00000000 1.00000000 0.00000000
v -0.4650000 0.1330000 0.3000000
vt 0.168242913 0.272835200
vn 0.00000000 1.00000000 0.00000000
v -0.4650000 0.1330000 0.4450000
vt 0.168242913 0.361087739
vn 0.00000000 1.00000000 0.00000000
f 181/181/181 182/182/182 183/183/183
v 0.4650000 0.1330000 0.3000000
vt 0.457565962 0.199460493
vn 0.00000000 1.00000000 -0.00000000
v -0.4650000 0.1330000 0.4450000
vt 0.168242913 0.361087739
vn 0.00000000 1.00000000 -0.00000000
v 0.4650000 0.1330000 0.4450000
vt 0.457565962 0.287713019
vn 0.00000000 1.00000000 -0.00000000
f 184/184/184 185/185/185 186/186/186
v -0.4650000 0.1330000 0.3000000
vt 0.569561966 0.418833215
vn -1.00000000 0.00000000 0.00000000
v -0.4650000 0.0920000 0.3000000
vt 0.830886008 0.485107148
vn -1.00000000 0.00000000 0.00000000
v -0.4650000 0.0920000 0.4450000
vt 0.830886008 0.770565956
vn -1.00000000 0.00000000 0.00000000
f 187/187/187 188/188/188 189/189/189
v -0.4650000 0.1330000 0.3000000
vt 0.569561966 0.418833215
vn -1.00000000 0.00000000 0.00000000
v -0.4650000 0.0920000 0.4450000
vt 0.830886008 0.770565956
vn -1.00000000 0.00000000 0.00000000
v -0.4650000 0.1330000 0.4450000
vt 0.569561966 0.704292023
vn -1.00000000 0.00000000 0.00000000
f 190/190/190 191/191/191 192/192/192
v -0.4650000 0.0920000 0.4450000
vt 0.658975033 0.911207980
vn 0.00000000 0.00000000 1.00000000
v 0.4650000 0.0920000 0.4450000
vt 0.802887001 0.874710713
vn 0.00000000 0.00000000 1.00000000
v 0.4650000 0.1330000 0.4450000
vt 0.504230949 0.798969078
vn 0.00000000 0.00000000 1.00000000
f 193/193/193 194/194/194 195/195/195
v -0.4650000 0.0920000 0.4450000
vt 0.658975033 0.911207980
vn 0.00000000 0.00000000 1.00000000
v 0.4650000 0.1330000 0.4450000
vt 0.504230949 0.798969078
vn 0.00000000 0.00000000 1.00000000
v -0.4650000 0.1330000 0.4450000
vt 0.360318981 0.835466331
vn 0.00000000 0.00000000 1.00000000
f 196/196/196 197/197/197 198/198/198
v 0.3650000 -0.4350000 0.0000000
vt 0.586633378 0.088486831
vn 0.00000000 0.00000000 -1.00000000
v 0.3650000 -0.3650000 0.0000000
vt 0.586633378 0.088486831
vn 0.00000000 0.00000000 -1.00000000
v 0.4350000 -0.3650000 0.0000000
vt 0.577441097 0.086155585
vn 0.00000000 0.00000000 -1.00000000
f 199/199/199 200/200/200 201/201/201
v 0.3650000 -0.4350000 0.0000000
vt 0.586633378 0.088486831
vn 0.00000000 0.00000000 -1.00000000
v 0.4350000 -0.3650000 0.0000000
vt 0.577441097 0.086155585
vn 0.00000000 0.00000000 -1.00000000
v 0.4350000 -0.4350000 0.0000000
vt 0.577441097 0.086155585
vn 0.00000000 0.00000000 -1.00000000
f 202/202/202 203/203/203 204/204/204
v 0.3650000 -0.4350000 0.0000000
vt 0.586633378 0.088486831
vn 0.00000000 -1.00000000 0.00000000
v 0.4350000 -0.4350000 0.0000000
vt 0.577441097 0.086155585
vn 0.00000000 -1.00000000 0.00000000
v 0.4350000 -0.4350000 0.1100000
vt 0.577441097 0.706290233
vn 0.00000000 -1.00000000 0.00000000
f 205/205/205 206/206/206 207/207/207
v 0.3650000 -0.4350000 0.0000000
vt 0.586633378 0.088486831
vn 0.00000000 -1.00000000 0.00000000
v 0.4350000 -0.4350000 0.1100000
vt 0.577441097 0.706290233
vn 0.00000000 -1.00000000 0.00000000
v 0.3650000 -0.4350000 0.1100000
vt 0.586633378 0.708621479
vn 0.00000000 -1.00000000 0.00000000
f 208/208/208 209/209/209 210/210/210
v 0.4350000 -0.4350000 0.0000000
vt 0.807515559 0.144504372
vn 1.00000000 0.00000000 0.00000000
v 0.4350000 -0.3650000 0.0000000
vt 0.777771363 0.136960993
vn 1.00000000 0.00000000 0.00000000
v 0.4350000 -0.3650000 0.1100000
vt 0.777771363 0.757095641
vn 1.00000000 0.00000000 0.00000000
f 211/211/211 212/212/212 213/213/213
v 0.4350000 -0.4350000 0.0000000
vt 0.807515559 0.144504372
vn 1.00000000 0.00000000 0.00000000
v 0.4350000 -0.3650000 0.1100000
vt 0.777771363 0.757095641
vn 1.00000000 0.00000000 0.00000000
v 0.4350000 -0.4350000 0.1100000
vt 0.807515559 0.764639020
vn 1.00000000 0.00000000 0.00000000
f 214/214/214 215/215/215 216/216/216
v 0.4350000 -0.3650000 0.0000000
vt 0.577441097 0.086155585
vn 0.00000000 1.00000000 0.00000000
v 0.3650000 -0.3650000 0.0000000
vt 0.586633378 0.088486831
vn 0.00000000 1.00000000 0.00000000
v 0.3650000 -0.3650000 0.1100000
vt 0.586633378 0.708621479
vn 0.00000000 1.00000000 0.00000000
f 217/217/217 218/218/218 219/219/219
v 0.4350000 -0.3650000 0.0000000
vt 0.577441097 0.086155585
vn 0.00000000 1.00000000 -0.00000000
v 0.3650000 -0.3650000 0.1100000
vt 0.586633378 0.708621479
vn 0.00000000 1.00000000 -0.00000000
v 0.4350000 -0.3650000 0.1100000
vt 0.577441097 0.706290233
vn 0.00000000 1.00000000 -0.00000000
f 220/220/220 221/221/221 222/222/222
v 0.3650000 -0.3650000 0.0000000
vt 0.777771363 0.136960993
vn -1.00000000 0.00000000 0.00000000
v 0.3650000 -0.4350000 0.0000000
vt 0.807515559 0.144504372
vn -1.00000000 0.00000000 0.00000000
v 0.3650000 -0.4350000 0.1100000
vt 0.807515559 0.764639020
vn -1.00000000 0.00000000 0.00000000
f 223/223/223 224/224/224 225/225/225
v 0.3650000 -0.3650000 0.0000000
vt 0.777771363 0.136960993
vn -1.00000000 0.00000000 0.00000000
v 0.3650000 -0.4350000 0.1100000
vt 0.807515559 0.764639020
vn -1.00000000 0.00000000 0.00000000
v 0.3650000 -0.3650000 0.1100000
vt 0.777771363 0.757095641
vn -1.00000000 0.00000000 0.00000000
f 226/226/226 227/227/227 228/228/228
v 0.3650000 -0.4350000 0.1100000
vt 0.756667742 0.872885016
vn 0.00000000 0.00000000 1.00000000
v 0.4350000 -0.4350000 0.1100000
vt 0.767173224 0.870220735
vn 0.00000000 0.00000000 1.00000000
v 0.4350000 -0.3650000 0.1100000
vt 0.733179847 0.861599739
vn 0.00000000 0.00000000 1.00000000
f 229/229/229 230/230/230 231/231/231
v 0.3650000 -0.4350000 0.1100000
vt 0.756667742 0.872885016
vn 0.00000000 0.00000000 1.00000000
v 0.4350000 -0.3650000 0.1100000
vt 0.733179847 0.861599739
vn 0.00000000 0.00000000 1.00000000
v 0.3650000 -0.3650000 0.1100000
vt 0.722674364 0.864264020
vn 0.00000000 0.00000000 1.00000000
f 232/232/232 233/233/233 234/234/234
v 0.3650000 -0.0050000 0.0000000
vt 0.586633378 0.088486831
vn 0.00000000 0.00000000 -1.00000000
v 0.3650000 0.0650000 0.0000000
vt 0.586633378 0.088486831
vn 0.00000000 0.00000000 -1.00000000
v 0.4350000 0.0650000 0.0000000
vt 0.577441097 0.086155585
vn 0.00000000 0.00000000 -1.00000000
f 235/235/235 236/236/236 237/237/237
v 0.3650000 -0.0050000 0.0000000
vt 0.586633378 0.088486831
vn 0.00000000 0.00000000 -1.00000000
v 0.4350000 0.0650000 0.0000000
vt 0.577441097 0.086155585
vn 0.00000000 0.00000000 -1.00000000
v 0.4350000 -0.0050000 0.0000000
vt 0.577441097 0.086155585
vn 0.00000000 0.00000000 -1.00000000
f 238/238/238 239/239/239 240/240/240
v 0.3650000 -0.0050000 0.0000000
vt 0.586633378 0.088486831
vn 0.00000000 -1.00000000 0.00000000
v 0.4350000 -0.0050000 0.0000000
vt 0.577441097 0.086155585
vn 0.00000000 -1.00000000 0.00000000
v 0.4350000 -0.0050000 0.1100000
vt 0.577441097 0.706290233
vn 0.00000000 -1.00000000 0.00000000
f 241/241/241 242/242/242 243/243/243
v 0.3650000 -0.0050000 0.0000000
vt 0.586633378 0.088486831
vn 0.00000000 -1.00000000 0.00000000
v 0.4350000 -0.0050000 0.1100000
vt 0.577441097 0.706290233
vn 0.00000000 -1.00000000 0.00000000
v 0.3650000 -0.0050000 0.1100000
vt 0.586633378 0.708621479
vn 0.00000000 -1.00000000 0.00000000
f 244/244/244 245/245/245 246/246/246
v 0.4350000 -0.0050000 0.0000000
vt 0.624801202 0.098166504
vn 1.00000000 0.00000000 0.00000000
v 0.4350000 0.0650000 0.0000000
vt 0.595057006 0.090623125
vn 1.00000000 0.00000000 0.00000000
v 0.4350000 0.0650000 0.1100000
vt 0.595057006 0.710757773
vn 1.00000000 0.00000000 0.00000000
f 247/247/247 248/248/248 249/249/249
v 0.4350000 -0.0050000 0.0000000
vt 0.624801202 0.098166504
vn 1.00000000 0.00000000 0.00000000
v 0.4350000 0.0650000 0.1100000
vt 0.595057006 0.710757773
vn 1.00000000 0.00000000 0.00000000
v 0.4350000 -0.0050000 0.1100000
vt 0.624801202 0.718301153
vn 1.00000000 0.00000000 0.00000000
f 250/250/250 251/251/251 252/252/252
v 0.4350000 0.0650000 0.0000000
vt 0.577441097 0.086155585
vn 0.00000000 1.00000000 0.00000000
v 0.3650000 0.0650000 0.0000000
vt 0.586633378 0.088486831
vn 0.00000000 1.00000000 0.00000000
v 0.3650000 0.0650000 0.1100000
vt 0.586633378 0.708621479
vn 0.00000000 1.00000000 0.00000000
f 253/253/253 254/254/254 255/255/255
v 0.4350000 0.0650000 0.0000000
vt 0.577441097 0.086155585
vn 0.00000000 1.00000000 -0.00000000
v 0.3650000 0.0650000 0.1100000
vt 0.586633378 0.708621479
vn 0.00000000 1.00000000 -0.00000000
v 0.4350000 0.0650000 0.1100000
vt 0.577441097 0.706290233
vn 0.00000000 1.00000000 -0.00000000
f 256/256/256 257/257/257 258/258/258
v 0.3650000 0.0650000 0.0000000
vt 0.595057006 0.090623125
vn -1.00000000 0.00000000 0.00000000
v 0.3650000 -0.0050000 0.0000000
vt 0.624801202 0.098166504
vn -1.00000000 0.00000000 0.00000000
v 0.3650000 -0.0050000 0.1100000
vt 0.624801202 0.718301153
vn -1.00000000 0.00000000 0.00000000
f 259/259/259 260/260/260 261/261/261
v 0.3650000 0.0650000 0.0000000
vt 0.595057006 0.090623125
vn -1.00000000 0.00000000 0.00000000
v 0.3650000 -0.0050000 0.1100000
vt 0.624801202 0.718301153
vn -1.00000000 0.00000000 0.00000000
v 0.3650000 0.0650000 0.1100000
vt 0.595057006 0.710757773
vn -1.00000000 0.00000000 0.00000000
f 262/262/262 263/263/263 264/264/264
v 0.3650000 -0.0050000 0.1100000
vt 0.547851311 0.819927445
vn 0.00000000 0.00000000 1.00000000
v 0.4350000 -0.0050000 0.1100000
vt 0.558356793 0.817263164
vn 0.00000000 0.00000000 1.00000000
v 0.4350000 0.0650000 0.1100000
vt 0.524363442 0.808642168
vn 0.00000000 0.00000000 1.00000000
f 265/265/265 266/266/266 267/267/267
v 0.3650000 -0.0050000 0.1100000
vt 0.547851311 0.819927445
vn 0.00000000 0.00000000 1.00000000
v 0.4350000 0.0650000 0.1100000
vt 0.524363442 0.808642168
vn 0.00000000 0.00000000 1.00000000
v 0.3650000 0.0650000 0.1100000
vt 0.513857933 0.811306449
vn 0.00000000 0.00000000 1.00000000
f 268/268/268 269/269/269 270/270/270
