# Companion asset; Z up, tile units.
mtllib ../Materials/cardboard_box.mtl
o cardboard_box
usemtl UV_Base
v -0.378000 -0.332760 0.000000
v -0.378000 0.332760 0.000000
v -0.347760 0.363000 0.000000
vn 0.000000 0.000000 -1.000000
vn 0.000000 0.000000 -1.000000
vn 0.000000 0.000000 -1.000000
vt 0.007812500 0.367311508
vt 0.007812500 0.023437500
vt 0.023437500 0.007812500
vt 0.007812500 0.367311508
vt 0.023437500 0.007812500
vt 0.382812500 0.007812500
vt 0.007812500 0.367311508
vt 0.382812500 0.007812500
vt 0.398437500 0.023437500
vt 0.007812500 0.367311508
vt 0.398437500 0.023437500
vt 0.398437500 0.367311508
vt 0.007812500 0.367311508
vt 0.398437500 0.367311508
vt 0.382812500 0.382936508
vt 0.007812500 0.367311508
vt 0.382812500 0.382936508
vt 0.023437500 0.382936508
vt 0.007812500 0.402343750
vt 0.367187500 0.402343750
vt 0.367187500 0.658626819
vt 0.007812500 0.402343750
vt 0.367187500 0.658626819
vt 0.007812500 0.658626819
vt 0.759152913 0.402343750
vt 0.781250000 0.402343750
vt 0.781250000 0.658626819
vt 0.759152913 0.402343750
vt 0.781250000 0.658626819
vt 0.759152913 0.658626819
vt 0.007812500 0.675781250
vt 0.351686508 0.675781250
vt 0.351686508 0.932064319
vt 0.007812500 0.675781250
vt 0.351686508 0.932064319
vt 0.007812500 0.932064319
vt 0.798215413 0.402343750
vt 0.820312500 0.402343750
vt 0.820312500 0.658626819
vt 0.798215413 0.402343750
vt 0.820312500 0.658626819
vt 0.798215413 0.658626819
vt 0.742187500 0.658626819
vt 0.382812500 0.658626819
vt 0.382812500 0.402343750
vt 0.742187500 0.658626819
vt 0.382812500 0.402343750
vt 0.742187500 0.402343750
vt 0.837277913 0.402343750
vt 0.859375000 0.402343750
vt 0.859375000 0.658626819
vt 0.837277913 0.402343750
vt 0.859375000 0.658626819
vt 0.837277913 0.658626819
vt 0.714967758 0.932064319
vt 0.371093750 0.932064319
vt 0.371093750 0.675781250
vt 0.714967758 0.932064319
vt 0.371093750 0.675781250
vt 0.714967758 0.675781250
vt 0.876340413 0.402343750
vt 0.898437500 0.402343750
vt 0.898437500 0.658626819
vt 0.876340413 0.402343750
vt 0.898437500 0.658626819
vt 0.876340413 0.658626819
vt 0.609375000 0.195374504
vt 0.429687500 0.007812500
vt 0.789062500 0.007812500
vt 0.609375000 0.195374504
vt 0.789062500 0.007812500
vt 0.804687500 0.023437500
vt 0.609375000 0.195374504
vt 0.804687500 0.023437500
vt 0.804687500 0.367311508
vt 0.609375000 0.195374504
vt 0.804687500 0.367311508
vt 0.789062500 0.382936508
vt 0.609375000 0.195374504
vt 0.789062500 0.382936508
vt 0.429687500 0.382936508
vt 0.609375000 0.195374504
vt 0.429687500 0.382936508
vt 0.414062500 0.367311508
vt 0.609375000 0.195374504
vt 0.414062500 0.367311508
vt 0.414062500 0.023437500
vt 0.609375000 0.195374504
vt 0.414062500 0.023437500
vt 0.429687500 0.007812500
vt 0.820312500 0.382936508
vt 0.820312500 0.007812500
vt 0.875000000 0.007812500
vt 0.820312500 0.382936508
vt 0.875000000 0.007812500
vt 0.875000000 0.382936508
vt 0.890625000 0.949218750
vt 0.945312500 0.949218750
vt 0.945312500 0.951802249
vt 0.890625000 0.949218750
vt 0.945312500 0.951802249
vt 0.890625000 0.951802249
vt 0.968750000 0.007812500
vt 0.968750000 0.382936508
vt 0.966166501 0.382936508
vt 0.968750000 0.007812500
vt 0.966166501 0.382936508
vt 0.966166501 0.007812500
vt 0.781250000 0.975239749
vt 0.726562500 0.975239749
vt 0.726562500 0.972656250
vt 0.781250000 0.975239749
vt 0.726562500 0.972656250
vt 0.781250000 0.972656250
vt 0.989604001 0.382936508
vt 0.989604001 0.007812500
vt 0.992187500 0.007812500
vt 0.989604001 0.382936508
vt 0.992187500 0.007812500
vt 0.992187500 0.382936508
vt 0.890625000 0.007812500
vt 0.945312500 0.007812500
vt 0.945312500 0.382936508
vt 0.890625000 0.007812500
vt 0.945312500 0.382936508
vt 0.890625000 0.382936508
vt 0.007812500 0.953352348
vt 0.007812500 0.949218750
vt 0.351562500 0.949218750
vt 0.007812500 0.953352348
vt 0.351562500 0.949218750
vt 0.351562500 0.953352348
vt 0.367187500 0.949218750
vt 0.710937500 0.949218750
vt 0.710937500 0.950768849
vt 0.367187500 0.949218750
vt 0.710937500 0.950768849
vt 0.367187500 0.950768849
vt 0.960937500 0.949218750
vt 0.965071098 0.949218750
vt 0.965071098 0.950768849
vt 0.960937500 0.949218750
vt 0.965071098 0.950768849
vt 0.960937500 0.950768849
vt 0.351562500 0.974206349
vt 0.007812500 0.974206349
vt 0.007812500 0.972656250
vt 0.351562500 0.974206349
vt 0.007812500 0.972656250
vt 0.351562500 0.972656250
vt 0.988508598 0.950768849
vt 0.984375000 0.950768849
vt 0.984375000 0.949218750
vt 0.988508598 0.950768849
vt 0.984375000 0.949218750
vt 0.988508598 0.949218750
vt 0.367187500 0.972656250
vt 0.710937500 0.972656250
vt 0.710937500 0.976789848
vt 0.367187500 0.972656250
vt 0.710937500 0.976789848
vt 0.367187500 0.976789848
vt 0.726562500 0.950252149
vt 0.726562500 0.949218750
vt 0.792968750 0.949218750
vt 0.726562500 0.950252149
vt 0.792968750 0.949218750
vt 0.792968750 0.950252149
vt 0.949218750 0.402343750
vt 0.949218750 0.468750000
vt 0.915901951 0.468750000
vt 0.949218750 0.402343750
vt 0.915901951 0.468750000
vt 0.915901951 0.402343750
vt 0.832031250 0.972656250
vt 0.832031250 0.973689649
vt 0.798714451 0.973689649
vt 0.832031250 0.972656250
vt 0.798714451 0.973689649
vt 0.798714451 0.972656250
vt 0.736214451 0.742187500
vt 0.736214451 0.675781250
vt 0.769531250 0.675781250
vt 0.736214451 0.742187500
vt 0.769531250 0.675781250
vt 0.769531250 0.742187500
vt 0.849495701 0.973689649
vt 0.849495701 0.972656250
vt 0.882812500 0.972656250
vt 0.849495701 0.973689649
vt 0.882812500 0.972656250
vt 0.882812500 0.973689649
vt 0.808593750 0.949218750
vt 0.875000000 0.949218750
vt 0.875000000 0.950252149
vt 0.808593750 0.949218750
vt 0.875000000 0.950252149
vt 0.808593750 0.950252149
f 1/1/1 2/2/2 3/3/3
v -0.378000 -0.332760 0.000000
v -0.347760 0.363000 0.000000
v 0.347760 0.363000 0.000000
vn 0.000000 0.000000 -1.000000
vn 0.000000 0.000000 -1.000000
vn 0.000000 0.000000 -1.000000
f 4/4/4 5/5/5 6/6/6
v -0.378000 -0.332760 0.000000
v 0.347760 0.363000 0.000000
v 0.378000 0.332760 0.000000
vn 0.000000 0.000000 -1.000000
vn 0.000000 0.000000 -1.000000
vn 0.000000 0.000000 -1.000000
f 7/7/7 8/8/8 9/9/9
v -0.378000 -0.332760 0.000000
v 0.378000 0.332760 0.000000
v 0.378000 -0.332760 0.000000
vn 0.000000 0.000000 -1.000000
vn 0.000000 0.000000 -1.000000
vn 0.000000 0.000000 -1.000000
f 10/10/10 11/11/11 12/12/12
v -0.378000 -0.332760 0.000000
v 0.378000 -0.332760 0.000000
v 0.347760 -0.363000 0.000000
vn 0.000000 0.000000 -1.000000
vn 0.000000 0.000000 -1.000000
vn 0.000000 0.000000 -1.000000
f 13/13/13 14/14/14 15/15/15
v -0.378000 -0.332760 0.000000
v 0.347760 -0.363000 0.000000
v -0.347760 -0.363000 0.000000
vn 0.000000 0.000000 -1.000000
vn 0.000000 0.000000 -1.000000
vn 0.000000 0.000000 -1.000000
f 16/16/16 17/17/17 18/18/18
v -0.347760 -0.363000 0.000000
v 0.347760 -0.363000 0.000000
v 0.347760 -0.363000 0.496000
vn 0.000000 -1.000000 0.000000
vn 0.000000 -1.000000 0.000000
vn 0.000000 -1.000000 0.000000
f 19/19/19 20/20/20 21/21/21
v -0.347760 -0.363000 0.000000
v 0.347760 -0.363000 0.496000
v -0.347760 -0.363000 0.496000
vn 0.000000 -1.000000 0.000000
vn 0.000000 -1.000000 0.000000
vn 0.000000 -1.000000 0.000000
f 22/22/22 23/23/23 24/24/24
v 0.347760 -0.363000 0.000000
v 0.378000 -0.332760 0.000000
v 0.378000 -0.332760 0.496000
vn 0.707107 -0.707107 0.000000
vn 0.707107 -0.707107 0.000000
vn 0.707107 -0.707107 0.000000
f 25/25/25 26/26/26 27/27/27
v 0.347760 -0.363000 0.000000
v 0.378000 -0.332760 0.496000
v 0.347760 -0.363000 0.496000
vn 0.707107 -0.707107 0.000000
vn 0.707107 -0.707107 0.000000
vn 0.707107 -0.707107 0.000000
f 28/28/28 29/29/29 30/30/30
v 0.378000 -0.332760 0.000000
v 0.378000 0.332760 0.000000
v 0.378000 0.332760 0.496000
vn 1.000000 0.000000 0.000000
vn 1.000000 0.000000 0.000000
vn 1.000000 0.000000 0.000000
f 31/31/31 32/32/32 33/33/33
v 0.378000 -0.332760 0.000000
v 0.378000 0.332760 0.496000
v 0.378000 -0.332760 0.496000
vn 1.000000 0.000000 0.000000
vn 1.000000 0.000000 0.000000
vn 1.000000 0.000000 0.000000
f 34/34/34 35/35/35 36/36/36
v 0.378000 0.332760 0.000000
v 0.347760 0.363000 0.000000
v 0.347760 0.363000 0.496000
vn 0.707107 0.707107 0.000000
vn 0.707107 0.707107 0.000000
vn 0.707107 0.707107 0.000000
f 37/37/37 38/38/38 39/39/39
v 0.378000 0.332760 0.000000
v 0.347760 0.363000 0.496000
v 0.378000 0.332760 0.496000
vn 0.707107 0.707107 -0.000000
vn 0.707107 0.707107 -0.000000
vn 0.707107 0.707107 -0.000000
f 40/40/40 41/41/41 42/42/42
v 0.347760 0.363000 0.000000
v -0.347760 0.363000 0.000000
v -0.347760 0.363000 0.496000
vn 0.000000 1.000000 0.000000
vn 0.000000 1.000000 0.000000
vn 0.000000 1.000000 0.000000
f 43/43/43 44/44/44 45/45/45
v 0.347760 0.363000 0.000000
v -0.347760 0.363000 0.496000
v 0.347760 0.363000 0.496000
vn 0.000000 1.000000 -0.000000
vn 0.000000 1.000000 -0.000000
vn 0.000000 1.000000 -0.000000
f 46/46/46 47/47/47 48/48/48
v -0.347760 0.363000 0.000000
v -0.378000 0.332760 0.000000
v -0.378000 0.332760 0.496000
vn -0.707107 0.707107 0.000000
vn -0.707107 0.707107 0.000000
vn -0.707107 0.707107 0.000000
f 49/49/49 50/50/50 51/51/51
v -0.347760 0.363000 0.000000
v -0.378000 0.332760 0.496000
v -0.347760 0.363000 0.496000
vn -0.707107 0.707107 0.000000
vn -0.707107 0.707107 0.000000
vn -0.707107 0.707107 0.000000
f 52/52/52 53/53/53 54/54/54
v -0.378000 0.332760 0.000000
v -0.378000 -0.332760 0.000000
v -0.378000 -0.332760 0.496000
vn -1.000000 0.000000 0.000000
vn -1.000000 0.000000 0.000000
vn -1.000000 0.000000 0.000000
f 55/55/55 56/56/56 57/57/57
v -0.378000 0.332760 0.000000
v -0.378000 -0.332760 0.496000
v -0.378000 0.332760 0.496000
vn -1.000000 0.000000 0.000000
vn -1.000000 0.000000 0.000000
vn -1.000000 0.000000 0.000000
f 58/58/58 59/59/59 60/60/60
v -0.378000 -0.332760 0.000000
v -0.347760 -0.363000 0.000000
v -0.347760 -0.363000 0.496000
vn -0.707107 -0.707107 0.000000
vn -0.707107 -0.707107 0.000000
vn -0.707107 -0.707107 0.000000
f 61/61/61 62/62/62 63/63/63
v -0.378000 -0.332760 0.000000
v -0.347760 -0.363000 0.496000
v -0.378000 -0.332760 0.496000
vn -0.707107 -0.707107 0.000000
vn -0.707107 -0.707107 0.000000
vn -0.707107 -0.707107 0.000000
f 64/64/64 65/65/65 66/66/66
v 0.000000 0.000000 0.496000
v -0.347760 -0.363000 0.496000
v 0.347760 -0.363000 0.496000
vn 0.000000 0.000000 1.000000
vn 0.000000 0.000000 1.000000
vn 0.000000 0.000000 1.000000
f 67/67/67 68/68/68 69/69/69
v 0.000000 0.000000 0.496000
v 0.347760 -0.363000 0.496000
v 0.378000 -0.332760 0.496000
vn 0.000000 0.000000 1.000000
vn 0.000000 0.000000 1.000000
vn 0.000000 0.000000 1.000000
f 70/70/70 71/71/71 72/72/72
v 0.000000 0.000000 0.496000
v 0.378000 -0.332760 0.496000
v 0.378000 0.332760 0.496000
vn -0.000000 0.000000 1.000000
vn -0.000000 0.000000 1.000000
vn -0.000000 0.000000 1.000000
f 73/73/73 74/74/74 75/75/75
v 0.000000 0.000000 0.496000
v 0.378000 0.332760 0.496000
v 0.347760 0.363000 0.496000
vn 0.000000 0.000000 1.000000
vn 0.000000 0.000000 1.000000
vn 0.000000 0.000000 1.000000
f 76/76/76 77/77/77 78/78/78
v 0.000000 0.000000 0.496000
v 0.347760 0.363000 0.496000
v -0.347760 0.363000 0.496000
vn 0.000000 -0.000000 1.000000
vn 0.000000 -0.000000 1.000000
vn 0.000000 -0.000000 1.000000
f 79/79/79 80/80/80 81/81/81
v 0.000000 0.000000 0.496000
v -0.347760 0.363000 0.496000
v -0.378000 0.332760 0.496000
vn 0.000000 0.000000 1.000000
vn 0.000000 0.000000 1.000000
vn 0.000000 0.000000 1.000000
f 82/82/82 83/83/83 84/84/84
v 0.000000 0.000000 0.496000
v -0.378000 0.332760 0.496000
v -0.378000 -0.332760 0.496000
vn 0.000000 0.000000 1.000000
vn 0.000000 0.000000 1.000000
vn 0.000000 0.000000 1.000000
f 85/85/85 86/86/86 87/87/87
v 0.000000 0.000000 0.496000
v -0.378000 -0.332760 0.496000
v -0.347760 -0.363000 0.496000
vn 0.000000 0.000000 1.000000
vn 0.000000 0.000000 1.000000
vn 0.000000 0.000000 1.000000
f 88/88/88 89/89/89 90/90/90
v -0.052920 -0.363000 0.499000
v -0.052920 0.363000 0.499000
v 0.052920 0.363000 0.499000
vn 0.000000 0.000000 -1.000000
vn 0.000000 0.000000 -1.000000
vn 0.000000 0.000000 -1.000000
f 91/91/91 92/92/92 93/93/93
v -0.052920 -0.363000 0.499000
v 0.052920 0.363000 0.499000
v 0.052920 -0.363000 0.499000
vn 0.000000 0.000000 -1.000000
vn 0.000000 0.000000 -1.000000
vn 0.000000 0.000000 -1.000000
f 94/94/94 95/95/95 96/96/96
v -0.052920 -0.363000 0.499000
v 0.052920 -0.363000 0.499000
v 0.052920 -0.363000 0.504000
vn 0.000000 -1.000000 0.000000
vn 0.000000 -1.000000 0.000000
vn 0.000000 -1.000000 0.000000
f 97/97/97 98/98/98 99/99/99
v -0.052920 -0.363000 0.499000
v 0.052920 -0.363000 0.504000
v -0.052920 -0.363000 0.504000
vn 0.000000 -1.000000 0.000000
vn 0.000000 -1.000000 0.000000
vn 0.000000 -1.000000 0.000000
f 100/100/100 101/101/101 102/102/102
v 0.052920 -0.363000 0.499000
v 0.052920 0.363000 0.499000
v 0.052920 0.363000 0.504000
vn 1.000000 0.000000 0.000000
vn 1.000000 0.000000 0.000000
vn 1.000000 0.000000 0.000000
f 103/103/103 104/104/104 105/105/105
v 0.052920 -0.363000 0.499000
v 0.052920 0.363000 0.504000
v 0.052920 -0.363000 0.504000
vn 1.000000 0.000000 0.000000
vn 1.000000 0.000000 0.000000
vn 1.000000 0.000000 0.000000
f 106/106/106 107/107/107 108/108/108
v 0.052920 0.363000 0.499000
v -0.052920 0.363000 0.499000
v -0.052920 0.363000 0.504000
vn 0.000000 1.000000 0.000000
vn 0.000000 1.000000 0.000000
vn 0.000000 1.000000 0.000000
f 109/109/109 110/110/110 111/111/111
v 0.052920 0.363000 0.499000
v -0.052920 0.363000 0.504000
v 0.052920 0.363000 0.504000
vn 0.000000 1.000000 -0.000000
vn 0.000000 1.000000 -0.000000
vn 0.000000 1.000000 -0.000000
f 112/112/112 113/113/113 114/114/114
v -0.052920 0.363000 0.499000
v -0.052920 -0.363000 0.499000
v -0.052920 -0.363000 0.504000
vn -1.000000 0.000000 0.000000
vn -1.000000 0.000000 0.000000
vn -1.000000 0.000000 0.000000
f 115/115/115 116/116/116 117/117/117
v -0.052920 0.363000 0.499000
v -0.052920 -0.363000 0.504000
v -0.052920 0.363000 0.504000
vn -1.000000 0.000000 0.000000
vn -1.000000 0.000000 0.000000
vn -1.000000 0.000000 0.000000
f 118/118/118 119/119/119 120/120/120
v -0.052920 -0.363000 0.504000
v 0.052920 -0.363000 0.504000
v 0.052920 0.363000 0.504000
vn 0.000000 0.000000 1.000000
vn 0.000000 0.000000 1.000000
vn 0.000000 0.000000 1.000000
f 121/121/121 122/122/122 123/123/123
v -0.052920 -0.363000 0.504000
v 0.052920 0.363000 0.504000
v -0.052920 0.363000 0.504000
vn 0.000000 0.000000 1.000000
vn 0.000000 0.000000 1.000000
vn 0.000000 0.000000 1.000000
f 124/124/124 125/125/125 126/126/126
v -0.332640 -0.004000 0.498000
v -0.332640 0.004000 0.498000
v 0.332640 0.004000 0.498000
vn 0.000000 0.000000 -1.000000
vn 0.000000 0.000000 -1.000000
vn 0.000000 0.000000 -1.000000
f 127/127/127 128/128/128 129/129/129
v -0.332640 -0.004000 0.498000
v 0.332640 0.004000 0.498000
v 0.332640 -0.004000 0.498000
vn 0.000000 0.000000 -1.000000
vn 0.000000 0.000000 -1.000000
vn 0.000000 0.000000 -1.000000
f 130/130/130 131/131/131 132/132/132
v -0.332640 -0.004000 0.498000
v 0.332640 -0.004000 0.498000
v 0.332640 -0.004000 0.501000
vn 0.000000 -1.000000 0.000000
vn 0.000000 -1.000000 0.000000
vn 0.000000 -1.000000 0.000000
f 133/133/133 134/134/134 135/135/135
v -0.332640 -0.004000 0.498000
v 0.332640 -0.004000 0.501000
v -0.332640 -0.004000 0.501000
vn 0.000000 -1.000000 0.000000
vn 0.000000 -1.000000 0.000000
vn 0.000000 -1.000000 0.000000
f 136/136/136 137/137/137 138/138/138
v 0.332640 -0.004000 0.498000
v 0.332640 0.004000 0.498000
v 0.332640 0.004000 0.501000
vn 1.000000 0.000000 0.000000
vn 1.000000 0.000000 0.000000
vn 1.000000 0.000000 0.000000
f 139/139/139 140/140/140 141/141/141
v 0.332640 -0.004000 0.498000
v 0.332640 0.004000 0.501000
v 0.332640 -0.004000 0.501000
vn 1.000000 0.000000 0.000000
vn 1.000000 0.000000 0.000000
vn 1.000000 0.000000 0.000000
f 142/142/142 143/143/143 144/144/144
v 0.332640 0.004000 0.498000
v -0.332640 0.004000 0.498000
v -0.332640 0.004000 0.501000
vn 0.000000 1.000000 0.000000
vn 0.000000 1.000000 0.000000
vn 0.000000 1.000000 0.000000
f 145/145/145 146/146/146 147/147/147
v 0.332640 0.004000 0.498000
v -0.332640 0.004000 0.501000
v 0.332640 0.004000 0.501000
vn 0.000000 1.000000 -0.000000
vn 0.000000 1.000000 -0.000000
vn 0.000000 1.000000 -0.000000
f 148/148/148 149/149/149 150/150/150
v -0.332640 0.004000 0.498000
v -0.332640 -0.004000 0.498000
v -0.332640 -0.004000 0.501000
vn -1.000000 0.000000 0.000000
vn -1.000000 0.000000 0.000000
vn -1.000000 0.000000 0.000000
f 151/151/151 152/152/152 153/153/153
v -0.332640 0.004000 0.498000
v -0.332640 -0.004000 0.501000
v -0.332640 0.004000 0.501000
vn -1.000000 0.000000 0.000000
vn -1.000000 0.000000 0.000000
vn -1.000000 0.000000 0.000000
f 154/154/154 155/155/155 156/156/156
v -0.332640 -0.004000 0.501000
v 0.332640 -0.004000 0.501000
v 0.332640 0.004000 0.501000
vn 0.000000 0.000000 1.000000
vn 0.000000 0.000000 1.000000
vn 0.000000 0.000000 1.000000
f 157/157/157 158/158/158 159/159/159
v -0.332640 -0.004000 0.501000
v 0.332640 0.004000 0.501000
v -0.332640 0.004000 0.501000
vn 0.000000 0.000000 1.000000
vn 0.000000 0.000000 1.000000
vn 0.000000 0.000000 1.000000
f 160/160/160 161/161/161 162/162/162
v 0.128520 -0.367000 0.114080
v 0.128520 -0.365000 0.114080
v 0.257040 -0.365000 0.114080
vn 0.000000 0.000000 -1.000000
vn 0.000000 0.000000 -1.000000
vn 0.000000 0.000000 -1.000000
f 163/163/163 164/164/164 165/165/165
v 0.128520 -0.367000 0.114080
v 0.257040 -0.365000 0.114080
v 0.257040 -0.367000 0.114080
vn 0.000000 0.000000 -1.000000
vn 0.000000 0.000000 -1.000000
vn 0.000000 0.000000 -1.000000
f 166/166/166 167/167/167 168/168/168
v 0.128520 -0.367000 0.114080
v 0.257040 -0.367000 0.114080
v 0.257040 -0.367000 0.178560
vn 0.000000 -1.000000 0.000000
vn 0.000000 -1.000000 0.000000
vn 0.000000 -1.000000 0.000000
f 169/169/169 170/170/170 171/171/171
v 0.128520 -0.367000 0.114080
v 0.257040 -0.367000 0.178560
v 0.128520 -0.367000 0.178560
vn 0.000000 -1.000000 0.000000
vn 0.000000 -1.000000 0.000000
vn 0.000000 -1.000000 0.000000
f 172/172/172 173/173/173 174/174/174
v 0.257040 -0.367000 0.114080
v 0.257040 -0.365000 0.114080
v 0.257040 -0.365000 0.178560
vn 1.000000 0.000000 0.000000
vn 1.000000 0.000000 0.000000
vn 1.000000 0.000000 0.000000
f 175/175/175 176/176/176 177/177/177
v 0.257040 -0.367000 0.114080
v 0.257040 -0.365000 0.178560
v 0.257040 -0.367000 0.178560
vn 1.000000 0.000000 0.000000
vn 1.000000 0.000000 0.000000
vn 1.000000 0.000000 0.000000
f 178/178/178 179/179/179 180/180/180
v 0.257040 -0.365000 0.114080
v 0.128520 -0.365000 0.114080
v 0.128520 -0.365000 0.178560
vn 0.000000 1.000000 0.000000
vn 0.000000 1.000000 0.000000
vn 0.000000 1.000000 0.000000
f 181/181/181 182/182/182 183/183/183
v 0.257040 -0.365000 0.114080
v 0.128520 -0.365000 0.178560
v 0.257040 -0.365000 0.178560
vn 0.000000 1.000000 -0.000000
vn 0.000000 1.000000 -0.000000
vn 0.000000 1.000000 -0.000000
f 184/184/184 185/185/185 186/186/186
v 0.128520 -0.365000 0.114080
v 0.128520 -0.367000 0.114080
v 0.128520 -0.367000 0.178560
vn -1.000000 0.000000 0.000000
vn -1.000000 0.000000 0.000000
vn -1.000000 0.000000 0.000000
f 187/187/187 188/188/188 189/189/189
v 0.128520 -0.365000 0.114080
v 0.128520 -0.367000 0.178560
v 0.128520 -0.365000 0.178560
vn -1.000000 0.000000 0.000000
vn -1.000000 0.000000 0.000000
vn -1.000000 0.000000 0.000000
f 190/190/190 191/191/191 192/192/192
v 0.128520 -0.367000 0.178560
v 0.257040 -0.367000 0.178560
v 0.257040 -0.365000 0.178560
vn 0.000000 0.000000 1.000000
vn 0.000000 0.000000 1.000000
vn 0.000000 0.000000 1.000000
f 193/193/193 194/194/194 195/195/195
v 0.128520 -0.367000 0.178560
v 0.257040 -0.365000 0.178560
v 0.128520 -0.365000 0.178560
vn 0.000000 0.000000 1.000000
vn 0.000000 0.000000 1.000000
vn 0.000000 0.000000 1.000000
f 196/196/196 197/197/197 198/198/198
