# G012: only triangles proven strictly inside another closed opaque box removed.
mtllib ../Materials/contents_books_misc_02_49.mtl
v -0.35000000 0.17000000 1.58000000
v -0.35000000 0.39000000 1.58000000
v -0.11000000 0.39000000 1.58000000
v -0.35000000 0.17000000 1.58000000
v -0.11000000 0.39000000 1.58000000
v -0.11000000 0.17000000 1.58000000
v -0.35000000 0.17000000 1.58000000
v -0.11000000 0.17000000 1.58000000
v -0.11000000 0.17000000 1.84000000
v -0.35000000 0.17000000 1.58000000
v -0.11000000 0.17000000 1.84000000
v -0.35000000 0.17000000 1.84000000
v -0.11000000 0.17000000 1.58000000
v -0.11000000 0.39000000 1.58000000
v -0.11000000 0.39000000 1.84000000
v -0.11000000 0.17000000 1.58000000
v -0.11000000 0.39000000 1.84000000
v -0.11000000 0.17000000 1.84000000
v -0.11000000 0.39000000 1.58000000
v -0.35000000 0.39000000 1.58000000
v -0.35000000 0.39000000 1.84000000
v -0.11000000 0.39000000 1.58000000
v -0.35000000 0.39000000 1.84000000
v -0.11000000 0.39000000 1.84000000
v -0.35000000 0.39000000 1.58000000
v -0.35000000 0.17000000 1.58000000
v -0.35000000 0.17000000 1.84000000
v -0.35000000 0.39000000 1.58000000
v -0.35000000 0.17000000 1.84000000
v -0.35000000 0.39000000 1.84000000
v -0.35000000 0.17000000 1.84000000
v -0.11000000 0.17000000 1.84000000
v -0.11000000 0.39000000 1.84000000
v -0.35000000 0.17000000 1.84000000
v -0.11000000 0.39000000 1.84000000
v -0.35000000 0.39000000 1.84000000
v 0.26500000 0.30000000 1.58000000
v 0.24596200 0.34596200 1.58000000
v 0.24596200 0.34596200 1.78000000
v 0.26500000 0.30000000 1.58000000
v 0.24596200 0.34596200 1.78000000
v 0.26500000 0.30000000 1.78000000
v 0.24596200 0.34596200 1.58000000
v 0.20000000 0.36500000 1.58000000
v 0.20000000 0.36500000 1.78000000
v 0.24596200 0.34596200 1.58000000
v 0.20000000 0.36500000 1.78000000
v 0.24596200 0.34596200 1.78000000
v 0.20000000 0.36500000 1.58000000
v 0.15403800 0.34596200 1.58000000
v 0.15403800 0.34596200 1.78000000
v 0.20000000 0.36500000 1.58000000
v 0.15403800 0.34596200 1.78000000
v 0.20000000 0.36500000 1.78000000
v 0.15403800 0.34596200 1.58000000
v 0.13500000 0.30000000 1.58000000
v 0.13500000 0.30000000 1.78000000
v 0.15403800 0.34596200 1.58000000
v 0.13500000 0.30000000 1.78000000
v 0.15403800 0.34596200 1.78000000
v 0.13500000 0.30000000 1.58000000
v 0.15403800 0.25403800 1.58000000
v 0.15403800 0.25403800 1.78000000
v 0.13500000 0.30000000 1.58000000
v 0.15403800 0.25403800 1.78000000
v 0.13500000 0.30000000 1.78000000
v 0.15403800 0.25403800 1.58000000
v 0.20000000 0.23500000 1.58000000
v 0.20000000 0.23500000 1.78000000
v 0.15403800 0.25403800 1.58000000
v 0.20000000 0.23500000 1.78000000
v 0.15403800 0.25403800 1.78000000
v 0.20000000 0.23500000 1.58000000
v 0.24596200 0.25403800 1.58000000
v 0.24596200 0.25403800 1.78000000
v 0.20000000 0.23500000 1.58000000
v 0.24596200 0.25403800 1.78000000
v 0.20000000 0.23500000 1.78000000
v 0.24596200 0.25403800 1.58000000
v 0.26500000 0.30000000 1.58000000
v 0.26500000 0.30000000 1.78000000
v 0.24596200 0.25403800 1.58000000
v 0.26500000 0.30000000 1.78000000
v 0.24596200 0.25403800 1.78000000
v 0.24596200 0.34596200 1.58000000
v 0.26500000 0.30000000 1.58000000
v 0.20000000 0.30000000 1.58000000
v 0.20000000 0.36500000 1.58000000
v 0.24596200 0.34596200 1.58000000
v 0.20000000 0.30000000 1.58000000
v 0.15403800 0.34596200 1.58000000
v 0.20000000 0.36500000 1.58000000
v 0.20000000 0.30000000 1.58000000
v 0.13500000 0.30000000 1.58000000
v 0.15403800 0.34596200 1.58000000
v 0.20000000 0.30000000 1.58000000
v 0.15403800 0.25403800 1.58000000
v 0.13500000 0.30000000 1.58000000
v 0.20000000 0.30000000 1.58000000
v 0.20000000 0.23500000 1.58000000
v 0.15403800 0.25403800 1.58000000
v 0.20000000 0.30000000 1.58000000
v 0.24596200 0.25403800 1.58000000
v 0.20000000 0.23500000 1.58000000
v 0.20000000 0.30000000 1.58000000
v 0.26500000 0.30000000 1.58000000
v 0.24596200 0.25403800 1.58000000
v 0.20000000 0.30000000 1.58000000
v 0.20000000 0.30000000 1.78000000
v 0.26500000 0.30000000 1.78000000
v 0.24596200 0.34596200 1.78000000
v 0.20000000 0.30000000 1.78000000
v 0.24596200 0.34596200 1.78000000
v 0.20000000 0.36500000 1.78000000
v 0.20000000 0.30000000 1.78000000
v 0.20000000 0.36500000 1.78000000
v 0.15403800 0.34596200 1.78000000
v 0.20000000 0.30000000 1.78000000
v 0.15403800 0.34596200 1.78000000
v 0.13500000 0.30000000 1.78000000
v 0.20000000 0.30000000 1.78000000
v 0.13500000 0.30000000 1.78000000
v 0.15403800 0.25403800 1.78000000
v 0.20000000 0.30000000 1.78000000
v 0.15403800 0.25403800 1.78000000
v 0.20000000 0.23500000 1.78000000
v 0.20000000 0.30000000 1.78000000
v 0.20000000 0.23500000 1.78000000
v 0.24596200 0.25403800 1.78000000
v 0.20000000 0.30000000 1.78000000
v 0.24596200 0.25403800 1.78000000
v 0.26500000 0.30000000 1.78000000
v 0.16620000 0.23400000 1.63400000
v 0.16620000 0.23900000 1.63400000
v 0.23380000 0.23900000 1.63400000
v 0.16620000 0.23400000 1.63400000
v 0.23380000 0.23900000 1.63400000
v 0.23380000 0.23400000 1.63400000
v 0.16620000 0.23400000 1.63400000
v 0.23380000 0.23400000 1.63400000
v 0.23380000 0.23400000 1.71000000
v 0.16620000 0.23400000 1.63400000
v 0.23380000 0.23400000 1.71000000
v 0.16620000 0.23400000 1.71000000
v 0.23380000 0.23400000 1.63400000
v 0.23380000 0.23900000 1.63400000
v 0.23380000 0.23900000 1.71000000
v 0.23380000 0.23400000 1.63400000
v 0.23380000 0.23900000 1.71000000
v 0.23380000 0.23400000 1.71000000
v 0.23380000 0.23900000 1.63400000
v 0.16620000 0.23900000 1.63400000
v 0.16620000 0.23900000 1.71000000
v 0.23380000 0.23900000 1.63400000
v 0.16620000 0.23900000 1.71000000
v 0.23380000 0.23900000 1.71000000
v 0.16620000 0.23900000 1.63400000
v 0.16620000 0.23400000 1.63400000
v 0.16620000 0.23400000 1.71000000
v 0.16620000 0.23900000 1.63400000
v 0.16620000 0.23400000 1.71000000
v 0.16620000 0.23900000 1.71000000
v 0.16620000 0.23400000 1.71000000
v 0.23380000 0.23400000 1.71000000
v 0.23380000 0.23900000 1.71000000
v 0.16620000 0.23400000 1.71000000
v 0.23380000 0.23900000 1.71000000
v 0.16620000 0.23900000 1.71000000
v -0.05500000 0.09500000 1.58000000
v -0.05500000 0.22500000 1.58000000
v 0.09500000 0.22500000 1.58000000
v -0.05500000 0.09500000 1.58000000
v 0.09500000 0.22500000 1.58000000
v 0.09500000 0.09500000 1.58000000
v -0.05500000 0.09500000 1.58000000
v 0.09500000 0.09500000 1.58000000
v 0.08300000 0.10605000 1.62000000
v -0.05500000 0.09500000 1.58000000
v 0.08300000 0.10605000 1.62000000
v -0.04300000 0.10605000 1.62000000
v 0.09500000 0.09500000 1.58000000
v 0.09500000 0.22500000 1.58000000
v 0.08300000 0.21395000 1.62000000
v 0.09500000 0.09500000 1.58000000
v 0.08300000 0.21395000 1.62000000
v 0.08300000 0.10605000 1.62000000
v 0.09500000 0.22500000 1.58000000
v -0.05500000 0.22500000 1.58000000
v -0.04300000 0.21395000 1.62000000
v 0.09500000 0.22500000 1.58000000
v -0.04300000 0.21395000 1.62000000
v 0.08300000 0.21395000 1.62000000
v -0.05500000 0.22500000 1.58000000
v -0.05500000 0.09500000 1.58000000
v -0.04300000 0.10605000 1.62000000
v -0.05500000 0.22500000 1.58000000
v -0.04300000 0.10605000 1.62000000
v -0.04300000 0.21395000 1.62000000
v -0.04300000 0.10605000 1.62000000
v 0.08300000 0.10605000 1.62000000
v 0.08300000 0.21395000 1.62000000
v -0.04300000 0.10605000 1.62000000
v 0.08300000 0.21395000 1.62000000
v -0.04300000 0.21395000 1.62000000
v -0.38500000 0.13000000 0.86000000
v -0.38500000 0.39000000 0.86000000
v -0.01500000 0.39000000 0.86000000
v -0.38500000 0.13000000 0.86000000
v -0.01500000 0.39000000 0.86000000
v -0.01500000 0.13000000 0.86000000
v -0.38500000 0.13000000 0.86000000
v -0.01500000 0.13000000 0.86000000
v -0.01500000 0.13000000 1.02800000
v -0.38500000 0.13000000 0.86000000
v -0.01500000 0.13000000 1.02800000
v -0.38500000 0.13000000 1.02800000
v -0.01500000 0.13000000 0.86000000
v -0.01500000 0.39000000 0.86000000
v -0.01500000 0.39000000 1.02800000
v -0.01500000 0.13000000 0.86000000
v -0.01500000 0.39000000 1.02800000
v -0.01500000 0.13000000 1.02800000
v -0.01500000 0.39000000 0.86000000
v -0.38500000 0.39000000 0.86000000
v -0.38500000 0.39000000 1.02800000
v -0.01500000 0.39000000 0.86000000
v -0.38500000 0.39000000 1.02800000
v -0.01500000 0.39000000 1.02800000
v -0.38500000 0.39000000 0.86000000
v -0.38500000 0.13000000 0.86000000
v -0.38500000 0.13000000 1.02800000
v -0.38500000 0.39000000 0.86000000
v -0.38500000 0.13000000 1.02800000
v -0.38500000 0.39000000 1.02800000
v -0.38500000 0.13000000 1.02800000
v -0.01500000 0.13000000 1.02800000
v -0.01500000 0.39000000 1.02800000
v -0.38500000 0.13000000 1.02800000
v -0.01500000 0.39000000 1.02800000
v -0.38500000 0.39000000 1.02800000
v -0.38900000 0.12600000 1.02800000
v -0.38900000 0.39400000 1.02800000
v -0.01100000 0.39400000 1.02800000
v -0.38900000 0.12600000 1.02800000
v -0.01100000 0.39400000 1.02800000
v -0.01100000 0.12600000 1.02800000
v -0.38900000 0.12600000 1.02800000
v -0.01100000 0.12600000 1.02800000
v -0.01100000 0.12600000 1.07000000
v -0.38900000 0.12600000 1.02800000
v -0.01100000 0.12600000 1.07000000
v -0.38900000 0.12600000 1.07000000
v -0.01100000 0.12600000 1.02800000
v -0.01100000 0.39400000 1.02800000
v -0.01100000 0.39400000 1.07000000
v -0.01100000 0.12600000 1.02800000
v -0.01100000 0.39400000 1.07000000
v -0.01100000 0.12600000 1.07000000
v -0.01100000 0.39400000 1.02800000
v -0.38900000 0.39400000 1.02800000
v -0.38900000 0.39400000 1.07000000
v -0.01100000 0.39400000 1.02800000
v -0.38900000 0.39400000 1.07000000
v -0.01100000 0.39400000 1.07000000
v -0.38900000 0.39400000 1.02800000
v -0.38900000 0.12600000 1.02800000
v -0.38900000 0.12600000 1.07000000
v -0.38900000 0.39400000 1.02800000
v -0.38900000 0.12600000 1.07000000
v -0.38900000 0.39400000 1.07000000
v -0.38900000 0.12600000 1.07000000
v -0.01100000 0.12600000 1.07000000
v -0.01100000 0.39400000 1.07000000
v -0.38900000 0.12600000 1.07000000
v -0.01100000 0.39400000 1.07000000
v -0.38900000 0.39400000 1.07000000
v -0.38500000 0.12700000 1.01960000
v -0.38500000 0.13100000 1.01960000
v -0.01500000 0.13100000 1.01960000
v -0.38500000 0.12700000 1.01960000
v -0.01500000 0.13100000 1.01960000
v -0.01500000 0.12700000 1.01960000
v -0.38500000 0.12700000 1.01960000
v -0.01500000 0.12700000 1.01960000
v -0.01500000 0.12700000 1.03010000
v -0.38500000 0.12700000 1.01960000
v -0.01500000 0.12700000 1.03010000
v -0.38500000 0.12700000 1.03010000
v -0.01500000 0.12700000 1.01960000
v -0.01500000 0.13100000 1.01960000
v -0.01500000 0.13100000 1.03010000
v -0.01500000 0.12700000 1.01960000
v -0.01500000 0.13100000 1.03010000
v -0.01500000 0.12700000 1.03010000
v -0.01500000 0.13100000 1.01960000
v -0.38500000 0.13100000 1.01960000
v -0.38500000 0.13100000 1.03010000
v -0.01500000 0.13100000 1.01960000
v -0.38500000 0.13100000 1.03010000
v -0.01500000 0.13100000 1.03010000
v -0.38500000 0.13100000 1.01960000
v -0.38500000 0.12700000 1.01960000
v -0.38500000 0.12700000 1.03010000
v -0.38500000 0.13100000 1.01960000
v -0.38500000 0.12700000 1.03010000
v -0.38500000 0.13100000 1.03010000
v -0.26450000 0.25000000 1.07000000
v -0.26450000 0.27000000 1.07000000
v -0.24650000 0.27000000 1.07000000
v -0.26450000 0.25000000 1.07000000
v -0.24650000 0.27000000 1.07000000
v -0.24650000 0.25000000 1.07000000
v -0.26450000 0.25000000 1.07000000
v -0.24650000 0.25000000 1.07000000
v -0.24650000 0.25000000 1.09500000
v -0.26450000 0.25000000 1.07000000
v -0.24650000 0.25000000 1.09500000
v -0.26450000 0.25000000 1.09500000
v -0.24650000 0.25000000 1.07000000
v -0.24650000 0.27000000 1.07000000
v -0.24650000 0.27000000 1.09500000
v -0.24650000 0.25000000 1.07000000
v -0.24650000 0.27000000 1.09500000
v -0.24650000 0.25000000 1.09500000
v -0.24650000 0.27000000 1.07000000
v -0.26450000 0.27000000 1.07000000
v -0.26450000 0.27000000 1.09500000
v -0.24650000 0.27000000 1.07000000
v -0.26450000 0.27000000 1.09500000
v -0.24650000 0.27000000 1.09500000
v -0.26450000 0.27000000 1.07000000
v -0.26450000 0.25000000 1.07000000
v -0.26450000 0.25000000 1.09500000
v -0.26450000 0.27000000 1.07000000
v -0.26450000 0.25000000 1.09500000
v -0.26450000 0.27000000 1.09500000
v -0.26450000 0.25000000 1.09500000
v -0.24650000 0.25000000 1.09500000
v -0.24650000 0.27000000 1.09500000
v -0.26450000 0.25000000 1.09500000
v -0.24650000 0.27000000 1.09500000
v -0.26450000 0.27000000 1.09500000
v -0.15350000 0.25000000 1.07000000
v -0.15350000 0.27000000 1.07000000
v -0.13550000 0.27000000 1.07000000
v -0.15350000 0.25000000 1.07000000
v -0.13550000 0.27000000 1.07000000
v -0.13550000 0.25000000 1.07000000
v -0.15350000 0.25000000 1.07000000
v -0.13550000 0.25000000 1.07000000
v -0.13550000 0.25000000 1.09500000
v -0.15350000 0.25000000 1.07000000
v -0.13550000 0.25000000 1.09500000
v -0.15350000 0.25000000 1.09500000
v -0.13550000 0.25000000 1.07000000
v -0.13550000 0.27000000 1.07000000
v -0.13550000 0.27000000 1.09500000
v -0.13550000 0.25000000 1.07000000
v -0.13550000 0.27000000 1.09500000
v -0.13550000 0.25000000 1.09500000
v -0.13550000 0.27000000 1.07000000
v -0.15350000 0.27000000 1.07000000
v -0.15350000 0.27000000 1.09500000
v -0.13550000 0.27000000 1.07000000
v -0.15350000 0.27000000 1.09500000
v -0.13550000 0.27000000 1.09500000
v -0.15350000 0.27000000 1.07000000
v -0.15350000 0.25000000 1.07000000
v -0.15350000 0.25000000 1.09500000
v -0.15350000 0.27000000 1.07000000
v -0.15350000 0.25000000 1.09500000
v -0.15350000 0.27000000 1.09500000
v -0.15350000 0.25000000 1.09500000
v -0.13550000 0.25000000 1.09500000
v -0.13550000 0.27000000 1.09500000
v -0.15350000 0.25000000 1.09500000
v -0.13550000 0.27000000 1.09500000
v -0.15350000 0.27000000 1.09500000
v -0.26450000 0.25000000 1.09500000
v -0.26450000 0.27000000 1.09500000
v -0.13550000 0.27000000 1.09500000
v -0.26450000 0.25000000 1.09500000
v -0.13550000 0.27000000 1.09500000
v -0.13550000 0.25000000 1.09500000
v -0.26450000 0.25000000 1.09500000
v -0.13550000 0.25000000 1.09500000
v -0.13550000 0.25000000 1.10800000
v -0.26450000 0.25000000 1.09500000
v -0.13550000 0.25000000 1.10800000
v -0.26450000 0.25000000 1.10800000
v -0.13550000 0.25000000 1.09500000
v -0.13550000 0.27000000 1.09500000
v -0.13550000 0.27000000 1.10800000
v -0.13550000 0.25000000 1.09500000
v -0.13550000 0.27000000 1.10800000
v -0.13550000 0.25000000 1.10800000
v -0.13550000 0.27000000 1.09500000
v -0.26450000 0.27000000 1.09500000
v -0.26450000 0.27000000 1.10800000
v -0.13550000 0.27000000 1.09500000
v -0.26450000 0.27000000 1.10800000
v -0.13550000 0.27000000 1.10800000
v -0.26450000 0.27000000 1.09500000
v -0.26450000 0.25000000 1.09500000
v -0.26450000 0.25000000 1.10800000
v -0.26450000 0.27000000 1.09500000
v -0.26450000 0.25000000 1.10800000
v -0.26450000 0.27000000 1.10800000
v -0.26450000 0.25000000 1.10800000
v -0.13550000 0.25000000 1.10800000
v -0.13550000 0.27000000 1.10800000
v -0.26450000 0.25000000 1.10800000
v -0.13550000 0.27000000 1.10800000
v -0.26450000 0.27000000 1.10800000
v 0.11000000 0.17000000 0.86000000
v 0.11000000 0.41000000 0.86000000
v 0.35000000 0.41000000 0.86000000
v 0.11000000 0.17000000 0.86000000
v 0.35000000 0.41000000 0.86000000
v 0.35000000 0.17000000 0.86000000
v 0.11000000 0.17000000 0.86000000
v 0.35000000 0.17000000 0.86000000
v 0.35000000 0.17000000 1.06000000
v 0.11000000 0.17000000 0.86000000
v 0.35000000 0.17000000 1.06000000
v 0.11000000 0.17000000 1.06000000
v 0.35000000 0.17000000 0.86000000
v 0.35000000 0.41000000 0.86000000
v 0.35000000 0.41000000 1.06000000
v 0.35000000 0.17000000 0.86000000
v 0.35000000 0.41000000 1.06000000
v 0.35000000 0.17000000 1.06000000
v 0.35000000 0.41000000 0.86000000
v 0.11000000 0.41000000 0.86000000
v 0.11000000 0.41000000 1.06000000
v 0.35000000 0.41000000 0.86000000
v 0.11000000 0.41000000 1.06000000
v 0.35000000 0.41000000 1.06000000
v 0.11000000 0.41000000 0.86000000
v 0.11000000 0.17000000 0.86000000
v 0.11000000 0.17000000 1.06000000
v 0.11000000 0.41000000 0.86000000
v 0.11000000 0.17000000 1.06000000
v 0.11000000 0.41000000 1.06000000
v 0.11000000 0.17000000 1.06000000
v 0.35000000 0.17000000 1.06000000
v 0.35000000 0.41000000 1.06000000
v 0.11000000 0.17000000 1.06000000
v 0.35000000 0.41000000 1.06000000
v 0.11000000 0.41000000 1.06000000
v 0.21250000 0.17000000 1.06000000
v 0.21250000 0.41000000 1.06000000
v 0.24750000 0.41000000 1.06000000
v 0.21250000 0.17000000 1.06000000
v 0.24750000 0.41000000 1.06000000
v 0.24750000 0.17000000 1.06000000
v 0.21250000 0.17000000 1.06000000
v 0.24750000 0.17000000 1.06000000
v 0.24750000 0.17000000 1.06400000
v 0.21250000 0.17000000 1.06000000
v 0.24750000 0.17000000 1.06400000
v 0.21250000 0.17000000 1.06400000
v 0.24750000 0.17000000 1.06000000
v 0.24750000 0.41000000 1.06000000
v 0.24750000 0.41000000 1.06400000
v 0.24750000 0.17000000 1.06000000
v 0.24750000 0.41000000 1.06400000
v 0.24750000 0.17000000 1.06400000
v 0.24750000 0.41000000 1.06000000
v 0.21250000 0.41000000 1.06000000
v 0.21250000 0.41000000 1.06400000
v 0.24750000 0.41000000 1.06000000
v 0.21250000 0.41000000 1.06400000
v 0.24750000 0.41000000 1.06400000
v 0.21250000 0.41000000 1.06000000
v 0.21250000 0.17000000 1.06000000
v 0.21250000 0.17000000 1.06400000
v 0.21250000 0.41000000 1.06000000
v 0.21250000 0.17000000 1.06400000
v 0.21250000 0.41000000 1.06400000
v 0.21250000 0.17000000 1.06400000
v 0.24750000 0.17000000 1.06400000
v 0.24750000 0.41000000 1.06400000
v 0.21250000 0.17000000 1.06400000
v 0.24750000 0.41000000 1.06400000
v 0.21250000 0.41000000 1.06400000
v 0.11500000 0.21500000 1.06400000
v 0.11500000 0.38500000 1.06400000
v 0.26500000 0.38500000 1.06400000
v 0.11500000 0.21500000 1.06400000
v 0.26500000 0.38500000 1.06400000
v 0.26500000 0.21500000 1.06400000
v 0.11500000 0.21500000 1.06400000
v 0.26500000 0.21500000 1.06400000
v 0.26500000 0.21500000 1.24400000
v 0.11500000 0.21500000 1.06400000
v 0.26500000 0.21500000 1.24400000
v 0.11500000 0.21500000 1.24400000
v 0.26500000 0.21500000 1.06400000
v 0.26500000 0.38500000 1.06400000
v 0.26500000 0.38500000 1.24400000
v 0.26500000 0.21500000 1.06400000
v 0.26500000 0.38500000 1.24400000
v 0.26500000 0.21500000 1.24400000
v 0.26500000 0.38500000 1.06400000
v 0.11500000 0.38500000 1.06400000
v 0.11500000 0.38500000 1.24400000
v 0.26500000 0.38500000 1.06400000
v 0.11500000 0.38500000 1.24400000
v 0.26500000 0.38500000 1.24400000
v 0.11500000 0.38500000 1.06400000
v 0.11500000 0.21500000 1.06400000
v 0.11500000 0.21500000 1.24400000
v 0.11500000 0.38500000 1.06400000
v 0.11500000 0.21500000 1.24400000
v 0.11500000 0.38500000 1.24400000
v 0.11500000 0.21500000 1.24400000
v 0.26500000 0.21500000 1.24400000
v 0.26500000 0.38500000 1.24400000
v 0.11500000 0.21500000 1.24400000
v 0.26500000 0.38500000 1.24400000
v 0.11500000 0.38500000 1.24400000
v 0.17875000 0.21500000 1.24400000
v 0.17875000 0.38500000 1.24400000
v 0.20125000 0.38500000 1.24400000
v 0.17875000 0.21500000 1.24400000
v 0.20125000 0.38500000 1.24400000
v 0.20125000 0.21500000 1.24400000
v 0.17875000 0.21500000 1.24400000
v 0.20125000 0.21500000 1.24400000
v 0.20125000 0.21500000 1.24800000
v 0.17875000 0.21500000 1.24400000
v 0.20125000 0.21500000 1.24800000
v 0.17875000 0.21500000 1.24800000
v 0.20125000 0.21500000 1.24400000
v 0.20125000 0.38500000 1.24400000
v 0.20125000 0.38500000 1.24800000
v 0.20125000 0.21500000 1.24400000
v 0.20125000 0.38500000 1.24800000
v 0.20125000 0.21500000 1.24800000
v 0.20125000 0.38500000 1.24400000
v 0.17875000 0.38500000 1.24400000
v 0.17875000 0.38500000 1.24800000
v 0.20125000 0.38500000 1.24400000
v 0.17875000 0.38500000 1.24800000
v 0.20125000 0.38500000 1.24800000
v 0.17875000 0.38500000 1.24400000
v 0.17875000 0.21500000 1.24400000
v 0.17875000 0.21500000 1.24800000
v 0.17875000 0.38500000 1.24400000
v 0.17875000 0.21500000 1.24800000
v 0.17875000 0.38500000 1.24800000
v 0.17875000 0.21500000 1.24800000
v 0.20125000 0.21500000 1.24800000
v 0.20125000 0.38500000 1.24800000
v 0.17875000 0.21500000 1.24800000
v 0.20125000 0.38500000 1.24800000
v 0.17875000 0.38500000 1.24800000
vn 0.00000000 0.00000000 -1.00000000
vn 0.00000000 0.00000000 -1.00000000
vn 0.00000000 0.00000000 -1.00000000
vn 0.00000000 0.00000000 -1.00000000
vn 0.00000000 0.00000000 -1.00000000
vn 0.00000000 0.00000000 -1.00000000
vn 0.00000000 -1.00000000 0.00000000
vn 0.00000000 -1.00000000 0.00000000
vn 0.00000000 -1.00000000 0.00000000
vn 0.00000000 -1.00000000 0.00000000
vn 0.00000000 -1.00000000 0.00000000
vn 0.00000000 -1.00000000 0.00000000
vn 1.00000000 0.00000000 0.00000000
vn 1.00000000 0.00000000 0.00000000
vn 1.00000000 0.00000000 0.00000000
vn 1.00000000 0.00000000 0.00000000
vn 1.00000000 0.00000000 0.00000000
vn 1.00000000 0.00000000 0.00000000
vn 0.00000000 1.00000000 0.00000000
vn 0.00000000 1.00000000 0.00000000
vn 0.00000000 1.00000000 0.00000000
vn 0.00000000 1.00000000 -0.00000000
vn 0.00000000 1.00000000 -0.00000000
vn 0.00000000 1.00000000 -0.00000000
vn -1.00000000 0.00000000 0.00000000
vn -1.00000000 0.00000000 0.00000000
vn -1.00000000 0.00000000 0.00000000
vn -1.00000000 0.00000000 0.00000000
vn -1.00000000 0.00000000 0.00000000
vn -1.00000000 0.00000000 0.00000000
vn 0.00000000 0.00000000 1.00000000
vn 0.00000000 0.00000000 1.00000000
vn 0.00000000 0.00000000 1.00000000
vn 0.00000000 0.00000000 1.00000000
vn 0.00000000 0.00000000 1.00000000
vn 0.00000000 0.00000000 1.00000000
vn 0.92388000 0.38268300 0.00000000
vn 0.92388000 0.38268300 0.00000000
vn 0.92388000 0.38268300 0.00000000
vn 0.92388000 0.38268300 -0.00000000
vn 0.92388000 0.38268300 -0.00000000
vn 0.92388000 0.38268300 -0.00000000
vn 0.38268300 0.92388000 0.00000000
vn 0.38268300 0.92388000 0.00000000
vn 0.38268300 0.92388000 0.00000000
vn 0.38268300 0.92388000 -0.00000000
vn 0.38268300 0.92388000 -0.00000000
vn 0.38268300 0.92388000 -0.00000000
vn -0.38268300 0.92388000 0.00000000
vn -0.38268300 0.92388000 0.00000000
vn -0.38268300 0.92388000 0.00000000
vn -0.38268300 0.92388000 0.00000000
vn -0.38268300 0.92388000 0.00000000
vn -0.38268300 0.92388000 0.00000000
vn -0.92388000 0.38268300 0.00000000
vn -0.92388000 0.38268300 0.00000000
vn -0.92388000 0.38268300 0.00000000
vn -0.92388000 0.38268300 0.00000000
vn -0.92388000 0.38268300 0.00000000
vn -0.92388000 0.38268300 0.00000000
vn -0.92388000 -0.38268300 0.00000000
vn -0.92388000 -0.38268300 0.00000000
vn -0.92388000 -0.38268300 0.00000000
vn -0.92388000 -0.38268300 0.00000000
vn -0.92388000 -0.38268300 0.00000000
vn -0.92388000 -0.38268300 0.00000000
vn -0.38268300 -0.92388000 0.00000000
vn -0.38268300 -0.92388000 0.00000000
vn -0.38268300 -0.92388000 0.00000000
vn -0.38268300 -0.92388000 0.00000000
vn -0.38268300 -0.92388000 0.00000000
vn -0.38268300 -0.92388000 0.00000000
vn 0.38268300 -0.92388000 0.00000000
vn 0.38268300 -0.92388000 0.00000000
vn 0.38268300 -0.92388000 0.00000000
vn 0.38268300 -0.92388000 0.00000000
vn 0.38268300 -0.92388000 0.00000000
vn 0.38268300 -0.92388000 0.00000000
vn 0.92388000 -0.38268300 0.00000000
vn 0.92388000 -0.38268300 0.00000000
vn 0.92388000 -0.38268300 0.00000000
vn 0.92388000 -0.38268300 0.00000000
vn 0.92388000 -0.38268300 0.00000000
vn 0.92388000 -0.38268300 0.00000000
vn 0.00000000 -0.00000000 -1.00000000
vn 0.00000000 -0.00000000 -1.00000000
vn 0.00000000 -0.00000000 -1.00000000
vn 0.00000000 0.00000000 -1.00000000
vn 0.00000000 0.00000000 -1.00000000
vn 0.00000000 0.00000000 -1.00000000
vn 0.00000000 0.00000000 -1.00000000
vn 0.00000000 0.00000000 -1.00000000
vn 0.00000000 0.00000000 -1.00000000
vn 0.00000000 0.00000000 -1.00000000
vn 0.00000000 0.00000000 -1.00000000
vn 0.00000000 0.00000000 -1.00000000
vn 0.00000000 0.00000000 -1.00000000
vn 0.00000000 0.00000000 -1.00000000
vn 0.00000000 0.00000000 -1.00000000
vn 0.00000000 0.00000000 -1.00000000
vn 0.00000000 0.00000000 -1.00000000
vn 0.00000000 0.00000000 -1.00000000
vn -0.00000000 0.00000000 -1.00000000
vn -0.00000000 0.00000000 -1.00000000
vn -0.00000000 0.00000000 -1.00000000
vn -0.00000000 0.00000000 -1.00000000
vn -0.00000000 0.00000000 -1.00000000
vn -0.00000000 0.00000000 -1.00000000
vn 0.00000000 0.00000000 1.00000000
vn 0.00000000 0.00000000 1.00000000
vn 0.00000000 0.00000000 1.00000000
vn 0.00000000 0.00000000 1.00000000
vn 0.00000000 0.00000000 1.00000000
vn 0.00000000 0.00000000 1.00000000
vn 0.00000000 -0.00000000 1.00000000
vn 0.00000000 -0.00000000 1.00000000
vn 0.00000000 -0.00000000 1.00000000
vn 0.00000000 0.00000000 1.00000000
vn 0.00000000 0.00000000 1.00000000
vn 0.00000000 0.00000000 1.00000000
vn 0.00000000 0.00000000 1.00000000
vn 0.00000000 0.00000000 1.00000000
vn 0.00000000 0.00000000 1.00000000
vn 0.00000000 0.00000000 1.00000000
vn 0.00000000 0.00000000 1.00000000
vn 0.00000000 0.00000000 1.00000000
vn 0.00000000 0.00000000 1.00000000
vn 0.00000000 0.00000000 1.00000000
vn 0.00000000 0.00000000 1.00000000
vn -0.00000000 0.00000000 1.00000000
vn -0.00000000 0.00000000 1.00000000
vn -0.00000000 0.00000000 1.00000000
vn 0.00000000 0.00000000 -1.00000000
vn 0.00000000 0.00000000 -1.00000000
vn 0.00000000 0.00000000 -1.00000000
vn 0.00000000 0.00000000 -1.00000000
vn 0.00000000 0.00000000 -1.00000000
vn 0.00000000 0.00000000 -1.00000000
vn 0.00000000 -1.00000000 0.00000000
vn 0.00000000 -1.00000000 0.00000000
vn 0.00000000 -1.00000000 0.00000000
vn 0.00000000 -1.00000000 0.00000000
vn 0.00000000 -1.00000000 0.00000000
vn 0.00000000 -1.00000000 0.00000000
vn 1.00000000 0.00000000 0.00000000
vn 1.00000000 0.00000000 0.00000000
vn 1.00000000 0.00000000 0.00000000
vn 1.00000000 0.00000000 0.00000000
vn 1.00000000 0.00000000 0.00000000
vn 1.00000000 0.00000000 0.00000000
vn 0.00000000 1.00000000 0.00000000
vn 0.00000000 1.00000000 0.00000000
vn 0.00000000 1.00000000 0.00000000
vn 0.00000000 1.00000000 -0.00000000
vn 0.00000000 1.00000000 -0.00000000
vn 0.00000000 1.00000000 -0.00000000
vn -1.00000000 0.00000000 0.00000000
vn -1.00000000 0.00000000 0.00000000
vn -1.00000000 0.00000000 0.00000000
vn -1.00000000 0.00000000 0.00000000
vn -1.00000000 0.00000000 0.00000000
vn -1.00000000 0.00000000 0.00000000
vn 0.00000000 0.00000000 1.00000000
vn 0.00000000 0.00000000 1.00000000
vn 0.00000000 0.00000000 1.00000000
vn 0.00000000 0.00000000 1.00000000
vn 0.00000000 0.00000000 1.00000000
vn 0.00000000 0.00000000 1.00000000
vn 0.00000000 0.00000000 -1.00000000
vn 0.00000000 0.00000000 -1.00000000
vn 0.00000000 0.00000000 -1.00000000
vn 0.00000000 0.00000000 -1.00000000
vn 0.00000000 0.00000000 -1.00000000
vn 0.00000000 0.00000000 -1.00000000
vn 0.00000000 -0.96389700 0.26627600
vn 0.00000000 -0.96389700 0.26627600
vn 0.00000000 -0.96389700 0.26627600
vn 0.00000000 -0.96389700 0.26627600
vn 0.00000000 -0.96389700 0.26627600
vn 0.00000000 -0.96389700 0.26627600
vn 0.95782600 -0.00000000 0.28734800
vn 0.95782600 -0.00000000 0.28734800
vn 0.95782600 -0.00000000 0.28734800
vn 0.95782600 0.00000000 0.28734800
vn 0.95782600 0.00000000 0.28734800
vn 0.95782600 0.00000000 0.28734800
vn 0.00000000 0.96389700 0.26627600
vn 0.00000000 0.96389700 0.26627600
vn 0.00000000 0.96389700 0.26627600
vn 0.00000000 0.96389700 0.26627600
vn 0.00000000 0.96389700 0.26627600
vn 0.00000000 0.96389700 0.26627600
vn -0.95782600 0.00000000 0.28734800
vn -0.95782600 0.00000000 0.28734800
vn -0.95782600 0.00000000 0.28734800
vn -0.95782600 0.00000000 0.28734800
vn -0.95782600 0.00000000 0.28734800
vn -0.95782600 0.00000000 0.28734800
vn 0.00000000 0.00000000 1.00000000
vn 0.00000000 0.00000000 1.00000000
vn 0.00000000 0.00000000 1.00000000
vn 0.00000000 0.00000000 1.00000000
vn 0.00000000 0.00000000 1.00000000
vn 0.00000000 0.00000000 1.00000000
vn 0.00000000 0.00000000 -1.00000000
vn 0.00000000 0.00000000 -1.00000000
vn 0.00000000 0.00000000 -1.00000000
vn 0.00000000 0.00000000 -1.00000000
vn 0.00000000 0.00000000 -1.00000000
vn 0.00000000 0.00000000 -1.00000000
vn 0.00000000 -1.00000000 0.00000000
vn 0.00000000 -1.00000000 0.00000000
vn 0.00000000 -1.00000000 0.00000000
vn 0.00000000 -1.00000000 0.00000000
vn 0.00000000 -1.00000000 0.00000000
vn 0.00000000 -1.00000000 0.00000000
vn 1.00000000 0.00000000 0.00000000
vn 1.00000000 0.00000000 0.00000000
vn 1.00000000 0.00000000 0.00000000
vn 1.00000000 0.00000000 0.00000000
vn 1.00000000 0.00000000 0.00000000
vn 1.00000000 0.00000000 0.00000000
vn 0.00000000 1.00000000 0.00000000
vn 0.00000000 1.00000000 0.00000000
vn 0.00000000 1.00000000 0.00000000
vn 0.00000000 1.00000000 -0.00000000
vn 0.00000000 1.00000000 -0.00000000
vn 0.00000000 1.00000000 -0.00000000
vn -1.00000000 0.00000000 0.00000000
vn -1.00000000 0.00000000 0.00000000
vn -1.00000000 0.00000000 0.00000000
vn -1.00000000 0.00000000 0.00000000
vn -1.00000000 0.00000000 0.00000000
vn -1.00000000 0.00000000 0.00000000
vn 0.00000000 0.00000000 1.00000000
vn 0.00000000 0.00000000 1.00000000
vn 0.00000000 0.00000000 1.00000000
vn 0.00000000 0.00000000 1.00000000
vn 0.00000000 0.00000000 1.00000000
vn 0.00000000 0.00000000 1.00000000
vn 0.00000000 0.00000000 -1.00000000
vn 0.00000000 0.00000000 -1.00000000
vn 0.00000000 0.00000000 -1.00000000
vn 0.00000000 0.00000000 -1.00000000
vn 0.00000000 0.00000000 -1.00000000
vn 0.00000000 0.00000000 -1.00000000
vn 0.00000000 -1.00000000 0.00000000
vn 0.00000000 -1.00000000 0.00000000
vn 0.00000000 -1.00000000 0.00000000
vn 0.00000000 -1.00000000 0.00000000
vn 0.00000000 -1.00000000 0.00000000
vn 0.00000000 -1.00000000 0.00000000
vn 1.00000000 0.00000000 0.00000000
vn 1.00000000 0.00000000 0.00000000
vn 1.00000000 0.00000000 0.00000000
vn 1.00000000 0.00000000 0.00000000
vn 1.00000000 0.00000000 0.00000000
vn 1.00000000 0.00000000 0.00000000
vn 0.00000000 1.00000000 0.00000000
vn 0.00000000 1.00000000 0.00000000
vn 0.00000000 1.00000000 0.00000000
vn 0.00000000 1.00000000 -0.00000000
vn 0.00000000 1.00000000 -0.00000000
vn 0.00000000 1.00000000 -0.00000000
vn -1.00000000 0.00000000 0.00000000
vn -1.00000000 0.00000000 0.00000000
vn -1.00000000 0.00000000 0.00000000
vn -1.00000000 0.00000000 0.00000000
vn -1.00000000 0.00000000 0.00000000
vn -1.00000000 0.00000000 0.00000000
vn 0.00000000 0.00000000 1.00000000
vn 0.00000000 0.00000000 1.00000000
vn 0.00000000 0.00000000 1.00000000
vn 0.00000000 0.00000000 1.00000000
vn 0.00000000 0.00000000 1.00000000
vn 0.00000000 0.00000000 1.00000000
vn 0.00000000 0.00000000 -1.00000000
vn 0.00000000 0.00000000 -1.00000000
vn 0.00000000 0.00000000 -1.00000000
vn 0.00000000 0.00000000 -1.00000000
vn 0.00000000 0.00000000 -1.00000000
vn 0.00000000 0.00000000 -1.00000000
vn 0.00000000 -1.00000000 0.00000000
vn 0.00000000 -1.00000000 0.00000000
vn 0.00000000 -1.00000000 0.00000000
vn 0.00000000 -1.00000000 0.00000000
vn 0.00000000 -1.00000000 0.00000000
vn 0.00000000 -1.00000000 0.00000000
vn 1.00000000 0.00000000 0.00000000
vn 1.00000000 0.00000000 0.00000000
vn 1.00000000 0.00000000 0.00000000
vn 1.00000000 0.00000000 0.00000000
vn 1.00000000 0.00000000 0.00000000
vn 1.00000000 0.00000000 0.00000000
vn 0.00000000 1.00000000 0.00000000
vn 0.00000000 1.00000000 0.00000000
vn 0.00000000 1.00000000 0.00000000
vn 0.00000000 1.00000000 -0.00000000
vn 0.00000000 1.00000000 -0.00000000
vn 0.00000000 1.00000000 -0.00000000
vn -1.00000000 0.00000000 0.00000000
vn -1.00000000 0.00000000 0.00000000
vn -1.00000000 0.00000000 0.00000000
vn -1.00000000 0.00000000 0.00000000
vn -1.00000000 0.00000000 0.00000000
vn -1.00000000 0.00000000 0.00000000
vn 0.00000000 0.00000000 -1.00000000
vn 0.00000000 0.00000000 -1.00000000
vn 0.00000000 0.00000000 -1.00000000
vn 0.00000000 0.00000000 -1.00000000
vn 0.00000000 0.00000000 -1.00000000
vn 0.00000000 0.00000000 -1.00000000
vn 0.00000000 -1.00000000 0.00000000
vn 0.00000000 -1.00000000 0.00000000
vn 0.00000000 -1.00000000 0.00000000
vn 0.00000000 -1.00000000 0.00000000
vn 0.00000000 -1.00000000 0.00000000
vn 0.00000000 -1.00000000 0.00000000
vn 1.00000000 0.00000000 0.00000000
vn 1.00000000 0.00000000 0.00000000
vn 1.00000000 0.00000000 0.00000000
vn 1.00000000 0.00000000 0.00000000
vn 1.00000000 0.00000000 0.00000000
vn 1.00000000 0.00000000 0.00000000
vn 0.00000000 1.00000000 0.00000000
vn 0.00000000 1.00000000 0.00000000
vn 0.00000000 1.00000000 0.00000000
vn 0.00000000 1.00000000 -0.00000000
vn 0.00000000 1.00000000 -0.00000000
vn 0.00000000 1.00000000 -0.00000000
vn -1.00000000 0.00000000 0.00000000
vn -1.00000000 0.00000000 0.00000000
vn -1.00000000 0.00000000 0.00000000
vn -1.00000000 0.00000000 0.00000000
vn -1.00000000 0.00000000 0.00000000
vn -1.00000000 0.00000000 0.00000000
vn 0.00000000 0.00000000 1.00000000
vn 0.00000000 0.00000000 1.00000000
vn 0.00000000 0.00000000 1.00000000
vn 0.00000000 0.00000000 1.00000000
vn 0.00000000 0.00000000 1.00000000
vn 0.00000000 0.00000000 1.00000000
vn 0.00000000 0.00000000 -1.00000000
vn 0.00000000 0.00000000 -1.00000000
vn 0.00000000 0.00000000 -1.00000000
vn 0.00000000 0.00000000 -1.00000000
vn 0.00000000 0.00000000 -1.00000000
vn 0.00000000 0.00000000 -1.00000000
vn 0.00000000 -1.00000000 0.00000000
vn 0.00000000 -1.00000000 0.00000000
vn 0.00000000 -1.00000000 0.00000000
vn 0.00000000 -1.00000000 0.00000000
vn 0.00000000 -1.00000000 0.00000000
vn 0.00000000 -1.00000000 0.00000000
vn 1.00000000 0.00000000 0.00000000
vn 1.00000000 0.00000000 0.00000000
vn 1.00000000 0.00000000 0.00000000
vn 1.00000000 0.00000000 0.00000000
vn 1.00000000 0.00000000 0.00000000
vn 1.00000000 0.00000000 0.00000000
vn 0.00000000 1.00000000 0.00000000
vn 0.00000000 1.00000000 0.00000000
vn 0.00000000 1.00000000 0.00000000
vn 0.00000000 1.00000000 -0.00000000
vn 0.00000000 1.00000000 -0.00000000
vn 0.00000000 1.00000000 -0.00000000
vn -1.00000000 0.00000000 0.00000000
vn -1.00000000 0.00000000 0.00000000
vn -1.00000000 0.00000000 0.00000000
vn -1.00000000 0.00000000 0.00000000
vn -1.00000000 0.00000000 0.00000000
vn -1.00000000 0.00000000 0.00000000
vn 0.00000000 0.00000000 1.00000000
vn 0.00000000 0.00000000 1.00000000
vn 0.00000000 0.00000000 1.00000000
vn 0.00000000 0.00000000 1.00000000
vn 0.00000000 0.00000000 1.00000000
vn 0.00000000 0.00000000 1.00000000
vn 0.00000000 0.00000000 -1.00000000
vn 0.00000000 0.00000000 -1.00000000
vn 0.00000000 0.00000000 -1.00000000
vn 0.00000000 0.00000000 -1.00000000
vn 0.00000000 0.00000000 -1.00000000
vn 0.00000000 0.00000000 -1.00000000
vn 0.00000000 -1.00000000 0.00000000
vn 0.00000000 -1.00000000 0.00000000
vn 0.00000000 -1.00000000 0.00000000
vn 0.00000000 -1.00000000 0.00000000
vn 0.00000000 -1.00000000 0.00000000
vn 0.00000000 -1.00000000 0.00000000
vn 1.00000000 0.00000000 0.00000000
vn 1.00000000 0.00000000 0.00000000
vn 1.00000000 0.00000000 0.00000000
vn 1.00000000 0.00000000 0.00000000
vn 1.00000000 0.00000000 0.00000000
vn 1.00000000 0.00000000 0.00000000
vn 0.00000000 1.00000000 0.00000000
vn 0.00000000 1.00000000 0.00000000
vn 0.00000000 1.00000000 0.00000000
vn 0.00000000 1.00000000 -0.00000000
vn 0.00000000 1.00000000 -0.00000000
vn 0.00000000 1.00000000 -0.00000000
vn -1.00000000 0.00000000 0.00000000
vn -1.00000000 0.00000000 0.00000000
vn -1.00000000 0.00000000 0.00000000
vn -1.00000000 0.00000000 0.00000000
vn -1.00000000 0.00000000 0.00000000
vn -1.00000000 0.00000000 0.00000000
vn 0.00000000 0.00000000 1.00000000
vn 0.00000000 0.00000000 1.00000000
vn 0.00000000 0.00000000 1.00000000
vn 0.00000000 0.00000000 1.00000000
vn 0.00000000 0.00000000 1.00000000
vn 0.00000000 0.00000000 1.00000000
vn 0.00000000 0.00000000 -1.00000000
vn 0.00000000 0.00000000 -1.00000000
vn 0.00000000 0.00000000 -1.00000000
vn 0.00000000 0.00000000 -1.00000000
vn 0.00000000 0.00000000 -1.00000000
vn 0.00000000 0.00000000 -1.00000000
vn 0.00000000 -1.00000000 0.00000000
vn 0.00000000 -1.00000000 0.00000000
vn 0.00000000 -1.00000000 0.00000000
vn 0.00000000 -1.00000000 0.00000000
vn 0.00000000 -1.00000000 0.00000000
vn 0.00000000 -1.00000000 0.00000000
vn 1.00000000 0.00000000 0.00000000
vn 1.00000000 0.00000000 0.00000000
vn 1.00000000 0.00000000 0.00000000
vn 1.00000000 0.00000000 0.00000000
vn 1.00000000 0.00000000 0.00000000
vn 1.00000000 0.00000000 0.00000000
vn 0.00000000 1.00000000 0.00000000
vn 0.00000000 1.00000000 0.00000000
vn 0.00000000 1.00000000 0.00000000
vn 0.00000000 1.00000000 -0.00000000
vn 0.00000000 1.00000000 -0.00000000
vn 0.00000000 1.00000000 -0.00000000
vn -1.00000000 0.00000000 0.00000000
vn -1.00000000 0.00000000 0.00000000
vn -1.00000000 0.00000000 0.00000000
vn -1.00000000 0.00000000 0.00000000
vn -1.00000000 0.00000000 0.00000000
vn -1.00000000 0.00000000 0.00000000
vn 0.00000000 0.00000000 1.00000000
vn 0.00000000 0.00000000 1.00000000
vn 0.00000000 0.00000000 1.00000000
vn 0.00000000 0.00000000 1.00000000
vn 0.00000000 0.00000000 1.00000000
vn 0.00000000 0.00000000 1.00000000
vn 0.00000000 0.00000000 -1.00000000
vn 0.00000000 0.00000000 -1.00000000
vn 0.00000000 0.00000000 -1.00000000
vn 0.00000000 0.00000000 -1.00000000
vn 0.00000000 0.00000000 -1.00000000
vn 0.00000000 0.00000000 -1.00000000
vn 0.00000000 -1.00000000 0.00000000
vn 0.00000000 -1.00000000 0.00000000
vn 0.00000000 -1.00000000 0.00000000
vn 0.00000000 -1.00000000 0.00000000
vn 0.00000000 -1.00000000 0.00000000
vn 0.00000000 -1.00000000 0.00000000
vn 1.00000000 0.00000000 0.00000000
vn 1.00000000 0.00000000 0.00000000
vn 1.00000000 0.00000000 0.00000000
vn 1.00000000 0.00000000 0.00000000
vn 1.00000000 0.00000000 0.00000000
vn 1.00000000 0.00000000 0.00000000
vn 0.00000000 1.00000000 0.00000000
vn 0.00000000 1.00000000 0.00000000
vn 0.00000000 1.00000000 0.00000000
vn 0.00000000 1.00000000 -0.00000000
vn 0.00000000 1.00000000 -0.00000000
vn 0.00000000 1.00000000 -0.00000000
vn -1.00000000 0.00000000 0.00000000
vn -1.00000000 0.00000000 0.00000000
vn -1.00000000 0.00000000 0.00000000
vn -1.00000000 0.00000000 0.00000000
vn -1.00000000 0.00000000 0.00000000
vn -1.00000000 0.00000000 0.00000000
vn 0.00000000 0.00000000 1.00000000
vn 0.00000000 0.00000000 1.00000000
vn 0.00000000 0.00000000 1.00000000
vn 0.00000000 0.00000000 1.00000000
vn 0.00000000 0.00000000 1.00000000
vn 0.00000000 0.00000000 1.00000000
vn 0.00000000 0.00000000 -1.00000000
vn 0.00000000 0.00000000 -1.00000000
vn 0.00000000 0.00000000 -1.00000000
vn 0.00000000 0.00000000 -1.00000000
vn 0.00000000 0.00000000 -1.00000000
vn 0.00000000 0.00000000 -1.00000000
vn 0.00000000 -1.00000000 0.00000000
vn 0.00000000 -1.00000000 0.00000000
vn 0.00000000 -1.00000000 0.00000000
vn 0.00000000 -1.00000000 0.00000000
vn 0.00000000 -1.00000000 0.00000000
vn 0.00000000 -1.00000000 0.00000000
vn 1.00000000 0.00000000 0.00000000
vn 1.00000000 0.00000000 0.00000000
vn 1.00000000 0.00000000 0.00000000
vn 1.00000000 0.00000000 0.00000000
vn 1.00000000 0.00000000 0.00000000
vn 1.00000000 0.00000000 0.00000000
vn 0.00000000 1.00000000 0.00000000
vn 0.00000000 1.00000000 0.00000000
vn 0.00000000 1.00000000 0.00000000
vn 0.00000000 1.00000000 -0.00000000
vn 0.00000000 1.00000000 -0.00000000
vn 0.00000000 1.00000000 -0.00000000
vn -1.00000000 0.00000000 0.00000000
vn -1.00000000 0.00000000 0.00000000
vn -1.00000000 0.00000000 0.00000000
vn -1.00000000 0.00000000 0.00000000
vn -1.00000000 0.00000000 0.00000000
vn -1.00000000 0.00000000 0.00000000
vn 0.00000000 0.00000000 1.00000000
vn 0.00000000 0.00000000 1.00000000
vn 0.00000000 0.00000000 1.00000000
vn 0.00000000 0.00000000 1.00000000
vn 0.00000000 0.00000000 1.00000000
vn 0.00000000 0.00000000 1.00000000
vn 0.00000000 0.00000000 -1.00000000
vn 0.00000000 0.00000000 -1.00000000
vn 0.00000000 0.00000000 -1.00000000
vn 0.00000000 0.00000000 -1.00000000
vn 0.00000000 0.00000000 -1.00000000
vn 0.00000000 0.00000000 -1.00000000
vn 0.00000000 -1.00000000 0.00000000
vn 0.00000000 -1.00000000 0.00000000
vn 0.00000000 -1.00000000 0.00000000
vn 0.00000000 -1.00000000 0.00000000
vn 0.00000000 -1.00000000 0.00000000
vn 0.00000000 -1.00000000 0.00000000
vn 1.00000000 0.00000000 0.00000000
vn 1.00000000 0.00000000 0.00000000
vn 1.00000000 0.00000000 0.00000000
vn 1.00000000 0.00000000 0.00000000
vn 1.00000000 0.00000000 0.00000000
vn 1.00000000 0.00000000 0.00000000
vn 0.00000000 1.00000000 0.00000000
vn 0.00000000 1.00000000 0.00000000
vn 0.00000000 1.00000000 0.00000000
vn 0.00000000 1.00000000 -0.00000000
vn 0.00000000 1.00000000 -0.00000000
vn 0.00000000 1.00000000 -0.00000000
vn -1.00000000 0.00000000 0.00000000
vn -1.00000000 0.00000000 0.00000000
vn -1.00000000 0.00000000 0.00000000
vn -1.00000000 0.00000000 0.00000000
vn -1.00000000 0.00000000 0.00000000
vn -1.00000000 0.00000000 0.00000000
vn 0.00000000 0.00000000 1.00000000
vn 0.00000000 0.00000000 1.00000000
vn 0.00000000 0.00000000 1.00000000
vn 0.00000000 0.00000000 1.00000000
vn 0.00000000 0.00000000 1.00000000
vn 0.00000000 0.00000000 1.00000000
o contents_books_misc_02_49
usemtl UV_Base
vt 0.313403458 0.546875000
vt 0.447265625 0.546875000
vt 0.447265625 0.692906455
vt 0.313403458 0.546875000
vt 0.447265625 0.692906455
vt 0.313403458 0.692906455
vt 0.162109375 0.392578125
vt 0.162109375 0.538609580
vt 0.003908632 0.538609580
vt 0.162109375 0.392578125
vt 0.003908632 0.538609580
vt 0.003908632 0.392578125
vt 0.494140625 0.392578125
vt 0.494140625 0.526440292
vt 0.335939882 0.526440292
vt 0.494140625 0.392578125
vt 0.335939882 0.526440292
vt 0.335939882 0.392578125
vt 0.169924257 0.538609580
vt 0.169924257 0.392578125
vt 0.328125000 0.392578125
vt 0.169924257 0.538609580
vt 0.328125000 0.392578125
vt 0.328125000 0.538609580
vt 0.501955507 0.526440292
vt 0.501955507 0.392578125
vt 0.660156250 0.392578125
vt 0.501955507 0.526440292
vt 0.660156250 0.392578125
vt 0.660156250 0.526440292
vt 0.589843750 0.546875000
vt 0.589843750 0.692906455
vt 0.455981583 0.692906455
vt 0.589843750 0.546875000
vt 0.455981583 0.692906455
vt 0.455981583 0.546875000
vt 0.159182704 0.701171875
vt 0.189453125 0.701171875
vt 0.189453125 0.822864754
vt 0.159182704 0.701171875
vt 0.189453125 0.822864754
vt 0.159182704 0.822864754
vt 0.198245204 0.701171875
vt 0.228515625 0.701171875
vt 0.228515625 0.822864754
vt 0.198245204 0.701171875
vt 0.228515625 0.822864754
vt 0.198245204 0.822864754
vt 0.237307704 0.701171875
vt 0.267578125 0.701171875
vt 0.267578125 0.822864754
vt 0.237307704 0.701171875
vt 0.267578125 0.822864754
vt 0.237307704 0.822864754
vt 0.276370204 0.701171875
vt 0.306640625 0.701171875
vt 0.306640625 0.822864754
vt 0.276370204 0.701171875
vt 0.306640625 0.822864754
vt 0.276370204 0.822864754
vt 0.315432704 0.701171875
vt 0.345703125 0.701171875
vt 0.345703125 0.822864754
vt 0.315432704 0.701171875
vt 0.345703125 0.822864754
vt 0.315432704 0.822864754
vt 0.354495204 0.701171875
vt 0.384765625 0.701171875
vt 0.384765625 0.822864754
vt 0.354495204 0.701171875
vt 0.384765625 0.822864754
vt 0.354495204 0.822864754
vt 0.393557704 0.701171875
vt 0.423828125 0.701171875
vt 0.423828125 0.822864754
vt 0.393557704 0.701171875
vt 0.423828125 0.822864754
vt 0.393557704 0.822864754
vt 0.432620204 0.701171875
vt 0.462890625 0.701171875
vt 0.462890625 0.822864754
vt 0.432620204 0.701171875
vt 0.462890625 0.822864754
vt 0.432620204 0.822864754
vt 0.337047676 0.843615195
vt 0.348631622 0.871581436
vt 0.309081436 0.871581436
vt 0.309081436 0.832031250
vt 0.337047676 0.843615195
vt 0.309081436 0.871581436
vt 0.281115195 0.843615195
vt 0.309081436 0.832031250
vt 0.309081436 0.871581436
vt 0.269531250 0.871581436
vt 0.281115195 0.843615195
vt 0.309081436 0.871581436
vt 0.281115195 0.899547676
vt 0.269531250 0.871581436
vt 0.309081436 0.871581436
vt 0.309081436 0.911131622
vt 0.281115195 0.899547676
vt 0.309081436 0.871581436
vt 0.337047676 0.899547676
vt 0.309081436 0.911131622
vt 0.309081436 0.871581436
vt 0.348631622 0.871581436
vt 0.337047676 0.899547676
vt 0.309081436 0.871581436
vt 0.396972061 0.871581436
vt 0.396972061 0.832031250
vt 0.424938301 0.843615195
vt 0.396972061 0.871581436
vt 0.424938301 0.843615195
vt 0.436522247 0.871581436
vt 0.396972061 0.871581436
vt 0.436522247 0.871581436
vt 0.424938301 0.899547676
vt 0.396972061 0.871581436
vt 0.424938301 0.899547676
vt 0.396972061 0.911131622
vt 0.396972061 0.871581436
vt 0.396972061 0.911131622
vt 0.369005820 0.899547676
vt 0.396972061 0.871581436
vt 0.369005820 0.899547676
vt 0.357421875 0.871581436
vt 0.396972061 0.871581436
vt 0.357421875 0.871581436
vt 0.369005820 0.843615195
vt 0.396972061 0.871581436
vt 0.369005820 0.843615195
vt 0.396972061 0.832031250
vt 0.700082678 0.832031250
vt 0.703125000 0.832031250
vt 0.703125000 0.873163443
vt 0.700082678 0.832031250
vt 0.703125000 0.873163443
vt 0.700082678 0.873163443
vt 0.597656250 0.832031250
vt 0.638788443 0.832031250
vt 0.638788443 0.878274544
vt 0.597656250 0.832031250
vt 0.638788443 0.878274544
vt 0.597656250 0.878274544
vt 0.929687500 0.357421875
vt 0.929687500 0.360464197
vt 0.883444206 0.360464197
vt 0.929687500 0.357421875
vt 0.883444206 0.360464197
vt 0.883444206 0.357421875
vt 0.689569693 0.878274544
vt 0.648437500 0.878274544
vt 0.648437500 0.832031250
vt 0.689569693 0.878274544
vt 0.648437500 0.832031250
vt 0.689569693 0.832031250
vt 0.938131706 0.360464197
vt 0.938131706 0.357421875
vt 0.984375000 0.357421875
vt 0.938131706 0.360464197
vt 0.984375000 0.357421875
vt 0.984375000 0.360464197
vt 0.714843750 0.832031250
vt 0.714843750 0.873163443
vt 0.711801428 0.873163443
vt 0.714843750 0.832031250
vt 0.711801428 0.873163443
vt 0.711801428 0.832031250
vt 0.116212128 0.832031250
vt 0.195312500 0.832031250
vt 0.195312500 0.923300910
vt 0.116212128 0.832031250
vt 0.195312500 0.923300910
vt 0.116212128 0.923300910
vt 0.228515625 0.832031250
vt 0.228515625 0.923300910
vt 0.203265434 0.915999337
vt 0.228515625 0.832031250
vt 0.203265434 0.915999337
vt 0.203265434 0.839332823
vt 0.707031250 0.357421875
vt 0.786131622 0.357421875
vt 0.779408090 0.382832094
vt 0.707031250 0.357421875
vt 0.779408090 0.382832094
vt 0.713754782 0.382832094
vt 0.236468559 0.923300910
vt 0.236468559 0.832031250
vt 0.261718750 0.839332823
vt 0.236468559 0.923300910
vt 0.261718750 0.839332823
vt 0.261718750 0.915999337
vt 0.874022247 0.382832094
vt 0.794921875 0.382832094
vt 0.801645407 0.357421875
vt 0.874022247 0.382832094
vt 0.801645407 0.357421875
vt 0.867298715 0.357421875
vt 0.589843750 0.832031250
vt 0.589843750 0.908697764
vt 0.524190442 0.908697764
vt 0.589843750 0.832031250
vt 0.524190442 0.908697764
vt 0.524190442 0.832031250
vt 0.003906250 0.333981993
vt 0.003906250 0.175781250
vt 0.229038077 0.175781250
vt 0.003906250 0.333981993
vt 0.229038077 0.175781250
vt 0.229038077 0.333981993
vt 0.472656250 0.175781250
vt 0.697788077 0.175781250
vt 0.697788077 0.278003269
vt 0.472656250 0.175781250
vt 0.697788077 0.278003269
vt 0.472656250 0.278003269
vt 0.667968750 0.392578125
vt 0.826169493 0.392578125
vt 0.826169493 0.494800144
vt 0.667968750 0.392578125
vt 0.826169493 0.494800144
vt 0.667968750 0.494800144
vt 0.932163077 0.278003269
vt 0.707031250 0.278003269
vt 0.707031250 0.175781250
vt 0.932163077 0.278003269
vt 0.707031250 0.175781250
vt 0.932163077 0.175781250
vt 0.992185118 0.494800144
vt 0.833984375 0.494800144
vt 0.833984375 0.392578125
vt 0.992185118 0.494800144
vt 0.833984375 0.392578125
vt 0.992185118 0.392578125
vt 0.238281250 0.175781250
vt 0.463413077 0.175781250
vt 0.463413077 0.333981993
vt 0.238281250 0.175781250
vt 0.463413077 0.333981993
vt 0.238281250 0.333981993
vt 0.003906250 0.166974709
vt 0.003906250 0.003906250
vt 0.233905792 0.003906250
vt 0.003906250 0.166974709
vt 0.233905792 0.003906250
vt 0.233905792 0.166974709
vt 0.480468750 0.003906250
vt 0.710468292 0.003906250
vt 0.710468292 0.029461755
vt 0.480468750 0.003906250
vt 0.710468292 0.029461755
vt 0.480468750 0.029461755
vt 0.984375000 0.003906250
vt 0.984375000 0.166974709
vt 0.958819495 0.166974709
vt 0.984375000 0.003906250
vt 0.958819495 0.166974709
vt 0.958819495 0.003906250
vt 0.948749542 0.029461755
vt 0.718750000 0.029461755
vt 0.718750000 0.003906250
vt 0.948749542 0.029461755
vt 0.718750000 0.003906250
vt 0.948749542 0.003906250
vt 0.166974709 0.382977380
vt 0.003906250 0.382977380
vt 0.003906250 0.357421875
vt 0.166974709 0.382977380
vt 0.003906250 0.357421875
vt 0.166974709 0.357421875
vt 0.242187500 0.003906250
vt 0.472187042 0.003906250
vt 0.472187042 0.166974709
vt 0.242187500 0.003906250
vt 0.472187042 0.166974709
vt 0.242187500 0.166974709
vt 0.472656250 0.344230733
vt 0.472656250 0.341796875
vt 0.697788077 0.341796875
vt 0.472656250 0.344230733
vt 0.697788077 0.341796875
vt 0.697788077 0.344230733
vt 0.003906250 0.341796875
vt 0.229038077 0.341796875
vt 0.229038077 0.348185751
vt 0.003906250 0.341796875
vt 0.229038077 0.348185751
vt 0.003906250 0.348185751
vt 0.988281250 0.832031250
vt 0.990715108 0.832031250
vt 0.990715108 0.838420126
vt 0.988281250 0.832031250
vt 0.990715108 0.838420126
vt 0.988281250 0.838420126
vt 0.463413077 0.348185751
vt 0.238281250 0.348185751
vt 0.238281250 0.341796875
vt 0.463413077 0.348185751
vt 0.238281250 0.341796875
vt 0.463413077 0.341796875
vt 0.943840108 0.182170126
vt 0.941406250 0.182170126
vt 0.941406250 0.175781250
vt 0.943840108 0.182170126
vt 0.941406250 0.175781250
vt 0.943840108 0.175781250
vt 0.910156250 0.844200538
vt 0.910156250 0.832031250
vt 0.921108609 0.832031250
vt 0.910156250 0.844200538
vt 0.921108609 0.832031250
vt 0.921108609 0.844200538
vt 0.808593750 0.832031250
vt 0.819546109 0.832031250
vt 0.819546109 0.847242860
vt 0.808593750 0.832031250
vt 0.819546109 0.847242860
vt 0.808593750 0.847242860
vt 0.765625000 0.832031250
vt 0.777794288 0.832031250
vt 0.777794288 0.847242860
vt 0.765625000 0.832031250
vt 0.777794288 0.847242860
vt 0.765625000 0.847242860
vt 0.839077359 0.847242860
vt 0.828125000 0.847242860
vt 0.828125000 0.832031250
vt 0.839077359 0.847242860
vt 0.828125000 0.832031250
vt 0.839077359 0.832031250
vt 0.734825538 0.855152897
vt 0.722656250 0.855152897
vt 0.722656250 0.839941287
vt 0.734825538 0.855152897
vt 0.722656250 0.839941287
vt 0.734825538 0.839941287
vt 0.929687500 0.832031250
vt 0.940639859 0.832031250
vt 0.940639859 0.844200538
vt 0.929687500 0.832031250
vt 0.940639859 0.844200538
vt 0.929687500 0.844200538
vt 0.949218750 0.844200538
vt 0.949218750 0.832031250
vt 0.960171109 0.832031250
vt 0.949218750 0.844200538
vt 0.960171109 0.832031250
vt 0.960171109 0.844200538
vt 0.847656250 0.832031250
vt 0.858608609 0.832031250
vt 0.858608609 0.847242860
vt 0.847656250 0.832031250
vt 0.858608609 0.847242860
vt 0.847656250 0.847242860
vt 0.744140625 0.832031250
vt 0.756309913 0.832031250
vt 0.756309913 0.847242860
vt 0.744140625 0.832031250
vt 0.756309913 0.847242860
vt 0.744140625 0.847242860
vt 0.878139859 0.847242860
vt 0.867187500 0.847242860
vt 0.867187500 0.832031250
vt 0.878139859 0.847242860
vt 0.867187500 0.832031250
vt 0.878139859 0.832031250
vt 0.799278663 0.847242860
vt 0.787109375 0.847242860
vt 0.787109375 0.832031250
vt 0.799278663 0.847242860
vt 0.787109375 0.832031250
vt 0.799278663 0.832031250
vt 0.968750000 0.832031250
vt 0.979702359 0.832031250
vt 0.979702359 0.844200538
vt 0.968750000 0.832031250
vt 0.979702359 0.844200538
vt 0.968750000 0.844200538
vt 0.446815087 0.832031250
vt 0.458984375 0.832031250
vt 0.458984375 0.910523157
vt 0.446815087 0.832031250
vt 0.458984375 0.910523157
vt 0.446815087 0.910523157
vt 0.498046875 0.832031250
vt 0.498046875 0.910523157
vt 0.490136838 0.910523157
vt 0.498046875 0.832031250
vt 0.490136838 0.910523157
vt 0.490136838 0.832031250
vt 0.744140625 0.847242860
vt 0.756309913 0.847242860
vt 0.756309913 0.855152897
vt 0.744140625 0.847242860
vt 0.756309913 0.855152897
vt 0.744140625 0.855152897
vt 0.507714963 0.910523157
vt 0.507714963 0.832031250
vt 0.515625000 0.832031250
vt 0.507714963 0.910523157
vt 0.515625000 0.832031250
vt 0.515625000 0.910523157
vt 0.734825538 0.839941287
vt 0.722656250 0.839941287
vt 0.722656250 0.832031250
vt 0.734825538 0.839941287
vt 0.722656250 0.832031250
vt 0.734825538 0.832031250
vt 0.480468750 0.832031250
vt 0.480468750 0.910523157
vt 0.468299462 0.910523157
vt 0.480468750 0.832031250
vt 0.468299462 0.910523157
vt 0.468299462 0.832031250
vt 0.003906250 0.692906455
vt 0.003906250 0.546875000
vt 0.149937705 0.546875000
vt 0.003906250 0.692906455
vt 0.149937705 0.546875000
vt 0.149937705 0.692906455
vt 0.720703125 0.546875000
vt 0.720703125 0.692906455
vt 0.599010246 0.692906455
vt 0.720703125 0.546875000
vt 0.599010246 0.692906455
vt 0.599010246 0.546875000
vt 0.851562500 0.546875000
vt 0.851562500 0.692906455
vt 0.729869621 0.692906455
vt 0.851562500 0.546875000
vt 0.729869621 0.692906455
vt 0.729869621 0.546875000
vt 0.860728996 0.692906455
vt 0.860728996 0.546875000
vt 0.982421875 0.546875000
vt 0.860728996 0.692906455
vt 0.982421875 0.546875000
vt 0.982421875 0.692906455
vt 0.149937705 0.822864754
vt 0.003906250 0.822864754
vt 0.003906250 0.701171875
vt 0.149937705 0.822864754
vt 0.003906250 0.701171875
vt 0.149937705 0.701171875
vt 0.158203125 0.546875000
vt 0.304234580 0.546875000
vt 0.304234580 0.692906455
vt 0.158203125 0.546875000
vt 0.304234580 0.692906455
vt 0.158203125 0.692906455
vt 0.176234170 0.357421875
vt 0.322265625 0.357421875
vt 0.322265625 0.378718129
vt 0.176234170 0.357421875
vt 0.322265625 0.378718129
vt 0.176234170 0.378718129
vt 0.972656250 0.341796875
vt 0.993952504 0.341796875
vt 0.993952504 0.344230733
vt 0.972656250 0.341796875
vt 0.993952504 0.344230733
vt 0.972656250 0.344230733
vt 0.994140625 0.546875000
vt 0.994140625 0.692906455
vt 0.991706767 0.692906455
vt 0.994140625 0.546875000
vt 0.991706767 0.692906455
vt 0.991706767 0.546875000
vt 0.993659892 0.378718129
vt 0.993659892 0.357421875
vt 0.996093750 0.357421875
vt 0.993659892 0.378718129
vt 0.996093750 0.357421875
vt 0.996093750 0.378718129
vt 0.853062705 0.344230733
vt 0.707031250 0.344230733
vt 0.707031250 0.341796875
vt 0.853062705 0.344230733
vt 0.707031250 0.341796875
vt 0.853062705 0.341796875
vt 0.476562500 0.357421875
vt 0.476562500 0.378718129
vt 0.330531045 0.378718129
vt 0.476562500 0.357421875
vt 0.330531045 0.378718129
vt 0.330531045 0.357421875
vt 0.892578125 0.804610823
vt 0.892578125 0.701171875
vt 0.983847785 0.701171875
vt 0.892578125 0.804610823
vt 0.983847785 0.701171875
vt 0.983847785 0.804610823
vt 0.693359375 0.701171875
vt 0.784629035 0.701171875
vt 0.784629035 0.810695467
vt 0.693359375 0.701171875
vt 0.784629035 0.810695467
vt 0.693359375 0.810695467
vt 0.470703125 0.701171875
vt 0.574142073 0.701171875
vt 0.574142073 0.810695467
vt 0.470703125 0.701171875
vt 0.574142073 0.810695467
vt 0.470703125 0.810695467
vt 0.884238410 0.810695467
vt 0.792968750 0.810695467
vt 0.792968750 0.701171875
vt 0.884238410 0.810695467
vt 0.792968750 0.701171875
vt 0.884238410 0.701171875
vt 0.685470198 0.810695467
vt 0.582031250 0.810695467
vt 0.582031250 0.701171875
vt 0.685470198 0.810695467
vt 0.582031250 0.701171875
vt 0.685470198 0.701171875
vt 0.107421875 0.832031250
vt 0.107421875 0.923300910
vt 0.003982927 0.923300910
vt 0.107421875 0.832031250
vt 0.003982927 0.923300910
vt 0.003982927 0.832031250
vt 0.484451677 0.357421875
vt 0.587890625 0.357421875
vt 0.587890625 0.371112324
vt 0.484451677 0.357421875
vt 0.587890625 0.371112324
vt 0.484451677 0.371112324
vt 0.890625000 0.832031250
vt 0.890625000 0.845721699
vt 0.888191142 0.845721699
vt 0.890625000 0.832031250
vt 0.888191142 0.845721699
vt 0.888191142 0.832031250
vt 0.861328125 0.341796875
vt 0.964767073 0.341796875
vt 0.964767073 0.344230733
vt 0.861328125 0.341796875
vt 0.964767073 0.344230733
vt 0.861328125 0.344230733
vt 0.899909892 0.845721699
vt 0.899909892 0.832031250
vt 0.902343750 0.832031250
vt 0.899909892 0.845721699
vt 0.902343750 0.832031250
vt 0.902343750 0.845721699
vt 0.993659892 0.804610823
vt 0.993659892 0.701171875
vt 0.996093750 0.701171875
vt 0.993659892 0.804610823
vt 0.996093750 0.701171875
vt 0.996093750 0.804610823
vt 0.699218750 0.357421875
vt 0.699218750 0.371112324
vt 0.595779802 0.371112324
vt 0.699218750 0.357421875
vt 0.595779802 0.371112324
vt 0.595779802 0.357421875
f 1/1/1 2/2/2 3/3/3
f 4/4/4 5/5/5 6/6/6
f 7/7/7 8/8/8 9/9/9
f 10/10/10 11/11/11 12/12/12
f 13/13/13 14/14/14 15/15/15
f 16/16/16 17/17/17 18/18/18
f 19/19/19 20/20/20 21/21/21
f 22/22/22 23/23/23 24/24/24
f 25/25/25 26/26/26 27/27/27
f 28/28/28 29/29/29 30/30/30
f 31/31/31 32/32/32 33/33/33
f 34/34/34 35/35/35 36/36/36
f 37/37/37 38/38/38 39/39/39
f 40/40/40 41/41/41 42/42/42
f 43/43/43 44/44/44 45/45/45
f 46/46/46 47/47/47 48/48/48
f 49/49/49 50/50/50 51/51/51
f 52/52/52 53/53/53 54/54/54
f 55/55/55 56/56/56 57/57/57
f 58/58/58 59/59/59 60/60/60
f 61/61/61 62/62/62 63/63/63
f 64/64/64 65/65/65 66/66/66
f 67/67/67 68/68/68 69/69/69
f 70/70/70 71/71/71 72/72/72
f 73/73/73 74/74/74 75/75/75
f 76/76/76 77/77/77 78/78/78
f 79/79/79 80/80/80 81/81/81
f 82/82/82 83/83/83 84/84/84
f 85/85/85 86/86/86 87/87/87
f 88/88/88 89/89/89 90/90/90
f 91/91/91 92/92/92 93/93/93
f 94/94/94 95/95/95 96/96/96
f 97/97/97 98/98/98 99/99/99
f 100/100/100 101/101/101 102/102/102
f 103/103/103 104/104/104 105/105/105
f 106/106/106 107/107/107 108/108/108
f 109/109/109 110/110/110 111/111/111
f 112/112/112 113/113/113 114/114/114
f 115/115/115 116/116/116 117/117/117
f 118/118/118 119/119/119 120/120/120
f 121/121/121 122/122/122 123/123/123
f 124/124/124 125/125/125 126/126/126
f 127/127/127 128/128/128 129/129/129
f 130/130/130 131/131/131 132/132/132
f 133/133/133 134/134/134 135/135/135
f 136/136/136 137/137/137 138/138/138
f 139/139/139 140/140/140 141/141/141
f 142/142/142 143/143/143 144/144/144
f 145/145/145 146/146/146 147/147/147
f 148/148/148 149/149/149 150/150/150
f 151/151/151 152/152/152 153/153/153
f 154/154/154 155/155/155 156/156/156
f 157/157/157 158/158/158 159/159/159
f 160/160/160 161/161/161 162/162/162
f 163/163/163 164/164/164 165/165/165
f 166/166/166 167/167/167 168/168/168
f 169/169/169 170/170/170 171/171/171
f 172/172/172 173/173/173 174/174/174
f 175/175/175 176/176/176 177/177/177
f 178/178/178 179/179/179 180/180/180
f 181/181/181 182/182/182 183/183/183
f 184/184/184 185/185/185 186/186/186
f 187/187/187 188/188/188 189/189/189
f 190/190/190 191/191/191 192/192/192
f 193/193/193 194/194/194 195/195/195
f 196/196/196 197/197/197 198/198/198
f 199/199/199 200/200/200 201/201/201
f 202/202/202 203/203/203 204/204/204
f 205/205/205 206/206/206 207/207/207
f 208/208/208 209/209/209 210/210/210
f 211/211/211 212/212/212 213/213/213
f 214/214/214 215/215/215 216/216/216
f 217/217/217 218/218/218 219/219/219
f 220/220/220 221/221/221 222/222/222
f 223/223/223 224/224/224 225/225/225
f 226/226/226 227/227/227 228/228/228
f 229/229/229 230/230/230 231/231/231
f 232/232/232 233/233/233 234/234/234
f 235/235/235 236/236/236 237/237/237
f 238/238/238 239/239/239 240/240/240
f 241/241/241 242/242/242 243/243/243
f 244/244/244 245/245/245 246/246/246
f 247/247/247 248/248/248 249/249/249
f 250/250/250 251/251/251 252/252/252
f 253/253/253 254/254/254 255/255/255
f 256/256/256 257/257/257 258/258/258
f 259/259/259 260/260/260 261/261/261
f 262/262/262 263/263/263 264/264/264
f 265/265/265 266/266/266 267/267/267
f 268/268/268 269/269/269 270/270/270
f 271/271/271 272/272/272 273/273/273
f 274/274/274 275/275/275 276/276/276
f 277/277/277 278/278/278 279/279/279
f 280/280/280 281/281/281 282/282/282
f 283/283/283 284/284/284 285/285/285
f 286/286/286 287/287/287 288/288/288
f 289/289/289 290/290/290 291/291/291
f 292/292/292 293/293/293 294/294/294
f 295/295/295 296/296/296 297/297/297
f 298/298/298 299/299/299 300/300/300
f 301/301/301 302/302/302 303/303/303
f 304/304/304 305/305/305 306/306/306
f 307/307/307 308/308/308 309/309/309
f 310/310/310 311/311/311 312/312/312
f 313/313/313 314/314/314 315/315/315
f 316/316/316 317/317/317 318/318/318
f 319/319/319 320/320/320 321/321/321
f 322/322/322 323/323/323 324/324/324
f 325/325/325 326/326/326 327/327/327
f 328/328/328 329/329/329 330/330/330
f 331/331/331 332/332/332 333/333/333
f 334/334/334 335/335/335 336/336/336
f 337/337/337 338/338/338 339/339/339
f 340/340/340 341/341/341 342/342/342
f 343/343/343 344/344/344 345/345/345
f 346/346/346 347/347/347 348/348/348
f 349/349/349 350/350/350 351/351/351
f 352/352/352 353/353/353 354/354/354
f 355/355/355 356/356/356 357/357/357
f 358/358/358 359/359/359 360/360/360
f 361/361/361 362/362/362 363/363/363
f 364/364/364 365/365/365 366/366/366
f 367/367/367 368/368/368 369/369/369
f 370/370/370 371/371/371 372/372/372
f 373/373/373 374/374/374 375/375/375
f 376/376/376 377/377/377 378/378/378
f 379/379/379 380/380/380 381/381/381
f 382/382/382 383/383/383 384/384/384
f 385/385/385 386/386/386 387/387/387
f 388/388/388 389/389/389 390/390/390
f 391/391/391 392/392/392 393/393/393
f 394/394/394 395/395/395 396/396/396
f 397/397/397 398/398/398 399/399/399
f 400/400/400 401/401/401 402/402/402
f 403/403/403 404/404/404 405/405/405
f 406/406/406 407/407/407 408/408/408
f 409/409/409 410/410/410 411/411/411
f 412/412/412 413/413/413 414/414/414
f 415/415/415 416/416/416 417/417/417
f 418/418/418 419/419/419 420/420/420
f 421/421/421 422/422/422 423/423/423
f 424/424/424 425/425/425 426/426/426
f 427/427/427 428/428/428 429/429/429
f 430/430/430 431/431/431 432/432/432
f 433/433/433 434/434/434 435/435/435
f 436/436/436 437/437/437 438/438/438
f 439/439/439 440/440/440 441/441/441
f 442/442/442 443/443/443 444/444/444
f 445/445/445 446/446/446 447/447/447
f 448/448/448 449/449/449 450/450/450
f 451/451/451 452/452/452 453/453/453
f 454/454/454 455/455/455 456/456/456
f 457/457/457 458/458/458 459/459/459
f 460/460/460 461/461/461 462/462/462
f 463/463/463 464/464/464 465/465/465
f 466/466/466 467/467/467 468/468/468
f 469/469/469 470/470/470 471/471/471
f 472/472/472 473/473/473 474/474/474
f 475/475/475 476/476/476 477/477/477
f 478/478/478 479/479/479 480/480/480
f 481/481/481 482/482/482 483/483/483
f 484/484/484 485/485/485 486/486/486
f 487/487/487 488/488/488 489/489/489
f 490/490/490 491/491/491 492/492/492
f 493/493/493 494/494/494 495/495/495
f 496/496/496 497/497/497 498/498/498
f 499/499/499 500/500/500 501/501/501
f 502/502/502 503/503/503 504/504/504
f 505/505/505 506/506/506 507/507/507
f 508/508/508 509/509/509 510/510/510
f 511/511/511 512/512/512 513/513/513
f 514/514/514 515/515/515 516/516/516
f 517/517/517 518/518/518 519/519/519
f 520/520/520 521/521/521 522/522/522
f 523/523/523 524/524/524 525/525/525
f 526/526/526 527/527/527 528/528/528
f 529/529/529 530/530/530 531/531/531
f 532/532/532 533/533/533 534/534/534
f 535/535/535 536/536/536 537/537/537
f 538/538/538 539/539/539 540/540/540
f 541/541/541 542/542/542 543/543/543
f 544/544/544 545/545/545 546/546/546
f 547/547/547 548/548/548 549/549/549
f 550/550/550 551/551/551 552/552/552
f 553/553/553 554/554/554 555/555/555
f 556/556/556 557/557/557 558/558/558
