# G012: only triangles proven strictly inside another closed opaque box removed.
mtllib ../Materials/contents_books_misc_01_50.mtl
v 0.10500000 0.20000000 1.58000000
v 0.10500000 0.40000000 1.58000000
v 0.33500000 0.40000000 1.58000000
v 0.10500000 0.20000000 1.58000000
v 0.33500000 0.40000000 1.58000000
v 0.33500000 0.20000000 1.58000000
v 0.10500000 0.20000000 1.58000000
v 0.33500000 0.20000000 1.58000000
v 0.33500000 0.20000000 1.97000000
v 0.10500000 0.20000000 1.58000000
v 0.33500000 0.20000000 1.97000000
v 0.10500000 0.20000000 1.97000000
v 0.33500000 0.20000000 1.58000000
v 0.33500000 0.40000000 1.58000000
v 0.33500000 0.40000000 1.97000000
v 0.33500000 0.20000000 1.58000000
v 0.33500000 0.40000000 1.97000000
v 0.33500000 0.20000000 1.97000000
v 0.33500000 0.40000000 1.58000000
v 0.10500000 0.40000000 1.58000000
v 0.10500000 0.40000000 1.97000000
v 0.33500000 0.40000000 1.58000000
v 0.10500000 0.40000000 1.97000000
v 0.33500000 0.40000000 1.97000000
v 0.10500000 0.40000000 1.58000000
v 0.10500000 0.20000000 1.58000000
v 0.10500000 0.20000000 1.97000000
v 0.10500000 0.40000000 1.58000000
v 0.10500000 0.20000000 1.97000000
v 0.10500000 0.40000000 1.97000000
v 0.10500000 0.20000000 1.97000000
v 0.33500000 0.20000000 1.97000000
v 0.33500000 0.40000000 1.97000000
v 0.10500000 0.20000000 1.97000000
v 0.33500000 0.40000000 1.97000000
v 0.10500000 0.40000000 1.97000000
v 0.09300000 0.24000000 1.58000000
v 0.07747700 0.27747700 1.58000000
v 0.07747700 0.27747700 1.80000000
v 0.09300000 0.24000000 1.58000000
v 0.07747700 0.27747700 1.80000000
v 0.09300000 0.24000000 1.80000000
v 0.07747700 0.27747700 1.58000000
v 0.04000000 0.29300000 1.58000000
v 0.04000000 0.29300000 1.80000000
v 0.07747700 0.27747700 1.58000000
v 0.04000000 0.29300000 1.80000000
v 0.07747700 0.27747700 1.80000000
v 0.04000000 0.29300000 1.58000000
v 0.00252300 0.27747700 1.58000000
v 0.00252300 0.27747700 1.80000000
v 0.04000000 0.29300000 1.58000000
v 0.00252300 0.27747700 1.80000000
v 0.04000000 0.29300000 1.80000000
v 0.00252300 0.27747700 1.58000000
v -0.01300000 0.24000000 1.58000000
v -0.01300000 0.24000000 1.80000000
v 0.00252300 0.27747700 1.58000000
v -0.01300000 0.24000000 1.80000000
v 0.00252300 0.27747700 1.80000000
v -0.01300000 0.24000000 1.58000000
v 0.00252300 0.20252300 1.58000000
v 0.00252300 0.20252300 1.80000000
v -0.01300000 0.24000000 1.58000000
v 0.00252300 0.20252300 1.80000000
v -0.01300000 0.24000000 1.80000000
v 0.00252300 0.20252300 1.58000000
v 0.04000000 0.18700000 1.58000000
v 0.04000000 0.18700000 1.80000000
v 0.00252300 0.20252300 1.58000000
v 0.04000000 0.18700000 1.80000000
v 0.00252300 0.20252300 1.80000000
v 0.04000000 0.18700000 1.58000000
v 0.07747700 0.20252300 1.58000000
v 0.07747700 0.20252300 1.80000000
v 0.04000000 0.18700000 1.58000000
v 0.07747700 0.20252300 1.80000000
v 0.04000000 0.18700000 1.80000000
v 0.07747700 0.20252300 1.58000000
v 0.09300000 0.24000000 1.58000000
v 0.09300000 0.24000000 1.80000000
v 0.07747700 0.20252300 1.58000000
v 0.09300000 0.24000000 1.80000000
v 0.07747700 0.20252300 1.80000000
v 0.07747700 0.27747700 1.58000000
v 0.09300000 0.24000000 1.58000000
v 0.04000000 0.24000000 1.58000000
v 0.04000000 0.29300000 1.58000000
v 0.07747700 0.27747700 1.58000000
v 0.04000000 0.24000000 1.58000000
v 0.00252300 0.27747700 1.58000000
v 0.04000000 0.29300000 1.58000000
v 0.04000000 0.24000000 1.58000000
v -0.01300000 0.24000000 1.58000000
v 0.00252300 0.27747700 1.58000000
v 0.04000000 0.24000000 1.58000000
v 0.00252300 0.20252300 1.58000000
v -0.01300000 0.24000000 1.58000000
v 0.04000000 0.24000000 1.58000000
v 0.04000000 0.18700000 1.58000000
v 0.00252300 0.20252300 1.58000000
v 0.04000000 0.24000000 1.58000000
v 0.07747700 0.20252300 1.58000000
v 0.04000000 0.18700000 1.58000000
v 0.04000000 0.24000000 1.58000000
v 0.09300000 0.24000000 1.58000000
v 0.07747700 0.20252300 1.58000000
v 0.04000000 0.24000000 1.58000000
v 0.04000000 0.24000000 1.80000000
v 0.09300000 0.24000000 1.80000000
v 0.07747700 0.27747700 1.80000000
v 0.04000000 0.24000000 1.80000000
v 0.07747700 0.27747700 1.80000000
v 0.04000000 0.29300000 1.80000000
v 0.04000000 0.24000000 1.80000000
v 0.04000000 0.29300000 1.80000000
v 0.00252300 0.27747700 1.80000000
v 0.04000000 0.24000000 1.80000000
v 0.00252300 0.27747700 1.80000000
v -0.01300000 0.24000000 1.80000000
v 0.04000000 0.24000000 1.80000000
v -0.01300000 0.24000000 1.80000000
v 0.00252300 0.20252300 1.80000000
v 0.04000000 0.24000000 1.80000000
v 0.00252300 0.20252300 1.80000000
v 0.04000000 0.18700000 1.80000000
v 0.04000000 0.24000000 1.80000000
v 0.04000000 0.18700000 1.80000000
v 0.07747700 0.20252300 1.80000000
v 0.04000000 0.24000000 1.80000000
v 0.07747700 0.20252300 1.80000000
v 0.09300000 0.24000000 1.80000000
v 0.01244000 0.18600000 1.63940000
v 0.01244000 0.19100000 1.63940000
v 0.06756000 0.19100000 1.63940000
v 0.01244000 0.18600000 1.63940000
v 0.06756000 0.19100000 1.63940000
v 0.06756000 0.18600000 1.63940000
v 0.01244000 0.18600000 1.63940000
v 0.06756000 0.18600000 1.63940000
v 0.06756000 0.18600000 1.72300000
v 0.01244000 0.18600000 1.63940000
v 0.06756000 0.18600000 1.72300000
v 0.01244000 0.18600000 1.72300000
v 0.06756000 0.18600000 1.63940000
v 0.06756000 0.19100000 1.63940000
v 0.06756000 0.19100000 1.72300000
v 0.06756000 0.18600000 1.63940000
v 0.06756000 0.19100000 1.72300000
v 0.06756000 0.18600000 1.72300000
v 0.06756000 0.19100000 1.63940000
v 0.01244000 0.19100000 1.63940000
v 0.01244000 0.19100000 1.72300000
v 0.06756000 0.19100000 1.63940000
v 0.01244000 0.19100000 1.72300000
v 0.06756000 0.19100000 1.72300000
v 0.01244000 0.19100000 1.63940000
v 0.01244000 0.18600000 1.63940000
v 0.01244000 0.18600000 1.72300000
v 0.01244000 0.19100000 1.63940000
v 0.01244000 0.18600000 1.72300000
v 0.01244000 0.19100000 1.72300000
v 0.01244000 0.18600000 1.72300000
v 0.06756000 0.18600000 1.72300000
v 0.06756000 0.19100000 1.72300000
v 0.01244000 0.18600000 1.72300000
v 0.06756000 0.19100000 1.72300000
v 0.01244000 0.19100000 1.72300000
v -0.04100000 0.28000000 1.58000000
v -0.05535200 0.31464800 1.58000000
v -0.05535200 0.31464800 1.76000000
v -0.04100000 0.28000000 1.58000000
v -0.05535200 0.31464800 1.76000000
v -0.04100000 0.28000000 1.76000000
v -0.05535200 0.31464800 1.58000000
v -0.09000000 0.32900000 1.58000000
v -0.09000000 0.32900000 1.76000000
v -0.05535200 0.31464800 1.58000000
v -0.09000000 0.32900000 1.76000000
v -0.05535200 0.31464800 1.76000000
v -0.09000000 0.32900000 1.58000000
v -0.12464800 0.31464800 1.58000000
v -0.12464800 0.31464800 1.76000000
v -0.09000000 0.32900000 1.58000000
v -0.12464800 0.31464800 1.76000000
v -0.09000000 0.32900000 1.76000000
v -0.12464800 0.31464800 1.58000000
v -0.13900000 0.28000000 1.58000000
v -0.13900000 0.28000000 1.76000000
v -0.12464800 0.31464800 1.58000000
v -0.13900000 0.28000000 1.76000000
v -0.12464800 0.31464800 1.76000000
v -0.13900000 0.28000000 1.58000000
v -0.12464800 0.24535200 1.58000000
v -0.12464800 0.24535200 1.76000000
v -0.13900000 0.28000000 1.58000000
v -0.12464800 0.24535200 1.76000000
v -0.13900000 0.28000000 1.76000000
v -0.12464800 0.24535200 1.58000000
v -0.09000000 0.23100000 1.58000000
v -0.09000000 0.23100000 1.76000000
v -0.12464800 0.24535200 1.58000000
v -0.09000000 0.23100000 1.76000000
v -0.12464800 0.24535200 1.76000000
v -0.09000000 0.23100000 1.58000000
v -0.05535200 0.24535200 1.58000000
v -0.05535200 0.24535200 1.76000000
v -0.09000000 0.23100000 1.58000000
v -0.05535200 0.24535200 1.76000000
v -0.09000000 0.23100000 1.76000000
v -0.05535200 0.24535200 1.58000000
v -0.04100000 0.28000000 1.58000000
v -0.04100000 0.28000000 1.76000000
v -0.05535200 0.24535200 1.58000000
v -0.04100000 0.28000000 1.76000000
v -0.05535200 0.24535200 1.76000000
v -0.05535200 0.31464800 1.58000000
v -0.04100000 0.28000000 1.58000000
v -0.09000000 0.28000000 1.58000000
v -0.09000000 0.32900000 1.58000000
v -0.05535200 0.31464800 1.58000000
v -0.09000000 0.28000000 1.58000000
v -0.12464800 0.31464800 1.58000000
v -0.09000000 0.32900000 1.58000000
v -0.09000000 0.28000000 1.58000000
v -0.13900000 0.28000000 1.58000000
v -0.12464800 0.31464800 1.58000000
v -0.09000000 0.28000000 1.58000000
v -0.12464800 0.24535200 1.58000000
v -0.13900000 0.28000000 1.58000000
v -0.09000000 0.28000000 1.58000000
v -0.09000000 0.23100000 1.58000000
v -0.12464800 0.24535200 1.58000000
v -0.09000000 0.28000000 1.58000000
v -0.05535200 0.24535200 1.58000000
v -0.09000000 0.23100000 1.58000000
v -0.09000000 0.28000000 1.58000000
v -0.04100000 0.28000000 1.58000000
v -0.05535200 0.24535200 1.58000000
v -0.09000000 0.28000000 1.58000000
v -0.09000000 0.28000000 1.76000000
v -0.04100000 0.28000000 1.76000000
v -0.05535200 0.31464800 1.76000000
v -0.09000000 0.28000000 1.76000000
v -0.05535200 0.31464800 1.76000000
v -0.09000000 0.32900000 1.76000000
v -0.09000000 0.28000000 1.76000000
v -0.09000000 0.32900000 1.76000000
v -0.12464800 0.31464800 1.76000000
v -0.09000000 0.28000000 1.76000000
v -0.12464800 0.31464800 1.76000000
v -0.13900000 0.28000000 1.76000000
v -0.09000000 0.28000000 1.76000000
v -0.13900000 0.28000000 1.76000000
v -0.12464800 0.24535200 1.76000000
v -0.09000000 0.28000000 1.76000000
v -0.12464800 0.24535200 1.76000000
v -0.09000000 0.23100000 1.76000000
v -0.09000000 0.28000000 1.76000000
v -0.09000000 0.23100000 1.76000000
v -0.05535200 0.24535200 1.76000000
v -0.09000000 0.28000000 1.76000000
v -0.05535200 0.24535200 1.76000000
v -0.04100000 0.28000000 1.76000000
v -0.11548000 0.23000000 1.62860000
v -0.11548000 0.23500000 1.62860000
v -0.06452000 0.23500000 1.62860000
v -0.11548000 0.23000000 1.62860000
v -0.06452000 0.23500000 1.62860000
v -0.06452000 0.23000000 1.62860000
v -0.11548000 0.23000000 1.62860000
v -0.06452000 0.23000000 1.62860000
v -0.06452000 0.23000000 1.69700000
v -0.11548000 0.23000000 1.62860000
v -0.06452000 0.23000000 1.69700000
v -0.11548000 0.23000000 1.69700000
v -0.06452000 0.23000000 1.62860000
v -0.06452000 0.23500000 1.62860000
v -0.06452000 0.23500000 1.69700000
v -0.06452000 0.23000000 1.62860000
v -0.06452000 0.23500000 1.69700000
v -0.06452000 0.23000000 1.69700000
v -0.06452000 0.23500000 1.62860000
v -0.11548000 0.23500000 1.62860000
v -0.11548000 0.23500000 1.69700000
v -0.06452000 0.23500000 1.62860000
v -0.11548000 0.23500000 1.69700000
v -0.06452000 0.23500000 1.69700000
v -0.11548000 0.23500000 1.62860000
v -0.11548000 0.23000000 1.62860000
v -0.11548000 0.23000000 1.69700000
v -0.11548000 0.23500000 1.62860000
v -0.11548000 0.23000000 1.69700000
v -0.11548000 0.23500000 1.69700000
v -0.11548000 0.23000000 1.69700000
v -0.06452000 0.23000000 1.69700000
v -0.06452000 0.23500000 1.69700000
v -0.11548000 0.23000000 1.69700000
v -0.06452000 0.23500000 1.69700000
v -0.11548000 0.23500000 1.69700000
v -0.40000000 0.12500000 1.58000000
v -0.40000000 0.35500000 1.58000000
v -0.18000000 0.35500000 1.58000000
v -0.40000000 0.12500000 1.58000000
v -0.18000000 0.35500000 1.58000000
v -0.18000000 0.12500000 1.58000000
v -0.40000000 0.12500000 1.58000000
v -0.18000000 0.12500000 1.58000000
v -0.18000000 0.12500000 1.80000000
v -0.40000000 0.12500000 1.58000000
v -0.18000000 0.12500000 1.80000000
v -0.40000000 0.12500000 1.80000000
v -0.18000000 0.12500000 1.58000000
v -0.18000000 0.35500000 1.58000000
v -0.18000000 0.35500000 1.80000000
v -0.18000000 0.12500000 1.58000000
v -0.18000000 0.35500000 1.80000000
v -0.18000000 0.12500000 1.80000000
v -0.18000000 0.35500000 1.58000000
v -0.40000000 0.35500000 1.58000000
v -0.40000000 0.35500000 1.80000000
v -0.18000000 0.35500000 1.58000000
v -0.40000000 0.35500000 1.80000000
v -0.18000000 0.35500000 1.80000000
v -0.40000000 0.35500000 1.58000000
v -0.40000000 0.12500000 1.58000000
v -0.40000000 0.12500000 1.80000000
v -0.40000000 0.35500000 1.58000000
v -0.40000000 0.12500000 1.80000000
v -0.40000000 0.35500000 1.80000000
v -0.40000000 0.12500000 1.80000000
v -0.18000000 0.12500000 1.80000000
v -0.18000000 0.35500000 1.80000000
v -0.40000000 0.12500000 1.80000000
v -0.18000000 0.35500000 1.80000000
v -0.40000000 0.35500000 1.80000000
v -0.30650000 0.12500000 1.80000000
v -0.30650000 0.35500000 1.80000000
v -0.27350000 0.35500000 1.80000000
v -0.30650000 0.12500000 1.80000000
v -0.27350000 0.35500000 1.80000000
v -0.27350000 0.12500000 1.80000000
v -0.30650000 0.12500000 1.80000000
v -0.27350000 0.12500000 1.80000000
v -0.27350000 0.12500000 1.80400000
v -0.30650000 0.12500000 1.80000000
v -0.27350000 0.12500000 1.80400000
v -0.30650000 0.12500000 1.80400000
v -0.27350000 0.12500000 1.80000000
v -0.27350000 0.35500000 1.80000000
v -0.27350000 0.35500000 1.80400000
v -0.27350000 0.12500000 1.80000000
v -0.27350000 0.35500000 1.80400000
v -0.27350000 0.12500000 1.80400000
v -0.27350000 0.35500000 1.80000000
v -0.30650000 0.35500000 1.80000000
v -0.30650000 0.35500000 1.80400000
v -0.27350000 0.35500000 1.80000000
v -0.30650000 0.35500000 1.80400000
v -0.27350000 0.35500000 1.80400000
v -0.30650000 0.35500000 1.80000000
v -0.30650000 0.12500000 1.80000000
v -0.30650000 0.12500000 1.80400000
v -0.30650000 0.35500000 1.80000000
v -0.30650000 0.12500000 1.80400000
v -0.30650000 0.35500000 1.80400000
v -0.30650000 0.12500000 1.80400000
v -0.27350000 0.12500000 1.80400000
v -0.27350000 0.35500000 1.80400000
v -0.30650000 0.12500000 1.80400000
v -0.27350000 0.35500000 1.80400000
v -0.30650000 0.35500000 1.80400000
v 0.08500000 0.15000000 0.86000000
v 0.08500000 0.41000000 0.86000000
v 0.37500000 0.41000000 0.86000000
v 0.08500000 0.15000000 0.86000000
v 0.37500000 0.41000000 0.86000000
v 0.37500000 0.15000000 0.86000000
v 0.08500000 0.15000000 0.86000000
v 0.37500000 0.15000000 0.86000000
v 0.37500000 0.15000000 1.16000000
v 0.08500000 0.15000000 0.86000000
v 0.37500000 0.15000000 1.16000000
v 0.08500000 0.15000000 1.16000000
v 0.37500000 0.15000000 0.86000000
v 0.37500000 0.41000000 0.86000000
v 0.37500000 0.41000000 1.16000000
v 0.37500000 0.15000000 0.86000000
v 0.37500000 0.41000000 1.16000000
v 0.37500000 0.15000000 1.16000000
v 0.37500000 0.41000000 0.86000000
v 0.08500000 0.41000000 0.86000000
v 0.08500000 0.41000000 1.16000000
v 0.37500000 0.41000000 0.86000000
v 0.08500000 0.41000000 1.16000000
v 0.37500000 0.41000000 1.16000000
v 0.08500000 0.41000000 0.86000000
v 0.08500000 0.15000000 0.86000000
v 0.08500000 0.15000000 1.16000000
v 0.08500000 0.41000000 0.86000000
v 0.08500000 0.15000000 1.16000000
v 0.08500000 0.41000000 1.16000000
v 0.08500000 0.15000000 1.16000000
v 0.37500000 0.15000000 1.16000000
v 0.37500000 0.41000000 1.16000000
v 0.08500000 0.15000000 1.16000000
v 0.37500000 0.41000000 1.16000000
v 0.08500000 0.41000000 1.16000000
v 0.21250000 0.15000000 1.16000000
v 0.21250000 0.41000000 1.16000000
v 0.24750000 0.41000000 1.16000000
v 0.21250000 0.15000000 1.16000000
v 0.24750000 0.41000000 1.16000000
v 0.24750000 0.15000000 1.16000000
v 0.21250000 0.15000000 1.16000000
v 0.24750000 0.15000000 1.16000000
v 0.24750000 0.15000000 1.16400000
v 0.21250000 0.15000000 1.16000000
v 0.24750000 0.15000000 1.16400000
v 0.21250000 0.15000000 1.16400000
v 0.24750000 0.15000000 1.16000000
v 0.24750000 0.41000000 1.16000000
v 0.24750000 0.41000000 1.16400000
v 0.24750000 0.15000000 1.16000000
v 0.24750000 0.41000000 1.16400000
v 0.24750000 0.15000000 1.16400000
v 0.24750000 0.41000000 1.16000000
v 0.21250000 0.41000000 1.16000000
v 0.21250000 0.41000000 1.16400000
v 0.24750000 0.41000000 1.16000000
v 0.21250000 0.41000000 1.16400000
v 0.24750000 0.41000000 1.16400000
v 0.21250000 0.41000000 1.16000000
v 0.21250000 0.15000000 1.16000000
v 0.21250000 0.15000000 1.16400000
v 0.21250000 0.41000000 1.16000000
v 0.21250000 0.15000000 1.16400000
v 0.21250000 0.41000000 1.16400000
v 0.21250000 0.15000000 1.16400000
v 0.24750000 0.15000000 1.16400000
v 0.24750000 0.41000000 1.16400000
v 0.21250000 0.15000000 1.16400000
v 0.24750000 0.41000000 1.16400000
v 0.21250000 0.41000000 1.16400000
v -0.24000000 0.18000000 0.86000000
v -0.24000000 0.38000000 0.86000000
v 0.04000000 0.38000000 0.86000000
v -0.24000000 0.18000000 0.86000000
v 0.04000000 0.38000000 0.86000000
v 0.04000000 0.18000000 0.86000000
v -0.24000000 0.18000000 0.86000000
v 0.04000000 0.18000000 0.86000000
v 0.04000000 0.18000000 0.96400000
v -0.24000000 0.18000000 0.86000000
v 0.04000000 0.18000000 0.96400000
v -0.24000000 0.18000000 0.96400000
v 0.04000000 0.18000000 0.86000000
v 0.04000000 0.38000000 0.86000000
v 0.04000000 0.38000000 0.96400000
v 0.04000000 0.18000000 0.86000000
v 0.04000000 0.38000000 0.96400000
v 0.04000000 0.18000000 0.96400000
v 0.04000000 0.38000000 0.86000000
v -0.24000000 0.38000000 0.86000000
v -0.24000000 0.38000000 0.96400000
v 0.04000000 0.38000000 0.86000000
v -0.24000000 0.38000000 0.96400000
v 0.04000000 0.38000000 0.96400000
v -0.24000000 0.38000000 0.86000000
v -0.24000000 0.18000000 0.86000000
v -0.24000000 0.18000000 0.96400000
v -0.24000000 0.38000000 0.86000000
v -0.24000000 0.18000000 0.96400000
v -0.24000000 0.38000000 0.96400000
v -0.24000000 0.18000000 0.96400000
v 0.04000000 0.18000000 0.96400000
v 0.04000000 0.38000000 0.96400000
v -0.24000000 0.18000000 0.96400000
v 0.04000000 0.38000000 0.96400000
v -0.24000000 0.38000000 0.96400000
v -0.24400000 0.17600000 0.96400000
v -0.24400000 0.38400000 0.96400000
v 0.04400000 0.38400000 0.96400000
v -0.24400000 0.17600000 0.96400000
v 0.04400000 0.38400000 0.96400000
v 0.04400000 0.17600000 0.96400000
v -0.24400000 0.17600000 0.96400000
v 0.04400000 0.17600000 0.96400000
v 0.04400000 0.17600000 0.99000000
v -0.24400000 0.17600000 0.96400000
v 0.04400000 0.17600000 0.99000000
v -0.24400000 0.17600000 0.99000000
v 0.04400000 0.17600000 0.96400000
v 0.04400000 0.38400000 0.96400000
v 0.04400000 0.38400000 0.99000000
v 0.04400000 0.17600000 0.96400000
v 0.04400000 0.38400000 0.99000000
v 0.04400000 0.17600000 0.99000000
v 0.04400000 0.38400000 0.96400000
v -0.24400000 0.38400000 0.96400000
v -0.24400000 0.38400000 0.99000000
v 0.04400000 0.38400000 0.96400000
v -0.24400000 0.38400000 0.99000000
v 0.04400000 0.38400000 0.99000000
v -0.24400000 0.38400000 0.96400000
v -0.24400000 0.17600000 0.96400000
v -0.24400000 0.17600000 0.99000000
v -0.24400000 0.38400000 0.96400000
v -0.24400000 0.17600000 0.99000000
v -0.24400000 0.38400000 0.99000000
v -0.24400000 0.17600000 0.99000000
v 0.04400000 0.17600000 0.99000000
v 0.04400000 0.38400000 0.99000000
v -0.24400000 0.17600000 0.99000000
v 0.04400000 0.38400000 0.99000000
v -0.24400000 0.38400000 0.99000000
v -0.24000000 0.17700000 0.95880000
v -0.24000000 0.18100000 0.95880000
v 0.04000000 0.18100000 0.95880000
v -0.24000000 0.17700000 0.95880000
v 0.04000000 0.18100000 0.95880000
v 0.04000000 0.17700000 0.95880000
v -0.24000000 0.17700000 0.95880000
v 0.04000000 0.17700000 0.95880000
v 0.04000000 0.17700000 0.96530000
v -0.24000000 0.17700000 0.95880000
v 0.04000000 0.17700000 0.96530000
v -0.24000000 0.17700000 0.96530000
v 0.04000000 0.17700000 0.95880000
v 0.04000000 0.18100000 0.95880000
v 0.04000000 0.18100000 0.96530000
v 0.04000000 0.17700000 0.95880000
v 0.04000000 0.18100000 0.96530000
v 0.04000000 0.17700000 0.96530000
v 0.04000000 0.18100000 0.95880000
v -0.24000000 0.18100000 0.95880000
v -0.24000000 0.18100000 0.96530000
v 0.04000000 0.18100000 0.95880000
v -0.24000000 0.18100000 0.96530000
v 0.04000000 0.18100000 0.96530000
v -0.24000000 0.18100000 0.95880000
v -0.24000000 0.17700000 0.95880000
v -0.24000000 0.17700000 0.96530000
v -0.24000000 0.18100000 0.95880000
v -0.24000000 0.17700000 0.96530000
v -0.24000000 0.18100000 0.96530000
v -0.15100000 0.27000000 0.99000000
v -0.15100000 0.29000000 0.99000000
v -0.13300000 0.29000000 0.99000000
v -0.15100000 0.27000000 0.99000000
v -0.13300000 0.29000000 0.99000000
v -0.13300000 0.27000000 0.99000000
v -0.15100000 0.27000000 0.99000000
v -0.13300000 0.27000000 0.99000000
v -0.13300000 0.27000000 1.01500000
v -0.15100000 0.27000000 0.99000000
v -0.13300000 0.27000000 1.01500000
v -0.15100000 0.27000000 1.01500000
v -0.13300000 0.27000000 0.99000000
v -0.13300000 0.29000000 0.99000000
v -0.13300000 0.29000000 1.01500000
v -0.13300000 0.27000000 0.99000000
v -0.13300000 0.29000000 1.01500000
v -0.13300000 0.27000000 1.01500000
v -0.13300000 0.29000000 0.99000000
v -0.15100000 0.29000000 0.99000000
v -0.15100000 0.29000000 1.01500000
v -0.13300000 0.29000000 0.99000000
v -0.15100000 0.29000000 1.01500000
v -0.13300000 0.29000000 1.01500000
v -0.15100000 0.29000000 0.99000000
v -0.15100000 0.27000000 0.99000000
v -0.15100000 0.27000000 1.01500000
v -0.15100000 0.29000000 0.99000000
v -0.15100000 0.27000000 1.01500000
v -0.15100000 0.29000000 1.01500000
v -0.15100000 0.27000000 1.01500000
v -0.13300000 0.27000000 1.01500000
v -0.13300000 0.29000000 1.01500000
v -0.15100000 0.27000000 1.01500000
v -0.13300000 0.29000000 1.01500000
v -0.15100000 0.29000000 1.01500000
v -0.06700000 0.27000000 0.99000000
v -0.06700000 0.29000000 0.99000000
v -0.04900000 0.29000000 0.99000000
v -0.06700000 0.27000000 0.99000000
v -0.04900000 0.29000000 0.99000000
v -0.04900000 0.27000000 0.99000000
v -0.06700000 0.27000000 0.99000000
v -0.04900000 0.27000000 0.99000000
v -0.04900000 0.27000000 1.01500000
v -0.06700000 0.27000000 0.99000000
v -0.04900000 0.27000000 1.01500000
v -0.06700000 0.27000000 1.01500000
v -0.04900000 0.27000000 0.99000000
v -0.04900000 0.29000000 0.99000000
v -0.04900000 0.29000000 1.01500000
v -0.04900000 0.27000000 0.99000000
v -0.04900000 0.29000000 1.01500000
v -0.04900000 0.27000000 1.01500000
v -0.04900000 0.29000000 0.99000000
v -0.06700000 0.29000000 0.99000000
v -0.06700000 0.29000000 1.01500000
v -0.04900000 0.29000000 0.99000000
v -0.06700000 0.29000000 1.01500000
v -0.04900000 0.29000000 1.01500000
v -0.06700000 0.29000000 0.99000000
v -0.06700000 0.27000000 0.99000000
v -0.06700000 0.27000000 1.01500000
v -0.06700000 0.29000000 0.99000000
v -0.06700000 0.27000000 1.01500000
v -0.06700000 0.29000000 1.01500000
v -0.06700000 0.27000000 1.01500000
v -0.04900000 0.27000000 1.01500000
v -0.04900000 0.29000000 1.01500000
v -0.06700000 0.27000000 1.01500000
v -0.04900000 0.29000000 1.01500000
v -0.06700000 0.29000000 1.01500000
v -0.15100000 0.27000000 1.01500000
v -0.15100000 0.29000000 1.01500000
v -0.04900000 0.29000000 1.01500000
v -0.15100000 0.27000000 1.01500000
v -0.04900000 0.29000000 1.01500000
v -0.04900000 0.27000000 1.01500000
v -0.15100000 0.27000000 1.01500000
v -0.04900000 0.27000000 1.01500000
v -0.04900000 0.27000000 1.02800000
v -0.15100000 0.27000000 1.01500000
v -0.04900000 0.27000000 1.02800000
v -0.15100000 0.27000000 1.02800000
v -0.04900000 0.27000000 1.01500000
v -0.04900000 0.29000000 1.01500000
v -0.04900000 0.29000000 1.02800000
v -0.04900000 0.27000000 1.01500000
v -0.04900000 0.29000000 1.02800000
v -0.04900000 0.27000000 1.02800000
v -0.04900000 0.29000000 1.01500000
v -0.15100000 0.29000000 1.01500000
v -0.15100000 0.29000000 1.02800000
v -0.04900000 0.29000000 1.01500000
v -0.15100000 0.29000000 1.02800000
v -0.04900000 0.29000000 1.02800000
v -0.15100000 0.29000000 1.01500000
v -0.15100000 0.27000000 1.01500000
v -0.15100000 0.27000000 1.02800000
v -0.15100000 0.29000000 1.01500000
v -0.15100000 0.27000000 1.02800000
v -0.15100000 0.29000000 1.02800000
v -0.15100000 0.27000000 1.02800000
v -0.04900000 0.27000000 1.02800000
v -0.04900000 0.29000000 1.02800000
v -0.15100000 0.27000000 1.02800000
v -0.04900000 0.29000000 1.02800000
v -0.15100000 0.29000000 1.02800000
v -0.27900000 0.17000000 0.86000000
v -0.29393800 0.20606200 0.86000000
v -0.29393800 0.20606200 1.06000000
v -0.27900000 0.17000000 0.86000000
v -0.29393800 0.20606200 1.06000000
v -0.27900000 0.17000000 1.06000000
v -0.29393800 0.20606200 0.86000000
v -0.33000000 0.22100000 0.86000000
v -0.33000000 0.22100000 1.06000000
v -0.29393800 0.20606200 0.86000000
v -0.33000000 0.22100000 1.06000000
v -0.29393800 0.20606200 1.06000000
v -0.33000000 0.22100000 0.86000000
v -0.36606200 0.20606200 0.86000000
v -0.36606200 0.20606200 1.06000000
v -0.33000000 0.22100000 0.86000000
v -0.36606200 0.20606200 1.06000000
v -0.33000000 0.22100000 1.06000000
v -0.36606200 0.20606200 0.86000000
v -0.38100000 0.17000000 0.86000000
v -0.38100000 0.17000000 1.06000000
v -0.36606200 0.20606200 0.86000000
v -0.38100000 0.17000000 1.06000000
v -0.36606200 0.20606200 1.06000000
v -0.38100000 0.17000000 0.86000000
v -0.36606200 0.13393800 0.86000000
v -0.36606200 0.13393800 1.06000000
v -0.38100000 0.17000000 0.86000000
v -0.36606200 0.13393800 1.06000000
v -0.38100000 0.17000000 1.06000000
v -0.36606200 0.13393800 0.86000000
v -0.33000000 0.11900000 0.86000000
v -0.33000000 0.11900000 1.06000000
v -0.36606200 0.13393800 0.86000000
v -0.33000000 0.11900000 1.06000000
v -0.36606200 0.13393800 1.06000000
v -0.33000000 0.11900000 0.86000000
v -0.29393800 0.13393800 0.86000000
v -0.29393800 0.13393800 1.06000000
v -0.33000000 0.11900000 0.86000000
v -0.29393800 0.13393800 1.06000000
v -0.33000000 0.11900000 1.06000000
v -0.29393800 0.13393800 0.86000000
v -0.27900000 0.17000000 0.86000000
v -0.27900000 0.17000000 1.06000000
v -0.29393800 0.13393800 0.86000000
v -0.27900000 0.17000000 1.06000000
v -0.29393800 0.13393800 1.06000000
v -0.29393800 0.20606200 0.86000000
v -0.27900000 0.17000000 0.86000000
v -0.33000000 0.17000000 0.86000000
v -0.33000000 0.22100000 0.86000000
v -0.29393800 0.20606200 0.86000000
v -0.33000000 0.17000000 0.86000000
v -0.36606200 0.20606200 0.86000000
v -0.33000000 0.22100000 0.86000000
v -0.33000000 0.17000000 0.86000000
v -0.38100000 0.17000000 0.86000000
v -0.36606200 0.20606200 0.86000000
v -0.33000000 0.17000000 0.86000000
v -0.36606200 0.13393800 0.86000000
v -0.38100000 0.17000000 0.86000000
v -0.33000000 0.17000000 0.86000000
v -0.33000000 0.11900000 0.86000000
v -0.36606200 0.13393800 0.86000000
v -0.33000000 0.17000000 0.86000000
v -0.29393800 0.13393800 0.86000000
v -0.33000000 0.11900000 0.86000000
v -0.33000000 0.17000000 0.86000000
v -0.27900000 0.17000000 0.86000000
v -0.29393800 0.13393800 0.86000000
v -0.33000000 0.17000000 0.86000000
v -0.33000000 0.17000000 1.06000000
v -0.27900000 0.17000000 1.06000000
v -0.29393800 0.20606200 1.06000000
v -0.33000000 0.17000000 1.06000000
v -0.29393800 0.20606200 1.06000000
v -0.33000000 0.22100000 1.06000000
v -0.33000000 0.17000000 1.06000000
v -0.33000000 0.22100000 1.06000000
v -0.36606200 0.20606200 1.06000000
v -0.33000000 0.17000000 1.06000000
v -0.36606200 0.20606200 1.06000000
v -0.38100000 0.17000000 1.06000000
v -0.33000000 0.17000000 1.06000000
v -0.38100000 0.17000000 1.06000000
v -0.36606200 0.13393800 1.06000000
v -0.33000000 0.17000000 1.06000000
v -0.36606200 0.13393800 1.06000000
v -0.33000000 0.11900000 1.06000000
v -0.33000000 0.17000000 1.06000000
v -0.33000000 0.11900000 1.06000000
v -0.29393800 0.13393800 1.06000000
v -0.33000000 0.17000000 1.06000000
v -0.29393800 0.13393800 1.06000000
v -0.27900000 0.17000000 1.06000000
v -0.35652000 0.11800000 0.91400000
v -0.35652000 0.12300000 0.91400000
v -0.30348000 0.12300000 0.91400000
v -0.35652000 0.11800000 0.91400000
v -0.30348000 0.12300000 0.91400000
v -0.30348000 0.11800000 0.91400000
v -0.35652000 0.11800000 0.91400000
v -0.30348000 0.11800000 0.91400000
v -0.30348000 0.11800000 0.99000000
v -0.35652000 0.11800000 0.91400000
v -0.30348000 0.11800000 0.99000000
v -0.35652000 0.11800000 0.99000000
v -0.30348000 0.11800000 0.91400000
v -0.30348000 0.12300000 0.91400000
v -0.30348000 0.12300000 0.99000000
v -0.30348000 0.11800000 0.91400000
v -0.30348000 0.12300000 0.99000000
v -0.30348000 0.11800000 0.99000000
v -0.30348000 0.12300000 0.91400000
v -0.35652000 0.12300000 0.91400000
v -0.35652000 0.12300000 0.99000000
v -0.30348000 0.12300000 0.91400000
v -0.35652000 0.12300000 0.99000000
v -0.30348000 0.12300000 0.99000000
v -0.35652000 0.12300000 0.91400000
v -0.35652000 0.11800000 0.91400000
v -0.35652000 0.11800000 0.99000000
v -0.35652000 0.12300000 0.91400000
v -0.35652000 0.11800000 0.99000000
v -0.35652000 0.12300000 0.99000000
v -0.35652000 0.11800000 0.99000000
v -0.30348000 0.11800000 0.99000000
v -0.30348000 0.12300000 0.99000000
v -0.35652000 0.11800000 0.99000000
v -0.30348000 0.12300000 0.99000000
v -0.35652000 0.12300000 0.99000000
vn 0.00000000 0.00000000 -1.00000000
vn 0.00000000 0.00000000 -1.00000000
vn 0.00000000 0.00000000 -1.00000000
vn 0.00000000 0.00000000 -1.00000000
vn 0.00000000 0.00000000 -1.00000000
vn 0.00000000 0.00000000 -1.00000000
vn 0.00000000 -1.00000000 0.00000000
vn 0.00000000 -1.00000000 0.00000000
vn 0.00000000 -1.00000000 0.00000000
vn 0.00000000 -1.00000000 0.00000000
vn 0.00000000 -1.00000000 0.00000000
vn 0.00000000 -1.00000000 0.00000000
vn 1.00000000 0.00000000 0.00000000
vn 1.00000000 0.00000000 0.00000000
vn 1.00000000 0.00000000 0.00000000
vn 1.00000000 0.00000000 0.00000000
vn 1.00000000 0.00000000 0.00000000
vn 1.00000000 0.00000000 0.00000000
vn 0.00000000 1.00000000 0.00000000
vn 0.00000000 1.00000000 0.00000000
vn 0.00000000 1.00000000 0.00000000
vn 0.00000000 1.00000000 -0.00000000
vn 0.00000000 1.00000000 -0.00000000
vn 0.00000000 1.00000000 -0.00000000
vn -1.00000000 0.00000000 0.00000000
vn -1.00000000 0.00000000 0.00000000
vn -1.00000000 0.00000000 0.00000000
vn -1.00000000 0.00000000 0.00000000
vn -1.00000000 0.00000000 0.00000000
vn -1.00000000 0.00000000 0.00000000
vn 0.00000000 0.00000000 1.00000000
vn 0.00000000 0.00000000 1.00000000
vn 0.00000000 0.00000000 1.00000000
vn 0.00000000 0.00000000 1.00000000
vn 0.00000000 0.00000000 1.00000000
vn 0.00000000 0.00000000 1.00000000
vn 0.92388000 0.38268300 0.00000000
vn 0.92388000 0.38268300 0.00000000
vn 0.92388000 0.38268300 0.00000000
vn 0.92388000 0.38268300 -0.00000000
vn 0.92388000 0.38268300 -0.00000000
vn 0.92388000 0.38268300 -0.00000000
vn 0.38268300 0.92388000 0.00000000
vn 0.38268300 0.92388000 0.00000000
vn 0.38268300 0.92388000 0.00000000
vn 0.38268300 0.92388000 -0.00000000
vn 0.38268300 0.92388000 -0.00000000
vn 0.38268300 0.92388000 -0.00000000
vn -0.38268300 0.92388000 0.00000000
vn -0.38268300 0.92388000 0.00000000
vn -0.38268300 0.92388000 0.00000000
vn -0.38268300 0.92388000 0.00000000
vn -0.38268300 0.92388000 0.00000000
vn -0.38268300 0.92388000 0.00000000
vn -0.92388000 0.38268300 0.00000000
vn -0.92388000 0.38268300 0.00000000
vn -0.92388000 0.38268300 0.00000000
vn -0.92388000 0.38268300 0.00000000
vn -0.92388000 0.38268300 0.00000000
vn -0.92388000 0.38268300 0.00000000
vn -0.92388000 -0.38268300 0.00000000
vn -0.92388000 -0.38268300 0.00000000
vn -0.92388000 -0.38268300 0.00000000
vn -0.92388000 -0.38268300 0.00000000
vn -0.92388000 -0.38268300 0.00000000
vn -0.92388000 -0.38268300 0.00000000
vn -0.38268300 -0.92388000 0.00000000
vn -0.38268300 -0.92388000 0.00000000
vn -0.38268300 -0.92388000 0.00000000
vn -0.38268300 -0.92388000 0.00000000
vn -0.38268300 -0.92388000 0.00000000
vn -0.38268300 -0.92388000 0.00000000
vn 0.38268300 -0.92388000 0.00000000
vn 0.38268300 -0.92388000 0.00000000
vn 0.38268300 -0.92388000 0.00000000
vn 0.38268300 -0.92388000 0.00000000
vn 0.38268300 -0.92388000 0.00000000
vn 0.38268300 -0.92388000 0.00000000
vn 0.92388000 -0.38268300 0.00000000
vn 0.92388000 -0.38268300 0.00000000
vn 0.92388000 -0.38268300 0.00000000
vn 0.92388000 -0.38268300 0.00000000
vn 0.92388000 -0.38268300 0.00000000
vn 0.92388000 -0.38268300 0.00000000
vn 0.00000000 -0.00000000 -1.00000000
vn 0.00000000 -0.00000000 -1.00000000
vn 0.00000000 -0.00000000 -1.00000000
vn 0.00000000 0.00000000 -1.00000000
vn 0.00000000 0.00000000 -1.00000000
vn 0.00000000 0.00000000 -1.00000000
vn 0.00000000 0.00000000 -1.00000000
vn 0.00000000 0.00000000 -1.00000000
vn 0.00000000 0.00000000 -1.00000000
vn 0.00000000 0.00000000 -1.00000000
vn 0.00000000 0.00000000 -1.00000000
vn 0.00000000 0.00000000 -1.00000000
vn 0.00000000 0.00000000 -1.00000000
vn 0.00000000 0.00000000 -1.00000000
vn 0.00000000 0.00000000 -1.00000000
vn 0.00000000 0.00000000 -1.00000000
vn 0.00000000 0.00000000 -1.00000000
vn 0.00000000 0.00000000 -1.00000000
vn -0.00000000 0.00000000 -1.00000000
vn -0.00000000 0.00000000 -1.00000000
vn -0.00000000 0.00000000 -1.00000000
vn -0.00000000 0.00000000 -1.00000000
vn -0.00000000 0.00000000 -1.00000000
vn -0.00000000 0.00000000 -1.00000000
vn 0.00000000 0.00000000 1.00000000
vn 0.00000000 0.00000000 1.00000000
vn 0.00000000 0.00000000 1.00000000
vn 0.00000000 0.00000000 1.00000000
vn 0.00000000 0.00000000 1.00000000
vn 0.00000000 0.00000000 1.00000000
vn 0.00000000 -0.00000000 1.00000000
vn 0.00000000 -0.00000000 1.00000000
vn 0.00000000 -0.00000000 1.00000000
vn 0.00000000 0.00000000 1.00000000
vn 0.00000000 0.00000000 1.00000000
vn 0.00000000 0.00000000 1.00000000
vn 0.00000000 0.00000000 1.00000000
vn 0.00000000 0.00000000 1.00000000
vn 0.00000000 0.00000000 1.00000000
vn 0.00000000 0.00000000 1.00000000
vn 0.00000000 0.00000000 1.00000000
vn 0.00000000 0.00000000 1.00000000
vn 0.00000000 0.00000000 1.00000000
vn 0.00000000 0.00000000 1.00000000
vn 0.00000000 0.00000000 1.00000000
vn -0.00000000 0.00000000 1.00000000
vn -0.00000000 0.00000000 1.00000000
vn -0.00000000 0.00000000 1.00000000
vn 0.00000000 0.00000000 -1.00000000
vn 0.00000000 0.00000000 -1.00000000
vn 0.00000000 0.00000000 -1.00000000
vn 0.00000000 0.00000000 -1.00000000
vn 0.00000000 0.00000000 -1.00000000
vn 0.00000000 0.00000000 -1.00000000
vn 0.00000000 -1.00000000 0.00000000
vn 0.00000000 -1.00000000 0.00000000
vn 0.00000000 -1.00000000 0.00000000
vn 0.00000000 -1.00000000 0.00000000
vn 0.00000000 -1.00000000 0.00000000
vn 0.00000000 -1.00000000 0.00000000
vn 1.00000000 0.00000000 0.00000000
vn 1.00000000 0.00000000 0.00000000
vn 1.00000000 0.00000000 0.00000000
vn 1.00000000 0.00000000 0.00000000
vn 1.00000000 0.00000000 0.00000000
vn 1.00000000 0.00000000 0.00000000
vn 0.00000000 1.00000000 0.00000000
vn 0.00000000 1.00000000 0.00000000
vn 0.00000000 1.00000000 0.00000000
vn 0.00000000 1.00000000 -0.00000000
vn 0.00000000 1.00000000 -0.00000000
vn 0.00000000 1.00000000 -0.00000000
vn -1.00000000 0.00000000 0.00000000
vn -1.00000000 0.00000000 0.00000000
vn -1.00000000 0.00000000 0.00000000
vn -1.00000000 0.00000000 0.00000000
vn -1.00000000 0.00000000 0.00000000
vn -1.00000000 0.00000000 0.00000000
vn 0.00000000 0.00000000 1.00000000
vn 0.00000000 0.00000000 1.00000000
vn 0.00000000 0.00000000 1.00000000
vn 0.00000000 0.00000000 1.00000000
vn 0.00000000 0.00000000 1.00000000
vn 0.00000000 0.00000000 1.00000000
vn 0.92388000 0.38268300 0.00000000
vn 0.92388000 0.38268300 0.00000000
vn 0.92388000 0.38268300 0.00000000
vn 0.92388000 0.38268300 -0.00000000
vn 0.92388000 0.38268300 -0.00000000
vn 0.92388000 0.38268300 -0.00000000
vn 0.38268300 0.92388000 0.00000000
vn 0.38268300 0.92388000 0.00000000
vn 0.38268300 0.92388000 0.00000000
vn 0.38268300 0.92388000 -0.00000000
vn 0.38268300 0.92388000 -0.00000000
vn 0.38268300 0.92388000 -0.00000000
vn -0.38268300 0.92388000 0.00000000
vn -0.38268300 0.92388000 0.00000000
vn -0.38268300 0.92388000 0.00000000
vn -0.38268300 0.92388000 0.00000000
vn -0.38268300 0.92388000 0.00000000
vn -0.38268300 0.92388000 0.00000000
vn -0.92388000 0.38268300 0.00000000
vn -0.92388000 0.38268300 0.00000000
vn -0.92388000 0.38268300 0.00000000
vn -0.92388000 0.38268300 0.00000000
vn -0.92388000 0.38268300 0.00000000
vn -0.92388000 0.38268300 0.00000000
vn -0.92388000 -0.38268300 0.00000000
vn -0.92388000 -0.38268300 0.00000000
vn -0.92388000 -0.38268300 0.00000000
vn -0.92388000 -0.38268300 0.00000000
vn -0.92388000 -0.38268300 0.00000000
vn -0.92388000 -0.38268300 0.00000000
vn -0.38268300 -0.92388000 0.00000000
vn -0.38268300 -0.92388000 0.00000000
vn -0.38268300 -0.92388000 0.00000000
vn -0.38268300 -0.92388000 0.00000000
vn -0.38268300 -0.92388000 0.00000000
vn -0.38268300 -0.92388000 0.00000000
vn 0.38268300 -0.92388000 0.00000000
vn 0.38268300 -0.92388000 0.00000000
vn 0.38268300 -0.92388000 0.00000000
vn 0.38268300 -0.92388000 0.00000000
vn 0.38268300 -0.92388000 0.00000000
vn 0.38268300 -0.92388000 0.00000000
vn 0.92388000 -0.38268300 0.00000000
vn 0.92388000 -0.38268300 0.00000000
vn 0.92388000 -0.38268300 0.00000000
vn 0.92388000 -0.38268300 0.00000000
vn 0.92388000 -0.38268300 0.00000000
vn 0.92388000 -0.38268300 0.00000000
vn 0.00000000 -0.00000000 -1.00000000
vn 0.00000000 -0.00000000 -1.00000000
vn 0.00000000 -0.00000000 -1.00000000
vn 0.00000000 0.00000000 -1.00000000
vn 0.00000000 0.00000000 -1.00000000
vn 0.00000000 0.00000000 -1.00000000
vn 0.00000000 0.00000000 -1.00000000
vn 0.00000000 0.00000000 -1.00000000
vn 0.00000000 0.00000000 -1.00000000
vn 0.00000000 0.00000000 -1.00000000
vn 0.00000000 0.00000000 -1.00000000
vn 0.00000000 0.00000000 -1.00000000
vn 0.00000000 0.00000000 -1.00000000
vn 0.00000000 0.00000000 -1.00000000
vn 0.00000000 0.00000000 -1.00000000
vn 0.00000000 0.00000000 -1.00000000
vn 0.00000000 0.00000000 -1.00000000
vn 0.00000000 0.00000000 -1.00000000
vn -0.00000000 0.00000000 -1.00000000
vn -0.00000000 0.00000000 -1.00000000
vn -0.00000000 0.00000000 -1.00000000
vn -0.00000000 0.00000000 -1.00000000
vn -0.00000000 0.00000000 -1.00000000
vn -0.00000000 0.00000000 -1.00000000
vn 0.00000000 0.00000000 1.00000000
vn 0.00000000 0.00000000 1.00000000
vn 0.00000000 0.00000000 1.00000000
vn 0.00000000 0.00000000 1.00000000
vn 0.00000000 0.00000000 1.00000000
vn 0.00000000 0.00000000 1.00000000
vn 0.00000000 -0.00000000 1.00000000
vn 0.00000000 -0.00000000 1.00000000
vn 0.00000000 -0.00000000 1.00000000
vn 0.00000000 0.00000000 1.00000000
vn 0.00000000 0.00000000 1.00000000
vn 0.00000000 0.00000000 1.00000000
vn 0.00000000 0.00000000 1.00000000
vn 0.00000000 0.00000000 1.00000000
vn 0.00000000 0.00000000 1.00000000
vn 0.00000000 0.00000000 1.00000000
vn 0.00000000 0.00000000 1.00000000
vn 0.00000000 0.00000000 1.00000000
vn 0.00000000 0.00000000 1.00000000
vn 0.00000000 0.00000000 1.00000000
vn 0.00000000 0.00000000 1.00000000
vn -0.00000000 0.00000000 1.00000000
vn -0.00000000 0.00000000 1.00000000
vn -0.00000000 0.00000000 1.00000000
vn 0.00000000 0.00000000 -1.00000000
vn 0.00000000 0.00000000 -1.00000000
vn 0.00000000 0.00000000 -1.00000000
vn 0.00000000 0.00000000 -1.00000000
vn 0.00000000 0.00000000 -1.00000000
vn 0.00000000 0.00000000 -1.00000000
vn 0.00000000 -1.00000000 0.00000000
vn 0.00000000 -1.00000000 0.00000000
vn 0.00000000 -1.00000000 0.00000000
vn 0.00000000 -1.00000000 0.00000000
vn 0.00000000 -1.00000000 0.00000000
vn 0.00000000 -1.00000000 0.00000000
vn 1.00000000 0.00000000 0.00000000
vn 1.00000000 0.00000000 0.00000000
vn 1.00000000 0.00000000 0.00000000
vn 1.00000000 0.00000000 0.00000000
vn 1.00000000 0.00000000 0.00000000
vn 1.00000000 0.00000000 0.00000000
vn 0.00000000 1.00000000 0.00000000
vn 0.00000000 1.00000000 0.00000000
vn 0.00000000 1.00000000 0.00000000
vn 0.00000000 1.00000000 -0.00000000
vn 0.00000000 1.00000000 -0.00000000
vn 0.00000000 1.00000000 -0.00000000
vn -1.00000000 0.00000000 0.00000000
vn -1.00000000 0.00000000 0.00000000
vn -1.00000000 0.00000000 0.00000000
vn -1.00000000 0.00000000 0.00000000
vn -1.00000000 0.00000000 0.00000000
vn -1.00000000 0.00000000 0.00000000
vn 0.00000000 0.00000000 1.00000000
vn 0.00000000 0.00000000 1.00000000
vn 0.00000000 0.00000000 1.00000000
vn 0.00000000 0.00000000 1.00000000
vn 0.00000000 0.00000000 1.00000000
vn 0.00000000 0.00000000 1.00000000
vn 0.00000000 0.00000000 -1.00000000
vn 0.00000000 0.00000000 -1.00000000
vn 0.00000000 0.00000000 -1.00000000
vn 0.00000000 0.00000000 -1.00000000
vn 0.00000000 0.00000000 -1.00000000
vn 0.00000000 0.00000000 -1.00000000
vn 0.00000000 -1.00000000 0.00000000
vn 0.00000000 -1.00000000 0.00000000
vn 0.00000000 -1.00000000 0.00000000
vn 0.00000000 -1.00000000 0.00000000
vn 0.00000000 -1.00000000 0.00000000
vn 0.00000000 -1.00000000 0.00000000
vn 1.00000000 0.00000000 0.00000000
vn 1.00000000 0.00000000 0.00000000
vn 1.00000000 0.00000000 0.00000000
vn 1.00000000 0.00000000 0.00000000
vn 1.00000000 0.00000000 0.00000000
vn 1.00000000 0.00000000 0.00000000
vn 0.00000000 1.00000000 0.00000000
vn 0.00000000 1.00000000 0.00000000
vn 0.00000000 1.00000000 0.00000000
vn 0.00000000 1.00000000 -0.00000000
vn 0.00000000 1.00000000 -0.00000000
vn 0.00000000 1.00000000 -0.00000000
vn -1.00000000 0.00000000 0.00000000
vn -1.00000000 0.00000000 0.00000000
vn -1.00000000 0.00000000 0.00000000
vn -1.00000000 0.00000000 0.00000000
vn -1.00000000 0.00000000 0.00000000
vn -1.00000000 0.00000000 0.00000000
vn 0.00000000 0.00000000 1.00000000
vn 0.00000000 0.00000000 1.00000000
vn 0.00000000 0.00000000 1.00000000
vn 0.00000000 0.00000000 1.00000000
vn 0.00000000 0.00000000 1.00000000
vn 0.00000000 0.00000000 1.00000000
vn 0.00000000 0.00000000 -1.00000000
vn 0.00000000 0.00000000 -1.00000000
vn 0.00000000 0.00000000 -1.00000000
vn 0.00000000 0.00000000 -1.00000000
vn 0.00000000 0.00000000 -1.00000000
vn 0.00000000 0.00000000 -1.00000000
vn 0.00000000 -1.00000000 0.00000000
vn 0.00000000 -1.00000000 0.00000000
vn 0.00000000 -1.00000000 0.00000000
vn 0.00000000 -1.00000000 0.00000000
vn 0.00000000 -1.00000000 0.00000000
vn 0.00000000 -1.00000000 0.00000000
vn 1.00000000 0.00000000 0.00000000
vn 1.00000000 0.00000000 0.00000000
vn 1.00000000 0.00000000 0.00000000
vn 1.00000000 0.00000000 0.00000000
vn 1.00000000 0.00000000 0.00000000
vn 1.00000000 0.00000000 0.00000000
vn 0.00000000 1.00000000 0.00000000
vn 0.00000000 1.00000000 0.00000000
vn 0.00000000 1.00000000 0.00000000
vn 0.00000000 1.00000000 -0.00000000
vn 0.00000000 1.00000000 -0.00000000
vn 0.00000000 1.00000000 -0.00000000
vn -1.00000000 0.00000000 0.00000000
vn -1.00000000 0.00000000 0.00000000
vn -1.00000000 0.00000000 0.00000000
vn -1.00000000 0.00000000 0.00000000
vn -1.00000000 0.00000000 0.00000000
vn -1.00000000 0.00000000 0.00000000
vn 0.00000000 0.00000000 1.00000000
vn 0.00000000 0.00000000 1.00000000
vn 0.00000000 0.00000000 1.00000000
vn 0.00000000 0.00000000 1.00000000
vn 0.00000000 0.00000000 1.00000000
vn 0.00000000 0.00000000 1.00000000
vn 0.00000000 0.00000000 -1.00000000
vn 0.00000000 0.00000000 -1.00000000
vn 0.00000000 0.00000000 -1.00000000
vn 0.00000000 0.00000000 -1.00000000
vn 0.00000000 0.00000000 -1.00000000
vn 0.00000000 0.00000000 -1.00000000
vn 0.00000000 -1.00000000 0.00000000
vn 0.00000000 -1.00000000 0.00000000
vn 0.00000000 -1.00000000 0.00000000
vn 0.00000000 -1.00000000 0.00000000
vn 0.00000000 -1.00000000 0.00000000
vn 0.00000000 -1.00000000 0.00000000
vn 1.00000000 0.00000000 0.00000000
vn 1.00000000 0.00000000 0.00000000
vn 1.00000000 0.00000000 0.00000000
vn 1.00000000 0.00000000 0.00000000
vn 1.00000000 0.00000000 0.00000000
vn 1.00000000 0.00000000 0.00000000
vn 0.00000000 1.00000000 0.00000000
vn 0.00000000 1.00000000 0.00000000
vn 0.00000000 1.00000000 0.00000000
vn 0.00000000 1.00000000 -0.00000000
vn 0.00000000 1.00000000 -0.00000000
vn 0.00000000 1.00000000 -0.00000000
vn -1.00000000 0.00000000 0.00000000
vn -1.00000000 0.00000000 0.00000000
vn -1.00000000 0.00000000 0.00000000
vn -1.00000000 0.00000000 0.00000000
vn -1.00000000 0.00000000 0.00000000
vn -1.00000000 0.00000000 0.00000000
vn 0.00000000 0.00000000 1.00000000
vn 0.00000000 0.00000000 1.00000000
vn 0.00000000 0.00000000 1.00000000
vn 0.00000000 0.00000000 1.00000000
vn 0.00000000 0.00000000 1.00000000
vn 0.00000000 0.00000000 1.00000000
vn 0.00000000 0.00000000 -1.00000000
vn 0.00000000 0.00000000 -1.00000000
vn 0.00000000 0.00000000 -1.00000000
vn 0.00000000 0.00000000 -1.00000000
vn 0.00000000 0.00000000 -1.00000000
vn 0.00000000 0.00000000 -1.00000000
vn 0.00000000 -1.00000000 0.00000000
vn 0.00000000 -1.00000000 0.00000000
vn 0.00000000 -1.00000000 0.00000000
vn 0.00000000 -1.00000000 0.00000000
vn 0.00000000 -1.00000000 0.00000000
vn 0.00000000 -1.00000000 0.00000000
vn 1.00000000 0.00000000 0.00000000
vn 1.00000000 0.00000000 0.00000000
vn 1.00000000 0.00000000 0.00000000
vn 1.00000000 0.00000000 0.00000000
vn 1.00000000 0.00000000 0.00000000
vn 1.00000000 0.00000000 0.00000000
vn 0.00000000 1.00000000 0.00000000
vn 0.00000000 1.00000000 0.00000000
vn 0.00000000 1.00000000 0.00000000
vn 0.00000000 1.00000000 -0.00000000
vn 0.00000000 1.00000000 -0.00000000
vn 0.00000000 1.00000000 -0.00000000
vn -1.00000000 0.00000000 0.00000000
vn -1.00000000 0.00000000 0.00000000
vn -1.00000000 0.00000000 0.00000000
vn -1.00000000 0.00000000 0.00000000
vn -1.00000000 0.00000000 0.00000000
vn -1.00000000 0.00000000 0.00000000
vn 0.00000000 0.00000000 1.00000000
vn 0.00000000 0.00000000 1.00000000
vn 0.00000000 0.00000000 1.00000000
vn 0.00000000 0.00000000 1.00000000
vn 0.00000000 0.00000000 1.00000000
vn 0.00000000 0.00000000 1.00000000
vn 0.00000000 0.00000000 -1.00000000
vn 0.00000000 0.00000000 -1.00000000
vn 0.00000000 0.00000000 -1.00000000
vn 0.00000000 0.00000000 -1.00000000
vn 0.00000000 0.00000000 -1.00000000
vn 0.00000000 0.00000000 -1.00000000
vn 0.00000000 -1.00000000 0.00000000
vn 0.00000000 -1.00000000 0.00000000
vn 0.00000000 -1.00000000 0.00000000
vn 0.00000000 -1.00000000 0.00000000
vn 0.00000000 -1.00000000 0.00000000
vn 0.00000000 -1.00000000 0.00000000
vn 1.00000000 0.00000000 0.00000000
vn 1.00000000 0.00000000 0.00000000
vn 1.00000000 0.00000000 0.00000000
vn 1.00000000 0.00000000 0.00000000
vn 1.00000000 0.00000000 0.00000000
vn 1.00000000 0.00000000 0.00000000
vn 0.00000000 1.00000000 0.00000000
vn 0.00000000 1.00000000 0.00000000
vn 0.00000000 1.00000000 0.00000000
vn 0.00000000 1.00000000 -0.00000000
vn 0.00000000 1.00000000 -0.00000000
vn 0.00000000 1.00000000 -0.00000000
vn -1.00000000 0.00000000 0.00000000
vn -1.00000000 0.00000000 0.00000000
vn -1.00000000 0.00000000 0.00000000
vn -1.00000000 0.00000000 0.00000000
vn -1.00000000 0.00000000 0.00000000
vn -1.00000000 0.00000000 0.00000000
vn 0.00000000 0.00000000 1.00000000
vn 0.00000000 0.00000000 1.00000000
vn 0.00000000 0.00000000 1.00000000
vn 0.00000000 0.00000000 1.00000000
vn 0.00000000 0.00000000 1.00000000
vn 0.00000000 0.00000000 1.00000000
vn 0.00000000 0.00000000 -1.00000000
vn 0.00000000 0.00000000 -1.00000000
vn 0.00000000 0.00000000 -1.00000000
vn 0.00000000 0.00000000 -1.00000000
vn 0.00000000 0.00000000 -1.00000000
vn 0.00000000 0.00000000 -1.00000000
vn 0.00000000 -1.00000000 0.00000000
vn 0.00000000 -1.00000000 0.00000000
vn 0.00000000 -1.00000000 0.00000000
vn 0.00000000 -1.00000000 0.00000000
vn 0.00000000 -1.00000000 0.00000000
vn 0.00000000 -1.00000000 0.00000000
vn 1.00000000 0.00000000 0.00000000
vn 1.00000000 0.00000000 0.00000000
vn 1.00000000 0.00000000 0.00000000
vn 1.00000000 0.00000000 0.00000000
vn 1.00000000 0.00000000 0.00000000
vn 1.00000000 0.00000000 0.00000000
vn 0.00000000 1.00000000 0.00000000
vn 0.00000000 1.00000000 0.00000000
vn 0.00000000 1.00000000 0.00000000
vn 0.00000000 1.00000000 -0.00000000
vn 0.00000000 1.00000000 -0.00000000
vn 0.00000000 1.00000000 -0.00000000
vn -1.00000000 0.00000000 0.00000000
vn -1.00000000 0.00000000 0.00000000
vn -1.00000000 0.00000000 0.00000000
vn -1.00000000 0.00000000 0.00000000
vn -1.00000000 0.00000000 0.00000000
vn -1.00000000 0.00000000 0.00000000
vn 0.00000000 0.00000000 1.00000000
vn 0.00000000 0.00000000 1.00000000
vn 0.00000000 0.00000000 1.00000000
vn 0.00000000 0.00000000 1.00000000
vn 0.00000000 0.00000000 1.00000000
vn 0.00000000 0.00000000 1.00000000
vn 0.00000000 0.00000000 -1.00000000
vn 0.00000000 0.00000000 -1.00000000
vn 0.00000000 0.00000000 -1.00000000
vn 0.00000000 0.00000000 -1.00000000
vn 0.00000000 0.00000000 -1.00000000
vn 0.00000000 0.00000000 -1.00000000
vn 0.00000000 -1.00000000 0.00000000
vn 0.00000000 -1.00000000 0.00000000
vn 0.00000000 -1.00000000 0.00000000
vn 0.00000000 -1.00000000 0.00000000
vn 0.00000000 -1.00000000 0.00000000
vn 0.00000000 -1.00000000 0.00000000
vn 1.00000000 0.00000000 0.00000000
vn 1.00000000 0.00000000 0.00000000
vn 1.00000000 0.00000000 0.00000000
vn 1.00000000 0.00000000 0.00000000
vn 1.00000000 0.00000000 0.00000000
vn 1.00000000 0.00000000 0.00000000
vn 0.00000000 1.00000000 0.00000000
vn 0.00000000 1.00000000 0.00000000
vn 0.00000000 1.00000000 0.00000000
vn 0.00000000 1.00000000 -0.00000000
vn 0.00000000 1.00000000 -0.00000000
vn 0.00000000 1.00000000 -0.00000000
vn -1.00000000 0.00000000 0.00000000
vn -1.00000000 0.00000000 0.00000000
vn -1.00000000 0.00000000 0.00000000
vn -1.00000000 0.00000000 0.00000000
vn -1.00000000 0.00000000 0.00000000
vn -1.00000000 0.00000000 0.00000000
vn 0.00000000 0.00000000 -1.00000000
vn 0.00000000 0.00000000 -1.00000000
vn 0.00000000 0.00000000 -1.00000000
vn 0.00000000 0.00000000 -1.00000000
vn 0.00000000 0.00000000 -1.00000000
vn 0.00000000 0.00000000 -1.00000000
vn 0.00000000 -1.00000000 0.00000000
vn 0.00000000 -1.00000000 0.00000000
vn 0.00000000 -1.00000000 0.00000000
vn 0.00000000 -1.00000000 0.00000000
vn 0.00000000 -1.00000000 0.00000000
vn 0.00000000 -1.00000000 0.00000000
vn 1.00000000 0.00000000 0.00000000
vn 1.00000000 0.00000000 0.00000000
vn 1.00000000 0.00000000 0.00000000
vn 1.00000000 0.00000000 0.00000000
vn 1.00000000 0.00000000 0.00000000
vn 1.00000000 0.00000000 0.00000000
vn 0.00000000 1.00000000 0.00000000
vn 0.00000000 1.00000000 0.00000000
vn 0.00000000 1.00000000 0.00000000
vn 0.00000000 1.00000000 -0.00000000
vn 0.00000000 1.00000000 -0.00000000
vn 0.00000000 1.00000000 -0.00000000
vn -1.00000000 0.00000000 0.00000000
vn -1.00000000 0.00000000 0.00000000
vn -1.00000000 0.00000000 0.00000000
vn -1.00000000 0.00000000 0.00000000
vn -1.00000000 0.00000000 0.00000000
vn -1.00000000 0.00000000 0.00000000
vn 0.00000000 0.00000000 1.00000000
vn 0.00000000 0.00000000 1.00000000
vn 0.00000000 0.00000000 1.00000000
vn 0.00000000 0.00000000 1.00000000
vn 0.00000000 0.00000000 1.00000000
vn 0.00000000 0.00000000 1.00000000
vn 0.00000000 0.00000000 -1.00000000
vn 0.00000000 0.00000000 -1.00000000
vn 0.00000000 0.00000000 -1.00000000
vn 0.00000000 0.00000000 -1.00000000
vn 0.00000000 0.00000000 -1.00000000
vn 0.00000000 0.00000000 -1.00000000
vn 0.00000000 -1.00000000 0.00000000
vn 0.00000000 -1.00000000 0.00000000
vn 0.00000000 -1.00000000 0.00000000
vn 0.00000000 -1.00000000 0.00000000
vn 0.00000000 -1.00000000 0.00000000
vn 0.00000000 -1.00000000 0.00000000
vn 1.00000000 0.00000000 0.00000000
vn 1.00000000 0.00000000 0.00000000
vn 1.00000000 0.00000000 0.00000000
vn 1.00000000 0.00000000 0.00000000
vn 1.00000000 0.00000000 0.00000000
vn 1.00000000 0.00000000 0.00000000
vn 0.00000000 1.00000000 0.00000000
vn 0.00000000 1.00000000 0.00000000
vn 0.00000000 1.00000000 0.00000000
vn 0.00000000 1.00000000 -0.00000000
vn 0.00000000 1.00000000 -0.00000000
vn 0.00000000 1.00000000 -0.00000000
vn -1.00000000 0.00000000 0.00000000
vn -1.00000000 0.00000000 0.00000000
vn -1.00000000 0.00000000 0.00000000
vn -1.00000000 0.00000000 0.00000000
vn -1.00000000 0.00000000 0.00000000
vn -1.00000000 0.00000000 0.00000000
vn 0.00000000 0.00000000 1.00000000
vn 0.00000000 0.00000000 1.00000000
vn 0.00000000 0.00000000 1.00000000
vn 0.00000000 0.00000000 1.00000000
vn 0.00000000 0.00000000 1.00000000
vn 0.00000000 0.00000000 1.00000000
vn 0.00000000 0.00000000 -1.00000000
vn 0.00000000 0.00000000 -1.00000000
vn 0.00000000 0.00000000 -1.00000000
vn 0.00000000 0.00000000 -1.00000000
vn 0.00000000 0.00000000 -1.00000000
vn 0.00000000 0.00000000 -1.00000000
vn 0.00000000 -1.00000000 0.00000000
vn 0.00000000 -1.00000000 0.00000000
vn 0.00000000 -1.00000000 0.00000000
vn 0.00000000 -1.00000000 0.00000000
vn 0.00000000 -1.00000000 0.00000000
vn 0.00000000 -1.00000000 0.00000000
vn 1.00000000 0.00000000 0.00000000
vn 1.00000000 0.00000000 0.00000000
vn 1.00000000 0.00000000 0.00000000
vn 1.00000000 0.00000000 0.00000000
vn 1.00000000 0.00000000 0.00000000
vn 1.00000000 0.00000000 0.00000000
vn 0.00000000 1.00000000 0.00000000
vn 0.00000000 1.00000000 0.00000000
vn 0.00000000 1.00000000 0.00000000
vn 0.00000000 1.00000000 -0.00000000
vn 0.00000000 1.00000000 -0.00000000
vn 0.00000000 1.00000000 -0.00000000
vn -1.00000000 0.00000000 0.00000000
vn -1.00000000 0.00000000 0.00000000
vn -1.00000000 0.00000000 0.00000000
vn -1.00000000 0.00000000 0.00000000
vn -1.00000000 0.00000000 0.00000000
vn -1.00000000 0.00000000 0.00000000
vn 0.00000000 0.00000000 1.00000000
vn 0.00000000 0.00000000 1.00000000
vn 0.00000000 0.00000000 1.00000000
vn 0.00000000 0.00000000 1.00000000
vn 0.00000000 0.00000000 1.00000000
vn 0.00000000 0.00000000 1.00000000
vn 0.92388000 0.38268300 0.00000000
vn 0.92388000 0.38268300 0.00000000
vn 0.92388000 0.38268300 0.00000000
vn 0.92388000 0.38268300 -0.00000000
vn 0.92388000 0.38268300 -0.00000000
vn 0.92388000 0.38268300 -0.00000000
vn 0.38268300 0.92388000 0.00000000
vn 0.38268300 0.92388000 0.00000000
vn 0.38268300 0.92388000 0.00000000
vn 0.38268300 0.92388000 -0.00000000
vn 0.38268300 0.92388000 -0.00000000
vn 0.38268300 0.92388000 -0.00000000
vn -0.38268300 0.92388000 0.00000000
vn -0.38268300 0.92388000 0.00000000
vn -0.38268300 0.92388000 0.00000000
vn -0.38268300 0.92388000 0.00000000
vn -0.38268300 0.92388000 0.00000000
vn -0.38268300 0.92388000 0.00000000
vn -0.92388000 0.38268300 0.00000000
vn -0.92388000 0.38268300 0.00000000
vn -0.92388000 0.38268300 0.00000000
vn -0.92388000 0.38268300 0.00000000
vn -0.92388000 0.38268300 0.00000000
vn -0.92388000 0.38268300 0.00000000
vn -0.92388000 -0.38268300 0.00000000
vn -0.92388000 -0.38268300 0.00000000
vn -0.92388000 -0.38268300 0.00000000
vn -0.92388000 -0.38268300 0.00000000
vn -0.92388000 -0.38268300 0.00000000
vn -0.92388000 -0.38268300 0.00000000
vn -0.38268300 -0.92388000 0.00000000
vn -0.38268300 -0.92388000 0.00000000
vn -0.38268300 -0.92388000 0.00000000
vn -0.38268300 -0.92388000 0.00000000
vn -0.38268300 -0.92388000 0.00000000
vn -0.38268300 -0.92388000 0.00000000
vn 0.38268300 -0.92388000 0.00000000
vn 0.38268300 -0.92388000 0.00000000
vn 0.38268300 -0.92388000 0.00000000
vn 0.38268300 -0.92388000 0.00000000
vn 0.38268300 -0.92388000 0.00000000
vn 0.38268300 -0.92388000 0.00000000
vn 0.92388000 -0.38268300 0.00000000
vn 0.92388000 -0.38268300 0.00000000
vn 0.92388000 -0.38268300 0.00000000
vn 0.92388000 -0.38268300 0.00000000
vn 0.92388000 -0.38268300 0.00000000
vn 0.92388000 -0.38268300 0.00000000
vn 0.00000000 -0.00000000 -1.00000000
vn 0.00000000 -0.00000000 -1.00000000
vn 0.00000000 -0.00000000 -1.00000000
vn 0.00000000 0.00000000 -1.00000000
vn 0.00000000 0.00000000 -1.00000000
vn 0.00000000 0.00000000 -1.00000000
vn 0.00000000 0.00000000 -1.00000000
vn 0.00000000 0.00000000 -1.00000000
vn 0.00000000 0.00000000 -1.00000000
vn 0.00000000 0.00000000 -1.00000000
vn 0.00000000 0.00000000 -1.00000000
vn 0.00000000 0.00000000 -1.00000000
vn 0.00000000 0.00000000 -1.00000000
vn 0.00000000 0.00000000 -1.00000000
vn 0.00000000 0.00000000 -1.00000000
vn 0.00000000 0.00000000 -1.00000000
vn 0.00000000 0.00000000 -1.00000000
vn 0.00000000 0.00000000 -1.00000000
vn -0.00000000 0.00000000 -1.00000000
vn -0.00000000 0.00000000 -1.00000000
vn -0.00000000 0.00000000 -1.00000000
vn -0.00000000 0.00000000 -1.00000000
vn -0.00000000 0.00000000 -1.00000000
vn -0.00000000 0.00000000 -1.00000000
vn 0.00000000 0.00000000 1.00000000
vn 0.00000000 0.00000000 1.00000000
vn 0.00000000 0.00000000 1.00000000
vn 0.00000000 0.00000000 1.00000000
vn 0.00000000 0.00000000 1.00000000
vn 0.00000000 0.00000000 1.00000000
vn 0.00000000 -0.00000000 1.00000000
vn 0.00000000 -0.00000000 1.00000000
vn 0.00000000 -0.00000000 1.00000000
vn 0.00000000 0.00000000 1.00000000
vn 0.00000000 0.00000000 1.00000000
vn 0.00000000 0.00000000 1.00000000
vn 0.00000000 0.00000000 1.00000000
vn 0.00000000 0.00000000 1.00000000
vn 0.00000000 0.00000000 1.00000000
vn 0.00000000 0.00000000 1.00000000
vn 0.00000000 0.00000000 1.00000000
vn 0.00000000 0.00000000 1.00000000
vn 0.00000000 0.00000000 1.00000000
vn 0.00000000 0.00000000 1.00000000
vn 0.00000000 0.00000000 1.00000000
vn -0.00000000 0.00000000 1.00000000
vn -0.00000000 0.00000000 1.00000000
vn -0.00000000 0.00000000 1.00000000
vn 0.00000000 0.00000000 -1.00000000
vn 0.00000000 0.00000000 -1.00000000
vn 0.00000000 0.00000000 -1.00000000
vn 0.00000000 0.00000000 -1.00000000
vn 0.00000000 0.00000000 -1.00000000
vn 0.00000000 0.00000000 -1.00000000
vn 0.00000000 -1.00000000 0.00000000
vn 0.00000000 -1.00000000 0.00000000
vn 0.00000000 -1.00000000 0.00000000
vn 0.00000000 -1.00000000 0.00000000
vn 0.00000000 -1.00000000 0.00000000
vn 0.00000000 -1.00000000 0.00000000
vn 1.00000000 0.00000000 0.00000000
vn 1.00000000 0.00000000 0.00000000
vn 1.00000000 0.00000000 0.00000000
vn 1.00000000 0.00000000 0.00000000
vn 1.00000000 0.00000000 0.00000000
vn 1.00000000 0.00000000 0.00000000
vn 0.00000000 1.00000000 0.00000000
vn 0.00000000 1.00000000 0.00000000
vn 0.00000000 1.00000000 0.00000000
vn 0.00000000 1.00000000 -0.00000000
vn 0.00000000 1.00000000 -0.00000000
vn 0.00000000 1.00000000 -0.00000000
vn -1.00000000 0.00000000 0.00000000
vn -1.00000000 0.00000000 0.00000000
vn -1.00000000 0.00000000 0.00000000
vn -1.00000000 0.00000000 0.00000000
vn -1.00000000 0.00000000 0.00000000
vn -1.00000000 0.00000000 0.00000000
vn 0.00000000 0.00000000 1.00000000
vn 0.00000000 0.00000000 1.00000000
vn 0.00000000 0.00000000 1.00000000
vn 0.00000000 0.00000000 1.00000000
vn 0.00000000 0.00000000 1.00000000
vn 0.00000000 0.00000000 1.00000000
o contents_books_misc_01_50
usemtl UV_Base
vt 0.605468750 0.702653151
vt 0.605468750 0.580078125
vt 0.746430030 0.580078125
vt 0.605468750 0.702653151
vt 0.746430030 0.580078125
vt 0.746430030 0.702653151
vt 0.244140625 0.003906250
vt 0.244140625 0.144867530
vt 0.005119324 0.144867530
vt 0.244140625 0.003906250
vt 0.005119324 0.144867530
vt 0.005119324 0.003906250
vt 0.740234375 0.003906250
vt 0.740234375 0.126481276
vt 0.501213074 0.126481276
vt 0.740234375 0.003906250
vt 0.501213074 0.126481276
vt 0.501213074 0.003906250
vt 0.253166199 0.144867530
vt 0.253166199 0.003906250
vt 0.492187500 0.003906250
vt 0.253166199 0.144867530
vt 0.492187500 0.003906250
vt 0.492187500 0.144867530
vt 0.749259949 0.126481276
vt 0.749259949 0.003906250
vt 0.988281250 0.003906250
vt 0.749259949 0.126481276
vt 0.988281250 0.003906250
vt 0.988281250 0.126481276
vt 0.755859375 0.580078125
vt 0.896820655 0.580078125
vt 0.896820655 0.702653151
vt 0.755859375 0.580078125
vt 0.896820655 0.702653151
vt 0.755859375 0.702653151
vt 0.906779573 0.580078125
vt 0.931640625 0.580078125
vt 0.931640625 0.714910654
vt 0.906779573 0.580078125
vt 0.931640625 0.714910654
vt 0.906779573 0.714910654
vt 0.939982698 0.580078125
vt 0.964843750 0.580078125
vt 0.964843750 0.714910654
vt 0.939982698 0.580078125
vt 0.964843750 0.714910654
vt 0.939982698 0.714910654
vt 0.293498323 0.753906250
vt 0.318359375 0.753906250
vt 0.318359375 0.888738779
vt 0.293498323 0.753906250
vt 0.318359375 0.888738779
vt 0.293498323 0.888738779
vt 0.326701448 0.753906250
vt 0.351562500 0.753906250
vt 0.351562500 0.888738779
vt 0.326701448 0.753906250
vt 0.351562500 0.888738779
vt 0.326701448 0.888738779
vt 0.359904573 0.753906250
vt 0.384765625 0.753906250
vt 0.384765625 0.888738779
vt 0.359904573 0.753906250
vt 0.384765625 0.888738779
vt 0.359904573 0.888738779
vt 0.393107698 0.753906250
vt 0.417968750 0.753906250
vt 0.417968750 0.888738779
vt 0.393107698 0.753906250
vt 0.417968750 0.888738779
vt 0.393107698 0.888738779
vt 0.426310823 0.753906250
vt 0.451171875 0.753906250
vt 0.451171875 0.888738779
vt 0.426310823 0.753906250
vt 0.451171875 0.888738779
vt 0.426310823 0.888738779
vt 0.459513948 0.753906250
vt 0.484375000 0.753906250
vt 0.484375000 0.888738779
vt 0.459513948 0.753906250
vt 0.484375000 0.888738779
vt 0.459513948 0.888738779
vt 0.059357353 0.985138603
vt 0.036388632 0.994652264
vt 0.036388632 0.962169882
vt 0.068871014 0.962169882
vt 0.059357353 0.985138603
vt 0.036388632 0.962169882
vt 0.059357353 0.939201161
vt 0.068871014 0.962169882
vt 0.036388632 0.962169882
vt 0.036388632 0.929687500
vt 0.059357353 0.939201161
vt 0.036388632 0.962169882
vt 0.013419911 0.939201161
vt 0.036388632 0.929687500
vt 0.036388632 0.962169882
vt 0.003906250 0.962169882
vt 0.013419911 0.939201161
vt 0.036388632 0.962169882
vt 0.013419911 0.985138603
vt 0.003906250 0.962169882
vt 0.036388632 0.962169882
vt 0.036388632 0.994652264
vt 0.013419911 0.985138603
vt 0.036388632 0.962169882
vt 0.110607382 0.962169882
vt 0.143089764 0.962169882
vt 0.133576103 0.985138603
vt 0.110607382 0.962169882
vt 0.133576103 0.985138603
vt 0.110607382 0.994652264
vt 0.110607382 0.962169882
vt 0.110607382 0.994652264
vt 0.087638661 0.985138603
vt 0.110607382 0.962169882
vt 0.087638661 0.985138603
vt 0.078125000 0.962169882
vt 0.110607382 0.962169882
vt 0.078125000 0.962169882
vt 0.087638661 0.939201161
vt 0.110607382 0.962169882
vt 0.087638661 0.939201161
vt 0.110607382 0.929687500
vt 0.110607382 0.962169882
vt 0.110607382 0.929687500
vt 0.133576103 0.939201161
vt 0.110607382 0.962169882
vt 0.133576103 0.939201161
vt 0.143089764 0.962169882
vt 0.582031250 0.901501876
vt 0.582031250 0.898437500
vt 0.615812927 0.898437500
vt 0.582031250 0.901501876
vt 0.615812927 0.898437500
vt 0.615812927 0.901501876
vt 0.417968750 0.929687500
vt 0.451750427 0.929687500
vt 0.451750427 0.980923861
vt 0.417968750 0.929687500
vt 0.451750427 0.980923861
vt 0.417968750 0.980923861
vt 0.503906250 0.929687500
vt 0.506970626 0.929687500
vt 0.506970626 0.980923861
vt 0.503906250 0.929687500
vt 0.506970626 0.980923861
vt 0.503906250 0.980923861
vt 0.494719177 0.980923861
vt 0.460937500 0.980923861
vt 0.460937500 0.929687500
vt 0.494719177 0.980923861
vt 0.460937500 0.929687500
vt 0.494719177 0.929687500
vt 0.518689376 0.980923861
vt 0.515625000 0.980923861
vt 0.515625000 0.929687500
vt 0.518689376 0.980923861
vt 0.515625000 0.929687500
vt 0.518689376 0.929687500
vt 0.625000000 0.898437500
vt 0.658781677 0.898437500
vt 0.658781677 0.901501876
vt 0.625000000 0.898437500
vt 0.658781677 0.901501876
vt 0.625000000 0.901501876
vt 0.973109185 0.580078125
vt 0.996093750 0.580078125
vt 0.996093750 0.690395649
vt 0.973109185 0.580078125
vt 0.996093750 0.690395649
vt 0.973109185 0.690395649
vt 0.902796685 0.753906250
vt 0.925781250 0.753906250
vt 0.925781250 0.864223774
vt 0.902796685 0.753906250
vt 0.925781250 0.864223774
vt 0.902796685 0.864223774
vt 0.934046685 0.753906250
vt 0.957031250 0.753906250
vt 0.957031250 0.864223774
vt 0.934046685 0.753906250
vt 0.957031250 0.864223774
vt 0.934046685 0.864223774
vt 0.965296685 0.753906250
vt 0.988281250 0.753906250
vt 0.988281250 0.864223774
vt 0.965296685 0.753906250
vt 0.988281250 0.864223774
vt 0.965296685 0.864223774
vt 0.003906250 0.921422065
vt 0.003906250 0.898437500
vt 0.114223774 0.898437500
vt 0.003906250 0.921422065
vt 0.114223774 0.898437500
vt 0.114223774 0.921422065
vt 0.123046875 0.921422065
vt 0.123046875 0.898437500
vt 0.233364399 0.898437500
vt 0.123046875 0.921422065
vt 0.233364399 0.898437500
vt 0.233364399 0.921422065
vt 0.242187500 0.921422065
vt 0.242187500 0.898437500
vt 0.352505024 0.898437500
vt 0.242187500 0.921422065
vt 0.352505024 0.898437500
vt 0.352505024 0.921422065
vt 0.361328125 0.921422065
vt 0.361328125 0.898437500
vt 0.471645649 0.898437500
vt 0.361328125 0.921422065
vt 0.471645649 0.898437500
vt 0.471645649 0.921422065
vt 0.332515779 0.980953279
vt 0.311280881 0.989749263
vt 0.311280881 0.959718381
vt 0.341311763 0.959718381
vt 0.332515779 0.980953279
vt 0.311280881 0.959718381
vt 0.332515779 0.938483484
vt 0.341311763 0.959718381
vt 0.311280881 0.959718381
vt 0.311280881 0.929687500
vt 0.332515779 0.938483484
vt 0.311280881 0.959718381
vt 0.290045984 0.938483484
vt 0.311280881 0.929687500
vt 0.311280881 0.959718381
vt 0.281250000 0.959718381
vt 0.290045984 0.938483484
vt 0.311280881 0.959718381
vt 0.290045984 0.980953279
vt 0.281250000 0.959718381
vt 0.311280881 0.959718381
vt 0.311280881 0.989749263
vt 0.290045984 0.980953279
vt 0.311280881 0.959718381
vt 0.379640256 0.959718381
vt 0.379640256 0.929687500
vt 0.400875154 0.938483484
vt 0.379640256 0.959718381
vt 0.400875154 0.938483484
vt 0.409671138 0.959718381
vt 0.379640256 0.959718381
vt 0.409671138 0.959718381
vt 0.400875154 0.980953279
vt 0.379640256 0.959718381
vt 0.400875154 0.980953279
vt 0.379640256 0.989749263
vt 0.379640256 0.959718381
vt 0.379640256 0.989749263
vt 0.358405359 0.980953279
vt 0.379640256 0.959718381
vt 0.358405359 0.980953279
vt 0.349609375 0.959718381
vt 0.379640256 0.959718381
vt 0.349609375 0.959718381
vt 0.358405359 0.938483484
vt 0.379640256 0.959718381
vt 0.358405359 0.938483484
vt 0.379640256 0.929687500
vt 0.750000000 0.901501876
vt 0.750000000 0.898437500
vt 0.781232117 0.898437500
vt 0.750000000 0.901501876
vt 0.781232117 0.898437500
vt 0.781232117 0.901501876
vt 0.609375000 0.929687500
vt 0.640607117 0.929687500
vt 0.640607117 0.971608159
vt 0.609375000 0.929687500
vt 0.640607117 0.971608159
vt 0.609375000 0.971608159
vt 0.523437500 0.898437500
vt 0.523437500 0.901501876
vt 0.481516841 0.901501876
vt 0.523437500 0.898437500
vt 0.481516841 0.901501876
vt 0.481516841 0.898437500
vt 0.679669617 0.971608159
vt 0.648437500 0.971608159
vt 0.648437500 0.929687500
vt 0.679669617 0.971608159
vt 0.648437500 0.929687500
vt 0.679669617 0.929687500
vt 0.532298091 0.901501876
vt 0.532298091 0.898437500
vt 0.574218750 0.898437500
vt 0.532298091 0.901501876
vt 0.574218750 0.898437500
vt 0.574218750 0.901501876
vt 0.789062500 0.898437500
vt 0.820294617 0.898437500
vt 0.820294617 0.901501876
vt 0.789062500 0.898437500
vt 0.820294617 0.901501876
vt 0.789062500 0.901501876
vt 0.005523095 0.580078125
vt 0.146484375 0.580078125
vt 0.146484375 0.714910654
vt 0.005523095 0.580078125
vt 0.146484375 0.714910654
vt 0.005523095 0.714910654
vt 0.003906250 0.753906250
vt 0.138738779 0.753906250
vt 0.138738779 0.888738779
vt 0.003906250 0.753906250
vt 0.138738779 0.888738779
vt 0.003906250 0.888738779
vt 0.154296875 0.580078125
vt 0.295258155 0.580078125
vt 0.295258155 0.714910654
vt 0.154296875 0.580078125
vt 0.295258155 0.714910654
vt 0.154296875 0.714910654
vt 0.283270029 0.888738779
vt 0.148437500 0.888738779
vt 0.148437500 0.753906250
vt 0.283270029 0.888738779
vt 0.148437500 0.753906250
vt 0.283270029 0.753906250
vt 0.445648780 0.714910654
vt 0.304687500 0.714910654
vt 0.304687500 0.580078125
vt 0.445648780 0.714910654
vt 0.304687500 0.580078125
vt 0.445648780 0.580078125
vt 0.597656250 0.580078125
vt 0.597656250 0.714910654
vt 0.456694970 0.714910654
vt 0.597656250 0.580078125
vt 0.456694970 0.714910654
vt 0.456694970 0.580078125
vt 0.005523095 0.724609375
vt 0.146484375 0.724609375
vt 0.146484375 0.744834254
vt 0.005523095 0.724609375
vt 0.146484375 0.744834254
vt 0.005523095 0.744834254
vt 0.992187500 0.724609375
vt 0.992187500 0.744834254
vt 0.989735999 0.744834254
vt 0.992187500 0.724609375
vt 0.989735999 0.744834254
vt 0.989735999 0.724609375
vt 0.304687500 0.724609375
vt 0.445648780 0.724609375
vt 0.445648780 0.727060876
vt 0.304687500 0.724609375
vt 0.445648780 0.727060876
vt 0.304687500 0.727060876
vt 0.872548499 0.918662379
vt 0.872548499 0.898437500
vt 0.875000000 0.898437500
vt 0.872548499 0.918662379
vt 0.875000000 0.898437500
vt 0.875000000 0.918662379
vt 0.596039405 0.727060876
vt 0.455078125 0.727060876
vt 0.455078125 0.724609375
vt 0.596039405 0.727060876
vt 0.455078125 0.724609375
vt 0.596039405 0.724609375
vt 0.296875000 0.724609375
vt 0.296875000 0.744834254
vt 0.155913720 0.744834254
vt 0.296875000 0.724609375
vt 0.155913720 0.744834254
vt 0.155913720 0.724609375
vt 0.778152466 0.154296875
vt 0.937500000 0.154296875
vt 0.937500000 0.332030663
vt 0.778152466 0.154296875
vt 0.937500000 0.332030663
vt 0.778152466 0.332030663
vt 0.189453125 0.154296875
vt 0.189453125 0.332030663
vt 0.005590586 0.332030663
vt 0.189453125 0.154296875
vt 0.005590586 0.332030663
vt 0.005590586 0.154296875
vt 0.576171875 0.154296875
vt 0.576171875 0.313644409
vt 0.392309336 0.313644409
vt 0.576171875 0.154296875
vt 0.392309336 0.313644409
vt 0.392309336 0.154296875
vt 0.198949961 0.332030663
vt 0.198949961 0.154296875
vt 0.382812500 0.154296875
vt 0.198949961 0.332030663
vt 0.382812500 0.154296875
vt 0.382812500 0.332030663
vt 0.585668711 0.313644409
vt 0.585668711 0.154296875
vt 0.769531250 0.154296875
vt 0.585668711 0.313644409
vt 0.769531250 0.154296875
vt 0.769531250 0.313644409
vt 0.003906250 0.339843750
vt 0.181640038 0.339843750
vt 0.181640038 0.499191284
vt 0.003906250 0.339843750
vt 0.181640038 0.499191284
vt 0.003906250 0.499191284
vt 0.919921875 0.499191284
vt 0.919921875 0.339843750
vt 0.941372505 0.339843750
vt 0.919921875 0.499191284
vt 0.941372505 0.339843750
vt 0.941372505 0.499191284
vt 0.886718750 0.898437500
vt 0.886718750 0.919888130
vt 0.884267249 0.919888130
vt 0.886718750 0.898437500
vt 0.884267249 0.919888130
vt 0.884267249 0.898437500
vt 0.982421875 0.339843750
vt 0.982421875 0.499191284
vt 0.979970374 0.499191284
vt 0.982421875 0.339843750
vt 0.979970374 0.499191284
vt 0.979970374 0.339843750
vt 0.895985999 0.919888130
vt 0.895985999 0.898437500
vt 0.898437500 0.898437500
vt 0.895985999 0.919888130
vt 0.898437500 0.898437500
vt 0.898437500 0.919888130
vt 0.991689124 0.499191284
vt 0.991689124 0.339843750
vt 0.994140625 0.339843750
vt 0.991689124 0.499191284
vt 0.994140625 0.339843750
vt 0.994140625 0.499191284
vt 0.949218750 0.339843750
vt 0.970669380 0.339843750
vt 0.970669380 0.499191284
vt 0.949218750 0.339843750
vt 0.970669380 0.499191284
vt 0.949218750 0.499191284
vt 0.560546875 0.462418776
vt 0.560546875 0.339843750
vt 0.732151912 0.339843750
vt 0.560546875 0.462418776
vt 0.732151912 0.339843750
vt 0.732151912 0.462418776
vt 0.003906250 0.507812500
vt 0.175511287 0.507812500
vt 0.175511287 0.571551514
vt 0.003906250 0.507812500
vt 0.175511287 0.571551514
vt 0.003906250 0.571551514
vt 0.556640625 0.753906250
vt 0.556640625 0.876481276
vt 0.492901611 0.876481276
vt 0.556640625 0.753906250
vt 0.492901611 0.876481276
vt 0.492901611 0.753906250
vt 0.355198787 0.571551514
vt 0.183593750 0.571551514
vt 0.183593750 0.507812500
vt 0.355198787 0.571551514
vt 0.183593750 0.507812500
vt 0.355198787 0.507812500
vt 0.565167236 0.876481276
vt 0.565167236 0.753906250
vt 0.628906250 0.753906250
vt 0.565167236 0.876481276
vt 0.628906250 0.753906250
vt 0.628906250 0.876481276
vt 0.740234375 0.339843750
vt 0.911839412 0.339843750
vt 0.911839412 0.462418776
vt 0.740234375 0.339843750
vt 0.911839412 0.462418776
vt 0.740234375 0.462418776
vt 0.189453125 0.467321777
vt 0.189453125 0.339843750
vt 0.365961163 0.339843750
vt 0.189453125 0.467321777
vt 0.365961163 0.339843750
vt 0.365961163 0.467321777
vt 0.962890625 0.154296875
vt 0.962890625 0.330804913
vt 0.946955872 0.330804913
vt 0.962890625 0.154296875
vt 0.946955872 0.330804913
vt 0.946955872 0.154296875
vt 0.605468750 0.724609375
vt 0.732946777 0.724609375
vt 0.732946777 0.740544128
vt 0.605468750 0.724609375
vt 0.732946777 0.740544128
vt 0.605468750 0.740544128
vt 0.972346497 0.330804913
vt 0.972346497 0.154296875
vt 0.988281250 0.154296875
vt 0.972346497 0.330804913
vt 0.988281250 0.154296875
vt 0.988281250 0.330804913
vt 0.869665527 0.740544128
vt 0.742187500 0.740544128
vt 0.742187500 0.724609375
vt 0.869665527 0.740544128
vt 0.742187500 0.724609375
vt 0.869665527 0.724609375
vt 0.375000000 0.339843750
vt 0.551508038 0.339843750
vt 0.551508038 0.467321777
vt 0.375000000 0.339843750
vt 0.551508038 0.467321777
vt 0.375000000 0.467321777
vt 0.722656250 0.510264001
vt 0.722656250 0.507812500
vt 0.894261287 0.507812500
vt 0.722656250 0.510264001
vt 0.894261287 0.507812500
vt 0.894261287 0.510264001
vt 0.363281250 0.507812500
vt 0.534886287 0.507812500
vt 0.534886287 0.511796188
vt 0.363281250 0.507812500
vt 0.534886287 0.511796188
vt 0.363281250 0.511796188
vt 0.988281250 0.898437500
vt 0.990732751 0.898437500
vt 0.990732751 0.902421188
vt 0.988281250 0.898437500
vt 0.990732751 0.902421188
vt 0.988281250 0.902421188
vt 0.714573787 0.511796188
vt 0.542968750 0.511796188
vt 0.542968750 0.507812500
vt 0.714573787 0.511796188
vt 0.542968750 0.507812500
vt 0.714573787 0.507812500
vt 0.807139001 0.933671188
vt 0.804687500 0.933671188
vt 0.804687500 0.929687500
vt 0.807139001 0.933671188
vt 0.804687500 0.929687500
vt 0.807139001 0.929687500
vt 0.726562500 0.941945003
vt 0.726562500 0.929687500
vt 0.737594252 0.929687500
vt 0.726562500 0.941945003
vt 0.737594252 0.929687500
vt 0.737594252 0.941945003
vt 0.949218750 0.898437500
vt 0.960250502 0.898437500
vt 0.960250502 0.913759378
vt 0.949218750 0.898437500
vt 0.960250502 0.913759378
vt 0.949218750 0.913759378
vt 0.906250000 0.898437500
vt 0.918507503 0.898437500
vt 0.918507503 0.913759378
vt 0.906250000 0.898437500
vt 0.918507503 0.913759378
vt 0.906250000 0.913759378
vt 0.979781752 0.913759378
vt 0.968750000 0.913759378
vt 0.968750000 0.898437500
vt 0.979781752 0.913759378
vt 0.968750000 0.898437500
vt 0.979781752 0.898437500
vt 0.840382503 0.921726755
vt 0.828125000 0.921726755
vt 0.828125000 0.906404877
vt 0.840382503 0.921726755
vt 0.828125000 0.906404877
vt 0.840382503 0.906404877
vt 0.746093750 0.929687500
vt 0.757125502 0.929687500
vt 0.757125502 0.941945003
vt 0.746093750 0.929687500
vt 0.757125502 0.941945003
vt 0.746093750 0.941945003
vt 0.765625000 0.941945003
vt 0.765625000 0.929687500
vt 0.776656752 0.929687500
vt 0.765625000 0.941945003
vt 0.776656752 0.929687500
vt 0.776656752 0.941945003
vt 0.687500000 0.929687500
vt 0.698531752 0.929687500
vt 0.698531752 0.945009378
vt 0.687500000 0.929687500
vt 0.698531752 0.945009378
vt 0.687500000 0.945009378
vt 0.849609375 0.898437500
vt 0.861866878 0.898437500
vt 0.861866878 0.913759378
vt 0.849609375 0.898437500
vt 0.861866878 0.913759378
vt 0.849609375 0.913759378
vt 0.718063002 0.945009378
vt 0.707031250 0.945009378
vt 0.707031250 0.929687500
vt 0.718063002 0.945009378
vt 0.707031250 0.929687500
vt 0.718063002 0.929687500
vt 0.939991878 0.913759378
vt 0.927734375 0.913759378
vt 0.927734375 0.898437500
vt 0.939991878 0.913759378
vt 0.927734375 0.898437500
vt 0.939991878 0.898437500
vt 0.785156250 0.929687500
vt 0.796188002 0.929687500
vt 0.796188002 0.941945003
vt 0.785156250 0.929687500
vt 0.796188002 0.941945003
vt 0.785156250 0.941945003
vt 0.976023747 0.507812500
vt 0.988281250 0.507812500
vt 0.988281250 0.570325763
vt 0.976023747 0.507812500
vt 0.988281250 0.570325763
vt 0.976023747 0.570325763
vt 0.255859375 0.929687500
vt 0.255859375 0.992200763
vt 0.247891998 0.992200763
vt 0.255859375 0.929687500
vt 0.247891998 0.992200763
vt 0.247891998 0.929687500
vt 0.849609375 0.913759378
vt 0.861866878 0.913759378
vt 0.861866878 0.921726755
vt 0.849609375 0.913759378
vt 0.861866878 0.921726755
vt 0.849609375 0.921726755
vt 0.265470123 0.992200763
vt 0.265470123 0.929687500
vt 0.273437500 0.929687500
vt 0.265470123 0.992200763
vt 0.273437500 0.929687500
vt 0.273437500 0.992200763
vt 0.840382503 0.906404877
vt 0.828125000 0.906404877
vt 0.828125000 0.898437500
vt 0.840382503 0.906404877
vt 0.828125000 0.898437500
vt 0.840382503 0.898437500
vt 0.238281250 0.929687500
vt 0.238281250 0.992200763
vt 0.226023747 0.992200763
vt 0.238281250 0.929687500
vt 0.226023747 0.992200763
vt 0.226023747 0.929687500
vt 0.638186733 0.753906250
vt 0.662109375 0.753906250
vt 0.662109375 0.876481276
vt 0.638186733 0.753906250
vt 0.662109375 0.876481276
vt 0.638186733 0.876481276
vt 0.671389858 0.753906250
vt 0.695312500 0.753906250
vt 0.695312500 0.876481276
vt 0.671389858 0.753906250
vt 0.695312500 0.876481276
vt 0.671389858 0.876481276
vt 0.704592983 0.753906250
vt 0.728515625 0.753906250
vt 0.728515625 0.876481276
vt 0.704592983 0.753906250
vt 0.728515625 0.876481276
vt 0.704592983 0.876481276
vt 0.737796108 0.753906250
vt 0.761718750 0.753906250
vt 0.761718750 0.876481276
vt 0.737796108 0.753906250
vt 0.761718750 0.876481276
vt 0.737796108 0.876481276
vt 0.770999233 0.753906250
vt 0.794921875 0.753906250
vt 0.794921875 0.876481276
vt 0.770999233 0.753906250
vt 0.794921875 0.876481276
vt 0.770999233 0.876481276
vt 0.804202358 0.753906250
vt 0.828125000 0.753906250
vt 0.828125000 0.876481276
vt 0.804202358 0.753906250
vt 0.828125000 0.876481276
vt 0.804202358 0.876481276
vt 0.837405483 0.753906250
vt 0.861328125 0.753906250
vt 0.861328125 0.876481276
vt 0.837405483 0.753906250
vt 0.861328125 0.876481276
vt 0.837405483 0.876481276
vt 0.870608608 0.753906250
vt 0.894531250 0.753906250
vt 0.894531250 0.876481276
vt 0.870608608 0.753906250
vt 0.894531250 0.876481276
vt 0.870608608 0.876481276
vt 0.955701885 0.561170635
vt 0.933600382 0.570325763
vt 0.933600382 0.539069132
vt 0.964857013 0.539069132
vt 0.955701885 0.561170635
vt 0.933600382 0.539069132
vt 0.955701885 0.516967629
vt 0.964857013 0.539069132
vt 0.933600382 0.539069132
vt 0.933600382 0.507812500
vt 0.955701885 0.516967629
vt 0.933600382 0.539069132
vt 0.911498879 0.516967629
vt 0.933600382 0.507812500
vt 0.933600382 0.539069132
vt 0.902343750 0.539069132
vt 0.911498879 0.516967629
vt 0.933600382 0.539069132
vt 0.911498879 0.561170635
vt 0.902343750 0.539069132
vt 0.933600382 0.539069132
vt 0.933600382 0.570325763
vt 0.911498879 0.561170635
vt 0.933600382 0.539069132
vt 0.183600382 0.960944132
vt 0.183600382 0.929687500
vt 0.205701885 0.938842629
vt 0.183600382 0.960944132
vt 0.205701885 0.938842629
vt 0.214857013 0.960944132
vt 0.183600382 0.960944132
vt 0.214857013 0.960944132
vt 0.205701885 0.983045635
vt 0.183600382 0.960944132
vt 0.205701885 0.983045635
vt 0.183600382 0.992200763
vt 0.183600382 0.960944132
vt 0.183600382 0.992200763
vt 0.161498879 0.983045635
vt 0.183600382 0.960944132
vt 0.161498879 0.983045635
vt 0.152343750 0.960944132
vt 0.183600382 0.960944132
vt 0.152343750 0.960944132
vt 0.161498879 0.938842629
vt 0.183600382 0.960944132
vt 0.161498879 0.938842629
vt 0.183600382 0.929687500
vt 0.667968750 0.901501876
vt 0.667968750 0.898437500
vt 0.700475647 0.898437500
vt 0.667968750 0.901501876
vt 0.700475647 0.898437500
vt 0.700475647 0.901501876
vt 0.527343750 0.929687500
vt 0.559850647 0.929687500
vt 0.559850647 0.976266010
vt 0.527343750 0.929687500
vt 0.559850647 0.976266010
vt 0.527343750 0.976266010
vt 0.925781250 0.724609375
vt 0.925781250 0.727673751
vt 0.879202740 0.727673751
vt 0.925781250 0.724609375
vt 0.879202740 0.727673751
vt 0.879202740 0.724609375
vt 0.600866272 0.976266010
vt 0.568359375 0.976266010
vt 0.568359375 0.929687500
vt 0.600866272 0.976266010
vt 0.568359375 0.929687500
vt 0.600866272 0.929687500
vt 0.933890240 0.727673751
vt 0.933890240 0.724609375
vt 0.980468750 0.724609375
vt 0.933890240 0.727673751
vt 0.980468750 0.724609375
vt 0.980468750 0.727673751
vt 0.708984375 0.898437500
vt 0.741491272 0.898437500
vt 0.741491272 0.901501876
vt 0.708984375 0.898437500
vt 0.741491272 0.901501876
vt 0.708984375 0.901501876
f 1/1/1 2/2/2 3/3/3
f 4/4/4 5/5/5 6/6/6
f 7/7/7 8/8/8 9/9/9
f 10/10/10 11/11/11 12/12/12
f 13/13/13 14/14/14 15/15/15
f 16/16/16 17/17/17 18/18/18
f 19/19/19 20/20/20 21/21/21
f 22/22/22 23/23/23 24/24/24
f 25/25/25 26/26/26 27/27/27
f 28/28/28 29/29/29 30/30/30
f 31/31/31 32/32/32 33/33/33
f 34/34/34 35/35/35 36/36/36
f 37/37/37 38/38/38 39/39/39
f 40/40/40 41/41/41 42/42/42
f 43/43/43 44/44/44 45/45/45
f 46/46/46 47/47/47 48/48/48
f 49/49/49 50/50/50 51/51/51
f 52/52/52 53/53/53 54/54/54
f 55/55/55 56/56/56 57/57/57
f 58/58/58 59/59/59 60/60/60
f 61/61/61 62/62/62 63/63/63
f 64/64/64 65/65/65 66/66/66
f 67/67/67 68/68/68 69/69/69
f 70/70/70 71/71/71 72/72/72
f 73/73/73 74/74/74 75/75/75
f 76/76/76 77/77/77 78/78/78
f 79/79/79 80/80/80 81/81/81
f 82/82/82 83/83/83 84/84/84
f 85/85/85 86/86/86 87/87/87
f 88/88/88 89/89/89 90/90/90
f 91/91/91 92/92/92 93/93/93
f 94/94/94 95/95/95 96/96/96
f 97/97/97 98/98/98 99/99/99
f 100/100/100 101/101/101 102/102/102
f 103/103/103 104/104/104 105/105/105
f 106/106/106 107/107/107 108/108/108
f 109/109/109 110/110/110 111/111/111
f 112/112/112 113/113/113 114/114/114
f 115/115/115 116/116/116 117/117/117
f 118/118/118 119/119/119 120/120/120
f 121/121/121 122/122/122 123/123/123
f 124/124/124 125/125/125 126/126/126
f 127/127/127 128/128/128 129/129/129
f 130/130/130 131/131/131 132/132/132
f 133/133/133 134/134/134 135/135/135
f 136/136/136 137/137/137 138/138/138
f 139/139/139 140/140/140 141/141/141
f 142/142/142 143/143/143 144/144/144
f 145/145/145 146/146/146 147/147/147
f 148/148/148 149/149/149 150/150/150
f 151/151/151 152/152/152 153/153/153
f 154/154/154 155/155/155 156/156/156
f 157/157/157 158/158/158 159/159/159
f 160/160/160 161/161/161 162/162/162
f 163/163/163 164/164/164 165/165/165
f 166/166/166 167/167/167 168/168/168
f 169/169/169 170/170/170 171/171/171
f 172/172/172 173/173/173 174/174/174
f 175/175/175 176/176/176 177/177/177
f 178/178/178 179/179/179 180/180/180
f 181/181/181 182/182/182 183/183/183
f 184/184/184 185/185/185 186/186/186
f 187/187/187 188/188/188 189/189/189
f 190/190/190 191/191/191 192/192/192
f 193/193/193 194/194/194 195/195/195
f 196/196/196 197/197/197 198/198/198
f 199/199/199 200/200/200 201/201/201
f 202/202/202 203/203/203 204/204/204
f 205/205/205 206/206/206 207/207/207
f 208/208/208 209/209/209 210/210/210
f 211/211/211 212/212/212 213/213/213
f 214/214/214 215/215/215 216/216/216
f 217/217/217 218/218/218 219/219/219
f 220/220/220 221/221/221 222/222/222
f 223/223/223 224/224/224 225/225/225
f 226/226/226 227/227/227 228/228/228
f 229/229/229 230/230/230 231/231/231
f 232/232/232 233/233/233 234/234/234
f 235/235/235 236/236/236 237/237/237
f 238/238/238 239/239/239 240/240/240
f 241/241/241 242/242/242 243/243/243
f 244/244/244 245/245/245 246/246/246
f 247/247/247 248/248/248 249/249/249
f 250/250/250 251/251/251 252/252/252
f 253/253/253 254/254/254 255/255/255
f 256/256/256 257/257/257 258/258/258
f 259/259/259 260/260/260 261/261/261
f 262/262/262 263/263/263 264/264/264
f 265/265/265 266/266/266 267/267/267
f 268/268/268 269/269/269 270/270/270
f 271/271/271 272/272/272 273/273/273
f 274/274/274 275/275/275 276/276/276
f 277/277/277 278/278/278 279/279/279
f 280/280/280 281/281/281 282/282/282
f 283/283/283 284/284/284 285/285/285
f 286/286/286 287/287/287 288/288/288
f 289/289/289 290/290/290 291/291/291
f 292/292/292 293/293/293 294/294/294
f 295/295/295 296/296/296 297/297/297
f 298/298/298 299/299/299 300/300/300
f 301/301/301 302/302/302 303/303/303
f 304/304/304 305/305/305 306/306/306
f 307/307/307 308/308/308 309/309/309
f 310/310/310 311/311/311 312/312/312
f 313/313/313 314/314/314 315/315/315
f 316/316/316 317/317/317 318/318/318
f 319/319/319 320/320/320 321/321/321
f 322/322/322 323/323/323 324/324/324
f 325/325/325 326/326/326 327/327/327
f 328/328/328 329/329/329 330/330/330
f 331/331/331 332/332/332 333/333/333
f 334/334/334 335/335/335 336/336/336
f 337/337/337 338/338/338 339/339/339
f 340/340/340 341/341/341 342/342/342
f 343/343/343 344/344/344 345/345/345
f 346/346/346 347/347/347 348/348/348
f 349/349/349 350/350/350 351/351/351
f 352/352/352 353/353/353 354/354/354
f 355/355/355 356/356/356 357/357/357
f 358/358/358 359/359/359 360/360/360
f 361/361/361 362/362/362 363/363/363
f 364/364/364 365/365/365 366/366/366
f 367/367/367 368/368/368 369/369/369
f 370/370/370 371/371/371 372/372/372
f 373/373/373 374/374/374 375/375/375
f 376/376/376 377/377/377 378/378/378
f 379/379/379 380/380/380 381/381/381
f 382/382/382 383/383/383 384/384/384
f 385/385/385 386/386/386 387/387/387
f 388/388/388 389/389/389 390/390/390
f 391/391/391 392/392/392 393/393/393
f 394/394/394 395/395/395 396/396/396
f 397/397/397 398/398/398 399/399/399
f 400/400/400 401/401/401 402/402/402
f 403/403/403 404/404/404 405/405/405
f 406/406/406 407/407/407 408/408/408
f 409/409/409 410/410/410 411/411/411
f 412/412/412 413/413/413 414/414/414
f 415/415/415 416/416/416 417/417/417
f 418/418/418 419/419/419 420/420/420
f 421/421/421 422/422/422 423/423/423
f 424/424/424 425/425/425 426/426/426
f 427/427/427 428/428/428 429/429/429
f 430/430/430 431/431/431 432/432/432
f 433/433/433 434/434/434 435/435/435
f 436/436/436 437/437/437 438/438/438
f 439/439/439 440/440/440 441/441/441
f 442/442/442 443/443/443 444/444/444
f 445/445/445 446/446/446 447/447/447
f 448/448/448 449/449/449 450/450/450
f 451/451/451 452/452/452 453/453/453
f 454/454/454 455/455/455 456/456/456
f 457/457/457 458/458/458 459/459/459
f 460/460/460 461/461/461 462/462/462
f 463/463/463 464/464/464 465/465/465
f 466/466/466 467/467/467 468/468/468
f 469/469/469 470/470/470 471/471/471
f 472/472/472 473/473/473 474/474/474
f 475/475/475 476/476/476 477/477/477
f 478/478/478 479/479/479 480/480/480
f 481/481/481 482/482/482 483/483/483
f 484/484/484 485/485/485 486/486/486
f 487/487/487 488/488/488 489/489/489
f 490/490/490 491/491/491 492/492/492
f 493/493/493 494/494/494 495/495/495
f 496/496/496 497/497/497 498/498/498
f 499/499/499 500/500/500 501/501/501
f 502/502/502 503/503/503 504/504/504
f 505/505/505 506/506/506 507/507/507
f 508/508/508 509/509/509 510/510/510
f 511/511/511 512/512/512 513/513/513
f 514/514/514 515/515/515 516/516/516
f 517/517/517 518/518/518 519/519/519
f 520/520/520 521/521/521 522/522/522
f 523/523/523 524/524/524 525/525/525
f 526/526/526 527/527/527 528/528/528
f 529/529/529 530/530/530 531/531/531
f 532/532/532 533/533/533 534/534/534
f 535/535/535 536/536/536 537/537/537
f 538/538/538 539/539/539 540/540/540
f 541/541/541 542/542/542 543/543/543
f 544/544/544 545/545/545 546/546/546
f 547/547/547 548/548/548 549/549/549
f 550/550/550 551/551/551 552/552/552
f 553/553/553 554/554/554 555/555/555
f 556/556/556 557/557/557 558/558/558
f 559/559/559 560/560/560 561/561/561
f 562/562/562 563/563/563 564/564/564
f 565/565/565 566/566/566 567/567/567
f 568/568/568 569/569/569 570/570/570
f 571/571/571 572/572/572 573/573/573
f 574/574/574 575/575/575 576/576/576
f 577/577/577 578/578/578 579/579/579
f 580/580/580 581/581/581 582/582/582
f 583/583/583 584/584/584 585/585/585
f 586/586/586 587/587/587 588/588/588
f 589/589/589 590/590/590 591/591/591
f 592/592/592 593/593/593 594/594/594
f 595/595/595 596/596/596 597/597/597
f 598/598/598 599/599/599 600/600/600
f 601/601/601 602/602/602 603/603/603
f 604/604/604 605/605/605 606/606/606
f 607/607/607 608/608/608 609/609/609
f 610/610/610 611/611/611 612/612/612
f 613/613/613 614/614/614 615/615/615
f 616/616/616 617/617/617 618/618/618
f 619/619/619 620/620/620 621/621/621
f 622/622/622 623/623/623 624/624/624
f 625/625/625 626/626/626 627/627/627
f 628/628/628 629/629/629 630/630/630
f 631/631/631 632/632/632 633/633/633
f 634/634/634 635/635/635 636/636/636
f 637/637/637 638/638/638 639/639/639
f 640/640/640 641/641/641 642/642/642
f 643/643/643 644/644/644 645/645/645
f 646/646/646 647/647/647 648/648/648
f 649/649/649 650/650/650 651/651/651
f 652/652/652 653/653/653 654/654/654
f 655/655/655 656/656/656 657/657/657
f 658/658/658 659/659/659 660/660/660
f 661/661/661 662/662/662 663/663/663
f 664/664/664 665/665/665 666/666/666
f 667/667/667 668/668/668 669/669/669
f 670/670/670 671/671/671 672/672/672
f 673/673/673 674/674/674 675/675/675
f 676/676/676 677/677/677 678/678/678
f 679/679/679 680/680/680 681/681/681
f 682/682/682 683/683/683 684/684/684
f 685/685/685 686/686/686 687/687/687
f 688/688/688 689/689/689 690/690/690
f 691/691/691 692/692/692 693/693/693
f 694/694/694 695/695/695 696/696/696
f 697/697/697 698/698/698 699/699/699
f 700/700/700 701/701/701 702/702/702
f 703/703/703 704/704/704 705/705/705
f 706/706/706 707/707/707 708/708/708
f 709/709/709 710/710/710 711/711/711
f 712/712/712 713/713/713 714/714/714
f 715/715/715 716/716/716 717/717/717
f 718/718/718 719/719/719 720/720/720
f 721/721/721 722/722/722 723/723/723
f 724/724/724 725/725/725 726/726/726
f 727/727/727 728/728/728 729/729/729
f 730/730/730 731/731/731 732/732/732
f 733/733/733 734/734/734 735/735/735
f 736/736/736 737/737/737 738/738/738
f 739/739/739 740/740/740 741/741/741
f 742/742/742 743/743/743 744/744/744
f 745/745/745 746/746/746 747/747/747
f 748/748/748 749/749/749 750/750/750
f 751/751/751 752/752/752 753/753/753
f 754/754/754 755/755/755 756/756/756
f 757/757/757 758/758/758 759/759/759
f 760/760/760 761/761/761 762/762/762
f 763/763/763 764/764/764 765/765/765
f 766/766/766 767/767/767 768/768/768
f 769/769/769 770/770/770 771/771/771
f 772/772/772 773/773/773 774/774/774
f 775/775/775 776/776/776 777/777/777
f 778/778/778 779/779/779 780/780/780
f 781/781/781 782/782/782 783/783/783
f 784/784/784 785/785/785 786/786/786
