# Viewpoint furniture test asset; Z up, tile units.
mtllib ../Materials/counter_segment.mtl
o counter_segment
v -0.458000 -0.458000 0.030000
v -0.458000 -0.470000 0.042000
v -0.470000 -0.458000 0.042000
v -0.458000 -0.470000 0.798000
v -0.458000 -0.458000 0.810000
v -0.470000 -0.458000 0.798000
v -0.458000 0.458000 0.030000
v -0.470000 0.458000 0.042000
v -0.458000 0.470000 0.042000
v -0.458000 0.458000 0.810000
v -0.458000 0.470000 0.798000
v -0.470000 0.458000 0.798000
v 0.458000 -0.458000 0.030000
v 0.470000 -0.458000 0.042000
v 0.458000 -0.470000 0.042000
v 0.458000 -0.458000 0.810000
v 0.458000 -0.470000 0.798000
v 0.470000 -0.458000 0.798000
v 0.458000 0.458000 0.030000
v 0.458000 0.470000 0.042000
v 0.470000 0.458000 0.042000
v 0.458000 0.458000 0.810000
v 0.470000 0.458000 0.798000
v 0.458000 0.470000 0.798000
v -0.315000 -0.556000 0.882000
v -0.315000 -0.556000 0.896000
v -0.315000 -0.550000 0.882000
v -0.315000 -0.550000 0.896000
v -0.225000 -0.556000 0.882000
v -0.225000 -0.556000 0.896000
v -0.225000 -0.550000 0.882000
v -0.225000 -0.550000 0.896000
v -0.380500 -0.498000 0.165000
v -0.380500 -0.502500 0.169500
v -0.385000 -0.498000 0.169500
v -0.380500 -0.502500 0.690500
v -0.380500 -0.498000 0.695000
v -0.385000 -0.498000 0.690500
v -0.380500 -0.498000 0.165000
v -0.385000 -0.498000 0.169500
v -0.380500 -0.493500 0.169500
v -0.380500 -0.498000 0.695000
v -0.380500 -0.493500 0.690500
v -0.385000 -0.498000 0.690500
v -0.059500 -0.498000 0.165000
v -0.055000 -0.498000 0.169500
v -0.059500 -0.502500 0.169500
v -0.059500 -0.498000 0.695000
v -0.059500 -0.502500 0.690500
v -0.055000 -0.498000 0.690500
v -0.059500 -0.498000 0.165000
v -0.059500 -0.493500 0.169500
v -0.055000 -0.498000 0.169500
v -0.059500 -0.498000 0.695000
v -0.055000 -0.498000 0.690500
v -0.059500 -0.493500 0.690500
v 0.059500 -0.498000 0.165000
v 0.059500 -0.502500 0.169500
v 0.055000 -0.498000 0.169500
v 0.059500 -0.502500 0.690500
v 0.059500 -0.498000 0.695000
v 0.055000 -0.498000 0.690500
v 0.059500 -0.498000 0.165000
v 0.055000 -0.498000 0.169500
v 0.059500 -0.493500 0.169500
v 0.059500 -0.498000 0.695000
v 0.059500 -0.493500 0.690500
v 0.055000 -0.498000 0.690500
v 0.380500 -0.498000 0.165000
v 0.385000 -0.498000 0.169500
v 0.380500 -0.502500 0.169500
v 0.380500 -0.498000 0.695000
v 0.380500 -0.502500 0.690500
v 0.385000 -0.498000 0.690500
v 0.380500 -0.498000 0.165000
v 0.380500 -0.493500 0.169500
v 0.385000 -0.498000 0.169500
v 0.380500 -0.498000 0.695000
v 0.385000 -0.498000 0.690500
v 0.380500 -0.493500 0.690500
v -0.419500 -0.485500 0.105000
v -0.419500 -0.493500 0.113000
v -0.427500 -0.485500 0.113000
v -0.419500 -0.493500 0.747000
v -0.419500 -0.485500 0.755000
v -0.427500 -0.485500 0.747000
v -0.419500 -0.476500 0.105000
v -0.427500 -0.476500 0.113000
v -0.419500 -0.468500 0.113000
v -0.419500 -0.476500 0.755000
v -0.419500 -0.468500 0.747000
v -0.427500 -0.476500 0.747000
v -0.020500 -0.485500 0.105000
v -0.012500 -0.485500 0.113000
v -0.020500 -0.493500 0.113000
v -0.020500 -0.485500 0.755000
v -0.020500 -0.493500 0.747000
v -0.012500 -0.485500 0.747000
v -0.020500 -0.476500 0.105000
v -0.020500 -0.468500 0.113000
v -0.012500 -0.476500 0.113000
v -0.020500 -0.476500 0.755000
v -0.012500 -0.476500 0.747000
v -0.020500 -0.468500 0.747000
v 0.020500 -0.485500 0.105000
v 0.020500 -0.493500 0.113000
v 0.012500 -0.485500 0.113000
v 0.020500 -0.493500 0.747000
v 0.020500 -0.485500 0.755000
v 0.012500 -0.485500 0.747000
v 0.020500 -0.476500 0.105000
v 0.012500 -0.476500 0.113000
v 0.020500 -0.468500 0.113000
v 0.020500 -0.476500 0.755000
v 0.020500 -0.468500 0.747000
v 0.012500 -0.476500 0.747000
v 0.419500 -0.485500 0.105000
v 0.427500 -0.485500 0.113000
v 0.419500 -0.493500 0.113000
v 0.419500 -0.485500 0.755000
v 0.419500 -0.493500 0.747000
v 0.427500 -0.485500 0.747000
v 0.419500 -0.476500 0.105000
v 0.419500 -0.468500 0.113000
v 0.427500 -0.476500 0.113000
v 0.419500 -0.476500 0.755000
v 0.427500 -0.476500 0.747000
v 0.419500 -0.468500 0.747000
v -0.432000 -0.452000 0.015000
v -0.432000 -0.460000 0.023000
v -0.440000 -0.452000 0.023000
v -0.432000 -0.460000 0.127000
v -0.432000 -0.452000 0.135000
v -0.440000 -0.452000 0.127000
v -0.432000 0.432000 0.015000
v -0.440000 0.432000 0.023000
v -0.432000 0.440000 0.023000
v -0.432000 0.432000 0.135000
v -0.432000 0.440000 0.127000
v -0.440000 0.432000 0.127000
v 0.432000 -0.452000 0.015000
v 0.440000 -0.452000 0.023000
v 0.432000 -0.460000 0.023000
v 0.432000 -0.452000 0.135000
v 0.432000 -0.460000 0.127000
v 0.440000 -0.452000 0.127000
v 0.432000 0.432000 0.015000
v 0.432000 0.440000 0.023000
v 0.440000 0.432000 0.023000
v 0.432000 0.432000 0.135000
v 0.440000 0.432000 0.127000
v 0.432000 0.440000 0.127000
v -0.488000 -0.488000 0.810000
v -0.488000 -0.500000 0.822000
v -0.500000 -0.488000 0.822000
v -0.488000 -0.500000 0.898000
v -0.488000 -0.488000 0.910000
v -0.500000 -0.488000 0.898000
v -0.488000 0.488000 0.810000
v -0.500000 0.488000 0.822000
v -0.488000 0.500000 0.822000
v -0.488000 0.488000 0.910000
v -0.488000 0.500000 0.898000
v -0.500000 0.488000 0.898000
v 0.488000 -0.488000 0.810000
v 0.500000 -0.488000 0.822000
v 0.488000 -0.500000 0.822000
v 0.488000 -0.488000 0.910000
v 0.488000 -0.500000 0.898000
v 0.500000 -0.488000 0.898000
v 0.488000 0.488000 0.810000
v 0.488000 0.500000 0.822000
v 0.500000 0.488000 0.822000
v 0.488000 0.488000 0.910000
v 0.500000 0.488000 0.898000
v 0.488000 0.500000 0.898000
vn -0.577347 -0.577353 -0.577351
vn -0.577346 -0.577352 0.577352
vn -0.577347 0.577353 -0.577351
vn -0.577346 0.577352 0.577352
vn 0.577349 -0.577349 -0.577353
vn 0.577348 -0.577348 0.577354
vn 0.577348 0.577351 -0.577352
vn 0.577347 0.577350 0.577353
vn -0.707104 -0.000000 -0.707109
vn -0.707104 0.000000 -0.707109
vn -0.707103 -0.707110 0.000000
vn -0.707103 -0.707110 0.000000
vn -0.707103 0.000000 0.707110
vn -0.707103 0.000000 0.707110
vn -0.707103 0.707110 0.000000
vn -0.707103 0.707110 0.000000
vn 0.000000 0.707108 -0.707106
vn -0.000000 0.707106 -0.707108
vn -0.000000 0.707105 0.707109
vn -0.000000 0.707107 0.707107
vn 0.707105 0.707109 0.000000
vn 0.707105 0.707109 0.000000
vn 0.707104 0.000000 -0.707109
vn 0.707104 0.000000 -0.707109
vn 0.707103 0.000000 0.707110
vn 0.707103 0.000000 0.707110
vn 0.707107 -0.707107 0.000000
vn 0.707107 -0.707107 0.000000
vn 0.000000 -0.707104 -0.707109
vn 0.000000 -0.707108 -0.707106
vn 0.000000 -0.707107 0.707107
vn 0.000000 -0.707103 0.707110
vn 0.000000 0.000000 -1.000000
vn 0.000000 0.000000 -1.000000
vn -1.000000 0.000000 0.000000
vn -1.000000 0.000000 0.000000
vn 0.000000 -1.000000 0.000000
vn 0.000000 -1.000000 0.000000
vn 0.000000 0.000000 1.000000
vn 0.000000 0.000000 1.000000
vn -0.000000 1.000000 0.000000
vn -0.000000 1.000000 0.000000
vn 1.000000 0.000000 -0.000000
vn 1.000000 0.000000 0.000000
vn -1.000000 0.000000 0.000000
vn -1.000000 0.000000 0.000000
vn 0.000000 1.000000 0.000000
vn 0.000000 1.000000 0.000000
vn 1.000000 0.000000 -0.000000
vn 1.000000 0.000000 0.000000
vn 0.000000 -1.000000 0.000000
vn 0.000000 -1.000000 0.000000
vn 0.000000 0.000000 -1.000000
vn 0.000000 0.000000 -1.000000
vn 0.000000 0.000000 1.000000
vn 0.000000 0.000000 1.000000
vn -0.577359 -0.577344 -0.577348
vn -0.577358 -0.577343 0.577350
vn -0.577359 0.577344 -0.577348
vn -0.577358 0.577343 0.577350
vn 0.577359 -0.577344 -0.577348
vn 0.577358 -0.577343 0.577350
vn 0.577359 0.577344 -0.577348
vn 0.577358 0.577343 0.577350
vn -0.707116 -0.707097 0.000000
vn -0.707116 -0.707097 0.000000
vn -0.707116 0.707097 0.000000
vn -0.707116 0.707097 0.000000
vn 0.000000 0.707105 -0.707109
vn 0.000000 0.707105 -0.707109
vn -0.000000 0.707102 0.707111
vn 0.000000 0.707102 0.707111
vn 0.707116 0.707097 0.000000
vn 0.707116 0.707097 0.000000
vn 0.707116 -0.707097 0.000000
vn 0.707116 -0.707097 0.000000
vn 0.000000 -0.707105 -0.707109
vn 0.000000 -0.707105 -0.707109
vn 0.000000 -0.707102 0.707111
vn 0.000000 -0.707102 0.707111
vn 0.000000 -1.000000 0.000000
vn 0.000000 -1.000000 0.000000
vn 0.000000 1.000000 0.000000
vn 0.000000 1.000000 0.000000
vn -0.577359 -0.577344 -0.577348
vn -0.577358 -0.577343 0.577350
vn -0.577359 0.577344 -0.577348
vn -0.577358 0.577343 0.577350
vn 0.577359 -0.577344 -0.577348
vn 0.577358 -0.577343 0.577350
vn 0.577359 0.577344 -0.577348
vn 0.577358 0.577343 0.577350
vn -0.707116 -0.707097 0.000000
vn -0.707116 -0.707097 0.000000
vn -0.707116 0.707097 0.000000
vn -0.707116 0.707097 0.000000
vn 0.000000 0.707105 -0.707109
vn 0.000000 0.707105 -0.707109
vn -0.000000 0.707102 0.707111
vn 0.000000 0.707102 0.707111
vn 0.707116 0.707097 0.000000
vn 0.707116 0.707097 0.000000
vn 0.707116 -0.707097 0.000000
vn 0.707116 -0.707097 0.000000
vn 0.000000 -0.707105 -0.707109
vn 0.000000 -0.707105 -0.707109
vn 0.000000 -0.707102 0.707111
vn 0.000000 -0.707102 0.707111
vn 0.000000 -1.000000 0.000000
vn 0.000000 -1.000000 0.000000
vn 0.000000 1.000000 0.000000
vn 0.000000 1.000000 0.000000
vn -0.577355 -0.577347 -0.577349
vn -0.577356 -0.577347 0.577347
vn -0.577355 0.577347 -0.577349
vn -0.577356 0.577347 0.577347
vn 0.577355 -0.577347 -0.577349
vn 0.577356 -0.577347 0.577347
vn 0.577355 0.577347 -0.577349
vn 0.577356 0.577347 0.577347
vn -0.707111 -0.000000 -0.707103
vn -0.707111 0.000000 -0.707103
vn -0.707112 -0.707102 0.000000
vn -0.707112 -0.707102 0.000000
vn -0.707112 0.000000 0.707101
vn -0.707112 0.000000 0.707101
vn -0.707112 0.707102 0.000000
vn -0.707112 0.707102 0.000000
vn 0.000000 0.707105 -0.707108
vn 0.000000 0.707105 -0.707108
vn -0.000000 0.707107 0.707107
vn 0.000000 0.707107 0.707107
vn 0.707112 0.707102 0.000000
vn 0.707112 0.707102 0.000000
vn 0.707111 0.000000 -0.707103
vn 0.707111 0.000000 -0.707103
vn 0.707112 0.000000 0.707101
vn 0.707112 0.000000 0.707101
vn 0.707112 -0.707102 0.000000
vn 0.707112 -0.707102 0.000000
vn 0.000000 -0.707105 -0.707108
vn 0.000000 -0.707105 -0.707108
vn 0.000000 -0.707107 0.707107
vn 0.000000 -0.707107 0.707107
vn 0.000000 0.000000 -1.000000
vn 0.000000 0.000000 -1.000000
vn -1.000000 0.000000 0.000000
vn -1.000000 0.000000 0.000000
vn 0.000000 -1.000000 0.000000
vn 0.000000 -1.000000 0.000000
vn 0.000000 0.000000 1.000000
vn 0.000000 0.000000 1.000000
vn 0.000000 1.000000 0.000000
vn 0.000000 1.000000 0.000000
vn 1.000000 0.000000 -0.000000
vn 1.000000 0.000000 0.000000
vn -0.577355 -0.577347 -0.577349
vn -0.577356 -0.577347 0.577347
vn -0.577355 0.577347 -0.577349
vn -0.577356 0.577347 0.577347
vn 0.577355 -0.577347 -0.577349
vn 0.577356 -0.577347 0.577347
vn 0.577355 0.577347 -0.577349
vn 0.577356 0.577347 0.577347
vn -0.707111 -0.000000 -0.707103
vn -0.707111 0.000000 -0.707103
vn -0.707112 -0.707102 0.000000
vn -0.707112 -0.707102 0.000000
vn -0.707112 0.000000 0.707101
vn -0.707112 0.000000 0.707101
vn -0.707112 0.707102 0.000000
vn -0.707112 0.707102 0.000000
vn 0.000000 0.707105 -0.707108
vn 0.000000 0.707105 -0.707108
vn -0.000000 0.707107 0.707107
vn 0.000000 0.707107 0.707107
vn 0.707112 0.707102 0.000000
vn 0.707112 0.707102 0.000000
vn 0.707111 0.000000 -0.707103
vn 0.707111 0.000000 -0.707103
vn 0.707112 0.000000 0.707101
vn 0.707112 0.000000 0.707101
vn 0.707112 -0.707102 0.000000
vn 0.707112 -0.707102 0.000000
vn 0.000000 -0.707105 -0.707108
vn 0.000000 -0.707105 -0.707108
vn 0.000000 -0.707107 0.707107
vn 0.000000 -0.707107 0.707107
vn 0.000000 0.000000 -1.000000
vn 0.000000 0.000000 -1.000000
vn -1.000000 0.000000 0.000000
vn -1.000000 0.000000 0.000000
vn 0.000000 -1.000000 0.000000
vn 0.000000 -1.000000 0.000000
vn 0.000000 0.000000 1.000000
vn 0.000000 0.000000 1.000000
vn 0.000000 1.000000 0.000000
vn 0.000000 1.000000 0.000000
vn 1.000000 0.000000 -0.000000
vn 1.000000 0.000000 0.000000
vn -0.577344 -0.577353 -0.577354
vn -0.577344 -0.577353 0.577354
vn -0.577344 0.577353 -0.577354
vn -0.577344 0.577353 0.577354
vn 0.577341 -0.577359 -0.577351
vn 0.577341 -0.577358 0.577351
vn 0.577343 0.577356 -0.577353
vn 0.577343 0.577356 0.577352
vn -0.707101 -0.000000 -0.707113
vn -0.707101 0.000000 -0.707113
vn -0.707102 -0.707112 0.000000
vn -0.707102 -0.707112 0.000000
vn -0.707101 0.000000 0.707113
vn -0.707101 0.000000 0.707113
vn -0.707102 0.707112 0.000000
vn -0.707102 0.707112 0.000000
vn -0.000000 0.707106 -0.707107
vn 0.000000 0.707109 -0.707105
vn -0.000000 0.707109 0.707105
vn 0.000000 0.707106 0.707107
vn 0.707099 0.707115 0.000000
vn 0.707099 0.707115 0.000000
vn 0.707101 0.000000 -0.707113
vn 0.707101 0.000000 -0.707113
vn 0.707101 0.000000 0.707113
vn 0.707101 0.000000 0.707113
vn 0.707096 -0.707117 0.000000
vn 0.707096 -0.707117 0.000000
vn 0.000000 -0.707111 -0.707102
vn 0.000000 -0.707106 -0.707107
vn 0.000000 -0.707106 0.707107
vn 0.000000 -0.707111 0.707102
vn 0.000000 0.000000 -1.000000
vn 0.000000 0.000000 -1.000000
vn -1.000000 0.000000 0.000000
vn -1.000000 0.000000 0.000000
vn 0.000000 -1.000000 0.000000
vn 0.000000 -1.000000 0.000000
vn 0.000000 0.000000 1.000000
vn 0.000000 0.000000 1.000000
vn 0.000000 1.000000 0.000000
vn 0.000000 1.000000 0.000000
vn 1.000000 0.000000 -0.000000
vn 1.000000 0.000000 0.000000
vn -0.577348 -0.577353 -0.577350
vn -0.577348 -0.577353 0.577350
vn -0.577349 0.577351 -0.577351
vn -0.577349 0.577351 0.577351
vn 0.577347 -0.577353 -0.577350
vn 0.577347 -0.577353 0.577350
vn 0.577347 0.577353 -0.577350
vn 0.577347 0.577353 0.577350
vn -0.707106 -0.000000 -0.707108
vn -0.707106 0.000000 -0.707108
vn -0.707104 -0.707109 0.000000
vn -0.707104 -0.707109 0.000000
vn -0.707106 0.000000 0.707108
vn -0.707106 0.000000 0.707108
vn -0.707106 0.707108 0.000000
vn -0.707106 0.707108 0.000000
vn -0.000000 0.707107 -0.707107
vn 0.000000 0.707109 -0.707105
vn -0.000000 0.707109 0.707105
vn 0.000000 0.707107 0.707107
vn 0.707103 0.707110 0.000000
vn 0.707103 0.707110 0.000000
vn 0.707105 0.000000 -0.707109
vn 0.707105 0.000000 -0.707109
vn 0.707105 0.000000 0.707109
vn 0.707105 0.000000 0.707109
vn 0.707103 -0.707110 0.000000
vn 0.707103 -0.707110 0.000000
vn 0.000000 -0.707109 -0.707105
vn 0.000000 -0.707109 -0.707105
vn 0.000000 -0.707109 0.707105
vn 0.000000 -0.707109 0.707105
vn 0.000000 0.000000 -1.000000
vn 0.000000 0.000000 -1.000000
vn -1.000000 0.000000 0.000000
vn -1.000000 0.000000 0.000000
vn 0.000000 -1.000000 0.000000
vn 0.000000 -1.000000 0.000000
vn 0.000000 0.000000 1.000000
vn 0.000000 0.000000 1.000000
vn 0.000000 1.000000 0.000000
vn 0.000000 1.000000 0.000000
vn 1.000000 0.000000 -0.000000
vn 1.000000 0.000000 0.000000
usemtl UV_Base
vt 0.202979394 0.917968750
vt 0.205078125 0.921603858
vt 0.200880664 0.921603858
vt 0.218750000 0.921603858
vt 0.214552539 0.921603858
vt 0.216651269 0.917968750
vt 0.230323144 0.917968750
vt 0.232421875 0.921603858
vt 0.228224414 0.921603858
vt 0.246093750 0.921603858
vt 0.241896289 0.921603858
vt 0.243995019 0.917968750
vt 0.257666894 0.917968750
vt 0.259765625 0.921603858
vt 0.255568164 0.921603858
vt 0.269240039 0.917968750
vt 0.273437500 0.917968750
vt 0.271338769 0.921603858
vt 0.285010644 0.917968750
vt 0.287109375 0.921603858
vt 0.282911914 0.921603858
vt 0.300781250 0.917968750
vt 0.298682519 0.921603858
vt 0.296583789 0.917968750
vt 0.825880664 0.480467656
vt 0.825880664 0.253906250
vt 0.830078125 0.253906250
vt 0.825880664 0.480467656
vt 0.830078125 0.253906250
vt 0.830078125 0.480467656
vt 0.244140625 0.488281250
vt 0.244140625 0.675268611
vt 0.239943164 0.675268611
vt 0.244140625 0.488281250
vt 0.239943164 0.675268611
vt 0.239943164 0.488281250
vt 0.843750000 0.253906250
vt 0.843750000 0.480467656
vt 0.839552539 0.480467656
vt 0.843750000 0.253906250
vt 0.839552539 0.480467656
vt 0.839552539 0.253906250
vt 0.253615039 0.675268611
vt 0.253615039 0.488281250
vt 0.257812500 0.488281250
vt 0.253615039 0.675268611
vt 0.257812500 0.488281250
vt 0.257812500 0.675268611
vt 0.853224414 0.480467656
vt 0.853224414 0.253906250
vt 0.857421875 0.253906250
vt 0.853224414 0.480467656
vt 0.857421875 0.253906250
vt 0.857421875 0.480467656
vt 0.871093750 0.253906250
vt 0.871093750 0.480467656
vt 0.866896289 0.480467656
vt 0.871093750 0.253906250
vt 0.866896289 0.480467656
vt 0.866896289 0.253906250
vt 0.267286914 0.675268611
vt 0.267286914 0.488281250
vt 0.271484375 0.488281250
vt 0.267286914 0.675268611
vt 0.271484375 0.488281250
vt 0.271484375 0.675268611
vt 0.884765625 0.253906250
vt 0.884765625 0.480467656
vt 0.880568164 0.480467656
vt 0.884765625 0.253906250
vt 0.880568164 0.480467656
vt 0.880568164 0.253906250
vt 0.894240039 0.480467656
vt 0.894240039 0.253906250
vt 0.898437500 0.253906250
vt 0.894240039 0.480467656
vt 0.898437500 0.253906250
vt 0.898437500 0.480467656
vt 0.280958789 0.675268611
vt 0.280958789 0.488281250
vt 0.285156250 0.488281250
vt 0.280958789 0.675268611
vt 0.285156250 0.488281250
vt 0.285156250 0.675268611
vt 0.912109375 0.253906250
vt 0.912109375 0.480467656
vt 0.907911914 0.480467656
vt 0.912109375 0.253906250
vt 0.907911914 0.480467656
vt 0.907911914 0.253906250
vt 0.921583789 0.480467656
vt 0.921583789 0.253906250
vt 0.925781250 0.253906250
vt 0.921583789 0.480467656
vt 0.925781250 0.253906250
vt 0.925781250 0.480467656
vt 0.722656250 0.003906250
vt 0.949217656 0.003906250
vt 0.949217656 0.230467656
vt 0.722656250 0.003906250
vt 0.949217656 0.230467656
vt 0.722656250 0.230467656
vt 0.238793889 0.253906250
vt 0.425781250 0.253906250
vt 0.425781250 0.480467656
vt 0.238793889 0.253906250
vt 0.425781250 0.480467656
vt 0.238793889 0.480467656
vt 0.621093750 0.480467656
vt 0.434106389 0.480467656
vt 0.434106389 0.253906250
vt 0.621093750 0.480467656
vt 0.434106389 0.253906250
vt 0.621093750 0.253906250
vt 0.230467656 0.480467656
vt 0.003906250 0.480467656
vt 0.003906250 0.253906250
vt 0.230467656 0.480467656
vt 0.003906250 0.253906250
vt 0.230467656 0.253906250
vt 0.629418889 0.253906250
vt 0.816406250 0.253906250
vt 0.816406250 0.480467656
vt 0.629418889 0.253906250
vt 0.816406250 0.480467656
vt 0.629418889 0.480467656
vt 0.230467656 0.488281250
vt 0.230467656 0.675268611
vt 0.003906250 0.675268611
vt 0.230467656 0.488281250
vt 0.003906250 0.675268611
vt 0.003906250 0.488281250
vt 0.992187500 0.909712729
vt 0.992187500 0.906250000
vt 0.993671527 0.906250000
vt 0.992187500 0.909712729
vt 0.993671527 0.906250000
vt 0.993671527 0.909712729
vt 0.074218750 0.921431479
vt 0.074218750 0.917968750
vt 0.096479150 0.917968750
vt 0.074218750 0.921431479
vt 0.096479150 0.917968750
vt 0.096479150 0.921431479
vt 0.419452777 0.917968750
vt 0.419452777 0.921431479
vt 0.417968750 0.921431479
vt 0.419452777 0.917968750
vt 0.417968750 0.921431479
vt 0.417968750 0.917968750
vt 0.127729150 0.917968750
vt 0.127729150 0.921431479
vt 0.105468750 0.921431479
vt 0.127729150 0.917968750
vt 0.105468750 0.921431479
vt 0.105468750 0.917968750
vt 0.136718750 0.917968750
vt 0.158979150 0.917968750
vt 0.158979150 0.919452777
vt 0.136718750 0.917968750
vt 0.158979150 0.919452777
vt 0.136718750 0.919452777
vt 0.190229150 0.919452777
vt 0.167968750 0.919452777
vt 0.167968750 0.917968750
vt 0.190229150 0.919452777
vt 0.167968750 0.917968750
vt 0.190229150 0.917968750
vt 0.429687500 0.918755774
vt 0.431050666 0.917968750
vt 0.431050666 0.919542798
vt 0.442769416 0.917968750
vt 0.442769416 0.919542798
vt 0.441406250 0.918755774
vt 0.454488166 0.919542798
vt 0.453125000 0.918755774
vt 0.454488166 0.917968750
vt 0.466206916 0.917968750
vt 0.466206916 0.919542798
vt 0.464843750 0.918755774
vt 0.476562500 0.918755774
vt 0.477925666 0.917968750
vt 0.477925666 0.919542798
vt 0.488281250 0.919542798
vt 0.488281250 0.917968750
vt 0.489644416 0.918755774
vt 0.500000000 0.919542798
vt 0.500000000 0.917968750
vt 0.501363166 0.918755774
vt 0.511718750 0.917968750
vt 0.513081916 0.918755774
vt 0.511718750 0.919542798
vt 0.955078125 0.488281250
vt 0.955078125 0.617144233
vt 0.953504077 0.617144233
vt 0.955078125 0.488281250
vt 0.953504077 0.617144233
vt 0.953504077 0.488281250
vt 0.965222827 0.617144233
vt 0.965222827 0.488281250
vt 0.966796875 0.488281250
vt 0.965222827 0.617144233
vt 0.966796875 0.488281250
vt 0.966796875 0.617144233
vt 0.298145427 0.907824048
vt 0.218750000 0.907824048
vt 0.218750000 0.906250000
vt 0.298145427 0.907824048
vt 0.218750000 0.906250000
vt 0.298145427 0.906250000
vt 0.306640625 0.906250000
vt 0.386036052 0.906250000
vt 0.386036052 0.907824048
vt 0.306640625 0.906250000
vt 0.386036052 0.907824048
vt 0.306640625 0.907824048
vt 0.976941577 0.617144233
vt 0.976941577 0.488281250
vt 0.978515625 0.488281250
vt 0.976941577 0.617144233
vt 0.978515625 0.488281250
vt 0.978515625 0.617144233
vt 0.988660327 0.617144233
vt 0.988660327 0.488281250
vt 0.990234375 0.488281250
vt 0.988660327 0.617144233
vt 0.990234375 0.488281250
vt 0.990234375 0.617144233
vt 0.394531250 0.906250000
vt 0.473926677 0.906250000
vt 0.473926677 0.907824048
vt 0.394531250 0.906250000
vt 0.473926677 0.907824048
vt 0.394531250 0.907824048
vt 0.561817302 0.907824048
vt 0.482421875 0.907824048
vt 0.482421875 0.906250000
vt 0.561817302 0.907824048
vt 0.482421875 0.906250000
vt 0.561817302 0.906250000
vt 0.942676677 0.488281250
vt 0.942676677 0.617144233
vt 0.863281250 0.617144233
vt 0.942676677 0.488281250
vt 0.863281250 0.617144233
vt 0.863281250 0.488281250
vt 0.574218750 0.812456733
vt 0.574218750 0.683593750
vt 0.653614177 0.683593750
vt 0.574218750 0.812456733
vt 0.653614177 0.683593750
vt 0.653614177 0.812456733
vt 0.523437500 0.918755774
vt 0.524800666 0.917968750
vt 0.524800666 0.919542798
vt 0.536519416 0.917968750
vt 0.536519416 0.919542798
vt 0.535156250 0.918755774
vt 0.548238166 0.919542798
vt 0.546875000 0.918755774
vt 0.548238166 0.917968750
vt 0.559956916 0.917968750
vt 0.559956916 0.919542798
vt 0.558593750 0.918755774
vt 0.570312500 0.918755774
vt 0.571675666 0.917968750
vt 0.571675666 0.919542798
vt 0.582031250 0.919542798
vt 0.582031250 0.917968750
vt 0.583394416 0.918755774
vt 0.593750000 0.919542798
vt 0.593750000 0.917968750
vt 0.595113166 0.918755774
vt 0.605468750 0.917968750
vt 0.606831916 0.918755774
vt 0.605468750 0.919542798
vt 0.841796875 0.683593750
vt 0.841796875 0.812456733
vt 0.840222827 0.812456733
vt 0.841796875 0.683593750
vt 0.840222827 0.812456733
vt 0.840222827 0.683593750
vt 0.851941577 0.812456733
vt 0.851941577 0.683593750
vt 0.853515625 0.683593750
vt 0.851941577 0.812456733
vt 0.853515625 0.683593750
vt 0.853515625 0.812456733
vt 0.649707927 0.907824048
vt 0.570312500 0.907824048
vt 0.570312500 0.906250000
vt 0.649707927 0.907824048
vt 0.570312500 0.906250000
vt 0.649707927 0.906250000
vt 0.658203125 0.906250000
vt 0.737598552 0.906250000
vt 0.737598552 0.907824048
vt 0.658203125 0.906250000
vt 0.737598552 0.907824048
vt 0.658203125 0.907824048
vt 0.863660327 0.812456733
vt 0.863660327 0.683593750
vt 0.865234375 0.683593750
vt 0.863660327 0.812456733
vt 0.865234375 0.683593750
vt 0.865234375 0.812456733
vt 0.875379077 0.812456733
vt 0.875379077 0.683593750
vt 0.876953125 0.683593750
vt 0.875379077 0.812456733
vt 0.876953125 0.683593750
vt 0.876953125 0.812456733
vt 0.746093750 0.906250000
vt 0.825489177 0.906250000
vt 0.825489177 0.907824048
vt 0.746093750 0.906250000
vt 0.825489177 0.907824048
vt 0.746093750 0.907824048
vt 0.913379802 0.907824048
vt 0.833984375 0.907824048
vt 0.833984375 0.906250000
vt 0.913379802 0.907824048
vt 0.833984375 0.906250000
vt 0.913379802 0.906250000
vt 0.741504802 0.683593750
vt 0.741504802 0.812456733
vt 0.662109375 0.812456733
vt 0.741504802 0.683593750
vt 0.662109375 0.812456733
vt 0.662109375 0.683593750
vt 0.750000000 0.812456733
vt 0.750000000 0.683593750
vt 0.829395427 0.683593750
vt 0.750000000 0.812456733
vt 0.829395427 0.683593750
vt 0.829395427 0.812456733
vt 0.619610905 0.917968750
vt 0.619610905 0.920767058
vt 0.617187500 0.919367904
vt 0.631329655 0.917968750
vt 0.631329655 0.920767058
vt 0.628906250 0.919367904
vt 0.643048405 0.920767058
vt 0.640625000 0.919367904
vt 0.643048405 0.917968750
vt 0.654767155 0.917968750
vt 0.654767155 0.920767058
vt 0.652343750 0.919367904
vt 0.664062500 0.917968750
vt 0.666485905 0.919367904
vt 0.664062500 0.920767058
vt 0.675781250 0.920767058
vt 0.675781250 0.917968750
vt 0.678204655 0.919367904
vt 0.687500000 0.919367904
vt 0.689923405 0.917968750
vt 0.689923405 0.920767058
vt 0.701642155 0.919367904
vt 0.699218750 0.920767058
vt 0.699218750 0.917968750
vt 0.713163540 0.920767058
vt 0.710937500 0.920767058
vt 0.710937500 0.917968750
vt 0.713163540 0.920767058
vt 0.710937500 0.917968750
vt 0.713163540 0.917968750
vt 0.726562500 0.488281250
vt 0.726562500 0.645093402
vt 0.723764192 0.645093402
vt 0.726562500 0.488281250
vt 0.723764192 0.645093402
vt 0.723764192 0.488281250
vt 0.722656250 0.917968750
vt 0.724882290 0.917968750
vt 0.724882290 0.920767058
vt 0.722656250 0.917968750
vt 0.724882290 0.920767058
vt 0.722656250 0.920767058
vt 0.735482942 0.645093402
vt 0.735482942 0.488281250
vt 0.738281250 0.488281250
vt 0.735482942 0.645093402
vt 0.738281250 0.488281250
vt 0.738281250 0.645093402
vt 0.885873567 0.782281524
vt 0.885873567 0.683593750
vt 0.888671875 0.683593750
vt 0.885873567 0.782281524
vt 0.888671875 0.683593750
vt 0.888671875 0.782281524
vt 0.900390625 0.683593750
vt 0.900390625 0.782281524
vt 0.897592317 0.782281524
vt 0.900390625 0.683593750
vt 0.897592317 0.782281524
vt 0.897592317 0.683593750
vt 0.747201692 0.645093402
vt 0.747201692 0.488281250
vt 0.750000000 0.488281250
vt 0.747201692 0.645093402
vt 0.750000000 0.488281250
vt 0.750000000 0.645093402
vt 0.734375000 0.917968750
vt 0.736601040 0.917968750
vt 0.736601040 0.920767058
vt 0.734375000 0.917968750
vt 0.736601040 0.920767058
vt 0.734375000 0.920767058
vt 0.748319790 0.920767058
vt 0.746093750 0.920767058
vt 0.746093750 0.917968750
vt 0.748319790 0.920767058
vt 0.746093750 0.917968750
vt 0.748319790 0.917968750
vt 0.758920442 0.645093402
vt 0.758920442 0.488281250
vt 0.761718750 0.488281250
vt 0.758920442 0.645093402
vt 0.761718750 0.488281250
vt 0.761718750 0.645093402
vt 0.912109375 0.683593750
vt 0.912109375 0.782281524
vt 0.909311067 0.782281524
vt 0.912109375 0.683593750
vt 0.909311067 0.782281524
vt 0.909311067 0.683593750
vt 0.921029817 0.782281524
vt 0.921029817 0.683593750
vt 0.923828125 0.683593750
vt 0.921029817 0.782281524
vt 0.923828125 0.683593750
vt 0.923828125 0.782281524
vt 0.935546875 0.683593750
vt 0.935546875 0.782281524
vt 0.933320835 0.782281524
vt 0.935546875 0.683593750
vt 0.933320835 0.782281524
vt 0.933320835 0.683593750
vt 0.769531250 0.645093402
vt 0.769531250 0.488281250
vt 0.771757290 0.488281250
vt 0.769531250 0.645093402
vt 0.771757290 0.488281250
vt 0.771757290 0.645093402
vt 0.391656524 0.488281250
vt 0.391656524 0.645093402
vt 0.292968750 0.645093402
vt 0.391656524 0.488281250
vt 0.292968750 0.645093402
vt 0.292968750 0.488281250
vt 0.945039585 0.782281524
vt 0.945039585 0.683593750
vt 0.947265625 0.683593750
vt 0.945039585 0.782281524
vt 0.947265625 0.683593750
vt 0.947265625 0.782281524
vt 0.400390625 0.645093402
vt 0.400390625 0.488281250
vt 0.499078399 0.488281250
vt 0.400390625 0.645093402
vt 0.499078399 0.488281250
vt 0.499078399 0.645093402
vt 0.783476040 0.488281250
vt 0.783476040 0.645093402
vt 0.781250000 0.645093402
vt 0.783476040 0.488281250
vt 0.781250000 0.645093402
vt 0.781250000 0.488281250
vt 0.760235905 0.917968750
vt 0.760235905 0.920767058
vt 0.757812500 0.919367904
vt 0.771954655 0.917968750
vt 0.771954655 0.920767058
vt 0.769531250 0.919367904
vt 0.781250000 0.919367904
vt 0.783673405 0.917968750
vt 0.783673405 0.920767058
vt 0.795392155 0.919367904
vt 0.792968750 0.920767058
vt 0.792968750 0.917968750
vt 0.804687500 0.917968750
vt 0.807110905 0.919367904
vt 0.804687500 0.920767058
vt 0.816406250 0.920767058
vt 0.816406250 0.917968750
vt 0.818829655 0.919367904
vt 0.828125000 0.920767058
vt 0.828125000 0.917968750
vt 0.830548405 0.919367904
vt 0.839843750 0.917968750
vt 0.842267155 0.919367904
vt 0.839843750 0.920767058
vt 0.853788540 0.920767058
vt 0.851562500 0.920767058
vt 0.851562500 0.917968750
vt 0.853788540 0.920767058
vt 0.851562500 0.917968750
vt 0.853788540 0.917968750
vt 0.796875000 0.488281250
vt 0.796875000 0.645093402
vt 0.794076692 0.645093402
vt 0.796875000 0.488281250
vt 0.794076692 0.645093402
vt 0.794076692 0.488281250
vt 0.863281250 0.917968750
vt 0.865507290 0.917968750
vt 0.865507290 0.920767058
vt 0.863281250 0.917968750
vt 0.865507290 0.920767058
vt 0.863281250 0.920767058
vt 0.805795442 0.645093402
vt 0.805795442 0.488281250
vt 0.808593750 0.488281250
vt 0.805795442 0.645093402
vt 0.808593750 0.488281250
vt 0.808593750 0.645093402
vt 0.956186067 0.782281524
vt 0.956186067 0.683593750
vt 0.958984375 0.683593750
vt 0.956186067 0.782281524
vt 0.958984375 0.683593750
vt 0.958984375 0.782281524
vt 0.970703125 0.683593750
vt 0.970703125 0.782281524
vt 0.967904817 0.782281524
vt 0.970703125 0.683593750
vt 0.967904817 0.782281524
vt 0.967904817 0.683593750
vt 0.817514192 0.645093402
vt 0.817514192 0.488281250
vt 0.820312500 0.488281250
vt 0.817514192 0.645093402
vt 0.820312500 0.488281250
vt 0.820312500 0.645093402
vt 0.875000000 0.917968750
vt 0.877226040 0.917968750
vt 0.877226040 0.920767058
vt 0.875000000 0.917968750
vt 0.877226040 0.920767058
vt 0.875000000 0.920767058
vt 0.888944790 0.920767058
vt 0.886718750 0.920767058
vt 0.886718750 0.917968750
vt 0.888944790 0.920767058
vt 0.886718750 0.917968750
vt 0.888944790 0.917968750
vt 0.829232942 0.645093402
vt 0.829232942 0.488281250
vt 0.832031250 0.488281250
vt 0.829232942 0.645093402
vt 0.832031250 0.488281250
vt 0.832031250 0.645093402
vt 0.982421875 0.683593750
vt 0.982421875 0.782281524
vt 0.979623567 0.782281524
vt 0.982421875 0.683593750
vt 0.979623567 0.782281524
vt 0.979623567 0.683593750
vt 0.991342317 0.782281524
vt 0.991342317 0.683593750
vt 0.994140625 0.683593750
vt 0.991342317 0.782281524
vt 0.994140625 0.683593750
vt 0.994140625 0.782281524
vt 0.003906250 0.906250000
vt 0.102594024 0.906250000
vt 0.102594024 0.908476040
vt 0.003906250 0.906250000
vt 0.102594024 0.908476040
vt 0.003906250 0.908476040
vt 0.839843750 0.645093402
vt 0.839843750 0.488281250
vt 0.842069790 0.488281250
vt 0.839843750 0.645093402
vt 0.842069790 0.488281250
vt 0.842069790 0.645093402
vt 0.606500274 0.488281250
vt 0.606500274 0.645093402
vt 0.507812500 0.645093402
vt 0.606500274 0.488281250
vt 0.507812500 0.645093402
vt 0.507812500 0.488281250
vt 0.210015899 0.908476040
vt 0.111328125 0.908476040
vt 0.111328125 0.906250000
vt 0.210015899 0.908476040
vt 0.111328125 0.906250000
vt 0.210015899 0.906250000
vt 0.615234375 0.645093402
vt 0.615234375 0.488281250
vt 0.713922149 0.488281250
vt 0.615234375 0.645093402
vt 0.713922149 0.488281250
vt 0.713922149 0.645093402
vt 0.853788540 0.488281250
vt 0.853788540 0.645093402
vt 0.851562500 0.645093402
vt 0.853788540 0.488281250
vt 0.851562500 0.645093402
vt 0.851562500 0.488281250
vt 0.898437500 0.919367904
vt 0.900860905 0.917968750
vt 0.900860905 0.920767058
vt 0.910156250 0.917968750
vt 0.912579655 0.919367904
vt 0.910156250 0.920767058
vt 0.924298405 0.920767058
vt 0.921875000 0.919367904
vt 0.924298405 0.917968750
vt 0.936017155 0.917968750
vt 0.936017155 0.920767058
vt 0.933593750 0.919367904
vt 0.945312500 0.919367904
vt 0.947735905 0.917968750
vt 0.947735905 0.920767058
vt 0.959454655 0.919367904
vt 0.957031250 0.920767058
vt 0.957031250 0.917968750
vt 0.968750000 0.920767058
vt 0.968750000 0.917968750
vt 0.971173405 0.919367904
vt 0.980468750 0.917968750
vt 0.982892155 0.919367904
vt 0.980468750 0.920767058
vt 0.958139192 0.222552847
vt 0.958139192 0.003906250
vt 0.960937500 0.003906250
vt 0.958139192 0.222552847
vt 0.960937500 0.003906250
vt 0.960937500 0.222552847
vt 0.921875000 0.906250000
vt 0.947598129 0.906250000
vt 0.947598129 0.909048308
vt 0.921875000 0.906250000
vt 0.947598129 0.909048308
vt 0.921875000 0.909048308
vt 0.972656250 0.003906250
vt 0.972656250 0.222552847
vt 0.969857942 0.222552847
vt 0.972656250 0.003906250
vt 0.969857942 0.222552847
vt 0.969857942 0.003906250
vt 0.982754379 0.909048308
vt 0.957031250 0.909048308
vt 0.957031250 0.906250000
vt 0.982754379 0.909048308
vt 0.957031250 0.906250000
vt 0.982754379 0.906250000
vt 0.528451692 0.897293591
vt 0.528451692 0.683593750
vt 0.531250000 0.683593750
vt 0.528451692 0.897293591
vt 0.531250000 0.683593750
vt 0.531250000 0.897293591
vt 0.542968750 0.683593750
vt 0.542968750 0.897293591
vt 0.540170442 0.897293591
vt 0.542968750 0.683593750
vt 0.540170442 0.897293591
vt 0.540170442 0.683593750
vt 0.029629379 0.920767058
vt 0.003906250 0.920767058
vt 0.003906250 0.917968750
vt 0.029629379 0.920767058
vt 0.003906250 0.917968750
vt 0.029629379 0.917968750
vt 0.984375000 0.003906250
vt 0.984375000 0.222552847
vt 0.981576692 0.222552847
vt 0.984375000 0.003906250
vt 0.981576692 0.222552847
vt 0.981576692 0.003906250
vt 0.993295442 0.222552847
vt 0.993295442 0.003906250
vt 0.996093750 0.003906250
vt 0.993295442 0.222552847
vt 0.996093750 0.003906250
vt 0.996093750 0.222552847
vt 0.064785629 0.920767058
vt 0.039062500 0.920767058
vt 0.039062500 0.917968750
vt 0.064785629 0.920767058
vt 0.039062500 0.917968750
vt 0.064785629 0.917968750
vt 0.554687500 0.683593750
vt 0.554687500 0.897293591
vt 0.551889192 0.897293591
vt 0.554687500 0.683593750
vt 0.551889192 0.897293591
vt 0.551889192 0.683593750
vt 0.563607942 0.897293591
vt 0.563607942 0.683593750
vt 0.566406250 0.683593750
vt 0.563607942 0.897293591
vt 0.566406250 0.683593750
vt 0.566406250 0.897293591
vt 0.222656250 0.683593750
vt 0.222656250 0.897293591
vt 0.004009653 0.897293591
vt 0.222656250 0.683593750
vt 0.004009653 0.897293591
vt 0.004009653 0.683593750
vt 0.935214371 0.253906250
vt 0.960937500 0.253906250
vt 0.960937500 0.472552847
vt 0.935214371 0.253906250
vt 0.960937500 0.472552847
vt 0.935214371 0.472552847
vt 0.484375000 0.897293591
vt 0.458651871 0.897293591
vt 0.458651871 0.683593750
vt 0.484375000 0.897293591
vt 0.458651871 0.683593750
vt 0.484375000 0.683593750
vt 0.230572153 0.897293591
vt 0.230572153 0.683593750
vt 0.449218750 0.683593750
vt 0.230572153 0.897293591
vt 0.449218750 0.683593750
vt 0.449218750 0.897293591
vt 0.493808121 0.683593750
vt 0.519531250 0.683593750
vt 0.519531250 0.897293591
vt 0.493808121 0.683593750
vt 0.519531250 0.897293591
vt 0.493808121 0.897293591
vt 0.996093750 0.472552847
vt 0.970370621 0.472552847
vt 0.970370621 0.253906250
vt 0.996093750 0.472552847
vt 0.970370621 0.253906250
vt 0.996093750 0.253906250
vt 0.314453125 0.921603858
vt 0.310255664 0.921603858
vt 0.312354394 0.917968750
vt 0.326026269 0.917968750
vt 0.328125000 0.921603858
vt 0.323927539 0.921603858
vt 0.337599414 0.921603858
vt 0.339698144 0.917968750
vt 0.341796875 0.921603858
vt 0.355468750 0.917968750
vt 0.353370019 0.921603858
vt 0.351271289 0.917968750
vt 0.369140625 0.917968750
vt 0.367041894 0.921603858
vt 0.364943164 0.917968750
vt 0.378615039 0.921603858
vt 0.380713769 0.917968750
vt 0.382812500 0.921603858
vt 0.392286914 0.917968750
vt 0.396484375 0.917968750
vt 0.394385644 0.921603858
vt 0.405958789 0.917968750
vt 0.410156250 0.917968750
vt 0.408057519 0.921603858
vt 0.614943164 0.245307922
vt 0.614943164 0.003906250
vt 0.619140625 0.003906250
vt 0.614943164 0.245307922
vt 0.619140625 0.003906250
vt 0.619140625 0.245307922
vt 0.003906250 0.929687500
vt 0.022703921 0.929687500
vt 0.022703921 0.933884961
vt 0.003906250 0.929687500
vt 0.022703921 0.933884961
vt 0.003906250 0.933884961
vt 0.632812500 0.003906250
vt 0.632812500 0.245307922
vt 0.628615039 0.245307922
vt 0.632812500 0.003906250
vt 0.628615039 0.245307922
vt 0.628615039 0.003906250
vt 0.050047671 0.933884961
vt 0.031250000 0.933884961
vt 0.031250000 0.929687500
vt 0.050047671 0.933884961
vt 0.031250000 0.929687500
vt 0.050047671 0.929687500
vt 0.642286914 0.245307922
vt 0.642286914 0.003906250
vt 0.646484375 0.003906250
vt 0.642286914 0.245307922
vt 0.646484375 0.003906250
vt 0.646484375 0.245307922
vt 0.660156250 0.003906250
vt 0.660156250 0.245307922
vt 0.655958789 0.245307922
vt 0.660156250 0.003906250
vt 0.655958789 0.245307922
vt 0.655958789 0.003906250
vt 0.077391421 0.933884961
vt 0.058593750 0.933884961
vt 0.058593750 0.929687500
vt 0.077391421 0.933884961
vt 0.058593750 0.929687500
vt 0.077391421 0.929687500
vt 0.673828125 0.003906250
vt 0.673828125 0.245307922
vt 0.669630664 0.245307922
vt 0.673828125 0.003906250
vt 0.669630664 0.245307922
vt 0.669630664 0.003906250
vt 0.683302539 0.245307922
vt 0.683302539 0.003906250
vt 0.687500000 0.003906250
vt 0.683302539 0.245307922
vt 0.687500000 0.003906250
vt 0.687500000 0.245307922
vt 0.104735171 0.933884961
vt 0.085937500 0.933884961
vt 0.085937500 0.929687500
vt 0.104735171 0.933884961
vt 0.085937500 0.929687500
vt 0.104735171 0.929687500
vt 0.701171875 0.003906250
vt 0.701171875 0.245307922
vt 0.696974414 0.245307922
vt 0.701171875 0.003906250
vt 0.696974414 0.245307922
vt 0.696974414 0.003906250
vt 0.710646289 0.245307922
vt 0.710646289 0.003906250
vt 0.714843750 0.003906250
vt 0.710646289 0.245307922
vt 0.714843750 0.003906250
vt 0.714843750 0.245307922
vt 0.003906250 0.003906250
vt 0.245307922 0.003906250
vt 0.245307922 0.245307922
vt 0.003906250 0.003906250
vt 0.245307922 0.245307922
vt 0.003906250 0.245307922
vt 0.504639829 0.003906250
vt 0.523437500 0.003906250
vt 0.523437500 0.245307922
vt 0.504639829 0.003906250
vt 0.523437500 0.245307922
vt 0.504639829 0.245307922
vt 0.550781250 0.245307922
vt 0.531983579 0.245307922
vt 0.531983579 0.003906250
vt 0.550781250 0.245307922
vt 0.531983579 0.003906250
vt 0.550781250 0.003906250
vt 0.495307922 0.245307922
vt 0.253906250 0.245307922
vt 0.253906250 0.003906250
vt 0.495307922 0.245307922
vt 0.253906250 0.003906250
vt 0.495307922 0.003906250
vt 0.559327329 0.003906250
vt 0.578125000 0.003906250
vt 0.578125000 0.245307922
vt 0.559327329 0.003906250
vt 0.578125000 0.245307922
vt 0.559327329 0.245307922
vt 0.605468750 0.245307922
vt 0.586671079 0.245307922
vt 0.586671079 0.003906250
vt 0.605468750 0.245307922
vt 0.586671079 0.003906250
vt 0.605468750 0.003906250
f 1/1/1 2/2/1 3/3/1
usemtl UV_Base
f 4/4/2 5/5/2 6/6/2
usemtl UV_Base
f 7/7/3 8/8/3 9/9/3
usemtl UV_Base
f 10/10/4 11/11/4 12/12/4
usemtl UV_Base
f 13/13/5 14/14/5 15/15/5
usemtl UV_Base
f 16/16/6 17/17/6 18/18/6
usemtl UV_Base
f 19/19/7 20/20/7 21/21/7
usemtl UV_Base
f 22/22/8 23/23/8 24/24/8
usemtl UV_Base
f 7/25/9 1/26/9 3/27/9
usemtl UV_Base
f 7/28/10 3/29/10 8/30/10
usemtl UV_Base
f 2/31/11 4/32/11 6/33/11
usemtl UV_Base
f 2/34/12 6/35/12 3/36/12
usemtl UV_Base
f 5/37/13 10/38/13 12/39/13
usemtl UV_Base
f 5/40/14 12/41/14 6/42/14
usemtl UV_Base
f 11/43/15 9/44/15 8/45/15
usemtl UV_Base
f 11/46/16 8/47/16 12/48/16
usemtl UV_Base
f 19/49/17 7/50/17 9/51/17
usemtl UV_Base
f 19/52/18 9/53/18 20/54/18
usemtl UV_Base
f 10/55/19 22/56/19 24/57/19
usemtl UV_Base
f 10/58/20 24/59/20 11/60/20
usemtl UV_Base
f 23/61/21 21/62/21 20/63/21
usemtl UV_Base
f 23/64/22 20/65/22 24/66/22
usemtl UV_Base
f 13/67/23 19/68/23 21/69/23
usemtl UV_Base
f 13/70/24 21/71/24 14/72/24
usemtl UV_Base
f 22/73/25 16/74/25 18/75/25
usemtl UV_Base
f 22/76/26 18/77/26 23/78/26
usemtl UV_Base
f 17/79/27 15/80/27 14/81/27
usemtl UV_Base
f 17/82/28 14/83/28 18/84/28
usemtl UV_Base
f 1/85/29 13/86/29 15/87/29
usemtl UV_Base
f 1/88/30 15/89/30 2/90/30
usemtl UV_Base
f 16/91/31 5/92/31 4/93/31
usemtl UV_Base
f 16/94/32 4/95/32 17/96/32
usemtl UV_Base
f 7/97/33 19/98/33 13/99/33
usemtl UV_Base
f 7/100/34 13/101/34 1/102/34
usemtl UV_Base
f 3/103/35 6/104/35 12/105/35
usemtl UV_Base
f 3/106/36 12/107/36 8/108/36
usemtl UV_Base
f 15/109/37 17/110/37 4/111/37
usemtl UV_Base
f 15/112/38 4/113/38 2/114/38
usemtl UV_Base
f 22/115/39 10/116/39 5/117/39
usemtl UV_Base
f 22/118/40 5/119/40 16/120/40
usemtl UV_Base
f 9/121/41 11/122/41 24/123/41
usemtl UV_Base
f 9/124/42 24/125/42 20/126/42
usemtl UV_Base
f 21/127/43 23/128/43 18/129/43
usemtl UV_Base
f 21/130/44 18/131/44 14/132/44
usemtl UV_Base
f 25/133/45 26/134/45 28/135/45
usemtl UV_Base
f 25/136/46 28/137/46 27/138/46
usemtl UV_Base
f 27/139/47 28/140/47 32/141/47
usemtl UV_Base
f 27/142/48 32/143/48 31/144/48
usemtl UV_Base
f 31/145/49 32/146/49 30/147/49
usemtl UV_Base
f 31/148/50 30/149/50 29/150/50
usemtl UV_Base
f 29/151/51 30/152/51 26/153/51
usemtl UV_Base
f 29/154/52 26/155/52 25/156/52
usemtl UV_Base
f 27/157/53 31/158/53 29/159/53
usemtl UV_Base
f 27/160/54 29/161/54 25/162/54
usemtl UV_Base
f 32/163/55 28/164/55 26/165/55
usemtl UV_Base
f 32/166/56 26/167/56 30/168/56
usemtl UV_Base
f 33/169/57 34/170/57 35/171/57
usemtl UV_Base
f 36/172/58 37/173/58 38/174/58
usemtl UV_Base
f 39/175/59 40/176/59 41/177/59
usemtl UV_Base
f 42/178/60 43/179/60 44/180/60
usemtl UV_Base
f 45/181/61 46/182/61 47/183/61
usemtl UV_Base
f 48/184/62 49/185/62 50/186/62
usemtl UV_Base
f 51/187/63 52/188/63 53/189/63
usemtl UV_Base
f 54/190/64 55/191/64 56/192/64
usemtl UV_Base
f 34/193/65 36/194/65 38/195/65
usemtl UV_Base
f 34/196/66 38/197/66 35/198/66
usemtl UV_Base
f 43/199/67 41/200/67 40/201/67
usemtl UV_Base
f 43/202/68 40/203/68 44/204/68
usemtl UV_Base
f 51/205/69 39/206/69 41/207/69
usemtl UV_Base
f 51/208/70 41/209/70 52/210/70
usemtl UV_Base
f 42/211/71 54/212/71 56/213/71
usemtl UV_Base
f 42/214/72 56/215/72 43/216/72
usemtl UV_Base
f 55/217/73 53/218/73 52/219/73
usemtl UV_Base
f 55/220/74 52/221/74 56/222/74
usemtl UV_Base
f 49/223/75 47/224/75 46/225/75
usemtl UV_Base
f 49/226/76 46/227/76 50/228/76
usemtl UV_Base
f 33/229/77 45/230/77 47/231/77
usemtl UV_Base
f 33/232/78 47/233/78 34/234/78
usemtl UV_Base
f 48/235/79 37/236/79 36/237/79
usemtl UV_Base
f 48/238/80 36/239/80 49/240/80
usemtl UV_Base
f 47/241/81 49/242/81 36/243/81
usemtl UV_Base
f 47/244/82 36/245/82 34/246/82
usemtl UV_Base
f 41/247/83 43/248/83 56/249/83
usemtl UV_Base
f 41/250/84 56/251/84 52/252/84
usemtl UV_Base
f 57/253/85 58/254/85 59/255/85
usemtl UV_Base
f 60/256/86 61/257/86 62/258/86
usemtl UV_Base
f 63/259/87 64/260/87 65/261/87
usemtl UV_Base
f 66/262/88 67/263/88 68/264/88
usemtl UV_Base
f 69/265/89 70/266/89 71/267/89
usemtl UV_Base
f 72/268/90 73/269/90 74/270/90
usemtl UV_Base
f 75/271/91 76/272/91 77/273/91
usemtl UV_Base
f 78/274/92 79/275/92 80/276/92
usemtl UV_Base
f 58/277/93 60/278/93 62/279/93
usemtl UV_Base
f 58/280/94 62/281/94 59/282/94
usemtl UV_Base
f 67/283/95 65/284/95 64/285/95
usemtl UV_Base
f 67/286/96 64/287/96 68/288/96
usemtl UV_Base
f 75/289/97 63/290/97 65/291/97
usemtl UV_Base
f 75/292/98 65/293/98 76/294/98
usemtl UV_Base
f 66/295/99 78/296/99 80/297/99
usemtl UV_Base
f 66/298/100 80/299/100 67/300/100
usemtl UV_Base
f 79/301/101 77/302/101 76/303/101
usemtl UV_Base
f 79/304/102 76/305/102 80/306/102
usemtl UV_Base
f 73/307/103 71/308/103 70/309/103
usemtl UV_Base
f 73/310/104 70/311/104 74/312/104
usemtl UV_Base
f 57/313/105 69/314/105 71/315/105
usemtl UV_Base
f 57/316/106 71/317/106 58/318/106
usemtl UV_Base
f 72/319/107 61/320/107 60/321/107
usemtl UV_Base
f 72/322/108 60/323/108 73/324/108
usemtl UV_Base
f 71/325/109 73/326/109 60/327/109
usemtl UV_Base
f 71/328/110 60/329/110 58/330/110
usemtl UV_Base
f 65/331/111 67/332/111 80/333/111
usemtl UV_Base
f 65/334/112 80/335/112 76/336/112
usemtl UV_Base
f 81/337/113 82/338/113 83/339/113
usemtl UV_Base
f 84/340/114 85/341/114 86/342/114
usemtl UV_Base
f 87/343/115 88/344/115 89/345/115
usemtl UV_Base
f 90/346/116 91/347/116 92/348/116
usemtl UV_Base
f 93/349/117 94/350/117 95/351/117
usemtl UV_Base
f 96/352/118 97/353/118 98/354/118
usemtl UV_Base
f 99/355/119 100/356/119 101/357/119
usemtl UV_Base
f 102/358/120 103/359/120 104/360/120
usemtl UV_Base
f 87/361/121 81/362/121 83/363/121
usemtl UV_Base
f 87/364/122 83/365/122 88/366/122
usemtl UV_Base
f 82/367/123 84/368/123 86/369/123
usemtl UV_Base
f 82/370/124 86/371/124 83/372/124
usemtl UV_Base
f 85/373/125 90/374/125 92/375/125
usemtl UV_Base
f 85/376/126 92/377/126 86/378/126
usemtl UV_Base
f 91/379/127 89/380/127 88/381/127
usemtl UV_Base
f 91/382/128 88/383/128 92/384/128
usemtl UV_Base
f 99/385/129 87/386/129 89/387/129
usemtl UV_Base
f 99/388/130 89/389/130 100/390/130
usemtl UV_Base
f 90/391/131 102/392/131 104/393/131
usemtl UV_Base
f 90/394/132 104/395/132 91/396/132
usemtl UV_Base
f 103/397/133 101/398/133 100/399/133
usemtl UV_Base
f 103/400/134 100/401/134 104/402/134
usemtl UV_Base
f 93/403/135 99/404/135 101/405/135
usemtl UV_Base
f 93/406/136 101/407/136 94/408/136
usemtl UV_Base
f 102/409/137 96/410/137 98/411/137
usemtl UV_Base
f 102/412/138 98/413/138 103/414/138
usemtl UV_Base
f 97/415/139 95/416/139 94/417/139
usemtl UV_Base
f 97/418/140 94/419/140 98/420/140
usemtl UV_Base
f 81/421/141 93/422/141 95/423/141
usemtl UV_Base
f 81/424/142 95/425/142 82/426/142
usemtl UV_Base
f 96/427/143 85/428/143 84/429/143
usemtl UV_Base
f 96/430/144 84/431/144 97/432/144
usemtl UV_Base
f 87/433/145 99/434/145 93/435/145
usemtl UV_Base
f 87/436/146 93/437/146 81/438/146
usemtl UV_Base
f 83/439/147 86/440/147 92/441/147
usemtl UV_Base
f 83/442/148 92/443/148 88/444/148
usemtl UV_Base
f 95/445/149 97/446/149 84/447/149
usemtl UV_Base
f 95/448/150 84/449/150 82/450/150
usemtl UV_Base
f 102/451/151 90/452/151 85/453/151
usemtl UV_Base
f 102/454/152 85/455/152 96/456/152
usemtl UV_Base
f 89/457/153 91/458/153 104/459/153
usemtl UV_Base
f 89/460/154 104/461/154 100/462/154
usemtl UV_Base
f 101/463/155 103/464/155 98/465/155
usemtl UV_Base
f 101/466/156 98/467/156 94/468/156
usemtl UV_Base
f 105/469/157 106/470/157 107/471/157
usemtl UV_Base
f 108/472/158 109/473/158 110/474/158
usemtl UV_Base
f 111/475/159 112/476/159 113/477/159
usemtl UV_Base
f 114/478/160 115/479/160 116/480/160
usemtl UV_Base
f 117/481/161 118/482/161 119/483/161
usemtl UV_Base
f 120/484/162 121/485/162 122/486/162
usemtl UV_Base
f 123/487/163 124/488/163 125/489/163
usemtl UV_Base
f 126/490/164 127/491/164 128/492/164
usemtl UV_Base
f 111/493/165 105/494/165 107/495/165
usemtl UV_Base
f 111/496/166 107/497/166 112/498/166
usemtl UV_Base
f 106/499/167 108/500/167 110/501/167
usemtl UV_Base
f 106/502/168 110/503/168 107/504/168
usemtl UV_Base
f 109/505/169 114/506/169 116/507/169
usemtl UV_Base
f 109/508/170 116/509/170 110/510/170
usemtl UV_Base
f 115/511/171 113/512/171 112/513/171
usemtl UV_Base
f 115/514/172 112/515/172 116/516/172
usemtl UV_Base
f 123/517/173 111/518/173 113/519/173
usemtl UV_Base
f 123/520/174 113/521/174 124/522/174
usemtl UV_Base
f 114/523/175 126/524/175 128/525/175
usemtl UV_Base
f 114/526/176 128/527/176 115/528/176
usemtl UV_Base
f 127/529/177 125/530/177 124/531/177
usemtl UV_Base
f 127/532/178 124/533/178 128/534/178
usemtl UV_Base
f 117/535/179 123/536/179 125/537/179
usemtl UV_Base
f 117/538/180 125/539/180 118/540/180
usemtl UV_Base
f 126/541/181 120/542/181 122/543/181
usemtl UV_Base
f 126/544/182 122/545/182 127/546/182
usemtl UV_Base
f 121/547/183 119/548/183 118/549/183
usemtl UV_Base
f 121/550/184 118/551/184 122/552/184
usemtl UV_Base
f 105/553/185 117/554/185 119/555/185
usemtl UV_Base
f 105/556/186 119/557/186 106/558/186
usemtl UV_Base
f 120/559/187 109/560/187 108/561/187
usemtl UV_Base
f 120/562/188 108/563/188 121/564/188
usemtl UV_Base
f 111/565/189 123/566/189 117/567/189
usemtl UV_Base
f 111/568/190 117/569/190 105/570/190
usemtl UV_Base
f 107/571/191 110/572/191 116/573/191
usemtl UV_Base
f 107/574/192 116/575/192 112/576/192
usemtl UV_Base
f 119/577/193 121/578/193 108/579/193
usemtl UV_Base
f 119/580/194 108/581/194 106/582/194
usemtl UV_Base
f 126/583/195 114/584/195 109/585/195
usemtl UV_Base
f 126/586/196 109/587/196 120/588/196
usemtl UV_Base
f 113/589/197 115/590/197 128/591/197
usemtl UV_Base
f 113/592/198 128/593/198 124/594/198
usemtl UV_Base
f 125/595/199 127/596/199 122/597/199
usemtl UV_Base
f 125/598/200 122/599/200 118/600/200
usemtl UV_Base
f 129/601/201 130/602/201 131/603/201
usemtl UV_Base
f 132/604/202 133/605/202 134/606/202
usemtl UV_Base
f 135/607/203 136/608/203 137/609/203
usemtl UV_Base
f 138/610/204 139/611/204 140/612/204
usemtl UV_Base
f 141/613/205 142/614/205 143/615/205
usemtl UV_Base
f 144/616/206 145/617/206 146/618/206
usemtl UV_Base
f 147/619/207 148/620/207 149/621/207
usemtl UV_Base
f 150/622/208 151/623/208 152/624/208
usemtl UV_Base
f 135/625/209 129/626/209 131/627/209
usemtl UV_Base
f 135/628/210 131/629/210 136/630/210
usemtl UV_Base
f 130/631/211 132/632/211 134/633/211
usemtl UV_Base
f 130/634/212 134/635/212 131/636/212
usemtl UV_Base
f 133/637/213 138/638/213 140/639/213
usemtl UV_Base
f 133/640/214 140/641/214 134/642/214
usemtl UV_Base
f 139/643/215 137/644/215 136/645/215
usemtl UV_Base
f 139/646/216 136/647/216 140/648/216
usemtl UV_Base
f 147/649/217 135/650/217 137/651/217
usemtl UV_Base
f 147/652/218 137/653/218 148/654/218
usemtl UV_Base
f 138/655/219 150/656/219 152/657/219
usemtl UV_Base
f 138/658/220 152/659/220 139/660/220
usemtl UV_Base
f 151/661/221 149/662/221 148/663/221
usemtl UV_Base
f 151/664/222 148/665/222 152/666/222
usemtl UV_Base
f 141/667/223 147/668/223 149/669/223
usemtl UV_Base
f 141/670/224 149/671/224 142/672/224
usemtl UV_Base
f 150/673/225 144/674/225 146/675/225
usemtl UV_Base
f 150/676/226 146/677/226 151/678/226
usemtl UV_Base
f 145/679/227 143/680/227 142/681/227
usemtl UV_Base
f 145/682/228 142/683/228 146/684/228
usemtl UV_Base
f 129/685/229 141/686/229 143/687/229
usemtl UV_Base
f 129/688/230 143/689/230 130/690/230
usemtl UV_Base
f 144/691/231 133/692/231 132/693/231
usemtl UV_Base
f 144/694/232 132/695/232 145/696/232
usemtl UV_Base
f 135/697/233 147/698/233 141/699/233
usemtl UV_Base
f 135/700/234 141/701/234 129/702/234
usemtl UV_Base
f 131/703/235 134/704/235 140/705/235
usemtl UV_Base
f 131/706/236 140/707/236 136/708/236
usemtl UV_Base
f 143/709/237 145/710/237 132/711/237
usemtl UV_Base
f 143/712/238 132/713/238 130/714/238
usemtl UV_Base
f 150/715/239 138/716/239 133/717/239
usemtl UV_Base
f 150/718/240 133/719/240 144/720/240
usemtl UV_Base
f 137/721/241 139/722/241 152/723/241
usemtl UV_Base
f 137/724/242 152/725/242 148/726/242
usemtl UV_Base
f 149/727/243 151/728/243 146/729/243
usemtl UV_Base
f 149/730/244 146/731/244 142/732/244
usemtl UV_Base
f 153/733/245 154/734/245 155/735/245
usemtl UV_Base
f 156/736/246 157/737/246 158/738/246
usemtl UV_Base
f 159/739/247 160/740/247 161/741/247
usemtl UV_Base
f 162/742/248 163/743/248 164/744/248
usemtl UV_Base
f 165/745/249 166/746/249 167/747/249
usemtl UV_Base
f 168/748/250 169/749/250 170/750/250
usemtl UV_Base
f 171/751/251 172/752/251 173/753/251
usemtl UV_Base
f 174/754/252 175/755/252 176/756/252
usemtl UV_Base
f 159/757/253 153/758/253 155/759/253
usemtl UV_Base
f 159/760/254 155/761/254 160/762/254
usemtl UV_Base
f 154/763/255 156/764/255 158/765/255
usemtl UV_Base
f 154/766/256 158/767/256 155/768/256
usemtl UV_Base
f 157/769/257 162/770/257 164/771/257
usemtl UV_Base
f 157/772/258 164/773/258 158/774/258
usemtl UV_Base
f 163/775/259 161/776/259 160/777/259
usemtl UV_Base
f 163/778/260 160/779/260 164/780/260
usemtl UV_Base
f 171/781/261 159/782/261 161/783/261
usemtl UV_Base
f 171/784/262 161/785/262 172/786/262
usemtl UV_Base
f 162/787/263 174/788/263 176/789/263
usemtl UV_Base
f 162/790/264 176/791/264 163/792/264
usemtl UV_Base
f 175/793/265 173/794/265 172/795/265
usemtl UV_Base
f 175/796/266 172/797/266 176/798/266
usemtl UV_Base
f 165/799/267 171/800/267 173/801/267
usemtl UV_Base
f 165/802/268 173/803/268 166/804/268
usemtl UV_Base
f 174/805/269 168/806/269 170/807/269
usemtl UV_Base
f 174/808/270 170/809/270 175/810/270
usemtl UV_Base
f 169/811/271 167/812/271 166/813/271
usemtl UV_Base
f 169/814/272 166/815/272 170/816/272
usemtl UV_Base
f 153/817/273 165/818/273 167/819/273
usemtl UV_Base
f 153/820/274 167/821/274 154/822/274
usemtl UV_Base
f 168/823/275 157/824/275 156/825/275
usemtl UV_Base
f 168/826/276 156/827/276 169/828/276
usemtl UV_Base
f 159/829/277 171/830/277 165/831/277
usemtl UV_Base
f 159/832/278 165/833/278 153/834/278
usemtl UV_Base
f 155/835/279 158/836/279 164/837/279
usemtl UV_Base
f 155/838/280 164/839/280 160/840/280
usemtl UV_Base
f 167/841/281 169/842/281 156/843/281
usemtl UV_Base
f 167/844/282 156/845/282 154/846/282
usemtl UV_Base
f 174/847/283 162/848/283 157/849/283
usemtl UV_Base
f 174/850/284 157/851/284 168/852/284
usemtl UV_Base
f 161/853/285 163/854/285 176/855/285
usemtl UV_Base
f 161/856/286 176/857/286 172/858/286
usemtl UV_Base
f 173/859/287 175/860/287 170/861/287
usemtl UV_Base
f 173/862/288 170/863/288 166/864/288
