# Viewpoint furniture test asset; Z up, tile units.
mtllib ../Materials/floor_lamp_white.mtl
o floor_lamp_white
v 0.000000 0.108000 1.621000
v 0.000000 0.108000 1.639000
v 0.063481 0.087374 1.621000
v 0.063481 0.087374 1.639000
v 0.102714 0.033374 1.621000
v 0.102714 0.033374 1.639000
v 0.102714 -0.033374 1.621000
v 0.102714 -0.033374 1.639000
v 0.063481 -0.087374 1.621000
v 0.063481 -0.087374 1.639000
v 0.000000 -0.108000 1.621000
v 0.000000 -0.108000 1.639000
v -0.063481 -0.087374 1.621000
v -0.063481 -0.087374 1.639000
v -0.102714 -0.033374 1.621000
v -0.102714 -0.033374 1.639000
v -0.102714 0.033374 1.621000
v -0.102714 0.033374 1.639000
v -0.063481 0.087374 1.621000
v -0.063481 0.087374 1.639000
v 0.000000 0.182000 1.403000
v 0.000000 0.182000 1.421000
v 0.106977 0.147241 1.403000
v 0.106977 0.147241 1.421000
v 0.173092 0.056241 1.403000
v 0.173092 0.056241 1.421000
v 0.173092 -0.056241 1.403000
v 0.173092 -0.056241 1.421000
v 0.106977 -0.147241 1.403000
v 0.106977 -0.147241 1.421000
v 0.000000 -0.182000 1.403000
v 0.000000 -0.182000 1.421000
v -0.106977 -0.147241 1.403000
v -0.106977 -0.147241 1.421000
v -0.173092 -0.056241 1.403000
v -0.173092 -0.056241 1.421000
v -0.173092 0.056241 1.403000
v -0.173092 0.056241 1.421000
v -0.106977 0.147241 1.403000
v -0.106977 0.147241 1.421000
v 0.000000 0.190000 -0.000500
v 0.000000 0.160000 0.054500
v 0.095000 0.164545 -0.000500
v 0.080000 0.138564 0.054500
v 0.164545 0.095000 -0.000500
v 0.138564 0.080000 0.054500
v 0.190000 0.000000 -0.000500
v 0.160000 0.000000 0.054500
v 0.164545 -0.095000 -0.000500
v 0.138564 -0.080000 0.054500
v 0.095000 -0.164545 -0.000500
v 0.080000 -0.138564 0.054500
v 0.000000 -0.190000 -0.000500
v 0.000000 -0.160000 0.054500
v -0.095000 -0.164545 -0.000500
v -0.080000 -0.138564 0.054500
v -0.164545 -0.095000 -0.000500
v -0.138564 -0.080000 0.054500
v -0.190000 0.000000 -0.000500
v -0.160000 0.000000 0.054500
v -0.164545 0.095000 -0.000500
v -0.138564 0.080000 0.054500
v -0.095000 0.164545 -0.000500
v -0.080000 0.138564 0.054500
v 0.000000 0.180000 1.410000
v 0.000000 0.105000 1.630000
v 0.105801 0.145623 1.410000
v 0.061718 0.084947 1.630000
v 0.171190 0.055623 1.410000
v 0.099861 0.032447 1.630000
v 0.171190 -0.055623 1.410000
v 0.099861 -0.032447 1.630000
v 0.105801 -0.145623 1.410000
v 0.061718 -0.084947 1.630000
v 0.000000 -0.180000 1.410000
v 0.000000 -0.105000 1.630000
v -0.105801 -0.145623 1.410000
v -0.061718 -0.084947 1.630000
v -0.171190 -0.055623 1.410000
v -0.099861 -0.032447 1.630000
v -0.171190 0.055623 1.410000
v -0.099861 0.032447 1.630000
v -0.105801 0.145623 1.410000
v -0.061718 0.084947 1.630000
v 0.000000 0.018000 0.090000
v 0.000000 0.018000 1.470000
v 0.012728 0.012728 0.090000
v 0.012728 0.012728 1.470000
v 0.018000 0.000000 0.090000
v 0.018000 0.000000 1.470000
v 0.012728 -0.012728 0.090000
v 0.012728 -0.012728 1.470000
v 0.000000 -0.018000 0.090000
v 0.000000 -0.018000 1.470000
v -0.012728 -0.012728 0.090000
v -0.012728 -0.012728 1.470000
v -0.018000 0.000000 0.090000
v -0.018000 0.000000 1.470000
v -0.012728 0.012728 0.090000
v -0.012728 0.012728 1.470000
v 0.000000 0.035000 0.035000
v 0.000000 0.035000 0.105000
v 0.020572 0.028316 0.035000
v 0.020572 0.028316 0.105000
v 0.033287 0.010816 0.035000
v 0.033287 0.010816 0.105000
v 0.033287 -0.010816 0.035000
v 0.033287 -0.010816 0.105000
v 0.020572 -0.028316 0.035000
v 0.020572 -0.028316 0.105000
v 0.000000 -0.035000 0.035000
v 0.000000 -0.035000 0.105000
v -0.020572 -0.028316 0.035000
v -0.020572 -0.028316 0.105000
v -0.033287 -0.010816 0.035000
v -0.033287 -0.010816 0.105000
v -0.033287 0.010816 0.035000
v -0.033287 0.010816 0.105000
v -0.020572 0.028316 0.035000
v -0.020572 0.028316 0.105000
vn 0.309017 0.951057 -0.000000
vn 0.309017 0.951057 0.000000
vn 0.809018 0.587784 -0.000000
vn 0.809018 0.587784 0.000000
vn 1.000000 0.000000 -0.000000
vn 1.000000 0.000000 0.000000
vn 0.809018 -0.587784 0.000000
vn 0.809018 -0.587784 0.000000
vn 0.309017 -0.951057 0.000000
vn 0.309017 -0.951057 0.000000
vn -0.309017 -0.951057 0.000000
vn -0.309017 -0.951057 0.000000
vn -0.809018 -0.587784 0.000000
vn -0.809018 -0.587784 0.000000
vn -1.000000 0.000000 0.000000
vn -1.000000 0.000000 0.000000
vn 0.000000 0.000000 1.000000
vn 0.000000 0.000000 1.000000
vn 0.000000 0.000000 1.000000
vn 0.000000 0.000000 1.000000
vn 0.000000 0.000000 1.000000
vn 0.000000 0.000000 1.000000
vn 0.000000 0.000000 1.000000
vn 0.000000 0.000000 1.000000
vn -0.809018 0.587784 0.000000
vn -0.809018 0.587784 0.000000
vn -0.309017 0.951057 0.000000
vn -0.309017 0.951057 0.000000
vn 0.000000 0.000000 -1.000000
vn 0.000000 0.000000 -1.000000
vn 0.000000 0.000000 -1.000000
vn 0.000000 0.000000 -1.000000
vn 0.000000 -0.000000 -1.000000
vn 0.000000 0.000000 -1.000000
vn 0.000000 0.000000 -1.000000
vn 0.000000 0.000000 -1.000000
vn 0.309017 0.951057 -0.000000
vn 0.309017 0.951057 0.000000
vn 0.809017 0.587785 -0.000000
vn 0.809017 0.587785 0.000000
vn 1.000000 0.000000 -0.000000
vn 1.000000 0.000000 0.000000
vn 0.809017 -0.587785 0.000000
vn 0.809017 -0.587785 0.000000
vn 0.309017 -0.951057 0.000000
vn 0.309017 -0.951057 0.000000
vn -0.309017 -0.951057 0.000000
vn -0.309017 -0.951057 0.000000
vn -0.809017 -0.587785 0.000000
vn -0.809017 -0.587785 0.000000
vn -1.000000 0.000000 0.000000
vn -1.000000 0.000000 0.000000
vn 0.000000 0.000000 1.000000
vn 0.000000 0.000000 1.000000
vn 0.000000 0.000000 1.000000
vn 0.000000 0.000000 1.000000
vn 0.000000 0.000000 1.000000
vn 0.000000 0.000000 1.000000
vn 0.000000 0.000000 1.000000
vn 0.000000 0.000000 1.000000
vn -0.809017 0.587785 0.000000
vn -0.809017 0.587785 0.000000
vn -0.309017 0.951057 0.000000
vn -0.309017 0.951057 0.000000
vn 0.000000 0.000000 -1.000000
vn 0.000000 0.000000 -1.000000
vn 0.000000 0.000000 -1.000000
vn 0.000000 0.000000 -1.000000
vn 0.000000 -0.000000 -1.000000
vn 0.000000 0.000000 -1.000000
vn 0.000000 0.000000 -1.000000
vn 0.000000 0.000000 -1.000000
vn 0.228982 0.854571 0.466129
vn 0.228981 0.854570 0.466130
vn 0.625588 0.625589 0.466130
vn 0.625589 0.625589 0.466129
vn 0.854571 0.228982 0.466129
vn 0.854571 0.228982 0.466129
vn 0.854571 -0.228982 0.466129
vn 0.854571 -0.228982 0.466129
vn 0.625589 -0.625590 0.466129
vn 0.625589 -0.625589 0.466130
vn 0.228982 -0.854570 0.466130
vn 0.228981 -0.854571 0.466129
vn -0.228982 -0.854571 0.466129
vn -0.228981 -0.854570 0.466130
vn -0.625588 -0.625589 0.466130
vn -0.625589 -0.625589 0.466129
vn -0.854571 -0.228982 0.466129
vn -0.854571 -0.228982 0.466129
vn -0.854571 0.228982 0.466129
vn -0.854571 0.228982 0.466129
vn 0.000000 0.000000 1.000000
vn 0.000000 0.000000 1.000000
vn 0.000000 0.000000 1.000000
vn 0.000000 0.000000 1.000000
vn 0.000000 0.000000 1.000000
vn 0.000000 0.000000 1.000000
vn 0.000000 0.000000 1.000000
vn 0.000000 0.000000 1.000000
vn 0.000000 0.000000 1.000000
vn 0.000000 0.000000 1.000000
vn -0.625589 0.625590 0.466129
vn -0.625589 0.625589 0.466130
vn -0.228982 0.854570 0.466130
vn -0.228981 0.854571 0.466129
vn 0.000000 0.000000 -1.000000
vn 0.000000 0.000000 -1.000000
vn 0.000000 0.000000 -1.000000
vn 0.000000 0.000000 -1.000000
vn 0.000000 0.000000 -1.000000
vn 0.000000 -0.000000 -1.000000
vn 0.000000 0.000000 -1.000000
vn 0.000000 0.000000 -1.000000
vn 0.000000 0.000000 -1.000000
vn 0.000000 0.000000 -1.000000
vn 0.293952 0.904693 0.308418
vn 0.293953 0.904693 0.308418
vn 0.769579 0.559131 0.308418
vn 0.769578 0.559132 0.308418
vn 0.951251 0.000000 0.308419
vn 0.951251 0.000000 0.308419
vn 0.769579 -0.559130 0.308419
vn 0.769578 -0.559132 0.308418
vn 0.293952 -0.904693 0.308418
vn 0.293953 -0.904693 0.308418
vn -0.293952 -0.904693 0.308418
vn -0.293953 -0.904693 0.308418
vn -0.769579 -0.559131 0.308418
vn -0.769578 -0.559132 0.308418
vn -0.951251 0.000000 0.308419
vn -0.951251 0.000000 0.308419
vn 0.000000 0.000000 1.000000
vn 0.000000 0.000000 1.000000
vn 0.000000 0.000000 1.000000
vn 0.000000 0.000000 1.000000
vn 0.000000 0.000000 1.000000
vn 0.000000 0.000000 1.000000
vn 0.000000 0.000000 1.000000
vn 0.000000 0.000000 1.000000
vn -0.769579 0.559130 0.308419
vn -0.769578 0.559132 0.308418
vn -0.293952 0.904693 0.308418
vn -0.293953 0.904693 0.308418
vn 0.000000 0.000000 -1.000000
vn 0.000000 0.000000 -1.000000
vn 0.000000 0.000000 -1.000000
vn 0.000000 0.000000 -1.000000
vn 0.000000 -0.000000 -1.000000
vn 0.000000 0.000000 -1.000000
vn 0.000000 0.000000 -1.000000
vn 0.000000 0.000000 -1.000000
vn 0.382682 0.923880 -0.000000
vn 0.382682 0.923880 0.000000
vn 0.923884 0.382673 -0.000000
vn 0.923884 0.382673 0.000000
vn 0.923884 -0.382673 0.000000
vn 0.923884 -0.382673 0.000000
vn 0.382682 -0.923880 0.000000
vn 0.382682 -0.923880 0.000000
vn -0.382682 -0.923880 0.000000
vn -0.382682 -0.923880 0.000000
vn -0.923884 -0.382673 0.000000
vn -0.923884 -0.382673 0.000000
vn 0.000000 0.000000 1.000000
vn 0.000000 0.000000 1.000000
vn 0.000000 0.000000 1.000000
vn 0.000000 0.000000 1.000000
vn 0.000000 0.000000 1.000000
vn 0.000000 0.000000 1.000000
vn -0.923884 0.382673 0.000000
vn -0.923884 0.382673 0.000000
vn -0.382682 0.923880 0.000000
vn -0.382682 0.923880 0.000000
vn 0.000000 0.000000 -1.000000
vn 0.000000 0.000000 -1.000000
vn 0.000000 0.000000 -1.000000
vn 0.000000 -0.000000 -1.000000
vn 0.000000 0.000000 -1.000000
vn 0.000000 0.000000 -1.000000
vn 0.309018 0.951056 -0.000000
vn 0.309018 0.951056 0.000000
vn 0.809014 0.587789 -0.000000
vn 0.809014 0.587789 0.000000
vn 1.000000 0.000000 -0.000000
vn 1.000000 0.000000 0.000000
vn 0.809014 -0.587789 0.000000
vn 0.809014 -0.587789 0.000000
vn 0.309018 -0.951056 0.000000
vn 0.309018 -0.951056 0.000000
vn -0.309018 -0.951056 0.000000
vn -0.309018 -0.951056 0.000000
vn -0.809014 -0.587789 0.000000
vn -0.809014 -0.587789 0.000000
vn -1.000000 0.000000 0.000000
vn -1.000000 0.000000 0.000000
vn 0.000000 0.000000 1.000000
vn 0.000000 0.000000 1.000000
vn 0.000000 0.000000 1.000000
vn 0.000000 0.000000 1.000000
vn 0.000000 0.000000 1.000000
vn 0.000000 0.000000 1.000000
vn 0.000000 0.000000 1.000000
vn 0.000000 0.000000 1.000000
vn -0.809014 0.587789 0.000000
vn -0.809014 0.587789 0.000000
vn -0.309018 0.951056 0.000000
vn -0.309018 0.951056 0.000000
vn 0.000000 0.000000 -1.000000
vn 0.000000 0.000000 -1.000000
vn 0.000000 0.000000 -1.000000
vn 0.000000 0.000000 -1.000000
vn 0.000000 -0.000000 -1.000000
vn 0.000000 0.000000 -1.000000
vn 0.000000 0.000000 -1.000000
vn 0.000000 0.000000 -1.000000
usemtl UV_Base
vt 0.462890625 0.941406250
vt 0.462890625 0.954347776
vt 0.414900711 0.954347776
vt 0.462890625 0.941406250
vt 0.414900711 0.954347776
vt 0.414900711 0.941406250
vt 0.519531250 0.941406250
vt 0.519531250 0.954347776
vt 0.471541556 0.954347776
vt 0.519531250 0.941406250
vt 0.471541556 0.954347776
vt 0.471541556 0.941406250
vt 0.575333806 0.941406250
vt 0.575333806 0.954347776
vt 0.527343750 0.954347776
vt 0.575333806 0.941406250
vt 0.527343750 0.954347776
vt 0.527343750 0.941406250
vt 0.632812500 0.941406250
vt 0.632812500 0.954347776
vt 0.584822806 0.954347776
vt 0.632812500 0.941406250
vt 0.584822806 0.954347776
vt 0.584822806 0.941406250
vt 0.689453125 0.941406250
vt 0.689453125 0.954347776
vt 0.641463211 0.954347776
vt 0.689453125 0.941406250
vt 0.641463211 0.954347776
vt 0.641463211 0.941406250
vt 0.746093750 0.941406250
vt 0.746093750 0.954347776
vt 0.698103836 0.954347776
vt 0.746093750 0.941406250
vt 0.698103836 0.954347776
vt 0.698103836 0.941406250
vt 0.802734375 0.941406250
vt 0.802734375 0.954347776
vt 0.754744681 0.954347776
vt 0.802734375 0.941406250
vt 0.754744681 0.954347776
vt 0.754744681 0.941406250
vt 0.810546875 0.954347776
vt 0.810546875 0.941406250
vt 0.858536931 0.941406250
vt 0.810546875 0.954347776
vt 0.858536931 0.941406250
vt 0.858536931 0.954347776
vt 0.144375015 0.813363745
vt 0.159204566 0.859004913
vt 0.144375015 0.904646082
vt 0.144375015 0.813363745
vt 0.144375015 0.904646082
vt 0.105550436 0.932853576
vt 0.144375015 0.813363745
vt 0.105550436 0.932853576
vt 0.057560380 0.932853576
vt 0.144375015 0.813363745
vt 0.057560380 0.932853576
vt 0.018735801 0.904646082
vt 0.144375015 0.813363745
vt 0.018735801 0.904646082
vt 0.003906250 0.859004913
vt 0.144375015 0.813363745
vt 0.003906250 0.859004913
vt 0.018735801 0.813363745
vt 0.144375015 0.813363745
vt 0.018735801 0.813363745
vt 0.057560380 0.785156250
vt 0.144375015 0.813363745
vt 0.057560380 0.785156250
vt 0.105550436 0.785156250
vt 0.916015625 0.941406250
vt 0.916015625 0.954347776
vt 0.868025931 0.954347776
vt 0.916015625 0.941406250
vt 0.868025931 0.954347776
vt 0.868025931 0.941406250
vt 0.972656250 0.941406250
vt 0.972656250 0.954347776
vt 0.924666336 0.954347776
vt 0.972656250 0.941406250
vt 0.924666336 0.954347776
vt 0.924666336 0.941406250
vt 0.323267066 0.859004913
vt 0.308437515 0.904646082
vt 0.269612936 0.932853576
vt 0.323267066 0.859004913
vt 0.269612936 0.932853576
vt 0.221622880 0.932853576
vt 0.323267066 0.859004913
vt 0.221622880 0.932853576
vt 0.182798301 0.904646082
vt 0.323267066 0.859004913
vt 0.182798301 0.904646082
vt 0.167968750 0.859004913
vt 0.323267066 0.859004913
vt 0.167968750 0.859004913
vt 0.182798301 0.813363745
vt 0.323267066 0.859004913
vt 0.182798301 0.813363745
vt 0.221622880 0.785156250
vt 0.323267066 0.859004913
vt 0.221622880 0.785156250
vt 0.269612936 0.785156250
vt 0.323267066 0.859004913
vt 0.269612936 0.785156250
vt 0.308437515 0.813363745
vt 0.613281250 0.785156250
vt 0.626222776 0.785156250
vt 0.626222776 0.866028060
vt 0.613281250 0.785156250
vt 0.626222776 0.866028060
vt 0.613281250 0.866028060
vt 0.634765625 0.785156250
vt 0.647707151 0.785156250
vt 0.647707151 0.866027825
vt 0.634765625 0.785156250
vt 0.647707151 0.866027825
vt 0.634765625 0.866027825
vt 0.669921875 0.866027848
vt 0.656980349 0.866027848
vt 0.656980349 0.785156250
vt 0.669921875 0.866027848
vt 0.656980349 0.785156250
vt 0.669921875 0.785156250
vt 0.677734375 0.785156250
vt 0.690675901 0.785156250
vt 0.690675901 0.866027825
vt 0.677734375 0.785156250
vt 0.690675901 0.866027825
vt 0.677734375 0.866027825
vt 0.699218750 0.785156250
vt 0.712160276 0.785156250
vt 0.712160276 0.866028060
vt 0.699218750 0.785156250
vt 0.712160276 0.866028060
vt 0.699218750 0.866028060
vt 0.720703125 0.785156250
vt 0.733644651 0.785156250
vt 0.733644651 0.866028060
vt 0.720703125 0.785156250
vt 0.733644651 0.866028060
vt 0.720703125 0.866028060
vt 0.742187500 0.785156250
vt 0.755129026 0.785156250
vt 0.755129026 0.866027825
vt 0.742187500 0.785156250
vt 0.755129026 0.866027825
vt 0.742187500 0.866027825
vt 0.764402224 0.785156250
vt 0.777343750 0.785156250
vt 0.777343750 0.866027848
vt 0.764402224 0.785156250
vt 0.777343750 0.866027848
vt 0.764402224 0.866027848
vt 0.487621305 0.396871865
vt 0.410707657 0.421862671
vt 0.333794009 0.396871865
vt 0.487621305 0.396871865
vt 0.333794009 0.396871865
vt 0.286259064 0.331445260
vt 0.487621305 0.396871865
vt 0.286259064 0.331445260
vt 0.286259064 0.250573662
vt 0.487621305 0.396871865
vt 0.286259064 0.250573662
vt 0.333794009 0.185147056
vt 0.487621305 0.396871865
vt 0.333794009 0.185147056
vt 0.410707657 0.160156250
vt 0.487621305 0.396871865
vt 0.410707657 0.160156250
vt 0.487621305 0.185147056
vt 0.487621305 0.396871865
vt 0.487621305 0.185147056
vt 0.535156250 0.250573662
vt 0.487621305 0.396871865
vt 0.535156250 0.250573662
vt 0.535156250 0.331445260
vt 0.785156250 0.785156250
vt 0.798097776 0.785156250
vt 0.798097776 0.866027825
vt 0.785156250 0.785156250
vt 0.798097776 0.866027825
vt 0.785156250 0.866027825
vt 0.806640625 0.785156250
vt 0.819582151 0.785156250
vt 0.819582151 0.866028060
vt 0.806640625 0.785156250
vt 0.819582151 0.866028060
vt 0.806640625 0.866028060
vt 0.668520157 0.421862671
vt 0.591606509 0.396871865
vt 0.544071564 0.331445260
vt 0.668520157 0.421862671
vt 0.544071564 0.331445260
vt 0.544071564 0.250573662
vt 0.668520157 0.421862671
vt 0.544071564 0.250573662
vt 0.591606509 0.185147056
vt 0.668520157 0.421862671
vt 0.591606509 0.185147056
vt 0.668520157 0.160156250
vt 0.668520157 0.421862671
vt 0.668520157 0.160156250
vt 0.745433805 0.185147056
vt 0.668520157 0.421862671
vt 0.745433805 0.185147056
vt 0.792968750 0.250573662
vt 0.668520157 0.421862671
vt 0.792968750 0.250573662
vt 0.792968750 0.331445260
vt 0.668520157 0.421862671
vt 0.792968750 0.331445260
vt 0.745433805 0.396871865
vt 0.511375777 0.504455309
vt 0.556382772 0.504048723
vt 0.564301961 0.563066703
vt 0.511375777 0.504455309
vt 0.564301961 0.563066703
vt 0.520779722 0.574539125
vt 0.520779722 0.574539125
vt 0.564301961 0.563066703
vt 0.585937500 0.612194848
vt 0.520779722 0.574539125
vt 0.585937500 0.612194848
vt 0.546472017 0.632879008
vt 0.536158149 0.921761250
vt 0.492498250 0.910976645
vt 0.499878303 0.853458750
vt 0.536158149 0.921761250
vt 0.499878303 0.853458750
vt 0.544921875 0.853458750
vt 0.544921875 0.853458750
vt 0.499878303 0.853458750
vt 0.492498250 0.795940855
vt 0.544921875 0.853458750
vt 0.492498250 0.795940855
vt 0.536158149 0.785156250
vt 0.839936529 0.733666800
vt 0.817907664 0.772874236
vt 0.764436059 0.750434253
vt 0.839936529 0.733666800
vt 0.764436059 0.750434253
vt 0.776438770 0.707019224
vt 0.776438770 0.707019224
vt 0.764436059 0.750434253
vt 0.707031250 0.742220615
vt 0.776438770 0.707019224
vt 0.707031250 0.742220615
vt 0.708270626 0.697265625
vt 0.981275280 0.697265625
vt 0.982514653 0.742220616
vt 0.925109844 0.750434251
vt 0.981275280 0.697265625
vt 0.925109844 0.750434251
vt 0.913107136 0.707019222
vt 0.913107136 0.707019222
vt 0.925109844 0.750434251
vt 0.871638237 0.772874229
vt 0.913107136 0.707019222
vt 0.871638237 0.772874229
vt 0.849609375 0.733666791
vt 0.561808852 0.785156250
vt 0.605468750 0.795940855
vt 0.598088697 0.853458750
vt 0.561808852 0.785156250
vt 0.598088697 0.853458750
vt 0.553045125 0.853458750
vt 0.553045125 0.853458750
vt 0.598088697 0.853458750
vt 0.605468750 0.910976645
vt 0.553045125 0.853458750
vt 0.605468750 0.910976645
vt 0.561808852 0.921761250
vt 0.486144034 0.498924145
vt 0.501555954 0.556442040
vt 0.486144034 0.613959934
vt 0.486144034 0.498924145
vt 0.486144034 0.613959934
vt 0.444038059 0.656065909
vt 0.486144034 0.498924145
vt 0.444038059 0.656065909
vt 0.386520165 0.671477829
vt 0.486144034 0.498924145
vt 0.386520165 0.671477829
vt 0.329002270 0.656065909
vt 0.486144034 0.498924145
vt 0.329002270 0.656065909
vt 0.286896295 0.613959934
vt 0.486144034 0.498924145
vt 0.286896295 0.613959934
vt 0.271484375 0.556442040
vt 0.486144034 0.498924145
vt 0.271484375 0.556442040
vt 0.286896295 0.498924145
vt 0.486144034 0.498924145
vt 0.286896295 0.498924145
vt 0.329002270 0.456818170
vt 0.486144034 0.498924145
vt 0.329002270 0.456818170
vt 0.386520165 0.441406250
vt 0.486144034 0.498924145
vt 0.386520165 0.441406250
vt 0.444038059 0.456818170
vt 0.828125000 0.785156250
vt 0.872821352 0.790738893
vt 0.872821352 0.850285734
vt 0.828125000 0.785156250
vt 0.872821352 0.850285734
vt 0.828125000 0.855868378
vt 0.520779722 0.441406250
vt 0.564301961 0.450954807
vt 0.556382772 0.504048723
vt 0.520779722 0.441406250
vt 0.556382772 0.504048723
vt 0.511375777 0.504455309
vt 0.277116250 0.296761250
vt 0.258814775 0.365063750
vt 0.208813750 0.415064775
vt 0.277116250 0.296761250
vt 0.208813750 0.415064775
vt 0.140511250 0.433366250
vt 0.277116250 0.296761250
vt 0.140511250 0.433366250
vt 0.072208750 0.415064775
vt 0.277116250 0.296761250
vt 0.072208750 0.415064775
vt 0.022207725 0.365063750
vt 0.277116250 0.296761250
vt 0.022207725 0.365063750
vt 0.003906250 0.296761250
vt 0.277116250 0.296761250
vt 0.003906250 0.296761250
vt 0.022207725 0.228458750
vt 0.277116250 0.296761250
vt 0.022207725 0.228458750
vt 0.072208750 0.178457725
vt 0.277116250 0.296761250
vt 0.072208750 0.178457725
vt 0.140511250 0.160156250
vt 0.277116250 0.296761250
vt 0.140511250 0.160156250
vt 0.208813750 0.178457725
vt 0.277116250 0.296761250
vt 0.208813750 0.178457725
vt 0.258814775 0.228458750
vt 0.593750000 0.613171470
vt 0.593750049 0.446058413
vt 0.640174633 0.441406250
vt 0.593750000 0.613171470
vt 0.640174633 0.441406250
vt 0.673334202 0.605196233
vt 0.880859375 0.160156340
vt 0.864195903 0.326436358
vt 0.817539339 0.326436410
vt 0.880859375 0.160156340
vt 0.817539339 0.326436410
vt 0.800876271 0.160156250
vt 0.968654822 0.160156250
vt 0.951991887 0.326436424
vt 0.905334809 0.326436424
vt 0.968654822 0.160156250
vt 0.905334809 0.326436424
vt 0.888671875 0.160156250
vt 0.003906250 0.697265625
vt 0.170186410 0.713928693
vt 0.170186358 0.760585258
vt 0.003906250 0.697265625
vt 0.170186358 0.760585258
vt 0.003906340 0.777248729
vt 0.761224829 0.449381470
vt 0.728065294 0.613171460
vt 0.681640710 0.608519307
vt 0.761224829 0.449381470
vt 0.681640710 0.608519307
vt 0.681640625 0.441406250
vt 0.849115452 0.441406250
vt 0.849115403 0.608519307
vt 0.802690819 0.613171470
vt 0.849115452 0.441406250
vt 0.802690819 0.613171470
vt 0.769531250 0.449381486
vt 0.179687590 0.697265625
vt 0.345967608 0.713929097
vt 0.345967660 0.760585661
vt 0.179687590 0.697265625
vt 0.345967660 0.760585661
vt 0.179687500 0.777248729
vt 0.357157326 0.697265625
vt 0.523437500 0.713928559
vt 0.523437500 0.760585637
vt 0.357157326 0.697265625
vt 0.523437500 0.760585637
vt 0.357157326 0.777248572
vt 0.468598145 0.812580063
vt 0.483015724 0.856953681
vt 0.468598145 0.901327299
vt 0.468598145 0.812580063
vt 0.468598145 0.901327299
vt 0.430852026 0.928751112
vt 0.468598145 0.812580063
vt 0.430852026 0.928751112
vt 0.384194948 0.928751112
vt 0.468598145 0.812580063
vt 0.384194948 0.928751112
vt 0.346448829 0.901327299
vt 0.468598145 0.812580063
vt 0.346448829 0.901327299
vt 0.332031250 0.856953681
vt 0.468598145 0.812580063
vt 0.332031250 0.856953681
vt 0.346448829 0.812580063
vt 0.468598145 0.812580063
vt 0.346448829 0.812580063
vt 0.384194948 0.785156250
vt 0.468598145 0.812580063
vt 0.384194948 0.785156250
vt 0.430852026 0.785156250
vt 0.531250000 0.697265625
vt 0.697530160 0.713928693
vt 0.697530108 0.760585258
vt 0.531250000 0.697265625
vt 0.697530108 0.760585258
vt 0.531250090 0.777248729
vt 0.857421875 0.605196240
vt 0.890581410 0.441406250
vt 0.937005994 0.446058403
vt 0.857421875 0.605196240
vt 0.937005994 0.446058403
vt 0.937006079 0.613171460
vt 0.262736777 0.564487355
vt 0.238020618 0.640555490
vt 0.173312987 0.687568460
vt 0.262736777 0.564487355
vt 0.173312987 0.687568460
vt 0.093330040 0.687568460
vt 0.262736777 0.564487355
vt 0.093330040 0.687568460
vt 0.028622408 0.640555490
vt 0.262736777 0.564487355
vt 0.028622408 0.640555490
vt 0.003906250 0.564487355
vt 0.262736777 0.564487355
vt 0.003906250 0.564487355
vt 0.028622408 0.488419220
vt 0.262736777 0.564487355
vt 0.028622408 0.488419220
vt 0.093330040 0.441406250
vt 0.262736777 0.564487355
vt 0.093330040 0.441406250
vt 0.173312987 0.441406250
vt 0.262736777 0.564487355
vt 0.173312987 0.441406250
vt 0.238020618 0.488419220
vt 0.003906250 0.003906250
vt 0.996089935 0.003906250
vt 0.996089935 0.013811296
vt 0.003906250 0.003906250
vt 0.996089935 0.013811296
vt 0.003906250 0.013811296
vt 0.003906250 0.023437500
vt 0.996089935 0.023437500
vt 0.996089935 0.033342546
vt 0.003906250 0.023437500
vt 0.996089935 0.033342546
vt 0.003906250 0.033342546
vt 0.003906250 0.042968750
vt 0.996089935 0.042968750
vt 0.996089935 0.052873796
vt 0.003906250 0.042968750
vt 0.996089935 0.052873796
vt 0.003906250 0.052873796
vt 0.003906250 0.062500000
vt 0.996089935 0.062500000
vt 0.996089935 0.072405046
vt 0.003906250 0.062500000
vt 0.996089935 0.072405046
vt 0.003906250 0.072405046
vt 0.003906250 0.082031250
vt 0.996089935 0.082031250
vt 0.996089935 0.091936296
vt 0.003906250 0.082031250
vt 0.996089935 0.091936296
vt 0.003906250 0.091936296
vt 0.003906250 0.101562500
vt 0.996089935 0.101562500
vt 0.996089935 0.111467546
vt 0.003906250 0.101562500
vt 0.996089935 0.111467546
vt 0.003906250 0.111467546
vt 0.025998873 0.968634179
vt 0.029789303 0.977785276
vt 0.025998873 0.986936373
vt 0.025998873 0.968634179
vt 0.025998873 0.986936373
vt 0.016847776 0.990726803
vt 0.025998873 0.968634179
vt 0.016847776 0.990726803
vt 0.007696679 0.986936373
vt 0.025998873 0.968634179
vt 0.007696679 0.986936373
vt 0.003906250 0.977785276
vt 0.025998873 0.968634179
vt 0.003906250 0.977785276
vt 0.007696679 0.968634179
vt 0.025998873 0.968634179
vt 0.007696679 0.968634179
vt 0.016847776 0.964843750
vt 0.003906250 0.121093750
vt 0.996089935 0.121093750
vt 0.996089935 0.130998796
vt 0.003906250 0.121093750
vt 0.996089935 0.130998796
vt 0.003906250 0.130998796
vt 0.003906250 0.140625000
vt 0.996089935 0.140625000
vt 0.996089935 0.150530046
vt 0.003906250 0.140625000
vt 0.996089935 0.150530046
vt 0.003906250 0.150530046
vt 0.064945553 0.977785276
vt 0.061155123 0.986936373
vt 0.052004026 0.990726803
vt 0.064945553 0.977785276
vt 0.052004026 0.990726803
vt 0.042852929 0.986936373
vt 0.064945553 0.977785276
vt 0.042852929 0.986936373
vt 0.039062500 0.977785276
vt 0.064945553 0.977785276
vt 0.039062500 0.977785276
vt 0.042852929 0.968634179
vt 0.064945553 0.977785276
vt 0.042852929 0.968634179
vt 0.052004026 0.964843750
vt 0.064945553 0.977785276
vt 0.052004026 0.964843750
vt 0.061155123 0.968634179
vt 0.960937500 0.441406250
vt 0.960937500 0.491734408
vt 0.945385665 0.491734408
vt 0.960937500 0.441406250
vt 0.945385665 0.491734408
vt 0.945385665 0.441406250
vt 0.984375000 0.441406250
vt 0.984375000 0.491734408
vt 0.968822530 0.491734408
vt 0.984375000 0.441406250
vt 0.968822530 0.491734408
vt 0.968822530 0.441406250
vt 0.992115339 0.160156250
vt 0.992115339 0.210484408
vt 0.976562500 0.210484408
vt 0.992115339 0.160156250
vt 0.976562500 0.210484408
vt 0.976562500 0.160156250
vt 0.003906250 0.941406250
vt 0.054234408 0.941406250
vt 0.054234408 0.956958720
vt 0.003906250 0.941406250
vt 0.054234408 0.956958720
vt 0.003906250 0.956958720
vt 0.062500000 0.941406250
vt 0.112828158 0.941406250
vt 0.112828158 0.956958085
vt 0.062500000 0.941406250
vt 0.112828158 0.956958085
vt 0.062500000 0.956958085
vt 0.121093750 0.941406250
vt 0.171421908 0.941406250
vt 0.171421908 0.956958085
vt 0.121093750 0.941406250
vt 0.171421908 0.956958085
vt 0.121093750 0.956958085
vt 0.179687500 0.941406250
vt 0.230015658 0.941406250
vt 0.230015658 0.956958720
vt 0.179687500 0.941406250
vt 0.230015658 0.956958720
vt 0.179687500 0.956958720
vt 0.238734342 0.941406250
vt 0.289062500 0.941406250
vt 0.289062500 0.956959089
vt 0.238734342 0.941406250
vt 0.289062500 0.956959089
vt 0.238734342 0.956959089
vt 0.920545750 0.830678788
vt 0.905755023 0.835484408
vt 0.890964296 0.830678788
vt 0.920545750 0.830678788
vt 0.890964296 0.830678788
vt 0.881822546 0.818096748
vt 0.920545750 0.830678788
vt 0.881822546 0.818096748
vt 0.881822546 0.802543910
vt 0.920545750 0.830678788
vt 0.881822546 0.802543910
vt 0.890964296 0.789961870
vt 0.920545750 0.830678788
vt 0.890964296 0.789961870
vt 0.905755023 0.785156250
vt 0.920545750 0.830678788
vt 0.905755023 0.785156250
vt 0.920545750 0.789961870
vt 0.920545750 0.830678788
vt 0.920545750 0.789961870
vt 0.929687500 0.802543910
vt 0.920545750 0.830678788
vt 0.929687500 0.802543910
vt 0.929687500 0.818096748
vt 0.296875000 0.941406250
vt 0.347203158 0.941406250
vt 0.347203158 0.956958720
vt 0.296875000 0.941406250
vt 0.347203158 0.956958720
vt 0.296875000 0.956958720
vt 0.355468750 0.941406250
vt 0.405796908 0.941406250
vt 0.405796908 0.956958085
vt 0.355468750 0.941406250
vt 0.405796908 0.956958085
vt 0.355468750 0.956958085
vt 0.962395648 0.835484408
vt 0.947604921 0.830678788
vt 0.938463171 0.818096748
vt 0.962395648 0.835484408
vt 0.938463171 0.818096748
vt 0.938463171 0.802543910
vt 0.962395648 0.835484408
vt 0.938463171 0.802543910
vt 0.947604921 0.789961870
vt 0.962395648 0.835484408
vt 0.947604921 0.789961870
vt 0.962395648 0.785156250
vt 0.962395648 0.835484408
vt 0.962395648 0.785156250
vt 0.977186375 0.789961870
vt 0.962395648 0.835484408
vt 0.977186375 0.789961870
vt 0.986328125 0.802543910
vt 0.962395648 0.835484408
vt 0.986328125 0.802543910
vt 0.986328125 0.818096748
vt 0.962395648 0.835484408
vt 0.986328125 0.818096748
vt 0.977186375 0.830678788
f 1/1/1 2/2/1 4/3/1
usemtl UV_Base
f 1/4/2 4/5/2 3/6/2
usemtl UV_Base
f 3/7/3 4/8/3 6/9/3
usemtl UV_Base
f 3/10/4 6/11/4 5/12/4
usemtl UV_Base
f 5/13/5 6/14/5 8/15/5
usemtl UV_Base
f 5/16/6 8/17/6 7/18/6
usemtl UV_Base
f 7/19/7 8/20/7 10/21/7
usemtl UV_Base
f 7/22/8 10/23/8 9/24/8
usemtl UV_Base
f 9/25/9 10/26/9 12/27/9
usemtl UV_Base
f 9/28/10 12/29/10 11/30/10
usemtl UV_Base
f 11/31/11 12/32/11 14/33/11
usemtl UV_Base
f 11/34/12 14/35/12 13/36/12
usemtl UV_Base
f 13/37/13 14/38/13 16/39/13
usemtl UV_Base
f 13/40/14 16/41/14 15/42/14
usemtl UV_Base
f 15/43/15 16/44/15 18/45/15
usemtl UV_Base
f 15/46/16 18/47/16 17/48/16
usemtl UV_Base
f 4/49/17 2/50/17 20/51/17
usemtl UV_Base
f 4/52/18 20/53/18 18/54/18
usemtl UV_Base
f 4/55/19 18/56/19 16/57/19
usemtl UV_Base
f 4/58/20 16/59/20 14/60/20
usemtl UV_Base
f 4/61/21 14/62/21 12/63/21
usemtl UV_Base
f 4/64/22 12/65/22 10/66/22
usemtl UV_Base
f 4/67/23 10/68/23 8/69/23
usemtl UV_Base
f 4/70/24 8/71/24 6/72/24
usemtl UV_Base
f 17/73/25 18/74/25 20/75/25
usemtl UV_Base
f 17/76/26 20/77/26 19/78/26
usemtl UV_Base
f 19/79/27 20/80/27 2/81/27
usemtl UV_Base
f 19/82/28 2/83/28 1/84/28
usemtl UV_Base
f 1/85/29 3/86/29 5/87/29
usemtl UV_Base
f 1/88/30 5/89/30 7/90/30
usemtl UV_Base
f 1/91/31 7/92/31 9/93/31
usemtl UV_Base
f 1/94/32 9/95/32 11/96/32
usemtl UV_Base
f 1/97/33 11/98/33 13/99/33
usemtl UV_Base
f 1/100/34 13/101/34 15/102/34
usemtl UV_Base
f 1/103/35 15/104/35 17/105/35
usemtl UV_Base
f 1/106/36 17/107/36 19/108/36
usemtl UV_Base
f 21/109/37 22/110/37 24/111/37
usemtl UV_Base
f 21/112/38 24/113/38 23/114/38
usemtl UV_Base
f 23/115/39 24/116/39 26/117/39
usemtl UV_Base
f 23/118/40 26/119/40 25/120/40
usemtl UV_Base
f 25/121/41 26/122/41 28/123/41
usemtl UV_Base
f 25/124/42 28/125/42 27/126/42
usemtl UV_Base
f 27/127/43 28/128/43 30/129/43
usemtl UV_Base
f 27/130/44 30/131/44 29/132/44
usemtl UV_Base
f 29/133/45 30/134/45 32/135/45
usemtl UV_Base
f 29/136/46 32/137/46 31/138/46
usemtl UV_Base
f 31/139/47 32/140/47 34/141/47
usemtl UV_Base
f 31/142/48 34/143/48 33/144/48
usemtl UV_Base
f 33/145/49 34/146/49 36/147/49
usemtl UV_Base
f 33/148/50 36/149/50 35/150/50
usemtl UV_Base
f 35/151/51 36/152/51 38/153/51
usemtl UV_Base
f 35/154/52 38/155/52 37/156/52
usemtl UV_Base
f 24/157/53 22/158/53 40/159/53
usemtl UV_Base
f 24/160/54 40/161/54 38/162/54
usemtl UV_Base
f 24/163/55 38/164/55 36/165/55
usemtl UV_Base
f 24/166/56 36/167/56 34/168/56
usemtl UV_Base
f 24/169/57 34/170/57 32/171/57
usemtl UV_Base
f 24/172/58 32/173/58 30/174/58
usemtl UV_Base
f 24/175/59 30/176/59 28/177/59
usemtl UV_Base
f 24/178/60 28/179/60 26/180/60
usemtl UV_Base
f 37/181/61 38/182/61 40/183/61
usemtl UV_Base
f 37/184/62 40/185/62 39/186/62
usemtl UV_Base
f 39/187/63 40/188/63 22/189/63
usemtl UV_Base
f 39/190/64 22/191/64 21/192/64
usemtl UV_Base
f 21/193/65 23/194/65 25/195/65
usemtl UV_Base
f 21/196/66 25/197/66 27/198/66
usemtl UV_Base
f 21/199/67 27/200/67 29/201/67
usemtl UV_Base
f 21/202/68 29/203/68 31/204/68
usemtl UV_Base
f 21/205/69 31/206/69 33/207/69
usemtl UV_Base
f 21/208/70 33/209/70 35/210/70
usemtl UV_Base
f 21/211/71 35/212/71 37/213/71
usemtl UV_Base
f 21/214/72 37/215/72 39/216/72
usemtl UV_Base
f 41/217/73 42/218/73 44/219/73
usemtl UV_Base
f 41/220/74 44/221/74 43/222/74
usemtl UV_Base
f 43/223/75 44/224/75 46/225/75
usemtl UV_Base
f 43/226/76 46/227/76 45/228/76
usemtl UV_Base
f 45/229/77 46/230/77 48/231/77
usemtl UV_Base
f 45/232/78 48/233/78 47/234/78
usemtl UV_Base
f 47/235/79 48/236/79 50/237/79
usemtl UV_Base
f 47/238/80 50/239/80 49/240/80
usemtl UV_Base
f 49/241/81 50/242/81 52/243/81
usemtl UV_Base
f 49/244/82 52/245/82 51/246/82
usemtl UV_Base
f 51/247/83 52/248/83 54/249/83
usemtl UV_Base
f 51/250/84 54/251/84 53/252/84
usemtl UV_Base
f 53/253/85 54/254/85 56/255/85
usemtl UV_Base
f 53/256/86 56/257/86 55/258/86
usemtl UV_Base
f 55/259/87 56/260/87 58/261/87
usemtl UV_Base
f 55/262/88 58/263/88 57/264/88
usemtl UV_Base
f 57/265/89 58/266/89 60/267/89
usemtl UV_Base
f 57/268/90 60/269/90 59/270/90
usemtl UV_Base
f 59/271/91 60/272/91 62/273/91
usemtl UV_Base
f 59/274/92 62/275/92 61/276/92
usemtl UV_Base
f 44/277/93 42/278/93 64/279/93
usemtl UV_Base
f 44/280/94 64/281/94 62/282/94
usemtl UV_Base
f 44/283/95 62/284/95 60/285/95
usemtl UV_Base
f 44/286/96 60/287/96 58/288/96
usemtl UV_Base
f 44/289/97 58/290/97 56/291/97
usemtl UV_Base
f 44/292/98 56/293/98 54/294/98
usemtl UV_Base
f 44/295/99 54/296/99 52/297/99
usemtl UV_Base
f 44/298/100 52/299/100 50/300/100
usemtl UV_Base
f 44/301/101 50/302/101 48/303/101
usemtl UV_Base
f 44/304/102 48/305/102 46/306/102
usemtl UV_Base
f 61/307/103 62/308/103 64/309/103
usemtl UV_Base
f 61/310/104 64/311/104 63/312/104
usemtl UV_Base
f 63/313/105 64/314/105 42/315/105
usemtl UV_Base
f 63/316/106 42/317/106 41/318/106
usemtl UV_Base
f 41/319/107 43/320/107 45/321/107
usemtl UV_Base
f 41/322/108 45/323/108 47/324/108
usemtl UV_Base
f 41/325/109 47/326/109 49/327/109
usemtl UV_Base
f 41/328/110 49/329/110 51/330/110
usemtl UV_Base
f 41/331/111 51/332/111 53/333/111
usemtl UV_Base
f 41/334/112 53/335/112 55/336/112
usemtl UV_Base
f 41/337/113 55/338/113 57/339/113
usemtl UV_Base
f 41/340/114 57/341/114 59/342/114
usemtl UV_Base
f 41/343/115 59/344/115 61/345/115
usemtl UV_Base
f 41/346/116 61/347/116 63/348/116
usemtl UV_Base
f 65/349/117 66/350/117 68/351/117
usemtl UV_Base
f 65/352/118 68/353/118 67/354/118
usemtl UV_Base
f 67/355/119 68/356/119 70/357/119
usemtl UV_Base
f 67/358/120 70/359/120 69/360/120
usemtl UV_Base
f 69/361/121 70/362/121 72/363/121
usemtl UV_Base
f 69/364/122 72/365/122 71/366/122
usemtl UV_Base
f 71/367/123 72/368/123 74/369/123
usemtl UV_Base
f 71/370/124 74/371/124 73/372/124
usemtl UV_Base
f 73/373/125 74/374/125 76/375/125
usemtl UV_Base
f 73/376/126 76/377/126 75/378/126
usemtl UV_Base
f 75/379/127 76/380/127 78/381/127
usemtl UV_Base
f 75/382/128 78/383/128 77/384/128
usemtl UV_Base
f 77/385/129 78/386/129 80/387/129
usemtl UV_Base
f 77/388/130 80/389/130 79/390/130
usemtl UV_Base
f 79/391/131 80/392/131 82/393/131
usemtl UV_Base
f 79/394/132 82/395/132 81/396/132
usemtl UV_Base
f 68/397/133 66/398/133 84/399/133
usemtl UV_Base
f 68/400/134 84/401/134 82/402/134
usemtl UV_Base
f 68/403/135 82/404/135 80/405/135
usemtl UV_Base
f 68/406/136 80/407/136 78/408/136
usemtl UV_Base
f 68/409/137 78/410/137 76/411/137
usemtl UV_Base
f 68/412/138 76/413/138 74/414/138
usemtl UV_Base
f 68/415/139 74/416/139 72/417/139
usemtl UV_Base
f 68/418/140 72/419/140 70/420/140
usemtl UV_Base
f 81/421/141 82/422/141 84/423/141
usemtl UV_Base
f 81/424/142 84/425/142 83/426/142
usemtl UV_Base
f 83/427/143 84/428/143 66/429/143
usemtl UV_Base
f 83/430/144 66/431/144 65/432/144
usemtl UV_Base
f 65/433/145 67/434/145 69/435/145
usemtl UV_Base
f 65/436/146 69/437/146 71/438/146
usemtl UV_Base
f 65/439/147 71/440/147 73/441/147
usemtl UV_Base
f 65/442/148 73/443/148 75/444/148
usemtl UV_Base
f 65/445/149 75/446/149 77/447/149
usemtl UV_Base
f 65/448/150 77/449/150 79/450/150
usemtl UV_Base
f 65/451/151 79/452/151 81/453/151
usemtl UV_Base
f 65/454/152 81/455/152 83/456/152
usemtl UV_Base
f 85/457/153 86/458/153 88/459/153
usemtl UV_Base
f 85/460/154 88/461/154 87/462/154
usemtl UV_Base
f 87/463/155 88/464/155 90/465/155
usemtl UV_Base
f 87/466/156 90/467/156 89/468/156
usemtl UV_Base
f 89/469/157 90/470/157 92/471/157
usemtl UV_Base
f 89/472/158 92/473/158 91/474/158
usemtl UV_Base
f 91/475/159 92/476/159 94/477/159
usemtl UV_Base
f 91/478/160 94/479/160 93/480/160
usemtl UV_Base
f 93/481/161 94/482/161 96/483/161
usemtl UV_Base
f 93/484/162 96/485/162 95/486/162
usemtl UV_Base
f 95/487/163 96/488/163 98/489/163
usemtl UV_Base
f 95/490/164 98/491/164 97/492/164
usemtl UV_Base
f 88/493/165 86/494/165 100/495/165
usemtl UV_Base
f 88/496/166 100/497/166 98/498/166
usemtl UV_Base
f 88/499/167 98/500/167 96/501/167
usemtl UV_Base
f 88/502/168 96/503/168 94/504/168
usemtl UV_Base
f 88/505/169 94/506/169 92/507/169
usemtl UV_Base
f 88/508/170 92/509/170 90/510/170
usemtl UV_Base
f 97/511/171 98/512/171 100/513/171
usemtl UV_Base
f 97/514/172 100/515/172 99/516/172
usemtl UV_Base
f 99/517/173 100/518/173 86/519/173
usemtl UV_Base
f 99/520/174 86/521/174 85/522/174
usemtl UV_Base
f 85/523/175 87/524/175 89/525/175
usemtl UV_Base
f 85/526/176 89/527/176 91/528/176
usemtl UV_Base
f 85/529/177 91/530/177 93/531/177
usemtl UV_Base
f 85/532/178 93/533/178 95/534/178
usemtl UV_Base
f 85/535/179 95/536/179 97/537/179
usemtl UV_Base
f 85/538/180 97/539/180 99/540/180
usemtl UV_Base
f 101/541/181 102/542/181 104/543/181
usemtl UV_Base
f 101/544/182 104/545/182 103/546/182
usemtl UV_Base
f 103/547/183 104/548/183 106/549/183
usemtl UV_Base
f 103/550/184 106/551/184 105/552/184
usemtl UV_Base
f 105/553/185 106/554/185 108/555/185
usemtl UV_Base
f 105/556/186 108/557/186 107/558/186
usemtl UV_Base
f 107/559/187 108/560/187 110/561/187
usemtl UV_Base
f 107/562/188 110/563/188 109/564/188
usemtl UV_Base
f 109/565/189 110/566/189 112/567/189
usemtl UV_Base
f 109/568/190 112/569/190 111/570/190
usemtl UV_Base
f 111/571/191 112/572/191 114/573/191
usemtl UV_Base
f 111/574/192 114/575/192 113/576/192
usemtl UV_Base
f 113/577/193 114/578/193 116/579/193
usemtl UV_Base
f 113/580/194 116/581/194 115/582/194
usemtl UV_Base
f 115/583/195 116/584/195 118/585/195
usemtl UV_Base
f 115/586/196 118/587/196 117/588/196
usemtl UV_Base
f 104/589/197 102/590/197 120/591/197
usemtl UV_Base
f 104/592/198 120/593/198 118/594/198
usemtl UV_Base
f 104/595/199 118/596/199 116/597/199
usemtl UV_Base
f 104/598/200 116/599/200 114/600/200
usemtl UV_Base
f 104/601/201 114/602/201 112/603/201
usemtl UV_Base
f 104/604/202 112/605/202 110/606/202
usemtl UV_Base
f 104/607/203 110/608/203 108/609/203
usemtl UV_Base
f 104/610/204 108/611/204 106/612/204
usemtl UV_Base
f 117/613/205 118/614/205 120/615/205
usemtl UV_Base
f 117/616/206 120/617/206 119/618/206
usemtl UV_Base
f 119/619/207 120/620/207 102/621/207
usemtl UV_Base
f 119/622/208 102/623/208 101/624/208
usemtl UV_Base
f 101/625/209 103/626/209 105/627/209
usemtl UV_Base
f 101/628/210 105/629/210 107/630/210
usemtl UV_Base
f 101/631/211 107/632/211 109/633/211
usemtl UV_Base
f 101/634/212 109/635/212 111/636/212
usemtl UV_Base
f 101/637/213 111/638/213 113/639/213
usemtl UV_Base
f 101/640/214 113/641/214 115/642/214
usemtl UV_Base
f 101/643/215 115/644/215 117/645/215
usemtl UV_Base
f 101/646/216 117/647/216 119/648/216
