# Companion asset; Z up, tile units.
mtllib ../Materials/metal_trashcan.mtl
o metal_trashcan
usemtl UV_Base
v 0.285000 0.000000 0.000000
v 0.263306 0.109065 0.000000
v 0.267925 0.110978 0.820000
vn 0.980768 0.195087 -0.005980
vn 0.980768 0.195087 -0.005980
vn 0.980768 0.195087 -0.005980
vt 0.004021107 0.096753719
vt 0.004021109 0.049111727
vt 0.355339050 0.048693960
vt 0.004021107 0.096753719
vt 0.355339050 0.048693960
vt 0.355339050 0.097171633
vt 0.004021109 0.049111727
vt 0.003906250 0.005096517
vt 0.355222179 0.003906250
vt 0.004021109 0.049111727
vt 0.355222179 0.003906250
vt 0.355339050 0.048693960
vt 0.363281250 0.098178916
vt 0.363337924 0.051452538
vt 0.714656132 0.051452436
vt 0.363281250 0.098178916
vt 0.714656132 0.051452436
vt 0.714598467 0.098998785
vt 0.363337924 0.051452538
vt 0.363281251 0.004726015
vt 0.714598466 0.003906250
vt 0.363337924 0.051452538
vt 0.714598466 0.003906250
vt 0.714656132 0.051452436
vt 0.003906251 0.244663394
vt 0.003962924 0.197936872
vt 0.355281132 0.197936974
vt 0.003906251 0.244663394
vt 0.355281132 0.197936974
vt 0.355223466 0.245483160
vt 0.003962924 0.197936872
vt 0.003906250 0.151210494
vt 0.355223467 0.150390625
vt 0.003962924 0.197936872
vt 0.355223467 0.150390625
vt 0.355281132 0.197936974
vt 0.363281250 0.244663291
vt 0.363337924 0.197936913
vt 0.714656132 0.197936811
vt 0.363281250 0.244663291
vt 0.714656132 0.197936811
vt 0.714598467 0.245483160
vt 0.363337924 0.197936913
vt 0.363281251 0.151210390
vt 0.714598466 0.150390625
vt 0.363337924 0.197936913
vt 0.714598466 0.150390625
vt 0.714656132 0.197936811
vt 0.003906251 0.348179019
vt 0.003962924 0.301452497
vt 0.355281132 0.301452599
vt 0.003906251 0.348179019
vt 0.355281132 0.301452599
vt 0.355223466 0.348998785
vt 0.003962924 0.301452497
vt 0.003906250 0.254726119
vt 0.355223467 0.253906250
vt 0.003962924 0.301452497
vt 0.355223467 0.253906250
vt 0.355281132 0.301452599
vt 0.363281250 0.348178916
vt 0.363337924 0.301452538
vt 0.714656132 0.301452436
vt 0.363281250 0.348178916
vt 0.714656132 0.301452436
vt 0.714598467 0.348998785
vt 0.363337924 0.301452538
vt 0.363281251 0.254726015
vt 0.714598466 0.253906250
vt 0.363337924 0.301452538
vt 0.714598466 0.253906250
vt 0.714656132 0.301452436
vt 0.003906251 0.451694644
vt 0.003962924 0.404968122
vt 0.355281132 0.404968224
vt 0.003906251 0.451694644
vt 0.355281132 0.404968224
vt 0.355223466 0.452514410
vt 0.003962924 0.404968122
vt 0.003906250 0.358241744
vt 0.355223467 0.357421875
vt 0.003962924 0.404968122
vt 0.355223467 0.357421875
vt 0.355281132 0.404968224
vt 0.363281250 0.405481724
vt 0.363281252 0.357839848
vt 0.714599211 0.357421875
vt 0.363281250 0.405481724
vt 0.714599211 0.357421875
vt 0.714599212 0.405899683
vt 0.003906251 0.140769220
vt 0.004021107 0.096753719
vt 0.355339050 0.097171633
vt 0.003906251 0.140769220
vt 0.355339050 0.097171633
vt 0.355222178 0.141959126
vt 0.238816373 0.815610009
vt 0.248110709 0.862336605
vt 0.126008480 0.862336605
vt 0.212347609 0.775997475
vt 0.238816373 0.815610009
vt 0.126008480 0.862336605
vt 0.172735075 0.749528711
vt 0.212347609 0.775997475
vt 0.126008480 0.862336605
vt 0.126008480 0.740234375
vt 0.172735075 0.749528711
vt 0.126008480 0.862336605
vt 0.079281884 0.749528711
vt 0.126008480 0.740234375
vt 0.126008480 0.862336605
vt 0.039669350 0.775997475
vt 0.079281884 0.749528711
vt 0.126008480 0.862336605
vt 0.013200586 0.815610009
vt 0.039669350 0.775997475
vt 0.126008480 0.862336605
vt 0.003906250 0.862336605
vt 0.013200586 0.815610009
vt 0.126008480 0.862336605
vt 0.013200586 0.909063200
vt 0.003906250 0.862336605
vt 0.126008480 0.862336605
vt 0.039669350 0.948675734
vt 0.013200586 0.909063200
vt 0.126008480 0.862336605
vt 0.079281884 0.975144498
vt 0.039669350 0.948675734
vt 0.126008480 0.862336605
vt 0.126008480 0.984438834
vt 0.079281884 0.975144498
vt 0.126008480 0.862336605
vt 0.172735075 0.975144498
vt 0.126008480 0.984438834
vt 0.126008480 0.862336605
vt 0.212347609 0.948675734
vt 0.172735075 0.975144498
vt 0.126008480 0.862336605
vt 0.238816373 0.909063200
vt 0.212347609 0.948675734
vt 0.126008480 0.862336605
vt 0.248110709 0.862336605
vt 0.238816373 0.909063200
vt 0.126008480 0.862336605
vt 0.680884999 0.585181874
vt 0.805129373 0.585181874
vt 0.795671806 0.632728054
vt 0.680884999 0.585181874
vt 0.795671806 0.632728054
vt 0.768739053 0.673035928
vt 0.680884999 0.585181874
vt 0.768739053 0.673035928
vt 0.728431179 0.699968681
vt 0.680884999 0.585181874
vt 0.728431179 0.699968681
vt 0.680884999 0.709426248
vt 0.680884999 0.585181874
vt 0.680884999 0.709426248
vt 0.633338819 0.699968681
vt 0.680884999 0.585181874
vt 0.633338819 0.699968681
vt 0.593030945 0.673035928
vt 0.680884999 0.585181874
vt 0.593030945 0.673035928
vt 0.566098192 0.632728054
vt 0.680884999 0.585181874
vt 0.566098192 0.632728054
vt 0.556640625 0.585181874
vt 0.680884999 0.585181874
vt 0.556640625 0.585181874
vt 0.566098192 0.537635694
vt 0.680884999 0.585181874
vt 0.566098192 0.537635694
vt 0.593030945 0.497327820
vt 0.680884999 0.585181874
vt 0.593030945 0.497327820
vt 0.633338819 0.470395067
vt 0.680884999 0.585181874
vt 0.633338819 0.470395067
vt 0.680884999 0.460937500
vt 0.680884999 0.585181874
vt 0.680884999 0.460937500
vt 0.728431179 0.470395067
vt 0.680884999 0.585181874
vt 0.728431179 0.470395067
vt 0.768739053 0.497327820
vt 0.680884999 0.585181874
vt 0.768739053 0.497327820
vt 0.795671806 0.537635694
vt 0.680884999 0.585181874
vt 0.795671806 0.537635694
vt 0.805129373 0.585181874
vt 0.772605136 0.167290298
vt 0.823903957 0.162898230
vt 0.825946507 0.174992853
vt 0.772605136 0.167290298
vt 0.825946507 0.174992853
vt 0.772648648 0.179556145
vt 0.823903957 0.162898230
vt 0.870574885 0.150390625
vt 0.874435299 0.161997990
vt 0.823903957 0.162898230
vt 0.874435299 0.161997990
vt 0.825946507 0.174992853
vt 0.900152906 0.103413202
vt 0.912936155 0.054379353
vt 0.925023642 0.056477878
vt 0.900152906 0.103413202
vt 0.925023642 0.056477878
vt 0.911742397 0.107421657
vt 0.912936155 0.054379353
vt 0.917425015 0.003906250
vt 0.929687500 0.004037887
vt 0.912936155 0.054379353
vt 0.929687500 0.004037887
vt 0.925023642 0.056477878
vt 0.956487515 0.107421658
vt 0.951998657 0.056948554
vt 0.964086144 0.054850030
vt 0.956487515 0.107421658
vt 0.964086144 0.054850030
vt 0.968750000 0.107290021
vt 0.951998657 0.056948554
vt 0.939215415 0.007914704
vt 0.950804906 0.003906250
vt 0.951998657 0.056948554
vt 0.950804906 0.003906250
vt 0.964086144 0.054850030
vt 0.982319452 0.179925219
vt 0.933285603 0.167141970
vt 0.935384128 0.155054483
vt 0.982319452 0.179925219
vt 0.935384128 0.155054483
vt 0.986327907 0.168335728
vt 0.933285603 0.167141970
vt 0.882812500 0.162653110
vt 0.882944137 0.150390625
vt 0.933285603 0.167141970
vt 0.882944137 0.150390625
vt 0.935384128 0.155054483
vt 0.986327908 0.266168735
vt 0.935854804 0.270657593
vt 0.933756280 0.258570106
vt 0.986327908 0.266168735
vt 0.933756280 0.258570106
vt 0.986196271 0.253906250
vt 0.935854804 0.270657593
vt 0.886820954 0.283440835
vt 0.882812500 0.271851344
vt 0.935854804 0.270657593
vt 0.882812500 0.271851344
vt 0.933756280 0.258570106
vt 0.726664705 0.357421875
vt 0.775698554 0.370205123
vt 0.773600029 0.382292611
vt 0.726664705 0.357421875
vt 0.773600029 0.382292611
vt 0.722656250 0.369011366
vt 0.775698554 0.370205123
vt 0.826171657 0.374693984
vt 0.826040020 0.386956469
vt 0.775698554 0.370205123
vt 0.826040020 0.386956469
vt 0.773600029 0.382292611
vt 0.833984375 0.374693975
vt 0.884457478 0.370205117
vt 0.886556002 0.382292605
vt 0.833984375 0.374693975
vt 0.886556002 0.382292605
vt 0.834116011 0.386956460
vt 0.884457478 0.370205117
vt 0.933491329 0.357421875
vt 0.937499783 0.369011366
vt 0.884457478 0.370205117
vt 0.937499783 0.369011366
vt 0.886556002 0.382292605
vt 0.972656283 0.409911368
vt 0.972656250 0.358424440
vt 0.984883516 0.357421875
vt 0.972656283 0.409911368
vt 0.984883516 0.357421875
vt 0.984883481 0.410914330
vt 0.724487749 0.162898230
vt 0.772605136 0.167290298
vt 0.772648648 0.179556145
vt 0.724487749 0.162898230
vt 0.772648648 0.179556145
vt 0.722656250 0.174992853
vt 0.772086582 0.253906250
vt 0.825579436 0.253906274
vt 0.825161245 0.272873522
vt 0.772086582 0.253906250
vt 0.825161245 0.272873522
vt 0.772504492 0.272873512
vt 0.825579436 0.253906274
vt 0.875000000 0.256293264
vt 0.873810067 0.275223198
vt 0.825579436 0.253906274
vt 0.873810067 0.275223198
vt 0.825161245 0.272873522
vt 0.723834501 0.108835896
vt 0.722656250 0.056371289
vt 0.741628436 0.056370993
vt 0.723834501 0.108835896
vt 0.741628436 0.056370993
vt 0.742788250 0.108016256
vt 0.722656250 0.056371289
vt 0.723834487 0.003906250
vt 0.742788269 0.004726013
vt 0.722656250 0.056371289
vt 0.742788269 0.004726013
vt 0.741628436 0.056370993
vt 0.753131363 0.108835896
vt 0.751953125 0.056370856
vt 0.770925311 0.056371153
vt 0.753131363 0.108835896
vt 0.770925311 0.056371153
vt 0.772085145 0.108016133
vt 0.751953125 0.056370856
vt 0.753131377 0.003906250
vt 0.772085126 0.004725890
vt 0.751953125 0.056370856
vt 0.772085126 0.004725890
vt 0.770925311 0.056371153
vt 0.782428251 0.108835896
vt 0.781250000 0.056371289
vt 0.800222186 0.056370993
vt 0.782428251 0.108835896
vt 0.800222186 0.056370993
vt 0.801382000 0.108016256
vt 0.781250000 0.056371289
vt 0.782428237 0.003906250
vt 0.801382019 0.004726013
vt 0.781250000 0.056371289
vt 0.801382019 0.004726013
vt 0.800222186 0.056370993
vt 0.811725113 0.108835896
vt 0.810546875 0.056370856
vt 0.829519061 0.056371153
vt 0.811725113 0.108835896
vt 0.829519061 0.056371153
vt 0.830678895 0.108016133
vt 0.810546875 0.056370856
vt 0.811725127 0.003906250
vt 0.830678876 0.004725890
vt 0.810546875 0.056370856
vt 0.830678876 0.004725890
vt 0.829519061 0.056371153
vt 0.841022001 0.108835896
vt 0.839843750 0.056371289
vt 0.858815936 0.056370993
vt 0.841022001 0.108835896
vt 0.858815936 0.056370993
vt 0.859975750 0.108016256
vt 0.839843750 0.056371289
vt 0.841021987 0.003906250
vt 0.859975769 0.004726013
vt 0.839843750 0.056371289
vt 0.859975769 0.004726013
vt 0.858815936 0.056370993
vt 0.870318863 0.108835896
vt 0.869140625 0.056370856
vt 0.888112811 0.056371153
vt 0.870318863 0.108835896
vt 0.888112811 0.056371153
vt 0.889272645 0.108016133
vt 0.869140625 0.056370856
vt 0.870318877 0.003906250
vt 0.889272626 0.004725890
vt 0.869140625 0.056370856
vt 0.889272626 0.004725890
vt 0.888112811 0.056371153
vt 0.945312518 0.410914330
vt 0.945312500 0.357421875
vt 0.964280089 0.357839479
vt 0.945312518 0.410914330
vt 0.964280089 0.357839479
vt 0.964280072 0.410496475
vt 0.722665677 0.256293265
vt 0.772086582 0.253906250
vt 0.772504492 0.272873512
vt 0.722665677 0.256293265
vt 0.772504492 0.272873512
vt 0.723855998 0.275223206
vt 0.273816442 0.595892596
vt 0.263543574 0.647537555
vt 0.159443926 0.604418331
vt 0.273816442 0.595892596
vt 0.159443926 0.604418331
vt 0.161139648 0.595892596
vt 0.263543574 0.647537555
vt 0.234289165 0.691320415
vt 0.154614676 0.611645926
vt 0.263543574 0.647537555
vt 0.154614676 0.611645926
vt 0.159443926 0.604418331
vt 0.234289165 0.691320415
vt 0.190506305 0.720574824
vt 0.147387081 0.616475176
vt 0.234289165 0.691320415
vt 0.147387081 0.616475176
vt 0.154614676 0.611645926
vt 0.190506305 0.720574824
vt 0.138861346 0.730847692
vt 0.138861346 0.618170898
vt 0.190506305 0.720574824
vt 0.138861346 0.618170898
vt 0.147387081 0.616475176
vt 0.138861346 0.730847692
vt 0.087216387 0.720574824
vt 0.130335611 0.616475176
vt 0.138861346 0.730847692
vt 0.130335611 0.616475176
vt 0.138861346 0.618170898
vt 0.087216387 0.720574824
vt 0.043433527 0.691320415
vt 0.123108016 0.611645926
vt 0.087216387 0.720574824
vt 0.123108016 0.611645926
vt 0.130335611 0.616475176
vt 0.043433527 0.691320415
vt 0.014179118 0.647537555
vt 0.118278766 0.604418331
vt 0.043433527 0.691320415
vt 0.118278766 0.604418331
vt 0.123108016 0.611645926
vt 0.014179118 0.647537555
vt 0.003906250 0.595892596
vt 0.116583044 0.595892596
vt 0.014179118 0.647537555
vt 0.116583044 0.595892596
vt 0.118278766 0.604418331
vt 0.003906250 0.595892596
vt 0.014179118 0.544247637
vt 0.118278766 0.587366861
vt 0.003906250 0.595892596
vt 0.118278766 0.587366861
vt 0.116583044 0.595892596
vt 0.014179118 0.544247637
vt 0.043433527 0.500464777
vt 0.123108016 0.580139266
vt 0.014179118 0.544247637
vt 0.123108016 0.580139266
vt 0.118278766 0.587366861
vt 0.043433527 0.500464777
vt 0.087216387 0.471210368
vt 0.130335611 0.575310016
vt 0.043433527 0.500464777
vt 0.130335611 0.575310016
vt 0.123108016 0.580139266
vt 0.087216387 0.471210368
vt 0.138861346 0.460937500
vt 0.138861346 0.573614294
vt 0.087216387 0.471210368
vt 0.138861346 0.573614294
vt 0.130335611 0.575310016
vt 0.138861346 0.460937500
vt 0.190506305 0.471210368
vt 0.147387081 0.575310016
vt 0.138861346 0.460937500
vt 0.147387081 0.575310016
vt 0.138861346 0.573614294
vt 0.190506305 0.471210368
vt 0.234289165 0.500464777
vt 0.154614676 0.580139266
vt 0.190506305 0.471210368
vt 0.154614676 0.580139266
vt 0.147387081 0.575310016
vt 0.234289165 0.500464777
vt 0.263543574 0.544247637
vt 0.159443926 0.587366861
vt 0.234289165 0.500464777
vt 0.159443926 0.587366861
vt 0.154614676 0.580139266
vt 0.263543574 0.544247637
vt 0.273816442 0.595892596
vt 0.161139648 0.595892596
vt 0.263543574 0.544247637
vt 0.161139648 0.595892596
vt 0.159443926 0.587366861
vt 0.537070798 0.542396396
vt 0.547115313 0.592893594
vt 0.415159219 0.592893594
vt 0.508466315 0.499586497
vt 0.537070798 0.542396396
vt 0.415159219 0.592893594
vt 0.465656417 0.470982015
vt 0.508466315 0.499586497
vt 0.415159219 0.592893594
vt 0.415159219 0.460937500
vt 0.465656417 0.470982015
vt 0.415159219 0.592893594
vt 0.364662021 0.470982015
vt 0.415159219 0.460937500
vt 0.415159219 0.592893594
vt 0.321852122 0.499586497
vt 0.364662021 0.470982015
vt 0.415159219 0.592893594
vt 0.293247640 0.542396396
vt 0.321852122 0.499586497
vt 0.415159219 0.592893594
vt 0.283203125 0.592893594
vt 0.293247640 0.542396396
vt 0.415159219 0.592893594
vt 0.293247640 0.643390792
vt 0.283203125 0.592893594
vt 0.415159219 0.592893594
vt 0.321852122 0.686200690
vt 0.293247640 0.643390792
vt 0.415159219 0.592893594
vt 0.364662021 0.714805173
vt 0.321852122 0.686200690
vt 0.415159219 0.592893594
vt 0.415159219 0.724849688
vt 0.364662021 0.714805173
vt 0.415159219 0.592893594
vt 0.465656417 0.714805173
vt 0.415159219 0.724849688
vt 0.415159219 0.592893594
vt 0.508466315 0.686200690
vt 0.465656417 0.714805173
vt 0.415159219 0.592893594
vt 0.537070798 0.643390792
vt 0.508466315 0.686200690
vt 0.415159219 0.592893594
vt 0.547115313 0.592893594
vt 0.537070798 0.643390792
vt 0.415159219 0.592893594
vt 0.138861346 0.595892596
vt 0.161139648 0.595892596
vt 0.159443926 0.604418331
vt 0.138861346 0.595892596
vt 0.159443926 0.604418331
vt 0.154614676 0.611645926
vt 0.138861346 0.595892596
vt 0.154614676 0.611645926
vt 0.147387081 0.616475176
vt 0.138861346 0.595892596
vt 0.147387081 0.616475176
vt 0.138861346 0.618170898
vt 0.138861346 0.595892596
vt 0.138861346 0.618170898
vt 0.130335611 0.616475176
vt 0.138861346 0.595892596
vt 0.130335611 0.616475176
vt 0.123108016 0.611645926
vt 0.138861346 0.595892596
vt 0.123108016 0.611645926
vt 0.118278766 0.604418331
vt 0.138861346 0.595892596
vt 0.118278766 0.604418331
vt 0.116583044 0.595892596
vt 0.138861346 0.595892596
vt 0.116583044 0.595892596
vt 0.118278766 0.587366861
vt 0.138861346 0.595892596
vt 0.118278766 0.587366861
vt 0.123108016 0.580139266
vt 0.138861346 0.595892596
vt 0.123108016 0.580139266
vt 0.130335611 0.575310016
vt 0.138861346 0.595892596
vt 0.130335611 0.575310016
vt 0.138861346 0.573614294
vt 0.138861346 0.595892596
vt 0.138861346 0.573614294
vt 0.147387081 0.575310016
vt 0.138861346 0.595892596
vt 0.147387081 0.575310016
vt 0.154614676 0.580139266
vt 0.138861346 0.595892596
vt 0.154614676 0.580139266
vt 0.159443926 0.587366861
vt 0.138861346 0.595892596
vt 0.159443926 0.587366861
vt 0.161139648 0.595892596
vt 0.892716754 0.746232379
vt 0.886718750 0.746232379
vt 0.886718750 0.740234375
vt 0.892716754 0.746232379
vt 0.886718750 0.740234375
vt 0.892716754 0.740234375
vt 0.908341754 0.746232379
vt 0.902343750 0.746232379
vt 0.902343750 0.740234375
vt 0.908341754 0.746232379
vt 0.902343750 0.740234375
vt 0.908341754 0.740234375
vt 0.767716754 0.756514672
vt 0.761718750 0.756514672
vt 0.761718750 0.740234375
vt 0.767716754 0.756514672
vt 0.761718750 0.740234375
vt 0.767716754 0.740234375
vt 0.783341754 0.756514672
vt 0.777343750 0.756514672
vt 0.777343750 0.740234375
vt 0.783341754 0.756514672
vt 0.777343750 0.740234375
vt 0.783341754 0.740234375
vt 0.792968750 0.740234375
vt 0.798966754 0.740234375
vt 0.798966754 0.756514672
vt 0.792968750 0.740234375
vt 0.798966754 0.756514672
vt 0.792968750 0.756514672
vt 0.808593750 0.740234375
vt 0.814591754 0.740234375
vt 0.814591754 0.756514672
vt 0.808593750 0.740234375
vt 0.814591754 0.756514672
vt 0.808593750 0.756514672
vt 0.923966754 0.746232379
vt 0.917968750 0.746232379
vt 0.917968750 0.740234375
vt 0.923966754 0.746232379
vt 0.917968750 0.740234375
vt 0.923966754 0.740234375
vt 0.939591754 0.746232379
vt 0.933593750 0.746232379
vt 0.933593750 0.740234375
vt 0.939591754 0.746232379
vt 0.933593750 0.740234375
vt 0.939591754 0.740234375
vt 0.830216754 0.756514672
vt 0.824218750 0.756514672
vt 0.824218750 0.740234375
vt 0.830216754 0.756514672
vt 0.824218750 0.740234375
vt 0.830216754 0.740234375
vt 0.845841754 0.756514672
vt 0.839843750 0.756514672
vt 0.839843750 0.740234375
vt 0.845841754 0.756514672
vt 0.839843750 0.740234375
vt 0.845841754 0.740234375
vt 0.855468750 0.740234375
vt 0.861466754 0.740234375
vt 0.861466754 0.756514672
vt 0.855468750 0.740234375
vt 0.861466754 0.756514672
vt 0.855468750 0.756514672
vt 0.871093750 0.740234375
vt 0.877091754 0.740234375
vt 0.877091754 0.756514672
vt 0.871093750 0.740234375
vt 0.877091754 0.756514672
vt 0.871093750 0.756514672
vt 0.956073612 0.747089237
vt 0.949218750 0.747089237
vt 0.949218750 0.740234375
vt 0.956073612 0.747089237
vt 0.949218750 0.740234375
vt 0.956073612 0.740234375
vt 0.971698612 0.747089237
vt 0.964843750 0.747089237
vt 0.964843750 0.740234375
vt 0.971698612 0.747089237
vt 0.964843750 0.740234375
vt 0.971698612 0.740234375
vt 0.700176388 0.740234375
vt 0.707031250 0.740234375
vt 0.707031250 0.777079258
vt 0.700176388 0.740234375
vt 0.707031250 0.777079258
vt 0.700176388 0.777079258
vt 0.715801388 0.740234375
vt 0.722656250 0.740234375
vt 0.722656250 0.777079258
vt 0.715801388 0.740234375
vt 0.722656250 0.777079258
vt 0.715801388 0.777079258
vt 0.731426388 0.740234375
vt 0.738281250 0.740234375
vt 0.738281250 0.777079258
vt 0.731426388 0.740234375
vt 0.738281250 0.777079258
vt 0.731426388 0.777079258
vt 0.747051388 0.740234375
vt 0.753906250 0.740234375
vt 0.753906250 0.777079258
vt 0.747051388 0.740234375
vt 0.753906250 0.777079258
vt 0.747051388 0.777079258
vt 0.980468750 0.746660644
vt 0.980468750 0.740234375
vt 0.986895183 0.740234375
vt 0.980468750 0.746660644
vt 0.986895183 0.740234375
vt 0.986895183 0.746660644
vt 0.820879558 0.460937500
vt 0.820879558 0.467363769
vt 0.814453125 0.467363769
vt 0.820879558 0.460937500
vt 0.814453125 0.467363769
vt 0.814453125 0.460937500
vt 0.988986937 0.003906250
vt 0.995158884 0.005696226
vt 0.982734446 0.048539113
vt 0.988986937 0.003906250
vt 0.982734446 0.048539113
vt 0.976562500 0.046749138
vt 0.455645183 0.784842442
vt 0.449218750 0.784842442
vt 0.449218750 0.740234375
vt 0.455645183 0.784842442
vt 0.449218750 0.740234375
vt 0.455645183 0.740234375
vt 0.276408884 0.783077263
vt 0.270236937 0.784867238
vt 0.257812500 0.742024351
vt 0.276408884 0.783077263
vt 0.257812500 0.742024351
vt 0.263984446 0.740234375
vt 0.464843750 0.740234375
vt 0.471270183 0.740234375
vt 0.471270183 0.784842442
vt 0.464843750 0.740234375
vt 0.471270183 0.784842442
vt 0.464843750 0.784842442
vt 0.830078125 0.467363769
vt 0.830078125 0.460937500
vt 0.836504558 0.460937500
vt 0.830078125 0.467363769
vt 0.836504558 0.460937500
vt 0.836504558 0.467363769
vt 0.852129558 0.460937500
vt 0.852129558 0.467363769
vt 0.845703125 0.467363769
vt 0.852129558 0.460937500
vt 0.845703125 0.467363769
vt 0.845703125 0.460937500
vt 0.297580687 0.740234375
vt 0.303752634 0.742024351
vt 0.291328196 0.784867238
vt 0.297580687 0.740234375
vt 0.291328196 0.784867238
vt 0.285156250 0.783077263
vt 0.486895183 0.784842442
vt 0.480468750 0.784842442
vt 0.480468750 0.740234375
vt 0.486895183 0.784842442
vt 0.480468750 0.740234375
vt 0.486895183 0.740234375
vt 0.331096384 0.783077263
vt 0.324924437 0.784867238
vt 0.312500000 0.742024351
vt 0.331096384 0.783077263
vt 0.312500000 0.742024351
vt 0.318671946 0.740234375
vt 0.496093750 0.740234375
vt 0.502520183 0.740234375
vt 0.502520183 0.784842442
vt 0.496093750 0.740234375
vt 0.502520183 0.784842442
vt 0.496093750 0.784842442
vt 0.861328125 0.460937500
vt 0.867754558 0.460937500
vt 0.867754558 0.467363933
vt 0.861328125 0.460937500
vt 0.867754558 0.467363933
vt 0.861328125 0.467363933
vt 0.876953125 0.460937500
vt 0.883379558 0.460937500
vt 0.883379558 0.467363933
vt 0.876953125 0.460937500
vt 0.883379558 0.467363933
vt 0.876953125 0.467363933
vt 0.511718750 0.740234375
vt 0.518145183 0.740234375
vt 0.518145183 0.784790978
vt 0.511718750 0.740234375
vt 0.518145183 0.784790978
vt 0.511718750 0.784790978
vt 0.528729817 0.740234375
vt 0.535156250 0.740234375
vt 0.535156250 0.784790978
vt 0.528729817 0.740234375
vt 0.535156250 0.784790978
vt 0.528729817 0.784790978
vt 0.549395183 0.784790978
vt 0.542968750 0.784790978
vt 0.542968750 0.740234375
vt 0.549395183 0.784790978
vt 0.542968750 0.740234375
vt 0.549395183 0.740234375
vt 0.559979817 0.740234375
vt 0.566406250 0.740234375
vt 0.566406250 0.784790978
vt 0.559979817 0.740234375
vt 0.566406250 0.784790978
vt 0.559979817 0.784790978
vt 0.892578125 0.467363769
vt 0.892578125 0.460937500
vt 0.899004558 0.460937500
vt 0.892578125 0.467363769
vt 0.899004558 0.460937500
vt 0.899004558 0.467363769
vt 0.914629558 0.460937500
vt 0.914629558 0.467363769
vt 0.908203125 0.467363769
vt 0.914629558 0.460937500
vt 0.908203125 0.467363769
vt 0.908203125 0.460937500
vt 0.339843750 0.742024351
vt 0.346015696 0.740234375
vt 0.358440134 0.783077263
vt 0.339843750 0.742024351
vt 0.358440134 0.783077263
vt 0.352268187 0.784867238
vt 0.580645183 0.784842442
vt 0.574218750 0.784842442
vt 0.574218750 0.740234375
vt 0.580645183 0.784842442
vt 0.574218750 0.740234375
vt 0.580645183 0.740234375
vt 0.373359446 0.784867238
vt 0.367187500 0.783077263
vt 0.379611937 0.740234375
vt 0.373359446 0.784867238
vt 0.379611937 0.740234375
vt 0.385783884 0.742024351
vt 0.589843750 0.740234375
vt 0.596270183 0.740234375
vt 0.596270183 0.784842442
vt 0.589843750 0.740234375
vt 0.596270183 0.784842442
vt 0.589843750 0.784842442
vt 0.923828125 0.467363769
vt 0.923828125 0.460937500
vt 0.930254558 0.460937500
vt 0.923828125 0.467363769
vt 0.930254558 0.460937500
vt 0.930254558 0.467363769
vt 0.945879558 0.460937500
vt 0.945879558 0.467363769
vt 0.939453125 0.467363769
vt 0.945879558 0.460937500
vt 0.939453125 0.467363769
vt 0.939453125 0.460937500
vt 0.394531250 0.742024351
vt 0.400703196 0.740234375
vt 0.413127634 0.783077263
vt 0.394531250 0.742024351
vt 0.413127634 0.783077263
vt 0.406955687 0.784867238
vt 0.611895183 0.784842442
vt 0.605468750 0.784842442
vt 0.605468750 0.740234375
vt 0.611895183 0.784842442
vt 0.605468750 0.740234375
vt 0.611895183 0.740234375
vt 0.428046946 0.784867238
vt 0.421875000 0.783077263
vt 0.434299437 0.740234375
vt 0.428046946 0.784867238
vt 0.434299437 0.740234375
vt 0.440471384 0.742024351
vt 0.621093750 0.740234375
vt 0.627520183 0.740234375
vt 0.627520183 0.784842442
vt 0.621093750 0.740234375
vt 0.627520183 0.784842442
vt 0.621093750 0.784842442
vt 0.955078125 0.460937500
vt 0.961504558 0.460937500
vt 0.961504558 0.467363933
vt 0.955078125 0.460937500
vt 0.961504558 0.467363933
vt 0.955078125 0.467363933
vt 0.970703125 0.460937500
vt 0.977129558 0.460937500
vt 0.977129558 0.467363933
vt 0.970703125 0.460937500
vt 0.977129558 0.467363933
vt 0.970703125 0.467363933
vt 0.636718750 0.740234375
vt 0.643145183 0.740234375
vt 0.643145183 0.784790978
vt 0.636718750 0.740234375
vt 0.643145183 0.784790978
vt 0.636718750 0.784790978
vt 0.653729817 0.740234375
vt 0.660156250 0.740234375
vt 0.660156250 0.784790978
vt 0.653729817 0.740234375
vt 0.660156250 0.784790978
vt 0.653729817 0.784790978
vt 0.674395183 0.784790978
vt 0.667968750 0.784790978
vt 0.667968750 0.740234375
vt 0.674395183 0.784790978
vt 0.667968750 0.740234375
vt 0.674395183 0.740234375
vt 0.684979817 0.740234375
vt 0.691406250 0.740234375
vt 0.691406250 0.784790978
vt 0.684979817 0.740234375
vt 0.691406250 0.784790978
vt 0.684979817 0.784790978
f 1/1/1 2/2/2 3/3/3
v 0.285000 0.000000 0.000000
v 0.267925 0.110978 0.820000
v 0.290000 0.000000 0.820000
vn 0.980768 0.195087 -0.005980
vn 0.980768 0.195087 -0.005980
vn 0.980768 0.195087 -0.005980
f 4/4/4 5/5/5 6/6/6
v 0.263306 0.109065 0.000000
v 0.201525 0.201525 0.000000
v 0.205061 0.205061 0.820000
vn 0.831455 0.555560 -0.005980
vn 0.831455 0.555560 -0.005980
vn 0.831455 0.555560 -0.005980
f 7/7/7 8/8/8 9/9/9
v 0.263306 0.109065 0.000000
v 0.205061 0.205061 0.820000
v 0.267925 0.110978 0.820000
vn 0.831455 0.555560 -0.005980
vn 0.831455 0.555560 -0.005980
vn 0.831455 0.555560 -0.005980
f 10/10/10 11/11/11 12/12/12
v 0.201525 0.201525 0.000000
v 0.109065 0.263306 0.000000
v 0.110978 0.267925 0.820000
vn 0.555560 0.831455 -0.005980
vn 0.555560 0.831455 -0.005980
vn 0.555560 0.831455 -0.005980
f 13/13/13 14/14/14 15/15/15
v 0.201525 0.201525 0.000000
v 0.110978 0.267925 0.820000
v 0.205061 0.205061 0.820000
vn 0.555560 0.831455 -0.005980
vn 0.555560 0.831455 -0.005980
vn 0.555560 0.831455 -0.005980
f 16/16/16 17/17/17 18/18/18
v 0.109065 0.263306 0.000000
v 0.000000 0.285000 0.000000
v 0.000000 0.290000 0.820000
vn 0.195087 0.980768 -0.005980
vn 0.195087 0.980768 -0.005980
vn 0.195087 0.980768 -0.005980
f 19/19/19 20/20/20 21/21/21
v 0.109065 0.263306 0.000000
v 0.000000 0.290000 0.820000
v 0.110978 0.267925 0.820000
vn 0.195087 0.980768 -0.005980
vn 0.195087 0.980768 -0.005980
vn 0.195087 0.980768 -0.005980
f 22/22/22 23/23/23 24/24/24
v 0.000000 0.285000 0.000000
v -0.109065 0.263306 0.000000
v -0.110978 0.267925 0.820000
vn -0.195087 0.980768 -0.005980
vn -0.195087 0.980768 -0.005980
vn -0.195087 0.980768 -0.005980
f 25/25/25 26/26/26 27/27/27
v 0.000000 0.285000 0.000000
v -0.110978 0.267925 0.820000
v 0.000000 0.290000 0.820000
vn -0.195087 0.980768 -0.005980
vn -0.195087 0.980768 -0.005980
vn -0.195087 0.980768 -0.005980
f 28/28/28 29/29/29 30/30/30
v -0.109065 0.263306 0.000000
v -0.201525 0.201525 0.000000
v -0.205061 0.205061 0.820000
vn -0.555560 0.831455 -0.005980
vn -0.555560 0.831455 -0.005980
vn -0.555560 0.831455 -0.005980
f 31/31/31 32/32/32 33/33/33
v -0.109065 0.263306 0.000000
v -0.205061 0.205061 0.820000
v -0.110978 0.267925 0.820000
vn -0.555560 0.831455 -0.005980
vn -0.555560 0.831455 -0.005980
vn -0.555560 0.831455 -0.005980
f 34/34/34 35/35/35 36/36/36
v -0.201525 0.201525 0.000000
v -0.263306 0.109065 0.000000
v -0.267925 0.110978 0.820000
vn -0.831455 0.555560 -0.005980
vn -0.831455 0.555560 -0.005980
vn -0.831455 0.555560 -0.005980
f 37/37/37 38/38/38 39/39/39
v -0.201525 0.201525 0.000000
v -0.267925 0.110978 0.820000
v -0.205061 0.205061 0.820000
vn -0.831455 0.555560 -0.005980
vn -0.831455 0.555560 -0.005980
vn -0.831455 0.555560 -0.005980
f 40/40/40 41/41/41 42/42/42
v -0.263306 0.109065 0.000000
v -0.285000 0.000000 0.000000
v -0.290000 0.000000 0.820000
vn -0.980768 0.195087 -0.005980
vn -0.980768 0.195087 -0.005980
vn -0.980768 0.195087 -0.005980
f 43/43/43 44/44/44 45/45/45
v -0.263306 0.109065 0.000000
v -0.290000 0.000000 0.820000
v -0.267925 0.110978 0.820000
vn -0.980768 0.195087 -0.005980
vn -0.980768 0.195087 -0.005980
vn -0.980768 0.195087 -0.005980
f 46/46/46 47/47/47 48/48/48
v -0.285000 0.000000 0.000000
v -0.263306 -0.109065 0.000000
v -0.267925 -0.110978 0.820000
vn -0.980768 -0.195087 -0.005980
vn -0.980768 -0.195087 -0.005980
vn -0.980768 -0.195087 -0.005980
f 49/49/49 50/50/50 51/51/51
v -0.285000 0.000000 0.000000
v -0.267925 -0.110978 0.820000
v -0.290000 0.000000 0.820000
vn -0.980768 -0.195087 -0.005980
vn -0.980768 -0.195087 -0.005980
vn -0.980768 -0.195087 -0.005980
f 52/52/52 53/53/53 54/54/54
v -0.263306 -0.109065 0.000000
v -0.201525 -0.201525 0.000000
v -0.205061 -0.205061 0.820000
vn -0.831455 -0.555560 -0.005980
vn -0.831455 -0.555560 -0.005980
vn -0.831455 -0.555560 -0.005980
f 55/55/55 56/56/56 57/57/57
v -0.263306 -0.109065 0.000000
v -0.205061 -0.205061 0.820000
v -0.267925 -0.110978 0.820000
vn -0.831455 -0.555560 -0.005980
vn -0.831455 -0.555560 -0.005980
vn -0.831455 -0.555560 -0.005980
f 58/58/58 59/59/59 60/60/60
v -0.201525 -0.201525 0.000000
v -0.109065 -0.263306 0.000000
v -0.110978 -0.267925 0.820000
vn -0.555560 -0.831455 -0.005980
vn -0.555560 -0.831455 -0.005980
vn -0.555560 -0.831455 -0.005980
f 61/61/61 62/62/62 63/63/63
v -0.201525 -0.201525 0.000000
v -0.110978 -0.267925 0.820000
v -0.205061 -0.205061 0.820000
vn -0.555560 -0.831455 -0.005980
vn -0.555560 -0.831455 -0.005980
vn -0.555560 -0.831455 -0.005980
f 64/64/64 65/65/65 66/66/66
v -0.109065 -0.263306 0.000000
v -0.000000 -0.285000 0.000000
v -0.000000 -0.290000 0.820000
vn -0.195087 -0.980768 -0.005980
vn -0.195087 -0.980768 -0.005980
vn -0.195087 -0.980768 -0.005980
f 67/67/67 68/68/68 69/69/69
v -0.109065 -0.263306 0.000000
v -0.000000 -0.290000 0.820000
v -0.110978 -0.267925 0.820000
vn -0.195087 -0.980768 -0.005980
vn -0.195087 -0.980768 -0.005980
vn -0.195087 -0.980768 -0.005980
f 70/70/70 71/71/71 72/72/72
v -0.000000 -0.285000 0.000000
v 0.109065 -0.263306 0.000000
v 0.110978 -0.267925 0.820000
vn 0.195087 -0.980768 -0.005980
vn 0.195087 -0.980768 -0.005980
vn 0.195087 -0.980768 -0.005980
f 73/73/73 74/74/74 75/75/75
v -0.000000 -0.285000 0.000000
v 0.110978 -0.267925 0.820000
v -0.000000 -0.290000 0.820000
vn 0.195087 -0.980768 -0.005980
vn 0.195087 -0.980768 -0.005980
vn 0.195087 -0.980768 -0.005980
f 76/76/76 77/77/77 78/78/78
v 0.109065 -0.263306 0.000000
v 0.201525 -0.201525 0.000000
v 0.205061 -0.205061 0.820000
vn 0.555560 -0.831455 -0.005980
vn 0.555560 -0.831455 -0.005980
vn 0.555560 -0.831455 -0.005980
f 79/79/79 80/80/80 81/81/81
v 0.109065 -0.263306 0.000000
v 0.205061 -0.205061 0.820000
v 0.110978 -0.267925 0.820000
vn 0.555560 -0.831455 -0.005980
vn 0.555560 -0.831455 -0.005980
vn 0.555560 -0.831455 -0.005980
f 82/82/82 83/83/83 84/84/84
v 0.201525 -0.201525 0.000000
v 0.263306 -0.109065 0.000000
v 0.267925 -0.110978 0.820000
vn 0.831455 -0.555560 -0.005980
vn 0.831455 -0.555560 -0.005980
vn 0.831455 -0.555560 -0.005980
f 85/85/85 86/86/86 87/87/87
v 0.201525 -0.201525 0.000000
v 0.267925 -0.110978 0.820000
v 0.205061 -0.205061 0.820000
vn 0.831455 -0.555560 -0.005980
vn 0.831455 -0.555560 -0.005980
vn 0.831455 -0.555560 -0.005980
f 88/88/88 89/89/89 90/90/90
v 0.263306 -0.109065 0.000000
v 0.285000 0.000000 0.000000
v 0.290000 0.000000 0.820000
vn 0.980768 -0.195087 -0.005980
vn 0.980768 -0.195087 -0.005980
vn 0.980768 -0.195087 -0.005980
f 91/91/91 92/92/92 93/93/93
v 0.263306 -0.109065 0.000000
v 0.290000 0.000000 0.820000
v 0.267925 -0.110978 0.820000
vn 0.980768 -0.195087 -0.005980
vn 0.980768 -0.195087 -0.005980
vn 0.980768 -0.195087 -0.005980
f 94/94/94 95/95/95 96/96/96
v 0.263306 0.109065 0.000000
v 0.285000 0.000000 0.000000
v 0.000000 0.000000 0.000000
vn 0.000000 -0.000000 -1.000000
vn 0.000000 -0.000000 -1.000000
vn 0.000000 -0.000000 -1.000000
f 97/97/97 98/98/98 99/99/99
v 0.201525 0.201525 0.000000
v 0.263306 0.109065 0.000000
v 0.000000 0.000000 0.000000
vn 0.000000 -0.000000 -1.000000
vn 0.000000 -0.000000 -1.000000
vn 0.000000 -0.000000 -1.000000
f 100/100/100 101/101/101 102/102/102
v 0.109065 0.263306 0.000000
v 0.201525 0.201525 0.000000
v 0.000000 0.000000 0.000000
vn 0.000000 -0.000000 -1.000000
vn 0.000000 -0.000000 -1.000000
vn 0.000000 -0.000000 -1.000000
f 103/103/103 104/104/104 105/105/105
v 0.000000 0.285000 0.000000
v 0.109065 0.263306 0.000000
v 0.000000 0.000000 0.000000
vn 0.000000 -0.000000 -1.000000
vn 0.000000 -0.000000 -1.000000
vn 0.000000 -0.000000 -1.000000
f 106/106/106 107/107/107 108/108/108
v -0.109065 0.263306 0.000000
v 0.000000 0.285000 0.000000
v 0.000000 0.000000 0.000000
vn 0.000000 0.000000 -1.000000
vn 0.000000 0.000000 -1.000000
vn 0.000000 0.000000 -1.000000
f 109/109/109 110/110/110 111/111/111
v -0.201525 0.201525 0.000000
v -0.109065 0.263306 0.000000
v 0.000000 0.000000 0.000000
vn 0.000000 0.000000 -1.000000
vn 0.000000 0.000000 -1.000000
vn 0.000000 0.000000 -1.000000
f 112/112/112 113/113/113 114/114/114
v -0.263306 0.109065 0.000000
v -0.201525 0.201525 0.000000
v 0.000000 0.000000 0.000000
vn 0.000000 0.000000 -1.000000
vn 0.000000 0.000000 -1.000000
vn 0.000000 0.000000 -1.000000
f 115/115/115 116/116/116 117/117/117
v -0.285000 0.000000 0.000000
v -0.263306 0.109065 0.000000
v 0.000000 0.000000 0.000000
vn 0.000000 0.000000 -1.000000
vn 0.000000 0.000000 -1.000000
vn 0.000000 0.000000 -1.000000
f 118/118/118 119/119/119 120/120/120
v -0.263306 -0.109065 0.000000
v -0.285000 0.000000 0.000000
v 0.000000 0.000000 0.000000
vn 0.000000 0.000000 -1.000000
vn 0.000000 0.000000 -1.000000
vn 0.000000 0.000000 -1.000000
f 121/121/121 122/122/122 123/123/123
v -0.201525 -0.201525 0.000000
v -0.263306 -0.109065 0.000000
v 0.000000 0.000000 0.000000
vn 0.000000 0.000000 -1.000000
vn 0.000000 0.000000 -1.000000
vn 0.000000 0.000000 -1.000000
f 124/124/124 125/125/125 126/126/126
v -0.109065 -0.263306 0.000000
v -0.201525 -0.201525 0.000000
v 0.000000 0.000000 0.000000
vn 0.000000 0.000000 -1.000000
vn 0.000000 0.000000 -1.000000
vn 0.000000 0.000000 -1.000000
f 127/127/127 128/128/128 129/129/129
v -0.000000 -0.285000 0.000000
v -0.109065 -0.263306 0.000000
v 0.000000 0.000000 0.000000
vn 0.000000 0.000000 -1.000000
vn 0.000000 0.000000 -1.000000
vn 0.000000 0.000000 -1.000000
f 130/130/130 131/131/131 132/132/132
v 0.109065 -0.263306 0.000000
v -0.000000 -0.285000 0.000000
v 0.000000 0.000000 0.000000
vn -0.000000 0.000000 -1.000000
vn -0.000000 0.000000 -1.000000
vn -0.000000 0.000000 -1.000000
f 133/133/133 134/134/134 135/135/135
v 0.201525 -0.201525 0.000000
v 0.109065 -0.263306 0.000000
v 0.000000 0.000000 0.000000
vn -0.000000 0.000000 -1.000000
vn -0.000000 0.000000 -1.000000
vn -0.000000 0.000000 -1.000000
f 136/136/136 137/137/137 138/138/138
v 0.263306 -0.109065 0.000000
v 0.201525 -0.201525 0.000000
v 0.000000 0.000000 0.000000
vn -0.000000 0.000000 -1.000000
vn -0.000000 0.000000 -1.000000
vn -0.000000 0.000000 -1.000000
f 139/139/139 140/140/140 141/141/141
v 0.285000 0.000000 0.000000
v 0.263306 -0.109065 0.000000
v 0.000000 0.000000 0.000000
vn -0.000000 0.000000 -1.000000
vn -0.000000 0.000000 -1.000000
vn -0.000000 0.000000 -1.000000
f 142/142/142 143/143/143 144/144/144
v 0.000000 0.000000 0.820000
v 0.290000 0.000000 0.820000
v 0.267925 0.110978 0.820000
vn 0.000000 0.000000 1.000000
vn 0.000000 0.000000 1.000000
vn 0.000000 0.000000 1.000000
f 145/145/145 146/146/146 147/147/147
v 0.000000 0.000000 0.820000
v 0.267925 0.110978 0.820000
v 0.205061 0.205061 0.820000
vn 0.000000 0.000000 1.000000
vn 0.000000 0.000000 1.000000
vn 0.000000 0.000000 1.000000
f 148/148/148 149/149/149 150/150/150
v 0.000000 0.000000 0.820000
v 0.205061 0.205061 0.820000
v 0.110978 0.267925 0.820000
vn 0.000000 0.000000 1.000000
vn 0.000000 0.000000 1.000000
vn 0.000000 0.000000 1.000000
f 151/151/151 152/152/152 153/153/153
v 0.000000 0.000000 0.820000
v 0.110978 0.267925 0.820000
v 0.000000 0.290000 0.820000
vn 0.000000 0.000000 1.000000
vn 0.000000 0.000000 1.000000
vn 0.000000 0.000000 1.000000
f 154/154/154 155/155/155 156/156/156
v 0.000000 0.000000 0.820000
v 0.000000 0.290000 0.820000
v -0.110978 0.267925 0.820000
vn 0.000000 -0.000000 1.000000
vn 0.000000 -0.000000 1.000000
vn 0.000000 -0.000000 1.000000
f 157/157/157 158/158/158 159/159/159
v 0.000000 0.000000 0.820000
v -0.110978 0.267925 0.820000
v -0.205061 0.205061 0.820000
vn 0.000000 0.000000 1.000000
vn 0.000000 0.000000 1.000000
vn 0.000000 0.000000 1.000000
f 160/160/160 161/161/161 162/162/162
v 0.000000 0.000000 0.820000
v -0.205061 0.205061 0.820000
v -0.267925 0.110978 0.820000
vn 0.000000 0.000000 1.000000
vn 0.000000 0.000000 1.000000
vn 0.000000 0.000000 1.000000
f 163/163/163 164/164/164 165/165/165
v 0.000000 0.000000 0.820000
v -0.267925 0.110978 0.820000
v -0.290000 0.000000 0.820000
vn 0.000000 0.000000 1.000000
vn 0.000000 0.000000 1.000000
vn 0.000000 0.000000 1.000000
f 166/166/166 167/167/167 168/168/168
v 0.000000 0.000000 0.820000
v -0.290000 0.000000 0.820000
v -0.267925 -0.110978 0.820000
vn 0.000000 0.000000 1.000000
vn 0.000000 0.000000 1.000000
vn 0.000000 0.000000 1.000000
f 169/169/169 170/170/170 171/171/171
v 0.000000 0.000000 0.820000
v -0.267925 -0.110978 0.820000
v -0.205061 -0.205061 0.820000
vn 0.000000 0.000000 1.000000
vn 0.000000 0.000000 1.000000
vn 0.000000 0.000000 1.000000
f 172/172/172 173/173/173 174/174/174
v 0.000000 0.000000 0.820000
v -0.205061 -0.205061 0.820000
v -0.110978 -0.267925 0.820000
vn 0.000000 0.000000 1.000000
vn 0.000000 0.000000 1.000000
vn 0.000000 0.000000 1.000000
f 175/175/175 176/176/176 177/177/177
v 0.000000 0.000000 0.820000
v -0.110978 -0.267925 0.820000
v -0.000000 -0.290000 0.820000
vn 0.000000 0.000000 1.000000
vn 0.000000 0.000000 1.000000
vn 0.000000 0.000000 1.000000
f 178/178/178 179/179/179 180/180/180
v 0.000000 0.000000 0.820000
v -0.000000 -0.290000 0.820000
v 0.110978 -0.267925 0.820000
vn 0.000000 0.000000 1.000000
vn 0.000000 0.000000 1.000000
vn 0.000000 0.000000 1.000000
f 181/181/181 182/182/182 183/183/183
v 0.000000 0.000000 0.820000
v 0.110978 -0.267925 0.820000
v 0.205061 -0.205061 0.820000
vn 0.000000 0.000000 1.000000
vn 0.000000 0.000000 1.000000
vn 0.000000 0.000000 1.000000
f 184/184/184 185/185/185 186/186/186
v 0.000000 0.000000 0.820000
v 0.205061 -0.205061 0.820000
v 0.267925 -0.110978 0.820000
vn 0.000000 0.000000 1.000000
vn 0.000000 0.000000 1.000000
vn 0.000000 0.000000 1.000000
f 187/187/187 188/188/188 189/189/189
v 0.000000 0.000000 0.820000
v 0.267925 -0.110978 0.820000
v 0.290000 0.000000 0.820000
vn -0.000000 0.000000 1.000000
vn -0.000000 0.000000 1.000000
vn -0.000000 0.000000 1.000000
f 190/190/190 191/191/191 192/192/192
v 0.308000 0.000000 0.815000
v 0.284555 0.117866 0.815000
v 0.295641 0.122459 0.841000
vn 0.893504 0.177729 -0.412387
vn 0.893504 0.177729 -0.412387
vn 0.893504 0.177729 -0.412387
f 193/193/193 194/194/194 195/195/195
v 0.308000 0.000000 0.815000
v 0.295641 0.122459 0.841000
v 0.320000 0.000000 0.841000
vn 0.893504 0.177729 -0.412387
vn 0.893504 0.177729 -0.412387
vn 0.893504 0.177729 -0.412387
f 196/196/196 197/197/197 198/198/198
v 0.284555 0.117866 0.815000
v 0.217789 0.217789 0.815000
v 0.226274 0.226274 0.841000
vn 0.757476 0.506129 -0.412387
vn 0.757476 0.506129 -0.412387
vn 0.757476 0.506129 -0.412387
f 199/199/199 200/200/200 201/201/201
v 0.284555 0.117866 0.815000
v 0.226274 0.226274 0.841000
v 0.295641 0.122459 0.841000
vn 0.757476 0.506129 -0.412387
vn 0.757476 0.506129 -0.412387
vn 0.757476 0.506129 -0.412387
f 202/202/202 203/203/203 204/204/204
v 0.217789 0.217789 0.815000
v 0.117866 0.284555 0.815000
v 0.122459 0.295641 0.841000
vn 0.506129 0.757476 -0.412387
vn 0.506129 0.757476 -0.412387
vn 0.506129 0.757476 -0.412387
f 205/205/205 206/206/206 207/207/207
v 0.217789 0.217789 0.815000
v 0.122459 0.295641 0.841000
v 0.226274 0.226274 0.841000
vn 0.506129 0.757476 -0.412387
vn 0.506129 0.757476 -0.412387
vn 0.506129 0.757476 -0.412387
f 208/208/208 209/209/209 210/210/210
v 0.117866 0.284555 0.815000
v 0.000000 0.308000 0.815000
v 0.000000 0.320000 0.841000
vn 0.177729 0.893504 -0.412387
vn 0.177729 0.893504 -0.412387
vn 0.177729 0.893504 -0.412387
f 211/211/211 212/212/212 213/213/213
v 0.117866 0.284555 0.815000
v 0.000000 0.320000 0.841000
v 0.122459 0.295641 0.841000
vn 0.177729 0.893504 -0.412387
vn 0.177729 0.893504 -0.412387
vn 0.177729 0.893504 -0.412387
f 214/214/214 215/215/215 216/216/216
v 0.000000 0.308000 0.815000
v -0.117866 0.284555 0.815000
v -0.122459 0.295641 0.841000
vn -0.177729 0.893504 -0.412387
vn -0.177729 0.893504 -0.412387
vn -0.177729 0.893504 -0.412387
f 217/217/217 218/218/218 219/219/219
v 0.000000 0.308000 0.815000
v -0.122459 0.295641 0.841000
v 0.000000 0.320000 0.841000
vn -0.177729 0.893504 -0.412387
vn -0.177729 0.893504 -0.412387
vn -0.177729 0.893504 -0.412387
f 220/220/220 221/221/221 222/222/222
v -0.117866 0.284555 0.815000
v -0.217789 0.217789 0.815000
v -0.226274 0.226274 0.841000
vn -0.506129 0.757476 -0.412387
vn -0.506129 0.757476 -0.412387
vn -0.506129 0.757476 -0.412387
f 223/223/223 224/224/224 225/225/225
v -0.117866 0.284555 0.815000
v -0.226274 0.226274 0.841000
v -0.122459 0.295641 0.841000
vn -0.506129 0.757476 -0.412387
vn -0.506129 0.757476 -0.412387
vn -0.506129 0.757476 -0.412387
f 226/226/226 227/227/227 228/228/228
v -0.217789 0.217789 0.815000
v -0.284555 0.117866 0.815000
v -0.295641 0.122459 0.841000
vn -0.757476 0.506129 -0.412387
vn -0.757476 0.506129 -0.412387
vn -0.757476 0.506129 -0.412387
f 229/229/229 230/230/230 231/231/231
v -0.217789 0.217789 0.815000
v -0.295641 0.122459 0.841000
v -0.226274 0.226274 0.841000
vn -0.757476 0.506129 -0.412387
vn -0.757476 0.506129 -0.412387
vn -0.757476 0.506129 -0.412387
f 232/232/232 233/233/233 234/234/234
v -0.284555 0.117866 0.815000
v -0.308000 0.000000 0.815000
v -0.320000 0.000000 0.841000
vn -0.893504 0.177729 -0.412387
vn -0.893504 0.177729 -0.412387
vn -0.893504 0.177729 -0.412387
f 235/235/235 236/236/236 237/237/237
v -0.284555 0.117866 0.815000
v -0.320000 0.000000 0.841000
v -0.295641 0.122459 0.841000
vn -0.893504 0.177729 -0.412387
vn -0.893504 0.177729 -0.412387
vn -0.893504 0.177729 -0.412387
f 238/238/238 239/239/239 240/240/240
v -0.308000 0.000000 0.815000
v -0.284555 -0.117866 0.815000
v -0.295641 -0.122459 0.841000
vn -0.893504 -0.177729 -0.412387
vn -0.893504 -0.177729 -0.412387
vn -0.893504 -0.177729 -0.412387
f 241/241/241 242/242/242 243/243/243
v -0.308000 0.000000 0.815000
v -0.295641 -0.122459 0.841000
v -0.320000 0.000000 0.841000
vn -0.893504 -0.177729 -0.412387
vn -0.893504 -0.177729 -0.412387
vn -0.893504 -0.177729 -0.412387
f 244/244/244 245/245/245 246/246/246
v -0.284555 -0.117866 0.815000
v -0.217789 -0.217789 0.815000
v -0.226274 -0.226274 0.841000
vn -0.757476 -0.506129 -0.412387
vn -0.757476 -0.506129 -0.412387
vn -0.757476 -0.506129 -0.412387
f 247/247/247 248/248/248 249/249/249
v -0.284555 -0.117866 0.815000
v -0.226274 -0.226274 0.841000
v -0.295641 -0.122459 0.841000
vn -0.757476 -0.506129 -0.412387
vn -0.757476 -0.506129 -0.412387
vn -0.757476 -0.506129 -0.412387
f 250/250/250 251/251/251 252/252/252
v -0.217789 -0.217789 0.815000
v -0.117866 -0.284555 0.815000
v -0.122459 -0.295641 0.841000
vn -0.506129 -0.757476 -0.412387
vn -0.506129 -0.757476 -0.412387
vn -0.506129 -0.757476 -0.412387
f 253/253/253 254/254/254 255/255/255
v -0.217789 -0.217789 0.815000
v -0.122459 -0.295641 0.841000
v -0.226274 -0.226274 0.841000
vn -0.506129 -0.757476 -0.412387
vn -0.506129 -0.757476 -0.412387
vn -0.506129 -0.757476 -0.412387
f 256/256/256 257/257/257 258/258/258
v -0.117866 -0.284555 0.815000
v -0.000000 -0.308000 0.815000
v -0.000000 -0.320000 0.841000
vn -0.177729 -0.893504 -0.412387
vn -0.177729 -0.893504 -0.412387
vn -0.177729 -0.893504 -0.412387
f 259/259/259 260/260/260 261/261/261
v -0.117866 -0.284555 0.815000
v -0.000000 -0.320000 0.841000
v -0.122459 -0.295641 0.841000
vn -0.177729 -0.893504 -0.412387
vn -0.177729 -0.893504 -0.412387
vn -0.177729 -0.893504 -0.412387
f 262/262/262 263/263/263 264/264/264
v -0.000000 -0.308000 0.815000
v 0.117866 -0.284555 0.815000
v 0.122459 -0.295641 0.841000
vn 0.177729 -0.893504 -0.412387
vn 0.177729 -0.893504 -0.412387
vn 0.177729 -0.893504 -0.412387
f 265/265/265 266/266/266 267/267/267
v -0.000000 -0.308000 0.815000
v 0.122459 -0.295641 0.841000
v -0.000000 -0.320000 0.841000
vn 0.177729 -0.893504 -0.412387
vn 0.177729 -0.893504 -0.412387
vn 0.177729 -0.893504 -0.412387
f 268/268/268 269/269/269 270/270/270
v 0.117866 -0.284555 0.815000
v 0.217789 -0.217789 0.815000
v 0.226274 -0.226274 0.841000
vn 0.506129 -0.757476 -0.412387
vn 0.506129 -0.757476 -0.412387
vn 0.506129 -0.757476 -0.412387
f 271/271/271 272/272/272 273/273/273
v 0.117866 -0.284555 0.815000
v 0.226274 -0.226274 0.841000
v 0.122459 -0.295641 0.841000
vn 0.506129 -0.757476 -0.412387
vn 0.506129 -0.757476 -0.412387
vn 0.506129 -0.757476 -0.412387
f 274/274/274 275/275/275 276/276/276
v 0.217789 -0.217789 0.815000
v 0.284555 -0.117866 0.815000
v 0.295641 -0.122459 0.841000
vn 0.757476 -0.506129 -0.412387
vn 0.757476 -0.506129 -0.412387
vn 0.757476 -0.506129 -0.412387
f 277/277/277 278/278/278 279/279/279
v 0.217789 -0.217789 0.815000
v 0.295641 -0.122459 0.841000
v 0.226274 -0.226274 0.841000
vn 0.757476 -0.506129 -0.412387
vn 0.757476 -0.506129 -0.412387
vn 0.757476 -0.506129 -0.412387
f 280/280/280 281/281/281 282/282/282
v 0.284555 -0.117866 0.815000
v 0.308000 0.000000 0.815000
v 0.320000 0.000000 0.841000
vn 0.893504 -0.177729 -0.412387
vn 0.893504 -0.177729 -0.412387
vn 0.893504 -0.177729 -0.412387
f 283/283/283 284/284/284 285/285/285
v 0.284555 -0.117866 0.815000
v 0.320000 0.000000 0.841000
v 0.295641 -0.122459 0.841000
vn 0.893504 -0.177729 -0.412387
vn 0.893504 -0.177729 -0.412387
vn 0.893504 -0.177729 -0.412387
f 286/286/286 287/287/287 288/288/288
v 0.320000 0.000000 0.841000
v 0.295641 0.122459 0.841000
v 0.291022 0.120545 0.885000
vn 0.974750 0.193890 0.110767
vn 0.974750 0.193890 0.110767
vn 0.974750 0.193890 0.110767
f 289/289/289 290/290/290 291/291/291
v 0.320000 0.000000 0.841000
v 0.291022 0.120545 0.885000
v 0.315000 0.000000 0.885000
vn 0.974750 0.193890 0.110767
vn 0.974750 0.193890 0.110767
vn 0.974750 0.193890 0.110767
f 292/292/292 293/293/293 294/294/294
v 0.295641 0.122459 0.841000
v 0.226274 0.226274 0.841000
v 0.222739 0.222739 0.885000
vn 0.826353 0.552151 0.110767
vn 0.826353 0.552151 0.110767
vn 0.826353 0.552151 0.110767
f 295/295/295 296/296/296 297/297/297
v 0.295641 0.122459 0.841000
v 0.222739 0.222739 0.885000
v 0.291022 0.120545 0.885000
vn 0.826353 0.552151 0.110767
vn 0.826353 0.552151 0.110767
vn 0.826353 0.552151 0.110767
f 298/298/298 299/299/299 300/300/300
v 0.226274 0.226274 0.841000
v 0.122459 0.295641 0.841000
v 0.120545 0.291022 0.885000
vn 0.552151 0.826353 0.110767
vn 0.552151 0.826353 0.110767
vn 0.552151 0.826353 0.110767
f 301/301/301 302/302/302 303/303/303
v 0.226274 0.226274 0.841000
v 0.120545 0.291022 0.885000
v 0.222739 0.222739 0.885000
vn 0.552151 0.826353 0.110767
vn 0.552151 0.826353 0.110767
vn 0.552151 0.826353 0.110767
f 304/304/304 305/305/305 306/306/306
v 0.122459 0.295641 0.841000
v 0.000000 0.320000 0.841000
v 0.000000 0.315000 0.885000
vn 0.193890 0.974750 0.110767
vn 0.193890 0.974750 0.110767
vn 0.193890 0.974750 0.110767
f 307/307/307 308/308/308 309/309/309
v 0.122459 0.295641 0.841000
v 0.000000 0.315000 0.885000
v 0.120545 0.291022 0.885000
vn 0.193890 0.974750 0.110767
vn 0.193890 0.974750 0.110767
vn 0.193890 0.974750 0.110767
f 310/310/310 311/311/311 312/312/312
v 0.000000 0.320000 0.841000
v -0.122459 0.295641 0.841000
v -0.120545 0.291022 0.885000
vn -0.193890 0.974750 0.110767
vn -0.193890 0.974750 0.110767
vn -0.193890 0.974750 0.110767
f 313/313/313 314/314/314 315/315/315
v 0.000000 0.320000 0.841000
v -0.120545 0.291022 0.885000
v 0.000000 0.315000 0.885000
vn -0.193890 0.974750 0.110767
vn -0.193890 0.974750 0.110767
vn -0.193890 0.974750 0.110767
f 316/316/316 317/317/317 318/318/318
v -0.122459 0.295641 0.841000
v -0.226274 0.226274 0.841000
v -0.222739 0.222739 0.885000
vn -0.552151 0.826353 0.110767
vn -0.552151 0.826353 0.110767
vn -0.552151 0.826353 0.110767
f 319/319/319 320/320/320 321/321/321
v -0.122459 0.295641 0.841000
v -0.222739 0.222739 0.885000
v -0.120545 0.291022 0.885000
vn -0.552151 0.826353 0.110767
vn -0.552151 0.826353 0.110767
vn -0.552151 0.826353 0.110767
f 322/322/322 323/323/323 324/324/324
v -0.226274 0.226274 0.841000
v -0.295641 0.122459 0.841000
v -0.291022 0.120545 0.885000
vn -0.826353 0.552151 0.110767
vn -0.826353 0.552151 0.110767
vn -0.826353 0.552151 0.110767
f 325/325/325 326/326/326 327/327/327
v -0.226274 0.226274 0.841000
v -0.291022 0.120545 0.885000
v -0.222739 0.222739 0.885000
vn -0.826353 0.552151 0.110767
vn -0.826353 0.552151 0.110767
vn -0.826353 0.552151 0.110767
f 328/328/328 329/329/329 330/330/330
v -0.295641 0.122459 0.841000
v -0.320000 0.000000 0.841000
v -0.315000 0.000000 0.885000
vn -0.974750 0.193890 0.110767
vn -0.974750 0.193890 0.110767
vn -0.974750 0.193890 0.110767
f 331/331/331 332/332/332 333/333/333
v -0.295641 0.122459 0.841000
v -0.315000 0.000000 0.885000
v -0.291022 0.120545 0.885000
vn -0.974750 0.193890 0.110767
vn -0.974750 0.193890 0.110767
vn -0.974750 0.193890 0.110767
f 334/334/334 335/335/335 336/336/336
v -0.320000 0.000000 0.841000
v -0.295641 -0.122459 0.841000
v -0.291022 -0.120545 0.885000
vn -0.974750 -0.193890 0.110767
vn -0.974750 -0.193890 0.110767
vn -0.974750 -0.193890 0.110767
f 337/337/337 338/338/338 339/339/339
v -0.320000 0.000000 0.841000
v -0.291022 -0.120545 0.885000
v -0.315000 0.000000 0.885000
vn -0.974750 -0.193890 0.110767
vn -0.974750 -0.193890 0.110767
vn -0.974750 -0.193890 0.110767
f 340/340/340 341/341/341 342/342/342
v -0.295641 -0.122459 0.841000
v -0.226274 -0.226274 0.841000
v -0.222739 -0.222739 0.885000
vn -0.826353 -0.552151 0.110767
vn -0.826353 -0.552151 0.110767
vn -0.826353 -0.552151 0.110767
f 343/343/343 344/344/344 345/345/345
v -0.295641 -0.122459 0.841000
v -0.222739 -0.222739 0.885000
v -0.291022 -0.120545 0.885000
vn -0.826353 -0.552151 0.110767
vn -0.826353 -0.552151 0.110767
vn -0.826353 -0.552151 0.110767
f 346/346/346 347/347/347 348/348/348
v -0.226274 -0.226274 0.841000
v -0.122459 -0.295641 0.841000
v -0.120545 -0.291022 0.885000
vn -0.552151 -0.826353 0.110767
vn -0.552151 -0.826353 0.110767
vn -0.552151 -0.826353 0.110767
f 349/349/349 350/350/350 351/351/351
v -0.226274 -0.226274 0.841000
v -0.120545 -0.291022 0.885000
v -0.222739 -0.222739 0.885000
vn -0.552151 -0.826353 0.110767
vn -0.552151 -0.826353 0.110767
vn -0.552151 -0.826353 0.110767
f 352/352/352 353/353/353 354/354/354
v -0.122459 -0.295641 0.841000
v -0.000000 -0.320000 0.841000
v -0.000000 -0.315000 0.885000
vn -0.193890 -0.974750 0.110767
vn -0.193890 -0.974750 0.110767
vn -0.193890 -0.974750 0.110767
f 355/355/355 356/356/356 357/357/357
v -0.122459 -0.295641 0.841000
v -0.000000 -0.315000 0.885000
v -0.120545 -0.291022 0.885000
vn -0.193890 -0.974750 0.110767
vn -0.193890 -0.974750 0.110767
vn -0.193890 -0.974750 0.110767
f 358/358/358 359/359/359 360/360/360
v -0.000000 -0.320000 0.841000
v 0.122459 -0.295641 0.841000
v 0.120545 -0.291022 0.885000
vn 0.193890 -0.974750 0.110767
vn 0.193890 -0.974750 0.110767
vn 0.193890 -0.974750 0.110767
f 361/361/361 362/362/362 363/363/363
v -0.000000 -0.320000 0.841000
v 0.120545 -0.291022 0.885000
v -0.000000 -0.315000 0.885000
vn 0.193890 -0.974750 0.110767
vn 0.193890 -0.974750 0.110767
vn 0.193890 -0.974750 0.110767
f 364/364/364 365/365/365 366/366/366
v 0.122459 -0.295641 0.841000
v 0.226274 -0.226274 0.841000
v 0.222739 -0.222739 0.885000
vn 0.552151 -0.826353 0.110767
vn 0.552151 -0.826353 0.110767
vn 0.552151 -0.826353 0.110767
f 367/367/367 368/368/368 369/369/369
v 0.122459 -0.295641 0.841000
v 0.222739 -0.222739 0.885000
v 0.120545 -0.291022 0.885000
vn 0.552151 -0.826353 0.110767
vn 0.552151 -0.826353 0.110767
vn 0.552151 -0.826353 0.110767
f 370/370/370 371/371/371 372/372/372
v 0.226274 -0.226274 0.841000
v 0.295641 -0.122459 0.841000
v 0.291022 -0.120545 0.885000
vn 0.826353 -0.552151 0.110767
vn 0.826353 -0.552151 0.110767
vn 0.826353 -0.552151 0.110767
f 373/373/373 374/374/374 375/375/375
v 0.226274 -0.226274 0.841000
v 0.291022 -0.120545 0.885000
v 0.222739 -0.222739 0.885000
vn 0.826353 -0.552151 0.110767
vn 0.826353 -0.552151 0.110767
vn 0.826353 -0.552151 0.110767
f 376/376/376 377/377/377 378/378/378
v 0.295641 -0.122459 0.841000
v 0.320000 0.000000 0.841000
v 0.315000 0.000000 0.885000
vn 0.974750 -0.193890 0.110767
vn 0.974750 -0.193890 0.110767
vn 0.974750 -0.193890 0.110767
f 379/379/379 380/380/380 381/381/381
v 0.295641 -0.122459 0.841000
v 0.315000 0.000000 0.885000
v 0.291022 -0.120545 0.885000
vn 0.974750 -0.193890 0.110767
vn 0.974750 -0.193890 0.110767
vn 0.974750 -0.193890 0.110767
f 382/382/382 383/383/383 384/384/384
v 0.315000 0.000000 0.885000
v 0.291022 0.120545 0.885000
v 0.048042 0.019900 0.929000
vn 0.164918 0.032804 0.985762
vn 0.164918 0.032804 0.985762
vn 0.164918 0.032804 0.985762
f 385/385/385 386/386/386 387/387/387
v 0.315000 0.000000 0.885000
v 0.048042 0.019900 0.929000
v 0.052000 0.000000 0.929000
vn 0.164918 0.032804 0.985762
vn 0.164918 0.032804 0.985762
vn 0.164918 0.032804 0.985762
f 388/388/388 389/389/389 390/390/390
v 0.291022 0.120545 0.885000
v 0.222739 0.222739 0.885000
v 0.036770 0.036770 0.929000
vn 0.139811 0.093419 0.985762
vn 0.139811 0.093419 0.985762
vn 0.139811 0.093419 0.985762
f 391/391/391 392/392/392 393/393/393
v 0.291022 0.120545 0.885000
v 0.036770 0.036770 0.929000
v 0.048042 0.019900 0.929000
vn 0.139811 0.093419 0.985762
vn 0.139811 0.093419 0.985762
vn 0.139811 0.093419 0.985762
f 394/394/394 395/395/395 396/396/396
v 0.222739 0.222739 0.885000
v 0.120545 0.291022 0.885000
v 0.019900 0.048042 0.929000
vn 0.093419 0.139811 0.985762
vn 0.093419 0.139811 0.985762
vn 0.093419 0.139811 0.985762
f 397/397/397 398/398/398 399/399/399
v 0.222739 0.222739 0.885000
v 0.019900 0.048042 0.929000
v 0.036770 0.036770 0.929000
vn 0.093419 0.139811 0.985762
vn 0.093419 0.139811 0.985762
vn 0.093419 0.139811 0.985762
f 400/400/400 401/401/401 402/402/402
v 0.120545 0.291022 0.885000
v 0.000000 0.315000 0.885000
v 0.000000 0.052000 0.929000
vn 0.032804 0.164918 0.985762
vn 0.032804 0.164918 0.985762
vn 0.032804 0.164918 0.985762
f 403/403/403 404/404/404 405/405/405
v 0.120545 0.291022 0.885000
v 0.000000 0.052000 0.929000
v 0.019900 0.048042 0.929000
vn 0.032804 0.164918 0.985762
vn 0.032804 0.164918 0.985762
vn 0.032804 0.164918 0.985762
f 406/406/406 407/407/407 408/408/408
v 0.000000 0.315000 0.885000
v -0.120545 0.291022 0.885000
v -0.019900 0.048042 0.929000
vn -0.032804 0.164918 0.985762
vn -0.032804 0.164918 0.985762
vn -0.032804 0.164918 0.985762
f 409/409/409 410/410/410 411/411/411
v 0.000000 0.315000 0.885000
v -0.019900 0.048042 0.929000
v 0.000000 0.052000 0.929000
vn -0.032804 0.164918 0.985762
vn -0.032804 0.164918 0.985762
vn -0.032804 0.164918 0.985762
f 412/412/412 413/413/413 414/414/414
v -0.120545 0.291022 0.885000
v -0.222739 0.222739 0.885000
v -0.036770 0.036770 0.929000
vn -0.093419 0.139811 0.985762
vn -0.093419 0.139811 0.985762
vn -0.093419 0.139811 0.985762
f 415/415/415 416/416/416 417/417/417
v -0.120545 0.291022 0.885000
v -0.036770 0.036770 0.929000
v -0.019900 0.048042 0.929000
vn -0.093419 0.139811 0.985762
vn -0.093419 0.139811 0.985762
vn -0.093419 0.139811 0.985762
f 418/418/418 419/419/419 420/420/420
v -0.222739 0.222739 0.885000
v -0.291022 0.120545 0.885000
v -0.048042 0.019900 0.929000
vn -0.139811 0.093419 0.985762
vn -0.139811 0.093419 0.985762
vn -0.139811 0.093419 0.985762
f 421/421/421 422/422/422 423/423/423
v -0.222739 0.222739 0.885000
v -0.048042 0.019900 0.929000
v -0.036770 0.036770 0.929000
vn -0.139811 0.093419 0.985762
vn -0.139811 0.093419 0.985762
vn -0.139811 0.093419 0.985762
f 424/424/424 425/425/425 426/426/426
v -0.291022 0.120545 0.885000
v -0.315000 0.000000 0.885000
v -0.052000 0.000000 0.929000
vn -0.164918 0.032804 0.985762
vn -0.164918 0.032804 0.985762
vn -0.164918 0.032804 0.985762
f 427/427/427 428/428/428 429/429/429
v -0.291022 0.120545 0.885000
v -0.052000 0.000000 0.929000
v -0.048042 0.019900 0.929000
vn -0.164918 0.032804 0.985762
vn -0.164918 0.032804 0.985762
vn -0.164918 0.032804 0.985762
f 430/430/430 431/431/431 432/432/432
v -0.315000 0.000000 0.885000
v -0.291022 -0.120545 0.885000
v -0.048042 -0.019900 0.929000
vn -0.164918 -0.032804 0.985762
vn -0.164918 -0.032804 0.985762
vn -0.164918 -0.032804 0.985762
f 433/433/433 434/434/434 435/435/435
v -0.315000 0.000000 0.885000
v -0.048042 -0.019900 0.929000
v -0.052000 0.000000 0.929000
vn -0.164918 -0.032804 0.985762
vn -0.164918 -0.032804 0.985762
vn -0.164918 -0.032804 0.985762
f 436/436/436 437/437/437 438/438/438
v -0.291022 -0.120545 0.885000
v -0.222739 -0.222739 0.885000
v -0.036770 -0.036770 0.929000
vn -0.139811 -0.093419 0.985762
vn -0.139811 -0.093419 0.985762
vn -0.139811 -0.093419 0.985762
f 439/439/439 440/440/440 441/441/441
v -0.291022 -0.120545 0.885000
v -0.036770 -0.036770 0.929000
v -0.048042 -0.019900 0.929000
vn -0.139811 -0.093419 0.985762
vn -0.139811 -0.093419 0.985762
vn -0.139811 -0.093419 0.985762
f 442/442/442 443/443/443 444/444/444
v -0.222739 -0.222739 0.885000
v -0.120545 -0.291022 0.885000
v -0.019900 -0.048042 0.929000
vn -0.093419 -0.139811 0.985762
vn -0.093419 -0.139811 0.985762
vn -0.093419 -0.139811 0.985762
f 445/445/445 446/446/446 447/447/447
v -0.222739 -0.222739 0.885000
v -0.019900 -0.048042 0.929000
v -0.036770 -0.036770 0.929000
vn -0.093419 -0.139811 0.985762
vn -0.093419 -0.139811 0.985762
vn -0.093419 -0.139811 0.985762
f 448/448/448 449/449/449 450/450/450
v -0.120545 -0.291022 0.885000
v -0.000000 -0.315000 0.885000
v -0.000000 -0.052000 0.929000
vn -0.032804 -0.164918 0.985762
vn -0.032804 -0.164918 0.985762
vn -0.032804 -0.164918 0.985762
f 451/451/451 452/452/452 453/453/453
v -0.120545 -0.291022 0.885000
v -0.000000 -0.052000 0.929000
v -0.019900 -0.048042 0.929000
vn -0.032804 -0.164918 0.985762
vn -0.032804 -0.164918 0.985762
vn -0.032804 -0.164918 0.985762
f 454/454/454 455/455/455 456/456/456
v -0.000000 -0.315000 0.885000
v 0.120545 -0.291022 0.885000
v 0.019900 -0.048042 0.929000
vn 0.032804 -0.164918 0.985762
vn 0.032804 -0.164918 0.985762
vn 0.032804 -0.164918 0.985762
f 457/457/457 458/458/458 459/459/459
v -0.000000 -0.315000 0.885000
v 0.019900 -0.048042 0.929000
v -0.000000 -0.052000 0.929000
vn 0.032804 -0.164918 0.985762
vn 0.032804 -0.164918 0.985762
vn 0.032804 -0.164918 0.985762
f 460/460/460 461/461/461 462/462/462
v 0.120545 -0.291022 0.885000
v 0.222739 -0.222739 0.885000
v 0.036770 -0.036770 0.929000
vn 0.093419 -0.139811 0.985762
vn 0.093419 -0.139811 0.985762
vn 0.093419 -0.139811 0.985762
f 463/463/463 464/464/464 465/465/465
v 0.120545 -0.291022 0.885000
v 0.036770 -0.036770 0.929000
v 0.019900 -0.048042 0.929000
vn 0.093419 -0.139811 0.985762
vn 0.093419 -0.139811 0.985762
vn 0.093419 -0.139811 0.985762
f 466/466/466 467/467/467 468/468/468
v 0.222739 -0.222739 0.885000
v 0.291022 -0.120545 0.885000
v 0.048042 -0.019900 0.929000
vn 0.139811 -0.093419 0.985762
vn 0.139811 -0.093419 0.985762
vn 0.139811 -0.093419 0.985762
f 469/469/469 470/470/470 471/471/471
v 0.222739 -0.222739 0.885000
v 0.048042 -0.019900 0.929000
v 0.036770 -0.036770 0.929000
vn 0.139811 -0.093419 0.985762
vn 0.139811 -0.093419 0.985762
vn 0.139811 -0.093419 0.985762
f 472/472/472 473/473/473 474/474/474
v 0.291022 -0.120545 0.885000
v 0.315000 0.000000 0.885000
v 0.052000 0.000000 0.929000
vn 0.164918 -0.032804 0.985762
vn 0.164918 -0.032804 0.985762
vn 0.164918 -0.032804 0.985762
f 475/475/475 476/476/476 477/477/477
v 0.291022 -0.120545 0.885000
v 0.052000 0.000000 0.929000
v 0.048042 -0.019900 0.929000
vn 0.164918 -0.032804 0.985762
vn 0.164918 -0.032804 0.985762
vn 0.164918 -0.032804 0.985762
f 478/478/478 479/479/479 480/480/480
v 0.284555 0.117866 0.815000
v 0.308000 0.000000 0.815000
v 0.000000 0.000000 0.815000
vn 0.000000 -0.000000 -1.000000
vn 0.000000 -0.000000 -1.000000
vn 0.000000 -0.000000 -1.000000
f 481/481/481 482/482/482 483/483/483
v 0.217789 0.217789 0.815000
v 0.284555 0.117866 0.815000
v 0.000000 0.000000 0.815000
vn 0.000000 -0.000000 -1.000000
vn 0.000000 -0.000000 -1.000000
vn 0.000000 -0.000000 -1.000000
f 484/484/484 485/485/485 486/486/486
v 0.117866 0.284555 0.815000
v 0.217789 0.217789 0.815000
v 0.000000 0.000000 0.815000
vn 0.000000 -0.000000 -1.000000
vn 0.000000 -0.000000 -1.000000
vn 0.000000 -0.000000 -1.000000
f 487/487/487 488/488/488 489/489/489
v 0.000000 0.308000 0.815000
v 0.117866 0.284555 0.815000
v 0.000000 0.000000 0.815000
vn 0.000000 -0.000000 -1.000000
vn 0.000000 -0.000000 -1.000000
vn 0.000000 -0.000000 -1.000000
f 490/490/490 491/491/491 492/492/492
v -0.117866 0.284555 0.815000
v 0.000000 0.308000 0.815000
v 0.000000 0.000000 0.815000
vn 0.000000 0.000000 -1.000000
vn 0.000000 0.000000 -1.000000
vn 0.000000 0.000000 -1.000000
f 493/493/493 494/494/494 495/495/495
v -0.217789 0.217789 0.815000
v -0.117866 0.284555 0.815000
v 0.000000 0.000000 0.815000
vn 0.000000 0.000000 -1.000000
vn 0.000000 0.000000 -1.000000
vn 0.000000 0.000000 -1.000000
f 496/496/496 497/497/497 498/498/498
v -0.284555 0.117866 0.815000
v -0.217789 0.217789 0.815000
v 0.000000 0.000000 0.815000
vn 0.000000 0.000000 -1.000000
vn 0.000000 0.000000 -1.000000
vn 0.000000 0.000000 -1.000000
f 499/499/499 500/500/500 501/501/501
v -0.308000 0.000000 0.815000
v -0.284555 0.117866 0.815000
v 0.000000 0.000000 0.815000
vn 0.000000 0.000000 -1.000000
vn 0.000000 0.000000 -1.000000
vn 0.000000 0.000000 -1.000000
f 502/502/502 503/503/503 504/504/504
v -0.284555 -0.117866 0.815000
v -0.308000 0.000000 0.815000
v 0.000000 0.000000 0.815000
vn 0.000000 0.000000 -1.000000
vn 0.000000 0.000000 -1.000000
vn 0.000000 0.000000 -1.000000
f 505/505/505 506/506/506 507/507/507
v -0.217789 -0.217789 0.815000
v -0.284555 -0.117866 0.815000
v 0.000000 0.000000 0.815000
vn 0.000000 0.000000 -1.000000
vn 0.000000 0.000000 -1.000000
vn 0.000000 0.000000 -1.000000
f 508/508/508 509/509/509 510/510/510
v -0.117866 -0.284555 0.815000
v -0.217789 -0.217789 0.815000
v 0.000000 0.000000 0.815000
vn 0.000000 0.000000 -1.000000
vn 0.000000 0.000000 -1.000000
vn 0.000000 0.000000 -1.000000
f 511/511/511 512/512/512 513/513/513
v -0.000000 -0.308000 0.815000
v -0.117866 -0.284555 0.815000
v 0.000000 0.000000 0.815000
vn 0.000000 0.000000 -1.000000
vn 0.000000 0.000000 -1.000000
vn 0.000000 0.000000 -1.000000
f 514/514/514 515/515/515 516/516/516
v 0.117866 -0.284555 0.815000
v -0.000000 -0.308000 0.815000
v 0.000000 0.000000 0.815000
vn -0.000000 0.000000 -1.000000
vn -0.000000 0.000000 -1.000000
vn -0.000000 0.000000 -1.000000
f 517/517/517 518/518/518 519/519/519
v 0.217789 -0.217789 0.815000
v 0.117866 -0.284555 0.815000
v 0.000000 0.000000 0.815000
vn -0.000000 0.000000 -1.000000
vn -0.000000 0.000000 -1.000000
vn -0.000000 0.000000 -1.000000
f 520/520/520 521/521/521 522/522/522
v 0.284555 -0.117866 0.815000
v 0.217789 -0.217789 0.815000
v 0.000000 0.000000 0.815000
vn -0.000000 0.000000 -1.000000
vn -0.000000 0.000000 -1.000000
vn -0.000000 0.000000 -1.000000
f 523/523/523 524/524/524 525/525/525
v 0.308000 0.000000 0.815000
v 0.284555 -0.117866 0.815000
v 0.000000 0.000000 0.815000
vn -0.000000 0.000000 -1.000000
vn -0.000000 0.000000 -1.000000
vn -0.000000 0.000000 -1.000000
f 526/526/526 527/527/527 528/528/528
v 0.000000 0.000000 0.929000
v 0.052000 0.000000 0.929000
v 0.048042 0.019900 0.929000
vn 0.000000 0.000000 1.000000
vn 0.000000 0.000000 1.000000
vn 0.000000 0.000000 1.000000
f 529/529/529 530/530/530 531/531/531
v 0.000000 0.000000 0.929000
v 0.048042 0.019900 0.929000
v 0.036770 0.036770 0.929000
vn 0.000000 0.000000 1.000000
vn 0.000000 0.000000 1.000000
vn 0.000000 0.000000 1.000000
f 532/532/532 533/533/533 534/534/534
v 0.000000 0.000000 0.929000
v 0.036770 0.036770 0.929000
v 0.019900 0.048042 0.929000
vn 0.000000 0.000000 1.000000
vn 0.000000 0.000000 1.000000
vn 0.000000 0.000000 1.000000
f 535/535/535 536/536/536 537/537/537
v 0.000000 0.000000 0.929000
v 0.019900 0.048042 0.929000
v 0.000000 0.052000 0.929000
vn 0.000000 0.000000 1.000000
vn 0.000000 0.000000 1.000000
vn 0.000000 0.000000 1.000000
f 538/538/538 539/539/539 540/540/540
v 0.000000 0.000000 0.929000
v 0.000000 0.052000 0.929000
v -0.019900 0.048042 0.929000
vn 0.000000 -0.000000 1.000000
vn 0.000000 -0.000000 1.000000
vn 0.000000 -0.000000 1.000000
f 541/541/541 542/542/542 543/543/543
v 0.000000 0.000000 0.929000
v -0.019900 0.048042 0.929000
v -0.036770 0.036770 0.929000
vn 0.000000 0.000000 1.000000
vn 0.000000 0.000000 1.000000
vn 0.000000 0.000000 1.000000
f 544/544/544 545/545/545 546/546/546
v 0.000000 0.000000 0.929000
v -0.036770 0.036770 0.929000
v -0.048042 0.019900 0.929000
vn 0.000000 0.000000 1.000000
vn 0.000000 0.000000 1.000000
vn 0.000000 0.000000 1.000000
f 547/547/547 548/548/548 549/549/549
v 0.000000 0.000000 0.929000
v -0.048042 0.019900 0.929000
v -0.052000 0.000000 0.929000
vn 0.000000 0.000000 1.000000
vn 0.000000 0.000000 1.000000
vn 0.000000 0.000000 1.000000
f 550/550/550 551/551/551 552/552/552
v 0.000000 0.000000 0.929000
v -0.052000 0.000000 0.929000
v -0.048042 -0.019900 0.929000
vn 0.000000 0.000000 1.000000
vn 0.000000 0.000000 1.000000
vn 0.000000 0.000000 1.000000
f 553/553/553 554/554/554 555/555/555
v 0.000000 0.000000 0.929000
v -0.048042 -0.019900 0.929000
v -0.036770 -0.036770 0.929000
vn 0.000000 0.000000 1.000000
vn 0.000000 0.000000 1.000000
vn 0.000000 0.000000 1.000000
f 556/556/556 557/557/557 558/558/558
v 0.000000 0.000000 0.929000
v -0.036770 -0.036770 0.929000
v -0.019900 -0.048042 0.929000
vn 0.000000 0.000000 1.000000
vn 0.000000 0.000000 1.000000
vn 0.000000 0.000000 1.000000
f 559/559/559 560/560/560 561/561/561
v 0.000000 0.000000 0.929000
v -0.019900 -0.048042 0.929000
v -0.000000 -0.052000 0.929000
vn 0.000000 0.000000 1.000000
vn 0.000000 0.000000 1.000000
vn 0.000000 0.000000 1.000000
f 562/562/562 563/563/563 564/564/564
v 0.000000 0.000000 0.929000
v -0.000000 -0.052000 0.929000
v 0.019900 -0.048042 0.929000
vn 0.000000 0.000000 1.000000
vn 0.000000 0.000000 1.000000
vn 0.000000 0.000000 1.000000
f 565/565/565 566/566/566 567/567/567
v 0.000000 0.000000 0.929000
v 0.019900 -0.048042 0.929000
v 0.036770 -0.036770 0.929000
vn 0.000000 0.000000 1.000000
vn 0.000000 0.000000 1.000000
vn 0.000000 0.000000 1.000000
f 568/568/568 569/569/569 570/570/570
v 0.000000 0.000000 0.929000
v 0.036770 -0.036770 0.929000
v 0.048042 -0.019900 0.929000
vn 0.000000 0.000000 1.000000
vn 0.000000 0.000000 1.000000
vn 0.000000 0.000000 1.000000
f 571/571/571 572/572/572 573/573/573
v 0.000000 0.000000 0.929000
v 0.048042 -0.019900 0.929000
v 0.052000 0.000000 0.929000
vn -0.000000 0.000000 1.000000
vn -0.000000 0.000000 1.000000
vn -0.000000 0.000000 1.000000
f 574/574/574 575/575/575 576/576/576
v -0.036000 -0.007000 0.927000
v -0.050000 -0.007000 0.927000
v -0.050000 0.007000 0.927000
vn 0.000000 0.000000 -1.000000
vn 0.000000 0.000000 -1.000000
vn 0.000000 0.000000 -1.000000
f 577/577/577 578/578/578 579/579/579
v -0.036000 -0.007000 0.927000
v -0.050000 0.007000 0.927000
v -0.036000 0.007000 0.927000
vn 0.000000 0.000000 -1.000000
vn 0.000000 0.000000 -1.000000
vn 0.000000 0.000000 -1.000000
f 580/580/580 581/581/581 582/582/582
v -0.036000 0.007000 0.965000
v -0.050000 0.007000 0.965000
v -0.050000 -0.007000 0.965000
vn 0.000000 0.000000 1.000000
vn 0.000000 0.000000 1.000000
vn 0.000000 0.000000 1.000000
f 583/583/583 584/584/584 585/585/585
v -0.036000 0.007000 0.965000
v -0.050000 -0.007000 0.965000
v -0.036000 -0.007000 0.965000
vn 0.000000 0.000000 1.000000
vn 0.000000 0.000000 1.000000
vn 0.000000 0.000000 1.000000
f 586/586/586 587/587/587 588/588/588
v -0.036000 0.007000 0.927000
v -0.050000 0.007000 0.927000
v -0.050000 0.007000 0.965000
vn 0.000000 1.000000 0.000000
vn 0.000000 1.000000 0.000000
vn 0.000000 1.000000 0.000000
f 589/589/589 590/590/590 591/591/591
v -0.036000 0.007000 0.927000
v -0.050000 0.007000 0.965000
v -0.036000 0.007000 0.965000
vn 0.000000 1.000000 -0.000000
vn 0.000000 1.000000 -0.000000
vn 0.000000 1.000000 -0.000000
f 592/592/592 593/593/593 594/594/594
v -0.050000 0.007000 0.927000
v -0.050000 -0.007000 0.927000
v -0.050000 -0.007000 0.965000
vn -1.000000 0.000000 0.000000
vn -1.000000 0.000000 0.000000
vn -1.000000 0.000000 0.000000
f 595/595/595 596/596/596 597/597/597
v -0.050000 0.007000 0.927000
v -0.050000 -0.007000 0.965000
v -0.050000 0.007000 0.965000
vn -1.000000 0.000000 0.000000
vn -1.000000 0.000000 0.000000
vn -1.000000 0.000000 0.000000
f 598/598/598 599/599/599 600/600/600
v -0.050000 -0.007000 0.927000
v -0.036000 -0.007000 0.927000
v -0.036000 -0.007000 0.965000
vn 0.000000 -1.000000 0.000000
vn 0.000000 -1.000000 0.000000
vn 0.000000 -1.000000 0.000000
f 601/601/601 602/602/602 603/603/603
v -0.050000 -0.007000 0.927000
v -0.036000 -0.007000 0.965000
v -0.050000 -0.007000 0.965000
vn 0.000000 -1.000000 0.000000
vn 0.000000 -1.000000 0.000000
vn 0.000000 -1.000000 0.000000
f 604/604/604 605/605/605 606/606/606
v -0.036000 -0.007000 0.927000
v -0.036000 0.007000 0.927000
v -0.036000 0.007000 0.965000
vn 1.000000 0.000000 0.000000
vn 1.000000 0.000000 0.000000
vn 1.000000 0.000000 0.000000
f 607/607/607 608/608/608 609/609/609
v -0.036000 -0.007000 0.927000
v -0.036000 0.007000 0.965000
v -0.036000 -0.007000 0.965000
vn 1.000000 0.000000 0.000000
vn 1.000000 0.000000 0.000000
vn 1.000000 0.000000 0.000000
f 610/610/610 611/611/611 612/612/612
v 0.050000 -0.007000 0.927000
v 0.036000 -0.007000 0.927000
v 0.036000 0.007000 0.927000
vn 0.000000 0.000000 -1.000000
vn 0.000000 0.000000 -1.000000
vn 0.000000 0.000000 -1.000000
f 613/613/613 614/614/614 615/615/615
v 0.050000 -0.007000 0.927000
v 0.036000 0.007000 0.927000
v 0.050000 0.007000 0.927000
vn 0.000000 0.000000 -1.000000
vn 0.000000 0.000000 -1.000000
vn 0.000000 0.000000 -1.000000
f 616/616/616 617/617/617 618/618/618
v 0.050000 0.007000 0.965000
v 0.036000 0.007000 0.965000
v 0.036000 -0.007000 0.965000
vn 0.000000 0.000000 1.000000
vn 0.000000 0.000000 1.000000
vn 0.000000 0.000000 1.000000
f 619/619/619 620/620/620 621/621/621
v 0.050000 0.007000 0.965000
v 0.036000 -0.007000 0.965000
v 0.050000 -0.007000 0.965000
vn 0.000000 0.000000 1.000000
vn 0.000000 0.000000 1.000000
vn 0.000000 0.000000 1.000000
f 622/622/622 623/623/623 624/624/624
v 0.050000 0.007000 0.927000
v 0.036000 0.007000 0.927000
v 0.036000 0.007000 0.965000
vn 0.000000 1.000000 0.000000
vn 0.000000 1.000000 0.000000
vn 0.000000 1.000000 0.000000
f 625/625/625 626/626/626 627/627/627
v 0.050000 0.007000 0.927000
v 0.036000 0.007000 0.965000
v 0.050000 0.007000 0.965000
vn 0.000000 1.000000 -0.000000
vn 0.000000 1.000000 -0.000000
vn 0.000000 1.000000 -0.000000
f 628/628/628 629/629/629 630/630/630
v 0.036000 0.007000 0.927000
v 0.036000 -0.007000 0.927000
v 0.036000 -0.007000 0.965000
vn -1.000000 0.000000 0.000000
vn -1.000000 0.000000 0.000000
vn -1.000000 0.000000 0.000000
f 631/631/631 632/632/632 633/633/633
v 0.036000 0.007000 0.927000
v 0.036000 -0.007000 0.965000
v 0.036000 0.007000 0.965000
vn -1.000000 0.000000 0.000000
vn -1.000000 0.000000 0.000000
vn -1.000000 0.000000 0.000000
f 634/634/634 635/635/635 636/636/636
v 0.036000 -0.007000 0.927000
v 0.050000 -0.007000 0.927000
v 0.050000 -0.007000 0.965000
vn 0.000000 -1.000000 0.000000
vn 0.000000 -1.000000 0.000000
vn 0.000000 -1.000000 0.000000
f 637/637/637 638/638/638 639/639/639
v 0.036000 -0.007000 0.927000
v 0.050000 -0.007000 0.965000
v 0.036000 -0.007000 0.965000
vn 0.000000 -1.000000 0.000000
vn 0.000000 -1.000000 0.000000
vn 0.000000 -1.000000 0.000000
f 640/640/640 641/641/641 642/642/642
v 0.050000 -0.007000 0.927000
v 0.050000 0.007000 0.927000
v 0.050000 0.007000 0.965000
vn 1.000000 0.000000 0.000000
vn 1.000000 0.000000 0.000000
vn 1.000000 0.000000 0.000000
f 643/643/643 644/644/644 645/645/645
v 0.050000 -0.007000 0.927000
v 0.050000 0.007000 0.965000
v 0.050000 -0.007000 0.965000
vn 1.000000 0.000000 0.000000
vn 1.000000 0.000000 0.000000
vn 1.000000 0.000000 0.000000
f 646/646/646 647/647/647 648/648/648
v -0.043000 0.008000 0.957000
v -0.043000 -0.008000 0.957000
v -0.043000 -0.008000 0.973000
vn -1.000000 0.000000 0.000000
vn -1.000000 0.000000 0.000000
vn -1.000000 0.000000 0.000000
f 649/649/649 650/650/650 651/651/651
v -0.043000 0.008000 0.957000
v -0.043000 -0.008000 0.973000
v -0.043000 0.008000 0.973000
vn -1.000000 0.000000 0.000000
vn -1.000000 0.000000 0.000000
vn -1.000000 0.000000 0.000000
f 652/652/652 653/653/653 654/654/654
v 0.043000 0.008000 0.973000
v 0.043000 -0.008000 0.973000
v 0.043000 -0.008000 0.957000
vn 1.000000 0.000000 0.000000
vn 1.000000 0.000000 0.000000
vn 1.000000 0.000000 0.000000
f 655/655/655 656/656/656 657/657/657
v 0.043000 0.008000 0.973000
v 0.043000 -0.008000 0.957000
v 0.043000 0.008000 0.957000
vn 1.000000 0.000000 0.000000
vn 1.000000 0.000000 0.000000
vn 1.000000 0.000000 0.000000
f 658/658/658 659/659/659 660/660/660
v -0.043000 0.008000 0.973000
v -0.043000 -0.008000 0.973000
v 0.043000 -0.008000 0.973000
vn 0.000000 0.000000 1.000000
vn 0.000000 0.000000 1.000000
vn 0.000000 0.000000 1.000000
f 661/661/661 662/662/662 663/663/663
v -0.043000 0.008000 0.973000
v 0.043000 -0.008000 0.973000
v 0.043000 0.008000 0.973000
vn -0.000000 0.000000 1.000000
vn -0.000000 0.000000 1.000000
vn -0.000000 0.000000 1.000000
f 664/664/664 665/665/665 666/666/666
v -0.043000 -0.008000 0.973000
v -0.043000 -0.008000 0.957000
v 0.043000 -0.008000 0.957000
vn 0.000000 -1.000000 0.000000
vn 0.000000 -1.000000 0.000000
vn 0.000000 -1.000000 0.000000
f 667/667/667 668/668/668 669/669/669
v -0.043000 -0.008000 0.973000
v 0.043000 -0.008000 0.957000
v 0.043000 -0.008000 0.973000
vn 0.000000 -1.000000 0.000000
vn 0.000000 -1.000000 0.000000
vn 0.000000 -1.000000 0.000000
f 670/670/670 671/671/671 672/672/672
v -0.043000 -0.008000 0.957000
v -0.043000 0.008000 0.957000
v 0.043000 0.008000 0.957000
vn 0.000000 0.000000 -1.000000
vn 0.000000 0.000000 -1.000000
vn 0.000000 0.000000 -1.000000
f 673/673/673 674/674/674 675/675/675
v -0.043000 -0.008000 0.957000
v 0.043000 0.008000 0.957000
v 0.043000 -0.008000 0.957000
vn 0.000000 0.000000 -1.000000
vn 0.000000 0.000000 -1.000000
vn 0.000000 0.000000 -1.000000
f 676/676/676 677/677/677 678/678/678
v -0.043000 0.008000 0.957000
v -0.043000 0.008000 0.973000
v 0.043000 0.008000 0.973000
vn 0.000000 1.000000 0.000000
vn 0.000000 1.000000 0.000000
vn 0.000000 1.000000 0.000000
f 679/679/679 680/680/680 681/681/681
v -0.043000 0.008000 0.957000
v 0.043000 0.008000 0.973000
v 0.043000 0.008000 0.957000
vn 0.000000 1.000000 0.000000
vn 0.000000 1.000000 0.000000
vn 0.000000 1.000000 0.000000
f 682/682/682 683/683/683 684/684/684
v -0.295203 -0.059500 0.777089
v -0.280797 -0.059500 0.772911
v -0.280797 -0.044500 0.772911
vn 0.278524 0.000000 0.960429
vn 0.278524 0.000000 0.960429
vn 0.278524 0.000000 0.960429
f 685/685/685 686/686/686 687/687/687
v -0.295203 -0.059500 0.777089
v -0.280797 -0.044500 0.772911
v -0.295203 -0.044500 0.777089
vn 0.278524 -0.000000 0.960429
vn 0.278524 -0.000000 0.960429
vn 0.278524 -0.000000 0.960429
f 688/688/688 689/689/689 690/690/690
v -0.324203 -0.044500 0.677089
v -0.309797 -0.044500 0.672911
v -0.309797 -0.059500 0.672911
vn -0.278524 0.000000 -0.960429
vn -0.278524 0.000000 -0.960429
vn -0.278524 0.000000 -0.960429
f 691/691/691 692/692/692 693/693/693
v -0.324203 -0.044500 0.677089
v -0.309797 -0.059500 0.672911
v -0.324203 -0.059500 0.677089
vn -0.278524 -0.000000 -0.960429
vn -0.278524 -0.000000 -0.960429
vn -0.278524 -0.000000 -0.960429
f 694/694/694 695/695/695 696/696/696
v -0.295203 -0.044500 0.777089
v -0.280797 -0.044500 0.772911
v -0.309797 -0.044500 0.672911
vn 0.000000 1.000000 0.000000
vn 0.000000 1.000000 0.000000
vn 0.000000 1.000000 0.000000
f 697/697/697 698/698/698 699/699/699
v -0.295203 -0.044500 0.777089
v -0.309797 -0.044500 0.672911
v -0.324203 -0.044500 0.677089
vn 0.000000 1.000000 0.000000
vn 0.000000 1.000000 0.000000
vn 0.000000 1.000000 0.000000
f 700/700/700 701/701/701 702/702/702
v -0.280797 -0.044500 0.772911
v -0.280797 -0.059500 0.772911
v -0.309797 -0.059500 0.672911
vn 0.960429 0.000000 -0.278524
vn 0.960429 0.000000 -0.278524
vn 0.960429 0.000000 -0.278524
f 703/703/703 704/704/704 705/705/705
v -0.280797 -0.044500 0.772911
v -0.309797 -0.059500 0.672911
v -0.309797 -0.044500 0.672911
vn 0.960429 0.000000 -0.278524
vn 0.960429 0.000000 -0.278524
vn 0.960429 0.000000 -0.278524
f 706/706/706 707/707/707 708/708/708
v -0.280797 -0.059500 0.772911
v -0.295203 -0.059500 0.777089
v -0.324203 -0.059500 0.677089
vn -0.000000 -1.000000 0.000000
vn -0.000000 -1.000000 0.000000
vn -0.000000 -1.000000 0.000000
f 709/709/709 710/710/710 711/711/711
v -0.280797 -0.059500 0.772911
v -0.324203 -0.059500 0.677089
v -0.309797 -0.059500 0.672911
vn 0.000000 -1.000000 0.000000
vn 0.000000 -1.000000 0.000000
vn 0.000000 -1.000000 0.000000
f 712/712/712 713/713/713 714/714/714
v -0.295203 -0.059500 0.777089
v -0.295203 -0.044500 0.777089
v -0.324203 -0.044500 0.677089
vn -0.960429 0.000000 0.278524
vn -0.960429 0.000000 0.278524
vn -0.960429 0.000000 0.278524
f 715/715/715 716/716/716 717/717/717
v -0.295203 -0.059500 0.777089
v -0.324203 -0.044500 0.677089
v -0.324203 -0.059500 0.677089
vn -0.960429 0.000000 0.278524
vn -0.960429 0.000000 0.278524
vn -0.960429 0.000000 0.278524
f 718/718/718 719/719/719 720/720/720
v -0.295203 0.044500 0.777089
v -0.280797 0.044500 0.772911
v -0.280797 0.059500 0.772911
vn 0.278524 0.000000 0.960429
vn 0.278524 0.000000 0.960429
vn 0.278524 0.000000 0.960429
f 721/721/721 722/722/722 723/723/723
v -0.295203 0.044500 0.777089
v -0.280797 0.059500 0.772911
v -0.295203 0.059500 0.777089
vn 0.278524 -0.000000 0.960429
vn 0.278524 -0.000000 0.960429
vn 0.278524 -0.000000 0.960429
f 724/724/724 725/725/725 726/726/726
v -0.324203 0.059500 0.677089
v -0.309797 0.059500 0.672911
v -0.309797 0.044500 0.672911
vn -0.278524 0.000000 -0.960429
vn -0.278524 0.000000 -0.960429
vn -0.278524 0.000000 -0.960429
f 727/727/727 728/728/728 729/729/729
v -0.324203 0.059500 0.677089
v -0.309797 0.044500 0.672911
v -0.324203 0.044500 0.677089
vn -0.278524 -0.000000 -0.960429
vn -0.278524 -0.000000 -0.960429
vn -0.278524 -0.000000 -0.960429
f 730/730/730 731/731/731 732/732/732
v -0.295203 0.059500 0.777089
v -0.280797 0.059500 0.772911
v -0.309797 0.059500 0.672911
vn 0.000000 1.000000 0.000000
vn 0.000000 1.000000 0.000000
vn 0.000000 1.000000 0.000000
f 733/733/733 734/734/734 735/735/735
v -0.295203 0.059500 0.777089
v -0.309797 0.059500 0.672911
v -0.324203 0.059500 0.677089
vn 0.000000 1.000000 0.000000
vn 0.000000 1.000000 0.000000
vn 0.000000 1.000000 0.000000
f 736/736/736 737/737/737 738/738/738
v -0.280797 0.059500 0.772911
v -0.280797 0.044500 0.772911
v -0.309797 0.044500 0.672911
vn 0.960429 0.000000 -0.278524
vn 0.960429 0.000000 -0.278524
vn 0.960429 0.000000 -0.278524
f 739/739/739 740/740/740 741/741/741
v -0.280797 0.059500 0.772911
v -0.309797 0.044500 0.672911
v -0.309797 0.059500 0.672911
vn 0.960429 0.000000 -0.278524
vn 0.960429 0.000000 -0.278524
vn 0.960429 0.000000 -0.278524
f 742/742/742 743/743/743 744/744/744
v -0.280797 0.044500 0.772911
v -0.295203 0.044500 0.777089
v -0.324203 0.044500 0.677089
vn -0.000000 -1.000000 0.000000
vn -0.000000 -1.000000 0.000000
vn -0.000000 -1.000000 0.000000
f 745/745/745 746/746/746 747/747/747
v -0.280797 0.044500 0.772911
v -0.324203 0.044500 0.677089
v -0.309797 0.044500 0.672911
vn 0.000000 -1.000000 0.000000
vn 0.000000 -1.000000 0.000000
vn 0.000000 -1.000000 0.000000
f 748/748/748 749/749/749 750/750/750
v -0.295203 0.044500 0.777089
v -0.295203 0.059500 0.777089
v -0.324203 0.059500 0.677089
vn -0.960429 0.000000 0.278524
vn -0.960429 0.000000 0.278524
vn -0.960429 0.000000 0.278524
f 751/751/751 752/752/752 753/753/753
v -0.295203 0.044500 0.777089
v -0.324203 0.059500 0.677089
v -0.324203 0.044500 0.677089
vn -0.960429 0.000000 0.278524
vn -0.960429 0.000000 0.278524
vn -0.960429 0.000000 0.278524
f 754/754/754 755/755/755 756/756/756
v -0.324500 -0.052000 0.667500
v -0.309500 -0.052000 0.667500
v -0.309500 -0.052000 0.682500
vn 0.000000 -1.000000 0.000000
vn 0.000000 -1.000000 0.000000
vn 0.000000 -1.000000 0.000000
f 757/757/757 758/758/758 759/759/759
v -0.324500 -0.052000 0.667500
v -0.309500 -0.052000 0.682500
v -0.324500 -0.052000 0.682500
vn 0.000000 -1.000000 0.000000
vn 0.000000 -1.000000 0.000000
vn 0.000000 -1.000000 0.000000
f 760/760/760 761/761/761 762/762/762
v -0.324500 0.052000 0.682500
v -0.309500 0.052000 0.682500
v -0.309500 0.052000 0.667500
vn -0.000000 1.000000 0.000000
vn -0.000000 1.000000 0.000000
vn -0.000000 1.000000 0.000000
f 763/763/763 764/764/764 765/765/765
v -0.324500 0.052000 0.682500
v -0.309500 0.052000 0.667500
v -0.324500 0.052000 0.667500
vn 0.000000 1.000000 0.000000
vn 0.000000 1.000000 0.000000
vn 0.000000 1.000000 0.000000
f 766/766/766 767/767/767 768/768/768
v -0.324500 -0.052000 0.682500
v -0.309500 -0.052000 0.682500
v -0.309500 0.052000 0.682500
vn 0.000000 0.000000 1.000000
vn 0.000000 0.000000 1.000000
vn 0.000000 0.000000 1.000000
f 769/769/769 770/770/770 771/771/771
v -0.324500 -0.052000 0.682500
v -0.309500 0.052000 0.682500
v -0.324500 0.052000 0.682500
vn 0.000000 0.000000 1.000000
vn 0.000000 0.000000 1.000000
vn 0.000000 0.000000 1.000000
f 772/772/772 773/773/773 774/774/774
v -0.309500 -0.052000 0.682500
v -0.309500 -0.052000 0.667500
v -0.309500 0.052000 0.667500
vn 1.000000 0.000000 0.000000
vn 1.000000 0.000000 0.000000
vn 1.000000 0.000000 0.000000
f 775/775/775 776/776/776 777/777/777
v -0.309500 -0.052000 0.682500
v -0.309500 0.052000 0.667500
v -0.309500 0.052000 0.682500
vn 1.000000 -0.000000 0.000000
vn 1.000000 -0.000000 0.000000
vn 1.000000 -0.000000 0.000000
f 778/778/778 779/779/779 780/780/780
v -0.309500 -0.052000 0.667500
v -0.324500 -0.052000 0.667500
v -0.324500 0.052000 0.667500
vn 0.000000 0.000000 -1.000000
vn 0.000000 0.000000 -1.000000
vn 0.000000 0.000000 -1.000000
f 781/781/781 782/782/782 783/783/783
v -0.309500 -0.052000 0.667500
v -0.324500 0.052000 0.667500
v -0.309500 0.052000 0.667500
vn 0.000000 0.000000 -1.000000
vn 0.000000 0.000000 -1.000000
vn 0.000000 0.000000 -1.000000
f 784/784/784 785/785/785 786/786/786
v -0.324500 -0.052000 0.667500
v -0.324500 -0.052000 0.682500
v -0.324500 0.052000 0.682500
vn -1.000000 0.000000 0.000000
vn -1.000000 0.000000 0.000000
vn -1.000000 0.000000 0.000000
f 787/787/787 788/788/788 789/789/789
v -0.324500 -0.052000 0.667500
v -0.324500 0.052000 0.682500
v -0.324500 0.052000 0.667500
vn -1.000000 0.000000 0.000000
vn -1.000000 0.000000 0.000000
vn -1.000000 0.000000 0.000000
f 790/790/790 791/791/791 792/792/792
v 0.280797 -0.059500 0.772911
v 0.295203 -0.059500 0.777089
v 0.295203 -0.044500 0.777089
vn -0.278524 0.000000 0.960429
vn -0.278524 0.000000 0.960429
vn -0.278524 0.000000 0.960429
f 793/793/793 794/794/794 795/795/795
v 0.280797 -0.059500 0.772911
v 0.295203 -0.044500 0.777089
v 0.280797 -0.044500 0.772911
vn -0.278524 0.000000 0.960429
vn -0.278524 0.000000 0.960429
vn -0.278524 0.000000 0.960429
f 796/796/796 797/797/797 798/798/798
v 0.309797 -0.044500 0.672911
v 0.324203 -0.044500 0.677089
v 0.324203 -0.059500 0.677089
vn 0.278524 0.000000 -0.960429
vn 0.278524 0.000000 -0.960429
vn 0.278524 0.000000 -0.960429
f 799/799/799 800/800/800 801/801/801
v 0.309797 -0.044500 0.672911
v 0.324203 -0.059500 0.677089
v 0.309797 -0.059500 0.672911
vn 0.278524 0.000000 -0.960429
vn 0.278524 0.000000 -0.960429
vn 0.278524 0.000000 -0.960429
f 802/802/802 803/803/803 804/804/804
v 0.280797 -0.044500 0.772911
v 0.295203 -0.044500 0.777089
v 0.324203 -0.044500 0.677089
vn -0.000000 1.000000 0.000000
vn -0.000000 1.000000 0.000000
vn -0.000000 1.000000 0.000000
f 805/805/805 806/806/806 807/807/807
v 0.280797 -0.044500 0.772911
v 0.324203 -0.044500 0.677089
v 0.309797 -0.044500 0.672911
vn 0.000000 1.000000 0.000000
vn 0.000000 1.000000 0.000000
vn 0.000000 1.000000 0.000000
f 808/808/808 809/809/809 810/810/810
v 0.295203 -0.044500 0.777089
v 0.295203 -0.059500 0.777089
v 0.324203 -0.059500 0.677089
vn 0.960429 0.000000 0.278524
vn 0.960429 0.000000 0.278524
vn 0.960429 0.000000 0.278524
f 811/811/811 812/812/812 813/813/813
v 0.295203 -0.044500 0.777089
v 0.324203 -0.059500 0.677089
v 0.324203 -0.044500 0.677089
vn 0.960429 0.000000 0.278524
vn 0.960429 0.000000 0.278524
vn 0.960429 0.000000 0.278524
f 814/814/814 815/815/815 816/816/816
v 0.295203 -0.059500 0.777089
v 0.280797 -0.059500 0.772911
v 0.309797 -0.059500 0.672911
vn 0.000000 -1.000000 -0.000000
vn 0.000000 -1.000000 -0.000000
vn 0.000000 -1.000000 -0.000000
f 817/817/817 818/818/818 819/819/819
v 0.295203 -0.059500 0.777089
v 0.309797 -0.059500 0.672911
v 0.324203 -0.059500 0.677089
vn 0.000000 -1.000000 0.000000
vn 0.000000 -1.000000 0.000000
vn 0.000000 -1.000000 0.000000
f 820/820/820 821/821/821 822/822/822
v 0.280797 -0.059500 0.772911
v 0.280797 -0.044500 0.772911
v 0.309797 -0.044500 0.672911
vn -0.960429 0.000000 -0.278524
vn -0.960429 0.000000 -0.278524
vn -0.960429 0.000000 -0.278524
f 823/823/823 824/824/824 825/825/825
v 0.280797 -0.059500 0.772911
v 0.309797 -0.044500 0.672911
v 0.309797 -0.059500 0.672911
vn -0.960429 0.000000 -0.278524
vn -0.960429 0.000000 -0.278524
vn -0.960429 0.000000 -0.278524
f 826/826/826 827/827/827 828/828/828
v 0.280797 0.044500 0.772911
v 0.295203 0.044500 0.777089
v 0.295203 0.059500 0.777089
vn -0.278524 0.000000 0.960429
vn -0.278524 0.000000 0.960429
vn -0.278524 0.000000 0.960429
f 829/829/829 830/830/830 831/831/831
v 0.280797 0.044500 0.772911
v 0.295203 0.059500 0.777089
v 0.280797 0.059500 0.772911
vn -0.278524 0.000000 0.960429
vn -0.278524 0.000000 0.960429
vn -0.278524 0.000000 0.960429
f 832/832/832 833/833/833 834/834/834
v 0.309797 0.059500 0.672911
v 0.324203 0.059500 0.677089
v 0.324203 0.044500 0.677089
vn 0.278524 0.000000 -0.960429
vn 0.278524 0.000000 -0.960429
vn 0.278524 0.000000 -0.960429
f 835/835/835 836/836/836 837/837/837
v 0.309797 0.059500 0.672911
v 0.324203 0.044500 0.677089
v 0.309797 0.044500 0.672911
vn 0.278524 0.000000 -0.960429
vn 0.278524 0.000000 -0.960429
vn 0.278524 0.000000 -0.960429
f 838/838/838 839/839/839 840/840/840
v 0.280797 0.059500 0.772911
v 0.295203 0.059500 0.777089
v 0.324203 0.059500 0.677089
vn -0.000000 1.000000 0.000000
vn -0.000000 1.000000 0.000000
vn -0.000000 1.000000 0.000000
f 841/841/841 842/842/842 843/843/843
v 0.280797 0.059500 0.772911
v 0.324203 0.059500 0.677089
v 0.309797 0.059500 0.672911
vn 0.000000 1.000000 0.000000
vn 0.000000 1.000000 0.000000
vn 0.000000 1.000000 0.000000
f 844/844/844 845/845/845 846/846/846
v 0.295203 0.059500 0.777089
v 0.295203 0.044500 0.777089
v 0.324203 0.044500 0.677089
vn 0.960429 0.000000 0.278524
vn 0.960429 0.000000 0.278524
vn 0.960429 0.000000 0.278524
f 847/847/847 848/848/848 849/849/849
v 0.295203 0.059500 0.777089
v 0.324203 0.044500 0.677089
v 0.324203 0.059500 0.677089
vn 0.960429 0.000000 0.278524
vn 0.960429 0.000000 0.278524
vn 0.960429 0.000000 0.278524
f 850/850/850 851/851/851 852/852/852
v 0.295203 0.044500 0.777089
v 0.280797 0.044500 0.772911
v 0.309797 0.044500 0.672911
vn 0.000000 -1.000000 -0.000000
vn 0.000000 -1.000000 -0.000000
vn 0.000000 -1.000000 -0.000000
f 853/853/853 854/854/854 855/855/855
v 0.295203 0.044500 0.777089
v 0.309797 0.044500 0.672911
v 0.324203 0.044500 0.677089
vn 0.000000 -1.000000 0.000000
vn 0.000000 -1.000000 0.000000
vn 0.000000 -1.000000 0.000000
f 856/856/856 857/857/857 858/858/858
v 0.280797 0.044500 0.772911
v 0.280797 0.059500 0.772911
v 0.309797 0.059500 0.672911
vn -0.960429 0.000000 -0.278524
vn -0.960429 0.000000 -0.278524
vn -0.960429 0.000000 -0.278524
f 859/859/859 860/860/860 861/861/861
v 0.280797 0.044500 0.772911
v 0.309797 0.059500 0.672911
v 0.309797 0.044500 0.672911
vn -0.960429 0.000000 -0.278524
vn -0.960429 0.000000 -0.278524
vn -0.960429 0.000000 -0.278524
f 862/862/862 863/863/863 864/864/864
v 0.309500 -0.052000 0.667500
v 0.324500 -0.052000 0.667500
v 0.324500 -0.052000 0.682500
vn 0.000000 -1.000000 0.000000
vn 0.000000 -1.000000 0.000000
vn 0.000000 -1.000000 0.000000
f 865/865/865 866/866/866 867/867/867
v 0.309500 -0.052000 0.667500
v 0.324500 -0.052000 0.682500
v 0.309500 -0.052000 0.682500
vn 0.000000 -1.000000 0.000000
vn 0.000000 -1.000000 0.000000
vn 0.000000 -1.000000 0.000000
f 868/868/868 869/869/869 870/870/870
v 0.309500 0.052000 0.682500
v 0.324500 0.052000 0.682500
v 0.324500 0.052000 0.667500
vn -0.000000 1.000000 0.000000
vn -0.000000 1.000000 0.000000
vn -0.000000 1.000000 0.000000
f 871/871/871 872/872/872 873/873/873
v 0.309500 0.052000 0.682500
v 0.324500 0.052000 0.667500
v 0.309500 0.052000 0.667500
vn 0.000000 1.000000 0.000000
vn 0.000000 1.000000 0.000000
vn 0.000000 1.000000 0.000000
f 874/874/874 875/875/875 876/876/876
v 0.309500 -0.052000 0.682500
v 0.324500 -0.052000 0.682500
v 0.324500 0.052000 0.682500
vn 0.000000 0.000000 1.000000
vn 0.000000 0.000000 1.000000
vn 0.000000 0.000000 1.000000
f 877/877/877 878/878/878 879/879/879
v 0.309500 -0.052000 0.682500
v 0.324500 0.052000 0.682500
v 0.309500 0.052000 0.682500
vn 0.000000 0.000000 1.000000
vn 0.000000 0.000000 1.000000
vn 0.000000 0.000000 1.000000
f 880/880/880 881/881/881 882/882/882
v 0.324500 -0.052000 0.682500
v 0.324500 -0.052000 0.667500
v 0.324500 0.052000 0.667500
vn 1.000000 0.000000 0.000000
vn 1.000000 0.000000 0.000000
vn 1.000000 0.000000 0.000000
f 883/883/883 884/884/884 885/885/885
v 0.324500 -0.052000 0.682500
v 0.324500 0.052000 0.667500
v 0.324500 0.052000 0.682500
vn 1.000000 -0.000000 0.000000
vn 1.000000 -0.000000 0.000000
vn 1.000000 -0.000000 0.000000
f 886/886/886 887/887/887 888/888/888
v 0.324500 -0.052000 0.667500
v 0.309500 -0.052000 0.667500
v 0.309500 0.052000 0.667500
vn 0.000000 0.000000 -1.000000
vn 0.000000 0.000000 -1.000000
vn 0.000000 0.000000 -1.000000
f 889/889/889 890/890/890 891/891/891
v 0.324500 -0.052000 0.667500
v 0.309500 0.052000 0.667500
v 0.324500 0.052000 0.667500
vn 0.000000 0.000000 -1.000000
vn 0.000000 0.000000 -1.000000
vn 0.000000 0.000000 -1.000000
f 892/892/892 893/893/893 894/894/894
v 0.309500 -0.052000 0.667500
v 0.309500 -0.052000 0.682500
v 0.309500 0.052000 0.682500
vn -1.000000 0.000000 0.000000
vn -1.000000 0.000000 0.000000
vn -1.000000 0.000000 0.000000
f 895/895/895 896/896/896 897/897/897
v 0.309500 -0.052000 0.667500
v 0.309500 0.052000 0.682500
v 0.309500 0.052000 0.667500
vn -1.000000 0.000000 0.000000
vn -1.000000 0.000000 0.000000
vn -1.000000 0.000000 0.000000
f 898/898/898 899/899/899 900/900/900
