# Physical vanilla furniture; Z up; per-tile mesh.
# Tile-local game axes; ObjReader performs the scene conversion.
mtllib ../Materials/pz_barricade_1.mtl
usemtl UV_Base
v -0.5000000 -0.4990000 0.6379000
vn 0.00000000 0.00000000 -1.00000000
v -0.5000000 -0.4700000 0.6379000
vn 0.00000000 0.00000000 -1.00000000
v 0.5000000 -0.4700000 0.6379000
vn 0.00000000 0.00000000 -1.00000000
vt 0.007812500 0.575421875
vt 0.007812500 0.546875000
vt 0.992187500 0.546875000
vt 0.007812500 0.575421875
vt 0.992187500 0.546875000
vt 0.992187500 0.575421875
vt 0.007812500 0.007812500
vt 0.992187500 0.007812500
vt 0.992187500 0.258985625
vt 0.007812500 0.007812500
vt 0.992187500 0.258985625
vt 0.007812500 0.258985625
vt 0.261718750 0.640625000
vt 0.261718750 0.669171875
vt 0.010545625 0.669171875
vt 0.261718750 0.640625000
vt 0.010545625 0.669171875
vt 0.010545625 0.640625000
vt 0.992187500 0.528516875
vt 0.007812500 0.528516875
vt 0.007812500 0.277343750
vt 0.992187500 0.528516875
vt 0.007812500 0.277343750
vt 0.992187500 0.277343750
vt 0.280076875 0.669171875
vt 0.280076875 0.640625000
vt 0.531250000 0.640625000
vt 0.280076875 0.669171875
vt 0.531250000 0.640625000
vt 0.531250000 0.669171875
vt 0.007812500 0.593750000
vt 0.992187500 0.593750000
vt 0.992187500 0.622296875
vt 0.007812500 0.593750000
vt 0.992187500 0.622296875
vt 0.007812500 0.622296875
f 1/1/1 2/2/2 3/3/3
v -0.5000000 -0.4990000 0.6379000
vn 0.00000000 0.00000000 -1.00000000
v 0.5000000 -0.4700000 0.6379000
vn 0.00000000 0.00000000 -1.00000000
v 0.5000000 -0.4990000 0.6379000
vn 0.00000000 0.00000000 -1.00000000
f 4/4/4 5/5/5 6/6/6
v -0.5000000 -0.4990000 0.6379000
vn 0.00000000 -1.00000000 0.00000000
v 0.5000000 -0.4990000 0.6379000
vn 0.00000000 -1.00000000 0.00000000
v 0.5000000 -0.4990000 0.8930600
vn 0.00000000 -1.00000000 0.00000000
f 7/7/7 8/8/8 9/9/9
v -0.5000000 -0.4990000 0.6379000
vn 0.00000000 -1.00000000 0.00000000
v 0.5000000 -0.4990000 0.8930600
vn 0.00000000 -1.00000000 0.00000000
v -0.5000000 -0.4990000 0.8930600
vn 0.00000000 -1.00000000 0.00000000
f 10/10/10 11/11/11 12/12/12
v 0.5000000 -0.4990000 0.6379000
vn 1.00000000 0.00000000 0.00000000
v 0.5000000 -0.4700000 0.6379000
vn 1.00000000 0.00000000 0.00000000
v 0.5000000 -0.4700000 0.8930600
vn 1.00000000 0.00000000 0.00000000
f 13/13/13 14/14/14 15/15/15
v 0.5000000 -0.4990000 0.6379000
vn 1.00000000 0.00000000 0.00000000
v 0.5000000 -0.4700000 0.8930600
vn 1.00000000 0.00000000 0.00000000
v 0.5000000 -0.4990000 0.8930600
vn 1.00000000 0.00000000 0.00000000
f 16/16/16 17/17/17 18/18/18
v 0.5000000 -0.4700000 0.6379000
vn 0.00000000 1.00000000 0.00000000
v -0.5000000 -0.4700000 0.6379000
vn 0.00000000 1.00000000 0.00000000
v -0.5000000 -0.4700000 0.8930600
vn 0.00000000 1.00000000 0.00000000
f 19/19/19 20/20/20 21/21/21
v 0.5000000 -0.4700000 0.6379000
vn 0.00000000 1.00000000 -0.00000000
v -0.5000000 -0.4700000 0.8930600
vn 0.00000000 1.00000000 -0.00000000
v 0.5000000 -0.4700000 0.8930600
vn 0.00000000 1.00000000 -0.00000000
f 22/22/22 23/23/23 24/24/24
v -0.5000000 -0.4700000 0.6379000
vn -1.00000000 0.00000000 0.00000000
v -0.5000000 -0.4990000 0.6379000
vn -1.00000000 0.00000000 0.00000000
v -0.5000000 -0.4990000 0.8930600
vn -1.00000000 0.00000000 0.00000000
f 25/25/25 26/26/26 27/27/27
v -0.5000000 -0.4700000 0.6379000
vn -1.00000000 0.00000000 0.00000000
v -0.5000000 -0.4990000 0.8930600
vn -1.00000000 0.00000000 0.00000000
v -0.5000000 -0.4700000 0.8930600
vn -1.00000000 0.00000000 0.00000000
f 28/28/28 29/29/29 30/30/30
v -0.5000000 -0.4990000 0.8930600
vn 0.00000000 0.00000000 1.00000000
v 0.5000000 -0.4990000 0.8930600
vn 0.00000000 0.00000000 1.00000000
v 0.5000000 -0.4700000 0.8930600
vn 0.00000000 0.00000000 1.00000000
f 31/31/31 32/32/32 33/33/33
v -0.5000000 -0.4990000 0.8930600
vn 0.00000000 0.00000000 1.00000000
v 0.5000000 -0.4700000 0.8930600
vn 0.00000000 0.00000000 1.00000000
v -0.5000000 -0.4700000 0.8930600
vn 0.00000000 0.00000000 1.00000000
f 34/34/34 35/35/35 36/36/36
