# Physical vanilla furniture; Z up; per-tile mesh.
# Tile-local game axes; ObjReader performs the scene conversion.
mtllib ../Materials/pz_benche_seating_indoor_02_long_wooden_0_0.mtl
usemtl UV_Base
v -0.4750000 -0.2800000 0.3687720
vn 0.00000000 0.00000000 -1.00000000
v -0.4750000 0.2800000 0.3687720
vn 0.00000000 0.00000000 -1.00000000
v 0.5000000 0.2800000 0.3687720
vn 0.00000000 0.00000000 -1.00000000
vt 0.007812500 0.394529372
vt 0.007812500 0.007812500
vt 0.681114197 0.007812500
vt 0.007812500 0.394529372
vt 0.681114197 0.007812500
vt 0.681114197 0.394529372
vt 0.007812500 0.812500000
vt 0.681114197 0.812500000
vt 0.681114197 0.857386780
vt 0.007812500 0.812500000
vt 0.681114197 0.857386780
vt 0.007812500 0.857386780
vt 0.681114197 0.919886780
vt 0.007812500 0.919886780
vt 0.007812500 0.875000000
vt 0.681114197 0.919886780
vt 0.007812500 0.875000000
vt 0.681114197 0.875000000
vt 0.701206970 0.394529372
vt 0.701206970 0.007812500
vt 0.746093750 0.007812500
vt 0.701206970 0.394529372
vt 0.746093750 0.007812500
vt 0.746093750 0.394529372
vt 0.007812500 0.410156250
vt 0.681114197 0.410156250
vt 0.681114197 0.796873122
vt 0.007812500 0.410156250
vt 0.681114197 0.796873122
vt 0.007812500 0.796873122
vt 0.304687500 0.985839609
vt 0.304687500 0.937500000
vt 0.353027109 0.937500000
vt 0.304687500 0.985839609
vt 0.353027109 0.937500000
vt 0.353027109 0.985839609
vt 0.761718750 0.007812500
vt 0.810058359 0.007812500
vt 0.810058359 0.286643651
vt 0.761718750 0.007812500
vt 0.810058359 0.286643651
vt 0.761718750 0.286643651
vt 0.828125000 0.007812500
vt 0.876464609 0.007812500
vt 0.876464609 0.286643651
vt 0.828125000 0.007812500
vt 0.876464609 0.286643651
vt 0.828125000 0.286643651
vt 0.942870859 0.286643651
vt 0.894531250 0.286643651
vt 0.894531250 0.007812500
vt 0.942870859 0.286643651
vt 0.894531250 0.007812500
vt 0.942870859 0.007812500
vt 0.747558359 0.688987401
vt 0.699218750 0.688987401
vt 0.699218750 0.410156250
vt 0.747558359 0.688987401
vt 0.699218750 0.410156250
vt 0.747558359 0.410156250
vt 0.371093750 0.937500000
vt 0.419433359 0.937500000
vt 0.419433359 0.985839609
vt 0.371093750 0.937500000
vt 0.419433359 0.985839609
vt 0.371093750 0.985839609
vt 0.437500000 0.985839609
vt 0.437500000 0.937500000
vt 0.485839609 0.937500000
vt 0.437500000 0.985839609
vt 0.485839609 0.937500000
vt 0.485839609 0.985839609
vt 0.765625000 0.410156250
vt 0.813964609 0.410156250
vt 0.813964609 0.688987401
vt 0.765625000 0.410156250
vt 0.813964609 0.688987401
vt 0.765625000 0.688987401
vt 0.832031250 0.410156250
vt 0.880370859 0.410156250
vt 0.880370859 0.688987401
vt 0.832031250 0.410156250
vt 0.880370859 0.688987401
vt 0.832031250 0.688987401
vt 0.946777109 0.688987401
vt 0.898437500 0.688987401
vt 0.898437500 0.410156250
vt 0.946777109 0.688987401
vt 0.898437500 0.410156250
vt 0.946777109 0.410156250
vt 0.010231349 0.985839609
vt 0.010231349 0.937500000
vt 0.289062500 0.937500000
vt 0.010231349 0.985839609
vt 0.289062500 0.937500000
vt 0.289062500 0.985839609
vt 0.503906250 0.937500000
vt 0.552245859 0.937500000
vt 0.552245859 0.985839609
vt 0.503906250 0.937500000
vt 0.552245859 0.985839609
vt 0.503906250 0.985839609
f 1/1/1 2/2/2 3/3/3
v -0.4750000 -0.2800000 0.3687720
vn 0.00000000 0.00000000 -1.00000000
v 0.5000000 0.2800000 0.3687720
vn 0.00000000 0.00000000 -1.00000000
v 0.5000000 -0.2800000 0.3687720
vn 0.00000000 0.00000000 -1.00000000
f 4/4/4 5/5/5 6/6/6
v -0.4750000 -0.2800000 0.3687720
vn 0.00000000 -1.00000000 0.00000000
v 0.5000000 -0.2800000 0.3687720
vn 0.00000000 -1.00000000 0.00000000
v 0.5000000 -0.2800000 0.4337720
vn 0.00000000 -1.00000000 0.00000000
f 7/7/7 8/8/8 9/9/9
v -0.4750000 -0.2800000 0.3687720
vn 0.00000000 -1.00000000 0.00000000
v 0.5000000 -0.2800000 0.4337720
vn 0.00000000 -1.00000000 0.00000000
v -0.4750000 -0.2800000 0.4337720
vn 0.00000000 -1.00000000 0.00000000
f 10/10/10 11/11/11 12/12/12
v 0.5000000 0.2800000 0.3687720
vn 0.00000000 1.00000000 0.00000000
v -0.4750000 0.2800000 0.3687720
vn 0.00000000 1.00000000 0.00000000
v -0.4750000 0.2800000 0.4337720
vn 0.00000000 1.00000000 0.00000000
f 13/13/13 14/14/14 15/15/15
v 0.5000000 0.2800000 0.3687720
vn 0.00000000 1.00000000 -0.00000000
v -0.4750000 0.2800000 0.4337720
vn 0.00000000 1.00000000 -0.00000000
v 0.5000000 0.2800000 0.4337720
vn 0.00000000 1.00000000 -0.00000000
f 16/16/16 17/17/17 18/18/18
v -0.4750000 0.2800000 0.3687720
vn -1.00000000 0.00000000 0.00000000
v -0.4750000 -0.2800000 0.3687720
vn -1.00000000 0.00000000 0.00000000
v -0.4750000 -0.2800000 0.4337720
vn -1.00000000 0.00000000 0.00000000
f 19/19/19 20/20/20 21/21/21
v -0.4750000 0.2800000 0.3687720
vn -1.00000000 0.00000000 0.00000000
v -0.4750000 -0.2800000 0.4337720
vn -1.00000000 0.00000000 0.00000000
v -0.4750000 0.2800000 0.4337720
vn -1.00000000 0.00000000 0.00000000
f 22/22/22 23/23/23 24/24/24
v -0.4750000 -0.2800000 0.4337720
vn 0.00000000 0.00000000 1.00000000
v 0.5000000 -0.2800000 0.4337720
vn 0.00000000 0.00000000 1.00000000
v 0.5000000 0.2800000 0.4337720
vn 0.00000000 0.00000000 1.00000000
f 25/25/25 26/26/26 27/27/27
v -0.4750000 -0.2800000 0.4337720
vn 0.00000000 0.00000000 1.00000000
v 0.5000000 0.2800000 0.4337720
vn 0.00000000 0.00000000 1.00000000
v -0.4750000 0.2800000 0.4337720
vn 0.00000000 0.00000000 1.00000000
f 28/28/28 29/29/29 30/30/30
v -0.3850000 -0.2550000 0.0000000
vn 0.00000000 0.00000000 -1.00000000
v -0.3850000 -0.1850000 0.0000000
vn 0.00000000 0.00000000 -1.00000000
v -0.3150000 -0.1850000 0.0000000
vn 0.00000000 0.00000000 -1.00000000
f 31/31/31 32/32/32 33/33/33
v -0.3850000 -0.2550000 0.0000000
vn 0.00000000 0.00000000 -1.00000000
v -0.3150000 -0.1850000 0.0000000
vn 0.00000000 0.00000000 -1.00000000
v -0.3150000 -0.2550000 0.0000000
vn 0.00000000 0.00000000 -1.00000000
f 34/34/34 35/35/35 36/36/36
v -0.3850000 -0.2550000 0.0000000
vn 0.00000000 -1.00000000 0.00000000
v -0.3150000 -0.2550000 0.0000000
vn 0.00000000 -1.00000000 0.00000000
v -0.3150000 -0.2550000 0.4037720
vn 0.00000000 -1.00000000 0.00000000
f 37/37/37 38/38/38 39/39/39
v -0.3850000 -0.2550000 0.0000000
vn 0.00000000 -1.00000000 0.00000000
v -0.3150000 -0.2550000 0.4037720
vn 0.00000000 -1.00000000 0.00000000
v -0.3850000 -0.2550000 0.4037720
vn 0.00000000 -1.00000000 0.00000000
f 40/40/40 41/41/41 42/42/42
v -0.3150000 -0.2550000 0.0000000
vn 1.00000000 0.00000000 0.00000000
v -0.3150000 -0.1850000 0.0000000
vn 1.00000000 0.00000000 0.00000000
v -0.3150000 -0.1850000 0.4037720
vn 1.00000000 0.00000000 0.00000000
f 43/43/43 44/44/44 45/45/45
v -0.3150000 -0.2550000 0.0000000
vn 1.00000000 0.00000000 0.00000000
v -0.3150000 -0.1850000 0.4037720
vn 1.00000000 0.00000000 0.00000000
v -0.3150000 -0.2550000 0.4037720
vn 1.00000000 0.00000000 0.00000000
f 46/46/46 47/47/47 48/48/48
v -0.3150000 -0.1850000 0.0000000
vn 0.00000000 1.00000000 0.00000000
v -0.3850000 -0.1850000 0.0000000
vn 0.00000000 1.00000000 0.00000000
v -0.3850000 -0.1850000 0.4037720
vn 0.00000000 1.00000000 0.00000000
f 49/49/49 50/50/50 51/51/51
v -0.3150000 -0.1850000 0.0000000
vn 0.00000000 1.00000000 -0.00000000
v -0.3850000 -0.1850000 0.4037720
vn 0.00000000 1.00000000 -0.00000000
v -0.3150000 -0.1850000 0.4037720
vn 0.00000000 1.00000000 -0.00000000
f 52/52/52 53/53/53 54/54/54
v -0.3850000 -0.1850000 0.0000000
vn -1.00000000 0.00000000 0.00000000
v -0.3850000 -0.2550000 0.0000000
vn -1.00000000 0.00000000 0.00000000
v -0.3850000 -0.2550000 0.4037720
vn -1.00000000 0.00000000 0.00000000
f 55/55/55 56/56/56 57/57/57
v -0.3850000 -0.1850000 0.0000000
vn -1.00000000 0.00000000 0.00000000
v -0.3850000 -0.2550000 0.4037720
vn -1.00000000 0.00000000 0.00000000
v -0.3850000 -0.1850000 0.4037720
vn -1.00000000 0.00000000 0.00000000
f 58/58/58 59/59/59 60/60/60
v -0.3850000 -0.2550000 0.4037720
vn 0.00000000 0.00000000 1.00000000
v -0.3150000 -0.2550000 0.4037720
vn 0.00000000 0.00000000 1.00000000
v -0.3150000 -0.1850000 0.4037720
vn 0.00000000 0.00000000 1.00000000
f 61/61/61 62/62/62 63/63/63
v -0.3850000 -0.2550000 0.4037720
vn 0.00000000 0.00000000 1.00000000
v -0.3150000 -0.1850000 0.4037720
vn 0.00000000 0.00000000 1.00000000
v -0.3850000 -0.1850000 0.4037720
vn 0.00000000 0.00000000 1.00000000
f 64/64/64 65/65/65 66/66/66
v -0.3850000 0.1850000 0.0000000
vn 0.00000000 0.00000000 -1.00000000
v -0.3850000 0.2550000 0.0000000
vn 0.00000000 0.00000000 -1.00000000
v -0.3150000 0.2550000 0.0000000
vn 0.00000000 0.00000000 -1.00000000
f 67/67/67 68/68/68 69/69/69
v -0.3850000 0.1850000 0.0000000
vn 0.00000000 0.00000000 -1.00000000
v -0.3150000 0.2550000 0.0000000
vn 0.00000000 0.00000000 -1.00000000
v -0.3150000 0.1850000 0.0000000
vn 0.00000000 0.00000000 -1.00000000
f 70/70/70 71/71/71 72/72/72
v -0.3850000 0.1850000 0.0000000
vn 0.00000000 -1.00000000 0.00000000
v -0.3150000 0.1850000 0.0000000
vn 0.00000000 -1.00000000 0.00000000
v -0.3150000 0.1850000 0.4037720
vn 0.00000000 -1.00000000 0.00000000
f 73/73/73 74/74/74 75/75/75
v -0.3850000 0.1850000 0.0000000
vn 0.00000000 -1.00000000 0.00000000
v -0.3150000 0.1850000 0.4037720
vn 0.00000000 -1.00000000 0.00000000
v -0.3850000 0.1850000 0.4037720
vn 0.00000000 -1.00000000 0.00000000
f 76/76/76 77/77/77 78/78/78
v -0.3150000 0.1850000 0.0000000
vn 1.00000000 0.00000000 0.00000000
v -0.3150000 0.2550000 0.0000000
vn 1.00000000 0.00000000 0.00000000
v -0.3150000 0.2550000 0.4037720
vn 1.00000000 0.00000000 0.00000000
f 79/79/79 80/80/80 81/81/81
v -0.3150000 0.1850000 0.0000000
vn 1.00000000 0.00000000 0.00000000
v -0.3150000 0.2550000 0.4037720
vn 1.00000000 0.00000000 0.00000000
v -0.3150000 0.1850000 0.4037720
vn 1.00000000 0.00000000 0.00000000
f 82/82/82 83/83/83 84/84/84
v -0.3150000 0.2550000 0.0000000
vn 0.00000000 1.00000000 0.00000000
v -0.3850000 0.2550000 0.0000000
vn 0.00000000 1.00000000 0.00000000
v -0.3850000 0.2550000 0.4037720
vn 0.00000000 1.00000000 0.00000000
f 85/85/85 86/86/86 87/87/87
v -0.3150000 0.2550000 0.0000000
vn 0.00000000 1.00000000 -0.00000000
v -0.3850000 0.2550000 0.4037720
vn 0.00000000 1.00000000 -0.00000000
v -0.3150000 0.2550000 0.4037720
vn 0.00000000 1.00000000 -0.00000000
f 88/88/88 89/89/89 90/90/90
v -0.3850000 0.2550000 0.0000000
vn -1.00000000 0.00000000 0.00000000
v -0.3850000 0.1850000 0.0000000
vn -1.00000000 0.00000000 0.00000000
v -0.3850000 0.1850000 0.4037720
vn -1.00000000 0.00000000 0.00000000
f 91/91/91 92/92/92 93/93/93
v -0.3850000 0.2550000 0.0000000
vn -1.00000000 0.00000000 0.00000000
v -0.3850000 0.1850000 0.4037720
vn -1.00000000 0.00000000 0.00000000
v -0.3850000 0.2550000 0.4037720
vn -1.00000000 0.00000000 0.00000000
f 94/94/94 95/95/95 96/96/96
v -0.3850000 0.1850000 0.4037720
vn 0.00000000 0.00000000 1.00000000
v -0.3150000 0.1850000 0.4037720
vn 0.00000000 0.00000000 1.00000000
v -0.3150000 0.2550000 0.4037720
vn 0.00000000 0.00000000 1.00000000
f 97/97/97 98/98/98 99/99/99
v -0.3850000 0.1850000 0.4037720
vn 0.00000000 0.00000000 1.00000000
v -0.3150000 0.2550000 0.4037720
vn 0.00000000 0.00000000 1.00000000
v -0.3850000 0.2550000 0.4037720
vn 0.00000000 0.00000000 1.00000000
f 100/100/100 101/101/101 102/102/102
