# Physical vanilla furniture; Z up; per-tile mesh.
# Tile-local game axes; ObjReader performs the scene conversion.
mtllib ../Materials/pz_bed_bedding_01_stretcher_0_0.mtl
usemtl UV_Base
v -0.4550000 -0.3650000 0.5068680
vn 0.00000000 0.00000000 -1.00000000
v -0.4550000 0.5000000 0.5068680
vn 0.00000000 0.00000000 -1.00000000
v 0.4550000 0.5000000 0.5068680
vn 0.00000000 0.00000000 -1.00000000
vt 0.007812500 0.508664395
vt 0.007812500 0.203125000
vt 0.329247008 0.203125000
vt 0.007812500 0.508664395
vt 0.329247008 0.203125000
vt 0.329247008 0.508664395
vt 0.007812500 0.508664395
vt 0.329247008 0.508664395
vt 0.316884142 0.521027261
vt 0.007812500 0.508664395
vt 0.316884142 0.521027261
vt 0.020175366 0.521027261
vt 0.362803358 0.203125000
vt 0.659512134 0.203125000
vt 0.671875000 0.215487866
vt 0.362803358 0.203125000
vt 0.671875000 0.215487866
vt 0.671875000 0.521027261
vt 0.362803358 0.203125000
vt 0.671875000 0.521027261
vt 0.350440492 0.521027261
vt 0.362803358 0.203125000
vt 0.350440492 0.521027261
vt 0.350440492 0.215487866
vt 0.007812500 0.539062500
vt 0.304521277 0.539062500
vt 0.304521277 0.567320479
vt 0.007812500 0.539062500
vt 0.304521277 0.567320479
vt 0.007812500 0.567320479
vt 0.974703768 0.585937500
vt 0.992187500 0.585937500
vt 0.992187500 0.614195479
vt 0.974703768 0.585937500
vt 0.992187500 0.614195479
vt 0.974703768 0.614195479
vt 0.914062500 0.203125000
vt 0.914062500 0.508664395
vt 0.885804521 0.508664395
vt 0.914062500 0.203125000
vt 0.885804521 0.508664395
vt 0.885804521 0.203125000
vt 0.932679521 0.508664395
vt 0.932679521 0.203125000
vt 0.960937500 0.203125000
vt 0.932679521 0.508664395
vt 0.960937500 0.203125000
vt 0.960937500 0.508664395
vt 0.638766268 0.792968750
vt 0.656250000 0.792968750
vt 0.656250000 0.821226729
vt 0.638766268 0.792968750
vt 0.656250000 0.821226729
vt 0.638766268 0.821226729
vt 0.007812500 0.117187500
vt 0.339843750 0.117187500
vt 0.339843750 0.141913231
vt 0.007812500 0.117187500
vt 0.339843750 0.141913231
vt 0.007812500 0.141913231
vt 0.960937500 0.539062500
vt 0.960937500 0.563788231
vt 0.925615027 0.563788231
vt 0.960937500 0.539062500
vt 0.925615027 0.563788231
vt 0.925615027 0.539062500
vt 0.007812500 0.007812500
vt 0.339843750 0.007812500
vt 0.339843750 0.043134973
vt 0.007812500 0.007812500
vt 0.339843750 0.043134973
vt 0.007812500 0.043134973
vt 0.687500000 0.043134973
vt 0.355468750 0.043134973
vt 0.355468750 0.007812500
vt 0.687500000 0.043134973
vt 0.355468750 0.007812500
vt 0.687500000 0.007812500
vt 0.687500000 0.117187500
vt 0.687500000 0.141913231
vt 0.355468750 0.141913231
vt 0.687500000 0.117187500
vt 0.355468750 0.141913231
vt 0.355468750 0.117187500
vt 0.007812500 0.160156250
vt 0.339843750 0.160156250
vt 0.339843750 0.184881981
vt 0.007812500 0.160156250
vt 0.339843750 0.184881981
vt 0.007812500 0.184881981
vt 0.886718750 0.585937500
vt 0.911444481 0.585937500
vt 0.911444481 0.621259973
vt 0.886718750 0.585937500
vt 0.911444481 0.621259973
vt 0.886718750 0.621259973
vt 0.007812500 0.062500000
vt 0.339843750 0.062500000
vt 0.339843750 0.097822473
vt 0.007812500 0.062500000
vt 0.339843750 0.097822473
vt 0.007812500 0.097822473
vt 0.687500000 0.097822473
vt 0.355468750 0.097822473
vt 0.355468750 0.062500000
vt 0.687500000 0.097822473
vt 0.355468750 0.062500000
vt 0.687500000 0.062500000
vt 0.687500000 0.160156250
vt 0.687500000 0.184881981
vt 0.355468750 0.184881981
vt 0.687500000 0.160156250
vt 0.355468750 0.184881981
vt 0.355468750 0.160156250
vt 0.799493019 0.203125000
vt 0.824218750 0.203125000
vt 0.824218750 0.517495013
vt 0.799493019 0.203125000
vt 0.824218750 0.517495013
vt 0.799493019 0.517495013
vt 0.726562500 0.203125000
vt 0.726562500 0.517495013
vt 0.691240027 0.517495013
vt 0.726562500 0.203125000
vt 0.691240027 0.517495013
vt 0.691240027 0.203125000
vt 0.929687500 0.585937500
vt 0.954413231 0.585937500
vt 0.954413231 0.621259973
vt 0.929687500 0.585937500
vt 0.954413231 0.621259973
vt 0.929687500 0.621259973
vt 0.745927527 0.517495013
vt 0.745927527 0.203125000
vt 0.781250000 0.203125000
vt 0.745927527 0.517495013
vt 0.781250000 0.203125000
vt 0.781250000 0.517495013
vt 0.618475731 0.828291223
vt 0.593750000 0.828291223
vt 0.593750000 0.792968750
vt 0.618475731 0.828291223
vt 0.593750000 0.792968750
vt 0.618475731 0.792968750
vt 0.867187500 0.203125000
vt 0.867187500 0.517495013
vt 0.842461769 0.517495013
vt 0.867187500 0.203125000
vt 0.842461769 0.517495013
vt 0.842461769 0.203125000
vt 0.976562500 0.539062500
vt 0.988925366 0.539062500
vt 0.988925366 0.551425336
vt 0.976562500 0.539062500
vt 0.988925366 0.551425336
vt 0.976562500 0.551425336
vt 0.992187500 0.117187500
vt 0.992187500 0.129550366
vt 0.703721618 0.129550366
vt 0.992187500 0.117187500
vt 0.703721618 0.129550366
vt 0.703721618 0.117187500
vt 0.011235167 0.597676995
vt 0.015111243 0.585937500
vt 0.285156250 0.675099936
vt 0.011235167 0.597676995
vt 0.285156250 0.675099936
vt 0.285156250 0.688119269
vt 0.321084774 0.551425366
vt 0.321084774 0.539062500
vt 0.605468750 0.539062500
vt 0.321084774 0.551425366
vt 0.605468750 0.539062500
vt 0.605468750 0.551425366
vt 0.574248924 0.585937500
vt 0.578125000 0.597676995
vt 0.304203917 0.688119269
vt 0.574248924 0.585937500
vt 0.304203917 0.688119269
vt 0.304203917 0.675099936
vt 0.684237866 0.805331586
vt 0.671875000 0.805331586
vt 0.671875000 0.792968750
vt 0.684237866 0.805331586
vt 0.671875000 0.792968750
vt 0.684237866 0.792968750
vt 0.976562500 0.480069370
vt 0.976562500 0.203125000
vt 0.988925366 0.203125000
vt 0.976562500 0.480069370
vt 0.988925366 0.203125000
vt 0.988925366 0.480069370
vt 0.304203917 0.675099936
vt 0.571060505 0.763209691
vt 0.567184429 0.774949186
vt 0.304203917 0.675099936
vt 0.567184429 0.774949186
vt 0.304203917 0.688119269
vt 0.984375000 0.020175366
vt 0.703348724 0.020175366
vt 0.703348724 0.007812500
vt 0.984375000 0.020175366
vt 0.703348724 0.007812500
vt 0.984375000 0.007812500
vt 0.285156250 0.688119269
vt 0.022175738 0.774949186
vt 0.018299661 0.763209691
vt 0.285156250 0.688119269
vt 0.018299661 0.763209691
vt 0.285156250 0.675099936
vt 0.703125000 0.792968750
vt 0.715487866 0.792968750
vt 0.715487866 0.805331586
vt 0.703125000 0.792968750
vt 0.715487866 0.805331586
vt 0.703125000 0.805331586
vt 0.992187500 0.160156250
vt 0.992187500 0.172519116
vt 0.703721618 0.172519116
vt 0.992187500 0.160156250
vt 0.703721618 0.172519116
vt 0.703721618 0.160156250
vt 0.597172667 0.597676995
vt 0.601048743 0.585937500
vt 0.871093750 0.675099936
vt 0.597172667 0.597676995
vt 0.871093750 0.675099936
vt 0.871093750 0.688119269
vt 0.621866024 0.551425366
vt 0.621866024 0.539062500
vt 0.906250000 0.539062500
vt 0.621866024 0.551425366
vt 0.906250000 0.539062500
vt 0.906250000 0.551425366
vt 0.281280174 0.792968750
vt 0.285156250 0.804708245
vt 0.011235167 0.895150519
vt 0.281280174 0.792968750
vt 0.011235167 0.895150519
vt 0.011235167 0.882131186
vt 0.746737866 0.805331586
vt 0.734375000 0.805331586
vt 0.734375000 0.792968750
vt 0.746737866 0.805331586
vt 0.734375000 0.792968750
vt 0.746737866 0.792968750
vt 0.301180630 0.792968750
vt 0.578125000 0.792968750
vt 0.578125000 0.805331616
vt 0.301180630 0.792968750
vt 0.578125000 0.805331616
vt 0.301180630 0.805331616
vt 0.011235167 0.882131186
vt 0.278091755 0.970240941
vt 0.274215679 0.981980436
vt 0.011235167 0.882131186
vt 0.274215679 0.981980436
vt 0.011235167 0.895150519
vt 0.984375000 0.074862866
vt 0.703348724 0.074862866
vt 0.703348724 0.062500000
vt 0.984375000 0.074862866
vt 0.703348724 0.062500000
vt 0.984375000 0.062500000
vt 0.871093750 0.688119269
vt 0.608113238 0.774949186
vt 0.604237161 0.763209691
vt 0.871093750 0.688119269
vt 0.604237161 0.763209691
vt 0.871093750 0.675099936
f 1/1/1 2/2/2 3/3/3
v -0.4550000 -0.3650000 0.5068680
vn 0.00000000 0.00000000 -1.00000000
v 0.4550000 0.5000000 0.5068680
vn 0.00000000 0.00000000 -1.00000000
v 0.4550000 -0.3650000 0.5068680
vn 0.00000000 0.00000000 -1.00000000
f 4/4/4 5/5/5 6/6/6
v -0.4550000 -0.3650000 0.5068680
vn 0.00000000 0.00000000 -1.00000000
v 0.4550000 -0.3650000 0.5068680
vn 0.00000000 0.00000000 -1.00000000
v 0.4200000 -0.4000000 0.5068680
vn 0.00000000 0.00000000 -1.00000000
f 7/7/7 8/8/8 9/9/9
v -0.4550000 -0.3650000 0.5068680
vn 0.00000000 0.00000000 -1.00000000
v 0.4200000 -0.4000000 0.5068680
vn 0.00000000 0.00000000 -1.00000000
v -0.4200000 -0.4000000 0.5068680
vn 0.00000000 0.00000000 -1.00000000
f 10/10/10 11/11/11 12/12/12
v -0.4200000 -0.4000000 0.5868680
vn 0.00000000 0.00000000 1.00000000
v 0.4200000 -0.4000000 0.5868680
vn 0.00000000 0.00000000 1.00000000
v 0.4550000 -0.3650000 0.5868680
vn 0.00000000 0.00000000 1.00000000
f 13/13/13 14/14/14 15/15/15
v -0.4200000 -0.4000000 0.5868680
vn 0.00000000 0.00000000 1.00000000
v 0.4550000 -0.3650000 0.5868680
vn 0.00000000 0.00000000 1.00000000
v 0.4550000 0.5000000 0.5868680
vn 0.00000000 0.00000000 1.00000000
f 16/16/16 17/17/17 18/18/18
v -0.4200000 -0.4000000 0.5868680
vn 0.00000000 -0.00000000 1.00000000
v 0.4550000 0.5000000 0.5868680
vn 0.00000000 -0.00000000 1.00000000
v -0.4550000 0.5000000 0.5868680
vn 0.00000000 -0.00000000 1.00000000
f 19/19/19 20/20/20 21/21/21
v -0.4200000 -0.4000000 0.5868680
vn 0.00000000 0.00000000 1.00000000
v -0.4550000 0.5000000 0.5868680
vn 0.00000000 0.00000000 1.00000000
v -0.4550000 -0.3650000 0.5868680
vn 0.00000000 0.00000000 1.00000000
f 22/22/22 23/23/23 24/24/24
v -0.4200000 -0.4000000 0.5068680
vn 0.00000000 -1.00000000 0.00000000
v 0.4200000 -0.4000000 0.5068680
vn 0.00000000 -1.00000000 0.00000000
v 0.4200000 -0.4000000 0.5868680
vn 0.00000000 -1.00000000 0.00000000
f 25/25/25 26/26/26 27/27/27
v -0.4200000 -0.4000000 0.5068680
vn 0.00000000 -1.00000000 0.00000000
v 0.4200000 -0.4000000 0.5868680
vn 0.00000000 -1.00000000 0.00000000
v -0.4200000 -0.4000000 0.5868680
vn 0.00000000 -1.00000000 0.00000000
f 28/28/28 29/29/29 30/30/30
v 0.4200000 -0.4000000 0.5068680
vn 0.70710678 -0.70710678 0.00000000
v 0.4550000 -0.3650000 0.5068680
vn 0.70710678 -0.70710678 0.00000000
v 0.4550000 -0.3650000 0.5868680
vn 0.70710678 -0.70710678 0.00000000
f 31/31/31 32/32/32 33/33/33
v 0.4200000 -0.4000000 0.5068680
vn 0.70710678 -0.70710678 0.00000000
v 0.4550000 -0.3650000 0.5868680
vn 0.70710678 -0.70710678 0.00000000
v 0.4200000 -0.4000000 0.5868680
vn 0.70710678 -0.70710678 0.00000000
f 34/34/34 35/35/35 36/36/36
v 0.4550000 -0.3650000 0.5068680
vn 1.00000000 0.00000000 0.00000000
v 0.4550000 0.5000000 0.5068680
vn 1.00000000 0.00000000 0.00000000
v 0.4550000 0.5000000 0.5868680
vn 1.00000000 0.00000000 0.00000000
f 37/37/37 38/38/38 39/39/39
v 0.4550000 -0.3650000 0.5068680
vn 1.00000000 0.00000000 0.00000000
v 0.4550000 0.5000000 0.5868680
vn 1.00000000 0.00000000 0.00000000
v 0.4550000 -0.3650000 0.5868680
vn 1.00000000 0.00000000 0.00000000
f 40/40/40 41/41/41 42/42/42
v -0.4550000 0.5000000 0.5068680
vn -1.00000000 0.00000000 0.00000000
v -0.4550000 -0.3650000 0.5068680
vn -1.00000000 0.00000000 0.00000000
v -0.4550000 -0.3650000 0.5868680
vn -1.00000000 0.00000000 0.00000000
f 43/43/43 44/44/44 45/45/45
v -0.4550000 0.5000000 0.5068680
vn -1.00000000 0.00000000 0.00000000
v -0.4550000 -0.3650000 0.5868680
vn -1.00000000 0.00000000 0.00000000
v -0.4550000 0.5000000 0.5868680
vn -1.00000000 0.00000000 0.00000000
f 46/46/46 47/47/47 48/48/48
v -0.4550000 -0.3650000 0.5068680
vn -0.70710678 -0.70710678 0.00000000
v -0.4200000 -0.4000000 0.5068680
vn -0.70710678 -0.70710678 0.00000000
v -0.4200000 -0.4000000 0.5868680
vn -0.70710678 -0.70710678 0.00000000
f 49/49/49 50/50/50 51/51/51
v -0.4550000 -0.3650000 0.5068680
vn -0.70710678 -0.70710678 0.00000000
v -0.4200000 -0.4000000 0.5868680
vn -0.70710678 -0.70710678 0.00000000
v -0.4550000 -0.3650000 0.5868680
vn -0.70710678 -0.70710678 0.00000000
f 52/52/52 53/53/53 54/54/54
v -0.4750000 -0.4400000 0.4118680
vn 0.00000000 0.00000000 -1.00000000
v -0.4750000 0.5000000 0.4118680
vn 0.00000000 0.00000000 -1.00000000
v -0.4050000 0.5000000 0.4118680
vn 0.00000000 0.00000000 -1.00000000
f 55/55/55 56/56/56 57/57/57
v -0.4750000 -0.4400000 0.4118680
vn 0.00000000 0.00000000 -1.00000000
v -0.4050000 0.5000000 0.4118680
vn 0.00000000 0.00000000 -1.00000000
v -0.4050000 -0.4400000 0.4118680
vn 0.00000000 0.00000000 -1.00000000
f 58/58/58 59/59/59 60/60/60
v -0.4750000 -0.4400000 0.4118680
vn 0.00000000 -1.00000000 0.00000000
v -0.4050000 -0.4400000 0.4118680
vn 0.00000000 -1.00000000 0.00000000
v -0.4050000 -0.4400000 0.5118680
vn 0.00000000 -1.00000000 0.00000000
f 61/61/61 62/62/62 63/63/63
v -0.4750000 -0.4400000 0.4118680
vn 0.00000000 -1.00000000 0.00000000
v -0.4050000 -0.4400000 0.5118680
vn 0.00000000 -1.00000000 0.00000000
v -0.4750000 -0.4400000 0.5118680
vn 0.00000000 -1.00000000 0.00000000
f 64/64/64 65/65/65 66/66/66
v -0.4050000 -0.4400000 0.4118680
vn 1.00000000 0.00000000 0.00000000
v -0.4050000 0.5000000 0.4118680
vn 1.00000000 0.00000000 0.00000000
v -0.4050000 0.5000000 0.5118680
vn 1.00000000 0.00000000 0.00000000
f 67/67/67 68/68/68 69/69/69
v -0.4050000 -0.4400000 0.4118680
vn 1.00000000 0.00000000 0.00000000
v -0.4050000 0.5000000 0.5118680
vn 1.00000000 0.00000000 0.00000000
v -0.4050000 -0.4400000 0.5118680
vn 1.00000000 0.00000000 0.00000000
f 70/70/70 71/71/71 72/72/72
v -0.4750000 0.5000000 0.4118680
vn -1.00000000 0.00000000 0.00000000
v -0.4750000 -0.4400000 0.4118680
vn -1.00000000 0.00000000 0.00000000
v -0.4750000 -0.4400000 0.5118680
vn -1.00000000 0.00000000 0.00000000
f 73/73/73 74/74/74 75/75/75
v -0.4750000 0.5000000 0.4118680
vn -1.00000000 0.00000000 0.00000000
v -0.4750000 -0.4400000 0.5118680
vn -1.00000000 0.00000000 0.00000000
v -0.4750000 0.5000000 0.5118680
vn -1.00000000 0.00000000 0.00000000
f 76/76/76 77/77/77 78/78/78
v -0.4750000 -0.4400000 0.5118680
vn 0.00000000 0.00000000 1.00000000
v -0.4050000 -0.4400000 0.5118680
vn 0.00000000 0.00000000 1.00000000
v -0.4050000 0.5000000 0.5118680
vn 0.00000000 0.00000000 1.00000000
f 79/79/79 80/80/80 81/81/81
v -0.4750000 -0.4400000 0.5118680
vn 0.00000000 0.00000000 1.00000000
v -0.4050000 0.5000000 0.5118680
vn 0.00000000 0.00000000 1.00000000
v -0.4750000 0.5000000 0.5118680
vn 0.00000000 0.00000000 1.00000000
f 82/82/82 83/83/83 84/84/84
v 0.4050000 -0.4400000 0.4118680
vn 0.00000000 0.00000000 -1.00000000
v 0.4050000 0.5000000 0.4118680
vn 0.00000000 0.00000000 -1.00000000
v 0.4750000 0.5000000 0.4118680
vn 0.00000000 0.00000000 -1.00000000
f 85/85/85 86/86/86 87/87/87
v 0.4050000 -0.4400000 0.4118680
vn 0.00000000 0.00000000 -1.00000000
v 0.4750000 0.5000000 0.4118680
vn 0.00000000 0.00000000 -1.00000000
v 0.4750000 -0.4400000 0.4118680
vn 0.00000000 0.00000000 -1.00000000
f 88/88/88 89/89/89 90/90/90
v 0.4050000 -0.4400000 0.4118680
vn 0.00000000 -1.00000000 0.00000000
v 0.4750000 -0.4400000 0.4118680
vn 0.00000000 -1.00000000 0.00000000
v 0.4750000 -0.4400000 0.5118680
vn 0.00000000 -1.00000000 0.00000000
f 91/91/91 92/92/92 93/93/93
v 0.4050000 -0.4400000 0.4118680
vn 0.00000000 -1.00000000 0.00000000
v 0.4750000 -0.4400000 0.5118680
vn 0.00000000 -1.00000000 0.00000000
v 0.4050000 -0.4400000 0.5118680
vn 0.00000000 -1.00000000 0.00000000
f 94/94/94 95/95/95 96/96/96
v 0.4750000 -0.4400000 0.4118680
vn 1.00000000 0.00000000 0.00000000
v 0.4750000 0.5000000 0.4118680
vn 1.00000000 0.00000000 0.00000000
v 0.4750000 0.5000000 0.5118680
vn 1.00000000 0.00000000 0.00000000
f 97/97/97 98/98/98 99/99/99
v 0.4750000 -0.4400000 0.4118680
vn 1.00000000 0.00000000 0.00000000
v 0.4750000 0.5000000 0.5118680
vn 1.00000000 0.00000000 0.00000000
v 0.4750000 -0.4400000 0.5118680
vn 1.00000000 0.00000000 0.00000000
f 100/100/100 101/101/101 102/102/102
v 0.4050000 0.5000000 0.4118680
vn -1.00000000 0.00000000 0.00000000
v 0.4050000 -0.4400000 0.4118680
vn -1.00000000 0.00000000 0.00000000
v 0.4050000 -0.4400000 0.5118680
vn -1.00000000 0.00000000 0.00000000
f 103/103/103 104/104/104 105/105/105
v 0.4050000 0.5000000 0.4118680
vn -1.00000000 0.00000000 0.00000000
v 0.4050000 -0.4400000 0.5118680
vn -1.00000000 0.00000000 0.00000000
v 0.4050000 0.5000000 0.5118680
vn -1.00000000 0.00000000 0.00000000
f 106/106/106 107/107/107 108/108/108
v 0.4050000 -0.4400000 0.5118680
vn 0.00000000 0.00000000 1.00000000
v 0.4750000 -0.4400000 0.5118680
vn 0.00000000 0.00000000 1.00000000
v 0.4750000 0.5000000 0.5118680
vn 0.00000000 0.00000000 1.00000000
f 109/109/109 110/110/110 111/111/111
v 0.4050000 -0.4400000 0.5118680
vn 0.00000000 0.00000000 1.00000000
v 0.4750000 0.5000000 0.5118680
vn 0.00000000 0.00000000 1.00000000
v 0.4050000 0.5000000 0.5118680
vn 0.00000000 0.00000000 1.00000000
f 112/112/112 113/113/113 114/114/114
v -0.4450000 -0.4700000 0.4118680
vn 0.00000000 0.00000000 -1.00000000
v -0.4450000 -0.4000000 0.4118680
vn 0.00000000 0.00000000 -1.00000000
v 0.4450000 -0.4000000 0.4118680
vn 0.00000000 0.00000000 -1.00000000
f 115/115/115 116/116/116 117/117/117
v -0.4450000 -0.4700000 0.4118680
vn 0.00000000 0.00000000 -1.00000000
v 0.4450000 -0.4000000 0.4118680
vn 0.00000000 0.00000000 -1.00000000
v 0.4450000 -0.4700000 0.4118680
vn 0.00000000 0.00000000 -1.00000000
f 118/118/118 119/119/119 120/120/120
v -0.4450000 -0.4700000 0.4118680
vn 0.00000000 -1.00000000 0.00000000
v 0.4450000 -0.4700000 0.4118680
vn 0.00000000 -1.00000000 0.00000000
v 0.4450000 -0.4700000 0.5118680
vn 0.00000000 -1.00000000 0.00000000
f 121/121/121 122/122/122 123/123/123
v -0.4450000 -0.4700000 0.4118680
vn 0.00000000 -1.00000000 0.00000000
v 0.4450000 -0.4700000 0.5118680
vn 0.00000000 -1.00000000 0.00000000
v -0.4450000 -0.4700000 0.5118680
vn 0.00000000 -1.00000000 0.00000000
f 124/124/124 125/125/125 126/126/126
v 0.4450000 -0.4700000 0.4118680
vn 1.00000000 0.00000000 0.00000000
v 0.4450000 -0.4000000 0.4118680
vn 1.00000000 0.00000000 0.00000000
v 0.4450000 -0.4000000 0.5118680
vn 1.00000000 0.00000000 0.00000000
f 127/127/127 128/128/128 129/129/129
v 0.4450000 -0.4700000 0.4118680
vn 1.00000000 0.00000000 0.00000000
v 0.4450000 -0.4000000 0.5118680
vn 1.00000000 0.00000000 0.00000000
v 0.4450000 -0.4700000 0.5118680
vn 1.00000000 0.00000000 0.00000000
f 130/130/130 131/131/131 132/132/132
v 0.4450000 -0.4000000 0.4118680
vn 0.00000000 1.00000000 0.00000000
v -0.4450000 -0.4000000 0.4118680
vn 0.00000000 1.00000000 0.00000000
v -0.4450000 -0.4000000 0.5118680
vn 0.00000000 1.00000000 0.00000000
f 133/133/133 134/134/134 135/135/135
v 0.4450000 -0.4000000 0.4118680
vn 0.00000000 1.00000000 -0.00000000
v -0.4450000 -0.4000000 0.5118680
vn 0.00000000 1.00000000 -0.00000000
v 0.4450000 -0.4000000 0.5118680
vn 0.00000000 1.00000000 -0.00000000
f 136/136/136 137/137/137 138/138/138
v -0.4450000 -0.4000000 0.4118680
vn -1.00000000 0.00000000 0.00000000
v -0.4450000 -0.4700000 0.4118680
vn -1.00000000 0.00000000 0.00000000
v -0.4450000 -0.4700000 0.5118680
vn -1.00000000 0.00000000 0.00000000
f 139/139/139 140/140/140 141/141/141
v -0.4450000 -0.4000000 0.4118680
vn -1.00000000 0.00000000 0.00000000
v -0.4450000 -0.4700000 0.5118680
vn -1.00000000 0.00000000 0.00000000
v -0.4450000 -0.4000000 0.5118680
vn -1.00000000 0.00000000 0.00000000
f 142/142/142 143/143/143 144/144/144
v -0.4450000 -0.4700000 0.5118680
vn 0.00000000 0.00000000 1.00000000
v 0.4450000 -0.4700000 0.5118680
vn 0.00000000 0.00000000 1.00000000
v 0.4450000 -0.4000000 0.5118680
vn 0.00000000 0.00000000 1.00000000
f 145/145/145 146/146/146 147/147/147
v -0.4450000 -0.4700000 0.5118680
vn 0.00000000 0.00000000 1.00000000
v 0.4450000 -0.4000000 0.5118680
vn 0.00000000 0.00000000 1.00000000
v -0.4450000 -0.4000000 0.5118680
vn 0.00000000 0.00000000 1.00000000
f 148/148/148 149/149/149 150/150/150
v -0.4275000 -0.2645133 -0.0066176
vn 0.00000000 -0.94957881 -0.31352843
v -0.3925000 -0.2645133 -0.0066176
vn 0.00000000 -0.94957881 -0.31352843
v -0.3925000 -0.2754867 0.0266176
vn 0.00000000 -0.94957881 -0.31352843
f 151/151/151 152/152/152 153/153/153
v -0.4275000 -0.2645133 -0.0066176
vn 0.00000000 -0.94957881 -0.31352843
v -0.3925000 -0.2754867 0.0266176
vn 0.00000000 -0.94957881 -0.31352843
v -0.4275000 -0.2754867 0.0266176
vn 0.00000000 -0.94957881 -0.31352843
f 154/154/154 155/155/155 156/156/156
v -0.4275000 -0.2754867 0.0266176
vn 0.00000000 -0.31352843 0.94957881
v -0.3925000 -0.2754867 0.0266176
vn 0.00000000 -0.31352843 0.94957881
v -0.3925000 0.5000000 0.2826650
vn 0.00000000 -0.31352843 0.94957881
f 157/157/157 158/158/158 159/159/159
v -0.4275000 -0.2754867 0.0266176
vn 0.00000000 -0.31352843 0.94957881
v -0.3925000 0.5000000 0.2826650
vn 0.00000000 -0.31352843 0.94957881
v -0.4275000 0.5000000 0.2826650
vn 0.00000000 -0.31352843 0.94957881
f 160/160/160 161/161/161 162/162/162
v -0.3925000 -0.2754867 0.0266176
vn 1.00000000 -0.00000000 0.00000000
v -0.3925000 -0.2645133 -0.0066176
vn 1.00000000 -0.00000000 0.00000000
v -0.3925000 0.5000000 0.2458065
vn 1.00000000 -0.00000000 0.00000000
f 163/163/163 164/164/164 165/165/165
v -0.3925000 -0.2754867 0.0266176
vn 1.00000000 0.00000000 0.00000000
v -0.3925000 0.5000000 0.2458065
vn 1.00000000 0.00000000 0.00000000
v -0.3925000 0.5000000 0.2826650
vn 1.00000000 0.00000000 0.00000000
f 166/166/166 167/167/167 168/168/168
v -0.3925000 -0.2645133 -0.0066176
vn 0.00000000 0.31352843 -0.94957881
v -0.4275000 -0.2645133 -0.0066176
vn 0.00000000 0.31352843 -0.94957881
v -0.4275000 0.5000000 0.2458065
vn 0.00000000 0.31352843 -0.94957881
f 169/169/169 170/170/170 171/171/171
v -0.3925000 -0.2645133 -0.0066176
vn 0.00000000 0.31352843 -0.94957881
v -0.4275000 0.5000000 0.2458065
vn 0.00000000 0.31352843 -0.94957881
v -0.3925000 0.5000000 0.2458065
vn 0.00000000 0.31352843 -0.94957881
f 172/172/172 173/173/173 174/174/174
v -0.4275000 -0.2645133 -0.0066176
vn -1.00000000 0.00000000 0.00000000
v -0.4275000 -0.2754867 0.0266176
vn -1.00000000 0.00000000 0.00000000
v -0.4275000 0.5000000 0.2826650
vn -1.00000000 0.00000000 0.00000000
f 175/175/175 176/176/176 177/177/177
v -0.4275000 -0.2645133 -0.0066176
vn -1.00000000 0.00000000 0.00000000
v -0.4275000 0.5000000 0.2826650
vn -1.00000000 0.00000000 0.00000000
v -0.4275000 0.5000000 0.2458065
vn -1.00000000 0.00000000 0.00000000
f 178/178/178 179/179/179 180/180/180
v -0.3925000 -0.2445133 0.5284856
vn 0.00000000 -0.94957881 0.31352843
v -0.4275000 -0.2445133 0.5284856
vn 0.00000000 -0.94957881 0.31352843
v -0.4275000 -0.2554867 0.4952504
vn 0.00000000 -0.94957881 0.31352843
f 181/181/181 182/182/182 183/183/183
v -0.3925000 -0.2445133 0.5284856
vn 0.00000000 -0.94957881 0.31352843
v -0.4275000 -0.2554867 0.4952504
vn 0.00000000 -0.94957881 0.31352843
v -0.3925000 -0.2554867 0.4952504
vn 0.00000000 -0.94957881 0.31352843
f 184/184/184 185/185/185 186/186/186
v -0.4275000 0.5000000 0.2826650
vn 0.00000000 0.31352843 0.94957881
v -0.4275000 -0.2445133 0.5284856
vn 0.00000000 0.31352843 0.94957881
v -0.3925000 -0.2445133 0.5284856
vn 0.00000000 0.31352843 0.94957881
f 187/187/187 188/188/188 189/189/189
v -0.4275000 0.5000000 0.2826650
vn 0.00000000 0.31352843 0.94957881
v -0.3925000 -0.2445133 0.5284856
vn 0.00000000 0.31352843 0.94957881
v -0.3925000 0.5000000 0.2826650
vn 0.00000000 0.31352843 0.94957881
f 190/190/190 191/191/191 192/192/192
v -0.4275000 0.5000000 0.2458065
vn -1.00000000 0.00000000 0.00000000
v -0.4275000 -0.2554867 0.4952504
vn -1.00000000 0.00000000 0.00000000
v -0.4275000 -0.2445133 0.5284856
vn -1.00000000 0.00000000 0.00000000
f 193/193/193 194/194/194 195/195/195
v -0.4275000 0.5000000 0.2458065
vn -1.00000000 0.00000000 0.00000000
v -0.4275000 -0.2445133 0.5284856
vn -1.00000000 0.00000000 0.00000000
v -0.4275000 0.5000000 0.2826650
vn -1.00000000 0.00000000 0.00000000
f 196/196/196 197/197/197 198/198/198
v -0.3925000 0.5000000 0.2458065
vn 0.00000000 -0.31352843 -0.94957881
v -0.3925000 -0.2554867 0.4952504
vn 0.00000000 -0.31352843 -0.94957881
v -0.4275000 -0.2554867 0.4952504
vn 0.00000000 -0.31352843 -0.94957881
f 199/199/199 200/200/200 201/201/201
v -0.3925000 0.5000000 0.2458065
vn -0.00000000 -0.31352843 -0.94957881
v -0.4275000 -0.2554867 0.4952504
vn -0.00000000 -0.31352843 -0.94957881
v -0.4275000 0.5000000 0.2458065
vn -0.00000000 -0.31352843 -0.94957881
f 202/202/202 203/203/203 204/204/204
v -0.3925000 0.5000000 0.2826650
vn 1.00000000 0.00000000 0.00000000
v -0.3925000 -0.2445133 0.5284856
vn 1.00000000 0.00000000 0.00000000
v -0.3925000 -0.2554867 0.4952504
vn 1.00000000 0.00000000 0.00000000
f 205/205/205 206/206/206 207/207/207
v -0.3925000 0.5000000 0.2826650
vn 1.00000000 0.00000000 0.00000000
v -0.3925000 -0.2554867 0.4952504
vn 1.00000000 0.00000000 0.00000000
v -0.3925000 0.5000000 0.2458065
vn 1.00000000 0.00000000 0.00000000
f 208/208/208 209/209/209 210/210/210
v 0.3925000 -0.2645133 -0.0066176
vn 0.00000000 -0.94957881 -0.31352843
v 0.4275000 -0.2645133 -0.0066176
vn 0.00000000 -0.94957881 -0.31352843
v 0.4275000 -0.2754867 0.0266176
vn 0.00000000 -0.94957881 -0.31352843
f 211/211/211 212/212/212 213/213/213
v 0.3925000 -0.2645133 -0.0066176
vn 0.00000000 -0.94957881 -0.31352843
v 0.4275000 -0.2754867 0.0266176
vn 0.00000000 -0.94957881 -0.31352843
v 0.3925000 -0.2754867 0.0266176
vn 0.00000000 -0.94957881 -0.31352843
f 214/214/214 215/215/215 216/216/216
v 0.3925000 -0.2754867 0.0266176
vn 0.00000000 -0.31352843 0.94957881
v 0.4275000 -0.2754867 0.0266176
vn 0.00000000 -0.31352843 0.94957881
v 0.4275000 0.5000000 0.2826650
vn 0.00000000 -0.31352843 0.94957881
f 217/217/217 218/218/218 219/219/219
v 0.3925000 -0.2754867 0.0266176
vn 0.00000000 -0.31352843 0.94957881
v 0.4275000 0.5000000 0.2826650
vn 0.00000000 -0.31352843 0.94957881
v 0.3925000 0.5000000 0.2826650
vn 0.00000000 -0.31352843 0.94957881
f 220/220/220 221/221/221 222/222/222
v 0.4275000 -0.2754867 0.0266176
vn 1.00000000 -0.00000000 0.00000000
v 0.4275000 -0.2645133 -0.0066176
vn 1.00000000 -0.00000000 0.00000000
v 0.4275000 0.5000000 0.2458065
vn 1.00000000 -0.00000000 0.00000000
f 223/223/223 224/224/224 225/225/225
v 0.4275000 -0.2754867 0.0266176
vn 1.00000000 0.00000000 0.00000000
v 0.4275000 0.5000000 0.2458065
vn 1.00000000 0.00000000 0.00000000
v 0.4275000 0.5000000 0.2826650
vn 1.00000000 0.00000000 0.00000000
f 226/226/226 227/227/227 228/228/228
v 0.4275000 -0.2645133 -0.0066176
vn 0.00000000 0.31352843 -0.94957881
v 0.3925000 -0.2645133 -0.0066176
vn 0.00000000 0.31352843 -0.94957881
v 0.3925000 0.5000000 0.2458065
vn 0.00000000 0.31352843 -0.94957881
f 229/229/229 230/230/230 231/231/231
v 0.4275000 -0.2645133 -0.0066176
vn 0.00000000 0.31352843 -0.94957881
v 0.3925000 0.5000000 0.2458065
vn 0.00000000 0.31352843 -0.94957881
v 0.4275000 0.5000000 0.2458065
vn 0.00000000 0.31352843 -0.94957881
f 232/232/232 233/233/233 234/234/234
v 0.3925000 -0.2645133 -0.0066176
vn -1.00000000 0.00000000 0.00000000
v 0.3925000 -0.2754867 0.0266176
vn -1.00000000 0.00000000 0.00000000
v 0.3925000 0.5000000 0.2826650
vn -1.00000000 0.00000000 0.00000000
f 235/235/235 236/236/236 237/237/237
v 0.3925000 -0.2645133 -0.0066176
vn -1.00000000 0.00000000 0.00000000
v 0.3925000 0.5000000 0.2826650
vn -1.00000000 0.00000000 0.00000000
v 0.3925000 0.5000000 0.2458065
vn -1.00000000 0.00000000 0.00000000
f 238/238/238 239/239/239 240/240/240
v 0.4275000 -0.2445133 0.5284856
vn 0.00000000 -0.94957881 0.31352843
v 0.3925000 -0.2445133 0.5284856
vn 0.00000000 -0.94957881 0.31352843
v 0.3925000 -0.2554867 0.4952504
vn 0.00000000 -0.94957881 0.31352843
f 241/241/241 242/242/242 243/243/243
v 0.4275000 -0.2445133 0.5284856
vn 0.00000000 -0.94957881 0.31352843
v 0.3925000 -0.2554867 0.4952504
vn 0.00000000 -0.94957881 0.31352843
v 0.4275000 -0.2554867 0.4952504
vn 0.00000000 -0.94957881 0.31352843
f 244/244/244 245/245/245 246/246/246
v 0.3925000 0.5000000 0.2826650
vn 0.00000000 0.31352843 0.94957881
v 0.3925000 -0.2445133 0.5284856
vn 0.00000000 0.31352843 0.94957881
v 0.4275000 -0.2445133 0.5284856
vn 0.00000000 0.31352843 0.94957881
f 247/247/247 248/248/248 249/249/249
v 0.3925000 0.5000000 0.2826650
vn 0.00000000 0.31352843 0.94957881
v 0.4275000 -0.2445133 0.5284856
vn 0.00000000 0.31352843 0.94957881
v 0.4275000 0.5000000 0.2826650
vn 0.00000000 0.31352843 0.94957881
f 250/250/250 251/251/251 252/252/252
v 0.3925000 0.5000000 0.2458065
vn -1.00000000 0.00000000 0.00000000
v 0.3925000 -0.2554867 0.4952504
vn -1.00000000 0.00000000 0.00000000
v 0.3925000 -0.2445133 0.5284856
vn -1.00000000 0.00000000 0.00000000
f 253/253/253 254/254/254 255/255/255
v 0.3925000 0.5000000 0.2458065
vn -1.00000000 0.00000000 0.00000000
v 0.3925000 -0.2445133 0.5284856
vn -1.00000000 0.00000000 0.00000000
v 0.3925000 0.5000000 0.2826650
vn -1.00000000 0.00000000 0.00000000
f 256/256/256 257/257/257 258/258/258
v 0.4275000 0.5000000 0.2458065
vn 0.00000000 -0.31352843 -0.94957881
v 0.4275000 -0.2554867 0.4952504
vn 0.00000000 -0.31352843 -0.94957881
v 0.3925000 -0.2554867 0.4952504
vn 0.00000000 -0.31352843 -0.94957881
f 259/259/259 260/260/260 261/261/261
v 0.4275000 0.5000000 0.2458065
vn -0.00000000 -0.31352843 -0.94957881
v 0.3925000 -0.2554867 0.4952504
vn -0.00000000 -0.31352843 -0.94957881
v 0.3925000 0.5000000 0.2458065
vn -0.00000000 -0.31352843 -0.94957881
f 262/262/262 263/263/263 264/264/264
v 0.4275000 0.5000000 0.2826650
vn 1.00000000 0.00000000 0.00000000
v 0.4275000 -0.2445133 0.5284856
vn 1.00000000 0.00000000 0.00000000
v 0.4275000 -0.2554867 0.4952504
vn 1.00000000 0.00000000 0.00000000
f 265/265/265 266/266/266 267/267/267
v 0.4275000 0.5000000 0.2826650
vn 1.00000000 0.00000000 0.00000000
v 0.4275000 -0.2554867 0.4952504
vn 1.00000000 0.00000000 0.00000000
v 0.4275000 0.5000000 0.2458065
vn 1.00000000 0.00000000 0.00000000
f 268/268/268 269/269/269 270/270/270
