# G005 native L corner, authored with Blender MCP; unchanged native PNG/MTL.
mtllib ../Materials/pz_counter_white_corner.mtl
usemtl UV_Base
v -0.5000000 -0.1062500 0.0300000
vn -0.0000000 -0.0000000 -1.0000000
v -0.5000000 0.4812500 0.0300000
vn -0.0000000 -0.0000000 -1.0000000
v 0.4812500 0.4812500 0.0300000
vn -0.0000000 -0.0000000 -1.0000000
vt 0.671875000 0.167562819
vt 0.671875000 0.007812500
vt 0.938692021 0.007812500
vt 0.938692021 0.007812500
vt 0.938692021 0.274629521
vt 0.778941703 0.274629521
vt 0.778941703 0.167562819
vt 0.671875000 0.167562819
vt 0.938692021 0.007812500
vt 0.938692021 0.007812500
vt 0.778941703 0.274629521
vt 0.778941703 0.167562819
vt 0.007812500 0.563692021
vt 0.007812500 0.403941703
vt 0.114879203 0.403941703
vt 0.114879203 0.403941703
vt 0.114879203 0.296875000
vt 0.274629521 0.296875000
vt 0.274629521 0.296875000
vt 0.274629521 0.563692021
vt 0.007812500 0.563692021
vt 0.114879203 0.403941703
vt 0.274629521 0.296875000
vt 0.007812500 0.563692021
vt 0.839843750 0.582031250
vt 0.946910453 0.582031250
vt 0.946910453 0.794125290
vt 0.839843750 0.582031250
vt 0.946910453 0.794125290
vt 0.839843750 0.794125290
vt 0.010562210 0.966441703
vt 0.010562210 0.859375000
vt 0.222656250 0.859375000
vt 0.010562210 0.966441703
vt 0.222656250 0.859375000
vt 0.222656250 0.966441703
vt 0.664062500 0.582031250
vt 0.823812819 0.582031250
vt 0.823812819 0.794125290
vt 0.664062500 0.582031250
vt 0.823812819 0.794125290
vt 0.664062500 0.794125290
vt 0.507812500 0.296875000
vt 0.507812500 0.563692021
vt 0.295718460 0.563692021
vt 0.507812500 0.296875000
vt 0.295718460 0.563692021
vt 0.295718460 0.296875000
vt 0.526187210 0.563692021
vt 0.526187210 0.296875000
vt 0.738281250 0.296875000
vt 0.526187210 0.563692021
vt 0.738281250 0.296875000
vt 0.738281250 0.563692021
vt 0.913656569 0.508969040
vt 0.753906250 0.508969040
vt 0.753906250 0.296875000
vt 0.913656569 0.508969040
vt 0.753906250 0.296875000
vt 0.913656569 0.296875000
vt 0.007812500 0.177759647
vt 0.007812500 0.007812500
vt 0.279727936 0.007812500
vt 0.279727936 0.007812500
vt 0.279727936 0.279727936
vt 0.109780788 0.279727936
vt 0.109780788 0.177759647
vt 0.007812500 0.177759647
vt 0.279727936 0.007812500
vt 0.279727936 0.007812500
vt 0.109780788 0.279727936
vt 0.109780788 0.177759647
vt 0.568790436 0.279727936
vt 0.398843288 0.279727936
vt 0.398843288 0.177759647
vt 0.398843288 0.177759647
vt 0.296875000 0.177759647
vt 0.296875000 0.007812500
vt 0.296875000 0.007812500
vt 0.568790436 0.007812500
vt 0.568790436 0.279727936
vt 0.398843288 0.177759647
vt 0.296875000 0.007812500
vt 0.568790436 0.279727936
vt 0.992187500 0.582031250
vt 0.992187500 0.683999538
vt 0.964995956 0.683999538
vt 0.992187500 0.582031250
vt 0.964995956 0.683999538
vt 0.964995956 0.582031250
vt 0.957183456 0.109780788
vt 0.957183456 0.007812500
vt 0.984375000 0.007812500
vt 0.957183456 0.109780788
vt 0.984375000 0.007812500
vt 0.984375000 0.109780788
vt 0.238281250 0.859375000
vt 0.408228397 0.859375000
vt 0.408228397 0.886566544
vt 0.238281250 0.859375000
vt 0.408228397 0.886566544
vt 0.238281250 0.886566544
vt 0.613281250 0.007812500
vt 0.613281250 0.279727936
vt 0.586089706 0.279727936
vt 0.613281250 0.007812500
vt 0.586089706 0.279727936
vt 0.586089706 0.007812500
vt 0.629058456 0.279727936
vt 0.629058456 0.007812500
vt 0.656250000 0.007812500
vt 0.629058456 0.279727936
vt 0.656250000 0.007812500
vt 0.656250000 0.279727936
vt 0.595728397 0.886566544
vt 0.425781250 0.886566544
vt 0.425781250 0.859375000
vt 0.595728397 0.886566544
vt 0.425781250 0.859375000
vt 0.595728397 0.859375000
vt 0.116578674 0.582031250
vt 0.269531107 0.582031250
vt 0.269531107 0.843749857
vt 0.269531107 0.843749857
vt 0.007812500 0.843749857
vt 0.007812500 0.690797424
vt 0.116578674 0.690797424
vt 0.116578674 0.582031250
vt 0.269531107 0.843749857
vt 0.269531107 0.843749857
vt 0.007812500 0.690797424
vt 0.116578674 0.690797424
vt 0.285156250 0.843749857
vt 0.285156250 0.690797424
vt 0.393922424 0.690797424
vt 0.393922424 0.690797424
vt 0.393922424 0.582031250
vt 0.546874857 0.582031250
vt 0.546874857 0.582031250
vt 0.546874857 0.843749857
vt 0.285156250 0.843749857
vt 0.393922424 0.690797424
vt 0.546874857 0.582031250
vt 0.285156250 0.843749857
vt 0.992187500 0.859375000
vt 0.992187500 0.968141174
vt 0.959557648 0.968141174
vt 0.992187500 0.859375000
vt 0.959557648 0.968141174
vt 0.959557648 0.859375000
vt 0.932213898 0.405641174
vt 0.932213898 0.296875000
vt 0.964843750 0.296875000
vt 0.932213898 0.405641174
vt 0.964843750 0.296875000
vt 0.964843750 0.405641174
vt 0.613281250 0.859375000
vt 0.766233683 0.859375000
vt 0.766233683 0.892004852
vt 0.613281250 0.859375000
vt 0.766233683 0.892004852
vt 0.613281250 0.892004852
vt 0.597656250 0.582031250
vt 0.597656250 0.843749857
vt 0.565026398 0.843749857
vt 0.597656250 0.582031250
vt 0.565026398 0.843749857
vt 0.565026398 0.582031250
vt 0.615807648 0.843749857
vt 0.615807648 0.582031250
vt 0.648437500 0.582031250
vt 0.615807648 0.843749857
vt 0.648437500 0.582031250
vt 0.648437500 0.843749857
vt 0.938108683 0.892004852
vt 0.785156250 0.892004852
vt 0.785156250 0.859375000
vt 0.938108683 0.892004852
vt 0.785156250 0.859375000
vt 0.938108683 0.859375000
f 1/1/1 2/2/2 3/3/3
v 0.4812500 0.4812500 0.0300000
vn 0.0000000 0.0000000 -1.0000000
v 0.4812500 -0.5000000 0.0300000
vn 0.0000000 0.0000000 -1.0000000
v -0.1062500 -0.5000000 0.0300000
vn 0.0000000 0.0000000 -1.0000000
f 4/4/4 5/5/5 6/6/6
v -0.1062500 -0.1062500 0.0300000
vn 0.0000000 -0.0000000 -0.9999999
v -0.5000000 -0.1062500 0.0300000
vn 0.0000000 -0.0000000 -0.9999999
v 0.4812500 0.4812500 0.0300000
vn 0.0000000 -0.0000000 -0.9999999
f 7/7/7 8/8/8 9/9/9
v 0.4812500 0.4812500 0.0300000
vn 0.0000000 0.0000000 -0.9999999
v -0.1062500 -0.5000000 0.0300000
vn 0.0000000 0.0000000 -0.9999999
v -0.1062500 -0.1062500 0.0300000
vn 0.0000000 0.0000000 -0.9999999
f 10/10/10 11/11/11 12/12/12
v -0.5000000 0.4812500 0.8100000
vn 0.0000000 -0.0000000 0.9999999
v -0.5000000 -0.1062500 0.8100000
vn 0.0000000 -0.0000000 0.9999999
v -0.1062500 -0.1062500 0.8100000
vn 0.0000000 -0.0000000 0.9999999
f 13/13/13 14/14/14 15/15/15
v -0.1062500 -0.1062500 0.8100000
vn 0.0000000 -0.0000000 0.9999999
v -0.1062500 -0.5000000 0.8100000
vn 0.0000000 -0.0000000 0.9999999
v 0.4812500 -0.5000000 0.8100000
vn 0.0000000 -0.0000000 0.9999999
f 16/16/16 17/17/17 18/18/18
v 0.4812500 -0.5000000 0.8100000
vn -0.0000000 0.0000000 1.0000000
v 0.4812500 0.4812500 0.8100000
vn -0.0000000 0.0000000 1.0000000
v -0.5000000 0.4812500 0.8100000
vn -0.0000000 0.0000000 1.0000000
f 19/19/19 20/20/20 21/21/21
v -0.1062500 -0.1062500 0.8100000
vn 0.0000000 0.0000000 0.9999999
v 0.4812500 -0.5000000 0.8100000
vn 0.0000000 0.0000000 0.9999999
v -0.5000000 0.4812500 0.8100000
vn 0.0000000 0.0000000 0.9999999
f 22/22/22 23/23/23 24/24/24
v -0.5000000 -0.1062500 0.0300000
vn -0.0000000 -1.0000000 -0.0000000
v -0.1062500 -0.1062500 0.0300000
vn -0.0000000 -1.0000000 -0.0000000
v -0.1062500 -0.1062500 0.8100000
vn -0.0000000 -1.0000000 -0.0000000
f 25/25/25 26/26/26 27/27/27
v -0.5000000 -0.1062500 0.0300000
vn 0.0000000 -1.0000000 -0.0000000
v -0.1062500 -0.1062500 0.8100000
vn 0.0000000 -1.0000000 -0.0000000
v -0.5000000 -0.1062500 0.8100000
vn 0.0000000 -1.0000000 -0.0000000
f 28/28/28 29/29/29 30/30/30
v -0.1062500 -0.1062500 0.0300000
vn -1.0000000 0.0000000 0.0000000
v -0.1062500 -0.5000000 0.0300000
vn -1.0000000 0.0000000 0.0000000
v -0.1062500 -0.5000000 0.8100000
vn -1.0000000 0.0000000 0.0000000
f 31/31/31 32/32/32 33/33/33
v -0.1062500 -0.1062500 0.0300000
vn -1.0000000 -0.0000000 -0.0000000
v -0.1062500 -0.5000000 0.8100000
vn -1.0000000 -0.0000000 -0.0000000
v -0.1062500 -0.1062500 0.8100000
vn -1.0000000 -0.0000000 -0.0000000
f 34/34/34 35/35/35 36/36/36
v -0.1062500 -0.5000000 0.0300000
vn -0.0000000 -1.0000000 -0.0000000
v 0.4812500 -0.5000000 0.0300000
vn -0.0000000 -1.0000000 -0.0000000
v 0.4812500 -0.5000000 0.8100000
vn -0.0000000 -1.0000000 -0.0000000
f 37/37/37 38/38/38 39/39/39
v -0.1062500 -0.5000000 0.0300000
vn 0.0000000 -1.0000000 -0.0000000
v 0.4812500 -0.5000000 0.8100000
vn 0.0000000 -1.0000000 -0.0000000
v -0.1062500 -0.5000000 0.8100000
vn 0.0000000 -1.0000000 -0.0000000
f 40/40/40 41/41/41 42/42/42
v 0.4812500 -0.5000000 0.0300000
vn 1.0000000 0.0000000 0.0000000
v 0.4812500 0.4812500 0.0300000
vn 1.0000000 0.0000000 0.0000000
v 0.4812500 0.4812500 0.8100000
vn 1.0000000 0.0000000 0.0000000
f 43/43/43 44/44/44 45/45/45
v 0.4812500 -0.5000000 0.0300000
vn 1.0000000 -0.0000000 0.0000000
v 0.4812500 0.4812500 0.8100000
vn 1.0000000 -0.0000000 0.0000000
v 0.4812500 -0.5000000 0.8100000
vn 1.0000000 -0.0000000 0.0000000
f 46/46/46 47/47/47 48/48/48
v 0.4812500 0.4812500 0.0300000
vn -0.0000000 1.0000000 0.0000000
v -0.5000000 0.4812500 0.0300000
vn -0.0000000 1.0000000 0.0000000
v -0.5000000 0.4812500 0.8100000
vn -0.0000000 1.0000000 0.0000000
f 49/49/49 50/50/50 51/51/51
v 0.4812500 0.4812500 0.0300000
vn 0.0000000 1.0000000 0.0000000
v -0.5000000 0.4812500 0.8100000
vn 0.0000000 1.0000000 0.0000000
v 0.4812500 0.4812500 0.8100000
vn 0.0000000 1.0000000 0.0000000
f 52/52/52 53/53/53 54/54/54
v -0.5000000 0.4812500 0.0300000
vn -1.0000000 0.0000000 0.0000000
v -0.5000000 -0.1062500 0.0300000
vn -1.0000000 0.0000000 0.0000000
v -0.5000000 -0.1062500 0.8100000
vn -1.0000000 0.0000000 0.0000000
f 55/55/55 56/56/56 57/57/57
v -0.5000000 0.4812500 0.0300000
vn -1.0000000 -0.0000000 -0.0000000
v -0.5000000 -0.1062500 0.8100000
vn -1.0000000 -0.0000000 -0.0000000
v -0.5000000 0.4812500 0.8100000
vn -1.0000000 -0.0000000 -0.0000000
f 58/58/58 59/59/59 60/60/60
v -0.5000000 -0.1250000 0.8100000
vn -0.0000000 -0.0000000 -1.0000000
v -0.5000000 0.5000000 0.8100000
vn -0.0000000 -0.0000000 -1.0000000
v 0.5000000 0.5000000 0.8100000
vn -0.0000000 -0.0000000 -1.0000000
f 61/61/61 62/62/62 63/63/63
v 0.5000000 0.5000000 0.8100000
vn 0.0000000 0.0000000 -1.0000000
v 0.5000000 -0.5000000 0.8100000
vn 0.0000000 0.0000000 -1.0000000
v -0.1250000 -0.5000000 0.8100000
vn 0.0000000 0.0000000 -1.0000000
f 64/64/64 65/65/65 66/66/66
v -0.1250000 -0.1250000 0.8100000
vn 0.0000000 -0.0000000 -1.0000000
v -0.5000000 -0.1250000 0.8100000
vn 0.0000000 -0.0000000 -1.0000000
v 0.5000000 0.5000000 0.8100000
vn 0.0000000 -0.0000000 -1.0000000
f 67/67/67 68/68/68 69/69/69
v 0.5000000 0.5000000 0.8100000
vn 0.0000000 0.0000000 -1.0000000
v -0.1250000 -0.5000000 0.8100000
vn 0.0000000 0.0000000 -1.0000000
v -0.1250000 -0.1250000 0.8100000
vn 0.0000000 0.0000000 -1.0000000
f 70/70/70 71/71/71 72/72/72
v -0.5000000 0.5000000 0.9100000
vn 0.0000000 -0.0000000 1.0000000
v -0.5000000 -0.1250000 0.9100000
vn 0.0000000 -0.0000000 1.0000000
v -0.1250000 -0.1250000 0.9100000
vn 0.0000000 -0.0000000 1.0000000
f 73/73/73 74/74/74 75/75/75
v -0.1250000 -0.1250000 0.9100000
vn 0.0000000 -0.0000000 1.0000000
v -0.1250000 -0.5000000 0.9100000
vn 0.0000000 -0.0000000 1.0000000
v 0.5000000 -0.5000000 0.9100000
vn 0.0000000 -0.0000000 1.0000000
f 76/76/76 77/77/77 78/78/78
v 0.5000000 -0.5000000 0.9100000
vn -0.0000000 0.0000000 1.0000000
v 0.5000000 0.5000000 0.9100000
vn -0.0000000 0.0000000 1.0000000
v -0.5000000 0.5000000 0.9100000
vn -0.0000000 0.0000000 1.0000000
f 79/79/79 80/80/80 81/81/81
v -0.1250000 -0.1250000 0.9100000
vn 0.0000000 0.0000000 1.0000000
v 0.5000000 -0.5000000 0.9100000
vn 0.0000000 0.0000000 1.0000000
v -0.5000000 0.5000000 0.9100000
vn 0.0000000 0.0000000 1.0000000
f 82/82/82 83/83/83 84/84/84
v -0.5000000 -0.1250000 0.8100000
vn -0.0000000 -1.0000000 -0.0000000
v -0.1250000 -0.1250000 0.8100000
vn -0.0000000 -1.0000000 -0.0000000
v -0.1250000 -0.1250000 0.9100000
vn -0.0000000 -1.0000000 -0.0000000
f 85/85/85 86/86/86 87/87/87
v -0.5000000 -0.1250000 0.8100000
vn 0.0000000 -1.0000000 -0.0000000
v -0.1250000 -0.1250000 0.9100000
vn 0.0000000 -1.0000000 -0.0000000
v -0.5000000 -0.1250000 0.9100000
vn 0.0000000 -1.0000000 -0.0000000
f 88/88/88 89/89/89 90/90/90
v -0.1250000 -0.1250000 0.8100000
vn -1.0000000 0.0000000 0.0000000
v -0.1250000 -0.5000000 0.8100000
vn -1.0000000 0.0000000 0.0000000
v -0.1250000 -0.5000000 0.9100000
vn -1.0000000 0.0000000 0.0000000
f 91/91/91 92/92/92 93/93/93
v -0.1250000 -0.1250000 0.8100000
vn -1.0000000 -0.0000000 -0.0000000
v -0.1250000 -0.5000000 0.9100000
vn -1.0000000 -0.0000000 -0.0000000
v -0.1250000 -0.1250000 0.9100000
vn -1.0000000 -0.0000000 -0.0000000
f 94/94/94 95/95/95 96/96/96
v -0.1250000 -0.5000000 0.8100000
vn -0.0000000 -1.0000000 -0.0000000
v 0.5000000 -0.5000000 0.8100000
vn -0.0000000 -1.0000000 -0.0000000
v 0.5000000 -0.5000000 0.9100000
vn -0.0000000 -1.0000000 -0.0000000
f 97/97/97 98/98/98 99/99/99
v -0.1250000 -0.5000000 0.8100000
vn 0.0000000 -1.0000000 -0.0000000
v 0.5000000 -0.5000000 0.9100000
vn 0.0000000 -1.0000000 -0.0000000
v -0.1250000 -0.5000000 0.9100000
vn 0.0000000 -1.0000000 -0.0000000
f 100/100/100 101/101/101 102/102/102
v 0.5000000 -0.5000000 0.8100000
vn 1.0000000 0.0000000 0.0000000
v 0.5000000 0.5000000 0.8100000
vn 1.0000000 0.0000000 0.0000000
v 0.5000000 0.5000000 0.9100000
vn 1.0000000 0.0000000 0.0000000
f 103/103/103 104/104/104 105/105/105
v 0.5000000 -0.5000000 0.8100000
vn 1.0000000 -0.0000000 0.0000000
v 0.5000000 0.5000000 0.9100000
vn 1.0000000 -0.0000000 0.0000000
v 0.5000000 -0.5000000 0.9100000
vn 1.0000000 -0.0000000 0.0000000
f 106/106/106 107/107/107 108/108/108
v 0.5000000 0.5000000 0.8100000
vn -0.0000000 1.0000000 0.0000000
v -0.5000000 0.5000000 0.8100000
vn -0.0000000 1.0000000 0.0000000
v -0.5000000 0.5000000 0.9100000
vn -0.0000000 1.0000000 0.0000000
f 109/109/109 110/110/110 111/111/111
v 0.5000000 0.5000000 0.8100000
vn 0.0000000 1.0000000 0.0000000
v -0.5000000 0.5000000 0.9100000
vn 0.0000000 1.0000000 0.0000000
v 0.5000000 0.5000000 0.9100000
vn 0.0000000 1.0000000 0.0000000
f 112/112/112 113/113/113 114/114/114
v -0.5000000 0.5000000 0.8100000
vn -1.0000000 0.0000000 0.0000000
v -0.5000000 -0.1250000 0.8100000
vn -1.0000000 0.0000000 0.0000000
v -0.5000000 -0.1250000 0.9100000
vn -1.0000000 0.0000000 0.0000000
f 115/115/115 116/116/116 117/117/117
v -0.5000000 0.5000000 0.8100000
vn -1.0000000 -0.0000000 -0.0000000
v -0.5000000 -0.1250000 0.9100000
vn -1.0000000 -0.0000000 -0.0000000
v -0.5000000 0.5000000 0.9100000
vn -1.0000000 -0.0000000 -0.0000000
f 118/118/118 119/119/119 120/120/120
v -0.5000000 -0.1000000 0.0150000
vn -0.0000000 -0.0000000 -1.0000000
v -0.5000000 0.4625000 0.0150000
vn -0.0000000 -0.0000000 -1.0000000
v 0.4625000 0.4625000 0.0150000
vn -0.0000000 -0.0000000 -1.0000000
f 121/121/121 122/122/122 123/123/123
v 0.4625000 0.4625000 0.0150000
vn 0.0000000 0.0000000 -1.0000000
v 0.4625000 -0.5000000 0.0150000
vn 0.0000000 0.0000000 -1.0000000
v -0.1000000 -0.5000000 0.0150000
vn 0.0000000 0.0000000 -1.0000000
f 124/124/124 125/125/125 126/126/126
v -0.1000000 -0.1000000 0.0150000
vn 0.0000000 -0.0000000 -1.0000000
v -0.5000000 -0.1000000 0.0150000
vn 0.0000000 -0.0000000 -1.0000000
v 0.4625000 0.4625000 0.0150000
vn 0.0000000 -0.0000000 -1.0000000
f 127/127/127 128/128/128 129/129/129
v 0.4625000 0.4625000 0.0150000
vn 0.0000000 0.0000000 -1.0000000
v -0.1000000 -0.5000000 0.0150000
vn 0.0000000 0.0000000 -1.0000000
v -0.1000000 -0.1000000 0.0150000
vn 0.0000000 0.0000000 -1.0000000
f 130/130/130 131/131/131 132/132/132
v -0.5000000 0.4625000 0.1350000
vn 0.0000000 -0.0000000 1.0000000
v -0.5000000 -0.1000000 0.1350000
vn 0.0000000 -0.0000000 1.0000000
v -0.1000000 -0.1000000 0.1350000
vn 0.0000000 -0.0000000 1.0000000
f 133/133/133 134/134/134 135/135/135
v -0.1000000 -0.1000000 0.1350000
vn 0.0000000 -0.0000000 1.0000000
v -0.1000000 -0.5000000 0.1350000
vn 0.0000000 -0.0000000 1.0000000
v 0.4625000 -0.5000000 0.1350000
vn 0.0000000 -0.0000000 1.0000000
f 136/136/136 137/137/137 138/138/138
v 0.4625000 -0.5000000 0.1350000
vn -0.0000000 0.0000000 1.0000000
v 0.4625000 0.4625000 0.1350000
vn -0.0000000 0.0000000 1.0000000
v -0.5000000 0.4625000 0.1350000
vn -0.0000000 0.0000000 1.0000000
f 139/139/139 140/140/140 141/141/141
v -0.1000000 -0.1000000 0.1350000
vn 0.0000000 0.0000000 1.0000000
v 0.4625000 -0.5000000 0.1350000
vn 0.0000000 0.0000000 1.0000000
v -0.5000000 0.4625000 0.1350000
vn 0.0000000 0.0000000 1.0000000
f 142/142/142 143/143/143 144/144/144
v -0.5000000 -0.1000000 0.0150000
vn -0.0000000 -1.0000000 -0.0000000
v -0.1000000 -0.1000000 0.0150000
vn -0.0000000 -1.0000000 -0.0000000
v -0.1000000 -0.1000000 0.1350000
vn -0.0000000 -1.0000000 -0.0000000
f 145/145/145 146/146/146 147/147/147
v -0.5000000 -0.1000000 0.0150000
vn 0.0000000 -1.0000000 -0.0000000
v -0.1000000 -0.1000000 0.1350000
vn 0.0000000 -1.0000000 -0.0000000
v -0.5000000 -0.1000000 0.1350000
vn 0.0000000 -1.0000000 -0.0000000
f 148/148/148 149/149/149 150/150/150
v -0.1000000 -0.1000000 0.0150000
vn -1.0000000 0.0000000 0.0000000
v -0.1000000 -0.5000000 0.0150000
vn -1.0000000 0.0000000 0.0000000
v -0.1000000 -0.5000000 0.1350000
vn -1.0000000 0.0000000 0.0000000
f 151/151/151 152/152/152 153/153/153
v -0.1000000 -0.1000000 0.0150000
vn -1.0000000 -0.0000000 -0.0000000
v -0.1000000 -0.5000000 0.1350000
vn -1.0000000 -0.0000000 -0.0000000
v -0.1000000 -0.1000000 0.1350000
vn -1.0000000 -0.0000000 -0.0000000
f 154/154/154 155/155/155 156/156/156
v -0.1000000 -0.5000000 0.0150000
vn -0.0000000 -1.0000000 -0.0000000
v 0.4625000 -0.5000000 0.0150000
vn -0.0000000 -1.0000000 -0.0000000
v 0.4625000 -0.5000000 0.1350000
vn -0.0000000 -1.0000000 -0.0000000
f 157/157/157 158/158/158 159/159/159
v -0.1000000 -0.5000000 0.0150000
vn 0.0000000 -1.0000000 -0.0000000
v 0.4625000 -0.5000000 0.1350000
vn 0.0000000 -1.0000000 -0.0000000
v -0.1000000 -0.5000000 0.1350000
vn 0.0000000 -1.0000000 -0.0000000
f 160/160/160 161/161/161 162/162/162
v 0.4625000 -0.5000000 0.0150000
vn 1.0000000 0.0000000 0.0000000
v 0.4625000 0.4625000 0.0150000
vn 1.0000000 0.0000000 0.0000000
v 0.4625000 0.4625000 0.1350000
vn 1.0000000 0.0000000 0.0000000
f 163/163/163 164/164/164 165/165/165
v 0.4625000 -0.5000000 0.0150000
vn 1.0000000 -0.0000000 0.0000000
v 0.4625000 0.4625000 0.1350000
vn 1.0000000 -0.0000000 0.0000000
v 0.4625000 -0.5000000 0.1350000
vn 1.0000000 -0.0000000 0.0000000
f 166/166/166 167/167/167 168/168/168
v 0.4625000 0.4625000 0.0150000
vn -0.0000000 1.0000000 0.0000000
v -0.5000000 0.4625000 0.0150000
vn -0.0000000 1.0000000 0.0000000
v -0.5000000 0.4625000 0.1350000
vn -0.0000000 1.0000000 0.0000000
f 169/169/169 170/170/170 171/171/171
v 0.4625000 0.4625000 0.0150000
vn 0.0000000 1.0000000 0.0000000
v -0.5000000 0.4625000 0.1350000
vn 0.0000000 1.0000000 0.0000000
v 0.4625000 0.4625000 0.1350000
vn 0.0000000 1.0000000 0.0000000
f 172/172/172 173/173/173 174/174/174
v -0.5000000 0.4625000 0.0150000
vn -1.0000000 0.0000000 0.0000000
v -0.5000000 -0.1000000 0.0150000
vn -1.0000000 0.0000000 0.0000000
v -0.5000000 -0.1000000 0.1350000
vn -1.0000000 0.0000000 0.0000000
f 175/175/175 176/176/176 177/177/177
v -0.5000000 0.4625000 0.0150000
vn -1.0000000 -0.0000000 -0.0000000
v -0.5000000 -0.1000000 0.1350000
vn -1.0000000 -0.0000000 -0.0000000
v -0.5000000 0.4625000 0.1350000
vn -1.0000000 -0.0000000 -0.0000000
f 178/178/178 179/179/179 180/180/180
