# G005 native L corner, authored with Blender MCP; unchanged native PNG/MTL.
mtllib ../Materials/pz_counter_modern_wall_corner.mtl
usemtl UV_Base
v -0.5000000 -0.0200000 1.8094900
vn -0.0000000 -0.0000000 -1.0000000
v -0.5000000 0.5000000 1.8094900
vn -0.0000000 -0.0000000 -1.0000000
v 0.5000000 0.5000000 1.8094900
vn -0.0000000 -0.0000000 -1.0000000
vt 0.007812500 0.206875000
vt 0.007812500 0.007812500
vt 0.390625000 0.007812500
vt 0.390625000 0.007812500
vt 0.390625000 0.390625000
vt 0.191562500 0.390625000
vt 0.191562500 0.206875000
vt 0.007812500 0.206875000
vt 0.390625000 0.007812500
vt 0.390625000 0.007812500
vt 0.191562500 0.390625000
vt 0.191562500 0.206875000
vt 0.406250000 0.390625000
vt 0.406250000 0.191562500
vt 0.590000000 0.191562500
vt 0.590000000 0.191562500
vt 0.590000000 0.007812500
vt 0.789062500 0.007812500
vt 0.789062500 0.007812500
vt 0.789062500 0.390625000
vt 0.406250000 0.390625000
vt 0.590000000 0.191562500
vt 0.789062500 0.007812500
vt 0.406250000 0.390625000
vt 0.804687500 0.406250000
vt 0.988437500 0.406250000
vt 0.988437500 0.643593788
vt 0.804687500 0.406250000
vt 0.988437500 0.643593788
vt 0.804687500 0.643593788
vt 0.516562462 0.843906250
vt 0.516562462 0.660156250
vt 0.753906250 0.660156250
vt 0.516562462 0.843906250
vt 0.753906250 0.660156250
vt 0.753906250 0.843906250
vt 0.246093750 0.660156250
vt 0.246093750 0.859218750
vt 0.008749962 0.859218750
vt 0.246093750 0.660156250
vt 0.008749962 0.859218750
vt 0.008749962 0.660156250
vt 0.007812500 0.406250000
vt 0.390625000 0.406250000
vt 0.390625000 0.643593788
vt 0.007812500 0.406250000
vt 0.390625000 0.643593788
vt 0.007812500 0.643593788
vt 0.789062500 0.643593788
vt 0.406250000 0.643593788
vt 0.406250000 0.406250000
vt 0.789062500 0.643593788
vt 0.406250000 0.406250000
vt 0.789062500 0.406250000
vt 0.262656212 0.859218750
vt 0.262656212 0.660156250
vt 0.500000000 0.660156250
vt 0.262656212 0.859218750
vt 0.500000000 0.660156250
vt 0.500000000 0.859218750
f 1/1/1 2/2/2 3/3/3
v 0.5000000 0.5000000 1.8094900
vn 0.0000000 0.0000000 -1.0000000
v 0.5000000 -0.5000000 1.8094900
vn 0.0000000 0.0000000 -1.0000000
v -0.0200000 -0.5000000 1.8094900
vn 0.0000000 0.0000000 -1.0000000
f 4/4/4 5/5/5 6/6/6
v -0.0200000 -0.0200000 1.8094900
vn 0.0000000 -0.0000000 -1.0000000
v -0.5000000 -0.0200000 1.8094900
vn 0.0000000 -0.0000000 -1.0000000
v 0.5000000 0.5000000 1.8094900
vn 0.0000000 -0.0000000 -1.0000000
f 7/7/7 8/8/8 9/9/9
v 0.5000000 0.5000000 1.8094900
vn 0.0000000 0.0000000 -1.0000000
v -0.0200000 -0.5000000 1.8094900
vn 0.0000000 0.0000000 -1.0000000
v -0.0200000 -0.0200000 1.8094900
vn 0.0000000 0.0000000 -1.0000000
f 10/10/10 11/11/11 12/12/12
v -0.5000000 0.5000000 2.4294901
vn 0.0000000 -0.0000000 1.0000000
v -0.5000000 -0.0200000 2.4294901
vn 0.0000000 -0.0000000 1.0000000
v -0.0200000 -0.0200000 2.4294901
vn 0.0000000 -0.0000000 1.0000000
f 13/13/13 14/14/14 15/15/15
v -0.0200000 -0.0200000 2.4294901
vn 0.0000000 -0.0000000 1.0000000
v -0.0200000 -0.5000000 2.4294901
vn 0.0000000 -0.0000000 1.0000000
v 0.5000000 -0.5000000 2.4294901
vn 0.0000000 -0.0000000 1.0000000
f 16/16/16 17/17/17 18/18/18
v 0.5000000 -0.5000000 2.4294901
vn -0.0000000 0.0000000 1.0000000
v 0.5000000 0.5000000 2.4294901
vn -0.0000000 0.0000000 1.0000000
v -0.5000000 0.5000000 2.4294901
vn -0.0000000 0.0000000 1.0000000
f 19/19/19 20/20/20 21/21/21
v -0.0200000 -0.0200000 2.4294901
vn 0.0000000 0.0000000 1.0000000
v 0.5000000 -0.5000000 2.4294901
vn 0.0000000 0.0000000 1.0000000
v -0.5000000 0.5000000 2.4294901
vn 0.0000000 0.0000000 1.0000000
f 22/22/22 23/23/23 24/24/24
v -0.5000000 -0.0200000 1.8094900
vn -0.0000000 -1.0000000 -0.0000000
v -0.0200000 -0.0200000 1.8094900
vn -0.0000000 -1.0000000 -0.0000000
v -0.0200000 -0.0200000 2.4294901
vn -0.0000000 -1.0000000 -0.0000000
f 25/25/25 26/26/26 27/27/27
v -0.5000000 -0.0200000 1.8094900
vn 0.0000000 -1.0000000 -0.0000000
v -0.0200000 -0.0200000 2.4294901
vn 0.0000000 -1.0000000 -0.0000000
v -0.5000000 -0.0200000 2.4294901
vn 0.0000000 -1.0000000 -0.0000000
f 28/28/28 29/29/29 30/30/30
v -0.0200000 -0.0200000 1.8094900
vn -1.0000000 0.0000000 0.0000000
v -0.0200000 -0.5000000 1.8094900
vn -1.0000000 0.0000000 0.0000000
v -0.0200000 -0.5000000 2.4294901
vn -1.0000000 0.0000000 0.0000000
f 31/31/31 32/32/32 33/33/33
v -0.0200000 -0.0200000 1.8094900
vn -1.0000000 -0.0000000 -0.0000000
v -0.0200000 -0.5000000 2.4294901
vn -1.0000000 -0.0000000 -0.0000000
v -0.0200000 -0.0200000 2.4294901
vn -1.0000000 -0.0000000 -0.0000000
f 34/34/34 35/35/35 36/36/36
v -0.0200000 -0.5000000 1.8094900
vn -0.0000000 -1.0000000 -0.0000000
v 0.5000000 -0.5000000 1.8094900
vn -0.0000000 -1.0000000 -0.0000000
v 0.5000000 -0.5000000 2.4294901
vn -0.0000000 -1.0000000 -0.0000000
f 37/37/37 38/38/38 39/39/39
v -0.0200000 -0.5000000 1.8094900
vn 0.0000000 -1.0000000 -0.0000000
v 0.5000000 -0.5000000 2.4294901
vn 0.0000000 -1.0000000 -0.0000000
v -0.0200000 -0.5000000 2.4294901
vn 0.0000000 -1.0000000 -0.0000000
f 40/40/40 41/41/41 42/42/42
v 0.5000000 -0.5000000 1.8094900
vn 1.0000000 0.0000000 0.0000000
v 0.5000000 0.5000000 1.8094900
vn 1.0000000 0.0000000 0.0000000
v 0.5000000 0.5000000 2.4294901
vn 1.0000000 0.0000000 0.0000000
f 43/43/43 44/44/44 45/45/45
v 0.5000000 -0.5000000 1.8094900
vn 1.0000000 -0.0000000 0.0000000
v 0.5000000 0.5000000 2.4294901
vn 1.0000000 -0.0000000 0.0000000
v 0.5000000 -0.5000000 2.4294901
vn 1.0000000 -0.0000000 0.0000000
f 46/46/46 47/47/47 48/48/48
v 0.5000000 0.5000000 1.8094900
vn -0.0000000 1.0000000 0.0000000
v -0.5000000 0.5000000 1.8094900
vn -0.0000000 1.0000000 0.0000000
v -0.5000000 0.5000000 2.4294901
vn -0.0000000 1.0000000 0.0000000
f 49/49/49 50/50/50 51/51/51
v 0.5000000 0.5000000 1.8094900
vn 0.0000000 1.0000000 0.0000000
v -0.5000000 0.5000000 2.4294901
vn 0.0000000 1.0000000 0.0000000
v 0.5000000 0.5000000 2.4294901
vn 0.0000000 1.0000000 0.0000000
f 52/52/52 53/53/53 54/54/54
v -0.5000000 0.5000000 1.8094900
vn -1.0000000 0.0000000 0.0000000
v -0.5000000 -0.0200000 1.8094900
vn -1.0000000 0.0000000 0.0000000
v -0.5000000 -0.0200000 2.4294901
vn -1.0000000 0.0000000 0.0000000
f 55/55/55 56/56/56 57/57/57
v -0.5000000 0.5000000 1.8094900
vn -1.0000000 -0.0000000 -0.0000000
v -0.5000000 -0.0200000 2.4294901
vn -1.0000000 -0.0000000 -0.0000000
v -0.5000000 0.5000000 2.4294901
vn -1.0000000 -0.0000000 -0.0000000
f 58/58/58 59/59/59 60/60/60
