# G012: only triangles proven strictly inside another closed opaque box removed.
mtllib ../Materials/pz_chair_seating_indoor_01_black_office.mtl
v -0.32000000 -0.20500000 0.35877200
v -0.32000000 0.28500000 0.35877200
v -0.28500000 0.32000000 0.35877200
v -0.32000000 -0.20500000 0.35877200
v -0.28500000 0.32000000 0.35877200
v 0.28500000 0.32000000 0.35877200
v -0.32000000 -0.20500000 0.35877200
v 0.28500000 0.32000000 0.35877200
v 0.32000000 0.28500000 0.35877200
v -0.32000000 -0.20500000 0.35877200
v 0.32000000 0.28500000 0.35877200
v 0.32000000 -0.20500000 0.35877200
v -0.32000000 -0.20500000 0.35877200
v 0.32000000 -0.20500000 0.35877200
v 0.28500000 -0.24000000 0.35877200
v -0.32000000 -0.20500000 0.35877200
v 0.28500000 -0.24000000 0.35877200
v -0.28500000 -0.24000000 0.35877200
v -0.28500000 -0.24000000 0.43377200
v 0.28500000 -0.24000000 0.43377200
v 0.32000000 -0.20500000 0.43377200
v -0.28500000 -0.24000000 0.43377200
v 0.32000000 -0.20500000 0.43377200
v 0.32000000 0.28500000 0.43377200
v -0.28500000 -0.24000000 0.43377200
v 0.32000000 0.28500000 0.43377200
v 0.28500000 0.32000000 0.43377200
v -0.28500000 -0.24000000 0.43377200
v 0.28500000 0.32000000 0.43377200
v -0.28500000 0.32000000 0.43377200
v -0.28500000 -0.24000000 0.43377200
v -0.28500000 0.32000000 0.43377200
v -0.32000000 0.28500000 0.43377200
v -0.28500000 -0.24000000 0.43377200
v -0.32000000 0.28500000 0.43377200
v -0.32000000 -0.20500000 0.43377200
v -0.28500000 -0.24000000 0.35877200
v 0.28500000 -0.24000000 0.35877200
v 0.28500000 -0.24000000 0.43377200
v -0.28500000 -0.24000000 0.35877200
v 0.28500000 -0.24000000 0.43377200
v -0.28500000 -0.24000000 0.43377200
v 0.28500000 -0.24000000 0.35877200
v 0.32000000 -0.20500000 0.35877200
v 0.32000000 -0.20500000 0.43377200
v 0.28500000 -0.24000000 0.35877200
v 0.32000000 -0.20500000 0.43377200
v 0.28500000 -0.24000000 0.43377200
v 0.32000000 -0.20500000 0.35877200
v 0.32000000 0.28500000 0.35877200
v 0.32000000 0.28500000 0.43377200
v 0.32000000 -0.20500000 0.35877200
v 0.32000000 0.28500000 0.43377200
v 0.32000000 -0.20500000 0.43377200
v 0.32000000 0.28500000 0.35877200
v 0.28500000 0.32000000 0.35877200
v 0.28500000 0.32000000 0.43377200
v 0.32000000 0.28500000 0.35877200
v 0.28500000 0.32000000 0.43377200
v 0.32000000 0.28500000 0.43377200
v 0.28500000 0.32000000 0.35877200
v -0.28500000 0.32000000 0.35877200
v -0.28500000 0.32000000 0.43377200
v 0.28500000 0.32000000 0.35877200
v -0.28500000 0.32000000 0.43377200
v 0.28500000 0.32000000 0.43377200
v -0.28500000 0.32000000 0.35877200
v -0.32000000 0.28500000 0.35877200
v -0.32000000 0.28500000 0.43377200
v -0.28500000 0.32000000 0.35877200
v -0.32000000 0.28500000 0.43377200
v -0.28500000 0.32000000 0.43377200
v -0.32000000 0.28500000 0.35877200
v -0.32000000 -0.20500000 0.35877200
v -0.32000000 -0.20500000 0.43377200
v -0.32000000 0.28500000 0.35877200
v -0.32000000 -0.20500000 0.43377200
v -0.32000000 0.28500000 0.43377200
v -0.32000000 -0.20500000 0.35877200
v -0.28500000 -0.24000000 0.35877200
v -0.28500000 -0.24000000 0.43377200
v -0.32000000 -0.20500000 0.35877200
v -0.28500000 -0.24000000 0.43377200
v -0.32000000 -0.20500000 0.43377200
v -0.04500000 -0.03000000 0.09000000
v -0.04500000 0.06000000 0.09000000
v 0.04500000 0.06000000 0.09000000
v -0.04500000 -0.03000000 0.09000000
v 0.04500000 0.06000000 0.09000000
v 0.04500000 -0.03000000 0.09000000
v -0.04500000 -0.03000000 0.09000000
v 0.04500000 -0.03000000 0.09000000
v 0.04500000 -0.03000000 0.39377200
v -0.04500000 -0.03000000 0.09000000
v 0.04500000 -0.03000000 0.39377200
v -0.04500000 -0.03000000 0.39377200
v 0.04500000 -0.03000000 0.09000000
v 0.04500000 0.06000000 0.09000000
v 0.04500000 0.06000000 0.39377200
v 0.04500000 -0.03000000 0.09000000
v 0.04500000 0.06000000 0.39377200
v 0.04500000 -0.03000000 0.39377200
v 0.04500000 0.06000000 0.09000000
v -0.04500000 0.06000000 0.09000000
v -0.04500000 0.06000000 0.39377200
v 0.04500000 0.06000000 0.09000000
v -0.04500000 0.06000000 0.39377200
v 0.04500000 0.06000000 0.39377200
v -0.04500000 0.06000000 0.09000000
v -0.04500000 -0.03000000 0.09000000
v -0.04500000 -0.03000000 0.39377200
v -0.04500000 0.06000000 0.09000000
v -0.04500000 -0.03000000 0.39377200
v -0.04500000 0.06000000 0.39377200
v -0.04500000 -0.03000000 0.39377200
v 0.04500000 -0.03000000 0.39377200
v 0.04500000 0.06000000 0.39377200
v -0.04500000 -0.03000000 0.39377200
v 0.04500000 0.06000000 0.39377200
v -0.04500000 0.06000000 0.39377200
v -0.25508940 -0.25342350 0.09723080
v -0.29075500 -0.21155510 0.09723080
v -0.28491060 -0.20657650 0.04276920
v -0.25508940 -0.25342350 0.09723080
v -0.28491060 -0.20657650 0.04276920
v -0.24924500 -0.24844490 0.04276920
v 0.01491060 -0.02342350 0.14723080
v -0.02075500 0.01844490 0.14723080
v -0.29075500 -0.21155510 0.09723080
v 0.01491060 -0.02342350 0.14723080
v -0.29075500 -0.21155510 0.09723080
v -0.25508940 -0.25342350 0.09723080
v -0.02075500 0.01844490 0.14723080
v -0.01491060 0.02342350 0.09276920
v -0.28491060 -0.20657650 0.04276920
v -0.02075500 0.01844490 0.14723080
v -0.28491060 -0.20657650 0.04276920
v -0.29075500 -0.21155510 0.09723080
v -0.01491060 0.02342350 0.09276920
v 0.02075500 -0.01844490 0.09276920
v -0.24924500 -0.24844490 0.04276920
v -0.01491060 0.02342350 0.09276920
v -0.24924500 -0.24844490 0.04276920
v -0.28491060 -0.20657650 0.04276920
v 0.02075500 -0.01844490 0.09276920
v 0.01491060 -0.02342350 0.14723080
v -0.25508940 -0.25342350 0.09723080
v 0.02075500 -0.01844490 0.09276920
v -0.25508940 -0.25342350 0.09723080
v -0.24924500 -0.24844490 0.04276920
v -0.31500000 -0.25500000 0.00000000
v -0.31500000 -0.20500000 0.00000000
v -0.22500000 -0.20500000 0.00000000
v -0.31500000 -0.25500000 0.00000000
v -0.22500000 -0.20500000 0.00000000
v -0.22500000 -0.25500000 0.00000000
v -0.31500000 -0.25500000 0.00000000
v -0.22500000 -0.25500000 0.00000000
v -0.22500000 -0.25500000 0.08000000
v -0.31500000 -0.25500000 0.00000000
v -0.22500000 -0.25500000 0.08000000
v -0.31500000 -0.25500000 0.08000000
v -0.22500000 -0.25500000 0.00000000
v -0.22500000 -0.20500000 0.00000000
v -0.22500000 -0.20500000 0.08000000
v -0.22500000 -0.25500000 0.00000000
v -0.22500000 -0.20500000 0.08000000
v -0.22500000 -0.25500000 0.08000000
v -0.22500000 -0.20500000 0.00000000
v -0.31500000 -0.20500000 0.00000000
v -0.31500000 -0.20500000 0.08000000
v -0.22500000 -0.20500000 0.00000000
v -0.31500000 -0.20500000 0.08000000
v -0.22500000 -0.20500000 0.08000000
v -0.31500000 -0.20500000 0.00000000
v -0.31500000 -0.25500000 0.00000000
v -0.31500000 -0.25500000 0.08000000
v -0.31500000 -0.20500000 0.00000000
v -0.31500000 -0.25500000 0.08000000
v -0.31500000 -0.20500000 0.08000000
v -0.31500000 -0.25500000 0.08000000
v -0.22500000 -0.25500000 0.08000000
v -0.22500000 -0.20500000 0.08000000
v -0.31500000 -0.25500000 0.08000000
v -0.22500000 -0.20500000 0.08000000
v -0.31500000 -0.20500000 0.08000000
v 0.29075500 -0.21155510 0.09723080
v 0.25508940 -0.25342350 0.09723080
v 0.24924500 -0.24844490 0.04276920
v 0.29075500 -0.21155510 0.09723080
v 0.24924500 -0.24844490 0.04276920
v 0.28491060 -0.20657650 0.04276920
v 0.02075500 0.01844490 0.14723080
v -0.01491060 -0.02342350 0.14723080
v 0.25508940 -0.25342350 0.09723080
v 0.02075500 0.01844490 0.14723080
v 0.25508940 -0.25342350 0.09723080
v 0.29075500 -0.21155510 0.09723080
v -0.01491060 -0.02342350 0.14723080
v -0.02075500 -0.01844490 0.09276920
v 0.24924500 -0.24844490 0.04276920
v -0.01491060 -0.02342350 0.14723080
v 0.24924500 -0.24844490 0.04276920
v 0.25508940 -0.25342350 0.09723080
v -0.02075500 -0.01844490 0.09276920
v 0.01491060 0.02342350 0.09276920
v 0.28491060 -0.20657650 0.04276920
v -0.02075500 -0.01844490 0.09276920
v 0.28491060 -0.20657650 0.04276920
v 0.24924500 -0.24844490 0.04276920
v 0.01491060 0.02342350 0.09276920
v 0.02075500 0.01844490 0.14723080
v 0.29075500 -0.21155510 0.09723080
v 0.01491060 0.02342350 0.09276920
v 0.29075500 -0.21155510 0.09723080
v 0.28491060 -0.20657650 0.04276920
v 0.22500000 -0.25500000 0.00000000
v 0.22500000 -0.20500000 0.00000000
v 0.31500000 -0.20500000 0.00000000
v 0.22500000 -0.25500000 0.00000000
v 0.31500000 -0.20500000 0.00000000
v 0.31500000 -0.25500000 0.00000000
v 0.22500000 -0.25500000 0.00000000
v 0.31500000 -0.25500000 0.00000000
v 0.31500000 -0.25500000 0.08000000
v 0.22500000 -0.25500000 0.00000000
v 0.31500000 -0.25500000 0.08000000
v 0.22500000 -0.25500000 0.08000000
v 0.31500000 -0.25500000 0.00000000
v 0.31500000 -0.20500000 0.00000000
v 0.31500000 -0.20500000 0.08000000
v 0.31500000 -0.25500000 0.00000000
v 0.31500000 -0.20500000 0.08000000
v 0.31500000 -0.25500000 0.08000000
v 0.31500000 -0.20500000 0.00000000
v 0.22500000 -0.20500000 0.00000000
v 0.22500000 -0.20500000 0.08000000
v 0.31500000 -0.20500000 0.00000000
v 0.22500000 -0.20500000 0.08000000
v 0.31500000 -0.20500000 0.08000000
v 0.22500000 -0.20500000 0.00000000
v 0.22500000 -0.25500000 0.00000000
v 0.22500000 -0.25500000 0.08000000
v 0.22500000 -0.20500000 0.00000000
v 0.22500000 -0.25500000 0.08000000
v 0.22500000 -0.20500000 0.08000000
v 0.22500000 -0.25500000 0.08000000
v 0.31500000 -0.25500000 0.08000000
v 0.31500000 -0.20500000 0.08000000
v 0.22500000 -0.25500000 0.08000000
v 0.31500000 -0.20500000 0.08000000
v 0.22500000 -0.20500000 0.08000000
v -0.29140060 0.23233720 0.09724960
v -0.25403320 0.27269410 0.09724960
v -0.24859940 0.26766280 0.04275040
v -0.29140060 0.23233720 0.09724960
v -0.24859940 0.26766280 0.04275040
v -0.28596680 0.22730590 0.04275040
v -0.02140060 -0.01766280 0.14724960
v 0.01596680 0.02269410 0.14724960
v -0.25403320 0.27269410 0.09724960
v -0.02140060 -0.01766280 0.14724960
v -0.25403320 0.27269410 0.09724960
v -0.29140060 0.23233720 0.09724960
v 0.01596680 0.02269410 0.14724960
v 0.02140060 0.01766280 0.09275040
v -0.24859940 0.26766280 0.04275040
v 0.01596680 0.02269410 0.14724960
v -0.24859940 0.26766280 0.04275040
v -0.25403320 0.27269410 0.09724960
v 0.02140060 0.01766280 0.09275040
v -0.01596680 -0.02269410 0.09275040
v -0.28596680 0.22730590 0.04275040
v 0.02140060 0.01766280 0.09275040
v -0.28596680 0.22730590 0.04275040
v -0.24859940 0.26766280 0.04275040
v -0.01596680 -0.02269410 0.09275040
v -0.02140060 -0.01766280 0.14724960
v -0.29140060 0.23233720 0.09724960
v -0.01596680 -0.02269410 0.09275040
v -0.29140060 0.23233720 0.09724960
v -0.28596680 0.22730590 0.04275040
v -0.31500000 0.22500000 0.00000000
v -0.31500000 0.27500000 0.00000000
v -0.22500000 0.27500000 0.00000000
v -0.31500000 0.22500000 0.00000000
v -0.22500000 0.27500000 0.00000000
v -0.22500000 0.22500000 0.00000000
v -0.31500000 0.22500000 0.00000000
v -0.22500000 0.22500000 0.00000000
v -0.22500000 0.22500000 0.08000000
v -0.31500000 0.22500000 0.00000000
v -0.22500000 0.22500000 0.08000000
v -0.31500000 0.22500000 0.08000000
v -0.22500000 0.22500000 0.00000000
v -0.22500000 0.27500000 0.00000000
v -0.22500000 0.27500000 0.08000000
v -0.22500000 0.22500000 0.00000000
v -0.22500000 0.27500000 0.08000000
v -0.22500000 0.22500000 0.08000000
v -0.22500000 0.27500000 0.00000000
v -0.31500000 0.27500000 0.00000000
v -0.31500000 0.27500000 0.08000000
v -0.22500000 0.27500000 0.00000000
v -0.31500000 0.27500000 0.08000000
v -0.22500000 0.27500000 0.08000000
v -0.31500000 0.27500000 0.00000000
v -0.31500000 0.22500000 0.00000000
v -0.31500000 0.22500000 0.08000000
v -0.31500000 0.27500000 0.00000000
v -0.31500000 0.22500000 0.08000000
v -0.31500000 0.27500000 0.08000000
v -0.31500000 0.22500000 0.08000000
v -0.22500000 0.22500000 0.08000000
v -0.22500000 0.27500000 0.08000000
v -0.31500000 0.22500000 0.08000000
v -0.22500000 0.27500000 0.08000000
v -0.31500000 0.27500000 0.08000000
v 0.25403320 0.27269410 0.09724960
v 0.29140060 0.23233720 0.09724960
v 0.28596680 0.22730590 0.04275040
v 0.25403320 0.27269410 0.09724960
v 0.28596680 0.22730590 0.04275040
v 0.24859940 0.26766280 0.04275040
v -0.01596680 0.02269410 0.14724960
v 0.02140060 -0.01766280 0.14724960
v 0.29140060 0.23233720 0.09724960
v -0.01596680 0.02269410 0.14724960
v 0.29140060 0.23233720 0.09724960
v 0.25403320 0.27269410 0.09724960
v 0.02140060 -0.01766280 0.14724960
v 0.01596680 -0.02269410 0.09275040
v 0.28596680 0.22730590 0.04275040
v 0.02140060 -0.01766280 0.14724960
v 0.28596680 0.22730590 0.04275040
v 0.29140060 0.23233720 0.09724960
v 0.01596680 -0.02269410 0.09275040
v -0.02140060 0.01766280 0.09275040
v 0.24859940 0.26766280 0.04275040
v 0.01596680 -0.02269410 0.09275040
v 0.24859940 0.26766280 0.04275040
v 0.28596680 0.22730590 0.04275040
v -0.02140060 0.01766280 0.09275040
v -0.01596680 0.02269410 0.14724960
v 0.25403320 0.27269410 0.09724960
v -0.02140060 0.01766280 0.09275040
v 0.25403320 0.27269410 0.09724960
v 0.24859940 0.26766280 0.04275040
v 0.22500000 0.22500000 0.00000000
v 0.22500000 0.27500000 0.00000000
v 0.31500000 0.27500000 0.00000000
v 0.22500000 0.22500000 0.00000000
v 0.31500000 0.27500000 0.00000000
v 0.31500000 0.22500000 0.00000000
v 0.22500000 0.22500000 0.00000000
v 0.31500000 0.22500000 0.00000000
v 0.31500000 0.22500000 0.08000000
v 0.22500000 0.22500000 0.00000000
v 0.31500000 0.22500000 0.08000000
v 0.22500000 0.22500000 0.08000000
v 0.31500000 0.22500000 0.00000000
v 0.31500000 0.27500000 0.00000000
v 0.31500000 0.27500000 0.08000000
v 0.31500000 0.22500000 0.00000000
v 0.31500000 0.27500000 0.08000000
v 0.31500000 0.22500000 0.08000000
v 0.31500000 0.27500000 0.00000000
v 0.22500000 0.27500000 0.00000000
v 0.22500000 0.27500000 0.08000000
v 0.31500000 0.27500000 0.00000000
v 0.22500000 0.27500000 0.08000000
v 0.31500000 0.27500000 0.08000000
v 0.22500000 0.27500000 0.00000000
v 0.22500000 0.22500000 0.00000000
v 0.22500000 0.22500000 0.08000000
v 0.22500000 0.27500000 0.00000000
v 0.22500000 0.22500000 0.08000000
v 0.22500000 0.27500000 0.08000000
v 0.22500000 0.22500000 0.08000000
v 0.31500000 0.22500000 0.08000000
v 0.31500000 0.27500000 0.08000000
v 0.22500000 0.22500000 0.08000000
v 0.31500000 0.27500000 0.08000000
v 0.22500000 0.27500000 0.08000000
v -0.02500000 -0.23000000 0.43377200
v -0.02500000 -0.18000000 0.43377200
v 0.02500000 -0.18000000 0.43377200
v -0.02500000 -0.23000000 0.43377200
v 0.02500000 -0.18000000 0.43377200
v 0.02500000 -0.23000000 0.43377200
v -0.02500000 -0.23000000 0.43377200
v 0.02500000 -0.23000000 0.43377200
v 0.02500000 -0.23000000 0.73000000
v -0.02500000 -0.23000000 0.43377200
v 0.02500000 -0.23000000 0.73000000
v -0.02500000 -0.23000000 0.73000000
v 0.02500000 -0.23000000 0.43377200
v 0.02500000 -0.18000000 0.43377200
v 0.02500000 -0.18000000 0.73000000
v 0.02500000 -0.23000000 0.43377200
v 0.02500000 -0.18000000 0.73000000
v 0.02500000 -0.23000000 0.73000000
v 0.02500000 -0.18000000 0.43377200
v -0.02500000 -0.18000000 0.43377200
v -0.02500000 -0.18000000 0.73000000
v 0.02500000 -0.18000000 0.43377200
v -0.02500000 -0.18000000 0.73000000
v 0.02500000 -0.18000000 0.73000000
v -0.02500000 -0.18000000 0.43377200
v -0.02500000 -0.23000000 0.43377200
v -0.02500000 -0.23000000 0.73000000
v -0.02500000 -0.18000000 0.43377200
v -0.02500000 -0.23000000 0.73000000
v -0.02500000 -0.18000000 0.73000000
v -0.02500000 -0.23000000 0.73000000
v 0.02500000 -0.23000000 0.73000000
v 0.02500000 -0.18000000 0.73000000
v -0.02500000 -0.23000000 0.73000000
v 0.02500000 -0.18000000 0.73000000
v -0.02500000 -0.18000000 0.73000000
v -0.27000000 -0.27400000 0.67000000
v -0.27000000 -0.22600000 0.67000000
v -0.25400000 -0.21000000 0.67000000
v -0.27000000 -0.27400000 0.67000000
v -0.25400000 -0.21000000 0.67000000
v 0.25400000 -0.21000000 0.67000000
v -0.27000000 -0.27400000 0.67000000
v 0.25400000 -0.21000000 0.67000000
v 0.27000000 -0.22600000 0.67000000
v -0.27000000 -0.27400000 0.67000000
v 0.27000000 -0.22600000 0.67000000
v 0.27000000 -0.27400000 0.67000000
v -0.27000000 -0.27400000 0.67000000
v 0.27000000 -0.27400000 0.67000000
v 0.25400000 -0.29000000 0.67000000
v -0.27000000 -0.27400000 0.67000000
v 0.25400000 -0.29000000 0.67000000
v -0.25400000 -0.29000000 0.67000000
v -0.25400000 -0.29000000 0.96000000
v 0.25400000 -0.29000000 0.96000000
v 0.27000000 -0.27400000 0.96000000
v -0.25400000 -0.29000000 0.96000000
v 0.27000000 -0.27400000 0.96000000
v 0.27000000 -0.22600000 0.96000000
v -0.25400000 -0.29000000 0.96000000
v 0.27000000 -0.22600000 0.96000000
v 0.25400000 -0.21000000 0.96000000
v -0.25400000 -0.29000000 0.96000000
v 0.25400000 -0.21000000 0.96000000
v -0.25400000 -0.21000000 0.96000000
v -0.25400000 -0.29000000 0.96000000
v -0.25400000 -0.21000000 0.96000000
v -0.27000000 -0.22600000 0.96000000
v -0.25400000 -0.29000000 0.96000000
v -0.27000000 -0.22600000 0.96000000
v -0.27000000 -0.27400000 0.96000000
v -0.25400000 -0.29000000 0.67000000
v 0.25400000 -0.29000000 0.67000000
v 0.25400000 -0.29000000 0.96000000
v -0.25400000 -0.29000000 0.67000000
v 0.25400000 -0.29000000 0.96000000
v -0.25400000 -0.29000000 0.96000000
v 0.25400000 -0.29000000 0.67000000
v 0.27000000 -0.27400000 0.67000000
v 0.27000000 -0.27400000 0.96000000
v 0.25400000 -0.29000000 0.67000000
v 0.27000000 -0.27400000 0.96000000
v 0.25400000 -0.29000000 0.96000000
v 0.27000000 -0.27400000 0.67000000
v 0.27000000 -0.22600000 0.67000000
v 0.27000000 -0.22600000 0.96000000
v 0.27000000 -0.27400000 0.67000000
v 0.27000000 -0.22600000 0.96000000
v 0.27000000 -0.27400000 0.96000000
v 0.27000000 -0.22600000 0.67000000
v 0.25400000 -0.21000000 0.67000000
v 0.25400000 -0.21000000 0.96000000
v 0.27000000 -0.22600000 0.67000000
v 0.25400000 -0.21000000 0.96000000
v 0.27000000 -0.22600000 0.96000000
v 0.25400000 -0.21000000 0.67000000
v -0.25400000 -0.21000000 0.67000000
v -0.25400000 -0.21000000 0.96000000
v 0.25400000 -0.21000000 0.67000000
v -0.25400000 -0.21000000 0.96000000
v 0.25400000 -0.21000000 0.96000000
v -0.25400000 -0.21000000 0.67000000
v -0.27000000 -0.22600000 0.67000000
v -0.27000000 -0.22600000 0.96000000
v -0.25400000 -0.21000000 0.67000000
v -0.27000000 -0.22600000 0.96000000
v -0.25400000 -0.21000000 0.96000000
v -0.27000000 -0.22600000 0.67000000
v -0.27000000 -0.27400000 0.67000000
v -0.27000000 -0.27400000 0.96000000
v -0.27000000 -0.22600000 0.67000000
v -0.27000000 -0.27400000 0.96000000
v -0.27000000 -0.22600000 0.96000000
v -0.27000000 -0.27400000 0.67000000
v -0.25400000 -0.29000000 0.67000000
v -0.25400000 -0.29000000 0.96000000
v -0.27000000 -0.27400000 0.67000000
v -0.25400000 -0.29000000 0.96000000
v -0.27000000 -0.27400000 0.96000000
vn 0.00000000 0.00000000 -1.00000000
vn 0.00000000 0.00000000 -1.00000000
vn 0.00000000 0.00000000 -1.00000000
vn 0.00000000 0.00000000 -1.00000000
vn 0.00000000 0.00000000 -1.00000000
vn 0.00000000 0.00000000 -1.00000000
vn 0.00000000 0.00000000 -1.00000000
vn 0.00000000 0.00000000 -1.00000000
vn 0.00000000 0.00000000 -1.00000000
vn 0.00000000 0.00000000 -1.00000000
vn 0.00000000 0.00000000 -1.00000000
vn 0.00000000 0.00000000 -1.00000000
vn 0.00000000 0.00000000 -1.00000000
vn 0.00000000 0.00000000 -1.00000000
vn 0.00000000 0.00000000 -1.00000000
vn 0.00000000 0.00000000 -1.00000000
vn 0.00000000 0.00000000 -1.00000000
vn 0.00000000 0.00000000 -1.00000000
vn 0.00000000 0.00000000 1.00000000
vn 0.00000000 0.00000000 1.00000000
vn 0.00000000 0.00000000 1.00000000
vn 0.00000000 0.00000000 1.00000000
vn 0.00000000 0.00000000 1.00000000
vn 0.00000000 0.00000000 1.00000000
vn 0.00000000 0.00000000 1.00000000
vn 0.00000000 0.00000000 1.00000000
vn 0.00000000 0.00000000 1.00000000
vn 0.00000000 0.00000000 1.00000000
vn 0.00000000 0.00000000 1.00000000
vn 0.00000000 0.00000000 1.00000000
vn 0.00000000 -0.00000000 1.00000000
vn 0.00000000 -0.00000000 1.00000000
vn 0.00000000 -0.00000000 1.00000000
vn 0.00000000 0.00000000 1.00000000
vn 0.00000000 0.00000000 1.00000000
vn 0.00000000 0.00000000 1.00000000
vn 0.00000000 -1.00000000 0.00000000
vn 0.00000000 -1.00000000 0.00000000
vn 0.00000000 -1.00000000 0.00000000
vn 0.00000000 -1.00000000 0.00000000
vn 0.00000000 -1.00000000 0.00000000
vn 0.00000000 -1.00000000 0.00000000
vn 0.70710678 -0.70710678 0.00000000
vn 0.70710678 -0.70710678 0.00000000
vn 0.70710678 -0.70710678 0.00000000
vn 0.70710678 -0.70710678 0.00000000
vn 0.70710678 -0.70710678 0.00000000
vn 0.70710678 -0.70710678 0.00000000
vn 1.00000000 0.00000000 0.00000000
vn 1.00000000 0.00000000 0.00000000
vn 1.00000000 0.00000000 0.00000000
vn 1.00000000 0.00000000 0.00000000
vn 1.00000000 0.00000000 0.00000000
vn 1.00000000 0.00000000 0.00000000
vn 0.70710678 0.70710678 0.00000000
vn 0.70710678 0.70710678 0.00000000
vn 0.70710678 0.70710678 0.00000000
vn 0.70710678 0.70710678 -0.00000000
vn 0.70710678 0.70710678 -0.00000000
vn 0.70710678 0.70710678 -0.00000000
vn 0.00000000 1.00000000 0.00000000
vn 0.00000000 1.00000000 0.00000000
vn 0.00000000 1.00000000 0.00000000
vn 0.00000000 1.00000000 -0.00000000
vn 0.00000000 1.00000000 -0.00000000
vn 0.00000000 1.00000000 -0.00000000
vn -0.70710678 0.70710678 0.00000000
vn -0.70710678 0.70710678 0.00000000
vn -0.70710678 0.70710678 0.00000000
vn -0.70710678 0.70710678 0.00000000
vn -0.70710678 0.70710678 0.00000000
vn -0.70710678 0.70710678 0.00000000
vn -1.00000000 0.00000000 0.00000000
vn -1.00000000 0.00000000 0.00000000
vn -1.00000000 0.00000000 0.00000000
vn -1.00000000 0.00000000 0.00000000
vn -1.00000000 0.00000000 0.00000000
vn -1.00000000 0.00000000 0.00000000
vn -0.70710678 -0.70710678 0.00000000
vn -0.70710678 -0.70710678 0.00000000
vn -0.70710678 -0.70710678 0.00000000
vn -0.70710678 -0.70710678 0.00000000
vn -0.70710678 -0.70710678 0.00000000
vn -0.70710678 -0.70710678 0.00000000
vn 0.00000000 0.00000000 -1.00000000
vn 0.00000000 0.00000000 -1.00000000
vn 0.00000000 0.00000000 -1.00000000
vn 0.00000000 0.00000000 -1.00000000
vn 0.00000000 0.00000000 -1.00000000
vn 0.00000000 0.00000000 -1.00000000
vn 0.00000000 -1.00000000 0.00000000
vn 0.00000000 -1.00000000 0.00000000
vn 0.00000000 -1.00000000 0.00000000
vn 0.00000000 -1.00000000 0.00000000
vn 0.00000000 -1.00000000 0.00000000
vn 0.00000000 -1.00000000 0.00000000
vn 1.00000000 0.00000000 0.00000000
vn 1.00000000 0.00000000 0.00000000
vn 1.00000000 0.00000000 0.00000000
vn 1.00000000 0.00000000 0.00000000
vn 1.00000000 0.00000000 0.00000000
vn 1.00000000 0.00000000 0.00000000
vn 0.00000000 1.00000000 0.00000000
vn 0.00000000 1.00000000 0.00000000
vn 0.00000000 1.00000000 0.00000000
vn 0.00000000 1.00000000 -0.00000000
vn 0.00000000 1.00000000 -0.00000000
vn 0.00000000 1.00000000 -0.00000000
vn -1.00000000 0.00000000 0.00000000
vn -1.00000000 0.00000000 0.00000000
vn -1.00000000 0.00000000 0.00000000
vn -1.00000000 0.00000000 0.00000000
vn -1.00000000 0.00000000 0.00000000
vn -1.00000000 0.00000000 0.00000000
vn 0.00000000 0.00000000 1.00000000
vn 0.00000000 0.00000000 1.00000000
vn 0.00000000 0.00000000 1.00000000
vn 0.00000000 0.00000000 1.00000000
vn 0.00000000 0.00000000 1.00000000
vn 0.00000000 0.00000000 1.00000000
vn -0.75379011 -0.64211750 -0.13959076
vn -0.75379011 -0.64211750 -0.13959076
vn -0.75379011 -0.64211750 -0.13959076
vn -0.75379011 -0.64211750 -0.13959076
vn -0.75379011 -0.64211750 -0.13959076
vn -0.75379011 -0.64211750 -0.13959076
vn -0.10626252 -0.09051993 0.99020928
vn -0.10626252 -0.09051993 0.99020928
vn -0.10626252 -0.09051993 0.99020928
vn -0.10626252 -0.09051993 0.99020928
vn -0.10626252 -0.09051993 0.99020928
vn -0.10626252 -0.09051993 0.99020928
vn -0.64846646 0.76124323 0.00000000
vn -0.64846646 0.76124323 0.00000000
vn -0.64846646 0.76124323 0.00000000
vn -0.64846646 0.76124323 0.00000000
vn -0.64846646 0.76124323 0.00000000
vn -0.64846646 0.76124323 0.00000000
vn 0.10626252 0.09051993 -0.99020928
vn 0.10626252 0.09051993 -0.99020928
vn 0.10626252 0.09051993 -0.99020928
vn 0.10626252 0.09051993 -0.99020928
vn 0.10626252 0.09051993 -0.99020928
vn 0.10626252 0.09051993 -0.99020928
vn 0.64846646 -0.76124323 -0.00000000
vn 0.64846646 -0.76124323 -0.00000000
vn 0.64846646 -0.76124323 -0.00000000
vn 0.64846646 -0.76124323 0.00000000
vn 0.64846646 -0.76124323 0.00000000
vn 0.64846646 -0.76124323 0.00000000
vn 0.00000000 0.00000000 -1.00000000
vn 0.00000000 0.00000000 -1.00000000
vn 0.00000000 0.00000000 -1.00000000
vn 0.00000000 0.00000000 -1.00000000
vn 0.00000000 0.00000000 -1.00000000
vn 0.00000000 0.00000000 -1.00000000
vn 0.00000000 -1.00000000 0.00000000
vn 0.00000000 -1.00000000 0.00000000
vn 0.00000000 -1.00000000 0.00000000
vn 0.00000000 -1.00000000 0.00000000
vn 0.00000000 -1.00000000 0.00000000
vn 0.00000000 -1.00000000 0.00000000
vn 1.00000000 0.00000000 0.00000000
vn 1.00000000 0.00000000 0.00000000
vn 1.00000000 0.00000000 0.00000000
vn 1.00000000 0.00000000 0.00000000
vn 1.00000000 0.00000000 0.00000000
vn 1.00000000 0.00000000 0.00000000
vn 0.00000000 1.00000000 0.00000000
vn 0.00000000 1.00000000 0.00000000
vn 0.00000000 1.00000000 0.00000000
vn 0.00000000 1.00000000 -0.00000000
vn 0.00000000 1.00000000 -0.00000000
vn 0.00000000 1.00000000 -0.00000000
vn -1.00000000 0.00000000 0.00000000
vn -1.00000000 0.00000000 0.00000000
vn -1.00000000 0.00000000 0.00000000
vn -1.00000000 0.00000000 0.00000000
vn -1.00000000 0.00000000 0.00000000
vn -1.00000000 0.00000000 0.00000000
vn 0.00000000 0.00000000 1.00000000
vn 0.00000000 0.00000000 1.00000000
vn 0.00000000 0.00000000 1.00000000
vn 0.00000000 0.00000000 1.00000000
vn 0.00000000 0.00000000 1.00000000
vn 0.00000000 0.00000000 1.00000000
vn 0.75379011 -0.64211750 -0.13959076
vn 0.75379011 -0.64211750 -0.13959076
vn 0.75379011 -0.64211750 -0.13959076
vn 0.75379011 -0.64211750 -0.13959076
vn 0.75379011 -0.64211750 -0.13959076
vn 0.75379011 -0.64211750 -0.13959076
vn 0.10626252 -0.09051993 0.99020928
vn 0.10626252 -0.09051993 0.99020928
vn 0.10626252 -0.09051993 0.99020928
vn 0.10626252 -0.09051993 0.99020928
vn 0.10626252 -0.09051993 0.99020928
vn 0.10626252 -0.09051993 0.99020928
vn -0.64846646 -0.76124323 -0.00000000
vn -0.64846646 -0.76124323 -0.00000000
vn -0.64846646 -0.76124323 -0.00000000
vn -0.64846646 -0.76124323 -0.00000000
vn -0.64846646 -0.76124323 -0.00000000
vn -0.64846646 -0.76124323 -0.00000000
vn -0.10626252 0.09051993 -0.99020928
vn -0.10626252 0.09051993 -0.99020928
vn -0.10626252 0.09051993 -0.99020928
vn -0.10626252 0.09051993 -0.99020928
vn -0.10626252 0.09051993 -0.99020928
vn -0.10626252 0.09051993 -0.99020928
vn 0.64846646 0.76124323 0.00000000
vn 0.64846646 0.76124323 0.00000000
vn 0.64846646 0.76124323 0.00000000
vn 0.64846646 0.76124323 0.00000000
vn 0.64846646 0.76124323 0.00000000
vn 0.64846646 0.76124323 0.00000000
vn 0.00000000 0.00000000 -1.00000000
vn 0.00000000 0.00000000 -1.00000000
vn 0.00000000 0.00000000 -1.00000000
vn 0.00000000 0.00000000 -1.00000000
vn 0.00000000 0.00000000 -1.00000000
vn 0.00000000 0.00000000 -1.00000000
vn 0.00000000 -1.00000000 0.00000000
vn 0.00000000 -1.00000000 0.00000000
vn 0.00000000 -1.00000000 0.00000000
vn 0.00000000 -1.00000000 0.00000000
vn 0.00000000 -1.00000000 0.00000000
vn 0.00000000 -1.00000000 0.00000000
vn 1.00000000 0.00000000 0.00000000
vn 1.00000000 0.00000000 0.00000000
vn 1.00000000 0.00000000 0.00000000
vn 1.00000000 0.00000000 0.00000000
vn 1.00000000 0.00000000 0.00000000
vn 1.00000000 0.00000000 0.00000000
vn 0.00000000 1.00000000 0.00000000
vn 0.00000000 1.00000000 0.00000000
vn 0.00000000 1.00000000 0.00000000
vn 0.00000000 1.00000000 -0.00000000
vn 0.00000000 1.00000000 -0.00000000
vn 0.00000000 1.00000000 -0.00000000
vn -1.00000000 0.00000000 0.00000000
vn -1.00000000 0.00000000 0.00000000
vn -1.00000000 0.00000000 0.00000000
vn -1.00000000 0.00000000 0.00000000
vn -1.00000000 0.00000000 0.00000000
vn -1.00000000 0.00000000 0.00000000
vn 0.00000000 0.00000000 1.00000000
vn 0.00000000 0.00000000 1.00000000
vn 0.00000000 0.00000000 1.00000000
vn 0.00000000 0.00000000 1.00000000
vn 0.00000000 0.00000000 1.00000000
vn 0.00000000 0.00000000 1.00000000
vn -0.72707905 0.67322134 -0.13464427
vn -0.72707905 0.67322134 -0.13464427
vn -0.72707905 0.67322134 -0.13464427
vn -0.72707905 0.67322134 -0.13464427
vn -0.72707905 0.67322134 -0.13464427
vn -0.72707905 0.67322134 -0.13464427
vn -0.09879667 0.09147840 0.99089400
vn -0.09879667 0.09147840 0.99089400
vn -0.09879667 0.09147840 0.99089400
vn -0.09879667 0.09147840 0.99089400
vn -0.09879667 0.09147840 0.99089400
vn -0.09879667 0.09147840 0.99089400
vn 0.67940803 0.73376067 0.00000000
vn 0.67940803 0.73376067 0.00000000
vn 0.67940803 0.73376067 0.00000000
vn 0.67940803 0.73376067 0.00000000
vn 0.67940803 0.73376067 0.00000000
vn 0.67940803 0.73376067 0.00000000
vn 0.09879667 -0.09147840 -0.99089400
vn 0.09879667 -0.09147840 -0.99089400
vn 0.09879667 -0.09147840 -0.99089400
vn 0.09879667 -0.09147840 -0.99089400
vn 0.09879667 -0.09147840 -0.99089400
vn 0.09879667 -0.09147840 -0.99089400
vn -0.67940803 -0.73376067 -0.00000000
vn -0.67940803 -0.73376067 -0.00000000
vn -0.67940803 -0.73376067 -0.00000000
vn -0.67940803 -0.73376067 0.00000000
vn -0.67940803 -0.73376067 0.00000000
vn -0.67940803 -0.73376067 0.00000000
vn 0.00000000 0.00000000 -1.00000000
vn 0.00000000 0.00000000 -1.00000000
vn 0.00000000 0.00000000 -1.00000000
vn 0.00000000 0.00000000 -1.00000000
vn 0.00000000 0.00000000 -1.00000000
vn 0.00000000 0.00000000 -1.00000000
vn 0.00000000 -1.00000000 0.00000000
vn 0.00000000 -1.00000000 0.00000000
vn 0.00000000 -1.00000000 0.00000000
vn 0.00000000 -1.00000000 0.00000000
vn 0.00000000 -1.00000000 0.00000000
vn 0.00000000 -1.00000000 0.00000000
vn 1.00000000 0.00000000 0.00000000
vn 1.00000000 0.00000000 0.00000000
vn 1.00000000 0.00000000 0.00000000
vn 1.00000000 0.00000000 0.00000000
vn 1.00000000 0.00000000 0.00000000
vn 1.00000000 0.00000000 0.00000000
vn 0.00000000 1.00000000 0.00000000
vn 0.00000000 1.00000000 0.00000000
vn 0.00000000 1.00000000 0.00000000
vn 0.00000000 1.00000000 -0.00000000
vn 0.00000000 1.00000000 -0.00000000
vn 0.00000000 1.00000000 -0.00000000
vn -1.00000000 0.00000000 0.00000000
vn -1.00000000 0.00000000 0.00000000
vn -1.00000000 0.00000000 0.00000000
vn -1.00000000 0.00000000 0.00000000
vn -1.00000000 0.00000000 0.00000000
vn -1.00000000 0.00000000 0.00000000
vn 0.00000000 0.00000000 1.00000000
vn 0.00000000 0.00000000 1.00000000
vn 0.00000000 0.00000000 1.00000000
vn 0.00000000 0.00000000 1.00000000
vn 0.00000000 0.00000000 1.00000000
vn 0.00000000 0.00000000 1.00000000
vn 0.72707905 0.67322134 -0.13464427
vn 0.72707905 0.67322134 -0.13464427
vn 0.72707905 0.67322134 -0.13464427
vn 0.72707905 0.67322134 -0.13464427
vn 0.72707905 0.67322134 -0.13464427
vn 0.72707905 0.67322134 -0.13464427
vn 0.09879667 0.09147840 0.99089400
vn 0.09879667 0.09147840 0.99089400
vn 0.09879667 0.09147840 0.99089400
vn 0.09879667 0.09147840 0.99089400
vn 0.09879667 0.09147840 0.99089400
vn 0.09879667 0.09147840 0.99089400
vn 0.67940803 -0.73376067 0.00000000
vn 0.67940803 -0.73376067 0.00000000
vn 0.67940803 -0.73376067 0.00000000
vn 0.67940803 -0.73376067 0.00000000
vn 0.67940803 -0.73376067 0.00000000
vn 0.67940803 -0.73376067 0.00000000
vn -0.09879667 -0.09147840 -0.99089400
vn -0.09879667 -0.09147840 -0.99089400
vn -0.09879667 -0.09147840 -0.99089400
vn -0.09879667 -0.09147840 -0.99089400
vn -0.09879667 -0.09147840 -0.99089400
vn -0.09879667 -0.09147840 -0.99089400
vn -0.67940803 0.73376067 0.00000000
vn -0.67940803 0.73376067 0.00000000
vn -0.67940803 0.73376067 0.00000000
vn -0.67940803 0.73376067 0.00000000
vn -0.67940803 0.73376067 0.00000000
vn -0.67940803 0.73376067 0.00000000
vn 0.00000000 0.00000000 -1.00000000
vn 0.00000000 0.00000000 -1.00000000
vn 0.00000000 0.00000000 -1.00000000
vn 0.00000000 0.00000000 -1.00000000
vn 0.00000000 0.00000000 -1.00000000
vn 0.00000000 0.00000000 -1.00000000
vn 0.00000000 -1.00000000 0.00000000
vn 0.00000000 -1.00000000 0.00000000
vn 0.00000000 -1.00000000 0.00000000
vn 0.00000000 -1.00000000 0.00000000
vn 0.00000000 -1.00000000 0.00000000
vn 0.00000000 -1.00000000 0.00000000
vn 1.00000000 0.00000000 0.00000000
vn 1.00000000 0.00000000 0.00000000
vn 1.00000000 0.00000000 0.00000000
vn 1.00000000 0.00000000 0.00000000
vn 1.00000000 0.00000000 0.00000000
vn 1.00000000 0.00000000 0.00000000
vn 0.00000000 1.00000000 0.00000000
vn 0.00000000 1.00000000 0.00000000
vn 0.00000000 1.00000000 0.00000000
vn 0.00000000 1.00000000 -0.00000000
vn 0.00000000 1.00000000 -0.00000000
vn 0.00000000 1.00000000 -0.00000000
vn -1.00000000 0.00000000 0.00000000
vn -1.00000000 0.00000000 0.00000000
vn -1.00000000 0.00000000 0.00000000
vn -1.00000000 0.00000000 0.00000000
vn -1.00000000 0.00000000 0.00000000
vn -1.00000000 0.00000000 0.00000000
vn 0.00000000 0.00000000 1.00000000
vn 0.00000000 0.00000000 1.00000000
vn 0.00000000 0.00000000 1.00000000
vn 0.00000000 0.00000000 1.00000000
vn 0.00000000 0.00000000 1.00000000
vn 0.00000000 0.00000000 1.00000000
vn 0.00000000 0.00000000 -1.00000000
vn 0.00000000 0.00000000 -1.00000000
vn 0.00000000 0.00000000 -1.00000000
vn 0.00000000 0.00000000 -1.00000000
vn 0.00000000 0.00000000 -1.00000000
vn 0.00000000 0.00000000 -1.00000000
vn 0.00000000 -1.00000000 0.00000000
vn 0.00000000 -1.00000000 0.00000000
vn 0.00000000 -1.00000000 0.00000000
vn 0.00000000 -1.00000000 0.00000000
vn 0.00000000 -1.00000000 0.00000000
vn 0.00000000 -1.00000000 0.00000000
vn 1.00000000 0.00000000 0.00000000
vn 1.00000000 0.00000000 0.00000000
vn 1.00000000 0.00000000 0.00000000
vn 1.00000000 0.00000000 0.00000000
vn 1.00000000 0.00000000 0.00000000
vn 1.00000000 0.00000000 0.00000000
vn 0.00000000 1.00000000 0.00000000
vn 0.00000000 1.00000000 0.00000000
vn 0.00000000 1.00000000 0.00000000
vn 0.00000000 1.00000000 -0.00000000
vn 0.00000000 1.00000000 -0.00000000
vn 0.00000000 1.00000000 -0.00000000
vn -1.00000000 0.00000000 0.00000000
vn -1.00000000 0.00000000 0.00000000
vn -1.00000000 0.00000000 0.00000000
vn -1.00000000 0.00000000 0.00000000
vn -1.00000000 0.00000000 0.00000000
vn -1.00000000 0.00000000 0.00000000
vn 0.00000000 0.00000000 1.00000000
vn 0.00000000 0.00000000 1.00000000
vn 0.00000000 0.00000000 1.00000000
vn 0.00000000 0.00000000 1.00000000
vn 0.00000000 0.00000000 1.00000000
vn 0.00000000 0.00000000 1.00000000
vn 0.00000000 0.00000000 -1.00000000
vn 0.00000000 0.00000000 -1.00000000
vn 0.00000000 0.00000000 -1.00000000
vn 0.00000000 0.00000000 -1.00000000
vn 0.00000000 0.00000000 -1.00000000
vn 0.00000000 0.00000000 -1.00000000
vn 0.00000000 0.00000000 -1.00000000
vn 0.00000000 0.00000000 -1.00000000
vn 0.00000000 0.00000000 -1.00000000
vn 0.00000000 0.00000000 -1.00000000
vn 0.00000000 0.00000000 -1.00000000
vn 0.00000000 0.00000000 -1.00000000
vn 0.00000000 0.00000000 -1.00000000
vn 0.00000000 0.00000000 -1.00000000
vn 0.00000000 0.00000000 -1.00000000
vn 0.00000000 0.00000000 -1.00000000
vn 0.00000000 0.00000000 -1.00000000
vn 0.00000000 0.00000000 -1.00000000
vn 0.00000000 0.00000000 1.00000000
vn 0.00000000 0.00000000 1.00000000
vn 0.00000000 0.00000000 1.00000000
vn 0.00000000 0.00000000 1.00000000
vn 0.00000000 0.00000000 1.00000000
vn 0.00000000 0.00000000 1.00000000
vn 0.00000000 0.00000000 1.00000000
vn 0.00000000 0.00000000 1.00000000
vn 0.00000000 0.00000000 1.00000000
vn 0.00000000 0.00000000 1.00000000
vn 0.00000000 0.00000000 1.00000000
vn 0.00000000 0.00000000 1.00000000
vn 0.00000000 -0.00000000 1.00000000
vn 0.00000000 -0.00000000 1.00000000
vn 0.00000000 -0.00000000 1.00000000
vn 0.00000000 0.00000000 1.00000000
vn 0.00000000 0.00000000 1.00000000
vn 0.00000000 0.00000000 1.00000000
vn 0.00000000 -1.00000000 0.00000000
vn 0.00000000 -1.00000000 0.00000000
vn 0.00000000 -1.00000000 0.00000000
vn 0.00000000 -1.00000000 0.00000000
vn 0.00000000 -1.00000000 0.00000000
vn 0.00000000 -1.00000000 0.00000000
vn 0.70710678 -0.70710678 0.00000000
vn 0.70710678 -0.70710678 0.00000000
vn 0.70710678 -0.70710678 0.00000000
vn 0.70710678 -0.70710678 0.00000000
vn 0.70710678 -0.70710678 0.00000000
vn 0.70710678 -0.70710678 0.00000000
vn 1.00000000 0.00000000 0.00000000
vn 1.00000000 0.00000000 0.00000000
vn 1.00000000 0.00000000 0.00000000
vn 1.00000000 0.00000000 0.00000000
vn 1.00000000 0.00000000 0.00000000
vn 1.00000000 0.00000000 0.00000000
vn 0.70710678 0.70710678 0.00000000
vn 0.70710678 0.70710678 0.00000000
vn 0.70710678 0.70710678 0.00000000
vn 0.70710678 0.70710678 -0.00000000
vn 0.70710678 0.70710678 -0.00000000
vn 0.70710678 0.70710678 -0.00000000
vn 0.00000000 1.00000000 0.00000000
vn 0.00000000 1.00000000 0.00000000
vn 0.00000000 1.00000000 0.00000000
vn 0.00000000 1.00000000 -0.00000000
vn 0.00000000 1.00000000 -0.00000000
vn 0.00000000 1.00000000 -0.00000000
vn -0.70710678 0.70710678 0.00000000
vn -0.70710678 0.70710678 0.00000000
vn -0.70710678 0.70710678 0.00000000
vn -0.70710678 0.70710678 0.00000000
vn -0.70710678 0.70710678 0.00000000
vn -0.70710678 0.70710678 0.00000000
vn -1.00000000 0.00000000 0.00000000
vn -1.00000000 0.00000000 0.00000000
vn -1.00000000 0.00000000 0.00000000
vn -1.00000000 0.00000000 0.00000000
vn -1.00000000 0.00000000 0.00000000
vn -1.00000000 0.00000000 0.00000000
vn -0.70710678 -0.70710678 0.00000000
vn -0.70710678 -0.70710678 0.00000000
vn -0.70710678 -0.70710678 0.00000000
vn -0.70710678 -0.70710678 0.00000000
vn -0.70710678 -0.70710678 0.00000000
vn -0.70710678 -0.70710678 0.00000000
o root
usemtl UV_Base
vt 0.292968750 0.023285776
vt 0.292968750 0.239911646
vt 0.277495474 0.255384922
vt 0.292968750 0.023285776
vt 0.277495474 0.255384922
vt 0.025502115 0.255384922
vt 0.292968750 0.023285776
vt 0.025502115 0.255384922
vt 0.010028839 0.239911646
vt 0.292968750 0.023285776
vt 0.010028839 0.239911646
vt 0.010028839 0.023285776
vt 0.292968750 0.023285776
vt 0.010028839 0.023285776
vt 0.025502115 0.007812500
vt 0.292968750 0.023285776
vt 0.025502115 0.007812500
vt 0.277495474 0.007812500
vt 0.326283365 0.007812500
vt 0.578276724 0.007812500
vt 0.593750000 0.023285776
vt 0.326283365 0.007812500
vt 0.593750000 0.023285776
vt 0.593750000 0.239911646
vt 0.326283365 0.007812500
vt 0.593750000 0.239911646
vt 0.578276724 0.255384922
vt 0.326283365 0.007812500
vt 0.578276724 0.255384922
vt 0.326283365 0.255384922
vt 0.326283365 0.007812500
vt 0.326283365 0.255384922
vt 0.310810089 0.239911646
vt 0.326283365 0.007812500
vt 0.310810089 0.239911646
vt 0.310810089 0.023285776
vt 0.609375000 0.007812500
vt 0.861368358 0.007812500
vt 0.861368358 0.040969521
vt 0.609375000 0.007812500
vt 0.861368358 0.040969521
vt 0.609375000 0.040969521
vt 0.954679983 0.273437500
vt 0.976562500 0.273437500
vt 0.976562500 0.306594521
vt 0.954679983 0.273437500
vt 0.976562500 0.306594521
vt 0.954679983 0.306594521
vt 0.277343750 0.273437500
vt 0.493969619 0.273437500
vt 0.493969619 0.306594521
vt 0.277343750 0.273437500
vt 0.493969619 0.306594521
vt 0.277343750 0.306594521
vt 0.790617483 0.875000000
vt 0.812500000 0.875000000
vt 0.812500000 0.908157021
vt 0.790617483 0.875000000
vt 0.812500000 0.908157021
vt 0.790617483 0.908157021
vt 0.259805858 0.306594521
vt 0.007812500 0.306594521
vt 0.007812500 0.273437500
vt 0.259805858 0.306594521
vt 0.007812500 0.273437500
vt 0.259805858 0.273437500
vt 0.829679983 0.875000000
vt 0.851562500 0.875000000
vt 0.851562500 0.908157021
vt 0.829679983 0.875000000
vt 0.851562500 0.908157021
vt 0.829679983 0.908157021
vt 0.728344619 0.306594521
vt 0.511718750 0.306594521
vt 0.511718750 0.273437500
vt 0.728344619 0.306594521
vt 0.511718750 0.273437500
vt 0.728344619 0.273437500
vt 0.868742483 0.875000000
vt 0.890625000 0.875000000
vt 0.890625000 0.908157021
vt 0.868742483 0.875000000
vt 0.890625000 0.908157021
vt 0.868742483 0.908157021
vt 0.945312500 0.571038425
vt 0.945312500 0.531250000
vt 0.985100925 0.531250000
vt 0.945312500 0.571038425
vt 0.985100925 0.531250000
vt 0.985100925 0.571038425
vt 0.324218750 0.531250000
vt 0.324218750 0.571038425
vt 0.189923090 0.571038425
vt 0.324218750 0.531250000
vt 0.189923090 0.571038425
vt 0.189923090 0.531250000
vt 0.476562500 0.531250000
vt 0.476562500 0.571038425
vt 0.342266840 0.571038425
vt 0.476562500 0.531250000
vt 0.342266840 0.571038425
vt 0.342266840 0.531250000
vt 0.494610590 0.571038425
vt 0.494610590 0.531250000
vt 0.628906250 0.531250000
vt 0.494610590 0.571038425
vt 0.628906250 0.531250000
vt 0.628906250 0.571038425
vt 0.646954340 0.571038425
vt 0.646954340 0.531250000
vt 0.781250000 0.531250000
vt 0.646954340 0.571038425
vt 0.781250000 0.531250000
vt 0.781250000 0.571038425
vt 0.914062500 0.468750000
vt 0.953850925 0.468750000
vt 0.953850925 0.508538425
vt 0.914062500 0.468750000
vt 0.953850925 0.508538425
vt 0.914062500 0.508538425
vt 0.930565186 0.875000000
vt 0.930565186 0.899315140
vt 0.906250000 0.899315156
vt 0.930565186 0.875000000
vt 0.906250000 0.899315156
vt 0.906250000 0.875000016
vt 0.773437500 0.695850689
vt 0.757759980 0.714436743
vt 0.636717555 0.612336054
vt 0.773437500 0.695850689
vt 0.636717555 0.612336054
vt 0.652395075 0.593750000
vt 0.382259431 0.514931806
vt 0.378865273 0.490854681
vt 0.535668342 0.468750000
vt 0.382259431 0.514931806
vt 0.535668342 0.468750000
vt 0.539062500 0.492827125
vt 0.808645075 0.714436743
vt 0.792967555 0.695850689
vt 0.914009980 0.593750000
vt 0.808645075 0.714436743
vt 0.914009980 0.593750000
vt 0.929687500 0.612336054
vt 0.718750000 0.490854681
vt 0.715355842 0.514931806
vt 0.558552773 0.492827125
vt 0.718750000 0.490854681
vt 0.558552773 0.492827125
vt 0.561946931 0.468750000
vt 0.894531250 0.295542181
vt 0.894531250 0.273437500
vt 0.934319675 0.273437500
vt 0.894531250 0.295542181
vt 0.934319675 0.273437500
vt 0.934319675 0.295542181
vt 0.656250000 0.738281250
vt 0.656250000 0.778069675
vt 0.620882511 0.778069675
vt 0.656250000 0.738281250
vt 0.620882511 0.778069675
vt 0.620882511 0.738281250
vt 0.476562500 0.875000000
vt 0.498667181 0.875000000
vt 0.498667181 0.910367489
vt 0.476562500 0.875000000
vt 0.498667181 0.910367489
vt 0.476562500 0.910367489
vt 0.675570011 0.778069675
vt 0.675570011 0.738281250
vt 0.710937500 0.738281250
vt 0.675570011 0.778069675
vt 0.710937500 0.738281250
vt 0.710937500 0.778069675
vt 0.537729681 0.910367489
vt 0.515625000 0.910367489
vt 0.515625000 0.875000000
vt 0.537729681 0.910367489
vt 0.515625000 0.875000000
vt 0.537729681 0.875000000
vt 0.066406250 0.875000000
vt 0.106194675 0.875000000
vt 0.106194675 0.897104681
vt 0.066406250 0.875000000
vt 0.106194675 0.897104681
vt 0.066406250 0.897104681
vt 0.973533936 0.875000016
vt 0.973533936 0.899315156
vt 0.949218750 0.899315140
vt 0.973533936 0.875000016
vt 0.949218750 0.899315140
vt 0.949218750 0.875000000
vt 0.027395075 0.858967993
vt 0.011717555 0.840381939
vt 0.132759980 0.738281250
vt 0.027395075 0.858967993
vt 0.132759980 0.738281250
vt 0.148437500 0.756867304
vt 0.741634431 0.514931806
vt 0.738240273 0.490854681
vt 0.895043342 0.468750000
vt 0.741634431 0.514931806
vt 0.895043342 0.468750000
vt 0.898437500 0.492827125
vt 0.304687500 0.840381939
vt 0.289009980 0.858967993
vt 0.167967555 0.756867304
vt 0.304687500 0.840381939
vt 0.167967555 0.756867304
vt 0.183645075 0.738281250
vt 0.171875000 0.553354681
vt 0.168480842 0.577431806
vt 0.011677773 0.555327125
vt 0.171875000 0.553354681
vt 0.011677773 0.555327125
vt 0.015071931 0.531250000
vt 0.125000000 0.897104681
vt 0.125000000 0.875000000
vt 0.164788425 0.875000000
vt 0.125000000 0.897104681
vt 0.164788425 0.875000000
vt 0.164788425 0.897104681
vt 0.765625000 0.738281250
vt 0.765625000 0.778069675
vt 0.730257511 0.778069675
vt 0.765625000 0.738281250
vt 0.730257511 0.778069675
vt 0.730257511 0.738281250
vt 0.554687500 0.875000000
vt 0.576792181 0.875000000
vt 0.576792181 0.910367489
vt 0.554687500 0.875000000
vt 0.576792181 0.910367489
vt 0.554687500 0.910367489
vt 0.784945011 0.778069675
vt 0.784945011 0.738281250
vt 0.820312500 0.738281250
vt 0.784945011 0.778069675
vt 0.820312500 0.738281250
vt 0.820312500 0.778069675
vt 0.615854681 0.910367489
vt 0.593750000 0.910367489
vt 0.593750000 0.875000000
vt 0.615854681 0.910367489
vt 0.593750000 0.875000000
vt 0.615854681 0.875000000
vt 0.183593750 0.875000000
vt 0.223382175 0.875000000
vt 0.223382175 0.897104681
vt 0.183593750 0.875000000
vt 0.223382175 0.897104681
vt 0.183593750 0.897104681
vt 0.032127660 0.929687506
vt 0.032127660 0.954002662
vt 0.007812500 0.954002656
vt 0.032127660 0.929687506
vt 0.007812500 0.954002656
vt 0.007812500 0.929687500
vt 0.131999116 0.593750000
vt 0.148437500 0.611666651
vt 0.027468078 0.722655421
vt 0.131999116 0.593750000
vt 0.027468078 0.722655421
vt 0.011029694 0.704738770
vt 0.497480218 0.370417179
vt 0.494206332 0.346323431
vt 0.656882364 0.324218750
vt 0.497480218 0.370417179
vt 0.656882364 0.324218750
vt 0.660156250 0.348312498
vt 0.167279694 0.611666651
vt 0.183718078 0.593750000
vt 0.304687500 0.704738770
vt 0.167279694 0.611666651
vt 0.304687500 0.704738770
vt 0.288249116 0.722655421
vt 0.843750000 0.346323431
vt 0.840476114 0.370417179
vt 0.677800082 0.348312498
vt 0.843750000 0.346323431
vt 0.677800082 0.348312498
vt 0.681073968 0.324218750
vt 0.242187500 0.897104681
vt 0.242187500 0.875000000
vt 0.281975925 0.875000000
vt 0.242187500 0.897104681
vt 0.281975925 0.875000000
vt 0.281975925 0.897104681
vt 0.875000000 0.738281250
vt 0.875000000 0.778069675
vt 0.839632511 0.778069675
vt 0.875000000 0.738281250
vt 0.839632511 0.778069675
vt 0.839632511 0.738281250
vt 0.632812500 0.875000000
vt 0.654917181 0.875000000
vt 0.654917181 0.910367489
vt 0.632812500 0.875000000
vt 0.654917181 0.910367489
vt 0.632812500 0.910367489
vt 0.894320011 0.778069675
vt 0.894320011 0.738281250
vt 0.929687500 0.738281250
vt 0.894320011 0.778069675
vt 0.929687500 0.738281250
vt 0.929687500 0.778069675
vt 0.693979681 0.910367489
vt 0.671875000 0.910367489
vt 0.671875000 0.875000000
vt 0.693979681 0.910367489
vt 0.671875000 0.875000000
vt 0.693979681 0.875000000
vt 0.300781250 0.875000000
vt 0.340569675 0.875000000
vt 0.340569675 0.897104681
vt 0.300781250 0.875000000
vt 0.340569675 0.897104681
vt 0.300781250 0.897104681
vt 0.075096410 0.929687500
vt 0.075096410 0.954002656
vt 0.050781250 0.954002662
vt 0.075096410 0.929687500
vt 0.050781250 0.954002662
vt 0.050781250 0.929687506
vt 0.323529694 0.611666651
vt 0.339968078 0.593750000
vt 0.460937500 0.704738770
vt 0.323529694 0.611666651
vt 0.460937500 0.704738770
vt 0.444499116 0.722655421
vt 0.013105218 0.514948429
vt 0.009831332 0.490854681
vt 0.172507364 0.468750000
vt 0.013105218 0.514948429
vt 0.172507364 0.468750000
vt 0.175781250 0.492843748
vt 0.600749116 0.593750000
vt 0.617187500 0.611666651
vt 0.496218078 0.722655421
vt 0.600749116 0.593750000
vt 0.496218078 0.722655421
vt 0.479779694 0.704738770
vt 0.359375000 0.490854681
vt 0.356101114 0.514948429
vt 0.193425082 0.492843748
vt 0.359375000 0.490854681
vt 0.193425082 0.492843748
vt 0.196698968 0.468750000
vt 0.359375000 0.897104681
vt 0.359375000 0.875000000
vt 0.399163425 0.875000000
vt 0.359375000 0.897104681
vt 0.399163425 0.875000000
vt 0.399163425 0.897104681
vt 0.984375000 0.738281250
vt 0.984375000 0.778069675
vt 0.949007511 0.778069675
vt 0.984375000 0.738281250
vt 0.949007511 0.778069675
vt 0.949007511 0.738281250
vt 0.710937500 0.875000000
vt 0.733042181 0.875000000
vt 0.733042181 0.910367489
vt 0.710937500 0.875000000
vt 0.733042181 0.910367489
vt 0.710937500 0.910367489
vt 0.047600925 0.910367489
vt 0.007812500 0.910367489
vt 0.007812500 0.875000000
vt 0.047600925 0.910367489
vt 0.007812500 0.875000000
vt 0.047600925 0.875000000
vt 0.772104681 0.910367489
vt 0.750000000 0.910367489
vt 0.750000000 0.875000000
vt 0.772104681 0.910367489
vt 0.750000000 0.875000000
vt 0.772104681 0.875000000
vt 0.417968750 0.875000000
vt 0.457757175 0.875000000
vt 0.457757175 0.897104681
vt 0.417968750 0.875000000
vt 0.457757175 0.897104681
vt 0.417968750 0.897104681
vt 0.093750000 0.951792181
vt 0.093750000 0.929687500
vt 0.115854681 0.929687500
vt 0.093750000 0.951792181
vt 0.115854681 0.929687500
vt 0.115854681 0.951792181
vt 0.878906250 0.273437500
vt 0.878906250 0.295542181
vt 0.747945744 0.295542181
vt 0.878906250 0.273437500
vt 0.747945744 0.295542181
vt 0.747945744 0.273437500
vt 0.929687500 0.531250000
vt 0.929687500 0.553354681
vt 0.798726994 0.553354681
vt 0.929687500 0.531250000
vt 0.798726994 0.553354681
vt 0.798726994 0.531250000
vt 0.322164494 0.760385931
vt 0.322164494 0.738281250
vt 0.453125000 0.738281250
vt 0.322164494 0.760385931
vt 0.453125000 0.738281250
vt 0.453125000 0.760385931
vt 0.470601994 0.760385931
vt 0.470601994 0.738281250
vt 0.601562500 0.738281250
vt 0.470601994 0.760385931
vt 0.601562500 0.738281250
vt 0.601562500 0.760385931
vt 0.132812500 0.929687500
vt 0.154917181 0.929687500
vt 0.154917181 0.951792181
vt 0.132812500 0.929687500
vt 0.154917181 0.951792181
vt 0.132812500 0.951792181
vt 0.885979748 0.007812500
vt 0.907200241 0.007812500
vt 0.914273739 0.014885998
vt 0.885979748 0.007812500
vt 0.914273739 0.014885998
vt 0.914273739 0.239469552
vt 0.885979748 0.007812500
vt 0.914273739 0.239469552
vt 0.907200241 0.246543050
vt 0.885979748 0.007812500
vt 0.907200241 0.246543050
vt 0.885979748 0.246543050
vt 0.885979748 0.007812500
vt 0.885979748 0.246543050
vt 0.878906250 0.239469552
vt 0.885979748 0.007812500
vt 0.878906250 0.239469552
vt 0.878906250 0.014885998
vt 0.933593750 0.239469552
vt 0.933593750 0.014885998
vt 0.940667248 0.007812500
vt 0.933593750 0.239469552
vt 0.940667248 0.007812500
vt 0.961887741 0.007812500
vt 0.933593750 0.239469552
vt 0.961887741 0.007812500
vt 0.968961239 0.014885998
vt 0.933593750 0.239469552
vt 0.968961239 0.014885998
vt 0.968961239 0.239469552
vt 0.933593750 0.239469552
vt 0.968961239 0.239469552
vt 0.961887741 0.246543050
vt 0.933593750 0.239469552
vt 0.961887741 0.246543050
vt 0.940667248 0.246543050
vt 0.007812500 0.324218750
vt 0.232396054 0.324218750
vt 0.232396054 0.452425897
vt 0.007812500 0.324218750
vt 0.232396054 0.452425897
vt 0.007812500 0.452425897
vt 0.900152814 0.324218750
vt 0.910156250 0.324218750
vt 0.910156250 0.452425897
vt 0.900152814 0.324218750
vt 0.910156250 0.452425897
vt 0.900152814 0.452425897
vt 0.945312500 0.593750000
vt 0.966532993 0.593750000
vt 0.966532993 0.721957147
vt 0.945312500 0.593750000
vt 0.966532993 0.721957147
vt 0.945312500 0.721957147
vt 0.927496564 0.324218750
vt 0.937500000 0.324218750
vt 0.937500000 0.452425897
vt 0.927496564 0.324218750
vt 0.937500000 0.452425897
vt 0.927496564 0.452425897
vt 0.474583554 0.452425897
vt 0.250000000 0.452425897
vt 0.250000000 0.324218750
vt 0.474583554 0.452425897
vt 0.250000000 0.324218750
vt 0.474583554 0.324218750
vt 0.954840314 0.324218750
vt 0.964843750 0.324218750
vt 0.964843750 0.452425897
vt 0.954840314 0.324218750
vt 0.964843750 0.452425897
vt 0.954840314 0.452425897
vt 0.880595493 0.452425897
vt 0.859375000 0.452425897
vt 0.859375000 0.324218750
vt 0.880595493 0.452425897
vt 0.859375000 0.324218750
vt 0.880595493 0.324218750
vt 0.982184064 0.324218750
vt 0.992187500 0.324218750
vt 0.992187500 0.452425897
vt 0.982184064 0.324218750
vt 0.992187500 0.452425897
vt 0.982184064 0.452425897
f 1/1/1 2/2/2 3/3/3
f 4/4/4 5/5/5 6/6/6
f 7/7/7 8/8/8 9/9/9
f 10/10/10 11/11/11 12/12/12
f 13/13/13 14/14/14 15/15/15
f 16/16/16 17/17/17 18/18/18
f 19/19/19 20/20/20 21/21/21
f 22/22/22 23/23/23 24/24/24
f 25/25/25 26/26/26 27/27/27
f 28/28/28 29/29/29 30/30/30
f 31/31/31 32/32/32 33/33/33
f 34/34/34 35/35/35 36/36/36
f 37/37/37 38/38/38 39/39/39
f 40/40/40 41/41/41 42/42/42
f 43/43/43 44/44/44 45/45/45
f 46/46/46 47/47/47 48/48/48
f 49/49/49 50/50/50 51/51/51
f 52/52/52 53/53/53 54/54/54
f 55/55/55 56/56/56 57/57/57
f 58/58/58 59/59/59 60/60/60
f 61/61/61 62/62/62 63/63/63
f 64/64/64 65/65/65 66/66/66
f 67/67/67 68/68/68 69/69/69
f 70/70/70 71/71/71 72/72/72
f 73/73/73 74/74/74 75/75/75
f 76/76/76 77/77/77 78/78/78
f 79/79/79 80/80/80 81/81/81
f 82/82/82 83/83/83 84/84/84
f 85/85/85 86/86/86 87/87/87
f 88/88/88 89/89/89 90/90/90
f 91/91/91 92/92/92 93/93/93
f 94/94/94 95/95/95 96/96/96
f 97/97/97 98/98/98 99/99/99
f 100/100/100 101/101/101 102/102/102
f 103/103/103 104/104/104 105/105/105
f 106/106/106 107/107/107 108/108/108
f 109/109/109 110/110/110 111/111/111
f 112/112/112 113/113/113 114/114/114
f 115/115/115 116/116/116 117/117/117
f 118/118/118 119/119/119 120/120/120
f 121/121/121 122/122/122 123/123/123
f 124/124/124 125/125/125 126/126/126
f 127/127/127 128/128/128 129/129/129
f 130/130/130 131/131/131 132/132/132
f 133/133/133 134/134/134 135/135/135
f 136/136/136 137/137/137 138/138/138
f 139/139/139 140/140/140 141/141/141
f 142/142/142 143/143/143 144/144/144
f 145/145/145 146/146/146 147/147/147
f 148/148/148 149/149/149 150/150/150
f 151/151/151 152/152/152 153/153/153
f 154/154/154 155/155/155 156/156/156
f 157/157/157 158/158/158 159/159/159
f 160/160/160 161/161/161 162/162/162
f 163/163/163 164/164/164 165/165/165
f 166/166/166 167/167/167 168/168/168
f 169/169/169 170/170/170 171/171/171
f 172/172/172 173/173/173 174/174/174
f 175/175/175 176/176/176 177/177/177
f 178/178/178 179/179/179 180/180/180
f 181/181/181 182/182/182 183/183/183
f 184/184/184 185/185/185 186/186/186
f 187/187/187 188/188/188 189/189/189
f 190/190/190 191/191/191 192/192/192
f 193/193/193 194/194/194 195/195/195
f 196/196/196 197/197/197 198/198/198
f 199/199/199 200/200/200 201/201/201
f 202/202/202 203/203/203 204/204/204
f 205/205/205 206/206/206 207/207/207
f 208/208/208 209/209/209 210/210/210
f 211/211/211 212/212/212 213/213/213
f 214/214/214 215/215/215 216/216/216
f 217/217/217 218/218/218 219/219/219
f 220/220/220 221/221/221 222/222/222
f 223/223/223 224/224/224 225/225/225
f 226/226/226 227/227/227 228/228/228
f 229/229/229 230/230/230 231/231/231
f 232/232/232 233/233/233 234/234/234
f 235/235/235 236/236/236 237/237/237
f 238/238/238 239/239/239 240/240/240
f 241/241/241 242/242/242 243/243/243
f 244/244/244 245/245/245 246/246/246
f 247/247/247 248/248/248 249/249/249
f 250/250/250 251/251/251 252/252/252
f 253/253/253 254/254/254 255/255/255
f 256/256/256 257/257/257 258/258/258
f 259/259/259 260/260/260 261/261/261
f 262/262/262 263/263/263 264/264/264
f 265/265/265 266/266/266 267/267/267
f 268/268/268 269/269/269 270/270/270
f 271/271/271 272/272/272 273/273/273
f 274/274/274 275/275/275 276/276/276
f 277/277/277 278/278/278 279/279/279
f 280/280/280 281/281/281 282/282/282
f 283/283/283 284/284/284 285/285/285
f 286/286/286 287/287/287 288/288/288
f 289/289/289 290/290/290 291/291/291
f 292/292/292 293/293/293 294/294/294
f 295/295/295 296/296/296 297/297/297
f 298/298/298 299/299/299 300/300/300
f 301/301/301 302/302/302 303/303/303
f 304/304/304 305/305/305 306/306/306
f 307/307/307 308/308/308 309/309/309
f 310/310/310 311/311/311 312/312/312
f 313/313/313 314/314/314 315/315/315
f 316/316/316 317/317/317 318/318/318
f 319/319/319 320/320/320 321/321/321
f 322/322/322 323/323/323 324/324/324
f 325/325/325 326/326/326 327/327/327
f 328/328/328 329/329/329 330/330/330
f 331/331/331 332/332/332 333/333/333
f 334/334/334 335/335/335 336/336/336
f 337/337/337 338/338/338 339/339/339
f 340/340/340 341/341/341 342/342/342
f 343/343/343 344/344/344 345/345/345
f 346/346/346 347/347/347 348/348/348
f 349/349/349 350/350/350 351/351/351
f 352/352/352 353/353/353 354/354/354
f 355/355/355 356/356/356 357/357/357
f 358/358/358 359/359/359 360/360/360
f 361/361/361 362/362/362 363/363/363
f 364/364/364 365/365/365 366/366/366
f 367/367/367 368/368/368 369/369/369
f 370/370/370 371/371/371 372/372/372
f 373/373/373 374/374/374 375/375/375
f 376/376/376 377/377/377 378/378/378
f 379/379/379 380/380/380 381/381/381
f 382/382/382 383/383/383 384/384/384
f 385/385/385 386/386/386 387/387/387
f 388/388/388 389/389/389 390/390/390
f 391/391/391 392/392/392 393/393/393
f 394/394/394 395/395/395 396/396/396
f 397/397/397 398/398/398 399/399/399
f 400/400/400 401/401/401 402/402/402
f 403/403/403 404/404/404 405/405/405
f 406/406/406 407/407/407 408/408/408
f 409/409/409 410/410/410 411/411/411
f 412/412/412 413/413/413 414/414/414
f 415/415/415 416/416/416 417/417/417
f 418/418/418 419/419/419 420/420/420
f 421/421/421 422/422/422 423/423/423
f 424/424/424 425/425/425 426/426/426
f 427/427/427 428/428/428 429/429/429
f 430/430/430 431/431/431 432/432/432
f 433/433/433 434/434/434 435/435/435
f 436/436/436 437/437/437 438/438/438
f 439/439/439 440/440/440 441/441/441
f 442/442/442 443/443/443 444/444/444
f 445/445/445 446/446/446 447/447/447
f 448/448/448 449/449/449 450/450/450
f 451/451/451 452/452/452 453/453/453
f 454/454/454 455/455/455 456/456/456
f 457/457/457 458/458/458 459/459/459
f 460/460/460 461/461/461 462/462/462
f 463/463/463 464/464/464 465/465/465
f 466/466/466 467/467/467 468/468/468
f 469/469/469 470/470/470 471/471/471
f 472/472/472 473/473/473 474/474/474
f 475/475/475 476/476/476 477/477/477
f 478/478/478 479/479/479 480/480/480
f 481/481/481 482/482/482 483/483/483
f 484/484/484 485/485/485 486/486/486
f 487/487/487 488/488/488 489/489/489
f 490/490/490 491/491/491 492/492/492
f 493/493/493 494/494/494 495/495/495
f 496/496/496 497/497/497 498/498/498
f 499/499/499 500/500/500 501/501/501
f 502/502/502 503/503/503 504/504/504
