# G012: only triangles proven strictly inside another closed opaque box removed.
mtllib ../Materials/pz_drawer_storage_01_mirror_and.mtl
v -0.47500000 -0.47000000 0.05500000
v 0.47500000 -0.47000000 0.05500000
v 0.47500000 -0.47000000 0.81254400
v -0.47500000 -0.47000000 0.05500000
v 0.47500000 -0.47000000 0.81254400
v -0.47500000 -0.47000000 0.81254400
v 0.47500000 -0.47000000 0.05500000
v 0.47500000 0.26500000 0.05500000
v 0.47500000 0.26500000 0.81254400
v 0.47500000 -0.47000000 0.05500000
v 0.47500000 0.26500000 0.81254400
v 0.47500000 -0.47000000 0.81254400
v 0.47500000 0.26500000 0.05500000
v -0.47500000 0.26500000 0.05500000
v -0.47500000 0.26500000 0.81254400
v 0.47500000 0.26500000 0.05500000
v -0.47500000 0.26500000 0.81254400
v 0.47500000 0.26500000 0.81254400
v -0.47500000 0.26500000 0.05500000
v -0.47500000 -0.47000000 0.05500000
v -0.47500000 -0.47000000 0.81254400
v -0.47500000 0.26500000 0.05500000
v -0.47500000 -0.47000000 0.81254400
v -0.47500000 0.26500000 0.81254400
v -0.47500000 -0.47000000 0.81254400
v 0.47500000 -0.47000000 0.81254400
v 0.47500000 0.26500000 0.81254400
v -0.47500000 -0.47000000 0.81254400
v 0.47500000 0.26500000 0.81254400
v -0.47500000 0.26500000 0.81254400
v -0.49500000 -0.49000000 0.02500000
v -0.49500000 0.30500000 0.02500000
v 0.49500000 0.30500000 0.02500000
v -0.49500000 -0.49000000 0.02500000
v 0.49500000 0.30500000 0.02500000
v 0.49500000 -0.49000000 0.02500000
v -0.49500000 -0.49000000 0.02500000
v 0.49500000 -0.49000000 0.02500000
v 0.49500000 -0.49000000 0.10000000
v -0.49500000 -0.49000000 0.02500000
v 0.49500000 -0.49000000 0.10000000
v -0.49500000 -0.49000000 0.10000000
v 0.49500000 -0.49000000 0.02500000
v 0.49500000 0.30500000 0.02500000
v 0.49500000 0.30500000 0.10000000
v 0.49500000 -0.49000000 0.02500000
v 0.49500000 0.30500000 0.10000000
v 0.49500000 -0.49000000 0.10000000
v 0.49500000 0.30500000 0.02500000
v -0.49500000 0.30500000 0.02500000
v -0.49500000 0.30500000 0.10000000
v 0.49500000 0.30500000 0.02500000
v -0.49500000 0.30500000 0.10000000
v 0.49500000 0.30500000 0.10000000
v -0.49500000 0.30500000 0.02500000
v -0.49500000 -0.49000000 0.02500000
v -0.49500000 -0.49000000 0.10000000
v -0.49500000 0.30500000 0.02500000
v -0.49500000 -0.49000000 0.10000000
v -0.49500000 0.30500000 0.10000000
v -0.49500000 -0.49000000 0.10000000
v 0.49500000 -0.49000000 0.10000000
v 0.49500000 0.30500000 0.10000000
v -0.49500000 -0.49000000 0.10000000
v 0.49500000 0.30500000 0.10000000
v -0.49500000 0.30500000 0.10000000
v -0.49500000 -0.49000000 0.81254400
v -0.49500000 0.31500000 0.81254400
v 0.49500000 0.31500000 0.81254400
v -0.49500000 -0.49000000 0.81254400
v 0.49500000 0.31500000 0.81254400
v 0.49500000 -0.49000000 0.81254400
v -0.49500000 -0.49000000 0.81254400
v 0.49500000 -0.49000000 0.81254400
v 0.49500000 -0.49000000 0.86754400
v -0.49500000 -0.49000000 0.81254400
v 0.49500000 -0.49000000 0.86754400
v -0.49500000 -0.49000000 0.86754400
v 0.49500000 -0.49000000 0.81254400
v 0.49500000 0.31500000 0.81254400
v 0.49500000 0.31500000 0.86754400
v 0.49500000 -0.49000000 0.81254400
v 0.49500000 0.31500000 0.86754400
v 0.49500000 -0.49000000 0.86754400
v 0.49500000 0.31500000 0.81254400
v -0.49500000 0.31500000 0.81254400
v -0.49500000 0.31500000 0.86754400
v 0.49500000 0.31500000 0.81254400
v -0.49500000 0.31500000 0.86754400
v 0.49500000 0.31500000 0.86754400
v -0.49500000 0.31500000 0.81254400
v -0.49500000 -0.49000000 0.81254400
v -0.49500000 -0.49000000 0.86754400
v -0.49500000 0.31500000 0.81254400
v -0.49500000 -0.49000000 0.86754400
v -0.49500000 0.31500000 0.86754400
v -0.49500000 -0.49000000 0.86754400
v 0.49500000 -0.49000000 0.86754400
v 0.49500000 0.31500000 0.86754400
v -0.49500000 -0.49000000 0.86754400
v 0.49500000 0.31500000 0.86754400
v -0.49500000 0.31500000 0.86754400
v -0.46500000 0.27200000 0.10500000
v -0.46500000 0.31400000 0.10500000
v 0.46500000 0.31400000 0.10500000
v -0.46500000 0.27200000 0.10500000
v 0.46500000 0.31400000 0.10500000
v 0.46500000 0.27200000 0.10500000
v -0.46500000 0.27200000 0.10500000
v 0.46500000 0.27200000 0.10500000
v 0.46500000 0.27200000 0.32418130
v -0.46500000 0.27200000 0.10500000
v 0.46500000 0.27200000 0.32418130
v -0.46500000 0.27200000 0.32418130
v 0.46500000 0.27200000 0.10500000
v 0.46500000 0.31400000 0.10500000
v 0.46500000 0.31400000 0.32418130
v 0.46500000 0.27200000 0.10500000
v 0.46500000 0.31400000 0.32418130
v 0.46500000 0.27200000 0.32418130
v 0.46500000 0.31400000 0.10500000
v -0.46500000 0.31400000 0.10500000
v -0.46500000 0.31400000 0.32418130
v 0.46500000 0.31400000 0.10500000
v -0.46500000 0.31400000 0.32418130
v 0.46500000 0.31400000 0.32418130
v -0.46500000 0.31400000 0.10500000
v -0.46500000 0.27200000 0.10500000
v -0.46500000 0.27200000 0.32418130
v -0.46500000 0.31400000 0.10500000
v -0.46500000 0.27200000 0.32418130
v -0.46500000 0.31400000 0.32418130
v -0.46500000 0.27200000 0.32418130
v 0.46500000 0.27200000 0.32418130
v 0.46500000 0.31400000 0.32418130
v -0.46500000 0.27200000 0.32418130
v 0.46500000 0.31400000 0.32418130
v -0.46500000 0.31400000 0.32418130
v -0.46500000 0.27200000 0.33084800
v -0.46500000 0.31400000 0.33084800
v 0.46500000 0.31400000 0.33084800
v -0.46500000 0.27200000 0.33084800
v 0.46500000 0.31400000 0.33084800
v 0.46500000 0.27200000 0.33084800
v -0.46500000 0.27200000 0.33084800
v 0.46500000 0.27200000 0.33084800
v 0.46500000 0.27200000 0.55002930
v -0.46500000 0.27200000 0.33084800
v 0.46500000 0.27200000 0.55002930
v -0.46500000 0.27200000 0.55002930
v 0.46500000 0.27200000 0.33084800
v 0.46500000 0.31400000 0.33084800
v 0.46500000 0.31400000 0.55002930
v 0.46500000 0.27200000 0.33084800
v 0.46500000 0.31400000 0.55002930
v 0.46500000 0.27200000 0.55002930
v 0.46500000 0.31400000 0.33084800
v -0.46500000 0.31400000 0.33084800
v -0.46500000 0.31400000 0.55002930
v 0.46500000 0.31400000 0.33084800
v -0.46500000 0.31400000 0.55002930
v 0.46500000 0.31400000 0.55002930
v -0.46500000 0.31400000 0.33084800
v -0.46500000 0.27200000 0.33084800
v -0.46500000 0.27200000 0.55002930
v -0.46500000 0.31400000 0.33084800
v -0.46500000 0.27200000 0.55002930
v -0.46500000 0.31400000 0.55002930
v -0.46500000 0.27200000 0.55002930
v 0.46500000 0.27200000 0.55002930
v 0.46500000 0.31400000 0.55002930
v -0.46500000 0.27200000 0.55002930
v 0.46500000 0.31400000 0.55002930
v -0.46500000 0.31400000 0.55002930
v -0.46500000 0.27200000 0.55669600
v -0.46500000 0.31400000 0.55669600
v 0.46500000 0.31400000 0.55669600
v -0.46500000 0.27200000 0.55669600
v 0.46500000 0.31400000 0.55669600
v 0.46500000 0.27200000 0.55669600
v -0.46500000 0.27200000 0.55669600
v 0.46500000 0.27200000 0.55669600
v 0.46500000 0.27200000 0.77587730
v -0.46500000 0.27200000 0.55669600
v 0.46500000 0.27200000 0.77587730
v -0.46500000 0.27200000 0.77587730
v 0.46500000 0.27200000 0.55669600
v 0.46500000 0.31400000 0.55669600
v 0.46500000 0.31400000 0.77587730
v 0.46500000 0.27200000 0.55669600
v 0.46500000 0.31400000 0.77587730
v 0.46500000 0.27200000 0.77587730
v 0.46500000 0.31400000 0.55669600
v -0.46500000 0.31400000 0.55669600
v -0.46500000 0.31400000 0.77587730
v 0.46500000 0.31400000 0.55669600
v -0.46500000 0.31400000 0.77587730
v 0.46500000 0.31400000 0.77587730
v -0.46500000 0.31400000 0.55669600
v -0.46500000 0.27200000 0.55669600
v -0.46500000 0.27200000 0.77587730
v -0.46500000 0.31400000 0.55669600
v -0.46500000 0.27200000 0.77587730
v -0.46500000 0.31400000 0.77587730
v -0.46500000 0.27200000 0.77587730
v 0.46500000 0.27200000 0.77587730
v 0.46500000 0.31400000 0.77587730
v -0.46500000 0.27200000 0.77587730
v 0.46500000 0.31400000 0.77587730
v -0.46500000 0.31400000 0.77587730
v -0.44500000 -0.48000000 0.90254400
v 0.44500000 -0.48000000 0.90254400
v 0.44500000 -0.48000000 1.67754400
v -0.44500000 -0.48000000 0.90254400
v 0.44500000 -0.48000000 1.67754400
v 0.36500000 -0.48000000 1.78754400
v -0.44500000 -0.48000000 0.90254400
v 0.36500000 -0.48000000 1.78754400
v 0.22500000 -0.48000000 1.85254400
v -0.44500000 -0.48000000 0.90254400
v 0.22500000 -0.48000000 1.85254400
v -0.22500000 -0.48000000 1.85254400
v -0.44500000 -0.48000000 0.90254400
v -0.22500000 -0.48000000 1.85254400
v -0.36500000 -0.48000000 1.78754400
v -0.44500000 -0.48000000 0.90254400
v -0.36500000 -0.48000000 1.78754400
v -0.44500000 -0.48000000 1.67754400
v -0.44500000 -0.43000000 1.67754400
v -0.36500000 -0.43000000 1.78754400
v -0.22500000 -0.43000000 1.85254400
v -0.44500000 -0.43000000 1.67754400
v -0.22500000 -0.43000000 1.85254400
v 0.22500000 -0.43000000 1.85254400
v -0.44500000 -0.43000000 1.67754400
v 0.22500000 -0.43000000 1.85254400
v 0.36500000 -0.43000000 1.78754400
v -0.44500000 -0.43000000 1.67754400
v 0.36500000 -0.43000000 1.78754400
v 0.44500000 -0.43000000 1.67754400
v -0.44500000 -0.43000000 1.67754400
v 0.44500000 -0.43000000 1.67754400
v 0.44500000 -0.43000000 0.90254400
v -0.44500000 -0.43000000 1.67754400
v 0.44500000 -0.43000000 0.90254400
v -0.44500000 -0.43000000 0.90254400
v -0.44500000 -0.48000000 0.90254400
v -0.44500000 -0.43000000 0.90254400
v 0.44500000 -0.43000000 0.90254400
v -0.44500000 -0.48000000 0.90254400
v 0.44500000 -0.43000000 0.90254400
v 0.44500000 -0.48000000 0.90254400
v 0.44500000 -0.48000000 0.90254400
v 0.44500000 -0.43000000 0.90254400
v 0.44500000 -0.43000000 1.67754400
v 0.44500000 -0.48000000 0.90254400
v 0.44500000 -0.43000000 1.67754400
v 0.44500000 -0.48000000 1.67754400
v 0.44500000 -0.48000000 1.67754400
v 0.44500000 -0.43000000 1.67754400
v 0.36500000 -0.43000000 1.78754400
v 0.44500000 -0.48000000 1.67754400
v 0.36500000 -0.43000000 1.78754400
v 0.36500000 -0.48000000 1.78754400
v 0.36500000 -0.48000000 1.78754400
v 0.36500000 -0.43000000 1.78754400
v 0.22500000 -0.43000000 1.85254400
v 0.36500000 -0.48000000 1.78754400
v 0.22500000 -0.43000000 1.85254400
v 0.22500000 -0.48000000 1.85254400
v 0.22500000 -0.48000000 1.85254400
v 0.22500000 -0.43000000 1.85254400
v -0.22500000 -0.43000000 1.85254400
v 0.22500000 -0.48000000 1.85254400
v -0.22500000 -0.43000000 1.85254400
v -0.22500000 -0.48000000 1.85254400
v -0.22500000 -0.48000000 1.85254400
v -0.22500000 -0.43000000 1.85254400
v -0.36500000 -0.43000000 1.78754400
v -0.22500000 -0.48000000 1.85254400
v -0.36500000 -0.43000000 1.78754400
v -0.36500000 -0.48000000 1.78754400
v -0.36500000 -0.48000000 1.78754400
v -0.36500000 -0.43000000 1.78754400
v -0.44500000 -0.43000000 1.67754400
v -0.36500000 -0.48000000 1.78754400
v -0.44500000 -0.43000000 1.67754400
v -0.44500000 -0.48000000 1.67754400
v -0.44500000 -0.48000000 1.67754400
v -0.44500000 -0.43000000 1.67754400
v -0.44500000 -0.43000000 0.90254400
v -0.44500000 -0.48000000 1.67754400
v -0.44500000 -0.43000000 0.90254400
v -0.44500000 -0.48000000 0.90254400
v -0.43500000 -0.43500000 0.00000000
v -0.43500000 -0.36500000 0.00000000
v -0.36500000 -0.36500000 0.00000000
v -0.43500000 -0.43500000 0.00000000
v -0.36500000 -0.36500000 0.00000000
v -0.36500000 -0.43500000 0.00000000
v -0.43500000 -0.43500000 0.00000000
v -0.36500000 -0.43500000 0.00000000
v -0.36500000 -0.43500000 0.11000000
v -0.43500000 -0.43500000 0.00000000
v -0.36500000 -0.43500000 0.11000000
v -0.43500000 -0.43500000 0.11000000
v -0.36500000 -0.43500000 0.00000000
v -0.36500000 -0.36500000 0.00000000
v -0.36500000 -0.36500000 0.11000000
v -0.36500000 -0.43500000 0.00000000
v -0.36500000 -0.36500000 0.11000000
v -0.36500000 -0.43500000 0.11000000
v -0.36500000 -0.36500000 0.00000000
v -0.43500000 -0.36500000 0.00000000
v -0.43500000 -0.36500000 0.11000000
v -0.36500000 -0.36500000 0.00000000
v -0.43500000 -0.36500000 0.11000000
v -0.36500000 -0.36500000 0.11000000
v -0.43500000 -0.36500000 0.00000000
v -0.43500000 -0.43500000 0.00000000
v -0.43500000 -0.43500000 0.11000000
v -0.43500000 -0.36500000 0.00000000
v -0.43500000 -0.43500000 0.11000000
v -0.43500000 -0.36500000 0.11000000
v -0.43500000 0.17500000 0.00000000
v -0.43500000 0.24500000 0.00000000
v -0.36500000 0.24500000 0.00000000
v -0.43500000 0.17500000 0.00000000
v -0.36500000 0.24500000 0.00000000
v -0.36500000 0.17500000 0.00000000
v -0.43500000 0.17500000 0.00000000
v -0.36500000 0.17500000 0.00000000
v -0.36500000 0.17500000 0.11000000
v -0.43500000 0.17500000 0.00000000
v -0.36500000 0.17500000 0.11000000
v -0.43500000 0.17500000 0.11000000
v -0.36500000 0.17500000 0.00000000
v -0.36500000 0.24500000 0.00000000
v -0.36500000 0.24500000 0.11000000
v -0.36500000 0.17500000 0.00000000
v -0.36500000 0.24500000 0.11000000
v -0.36500000 0.17500000 0.11000000
v -0.36500000 0.24500000 0.00000000
v -0.43500000 0.24500000 0.00000000
v -0.43500000 0.24500000 0.11000000
v -0.36500000 0.24500000 0.00000000
v -0.43500000 0.24500000 0.11000000
v -0.36500000 0.24500000 0.11000000
v -0.43500000 0.24500000 0.00000000
v -0.43500000 0.17500000 0.00000000
v -0.43500000 0.17500000 0.11000000
v -0.43500000 0.24500000 0.00000000
v -0.43500000 0.17500000 0.11000000
v -0.43500000 0.24500000 0.11000000
v 0.36500000 -0.43500000 0.00000000
v 0.36500000 -0.36500000 0.00000000
v 0.43500000 -0.36500000 0.00000000
v 0.36500000 -0.43500000 0.00000000
v 0.43500000 -0.36500000 0.00000000
v 0.43500000 -0.43500000 0.00000000
v 0.36500000 -0.43500000 0.00000000
v 0.43500000 -0.43500000 0.00000000
v 0.43500000 -0.43500000 0.11000000
v 0.36500000 -0.43500000 0.00000000
v 0.43500000 -0.43500000 0.11000000
v 0.36500000 -0.43500000 0.11000000
v 0.43500000 -0.43500000 0.00000000
v 0.43500000 -0.36500000 0.00000000
v 0.43500000 -0.36500000 0.11000000
v 0.43500000 -0.43500000 0.00000000
v 0.43500000 -0.36500000 0.11000000
v 0.43500000 -0.43500000 0.11000000
v 0.43500000 -0.36500000 0.00000000
v 0.36500000 -0.36500000 0.00000000
v 0.36500000 -0.36500000 0.11000000
v 0.43500000 -0.36500000 0.00000000
v 0.36500000 -0.36500000 0.11000000
v 0.43500000 -0.36500000 0.11000000
v 0.36500000 -0.36500000 0.00000000
v 0.36500000 -0.43500000 0.00000000
v 0.36500000 -0.43500000 0.11000000
v 0.36500000 -0.36500000 0.00000000
v 0.36500000 -0.43500000 0.11000000
v 0.36500000 -0.36500000 0.11000000
v 0.36500000 0.17500000 0.00000000
v 0.36500000 0.24500000 0.00000000
v 0.43500000 0.24500000 0.00000000
v 0.36500000 0.17500000 0.00000000
v 0.43500000 0.24500000 0.00000000
v 0.43500000 0.17500000 0.00000000
v 0.36500000 0.17500000 0.00000000
v 0.43500000 0.17500000 0.00000000
v 0.43500000 0.17500000 0.11000000
v 0.36500000 0.17500000 0.00000000
v 0.43500000 0.17500000 0.11000000
v 0.36500000 0.17500000 0.11000000
v 0.43500000 0.17500000 0.00000000
v 0.43500000 0.24500000 0.00000000
v 0.43500000 0.24500000 0.11000000
v 0.43500000 0.17500000 0.00000000
v 0.43500000 0.24500000 0.11000000
v 0.43500000 0.17500000 0.11000000
v 0.43500000 0.24500000 0.00000000
v 0.36500000 0.24500000 0.00000000
v 0.36500000 0.24500000 0.11000000
v 0.43500000 0.24500000 0.00000000
v 0.36500000 0.24500000 0.11000000
v 0.43500000 0.24500000 0.11000000
v 0.36500000 0.24500000 0.00000000
v 0.36500000 0.17500000 0.00000000
v 0.36500000 0.17500000 0.11000000
v 0.36500000 0.24500000 0.00000000
v 0.36500000 0.17500000 0.11000000
v 0.36500000 0.24500000 0.11000000
vn 0.00000000 -1.00000000 0.00000000
vn 0.00000000 -1.00000000 0.00000000
vn 0.00000000 -1.00000000 0.00000000
vn 0.00000000 -1.00000000 0.00000000
vn 0.00000000 -1.00000000 0.00000000
vn 0.00000000 -1.00000000 0.00000000
vn 1.00000000 0.00000000 0.00000000
vn 1.00000000 0.00000000 0.00000000
vn 1.00000000 0.00000000 0.00000000
vn 1.00000000 0.00000000 0.00000000
vn 1.00000000 0.00000000 0.00000000
vn 1.00000000 0.00000000 0.00000000
vn 0.00000000 1.00000000 0.00000000
vn 0.00000000 1.00000000 0.00000000
vn 0.00000000 1.00000000 0.00000000
vn 0.00000000 1.00000000 -0.00000000
vn 0.00000000 1.00000000 -0.00000000
vn 0.00000000 1.00000000 -0.00000000
vn -1.00000000 0.00000000 0.00000000
vn -1.00000000 0.00000000 0.00000000
vn -1.00000000 0.00000000 0.00000000
vn -1.00000000 0.00000000 0.00000000
vn -1.00000000 0.00000000 0.00000000
vn -1.00000000 0.00000000 0.00000000
vn 0.00000000 0.00000000 1.00000000
vn 0.00000000 0.00000000 1.00000000
vn 0.00000000 0.00000000 1.00000000
vn 0.00000000 0.00000000 1.00000000
vn 0.00000000 0.00000000 1.00000000
vn 0.00000000 0.00000000 1.00000000
vn 0.00000000 0.00000000 -1.00000000
vn 0.00000000 0.00000000 -1.00000000
vn 0.00000000 0.00000000 -1.00000000
vn 0.00000000 0.00000000 -1.00000000
vn 0.00000000 0.00000000 -1.00000000
vn 0.00000000 0.00000000 -1.00000000
vn 0.00000000 -1.00000000 0.00000000
vn 0.00000000 -1.00000000 0.00000000
vn 0.00000000 -1.00000000 0.00000000
vn 0.00000000 -1.00000000 0.00000000
vn 0.00000000 -1.00000000 0.00000000
vn 0.00000000 -1.00000000 0.00000000
vn 1.00000000 0.00000000 0.00000000
vn 1.00000000 0.00000000 0.00000000
vn 1.00000000 0.00000000 0.00000000
vn 1.00000000 0.00000000 0.00000000
vn 1.00000000 0.00000000 0.00000000
vn 1.00000000 0.00000000 0.00000000
vn 0.00000000 1.00000000 0.00000000
vn 0.00000000 1.00000000 0.00000000
vn 0.00000000 1.00000000 0.00000000
vn 0.00000000 1.00000000 -0.00000000
vn 0.00000000 1.00000000 -0.00000000
vn 0.00000000 1.00000000 -0.00000000
vn -1.00000000 0.00000000 0.00000000
vn -1.00000000 0.00000000 0.00000000
vn -1.00000000 0.00000000 0.00000000
vn -1.00000000 0.00000000 0.00000000
vn -1.00000000 0.00000000 0.00000000
vn -1.00000000 0.00000000 0.00000000
vn 0.00000000 0.00000000 1.00000000
vn 0.00000000 0.00000000 1.00000000
vn 0.00000000 0.00000000 1.00000000
vn 0.00000000 0.00000000 1.00000000
vn 0.00000000 0.00000000 1.00000000
vn 0.00000000 0.00000000 1.00000000
vn 0.00000000 0.00000000 -1.00000000
vn 0.00000000 0.00000000 -1.00000000
vn 0.00000000 0.00000000 -1.00000000
vn 0.00000000 0.00000000 -1.00000000
vn 0.00000000 0.00000000 -1.00000000
vn 0.00000000 0.00000000 -1.00000000
vn 0.00000000 -1.00000000 0.00000000
vn 0.00000000 -1.00000000 0.00000000
vn 0.00000000 -1.00000000 0.00000000
vn 0.00000000 -1.00000000 0.00000000
vn 0.00000000 -1.00000000 0.00000000
vn 0.00000000 -1.00000000 0.00000000
vn 1.00000000 0.00000000 0.00000000
vn 1.00000000 0.00000000 0.00000000
vn 1.00000000 0.00000000 0.00000000
vn 1.00000000 0.00000000 0.00000000
vn 1.00000000 0.00000000 0.00000000
vn 1.00000000 0.00000000 0.00000000
vn 0.00000000 1.00000000 0.00000000
vn 0.00000000 1.00000000 0.00000000
vn 0.00000000 1.00000000 0.00000000
vn 0.00000000 1.00000000 -0.00000000
vn 0.00000000 1.00000000 -0.00000000
vn 0.00000000 1.00000000 -0.00000000
vn -1.00000000 0.00000000 0.00000000
vn -1.00000000 0.00000000 0.00000000
vn -1.00000000 0.00000000 0.00000000
vn -1.00000000 0.00000000 0.00000000
vn -1.00000000 0.00000000 0.00000000
vn -1.00000000 0.00000000 0.00000000
vn 0.00000000 0.00000000 1.00000000
vn 0.00000000 0.00000000 1.00000000
vn 0.00000000 0.00000000 1.00000000
vn 0.00000000 0.00000000 1.00000000
vn 0.00000000 0.00000000 1.00000000
vn 0.00000000 0.00000000 1.00000000
vn 0.00000000 0.00000000 -1.00000000
vn 0.00000000 0.00000000 -1.00000000
vn 0.00000000 0.00000000 -1.00000000
vn 0.00000000 0.00000000 -1.00000000
vn 0.00000000 0.00000000 -1.00000000
vn 0.00000000 0.00000000 -1.00000000
vn 0.00000000 -1.00000000 0.00000000
vn 0.00000000 -1.00000000 0.00000000
vn 0.00000000 -1.00000000 0.00000000
vn 0.00000000 -1.00000000 0.00000000
vn 0.00000000 -1.00000000 0.00000000
vn 0.00000000 -1.00000000 0.00000000
vn 1.00000000 0.00000000 0.00000000
vn 1.00000000 0.00000000 0.00000000
vn 1.00000000 0.00000000 0.00000000
vn 1.00000000 0.00000000 0.00000000
vn 1.00000000 0.00000000 0.00000000
vn 1.00000000 0.00000000 0.00000000
vn 0.00000000 1.00000000 0.00000000
vn 0.00000000 1.00000000 0.00000000
vn 0.00000000 1.00000000 0.00000000
vn 0.00000000 1.00000000 -0.00000000
vn 0.00000000 1.00000000 -0.00000000
vn 0.00000000 1.00000000 -0.00000000
vn -1.00000000 0.00000000 0.00000000
vn -1.00000000 0.00000000 0.00000000
vn -1.00000000 0.00000000 0.00000000
vn -1.00000000 0.00000000 0.00000000
vn -1.00000000 0.00000000 0.00000000
vn -1.00000000 0.00000000 0.00000000
vn 0.00000000 0.00000000 1.00000000
vn 0.00000000 0.00000000 1.00000000
vn 0.00000000 0.00000000 1.00000000
vn 0.00000000 0.00000000 1.00000000
vn 0.00000000 0.00000000 1.00000000
vn 0.00000000 0.00000000 1.00000000
vn 0.00000000 0.00000000 -1.00000000
vn 0.00000000 0.00000000 -1.00000000
vn 0.00000000 0.00000000 -1.00000000
vn 0.00000000 0.00000000 -1.00000000
vn 0.00000000 0.00000000 -1.00000000
vn 0.00000000 0.00000000 -1.00000000
vn 0.00000000 -1.00000000 0.00000000
vn 0.00000000 -1.00000000 0.00000000
vn 0.00000000 -1.00000000 0.00000000
vn 0.00000000 -1.00000000 0.00000000
vn 0.00000000 -1.00000000 0.00000000
vn 0.00000000 -1.00000000 0.00000000
vn 1.00000000 0.00000000 0.00000000
vn 1.00000000 0.00000000 0.00000000
vn 1.00000000 0.00000000 0.00000000
vn 1.00000000 0.00000000 0.00000000
vn 1.00000000 0.00000000 0.00000000
vn 1.00000000 0.00000000 0.00000000
vn 0.00000000 1.00000000 0.00000000
vn 0.00000000 1.00000000 0.00000000
vn 0.00000000 1.00000000 0.00000000
vn 0.00000000 1.00000000 -0.00000000
vn 0.00000000 1.00000000 -0.00000000
vn 0.00000000 1.00000000 -0.00000000
vn -1.00000000 0.00000000 0.00000000
vn -1.00000000 0.00000000 0.00000000
vn -1.00000000 0.00000000 0.00000000
vn -1.00000000 0.00000000 0.00000000
vn -1.00000000 0.00000000 0.00000000
vn -1.00000000 0.00000000 0.00000000
vn 0.00000000 0.00000000 1.00000000
vn 0.00000000 0.00000000 1.00000000
vn 0.00000000 0.00000000 1.00000000
vn 0.00000000 0.00000000 1.00000000
vn 0.00000000 0.00000000 1.00000000
vn 0.00000000 0.00000000 1.00000000
vn 0.00000000 0.00000000 -1.00000000
vn 0.00000000 0.00000000 -1.00000000
vn 0.00000000 0.00000000 -1.00000000
vn 0.00000000 0.00000000 -1.00000000
vn 0.00000000 0.00000000 -1.00000000
vn 0.00000000 0.00000000 -1.00000000
vn 0.00000000 -1.00000000 0.00000000
vn 0.00000000 -1.00000000 0.00000000
vn 0.00000000 -1.00000000 0.00000000
vn 0.00000000 -1.00000000 0.00000000
vn 0.00000000 -1.00000000 0.00000000
vn 0.00000000 -1.00000000 0.00000000
vn 1.00000000 0.00000000 0.00000000
vn 1.00000000 0.00000000 0.00000000
vn 1.00000000 0.00000000 0.00000000
vn 1.00000000 0.00000000 0.00000000
vn 1.00000000 0.00000000 0.00000000
vn 1.00000000 0.00000000 0.00000000
vn 0.00000000 1.00000000 0.00000000
vn 0.00000000 1.00000000 0.00000000
vn 0.00000000 1.00000000 0.00000000
vn 0.00000000 1.00000000 -0.00000000
vn 0.00000000 1.00000000 -0.00000000
vn 0.00000000 1.00000000 -0.00000000
vn -1.00000000 0.00000000 0.00000000
vn -1.00000000 0.00000000 0.00000000
vn -1.00000000 0.00000000 0.00000000
vn -1.00000000 0.00000000 0.00000000
vn -1.00000000 0.00000000 0.00000000
vn -1.00000000 0.00000000 0.00000000
vn 0.00000000 0.00000000 1.00000000
vn 0.00000000 0.00000000 1.00000000
vn 0.00000000 0.00000000 1.00000000
vn 0.00000000 0.00000000 1.00000000
vn 0.00000000 0.00000000 1.00000000
vn 0.00000000 0.00000000 1.00000000
vn 0.00000000 -1.00000000 0.00000000
vn 0.00000000 -1.00000000 0.00000000
vn 0.00000000 -1.00000000 0.00000000
vn 0.00000000 -1.00000000 0.00000000
vn 0.00000000 -1.00000000 0.00000000
vn 0.00000000 -1.00000000 0.00000000
vn 0.00000000 -1.00000000 0.00000000
vn 0.00000000 -1.00000000 0.00000000
vn 0.00000000 -1.00000000 0.00000000
vn 0.00000000 -1.00000000 0.00000000
vn 0.00000000 -1.00000000 0.00000000
vn 0.00000000 -1.00000000 0.00000000
vn 0.00000000 -1.00000000 0.00000000
vn 0.00000000 -1.00000000 0.00000000
vn 0.00000000 -1.00000000 0.00000000
vn 0.00000000 -1.00000000 0.00000000
vn 0.00000000 -1.00000000 0.00000000
vn 0.00000000 -1.00000000 0.00000000
vn 0.00000000 1.00000000 0.00000000
vn 0.00000000 1.00000000 0.00000000
vn 0.00000000 1.00000000 0.00000000
vn 0.00000000 1.00000000 0.00000000
vn 0.00000000 1.00000000 0.00000000
vn 0.00000000 1.00000000 0.00000000
vn 0.00000000 1.00000000 0.00000000
vn 0.00000000 1.00000000 0.00000000
vn 0.00000000 1.00000000 0.00000000
vn 0.00000000 1.00000000 0.00000000
vn 0.00000000 1.00000000 0.00000000
vn 0.00000000 1.00000000 0.00000000
vn -0.00000000 1.00000000 0.00000000
vn -0.00000000 1.00000000 0.00000000
vn -0.00000000 1.00000000 0.00000000
vn 0.00000000 1.00000000 0.00000000
vn 0.00000000 1.00000000 0.00000000
vn 0.00000000 1.00000000 0.00000000
vn 0.00000000 0.00000000 -1.00000000
vn 0.00000000 0.00000000 -1.00000000
vn 0.00000000 0.00000000 -1.00000000
vn 0.00000000 0.00000000 -1.00000000
vn 0.00000000 0.00000000 -1.00000000
vn 0.00000000 0.00000000 -1.00000000
vn 1.00000000 0.00000000 0.00000000
vn 1.00000000 0.00000000 0.00000000
vn 1.00000000 0.00000000 0.00000000
vn 1.00000000 0.00000000 0.00000000
vn 1.00000000 0.00000000 0.00000000
vn 1.00000000 0.00000000 0.00000000
vn 0.80873608 -0.00000000 0.58817170
vn 0.80873608 -0.00000000 0.58817170
vn 0.80873608 -0.00000000 0.58817170
vn 0.80873608 0.00000000 0.58817170
vn 0.80873608 0.00000000 0.58817170
vn 0.80873608 0.00000000 0.58817170
vn 0.42111131 -0.00000000 0.90700897
vn 0.42111131 -0.00000000 0.90700897
vn 0.42111131 -0.00000000 0.90700897
vn 0.42111131 0.00000000 0.90700897
vn 0.42111131 0.00000000 0.90700897
vn 0.42111131 0.00000000 0.90700897
vn 0.00000000 -0.00000000 1.00000000
vn 0.00000000 -0.00000000 1.00000000
vn 0.00000000 -0.00000000 1.00000000
vn 0.00000000 0.00000000 1.00000000
vn 0.00000000 0.00000000 1.00000000
vn 0.00000000 0.00000000 1.00000000
vn -0.42111131 0.00000000 0.90700897
vn -0.42111131 0.00000000 0.90700897
vn -0.42111131 0.00000000 0.90700897
vn -0.42111131 0.00000000 0.90700897
vn -0.42111131 0.00000000 0.90700897
vn -0.42111131 0.00000000 0.90700897
vn -0.80873608 0.00000000 0.58817170
vn -0.80873608 0.00000000 0.58817170
vn -0.80873608 0.00000000 0.58817170
vn -0.80873608 0.00000000 0.58817170
vn -0.80873608 0.00000000 0.58817170
vn -0.80873608 0.00000000 0.58817170
vn -1.00000000 0.00000000 0.00000000
vn -1.00000000 0.00000000 0.00000000
vn -1.00000000 0.00000000 0.00000000
vn -1.00000000 0.00000000 0.00000000
vn -1.00000000 0.00000000 0.00000000
vn -1.00000000 0.00000000 0.00000000
vn 0.00000000 0.00000000 -1.00000000
vn 0.00000000 0.00000000 -1.00000000
vn 0.00000000 0.00000000 -1.00000000
vn 0.00000000 0.00000000 -1.00000000
vn 0.00000000 0.00000000 -1.00000000
vn 0.00000000 0.00000000 -1.00000000
vn 0.00000000 -1.00000000 0.00000000
vn 0.00000000 -1.00000000 0.00000000
vn 0.00000000 -1.00000000 0.00000000
vn 0.00000000 -1.00000000 0.00000000
vn 0.00000000 -1.00000000 0.00000000
vn 0.00000000 -1.00000000 0.00000000
vn 1.00000000 0.00000000 0.00000000
vn 1.00000000 0.00000000 0.00000000
vn 1.00000000 0.00000000 0.00000000
vn 1.00000000 0.00000000 0.00000000
vn 1.00000000 0.00000000 0.00000000
vn 1.00000000 0.00000000 0.00000000
vn 0.00000000 1.00000000 0.00000000
vn 0.00000000 1.00000000 0.00000000
vn 0.00000000 1.00000000 0.00000000
vn 0.00000000 1.00000000 -0.00000000
vn 0.00000000 1.00000000 -0.00000000
vn 0.00000000 1.00000000 -0.00000000
vn -1.00000000 0.00000000 0.00000000
vn -1.00000000 0.00000000 0.00000000
vn -1.00000000 0.00000000 0.00000000
vn -1.00000000 0.00000000 0.00000000
vn -1.00000000 0.00000000 0.00000000
vn -1.00000000 0.00000000 0.00000000
vn 0.00000000 0.00000000 -1.00000000
vn 0.00000000 0.00000000 -1.00000000
vn 0.00000000 0.00000000 -1.00000000
vn 0.00000000 0.00000000 -1.00000000
vn 0.00000000 0.00000000 -1.00000000
vn 0.00000000 0.00000000 -1.00000000
vn 0.00000000 -1.00000000 0.00000000
vn 0.00000000 -1.00000000 0.00000000
vn 0.00000000 -1.00000000 0.00000000
vn 0.00000000 -1.00000000 0.00000000
vn 0.00000000 -1.00000000 0.00000000
vn 0.00000000 -1.00000000 0.00000000
vn 1.00000000 0.00000000 0.00000000
vn 1.00000000 0.00000000 0.00000000
vn 1.00000000 0.00000000 0.00000000
vn 1.00000000 0.00000000 0.00000000
vn 1.00000000 0.00000000 0.00000000
vn 1.00000000 0.00000000 0.00000000
vn 0.00000000 1.00000000 0.00000000
vn 0.00000000 1.00000000 0.00000000
vn 0.00000000 1.00000000 0.00000000
vn 0.00000000 1.00000000 -0.00000000
vn 0.00000000 1.00000000 -0.00000000
vn 0.00000000 1.00000000 -0.00000000
vn -1.00000000 0.00000000 0.00000000
vn -1.00000000 0.00000000 0.00000000
vn -1.00000000 0.00000000 0.00000000
vn -1.00000000 0.00000000 0.00000000
vn -1.00000000 0.00000000 0.00000000
vn -1.00000000 0.00000000 0.00000000
vn 0.00000000 0.00000000 -1.00000000
vn 0.00000000 0.00000000 -1.00000000
vn 0.00000000 0.00000000 -1.00000000
vn 0.00000000 0.00000000 -1.00000000
vn 0.00000000 0.00000000 -1.00000000
vn 0.00000000 0.00000000 -1.00000000
vn 0.00000000 -1.00000000 0.00000000
vn 0.00000000 -1.00000000 0.00000000
vn 0.00000000 -1.00000000 0.00000000
vn 0.00000000 -1.00000000 0.00000000
vn 0.00000000 -1.00000000 0.00000000
vn 0.00000000 -1.00000000 0.00000000
vn 1.00000000 0.00000000 0.00000000
vn 1.00000000 0.00000000 0.00000000
vn 1.00000000 0.00000000 0.00000000
vn 1.00000000 0.00000000 0.00000000
vn 1.00000000 0.00000000 0.00000000
vn 1.00000000 0.00000000 0.00000000
vn 0.00000000 1.00000000 0.00000000
vn 0.00000000 1.00000000 0.00000000
vn 0.00000000 1.00000000 0.00000000
vn 0.00000000 1.00000000 -0.00000000
vn 0.00000000 1.00000000 -0.00000000
vn 0.00000000 1.00000000 -0.00000000
vn -1.00000000 0.00000000 0.00000000
vn -1.00000000 0.00000000 0.00000000
vn -1.00000000 0.00000000 0.00000000
vn -1.00000000 0.00000000 0.00000000
vn -1.00000000 0.00000000 0.00000000
vn -1.00000000 0.00000000 0.00000000
vn 0.00000000 0.00000000 -1.00000000
vn 0.00000000 0.00000000 -1.00000000
vn 0.00000000 0.00000000 -1.00000000
vn 0.00000000 0.00000000 -1.00000000
vn 0.00000000 0.00000000 -1.00000000
vn 0.00000000 0.00000000 -1.00000000
vn 0.00000000 -1.00000000 0.00000000
vn 0.00000000 -1.00000000 0.00000000
vn 0.00000000 -1.00000000 0.00000000
vn 0.00000000 -1.00000000 0.00000000
vn 0.00000000 -1.00000000 0.00000000
vn 0.00000000 -1.00000000 0.00000000
vn 1.00000000 0.00000000 0.00000000
vn 1.00000000 0.00000000 0.00000000
vn 1.00000000 0.00000000 0.00000000
vn 1.00000000 0.00000000 0.00000000
vn 1.00000000 0.00000000 0.00000000
vn 1.00000000 0.00000000 0.00000000
vn 0.00000000 1.00000000 0.00000000
vn 0.00000000 1.00000000 0.00000000
vn 0.00000000 1.00000000 0.00000000
vn 0.00000000 1.00000000 -0.00000000
vn 0.00000000 1.00000000 -0.00000000
vn 0.00000000 1.00000000 -0.00000000
vn -1.00000000 0.00000000 0.00000000
vn -1.00000000 0.00000000 0.00000000
vn -1.00000000 0.00000000 0.00000000
vn -1.00000000 0.00000000 0.00000000
vn -1.00000000 0.00000000 0.00000000
vn -1.00000000 0.00000000 0.00000000
o root
usemtl UV_Base
vt 0.476562500 0.246093750
vt 0.693970960 0.246093750
vt 0.693970960 0.419458460
vt 0.476562500 0.246093750
vt 0.693970960 0.419458460
vt 0.476562500 0.419458460
vt 0.183593750 0.812500000
vt 0.183593750 0.980705492
vt 0.010229040 0.980705492
vt 0.183593750 0.812500000
vt 0.010229040 0.980705492
vt 0.010229040 0.812500000
vt 0.928345960 0.419458460
vt 0.710937500 0.419458460
vt 0.710937500 0.246093750
vt 0.928345960 0.419458460
vt 0.710937500 0.246093750
vt 0.928345960 0.246093750
vt 0.201635290 0.980705492
vt 0.201635290 0.812500000
vt 0.375000000 0.812500000
vt 0.201635290 0.980705492
vt 0.375000000 0.812500000
vt 0.375000000 0.980705492
vt 0.007812500 0.468750000
vt 0.225220960 0.468750000
vt 0.225220960 0.636955492
vt 0.007812500 0.468750000
vt 0.225220960 0.636955492
vt 0.007812500 0.636955492
vt 0.492187500 0.189749053
vt 0.492187500 0.007812500
vt 0.718750000 0.007812500
vt 0.492187500 0.189749053
vt 0.718750000 0.007812500
vt 0.718750000 0.189749053
vt 0.007812500 0.210937500
vt 0.234375000 0.210937500
vt 0.234375000 0.228101326
vt 0.007812500 0.210937500
vt 0.234375000 0.228101326
vt 0.007812500 0.228101326
vt 0.007812500 0.777343750
vt 0.189749053 0.777343750
vt 0.189749053 0.794507576
vt 0.007812500 0.777343750
vt 0.189749053 0.794507576
vt 0.007812500 0.794507576
vt 0.476562500 0.228101326
vt 0.250000000 0.228101326
vt 0.250000000 0.210937500
vt 0.476562500 0.228101326
vt 0.250000000 0.210937500
vt 0.476562500 0.210937500
vt 0.388967803 0.794507576
vt 0.207031250 0.794507576
vt 0.207031250 0.777343750
vt 0.388967803 0.794507576
vt 0.207031250 0.777343750
vt 0.388967803 0.777343750
vt 0.734375000 0.007812500
vt 0.960937500 0.007812500
vt 0.960937500 0.189749053
vt 0.734375000 0.007812500
vt 0.960937500 0.189749053
vt 0.734375000 0.189749053
vt 0.007812500 0.192037563
vt 0.007812500 0.007812500
vt 0.234375000 0.007812500
vt 0.007812500 0.192037563
vt 0.234375000 0.007812500
vt 0.234375000 0.192037563
vt 0.492187500 0.210937500
vt 0.718750000 0.210937500
vt 0.718750000 0.223524306
vt 0.492187500 0.210937500
vt 0.718750000 0.223524306
vt 0.492187500 0.223524306
vt 0.992187500 0.007812500
vt 0.992187500 0.192037563
vt 0.979600694 0.192037563
vt 0.992187500 0.007812500
vt 0.979600694 0.192037563
vt 0.979600694 0.007812500
vt 0.960937500 0.223524306
vt 0.734375000 0.223524306
vt 0.734375000 0.210937500
vt 0.960937500 0.223524306
vt 0.734375000 0.210937500
vt 0.960937500 0.210937500
vt 0.975694444 0.430318813
vt 0.975694444 0.246093750
vt 0.988281250 0.246093750
vt 0.975694444 0.430318813
vt 0.988281250 0.246093750
vt 0.988281250 0.430318813
vt 0.250000000 0.007812500
vt 0.476562500 0.007812500
vt 0.476562500 0.192037563
vt 0.250000000 0.007812500
vt 0.476562500 0.192037563
vt 0.250000000 0.192037563
vt 0.699218750 0.665861742
vt 0.699218750 0.656250000
vt 0.912050189 0.656250000
vt 0.699218750 0.665861742
vt 0.912050189 0.656250000
vt 0.912050189 0.665861742
vt 0.242187500 0.468750000
vt 0.455018939 0.468750000
vt 0.455018939 0.518909862
vt 0.242187500 0.468750000
vt 0.455018939 0.518909862
vt 0.242187500 0.518909862
vt 0.980468750 0.722656250
vt 0.980468750 0.732267992
vt 0.930308888 0.732267992
vt 0.980468750 0.722656250
vt 0.930308888 0.732267992
vt 0.930308888 0.722656250
vt 0.685487689 0.518909862
vt 0.472656250 0.518909862
vt 0.472656250 0.468750000
vt 0.685487689 0.518909862
vt 0.472656250 0.468750000
vt 0.685487689 0.468750000
vt 0.939299242 0.706409862
vt 0.929687500 0.706409862
vt 0.929687500 0.656250000
vt 0.939299242 0.706409862
vt 0.929687500 0.656250000
vt 0.939299242 0.656250000
vt 0.007812500 0.722656250
vt 0.220643939 0.722656250
vt 0.220643939 0.732267992
vt 0.007812500 0.722656250
vt 0.220643939 0.732267992
vt 0.007812500 0.732267992
vt 0.238281250 0.732267992
vt 0.238281250 0.722656250
vt 0.451112689 0.722656250
vt 0.238281250 0.732267992
vt 0.451112689 0.722656250
vt 0.451112689 0.732267992
vt 0.703125000 0.468750000
vt 0.915956439 0.468750000
vt 0.915956439 0.518909862
vt 0.703125000 0.468750000
vt 0.915956439 0.518909862
vt 0.703125000 0.518909862
vt 0.957031250 0.656250000
vt 0.966642992 0.656250000
vt 0.966642992 0.706409862
vt 0.957031250 0.656250000
vt 0.966642992 0.706409862
vt 0.957031250 0.706409862
vt 0.220643939 0.706409862
vt 0.007812500 0.706409862
vt 0.007812500 0.656250000
vt 0.220643939 0.706409862
vt 0.007812500 0.656250000
vt 0.220643939 0.656250000
vt 0.863902638 0.759611742
vt 0.863902638 0.750000000
vt 0.914062500 0.750000000
vt 0.863902638 0.759611742
vt 0.914062500 0.750000000
vt 0.914062500 0.759611742
vt 0.468750000 0.722656250
vt 0.681581439 0.722656250
vt 0.681581439 0.732267992
vt 0.468750000 0.722656250
vt 0.681581439 0.732267992
vt 0.468750000 0.732267992
vt 0.699218750 0.732267992
vt 0.699218750 0.722656250
vt 0.912050189 0.722656250
vt 0.699218750 0.732267992
vt 0.912050189 0.722656250
vt 0.912050189 0.732267992
vt 0.238281250 0.656250000
vt 0.451112689 0.656250000
vt 0.451112689 0.706409862
vt 0.238281250 0.656250000
vt 0.451112689 0.706409862
vt 0.238281250 0.706409862
vt 0.980468750 0.750000000
vt 0.980468750 0.759611742
vt 0.930308888 0.759611742
vt 0.980468750 0.750000000
vt 0.930308888 0.759611742
vt 0.930308888 0.750000000
vt 0.681581439 0.706409862
vt 0.468750000 0.706409862
vt 0.468750000 0.656250000
vt 0.681581439 0.706409862
vt 0.468750000 0.656250000
vt 0.681581439 0.656250000
vt 0.406871388 0.786955492
vt 0.406871388 0.777343750
vt 0.457031250 0.777343750
vt 0.406871388 0.786955492
vt 0.457031250 0.777343750
vt 0.457031250 0.786955492
vt 0.007812500 0.750000000
vt 0.220643939 0.750000000
vt 0.220643939 0.759611742
vt 0.007812500 0.750000000
vt 0.220643939 0.759611742
vt 0.007812500 0.759611742
vt 0.226562500 0.246093750
vt 0.226562500 0.449771149
vt 0.049202967 0.449771149
vt 0.226562500 0.246093750
vt 0.049202967 0.449771149
vt 0.024029356 0.431463068
vt 0.226562500 0.246093750
vt 0.024029356 0.431463068
vt 0.009154040 0.399423927
vt 0.226562500 0.246093750
vt 0.009154040 0.399423927
vt 0.009154040 0.296440972
vt 0.226562500 0.246093750
vt 0.009154040 0.296440972
vt 0.024029356 0.264401831
vt 0.226562500 0.246093750
vt 0.024029356 0.264401831
vt 0.049202967 0.246093750
vt 0.420888573 0.246093750
vt 0.446062184 0.264401831
vt 0.460937500 0.296440972
vt 0.420888573 0.246093750
vt 0.460937500 0.296440972
vt 0.460937500 0.399423927
vt 0.420888573 0.246093750
vt 0.460937500 0.399423927
vt 0.446062184 0.431463068
vt 0.420888573 0.246093750
vt 0.446062184 0.431463068
vt 0.420888573 0.449771149
vt 0.420888573 0.246093750
vt 0.420888573 0.449771149
vt 0.243529040 0.449771149
vt 0.420888573 0.246093750
vt 0.243529040 0.449771149
vt 0.243529040 0.246093750
vt 0.945588699 0.246093750
vt 0.957031250 0.246093750
vt 0.957031250 0.449771149
vt 0.945588699 0.246093750
vt 0.957031250 0.449771149
vt 0.945588699 0.449771149
vt 0.417968750 0.750000000
vt 0.417968750 0.761442551
vt 0.240609217 0.761442551
vt 0.417968750 0.750000000
vt 0.240609217 0.761442551
vt 0.240609217 0.750000000
vt 0.847656250 0.750000000
vt 0.847656250 0.761442551
vt 0.817525239 0.761442551
vt 0.847656250 0.750000000
vt 0.817525239 0.761442551
vt 0.817525239 0.750000000
vt 0.817525239 0.750000000
vt 0.817525239 0.761442551
vt 0.783331682 0.761442551
vt 0.817525239 0.750000000
vt 0.783331682 0.761442551
vt 0.783331682 0.750000000
vt 0.765625000 0.750000000
vt 0.765625000 0.761442551
vt 0.665064664 0.761442551
vt 0.765625000 0.750000000
vt 0.665064664 0.761442551
vt 0.665064664 0.750000000
vt 0.665064664 0.750000000
vt 0.665064664 0.761442551
vt 0.630571688 0.761442551
vt 0.665064664 0.750000000
vt 0.630571688 0.761442551
vt 0.630571688 0.750000000
vt 0.503906250 0.777343750
vt 0.503906250 0.788786301
vt 0.472779147 0.788786301
vt 0.503906250 0.777343750
vt 0.472779147 0.788786301
vt 0.472779147 0.777343750
vt 0.613281250 0.750000000
vt 0.613281250 0.761442551
vt 0.435921717 0.761442551
vt 0.613281250 0.750000000
vt 0.435921717 0.761442551
vt 0.435921717 0.750000000
vt 0.496093750 0.828519571
vt 0.496093750 0.812500000
vt 0.512113321 0.812500000
vt 0.496093750 0.828519571
vt 0.512113321 0.812500000
vt 0.512113321 0.828519571
vt 0.546875000 0.777343750
vt 0.546875000 0.793363321
vt 0.521701389 0.793363321
vt 0.546875000 0.777343750
vt 0.521701389 0.793363321
vt 0.521701389 0.777343750
vt 0.589843750 0.777343750
vt 0.589843750 0.793363321
vt 0.564670139 0.793363321
vt 0.589843750 0.777343750
vt 0.564670139 0.793363321
vt 0.564670139 0.777343750
vt 0.607638889 0.793363321
vt 0.607638889 0.777343750
vt 0.632812500 0.777343750
vt 0.607638889 0.793363321
vt 0.632812500 0.777343750
vt 0.632812500 0.793363321
vt 0.650607639 0.793363321
vt 0.650607639 0.777343750
vt 0.675781250 0.777343750
vt 0.650607639 0.793363321
vt 0.675781250 0.777343750
vt 0.675781250 0.793363321
vt 0.531250000 0.828519571
vt 0.531250000 0.812500000
vt 0.547269571 0.812500000
vt 0.531250000 0.828519571
vt 0.547269571 0.812500000
vt 0.547269571 0.828519571
vt 0.718750000 0.777343750
vt 0.718750000 0.793363321
vt 0.693576389 0.793363321
vt 0.718750000 0.777343750
vt 0.693576389 0.793363321
vt 0.693576389 0.777343750
vt 0.761718750 0.777343750
vt 0.761718750 0.793363321
vt 0.736545139 0.793363321
vt 0.761718750 0.777343750
vt 0.736545139 0.793363321
vt 0.736545139 0.777343750
vt 0.779513889 0.793363321
vt 0.779513889 0.777343750
vt 0.804687500 0.777343750
vt 0.779513889 0.793363321
vt 0.804687500 0.777343750
vt 0.804687500 0.793363321
vt 0.822482639 0.793363321
vt 0.822482639 0.777343750
vt 0.847656250 0.777343750
vt 0.822482639 0.793363321
vt 0.847656250 0.777343750
vt 0.847656250 0.793363321
vt 0.566406250 0.828519571
vt 0.566406250 0.812500000
vt 0.582425821 0.812500000
vt 0.566406250 0.828519571
vt 0.582425821 0.812500000
vt 0.582425821 0.828519571
vt 0.890625000 0.777343750
vt 0.890625000 0.793363321
vt 0.865451389 0.793363321
vt 0.890625000 0.777343750
vt 0.865451389 0.793363321
vt 0.865451389 0.777343750
vt 0.933593750 0.777343750
vt 0.933593750 0.793363321
vt 0.908420139 0.793363321
vt 0.933593750 0.777343750
vt 0.908420139 0.793363321
vt 0.908420139 0.777343750
vt 0.951388889 0.793363321
vt 0.951388889 0.777343750
vt 0.976562500 0.777343750
vt 0.951388889 0.793363321
vt 0.976562500 0.777343750
vt 0.976562500 0.793363321
vt 0.949613321 0.493923611
vt 0.933593750 0.493923611
vt 0.933593750 0.468750000
vt 0.949613321 0.493923611
vt 0.933593750 0.468750000
vt 0.949613321 0.468750000
vt 0.601562500 0.828519571
vt 0.601562500 0.812500000
vt 0.617582071 0.812500000
vt 0.601562500 0.828519571
vt 0.617582071 0.812500000
vt 0.617582071 0.828519571
vt 0.968750000 0.468750000
vt 0.984769571 0.468750000
vt 0.984769571 0.493923611
vt 0.968750000 0.468750000
vt 0.984769571 0.493923611
vt 0.968750000 0.493923611
vt 0.390625000 0.812500000
vt 0.406644571 0.812500000
vt 0.406644571 0.837673611
vt 0.390625000 0.812500000
vt 0.406644571 0.837673611
vt 0.390625000 0.837673611
vt 0.441800821 0.837673611
vt 0.425781250 0.837673611
vt 0.425781250 0.812500000
vt 0.441800821 0.837673611
vt 0.425781250 0.812500000
vt 0.441800821 0.812500000
vt 0.476957071 0.837673611
vt 0.460937500 0.837673611
vt 0.460937500 0.812500000
vt 0.476957071 0.837673611
vt 0.460937500 0.812500000
vt 0.476957071 0.812500000
f 1/1/1 2/2/2 3/3/3
f 4/4/4 5/5/5 6/6/6
f 7/7/7 8/8/8 9/9/9
f 10/10/10 11/11/11 12/12/12
f 13/13/13 14/14/14 15/15/15
f 16/16/16 17/17/17 18/18/18
f 19/19/19 20/20/20 21/21/21
f 22/22/22 23/23/23 24/24/24
f 25/25/25 26/26/26 27/27/27
f 28/28/28 29/29/29 30/30/30
f 31/31/31 32/32/32 33/33/33
f 34/34/34 35/35/35 36/36/36
f 37/37/37 38/38/38 39/39/39
f 40/40/40 41/41/41 42/42/42
f 43/43/43 44/44/44 45/45/45
f 46/46/46 47/47/47 48/48/48
f 49/49/49 50/50/50 51/51/51
f 52/52/52 53/53/53 54/54/54
f 55/55/55 56/56/56 57/57/57
f 58/58/58 59/59/59 60/60/60
f 61/61/61 62/62/62 63/63/63
f 64/64/64 65/65/65 66/66/66
f 67/67/67 68/68/68 69/69/69
f 70/70/70 71/71/71 72/72/72
f 73/73/73 74/74/74 75/75/75
f 76/76/76 77/77/77 78/78/78
f 79/79/79 80/80/80 81/81/81
f 82/82/82 83/83/83 84/84/84
f 85/85/85 86/86/86 87/87/87
f 88/88/88 89/89/89 90/90/90
f 91/91/91 92/92/92 93/93/93
f 94/94/94 95/95/95 96/96/96
f 97/97/97 98/98/98 99/99/99
f 100/100/100 101/101/101 102/102/102
f 103/103/103 104/104/104 105/105/105
f 106/106/106 107/107/107 108/108/108
f 109/109/109 110/110/110 111/111/111
f 112/112/112 113/113/113 114/114/114
f 115/115/115 116/116/116 117/117/117
f 118/118/118 119/119/119 120/120/120
f 121/121/121 122/122/122 123/123/123
f 124/124/124 125/125/125 126/126/126
f 127/127/127 128/128/128 129/129/129
f 130/130/130 131/131/131 132/132/132
f 133/133/133 134/134/134 135/135/135
f 136/136/136 137/137/137 138/138/138
f 139/139/139 140/140/140 141/141/141
f 142/142/142 143/143/143 144/144/144
f 145/145/145 146/146/146 147/147/147
f 148/148/148 149/149/149 150/150/150
f 151/151/151 152/152/152 153/153/153
f 154/154/154 155/155/155 156/156/156
f 157/157/157 158/158/158 159/159/159
f 160/160/160 161/161/161 162/162/162
f 163/163/163 164/164/164 165/165/165
f 166/166/166 167/167/167 168/168/168
f 169/169/169 170/170/170 171/171/171
f 172/172/172 173/173/173 174/174/174
f 175/175/175 176/176/176 177/177/177
f 178/178/178 179/179/179 180/180/180
f 181/181/181 182/182/182 183/183/183
f 184/184/184 185/185/185 186/186/186
f 187/187/187 188/188/188 189/189/189
f 190/190/190 191/191/191 192/192/192
f 193/193/193 194/194/194 195/195/195
f 196/196/196 197/197/197 198/198/198
f 199/199/199 200/200/200 201/201/201
f 202/202/202 203/203/203 204/204/204
f 205/205/205 206/206/206 207/207/207
f 208/208/208 209/209/209 210/210/210
f 211/211/211 212/212/212 213/213/213
f 214/214/214 215/215/215 216/216/216
f 217/217/217 218/218/218 219/219/219
f 220/220/220 221/221/221 222/222/222
f 223/223/223 224/224/224 225/225/225
f 226/226/226 227/227/227 228/228/228
f 229/229/229 230/230/230 231/231/231
f 232/232/232 233/233/233 234/234/234
f 235/235/235 236/236/236 237/237/237
f 238/238/238 239/239/239 240/240/240
f 241/241/241 242/242/242 243/243/243
f 244/244/244 245/245/245 246/246/246
f 247/247/247 248/248/248 249/249/249
f 250/250/250 251/251/251 252/252/252
f 253/253/253 254/254/254 255/255/255
f 256/256/256 257/257/257 258/258/258
f 259/259/259 260/260/260 261/261/261
f 262/262/262 263/263/263 264/264/264
f 265/265/265 266/266/266 267/267/267
f 268/268/268 269/269/269 270/270/270
f 271/271/271 272/272/272 273/273/273
f 274/274/274 275/275/275 276/276/276
f 277/277/277 278/278/278 279/279/279
f 280/280/280 281/281/281 282/282/282
f 283/283/283 284/284/284 285/285/285
f 286/286/286 287/287/287 288/288/288
f 289/289/289 290/290/290 291/291/291
f 292/292/292 293/293/293 294/294/294
f 295/295/295 296/296/296 297/297/297
f 298/298/298 299/299/299 300/300/300
f 301/301/301 302/302/302 303/303/303
f 304/304/304 305/305/305 306/306/306
f 307/307/307 308/308/308 309/309/309
f 310/310/310 311/311/311 312/312/312
f 313/313/313 314/314/314 315/315/315
f 316/316/316 317/317/317 318/318/318
f 319/319/319 320/320/320 321/321/321
f 322/322/322 323/323/323 324/324/324
f 325/325/325 326/326/326 327/327/327
f 328/328/328 329/329/329 330/330/330
f 331/331/331 332/332/332 333/333/333
f 334/334/334 335/335/335 336/336/336
f 337/337/337 338/338/338 339/339/339
f 340/340/340 341/341/341 342/342/342
f 343/343/343 344/344/344 345/345/345
f 346/346/346 347/347/347 348/348/348
f 349/349/349 350/350/350 351/351/351
f 352/352/352 353/353/353 354/354/354
f 355/355/355 356/356/356 357/357/357
f 358/358/358 359/359/359 360/360/360
f 361/361/361 362/362/362 363/363/363
f 364/364/364 365/365/365 366/366/366
f 367/367/367 368/368/368 369/369/369
f 370/370/370 371/371/371 372/372/372
f 373/373/373 374/374/374 375/375/375
f 376/376/376 377/377/377 378/378/378
f 379/379/379 380/380/380 381/381/381
f 382/382/382 383/383/383 384/384/384
f 385/385/385 386/386/386 387/387/387
f 388/388/388 389/389/389 390/390/390
f 391/391/391 392/392/392 393/393/393
f 394/394/394 395/395/395 396/396/396
f 397/397/397 398/398/398 399/399/399
f 400/400/400 401/401/401 402/402/402
f 403/403/403 404/404/404 405/405/405
f 406/406/406 407/407/407 408/408/408
f 409/409/409 410/410/410 411/411/411
f 412/412/412 413/413/413 414/414/414
