# G010 lightweight native PNG geometry. No per-wire geometry.
mtllib ../Materials/pz_fence_png_fencing_01_27.mtl
usemtl UV_Base
v -0.50099999 -0.50000000 0.00000000
vn -0.00000000 -0.00000000 -1.00000000
v -0.50099999 0.50000000 0.00000000
vn -0.00000000 -0.00000000 -1.00000000
v -0.49900001 0.50000000 0.00000000
vn -0.00000000 -0.00000000 -1.00000000
vt 0.009221872 0.585937500
vt 0.406250000 0.585937500
vt 0.406250000 0.586731548
vt 0.009221872 0.585937500
vt 0.406250000 0.586731548
vt 0.009221872 0.586731548
vt 0.820312500 0.585937500
vt 0.820312500 0.586731548
vt 0.423284372 0.586731548
vt 0.820312500 0.585937500
vt 0.423284372 0.586731548
vt 0.423284372 0.585937500
vt 0.492187500 0.562500000
vt 0.492187500 0.563294048
vt 0.007813172 0.563294048
vt 0.492187500 0.562500000
vt 0.007813172 0.563294048
vt 0.007813172 0.562500000
vt 0.492187500 0.148437500
vt 0.492187500 0.545465628
vt 0.007813172 0.545465628
vt 0.492187500 0.148437500
vt 0.007813172 0.545465628
vt 0.007813172 0.148437500
vt 0.507813172 0.563294048
vt 0.507813172 0.562500000
vt 0.992187500 0.562500000
vt 0.507813172 0.563294048
vt 0.992187500 0.562500000
vt 0.992187500 0.563294048
vt 0.507813172 0.545465628
vt 0.507813172 0.148437500
vt 0.992187500 0.148437500
vt 0.507813172 0.545465628
vt 0.992187500 0.148437500
vt 0.992187500 0.545465628
vt 0.517034372 0.007812500
vt 0.914062500 0.007812500
vt 0.914062500 0.024487693
vt 0.517034372 0.007812500
vt 0.914062500 0.024487693
vt 0.517034372 0.024487693
vt 0.914062500 0.042968750
vt 0.914062500 0.059643943
vt 0.517034372 0.059643943
vt 0.914062500 0.042968750
vt 0.517034372 0.059643943
vt 0.517034372 0.042968750
vt 0.945312500 0.042968750
vt 0.945312500 0.059643943
vt 0.931019531 0.059643943
vt 0.945312500 0.042968750
vt 0.931019531 0.059643943
vt 0.931019531 0.042968750
vt 0.515625000 0.078125000
vt 0.912653128 0.078125000
vt 0.912653128 0.092417969
vt 0.515625000 0.078125000
vt 0.912653128 0.092417969
vt 0.515625000 0.092417969
vt 0.962269531 0.059643943
vt 0.962269531 0.042968750
vt 0.976562500 0.042968750
vt 0.962269531 0.059643943
vt 0.976562500 0.042968750
vt 0.976562500 0.059643943
vt 0.912653128 0.127574219
vt 0.515625000 0.127574219
vt 0.515625000 0.113281250
vt 0.912653128 0.127574219
vt 0.515625000 0.113281250
vt 0.912653128 0.113281250
vt 0.929687500 0.023693621
vt 0.929687500 0.007812500
vt 0.945568621 0.007812500
vt 0.929687500 0.023693621
vt 0.945568621 0.007812500
vt 0.945568621 0.023693621
vt 0.964843750 0.007812500
vt 0.980724871 0.007812500
vt 0.980724871 0.023693621
vt 0.964843750 0.007812500
vt 0.980724871 0.023693621
vt 0.964843750 0.023693621
vt 0.500000000 0.007812500
vt 0.500000000 0.023693621
vt 0.009670258 0.023693621
vt 0.500000000 0.007812500
vt 0.009670258 0.023693621
vt 0.009670258 0.007812500
vt 0.500000000 0.042968750
vt 0.500000000 0.058849871
vt 0.009670258 0.058849871
vt 0.500000000 0.042968750
vt 0.009670258 0.058849871
vt 0.009670258 0.042968750
vt 0.009670258 0.094006121
vt 0.009670258 0.078125000
vt 0.500000000 0.078125000
vt 0.009670258 0.094006121
vt 0.500000000 0.078125000
vt 0.500000000 0.094006121
vt 0.009670258 0.129162371
vt 0.009670258 0.113281250
vt 0.500000000 0.113281250
vt 0.009670258 0.129162371
vt 0.500000000 0.113281250
vt 0.500000000 0.129162371
f 1/1/1 2/2/2 3/3/3
v -0.50099999 -0.50000000 0.00000000
vn -0.00000000 0.00000000 -1.00000000
v -0.49900001 0.50000000 0.00000000
vn -0.00000000 0.00000000 -1.00000000
v -0.49900001 -0.50000000 0.00000000
vn -0.00000000 0.00000000 -1.00000000
f 4/4/4 5/5/5 6/6/6
v -0.50099999 -0.50000000 1.22000003
vn 0.00000000 0.00000000 1.00000000
v -0.49900001 -0.50000000 1.22000003
vn 0.00000000 0.00000000 1.00000000
v -0.49900001 0.50000000 1.22000003
vn 0.00000000 0.00000000 1.00000000
f 7/7/7 8/8/8 9/9/9
v -0.50099999 -0.50000000 1.22000003
vn -0.00000000 0.00000000 1.00000000
v -0.49900001 0.50000000 1.22000003
vn -0.00000000 0.00000000 1.00000000
v -0.50099999 0.50000000 1.22000003
vn -0.00000000 0.00000000 1.00000000
f 10/10/10 11/11/11 12/12/12
v -0.50099999 -0.50000000 0.00000000
vn -0.00000000 -1.00000000 -0.00000000
v -0.49900001 -0.50000000 0.00000000
vn -0.00000000 -1.00000000 -0.00000000
v -0.49900001 -0.50000000 1.22000003
vn -0.00000000 -1.00000000 -0.00000000
f 13/13/13 14/14/14 15/15/15
v -0.50099999 -0.50000000 0.00000000
vn 0.00000000 -1.00000000 -0.00000000
v -0.49900001 -0.50000000 1.22000003
vn 0.00000000 -1.00000000 -0.00000000
v -0.50099999 -0.50000000 1.22000003
vn 0.00000000 -1.00000000 -0.00000000
f 16/16/16 17/17/17 18/18/18
v -0.49900001 -0.50000000 0.00000000
vn 1.00000000 0.00000000 0.00000000
v -0.49900001 0.50000000 0.00000000
vn 1.00000000 0.00000000 0.00000000
v -0.49900001 0.50000000 1.22000003
vn 1.00000000 0.00000000 0.00000000
f 19/19/19 20/20/20 21/21/21
v -0.49900001 -0.50000000 0.00000000
vn 1.00000000 -0.00000000 0.00000000
v -0.49900001 0.50000000 1.22000003
vn 1.00000000 -0.00000000 0.00000000
v -0.49900001 -0.50000000 1.22000003
vn 1.00000000 -0.00000000 0.00000000
f 22/22/22 23/23/23 24/24/24
v -0.49900001 0.50000000 0.00000000
vn -0.00000000 1.00000000 0.00000000
v -0.50099999 0.50000000 0.00000000
vn -0.00000000 1.00000000 0.00000000
v -0.50099999 0.50000000 1.22000003
vn -0.00000000 1.00000000 0.00000000
f 25/25/25 26/26/26 27/27/27
v -0.49900001 0.50000000 0.00000000
vn 0.00000000 1.00000000 0.00000000
v -0.50099999 0.50000000 1.22000003
vn 0.00000000 1.00000000 0.00000000
v -0.49900001 0.50000000 1.22000003
vn 0.00000000 1.00000000 0.00000000
f 28/28/28 29/29/29 30/30/30
v -0.50099999 0.50000000 0.00000000
vn -1.00000000 0.00000000 0.00000000
v -0.50099999 -0.50000000 0.00000000
vn -1.00000000 0.00000000 0.00000000
v -0.50099999 -0.50000000 1.22000003
vn -1.00000000 0.00000000 0.00000000
f 31/31/31 32/32/32 33/33/33
v -0.50099999 0.50000000 0.00000000
vn -1.00000000 -0.00000000 -0.00000000
v -0.50099999 -0.50000000 1.22000003
vn -1.00000000 -0.00000000 -0.00000000
v -0.50099999 0.50000000 1.22000003
vn -1.00000000 -0.00000000 -0.00000000
f 34/34/34 35/35/35 36/36/36
v -0.52100003 -0.50000000 1.05365181
vn -0.00000000 -0.00000000 -1.00000000
v -0.52100003 0.50000000 1.05365181
vn -0.00000000 -0.00000000 -1.00000000
v -0.47900000 0.50000000 1.05365181
vn -0.00000000 -0.00000000 -1.00000000
f 37/37/37 38/38/38 39/39/39
v -0.52100003 -0.50000000 1.05365181
vn -0.00000000 0.00000000 -1.00000000
v -0.47900000 0.50000000 1.05365181
vn -0.00000000 0.00000000 -1.00000000
v -0.47900000 -0.50000000 1.05365181
vn -0.00000000 0.00000000 -1.00000000
f 40/40/40 41/41/41 42/42/42
v -0.52100003 -0.50000000 1.08965170
vn 0.00000000 0.00000000 1.00000000
v -0.47900000 -0.50000000 1.08965170
vn 0.00000000 0.00000000 1.00000000
v -0.47900000 0.50000000 1.08965170
vn 0.00000000 0.00000000 1.00000000
f 43/43/43 44/44/44 45/45/45
v -0.52100003 -0.50000000 1.08965170
vn -0.00000000 0.00000000 1.00000000
v -0.47900000 0.50000000 1.08965170
vn -0.00000000 0.00000000 1.00000000
v -0.52100003 0.50000000 1.08965170
vn -0.00000000 0.00000000 1.00000000
f 46/46/46 47/47/47 48/48/48
v -0.52100003 -0.50000000 1.05365181
vn -0.00000000 -1.00000000 -0.00000000
v -0.47900000 -0.50000000 1.05365181
vn -0.00000000 -1.00000000 -0.00000000
v -0.47900000 -0.50000000 1.08965170
vn -0.00000000 -1.00000000 -0.00000000
f 49/49/49 50/50/50 51/51/51
v -0.52100003 -0.50000000 1.05365181
vn 0.00000000 -1.00000000 -0.00000000
v -0.47900000 -0.50000000 1.08965170
vn 0.00000000 -1.00000000 -0.00000000
v -0.52100003 -0.50000000 1.08965170
vn 0.00000000 -1.00000000 -0.00000000
f 52/52/52 53/53/53 54/54/54
v -0.47900000 -0.50000000 1.05365181
vn 1.00000000 0.00000000 0.00000000
v -0.47900000 0.50000000 1.05365181
vn 1.00000000 0.00000000 0.00000000
v -0.47900000 0.50000000 1.08965170
vn 1.00000000 0.00000000 0.00000000
f 55/55/55 56/56/56 57/57/57
v -0.47900000 -0.50000000 1.05365181
vn 1.00000000 -0.00000000 0.00000000
v -0.47900000 0.50000000 1.08965170
vn 1.00000000 -0.00000000 0.00000000
v -0.47900000 -0.50000000 1.08965170
vn 1.00000000 -0.00000000 0.00000000
f 58/58/58 59/59/59 60/60/60
v -0.47900000 0.50000000 1.05365181
vn -0.00000000 1.00000000 0.00000000
v -0.52100003 0.50000000 1.05365181
vn -0.00000000 1.00000000 0.00000000
v -0.52100003 0.50000000 1.08965170
vn -0.00000000 1.00000000 0.00000000
f 61/61/61 62/62/62 63/63/63
v -0.47900000 0.50000000 1.05365181
vn 0.00000000 1.00000000 0.00000000
v -0.52100003 0.50000000 1.08965170
vn 0.00000000 1.00000000 0.00000000
v -0.47900000 0.50000000 1.08965170
vn 0.00000000 1.00000000 0.00000000
f 64/64/64 65/65/65 66/66/66
v -0.52100003 0.50000000 1.05365181
vn -1.00000000 0.00000000 0.00000000
v -0.52100003 -0.50000000 1.05365181
vn -1.00000000 0.00000000 0.00000000
v -0.52100003 -0.50000000 1.08965170
vn -1.00000000 0.00000000 0.00000000
f 67/67/67 68/68/68 69/69/69
v -0.52100003 0.50000000 1.05365181
vn -1.00000000 -0.00000000 -0.00000000
v -0.52100003 -0.50000000 1.08965170
vn -1.00000000 -0.00000000 -0.00000000
v -0.52100003 0.50000000 1.08965170
vn -1.00000000 -0.00000000 -0.00000000
f 70/70/70 71/71/71 72/72/72
v -0.51999998 -0.51999998 0.00000000
vn -0.00000000 -0.00000000 -1.00000000
v -0.51999998 -0.47999999 0.00000000
vn -0.00000000 -0.00000000 -1.00000000
v -0.47999999 -0.47999999 0.00000000
vn -0.00000000 -0.00000000 -1.00000000
f 73/73/73 74/74/74 75/75/75
v -0.51999998 -0.51999998 0.00000000
vn -0.00000000 0.00000000 -1.00000000
v -0.47999999 -0.47999999 0.00000000
vn -0.00000000 0.00000000 -1.00000000
v -0.47999999 -0.51999998 0.00000000
vn -0.00000000 0.00000000 -1.00000000
f 76/76/76 77/77/77 78/78/78
v -0.51999998 -0.51999998 1.23500001
vn 0.00000000 0.00000000 1.00000000
v -0.47999999 -0.51999998 1.23500001
vn 0.00000000 0.00000000 1.00000000
v -0.47999999 -0.47999999 1.23500001
vn 0.00000000 0.00000000 1.00000000
f 79/79/79 80/80/80 81/81/81
v -0.51999998 -0.51999998 1.23500001
vn -0.00000000 0.00000000 1.00000000
v -0.47999999 -0.47999999 1.23500001
vn -0.00000000 0.00000000 1.00000000
v -0.51999998 -0.47999999 1.23500001
vn -0.00000000 0.00000000 1.00000000
f 82/82/82 83/83/83 84/84/84
v -0.51999998 -0.51999998 0.00000000
vn -0.00000000 -0.99999994 -0.00000000
v -0.47999999 -0.51999998 0.00000000
vn -0.00000000 -0.99999994 -0.00000000
v -0.47999999 -0.51999998 1.23500001
vn -0.00000000 -0.99999994 -0.00000000
f 85/85/85 86/86/86 87/87/87
v -0.51999998 -0.51999998 0.00000000
vn 0.00000000 -0.99999994 -0.00000000
v -0.47999999 -0.51999998 1.23500001
vn 0.00000000 -0.99999994 -0.00000000
v -0.51999998 -0.51999998 1.23500001
vn 0.00000000 -0.99999994 -0.00000000
f 88/88/88 89/89/89 90/90/90
v -0.47999999 -0.51999998 0.00000000
vn 0.99999994 0.00000000 0.00000000
v -0.47999999 -0.47999999 0.00000000
vn 0.99999994 0.00000000 0.00000000
v -0.47999999 -0.47999999 1.23500001
vn 0.99999994 0.00000000 0.00000000
f 91/91/91 92/92/92 93/93/93
v -0.47999999 -0.51999998 0.00000000
vn 0.99999994 -0.00000000 0.00000000
v -0.47999999 -0.47999999 1.23500001
vn 0.99999994 -0.00000000 0.00000000
v -0.47999999 -0.51999998 1.23500001
vn 0.99999994 -0.00000000 0.00000000
f 94/94/94 95/95/95 96/96/96
v -0.47999999 -0.47999999 0.00000000
vn -0.00000000 0.99999994 0.00000000
v -0.51999998 -0.47999999 0.00000000
vn -0.00000000 0.99999994 0.00000000
v -0.51999998 -0.47999999 1.23500001
vn -0.00000000 0.99999994 0.00000000
f 97/97/97 98/98/98 99/99/99
v -0.47999999 -0.47999999 0.00000000
vn 0.00000000 0.99999994 0.00000000
v -0.51999998 -0.47999999 1.23500001
vn 0.00000000 0.99999994 0.00000000
v -0.47999999 -0.47999999 1.23500001
vn 0.00000000 0.99999994 0.00000000
f 100/100/100 101/101/101 102/102/102
v -0.51999998 -0.47999999 0.00000000
vn -0.99999994 0.00000000 0.00000000
v -0.51999998 -0.51999998 0.00000000
vn -0.99999994 0.00000000 0.00000000
v -0.51999998 -0.51999998 1.23500001
vn -0.99999994 0.00000000 0.00000000
f 103/103/103 104/104/104 105/105/105
v -0.51999998 -0.47999999 0.00000000
vn -0.99999994 -0.00000000 -0.00000000
v -0.51999998 -0.51999998 1.23500001
vn -0.99999994 -0.00000000 -0.00000000
v -0.51999998 -0.47999999 1.23500001
vn -0.99999994 -0.00000000 -0.00000000
f 106/106/106 107/107/107 108/108/108
