# G014 geometry handoff; centered placeholder UV pending texture mapping
mtllib ../Materials/pz_house_bunk_red_foot.mtl
o pz_house_bunk_red_foot
v -0.450000 -0.500000 0.000000
v -0.450000 -0.420000 0.000000
v -0.370000 -0.420000 0.000000
v -0.450000 -0.500000 0.000000
v -0.370000 -0.420000 0.000000
v -0.370000 -0.500000 0.000000
v -0.450000 -0.500000 2.050000
v -0.370000 -0.500000 2.050000
v -0.370000 -0.420000 2.050000
v -0.450000 -0.500000 2.050000
v -0.370000 -0.420000 2.050000
v -0.450000 -0.420000 2.050000
v -0.450000 -0.500000 0.000000
v -0.370000 -0.500000 0.000000
v -0.370000 -0.500000 2.050000
v -0.450000 -0.500000 0.000000
v -0.370000 -0.500000 2.050000
v -0.450000 -0.500000 2.050000
v -0.370000 -0.500000 0.000000
v -0.370000 -0.420000 0.000000
v -0.370000 -0.420000 2.050000
v -0.370000 -0.500000 0.000000
v -0.370000 -0.420000 2.050000
v -0.370000 -0.500000 2.050000
v -0.370000 -0.420000 0.000000
v -0.450000 -0.420000 0.000000
v -0.450000 -0.420000 2.050000
v -0.370000 -0.420000 0.000000
v -0.450000 -0.420000 2.050000
v -0.370000 -0.420000 2.050000
v -0.450000 -0.420000 0.000000
v -0.450000 -0.500000 0.000000
v -0.450000 -0.500000 2.050000
v -0.450000 -0.420000 0.000000
v -0.450000 -0.500000 2.050000
v -0.450000 -0.420000 2.050000
v 0.370000 -0.500000 0.000000
v 0.370000 -0.420000 0.000000
v 0.450000 -0.420000 0.000000
v 0.370000 -0.500000 0.000000
v 0.450000 -0.420000 0.000000
v 0.450000 -0.500000 0.000000
v 0.370000 -0.500000 2.050000
v 0.450000 -0.500000 2.050000
v 0.450000 -0.420000 2.050000
v 0.370000 -0.500000 2.050000
v 0.450000 -0.420000 2.050000
v 0.370000 -0.420000 2.050000
v 0.370000 -0.500000 0.000000
v 0.450000 -0.500000 0.000000
v 0.450000 -0.500000 2.050000
v 0.370000 -0.500000 0.000000
v 0.450000 -0.500000 2.050000
v 0.370000 -0.500000 2.050000
v 0.450000 -0.500000 0.000000
v 0.450000 -0.420000 0.000000
v 0.450000 -0.420000 2.050000
v 0.450000 -0.500000 0.000000
v 0.450000 -0.420000 2.050000
v 0.450000 -0.500000 2.050000
v 0.450000 -0.420000 0.000000
v 0.370000 -0.420000 0.000000
v 0.370000 -0.420000 2.050000
v 0.450000 -0.420000 0.000000
v 0.370000 -0.420000 2.050000
v 0.450000 -0.420000 2.050000
v 0.370000 -0.420000 0.000000
v 0.370000 -0.500000 0.000000
v 0.370000 -0.500000 2.050000
v 0.370000 -0.420000 0.000000
v 0.370000 -0.500000 2.050000
v 0.370000 -0.420000 2.050000
v -0.410000 -0.500000 0.730000
v -0.410000 -0.420000 0.730000
v 0.410000 -0.420000 0.730000
v -0.410000 -0.500000 0.730000
v 0.410000 -0.420000 0.730000
v 0.410000 -0.500000 0.730000
v -0.410000 -0.500000 0.810000
v 0.410000 -0.500000 0.810000
v 0.410000 -0.420000 0.810000
v -0.410000 -0.500000 0.810000
v 0.410000 -0.420000 0.810000
v -0.410000 -0.420000 0.810000
v -0.410000 -0.500000 0.730000
v 0.410000 -0.500000 0.730000
v 0.410000 -0.500000 0.810000
v -0.410000 -0.500000 0.730000
v 0.410000 -0.500000 0.810000
v -0.410000 -0.500000 0.810000
v 0.410000 -0.500000 0.730000
v 0.410000 -0.420000 0.730000
v 0.410000 -0.420000 0.810000
v 0.410000 -0.500000 0.730000
v 0.410000 -0.420000 0.810000
v 0.410000 -0.500000 0.810000
v 0.410000 -0.420000 0.730000
v -0.410000 -0.420000 0.730000
v -0.410000 -0.420000 0.810000
v 0.410000 -0.420000 0.730000
v -0.410000 -0.420000 0.810000
v 0.410000 -0.420000 0.810000
v -0.410000 -0.420000 0.730000
v -0.410000 -0.500000 0.730000
v -0.410000 -0.500000 0.810000
v -0.410000 -0.420000 0.730000
v -0.410000 -0.500000 0.810000
v -0.410000 -0.420000 0.810000
v -0.410000 0.420000 0.730000
v -0.410000 0.500000 0.730000
v 0.410000 0.500000 0.730000
v -0.410000 0.420000 0.730000
v 0.410000 0.500000 0.730000
v 0.410000 0.420000 0.730000
v -0.410000 0.420000 0.810000
v 0.410000 0.420000 0.810000
v 0.410000 0.500000 0.810000
v -0.410000 0.420000 0.810000
v 0.410000 0.500000 0.810000
v -0.410000 0.500000 0.810000
v -0.410000 0.420000 0.730000
v 0.410000 0.420000 0.730000
v 0.410000 0.420000 0.810000
v -0.410000 0.420000 0.730000
v 0.410000 0.420000 0.810000
v -0.410000 0.420000 0.810000
v 0.410000 0.420000 0.730000
v 0.410000 0.500000 0.730000
v 0.410000 0.500000 0.810000
v 0.410000 0.420000 0.730000
v 0.410000 0.500000 0.810000
v 0.410000 0.420000 0.810000
v 0.410000 0.500000 0.730000
v -0.410000 0.500000 0.730000
v -0.410000 0.500000 0.810000
v 0.410000 0.500000 0.730000
v -0.410000 0.500000 0.810000
v 0.410000 0.500000 0.810000
v -0.410000 0.500000 0.730000
v -0.410000 0.420000 0.730000
v -0.410000 0.420000 0.810000
v -0.410000 0.500000 0.730000
v -0.410000 0.420000 0.810000
v -0.410000 0.500000 0.810000
v -0.410000 -0.500000 0.730000
v -0.410000 0.500000 0.730000
v -0.350000 0.500000 0.730000
v -0.410000 -0.500000 0.730000
v -0.350000 0.500000 0.730000
v -0.350000 -0.500000 0.730000
v -0.410000 -0.500000 0.810000
v -0.350000 -0.500000 0.810000
v -0.350000 0.500000 0.810000
v -0.410000 -0.500000 0.810000
v -0.350000 0.500000 0.810000
v -0.410000 0.500000 0.810000
v -0.410000 -0.500000 0.730000
v -0.350000 -0.500000 0.730000
v -0.350000 -0.500000 0.810000
v -0.410000 -0.500000 0.730000
v -0.350000 -0.500000 0.810000
v -0.410000 -0.500000 0.810000
v -0.350000 -0.500000 0.730000
v -0.350000 0.500000 0.730000
v -0.350000 0.500000 0.810000
v -0.350000 -0.500000 0.730000
v -0.350000 0.500000 0.810000
v -0.350000 -0.500000 0.810000
v -0.350000 0.500000 0.730000
v -0.410000 0.500000 0.730000
v -0.410000 0.500000 0.810000
v -0.350000 0.500000 0.730000
v -0.410000 0.500000 0.810000
v -0.350000 0.500000 0.810000
v -0.410000 0.500000 0.730000
v -0.410000 -0.500000 0.730000
v -0.410000 -0.500000 0.810000
v -0.410000 0.500000 0.730000
v -0.410000 -0.500000 0.810000
v -0.410000 0.500000 0.810000
v 0.350000 -0.500000 0.730000
v 0.350000 0.500000 0.730000
v 0.410000 0.500000 0.730000
v 0.350000 -0.500000 0.730000
v 0.410000 0.500000 0.730000
v 0.410000 -0.500000 0.730000
v 0.350000 -0.500000 0.810000
v 0.410000 -0.500000 0.810000
v 0.410000 0.500000 0.810000
v 0.350000 -0.500000 0.810000
v 0.410000 0.500000 0.810000
v 0.350000 0.500000 0.810000
v 0.350000 -0.500000 0.730000
v 0.410000 -0.500000 0.730000
v 0.410000 -0.500000 0.810000
v 0.350000 -0.500000 0.730000
v 0.410000 -0.500000 0.810000
v 0.350000 -0.500000 0.810000
v 0.410000 -0.500000 0.730000
v 0.410000 0.500000 0.730000
v 0.410000 0.500000 0.810000
v 0.410000 -0.500000 0.730000
v 0.410000 0.500000 0.810000
v 0.410000 -0.500000 0.810000
v 0.410000 0.500000 0.730000
v 0.350000 0.500000 0.730000
v 0.350000 0.500000 0.810000
v 0.410000 0.500000 0.730000
v 0.350000 0.500000 0.810000
v 0.410000 0.500000 0.810000
v 0.350000 0.500000 0.730000
v 0.350000 -0.500000 0.730000
v 0.350000 -0.500000 0.810000
v 0.350000 0.500000 0.730000
v 0.350000 -0.500000 0.810000
v 0.350000 0.500000 0.810000
v -0.410000 -0.500000 1.640000
v -0.410000 -0.420000 1.640000
v 0.410000 -0.420000 1.640000
v -0.410000 -0.500000 1.640000
v 0.410000 -0.420000 1.640000
v 0.410000 -0.500000 1.640000
v -0.410000 -0.500000 1.720000
v 0.410000 -0.500000 1.720000
v 0.410000 -0.420000 1.720000
v -0.410000 -0.500000 1.720000
v 0.410000 -0.420000 1.720000
v -0.410000 -0.420000 1.720000
v -0.410000 -0.500000 1.640000
v 0.410000 -0.500000 1.640000
v 0.410000 -0.500000 1.720000
v -0.410000 -0.500000 1.640000
v 0.410000 -0.500000 1.720000
v -0.410000 -0.500000 1.720000
v 0.410000 -0.500000 1.640000
v 0.410000 -0.420000 1.640000
v 0.410000 -0.420000 1.720000
v 0.410000 -0.500000 1.640000
v 0.410000 -0.420000 1.720000
v 0.410000 -0.500000 1.720000
v 0.410000 -0.420000 1.640000
v -0.410000 -0.420000 1.640000
v -0.410000 -0.420000 1.720000
v 0.410000 -0.420000 1.640000
v -0.410000 -0.420000 1.720000
v 0.410000 -0.420000 1.720000
v -0.410000 -0.420000 1.640000
v -0.410000 -0.500000 1.640000
v -0.410000 -0.500000 1.720000
v -0.410000 -0.420000 1.640000
v -0.410000 -0.500000 1.720000
v -0.410000 -0.420000 1.720000
v -0.410000 0.420000 1.640000
v -0.410000 0.500000 1.640000
v 0.410000 0.500000 1.640000
v -0.410000 0.420000 1.640000
v 0.410000 0.500000 1.640000
v 0.410000 0.420000 1.640000
v -0.410000 0.420000 1.720000
v 0.410000 0.420000 1.720000
v 0.410000 0.500000 1.720000
v -0.410000 0.420000 1.720000
v 0.410000 0.500000 1.720000
v -0.410000 0.500000 1.720000
v -0.410000 0.420000 1.640000
v 0.410000 0.420000 1.640000
v 0.410000 0.420000 1.720000
v -0.410000 0.420000 1.640000
v 0.410000 0.420000 1.720000
v -0.410000 0.420000 1.720000
v 0.410000 0.420000 1.640000
v 0.410000 0.500000 1.640000
v 0.410000 0.500000 1.720000
v 0.410000 0.420000 1.640000
v 0.410000 0.500000 1.720000
v 0.410000 0.420000 1.720000
v 0.410000 0.500000 1.640000
v -0.410000 0.500000 1.640000
v -0.410000 0.500000 1.720000
v 0.410000 0.500000 1.640000
v -0.410000 0.500000 1.720000
v 0.410000 0.500000 1.720000
v -0.410000 0.500000 1.640000
v -0.410000 0.420000 1.640000
v -0.410000 0.420000 1.720000
v -0.410000 0.500000 1.640000
v -0.410000 0.420000 1.720000
v -0.410000 0.500000 1.720000
v -0.410000 -0.500000 1.640000
v -0.410000 0.500000 1.640000
v -0.350000 0.500000 1.640000
v -0.410000 -0.500000 1.640000
v -0.350000 0.500000 1.640000
v -0.350000 -0.500000 1.640000
v -0.410000 -0.500000 1.720000
v -0.350000 -0.500000 1.720000
v -0.350000 0.500000 1.720000
v -0.410000 -0.500000 1.720000
v -0.350000 0.500000 1.720000
v -0.410000 0.500000 1.720000
v -0.410000 -0.500000 1.640000
v -0.350000 -0.500000 1.640000
v -0.350000 -0.500000 1.720000
v -0.410000 -0.500000 1.640000
v -0.350000 -0.500000 1.720000
v -0.410000 -0.500000 1.720000
v -0.350000 -0.500000 1.640000
v -0.350000 0.500000 1.640000
v -0.350000 0.500000 1.720000
v -0.350000 -0.500000 1.640000
v -0.350000 0.500000 1.720000
v -0.350000 -0.500000 1.720000
v -0.350000 0.500000 1.640000
v -0.410000 0.500000 1.640000
v -0.410000 0.500000 1.720000
v -0.350000 0.500000 1.640000
v -0.410000 0.500000 1.720000
v -0.350000 0.500000 1.720000
v -0.410000 0.500000 1.640000
v -0.410000 -0.500000 1.640000
v -0.410000 -0.500000 1.720000
v -0.410000 0.500000 1.640000
v -0.410000 -0.500000 1.720000
v -0.410000 0.500000 1.720000
v 0.350000 -0.500000 1.640000
v 0.350000 0.500000 1.640000
v 0.410000 0.500000 1.640000
v 0.350000 -0.500000 1.640000
v 0.410000 0.500000 1.640000
v 0.410000 -0.500000 1.640000
v 0.350000 -0.500000 1.720000
v 0.410000 -0.500000 1.720000
v 0.410000 0.500000 1.720000
v 0.350000 -0.500000 1.720000
v 0.410000 0.500000 1.720000
v 0.350000 0.500000 1.720000
v 0.350000 -0.500000 1.640000
v 0.410000 -0.500000 1.640000
v 0.410000 -0.500000 1.720000
v 0.350000 -0.500000 1.640000
v 0.410000 -0.500000 1.720000
v 0.350000 -0.500000 1.720000
v 0.410000 -0.500000 1.640000
v 0.410000 0.500000 1.640000
v 0.410000 0.500000 1.720000
v 0.410000 -0.500000 1.640000
v 0.410000 0.500000 1.720000
v 0.410000 -0.500000 1.720000
v 0.410000 0.500000 1.640000
v 0.350000 0.500000 1.640000
v 0.350000 0.500000 1.720000
v 0.410000 0.500000 1.640000
v 0.350000 0.500000 1.720000
v 0.410000 0.500000 1.720000
v 0.350000 0.500000 1.640000
v 0.350000 -0.500000 1.640000
v 0.350000 -0.500000 1.720000
v 0.350000 0.500000 1.640000
v 0.350000 -0.500000 1.720000
v 0.350000 0.500000 1.720000
v -0.360000 -0.465000 0.810000
v -0.360000 0.500000 0.810000
v 0.360000 0.500000 0.810000
v -0.360000 -0.465000 0.810000
v 0.360000 0.500000 0.810000
v 0.360000 -0.465000 0.810000
v -0.360000 -0.465000 0.960000
v 0.360000 -0.465000 0.960000
v 0.360000 0.500000 0.960000
v -0.360000 -0.465000 0.960000
v 0.360000 0.500000 0.960000
v -0.360000 0.500000 0.960000
v -0.360000 -0.465000 0.810000
v 0.360000 -0.465000 0.810000
v 0.360000 -0.465000 0.960000
v -0.360000 -0.465000 0.810000
v 0.360000 -0.465000 0.960000
v -0.360000 -0.465000 0.960000
v 0.360000 -0.465000 0.810000
v 0.360000 0.500000 0.810000
v 0.360000 0.500000 0.960000
v 0.360000 -0.465000 0.810000
v 0.360000 0.500000 0.960000
v 0.360000 -0.465000 0.960000
v 0.360000 0.500000 0.810000
v -0.360000 0.500000 0.810000
v -0.360000 0.500000 0.960000
v 0.360000 0.500000 0.810000
v -0.360000 0.500000 0.960000
v 0.360000 0.500000 0.960000
v -0.360000 0.500000 0.810000
v -0.360000 -0.465000 0.810000
v -0.360000 -0.465000 0.960000
v -0.360000 0.500000 0.810000
v -0.360000 -0.465000 0.960000
v -0.360000 0.500000 0.960000
v -0.360000 -0.465000 1.720000
v -0.360000 0.500000 1.720000
v 0.360000 0.500000 1.720000
v -0.360000 -0.465000 1.720000
v 0.360000 0.500000 1.720000
v 0.360000 -0.465000 1.720000
v -0.360000 -0.465000 1.870000
v 0.360000 -0.465000 1.870000
v 0.360000 0.500000 1.870000
v -0.360000 -0.465000 1.870000
v 0.360000 0.500000 1.870000
v -0.360000 0.500000 1.870000
v -0.360000 -0.465000 1.720000
v 0.360000 -0.465000 1.720000
v 0.360000 -0.465000 1.870000
v -0.360000 -0.465000 1.720000
v 0.360000 -0.465000 1.870000
v -0.360000 -0.465000 1.870000
v 0.360000 -0.465000 1.720000
v 0.360000 0.500000 1.720000
v 0.360000 0.500000 1.870000
v 0.360000 -0.465000 1.720000
v 0.360000 0.500000 1.870000
v 0.360000 -0.465000 1.870000
v 0.360000 0.500000 1.720000
v -0.360000 0.500000 1.720000
v -0.360000 0.500000 1.870000
v 0.360000 0.500000 1.720000
v -0.360000 0.500000 1.870000
v 0.360000 0.500000 1.870000
v -0.360000 0.500000 1.720000
v -0.360000 -0.465000 1.720000
v -0.360000 -0.465000 1.870000
v -0.360000 0.500000 1.720000
v -0.360000 -0.465000 1.870000
v -0.360000 0.500000 1.870000
v -0.410000 -0.500000 1.830000
v -0.410000 0.500000 1.830000
v -0.340000 0.500000 1.830000
v -0.410000 -0.500000 1.830000
v -0.340000 0.500000 1.830000
v -0.340000 -0.500000 1.830000
v -0.410000 -0.500000 1.980000
v -0.340000 -0.500000 1.980000
v -0.340000 0.500000 1.980000
v -0.410000 -0.500000 1.980000
v -0.340000 0.500000 1.980000
v -0.410000 0.500000 1.980000
v -0.410000 -0.500000 1.830000
v -0.340000 -0.500000 1.830000
v -0.340000 -0.500000 1.980000
v -0.410000 -0.500000 1.830000
v -0.340000 -0.500000 1.980000
v -0.410000 -0.500000 1.980000
v -0.340000 -0.500000 1.830000
v -0.340000 0.500000 1.830000
v -0.340000 0.500000 1.980000
v -0.340000 -0.500000 1.830000
v -0.340000 0.500000 1.980000
v -0.340000 -0.500000 1.980000
v -0.340000 0.500000 1.830000
v -0.410000 0.500000 1.830000
v -0.410000 0.500000 1.980000
v -0.340000 0.500000 1.830000
v -0.410000 0.500000 1.980000
v -0.340000 0.500000 1.980000
v -0.410000 0.500000 1.830000
v -0.410000 -0.500000 1.830000
v -0.410000 -0.500000 1.980000
v -0.410000 0.500000 1.830000
v -0.410000 -0.500000 1.980000
v -0.410000 0.500000 1.980000
v 0.340000 -0.500000 1.830000
v 0.340000 -0.485000 1.830000
v 0.410000 -0.485000 1.830000
v 0.340000 -0.500000 1.830000
v 0.410000 -0.485000 1.830000
v 0.410000 -0.500000 1.830000
v 0.340000 -0.500000 1.980000
v 0.410000 -0.500000 1.980000
v 0.410000 -0.485000 1.980000
v 0.340000 -0.500000 1.980000
v 0.410000 -0.485000 1.980000
v 0.340000 -0.485000 1.980000
v 0.340000 -0.500000 1.830000
v 0.410000 -0.500000 1.830000
v 0.410000 -0.500000 1.980000
v 0.340000 -0.500000 1.830000
v 0.410000 -0.500000 1.980000
v 0.340000 -0.500000 1.980000
v 0.410000 -0.500000 1.830000
v 0.410000 -0.485000 1.830000
v 0.410000 -0.485000 1.980000
v 0.410000 -0.500000 1.830000
v 0.410000 -0.485000 1.980000
v 0.410000 -0.500000 1.980000
v 0.410000 -0.485000 1.830000
v 0.340000 -0.485000 1.830000
v 0.340000 -0.485000 1.980000
v 0.410000 -0.485000 1.830000
v 0.340000 -0.485000 1.980000
v 0.410000 -0.485000 1.980000
v 0.340000 -0.485000 1.830000
v 0.340000 -0.500000 1.830000
v 0.340000 -0.500000 1.980000
v 0.340000 -0.485000 1.830000
v 0.340000 -0.500000 1.980000
v 0.340000 -0.485000 1.980000
v 0.340000 -0.015000 1.830000
v 0.340000 0.500000 1.830000
v 0.410000 0.500000 1.830000
v 0.340000 -0.015000 1.830000
v 0.410000 0.500000 1.830000
v 0.410000 -0.015000 1.830000
v 0.340000 -0.015000 1.980000
v 0.410000 -0.015000 1.980000
v 0.410000 0.500000 1.980000
v 0.340000 -0.015000 1.980000
v 0.410000 0.500000 1.980000
v 0.340000 0.500000 1.980000
v 0.340000 -0.015000 1.830000
v 0.410000 -0.015000 1.830000
v 0.410000 -0.015000 1.980000
v 0.340000 -0.015000 1.830000
v 0.410000 -0.015000 1.980000
v 0.340000 -0.015000 1.980000
v 0.410000 -0.015000 1.830000
v 0.410000 0.500000 1.830000
v 0.410000 0.500000 1.980000
v 0.410000 -0.015000 1.830000
v 0.410000 0.500000 1.980000
v 0.410000 -0.015000 1.980000
v 0.410000 0.500000 1.830000
v 0.340000 0.500000 1.830000
v 0.340000 0.500000 1.980000
v 0.410000 0.500000 1.830000
v 0.340000 0.500000 1.980000
v 0.410000 0.500000 1.980000
v 0.340000 0.500000 1.830000
v 0.340000 -0.015000 1.830000
v 0.340000 -0.015000 1.980000
v 0.340000 0.500000 1.830000
v 0.340000 -0.015000 1.980000
v 0.340000 0.500000 1.980000
v 0.365000 -0.485000 0.040000
v 0.365000 -0.415000 0.040000
v 0.435000 -0.415000 0.040000
v 0.365000 -0.485000 0.040000
v 0.435000 -0.415000 0.040000
v 0.435000 -0.485000 0.040000
v 0.365000 -0.485000 1.960000
v 0.435000 -0.485000 1.960000
v 0.435000 -0.415000 1.960000
v 0.365000 -0.485000 1.960000
v 0.435000 -0.415000 1.960000
v 0.365000 -0.415000 1.960000
v 0.365000 -0.485000 0.040000
v 0.435000 -0.485000 0.040000
v 0.435000 -0.485000 1.960000
v 0.365000 -0.485000 0.040000
v 0.435000 -0.485000 1.960000
v 0.365000 -0.485000 1.960000
v 0.435000 -0.485000 0.040000
v 0.435000 -0.415000 0.040000
v 0.435000 -0.415000 1.960000
v 0.435000 -0.485000 0.040000
v 0.435000 -0.415000 1.960000
v 0.435000 -0.485000 1.960000
v 0.435000 -0.415000 0.040000
v 0.365000 -0.415000 0.040000
v 0.365000 -0.415000 1.960000
v 0.435000 -0.415000 0.040000
v 0.365000 -0.415000 1.960000
v 0.435000 -0.415000 1.960000
v 0.365000 -0.415000 0.040000
v 0.365000 -0.485000 0.040000
v 0.365000 -0.485000 1.960000
v 0.365000 -0.415000 0.040000
v 0.365000 -0.485000 1.960000
v 0.365000 -0.415000 1.960000
v 0.365000 -0.085000 0.040000
v 0.365000 -0.015000 0.040000
v 0.435000 -0.015000 0.040000
v 0.365000 -0.085000 0.040000
v 0.435000 -0.015000 0.040000
v 0.435000 -0.085000 0.040000
v 0.365000 -0.085000 1.960000
v 0.435000 -0.085000 1.960000
v 0.435000 -0.015000 1.960000
v 0.365000 -0.085000 1.960000
v 0.435000 -0.015000 1.960000
v 0.365000 -0.015000 1.960000
v 0.365000 -0.085000 0.040000
v 0.435000 -0.085000 0.040000
v 0.435000 -0.085000 1.960000
v 0.365000 -0.085000 0.040000
v 0.435000 -0.085000 1.960000
v 0.365000 -0.085000 1.960000
v 0.435000 -0.085000 0.040000
v 0.435000 -0.015000 0.040000
v 0.435000 -0.015000 1.960000
v 0.435000 -0.085000 0.040000
v 0.435000 -0.015000 1.960000
v 0.435000 -0.085000 1.960000
v 0.435000 -0.015000 0.040000
v 0.365000 -0.015000 0.040000
v 0.365000 -0.015000 1.960000
v 0.435000 -0.015000 0.040000
v 0.365000 -0.015000 1.960000
v 0.435000 -0.015000 1.960000
v 0.365000 -0.015000 0.040000
v 0.365000 -0.085000 0.040000
v 0.365000 -0.085000 1.960000
v 0.365000 -0.015000 0.040000
v 0.365000 -0.085000 1.960000
v 0.365000 -0.015000 1.960000
v 0.345000 -0.450000 0.220000
v 0.345000 -0.050000 0.220000
v 0.435000 -0.050000 0.220000
v 0.345000 -0.450000 0.220000
v 0.435000 -0.050000 0.220000
v 0.435000 -0.450000 0.220000
v 0.345000 -0.450000 0.275000
v 0.435000 -0.450000 0.275000
v 0.435000 -0.050000 0.275000
v 0.345000 -0.450000 0.275000
v 0.435000 -0.050000 0.275000
v 0.345000 -0.050000 0.275000
v 0.345000 -0.450000 0.220000
v 0.435000 -0.450000 0.220000
v 0.435000 -0.450000 0.275000
v 0.345000 -0.450000 0.220000
v 0.435000 -0.450000 0.275000
v 0.345000 -0.450000 0.275000
v 0.435000 -0.450000 0.220000
v 0.435000 -0.050000 0.220000
v 0.435000 -0.050000 0.275000
v 0.435000 -0.450000 0.220000
v 0.435000 -0.050000 0.275000
v 0.435000 -0.450000 0.275000
v 0.435000 -0.050000 0.220000
v 0.345000 -0.050000 0.220000
v 0.345000 -0.050000 0.275000
v 0.435000 -0.050000 0.220000
v 0.345000 -0.050000 0.275000
v 0.435000 -0.050000 0.275000
v 0.345000 -0.050000 0.220000
v 0.345000 -0.450000 0.220000
v 0.345000 -0.450000 0.275000
v 0.345000 -0.050000 0.220000
v 0.345000 -0.450000 0.275000
v 0.345000 -0.050000 0.275000
v 0.345000 -0.450000 0.530000
v 0.345000 -0.050000 0.530000
v 0.435000 -0.050000 0.530000
v 0.345000 -0.450000 0.530000
v 0.435000 -0.050000 0.530000
v 0.435000 -0.450000 0.530000
v 0.345000 -0.450000 0.585000
v 0.435000 -0.450000 0.585000
v 0.435000 -0.050000 0.585000
v 0.345000 -0.450000 0.585000
v 0.435000 -0.050000 0.585000
v 0.345000 -0.050000 0.585000
v 0.345000 -0.450000 0.530000
v 0.435000 -0.450000 0.530000
v 0.435000 -0.450000 0.585000
v 0.345000 -0.450000 0.530000
v 0.435000 -0.450000 0.585000
v 0.345000 -0.450000 0.585000
v 0.435000 -0.450000 0.530000
v 0.435000 -0.050000 0.530000
v 0.435000 -0.050000 0.585000
v 0.435000 -0.450000 0.530000
v 0.435000 -0.050000 0.585000
v 0.435000 -0.450000 0.585000
v 0.435000 -0.050000 0.530000
v 0.345000 -0.050000 0.530000
v 0.345000 -0.050000 0.585000
v 0.435000 -0.050000 0.530000
v 0.345000 -0.050000 0.585000
v 0.435000 -0.050000 0.585000
v 0.345000 -0.050000 0.530000
v 0.345000 -0.450000 0.530000
v 0.345000 -0.450000 0.585000
v 0.345000 -0.050000 0.530000
v 0.345000 -0.450000 0.585000
v 0.345000 -0.050000 0.585000
v 0.345000 -0.450000 0.840000
v 0.345000 -0.050000 0.840000
v 0.435000 -0.050000 0.840000
v 0.345000 -0.450000 0.840000
v 0.435000 -0.050000 0.840000
v 0.435000 -0.450000 0.840000
v 0.345000 -0.450000 0.895000
v 0.435000 -0.450000 0.895000
v 0.435000 -0.050000 0.895000
v 0.345000 -0.450000 0.895000
v 0.435000 -0.050000 0.895000
v 0.345000 -0.050000 0.895000
v 0.345000 -0.450000 0.840000
v 0.435000 -0.450000 0.840000
v 0.435000 -0.450000 0.895000
v 0.345000 -0.450000 0.840000
v 0.435000 -0.450000 0.895000
v 0.345000 -0.450000 0.895000
v 0.435000 -0.450000 0.840000
v 0.435000 -0.050000 0.840000
v 0.435000 -0.050000 0.895000
v 0.435000 -0.450000 0.840000
v 0.435000 -0.050000 0.895000
v 0.435000 -0.450000 0.895000
v 0.435000 -0.050000 0.840000
v 0.345000 -0.050000 0.840000
v 0.345000 -0.050000 0.895000
v 0.435000 -0.050000 0.840000
v 0.345000 -0.050000 0.895000
v 0.435000 -0.050000 0.895000
v 0.345000 -0.050000 0.840000
v 0.345000 -0.450000 0.840000
v 0.345000 -0.450000 0.895000
v 0.345000 -0.050000 0.840000
v 0.345000 -0.450000 0.895000
v 0.345000 -0.050000 0.895000
v 0.345000 -0.450000 1.150000
v 0.345000 -0.050000 1.150000
v 0.435000 -0.050000 1.150000
v 0.345000 -0.450000 1.150000
v 0.435000 -0.050000 1.150000
v 0.435000 -0.450000 1.150000
v 0.345000 -0.450000 1.205000
v 0.435000 -0.450000 1.205000
v 0.435000 -0.050000 1.205000
v 0.345000 -0.450000 1.205000
v 0.435000 -0.050000 1.205000
v 0.345000 -0.050000 1.205000
v 0.345000 -0.450000 1.150000
v 0.435000 -0.450000 1.150000
v 0.435000 -0.450000 1.205000
v 0.345000 -0.450000 1.150000
v 0.435000 -0.450000 1.205000
v 0.345000 -0.450000 1.205000
v 0.435000 -0.450000 1.150000
v 0.435000 -0.050000 1.150000
v 0.435000 -0.050000 1.205000
v 0.435000 -0.450000 1.150000
v 0.435000 -0.050000 1.205000
v 0.435000 -0.450000 1.205000
v 0.435000 -0.050000 1.150000
v 0.345000 -0.050000 1.150000
v 0.345000 -0.050000 1.205000
v 0.435000 -0.050000 1.150000
v 0.345000 -0.050000 1.205000
v 0.435000 -0.050000 1.205000
v 0.345000 -0.050000 1.150000
v 0.345000 -0.450000 1.150000
v 0.345000 -0.450000 1.205000
v 0.345000 -0.050000 1.150000
v 0.345000 -0.450000 1.205000
v 0.345000 -0.050000 1.205000
v 0.345000 -0.450000 1.460000
v 0.345000 -0.050000 1.460000
v 0.435000 -0.050000 1.460000
v 0.345000 -0.450000 1.460000
v 0.435000 -0.050000 1.460000
v 0.435000 -0.450000 1.460000
v 0.345000 -0.450000 1.515000
v 0.435000 -0.450000 1.515000
v 0.435000 -0.050000 1.515000
v 0.345000 -0.450000 1.515000
v 0.435000 -0.050000 1.515000
v 0.345000 -0.050000 1.515000
v 0.345000 -0.450000 1.460000
v 0.435000 -0.450000 1.460000
v 0.435000 -0.450000 1.515000
v 0.345000 -0.450000 1.460000
v 0.435000 -0.450000 1.515000
v 0.345000 -0.450000 1.515000
v 0.435000 -0.450000 1.460000
v 0.435000 -0.050000 1.460000
v 0.435000 -0.050000 1.515000
v 0.435000 -0.450000 1.460000
v 0.435000 -0.050000 1.515000
v 0.435000 -0.450000 1.515000
v 0.435000 -0.050000 1.460000
v 0.345000 -0.050000 1.460000
v 0.345000 -0.050000 1.515000
v 0.435000 -0.050000 1.460000
v 0.345000 -0.050000 1.515000
v 0.435000 -0.050000 1.515000
v 0.345000 -0.050000 1.460000
v 0.345000 -0.450000 1.460000
v 0.345000 -0.450000 1.515000
v 0.345000 -0.050000 1.460000
v 0.345000 -0.450000 1.515000
v 0.345000 -0.050000 1.515000
v 0.345000 -0.450000 1.770000
v 0.345000 -0.050000 1.770000
v 0.435000 -0.050000 1.770000
v 0.345000 -0.450000 1.770000
v 0.435000 -0.050000 1.770000
v 0.435000 -0.450000 1.770000
v 0.345000 -0.450000 1.825000
v 0.435000 -0.450000 1.825000
v 0.435000 -0.050000 1.825000
v 0.345000 -0.450000 1.825000
v 0.435000 -0.050000 1.825000
v 0.345000 -0.050000 1.825000
v 0.345000 -0.450000 1.770000
v 0.435000 -0.450000 1.770000
v 0.435000 -0.450000 1.825000
v 0.345000 -0.450000 1.770000
v 0.435000 -0.450000 1.825000
v 0.345000 -0.450000 1.825000
v 0.435000 -0.450000 1.770000
v 0.435000 -0.050000 1.770000
v 0.435000 -0.050000 1.825000
v 0.435000 -0.450000 1.770000
v 0.435000 -0.050000 1.825000
v 0.435000 -0.450000 1.825000
v 0.435000 -0.050000 1.770000
v 0.345000 -0.050000 1.770000
v 0.345000 -0.050000 1.825000
v 0.435000 -0.050000 1.770000
v 0.345000 -0.050000 1.825000
v 0.435000 -0.050000 1.825000
v 0.345000 -0.050000 1.770000
v 0.345000 -0.450000 1.770000
v 0.345000 -0.450000 1.825000
v 0.345000 -0.050000 1.770000
v 0.345000 -0.450000 1.825000
v 0.345000 -0.050000 1.825000
vn 0.000000 0.000000 -1.000000
vn 0.000000 0.000000 -1.000000
vn 0.000000 0.000000 -1.000000
vn 0.000000 0.000000 -1.000000
vn 0.000000 0.000000 -1.000000
vn 0.000000 0.000000 -1.000000
vn 0.000000 0.000000 1.000000
vn 0.000000 0.000000 1.000000
vn 0.000000 0.000000 1.000000
vn 0.000000 0.000000 1.000000
vn 0.000000 0.000000 1.000000
vn 0.000000 0.000000 1.000000
vn 0.000000 -1.000000 0.000000
vn 0.000000 -1.000000 0.000000
vn 0.000000 -1.000000 0.000000
vn 0.000000 -1.000000 0.000000
vn 0.000000 -1.000000 0.000000
vn 0.000000 -1.000000 0.000000
vn 1.000000 0.000000 0.000000
vn 1.000000 0.000000 0.000000
vn 1.000000 0.000000 0.000000
vn 1.000000 0.000000 0.000000
vn 1.000000 0.000000 0.000000
vn 1.000000 0.000000 0.000000
vn 0.000000 1.000000 0.000000
vn 0.000000 1.000000 0.000000
vn 0.000000 1.000000 0.000000
vn 0.000000 1.000000 -0.000000
vn 0.000000 1.000000 -0.000000
vn 0.000000 1.000000 -0.000000
vn -1.000000 0.000000 0.000000
vn -1.000000 0.000000 0.000000
vn -1.000000 0.000000 0.000000
vn -1.000000 0.000000 0.000000
vn -1.000000 0.000000 0.000000
vn -1.000000 0.000000 0.000000
vn 0.000000 0.000000 -1.000000
vn 0.000000 0.000000 -1.000000
vn 0.000000 0.000000 -1.000000
vn 0.000000 0.000000 -1.000000
vn 0.000000 0.000000 -1.000000
vn 0.000000 0.000000 -1.000000
vn 0.000000 0.000000 1.000000
vn 0.000000 0.000000 1.000000
vn 0.000000 0.000000 1.000000
vn 0.000000 0.000000 1.000000
vn 0.000000 0.000000 1.000000
vn 0.000000 0.000000 1.000000
vn 0.000000 -1.000000 0.000000
vn 0.000000 -1.000000 0.000000
vn 0.000000 -1.000000 0.000000
vn 0.000000 -1.000000 0.000000
vn 0.000000 -1.000000 0.000000
vn 0.000000 -1.000000 0.000000
vn 1.000000 0.000000 0.000000
vn 1.000000 0.000000 0.000000
vn 1.000000 0.000000 0.000000
vn 1.000000 0.000000 0.000000
vn 1.000000 0.000000 0.000000
vn 1.000000 0.000000 0.000000
vn 0.000000 1.000000 0.000000
vn 0.000000 1.000000 0.000000
vn 0.000000 1.000000 0.000000
vn 0.000000 1.000000 -0.000000
vn 0.000000 1.000000 -0.000000
vn 0.000000 1.000000 -0.000000
vn -1.000000 0.000000 0.000000
vn -1.000000 0.000000 0.000000
vn -1.000000 0.000000 0.000000
vn -1.000000 0.000000 0.000000
vn -1.000000 0.000000 0.000000
vn -1.000000 0.000000 0.000000
vn 0.000000 0.000000 -1.000000
vn 0.000000 0.000000 -1.000000
vn 0.000000 0.000000 -1.000000
vn 0.000000 0.000000 -1.000000
vn 0.000000 0.000000 -1.000000
vn 0.000000 0.000000 -1.000000
vn 0.000000 0.000000 1.000000
vn 0.000000 0.000000 1.000000
vn 0.000000 0.000000 1.000000
vn 0.000000 0.000000 1.000000
vn 0.000000 0.000000 1.000000
vn 0.000000 0.000000 1.000000
vn 0.000000 -1.000000 0.000000
vn 0.000000 -1.000000 0.000000
vn 0.000000 -1.000000 0.000000
vn 0.000000 -1.000000 0.000000
vn 0.000000 -1.000000 0.000000
vn 0.000000 -1.000000 0.000000
vn 1.000000 0.000000 0.000000
vn 1.000000 0.000000 0.000000
vn 1.000000 0.000000 0.000000
vn 1.000000 0.000000 0.000000
vn 1.000000 0.000000 0.000000
vn 1.000000 0.000000 0.000000
vn 0.000000 1.000000 0.000000
vn 0.000000 1.000000 0.000000
vn 0.000000 1.000000 0.000000
vn 0.000000 1.000000 -0.000000
vn 0.000000 1.000000 -0.000000
vn 0.000000 1.000000 -0.000000
vn -1.000000 0.000000 0.000000
vn -1.000000 0.000000 0.000000
vn -1.000000 0.000000 0.000000
vn -1.000000 0.000000 0.000000
vn -1.000000 0.000000 0.000000
vn -1.000000 0.000000 0.000000
vn 0.000000 0.000000 -1.000000
vn 0.000000 0.000000 -1.000000
vn 0.000000 0.000000 -1.000000
vn 0.000000 0.000000 -1.000000
vn 0.000000 0.000000 -1.000000
vn 0.000000 0.000000 -1.000000
vn 0.000000 0.000000 1.000000
vn 0.000000 0.000000 1.000000
vn 0.000000 0.000000 1.000000
vn 0.000000 0.000000 1.000000
vn 0.000000 0.000000 1.000000
vn 0.000000 0.000000 1.000000
vn 0.000000 -1.000000 0.000000
vn 0.000000 -1.000000 0.000000
vn 0.000000 -1.000000 0.000000
vn 0.000000 -1.000000 0.000000
vn 0.000000 -1.000000 0.000000
vn 0.000000 -1.000000 0.000000
vn 1.000000 0.000000 0.000000
vn 1.000000 0.000000 0.000000
vn 1.000000 0.000000 0.000000
vn 1.000000 0.000000 0.000000
vn 1.000000 0.000000 0.000000
vn 1.000000 0.000000 0.000000
vn 0.000000 1.000000 0.000000
vn 0.000000 1.000000 0.000000
vn 0.000000 1.000000 0.000000
vn 0.000000 1.000000 -0.000000
vn 0.000000 1.000000 -0.000000
vn 0.000000 1.000000 -0.000000
vn -1.000000 0.000000 0.000000
vn -1.000000 0.000000 0.000000
vn -1.000000 0.000000 0.000000
vn -1.000000 0.000000 0.000000
vn -1.000000 0.000000 0.000000
vn -1.000000 0.000000 0.000000
vn 0.000000 0.000000 -1.000000
vn 0.000000 0.000000 -1.000000
vn 0.000000 0.000000 -1.000000
vn 0.000000 0.000000 -1.000000
vn 0.000000 0.000000 -1.000000
vn 0.000000 0.000000 -1.000000
vn 0.000000 0.000000 1.000000
vn 0.000000 0.000000 1.000000
vn 0.000000 0.000000 1.000000
vn 0.000000 0.000000 1.000000
vn 0.000000 0.000000 1.000000
vn 0.000000 0.000000 1.000000
vn 0.000000 -1.000000 0.000000
vn 0.000000 -1.000000 0.000000
vn 0.000000 -1.000000 0.000000
vn 0.000000 -1.000000 0.000000
vn 0.000000 -1.000000 0.000000
vn 0.000000 -1.000000 0.000000
vn 1.000000 0.000000 0.000000
vn 1.000000 0.000000 0.000000
vn 1.000000 0.000000 0.000000
vn 1.000000 0.000000 0.000000
vn 1.000000 0.000000 0.000000
vn 1.000000 0.000000 0.000000
vn 0.000000 1.000000 0.000000
vn 0.000000 1.000000 0.000000
vn 0.000000 1.000000 0.000000
vn 0.000000 1.000000 -0.000000
vn 0.000000 1.000000 -0.000000
vn 0.000000 1.000000 -0.000000
vn -1.000000 0.000000 0.000000
vn -1.000000 0.000000 0.000000
vn -1.000000 0.000000 0.000000
vn -1.000000 0.000000 0.000000
vn -1.000000 0.000000 0.000000
vn -1.000000 0.000000 0.000000
vn 0.000000 0.000000 -1.000000
vn 0.000000 0.000000 -1.000000
vn 0.000000 0.000000 -1.000000
vn 0.000000 0.000000 -1.000000
vn 0.000000 0.000000 -1.000000
vn 0.000000 0.000000 -1.000000
vn 0.000000 0.000000 1.000000
vn 0.000000 0.000000 1.000000
vn 0.000000 0.000000 1.000000
vn 0.000000 0.000000 1.000000
vn 0.000000 0.000000 1.000000
vn 0.000000 0.000000 1.000000
vn 0.000000 -1.000000 0.000000
vn 0.000000 -1.000000 0.000000
vn 0.000000 -1.000000 0.000000
vn 0.000000 -1.000000 0.000000
vn 0.000000 -1.000000 0.000000
vn 0.000000 -1.000000 0.000000
vn 1.000000 0.000000 0.000000
vn 1.000000 0.000000 0.000000
vn 1.000000 0.000000 0.000000
vn 1.000000 0.000000 0.000000
vn 1.000000 0.000000 0.000000
vn 1.000000 0.000000 0.000000
vn 0.000000 1.000000 0.000000
vn 0.000000 1.000000 0.000000
vn 0.000000 1.000000 0.000000
vn 0.000000 1.000000 -0.000000
vn 0.000000 1.000000 -0.000000
vn 0.000000 1.000000 -0.000000
vn -1.000000 0.000000 0.000000
vn -1.000000 0.000000 0.000000
vn -1.000000 0.000000 0.000000
vn -1.000000 0.000000 0.000000
vn -1.000000 0.000000 0.000000
vn -1.000000 0.000000 0.000000
vn 0.000000 0.000000 -1.000000
vn 0.000000 0.000000 -1.000000
vn 0.000000 0.000000 -1.000000
vn 0.000000 0.000000 -1.000000
vn 0.000000 0.000000 -1.000000
vn 0.000000 0.000000 -1.000000
vn 0.000000 0.000000 1.000000
vn 0.000000 0.000000 1.000000
vn 0.000000 0.000000 1.000000
vn 0.000000 0.000000 1.000000
vn 0.000000 0.000000 1.000000
vn 0.000000 0.000000 1.000000
vn 0.000000 -1.000000 0.000000
vn 0.000000 -1.000000 0.000000
vn 0.000000 -1.000000 0.000000
vn 0.000000 -1.000000 0.000000
vn 0.000000 -1.000000 0.000000
vn 0.000000 -1.000000 0.000000
vn 1.000000 0.000000 0.000000
vn 1.000000 0.000000 0.000000
vn 1.000000 0.000000 0.000000
vn 1.000000 0.000000 0.000000
vn 1.000000 0.000000 0.000000
vn 1.000000 0.000000 0.000000
vn 0.000000 1.000000 0.000000
vn 0.000000 1.000000 0.000000
vn 0.000000 1.000000 0.000000
vn 0.000000 1.000000 -0.000000
vn 0.000000 1.000000 -0.000000
vn 0.000000 1.000000 -0.000000
vn -1.000000 0.000000 0.000000
vn -1.000000 0.000000 0.000000
vn -1.000000 0.000000 0.000000
vn -1.000000 0.000000 0.000000
vn -1.000000 0.000000 0.000000
vn -1.000000 0.000000 0.000000
vn 0.000000 0.000000 -1.000000
vn 0.000000 0.000000 -1.000000
vn 0.000000 0.000000 -1.000000
vn 0.000000 0.000000 -1.000000
vn 0.000000 0.000000 -1.000000
vn 0.000000 0.000000 -1.000000
vn 0.000000 0.000000 1.000000
vn 0.000000 0.000000 1.000000
vn 0.000000 0.000000 1.000000
vn 0.000000 0.000000 1.000000
vn 0.000000 0.000000 1.000000
vn 0.000000 0.000000 1.000000
vn 0.000000 -1.000000 0.000000
vn 0.000000 -1.000000 0.000000
vn 0.000000 -1.000000 0.000000
vn 0.000000 -1.000000 0.000000
vn 0.000000 -1.000000 0.000000
vn 0.000000 -1.000000 0.000000
vn 1.000000 0.000000 0.000000
vn 1.000000 0.000000 0.000000
vn 1.000000 0.000000 0.000000
vn 1.000000 0.000000 0.000000
vn 1.000000 0.000000 0.000000
vn 1.000000 0.000000 0.000000
vn 0.000000 1.000000 0.000000
vn 0.000000 1.000000 0.000000
vn 0.000000 1.000000 0.000000
vn 0.000000 1.000000 -0.000000
vn 0.000000 1.000000 -0.000000
vn 0.000000 1.000000 -0.000000
vn -1.000000 0.000000 0.000000
vn -1.000000 0.000000 0.000000
vn -1.000000 0.000000 0.000000
vn -1.000000 0.000000 0.000000
vn -1.000000 0.000000 0.000000
vn -1.000000 0.000000 0.000000
vn 0.000000 0.000000 -1.000000
vn 0.000000 0.000000 -1.000000
vn 0.000000 0.000000 -1.000000
vn 0.000000 0.000000 -1.000000
vn 0.000000 0.000000 -1.000000
vn 0.000000 0.000000 -1.000000
vn 0.000000 0.000000 1.000000
vn 0.000000 0.000000 1.000000
vn 0.000000 0.000000 1.000000
vn 0.000000 0.000000 1.000000
vn 0.000000 0.000000 1.000000
vn 0.000000 0.000000 1.000000
vn 0.000000 -1.000000 0.000000
vn 0.000000 -1.000000 0.000000
vn 0.000000 -1.000000 0.000000
vn 0.000000 -1.000000 0.000000
vn 0.000000 -1.000000 0.000000
vn 0.000000 -1.000000 0.000000
vn 1.000000 0.000000 0.000000
vn 1.000000 0.000000 0.000000
vn 1.000000 0.000000 0.000000
vn 1.000000 0.000000 0.000000
vn 1.000000 0.000000 0.000000
vn 1.000000 0.000000 0.000000
vn 0.000000 1.000000 0.000000
vn 0.000000 1.000000 0.000000
vn 0.000000 1.000000 0.000000
vn 0.000000 1.000000 -0.000000
vn 0.000000 1.000000 -0.000000
vn 0.000000 1.000000 -0.000000
vn -1.000000 0.000000 0.000000
vn -1.000000 0.000000 0.000000
vn -1.000000 0.000000 0.000000
vn -1.000000 0.000000 0.000000
vn -1.000000 0.000000 0.000000
vn -1.000000 0.000000 0.000000
vn 0.000000 0.000000 -1.000000
vn 0.000000 0.000000 -1.000000
vn 0.000000 0.000000 -1.000000
vn 0.000000 0.000000 -1.000000
vn 0.000000 0.000000 -1.000000
vn 0.000000 0.000000 -1.000000
vn 0.000000 0.000000 1.000000
vn 0.000000 0.000000 1.000000
vn 0.000000 0.000000 1.000000
vn 0.000000 0.000000 1.000000
vn 0.000000 0.000000 1.000000
vn 0.000000 0.000000 1.000000
vn 0.000000 -1.000000 0.000000
vn 0.000000 -1.000000 0.000000
vn 0.000000 -1.000000 0.000000
vn 0.000000 -1.000000 0.000000
vn 0.000000 -1.000000 0.000000
vn 0.000000 -1.000000 0.000000
vn 1.000000 0.000000 0.000000
vn 1.000000 0.000000 0.000000
vn 1.000000 0.000000 0.000000
vn 1.000000 0.000000 0.000000
vn 1.000000 0.000000 0.000000
vn 1.000000 0.000000 0.000000
vn 0.000000 1.000000 0.000000
vn 0.000000 1.000000 0.000000
vn 0.000000 1.000000 0.000000
vn 0.000000 1.000000 -0.000000
vn 0.000000 1.000000 -0.000000
vn 0.000000 1.000000 -0.000000
vn -1.000000 0.000000 0.000000
vn -1.000000 0.000000 0.000000
vn -1.000000 0.000000 0.000000
vn -1.000000 0.000000 0.000000
vn -1.000000 0.000000 0.000000
vn -1.000000 0.000000 0.000000
vn 0.000000 0.000000 -1.000000
vn 0.000000 0.000000 -1.000000
vn 0.000000 0.000000 -1.000000
vn 0.000000 0.000000 -1.000000
vn 0.000000 0.000000 -1.000000
vn 0.000000 0.000000 -1.000000
vn 0.000000 0.000000 1.000000
vn 0.000000 0.000000 1.000000
vn 0.000000 0.000000 1.000000
vn 0.000000 0.000000 1.000000
vn 0.000000 0.000000 1.000000
vn 0.000000 0.000000 1.000000
vn 0.000000 -1.000000 0.000000
vn 0.000000 -1.000000 0.000000
vn 0.000000 -1.000000 0.000000
vn 0.000000 -1.000000 0.000000
vn 0.000000 -1.000000 0.000000
vn 0.000000 -1.000000 0.000000
vn 1.000000 0.000000 0.000000
vn 1.000000 0.000000 0.000000
vn 1.000000 0.000000 0.000000
vn 1.000000 0.000000 0.000000
vn 1.000000 0.000000 0.000000
vn 1.000000 0.000000 0.000000
vn 0.000000 1.000000 0.000000
vn 0.000000 1.000000 0.000000
vn 0.000000 1.000000 0.000000
vn 0.000000 1.000000 -0.000000
vn 0.000000 1.000000 -0.000000
vn 0.000000 1.000000 -0.000000
vn -1.000000 0.000000 0.000000
vn -1.000000 0.000000 0.000000
vn -1.000000 0.000000 0.000000
vn -1.000000 0.000000 0.000000
vn -1.000000 0.000000 0.000000
vn -1.000000 0.000000 0.000000
vn 0.000000 0.000000 -1.000000
vn 0.000000 0.000000 -1.000000
vn 0.000000 0.000000 -1.000000
vn 0.000000 0.000000 -1.000000
vn 0.000000 0.000000 -1.000000
vn 0.000000 0.000000 -1.000000
vn 0.000000 0.000000 1.000000
vn 0.000000 0.000000 1.000000
vn 0.000000 0.000000 1.000000
vn 0.000000 0.000000 1.000000
vn 0.000000 0.000000 1.000000
vn 0.000000 0.000000 1.000000
vn 0.000000 -1.000000 0.000000
vn 0.000000 -1.000000 0.000000
vn 0.000000 -1.000000 0.000000
vn 0.000000 -1.000000 0.000000
vn 0.000000 -1.000000 0.000000
vn 0.000000 -1.000000 0.000000
vn 1.000000 0.000000 0.000000
vn 1.000000 0.000000 0.000000
vn 1.000000 0.000000 0.000000
vn 1.000000 0.000000 0.000000
vn 1.000000 0.000000 0.000000
vn 1.000000 0.000000 0.000000
vn 0.000000 1.000000 0.000000
vn 0.000000 1.000000 0.000000
vn 0.000000 1.000000 0.000000
vn 0.000000 1.000000 -0.000000
vn 0.000000 1.000000 -0.000000
vn 0.000000 1.000000 -0.000000
vn -1.000000 0.000000 0.000000
vn -1.000000 0.000000 0.000000
vn -1.000000 0.000000 0.000000
vn -1.000000 0.000000 0.000000
vn -1.000000 0.000000 0.000000
vn -1.000000 0.000000 0.000000
vn 0.000000 0.000000 -1.000000
vn 0.000000 0.000000 -1.000000
vn 0.000000 0.000000 -1.000000
vn 0.000000 0.000000 -1.000000
vn 0.000000 0.000000 -1.000000
vn 0.000000 0.000000 -1.000000
vn 0.000000 0.000000 1.000000
vn 0.000000 0.000000 1.000000
vn 0.000000 0.000000 1.000000
vn 0.000000 0.000000 1.000000
vn 0.000000 0.000000 1.000000
vn 0.000000 0.000000 1.000000
vn 0.000000 -1.000000 0.000000
vn 0.000000 -1.000000 0.000000
vn 0.000000 -1.000000 0.000000
vn 0.000000 -1.000000 0.000000
vn 0.000000 -1.000000 0.000000
vn 0.000000 -1.000000 0.000000
vn 1.000000 0.000000 0.000000
vn 1.000000 0.000000 0.000000
vn 1.000000 0.000000 0.000000
vn 1.000000 0.000000 0.000000
vn 1.000000 0.000000 0.000000
vn 1.000000 0.000000 0.000000
vn 0.000000 1.000000 0.000000
vn 0.000000 1.000000 0.000000
vn 0.000000 1.000000 0.000000
vn 0.000000 1.000000 -0.000000
vn 0.000000 1.000000 -0.000000
vn 0.000000 1.000000 -0.000000
vn -1.000000 0.000000 0.000000
vn -1.000000 0.000000 0.000000
vn -1.000000 0.000000 0.000000
vn -1.000000 0.000000 0.000000
vn -1.000000 0.000000 0.000000
vn -1.000000 0.000000 0.000000
vn 0.000000 0.000000 -1.000000
vn 0.000000 0.000000 -1.000000
vn 0.000000 0.000000 -1.000000
vn 0.000000 0.000000 -1.000000
vn 0.000000 0.000000 -1.000000
vn 0.000000 0.000000 -1.000000
vn 0.000000 0.000000 1.000000
vn 0.000000 0.000000 1.000000
vn 0.000000 0.000000 1.000000
vn 0.000000 0.000000 1.000000
vn 0.000000 0.000000 1.000000
vn 0.000000 0.000000 1.000000
vn 0.000000 -1.000000 0.000000
vn 0.000000 -1.000000 0.000000
vn 0.000000 -1.000000 0.000000
vn 0.000000 -1.000000 0.000000
vn 0.000000 -1.000000 0.000000
vn 0.000000 -1.000000 0.000000
vn 1.000000 0.000000 0.000000
vn 1.000000 0.000000 0.000000
vn 1.000000 0.000000 0.000000
vn 1.000000 0.000000 0.000000
vn 1.000000 0.000000 0.000000
vn 1.000000 0.000000 0.000000
vn 0.000000 1.000000 0.000000
vn 0.000000 1.000000 0.000000
vn 0.000000 1.000000 0.000000
vn 0.000000 1.000000 -0.000000
vn 0.000000 1.000000 -0.000000
vn 0.000000 1.000000 -0.000000
vn -1.000000 0.000000 0.000000
vn -1.000000 0.000000 0.000000
vn -1.000000 0.000000 0.000000
vn -1.000000 0.000000 0.000000
vn -1.000000 0.000000 0.000000
vn -1.000000 0.000000 0.000000
vn 0.000000 0.000000 -1.000000
vn 0.000000 0.000000 -1.000000
vn 0.000000 0.000000 -1.000000
vn 0.000000 0.000000 -1.000000
vn 0.000000 0.000000 -1.000000
vn 0.000000 0.000000 -1.000000
vn 0.000000 0.000000 1.000000
vn 0.000000 0.000000 1.000000
vn 0.000000 0.000000 1.000000
vn 0.000000 0.000000 1.000000
vn 0.000000 0.000000 1.000000
vn 0.000000 0.000000 1.000000
vn 0.000000 -1.000000 0.000000
vn 0.000000 -1.000000 0.000000
vn 0.000000 -1.000000 0.000000
vn 0.000000 -1.000000 0.000000
vn 0.000000 -1.000000 0.000000
vn 0.000000 -1.000000 0.000000
vn 1.000000 0.000000 0.000000
vn 1.000000 0.000000 0.000000
vn 1.000000 0.000000 0.000000
vn 1.000000 0.000000 0.000000
vn 1.000000 0.000000 0.000000
vn 1.000000 0.000000 0.000000
vn 0.000000 1.000000 0.000000
vn 0.000000 1.000000 0.000000
vn 0.000000 1.000000 0.000000
vn 0.000000 1.000000 -0.000000
vn 0.000000 1.000000 -0.000000
vn 0.000000 1.000000 -0.000000
vn -1.000000 0.000000 0.000000
vn -1.000000 0.000000 0.000000
vn -1.000000 0.000000 0.000000
vn -1.000000 0.000000 0.000000
vn -1.000000 0.000000 0.000000
vn -1.000000 0.000000 0.000000
vn 0.000000 0.000000 -1.000000
vn 0.000000 0.000000 -1.000000
vn 0.000000 0.000000 -1.000000
vn 0.000000 0.000000 -1.000000
vn 0.000000 0.000000 -1.000000
vn 0.000000 0.000000 -1.000000
vn 0.000000 0.000000 1.000000
vn 0.000000 0.000000 1.000000
vn 0.000000 0.000000 1.000000
vn 0.000000 0.000000 1.000000
vn 0.000000 0.000000 1.000000
vn 0.000000 0.000000 1.000000
vn 0.000000 -1.000000 0.000000
vn 0.000000 -1.000000 0.000000
vn 0.000000 -1.000000 0.000000
vn 0.000000 -1.000000 0.000000
vn 0.000000 -1.000000 0.000000
vn 0.000000 -1.000000 0.000000
vn 1.000000 0.000000 0.000000
vn 1.000000 0.000000 0.000000
vn 1.000000 0.000000 0.000000
vn 1.000000 0.000000 0.000000
vn 1.000000 0.000000 0.000000
vn 1.000000 0.000000 0.000000
vn 0.000000 1.000000 0.000000
vn 0.000000 1.000000 0.000000
vn 0.000000 1.000000 0.000000
vn 0.000000 1.000000 -0.000000
vn 0.000000 1.000000 -0.000000
vn 0.000000 1.000000 -0.000000
vn -1.000000 0.000000 0.000000
vn -1.000000 0.000000 0.000000
vn -1.000000 0.000000 0.000000
vn -1.000000 0.000000 0.000000
vn -1.000000 0.000000 0.000000
vn -1.000000 0.000000 0.000000
vn 0.000000 0.000000 -1.000000
vn 0.000000 0.000000 -1.000000
vn 0.000000 0.000000 -1.000000
vn 0.000000 0.000000 -1.000000
vn 0.000000 0.000000 -1.000000
vn 0.000000 0.000000 -1.000000
vn 0.000000 0.000000 1.000000
vn 0.000000 0.000000 1.000000
vn 0.000000 0.000000 1.000000
vn 0.000000 0.000000 1.000000
vn 0.000000 0.000000 1.000000
vn 0.000000 0.000000 1.000000
vn 0.000000 -1.000000 0.000000
vn 0.000000 -1.000000 0.000000
vn 0.000000 -1.000000 0.000000
vn 0.000000 -1.000000 0.000000
vn 0.000000 -1.000000 0.000000
vn 0.000000 -1.000000 0.000000
vn 1.000000 0.000000 0.000000
vn 1.000000 0.000000 0.000000
vn 1.000000 0.000000 0.000000
vn 1.000000 0.000000 0.000000
vn 1.000000 0.000000 0.000000
vn 1.000000 0.000000 0.000000
vn 0.000000 1.000000 0.000000
vn 0.000000 1.000000 0.000000
vn 0.000000 1.000000 0.000000
vn 0.000000 1.000000 -0.000000
vn 0.000000 1.000000 -0.000000
vn 0.000000 1.000000 -0.000000
vn -1.000000 0.000000 0.000000
vn -1.000000 0.000000 0.000000
vn -1.000000 0.000000 0.000000
vn -1.000000 0.000000 0.000000
vn -1.000000 0.000000 0.000000
vn -1.000000 0.000000 0.000000
vn 0.000000 0.000000 -1.000000
vn 0.000000 0.000000 -1.000000
vn 0.000000 0.000000 -1.000000
vn 0.000000 0.000000 -1.000000
vn 0.000000 0.000000 -1.000000
vn 0.000000 0.000000 -1.000000
vn 0.000000 0.000000 1.000000
vn 0.000000 0.000000 1.000000
vn 0.000000 0.000000 1.000000
vn 0.000000 0.000000 1.000000
vn 0.000000 0.000000 1.000000
vn 0.000000 0.000000 1.000000
vn 0.000000 -1.000000 0.000000
vn 0.000000 -1.000000 0.000000
vn 0.000000 -1.000000 0.000000
vn 0.000000 -1.000000 0.000000
vn 0.000000 -1.000000 0.000000
vn 0.000000 -1.000000 0.000000
vn 1.000000 0.000000 0.000000
vn 1.000000 0.000000 0.000000
vn 1.000000 0.000000 0.000000
vn 1.000000 0.000000 0.000000
vn 1.000000 0.000000 0.000000
vn 1.000000 0.000000 0.000000
vn 0.000000 1.000000 0.000000
vn 0.000000 1.000000 0.000000
vn 0.000000 1.000000 0.000000
vn 0.000000 1.000000 -0.000000
vn 0.000000 1.000000 -0.000000
vn 0.000000 1.000000 -0.000000
vn -1.000000 0.000000 0.000000
vn -1.000000 0.000000 0.000000
vn -1.000000 0.000000 0.000000
vn -1.000000 0.000000 0.000000
vn -1.000000 0.000000 0.000000
vn -1.000000 0.000000 0.000000
vn 0.000000 0.000000 -1.000000
vn 0.000000 0.000000 -1.000000
vn 0.000000 0.000000 -1.000000
vn 0.000000 0.000000 -1.000000
vn 0.000000 0.000000 -1.000000
vn 0.000000 0.000000 -1.000000
vn 0.000000 0.000000 1.000000
vn 0.000000 0.000000 1.000000
vn 0.000000 0.000000 1.000000
vn 0.000000 0.000000 1.000000
vn 0.000000 0.000000 1.000000
vn 0.000000 0.000000 1.000000
vn 0.000000 -1.000000 0.000000
vn 0.000000 -1.000000 0.000000
vn 0.000000 -1.000000 0.000000
vn 0.000000 -1.000000 0.000000
vn 0.000000 -1.000000 0.000000
vn 0.000000 -1.000000 0.000000
vn 1.000000 0.000000 0.000000
vn 1.000000 0.000000 0.000000
vn 1.000000 0.000000 0.000000
vn 1.000000 0.000000 0.000000
vn 1.000000 0.000000 0.000000
vn 1.000000 0.000000 0.000000
vn 0.000000 1.000000 0.000000
vn 0.000000 1.000000 0.000000
vn 0.000000 1.000000 0.000000
vn 0.000000 1.000000 -0.000000
vn 0.000000 1.000000 -0.000000
vn 0.000000 1.000000 -0.000000
vn -1.000000 0.000000 0.000000
vn -1.000000 0.000000 0.000000
vn -1.000000 0.000000 0.000000
vn -1.000000 0.000000 0.000000
vn -1.000000 0.000000 0.000000
vn -1.000000 0.000000 0.000000
vn 0.000000 0.000000 -1.000000
vn 0.000000 0.000000 -1.000000
vn 0.000000 0.000000 -1.000000
vn 0.000000 0.000000 -1.000000
vn 0.000000 0.000000 -1.000000
vn 0.000000 0.000000 -1.000000
vn 0.000000 0.000000 1.000000
vn 0.000000 0.000000 1.000000
vn 0.000000 0.000000 1.000000
vn 0.000000 0.000000 1.000000
vn 0.000000 0.000000 1.000000
vn 0.000000 0.000000 1.000000
vn 0.000000 -1.000000 0.000000
vn 0.000000 -1.000000 0.000000
vn 0.000000 -1.000000 0.000000
vn 0.000000 -1.000000 0.000000
vn 0.000000 -1.000000 0.000000
vn 0.000000 -1.000000 0.000000
vn 1.000000 0.000000 0.000000
vn 1.000000 0.000000 0.000000
vn 1.000000 0.000000 0.000000
vn 1.000000 0.000000 0.000000
vn 1.000000 0.000000 0.000000
vn 1.000000 0.000000 0.000000
vn 0.000000 1.000000 0.000000
vn 0.000000 1.000000 0.000000
vn 0.000000 1.000000 0.000000
vn 0.000000 1.000000 -0.000000
vn 0.000000 1.000000 -0.000000
vn 0.000000 1.000000 -0.000000
vn -1.000000 0.000000 0.000000
vn -1.000000 0.000000 0.000000
vn -1.000000 0.000000 0.000000
vn -1.000000 0.000000 0.000000
vn -1.000000 0.000000 0.000000
vn -1.000000 0.000000 0.000000
vn 0.000000 0.000000 -1.000000
vn 0.000000 0.000000 -1.000000
vn 0.000000 0.000000 -1.000000
vn 0.000000 0.000000 -1.000000
vn 0.000000 0.000000 -1.000000
vn 0.000000 0.000000 -1.000000
vn 0.000000 0.000000 1.000000
vn 0.000000 0.000000 1.000000
vn 0.000000 0.000000 1.000000
vn 0.000000 0.000000 1.000000
vn 0.000000 0.000000 1.000000
vn 0.000000 0.000000 1.000000
vn 0.000000 -1.000000 0.000000
vn 0.000000 -1.000000 0.000000
vn 0.000000 -1.000000 0.000000
vn 0.000000 -1.000000 0.000000
vn 0.000000 -1.000000 0.000000
vn 0.000000 -1.000000 0.000000
vn 1.000000 0.000000 0.000000
vn 1.000000 0.000000 0.000000
vn 1.000000 0.000000 0.000000
vn 1.000000 0.000000 0.000000
vn 1.000000 0.000000 0.000000
vn 1.000000 0.000000 0.000000
vn 0.000000 1.000000 0.000000
vn 0.000000 1.000000 0.000000
vn 0.000000 1.000000 0.000000
vn 0.000000 1.000000 -0.000000
vn 0.000000 1.000000 -0.000000
vn 0.000000 1.000000 -0.000000
vn -1.000000 0.000000 0.000000
vn -1.000000 0.000000 0.000000
vn -1.000000 0.000000 0.000000
vn -1.000000 0.000000 0.000000
vn -1.000000 0.000000 0.000000
vn -1.000000 0.000000 0.000000
vn 0.000000 0.000000 -1.000000
vn 0.000000 0.000000 -1.000000
vn 0.000000 0.000000 -1.000000
vn 0.000000 0.000000 -1.000000
vn 0.000000 0.000000 -1.000000
vn 0.000000 0.000000 -1.000000
vn 0.000000 0.000000 1.000000
vn 0.000000 0.000000 1.000000
vn 0.000000 0.000000 1.000000
vn 0.000000 0.000000 1.000000
vn 0.000000 0.000000 1.000000
vn 0.000000 0.000000 1.000000
vn 0.000000 -1.000000 0.000000
vn 0.000000 -1.000000 0.000000
vn 0.000000 -1.000000 0.000000
vn 0.000000 -1.000000 0.000000
vn 0.000000 -1.000000 0.000000
vn 0.000000 -1.000000 0.000000
vn 1.000000 0.000000 0.000000
vn 1.000000 0.000000 0.000000
vn 1.000000 0.000000 0.000000
vn 1.000000 0.000000 0.000000
vn 1.000000 0.000000 0.000000
vn 1.000000 0.000000 0.000000
vn 0.000000 1.000000 0.000000
vn 0.000000 1.000000 0.000000
vn 0.000000 1.000000 0.000000
vn 0.000000 1.000000 -0.000000
vn 0.000000 1.000000 -0.000000
vn 0.000000 1.000000 -0.000000
vn -1.000000 0.000000 0.000000
vn -1.000000 0.000000 0.000000
vn -1.000000 0.000000 0.000000
vn -1.000000 0.000000 0.000000
vn -1.000000 0.000000 0.000000
vn -1.000000 0.000000 0.000000
vn 0.000000 0.000000 -1.000000
vn 0.000000 0.000000 -1.000000
vn 0.000000 0.000000 -1.000000
vn 0.000000 0.000000 -1.000000
vn 0.000000 0.000000 -1.000000
vn 0.000000 0.000000 -1.000000
vn 0.000000 0.000000 1.000000
vn 0.000000 0.000000 1.000000
vn 0.000000 0.000000 1.000000
vn 0.000000 0.000000 1.000000
vn 0.000000 0.000000 1.000000
vn 0.000000 0.000000 1.000000
vn 0.000000 -1.000000 0.000000
vn 0.000000 -1.000000 0.000000
vn 0.000000 -1.000000 0.000000
vn 0.000000 -1.000000 0.000000
vn 0.000000 -1.000000 0.000000
vn 0.000000 -1.000000 0.000000
vn 1.000000 0.000000 0.000000
vn 1.000000 0.000000 0.000000
vn 1.000000 0.000000 0.000000
vn 1.000000 0.000000 0.000000
vn 1.000000 0.000000 0.000000
vn 1.000000 0.000000 0.000000
vn 0.000000 1.000000 0.000000
vn 0.000000 1.000000 0.000000
vn 0.000000 1.000000 0.000000
vn 0.000000 1.000000 -0.000000
vn 0.000000 1.000000 -0.000000
vn 0.000000 1.000000 -0.000000
vn -1.000000 0.000000 0.000000
vn -1.000000 0.000000 0.000000
vn -1.000000 0.000000 0.000000
vn -1.000000 0.000000 0.000000
vn -1.000000 0.000000 0.000000
vn -1.000000 0.000000 0.000000
usemtl UV_Base
vt 0.962890625 0.773983839
vt 0.962890625 0.753906250
vt 0.982968214 0.753906250
vt 0.962890625 0.773983839
vt 0.982968214 0.753906250
vt 0.982968214 0.773983839
vt 0.003906250 0.902343750
vt 0.023983839 0.902343750
vt 0.023983839 0.922421339
vt 0.003906250 0.902343750
vt 0.023983839 0.922421339
vt 0.003906250 0.922421339
vt 0.519531250 0.003906250
vt 0.519531250 0.023983839
vt 0.005043030 0.023983839
vt 0.519531250 0.003906250
vt 0.005043030 0.023983839
vt 0.005043030 0.003906250
vt 0.519531250 0.033203125
vt 0.519531250 0.053280714
vt 0.005043030 0.053280714
vt 0.519531250 0.033203125
vt 0.005043030 0.053280714
vt 0.005043030 0.033203125
vt 0.005043030 0.082577589
vt 0.005043030 0.062500000
vt 0.519531250 0.062500000
vt 0.005043030 0.082577589
vt 0.519531250 0.062500000
vt 0.519531250 0.082577589
vt 0.005043030 0.111874464
vt 0.005043030 0.091796875
vt 0.519531250 0.091796875
vt 0.005043030 0.111874464
vt 0.519531250 0.091796875
vt 0.519531250 0.111874464
vt 0.033203125 0.922421339
vt 0.033203125 0.902343750
vt 0.053280714 0.902343750
vt 0.033203125 0.922421339
vt 0.053280714 0.902343750
vt 0.053280714 0.922421339
vt 0.062500000 0.902343750
vt 0.082577589 0.902343750
vt 0.082577589 0.922421339
vt 0.062500000 0.902343750
vt 0.082577589 0.922421339
vt 0.062500000 0.922421339
vt 0.519531250 0.121093750
vt 0.519531250 0.141171339
vt 0.005043030 0.141171339
vt 0.519531250 0.121093750
vt 0.005043030 0.141171339
vt 0.005043030 0.121093750
vt 0.519531250 0.150390625
vt 0.519531250 0.170468214
vt 0.005043030 0.170468214
vt 0.519531250 0.150390625
vt 0.005043030 0.170468214
vt 0.005043030 0.150390625
vt 0.005043030 0.199765089
vt 0.005043030 0.179687500
vt 0.519531250 0.179687500
vt 0.005043030 0.199765089
vt 0.519531250 0.179687500
vt 0.519531250 0.199765089
vt 0.005043030 0.229061964
vt 0.005043030 0.208984375
vt 0.519531250 0.208984375
vt 0.005043030 0.229061964
vt 0.519531250 0.208984375
vt 0.519531250 0.229061964
vt 0.787109375 0.023983839
vt 0.787109375 0.003906250
vt 0.992904663 0.003906250
vt 0.787109375 0.023983839
vt 0.992904663 0.003906250
vt 0.992904663 0.023983839
vt 0.787109375 0.033203125
vt 0.992904663 0.033203125
vt 0.992904663 0.053280714
vt 0.787109375 0.033203125
vt 0.992904663 0.053280714
vt 0.787109375 0.053280714
vt 0.787109375 0.062500000
vt 0.992904663 0.062500000
vt 0.992904663 0.082577589
vt 0.787109375 0.062500000
vt 0.992904663 0.082577589
vt 0.787109375 0.082577589
vt 0.527343750 0.003906250
vt 0.547421339 0.003906250
vt 0.547421339 0.023983839
vt 0.527343750 0.003906250
vt 0.547421339 0.023983839
vt 0.527343750 0.023983839
vt 0.992904663 0.111874464
vt 0.787109375 0.111874464
vt 0.787109375 0.091796875
vt 0.992904663 0.111874464
vt 0.787109375 0.091796875
vt 0.992904663 0.091796875
vt 0.547421339 0.053280714
vt 0.527343750 0.053280714
vt 0.527343750 0.033203125
vt 0.547421339 0.053280714
vt 0.527343750 0.033203125
vt 0.547421339 0.033203125
vt 0.787109375 0.141171339
vt 0.787109375 0.121093750
vt 0.992904663 0.121093750
vt 0.787109375 0.141171339
vt 0.992904663 0.121093750
vt 0.992904663 0.141171339
vt 0.787109375 0.150390625
vt 0.992904663 0.150390625
vt 0.992904663 0.170468214
vt 0.787109375 0.150390625
vt 0.992904663 0.170468214
vt 0.787109375 0.170468214
vt 0.787109375 0.179687500
vt 0.992904663 0.179687500
vt 0.992904663 0.199765089
vt 0.787109375 0.179687500
vt 0.992904663 0.199765089
vt 0.787109375 0.199765089
vt 0.758236024 0.003906250
vt 0.778313614 0.003906250
vt 0.778313614 0.023983839
vt 0.758236024 0.003906250
vt 0.778313614 0.023983839
vt 0.758236024 0.023983839
vt 0.992904663 0.229061964
vt 0.787109375 0.229061964
vt 0.787109375 0.208984375
vt 0.992904663 0.229061964
vt 0.787109375 0.208984375
vt 0.992904663 0.208984375
vt 0.778313614 0.053280714
vt 0.758236024 0.053280714
vt 0.758236024 0.033203125
vt 0.778313614 0.053280714
vt 0.758236024 0.033203125
vt 0.778313614 0.033203125
vt 0.264655136 0.386718750
vt 0.515625000 0.386718750
vt 0.515625000 0.401776942
vt 0.264655136 0.386718750
vt 0.515625000 0.401776942
vt 0.264655136 0.401776942
vt 0.775390625 0.386718750
vt 0.775390625 0.401776942
vt 0.524420761 0.401776942
vt 0.775390625 0.386718750
vt 0.524420761 0.401776942
vt 0.524420761 0.386718750
vt 0.787109375 0.062500000
vt 0.802167567 0.062500000
vt 0.802167567 0.082577589
vt 0.787109375 0.062500000
vt 0.802167567 0.082577589
vt 0.787109375 0.082577589
vt 0.527343750 0.062500000
vt 0.778313614 0.062500000
vt 0.778313614 0.082577589
vt 0.527343750 0.062500000
vt 0.778313614 0.082577589
vt 0.527343750 0.082577589
vt 0.802167567 0.229061964
vt 0.787109375 0.229061964
vt 0.787109375 0.208984375
vt 0.802167567 0.229061964
vt 0.787109375 0.208984375
vt 0.802167567 0.208984375
vt 0.778313614 0.053280714
vt 0.527343750 0.053280714
vt 0.527343750 0.033203125
vt 0.778313614 0.053280714
vt 0.527343750 0.033203125
vt 0.778313614 0.033203125
vt 0.004889511 0.412109375
vt 0.255859375 0.412109375
vt 0.255859375 0.427167567
vt 0.004889511 0.412109375
vt 0.255859375 0.427167567
vt 0.004889511 0.427167567
vt 0.515625000 0.412109375
vt 0.515625000 0.427167567
vt 0.264655136 0.427167567
vt 0.515625000 0.412109375
vt 0.264655136 0.427167567
vt 0.264655136 0.412109375
vt 0.977846471 0.062500000
vt 0.992904663 0.062500000
vt 0.992904663 0.082577589
vt 0.977846471 0.062500000
vt 0.992904663 0.082577589
vt 0.977846471 0.082577589
vt 0.527343750 0.003906250
vt 0.778313614 0.003906250
vt 0.778313614 0.023983839
vt 0.527343750 0.003906250
vt 0.778313614 0.023983839
vt 0.527343750 0.023983839
vt 0.992904663 0.229061964
vt 0.977846471 0.229061964
vt 0.977846471 0.208984375
vt 0.992904663 0.229061964
vt 0.977846471 0.208984375
vt 0.992904663 0.208984375
vt 0.778313614 0.111874464
vt 0.527343750 0.111874464
vt 0.527343750 0.091796875
vt 0.778313614 0.111874464
vt 0.527343750 0.091796875
vt 0.778313614 0.091796875
vt 0.783203125 0.359921339
vt 0.783203125 0.339843750
vt 0.988998413 0.339843750
vt 0.783203125 0.359921339
vt 0.988998413 0.339843750
vt 0.988998413 0.359921339
vt 0.003906250 0.695312500
vt 0.209701538 0.695312500
vt 0.209701538 0.715390089
vt 0.003906250 0.695312500
vt 0.209701538 0.715390089
vt 0.003906250 0.715390089
vt 0.218750000 0.695312500
vt 0.424545288 0.695312500
vt 0.424545288 0.715390089
vt 0.218750000 0.695312500
vt 0.424545288 0.715390089
vt 0.218750000 0.715390089
vt 0.527343750 0.121093750
vt 0.547421339 0.121093750
vt 0.547421339 0.141171339
vt 0.527343750 0.121093750
vt 0.547421339 0.141171339
vt 0.527343750 0.141171339
vt 0.639389038 0.715390089
vt 0.433593750 0.715390089
vt 0.433593750 0.695312500
vt 0.639389038 0.715390089
vt 0.433593750 0.695312500
vt 0.639389038 0.695312500
vt 0.547421339 0.170468214
vt 0.527343750 0.170468214
vt 0.527343750 0.150390625
vt 0.547421339 0.170468214
vt 0.527343750 0.150390625
vt 0.547421339 0.150390625
vt 0.648437500 0.715390089
vt 0.648437500 0.695312500
vt 0.854232788 0.695312500
vt 0.648437500 0.715390089
vt 0.854232788 0.695312500
vt 0.854232788 0.715390089
vt 0.003906250 0.724609375
vt 0.209701538 0.724609375
vt 0.209701538 0.744686964
vt 0.003906250 0.724609375
vt 0.209701538 0.744686964
vt 0.003906250 0.744686964
vt 0.218750000 0.724609375
vt 0.424545288 0.724609375
vt 0.424545288 0.744686964
vt 0.218750000 0.724609375
vt 0.424545288 0.744686964
vt 0.218750000 0.744686964
vt 0.758236024 0.121093750
vt 0.778313614 0.121093750
vt 0.778313614 0.141171339
vt 0.758236024 0.121093750
vt 0.778313614 0.141171339
vt 0.758236024 0.141171339
vt 0.639389038 0.744686964
vt 0.433593750 0.744686964
vt 0.433593750 0.724609375
vt 0.639389038 0.744686964
vt 0.433593750 0.724609375
vt 0.639389038 0.724609375
vt 0.778313614 0.170468214
vt 0.758236024 0.170468214
vt 0.758236024 0.150390625
vt 0.778313614 0.170468214
vt 0.758236024 0.150390625
vt 0.778313614 0.150390625
vt 0.524420761 0.412109375
vt 0.775390625 0.412109375
vt 0.775390625 0.427167567
vt 0.524420761 0.412109375
vt 0.775390625 0.427167567
vt 0.524420761 0.427167567
vt 0.255859375 0.435546875
vt 0.255859375 0.450605067
vt 0.004889511 0.450605067
vt 0.255859375 0.435546875
vt 0.004889511 0.450605067
vt 0.004889511 0.435546875
vt 0.218750000 0.695312500
vt 0.233808192 0.695312500
vt 0.233808192 0.715390089
vt 0.218750000 0.695312500
vt 0.233808192 0.715390089
vt 0.218750000 0.715390089
vt 0.527343750 0.179687500
vt 0.778313614 0.179687500
vt 0.778313614 0.199765089
vt 0.527343750 0.179687500
vt 0.778313614 0.199765089
vt 0.527343750 0.199765089
vt 0.448651942 0.744686964
vt 0.433593750 0.744686964
vt 0.433593750 0.724609375
vt 0.448651942 0.744686964
vt 0.433593750 0.724609375
vt 0.448651942 0.724609375
vt 0.778313614 0.170468214
vt 0.527343750 0.170468214
vt 0.527343750 0.150390625
vt 0.778313614 0.170468214
vt 0.527343750 0.150390625
vt 0.778313614 0.150390625
vt 0.264655136 0.435546875
vt 0.515625000 0.435546875
vt 0.515625000 0.450605067
vt 0.264655136 0.435546875
vt 0.515625000 0.450605067
vt 0.264655136 0.450605067
vt 0.775390625 0.435546875
vt 0.775390625 0.450605067
vt 0.524420761 0.450605067
vt 0.775390625 0.435546875
vt 0.524420761 0.450605067
vt 0.524420761 0.435546875
vt 0.409487096 0.695312500
vt 0.424545288 0.695312500
vt 0.424545288 0.715390089
vt 0.409487096 0.695312500
vt 0.424545288 0.715390089
vt 0.409487096 0.715390089
vt 0.527343750 0.121093750
vt 0.778313614 0.121093750
vt 0.778313614 0.141171339
vt 0.527343750 0.121093750
vt 0.778313614 0.141171339
vt 0.527343750 0.141171339
vt 0.639389038 0.744686964
vt 0.624330846 0.744686964
vt 0.624330846 0.724609375
vt 0.639389038 0.744686964
vt 0.624330846 0.724609375
vt 0.639389038 0.724609375
vt 0.778313614 0.229061964
vt 0.527343750 0.229061964
vt 0.527343750 0.208984375
vt 0.778313614 0.229061964
vt 0.527343750 0.208984375
vt 0.778313614 0.208984375
vt 0.003907832 0.458984375
vt 0.246093750 0.458984375
vt 0.246093750 0.639682677
vt 0.003907832 0.458984375
vt 0.246093750 0.639682677
vt 0.003907832 0.639682677
vt 0.496093750 0.458984375
vt 0.496093750 0.639682677
vt 0.253907832 0.639682677
vt 0.496093750 0.458984375
vt 0.253907832 0.639682677
vt 0.253907832 0.458984375
vt 0.003906250 0.753906250
vt 0.184604552 0.753906250
vt 0.184604552 0.791551730
vt 0.003906250 0.753906250
vt 0.184604552 0.791551730
vt 0.003906250 0.791551730
vt 0.003906250 0.648437500
vt 0.246092168 0.648437500
vt 0.246092168 0.686082980
vt 0.003906250 0.648437500
vt 0.246092168 0.686082980
vt 0.003906250 0.686082980
vt 0.374057677 0.791551730
vt 0.193359375 0.791551730
vt 0.193359375 0.753906250
vt 0.374057677 0.791551730
vt 0.193359375 0.753906250
vt 0.374057677 0.753906250
vt 0.496092168 0.686082980
vt 0.253906250 0.686082980
vt 0.253906250 0.648437500
vt 0.496092168 0.686082980
vt 0.253906250 0.648437500
vt 0.496092168 0.648437500
vt 0.503907832 0.458984375
vt 0.746093750 0.458984375
vt 0.746093750 0.639682677
vt 0.503907832 0.458984375
vt 0.746093750 0.639682677
vt 0.503907832 0.639682677
vt 0.996093750 0.458984375
vt 0.996093750 0.639682677
vt 0.753907832 0.639682677
vt 0.996093750 0.458984375
vt 0.753907832 0.639682677
vt 0.753907832 0.458984375
vt 0.382812500 0.753906250
vt 0.563510802 0.753906250
vt 0.563510802 0.791551730
vt 0.382812500 0.753906250
vt 0.563510802 0.791551730
vt 0.382812500 0.791551730
vt 0.503906250 0.648437500
vt 0.746092168 0.648437500
vt 0.746092168 0.686082980
vt 0.503906250 0.648437500
vt 0.746092168 0.686082980
vt 0.503906250 0.686082980
vt 0.752963927 0.791551730
vt 0.572265625 0.791551730
vt 0.572265625 0.753906250
vt 0.752963927 0.791551730
vt 0.572265625 0.753906250
vt 0.752963927 0.753906250
vt 0.996092168 0.686082980
vt 0.753906250 0.686082980
vt 0.753906250 0.648437500
vt 0.996092168 0.686082980
vt 0.753906250 0.648437500
vt 0.996092168 0.648437500
vt 0.524420761 0.339843750
vt 0.775390625 0.339843750
vt 0.775390625 0.357411640
vt 0.524420761 0.339843750
vt 0.775390625 0.357411640
vt 0.524420761 0.357411640
vt 0.255859375 0.386718750
vt 0.255859375 0.404286640
vt 0.004889511 0.404286640
vt 0.255859375 0.386718750
vt 0.004889511 0.404286640
vt 0.004889511 0.386718750
vt 0.960937500 0.386718750
vt 0.960937500 0.404286640
vt 0.923292020 0.404286640
vt 0.960937500 0.386718750
vt 0.923292020 0.404286640
vt 0.923292020 0.386718750
vt 0.003906250 0.339843750
vt 0.254876114 0.339843750
vt 0.254876114 0.377489230
vt 0.003906250 0.339843750
vt 0.254876114 0.377489230
vt 0.003906250 0.377489230
vt 0.925771015 0.838426730
vt 0.908203125 0.838426730
vt 0.908203125 0.800781250
vt 0.925771015 0.838426730
vt 0.908203125 0.800781250
vt 0.925771015 0.800781250
vt 0.514641739 0.377489230
vt 0.263671875 0.377489230
vt 0.263671875 0.339843750
vt 0.514641739 0.377489230
vt 0.263671875 0.339843750
vt 0.514641739 0.339843750
vt 0.984516702 0.238281250
vt 0.988281250 0.238281250
vt 0.988281250 0.255849140
vt 0.984516702 0.238281250
vt 0.988281250 0.255849140
vt 0.984516702 0.255849140
vt 0.988281250 0.263671875
vt 0.988281250 0.281239765
vt 0.984516702 0.281239765
vt 0.988281250 0.263671875
vt 0.984516702 0.281239765
vt 0.984516702 0.263671875
vt 0.933593750 0.800781250
vt 0.951161640 0.800781250
vt 0.951161640 0.838426730
vt 0.933593750 0.800781250
vt 0.951161640 0.838426730
vt 0.933593750 0.838426730
vt 0.984375000 0.800781250
vt 0.988139548 0.800781250
vt 0.988139548 0.838426730
vt 0.984375000 0.800781250
vt 0.988139548 0.838426730
vt 0.984375000 0.838426730
vt 0.976552265 0.838426730
vt 0.958984375 0.838426730
vt 0.958984375 0.800781250
vt 0.976552265 0.838426730
vt 0.958984375 0.800781250
vt 0.976552265 0.800781250
vt 0.954936423 0.791551730
vt 0.951171875 0.791551730
vt 0.951171875 0.753906250
vt 0.954936423 0.791551730
vt 0.951171875 0.753906250
vt 0.954936423 0.753906250
vt 0.784813020 0.386718750
vt 0.914062500 0.386718750
vt 0.914062500 0.404286640
vt 0.784813020 0.386718750
vt 0.914062500 0.404286640
vt 0.784813020 0.404286640
vt 0.994140625 0.695312500
vt 0.994140625 0.712880390
vt 0.864891145 0.712880390
vt 0.994140625 0.695312500
vt 0.864891145 0.712880390
vt 0.864891145 0.695312500
vt 0.900390625 0.753906250
vt 0.917958515 0.753906250
vt 0.917958515 0.791551730
vt 0.900390625 0.753906250
vt 0.917958515 0.791551730
vt 0.900390625 0.791551730
vt 0.761718750 0.753906250
vt 0.890968230 0.753906250
vt 0.890968230 0.791551730
vt 0.761718750 0.753906250
vt 0.890968230 0.791551730
vt 0.761718750 0.791551730
vt 0.943349140 0.791551730
vt 0.925781250 0.791551730
vt 0.925781250 0.753906250
vt 0.943349140 0.791551730
vt 0.925781250 0.753906250
vt 0.943349140 0.753906250
vt 0.133155730 0.838426730
vt 0.003906250 0.838426730
vt 0.003906250 0.800781250
vt 0.133155730 0.838426730
vt 0.003906250 0.800781250
vt 0.133155730 0.800781250
vt 0.968750000 0.404286640
vt 0.968750000 0.386718750
vt 0.986317890 0.386718750
vt 0.968750000 0.404286640
vt 0.986317890 0.386718750
vt 0.986317890 0.404286640
vt 0.976562500 0.724609375
vt 0.994130390 0.724609375
vt 0.994130390 0.742177265
vt 0.976562500 0.724609375
vt 0.994130390 0.742177265
vt 0.976562500 0.742177265
vt 0.486328125 0.238281250
vt 0.486328125 0.255849140
vt 0.004465987 0.255849140
vt 0.486328125 0.238281250
vt 0.004465987 0.255849140
vt 0.004465987 0.238281250
vt 0.976562500 0.238281250
vt 0.976562500 0.255849140
vt 0.494700362 0.255849140
vt 0.976562500 0.238281250
vt 0.494700362 0.255849140
vt 0.494700362 0.238281250
vt 0.004465987 0.281239765
vt 0.004465987 0.263671875
vt 0.486328125 0.263671875
vt 0.004465987 0.281239765
vt 0.486328125 0.263671875
vt 0.486328125 0.281239765
vt 0.494700362 0.281239765
vt 0.494700362 0.263671875
vt 0.976562500 0.263671875
vt 0.494700362 0.281239765
vt 0.976562500 0.263671875
vt 0.976562500 0.281239765
vt 0.091796875 0.919911640
vt 0.091796875 0.902343750
vt 0.109364765 0.902343750
vt 0.091796875 0.919911640
vt 0.109364765 0.902343750
vt 0.109364765 0.919911640
vt 0.117187500 0.902343750
vt 0.134755390 0.902343750
vt 0.134755390 0.919911640
vt 0.117187500 0.902343750
vt 0.134755390 0.919911640
vt 0.117187500 0.919911640
vt 0.486328125 0.289062500
vt 0.486328125 0.306630390
vt 0.004465987 0.306630390
vt 0.486328125 0.289062500
vt 0.004465987 0.306630390
vt 0.004465987 0.289062500
vt 0.976562500 0.289062500
vt 0.976562500 0.306630390
vt 0.494700362 0.306630390
vt 0.976562500 0.289062500
vt 0.494700362 0.306630390
vt 0.494700362 0.289062500
vt 0.004465987 0.332021015
vt 0.004465987 0.314453125
vt 0.486328125 0.314453125
vt 0.004465987 0.332021015
vt 0.486328125 0.314453125
vt 0.486328125 0.332021015
vt 0.494700362 0.332021015
vt 0.494700362 0.314453125
vt 0.976562500 0.314453125
vt 0.494700362 0.332021015
vt 0.976562500 0.314453125
vt 0.976562500 0.332021015
vt 0.143752680 0.800781250
vt 0.244140625 0.800781250
vt 0.244140625 0.823368538
vt 0.143752680 0.800781250
vt 0.244140625 0.823368538
vt 0.143752680 0.823368538
vt 0.353515625 0.800781250
vt 0.353515625 0.823368538
vt 0.253127680 0.823368538
vt 0.353515625 0.800781250
vt 0.253127680 0.823368538
vt 0.253127680 0.800781250
vt 0.113281250 0.878906250
vt 0.135868538 0.878906250
vt 0.135868538 0.892709592
vt 0.113281250 0.878906250
vt 0.135868538 0.892709592
vt 0.113281250 0.892709592
vt 0.783203125 0.412109375
vt 0.883591070 0.412109375
vt 0.883591070 0.425912717
vt 0.783203125 0.412109375
vt 0.883591070 0.425912717
vt 0.783203125 0.425912717
vt 0.167118538 0.892709592
vt 0.144531250 0.892709592
vt 0.144531250 0.878906250
vt 0.167118538 0.892709592
vt 0.144531250 0.878906250
vt 0.167118538 0.878906250
vt 0.992966070 0.425912717
vt 0.892578125 0.425912717
vt 0.892578125 0.412109375
vt 0.992966070 0.425912717
vt 0.892578125 0.412109375
vt 0.992966070 0.412109375
vt 0.362502680 0.800781250
vt 0.462890625 0.800781250
vt 0.462890625 0.823368538
vt 0.362502680 0.800781250
vt 0.462890625 0.823368538
vt 0.362502680 0.823368538
vt 0.572265625 0.800781250
vt 0.572265625 0.823368538
vt 0.471877680 0.823368538
vt 0.572265625 0.800781250
vt 0.471877680 0.823368538
vt 0.471877680 0.800781250
vt 0.175781250 0.878906250
vt 0.198368538 0.878906250
vt 0.198368538 0.892709592
vt 0.175781250 0.878906250
vt 0.198368538 0.892709592
vt 0.175781250 0.892709592
vt 0.783203125 0.435546875
vt 0.883591070 0.435546875
vt 0.883591070 0.449350217
vt 0.783203125 0.435546875
vt 0.883591070 0.449350217
vt 0.783203125 0.449350217
vt 0.229618538 0.892709592
vt 0.207031250 0.892709592
vt 0.207031250 0.878906250
vt 0.229618538 0.892709592
vt 0.207031250 0.878906250
vt 0.229618538 0.878906250
vt 0.992966070 0.449350217
vt 0.892578125 0.449350217
vt 0.892578125 0.435546875
vt 0.992966070 0.449350217
vt 0.892578125 0.435546875
vt 0.992966070 0.435546875
vt 0.581252680 0.800781250
vt 0.681640625 0.800781250
vt 0.681640625 0.823368538
vt 0.581252680 0.800781250
vt 0.681640625 0.823368538
vt 0.581252680 0.823368538
vt 0.791015625 0.800781250
vt 0.791015625 0.823368538
vt 0.690627680 0.823368538
vt 0.791015625 0.800781250
vt 0.690627680 0.823368538
vt 0.690627680 0.800781250
vt 0.238281250 0.878906250
vt 0.260868538 0.878906250
vt 0.260868538 0.892709592
vt 0.238281250 0.878906250
vt 0.260868538 0.892709592
vt 0.238281250 0.892709592
vt 0.648437500 0.724609375
vt 0.748825445 0.724609375
vt 0.748825445 0.738412717
vt 0.648437500 0.724609375
vt 0.748825445 0.738412717
vt 0.648437500 0.738412717
vt 0.292118538 0.892709592
vt 0.269531250 0.892709592
vt 0.269531250 0.878906250
vt 0.292118538 0.892709592
vt 0.269531250 0.878906250
vt 0.292118538 0.878906250
vt 0.858200445 0.738412717
vt 0.757812500 0.738412717
vt 0.757812500 0.724609375
vt 0.858200445 0.738412717
vt 0.757812500 0.724609375
vt 0.858200445 0.724609375
vt 0.800002680 0.800781250
vt 0.900390625 0.800781250
vt 0.900390625 0.823368538
vt 0.800002680 0.800781250
vt 0.900390625 0.823368538
vt 0.800002680 0.823368538
vt 0.105468750 0.847656250
vt 0.105468750 0.870243538
vt 0.005080805 0.870243538
vt 0.105468750 0.847656250
vt 0.005080805 0.870243538
vt 0.005080805 0.847656250
vt 0.300781250 0.878906250
vt 0.323368538 0.878906250
vt 0.323368538 0.892709592
vt 0.300781250 0.878906250
vt 0.323368538 0.892709592
vt 0.300781250 0.892709592
vt 0.867187500 0.724609375
vt 0.967575445 0.724609375
vt 0.967575445 0.738412717
vt 0.867187500 0.724609375
vt 0.967575445 0.738412717
vt 0.867187500 0.738412717
vt 0.354618538 0.892709592
vt 0.332031250 0.892709592
vt 0.332031250 0.878906250
vt 0.354618538 0.892709592
vt 0.332031250 0.878906250
vt 0.354618538 0.878906250
vt 0.651169195 0.861459592
vt 0.550781250 0.861459592
vt 0.550781250 0.847656250
vt 0.651169195 0.861459592
vt 0.550781250 0.847656250
vt 0.651169195 0.847656250
vt 0.114455805 0.847656250
vt 0.214843750 0.847656250
vt 0.214843750 0.870243538
vt 0.114455805 0.847656250
vt 0.214843750 0.870243538
vt 0.114455805 0.870243538
vt 0.324218750 0.847656250
vt 0.324218750 0.870243538
vt 0.223830805 0.870243538
vt 0.324218750 0.847656250
vt 0.223830805 0.870243538
vt 0.223830805 0.847656250
vt 0.363281250 0.878906250
vt 0.385868538 0.878906250
vt 0.385868538 0.892709592
vt 0.363281250 0.878906250
vt 0.385868538 0.892709592
vt 0.363281250 0.892709592
vt 0.660156250 0.847656250
vt 0.760544195 0.847656250
vt 0.760544195 0.861459592
vt 0.660156250 0.847656250
vt 0.760544195 0.861459592
vt 0.660156250 0.861459592
vt 0.417118538 0.892709592
vt 0.394531250 0.892709592
vt 0.394531250 0.878906250
vt 0.417118538 0.892709592
vt 0.394531250 0.878906250
vt 0.417118538 0.878906250
vt 0.869919195 0.861459592
vt 0.769531250 0.861459592
vt 0.769531250 0.847656250
vt 0.869919195 0.861459592
vt 0.769531250 0.847656250
vt 0.869919195 0.847656250
vt 0.333205805 0.847656250
vt 0.433593750 0.847656250
vt 0.433593750 0.870243538
vt 0.333205805 0.847656250
vt 0.433593750 0.870243538
vt 0.333205805 0.870243538
vt 0.542968750 0.847656250
vt 0.542968750 0.870243538
vt 0.442580805 0.870243538
vt 0.542968750 0.847656250
vt 0.442580805 0.870243538
vt 0.442580805 0.847656250
vt 0.425781250 0.878906250
vt 0.448368538 0.878906250
vt 0.448368538 0.892709592
vt 0.425781250 0.878906250
vt 0.448368538 0.892709592
vt 0.425781250 0.892709592
vt 0.878906250 0.847656250
vt 0.979294195 0.847656250
vt 0.979294195 0.861459592
vt 0.878906250 0.847656250
vt 0.979294195 0.861459592
vt 0.878906250 0.861459592
vt 0.479618538 0.892709592
vt 0.457031250 0.892709592
vt 0.457031250 0.878906250
vt 0.479618538 0.892709592
vt 0.457031250 0.878906250
vt 0.479618538 0.878906250
vt 0.104294195 0.892709592
vt 0.003906250 0.892709592
vt 0.003906250 0.878906250
vt 0.104294195 0.892709592
vt 0.003906250 0.878906250
vt 0.104294195 0.878906250
f 1/1/1 2/2/2 3/3/3
usemtl UV_Base
f 4/4/4 5/5/5 6/6/6
usemtl UV_Base
f 7/7/7 8/8/8 9/9/9
usemtl UV_Base
f 10/10/10 11/11/11 12/12/12
usemtl UV_Base
f 13/13/13 14/14/14 15/15/15
usemtl UV_Base
f 16/16/16 17/17/17 18/18/18
usemtl UV_Base
f 19/19/19 20/20/20 21/21/21
usemtl UV_Base
f 22/22/22 23/23/23 24/24/24
usemtl UV_Base
f 25/25/25 26/26/26 27/27/27
usemtl UV_Base
f 28/28/28 29/29/29 30/30/30
usemtl UV_Base
f 31/31/31 32/32/32 33/33/33
usemtl UV_Base
f 34/34/34 35/35/35 36/36/36
usemtl UV_Base
f 37/37/37 38/38/38 39/39/39
usemtl UV_Base
f 40/40/40 41/41/41 42/42/42
usemtl UV_Base
f 43/43/43 44/44/44 45/45/45
usemtl UV_Base
f 46/46/46 47/47/47 48/48/48
usemtl UV_Base
f 49/49/49 50/50/50 51/51/51
usemtl UV_Base
f 52/52/52 53/53/53 54/54/54
usemtl UV_Base
f 55/55/55 56/56/56 57/57/57
usemtl UV_Base
f 58/58/58 59/59/59 60/60/60
usemtl UV_Base
f 61/61/61 62/62/62 63/63/63
usemtl UV_Base
f 64/64/64 65/65/65 66/66/66
usemtl UV_Base
f 67/67/67 68/68/68 69/69/69
usemtl UV_Base
f 70/70/70 71/71/71 72/72/72
usemtl UV_Base
f 73/73/73 74/74/74 75/75/75
usemtl UV_Base
f 76/76/76 77/77/77 78/78/78
usemtl UV_Base
f 79/79/79 80/80/80 81/81/81
usemtl UV_Base
f 82/82/82 83/83/83 84/84/84
usemtl UV_Base
f 85/85/85 86/86/86 87/87/87
usemtl UV_Base
f 88/88/88 89/89/89 90/90/90
usemtl UV_Base
f 91/91/91 92/92/92 93/93/93
usemtl UV_Base
f 94/94/94 95/95/95 96/96/96
usemtl UV_Base
f 97/97/97 98/98/98 99/99/99
usemtl UV_Base
f 100/100/100 101/101/101 102/102/102
usemtl UV_Base
f 103/103/103 104/104/104 105/105/105
usemtl UV_Base
f 106/106/106 107/107/107 108/108/108
usemtl UV_Base
f 109/109/109 110/110/110 111/111/111
usemtl UV_Base
f 112/112/112 113/113/113 114/114/114
usemtl UV_Base
f 115/115/115 116/116/116 117/117/117
usemtl UV_Base
f 118/118/118 119/119/119 120/120/120
usemtl UV_Base
f 121/121/121 122/122/122 123/123/123
usemtl UV_Base
f 124/124/124 125/125/125 126/126/126
usemtl UV_Base
f 127/127/127 128/128/128 129/129/129
usemtl UV_Base
f 130/130/130 131/131/131 132/132/132
usemtl UV_Base
f 133/133/133 134/134/134 135/135/135
usemtl UV_Base
f 136/136/136 137/137/137 138/138/138
usemtl UV_Base
f 139/139/139 140/140/140 141/141/141
usemtl UV_Base
f 142/142/142 143/143/143 144/144/144
usemtl UV_Base
f 145/145/145 146/146/146 147/147/147
usemtl UV_Base
f 148/148/148 149/149/149 150/150/150
usemtl UV_Base
f 151/151/151 152/152/152 153/153/153
usemtl UV_Base
f 154/154/154 155/155/155 156/156/156
usemtl UV_Base
f 157/157/157 158/158/158 159/159/159
usemtl UV_Base
f 160/160/160 161/161/161 162/162/162
usemtl UV_Base
f 163/163/163 164/164/164 165/165/165
usemtl UV_Base
f 166/166/166 167/167/167 168/168/168
usemtl UV_Base
f 169/169/169 170/170/170 171/171/171
usemtl UV_Base
f 172/172/172 173/173/173 174/174/174
usemtl UV_Base
f 175/175/175 176/176/176 177/177/177
usemtl UV_Base
f 178/178/178 179/179/179 180/180/180
usemtl UV_Base
f 181/181/181 182/182/182 183/183/183
usemtl UV_Base
f 184/184/184 185/185/185 186/186/186
usemtl UV_Base
f 187/187/187 188/188/188 189/189/189
usemtl UV_Base
f 190/190/190 191/191/191 192/192/192
usemtl UV_Base
f 193/193/193 194/194/194 195/195/195
usemtl UV_Base
f 196/196/196 197/197/197 198/198/198
usemtl UV_Base
f 199/199/199 200/200/200 201/201/201
usemtl UV_Base
f 202/202/202 203/203/203 204/204/204
usemtl UV_Base
f 205/205/205 206/206/206 207/207/207
usemtl UV_Base
f 208/208/208 209/209/209 210/210/210
usemtl UV_Base
f 211/211/211 212/212/212 213/213/213
usemtl UV_Base
f 214/214/214 215/215/215 216/216/216
usemtl UV_Base
f 217/217/217 218/218/218 219/219/219
usemtl UV_Base
f 220/220/220 221/221/221 222/222/222
usemtl UV_Base
f 223/223/223 224/224/224 225/225/225
usemtl UV_Base
f 226/226/226 227/227/227 228/228/228
usemtl UV_Base
f 229/229/229 230/230/230 231/231/231
usemtl UV_Base
f 232/232/232 233/233/233 234/234/234
usemtl UV_Base
f 235/235/235 236/236/236 237/237/237
usemtl UV_Base
f 238/238/238 239/239/239 240/240/240
usemtl UV_Base
f 241/241/241 242/242/242 243/243/243
usemtl UV_Base
f 244/244/244 245/245/245 246/246/246
usemtl UV_Base
f 247/247/247 248/248/248 249/249/249
usemtl UV_Base
f 250/250/250 251/251/251 252/252/252
usemtl UV_Base
f 253/253/253 254/254/254 255/255/255
usemtl UV_Base
f 256/256/256 257/257/257 258/258/258
usemtl UV_Base
f 259/259/259 260/260/260 261/261/261
usemtl UV_Base
f 262/262/262 263/263/263 264/264/264
usemtl UV_Base
f 265/265/265 266/266/266 267/267/267
usemtl UV_Base
f 268/268/268 269/269/269 270/270/270
usemtl UV_Base
f 271/271/271 272/272/272 273/273/273
usemtl UV_Base
f 274/274/274 275/275/275 276/276/276
usemtl UV_Base
f 277/277/277 278/278/278 279/279/279
usemtl UV_Base
f 280/280/280 281/281/281 282/282/282
usemtl UV_Base
f 283/283/283 284/284/284 285/285/285
usemtl UV_Base
f 286/286/286 287/287/287 288/288/288
usemtl UV_Base
f 289/289/289 290/290/290 291/291/291
usemtl UV_Base
f 292/292/292 293/293/293 294/294/294
usemtl UV_Base
f 295/295/295 296/296/296 297/297/297
usemtl UV_Base
f 298/298/298 299/299/299 300/300/300
usemtl UV_Base
f 301/301/301 302/302/302 303/303/303
usemtl UV_Base
f 304/304/304 305/305/305 306/306/306
usemtl UV_Base
f 307/307/307 308/308/308 309/309/309
usemtl UV_Base
f 310/310/310 311/311/311 312/312/312
usemtl UV_Base
f 313/313/313 314/314/314 315/315/315
usemtl UV_Base
f 316/316/316 317/317/317 318/318/318
usemtl UV_Base
f 319/319/319 320/320/320 321/321/321
usemtl UV_Base
f 322/322/322 323/323/323 324/324/324
usemtl UV_Base
f 325/325/325 326/326/326 327/327/327
usemtl UV_Base
f 328/328/328 329/329/329 330/330/330
usemtl UV_Base
f 331/331/331 332/332/332 333/333/333
usemtl UV_Base
f 334/334/334 335/335/335 336/336/336
usemtl UV_Base
f 337/337/337 338/338/338 339/339/339
usemtl UV_Base
f 340/340/340 341/341/341 342/342/342
usemtl UV_Base
f 343/343/343 344/344/344 345/345/345
usemtl UV_Base
f 346/346/346 347/347/347 348/348/348
usemtl UV_Base
f 349/349/349 350/350/350 351/351/351
usemtl UV_Base
f 352/352/352 353/353/353 354/354/354
usemtl UV_Base
f 355/355/355 356/356/356 357/357/357
usemtl UV_Base
f 358/358/358 359/359/359 360/360/360
usemtl UV_Base
f 361/361/361 362/362/362 363/363/363
usemtl UV_Base
f 364/364/364 365/365/365 366/366/366
usemtl UV_Base
f 367/367/367 368/368/368 369/369/369
usemtl UV_Base
f 370/370/370 371/371/371 372/372/372
usemtl UV_Base
f 373/373/373 374/374/374 375/375/375
usemtl UV_Base
f 376/376/376 377/377/377 378/378/378
usemtl UV_Base
f 379/379/379 380/380/380 381/381/381
usemtl UV_Base
f 382/382/382 383/383/383 384/384/384
usemtl UV_Base
f 385/385/385 386/386/386 387/387/387
usemtl UV_Base
f 388/388/388 389/389/389 390/390/390
usemtl UV_Base
f 391/391/391 392/392/392 393/393/393
usemtl UV_Base
f 394/394/394 395/395/395 396/396/396
usemtl UV_Base
f 397/397/397 398/398/398 399/399/399
usemtl UV_Base
f 400/400/400 401/401/401 402/402/402
usemtl UV_Base
f 403/403/403 404/404/404 405/405/405
usemtl UV_Base
f 406/406/406 407/407/407 408/408/408
usemtl UV_Base
f 409/409/409 410/410/410 411/411/411
usemtl UV_Base
f 412/412/412 413/413/413 414/414/414
usemtl UV_Base
f 415/415/415 416/416/416 417/417/417
usemtl UV_Base
f 418/418/418 419/419/419 420/420/420
usemtl UV_Base
f 421/421/421 422/422/422 423/423/423
usemtl UV_Base
f 424/424/424 425/425/425 426/426/426
usemtl UV_Base
f 427/427/427 428/428/428 429/429/429
usemtl UV_Base
f 430/430/430 431/431/431 432/432/432
usemtl UV_Base
f 433/433/433 434/434/434 435/435/435
usemtl UV_Base
f 436/436/436 437/437/437 438/438/438
usemtl UV_Base
f 439/439/439 440/440/440 441/441/441
usemtl UV_Base
f 442/442/442 443/443/443 444/444/444
usemtl UV_Base
f 445/445/445 446/446/446 447/447/447
usemtl UV_Base
f 448/448/448 449/449/449 450/450/450
usemtl UV_Base
f 451/451/451 452/452/452 453/453/453
usemtl UV_Base
f 454/454/454 455/455/455 456/456/456
usemtl UV_Base
f 457/457/457 458/458/458 459/459/459
usemtl UV_Base
f 460/460/460 461/461/461 462/462/462
usemtl UV_Base
f 463/463/463 464/464/464 465/465/465
usemtl UV_Base
f 466/466/466 467/467/467 468/468/468
usemtl UV_Base
f 469/469/469 470/470/470 471/471/471
usemtl UV_Base
f 472/472/472 473/473/473 474/474/474
usemtl UV_Base
f 475/475/475 476/476/476 477/477/477
usemtl UV_Base
f 478/478/478 479/479/479 480/480/480
usemtl UV_Base
f 481/481/481 482/482/482 483/483/483
usemtl UV_Base
f 484/484/484 485/485/485 486/486/486
usemtl UV_Base
f 487/487/487 488/488/488 489/489/489
usemtl UV_Base
f 490/490/490 491/491/491 492/492/492
usemtl UV_Base
f 493/493/493 494/494/494 495/495/495
usemtl UV_Base
f 496/496/496 497/497/497 498/498/498
usemtl UV_Base
f 499/499/499 500/500/500 501/501/501
usemtl UV_Base
f 502/502/502 503/503/503 504/504/504
usemtl UV_Base
f 505/505/505 506/506/506 507/507/507
usemtl UV_Base
f 508/508/508 509/509/509 510/510/510
usemtl UV_Base
f 511/511/511 512/512/512 513/513/513
usemtl UV_Base
f 514/514/514 515/515/515 516/516/516
usemtl UV_Base
f 517/517/517 518/518/518 519/519/519
usemtl UV_Base
f 520/520/520 521/521/521 522/522/522
usemtl UV_Base
f 523/523/523 524/524/524 525/525/525
usemtl UV_Base
f 526/526/526 527/527/527 528/528/528
usemtl UV_Base
f 529/529/529 530/530/530 531/531/531
usemtl UV_Base
f 532/532/532 533/533/533 534/534/534
usemtl UV_Base
f 535/535/535 536/536/536 537/537/537
usemtl UV_Base
f 538/538/538 539/539/539 540/540/540
usemtl UV_Base
f 541/541/541 542/542/542 543/543/543
usemtl UV_Base
f 544/544/544 545/545/545 546/546/546
usemtl UV_Base
f 547/547/547 548/548/548 549/549/549
usemtl UV_Base
f 550/550/550 551/551/551 552/552/552
usemtl UV_Base
f 553/553/553 554/554/554 555/555/555
usemtl UV_Base
f 556/556/556 557/557/557 558/558/558
usemtl UV_Base
f 559/559/559 560/560/560 561/561/561
usemtl UV_Base
f 562/562/562 563/563/563 564/564/564
usemtl UV_Base
f 565/565/565 566/566/566 567/567/567
usemtl UV_Base
f 568/568/568 569/569/569 570/570/570
usemtl UV_Base
f 571/571/571 572/572/572 573/573/573
usemtl UV_Base
f 574/574/574 575/575/575 576/576/576
usemtl UV_Base
f 577/577/577 578/578/578 579/579/579
usemtl UV_Base
f 580/580/580 581/581/581 582/582/582
usemtl UV_Base
f 583/583/583 584/584/584 585/585/585
usemtl UV_Base
f 586/586/586 587/587/587 588/588/588
usemtl UV_Base
f 589/589/589 590/590/590 591/591/591
usemtl UV_Base
f 592/592/592 593/593/593 594/594/594
usemtl UV_Base
f 595/595/595 596/596/596 597/597/597
usemtl UV_Base
f 598/598/598 599/599/599 600/600/600
usemtl UV_Base
f 601/601/601 602/602/602 603/603/603
usemtl UV_Base
f 604/604/604 605/605/605 606/606/606
usemtl UV_Base
f 607/607/607 608/608/608 609/609/609
usemtl UV_Base
f 610/610/610 611/611/611 612/612/612
usemtl UV_Base
f 613/613/613 614/614/614 615/615/615
usemtl UV_Base
f 616/616/616 617/617/617 618/618/618
usemtl UV_Base
f 619/619/619 620/620/620 621/621/621
usemtl UV_Base
f 622/622/622 623/623/623 624/624/624
usemtl UV_Base
f 625/625/625 626/626/626 627/627/627
usemtl UV_Base
f 628/628/628 629/629/629 630/630/630
usemtl UV_Base
f 631/631/631 632/632/632 633/633/633
usemtl UV_Base
f 634/634/634 635/635/635 636/636/636
usemtl UV_Base
f 637/637/637 638/638/638 639/639/639
usemtl UV_Base
f 640/640/640 641/641/641 642/642/642
usemtl UV_Base
f 643/643/643 644/644/644 645/645/645
usemtl UV_Base
f 646/646/646 647/647/647 648/648/648
usemtl UV_Base
f 649/649/649 650/650/650 651/651/651
usemtl UV_Base
f 652/652/652 653/653/653 654/654/654
usemtl UV_Base
f 655/655/655 656/656/656 657/657/657
usemtl UV_Base
f 658/658/658 659/659/659 660/660/660
usemtl UV_Base
f 661/661/661 662/662/662 663/663/663
usemtl UV_Base
f 664/664/664 665/665/665 666/666/666
usemtl UV_Base
f 667/667/667 668/668/668 669/669/669
usemtl UV_Base
f 670/670/670 671/671/671 672/672/672
usemtl UV_Base
f 673/673/673 674/674/674 675/675/675
usemtl UV_Base
f 676/676/676 677/677/677 678/678/678
usemtl UV_Base
f 679/679/679 680/680/680 681/681/681
usemtl UV_Base
f 682/682/682 683/683/683 684/684/684
usemtl UV_Base
f 685/685/685 686/686/686 687/687/687
usemtl UV_Base
f 688/688/688 689/689/689 690/690/690
usemtl UV_Base
f 691/691/691 692/692/692 693/693/693
usemtl UV_Base
f 694/694/694 695/695/695 696/696/696
usemtl UV_Base
f 697/697/697 698/698/698 699/699/699
usemtl UV_Base
f 700/700/700 701/701/701 702/702/702
usemtl UV_Base
f 703/703/703 704/704/704 705/705/705
usemtl UV_Base
f 706/706/706 707/707/707 708/708/708
usemtl UV_Base
f 709/709/709 710/710/710 711/711/711
usemtl UV_Base
f 712/712/712 713/713/713 714/714/714
usemtl UV_Base
f 715/715/715 716/716/716 717/717/717
usemtl UV_Base
f 718/718/718 719/719/719 720/720/720
usemtl UV_Base
f 721/721/721 722/722/722 723/723/723
usemtl UV_Base
f 724/724/724 725/725/725 726/726/726
usemtl UV_Base
f 727/727/727 728/728/728 729/729/729
usemtl UV_Base
f 730/730/730 731/731/731 732/732/732
usemtl UV_Base
f 733/733/733 734/734/734 735/735/735
usemtl UV_Base
f 736/736/736 737/737/737 738/738/738
usemtl UV_Base
f 739/739/739 740/740/740 741/741/741
usemtl UV_Base
f 742/742/742 743/743/743 744/744/744
usemtl UV_Base
f 745/745/745 746/746/746 747/747/747
usemtl UV_Base
f 748/748/748 749/749/749 750/750/750
usemtl UV_Base
f 751/751/751 752/752/752 753/753/753
usemtl UV_Base
f 754/754/754 755/755/755 756/756/756
usemtl UV_Base
f 757/757/757 758/758/758 759/759/759
usemtl UV_Base
f 760/760/760 761/761/761 762/762/762
usemtl UV_Base
f 763/763/763 764/764/764 765/765/765
usemtl UV_Base
f 766/766/766 767/767/767 768/768/768
usemtl UV_Base
f 769/769/769 770/770/770 771/771/771
usemtl UV_Base
f 772/772/772 773/773/773 774/774/774
usemtl UV_Base
f 775/775/775 776/776/776 777/777/777
usemtl UV_Base
f 778/778/778 779/779/779 780/780/780
usemtl UV_Base
f 781/781/781 782/782/782 783/783/783
usemtl UV_Base
f 784/784/784 785/785/785 786/786/786
usemtl UV_Base
f 787/787/787 788/788/788 789/789/789
usemtl UV_Base
f 790/790/790 791/791/791 792/792/792
usemtl UV_Base
f 793/793/793 794/794/794 795/795/795
usemtl UV_Base
f 796/796/796 797/797/797 798/798/798
usemtl UV_Base
f 799/799/799 800/800/800 801/801/801
usemtl UV_Base
f 802/802/802 803/803/803 804/804/804
usemtl UV_Base
f 805/805/805 806/806/806 807/807/807
usemtl UV_Base
f 808/808/808 809/809/809 810/810/810
usemtl UV_Base
f 811/811/811 812/812/812 813/813/813
usemtl UV_Base
f 814/814/814 815/815/815 816/816/816
usemtl UV_Base
f 817/817/817 818/818/818 819/819/819
usemtl UV_Base
f 820/820/820 821/821/821 822/822/822
usemtl UV_Base
f 823/823/823 824/824/824 825/825/825
usemtl UV_Base
f 826/826/826 827/827/827 828/828/828
