# Authored through Blender MCP; native tiles are the scale reference.
mtllib ../Materials/pz_house_drawers_lightwood.mtl
usemtl native
v -0.4920000 -0.5077000 0.0000000
vn -0.0000000 -0.0000000 -1.0000000
v -0.4920000 0.1339000 0.0000000
vn -0.0000000 -0.0000000 -1.0000000
v 0.4626000 0.1339000 0.0000000
vn -0.0000000 -0.0000000 -1.0000000
o pz_house_drawers_lightwood_|_1_corpo_gavetas
vt 0.007812500 0.689408368
vt 0.007812500 0.406250000
vt 0.429107666 0.406250000
vt 0.007812500 0.689408368
vt 0.429107666 0.406250000
vt 0.429107666 0.689408368
vt 0.445312500 0.406250000
vt 0.866607666 0.406250000
vt 0.866607666 0.689408368
vt 0.445312500 0.406250000
vt 0.866607666 0.689408368
vt 0.445312500 0.689408368
vt 0.007812500 0.007812500
vt 0.429107666 0.007812500
vt 0.429107666 0.390623549
vt 0.007812500 0.007812500
vt 0.429107666 0.390623549
vt 0.007812500 0.390623549
vt 0.390625000 0.707031250
vt 0.390625000 0.990189618
vt 0.007813951 0.990189618
vt 0.390625000 0.707031250
vt 0.007813951 0.990189618
vt 0.007813951 0.707031250
vt 0.866607666 0.390623549
vt 0.445312500 0.390623549
vt 0.445312500 0.007812500
vt 0.866607666 0.390623549
vt 0.445312500 0.007812500
vt 0.866607666 0.007812500
vt 0.406251451 0.990189618
vt 0.406251451 0.707031250
vt 0.789062500 0.707031250
vt 0.406251451 0.990189618
vt 0.789062500 0.707031250
vt 0.789062500 0.990189618
f 1/1/1 2/2/2 3/3/3
v -0.4920000 -0.5077000 0.0000000
vn -0.0000000 0.0000000 -1.0000000
v 0.4626000 0.1339000 0.0000000
vn -0.0000000 0.0000000 -1.0000000
v 0.4626000 -0.5077000 0.0000000
vn -0.0000000 0.0000000 -1.0000000
f 4/4/4 5/5/5 6/6/6
v -0.4920000 -0.5077000 0.8674000
vn 0.0000000 0.0000000 1.0000000
v 0.4626000 -0.5077000 0.8674000
vn 0.0000000 0.0000000 1.0000000
v 0.4626000 0.1339000 0.8674000
vn 0.0000000 0.0000000 1.0000000
f 7/7/7 8/8/8 9/9/9
v -0.4920000 -0.5077000 0.8674000
vn -0.0000000 0.0000000 1.0000000
v 0.4626000 0.1339000 0.8674000
vn -0.0000000 0.0000000 1.0000000
v -0.4920000 0.1339000 0.8674000
vn -0.0000000 0.0000000 1.0000000
f 10/10/10 11/11/11 12/12/12
v -0.4920000 -0.5077000 0.0000000
vn -0.0000000 -1.0000000 -0.0000000
v 0.4626000 -0.5077000 0.0000000
vn -0.0000000 -1.0000000 -0.0000000
v 0.4626000 -0.5077000 0.8674000
vn -0.0000000 -1.0000000 -0.0000000
f 13/13/13 14/14/14 15/15/15
v -0.4920000 -0.5077000 0.0000000
vn 0.0000000 -1.0000000 -0.0000000
v 0.4626000 -0.5077000 0.8674000
vn 0.0000000 -1.0000000 -0.0000000
v -0.4920000 -0.5077000 0.8674000
vn 0.0000000 -1.0000000 -0.0000000
f 16/16/16 17/17/17 18/18/18
v 0.4626000 -0.5077000 0.0000000
vn 1.0000000 0.0000000 0.0000000
v 0.4626000 0.1339000 0.0000000
vn 1.0000000 0.0000000 0.0000000
v 0.4626000 0.1339000 0.8674000
vn 1.0000000 0.0000000 0.0000000
f 19/19/19 20/20/20 21/21/21
v 0.4626000 -0.5077000 0.0000000
vn 1.0000000 -0.0000000 0.0000000
v 0.4626000 0.1339000 0.8674000
vn 1.0000000 -0.0000000 0.0000000
v 0.4626000 -0.5077000 0.8674000
vn 1.0000000 -0.0000000 0.0000000
f 22/22/22 23/23/23 24/24/24
v 0.4626000 0.1339000 0.0000000
vn -0.0000000 1.0000000 0.0000000
v -0.4920000 0.1339000 0.0000000
vn -0.0000000 1.0000000 0.0000000
v -0.4920000 0.1339000 0.8674000
vn -0.0000000 1.0000000 0.0000000
f 25/25/25 26/26/26 27/27/27
v 0.4626000 0.1339000 0.0000000
vn 0.0000000 1.0000000 0.0000000
v -0.4920000 0.1339000 0.8674000
vn 0.0000000 1.0000000 0.0000000
v 0.4626000 0.1339000 0.8674000
vn 0.0000000 1.0000000 0.0000000
f 28/28/28 29/29/29 30/30/30
v -0.4920000 0.1339000 0.0000000
vn -1.0000000 0.0000000 0.0000000
v -0.4920000 -0.5077000 0.0000000
vn -1.0000000 0.0000000 0.0000000
v -0.4920000 -0.5077000 0.8674000
vn -1.0000000 0.0000000 0.0000000
f 31/31/31 32/32/32 33/33/33
v -0.4920000 0.1339000 0.0000000
vn -1.0000000 -0.0000000 -0.0000000
v -0.4920000 -0.5077000 0.8674000
vn -1.0000000 -0.0000000 -0.0000000
v -0.4920000 0.1339000 0.8674000
vn -1.0000000 -0.0000000 -0.0000000
f 34/34/34 35/35/35 36/36/36
