mtllib ../Materials/pz_house_guitar_electric_red.mtl
o pz_house_guitar_electric_red
v 0.000000 -0.035000 0.040000
v -0.090000 -0.035000 0.055000
v -0.150000 -0.035000 0.110000
v -0.160000 -0.035000 0.190000
v -0.120000 -0.035000 0.230000
v -0.130000 -0.035000 0.290000
v -0.090000 -0.035000 0.330000
v -0.050000 -0.035000 0.300000
v 0.000000 -0.035000 0.270000
v 0.050000 -0.035000 0.300000
v 0.090000 -0.035000 0.330000
v 0.130000 -0.035000 0.290000
v 0.120000 -0.035000 0.230000
v 0.160000 -0.035000 0.190000
v 0.150000 -0.035000 0.110000
v 0.090000 -0.035000 0.055000
v 0.000000 0.025000 0.040000
v -0.090000 0.025000 0.055000
v -0.150000 0.025000 0.110000
v -0.160000 0.025000 0.190000
v -0.120000 0.025000 0.230000
v -0.130000 0.025000 0.290000
v -0.090000 0.025000 0.330000
v -0.050000 0.025000 0.300000
v 0.000000 0.025000 0.270000
v 0.050000 0.025000 0.300000
v 0.090000 0.025000 0.330000
v 0.130000 0.025000 0.290000
v 0.120000 0.025000 0.230000
v 0.160000 0.025000 0.190000
v 0.150000 0.025000 0.110000
v 0.090000 0.025000 0.055000
v -0.018000 -0.027000 0.300000
v 0.018000 -0.027000 0.300000
v 0.018000 0.015000 0.300000
v -0.018000 0.015000 0.300000
v -0.018000 -0.027000 0.710000
v 0.018000 -0.027000 0.710000
v 0.018000 0.015000 0.710000
v -0.018000 0.015000 0.710000
v -0.055000 -0.032000 0.690000
v -0.040000 -0.032000 0.770000
v 0.040000 -0.032000 0.770000
v 0.060000 -0.032000 0.700000
v 0.000000 -0.032000 0.665000
v -0.055000 0.020000 0.690000
v -0.040000 0.020000 0.770000
v 0.040000 0.020000 0.770000
v 0.060000 0.020000 0.700000
v 0.000000 0.020000 0.665000
v -0.070000 -0.037000 0.160000
v -0.055000 -0.037000 0.210000
v 0.000000 -0.037000 0.235000
v 0.055000 -0.037000 0.210000
v 0.070000 -0.037000 0.160000
v 0.040000 -0.037000 0.115000
v 0.000000 -0.037000 0.100000
v -0.040000 -0.037000 0.115000
v -0.070000 -0.036000 0.160000
v -0.055000 -0.036000 0.210000
v 0.000000 -0.036000 0.235000
v 0.055000 -0.036000 0.210000
v 0.070000 -0.036000 0.160000
v 0.040000 -0.036000 0.115000
v 0.000000 -0.036000 0.100000
v -0.040000 -0.036000 0.115000
v -0.050000 -0.040000 0.090000
v 0.050000 -0.040000 0.090000
v 0.050000 -0.034000 0.090000
v -0.050000 -0.034000 0.090000
v -0.050000 -0.040000 0.102000
v 0.050000 -0.040000 0.102000
v 0.050000 -0.034000 0.102000
v -0.050000 -0.034000 0.102000
usemtl UV_Base
vt 0.205728670 0.273437500
vt 0.317056516 0.291992141
vt 0.391275080 0.360025825
vt 0.403644841 0.458983910
vt 0.354165798 0.508462952
vt 0.366535559 0.582681516
vt 0.317056516 0.632160559
vt 0.267577474 0.595051277
vt 0.205728670 0.557941995
vt 0.143879867 0.595051277
vt 0.094400825 0.632160559
vt 0.044921782 0.582681516
vt 0.057291543 0.508462952
vt 0.007812500 0.458983910
vt 0.020182261 0.360025825
vt 0.094400825 0.291992141
vt 0.731119016 0.613605918
vt 0.619791170 0.632160559
vt 0.508463325 0.613605918
vt 0.434244761 0.545572234
vt 0.421875000 0.446614149
vt 0.471354043 0.397135107
vt 0.458984282 0.322916543
vt 0.508463325 0.273437500
vt 0.557942367 0.310546782
vt 0.619791170 0.347656064
vt 0.681639974 0.310546782
vt 0.731119016 0.273437500
vt 0.780598059 0.322916543
vt 0.768228298 0.397135107
vt 0.817707341 0.446614149
vt 0.805337580 0.545572234
vt 0.835937686 0.384765346
vt 0.835937686 0.273437500
vt 0.910156250 0.273437500
vt 0.910156250 0.384765346
vt 0.867187500 0.749120057
vt 0.867187500 0.648437500
vt 0.941406064 0.648437500
vt 0.941406064 0.749120057
vt 0.009646801 0.832031250
vt 0.109375000 0.832031250
vt 0.109375000 0.906249814
vt 0.009646801 0.906249814
vt 0.007812500 0.991848933
vt 0.007812500 0.921875000
vt 0.082031064 0.921875000
vt 0.082031064 0.991848933
vt 0.807570183 0.832031250
vt 0.882812500 0.832031250
vt 0.882812500 0.906249814
vt 0.807570183 0.906249814
vt 0.097656250 0.991848933
vt 0.097656250 0.921875000
vt 0.171874814 0.921875000
vt 0.171874814 0.991848933
vt 0.687500000 0.782235871
vt 0.687500000 0.720469199
vt 0.761718564 0.720469199
vt 0.761718564 0.782235871
vt 0.687500000 0.720469199
vt 0.687500000 0.648437500
vt 0.761718564 0.648437500
vt 0.761718564 0.720469199
vt 0.777343750 0.782235871
vt 0.777343750 0.710204172
vt 0.851562314 0.710204172
vt 0.851562314 0.782235871
vt 0.777343750 0.710204172
vt 0.777343750 0.648437500
vt 0.851562314 0.648437500
vt 0.851562314 0.710204172
vt 0.187500000 0.991848933
vt 0.187500000 0.921875000
vt 0.261718564 0.921875000
vt 0.261718564 0.991848933
vt 0.901320183 0.832031250
vt 0.976562500 0.832031250
vt 0.976562500 0.906249814
vt 0.901320183 0.906249814
vt 0.277343750 0.991848933
vt 0.277343750 0.921875000
vt 0.351562314 0.921875000
vt 0.351562314 0.991848933
vt 0.126834301 0.832031250
vt 0.226562500 0.832031250
vt 0.226562500 0.906249814
vt 0.126834301 0.906249814
vt 0.243067443 0.832031250
vt 0.343750000 0.832031250
vt 0.343750000 0.906249814
vt 0.243067443 0.906249814
vt 0.835937686 0.496093192
vt 0.835937686 0.384765346
vt 0.910156250 0.384765346
vt 0.910156250 0.496093192
vt 0.862109505 0.210937500
vt 0.914062500 0.210937500
vt 0.914062500 0.255468638
vt 0.862109505 0.255468638
vt 0.984375000 0.210937500
vt 0.984375000 0.255468638
vt 0.932422005 0.255468638
vt 0.932422005 0.210937500
vt 0.515625000 0.148437500
vt 0.515625000 0.192968638
vt 0.008464813 0.192968638
vt 0.008464813 0.148437500
vt 0.515625000 0.007812500
vt 0.515625000 0.059765495
vt 0.008464813 0.059765495
vt 0.008464813 0.007812500
vt 0.008464813 0.255468638
vt 0.008464813 0.210937500
vt 0.515625000 0.210937500
vt 0.515625000 0.255468638
vt 0.008464813 0.130077995
vt 0.008464813 0.078125000
vt 0.515625000 0.078125000
vt 0.515625000 0.130077995
vt 0.492513098 0.648437500
vt 0.523437500 0.716471184
vt 0.480143338 0.790689748
vt 0.393555013 0.765950226
vt 0.393555013 0.666992141
vt 0.541992513 0.716471184
vt 0.572916915 0.648437500
vt 0.671875000 0.666992141
vt 0.671875000 0.765950226
vt 0.585286675 0.790689748
vt 0.360254943 0.832031250
vt 0.460937500 0.832031250
vt 0.460937500 0.896354005
vt 0.360254943 0.896354005
vt 0.476562500 0.832031250
vt 0.575520585 0.832031250
vt 0.575520585 0.896354005
vt 0.476562500 0.896354005
vt 0.597446783 0.832031250
vt 0.687500000 0.832031250
vt 0.687500000 0.896354005
vt 0.597446783 0.896354005
vt 0.703139396 0.832031250
vt 0.789062500 0.832031250
vt 0.789062500 0.896354005
vt 0.703139396 0.896354005
vt 0.925781250 0.348169693
vt 0.925781250 0.273437500
vt 0.990104005 0.273437500
vt 0.990104005 0.348169693
vt 0.007812500 0.722656064
vt 0.044921782 0.666992141
vt 0.094400825 0.648437500
vt 0.143879867 0.666992141
vt 0.180989149 0.722656064
vt 0.162434508 0.784504867
vt 0.094400825 0.815429269
vt 0.026367141 0.784504867
vt 0.236328032 0.796874628
vt 0.199218750 0.741210705
vt 0.217773391 0.679361902
vt 0.285807075 0.648437500
vt 0.353840758 0.679361902
vt 0.372395399 0.741210705
vt 0.335286117 0.796874628
vt 0.285807075 0.815429269
vt 0.414062500 0.986447046
vt 0.414062500 0.921875000
vt 0.415299476 0.921875000
vt 0.415299476 0.986447046
vt 0.675267807 0.210937500
vt 0.750000000 0.210937500
vt 0.750000000 0.212174476
vt 0.675267807 0.212174476
vt 0.769017807 0.210937500
vt 0.843750000 0.210937500
vt 0.843750000 0.212174476
vt 0.769017807 0.212174476
vt 0.437500000 0.986447046
vt 0.437500000 0.921875000
vt 0.438736976 0.921875000
vt 0.438736976 0.986447046
vt 0.367187500 0.988774709
vt 0.367187500 0.921875000
vt 0.368424476 0.921875000
vt 0.368424476 0.988774709
vt 0.531250000 0.060656141
vt 0.531250000 0.007812500
vt 0.532486976 0.007812500
vt 0.532486976 0.060656141
vt 0.554687500 0.060656141
vt 0.554687500 0.007812500
vt 0.555924476 0.007812500
vt 0.555924476 0.060656141
vt 0.390625000 0.988774709
vt 0.390625000 0.921875000
vt 0.391861976 0.921875000
vt 0.391861976 0.988774709
vt 0.812500000 0.155859356
vt 0.812500000 0.148437500
vt 0.936197607 0.148437500
vt 0.936197607 0.155859356
vt 0.531250000 0.210937500
vt 0.654947607 0.210937500
vt 0.654947607 0.218359356
vt 0.531250000 0.218359356
vt 0.531250000 0.148437500
vt 0.654947607 0.148437500
vt 0.654947607 0.163281213
vt 0.531250000 0.163281213
vt 0.953125000 0.148437500
vt 0.960546856 0.148437500
vt 0.960546856 0.163281213
vt 0.953125000 0.163281213
vt 0.795572607 0.163281213
vt 0.671875000 0.163281213
vt 0.671875000 0.148437500
vt 0.795572607 0.148437500
vt 0.983984356 0.163281213
vt 0.976562500 0.163281213
vt 0.976562500 0.148437500
vt 0.983984356 0.148437500
f 1/1 16/2 15/3 14/4 13/5 12/6 11/7 10/8 9/9 8/10 7/11 6/12 5/13 4/14 3/15 2/16
usemtl UV_Base
f 32/17 17/18 18/19 19/20 20/21 21/22 22/23 23/24 24/25 25/26 26/27 27/28 28/29 29/30 30/31 31/32
usemtl UV_Base
f 1/33 2/34 18/35 17/36
usemtl UV_Base
f 2/37 3/38 19/39 18/40
usemtl UV_Base
f 3/41 4/42 20/43 19/44
usemtl UV_Base
f 4/45 5/46 21/47 20/48
usemtl UV_Base
f 5/49 6/50 22/51 21/52
usemtl UV_Base
f 6/53 7/54 23/55 22/56
usemtl UV_Base
f 7/57 8/58 24/59 23/60
usemtl UV_Base
f 8/61 9/62 25/63 24/64
usemtl UV_Base
f 9/65 10/66 26/67 25/68
usemtl UV_Base
f 10/69 11/70 27/71 26/72
usemtl UV_Base
f 11/73 12/74 28/75 27/76
usemtl UV_Base
f 12/77 13/78 29/79 28/80
usemtl UV_Base
f 13/81 14/82 30/83 29/84
usemtl UV_Base
f 14/85 15/86 31/87 30/88
usemtl UV_Base
f 15/89 16/90 32/91 31/92
usemtl UV_Base
f 16/93 1/94 17/95 32/96
usemtl UV_Base
f 33/97 36/98 35/99 34/100
usemtl UV_Base
f 37/101 38/102 39/103 40/104
usemtl UV_Base
f 33/105 34/106 38/107 37/108
usemtl UV_Base
f 34/109 35/110 39/111 38/112
usemtl UV_Base
f 35/113 36/114 40/115 39/116
usemtl UV_Base
f 36/117 33/118 37/119 40/120
usemtl UV_Base
f 41/121 45/122 44/123 43/124 42/125
usemtl UV_Base
f 50/126 46/127 47/128 48/129 49/130
usemtl UV_Base
f 41/131 42/132 47/133 46/134
usemtl UV_Base
f 42/135 43/136 48/137 47/138
usemtl UV_Base
f 43/139 44/140 49/141 48/142
usemtl UV_Base
f 44/143 45/144 50/145 49/146
usemtl UV_Base
f 45/147 41/148 46/149 50/150
usemtl UV_Base
f 51/151 58/152 57/153 56/154 55/155 54/156 53/157 52/158
usemtl UV_Base
f 66/159 59/160 60/161 61/162 62/163 63/164 64/165 65/166
usemtl UV_Base
f 51/167 52/168 60/169 59/170
usemtl UV_Base
f 52/171 53/172 61/173 60/174
usemtl UV_Base
f 53/175 54/176 62/177 61/178
usemtl UV_Base
f 54/179 55/180 63/181 62/182
usemtl UV_Base
f 55/183 56/184 64/185 63/186
usemtl UV_Base
f 56/187 57/188 65/189 64/190
usemtl UV_Base
f 57/191 58/192 66/193 65/194
usemtl UV_Base
f 58/195 51/196 59/197 66/198
usemtl UV_Base
f 67/199 70/200 69/201 68/202
usemtl UV_Base
f 71/203 72/204 73/205 74/206
usemtl UV_Base
f 67/207 68/208 72/209 71/210
usemtl UV_Base
f 68/211 69/212 73/213 72/214
usemtl UV_Base
f 69/215 70/216 74/217 73/218
usemtl UV_Base
f 70/219 67/220 71/221 74/222
