# Authored through Blender MCP; native tiles are the scale reference.
mtllib ../Materials/pz_house_drawers_white.mtl
usemtl native
v -0.5027024 0.0921398 0.0000000
vn -0.0000000 0.0000000 -1.0000000
v 0.4244976 0.0924602 0.0000000
vn -0.0000000 0.0000000 -1.0000000
v 0.4247023 -0.5001398 0.0000000
vn -0.0000000 0.0000000 -1.0000000
o pz_house_drawers_white_|_1_corpo_gavetas
vt 0.007812500 0.414214481
vt 0.447626290 0.414062500
vt 0.447723389 0.695160054
vt 0.007812500 0.414214481
vt 0.447723389 0.695160054
vt 0.007909646 0.695311987
vt 0.466339111 0.695160006
vt 0.466436257 0.414062500
vt 0.906250000 0.414214433
vt 0.466339111 0.695160006
vt 0.906250000 0.414214433
vt 0.906152901 0.695311987
vt 0.007812500 0.992035023
vt 0.007812500 0.710937500
vt 0.396112293 0.710937500
vt 0.007812500 0.992035023
vt 0.396112293 0.710937500
vt 0.396112293 0.992035023
vt 0.009404981 0.007812500
vt 0.449218750 0.007812500
vt 0.449218750 0.396112293
vt 0.009404981 0.007812500
vt 0.449218750 0.396112293
vt 0.009404981 0.396112293
vt 0.414062500 0.992035071
vt 0.414062500 0.710937500
vt 0.802362293 0.710937500
vt 0.414062500 0.992035071
vt 0.802362293 0.710937500
vt 0.802362293 0.992035071
vt 0.466436184 0.007812500
vt 0.906250000 0.007812500
vt 0.906250000 0.396112293
vt 0.466436184 0.007812500
vt 0.906250000 0.396112293
vt 0.466436184 0.396112293
f 1/1/1 2/2/2 3/3/3
v -0.5027024 0.0921398 0.0000000
vn 0.0000000 0.0000000 -1.0000000
v 0.4247023 -0.5001398 0.0000000
vn 0.0000000 0.0000000 -1.0000000
v -0.5024976 -0.5004601 0.0000000
vn 0.0000000 0.0000000 -1.0000000
f 4/4/4 5/5/5 6/6/6
v -0.5027024 0.0921398 0.8186000
vn 0.0000000 0.0000000 1.0000000
v -0.5024976 -0.5004601 0.8186000
vn 0.0000000 0.0000000 1.0000000
v 0.4247023 -0.5001398 0.8186000
vn 0.0000000 0.0000000 1.0000000
f 7/7/7 8/8/8 9/9/9
v -0.5027024 0.0921398 0.8186000
vn 0.0000000 0.0000000 1.0000000
v 0.4247023 -0.5001398 0.8186000
vn 0.0000000 0.0000000 1.0000000
v 0.4244976 0.0924602 0.8186000
vn 0.0000000 0.0000000 1.0000000
f 10/10/10 11/11/11 12/12/12
v -0.5027024 0.0921398 0.0000000
vn -0.9999999 -0.0003455 -0.0000000
v -0.5024976 -0.5004601 0.0000000
vn -0.9999999 -0.0003455 -0.0000000
v -0.5024976 -0.5004601 0.8186000
vn -0.9999999 -0.0003455 -0.0000000
f 13/13/13 14/14/14 15/15/15
v -0.5027024 0.0921398 0.0000000
vn -0.9999999 -0.0003455 0.0000000
v -0.5024976 -0.5004601 0.8186000
vn -0.9999999 -0.0003455 0.0000000
v -0.5027024 0.0921398 0.8186000
vn -0.9999999 -0.0003455 0.0000000
f 16/16/16 17/17/17 18/18/18
v -0.5024976 -0.5004601 0.0000000
vn 0.0003455 -0.9999999 0.0000000
v 0.4247023 -0.5001398 0.0000000
vn 0.0003455 -0.9999999 0.0000000
v 0.4247023 -0.5001398 0.8186000
vn 0.0003455 -0.9999999 0.0000000
f 19/19/19 20/20/20 21/21/21
v -0.5024976 -0.5004601 0.0000000
vn 0.0003455 -0.9999999 0.0000000
v 0.4247023 -0.5001398 0.8186000
vn 0.0003455 -0.9999999 0.0000000
v -0.5024976 -0.5004601 0.8186000
vn 0.0003455 -0.9999999 0.0000000
f 22/22/22 23/23/23 24/24/24
v 0.4247023 -0.5001398 0.0000000
vn 0.9999999 0.0003455 0.0000000
v 0.4244976 0.0924602 0.0000000
vn 0.9999999 0.0003455 0.0000000
v 0.4244976 0.0924602 0.8186000
vn 0.9999999 0.0003455 0.0000000
f 25/25/25 26/26/26 27/27/27
v 0.4247023 -0.5001398 0.0000000
vn 0.9999999 0.0003455 0.0000000
v 0.4244976 0.0924602 0.8186000
vn 0.9999999 0.0003455 0.0000000
v 0.4247023 -0.5001398 0.8186000
vn 0.9999999 0.0003455 0.0000000
f 28/28/28 29/29/29 30/30/30
v 0.4244976 0.0924602 0.0000000
vn -0.0003455 0.9999999 0.0000000
v -0.5027024 0.0921398 0.0000000
vn -0.0003455 0.9999999 0.0000000
v -0.5027024 0.0921398 0.8186000
vn -0.0003455 0.9999999 0.0000000
f 31/31/31 32/32/32 33/33/33
v 0.4244976 0.0924602 0.0000000
vn -0.0003455 0.9999999 0.0000000
v -0.5027024 0.0921398 0.8186000
vn -0.0003455 0.9999999 0.0000000
v 0.4244976 0.0924602 0.8186000
vn -0.0003455 0.9999999 0.0000000
f 34/34/34 35/35/35 36/36/36
