# Authored through Blender MCP; native tiles are the scale reference.
mtllib ../Materials/pz_house_clock_round.mtl
usemtl native
v -0.1046875 -0.4450000 1.5671850
vn 0.0000000 -1.0000000 0.0000000
v 0.0776135 -0.4450000 1.6426966
vn 0.0000000 -1.0000000 0.0000000
v 0.1531250 -0.4450000 1.8249975
vn 0.0000000 -1.0000000 0.0000000
o pz_house_clock_round_|_1_parte_1
vt 0.249999906 0.007812500
vt 0.421252294 0.078747612
vt 0.492187312 0.249999906
vt 0.492187312 0.249999906
vt 0.421252294 0.421252294
vt 0.249999906 0.492187500
vt 0.249999906 0.492187500
vt 0.078747518 0.421252294
vt 0.007812500 0.249999906
vt 0.007812500 0.249999906
vt 0.078747518 0.078747612
vt 0.249999906 0.007812500
vt 0.249999906 0.007812500
vt 0.492187312 0.249999906
vt 0.249999906 0.492187500
vt 0.249999906 0.492187500
vt 0.007812500 0.249999906
vt 0.249999906 0.007812500
vt 0.921252294 0.078747706
vt 0.992187312 0.250000094
vt 0.921252294 0.421252388
vt 0.921252294 0.421252388
vt 0.749999906 0.492187500
vt 0.578747518 0.421252388
vt 0.578747518 0.421252388
vt 0.507812500 0.250000094
vt 0.578747518 0.078747706
vt 0.578747518 0.078747706
vt 0.749999906 0.007812500
vt 0.921252294 0.078747706
vt 0.921252294 0.078747706
vt 0.921252294 0.421252388
vt 0.578747518 0.421252388
vt 0.578747518 0.421252388
vt 0.578747518 0.078747706
vt 0.921252294 0.078747706
vt 0.195312500 0.507812500
vt 0.195312500 0.545388243
vt 0.009950268 0.545388243
vt 0.195312500 0.507812500
vt 0.009950268 0.545388243
vt 0.009950268 0.507812500
vt 0.398437500 0.507812500
vt 0.398437500 0.545388243
vt 0.213075196 0.545388243
vt 0.398437500 0.507812500
vt 0.213075196 0.545388243
vt 0.213075196 0.507812500
vt 0.601562500 0.507812500
vt 0.601562500 0.545388243
vt 0.416200196 0.545388243
vt 0.601562500 0.507812500
vt 0.416200196 0.545388243
vt 0.416200196 0.507812500
vt 0.804687500 0.507812500
vt 0.804687500 0.545388243
vt 0.619325268 0.545388243
vt 0.804687500 0.507812500
vt 0.619325268 0.545388243
vt 0.619325268 0.507812500
vt 0.195312500 0.562500000
vt 0.195312500 0.600075743
vt 0.009950354 0.600075743
vt 0.195312500 0.562500000
vt 0.009950354 0.600075743
vt 0.009950354 0.562500000
vt 0.398437500 0.562500000
vt 0.398437500 0.600075743
vt 0.213075232 0.600075743
vt 0.398437500 0.562500000
vt 0.213075232 0.600075743
vt 0.213075232 0.562500000
vt 0.601562500 0.562500000
vt 0.601562500 0.600075743
vt 0.416200232 0.600075743
vt 0.601562500 0.562500000
vt 0.416200232 0.600075743
vt 0.416200232 0.562500000
vt 0.804687500 0.562500000
vt 0.804687500 0.600075743
vt 0.619325354 0.600075743
vt 0.804687500 0.562500000
vt 0.619325354 0.600075743
vt 0.619325354 0.562500000
f 1/1/1 2/2/2 3/3/3
v 0.1531250 -0.4450000 1.8249975
vn 0.0000000 -0.9999999 0.0000000
v 0.0776135 -0.4450000 2.0072985
vn 0.0000000 -0.9999999 0.0000000
v -0.1046875 -0.4450000 2.0828102
vn 0.0000000 -0.9999999 0.0000000
f 4/4/4 5/5/5 6/6/6
v -0.1046875 -0.4450000 2.0828102
vn 0.0000000 -1.0000000 0.0000000
v -0.2869885 -0.4450000 2.0072985
vn 0.0000000 -1.0000000 0.0000000
v -0.3625000 -0.4450000 1.8249975
vn 0.0000000 -1.0000000 0.0000000
f 7/7/7 8/8/8 9/9/9
v -0.3625000 -0.4450000 1.8249975
vn 0.0000000 -1.0000000 0.0000000
v -0.2869885 -0.4450000 1.6426966
vn 0.0000000 -1.0000000 0.0000000
v -0.1046875 -0.4450000 1.5671850
vn 0.0000000 -1.0000000 0.0000000
f 10/10/10 11/11/11 12/12/12
v -0.1046875 -0.4450000 1.5671850
vn 0.0000000 -1.0000000 -0.0000000
v 0.1531250 -0.4450000 1.8249975
vn 0.0000000 -1.0000000 -0.0000000
v -0.1046875 -0.4450000 2.0828102
vn 0.0000000 -1.0000000 -0.0000000
f 13/13/13 14/14/14 15/15/15
v -0.1046875 -0.4450000 2.0828102
vn 0.0000000 -1.0000000 0.0000000
v -0.3625000 -0.4450000 1.8249975
vn 0.0000000 -1.0000000 0.0000000
v -0.1046875 -0.4450000 1.5671850
vn 0.0000000 -1.0000000 0.0000000
f 16/16/16 17/17/17 18/18/18
v 0.0776135 -0.4050000 2.0072985
vn 0.0000000 1.0000000 -0.0000000
v 0.1531250 -0.4050000 1.8249975
vn 0.0000000 1.0000000 -0.0000000
v 0.0776135 -0.4050000 1.6426966
vn 0.0000000 1.0000000 -0.0000000
f 19/19/19 20/20/20 21/21/21
v 0.0776135 -0.4050000 1.6426966
vn -0.0000000 1.0000000 0.0000000
v -0.1046875 -0.4050000 1.5671850
vn -0.0000000 1.0000000 0.0000000
v -0.2869885 -0.4050000 1.6426966
vn -0.0000000 1.0000000 0.0000000
f 22/22/22 23/23/23 24/24/24
v -0.2869885 -0.4050000 1.6426966
vn 0.0000000 1.0000000 0.0000000
v -0.3625000 -0.4050000 1.8249975
vn 0.0000000 1.0000000 0.0000000
v -0.2869885 -0.4050000 2.0072985
vn 0.0000000 1.0000000 0.0000000
f 25/25/25 26/26/26 27/27/27
v -0.2869885 -0.4050000 2.0072985
vn 0.0000000 1.0000000 0.0000000
v -0.1046875 -0.4050000 2.0828102
vn 0.0000000 1.0000000 0.0000000
v 0.0776135 -0.4050000 2.0072985
vn 0.0000000 1.0000000 0.0000000
f 28/28/28 29/29/29 30/30/30
v 0.0776135 -0.4050000 2.0072985
vn 0.0000000 1.0000000 0.0000000
v 0.0776135 -0.4050000 1.6426966
vn 0.0000000 1.0000000 0.0000000
v -0.2869885 -0.4050000 1.6426966
vn 0.0000000 1.0000000 0.0000000
f 31/31/31 32/32/32 33/33/33
v -0.2869885 -0.4050000 1.6426966
vn 0.0000000 1.0000000 0.0000000
v -0.2869885 -0.4050000 2.0072985
vn 0.0000000 1.0000000 0.0000000
v 0.0776135 -0.4050000 2.0072985
vn 0.0000000 1.0000000 0.0000000
f 34/34/34 35/35/35 36/36/36
v 0.1531250 -0.4450000 1.8249975
vn 0.9238795 0.0000000 0.3826835
v 0.1531250 -0.4050000 1.8249975
vn 0.9238795 0.0000000 0.3826835
v 0.0776135 -0.4050000 2.0072985
vn 0.9238795 0.0000000 0.3826835
f 37/37/37 38/38/38 39/39/39
v 0.1531250 -0.4450000 1.8249975
vn 0.9238795 -0.0000000 0.3826835
v 0.0776135 -0.4050000 2.0072985
vn 0.9238795 -0.0000000 0.3826835
v 0.0776135 -0.4450000 2.0072985
vn 0.9238795 -0.0000000 0.3826835
f 40/40/40 41/41/41 42/42/42
v 0.0776135 -0.4450000 2.0072985
vn 0.3826841 0.0000000 0.9238793
v 0.0776135 -0.4050000 2.0072985
vn 0.3826841 0.0000000 0.9238793
v -0.1046875 -0.4050000 2.0828102
vn 0.3826841 0.0000000 0.9238793
f 43/43/43 44/44/44 45/45/45
v 0.0776135 -0.4450000 2.0072985
vn 0.3826841 -0.0000000 0.9238793
v -0.1046875 -0.4050000 2.0828102
vn 0.3826841 -0.0000000 0.9238793
v -0.1046875 -0.4450000 2.0828102
vn 0.3826841 -0.0000000 0.9238793
f 46/46/46 47/47/47 48/48/48
v -0.1046875 -0.4450000 2.0828102
vn -0.3826841 0.0000000 0.9238792
v -0.1046875 -0.4050000 2.0828102
vn -0.3826841 0.0000000 0.9238792
v -0.2869885 -0.4050000 2.0072985
vn -0.3826841 0.0000000 0.9238792
f 49/49/49 50/50/50 51/51/51
v -0.1046875 -0.4450000 2.0828102
vn -0.3826841 0.0000000 0.9238792
v -0.2869885 -0.4050000 2.0072985
vn -0.3826841 0.0000000 0.9238792
v -0.2869885 -0.4450000 2.0072985
vn -0.3826841 0.0000000 0.9238792
f 52/52/52 53/53/53 54/54/54
v -0.2869885 -0.4450000 2.0072985
vn -0.9238795 0.0000000 0.3826836
v -0.2869885 -0.4050000 2.0072985
vn -0.9238795 0.0000000 0.3826836
v -0.3625000 -0.4050000 1.8249975
vn -0.9238795 0.0000000 0.3826836
f 55/55/55 56/56/56 57/57/57
v -0.2869885 -0.4450000 2.0072985
vn -0.9238795 0.0000000 0.3826836
v -0.3625000 -0.4050000 1.8249975
vn -0.9238795 0.0000000 0.3826836
v -0.3625000 -0.4450000 1.8249975
vn -0.9238795 0.0000000 0.3826836
f 58/58/58 59/59/59 60/60/60
v -0.3625000 -0.4450000 1.8249975
vn -0.9238795 -0.0000000 -0.3826836
v -0.3625000 -0.4050000 1.8249975
vn -0.9238795 -0.0000000 -0.3826836
v -0.2869885 -0.4050000 1.6426966
vn -0.9238795 -0.0000000 -0.3826836
f 61/61/61 62/62/62 63/63/63
v -0.3625000 -0.4450000 1.8249975
vn -0.9238795 0.0000000 -0.3826836
v -0.2869885 -0.4050000 1.6426966
vn -0.9238795 0.0000000 -0.3826836
v -0.2869885 -0.4450000 1.6426966
vn -0.9238795 0.0000000 -0.3826836
f 64/64/64 65/65/65 66/66/66
v -0.2869885 -0.4450000 1.6426966
vn -0.3826836 -0.0000000 -0.9238794
v -0.2869885 -0.4050000 1.6426966
vn -0.3826836 -0.0000000 -0.9238794
v -0.1046875 -0.4050000 1.5671850
vn -0.3826836 -0.0000000 -0.9238794
f 67/67/67 68/68/68 69/69/69
v -0.2869885 -0.4450000 1.6426966
vn -0.3826836 0.0000000 -0.9238794
v -0.1046875 -0.4050000 1.5671850
vn -0.3826836 0.0000000 -0.9238794
v -0.1046875 -0.4450000 1.5671850
vn -0.3826836 0.0000000 -0.9238794
f 70/70/70 71/71/71 72/72/72
v -0.1046875 -0.4450000 1.5671850
vn 0.3826836 0.0000000 -0.9238794
v -0.1046875 -0.4050000 1.5671850
vn 0.3826836 0.0000000 -0.9238794
v 0.0776135 -0.4050000 1.6426966
vn 0.3826836 0.0000000 -0.9238794
f 73/73/73 74/74/74 75/75/75
v -0.1046875 -0.4450000 1.5671850
vn 0.3826836 0.0000000 -0.9238794
v 0.0776135 -0.4050000 1.6426966
vn 0.3826836 0.0000000 -0.9238794
v 0.0776135 -0.4450000 1.6426966
vn 0.3826836 0.0000000 -0.9238794
f 76/76/76 77/77/77 78/78/78
v 0.0776135 -0.4450000 1.6426966
vn 0.9238795 0.0000000 -0.3826835
v 0.0776135 -0.4050000 1.6426966
vn 0.9238795 0.0000000 -0.3826835
v 0.1531250 -0.4050000 1.8249975
vn 0.9238795 0.0000000 -0.3826835
f 79/79/79 80/80/80 81/81/81
v 0.0776135 -0.4450000 1.6426966
vn 0.9238795 0.0000000 -0.3826835
v 0.1531250 -0.4050000 1.8249975
vn 0.9238795 0.0000000 -0.3826835
v 0.1531250 -0.4450000 1.8249975
vn 0.9238795 0.0000000 -0.3826835
f 82/82/82 83/83/83 84/84/84
