# Authored through Blender MCP; native tiles are the scale reference.
mtllib ../Materials/pz_house_premium_radio.mtl
usemtl native
v -0.1880000 -0.2154000 0.0000000
vn -0.0000000 -0.0000000 -1.0000000
v -0.1880000 0.0328000 0.0000000
vn -0.0000000 -0.0000000 -1.0000000
v 0.1268000 0.0328000 0.0000000
vn -0.0000000 -0.0000000 -1.0000000
o pz_house_premium_radio_|_1_caixa_painel_nativo
vt 0.007812500 0.352750725
vt 0.007812500 0.007812500
vt 0.445308685 0.007812500
vt 0.007812500 0.352750725
vt 0.445308685 0.007812500
vt 0.445308685 0.352750725
vt 0.460937500 0.007812500
vt 0.898433685 0.007812500
vt 0.898433685 0.352750725
vt 0.460937500 0.007812500
vt 0.898433685 0.352750725
vt 0.460937500 0.352750725
vt 0.007812500 0.371093750
vt 0.445308685 0.371093750
vt 0.445308685 0.670169922
vt 0.007812500 0.371093750
vt 0.445308685 0.670169922
vt 0.007812500 0.670169922
vt 0.007812500 0.687500000
vt 0.352750725 0.687500000
vt 0.352750725 0.986576172
vt 0.007812500 0.687500000
vt 0.352750725 0.986576172
vt 0.007812500 0.986576172
vt 0.898433685 0.670169922
vt 0.460937500 0.670169922
vt 0.460937500 0.371093750
vt 0.898433685 0.670169922
vt 0.460937500 0.371093750
vt 0.898433685 0.371093750
vt 0.716031975 0.986576172
vt 0.371093750 0.986576172
vt 0.371093750 0.687500000
vt 0.716031975 0.986576172
vt 0.371093750 0.687500000
vt 0.716031975 0.687500000
vt 0.914062500 0.375263027
vt 0.922401055 0.375263027
vt 0.918231777 0.379432305
vt 0.914062500 0.375263027
vt 0.918231777 0.371093750
vt 0.922401055 0.375263027
vt 0.949744805 0.375263027
vt 0.945575527 0.379432305
vt 0.941406250 0.375263027
vt 0.945575527 0.371093750
vt 0.949744805 0.375263027
vt 0.941406250 0.375263027
vt 0.921875000 0.007812500
vt 0.921875000 0.341354700
vt 0.915978751 0.341354700
vt 0.921875000 0.007812500
vt 0.915978751 0.341354700
vt 0.915978751 0.007812500
vt 0.945312500 0.007812500
vt 0.945312500 0.341354700
vt 0.939416251 0.341354700
vt 0.945312500 0.007812500
vt 0.939416251 0.341354700
vt 0.939416251 0.007812500
vt 0.968750000 0.007812500
vt 0.968750000 0.341354700
vt 0.962853751 0.341354700
vt 0.968750000 0.007812500
vt 0.962853751 0.341354700
vt 0.962853751 0.007812500
vt 0.992187500 0.007812500
vt 0.992187500 0.341354700
vt 0.986291251 0.341354700
vt 0.992187500 0.007812500
vt 0.986291251 0.341354700
vt 0.986291251 0.007812500
f 1/1/1 2/2/2 3/3/3
v -0.1880000 -0.2154000 0.0000000
vn -0.0000000 0.0000000 -1.0000000
v 0.1268000 0.0328000 0.0000000
vn -0.0000000 0.0000000 -1.0000000
v 0.1268000 -0.2154000 0.0000000
vn -0.0000000 0.0000000 -1.0000000
f 4/4/4 5/5/5 6/6/6
v -0.1880000 -0.2154000 0.2152000
vn 0.0000000 0.0000000 1.0000000
v 0.1268000 -0.2154000 0.2152000
vn 0.0000000 0.0000000 1.0000000
v 0.1268000 0.0328000 0.2152000
vn 0.0000000 0.0000000 1.0000000
f 7/7/7 8/8/8 9/9/9
v -0.1880000 -0.2154000 0.2152000
vn -0.0000000 0.0000000 1.0000000
v 0.1268000 0.0328000 0.2152000
vn -0.0000000 0.0000000 1.0000000
v -0.1880000 0.0328000 0.2152000
vn -0.0000000 0.0000000 1.0000000
f 10/10/10 11/11/11 12/12/12
v -0.1880000 -0.2154000 0.0000000
vn -0.0000000 -1.0000000 -0.0000000
v 0.1268000 -0.2154000 0.0000000
vn -0.0000000 -1.0000000 -0.0000000
v 0.1268000 -0.2154000 0.2152000
vn -0.0000000 -1.0000000 -0.0000000
f 13/13/13 14/14/14 15/15/15
v -0.1880000 -0.2154000 0.0000000
vn 0.0000000 -1.0000000 -0.0000000
v 0.1268000 -0.2154000 0.2152000
vn 0.0000000 -1.0000000 -0.0000000
v -0.1880000 -0.2154000 0.2152000
vn 0.0000000 -1.0000000 -0.0000000
f 16/16/16 17/17/17 18/18/18
v 0.1268000 -0.2154000 0.0000000
vn 0.9999999 0.0000000 0.0000000
v 0.1268000 0.0328000 0.0000000
vn 0.9999999 0.0000000 0.0000000
v 0.1268000 0.0328000 0.2152000
vn 0.9999999 0.0000000 0.0000000
f 19/19/19 20/20/20 21/21/21
v 0.1268000 -0.2154000 0.0000000
vn 0.9999999 -0.0000000 0.0000000
v 0.1268000 0.0328000 0.2152000
vn 0.9999999 -0.0000000 0.0000000
v 0.1268000 -0.2154000 0.2152000
vn 0.9999999 -0.0000000 0.0000000
f 22/22/22 23/23/23 24/24/24
v 0.1268000 0.0328000 0.0000000
vn -0.0000000 1.0000000 0.0000000
v -0.1880000 0.0328000 0.0000000
vn -0.0000000 1.0000000 0.0000000
v -0.1880000 0.0328000 0.2152000
vn -0.0000000 1.0000000 0.0000000
f 25/25/25 26/26/26 27/27/27
v 0.1268000 0.0328000 0.0000000
vn 0.0000000 1.0000000 0.0000000
v -0.1880000 0.0328000 0.2152000
vn 0.0000000 1.0000000 0.0000000
v 0.1268000 0.0328000 0.2152000
vn 0.0000000 1.0000000 0.0000000
f 28/28/28 29/29/29 30/30/30
v -0.1880000 0.0328000 0.0000000
vn -0.9999999 0.0000000 0.0000000
v -0.1880000 -0.2154000 0.0000000
vn -0.9999999 0.0000000 0.0000000
v -0.1880000 -0.2154000 0.2152000
vn -0.9999999 0.0000000 0.0000000
f 31/31/31 32/32/32 33/33/33
v -0.1880000 0.0328000 0.0000000
vn -0.9999999 -0.0000000 -0.0000000
v -0.1880000 -0.2154000 0.2152000
vn -0.9999999 -0.0000000 -0.0000000
v -0.1880000 0.0328000 0.2152000
vn -0.9999999 -0.0000000 -0.0000000
f 34/34/34 35/35/35 36/36/36
v -0.0930000 -0.0000000 0.4800000
vn 0.0000000 0.0000000 0.9999999
v -0.0870000 0.0000000 0.4800000
vn 0.0000000 0.0000000 0.9999999
v -0.0900000 0.0030000 0.4800000
vn 0.0000000 0.0000000 0.9999999
o pz_house_premium_radio_|_2_antena
f 37/37/37 38/38/38 39/39/39
v -0.0930000 -0.0000000 0.4800000
vn 0.0000000 0.0000000 1.0000000
v -0.0900000 -0.0030000 0.4800000
vn 0.0000000 0.0000000 1.0000000
v -0.0870000 0.0000000 0.4800000
vn 0.0000000 0.0000000 1.0000000
f 40/40/40 41/41/41 42/42/42
v -0.0870000 0.0000000 0.2400000
vn -0.0000000 0.0000000 1.0000000
v -0.0900000 0.0030000 0.2400000
vn -0.0000000 0.0000000 1.0000000
v -0.0930000 -0.0000000 0.2400000
vn -0.0000000 0.0000000 1.0000000
f 43/43/43 44/44/44 45/45/45
v -0.0900000 -0.0030000 0.2400000
vn -0.0000000 0.0000000 1.0000000
v -0.0870000 0.0000000 0.2400000
vn -0.0000000 0.0000000 1.0000000
v -0.0930000 -0.0000000 0.2400000
vn -0.0000000 0.0000000 1.0000000
f 46/46/46 47/47/47 48/48/48
v -0.0900000 -0.0030000 0.2400000
vn -0.7071068 -0.7071067 -0.0000000
v -0.0900000 -0.0030000 0.4800000
vn -0.7071068 -0.7071067 -0.0000000
v -0.0930000 -0.0000000 0.4800000
vn -0.7071068 -0.7071067 -0.0000000
f 49/49/49 50/50/50 51/51/51
v -0.0900000 -0.0030000 0.2400000
vn -0.7071068 -0.7071067 0.0000000
v -0.0930000 -0.0000000 0.4800000
vn -0.7071068 -0.7071067 0.0000000
v -0.0930000 -0.0000000 0.2400000
vn -0.7071068 -0.7071067 0.0000000
f 52/52/52 53/53/53 54/54/54
v -0.0870000 0.0000000 0.2400000
vn 0.7071070 -0.7071065 0.0000000
v -0.0870000 0.0000000 0.4800000
vn 0.7071070 -0.7071065 0.0000000
v -0.0900000 -0.0030000 0.4800000
vn 0.7071070 -0.7071065 0.0000000
f 55/55/55 56/56/56 57/57/57
v -0.0870000 0.0000000 0.2400000
vn 0.7071070 -0.7071065 0.0000000
v -0.0900000 -0.0030000 0.4800000
vn 0.7071070 -0.7071065 0.0000000
v -0.0900000 -0.0030000 0.2400000
vn 0.7071070 -0.7071065 0.0000000
f 58/58/58 59/59/59 60/60/60
v -0.0900000 0.0030000 0.2400000
vn 0.7071069 0.7071067 0.0000000
v -0.0900000 0.0030000 0.4800000
vn 0.7071069 0.7071067 0.0000000
v -0.0870000 0.0000000 0.4800000
vn 0.7071069 0.7071067 0.0000000
f 61/61/61 62/62/62 63/63/63
v -0.0900000 0.0030000 0.2400000
vn 0.7071069 0.7071067 -0.0000000
v -0.0870000 0.0000000 0.4800000
vn 0.7071069 0.7071067 -0.0000000
v -0.0870000 0.0000000 0.2400000
vn 0.7071069 0.7071067 -0.0000000
f 64/64/64 65/65/65 66/66/66
v -0.0930000 -0.0000000 0.2400000
vn -0.7071070 0.7071065 0.0000000
v -0.0930000 -0.0000000 0.4800000
vn -0.7071070 0.7071065 0.0000000
v -0.0900000 0.0030000 0.4800000
vn -0.7071070 0.7071065 0.0000000
f 67/67/67 68/68/68 69/69/69
v -0.0930000 -0.0000000 0.2400000
vn -0.7071070 0.7071065 0.0000000
v -0.0900000 0.0030000 0.4800000
vn -0.7071070 0.7071065 0.0000000
v -0.0900000 0.0030000 0.2400000
vn -0.7071070 0.7071065 0.0000000
f 70/70/70 71/71/71 72/72/72
