# Authored through Blender MCP; native tiles are the scale reference.
mtllib ../Materials/pz_house_bath_head.mtl
usemtl native
v 0.3061967 0.5000000 0.1050000
vn 0.0000000 1.0000000 0.0000000
v 0.4009904 0.5000000 0.5500000
vn 0.0000000 1.0000000 0.0000000
v 0.4900145 0.5000000 0.5500000
vn 0.0000000 1.0000000 0.0000000
o pz_house_bath_head_|_1_parte_1
vt 0.818810730 0.266700636
vt 0.984285259 0.301949946
vt 0.984285259 0.335053814
vt 0.789062500 0.007812500
vt 0.984285259 0.007812500
vt 0.984285259 0.040916368
vt 0.789062500 0.007812500
vt 0.984285259 0.040916368
vt 0.818810730 0.076165640
vt 0.818810730 0.266700636
vt 0.984285259 0.335053814
vt 0.789062500 0.335053814
vt 0.789062500 0.007812500
vt 0.818810730 0.076165640
vt 0.818810730 0.266700636
vt 0.789062500 0.335053814
vt 0.789062500 0.007812500
vt 0.818810730 0.266700636
vt 0.250827440 0.967252992
vt 0.008858795 0.973011506
vt 0.008858795 0.782476510
vt 0.008858795 0.782476510
vt 0.224533463 0.777343750
vt 0.250827440 0.788235060
vt 0.250827440 0.788235060
vt 0.261718750 0.940959015
vt 0.250827440 0.967252992
vt 0.008858795 0.782476510
vt 0.250827440 0.788235060
vt 0.250827440 0.967252992
vt 0.391650948 0.355468750
vt 0.730481670 0.355468750
vt 0.730481670 0.550691509
vt 0.391650948 0.355468750
vt 0.730481670 0.550691509
vt 0.391650948 0.550691509
vt 0.730481670 0.355468750
vt 0.750000000 0.355468750
vt 0.750000000 0.550691509
vt 0.730481670 0.355468750
vt 0.750000000 0.550691509
vt 0.730481670 0.550691509
vt 0.010172683 0.566406250
vt 0.304730047 0.566406250
vt 0.304730047 0.761629009
vt 0.010172683 0.566406250
vt 0.304730047 0.761629009
vt 0.010172683 0.761629009
vt 0.304730047 0.566406250
vt 0.324218750 0.566406250
vt 0.324218750 0.761629009
vt 0.304730047 0.566406250
vt 0.324218750 0.761629009
vt 0.304730047 0.761629009
vt 0.379665338 0.335053814
vt 0.033842201 0.338766950
vt 0.089620132 0.307159456
vt 0.379665338 0.335053814
vt 0.089620132 0.307159456
vt 0.379665375 0.301949946
vt 0.033842201 0.338766950
vt 0.015436414 0.331143037
vt 0.063326155 0.296268146
vt 0.033842201 0.338766950
vt 0.063326155 0.296268146
vt 0.089620132 0.307159456
vt 0.015436414 0.331143037
vt 0.007812500 0.030129064
vt 0.052434845 0.072892145
vt 0.015436414 0.331143037
vt 0.052434845 0.072892145
vt 0.063326155 0.296268146
vt 0.007812500 0.030129064
vt 0.015436414 0.011723277
vt 0.063326155 0.046598168
vt 0.007812500 0.030129064
vt 0.063326155 0.046598168
vt 0.052434845 0.072892145
vt 0.652347623 0.736695695
vt 0.367547517 0.738186476
vt 0.443133037 0.569522964
vt 0.652347623 0.736695695
vt 0.443133037 0.569522964
vt 0.654698596 0.568054147
vt 0.367547517 0.738186476
vt 0.339843750 0.735069762
vt 0.415429270 0.566406250
vt 0.367547517 0.738186476
vt 0.415429270 0.566406250
vt 0.443133037 0.569522964
vt 0.277343750 0.782157960
vt 0.496850246 0.777343750
vt 0.460962170 0.958648522
vt 0.277343750 0.782157960
vt 0.460962170 0.958648522
vt 0.311338545 0.963462732
vt 0.496850246 0.777343750
vt 0.524295620 0.782157960
vt 0.488407543 0.963462732
vt 0.496850246 0.777343750
vt 0.488407543 0.963462732
vt 0.460962170 0.958648522
vt 0.015436414 0.011723277
vt 0.379665375 0.007812500
vt 0.379665375 0.040916368
vt 0.015436414 0.011723277
vt 0.379665375 0.040916368
vt 0.063326155 0.046598168
vt 0.671875000 0.567619599
vt 0.988261632 0.566406250
vt 0.988280002 0.735591125
vt 0.671875000 0.567619599
vt 0.988280002 0.735591125
vt 0.746246955 0.736820856
vt 0.773437500 0.338766950
vt 0.409208539 0.334856174
vt 0.401584625 0.316450386
vt 0.401584625 0.316450386
vt 0.409208539 0.015436414
vt 0.427614326 0.007812500
vt 0.427614326 0.007812500
vt 0.773437463 0.011525637
vt 0.773437500 0.338766950
vt 0.401584625 0.316450386
vt 0.427614326 0.007812500
vt 0.773437500 0.338766950
vt 0.010750044 0.355468750
vt 0.375000000 0.355468750
vt 0.375000000 0.550691509
vt 0.010750044 0.355468750
vt 0.375000000 0.550691509
vt 0.010750044 0.550691509
vt 0.767689934 0.355468750
vt 0.808593750 0.355468750
vt 0.808593750 0.429839325
vt 0.767689934 0.355468750
vt 0.808593750 0.429839325
vt 0.767689934 0.429839325
vt 0.867187500 0.355468750
vt 0.867187500 0.429839325
vt 0.826283684 0.429839325
vt 0.867187500 0.355468750
vt 0.826283684 0.429839325
vt 0.826283684 0.355468750
vt 0.898437500 0.355468750
vt 0.898437500 0.429839325
vt 0.883563385 0.429839325
vt 0.898437500 0.355468750
vt 0.883563385 0.429839325
vt 0.883563385 0.355468750
vt 0.613281250 0.777343750
vt 0.613281250 0.818247566
vt 0.598407135 0.818247566
vt 0.613281250 0.777343750
vt 0.598407135 0.818247566
vt 0.598407135 0.777343750
vt 0.914813385 0.429839325
vt 0.914813385 0.355468750
vt 0.929687500 0.355468750
vt 0.914813385 0.429839325
vt 0.929687500 0.355468750
vt 0.929687500 0.429839325
vt 0.629657135 0.818247566
vt 0.629657135 0.777343750
vt 0.644531250 0.777343750
vt 0.629657135 0.818247566
vt 0.644531250 0.777343750
vt 0.644531250 0.818247566
vt 0.894531250 0.784037104
vt 0.901224602 0.777343750
vt 0.907917953 0.784037104
vt 0.901224602 0.790730458
vt 0.894531250 0.784037104
vt 0.907917953 0.784037104
vt 0.939167953 0.784037102
vt 0.932474602 0.790730453
vt 0.925781250 0.784037102
vt 0.932474602 0.777343750
vt 0.939167953 0.784037102
vt 0.925781250 0.784037102
vt 0.671875000 0.777343750
vt 0.670595158 0.819282480
vt 0.662435133 0.814535637
vt 0.671875000 0.777343750
vt 0.662435133 0.814535637
vt 0.662435133 0.777356947
vt 0.699218750 0.777357078
vt 0.699218750 0.814537249
vt 0.691050658 0.819281040
vt 0.699218750 0.777357078
vt 0.691050658 0.819281040
vt 0.689787082 0.777343750
vt 0.726562500 0.777343750
vt 0.725320700 0.809824095
vt 0.717143418 0.814540906
vt 0.726562500 0.777343750
vt 0.717143418 0.814540906
vt 0.717143418 0.777367483
vt 0.753906250 0.777360964
vt 0.753906250 0.814537719
vt 0.745738148 0.809820793
vt 0.753906250 0.777360964
vt 0.745738148 0.809820793
vt 0.744474595 0.777343750
vt 0.956540421 0.355468750
vt 0.957031250 0.416016058
vt 0.948348041 0.412261818
vt 0.956540421 0.355468750
vt 0.948348041 0.412261818
vt 0.948348041 0.360203112
vt 0.984375000 0.360203423
vt 0.984375000 0.412262056
vt 0.975690036 0.416016129
vt 0.984375000 0.360203423
vt 0.975690036 0.416016129
vt 0.976184317 0.355468750
vt 0.554193262 0.782074134
vt 0.554687500 0.825651614
vt 0.546002556 0.829401831
vt 0.554193262 0.782074134
vt 0.546002556 0.829401831
vt 0.546002556 0.777343750
vt 0.582031250 0.777343750
vt 0.582031250 0.829401634
vt 0.573348822 0.825652083
vt 0.582031250 0.777343750
vt 0.573348822 0.825652083
vt 0.573838252 0.782074410
vt 0.777759194 0.802566632
vt 0.770795978 0.779806902
vt 0.779924938 0.777343750
vt 0.777759194 0.802566632
vt 0.779924938 0.777343750
vt 0.785156250 0.796670209
vt 0.802004608 0.796657741
vt 0.807280049 0.777343750
vt 0.816406250 0.779829448
vt 0.802004608 0.796657741
vt 0.816406250 0.779829448
vt 0.809384296 0.802571807
vt 0.835065650 0.793279685
vt 0.838524569 0.777343750
vt 0.847656250 0.779796783
vt 0.835065650 0.793279685
vt 0.847656250 0.779796783
vt 0.842485466 0.799136080
vt 0.871462309 0.799123395
vt 0.866359463 0.779767579
vt 0.875492777 0.777343750
vt 0.871462309 0.799123395
vt 0.875492777 0.777343750
vt 0.878906250 0.793290444
f 1/1/1 2/2/2 3/3/3
v -0.3900145 0.4999999 0.0250000
vn -0.0000007 0.9999999 0.0000000
v -0.3900145 0.4999999 0.5500000
vn -0.0000007 0.9999999 0.0000000
v -0.3009904 0.5000000 0.5500000
vn -0.0000007 0.9999999 0.0000000
f 4/4/4 5/5/5 6/6/6
v -0.3900145 0.4999999 0.0250000
vn -0.0000003 1.0000000 -0.0000001
v -0.3009904 0.5000000 0.5500000
vn -0.0000003 1.0000000 -0.0000001
v -0.2061968 0.5000000 0.1050000
vn -0.0000003 1.0000000 -0.0000001
f 7/7/7 8/8/8 9/9/9
v 0.3061967 0.5000000 0.1050000
vn 0.0000000 0.9999999 -0.0000000
v 0.4900145 0.5000000 0.5500000
vn 0.0000000 0.9999999 -0.0000000
v 0.4900145 0.5000000 0.0250000
vn 0.0000000 0.9999999 -0.0000000
f 10/10/10 11/11/11 12/12/12
v -0.3900145 0.4999999 0.0250000
vn 0.0000000 1.0000000 -0.0000007
v -0.2061968 0.5000000 0.1050000
vn 0.0000000 1.0000000 -0.0000007
v 0.3061967 0.5000000 0.1050000
vn 0.0000000 1.0000000 -0.0000007
f 13/13/13 14/14/14 15/15/15
v 0.4900145 0.5000000 0.0250000
vn -0.0000001 1.0000000 -0.0000002
v -0.3900145 0.4999999 0.0250000
vn -0.0000001 1.0000000 -0.0000002
v 0.3061967 0.5000000 0.1050000
vn -0.0000001 1.0000000 -0.0000002
f 16/16/16 17/17/17 18/18/18
v 0.2907107 -0.1507107 0.1050000
vn -0.0000000 0.0000000 1.0000000
v 0.3061967 0.5000000 0.1050000
vn -0.0000000 0.0000000 1.0000000
v -0.2061968 0.5000000 0.1050000
vn -0.0000000 0.0000000 1.0000000
f 19/19/19 20/20/20 21/21/21
v -0.2061968 0.5000000 0.1050000
vn 0.0000000 -0.0000000 1.0000000
v -0.2200000 -0.0800000 0.1050000
vn 0.0000000 -0.0000000 1.0000000
v -0.1907107 -0.1507107 0.1050000
vn 0.0000000 -0.0000000 1.0000000
f 22/22/22 23/23/23 24/24/24
v -0.1907107 -0.1507107 0.1050000
vn 0.0000000 0.0000000 1.0000000
v 0.2200000 -0.1800000 0.1050000
vn 0.0000000 0.0000000 1.0000000
v 0.2907107 -0.1507107 0.1050000
vn 0.0000000 0.0000000 1.0000000
f 25/25/25 26/26/26 27/27/27
v -0.2061968 0.5000000 0.1050000
vn 0.0000000 0.0000000 1.0000000
v -0.1907107 -0.1507107 0.1050000
vn 0.0000000 0.0000000 1.0000000
v 0.2907107 -0.1507107 0.1050000
vn 0.0000000 0.0000000 1.0000000
f 28/28/28 29/29/29 30/30/30
v -0.3900145 0.4999999 0.0250000
vn -0.9999424 0.0107365 0.0000000
v -0.4000000 -0.4300000 0.0250000
vn -0.9999424 0.0107365 0.0000000
v -0.4000000 -0.4300000 0.5500000
vn -0.9999424 0.0107365 0.0000000
f 31/31/31 32/32/32 33/33/33
v -0.3900145 0.4999999 0.0250000
vn -0.9999424 0.0107365 0.0000000
v -0.4000000 -0.4300000 0.5500000
vn -0.9999424 0.0107365 0.0000000
v -0.3900145 0.4999999 0.5500000
vn -0.9999424 0.0107365 0.0000000
f 34/34/34 35/35/35 36/36/36
v -0.4000000 -0.4300000 0.0250000
vn -0.9238795 -0.3826838 -0.0000000
v -0.3794975 -0.4794975 0.0250000
vn -0.9238795 -0.3826838 -0.0000000
v -0.3794975 -0.4794975 0.5500000
vn -0.9238795 -0.3826838 -0.0000000
f 37/37/37 38/38/38 39/39/39
v -0.4000000 -0.4300000 0.0250000
vn -0.9238795 -0.3826838 0.0000000
v -0.3794975 -0.4794975 0.5500000
vn -0.9238795 -0.3826838 0.0000000
v -0.4000000 -0.4300000 0.5500000
vn -0.9238795 -0.3826838 0.0000000
f 40/40/40 41/41/41 42/42/42
v -0.3794975 -0.4794975 0.0250000
vn -0.0253194 -0.9996794 -0.0000000
v 0.4300000 -0.5000000 0.0250000
vn -0.0253194 -0.9996794 -0.0000000
v 0.4300000 -0.5000000 0.5500000
vn -0.0253194 -0.9996794 -0.0000000
f 43/43/43 44/44/44 45/45/45
v -0.3794975 -0.4794975 0.0250000
vn -0.0253194 -0.9996794 0.0000000
v 0.4300000 -0.5000000 0.5500000
vn -0.0253194 -0.9996794 0.0000000
v -0.3794975 -0.4794975 0.5500000
vn -0.0253194 -0.9996794 0.0000000
f 46/46/46 47/47/47 48/48/48
v 0.4300000 -0.5000000 0.0250000
vn 0.3826838 -0.9238795 0.0000000
v 0.4794975 -0.4794975 0.0250000
vn 0.3826838 -0.9238795 0.0000000
v 0.4794975 -0.4794975 0.5500000
vn 0.3826838 -0.9238795 0.0000000
f 49/49/49 50/50/50 51/51/51
v 0.4300000 -0.5000000 0.0250000
vn 0.3826838 -0.9238795 0.0000000
v 0.4794975 -0.4794975 0.5500000
vn 0.3826838 -0.9238795 0.0000000
v 0.4300000 -0.5000000 0.5500000
vn 0.3826838 -0.9238795 0.0000000
f 52/52/52 53/53/53 54/54/54
v -0.3900145 0.4999999 0.5500000
vn 0.0000000 -0.0000000 1.0000000
v -0.4000000 -0.4300000 0.5500000
vn 0.0000000 -0.0000000 1.0000000
v -0.3150000 -0.2800000 0.5500000
vn 0.0000000 -0.0000000 1.0000000
f 55/55/55 56/56/56 57/57/57
v -0.3900145 0.4999999 0.5500000
vn 0.0000000 0.0000000 1.0000000
v -0.3150000 -0.2800000 0.5500000
vn 0.0000000 0.0000000 1.0000000
v -0.3009904 0.5000000 0.5500000
vn 0.0000000 0.0000000 1.0000000
f 58/58/58 59/59/59 60/60/60
v -0.4000000 -0.4300000 0.5500000
vn 0.0000000 0.0000000 1.0000000
v -0.3794975 -0.4794975 0.5500000
vn 0.0000000 0.0000000 1.0000000
v -0.2857107 -0.3507107 0.5500000
vn 0.0000000 0.0000000 1.0000000
f 61/61/61 62/62/62 63/63/63
v -0.4000000 -0.4300000 0.5500000
vn 0.0000000 0.0000000 1.0000000
v -0.2857107 -0.3507107 0.5500000
vn 0.0000000 0.0000000 1.0000000
v -0.3150000 -0.2800000 0.5500000
vn 0.0000000 0.0000000 1.0000000
f 64/64/64 65/65/65 66/66/66
v -0.3794975 -0.4794975 0.5500000
vn 0.0000000 0.0000000 1.0000000
v 0.4300000 -0.5000000 0.5500000
vn 0.0000000 0.0000000 1.0000000
v 0.3150000 -0.3800000 0.5500000
vn 0.0000000 0.0000000 1.0000000
f 67/67/67 68/68/68 69/69/69
v -0.3794975 -0.4794975 0.5500000
vn 0.0000000 0.0000000 1.0000000
v 0.3150000 -0.3800000 0.5500000
vn 0.0000000 0.0000000 1.0000000
v -0.2857107 -0.3507107 0.5500000
vn 0.0000000 0.0000000 1.0000000
f 70/70/70 71/71/71 72/72/72
v 0.4300000 -0.5000000 0.5500000
vn 0.0000000 0.0000000 1.0000000
v 0.4794975 -0.4794975 0.5500000
vn 0.0000000 0.0000000 1.0000000
v 0.3857107 -0.3507107 0.5500000
vn 0.0000000 0.0000000 1.0000000
f 73/73/73 74/74/74 75/75/75
v 0.4300000 -0.5000000 0.5500000
vn -0.0000000 0.0000000 1.0000000
v 0.3857107 -0.3507107 0.5500000
vn -0.0000000 0.0000000 1.0000000
v 0.3150000 -0.3800000 0.5500000
vn -0.0000000 0.0000000 1.0000000
f 76/76/76 77/77/77 78/78/78
v -0.3009904 0.5000000 0.5500000
vn 0.9793966 -0.0175910 0.2011786
v -0.3150000 -0.2800000 0.5500000
vn 0.9793966 -0.0175910 0.2011786
v -0.2200000 -0.0800000 0.1050000
vn 0.9793966 -0.0175910 0.2011786
f 79/79/79 80/80/80 81/81/81
v -0.3009904 0.5000000 0.5500000
vn 0.9777906 -0.0232701 0.2082883
v -0.2200000 -0.0800000 0.1050000
vn 0.9777906 -0.0232701 0.2082883
v -0.2061968 0.5000000 0.1050000
vn 0.9777906 -0.0232701 0.2082883
f 82/82/82 83/83/83 84/84/84
v -0.3150000 -0.2800000 0.5500000
vn 0.8666898 0.3589944 0.3463695
v -0.2857107 -0.3507107 0.5500000
vn 0.8666898 0.3589944 0.3463695
v -0.1907107 -0.1507107 0.1050000
vn 0.8666898 0.3589944 0.3463695
f 85/85/85 86/86/86 87/87/87
v -0.3150000 -0.2800000 0.5500000
vn 0.8666897 0.3589946 0.3463695
v -0.1907107 -0.1507107 0.1050000
vn 0.8666897 0.3589946 0.3463695
v -0.2200000 -0.0800000 0.1050000
vn 0.8666897 0.3589946 0.3463695
f 88/88/88 89/89/89 90/90/90
v -0.2857107 -0.3507107 0.5500000
vn 0.0446002 0.9147313 0.4015937
v 0.3150000 -0.3800000 0.5500000
vn 0.0446002 0.9147313 0.4015937
v 0.2200000 -0.1800000 0.1050000
vn 0.0446002 0.9147313 0.4015937
f 91/91/91 92/92/92 93/93/93
v -0.2857107 -0.3507107 0.5500000
vn 0.0645381 0.9049878 0.4205139
v 0.2200000 -0.1800000 0.1050000
vn 0.0645381 0.9049878 0.4205139
v -0.1907107 -0.1507107 0.1050000
vn 0.0645381 0.9049878 0.4205139
f 94/94/94 95/95/95 96/96/96
v 0.3150000 -0.3800000 0.5500000
vn -0.3427030 0.8273588 0.4450080
v 0.3857107 -0.3507107 0.5500000
vn -0.3427030 0.8273588 0.4450080
v 0.2907107 -0.1507107 0.1050000
vn -0.3427030 0.8273588 0.4450080
f 97/97/97 98/98/98 99/99/99
v 0.3150000 -0.3800000 0.5500000
vn -0.3427033 0.8273587 0.4450079
v 0.2907107 -0.1507107 0.1050000
vn -0.3427033 0.8273587 0.4450079
v 0.2200000 -0.1800000 0.1050000
vn -0.3427033 0.8273587 0.4450079
f 100/100/100 101/101/101 102/102/102
v 0.4794975 -0.4794975 0.5500000
vn -0.0000000 0.0000000 1.0000000
v 0.4900145 0.5000000 0.5500000
vn -0.0000000 0.0000000 1.0000000
v 0.4009904 0.5000000 0.5500000
vn -0.0000000 0.0000000 1.0000000
f 103/103/103 104/104/104 105/105/105
v 0.4794975 -0.4794975 0.5500000
vn -0.0000000 0.0000000 1.0000000
v 0.4009904 0.5000000 0.5500000
vn -0.0000000 0.0000000 1.0000000
v 0.3857107 -0.3507107 0.5500000
vn -0.0000000 0.0000000 1.0000000
f 106/106/106 107/107/107 108/108/108
v 0.3857107 -0.3507107 0.5500000
vn -0.9779045 0.0175642 0.2083126
v 0.4009904 0.5000000 0.5500000
vn -0.9779045 0.0175642 0.2083126
v 0.3061967 0.5000000 0.1050000
vn -0.9779045 0.0175642 0.2083126
f 109/109/109 110/110/110 111/111/111
v 0.3857107 -0.3507107 0.5500000
vn -0.9755180 0.0232160 0.2186908
v 0.3061967 0.5000000 0.1050000
vn -0.9755180 0.0232160 0.2186908
v 0.2907107 -0.1507107 0.1050000
vn -0.9755180 0.0232160 0.2186908
f 112/112/112 113/113/113 114/114/114
v 0.4900145 0.5000000 0.0250000
vn 0.0000000 0.0000000 -1.0000000
v 0.4794975 -0.4794975 0.0250000
vn 0.0000000 0.0000000 -1.0000000
v 0.4300000 -0.5000000 0.0250000
vn 0.0000000 0.0000000 -1.0000000
f 115/115/115 116/116/116 117/117/117
v 0.4300000 -0.5000000 0.0250000
vn 0.0000000 0.0000000 -1.0000000
v -0.3794975 -0.4794975 0.0250000
vn 0.0000000 0.0000000 -1.0000000
v -0.4000000 -0.4300000 0.0250000
vn 0.0000000 0.0000000 -1.0000000
f 118/118/118 119/119/119 120/120/120
v -0.4000000 -0.4300000 0.0250000
vn 0.0000000 0.0000000 -1.0000000
v -0.3900145 0.4999999 0.0250000
vn 0.0000000 0.0000000 -1.0000000
v 0.4900145 0.5000000 0.0250000
vn 0.0000000 0.0000000 -1.0000000
f 121/121/121 122/122/122 123/123/123
v 0.4300000 -0.5000000 0.0250000
vn 0.0000000 -0.0000000 -1.0000000
v -0.4000000 -0.4300000 0.0250000
vn 0.0000000 -0.0000000 -1.0000000
v 0.4900145 0.5000000 0.0250000
vn 0.0000000 -0.0000000 -1.0000000
f 124/124/124 125/125/125 126/126/126
v 0.4794975 -0.4794975 0.0250000
vn 0.9999424 -0.0107365 0.0000000
v 0.4900145 0.5000000 0.0250000
vn 0.9999424 -0.0107365 0.0000000
v 0.4900145 0.5000000 0.5500000
vn 0.9999424 -0.0107365 0.0000000
f 127/127/127 128/128/128 129/129/129
v 0.4794975 -0.4794975 0.0250000
vn 0.9999424 -0.0107365 0.0000000
v 0.4900145 0.5000000 0.5500000
vn 0.9999424 -0.0107365 0.0000000
v 0.4794975 -0.4794975 0.5500000
vn 0.9999424 -0.0107365 0.0000000
f 130/130/130 131/131/131 132/132/132
v -0.0600000 -0.4300000 0.5500000
vn -0.0000000 -0.0000000 -0.9999999
v -0.0600000 -0.3200000 0.5500000
vn -0.0000000 -0.0000000 -0.9999999
v 0.1400000 -0.3200000 0.5500000
vn -0.0000000 -0.0000000 -0.9999999
o pz_house_bath_head_|_2_parte_2
f 133/133/133 134/134/134 135/135/135
v -0.0600000 -0.4300000 0.5500000
vn -0.0000000 0.0000000 -0.9999999
v 0.1400000 -0.3200000 0.5500000
vn -0.0000000 0.0000000 -0.9999999
v 0.1400000 -0.4300000 0.5500000
vn -0.0000000 0.0000000 -0.9999999
f 136/136/136 137/137/137 138/138/138
v -0.0600000 -0.4300000 0.5900000
vn 0.0000000 0.0000000 0.9999999
v 0.1400000 -0.4300000 0.5900000
vn 0.0000000 0.0000000 0.9999999
v 0.1400000 -0.3200000 0.5900000
vn 0.0000000 0.0000000 0.9999999
f 139/139/139 140/140/140 141/141/141
v -0.0600000 -0.4300000 0.5900000
vn -0.0000000 0.0000000 0.9999999
v 0.1400000 -0.3200000 0.5900000
vn -0.0000000 0.0000000 0.9999999
v -0.0600000 -0.3200000 0.5900000
vn -0.0000000 0.0000000 0.9999999
f 142/142/142 143/143/143 144/144/144
v -0.0600000 -0.4300000 0.5500000
vn -0.0000000 -1.0000000 -0.0000000
v 0.1400000 -0.4300000 0.5500000
vn -0.0000000 -1.0000000 -0.0000000
v 0.1400000 -0.4300000 0.5900000
vn -0.0000000 -1.0000000 -0.0000000
f 145/145/145 146/146/146 147/147/147
v -0.0600000 -0.4300000 0.5500000
vn 0.0000000 -1.0000000 -0.0000000
v 0.1400000 -0.4300000 0.5900000
vn 0.0000000 -1.0000000 -0.0000000
v -0.0600000 -0.4300000 0.5900000
vn 0.0000000 -1.0000000 -0.0000000
f 148/148/148 149/149/149 150/150/150
v 0.1400000 -0.4300000 0.5500000
vn 1.0000000 0.0000000 0.0000000
v 0.1400000 -0.3200000 0.5500000
vn 1.0000000 0.0000000 0.0000000
v 0.1400000 -0.3200000 0.5900000
vn 1.0000000 0.0000000 0.0000000
f 151/151/151 152/152/152 153/153/153
v 0.1400000 -0.4300000 0.5500000
vn 1.0000000 -0.0000000 0.0000000
v 0.1400000 -0.3200000 0.5900000
vn 1.0000000 -0.0000000 0.0000000
v 0.1400000 -0.4300000 0.5900000
vn 1.0000000 -0.0000000 0.0000000
f 154/154/154 155/155/155 156/156/156
v 0.1400000 -0.3200000 0.5500000
vn -0.0000000 1.0000000 0.0000000
v -0.0600000 -0.3200000 0.5500000
vn -0.0000000 1.0000000 0.0000000
v -0.0600000 -0.3200000 0.5900000
vn -0.0000000 1.0000000 0.0000000
f 157/157/157 158/158/158 159/159/159
v 0.1400000 -0.3200000 0.5500000
vn 0.0000000 1.0000000 0.0000000
v -0.0600000 -0.3200000 0.5900000
vn 0.0000000 1.0000000 0.0000000
v 0.1400000 -0.3200000 0.5900000
vn 0.0000000 1.0000000 0.0000000
f 160/160/160 161/161/161 162/162/162
v -0.0600000 -0.3200000 0.5500000
vn -1.0000000 0.0000000 0.0000000
v -0.0600000 -0.4300000 0.5500000
vn -1.0000000 0.0000000 0.0000000
v -0.0600000 -0.4300000 0.5900000
vn -1.0000000 0.0000000 0.0000000
f 163/163/163 164/164/164 165/165/165
v -0.0600000 -0.3200000 0.5500000
vn -1.0000000 -0.0000000 -0.0000000
v -0.0600000 -0.4300000 0.5900000
vn -1.0000000 -0.0000000 -0.0000000
v -0.0600000 -0.3200000 0.5900000
vn -1.0000000 -0.0000000 -0.0000000
f 166/166/166 167/167/167 168/168/168
v 0.0220000 -0.2300000 0.6300000
vn 0.0000000 -0.3713901 0.9284769
v 0.0400000 -0.2467126 0.6233150
vn 0.0000000 -0.3713901 0.9284769
v 0.0580000 -0.2300000 0.6300000
vn 0.0000000 -0.3713901 0.9284769
o pz_house_bath_head_|_3_parte_3
f 169/169/169 170/170/170 171/171/171
v 0.0400000 -0.2132874 0.6366850
vn 0.0000000 -0.3713901 0.9284769
v 0.0220000 -0.2300000 0.6300000
vn 0.0000000 -0.3713901 0.9284769
v 0.0580000 -0.2300000 0.6300000
vn 0.0000000 -0.3713901 0.9284769
f 172/172/172 173/173/173 174/174/174
v 0.0580000 -0.3900000 0.5800000
vn -0.0000000 0.0000000 1.0000000
v 0.0400000 -0.3720000 0.5800000
vn -0.0000000 0.0000000 1.0000000
v 0.0220000 -0.3900000 0.5800000
vn -0.0000000 0.0000000 1.0000000
f 175/175/175 176/176/176 177/177/177
v 0.0400000 -0.4080000 0.5800000
vn -0.0000000 0.0000000 1.0000000
v 0.0580000 -0.3900000 0.5800000
vn -0.0000000 0.0000000 1.0000000
v 0.0220000 -0.3900000 0.5800000
vn -0.0000000 0.0000000 1.0000000
f 178/178/178 179/179/179 180/180/180
v 0.0400000 -0.4080000 0.5800000
vn -0.5945149 -0.8032067 0.0375646
v 0.0400000 -0.4027279 0.6927279
vn -0.5945149 -0.8032067 0.0375646
v 0.0220000 -0.3900000 0.6800000
vn -0.5945149 -0.8032067 0.0375646
f 181/181/181 182/182/182 183/183/183
v 0.0400000 -0.4080000 0.5800000
vn -0.7071069 -0.7071066 0.0000000
v 0.0220000 -0.3900000 0.6800000
vn -0.7071069 -0.7071066 0.0000000
v 0.0220000 -0.3900000 0.5800000
vn -0.7071069 -0.7071066 0.0000000
f 184/184/184 185/185/185 186/186/186
v 0.0580000 -0.3900000 0.5800000
vn 0.5773501 -0.8164967 0.0000000
v 0.0580000 -0.3900000 0.6800000
vn 0.5773501 -0.8164967 0.0000000
v 0.0400000 -0.4027279 0.6927279
vn 0.5773501 -0.8164967 0.0000000
f 187/187/187 188/188/188 189/189/189
v 0.0580000 -0.3900000 0.5800000
vn 0.7067206 -0.7067202 0.0330521
v 0.0400000 -0.4027279 0.6927279
vn 0.7067206 -0.7067202 0.0330521
v 0.0400000 -0.4080000 0.5800000
vn 0.7067206 -0.7067202 0.0330521
f 190/190/190 191/191/191 192/192/192
v 0.0400000 -0.3720000 0.5800000
vn 0.5526876 0.8318720 0.0502532
v 0.0400000 -0.3772721 0.6672721
vn 0.5526876 0.8318720 0.0502532
v 0.0580000 -0.3900000 0.6800000
vn 0.5526876 0.8318720 0.0502532
f 193/193/193 194/194/194 195/195/195
v 0.0400000 -0.3720000 0.5800000
vn 0.7071069 0.7071067 -0.0000000
v 0.0580000 -0.3900000 0.6800000
vn 0.7071069 0.7071067 -0.0000000
v 0.0580000 -0.3900000 0.5800000
vn 0.7071069 0.7071067 -0.0000000
f 196/196/196 197/197/197 198/198/198
v 0.0220000 -0.3900000 0.5800000
vn -0.5773501 0.8164966 0.0000000
v 0.0220000 -0.3900000 0.6800000
vn -0.5773501 0.8164966 0.0000000
v 0.0400000 -0.3772721 0.6672721
vn -0.5773501 0.8164966 0.0000000
f 199/199/199 200/200/200 201/201/201
v 0.0220000 -0.3900000 0.5800000
vn -0.7064628 0.7064624 0.0426772
v 0.0400000 -0.3772721 0.6672721
vn -0.7064628 0.7064624 0.0426772
v 0.0400000 -0.3720000 0.5800000
vn -0.7064628 0.7064624 0.0426772
f 202/202/202 203/203/203 204/204/204
v 0.0400000 -0.4027279 0.6927279
vn -0.6343093 -0.0103371 0.7730101
v 0.0400000 -0.2399087 0.6949052
vn -0.6343093 -0.0103371 0.7730101
v 0.0220000 -0.2500000 0.6800000
vn -0.6343093 -0.0103371 0.7730101
f 205/205/205 206/206/206 207/207/207
v 0.0400000 -0.4027279 0.6927279
vn -0.5773501 -0.0000000 0.8164967
v 0.0220000 -0.2500000 0.6800000
vn -0.5773501 -0.0000000 0.8164967
v 0.0220000 -0.3900000 0.6800000
vn -0.5773501 -0.0000000 0.8164967
f 208/208/208 209/209/209 210/210/210
v 0.0580000 -0.3900000 0.6800000
vn 0.6377876 0.0000000 0.7702122
v 0.0580000 -0.2500000 0.6800000
vn 0.6377876 0.0000000 0.7702122
v 0.0400000 -0.2399087 0.6949052
vn 0.6377876 0.0000000 0.7702122
f 211/211/211 212/212/212 213/213/213
v 0.0580000 -0.3900000 0.6800000
vn 0.5824285 -0.0108693 0.8128093
v 0.0400000 -0.2399087 0.6949052
vn 0.5824285 -0.0108693 0.8128093
v 0.0400000 -0.4027279 0.6927279
vn 0.5824285 -0.0108693 0.8128093
f 214/214/214 215/215/215 216/216/216
v 0.0400000 -0.3772721 0.6672721
vn 0.6424457 -0.0142365 -0.7661989
v 0.0400000 -0.2600913 0.6650948
vn 0.6424457 -0.0142365 -0.7661989
v 0.0580000 -0.2500000 0.6800000
vn 0.6424457 -0.0142365 -0.7661989
f 217/217/217 218/218/218 219/219/219
v 0.0400000 -0.3772721 0.6672721
vn 0.5773501 0.0000000 -0.8164968
v 0.0580000 -0.2500000 0.6800000
vn 0.5773501 0.0000000 -0.8164968
v 0.0580000 -0.3900000 0.6800000
vn 0.5773501 0.0000000 -0.8164968
f 220/220/220 221/221/221 222/222/222
v 0.0220000 -0.3900000 0.6800000
vn -0.6377877 -0.0000000 -0.7702122
v 0.0220000 -0.2500000 0.6800000
vn -0.6377877 -0.0000000 -0.7702122
v 0.0400000 -0.2600913 0.6650948
vn -0.6377877 -0.0000000 -0.7702122
f 223/223/223 224/224/224 225/225/225
v 0.0220000 -0.3900000 0.6800000
vn -0.5700654 -0.0152632 -0.8214576
v 0.0400000 -0.2600913 0.6650948
vn -0.5700654 -0.0152632 -0.8214576
v 0.0400000 -0.3772721 0.6672721
vn -0.5700654 -0.0152632 -0.8214576
f 226/226/226 227/227/227 228/228/228
v 0.0400000 -0.2399087 0.6949052
vn -0.7066929 0.6434456 0.2942162
v 0.0400000 -0.2132874 0.6366850
vn -0.7066929 0.6434456 0.2942162
v 0.0220000 -0.2300000 0.6300000
vn -0.7066929 0.6434456 0.2942162
f 229/229/229 230/230/230 231/231/231
v 0.0400000 -0.2399087 0.6949052
vn -0.6377876 0.7151242 0.2860495
v 0.0220000 -0.2300000 0.6300000
vn -0.6377876 0.7151242 0.2860495
v 0.0220000 -0.2500000 0.6800000
vn -0.6377876 0.7151242 0.2860495
f 232/232/232 233/233/233 234/234/234
v 0.0580000 -0.2500000 0.6800000
vn 0.7071066 0.6565323 0.2626128
v 0.0580000 -0.2300000 0.6300000
vn 0.7071066 0.6565323 0.2626128
v 0.0400000 -0.2132874 0.6366850
vn 0.7071066 0.6565323 0.2626128
f 235/235/235 236/236/236 237/237/237
v 0.0580000 -0.2500000 0.6800000
vn 0.6495011 0.6915004 0.3161893
v 0.0400000 -0.2132874 0.6366850
vn 0.6495011 0.6915004 0.3161893
v 0.0400000 -0.2399087 0.6949052
vn 0.6495011 0.6915004 0.3161893
f 238/238/238 239/239/239 240/240/240
v 0.0400000 -0.2600913 0.6650948
vn 0.7062240 -0.6742622 -0.2159121
v 0.0400000 -0.2467126 0.6233150
vn 0.7062240 -0.6742622 -0.2159121
v 0.0580000 -0.2300000 0.6300000
vn 0.7062240 -0.6742622 -0.2159121
f 241/241/241 242/242/242 243/243/243
v 0.0400000 -0.2600913 0.6650948
vn 0.6377872 -0.7151245 -0.2860497
v 0.0580000 -0.2300000 0.6300000
vn 0.6377872 -0.7151245 -0.2860497
v 0.0580000 -0.2500000 0.6800000
vn 0.6377872 -0.7151245 -0.2860497
f 244/244/244 245/245/245 246/246/246
v 0.0220000 -0.2500000 0.6800000
vn -0.7071066 -0.6565323 -0.2626128
v 0.0220000 -0.2300000 0.6300000
vn -0.7071066 -0.6565323 -0.2626128
v 0.0400000 -0.2467126 0.6233150
vn -0.7071066 -0.6565323 -0.2626128
f 247/247/247 248/248/248 249/249/249
v 0.0220000 -0.2500000 0.6800000
vn -0.6181809 -0.7485918 -0.2397139
v 0.0400000 -0.2467126 0.6233150
vn -0.6181809 -0.7485918 -0.2397139
v 0.0400000 -0.2600913 0.6650948
vn -0.6181809 -0.7485918 -0.2397139
f 250/250/250 251/251/251 252/252/252
