# Native sprite UV, authored through Blender MCP.
mtllib ../Materials/pz_lamp_9.mtl
usemtl UV_Base
v 0.0450000 0.0000000 0.0000000
vn 0.0000000 0.0000000 -1.0000000
v 0.0364058 -0.0264503 0.0000000
vn 0.0000000 0.0000000 -1.0000000
v 0.0139058 -0.0427975 0.0000000
vn 0.0000000 0.0000000 -1.0000000
vt 0.137832097 0.929015430
vt 0.125416381 0.967227178
vt 0.092911482 0.990843360
vt 0.092911482 0.990843360
vt 0.052733115 0.990843360
vt 0.020228216 0.967227178
vt 0.020228216 0.967227178
vt 0.007812500 0.929015430
vt 0.020228216 0.890803682
vt 0.020228216 0.890803682
vt 0.052733115 0.867187500
vt 0.092911482 0.867187500
vt 0.092911482 0.867187500
vt 0.125416381 0.890803682
vt 0.137832097 0.929015430
vt 0.137832097 0.929015430
vt 0.092911482 0.990843360
vt 0.020228216 0.967227178
vt 0.020228216 0.967227178
vt 0.020228216 0.890803682
vt 0.092911482 0.867187500
vt 0.020228216 0.967227178
vt 0.092911482 0.867187500
vt 0.137832097 0.929015430
vt 0.282221459 0.062916828
vt 0.311191559 0.152077766
vt 0.282221459 0.241238704
vt 0.282221459 0.241238704
vt 0.206376694 0.296343032
vt 0.112627364 0.296343032
vt 0.112627364 0.296343032
vt 0.036782600 0.241238704
vt 0.007812500 0.152077766
vt 0.007812500 0.152077766
vt 0.036782600 0.062916828
vt 0.112627364 0.007812500
vt 0.112627364 0.007812500
vt 0.206376694 0.007812500
vt 0.282221459 0.062916828
vt 0.282221459 0.062916828
vt 0.282221459 0.241238704
vt 0.112627364 0.296343032
vt 0.112627364 0.296343032
vt 0.007812500 0.152077766
vt 0.112627364 0.007812500
vt 0.112627364 0.296343032
vt 0.112627364 0.007812500
vt 0.282221459 0.062916828
vt 0.651228051 0.007812511
vt 0.691406250 0.007812500
vt 0.689174168 0.040242800
vt 0.651228051 0.007812511
vt 0.689174168 0.040242800
vt 0.653460178 0.040242808
vt 0.709821741 0.007812500
vt 0.750000000 0.007812526
vt 0.747767947 0.040242799
vt 0.709821741 0.007812500
vt 0.747767947 0.040242799
vt 0.712053892 0.040242794
vt 0.805803367 0.295874091
vt 0.765625000 0.295874091
vt 0.767857148 0.263443825
vt 0.805803367 0.295874091
vt 0.767857148 0.263443825
vt 0.803571219 0.263443825
vt 0.827009241 0.007812526
vt 0.867187500 0.007812500
vt 0.864955349 0.040242794
vt 0.827009241 0.007812526
vt 0.864955349 0.040242794
vt 0.829241294 0.040242799
vt 0.885603051 0.007812500
vt 0.925781250 0.007812511
vt 0.923549123 0.040242808
vt 0.885603051 0.007812500
vt 0.923549123 0.040242808
vt 0.887835132 0.040242799
vt 0.944196801 0.007812511
vt 0.984375000 0.007812500
vt 0.982142918 0.040242800
vt 0.944196801 0.007812511
vt 0.982142918 0.040242800
vt 0.946428928 0.040242808
vt 0.007812500 0.352678259
vt 0.007812526 0.312500000
vt 0.040242799 0.314732053
vt 0.007812500 0.352678259
vt 0.040242799 0.314732053
vt 0.040242794 0.350446108
vt 0.601562500 0.312500000
vt 0.601562500 0.352678367
vt 0.569132234 0.350446219
vt 0.601562500 0.312500000
vt 0.569132234 0.350446219
vt 0.569132234 0.314732148
vt 0.617187526 0.352678259
vt 0.617187500 0.312500000
vt 0.649617794 0.314732151
vt 0.617187526 0.352678259
vt 0.649617794 0.314732151
vt 0.649617799 0.350446206
vt 0.007812500 0.411271949
vt 0.007812511 0.371093750
vt 0.040242808 0.373325877
vt 0.007812500 0.411271949
vt 0.040242808 0.373325877
vt 0.040242799 0.409039868
vt 0.653460178 0.040242808
vt 0.689174168 0.040242800
vt 0.679352799 0.087572945
vt 0.653460178 0.040242808
vt 0.679352799 0.087572945
vt 0.663281538 0.087572939
vt 0.712053892 0.040242794
vt 0.747767947 0.040242799
vt 0.737946512 0.087572944
vt 0.712053892 0.040242794
vt 0.737946512 0.087572944
vt 0.721875192 0.087572940
vt 0.803571219 0.263443825
vt 0.767857148 0.263443825
vt 0.777678539 0.216113689
vt 0.803571219 0.263443825
vt 0.777678539 0.216113689
vt 0.793749828 0.216113689
vt 0.829241294 0.040242799
vt 0.864955349 0.040242794
vt 0.855134049 0.087572940
vt 0.829241294 0.040242799
vt 0.855134049 0.087572940
vt 0.839062729 0.087572944
vt 0.887835132 0.040242799
vt 0.923549123 0.040242808
vt 0.913727763 0.087572941
vt 0.887835132 0.040242799
vt 0.913727763 0.087572941
vt 0.897656502 0.087572947
vt 0.946428928 0.040242808
vt 0.982142918 0.040242800
vt 0.972321549 0.087572945
vt 0.946428928 0.040242808
vt 0.972321549 0.087572945
vt 0.956250288 0.087572939
vt 0.040242794 0.350446108
vt 0.040242799 0.314732053
vt 0.087572944 0.324553488
vt 0.040242794 0.350446108
vt 0.087572944 0.324553488
vt 0.087572940 0.340624808
vt 0.569132234 0.314732148
vt 0.569132234 0.350446219
vt 0.521802098 0.340624828
vt 0.569132234 0.314732148
vt 0.521802098 0.340624828
vt 0.521802098 0.324553539
vt 0.649617799 0.350446206
vt 0.649617794 0.314732151
vt 0.696947940 0.324553451
vt 0.649617799 0.350446206
vt 0.696947940 0.324553451
vt 0.696947944 0.340624771
vt 0.040242799 0.409039868
vt 0.040242808 0.373325877
vt 0.087572941 0.383147237
vt 0.040242799 0.409039868
vt 0.087572941 0.383147237
vt 0.087572947 0.399218498
vt 0.663281538 0.087572939
vt 0.679352799 0.087572945
vt 0.678906346 0.295874090
vt 0.663281538 0.087572939
vt 0.678906346 0.295874090
vt 0.663727963 0.295874089
vt 0.721875192 0.087572940
vt 0.737946512 0.087572944
vt 0.737500112 0.295874090
vt 0.721875192 0.087572940
vt 0.737500112 0.295874090
vt 0.722321581 0.295874110
vt 0.793749828 0.216113689
vt 0.777678539 0.216113689
vt 0.778124940 0.007812500
vt 0.793749828 0.216113689
vt 0.778124940 0.007812500
vt 0.793303427 0.007812500
vt 0.839062729 0.087572944
vt 0.855134049 0.087572940
vt 0.854687659 0.295874111
vt 0.839062729 0.087572944
vt 0.854687659 0.295874111
vt 0.839509129 0.295874091
vt 0.897656502 0.087572947
vt 0.913727763 0.087572941
vt 0.913281337 0.295874084
vt 0.897656502 0.087572947
vt 0.913281337 0.295874084
vt 0.898102954 0.295874085
vt 0.956250288 0.087572939
vt 0.972321549 0.087572945
vt 0.971875096 0.295874090
vt 0.956250288 0.087572939
vt 0.971875096 0.295874090
vt 0.956696713 0.295874089
vt 0.087572940 0.340624808
vt 0.087572944 0.324553488
vt 0.295874090 0.324999888
vt 0.087572940 0.340624808
vt 0.295874090 0.324999888
vt 0.295874110 0.340178419
vt 0.521802098 0.324553539
vt 0.521802098 0.340624828
vt 0.313500909 0.340178427
vt 0.521802098 0.324553539
vt 0.313500909 0.340178427
vt 0.313500909 0.324999940
vt 0.696947944 0.340624771
vt 0.696947940 0.324553451
vt 0.905249111 0.324999841
vt 0.696947944 0.340624771
vt 0.905249111 0.324999841
vt 0.905249091 0.340178371
vt 0.087572947 0.399218498
vt 0.087572941 0.383147237
vt 0.295874084 0.383593663
vt 0.087572947 0.399218498
vt 0.295874084 0.383593663
vt 0.295874085 0.398772046
vt 0.504373787 0.152077766
vt 0.499683402 0.137642268
vt 0.602533959 0.062916828
vt 0.504373787 0.152077766
vt 0.602533959 0.062916828
vt 0.631504059 0.152077766
vt 0.499683402 0.137642268
vt 0.487403773 0.128720468
vt 0.526689194 0.007812500
vt 0.499683402 0.137642268
vt 0.526689194 0.007812500
vt 0.602533959 0.062916828
vt 0.487403773 0.128720468
vt 0.472225286 0.128720468
vt 0.432939864 0.007812500
vt 0.487403773 0.128720468
vt 0.432939864 0.007812500
vt 0.526689194 0.007812500
vt 0.472225286 0.128720468
vt 0.459945657 0.137642268
vt 0.357095100 0.062916828
vt 0.472225286 0.128720468
vt 0.357095100 0.062916828
vt 0.432939864 0.007812500
vt 0.459945657 0.137642268
vt 0.455255272 0.152077766
vt 0.328125000 0.152077766
vt 0.459945657 0.137642268
vt 0.328125000 0.152077766
vt 0.357095100 0.062916828
vt 0.455255272 0.152077766
vt 0.459945657 0.166513264
vt 0.357095100 0.241238704
vt 0.455255272 0.152077766
vt 0.357095100 0.241238704
vt 0.328125000 0.152077766
vt 0.459945657 0.166513264
vt 0.472225286 0.175435064
vt 0.432939864 0.296343032
vt 0.459945657 0.166513264
vt 0.432939864 0.296343032
vt 0.357095100 0.241238704
vt 0.472225286 0.175435064
vt 0.487403773 0.175435064
vt 0.526689194 0.296343032
vt 0.472225286 0.175435064
vt 0.526689194 0.296343032
vt 0.432939864 0.296343032
vt 0.487403773 0.175435064
vt 0.499683402 0.166513264
vt 0.602533959 0.241238704
vt 0.487403773 0.175435064
vt 0.602533959 0.241238704
vt 0.526689194 0.296343032
vt 0.499683402 0.166513264
vt 0.504373787 0.152077766
vt 0.631504059 0.152077766
vt 0.499683402 0.166513264
vt 0.631504059 0.152077766
vt 0.602533959 0.241238704
vt 0.007812500 0.523436845
vt 0.007812500 0.429687500
vt 0.238958450 0.429687500
vt 0.007812500 0.523436845
vt 0.238958450 0.429687500
vt 0.238958450 0.523436845
vt 0.273437500 0.523436715
vt 0.273437500 0.429687500
vt 0.504583450 0.429687500
vt 0.273437500 0.523436715
vt 0.504583450 0.429687500
vt 0.504583450 0.523436715
vt 0.540580604 0.523436830
vt 0.540580604 0.429687500
vt 0.771726554 0.429687500
vt 0.540580604 0.523436830
vt 0.771726554 0.429687500
vt 0.771726554 0.523436830
vt 0.007812500 0.632811715
vt 0.007812500 0.539062500
vt 0.238958450 0.539062500
vt 0.007812500 0.632811715
vt 0.238958450 0.539062500
vt 0.238958450 0.632811715
vt 0.273437500 0.632811845
vt 0.273437500 0.539062500
vt 0.504583450 0.539062500
vt 0.273437500 0.632811845
vt 0.504583450 0.539062500
vt 0.504583450 0.632811845
vt 0.539062500 0.632811845
vt 0.539062500 0.539062500
vt 0.770208450 0.539062500
vt 0.539062500 0.632811845
vt 0.770208450 0.539062500
vt 0.770208450 0.632811845
vt 0.007812500 0.742186715
vt 0.007812500 0.648437500
vt 0.238958450 0.648437500
vt 0.007812500 0.742186715
vt 0.238958450 0.648437500
vt 0.238958450 0.742186715
vt 0.523437500 0.648437500
vt 0.523437500 0.742186830
vt 0.292291550 0.742186830
vt 0.523437500 0.648437500
vt 0.292291550 0.742186830
vt 0.292291550 0.648437500
vt 0.539062500 0.742186715
vt 0.539062500 0.648437500
vt 0.770208450 0.648437500
vt 0.539062500 0.742186715
vt 0.770208450 0.648437500
vt 0.770208450 0.742186715
vt 0.007812500 0.851561845
vt 0.007812500 0.757812500
vt 0.238958450 0.757812500
vt 0.007812500 0.851561845
vt 0.238958450 0.757812500
vt 0.238958450 0.851561845
vt 0.238958450 0.523436845
vt 0.238958450 0.429687500
vt 0.256294396 0.429687500
vt 0.238958450 0.523436845
vt 0.256294396 0.429687500
vt 0.256294396 0.523436845
vt 0.504583450 0.523436715
vt 0.504583450 0.429687500
vt 0.521919396 0.429687500
vt 0.504583450 0.523436715
vt 0.521919396 0.429687500
vt 0.521919396 0.523436715
vt 0.771726554 0.523436830
vt 0.771726554 0.429687500
vt 0.789062500 0.429687500
vt 0.771726554 0.523436830
vt 0.789062500 0.429687500
vt 0.789062500 0.523436830
vt 0.238958450 0.632811715
vt 0.238958450 0.539062500
vt 0.256294396 0.539062500
vt 0.238958450 0.632811715
vt 0.256294396 0.539062500
vt 0.256294396 0.632811715
vt 0.504583450 0.632811845
vt 0.504583450 0.539062500
vt 0.521919396 0.539062500
vt 0.504583450 0.632811845
vt 0.521919396 0.539062500
vt 0.521919396 0.632811845
vt 0.770208450 0.632811845
vt 0.770208450 0.539062500
vt 0.787544396 0.539062500
vt 0.770208450 0.632811845
vt 0.787544396 0.539062500
vt 0.787544396 0.632811845
vt 0.238958450 0.742186715
vt 0.238958450 0.648437500
vt 0.256294396 0.648437500
vt 0.238958450 0.742186715
vt 0.256294396 0.648437500
vt 0.256294396 0.742186715
vt 0.292291550 0.648437500
vt 0.292291550 0.742186830
vt 0.274955604 0.742186830
vt 0.292291550 0.648437500
vt 0.274955604 0.742186830
vt 0.274955604 0.648437500
vt 0.770208450 0.742186715
vt 0.770208450 0.648437500
vt 0.787544396 0.648437500
vt 0.770208450 0.742186715
vt 0.787544396 0.648437500
vt 0.787544396 0.742186715
vt 0.238958450 0.851561845
vt 0.238958450 0.757812500
vt 0.256294396 0.757812500
vt 0.238958450 0.851561845
vt 0.256294396 0.757812500
vt 0.256294396 0.851561845
f 1/1/1 2/2/2 3/3/3
v 0.0139058 -0.0427975 0.0000000
vn 0.0000000 0.0000000 -1.0000000
v -0.0139058 -0.0427975 0.0000000
vn 0.0000000 0.0000000 -1.0000000
v -0.0364058 -0.0264503 0.0000000
vn 0.0000000 0.0000000 -1.0000000
f 4/4/4 5/5/5 6/6/6
v -0.0364058 -0.0264503 0.0000000
vn 0.0000000 -0.0000000 -1.0000000
v -0.0450000 0.0000000 0.0000000
vn 0.0000000 -0.0000000 -1.0000000
v -0.0364058 0.0264503 0.0000000
vn 0.0000000 -0.0000000 -1.0000000
f 7/7/7 8/8/8 9/9/9
v -0.0364058 0.0264503 0.0000000
vn -0.0000000 0.0000000 -1.0000000
v -0.0139058 0.0427975 0.0000000
vn -0.0000000 0.0000000 -1.0000000
v 0.0139058 0.0427975 0.0000000
vn -0.0000000 0.0000000 -1.0000000
f 10/10/10 11/11/11 12/12/12
v 0.0139058 0.0427975 0.0000000
vn 0.0000000 0.0000000 -1.0000000
v 0.0364058 0.0264503 0.0000000
vn 0.0000000 0.0000000 -1.0000000
v 0.0450000 0.0000000 0.0000000
vn 0.0000000 0.0000000 -1.0000000
f 13/13/13 14/14/14 15/15/15
v 0.0450000 0.0000000 0.0000000
vn 0.0000000 0.0000000 -1.0000000
v 0.0139058 -0.0427975 0.0000000
vn 0.0000000 0.0000000 -1.0000000
v -0.0364058 -0.0264503 0.0000000
vn 0.0000000 0.0000000 -1.0000000
f 16/16/16 17/17/17 18/18/18
v -0.0364058 -0.0264503 0.0000000
vn 0.0000000 -0.0000000 -1.0000000
v -0.0364058 0.0264503 0.0000000
vn 0.0000000 -0.0000000 -1.0000000
v 0.0139058 0.0427975 0.0000000
vn 0.0000000 -0.0000000 -1.0000000
f 19/19/19 20/20/20 21/21/21
v -0.0364058 -0.0264503 0.0000000
vn -0.0000000 0.0000000 -1.0000000
v 0.0139058 0.0427975 0.0000000
vn -0.0000000 0.0000000 -1.0000000
v 0.0450000 0.0000000 0.0000000
vn -0.0000000 0.0000000 -1.0000000
f 22/22/22 23/23/23 24/24/24
v 0.0849468 -0.0617175 0.3720000
vn 0.0000000 0.0000000 1.0000000
v 0.1050000 0.0000000 0.3720000
vn 0.0000000 0.0000000 1.0000000
v 0.0849468 0.0617175 0.3720000
vn 0.0000000 0.0000000 1.0000000
f 25/25/25 26/26/26 27/27/27
v 0.0849468 0.0617175 0.3720000
vn -0.0000000 0.0000000 1.0000000
v 0.0324468 0.0998609 0.3720000
vn -0.0000000 0.0000000 1.0000000
v -0.0324468 0.0998609 0.3720000
vn -0.0000000 0.0000000 1.0000000
f 28/28/28 29/29/29 30/30/30
v -0.0324468 0.0998609 0.3720000
vn 0.0000000 0.0000000 1.0000000
v -0.0849468 0.0617175 0.3720000
vn 0.0000000 0.0000000 1.0000000
v -0.1050000 0.0000000 0.3720000
vn 0.0000000 0.0000000 1.0000000
f 31/31/31 32/32/32 33/33/33
v -0.1050000 0.0000000 0.3720000
vn 0.0000000 0.0000000 1.0000000
v -0.0849468 -0.0617175 0.3720000
vn 0.0000000 0.0000000 1.0000000
v -0.0324468 -0.0998609 0.3720000
vn 0.0000000 0.0000000 1.0000000
f 34/34/34 35/35/35 36/36/36
v -0.0324468 -0.0998609 0.3720000
vn 0.0000000 0.0000000 1.0000000
v 0.0324468 -0.0998609 0.3720000
vn 0.0000000 0.0000000 1.0000000
v 0.0849468 -0.0617175 0.3720000
vn 0.0000000 0.0000000 1.0000000
f 37/37/37 38/38/38 39/39/39
v 0.0849468 -0.0617175 0.3720000
vn 0.0000000 0.0000000 1.0000000
v 0.0849468 0.0617175 0.3720000
vn 0.0000000 0.0000000 1.0000000
v -0.0324468 0.0998609 0.3720000
vn 0.0000000 0.0000000 1.0000000
f 40/40/40 41/41/41 42/42/42
v -0.0324468 0.0998609 0.3720000
vn 0.0000000 -0.0000000 1.0000000
v -0.1050000 0.0000000 0.3720000
vn 0.0000000 -0.0000000 1.0000000
v -0.0324468 -0.0998609 0.3720000
vn 0.0000000 -0.0000000 1.0000000
f 43/43/43 44/44/44 45/45/45
v -0.0324468 0.0998609 0.3720000
vn 0.0000000 -0.0000000 1.0000000
v -0.0324468 -0.0998609 0.3720000
vn 0.0000000 -0.0000000 1.0000000
v 0.0849468 -0.0617175 0.3720000
vn 0.0000000 -0.0000000 1.0000000
f 46/46/46 47/47/47 48/48/48
v 0.0450000 0.0000000 0.0000000
vn 0.9295890 0.3020419 0.2112702
v 0.0364058 0.0264503 0.0000000
vn 0.9295890 0.3020419 0.2112702
v 0.0323607 0.0235114 0.0220000
vn 0.9295890 0.3020419 0.2112702
f 49/49/49 50/50/50 51/51/51
v 0.0450000 0.0000000 0.0000000
vn 0.9295890 0.3020417 0.2112704
v 0.0323607 0.0235114 0.0220000
vn 0.9295890 0.3020417 0.2112704
v 0.0400000 0.0000000 0.0220000
vn 0.9295890 0.3020417 0.2112704
f 52/52/52 53/53/53 54/54/54
v 0.0364058 0.0264503 0.0000000
vn 0.5745175 0.7907556 0.2112702
v 0.0139058 0.0427975 0.0000000
vn 0.5745175 0.7907556 0.2112702
v 0.0123607 0.0380423 0.0220000
vn 0.5745175 0.7907556 0.2112702
f 55/55/55 56/56/56 57/57/57
v 0.0364058 0.0264503 0.0000000
vn 0.5745177 0.7907556 0.2112702
v 0.0123607 0.0380423 0.0220000
vn 0.5745177 0.7907556 0.2112702
v 0.0323607 0.0235114 0.0220000
vn 0.5745177 0.7907556 0.2112702
f 58/58/58 59/59/59 60/60/60
v 0.0139058 0.0427975 0.0000000
vn -0.0000000 0.9774276 0.2112701
v -0.0139058 0.0427975 0.0000000
vn -0.0000000 0.9774276 0.2112701
v -0.0123607 0.0380423 0.0220000
vn -0.0000000 0.9774276 0.2112701
f 61/61/61 62/62/62 63/63/63
v 0.0139058 0.0427975 0.0000000
vn 0.0000000 0.9774277 0.2112702
v -0.0123607 0.0380423 0.0220000
vn 0.0000000 0.9774277 0.2112702
v 0.0123607 0.0380423 0.0220000
vn 0.0000000 0.9774277 0.2112702
f 64/64/64 65/65/65 66/66/66
v -0.0139058 0.0427975 0.0000000
vn -0.5745175 0.7907556 0.2112702
v -0.0364058 0.0264503 0.0000000
vn -0.5745175 0.7907556 0.2112702
v -0.0323607 0.0235114 0.0220000
vn -0.5745175 0.7907556 0.2112702
f 67/67/67 68/68/68 69/69/69
v -0.0139058 0.0427975 0.0000000
vn -0.5745177 0.7907556 0.2112702
v -0.0323607 0.0235114 0.0220000
vn -0.5745177 0.7907556 0.2112702
v -0.0123607 0.0380423 0.0220000
vn -0.5745177 0.7907556 0.2112702
f 70/70/70 71/71/71 72/72/72
v -0.0364058 0.0264503 0.0000000
vn -0.9295889 0.3020418 0.2112703
v -0.0450000 0.0000000 0.0000000
vn -0.9295889 0.3020418 0.2112703
v -0.0400000 0.0000000 0.0220000
vn -0.9295889 0.3020418 0.2112703
f 73/73/73 74/74/74 75/75/75
v -0.0364058 0.0264503 0.0000000
vn -0.9295890 0.3020417 0.2112702
v -0.0400000 0.0000000 0.0220000
vn -0.9295890 0.3020417 0.2112702
v -0.0323607 0.0235114 0.0220000
vn -0.9295890 0.3020417 0.2112702
f 76/76/76 77/77/77 78/78/78
v -0.0450000 0.0000000 0.0000000
vn -0.9295890 -0.3020419 0.2112702
v -0.0364058 -0.0264503 0.0000000
vn -0.9295890 -0.3020419 0.2112702
v -0.0323607 -0.0235114 0.0220000
vn -0.9295890 -0.3020419 0.2112702
f 79/79/79 80/80/80 81/81/81
v -0.0450000 0.0000000 0.0000000
vn -0.9295890 -0.3020417 0.2112704
v -0.0323607 -0.0235114 0.0220000
vn -0.9295890 -0.3020417 0.2112704
v -0.0400000 0.0000000 0.0220000
vn -0.9295890 -0.3020417 0.2112704
f 82/82/82 83/83/83 84/84/84
v -0.0364058 -0.0264503 0.0000000
vn -0.5745175 -0.7907556 0.2112702
v -0.0139058 -0.0427975 0.0000000
vn -0.5745175 -0.7907556 0.2112702
v -0.0123607 -0.0380423 0.0220000
vn -0.5745175 -0.7907556 0.2112702
f 85/85/85 86/86/86 87/87/87
v -0.0364058 -0.0264503 0.0000000
vn -0.5745177 -0.7907556 0.2112702
v -0.0123607 -0.0380423 0.0220000
vn -0.5745177 -0.7907556 0.2112702
v -0.0323607 -0.0235114 0.0220000
vn -0.5745177 -0.7907556 0.2112702
f 88/88/88 89/89/89 90/90/90
v -0.0139058 -0.0427975 0.0000000
vn 0.0000000 -0.9774276 0.2112701
v 0.0139058 -0.0427975 0.0000000
vn 0.0000000 -0.9774276 0.2112701
v 0.0123607 -0.0380423 0.0220000
vn 0.0000000 -0.9774276 0.2112701
f 91/91/91 92/92/92 93/93/93
v -0.0139058 -0.0427975 0.0000000
vn 0.0000000 -0.9774277 0.2112702
v 0.0123607 -0.0380423 0.0220000
vn 0.0000000 -0.9774277 0.2112702
v -0.0123607 -0.0380423 0.0220000
vn 0.0000000 -0.9774277 0.2112702
f 94/94/94 95/95/95 96/96/96
v 0.0139058 -0.0427975 0.0000000
vn 0.5745175 -0.7907556 0.2112702
v 0.0364058 -0.0264503 0.0000000
vn 0.5745175 -0.7907556 0.2112702
v 0.0323607 -0.0235114 0.0220000
vn 0.5745175 -0.7907556 0.2112702
f 97/97/97 98/98/98 99/99/99
v 0.0139058 -0.0427975 0.0000000
vn 0.5745177 -0.7907556 0.2112702
v 0.0323607 -0.0235114 0.0220000
vn 0.5745177 -0.7907556 0.2112702
v 0.0123607 -0.0380423 0.0220000
vn 0.5745177 -0.7907556 0.2112702
f 100/100/100 101/101/101 102/102/102
v 0.0364058 -0.0264503 0.0000000
vn 0.9295889 -0.3020418 0.2112703
v 0.0450000 0.0000000 0.0000000
vn 0.9295889 -0.3020418 0.2112703
v 0.0400000 0.0000000 0.0220000
vn 0.9295889 -0.3020418 0.2112703
f 103/103/103 104/104/104 105/105/105
v 0.0364058 -0.0264503 0.0000000
vn 0.9295890 -0.3020417 0.2112702
v 0.0400000 0.0000000 0.0220000
vn 0.9295890 -0.3020417 0.2112702
v 0.0323607 -0.0235114 0.0220000
vn 0.9295890 -0.3020417 0.2112702
f 106/106/106 107/107/107 108/108/108
v 0.0400000 0.0000000 0.0220000
vn 0.7618465 0.2475389 0.5985937
v 0.0323607 0.0235114 0.0220000
vn 0.7618465 0.2475389 0.5985937
v 0.0145623 0.0105801 0.0500000
vn 0.7618465 0.2475389 0.5985937
f 109/109/109 110/110/110 111/111/111
v 0.0400000 0.0000000 0.0220000
vn 0.7618465 0.2475389 0.5985937
v 0.0145623 0.0105801 0.0500000
vn 0.7618465 0.2475389 0.5985937
v 0.0180000 0.0000000 0.0500000
vn 0.7618465 0.2475389 0.5985937
f 112/112/112 113/113/113 114/114/114
v 0.0323607 0.0235114 0.0220000
vn 0.4708470 0.6480653 0.5985937
v 0.0123607 0.0380423 0.0220000
vn 0.4708470 0.6480653 0.5985937
v 0.0055623 0.0171190 0.0500000
vn 0.4708470 0.6480653 0.5985937
f 115/115/115 116/116/116 117/117/117
v 0.0323607 0.0235114 0.0220000
vn 0.4708470 0.6480654 0.5985937
v 0.0055623 0.0171190 0.0500000
vn 0.4708470 0.6480654 0.5985937
v 0.0145623 0.0105801 0.0500000
vn 0.4708470 0.6480654 0.5985937
f 118/118/118 119/119/119 120/120/120
v 0.0123607 0.0380423 0.0220000
vn -0.0000000 0.8010527 0.5985937
v -0.0123607 0.0380423 0.0220000
vn -0.0000000 0.8010527 0.5985937
v -0.0055623 0.0171190 0.0500000
vn -0.0000000 0.8010527 0.5985937
f 121/121/121 122/122/122 123/123/123
v 0.0123607 0.0380423 0.0220000
vn 0.0000000 0.8010527 0.5985937
v -0.0055623 0.0171190 0.0500000
vn 0.0000000 0.8010527 0.5985937
v 0.0055623 0.0171190 0.0500000
vn 0.0000000 0.8010527 0.5985937
f 124/124/124 125/125/125 126/126/126
v -0.0123607 0.0380423 0.0220000
vn -0.4708470 0.6480653 0.5985937
v -0.0323607 0.0235114 0.0220000
vn -0.4708470 0.6480653 0.5985937
v -0.0145623 0.0105801 0.0500000
vn -0.4708470 0.6480653 0.5985937
f 127/127/127 128/128/128 129/129/129
v -0.0123607 0.0380423 0.0220000
vn -0.4708470 0.6480654 0.5985938
v -0.0145623 0.0105801 0.0500000
vn -0.4708470 0.6480654 0.5985938
v -0.0055623 0.0171190 0.0500000
vn -0.4708470 0.6480654 0.5985938
f 130/130/130 131/131/131 132/132/132
v -0.0323607 0.0235114 0.0220000
vn -0.7618465 0.2475389 0.5985937
v -0.0400000 0.0000000 0.0220000
vn -0.7618465 0.2475389 0.5985937
v -0.0180000 0.0000000 0.0500000
vn -0.7618465 0.2475389 0.5985937
f 133/133/133 134/134/134 135/135/135
v -0.0323607 0.0235114 0.0220000
vn -0.7618466 0.2475389 0.5985937
v -0.0180000 0.0000000 0.0500000
vn -0.7618466 0.2475389 0.5985937
v -0.0145623 0.0105801 0.0500000
vn -0.7618466 0.2475389 0.5985937
f 136/136/136 137/137/137 138/138/138
v -0.0400000 0.0000000 0.0220000
vn -0.7618465 -0.2475389 0.5985937
v -0.0323607 -0.0235114 0.0220000
vn -0.7618465 -0.2475389 0.5985937
v -0.0145623 -0.0105801 0.0500000
vn -0.7618465 -0.2475389 0.5985937
f 139/139/139 140/140/140 141/141/141
v -0.0400000 0.0000000 0.0220000
vn -0.7618465 -0.2475389 0.5985937
v -0.0145623 -0.0105801 0.0500000
vn -0.7618465 -0.2475389 0.5985937
v -0.0180000 0.0000000 0.0500000
vn -0.7618465 -0.2475389 0.5985937
f 142/142/142 143/143/143 144/144/144
v -0.0323607 -0.0235114 0.0220000
vn -0.4708470 -0.6480653 0.5985937
v -0.0123607 -0.0380423 0.0220000
vn -0.4708470 -0.6480653 0.5985937
v -0.0055623 -0.0171190 0.0500000
vn -0.4708470 -0.6480653 0.5985937
f 145/145/145 146/146/146 147/147/147
v -0.0323607 -0.0235114 0.0220000
vn -0.4708470 -0.6480654 0.5985937
v -0.0055623 -0.0171190 0.0500000
vn -0.4708470 -0.6480654 0.5985937
v -0.0145623 -0.0105801 0.0500000
vn -0.4708470 -0.6480654 0.5985937
f 148/148/148 149/149/149 150/150/150
v -0.0123607 -0.0380423 0.0220000
vn 0.0000000 -0.8010527 0.5985937
v 0.0123607 -0.0380423 0.0220000
vn 0.0000000 -0.8010527 0.5985937
v 0.0055623 -0.0171190 0.0500000
vn 0.0000000 -0.8010527 0.5985937
f 151/151/151 152/152/152 153/153/153
v -0.0123607 -0.0380423 0.0220000
vn 0.0000000 -0.8010527 0.5985937
v 0.0055623 -0.0171190 0.0500000
vn 0.0000000 -0.8010527 0.5985937
v -0.0055623 -0.0171190 0.0500000
vn 0.0000000 -0.8010527 0.5985937
f 154/154/154 155/155/155 156/156/156
v 0.0123607 -0.0380423 0.0220000
vn 0.4708470 -0.6480653 0.5985937
v 0.0323607 -0.0235114 0.0220000
vn 0.4708470 -0.6480653 0.5985937
v 0.0145623 -0.0105801 0.0500000
vn 0.4708470 -0.6480653 0.5985937
f 157/157/157 158/158/158 159/159/159
v 0.0123607 -0.0380423 0.0220000
vn 0.4708470 -0.6480654 0.5985938
v 0.0145623 -0.0105801 0.0500000
vn 0.4708470 -0.6480654 0.5985938
v 0.0055623 -0.0171190 0.0500000
vn 0.4708470 -0.6480654 0.5985938
f 160/160/160 161/161/161 162/162/162
v 0.0323607 -0.0235114 0.0220000
vn 0.7618465 -0.2475389 0.5985937
v 0.0400000 0.0000000 0.0220000
vn 0.7618465 -0.2475389 0.5985937
v 0.0180000 0.0000000 0.0500000
vn 0.7618465 -0.2475389 0.5985937
f 163/163/163 164/164/164 165/165/165
v 0.0323607 -0.0235114 0.0220000
vn 0.7618466 -0.2475389 0.5985937
v 0.0180000 0.0000000 0.0500000
vn 0.7618466 -0.2475389 0.5985937
v 0.0145623 -0.0105801 0.0500000
vn 0.7618466 -0.2475389 0.5985937
f 166/166/166 167/167/167 168/168/168
v 0.0180000 0.0000000 0.0500000
vn 0.9510375 0.3090107 0.0063402
v 0.0145623 0.0105801 0.0500000
vn 0.9510375 0.3090107 0.0063402
v 0.0137533 0.0099923 0.2000000
vn 0.9510375 0.3090107 0.0063402
f 169/169/169 170/170/170 171/171/171
v 0.0180000 0.0000000 0.0500000
vn 0.9510374 0.3090108 0.0063402
v 0.0137533 0.0099923 0.2000000
vn 0.9510374 0.3090108 0.0063402
v 0.0170000 0.0000000 0.2000000
vn 0.9510374 0.3090108 0.0063402
f 172/172/172 173/173/173 174/174/174
v 0.0145623 0.0105801 0.0500000
vn 0.5877734 0.8090008 0.0063402
v 0.0055623 0.0171190 0.0500000
vn 0.5877734 0.8090008 0.0063402
v 0.0052533 0.0161680 0.2000000
vn 0.5877734 0.8090008 0.0063402
f 175/175/175 176/176/176 177/177/177
v 0.0145623 0.0105801 0.0500000
vn 0.5877734 0.8090007 0.0063403
v 0.0052533 0.0161680 0.2000000
vn 0.5877734 0.8090007 0.0063403
v 0.0137533 0.0099923 0.2000000
vn 0.5877734 0.8090007 0.0063403
f 178/178/178 179/179/179 180/180/180
v 0.0055623 0.0171190 0.0500000
vn -0.0000000 0.9999799 0.0063402
v -0.0055623 0.0171190 0.0500000
vn -0.0000000 0.9999799 0.0063402
v -0.0052533 0.0161680 0.2000000
vn -0.0000000 0.9999799 0.0063402
f 181/181/181 182/182/182 183/183/183
v 0.0055623 0.0171190 0.0500000
vn 0.0000000 0.9999799 0.0063402
v -0.0052533 0.0161680 0.2000000
vn 0.0000000 0.9999799 0.0063402
v 0.0052533 0.0161680 0.2000000
vn 0.0000000 0.9999799 0.0063402
f 184/184/184 185/185/185 186/186/186
v -0.0055623 0.0171190 0.0500000
vn -0.5877734 0.8090008 0.0063402
v -0.0145623 0.0105801 0.0500000
vn -0.5877734 0.8090008 0.0063402
v -0.0137533 0.0099923 0.2000000
vn -0.5877734 0.8090008 0.0063402
f 187/187/187 188/188/188 189/189/189
v -0.0055623 0.0171190 0.0500000
vn -0.5877734 0.8090007 0.0063402
v -0.0137533 0.0099923 0.2000000
vn -0.5877734 0.8090007 0.0063402
v -0.0052533 0.0161680 0.2000000
vn -0.5877734 0.8090007 0.0063402
f 190/190/190 191/191/191 192/192/192
v -0.0145623 0.0105801 0.0500000
vn -0.9510375 0.3090107 0.0063402
v -0.0180000 0.0000000 0.0500000
vn -0.9510375 0.3090107 0.0063402
v -0.0170000 0.0000000 0.2000000
vn -0.9510375 0.3090107 0.0063402
f 193/193/193 194/194/194 195/195/195
v -0.0145623 0.0105801 0.0500000
vn -0.9510374 0.3090108 0.0063402
v -0.0170000 0.0000000 0.2000000
vn -0.9510374 0.3090108 0.0063402
v -0.0137533 0.0099923 0.2000000
vn -0.9510374 0.3090108 0.0063402
f 196/196/196 197/197/197 198/198/198
v -0.0180000 0.0000000 0.0500000
vn -0.9510375 -0.3090107 0.0063402
v -0.0145623 -0.0105801 0.0500000
vn -0.9510375 -0.3090107 0.0063402
v -0.0137533 -0.0099923 0.2000000
vn -0.9510375 -0.3090107 0.0063402
f 199/199/199 200/200/200 201/201/201
v -0.0180000 0.0000000 0.0500000
vn -0.9510374 -0.3090108 0.0063402
v -0.0137533 -0.0099923 0.2000000
vn -0.9510374 -0.3090108 0.0063402
v -0.0170000 0.0000000 0.2000000
vn -0.9510374 -0.3090108 0.0063402
f 202/202/202 203/203/203 204/204/204
v -0.0145623 -0.0105801 0.0500000
vn -0.5877734 -0.8090008 0.0063402
v -0.0055623 -0.0171190 0.0500000
vn -0.5877734 -0.8090008 0.0063402
v -0.0052533 -0.0161680 0.2000000
vn -0.5877734 -0.8090008 0.0063402
f 205/205/205 206/206/206 207/207/207
v -0.0145623 -0.0105801 0.0500000
vn -0.5877734 -0.8090007 0.0063403
v -0.0052533 -0.0161680 0.2000000
vn -0.5877734 -0.8090007 0.0063403
v -0.0137533 -0.0099923 0.2000000
vn -0.5877734 -0.8090007 0.0063403
f 208/208/208 209/209/209 210/210/210
v -0.0055623 -0.0171190 0.0500000
vn 0.0000000 -0.9999799 0.0063402
v 0.0055623 -0.0171190 0.0500000
vn 0.0000000 -0.9999799 0.0063402
v 0.0052533 -0.0161680 0.2000000
vn 0.0000000 -0.9999799 0.0063402
f 211/211/211 212/212/212 213/213/213
v -0.0055623 -0.0171190 0.0500000
vn 0.0000000 -0.9999799 0.0063402
v 0.0052533 -0.0161680 0.2000000
vn 0.0000000 -0.9999799 0.0063402
v -0.0052533 -0.0161680 0.2000000
vn 0.0000000 -0.9999799 0.0063402
f 214/214/214 215/215/215 216/216/216
v 0.0055623 -0.0171190 0.0500000
vn 0.5877734 -0.8090008 0.0063402
v 0.0145623 -0.0105801 0.0500000
vn 0.5877734 -0.8090008 0.0063402
v 0.0137533 -0.0099923 0.2000000
vn 0.5877734 -0.8090008 0.0063402
f 217/217/217 218/218/218 219/219/219
v 0.0055623 -0.0171190 0.0500000
vn 0.5877734 -0.8090007 0.0063402
v 0.0137533 -0.0099923 0.2000000
vn 0.5877734 -0.8090007 0.0063402
v 0.0052533 -0.0161680 0.2000000
vn 0.5877734 -0.8090007 0.0063402
f 220/220/220 221/221/221 222/222/222
v 0.0145623 -0.0105801 0.0500000
vn 0.9510375 -0.3090107 0.0063402
v 0.0180000 0.0000000 0.0500000
vn 0.9510375 -0.3090107 0.0063402
v 0.0170000 0.0000000 0.2000000
vn 0.9510375 -0.3090107 0.0063402
f 223/223/223 224/224/224 225/225/225
v 0.0145623 -0.0105801 0.0500000
vn 0.9510374 -0.3090108 0.0063402
v 0.0170000 0.0000000 0.2000000
vn 0.9510374 -0.3090108 0.0063402
v 0.0137533 -0.0099923 0.2000000
vn 0.9510374 -0.3090108 0.0063402
f 226/226/226 227/227/227 228/228/228
v 0.0170000 0.0000000 0.2000000
vn 0.0000000 -0.0000000 -1.0000000
v 0.0137533 0.0099923 0.2000000
vn 0.0000000 -0.0000000 -1.0000000
v 0.0849468 0.0617175 0.2000000
vn 0.0000000 -0.0000000 -1.0000000
f 229/229/229 230/230/230 231/231/231
v 0.0170000 0.0000000 0.2000000
vn -0.0000000 0.0000000 -1.0000000
v 0.0849468 0.0617175 0.2000000
vn -0.0000000 0.0000000 -1.0000000
v 0.1050000 0.0000000 0.2000000
vn -0.0000000 0.0000000 -1.0000000
f 232/232/232 233/233/233 234/234/234
v 0.0137533 0.0099923 0.2000000
vn 0.0000000 -0.0000000 -0.9999999
v 0.0052533 0.0161680 0.2000000
vn 0.0000000 -0.0000000 -0.9999999
v 0.0324468 0.0998609 0.2000000
vn 0.0000000 -0.0000000 -0.9999999
f 235/235/235 236/236/236 237/237/237
v 0.0137533 0.0099923 0.2000000
vn -0.0000000 0.0000000 -1.0000000
v 0.0324468 0.0998609 0.2000000
vn -0.0000000 0.0000000 -1.0000000
v 0.0849468 0.0617175 0.2000000
vn -0.0000000 0.0000000 -1.0000000
f 238/238/238 239/239/239 240/240/240
v 0.0052533 0.0161680 0.2000000
vn 0.0000000 0.0000000 -1.0000000
v -0.0052533 0.0161680 0.2000000
vn 0.0000000 0.0000000 -1.0000000
v -0.0324468 0.0998609 0.2000000
vn 0.0000000 0.0000000 -1.0000000
f 241/241/241 242/242/242 243/243/243
v 0.0052533 0.0161680 0.2000000
vn -0.0000000 -0.0000000 -1.0000000
v -0.0324468 0.0998609 0.2000000
vn -0.0000000 -0.0000000 -1.0000000
v 0.0324468 0.0998609 0.2000000
vn -0.0000000 -0.0000000 -1.0000000
f 244/244/244 245/245/245 246/246/246
v -0.0052533 0.0161680 0.2000000
vn 0.0000000 0.0000000 -1.0000000
v -0.0137533 0.0099923 0.2000000
vn 0.0000000 0.0000000 -1.0000000
v -0.0849468 0.0617175 0.2000000
vn 0.0000000 0.0000000 -1.0000000
f 247/247/247 248/248/248 249/249/249
v -0.0052533 0.0161680 0.2000000
vn 0.0000000 -0.0000000 -1.0000000
v -0.0849468 0.0617175 0.2000000
vn 0.0000000 -0.0000000 -1.0000000
v -0.0324468 0.0998609 0.2000000
vn 0.0000000 -0.0000000 -1.0000000
f 250/250/250 251/251/251 252/252/252
v -0.0137533 0.0099923 0.2000000
vn 0.0000000 0.0000000 -1.0000000
v -0.0170000 0.0000000 0.2000000
vn 0.0000000 0.0000000 -1.0000000
v -0.1050000 0.0000000 0.2000000
vn 0.0000000 0.0000000 -1.0000000
f 253/253/253 254/254/254 255/255/255
v -0.0137533 0.0099923 0.2000000
vn 0.0000000 -0.0000000 -1.0000000
v -0.1050000 0.0000000 0.2000000
vn 0.0000000 -0.0000000 -1.0000000
v -0.0849468 0.0617175 0.2000000
vn 0.0000000 -0.0000000 -1.0000000
f 256/256/256 257/257/257 258/258/258
v -0.0170000 0.0000000 0.2000000
vn 0.0000000 0.0000000 -1.0000000
v -0.0137533 -0.0099923 0.2000000
vn 0.0000000 0.0000000 -1.0000000
v -0.0849468 -0.0617175 0.2000000
vn 0.0000000 0.0000000 -1.0000000
f 259/259/259 260/260/260 261/261/261
v -0.0170000 0.0000000 0.2000000
vn 0.0000000 0.0000000 -1.0000000
v -0.0849468 -0.0617175 0.2000000
vn 0.0000000 0.0000000 -1.0000000
v -0.1050000 0.0000000 0.2000000
vn 0.0000000 0.0000000 -1.0000000
f 262/262/262 263/263/263 264/264/264
v -0.0137533 -0.0099923 0.2000000
vn 0.0000000 0.0000000 -0.9999999
v -0.0052533 -0.0161680 0.2000000
vn 0.0000000 0.0000000 -0.9999999
v -0.0324468 -0.0998609 0.2000000
vn 0.0000000 0.0000000 -0.9999999
f 265/265/265 266/266/266 267/267/267
v -0.0137533 -0.0099923 0.2000000
vn 0.0000000 0.0000000 -1.0000000
v -0.0324468 -0.0998609 0.2000000
vn 0.0000000 0.0000000 -1.0000000
v -0.0849468 -0.0617175 0.2000000
vn 0.0000000 0.0000000 -1.0000000
f 268/268/268 269/269/269 270/270/270
v -0.0052533 -0.0161680 0.2000000
vn 0.0000000 0.0000000 -1.0000000
v 0.0052533 -0.0161680 0.2000000
vn 0.0000000 0.0000000 -1.0000000
v 0.0324468 -0.0998609 0.2000000
vn 0.0000000 0.0000000 -1.0000000
f 271/271/271 272/272/272 273/273/273
v -0.0052533 -0.0161680 0.2000000
vn 0.0000000 0.0000000 -1.0000000
v 0.0324468 -0.0998609 0.2000000
vn 0.0000000 0.0000000 -1.0000000
v -0.0324468 -0.0998609 0.2000000
vn 0.0000000 0.0000000 -1.0000000
f 274/274/274 275/275/275 276/276/276
v 0.0052533 -0.0161680 0.2000000
vn -0.0000000 0.0000000 -1.0000000
v 0.0137533 -0.0099923 0.2000000
vn -0.0000000 0.0000000 -1.0000000
v 0.0849468 -0.0617175 0.2000000
vn -0.0000000 0.0000000 -1.0000000
f 277/277/277 278/278/278 279/279/279
v 0.0052533 -0.0161680 0.2000000
vn 0.0000000 0.0000000 -1.0000000
v 0.0849468 -0.0617175 0.2000000
vn 0.0000000 0.0000000 -1.0000000
v 0.0324468 -0.0998609 0.2000000
vn 0.0000000 0.0000000 -1.0000000
f 280/280/280 281/281/281 282/282/282
v 0.0137533 -0.0099923 0.2000000
vn -0.0000000 0.0000000 -1.0000000
v 0.0170000 0.0000000 0.2000000
vn -0.0000000 0.0000000 -1.0000000
v 0.1050000 0.0000000 0.2000000
vn -0.0000000 0.0000000 -1.0000000
f 283/283/283 284/284/284 285/285/285
v 0.0137533 -0.0099923 0.2000000
vn -0.0000000 0.0000000 -1.0000000
v 0.1050000 0.0000000 0.2000000
vn -0.0000000 0.0000000 -1.0000000
v 0.0849468 -0.0617175 0.2000000
vn -0.0000000 0.0000000 -1.0000000
f 286/286/286 287/287/287 288/288/288
v 0.1050000 0.0000000 0.2000000
vn 0.9510565 0.3090170 0.0000000
v 0.0849468 0.0617175 0.2000000
vn 0.9510565 0.3090170 0.0000000
v 0.0849468 0.0617175 0.3600000
vn 0.9510565 0.3090170 0.0000000
f 289/289/289 290/290/290 291/291/291
v 0.1050000 0.0000000 0.2000000
vn 0.9510565 0.3090170 0.0000000
v 0.0849468 0.0617175 0.3600000
vn 0.9510565 0.3090170 0.0000000
v 0.1050000 0.0000000 0.3600000
vn 0.9510565 0.3090170 0.0000000
f 292/292/292 293/293/293 294/294/294
v 0.0849468 0.0617175 0.2000000
vn 0.5877853 0.8090170 0.0000000
v 0.0324468 0.0998609 0.2000000
vn 0.5877853 0.8090170 0.0000000
v 0.0324468 0.0998609 0.3600000
vn 0.5877853 0.8090170 0.0000000
f 295/295/295 296/296/296 297/297/297
v 0.0849468 0.0617175 0.2000000
vn 0.5877853 0.8090170 0.0000000
v 0.0324468 0.0998609 0.3600000
vn 0.5877853 0.8090170 0.0000000
v 0.0849468 0.0617175 0.3600000
vn 0.5877853 0.8090170 0.0000000
f 298/298/298 299/299/299 300/300/300
v 0.0324468 0.0998609 0.2000000
vn -0.0000000 1.0000000 0.0000000
v -0.0324468 0.0998609 0.2000000
vn -0.0000000 1.0000000 0.0000000
v -0.0324468 0.0998609 0.3600000
vn -0.0000000 1.0000000 0.0000000
f 301/301/301 302/302/302 303/303/303
v 0.0324468 0.0998609 0.2000000
vn 0.0000000 1.0000000 0.0000000
v -0.0324468 0.0998609 0.3600000
vn 0.0000000 1.0000000 0.0000000
v 0.0324468 0.0998609 0.3600000
vn 0.0000000 1.0000000 0.0000000
f 304/304/304 305/305/305 306/306/306
v -0.0324468 0.0998609 0.2000000
vn -0.5877853 0.8090170 0.0000000
v -0.0849468 0.0617175 0.2000000
vn -0.5877853 0.8090170 0.0000000
v -0.0849468 0.0617175 0.3600000
vn -0.5877853 0.8090170 0.0000000
f 307/307/307 308/308/308 309/309/309
v -0.0324468 0.0998609 0.2000000
vn -0.5877853 0.8090170 0.0000000
v -0.0849468 0.0617175 0.3600000
vn -0.5877853 0.8090170 0.0000000
v -0.0324468 0.0998609 0.3600000
vn -0.5877853 0.8090170 0.0000000
f 310/310/310 311/311/311 312/312/312
v -0.0849468 0.0617175 0.2000000
vn -0.9510565 0.3090170 0.0000000
v -0.1050000 0.0000000 0.2000000
vn -0.9510565 0.3090170 0.0000000
v -0.1050000 0.0000000 0.3600000
vn -0.9510565 0.3090170 0.0000000
f 313/313/313 314/314/314 315/315/315
v -0.0849468 0.0617175 0.2000000
vn -0.9510565 0.3090170 0.0000000
v -0.1050000 0.0000000 0.3600000
vn -0.9510565 0.3090170 0.0000000
v -0.0849468 0.0617175 0.3600000
vn -0.9510565 0.3090170 0.0000000
f 316/316/316 317/317/317 318/318/318
v -0.1050000 0.0000000 0.2000000
vn -0.9510565 -0.3090170 -0.0000000
v -0.0849468 -0.0617175 0.2000000
vn -0.9510565 -0.3090170 -0.0000000
v -0.0849468 -0.0617175 0.3600000
vn -0.9510565 -0.3090170 -0.0000000
f 319/319/319 320/320/320 321/321/321
v -0.1050000 0.0000000 0.2000000
vn -0.9510565 -0.3090170 0.0000000
v -0.0849468 -0.0617175 0.3600000
vn -0.9510565 -0.3090170 0.0000000
v -0.1050000 0.0000000 0.3600000
vn -0.9510565 -0.3090170 0.0000000
f 322/322/322 323/323/323 324/324/324
v -0.0849468 -0.0617175 0.2000000
vn -0.5877853 -0.8090170 -0.0000000
v -0.0324468 -0.0998609 0.2000000
vn -0.5877853 -0.8090170 -0.0000000
v -0.0324468 -0.0998609 0.3600000
vn -0.5877853 -0.8090170 -0.0000000
f 325/325/325 326/326/326 327/327/327
v -0.0849468 -0.0617175 0.2000000
vn -0.5877853 -0.8090170 0.0000000
v -0.0324468 -0.0998609 0.3600000
vn -0.5877853 -0.8090170 0.0000000
v -0.0849468 -0.0617175 0.3600000
vn -0.5877853 -0.8090170 0.0000000
f 328/328/328 329/329/329 330/330/330
v -0.0324468 -0.0998609 0.2000000
vn -0.0000000 -1.0000000 -0.0000000
v 0.0324468 -0.0998609 0.2000000
vn -0.0000000 -1.0000000 -0.0000000
v 0.0324468 -0.0998609 0.3600000
vn -0.0000000 -1.0000000 -0.0000000
f 331/331/331 332/332/332 333/333/333
v -0.0324468 -0.0998609 0.2000000
vn 0.0000000 -1.0000000 -0.0000000
v 0.0324468 -0.0998609 0.3600000
vn 0.0000000 -1.0000000 -0.0000000
v -0.0324468 -0.0998609 0.3600000
vn 0.0000000 -1.0000000 -0.0000000
f 334/334/334 335/335/335 336/336/336
v 0.0324468 -0.0998609 0.2000000
vn 0.5877853 -0.8090170 0.0000000
v 0.0849468 -0.0617175 0.2000000
vn 0.5877853 -0.8090170 0.0000000
v 0.0849468 -0.0617175 0.3600000
vn 0.5877853 -0.8090170 0.0000000
f 337/337/337 338/338/338 339/339/339
v 0.0324468 -0.0998609 0.2000000
vn 0.5877853 -0.8090170 0.0000000
v 0.0849468 -0.0617175 0.3600000
vn 0.5877853 -0.8090170 0.0000000
v 0.0324468 -0.0998609 0.3600000
vn 0.5877853 -0.8090170 0.0000000
f 340/340/340 341/341/341 342/342/342
v 0.0849468 -0.0617175 0.2000000
vn 0.9510565 -0.3090170 0.0000000
v 0.1050000 0.0000000 0.2000000
vn 0.9510565 -0.3090170 0.0000000
v 0.1050000 0.0000000 0.3600000
vn 0.9510565 -0.3090170 0.0000000
f 343/343/343 344/344/344 345/345/345
v 0.0849468 -0.0617175 0.2000000
vn 0.9510565 -0.3090170 0.0000000
v 0.1050000 0.0000000 0.3600000
vn 0.9510565 -0.3090170 0.0000000
v 0.0849468 -0.0617175 0.3600000
vn 0.9510565 -0.3090170 0.0000000
f 346/346/346 347/347/347 348/348/348
v 0.1050000 0.0000000 0.3600000
vn 0.9510565 0.3090170 0.0000000
v 0.0849468 0.0617175 0.3600000
vn 0.9510565 0.3090170 0.0000000
v 0.0849468 0.0617175 0.3720000
vn 0.9510565 0.3090170 0.0000000
f 349/349/349 350/350/350 351/351/351
v 0.1050000 0.0000000 0.3600000
vn 0.9510565 0.3090170 0.0000000
v 0.0849468 0.0617175 0.3720000
vn 0.9510565 0.3090170 0.0000000
v 0.1050000 0.0000000 0.3720000
vn 0.9510565 0.3090170 0.0000000
f 352/352/352 353/353/353 354/354/354
v 0.0849468 0.0617175 0.3600000
vn 0.5877853 0.8090169 0.0000000
v 0.0324468 0.0998609 0.3600000
vn 0.5877853 0.8090169 0.0000000
v 0.0324468 0.0998609 0.3720000
vn 0.5877853 0.8090169 0.0000000
f 355/355/355 356/356/356 357/357/357
v 0.0849468 0.0617175 0.3600000
vn 0.5877853 0.8090169 0.0000000
v 0.0324468 0.0998609 0.3720000
vn 0.5877853 0.8090169 0.0000000
v 0.0849468 0.0617175 0.3720000
vn 0.5877853 0.8090169 0.0000000
f 358/358/358 359/359/359 360/360/360
v 0.0324468 0.0998609 0.3600000
vn -0.0000000 1.0000000 0.0000000
v -0.0324468 0.0998609 0.3600000
vn -0.0000000 1.0000000 0.0000000
v -0.0324468 0.0998609 0.3720000
vn -0.0000000 1.0000000 0.0000000
f 361/361/361 362/362/362 363/363/363
v 0.0324468 0.0998609 0.3600000
vn 0.0000000 1.0000000 0.0000000
v -0.0324468 0.0998609 0.3720000
vn 0.0000000 1.0000000 0.0000000
v 0.0324468 0.0998609 0.3720000
vn 0.0000000 1.0000000 0.0000000
f 364/364/364 365/365/365 366/366/366
v -0.0324468 0.0998609 0.3600000
vn -0.5877853 0.8090169 0.0000000
v -0.0849468 0.0617175 0.3600000
vn -0.5877853 0.8090169 0.0000000
v -0.0849468 0.0617175 0.3720000
vn -0.5877853 0.8090169 0.0000000
f 367/367/367 368/368/368 369/369/369
v -0.0324468 0.0998609 0.3600000
vn -0.5877853 0.8090169 0.0000000
v -0.0849468 0.0617175 0.3720000
vn -0.5877853 0.8090169 0.0000000
v -0.0324468 0.0998609 0.3720000
vn -0.5877853 0.8090169 0.0000000
f 370/370/370 371/371/371 372/372/372
v -0.0849468 0.0617175 0.3600000
vn -0.9510565 0.3090170 0.0000000
v -0.1050000 0.0000000 0.3600000
vn -0.9510565 0.3090170 0.0000000
v -0.1050000 0.0000000 0.3720000
vn -0.9510565 0.3090170 0.0000000
f 373/373/373 374/374/374 375/375/375
v -0.0849468 0.0617175 0.3600000
vn -0.9510565 0.3090170 0.0000000
v -0.1050000 0.0000000 0.3720000
vn -0.9510565 0.3090170 0.0000000
v -0.0849468 0.0617175 0.3720000
vn -0.9510565 0.3090170 0.0000000
f 376/376/376 377/377/377 378/378/378
v -0.1050000 0.0000000 0.3600000
vn -0.9510565 -0.3090170 -0.0000000
v -0.0849468 -0.0617175 0.3600000
vn -0.9510565 -0.3090170 -0.0000000
v -0.0849468 -0.0617175 0.3720000
vn -0.9510565 -0.3090170 -0.0000000
f 379/379/379 380/380/380 381/381/381
v -0.1050000 0.0000000 0.3600000
vn -0.9510565 -0.3090170 0.0000000
v -0.0849468 -0.0617175 0.3720000
vn -0.9510565 -0.3090170 0.0000000
v -0.1050000 0.0000000 0.3720000
vn -0.9510565 -0.3090170 0.0000000
f 382/382/382 383/383/383 384/384/384
v -0.0849468 -0.0617175 0.3600000
vn -0.5877853 -0.8090169 -0.0000000
v -0.0324468 -0.0998609 0.3600000
vn -0.5877853 -0.8090169 -0.0000000
v -0.0324468 -0.0998609 0.3720000
vn -0.5877853 -0.8090169 -0.0000000
f 385/385/385 386/386/386 387/387/387
v -0.0849468 -0.0617175 0.3600000
vn -0.5877853 -0.8090169 0.0000000
v -0.0324468 -0.0998609 0.3720000
vn -0.5877853 -0.8090169 0.0000000
v -0.0849468 -0.0617175 0.3720000
vn -0.5877853 -0.8090169 0.0000000
f 388/388/388 389/389/389 390/390/390
v -0.0324468 -0.0998609 0.3600000
vn -0.0000000 -1.0000000 -0.0000000
v 0.0324468 -0.0998609 0.3600000
vn -0.0000000 -1.0000000 -0.0000000
v 0.0324468 -0.0998609 0.3720000
vn -0.0000000 -1.0000000 -0.0000000
f 391/391/391 392/392/392 393/393/393
v -0.0324468 -0.0998609 0.3600000
vn 0.0000000 -1.0000000 -0.0000000
v 0.0324468 -0.0998609 0.3720000
vn 0.0000000 -1.0000000 -0.0000000
v -0.0324468 -0.0998609 0.3720000
vn 0.0000000 -1.0000000 -0.0000000
f 394/394/394 395/395/395 396/396/396
v 0.0324468 -0.0998609 0.3600000
vn 0.5877853 -0.8090169 0.0000000
v 0.0849468 -0.0617175 0.3600000
vn 0.5877853 -0.8090169 0.0000000
v 0.0849468 -0.0617175 0.3720000
vn 0.5877853 -0.8090169 0.0000000
f 397/397/397 398/398/398 399/399/399
v 0.0324468 -0.0998609 0.3600000
vn 0.5877853 -0.8090169 0.0000000
v 0.0849468 -0.0617175 0.3720000
vn 0.5877853 -0.8090169 0.0000000
v 0.0324468 -0.0998609 0.3720000
vn 0.5877853 -0.8090169 0.0000000
f 400/400/400 401/401/401 402/402/402
v 0.0849468 -0.0617175 0.3600000
vn 0.9510565 -0.3090170 0.0000000
v 0.1050000 0.0000000 0.3600000
vn 0.9510565 -0.3090170 0.0000000
v 0.1050000 0.0000000 0.3720000
vn 0.9510565 -0.3090170 0.0000000
f 403/403/403 404/404/404 405/405/405
v 0.0849468 -0.0617175 0.3600000
vn 0.9510565 -0.3090170 0.0000000
v 0.1050000 0.0000000 0.3720000
vn 0.9510565 -0.3090170 0.0000000
v 0.0849468 -0.0617175 0.3720000
vn 0.9510565 -0.3090170 0.0000000
f 406/406/406 407/407/407 408/408/408
