# Native geometry authored with Blender MCP in an isolated background process.
mtllib ../Materials/pz_mailbox_public.mtl
o pz_mailbox_public_|_public_box_lower_body
usemtl UV_Base
v -0.2060000 -0.1700000 0.0490000
vn -0.5773503 -0.5773503 -0.5773502
v -0.2200000 -0.1560000 0.0490000
vn -0.5773503 -0.5773503 -0.5773502
v -0.2060000 -0.1560000 0.0350000
vn -0.5773503 -0.5773503 -0.5773502
vt 0.010697410 0.986328125
vt 0.015625000 0.994862962
vt 0.005769819 0.994862962
vt 0.030228660 0.986328125
vt 0.035156250 0.994862962
vt 0.025301069 0.994862962
vt 0.049759910 0.994862962
vt 0.044832319 0.986328125
vt 0.054687500 0.986328125
vt 0.074218750 0.986328125
vt 0.069291160 0.994862962
vt 0.064363569 0.986328125
vt 0.083894819 0.994862962
vt 0.088822410 0.986328125
vt 0.093750000 0.994862962
vt 0.108353660 0.986328125
vt 0.113281250 0.994862962
vt 0.103426069 0.994862962
vt 0.132812500 0.986328125
vt 0.127884910 0.994862962
vt 0.122957319 0.986328125
vt 0.142488569 0.986328125
vt 0.152343750 0.986328125
vt 0.147416160 0.994862962
vt 0.906250000 0.003906250
vt 0.906250000 0.208984111
vt 0.896394819 0.208984111
vt 0.906250000 0.003906250
vt 0.896394819 0.208984111
vt 0.896394819 0.003906250
vt 0.964843750 0.806640625
vt 0.964843750 0.961942306
vt 0.954988569 0.961942306
vt 0.964843750 0.806640625
vt 0.954988569 0.961942306
vt 0.954988569 0.806640625
vt 0.915926069 0.208984111
vt 0.915926069 0.003906250
vt 0.925781250 0.003906250
vt 0.915926069 0.208984111
vt 0.925781250 0.003906250
vt 0.925781250 0.208984111
vt 0.984375000 0.806640625
vt 0.984375000 0.961942306
vt 0.974519819 0.961942306
vt 0.984375000 0.806640625
vt 0.974519819 0.961942306
vt 0.974519819 0.806640625
vt 0.906250000 0.216796875
vt 0.906250000 0.372098556
vt 0.896394819 0.372098556
vt 0.906250000 0.216796875
vt 0.896394819 0.372098556
vt 0.896394819 0.216796875
vt 0.945312500 0.003906250
vt 0.945312500 0.208984111
vt 0.935457319 0.208984111
vt 0.945312500 0.003906250
vt 0.935457319 0.208984111
vt 0.935457319 0.003906250
vt 0.925781250 0.216796875
vt 0.925781250 0.372098556
vt 0.915926069 0.372098556
vt 0.925781250 0.216796875
vt 0.915926069 0.372098556
vt 0.915926069 0.216796875
vt 0.954988569 0.208984111
vt 0.954988569 0.003906250
vt 0.964843750 0.003906250
vt 0.954988569 0.208984111
vt 0.964843750 0.003906250
vt 0.964843750 0.208984111
vt 0.300781250 0.216796875
vt 0.587989807 0.216796875
vt 0.587989807 0.226652056
vt 0.300781250 0.216796875
vt 0.587989807 0.226652056
vt 0.300781250 0.226652056
vt 0.597656250 0.216796875
vt 0.884864807 0.216796875
vt 0.884864807 0.226652056
vt 0.597656250 0.216796875
vt 0.884864807 0.226652056
vt 0.597656250 0.226652056
vt 0.003906250 0.380859375
vt 0.291114807 0.380859375
vt 0.291114807 0.390714556
vt 0.003906250 0.380859375
vt 0.291114807 0.390714556
vt 0.003906250 0.390714556
vt 0.300781250 0.380859375
vt 0.587989807 0.380859375
vt 0.587989807 0.390714556
vt 0.300781250 0.380859375
vt 0.587989807 0.390714556
vt 0.300781250 0.390714556
vt 0.292968750 0.003906250
vt 0.292968750 0.208984111
vt 0.005760193 0.208984111
vt 0.292968750 0.003906250
vt 0.005760193 0.208984111
vt 0.005760193 0.003906250
vt 0.003906250 0.961942306
vt 0.003906250 0.806640625
vt 0.208984111 0.806640625
vt 0.003906250 0.961942306
vt 0.208984111 0.806640625
vt 0.208984111 0.961942306
vt 0.599510193 0.159207931
vt 0.599510193 0.003906250
vt 0.886718750 0.003906250
vt 0.599510193 0.159207931
vt 0.886718750 0.003906250
vt 0.886718750 0.159207931
vt 0.292968750 0.216796875
vt 0.292968750 0.372098556
vt 0.005760193 0.372098556
vt 0.292968750 0.216796875
vt 0.005760193 0.372098556
vt 0.005760193 0.216796875
vt 0.302635193 0.208984111
vt 0.302635193 0.003906250
vt 0.589843750 0.003906250
vt 0.302635193 0.208984111
vt 0.589843750 0.003906250
vt 0.589843750 0.208984111
vt 0.216796875 0.806640625
vt 0.421874736 0.806640625
vt 0.421874736 0.961942306
vt 0.216796875 0.806640625
vt 0.421874736 0.961942306
vt 0.216796875 0.961942306
vt 0.430370364 0.911170602
vt 0.430370364 0.806640625
vt 0.599609375 0.806640625
vt 0.599609375 0.806640625
vt 0.599609375 0.911170602
vt 0.579698903 0.943525119
vt 0.579698903 0.943525119
vt 0.547344386 0.955969164
vt 0.482635353 0.955969164
vt 0.482635353 0.955969164
vt 0.450280836 0.943525119
vt 0.430370364 0.911170602
vt 0.430370364 0.911170602
vt 0.599609375 0.806640625
vt 0.579698903 0.943525119
vt 0.579698903 0.943525119
vt 0.482635353 0.955969164
vt 0.430370364 0.911170602
vt 0.608104739 0.911170602
vt 0.608104739 0.806640625
vt 0.777343750 0.806640625
vt 0.777343750 0.806640625
vt 0.777343750 0.911170602
vt 0.757433278 0.943525119
vt 0.757433278 0.943525119
vt 0.725078761 0.955969164
vt 0.660369728 0.955969164
vt 0.660369728 0.955969164
vt 0.628015211 0.943525119
vt 0.608104739 0.911170602
vt 0.608104739 0.911170602
vt 0.777343750 0.806640625
vt 0.757433278 0.943525119
vt 0.757433278 0.943525119
vt 0.660369728 0.955969164
vt 0.608104739 0.911170602
vt 0.232421875 0.400390625
vt 0.451437066 0.400390625
vt 0.451437066 0.504920602
vt 0.232421875 0.400390625
vt 0.451437066 0.504920602
vt 0.232421875 0.504920602
vt 0.003906250 0.578125000
vt 0.222921441 0.578125000
vt 0.222921441 0.616115020
vt 0.003906250 0.578125000
vt 0.222921441 0.616115020
vt 0.003906250 0.616115020
vt 0.689453125 0.400390625
vt 0.908468316 0.400390625
vt 0.908468316 0.434473183
vt 0.689453125 0.400390625
vt 0.908468316 0.434473183
vt 0.689453125 0.434473183
vt 0.689453125 0.434473183
vt 0.908468316 0.434473183
vt 0.908468316 0.498094794
vt 0.689453125 0.434473183
vt 0.908468316 0.498094794
vt 0.689453125 0.498094794
vt 0.460937500 0.578125000
vt 0.679952691 0.578125000
vt 0.679952691 0.612790098
vt 0.460937500 0.578125000
vt 0.679952691 0.612790098
vt 0.460937500 0.612790098
vt 0.232421875 0.578125000
vt 0.451437066 0.578125000
vt 0.451437066 0.616115020
vt 0.232421875 0.578125000
vt 0.451437066 0.616115020
vt 0.232421875 0.616115020
vt 0.460937500 0.400390625
vt 0.679952691 0.400390625
vt 0.679952691 0.504920602
vt 0.460937500 0.400390625
vt 0.679952691 0.504920602
vt 0.460937500 0.504920602
vt 0.003906250 0.400390625
vt 0.222921441 0.400390625
vt 0.222921441 0.569629636
vt 0.003906250 0.400390625
vt 0.222921441 0.569629636
vt 0.003906250 0.569629636
vt 0.645502050 0.970703125
vt 0.645502050 0.976334657
vt 0.640625000 0.973518891
vt 0.659173925 0.976334657
vt 0.654296875 0.973518891
vt 0.659173925 0.970703125
vt 0.667968750 0.970703125
vt 0.672845800 0.973518891
vt 0.667968750 0.976334657
vt 0.681640625 0.973518891
vt 0.686517675 0.970703125
vt 0.686517675 0.976334657
vt 0.695312500 0.976334657
vt 0.695312500 0.970703125
vt 0.700189550 0.973518891
vt 0.708984375 0.976334657
vt 0.708984375 0.970703125
vt 0.713861425 0.973518891
vt 0.727533300 0.973518891
vt 0.722656250 0.976334657
vt 0.722656250 0.970703125
vt 0.736328125 0.973518891
vt 0.741205175 0.970703125
vt 0.741205175 0.976334657
vt 0.908203125 0.625000000
vt 0.908203125 0.786274822
vt 0.902571593 0.786274822
vt 0.908203125 0.625000000
vt 0.902571593 0.786274822
vt 0.902571593 0.625000000
vt 0.458984375 0.794921875
vt 0.458984375 0.795917399
vt 0.453352843 0.795917399
vt 0.458984375 0.794921875
vt 0.453352843 0.795917399
vt 0.453352843 0.794921875
vt 0.916243468 0.786274822
vt 0.916243468 0.625000000
vt 0.921875000 0.625000000
vt 0.916243468 0.786274822
vt 0.921875000 0.625000000
vt 0.921875000 0.786274822
vt 0.472656250 0.794921875
vt 0.472656250 0.795917399
vt 0.467024718 0.795917399
vt 0.472656250 0.794921875
vt 0.467024718 0.795917399
vt 0.467024718 0.794921875
vt 0.486328125 0.794921875
vt 0.486328125 0.795917399
vt 0.480696593 0.795917399
vt 0.486328125 0.794921875
vt 0.480696593 0.795917399
vt 0.480696593 0.794921875
vt 0.935546875 0.625000000
vt 0.935546875 0.786274822
vt 0.929915343 0.786274822
vt 0.935546875 0.625000000
vt 0.929915343 0.786274822
vt 0.929915343 0.625000000
vt 0.500000000 0.794921875
vt 0.500000000 0.795917399
vt 0.494368468 0.795917399
vt 0.500000000 0.794921875
vt 0.494368468 0.795917399
vt 0.494368468 0.794921875
vt 0.943587218 0.786274822
vt 0.943587218 0.625000000
vt 0.949218750 0.625000000
vt 0.943587218 0.786274822
vt 0.949218750 0.625000000
vt 0.949218750 0.786274822
vt 0.597656250 0.380859375
vt 0.813684870 0.380859375
vt 0.813684870 0.386490907
vt 0.597656250 0.380859375
vt 0.813684870 0.386490907
vt 0.597656250 0.386490907
vt 0.689453125 0.578125000
vt 0.905481745 0.578125000
vt 0.905481745 0.583756532
vt 0.689453125 0.578125000
vt 0.905481745 0.583756532
vt 0.689453125 0.583756532
vt 0.453125000 0.625000000
vt 0.669153620 0.625000000
vt 0.669153620 0.630631532
vt 0.453125000 0.625000000
vt 0.669153620 0.630631532
vt 0.453125000 0.630631532
vt 0.677734375 0.625000000
vt 0.893762995 0.625000000
vt 0.893762995 0.630631532
vt 0.677734375 0.625000000
vt 0.893762995 0.630631532
vt 0.677734375 0.630631532
vt 0.220703125 0.625000000
vt 0.220703125 0.786274822
vt 0.004674505 0.786274822
vt 0.220703125 0.625000000
vt 0.004674505 0.786274822
vt 0.004674505 0.625000000
vt 0.959941976 0.625000000
vt 0.960937500 0.625000000
vt 0.960937500 0.786274822
vt 0.959941976 0.625000000
vt 0.960937500 0.786274822
vt 0.959941976 0.786274822
vt 0.004674505 0.795917399
vt 0.004674505 0.794921875
vt 0.220703125 0.794921875
vt 0.004674505 0.795917399
vt 0.220703125 0.794921875
vt 0.220703125 0.795917399
vt 0.445312500 0.794921875
vt 0.445312500 0.795917399
vt 0.229283880 0.795917399
vt 0.445312500 0.794921875
vt 0.229283880 0.795917399
vt 0.229283880 0.794921875
vt 0.229283880 0.786274822
vt 0.229283880 0.625000000
vt 0.445312500 0.625000000
vt 0.229283880 0.786274822
vt 0.445312500 0.625000000
vt 0.445312500 0.786274822
vt 0.972656250 0.625000000
vt 0.972656250 0.786274822
vt 0.971660726 0.786274822
vt 0.972656250 0.625000000
vt 0.971660726 0.786274822
vt 0.971660726 0.625000000
vt 0.460937500 0.974222832
vt 0.467033812 0.970703125
vt 0.467033812 0.977742540
vt 0.476562500 0.974222832
vt 0.482658812 0.970703125
vt 0.482658812 0.977742540
vt 0.492187500 0.970703125
vt 0.498283812 0.974222832
vt 0.492187500 0.977742540
vt 0.507812500 0.974222832
vt 0.513908812 0.970703125
vt 0.513908812 0.977742540
vt 0.529533812 0.977742540
vt 0.523437500 0.974222832
vt 0.529533812 0.970703125
vt 0.539062500 0.974222832
vt 0.545158812 0.970703125
vt 0.545158812 0.977742540
vt 0.560783812 0.974222832
vt 0.554687500 0.977742540
vt 0.554687500 0.970703125
vt 0.570312500 0.974222832
vt 0.576408812 0.970703125
vt 0.576408812 0.977742540
vt 0.988281250 0.625000000
vt 0.988281250 0.784283775
vt 0.981241835 0.784283775
vt 0.988281250 0.625000000
vt 0.981241835 0.784283775
vt 0.981241835 0.625000000
vt 0.585937500 0.970703125
vt 0.589919594 0.970703125
vt 0.589919594 0.977742540
vt 0.585937500 0.970703125
vt 0.589919594 0.977742540
vt 0.585937500 0.977742540
vt 0.981549400 0.387898790
vt 0.822265625 0.387898790
vt 0.822265625 0.380859375
vt 0.981549400 0.387898790
vt 0.822265625 0.380859375
vt 0.981549400 0.380859375
vt 0.599609375 0.970703125
vt 0.603591469 0.970703125
vt 0.603591469 0.977742540
vt 0.599609375 0.970703125
vt 0.603591469 0.977742540
vt 0.599609375 0.977742540
vt 0.613281250 0.970703125
vt 0.617263344 0.970703125
vt 0.617263344 0.977742540
vt 0.613281250 0.970703125
vt 0.617263344 0.977742540
vt 0.613281250 0.977742540
vt 0.974609375 0.400390625
vt 0.974609375 0.559674400
vt 0.967569960 0.559674400
vt 0.974609375 0.400390625
vt 0.967569960 0.559674400
vt 0.967569960 0.400390625
vt 0.626953125 0.970703125
vt 0.630935219 0.970703125
vt 0.630935219 0.977742540
vt 0.626953125 0.970703125
vt 0.630935219 0.977742540
vt 0.626953125 0.977742540
vt 0.983194960 0.559674400
vt 0.983194960 0.400390625
vt 0.990234375 0.400390625
vt 0.983194960 0.559674400
vt 0.990234375 0.400390625
vt 0.990234375 0.559674400
vt 0.082031250 0.970703125
vt 0.121852194 0.970703125
vt 0.121852194 0.977742540
vt 0.082031250 0.970703125
vt 0.121852194 0.977742540
vt 0.082031250 0.977742540
vt 0.130859375 0.970703125
vt 0.170680319 0.970703125
vt 0.170680319 0.977742540
vt 0.130859375 0.970703125
vt 0.170680319 0.977742540
vt 0.130859375 0.977742540
vt 0.179687500 0.970703125
vt 0.219508444 0.970703125
vt 0.219508444 0.977742540
vt 0.179687500 0.970703125
vt 0.219508444 0.977742540
vt 0.179687500 0.977742540
vt 0.228515625 0.970703125
vt 0.268336569 0.970703125
vt 0.268336569 0.977742540
vt 0.228515625 0.970703125
vt 0.268336569 0.977742540
vt 0.228515625 0.977742540
vt 0.958984375 0.400390625
vt 0.958984375 0.559674400
vt 0.919163431 0.559674400
vt 0.958984375 0.400390625
vt 0.919163431 0.559674400
vt 0.919163431 0.400390625
vt 0.974533531 0.003906250
vt 0.978515625 0.003906250
vt 0.978515625 0.163190025
vt 0.974533531 0.003906250
vt 0.978515625 0.163190025
vt 0.974533531 0.163190025
vt 0.278538431 0.974685219
vt 0.278538431 0.970703125
vt 0.318359375 0.970703125
vt 0.278538431 0.974685219
vt 0.318359375 0.970703125
vt 0.318359375 0.974685219
vt 0.367187500 0.970703125
vt 0.367187500 0.974685219
vt 0.327366556 0.974685219
vt 0.367187500 0.970703125
vt 0.327366556 0.974685219
vt 0.327366556 0.970703125
vt 0.944440025 0.846461569
vt 0.785156250 0.846461569
vt 0.785156250 0.806640625
vt 0.944440025 0.846461569
vt 0.785156250 0.806640625
vt 0.944440025 0.806640625
vt 0.992187500 0.003906250
vt 0.992187500 0.163190025
vt 0.988205406 0.163190025
vt 0.992187500 0.003906250
vt 0.988205406 0.163190025
vt 0.988205406 0.003906250
vt 0.976908573 0.216796875
vt 0.984375000 0.216796875
vt 0.984375000 0.286483527
vt 0.976908573 0.216796875
vt 0.984375000 0.286483527
vt 0.976908573 0.286483527
vt 0.003906250 0.970703125
vt 0.073592902 0.970703125
vt 0.073592902 0.978169552
vt 0.003906250 0.970703125
vt 0.073592902 0.978169552
vt 0.003906250 0.978169552
vt 0.914062500 0.578125000
vt 0.983749152 0.578125000
vt 0.983749152 0.612968326
vt 0.914062500 0.578125000
vt 0.983749152 0.612968326
vt 0.914062500 0.612968326
vt 0.410156250 0.970703125
vt 0.410156250 0.978169552
vt 0.375312924 0.978169552
vt 0.410156250 0.970703125
vt 0.375312924 0.978169552
vt 0.375312924 0.970703125
vt 0.933906674 0.286483527
vt 0.933906674 0.216796875
vt 0.968750000 0.216796875
vt 0.933906674 0.286483527
vt 0.968750000 0.216796875
vt 0.968750000 0.286483527
vt 0.418281674 0.978169552
vt 0.418281674 0.970703125
vt 0.453125000 0.970703125
vt 0.418281674 0.978169552
vt 0.453125000 0.970703125
vt 0.453125000 0.978169552
vt 0.168120439 0.990310219
vt 0.167586938 0.992301267
vt 0.166129392 0.993758813
vt 0.166129392 0.993758813
vt 0.164138344 0.994292314
vt 0.162147297 0.993758813
vt 0.162147297 0.993758813
vt 0.160689751 0.992301267
vt 0.160156250 0.990310219
vt 0.160156250 0.990310219
vt 0.160689751 0.988319172
vt 0.162147297 0.986861626
vt 0.162147297 0.986861626
vt 0.164138344 0.986328125
vt 0.166129392 0.986861626
vt 0.166129392 0.986861626
vt 0.167586938 0.988319172
vt 0.168120439 0.990310219
vt 0.168120439 0.990310219
vt 0.166129392 0.993758813
vt 0.162147297 0.993758813
vt 0.162147297 0.993758813
vt 0.160156250 0.990310219
vt 0.162147297 0.986861626
vt 0.162147297 0.986861626
vt 0.166129392 0.986861626
vt 0.168120439 0.990310219
vt 0.162147297 0.993758813
vt 0.162147297 0.986861626
vt 0.168120439 0.990310219
vt 0.185165063 0.988319172
vt 0.185698564 0.990310219
vt 0.185165063 0.992301267
vt 0.185165063 0.992301267
vt 0.183707517 0.993758813
vt 0.181716469 0.994292314
vt 0.181716469 0.994292314
vt 0.179725422 0.993758813
vt 0.178267876 0.992301267
vt 0.178267876 0.992301267
vt 0.177734375 0.990310219
vt 0.178267876 0.988319172
vt 0.178267876 0.988319172
vt 0.179725422 0.986861626
vt 0.181716469 0.986328125
vt 0.181716469 0.986328125
vt 0.183707517 0.986861626
vt 0.185165063 0.988319172
vt 0.185165063 0.988319172
vt 0.185165063 0.992301267
vt 0.181716469 0.994292314
vt 0.181716469 0.994292314
vt 0.178267876 0.992301267
vt 0.178267876 0.988319172
vt 0.178267876 0.988319172
vt 0.181716469 0.986328125
vt 0.185165063 0.988319172
vt 0.181716469 0.994292314
vt 0.178267876 0.988319172
vt 0.185165063 0.988319172
vt 0.754977618 0.970703125
vt 0.754977618 0.972694173
vt 0.750000000 0.972694173
vt 0.754977618 0.970703125
vt 0.750000000 0.972694173
vt 0.750000000 0.970703125
vt 0.754977618 0.972694173
vt 0.754977618 0.974685218
vt 0.750000000 0.974685218
vt 0.754977618 0.972694173
vt 0.750000000 0.974685218
vt 0.750000000 0.972694173
vt 0.512790118 0.794921875
vt 0.512790118 0.796983159
vt 0.507812500 0.796983159
vt 0.512790118 0.794921875
vt 0.507812500 0.796983159
vt 0.507812500 0.794921875
vt 0.768649493 0.970703125
vt 0.768649493 0.972694173
vt 0.763671875 0.972694173
vt 0.768649493 0.970703125
vt 0.763671875 0.972694173
vt 0.763671875 0.970703125
vt 0.768649493 0.972694173
vt 0.768649493 0.974685218
vt 0.763671875 0.974685218
vt 0.768649493 0.972694173
vt 0.763671875 0.974685218
vt 0.763671875 0.972694173
vt 0.526461993 0.794921875
vt 0.526461993 0.796983159
vt 0.521484375 0.796983159
vt 0.526461993 0.794921875
vt 0.521484375 0.796983159
vt 0.521484375 0.794921875
vt 0.782321368 0.970703125
vt 0.782321368 0.972694173
vt 0.777343750 0.972694173
vt 0.782321368 0.970703125
vt 0.777343750 0.972694173
vt 0.777343750 0.970703125
vt 0.782321368 0.972694173
vt 0.782321368 0.974685218
vt 0.777343750 0.974685218
vt 0.782321368 0.972694173
vt 0.777343750 0.974685218
vt 0.777343750 0.972694173
vt 0.540133868 0.794921875
vt 0.540133868 0.796983159
vt 0.535156250 0.796983159
vt 0.540133868 0.794921875
vt 0.535156250 0.796983159
vt 0.535156250 0.794921875
vt 0.795993243 0.970703125
vt 0.795993243 0.972694173
vt 0.791015625 0.972694173
vt 0.795993243 0.970703125
vt 0.791015625 0.972694173
vt 0.791015625 0.970703125
vt 0.795993243 0.972694173
vt 0.795993243 0.974685218
vt 0.791015625 0.974685218
vt 0.795993243 0.972694173
vt 0.791015625 0.974685218
vt 0.791015625 0.972694173
vt 0.553805743 0.794921875
vt 0.553805743 0.796983159
vt 0.548828125 0.796983159
vt 0.553805743 0.794921875
vt 0.548828125 0.796983159
vt 0.548828125 0.794921875
f 1/1/1 2/2/2 3/3/3
v 0.2060000 -0.1700000 0.0490000
vn 0.5773503 -0.5773503 -0.5773502
v 0.2060000 -0.1560000 0.0350000
vn 0.5773503 -0.5773503 -0.5773502
v 0.2200000 -0.1560000 0.0490000
vn 0.5773503 -0.5773503 -0.5773502
f 4/4/4 5/5/5 6/6/6
v 0.2060000 0.1700000 0.0490000
vn 0.5773503 0.5773503 -0.5773502
v 0.2200000 0.1560000 0.0490000
vn 0.5773503 0.5773503 -0.5773502
v 0.2060000 0.1560000 0.0350000
vn 0.5773503 0.5773503 -0.5773502
f 7/7/7 8/8/8 9/9/9
v -0.2200000 0.1560000 0.0490000
vn -0.5773503 0.5773503 -0.5773502
v -0.2060000 0.1700000 0.0490000
vn -0.5773503 0.5773503 -0.5773502
v -0.2060000 0.1560000 0.0350000
vn -0.5773503 0.5773503 -0.5773502
f 10/10/10 11/11/11 12/12/12
v -0.2200000 -0.1560000 0.6260000
vn -0.5773503 -0.5773503 0.5773503
v -0.2060000 -0.1700000 0.6260000
vn -0.5773503 -0.5773503 0.5773503
v -0.2060000 -0.1560000 0.6400000
vn -0.5773503 -0.5773503 0.5773503
f 13/13/13 14/14/14 15/15/15
v 0.2060000 -0.1700000 0.6260000
vn 0.5773503 -0.5773503 0.5773503
v 0.2200000 -0.1560000 0.6260000
vn 0.5773503 -0.5773503 0.5773503
v 0.2060000 -0.1560000 0.6400000
vn 0.5773503 -0.5773503 0.5773503
f 16/16/16 17/17/17 18/18/18
v 0.2200000 0.1560000 0.6260000
vn 0.5773503 0.5773503 0.5773503
v 0.2060000 0.1700000 0.6260000
vn 0.5773503 0.5773503 0.5773503
v 0.2060000 0.1560000 0.6400000
vn 0.5773503 0.5773503 0.5773503
f 19/19/19 20/20/20 21/21/21
v -0.2200000 0.1560000 0.6260000
vn -0.5773503 0.5773503 0.5773503
v -0.2060000 0.1560000 0.6400000
vn -0.5773503 0.5773503 0.5773503
v -0.2060000 0.1700000 0.6260000
vn -0.5773503 0.5773503 0.5773503
f 22/22/22 23/23/23 24/24/24
v -0.2060000 -0.1560000 0.0350000
vn -0.0000000 -0.7071069 -0.7071066
v 0.2060000 -0.1560000 0.0350000
vn -0.0000000 -0.7071069 -0.7071066
v 0.2060000 -0.1700000 0.0490000
vn -0.0000000 -0.7071069 -0.7071066
f 25/25/25 26/26/26 27/27/27
v -0.2060000 -0.1560000 0.0350000
vn 0.0000000 -0.7071069 -0.7071066
v 0.2060000 -0.1700000 0.0490000
vn 0.0000000 -0.7071069 -0.7071066
v -0.2060000 -0.1700000 0.0490000
vn 0.0000000 -0.7071069 -0.7071066
f 28/28/28 29/29/29 30/30/30
v -0.2200000 -0.1560000 0.0490000
vn -0.7071068 -0.0000000 -0.7071067
v -0.2200000 0.1560000 0.0490000
vn -0.7071068 -0.0000000 -0.7071067
v -0.2060000 0.1560000 0.0350000
vn -0.7071068 -0.0000000 -0.7071067
f 31/31/31 32/32/32 33/33/33
v -0.2200000 -0.1560000 0.0490000
vn -0.7071068 0.0000000 -0.7071067
v -0.2060000 0.1560000 0.0350000
vn -0.7071068 0.0000000 -0.7071067
v -0.2060000 -0.1560000 0.0350000
vn -0.7071068 0.0000000 -0.7071067
f 34/34/34 35/35/35 36/36/36
v 0.2060000 0.1560000 0.0350000
vn 0.0000000 0.7071069 -0.7071066
v -0.2060000 0.1560000 0.0350000
vn 0.0000000 0.7071069 -0.7071066
v -0.2060000 0.1700000 0.0490000
vn 0.0000000 0.7071069 -0.7071066
f 37/37/37 38/38/38 39/39/39
v 0.2060000 0.1560000 0.0350000
vn 0.0000000 0.7071069 -0.7071066
v -0.2060000 0.1700000 0.0490000
vn 0.0000000 0.7071069 -0.7071066
v 0.2060000 0.1700000 0.0490000
vn 0.0000000 0.7071069 -0.7071066
f 40/40/40 41/41/41 42/42/42
v 0.2060000 -0.1560000 0.0350000
vn 0.7071068 0.0000000 -0.7071067
v 0.2060000 0.1560000 0.0350000
vn 0.7071068 0.0000000 -0.7071067
v 0.2200000 0.1560000 0.0490000
vn 0.7071068 0.0000000 -0.7071067
f 43/43/43 44/44/44 45/45/45
v 0.2060000 -0.1560000 0.0350000
vn 0.7071068 0.0000000 -0.7071067
v 0.2200000 0.1560000 0.0490000
vn 0.7071068 0.0000000 -0.7071067
v 0.2200000 -0.1560000 0.0490000
vn 0.7071068 0.0000000 -0.7071067
f 46/46/46 47/47/47 48/48/48
v -0.2060000 -0.1560000 0.6400000
vn -0.7071068 0.0000000 0.7071068
v -0.2060000 0.1560000 0.6400000
vn -0.7071068 0.0000000 0.7071068
v -0.2200000 0.1560000 0.6260000
vn -0.7071068 0.0000000 0.7071068
f 49/49/49 50/50/50 51/51/51
v -0.2060000 -0.1560000 0.6400000
vn -0.7071068 0.0000000 0.7071068
v -0.2200000 0.1560000 0.6260000
vn -0.7071068 0.0000000 0.7071068
v -0.2200000 -0.1560000 0.6260000
vn -0.7071068 0.0000000 0.7071068
f 52/52/52 53/53/53 54/54/54
v -0.2060000 -0.1700000 0.6260000
vn 0.0000000 -0.7071068 0.7071068
v 0.2060000 -0.1700000 0.6260000
vn 0.0000000 -0.7071068 0.7071068
v 0.2060000 -0.1560000 0.6400000
vn 0.0000000 -0.7071068 0.7071068
f 55/55/55 56/56/56 57/57/57
v -0.2060000 -0.1700000 0.6260000
vn 0.0000000 -0.7071068 0.7071068
v 0.2060000 -0.1560000 0.6400000
vn 0.0000000 -0.7071068 0.7071068
v -0.2060000 -0.1560000 0.6400000
vn 0.0000000 -0.7071068 0.7071068
f 58/58/58 59/59/59 60/60/60
v 0.2200000 -0.1560000 0.6260000
vn 0.7071068 0.0000000 0.7071068
v 0.2200000 0.1560000 0.6260000
vn 0.7071068 0.0000000 0.7071068
v 0.2060000 0.1560000 0.6400000
vn 0.7071068 0.0000000 0.7071068
f 61/61/61 62/62/62 63/63/63
v 0.2200000 -0.1560000 0.6260000
vn 0.7071068 -0.0000000 0.7071068
v 0.2060000 0.1560000 0.6400000
vn 0.7071068 -0.0000000 0.7071068
v 0.2060000 -0.1560000 0.6400000
vn 0.7071068 -0.0000000 0.7071068
f 64/64/64 65/65/65 66/66/66
v 0.2060000 0.1700000 0.6260000
vn -0.0000000 0.7071068 0.7071068
v -0.2060000 0.1700000 0.6260000
vn -0.0000000 0.7071068 0.7071068
v -0.2060000 0.1560000 0.6400000
vn -0.0000000 0.7071068 0.7071068
f 67/67/67 68/68/68 69/69/69
v 0.2060000 0.1700000 0.6260000
vn 0.0000000 0.7071068 0.7071068
v -0.2060000 0.1560000 0.6400000
vn 0.0000000 0.7071068 0.7071068
v 0.2060000 0.1560000 0.6400000
vn 0.0000000 0.7071068 0.7071068
f 70/70/70 71/71/71 72/72/72
v -0.2060000 -0.1700000 0.0490000
vn -0.7071068 -0.7071068 -0.0000000
v -0.2060000 -0.1700000 0.6260000
vn -0.7071068 -0.7071068 -0.0000000
v -0.2200000 -0.1560000 0.6260000
vn -0.7071068 -0.7071068 -0.0000000
f 73/73/73 74/74/74 75/75/75
v -0.2060000 -0.1700000 0.0490000
vn -0.7071068 -0.7071068 0.0000000
v -0.2200000 -0.1560000 0.6260000
vn -0.7071068 -0.7071068 0.0000000
v -0.2200000 -0.1560000 0.0490000
vn -0.7071068 -0.7071068 0.0000000
f 76/76/76 77/77/77 78/78/78
v 0.2200000 -0.1560000 0.0490000
vn 0.7071068 -0.7071068 0.0000000
v 0.2200000 -0.1560000 0.6260000
vn 0.7071068 -0.7071068 0.0000000
v 0.2060000 -0.1700000 0.6260000
vn 0.7071068 -0.7071068 0.0000000
f 79/79/79 80/80/80 81/81/81
v 0.2200000 -0.1560000 0.0490000
vn 0.7071068 -0.7071068 0.0000000
v 0.2060000 -0.1700000 0.6260000
vn 0.7071068 -0.7071068 0.0000000
v 0.2060000 -0.1700000 0.0490000
vn 0.7071068 -0.7071068 0.0000000
f 82/82/82 83/83/83 84/84/84
v 0.2060000 0.1700000 0.0490000
vn 0.7071068 0.7071068 0.0000000
v 0.2060000 0.1700000 0.6260000
vn 0.7071068 0.7071068 0.0000000
v 0.2200000 0.1560000 0.6260000
vn 0.7071068 0.7071068 0.0000000
f 85/85/85 86/86/86 87/87/87
v 0.2060000 0.1700000 0.0490000
vn 0.7071068 0.7071068 -0.0000000
v 0.2200000 0.1560000 0.6260000
vn 0.7071068 0.7071068 -0.0000000
v 0.2200000 0.1560000 0.0490000
vn 0.7071068 0.7071068 -0.0000000
f 88/88/88 89/89/89 90/90/90
v -0.2200000 0.1560000 0.0490000
vn -0.7071068 0.7071068 0.0000000
v -0.2200000 0.1560000 0.6260000
vn -0.7071068 0.7071068 0.0000000
v -0.2060000 0.1700000 0.6260000
vn -0.7071068 0.7071068 0.0000000
f 91/91/91 92/92/92 93/93/93
v -0.2200000 0.1560000 0.0490000
vn -0.7071068 0.7071068 0.0000000
v -0.2060000 0.1700000 0.6260000
vn -0.7071068 0.7071068 0.0000000
v -0.2060000 0.1700000 0.0490000
vn -0.7071068 0.7071068 0.0000000
f 94/94/94 95/95/95 96/96/96
v -0.2060000 -0.1700000 0.0490000
vn -0.0000000 -1.0000000 -0.0000000
v 0.2060000 -0.1700000 0.0490000
vn -0.0000000 -1.0000000 -0.0000000
v 0.2060000 -0.1700000 0.6260000
vn -0.0000000 -1.0000000 -0.0000000
f 97/97/97 98/98/98 99/99/99
v -0.2060000 -0.1700000 0.0490000
vn 0.0000000 -1.0000000 -0.0000000
v 0.2060000 -0.1700000 0.6260000
vn 0.0000000 -1.0000000 -0.0000000
v -0.2060000 -0.1700000 0.6260000
vn 0.0000000 -1.0000000 -0.0000000
f 100/100/100 101/101/101 102/102/102
v -0.2060000 -0.1560000 0.0350000
vn -0.0000000 -0.0000000 -1.0000000
v -0.2060000 0.1560000 0.0350000
vn -0.0000000 -0.0000000 -1.0000000
v 0.2060000 0.1560000 0.0350000
vn -0.0000000 -0.0000000 -1.0000000
f 103/103/103 104/104/104 105/105/105
v -0.2060000 -0.1560000 0.0350000
vn -0.0000000 0.0000000 -1.0000000
v 0.2060000 0.1560000 0.0350000
vn -0.0000000 0.0000000 -1.0000000
v 0.2060000 -0.1560000 0.0350000
vn -0.0000000 0.0000000 -1.0000000
f 106/106/106 107/107/107 108/108/108
v -0.2200000 0.1560000 0.0490000
vn -1.0000000 0.0000000 0.0000000
v -0.2200000 -0.1560000 0.0490000
vn -1.0000000 0.0000000 0.0000000
v -0.2200000 -0.1560000 0.6260000
vn -1.0000000 0.0000000 0.0000000
f 109/109/109 110/110/110 111/111/111
v -0.2200000 0.1560000 0.0490000
vn -1.0000000 -0.0000000 -0.0000000
v -0.2200000 -0.1560000 0.6260000
vn -1.0000000 -0.0000000 -0.0000000
v -0.2200000 0.1560000 0.6260000
vn -1.0000000 -0.0000000 -0.0000000
f 112/112/112 113/113/113 114/114/114
v 0.2200000 -0.1560000 0.0490000
vn 1.0000000 0.0000000 0.0000000
v 0.2200000 0.1560000 0.0490000
vn 1.0000000 0.0000000 0.0000000
v 0.2200000 0.1560000 0.6260000
vn 1.0000000 0.0000000 0.0000000
f 115/115/115 116/116/116 117/117/117
v 0.2200000 -0.1560000 0.0490000
vn 1.0000000 -0.0000000 0.0000000
v 0.2200000 0.1560000 0.6260000
vn 1.0000000 -0.0000000 0.0000000
v 0.2200000 -0.1560000 0.6260000
vn 1.0000000 -0.0000000 0.0000000
f 118/118/118 119/119/119 120/120/120
v 0.2060000 0.1700000 0.0490000
vn -0.0000000 1.0000000 0.0000000
v -0.2060000 0.1700000 0.0490000
vn -0.0000000 1.0000000 0.0000000
v -0.2060000 0.1700000 0.6260000
vn -0.0000000 1.0000000 0.0000000
f 121/121/121 122/122/122 123/123/123
v 0.2060000 0.1700000 0.0490000
vn 0.0000000 1.0000000 0.0000000
v -0.2060000 0.1700000 0.6260000
vn 0.0000000 1.0000000 0.0000000
v 0.2060000 0.1700000 0.6260000
vn 0.0000000 1.0000000 0.0000000
f 124/124/124 125/125/125 126/126/126
v -0.2060000 -0.1560000 0.6400000
vn 0.0000000 0.0000000 1.0000000
v 0.2060000 -0.1560000 0.6400000
vn 0.0000000 0.0000000 1.0000000
v 0.2060000 0.1560000 0.6400000
vn 0.0000000 0.0000000 1.0000000
f 127/127/127 128/128/128 129/129/129
v -0.2060000 -0.1560000 0.6400000
vn -0.0000000 0.0000000 1.0000000
v 0.2060000 0.1560000 0.6400000
vn -0.0000000 0.0000000 1.0000000
v -0.2060000 0.1560000 0.6400000
vn -0.0000000 0.0000000 1.0000000
f 130/130/130 131/131/131 132/132/132
o pz_mailbox_public_|_true_rounded_public_mailbox_roof
usemtl UV_Base
v -0.2200000 0.1700000 0.8500000
vn -1.0000000 0.0000000 0.0000000
v -0.2200000 0.1700000 0.6400000
vn -1.0000000 0.0000000 0.0000000
v -0.2200000 -0.1700000 0.6400000
vn -1.0000000 0.0000000 0.0000000
f 133/133/133 134/134/134 135/135/135
v -0.2200000 -0.1700000 0.6400000
vn -1.0000000 0.0000000 -0.0000000
v -0.2200000 -0.1700000 0.8500000
vn -1.0000000 0.0000000 -0.0000000
v -0.2200000 -0.1300000 0.9150000
vn -1.0000000 0.0000000 -0.0000000
f 136/136/136 137/137/137 138/138/138
v -0.2200000 -0.1300000 0.9150000
vn -0.9999999 -0.0000000 0.0000000
v -0.2200000 -0.0650000 0.9400000
vn -0.9999999 -0.0000000 0.0000000
v -0.2200000 0.0650000 0.9400000
vn -0.9999999 -0.0000000 0.0000000
f 139/139/139 140/140/140 141/141/141
v -0.2200000 0.0650000 0.9400000
vn -0.9999999 0.0000000 0.0000000
v -0.2200000 0.1300000 0.9150000
vn -0.9999999 0.0000000 0.0000000
v -0.2200000 0.1700000 0.8500000
vn -0.9999999 0.0000000 0.0000000
f 142/142/142 143/143/143 144/144/144
v -0.2200000 0.1700000 0.8500000
vn -1.0000000 0.0000000 -0.0000000
v -0.2200000 -0.1700000 0.6400000
vn -1.0000000 0.0000000 -0.0000000
v -0.2200000 -0.1300000 0.9150000
vn -1.0000000 0.0000000 -0.0000000
f 145/145/145 146/146/146 147/147/147
v -0.2200000 -0.1300000 0.9150000
vn -0.9999999 -0.0000000 0.0000000
v -0.2200000 0.0650000 0.9400000
vn -0.9999999 -0.0000000 0.0000000
v -0.2200000 0.1700000 0.8500000
vn -0.9999999 -0.0000000 0.0000000
f 148/148/148 149/149/149 150/150/150
v 0.2200000 -0.1700000 0.8500000
vn 1.0000000 0.0000000 -0.0000000
v 0.2200000 -0.1700000 0.6400000
vn 1.0000000 0.0000000 -0.0000000
v 0.2200000 0.1700000 0.6400000
vn 1.0000000 0.0000000 -0.0000000
f 151/151/151 152/152/152 153/153/153
v 0.2200000 0.1700000 0.6400000
vn 1.0000000 0.0000000 0.0000000
v 0.2200000 0.1700000 0.8500000
vn 1.0000000 0.0000000 0.0000000
v 0.2200000 0.1300000 0.9150000
vn 1.0000000 0.0000000 0.0000000
f 154/154/154 155/155/155 156/156/156
v 0.2200000 0.1300000 0.9150000
vn 0.9999999 -0.0000000 0.0000000
v 0.2200000 0.0650000 0.9400000
vn 0.9999999 -0.0000000 0.0000000
v 0.2200000 -0.0650000 0.9400000
vn 0.9999999 -0.0000000 0.0000000
f 157/157/157 158/158/158 159/159/159
v 0.2200000 -0.0650000 0.9400000
vn 0.9999999 0.0000000 0.0000000
v 0.2200000 -0.1300000 0.9150000
vn 0.9999999 0.0000000 0.0000000
v 0.2200000 -0.1700000 0.8500000
vn 0.9999999 0.0000000 0.0000000
f 160/160/160 161/161/161 162/162/162
v 0.2200000 -0.1700000 0.8500000
vn 1.0000000 0.0000000 0.0000000
v 0.2200000 0.1700000 0.6400000
vn 1.0000000 0.0000000 0.0000000
v 0.2200000 0.1300000 0.9150000
vn 1.0000000 0.0000000 0.0000000
f 163/163/163 164/164/164 165/165/165
v 0.2200000 0.1300000 0.9150000
vn 0.9999999 -0.0000000 0.0000000
v 0.2200000 -0.0650000 0.9400000
vn 0.9999999 -0.0000000 0.0000000
v 0.2200000 -0.1700000 0.8500000
vn 0.9999999 -0.0000000 0.0000000
f 166/166/166 167/167/167 168/168/168
v -0.2200000 -0.1700000 0.6400000
vn -0.0000000 -0.9999999 -0.0000000
v 0.2200000 -0.1700000 0.6400000
vn -0.0000000 -0.9999999 -0.0000000
v 0.2200000 -0.1700000 0.8500000
vn -0.0000000 -0.9999999 -0.0000000
f 169/169/169 170/170/170 171/171/171
v -0.2200000 -0.1700000 0.6400000
vn 0.0000000 -0.9999999 -0.0000000
v 0.2200000 -0.1700000 0.8500000
vn 0.0000000 -0.9999999 -0.0000000
v -0.2200000 -0.1700000 0.8500000
vn 0.0000000 -0.9999999 -0.0000000
f 172/172/172 173/173/173 174/174/174
v -0.2200000 -0.1700000 0.8500000
vn 0.0000000 -0.8516582 0.5240975
v 0.2200000 -0.1700000 0.8500000
vn 0.0000000 -0.8516582 0.5240975
v 0.2200000 -0.1300000 0.9150000
vn 0.0000000 -0.8516582 0.5240975
f 175/175/175 176/176/176 177/177/177
v -0.2200000 -0.1700000 0.8500000
vn 0.0000000 -0.8516582 0.5240975
v 0.2200000 -0.1300000 0.9150000
vn 0.0000000 -0.8516582 0.5240975
v -0.2200000 -0.1300000 0.9150000
vn 0.0000000 -0.8516582 0.5240975
f 178/178/178 179/179/179 180/180/180
v -0.2200000 -0.1300000 0.9150000
vn 0.0000000 -0.3589788 0.9333457
v 0.2200000 -0.1300000 0.9150000
vn 0.0000000 -0.3589788 0.9333457
v 0.2200000 -0.0650000 0.9400000
vn 0.0000000 -0.3589788 0.9333457
f 181/181/181 182/182/182 183/183/183
v -0.2200000 -0.1300000 0.9150000
vn 0.0000000 -0.3589788 0.9333457
v 0.2200000 -0.0650000 0.9400000
vn 0.0000000 -0.3589788 0.9333457
v -0.2200000 -0.0650000 0.9400000
vn 0.0000000 -0.3589788 0.9333457
f 184/184/184 185/185/185 186/186/186
v -0.2200000 -0.0650000 0.9400000
vn 0.0000000 0.0000000 1.0000000
v 0.2200000 -0.0650000 0.9400000
vn 0.0000000 0.0000000 1.0000000
v 0.2200000 0.0650000 0.9400000
vn 0.0000000 0.0000000 1.0000000
f 187/187/187 188/188/188 189/189/189
v -0.2200000 -0.0650000 0.9400000
vn -0.0000000 0.0000000 1.0000000
v 0.2200000 0.0650000 0.9400000
vn -0.0000000 0.0000000 1.0000000
v -0.2200000 0.0650000 0.9400000
vn -0.0000000 0.0000000 1.0000000
f 190/190/190 191/191/191 192/192/192
v -0.2200000 0.0650000 0.9400000
vn 0.0000000 0.3589788 0.9333457
v 0.2200000 0.0650000 0.9400000
vn 0.0000000 0.3589788 0.9333457
v 0.2200000 0.1300000 0.9150000
vn 0.0000000 0.3589788 0.9333457
f 193/193/193 194/194/194 195/195/195
v -0.2200000 0.0650000 0.9400000
vn -0.0000000 0.3589788 0.9333457
v 0.2200000 0.1300000 0.9150000
vn -0.0000000 0.3589788 0.9333457
v -0.2200000 0.1300000 0.9150000
vn -0.0000000 0.3589788 0.9333457
f 196/196/196 197/197/197 198/198/198
v -0.2200000 0.1300000 0.9150000
vn 0.0000000 0.8516582 0.5240975
v 0.2200000 0.1300000 0.9150000
vn 0.0000000 0.8516582 0.5240975
v 0.2200000 0.1700000 0.8500000
vn 0.0000000 0.8516582 0.5240975
f 199/199/199 200/200/200 201/201/201
v -0.2200000 0.1300000 0.9150000
vn -0.0000000 0.8516582 0.5240975
v 0.2200000 0.1700000 0.8500000
vn -0.0000000 0.8516582 0.5240975
v -0.2200000 0.1700000 0.8500000
vn -0.0000000 0.8516582 0.5240975
f 202/202/202 203/203/203 204/204/204
v -0.2200000 0.1700000 0.8500000
vn 0.0000000 0.9999999 -0.0000000
v 0.2200000 0.1700000 0.8500000
vn 0.0000000 0.9999999 -0.0000000
v 0.2200000 0.1700000 0.6400000
vn 0.0000000 0.9999999 -0.0000000
f 205/205/205 206/206/206 207/207/207
v -0.2200000 0.1700000 0.8500000
vn 0.0000000 0.9999999 -0.0000000
v 0.2200000 0.1700000 0.6400000
vn 0.0000000 0.9999999 -0.0000000
v -0.2200000 0.1700000 0.6400000
vn 0.0000000 0.9999999 -0.0000000
f 208/208/208 209/209/209 210/210/210
v -0.2200000 0.1700000 0.6400000
vn 0.0000000 0.0000000 -1.0000000
v 0.2200000 0.1700000 0.6400000
vn 0.0000000 0.0000000 -1.0000000
v 0.2200000 -0.1700000 0.6400000
vn 0.0000000 0.0000000 -1.0000000
f 211/211/211 212/212/212 213/213/213
v -0.2200000 0.1700000 0.6400000
vn 0.0000000 0.0000000 -1.0000000
v 0.2200000 -0.1700000 0.6400000
vn 0.0000000 0.0000000 -1.0000000
v -0.2200000 -0.1700000 0.6400000
vn 0.0000000 0.0000000 -1.0000000
f 214/214/214 215/215/215 216/216/216
o pz_mailbox_public_|_front_collection_door
usemtl UV_Base
v -0.1620000 -0.1850000 0.0980000
vn -0.5773503 -0.5773503 -0.5773503
v -0.1700000 -0.1770000 0.0980000
vn -0.5773503 -0.5773503 -0.5773503
v -0.1620000 -0.1770000 0.0900000
vn -0.5773503 -0.5773503 -0.5773503
f 217/217/217 218/218/218 219/219/219
v 0.1620000 -0.1850000 0.0980000
vn 0.5773503 -0.5773503 -0.5773503
v 0.1620000 -0.1770000 0.0900000
vn 0.5773503 -0.5773503 -0.5773503
v 0.1700000 -0.1770000 0.0980000
vn 0.5773503 -0.5773503 -0.5773503
f 220/220/220 221/221/221 222/222/222
v 0.1620000 -0.1670000 0.0980000
vn 0.5773503 0.5773503 -0.5773503
v 0.1700000 -0.1750000 0.0980000
vn 0.5773503 0.5773503 -0.5773503
v 0.1620000 -0.1750000 0.0900000
vn 0.5773503 0.5773503 -0.5773503
f 223/223/223 224/224/224 225/225/225
v -0.1700000 -0.1750000 0.0980000
vn -0.5773503 0.5773503 -0.5773503
v -0.1620000 -0.1670000 0.0980000
vn -0.5773503 0.5773503 -0.5773503
v -0.1620000 -0.1750000 0.0900000
vn -0.5773503 0.5773503 -0.5773503
f 226/226/226 227/227/227 228/228/228
v -0.1700000 -0.1770000 0.5320000
vn -0.5773506 -0.5773506 0.5773495
v -0.1620000 -0.1850000 0.5320000
vn -0.5773506 -0.5773506 0.5773495
v -0.1620000 -0.1770000 0.5400000
vn -0.5773506 -0.5773506 0.5773495
f 229/229/229 230/230/230 231/231/231
v 0.1620000 -0.1850000 0.5320000
vn 0.5773506 -0.5773506 0.5773495
v 0.1700000 -0.1770000 0.5320000
vn 0.5773506 -0.5773506 0.5773495
v 0.1620000 -0.1770000 0.5400000
vn 0.5773506 -0.5773506 0.5773495
f 232/232/232 233/233/233 234/234/234
v 0.1700000 -0.1750000 0.5320000
vn 0.5773506 0.5773506 0.5773495
v 0.1620000 -0.1670000 0.5320000
vn 0.5773506 0.5773506 0.5773495
v 0.1620000 -0.1750000 0.5400000
vn 0.5773506 0.5773506 0.5773495
f 235/235/235 236/236/236 237/237/237
v -0.1700000 -0.1750000 0.5320000
vn -0.5773506 0.5773506 0.5773495
v -0.1620000 -0.1750000 0.5400000
vn -0.5773506 0.5773506 0.5773495
v -0.1620000 -0.1670000 0.5320000
vn -0.5773506 0.5773506 0.5773495
f 238/238/238 239/239/239 240/240/240
v -0.1620000 -0.1770000 0.0900000
vn -0.0000000 -0.7071068 -0.7071068
v 0.1620000 -0.1770000 0.0900000
vn -0.0000000 -0.7071068 -0.7071068
v 0.1620000 -0.1850000 0.0980000
vn -0.0000000 -0.7071068 -0.7071068
f 241/241/241 242/242/242 243/243/243
v -0.1620000 -0.1770000 0.0900000
vn 0.0000000 -0.7071068 -0.7071068
v 0.1620000 -0.1850000 0.0980000
vn 0.0000000 -0.7071068 -0.7071068
v -0.1620000 -0.1850000 0.0980000
vn 0.0000000 -0.7071068 -0.7071068
f 244/244/244 245/245/245 246/246/246
v -0.1700000 -0.1770000 0.0980000
vn -0.7071068 -0.0000000 -0.7071068
v -0.1700000 -0.1750000 0.0980000
vn -0.7071068 -0.0000000 -0.7071068
v -0.1620000 -0.1750000 0.0900000
vn -0.7071068 -0.0000000 -0.7071068
f 247/247/247 248/248/248 249/249/249
v -0.1700000 -0.1770000 0.0980000
vn -0.7071068 0.0000000 -0.7071068
v -0.1620000 -0.1750000 0.0900000
vn -0.7071068 0.0000000 -0.7071068
v -0.1620000 -0.1770000 0.0900000
vn -0.7071068 0.0000000 -0.7071068
f 250/250/250 251/251/251 252/252/252
v 0.1620000 -0.1750000 0.0900000
vn 0.0000000 0.7071068 -0.7071068
v -0.1620000 -0.1750000 0.0900000
vn 0.0000000 0.7071068 -0.7071068
v -0.1620000 -0.1670000 0.0980000
vn 0.0000000 0.7071068 -0.7071068
f 253/253/253 254/254/254 255/255/255
v 0.1620000 -0.1750000 0.0900000
vn 0.0000000 0.7071068 -0.7071068
v -0.1620000 -0.1670000 0.0980000
vn 0.0000000 0.7071068 -0.7071068
v 0.1620000 -0.1670000 0.0980000
vn 0.0000000 0.7071068 -0.7071068
f 256/256/256 257/257/257 258/258/258
v 0.1620000 -0.1770000 0.0900000
vn 0.7071068 0.0000000 -0.7071068
v 0.1620000 -0.1750000 0.0900000
vn 0.7071068 0.0000000 -0.7071068
v 0.1700000 -0.1750000 0.0980000
vn 0.7071068 0.0000000 -0.7071068
f 259/259/259 260/260/260 261/261/261
v 0.1620000 -0.1770000 0.0900000
vn 0.7071068 0.0000000 -0.7071068
v 0.1700000 -0.1750000 0.0980000
vn 0.7071068 0.0000000 -0.7071068
v 0.1700000 -0.1770000 0.0980000
vn 0.7071068 0.0000000 -0.7071068
f 262/262/262 263/263/263 264/264/264
v -0.1620000 -0.1770000 0.5400000
vn -0.7071075 0.0000000 0.7071061
v -0.1620000 -0.1750000 0.5400000
vn -0.7071075 0.0000000 0.7071061
v -0.1700000 -0.1750000 0.5320000
vn -0.7071075 0.0000000 0.7071061
f 265/265/265 266/266/266 267/267/267
v -0.1620000 -0.1770000 0.5400000
vn -0.7071075 0.0000000 0.7071061
v -0.1700000 -0.1750000 0.5320000
vn -0.7071075 0.0000000 0.7071061
v -0.1700000 -0.1770000 0.5320000
vn -0.7071075 0.0000000 0.7071061
f 268/268/268 269/269/269 270/270/270
v -0.1620000 -0.1850000 0.5320000
vn 0.0000000 -0.7071075 0.7071062
v 0.1620000 -0.1850000 0.5320000
vn 0.0000000 -0.7071075 0.7071062
v 0.1620000 -0.1770000 0.5400000
vn 0.0000000 -0.7071075 0.7071062
f 271/271/271 272/272/272 273/273/273
v -0.1620000 -0.1850000 0.5320000
vn 0.0000000 -0.7071075 0.7071062
v 0.1620000 -0.1770000 0.5400000
vn 0.0000000 -0.7071075 0.7071062
v -0.1620000 -0.1770000 0.5400000
vn 0.0000000 -0.7071075 0.7071062
f 274/274/274 275/275/275 276/276/276
v 0.1700000 -0.1770000 0.5320000
vn 0.7071075 0.0000000 0.7071061
v 0.1700000 -0.1750000 0.5320000
vn 0.7071075 0.0000000 0.7071061
v 0.1620000 -0.1750000 0.5400000
vn 0.7071075 0.0000000 0.7071061
f 277/277/277 278/278/278 279/279/279
v 0.1700000 -0.1770000 0.5320000
vn 0.7071075 -0.0000000 0.7071061
v 0.1620000 -0.1750000 0.5400000
vn 0.7071075 -0.0000000 0.7071061
v 0.1620000 -0.1770000 0.5400000
vn 0.7071075 -0.0000000 0.7071061
f 280/280/280 281/281/281 282/282/282
v 0.1620000 -0.1670000 0.5320000
vn -0.0000000 0.7071075 0.7071062
v -0.1620000 -0.1670000 0.5320000
vn -0.0000000 0.7071075 0.7071062
v -0.1620000 -0.1750000 0.5400000
vn -0.0000000 0.7071075 0.7071062
f 283/283/283 284/284/284 285/285/285
v 0.1620000 -0.1670000 0.5320000
vn 0.0000000 0.7071075 0.7071062
v -0.1620000 -0.1750000 0.5400000
vn 0.0000000 0.7071075 0.7071062
v 0.1620000 -0.1750000 0.5400000
vn 0.0000000 0.7071075 0.7071062
f 286/286/286 287/287/287 288/288/288
v -0.1620000 -0.1850000 0.0980000
vn -0.7071068 -0.7071068 -0.0000000
v -0.1620000 -0.1850000 0.5320000
vn -0.7071068 -0.7071068 -0.0000000
v -0.1700000 -0.1770000 0.5320000
vn -0.7071068 -0.7071068 -0.0000000
f 289/289/289 290/290/290 291/291/291
v -0.1620000 -0.1850000 0.0980000
vn -0.7071068 -0.7071068 0.0000000
v -0.1700000 -0.1770000 0.5320000
vn -0.7071068 -0.7071068 0.0000000
v -0.1700000 -0.1770000 0.0980000
vn -0.7071068 -0.7071068 0.0000000
f 292/292/292 293/293/293 294/294/294
v 0.1700000 -0.1770000 0.0980000
vn 0.7071068 -0.7071068 0.0000000
v 0.1700000 -0.1770000 0.5320000
vn 0.7071068 -0.7071068 0.0000000
v 0.1620000 -0.1850000 0.5320000
vn 0.7071068 -0.7071068 0.0000000
f 295/295/295 296/296/296 297/297/297
v 0.1700000 -0.1770000 0.0980000
vn 0.7071068 -0.7071068 0.0000000
v 0.1620000 -0.1850000 0.5320000
vn 0.7071068 -0.7071068 0.0000000
v 0.1620000 -0.1850000 0.0980000
vn 0.7071068 -0.7071068 0.0000000
f 298/298/298 299/299/299 300/300/300
v 0.1620000 -0.1670000 0.0980000
vn 0.7071068 0.7071068 0.0000000
v 0.1620000 -0.1670000 0.5320000
vn 0.7071068 0.7071068 0.0000000
v 0.1700000 -0.1750000 0.5320000
vn 0.7071068 0.7071068 0.0000000
f 301/301/301 302/302/302 303/303/303
v 0.1620000 -0.1670000 0.0980000
vn 0.7071068 0.7071068 -0.0000000
v 0.1700000 -0.1750000 0.5320000
vn 0.7071068 0.7071068 -0.0000000
v 0.1700000 -0.1750000 0.0980000
vn 0.7071068 0.7071068 -0.0000000
f 304/304/304 305/305/305 306/306/306
v -0.1700000 -0.1750000 0.0980000
vn -0.7071068 0.7071068 0.0000000
v -0.1700000 -0.1750000 0.5320000
vn -0.7071068 0.7071068 0.0000000
v -0.1620000 -0.1670000 0.5320000
vn -0.7071068 0.7071068 0.0000000
f 307/307/307 308/308/308 309/309/309
v -0.1700000 -0.1750000 0.0980000
vn -0.7071068 0.7071068 0.0000000
v -0.1620000 -0.1670000 0.5320000
vn -0.7071068 0.7071068 0.0000000
v -0.1620000 -0.1670000 0.0980000
vn -0.7071068 0.7071068 0.0000000
f 310/310/310 311/311/311 312/312/312
v -0.1620000 -0.1850000 0.0980000
vn -0.0000000 -1.0000000 -0.0000000
v 0.1620000 -0.1850000 0.0980000
vn -0.0000000 -1.0000000 -0.0000000
v 0.1620000 -0.1850000 0.5320000
vn -0.0000000 -1.0000000 -0.0000000
f 313/313/313 314/314/314 315/315/315
v -0.1620000 -0.1850000 0.0980000
vn 0.0000000 -1.0000000 -0.0000000
v 0.1620000 -0.1850000 0.5320000
vn 0.0000000 -1.0000000 -0.0000000
v -0.1620000 -0.1850000 0.5320000
vn 0.0000000 -1.0000000 -0.0000000
f 316/316/316 317/317/317 318/318/318
v -0.1620000 -0.1770000 0.0900000
vn -0.0000000 -0.0000000 -0.9999999
v -0.1620000 -0.1750000 0.0900000
vn -0.0000000 -0.0000000 -0.9999999
v 0.1620000 -0.1750000 0.0900000
vn -0.0000000 -0.0000000 -0.9999999
f 319/319/319 320/320/320 321/321/321
v -0.1620000 -0.1770000 0.0900000
vn -0.0000000 0.0000000 -0.9999999
v 0.1620000 -0.1750000 0.0900000
vn -0.0000000 0.0000000 -0.9999999
v 0.1620000 -0.1770000 0.0900000
vn -0.0000000 0.0000000 -0.9999999
f 322/322/322 323/323/323 324/324/324
v -0.1700000 -0.1750000 0.0980000
vn -1.0000000 0.0000000 0.0000000
v -0.1700000 -0.1770000 0.0980000
vn -1.0000000 0.0000000 0.0000000
v -0.1700000 -0.1770000 0.5320000
vn -1.0000000 0.0000000 0.0000000
f 325/325/325 326/326/326 327/327/327
v -0.1700000 -0.1750000 0.0980000
vn -1.0000000 -0.0000000 -0.0000000
v -0.1700000 -0.1770000 0.5320000
vn -1.0000000 -0.0000000 -0.0000000
v -0.1700000 -0.1750000 0.5320000
vn -1.0000000 -0.0000000 -0.0000000
f 328/328/328 329/329/329 330/330/330
v 0.1700000 -0.1770000 0.0980000
vn 1.0000000 0.0000000 0.0000000
v 0.1700000 -0.1750000 0.0980000
vn 1.0000000 0.0000000 0.0000000
v 0.1700000 -0.1750000 0.5320000
vn 1.0000000 0.0000000 0.0000000
f 331/331/331 332/332/332 333/333/333
v 0.1700000 -0.1770000 0.0980000
vn 1.0000000 -0.0000000 0.0000000
v 0.1700000 -0.1750000 0.5320000
vn 1.0000000 -0.0000000 0.0000000
v 0.1700000 -0.1770000 0.5320000
vn 1.0000000 -0.0000000 0.0000000
f 334/334/334 335/335/335 336/336/336
v 0.1620000 -0.1670000 0.0980000
vn -0.0000000 1.0000000 0.0000000
v -0.1620000 -0.1670000 0.0980000
vn -0.0000000 1.0000000 0.0000000
v -0.1620000 -0.1670000 0.5320000
vn -0.0000000 1.0000000 0.0000000
f 337/337/337 338/338/338 339/339/339
v 0.1620000 -0.1670000 0.0980000
vn 0.0000000 1.0000000 0.0000000
v -0.1620000 -0.1670000 0.5320000
vn 0.0000000 1.0000000 0.0000000
v 0.1620000 -0.1670000 0.5320000
vn 0.0000000 1.0000000 0.0000000
f 340/340/340 341/341/341 342/342/342
v -0.1620000 -0.1770000 0.5400000
vn 0.0000000 0.0000000 0.9999999
v 0.1620000 -0.1770000 0.5400000
vn 0.0000000 0.0000000 0.9999999
v 0.1620000 -0.1750000 0.5400000
vn 0.0000000 0.0000000 0.9999999
f 343/343/343 344/344/344 345/345/345
v -0.1620000 -0.1770000 0.5400000
vn -0.0000000 0.0000000 0.9999999
v 0.1620000 -0.1750000 0.5400000
vn -0.0000000 0.0000000 0.9999999
v -0.1620000 -0.1750000 0.5400000
vn -0.0000000 0.0000000 0.9999999
f 346/346/346 347/347/347 348/348/348
o pz_mailbox_public_|_native_letter_flap_slot
usemtl UV_Base
v -0.1600000 -0.1990000 0.5900000
vn -0.5773500 -0.5773500 -0.5773508
v -0.1700000 -0.1890000 0.5900000
vn -0.5773500 -0.5773500 -0.5773508
v -0.1600000 -0.1890000 0.5800000
vn -0.5773500 -0.5773500 -0.5773508
f 349/349/349 350/350/350 351/351/351
v 0.1600000 -0.1990000 0.5900000
vn 0.5773500 -0.5773500 -0.5773508
v 0.1600000 -0.1890000 0.5800000
vn 0.5773500 -0.5773500 -0.5773508
v 0.1700000 -0.1890000 0.5900000
vn 0.5773500 -0.5773500 -0.5773508
f 352/352/352 353/353/353 354/354/354
v 0.1600000 -0.1710000 0.5900000
vn 0.5773500 0.5773500 -0.5773508
v 0.1700000 -0.1810000 0.5900000
vn 0.5773500 0.5773500 -0.5773508
v 0.1600000 -0.1810000 0.5800000
vn 0.5773500 0.5773500 -0.5773508
f 355/355/355 356/356/356 357/357/357
v -0.1700000 -0.1810000 0.5900000
vn -0.5773500 0.5773500 -0.5773508
v -0.1600000 -0.1710000 0.5900000
vn -0.5773500 0.5773500 -0.5773508
v -0.1600000 -0.1810000 0.5800000
vn -0.5773500 0.5773500 -0.5773508
f 358/358/358 359/359/359 360/360/360
v -0.1700000 -0.1890000 0.6700000
vn -0.5773500 -0.5773500 0.5773508
v -0.1600000 -0.1990000 0.6700000
vn -0.5773500 -0.5773500 0.5773508
v -0.1600000 -0.1890000 0.6800000
vn -0.5773500 -0.5773500 0.5773508
f 361/361/361 362/362/362 363/363/363
v 0.1600000 -0.1990000 0.6700000
vn 0.5773500 -0.5773500 0.5773508
v 0.1700000 -0.1890000 0.6700000
vn 0.5773500 -0.5773500 0.5773508
v 0.1600000 -0.1890000 0.6800000
vn 0.5773500 -0.5773500 0.5773508
f 364/364/364 365/365/365 366/366/366
v 0.1700000 -0.1810000 0.6700000
vn 0.5773500 0.5773500 0.5773508
v 0.1600000 -0.1710000 0.6700000
vn 0.5773500 0.5773500 0.5773508
v 0.1600000 -0.1810000 0.6800000
vn 0.5773500 0.5773500 0.5773508
f 367/367/367 368/368/368 369/369/369
v -0.1700000 -0.1810000 0.6700000
vn -0.5773500 0.5773500 0.5773508
v -0.1600000 -0.1810000 0.6800000
vn -0.5773500 0.5773500 0.5773508
v -0.1600000 -0.1710000 0.6700000
vn -0.5773500 0.5773500 0.5773508
f 370/370/370 371/371/371 372/372/372
v -0.1600000 -0.1890000 0.5800000
vn -0.0000000 -0.7071063 -0.7071073
v 0.1600000 -0.1890000 0.5800000
vn -0.0000000 -0.7071063 -0.7071073
v 0.1600000 -0.1990000 0.5900000
vn -0.0000000 -0.7071063 -0.7071073
f 373/373/373 374/374/374 375/375/375
v -0.1600000 -0.1890000 0.5800000
vn 0.0000000 -0.7071063 -0.7071073
v 0.1600000 -0.1990000 0.5900000
vn 0.0000000 -0.7071063 -0.7071073
v -0.1600000 -0.1990000 0.5900000
vn 0.0000000 -0.7071063 -0.7071073
f 376/376/376 377/377/377 378/378/378
v -0.1700000 -0.1890000 0.5900000
vn -0.7071063 -0.0000000 -0.7071074
v -0.1700000 -0.1810000 0.5900000
vn -0.7071063 -0.0000000 -0.7071074
v -0.1600000 -0.1810000 0.5800000
vn -0.7071063 -0.0000000 -0.7071074
f 379/379/379 380/380/380 381/381/381
v -0.1700000 -0.1890000 0.5900000
vn -0.7071063 0.0000000 -0.7071074
v -0.1600000 -0.1810000 0.5800000
vn -0.7071063 0.0000000 -0.7071074
v -0.1600000 -0.1890000 0.5800000
vn -0.7071063 0.0000000 -0.7071074
f 382/382/382 383/383/383 384/384/384
v 0.1600000 -0.1810000 0.5800000
vn 0.0000000 0.7071063 -0.7071073
v -0.1600000 -0.1810000 0.5800000
vn 0.0000000 0.7071063 -0.7071073
v -0.1600000 -0.1710000 0.5900000
vn 0.0000000 0.7071063 -0.7071073
f 385/385/385 386/386/386 387/387/387
v 0.1600000 -0.1810000 0.5800000
vn 0.0000000 0.7071063 -0.7071073
v -0.1600000 -0.1710000 0.5900000
vn 0.0000000 0.7071063 -0.7071073
v 0.1600000 -0.1710000 0.5900000
vn 0.0000000 0.7071063 -0.7071073
f 388/388/388 389/389/389 390/390/390
v 0.1600000 -0.1890000 0.5800000
vn 0.7071063 0.0000000 -0.7071074
v 0.1600000 -0.1810000 0.5800000
vn 0.7071063 0.0000000 -0.7071074
v 0.1700000 -0.1810000 0.5900000
vn 0.7071063 0.0000000 -0.7071074
f 391/391/391 392/392/392 393/393/393
v 0.1600000 -0.1890000 0.5800000
vn 0.7071063 0.0000000 -0.7071074
v 0.1700000 -0.1810000 0.5900000
vn 0.7071063 0.0000000 -0.7071074
v 0.1700000 -0.1890000 0.5900000
vn 0.7071063 0.0000000 -0.7071074
f 394/394/394 395/395/395 396/396/396
v -0.1600000 -0.1890000 0.6800000
vn -0.7071063 0.0000000 0.7071074
v -0.1600000 -0.1810000 0.6800000
vn -0.7071063 0.0000000 0.7071074
v -0.1700000 -0.1810000 0.6700000
vn -0.7071063 0.0000000 0.7071074
f 397/397/397 398/398/398 399/399/399
v -0.1600000 -0.1890000 0.6800000
vn -0.7071063 0.0000000 0.7071074
v -0.1700000 -0.1810000 0.6700000
vn -0.7071063 0.0000000 0.7071074
v -0.1700000 -0.1890000 0.6700000
vn -0.7071063 0.0000000 0.7071074
f 400/400/400 401/401/401 402/402/402
v -0.1600000 -0.1990000 0.6700000
vn 0.0000000 -0.7071063 0.7071073
v 0.1600000 -0.1990000 0.6700000
vn 0.0000000 -0.7071063 0.7071073
v 0.1600000 -0.1890000 0.6800000
vn 0.0000000 -0.7071063 0.7071073
f 403/403/403 404/404/404 405/405/405
v -0.1600000 -0.1990000 0.6700000
vn 0.0000000 -0.7071063 0.7071073
v 0.1600000 -0.1890000 0.6800000
vn 0.0000000 -0.7071063 0.7071073
v -0.1600000 -0.1890000 0.6800000
vn 0.0000000 -0.7071063 0.7071073
f 406/406/406 407/407/407 408/408/408
v 0.1700000 -0.1890000 0.6700000
vn 0.7071063 0.0000000 0.7071074
v 0.1700000 -0.1810000 0.6700000
vn 0.7071063 0.0000000 0.7071074
v 0.1600000 -0.1810000 0.6800000
vn 0.7071063 0.0000000 0.7071074
f 409/409/409 410/410/410 411/411/411
v 0.1700000 -0.1890000 0.6700000
vn 0.7071063 -0.0000000 0.7071074
v 0.1600000 -0.1810000 0.6800000
vn 0.7071063 -0.0000000 0.7071074
v 0.1600000 -0.1890000 0.6800000
vn 0.7071063 -0.0000000 0.7071074
f 412/412/412 413/413/413 414/414/414
v 0.1600000 -0.1710000 0.6700000
vn -0.0000000 0.7071063 0.7071073
v -0.1600000 -0.1710000 0.6700000
vn -0.0000000 0.7071063 0.7071073
v -0.1600000 -0.1810000 0.6800000
vn -0.0000000 0.7071063 0.7071073
f 415/415/415 416/416/416 417/417/417
v 0.1600000 -0.1710000 0.6700000
vn 0.0000000 0.7071063 0.7071073
v -0.1600000 -0.1810000 0.6800000
vn 0.0000000 0.7071063 0.7071073
v 0.1600000 -0.1810000 0.6800000
vn 0.0000000 0.7071063 0.7071073
f 418/418/418 419/419/419 420/420/420
v -0.1600000 -0.1990000 0.5900000
vn -0.7071068 -0.7071068 -0.0000000
v -0.1600000 -0.1990000 0.6700000
vn -0.7071068 -0.7071068 -0.0000000
v -0.1700000 -0.1890000 0.6700000
vn -0.7071068 -0.7071068 -0.0000000
f 421/421/421 422/422/422 423/423/423
v -0.1600000 -0.1990000 0.5900000
vn -0.7071068 -0.7071068 0.0000000
v -0.1700000 -0.1890000 0.6700000
vn -0.7071068 -0.7071068 0.0000000
v -0.1700000 -0.1890000 0.5900000
vn -0.7071068 -0.7071068 0.0000000
f 424/424/424 425/425/425 426/426/426
v 0.1700000 -0.1890000 0.5900000
vn 0.7071068 -0.7071068 0.0000000
v 0.1700000 -0.1890000 0.6700000
vn 0.7071068 -0.7071068 0.0000000
v 0.1600000 -0.1990000 0.6700000
vn 0.7071068 -0.7071068 0.0000000
f 427/427/427 428/428/428 429/429/429
v 0.1700000 -0.1890000 0.5900000
vn 0.7071068 -0.7071068 0.0000000
v 0.1600000 -0.1990000 0.6700000
vn 0.7071068 -0.7071068 0.0000000
v 0.1600000 -0.1990000 0.5900000
vn 0.7071068 -0.7071068 0.0000000
f 430/430/430 431/431/431 432/432/432
v 0.1600000 -0.1710000 0.5900000
vn 0.7071068 0.7071068 0.0000000
v 0.1600000 -0.1710000 0.6700000
vn 0.7071068 0.7071068 0.0000000
v 0.1700000 -0.1810000 0.6700000
vn 0.7071068 0.7071068 0.0000000
f 433/433/433 434/434/434 435/435/435
v 0.1600000 -0.1710000 0.5900000
vn 0.7071068 0.7071068 -0.0000000
v 0.1700000 -0.1810000 0.6700000
vn 0.7071068 0.7071068 -0.0000000
v 0.1700000 -0.1810000 0.5900000
vn 0.7071068 0.7071068 -0.0000000
f 436/436/436 437/437/437 438/438/438
v -0.1700000 -0.1810000 0.5900000
vn -0.7071068 0.7071068 0.0000000
v -0.1700000 -0.1810000 0.6700000
vn -0.7071068 0.7071068 0.0000000
v -0.1600000 -0.1710000 0.6700000
vn -0.7071068 0.7071068 0.0000000
f 439/439/439 440/440/440 441/441/441
v -0.1700000 -0.1810000 0.5900000
vn -0.7071068 0.7071068 0.0000000
v -0.1600000 -0.1710000 0.6700000
vn -0.7071068 0.7071068 0.0000000
v -0.1600000 -0.1710000 0.5900000
vn -0.7071068 0.7071068 0.0000000
f 442/442/442 443/443/443 444/444/444
v -0.1600000 -0.1990000 0.5900000
vn -0.0000000 -1.0000000 -0.0000000
v 0.1600000 -0.1990000 0.5900000
vn -0.0000000 -1.0000000 -0.0000000
v 0.1600000 -0.1990000 0.6700000
vn -0.0000000 -1.0000000 -0.0000000
f 445/445/445 446/446/446 447/447/447
v -0.1600000 -0.1990000 0.5900000
vn 0.0000000 -1.0000000 -0.0000000
v 0.1600000 -0.1990000 0.6700000
vn 0.0000000 -1.0000000 -0.0000000
v -0.1600000 -0.1990000 0.6700000
vn 0.0000000 -1.0000000 -0.0000000
f 448/448/448 449/449/449 450/450/450
v -0.1600000 -0.1890000 0.5800000
vn -0.0000000 -0.0000000 -0.9999999
v -0.1600000 -0.1810000 0.5800000
vn -0.0000000 -0.0000000 -0.9999999
v 0.1600000 -0.1810000 0.5800000
vn -0.0000000 -0.0000000 -0.9999999
f 451/451/451 452/452/452 453/453/453
v -0.1600000 -0.1890000 0.5800000
vn -0.0000000 0.0000000 -0.9999999
v 0.1600000 -0.1810000 0.5800000
vn -0.0000000 0.0000000 -0.9999999
v 0.1600000 -0.1890000 0.5800000
vn -0.0000000 0.0000000 -0.9999999
f 454/454/454 455/455/455 456/456/456
v -0.1700000 -0.1810000 0.5900000
vn -0.9999999 0.0000000 0.0000000
v -0.1700000 -0.1890000 0.5900000
vn -0.9999999 0.0000000 0.0000000
v -0.1700000 -0.1890000 0.6700000
vn -0.9999999 0.0000000 0.0000000
f 457/457/457 458/458/458 459/459/459
v -0.1700000 -0.1810000 0.5900000
vn -0.9999999 -0.0000000 -0.0000000
v -0.1700000 -0.1890000 0.6700000
vn -0.9999999 -0.0000000 -0.0000000
v -0.1700000 -0.1810000 0.6700000
vn -0.9999999 -0.0000000 -0.0000000
f 460/460/460 461/461/461 462/462/462
v 0.1700000 -0.1890000 0.5900000
vn 0.9999999 0.0000000 0.0000000
v 0.1700000 -0.1810000 0.5900000
vn 0.9999999 0.0000000 0.0000000
v 0.1700000 -0.1810000 0.6700000
vn 0.9999999 0.0000000 0.0000000
f 463/463/463 464/464/464 465/465/465
v 0.1700000 -0.1890000 0.5900000
vn 0.9999999 -0.0000000 0.0000000
v 0.1700000 -0.1810000 0.6700000
vn 0.9999999 -0.0000000 0.0000000
v 0.1700000 -0.1890000 0.6700000
vn 0.9999999 -0.0000000 0.0000000
f 466/466/466 467/467/467 468/468/468
v 0.1600000 -0.1710000 0.5900000
vn -0.0000000 1.0000000 0.0000000
v -0.1600000 -0.1710000 0.5900000
vn -0.0000000 1.0000000 0.0000000
v -0.1600000 -0.1710000 0.6700000
vn -0.0000000 1.0000000 0.0000000
f 469/469/469 470/470/470 471/471/471
v 0.1600000 -0.1710000 0.5900000
vn 0.0000000 1.0000000 0.0000000
v -0.1600000 -0.1710000 0.6700000
vn 0.0000000 1.0000000 0.0000000
v 0.1600000 -0.1710000 0.6700000
vn 0.0000000 1.0000000 0.0000000
f 472/472/472 473/473/473 474/474/474
v -0.1600000 -0.1890000 0.6800000
vn 0.0000000 0.0000000 0.9999999
v 0.1600000 -0.1890000 0.6800000
vn 0.0000000 0.0000000 0.9999999
v 0.1600000 -0.1810000 0.6800000
vn 0.0000000 0.0000000 0.9999999
f 475/475/475 476/476/476 477/477/477
v -0.1600000 -0.1890000 0.6800000
vn -0.0000000 0.0000000 0.9999999
v 0.1600000 -0.1810000 0.6800000
vn -0.0000000 0.0000000 0.9999999
v -0.1600000 -0.1810000 0.6800000
vn -0.0000000 0.0000000 0.9999999
f 478/478/478 479/479/479 480/480/480
o pz_mailbox_public_|_front_mail_label
usemtl UV_Base
v -0.0700000 -0.2020000 0.7100000
vn -0.0000000 -0.0000000 -1.0000000
v -0.0700000 -0.1870000 0.7100000
vn -0.0000000 -0.0000000 -1.0000000
v 0.0700000 -0.1870000 0.7100000
vn -0.0000000 -0.0000000 -1.0000000
f 481/481/481 482/482/482 483/483/483
v -0.0700000 -0.2020000 0.7100000
vn -0.0000000 0.0000000 -1.0000000
v 0.0700000 -0.1870000 0.7100000
vn -0.0000000 0.0000000 -1.0000000
v 0.0700000 -0.2020000 0.7100000
vn -0.0000000 0.0000000 -1.0000000
f 484/484/484 485/485/485 486/486/486
v -0.0700000 -0.2020000 0.7800000
vn 0.0000000 0.0000000 1.0000000
v 0.0700000 -0.2020000 0.7800000
vn 0.0000000 0.0000000 1.0000000
v 0.0700000 -0.1870000 0.7800000
vn 0.0000000 0.0000000 1.0000000
f 487/487/487 488/488/488 489/489/489
v -0.0700000 -0.2020000 0.7800000
vn -0.0000000 0.0000000 1.0000000
v 0.0700000 -0.1870000 0.7800000
vn -0.0000000 0.0000000 1.0000000
v -0.0700000 -0.1870000 0.7800000
vn -0.0000000 0.0000000 1.0000000
f 490/490/490 491/491/491 492/492/492
v -0.0700000 -0.2020000 0.7100000
vn -0.0000000 -1.0000000 -0.0000000
v 0.0700000 -0.2020000 0.7100000
vn -0.0000000 -1.0000000 -0.0000000
v 0.0700000 -0.2020000 0.7800000
vn -0.0000000 -1.0000000 -0.0000000
f 493/493/493 494/494/494 495/495/495
v -0.0700000 -0.2020000 0.7100000
vn 0.0000000 -1.0000000 -0.0000000
v 0.0700000 -0.2020000 0.7800000
vn 0.0000000 -1.0000000 -0.0000000
v -0.0700000 -0.2020000 0.7800000
vn 0.0000000 -1.0000000 -0.0000000
f 496/496/496 497/497/497 498/498/498
v 0.0700000 -0.2020000 0.7100000
vn 1.0000000 0.0000000 0.0000000
v 0.0700000 -0.1870000 0.7100000
vn 1.0000000 0.0000000 0.0000000
v 0.0700000 -0.1870000 0.7800000
vn 1.0000000 0.0000000 0.0000000
f 499/499/499 500/500/500 501/501/501
v 0.0700000 -0.2020000 0.7100000
vn 1.0000000 -0.0000000 0.0000000
v 0.0700000 -0.1870000 0.7800000
vn 1.0000000 -0.0000000 0.0000000
v 0.0700000 -0.2020000 0.7800000
vn 1.0000000 -0.0000000 0.0000000
f 502/502/502 503/503/503 504/504/504
v 0.0700000 -0.1870000 0.7100000
vn -0.0000000 1.0000000 0.0000000
v -0.0700000 -0.1870000 0.7100000
vn -0.0000000 1.0000000 0.0000000
v -0.0700000 -0.1870000 0.7800000
vn -0.0000000 1.0000000 0.0000000
f 505/505/505 506/506/506 507/507/507
v 0.0700000 -0.1870000 0.7100000
vn 0.0000000 1.0000000 0.0000000
v -0.0700000 -0.1870000 0.7800000
vn 0.0000000 1.0000000 0.0000000
v 0.0700000 -0.1870000 0.7800000
vn 0.0000000 1.0000000 0.0000000
f 508/508/508 509/509/509 510/510/510
v -0.0700000 -0.1870000 0.7100000
vn -1.0000000 0.0000000 0.0000000
v -0.0700000 -0.2020000 0.7100000
vn -1.0000000 0.0000000 0.0000000
v -0.0700000 -0.2020000 0.7800000
vn -1.0000000 0.0000000 0.0000000
f 511/511/511 512/512/512 513/513/513
v -0.0700000 -0.1870000 0.7100000
vn -1.0000000 -0.0000000 -0.0000000
v -0.0700000 -0.2020000 0.7800000
vn -1.0000000 -0.0000000 -0.0000000
v -0.0700000 -0.1870000 0.7800000
vn -1.0000000 -0.0000000 -0.0000000
f 514/514/514 515/515/515 516/516/516
o pz_mailbox_public_|_door_lock
usemtl UV_Base
v 0.1380000 -0.1940000 0.2000000
vn 0.0000000 1.0000000 0.0000000
v 0.1369282 -0.1940000 0.1960000
vn 0.0000000 1.0000000 0.0000000
v 0.1340000 -0.1940000 0.1930718
vn 0.0000000 1.0000000 0.0000000
f 517/517/517 518/518/518 519/519/519
v 0.1340000 -0.1940000 0.1930718
vn -0.0000000 1.0000000 0.0000000
v 0.1300000 -0.1940000 0.1920000
vn -0.0000000 1.0000000 0.0000000
v 0.1260000 -0.1940000 0.1930718
vn -0.0000000 1.0000000 0.0000000
f 520/520/520 521/521/521 522/522/522
v 0.1260000 -0.1940000 0.1930718
vn 0.0000000 1.0000000 0.0000000
v 0.1230718 -0.1940000 0.1960000
vn 0.0000000 1.0000000 0.0000000
v 0.1220000 -0.1940000 0.2000000
vn 0.0000000 1.0000000 0.0000000
f 523/523/523 524/524/524 525/525/525
v 0.1220000 -0.1940000 0.2000000
vn 0.0000000 1.0000000 0.0000000
v 0.1230718 -0.1940000 0.2040000
vn 0.0000000 1.0000000 0.0000000
v 0.1260000 -0.1940000 0.2069282
vn 0.0000000 1.0000000 0.0000000
f 526/526/526 527/527/527 528/528/528
v 0.1260000 -0.1940000 0.2069282
vn 0.0000000 1.0000000 0.0000000
v 0.1300000 -0.1940000 0.2080000
vn 0.0000000 1.0000000 0.0000000
v 0.1340000 -0.1940000 0.2069282
vn 0.0000000 1.0000000 0.0000000
f 529/529/529 530/530/530 531/531/531
v 0.1340000 -0.1940000 0.2069282
vn 0.0000000 1.0000000 0.0000000
v 0.1369282 -0.1940000 0.2040000
vn 0.0000000 1.0000000 0.0000000
v 0.1380000 -0.1940000 0.2000000
vn 0.0000000 1.0000000 0.0000000
f 532/532/532 533/533/533 534/534/534
v 0.1380000 -0.1940000 0.2000000
vn 0.0000000 1.0000000 0.0000000
v 0.1340000 -0.1940000 0.1930718
vn 0.0000000 1.0000000 0.0000000
v 0.1260000 -0.1940000 0.1930718
vn 0.0000000 1.0000000 0.0000000
f 535/535/535 536/536/536 537/537/537
v 0.1260000 -0.1940000 0.1930718
vn 0.0000000 0.9999999 0.0000000
v 0.1220000 -0.1940000 0.2000000
vn 0.0000000 0.9999999 0.0000000
v 0.1260000 -0.1940000 0.2069282
vn 0.0000000 0.9999999 0.0000000
f 538/538/538 539/539/539 540/540/540
v 0.1260000 -0.1940000 0.2069282
vn 0.0000000 1.0000000 0.0000000
v 0.1340000 -0.1940000 0.2069282
vn 0.0000000 1.0000000 0.0000000
v 0.1380000 -0.1940000 0.2000000
vn 0.0000000 1.0000000 0.0000000
f 541/541/541 542/542/542 543/543/543
v 0.1260000 -0.1940000 0.1930718
vn 0.0000000 1.0000000 0.0000000
v 0.1260000 -0.1940000 0.2069282
vn 0.0000000 1.0000000 0.0000000
v 0.1380000 -0.1940000 0.2000000
vn 0.0000000 1.0000000 0.0000000
f 544/544/544 545/545/545 546/546/546
v 0.1369282 -0.2040000 0.1960000
vn 0.0000000 -1.0000000 -0.0000000
v 0.1380000 -0.2040000 0.2000000
vn 0.0000000 -1.0000000 -0.0000000
v 0.1369282 -0.2040000 0.2040000
vn 0.0000000 -1.0000000 -0.0000000
f 547/547/547 548/548/548 549/549/549
v 0.1369282 -0.2040000 0.2040000
vn 0.0000000 -1.0000000 0.0000000
v 0.1340000 -0.2040000 0.2069282
vn 0.0000000 -1.0000000 0.0000000
v 0.1300000 -0.2040000 0.2080000
vn 0.0000000 -1.0000000 0.0000000
f 550/550/550 551/551/551 552/552/552
v 0.1300000 -0.2040000 0.2080000
vn 0.0000000 -1.0000000 0.0000000
v 0.1260000 -0.2040000 0.2069282
vn 0.0000000 -1.0000000 0.0000000
v 0.1230718 -0.2040000 0.2040000
vn 0.0000000 -1.0000000 0.0000000
f 553/553/553 554/554/554 555/555/555
v 0.1230718 -0.2040000 0.2040000
vn 0.0000000 -1.0000000 0.0000000
v 0.1220000 -0.2040000 0.2000000
vn 0.0000000 -1.0000000 0.0000000
v 0.1230718 -0.2040000 0.1960000
vn 0.0000000 -1.0000000 0.0000000
f 556/556/556 557/557/557 558/558/558
v 0.1230718 -0.2040000 0.1960000
vn 0.0000000 -1.0000000 0.0000000
v 0.1260000 -0.2040000 0.1930718
vn 0.0000000 -1.0000000 0.0000000
v 0.1300000 -0.2040000 0.1920000
vn 0.0000000 -1.0000000 0.0000000
f 559/559/559 560/560/560 561/561/561
v 0.1300000 -0.2040000 0.1920000
vn 0.0000000 -1.0000000 0.0000000
v 0.1340000 -0.2040000 0.1930718
vn 0.0000000 -1.0000000 0.0000000
v 0.1369282 -0.2040000 0.1960000
vn 0.0000000 -1.0000000 0.0000000
f 562/562/562 563/563/563 564/564/564
v 0.1369282 -0.2040000 0.1960000
vn 0.0000000 -1.0000000 0.0000000
v 0.1369282 -0.2040000 0.2040000
vn 0.0000000 -1.0000000 0.0000000
v 0.1300000 -0.2040000 0.2080000
vn 0.0000000 -1.0000000 0.0000000
f 565/565/565 566/566/566 567/567/567
v 0.1300000 -0.2040000 0.2080000
vn 0.0000000 -1.0000000 0.0000000
v 0.1230718 -0.2040000 0.2040000
vn 0.0000000 -1.0000000 0.0000000
v 0.1230718 -0.2040000 0.1960000
vn 0.0000000 -1.0000000 0.0000000
f 568/568/568 569/569/569 570/570/570
v 0.1230718 -0.2040000 0.1960000
vn -0.0000000 -0.9999999 0.0000000
v 0.1300000 -0.2040000 0.1920000
vn -0.0000000 -0.9999999 0.0000000
v 0.1369282 -0.2040000 0.1960000
vn -0.0000000 -0.9999999 0.0000000
f 571/571/571 572/572/572 573/573/573
v 0.1300000 -0.2040000 0.2080000
vn 0.0000000 -1.0000000 0.0000000
v 0.1230718 -0.2040000 0.1960000
vn 0.0000000 -1.0000000 0.0000000
v 0.1369282 -0.2040000 0.1960000
vn 0.0000000 -1.0000000 0.0000000
f 574/574/574 575/575/575 576/576/576
v 0.1380000 -0.1940000 0.2000000
vn 0.9659258 -0.0000000 0.2588193
v 0.1369282 -0.1940000 0.2040000
vn 0.9659258 -0.0000000 0.2588193
v 0.1369282 -0.2040000 0.2040000
vn 0.9659258 -0.0000000 0.2588193
f 577/577/577 578/578/578 579/579/579
v 0.1380000 -0.1940000 0.2000000
vn 0.9659258 0.0000000 0.2588193
v 0.1369282 -0.2040000 0.2040000
vn 0.9659258 0.0000000 0.2588193
v 0.1380000 -0.2040000 0.2000000
vn 0.9659258 0.0000000 0.2588193
f 580/580/580 581/581/581 582/582/582
v 0.1369282 -0.1940000 0.2040000
vn 0.7071068 -0.0000000 0.7071068
v 0.1340000 -0.1940000 0.2069282
vn 0.7071068 -0.0000000 0.7071068
v 0.1340000 -0.2040000 0.2069282
vn 0.7071068 -0.0000000 0.7071068
f 583/583/583 584/584/584 585/585/585
v 0.1369282 -0.1940000 0.2040000
vn 0.7071068 0.0000000 0.7071068
v 0.1340000 -0.2040000 0.2069282
vn 0.7071068 0.0000000 0.7071068
v 0.1369282 -0.2040000 0.2040000
vn 0.7071068 0.0000000 0.7071068
f 586/586/586 587/587/587 588/588/588
v 0.1340000 -0.1940000 0.2069282
vn 0.2588193 -0.0000000 0.9659258
v 0.1300000 -0.1940000 0.2080000
vn 0.2588193 -0.0000000 0.9659258
v 0.1300000 -0.2040000 0.2080000
vn 0.2588193 -0.0000000 0.9659258
f 589/589/589 590/590/590 591/591/591
v 0.1340000 -0.1940000 0.2069282
vn 0.2588193 0.0000000 0.9659258
v 0.1300000 -0.2040000 0.2080000
vn 0.2588193 0.0000000 0.9659258
v 0.1340000 -0.2040000 0.2069282
vn 0.2588193 0.0000000 0.9659258
f 592/592/592 593/593/593 594/594/594
v 0.1300000 -0.1940000 0.2080000
vn -0.2588193 0.0000000 0.9659258
v 0.1260000 -0.1940000 0.2069282
vn -0.2588193 0.0000000 0.9659258
v 0.1260000 -0.2040000 0.2069282
vn -0.2588193 0.0000000 0.9659258
f 595/595/595 596/596/596 597/597/597
v 0.1300000 -0.1940000 0.2080000
vn -0.2588193 0.0000000 0.9659258
v 0.1260000 -0.2040000 0.2069282
vn -0.2588193 0.0000000 0.9659258
v 0.1300000 -0.2040000 0.2080000
vn -0.2588193 0.0000000 0.9659258
f 598/598/598 599/599/599 600/600/600
v 0.1260000 -0.1940000 0.2069282
vn -0.7071068 0.0000000 0.7071068
v 0.1230718 -0.1940000 0.2040000
vn -0.7071068 0.0000000 0.7071068
v 0.1230718 -0.2040000 0.2040000
vn -0.7071068 0.0000000 0.7071068
f 601/601/601 602/602/602 603/603/603
v 0.1260000 -0.1940000 0.2069282
vn -0.7071068 0.0000000 0.7071068
v 0.1230718 -0.2040000 0.2040000
vn -0.7071068 0.0000000 0.7071068
v 0.1260000 -0.2040000 0.2069282
vn -0.7071068 0.0000000 0.7071068
f 604/604/604 605/605/605 606/606/606
v 0.1230718 -0.1940000 0.2040000
vn -0.9659258 0.0000000 0.2588193
v 0.1220000 -0.1940000 0.2000000
vn -0.9659258 0.0000000 0.2588193
v 0.1220000 -0.2040000 0.2000000
vn -0.9659258 0.0000000 0.2588193
f 607/607/607 608/608/608 609/609/609
v 0.1230718 -0.1940000 0.2040000
vn -0.9659258 0.0000000 0.2588193
v 0.1220000 -0.2040000 0.2000000
vn -0.9659258 0.0000000 0.2588193
v 0.1230718 -0.2040000 0.2040000
vn -0.9659258 0.0000000 0.2588193
f 610/610/610 611/611/611 612/612/612
v 0.1220000 -0.1940000 0.2000000
vn -0.9659258 0.0000000 -0.2588193
v 0.1230718 -0.1940000 0.1960000
vn -0.9659258 0.0000000 -0.2588193
v 0.1230718 -0.2040000 0.1960000
vn -0.9659258 0.0000000 -0.2588193
f 613/613/613 614/614/614 615/615/615
v 0.1220000 -0.1940000 0.2000000
vn -0.9659258 0.0000000 -0.2588193
v 0.1230718 -0.2040000 0.1960000
vn -0.9659258 0.0000000 -0.2588193
v 0.1220000 -0.2040000 0.2000000
vn -0.9659258 0.0000000 -0.2588193
f 616/616/616 617/617/617 618/618/618
v 0.1230718 -0.1940000 0.1960000
vn -0.7071068 0.0000000 -0.7071068
v 0.1260000 -0.1940000 0.1930718
vn -0.7071068 0.0000000 -0.7071068
v 0.1260000 -0.2040000 0.1930718
vn -0.7071068 0.0000000 -0.7071068
f 619/619/619 620/620/620 621/621/621
v 0.1230718 -0.1940000 0.1960000
vn -0.7071068 0.0000000 -0.7071068
v 0.1260000 -0.2040000 0.1930718
vn -0.7071068 0.0000000 -0.7071068
v 0.1230718 -0.2040000 0.1960000
vn -0.7071068 0.0000000 -0.7071068
f 622/622/622 623/623/623 624/624/624
v 0.1260000 -0.1940000 0.1930718
vn -0.2588193 0.0000000 -0.9659258
v 0.1300000 -0.1940000 0.1920000
vn -0.2588193 0.0000000 -0.9659258
v 0.1300000 -0.2040000 0.1920000
vn -0.2588193 0.0000000 -0.9659258
f 625/625/625 626/626/626 627/627/627
v 0.1260000 -0.1940000 0.1930718
vn -0.2588193 0.0000000 -0.9659258
v 0.1300000 -0.2040000 0.1920000
vn -0.2588193 0.0000000 -0.9659258
v 0.1260000 -0.2040000 0.1930718
vn -0.2588193 0.0000000 -0.9659258
f 628/628/628 629/629/629 630/630/630
v 0.1300000 -0.1940000 0.1920000
vn 0.2588193 0.0000000 -0.9659258
v 0.1340000 -0.1940000 0.1930718
vn 0.2588193 0.0000000 -0.9659258
v 0.1340000 -0.2040000 0.1930718
vn 0.2588193 0.0000000 -0.9659258
f 631/631/631 632/632/632 633/633/633
v 0.1300000 -0.1940000 0.1920000
vn 0.2588193 0.0000000 -0.9659258
v 0.1340000 -0.2040000 0.1930718
vn 0.2588193 0.0000000 -0.9659258
v 0.1300000 -0.2040000 0.1920000
vn 0.2588193 0.0000000 -0.9659258
f 634/634/634 635/635/635 636/636/636
v 0.1340000 -0.1940000 0.1930718
vn 0.7071068 0.0000000 -0.7071068
v 0.1369282 -0.1940000 0.1960000
vn 0.7071068 0.0000000 -0.7071068
v 0.1369282 -0.2040000 0.1960000
vn 0.7071068 0.0000000 -0.7071068
f 637/637/637 638/638/638 639/639/639
v 0.1340000 -0.1940000 0.1930718
vn 0.7071068 0.0000000 -0.7071068
v 0.1369282 -0.2040000 0.1960000
vn 0.7071068 0.0000000 -0.7071068
v 0.1340000 -0.2040000 0.1930718
vn 0.7071068 0.0000000 -0.7071068
f 640/640/640 641/641/641 642/642/642
v 0.1369282 -0.1940000 0.1960000
vn 0.9659258 0.0000000 -0.2588193
v 0.1380000 -0.1940000 0.2000000
vn 0.9659258 0.0000000 -0.2588193
v 0.1380000 -0.2040000 0.2000000
vn 0.9659258 0.0000000 -0.2588193
f 643/643/643 644/644/644 645/645/645
v 0.1369282 -0.1940000 0.1960000
vn 0.9659258 0.0000000 -0.2588193
v 0.1380000 -0.2040000 0.2000000
vn 0.9659258 0.0000000 -0.2588193
v 0.1369282 -0.2040000 0.1960000
vn 0.9659258 0.0000000 -0.2588193
f 646/646/646 647/647/647 648/648/648
