# G009-r3: solid simple pot; native PNG foliage, no leaf/stem geometry.
mtllib ../Materials/pz_plant_native_35.mtl
usemtl UV_Base
o pot_soil_and_rim
v 0.08610000 0.00000000 0.01000000
vn 0.00000000 0.00000000 -0.99999994
v 0.06088189 -0.06088189 0.01000000
vn 0.00000000 0.00000000 -0.99999994
v -0.00000000 -0.08610000 0.01000000
vn 0.00000000 0.00000000 -0.99999994
vt 0.302500000 0.842656250
vt 0.259344008 0.946844008
vt 0.155156250 0.990000000
vt 0.155156250 0.990000000
vt 0.050968492 0.946844008
vt 0.007812500 0.842656250
vt 0.007812500 0.842656250
vt 0.050968492 0.738468492
vt 0.155156250 0.695312500
vt 0.155156250 0.695312500
vt 0.259344008 0.738468492
vt 0.302500000 0.842656250
vt 0.302500000 0.842656250
vt 0.155156250 0.990000000
vt 0.007812500 0.842656250
vt 0.007812500 0.842656250
vt 0.155156250 0.695312500
vt 0.302500000 0.842656250
vt 0.543097551 0.733536378
vt 0.581321429 0.825816964
vt 0.543097551 0.918097551
vt 0.543097551 0.918097551
vt 0.450816964 0.956321429
vt 0.358536378 0.918097551
vt 0.358536378 0.918097551
vt 0.320312500 0.825816964
vt 0.358536378 0.733536378
vt 0.358536378 0.733536378
vt 0.450816964 0.695312500
vt 0.543097551 0.733536378
vt 0.543097551 0.733536378
vt 0.543097551 0.918097551
vt 0.358536378 0.918097551
vt 0.358536378 0.918097551
vt 0.358536378 0.733536378
vt 0.543097551 0.733536378
vt 0.398288062 0.007812500
vt 0.511060083 0.007812500
vt 0.523437500 0.334331514
vt 0.398288062 0.007812500
vt 0.523437500 0.334331514
vt 0.385910643 0.334331513
vt 0.554538061 0.007812500
vt 0.667310081 0.007812500
vt 0.679687500 0.334331513
vt 0.554538061 0.007812500
vt 0.679687500 0.334331513
vt 0.542160643 0.334331514
vt 0.710788062 0.007812500
vt 0.823560083 0.007812500
vt 0.835937500 0.334331514
vt 0.710788062 0.007812500
vt 0.835937500 0.334331514
vt 0.698410643 0.334331513
vt 0.867038061 0.007812500
vt 0.979810081 0.007812500
vt 0.992187500 0.334331513
vt 0.867038061 0.007812500
vt 0.992187500 0.334331513
vt 0.854660643 0.334331514
vt 0.007812500 0.507961938
vt 0.007812500 0.395189917
vt 0.334331514 0.382812500
vt 0.007812500 0.507961938
vt 0.334331514 0.382812500
vt 0.334331513 0.520339357
vt 0.351562500 0.507961939
vt 0.351562500 0.395189919
vt 0.678081513 0.382812500
vt 0.351562500 0.507961939
vt 0.678081513 0.382812500
vt 0.678081514 0.520339357
vt 0.007812500 0.664211938
vt 0.007812500 0.551439917
vt 0.334331514 0.539062500
vt 0.007812500 0.664211938
vt 0.334331514 0.539062500
vt 0.334331513 0.676589357
vt 0.351562500 0.664211939
vt 0.351562500 0.551439919
vt 0.678081513 0.539062500
vt 0.351562500 0.664211939
vt 0.678081513 0.539062500
vt 0.678081514 0.676589357
vt 0.367187500 0.187500000
vt 0.314558246 0.314558246
vt 0.300037306 0.300037306
vt 0.367187500 0.187500000
vt 0.300037306 0.300037306
vt 0.346651786 0.187500000
vt 0.314558246 0.314558246
vt 0.187500000 0.367187500
vt 0.187500000 0.346651786
vt 0.314558246 0.314558246
vt 0.187500000 0.346651786
vt 0.300037306 0.300037306
vt 0.187500000 0.367187500
vt 0.060441754 0.314558246
vt 0.074962694 0.300037306
vt 0.187500000 0.367187500
vt 0.074962694 0.300037306
vt 0.187500000 0.346651786
vt 0.060441754 0.314558246
vt 0.007812500 0.187500000
vt 0.028348214 0.187500000
vt 0.060441754 0.314558246
vt 0.028348214 0.187500000
vt 0.074962694 0.300037306
vt 0.007812500 0.187500000
vt 0.060441754 0.060441754
vt 0.074962694 0.074962694
vt 0.007812500 0.187500000
vt 0.074962694 0.074962694
vt 0.028348214 0.187500000
vt 0.060441754 0.060441754
vt 0.187500000 0.007812500
vt 0.187500000 0.028348214
vt 0.060441754 0.060441754
vt 0.187500000 0.028348214
vt 0.074962694 0.074962694
vt 0.187500000 0.007812500
vt 0.314558246 0.060441754
vt 0.300037306 0.074962694
vt 0.187500000 0.007812500
vt 0.300037306 0.074962694
vt 0.187500000 0.028348214
vt 0.314558246 0.060441754
vt 0.367187500 0.187500000
vt 0.346651786 0.187500000
vt 0.314558246 0.060441754
vt 0.346651786 0.187500000
vt 0.300037306 0.074962694
vt 0.769531250 0.382812501
vt 0.743595582 0.501828870
vt 0.696775829 0.480405919
vt 0.769531250 0.382812501
vt 0.696775829 0.480405919
vt 0.718043079 0.382812500
vt 0.812555247 0.501828870
vt 0.786619579 0.382812501
vt 0.838107750 0.382812500
vt 0.812555247 0.501828870
vt 0.838107750 0.382812500
vt 0.859375000 0.480405919
vt 0.876463329 0.501828869
vt 0.902398997 0.382812500
vt 0.949218750 0.404235450
vt 0.876463329 0.501828869
vt 0.949218750 0.404235450
vt 0.927951500 0.501828870
vt 0.722711497 0.658078870
vt 0.696775829 0.539062501
vt 0.748264000 0.539062500
vt 0.722711497 0.658078870
vt 0.748264000 0.539062500
vt 0.769531250 0.636655919
vt 0.786619579 0.658078869
vt 0.812555247 0.539062500
vt 0.859375000 0.560485450
vt 0.786619579 0.658078869
vt 0.859375000 0.560485450
vt 0.838107750 0.658078870
vt 0.923283082 0.539062500
vt 0.949218750 0.658078869
vt 0.897730579 0.658078870
vt 0.923283082 0.539062500
vt 0.897730579 0.658078870
vt 0.876463329 0.560485450
vt 0.671875000 0.695312501
vt 0.645939332 0.814328870
vt 0.599119579 0.792905919
vt 0.671875000 0.695312501
vt 0.599119579 0.792905919
vt 0.620386829 0.695312500
vt 0.735783082 0.695312500
vt 0.761718750 0.814328869
vt 0.710230579 0.814328870
vt 0.735783082 0.695312500
vt 0.710230579 0.814328870
vt 0.688963329 0.716735450
f 1/1/1 2/2/2 3/3/3
v -0.00000000 -0.08610000 0.01000000
vn 0.00000000 0.00000000 -0.99999994
v -0.06088189 -0.06088189 0.01000000
vn 0.00000000 0.00000000 -0.99999994
v -0.08610000 0.00000000 0.01000000
vn 0.00000000 0.00000000 -0.99999994
f 4/4/4 5/5/5 6/6/6
v -0.08610000 0.00000000 0.01000000
vn 0.00000000 0.00000000 -0.99999994
v -0.06088189 0.06088189 0.01000000
vn 0.00000000 0.00000000 -0.99999994
v 0.00000000 0.08610000 0.01000000
vn 0.00000000 0.00000000 -0.99999994
f 7/7/7 8/8/8 9/9/9
v 0.00000000 0.08610000 0.01000000
vn 0.00000000 0.00000000 -0.99999994
v 0.06088189 0.06088189 0.01000000
vn 0.00000000 0.00000000 -0.99999994
v 0.08610000 0.00000000 0.01000000
vn 0.00000000 0.00000000 -0.99999994
f 10/10/10 11/11/11 12/12/12
v 0.08610000 0.00000000 0.01000000
vn 0.00000000 0.00000000 -1.00000000
v -0.00000000 -0.08610000 0.01000000
vn 0.00000000 0.00000000 -1.00000000
v -0.08610000 0.00000000 0.01000000
vn 0.00000000 0.00000000 -1.00000000
f 13/13/13 14/14/14 15/15/15
v -0.08610000 0.00000000 0.01000000
vn -0.00000000 0.00000000 -1.00000000
v 0.00000000 0.08610000 0.01000000
vn -0.00000000 0.00000000 -1.00000000
v 0.08610000 0.00000000 0.01000000
vn -0.00000000 0.00000000 -1.00000000
f 16/16/16 17/17/17 18/18/18
v 0.05392396 -0.05392396 0.17500000
vn 0.00000000 0.00000000 1.00000000
v 0.07626000 0.00000000 0.17500000
vn 0.00000000 0.00000000 1.00000000
v 0.05392396 0.05392396 0.17500000
vn 0.00000000 0.00000000 1.00000000
f 19/19/19 20/20/20 21/21/21
v 0.05392396 0.05392396 0.17500000
vn -0.00000000 0.00000000 1.00000000
v 0.00000000 0.07626000 0.17500000
vn -0.00000000 0.00000000 1.00000000
v -0.05392396 0.05392396 0.17500000
vn -0.00000000 0.00000000 1.00000000
f 22/22/22 23/23/23 24/24/24
v -0.05392396 0.05392396 0.17500000
vn 0.00000000 -0.00000000 1.00000000
v -0.07626000 0.00000000 0.17500000
vn 0.00000000 -0.00000000 1.00000000
v -0.05392396 -0.05392396 0.17500000
vn 0.00000000 -0.00000000 1.00000000
f 25/25/25 26/26/26 27/27/27
v -0.05392396 -0.05392396 0.17500000
vn 0.00000000 0.00000000 1.00000000
v -0.00000000 -0.07626000 0.17500000
vn 0.00000000 0.00000000 1.00000000
v 0.05392396 -0.05392396 0.17500000
vn 0.00000000 0.00000000 1.00000000
f 28/28/28 29/29/29 30/30/30
v 0.05392396 -0.05392396 0.17500000
vn -0.00000000 0.00000000 1.00000000
v 0.05392396 0.05392396 0.17500000
vn -0.00000000 0.00000000 1.00000000
v -0.05392396 0.05392396 0.17500000
vn -0.00000000 0.00000000 1.00000000
f 31/31/31 32/32/32 33/33/33
v -0.05392396 0.05392396 0.17500000
vn 0.00000000 -0.00000000 1.00000000
v -0.05392396 -0.05392396 0.17500000
vn 0.00000000 -0.00000000 1.00000000
v 0.05392396 -0.05392396 0.17500000
vn 0.00000000 -0.00000000 1.00000000
f 34/34/34 35/35/35 36/36/36
v 0.08610000 0.00000000 0.01000000
vn 0.92000264 0.38107750 -0.09151605
v 0.06088189 0.06088189 0.01000000
vn 0.92000264 0.38107750 -0.09151605
v 0.07424621 0.07424621 0.20000000
vn 0.92000264 0.38107750 -0.09151605
f 37/37/37 38/38/38 39/39/39
v 0.08610000 0.00000000 0.01000000
vn 0.92000258 0.38107750 -0.09151604
v 0.07424621 0.07424621 0.20000000
vn 0.92000258 0.38107750 -0.09151604
v 0.10500000 0.00000000 0.20000000
vn 0.92000258 0.38107750 -0.09151604
f 40/40/40 41/41/41 42/42/42
v 0.06088189 0.06088189 0.01000000
vn 0.38107750 0.92000264 -0.09151605
v 0.00000000 0.08610000 0.01000000
vn 0.38107750 0.92000264 -0.09151605
v 0.00000000 0.10500000 0.20000000
vn 0.38107750 0.92000264 -0.09151605
f 43/43/43 44/44/44 45/45/45
v 0.06088189 0.06088189 0.01000000
vn 0.38107750 0.92000258 -0.09151606
v 0.00000000 0.10500000 0.20000000
vn 0.38107750 0.92000258 -0.09151606
v 0.07424621 0.07424621 0.20000000
vn 0.38107750 0.92000258 -0.09151606
f 46/46/46 47/47/47 48/48/48
v 0.00000000 0.08610000 0.01000000
vn -0.38107750 0.92000264 -0.09151605
v -0.06088189 0.06088189 0.01000000
vn -0.38107750 0.92000264 -0.09151605
v -0.07424621 0.07424621 0.20000000
vn -0.38107750 0.92000264 -0.09151605
f 49/49/49 50/50/50 51/51/51
v 0.00000000 0.08610000 0.01000000
vn -0.38107750 0.92000258 -0.09151604
v -0.07424621 0.07424621 0.20000000
vn -0.38107750 0.92000258 -0.09151604
v 0.00000000 0.10500000 0.20000000
vn -0.38107750 0.92000258 -0.09151604
f 52/52/52 53/53/53 54/54/54
v -0.06088189 0.06088189 0.01000000
vn -0.92000264 0.38107750 -0.09151605
v -0.08610000 0.00000000 0.01000000
vn -0.92000264 0.38107750 -0.09151605
v -0.10500000 0.00000000 0.20000000
vn -0.92000264 0.38107750 -0.09151605
f 55/55/55 56/56/56 57/57/57
v -0.06088189 0.06088189 0.01000000
vn -0.92000258 0.38107750 -0.09151606
v -0.10500000 0.00000000 0.20000000
vn -0.92000258 0.38107750 -0.09151606
v -0.07424621 0.07424621 0.20000000
vn -0.92000258 0.38107750 -0.09151606
f 58/58/58 59/59/59 60/60/60
v -0.08610000 0.00000000 0.01000000
vn -0.92000264 -0.38107750 -0.09151605
v -0.06088189 -0.06088189 0.01000000
vn -0.92000264 -0.38107750 -0.09151605
v -0.07424621 -0.07424621 0.20000000
vn -0.92000264 -0.38107750 -0.09151605
f 61/61/61 62/62/62 63/63/63
v -0.08610000 0.00000000 0.01000000
vn -0.92000258 -0.38107750 -0.09151604
v -0.07424621 -0.07424621 0.20000000
vn -0.92000258 -0.38107750 -0.09151604
v -0.10500000 0.00000000 0.20000000
vn -0.92000258 -0.38107750 -0.09151604
f 64/64/64 65/65/65 66/66/66
v -0.06088189 -0.06088189 0.01000000
vn -0.38107750 -0.92000264 -0.09151605
v -0.00000000 -0.08610000 0.01000000
vn -0.38107750 -0.92000264 -0.09151605
v -0.00000000 -0.10500000 0.20000000
vn -0.38107750 -0.92000264 -0.09151605
f 67/67/67 68/68/68 69/69/69
v -0.06088189 -0.06088189 0.01000000
vn -0.38107750 -0.92000258 -0.09151606
v -0.00000000 -0.10500000 0.20000000
vn -0.38107750 -0.92000258 -0.09151606
v -0.07424621 -0.07424621 0.20000000
vn -0.38107750 -0.92000258 -0.09151606
f 70/70/70 71/71/71 72/72/72
v -0.00000000 -0.08610000 0.01000000
vn 0.38107750 -0.92000264 -0.09151605
v 0.06088189 -0.06088189 0.01000000
vn 0.38107750 -0.92000264 -0.09151605
v 0.07424621 -0.07424621 0.20000000
vn 0.38107750 -0.92000264 -0.09151605
f 73/73/73 74/74/74 75/75/75
v -0.00000000 -0.08610000 0.01000000
vn 0.38107750 -0.92000258 -0.09151604
v 0.07424621 -0.07424621 0.20000000
vn 0.38107750 -0.92000258 -0.09151604
v -0.00000000 -0.10500000 0.20000000
vn 0.38107750 -0.92000258 -0.09151604
f 76/76/76 77/77/77 78/78/78
v 0.06088189 -0.06088189 0.01000000
vn 0.92000264 -0.38107750 -0.09151605
v 0.08610000 0.00000000 0.01000000
vn 0.92000264 -0.38107750 -0.09151605
v 0.10500000 0.00000000 0.20000000
vn 0.92000264 -0.38107750 -0.09151605
f 79/79/79 80/80/80 81/81/81
v 0.06088189 -0.06088189 0.01000000
vn 0.92000258 -0.38107750 -0.09151606
v 0.10500000 0.00000000 0.20000000
vn 0.92000258 -0.38107750 -0.09151606
v 0.07424621 -0.07424621 0.20000000
vn 0.92000258 -0.38107750 -0.09151606
f 82/82/82 83/83/83 84/84/84
v 0.10500000 0.00000000 0.20000000
vn -0.00000000 0.00000000 0.99999994
v 0.07424621 0.07424621 0.20000000
vn -0.00000000 0.00000000 0.99999994
v 0.06576093 0.06576093 0.20000000
vn -0.00000000 0.00000000 0.99999994
f 85/85/85 86/86/86 87/87/87
v 0.10500000 0.00000000 0.20000000
vn -0.00000000 -0.00000000 0.99999994
v 0.06576093 0.06576093 0.20000000
vn -0.00000000 -0.00000000 0.99999994
v 0.09300000 0.00000000 0.20000000
vn -0.00000000 -0.00000000 0.99999994
f 88/88/88 89/89/89 90/90/90
v 0.07424621 0.07424621 0.20000000
vn -0.00000000 0.00000000 1.00000000
v 0.00000000 0.10500000 0.20000000
vn -0.00000000 0.00000000 1.00000000
v 0.00000000 0.09300000 0.20000000
vn -0.00000000 0.00000000 1.00000000
f 91/91/91 92/92/92 93/93/93
v 0.07424621 0.07424621 0.20000000
vn -0.00000000 -0.00000000 1.00000000
v 0.00000000 0.09300000 0.20000000
vn -0.00000000 -0.00000000 1.00000000
v 0.06576093 0.06576093 0.20000000
vn -0.00000000 -0.00000000 1.00000000
f 94/94/94 95/95/95 96/96/96
v 0.00000000 0.10500000 0.20000000
vn 0.00000000 -0.00000000 0.99999994
v -0.07424621 0.07424621 0.20000000
vn 0.00000000 -0.00000000 0.99999994
v -0.06576093 0.06576093 0.20000000
vn 0.00000000 -0.00000000 0.99999994
f 97/97/97 98/98/98 99/99/99
v 0.00000000 0.10500000 0.20000000
vn 0.00000000 -0.00000000 0.99999994
v -0.06576093 0.06576093 0.20000000
vn 0.00000000 -0.00000000 0.99999994
v 0.00000000 0.09300000 0.20000000
vn 0.00000000 -0.00000000 0.99999994
f 100/100/100 101/101/101 102/102/102
v -0.07424621 0.07424621 0.20000000
vn 0.00000000 -0.00000000 1.00000000
v -0.10500000 0.00000000 0.20000000
vn 0.00000000 -0.00000000 1.00000000
v -0.09300000 0.00000000 0.20000000
vn 0.00000000 -0.00000000 1.00000000
f 103/103/103 104/104/104 105/105/105
v -0.07424621 0.07424621 0.20000000
vn 0.00000000 -0.00000000 1.00000000
v -0.09300000 0.00000000 0.20000000
vn 0.00000000 -0.00000000 1.00000000
v -0.06576093 0.06576093 0.20000000
vn 0.00000000 -0.00000000 1.00000000
f 106/106/106 107/107/107 108/108/108
v -0.10500000 0.00000000 0.20000000
vn 0.00000000 0.00000000 0.99999994
v -0.07424621 -0.07424621 0.20000000
vn 0.00000000 0.00000000 0.99999994
v -0.06576093 -0.06576093 0.20000000
vn 0.00000000 0.00000000 0.99999994
f 109/109/109 110/110/110 111/111/111
v -0.10500000 0.00000000 0.20000000
vn 0.00000000 0.00000000 0.99999994
v -0.06576093 -0.06576093 0.20000000
vn 0.00000000 0.00000000 0.99999994
v -0.09300000 0.00000000 0.20000000
vn 0.00000000 0.00000000 0.99999994
f 112/112/112 113/113/113 114/114/114
v -0.07424621 -0.07424621 0.20000000
vn 0.00000000 0.00000000 1.00000000
v -0.00000000 -0.10500000 0.20000000
vn 0.00000000 0.00000000 1.00000000
v -0.00000000 -0.09300000 0.20000000
vn 0.00000000 0.00000000 1.00000000
f 115/115/115 116/116/116 117/117/117
v -0.07424621 -0.07424621 0.20000000
vn 0.00000000 0.00000000 1.00000000
v -0.00000000 -0.09300000 0.20000000
vn 0.00000000 0.00000000 1.00000000
v -0.06576093 -0.06576093 0.20000000
vn 0.00000000 0.00000000 1.00000000
f 118/118/118 119/119/119 120/120/120
v -0.00000000 -0.10500000 0.20000000
vn 0.00000000 0.00000000 0.99999994
v 0.07424621 -0.07424621 0.20000000
vn 0.00000000 0.00000000 0.99999994
v 0.06576093 -0.06576093 0.20000000
vn 0.00000000 0.00000000 0.99999994
f 121/121/121 122/122/122 123/123/123
v -0.00000000 -0.10500000 0.20000000
vn -0.00000000 0.00000000 0.99999994
v 0.06576093 -0.06576093 0.20000000
vn -0.00000000 0.00000000 0.99999994
v -0.00000000 -0.09300000 0.20000000
vn -0.00000000 0.00000000 0.99999994
f 124/124/124 125/125/125 126/126/126
v 0.07424621 -0.07424621 0.20000000
vn -0.00000000 0.00000000 1.00000000
v 0.10500000 0.00000000 0.20000000
vn -0.00000000 0.00000000 1.00000000
v 0.09300000 0.00000000 0.20000000
vn -0.00000000 0.00000000 1.00000000
f 127/127/127 128/128/128 129/129/129
v 0.07424621 -0.07424621 0.20000000
vn -0.00000000 0.00000000 1.00000000
v 0.09300000 0.00000000 0.20000000
vn -0.00000000 0.00000000 1.00000000
v 0.06576093 -0.06576093 0.20000000
vn -0.00000000 0.00000000 1.00000000
f 130/130/130 131/131/131 132/132/132
v 0.09300000 0.00000000 0.20000000
vn -0.78568953 -0.32544327 0.52609766
v 0.06576093 0.06576093 0.20000000
vn -0.78568953 -0.32544327 0.52609766
v 0.05392396 0.05392396 0.17500000
vn -0.78568953 -0.32544327 0.52609766
f 133/133/133 134/134/134 135/135/135
v 0.09300000 0.00000000 0.20000000
vn -0.78568953 -0.32544324 0.52609760
v 0.05392396 0.05392396 0.17500000
vn -0.78568953 -0.32544324 0.52609760
v 0.07626000 0.00000000 0.17500000
vn -0.78568953 -0.32544324 0.52609760
f 136/136/136 137/137/137 138/138/138
v 0.06576093 0.06576093 0.20000000
vn -0.32544327 -0.78568953 0.52609766
v 0.00000000 0.09300000 0.20000000
vn -0.32544327 -0.78568953 0.52609766
v 0.00000000 0.07626000 0.17500000
vn -0.32544327 -0.78568953 0.52609766
f 139/139/139 140/140/140 141/141/141
v 0.06576093 0.06576093 0.20000000
vn -0.32544324 -0.78568953 0.52609760
v 0.00000000 0.07626000 0.17500000
vn -0.32544324 -0.78568953 0.52609760
v 0.05392396 0.05392396 0.17500000
vn -0.32544324 -0.78568953 0.52609760
f 142/142/142 143/143/143 144/144/144
v 0.00000000 0.09300000 0.20000000
vn 0.32544327 -0.78568953 0.52609766
v -0.06576093 0.06576093 0.20000000
vn 0.32544327 -0.78568953 0.52609766
v -0.05392396 0.05392396 0.17500000
vn 0.32544327 -0.78568953 0.52609766
f 145/145/145 146/146/146 147/147/147
v 0.00000000 0.09300000 0.20000000
vn 0.32544324 -0.78568953 0.52609760
v -0.05392396 0.05392396 0.17500000
vn 0.32544324 -0.78568953 0.52609760
v 0.00000000 0.07626000 0.17500000
vn 0.32544324 -0.78568953 0.52609760
f 148/148/148 149/149/149 150/150/150
v -0.06576093 0.06576093 0.20000000
vn 0.78568953 -0.32544327 0.52609766
v -0.09300000 0.00000000 0.20000000
vn 0.78568953 -0.32544327 0.52609766
v -0.07626000 0.00000000 0.17500000
vn 0.78568953 -0.32544327 0.52609766
f 151/151/151 152/152/152 153/153/153
v -0.06576093 0.06576093 0.20000000
vn 0.78568953 -0.32544324 0.52609760
v -0.07626000 0.00000000 0.17500000
vn 0.78568953 -0.32544324 0.52609760
v -0.05392396 0.05392396 0.17500000
vn 0.78568953 -0.32544324 0.52609760
f 154/154/154 155/155/155 156/156/156
v -0.09300000 0.00000000 0.20000000
vn 0.78568953 0.32544327 0.52609766
v -0.06576093 -0.06576093 0.20000000
vn 0.78568953 0.32544327 0.52609766
v -0.05392396 -0.05392396 0.17500000
vn 0.78568953 0.32544327 0.52609766
f 157/157/157 158/158/158 159/159/159
v -0.09300000 0.00000000 0.20000000
vn 0.78568953 0.32544324 0.52609760
v -0.05392396 -0.05392396 0.17500000
vn 0.78568953 0.32544324 0.52609760
v -0.07626000 0.00000000 0.17500000
vn 0.78568953 0.32544324 0.52609760
f 160/160/160 161/161/161 162/162/162
v -0.06576093 -0.06576093 0.20000000
vn 0.32544327 0.78568953 0.52609766
v -0.00000000 -0.09300000 0.20000000
vn 0.32544327 0.78568953 0.52609766
v -0.00000000 -0.07626000 0.17500000
vn 0.32544327 0.78568953 0.52609766
f 163/163/163 164/164/164 165/165/165
v -0.06576093 -0.06576093 0.20000000
vn 0.32544324 0.78568953 0.52609760
v -0.00000000 -0.07626000 0.17500000
vn 0.32544324 0.78568953 0.52609760
v -0.05392396 -0.05392396 0.17500000
vn 0.32544324 0.78568953 0.52609760
f 166/166/166 167/167/167 168/168/168
v -0.00000000 -0.09300000 0.20000000
vn -0.32544327 0.78568953 0.52609766
v 0.06576093 -0.06576093 0.20000000
vn -0.32544327 0.78568953 0.52609766
v 0.05392396 -0.05392396 0.17500000
vn -0.32544327 0.78568953 0.52609766
f 169/169/169 170/170/170 171/171/171
v -0.00000000 -0.09300000 0.20000000
vn -0.32544324 0.78568953 0.52609760
v 0.05392396 -0.05392396 0.17500000
vn -0.32544324 0.78568953 0.52609760
v -0.00000000 -0.07626000 0.17500000
vn -0.32544324 0.78568953 0.52609760
f 172/172/172 173/173/173 174/174/174
v 0.06576093 -0.06576093 0.20000000
vn -0.78568953 0.32544327 0.52609766
v 0.09300000 0.00000000 0.20000000
vn -0.78568953 0.32544327 0.52609766
v 0.07626000 0.00000000 0.17500000
vn -0.78568953 0.32544327 0.52609766
f 175/175/175 176/176/176 177/177/177
v 0.06576093 -0.06576093 0.20000000
vn -0.78568953 0.32544324 0.52609760
v 0.07626000 0.00000000 0.17500000
vn -0.78568953 0.32544324 0.52609760
v 0.05392396 -0.05392396 0.17500000
vn -0.78568953 0.32544324 0.52609760
f 178/178/178 179/179/179 180/180/180
