# G009-r3: solid simple pot; native PNG foliage, no leaf/stem geometry.
mtllib ../Materials/pz_plant_native_26.mtl
usemtl UV_Base
o pot_soil_and_rim
v 0.08610000 0.00000000 0.01000000
vn 0.00000000 0.00000000 -0.99999994
v 0.06088189 -0.06088189 0.01000000
vn 0.00000000 0.00000000 -0.99999994
v -0.00000000 -0.08610000 0.01000000
vn 0.00000000 0.00000000 -0.99999994
vt 0.136296700 0.923617100
vt 0.117480621 0.969043121
vt 0.072054600 0.987859200
vt 0.072054600 0.987859200
vt 0.026628578 0.969043121
vt 0.007812500 0.923617100
vt 0.007812500 0.923617100
vt 0.026628578 0.878191078
vt 0.072054600 0.859375000
vt 0.072054600 0.859375000
vt 0.117480621 0.878191078
vt 0.136296700 0.923617100
vt 0.136296700 0.923617100
vt 0.072054600 0.987859200
vt 0.007812500 0.923617100
vt 0.007812500 0.923617100
vt 0.072054600 0.859375000
vt 0.136296700 0.923617100
vt 0.249478372 0.876040669
vt 0.266144041 0.916275145
vt 0.249478372 0.956509622
vt 0.249478372 0.956509622
vt 0.209243895 0.973175291
vt 0.169009419 0.956509622
vt 0.169009419 0.956509622
vt 0.152343750 0.916275145
vt 0.169009419 0.876040669
vt 0.169009419 0.876040669
vt 0.209243895 0.859375000
vt 0.249478372 0.876040669
vt 0.249478372 0.876040669
vt 0.249478372 0.956509622
vt 0.169009419 0.956509622
vt 0.169009419 0.956509622
vt 0.169009419 0.876040669
vt 0.249478372 0.876040669
vt 0.761840904 0.007812500
vt 0.811009677 0.007812500
vt 0.816406250 0.150175288
vt 0.761840904 0.007812500
vt 0.816406250 0.150175288
vt 0.756444331 0.150175288
vt 0.839965904 0.007812500
vt 0.889134676 0.007812500
vt 0.894531250 0.150175288
vt 0.839965904 0.007812500
vt 0.894531250 0.150175288
vt 0.834569331 0.150175288
vt 0.918090904 0.007812500
vt 0.967259677 0.007812500
vt 0.972656250 0.150175288
vt 0.918090904 0.007812500
vt 0.972656250 0.150175288
vt 0.912694331 0.150175288
vt 0.586059654 0.433593750
vt 0.635228426 0.433593750
vt 0.640625000 0.575956538
vt 0.586059654 0.433593750
vt 0.640625000 0.575956538
vt 0.580663081 0.575956538
vt 0.664184654 0.433593750
vt 0.713353427 0.433593750
vt 0.718750000 0.575956538
vt 0.664184654 0.433593750
vt 0.718750000 0.575956538
vt 0.658788081 0.575956538
vt 0.742309654 0.433593750
vt 0.791478426 0.433593750
vt 0.796875000 0.575956538
vt 0.742309654 0.433593750
vt 0.796875000 0.575956538
vt 0.736913081 0.575956538
vt 0.820434654 0.433593750
vt 0.869603427 0.433593750
vt 0.875000000 0.575956538
vt 0.820434654 0.433593750
vt 0.875000000 0.575956538
vt 0.815038081 0.575956538
vt 0.898559654 0.433593750
vt 0.947728426 0.433593750
vt 0.953125000 0.575956538
vt 0.898559654 0.433593750
vt 0.953125000 0.575956538
vt 0.893163081 0.575956538
vt 0.734813048 0.086156524
vt 0.711866613 0.141554113
vt 0.705535461 0.135222961
vt 0.734813048 0.086156524
vt 0.705535461 0.135222961
vt 0.725859445 0.086156524
vt 0.711866613 0.141554113
vt 0.656469024 0.164500548
vt 0.656469024 0.155546945
vt 0.711866613 0.141554113
vt 0.656469024 0.155546945
vt 0.705535461 0.135222961
vt 0.656469024 0.164500548
vt 0.601071435 0.141554113
vt 0.607402587 0.135222961
vt 0.656469024 0.164500548
vt 0.607402587 0.135222961
vt 0.656469024 0.155546945
vt 0.601071435 0.141554113
vt 0.578125000 0.086156524
vt 0.587078603 0.086156524
vt 0.601071435 0.141554113
vt 0.587078603 0.086156524
vt 0.607402587 0.135222961
vt 0.578125000 0.086156524
vt 0.601071435 0.030758935
vt 0.607402587 0.037090087
vt 0.578125000 0.086156524
vt 0.607402587 0.037090087
vt 0.587078603 0.086156524
vt 0.601071435 0.030758935
vt 0.656469024 0.007812500
vt 0.656469024 0.016766103
vt 0.601071435 0.030758935
vt 0.656469024 0.016766103
vt 0.607402587 0.037090087
vt 0.656469024 0.007812500
vt 0.711866613 0.030758935
vt 0.705535461 0.037090087
vt 0.656469024 0.007812500
vt 0.705535461 0.037090087
vt 0.656469024 0.016766103
vt 0.711866613 0.030758935
vt 0.734813048 0.086156524
vt 0.725859445 0.086156524
vt 0.711866613 0.030758935
vt 0.725859445 0.086156524
vt 0.705535461 0.037090087
vt 0.320312500 0.859375000
vt 0.309004509 0.911266319
vt 0.288591026 0.901925880
vt 0.320312500 0.859375000
vt 0.288591026 0.901925880
vt 0.297863579 0.859375000
vt 0.350680266 0.911266319
vt 0.339372275 0.859375000
vt 0.361821196 0.859375000
vt 0.350680266 0.911266319
vt 0.361821196 0.859375000
vt 0.371093750 0.901925880
vt 0.390153526 0.911266318
vt 0.401461516 0.859375000
vt 0.421875000 0.868715439
vt 0.390153526 0.911266318
vt 0.421875000 0.868715439
vt 0.412602446 0.911266319
vt 0.452242766 0.911266319
vt 0.440934775 0.859375000
vt 0.463383696 0.859375000
vt 0.452242766 0.911266319
vt 0.463383696 0.859375000
vt 0.472656250 0.901925880
vt 0.491716026 0.911266318
vt 0.503024016 0.859375000
vt 0.523437500 0.868715439
vt 0.491716026 0.911266318
vt 0.523437500 0.868715439
vt 0.514164946 0.911266319
vt 0.562910759 0.859375000
vt 0.574218750 0.911266318
vt 0.551769829 0.911266319
vt 0.562910759 0.859375000
vt 0.551769829 0.911266319
vt 0.542497275 0.868715439
vt 0.625000000 0.859375000
vt 0.613692009 0.911266319
vt 0.593278526 0.901925880
vt 0.625000000 0.859375000
vt 0.593278526 0.901925880
vt 0.602551079 0.859375000
vt 0.664473259 0.859375000
vt 0.675781250 0.911266318
vt 0.653332329 0.911266319
vt 0.664473259 0.859375000
vt 0.653332329 0.911266319
vt 0.644059775 0.868715439
vt 0.562500000 0.007812500
vt 0.562500000 0.417966492
vt 0.009483337 0.417966492
vt 0.562500000 0.007812500
vt 0.009483337 0.417966492
vt 0.009483337 0.007812500
vt 0.562500000 0.433593750
vt 0.562500000 0.843747742
vt 0.009483337 0.843747742
vt 0.562500000 0.433593750
vt 0.009483337 0.843747742
vt 0.009483337 0.433593750
f 1/1/1 2/2/2 3/3/3
v -0.00000000 -0.08610000 0.01000000
vn 0.00000000 0.00000000 -0.99999994
v -0.06088189 -0.06088189 0.01000000
vn 0.00000000 0.00000000 -0.99999994
v -0.08610000 0.00000000 0.01000000
vn 0.00000000 0.00000000 -0.99999994
f 4/4/4 5/5/5 6/6/6
v -0.08610000 0.00000000 0.01000000
vn 0.00000000 0.00000000 -0.99999994
v -0.06088189 0.06088189 0.01000000
vn 0.00000000 0.00000000 -0.99999994
v 0.00000000 0.08610000 0.01000000
vn 0.00000000 0.00000000 -0.99999994
f 7/7/7 8/8/8 9/9/9
v 0.00000000 0.08610000 0.01000000
vn 0.00000000 0.00000000 -0.99999994
v 0.06088189 0.06088189 0.01000000
vn 0.00000000 0.00000000 -0.99999994
v 0.08610000 0.00000000 0.01000000
vn 0.00000000 0.00000000 -0.99999994
f 10/10/10 11/11/11 12/12/12
v 0.08610000 0.00000000 0.01000000
vn 0.00000000 0.00000000 -1.00000000
v -0.00000000 -0.08610000 0.01000000
vn 0.00000000 0.00000000 -1.00000000
v -0.08610000 0.00000000 0.01000000
vn 0.00000000 0.00000000 -1.00000000
f 13/13/13 14/14/14 15/15/15
v -0.08610000 0.00000000 0.01000000
vn -0.00000000 0.00000000 -1.00000000
v 0.00000000 0.08610000 0.01000000
vn -0.00000000 0.00000000 -1.00000000
v 0.08610000 0.00000000 0.01000000
vn -0.00000000 0.00000000 -1.00000000
f 16/16/16 17/17/17 18/18/18
v 0.05392396 -0.05392396 0.17500000
vn 0.00000000 0.00000000 1.00000000
v 0.07626000 0.00000000 0.17500000
vn 0.00000000 0.00000000 1.00000000
v 0.05392396 0.05392396 0.17500000
vn 0.00000000 0.00000000 1.00000000
f 19/19/19 20/20/20 21/21/21
v 0.05392396 0.05392396 0.17500000
vn -0.00000000 0.00000000 1.00000000
v 0.00000000 0.07626000 0.17500000
vn -0.00000000 0.00000000 1.00000000
v -0.05392396 0.05392396 0.17500000
vn -0.00000000 0.00000000 1.00000000
f 22/22/22 23/23/23 24/24/24
v -0.05392396 0.05392396 0.17500000
vn 0.00000000 -0.00000000 1.00000000
v -0.07626000 0.00000000 0.17500000
vn 0.00000000 -0.00000000 1.00000000
v -0.05392396 -0.05392396 0.17500000
vn 0.00000000 -0.00000000 1.00000000
f 25/25/25 26/26/26 27/27/27
v -0.05392396 -0.05392396 0.17500000
vn 0.00000000 0.00000000 1.00000000
v -0.00000000 -0.07626000 0.17500000
vn 0.00000000 0.00000000 1.00000000
v 0.05392396 -0.05392396 0.17500000
vn 0.00000000 0.00000000 1.00000000
f 28/28/28 29/29/29 30/30/30
v 0.05392396 -0.05392396 0.17500000
vn -0.00000000 0.00000000 1.00000000
v 0.05392396 0.05392396 0.17500000
vn -0.00000000 0.00000000 1.00000000
v -0.05392396 0.05392396 0.17500000
vn -0.00000000 0.00000000 1.00000000
f 31/31/31 32/32/32 33/33/33
v -0.05392396 0.05392396 0.17500000
vn 0.00000000 -0.00000000 1.00000000
v -0.05392396 -0.05392396 0.17500000
vn 0.00000000 -0.00000000 1.00000000
v 0.05392396 -0.05392396 0.17500000
vn 0.00000000 -0.00000000 1.00000000
f 34/34/34 35/35/35 36/36/36
v 0.08610000 0.00000000 0.01000000
vn 0.92000264 0.38107750 -0.09151605
v 0.06088189 0.06088189 0.01000000
vn 0.92000264 0.38107750 -0.09151605
v 0.07424621 0.07424621 0.20000000
vn 0.92000264 0.38107750 -0.09151605
f 37/37/37 38/38/38 39/39/39
v 0.08610000 0.00000000 0.01000000
vn 0.92000258 0.38107750 -0.09151604
v 0.07424621 0.07424621 0.20000000
vn 0.92000258 0.38107750 -0.09151604
v 0.10500000 0.00000000 0.20000000
vn 0.92000258 0.38107750 -0.09151604
f 40/40/40 41/41/41 42/42/42
v 0.06088189 0.06088189 0.01000000
vn 0.38107750 0.92000264 -0.09151605
v 0.00000000 0.08610000 0.01000000
vn 0.38107750 0.92000264 -0.09151605
v 0.00000000 0.10500000 0.20000000
vn 0.38107750 0.92000264 -0.09151605
f 43/43/43 44/44/44 45/45/45
v 0.06088189 0.06088189 0.01000000
vn 0.38107750 0.92000258 -0.09151606
v 0.00000000 0.10500000 0.20000000
vn 0.38107750 0.92000258 -0.09151606
v 0.07424621 0.07424621 0.20000000
vn 0.38107750 0.92000258 -0.09151606
f 46/46/46 47/47/47 48/48/48
v 0.00000000 0.08610000 0.01000000
vn -0.38107750 0.92000264 -0.09151605
v -0.06088189 0.06088189 0.01000000
vn -0.38107750 0.92000264 -0.09151605
v -0.07424621 0.07424621 0.20000000
vn -0.38107750 0.92000264 -0.09151605
f 49/49/49 50/50/50 51/51/51
v 0.00000000 0.08610000 0.01000000
vn -0.38107750 0.92000258 -0.09151604
v -0.07424621 0.07424621 0.20000000
vn -0.38107750 0.92000258 -0.09151604
v 0.00000000 0.10500000 0.20000000
vn -0.38107750 0.92000258 -0.09151604
f 52/52/52 53/53/53 54/54/54
v -0.06088189 0.06088189 0.01000000
vn -0.92000264 0.38107750 -0.09151605
v -0.08610000 0.00000000 0.01000000
vn -0.92000264 0.38107750 -0.09151605
v -0.10500000 0.00000000 0.20000000
vn -0.92000264 0.38107750 -0.09151605
f 55/55/55 56/56/56 57/57/57
v -0.06088189 0.06088189 0.01000000
vn -0.92000258 0.38107750 -0.09151606
v -0.10500000 0.00000000 0.20000000
vn -0.92000258 0.38107750 -0.09151606
v -0.07424621 0.07424621 0.20000000
vn -0.92000258 0.38107750 -0.09151606
f 58/58/58 59/59/59 60/60/60
v -0.08610000 0.00000000 0.01000000
vn -0.92000264 -0.38107750 -0.09151605
v -0.06088189 -0.06088189 0.01000000
vn -0.92000264 -0.38107750 -0.09151605
v -0.07424621 -0.07424621 0.20000000
vn -0.92000264 -0.38107750 -0.09151605
f 61/61/61 62/62/62 63/63/63
v -0.08610000 0.00000000 0.01000000
vn -0.92000258 -0.38107750 -0.09151604
v -0.07424621 -0.07424621 0.20000000
vn -0.92000258 -0.38107750 -0.09151604
v -0.10500000 0.00000000 0.20000000
vn -0.92000258 -0.38107750 -0.09151604
f 64/64/64 65/65/65 66/66/66
v -0.06088189 -0.06088189 0.01000000
vn -0.38107750 -0.92000264 -0.09151605
v -0.00000000 -0.08610000 0.01000000
vn -0.38107750 -0.92000264 -0.09151605
v -0.00000000 -0.10500000 0.20000000
vn -0.38107750 -0.92000264 -0.09151605
f 67/67/67 68/68/68 69/69/69
v -0.06088189 -0.06088189 0.01000000
vn -0.38107750 -0.92000258 -0.09151606
v -0.00000000 -0.10500000 0.20000000
vn -0.38107750 -0.92000258 -0.09151606
v -0.07424621 -0.07424621 0.20000000
vn -0.38107750 -0.92000258 -0.09151606
f 70/70/70 71/71/71 72/72/72
v -0.00000000 -0.08610000 0.01000000
vn 0.38107750 -0.92000264 -0.09151605
v 0.06088189 -0.06088189 0.01000000
vn 0.38107750 -0.92000264 -0.09151605
v 0.07424621 -0.07424621 0.20000000
vn 0.38107750 -0.92000264 -0.09151605
f 73/73/73 74/74/74 75/75/75
v -0.00000000 -0.08610000 0.01000000
vn 0.38107750 -0.92000258 -0.09151604
v 0.07424621 -0.07424621 0.20000000
vn 0.38107750 -0.92000258 -0.09151604
v -0.00000000 -0.10500000 0.20000000
vn 0.38107750 -0.92000258 -0.09151604
f 76/76/76 77/77/77 78/78/78
v 0.06088189 -0.06088189 0.01000000
vn 0.92000264 -0.38107750 -0.09151605
v 0.08610000 0.00000000 0.01000000
vn 0.92000264 -0.38107750 -0.09151605
v 0.10500000 0.00000000 0.20000000
vn 0.92000264 -0.38107750 -0.09151605
f 79/79/79 80/80/80 81/81/81
v 0.06088189 -0.06088189 0.01000000
vn 0.92000258 -0.38107750 -0.09151606
v 0.10500000 0.00000000 0.20000000
vn 0.92000258 -0.38107750 -0.09151606
v 0.07424621 -0.07424621 0.20000000
vn 0.92000258 -0.38107750 -0.09151606
f 82/82/82 83/83/83 84/84/84
v 0.10500000 0.00000000 0.20000000
vn -0.00000000 0.00000000 0.99999994
v 0.07424621 0.07424621 0.20000000
vn -0.00000000 0.00000000 0.99999994
v 0.06576093 0.06576093 0.20000000
vn -0.00000000 0.00000000 0.99999994
f 85/85/85 86/86/86 87/87/87
v 0.10500000 0.00000000 0.20000000
vn -0.00000000 -0.00000000 0.99999994
v 0.06576093 0.06576093 0.20000000
vn -0.00000000 -0.00000000 0.99999994
v 0.09300000 0.00000000 0.20000000
vn -0.00000000 -0.00000000 0.99999994
f 88/88/88 89/89/89 90/90/90
v 0.07424621 0.07424621 0.20000000
vn -0.00000000 0.00000000 1.00000000
v 0.00000000 0.10500000 0.20000000
vn -0.00000000 0.00000000 1.00000000
v 0.00000000 0.09300000 0.20000000
vn -0.00000000 0.00000000 1.00000000
f 91/91/91 92/92/92 93/93/93
v 0.07424621 0.07424621 0.20000000
vn -0.00000000 -0.00000000 1.00000000
v 0.00000000 0.09300000 0.20000000
vn -0.00000000 -0.00000000 1.00000000
v 0.06576093 0.06576093 0.20000000
vn -0.00000000 -0.00000000 1.00000000
f 94/94/94 95/95/95 96/96/96
v 0.00000000 0.10500000 0.20000000
vn 0.00000000 -0.00000000 0.99999994
v -0.07424621 0.07424621 0.20000000
vn 0.00000000 -0.00000000 0.99999994
v -0.06576093 0.06576093 0.20000000
vn 0.00000000 -0.00000000 0.99999994
f 97/97/97 98/98/98 99/99/99
v 0.00000000 0.10500000 0.20000000
vn 0.00000000 -0.00000000 0.99999994
v -0.06576093 0.06576093 0.20000000
vn 0.00000000 -0.00000000 0.99999994
v 0.00000000 0.09300000 0.20000000
vn 0.00000000 -0.00000000 0.99999994
f 100/100/100 101/101/101 102/102/102
v -0.07424621 0.07424621 0.20000000
vn 0.00000000 -0.00000000 1.00000000
v -0.10500000 0.00000000 0.20000000
vn 0.00000000 -0.00000000 1.00000000
v -0.09300000 0.00000000 0.20000000
vn 0.00000000 -0.00000000 1.00000000
f 103/103/103 104/104/104 105/105/105
v -0.07424621 0.07424621 0.20000000
vn 0.00000000 -0.00000000 1.00000000
v -0.09300000 0.00000000 0.20000000
vn 0.00000000 -0.00000000 1.00000000
v -0.06576093 0.06576093 0.20000000
vn 0.00000000 -0.00000000 1.00000000
f 106/106/106 107/107/107 108/108/108
v -0.10500000 0.00000000 0.20000000
vn 0.00000000 0.00000000 0.99999994
v -0.07424621 -0.07424621 0.20000000
vn 0.00000000 0.00000000 0.99999994
v -0.06576093 -0.06576093 0.20000000
vn 0.00000000 0.00000000 0.99999994
f 109/109/109 110/110/110 111/111/111
v -0.10500000 0.00000000 0.20000000
vn 0.00000000 0.00000000 0.99999994
v -0.06576093 -0.06576093 0.20000000
vn 0.00000000 0.00000000 0.99999994
v -0.09300000 0.00000000 0.20000000
vn 0.00000000 0.00000000 0.99999994
f 112/112/112 113/113/113 114/114/114
v -0.07424621 -0.07424621 0.20000000
vn 0.00000000 0.00000000 1.00000000
v -0.00000000 -0.10500000 0.20000000
vn 0.00000000 0.00000000 1.00000000
v -0.00000000 -0.09300000 0.20000000
vn 0.00000000 0.00000000 1.00000000
f 115/115/115 116/116/116 117/117/117
v -0.07424621 -0.07424621 0.20000000
vn 0.00000000 0.00000000 1.00000000
v -0.00000000 -0.09300000 0.20000000
vn 0.00000000 0.00000000 1.00000000
v -0.06576093 -0.06576093 0.20000000
vn 0.00000000 0.00000000 1.00000000
f 118/118/118 119/119/119 120/120/120
v -0.00000000 -0.10500000 0.20000000
vn 0.00000000 0.00000000 0.99999994
v 0.07424621 -0.07424621 0.20000000
vn 0.00000000 0.00000000 0.99999994
v 0.06576093 -0.06576093 0.20000000
vn 0.00000000 0.00000000 0.99999994
f 121/121/121 122/122/122 123/123/123
v -0.00000000 -0.10500000 0.20000000
vn -0.00000000 0.00000000 0.99999994
v 0.06576093 -0.06576093 0.20000000
vn -0.00000000 0.00000000 0.99999994
v -0.00000000 -0.09300000 0.20000000
vn -0.00000000 0.00000000 0.99999994
f 124/124/124 125/125/125 126/126/126
v 0.07424621 -0.07424621 0.20000000
vn -0.00000000 0.00000000 1.00000000
v 0.10500000 0.00000000 0.20000000
vn -0.00000000 0.00000000 1.00000000
v 0.09300000 0.00000000 0.20000000
vn -0.00000000 0.00000000 1.00000000
f 127/127/127 128/128/128 129/129/129
v 0.07424621 -0.07424621 0.20000000
vn -0.00000000 0.00000000 1.00000000
v 0.09300000 0.00000000 0.20000000
vn -0.00000000 0.00000000 1.00000000
v 0.06576093 -0.06576093 0.20000000
vn -0.00000000 0.00000000 1.00000000
f 130/130/130 131/131/131 132/132/132
v 0.09300000 0.00000000 0.20000000
vn -0.78568953 -0.32544327 0.52609766
v 0.06576093 0.06576093 0.20000000
vn -0.78568953 -0.32544327 0.52609766
v 0.05392396 0.05392396 0.17500000
vn -0.78568953 -0.32544327 0.52609766
f 133/133/133 134/134/134 135/135/135
v 0.09300000 0.00000000 0.20000000
vn -0.78568953 -0.32544324 0.52609760
v 0.05392396 0.05392396 0.17500000
vn -0.78568953 -0.32544324 0.52609760
v 0.07626000 0.00000000 0.17500000
vn -0.78568953 -0.32544324 0.52609760
f 136/136/136 137/137/137 138/138/138
v 0.06576093 0.06576093 0.20000000
vn -0.32544327 -0.78568953 0.52609766
v 0.00000000 0.09300000 0.20000000
vn -0.32544327 -0.78568953 0.52609766
v 0.00000000 0.07626000 0.17500000
vn -0.32544327 -0.78568953 0.52609766
f 139/139/139 140/140/140 141/141/141
v 0.06576093 0.06576093 0.20000000
vn -0.32544324 -0.78568953 0.52609760
v 0.00000000 0.07626000 0.17500000
vn -0.32544324 -0.78568953 0.52609760
v 0.05392396 0.05392396 0.17500000
vn -0.32544324 -0.78568953 0.52609760
f 142/142/142 143/143/143 144/144/144
v 0.00000000 0.09300000 0.20000000
vn 0.32544327 -0.78568953 0.52609766
v -0.06576093 0.06576093 0.20000000
vn 0.32544327 -0.78568953 0.52609766
v -0.05392396 0.05392396 0.17500000
vn 0.32544327 -0.78568953 0.52609766
f 145/145/145 146/146/146 147/147/147
v 0.00000000 0.09300000 0.20000000
vn 0.32544324 -0.78568953 0.52609760
v -0.05392396 0.05392396 0.17500000
vn 0.32544324 -0.78568953 0.52609760
v 0.00000000 0.07626000 0.17500000
vn 0.32544324 -0.78568953 0.52609760
f 148/148/148 149/149/149 150/150/150
v -0.06576093 0.06576093 0.20000000
vn 0.78568953 -0.32544327 0.52609766
v -0.09300000 0.00000000 0.20000000
vn 0.78568953 -0.32544327 0.52609766
v -0.07626000 0.00000000 0.17500000
vn 0.78568953 -0.32544327 0.52609766
f 151/151/151 152/152/152 153/153/153
v -0.06576093 0.06576093 0.20000000
vn 0.78568953 -0.32544324 0.52609760
v -0.07626000 0.00000000 0.17500000
vn 0.78568953 -0.32544324 0.52609760
v -0.05392396 0.05392396 0.17500000
vn 0.78568953 -0.32544324 0.52609760
f 154/154/154 155/155/155 156/156/156
v -0.09300000 0.00000000 0.20000000
vn 0.78568953 0.32544327 0.52609766
v -0.06576093 -0.06576093 0.20000000
vn 0.78568953 0.32544327 0.52609766
v -0.05392396 -0.05392396 0.17500000
vn 0.78568953 0.32544327 0.52609766
f 157/157/157 158/158/158 159/159/159
v -0.09300000 0.00000000 0.20000000
vn 0.78568953 0.32544324 0.52609760
v -0.05392396 -0.05392396 0.17500000
vn 0.78568953 0.32544324 0.52609760
v -0.07626000 0.00000000 0.17500000
vn 0.78568953 0.32544324 0.52609760
f 160/160/160 161/161/161 162/162/162
v -0.06576093 -0.06576093 0.20000000
vn 0.32544327 0.78568953 0.52609766
v -0.00000000 -0.09300000 0.20000000
vn 0.32544327 0.78568953 0.52609766
v -0.00000000 -0.07626000 0.17500000
vn 0.32544327 0.78568953 0.52609766
f 163/163/163 164/164/164 165/165/165
v -0.06576093 -0.06576093 0.20000000
vn 0.32544324 0.78568953 0.52609760
v -0.00000000 -0.07626000 0.17500000
vn 0.32544324 0.78568953 0.52609760
v -0.05392396 -0.05392396 0.17500000
vn 0.32544324 0.78568953 0.52609760
f 166/166/166 167/167/167 168/168/168
v -0.00000000 -0.09300000 0.20000000
vn -0.32544327 0.78568953 0.52609766
v 0.06576093 -0.06576093 0.20000000
vn -0.32544327 0.78568953 0.52609766
v 0.05392396 -0.05392396 0.17500000
vn -0.32544327 0.78568953 0.52609766
f 169/169/169 170/170/170 171/171/171
v -0.00000000 -0.09300000 0.20000000
vn -0.32544324 0.78568953 0.52609760
v 0.05392396 -0.05392396 0.17500000
vn -0.32544324 0.78568953 0.52609760
v -0.00000000 -0.07626000 0.17500000
vn -0.32544324 0.78568953 0.52609760
f 172/172/172 173/173/173 174/174/174
v 0.06576093 -0.06576093 0.20000000
vn -0.78568953 0.32544327 0.52609766
v 0.09300000 0.00000000 0.20000000
vn -0.78568953 0.32544327 0.52609766
v 0.07626000 0.00000000 0.17500000
vn -0.78568953 0.32544327 0.52609766
f 175/175/175 176/176/176 177/177/177
v 0.06576093 -0.06576093 0.20000000
vn -0.78568953 0.32544324 0.52609760
v 0.07626000 0.00000000 0.17500000
vn -0.78568953 0.32544324 0.52609760
v 0.05392396 -0.05392396 0.17500000
vn -0.78568953 0.32544324 0.52609760
f 178/178/178 179/179/179 180/180/180
o foliage_PNG_crossed_cards
v -0.27485293 0.00000000 0.17500000
vn -0.00000000 -0.99999994 -0.00000000
v 0.27485293 0.00000000 0.17500000
vn -0.00000000 -0.99999994 -0.00000000
v 0.27485293 0.00000000 0.91617650
vn -0.00000000 -0.99999994 -0.00000000
f 181/181/181 182/182/182 183/183/183
v -0.27485293 0.00000000 0.17500000
vn 0.00000000 -0.99999994 -0.00000000
v 0.27485293 0.00000000 0.91617650
vn 0.00000000 -0.99999994 -0.00000000
v -0.27485293 0.00000000 0.91617650
vn 0.00000000 -0.99999994 -0.00000000
f 184/184/184 185/185/185 186/186/186
v 0.00000000 -0.27485293 0.17500000
vn 0.99999994 0.00000000 0.00000000
v 0.00000000 0.27485293 0.17500000
vn 0.99999994 0.00000000 0.00000000
v 0.00000000 0.27485293 0.91617650
vn 0.99999994 0.00000000 0.00000000
f 187/187/187 188/188/188 189/189/189
v 0.00000000 -0.27485293 0.17500000
vn 0.99999994 -0.00000000 0.00000000
v 0.00000000 0.27485293 0.91617650
vn 0.99999994 -0.00000000 0.00000000
v 0.00000000 -0.27485293 0.91617650
vn 0.99999994 -0.00000000 0.00000000
f 190/190/190 191/191/191 192/192/192
