# G009-r3: solid simple pot; native PNG foliage, no leaf/stem geometry.
mtllib ../Materials/pz_plant_native_11.mtl
usemtl UV_Base
o pot_soil_and_rim
v 0.08610000 0.00000000 0.01000000
vn 0.00000000 0.00000000 -0.99999994
v 0.06088189 -0.06088189 0.01000000
vn 0.00000000 0.00000000 -0.99999994
v -0.00000000 -0.08610000 0.01000000
vn 0.00000000 0.00000000 -0.99999994
vt 0.827004330 0.515064665
vt 0.812294962 0.550576212
vt 0.776783415 0.565285580
vt 0.776783415 0.565285580
vt 0.741271868 0.550576212
vt 0.726562500 0.515064665
vt 0.726562500 0.515064665
vt 0.741271868 0.479553118
vt 0.776783415 0.464843750
vt 0.776783415 0.464843750
vt 0.812294962 0.479553118
vt 0.827004330 0.515064665
vt 0.827004330 0.515064665
vt 0.776783415 0.565285580
vt 0.726562500 0.515064665
vt 0.726562500 0.515064665
vt 0.776783415 0.464843750
vt 0.827004330 0.515064665
vt 0.919684467 0.477872047
vt 0.932712764 0.509325132
vt 0.919684467 0.540778217
vt 0.919684467 0.540778217
vt 0.888231382 0.553806514
vt 0.856778297 0.540778217
vt 0.856778297 0.540778217
vt 0.843750000 0.509325132
vt 0.856778297 0.477872047
vt 0.856778297 0.477872047
vt 0.888231382 0.464843750
vt 0.919684467 0.477872047
vt 0.919684467 0.477872047
vt 0.919684467 0.540778217
vt 0.856778297 0.540778217
vt 0.856778297 0.540778217
vt 0.856778297 0.477872047
vt 0.919684467 0.477872047
vt 0.683906335 0.007812500
vt 0.722343758 0.007812500
vt 0.726562500 0.119103842
vt 0.683906335 0.007812500
vt 0.726562500 0.119103842
vt 0.679687593 0.119103842
vt 0.746406335 0.007812500
vt 0.784843758 0.007812500
vt 0.789062500 0.119103842
vt 0.746406335 0.007812500
vt 0.789062500 0.119103842
vt 0.742187593 0.119103842
vt 0.808906335 0.007812500
vt 0.847343758 0.007812500
vt 0.851562500 0.119103842
vt 0.808906335 0.007812500
vt 0.851562500 0.119103842
vt 0.804687593 0.119103842
vt 0.871406335 0.007812500
vt 0.909843758 0.007812500
vt 0.914062500 0.119103842
vt 0.871406335 0.007812500
vt 0.914062500 0.119103842
vt 0.867187593 0.119103842
vt 0.933906335 0.007812500
vt 0.972343758 0.007812500
vt 0.976562500 0.119103842
vt 0.933906335 0.007812500
vt 0.976562500 0.119103842
vt 0.929687593 0.119103842
vt 0.543281335 0.464843750
vt 0.581718758 0.464843750
vt 0.585937500 0.576135092
vt 0.543281335 0.464843750
vt 0.585937500 0.576135092
vt 0.539062593 0.576135092
vt 0.605781335 0.464843750
vt 0.644218758 0.464843750
vt 0.648437500 0.576135092
vt 0.605781335 0.464843750
vt 0.648437500 0.576135092
vt 0.601562593 0.576135092
vt 0.668281335 0.464843750
vt 0.706718758 0.464843750
vt 0.710937500 0.576135092
vt 0.668281335 0.464843750
vt 0.710937500 0.576135092
vt 0.664062593 0.576135092
vt 0.661552536 0.069057518
vt 0.643614285 0.112364285
vt 0.638664941 0.107414941
vt 0.661552536 0.069057518
vt 0.638664941 0.107414941
vt 0.654553106 0.069057518
vt 0.643614285 0.112364285
vt 0.600307518 0.130302536
vt 0.600307518 0.123303106
vt 0.643614285 0.112364285
vt 0.600307518 0.123303106
vt 0.638664941 0.107414941
vt 0.600307518 0.130302536
vt 0.557000752 0.112364285
vt 0.561950096 0.107414941
vt 0.600307518 0.130302536
vt 0.561950096 0.107414941
vt 0.600307518 0.123303106
vt 0.557000752 0.112364285
vt 0.539062500 0.069057518
vt 0.546061931 0.069057518
vt 0.557000752 0.112364285
vt 0.546061931 0.069057518
vt 0.561950096 0.107414941
vt 0.539062500 0.069057518
vt 0.557000752 0.025750752
vt 0.561950096 0.030700096
vt 0.539062500 0.069057518
vt 0.561950096 0.030700096
vt 0.546061931 0.069057518
vt 0.557000752 0.025750752
vt 0.600307518 0.007812500
vt 0.600307518 0.014811931
vt 0.557000752 0.025750752
vt 0.600307518 0.014811931
vt 0.561950096 0.030700096
vt 0.600307518 0.007812500
vt 0.643614285 0.025750752
vt 0.638664941 0.030700096
vt 0.600307518 0.007812500
vt 0.638664941 0.030700096
vt 0.600307518 0.014811931
vt 0.643614285 0.025750752
vt 0.661552536 0.069057518
vt 0.654553106 0.069057518
vt 0.643614285 0.025750752
vt 0.654553106 0.069057518
vt 0.638664941 0.030700096
vt 0.976562500 0.464843750
vt 0.967722539 0.505409509
vt 0.951764409 0.498107671
vt 0.976562500 0.464843750
vt 0.951764409 0.498107671
vt 0.959013177 0.464843750
vt 0.048378259 0.937833131
vt 0.007812500 0.946673092
vt 0.007812500 0.929123769
vt 0.048378259 0.937833131
vt 0.007812500 0.929123769
vt 0.041076421 0.921875000
vt 0.106972008 0.946673091
vt 0.066406250 0.937833131
vt 0.073708088 0.921875000
vt 0.106972008 0.946673091
vt 0.073708088 0.921875000
vt 0.106972009 0.929123769
vt 0.165565759 0.937833131
vt 0.125000000 0.946673092
vt 0.125000000 0.929123769
vt 0.165565759 0.937833131
vt 0.125000000 0.929123769
vt 0.158263921 0.921875000
vt 0.224159508 0.946673091
vt 0.183593750 0.937833131
vt 0.190895588 0.921875000
vt 0.224159508 0.946673091
vt 0.190895588 0.921875000
vt 0.224159509 0.929123769
vt 0.242187500 0.930714961
vt 0.282753258 0.921875000
vt 0.282753259 0.939424323
vt 0.242187500 0.930714961
vt 0.282753259 0.939424323
vt 0.249489338 0.946673092
vt 0.300781250 0.921875000
vt 0.341347009 0.930714961
vt 0.334045171 0.946673091
vt 0.300781250 0.921875000
vt 0.334045171 0.946673091
vt 0.300781250 0.939424323
vt 0.359375000 0.930714961
vt 0.399940758 0.921875000
vt 0.399940759 0.939424323
vt 0.359375000 0.930714961
vt 0.399940759 0.939424323
vt 0.366676838 0.946673092
vt 0.523437500 0.007812500
vt 0.523437500 0.447335577
vt 0.008258820 0.447335577
vt 0.523437500 0.007812500
vt 0.008258820 0.447335577
vt 0.008258820 0.007812500
vt 0.523437500 0.464843750
vt 0.523437500 0.904366827
vt 0.008258820 0.904366827
vt 0.523437500 0.464843750
vt 0.008258820 0.904366827
vt 0.008258820 0.464843750
f 1/1/1 2/2/2 3/3/3
v -0.00000000 -0.08610000 0.01000000
vn 0.00000000 0.00000000 -0.99999994
v -0.06088189 -0.06088189 0.01000000
vn 0.00000000 0.00000000 -0.99999994
v -0.08610000 0.00000000 0.01000000
vn 0.00000000 0.00000000 -0.99999994
f 4/4/4 5/5/5 6/6/6
v -0.08610000 0.00000000 0.01000000
vn 0.00000000 0.00000000 -0.99999994
v -0.06088189 0.06088189 0.01000000
vn 0.00000000 0.00000000 -0.99999994
v 0.00000000 0.08610000 0.01000000
vn 0.00000000 0.00000000 -0.99999994
f 7/7/7 8/8/8 9/9/9
v 0.00000000 0.08610000 0.01000000
vn 0.00000000 0.00000000 -0.99999994
v 0.06088189 0.06088189 0.01000000
vn 0.00000000 0.00000000 -0.99999994
v 0.08610000 0.00000000 0.01000000
vn 0.00000000 0.00000000 -0.99999994
f 10/10/10 11/11/11 12/12/12
v 0.08610000 0.00000000 0.01000000
vn 0.00000000 0.00000000 -1.00000000
v -0.00000000 -0.08610000 0.01000000
vn 0.00000000 0.00000000 -1.00000000
v -0.08610000 0.00000000 0.01000000
vn 0.00000000 0.00000000 -1.00000000
f 13/13/13 14/14/14 15/15/15
v -0.08610000 0.00000000 0.01000000
vn -0.00000000 0.00000000 -1.00000000
v 0.00000000 0.08610000 0.01000000
vn -0.00000000 0.00000000 -1.00000000
v 0.08610000 0.00000000 0.01000000
vn -0.00000000 0.00000000 -1.00000000
f 16/16/16 17/17/17 18/18/18
v 0.05392396 -0.05392396 0.17500000
vn 0.00000000 0.00000000 1.00000000
v 0.07626000 0.00000000 0.17500000
vn 0.00000000 0.00000000 1.00000000
v 0.05392396 0.05392396 0.17500000
vn 0.00000000 0.00000000 1.00000000
f 19/19/19 20/20/20 21/21/21
v 0.05392396 0.05392396 0.17500000
vn -0.00000000 0.00000000 1.00000000
v 0.00000000 0.07626000 0.17500000
vn -0.00000000 0.00000000 1.00000000
v -0.05392396 0.05392396 0.17500000
vn -0.00000000 0.00000000 1.00000000
f 22/22/22 23/23/23 24/24/24
v -0.05392396 0.05392396 0.17500000
vn 0.00000000 -0.00000000 1.00000000
v -0.07626000 0.00000000 0.17500000
vn 0.00000000 -0.00000000 1.00000000
v -0.05392396 -0.05392396 0.17500000
vn 0.00000000 -0.00000000 1.00000000
f 25/25/25 26/26/26 27/27/27
v -0.05392396 -0.05392396 0.17500000
vn 0.00000000 0.00000000 1.00000000
v -0.00000000 -0.07626000 0.17500000
vn 0.00000000 0.00000000 1.00000000
v 0.05392396 -0.05392396 0.17500000
vn 0.00000000 0.00000000 1.00000000
f 28/28/28 29/29/29 30/30/30
v 0.05392396 -0.05392396 0.17500000
vn -0.00000000 0.00000000 1.00000000
v 0.05392396 0.05392396 0.17500000
vn -0.00000000 0.00000000 1.00000000
v -0.05392396 0.05392396 0.17500000
vn -0.00000000 0.00000000 1.00000000
f 31/31/31 32/32/32 33/33/33
v -0.05392396 0.05392396 0.17500000
vn 0.00000000 -0.00000000 1.00000000
v -0.05392396 -0.05392396 0.17500000
vn 0.00000000 -0.00000000 1.00000000
v 0.05392396 -0.05392396 0.17500000
vn 0.00000000 -0.00000000 1.00000000
f 34/34/34 35/35/35 36/36/36
v 0.08610000 0.00000000 0.01000000
vn 0.92000264 0.38107750 -0.09151605
v 0.06088189 0.06088189 0.01000000
vn 0.92000264 0.38107750 -0.09151605
v 0.07424621 0.07424621 0.20000000
vn 0.92000264 0.38107750 -0.09151605
f 37/37/37 38/38/38 39/39/39
v 0.08610000 0.00000000 0.01000000
vn 0.92000258 0.38107750 -0.09151604
v 0.07424621 0.07424621 0.20000000
vn 0.92000258 0.38107750 -0.09151604
v 0.10500000 0.00000000 0.20000000
vn 0.92000258 0.38107750 -0.09151604
f 40/40/40 41/41/41 42/42/42
v 0.06088189 0.06088189 0.01000000
vn 0.38107750 0.92000264 -0.09151605
v 0.00000000 0.08610000 0.01000000
vn 0.38107750 0.92000264 -0.09151605
v 0.00000000 0.10500000 0.20000000
vn 0.38107750 0.92000264 -0.09151605
f 43/43/43 44/44/44 45/45/45
v 0.06088189 0.06088189 0.01000000
vn 0.38107750 0.92000258 -0.09151606
v 0.00000000 0.10500000 0.20000000
vn 0.38107750 0.92000258 -0.09151606
v 0.07424621 0.07424621 0.20000000
vn 0.38107750 0.92000258 -0.09151606
f 46/46/46 47/47/47 48/48/48
v 0.00000000 0.08610000 0.01000000
vn -0.38107750 0.92000264 -0.09151605
v -0.06088189 0.06088189 0.01000000
vn -0.38107750 0.92000264 -0.09151605
v -0.07424621 0.07424621 0.20000000
vn -0.38107750 0.92000264 -0.09151605
f 49/49/49 50/50/50 51/51/51
v 0.00000000 0.08610000 0.01000000
vn -0.38107750 0.92000258 -0.09151604
v -0.07424621 0.07424621 0.20000000
vn -0.38107750 0.92000258 -0.09151604
v 0.00000000 0.10500000 0.20000000
vn -0.38107750 0.92000258 -0.09151604
f 52/52/52 53/53/53 54/54/54
v -0.06088189 0.06088189 0.01000000
vn -0.92000264 0.38107750 -0.09151605
v -0.08610000 0.00000000 0.01000000
vn -0.92000264 0.38107750 -0.09151605
v -0.10500000 0.00000000 0.20000000
vn -0.92000264 0.38107750 -0.09151605
f 55/55/55 56/56/56 57/57/57
v -0.06088189 0.06088189 0.01000000
vn -0.92000258 0.38107750 -0.09151606
v -0.10500000 0.00000000 0.20000000
vn -0.92000258 0.38107750 -0.09151606
v -0.07424621 0.07424621 0.20000000
vn -0.92000258 0.38107750 -0.09151606
f 58/58/58 59/59/59 60/60/60
v -0.08610000 0.00000000 0.01000000
vn -0.92000264 -0.38107750 -0.09151605
v -0.06088189 -0.06088189 0.01000000
vn -0.92000264 -0.38107750 -0.09151605
v -0.07424621 -0.07424621 0.20000000
vn -0.92000264 -0.38107750 -0.09151605
f 61/61/61 62/62/62 63/63/63
v -0.08610000 0.00000000 0.01000000
vn -0.92000258 -0.38107750 -0.09151604
v -0.07424621 -0.07424621 0.20000000
vn -0.92000258 -0.38107750 -0.09151604
v -0.10500000 0.00000000 0.20000000
vn -0.92000258 -0.38107750 -0.09151604
f 64/64/64 65/65/65 66/66/66
v -0.06088189 -0.06088189 0.01000000
vn -0.38107750 -0.92000264 -0.09151605
v -0.00000000 -0.08610000 0.01000000
vn -0.38107750 -0.92000264 -0.09151605
v -0.00000000 -0.10500000 0.20000000
vn -0.38107750 -0.92000264 -0.09151605
f 67/67/67 68/68/68 69/69/69
v -0.06088189 -0.06088189 0.01000000
vn -0.38107750 -0.92000258 -0.09151606
v -0.00000000 -0.10500000 0.20000000
vn -0.38107750 -0.92000258 -0.09151606
v -0.07424621 -0.07424621 0.20000000
vn -0.38107750 -0.92000258 -0.09151606
f 70/70/70 71/71/71 72/72/72
v -0.00000000 -0.08610000 0.01000000
vn 0.38107750 -0.92000264 -0.09151605
v 0.06088189 -0.06088189 0.01000000
vn 0.38107750 -0.92000264 -0.09151605
v 0.07424621 -0.07424621 0.20000000
vn 0.38107750 -0.92000264 -0.09151605
f 73/73/73 74/74/74 75/75/75
v -0.00000000 -0.08610000 0.01000000
vn 0.38107750 -0.92000258 -0.09151604
v 0.07424621 -0.07424621 0.20000000
vn 0.38107750 -0.92000258 -0.09151604
v -0.00000000 -0.10500000 0.20000000
vn 0.38107750 -0.92000258 -0.09151604
f 76/76/76 77/77/77 78/78/78
v 0.06088189 -0.06088189 0.01000000
vn 0.92000264 -0.38107750 -0.09151605
v 0.08610000 0.00000000 0.01000000
vn 0.92000264 -0.38107750 -0.09151605
v 0.10500000 0.00000000 0.20000000
vn 0.92000264 -0.38107750 -0.09151605
f 79/79/79 80/80/80 81/81/81
v 0.06088189 -0.06088189 0.01000000
vn 0.92000258 -0.38107750 -0.09151606
v 0.10500000 0.00000000 0.20000000
vn 0.92000258 -0.38107750 -0.09151606
v 0.07424621 -0.07424621 0.20000000
vn 0.92000258 -0.38107750 -0.09151606
f 82/82/82 83/83/83 84/84/84
v 0.10500000 0.00000000 0.20000000
vn -0.00000000 0.00000000 0.99999994
v 0.07424621 0.07424621 0.20000000
vn -0.00000000 0.00000000 0.99999994
v 0.06576093 0.06576093 0.20000000
vn -0.00000000 0.00000000 0.99999994
f 85/85/85 86/86/86 87/87/87
v 0.10500000 0.00000000 0.20000000
vn -0.00000000 -0.00000000 0.99999994
v 0.06576093 0.06576093 0.20000000
vn -0.00000000 -0.00000000 0.99999994
v 0.09300000 0.00000000 0.20000000
vn -0.00000000 -0.00000000 0.99999994
f 88/88/88 89/89/89 90/90/90
v 0.07424621 0.07424621 0.20000000
vn -0.00000000 0.00000000 1.00000000
v 0.00000000 0.10500000 0.20000000
vn -0.00000000 0.00000000 1.00000000
v 0.00000000 0.09300000 0.20000000
vn -0.00000000 0.00000000 1.00000000
f 91/91/91 92/92/92 93/93/93
v 0.07424621 0.07424621 0.20000000
vn -0.00000000 -0.00000000 1.00000000
v 0.00000000 0.09300000 0.20000000
vn -0.00000000 -0.00000000 1.00000000
v 0.06576093 0.06576093 0.20000000
vn -0.00000000 -0.00000000 1.00000000
f 94/94/94 95/95/95 96/96/96
v 0.00000000 0.10500000 0.20000000
vn 0.00000000 -0.00000000 0.99999994
v -0.07424621 0.07424621 0.20000000
vn 0.00000000 -0.00000000 0.99999994
v -0.06576093 0.06576093 0.20000000
vn 0.00000000 -0.00000000 0.99999994
f 97/97/97 98/98/98 99/99/99
v 0.00000000 0.10500000 0.20000000
vn 0.00000000 -0.00000000 0.99999994
v -0.06576093 0.06576093 0.20000000
vn 0.00000000 -0.00000000 0.99999994
v 0.00000000 0.09300000 0.20000000
vn 0.00000000 -0.00000000 0.99999994
f 100/100/100 101/101/101 102/102/102
v -0.07424621 0.07424621 0.20000000
vn 0.00000000 -0.00000000 1.00000000
v -0.10500000 0.00000000 0.20000000
vn 0.00000000 -0.00000000 1.00000000
v -0.09300000 0.00000000 0.20000000
vn 0.00000000 -0.00000000 1.00000000
f 103/103/103 104/104/104 105/105/105
v -0.07424621 0.07424621 0.20000000
vn 0.00000000 -0.00000000 1.00000000
v -0.09300000 0.00000000 0.20000000
vn 0.00000000 -0.00000000 1.00000000
v -0.06576093 0.06576093 0.20000000
vn 0.00000000 -0.00000000 1.00000000
f 106/106/106 107/107/107 108/108/108
v -0.10500000 0.00000000 0.20000000
vn 0.00000000 0.00000000 0.99999994
v -0.07424621 -0.07424621 0.20000000
vn 0.00000000 0.00000000 0.99999994
v -0.06576093 -0.06576093 0.20000000
vn 0.00000000 0.00000000 0.99999994
f 109/109/109 110/110/110 111/111/111
v -0.10500000 0.00000000 0.20000000
vn 0.00000000 0.00000000 0.99999994
v -0.06576093 -0.06576093 0.20000000
vn 0.00000000 0.00000000 0.99999994
v -0.09300000 0.00000000 0.20000000
vn 0.00000000 0.00000000 0.99999994
f 112/112/112 113/113/113 114/114/114
v -0.07424621 -0.07424621 0.20000000
vn 0.00000000 0.00000000 1.00000000
v -0.00000000 -0.10500000 0.20000000
vn 0.00000000 0.00000000 1.00000000
v -0.00000000 -0.09300000 0.20000000
vn 0.00000000 0.00000000 1.00000000
f 115/115/115 116/116/116 117/117/117
v -0.07424621 -0.07424621 0.20000000
vn 0.00000000 0.00000000 1.00000000
v -0.00000000 -0.09300000 0.20000000
vn 0.00000000 0.00000000 1.00000000
v -0.06576093 -0.06576093 0.20000000
vn 0.00000000 0.00000000 1.00000000
f 118/118/118 119/119/119 120/120/120
v -0.00000000 -0.10500000 0.20000000
vn 0.00000000 0.00000000 0.99999994
v 0.07424621 -0.07424621 0.20000000
vn 0.00000000 0.00000000 0.99999994
v 0.06576093 -0.06576093 0.20000000
vn 0.00000000 0.00000000 0.99999994
f 121/121/121 122/122/122 123/123/123
v -0.00000000 -0.10500000 0.20000000
vn -0.00000000 0.00000000 0.99999994
v 0.06576093 -0.06576093 0.20000000
vn -0.00000000 0.00000000 0.99999994
v -0.00000000 -0.09300000 0.20000000
vn -0.00000000 0.00000000 0.99999994
f 124/124/124 125/125/125 126/126/126
v 0.07424621 -0.07424621 0.20000000
vn -0.00000000 0.00000000 1.00000000
v 0.10500000 0.00000000 0.20000000
vn -0.00000000 0.00000000 1.00000000
v 0.09300000 0.00000000 0.20000000
vn -0.00000000 0.00000000 1.00000000
f 127/127/127 128/128/128 129/129/129
v 0.07424621 -0.07424621 0.20000000
vn -0.00000000 0.00000000 1.00000000
v 0.09300000 0.00000000 0.20000000
vn -0.00000000 0.00000000 1.00000000
v 0.06576093 -0.06576093 0.20000000
vn -0.00000000 0.00000000 1.00000000
f 130/130/130 131/131/131 132/132/132
v 0.09300000 0.00000000 0.20000000
vn -0.78568953 -0.32544327 0.52609766
v 0.06576093 0.06576093 0.20000000
vn -0.78568953 -0.32544327 0.52609766
v 0.05392396 0.05392396 0.17500000
vn -0.78568953 -0.32544327 0.52609766
f 133/133/133 134/134/134 135/135/135
v 0.09300000 0.00000000 0.20000000
vn -0.78568953 -0.32544324 0.52609760
v 0.05392396 0.05392396 0.17500000
vn -0.78568953 -0.32544324 0.52609760
v 0.07626000 0.00000000 0.17500000
vn -0.78568953 -0.32544324 0.52609760
f 136/136/136 137/137/137 138/138/138
v 0.06576093 0.06576093 0.20000000
vn -0.32544327 -0.78568953 0.52609766
v 0.00000000 0.09300000 0.20000000
vn -0.32544327 -0.78568953 0.52609766
v 0.00000000 0.07626000 0.17500000
vn -0.32544327 -0.78568953 0.52609766
f 139/139/139 140/140/140 141/141/141
v 0.06576093 0.06576093 0.20000000
vn -0.32544324 -0.78568953 0.52609760
v 0.00000000 0.07626000 0.17500000
vn -0.32544324 -0.78568953 0.52609760
v 0.05392396 0.05392396 0.17500000
vn -0.32544324 -0.78568953 0.52609760
f 142/142/142 143/143/143 144/144/144
v 0.00000000 0.09300000 0.20000000
vn 0.32544327 -0.78568953 0.52609766
v -0.06576093 0.06576093 0.20000000
vn 0.32544327 -0.78568953 0.52609766
v -0.05392396 0.05392396 0.17500000
vn 0.32544327 -0.78568953 0.52609766
f 145/145/145 146/146/146 147/147/147
v 0.00000000 0.09300000 0.20000000
vn 0.32544324 -0.78568953 0.52609760
v -0.05392396 0.05392396 0.17500000
vn 0.32544324 -0.78568953 0.52609760
v 0.00000000 0.07626000 0.17500000
vn 0.32544324 -0.78568953 0.52609760
f 148/148/148 149/149/149 150/150/150
v -0.06576093 0.06576093 0.20000000
vn 0.78568953 -0.32544327 0.52609766
v -0.09300000 0.00000000 0.20000000
vn 0.78568953 -0.32544327 0.52609766
v -0.07626000 0.00000000 0.17500000
vn 0.78568953 -0.32544327 0.52609766
f 151/151/151 152/152/152 153/153/153
v -0.06576093 0.06576093 0.20000000
vn 0.78568953 -0.32544324 0.52609760
v -0.07626000 0.00000000 0.17500000
vn 0.78568953 -0.32544324 0.52609760
v -0.05392396 0.05392396 0.17500000
vn 0.78568953 -0.32544324 0.52609760
f 154/154/154 155/155/155 156/156/156
v -0.09300000 0.00000000 0.20000000
vn 0.78568953 0.32544327 0.52609766
v -0.06576093 -0.06576093 0.20000000
vn 0.78568953 0.32544327 0.52609766
v -0.05392396 -0.05392396 0.17500000
vn 0.78568953 0.32544327 0.52609766
f 157/157/157 158/158/158 159/159/159
v -0.09300000 0.00000000 0.20000000
vn 0.78568953 0.32544324 0.52609760
v -0.05392396 -0.05392396 0.17500000
vn 0.78568953 0.32544324 0.52609760
v -0.07626000 0.00000000 0.17500000
vn 0.78568953 0.32544324 0.52609760
f 160/160/160 161/161/161 162/162/162
v -0.06576093 -0.06576093 0.20000000
vn 0.32544327 0.78568953 0.52609766
v -0.00000000 -0.09300000 0.20000000
vn 0.32544327 0.78568953 0.52609766
v -0.00000000 -0.07626000 0.17500000
vn 0.32544327 0.78568953 0.52609766
f 163/163/163 164/164/164 165/165/165
v -0.06576093 -0.06576093 0.20000000
vn 0.32544324 0.78568953 0.52609760
v -0.00000000 -0.07626000 0.17500000
vn 0.32544324 0.78568953 0.52609760
v -0.05392396 -0.05392396 0.17500000
vn 0.32544324 0.78568953 0.52609760
f 166/166/166 167/167/167 168/168/168
v -0.00000000 -0.09300000 0.20000000
vn -0.32544327 0.78568953 0.52609766
v 0.06576093 -0.06576093 0.20000000
vn -0.32544327 0.78568953 0.52609766
v 0.05392396 -0.05392396 0.17500000
vn -0.32544327 0.78568953 0.52609766
f 169/169/169 170/170/170 171/171/171
v -0.00000000 -0.09300000 0.20000000
vn -0.32544324 0.78568953 0.52609760
v 0.05392396 -0.05392396 0.17500000
vn -0.32544324 0.78568953 0.52609760
v -0.00000000 -0.07626000 0.17500000
vn -0.32544324 0.78568953 0.52609760
f 172/172/172 173/173/173 174/174/174
v 0.06576093 -0.06576093 0.20000000
vn -0.78568953 0.32544327 0.52609766
v 0.09300000 0.00000000 0.20000000
vn -0.78568953 0.32544327 0.52609766
v 0.07626000 0.00000000 0.17500000
vn -0.78568953 0.32544327 0.52609766
f 175/175/175 176/176/176 177/177/177
v 0.06576093 -0.06576093 0.20000000
vn -0.78568953 0.32544324 0.52609760
v 0.07626000 0.00000000 0.17500000
vn -0.78568953 0.32544324 0.52609760
v 0.05392396 -0.05392396 0.17500000
vn -0.78568953 0.32544324 0.52609760
f 178/178/178 179/179/179 180/180/180
o foliage_PNG_crossed_cards
v -0.37676471 0.00000000 0.17500000
vn -0.00000000 -1.00000000 -0.00000000
v 0.37676471 0.00000000 0.17500000
vn -0.00000000 -1.00000000 -0.00000000
v 0.37676471 0.00000000 1.05823529
vn -0.00000000 -1.00000000 -0.00000000
f 181/181/181 182/182/182 183/183/183
v -0.37676471 0.00000000 0.17500000
vn 0.00000000 -1.00000000 -0.00000000
v 0.37676471 0.00000000 1.05823529
vn 0.00000000 -1.00000000 -0.00000000
v -0.37676471 0.00000000 1.05823529
vn 0.00000000 -1.00000000 -0.00000000
f 184/184/184 185/185/185 186/186/186
v 0.00000000 -0.37676471 0.17500000
vn 1.00000000 0.00000000 0.00000000
v 0.00000000 0.37676471 0.17500000
vn 1.00000000 0.00000000 0.00000000
v 0.00000000 0.37676471 1.05823529
vn 1.00000000 0.00000000 0.00000000
f 187/187/187 188/188/188 189/189/189
v 0.00000000 -0.37676471 0.17500000
vn 1.00000000 -0.00000000 0.00000000
v 0.00000000 0.37676471 1.05823529
vn 1.00000000 -0.00000000 0.00000000
v 0.00000000 -0.37676471 1.05823529
vn 1.00000000 -0.00000000 0.00000000
f 190/190/190 191/191/191 192/192/192
