# Physical vanilla furniture; Z up; per-tile mesh.
# Tile-local game axes; ObjReader performs the scene conversion.
mtllib ../Materials/pz_painting_dr_oids.mtl
usemtl UV_Base
v -0.2968750 -0.4990000 1.2056310
vn 0.00000000 0.00000000 -1.00000000
v -0.2968750 -0.4750000 1.2056310
vn 0.00000000 0.00000000 -1.00000000
v 0.2968750 -0.4750000 1.2056310
vn 0.00000000 0.00000000 -1.00000000
vt 0.782623422 0.007812500
vt 0.800781250 0.007812500
vt 0.800781250 0.457029609
vt 0.782623422 0.007812500
vt 0.800781250 0.457029609
vt 0.782623422 0.457029609
vt 0.765625000 0.007812500
vt 0.765625000 0.457029609
vt 0.007911682 0.457029609
vt 0.765625000 0.007812500
vt 0.007911682 0.457029609
vt 0.007911682 0.007812500
vt 0.765625000 0.937500000
vt 0.765625000 0.955657828
vt 0.007911682 0.955657828
vt 0.765625000 0.937500000
vt 0.007911682 0.955657828
vt 0.007911682 0.937500000
vt 0.007911682 0.921873359
vt 0.007911682 0.472656250
vt 0.765625000 0.472656250
vt 0.007911682 0.921873359
vt 0.765625000 0.472656250
vt 0.765625000 0.921873359
vt 0.007911682 0.990814078
vt 0.007911682 0.972656250
vt 0.765625000 0.972656250
vt 0.007911682 0.990814078
vt 0.765625000 0.972656250
vt 0.765625000 0.990814078
vt 0.835937500 0.007812500
vt 0.835937500 0.457029609
vt 0.817779672 0.457029609
vt 0.835937500 0.007812500
vt 0.817779672 0.457029609
vt 0.817779672 0.007812500
f 1/1/1 2/2/2 3/3/3
v -0.2968750 -0.4990000 1.2056310
vn 0.00000000 0.00000000 -1.00000000
v 0.2968750 -0.4750000 1.2056310
vn 0.00000000 0.00000000 -1.00000000
v 0.2968750 -0.4990000 1.2056310
vn 0.00000000 0.00000000 -1.00000000
f 4/4/4 5/5/5 6/6/6
v -0.2968750 -0.4990000 1.2056310
vn 0.00000000 -1.00000000 0.00000000
v 0.2968750 -0.4990000 1.2056310
vn 0.00000000 -1.00000000 0.00000000
v 0.2968750 -0.4990000 2.2071340
vn 0.00000000 -1.00000000 0.00000000
f 7/7/7 8/8/8 9/9/9
v -0.2968750 -0.4990000 1.2056310
vn 0.00000000 -1.00000000 0.00000000
v 0.2968750 -0.4990000 2.2071340
vn 0.00000000 -1.00000000 0.00000000
v -0.2968750 -0.4990000 2.2071340
vn 0.00000000 -1.00000000 0.00000000
f 10/10/10 11/11/11 12/12/12
v 0.2968750 -0.4990000 1.2056310
vn 1.00000000 0.00000000 0.00000000
v 0.2968750 -0.4750000 1.2056310
vn 1.00000000 0.00000000 0.00000000
v 0.2968750 -0.4750000 2.2071340
vn 1.00000000 0.00000000 0.00000000
f 13/13/13 14/14/14 15/15/15
v 0.2968750 -0.4990000 1.2056310
vn 1.00000000 0.00000000 0.00000000
v 0.2968750 -0.4750000 2.2071340
vn 1.00000000 0.00000000 0.00000000
v 0.2968750 -0.4990000 2.2071340
vn 1.00000000 0.00000000 0.00000000
f 16/16/16 17/17/17 18/18/18
v 0.2968750 -0.4750000 1.2056310
vn 0.00000000 1.00000000 0.00000000
v -0.2968750 -0.4750000 1.2056310
vn 0.00000000 1.00000000 0.00000000
v -0.2968750 -0.4750000 2.2071340
vn 0.00000000 1.00000000 0.00000000
f 19/19/19 20/20/20 21/21/21
v 0.2968750 -0.4750000 1.2056310
vn 0.00000000 1.00000000 -0.00000000
v -0.2968750 -0.4750000 2.2071340
vn 0.00000000 1.00000000 -0.00000000
v 0.2968750 -0.4750000 2.2071340
vn 0.00000000 1.00000000 -0.00000000
f 22/22/22 23/23/23 24/24/24
v -0.2968750 -0.4750000 1.2056310
vn -1.00000000 0.00000000 0.00000000
v -0.2968750 -0.4990000 1.2056310
vn -1.00000000 0.00000000 0.00000000
v -0.2968750 -0.4990000 2.2071340
vn -1.00000000 0.00000000 0.00000000
f 25/25/25 26/26/26 27/27/27
v -0.2968750 -0.4750000 1.2056310
vn -1.00000000 0.00000000 0.00000000
v -0.2968750 -0.4990000 2.2071340
vn -1.00000000 0.00000000 0.00000000
v -0.2968750 -0.4750000 2.2071340
vn -1.00000000 0.00000000 0.00000000
f 28/28/28 29/29/29 30/30/30
v -0.2968750 -0.4990000 2.2071340
vn 0.00000000 0.00000000 1.00000000
v 0.2968750 -0.4990000 2.2071340
vn 0.00000000 0.00000000 1.00000000
v 0.2968750 -0.4750000 2.2071340
vn 0.00000000 0.00000000 1.00000000
f 31/31/31 32/32/32 33/33/33
v -0.2968750 -0.4990000 2.2071340
vn 0.00000000 0.00000000 1.00000000
v 0.2968750 -0.4750000 2.2071340
vn 0.00000000 0.00000000 1.00000000
v -0.2968750 -0.4750000 2.2071340
vn 0.00000000 0.00000000 1.00000000
f 34/34/34 35/35/35 36/36/36
