# G009-r3: solid simple pot; native PNG foliage, no leaf/stem geometry.
mtllib ../Materials/pz_plant_native_6.mtl
usemtl UV_Base
o pot_soil_and_rim
v 0.05904000 0.00000000 0.01000000
vn 0.00000000 0.00000000 -1.00000000
v 0.04174758 -0.04174758 0.01000000
vn 0.00000000 0.00000000 -1.00000000
v -0.00000000 -0.05904000 0.01000000
vn 0.00000000 0.00000000 -1.00000000
vt 0.461872211 0.785623606
vt 0.433132465 0.855007465
vt 0.363748606 0.883747211
vt 0.363748606 0.883747211
vt 0.294364746 0.855007465
vt 0.265625000 0.785623606
vt 0.265625000 0.785623606
vt 0.294364746 0.716239746
vt 0.363748606 0.687500000
vt 0.363748606 0.687500000
vt 0.433132465 0.716239746
vt 0.461872211 0.785623606
vt 0.461872211 0.785623606
vt 0.363748606 0.883747211
vt 0.265625000 0.785623606
vt 0.265625000 0.785623606
vt 0.363748606 0.687500000
vt 0.461872211 0.785623606
vt 0.620058321 0.711449772
vt 0.644008093 0.769269671
vt 0.620058321 0.827089571
vt 0.620058321 0.827089571
vt 0.562238421 0.851039343
vt 0.504418522 0.827089571
vt 0.504418522 0.827089571
vt 0.480468750 0.769269671
vt 0.504418522 0.711449772
vt 0.504418522 0.711449772
vt 0.562238421 0.687500000
vt 0.620058321 0.711449772
vt 0.620058321 0.711449772
vt 0.620058321 0.827089571
vt 0.504418522 0.827089571
vt 0.504418522 0.827089571
vt 0.504418522 0.711449772
vt 0.620058321 0.711449772
vt 0.007812500 0.442718301
vt 0.007812500 0.367617749
vt 0.324216090 0.359375000
vt 0.007812500 0.442718301
vt 0.324216090 0.359375000
vt 0.324216089 0.450961046
vt 0.339843750 0.442718297
vt 0.339843750 0.367617745
vt 0.656247339 0.359375000
vt 0.339843750 0.442718297
vt 0.656247339 0.359375000
vt 0.656247340 0.450961046
vt 0.671875000 0.442718301
vt 0.671875000 0.367617749
vt 0.988278590 0.359375000
vt 0.671875000 0.442718301
vt 0.988278590 0.359375000
vt 0.988278589 0.450961046
vt 0.007812500 0.552093297
vt 0.007812500 0.476992745
vt 0.324216089 0.468750000
vt 0.007812500 0.552093297
vt 0.324216089 0.468750000
vt 0.324216090 0.560336046
vt 0.339843750 0.552093301
vt 0.339843750 0.476992749
vt 0.656247340 0.468750000
vt 0.339843750 0.552093301
vt 0.656247340 0.468750000
vt 0.656247339 0.560336046
vt 0.671875000 0.552093297
vt 0.671875000 0.476992745
vt 0.988278589 0.468750000
vt 0.671875000 0.552093297
vt 0.988278589 0.468750000
vt 0.988278590 0.560336046
vt 0.007812500 0.661468301
vt 0.007812500 0.586367749
vt 0.324216090 0.578125000
vt 0.007812500 0.661468301
vt 0.324216090 0.578125000
vt 0.324216089 0.669711046
vt 0.339843750 0.661468297
vt 0.339843750 0.586367745
vt 0.656247339 0.578125000
vt 0.339843750 0.661468297
vt 0.656247339 0.578125000
vt 0.656247340 0.669711046
vt 0.247138367 0.807162934
vt 0.212089909 0.891777409
vt 0.197987499 0.877674999
vt 0.247138367 0.807162934
vt 0.197987499 0.877674999
vt 0.227194545 0.807162934
vt 0.212089909 0.891777409
vt 0.127475434 0.926825867
vt 0.127475434 0.906882045
vt 0.212089909 0.891777409
vt 0.127475434 0.906882045
vt 0.197987499 0.877674999
vt 0.127475434 0.926825867
vt 0.042860959 0.891777409
vt 0.056963369 0.877674999
vt 0.127475434 0.926825867
vt 0.056963369 0.877674999
vt 0.127475434 0.906882045
vt 0.042860959 0.891777409
vt 0.007812500 0.807162934
vt 0.027756322 0.807162934
vt 0.042860959 0.891777409
vt 0.027756322 0.807162934
vt 0.056963369 0.877674999
vt 0.007812500 0.807162934
vt 0.042860959 0.722548459
vt 0.056963369 0.736650869
vt 0.007812500 0.807162934
vt 0.056963369 0.736650869
vt 0.027756322 0.807162934
vt 0.042860959 0.722548459
vt 0.127475434 0.687500000
vt 0.127475434 0.707443822
vt 0.042860959 0.722548459
vt 0.127475434 0.707443822
vt 0.056963369 0.736650869
vt 0.127475434 0.687500000
vt 0.212089909 0.722548459
vt 0.197987499 0.736650869
vt 0.127475434 0.687500000
vt 0.197987499 0.736650869
vt 0.127475434 0.707443822
vt 0.212089909 0.722548459
vt 0.247138367 0.807162934
vt 0.227194545 0.807162934
vt 0.212089909 0.722548459
vt 0.227194545 0.807162934
vt 0.197987499 0.736650869
vt 0.730468750 0.578125000
vt 0.718885919 0.653562662
vt 0.675709875 0.639983888
vt 0.730468750 0.578125000
vt 0.675709875 0.639983888
vt 0.685207794 0.578125001
vt 0.761511456 0.653562662
vt 0.749928625 0.578125000
vt 0.795189581 0.578125002
vt 0.761511456 0.653562662
vt 0.795189581 0.578125002
vt 0.804687500 0.639983889
vt 0.824147375 0.653562662
vt 0.835730206 0.578125000
vt 0.878906250 0.591703774
vt 0.824147375 0.653562662
vt 0.878906250 0.591703774
vt 0.869408331 0.653562661
vt 0.909948956 0.653562662
vt 0.898366125 0.578125000
vt 0.943627081 0.578125002
vt 0.909948956 0.653562662
vt 0.943627081 0.578125002
vt 0.953125000 0.639983889
vt 0.663991125 0.762937662
vt 0.675573956 0.687500000
vt 0.718750000 0.701078774
vt 0.663991125 0.762937662
vt 0.718750000 0.701078774
vt 0.709252081 0.762937661
vt 0.781385919 0.687500000
vt 0.792968750 0.762937662
vt 0.747707794 0.762937661
vt 0.781385919 0.687500000
vt 0.747707794 0.762937661
vt 0.738209875 0.701078774
vt 0.867187500 0.687500000
vt 0.855604669 0.762937662
vt 0.812428625 0.749358888
vt 0.867187500 0.687500000
vt 0.812428625 0.749358888
vt 0.821926544 0.687500001
vt 0.929823419 0.687500000
vt 0.941406250 0.762937662
vt 0.896145294 0.762937661
vt 0.929823419 0.687500000
vt 0.896145294 0.762937661
vt 0.886647375 0.701078774
vt 0.453125000 0.007812500
vt 0.453125000 0.342868714
vt 0.010372162 0.342868714
vt 0.453125000 0.007812500
vt 0.010372162 0.342868714
vt 0.010372162 0.007812500
vt 0.914062500 0.007812500
vt 0.914062500 0.342868714
vt 0.471309662 0.342868714
vt 0.914062500 0.007812500
vt 0.471309662 0.342868714
vt 0.471309662 0.007812500
f 1/1/1 2/2/2 3/3/3
v -0.00000000 -0.05904000 0.01000000
vn 0.00000000 0.00000000 -1.00000000
v -0.04174758 -0.04174758 0.01000000
vn 0.00000000 0.00000000 -1.00000000
v -0.05904000 0.00000000 0.01000000
vn 0.00000000 0.00000000 -1.00000000
f 4/4/4 5/5/5 6/6/6
v -0.05904000 0.00000000 0.01000000
vn 0.00000000 0.00000000 -1.00000000
v -0.04174758 0.04174758 0.01000000
vn 0.00000000 0.00000000 -1.00000000
v 0.00000000 0.05904000 0.01000000
vn 0.00000000 0.00000000 -1.00000000
f 7/7/7 8/8/8 9/9/9
v 0.00000000 0.05904000 0.01000000
vn 0.00000000 0.00000000 -1.00000000
v 0.04174758 0.04174758 0.01000000
vn 0.00000000 0.00000000 -1.00000000
v 0.05904000 0.00000000 0.01000000
vn 0.00000000 0.00000000 -1.00000000
f 10/10/10 11/11/11 12/12/12
v 0.05904000 0.00000000 0.01000000
vn 0.00000000 0.00000000 -1.00000000
v -0.00000000 -0.05904000 0.01000000
vn 0.00000000 0.00000000 -1.00000000
v -0.05904000 0.00000000 0.01000000
vn 0.00000000 0.00000000 -1.00000000
f 13/13/13 14/14/14 15/15/15
v -0.05904000 0.00000000 0.01000000
vn -0.00000000 0.00000000 -1.00000000
v 0.00000000 0.05904000 0.01000000
vn -0.00000000 0.00000000 -1.00000000
v 0.05904000 0.00000000 0.01000000
vn -0.00000000 0.00000000 -1.00000000
f 16/16/16 17/17/17 18/18/18
v 0.03478966 -0.03478966 0.17500000
vn 0.00000000 0.00000000 1.00000000
v 0.04920000 0.00000000 0.17500000
vn 0.00000000 0.00000000 1.00000000
v 0.03478966 0.03478966 0.17500000
vn 0.00000000 0.00000000 1.00000000
f 19/19/19 20/20/20 21/21/21
v 0.03478966 0.03478966 0.17500000
vn -0.00000000 0.00000000 1.00000000
v 0.00000000 0.04920000 0.17500000
vn -0.00000000 0.00000000 1.00000000
v -0.03478966 0.03478966 0.17500000
vn -0.00000000 0.00000000 1.00000000
f 22/22/22 23/23/23 24/24/24
v -0.03478966 0.03478966 0.17500000
vn 0.00000000 -0.00000000 1.00000000
v -0.04920000 0.00000000 0.17500000
vn 0.00000000 -0.00000000 1.00000000
v -0.03478966 -0.03478966 0.17500000
vn 0.00000000 -0.00000000 1.00000000
f 25/25/25 26/26/26 27/27/27
v -0.03478966 -0.03478966 0.17500000
vn 0.00000000 0.00000000 1.00000000
v -0.00000000 -0.04920000 0.17500000
vn 0.00000000 0.00000000 1.00000000
v 0.03478966 -0.03478966 0.17500000
vn 0.00000000 0.00000000 1.00000000
f 28/28/28 29/29/29 30/30/30
v 0.03478966 -0.03478966 0.17500000
vn -0.00000000 0.00000000 1.00000000
v 0.03478966 0.03478966 0.17500000
vn -0.00000000 0.00000000 1.00000000
v -0.03478966 0.03478966 0.17500000
vn -0.00000000 0.00000000 1.00000000
f 31/31/31 32/32/32 33/33/33
v -0.03478966 0.03478966 0.17500000
vn 0.00000000 -0.00000000 1.00000000
v -0.03478966 -0.03478966 0.17500000
vn 0.00000000 -0.00000000 1.00000000
v 0.03478966 -0.03478966 0.17500000
vn 0.00000000 -0.00000000 1.00000000
f 34/34/34 35/35/35 36/36/36
v 0.05904000 0.00000000 0.01000000
vn 0.92205048 0.38192579 -0.06289354
v 0.04174758 0.04174758 0.01000000
vn 0.92205048 0.38192579 -0.06289354
v 0.05091169 0.05091169 0.20000000
vn 0.92205048 0.38192579 -0.06289354
f 37/37/37 38/38/38 39/39/39
v 0.05904000 0.00000000 0.01000000
vn 0.92205048 0.38192579 -0.06289354
v 0.05091169 0.05091169 0.20000000
vn 0.92205048 0.38192579 -0.06289354
v 0.07200000 0.00000000 0.20000000
vn 0.92205048 0.38192579 -0.06289354
f 40/40/40 41/41/41 42/42/42
v 0.04174758 0.04174758 0.01000000
vn 0.38192579 0.92205048 -0.06289355
v 0.00000000 0.05904000 0.01000000
vn 0.38192579 0.92205048 -0.06289355
v 0.00000000 0.07200000 0.20000000
vn 0.38192579 0.92205048 -0.06289355
f 43/43/43 44/44/44 45/45/45
v 0.04174758 0.04174758 0.01000000
vn 0.38192579 0.92205048 -0.06289354
v 0.00000000 0.07200000 0.20000000
vn 0.38192579 0.92205048 -0.06289354
v 0.05091169 0.05091169 0.20000000
vn 0.38192579 0.92205048 -0.06289354
f 46/46/46 47/47/47 48/48/48
v 0.00000000 0.05904000 0.01000000
vn -0.38192579 0.92205048 -0.06289354
v -0.04174758 0.04174758 0.01000000
vn -0.38192579 0.92205048 -0.06289354
v -0.05091169 0.05091169 0.20000000
vn -0.38192579 0.92205048 -0.06289354
f 49/49/49 50/50/50 51/51/51
v 0.00000000 0.05904000 0.01000000
vn -0.38192579 0.92205048 -0.06289354
v -0.05091169 0.05091169 0.20000000
vn -0.38192579 0.92205048 -0.06289354
v 0.00000000 0.07200000 0.20000000
vn -0.38192579 0.92205048 -0.06289354
f 52/52/52 53/53/53 54/54/54
v -0.04174758 0.04174758 0.01000000
vn -0.92205048 0.38192579 -0.06289355
v -0.05904000 0.00000000 0.01000000
vn -0.92205048 0.38192579 -0.06289355
v -0.07200000 0.00000000 0.20000000
vn -0.92205048 0.38192579 -0.06289355
f 55/55/55 56/56/56 57/57/57
v -0.04174758 0.04174758 0.01000000
vn -0.92205048 0.38192579 -0.06289354
v -0.07200000 0.00000000 0.20000000
vn -0.92205048 0.38192579 -0.06289354
v -0.05091169 0.05091169 0.20000000
vn -0.92205048 0.38192579 -0.06289354
f 58/58/58 59/59/59 60/60/60
v -0.05904000 0.00000000 0.01000000
vn -0.92205048 -0.38192579 -0.06289354
v -0.04174758 -0.04174758 0.01000000
vn -0.92205048 -0.38192579 -0.06289354
v -0.05091169 -0.05091169 0.20000000
vn -0.92205048 -0.38192579 -0.06289354
f 61/61/61 62/62/62 63/63/63
v -0.05904000 0.00000000 0.01000000
vn -0.92205048 -0.38192579 -0.06289354
v -0.05091169 -0.05091169 0.20000000
vn -0.92205048 -0.38192579 -0.06289354
v -0.07200000 0.00000000 0.20000000
vn -0.92205048 -0.38192579 -0.06289354
f 64/64/64 65/65/65 66/66/66
v -0.04174758 -0.04174758 0.01000000
vn -0.38192579 -0.92205048 -0.06289355
v -0.00000000 -0.05904000 0.01000000
vn -0.38192579 -0.92205048 -0.06289355
v -0.00000000 -0.07200000 0.20000000
vn -0.38192579 -0.92205048 -0.06289355
f 67/67/67 68/68/68 69/69/69
v -0.04174758 -0.04174758 0.01000000
vn -0.38192579 -0.92205048 -0.06289354
v -0.00000000 -0.07200000 0.20000000
vn -0.38192579 -0.92205048 -0.06289354
v -0.05091169 -0.05091169 0.20000000
vn -0.38192579 -0.92205048 -0.06289354
f 70/70/70 71/71/71 72/72/72
v -0.00000000 -0.05904000 0.01000000
vn 0.38192579 -0.92205048 -0.06289354
v 0.04174758 -0.04174758 0.01000000
vn 0.38192579 -0.92205048 -0.06289354
v 0.05091169 -0.05091169 0.20000000
vn 0.38192579 -0.92205048 -0.06289354
f 73/73/73 74/74/74 75/75/75
v -0.00000000 -0.05904000 0.01000000
vn 0.38192579 -0.92205048 -0.06289354
v 0.05091169 -0.05091169 0.20000000
vn 0.38192579 -0.92205048 -0.06289354
v -0.00000000 -0.07200000 0.20000000
vn 0.38192579 -0.92205048 -0.06289354
f 76/76/76 77/77/77 78/78/78
v 0.04174758 -0.04174758 0.01000000
vn 0.92205048 -0.38192579 -0.06289355
v 0.05904000 0.00000000 0.01000000
vn 0.92205048 -0.38192579 -0.06289355
v 0.07200000 0.00000000 0.20000000
vn 0.92205048 -0.38192579 -0.06289355
f 79/79/79 80/80/80 81/81/81
v 0.04174758 -0.04174758 0.01000000
vn 0.92205048 -0.38192579 -0.06289354
v 0.07200000 0.00000000 0.20000000
vn 0.92205048 -0.38192579 -0.06289354
v 0.05091169 -0.05091169 0.20000000
vn 0.92205048 -0.38192579 -0.06289354
f 82/82/82 83/83/83 84/84/84
v 0.07200000 0.00000000 0.20000000
vn -0.00000000 0.00000000 1.00000000
v 0.05091169 0.05091169 0.20000000
vn -0.00000000 0.00000000 1.00000000
v 0.04242641 0.04242641 0.20000000
vn -0.00000000 0.00000000 1.00000000
f 85/85/85 86/86/86 87/87/87
v 0.07200000 0.00000000 0.20000000
vn -0.00000000 -0.00000000 1.00000000
v 0.04242641 0.04242641 0.20000000
vn -0.00000000 -0.00000000 1.00000000
v 0.06000000 0.00000000 0.20000000
vn -0.00000000 -0.00000000 1.00000000
f 88/88/88 89/89/89 90/90/90
v 0.05091169 0.05091169 0.20000000
vn -0.00000000 0.00000000 1.00000000
v 0.00000000 0.07200000 0.20000000
vn -0.00000000 0.00000000 1.00000000
v 0.00000000 0.06000000 0.20000000
vn -0.00000000 0.00000000 1.00000000
f 91/91/91 92/92/92 93/93/93
v 0.05091169 0.05091169 0.20000000
vn -0.00000000 -0.00000000 1.00000000
v 0.00000000 0.06000000 0.20000000
vn -0.00000000 -0.00000000 1.00000000
v 0.04242641 0.04242641 0.20000000
vn -0.00000000 -0.00000000 1.00000000
f 94/94/94 95/95/95 96/96/96
v 0.00000000 0.07200000 0.20000000
vn 0.00000000 -0.00000000 1.00000000
v -0.05091169 0.05091169 0.20000000
vn 0.00000000 -0.00000000 1.00000000
v -0.04242641 0.04242641 0.20000000
vn 0.00000000 -0.00000000 1.00000000
f 97/97/97 98/98/98 99/99/99
v 0.00000000 0.07200000 0.20000000
vn 0.00000000 -0.00000000 1.00000000
v -0.04242641 0.04242641 0.20000000
vn 0.00000000 -0.00000000 1.00000000
v 0.00000000 0.06000000 0.20000000
vn 0.00000000 -0.00000000 1.00000000
f 100/100/100 101/101/101 102/102/102
v -0.05091169 0.05091169 0.20000000
vn 0.00000000 -0.00000000 1.00000000
v -0.07200000 0.00000000 0.20000000
vn 0.00000000 -0.00000000 1.00000000
v -0.06000000 0.00000000 0.20000000
vn 0.00000000 -0.00000000 1.00000000
f 103/103/103 104/104/104 105/105/105
v -0.05091169 0.05091169 0.20000000
vn 0.00000000 -0.00000000 1.00000000
v -0.06000000 0.00000000 0.20000000
vn 0.00000000 -0.00000000 1.00000000
v -0.04242641 0.04242641 0.20000000
vn 0.00000000 -0.00000000 1.00000000
f 106/106/106 107/107/107 108/108/108
v -0.07200000 0.00000000 0.20000000
vn 0.00000000 0.00000000 1.00000000
v -0.05091169 -0.05091169 0.20000000
vn 0.00000000 0.00000000 1.00000000
v -0.04242641 -0.04242641 0.20000000
vn 0.00000000 0.00000000 1.00000000
f 109/109/109 110/110/110 111/111/111
v -0.07200000 0.00000000 0.20000000
vn 0.00000000 0.00000000 1.00000000
v -0.04242641 -0.04242641 0.20000000
vn 0.00000000 0.00000000 1.00000000
v -0.06000000 0.00000000 0.20000000
vn 0.00000000 0.00000000 1.00000000
f 112/112/112 113/113/113 114/114/114
v -0.05091169 -0.05091169 0.20000000
vn 0.00000000 0.00000000 1.00000000
v -0.00000000 -0.07200000 0.20000000
vn 0.00000000 0.00000000 1.00000000
v -0.00000000 -0.06000000 0.20000000
vn 0.00000000 0.00000000 1.00000000
f 115/115/115 116/116/116 117/117/117
v -0.05091169 -0.05091169 0.20000000
vn 0.00000000 0.00000000 1.00000000
v -0.00000000 -0.06000000 0.20000000
vn 0.00000000 0.00000000 1.00000000
v -0.04242641 -0.04242641 0.20000000
vn 0.00000000 0.00000000 1.00000000
f 118/118/118 119/119/119 120/120/120
v -0.00000000 -0.07200000 0.20000000
vn 0.00000000 0.00000000 1.00000000
v 0.05091169 -0.05091169 0.20000000
vn 0.00000000 0.00000000 1.00000000
v 0.04242641 -0.04242641 0.20000000
vn 0.00000000 0.00000000 1.00000000
f 121/121/121 122/122/122 123/123/123
v -0.00000000 -0.07200000 0.20000000
vn -0.00000000 0.00000000 1.00000000
v 0.04242641 -0.04242641 0.20000000
vn -0.00000000 0.00000000 1.00000000
v -0.00000000 -0.06000000 0.20000000
vn -0.00000000 0.00000000 1.00000000
f 124/124/124 125/125/125 126/126/126
v 0.05091169 -0.05091169 0.20000000
vn -0.00000000 0.00000000 1.00000000
v 0.07200000 0.00000000 0.20000000
vn -0.00000000 0.00000000 1.00000000
v 0.06000000 0.00000000 0.20000000
vn -0.00000000 0.00000000 1.00000000
f 127/127/127 128/128/128 129/129/129
v 0.05091169 -0.05091169 0.20000000
vn -0.00000000 0.00000000 1.00000000
v 0.06000000 0.00000000 0.20000000
vn -0.00000000 0.00000000 1.00000000
v 0.04242641 -0.04242641 0.20000000
vn -0.00000000 0.00000000 1.00000000
f 130/130/130 131/131/131 132/132/132
v 0.06000000 0.00000000 0.20000000
vn -0.85806197 -0.35542086 0.37068260
v 0.04242641 0.04242641 0.20000000
vn -0.85806197 -0.35542086 0.37068260
v 0.03478966 0.03478966 0.17500000
vn -0.85806197 -0.35542086 0.37068260
f 133/133/133 134/134/134 135/135/135
v 0.06000000 0.00000000 0.20000000
vn -0.85806191 -0.35542077 0.37068269
v 0.03478966 0.03478966 0.17500000
vn -0.85806191 -0.35542077 0.37068269
v 0.04920000 0.00000000 0.17500000
vn -0.85806191 -0.35542077 0.37068269
f 136/136/136 137/137/137 138/138/138
v 0.04242641 0.04242641 0.20000000
vn -0.35542086 -0.85806197 0.37068266
v 0.00000000 0.06000000 0.20000000
vn -0.35542086 -0.85806197 0.37068266
v 0.00000000 0.04920000 0.17500000
vn -0.35542086 -0.85806197 0.37068266
f 139/139/139 140/140/140 141/141/141
v 0.04242641 0.04242641 0.20000000
vn -0.35542083 -0.85806203 0.37068263
v 0.00000000 0.04920000 0.17500000
vn -0.35542083 -0.85806203 0.37068263
v 0.03478966 0.03478966 0.17500000
vn -0.35542083 -0.85806203 0.37068263
f 142/142/142 143/143/143 144/144/144
v 0.00000000 0.06000000 0.20000000
vn 0.35542086 -0.85806197 0.37068260
v -0.04242641 0.04242641 0.20000000
vn 0.35542086 -0.85806197 0.37068260
v -0.03478966 0.03478966 0.17500000
vn 0.35542086 -0.85806197 0.37068260
f 145/145/145 146/146/146 147/147/147
v 0.00000000 0.06000000 0.20000000
vn 0.35542077 -0.85806191 0.37068269
v -0.03478966 0.03478966 0.17500000
vn 0.35542077 -0.85806191 0.37068269
v 0.00000000 0.04920000 0.17500000
vn 0.35542077 -0.85806191 0.37068269
f 148/148/148 149/149/149 150/150/150
v -0.04242641 0.04242641 0.20000000
vn 0.85806197 -0.35542086 0.37068266
v -0.06000000 0.00000000 0.20000000
vn 0.85806197 -0.35542086 0.37068266
v -0.04920000 0.00000000 0.17500000
vn 0.85806197 -0.35542086 0.37068266
f 151/151/151 152/152/152 153/153/153
v -0.04242641 0.04242641 0.20000000
vn 0.85806203 -0.35542083 0.37068263
v -0.04920000 0.00000000 0.17500000
vn 0.85806203 -0.35542083 0.37068263
v -0.03478966 0.03478966 0.17500000
vn 0.85806203 -0.35542083 0.37068263
f 154/154/154 155/155/155 156/156/156
v -0.06000000 0.00000000 0.20000000
vn 0.85806197 0.35542086 0.37068260
v -0.04242641 -0.04242641 0.20000000
vn 0.85806197 0.35542086 0.37068260
v -0.03478966 -0.03478966 0.17500000
vn 0.85806197 0.35542086 0.37068260
f 157/157/157 158/158/158 159/159/159
v -0.06000000 0.00000000 0.20000000
vn 0.85806191 0.35542077 0.37068269
v -0.03478966 -0.03478966 0.17500000
vn 0.85806191 0.35542077 0.37068269
v -0.04920000 0.00000000 0.17500000
vn 0.85806191 0.35542077 0.37068269
f 160/160/160 161/161/161 162/162/162
v -0.04242641 -0.04242641 0.20000000
vn 0.35542086 0.85806197 0.37068266
v -0.00000000 -0.06000000 0.20000000
vn 0.35542086 0.85806197 0.37068266
v -0.00000000 -0.04920000 0.17500000
vn 0.35542086 0.85806197 0.37068266
f 163/163/163 164/164/164 165/165/165
v -0.04242641 -0.04242641 0.20000000
vn 0.35542083 0.85806203 0.37068263
v -0.00000000 -0.04920000 0.17500000
vn 0.35542083 0.85806203 0.37068263
v -0.03478966 -0.03478966 0.17500000
vn 0.35542083 0.85806203 0.37068263
f 166/166/166 167/167/167 168/168/168
v -0.00000000 -0.06000000 0.20000000
vn -0.35542086 0.85806197 0.37068260
v 0.04242641 -0.04242641 0.20000000
vn -0.35542086 0.85806197 0.37068260
v 0.03478966 -0.03478966 0.17500000
vn -0.35542086 0.85806197 0.37068260
f 169/169/169 170/170/170 171/171/171
v -0.00000000 -0.06000000 0.20000000
vn -0.35542077 0.85806191 0.37068269
v 0.03478966 -0.03478966 0.17500000
vn -0.35542077 0.85806191 0.37068269
v -0.00000000 -0.04920000 0.17500000
vn -0.35542077 0.85806191 0.37068269
f 172/172/172 173/173/173 174/174/174
v 0.04242641 -0.04242641 0.20000000
vn -0.85806197 0.35542086 0.37068266
v 0.06000000 0.00000000 0.20000000
vn -0.85806197 0.35542086 0.37068266
v 0.04920000 0.00000000 0.17500000
vn -0.85806197 0.35542086 0.37068266
f 175/175/175 176/176/176 177/177/177
v 0.04242641 -0.04242641 0.20000000
vn -0.85806203 0.35542083 0.37068263
v 0.04920000 0.00000000 0.17500000
vn -0.85806203 0.35542083 0.37068263
v 0.03478966 -0.03478966 0.17500000
vn -0.85806203 0.35542083 0.37068263
f 178/178/178 179/179/179 180/180/180
o foliage_PNG_crossed_cards
v -0.10080000 0.00000000 0.17500000
vn -0.00000000 -1.00000000 -0.00000000
v 0.10080000 0.00000000 0.17500000
vn -0.00000000 -1.00000000 -0.00000000
v 0.10080000 0.00000000 0.44139999
vn -0.00000000 -1.00000000 -0.00000000
f 181/181/181 182/182/182 183/183/183
v -0.10080000 0.00000000 0.17500000
vn 0.00000000 -1.00000000 -0.00000000
v 0.10080000 0.00000000 0.44139999
vn 0.00000000 -1.00000000 -0.00000000
v -0.10080000 0.00000000 0.44139999
vn 0.00000000 -1.00000000 -0.00000000
f 184/184/184 185/185/185 186/186/186
v 0.00000000 -0.10080000 0.17500000
vn 1.00000000 0.00000000 0.00000000
v 0.00000000 0.10080000 0.17500000
vn 1.00000000 0.00000000 0.00000000
v 0.00000000 0.10080000 0.44139999
vn 1.00000000 0.00000000 0.00000000
f 187/187/187 188/188/188 189/189/189
v 0.00000000 -0.10080000 0.17500000
vn 1.00000000 -0.00000000 0.00000000
v 0.00000000 0.10080000 0.44139999
vn 1.00000000 -0.00000000 0.00000000
v 0.00000000 -0.10080000 0.44139999
vn 1.00000000 -0.00000000 0.00000000
f 190/190/190 191/191/191 192/192/192
