# G012: only base and curved handset. No cord, dial, button or keypad geometry.
mtllib ../Materials/pz_phone_rotary_beige.mtl
o pz_phone_rotary_beige_|_simple_sloped_base
usemtl UV_Base
v -0.15099999 -0.12500000 0.00800000
vn -0.00000000 -0.00000000 -0.99999994
v -0.15099999 0.12500000 0.00800000
vn -0.00000000 -0.00000000 -0.99999994
v 0.15099999 0.12500000 0.00800000
vn -0.00000000 -0.00000000 -0.99999994
vt 0.421875000 0.337641732
vt 0.421875000 0.007812500
vt 0.820308685 0.007812500
vt 0.421875000 0.337641732
vt 0.820308685 0.007812500
vt 0.820308685 0.337641732
vt 0.007812500 0.007812500
vt 0.406246185 0.007812500
vt 0.406246185 0.351047955
vt 0.007812500 0.007812500
vt 0.406246185 0.351047955
vt 0.007812500 0.351047955
vt 0.421875000 0.367187500
vt 0.820308685 0.367187500
vt 0.820308685 0.412044275
vt 0.421875000 0.367187500
vt 0.820308685 0.412044275
vt 0.421875000 0.412044275
vt 0.835937500 0.337641732
vt 0.835937500 0.007812500
vt 0.975785094 0.007812500
vt 0.835937500 0.337641732
vt 0.975785094 0.007812500
vt 0.880794275 0.337641732
vt 0.406246185 0.507035094
vt 0.007812500 0.507035094
vt 0.007812500 0.367187500
vt 0.406246185 0.507035094
vt 0.007812500 0.367187500
vt 0.406246185 0.367187500
vt 0.337641732 0.663285094
vt 0.007812500 0.663285094
vt 0.007812500 0.618428319
vt 0.337641732 0.663285094
vt 0.007812500 0.618428319
vt 0.337641732 0.523437500
vt 0.324805003 0.896522690
vt 0.347656241 0.856943182
vt 0.347656250 0.883329521
vt 0.324805003 0.896522690
vt 0.324805003 0.843750000
vt 0.347656241 0.856943182
vt 0.301953766 0.883329521
vt 0.324805003 0.843750000
vt 0.324805003 0.896522690
vt 0.301953766 0.883329521
vt 0.301953766 0.856943182
vt 0.324805003 0.843750000
vt 0.387305003 0.843750000
vt 0.364453755 0.883329521
vt 0.364453755 0.856943169
vt 0.387305003 0.843750000
vt 0.387305003 0.896522690
vt 0.364453755 0.883329521
vt 0.410156250 0.856943169
vt 0.387305003 0.896522690
vt 0.387305003 0.843750000
vt 0.410156250 0.856943169
vt 0.410156250 0.883329521
vt 0.387305003 0.896522690
vt 0.382812500 0.699231162
vt 0.400532677 0.679687500
vt 0.430996265 0.713663021
vt 0.382812500 0.699231162
vt 0.430996265 0.713663021
vt 0.413324378 0.733250523
vt 0.566406250 0.542987666
vt 0.584119078 0.523437500
vt 0.614631429 0.557438880
vt 0.566406250 0.542987666
vt 0.614631429 0.557438880
vt 0.596966864 0.577032856
vt 0.175786449 0.827167602
vt 0.175786449 0.800781250
vt 0.221734504 0.800781262
vt 0.175786449 0.827167602
vt 0.221734504 0.800781262
vt 0.221734513 0.827167601
vt 0.771618102 0.628082575
vt 0.753906250 0.608531354
vt 0.784469799 0.574489100
vt 0.771618102 0.628082575
vt 0.784469799 0.574489100
vt 0.802133366 0.594084122
vt 0.568500013 0.777650670
vt 0.550781250 0.758105482
vt 0.581297381 0.724090331
vt 0.568500013 0.777650670
vt 0.581297381 0.724090331
vt 0.598967862 0.743679354
vt 0.484375000 0.800781251
vt 0.484375000 0.827167603
vt 0.438495770 0.827167602
vt 0.484375000 0.800781251
vt 0.438495770 0.827167602
vt 0.438495779 0.800781250
vt 0.413324378 0.733250523
vt 0.430996265 0.713663021
vt 0.459712267 0.735271471
vt 0.413324378 0.733250523
vt 0.459712267 0.735271471
vt 0.448789753 0.759286753
vt 0.596966864 0.577032856
vt 0.614631429 0.557438880
vt 0.650102804 0.583461347
vt 0.596966864 0.577032856
vt 0.650102804 0.583461347
vt 0.639189009 0.607480787
vt 0.221734513 0.827167601
vt 0.221734504 0.800781262
vt 0.273437500 0.800781263
vt 0.221734513 0.827167601
vt 0.273437500 0.800781263
vt 0.273437500 0.827167602
vt 0.802133366 0.594084122
vt 0.784469799 0.574489100
vt 0.826693861 0.544043790
vt 0.802133366 0.594084122
vt 0.826693861 0.544043790
vt 0.837606420 0.568063894
vt 0.598967862 0.743679354
vt 0.581297381 0.724090331
vt 0.616765183 0.698057323
vt 0.598967862 0.743679354
vt 0.616765183 0.698057323
vt 0.627685915 0.722073578
vt 0.438495779 0.800781250
vt 0.438495770 0.827167602
vt 0.402740899 0.827167602
vt 0.438495779 0.800781250
vt 0.402740899 0.827167602
vt 0.402740899 0.800781251
vt 0.448789753 0.759286753
vt 0.459712267 0.735271471
vt 0.534052669 0.751396708
vt 0.448789753 0.759286753
vt 0.534052669 0.751396708
vt 0.533316184 0.777658850
vt 0.639189009 0.607480787
vt 0.650102804 0.583461347
vt 0.734661161 0.601823744
vt 0.639189009 0.607480787
vt 0.734661161 0.601823744
vt 0.733937220 0.628088851
vt 0.358610760 0.549823852
vt 0.358610760 0.523437513
vt 0.454696005 0.523437513
vt 0.358610760 0.549823852
vt 0.454696005 0.523437513
vt 0.454696005 0.549823852
vt 0.837606420 0.568063894
vt 0.826693861 0.544043790
vt 0.921440362 0.523437500
vt 0.837606420 0.568063894
vt 0.921440362 0.523437500
vt 0.922163247 0.549703078
vt 0.627685915 0.722073578
vt 0.616765183 0.698057323
vt 0.701289254 0.679687500
vt 0.627685915 0.722073578
vt 0.701289254 0.679687500
vt 0.702024231 0.705950332
vt 0.160156250 0.800781250
vt 0.160156250 0.827167602
vt 0.084730307 0.827167602
vt 0.160156250 0.800781250
vt 0.084730307 0.827167602
vt 0.084730307 0.800781263
vt 0.719484979 0.777650664
vt 0.718750000 0.751387826
vt 0.793088327 0.735264583
vt 0.719484979 0.777650664
vt 0.793088327 0.735264583
vt 0.804009048 0.759280845
vt 0.008535387 0.784332576
vt 0.007812500 0.758066992
vt 0.092369325 0.739706177
vt 0.008535387 0.784332576
vt 0.092369325 0.739706177
vt 0.103281884 0.763726282
vt 0.454696005 0.549823852
vt 0.454696005 0.523437513
vt 0.550781250 0.523437500
vt 0.454696005 0.549823852
vt 0.550781250 0.523437500
vt 0.550781250 0.549823852
vt 0.195312500 0.705952600
vt 0.196036440 0.679687500
vt 0.290784652 0.700295567
vt 0.195312500 0.705952600
vt 0.290784652 0.700295567
vt 0.279870857 0.724315000
vt 0.835937500 0.393449636
vt 0.836673982 0.367187500
vt 0.921200415 0.385559598
vt 0.835937500 0.393449636
vt 0.921200415 0.385559598
vt 0.910277912 0.409574879
vt 0.084730307 0.800781263
vt 0.084730307 0.827167602
vt 0.009304352 0.827167602
vt 0.084730307 0.800781263
vt 0.009304352 0.827167602
vt 0.009304352 0.800781263
vt 0.804009048 0.759280845
vt 0.793088327 0.735264583
vt 0.821806383 0.713658810
vt 0.804009048 0.759280845
vt 0.821806383 0.713658810
vt 0.839476849 0.733247836
vt 0.103281884 0.763726282
vt 0.092369325 0.739706177
vt 0.127842384 0.713685956
vt 0.103281884 0.763726282
vt 0.127842384 0.713685956
vt 0.145505951 0.733280979
vt 0.289067708 0.827167602
vt 0.289067708 0.800781250
vt 0.340770695 0.800781263
vt 0.289067708 0.827167602
vt 0.340770695 0.800781263
vt 0.340770695 0.827167602
vt 0.279870857 0.724315000
vt 0.290784652 0.700295567
vt 0.333006780 0.730743504
vt 0.279870857 0.724315000
vt 0.333006780 0.730743504
vt 0.315342233 0.750337468
vt 0.910277912 0.409574879
vt 0.921200415 0.385559598
vt 0.956665785 0.411595835
vt 0.910277912 0.409574879
vt 0.956665785 0.411595835
vt 0.938993901 0.431183331
vt 0.582031250 0.800781250
vt 0.582031250 0.827167589
vt 0.546276379 0.827167589
vt 0.582031250 0.800781250
vt 0.546276379 0.827167589
vt 0.546276379 0.800781250
vt 0.839476849 0.733247836
vt 0.821806383 0.713658810
vt 0.852274238 0.679687500
vt 0.839476849 0.733247836
vt 0.852274238 0.679687500
vt 0.869992989 0.699232696
vt 0.145505951 0.733280979
vt 0.127842384 0.713685956
vt 0.158357647 0.679687500
vt 0.145505951 0.733280979
vt 0.158357647 0.679687500
vt 0.176069489 0.699238726
vt 0.340770695 0.827167602
vt 0.340770695 0.800781263
vt 0.386718750 0.800781263
vt 0.340770695 0.827167602
vt 0.386718750 0.800781263
vt 0.386718750 0.827167602
vt 0.315342233 0.750337468
vt 0.333006780 0.730743504
vt 0.363567393 0.764788695
vt 0.315342233 0.750337468
vt 0.363567393 0.764788695
vt 0.345854575 0.784338859
vt 0.938993901 0.431183331
vt 0.956665785 0.411595835
vt 0.987177664 0.445615194
vt 0.938993901 0.431183331
vt 0.987177664 0.445615194
vt 0.969457501 0.465158867
vt 0.546276379 0.800781250
vt 0.546276379 0.827167589
vt 0.500397139 0.827167589
vt 0.546276379 0.800781250
vt 0.500397139 0.827167589
vt 0.500397149 0.800781250
vt 0.919990698 0.758846516
vt 0.886856397 0.739056762
vt 0.886856397 0.699477254
vt 0.886856397 0.699477254
vt 0.919990698 0.679687500
vt 0.953125000 0.699477254
vt 0.953125000 0.699477254
vt 0.953125000 0.739056762
vt 0.919990698 0.758846516
vt 0.886856397 0.699477254
vt 0.953125000 0.699477254
vt 0.919990698 0.758846516
vt 0.067181762 0.843750000
vt 0.086971516 0.876884302
vt 0.067181762 0.910018603
vt 0.067181762 0.910018603
vt 0.027602254 0.910018603
vt 0.007812500 0.876884302
vt 0.007812500 0.876884302
vt 0.027602254 0.843750000
vt 0.067181762 0.843750000
vt 0.067181762 0.910018603
vt 0.007812500 0.876884302
vt 0.067181762 0.843750000
vt 0.800781250 0.887106569
vt 0.800837614 0.848512647
vt 0.828985961 0.843750000
vt 0.800781250 0.887106569
vt 0.828985961 0.843750000
vt 0.829058560 0.893237149
vt 0.429106575 0.889266434
vt 0.429106575 0.849686926
vt 0.457031250 0.843750000
vt 0.429106575 0.889266434
vt 0.457031250 0.843750000
vt 0.457031250 0.895203360
vt 0.847713097 0.888474692
vt 0.847656250 0.849880773
vt 0.875933774 0.843750000
vt 0.847713097 0.888474692
vt 0.875933774 0.843750000
vt 0.875861221 0.893237153
vt 0.894531250 0.887106569
vt 0.894587614 0.848512647
vt 0.922735961 0.843750000
vt 0.894531250 0.887106569
vt 0.922735961 0.843750000
vt 0.922808560 0.893237149
vt 0.503906250 0.849686926
vt 0.503906250 0.889266434
vt 0.475981575 0.895203360
vt 0.503906250 0.849686926
vt 0.475981575 0.895203360
vt 0.475981575 0.843750000
vt 0.941463097 0.888474692
vt 0.941406250 0.849880773
vt 0.969683774 0.843750000
vt 0.941463097 0.888474692
vt 0.969683774 0.843750000
vt 0.969611221 0.893237153
vt 0.941406250 0.572924653
vt 0.941478803 0.523437500
vt 0.969626940 0.528199961
vt 0.941406250 0.572924653
vt 0.969626940 0.528199961
vt 0.969683787 0.566793880
vt 0.522856563 0.895203360
vt 0.522856563 0.843750000
vt 0.550781250 0.849686926
vt 0.522856563 0.895203360
vt 0.550781250 0.849686926
vt 0.550781250 0.889266434
vt 0.009106601 0.925853849
vt 0.058593750 0.925781250
vt 0.052463170 0.954058572
vt 0.009106601 0.925853849
vt 0.052463170 0.954058572
vt 0.013869247 0.954002208
vt 0.075512847 0.925781250
vt 0.125000000 0.925853803
vt 0.120237539 0.954001940
vt 0.075512847 0.925781250
vt 0.120237539 0.954001940
vt 0.081643620 0.954058787
vt 0.597656250 0.843750000
vt 0.597656250 0.895203360
vt 0.569731563 0.889266434
vt 0.597656250 0.843750000
vt 0.569731563 0.889266434
vt 0.569731563 0.849686926
vt 0.141919101 0.925853849
vt 0.191406250 0.925781250
vt 0.185275670 0.954058572
vt 0.141919101 0.925853849
vt 0.185275670 0.954058572
vt 0.146681747 0.954002208
vt 0.184627766 0.876884302
vt 0.164838012 0.910018603
vt 0.125258504 0.910018603
vt 0.125258504 0.910018603
vt 0.105468750 0.876884302
vt 0.125258504 0.843750000
vt 0.125258504 0.843750000
vt 0.164838012 0.843750000
vt 0.184627766 0.876884302
vt 0.125258504 0.910018603
vt 0.125258504 0.843750000
vt 0.184627766 0.876884302
vt 0.262494262 0.843750000
vt 0.282284016 0.876884302
vt 0.262494262 0.910018603
vt 0.262494262 0.910018603
vt 0.222914754 0.910018603
vt 0.203125000 0.876884302
vt 0.203125000 0.876884302
vt 0.222914754 0.843750000
vt 0.262494262 0.843750000
vt 0.262494262 0.910018603
vt 0.203125000 0.876884302
vt 0.262494262 0.843750000
vt 0.214455931 0.925781250
vt 0.253049853 0.925837614
vt 0.257812500 0.953985961
vt 0.214455931 0.925781250
vt 0.257812500 0.953985961
vt 0.208325351 0.954058560
vt 0.616606575 0.889266434
vt 0.616606575 0.849686926
vt 0.644531250 0.843750000
vt 0.616606575 0.889266434
vt 0.644531250 0.843750000
vt 0.644531250 0.895203360
vt 0.279494058 0.925838097
vt 0.318087977 0.925781250
vt 0.324218750 0.954058774
vt 0.279494058 0.925838097
vt 0.324218750 0.954058774
vt 0.274731597 0.953986221
vt 0.347268431 0.925781250
vt 0.385862353 0.925837614
vt 0.390625000 0.953985961
vt 0.347268431 0.925781250
vt 0.390625000 0.953985961
vt 0.341137851 0.954058560
vt 0.691406250 0.849686926
vt 0.691406250 0.889266434
vt 0.663481575 0.895203360
vt 0.691406250 0.849686926
vt 0.663481575 0.895203360
vt 0.663481575 0.843750000
vt 0.412306558 0.925838097
vt 0.450900477 0.925781250
vt 0.457031250 0.954058774
vt 0.412306558 0.925838097
vt 0.457031250 0.954058774
vt 0.407544097 0.953986221
vt 0.473950347 0.925781250
vt 0.523437500 0.925853803
vt 0.518675039 0.954001940
vt 0.473950347 0.925781250
vt 0.518675039 0.954001940
vt 0.480081120 0.954058787
vt 0.710356563 0.895203360
vt 0.710356563 0.843750000
vt 0.738281250 0.849686926
vt 0.710356563 0.895203360
vt 0.738281250 0.849686926
vt 0.738281250 0.889266434
vt 0.540356601 0.925853849
vt 0.589843750 0.925781250
vt 0.583713170 0.954058572
vt 0.540356601 0.925853849
vt 0.583713170 0.954058572
vt 0.545119247 0.954002208
vt 0.606762847 0.925781250
vt 0.656250000 0.925853803
vt 0.651487539 0.954001940
vt 0.606762847 0.925781250
vt 0.651487539 0.954001940
vt 0.612893620 0.954058787
vt 0.785156250 0.843750000
vt 0.785156250 0.895203360
vt 0.757231563 0.889266434
vt 0.785156250 0.843750000
vt 0.757231563 0.889266434
vt 0.757231563 0.849686926
vt 0.673169101 0.925853849
vt 0.722656250 0.925781250
vt 0.716525670 0.954058572
vt 0.673169101 0.925853849
vt 0.716525670 0.954058572
vt 0.677931747 0.954002208
f 1/1/1 2/2/2 3/3/3
v -0.15099999 -0.12500000 0.00800000
vn -0.00000000 0.00000000 -0.99999994
v 0.15099999 0.12500000 0.00800000
vn -0.00000000 0.00000000 -0.99999994
v 0.15099999 -0.12500000 0.00800000
vn -0.00000000 0.00000000 -0.99999994
f 4/4/4 5/5/5 6/6/6
v -0.15099999 -0.12500000 0.04200000
vn 0.00000000 -0.27675116 0.96094161
v 0.15099999 -0.12500000 0.04200000
vn 0.00000000 -0.27675116 0.96094161
v 0.15099999 0.12500000 0.11400000
vn 0.00000000 -0.27675116 0.96094161
f 7/7/7 8/8/8 9/9/9
v -0.15099999 -0.12500000 0.04200000
vn 0.00000000 -0.27675116 0.96094161
v 0.15099999 0.12500000 0.11400000
vn 0.00000000 -0.27675116 0.96094161
v -0.15099999 0.12500000 0.11400000
vn 0.00000000 -0.27675116 0.96094161
f 10/10/10 11/11/11 12/12/12
v -0.15099999 -0.12500000 0.00800000
vn -0.00000000 -1.00000000 -0.00000000
v 0.15099999 -0.12500000 0.00800000
vn -0.00000000 -1.00000000 -0.00000000
v 0.15099999 -0.12500000 0.04200000
vn -0.00000000 -1.00000000 -0.00000000
f 13/13/13 14/14/14 15/15/15
v -0.15099999 -0.12500000 0.00800000
vn 0.00000000 -1.00000000 -0.00000000
v 0.15099999 -0.12500000 0.04200000
vn 0.00000000 -1.00000000 -0.00000000
v -0.15099999 -0.12500000 0.04200000
vn 0.00000000 -1.00000000 -0.00000000
f 16/16/16 17/17/17 18/18/18
v 0.15099999 -0.12500000 0.00800000
vn 1.00000000 0.00000000 0.00000000
v 0.15099999 0.12500000 0.00800000
vn 1.00000000 0.00000000 0.00000000
v 0.15099999 0.12500000 0.11400000
vn 1.00000000 0.00000000 0.00000000
f 19/19/19 20/20/20 21/21/21
v 0.15099999 -0.12500000 0.00800000
vn 1.00000000 -0.00000000 0.00000000
v 0.15099999 0.12500000 0.11400000
vn 1.00000000 -0.00000000 0.00000000
v 0.15099999 -0.12500000 0.04200000
vn 1.00000000 -0.00000000 0.00000000
f 22/22/22 23/23/23 24/24/24
v 0.15099999 0.12500000 0.00800000
vn -0.00000000 1.00000000 0.00000000
v -0.15099999 0.12500000 0.00800000
vn -0.00000000 1.00000000 0.00000000
v -0.15099999 0.12500000 0.11400000
vn -0.00000000 1.00000000 0.00000000
f 25/25/25 26/26/26 27/27/27
v 0.15099999 0.12500000 0.00800000
vn 0.00000000 1.00000000 0.00000000
v -0.15099999 0.12500000 0.11400000
vn 0.00000000 1.00000000 0.00000000
v 0.15099999 0.12500000 0.11400000
vn 0.00000000 1.00000000 0.00000000
f 28/28/28 29/29/29 30/30/30
v -0.15099999 0.12500000 0.00800000
vn -1.00000000 0.00000000 0.00000000
v -0.15099999 -0.12500000 0.00800000
vn -1.00000000 0.00000000 0.00000000
v -0.15099999 -0.12500000 0.04200000
vn -1.00000000 0.00000000 0.00000000
f 31/31/31 32/32/32 33/33/33
v -0.15099999 0.12500000 0.00800000
vn -1.00000000 0.00000000 -0.00000000
v -0.15099999 -0.12500000 0.04200000
vn -1.00000000 0.00000000 -0.00000000
v -0.15099999 0.12500000 0.11400000
vn -1.00000000 0.00000000 -0.00000000
f 34/34/34 35/35/35 36/36/36
o pz_phone_rotary_beige_|_EDITABLE_low-poly_curved_handset
usemtl UV_Base
v 0.11100000 0.10000000 0.12400000
vn 0.67705679 -0.00000027 -0.73593074
v 0.09825330 0.07000000 0.11227304
vn 0.67705679 -0.00000027 -0.73593074
v 0.09825330 0.09000000 0.11227303
vn 0.67705679 -0.00000027 -0.73593074
f 37/37/37 38/38/38 39/39/39
v 0.11100000 0.10000000 0.12400000
vn 0.67705643 0.00000000 -0.73593110
v 0.11100000 0.05999999 0.12400000
vn 0.67705643 0.00000000 -0.73593110
v 0.09825330 0.07000000 0.11227304
vn 0.67705643 0.00000000 -0.73593110
f 40/40/40 41/41/41 42/42/42
v 0.12374670 0.09000000 0.13572696
vn 0.67705643 0.00000000 -0.73593110
v 0.11100000 0.05999999 0.12400000
vn 0.67705643 0.00000000 -0.73593110
v 0.11100000 0.10000000 0.12400000
vn 0.67705643 0.00000000 -0.73593110
f 43/43/43 44/44/44 45/45/45
v 0.12374670 0.09000000 0.13572696
vn 0.67705643 0.00000000 -0.73593110
v 0.12374670 0.07000000 0.13572696
vn 0.67705643 0.00000000 -0.73593110
v 0.11100000 0.05999999 0.12400000
vn 0.67705643 0.00000000 -0.73593110
f 46/46/46 47/47/47 48/48/48
v -0.11100000 0.05999999 0.12400000
vn -0.67705625 0.00000000 -0.73593134
v -0.09825329 0.09000000 0.11227304
vn -0.67705625 0.00000000 -0.73593134
v -0.09825329 0.06999999 0.11227304
vn -0.67705625 0.00000000 -0.73593134
f 49/49/49 50/50/50 51/51/51
v -0.11100000 0.05999999 0.12400000
vn -0.67705619 -0.00000000 -0.73593134
v -0.11100000 0.10000000 0.12400000
vn -0.67705619 -0.00000000 -0.73593134
v -0.09825329 0.09000000 0.11227304
vn -0.67705619 -0.00000000 -0.73593134
f 52/52/52 53/53/53 54/54/54
v -0.12374671 0.06999999 0.13572696
vn -0.67705619 0.00000000 -0.73593134
v -0.11100000 0.10000000 0.12400000
vn -0.67705619 0.00000000 -0.73593134
v -0.11100000 0.05999999 0.12400000
vn -0.67705619 0.00000000 -0.73593134
f 55/55/55 56/56/56 57/57/57
v -0.12374671 0.06999999 0.13572696
vn -0.67705625 -0.00000000 -0.73593134
v -0.12374671 0.09000000 0.13572696
vn -0.67705625 -0.00000000 -0.73593134
v -0.11100000 0.10000000 0.12400000
vn -0.67705625 -0.00000000 -0.73593134
f 58/58/58 59/59/59 60/60/60
v -0.11100000 0.05999999 0.12400000
vn 0.40622288 -0.86459756 -0.29572627
v -0.09825329 0.06999999 0.11227304
vn 0.40622288 -0.86459756 -0.29572627
v -0.07766084 0.06999999 0.14055976
vn 0.40622288 -0.86459756 -0.29572627
f 61/61/61 62/62/62 63/63/63
v -0.11100000 0.05999999 0.12400000
vn 0.40626988 -0.86452895 -0.29586238
v -0.07766084 0.06999999 0.14055976
vn 0.40626988 -0.86452895 -0.29586238
v -0.09037387 0.05999999 0.15232322
vn 0.40626988 -0.86452895 -0.29586238
f 64/64/64 65/65/65 66/66/66
v -0.12374671 0.06999999 0.13572696
vn -0.40616867 -0.86460167 0.29578865
v -0.11100000 0.05999999 0.12400000
vn -0.40616867 -0.86460167 0.29578865
v -0.09037387 0.05999999 0.15232322
vn -0.40616867 -0.86460167 0.29578865
f 67/67/67 68/68/68 69/69/69
v -0.12374671 0.06999999 0.13572696
vn -0.40621576 -0.86453301 0.29592469
v -0.09037387 0.05999999 0.15232322
vn -0.40621576 -0.86453301 0.29592469
v -0.10308692 0.07000000 0.16408667
vn -0.40621576 -0.86453301 0.29592469
f 70/70/70 71/71/71 72/72/72
v -0.12374671 0.09000000 0.13572696
vn -0.80826753 0.00000000 0.58881545
v -0.12374671 0.06999999 0.13572696
vn -0.80826753 0.00000000 0.58881545
v -0.10308692 0.07000000 0.16408667
vn -0.80826753 0.00000000 0.58881545
f 73/73/73 74/74/74 75/75/75
v -0.12374671 0.09000000 0.13572696
vn -0.80826741 0.00000030 0.58881563
v -0.10308692 0.07000000 0.16408667
vn -0.80826741 0.00000030 0.58881563
v -0.10308691 0.09000000 0.16408667
vn -0.80826741 0.00000030 0.58881563
f 76/76/76 77/77/77 78/78/78
v -0.11100000 0.10000000 0.12400000
vn -0.40611467 0.86460584 0.29585090
v -0.12374671 0.09000000 0.13572696
vn -0.40611467 0.86460584 0.29585090
v -0.10308691 0.09000000 0.16408667
vn -0.40611467 0.86460584 0.29585090
f 79/79/79 80/80/80 81/81/81
v -0.11100000 0.10000000 0.12400000
vn -0.40626988 0.86452895 0.29586235
v -0.10308691 0.09000000 0.16408667
vn -0.40626988 0.86452895 0.29586235
v -0.09037387 0.10000000 0.15232322
vn -0.40626988 0.86452895 0.29586235
f 82/82/82 83/83/83 84/84/84
v -0.09825329 0.09000000 0.11227304
vn 0.40616867 0.86460167 -0.29578865
v -0.11100000 0.10000000 0.12400000
vn 0.40616867 0.86460167 -0.29578865
v -0.09037387 0.10000000 0.15232322
vn 0.40616867 0.86460167 -0.29578865
f 85/85/85 86/86/86 87/87/87
v -0.09825329 0.09000000 0.11227304
vn 0.40632442 0.86452454 -0.29580006
v -0.09037387 0.10000000 0.15232322
vn 0.40632442 0.86452454 -0.29580006
v -0.07766083 0.09000000 0.14055976
vn 0.40632442 0.86452454 -0.29580006
f 88/88/88 89/89/89 90/90/90
v -0.09825329 0.06999999 0.11227304
vn 0.80846000 0.00000000 -0.58855110
v -0.09825329 0.09000000 0.11227304
vn 0.80846000 0.00000000 -0.58855110
v -0.07766083 0.09000000 0.14055976
vn 0.80846000 0.00000000 -0.58855110
f 91/91/91 92/92/92 93/93/93
v -0.09825329 0.06999999 0.11227304
vn 0.80846006 -0.00000030 -0.58855098
v -0.07766083 0.09000000 0.14055976
vn 0.80846006 -0.00000030 -0.58855098
v -0.07766084 0.06999999 0.14055976
vn 0.80846006 -0.00000030 -0.58855098
f 94/94/94 95/95/95 96/96/96
v -0.09037387 0.05999999 0.15232322
vn 0.33122057 -0.86485642 -0.37724832
v -0.07766084 0.06999999 0.14055976
vn 0.33122057 -0.86485642 -0.37724832
v -0.05717045 0.06999999 0.15855013
vn 0.33122057 -0.86485642 -0.37724832
f 97/97/97 98/98/98 99/99/99
v -0.09037387 0.05999999 0.15232322
vn 0.33175567 -0.85972750 -0.38833851
v -0.05717045 0.06999999 0.15855013
vn 0.33175567 -0.85972750 -0.38833851
v -0.06500000 0.05999999 0.17399999
vn 0.33175567 -0.85972750 -0.38833851
f 100/100/100 101/101/101 102/102/102
v -0.10308692 0.07000000 0.16408667
vn -0.32644907 -0.86452878 0.38212681
v -0.09037387 0.05999999 0.15232322
vn -0.32644907 -0.86452878 0.38212681
v -0.06500000 0.05999999 0.17399999
vn -0.32644907 -0.86452878 0.38212681
f 103/103/103 104/104/104 105/105/105
v -0.10308692 0.07000000 0.16408667
vn -0.32757166 -0.86022496 0.39078116
v -0.06500000 0.05999999 0.17399999
vn -0.32757166 -0.86022496 0.39078116
v -0.07282954 0.07000000 0.18944986
vn -0.32757166 -0.86022496 0.39078116
f 106/106/106 107/107/107 108/108/108
v -0.10308691 0.09000000 0.16408667
vn -0.64240468 0.00000024 0.76636559
v -0.10308692 0.07000000 0.16408667
vn -0.64240468 0.00000024 0.76636559
v -0.07282954 0.07000000 0.18944986
vn -0.64240468 0.00000024 0.76636559
f 109/109/109 110/110/110 111/111/111
v -0.10308691 0.09000000 0.16408667
vn -0.64240462 0.00000024 0.76636559
v -0.07282954 0.07000000 0.18944986
vn -0.64240462 0.00000024 0.76636559
v -0.07282954 0.09000000 0.18944986
vn -0.64240462 0.00000024 0.76636559
f 112/112/112 113/113/113 114/114/114
v -0.09037387 0.10000000 0.15232322
vn -0.32313809 0.86427867 0.38549209
v -0.10308691 0.09000000 0.16408667
vn -0.32313809 0.86427867 0.38549209
v -0.07282954 0.09000000 0.18944986
vn -0.32313809 0.86427867 0.38549209
f 115/115/115 116/116/116 117/117/117
v -0.09037387 0.10000000 0.15232322
vn -0.33175570 0.85972744 0.38833851
v -0.07282954 0.09000000 0.18944986
vn -0.33175570 0.85972744 0.38833851
v -0.06500000 0.10000000 0.17399999
vn -0.33175570 0.85972744 0.38833851
f 118/118/118 119/119/119 120/120/120
v -0.07766083 0.09000000 0.14055976
vn 0.32644907 0.86452878 -0.38212681
v -0.09037387 0.10000000 0.15232322
vn 0.32644907 0.86452878 -0.38212681
v -0.06500000 0.10000000 0.17399999
vn 0.32644907 0.86452878 -0.38212681
f 121/121/121 122/122/122 123/123/123
v -0.07766083 0.09000000 0.14055976
vn 0.33782548 0.85896754 -0.38477099
v -0.06500000 0.10000000 0.17399999
vn 0.33782548 0.85896754 -0.38477099
v -0.05717045 0.09000000 0.15855013
vn 0.33782548 0.85896754 -0.38477099
f 124/124/124 125/125/125 126/126/126
v -0.07766084 0.06999999 0.14055976
vn 0.65977663 -0.00000025 -0.75146168
v -0.07766083 0.09000000 0.14055976
vn 0.65977663 -0.00000025 -0.75146168
v -0.05717045 0.09000000 0.15855013
vn 0.65977663 -0.00000025 -0.75146168
f 127/127/127 128/128/128 129/129/129
v -0.07766084 0.06999999 0.14055976
vn 0.65977663 0.00000000 -0.75146192
v -0.05717045 0.09000000 0.15855013
vn 0.65977663 0.00000000 -0.75146192
v -0.05717045 0.06999999 0.15855013
vn 0.65977663 0.00000000 -0.75146192
f 130/130/130 131/131/131 132/132/132
v -0.06500000 0.05999999 0.17399999
vn 0.11677311 -0.85970205 -0.49726897
v -0.05717045 0.06999999 0.15855013
vn 0.11677311 -0.85970205 -0.49726897
v 0.00000000 0.07000000 0.17197539
vn 0.11677311 -0.85970205 -0.49726897
f 133/133/133 134/134/134 135/135/135
v -0.06500000 0.05999999 0.17399999
vn 0.11685477 -0.86009228 -0.49657443
v 0.00000000 0.07000000 0.17197539
vn 0.11685477 -0.86009228 -0.49657443
v -0.00000000 0.06000000 0.18929590
vn 0.11685477 -0.86009228 -0.49657443
f 136/136/136 137/137/137 138/138/138
v -0.07282954 0.07000000 0.18944986
vn -0.11699551 -0.85972732 0.49717298
v -0.06500000 0.05999999 0.17399999
vn -0.11699551 -0.85972732 0.49717298
v -0.00000000 0.06000000 0.18929590
vn -0.11699551 -0.85972732 0.49717298
f 139/139/139 140/140/140 141/141/141
v -0.07282954 0.07000000 0.18944986
vn -0.11704426 -0.86007297 0.49656332
v -0.00000000 0.06000000 0.18929590
vn -0.11704426 -0.86007297 0.49656332
v -0.00000000 0.07000000 0.20661642
vn -0.11704426 -0.86007297 0.49656332
f 142/142/142 143/143/143 144/144/144
v -0.07282954 0.09000000 0.18944986
vn -0.22942165 0.00000009 0.97332716
v -0.07282954 0.07000000 0.18944986
vn -0.22942165 0.00000009 0.97332716
v -0.00000000 0.07000000 0.20661642
vn -0.22942165 0.00000009 0.97332716
f 145/145/145 146/146/146 147/147/147
v -0.07282954 0.09000000 0.18944986
vn -0.22942165 0.00000002 0.97332710
v -0.00000000 0.07000000 0.20661642
vn -0.22942165 0.00000002 0.97332710
v -0.00000000 0.09000000 0.20661642
vn -0.22942165 0.00000002 0.97332710
f 148/148/148 149/149/149 150/150/150
v -0.06500000 0.10000000 0.17399999
vn -0.11717004 0.85974741 0.49709719
v -0.07282954 0.09000000 0.18944986
vn -0.11717004 0.85974741 0.49709719
v -0.00000000 0.09000000 0.20661642
vn -0.11717004 0.85974741 0.49709719
f 151/151/151 152/152/152 153/153/153
v -0.06500000 0.10000000 0.17399999
vn -0.11685459 0.86009246 0.49657428
v -0.00000000 0.09000000 0.20661642
vn -0.11685459 0.86009246 0.49657428
v 0.00000000 0.09999999 0.18929590
vn -0.11685459 0.86009246 0.49657428
f 154/154/154 155/155/155 156/156/156
v -0.05717045 0.09000000 0.15855013
vn 0.11699566 0.85972732 -0.49717295
v -0.06500000 0.10000000 0.17399999
vn 0.11699566 0.85972732 -0.49717295
v 0.00000000 0.09999999 0.18929590
vn 0.11699566 0.85972732 -0.49717295
f 157/157/157 158/158/158 159/159/159
v -0.05717045 0.09000000 0.15855013
vn 0.11661319 0.86011696 -0.49658850
v 0.00000000 0.09999999 0.18929590
vn 0.11661319 0.86011696 -0.49658850
v 0.00000000 0.09000000 0.17197539
vn 0.11661319 0.86011696 -0.49658850
f 160/160/160 161/161/161 162/162/162
v -0.05717045 0.06999999 0.15855013
vn 0.22860989 0.00000000 -0.97351807
v -0.05717045 0.09000000 0.15855013
vn 0.22860989 0.00000000 -0.97351807
v 0.00000000 0.09000000 0.17197539
vn 0.22860989 0.00000000 -0.97351807
f 163/163/163 164/164/164 165/165/165
v -0.05717045 0.06999999 0.15855013
vn 0.22860993 -0.00000002 -0.97351813
v 0.00000000 0.09000000 0.17197539
vn 0.22860993 -0.00000002 -0.97351813
v 0.00000000 0.07000000 0.17197539
vn 0.22860993 -0.00000002 -0.97351813
f 166/166/166 167/167/167 168/168/168
v -0.00000000 0.06000000 0.18929590
vn -0.11661322 -0.86011684 -0.49658862
v 0.00000000 0.07000000 0.17197539
vn -0.11661322 -0.86011684 -0.49658862
v 0.05717046 0.07000000 0.15855013
vn -0.11661322 -0.86011684 -0.49658862
f 169/169/169 170/170/170 171/171/171
v -0.00000000 0.06000000 0.18929590
vn -0.11699561 -0.85972732 -0.49717295
v 0.05717046 0.07000000 0.15855013
vn -0.11699561 -0.85972732 -0.49717295
v 0.06500000 0.05999999 0.17399999
vn -0.11699561 -0.85972732 -0.49717295
f 172/172/172 173/173/173 174/174/174
v -0.00000000 0.07000000 0.20661642
vn 0.11685468 -0.86009228 0.49657443
v -0.00000000 0.06000000 0.18929590
vn 0.11685468 -0.86009228 0.49657443
v 0.06500000 0.05999999 0.17399999
vn 0.11685468 -0.86009228 0.49657443
f 175/175/175 176/176/176 177/177/177
v -0.00000000 0.07000000 0.20661642
vn 0.11717004 -0.85974741 0.49709716
v 0.06500000 0.05999999 0.17399999
vn 0.11717004 -0.85974741 0.49709716
v 0.07282954 0.06999999 0.18944986
vn 0.11717004 -0.85974741 0.49709716
f 178/178/178 179/179/179 180/180/180
v -0.00000000 0.09000000 0.20661642
vn 0.22942165 -0.00000002 0.97332710
v -0.00000000 0.07000000 0.20661642
vn 0.22942165 -0.00000002 0.97332710
v 0.07282954 0.06999999 0.18944986
vn 0.22942165 -0.00000002 0.97332710
f 181/181/181 182/182/182 183/183/183
v -0.00000000 0.09000000 0.20661642
vn 0.22942169 0.00000000 0.97332716
v 0.07282954 0.06999999 0.18944986
vn 0.22942169 0.00000000 0.97332716
v 0.07282954 0.09000000 0.18944986
vn 0.22942169 0.00000000 0.97332716
f 184/184/184 185/185/185 186/186/186
v 0.00000000 0.09999999 0.18929590
vn 0.11704425 0.86007303 0.49656317
v -0.00000000 0.09000000 0.20661642
vn 0.11704425 0.86007303 0.49656317
v 0.07282954 0.09000000 0.18944986
vn 0.11704425 0.86007303 0.49656317
f 187/187/187 188/188/188 189/189/189
v 0.00000000 0.09999999 0.18929590
vn 0.11699548 0.85972726 0.49717307
v 0.07282954 0.09000000 0.18944986
vn 0.11699548 0.85972726 0.49717307
v 0.06500000 0.10000000 0.17399999
vn 0.11699548 0.85972726 0.49717307
f 190/190/190 191/191/191 192/192/192
v 0.00000000 0.09000000 0.17197539
vn -0.11685479 0.86009240 -0.49657428
v 0.00000000 0.09999999 0.18929590
vn -0.11685479 0.86009240 -0.49657428
v 0.06500000 0.10000000 0.17399999
vn -0.11685479 0.86009240 -0.49657428
f 193/193/193 194/194/194 195/195/195
v 0.00000000 0.09000000 0.17197539
vn -0.11677311 0.85970211 -0.49726897
v 0.06500000 0.10000000 0.17399999
vn -0.11677311 0.85970211 -0.49726897
v 0.05717046 0.09000000 0.15855013
vn -0.11677311 0.85970211 -0.49726897
f 196/196/196 197/197/197 198/198/198
v 0.00000000 0.07000000 0.17197539
vn -0.22860993 0.00000002 -0.97351807
v 0.00000000 0.09000000 0.17197539
vn -0.22860993 0.00000002 -0.97351807
v 0.05717046 0.09000000 0.15855013
vn -0.22860993 0.00000002 -0.97351807
f 199/199/199 200/200/200 201/201/201
v 0.00000000 0.07000000 0.17197539
vn -0.22860989 0.00000000 -0.97351807
v 0.05717046 0.09000000 0.15855013
vn -0.22860989 0.00000000 -0.97351807
v 0.05717046 0.07000000 0.15855013
vn -0.22860989 0.00000000 -0.97351807
f 202/202/202 203/203/203 204/204/204
v 0.06500000 0.05999999 0.17399999
vn -0.33782551 -0.85896748 -0.38477105
v 0.05717046 0.07000000 0.15855013
vn -0.33782551 -0.85896748 -0.38477105
v 0.07766084 0.07000000 0.14055976
vn -0.33782551 -0.85896748 -0.38477105
f 205/205/205 206/206/206 207/207/207
v 0.06500000 0.05999999 0.17399999
vn -0.32644895 -0.86452878 -0.38212681
v 0.07766084 0.07000000 0.14055976
vn -0.32644895 -0.86452878 -0.38212681
v 0.09037387 0.06000000 0.15232322
vn -0.32644895 -0.86452878 -0.38212681
f 208/208/208 209/209/209 210/210/210
v 0.07282954 0.06999999 0.18944986
vn 0.33175576 -0.85972744 0.38833845
v 0.06500000 0.05999999 0.17399999
vn 0.33175576 -0.85972744 0.38833845
v 0.09037387 0.06000000 0.15232322
vn 0.33175576 -0.85972744 0.38833845
f 211/211/211 212/212/212 213/213/213
v 0.07282954 0.06999999 0.18944986
vn 0.32313827 -0.86427861 0.38549209
v 0.09037387 0.06000000 0.15232322
vn 0.32313827 -0.86427861 0.38549209
v 0.10308691 0.07000000 0.16408667
vn 0.32313827 -0.86427861 0.38549209
f 214/214/214 215/215/215 216/216/216
v 0.07282954 0.09000000 0.18944986
vn 0.64240468 -0.00000000 0.76636559
v 0.07282954 0.06999999 0.18944986
vn 0.64240468 -0.00000000 0.76636559
v 0.10308691 0.07000000 0.16408667
vn 0.64240468 -0.00000000 0.76636559
f 217/217/217 218/218/218 219/219/219
v 0.07282954 0.09000000 0.18944986
vn 0.64240474 0.00000000 0.76636559
v 0.10308691 0.07000000 0.16408667
vn 0.64240474 0.00000000 0.76636559
v 0.10308691 0.09000000 0.16408667
vn 0.64240474 0.00000000 0.76636559
f 220/220/220 221/221/221 222/222/222
v 0.06500000 0.10000000 0.17399999
vn 0.32757169 0.86022484 0.39078119
v 0.07282954 0.09000000 0.18944986
vn 0.32757169 0.86022484 0.39078119
v 0.10308691 0.09000000 0.16408667
vn 0.32757169 0.86022484 0.39078119
f 223/223/223 224/224/224 225/225/225
v 0.06500000 0.10000000 0.17399999
vn 0.32644910 0.86452889 0.38212654
v 0.10308691 0.09000000 0.16408667
vn 0.32644910 0.86452889 0.38212654
v 0.09037387 0.09999999 0.15232322
vn 0.32644910 0.86452889 0.38212654
f 226/226/226 227/227/227 228/228/228
v 0.05717046 0.09000000 0.15855013
vn -0.33175552 0.85972750 -0.38833863
v 0.06500000 0.10000000 0.17399999
vn -0.33175552 0.85972750 -0.38833863
v 0.09037387 0.09999999 0.15232322
vn -0.33175552 0.85972750 -0.38833863
f 229/229/229 230/230/230 231/231/231
v 0.05717046 0.09000000 0.15855013
vn -0.33122042 0.86485642 -0.37724850
v 0.09037387 0.09999999 0.15232322
vn -0.33122042 0.86485642 -0.37724850
v 0.07766084 0.09000000 0.14055976
vn -0.33122042 0.86485642 -0.37724850
f 232/232/232 233/233/233 234/234/234
v 0.05717046 0.07000000 0.15855013
vn -0.65977663 -0.00000000 -0.75146180
v 0.05717046 0.09000000 0.15855013
vn -0.65977663 -0.00000000 -0.75146180
v 0.07766084 0.09000000 0.14055976
vn -0.65977663 -0.00000000 -0.75146180
f 235/235/235 236/236/236 237/237/237
v 0.05717046 0.07000000 0.15855013
vn -0.65977663 0.00000000 -0.75146180
v 0.07766084 0.09000000 0.14055976
vn -0.65977663 0.00000000 -0.75146180
v 0.07766084 0.07000000 0.14055976
vn -0.65977663 0.00000000 -0.75146180
f 238/238/238 239/239/239 240/240/240
v 0.09037387 0.06000000 0.15232322
vn -0.40632430 -0.86452466 -0.29580021
v 0.07766084 0.07000000 0.14055976
vn -0.40632430 -0.86452466 -0.29580021
v 0.09825330 0.07000000 0.11227304
vn -0.40632430 -0.86452466 -0.29580021
f 241/241/241 242/242/242 243/243/243
v 0.09037387 0.06000000 0.15232322
vn -0.40616909 -0.86460143 -0.29578885
v 0.09825330 0.07000000 0.11227304
vn -0.40616909 -0.86460143 -0.29578885
v 0.11100000 0.05999999 0.12400000
vn -0.40616909 -0.86460143 -0.29578885
f 244/244/244 245/245/245 246/246/246
v 0.10308691 0.07000000 0.16408667
vn 0.40626991 -0.86452883 0.29586253
v 0.09037387 0.06000000 0.15232322
vn 0.40626991 -0.86452883 0.29586253
v 0.11100000 0.05999999 0.12400000
vn 0.40626991 -0.86452883 0.29586253
f 247/247/247 248/248/248 249/249/249
v 0.10308691 0.07000000 0.16408667
vn 0.40611503 -0.86460555 0.29585108
v 0.11100000 0.05999999 0.12400000
vn 0.40611503 -0.86460555 0.29585108
v 0.12374670 0.07000000 0.13572696
vn 0.40611503 -0.86460555 0.29585108
f 250/250/250 251/251/251 252/252/252
v 0.10308691 0.09000000 0.16408667
vn 0.80826747 -0.00000000 0.58881539
v 0.10308691 0.07000000 0.16408667
vn 0.80826747 -0.00000000 0.58881539
v 0.12374670 0.07000000 0.13572696
vn 0.80826747 -0.00000000 0.58881539
f 253/253/253 254/254/254 255/255/255
v 0.10308691 0.09000000 0.16408667
vn 0.80826747 0.00000000 0.58881539
v 0.12374670 0.07000000 0.13572696
vn 0.80826747 0.00000000 0.58881539
v 0.12374670 0.09000000 0.13572696
vn 0.80826747 0.00000000 0.58881539
f 256/256/256 257/257/257 258/258/258
v 0.09037387 0.09999999 0.15232322
vn 0.40621576 0.86453313 0.29592443
v 0.10308691 0.09000000 0.16408667
vn 0.40621576 0.86453313 0.29592443
v 0.12374670 0.09000000 0.13572696
vn 0.40621576 0.86453313 0.29592443
f 259/259/259 260/260/260 261/261/261
v 0.09037387 0.09999999 0.15232322
vn 0.40616888 0.86460149 0.29578903
v 0.12374670 0.09000000 0.13572696
vn 0.40616888 0.86460149 0.29578903
v 0.11100000 0.10000000 0.12400000
vn 0.40616888 0.86460149 0.29578903
f 262/262/262 263/263/263 264/264/264
v 0.07766084 0.09000000 0.14055976
vn -0.40627003 0.86452889 -0.29586223
v 0.09037387 0.09999999 0.15232322
vn -0.40627003 0.86452889 -0.29586223
v 0.11100000 0.10000000 0.12400000
vn -0.40627003 0.86452889 -0.29586223
f 265/265/265 266/266/266 267/267/267
v 0.07766084 0.09000000 0.14055976
vn -0.40622318 0.86459744 -0.29572648
v 0.11100000 0.10000000 0.12400000
vn -0.40622318 0.86459744 -0.29572648
v 0.09825330 0.09000000 0.11227303
vn -0.40622318 0.86459744 -0.29572648
f 268/268/268 269/269/269 270/270/270
v 0.07766084 0.07000000 0.14055976
vn -0.80846006 -0.00000000 -0.58855104
v 0.07766084 0.09000000 0.14055976
vn -0.80846006 -0.00000000 -0.58855104
v 0.09825330 0.09000000 0.11227303
vn -0.80846006 -0.00000000 -0.58855104
f 271/271/271 272/272/272 273/273/273
v 0.07766084 0.07000000 0.14055976
vn -0.80846000 -0.00000022 -0.58855122
v 0.09825330 0.09000000 0.11227303
vn -0.80846000 -0.00000022 -0.58855122
v 0.09825330 0.07000000 0.11227304
vn -0.80846000 -0.00000022 -0.58855122
f 274/274/274 275/275/275 276/276/276
o pz_phone_rotary_beige_|_low-poly_receiver_end_0
usemtl UV_Base
v -0.08000000 0.08000000 0.08800000
vn 0.00000000 0.00000000 -1.00000000
v -0.09500000 0.05488526 0.08800000
vn 0.00000000 0.00000000 -1.00000000
v -0.12500000 0.05488526 0.08800000
vn 0.00000000 0.00000000 -1.00000000
f 277/277/277 278/278/278 279/279/279
v -0.12500000 0.05488526 0.08800000
vn 0.00000000 -0.00000000 -1.00000000
v -0.14000000 0.08000000 0.08800000
vn 0.00000000 -0.00000000 -1.00000000
v -0.12500000 0.10511474 0.08800000
vn 0.00000000 -0.00000000 -1.00000000
f 280/280/280 281/281/281 282/282/282
v -0.12500000 0.10511474 0.08800000
vn 0.00000000 0.00000000 -0.99999994
v -0.09500000 0.10511474 0.08800000
vn 0.00000000 0.00000000 -0.99999994
v -0.08000000 0.08000000 0.08800000
vn 0.00000000 0.00000000 -0.99999994
f 283/283/283 284/284/284 285/285/285
v -0.12500000 0.05488526 0.08800000
vn -0.00000000 -0.00000000 -1.00000000
v -0.12500000 0.10511474 0.08800000
vn -0.00000000 -0.00000000 -1.00000000
v -0.08000000 0.08000000 0.08800000
vn -0.00000000 -0.00000000 -1.00000000
f 286/286/286 287/287/287 288/288/288
v -0.09500000 0.05488526 0.12800001
vn 0.00000000 0.00000000 1.00000000
v -0.08000000 0.08000000 0.12800001
vn 0.00000000 0.00000000 1.00000000
v -0.09500000 0.10511474 0.12800001
vn 0.00000000 0.00000000 1.00000000
f 289/289/289 290/290/290 291/291/291
v -0.09500000 0.10511474 0.12800001
vn 0.00000000 0.00000000 0.99999994
v -0.12500000 0.10511474 0.12800001
vn 0.00000000 0.00000000 0.99999994
v -0.14000000 0.08000000 0.12800001
vn 0.00000000 0.00000000 0.99999994
f 292/292/292 293/293/293 294/294/294
v -0.14000000 0.08000000 0.12800001
vn 0.00000000 0.00000000 1.00000000
v -0.12500000 0.05488526 0.12800001
vn 0.00000000 0.00000000 1.00000000
v -0.09500000 0.05488526 0.12800001
vn 0.00000000 0.00000000 1.00000000
f 295/295/295 296/296/296 297/297/297
v -0.09500000 0.10511474 0.12800001
vn 0.00000000 -0.00000000 1.00000000
v -0.14000000 0.08000000 0.12800001
vn 0.00000000 -0.00000000 1.00000000
v -0.09500000 0.05488526 0.12800001
vn 0.00000000 -0.00000000 1.00000000
f 298/298/298 299/299/299 300/300/300
v -0.08000000 0.08000000 0.08800000
vn 0.80497324 0.48077747 -0.34766525
v -0.09500000 0.10511474 0.08800000
vn 0.80497324 0.48077747 -0.34766525
v -0.09050000 0.11204294 0.10800000
vn 0.80497324 0.48077747 -0.34766525
f 301/301/301 302/302/302 303/303/303
v -0.08000000 0.08000000 0.08800000
vn 0.79736531 0.48524317 -0.35881418
v -0.09050000 0.11204294 0.10800000
vn 0.79736531 0.48524317 -0.35881418
v -0.07100000 0.08000000 0.10800000
vn 0.79736531 0.48524317 -0.35881418
f 304/304/304 305/305/305 306/306/306
v -0.09500000 0.10511474 0.08800000
vn 0.00000000 0.94491124 -0.32732689
v -0.12500000 0.10511474 0.08800000
vn 0.00000000 0.94491124 -0.32732689
v -0.12950000 0.11204294 0.10800000
vn 0.00000000 0.94491124 -0.32732689
f 307/307/307 308/308/308 309/309/309
v -0.09500000 0.10511474 0.08800000
vn 0.00000000 0.94491118 -0.32732686
v -0.12950000 0.11204294 0.10800000
vn 0.00000000 0.94491118 -0.32732686
v -0.09050000 0.11204294 0.10800000
vn 0.00000000 0.94491118 -0.32732686
f 310/310/310 311/311/311 312/312/312
v -0.12500000 0.10511474 0.08800000
vn -0.80084145 0.47830972 -0.36037874
v -0.14000000 0.08000000 0.08800000
vn -0.80084145 0.47830972 -0.36037874
v -0.14900000 0.08000000 0.10800000
vn -0.80084145 0.47830972 -0.36037874
f 313/313/313 314/314/314 315/315/315
v -0.12500000 0.10511474 0.08800000
vn -0.80057037 0.48719385 -0.34889731
v -0.14900000 0.08000000 0.10800000
vn -0.80057037 0.48719385 -0.34889731
v -0.12950000 0.11204294 0.10800000
vn -0.80057037 0.48719385 -0.34889731
f 316/316/316 317/317/317 318/318/318
v -0.14000000 0.08000000 0.08800000
vn -0.80497319 -0.48077750 -0.34766525
v -0.12500000 0.05488526 0.08800000
vn -0.80497319 -0.48077750 -0.34766525
v -0.12950000 0.04795706 0.10800000
vn -0.80497319 -0.48077750 -0.34766525
f 319/319/319 320/320/320 321/321/321
v -0.14000000 0.08000000 0.08800000
vn -0.79736513 -0.48524332 -0.35881442
v -0.12950000 0.04795706 0.10800000
vn -0.79736513 -0.48524332 -0.35881442
v -0.14900000 0.08000000 0.10800000
vn -0.79736513 -0.48524332 -0.35881442
f 322/322/322 323/323/323 324/324/324
v -0.12500000 0.05488526 0.08800000
vn -0.00000000 -0.94491124 -0.32732689
v -0.09500000 0.05488526 0.08800000
vn -0.00000000 -0.94491124 -0.32732689
v -0.09050000 0.04795706 0.10800000
vn -0.00000000 -0.94491124 -0.32732689
f 325/325/325 326/326/326 327/327/327
v -0.12500000 0.05488526 0.08800000
vn 0.00000000 -0.94491118 -0.32732686
v -0.09050000 0.04795706 0.10800000
vn 0.00000000 -0.94491118 -0.32732686
v -0.12950000 0.04795706 0.10800000
vn 0.00000000 -0.94491118 -0.32732686
f 328/328/328 329/329/329 330/330/330
v -0.09500000 0.05488526 0.08800000
vn 0.80084151 -0.47830984 -0.36037847
v -0.08000000 0.08000000 0.08800000
vn 0.80084151 -0.47830984 -0.36037847
v -0.07100000 0.08000000 0.10800000
vn 0.80084151 -0.47830984 -0.36037847
f 331/331/331 332/332/332 333/333/333
v -0.09500000 0.05488526 0.08800000
vn 0.80057043 -0.48719376 -0.34889725
v -0.07100000 0.08000000 0.10800000
vn 0.80057043 -0.48719376 -0.34889725
v -0.09050000 0.04795706 0.10800000
vn 0.80057043 -0.48719376 -0.34889725
f 334/334/334 335/335/335 336/336/336
v -0.07100000 0.08000000 0.10800000
vn 0.80057037 0.48719364 0.34889725
v -0.09050000 0.11204294 0.10800000
vn 0.80057037 0.48719364 0.34889725
v -0.09500000 0.10511474 0.12800001
vn 0.80057037 0.48719364 0.34889725
f 337/337/337 338/338/338 339/339/339
v -0.07100000 0.08000000 0.10800000
vn 0.80084157 0.47830981 0.36037847
v -0.09500000 0.10511474 0.12800001
vn 0.80084157 0.47830981 0.36037847
v -0.08000000 0.08000000 0.12800001
vn 0.80084157 0.47830981 0.36037847
f 340/340/340 341/341/341 342/342/342
v -0.09050000 0.11204294 0.10800000
vn -0.00000000 0.94491118 0.32732686
v -0.12950000 0.11204294 0.10800000
vn -0.00000000 0.94491118 0.32732686
v -0.12500000 0.10511474 0.12800001
vn -0.00000000 0.94491118 0.32732686
f 343/343/343 344/344/344 345/345/345
v -0.09050000 0.11204294 0.10800000
vn 0.00000000 0.94491124 0.32732689
v -0.12500000 0.10511474 0.12800001
vn 0.00000000 0.94491124 0.32732689
v -0.09500000 0.10511474 0.12800001
vn 0.00000000 0.94491124 0.32732689
f 346/346/346 347/347/347 348/348/348
v -0.12950000 0.11204294 0.10800000
vn -0.79736513 0.48524326 0.35881439
v -0.14900000 0.08000000 0.10800000
vn -0.79736513 0.48524326 0.35881439
v -0.14000000 0.08000000 0.12800001
vn -0.79736513 0.48524326 0.35881439
f 349/349/349 350/350/350 351/351/351
v -0.12950000 0.11204294 0.10800000
vn -0.80497324 0.48077747 0.34766525
v -0.14000000 0.08000000 0.12800001
vn -0.80497324 0.48077747 0.34766525
v -0.12500000 0.10511474 0.12800001
vn -0.80497324 0.48077747 0.34766525
f 352/352/352 353/353/353 354/354/354
v -0.14900000 0.08000000 0.10800000
vn -0.80057031 -0.48719385 0.34889728
v -0.12950000 0.04795706 0.10800000
vn -0.80057031 -0.48719385 0.34889728
v -0.12500000 0.05488526 0.12800001
vn -0.80057031 -0.48719385 0.34889728
f 355/355/355 356/356/356 357/357/357
v -0.14900000 0.08000000 0.10800000
vn -0.80084145 -0.47830981 0.36037874
v -0.12500000 0.05488526 0.12800001
vn -0.80084145 -0.47830981 0.36037874
v -0.14000000 0.08000000 0.12800001
vn -0.80084145 -0.47830981 0.36037874
f 358/358/358 359/359/359 360/360/360
v -0.12950000 0.04795706 0.10800000
vn 0.00000000 -0.94491118 0.32732686
v -0.09050000 0.04795706 0.10800000
vn 0.00000000 -0.94491118 0.32732686
v -0.09500000 0.05488526 0.12800001
vn 0.00000000 -0.94491118 0.32732686
f 361/361/361 362/362/362 363/363/363
v -0.12950000 0.04795706 0.10800000
vn 0.00000000 -0.94491124 0.32732689
v -0.09500000 0.05488526 0.12800001
vn 0.00000000 -0.94491124 0.32732689
v -0.12500000 0.05488526 0.12800001
vn 0.00000000 -0.94491124 0.32732689
f 364/364/364 365/365/365 366/366/366
v -0.09050000 0.04795706 0.10800000
vn 0.79736531 -0.48524323 0.35881418
v -0.07100000 0.08000000 0.10800000
vn 0.79736531 -0.48524323 0.35881418
v -0.08000000 0.08000000 0.12800001
vn 0.79736531 -0.48524323 0.35881418
f 367/367/367 368/368/368 369/369/369
v -0.09050000 0.04795706 0.10800000
vn 0.80497319 -0.48077750 0.34766525
v -0.08000000 0.08000000 0.12800001
vn 0.80497319 -0.48077750 0.34766525
v -0.09500000 0.05488526 0.12800001
vn 0.80497319 -0.48077750 0.34766525
f 370/370/370 371/371/371 372/372/372
o pz_phone_rotary_beige_|_low-poly_receiver_end_1
usemtl UV_Base
v 0.14000000 0.08000000 0.08800000
vn 0.00000000 0.00000000 -1.00000000
v 0.12500000 0.05488526 0.08800000
vn 0.00000000 0.00000000 -1.00000000
v 0.09500000 0.05488526 0.08800000
vn 0.00000000 0.00000000 -1.00000000
f 373/373/373 374/374/374 375/375/375
v 0.09500000 0.05488526 0.08800000
vn 0.00000000 -0.00000000 -1.00000000
v 0.08000000 0.08000000 0.08800000
vn 0.00000000 -0.00000000 -1.00000000
v 0.09500000 0.10511474 0.08800000
vn 0.00000000 -0.00000000 -1.00000000
f 376/376/376 377/377/377 378/378/378
v 0.09500000 0.10511474 0.08800000
vn 0.00000000 0.00000000 -0.99999994
v 0.12500000 0.10511474 0.08800000
vn 0.00000000 0.00000000 -0.99999994
v 0.14000000 0.08000000 0.08800000
vn 0.00000000 0.00000000 -0.99999994
f 379/379/379 380/380/380 381/381/381
v 0.09500000 0.05488526 0.08800000
vn -0.00000000 -0.00000000 -1.00000000
v 0.09500000 0.10511474 0.08800000
vn -0.00000000 -0.00000000 -1.00000000
v 0.14000000 0.08000000 0.08800000
vn -0.00000000 -0.00000000 -1.00000000
f 382/382/382 383/383/383 384/384/384
v 0.12500000 0.05488526 0.12800001
vn 0.00000000 0.00000000 1.00000000
v 0.14000000 0.08000000 0.12800001
vn 0.00000000 0.00000000 1.00000000
v 0.12500000 0.10511474 0.12800001
vn 0.00000000 0.00000000 1.00000000
f 385/385/385 386/386/386 387/387/387
v 0.12500000 0.10511474 0.12800001
vn 0.00000000 0.00000000 0.99999994
v 0.09500000 0.10511474 0.12800001
vn 0.00000000 0.00000000 0.99999994
v 0.08000000 0.08000000 0.12800001
vn 0.00000000 0.00000000 0.99999994
f 388/388/388 389/389/389 390/390/390
v 0.08000000 0.08000000 0.12800001
vn 0.00000000 0.00000000 1.00000000
v 0.09500000 0.05488526 0.12800001
vn 0.00000000 0.00000000 1.00000000
v 0.12500000 0.05488526 0.12800001
vn 0.00000000 0.00000000 1.00000000
f 391/391/391 392/392/392 393/393/393
v 0.12500000 0.10511474 0.12800001
vn 0.00000000 -0.00000000 1.00000000
v 0.08000000 0.08000000 0.12800001
vn 0.00000000 -0.00000000 1.00000000
v 0.12500000 0.05488526 0.12800001
vn 0.00000000 -0.00000000 1.00000000
f 394/394/394 395/395/395 396/396/396
v 0.14000000 0.08000000 0.08800000
vn 0.80497324 0.48077747 -0.34766525
v 0.12500000 0.10511474 0.08800000
vn 0.80497324 0.48077747 -0.34766525
v 0.12950000 0.11204294 0.10800000
vn 0.80497324 0.48077747 -0.34766525
f 397/397/397 398/398/398 399/399/399
v 0.14000000 0.08000000 0.08800000
vn 0.79736513 0.48524326 -0.35881439
v 0.12950000 0.11204294 0.10800000
vn 0.79736513 0.48524326 -0.35881439
v 0.14900000 0.08000000 0.10800000
vn 0.79736513 0.48524326 -0.35881439
f 400/400/400 401/401/401 402/402/402
v 0.12500000 0.10511474 0.08800000
vn 0.00000000 0.94491124 -0.32732689
v 0.09500000 0.10511474 0.08800000
vn 0.00000000 0.94491124 -0.32732689
v 0.09050000 0.11204294 0.10800000
vn 0.00000000 0.94491124 -0.32732689
f 403/403/403 404/404/404 405/405/405
v 0.12500000 0.10511474 0.08800000
vn 0.00000000 0.94491118 -0.32732686
v 0.09050000 0.11204294 0.10800000
vn 0.00000000 0.94491118 -0.32732686
v 0.12950000 0.11204294 0.10800000
vn 0.00000000 0.94491118 -0.32732686
f 406/406/406 407/407/407 408/408/408
v 0.09500000 0.10511474 0.08800000
vn -0.80084157 0.47830981 -0.36037847
v 0.08000000 0.08000000 0.08800000
vn -0.80084157 0.47830981 -0.36037847
v 0.07100000 0.08000000 0.10800000
vn -0.80084157 0.47830981 -0.36037847
f 409/409/409 410/410/410 411/411/411
v 0.09500000 0.10511474 0.08800000
vn -0.80057037 0.48719364 -0.34889725
v 0.07100000 0.08000000 0.10800000
vn -0.80057037 0.48719364 -0.34889725
v 0.09050000 0.11204294 0.10800000
vn -0.80057037 0.48719364 -0.34889725
f 412/412/412 413/413/413 414/414/414
v 0.08000000 0.08000000 0.08800000
vn -0.80497319 -0.48077750 -0.34766525
v 0.09500000 0.05488526 0.08800000
vn -0.80497319 -0.48077750 -0.34766525
v 0.09050000 0.04795706 0.10800000
vn -0.80497319 -0.48077750 -0.34766525
f 415/415/415 416/416/416 417/417/417
v 0.08000000 0.08000000 0.08800000
vn -0.79736531 -0.48524323 -0.35881412
v 0.09050000 0.04795706 0.10800000
vn -0.79736531 -0.48524323 -0.35881412
v 0.07100000 0.08000000 0.10800000
vn -0.79736531 -0.48524323 -0.35881412
f 418/418/418 419/419/419 420/420/420
v 0.09500000 0.05488526 0.08800000
vn -0.00000000 -0.94491124 -0.32732689
v 0.12500000 0.05488526 0.08800000
vn -0.00000000 -0.94491124 -0.32732689
v 0.12950000 0.04795706 0.10800000
vn -0.00000000 -0.94491124 -0.32732689
f 421/421/421 422/422/422 423/423/423
v 0.09500000 0.05488526 0.08800000
vn 0.00000000 -0.94491118 -0.32732686
v 0.12950000 0.04795706 0.10800000
vn 0.00000000 -0.94491118 -0.32732686
v 0.09050000 0.04795706 0.10800000
vn 0.00000000 -0.94491118 -0.32732686
f 424/424/424 425/425/425 426/426/426
v 0.12500000 0.05488526 0.08800000
vn 0.80084145 -0.47830981 -0.36037874
v 0.14000000 0.08000000 0.08800000
vn 0.80084145 -0.47830981 -0.36037874
v 0.14900000 0.08000000 0.10800000
vn 0.80084145 -0.47830981 -0.36037874
f 427/427/427 428/428/428 429/429/429
v 0.12500000 0.05488526 0.08800000
vn 0.80057031 -0.48719385 -0.34889725
v 0.14900000 0.08000000 0.10800000
vn 0.80057031 -0.48719385 -0.34889725
v 0.12950000 0.04795706 0.10800000
vn 0.80057031 -0.48719385 -0.34889725
f 430/430/430 431/431/431 432/432/432
v 0.14900000 0.08000000 0.10800000
vn 0.80057037 0.48719385 0.34889731
v 0.12950000 0.11204294 0.10800000
vn 0.80057037 0.48719385 0.34889731
v 0.12500000 0.10511474 0.12800001
vn 0.80057037 0.48719385 0.34889731
f 433/433/433 434/434/434 435/435/435
v 0.14900000 0.08000000 0.10800000
vn 0.80084145 0.47830972 0.36037868
v 0.12500000 0.10511474 0.12800001
vn 0.80084145 0.47830972 0.36037868
v 0.14000000 0.08000000 0.12800001
vn 0.80084145 0.47830972 0.36037868
f 436/436/436 437/437/437 438/438/438
v 0.12950000 0.11204294 0.10800000
vn -0.00000000 0.94491118 0.32732686
v 0.09050000 0.11204294 0.10800000
vn -0.00000000 0.94491118 0.32732686
v 0.09500000 0.10511474 0.12800001
vn -0.00000000 0.94491118 0.32732686
f 439/439/439 440/440/440 441/441/441
v 0.12950000 0.11204294 0.10800000
vn 0.00000000 0.94491124 0.32732689
v 0.09500000 0.10511474 0.12800001
vn 0.00000000 0.94491124 0.32732689
v 0.12500000 0.10511474 0.12800001
vn 0.00000000 0.94491124 0.32732689
f 442/442/442 443/443/443 444/444/444
v 0.09050000 0.11204294 0.10800000
vn -0.79736531 0.48524317 0.35881418
v 0.07100000 0.08000000 0.10800000
vn -0.79736531 0.48524317 0.35881418
v 0.08000000 0.08000000 0.12800001
vn -0.79736531 0.48524317 0.35881418
f 445/445/445 446/446/446 447/447/447
v 0.09050000 0.11204294 0.10800000
vn -0.80497324 0.48077747 0.34766525
v 0.08000000 0.08000000 0.12800001
vn -0.80497324 0.48077747 0.34766525
v 0.09500000 0.10511474 0.12800001
vn -0.80497324 0.48077747 0.34766525
f 448/448/448 449/449/449 450/450/450
v 0.07100000 0.08000000 0.10800000
vn -0.80057037 -0.48719370 0.34889725
v 0.09050000 0.04795706 0.10800000
vn -0.80057037 -0.48719370 0.34889725
v 0.09500000 0.05488526 0.12800001
vn -0.80057037 -0.48719370 0.34889725
f 451/451/451 452/452/452 453/453/453
v 0.07100000 0.08000000 0.10800000
vn -0.80084151 -0.47830984 0.36037850
v 0.09500000 0.05488526 0.12800001
vn -0.80084151 -0.47830984 0.36037850
v 0.08000000 0.08000000 0.12800001
vn -0.80084151 -0.47830984 0.36037850
f 454/454/454 455/455/455 456/456/456
v 0.09050000 0.04795706 0.10800000
vn 0.00000000 -0.94491118 0.32732686
v 0.12950000 0.04795706 0.10800000
vn 0.00000000 -0.94491118 0.32732686
v 0.12500000 0.05488526 0.12800001
vn 0.00000000 -0.94491118 0.32732686
f 457/457/457 458/458/458 459/459/459
v 0.09050000 0.04795706 0.10800000
vn 0.00000000 -0.94491124 0.32732689
v 0.12500000 0.05488526 0.12800001
vn 0.00000000 -0.94491124 0.32732689
v 0.09500000 0.05488526 0.12800001
vn 0.00000000 -0.94491124 0.32732689
f 460/460/460 461/461/461 462/462/462
v 0.12950000 0.04795706 0.10800000
vn 0.79736513 -0.48524332 0.35881439
v 0.14900000 0.08000000 0.10800000
vn 0.79736513 -0.48524332 0.35881439
v 0.14000000 0.08000000 0.12800001
vn 0.79736513 -0.48524332 0.35881439
f 463/463/463 464/464/464 465/465/465
v 0.12950000 0.04795706 0.10800000
vn 0.80497319 -0.48077750 0.34766525
v 0.14000000 0.08000000 0.12800001
vn 0.80497319 -0.48077750 0.34766525
v 0.12500000 0.05488526 0.12800001
vn 0.80497319 -0.48077750 0.34766525
f 466/466/466 467/467/467 468/468/468
