# G009-r3: solid simple pot; native PNG foliage, no leaf/stem geometry.
mtllib ../Materials/pz_plant_native_10.mtl
usemtl UV_Base
o pot_soil_and_rim
v 0.08610000 0.00000000 0.01000000
vn 0.00000000 0.00000000 -0.99999994
v 0.06088189 -0.06088189 0.01000000
vn 0.00000000 0.00000000 -0.99999994
v -0.00000000 -0.08610000 0.01000000
vn 0.00000000 0.00000000 -0.99999994
vt 0.163391771 0.909820886
vt 0.140607711 0.964826461
vt 0.085602136 0.987610521
vt 0.085602136 0.987610521
vt 0.030596560 0.964826461
vt 0.007812500 0.909820886
vt 0.007812500 0.909820886
vt 0.030596560 0.854815310
vt 0.085602136 0.832031250
vt 0.085602136 0.832031250
vt 0.140607711 0.854815310
vt 0.163391771 0.909820886
vt 0.163391771 0.909820886
vt 0.085602136 0.987610521
vt 0.007812500 0.909820886
vt 0.007812500 0.909820886
vt 0.085602136 0.832031250
vt 0.163391771 0.909820886
vt 0.297306116 0.852211417
vt 0.317486283 0.900930642
vt 0.297306116 0.949649866
vt 0.297306116 0.949649866
vt 0.248586892 0.969830033
vt 0.199867667 0.949649866
vt 0.199867667 0.949649866
vt 0.179687500 0.900930642
vt 0.199867667 0.852211417
vt 0.199867667 0.852211417
vt 0.248586892 0.832031250
vt 0.297306116 0.852211417
vt 0.297306116 0.852211417
vt 0.297306116 0.949649866
vt 0.199867667 0.949649866
vt 0.199867667 0.949649866
vt 0.199867667 0.852211417
vt 0.297306116 0.852211417
vt 0.785490277 0.007812500
vt 0.845027884 0.007812500
vt 0.851562500 0.180197112
vt 0.785490277 0.007812500
vt 0.851562500 0.180197112
vt 0.778955660 0.180197111
vt 0.875334026 0.007812500
vt 0.934871633 0.007812500
vt 0.941406250 0.180197111
vt 0.875334026 0.007812500
vt 0.941406250 0.180197111
vt 0.868799410 0.180197112
vt 0.578459027 0.375000000
vt 0.637996634 0.375000000
vt 0.644531250 0.547384612
vt 0.578459027 0.375000000
vt 0.644531250 0.547384612
vt 0.571924410 0.547384611
vt 0.668302776 0.375000000
vt 0.727840383 0.375000000
vt 0.734375000 0.547384611
vt 0.668302776 0.375000000
vt 0.734375000 0.547384611
vt 0.661768160 0.547384612
vt 0.758146527 0.375000000
vt 0.817684134 0.375000000
vt 0.824218750 0.547384612
vt 0.758146527 0.375000000
vt 0.824218750 0.547384612
vt 0.751611910 0.547384611
vt 0.847990276 0.375000000
vt 0.907527883 0.375000000
vt 0.914062500 0.547384611
vt 0.847990276 0.375000000
vt 0.914062500 0.547384611
vt 0.841455660 0.547384612
vt 0.007812500 0.808259723
vt 0.007812500 0.748722116
vt 0.180197112 0.742187500
vt 0.007812500 0.808259723
vt 0.180197112 0.742187500
vt 0.180197111 0.814794340
vt 0.199218750 0.808259724
vt 0.199218750 0.748722117
vt 0.371603361 0.742187500
vt 0.199218750 0.808259724
vt 0.371603361 0.742187500
vt 0.371603362 0.814794340
vt 0.760043319 0.102677909
vt 0.732257882 0.169757882
vt 0.724591600 0.162091600
vt 0.760043319 0.102677909
vt 0.724591600 0.162091600
vt 0.749201558 0.102677909
vt 0.732257882 0.169757882
vt 0.665177909 0.197543319
vt 0.665177909 0.186701558
vt 0.732257882 0.169757882
vt 0.665177909 0.186701558
vt 0.724591600 0.162091600
vt 0.665177909 0.197543319
vt 0.598097937 0.169757882
vt 0.605764218 0.162091600
vt 0.665177909 0.197543319
vt 0.605764218 0.162091600
vt 0.665177909 0.186701558
vt 0.598097937 0.169757882
vt 0.570312500 0.102677909
vt 0.581154261 0.102677909
vt 0.598097937 0.169757882
vt 0.581154261 0.102677909
vt 0.605764218 0.162091600
vt 0.570312500 0.102677909
vt 0.598097937 0.035597937
vt 0.605764218 0.043264218
vt 0.570312500 0.102677909
vt 0.605764218 0.043264218
vt 0.581154261 0.102677909
vt 0.598097937 0.035597937
vt 0.665177909 0.007812500
vt 0.665177909 0.018654261
vt 0.598097937 0.035597937
vt 0.665177909 0.018654261
vt 0.605764218 0.043264218
vt 0.665177909 0.007812500
vt 0.732257882 0.035597937
vt 0.724591600 0.043264218
vt 0.665177909 0.007812500
vt 0.724591600 0.043264218
vt 0.665177909 0.018654261
vt 0.732257882 0.035597937
vt 0.760043319 0.102677909
vt 0.749201558 0.102677909
vt 0.732257882 0.035597937
vt 0.749201558 0.102677909
vt 0.724591600 0.043264218
vt 0.429687500 0.742187500
vt 0.415994852 0.805021791
vt 0.391276521 0.793711617
vt 0.429687500 0.742187500
vt 0.391276521 0.793711617
vt 0.402504494 0.742187500
vt 0.459656670 0.805021791
vt 0.445964021 0.742187501
vt 0.473147027 0.742187500
vt 0.459656670 0.805021791
vt 0.473147027 0.742187500
vt 0.484375000 0.793711616
vt 0.500651521 0.805021790
vt 0.514344169 0.742187500
vt 0.539062500 0.753497674
vt 0.500651521 0.805021790
vt 0.539062500 0.753497674
vt 0.527834527 0.805021791
vt 0.569031670 0.805021791
vt 0.555339021 0.742187501
vt 0.582522027 0.742187500
vt 0.569031670 0.805021791
vt 0.582522027 0.742187500
vt 0.593750000 0.793711616
vt 0.610026521 0.805021790
vt 0.623719169 0.742187500
vt 0.648437500 0.753497674
vt 0.610026521 0.805021790
vt 0.648437500 0.753497674
vt 0.637209527 0.805021791
vt 0.689432351 0.742187500
vt 0.703125000 0.805021790
vt 0.675941994 0.805021791
vt 0.689432351 0.742187500
vt 0.675941994 0.805021791
vt 0.664714021 0.753497674
vt 0.757812500 0.742187500
vt 0.744119852 0.805021791
vt 0.719401521 0.793711617
vt 0.757812500 0.742187500
vt 0.719401521 0.793711617
vt 0.730629494 0.742187500
vt 0.798807351 0.742187500
vt 0.812500000 0.805021790
vt 0.785316994 0.805021791
vt 0.798807351 0.742187500
vt 0.785316994 0.805021791
vt 0.774089021 0.753497674
vt 0.554687500 0.007812500
vt 0.554687500 0.359372558
vt 0.007816315 0.359372558
vt 0.554687500 0.007812500
vt 0.007816315 0.359372558
vt 0.007816315 0.007812500
vt 0.554687500 0.375000000
vt 0.554687500 0.726560058
vt 0.007816315 0.726560058
vt 0.554687500 0.375000000
vt 0.007816315 0.726560058
vt 0.007816315 0.375000000
f 1/1/1 2/2/2 3/3/3
v -0.00000000 -0.08610000 0.01000000
vn 0.00000000 0.00000000 -0.99999994
v -0.06088189 -0.06088189 0.01000000
vn 0.00000000 0.00000000 -0.99999994
v -0.08610000 0.00000000 0.01000000
vn 0.00000000 0.00000000 -0.99999994
f 4/4/4 5/5/5 6/6/6
v -0.08610000 0.00000000 0.01000000
vn 0.00000000 0.00000000 -0.99999994
v -0.06088189 0.06088189 0.01000000
vn 0.00000000 0.00000000 -0.99999994
v 0.00000000 0.08610000 0.01000000
vn 0.00000000 0.00000000 -0.99999994
f 7/7/7 8/8/8 9/9/9
v 0.00000000 0.08610000 0.01000000
vn 0.00000000 0.00000000 -0.99999994
v 0.06088189 0.06088189 0.01000000
vn 0.00000000 0.00000000 -0.99999994
v 0.08610000 0.00000000 0.01000000
vn 0.00000000 0.00000000 -0.99999994
f 10/10/10 11/11/11 12/12/12
v 0.08610000 0.00000000 0.01000000
vn 0.00000000 0.00000000 -1.00000000
v -0.00000000 -0.08610000 0.01000000
vn 0.00000000 0.00000000 -1.00000000
v -0.08610000 0.00000000 0.01000000
vn 0.00000000 0.00000000 -1.00000000
f 13/13/13 14/14/14 15/15/15
v -0.08610000 0.00000000 0.01000000
vn -0.00000000 0.00000000 -1.00000000
v 0.00000000 0.08610000 0.01000000
vn -0.00000000 0.00000000 -1.00000000
v 0.08610000 0.00000000 0.01000000
vn -0.00000000 0.00000000 -1.00000000
f 16/16/16 17/17/17 18/18/18
v 0.05392396 -0.05392396 0.17500000
vn 0.00000000 0.00000000 1.00000000
v 0.07626000 0.00000000 0.17500000
vn 0.00000000 0.00000000 1.00000000
v 0.05392396 0.05392396 0.17500000
vn 0.00000000 0.00000000 1.00000000
f 19/19/19 20/20/20 21/21/21
v 0.05392396 0.05392396 0.17500000
vn -0.00000000 0.00000000 1.00000000
v 0.00000000 0.07626000 0.17500000
vn -0.00000000 0.00000000 1.00000000
v -0.05392396 0.05392396 0.17500000
vn -0.00000000 0.00000000 1.00000000
f 22/22/22 23/23/23 24/24/24
v -0.05392396 0.05392396 0.17500000
vn 0.00000000 -0.00000000 1.00000000
v -0.07626000 0.00000000 0.17500000
vn 0.00000000 -0.00000000 1.00000000
v -0.05392396 -0.05392396 0.17500000
vn 0.00000000 -0.00000000 1.00000000
f 25/25/25 26/26/26 27/27/27
v -0.05392396 -0.05392396 0.17500000
vn 0.00000000 0.00000000 1.00000000
v -0.00000000 -0.07626000 0.17500000
vn 0.00000000 0.00000000 1.00000000
v 0.05392396 -0.05392396 0.17500000
vn 0.00000000 0.00000000 1.00000000
f 28/28/28 29/29/29 30/30/30
v 0.05392396 -0.05392396 0.17500000
vn -0.00000000 0.00000000 1.00000000
v 0.05392396 0.05392396 0.17500000
vn -0.00000000 0.00000000 1.00000000
v -0.05392396 0.05392396 0.17500000
vn -0.00000000 0.00000000 1.00000000
f 31/31/31 32/32/32 33/33/33
v -0.05392396 0.05392396 0.17500000
vn 0.00000000 -0.00000000 1.00000000
v -0.05392396 -0.05392396 0.17500000
vn 0.00000000 -0.00000000 1.00000000
v 0.05392396 -0.05392396 0.17500000
vn 0.00000000 -0.00000000 1.00000000
f 34/34/34 35/35/35 36/36/36
v 0.08610000 0.00000000 0.01000000
vn 0.92000264 0.38107750 -0.09151605
v 0.06088189 0.06088189 0.01000000
vn 0.92000264 0.38107750 -0.09151605
v 0.07424621 0.07424621 0.20000000
vn 0.92000264 0.38107750 -0.09151605
f 37/37/37 38/38/38 39/39/39
v 0.08610000 0.00000000 0.01000000
vn 0.92000258 0.38107750 -0.09151604
v 0.07424621 0.07424621 0.20000000
vn 0.92000258 0.38107750 -0.09151604
v 0.10500000 0.00000000 0.20000000
vn 0.92000258 0.38107750 -0.09151604
f 40/40/40 41/41/41 42/42/42
v 0.06088189 0.06088189 0.01000000
vn 0.38107750 0.92000264 -0.09151605
v 0.00000000 0.08610000 0.01000000
vn 0.38107750 0.92000264 -0.09151605
v 0.00000000 0.10500000 0.20000000
vn 0.38107750 0.92000264 -0.09151605
f 43/43/43 44/44/44 45/45/45
v 0.06088189 0.06088189 0.01000000
vn 0.38107750 0.92000258 -0.09151606
v 0.00000000 0.10500000 0.20000000
vn 0.38107750 0.92000258 -0.09151606
v 0.07424621 0.07424621 0.20000000
vn 0.38107750 0.92000258 -0.09151606
f 46/46/46 47/47/47 48/48/48
v 0.00000000 0.08610000 0.01000000
vn -0.38107750 0.92000264 -0.09151605
v -0.06088189 0.06088189 0.01000000
vn -0.38107750 0.92000264 -0.09151605
v -0.07424621 0.07424621 0.20000000
vn -0.38107750 0.92000264 -0.09151605
f 49/49/49 50/50/50 51/51/51
v 0.00000000 0.08610000 0.01000000
vn -0.38107750 0.92000258 -0.09151604
v -0.07424621 0.07424621 0.20000000
vn -0.38107750 0.92000258 -0.09151604
v 0.00000000 0.10500000 0.20000000
vn -0.38107750 0.92000258 -0.09151604
f 52/52/52 53/53/53 54/54/54
v -0.06088189 0.06088189 0.01000000
vn -0.92000264 0.38107750 -0.09151605
v -0.08610000 0.00000000 0.01000000
vn -0.92000264 0.38107750 -0.09151605
v -0.10500000 0.00000000 0.20000000
vn -0.92000264 0.38107750 -0.09151605
f 55/55/55 56/56/56 57/57/57
v -0.06088189 0.06088189 0.01000000
vn -0.92000258 0.38107750 -0.09151606
v -0.10500000 0.00000000 0.20000000
vn -0.92000258 0.38107750 -0.09151606
v -0.07424621 0.07424621 0.20000000
vn -0.92000258 0.38107750 -0.09151606
f 58/58/58 59/59/59 60/60/60
v -0.08610000 0.00000000 0.01000000
vn -0.92000264 -0.38107750 -0.09151605
v -0.06088189 -0.06088189 0.01000000
vn -0.92000264 -0.38107750 -0.09151605
v -0.07424621 -0.07424621 0.20000000
vn -0.92000264 -0.38107750 -0.09151605
f 61/61/61 62/62/62 63/63/63
v -0.08610000 0.00000000 0.01000000
vn -0.92000258 -0.38107750 -0.09151604
v -0.07424621 -0.07424621 0.20000000
vn -0.92000258 -0.38107750 -0.09151604
v -0.10500000 0.00000000 0.20000000
vn -0.92000258 -0.38107750 -0.09151604
f 64/64/64 65/65/65 66/66/66
v -0.06088189 -0.06088189 0.01000000
vn -0.38107750 -0.92000264 -0.09151605
v -0.00000000 -0.08610000 0.01000000
vn -0.38107750 -0.92000264 -0.09151605
v -0.00000000 -0.10500000 0.20000000
vn -0.38107750 -0.92000264 -0.09151605
f 67/67/67 68/68/68 69/69/69
v -0.06088189 -0.06088189 0.01000000
vn -0.38107750 -0.92000258 -0.09151606
v -0.00000000 -0.10500000 0.20000000
vn -0.38107750 -0.92000258 -0.09151606
v -0.07424621 -0.07424621 0.20000000
vn -0.38107750 -0.92000258 -0.09151606
f 70/70/70 71/71/71 72/72/72
v -0.00000000 -0.08610000 0.01000000
vn 0.38107750 -0.92000264 -0.09151605
v 0.06088189 -0.06088189 0.01000000
vn 0.38107750 -0.92000264 -0.09151605
v 0.07424621 -0.07424621 0.20000000
vn 0.38107750 -0.92000264 -0.09151605
f 73/73/73 74/74/74 75/75/75
v -0.00000000 -0.08610000 0.01000000
vn 0.38107750 -0.92000258 -0.09151604
v 0.07424621 -0.07424621 0.20000000
vn 0.38107750 -0.92000258 -0.09151604
v -0.00000000 -0.10500000 0.20000000
vn 0.38107750 -0.92000258 -0.09151604
f 76/76/76 77/77/77 78/78/78
v 0.06088189 -0.06088189 0.01000000
vn 0.92000264 -0.38107750 -0.09151605
v 0.08610000 0.00000000 0.01000000
vn 0.92000264 -0.38107750 -0.09151605
v 0.10500000 0.00000000 0.20000000
vn 0.92000264 -0.38107750 -0.09151605
f 79/79/79 80/80/80 81/81/81
v 0.06088189 -0.06088189 0.01000000
vn 0.92000258 -0.38107750 -0.09151606
v 0.10500000 0.00000000 0.20000000
vn 0.92000258 -0.38107750 -0.09151606
v 0.07424621 -0.07424621 0.20000000
vn 0.92000258 -0.38107750 -0.09151606
f 82/82/82 83/83/83 84/84/84
v 0.10500000 0.00000000 0.20000000
vn -0.00000000 0.00000000 0.99999994
v 0.07424621 0.07424621 0.20000000
vn -0.00000000 0.00000000 0.99999994
v 0.06576093 0.06576093 0.20000000
vn -0.00000000 0.00000000 0.99999994
f 85/85/85 86/86/86 87/87/87
v 0.10500000 0.00000000 0.20000000
vn -0.00000000 -0.00000000 0.99999994
v 0.06576093 0.06576093 0.20000000
vn -0.00000000 -0.00000000 0.99999994
v 0.09300000 0.00000000 0.20000000
vn -0.00000000 -0.00000000 0.99999994
f 88/88/88 89/89/89 90/90/90
v 0.07424621 0.07424621 0.20000000
vn -0.00000000 0.00000000 1.00000000
v 0.00000000 0.10500000 0.20000000
vn -0.00000000 0.00000000 1.00000000
v 0.00000000 0.09300000 0.20000000
vn -0.00000000 0.00000000 1.00000000
f 91/91/91 92/92/92 93/93/93
v 0.07424621 0.07424621 0.20000000
vn -0.00000000 -0.00000000 1.00000000
v 0.00000000 0.09300000 0.20000000
vn -0.00000000 -0.00000000 1.00000000
v 0.06576093 0.06576093 0.20000000
vn -0.00000000 -0.00000000 1.00000000
f 94/94/94 95/95/95 96/96/96
v 0.00000000 0.10500000 0.20000000
vn 0.00000000 -0.00000000 0.99999994
v -0.07424621 0.07424621 0.20000000
vn 0.00000000 -0.00000000 0.99999994
v -0.06576093 0.06576093 0.20000000
vn 0.00000000 -0.00000000 0.99999994
f 97/97/97 98/98/98 99/99/99
v 0.00000000 0.10500000 0.20000000
vn 0.00000000 -0.00000000 0.99999994
v -0.06576093 0.06576093 0.20000000
vn 0.00000000 -0.00000000 0.99999994
v 0.00000000 0.09300000 0.20000000
vn 0.00000000 -0.00000000 0.99999994
f 100/100/100 101/101/101 102/102/102
v -0.07424621 0.07424621 0.20000000
vn 0.00000000 -0.00000000 1.00000000
v -0.10500000 0.00000000 0.20000000
vn 0.00000000 -0.00000000 1.00000000
v -0.09300000 0.00000000 0.20000000
vn 0.00000000 -0.00000000 1.00000000
f 103/103/103 104/104/104 105/105/105
v -0.07424621 0.07424621 0.20000000
vn 0.00000000 -0.00000000 1.00000000
v -0.09300000 0.00000000 0.20000000
vn 0.00000000 -0.00000000 1.00000000
v -0.06576093 0.06576093 0.20000000
vn 0.00000000 -0.00000000 1.00000000
f 106/106/106 107/107/107 108/108/108
v -0.10500000 0.00000000 0.20000000
vn 0.00000000 0.00000000 0.99999994
v -0.07424621 -0.07424621 0.20000000
vn 0.00000000 0.00000000 0.99999994
v -0.06576093 -0.06576093 0.20000000
vn 0.00000000 0.00000000 0.99999994
f 109/109/109 110/110/110 111/111/111
v -0.10500000 0.00000000 0.20000000
vn 0.00000000 0.00000000 0.99999994
v -0.06576093 -0.06576093 0.20000000
vn 0.00000000 0.00000000 0.99999994
v -0.09300000 0.00000000 0.20000000
vn 0.00000000 0.00000000 0.99999994
f 112/112/112 113/113/113 114/114/114
v -0.07424621 -0.07424621 0.20000000
vn 0.00000000 0.00000000 1.00000000
v -0.00000000 -0.10500000 0.20000000
vn 0.00000000 0.00000000 1.00000000
v -0.00000000 -0.09300000 0.20000000
vn 0.00000000 0.00000000 1.00000000
f 115/115/115 116/116/116 117/117/117
v -0.07424621 -0.07424621 0.20000000
vn 0.00000000 0.00000000 1.00000000
v -0.00000000 -0.09300000 0.20000000
vn 0.00000000 0.00000000 1.00000000
v -0.06576093 -0.06576093 0.20000000
vn 0.00000000 0.00000000 1.00000000
f 118/118/118 119/119/119 120/120/120
v -0.00000000 -0.10500000 0.20000000
vn 0.00000000 0.00000000 0.99999994
v 0.07424621 -0.07424621 0.20000000
vn 0.00000000 0.00000000 0.99999994
v 0.06576093 -0.06576093 0.20000000
vn 0.00000000 0.00000000 0.99999994
f 121/121/121 122/122/122 123/123/123
v -0.00000000 -0.10500000 0.20000000
vn -0.00000000 0.00000000 0.99999994
v 0.06576093 -0.06576093 0.20000000
vn -0.00000000 0.00000000 0.99999994
v -0.00000000 -0.09300000 0.20000000
vn -0.00000000 0.00000000 0.99999994
f 124/124/124 125/125/125 126/126/126
v 0.07424621 -0.07424621 0.20000000
vn -0.00000000 0.00000000 1.00000000
v 0.10500000 0.00000000 0.20000000
vn -0.00000000 0.00000000 1.00000000
v 0.09300000 0.00000000 0.20000000
vn -0.00000000 0.00000000 1.00000000
f 127/127/127 128/128/128 129/129/129
v 0.07424621 -0.07424621 0.20000000
vn -0.00000000 0.00000000 1.00000000
v 0.09300000 0.00000000 0.20000000
vn -0.00000000 0.00000000 1.00000000
v 0.06576093 -0.06576093 0.20000000
vn -0.00000000 0.00000000 1.00000000
f 130/130/130 131/131/131 132/132/132
v 0.09300000 0.00000000 0.20000000
vn -0.78568953 -0.32544327 0.52609766
v 0.06576093 0.06576093 0.20000000
vn -0.78568953 -0.32544327 0.52609766
v 0.05392396 0.05392396 0.17500000
vn -0.78568953 -0.32544327 0.52609766
f 133/133/133 134/134/134 135/135/135
v 0.09300000 0.00000000 0.20000000
vn -0.78568953 -0.32544324 0.52609760
v 0.05392396 0.05392396 0.17500000
vn -0.78568953 -0.32544324 0.52609760
v 0.07626000 0.00000000 0.17500000
vn -0.78568953 -0.32544324 0.52609760
f 136/136/136 137/137/137 138/138/138
v 0.06576093 0.06576093 0.20000000
vn -0.32544327 -0.78568953 0.52609766
v 0.00000000 0.09300000 0.20000000
vn -0.32544327 -0.78568953 0.52609766
v 0.00000000 0.07626000 0.17500000
vn -0.32544327 -0.78568953 0.52609766
f 139/139/139 140/140/140 141/141/141
v 0.06576093 0.06576093 0.20000000
vn -0.32544324 -0.78568953 0.52609760
v 0.00000000 0.07626000 0.17500000
vn -0.32544324 -0.78568953 0.52609760
v 0.05392396 0.05392396 0.17500000
vn -0.32544324 -0.78568953 0.52609760
f 142/142/142 143/143/143 144/144/144
v 0.00000000 0.09300000 0.20000000
vn 0.32544327 -0.78568953 0.52609766
v -0.06576093 0.06576093 0.20000000
vn 0.32544327 -0.78568953 0.52609766
v -0.05392396 0.05392396 0.17500000
vn 0.32544327 -0.78568953 0.52609766
f 145/145/145 146/146/146 147/147/147
v 0.00000000 0.09300000 0.20000000
vn 0.32544324 -0.78568953 0.52609760
v -0.05392396 0.05392396 0.17500000
vn 0.32544324 -0.78568953 0.52609760
v 0.00000000 0.07626000 0.17500000
vn 0.32544324 -0.78568953 0.52609760
f 148/148/148 149/149/149 150/150/150
v -0.06576093 0.06576093 0.20000000
vn 0.78568953 -0.32544327 0.52609766
v -0.09300000 0.00000000 0.20000000
vn 0.78568953 -0.32544327 0.52609766
v -0.07626000 0.00000000 0.17500000
vn 0.78568953 -0.32544327 0.52609766
f 151/151/151 152/152/152 153/153/153
v -0.06576093 0.06576093 0.20000000
vn 0.78568953 -0.32544324 0.52609760
v -0.07626000 0.00000000 0.17500000
vn 0.78568953 -0.32544324 0.52609760
v -0.05392396 0.05392396 0.17500000
vn 0.78568953 -0.32544324 0.52609760
f 154/154/154 155/155/155 156/156/156
v -0.09300000 0.00000000 0.20000000
vn 0.78568953 0.32544327 0.52609766
v -0.06576093 -0.06576093 0.20000000
vn 0.78568953 0.32544327 0.52609766
v -0.05392396 -0.05392396 0.17500000
vn 0.78568953 0.32544327 0.52609766
f 157/157/157 158/158/158 159/159/159
v -0.09300000 0.00000000 0.20000000
vn 0.78568953 0.32544324 0.52609760
v -0.05392396 -0.05392396 0.17500000
vn 0.78568953 0.32544324 0.52609760
v -0.07626000 0.00000000 0.17500000
vn 0.78568953 0.32544324 0.52609760
f 160/160/160 161/161/161 162/162/162
v -0.06576093 -0.06576093 0.20000000
vn 0.32544327 0.78568953 0.52609766
v -0.00000000 -0.09300000 0.20000000
vn 0.32544327 0.78568953 0.52609766
v -0.00000000 -0.07626000 0.17500000
vn 0.32544327 0.78568953 0.52609766
f 163/163/163 164/164/164 165/165/165
v -0.06576093 -0.06576093 0.20000000
vn 0.32544324 0.78568953 0.52609760
v -0.00000000 -0.07626000 0.17500000
vn 0.32544324 0.78568953 0.52609760
v -0.05392396 -0.05392396 0.17500000
vn 0.32544324 0.78568953 0.52609760
f 166/166/166 167/167/167 168/168/168
v -0.00000000 -0.09300000 0.20000000
vn -0.32544327 0.78568953 0.52609766
v 0.06576093 -0.06576093 0.20000000
vn -0.32544327 0.78568953 0.52609766
v 0.05392396 -0.05392396 0.17500000
vn -0.32544327 0.78568953 0.52609766
f 169/169/169 170/170/170 171/171/171
v -0.00000000 -0.09300000 0.20000000
vn -0.32544324 0.78568953 0.52609760
v 0.05392396 -0.05392396 0.17500000
vn -0.32544324 0.78568953 0.52609760
v -0.00000000 -0.07626000 0.17500000
vn -0.32544324 0.78568953 0.52609760
f 172/172/172 173/173/173 174/174/174
v 0.06576093 -0.06576093 0.20000000
vn -0.78568953 0.32544327 0.52609766
v 0.09300000 0.00000000 0.20000000
vn -0.78568953 0.32544327 0.52609766
v 0.07626000 0.00000000 0.17500000
vn -0.78568953 0.32544327 0.52609766
f 175/175/175 176/176/176 177/177/177
v 0.06576093 -0.06576093 0.20000000
vn -0.78568953 0.32544324 0.52609760
v 0.07626000 0.00000000 0.17500000
vn -0.78568953 0.32544324 0.52609760
v 0.05392396 -0.05392396 0.17500000
vn -0.78568953 0.32544324 0.52609760
f 178/178/178 179/179/179 180/180/180
o foliage_PNG_crossed_cards
v -0.19455883 0.00000000 0.17500000
vn -0.00000000 -1.00000000 -0.00000000
v 0.19455883 0.00000000 0.17500000
vn -0.00000000 -1.00000000 -0.00000000
v 0.19455883 0.00000000 0.78029412
vn -0.00000000 -1.00000000 -0.00000000
f 181/181/181 182/182/182 183/183/183
v -0.19455883 0.00000000 0.17500000
vn 0.00000000 -1.00000000 -0.00000000
v 0.19455883 0.00000000 0.78029412
vn 0.00000000 -1.00000000 -0.00000000
v -0.19455883 0.00000000 0.78029412
vn 0.00000000 -1.00000000 -0.00000000
f 184/184/184 185/185/185 186/186/186
v 0.00000000 -0.19455883 0.17500000
vn 1.00000000 0.00000000 0.00000000
v 0.00000000 0.19455883 0.17500000
vn 1.00000000 0.00000000 0.00000000
v 0.00000000 0.19455883 0.78029412
vn 1.00000000 0.00000000 0.00000000
f 187/187/187 188/188/188 189/189/189
v 0.00000000 -0.19455883 0.17500000
vn 1.00000000 -0.00000000 0.00000000
v 0.00000000 0.19455883 0.78029412
vn 1.00000000 -0.00000000 0.00000000
v 0.00000000 -0.19455883 0.78029412
vn 1.00000000 -0.00000000 0.00000000
f 190/190/190 191/191/191 192/192/192
