# G012: only base and curved handset. No cord, dial, button or keypad geometry.
mtllib ../Materials/pz_phone_modern_black.mtl
o pz_phone_modern_black_|_simple_sloped_base
usemtl UV_Base
v -0.18700001 -0.13300000 0.00800000
vn -0.00000000 -0.00000000 -1.00000000
v -0.18700001 0.13300000 0.00800000
vn -0.00000000 -0.00000000 -1.00000000
v 0.18700001 0.13300000 0.00800000
vn -0.00000000 -0.00000000 -1.00000000
vt 0.503906250 0.347162259
vt 0.503906250 0.007812500
vt 0.981037140 0.007812500
vt 0.503906250 0.347162259
vt 0.981037140 0.007812500
vt 0.981037140 0.347162259
vt 0.007812500 0.007812500
vt 0.484943390 0.007812500
vt 0.484943390 0.359373916
vt 0.007812500 0.007812500
vt 0.484943390 0.359373916
vt 0.007812500 0.359373916
vt 0.503906250 0.375000000
vt 0.981037140 0.375000000
vt 0.981037140 0.418375533
vt 0.503906250 0.375000000
vt 0.981037140 0.418375533
vt 0.503906250 0.418375533
vt 0.008306491 0.527343750
vt 0.347656250 0.527343750
vt 0.347656250 0.662573353
vt 0.008306491 0.527343750
vt 0.347656250 0.662573353
vt 0.008306491 0.570719283
vt 0.484943390 0.510229603
vt 0.007812500 0.510229603
vt 0.007812500 0.375000000
vt 0.484943390 0.510229603
vt 0.007812500 0.375000000
vt 0.484943390 0.375000000
vt 0.702631009 0.662573353
vt 0.363281250 0.662573353
vt 0.363281250 0.619197820
vt 0.702631009 0.662573353
vt 0.363281250 0.619197820
vt 0.702631009 0.527343750
vt 0.694203695 0.796875000
vt 0.666358706 0.839390463
vt 0.668008048 0.810094586
vt 0.694203695 0.796875000
vt 0.690905002 0.855466764
vt 0.666358706 0.839390463
vt 0.718750000 0.812951315
vt 0.690905002 0.855466764
vt 0.694203695 0.796875000
vt 0.718750000 0.812951315
vt 0.717100649 0.842247204
vt 0.690905002 0.855466764
vt 0.623849688 0.855475104
vt 0.646863950 0.810162290
vt 0.648437500 0.839462342
vt 0.623849688 0.855475104
vt 0.620702580 0.796875000
vt 0.646863950 0.810162290
vt 0.597688327 0.842187814
vt 0.620702580 0.796875000
vt 0.623849688 0.855475104
vt 0.597688327 0.842187814
vt 0.596114769 0.812887762
vt 0.620702580 0.796875000
vt 0.332031250 0.702403551
vt 0.350593076 0.679687500
vt 0.386648235 0.715487499
vt 0.332031250 0.702403551
vt 0.386648235 0.715487499
vt 0.368136397 0.738244510
vt 0.718750000 0.548801097
vt 0.738692062 0.527343750
vt 0.771595896 0.565948349
vt 0.718750000 0.548801097
vt 0.771595896 0.565948349
vt 0.751706440 0.587455334
vt 0.927340218 0.527343750
vt 0.956643785 0.528850378
vt 0.953419080 0.580120891
vt 0.927340218 0.527343750
vt 0.953419080 0.580120891
vt 0.924115089 0.578622430
vt 0.026361398 0.898646312
vt 0.007812500 0.875919661
vt 0.043983152 0.840059716
vt 0.026361398 0.898646312
vt 0.043983152 0.840059716
vt 0.062482055 0.862827308
vt 0.027757121 0.779518041
vt 0.007812500 0.758063094
vt 0.040730206 0.719439927
vt 0.027757121 0.779518041
vt 0.040730206 0.719439927
vt 0.060622195 0.740944540
vt 0.756773269 0.770562959
vt 0.727468787 0.772051607
vt 0.724279594 0.720841829
vt 0.756773269 0.770562959
vt 0.724279594 0.720841829
vt 0.753584495 0.719361311
vt 0.368136397 0.738244510
vt 0.386648235 0.715487499
vt 0.419515421 0.738074015
vt 0.368136397 0.738244510
vt 0.419515421 0.738074015
vt 0.408186020 0.765135328
vt 0.751706440 0.587455334
vt 0.771595896 0.565948349
vt 0.809870625 0.594912068
vt 0.751706440 0.587455334
vt 0.809870625 0.594912068
vt 0.797747400 0.621618435
vt 0.924115089 0.578622430
vt 0.953419080 0.580120891
vt 0.951212464 0.637326183
vt 0.924115089 0.578622430
vt 0.951212464 0.637326183
vt 0.921875000 0.636819339
vt 0.062482055 0.862827308
vt 0.043983152 0.840059716
vt 0.092955099 0.807858491
vt 0.062482055 0.862827308
vt 0.092955099 0.807858491
vt 0.104269490 0.834926495
vt 0.060622195 0.740944540
vt 0.040730206 0.719439927
vt 0.080672596 0.689354238
vt 0.060622195 0.740944540
vt 0.080672596 0.689354238
vt 0.092798350 0.716059227
vt 0.753584495 0.719361311
vt 0.724279594 0.720841829
vt 0.722656250 0.680178379
vt 0.753584495 0.719361311
vt 0.722656250 0.680178379
vt 0.751993956 0.679687500
vt 0.408186020 0.765135328
vt 0.419515421 0.738074015
vt 0.451545562 0.744281328
vt 0.408186020 0.765135328
vt 0.451545562 0.744281328
vt 0.450508538 0.773462996
vt 0.797747400 0.621618435
vt 0.809870625 0.594912068
vt 0.853029120 0.603987629
vt 0.797747400 0.621618435
vt 0.853029120 0.603987629
vt 0.852749356 0.633279227
vt 0.468750000 0.709004864
vt 0.470101679 0.679695375
vt 0.525110115 0.681077656
vt 0.468750000 0.709004864
vt 0.525110115 0.681077656
vt 0.525107732 0.710419919
vt 0.104269490 0.834926495
vt 0.092955099 0.807858491
vt 0.148245712 0.796875000
vt 0.104269490 0.834926495
vt 0.148245712 0.796875000
vt 0.149262602 0.826061441
vt 0.092798350 0.716059227
vt 0.080672596 0.689354238
vt 0.126528471 0.679687500
vt 0.092798350 0.716059227
vt 0.126528471 0.679687500
vt 0.126811396 0.708978213
vt 0.547943027 0.798225620
vt 0.577252524 0.796875000
vt 0.578125000 0.830881377
vt 0.547943027 0.798225620
vt 0.578125000 0.830881377
vt 0.548782724 0.830883766
vt 0.598517412 0.756893231
vt 0.597656250 0.727675610
vt 0.630583611 0.721244054
vt 0.598517412 0.756893231
vt 0.630583611 0.721244054
vt 0.641092185 0.748636422
vt 0.852749356 0.633279227
vt 0.853029120 0.603987629
vt 0.895326093 0.594927402
vt 0.852749356 0.633279227
vt 0.895326093 0.594927402
vt 0.906107376 0.621886916
vt 0.525107732 0.710419919
vt 0.525110115 0.681077656
vt 0.579700406 0.679687500
vt 0.525107732 0.710419919
vt 0.579700406 0.679687500
vt 0.581201784 0.708989500
vt 0.187500000 0.708908430
vt 0.188342339 0.679687500
vt 0.243561006 0.690321274
vt 0.187500000 0.708908430
vt 0.243561006 0.690321274
vt 0.233064590 0.717718343
vt 0.126811396 0.708978213
vt 0.126528471 0.679687500
vt 0.171761551 0.689369593
vt 0.126811396 0.708978213
vt 0.171761551 0.689369593
vt 0.160984574 0.716327781
vt 0.548782724 0.830883766
vt 0.578125000 0.830881377
vt 0.577260407 0.865882158
vt 0.548782724 0.830883766
vt 0.577260407 0.865882158
vt 0.547958399 0.864379673
vt 0.641092185 0.748636422
vt 0.630583611 0.721244054
vt 0.656318067 0.705581029
vt 0.641092185 0.748636422
vt 0.656318067 0.705581029
vt 0.673355104 0.729465117
vt 0.836065410 0.757299071
vt 0.824218750 0.730458828
vt 0.854921805 0.708873619
vt 0.836065410 0.757299071
vt 0.854921805 0.708873619
vt 0.874050391 0.731123664
vt 0.773437500 0.680399609
vt 0.802770625 0.679687500
vt 0.805085969 0.725523671
vt 0.773437500 0.680399609
vt 0.805085969 0.725523671
vt 0.775805842 0.727432279
vt 0.233064590 0.717718343
vt 0.243561006 0.690321274
vt 0.284492127 0.714129956
vt 0.233064590 0.717718343
vt 0.284492127 0.714129956
vt 0.267466059 0.738021431
vt 0.917968750 0.706523345
vt 0.929824637 0.679687500
vt 0.962565112 0.702571502
vt 0.917968750 0.706523345
vt 0.962565112 0.702571502
vt 0.943429418 0.724815439
vt 0.525427227 0.868744541
vt 0.496093750 0.868048946
vt 0.497739714 0.836879486
vt 0.525427227 0.868744541
vt 0.497739714 0.836879486
vt 0.527021061 0.838769424
vt 0.673355104 0.729465117
vt 0.656318067 0.705581029
vt 0.686484817 0.679687500
vt 0.673355104 0.729465117
vt 0.686484817 0.679687500
vt 0.703563118 0.703541974
vt 0.874050391 0.731123664
vt 0.854921805 0.708873619
vt 0.882759239 0.679687500
vt 0.874050391 0.731123664
vt 0.882759239 0.679687500
vt 0.901932598 0.701898962
vt 0.775805842 0.727432279
vt 0.805085969 0.725523671
vt 0.808237955 0.765579858
vt 0.775805842 0.727432279
vt 0.808237955 0.765579858
vt 0.778958340 0.767496491
vt 0.267466059 0.738021431
vt 0.284492127 0.714129956
vt 0.314745541 0.740072074
vt 0.267466059 0.738021431
vt 0.314745541 0.740072074
vt 0.297678215 0.763933970
vt 0.943429418 0.724815439
vt 0.962565112 0.702571502
vt 0.990407379 0.731779042
vt 0.943429418 0.724815439
vt 0.990407379 0.731779042
vt 0.971226917 0.753984392
vt 0.527021061 0.838769424
vt 0.497739714 0.836879486
vt 0.500862030 0.796875000
vt 0.527021061 0.838769424
vt 0.500862030 0.796875000
vt 0.530142844 0.798772973
vt 0.200008891 0.873420071
vt 0.167968750 0.854283807
vt 0.167968750 0.816011277
vt 0.167968750 0.816011277
vt 0.200008891 0.796875000
vt 0.232049045 0.816011277
vt 0.232049045 0.816011277
vt 0.232049045 0.854283807
vt 0.200008891 0.873420071
vt 0.167968750 0.816011277
vt 0.232049045 0.816011277
vt 0.200008891 0.873420071
vt 0.316406250 0.854283807
vt 0.284366109 0.873420071
vt 0.252325955 0.854283807
vt 0.252325955 0.854283807
vt 0.252325955 0.816011277
vt 0.284366109 0.796875000
vt 0.284366109 0.796875000
vt 0.316406250 0.816011277
vt 0.316406250 0.854283807
vt 0.252325955 0.854283807
vt 0.284366109 0.796875000
vt 0.316406250 0.854283807
vt 0.215887634 0.917968750
vt 0.253207123 0.918023253
vt 0.257812500 0.945242096
vt 0.215887634 0.917968750
vt 0.257812500 0.945242096
vt 0.209959495 0.945312298
vt 0.317450896 0.944971307
vt 0.279178367 0.944971307
vt 0.273437500 0.917968750
vt 0.317450896 0.944971307
vt 0.273437500 0.917968750
vt 0.323191775 0.917968750
vt 0.734429969 0.840122814
vt 0.734375000 0.802803321
vt 0.761718751 0.796875000
vt 0.734429969 0.840122814
vt 0.761718751 0.796875000
vt 0.761648594 0.844728015
vt 0.348700124 0.917968750
vt 0.386019609 0.918023251
vt 0.390625000 0.945242094
vt 0.348700124 0.917968750
vt 0.390625000 0.945242094
vt 0.342771989 0.945312293
vt 0.411990867 0.917968750
vt 0.450263396 0.917968750
vt 0.456004275 0.944971311
vt 0.411990867 0.917968750
vt 0.456004275 0.944971311
vt 0.406250000 0.944971311
vt 0.781304968 0.840122802
vt 0.781250000 0.802803326
vt 0.808593755 0.796875000
vt 0.781304968 0.840122802
vt 0.808593755 0.796875000
vt 0.808523599 0.844728009
vt 0.828125000 0.844728009
vt 0.828195157 0.796875000
vt 0.855413786 0.801480197
vt 0.828125000 0.844728009
vt 0.855413786 0.801480197
vt 0.855468755 0.838799683
vt 0.522410525 0.944971307
vt 0.472656250 0.944971307
vt 0.478397117 0.917968750
vt 0.522410525 0.944971307
vt 0.478397117 0.917968750
vt 0.516669646 0.917968750
vt 0.541990739 0.918038951
vt 0.589843750 0.917968750
vt 0.583915615 0.945312293
vt 0.541990739 0.918038951
vt 0.583915615 0.945312293
vt 0.546596119 0.945257791
vt 0.875000000 0.844728015
vt 0.875070155 0.796875000
vt 0.902288783 0.801480211
vt 0.875000000 0.844728015
vt 0.902288783 0.801480211
vt 0.902343751 0.838799693
vt 0.605468750 0.917968750
vt 0.655223025 0.917968750
vt 0.649482146 0.944971311
vt 0.605468750 0.917968750
vt 0.649482146 0.944971311
vt 0.611209617 0.944971311
vt 0.674803245 0.918038950
vt 0.722656250 0.917968750
vt 0.716728111 0.945312298
vt 0.674803245 0.918038950
vt 0.716728111 0.945312298
vt 0.679408632 0.945257796
vt 0.366397359 0.873420071
vt 0.334357217 0.854283807
vt 0.334357217 0.816011277
vt 0.334357217 0.816011277
vt 0.366397359 0.796875000
vt 0.398437500 0.816011277
vt 0.398437500 0.816011277
vt 0.398437500 0.854283807
vt 0.366397359 0.873420071
vt 0.334357217 0.816011277
vt 0.398437500 0.816011277
vt 0.366397359 0.873420071
vt 0.480468750 0.854283807
vt 0.448428609 0.873420071
vt 0.416388467 0.854283807
vt 0.416388467 0.854283807
vt 0.416388467 0.816011277
vt 0.448428609 0.796875000
vt 0.448428609 0.796875000
vt 0.480468750 0.816011277
vt 0.480468750 0.854283807
vt 0.416388467 0.854283807
vt 0.448428609 0.796875000
vt 0.480468750 0.854283807
vt 0.747137635 0.917968750
vt 0.784457113 0.918023252
vt 0.789062500 0.945242098
vt 0.747137635 0.917968750
vt 0.789062500 0.945242098
vt 0.741209495 0.945312298
vt 0.848700896 0.944971311
vt 0.810428367 0.944971311
vt 0.804687500 0.917968750
vt 0.848700896 0.944971311
vt 0.804687500 0.917968750
vt 0.854441775 0.917968750
vt 0.921929968 0.840122804
vt 0.921875000 0.802803322
vt 0.949218751 0.796875000
vt 0.921929968 0.840122804
vt 0.949218751 0.796875000
vt 0.949148596 0.844728015
vt 0.879950124 0.917968750
vt 0.917269609 0.918023251
vt 0.921875000 0.945242094
vt 0.879950124 0.917968750
vt 0.921875000 0.945242094
vt 0.874021989 0.945312293
vt 0.943240867 0.917968750
vt 0.981513396 0.917968750
vt 0.987254275 0.944971311
vt 0.943240867 0.917968750
vt 0.987254275 0.944971311
vt 0.937500000 0.944971311
vt 0.015345948 0.918023718
vt 0.052665424 0.917968750
vt 0.058593750 0.945312505
vt 0.015345948 0.918023718
vt 0.058593750 0.945312505
vt 0.010740741 0.945242349
vt 0.077146991 0.917968750
vt 0.125000000 0.918038906
vt 0.120394793 0.945257537
vt 0.077146991 0.917968750
vt 0.120394793 0.945257537
vt 0.083075318 0.945312505
vt 0.057566775 0.991846311
vt 0.007812500 0.991846311
vt 0.013553367 0.964843750
vt 0.057566775 0.991846311
vt 0.013553367 0.964843750
vt 0.051825896 0.964843750
vt 0.077146989 0.964913949
vt 0.125000000 0.964843750
vt 0.119071865 0.992187293
vt 0.077146989 0.964913949
vt 0.119071865 0.992187293
vt 0.081752380 0.992132792
vt 0.143553235 0.917968750
vt 0.191406250 0.918038905
vt 0.186801039 0.945257533
vt 0.143553235 0.917968750
vt 0.186801039 0.945257533
vt 0.149481557 0.945312501
vt 0.140625000 0.964843750
vt 0.190379275 0.964843750
vt 0.184638396 0.991846311
vt 0.140625000 0.964843750
vt 0.184638396 0.991846311
vt 0.146365867 0.991846311
vt 0.209959495 0.964913950
vt 0.257812500 0.964843750
vt 0.251884361 0.992187298
vt 0.209959495 0.964913950
vt 0.251884361 0.992187298
vt 0.214564882 0.992132796
f 1/1/1 2/2/2 3/3/3
v -0.18700001 -0.13300000 0.00800000
vn -0.00000000 0.00000000 -1.00000000
v 0.18700001 0.13300000 0.00800000
vn -0.00000000 0.00000000 -1.00000000
v 0.18700001 -0.13300000 0.00800000
vn -0.00000000 0.00000000 -1.00000000
f 4/4/4 5/5/5 6/6/6
v -0.18700001 -0.13300000 0.04200000
vn 0.00000000 -0.26127458 0.96526444
v 0.18700001 -0.13300000 0.04200000
vn 0.00000000 -0.26127458 0.96526444
v 0.18700001 0.13300000 0.11400000
vn 0.00000000 -0.26127458 0.96526444
f 7/7/7 8/8/8 9/9/9
v -0.18700001 -0.13300000 0.04200000
vn 0.00000000 -0.26127458 0.96526444
v 0.18700001 0.13300000 0.11400000
vn 0.00000000 -0.26127458 0.96526444
v -0.18700001 0.13300000 0.11400000
vn 0.00000000 -0.26127458 0.96526444
f 10/10/10 11/11/11 12/12/12
v -0.18700001 -0.13300000 0.00800000
vn -0.00000000 -1.00000000 -0.00000000
v 0.18700001 -0.13300000 0.00800000
vn -0.00000000 -1.00000000 -0.00000000
v 0.18700001 -0.13300000 0.04200000
vn -0.00000000 -1.00000000 -0.00000000
f 13/13/13 14/14/14 15/15/15
v -0.18700001 -0.13300000 0.00800000
vn 0.00000000 -1.00000000 -0.00000000
v 0.18700001 -0.13300000 0.04200000
vn 0.00000000 -1.00000000 -0.00000000
v -0.18700001 -0.13300000 0.04200000
vn 0.00000000 -1.00000000 -0.00000000
f 16/16/16 17/17/17 18/18/18
v 0.18700001 -0.13300000 0.00800000
vn 0.99999994 0.00000000 0.00000000
v 0.18700001 0.13300000 0.00800000
vn 0.99999994 0.00000000 0.00000000
v 0.18700001 0.13300000 0.11400000
vn 0.99999994 0.00000000 0.00000000
f 19/19/19 20/20/20 21/21/21
v 0.18700001 -0.13300000 0.00800000
vn 1.00000000 -0.00000000 0.00000000
v 0.18700001 0.13300000 0.11400000
vn 1.00000000 -0.00000000 0.00000000
v 0.18700001 -0.13300000 0.04200000
vn 1.00000000 -0.00000000 0.00000000
f 22/22/22 23/23/23 24/24/24
v 0.18700001 0.13300000 0.00800000
vn -0.00000000 1.00000000 0.00000000
v -0.18700001 0.13300000 0.00800000
vn -0.00000000 1.00000000 0.00000000
v -0.18700001 0.13300000 0.11400000
vn -0.00000000 1.00000000 0.00000000
f 25/25/25 26/26/26 27/27/27
v 0.18700001 0.13300000 0.00800000
vn 0.00000000 1.00000000 0.00000000
v -0.18700001 0.13300000 0.11400000
vn 0.00000000 1.00000000 0.00000000
v 0.18700001 0.13300000 0.11400000
vn 0.00000000 1.00000000 0.00000000
f 28/28/28 29/29/29 30/30/30
v -0.18700001 0.13300000 0.00800000
vn -1.00000000 0.00000000 0.00000000
v -0.18700001 -0.13300000 0.00800000
vn -1.00000000 0.00000000 0.00000000
v -0.18700001 -0.13300000 0.04200000
vn -1.00000000 0.00000000 0.00000000
f 31/31/31 32/32/32 33/33/33
v -0.18700001 0.13300000 0.00800000
vn -0.99999994 0.00000000 -0.00000000
v -0.18700001 -0.13300000 0.04200000
vn -0.99999994 0.00000000 -0.00000000
v -0.18700001 0.13300000 0.11400000
vn -0.99999994 0.00000000 -0.00000000
f 34/34/34 35/35/35 36/36/36
o pz_phone_modern_black_|_EDITABLE_low-poly_curved_handset
usemtl UV_Base
v -0.12891531 0.09197075 0.09992910
vn 0.06484623 0.72951663 -0.68088204
v -0.09565962 0.07549838 0.08544736
vn 0.06484623 0.72951663 -0.68088204
v -0.11857492 0.07746913 0.08537645
vn 0.06484623 0.72951663 -0.68088204
f 37/37/37 38/38/38 39/39/39
v -0.12891531 0.09197075 0.09992910
vn 0.06484599 0.72951645 -0.68088239
v -0.08308470 0.08802926 0.10007090
vn 0.06484599 0.72951645 -0.68088239
v -0.09565962 0.07549838 0.08544736
vn 0.06484599 0.72951645 -0.68088239
f 40/40/40 41/41/41 42/42/42
v -0.11634038 0.10450163 0.11455265
vn 0.06484597 0.72951633 -0.68088239
v -0.08308470 0.08802926 0.10007090
vn 0.06484597 0.72951633 -0.68088239
v -0.12891531 0.09197075 0.09992910
vn 0.06484597 0.72951633 -0.68088239
f 43/43/43 44/44/44 45/45/45
v -0.11634038 0.10450163 0.11455265
vn 0.06484623 0.72951663 -0.68088204
v -0.09342507 0.10253088 0.11462355
vn 0.06484623 0.72951663 -0.68088204
v -0.08308470 0.08802926 0.10007090
vn 0.06484623 0.72951663 -0.68088204
f 46/46/46 47/47/47 48/48/48
v -0.08306284 -0.07730095 0.08500000
vn 0.05087819 -0.68685389 -0.72501248
v -0.11853538 -0.06544776 0.07128136
vn 0.05087819 -0.68685389 -0.72501248
v -0.09559822 -0.06374871 0.07128136
vn 0.05087819 -0.68685389 -0.72501248
f 49/49/49 50/50/50 51/51/51
v -0.08306284 -0.07730095 0.08500000
vn 0.05087819 -0.68685389 -0.72501254
v -0.12893716 -0.08069906 0.08500000
vn 0.05087819 -0.68685389 -0.72501254
v -0.11853538 -0.06544776 0.07128136
vn 0.05087819 -0.68685389 -0.72501254
f 52/52/52 53/53/53 54/54/54
v -0.09346462 -0.09255224 0.09871864
vn 0.05087819 -0.68685389 -0.72501248
v -0.12893716 -0.08069906 0.08500000
vn 0.05087819 -0.68685389 -0.72501248
v -0.08306284 -0.07730095 0.08500000
vn 0.05087819 -0.68685389 -0.72501248
f 55/55/55 56/56/56 57/57/57
v -0.09346462 -0.09255224 0.09871864
vn 0.05087819 -0.68685389 -0.72501248
v -0.11640178 -0.09425130 0.09871864
vn 0.05087819 -0.68685389 -0.72501248
v -0.12893716 -0.08069906 0.08500000
vn 0.05087819 -0.68685389 -0.72501248
f 58/58/58 59/59/59 60/60/60
v -0.08306284 -0.07730095 0.08500000
vn 0.83167672 0.47002473 -0.29561913
v -0.09559822 -0.06374871 0.07128136
vn 0.83167672 0.47002473 -0.29561913
v -0.09786209 -0.03945311 0.10354154
vn 0.83167672 0.47002473 -0.29561913
f 61/61/61 62/62/62 63/63/63
v -0.08306284 -0.07730095 0.08500000
vn 0.83160341 0.47006536 -0.29576057
v -0.09786209 -0.03945311 0.10354154
vn 0.83160341 0.47006536 -0.29576057
v -0.08532930 -0.05297029 0.11729709
vn 0.83160341 0.47006536 -0.29576057
f 64/64/64 65/65/65 66/66/66
v -0.09346462 -0.09255224 0.09871864
vn 0.89183885 -0.32901198 0.31044269
v -0.08306284 -0.07730095 0.08500000
vn 0.89183885 -0.32901198 0.31044269
v -0.08532930 -0.05297029 0.11729709
vn 0.89183885 -0.32901198 0.31044269
f 67/67/67 68/68/68 69/69/69
v -0.09346462 -0.09255224 0.09871864
vn 0.89178550 -0.32905263 0.31055269
v -0.08532930 -0.05297029 0.11729709
vn 0.89178550 -0.32905263 0.31055269
v -0.09573399 -0.06818213 0.13105726
vn 0.89178550 -0.32905263 0.31055269
f 70/70/70 71/71/71 72/72/72
v -0.11640178 -0.09425130 0.09871864
vn 0.05890703 -0.79524297 0.60342240
v -0.09346462 -0.09255224 0.09871864
vn 0.05890703 -0.79524297 0.60342240
v -0.09573399 -0.06818213 0.13105726
vn 0.05890703 -0.79524297 0.60342240
f 73/73/73 74/74/74 75/75/75
v -0.11640178 -0.09425130 0.09871864
vn 0.05887508 -0.79523474 0.60343629
v -0.09573399 -0.06818213 0.13105726
vn 0.05887508 -0.79523474 0.60343629
v -0.11867148 -0.06987678 0.13106190
vn 0.05887508 -0.79523474 0.60343629
f 76/76/76 77/77/77 78/78/78
v -0.12893716 -0.08069906 0.08500000
vn -0.83169687 -0.46989989 0.29576099
v -0.11640178 -0.09425130 0.09871864
vn -0.83169687 -0.46989989 0.29576099
v -0.11867148 -0.06987678 0.13106190
vn -0.83169687 -0.46989989 0.29576099
f 79/79/79 80/80/80 81/81/81
v -0.12893716 -0.08069906 0.08500000
vn -0.83160549 -0.47005177 0.29577631
v -0.11867148 -0.06987678 0.13106190
vn -0.83160549 -0.47005177 0.29577631
v -0.13120428 -0.05635960 0.11730634
vn -0.83160549 -0.47005177 0.29577631
f 82/82/82 83/83/83 84/84/84
v -0.11853538 -0.06544776 0.07128136
vn -0.89183861 0.32900175 -0.31045386
v -0.12893716 -0.08069906 0.08500000
vn -0.89183861 0.32900175 -0.31045386
v -0.13120428 -0.05635960 0.11730634
vn -0.89183861 0.32900175 -0.31045386
f 85/85/85 86/86/86 87/87/87
v -0.11853538 -0.06544776 0.07128136
vn -0.89178640 0.32913256 -0.31046534
v -0.13120428 -0.05635960 0.11730634
vn -0.89178640 0.32913256 -0.31046534
v -0.12079958 -0.04114777 0.10354616
vn -0.89178640 0.32913256 -0.31046534
f 88/88/88 89/89/89 90/90/90
v -0.09559822 -0.06374871 0.07128136
vn -0.05891974 0.79541451 -0.60319513
v -0.11853538 -0.06544776 0.07128136
vn -0.05891974 0.79541451 -0.60319513
v -0.12079958 -0.04114777 0.10354616
vn -0.05891974 0.79541451 -0.60319513
f 91/91/91 92/92/92 93/93/93
v -0.09559822 -0.06374871 0.07128136
vn -0.05888909 0.79542786 -0.60318053
v -0.12079958 -0.04114777 0.10354616
vn -0.05888909 0.79542786 -0.60318053
v -0.09786209 -0.03945311 0.10354154
vn -0.05888909 0.79542786 -0.60318053
f 94/94/94 95/95/95 96/96/96
v -0.08532930 -0.05297029 0.11729709
vn 0.83849806 0.38271660 -0.38787746
v -0.09786209 -0.03945311 0.10354154
vn 0.83849806 0.38271660 -0.38787746
v -0.09928516 -0.01571018 0.12389223
vn 0.83849806 0.38271660 -0.38787746
f 97/97/97 98/98/98 99/99/99
v -0.08532930 -0.05297029 0.11729709
vn 0.83274442 0.38272086 -0.40007687
v -0.09928516 -0.01571018 0.12389223
vn 0.83274442 0.38272086 -0.40007687
v -0.08702923 -0.02394097 0.14152874
vn 0.83274442 0.38272086 -0.40007687
f 100/100/100 101/101/101 102/102/102
v -0.09573399 -0.06818213 0.13105726
vn 0.88702464 -0.26416105 0.37869024
v -0.08532930 -0.05297029 0.11729709
vn 0.88702464 -0.26416105 0.37869024
v -0.08702923 -0.02394097 0.14152874
vn 0.88702464 -0.26416105 0.37869024
f 103/103/103 104/104/104 105/105/105
v -0.09573399 -0.06818213 0.13105726
vn 0.88328469 -0.26528835 0.38656202
v -0.08702923 -0.02394097 0.14152874
vn 0.88328469 -0.26528835 0.38656202
v -0.09774407 -0.03323079 0.15963651
vn 0.88328469 -0.26528835 0.38656202
f 106/106/106 107/107/107 108/108/108
v -0.11867148 -0.06987678 0.13106190
vn 0.04675382 -0.63070327 0.77461445
v -0.09573399 -0.06818213 0.13105726
vn 0.04675382 -0.63070327 0.77461445
v -0.09774407 -0.03323079 0.15963651
vn 0.04675382 -0.63070327 0.77461445
f 109/109/109 110/110/110 111/111/111
v -0.11867148 -0.06987678 0.13106190
vn 0.04495456 -0.63012534 0.77519107
v -0.09774407 -0.03323079 0.15963651
vn 0.04495456 -0.63012534 0.77519107
v -0.12071484 -0.03428982 0.16010778
vn 0.04495456 -0.63012534 0.77519107
f 112/112/112 113/113/113 114/114/114
v -0.13120428 -0.05635960 0.11730634
vn -0.83842885 -0.37270421 0.39765370
v -0.11867148 -0.06987678 0.13106190
vn -0.83842885 -0.37270421 0.39765370
v -0.12071484 -0.03428982 0.16010778
vn -0.83842885 -0.37270421 0.39765370
f 115/115/115 116/116/116 117/117/117
v -0.13120428 -0.05635960 0.11730634
vn -0.83296734 -0.38145059 0.40082511
v -0.12071484 -0.03428982 0.16010778
vn -0.83296734 -0.38145059 0.40082511
v -0.13297078 -0.02605903 0.14247127
vn -0.83296734 -0.38145059 0.40082511
f 118/118/118 119/119/119 120/120/120
v -0.12079958 -0.04114777 0.10354616
vn -0.88692635 0.26341876 -0.37943679
v -0.13120428 -0.05635960 0.11730634
vn -0.88692635 0.26341876 -0.37943679
v -0.13297078 -0.02605903 0.14247127
vn -0.88692635 0.26341876 -0.37943679
f 121/121/121 122/122/122 123/123/123
v -0.12079958 -0.04114777 0.10354616
vn -0.88275081 0.27349406 -0.38203672
v -0.13297078 -0.02605903 0.14247127
vn -0.88275081 0.27349406 -0.38203672
v -0.12225593 -0.01676921 0.12436350
vn -0.88275081 0.27349406 -0.38203672
f 124/124/124 125/125/125 126/126/126
v -0.09786209 -0.03945311 0.10354154
vn -0.04795279 0.64697206 -0.76100439
v -0.12079958 -0.04114777 0.10354616
vn -0.04795279 0.64697206 -0.76100439
v -0.12225593 -0.01676921 0.12436350
vn -0.04795279 0.64697206 -0.76100439
f 127/127/127 128/128/128 129/129/129
v -0.09786209 -0.03945311 0.10354154
vn -0.04548836 0.64853734 -0.75982243
v -0.12225593 -0.01676921 0.12436350
vn -0.04548836 0.64853734 -0.75982243
v -0.09928516 -0.01571018 0.12389223
vn -0.04548836 0.64853734 -0.75982243
f 130/130/130 131/131/131 132/132/132
v -0.08702923 -0.02394097 0.14152874
vn 0.84173203 0.13116969 -0.52371901
v -0.09928516 -0.01571018 0.12389223
vn 0.84173203 0.13116969 -0.52371901
v -0.09976813 0.00989689 0.12952948
vn 0.84173203 0.13116969 -0.52371901
f 133/133/133 134/134/134 135/135/135
v -0.08702923 -0.02394097 0.14152874
vn 0.84260100 0.13207377 -0.52209210
v -0.09976813 0.00989689 0.12952948
vn 0.84260100 0.13207377 -0.52209210
v -0.08765239 0.00988359 0.14907964
vn 0.84260100 0.13207377 -0.52209210
f 136/136/136 137/137/137 138/138/138
v -0.09774407 -0.03323079 0.15963651
vn 0.87660080 -0.08940555 0.47284001
v -0.08702923 -0.02394097 0.14152874
vn 0.87660080 -0.08940555 0.47284001
v -0.08765239 0.00988359 0.14907964
vn 0.87660080 -0.08940555 0.47284001
f 139/139/139 140/140/140 141/141/141
v -0.09774407 -0.03323079 0.15963651
vn 0.87764025 -0.09015705 0.47076458
v -0.08765239 0.00988359 0.14907964
vn 0.87764025 -0.09015705 0.47076458
v -0.09852546 0.00986842 0.16934726
vn 0.87764025 -0.09015705 0.47076458
f 142/142/142 143/143/143 144/144/144
v -0.12071484 -0.03428982 0.16010778
vn 0.03011244 -0.21918209 0.97521925
v -0.09774407 -0.03323079 0.15963651
vn 0.03011244 -0.21918209 0.97521925
v -0.09852546 0.00986842 0.16934726
vn 0.03011244 -0.21918209 0.97521925
f 145/145/145 146/146/146 147/147/147
v -0.12071484 -0.03428982 0.16010778
vn 0.03045214 -0.21934299 0.97517240
v -0.09852546 0.00986842 0.16934726
vn 0.03045214 -0.21934299 0.97517240
v -0.12151426 0.00986655 0.17006472
vn 0.03045214 -0.21934299 0.97517240
f 148/148/148 149/149/149 150/150/150
v -0.13297078 -0.02605903 0.14247127
vn -0.84191650 -0.13315701 0.52292037
v -0.12071484 -0.03428982 0.16010778
vn -0.84191650 -0.13315701 0.52292037
v -0.12151426 0.00986655 0.17006472
vn -0.84191650 -0.13315701 0.52292037
f 151/151/151 152/152/152 153/153/153
v -0.13297078 -0.02605903 0.14247127
vn -0.84257555 -0.13229845 0.52207619
v -0.12151426 0.00986655 0.17006472
vn -0.84257555 -0.13229845 0.52207619
v -0.13363001 0.00987985 0.15051456
vn -0.84257555 -0.13229845 0.52207619
f 154/154/154 155/155/155 156/156/156
v -0.12225593 -0.01676921 0.12436350
vn -0.87664145 0.08971364 -0.47270638
v -0.13297078 -0.02605903 0.14247127
vn -0.87664145 0.08971364 -0.47270638
v -0.13363001 0.00987985 0.15051456
vn -0.87664145 0.08971364 -0.47270638
f 157/157/157 158/158/158 159/159/159
v -0.12225593 -0.01676921 0.12436350
vn -0.87785554 0.08740526 -0.47088212
v -0.13363001 0.00987985 0.15051456
vn -0.87785554 0.08740526 -0.47088212
v -0.12275694 0.00989502 0.13024694
vn -0.87785554 0.08740526 -0.47088212
f 160/160/160 161/161/161 162/162/162
v -0.09928516 -0.01571018 0.12389223
vn -0.02993223 0.21483351 -0.97619194
v -0.12225593 -0.01676921 0.12436350
vn -0.02993223 0.21483351 -0.97619194
v -0.12275694 0.00989502 0.13024694
vn -0.02993223 0.21483351 -0.97619194
f 163/163/163 164/164/164 165/165/165
v -0.09928516 -0.01571018 0.12389223
vn -0.03048635 0.21434776 -0.97628146
v -0.12275694 0.00989502 0.13024694
vn -0.03048635 0.21434776 -0.97628146
v -0.09976813 0.00989689 0.12952948
vn -0.03048635 0.21434776 -0.97628146
f 166/166/166 167/167/167 168/168/168
v -0.08765239 0.00988359 0.14907964
vn 0.84257627 -0.13158216 -0.52225608
v -0.09976813 0.00989689 0.12952948
vn 0.84257627 -0.13158216 -0.52225608
v -0.09930430 0.03614454 0.12366471
vn 0.84257627 -0.13158216 -0.52225608
f 169/169/169 170/170/170 171/171/171
v -0.08765239 0.00988359 0.14907964
vn 0.84273762 -0.13132189 -0.52206123
v -0.09930430 0.03614454 0.12366471
vn 0.84273762 -0.13132189 -0.52206123
v -0.08703477 0.04382263 0.14153942
vn 0.84273762 -0.13132189 -0.52206123
f 172/172/172 173/173/173 174/174/174
v -0.09852546 0.00986842 0.16934726
vn 0.87770337 0.08865440 0.47093228
v -0.08765239 0.00988359 0.14907964
vn 0.87770337 0.08865440 0.47093228
v -0.08703477 0.04382263 0.14153942
vn 0.87770337 0.08865440 0.47093228
f 175/175/175 176/176/176 177/177/177
v -0.09852546 0.00986842 0.16934726
vn 0.87830150 0.08768638 0.46999744
v -0.08703477 0.04382263 0.14153942
vn 0.87830150 0.08768638 0.46999744
v -0.09773047 0.05267809 0.15987472
vn 0.87830150 0.08768638 0.46999744
f 178/178/178 179/179/179 180/180/180
v -0.12151426 0.00986655 0.17006472
vn 0.03044418 0.21540609 0.97604996
v -0.09852546 0.00986842 0.16934726
vn 0.03044418 0.21540609 0.97604996
v -0.09773047 0.05267809 0.15987472
vn 0.03044418 0.21540609 0.97604996
f 181/181/181 182/182/182 183/183/183
v -0.12151426 0.00986655 0.17006472
vn 0.03061417 0.21531513 0.97606462
v -0.09773047 0.05267809 0.15987472
vn 0.03061417 0.21531513 0.97606462
v -0.12069570 0.05385546 0.16033530
vn 0.03061417 0.21531513 0.97606462
f 184/184/184 185/185/185 186/186/186
v -0.13363001 0.00987985 0.15051456
vn -0.84261972 0.13119774 0.52228278
v -0.12151426 0.00986655 0.17006472
vn -0.84261972 0.13119774 0.52228278
v -0.12069570 0.05385546 0.16033530
vn -0.84261972 0.13119774 0.52228278
f 187/187/187 188/188/188 189/189/189
v -0.13363001 0.00987985 0.15051456
vn -0.84273434 0.13127725 0.52207774
v -0.12069570 0.05385546 0.16033530
vn -0.84273434 0.13127725 0.52207774
v -0.13296522 0.04617737 0.14246058
vn -0.84273434 0.13127725 0.52207774
f 190/190/190 191/191/191 192/192/192
v -0.12275694 0.00989502 0.13024694
vn -0.87772179 -0.08842086 -0.47094196
v -0.13363001 0.00987985 0.15051456
vn -0.87772179 -0.08842086 -0.47094196
v -0.13296522 0.04617737 0.14246058
vn -0.87772179 -0.08842086 -0.47094196
f 193/193/193 194/194/194 195/195/195
v -0.12275694 0.00989502 0.13024694
vn -0.87847811 -0.08915597 -0.46939033
v -0.13296522 0.04617737 0.14246058
vn -0.87847811 -0.08915597 -0.46939033
v -0.12226953 0.03732191 0.12412529
vn -0.87847811 -0.08915597 -0.46939033
f 196/196/196 197/197/197 198/198/198
v -0.09976813 0.00989689 0.12952948
vn -0.03043147 -0.21722263 -0.97564769
v -0.12275694 0.00989502 0.13024694
vn -0.03043147 -0.21722263 -0.97564769
v -0.12226953 0.03732191 0.12412529
vn -0.03043147 -0.21722263 -0.97564769
f 199/199/199 200/200/200 201/201/201
v -0.09976813 0.00989689 0.12952948
vn -0.03071373 -0.21744281 -0.97558975
v -0.12226953 0.03732191 0.12412529
vn -0.03071373 -0.21744281 -0.97558975
v -0.09930430 0.03614454 0.12366471
vn -0.03071373 -0.21744281 -0.97558975
f 202/202/202 203/203/203 204/204/204
v -0.08703477 0.04382263 0.14153942
vn 0.83132708 -0.37633467 -0.40898347
v -0.09930430 0.03614454 0.12366471
vn 0.83132708 -0.37633467 -0.40898347
v -0.09792736 0.05484207 0.10925865
vn 0.83132708 -0.37633467 -0.40898347
f 205/205/205 206/206/206 207/207/207
v -0.08703477 0.04382263 0.14153942
vn 0.83730400 -0.36494169 -0.40711114
v -0.09792736 0.05484207 0.10925865
vn 0.83730400 -0.36494169 -0.40711114
v -0.08535503 0.06734372 0.12390942
vn 0.83730400 -0.36494169 -0.40711114
f 208/208/208 209/209/209 210/210/210
v -0.09773047 0.05267809 0.15987472
vn 0.88460618 0.23759657 0.40127265
v -0.08703477 0.04382263 0.14153942
vn 0.88460618 0.23759657 0.40127265
v -0.08535503 0.06734372 0.12390942
vn 0.88460618 0.23759657 0.40127265
f 211/211/211 212/212/212 213/213/213
v -0.09773047 0.05267809 0.15987472
vn 0.88702422 0.23137420 0.39956737
v -0.08535503 0.06734372 0.12390942
vn 0.88702422 0.23137420 0.39956737
v -0.09569841 0.08181151 0.13849358
vn 0.88702422 0.23137420 0.39956737
f 214/214/214 215/215/215 216/216/216
v -0.12069570 0.05385546 0.16033530
vn 0.04637455 0.58892202 0.80685824
v -0.09773047 0.05267809 0.15987472
vn 0.04637455 0.58892202 0.80685824
v -0.09569841 0.08181151 0.13849358
vn 0.04637455 0.58892202 0.80685824
f 217/217/217 218/218/218 219/219/219
v -0.12069570 0.05385546 0.16033530
vn 0.04809286 0.58789301 0.80750775
v -0.09569841 0.08181151 0.13849358
vn 0.04809286 0.58789301 0.80750775
v -0.11861412 0.08377765 0.13842696
vn 0.04809286 0.58789301 0.80750775
f 220/220/220 221/221/221 222/222/222
v -0.13296522 0.04617737 0.14246058
vn -0.83365148 0.36285093 0.41637054
v -0.12069570 0.05385546 0.16033530
vn -0.83365148 0.36285093 0.41637054
v -0.11861412 0.08377765 0.13842696
vn -0.83365148 0.36285093 0.41637054
f 223/223/223 224/224/224 225/225/225
v -0.13296522 0.04617737 0.14246058
vn -0.83732504 0.36340261 0.40844256
v -0.11861412 0.08377765 0.13842696
vn -0.83732504 0.36340261 0.40844256
v -0.13118646 0.07127600 0.12377619
vn -0.83732504 0.36340261 0.40844256
f 226/226/226 227/227/227 228/228/228
v -0.12226953 0.03732191 0.12412529
vn -0.88465035 -0.23645584 -0.40184897
v -0.13296522 0.04617737 0.14246058
vn -0.88465035 -0.23645584 -0.40184897
v -0.13118646 0.07127600 0.12377619
vn -0.88465035 -0.23645584 -0.40184897
f 229/229/229 230/230/230 231/231/231
v -0.12226953 0.03732191 0.12412529
vn -0.88782066 -0.23721121 -0.39434174
v -0.13118646 0.07127600 0.12377619
vn -0.88782066 -0.23721121 -0.39434174
v -0.12084308 0.05680821 0.10919203
vn -0.88782066 -0.23721121 -0.39434174
f 232/232/232 233/233/233 234/234/234
v -0.09930430 0.03614454 0.12366471
vn -0.04697330 -0.60543156 -0.79451001
v -0.12226953 0.03732191 0.12412529
vn -0.04697330 -0.60543156 -0.79451001
v -0.12084308 0.05680821 0.10919203
vn -0.04697330 -0.60543156 -0.79451001
f 235/235/235 236/236/236 237/237/237
v -0.09930430 0.03614454 0.12366471
vn -0.04979783 -0.60727084 -0.79293275
v -0.12084308 0.05680821 0.10919203
vn -0.04979783 -0.60727084 -0.79293275
v -0.09792736 0.05484207 0.10925865
vn -0.04979783 -0.60727084 -0.79293275
f 238/238/238 239/239/239 240/240/240
v -0.08535503 0.06734372 0.12390942
vn 0.82889533 -0.45922902 -0.31943902
v -0.09792736 0.05484207 0.10925865
vn 0.82889533 -0.45922902 -0.31943902
v -0.09565962 0.07549838 0.08544736
vn 0.82889533 -0.45922902 -0.31943902
f 241/241/241 242/242/242 243/243/243
v -0.08535503 0.06734372 0.12390942
vn 0.82896727 -0.45910400 -0.31943181
v -0.09565962 0.07549838 0.08544736
vn 0.82896727 -0.45910400 -0.31943181
v -0.08308470 0.08802926 0.10007090
vn 0.82896727 -0.45910400 -0.31943181
f 244/244/244 245/245/245 246/246/246
v -0.09569841 0.08181151 0.13849358
vn 0.89275104 0.29473379 0.34077492
v -0.08535503 0.06734372 0.12390942
vn 0.89275104 0.29473379 0.34077492
v -0.08308470 0.08802926 0.10007090
vn 0.89275104 0.29473379 0.34077492
f 247/247/247 248/248/248 249/249/249
v -0.09569841 0.08181151 0.13849358
vn 0.89278656 0.29463193 0.34077013
v -0.08308470 0.08802926 0.10007090
vn 0.89278656 0.29463193 0.34077013
v -0.09342507 0.10253088 0.11462355
vn 0.89278656 0.29463193 0.34077013
f 250/250/250 251/251/251 252/252/252
v -0.11861412 0.08377765 0.13842696
vn 0.06250215 0.75075674 0.65761530
v -0.09569841 0.08181151 0.13849358
vn 0.06250215 0.75075674 0.65761530
v -0.09342507 0.10253088 0.11462355
vn 0.06250215 0.75075674 0.65761530
f 253/253/253 254/254/254 255/255/255
v -0.11861412 0.08377765 0.13842696
vn 0.06252971 0.75074023 0.65763146
v -0.09342507 0.10253088 0.11462355
vn 0.06252971 0.75074023 0.65763146
v -0.11634038 0.10450163 0.11455265
vn 0.06252971 0.75074023 0.65763146
f 256/256/256 257/257/257 258/258/258
v -0.13118646 0.07127600 0.12377619
vn -0.82891774 0.45909625 0.31957155
v -0.11861412 0.08377765 0.13842696
vn -0.82891774 0.45909625 0.31957155
v -0.11634038 0.10450163 0.11455265
vn -0.82891774 0.45909625 0.31957155
f 259/259/259 260/260/260 261/261/261
v -0.13118646 0.07127600 0.12377619
vn -0.82897025 0.45908603 0.31945020
v -0.11634038 0.10450163 0.11455265
vn -0.82897025 0.45908603 0.31945020
v -0.12891531 0.09197075 0.09992910
vn -0.82897025 0.45908603 0.31945020
f 262/262/262 263/263/263 264/264/264
v -0.12084308 0.05680821 0.10919203
vn -0.89275062 -0.29472199 -0.34078640
v -0.13118646 0.07127600 0.12377619
vn -0.89275062 -0.29472199 -0.34078640
v -0.12891531 0.09197075 0.09992910
vn -0.89275062 -0.29472199 -0.34078640
f 265/265/265 266/266/266 267/267/267
v -0.12084308 0.05680821 0.10919203
vn -0.89278942 -0.29470742 -0.34069735
v -0.12891531 0.09197075 0.09992910
vn -0.89278942 -0.29470742 -0.34069735
v -0.11857492 0.07746913 0.08537645
vn -0.89278942 -0.29470742 -0.34069735
f 268/268/268 269/269/269 270/270/270
v -0.09792736 0.05484207 0.10925865
vn -0.06251767 -0.75093079 -0.65741485
v -0.12084308 0.05680821 0.10919203
vn -0.06251767 -0.75093079 -0.65741485
v -0.11857492 0.07746913 0.08537645
vn -0.06251767 -0.75093079 -0.65741485
f 271/271/271 272/272/272 273/273/273
v -0.09792736 0.05484207 0.10925865
vn -0.06254777 -0.75094187 -0.65739942
v -0.11857492 0.07746913 0.08537645
vn -0.06254777 -0.75094187 -0.65739942
v -0.09565962 0.07549838 0.08544736
vn -0.06254777 -0.75094187 -0.65739942
f 274/274/274 275/275/275 276/276/276
o pz_phone_modern_black_|_low-poly_receiver_end_0
usemtl UV_Base
v -0.07600000 -0.07900000 0.06400000
vn 0.00000000 0.00000000 -1.00000000
v -0.09100000 -0.10411473 0.06400000
vn 0.00000000 0.00000000 -1.00000000
v -0.12100000 -0.10411473 0.06400000
vn 0.00000000 0.00000000 -1.00000000
f 277/277/277 278/278/278 279/279/279
v -0.12100000 -0.10411473 0.06400000
vn 0.00000000 -0.00000000 -1.00000000
v -0.13600001 -0.07900000 0.06400000
vn 0.00000000 -0.00000000 -1.00000000
v -0.12100000 -0.05388526 0.06400000
vn 0.00000000 -0.00000000 -1.00000000
f 280/280/280 281/281/281 282/282/282
v -0.12100000 -0.05388526 0.06400000
vn 0.00000000 0.00000000 -1.00000000
v -0.09100000 -0.05388526 0.06400000
vn 0.00000000 0.00000000 -1.00000000
v -0.07600000 -0.07900000 0.06400000
vn 0.00000000 0.00000000 -1.00000000
f 283/283/283 284/284/284 285/285/285
v -0.12100000 -0.10411473 0.06400000
vn -0.00000000 -0.00000000 -1.00000000
v -0.12100000 -0.05388526 0.06400000
vn -0.00000000 -0.00000000 -1.00000000
v -0.07600000 -0.07900000 0.06400000
vn -0.00000000 -0.00000000 -1.00000000
f 286/286/286 287/287/287 288/288/288
v -0.09100000 -0.10411473 0.10400000
vn 0.00000000 0.00000000 1.00000000
v -0.07600000 -0.07900000 0.10400000
vn 0.00000000 0.00000000 1.00000000
v -0.09100000 -0.05388526 0.10400000
vn 0.00000000 0.00000000 1.00000000
f 289/289/289 290/290/290 291/291/291
v -0.09100000 -0.05388526 0.10400000
vn 0.00000000 0.00000000 1.00000000
v -0.12100000 -0.05388526 0.10400000
vn 0.00000000 0.00000000 1.00000000
v -0.13600001 -0.07900000 0.10400000
vn 0.00000000 0.00000000 1.00000000
f 292/292/292 293/293/293 294/294/294
v -0.13600001 -0.07900000 0.10400000
vn 0.00000000 0.00000000 1.00000000
v -0.12100000 -0.10411473 0.10400000
vn 0.00000000 0.00000000 1.00000000
v -0.09100000 -0.10411473 0.10400000
vn 0.00000000 0.00000000 1.00000000
f 295/295/295 296/296/296 297/297/297
v -0.09100000 -0.05388526 0.10400000
vn 0.00000000 -0.00000000 1.00000000
v -0.13600001 -0.07900000 0.10400000
vn 0.00000000 -0.00000000 1.00000000
v -0.09100000 -0.10411473 0.10400000
vn 0.00000000 -0.00000000 1.00000000
f 298/298/298 299/299/299 300/300/300
v -0.07600000 -0.07900000 0.06400000
vn 0.80497330 0.48077738 -0.34766528
v -0.09100000 -0.05388526 0.06400000
vn 0.80497330 0.48077738 -0.34766528
v -0.08650000 -0.04695706 0.08400000
vn 0.80497330 0.48077738 -0.34766528
f 301/301/301 302/302/302 303/303/303
v -0.07600000 -0.07900000 0.06400000
vn 0.79736531 0.48524320 -0.35881430
v -0.08650000 -0.04695706 0.08400000
vn 0.79736531 0.48524320 -0.35881430
v -0.06700000 -0.07900000 0.08400000
vn 0.79736531 0.48524320 -0.35881430
f 304/304/304 305/305/305 306/306/306
v -0.09100000 -0.05388526 0.06400000
vn 0.00000000 0.94491118 -0.32732683
v -0.12100000 -0.05388526 0.06400000
vn 0.00000000 0.94491118 -0.32732683
v -0.12549999 -0.04695706 0.08400000
vn 0.00000000 0.94491118 -0.32732683
f 307/307/307 308/308/308 309/309/309
v -0.09100000 -0.05388526 0.06400000
vn 0.00000000 0.94491118 -0.32732683
v -0.12549999 -0.04695706 0.08400000
vn 0.00000000 0.94491118 -0.32732683
v -0.08650000 -0.04695706 0.08400000
vn 0.00000000 0.94491118 -0.32732683
f 310/310/310 311/311/311 312/312/312
v -0.12100000 -0.05388526 0.06400000
vn -0.80084151 0.47830987 -0.36037830
v -0.13600001 -0.07900000 0.06400000
vn -0.80084151 0.47830987 -0.36037830
v -0.14500000 -0.07900000 0.08400000
vn -0.80084151 0.47830987 -0.36037830
f 313/313/313 314/314/314 315/315/315
v -0.12100000 -0.05388526 0.06400000
vn -0.80057037 0.48719385 -0.34889710
v -0.14500000 -0.07900000 0.08400000
vn -0.80057037 0.48719385 -0.34889710
v -0.12549999 -0.04695706 0.08400000
vn -0.80057037 0.48719385 -0.34889710
f 316/316/316 317/317/317 318/318/318
v -0.13600001 -0.07900000 0.06400000
vn -0.80497313 -0.48077774 -0.34766513
v -0.12100000 -0.10411473 0.06400000
vn -0.80497313 -0.48077774 -0.34766513
v -0.12549999 -0.11104294 0.08400000
vn -0.80497313 -0.48077774 -0.34766513
f 319/319/319 320/320/320 321/321/321
v -0.13600001 -0.07900000 0.06400000
vn -0.79736525 -0.48524341 -0.35881394
v -0.12549999 -0.11104294 0.08400000
vn -0.79736525 -0.48524341 -0.35881394
v -0.14500000 -0.07900000 0.08400000
vn -0.79736525 -0.48524341 -0.35881394
f 322/322/322 323/323/323 324/324/324
v -0.12100000 -0.10411473 0.06400000
vn -0.00000000 -0.94491106 -0.32732695
v -0.09100000 -0.10411473 0.06400000
vn -0.00000000 -0.94491106 -0.32732695
v -0.08650000 -0.11104294 0.08400000
vn -0.00000000 -0.94491106 -0.32732695
f 325/325/325 326/326/326 327/327/327
v -0.12100000 -0.10411473 0.06400000
vn 0.00000000 -0.94491118 -0.32732701
v -0.08650000 -0.11104294 0.08400000
vn 0.00000000 -0.94491118 -0.32732701
v -0.12549999 -0.11104294 0.08400000
vn 0.00000000 -0.94491118 -0.32732701
f 328/328/328 329/329/329 330/330/330
v -0.09100000 -0.10411473 0.06400000
vn 0.80084145 -0.47830984 -0.36037856
v -0.07600000 -0.07900000 0.06400000
vn 0.80084145 -0.47830984 -0.36037856
v -0.06700000 -0.07900000 0.08400000
vn 0.80084145 -0.47830984 -0.36037856
f 331/331/331 332/332/332 333/333/333
v -0.09100000 -0.10411473 0.06400000
vn 0.80057031 -0.48719370 -0.34889740
v -0.06700000 -0.07900000 0.08400000
vn 0.80057031 -0.48719370 -0.34889740
v -0.08650000 -0.11104294 0.08400000
vn 0.80057031 -0.48719370 -0.34889740
f 334/334/334 335/335/335 336/336/336
v -0.06700000 -0.07900000 0.08400000
vn 0.80057043 0.48719370 0.34889716
v -0.08650000 -0.04695706 0.08400000
vn 0.80057043 0.48719370 0.34889716
v -0.09100000 -0.05388526 0.10400000
vn 0.80057043 0.48719370 0.34889716
f 337/337/337 338/338/338 339/339/339
v -0.06700000 -0.07900000 0.08400000
vn 0.80084157 0.47830969 0.36037847
v -0.09100000 -0.05388526 0.10400000
vn 0.80084157 0.47830969 0.36037847
v -0.07600000 -0.07900000 0.10400000
vn 0.80084157 0.47830969 0.36037847
f 340/340/340 341/341/341 342/342/342
v -0.08650000 -0.04695706 0.08400000
vn -0.00000000 0.94491124 0.32732671
v -0.12549999 -0.04695706 0.08400000
vn -0.00000000 0.94491124 0.32732671
v -0.12100000 -0.05388526 0.10400000
vn -0.00000000 0.94491124 0.32732671
f 343/343/343 344/344/344 345/345/345
v -0.08650000 -0.04695706 0.08400000
vn 0.00000000 0.94491124 0.32732671
v -0.12100000 -0.05388526 0.10400000
vn 0.00000000 0.94491124 0.32732671
v -0.09100000 -0.05388526 0.10400000
vn 0.00000000 0.94491124 0.32732671
f 346/346/346 347/347/347 348/348/348
v -0.12549999 -0.04695706 0.08400000
vn -0.79736537 0.48524341 0.35881388
v -0.14500000 -0.07900000 0.08400000
vn -0.79736537 0.48524341 0.35881388
v -0.13600001 -0.07900000 0.10400000
vn -0.79736537 0.48524341 0.35881388
f 349/349/349 350/350/350 351/351/351
v -0.12549999 -0.04695706 0.08400000
vn -0.80497330 0.48077762 0.34766492
v -0.13600001 -0.07900000 0.10400000
vn -0.80497330 0.48077762 0.34766492
v -0.12100000 -0.05388526 0.10400000
vn -0.80497330 0.48077762 0.34766492
f 352/352/352 353/353/353 354/354/354
v -0.14500000 -0.07900000 0.08400000
vn -0.80057037 -0.48719394 0.34889701
v -0.12549999 -0.11104294 0.08400000
vn -0.80057037 -0.48719394 0.34889701
v -0.12100000 -0.10411473 0.10400000
vn -0.80057037 -0.48719394 0.34889701
f 355/355/355 356/356/356 357/357/357
v -0.14500000 -0.07900000 0.08400000
vn -0.80084151 -0.47831011 0.36037815
v -0.12100000 -0.10411473 0.10400000
vn -0.80084151 -0.47831011 0.36037815
v -0.13600001 -0.07900000 0.10400000
vn -0.80084151 -0.47831011 0.36037815
f 358/358/358 359/359/359 360/360/360
v -0.12549999 -0.11104294 0.08400000
vn 0.00000000 -0.94491112 0.32732686
v -0.08650000 -0.11104294 0.08400000
vn 0.00000000 -0.94491112 0.32732686
v -0.09100000 -0.10411473 0.10400000
vn 0.00000000 -0.94491112 0.32732686
f 361/361/361 362/362/362 363/363/363
v -0.12549999 -0.11104294 0.08400000
vn 0.00000000 -0.94491124 0.32732689
v -0.09100000 -0.10411473 0.10400000
vn 0.00000000 -0.94491124 0.32732689
v -0.12100000 -0.10411473 0.10400000
vn 0.00000000 -0.94491124 0.32732689
f 364/364/364 365/365/365 366/366/366
v -0.08650000 -0.11104294 0.08400000
vn 0.79736531 -0.48524329 0.35881412
v -0.06700000 -0.07900000 0.08400000
vn 0.79736531 -0.48524329 0.35881412
v -0.07600000 -0.07900000 0.10400000
vn 0.79736531 -0.48524329 0.35881412
f 367/367/367 368/368/368 369/369/369
v -0.08650000 -0.11104294 0.08400000
vn 0.80497324 -0.48077759 0.34766531
v -0.07600000 -0.07900000 0.10400000
vn 0.80497324 -0.48077759 0.34766531
v -0.09100000 -0.10411473 0.10400000
vn 0.80497324 -0.48077759 0.34766531
f 370/370/370 371/371/371 372/372/372
o pz_phone_modern_black_|_low-poly_receiver_end_1
usemtl UV_Base
v -0.07600000 0.09000000 0.08300000
vn 0.00000000 0.00000000 -0.99999994
v -0.09100000 0.06488527 0.08300000
vn 0.00000000 0.00000000 -0.99999994
v -0.12100000 0.06488527 0.08300000
vn 0.00000000 0.00000000 -0.99999994
f 373/373/373 374/374/374 375/375/375
v -0.12100000 0.06488527 0.08300000
vn 0.00000000 -0.00000000 -1.00000000
v -0.13600001 0.09000000 0.08300000
vn 0.00000000 -0.00000000 -1.00000000
v -0.12100000 0.11511473 0.08300000
vn 0.00000000 -0.00000000 -1.00000000
f 376/376/376 377/377/377 378/378/378
v -0.12100000 0.11511473 0.08300000
vn 0.00000000 0.00000000 -1.00000000
v -0.09100000 0.11511473 0.08300000
vn 0.00000000 0.00000000 -1.00000000
v -0.07600000 0.09000000 0.08300000
vn 0.00000000 0.00000000 -1.00000000
f 379/379/379 380/380/380 381/381/381
v -0.12100000 0.06488527 0.08300000
vn -0.00000000 -0.00000000 -1.00000000
v -0.12100000 0.11511473 0.08300000
vn -0.00000000 -0.00000000 -1.00000000
v -0.07600000 0.09000000 0.08300000
vn -0.00000000 -0.00000000 -1.00000000
f 382/382/382 383/383/383 384/384/384
v -0.09100000 0.06488527 0.12300000
vn 0.00000000 0.00000000 1.00000000
v -0.07600000 0.09000000 0.12300000
vn 0.00000000 0.00000000 1.00000000
v -0.09100000 0.11511473 0.12300000
vn 0.00000000 0.00000000 1.00000000
f 385/385/385 386/386/386 387/387/387
v -0.09100000 0.11511473 0.12300000
vn 0.00000000 0.00000000 1.00000000
v -0.12100000 0.11511473 0.12300000
vn 0.00000000 0.00000000 1.00000000
v -0.13600001 0.09000000 0.12300000
vn 0.00000000 0.00000000 1.00000000
f 388/388/388 389/389/389 390/390/390
v -0.13600001 0.09000000 0.12300000
vn 0.00000000 0.00000000 0.99999994
v -0.12100000 0.06488527 0.12300000
vn 0.00000000 0.00000000 0.99999994
v -0.09100000 0.06488527 0.12300000
vn 0.00000000 0.00000000 0.99999994
f 391/391/391 392/392/392 393/393/393
v -0.09100000 0.11511473 0.12300000
vn 0.00000000 -0.00000000 1.00000000
v -0.13600001 0.09000000 0.12300000
vn 0.00000000 -0.00000000 1.00000000
v -0.09100000 0.06488527 0.12300000
vn 0.00000000 -0.00000000 1.00000000
f 394/394/394 395/395/395 396/396/396
v -0.07600000 0.09000000 0.08300000
vn 0.80497324 0.48077759 -0.34766528
v -0.09100000 0.11511473 0.08300000
vn 0.80497324 0.48077759 -0.34766528
v -0.08650000 0.12204294 0.10300000
vn 0.80497324 0.48077759 -0.34766528
f 397/397/397 398/398/398 399/399/399
v -0.07600000 0.09000000 0.08300000
vn 0.79736531 0.48524329 -0.35881412
v -0.08650000 0.12204294 0.10300000
vn 0.79736531 0.48524329 -0.35881412
v -0.06700000 0.09000000 0.10300000
vn 0.79736531 0.48524329 -0.35881412
f 400/400/400 401/401/401 402/402/402
v -0.09100000 0.11511473 0.08300000
vn 0.00000000 0.94491124 -0.32732689
v -0.12100000 0.11511473 0.08300000
vn 0.00000000 0.94491124 -0.32732689
v -0.12549999 0.12204294 0.10300000
vn 0.00000000 0.94491124 -0.32732689
f 403/403/403 404/404/404 405/405/405
v -0.09100000 0.11511473 0.08300000
vn 0.00000000 0.94491112 -0.32732686
v -0.12549999 0.12204294 0.10300000
vn 0.00000000 0.94491112 -0.32732686
v -0.08650000 0.12204294 0.10300000
vn 0.00000000 0.94491112 -0.32732686
f 406/406/406 407/407/407 408/408/408
v -0.12100000 0.11511473 0.08300000
vn -0.80084151 0.47831011 -0.36037815
v -0.13600001 0.09000000 0.08300000
vn -0.80084151 0.47831011 -0.36037815
v -0.14500000 0.09000000 0.10300000
vn -0.80084151 0.47831011 -0.36037815
f 409/409/409 410/410/410 411/411/411
v -0.12100000 0.11511473 0.08300000
vn -0.80057037 0.48719394 -0.34889701
v -0.14500000 0.09000000 0.10300000
vn -0.80057037 0.48719394 -0.34889701
v -0.12549999 0.12204294 0.10300000
vn -0.80057037 0.48719394 -0.34889701
f 412/412/412 413/413/413 414/414/414
v -0.13600001 0.09000000 0.08300000
vn -0.80497324 -0.48077771 -0.34766504
v -0.12100000 0.06488527 0.08300000
vn -0.80497324 -0.48077771 -0.34766504
v -0.12549999 0.05795706 0.10300000
vn -0.80497324 -0.48077771 -0.34766504
f 415/415/415 416/416/416 417/417/417
v -0.13600001 0.09000000 0.08300000
vn -0.79736531 -0.48524335 -0.35881388
v -0.12549999 0.05795706 0.10300000
vn -0.79736531 -0.48524335 -0.35881388
v -0.14500000 0.09000000 0.10300000
vn -0.79736531 -0.48524335 -0.35881388
f 418/418/418 419/419/419 420/420/420
v -0.12100000 0.06488527 0.08300000
vn -0.00000000 -0.94491124 -0.32732689
v -0.09100000 0.06488527 0.08300000
vn -0.00000000 -0.94491124 -0.32732689
v -0.08650000 0.05795706 0.10300000
vn -0.00000000 -0.94491124 -0.32732689
f 421/421/421 422/422/422 423/423/423
v -0.12100000 0.06488527 0.08300000
vn 0.00000000 -0.94491112 -0.32732686
v -0.08650000 0.05795706 0.10300000
vn 0.00000000 -0.94491112 -0.32732686
v -0.12549999 0.05795706 0.10300000
vn 0.00000000 -0.94491112 -0.32732686
f 424/424/424 425/425/425 426/426/426
v -0.09100000 0.06488527 0.08300000
vn 0.80084157 -0.47830981 -0.36037847
v -0.07600000 0.09000000 0.08300000
vn 0.80084157 -0.47830981 -0.36037847
v -0.06700000 0.09000000 0.10300000
vn 0.80084157 -0.47830981 -0.36037847
f 427/427/427 428/428/428 429/429/429
v -0.09100000 0.06488527 0.08300000
vn 0.80057037 -0.48719364 -0.34889725
v -0.06700000 0.09000000 0.10300000
vn 0.80057037 -0.48719364 -0.34889725
v -0.08650000 0.05795706 0.10300000
vn 0.80057037 -0.48719364 -0.34889725
f 430/430/430 431/431/431 432/432/432
v -0.06700000 0.09000000 0.10300000
vn 0.80057037 0.48719376 0.34889725
v -0.08650000 0.12204294 0.10300000
vn 0.80057037 0.48719376 0.34889725
v -0.09100000 0.11511473 0.12300000
vn 0.80057037 0.48719376 0.34889725
f 433/433/433 434/434/434 435/435/435
v -0.06700000 0.09000000 0.10300000
vn 0.80084151 0.47830987 0.36037841
v -0.09100000 0.11511473 0.12300000
vn 0.80084151 0.47830987 0.36037841
v -0.07600000 0.09000000 0.12300000
vn 0.80084151 0.47830987 0.36037841
f 436/436/436 437/437/437 438/438/438
v -0.08650000 0.12204294 0.10300000
vn -0.00000000 0.94491112 0.32732686
v -0.12549999 0.12204294 0.10300000
vn -0.00000000 0.94491112 0.32732686
v -0.12100000 0.11511473 0.12300000
vn -0.00000000 0.94491112 0.32732686
f 439/439/439 440/440/440 441/441/441
v -0.08650000 0.12204294 0.10300000
vn 0.00000000 0.94491124 0.32732689
v -0.12100000 0.11511473 0.12300000
vn 0.00000000 0.94491124 0.32732689
v -0.09100000 0.11511473 0.12300000
vn 0.00000000 0.94491124 0.32732689
f 442/442/442 443/443/443 444/444/444
v -0.12549999 0.12204294 0.10300000
vn -0.79736531 0.48524347 0.35881385
v -0.14500000 0.09000000 0.10300000
vn -0.79736531 0.48524347 0.35881385
v -0.13600001 0.09000000 0.12300000
vn -0.79736531 0.48524347 0.35881385
f 445/445/445 446/446/446 447/447/447
v -0.12549999 0.12204294 0.10300000
vn -0.80497313 0.48077774 0.34766501
v -0.13600001 0.09000000 0.12300000
vn -0.80497313 0.48077774 0.34766501
v -0.12100000 0.11511473 0.12300000
vn -0.80497313 0.48077774 0.34766501
f 448/448/448 449/449/449 450/450/450
v -0.14500000 0.09000000 0.10300000
vn -0.80057037 -0.48719385 0.34889698
v -0.12549999 0.05795706 0.10300000
vn -0.80057037 -0.48719385 0.34889698
v -0.12100000 0.06488527 0.12300000
vn -0.80057037 -0.48719385 0.34889698
f 451/451/451 452/452/452 453/453/453
v -0.14500000 0.09000000 0.10300000
vn -0.80084157 -0.47831002 0.36037818
v -0.12100000 0.06488527 0.12300000
vn -0.80084157 -0.47831002 0.36037818
v -0.13600001 0.09000000 0.12300000
vn -0.80084157 -0.47831002 0.36037818
f 454/454/454 455/455/455 456/456/456
v -0.12549999 0.05795706 0.10300000
vn 0.00000000 -0.94491112 0.32732686
v -0.08650000 0.05795706 0.10300000
vn 0.00000000 -0.94491112 0.32732686
v -0.09100000 0.06488527 0.12300000
vn 0.00000000 -0.94491112 0.32732686
f 457/457/457 458/458/458 459/459/459
v -0.12549999 0.05795706 0.10300000
vn 0.00000000 -0.94491124 0.32732689
v -0.09100000 0.06488527 0.12300000
vn 0.00000000 -0.94491124 0.32732689
v -0.12100000 0.06488527 0.12300000
vn 0.00000000 -0.94491124 0.32732689
f 460/460/460 461/461/461 462/462/462
v -0.08650000 0.05795706 0.10300000
vn 0.79736531 -0.48524317 0.35881418
v -0.06700000 0.09000000 0.10300000
vn 0.79736531 -0.48524317 0.35881418
v -0.07600000 0.09000000 0.12300000
vn 0.79736531 -0.48524317 0.35881418
f 463/463/463 464/464/464 465/465/465
v -0.08650000 0.05795706 0.10300000
vn 0.80497324 -0.48077747 0.34766525
v -0.07600000 0.09000000 0.12300000
vn 0.80497324 -0.48077747 0.34766525
v -0.09100000 0.06488527 0.12300000
vn 0.80497324 -0.48077747 0.34766525
f 466/466/466 467/467/467 468/468/468
