# Native geometry authored with Blender MCP in an isolated background process.
mtllib ../Materials/pz_street_pole_00.mtl
o pz_street_pole_00_|_tapered_native_street_pole
usemtl UV_Base
v 0.0710000 0.0000000 0.0150000
vn 0.0000000 0.0000000 -1.0000000
v 0.0614878 -0.0355000 0.0150000
vn 0.0000000 0.0000000 -1.0000000
v 0.0355000 -0.0614878 0.0150000
vn 0.0000000 0.0000000 -1.0000000
vt 0.275914732 0.420183928
vt 0.271954585 0.434963392
vt 0.261135267 0.445782710
vt 0.261135267 0.445782710
vt 0.246355803 0.449742857
vt 0.231576339 0.445782710
vt 0.231576339 0.445782710
vt 0.220757022 0.434963392
vt 0.216796875 0.420183928
vt 0.216796875 0.420183928
vt 0.220757022 0.405404464
vt 0.231576339 0.394585147
vt 0.231576339 0.394585147
vt 0.246355803 0.390625000
vt 0.261135267 0.394585147
vt 0.261135267 0.394585147
vt 0.271954585 0.405404464
vt 0.275914732 0.420183928
vt 0.275914732 0.420183928
vt 0.261135267 0.445782710
vt 0.231576339 0.445782710
vt 0.231576339 0.445782710
vt 0.216796875 0.420183928
vt 0.231576339 0.394585147
vt 0.231576339 0.394585147
vt 0.261135267 0.394585147
vt 0.275914732 0.420183928
vt 0.231576339 0.445782710
vt 0.231576339 0.394585147
vt 0.275914732 0.420183928
vt 0.919812340 0.395829037
vt 0.921206772 0.401033073
vt 0.919812340 0.406237110
vt 0.919812340 0.406237110
vt 0.916002735 0.410046715
vt 0.910798698 0.411441147
vt 0.910798698 0.411441147
vt 0.905594662 0.410046715
vt 0.901785057 0.406237110
vt 0.901785057 0.406237110
vt 0.900390625 0.401033073
vt 0.901785057 0.395829037
vt 0.901785057 0.395829037
vt 0.905594662 0.392019432
vt 0.910798698 0.390625000
vt 0.910798698 0.390625000
vt 0.916002735 0.392019432
vt 0.919812340 0.395829037
vt 0.919812340 0.395829037
vt 0.919812340 0.406237110
vt 0.910798698 0.411441147
vt 0.910798698 0.411441147
vt 0.901785057 0.406237110
vt 0.901785057 0.395829037
vt 0.901785057 0.395829037
vt 0.910798698 0.390625000
vt 0.919812340 0.395829037
vt 0.910798698 0.411441147
vt 0.901785057 0.395829037
vt 0.919812340 0.395829037
vt 0.003906250 0.033341144
vt 0.003906250 0.018040317
vt 0.026686421 0.017717062
vt 0.003906250 0.033341144
vt 0.026686421 0.017717062
vt 0.026686421 0.033664401
vt 0.003906250 0.018040317
vt 0.004376903 0.004789414
vt 0.027176961 0.003906250
vt 0.003906250 0.018040317
vt 0.027176961 0.003906250
vt 0.026686421 0.017717062
vt 0.004037679 0.086617908
vt 0.003906250 0.071399282
vt 0.026622702 0.071202646
vt 0.004037679 0.086617908
vt 0.026622702 0.071202646
vt 0.026759683 0.087064311
vt 0.003906250 0.071399282
vt 0.004423833 0.057427614
vt 0.027162154 0.056640625
vt 0.003906250 0.071399282
vt 0.027162154 0.056640625
vt 0.026622702 0.071202646
vt 0.004037679 0.125680405
vt 0.003906250 0.110461782
vt 0.026622701 0.110265140
vt 0.004037679 0.125680405
vt 0.026622701 0.110265140
vt 0.026759683 0.126126818
vt 0.003906250 0.110461782
vt 0.004423833 0.096490113
vt 0.027162155 0.095703125
vt 0.003906250 0.110461782
vt 0.027162155 0.095703125
vt 0.026622701 0.110265140
vt 0.004037679 0.164742914
vt 0.003906250 0.149524287
vt 0.026622701 0.149327655
vt 0.004037679 0.164742914
vt 0.026622701 0.149327655
vt 0.026759684 0.165189318
vt 0.003906250 0.149524287
vt 0.004423833 0.135552622
vt 0.027162155 0.134765625
vt 0.003906250 0.149524287
vt 0.027162155 0.134765625
vt 0.026622701 0.149327655
vt 0.004037679 0.203805408
vt 0.003906250 0.188586782
vt 0.026622702 0.188390146
vt 0.004037679 0.203805408
vt 0.026622702 0.188390146
vt 0.026759683 0.204251811
vt 0.003906250 0.188586782
vt 0.004423833 0.174615114
vt 0.027162154 0.173828125
vt 0.003906250 0.188586782
vt 0.027162154 0.173828125
vt 0.026622702 0.188390146
vt 0.003906250 0.228514714
vt 0.003906250 0.213213889
vt 0.026514360 0.212890625
vt 0.003906250 0.228514714
vt 0.026514360 0.212890625
vt 0.026514360 0.228837978
vt 0.004376903 0.046592049
vt 0.003906250 0.033341144
vt 0.026686421 0.033664401
vt 0.004376903 0.046592049
vt 0.026686421 0.033664401
vt 0.027176961 0.047475206
vt 0.026686421 0.033664401
vt 0.026686421 0.017717062
vt 0.056318095 0.020087609
vt 0.026686421 0.033664401
vt 0.056318095 0.020087609
vt 0.056318094 0.031293851
vt 0.003906250 0.254228603
vt 0.003906250 0.238281250
vt 0.034129513 0.240651813
vt 0.003906250 0.254228603
vt 0.034129513 0.240651813
vt 0.034129513 0.251858040
vt 0.026759683 0.087064311
vt 0.026622702 0.071202646
vt 0.056415330 0.072644641
vt 0.026759683 0.087064311
vt 0.056415330 0.072644641
vt 0.056511588 0.083790678
vt 0.003906251 0.279619214
vt 0.003906250 0.263671875
vt 0.034129514 0.266042422
vt 0.003906251 0.279619214
vt 0.034129514 0.266042422
vt 0.034129512 0.277248664
vt 0.026759683 0.126126818
vt 0.026622701 0.110265140
vt 0.056415330 0.111707145
vt 0.026759683 0.126126818
vt 0.056415330 0.111707145
vt 0.056511588 0.122853168
vt 0.003906250 0.305009839
vt 0.003906251 0.289062500
vt 0.034129512 0.291433050
vt 0.003906250 0.305009839
vt 0.034129512 0.291433050
vt 0.034129514 0.302639292
vt 0.026759684 0.165189318
vt 0.026622701 0.149327655
vt 0.056415331 0.150769644
vt 0.026759684 0.165189318
vt 0.056415331 0.150769644
vt 0.056511588 0.161915683
vt 0.003906250 0.330400478
vt 0.003906250 0.314453125
vt 0.034129513 0.316823688
vt 0.003906250 0.330400478
vt 0.034129513 0.316823688
vt 0.034129513 0.328029915
vt 0.026759683 0.204251811
vt 0.026622702 0.188390146
vt 0.056415330 0.189832141
vt 0.026759683 0.204251811
vt 0.056415330 0.189832141
vt 0.056511588 0.200978178
vt 0.003906251 0.355791089
vt 0.003906250 0.339843750
vt 0.034129514 0.342214297
vt 0.003906251 0.355791089
vt 0.034129514 0.342214297
vt 0.034129512 0.353420539
vt 0.026514360 0.228837978
vt 0.026514360 0.212890625
vt 0.056479603 0.215261188
vt 0.026514360 0.228837978
vt 0.056479603 0.215261188
vt 0.056479603 0.226467415
vt 0.003906250 0.381181714
vt 0.003906251 0.365234375
vt 0.034129512 0.367604925
vt 0.003906250 0.381181714
vt 0.034129512 0.367604925
vt 0.034129514 0.378811167
vt 0.056318094 0.031293851
vt 0.056318095 0.020087609
vt 0.090006152 0.022027157
vt 0.056318094 0.031293851
vt 0.090006152 0.022027157
vt 0.090006153 0.029354310
vt 0.034129513 0.251858040
vt 0.034129513 0.240651813
vt 0.068181423 0.242591337
vt 0.034129513 0.251858040
vt 0.068181423 0.242591337
vt 0.068181423 0.249918515
vt 0.056511588 0.083790678
vt 0.056415330 0.072644641
vt 0.090220371 0.073824454
vt 0.056511588 0.083790678
vt 0.090220371 0.073824454
vt 0.090283308 0.081112244
vt 0.034129512 0.277248664
vt 0.034129514 0.266042422
vt 0.068181422 0.267981970
vt 0.034129512 0.277248664
vt 0.068181422 0.267981970
vt 0.068181425 0.275309123
vt 0.056511588 0.122853168
vt 0.056415330 0.111707145
vt 0.090220370 0.112886944
vt 0.056511588 0.122853168
vt 0.090220370 0.112886944
vt 0.090283308 0.120174757
vt 0.034129514 0.302639292
vt 0.034129512 0.291433050
vt 0.068181425 0.293372591
vt 0.034129514 0.302639292
vt 0.068181425 0.293372591
vt 0.068181422 0.300699744
vt 0.056511588 0.161915683
vt 0.056415331 0.150769644
vt 0.090220370 0.151949467
vt 0.056511588 0.161915683
vt 0.090220370 0.151949467
vt 0.090283309 0.159237255
vt 0.034129513 0.328029915
vt 0.034129513 0.316823688
vt 0.068181423 0.318763212
vt 0.034129513 0.328029915
vt 0.068181423 0.318763212
vt 0.068181423 0.326090390
vt 0.056511588 0.200978178
vt 0.056415330 0.189832141
vt 0.090220371 0.191011954
vt 0.056511588 0.200978178
vt 0.090220371 0.191011954
vt 0.090283308 0.198299744
vt 0.034129512 0.353420539
vt 0.034129514 0.342214297
vt 0.068181422 0.344153845
vt 0.034129512 0.353420539
vt 0.068181422 0.344153845
vt 0.068181425 0.351480998
vt 0.056479603 0.226467415
vt 0.056479603 0.215261188
vt 0.090396011 0.217200712
vt 0.056479603 0.226467415
vt 0.090396011 0.217200712
vt 0.090396011 0.224527890
vt 0.034129514 0.378811167
vt 0.034129512 0.367604925
vt 0.068181425 0.369544466
vt 0.034129514 0.378811167
vt 0.068181425 0.369544466
vt 0.068181422 0.376871619
vt 0.090006153 0.029354310
vt 0.090006152 0.022027157
vt 0.996093750 0.022996920
vt 0.090006153 0.029354310
vt 0.996093750 0.022996920
vt 0.996093749 0.028384539
vt 0.068181423 0.249918515
vt 0.068181423 0.242591337
vt 0.963135469 0.243561129
vt 0.068181423 0.249918515
vt 0.963135469 0.243561129
vt 0.963135469 0.248948724
vt 0.090283308 0.081112244
vt 0.090220371 0.073824454
vt 0.994981544 0.074414361
vt 0.090283308 0.081112244
vt 0.994981544 0.074414361
vt 0.995027823 0.079773034
vt 0.068181425 0.275309123
vt 0.068181422 0.267981970
vt 0.963135467 0.268951733
vt 0.068181425 0.275309123
vt 0.963135467 0.268951733
vt 0.963135464 0.274339352
vt 0.090283308 0.120174757
vt 0.090220370 0.112886944
vt 0.994981546 0.113476869
vt 0.090283308 0.120174757
vt 0.994981546 0.113476869
vt 0.995027824 0.118835519
vt 0.068181422 0.300699744
vt 0.068181425 0.293372591
vt 0.963135467 0.294342362
vt 0.068181422 0.300699744
vt 0.963135467 0.294342362
vt 0.963135470 0.299729981
vt 0.090283309 0.159237255
vt 0.090220370 0.151949467
vt 0.994981546 0.152539364
vt 0.090283309 0.159237255
vt 0.994981546 0.152539364
vt 0.995027822 0.157898040
vt 0.068181423 0.326090390
vt 0.068181423 0.318763212
vt 0.963135469 0.319733004
vt 0.068181423 0.326090390
vt 0.963135469 0.319733004
vt 0.963135469 0.325120599
vt 0.090283308 0.198299744
vt 0.090220371 0.191011954
vt 0.994981544 0.191601861
vt 0.090283308 0.198299744
vt 0.994981544 0.191601861
vt 0.995027823 0.196960534
vt 0.068181425 0.351480998
vt 0.068181422 0.344153845
vt 0.963135467 0.345123608
vt 0.068181425 0.351480998
vt 0.963135467 0.345123608
vt 0.963135464 0.350511227
vt 0.090396011 0.224527890
vt 0.090396011 0.217200712
vt 0.992401230 0.218170504
vt 0.090396011 0.224527890
vt 0.992401230 0.218170504
vt 0.992401230 0.223558099
vt 0.068181422 0.376871619
vt 0.068181425 0.369544466
vt 0.963135467 0.370514237
vt 0.068181422 0.376871619
vt 0.963135467 0.370514237
vt 0.963135470 0.375901856
vt 0.827395064 0.406861594
vt 0.825219777 0.414979892
vt 0.819276767 0.420922902
vt 0.819276767 0.420922902
vt 0.811158469 0.423098189
vt 0.803040172 0.420922902
vt 0.803040172 0.420922902
vt 0.797097162 0.414979892
vt 0.794921875 0.406861594
vt 0.794921875 0.406861594
vt 0.797097162 0.398743297
vt 0.803040172 0.392800287
vt 0.803040172 0.392800287
vt 0.811158469 0.390625000
vt 0.819276767 0.392800287
vt 0.819276767 0.392800287
vt 0.825219777 0.398743297
vt 0.827395064 0.406861594
vt 0.827395064 0.406861594
vt 0.819276767 0.420922902
vt 0.803040172 0.420922902
vt 0.803040172 0.420922902
vt 0.794921875 0.406861594
vt 0.803040172 0.392800287
vt 0.803040172 0.392800287
vt 0.819276767 0.392800287
vt 0.827395064 0.406861594
vt 0.803040172 0.420922902
vt 0.803040172 0.392800287
vt 0.827395064 0.406861594
vt 0.075378198 0.409775855
vt 0.080509670 0.428926710
vt 0.075378198 0.448077565
vt 0.075378198 0.448077565
vt 0.061358815 0.462096948
vt 0.042207960 0.467228420
vt 0.042207960 0.467228420
vt 0.023057105 0.462096948
vt 0.009037722 0.448077565
vt 0.009037722 0.448077565
vt 0.003906250 0.428926710
vt 0.009037722 0.409775855
vt 0.009037722 0.409775855
vt 0.023057105 0.395756472
vt 0.042207960 0.390625000
vt 0.042207960 0.390625000
vt 0.061358815 0.395756472
vt 0.075378198 0.409775855
vt 0.075378198 0.409775855
vt 0.075378198 0.448077565
vt 0.042207960 0.467228420
vt 0.042207960 0.467228420
vt 0.009037722 0.448077565
vt 0.009037722 0.409775855
vt 0.009037722 0.409775855
vt 0.042207960 0.390625000
vt 0.075378198 0.409775855
vt 0.042207960 0.467228420
vt 0.009037722 0.409775855
vt 0.075378198 0.409775855
vt 0.202550737 0.412334342
vt 0.204274622 0.420560328
vt 0.168753298 0.435820998
vt 0.202550737 0.412334342
vt 0.168753298 0.435820998
vt 0.163891051 0.412619499
vt 0.204274622 0.420560328
vt 0.208984375 0.427010109
vt 0.182037211 0.454012679
vt 0.204274622 0.420560328
vt 0.182037211 0.454012679
vt 0.168753298 0.435820998
vt 0.578779057 0.421641059
vt 0.580440530 0.413522761
vt 0.619140625 0.413522761
vt 0.578779057 0.421641059
vt 0.619140625 0.413522761
vt 0.614454413 0.436420523
vt 0.580440530 0.413522761
vt 0.578779057 0.405404464
vt 0.614454413 0.390625000
vt 0.580440530 0.413522761
vt 0.614454413 0.390625000
vt 0.619140625 0.413522761
vt 0.491418747 0.435782014
vt 0.484661006 0.430986154
vt 0.500276010 0.395576142
vt 0.491418747 0.435782014
vt 0.500276010 0.395576142
vt 0.519336296 0.409102920
vt 0.484661006 0.430986154
vt 0.476562500 0.429230752
vt 0.477434069 0.390625000
vt 0.484661006 0.430986154
vt 0.477434069 0.390625000
vt 0.500276010 0.395576142
vt 0.570117545 0.429230752
vt 0.562019040 0.430986154
vt 0.546404036 0.395576142
vt 0.570117545 0.429230752
vt 0.546404036 0.395576142
vt 0.569245976 0.390625000
vt 0.562019040 0.430986154
vt 0.555261299 0.435782014
vt 0.527343750 0.409102920
vt 0.562019040 0.430986154
vt 0.527343750 0.409102920
vt 0.546404036 0.395576142
vt 0.667968750 0.405404464
vt 0.666307277 0.413522761
vt 0.627607182 0.413522761
vt 0.667968750 0.405404464
vt 0.627607182 0.413522761
vt 0.632293394 0.390625000
vt 0.666307277 0.413522761
vt 0.667968750 0.421641059
vt 0.632293394 0.436420523
vt 0.666307277 0.413522761
vt 0.632293394 0.436420523
vt 0.627607182 0.413522761
vt 0.778925277 0.390625000
vt 0.785640566 0.395679071
vt 0.768940548 0.430590483
vt 0.778925277 0.390625000
vt 0.768940548 0.430590483
vt 0.750000000 0.416335419
vt 0.204274622 0.404536292
vt 0.202550737 0.412334342
vt 0.163891051 0.412619499
vt 0.204274622 0.404536292
vt 0.163891051 0.412619499
vt 0.168753298 0.390625000
vt 0.090887323 0.436331993
vt 0.090887324 0.412626487
vt 0.115946722 0.412087723
vt 0.090887323 0.436331993
vt 0.115946722 0.412087723
vt 0.115946723 0.436870755
vt 0.090887324 0.412626487
vt 0.089843750 0.392096913
vt 0.114855714 0.390625000
vt 0.090887324 0.412626487
vt 0.114855714 0.390625000
vt 0.115946722 0.412087723
vt 0.286924521 0.437461330
vt 0.287434040 0.414563569
vt 0.312500000 0.414563569
vt 0.286924521 0.437461330
vt 0.312500000 0.414563569
vt 0.311967320 0.438502137
vt 0.287434040 0.414563569
vt 0.286924521 0.391665807
vt 0.311967320 0.390625000
vt 0.287434040 0.414563569
vt 0.311967320 0.390625000
vt 0.312500000 0.414563569
vt 0.320312500 0.437461332
vt 0.320822019 0.414563567
vt 0.345887978 0.414563573
vt 0.320312500 0.437461332
vt 0.345887978 0.414563573
vt 0.345355300 0.438502130
vt 0.320822019 0.414563567
vt 0.320312500 0.391665807
vt 0.345355300 0.390625000
vt 0.320822019 0.414563567
vt 0.345355300 0.390625000
vt 0.345887978 0.414563573
vt 0.355468750 0.437461322
vt 0.355978269 0.414563562
vt 0.381044228 0.414563557
vt 0.355468750 0.437461322
vt 0.381044228 0.414563557
vt 0.380511550 0.438502130
vt 0.355978269 0.414563562
vt 0.355468750 0.391665797
vt 0.380511550 0.390625000
vt 0.355978269 0.414563562
vt 0.380511550 0.390625000
vt 0.381044228 0.414563557
vt 0.417968750 0.391665807
vt 0.417459231 0.414563569
vt 0.392393271 0.414563569
vt 0.417968750 0.391665807
vt 0.392393271 0.414563569
vt 0.392925951 0.390625000
vt 0.417459231 0.414563569
vt 0.417968750 0.437461330
vt 0.392925951 0.438502137
vt 0.417459231 0.414563569
vt 0.392925951 0.438502137
vt 0.392393271 0.414563569
vt 0.835937500 0.414869264
vt 0.835937500 0.391163754
vt 0.860997669 0.390625000
vt 0.835937500 0.414869264
vt 0.860997669 0.390625000
vt 0.860997669 0.415408017
vt 0.089843750 0.456861565
vt 0.090887323 0.436331993
vt 0.115946723 0.436870755
vt 0.089843750 0.456861565
vt 0.115946723 0.436870755
vt 0.114855713 0.458333486
vt 0.154296875 0.413585650
vt 0.149268314 0.437853165
vt 0.137598105 0.432903993
vt 0.154296875 0.413585650
vt 0.137598105 0.432903993
vt 0.141620960 0.413489981
vt 0.149268314 0.437853165
vt 0.135530057 0.456925071
vt 0.126607506 0.448161509
vt 0.149268314 0.437853165
vt 0.126607506 0.448161509
vt 0.137598105 0.432903993
vt 0.431638111 0.438502137
vt 0.426797822 0.414563569
vt 0.439487137 0.414563569
vt 0.431638111 0.438502137
vt 0.439487137 0.414563569
vt 0.443359375 0.433714424
vt 0.426797822 0.414563569
vt 0.431638111 0.390625000
vt 0.443359375 0.395412714
vt 0.426797822 0.414563569
vt 0.443359375 0.395412714
vt 0.439487137 0.414563569
vt 0.696244675 0.434809763
vt 0.682245906 0.414796835
vt 0.693879117 0.409728577
vt 0.696244675 0.434809763
vt 0.693879117 0.409728577
vt 0.705078125 0.425738910
vt 0.682245906 0.414796835
vt 0.677121991 0.390917366
vt 0.689779978 0.390625000
vt 0.682245906 0.414796835
vt 0.689779978 0.390625000
vt 0.693879117 0.409728577
vt 0.714231367 0.434517397
vt 0.719355281 0.410637929
vt 0.730988492 0.415706187
vt 0.714231367 0.434517397
vt 0.730988492 0.415706187
vt 0.726889354 0.434809763
vt 0.719355281 0.410637929
vt 0.733354050 0.390625000
vt 0.742187500 0.399695853
vt 0.719355281 0.410637929
vt 0.742187500 0.399695853
vt 0.730988492 0.415706187
vt 0.463909711 0.390625000
vt 0.468750000 0.414563569
vt 0.456060685 0.414563569
vt 0.463909711 0.390625000
vt 0.456060685 0.414563569
vt 0.452188447 0.395412714
vt 0.468750000 0.414563569
vt 0.463909711 0.438502137
vt 0.452188447 0.433714424
vt 0.468750000 0.414563569
vt 0.452188447 0.433714424
vt 0.456060685 0.414563569
vt 0.877794951 0.390625000
vt 0.892578125 0.410516097
vt 0.881111362 0.415950448
vt 0.877794951 0.390625000
vt 0.881111362 0.415950448
vt 0.869284830 0.400037580
vt 0.149268314 0.390625000
vt 0.154296875 0.413585650
vt 0.141620960 0.413489981
vt 0.149268314 0.390625000
vt 0.141620960 0.413489981
vt 0.137598105 0.395121461
f 1/1/1 2/2/2 3/3/3
v 0.0355000 -0.0614878 0.0150000
vn 0.0000000 0.0000000 -1.0000000
v -0.0000000 -0.0710000 0.0150000
vn 0.0000000 0.0000000 -1.0000000
v -0.0355000 -0.0614878 0.0150000
vn 0.0000000 0.0000000 -1.0000000
f 4/4/4 5/5/5 6/6/6
v -0.0355000 -0.0614878 0.0150000
vn 0.0000000 0.0000000 -1.0000000
v -0.0614878 -0.0355000 0.0150000
vn 0.0000000 0.0000000 -1.0000000
v -0.0710000 0.0000000 0.0150000
vn 0.0000000 0.0000000 -1.0000000
f 7/7/7 8/8/8 9/9/9
v -0.0710000 0.0000000 0.0150000
vn 0.0000000 0.0000000 -1.0000000
v -0.0614878 0.0355000 0.0150000
vn 0.0000000 0.0000000 -1.0000000
v -0.0355000 0.0614878 0.0150000
vn 0.0000000 0.0000000 -1.0000000
f 10/10/10 11/11/11 12/12/12
v -0.0355000 0.0614878 0.0150000
vn -0.0000000 0.0000000 -1.0000000
v 0.0000000 0.0710000 0.0150000
vn -0.0000000 0.0000000 -1.0000000
v 0.0355000 0.0614878 0.0150000
vn -0.0000000 0.0000000 -1.0000000
f 13/13/13 14/14/14 15/15/15
v 0.0355000 0.0614878 0.0150000
vn 0.0000000 0.0000000 -1.0000000
v 0.0614878 0.0355000 0.0150000
vn 0.0000000 0.0000000 -1.0000000
v 0.0710000 0.0000000 0.0150000
vn 0.0000000 0.0000000 -1.0000000
f 16/16/16 17/17/17 18/18/18
v 0.0710000 0.0000000 0.0150000
vn 0.0000000 0.0000000 -1.0000000
v 0.0355000 -0.0614878 0.0150000
vn 0.0000000 0.0000000 -1.0000000
v -0.0355000 -0.0614878 0.0150000
vn 0.0000000 0.0000000 -1.0000000
f 19/19/19 20/20/20 21/21/21
v -0.0355000 -0.0614878 0.0150000
vn 0.0000000 -0.0000000 -1.0000000
v -0.0710000 0.0000000 0.0150000
vn 0.0000000 -0.0000000 -1.0000000
v -0.0355000 0.0614878 0.0150000
vn 0.0000000 -0.0000000 -1.0000000
f 22/22/22 23/23/23 24/24/24
v -0.0355000 0.0614878 0.0150000
vn 0.0000000 0.0000000 -1.0000000
v 0.0355000 0.0614878 0.0150000
vn 0.0000000 0.0000000 -1.0000000
v 0.0710000 0.0000000 0.0150000
vn 0.0000000 0.0000000 -1.0000000
f 25/25/25 26/26/26 27/27/27
v -0.0355000 -0.0614878 0.0150000
vn -0.0000000 -0.0000000 -1.0000000
v -0.0355000 0.0614878 0.0150000
vn -0.0000000 -0.0000000 -1.0000000
v 0.0710000 0.0000000 0.0150000
vn -0.0000000 -0.0000000 -1.0000000
f 28/28/28 29/29/29 30/30/30
v 0.0216506 -0.0125000 2.4000001
vn 0.0000000 0.0000000 1.0000000
v 0.0250000 0.0000000 2.4000001
vn 0.0000000 0.0000000 1.0000000
v 0.0216506 0.0125000 2.4000001
vn 0.0000000 0.0000000 1.0000000
f 31/31/31 32/32/32 33/33/33
v 0.0216506 0.0125000 2.4000001
vn 0.0000000 0.0000000 1.0000000
v 0.0125000 0.0216506 2.4000001
vn 0.0000000 0.0000000 1.0000000
v 0.0000000 0.0250000 2.4000001
vn 0.0000000 0.0000000 1.0000000
f 34/34/34 35/35/35 36/36/36
v 0.0000000 0.0250000 2.4000001
vn 0.0000000 0.0000000 1.0000000
v -0.0125000 0.0216506 2.4000001
vn 0.0000000 0.0000000 1.0000000
v -0.0216506 0.0125000 2.4000001
vn 0.0000000 0.0000000 1.0000000
f 37/37/37 38/38/38 39/39/39
v -0.0216506 0.0125000 2.4000001
vn 0.0000000 -0.0000000 1.0000000
v -0.0250000 0.0000000 2.4000001
vn 0.0000000 -0.0000000 1.0000000
v -0.0216506 -0.0125000 2.4000001
vn 0.0000000 -0.0000000 1.0000000
f 40/40/40 41/41/41 42/42/42
v -0.0216506 -0.0125000 2.4000001
vn 0.0000000 0.0000000 1.0000000
v -0.0125000 -0.0216506 2.4000001
vn 0.0000000 0.0000000 1.0000000
v -0.0000000 -0.0250000 2.4000001
vn 0.0000000 0.0000000 1.0000000
f 43/43/43 44/44/44 45/45/45
v -0.0000000 -0.0250000 2.4000001
vn 0.0000000 0.0000000 1.0000000
v 0.0125000 -0.0216506 2.4000001
vn 0.0000000 0.0000000 1.0000000
v 0.0216506 -0.0125000 2.4000001
vn 0.0000000 0.0000000 1.0000000
f 46/46/46 47/47/47 48/48/48
v 0.0216506 -0.0125000 2.4000001
vn 0.0000000 0.0000000 1.0000000
v 0.0216506 0.0125000 2.4000001
vn 0.0000000 0.0000000 1.0000000
v 0.0000000 0.0250000 2.4000001
vn 0.0000000 0.0000000 1.0000000
f 49/49/49 50/50/50 51/51/51
v 0.0000000 0.0250000 2.4000001
vn 0.0000000 0.0000000 1.0000000
v -0.0216506 0.0125000 2.4000001
vn 0.0000000 0.0000000 1.0000000
v -0.0216506 -0.0125000 2.4000001
vn 0.0000000 0.0000000 1.0000000
f 52/52/52 53/53/53 54/54/54
v -0.0216506 -0.0125000 2.4000001
vn 0.0000000 0.0000000 1.0000000
v -0.0000000 -0.0250000 2.4000001
vn 0.0000000 0.0000000 1.0000000
v 0.0216506 -0.0125000 2.4000001
vn 0.0000000 0.0000000 1.0000000
f 55/55/55 56/56/56 57/57/57
v 0.0000000 0.0250000 2.4000001
vn 0.0000000 -0.0000000 1.0000000
v -0.0216506 -0.0125000 2.4000001
vn 0.0000000 -0.0000000 1.0000000
v 0.0216506 -0.0125000 2.4000001
vn 0.0000000 -0.0000000 1.0000000
f 58/58/58 59/59/59 60/60/60
v 0.0710000 0.0000000 0.0150000
vn 0.9645879 0.2584606 -0.0526138
v 0.0614878 0.0355000 0.0150000
vn 0.9645879 0.2584606 -0.0526138
v 0.0640859 0.0370000 0.0700000
vn 0.9645879 0.2584606 -0.0526138
f 61/61/61 62/62/62 63/63/63
v 0.0710000 0.0000000 0.0150000
vn 0.9645879 0.2584606 -0.0526139
v 0.0640859 0.0370000 0.0700000
vn 0.9645879 0.2584606 -0.0526139
v 0.0740000 0.0000000 0.0700000
vn 0.9645879 0.2584606 -0.0526139
f 64/64/64 65/65/65 66/66/66
v 0.0614878 0.0355000 0.0150000
vn 0.7061274 0.7061274 -0.0526138
v 0.0355000 0.0614878 0.0150000
vn 0.7061274 0.7061274 -0.0526138
v 0.0370000 0.0640859 0.0700000
vn 0.7061274 0.7061274 -0.0526138
f 67/67/67 68/68/68 69/69/69
v 0.0614878 0.0355000 0.0150000
vn 0.7061274 0.7061274 -0.0526139
v 0.0370000 0.0640859 0.0700000
vn 0.7061274 0.7061274 -0.0526139
v 0.0640859 0.0370000 0.0700000
vn 0.7061274 0.7061274 -0.0526139
f 70/70/70 71/71/71 72/72/72
v 0.0355000 0.0614878 0.0150000
vn 0.2584606 0.9645879 -0.0526139
v 0.0000000 0.0710000 0.0150000
vn 0.2584606 0.9645879 -0.0526139
v 0.0000000 0.0740000 0.0700000
vn 0.2584606 0.9645879 -0.0526139
f 73/73/73 74/74/74 75/75/75
v 0.0355000 0.0614878 0.0150000
vn 0.2584606 0.9645879 -0.0526138
v 0.0000000 0.0740000 0.0700000
vn 0.2584606 0.9645879 -0.0526138
v 0.0370000 0.0640859 0.0700000
vn 0.2584606 0.9645879 -0.0526138
f 76/76/76 77/77/77 78/78/78
v 0.0000000 0.0710000 0.0150000
vn -0.2584606 0.9645879 -0.0526138
v -0.0355000 0.0614878 0.0150000
vn -0.2584606 0.9645879 -0.0526138
v -0.0370000 0.0640859 0.0700000
vn -0.2584606 0.9645879 -0.0526138
f 79/79/79 80/80/80 81/81/81
v 0.0000000 0.0710000 0.0150000
vn -0.2584606 0.9645879 -0.0526139
v -0.0370000 0.0640859 0.0700000
vn -0.2584606 0.9645879 -0.0526139
v 0.0000000 0.0740000 0.0700000
vn -0.2584606 0.9645879 -0.0526139
f 82/82/82 83/83/83 84/84/84
v -0.0355000 0.0614878 0.0150000
vn -0.7061274 0.7061274 -0.0526138
v -0.0614878 0.0355000 0.0150000
vn -0.7061274 0.7061274 -0.0526138
v -0.0640859 0.0370000 0.0700000
vn -0.7061274 0.7061274 -0.0526138
f 85/85/85 86/86/86 87/87/87
v -0.0355000 0.0614878 0.0150000
vn -0.7061274 0.7061274 -0.0526139
v -0.0640859 0.0370000 0.0700000
vn -0.7061274 0.7061274 -0.0526139
v -0.0370000 0.0640859 0.0700000
vn -0.7061274 0.7061274 -0.0526139
f 88/88/88 89/89/89 90/90/90
v -0.0614878 0.0355000 0.0150000
vn -0.9645879 0.2584606 -0.0526139
v -0.0710000 0.0000000 0.0150000
vn -0.9645879 0.2584606 -0.0526139
v -0.0740000 0.0000000 0.0700000
vn -0.9645879 0.2584606 -0.0526139
f 91/91/91 92/92/92 93/93/93
v -0.0614878 0.0355000 0.0150000
vn -0.9645879 0.2584606 -0.0526138
v -0.0740000 0.0000000 0.0700000
vn -0.9645879 0.2584606 -0.0526138
v -0.0640859 0.0370000 0.0700000
vn -0.9645879 0.2584606 -0.0526138
f 94/94/94 95/95/95 96/96/96
v -0.0710000 0.0000000 0.0150000
vn -0.9645879 -0.2584606 -0.0526138
v -0.0614878 -0.0355000 0.0150000
vn -0.9645879 -0.2584606 -0.0526138
v -0.0640859 -0.0370000 0.0700000
vn -0.9645879 -0.2584606 -0.0526138
f 97/97/97 98/98/98 99/99/99
v -0.0710000 0.0000000 0.0150000
vn -0.9645879 -0.2584606 -0.0526139
v -0.0640859 -0.0370000 0.0700000
vn -0.9645879 -0.2584606 -0.0526139
v -0.0740000 0.0000000 0.0700000
vn -0.9645879 -0.2584606 -0.0526139
f 100/100/100 101/101/101 102/102/102
v -0.0614878 -0.0355000 0.0150000
vn -0.7061274 -0.7061274 -0.0526138
v -0.0355000 -0.0614878 0.0150000
vn -0.7061274 -0.7061274 -0.0526138
v -0.0370000 -0.0640859 0.0700000
vn -0.7061274 -0.7061274 -0.0526138
f 103/103/103 104/104/104 105/105/105
v -0.0614878 -0.0355000 0.0150000
vn -0.7061274 -0.7061274 -0.0526139
v -0.0370000 -0.0640859 0.0700000
vn -0.7061274 -0.7061274 -0.0526139
v -0.0640859 -0.0370000 0.0700000
vn -0.7061274 -0.7061274 -0.0526139
f 106/106/106 107/107/107 108/108/108
v -0.0355000 -0.0614878 0.0150000
vn -0.2584606 -0.9645879 -0.0526139
v -0.0000000 -0.0710000 0.0150000
vn -0.2584606 -0.9645879 -0.0526139
v -0.0000000 -0.0740000 0.0700000
vn -0.2584606 -0.9645879 -0.0526139
f 109/109/109 110/110/110 111/111/111
v -0.0355000 -0.0614878 0.0150000
vn -0.2584606 -0.9645879 -0.0526138
v -0.0000000 -0.0740000 0.0700000
vn -0.2584606 -0.9645879 -0.0526138
v -0.0370000 -0.0640859 0.0700000
vn -0.2584606 -0.9645879 -0.0526138
f 112/112/112 113/113/113 114/114/114
v -0.0000000 -0.0710000 0.0150000
vn 0.2584606 -0.9645879 -0.0526138
v 0.0355000 -0.0614878 0.0150000
vn 0.2584606 -0.9645879 -0.0526138
v 0.0370000 -0.0640859 0.0700000
vn 0.2584606 -0.9645879 -0.0526138
f 115/115/115 116/116/116 117/117/117
v -0.0000000 -0.0710000 0.0150000
vn 0.2584606 -0.9645879 -0.0526139
v 0.0370000 -0.0640859 0.0700000
vn 0.2584606 -0.9645879 -0.0526139
v -0.0000000 -0.0740000 0.0700000
vn 0.2584606 -0.9645879 -0.0526139
f 118/118/118 119/119/119 120/120/120
v 0.0355000 -0.0614878 0.0150000
vn 0.7061274 -0.7061274 -0.0526138
v 0.0614878 -0.0355000 0.0150000
vn 0.7061274 -0.7061274 -0.0526138
v 0.0640859 -0.0370000 0.0700000
vn 0.7061274 -0.7061274 -0.0526138
f 121/121/121 122/122/122 123/123/123
v 0.0355000 -0.0614878 0.0150000
vn 0.7061274 -0.7061274 -0.0526139
v 0.0640859 -0.0370000 0.0700000
vn 0.7061274 -0.7061274 -0.0526139
v 0.0370000 -0.0640859 0.0700000
vn 0.7061274 -0.7061274 -0.0526139
f 124/124/124 125/125/125 126/126/126
v 0.0614878 -0.0355000 0.0150000
vn 0.9645879 -0.2584606 -0.0526139
v 0.0710000 0.0000000 0.0150000
vn 0.9645879 -0.2584606 -0.0526139
v 0.0740000 0.0000000 0.0700000
vn 0.9645879 -0.2584606 -0.0526139
f 127/127/127 128/128/128 129/129/129
v 0.0614878 -0.0355000 0.0150000
vn 0.9645879 -0.2584606 -0.0526138
v 0.0740000 0.0000000 0.0700000
vn 0.9645879 -0.2584606 -0.0526138
v 0.0640859 -0.0370000 0.0700000
vn 0.9645879 -0.2584606 -0.0526138
f 130/130/130 131/131/131 132/132/132
v 0.0740000 0.0000000 0.0700000
vn 0.9242742 0.2476586 0.2904862
v 0.0640859 0.0370000 0.0700000
vn 0.9242742 0.2476586 0.2904862
v 0.0450333 0.0260000 0.1400000
vn 0.9242742 0.2476586 0.2904862
f 133/133/133 134/134/134 135/135/135
v 0.0740000 0.0000000 0.0700000
vn 0.9242743 0.2476586 0.2904862
v 0.0450333 0.0260000 0.1400000
vn 0.9242743 0.2476586 0.2904862
v 0.0520000 0.0000000 0.1400000
vn 0.9242743 0.2476586 0.2904862
f 136/136/136 137/137/137 138/138/138
v 0.0640859 0.0370000 0.0700000
vn 0.6766158 0.6766158 0.2904862
v 0.0370000 0.0640859 0.0700000
vn 0.6766158 0.6766158 0.2904862
v 0.0260000 0.0450333 0.1400000
vn 0.6766158 0.6766158 0.2904862
f 139/139/139 140/140/140 141/141/141
v 0.0640859 0.0370000 0.0700000
vn 0.6766157 0.6766157 0.2904862
v 0.0260000 0.0450333 0.1400000
vn 0.6766157 0.6766157 0.2904862
v 0.0450333 0.0260000 0.1400000
vn 0.6766157 0.6766157 0.2904862
f 142/142/142 143/143/143 144/144/144
v 0.0370000 0.0640859 0.0700000
vn 0.2476586 0.9242742 0.2904862
v 0.0000000 0.0740000 0.0700000
vn 0.2476586 0.9242742 0.2904862
v 0.0000000 0.0520000 0.1400000
vn 0.2476586 0.9242742 0.2904862
f 145/145/145 146/146/146 147/147/147
v 0.0370000 0.0640859 0.0700000
vn 0.2476586 0.9242743 0.2904862
v 0.0000000 0.0520000 0.1400000
vn 0.2476586 0.9242743 0.2904862
v 0.0260000 0.0450333 0.1400000
vn 0.2476586 0.9242743 0.2904862
f 148/148/148 149/149/149 150/150/150
v 0.0000000 0.0740000 0.0700000
vn -0.2476586 0.9242742 0.2904862
v -0.0370000 0.0640859 0.0700000
vn -0.2476586 0.9242742 0.2904862
v -0.0260000 0.0450333 0.1400000
vn -0.2476586 0.9242742 0.2904862
f 151/151/151 152/152/152 153/153/153
v 0.0000000 0.0740000 0.0700000
vn -0.2476586 0.9242743 0.2904862
v -0.0260000 0.0450333 0.1400000
vn -0.2476586 0.9242743 0.2904862
v 0.0000000 0.0520000 0.1400000
vn -0.2476586 0.9242743 0.2904862
f 154/154/154 155/155/155 156/156/156
v -0.0370000 0.0640859 0.0700000
vn -0.6766158 0.6766158 0.2904862
v -0.0640859 0.0370000 0.0700000
vn -0.6766158 0.6766158 0.2904862
v -0.0450333 0.0260000 0.1400000
vn -0.6766158 0.6766158 0.2904862
f 157/157/157 158/158/158 159/159/159
v -0.0370000 0.0640859 0.0700000
vn -0.6766157 0.6766157 0.2904862
v -0.0450333 0.0260000 0.1400000
vn -0.6766157 0.6766157 0.2904862
v -0.0260000 0.0450333 0.1400000
vn -0.6766157 0.6766157 0.2904862
f 160/160/160 161/161/161 162/162/162
v -0.0640859 0.0370000 0.0700000
vn -0.9242742 0.2476586 0.2904862
v -0.0740000 0.0000000 0.0700000
vn -0.9242742 0.2476586 0.2904862
v -0.0520000 0.0000000 0.1400000
vn -0.9242742 0.2476586 0.2904862
f 163/163/163 164/164/164 165/165/165
v -0.0640859 0.0370000 0.0700000
vn -0.9242743 0.2476586 0.2904862
v -0.0520000 0.0000000 0.1400000
vn -0.9242743 0.2476586 0.2904862
v -0.0450333 0.0260000 0.1400000
vn -0.9242743 0.2476586 0.2904862
f 166/166/166 167/167/167 168/168/168
v -0.0740000 0.0000000 0.0700000
vn -0.9242742 -0.2476586 0.2904862
v -0.0640859 -0.0370000 0.0700000
vn -0.9242742 -0.2476586 0.2904862
v -0.0450333 -0.0260000 0.1400000
vn -0.9242742 -0.2476586 0.2904862
f 169/169/169 170/170/170 171/171/171
v -0.0740000 0.0000000 0.0700000
vn -0.9242743 -0.2476586 0.2904862
v -0.0450333 -0.0260000 0.1400000
vn -0.9242743 -0.2476586 0.2904862
v -0.0520000 0.0000000 0.1400000
vn -0.9242743 -0.2476586 0.2904862
f 172/172/172 173/173/173 174/174/174
v -0.0640859 -0.0370000 0.0700000
vn -0.6766158 -0.6766158 0.2904862
v -0.0370000 -0.0640859 0.0700000
vn -0.6766158 -0.6766158 0.2904862
v -0.0260000 -0.0450333 0.1400000
vn -0.6766158 -0.6766158 0.2904862
f 175/175/175 176/176/176 177/177/177
v -0.0640859 -0.0370000 0.0700000
vn -0.6766157 -0.6766157 0.2904862
v -0.0260000 -0.0450333 0.1400000
vn -0.6766157 -0.6766157 0.2904862
v -0.0450333 -0.0260000 0.1400000
vn -0.6766157 -0.6766157 0.2904862
f 178/178/178 179/179/179 180/180/180
v -0.0370000 -0.0640859 0.0700000
vn -0.2476586 -0.9242742 0.2904862
v -0.0000000 -0.0740000 0.0700000
vn -0.2476586 -0.9242742 0.2904862
v -0.0000000 -0.0520000 0.1400000
vn -0.2476586 -0.9242742 0.2904862
f 181/181/181 182/182/182 183/183/183
v -0.0370000 -0.0640859 0.0700000
vn -0.2476586 -0.9242743 0.2904862
v -0.0000000 -0.0520000 0.1400000
vn -0.2476586 -0.9242743 0.2904862
v -0.0260000 -0.0450333 0.1400000
vn -0.2476586 -0.9242743 0.2904862
f 184/184/184 185/185/185 186/186/186
v -0.0000000 -0.0740000 0.0700000
vn 0.2476586 -0.9242742 0.2904862
v 0.0370000 -0.0640859 0.0700000
vn 0.2476586 -0.9242742 0.2904862
v 0.0260000 -0.0450333 0.1400000
vn 0.2476586 -0.9242742 0.2904862
f 187/187/187 188/188/188 189/189/189
v -0.0000000 -0.0740000 0.0700000
vn 0.2476586 -0.9242743 0.2904862
v 0.0260000 -0.0450333 0.1400000
vn 0.2476586 -0.9242743 0.2904862
v -0.0000000 -0.0520000 0.1400000
vn 0.2476586 -0.9242743 0.2904862
f 190/190/190 191/191/191 192/192/192
v 0.0370000 -0.0640859 0.0700000
vn 0.6766158 -0.6766158 0.2904862
v 0.0640859 -0.0370000 0.0700000
vn 0.6766158 -0.6766158 0.2904862
v 0.0450333 -0.0260000 0.1400000
vn 0.6766158 -0.6766158 0.2904862
f 193/193/193 194/194/194 195/195/195
v 0.0370000 -0.0640859 0.0700000
vn 0.6766157 -0.6766157 0.2904862
v 0.0450333 -0.0260000 0.1400000
vn 0.6766157 -0.6766157 0.2904862
v 0.0260000 -0.0450333 0.1400000
vn 0.6766157 -0.6766157 0.2904862
f 196/196/196 197/197/197 198/198/198
v 0.0640859 -0.0370000 0.0700000
vn 0.9242742 -0.2476586 0.2904862
v 0.0740000 0.0000000 0.0700000
vn 0.9242742 -0.2476586 0.2904862
v 0.0520000 0.0000000 0.1400000
vn 0.9242742 -0.2476586 0.2904862
f 199/199/199 200/200/200 201/201/201
v 0.0640859 -0.0370000 0.0700000
vn 0.9242743 -0.2476586 0.2904862
v 0.0520000 0.0000000 0.1400000
vn 0.9242743 -0.2476586 0.2904862
v 0.0450333 -0.0260000 0.1400000
vn 0.9242743 -0.2476586 0.2904862
f 202/202/202 203/203/203 204/204/204
v 0.0520000 0.0000000 0.1400000
vn 0.9438912 0.2529149 0.2123755
v 0.0450333 0.0260000 0.1400000
vn 0.9438912 0.2529149 0.2123755
v 0.0294449 0.0170000 0.2200000
vn 0.9438912 0.2529149 0.2123755
f 205/205/205 206/206/206 207/207/207
v 0.0520000 0.0000000 0.1400000
vn 0.9438913 0.2529150 0.2123755
v 0.0294449 0.0170000 0.2200000
vn 0.9438913 0.2529150 0.2123755
v 0.0340000 0.0000000 0.2200000
vn 0.9438913 0.2529150 0.2123755
f 208/208/208 209/209/209 210/210/210
v 0.0450333 0.0260000 0.1400000
vn 0.6909763 0.6909763 0.2123755
v 0.0260000 0.0450333 0.1400000
vn 0.6909763 0.6909763 0.2123755
v 0.0170000 0.0294449 0.2200000
vn 0.6909763 0.6909763 0.2123755
f 211/211/211 212/212/212 213/213/213
v 0.0450333 0.0260000 0.1400000
vn 0.6909764 0.6909764 0.2123755
v 0.0170000 0.0294449 0.2200000
vn 0.6909764 0.6909764 0.2123755
v 0.0294449 0.0170000 0.2200000
vn 0.6909764 0.6909764 0.2123755
f 214/214/214 215/215/215 216/216/216
v 0.0260000 0.0450333 0.1400000
vn 0.2529149 0.9438912 0.2123755
v 0.0000000 0.0520000 0.1400000
vn 0.2529149 0.9438912 0.2123755
v 0.0000000 0.0340000 0.2200000
vn 0.2529149 0.9438912 0.2123755
f 217/217/217 218/218/218 219/219/219
v 0.0260000 0.0450333 0.1400000
vn 0.2529150 0.9438913 0.2123755
v 0.0000000 0.0340000 0.2200000
vn 0.2529150 0.9438913 0.2123755
v 0.0170000 0.0294449 0.2200000
vn 0.2529150 0.9438913 0.2123755
f 220/220/220 221/221/221 222/222/222
v 0.0000000 0.0520000 0.1400000
vn -0.2529149 0.9438912 0.2123755
v -0.0260000 0.0450333 0.1400000
vn -0.2529149 0.9438912 0.2123755
v -0.0170000 0.0294449 0.2200000
vn -0.2529149 0.9438912 0.2123755
f 223/223/223 224/224/224 225/225/225
v 0.0000000 0.0520000 0.1400000
vn -0.2529150 0.9438913 0.2123755
v -0.0170000 0.0294449 0.2200000
vn -0.2529150 0.9438913 0.2123755
v 0.0000000 0.0340000 0.2200000
vn -0.2529150 0.9438913 0.2123755
f 226/226/226 227/227/227 228/228/228
v -0.0260000 0.0450333 0.1400000
vn -0.6909763 0.6909763 0.2123755
v -0.0450333 0.0260000 0.1400000
vn -0.6909763 0.6909763 0.2123755
v -0.0294449 0.0170000 0.2200000
vn -0.6909763 0.6909763 0.2123755
f 229/229/229 230/230/230 231/231/231
v -0.0260000 0.0450333 0.1400000
vn -0.6909764 0.6909764 0.2123755
v -0.0294449 0.0170000 0.2200000
vn -0.6909764 0.6909764 0.2123755
v -0.0170000 0.0294449 0.2200000
vn -0.6909764 0.6909764 0.2123755
f 232/232/232 233/233/233 234/234/234
v -0.0450333 0.0260000 0.1400000
vn -0.9438912 0.2529149 0.2123755
v -0.0520000 0.0000000 0.1400000
vn -0.9438912 0.2529149 0.2123755
v -0.0340000 0.0000000 0.2200000
vn -0.9438912 0.2529149 0.2123755
f 235/235/235 236/236/236 237/237/237
v -0.0450333 0.0260000 0.1400000
vn -0.9438913 0.2529150 0.2123755
v -0.0340000 0.0000000 0.2200000
vn -0.9438913 0.2529150 0.2123755
v -0.0294449 0.0170000 0.2200000
vn -0.9438913 0.2529150 0.2123755
f 238/238/238 239/239/239 240/240/240
v -0.0520000 0.0000000 0.1400000
vn -0.9438912 -0.2529149 0.2123755
v -0.0450333 -0.0260000 0.1400000
vn -0.9438912 -0.2529149 0.2123755
v -0.0294449 -0.0170000 0.2200000
vn -0.9438912 -0.2529149 0.2123755
f 241/241/241 242/242/242 243/243/243
v -0.0520000 0.0000000 0.1400000
vn -0.9438913 -0.2529150 0.2123755
v -0.0294449 -0.0170000 0.2200000
vn -0.9438913 -0.2529150 0.2123755
v -0.0340000 0.0000000 0.2200000
vn -0.9438913 -0.2529150 0.2123755
f 244/244/244 245/245/245 246/246/246
v -0.0450333 -0.0260000 0.1400000
vn -0.6909763 -0.6909763 0.2123755
v -0.0260000 -0.0450333 0.1400000
vn -0.6909763 -0.6909763 0.2123755
v -0.0170000 -0.0294449 0.2200000
vn -0.6909763 -0.6909763 0.2123755
f 247/247/247 248/248/248 249/249/249
v -0.0450333 -0.0260000 0.1400000
vn -0.6909764 -0.6909764 0.2123755
v -0.0170000 -0.0294449 0.2200000
vn -0.6909764 -0.6909764 0.2123755
v -0.0294449 -0.0170000 0.2200000
vn -0.6909764 -0.6909764 0.2123755
f 250/250/250 251/251/251 252/252/252
v -0.0260000 -0.0450333 0.1400000
vn -0.2529149 -0.9438912 0.2123755
v -0.0000000 -0.0520000 0.1400000
vn -0.2529149 -0.9438912 0.2123755
v -0.0000000 -0.0340000 0.2200000
vn -0.2529149 -0.9438912 0.2123755
f 253/253/253 254/254/254 255/255/255
v -0.0260000 -0.0450333 0.1400000
vn -0.2529150 -0.9438913 0.2123755
v -0.0000000 -0.0340000 0.2200000
vn -0.2529150 -0.9438913 0.2123755
v -0.0170000 -0.0294449 0.2200000
vn -0.2529150 -0.9438913 0.2123755
f 256/256/256 257/257/257 258/258/258
v -0.0000000 -0.0520000 0.1400000
vn 0.2529149 -0.9438912 0.2123755
v 0.0260000 -0.0450333 0.1400000
vn 0.2529149 -0.9438912 0.2123755
v 0.0170000 -0.0294449 0.2200000
vn 0.2529149 -0.9438912 0.2123755
f 259/259/259 260/260/260 261/261/261
v -0.0000000 -0.0520000 0.1400000
vn 0.2529150 -0.9438913 0.2123755
v 0.0170000 -0.0294449 0.2200000
vn 0.2529150 -0.9438913 0.2123755
v -0.0000000 -0.0340000 0.2200000
vn 0.2529150 -0.9438913 0.2123755
f 262/262/262 263/263/263 264/264/264
v 0.0260000 -0.0450333 0.1400000
vn 0.6909763 -0.6909763 0.2123755
v 0.0450333 -0.0260000 0.1400000
vn 0.6909763 -0.6909763 0.2123755
v 0.0294449 -0.0170000 0.2200000
vn 0.6909763 -0.6909763 0.2123755
f 265/265/265 266/266/266 267/267/267
v 0.0260000 -0.0450333 0.1400000
vn 0.6909764 -0.6909764 0.2123755
v 0.0294449 -0.0170000 0.2200000
vn 0.6909764 -0.6909764 0.2123755
v 0.0170000 -0.0294449 0.2200000
vn 0.6909764 -0.6909764 0.2123755
f 268/268/268 269/269/269 270/270/270
v 0.0450333 -0.0260000 0.1400000
vn 0.9438912 -0.2529149 0.2123755
v 0.0520000 0.0000000 0.1400000
vn 0.9438912 -0.2529149 0.2123755
v 0.0340000 0.0000000 0.2200000
vn 0.9438912 -0.2529149 0.2123755
f 271/271/271 272/272/272 273/273/273
v 0.0450333 -0.0260000 0.1400000
vn 0.9438913 -0.2529150 0.2123755
v 0.0340000 0.0000000 0.2200000
vn 0.9438913 -0.2529150 0.2123755
v 0.0294449 -0.0170000 0.2200000
vn 0.9438913 -0.2529150 0.2123755
f 274/274/274 275/275/275 276/276/276
v 0.0340000 0.0000000 0.2200000
vn 0.9659181 0.2588170 0.0039877
v 0.0294449 0.0170000 0.2200000
vn 0.9659181 0.2588170 0.0039877
v 0.0216506 0.0125000 2.4000001
vn 0.9659181 0.2588170 0.0039877
f 277/277/277 278/278/278 279/279/279
v 0.0340000 0.0000000 0.2200000
vn 0.9659181 0.2588170 0.0039877
v 0.0216506 0.0125000 2.4000001
vn 0.9659181 0.2588170 0.0039877
v 0.0250000 0.0000000 2.4000001
vn 0.9659181 0.2588170 0.0039877
f 280/280/280 281/281/281 282/282/282
v 0.0294449 0.0170000 0.2200000
vn 0.7071012 0.7071012 0.0039877
v 0.0170000 0.0294449 0.2200000
vn 0.7071012 0.7071012 0.0039877
v 0.0125000 0.0216506 2.4000001
vn 0.7071012 0.7071012 0.0039877
f 283/283/283 284/284/284 285/285/285
v 0.0294449 0.0170000 0.2200000
vn 0.7071012 0.7071012 0.0039877
v 0.0125000 0.0216506 2.4000001
vn 0.7071012 0.7071012 0.0039877
v 0.0216506 0.0125000 2.4000001
vn 0.7071012 0.7071012 0.0039877
f 286/286/286 287/287/287 288/288/288
v 0.0170000 0.0294449 0.2200000
vn 0.2588170 0.9659181 0.0039877
v 0.0000000 0.0340000 0.2200000
vn 0.2588170 0.9659181 0.0039877
v 0.0000000 0.0250000 2.4000001
vn 0.2588170 0.9659181 0.0039877
f 289/289/289 290/290/290 291/291/291
v 0.0170000 0.0294449 0.2200000
vn 0.2588170 0.9659181 0.0039877
v 0.0000000 0.0250000 2.4000001
vn 0.2588170 0.9659181 0.0039877
v 0.0125000 0.0216506 2.4000001
vn 0.2588170 0.9659181 0.0039877
f 292/292/292 293/293/293 294/294/294
v 0.0000000 0.0340000 0.2200000
vn -0.2588170 0.9659181 0.0039877
v -0.0170000 0.0294449 0.2200000
vn -0.2588170 0.9659181 0.0039877
v -0.0125000 0.0216506 2.4000001
vn -0.2588170 0.9659181 0.0039877
f 295/295/295 296/296/296 297/297/297
v 0.0000000 0.0340000 0.2200000
vn -0.2588170 0.9659181 0.0039877
v -0.0125000 0.0216506 2.4000001
vn -0.2588170 0.9659181 0.0039877
v 0.0000000 0.0250000 2.4000001
vn -0.2588170 0.9659181 0.0039877
f 298/298/298 299/299/299 300/300/300
v -0.0170000 0.0294449 0.2200000
vn -0.7071012 0.7071012 0.0039877
v -0.0294449 0.0170000 0.2200000
vn -0.7071012 0.7071012 0.0039877
v -0.0216506 0.0125000 2.4000001
vn -0.7071012 0.7071012 0.0039877
f 301/301/301 302/302/302 303/303/303
v -0.0170000 0.0294449 0.2200000
vn -0.7071012 0.7071012 0.0039877
v -0.0216506 0.0125000 2.4000001
vn -0.7071012 0.7071012 0.0039877
v -0.0125000 0.0216506 2.4000001
vn -0.7071012 0.7071012 0.0039877
f 304/304/304 305/305/305 306/306/306
v -0.0294449 0.0170000 0.2200000
vn -0.9659181 0.2588170 0.0039877
v -0.0340000 0.0000000 0.2200000
vn -0.9659181 0.2588170 0.0039877
v -0.0250000 0.0000000 2.4000001
vn -0.9659181 0.2588170 0.0039877
f 307/307/307 308/308/308 309/309/309
v -0.0294449 0.0170000 0.2200000
vn -0.9659181 0.2588170 0.0039877
v -0.0250000 0.0000000 2.4000001
vn -0.9659181 0.2588170 0.0039877
v -0.0216506 0.0125000 2.4000001
vn -0.9659181 0.2588170 0.0039877
f 310/310/310 311/311/311 312/312/312
v -0.0340000 0.0000000 0.2200000
vn -0.9659181 -0.2588170 0.0039877
v -0.0294449 -0.0170000 0.2200000
vn -0.9659181 -0.2588170 0.0039877
v -0.0216506 -0.0125000 2.4000001
vn -0.9659181 -0.2588170 0.0039877
f 313/313/313 314/314/314 315/315/315
v -0.0340000 0.0000000 0.2200000
vn -0.9659181 -0.2588170 0.0039877
v -0.0216506 -0.0125000 2.4000001
vn -0.9659181 -0.2588170 0.0039877
v -0.0250000 0.0000000 2.4000001
vn -0.9659181 -0.2588170 0.0039877
f 316/316/316 317/317/317 318/318/318
v -0.0294449 -0.0170000 0.2200000
vn -0.7071012 -0.7071012 0.0039877
v -0.0170000 -0.0294449 0.2200000
vn -0.7071012 -0.7071012 0.0039877
v -0.0125000 -0.0216506 2.4000001
vn -0.7071012 -0.7071012 0.0039877
f 319/319/319 320/320/320 321/321/321
v -0.0294449 -0.0170000 0.2200000
vn -0.7071012 -0.7071012 0.0039877
v -0.0125000 -0.0216506 2.4000001
vn -0.7071012 -0.7071012 0.0039877
v -0.0216506 -0.0125000 2.4000001
vn -0.7071012 -0.7071012 0.0039877
f 322/322/322 323/323/323 324/324/324
v -0.0170000 -0.0294449 0.2200000
vn -0.2588170 -0.9659181 0.0039877
v -0.0000000 -0.0340000 0.2200000
vn -0.2588170 -0.9659181 0.0039877
v -0.0000000 -0.0250000 2.4000001
vn -0.2588170 -0.9659181 0.0039877
f 325/325/325 326/326/326 327/327/327
v -0.0170000 -0.0294449 0.2200000
vn -0.2588170 -0.9659181 0.0039877
v -0.0000000 -0.0250000 2.4000001
vn -0.2588170 -0.9659181 0.0039877
v -0.0125000 -0.0216506 2.4000001
vn -0.2588170 -0.9659181 0.0039877
f 328/328/328 329/329/329 330/330/330
v -0.0000000 -0.0340000 0.2200000
vn 0.2588170 -0.9659181 0.0039877
v 0.0170000 -0.0294449 0.2200000
vn 0.2588170 -0.9659181 0.0039877
v 0.0125000 -0.0216506 2.4000001
vn 0.2588170 -0.9659181 0.0039877
f 331/331/331 332/332/332 333/333/333
v -0.0000000 -0.0340000 0.2200000
vn 0.2588170 -0.9659181 0.0039877
v 0.0125000 -0.0216506 2.4000001
vn 0.2588170 -0.9659181 0.0039877
v -0.0000000 -0.0250000 2.4000001
vn 0.2588170 -0.9659181 0.0039877
f 334/334/334 335/335/335 336/336/336
v 0.0170000 -0.0294449 0.2200000
vn 0.7071012 -0.7071012 0.0039877
v 0.0294449 -0.0170000 0.2200000
vn 0.7071012 -0.7071012 0.0039877
v 0.0216506 -0.0125000 2.4000001
vn 0.7071012 -0.7071012 0.0039877
f 337/337/337 338/338/338 339/339/339
v 0.0170000 -0.0294449 0.2200000
vn 0.7071012 -0.7071012 0.0039877
v 0.0216506 -0.0125000 2.4000001
vn 0.7071012 -0.7071012 0.0039877
v 0.0125000 -0.0216506 2.4000001
vn 0.7071012 -0.7071012 0.0039877
f 340/340/340 341/341/341 342/342/342
v 0.0294449 -0.0170000 0.2200000
vn 0.9659181 -0.2588170 0.0039877
v 0.0340000 0.0000000 0.2200000
vn 0.9659181 -0.2588170 0.0039877
v 0.0250000 0.0000000 2.4000001
vn 0.9659181 -0.2588170 0.0039877
f 343/343/343 344/344/344 345/345/345
v 0.0294449 -0.0170000 0.2200000
vn 0.9659181 -0.2588170 0.0039877
v 0.0250000 0.0000000 2.4000001
vn 0.9659181 -0.2588170 0.0039877
v 0.0216506 -0.0125000 2.4000001
vn 0.9659181 -0.2588170 0.0039877
f 346/346/346 347/347/347 348/348/348
o pz_street_pole_00_|_rounded_native_lamp_head
usemtl UV_Base
v 0.0390000 0.0000000 2.4000001
vn 0.0000000 0.0000000 -0.9999999
v 0.0337750 -0.0195000 2.4000001
vn 0.0000000 0.0000000 -0.9999999
v 0.0195000 -0.0337750 2.4000001
vn 0.0000000 0.0000000 -0.9999999
f 349/349/349 350/350/350 351/351/351
v 0.0195000 -0.0337750 2.4000001
vn 0.0000000 0.0000000 -1.0000000
v -0.0000000 -0.0390000 2.4000001
vn 0.0000000 0.0000000 -1.0000000
v -0.0195000 -0.0337750 2.4000001
vn 0.0000000 0.0000000 -1.0000000
f 352/352/352 353/353/353 354/354/354
v -0.0195000 -0.0337750 2.4000001
vn 0.0000000 0.0000000 -0.9999999
v -0.0337750 -0.0195000 2.4000001
vn 0.0000000 0.0000000 -0.9999999
v -0.0390000 0.0000000 2.4000001
vn 0.0000000 0.0000000 -0.9999999
f 355/355/355 356/356/356 357/357/357
v -0.0390000 0.0000000 2.4000001
vn 0.0000000 0.0000000 -0.9999999
v -0.0337750 0.0195000 2.4000001
vn 0.0000000 0.0000000 -0.9999999
v -0.0195000 0.0337750 2.4000001
vn 0.0000000 0.0000000 -0.9999999
f 358/358/358 359/359/359 360/360/360
v -0.0195000 0.0337750 2.4000001
vn -0.0000000 0.0000000 -1.0000000
v 0.0000000 0.0390000 2.4000001
vn -0.0000000 0.0000000 -1.0000000
v 0.0195000 0.0337750 2.4000001
vn -0.0000000 0.0000000 -1.0000000
f 361/361/361 362/362/362 363/363/363
v 0.0195000 0.0337750 2.4000001
vn 0.0000000 0.0000000 -0.9999999
v 0.0337750 0.0195000 2.4000001
vn 0.0000000 0.0000000 -0.9999999
v 0.0390000 0.0000000 2.4000001
vn 0.0000000 0.0000000 -0.9999999
f 364/364/364 365/365/365 366/366/366
v 0.0390000 0.0000000 2.4000001
vn 0.0000000 0.0000000 -1.0000000
v 0.0195000 -0.0337750 2.4000001
vn 0.0000000 0.0000000 -1.0000000
v -0.0195000 -0.0337750 2.4000001
vn 0.0000000 0.0000000 -1.0000000
f 367/367/367 368/368/368 369/369/369
v -0.0195000 -0.0337750 2.4000001
vn 0.0000000 -0.0000000 -1.0000000
v -0.0390000 0.0000000 2.4000001
vn 0.0000000 -0.0000000 -1.0000000
v -0.0195000 0.0337750 2.4000001
vn 0.0000000 -0.0000000 -1.0000000
f 370/370/370 371/371/371 372/372/372
v -0.0195000 0.0337750 2.4000001
vn 0.0000000 0.0000000 -1.0000000
v 0.0195000 0.0337750 2.4000001
vn 0.0000000 0.0000000 -1.0000000
v 0.0390000 0.0000000 2.4000001
vn 0.0000000 0.0000000 -1.0000000
f 373/373/373 374/374/374 375/375/375
v -0.0195000 -0.0337750 2.4000001
vn -0.0000000 -0.0000000 -1.0000000
v -0.0195000 0.0337750 2.4000001
vn -0.0000000 -0.0000000 -1.0000000
v 0.0390000 0.0000000 2.4000001
vn -0.0000000 -0.0000000 -1.0000000
f 376/376/376 377/377/377 378/378/378
v 0.0796743 -0.0460000 2.5400000
vn 0.0000000 0.0000000 1.0000000
v 0.0920000 0.0000000 2.5400000
vn 0.0000000 0.0000000 1.0000000
v 0.0796743 0.0460000 2.5400000
vn 0.0000000 0.0000000 1.0000000
f 379/379/379 380/380/380 381/381/381
v 0.0796743 0.0460000 2.5400000
vn 0.0000000 0.0000000 0.9999999
v 0.0460000 0.0796743 2.5400000
vn 0.0000000 0.0000000 0.9999999
v 0.0000000 0.0920000 2.5400000
vn 0.0000000 0.0000000 0.9999999
f 382/382/382 383/383/383 384/384/384
v 0.0000000 0.0920000 2.5400000
vn 0.0000000 0.0000000 0.9999999
v -0.0460000 0.0796743 2.5400000
vn 0.0000000 0.0000000 0.9999999
v -0.0796743 0.0460000 2.5400000
vn 0.0000000 0.0000000 0.9999999
f 385/385/385 386/386/386 387/387/387
v -0.0796743 0.0460000 2.5400000
vn 0.0000000 -0.0000000 1.0000000
v -0.0920000 0.0000000 2.5400000
vn 0.0000000 -0.0000000 1.0000000
v -0.0796743 -0.0460000 2.5400000
vn 0.0000000 -0.0000000 1.0000000
f 388/388/388 389/389/389 390/390/390
v -0.0796743 -0.0460000 2.5400000
vn 0.0000000 0.0000000 0.9999999
v -0.0460000 -0.0796743 2.5400000
vn 0.0000000 0.0000000 0.9999999
v -0.0000000 -0.0920000 2.5400000
vn 0.0000000 0.0000000 0.9999999
f 391/391/391 392/392/392 393/393/393
v -0.0000000 -0.0920000 2.5400000
vn 0.0000000 0.0000000 0.9999999
v 0.0460000 -0.0796743 2.5400000
vn 0.0000000 0.0000000 0.9999999
v 0.0796743 -0.0460000 2.5400000
vn 0.0000000 0.0000000 0.9999999
f 394/394/394 395/395/395 396/396/396
v 0.0796743 -0.0460000 2.5400000
vn 0.0000000 0.0000000 1.0000000
v 0.0796743 0.0460000 2.5400000
vn 0.0000000 0.0000000 1.0000000
v 0.0000000 0.0920000 2.5400000
vn 0.0000000 0.0000000 1.0000000
f 397/397/397 398/398/398 399/399/399
v 0.0000000 0.0920000 2.5400000
vn 0.0000000 0.0000000 1.0000000
v -0.0796743 0.0460000 2.5400000
vn 0.0000000 0.0000000 1.0000000
v -0.0796743 -0.0460000 2.5400000
vn 0.0000000 0.0000000 1.0000000
f 400/400/400 401/401/401 402/402/402
v -0.0796743 -0.0460000 2.5400000
vn 0.0000000 0.0000000 1.0000000
v -0.0000000 -0.0920000 2.5400000
vn 0.0000000 0.0000000 1.0000000
v 0.0796743 -0.0460000 2.5400000
vn 0.0000000 0.0000000 1.0000000
f 403/403/403 404/404/404 405/405/405
v 0.0000000 0.0920000 2.5400000
vn 0.0000000 -0.0000000 1.0000000
v -0.0796743 -0.0460000 2.5400000
vn 0.0000000 -0.0000000 1.0000000
v 0.0796743 -0.0460000 2.5400000
vn 0.0000000 -0.0000000 1.0000000
f 406/406/406 407/407/407 408/408/408
v 0.0390000 0.0000000 2.4000001
vn 0.6360173 0.1704203 -0.7526213
v 0.0337750 0.0195000 2.4000001
vn 0.6360173 0.1704203 -0.7526213
v 0.0952628 0.0550000 2.4600000
vn 0.6360173 0.1704203 -0.7526213
f 409/409/409 410/410/410 411/411/411
v 0.0390000 0.0000000 2.4000001
vn 0.6360174 0.1704203 -0.7526213
v 0.0952628 0.0550000 2.4600000
vn 0.6360174 0.1704203 -0.7526213
v 0.1100000 0.0000000 2.4600000
vn 0.6360174 0.1704203 -0.7526213
f 412/412/412 413/413/413 414/414/414
v 0.0337750 0.0195000 2.4000001
vn 0.4655971 0.4655971 -0.7526213
v 0.0195000 0.0337750 2.4000001
vn 0.4655971 0.4655971 -0.7526213
v 0.0550000 0.0952628 2.4600000
vn 0.4655971 0.4655971 -0.7526213
f 415/415/415 416/416/416 417/417/417
v 0.0337750 0.0195000 2.4000001
vn 0.4655970 0.4655970 -0.7526213
v 0.0550000 0.0952628 2.4600000
vn 0.4655970 0.4655970 -0.7526213
v 0.0952628 0.0550000 2.4600000
vn 0.4655970 0.4655970 -0.7526213
f 418/418/418 419/419/419 420/420/420
v 0.0195000 0.0337750 2.4000001
vn 0.1704204 0.6360174 -0.7526212
v 0.0000000 0.0390000 2.4000001
vn 0.1704204 0.6360174 -0.7526212
v 0.0000000 0.1100000 2.4600000
vn 0.1704204 0.6360174 -0.7526212
f 421/421/421 422/422/422 423/423/423
v 0.0195000 0.0337750 2.4000001
vn 0.1704203 0.6360173 -0.7526213
v 0.0000000 0.1100000 2.4600000
vn 0.1704203 0.6360173 -0.7526213
v 0.0550000 0.0952628 2.4600000
vn 0.1704203 0.6360173 -0.7526213
f 424/424/424 425/425/425 426/426/426
v 0.0000000 0.0390000 2.4000001
vn -0.1704203 0.6360173 -0.7526213
v -0.0195000 0.0337750 2.4000001
vn -0.1704203 0.6360173 -0.7526213
v -0.0550000 0.0952628 2.4600000
vn -0.1704203 0.6360173 -0.7526213
f 427/427/427 428/428/428 429/429/429
v 0.0000000 0.0390000 2.4000001
vn -0.1704203 0.6360174 -0.7526213
v -0.0550000 0.0952628 2.4600000
vn -0.1704203 0.6360174 -0.7526213
v 0.0000000 0.1100000 2.4600000
vn -0.1704203 0.6360174 -0.7526213
f 430/430/430 431/431/431 432/432/432
v -0.0195000 0.0337750 2.4000001
vn -0.4655971 0.4655971 -0.7526213
v -0.0337750 0.0195000 2.4000001
vn -0.4655971 0.4655971 -0.7526213
v -0.0952628 0.0550000 2.4600000
vn -0.4655971 0.4655971 -0.7526213
f 433/433/433 434/434/434 435/435/435
v -0.0195000 0.0337750 2.4000001
vn -0.4655970 0.4655970 -0.7526213
v -0.0952628 0.0550000 2.4600000
vn -0.4655970 0.4655970 -0.7526213
v -0.0550000 0.0952628 2.4600000
vn -0.4655970 0.4655970 -0.7526213
f 436/436/436 437/437/437 438/438/438
v -0.0337750 0.0195000 2.4000001
vn -0.6360174 0.1704204 -0.7526212
v -0.0390000 0.0000000 2.4000001
vn -0.6360174 0.1704204 -0.7526212
v -0.1100000 0.0000000 2.4600000
vn -0.6360174 0.1704204 -0.7526212
f 439/439/439 440/440/440 441/441/441
v -0.0337750 0.0195000 2.4000001
vn -0.6360173 0.1704203 -0.7526213
v -0.1100000 0.0000000 2.4600000
vn -0.6360173 0.1704203 -0.7526213
v -0.0952628 0.0550000 2.4600000
vn -0.6360173 0.1704203 -0.7526213
f 442/442/442 443/443/443 444/444/444
v -0.0390000 0.0000000 2.4000001
vn -0.6360173 -0.1704203 -0.7526213
v -0.0337750 -0.0195000 2.4000001
vn -0.6360173 -0.1704203 -0.7526213
v -0.0952628 -0.0550000 2.4600000
vn -0.6360173 -0.1704203 -0.7526213
f 445/445/445 446/446/446 447/447/447
v -0.0390000 0.0000000 2.4000001
vn -0.6360174 -0.1704203 -0.7526213
v -0.0952628 -0.0550000 2.4600000
vn -0.6360174 -0.1704203 -0.7526213
v -0.1100000 0.0000000 2.4600000
vn -0.6360174 -0.1704203 -0.7526213
f 448/448/448 449/449/449 450/450/450
v -0.0337750 -0.0195000 2.4000001
vn -0.4655971 -0.4655971 -0.7526213
v -0.0195000 -0.0337750 2.4000001
vn -0.4655971 -0.4655971 -0.7526213
v -0.0550000 -0.0952628 2.4600000
vn -0.4655971 -0.4655971 -0.7526213
f 451/451/451 452/452/452 453/453/453
v -0.0337750 -0.0195000 2.4000001
vn -0.4655970 -0.4655970 -0.7526213
v -0.0550000 -0.0952628 2.4600000
vn -0.4655970 -0.4655970 -0.7526213
v -0.0952628 -0.0550000 2.4600000
vn -0.4655970 -0.4655970 -0.7526213
f 454/454/454 455/455/455 456/456/456
v -0.0195000 -0.0337750 2.4000001
vn -0.1704204 -0.6360174 -0.7526212
v -0.0000000 -0.0390000 2.4000001
vn -0.1704204 -0.6360174 -0.7526212
v -0.0000000 -0.1100000 2.4600000
vn -0.1704204 -0.6360174 -0.7526212
f 457/457/457 458/458/458 459/459/459
v -0.0195000 -0.0337750 2.4000001
vn -0.1704203 -0.6360173 -0.7526213
v -0.0000000 -0.1100000 2.4600000
vn -0.1704203 -0.6360173 -0.7526213
v -0.0550000 -0.0952628 2.4600000
vn -0.1704203 -0.6360173 -0.7526213
f 460/460/460 461/461/461 462/462/462
v -0.0000000 -0.0390000 2.4000001
vn 0.1704203 -0.6360173 -0.7526213
v 0.0195000 -0.0337750 2.4000001
vn 0.1704203 -0.6360173 -0.7526213
v 0.0550000 -0.0952628 2.4600000
vn 0.1704203 -0.6360173 -0.7526213
f 463/463/463 464/464/464 465/465/465
v -0.0000000 -0.0390000 2.4000001
vn 0.1704203 -0.6360174 -0.7526213
v 0.0550000 -0.0952628 2.4600000
vn 0.1704203 -0.6360174 -0.7526213
v -0.0000000 -0.1100000 2.4600000
vn 0.1704203 -0.6360174 -0.7526213
f 466/466/466 467/467/467 468/468/468
v 0.0195000 -0.0337750 2.4000001
vn 0.4655971 -0.4655971 -0.7526213
v 0.0337750 -0.0195000 2.4000001
vn 0.4655971 -0.4655971 -0.7526213
v 0.0952628 -0.0550000 2.4600000
vn 0.4655971 -0.4655971 -0.7526213
f 469/469/469 470/470/470 471/471/471
v 0.0195000 -0.0337750 2.4000001
vn 0.4655970 -0.4655970 -0.7526213
v 0.0952628 -0.0550000 2.4600000
vn 0.4655970 -0.4655970 -0.7526213
v 0.0550000 -0.0952628 2.4600000
vn 0.4655970 -0.4655970 -0.7526213
f 472/472/472 473/473/473 474/474/474
v 0.0337750 -0.0195000 2.4000001
vn 0.6360174 -0.1704204 -0.7526212
v 0.0390000 0.0000000 2.4000001
vn 0.6360174 -0.1704204 -0.7526212
v 0.1100000 0.0000000 2.4600000
vn 0.6360174 -0.1704204 -0.7526212
f 475/475/475 476/476/476 477/477/477
v 0.0337750 -0.0195000 2.4000001
vn 0.6360173 -0.1704203 -0.7526213
v 0.1100000 0.0000000 2.4600000
vn 0.6360173 -0.1704203 -0.7526213
v 0.0952628 -0.0550000 2.4600000
vn 0.6360173 -0.1704203 -0.7526213
f 478/478/478 479/479/479 480/480/480
v 0.1100000 0.0000000 2.4600000
vn 0.9628116 0.2579845 -0.0802344
v 0.0952628 0.0550000 2.4600000
vn 0.9628116 0.2579845 -0.0802344
v 0.0995929 0.0575000 2.5200000
vn 0.9628116 0.2579845 -0.0802344
f 481/481/481 482/482/482 483/483/483
v 0.1100000 0.0000000 2.4600000
vn 0.9628116 0.2579846 -0.0802344
v 0.0995929 0.0575000 2.5200000
vn 0.9628116 0.2579846 -0.0802344
v 0.1150000 0.0000000 2.5200000
vn 0.9628116 0.2579846 -0.0802344
f 484/484/484 485/485/485 486/486/486
v 0.0952628 0.0550000 2.4600000
vn 0.7048271 0.7048271 -0.0802344
v 0.0550000 0.0952628 2.4600000
vn 0.7048271 0.7048271 -0.0802344
v 0.0575000 0.0995929 2.5200000
vn 0.7048271 0.7048271 -0.0802344
f 487/487/487 488/488/488 489/489/489
v 0.0952628 0.0550000 2.4600000
vn 0.7048271 0.7048271 -0.0802344
v 0.0575000 0.0995929 2.5200000
vn 0.7048271 0.7048271 -0.0802344
v 0.0995929 0.0575000 2.5200000
vn 0.7048271 0.7048271 -0.0802344
f 490/490/490 491/491/491 492/492/492
v 0.0550000 0.0952628 2.4600000
vn 0.2579845 0.9628116 -0.0802344
v 0.0000000 0.1100000 2.4600000
vn 0.2579845 0.9628116 -0.0802344
v 0.0000000 0.1150000 2.5200000
vn 0.2579845 0.9628116 -0.0802344
f 493/493/493 494/494/494 495/495/495
v 0.0550000 0.0952628 2.4600000
vn 0.2579846 0.9628116 -0.0802344
v 0.0000000 0.1150000 2.5200000
vn 0.2579846 0.9628116 -0.0802344
v 0.0575000 0.0995929 2.5200000
vn 0.2579846 0.9628116 -0.0802344
f 496/496/496 497/497/497 498/498/498
v 0.0000000 0.1100000 2.4600000
vn -0.2579845 0.9628116 -0.0802344
v -0.0550000 0.0952628 2.4600000
vn -0.2579845 0.9628116 -0.0802344
v -0.0575000 0.0995929 2.5200000
vn -0.2579845 0.9628116 -0.0802344
f 499/499/499 500/500/500 501/501/501
v 0.0000000 0.1100000 2.4600000
vn -0.2579846 0.9628116 -0.0802344
v -0.0575000 0.0995929 2.5200000
vn -0.2579846 0.9628116 -0.0802344
v 0.0000000 0.1150000 2.5200000
vn -0.2579846 0.9628116 -0.0802344
f 502/502/502 503/503/503 504/504/504
v -0.0550000 0.0952628 2.4600000
vn -0.7048271 0.7048271 -0.0802344
v -0.0952628 0.0550000 2.4600000
vn -0.7048271 0.7048271 -0.0802344
v -0.0995929 0.0575000 2.5200000
vn -0.7048271 0.7048271 -0.0802344
f 505/505/505 506/506/506 507/507/507
v -0.0550000 0.0952628 2.4600000
vn -0.7048271 0.7048271 -0.0802344
v -0.0995929 0.0575000 2.5200000
vn -0.7048271 0.7048271 -0.0802344
v -0.0575000 0.0995929 2.5200000
vn -0.7048271 0.7048271 -0.0802344
f 508/508/508 509/509/509 510/510/510
v -0.0952628 0.0550000 2.4600000
vn -0.9628116 0.2579845 -0.0802344
v -0.1100000 0.0000000 2.4600000
vn -0.9628116 0.2579845 -0.0802344
v -0.1150000 0.0000000 2.5200000
vn -0.9628116 0.2579845 -0.0802344
f 511/511/511 512/512/512 513/513/513
v -0.0952628 0.0550000 2.4600000
vn -0.9628116 0.2579846 -0.0802344
v -0.1150000 0.0000000 2.5200000
vn -0.9628116 0.2579846 -0.0802344
v -0.0995929 0.0575000 2.5200000
vn -0.9628116 0.2579846 -0.0802344
f 514/514/514 515/515/515 516/516/516
v -0.1100000 0.0000000 2.4600000
vn -0.9628116 -0.2579845 -0.0802344
v -0.0952628 -0.0550000 2.4600000
vn -0.9628116 -0.2579845 -0.0802344
v -0.0995929 -0.0575000 2.5200000
vn -0.9628116 -0.2579845 -0.0802344
f 517/517/517 518/518/518 519/519/519
v -0.1100000 0.0000000 2.4600000
vn -0.9628116 -0.2579846 -0.0802344
v -0.0995929 -0.0575000 2.5200000
vn -0.9628116 -0.2579846 -0.0802344
v -0.1150000 0.0000000 2.5200000
vn -0.9628116 -0.2579846 -0.0802344
f 520/520/520 521/521/521 522/522/522
v -0.0952628 -0.0550000 2.4600000
vn -0.7048271 -0.7048271 -0.0802344
v -0.0550000 -0.0952628 2.4600000
vn -0.7048271 -0.7048271 -0.0802344
v -0.0575000 -0.0995929 2.5200000
vn -0.7048271 -0.7048271 -0.0802344
f 523/523/523 524/524/524 525/525/525
v -0.0952628 -0.0550000 2.4600000
vn -0.7048271 -0.7048271 -0.0802344
v -0.0575000 -0.0995929 2.5200000
vn -0.7048271 -0.7048271 -0.0802344
v -0.0995929 -0.0575000 2.5200000
vn -0.7048271 -0.7048271 -0.0802344
f 526/526/526 527/527/527 528/528/528
v -0.0550000 -0.0952628 2.4600000
vn -0.2579845 -0.9628116 -0.0802344
v -0.0000000 -0.1100000 2.4600000
vn -0.2579845 -0.9628116 -0.0802344
v -0.0000000 -0.1150000 2.5200000
vn -0.2579845 -0.9628116 -0.0802344
f 529/529/529 530/530/530 531/531/531
v -0.0550000 -0.0952628 2.4600000
vn -0.2579846 -0.9628116 -0.0802344
v -0.0000000 -0.1150000 2.5200000
vn -0.2579846 -0.9628116 -0.0802344
v -0.0575000 -0.0995929 2.5200000
vn -0.2579846 -0.9628116 -0.0802344
f 532/532/532 533/533/533 534/534/534
v -0.0000000 -0.1100000 2.4600000
vn 0.2579845 -0.9628116 -0.0802344
v 0.0550000 -0.0952628 2.4600000
vn 0.2579845 -0.9628116 -0.0802344
v 0.0575000 -0.0995929 2.5200000
vn 0.2579845 -0.9628116 -0.0802344
f 535/535/535 536/536/536 537/537/537
v -0.0000000 -0.1100000 2.4600000
vn 0.2579846 -0.9628116 -0.0802344
v 0.0575000 -0.0995929 2.5200000
vn 0.2579846 -0.9628116 -0.0802344
v -0.0000000 -0.1150000 2.5200000
vn 0.2579846 -0.9628116 -0.0802344
f 538/538/538 539/539/539 540/540/540
v 0.0550000 -0.0952628 2.4600000
vn 0.7048271 -0.7048271 -0.0802344
v 0.0952628 -0.0550000 2.4600000
vn 0.7048271 -0.7048271 -0.0802344
v 0.0995929 -0.0575000 2.5200000
vn 0.7048271 -0.7048271 -0.0802344
f 541/541/541 542/542/542 543/543/543
v 0.0550000 -0.0952628 2.4600000
vn 0.7048271 -0.7048271 -0.0802344
v 0.0995929 -0.0575000 2.5200000
vn 0.7048271 -0.7048271 -0.0802344
v 0.0575000 -0.0995929 2.5200000
vn 0.7048271 -0.7048271 -0.0802344
f 544/544/544 545/545/545 546/546/546
v 0.0952628 -0.0550000 2.4600000
vn 0.9628116 -0.2579845 -0.0802344
v 0.1100000 0.0000000 2.4600000
vn 0.9628116 -0.2579845 -0.0802344
v 0.1150000 0.0000000 2.5200000
vn 0.9628116 -0.2579845 -0.0802344
f 547/547/547 548/548/548 549/549/549
v 0.0952628 -0.0550000 2.4600000
vn 0.9628116 -0.2579846 -0.0802344
v 0.1150000 0.0000000 2.5200000
vn 0.9628116 -0.2579846 -0.0802344
v 0.0995929 -0.0575000 2.5200000
vn 0.9628116 -0.2579846 -0.0802344
f 550/550/550 551/551/551 552/552/552
v 0.1150000 0.0000000 2.5200000
vn 0.6462653 0.1731662 0.7432057
v 0.0995929 0.0575000 2.5200000
vn 0.6462653 0.1731662 0.7432057
v 0.0796743 0.0460000 2.5400000
vn 0.6462653 0.1731662 0.7432057
f 553/553/553 554/554/554 555/555/555
v 0.1150000 0.0000000 2.5200000
vn 0.6462652 0.1731662 0.7432058
v 0.0796743 0.0460000 2.5400000
vn 0.6462652 0.1731662 0.7432058
v 0.0920000 0.0000000 2.5400000
vn 0.6462652 0.1731662 0.7432058
f 556/556/556 557/557/557 558/558/558
v 0.0995929 0.0575000 2.5200000
vn 0.4730990 0.4730990 0.7432057
v 0.0575000 0.0995929 2.5200000
vn 0.4730990 0.4730990 0.7432057
v 0.0460000 0.0796743 2.5400000
vn 0.4730990 0.4730990 0.7432057
f 559/559/559 560/560/560 561/561/561
v 0.0995929 0.0575000 2.5200000
vn 0.4730989 0.4730989 0.7432057
v 0.0460000 0.0796743 2.5400000
vn 0.4730989 0.4730989 0.7432057
v 0.0796743 0.0460000 2.5400000
vn 0.4730989 0.4730989 0.7432057
f 562/562/562 563/563/563 564/564/564
v 0.0575000 0.0995929 2.5200000
vn 0.1731662 0.6462651 0.7432057
v 0.0000000 0.1150000 2.5200000
vn 0.1731662 0.6462651 0.7432057
v 0.0000000 0.0920000 2.5400000
vn 0.1731662 0.6462651 0.7432057
f 565/565/565 566/566/566 567/567/567
v 0.0575000 0.0995929 2.5200000
vn 0.1731662 0.6462653 0.7432057
v 0.0000000 0.0920000 2.5400000
vn 0.1731662 0.6462653 0.7432057
v 0.0460000 0.0796743 2.5400000
vn 0.1731662 0.6462653 0.7432057
f 568/568/568 569/569/569 570/570/570
v 0.0000000 0.1150000 2.5200000
vn -0.1731662 0.6462653 0.7432057
v -0.0575000 0.0995929 2.5200000
vn -0.1731662 0.6462653 0.7432057
v -0.0460000 0.0796743 2.5400000
vn -0.1731662 0.6462653 0.7432057
f 571/571/571 572/572/572 573/573/573
v 0.0000000 0.1150000 2.5200000
vn -0.1731662 0.6462652 0.7432058
v -0.0460000 0.0796743 2.5400000
vn -0.1731662 0.6462652 0.7432058
v 0.0000000 0.0920000 2.5400000
vn -0.1731662 0.6462652 0.7432058
f 574/574/574 575/575/575 576/576/576
v -0.0575000 0.0995929 2.5200000
vn -0.4730990 0.4730990 0.7432057
v -0.0995929 0.0575000 2.5200000
vn -0.4730990 0.4730990 0.7432057
v -0.0796743 0.0460000 2.5400000
vn -0.4730990 0.4730990 0.7432057
f 577/577/577 578/578/578 579/579/579
v -0.0575000 0.0995929 2.5200000
vn -0.4730989 0.4730989 0.7432057
v -0.0796743 0.0460000 2.5400000
vn -0.4730989 0.4730989 0.7432057
v -0.0460000 0.0796743 2.5400000
vn -0.4730989 0.4730989 0.7432057
f 580/580/580 581/581/581 582/582/582
v -0.0995929 0.0575000 2.5200000
vn -0.6462651 0.1731662 0.7432057
v -0.1150000 0.0000000 2.5200000
vn -0.6462651 0.1731662 0.7432057
v -0.0920000 0.0000000 2.5400000
vn -0.6462651 0.1731662 0.7432057
f 583/583/583 584/584/584 585/585/585
v -0.0995929 0.0575000 2.5200000
vn -0.6462653 0.1731662 0.7432057
v -0.0920000 0.0000000 2.5400000
vn -0.6462653 0.1731662 0.7432057
v -0.0796743 0.0460000 2.5400000
vn -0.6462653 0.1731662 0.7432057
f 586/586/586 587/587/587 588/588/588
v -0.1150000 0.0000000 2.5200000
vn -0.6462653 -0.1731662 0.7432057
v -0.0995929 -0.0575000 2.5200000
vn -0.6462653 -0.1731662 0.7432057
v -0.0796743 -0.0460000 2.5400000
vn -0.6462653 -0.1731662 0.7432057
f 589/589/589 590/590/590 591/591/591
v -0.1150000 0.0000000 2.5200000
vn -0.6462652 -0.1731662 0.7432058
v -0.0796743 -0.0460000 2.5400000
vn -0.6462652 -0.1731662 0.7432058
v -0.0920000 0.0000000 2.5400000
vn -0.6462652 -0.1731662 0.7432058
f 592/592/592 593/593/593 594/594/594
v -0.0995929 -0.0575000 2.5200000
vn -0.4730990 -0.4730990 0.7432057
v -0.0575000 -0.0995929 2.5200000
vn -0.4730990 -0.4730990 0.7432057
v -0.0460000 -0.0796743 2.5400000
vn -0.4730990 -0.4730990 0.7432057
f 595/595/595 596/596/596 597/597/597
v -0.0995929 -0.0575000 2.5200000
vn -0.4730989 -0.4730989 0.7432057
v -0.0460000 -0.0796743 2.5400000
vn -0.4730989 -0.4730989 0.7432057
v -0.0796743 -0.0460000 2.5400000
vn -0.4730989 -0.4730989 0.7432057
f 598/598/598 599/599/599 600/600/600
v -0.0575000 -0.0995929 2.5200000
vn -0.1731662 -0.6462651 0.7432057
v -0.0000000 -0.1150000 2.5200000
vn -0.1731662 -0.6462651 0.7432057
v -0.0000000 -0.0920000 2.5400000
vn -0.1731662 -0.6462651 0.7432057
f 601/601/601 602/602/602 603/603/603
v -0.0575000 -0.0995929 2.5200000
vn -0.1731662 -0.6462653 0.7432057
v -0.0000000 -0.0920000 2.5400000
vn -0.1731662 -0.6462653 0.7432057
v -0.0460000 -0.0796743 2.5400000
vn -0.1731662 -0.6462653 0.7432057
f 604/604/604 605/605/605 606/606/606
v -0.0000000 -0.1150000 2.5200000
vn 0.1731662 -0.6462653 0.7432057
v 0.0575000 -0.0995929 2.5200000
vn 0.1731662 -0.6462653 0.7432057
v 0.0460000 -0.0796743 2.5400000
vn 0.1731662 -0.6462653 0.7432057
f 607/607/607 608/608/608 609/609/609
v -0.0000000 -0.1150000 2.5200000
vn 0.1731662 -0.6462652 0.7432058
v 0.0460000 -0.0796743 2.5400000
vn 0.1731662 -0.6462652 0.7432058
v -0.0000000 -0.0920000 2.5400000
vn 0.1731662 -0.6462652 0.7432058
f 610/610/610 611/611/611 612/612/612
v 0.0575000 -0.0995929 2.5200000
vn 0.4730990 -0.4730990 0.7432057
v 0.0995929 -0.0575000 2.5200000
vn 0.4730990 -0.4730990 0.7432057
v 0.0796743 -0.0460000 2.5400000
vn 0.4730990 -0.4730990 0.7432057
f 613/613/613 614/614/614 615/615/615
v 0.0575000 -0.0995929 2.5200000
vn 0.4730989 -0.4730989 0.7432057
v 0.0796743 -0.0460000 2.5400000
vn 0.4730989 -0.4730989 0.7432057
v 0.0460000 -0.0796743 2.5400000
vn 0.4730989 -0.4730989 0.7432057
f 616/616/616 617/617/617 618/618/618
v 0.0995929 -0.0575000 2.5200000
vn 0.6462651 -0.1731662 0.7432057
v 0.1150000 0.0000000 2.5200000
vn 0.6462651 -0.1731662 0.7432057
v 0.0920000 0.0000000 2.5400000
vn 0.6462651 -0.1731662 0.7432057
f 619/619/619 620/620/620 621/621/621
v 0.0995929 -0.0575000 2.5200000
vn 0.6462653 -0.1731662 0.7432057
v 0.0920000 0.0000000 2.5400000
vn 0.6462653 -0.1731662 0.7432057
v 0.0796743 -0.0460000 2.5400000
vn 0.6462653 -0.1731662 0.7432057
f 622/622/622 623/623/623 624/624/624
