# Native geometry authored with Blender MCP in an isolated background process.
mtllib ../Materials/pz_street_pole_17.mtl
o pz_street_pole_17_|_tapered_native_street_pole
usemtl UV_Base
v 0.0710000 0.0000000 0.0150000
vn 0.0000000 0.0000000 -1.0000000
v 0.0614878 -0.0355000 0.0150000
vn 0.0000000 0.0000000 -1.0000000
v 0.0355000 -0.0614878 0.0150000
vn 0.0000000 0.0000000 -1.0000000
vt 0.066464862 0.533232431
vt 0.062535897 0.547895521
vt 0.051801771 0.558629647
vt 0.051801771 0.558629647
vt 0.037138681 0.562558612
vt 0.022475590 0.558629647
vt 0.022475590 0.558629647
vt 0.011741465 0.547895521
vt 0.007812500 0.533232431
vt 0.007812500 0.533232431
vt 0.011741465 0.518569340
vt 0.022475590 0.507835215
vt 0.022475590 0.507835215
vt 0.037138681 0.503906250
vt 0.051801771 0.507835215
vt 0.051801771 0.507835215
vt 0.062535897 0.518569340
vt 0.066464862 0.533232431
vt 0.066464862 0.533232431
vt 0.051801771 0.558629647
vt 0.022475590 0.558629647
vt 0.022475590 0.558629647
vt 0.007812500 0.533232431
vt 0.022475590 0.507835215
vt 0.022475590 0.507835215
vt 0.051801771 0.507835215
vt 0.066464862 0.533232431
vt 0.022475590 0.558629647
vt 0.022475590 0.507835215
vt 0.066464862 0.533232431
vt 0.105206288 0.509069310
vt 0.106589740 0.514232370
vt 0.105206288 0.519395430
vt 0.105206288 0.519395430
vt 0.101426680 0.523175038
vt 0.096263620 0.524558490
vt 0.096263620 0.524558490
vt 0.091100560 0.523175038
vt 0.087320952 0.519395430
vt 0.087320952 0.519395430
vt 0.085937500 0.514232370
vt 0.087320952 0.509069310
vt 0.087320952 0.509069310
vt 0.091100560 0.505289702
vt 0.096263620 0.503906250
vt 0.096263620 0.503906250
vt 0.101426680 0.505289702
vt 0.105206288 0.509069310
vt 0.105206288 0.509069310
vt 0.105206288 0.519395430
vt 0.096263620 0.524558490
vt 0.096263620 0.524558490
vt 0.087320952 0.519395430
vt 0.087320952 0.509069310
vt 0.087320952 0.509069310
vt 0.096263620 0.503906250
vt 0.105206288 0.509069310
vt 0.096263620 0.524558490
vt 0.087320952 0.509069310
vt 0.105206288 0.509069310
vt 0.007812500 0.037015624
vt 0.007812500 0.021835275
vt 0.030413299 0.021514566
vt 0.007812500 0.037015624
vt 0.030413299 0.021514566
vt 0.030413300 0.037336335
vt 0.007812500 0.021835275
vt 0.008279447 0.008688710
vt 0.030899977 0.007812500
vt 0.007812500 0.021835275
vt 0.030899977 0.007812500
vt 0.030413299 0.021514566
vt 0.007942894 0.100053741
vt 0.007812500 0.084954947
vt 0.030350082 0.084759860
vt 0.007942894 0.100053741
vt 0.030350082 0.084759860
vt 0.030485985 0.100496630
vt 0.007812500 0.084954947
vt 0.008326008 0.071093293
vt 0.030885287 0.070312500
vt 0.007812500 0.084954947
vt 0.030885287 0.070312500
vt 0.030350082 0.084759860
vt 0.007942894 0.146928738
vt 0.007812500 0.131829947
vt 0.030350082 0.131634853
vt 0.007942894 0.146928738
vt 0.030350082 0.131634853
vt 0.030485985 0.147371636
vt 0.007812500 0.131829947
vt 0.008326008 0.117968291
vt 0.030885287 0.117187500
vt 0.007812500 0.131829947
vt 0.030885287 0.117187500
vt 0.030350082 0.131634853
vt 0.007942894 0.193803747
vt 0.007812500 0.178704952
vt 0.030350081 0.178509869
vt 0.007942894 0.193803747
vt 0.030350081 0.178509869
vt 0.030485985 0.194246637
vt 0.007812500 0.178704952
vt 0.008326008 0.164843300
vt 0.030885287 0.164062500
vt 0.007812500 0.178704952
vt 0.030885287 0.164062500
vt 0.030350081 0.178509869
vt 0.007942894 0.240678741
vt 0.007812500 0.225579947
vt 0.030350082 0.225384860
vt 0.007942894 0.240678741
vt 0.030350082 0.225384860
vt 0.030485985 0.241121630
vt 0.007812500 0.225579947
vt 0.008326008 0.211718293
vt 0.030885287 0.210937500
vt 0.007812500 0.225579947
vt 0.030885287 0.210937500
vt 0.030350082 0.225384860
vt 0.007812500 0.273313565
vt 0.007812500 0.258133219
vt 0.030242593 0.257812500
vt 0.007812500 0.273313565
vt 0.030242593 0.257812500
vt 0.030242593 0.273634283
vt 0.008279447 0.050162191
vt 0.007812500 0.037015624
vt 0.030413300 0.037336335
vt 0.008279447 0.050162191
vt 0.030413300 0.037336335
vt 0.030899977 0.051038394
vt 0.030413300 0.037336335
vt 0.030413299 0.021514566
vt 0.059811653 0.023866447
vt 0.030413300 0.037336335
vt 0.059811653 0.023866447
vt 0.059811653 0.034984450
vt 0.007812500 0.308790533
vt 0.007812500 0.292968750
vt 0.037797785 0.295320647
vt 0.007812500 0.308790533
vt 0.037797785 0.295320647
vt 0.037797785 0.306438636
vt 0.030485985 0.100496630
vt 0.030350082 0.084759860
vt 0.059908123 0.086190500
vt 0.030485985 0.100496630
vt 0.059908123 0.086190500
vt 0.060003623 0.097248773
vt 0.007812501 0.343946769
vt 0.007812500 0.328125000
vt 0.037797785 0.330476881
vt 0.007812501 0.343946769
vt 0.037797785 0.330476881
vt 0.037797784 0.341594885
vt 0.030485985 0.147371636
vt 0.030350082 0.131634853
vt 0.059908123 0.133065504
vt 0.030485985 0.147371636
vt 0.059908123 0.133065504
vt 0.060003623 0.144123763
vt 0.007812500 0.379103019
vt 0.007812501 0.363281250
vt 0.037797784 0.365633134
vt 0.007812500 0.379103019
vt 0.037797784 0.365633134
vt 0.037797785 0.376751138
vt 0.030485985 0.194246637
vt 0.030350081 0.178509869
vt 0.059908123 0.179940504
vt 0.030485985 0.194246637
vt 0.059908123 0.179940504
vt 0.060003622 0.190998778
vt 0.007812500 0.414259283
vt 0.007812500 0.398437500
vt 0.037797785 0.400789397
vt 0.007812500 0.414259283
vt 0.037797785 0.400789397
vt 0.037797785 0.411907386
vt 0.030485985 0.241121630
vt 0.030350082 0.225384860
vt 0.059908123 0.226815500
vt 0.030485985 0.241121630
vt 0.059908123 0.226815500
vt 0.060003623 0.237873773
vt 0.007812501 0.449415519
vt 0.007812500 0.433593750
vt 0.037797785 0.435945631
vt 0.007812501 0.449415519
vt 0.037797785 0.435945631
vt 0.037797784 0.447063635
vt 0.030242593 0.273634283
vt 0.030242593 0.257812500
vt 0.059971889 0.260164397
vt 0.030242593 0.273634283
vt 0.059971889 0.260164397
vt 0.059971889 0.271282386
vt 0.007812500 0.484571769
vt 0.007812501 0.468750000
vt 0.037797784 0.471101884
vt 0.007812500 0.484571769
vt 0.037797784 0.471101884
vt 0.037797785 0.482219888
vt 0.059811653 0.034984450
vt 0.059811653 0.023866447
vt 0.093234450 0.025790723
vt 0.059811653 0.034984450
vt 0.093234450 0.025790723
vt 0.093234451 0.033060181
vt 0.037797785 0.306438636
vt 0.037797785 0.295320647
vt 0.071581569 0.297244900
vt 0.037797785 0.306438636
vt 0.071581569 0.297244900
vt 0.071581569 0.304514383
vt 0.060003623 0.097248773
vt 0.059908123 0.086190500
vt 0.093446983 0.087361024
vt 0.060003623 0.097248773
vt 0.093446983 0.087361024
vt 0.093509424 0.094591430
vt 0.037797784 0.341594885
vt 0.037797785 0.330476881
vt 0.071581569 0.332401157
vt 0.037797784 0.341594885
vt 0.071581569 0.332401157
vt 0.071581571 0.339670616
vt 0.060003623 0.144123763
vt 0.059908123 0.133065504
vt 0.093446981 0.134236013
vt 0.060003623 0.144123763
vt 0.093446981 0.134236013
vt 0.093509424 0.141466442
vt 0.037797785 0.376751138
vt 0.037797784 0.365633134
vt 0.071581571 0.367557403
vt 0.037797785 0.376751138
vt 0.071581571 0.367557403
vt 0.071581568 0.374826862
vt 0.060003622 0.190998778
vt 0.059908123 0.179940504
vt 0.093446981 0.181111037
vt 0.060003622 0.190998778
vt 0.093446981 0.181111037
vt 0.093509424 0.188341440
vt 0.037797785 0.411907386
vt 0.037797785 0.400789397
vt 0.071581569 0.402713650
vt 0.037797785 0.411907386
vt 0.071581569 0.402713650
vt 0.071581569 0.409983133
vt 0.060003623 0.237873773
vt 0.059908123 0.226815500
vt 0.093446983 0.227986024
vt 0.060003623 0.237873773
vt 0.093446983 0.227986024
vt 0.093509424 0.235216430
vt 0.037797784 0.447063635
vt 0.037797785 0.435945631
vt 0.071581569 0.437869907
vt 0.037797784 0.447063635
vt 0.071581569 0.437869907
vt 0.071581571 0.445139366
vt 0.059971889 0.271282386
vt 0.059971889 0.260164397
vt 0.093621239 0.262088650
vt 0.059971889 0.271282386
vt 0.093621239 0.262088650
vt 0.093621239 0.269358133
vt 0.037797785 0.482219888
vt 0.037797784 0.471101884
vt 0.071581571 0.473026153
vt 0.037797785 0.482219888
vt 0.071581571 0.473026153
vt 0.071581568 0.480295612
vt 0.093234451 0.033060181
vt 0.093234450 0.025790723
vt 0.992187500 0.026752850
vt 0.093234451 0.033060181
vt 0.992187500 0.026752850
vt 0.992187499 0.032098047
vt 0.071581569 0.304514383
vt 0.071581569 0.297244900
vt 0.959488733 0.298207055
vt 0.071581569 0.304514383
vt 0.959488733 0.298207055
vt 0.959488733 0.303552228
vt 0.093509424 0.094591430
vt 0.093446983 0.087361024
vt 0.991084052 0.087946285
vt 0.093509424 0.094591430
vt 0.991084052 0.087946285
vt 0.991129966 0.093262764
vt 0.071581571 0.339670616
vt 0.071581569 0.332401157
vt 0.959488731 0.333363284
vt 0.071581571 0.339670616
vt 0.959488731 0.333363284
vt 0.959488729 0.338708481
vt 0.093509424 0.141466442
vt 0.093446981 0.134236013
vt 0.991084054 0.134821293
vt 0.093509424 0.141466442
vt 0.991084054 0.134821293
vt 0.991129967 0.140137750
vt 0.071581568 0.374826862
vt 0.071581571 0.367557403
vt 0.959488731 0.368519538
vt 0.071581568 0.374826862
vt 0.959488731 0.368519538
vt 0.959488734 0.373864735
vt 0.093509424 0.188341440
vt 0.093446981 0.181111037
vt 0.991084053 0.181696288
vt 0.093509424 0.188341440
vt 0.991084053 0.181696288
vt 0.991129966 0.187012770
vt 0.071581569 0.409983133
vt 0.071581569 0.402713650
vt 0.959488733 0.403675805
vt 0.071581569 0.409983133
vt 0.959488733 0.403675805
vt 0.959488733 0.409020978
vt 0.093509424 0.235216430
vt 0.093446983 0.227986024
vt 0.991084052 0.228571285
vt 0.093509424 0.235216430
vt 0.991084052 0.228571285
vt 0.991129966 0.233887764
vt 0.071581571 0.445139366
vt 0.071581569 0.437869907
vt 0.959488731 0.438832034
vt 0.071581571 0.445139366
vt 0.959488731 0.438832034
vt 0.959488729 0.444177231
vt 0.093621239 0.269358133
vt 0.093621239 0.262088650
vt 0.988524055 0.263050805
vt 0.093621239 0.269358133
vt 0.988524055 0.263050805
vt 0.988524055 0.268395978
vt 0.071581568 0.480295612
vt 0.071581571 0.473026153
vt 0.959488731 0.473988288
vt 0.071581568 0.480295612
vt 0.959488731 0.473988288
vt 0.959488734 0.479333485
f 1/1/1 2/2/2 3/3/3
v 0.0355000 -0.0614878 0.0150000
vn 0.0000000 0.0000000 -1.0000000
v -0.0000000 -0.0710000 0.0150000
vn 0.0000000 0.0000000 -1.0000000
v -0.0355000 -0.0614878 0.0150000
vn 0.0000000 0.0000000 -1.0000000
f 4/4/4 5/5/5 6/6/6
v -0.0355000 -0.0614878 0.0150000
vn 0.0000000 0.0000000 -1.0000000
v -0.0614878 -0.0355000 0.0150000
vn 0.0000000 0.0000000 -1.0000000
v -0.0710000 0.0000000 0.0150000
vn 0.0000000 0.0000000 -1.0000000
f 7/7/7 8/8/8 9/9/9
v -0.0710000 0.0000000 0.0150000
vn 0.0000000 0.0000000 -1.0000000
v -0.0614878 0.0355000 0.0150000
vn 0.0000000 0.0000000 -1.0000000
v -0.0355000 0.0614878 0.0150000
vn 0.0000000 0.0000000 -1.0000000
f 10/10/10 11/11/11 12/12/12
v -0.0355000 0.0614878 0.0150000
vn -0.0000000 0.0000000 -1.0000000
v 0.0000000 0.0710000 0.0150000
vn -0.0000000 0.0000000 -1.0000000
v 0.0355000 0.0614878 0.0150000
vn -0.0000000 0.0000000 -1.0000000
f 13/13/13 14/14/14 15/15/15
v 0.0355000 0.0614878 0.0150000
vn 0.0000000 0.0000000 -1.0000000
v 0.0614878 0.0355000 0.0150000
vn 0.0000000 0.0000000 -1.0000000
v 0.0710000 0.0000000 0.0150000
vn 0.0000000 0.0000000 -1.0000000
f 16/16/16 17/17/17 18/18/18
v 0.0710000 0.0000000 0.0150000
vn 0.0000000 0.0000000 -1.0000000
v 0.0355000 -0.0614878 0.0150000
vn 0.0000000 0.0000000 -1.0000000
v -0.0355000 -0.0614878 0.0150000
vn 0.0000000 0.0000000 -1.0000000
f 19/19/19 20/20/20 21/21/21
v -0.0355000 -0.0614878 0.0150000
vn 0.0000000 -0.0000000 -1.0000000
v -0.0710000 0.0000000 0.0150000
vn 0.0000000 -0.0000000 -1.0000000
v -0.0355000 0.0614878 0.0150000
vn 0.0000000 -0.0000000 -1.0000000
f 22/22/22 23/23/23 24/24/24
v -0.0355000 0.0614878 0.0150000
vn 0.0000000 0.0000000 -1.0000000
v 0.0355000 0.0614878 0.0150000
vn 0.0000000 0.0000000 -1.0000000
v 0.0710000 0.0000000 0.0150000
vn 0.0000000 0.0000000 -1.0000000
f 25/25/25 26/26/26 27/27/27
v -0.0355000 -0.0614878 0.0150000
vn -0.0000000 -0.0000000 -1.0000000
v -0.0355000 0.0614878 0.0150000
vn -0.0000000 -0.0000000 -1.0000000
v 0.0710000 0.0000000 0.0150000
vn -0.0000000 -0.0000000 -1.0000000
f 28/28/28 29/29/29 30/30/30
v 0.0216506 -0.0125000 2.4000001
vn 0.0000000 0.0000000 1.0000000
v 0.0250000 0.0000000 2.4000001
vn 0.0000000 0.0000000 1.0000000
v 0.0216506 0.0125000 2.4000001
vn 0.0000000 0.0000000 1.0000000
f 31/31/31 32/32/32 33/33/33
v 0.0216506 0.0125000 2.4000001
vn 0.0000000 0.0000000 1.0000000
v 0.0125000 0.0216506 2.4000001
vn 0.0000000 0.0000000 1.0000000
v 0.0000000 0.0250000 2.4000001
vn 0.0000000 0.0000000 1.0000000
f 34/34/34 35/35/35 36/36/36
v 0.0000000 0.0250000 2.4000001
vn 0.0000000 0.0000000 1.0000000
v -0.0125000 0.0216506 2.4000001
vn 0.0000000 0.0000000 1.0000000
v -0.0216506 0.0125000 2.4000001
vn 0.0000000 0.0000000 1.0000000
f 37/37/37 38/38/38 39/39/39
v -0.0216506 0.0125000 2.4000001
vn 0.0000000 -0.0000000 1.0000000
v -0.0250000 0.0000000 2.4000001
vn 0.0000000 -0.0000000 1.0000000
v -0.0216506 -0.0125000 2.4000001
vn 0.0000000 -0.0000000 1.0000000
f 40/40/40 41/41/41 42/42/42
v -0.0216506 -0.0125000 2.4000001
vn 0.0000000 0.0000000 1.0000000
v -0.0125000 -0.0216506 2.4000001
vn 0.0000000 0.0000000 1.0000000
v -0.0000000 -0.0250000 2.4000001
vn 0.0000000 0.0000000 1.0000000
f 43/43/43 44/44/44 45/45/45
v -0.0000000 -0.0250000 2.4000001
vn 0.0000000 0.0000000 1.0000000
v 0.0125000 -0.0216506 2.4000001
vn 0.0000000 0.0000000 1.0000000
v 0.0216506 -0.0125000 2.4000001
vn 0.0000000 0.0000000 1.0000000
f 46/46/46 47/47/47 48/48/48
v 0.0216506 -0.0125000 2.4000001
vn 0.0000000 0.0000000 1.0000000
v 0.0216506 0.0125000 2.4000001
vn 0.0000000 0.0000000 1.0000000
v 0.0000000 0.0250000 2.4000001
vn 0.0000000 0.0000000 1.0000000
f 49/49/49 50/50/50 51/51/51
v 0.0000000 0.0250000 2.4000001
vn 0.0000000 0.0000000 1.0000000
v -0.0216506 0.0125000 2.4000001
vn 0.0000000 0.0000000 1.0000000
v -0.0216506 -0.0125000 2.4000001
vn 0.0000000 0.0000000 1.0000000
f 52/52/52 53/53/53 54/54/54
v -0.0216506 -0.0125000 2.4000001
vn 0.0000000 0.0000000 1.0000000
v -0.0000000 -0.0250000 2.4000001
vn 0.0000000 0.0000000 1.0000000
v 0.0216506 -0.0125000 2.4000001
vn 0.0000000 0.0000000 1.0000000
f 55/55/55 56/56/56 57/57/57
v 0.0000000 0.0250000 2.4000001
vn 0.0000000 -0.0000000 1.0000000
v -0.0216506 -0.0125000 2.4000001
vn 0.0000000 -0.0000000 1.0000000
v 0.0216506 -0.0125000 2.4000001
vn 0.0000000 -0.0000000 1.0000000
f 58/58/58 59/59/59 60/60/60
v 0.0710000 0.0000000 0.0150000
vn 0.9645879 0.2584606 -0.0526138
v 0.0614878 0.0355000 0.0150000
vn 0.9645879 0.2584606 -0.0526138
v 0.0640859 0.0370000 0.0700000
vn 0.9645879 0.2584606 -0.0526138
f 61/61/61 62/62/62 63/63/63
v 0.0710000 0.0000000 0.0150000
vn 0.9645879 0.2584606 -0.0526139
v 0.0640859 0.0370000 0.0700000
vn 0.9645879 0.2584606 -0.0526139
v 0.0740000 0.0000000 0.0700000
vn 0.9645879 0.2584606 -0.0526139
f 64/64/64 65/65/65 66/66/66
v 0.0614878 0.0355000 0.0150000
vn 0.7061274 0.7061274 -0.0526138
v 0.0355000 0.0614878 0.0150000
vn 0.7061274 0.7061274 -0.0526138
v 0.0370000 0.0640859 0.0700000
vn 0.7061274 0.7061274 -0.0526138
f 67/67/67 68/68/68 69/69/69
v 0.0614878 0.0355000 0.0150000
vn 0.7061274 0.7061274 -0.0526139
v 0.0370000 0.0640859 0.0700000
vn 0.7061274 0.7061274 -0.0526139
v 0.0640859 0.0370000 0.0700000
vn 0.7061274 0.7061274 -0.0526139
f 70/70/70 71/71/71 72/72/72
v 0.0355000 0.0614878 0.0150000
vn 0.2584606 0.9645879 -0.0526139
v 0.0000000 0.0710000 0.0150000
vn 0.2584606 0.9645879 -0.0526139
v 0.0000000 0.0740000 0.0700000
vn 0.2584606 0.9645879 -0.0526139
f 73/73/73 74/74/74 75/75/75
v 0.0355000 0.0614878 0.0150000
vn 0.2584606 0.9645879 -0.0526138
v 0.0000000 0.0740000 0.0700000
vn 0.2584606 0.9645879 -0.0526138
v 0.0370000 0.0640859 0.0700000
vn 0.2584606 0.9645879 -0.0526138
f 76/76/76 77/77/77 78/78/78
v 0.0000000 0.0710000 0.0150000
vn -0.2584606 0.9645879 -0.0526138
v -0.0355000 0.0614878 0.0150000
vn -0.2584606 0.9645879 -0.0526138
v -0.0370000 0.0640859 0.0700000
vn -0.2584606 0.9645879 -0.0526138
f 79/79/79 80/80/80 81/81/81
v 0.0000000 0.0710000 0.0150000
vn -0.2584606 0.9645879 -0.0526139
v -0.0370000 0.0640859 0.0700000
vn -0.2584606 0.9645879 -0.0526139
v 0.0000000 0.0740000 0.0700000
vn -0.2584606 0.9645879 -0.0526139
f 82/82/82 83/83/83 84/84/84
v -0.0355000 0.0614878 0.0150000
vn -0.7061274 0.7061274 -0.0526138
v -0.0614878 0.0355000 0.0150000
vn -0.7061274 0.7061274 -0.0526138
v -0.0640859 0.0370000 0.0700000
vn -0.7061274 0.7061274 -0.0526138
f 85/85/85 86/86/86 87/87/87
v -0.0355000 0.0614878 0.0150000
vn -0.7061274 0.7061274 -0.0526139
v -0.0640859 0.0370000 0.0700000
vn -0.7061274 0.7061274 -0.0526139
v -0.0370000 0.0640859 0.0700000
vn -0.7061274 0.7061274 -0.0526139
f 88/88/88 89/89/89 90/90/90
v -0.0614878 0.0355000 0.0150000
vn -0.9645879 0.2584606 -0.0526139
v -0.0710000 0.0000000 0.0150000
vn -0.9645879 0.2584606 -0.0526139
v -0.0740000 0.0000000 0.0700000
vn -0.9645879 0.2584606 -0.0526139
f 91/91/91 92/92/92 93/93/93
v -0.0614878 0.0355000 0.0150000
vn -0.9645879 0.2584606 -0.0526138
v -0.0740000 0.0000000 0.0700000
vn -0.9645879 0.2584606 -0.0526138
v -0.0640859 0.0370000 0.0700000
vn -0.9645879 0.2584606 -0.0526138
f 94/94/94 95/95/95 96/96/96
v -0.0710000 0.0000000 0.0150000
vn -0.9645879 -0.2584606 -0.0526138
v -0.0614878 -0.0355000 0.0150000
vn -0.9645879 -0.2584606 -0.0526138
v -0.0640859 -0.0370000 0.0700000
vn -0.9645879 -0.2584606 -0.0526138
f 97/97/97 98/98/98 99/99/99
v -0.0710000 0.0000000 0.0150000
vn -0.9645879 -0.2584606 -0.0526139
v -0.0640859 -0.0370000 0.0700000
vn -0.9645879 -0.2584606 -0.0526139
v -0.0740000 0.0000000 0.0700000
vn -0.9645879 -0.2584606 -0.0526139
f 100/100/100 101/101/101 102/102/102
v -0.0614878 -0.0355000 0.0150000
vn -0.7061274 -0.7061274 -0.0526138
v -0.0355000 -0.0614878 0.0150000
vn -0.7061274 -0.7061274 -0.0526138
v -0.0370000 -0.0640859 0.0700000
vn -0.7061274 -0.7061274 -0.0526138
f 103/103/103 104/104/104 105/105/105
v -0.0614878 -0.0355000 0.0150000
vn -0.7061274 -0.7061274 -0.0526139
v -0.0370000 -0.0640859 0.0700000
vn -0.7061274 -0.7061274 -0.0526139
v -0.0640859 -0.0370000 0.0700000
vn -0.7061274 -0.7061274 -0.0526139
f 106/106/106 107/107/107 108/108/108
v -0.0355000 -0.0614878 0.0150000
vn -0.2584606 -0.9645879 -0.0526139
v -0.0000000 -0.0710000 0.0150000
vn -0.2584606 -0.9645879 -0.0526139
v -0.0000000 -0.0740000 0.0700000
vn -0.2584606 -0.9645879 -0.0526139
f 109/109/109 110/110/110 111/111/111
v -0.0355000 -0.0614878 0.0150000
vn -0.2584606 -0.9645879 -0.0526138
v -0.0000000 -0.0740000 0.0700000
vn -0.2584606 -0.9645879 -0.0526138
v -0.0370000 -0.0640859 0.0700000
vn -0.2584606 -0.9645879 -0.0526138
f 112/112/112 113/113/113 114/114/114
v -0.0000000 -0.0710000 0.0150000
vn 0.2584606 -0.9645879 -0.0526138
v 0.0355000 -0.0614878 0.0150000
vn 0.2584606 -0.9645879 -0.0526138
v 0.0370000 -0.0640859 0.0700000
vn 0.2584606 -0.9645879 -0.0526138
f 115/115/115 116/116/116 117/117/117
v -0.0000000 -0.0710000 0.0150000
vn 0.2584606 -0.9645879 -0.0526139
v 0.0370000 -0.0640859 0.0700000
vn 0.2584606 -0.9645879 -0.0526139
v -0.0000000 -0.0740000 0.0700000
vn 0.2584606 -0.9645879 -0.0526139
f 118/118/118 119/119/119 120/120/120
v 0.0355000 -0.0614878 0.0150000
vn 0.7061274 -0.7061274 -0.0526138
v 0.0614878 -0.0355000 0.0150000
vn 0.7061274 -0.7061274 -0.0526138
v 0.0640859 -0.0370000 0.0700000
vn 0.7061274 -0.7061274 -0.0526138
f 121/121/121 122/122/122 123/123/123
v 0.0355000 -0.0614878 0.0150000
vn 0.7061274 -0.7061274 -0.0526139
v 0.0640859 -0.0370000 0.0700000
vn 0.7061274 -0.7061274 -0.0526139
v 0.0370000 -0.0640859 0.0700000
vn 0.7061274 -0.7061274 -0.0526139
f 124/124/124 125/125/125 126/126/126
v 0.0614878 -0.0355000 0.0150000
vn 0.9645879 -0.2584606 -0.0526139
v 0.0710000 0.0000000 0.0150000
vn 0.9645879 -0.2584606 -0.0526139
v 0.0740000 0.0000000 0.0700000
vn 0.9645879 -0.2584606 -0.0526139
f 127/127/127 128/128/128 129/129/129
v 0.0614878 -0.0355000 0.0150000
vn 0.9645879 -0.2584606 -0.0526138
v 0.0740000 0.0000000 0.0700000
vn 0.9645879 -0.2584606 -0.0526138
v 0.0640859 -0.0370000 0.0700000
vn 0.9645879 -0.2584606 -0.0526138
f 130/130/130 131/131/131 132/132/132
v 0.0740000 0.0000000 0.0700000
vn 0.9242742 0.2476586 0.2904862
v 0.0640859 0.0370000 0.0700000
vn 0.9242742 0.2476586 0.2904862
v 0.0450333 0.0260000 0.1400000
vn 0.9242742 0.2476586 0.2904862
f 133/133/133 134/134/134 135/135/135
v 0.0740000 0.0000000 0.0700000
vn 0.9242743 0.2476586 0.2904862
v 0.0450333 0.0260000 0.1400000
vn 0.9242743 0.2476586 0.2904862
v 0.0520000 0.0000000 0.1400000
vn 0.9242743 0.2476586 0.2904862
f 136/136/136 137/137/137 138/138/138
v 0.0640859 0.0370000 0.0700000
vn 0.6766158 0.6766158 0.2904862
v 0.0370000 0.0640859 0.0700000
vn 0.6766158 0.6766158 0.2904862
v 0.0260000 0.0450333 0.1400000
vn 0.6766158 0.6766158 0.2904862
f 139/139/139 140/140/140 141/141/141
v 0.0640859 0.0370000 0.0700000
vn 0.6766157 0.6766157 0.2904862
v 0.0260000 0.0450333 0.1400000
vn 0.6766157 0.6766157 0.2904862
v 0.0450333 0.0260000 0.1400000
vn 0.6766157 0.6766157 0.2904862
f 142/142/142 143/143/143 144/144/144
v 0.0370000 0.0640859 0.0700000
vn 0.2476586 0.9242742 0.2904862
v 0.0000000 0.0740000 0.0700000
vn 0.2476586 0.9242742 0.2904862
v 0.0000000 0.0520000 0.1400000
vn 0.2476586 0.9242742 0.2904862
f 145/145/145 146/146/146 147/147/147
v 0.0370000 0.0640859 0.0700000
vn 0.2476586 0.9242743 0.2904862
v 0.0000000 0.0520000 0.1400000
vn 0.2476586 0.9242743 0.2904862
v 0.0260000 0.0450333 0.1400000
vn 0.2476586 0.9242743 0.2904862
f 148/148/148 149/149/149 150/150/150
v 0.0000000 0.0740000 0.0700000
vn -0.2476586 0.9242742 0.2904862
v -0.0370000 0.0640859 0.0700000
vn -0.2476586 0.9242742 0.2904862
v -0.0260000 0.0450333 0.1400000
vn -0.2476586 0.9242742 0.2904862
f 151/151/151 152/152/152 153/153/153
v 0.0000000 0.0740000 0.0700000
vn -0.2476586 0.9242743 0.2904862
v -0.0260000 0.0450333 0.1400000
vn -0.2476586 0.9242743 0.2904862
v 0.0000000 0.0520000 0.1400000
vn -0.2476586 0.9242743 0.2904862
f 154/154/154 155/155/155 156/156/156
v -0.0370000 0.0640859 0.0700000
vn -0.6766158 0.6766158 0.2904862
v -0.0640859 0.0370000 0.0700000
vn -0.6766158 0.6766158 0.2904862
v -0.0450333 0.0260000 0.1400000
vn -0.6766158 0.6766158 0.2904862
f 157/157/157 158/158/158 159/159/159
v -0.0370000 0.0640859 0.0700000
vn -0.6766157 0.6766157 0.2904862
v -0.0450333 0.0260000 0.1400000
vn -0.6766157 0.6766157 0.2904862
v -0.0260000 0.0450333 0.1400000
vn -0.6766157 0.6766157 0.2904862
f 160/160/160 161/161/161 162/162/162
v -0.0640859 0.0370000 0.0700000
vn -0.9242742 0.2476586 0.2904862
v -0.0740000 0.0000000 0.0700000
vn -0.9242742 0.2476586 0.2904862
v -0.0520000 0.0000000 0.1400000
vn -0.9242742 0.2476586 0.2904862
f 163/163/163 164/164/164 165/165/165
v -0.0640859 0.0370000 0.0700000
vn -0.9242743 0.2476586 0.2904862
v -0.0520000 0.0000000 0.1400000
vn -0.9242743 0.2476586 0.2904862
v -0.0450333 0.0260000 0.1400000
vn -0.9242743 0.2476586 0.2904862
f 166/166/166 167/167/167 168/168/168
v -0.0740000 0.0000000 0.0700000
vn -0.9242742 -0.2476586 0.2904862
v -0.0640859 -0.0370000 0.0700000
vn -0.9242742 -0.2476586 0.2904862
v -0.0450333 -0.0260000 0.1400000
vn -0.9242742 -0.2476586 0.2904862
f 169/169/169 170/170/170 171/171/171
v -0.0740000 0.0000000 0.0700000
vn -0.9242743 -0.2476586 0.2904862
v -0.0450333 -0.0260000 0.1400000
vn -0.9242743 -0.2476586 0.2904862
v -0.0520000 0.0000000 0.1400000
vn -0.9242743 -0.2476586 0.2904862
f 172/172/172 173/173/173 174/174/174
v -0.0640859 -0.0370000 0.0700000
vn -0.6766158 -0.6766158 0.2904862
v -0.0370000 -0.0640859 0.0700000
vn -0.6766158 -0.6766158 0.2904862
v -0.0260000 -0.0450333 0.1400000
vn -0.6766158 -0.6766158 0.2904862
f 175/175/175 176/176/176 177/177/177
v -0.0640859 -0.0370000 0.0700000
vn -0.6766157 -0.6766157 0.2904862
v -0.0260000 -0.0450333 0.1400000
vn -0.6766157 -0.6766157 0.2904862
v -0.0450333 -0.0260000 0.1400000
vn -0.6766157 -0.6766157 0.2904862
f 178/178/178 179/179/179 180/180/180
v -0.0370000 -0.0640859 0.0700000
vn -0.2476586 -0.9242742 0.2904862
v -0.0000000 -0.0740000 0.0700000
vn -0.2476586 -0.9242742 0.2904862
v -0.0000000 -0.0520000 0.1400000
vn -0.2476586 -0.9242742 0.2904862
f 181/181/181 182/182/182 183/183/183
v -0.0370000 -0.0640859 0.0700000
vn -0.2476586 -0.9242743 0.2904862
v -0.0000000 -0.0520000 0.1400000
vn -0.2476586 -0.9242743 0.2904862
v -0.0260000 -0.0450333 0.1400000
vn -0.2476586 -0.9242743 0.2904862
f 184/184/184 185/185/185 186/186/186
v -0.0000000 -0.0740000 0.0700000
vn 0.2476586 -0.9242742 0.2904862
v 0.0370000 -0.0640859 0.0700000
vn 0.2476586 -0.9242742 0.2904862
v 0.0260000 -0.0450333 0.1400000
vn 0.2476586 -0.9242742 0.2904862
f 187/187/187 188/188/188 189/189/189
v -0.0000000 -0.0740000 0.0700000
vn 0.2476586 -0.9242743 0.2904862
v 0.0260000 -0.0450333 0.1400000
vn 0.2476586 -0.9242743 0.2904862
v -0.0000000 -0.0520000 0.1400000
vn 0.2476586 -0.9242743 0.2904862
f 190/190/190 191/191/191 192/192/192
v 0.0370000 -0.0640859 0.0700000
vn 0.6766158 -0.6766158 0.2904862
v 0.0640859 -0.0370000 0.0700000
vn 0.6766158 -0.6766158 0.2904862
v 0.0450333 -0.0260000 0.1400000
vn 0.6766158 -0.6766158 0.2904862
f 193/193/193 194/194/194 195/195/195
v 0.0370000 -0.0640859 0.0700000
vn 0.6766157 -0.6766157 0.2904862
v 0.0450333 -0.0260000 0.1400000
vn 0.6766157 -0.6766157 0.2904862
v 0.0260000 -0.0450333 0.1400000
vn 0.6766157 -0.6766157 0.2904862
f 196/196/196 197/197/197 198/198/198
v 0.0640859 -0.0370000 0.0700000
vn 0.9242742 -0.2476586 0.2904862
v 0.0740000 0.0000000 0.0700000
vn 0.9242742 -0.2476586 0.2904862
v 0.0520000 0.0000000 0.1400000
vn 0.9242742 -0.2476586 0.2904862
f 199/199/199 200/200/200 201/201/201
v 0.0640859 -0.0370000 0.0700000
vn 0.9242743 -0.2476586 0.2904862
v 0.0520000 0.0000000 0.1400000
vn 0.9242743 -0.2476586 0.2904862
v 0.0450333 -0.0260000 0.1400000
vn 0.9242743 -0.2476586 0.2904862
f 202/202/202 203/203/203 204/204/204
v 0.0520000 0.0000000 0.1400000
vn 0.9438912 0.2529149 0.2123755
v 0.0450333 0.0260000 0.1400000
vn 0.9438912 0.2529149 0.2123755
v 0.0294449 0.0170000 0.2200000
vn 0.9438912 0.2529149 0.2123755
f 205/205/205 206/206/206 207/207/207
v 0.0520000 0.0000000 0.1400000
vn 0.9438913 0.2529150 0.2123755
v 0.0294449 0.0170000 0.2200000
vn 0.9438913 0.2529150 0.2123755
v 0.0340000 0.0000000 0.2200000
vn 0.9438913 0.2529150 0.2123755
f 208/208/208 209/209/209 210/210/210
v 0.0450333 0.0260000 0.1400000
vn 0.6909763 0.6909763 0.2123755
v 0.0260000 0.0450333 0.1400000
vn 0.6909763 0.6909763 0.2123755
v 0.0170000 0.0294449 0.2200000
vn 0.6909763 0.6909763 0.2123755
f 211/211/211 212/212/212 213/213/213
v 0.0450333 0.0260000 0.1400000
vn 0.6909764 0.6909764 0.2123755
v 0.0170000 0.0294449 0.2200000
vn 0.6909764 0.6909764 0.2123755
v 0.0294449 0.0170000 0.2200000
vn 0.6909764 0.6909764 0.2123755
f 214/214/214 215/215/215 216/216/216
v 0.0260000 0.0450333 0.1400000
vn 0.2529149 0.9438912 0.2123755
v 0.0000000 0.0520000 0.1400000
vn 0.2529149 0.9438912 0.2123755
v 0.0000000 0.0340000 0.2200000
vn 0.2529149 0.9438912 0.2123755
f 217/217/217 218/218/218 219/219/219
v 0.0260000 0.0450333 0.1400000
vn 0.2529150 0.9438913 0.2123755
v 0.0000000 0.0340000 0.2200000
vn 0.2529150 0.9438913 0.2123755
v 0.0170000 0.0294449 0.2200000
vn 0.2529150 0.9438913 0.2123755
f 220/220/220 221/221/221 222/222/222
v 0.0000000 0.0520000 0.1400000
vn -0.2529149 0.9438912 0.2123755
v -0.0260000 0.0450333 0.1400000
vn -0.2529149 0.9438912 0.2123755
v -0.0170000 0.0294449 0.2200000
vn -0.2529149 0.9438912 0.2123755
f 223/223/223 224/224/224 225/225/225
v 0.0000000 0.0520000 0.1400000
vn -0.2529150 0.9438913 0.2123755
v -0.0170000 0.0294449 0.2200000
vn -0.2529150 0.9438913 0.2123755
v 0.0000000 0.0340000 0.2200000
vn -0.2529150 0.9438913 0.2123755
f 226/226/226 227/227/227 228/228/228
v -0.0260000 0.0450333 0.1400000
vn -0.6909763 0.6909763 0.2123755
v -0.0450333 0.0260000 0.1400000
vn -0.6909763 0.6909763 0.2123755
v -0.0294449 0.0170000 0.2200000
vn -0.6909763 0.6909763 0.2123755
f 229/229/229 230/230/230 231/231/231
v -0.0260000 0.0450333 0.1400000
vn -0.6909764 0.6909764 0.2123755
v -0.0294449 0.0170000 0.2200000
vn -0.6909764 0.6909764 0.2123755
v -0.0170000 0.0294449 0.2200000
vn -0.6909764 0.6909764 0.2123755
f 232/232/232 233/233/233 234/234/234
v -0.0450333 0.0260000 0.1400000
vn -0.9438912 0.2529149 0.2123755
v -0.0520000 0.0000000 0.1400000
vn -0.9438912 0.2529149 0.2123755
v -0.0340000 0.0000000 0.2200000
vn -0.9438912 0.2529149 0.2123755
f 235/235/235 236/236/236 237/237/237
v -0.0450333 0.0260000 0.1400000
vn -0.9438913 0.2529150 0.2123755
v -0.0340000 0.0000000 0.2200000
vn -0.9438913 0.2529150 0.2123755
v -0.0294449 0.0170000 0.2200000
vn -0.9438913 0.2529150 0.2123755
f 238/238/238 239/239/239 240/240/240
v -0.0520000 0.0000000 0.1400000
vn -0.9438912 -0.2529149 0.2123755
v -0.0450333 -0.0260000 0.1400000
vn -0.9438912 -0.2529149 0.2123755
v -0.0294449 -0.0170000 0.2200000
vn -0.9438912 -0.2529149 0.2123755
f 241/241/241 242/242/242 243/243/243
v -0.0520000 0.0000000 0.1400000
vn -0.9438913 -0.2529150 0.2123755
v -0.0294449 -0.0170000 0.2200000
vn -0.9438913 -0.2529150 0.2123755
v -0.0340000 0.0000000 0.2200000
vn -0.9438913 -0.2529150 0.2123755
f 244/244/244 245/245/245 246/246/246
v -0.0450333 -0.0260000 0.1400000
vn -0.6909763 -0.6909763 0.2123755
v -0.0260000 -0.0450333 0.1400000
vn -0.6909763 -0.6909763 0.2123755
v -0.0170000 -0.0294449 0.2200000
vn -0.6909763 -0.6909763 0.2123755
f 247/247/247 248/248/248 249/249/249
v -0.0450333 -0.0260000 0.1400000
vn -0.6909764 -0.6909764 0.2123755
v -0.0170000 -0.0294449 0.2200000
vn -0.6909764 -0.6909764 0.2123755
v -0.0294449 -0.0170000 0.2200000
vn -0.6909764 -0.6909764 0.2123755
f 250/250/250 251/251/251 252/252/252
v -0.0260000 -0.0450333 0.1400000
vn -0.2529149 -0.9438912 0.2123755
v -0.0000000 -0.0520000 0.1400000
vn -0.2529149 -0.9438912 0.2123755
v -0.0000000 -0.0340000 0.2200000
vn -0.2529149 -0.9438912 0.2123755
f 253/253/253 254/254/254 255/255/255
v -0.0260000 -0.0450333 0.1400000
vn -0.2529150 -0.9438913 0.2123755
v -0.0000000 -0.0340000 0.2200000
vn -0.2529150 -0.9438913 0.2123755
v -0.0170000 -0.0294449 0.2200000
vn -0.2529150 -0.9438913 0.2123755
f 256/256/256 257/257/257 258/258/258
v -0.0000000 -0.0520000 0.1400000
vn 0.2529149 -0.9438912 0.2123755
v 0.0260000 -0.0450333 0.1400000
vn 0.2529149 -0.9438912 0.2123755
v 0.0170000 -0.0294449 0.2200000
vn 0.2529149 -0.9438912 0.2123755
f 259/259/259 260/260/260 261/261/261
v -0.0000000 -0.0520000 0.1400000
vn 0.2529150 -0.9438913 0.2123755
v 0.0170000 -0.0294449 0.2200000
vn 0.2529150 -0.9438913 0.2123755
v -0.0000000 -0.0340000 0.2200000
vn 0.2529150 -0.9438913 0.2123755
f 262/262/262 263/263/263 264/264/264
v 0.0260000 -0.0450333 0.1400000
vn 0.6909763 -0.6909763 0.2123755
v 0.0450333 -0.0260000 0.1400000
vn 0.6909763 -0.6909763 0.2123755
v 0.0294449 -0.0170000 0.2200000
vn 0.6909763 -0.6909763 0.2123755
f 265/265/265 266/266/266 267/267/267
v 0.0260000 -0.0450333 0.1400000
vn 0.6909764 -0.6909764 0.2123755
v 0.0294449 -0.0170000 0.2200000
vn 0.6909764 -0.6909764 0.2123755
v 0.0170000 -0.0294449 0.2200000
vn 0.6909764 -0.6909764 0.2123755
f 268/268/268 269/269/269 270/270/270
v 0.0450333 -0.0260000 0.1400000
vn 0.9438912 -0.2529149 0.2123755
v 0.0520000 0.0000000 0.1400000
vn 0.9438912 -0.2529149 0.2123755
v 0.0340000 0.0000000 0.2200000
vn 0.9438912 -0.2529149 0.2123755
f 271/271/271 272/272/272 273/273/273
v 0.0450333 -0.0260000 0.1400000
vn 0.9438913 -0.2529150 0.2123755
v 0.0340000 0.0000000 0.2200000
vn 0.9438913 -0.2529150 0.2123755
v 0.0294449 -0.0170000 0.2200000
vn 0.9438913 -0.2529150 0.2123755
f 274/274/274 275/275/275 276/276/276
v 0.0340000 0.0000000 0.2200000
vn 0.9659181 0.2588170 0.0039877
v 0.0294449 0.0170000 0.2200000
vn 0.9659181 0.2588170 0.0039877
v 0.0216506 0.0125000 2.4000001
vn 0.9659181 0.2588170 0.0039877
f 277/277/277 278/278/278 279/279/279
v 0.0340000 0.0000000 0.2200000
vn 0.9659181 0.2588170 0.0039877
v 0.0216506 0.0125000 2.4000001
vn 0.9659181 0.2588170 0.0039877
v 0.0250000 0.0000000 2.4000001
vn 0.9659181 0.2588170 0.0039877
f 280/280/280 281/281/281 282/282/282
v 0.0294449 0.0170000 0.2200000
vn 0.7071012 0.7071012 0.0039877
v 0.0170000 0.0294449 0.2200000
vn 0.7071012 0.7071012 0.0039877
v 0.0125000 0.0216506 2.4000001
vn 0.7071012 0.7071012 0.0039877
f 283/283/283 284/284/284 285/285/285
v 0.0294449 0.0170000 0.2200000
vn 0.7071012 0.7071012 0.0039877
v 0.0125000 0.0216506 2.4000001
vn 0.7071012 0.7071012 0.0039877
v 0.0216506 0.0125000 2.4000001
vn 0.7071012 0.7071012 0.0039877
f 286/286/286 287/287/287 288/288/288
v 0.0170000 0.0294449 0.2200000
vn 0.2588170 0.9659181 0.0039877
v 0.0000000 0.0340000 0.2200000
vn 0.2588170 0.9659181 0.0039877
v 0.0000000 0.0250000 2.4000001
vn 0.2588170 0.9659181 0.0039877
f 289/289/289 290/290/290 291/291/291
v 0.0170000 0.0294449 0.2200000
vn 0.2588170 0.9659181 0.0039877
v 0.0000000 0.0250000 2.4000001
vn 0.2588170 0.9659181 0.0039877
v 0.0125000 0.0216506 2.4000001
vn 0.2588170 0.9659181 0.0039877
f 292/292/292 293/293/293 294/294/294
v 0.0000000 0.0340000 0.2200000
vn -0.2588170 0.9659181 0.0039877
v -0.0170000 0.0294449 0.2200000
vn -0.2588170 0.9659181 0.0039877
v -0.0125000 0.0216506 2.4000001
vn -0.2588170 0.9659181 0.0039877
f 295/295/295 296/296/296 297/297/297
v 0.0000000 0.0340000 0.2200000
vn -0.2588170 0.9659181 0.0039877
v -0.0125000 0.0216506 2.4000001
vn -0.2588170 0.9659181 0.0039877
v 0.0000000 0.0250000 2.4000001
vn -0.2588170 0.9659181 0.0039877
f 298/298/298 299/299/299 300/300/300
v -0.0170000 0.0294449 0.2200000
vn -0.7071012 0.7071012 0.0039877
v -0.0294449 0.0170000 0.2200000
vn -0.7071012 0.7071012 0.0039877
v -0.0216506 0.0125000 2.4000001
vn -0.7071012 0.7071012 0.0039877
f 301/301/301 302/302/302 303/303/303
v -0.0170000 0.0294449 0.2200000
vn -0.7071012 0.7071012 0.0039877
v -0.0216506 0.0125000 2.4000001
vn -0.7071012 0.7071012 0.0039877
v -0.0125000 0.0216506 2.4000001
vn -0.7071012 0.7071012 0.0039877
f 304/304/304 305/305/305 306/306/306
v -0.0294449 0.0170000 0.2200000
vn -0.9659181 0.2588170 0.0039877
v -0.0340000 0.0000000 0.2200000
vn -0.9659181 0.2588170 0.0039877
v -0.0250000 0.0000000 2.4000001
vn -0.9659181 0.2588170 0.0039877
f 307/307/307 308/308/308 309/309/309
v -0.0294449 0.0170000 0.2200000
vn -0.9659181 0.2588170 0.0039877
v -0.0250000 0.0000000 2.4000001
vn -0.9659181 0.2588170 0.0039877
v -0.0216506 0.0125000 2.4000001
vn -0.9659181 0.2588170 0.0039877
f 310/310/310 311/311/311 312/312/312
v -0.0340000 0.0000000 0.2200000
vn -0.9659181 -0.2588170 0.0039877
v -0.0294449 -0.0170000 0.2200000
vn -0.9659181 -0.2588170 0.0039877
v -0.0216506 -0.0125000 2.4000001
vn -0.9659181 -0.2588170 0.0039877
f 313/313/313 314/314/314 315/315/315
v -0.0340000 0.0000000 0.2200000
vn -0.9659181 -0.2588170 0.0039877
v -0.0216506 -0.0125000 2.4000001
vn -0.9659181 -0.2588170 0.0039877
v -0.0250000 0.0000000 2.4000001
vn -0.9659181 -0.2588170 0.0039877
f 316/316/316 317/317/317 318/318/318
v -0.0294449 -0.0170000 0.2200000
vn -0.7071012 -0.7071012 0.0039877
v -0.0170000 -0.0294449 0.2200000
vn -0.7071012 -0.7071012 0.0039877
v -0.0125000 -0.0216506 2.4000001
vn -0.7071012 -0.7071012 0.0039877
f 319/319/319 320/320/320 321/321/321
v -0.0294449 -0.0170000 0.2200000
vn -0.7071012 -0.7071012 0.0039877
v -0.0125000 -0.0216506 2.4000001
vn -0.7071012 -0.7071012 0.0039877
v -0.0216506 -0.0125000 2.4000001
vn -0.7071012 -0.7071012 0.0039877
f 322/322/322 323/323/323 324/324/324
v -0.0170000 -0.0294449 0.2200000
vn -0.2588170 -0.9659181 0.0039877
v -0.0000000 -0.0340000 0.2200000
vn -0.2588170 -0.9659181 0.0039877
v -0.0000000 -0.0250000 2.4000001
vn -0.2588170 -0.9659181 0.0039877
f 325/325/325 326/326/326 327/327/327
v -0.0170000 -0.0294449 0.2200000
vn -0.2588170 -0.9659181 0.0039877
v -0.0000000 -0.0250000 2.4000001
vn -0.2588170 -0.9659181 0.0039877
v -0.0125000 -0.0216506 2.4000001
vn -0.2588170 -0.9659181 0.0039877
f 328/328/328 329/329/329 330/330/330
v -0.0000000 -0.0340000 0.2200000
vn 0.2588170 -0.9659181 0.0039877
v 0.0170000 -0.0294449 0.2200000
vn 0.2588170 -0.9659181 0.0039877
v 0.0125000 -0.0216506 2.4000001
vn 0.2588170 -0.9659181 0.0039877
f 331/331/331 332/332/332 333/333/333
v -0.0000000 -0.0340000 0.2200000
vn 0.2588170 -0.9659181 0.0039877
v 0.0125000 -0.0216506 2.4000001
vn 0.2588170 -0.9659181 0.0039877
v -0.0000000 -0.0250000 2.4000001
vn 0.2588170 -0.9659181 0.0039877
f 334/334/334 335/335/335 336/336/336
v 0.0170000 -0.0294449 0.2200000
vn 0.7071012 -0.7071012 0.0039877
v 0.0294449 -0.0170000 0.2200000
vn 0.7071012 -0.7071012 0.0039877
v 0.0216506 -0.0125000 2.4000001
vn 0.7071012 -0.7071012 0.0039877
f 337/337/337 338/338/338 339/339/339
v 0.0170000 -0.0294449 0.2200000
vn 0.7071012 -0.7071012 0.0039877
v 0.0216506 -0.0125000 2.4000001
vn 0.7071012 -0.7071012 0.0039877
v 0.0125000 -0.0216506 2.4000001
vn 0.7071012 -0.7071012 0.0039877
f 340/340/340 341/341/341 342/342/342
v 0.0294449 -0.0170000 0.2200000
vn 0.9659181 -0.2588170 0.0039877
v 0.0340000 0.0000000 0.2200000
vn 0.9659181 -0.2588170 0.0039877
v 0.0250000 0.0000000 2.4000001
vn 0.9659181 -0.2588170 0.0039877
f 343/343/343 344/344/344 345/345/345
v 0.0294449 -0.0170000 0.2200000
vn 0.9659181 -0.2588170 0.0039877
v 0.0250000 0.0000000 2.4000001
vn 0.9659181 -0.2588170 0.0039877
v 0.0216506 -0.0125000 2.4000001
vn 0.9659181 -0.2588170 0.0039877
f 346/346/346 347/347/347 348/348/348
