# Physical vanilla furniture; Z up; per-tile mesh.
# Tile-local game axes; ObjReader performs the scene conversion.
mtllib ../Materials/pz_table_tables_low_01_fancy_low_glass_1_0.mtl
usemtl UV_Base
v 0.3983110 -0.1164686 0.3427400
vn 0.00000000 0.00000000 -1.00000000
v 0.3054036 -0.2250000 0.3427400
vn 0.00000000 0.00000000 -1.00000000
v 0.1576093 -0.3181981 0.3427400
vn 0.00000000 0.00000000 -1.00000000
vt 0.015340869 0.157931560
vt 0.046276416 0.121793661
vt 0.095487754 0.090761320
vt 0.015340869 0.157931560
vt 0.095487754 0.090761320
vt 0.159621225 0.066949405
vt 0.015340869 0.157931560
vt 0.159621225 0.066949405
vt 0.234306240 0.051980590
vt 0.015340869 0.157931560
vt 0.234306240 0.051980590
vt 0.314453125 0.046875000
vt 0.015340869 0.157931560
vt 0.314453125 0.046875000
vt 0.314453125 0.346549645
vt 0.015340869 0.157931560
vt 0.314453125 0.346549645
vt 0.234306240 0.341444055
vt 0.015340869 0.157931560
vt 0.234306240 0.341444055
vt 0.159621225 0.326475240
vt 0.015340869 0.157931560
vt 0.159621225 0.326475240
vt 0.095487754 0.302663326
vt 0.015340869 0.157931560
vt 0.095487754 0.302663326
vt 0.046276416 0.271630984
vt 0.015340869 0.157931560
vt 0.046276416 0.271630984
vt 0.015340869 0.235493085
vt 0.015340869 0.157931560
vt 0.015340869 0.235493085
vt 0.004789325 0.196712323
vt 0.632812500 0.196712323
vt 0.622260956 0.235493085
vt 0.591325409 0.271630984
vt 0.632812500 0.196712323
vt 0.591325409 0.271630984
vt 0.542114071 0.302663326
vt 0.632812500 0.196712323
vt 0.542114071 0.302663326
vt 0.477980600 0.326475240
vt 0.632812500 0.196712323
vt 0.477980600 0.326475240
vt 0.403295585 0.341444055
vt 0.632812500 0.196712323
vt 0.403295585 0.341444055
vt 0.323148700 0.346549645
vt 0.632812500 0.196712323
vt 0.323148700 0.346549645
vt 0.323148700 0.046875000
vt 0.632812500 0.196712323
vt 0.323148700 0.046875000
vt 0.403295585 0.051980590
vt 0.632812500 0.196712323
vt 0.403295585 0.051980590
vt 0.477980600 0.066949405
vt 0.632812500 0.196712323
vt 0.477980600 0.066949405
vt 0.542114071 0.090761320
vt 0.632812500 0.196712323
vt 0.542114071 0.090761320
vt 0.591325409 0.121793661
vt 0.632812500 0.196712323
vt 0.591325409 0.121793661
vt 0.622260956 0.157931560
vt 0.828125000 0.736014007
vt 0.828125000 0.696802411
vt 0.841443873 0.696802411
vt 0.828125000 0.736014007
vt 0.841443873 0.696802411
vt 0.841443873 0.736014007
vt 0.828125000 0.696802411
vt 0.828125000 0.650390625
vt 0.841443873 0.650390625
vt 0.828125000 0.696802411
vt 0.841443873 0.650390625
vt 0.841443873 0.696802411
vt 0.929687500 0.633844961
vt 0.929687500 0.577742837
vt 0.943006373 0.577742837
vt 0.929687500 0.633844961
vt 0.943006373 0.577742837
vt 0.943006373 0.633844961
vt 0.929687500 0.577742837
vt 0.929687500 0.509458267
vt 0.943006373 0.509458267
vt 0.929687500 0.577742837
vt 0.943006373 0.509458267
vt 0.943006373 0.577742837
vt 0.929687500 0.509458267
vt 0.929687500 0.433644708
vt 0.943006373 0.433644708
vt 0.929687500 0.509458267
vt 0.943006373 0.433644708
vt 0.943006373 0.509458267
vt 0.929687500 0.433644708
vt 0.929687500 0.355468750
vt 0.943006373 0.355468750
vt 0.929687500 0.433644708
vt 0.943006373 0.355468750
vt 0.943006373 0.433644708
vt 0.951171875 0.633844961
vt 0.951171875 0.555669003
vt 0.964490748 0.555669003
vt 0.951171875 0.633844961
vt 0.964490748 0.555669003
vt 0.964490748 0.633844961
vt 0.951171875 0.555669003
vt 0.951171875 0.479855444
vt 0.964490748 0.479855444
vt 0.951171875 0.555669003
vt 0.964490748 0.479855444
vt 0.964490748 0.555669003
vt 0.951171875 0.479855444
vt 0.951171875 0.411570874
vt 0.964490748 0.411570874
vt 0.951171875 0.479855444
vt 0.964490748 0.411570874
vt 0.964490748 0.479855444
vt 0.951171875 0.411570874
vt 0.951171875 0.355468750
vt 0.964490748 0.355468750
vt 0.951171875 0.411570874
vt 0.964490748 0.355468750
vt 0.964490748 0.411570874
vt 0.849609375 0.736014007
vt 0.849609375 0.689602221
vt 0.862928248 0.689602221
vt 0.849609375 0.736014007
vt 0.862928248 0.689602221
vt 0.862928248 0.736014007
vt 0.849609375 0.689602221
vt 0.849609375 0.650390625
vt 0.862928248 0.650390625
vt 0.849609375 0.689602221
vt 0.862928248 0.650390625
vt 0.862928248 0.689602221
vt 0.560546875 0.889695463
vt 0.560546875 0.873046875
vt 0.577195466 0.873046875
vt 0.560546875 0.889695463
vt 0.577195466 0.873046875
vt 0.577195466 0.889695463
vt 0.602586091 0.873046875
vt 0.602586091 0.889695504
vt 0.585937500 0.889695504
vt 0.602586091 0.873046875
vt 0.585937500 0.889695504
vt 0.585937500 0.873046875
vt 0.507372908 0.921875000
vt 0.523437500 0.926245855
vt 0.512885989 0.965026617
vt 0.507372908 0.921875000
vt 0.512885989 0.965026617
vt 0.496821364 0.960655729
vt 0.446336091 0.913237445
vt 0.429687500 0.913237445
vt 0.429687500 0.873046875
vt 0.446336091 0.913237445
vt 0.429687500 0.873046875
vt 0.446336091 0.873046875
vt 0.531977614 0.926245855
vt 0.548042206 0.921875000
vt 0.558593750 0.960655729
vt 0.531977614 0.926245855
vt 0.558593750 0.960655729
vt 0.542529125 0.965026617
vt 0.455078125 0.873046875
vt 0.471726716 0.873046875
vt 0.471726716 0.913237422
vt 0.455078125 0.873046875
vt 0.471726716 0.913237422
vt 0.455078125 0.913237422
vt 0.611328125 0.889695480
vt 0.611328125 0.873046875
vt 0.627976716 0.873046875
vt 0.611328125 0.889695480
vt 0.627976716 0.873046875
vt 0.627976716 0.889695480
vt 0.653367341 0.873046875
vt 0.653367341 0.889695458
vt 0.636718750 0.889695458
vt 0.653367341 0.873046875
vt 0.636718750 0.889695458
vt 0.636718750 0.873046875
vt 0.269531250 0.934522435
vt 0.280357995 0.921875000
vt 0.316495894 0.952810547
vt 0.269531250 0.934522435
vt 0.316495894 0.952810547
vt 0.305669182 0.965457982
vt 0.848913840 0.848679841
vt 0.848913840 0.832031250
vt 0.896484375 0.832031250
vt 0.848913840 0.848679841
vt 0.896484375 0.832031250
vt 0.896484375 0.848679841
vt 0.338862101 0.965457982
vt 0.328035356 0.952810547
vt 0.364173288 0.921875000
vt 0.338862101 0.965457982
vt 0.364173288 0.921875000
vt 0.375000000 0.934522435
vt 0.953125000 0.832031250
vt 0.953125000 0.848679841
vt 0.905554440 0.848679841
vt 0.953125000 0.832031250
vt 0.905554440 0.848679841
vt 0.905554440 0.832031250
vt 0.662109375 0.889695443
vt 0.662109375 0.873046875
vt 0.678757966 0.873046875
vt 0.662109375 0.889695443
vt 0.678757966 0.873046875
vt 0.678757966 0.889695443
vt 0.704148591 0.873046875
vt 0.704148591 0.889695471
vt 0.687500000 0.889695471
vt 0.704148591 0.873046875
vt 0.687500000 0.889695471
vt 0.687500000 0.873046875
vt 0.053619708 0.921875000
vt 0.062500000 0.935957444
vt 0.013288662 0.966989786
vt 0.053619708 0.921875000
vt 0.013288662 0.966989786
vt 0.004408370 0.952907308
vt 0.582446292 0.848679841
vt 0.582446292 0.832031250
vt 0.640625000 0.832031250
vt 0.582446292 0.848679841
vt 0.640625000 0.832031250
vt 0.640625000 0.848679841
vt 0.128404130 0.952907342
vt 0.119523838 0.966989786
vt 0.070312500 0.935957477
vt 0.128404130 0.952907342
vt 0.070312500 0.935957477
vt 0.079192792 0.921875000
vt 0.707031250 0.832031250
vt 0.707031250 0.848679841
vt 0.648852560 0.848679841
vt 0.707031250 0.832031250
vt 0.648852560 0.848679841
vt 0.648852560 0.832031250
vt 0.712890625 0.889695501
vt 0.712890625 0.873046875
vt 0.729539216 0.873046875
vt 0.712890625 0.889695501
vt 0.729539216 0.873046875
vt 0.729539216 0.889695501
vt 0.754929841 0.873046875
vt 0.754929841 0.889695446
vt 0.738281250 0.889695446
vt 0.754929841 0.873046875
vt 0.738281250 0.889695446
vt 0.738281250 0.873046875
vt 0.068423841 0.873046875
vt 0.074218750 0.888654430
vt 0.010085246 0.912466344
vt 0.068423841 0.873046875
vt 0.010085246 0.912466344
vt 0.004290404 0.896858823
vt 0.876901144 0.817429841
vt 0.876901144 0.800781250
vt 0.945312500 0.800781250
vt 0.876901144 0.817429841
vt 0.945312500 0.800781250
vt 0.945312500 0.817429841
vt 0.151959596 0.896858789
vt 0.146164687 0.912466344
vt 0.082031250 0.888654397
vt 0.151959596 0.896858789
vt 0.082031250 0.888654397
vt 0.087826092 0.873046875
vt 0.417968750 0.832031250
vt 0.417968750 0.848679841
vt 0.349557445 0.848679841
vt 0.417968750 0.832031250
vt 0.349557445 0.848679841
vt 0.349557445 0.832031250
vt 0.763671875 0.889695456
vt 0.763671875 0.873046875
vt 0.780320466 0.873046875
vt 0.763671875 0.889695456
vt 0.780320466 0.873046875
vt 0.780320466 0.889695456
vt 0.805711091 0.873046875
vt 0.805711091 0.889695456
vt 0.789062500 0.889695456
vt 0.805711091 0.873046875
vt 0.789062500 0.889695456
vt 0.789062500 0.873046875
vt 0.078591265 0.832031250
vt 0.081862980 0.848355194
vt 0.007177965 0.863324009
vt 0.078591265 0.832031250
vt 0.007177965 0.863324009
vt 0.003906250 0.847000065
vt 0.539064060 0.817429841
vt 0.539064060 0.800781250
vt 0.615234375 0.800781250
vt 0.539064060 0.817429841
vt 0.615234375 0.800781250
vt 0.615234375 0.817429841
vt 0.090012020 0.848355194
vt 0.093283735 0.832031250
vt 0.167968750 0.847000065
vt 0.090012020 0.848355194
vt 0.167968750 0.847000065
vt 0.164697035 0.863324009
vt 0.699218750 0.800781250
vt 0.699218750 0.817429841
vt 0.623048435 0.817429841
vt 0.699218750 0.800781250
vt 0.623048435 0.817429841
vt 0.623048435 0.800781250
vt 0.814453125 0.889695448
vt 0.814453125 0.873046875
vt 0.831101716 0.873046875
vt 0.814453125 0.889695448
vt 0.831101716 0.873046875
vt 0.831101716 0.889695448
vt 0.992187500 0.817429841
vt 0.983863215 0.817429841
vt 0.983863215 0.800781250
vt 0.992187500 0.817429841
vt 0.983863215 0.800781250
vt 0.992187500 0.800781250
vt 0.921875000 0.651449043
vt 0.938489895 0.650390625
vt 0.943595485 0.730537543
vt 0.921875000 0.651449043
vt 0.943595485 0.730537543
vt 0.935288038 0.731066736
vt 0.921875000 0.651449043
vt 0.935288038 0.731066736
vt 0.926946860 0.731066736
vt 0.185315626 0.817429841
vt 0.185315626 0.800781250
vt 0.265625000 0.800781250
vt 0.185315626 0.817429841
vt 0.265625000 0.800781250
vt 0.265625000 0.817429841
vt 0.969739895 0.731066736
vt 0.953125000 0.730008318
vt 0.958196860 0.650390625
vt 0.969739895 0.731066736
vt 0.958196860 0.650390625
vt 0.966538038 0.650390625
vt 0.969739895 0.731066736
vt 0.966538038 0.650390625
vt 0.974845485 0.650919817
vt 0.443359375 0.800781250
vt 0.443359375 0.817429841
vt 0.363741773 0.817429841
vt 0.443359375 0.800781250
vt 0.363741773 0.817429841
vt 0.363741773 0.800781250
vt 0.765113215 0.921875000
vt 0.773437500 0.921875000
vt 0.773437500 0.938523591
vt 0.765113215 0.921875000
vt 0.773437500 0.938523591
vt 0.765113215 0.938523591
vt 0.926980590 0.730537543
vt 0.935288038 0.731066736
vt 0.926946860 0.731066736
vt 0.966538038 0.650390625
vt 0.958230590 0.650919817
vt 0.958196860 0.650390625
vt 0.364270966 0.800781250
vt 0.364270966 0.817429841
vt 0.363741773 0.817429841
vt 0.364270966 0.800781250
vt 0.363741773 0.817429841
vt 0.363741773 0.800781250
vt 0.791015625 0.938523591
vt 0.782691340 0.938523591
vt 0.782691340 0.921875000
vt 0.791015625 0.938523591
vt 0.782691340 0.921875000
vt 0.791015625 0.921875000
vt 0.005261389 0.809088697
vt 0.005790582 0.817396145
vt 0.005261389 0.817429875
vt 0.175781250 0.817429875
vt 0.175252058 0.817396145
vt 0.175781250 0.809088697
vt 0.531250000 0.817429841
vt 0.530720807 0.817429841
vt 0.530720807 0.800781250
vt 0.531250000 0.817429841
vt 0.530720807 0.800781250
vt 0.531250000 0.800781250
vt 0.800269465 0.921875000
vt 0.808593750 0.921875000
vt 0.808593750 0.938523591
vt 0.800269465 0.921875000
vt 0.808593750 0.938523591
vt 0.800269465 0.938523591
vt 0.856492341 0.873046875
vt 0.856492341 0.889695448
vt 0.839843750 0.889695448
vt 0.856492341 0.873046875
vt 0.839843750 0.889695448
vt 0.839843750 0.873046875
vt 0.005261389 0.809088697
vt 0.005790582 0.800781250
vt 0.085937500 0.805886840
vt 0.005261389 0.809088697
vt 0.085937500 0.805886840
vt 0.084879082 0.822501735
vt 0.005261389 0.809088697
vt 0.084879082 0.822501735
vt 0.005261389 0.817429875
vt 0.275159376 0.817429841
vt 0.275159376 0.800781250
vt 0.355468750 0.800781250
vt 0.275159376 0.817429841
vt 0.355468750 0.800781250
vt 0.355468750 0.817429841
vt 0.175252058 0.800781250
vt 0.175781250 0.809088697
vt 0.175781250 0.817429875
vt 0.175252058 0.800781250
vt 0.175781250 0.817429875
vt 0.096163557 0.822501735
vt 0.175252058 0.800781250
vt 0.096163557 0.822501735
vt 0.095105139 0.805886840
vt 0.531250000 0.817429841
vt 0.451632398 0.817429841
vt 0.451632398 0.800781250
vt 0.531250000 0.817429841
vt 0.451632398 0.800781250
vt 0.531250000 0.800781250
vt 0.865234375 0.889695456
vt 0.865234375 0.873046875
vt 0.881882966 0.873046875
vt 0.865234375 0.889695456
vt 0.881882966 0.873046875
vt 0.881882966 0.889695456
vt 0.907273591 0.873046875
vt 0.907273591 0.889695456
vt 0.890625000 0.889695456
vt 0.907273591 0.873046875
vt 0.890625000 0.889695456
vt 0.890625000 0.873046875
vt 0.175949520 0.848355194
vt 0.179221235 0.832031250
vt 0.253906250 0.847000065
vt 0.175949520 0.848355194
vt 0.253906250 0.847000065
vt 0.250634535 0.863324009
vt 0.707032810 0.817429841
vt 0.707032810 0.800781250
vt 0.783203125 0.800781250
vt 0.707032810 0.817429841
vt 0.783203125 0.800781250
vt 0.783203125 0.817429841
vt 0.264990465 0.863324009
vt 0.261718750 0.847000065
vt 0.336403765 0.832031250
vt 0.264990465 0.863324009
vt 0.336403765 0.832031250
vt 0.339675480 0.848355194
vt 0.867187500 0.800781250
vt 0.867187500 0.817429841
vt 0.791017185 0.817429841
vt 0.867187500 0.800781250
vt 0.791017185 0.817429841
vt 0.791017185 0.800781250
vt 0.916015625 0.889695446
vt 0.916015625 0.873046875
vt 0.932664216 0.873046875
vt 0.916015625 0.889695446
vt 0.932664216 0.873046875
vt 0.932664216 0.889695446
vt 0.958054841 0.873046875
vt 0.958054841 0.889695501
vt 0.941406250 0.889695501
vt 0.958054841 0.873046875
vt 0.941406250 0.889695501
vt 0.941406250 0.873046875
vt 0.160540404 0.888654397
vt 0.166335246 0.873046875
vt 0.230468750 0.896858789
vt 0.160540404 0.888654397
vt 0.230468750 0.896858789
vt 0.224673841 0.912466344
vt 0.427682394 0.848679841
vt 0.427682394 0.832031250
vt 0.496093750 0.832031250
vt 0.427682394 0.848679841
vt 0.496093750 0.832031250
vt 0.496093750 0.848679841
vt 0.244076092 0.912466344
vt 0.238281250 0.896858823
vt 0.302414687 0.873046875
vt 0.244076092 0.912466344
vt 0.302414687 0.873046875
vt 0.308209596 0.888654430
vt 0.574218750 0.832031250
vt 0.574218750 0.848679841
vt 0.505807445 0.848679841
vt 0.574218750 0.832031250
vt 0.505807445 0.848679841
vt 0.505807445 0.832031250
vt 0.966796875 0.889695471
vt 0.966796875 0.873046875
vt 0.983445466 0.873046875
vt 0.966796875 0.889695471
vt 0.983445466 0.873046875
vt 0.983445466 0.889695471
vt 0.653367341 0.921875000
vt 0.653367341 0.938523568
vt 0.636718750 0.938523568
vt 0.653367341 0.921875000
vt 0.636718750 0.938523568
vt 0.636718750 0.921875000
vt 0.136718750 0.935957477
vt 0.145599042 0.921875000
vt 0.194810380 0.952907342
vt 0.136718750 0.935957477
vt 0.194810380 0.952907342
vt 0.185930088 0.966989786
vt 0.715258792 0.848679841
vt 0.715258792 0.832031250
vt 0.773437500 0.832031250
vt 0.715258792 0.848679841
vt 0.773437500 0.832031250
vt 0.773437500 0.848679841
vt 0.252838458 0.921875000
vt 0.261718750 0.935957477
vt 0.212507412 0.966989786
vt 0.252838458 0.921875000
vt 0.212507412 0.966989786
vt 0.203627120 0.952907342
vt 0.839843750 0.832031250
vt 0.839843750 0.848679841
vt 0.781665060 0.848679841
vt 0.839843750 0.832031250
vt 0.781665060 0.848679841
vt 0.781665060 0.832031250
vt 0.662109375 0.938523583
vt 0.662109375 0.921875000
vt 0.678757966 0.921875000
vt 0.662109375 0.938523583
vt 0.678757966 0.921875000
vt 0.678757966 0.938523583
vt 0.704148591 0.921875000
vt 0.704148591 0.938523605
vt 0.687500000 0.938523605
vt 0.704148591 0.921875000
vt 0.687500000 0.938523605
vt 0.687500000 0.921875000
vt 0.420813913 0.921875000
vt 0.431640625 0.934522435
vt 0.395502726 0.965457982
vt 0.420813913 0.921875000
vt 0.395502726 0.965457982
vt 0.384675981 0.952810547
vt 0.317663840 0.889695466
vt 0.317663840 0.873046875
vt 0.365234375 0.873046875
vt 0.317663840 0.889695466
vt 0.365234375 0.873046875
vt 0.365234375 0.889695466
vt 0.441316606 0.934522435
vt 0.452143318 0.921875000
vt 0.488281250 0.952810547
vt 0.441316606 0.934522435
vt 0.488281250 0.952810547
vt 0.477454505 0.965457982
vt 0.421875000 0.873046875
vt 0.421875000 0.889695466
vt 0.374304440 0.889695466
vt 0.421875000 0.873046875
vt 0.374304440 0.889695466
vt 0.374304440 0.873046875
vt 0.712890625 0.938523629
vt 0.712890625 0.921875000
vt 0.729539216 0.921875000
vt 0.712890625 0.938523629
vt 0.729539216 0.921875000
vt 0.729539216 0.938523629
vt 0.754929841 0.921875000
vt 0.754929841 0.938523588
vt 0.738281250 0.938523588
vt 0.754929841 0.921875000
vt 0.738281250 0.938523588
vt 0.738281250 0.921875000
vt 0.567133864 0.926245888
vt 0.583198489 0.921875000
vt 0.593750000 0.960655763
vt 0.567133864 0.926245888
vt 0.593750000 0.960655763
vt 0.577685408 0.965026617
vt 0.497117341 0.913237445
vt 0.480468750 0.913237445
vt 0.480468750 0.873046875
vt 0.497117341 0.913237445
vt 0.480468750 0.873046875
vt 0.497117341 0.873046875
vt 0.612841625 0.921875000
vt 0.628906250 0.926245888
vt 0.618354706 0.965026617
vt 0.612841625 0.921875000
vt 0.618354706 0.965026617
vt 0.602290114 0.960655763
vt 0.505859375 0.873046875
vt 0.522507966 0.873046875
vt 0.522507966 0.913237422
vt 0.505859375 0.873046875
vt 0.522507966 0.913237422
vt 0.505859375 0.913237422
vt 0.953125000 0.820759560
vt 0.953125000 0.800781250
vt 0.973103310 0.800781250
vt 0.953125000 0.820759560
vt 0.973103310 0.800781250
vt 0.973103310 0.820759560
vt 0.593750000 0.650390625
vt 0.613728310 0.650390625
vt 0.613728310 0.759518812
vt 0.593750000 0.650390625
vt 0.613728310 0.759518812
vt 0.593750000 0.759518812
vt 0.623046875 0.650390625
vt 0.643025185 0.650390625
vt 0.643025185 0.759518812
vt 0.623046875 0.650390625
vt 0.643025185 0.759518812
vt 0.623046875 0.759518812
vt 0.672322060 0.759518812
vt 0.652343750 0.759518812
vt 0.652343750 0.650390625
vt 0.672322060 0.759518812
vt 0.652343750 0.650390625
vt 0.672322060 0.650390625
vt 0.701618935 0.759518812
vt 0.681640625 0.759518812
vt 0.681640625 0.650390625
vt 0.701618935 0.759518812
vt 0.681640625 0.650390625
vt 0.701618935 0.650390625
vt 0.960937500 0.832031250
vt 0.980915810 0.832031250
vt 0.980915810 0.852009560
vt 0.960937500 0.832031250
vt 0.980915810 0.852009560
vt 0.960937500 0.852009560
vt 0.964843750 0.023884560
vt 0.964843750 0.003906250
vt 0.984822060 0.003906250
vt 0.964843750 0.023884560
vt 0.984822060 0.003906250
vt 0.984822060 0.023884560
vt 0.710937500 0.650390625
vt 0.730915810 0.650390625
vt 0.730915810 0.759518812
vt 0.710937500 0.650390625
vt 0.730915810 0.759518812
vt 0.710937500 0.759518812
vt 0.740234375 0.650390625
vt 0.760212685 0.650390625
vt 0.760212685 0.759518812
vt 0.740234375 0.650390625
vt 0.760212685 0.759518812
vt 0.740234375 0.759518812
vt 0.789509560 0.759518812
vt 0.769531250 0.759518812
vt 0.769531250 0.650390625
vt 0.789509560 0.759518812
vt 0.769531250 0.650390625
vt 0.789509560 0.650390625
vt 0.818806435 0.759518812
vt 0.798828125 0.759518812
vt 0.798828125 0.650390625
vt 0.818806435 0.759518812
vt 0.798828125 0.650390625
vt 0.818806435 0.650390625
vt 0.531250000 0.873046875
vt 0.551228310 0.873046875
vt 0.551228310 0.893025185
vt 0.531250000 0.873046875
vt 0.551228310 0.893025185
vt 0.531250000 0.893025185
vt 0.015914010 0.461589469
vt 0.046184279 0.427057693
vt 0.094337300 0.397404587
vt 0.015914010 0.461589469
vt 0.094337300 0.397404587
vt 0.157091568 0.374650957
vt 0.015914010 0.461589469
vt 0.157091568 0.374650957
vt 0.230170460 0.360347420
vt 0.015914010 0.461589469
vt 0.230170460 0.360347420
vt 0.308593750 0.355468750
vt 0.015914010 0.461589469
vt 0.308593750 0.355468750
vt 0.308593750 0.641824522
vt 0.015914010 0.461589469
vt 0.308593750 0.641824522
vt 0.230170460 0.636945852
vt 0.015914010 0.461589469
vt 0.230170460 0.636945852
vt 0.157091568 0.622642315
vt 0.015914010 0.461589469
vt 0.157091568 0.622642315
vt 0.094337300 0.599888685
vt 0.015914010 0.461589469
vt 0.094337300 0.599888685
vt 0.046184279 0.570235579
vt 0.015914010 0.461589469
vt 0.046184279 0.570235579
vt 0.015914010 0.535703803
vt 0.015914010 0.461589469
vt 0.015914010 0.535703803
vt 0.005589386 0.498646636
vt 0.621093750 0.498646636
vt 0.610769126 0.535703803
vt 0.580498857 0.570235579
vt 0.621093750 0.498646636
vt 0.580498857 0.570235579
vt 0.532345836 0.599888685
vt 0.621093750 0.498646636
vt 0.532345836 0.599888685
vt 0.469591568 0.622642315
vt 0.621093750 0.498646636
vt 0.469591568 0.622642315
vt 0.396512676 0.636945852
vt 0.621093750 0.498646636
vt 0.396512676 0.636945852
vt 0.318089386 0.641824522
vt 0.621093750 0.498646636
vt 0.318089386 0.641824522
vt 0.318089386 0.355468750
vt 0.621093750 0.498646636
vt 0.318089386 0.355468750
vt 0.396512676 0.360347420
vt 0.621093750 0.498646636
vt 0.396512676 0.360347420
vt 0.469591568 0.374650957
vt 0.621093750 0.498646636
vt 0.469591568 0.374650957
vt 0.532345836 0.397404587
vt 0.621093750 0.498646636
vt 0.532345836 0.397404587
vt 0.580498857 0.427057693
vt 0.621093750 0.498646636
vt 0.580498857 0.427057693
vt 0.610769126 0.461589469
vt 0.871093750 0.732671739
vt 0.871093750 0.695164267
vt 0.887742341 0.695164267
vt 0.871093750 0.732671739
vt 0.887742341 0.695164267
vt 0.887742341 0.732671739
vt 0.871093750 0.695164267
vt 0.871093750 0.650390625
vt 0.887742341 0.650390625
vt 0.871093750 0.695164267
vt 0.887742341 0.650390625
vt 0.887742341 0.695164267
vt 0.972656250 0.627401052
vt 0.972656250 0.572800561
vt 0.989304841 0.572800561
vt 0.972656250 0.627401052
vt 0.989304841 0.572800561
vt 0.989304841 0.627401052
vt 0.972656250 0.572800561
vt 0.972656250 0.506165862
vt 0.989304841 0.506165862
vt 0.972656250 0.572800561
vt 0.989304841 0.506165862
vt 0.989304841 0.572800561
vt 0.972656250 0.506165862
vt 0.972656250 0.432038020
vt 0.989304841 0.432038020
vt 0.972656250 0.506165862
vt 0.989304841 0.432038020
vt 0.989304841 0.506165862
vt 0.972656250 0.432038020
vt 0.972656250 0.355468750
vt 0.989304841 0.355468750
vt 0.972656250 0.432038020
vt 0.989304841 0.355468750
vt 0.989304841 0.432038020
vt 0.957031250 0.318807302
vt 0.957031250 0.242238032
vt 0.973679841 0.242238032
vt 0.957031250 0.318807302
vt 0.973679841 0.242238032
vt 0.973679841 0.318807302
vt 0.957031250 0.242238032
vt 0.957031250 0.168110191
vt 0.973679841 0.168110191
vt 0.957031250 0.242238032
vt 0.973679841 0.168110191
vt 0.973679841 0.242238032
vt 0.957031250 0.168110191
vt 0.957031250 0.101475491
vt 0.973679841 0.101475491
vt 0.957031250 0.168110191
vt 0.973679841 0.101475491
vt 0.973679841 0.168110191
vt 0.957031250 0.101475491
vt 0.957031250 0.046875000
vt 0.973679841 0.046875000
vt 0.957031250 0.101475491
vt 0.973679841 0.046875000
vt 0.973679841 0.101475491
vt 0.896484375 0.732671739
vt 0.896484375 0.687898097
vt 0.913132966 0.687898097
vt 0.896484375 0.732671739
vt 0.913132966 0.687898097
vt 0.913132966 0.732671739
vt 0.896484375 0.687898097
vt 0.896484375 0.650390625
vt 0.913132966 0.650390625
vt 0.896484375 0.687898097
vt 0.913132966 0.650390625
vt 0.913132966 0.687898097
vt 0.831389999 0.921875000
vt 0.831389999 0.936858717
vt 0.816406250 0.936858722
vt 0.831389999 0.921875000
vt 0.816406250 0.936858722
vt 0.816406250 0.921875005
vt 0.628906250 0.641749299
vt 0.756656592 0.355468750
vt 0.770339736 0.361574758
vt 0.628906250 0.641749299
vt 0.770339736 0.361574758
vt 0.645324159 0.641726917
vt 0.004535675 0.003906250
vt 0.318359375 0.022906055
vt 0.317453858 0.037862417
vt 0.004535675 0.003906250
vt 0.317453858 0.037862417
vt 0.004535675 0.018917419
vt 0.795714784 0.355491132
vt 0.921100039 0.636471725
vt 0.907416894 0.642577733
vt 0.795714784 0.355491132
vt 0.907416894 0.642577733
vt 0.779296875 0.355468750
vt 0.957031250 0.018917419
vt 0.650811694 0.037456858
vt 0.649906178 0.022500496
vt 0.957031250 0.018917419
vt 0.649906178 0.022500496
vt 0.957031250 0.003906250
vt 0.854827499 0.921875005
vt 0.854827499 0.936858722
vt 0.839843750 0.936858717
vt 0.854827499 0.921875005
vt 0.839843750 0.936858717
vt 0.839843750 0.921875000
vt 0.004757458 0.775406203
vt 0.284909617 0.650390625
vt 0.291015625 0.664073770
vt 0.004757458 0.775406203
vt 0.291015625 0.664073770
vt 0.004735076 0.791824111
vt 0.642093678 0.046875000
vt 0.949218750 0.065469246
vt 0.948313233 0.080425608
vt 0.642093678 0.046875000
vt 0.948313233 0.080425608
vt 0.642093678 0.061886169
vt 0.585937500 0.792193789
vt 0.298828517 0.664073770
vt 0.304934525 0.650390625
vt 0.585937500 0.792193789
vt 0.304934525 0.650390625
vt 0.585915118 0.775775881
vt 0.640625000 0.018917419
vt 0.327706817 0.037862417
vt 0.326801300 0.022906055
vt 0.640625000 0.018917419
vt 0.326801300 0.022906055
vt 0.640625000 0.003906250
f 1/1/1 2/2/2 3/3/3
v 0.3983110 -0.1164686 0.3427400
vn 0.00000000 0.00000000 -1.00000000
v 0.1576093 -0.3181981 0.3427400
vn 0.00000000 0.00000000 -1.00000000
v -0.0350000 -0.3897114 0.3427400
vn 0.00000000 0.00000000 -1.00000000
f 4/4/4 5/5/5 6/6/6
v 0.3983110 -0.1164686 0.3427400
vn 0.00000000 0.00000000 -1.00000000
v -0.0350000 -0.3897114 0.3427400
vn 0.00000000 0.00000000 -1.00000000
v -0.2592983 -0.4346666 0.3427400
vn 0.00000000 0.00000000 -1.00000000
f 7/7/7 8/8/8 9/9/9
v 0.3983110 -0.1164686 0.3427400
vn 0.00000000 0.00000000 -1.00000000
v -0.2592983 -0.4346666 0.3427400
vn 0.00000000 0.00000000 -1.00000000
v -0.5000000 -0.4500000 0.3427400
vn 0.00000000 0.00000000 -1.00000000
f 10/10/10 11/11/11 12/12/12
v 0.3983110 -0.1164686 0.3427400
vn -0.00000000 0.00000000 -1.00000000
v -0.5000000 -0.4500000 0.3427400
vn -0.00000000 0.00000000 -1.00000000
v -0.5000000 0.4500000 0.3427400
vn -0.00000000 0.00000000 -1.00000000
f 13/13/13 14/14/14 15/15/15
v 0.3983110 -0.1164686 0.3427400
vn 0.00000000 0.00000000 -1.00000000
v -0.5000000 0.4500000 0.3427400
vn 0.00000000 0.00000000 -1.00000000
v -0.2592983 0.4346666 0.3427400
vn 0.00000000 0.00000000 -1.00000000
f 16/16/16 17/17/17 18/18/18
v 0.3983110 -0.1164686 0.3427400
vn 0.00000000 0.00000000 -1.00000000
v -0.2592983 0.4346666 0.3427400
vn 0.00000000 0.00000000 -1.00000000
v -0.0350000 0.3897114 0.3427400
vn 0.00000000 0.00000000 -1.00000000
f 19/19/19 20/20/20 21/21/21
v 0.3983110 -0.1164686 0.3427400
vn 0.00000000 0.00000000 -1.00000000
v -0.0350000 0.3897114 0.3427400
vn 0.00000000 0.00000000 -1.00000000
v 0.1576093 0.3181981 0.3427400
vn 0.00000000 0.00000000 -1.00000000
f 22/22/22 23/23/23 24/24/24
v 0.3983110 -0.1164686 0.3427400
vn 0.00000000 0.00000000 -1.00000000
v 0.1576093 0.3181981 0.3427400
vn 0.00000000 0.00000000 -1.00000000
v 0.3054036 0.2250000 0.3427400
vn 0.00000000 0.00000000 -1.00000000
f 25/25/25 26/26/26 27/27/27
v 0.3983110 -0.1164686 0.3427400
vn 0.00000000 0.00000000 -1.00000000
v 0.3054036 0.2250000 0.3427400
vn 0.00000000 0.00000000 -1.00000000
v 0.3983110 0.1164686 0.3427400
vn 0.00000000 0.00000000 -1.00000000
f 28/28/28 29/29/29 30/30/30
v 0.3983110 -0.1164686 0.3427400
vn 0.00000000 0.00000000 -1.00000000
v 0.3983110 0.1164686 0.3427400
vn 0.00000000 0.00000000 -1.00000000
v 0.4300000 0.0000000 0.3427400
vn 0.00000000 0.00000000 -1.00000000
f 31/31/31 32/32/32 33/33/33
v 0.4300000 0.0000000 0.3827400
vn 0.00000000 0.00000000 1.00000000
v 0.3983110 0.1164686 0.3827400
vn 0.00000000 0.00000000 1.00000000
v 0.3054036 0.2250000 0.3827400
vn 0.00000000 0.00000000 1.00000000
f 34/34/34 35/35/35 36/36/36
v 0.4300000 0.0000000 0.3827400
vn 0.00000000 0.00000000 1.00000000
v 0.3054036 0.2250000 0.3827400
vn 0.00000000 0.00000000 1.00000000
v 0.1576093 0.3181981 0.3827400
vn 0.00000000 0.00000000 1.00000000
f 37/37/37 38/38/38 39/39/39
v 0.4300000 0.0000000 0.3827400
vn 0.00000000 0.00000000 1.00000000
v 0.1576093 0.3181981 0.3827400
vn 0.00000000 0.00000000 1.00000000
v -0.0350000 0.3897114 0.3827400
vn 0.00000000 0.00000000 1.00000000
f 40/40/40 41/41/41 42/42/42
v 0.4300000 0.0000000 0.3827400
vn 0.00000000 0.00000000 1.00000000
v -0.0350000 0.3897114 0.3827400
vn 0.00000000 0.00000000 1.00000000
v -0.2592983 0.4346666 0.3827400
vn 0.00000000 0.00000000 1.00000000
f 43/43/43 44/44/44 45/45/45
v 0.4300000 0.0000000 0.3827400
vn 0.00000000 0.00000000 1.00000000
v -0.2592983 0.4346666 0.3827400
vn 0.00000000 0.00000000 1.00000000
v -0.5000000 0.4500000 0.3827400
vn 0.00000000 0.00000000 1.00000000
f 46/46/46 47/47/47 48/48/48
v 0.4300000 0.0000000 0.3827400
vn 0.00000000 0.00000000 1.00000000
v -0.5000000 0.4500000 0.3827400
vn 0.00000000 0.00000000 1.00000000
v -0.5000000 -0.4500000 0.3827400
vn 0.00000000 0.00000000 1.00000000
f 49/49/49 50/50/50 51/51/51
v 0.4300000 0.0000000 0.3827400
vn 0.00000000 0.00000000 1.00000000
v -0.5000000 -0.4500000 0.3827400
vn 0.00000000 0.00000000 1.00000000
v -0.2592983 -0.4346666 0.3827400
vn 0.00000000 0.00000000 1.00000000
f 52/52/52 53/53/53 54/54/54
v 0.4300000 0.0000000 0.3827400
vn 0.00000000 0.00000000 1.00000000
v -0.2592983 -0.4346666 0.3827400
vn 0.00000000 0.00000000 1.00000000
v -0.0350000 -0.3897114 0.3827400
vn 0.00000000 0.00000000 1.00000000
f 55/55/55 56/56/56 57/57/57
v 0.4300000 0.0000000 0.3827400
vn 0.00000000 0.00000000 1.00000000
v -0.0350000 -0.3897114 0.3827400
vn 0.00000000 0.00000000 1.00000000
v 0.1576093 -0.3181981 0.3827400
vn 0.00000000 0.00000000 1.00000000
f 58/58/58 59/59/59 60/60/60
v 0.4300000 0.0000000 0.3827400
vn 0.00000000 0.00000000 1.00000000
v 0.1576093 -0.3181981 0.3827400
vn 0.00000000 0.00000000 1.00000000
v 0.3054036 -0.2250000 0.3827400
vn 0.00000000 0.00000000 1.00000000
f 61/61/61 62/62/62 63/63/63
v 0.4300000 0.0000000 0.3827400
vn 0.00000000 0.00000000 1.00000000
v 0.3054036 -0.2250000 0.3827400
vn 0.00000000 0.00000000 1.00000000
v 0.3983110 -0.1164686 0.3827400
vn 0.00000000 0.00000000 1.00000000
f 64/64/64 65/65/65 66/66/66
v 0.4300000 0.0000000 0.3427400
vn 0.96492173 0.26253772 0.00000000
v 0.3983110 0.1164686 0.3427400
vn 0.96492173 0.26253772 0.00000000
v 0.3983110 0.1164686 0.3827400
vn 0.96492173 0.26253772 0.00000000
f 67/67/67 68/68/68 69/69/69
v 0.4300000 0.0000000 0.3427400
vn 0.96492173 0.26253772 -0.00000000
v 0.3983110 0.1164686 0.3827400
vn 0.96492173 0.26253772 -0.00000000
v 0.4300000 0.0000000 0.3827400
vn 0.96492173 0.26253772 -0.00000000
f 70/70/70 71/71/71 72/72/72
v 0.3983110 0.1164686 0.3427400
vn 0.75966998 0.65030879 0.00000000
v 0.3054036 0.2250000 0.3427400
vn 0.75966998 0.65030879 0.00000000
v 0.3054036 0.2250000 0.3827400
vn 0.75966998 0.65030879 0.00000000
f 73/73/73 74/74/74 75/75/75
v 0.3983110 0.1164686 0.3427400
vn 0.75966998 0.65030879 -0.00000000
v 0.3054036 0.2250000 0.3827400
vn 0.75966998 0.65030879 -0.00000000
v 0.3983110 0.1164686 0.3827400
vn 0.75966998 0.65030879 -0.00000000
f 76/76/76 77/77/77 78/78/78
v 0.3054036 0.2250000 0.3427400
vn 0.53339656 0.84586530 0.00000000
v 0.1576093 0.3181981 0.3427400
vn 0.53339656 0.84586530 0.00000000
v 0.1576093 0.3181981 0.3827400
vn 0.53339656 0.84586530 0.00000000
f 79/79/79 80/80/80 81/81/81
v 0.3054036 0.2250000 0.3427400
vn 0.53339656 0.84586530 -0.00000000
v 0.1576093 0.3181981 0.3827400
vn 0.53339656 0.84586530 -0.00000000
v 0.3054036 0.2250000 0.3827400
vn 0.53339656 0.84586530 -0.00000000
f 82/82/82 83/83/83 84/84/84
v 0.1576093 0.3181981 0.3427400
vn 0.34807017 0.93746848 0.00000000
v -0.0350000 0.3897114 0.3427400
vn 0.34807017 0.93746848 0.00000000
v -0.0350000 0.3897114 0.3827400
vn 0.34807017 0.93746848 0.00000000
f 85/85/85 86/86/86 87/87/87
v 0.1576093 0.3181981 0.3427400
vn 0.34807017 0.93746848 -0.00000000
v -0.0350000 0.3897114 0.3827400
vn 0.34807017 0.93746848 -0.00000000
v 0.1576093 0.3181981 0.3827400
vn 0.34807017 0.93746848 -0.00000000
f 88/88/88 89/89/89 90/90/90
v -0.0350000 0.3897114 0.3427400
vn 0.19651768 0.98050028 0.00000000
v -0.2592983 0.4346666 0.3427400
vn 0.19651768 0.98050028 0.00000000
v -0.2592983 0.4346666 0.3827400
vn 0.19651768 0.98050028 0.00000000
f 91/91/91 92/92/92 93/93/93
v -0.0350000 0.3897114 0.3427400
vn 0.19651768 0.98050028 -0.00000000
v -0.2592983 0.4346666 0.3827400
vn 0.19651768 0.98050028 -0.00000000
v -0.0350000 0.3897114 0.3827400
vn 0.19651768 0.98050028 -0.00000000
f 94/94/94 95/95/95 96/96/96
v -0.2592983 0.4346666 0.3427400
vn 0.06357386 0.99797714 0.00000000
v -0.5000000 0.4500000 0.3427400
vn 0.06357386 0.99797714 0.00000000
v -0.5000000 0.4500000 0.3827400
vn 0.06357386 0.99797714 0.00000000
f 97/97/97 98/98/98 99/99/99
v -0.2592983 0.4346666 0.3427400
vn 0.06357386 0.99797714 -0.00000000
v -0.5000000 0.4500000 0.3827400
vn 0.06357386 0.99797714 -0.00000000
v -0.2592983 0.4346666 0.3827400
vn 0.06357386 0.99797714 -0.00000000
f 100/100/100 101/101/101 102/102/102
v -0.5000000 -0.4500000 0.3427400
vn 0.06357386 -0.99797714 0.00000000
v -0.2592983 -0.4346666 0.3427400
vn 0.06357386 -0.99797714 0.00000000
v -0.2592983 -0.4346666 0.3827400
vn 0.06357386 -0.99797714 0.00000000
f 103/103/103 104/104/104 105/105/105
v -0.5000000 -0.4500000 0.3427400
vn 0.06357386 -0.99797714 0.00000000
v -0.2592983 -0.4346666 0.3827400
vn 0.06357386 -0.99797714 0.00000000
v -0.5000000 -0.4500000 0.3827400
vn 0.06357386 -0.99797714 0.00000000
f 106/106/106 107/107/107 108/108/108
v -0.2592983 -0.4346666 0.3427400
vn 0.19651768 -0.98050028 0.00000000
v -0.0350000 -0.3897114 0.3427400
vn 0.19651768 -0.98050028 0.00000000
v -0.0350000 -0.3897114 0.3827400
vn 0.19651768 -0.98050028 0.00000000
f 109/109/109 110/110/110 111/111/111
v -0.2592983 -0.4346666 0.3427400
vn 0.19651768 -0.98050028 0.00000000
v -0.0350000 -0.3897114 0.3827400
vn 0.19651768 -0.98050028 0.00000000
v -0.2592983 -0.4346666 0.3827400
vn 0.19651768 -0.98050028 0.00000000
f 112/112/112 113/113/113 114/114/114
v -0.0350000 -0.3897114 0.3427400
vn 0.34807017 -0.93746848 0.00000000
v 0.1576093 -0.3181981 0.3427400
vn 0.34807017 -0.93746848 0.00000000
v 0.1576093 -0.3181981 0.3827400
vn 0.34807017 -0.93746848 0.00000000
f 115/115/115 116/116/116 117/117/117
v -0.0350000 -0.3897114 0.3427400
vn 0.34807017 -0.93746848 0.00000000
v 0.1576093 -0.3181981 0.3827400
vn 0.34807017 -0.93746848 0.00000000
v -0.0350000 -0.3897114 0.3827400
vn 0.34807017 -0.93746848 0.00000000
f 118/118/118 119/119/119 120/120/120
v 0.1576093 -0.3181981 0.3427400
vn 0.53339656 -0.84586530 0.00000000
v 0.3054036 -0.2250000 0.3427400
vn 0.53339656 -0.84586530 0.00000000
v 0.3054036 -0.2250000 0.3827400
vn 0.53339656 -0.84586530 0.00000000
f 121/121/121 122/122/122 123/123/123
v 0.1576093 -0.3181981 0.3427400
vn 0.53339656 -0.84586530 0.00000000
v 0.3054036 -0.2250000 0.3827400
vn 0.53339656 -0.84586530 0.00000000
v 0.1576093 -0.3181981 0.3827400
vn 0.53339656 -0.84586530 0.00000000
f 124/124/124 125/125/125 126/126/126
v 0.3054036 -0.2250000 0.3427400
vn 0.75966998 -0.65030879 0.00000000
v 0.3983110 -0.1164686 0.3427400
vn 0.75966998 -0.65030879 0.00000000
v 0.3983110 -0.1164686 0.3827400
vn 0.75966998 -0.65030879 0.00000000
f 127/127/127 128/128/128 129/129/129
v 0.3054036 -0.2250000 0.3427400
vn 0.75966998 -0.65030879 0.00000000
v 0.3983110 -0.1164686 0.3827400
vn 0.75966998 -0.65030879 0.00000000
v 0.3054036 -0.2250000 0.3827400
vn 0.75966998 -0.65030879 0.00000000
f 130/130/130 131/131/131 132/132/132
v 0.3983110 -0.1164686 0.3427400
vn 0.96492173 -0.26253772 0.00000000
v 0.4300000 0.0000000 0.3427400
vn 0.96492173 -0.26253772 0.00000000
v 0.4300000 0.0000000 0.3827400
vn 0.96492173 -0.26253772 0.00000000
f 133/133/133 134/134/134 135/135/135
v 0.3983110 -0.1164686 0.3427400
vn 0.96492173 -0.26253772 0.00000000
v 0.4300000 0.0000000 0.3827400
vn 0.96492173 -0.26253772 0.00000000
v 0.3983110 -0.1164686 0.3827400
vn 0.96492173 -0.26253772 0.00000000
f 136/136/136 137/137/137 138/138/138
v 0.4058769 -0.0065634 0.2577400
vn 0.26253768 -0.96492174 0.00000000
v 0.4541230 0.0065634 0.2577400
vn 0.26253768 -0.96492174 0.00000000
v 0.4541230 0.0065634 0.3077400
vn 0.26253768 -0.96492174 0.00000000
f 139/139/139 140/140/140 141/141/141
v 0.4058769 -0.0065634 0.2577400
vn 0.26253768 -0.96492174 0.00000000
v 0.4541230 0.0065634 0.3077400
vn 0.26253768 -0.96492174 0.00000000
v 0.4058769 -0.0065634 0.3077400
vn 0.26253768 -0.96492174 0.00000000
f 142/142/142 143/143/143 144/144/144
v 0.3741879 0.1099051 0.3077400
vn -0.26253731 0.96492184 0.00000000
v 0.4224341 0.1230320 0.3077400
vn -0.26253731 0.96492184 0.00000000
v 0.4224341 0.1230320 0.2577400
vn -0.26253731 0.96492184 0.00000000
f 145/145/145 146/146/146 147/147/147
v 0.3741879 0.1099051 0.3077400
vn -0.26253731 0.96492184 0.00000000
v 0.4224341 0.1230320 0.2577400
vn -0.26253731 0.96492184 0.00000000
v 0.3741879 0.1099051 0.2577400
vn -0.26253731 0.96492184 0.00000000
f 148/148/148 149/149/149 150/150/150
v 0.4058769 -0.0065634 0.3077400
vn 0.00000000 0.00000000 1.00000000
v 0.4541230 0.0065634 0.3077400
vn 0.00000000 0.00000000 1.00000000
v 0.4224341 0.1230320 0.3077400
vn 0.00000000 0.00000000 1.00000000
f 151/151/151 152/152/152 153/153/153
v 0.4058769 -0.0065634 0.3077400
vn 0.00000000 -0.00000000 1.00000000
v 0.4224341 0.1230320 0.3077400
vn 0.00000000 -0.00000000 1.00000000
v 0.3741879 0.1099051 0.3077400
vn 0.00000000 -0.00000000 1.00000000
f 154/154/154 155/155/155 156/156/156
v 0.4541230 0.0065634 0.3077400
vn 0.96492185 0.26253727 0.00000000
v 0.4541230 0.0065634 0.2577400
vn 0.96492185 0.26253727 0.00000000
v 0.4224341 0.1230320 0.2577400
vn 0.96492185 0.26253727 0.00000000
f 157/157/157 158/158/158 159/159/159
v 0.4541230 0.0065634 0.3077400
vn 0.96492185 0.26253727 0.00000000
v 0.4224341 0.1230320 0.2577400
vn 0.96492185 0.26253727 0.00000000
v 0.4224341 0.1230320 0.3077400
vn 0.96492185 0.26253727 0.00000000
f 160/160/160 161/161/161 162/162/162
v 0.4541230 0.0065634 0.2577400
vn -0.00000000 0.00000000 -1.00000000
v 0.4058769 -0.0065634 0.2577400
vn -0.00000000 0.00000000 -1.00000000
v 0.3741879 0.1099051 0.2577400
vn -0.00000000 0.00000000 -1.00000000
f 163/163/163 164/164/164 165/165/165
v 0.4541230 0.0065634 0.2577400
vn 0.00000000 0.00000000 -1.00000000
v 0.3741879 0.1099051 0.2577400
vn 0.00000000 0.00000000 -1.00000000
v 0.4224341 0.1230320 0.2577400
vn 0.00000000 0.00000000 -1.00000000
f 166/166/166 167/167/167 168/168/168
v 0.4058769 -0.0065634 0.2577400
vn -0.96492173 -0.26253772 0.00000000
v 0.4058769 -0.0065634 0.3077400
vn -0.96492173 -0.26253772 0.00000000
v 0.3741879 0.1099051 0.3077400
vn -0.96492173 -0.26253772 0.00000000
f 169/169/169 170/170/170 171/171/171
v 0.4058769 -0.0065634 0.2577400
vn -0.96492173 -0.26253772 0.00000000
v 0.3741879 0.1099051 0.3077400
vn -0.96492173 -0.26253772 0.00000000
v 0.3741879 0.1099051 0.2577400
vn -0.96492173 -0.26253772 0.00000000
f 172/172/172 173/173/173 174/174/174
v 0.3793193 0.1002108 0.2577400
vn 0.65030855 -0.75967018 0.00000000
v 0.4173028 0.1327263 0.2577400
vn 0.65030855 -0.75967018 0.00000000
v 0.4173028 0.1327263 0.3077400
vn 0.65030855 -0.75967018 0.00000000
f 175/175/175 176/176/176 177/177/177
v 0.3793193 0.1002108 0.2577400
vn 0.65030855 -0.75967018 0.00000000
v 0.4173028 0.1327263 0.3077400
vn 0.65030855 -0.75967018 0.00000000
v 0.3793193 0.1002108 0.3077400
vn 0.65030855 -0.75967018 0.00000000
f 178/178/178 179/179/179 180/180/180
v 0.2864119 0.2087423 0.3077400
vn -0.65030914 0.75966968 0.00000000
v 0.3243954 0.2412577 0.3077400
vn -0.65030914 0.75966968 0.00000000
v 0.3243954 0.2412577 0.2577400
vn -0.65030914 0.75966968 0.00000000
f 181/181/181 182/182/182 183/183/183
v 0.2864119 0.2087423 0.3077400
vn -0.65030914 0.75966968 0.00000000
v 0.3243954 0.2412577 0.2577400
vn -0.65030914 0.75966968 0.00000000
v 0.2864119 0.2087423 0.2577400
vn -0.65030914 0.75966968 0.00000000
f 184/184/184 185/185/185 186/186/186
v 0.3793193 0.1002108 0.3077400
vn 0.00000000 -0.00000000 1.00000000
v 0.4173028 0.1327263 0.3077400
vn 0.00000000 -0.00000000 1.00000000
v 0.3243954 0.2412577 0.3077400
vn 0.00000000 -0.00000000 1.00000000
f 187/187/187 188/188/188 189/189/189
v 0.3793193 0.1002108 0.3077400
vn 0.00000000 0.00000000 1.00000000
v 0.3243954 0.2412577 0.3077400
vn 0.00000000 0.00000000 1.00000000
v 0.2864119 0.2087423 0.3077400
vn 0.00000000 0.00000000 1.00000000
f 190/190/190 191/191/191 192/192/192
v 0.4173028 0.1327263 0.3077400
vn 0.75966979 0.65030901 0.00000000
v 0.4173028 0.1327263 0.2577400
vn 0.75966979 0.65030901 0.00000000
v 0.3243954 0.2412577 0.2577400
vn 0.75966979 0.65030901 0.00000000
f 193/193/193 194/194/194 195/195/195
v 0.4173028 0.1327263 0.3077400
vn 0.75966979 0.65030901 0.00000000
v 0.3243954 0.2412577 0.2577400
vn 0.75966979 0.65030901 0.00000000
v 0.3243954 0.2412577 0.3077400
vn 0.75966979 0.65030901 0.00000000
f 196/196/196 197/197/197 198/198/198
v 0.4173028 0.1327263 0.2577400
vn -0.00000000 0.00000000 -1.00000000
v 0.3793193 0.1002108 0.2577400
vn -0.00000000 0.00000000 -1.00000000
v 0.2864119 0.2087423 0.2577400
vn -0.00000000 0.00000000 -1.00000000
f 199/199/199 200/200/200 201/201/201
v 0.4173028 0.1327263 0.2577400
vn 0.00000000 0.00000000 -1.00000000
v 0.2864119 0.2087423 0.2577400
vn 0.00000000 0.00000000 -1.00000000
v 0.3243954 0.2412577 0.2577400
vn 0.00000000 0.00000000 -1.00000000
f 202/202/202 203/203/203 204/204/204
v 0.3793193 0.1002108 0.2577400
vn -0.75967000 -0.65030877 0.00000000
v 0.3793193 0.1002108 0.3077400
vn -0.75967000 -0.65030877 0.00000000
v 0.2864119 0.2087423 0.3077400
vn -0.75967000 -0.65030877 0.00000000
f 205/205/205 206/206/206 207/207/207
v 0.3793193 0.1002108 0.2577400
vn -0.75967000 -0.65030877 0.00000000
v 0.2864119 0.2087423 0.3077400
vn -0.75967000 -0.65030877 0.00000000
v 0.2864119 0.2087423 0.2577400
vn -0.75967000 -0.65030877 0.00000000
f 208/208/208 209/209/209 210/210/210
v 0.2920687 0.2038534 0.2577400
vn 0.84586555 -0.53339616 0.00000000
v 0.3187385 0.2461466 0.2577400
vn 0.84586555 -0.53339616 0.00000000
v 0.3187385 0.2461466 0.3077400
vn 0.84586555 -0.53339616 0.00000000
f 211/211/211 212/212/212 213/213/213
v 0.2920687 0.2038534 0.2577400
vn 0.84586555 -0.53339616 0.00000000
v 0.3187385 0.2461466 0.3077400
vn 0.84586555 -0.53339616 0.00000000
v 0.2920687 0.2038534 0.3077400
vn 0.84586555 -0.53339616 0.00000000
f 214/214/214 215/215/215 216/216/216
v 0.1442744 0.2970514 0.3077400
vn -0.84586547 0.53339629 0.00000000
v 0.1709442 0.3393447 0.3077400
vn -0.84586547 0.53339629 0.00000000
v 0.1709442 0.3393447 0.2577400
vn -0.84586547 0.53339629 0.00000000
f 217/217/217 218/218/218 219/219/219
v 0.1442744 0.2970514 0.3077400
vn -0.84586547 0.53339629 0.00000000
v 0.1709442 0.3393447 0.2577400
vn -0.84586547 0.53339629 0.00000000
v 0.1442744 0.2970514 0.2577400
vn -0.84586547 0.53339629 0.00000000
f 220/220/220 221/221/221 222/222/222
v 0.2920687 0.2038534 0.3077400
vn 0.00000000 -0.00000000 1.00000000
v 0.3187385 0.2461466 0.3077400
vn 0.00000000 -0.00000000 1.00000000
v 0.1709442 0.3393447 0.3077400
vn 0.00000000 -0.00000000 1.00000000
f 223/223/223 224/224/224 225/225/225
v 0.2920687 0.2038534 0.3077400
vn 0.00000000 0.00000000 1.00000000
v 0.1709442 0.3393447 0.3077400
vn 0.00000000 0.00000000 1.00000000
v 0.1442744 0.2970514 0.3077400
vn 0.00000000 0.00000000 1.00000000
f 226/226/226 227/227/227 228/228/228
v 0.3187385 0.2461466 0.3077400
vn 0.53339665 0.84586524 0.00000000
v 0.3187385 0.2461466 0.2577400
vn 0.53339665 0.84586524 0.00000000
v 0.1709442 0.3393447 0.2577400
vn 0.53339665 0.84586524 0.00000000
f 229/229/229 230/230/230 231/231/231
v 0.3187385 0.2461466 0.3077400
vn 0.53339665 0.84586524 0.00000000
v 0.1709442 0.3393447 0.2577400
vn 0.53339665 0.84586524 0.00000000
v 0.1709442 0.3393447 0.3077400
vn 0.53339665 0.84586524 0.00000000
f 232/232/232 233/233/233 234/234/234
v 0.3187385 0.2461466 0.2577400
vn -0.00000000 0.00000000 -1.00000000
v 0.2920687 0.2038534 0.2577400
vn -0.00000000 0.00000000 -1.00000000
v 0.1442744 0.2970514 0.2577400
vn -0.00000000 0.00000000 -1.00000000
f 235/235/235 236/236/236 237/237/237
v 0.3187385 0.2461466 0.2577400
vn 0.00000000 0.00000000 -1.00000000
v 0.1442744 0.2970514 0.2577400
vn 0.00000000 0.00000000 -1.00000000
v 0.1709442 0.3393447 0.2577400
vn 0.00000000 0.00000000 -1.00000000
f 238/238/238 239/239/239 240/240/240
v 0.2920687 0.2038534 0.2577400
vn -0.53339671 -0.84586521 0.00000000
v 0.2920687 0.2038534 0.3077400
vn -0.53339671 -0.84586521 0.00000000
v 0.1442744 0.2970514 0.3077400
vn -0.53339671 -0.84586521 0.00000000
f 241/241/241 242/242/242 243/243/243
v 0.2920687 0.2038534 0.2577400
vn -0.53339671 -0.84586521 0.00000000
v 0.1442744 0.2970514 0.3077400
vn -0.53339671 -0.84586521 0.00000000
v 0.1442744 0.2970514 0.2577400
vn -0.53339671 -0.84586521 0.00000000
f 244/244/244 245/245/245 246/246/246
v 0.1489075 0.2947613 0.2577400
vn 0.93746825 -0.34807080 0.00000000
v 0.1663111 0.3416348 0.2577400
vn 0.93746825 -0.34807080 0.00000000
v 0.1663111 0.3416348 0.3077400
vn 0.93746825 -0.34807080 0.00000000
f 247/247/247 248/248/248 249/249/249
v 0.1489075 0.2947613 0.2577400
vn 0.93746825 -0.34807080 0.00000000
v 0.1663111 0.3416348 0.3077400
vn 0.93746825 -0.34807080 0.00000000
v 0.1489075 0.2947613 0.3077400
vn 0.93746825 -0.34807080 0.00000000
f 250/250/250 251/251/251 252/252/252
v -0.0437017 0.3662747 0.3077400
vn -0.93746864 0.34806975 0.00000000
v -0.0262983 0.4131481 0.3077400
vn -0.93746864 0.34806975 0.00000000
v -0.0262983 0.4131481 0.2577400
vn -0.93746864 0.34806975 0.00000000
f 253/253/253 254/254/254 255/255/255
v -0.0437017 0.3662747 0.3077400
vn -0.93746864 0.34806975 0.00000000
v -0.0262983 0.4131481 0.2577400
vn -0.93746864 0.34806975 0.00000000
v -0.0437017 0.3662747 0.2577400
vn -0.93746864 0.34806975 0.00000000
f 256/256/256 257/257/257 258/258/258
v 0.1489075 0.2947613 0.3077400
vn 0.00000000 -0.00000000 1.00000000
v 0.1663111 0.3416348 0.3077400
vn 0.00000000 -0.00000000 1.00000000
v -0.0262983 0.4131481 0.3077400
vn 0.00000000 -0.00000000 1.00000000
f 259/259/259 260/260/260 261/261/261
v 0.1489075 0.2947613 0.3077400
vn 0.00000000 0.00000000 1.00000000
v -0.0262983 0.4131481 0.3077400
vn 0.00000000 0.00000000 1.00000000
v -0.0437017 0.3662747 0.3077400
vn 0.00000000 0.00000000 1.00000000
f 262/262/262 263/263/263 264/264/264
v 0.1663111 0.3416348 0.3077400
vn 0.34807007 0.93746852 0.00000000
v 0.1663111 0.3416348 0.2577400
vn 0.34807007 0.93746852 0.00000000
v -0.0262983 0.4131481 0.2577400
vn 0.34807007 0.93746852 0.00000000
f 265/265/265 266/266/266 267/267/267
v 0.1663111 0.3416348 0.3077400
vn 0.34807007 0.93746852 0.00000000
v -0.0262983 0.4131481 0.2577400
vn 0.34807007 0.93746852 0.00000000
v -0.0262983 0.4131481 0.3077400
vn 0.34807007 0.93746852 0.00000000
f 268/268/268 269/269/269 270/270/270
v 0.1663111 0.3416348 0.2577400
vn -0.00000000 0.00000000 -1.00000000
v 0.1489075 0.2947613 0.2577400
vn -0.00000000 0.00000000 -1.00000000
v -0.0437017 0.3662747 0.2577400
vn -0.00000000 0.00000000 -1.00000000
f 271/271/271 272/272/272 273/273/273
v 0.1663111 0.3416348 0.2577400
vn 0.00000000 0.00000000 -1.00000000
v -0.0437017 0.3662747 0.2577400
vn 0.00000000 0.00000000 -1.00000000
v -0.0262983 0.4131481 0.2577400
vn 0.00000000 0.00000000 -1.00000000
f 274/274/274 275/275/275 276/276/276
v 0.1489075 0.2947613 0.2577400
vn -0.34807017 -0.93746848 0.00000000
v 0.1489075 0.2947613 0.3077400
vn -0.34807017 -0.93746848 0.00000000
v -0.0437017 0.3662747 0.3077400
vn -0.34807017 -0.93746848 0.00000000
f 277/277/277 278/278/278 279/279/279
v 0.1489075 0.2947613 0.2577400
vn -0.34807017 -0.93746848 0.00000000
v -0.0437017 0.3662747 0.3077400
vn -0.34807017 -0.93746848 0.00000000
v -0.0437017 0.3662747 0.2577400
vn -0.34807017 -0.93746848 0.00000000
f 280/280/280 281/281/281 282/282/282
v -0.0399129 0.3651989 0.2577400
vn 0.98050029 -0.19651765 0.00000000
v -0.0300871 0.4142239 0.2577400
vn 0.98050029 -0.19651765 0.00000000
v -0.0300871 0.4142239 0.3077400
vn 0.98050029 -0.19651765 0.00000000
f 283/283/283 284/284/284 285/285/285
v -0.0399129 0.3651989 0.2577400
vn 0.98050029 -0.19651765 0.00000000
v -0.0300871 0.4142239 0.3077400
vn 0.98050029 -0.19651765 0.00000000
v -0.0399129 0.3651989 0.3077400
vn 0.98050029 -0.19651765 0.00000000
f 286/286/286 287/287/287 288/288/288
v -0.2642112 0.4101541 0.3077400
vn -0.98050035 0.19651736 0.00000000
v -0.2543854 0.4591791 0.3077400
vn -0.98050035 0.19651736 0.00000000
v -0.2543854 0.4591791 0.2577400
vn -0.98050035 0.19651736 0.00000000
f 289/289/289 290/290/290 291/291/291
v -0.2642112 0.4101541 0.3077400
vn -0.98050035 0.19651736 0.00000000
v -0.2543854 0.4591791 0.2577400
vn -0.98050035 0.19651736 0.00000000
v -0.2642112 0.4101541 0.2577400
vn -0.98050035 0.19651736 0.00000000
f 292/292/292 293/293/293 294/294/294
v -0.0399129 0.3651989 0.3077400
vn 0.00000000 -0.00000000 1.00000000
v -0.0300871 0.4142239 0.3077400
vn 0.00000000 -0.00000000 1.00000000
v -0.2543854 0.4591791 0.3077400
vn 0.00000000 -0.00000000 1.00000000
f 295/295/295 296/296/296 297/297/297
v -0.0399129 0.3651989 0.3077400
vn 0.00000000 0.00000000 1.00000000
v -0.2543854 0.4591791 0.3077400
vn 0.00000000 0.00000000 1.00000000
v -0.2642112 0.4101541 0.3077400
vn 0.00000000 0.00000000 1.00000000
f 298/298/298 299/299/299 300/300/300
v -0.0300871 0.4142239 0.3077400
vn 0.19651768 0.98050028 0.00000000
v -0.0300871 0.4142239 0.2577400
vn 0.19651768 0.98050028 0.00000000
v -0.2543854 0.4591791 0.2577400
vn 0.19651768 0.98050028 0.00000000
f 301/301/301 302/302/302 303/303/303
v -0.0300871 0.4142239 0.3077400
vn 0.19651768 0.98050028 0.00000000
v -0.2543854 0.4591791 0.2577400
vn 0.19651768 0.98050028 0.00000000
v -0.2543854 0.4591791 0.3077400
vn 0.19651768 0.98050028 0.00000000
f 304/304/304 305/305/305 306/306/306
v -0.0300871 0.4142239 0.2577400
vn 0.00000000 0.00000000 -1.00000000
v -0.0399129 0.3651989 0.2577400
vn 0.00000000 0.00000000 -1.00000000
v -0.2642112 0.4101541 0.2577400
vn 0.00000000 0.00000000 -1.00000000
f 307/307/307 308/308/308 309/309/309
v -0.0300871 0.4142239 0.2577400
vn -0.00000000 0.00000000 -1.00000000
v -0.2642112 0.4101541 0.2577400
vn -0.00000000 0.00000000 -1.00000000
v -0.2543854 0.4591791 0.2577400
vn -0.00000000 0.00000000 -1.00000000
f 310/310/310 311/311/311 312/312/312
v -0.0399129 0.3651989 0.2577400
vn -0.19651769 -0.98050028 0.00000000
v -0.0399129 0.3651989 0.3077400
vn -0.19651769 -0.98050028 0.00000000
v -0.2642112 0.4101541 0.3077400
vn -0.19651769 -0.98050028 0.00000000
f 313/313/313 314/314/314 315/315/315
v -0.0399129 0.3651989 0.2577400
vn -0.19651769 -0.98050028 0.00000000
v -0.2642112 0.4101541 0.3077400
vn -0.19651769 -0.98050028 0.00000000
v -0.2642112 0.4101541 0.2577400
vn -0.19651769 -0.98050028 0.00000000
f 316/316/316 317/317/317 318/318/318
v -0.2608876 0.4097172 0.2577400
vn 0.99797712 -0.06357405 0.00000000
v -0.2577089 0.4596160 0.2577400
vn 0.99797712 -0.06357405 0.00000000
v -0.2577089 0.4596160 0.3077400
vn 0.99797712 -0.06357405 0.00000000
f 319/319/319 320/320/320 321/321/321
v -0.2608876 0.4097172 0.2577400
vn 0.99797712 -0.06357405 0.00000000
v -0.2577089 0.4596160 0.3077400
vn 0.99797712 -0.06357405 0.00000000
v -0.2608876 0.4097172 0.3077400
vn 0.99797712 -0.06357405 0.00000000
f 322/322/322 323/323/323 324/324/324
v -0.5000000 0.4500000 0.3077400
vn -0.99797713 0.06357399 0.00000000
v -0.4984107 0.4749494 0.3077400
vn -0.99797713 0.06357399 0.00000000
v -0.4984107 0.4749494 0.2577400
vn -0.99797713 0.06357399 0.00000000
f 325/325/325 326/326/326 327/327/327
v -0.5000000 0.4500000 0.3077400
vn -0.99797713 0.06357399 0.00000000
v -0.4984107 0.4749494 0.2577400
vn -0.99797713 0.06357399 0.00000000
v -0.5000000 0.4500000 0.2577400
vn -0.99797713 0.06357399 0.00000000
f 328/328/328 329/329/329 330/330/330
v -0.2608876 0.4097172 0.3077400
vn 0.00000000 -0.00000000 1.00000000
v -0.2577089 0.4596160 0.3077400
vn 0.00000000 -0.00000000 1.00000000
v -0.4984107 0.4749494 0.3077400
vn 0.00000000 -0.00000000 1.00000000
f 331/331/331 332/332/332 333/333/333
v -0.2608876 0.4097172 0.3077400
vn 0.00000000 0.00000000 1.00000000
v -0.4984107 0.4749494 0.3077400
vn 0.00000000 0.00000000 1.00000000
v -0.5000000 0.4500000 0.3077400
vn 0.00000000 0.00000000 1.00000000
f 334/334/334 335/335/335 336/336/336
v -0.2608876 0.4097172 0.3077400
vn 0.00000000 0.00000000 1.00000000
v -0.5000000 0.4500000 0.3077400
vn 0.00000000 0.00000000 1.00000000
v -0.5000000 0.4249493 0.3077400
vn 0.00000000 0.00000000 1.00000000
f 337/337/337 338/338/338 339/339/339
v -0.2577089 0.4596160 0.3077400
vn 0.06357398 0.99797713 0.00000000
v -0.2577089 0.4596160 0.2577400
vn 0.06357398 0.99797713 0.00000000
v -0.4984107 0.4749494 0.2577400
vn 0.06357398 0.99797713 0.00000000
f 340/340/340 341/341/341 342/342/342
v -0.2577089 0.4596160 0.3077400
vn 0.06357398 0.99797713 0.00000000
v -0.4984107 0.4749494 0.2577400
vn 0.06357398 0.99797713 0.00000000
v -0.4984107 0.4749494 0.3077400
vn 0.06357398 0.99797713 0.00000000
f 343/343/343 344/344/344 345/345/345
v -0.2577089 0.4596160 0.2577400
vn 0.00000000 0.00000000 -1.00000000
v -0.2608876 0.4097172 0.2577400
vn 0.00000000 0.00000000 -1.00000000
v -0.5000000 0.4249493 0.2577400
vn 0.00000000 0.00000000 -1.00000000
f 346/346/346 347/347/347 348/348/348
v -0.2577089 0.4596160 0.2577400
vn 0.00000000 0.00000000 -1.00000000
v -0.5000000 0.4249493 0.2577400
vn 0.00000000 0.00000000 -1.00000000
v -0.5000000 0.4500000 0.2577400
vn 0.00000000 0.00000000 -1.00000000
f 349/349/349 350/350/350 351/351/351
v -0.2577089 0.4596160 0.2577400
vn -0.00000000 0.00000000 -1.00000000
v -0.5000000 0.4500000 0.2577400
vn -0.00000000 0.00000000 -1.00000000
v -0.4984107 0.4749494 0.2577400
vn -0.00000000 0.00000000 -1.00000000
f 352/352/352 353/353/353 354/354/354
v -0.2608876 0.4097172 0.2577400
vn -0.06357398 -0.99797713 0.00000000
v -0.2608876 0.4097172 0.3077400
vn -0.06357398 -0.99797713 0.00000000
v -0.5000000 0.4249493 0.3077400
vn -0.06357398 -0.99797713 0.00000000
f 355/355/355 356/356/356 357/357/357
v -0.2608876 0.4097172 0.2577400
vn -0.06357398 -0.99797713 0.00000000
v -0.5000000 0.4249493 0.3077400
vn -0.06357398 -0.99797713 0.00000000
v -0.5000000 0.4249493 0.2577400
vn -0.06357398 -0.99797713 0.00000000
f 358/358/358 359/359/359 360/360/360
v -0.4984107 0.4250506 0.2577400
vn 0.99797713 0.06357399 0.00000000
v -0.5000000 0.4500000 0.2577400
vn 0.99797713 0.06357399 0.00000000
v -0.5000000 0.4500000 0.3077400
vn 0.99797713 0.06357399 0.00000000
f 361/361/361 362/362/362 363/363/363
v -0.4984107 0.4250506 0.2577400
vn 0.99797713 0.06357399 -0.00000000
v -0.5000000 0.4500000 0.3077400
vn 0.99797713 0.06357399 -0.00000000
v -0.4984107 0.4250506 0.3077400
vn 0.99797713 0.06357399 -0.00000000
f 364/364/364 365/365/365 366/366/366
v -0.4984107 0.4250506 0.3077400
vn 0.00000000 0.00000000 1.00000000
v -0.5000000 0.4500000 0.3077400
vn 0.00000000 0.00000000 1.00000000
v -0.5000000 0.4249493 0.3077400
vn 0.00000000 0.00000000 1.00000000
f 367/367/367 368/368/368 369/369/369
v -0.5000000 0.4500000 0.2577400
vn 0.00000000 0.00000000 -1.00000000
v -0.4984107 0.4250506 0.2577400
vn 0.00000000 0.00000000 -1.00000000
v -0.5000000 0.4249493 0.2577400
vn 0.00000000 0.00000000 -1.00000000
f 370/370/370 371/371/371 372/372/372
v -0.4984107 0.4250506 0.2577400
vn 0.06357398 -0.99797713 0.00000000
v -0.4984107 0.4250506 0.3077400
vn 0.06357398 -0.99797713 0.00000000
v -0.5000000 0.4249493 0.3077400
vn 0.06357398 -0.99797713 0.00000000
f 373/373/373 374/374/374 375/375/375
v -0.4984107 0.4250506 0.2577400
vn 0.06357398 -0.99797713 0.00000000
v -0.5000000 0.4249493 0.3077400
vn 0.06357398 -0.99797713 0.00000000
v -0.5000000 0.4249493 0.2577400
vn 0.06357398 -0.99797713 0.00000000
f 376/376/376 377/377/377 378/378/378
v -0.4984107 -0.4250506 0.3077400
vn 0.99797713 -0.06357399 0.00000000
v -0.5000000 -0.4500000 0.3077400
vn 0.99797713 -0.06357399 0.00000000
v -0.5000000 -0.4500000 0.2577400
vn 0.99797713 -0.06357399 0.00000000
f 379/379/379 380/380/380 381/381/381
v -0.4984107 -0.4250506 0.3077400
vn 0.99797713 -0.06357399 0.00000000
v -0.5000000 -0.4500000 0.2577400
vn 0.99797713 -0.06357399 0.00000000
v -0.4984107 -0.4250506 0.2577400
vn 0.99797713 -0.06357399 0.00000000
f 382/382/382 383/383/383 384/384/384
v -0.5000000 -0.4500000 0.3077400
vn 0.00000000 0.00000000 1.00000000
v -0.4984107 -0.4250506 0.3077400
vn 0.00000000 0.00000000 1.00000000
v -0.5000000 -0.4249493 0.3077400
vn 0.00000000 0.00000000 1.00000000
f 385/385/385 386/386/386 387/387/387
v -0.5000000 -0.4249493 0.2577400
vn 0.00000000 0.00000000 -1.00000000
v -0.4984107 -0.4250506 0.2577400
vn 0.00000000 0.00000000 -1.00000000
v -0.5000000 -0.4500000 0.2577400
vn 0.00000000 0.00000000 -1.00000000
f 388/388/388 389/389/389 390/390/390
v -0.5000000 -0.4249493 0.3077400
vn 0.06357398 0.99797713 0.00000000
v -0.4984107 -0.4250506 0.3077400
vn 0.06357398 0.99797713 0.00000000
v -0.4984107 -0.4250506 0.2577400
vn 0.06357398 0.99797713 0.00000000
f 391/391/391 392/392/392 393/393/393
v -0.5000000 -0.4249493 0.3077400
vn 0.06357398 0.99797713 0.00000000
v -0.4984107 -0.4250506 0.2577400
vn 0.06357398 0.99797713 0.00000000
v -0.5000000 -0.4249493 0.2577400
vn 0.06357398 0.99797713 0.00000000
f 394/394/394 395/395/395 396/396/396
v -0.5000000 -0.4500000 0.2577400
vn -0.99797713 -0.06357399 0.00000000
v -0.4984107 -0.4749494 0.2577400
vn -0.99797713 -0.06357399 0.00000000
v -0.4984107 -0.4749494 0.3077400
vn -0.99797713 -0.06357399 0.00000000
f 397/397/397 398/398/398 399/399/399
v -0.5000000 -0.4500000 0.2577400
vn -0.99797713 -0.06357399 0.00000000
v -0.4984107 -0.4749494 0.3077400
vn -0.99797713 -0.06357399 0.00000000
v -0.5000000 -0.4500000 0.3077400
vn -0.99797713 -0.06357399 0.00000000
f 400/400/400 401/401/401 402/402/402
v -0.2608876 -0.4097172 0.3077400
vn 0.99797712 0.06357405 0.00000000
v -0.2577089 -0.4596160 0.3077400
vn 0.99797712 0.06357405 0.00000000
v -0.2577089 -0.4596160 0.2577400
vn 0.99797712 0.06357405 0.00000000
f 403/403/403 404/404/404 405/405/405
v -0.2608876 -0.4097172 0.3077400
vn 0.99797712 0.06357405 0.00000000
v -0.2577089 -0.4596160 0.2577400
vn 0.99797712 0.06357405 0.00000000
v -0.2608876 -0.4097172 0.2577400
vn 0.99797712 0.06357405 0.00000000
f 406/406/406 407/407/407 408/408/408
v -0.5000000 -0.4500000 0.3077400
vn 0.00000000 0.00000000 1.00000000
v -0.4984107 -0.4749494 0.3077400
vn 0.00000000 0.00000000 1.00000000
v -0.2577089 -0.4596160 0.3077400
vn 0.00000000 0.00000000 1.00000000
f 409/409/409 410/410/410 411/411/411
v -0.5000000 -0.4500000 0.3077400
vn -0.00000000 0.00000000 1.00000000
v -0.2577089 -0.4596160 0.3077400
vn -0.00000000 0.00000000 1.00000000
v -0.2608876 -0.4097172 0.3077400
vn -0.00000000 0.00000000 1.00000000
f 412/412/412 413/413/413 414/414/414
v -0.5000000 -0.4500000 0.3077400
vn 0.00000000 0.00000000 1.00000000
v -0.2608876 -0.4097172 0.3077400
vn 0.00000000 0.00000000 1.00000000
v -0.5000000 -0.4249493 0.3077400
vn 0.00000000 0.00000000 1.00000000
f 415/415/415 416/416/416 417/417/417
v -0.4984107 -0.4749494 0.3077400
vn 0.06357398 -0.99797713 0.00000000
v -0.4984107 -0.4749494 0.2577400
vn 0.06357398 -0.99797713 0.00000000
v -0.2577089 -0.4596160 0.2577400
vn 0.06357398 -0.99797713 0.00000000
f 418/418/418 419/419/419 420/420/420
v -0.4984107 -0.4749494 0.3077400
vn 0.06357398 -0.99797713 0.00000000
v -0.2577089 -0.4596160 0.2577400
vn 0.06357398 -0.99797713 0.00000000
v -0.2577089 -0.4596160 0.3077400
vn 0.06357398 -0.99797713 0.00000000
f 421/421/421 422/422/422 423/423/423
v -0.4984107 -0.4749494 0.2577400
vn 0.00000000 0.00000000 -1.00000000
v -0.5000000 -0.4500000 0.2577400
vn 0.00000000 0.00000000 -1.00000000
v -0.5000000 -0.4249493 0.2577400
vn 0.00000000 0.00000000 -1.00000000
f 424/424/424 425/425/425 426/426/426
v -0.4984107 -0.4749494 0.2577400
vn 0.00000000 0.00000000 -1.00000000
v -0.5000000 -0.4249493 0.2577400
vn 0.00000000 0.00000000 -1.00000000
v -0.2608876 -0.4097172 0.2577400
vn 0.00000000 0.00000000 -1.00000000
f 427/427/427 428/428/428 429/429/429
v -0.4984107 -0.4749494 0.2577400
vn 0.00000000 0.00000000 -1.00000000
v -0.2608876 -0.4097172 0.2577400
vn 0.00000000 0.00000000 -1.00000000
v -0.2577089 -0.4596160 0.2577400
vn 0.00000000 0.00000000 -1.00000000
f 430/430/430 431/431/431 432/432/432
v -0.5000000 -0.4249493 0.3077400
vn -0.06357398 0.99797713 0.00000000
v -0.2608876 -0.4097172 0.3077400
vn -0.06357398 0.99797713 0.00000000
v -0.2608876 -0.4097172 0.2577400
vn -0.06357398 0.99797713 0.00000000
f 433/433/433 434/434/434 435/435/435
v -0.5000000 -0.4249493 0.3077400
vn -0.06357398 0.99797713 0.00000000
v -0.2608876 -0.4097172 0.2577400
vn -0.06357398 0.99797713 0.00000000
v -0.5000000 -0.4249493 0.2577400
vn -0.06357398 0.99797713 0.00000000
f 436/436/436 437/437/437 438/438/438
v -0.2642112 -0.4101541 0.2577400
vn -0.98050035 -0.19651736 0.00000000
v -0.2543854 -0.4591791 0.2577400
vn -0.98050035 -0.19651736 0.00000000
v -0.2543854 -0.4591791 0.3077400
vn -0.98050035 -0.19651736 0.00000000
f 439/439/439 440/440/440 441/441/441
v -0.2642112 -0.4101541 0.2577400
vn -0.98050035 -0.19651736 0.00000000
v -0.2543854 -0.4591791 0.3077400
vn -0.98050035 -0.19651736 0.00000000
v -0.2642112 -0.4101541 0.3077400
vn -0.98050035 -0.19651736 0.00000000
f 442/442/442 443/443/443 444/444/444
v -0.0399129 -0.3651989 0.3077400
vn 0.98050029 0.19651765 0.00000000
v -0.0300871 -0.4142239 0.3077400
vn 0.98050029 0.19651765 0.00000000
v -0.0300871 -0.4142239 0.2577400
vn 0.98050029 0.19651765 0.00000000
f 445/445/445 446/446/446 447/447/447
v -0.0399129 -0.3651989 0.3077400
vn 0.98050029 0.19651765 0.00000000
v -0.0300871 -0.4142239 0.2577400
vn 0.98050029 0.19651765 0.00000000
v -0.0399129 -0.3651989 0.2577400
vn 0.98050029 0.19651765 0.00000000
f 448/448/448 449/449/449 450/450/450
v -0.2642112 -0.4101541 0.3077400
vn 0.00000000 0.00000000 1.00000000
v -0.2543854 -0.4591791 0.3077400
vn 0.00000000 0.00000000 1.00000000
v -0.0300871 -0.4142239 0.3077400
vn 0.00000000 0.00000000 1.00000000
f 451/451/451 452/452/452 453/453/453
v -0.2642112 -0.4101541 0.3077400
vn -0.00000000 0.00000000 1.00000000
v -0.0300871 -0.4142239 0.3077400
vn -0.00000000 0.00000000 1.00000000
v -0.0399129 -0.3651989 0.3077400
vn -0.00000000 0.00000000 1.00000000
f 454/454/454 455/455/455 456/456/456
v -0.2543854 -0.4591791 0.3077400
vn 0.19651768 -0.98050028 0.00000000
v -0.2543854 -0.4591791 0.2577400
vn 0.19651768 -0.98050028 0.00000000
v -0.0300871 -0.4142239 0.2577400
vn 0.19651768 -0.98050028 0.00000000
f 457/457/457 458/458/458 459/459/459
v -0.2543854 -0.4591791 0.3077400
vn 0.19651768 -0.98050028 0.00000000
v -0.0300871 -0.4142239 0.2577400
vn 0.19651768 -0.98050028 0.00000000
v -0.0300871 -0.4142239 0.3077400
vn 0.19651768 -0.98050028 0.00000000
f 460/460/460 461/461/461 462/462/462
v -0.2543854 -0.4591791 0.2577400
vn 0.00000000 0.00000000 -1.00000000
v -0.2642112 -0.4101541 0.2577400
vn 0.00000000 0.00000000 -1.00000000
v -0.0399129 -0.3651989 0.2577400
vn 0.00000000 0.00000000 -1.00000000
f 463/463/463 464/464/464 465/465/465
v -0.2543854 -0.4591791 0.2577400
vn 0.00000000 0.00000000 -1.00000000
v -0.0399129 -0.3651989 0.2577400
vn 0.00000000 0.00000000 -1.00000000
v -0.0300871 -0.4142239 0.2577400
vn 0.00000000 0.00000000 -1.00000000
f 466/466/466 467/467/467 468/468/468
v -0.2642112 -0.4101541 0.2577400
vn -0.19651769 0.98050028 0.00000000
v -0.2642112 -0.4101541 0.3077400
vn -0.19651769 0.98050028 0.00000000
v -0.0399129 -0.3651989 0.3077400
vn -0.19651769 0.98050028 0.00000000
f 469/469/469 470/470/470 471/471/471
v -0.2642112 -0.4101541 0.2577400
vn -0.19651769 0.98050028 0.00000000
v -0.0399129 -0.3651989 0.3077400
vn -0.19651769 0.98050028 0.00000000
v -0.0399129 -0.3651989 0.2577400
vn -0.19651769 0.98050028 0.00000000
f 472/472/472 473/473/473 474/474/474
v -0.0437017 -0.3662747 0.2577400
vn -0.93746864 -0.34806975 0.00000000
v -0.0262983 -0.4131481 0.2577400
vn -0.93746864 -0.34806975 0.00000000
v -0.0262983 -0.4131481 0.3077400
vn -0.93746864 -0.34806975 0.00000000
f 475/475/475 476/476/476 477/477/477
v -0.0437017 -0.3662747 0.2577400
vn -0.93746864 -0.34806975 0.00000000
v -0.0262983 -0.4131481 0.3077400
vn -0.93746864 -0.34806975 0.00000000
v -0.0437017 -0.3662747 0.3077400
vn -0.93746864 -0.34806975 0.00000000
f 478/478/478 479/479/479 480/480/480
v 0.1489075 -0.2947613 0.3077400
vn 0.93746825 0.34807080 0.00000000
v 0.1663111 -0.3416348 0.3077400
vn 0.93746825 0.34807080 0.00000000
v 0.1663111 -0.3416348 0.2577400
vn 0.93746825 0.34807080 0.00000000
f 481/481/481 482/482/482 483/483/483
v 0.1489075 -0.2947613 0.3077400
vn 0.93746825 0.34807080 0.00000000
v 0.1663111 -0.3416348 0.2577400
vn 0.93746825 0.34807080 0.00000000
v 0.1489075 -0.2947613 0.2577400
vn 0.93746825 0.34807080 0.00000000
f 484/484/484 485/485/485 486/486/486
v -0.0437017 -0.3662747 0.3077400
vn -0.00000000 0.00000000 1.00000000
v -0.0262983 -0.4131481 0.3077400
vn -0.00000000 0.00000000 1.00000000
v 0.1663111 -0.3416348 0.3077400
vn -0.00000000 0.00000000 1.00000000
f 487/487/487 488/488/488 489/489/489
v -0.0437017 -0.3662747 0.3077400
vn 0.00000000 0.00000000 1.00000000
v 0.1663111 -0.3416348 0.3077400
vn 0.00000000 0.00000000 1.00000000
v 0.1489075 -0.2947613 0.3077400
vn 0.00000000 0.00000000 1.00000000
f 490/490/490 491/491/491 492/492/492
v -0.0262983 -0.4131481 0.3077400
vn 0.34807007 -0.93746852 0.00000000
v -0.0262983 -0.4131481 0.2577400
vn 0.34807007 -0.93746852 0.00000000
v 0.1663111 -0.3416348 0.2577400
vn 0.34807007 -0.93746852 0.00000000
f 493/493/493 494/494/494 495/495/495
v -0.0262983 -0.4131481 0.3077400
vn 0.34807007 -0.93746852 0.00000000
v 0.1663111 -0.3416348 0.2577400
vn 0.34807007 -0.93746852 0.00000000
v 0.1663111 -0.3416348 0.3077400
vn 0.34807007 -0.93746852 0.00000000
f 496/496/496 497/497/497 498/498/498
v -0.0262983 -0.4131481 0.2577400
vn 0.00000000 0.00000000 -1.00000000
v -0.0437017 -0.3662747 0.2577400
vn 0.00000000 0.00000000 -1.00000000
v 0.1489075 -0.2947613 0.2577400
vn 0.00000000 0.00000000 -1.00000000
f 499/499/499 500/500/500 501/501/501
v -0.0262983 -0.4131481 0.2577400
vn 0.00000000 0.00000000 -1.00000000
v 0.1489075 -0.2947613 0.2577400
vn 0.00000000 0.00000000 -1.00000000
v 0.1663111 -0.3416348 0.2577400
vn 0.00000000 0.00000000 -1.00000000
f 502/502/502 503/503/503 504/504/504
v -0.0437017 -0.3662747 0.2577400
vn -0.34807017 0.93746848 0.00000000
v -0.0437017 -0.3662747 0.3077400
vn -0.34807017 0.93746848 0.00000000
v 0.1489075 -0.2947613 0.3077400
vn -0.34807017 0.93746848 0.00000000
f 505/505/505 506/506/506 507/507/507
v -0.0437017 -0.3662747 0.2577400
vn -0.34807017 0.93746848 0.00000000
v 0.1489075 -0.2947613 0.3077400
vn -0.34807017 0.93746848 0.00000000
v 0.1489075 -0.2947613 0.2577400
vn -0.34807017 0.93746848 0.00000000
f 508/508/508 509/509/509 510/510/510
v 0.1442744 -0.2970514 0.2577400
vn -0.84586547 -0.53339629 0.00000000
v 0.1709442 -0.3393447 0.2577400
vn -0.84586547 -0.53339629 0.00000000
v 0.1709442 -0.3393447 0.3077400
vn -0.84586547 -0.53339629 0.00000000
f 511/511/511 512/512/512 513/513/513
v 0.1442744 -0.2970514 0.2577400
vn -0.84586547 -0.53339629 0.00000000
v 0.1709442 -0.3393447 0.3077400
vn -0.84586547 -0.53339629 0.00000000
v 0.1442744 -0.2970514 0.3077400
vn -0.84586547 -0.53339629 0.00000000
f 514/514/514 515/515/515 516/516/516
v 0.2920687 -0.2038534 0.3077400
vn 0.84586555 0.53339616 0.00000000
v 0.3187385 -0.2461466 0.3077400
vn 0.84586555 0.53339616 0.00000000
v 0.3187385 -0.2461466 0.2577400
vn 0.84586555 0.53339616 0.00000000
f 517/517/517 518/518/518 519/519/519
v 0.2920687 -0.2038534 0.3077400
vn 0.84586555 0.53339616 0.00000000
v 0.3187385 -0.2461466 0.2577400
vn 0.84586555 0.53339616 0.00000000
v 0.2920687 -0.2038534 0.2577400
vn 0.84586555 0.53339616 0.00000000
f 520/520/520 521/521/521 522/522/522
v 0.1442744 -0.2970514 0.3077400
vn -0.00000000 0.00000000 1.00000000
v 0.1709442 -0.3393447 0.3077400
vn -0.00000000 0.00000000 1.00000000
v 0.3187385 -0.2461466 0.3077400
vn -0.00000000 0.00000000 1.00000000
f 523/523/523 524/524/524 525/525/525
v 0.1442744 -0.2970514 0.3077400
vn 0.00000000 0.00000000 1.00000000
v 0.3187385 -0.2461466 0.3077400
vn 0.00000000 0.00000000 1.00000000
v 0.2920687 -0.2038534 0.3077400
vn 0.00000000 0.00000000 1.00000000
f 526/526/526 527/527/527 528/528/528
v 0.1709442 -0.3393447 0.3077400
vn 0.53339665 -0.84586524 0.00000000
v 0.1709442 -0.3393447 0.2577400
vn 0.53339665 -0.84586524 0.00000000
v 0.3187385 -0.2461466 0.2577400
vn 0.53339665 -0.84586524 0.00000000
f 529/529/529 530/530/530 531/531/531
v 0.1709442 -0.3393447 0.3077400
vn 0.53339665 -0.84586524 0.00000000
v 0.3187385 -0.2461466 0.2577400
vn 0.53339665 -0.84586524 0.00000000
v 0.3187385 -0.2461466 0.3077400
vn 0.53339665 -0.84586524 0.00000000
f 532/532/532 533/533/533 534/534/534
v 0.1709442 -0.3393447 0.2577400
vn 0.00000000 0.00000000 -1.00000000
v 0.1442744 -0.2970514 0.2577400
vn 0.00000000 0.00000000 -1.00000000
v 0.2920687 -0.2038534 0.2577400
vn 0.00000000 0.00000000 -1.00000000
f 535/535/535 536/536/536 537/537/537
v 0.1709442 -0.3393447 0.2577400
vn 0.00000000 0.00000000 -1.00000000
v 0.2920687 -0.2038534 0.2577400
vn 0.00000000 0.00000000 -1.00000000
v 0.3187385 -0.2461466 0.2577400
vn 0.00000000 0.00000000 -1.00000000
f 538/538/538 539/539/539 540/540/540
v 0.1442744 -0.2970514 0.2577400
vn -0.53339671 0.84586521 0.00000000
v 0.1442744 -0.2970514 0.3077400
vn -0.53339671 0.84586521 0.00000000
v 0.2920687 -0.2038534 0.3077400
vn -0.53339671 0.84586521 0.00000000
f 541/541/541 542/542/542 543/543/543
v 0.1442744 -0.2970514 0.2577400
vn -0.53339671 0.84586521 0.00000000
v 0.2920687 -0.2038534 0.3077400
vn -0.53339671 0.84586521 0.00000000
v 0.2920687 -0.2038534 0.2577400
vn -0.53339671 0.84586521 0.00000000
f 544/544/544 545/545/545 546/546/546
v 0.2864119 -0.2087423 0.2577400
vn -0.65030914 -0.75966968 0.00000000
v 0.3243954 -0.2412577 0.2577400
vn -0.65030914 -0.75966968 0.00000000
v 0.3243954 -0.2412577 0.3077400
vn -0.65030914 -0.75966968 0.00000000
f 547/547/547 548/548/548 549/549/549
v 0.2864119 -0.2087423 0.2577400
vn -0.65030914 -0.75966968 0.00000000
v 0.3243954 -0.2412577 0.3077400
vn -0.65030914 -0.75966968 0.00000000
v 0.2864119 -0.2087423 0.3077400
vn -0.65030914 -0.75966968 0.00000000
f 550/550/550 551/551/551 552/552/552
v 0.3793193 -0.1002108 0.3077400
vn 0.65030855 0.75967018 0.00000000
v 0.4173028 -0.1327263 0.3077400
vn 0.65030855 0.75967018 0.00000000
v 0.4173028 -0.1327263 0.2577400
vn 0.65030855 0.75967018 0.00000000
f 553/553/553 554/554/554 555/555/555
v 0.3793193 -0.1002108 0.3077400
vn 0.65030855 0.75967018 0.00000000
v 0.4173028 -0.1327263 0.2577400
vn 0.65030855 0.75967018 0.00000000
v 0.3793193 -0.1002108 0.2577400
vn 0.65030855 0.75967018 0.00000000
f 556/556/556 557/557/557 558/558/558
v 0.2864119 -0.2087423 0.3077400
vn -0.00000000 0.00000000 1.00000000
v 0.3243954 -0.2412577 0.3077400
vn -0.00000000 0.00000000 1.00000000
v 0.4173028 -0.1327263 0.3077400
vn -0.00000000 0.00000000 1.00000000
f 559/559/559 560/560/560 561/561/561
v 0.2864119 -0.2087423 0.3077400
vn 0.00000000 0.00000000 1.00000000
v 0.4173028 -0.1327263 0.3077400
vn 0.00000000 0.00000000 1.00000000
v 0.3793193 -0.1002108 0.3077400
vn 0.00000000 0.00000000 1.00000000
f 562/562/562 563/563/563 564/564/564
v 0.3243954 -0.2412577 0.3077400
vn 0.75966979 -0.65030901 0.00000000
v 0.3243954 -0.2412577 0.2577400
vn 0.75966979 -0.65030901 0.00000000
v 0.4173028 -0.1327263 0.2577400
vn 0.75966979 -0.65030901 0.00000000
f 565/565/565 566/566/566 567/567/567
v 0.3243954 -0.2412577 0.3077400
vn 0.75966979 -0.65030901 0.00000000
v 0.4173028 -0.1327263 0.2577400
vn 0.75966979 -0.65030901 0.00000000
v 0.4173028 -0.1327263 0.3077400
vn 0.75966979 -0.65030901 0.00000000
f 568/568/568 569/569/569 570/570/570
v 0.3243954 -0.2412577 0.2577400
vn 0.00000000 0.00000000 -1.00000000
v 0.2864119 -0.2087423 0.2577400
vn 0.00000000 0.00000000 -1.00000000
v 0.3793193 -0.1002108 0.2577400
vn 0.00000000 0.00000000 -1.00000000
f 571/571/571 572/572/572 573/573/573
v 0.3243954 -0.2412577 0.2577400
vn 0.00000000 0.00000000 -1.00000000
v 0.3793193 -0.1002108 0.2577400
vn 0.00000000 0.00000000 -1.00000000
v 0.4173028 -0.1327263 0.2577400
vn 0.00000000 0.00000000 -1.00000000
f 574/574/574 575/575/575 576/576/576
v 0.2864119 -0.2087423 0.2577400
vn -0.75967000 0.65030877 0.00000000
v 0.2864119 -0.2087423 0.3077400
vn -0.75967000 0.65030877 0.00000000
v 0.3793193 -0.1002108 0.3077400
vn -0.75967000 0.65030877 0.00000000
f 577/577/577 578/578/578 579/579/579
v 0.2864119 -0.2087423 0.2577400
vn -0.75967000 0.65030877 0.00000000
v 0.3793193 -0.1002108 0.3077400
vn -0.75967000 0.65030877 0.00000000
v 0.3793193 -0.1002108 0.2577400
vn -0.75967000 0.65030877 0.00000000
f 580/580/580 581/581/581 582/582/582
v 0.3741879 -0.1099051 0.2577400
vn -0.26253731 -0.96492184 0.00000000
v 0.4224341 -0.1230320 0.2577400
vn -0.26253731 -0.96492184 0.00000000
v 0.4224341 -0.1230320 0.3077400
vn -0.26253731 -0.96492184 0.00000000
f 583/583/583 584/584/584 585/585/585
v 0.3741879 -0.1099051 0.2577400
vn -0.26253731 -0.96492184 0.00000000
v 0.4224341 -0.1230320 0.3077400
vn -0.26253731 -0.96492184 0.00000000
v 0.3741879 -0.1099051 0.3077400
vn -0.26253731 -0.96492184 0.00000000
f 586/586/586 587/587/587 588/588/588
v 0.4058769 0.0065634 0.3077400
vn 0.26253768 0.96492174 0.00000000
v 0.4541230 -0.0065634 0.3077400
vn 0.26253768 0.96492174 0.00000000
v 0.4541230 -0.0065634 0.2577400
vn 0.26253768 0.96492174 0.00000000
f 589/589/589 590/590/590 591/591/591
v 0.4058769 0.0065634 0.3077400
vn 0.26253768 0.96492174 0.00000000
v 0.4541230 -0.0065634 0.2577400
vn 0.26253768 0.96492174 0.00000000
v 0.4058769 0.0065634 0.2577400
vn 0.26253768 0.96492174 0.00000000
f 592/592/592 593/593/593 594/594/594
v 0.3741879 -0.1099051 0.3077400
vn -0.00000000 0.00000000 1.00000000
v 0.4224341 -0.1230320 0.3077400
vn -0.00000000 0.00000000 1.00000000
v 0.4541230 -0.0065634 0.3077400
vn -0.00000000 0.00000000 1.00000000
f 595/595/595 596/596/596 597/597/597
v 0.3741879 -0.1099051 0.3077400
vn 0.00000000 0.00000000 1.00000000
v 0.4541230 -0.0065634 0.3077400
vn 0.00000000 0.00000000 1.00000000
v 0.4058769 0.0065634 0.3077400
vn 0.00000000 0.00000000 1.00000000
f 598/598/598 599/599/599 600/600/600
v 0.4224341 -0.1230320 0.3077400
vn 0.96492185 -0.26253727 0.00000000
v 0.4224341 -0.1230320 0.2577400
vn 0.96492185 -0.26253727 0.00000000
v 0.4541230 -0.0065634 0.2577400
vn 0.96492185 -0.26253727 0.00000000
f 601/601/601 602/602/602 603/603/603
v 0.4224341 -0.1230320 0.3077400
vn 0.96492185 -0.26253727 0.00000000
v 0.4541230 -0.0065634 0.2577400
vn 0.96492185 -0.26253727 0.00000000
v 0.4541230 -0.0065634 0.3077400
vn 0.96492185 -0.26253727 0.00000000
f 604/604/604 605/605/605 606/606/606
v 0.4224341 -0.1230320 0.2577400
vn 0.00000000 0.00000000 -1.00000000
v 0.3741879 -0.1099051 0.2577400
vn 0.00000000 0.00000000 -1.00000000
v 0.4058769 0.0065634 0.2577400
vn 0.00000000 0.00000000 -1.00000000
f 607/607/607 608/608/608 609/609/609
v 0.4224341 -0.1230320 0.2577400
vn 0.00000000 0.00000000 -1.00000000
v 0.4058769 0.0065634 0.2577400
vn 0.00000000 0.00000000 -1.00000000
v 0.4541230 -0.0065634 0.2577400
vn 0.00000000 0.00000000 -1.00000000
f 610/610/610 611/611/611 612/612/612
v 0.3741879 -0.1099051 0.2577400
vn -0.96492173 0.26253772 0.00000000
v 0.3741879 -0.1099051 0.3077400
vn -0.96492173 0.26253772 0.00000000
v 0.4058769 0.0065634 0.3077400
vn -0.96492173 0.26253772 0.00000000
f 613/613/613 614/614/614 615/615/615
v 0.3741879 -0.1099051 0.2577400
vn -0.96492173 0.26253772 0.00000000
v 0.4058769 0.0065634 0.3077400
vn -0.96492173 0.26253772 0.00000000
v 0.4058769 0.0065634 0.2577400
vn -0.96492173 0.26253772 0.00000000
f 616/616/616 617/617/617 618/618/618
v 0.3400000 -0.4000000 0.0000000
vn 0.00000000 0.00000000 -1.00000000
v 0.3400000 -0.3400000 0.0000000
vn 0.00000000 0.00000000 -1.00000000
v 0.4000000 -0.3400000 0.0000000
vn 0.00000000 0.00000000 -1.00000000
f 619/619/619 620/620/620 621/621/621
v 0.3400000 -0.4000000 0.0000000
vn 0.00000000 0.00000000 -1.00000000
v 0.4000000 -0.3400000 0.0000000
vn 0.00000000 0.00000000 -1.00000000
v 0.4000000 -0.4000000 0.0000000
vn 0.00000000 0.00000000 -1.00000000
f 622/622/622 623/623/623 624/624/624
v 0.3400000 -0.4000000 0.0000000
vn 0.00000000 -1.00000000 0.00000000
v 0.4000000 -0.4000000 0.0000000
vn 0.00000000 -1.00000000 0.00000000
v 0.4000000 -0.4000000 0.3277400
vn 0.00000000 -1.00000000 0.00000000
f 625/625/625 626/626/626 627/627/627
v 0.3400000 -0.4000000 0.0000000
vn 0.00000000 -1.00000000 0.00000000
v 0.4000000 -0.4000000 0.3277400
vn 0.00000000 -1.00000000 0.00000000
v 0.3400000 -0.4000000 0.3277400
vn 0.00000000 -1.00000000 0.00000000
f 628/628/628 629/629/629 630/630/630
v 0.4000000 -0.4000000 0.0000000
vn 1.00000000 0.00000000 0.00000000
v 0.4000000 -0.3400000 0.0000000
vn 1.00000000 0.00000000 0.00000000
v 0.4000000 -0.3400000 0.3277400
vn 1.00000000 0.00000000 0.00000000
f 631/631/631 632/632/632 633/633/633
v 0.4000000 -0.4000000 0.0000000
vn 1.00000000 0.00000000 0.00000000
v 0.4000000 -0.3400000 0.3277400
vn 1.00000000 0.00000000 0.00000000
v 0.4000000 -0.4000000 0.3277400
vn 1.00000000 0.00000000 0.00000000
f 634/634/634 635/635/635 636/636/636
v 0.4000000 -0.3400000 0.0000000
vn 0.00000000 1.00000000 0.00000000
v 0.3400000 -0.3400000 0.0000000
vn 0.00000000 1.00000000 0.00000000
v 0.3400000 -0.3400000 0.3277400
vn 0.00000000 1.00000000 0.00000000
f 637/637/637 638/638/638 639/639/639
v 0.4000000 -0.3400000 0.0000000
vn 0.00000000 1.00000000 -0.00000000
v 0.3400000 -0.3400000 0.3277400
vn 0.00000000 1.00000000 -0.00000000
v 0.4000000 -0.3400000 0.3277400
vn 0.00000000 1.00000000 -0.00000000
f 640/640/640 641/641/641 642/642/642
v 0.3400000 -0.3400000 0.0000000
vn -1.00000000 0.00000000 0.00000000
v 0.3400000 -0.4000000 0.0000000
vn -1.00000000 0.00000000 0.00000000
v 0.3400000 -0.4000000 0.3277400
vn -1.00000000 0.00000000 0.00000000
f 643/643/643 644/644/644 645/645/645
v 0.3400000 -0.3400000 0.0000000
vn -1.00000000 0.00000000 0.00000000
v 0.3400000 -0.4000000 0.3277400
vn -1.00000000 0.00000000 0.00000000
v 0.3400000 -0.3400000 0.3277400
vn -1.00000000 0.00000000 0.00000000
f 646/646/646 647/647/647 648/648/648
v 0.3400000 -0.4000000 0.3277400
vn 0.00000000 0.00000000 1.00000000
v 0.4000000 -0.4000000 0.3277400
vn 0.00000000 0.00000000 1.00000000
v 0.4000000 -0.3400000 0.3277400
vn 0.00000000 0.00000000 1.00000000
f 649/649/649 650/650/650 651/651/651
v 0.3400000 -0.4000000 0.3277400
vn 0.00000000 0.00000000 1.00000000
v 0.4000000 -0.3400000 0.3277400
vn 0.00000000 0.00000000 1.00000000
v 0.3400000 -0.3400000 0.3277400
vn 0.00000000 0.00000000 1.00000000
f 652/652/652 653/653/653 654/654/654
v 0.3400000 0.3400000 0.0000000
vn 0.00000000 0.00000000 -1.00000000
v 0.3400000 0.4000000 0.0000000
vn 0.00000000 0.00000000 -1.00000000
v 0.4000000 0.4000000 0.0000000
vn 0.00000000 0.00000000 -1.00000000
f 655/655/655 656/656/656 657/657/657
v 0.3400000 0.3400000 0.0000000
vn 0.00000000 0.00000000 -1.00000000
v 0.4000000 0.4000000 0.0000000
vn 0.00000000 0.00000000 -1.00000000
v 0.4000000 0.3400000 0.0000000
vn 0.00000000 0.00000000 -1.00000000
f 658/658/658 659/659/659 660/660/660
v 0.3400000 0.3400000 0.0000000
vn 0.00000000 -1.00000000 0.00000000
v 0.4000000 0.3400000 0.0000000
vn 0.00000000 -1.00000000 0.00000000
v 0.4000000 0.3400000 0.3277400
vn 0.00000000 -1.00000000 0.00000000
f 661/661/661 662/662/662 663/663/663
v 0.3400000 0.3400000 0.0000000
vn 0.00000000 -1.00000000 0.00000000
v 0.4000000 0.3400000 0.3277400
vn 0.00000000 -1.00000000 0.00000000
v 0.3400000 0.3400000 0.3277400
vn 0.00000000 -1.00000000 0.00000000
f 664/664/664 665/665/665 666/666/666
v 0.4000000 0.3400000 0.0000000
vn 1.00000000 0.00000000 0.00000000
v 0.4000000 0.4000000 0.0000000
vn 1.00000000 0.00000000 0.00000000
v 0.4000000 0.4000000 0.3277400
vn 1.00000000 0.00000000 0.00000000
f 667/667/667 668/668/668 669/669/669
v 0.4000000 0.3400000 0.0000000
vn 1.00000000 0.00000000 0.00000000
v 0.4000000 0.4000000 0.3277400
vn 1.00000000 0.00000000 0.00000000
v 0.4000000 0.3400000 0.3277400
vn 1.00000000 0.00000000 0.00000000
f 670/670/670 671/671/671 672/672/672
v 0.4000000 0.4000000 0.0000000
vn 0.00000000 1.00000000 0.00000000
v 0.3400000 0.4000000 0.0000000
vn 0.00000000 1.00000000 0.00000000
v 0.3400000 0.4000000 0.3277400
vn 0.00000000 1.00000000 0.00000000
f 673/673/673 674/674/674 675/675/675
v 0.4000000 0.4000000 0.0000000
vn 0.00000000 1.00000000 -0.00000000
v 0.3400000 0.4000000 0.3277400
vn 0.00000000 1.00000000 -0.00000000
v 0.4000000 0.4000000 0.3277400
vn 0.00000000 1.00000000 -0.00000000
f 676/676/676 677/677/677 678/678/678
v 0.3400000 0.4000000 0.0000000
vn -1.00000000 0.00000000 0.00000000
v 0.3400000 0.3400000 0.0000000
vn -1.00000000 0.00000000 0.00000000
v 0.3400000 0.3400000 0.3277400
vn -1.00000000 0.00000000 0.00000000
f 679/679/679 680/680/680 681/681/681
v 0.3400000 0.4000000 0.0000000
vn -1.00000000 0.00000000 0.00000000
v 0.3400000 0.3400000 0.3277400
vn -1.00000000 0.00000000 0.00000000
v 0.3400000 0.4000000 0.3277400
vn -1.00000000 0.00000000 0.00000000
f 682/682/682 683/683/683 684/684/684
v 0.3400000 0.3400000 0.3277400
vn 0.00000000 0.00000000 1.00000000
v 0.4000000 0.3400000 0.3277400
vn 0.00000000 0.00000000 1.00000000
v 0.4000000 0.4000000 0.3277400
vn 0.00000000 0.00000000 1.00000000
f 685/685/685 686/686/686 687/687/687
v 0.3400000 0.3400000 0.3277400
vn 0.00000000 0.00000000 1.00000000
v 0.4000000 0.4000000 0.3277400
vn 0.00000000 0.00000000 1.00000000
v 0.3400000 0.4000000 0.3277400
vn 0.00000000 0.00000000 1.00000000
f 688/688/688 689/689/689 690/690/690
v 0.3789925 -0.1112922 0.1300000
vn 0.00000000 0.00000000 -1.00000000
v 0.2880831 -0.2150000 0.1300000
vn 0.00000000 0.00000000 -1.00000000
v 0.1434672 -0.3040559 0.1300000
vn 0.00000000 0.00000000 -1.00000000
f 691/691/691 692/692/692 693/693/693
v 0.3789925 -0.1112922 0.1300000
vn 0.00000000 0.00000000 -1.00000000
v 0.1434672 -0.3040559 0.1300000
vn 0.00000000 0.00000000 -1.00000000
v -0.0450000 -0.3723909 0.1300000
vn 0.00000000 0.00000000 -1.00000000
f 694/694/694 695/695/695 696/696/696
v 0.3789925 -0.1112922 0.1300000
vn 0.00000000 0.00000000 -1.00000000
v -0.0450000 -0.3723909 0.1300000
vn 0.00000000 0.00000000 -1.00000000
v -0.2644747 -0.4153481 0.1300000
vn 0.00000000 0.00000000 -1.00000000
f 697/697/697 698/698/698 699/699/699
v 0.3789925 -0.1112922 0.1300000
vn 0.00000000 0.00000000 -1.00000000
v -0.2644747 -0.4153481 0.1300000
vn 0.00000000 0.00000000 -1.00000000
v -0.5000000 -0.4300000 0.1300000
vn 0.00000000 0.00000000 -1.00000000
f 700/700/700 701/701/701 702/702/702
v 0.3789925 -0.1112922 0.1300000
vn -0.00000000 0.00000000 -1.00000000
v -0.5000000 -0.4300000 0.1300000
vn -0.00000000 0.00000000 -1.00000000
v -0.5000000 0.4300000 0.1300000
vn -0.00000000 0.00000000 -1.00000000
f 703/703/703 704/704/704 705/705/705
v 0.3789925 -0.1112922 0.1300000
vn 0.00000000 0.00000000 -1.00000000
v -0.5000000 0.4300000 0.1300000
vn 0.00000000 0.00000000 -1.00000000
v -0.2644747 0.4153481 0.1300000
vn 0.00000000 0.00000000 -1.00000000
f 706/706/706 707/707/707 708/708/708
v 0.3789925 -0.1112922 0.1300000
vn 0.00000000 0.00000000 -1.00000000
v -0.2644747 0.4153481 0.1300000
vn 0.00000000 0.00000000 -1.00000000
v -0.0450000 0.3723909 0.1300000
vn 0.00000000 0.00000000 -1.00000000
f 709/709/709 710/710/710 711/711/711
v 0.3789925 -0.1112922 0.1300000
vn 0.00000000 0.00000000 -1.00000000
v -0.0450000 0.3723909 0.1300000
vn 0.00000000 0.00000000 -1.00000000
v 0.1434672 0.3040559 0.1300000
vn 0.00000000 0.00000000 -1.00000000
f 712/712/712 713/713/713 714/714/714
v 0.3789925 -0.1112922 0.1300000
vn 0.00000000 0.00000000 -1.00000000
v 0.1434672 0.3040559 0.1300000
vn 0.00000000 0.00000000 -1.00000000
v 0.2880831 0.2150000 0.1300000
vn 0.00000000 0.00000000 -1.00000000
f 715/715/715 716/716/716 717/717/717
v 0.3789925 -0.1112922 0.1300000
vn 0.00000000 0.00000000 -1.00000000
v 0.2880831 0.2150000 0.1300000
vn 0.00000000 0.00000000 -1.00000000
v 0.3789925 0.1112922 0.1300000
vn 0.00000000 0.00000000 -1.00000000
f 718/718/718 719/719/719 720/720/720
v 0.3789925 -0.1112922 0.1300000
vn 0.00000000 0.00000000 -1.00000000
v 0.3789925 0.1112922 0.1300000
vn 0.00000000 0.00000000 -1.00000000
v 0.4100000 0.0000000 0.1300000
vn 0.00000000 0.00000000 -1.00000000
f 721/721/721 722/722/722 723/723/723
v 0.4100000 0.0000000 0.1800000
vn 0.00000000 0.00000000 1.00000000
v 0.3789925 0.1112922 0.1800000
vn 0.00000000 0.00000000 1.00000000
v 0.2880831 0.2150000 0.1800000
vn 0.00000000 0.00000000 1.00000000
f 724/724/724 725/725/725 726/726/726
v 0.4100000 0.0000000 0.1800000
vn 0.00000000 0.00000000 1.00000000
v 0.2880831 0.2150000 0.1800000
vn 0.00000000 0.00000000 1.00000000
v 0.1434672 0.3040559 0.1800000
vn 0.00000000 0.00000000 1.00000000
f 727/727/727 728/728/728 729/729/729
v 0.4100000 0.0000000 0.1800000
vn 0.00000000 0.00000000 1.00000000
v 0.1434672 0.3040559 0.1800000
vn 0.00000000 0.00000000 1.00000000
v -0.0450000 0.3723909 0.1800000
vn 0.00000000 0.00000000 1.00000000
f 730/730/730 731/731/731 732/732/732
v 0.4100000 0.0000000 0.1800000
vn 0.00000000 0.00000000 1.00000000
v -0.0450000 0.3723909 0.1800000
vn 0.00000000 0.00000000 1.00000000
v -0.2644747 0.4153481 0.1800000
vn 0.00000000 0.00000000 1.00000000
f 733/733/733 734/734/734 735/735/735
v 0.4100000 0.0000000 0.1800000
vn 0.00000000 0.00000000 1.00000000
v -0.2644747 0.4153481 0.1800000
vn 0.00000000 0.00000000 1.00000000
v -0.5000000 0.4300000 0.1800000
vn 0.00000000 0.00000000 1.00000000
f 736/736/736 737/737/737 738/738/738
v 0.4100000 0.0000000 0.1800000
vn 0.00000000 0.00000000 1.00000000
v -0.5000000 0.4300000 0.1800000
vn 0.00000000 0.00000000 1.00000000
v -0.5000000 -0.4300000 0.1800000
vn 0.00000000 0.00000000 1.00000000
f 739/739/739 740/740/740 741/741/741
v 0.4100000 0.0000000 0.1800000
vn 0.00000000 0.00000000 1.00000000
v -0.5000000 -0.4300000 0.1800000
vn 0.00000000 0.00000000 1.00000000
v -0.2644747 -0.4153481 0.1800000
vn 0.00000000 0.00000000 1.00000000
f 742/742/742 743/743/743 744/744/744
v 0.4100000 0.0000000 0.1800000
vn 0.00000000 0.00000000 1.00000000
v -0.2644747 -0.4153481 0.1800000
vn 0.00000000 0.00000000 1.00000000
v -0.0450000 -0.3723909 0.1800000
vn 0.00000000 0.00000000 1.00000000
f 745/745/745 746/746/746 747/747/747
v 0.4100000 0.0000000 0.1800000
vn 0.00000000 0.00000000 1.00000000
v -0.0450000 -0.3723909 0.1800000
vn 0.00000000 0.00000000 1.00000000
v 0.1434672 -0.3040559 0.1800000
vn 0.00000000 0.00000000 1.00000000
f 748/748/748 749/749/749 750/750/750
v 0.4100000 0.0000000 0.1800000
vn 0.00000000 0.00000000 1.00000000
v 0.1434672 -0.3040559 0.1800000
vn 0.00000000 0.00000000 1.00000000
v 0.2880831 -0.2150000 0.1800000
vn 0.00000000 0.00000000 1.00000000
f 751/751/751 752/752/752 753/753/753
v 0.4100000 0.0000000 0.1800000
vn 0.00000000 0.00000000 1.00000000
v 0.2880831 -0.2150000 0.1800000
vn 0.00000000 0.00000000 1.00000000
v 0.3789925 -0.1112922 0.1800000
vn 0.00000000 0.00000000 1.00000000
f 754/754/754 755/755/755 756/756/756
v 0.4100000 0.0000000 0.1300000
vn 0.96330996 0.26839135 0.00000000
v 0.3789925 0.1112922 0.1300000
vn 0.96330996 0.26839135 0.00000000
v 0.3789925 0.1112922 0.1800000
vn 0.96330996 0.26839135 0.00000000
f 757/757/757 758/758/758 759/759/759
v 0.4100000 0.0000000 0.1300000
vn 0.96330996 0.26839135 -0.00000000
v 0.3789925 0.1112922 0.1800000
vn 0.96330996 0.26839135 -0.00000000
v 0.4100000 0.0000000 0.1800000
vn 0.96330996 0.26839135 -0.00000000
f 760/760/760 761/761/761 762/762/762
v 0.3789925 0.1112922 0.1300000
vn 0.75198339 0.65918206 0.00000000
v 0.2880831 0.2150000 0.1300000
vn 0.75198339 0.65918206 0.00000000
v 0.2880831 0.2150000 0.1800000
vn 0.75198339 0.65918206 0.00000000
f 763/763/763 764/764/764 765/765/765
v 0.3789925 0.1112922 0.1300000
vn 0.75198339 0.65918206 -0.00000000
v 0.2880831 0.2150000 0.1800000
vn 0.75198339 0.65918206 -0.00000000
v 0.3789925 0.1112922 0.1800000
vn 0.75198339 0.65918206 -0.00000000
f 766/766/766 767/767/767 768/768/768
v 0.2880831 0.2150000 0.1300000
vn 0.52436003 0.85149666 0.00000000
v 0.1434672 0.3040559 0.1300000
vn 0.52436003 0.85149666 0.00000000
v 0.1434672 0.3040559 0.1800000
vn 0.52436003 0.85149666 0.00000000
f 769/769/769 770/770/770 771/771/771
v 0.2880831 0.2150000 0.1300000
vn 0.52436003 0.85149666 -0.00000000
v 0.1434672 0.3040559 0.1800000
vn 0.52436003 0.85149666 -0.00000000
v 0.2880831 0.2150000 0.1800000
vn 0.52436003 0.85149666 -0.00000000
f 772/772/772 773/773/773 774/774/774
v 0.1434672 0.3040559 0.1300000
vn 0.34086830 0.94011106 0.00000000
v -0.0450000 0.3723909 0.1300000
vn 0.34086830 0.94011106 0.00000000
v -0.0450000 0.3723909 0.1800000
vn 0.34086830 0.94011106 0.00000000
f 775/775/775 776/776/776 777/777/777
v 0.1434672 0.3040559 0.1300000
vn 0.34086830 0.94011106 -0.00000000
v -0.0450000 0.3723909 0.1800000
vn 0.34086830 0.94011106 -0.00000000
v 0.1434672 0.3040559 0.1800000
vn 0.34086830 0.94011106 -0.00000000
f 778/778/778 779/779/779 780/780/780
v -0.0450000 0.3723909 0.1300000
vn 0.19208261 0.98137876 0.00000000
v -0.2644747 0.4153481 0.1300000
vn 0.19208261 0.98137876 0.00000000
v -0.2644747 0.4153481 0.1800000
vn 0.19208261 0.98137876 0.00000000
f 781/781/781 782/782/782 783/783/783
v -0.0450000 0.3723909 0.1300000
vn 0.19208261 0.98137876 -0.00000000
v -0.2644747 0.4153481 0.1800000
vn 0.19208261 0.98137876 -0.00000000
v -0.0450000 0.3723909 0.1800000
vn 0.19208261 0.98137876 -0.00000000
f 784/784/784 785/785/785 786/786/786
v -0.2644747 0.4153481 0.1300000
vn 0.06208940 0.99807059 0.00000000
v -0.5000000 0.4300000 0.1300000
vn 0.06208940 0.99807059 0.00000000
v -0.5000000 0.4300000 0.1800000
vn 0.06208940 0.99807059 0.00000000
f 787/787/787 788/788/788 789/789/789
v -0.2644747 0.4153481 0.1300000
vn 0.06208940 0.99807059 -0.00000000
v -0.5000000 0.4300000 0.1800000
vn 0.06208940 0.99807059 -0.00000000
v -0.2644747 0.4153481 0.1800000
vn 0.06208940 0.99807059 -0.00000000
f 790/790/790 791/791/791 792/792/792
v -0.5000000 -0.4300000 0.1300000
vn 0.06208940 -0.99807059 0.00000000
v -0.2644747 -0.4153481 0.1300000
vn 0.06208940 -0.99807059 0.00000000
v -0.2644747 -0.4153481 0.1800000
vn 0.06208940 -0.99807059 0.00000000
f 793/793/793 794/794/794 795/795/795
v -0.5000000 -0.4300000 0.1300000
vn 0.06208940 -0.99807059 0.00000000
v -0.2644747 -0.4153481 0.1800000
vn 0.06208940 -0.99807059 0.00000000
v -0.5000000 -0.4300000 0.1800000
vn 0.06208940 -0.99807059 0.00000000
f 796/796/796 797/797/797 798/798/798
v -0.2644747 -0.4153481 0.1300000
vn 0.19208261 -0.98137876 0.00000000
v -0.0450000 -0.3723909 0.1300000
vn 0.19208261 -0.98137876 0.00000000
v -0.0450000 -0.3723909 0.1800000
vn 0.19208261 -0.98137876 0.00000000
f 799/799/799 800/800/800 801/801/801
v -0.2644747 -0.4153481 0.1300000
vn 0.19208261 -0.98137876 0.00000000
v -0.0450000 -0.3723909 0.1800000
vn 0.19208261 -0.98137876 0.00000000
v -0.2644747 -0.4153481 0.1800000
vn 0.19208261 -0.98137876 0.00000000
f 802/802/802 803/803/803 804/804/804
v -0.0450000 -0.3723909 0.1300000
vn 0.34086830 -0.94011106 0.00000000
v 0.1434672 -0.3040559 0.1300000
vn 0.34086830 -0.94011106 0.00000000
v 0.1434672 -0.3040559 0.1800000
vn 0.34086830 -0.94011106 0.00000000
f 805/805/805 806/806/806 807/807/807
v -0.0450000 -0.3723909 0.1300000
vn 0.34086830 -0.94011106 0.00000000
v 0.1434672 -0.3040559 0.1800000
vn 0.34086830 -0.94011106 0.00000000
v -0.0450000 -0.3723909 0.1800000
vn 0.34086830 -0.94011106 0.00000000
f 808/808/808 809/809/809 810/810/810
v 0.1434672 -0.3040559 0.1300000
vn 0.52436003 -0.85149666 0.00000000
v 0.2880831 -0.2150000 0.1300000
vn 0.52436003 -0.85149666 0.00000000
v 0.2880831 -0.2150000 0.1800000
vn 0.52436003 -0.85149666 0.00000000
f 811/811/811 812/812/812 813/813/813
v 0.1434672 -0.3040559 0.1300000
vn 0.52436003 -0.85149666 0.00000000
v 0.2880831 -0.2150000 0.1800000
vn 0.52436003 -0.85149666 0.00000000
v 0.1434672 -0.3040559 0.1800000
vn 0.52436003 -0.85149666 0.00000000
f 814/814/814 815/815/815 816/816/816
v 0.2880831 -0.2150000 0.1300000
vn 0.75198339 -0.65918206 0.00000000
v 0.3789925 -0.1112922 0.1300000
vn 0.75198339 -0.65918206 0.00000000
v 0.3789925 -0.1112922 0.1800000
vn 0.75198339 -0.65918206 0.00000000
f 817/817/817 818/818/818 819/819/819
v 0.2880831 -0.2150000 0.1300000
vn 0.75198339 -0.65918206 0.00000000
v 0.3789925 -0.1112922 0.1800000
vn 0.75198339 -0.65918206 0.00000000
v 0.2880831 -0.2150000 0.1800000
vn 0.75198339 -0.65918206 0.00000000
f 820/820/820 821/821/821 822/822/822
v 0.3789925 -0.1112922 0.1300000
vn 0.96330996 -0.26839135 0.00000000
v 0.4100000 0.0000000 0.1300000
vn 0.96330996 -0.26839135 0.00000000
v 0.4100000 0.0000000 0.1800000
vn 0.96330996 -0.26839135 0.00000000
f 823/823/823 824/824/824 825/825/825
v 0.3789925 -0.1112922 0.1300000
vn 0.96330996 -0.26839135 0.00000000
v 0.4100000 0.0000000 0.1800000
vn 0.96330996 -0.26839135 0.00000000
v 0.3789925 -0.1112922 0.1800000
vn 0.96330996 -0.26839135 0.00000000
f 826/826/826 827/827/827 828/828/828
v 0.3395757 0.3999858 0.3051989
vn 0.91125460 0.40738555 0.06043233
v 0.3579416 0.3589043 0.3051989
vn 0.91125460 0.40738555 0.06043233
v 0.3604243 0.3600142 0.2602811
vn 0.91125460 0.40738555 0.06043233
f 829/829/829 830/830/830 831/831/831
v 0.3395757 0.3999858 0.3051989
vn 0.91125460 0.40738555 0.06043233
v 0.3604243 0.3600142 0.2602811
vn 0.91125460 0.40738555 0.06043233
v 0.3420584 0.4010957 0.2602811
vn 0.91125460 0.40738555 0.06043233
f 832/832/832 833/833/833 834/834/834
v -0.5000000 -0.0246461 0.2483022
vn -0.05517003 -0.02466432 0.99817230
v 0.3579416 0.3589043 0.3051989
vn -0.05517003 -0.02466432 0.99817230
v 0.3395757 0.3999858 0.3051989
vn -0.05517003 -0.02466432 0.99817230
f 835/835/835 836/836/836 837/837/837
v -0.5000000 -0.0246461 0.2483022
vn -0.05517003 -0.02466432 0.99817230
v 0.3395757 0.3999858 0.3051989
vn -0.05517003 -0.02466432 0.99817230
v -0.5000000 0.0246461 0.2495202
vn -0.05517003 -0.02466432 0.99817230
f 838/838/838 839/839/839 840/840/840
v -0.5000000 -0.0246461 0.2032198
vn 0.40813055 -0.91292358 -0.00000013
v 0.3604243 0.3600142 0.2602811
vn 0.40813055 -0.91292358 -0.00000013
v 0.3579416 0.3589043 0.3051989
vn 0.40813055 -0.91292358 -0.00000013
f 841/841/841 842/842/842 843/843/843
v -0.5000000 -0.0246461 0.2032198
vn 0.40813055 -0.91292358 -0.00000013
v 0.3579416 0.3589043 0.3051989
vn 0.40813055 -0.91292358 -0.00000013
v -0.5000000 -0.0246461 0.2483022
vn 0.40813055 -0.91292358 -0.00000013
f 844/844/844 845/845/845 846/846/846
v -0.5000000 0.0246461 0.2044378
vn 0.05517003 0.02466432 -0.99817230
v 0.3420584 0.4010957 0.2602811
vn 0.05517003 0.02466432 -0.99817230
v 0.3604243 0.3600142 0.2602811
vn 0.05517003 0.02466432 -0.99817230
f 847/847/847 848/848/848 849/849/849
v -0.5000000 0.0246461 0.2044378
vn 0.05517003 0.02466432 -0.99817230
v 0.3604243 0.3600142 0.2602811
vn 0.05517003 0.02466432 -0.99817230
v -0.5000000 -0.0246461 0.2032198
vn 0.05517003 0.02466432 -0.99817230
f 850/850/850 851/851/851 852/852/852
v -0.5000000 0.0246461 0.2495202
vn -0.40813055 0.91292358 0.00000013
v 0.3395757 0.3999858 0.3051989
vn -0.40813055 0.91292358 0.00000013
v 0.3420584 0.4010957 0.2602811
vn -0.40813055 0.91292358 0.00000013
f 853/853/853 854/854/854 855/855/855
v -0.5000000 0.0246461 0.2495202
vn -0.40813055 0.91292358 0.00000013
v 0.3420584 0.4010957 0.2602811
vn -0.40813055 0.91292358 0.00000013
v -0.5000000 0.0246461 0.2044378
vn -0.40813055 0.91292358 0.00000013
f 856/856/856 857/857/857 858/858/858
v 0.3579416 -0.3589043 0.3051989
vn 0.91125460 -0.40738555 0.06043233
v 0.3395757 -0.3999858 0.3051989
vn 0.91125460 -0.40738555 0.06043233
v 0.3420584 -0.4010957 0.2602811
vn 0.91125460 -0.40738555 0.06043233
f 859/859/859 860/860/860 861/861/861
v 0.3579416 -0.3589043 0.3051989
vn 0.91125460 -0.40738555 0.06043233
v 0.3420584 -0.4010957 0.2602811
vn 0.91125460 -0.40738555 0.06043233
v 0.3604243 -0.3600142 0.2602811
vn 0.91125460 -0.40738555 0.06043233
f 862/862/862 863/863/863 864/864/864
v -0.5000000 -0.0246461 0.2495202
vn -0.05517003 0.02466432 0.99817230
v 0.3395757 -0.3999858 0.3051989
vn -0.05517003 0.02466432 0.99817230
v 0.3579416 -0.3589043 0.3051989
vn -0.05517003 0.02466432 0.99817230
f 865/865/865 866/866/866 867/867/867
v -0.5000000 -0.0246461 0.2495202
vn -0.05517003 0.02466432 0.99817230
v 0.3579416 -0.3589043 0.3051989
vn -0.05517003 0.02466432 0.99817230
v -0.5000000 0.0246461 0.2483022
vn -0.05517003 0.02466432 0.99817230
f 868/868/868 869/869/869 870/870/870
v -0.5000000 -0.0246461 0.2044378
vn -0.40813055 -0.91292358 0.00000013
v 0.3420584 -0.4010957 0.2602811
vn -0.40813055 -0.91292358 0.00000013
v 0.3395757 -0.3999858 0.3051989
vn -0.40813055 -0.91292358 0.00000013
f 871/871/871 872/872/872 873/873/873
v -0.5000000 -0.0246461 0.2044378
vn -0.40813055 -0.91292358 0.00000013
v 0.3395757 -0.3999858 0.3051989
vn -0.40813055 -0.91292358 0.00000013
v -0.5000000 -0.0246461 0.2495202
vn -0.40813055 -0.91292358 0.00000013
f 874/874/874 875/875/875 876/876/876
v -0.5000000 0.0246461 0.2032198
vn 0.05517003 -0.02466432 -0.99817230
v 0.3604243 -0.3600142 0.2602811
vn 0.05517003 -0.02466432 -0.99817230
v 0.3420584 -0.4010957 0.2602811
vn 0.05517003 -0.02466432 -0.99817230
f 877/877/877 878/878/878 879/879/879
v -0.5000000 0.0246461 0.2032198
vn 0.05517003 -0.02466432 -0.99817230
v 0.3420584 -0.4010957 0.2602811
vn 0.05517003 -0.02466432 -0.99817230
v -0.5000000 -0.0246461 0.2044378
vn 0.05517003 -0.02466432 -0.99817230
f 880/880/880 881/881/881 882/882/882
v -0.5000000 0.0246461 0.2483022
vn 0.40813055 0.91292358 -0.00000013
v 0.3579416 -0.3589043 0.3051989
vn 0.40813055 0.91292358 -0.00000013
v 0.3604243 -0.3600142 0.2602811
vn 0.40813055 0.91292358 -0.00000013
f 883/883/883 884/884/884 885/885/885
v -0.5000000 0.0246461 0.2483022
vn 0.40813055 0.91292358 -0.00000013
v 0.3604243 -0.3600142 0.2602811
vn 0.40813055 0.91292358 -0.00000013
v -0.5000000 0.0246461 0.2032198
vn 0.40813055 0.91292358 -0.00000013
f 886/886/886 887/887/887 888/888/888
