# Native geometry authored with Blender MCP in an isolated background process.
mtllib ../Materials/pz_trashbin_green.mtl
o pz_trashbin_green_|_open_tapered_trash_body
usemtl UV_Base
v 0.1492400 0.0000000 0.0220000
vn 0.0000000 0.0000000 -0.9999999
v 0.1292456 -0.0746200 0.0220000
vn 0.0000000 0.0000000 -0.9999999
v 0.0746200 -0.1292456 0.0220000
vn 0.0000000 0.0000000 -0.9999999
vt 0.449999378 0.853905939
vt 0.437125279 0.901952659
vt 0.401952659 0.937125279
vt 0.401952659 0.937125279
vt 0.353905939 0.949999378
vt 0.305859220 0.937125279
vt 0.305859220 0.937125279
vt 0.270686600 0.901952659
vt 0.257812500 0.853905939
vt 0.257812500 0.853905939
vt 0.270686600 0.805859220
vt 0.305859220 0.770686600
vt 0.305859220 0.770686600
vt 0.353905939 0.757812500
vt 0.401952659 0.770686600
vt 0.401952659 0.770686600
vt 0.437125279 0.805859220
vt 0.449999378 0.853905939
vt 0.449999378 0.853905939
vt 0.401952659 0.937125279
vt 0.305859220 0.937125279
vt 0.305859220 0.937125279
vt 0.257812500 0.853905939
vt 0.305859220 0.770686600
vt 0.305859220 0.770686600
vt 0.401952659 0.770686600
vt 0.449999378 0.853905939
vt 0.305859220 0.937125279
vt 0.305859220 0.770686600
vt 0.449999378 0.853905939
vt 0.628069754 0.800502094
vt 0.639508376 0.843191688
vt 0.628069754 0.885881282
vt 0.628069754 0.885881282
vt 0.596818782 0.917132254
vt 0.554129188 0.928570876
vt 0.554129188 0.928570876
vt 0.511439594 0.917132254
vt 0.480188622 0.885881282
vt 0.480188622 0.885881282
vt 0.468750000 0.843191688
vt 0.480188622 0.800502094
vt 0.480188622 0.800502094
vt 0.511439594 0.769251122
vt 0.554129188 0.757812500
vt 0.554129188 0.757812500
vt 0.596818782 0.769251122
vt 0.628069754 0.800502094
vt 0.628069754 0.800502094
vt 0.628069754 0.885881282
vt 0.554129188 0.928570876
vt 0.554129188 0.928570876
vt 0.480188622 0.885881282
vt 0.480188622 0.800502094
vt 0.480188622 0.800502094
vt 0.554129188 0.757812500
vt 0.628069754 0.800502094
vt 0.554129188 0.928570876
vt 0.480188622 0.800502094
vt 0.628069754 0.800502094
vt 0.009103759 0.115547106
vt 0.009103759 0.065805477
vt 0.324596854 0.060346033
vt 0.009103759 0.115547106
vt 0.324596854 0.060346033
vt 0.324596854 0.121006554
vt 0.009103759 0.065805477
vt 0.007812501 0.022727989
vt 0.323022149 0.007812500
vt 0.009103759 0.065805477
vt 0.323022149 0.007812500
vt 0.324596854 0.060346033
vt 0.351942674 0.115656159
vt 0.352322054 0.066653580
vt 0.667804359 0.064774443
vt 0.351942674 0.115656159
vt 0.667804359 0.064774443
vt 0.667341700 0.124533685
vt 0.352322054 0.066653580
vt 0.351562500 0.019944788
vt 0.666878074 0.007812500
vt 0.352322054 0.066653580
vt 0.666878074 0.007812500
vt 0.667804359 0.064774443
vt 0.008192673 0.299249893
vt 0.008572053 0.250247343
vt 0.324054358 0.248368203
vt 0.008192673 0.299249893
vt 0.324054358 0.248368203
vt 0.323591700 0.308127422
vt 0.008572053 0.250247343
vt 0.007812500 0.203538538
vt 0.323128073 0.191406250
vt 0.008572053 0.250247343
vt 0.323128073 0.191406250
vt 0.324054358 0.248368203
vt 0.351942673 0.299249893
vt 0.352322052 0.250247309
vt 0.667804357 0.248368180
vt 0.351942673 0.299249893
vt 0.667804357 0.248368180
vt 0.667341699 0.308127424
vt 0.352322052 0.250247309
vt 0.351562500 0.203538537
vt 0.666878074 0.191406250
vt 0.352322052 0.250247309
vt 0.666878074 0.191406250
vt 0.667804357 0.248368180
vt 0.008192674 0.432062409
vt 0.008572054 0.383059830
vt 0.324054359 0.381180693
vt 0.008192674 0.432062409
vt 0.324054359 0.381180693
vt 0.323591700 0.440939935
vt 0.008572054 0.383059830
vt 0.007812500 0.336351038
vt 0.323128074 0.324218750
vt 0.008572054 0.383059830
vt 0.323128074 0.324218750
vt 0.324054359 0.381180693
vt 0.351562500 0.379419796
vt 0.351562500 0.329678200
vt 0.666916274 0.324218750
vt 0.351562500 0.379419796
vt 0.666916274 0.324218750
vt 0.666916274 0.384879246
vt 0.007812500 0.158624609
vt 0.009103759 0.115547106
vt 0.324596854 0.121006554
vt 0.007812500 0.158624609
vt 0.324596854 0.121006554
vt 0.323022148 0.173540097
vt 0.324596854 0.121006554
vt 0.324596854 0.060346033
vt 0.333599090 0.060346033
vt 0.324596854 0.121006554
vt 0.333599090 0.060346033
vt 0.333599091 0.121006554
vt 0.695312500 0.252066746
vt 0.695312500 0.191406250
vt 0.704326894 0.191406250
vt 0.695312500 0.252066746
vt 0.704326894 0.191406250
vt 0.704326894 0.252066746
vt 0.667341700 0.124533685
vt 0.667804359 0.064774443
vt 0.676809859 0.064774443
vt 0.667341700 0.124533685
vt 0.676809859 0.064774443
vt 0.676347200 0.124533685
vt 0.722656250 0.252066771
vt 0.722656250 0.191406250
vt 0.731670644 0.191406250
vt 0.722656250 0.252066771
vt 0.731670644 0.191406250
vt 0.731670644 0.252066771
vt 0.323591700 0.308127422
vt 0.324054358 0.248368203
vt 0.333059858 0.248368203
vt 0.323591700 0.308127422
vt 0.333059858 0.248368203
vt 0.332597200 0.308127422
vt 0.750000000 0.252066771
vt 0.750000000 0.191406250
vt 0.759014394 0.191406250
vt 0.750000000 0.252066771
vt 0.759014394 0.191406250
vt 0.759014394 0.252066771
vt 0.667341699 0.308127424
vt 0.667804357 0.248368180
vt 0.676809858 0.248368180
vt 0.667341699 0.308127424
vt 0.676809858 0.248368180
vt 0.676347199 0.308127424
vt 0.777343750 0.252066746
vt 0.777343750 0.191406250
vt 0.786358144 0.191406250
vt 0.777343750 0.252066746
vt 0.786358144 0.191406250
vt 0.786358144 0.252066746
vt 0.323591700 0.440939935
vt 0.324054359 0.381180693
vt 0.333059859 0.381180693
vt 0.323591700 0.440939935
vt 0.333059859 0.381180693
vt 0.332597200 0.440939935
vt 0.804687500 0.252066771
vt 0.804687500 0.191406250
vt 0.813701894 0.191406250
vt 0.804687500 0.252066771
vt 0.813701894 0.191406250
vt 0.813701894 0.252066771
vt 0.666916274 0.384879246
vt 0.666916274 0.324218750
vt 0.675925963 0.324218750
vt 0.666916274 0.384879246
vt 0.675925963 0.324218750
vt 0.675925963 0.384879246
vt 0.832031250 0.252066771
vt 0.832031250 0.191406250
vt 0.841045644 0.191406250
vt 0.832031250 0.252066771
vt 0.841045644 0.191406250
vt 0.841045644 0.252066771
vt 0.242186742 0.874999621
vt 0.226486630 0.933593181
vt 0.219795181 0.929729870
vt 0.242186742 0.874999621
vt 0.219795181 0.929729870
vt 0.234460119 0.874999621
vt 0.226486630 0.933593181
vt 0.183593181 0.976486630
vt 0.179729870 0.969795181
vt 0.226486630 0.933593181
vt 0.179729870 0.969795181
vt 0.219795181 0.929729870
vt 0.183593181 0.976486630
vt 0.124999621 0.992186742
vt 0.124999621 0.984460119
vt 0.183593181 0.976486630
vt 0.124999621 0.984460119
vt 0.179729870 0.969795181
vt 0.124999621 0.992186742
vt 0.066406060 0.976486630
vt 0.070269372 0.969795181
vt 0.124999621 0.992186742
vt 0.070269372 0.969795181
vt 0.124999621 0.984460119
vt 0.066406060 0.976486630
vt 0.023512612 0.933593181
vt 0.030204061 0.929729870
vt 0.066406060 0.976486630
vt 0.030204061 0.929729870
vt 0.070269372 0.969795181
vt 0.023512612 0.933593181
vt 0.007812500 0.874999621
vt 0.015539123 0.874999621
vt 0.023512612 0.933593181
vt 0.015539123 0.874999621
vt 0.030204061 0.929729870
vt 0.007812500 0.874999621
vt 0.023512612 0.816406060
vt 0.030204061 0.820269372
vt 0.007812500 0.874999621
vt 0.030204061 0.820269372
vt 0.015539123 0.874999621
vt 0.023512612 0.816406060
vt 0.066406060 0.773512612
vt 0.070269372 0.780204061
vt 0.023512612 0.816406060
vt 0.070269372 0.780204061
vt 0.030204061 0.820269372
vt 0.066406060 0.773512612
vt 0.124999621 0.757812500
vt 0.124999621 0.765539123
vt 0.066406060 0.773512612
vt 0.124999621 0.765539123
vt 0.070269372 0.780204061
vt 0.124999621 0.757812500
vt 0.183593181 0.773512612
vt 0.179729870 0.780204061
vt 0.124999621 0.757812500
vt 0.179729870 0.780204061
vt 0.124999621 0.765539123
vt 0.183593181 0.773512612
vt 0.226486630 0.816406060
vt 0.219795181 0.820269372
vt 0.183593181 0.773512612
vt 0.219795181 0.820269372
vt 0.179729870 0.780204061
vt 0.226486630 0.816406060
vt 0.242186742 0.874999621
vt 0.234460119 0.874999621
vt 0.226486630 0.816406060
vt 0.234460119 0.874999621
vt 0.219795181 0.820269372
vt 0.322755090 0.506101046
vt 0.322755089 0.562761972
vt 0.009613885 0.556529262
vt 0.322755090 0.506101046
vt 0.009613885 0.556529262
vt 0.009613883 0.512333747
vt 0.322755089 0.562761972
vt 0.320445623 0.611831756
vt 0.007812500 0.594803729
vt 0.322755089 0.562761972
vt 0.007812500 0.594803729
vt 0.009613885 0.556529262
vt 0.343286575 0.566491748
vt 0.342159060 0.511761499
vt 0.655370541 0.511761499
vt 0.343286575 0.566491748
vt 0.655370541 0.511761499
vt 0.656250000 0.554451093
vt 0.342159060 0.511761499
vt 0.343286575 0.457031250
vt 0.656250000 0.469071905
vt 0.342159060 0.511761499
vt 0.656250000 0.469071905
vt 0.655370541 0.511761499
vt 0.984838426 0.457031250
vt 0.985965940 0.511761482
vt 0.672754462 0.511761499
vt 0.984838426 0.457031250
vt 0.672754462 0.511761499
vt 0.671875000 0.469071878
vt 0.985965940 0.511761482
vt 0.984838427 0.566491737
vt 0.671875000 0.554451084
vt 0.985965940 0.511761482
vt 0.671875000 0.554451084
vt 0.672754462 0.511761499
vt 0.320775927 0.628906250
vt 0.321903440 0.683636506
vt 0.008691962 0.683636488
vt 0.320775927 0.628906250
vt 0.008691962 0.683636488
vt 0.007812500 0.640946904
vt 0.321903440 0.683636506
vt 0.320775926 0.738366737
vt 0.007812500 0.726326109
vt 0.321903440 0.683636506
vt 0.007812500 0.726326109
vt 0.008691962 0.683636488
vt 0.655122485 0.628906250
vt 0.656250000 0.683636499
vt 0.343038520 0.683636499
vt 0.655122485 0.628906250
vt 0.343038520 0.683636499
vt 0.342159060 0.640946905
vt 0.656250000 0.683636499
vt 0.655122485 0.738366748
vt 0.342159060 0.726326093
vt 0.656250000 0.683636499
vt 0.342159060 0.726326093
vt 0.343038520 0.683636499
vt 0.985024459 0.628906250
vt 0.985024459 0.685567156
vt 0.671875000 0.679334477
vt 0.985024459 0.628906250
vt 0.671875000 0.679334477
vt 0.671875000 0.635138929
vt 0.320445623 0.457031250
vt 0.322755090 0.506101046
vt 0.009613883 0.512333747
vt 0.320445623 0.457031250
vt 0.009613883 0.512333747
vt 0.007812501 0.474059299
f 1/1/1 2/2/2 3/3/3
v 0.0746200 -0.1292456 0.0220000
vn 0.0000000 0.0000000 -1.0000000
v -0.0000000 -0.1492400 0.0220000
vn 0.0000000 0.0000000 -1.0000000
v -0.0746200 -0.1292456 0.0220000
vn 0.0000000 0.0000000 -1.0000000
f 4/4/4 5/5/5 6/6/6
v -0.0746200 -0.1292456 0.0220000
vn 0.0000000 0.0000000 -0.9999999
v -0.1292456 -0.0746200 0.0220000
vn 0.0000000 0.0000000 -0.9999999
v -0.1492400 0.0000000 0.0220000
vn 0.0000000 0.0000000 -0.9999999
f 7/7/7 8/8/8 9/9/9
v -0.1492400 0.0000000 0.0220000
vn 0.0000000 0.0000000 -0.9999999
v -0.1292456 0.0746200 0.0220000
vn 0.0000000 0.0000000 -0.9999999
v -0.0746200 0.1292456 0.0220000
vn 0.0000000 0.0000000 -0.9999999
f 10/10/10 11/11/11 12/12/12
v -0.0746200 0.1292456 0.0220000
vn -0.0000000 0.0000000 -1.0000000
v 0.0000000 0.1492400 0.0220000
vn -0.0000000 0.0000000 -1.0000000
v 0.0746200 0.1292456 0.0220000
vn -0.0000000 0.0000000 -1.0000000
f 13/13/13 14/14/14 15/15/15
v 0.0746200 0.1292456 0.0220000
vn 0.0000000 0.0000000 -0.9999999
v 0.1292456 0.0746200 0.0220000
vn 0.0000000 0.0000000 -0.9999999
v 0.1492400 0.0000000 0.0220000
vn 0.0000000 0.0000000 -0.9999999
f 16/16/16 17/17/17 18/18/18
v 0.1492400 0.0000000 0.0220000
vn 0.0000000 0.0000000 -1.0000000
v 0.0746200 -0.1292456 0.0220000
vn 0.0000000 0.0000000 -1.0000000
v -0.0746200 -0.1292456 0.0220000
vn 0.0000000 0.0000000 -1.0000000
f 19/19/19 20/20/20 21/21/21
v -0.0746200 -0.1292456 0.0220000
vn 0.0000000 -0.0000000 -1.0000000
v -0.1492400 0.0000000 0.0220000
vn 0.0000000 -0.0000000 -1.0000000
v -0.0746200 0.1292456 0.0220000
vn 0.0000000 -0.0000000 -1.0000000
f 22/22/22 23/23/23 24/24/24
v -0.0746200 0.1292456 0.0220000
vn 0.0000000 0.0000000 -1.0000000
v 0.0746200 0.1292456 0.0220000
vn 0.0000000 0.0000000 -1.0000000
v 0.1492400 0.0000000 0.0220000
vn 0.0000000 0.0000000 -1.0000000
f 25/25/25 26/26/26 27/27/27
v -0.0746200 -0.1292456 0.0220000
vn -0.0000000 -0.0000000 -1.0000000
v -0.0746200 0.1292456 0.0220000
vn -0.0000000 -0.0000000 -1.0000000
v 0.1492400 0.0000000 0.0220000
vn -0.0000000 -0.0000000 -1.0000000
f 28/28/28 29/29/29 30/30/30
v 0.1148350 -0.0663000 0.0400000
vn 0.0000000 0.0000000 1.0000000
v 0.1326000 0.0000000 0.0400000
vn 0.0000000 0.0000000 1.0000000
v 0.1148350 0.0663000 0.0400000
vn 0.0000000 0.0000000 1.0000000
f 31/31/31 32/32/32 33/33/33
v 0.1148350 0.0663000 0.0400000
vn 0.0000000 0.0000000 1.0000000
v 0.0663000 0.1148350 0.0400000
vn 0.0000000 0.0000000 1.0000000
v 0.0000000 0.1326000 0.0400000
vn 0.0000000 0.0000000 1.0000000
f 34/34/34 35/35/35 36/36/36
v 0.0000000 0.1326000 0.0400000
vn 0.0000000 0.0000000 1.0000000
v -0.0663000 0.1148350 0.0400000
vn 0.0000000 0.0000000 1.0000000
v -0.1148350 0.0663000 0.0400000
vn 0.0000000 0.0000000 1.0000000
f 37/37/37 38/38/38 39/39/39
v -0.1148350 0.0663000 0.0400000
vn 0.0000000 -0.0000000 1.0000000
v -0.1326000 0.0000000 0.0400000
vn 0.0000000 -0.0000000 1.0000000
v -0.1148350 -0.0663000 0.0400000
vn 0.0000000 -0.0000000 1.0000000
f 40/40/40 41/41/41 42/42/42
v -0.1148350 -0.0663000 0.0400000
vn 0.0000000 0.0000000 1.0000000
v -0.0663000 -0.1148350 0.0400000
vn 0.0000000 0.0000000 1.0000000
v -0.0000000 -0.1326000 0.0400000
vn 0.0000000 0.0000000 1.0000000
f 43/43/43 44/44/44 45/45/45
v -0.0000000 -0.1326000 0.0400000
vn 0.0000000 0.0000000 1.0000000
v 0.0663000 -0.1148350 0.0400000
vn 0.0000000 0.0000000 1.0000000
v 0.1148350 -0.0663000 0.0400000
vn 0.0000000 0.0000000 1.0000000
f 46/46/46 47/47/47 48/48/48
v 0.1148350 -0.0663000 0.0400000
vn 0.0000000 0.0000000 1.0000000
v 0.1148350 0.0663000 0.0400000
vn 0.0000000 0.0000000 1.0000000
v 0.0000000 0.1326000 0.0400000
vn 0.0000000 0.0000000 1.0000000
f 49/49/49 50/50/50 51/51/51
v 0.0000000 0.1326000 0.0400000
vn 0.0000000 0.0000000 1.0000000
v -0.1148350 0.0663000 0.0400000
vn 0.0000000 0.0000000 1.0000000
v -0.1148350 -0.0663000 0.0400000
vn 0.0000000 0.0000000 1.0000000
f 52/52/52 53/53/53 54/54/54
v -0.1148350 -0.0663000 0.0400000
vn 0.0000000 0.0000000 1.0000000
v -0.0000000 -0.1326000 0.0400000
vn 0.0000000 0.0000000 1.0000000
v 0.1148350 -0.0663000 0.0400000
vn 0.0000000 0.0000000 1.0000000
f 55/55/55 56/56/56 57/57/57
v 0.0000000 0.1326000 0.0400000
vn 0.0000000 -0.0000000 1.0000000
v -0.1148350 -0.0663000 0.0400000
vn 0.0000000 -0.0000000 1.0000000
v 0.1148350 -0.0663000 0.0400000
vn 0.0000000 -0.0000000 1.0000000
f 58/58/58 59/59/59 60/60/60
v 0.1492400 0.0000000 0.0220000
vn 0.9639097 0.2582789 -0.0645761
v 0.1292456 0.0746200 0.0220000
vn 0.9639097 0.2582789 -0.0645761
v 0.1576166 0.0910000 0.5110000
vn 0.9639097 0.2582789 -0.0645761
f 61/61/61 62/62/62 63/63/63
v 0.1492400 0.0000000 0.0220000
vn 0.9639097 0.2582787 -0.0645760
v 0.1576166 0.0910000 0.5110000
vn 0.9639097 0.2582787 -0.0645760
v 0.1820000 0.0000000 0.5110000
vn 0.9639097 0.2582787 -0.0645760
f 64/64/64 65/65/65 66/66/66
v 0.1292456 0.0746200 0.0220000
vn 0.7056309 0.7056309 -0.0645761
v 0.0746200 0.1292456 0.0220000
vn 0.7056309 0.7056309 -0.0645761
v 0.0910000 0.1576166 0.5110000
vn 0.7056309 0.7056309 -0.0645761
f 67/67/67 68/68/68 69/69/69
v 0.1292456 0.0746200 0.0220000
vn 0.7056309 0.7056309 -0.0645761
v 0.0910000 0.1576166 0.5110000
vn 0.7056309 0.7056309 -0.0645761
v 0.1576166 0.0910000 0.5110000
vn 0.7056309 0.7056309 -0.0645761
f 70/70/70 71/71/71 72/72/72
v 0.0746200 0.1292456 0.0220000
vn 0.2582789 0.9639097 -0.0645760
v 0.0000000 0.1492400 0.0220000
vn 0.2582789 0.9639097 -0.0645760
v 0.0000000 0.1820000 0.5110000
vn 0.2582789 0.9639097 -0.0645760
f 73/73/73 74/74/74 75/75/75
v 0.0746200 0.1292456 0.0220000
vn 0.2582787 0.9639097 -0.0645761
v 0.0000000 0.1820000 0.5110000
vn 0.2582787 0.9639097 -0.0645761
v 0.0910000 0.1576166 0.5110000
vn 0.2582787 0.9639097 -0.0645761
f 76/76/76 77/77/77 78/78/78
v 0.0000000 0.1492400 0.0220000
vn -0.2582789 0.9639097 -0.0645761
v -0.0746200 0.1292456 0.0220000
vn -0.2582789 0.9639097 -0.0645761
v -0.0910000 0.1576166 0.5110000
vn -0.2582789 0.9639097 -0.0645761
f 79/79/79 80/80/80 81/81/81
v 0.0000000 0.1492400 0.0220000
vn -0.2582787 0.9639097 -0.0645760
v -0.0910000 0.1576166 0.5110000
vn -0.2582787 0.9639097 -0.0645760
v 0.0000000 0.1820000 0.5110000
vn -0.2582787 0.9639097 -0.0645760
f 82/82/82 83/83/83 84/84/84
v -0.0746200 0.1292456 0.0220000
vn -0.7056309 0.7056309 -0.0645761
v -0.1292456 0.0746200 0.0220000
vn -0.7056309 0.7056309 -0.0645761
v -0.1576166 0.0910000 0.5110000
vn -0.7056309 0.7056309 -0.0645761
f 85/85/85 86/86/86 87/87/87
v -0.0746200 0.1292456 0.0220000
vn -0.7056309 0.7056309 -0.0645761
v -0.1576166 0.0910000 0.5110000
vn -0.7056309 0.7056309 -0.0645761
v -0.0910000 0.1576166 0.5110000
vn -0.7056309 0.7056309 -0.0645761
f 88/88/88 89/89/89 90/90/90
v -0.1292456 0.0746200 0.0220000
vn -0.9639097 0.2582789 -0.0645760
v -0.1492400 0.0000000 0.0220000
vn -0.9639097 0.2582789 -0.0645760
v -0.1820000 0.0000000 0.5110000
vn -0.9639097 0.2582789 -0.0645760
f 91/91/91 92/92/92 93/93/93
v -0.1292456 0.0746200 0.0220000
vn -0.9639097 0.2582787 -0.0645761
v -0.1820000 0.0000000 0.5110000
vn -0.9639097 0.2582787 -0.0645761
v -0.1576166 0.0910000 0.5110000
vn -0.9639097 0.2582787 -0.0645761
f 94/94/94 95/95/95 96/96/96
v -0.1492400 0.0000000 0.0220000
vn -0.9639097 -0.2582789 -0.0645761
v -0.1292456 -0.0746200 0.0220000
vn -0.9639097 -0.2582789 -0.0645761
v -0.1576166 -0.0910000 0.5110000
vn -0.9639097 -0.2582789 -0.0645761
f 97/97/97 98/98/98 99/99/99
v -0.1492400 0.0000000 0.0220000
vn -0.9639097 -0.2582787 -0.0645760
v -0.1576166 -0.0910000 0.5110000
vn -0.9639097 -0.2582787 -0.0645760
v -0.1820000 0.0000000 0.5110000
vn -0.9639097 -0.2582787 -0.0645760
f 100/100/100 101/101/101 102/102/102
v -0.1292456 -0.0746200 0.0220000
vn -0.7056309 -0.7056309 -0.0645761
v -0.0746200 -0.1292456 0.0220000
vn -0.7056309 -0.7056309 -0.0645761
v -0.0910000 -0.1576166 0.5110000
vn -0.7056309 -0.7056309 -0.0645761
f 103/103/103 104/104/104 105/105/105
v -0.1292456 -0.0746200 0.0220000
vn -0.7056309 -0.7056309 -0.0645761
v -0.0910000 -0.1576166 0.5110000
vn -0.7056309 -0.7056309 -0.0645761
v -0.1576166 -0.0910000 0.5110000
vn -0.7056309 -0.7056309 -0.0645761
f 106/106/106 107/107/107 108/108/108
v -0.0746200 -0.1292456 0.0220000
vn -0.2582789 -0.9639097 -0.0645760
v -0.0000000 -0.1492400 0.0220000
vn -0.2582789 -0.9639097 -0.0645760
v -0.0000000 -0.1820000 0.5110000
vn -0.2582789 -0.9639097 -0.0645760
f 109/109/109 110/110/110 111/111/111
v -0.0746200 -0.1292456 0.0220000
vn -0.2582787 -0.9639097 -0.0645761
v -0.0000000 -0.1820000 0.5110000
vn -0.2582787 -0.9639097 -0.0645761
v -0.0910000 -0.1576166 0.5110000
vn -0.2582787 -0.9639097 -0.0645761
f 112/112/112 113/113/113 114/114/114
v -0.0000000 -0.1492400 0.0220000
vn 0.2582789 -0.9639097 -0.0645761
v 0.0746200 -0.1292456 0.0220000
vn 0.2582789 -0.9639097 -0.0645761
v 0.0910000 -0.1576166 0.5110000
vn 0.2582789 -0.9639097 -0.0645761
f 115/115/115 116/116/116 117/117/117
v -0.0000000 -0.1492400 0.0220000
vn 0.2582787 -0.9639097 -0.0645760
v 0.0910000 -0.1576166 0.5110000
vn 0.2582787 -0.9639097 -0.0645760
v -0.0000000 -0.1820000 0.5110000
vn 0.2582787 -0.9639097 -0.0645760
f 118/118/118 119/119/119 120/120/120
v 0.0746200 -0.1292456 0.0220000
vn 0.7056309 -0.7056309 -0.0645761
v 0.1292456 -0.0746200 0.0220000
vn 0.7056309 -0.7056309 -0.0645761
v 0.1576166 -0.0910000 0.5110000
vn 0.7056309 -0.7056309 -0.0645761
f 121/121/121 122/122/122 123/123/123
v 0.0746200 -0.1292456 0.0220000
vn 0.7056309 -0.7056309 -0.0645761
v 0.1576166 -0.0910000 0.5110000
vn 0.7056309 -0.7056309 -0.0645761
v 0.0910000 -0.1576166 0.5110000
vn 0.7056309 -0.7056309 -0.0645761
f 124/124/124 125/125/125 126/126/126
v 0.1292456 -0.0746200 0.0220000
vn 0.9639097 -0.2582789 -0.0645760
v 0.1492400 0.0000000 0.0220000
vn 0.9639097 -0.2582789 -0.0645760
v 0.1820000 0.0000000 0.5110000
vn 0.9639097 -0.2582789 -0.0645760
f 127/127/127 128/128/128 129/129/129
v 0.1292456 -0.0746200 0.0220000
vn 0.9639097 -0.2582787 -0.0645761
v 0.1820000 0.0000000 0.5110000
vn 0.9639097 -0.2582787 -0.0645761
v 0.1576166 -0.0910000 0.5110000
vn 0.9639097 -0.2582787 -0.0645761
f 130/130/130 131/131/131 132/132/132
v 0.1820000 0.0000000 0.5110000
vn 0.9659259 0.2588190 0.0000000
v 0.1576166 0.0910000 0.5110000
vn 0.9659259 0.2588190 0.0000000
v 0.1576166 0.0910000 0.5250000
vn 0.9659259 0.2588190 0.0000000
f 133/133/133 134/134/134 135/135/135
v 0.1820000 0.0000000 0.5110000
vn 0.9659259 0.2588190 0.0000000
v 0.1576166 0.0910000 0.5250000
vn 0.9659259 0.2588190 0.0000000
v 0.1820000 0.0000000 0.5250000
vn 0.9659259 0.2588190 0.0000000
f 136/136/136 137/137/137 138/138/138
v 0.1576166 0.0910000 0.5110000
vn 0.7071068 0.7071068 0.0000000
v 0.0910000 0.1576166 0.5110000
vn 0.7071068 0.7071068 0.0000000
v 0.0910000 0.1576166 0.5250000
vn 0.7071068 0.7071068 0.0000000
f 139/139/139 140/140/140 141/141/141
v 0.1576166 0.0910000 0.5110000
vn 0.7071068 0.7071068 0.0000000
v 0.0910000 0.1576166 0.5250000
vn 0.7071068 0.7071068 0.0000000
v 0.1576166 0.0910000 0.5250000
vn 0.7071068 0.7071068 0.0000000
f 142/142/142 143/143/143 144/144/144
v 0.0910000 0.1576166 0.5110000
vn 0.2588190 0.9659259 0.0000000
v 0.0000000 0.1820000 0.5110000
vn 0.2588190 0.9659259 0.0000000
v 0.0000000 0.1820000 0.5250000
vn 0.2588190 0.9659259 0.0000000
f 145/145/145 146/146/146 147/147/147
v 0.0910000 0.1576166 0.5110000
vn 0.2588190 0.9659259 0.0000000
v 0.0000000 0.1820000 0.5250000
vn 0.2588190 0.9659259 0.0000000
v 0.0910000 0.1576166 0.5250000
vn 0.2588190 0.9659259 0.0000000
f 148/148/148 149/149/149 150/150/150
v 0.0000000 0.1820000 0.5110000
vn -0.2588190 0.9659259 0.0000000
v -0.0910000 0.1576166 0.5110000
vn -0.2588190 0.9659259 0.0000000
v -0.0910000 0.1576166 0.5250000
vn -0.2588190 0.9659259 0.0000000
f 151/151/151 152/152/152 153/153/153
v 0.0000000 0.1820000 0.5110000
vn -0.2588190 0.9659259 0.0000000
v -0.0910000 0.1576166 0.5250000
vn -0.2588190 0.9659259 0.0000000
v 0.0000000 0.1820000 0.5250000
vn -0.2588190 0.9659259 0.0000000
f 154/154/154 155/155/155 156/156/156
v -0.0910000 0.1576166 0.5110000
vn -0.7071068 0.7071068 0.0000000
v -0.1576166 0.0910000 0.5110000
vn -0.7071068 0.7071068 0.0000000
v -0.1576166 0.0910000 0.5250000
vn -0.7071068 0.7071068 0.0000000
f 157/157/157 158/158/158 159/159/159
v -0.0910000 0.1576166 0.5110000
vn -0.7071068 0.7071068 0.0000000
v -0.1576166 0.0910000 0.5250000
vn -0.7071068 0.7071068 0.0000000
v -0.0910000 0.1576166 0.5250000
vn -0.7071068 0.7071068 0.0000000
f 160/160/160 161/161/161 162/162/162
v -0.1576166 0.0910000 0.5110000
vn -0.9659259 0.2588190 0.0000000
v -0.1820000 0.0000000 0.5110000
vn -0.9659259 0.2588190 0.0000000
v -0.1820000 0.0000000 0.5250000
vn -0.9659259 0.2588190 0.0000000
f 163/163/163 164/164/164 165/165/165
v -0.1576166 0.0910000 0.5110000
vn -0.9659259 0.2588190 0.0000000
v -0.1820000 0.0000000 0.5250000
vn -0.9659259 0.2588190 0.0000000
v -0.1576166 0.0910000 0.5250000
vn -0.9659259 0.2588190 0.0000000
f 166/166/166 167/167/167 168/168/168
v -0.1820000 0.0000000 0.5110000
vn -0.9659259 -0.2588190 -0.0000000
v -0.1576166 -0.0910000 0.5110000
vn -0.9659259 -0.2588190 -0.0000000
v -0.1576166 -0.0910000 0.5250000
vn -0.9659259 -0.2588190 -0.0000000
f 169/169/169 170/170/170 171/171/171
v -0.1820000 0.0000000 0.5110000
vn -0.9659259 -0.2588190 0.0000000
v -0.1576166 -0.0910000 0.5250000
vn -0.9659259 -0.2588190 0.0000000
v -0.1820000 0.0000000 0.5250000
vn -0.9659259 -0.2588190 0.0000000
f 172/172/172 173/173/173 174/174/174
v -0.1576166 -0.0910000 0.5110000
vn -0.7071068 -0.7071068 -0.0000000
v -0.0910000 -0.1576166 0.5110000
vn -0.7071068 -0.7071068 -0.0000000
v -0.0910000 -0.1576166 0.5250000
vn -0.7071068 -0.7071068 -0.0000000
f 175/175/175 176/176/176 177/177/177
v -0.1576166 -0.0910000 0.5110000
vn -0.7071068 -0.7071068 0.0000000
v -0.0910000 -0.1576166 0.5250000
vn -0.7071068 -0.7071068 0.0000000
v -0.1576166 -0.0910000 0.5250000
vn -0.7071068 -0.7071068 0.0000000
f 178/178/178 179/179/179 180/180/180
v -0.0910000 -0.1576166 0.5110000
vn -0.2588190 -0.9659259 -0.0000000
v -0.0000000 -0.1820000 0.5110000
vn -0.2588190 -0.9659259 -0.0000000
v -0.0000000 -0.1820000 0.5250000
vn -0.2588190 -0.9659259 -0.0000000
f 181/181/181 182/182/182 183/183/183
v -0.0910000 -0.1576166 0.5110000
vn -0.2588190 -0.9659259 0.0000000
v -0.0000000 -0.1820000 0.5250000
vn -0.2588190 -0.9659259 0.0000000
v -0.0910000 -0.1576166 0.5250000
vn -0.2588190 -0.9659259 0.0000000
f 184/184/184 185/185/185 186/186/186
v -0.0000000 -0.1820000 0.5110000
vn 0.2588190 -0.9659259 0.0000000
v 0.0910000 -0.1576166 0.5110000
vn 0.2588190 -0.9659259 0.0000000
v 0.0910000 -0.1576166 0.5250000
vn 0.2588190 -0.9659259 0.0000000
f 187/187/187 188/188/188 189/189/189
v -0.0000000 -0.1820000 0.5110000
vn 0.2588190 -0.9659259 0.0000000
v 0.0910000 -0.1576166 0.5250000
vn 0.2588190 -0.9659259 0.0000000
v -0.0000000 -0.1820000 0.5250000
vn 0.2588190 -0.9659259 0.0000000
f 190/190/190 191/191/191 192/192/192
v 0.0910000 -0.1576166 0.5110000
vn 0.7071068 -0.7071068 0.0000000
v 0.1576166 -0.0910000 0.5110000
vn 0.7071068 -0.7071068 0.0000000
v 0.1576166 -0.0910000 0.5250000
vn 0.7071068 -0.7071068 0.0000000
f 193/193/193 194/194/194 195/195/195
v 0.0910000 -0.1576166 0.5110000
vn 0.7071068 -0.7071068 0.0000000
v 0.1576166 -0.0910000 0.5250000
vn 0.7071068 -0.7071068 0.0000000
v 0.0910000 -0.1576166 0.5250000
vn 0.7071068 -0.7071068 0.0000000
f 196/196/196 197/197/197 198/198/198
v 0.1576166 -0.0910000 0.5110000
vn 0.9659259 -0.2588190 0.0000000
v 0.1820000 0.0000000 0.5110000
vn 0.9659259 -0.2588190 0.0000000
v 0.1820000 0.0000000 0.5250000
vn 0.9659259 -0.2588190 0.0000000
f 199/199/199 200/200/200 201/201/201
v 0.1576166 -0.0910000 0.5110000
vn 0.9659259 -0.2588190 0.0000000
v 0.1820000 0.0000000 0.5250000
vn 0.9659259 -0.2588190 0.0000000
v 0.1576166 -0.0910000 0.5250000
vn 0.9659259 -0.2588190 0.0000000
f 202/202/202 203/203/203 204/204/204
v 0.1820000 0.0000000 0.5250000
vn -0.0000000 0.0000000 1.0000000
v 0.1576166 0.0910000 0.5250000
vn -0.0000000 0.0000000 1.0000000
v 0.1472243 0.0850000 0.5250000
vn -0.0000000 0.0000000 1.0000000
f 205/205/205 206/206/206 207/207/207
v 0.1820000 0.0000000 0.5250000
vn -0.0000000 -0.0000000 1.0000000
v 0.1472243 0.0850000 0.5250000
vn -0.0000000 -0.0000000 1.0000000
v 0.1700000 0.0000000 0.5250000
vn -0.0000000 -0.0000000 1.0000000
f 208/208/208 209/209/209 210/210/210
v 0.1576166 0.0910000 0.5250000
vn -0.0000000 0.0000000 1.0000000
v 0.0910000 0.1576166 0.5250000
vn -0.0000000 0.0000000 1.0000000
v 0.0850000 0.1472243 0.5250000
vn -0.0000000 0.0000000 1.0000000
f 211/211/211 212/212/212 213/213/213
v 0.1576166 0.0910000 0.5250000
vn -0.0000000 -0.0000000 1.0000000
v 0.0850000 0.1472243 0.5250000
vn -0.0000000 -0.0000000 1.0000000
v 0.1472243 0.0850000 0.5250000
vn -0.0000000 -0.0000000 1.0000000
f 214/214/214 215/215/215 216/216/216
v 0.0910000 0.1576166 0.5250000
vn -0.0000000 0.0000000 1.0000000
v 0.0000000 0.1820000 0.5250000
vn -0.0000000 0.0000000 1.0000000
v 0.0000000 0.1700000 0.5250000
vn -0.0000000 0.0000000 1.0000000
f 217/217/217 218/218/218 219/219/219
v 0.0910000 0.1576166 0.5250000
vn -0.0000000 -0.0000000 1.0000000
v 0.0000000 0.1700000 0.5250000
vn -0.0000000 -0.0000000 1.0000000
v 0.0850000 0.1472243 0.5250000
vn -0.0000000 -0.0000000 1.0000000
f 220/220/220 221/221/221 222/222/222
v 0.0000000 0.1820000 0.5250000
vn 0.0000000 -0.0000000 1.0000000
v -0.0910000 0.1576166 0.5250000
vn 0.0000000 -0.0000000 1.0000000
v -0.0850000 0.1472243 0.5250000
vn 0.0000000 -0.0000000 1.0000000
f 223/223/223 224/224/224 225/225/225
v 0.0000000 0.1820000 0.5250000
vn 0.0000000 -0.0000000 1.0000000
v -0.0850000 0.1472243 0.5250000
vn 0.0000000 -0.0000000 1.0000000
v 0.0000000 0.1700000 0.5250000
vn 0.0000000 -0.0000000 1.0000000
f 226/226/226 227/227/227 228/228/228
v -0.0910000 0.1576166 0.5250000
vn 0.0000000 -0.0000000 1.0000000
v -0.1576166 0.0910000 0.5250000
vn 0.0000000 -0.0000000 1.0000000
v -0.1472243 0.0850000 0.5250000
vn 0.0000000 -0.0000000 1.0000000
f 229/229/229 230/230/230 231/231/231
v -0.0910000 0.1576166 0.5250000
vn 0.0000000 -0.0000000 1.0000000
v -0.1472243 0.0850000 0.5250000
vn 0.0000000 -0.0000000 1.0000000
v -0.0850000 0.1472243 0.5250000
vn 0.0000000 -0.0000000 1.0000000
f 232/232/232 233/233/233 234/234/234
v -0.1576166 0.0910000 0.5250000
vn 0.0000000 -0.0000000 1.0000000
v -0.1820000 0.0000000 0.5250000
vn 0.0000000 -0.0000000 1.0000000
v -0.1700000 0.0000000 0.5250000
vn 0.0000000 -0.0000000 1.0000000
f 235/235/235 236/236/236 237/237/237
v -0.1576166 0.0910000 0.5250000
vn 0.0000000 -0.0000000 1.0000000
v -0.1700000 0.0000000 0.5250000
vn 0.0000000 -0.0000000 1.0000000
v -0.1472243 0.0850000 0.5250000
vn 0.0000000 -0.0000000 1.0000000
f 238/238/238 239/239/239 240/240/240
v -0.1820000 0.0000000 0.5250000
vn 0.0000000 0.0000000 1.0000000
v -0.1576166 -0.0910000 0.5250000
vn 0.0000000 0.0000000 1.0000000
v -0.1472243 -0.0850000 0.5250000
vn 0.0000000 0.0000000 1.0000000
f 241/241/241 242/242/242 243/243/243
v -0.1820000 0.0000000 0.5250000
vn 0.0000000 0.0000000 1.0000000
v -0.1472243 -0.0850000 0.5250000
vn 0.0000000 0.0000000 1.0000000
v -0.1700000 0.0000000 0.5250000
vn 0.0000000 0.0000000 1.0000000
f 244/244/244 245/245/245 246/246/246
v -0.1576166 -0.0910000 0.5250000
vn 0.0000000 0.0000000 1.0000000
v -0.0910000 -0.1576166 0.5250000
vn 0.0000000 0.0000000 1.0000000
v -0.0850000 -0.1472243 0.5250000
vn 0.0000000 0.0000000 1.0000000
f 247/247/247 248/248/248 249/249/249
v -0.1576166 -0.0910000 0.5250000
vn 0.0000000 0.0000000 1.0000000
v -0.0850000 -0.1472243 0.5250000
vn 0.0000000 0.0000000 1.0000000
v -0.1472243 -0.0850000 0.5250000
vn 0.0000000 0.0000000 1.0000000
f 250/250/250 251/251/251 252/252/252
v -0.0910000 -0.1576166 0.5250000
vn 0.0000000 0.0000000 1.0000000
v -0.0000000 -0.1820000 0.5250000
vn 0.0000000 0.0000000 1.0000000
v -0.0000000 -0.1700000 0.5250000
vn 0.0000000 0.0000000 1.0000000
f 253/253/253 254/254/254 255/255/255
v -0.0910000 -0.1576166 0.5250000
vn 0.0000000 0.0000000 1.0000000
v -0.0000000 -0.1700000 0.5250000
vn 0.0000000 0.0000000 1.0000000
v -0.0850000 -0.1472243 0.5250000
vn 0.0000000 0.0000000 1.0000000
f 256/256/256 257/257/257 258/258/258
v -0.0000000 -0.1820000 0.5250000
vn 0.0000000 0.0000000 1.0000000
v 0.0910000 -0.1576166 0.5250000
vn 0.0000000 0.0000000 1.0000000
v 0.0850000 -0.1472243 0.5250000
vn 0.0000000 0.0000000 1.0000000
f 259/259/259 260/260/260 261/261/261
v -0.0000000 -0.1820000 0.5250000
vn -0.0000000 0.0000000 1.0000000
v 0.0850000 -0.1472243 0.5250000
vn -0.0000000 0.0000000 1.0000000
v -0.0000000 -0.1700000 0.5250000
vn -0.0000000 0.0000000 1.0000000
f 262/262/262 263/263/263 264/264/264
v 0.0910000 -0.1576166 0.5250000
vn 0.0000000 0.0000000 1.0000000
v 0.1576166 -0.0910000 0.5250000
vn 0.0000000 0.0000000 1.0000000
v 0.1472243 -0.0850000 0.5250000
vn 0.0000000 0.0000000 1.0000000
f 265/265/265 266/266/266 267/267/267
v 0.0910000 -0.1576166 0.5250000
vn -0.0000000 0.0000000 1.0000000
v 0.1472243 -0.0850000 0.5250000
vn -0.0000000 0.0000000 1.0000000
v 0.0850000 -0.1472243 0.5250000
vn -0.0000000 0.0000000 1.0000000
f 268/268/268 269/269/269 270/270/270
v 0.1576166 -0.0910000 0.5250000
vn -0.0000000 0.0000000 1.0000000
v 0.1820000 0.0000000 0.5250000
vn -0.0000000 0.0000000 1.0000000
v 0.1700000 0.0000000 0.5250000
vn -0.0000000 0.0000000 1.0000000
f 271/271/271 272/272/272 273/273/273
v 0.1576166 -0.0910000 0.5250000
vn -0.0000000 0.0000000 1.0000000
v 0.1700000 0.0000000 0.5250000
vn -0.0000000 0.0000000 1.0000000
v 0.1472243 -0.0850000 0.5250000
vn -0.0000000 0.0000000 1.0000000
f 274/274/274 275/275/275 276/276/276
v 0.1700000 0.0000000 0.5250000
vn -0.9632574 -0.2581041 0.0742801
v 0.1472243 0.0850000 0.5250000
vn -0.9632574 -0.2581041 0.0742801
v 0.1148350 0.0663000 0.0400000
vn -0.9632574 -0.2581041 0.0742801
f 277/277/277 278/278/278 279/279/279
v 0.1700000 0.0000000 0.5250000
vn -0.9632575 -0.2581039 0.0742801
v 0.1148350 0.0663000 0.0400000
vn -0.9632575 -0.2581039 0.0742801
v 0.1326000 0.0000000 0.0400000
vn -0.9632575 -0.2581039 0.0742801
f 280/280/280 281/281/281 282/282/282
v 0.1472243 0.0850000 0.5250000
vn -0.7051533 -0.7051533 0.0742801
v 0.0850000 0.1472243 0.5250000
vn -0.7051533 -0.7051533 0.0742801
v 0.0663000 0.1148350 0.0400000
vn -0.7051533 -0.7051533 0.0742801
f 283/283/283 284/284/284 285/285/285
v 0.1472243 0.0850000 0.5250000
vn -0.7051533 -0.7051533 0.0742801
v 0.0663000 0.1148350 0.0400000
vn -0.7051533 -0.7051533 0.0742801
v 0.1148350 0.0663000 0.0400000
vn -0.7051533 -0.7051533 0.0742801
f 286/286/286 287/287/287 288/288/288
v 0.0850000 0.1472243 0.5250000
vn -0.2581041 -0.9632574 0.0742801
v 0.0000000 0.1700000 0.5250000
vn -0.2581041 -0.9632574 0.0742801
v 0.0000000 0.1326000 0.0400000
vn -0.2581041 -0.9632574 0.0742801
f 289/289/289 290/290/290 291/291/291
v 0.0850000 0.1472243 0.5250000
vn -0.2581039 -0.9632575 0.0742801
v 0.0000000 0.1326000 0.0400000
vn -0.2581039 -0.9632575 0.0742801
v 0.0663000 0.1148350 0.0400000
vn -0.2581039 -0.9632575 0.0742801
f 292/292/292 293/293/293 294/294/294
v 0.0000000 0.1700000 0.5250000
vn 0.2581041 -0.9632574 0.0742801
v -0.0850000 0.1472243 0.5250000
vn 0.2581041 -0.9632574 0.0742801
v -0.0663000 0.1148350 0.0400000
vn 0.2581041 -0.9632574 0.0742801
f 295/295/295 296/296/296 297/297/297
v 0.0000000 0.1700000 0.5250000
vn 0.2581039 -0.9632575 0.0742801
v -0.0663000 0.1148350 0.0400000
vn 0.2581039 -0.9632575 0.0742801
v 0.0000000 0.1326000 0.0400000
vn 0.2581039 -0.9632575 0.0742801
f 298/298/298 299/299/299 300/300/300
v -0.0850000 0.1472243 0.5250000
vn 0.7051533 -0.7051533 0.0742801
v -0.1472243 0.0850000 0.5250000
vn 0.7051533 -0.7051533 0.0742801
v -0.1148350 0.0663000 0.0400000
vn 0.7051533 -0.7051533 0.0742801
f 301/301/301 302/302/302 303/303/303
v -0.0850000 0.1472243 0.5250000
vn 0.7051533 -0.7051533 0.0742801
v -0.1148350 0.0663000 0.0400000
vn 0.7051533 -0.7051533 0.0742801
v -0.0663000 0.1148350 0.0400000
vn 0.7051533 -0.7051533 0.0742801
f 304/304/304 305/305/305 306/306/306
v -0.1472243 0.0850000 0.5250000
vn 0.9632574 -0.2581041 0.0742801
v -0.1700000 0.0000000 0.5250000
vn 0.9632574 -0.2581041 0.0742801
v -0.1326000 0.0000000 0.0400000
vn 0.9632574 -0.2581041 0.0742801
f 307/307/307 308/308/308 309/309/309
v -0.1472243 0.0850000 0.5250000
vn 0.9632575 -0.2581039 0.0742801
v -0.1326000 0.0000000 0.0400000
vn 0.9632575 -0.2581039 0.0742801
v -0.1148350 0.0663000 0.0400000
vn 0.9632575 -0.2581039 0.0742801
f 310/310/310 311/311/311 312/312/312
v -0.1700000 0.0000000 0.5250000
vn 0.9632574 0.2581041 0.0742801
v -0.1472243 -0.0850000 0.5250000
vn 0.9632574 0.2581041 0.0742801
v -0.1148350 -0.0663000 0.0400000
vn 0.9632574 0.2581041 0.0742801
f 313/313/313 314/314/314 315/315/315
v -0.1700000 0.0000000 0.5250000
vn 0.9632575 0.2581039 0.0742801
v -0.1148350 -0.0663000 0.0400000
vn 0.9632575 0.2581039 0.0742801
v -0.1326000 0.0000000 0.0400000
vn 0.9632575 0.2581039 0.0742801
f 316/316/316 317/317/317 318/318/318
v -0.1472243 -0.0850000 0.5250000
vn 0.7051533 0.7051533 0.0742801
v -0.0850000 -0.1472243 0.5250000
vn 0.7051533 0.7051533 0.0742801
v -0.0663000 -0.1148350 0.0400000
vn 0.7051533 0.7051533 0.0742801
f 319/319/319 320/320/320 321/321/321
v -0.1472243 -0.0850000 0.5250000
vn 0.7051533 0.7051533 0.0742801
v -0.0663000 -0.1148350 0.0400000
vn 0.7051533 0.7051533 0.0742801
v -0.1148350 -0.0663000 0.0400000
vn 0.7051533 0.7051533 0.0742801
f 322/322/322 323/323/323 324/324/324
v -0.0850000 -0.1472243 0.5250000
vn 0.2581041 0.9632574 0.0742801
v -0.0000000 -0.1700000 0.5250000
vn 0.2581041 0.9632574 0.0742801
v -0.0000000 -0.1326000 0.0400000
vn 0.2581041 0.9632574 0.0742801
f 325/325/325 326/326/326 327/327/327
v -0.0850000 -0.1472243 0.5250000
vn 0.2581039 0.9632575 0.0742801
v -0.0000000 -0.1326000 0.0400000
vn 0.2581039 0.9632575 0.0742801
v -0.0663000 -0.1148350 0.0400000
vn 0.2581039 0.9632575 0.0742801
f 328/328/328 329/329/329 330/330/330
v -0.0000000 -0.1700000 0.5250000
vn -0.2581041 0.9632574 0.0742801
v 0.0850000 -0.1472243 0.5250000
vn -0.2581041 0.9632574 0.0742801
v 0.0663000 -0.1148350 0.0400000
vn -0.2581041 0.9632574 0.0742801
f 331/331/331 332/332/332 333/333/333
v -0.0000000 -0.1700000 0.5250000
vn -0.2581039 0.9632575 0.0742801
v 0.0663000 -0.1148350 0.0400000
vn -0.2581039 0.9632575 0.0742801
v -0.0000000 -0.1326000 0.0400000
vn -0.2581039 0.9632575 0.0742801
f 334/334/334 335/335/335 336/336/336
v 0.0850000 -0.1472243 0.5250000
vn -0.7051533 0.7051533 0.0742801
v 0.1472243 -0.0850000 0.5250000
vn -0.7051533 0.7051533 0.0742801
v 0.1148350 -0.0663000 0.0400000
vn -0.7051533 0.7051533 0.0742801
f 337/337/337 338/338/338 339/339/339
v 0.0850000 -0.1472243 0.5250000
vn -0.7051533 0.7051533 0.0742801
v 0.1148350 -0.0663000 0.0400000
vn -0.7051533 0.7051533 0.0742801
v 0.0663000 -0.1148350 0.0400000
vn -0.7051533 0.7051533 0.0742801
f 340/340/340 341/341/341 342/342/342
v 0.1472243 -0.0850000 0.5250000
vn -0.9632574 0.2581041 0.0742801
v 0.1700000 0.0000000 0.5250000
vn -0.9632574 0.2581041 0.0742801
v 0.1326000 0.0000000 0.0400000
vn -0.9632574 0.2581041 0.0742801
f 343/343/343 344/344/344 345/345/345
v 0.1472243 -0.0850000 0.5250000
vn -0.9632575 0.2581039 0.0742801
v 0.1326000 0.0000000 0.0400000
vn -0.9632575 0.2581039 0.0742801
v 0.1148350 -0.0663000 0.0400000
vn -0.9632575 0.2581039 0.0742801
f 346/346/346 347/347/347 348/348/348
