# Physical vanilla furniture; Z up; per-tile mesh.
# Tile-local game axes; ObjReader performs the scene conversion.
mtllib ../Materials/pz_table_tables_high_01_large_white_v2_0_0.mtl
usemtl UV_Base
v -0.2812500 -0.4062500 0.7925440
vn 0.00000000 0.00000000 -1.00000000
v -0.2812500 0.4062500 0.7925440
vn 0.00000000 0.00000000 -1.00000000
v 0.5000000 0.4062500 0.7925440
vn 0.00000000 0.00000000 -1.00000000
vt 0.010002136 0.007812500
vt 0.460937500 0.007812500
vt 0.460937500 0.441404196
vt 0.010002136 0.007812500
vt 0.460937500 0.441404196
vt 0.010002136 0.441404196
vt 0.988281250 0.007812500
vt 0.988281250 0.441404196
vt 0.946656447 0.441404196
vt 0.988281250 0.007812500
vt 0.946656447 0.441404196
vt 0.946656447 0.007812500
vt 0.898435446 0.733031053
vt 0.464843750 0.733031053
vt 0.464843750 0.691406250
vt 0.898435446 0.733031053
vt 0.464843750 0.691406250
vt 0.898435446 0.691406250
vt 0.458747864 0.498656053
vt 0.007812500 0.498656053
vt 0.007812500 0.457031250
vt 0.458747864 0.498656053
vt 0.007812500 0.457031250
vt 0.458747864 0.457031250
vt 0.929687500 0.007812500
vt 0.929687500 0.441404196
vt 0.478752136 0.441404196
vt 0.929687500 0.007812500
vt 0.478752136 0.441404196
vt 0.478752136 0.007812500
vt 0.933593750 0.499751451
vt 0.933593750 0.457031250
vt 0.973617607 0.457031250
vt 0.933593750 0.499751451
vt 0.973617607 0.457031250
vt 0.973617607 0.499751451
vt 0.917968750 0.457031250
vt 0.917968750 0.497055107
vt 0.478108914 0.497055107
vt 0.917968750 0.457031250
vt 0.478108914 0.497055107
vt 0.478108914 0.457031250
vt 0.449218750 0.515625000
vt 0.449218750 0.558345201
vt 0.009358914 0.558345201
vt 0.449218750 0.515625000
vt 0.009358914 0.558345201
vt 0.009358914 0.515625000
vt 0.466390164 0.555648857
vt 0.466390164 0.515625000
vt 0.906250000 0.515625000
vt 0.466390164 0.555648857
vt 0.906250000 0.515625000
vt 0.906250000 0.555648857
vt 0.009358914 0.616938951
vt 0.009358914 0.574218750
vt 0.449218750 0.574218750
vt 0.009358914 0.616938951
vt 0.449218750 0.574218750
vt 0.449218750 0.616938951
vt 0.921875000 0.515625000
vt 0.961898857 0.515625000
vt 0.961898857 0.558345201
vt 0.921875000 0.515625000
vt 0.961898857 0.558345201
vt 0.921875000 0.558345201
vt 0.921875000 0.616938951
vt 0.921875000 0.574218750
vt 0.961898857 0.574218750
vt 0.921875000 0.616938951
vt 0.961898857 0.574218750
vt 0.961898857 0.616938951
vt 0.906250000 0.574218750
vt 0.906250000 0.614242607
vt 0.466390164 0.614242607
vt 0.906250000 0.574218750
vt 0.466390164 0.614242607
vt 0.466390164 0.574218750
vt 0.449218750 0.632812500
vt 0.449218750 0.675532701
vt 0.009358914 0.675532701
vt 0.449218750 0.632812500
vt 0.009358914 0.675532701
vt 0.009358914 0.632812500
vt 0.466390164 0.672836357
vt 0.466390164 0.632812500
vt 0.906250000 0.632812500
vt 0.466390164 0.672836357
vt 0.906250000 0.632812500
vt 0.906250000 0.672836357
vt 0.009358914 0.734126451
vt 0.009358914 0.691406250
vt 0.449218750 0.691406250
vt 0.009358914 0.734126451
vt 0.449218750 0.691406250
vt 0.449218750 0.734126451
vt 0.921875000 0.632812500
vt 0.961898857 0.632812500
vt 0.961898857 0.675532701
vt 0.921875000 0.632812500
vt 0.961898857 0.675532701
vt 0.921875000 0.675532701
vt 0.007812500 0.950572939
vt 0.007812500 0.929687500
vt 0.403603880 0.929687500
vt 0.007812500 0.950572939
vt 0.403603880 0.929687500
vt 0.403603880 0.950572939
vt 0.007812500 0.750000000
vt 0.403603880 0.750000000
vt 0.403603880 0.822149658
vt 0.007812500 0.750000000
vt 0.403603880 0.822149658
vt 0.007812500 0.822149658
vt 0.817666380 0.822149658
vt 0.421875000 0.822149658
vt 0.421875000 0.750000000
vt 0.817666380 0.822149658
vt 0.421875000 0.750000000
vt 0.817666380 0.750000000
vt 0.838006592 0.950572939
vt 0.838006592 0.929687500
vt 0.910156250 0.929687500
vt 0.838006592 0.950572939
vt 0.910156250 0.929687500
vt 0.910156250 0.950572939
vt 0.421875000 0.929687500
vt 0.817666380 0.929687500
vt 0.817666380 0.950572939
vt 0.421875000 0.929687500
vt 0.817666380 0.950572939
vt 0.421875000 0.950572939
vt 0.007812500 0.989635439
vt 0.007812500 0.968750000
vt 0.403603880 0.968750000
vt 0.007812500 0.989635439
vt 0.403603880 0.968750000
vt 0.403603880 0.989635439
vt 0.007812500 0.839843750
vt 0.403603880 0.839843750
vt 0.403603880 0.911993408
vt 0.007812500 0.839843750
vt 0.403603880 0.911993408
vt 0.007812500 0.911993408
vt 0.817666380 0.911993408
vt 0.421875000 0.911993408
vt 0.421875000 0.839843750
vt 0.817666380 0.911993408
vt 0.421875000 0.839843750
vt 0.817666380 0.839843750
vt 0.838006592 0.989635439
vt 0.838006592 0.968750000
vt 0.910156250 0.968750000
vt 0.838006592 0.989635439
vt 0.910156250 0.968750000
vt 0.910156250 0.989635439
vt 0.421875000 0.968750000
vt 0.817666380 0.968750000
vt 0.817666380 0.989635439
vt 0.421875000 0.968750000
vt 0.817666380 0.989635439
vt 0.421875000 0.989635439
f 1/1/1 2/2/2 3/3/3
v -0.2812500 -0.4062500 0.7925440
vn 0.00000000 0.00000000 -1.00000000
v 0.5000000 0.4062500 0.7925440
vn 0.00000000 0.00000000 -1.00000000
v 0.5000000 -0.4062500 0.7925440
vn 0.00000000 0.00000000 -1.00000000
f 4/4/4 5/5/5 6/6/6
v -0.2812500 -0.4062500 0.7925440
vn 0.00000000 -1.00000000 0.00000000
v 0.5000000 -0.4062500 0.7925440
vn 0.00000000 -1.00000000 0.00000000
v 0.5000000 -0.4062500 0.8675440
vn 0.00000000 -1.00000000 0.00000000
f 7/7/7 8/8/8 9/9/9
v -0.2812500 -0.4062500 0.7925440
vn 0.00000000 -1.00000000 0.00000000
v 0.5000000 -0.4062500 0.8675440
vn 0.00000000 -1.00000000 0.00000000
v -0.2812500 -0.4062500 0.8675440
vn 0.00000000 -1.00000000 0.00000000
f 10/10/10 11/11/11 12/12/12
v 0.5000000 0.4062500 0.7925440
vn 0.00000000 1.00000000 0.00000000
v -0.2812500 0.4062500 0.7925440
vn 0.00000000 1.00000000 0.00000000
v -0.2812500 0.4062500 0.8675440
vn 0.00000000 1.00000000 0.00000000
f 13/13/13 14/14/14 15/15/15
v 0.5000000 0.4062500 0.7925440
vn 0.00000000 1.00000000 -0.00000000
v -0.2812500 0.4062500 0.8675440
vn 0.00000000 1.00000000 -0.00000000
v 0.5000000 0.4062500 0.8675440
vn 0.00000000 1.00000000 -0.00000000
f 16/16/16 17/17/17 18/18/18
v -0.2812500 0.4062500 0.7925440
vn -1.00000000 0.00000000 0.00000000
v -0.2812500 -0.4062500 0.7925440
vn -1.00000000 0.00000000 0.00000000
v -0.2812500 -0.4062500 0.8675440
vn -1.00000000 0.00000000 0.00000000
f 19/19/19 20/20/20 21/21/21
v -0.2812500 0.4062500 0.7925440
vn -1.00000000 0.00000000 0.00000000
v -0.2812500 -0.4062500 0.8675440
vn -1.00000000 0.00000000 0.00000000
v -0.2812500 0.4062500 0.8675440
vn -1.00000000 0.00000000 0.00000000
f 22/22/22 23/23/23 24/24/24
v -0.2812500 -0.4062500 0.8675440
vn 0.00000000 0.00000000 1.00000000
v 0.5000000 -0.4062500 0.8675440
vn 0.00000000 0.00000000 1.00000000
v 0.5000000 0.4062500 0.8675440
vn 0.00000000 0.00000000 1.00000000
f 25/25/25 26/26/26 27/27/27
v -0.2812500 -0.4062500 0.8675440
vn 0.00000000 0.00000000 1.00000000
v 0.5000000 0.4062500 0.8675440
vn 0.00000000 0.00000000 1.00000000
v -0.2812500 0.4062500 0.8675440
vn 0.00000000 0.00000000 1.00000000
f 28/28/28 29/29/29 30/30/30
v -0.2331731 -0.3549342 0.0000000
vn 0.00000000 0.00000000 -1.00000000
v -0.2331731 -0.2779605 0.0000000
vn 0.00000000 0.00000000 -1.00000000
v -0.1610577 -0.2779605 0.0000000
vn 0.00000000 0.00000000 -1.00000000
f 31/31/31 32/32/32 33/33/33
v -0.2331731 -0.3549342 0.0000000
vn 0.00000000 0.00000000 -1.00000000
v -0.1610577 -0.2779605 0.0000000
vn 0.00000000 0.00000000 -1.00000000
v -0.1610577 -0.3549342 0.0000000
vn 0.00000000 0.00000000 -1.00000000
f 34/34/34 35/35/35 36/36/36
v -0.2331731 -0.3549342 0.0000000
vn 0.00000000 -1.00000000 0.00000000
v -0.1610577 -0.3549342 0.0000000
vn 0.00000000 -1.00000000 0.00000000
v -0.1610577 -0.3549342 0.7925440
vn 0.00000000 -1.00000000 0.00000000
f 37/37/37 38/38/38 39/39/39
v -0.2331731 -0.3549342 0.0000000
vn 0.00000000 -1.00000000 0.00000000
v -0.1610577 -0.3549342 0.7925440
vn 0.00000000 -1.00000000 0.00000000
v -0.2331731 -0.3549342 0.7925440
vn 0.00000000 -1.00000000 0.00000000
f 40/40/40 41/41/41 42/42/42
v -0.1610577 -0.3549342 0.0000000
vn 1.00000000 0.00000000 0.00000000
v -0.1610577 -0.2779605 0.0000000
vn 1.00000000 0.00000000 0.00000000
v -0.1610577 -0.2779605 0.7925440
vn 1.00000000 0.00000000 0.00000000
f 43/43/43 44/44/44 45/45/45
v -0.1610577 -0.3549342 0.0000000
vn 1.00000000 0.00000000 0.00000000
v -0.1610577 -0.2779605 0.7925440
vn 1.00000000 0.00000000 0.00000000
v -0.1610577 -0.3549342 0.7925440
vn 1.00000000 0.00000000 0.00000000
f 46/46/46 47/47/47 48/48/48
v -0.1610577 -0.2779605 0.0000000
vn 0.00000000 1.00000000 0.00000000
v -0.2331731 -0.2779605 0.0000000
vn 0.00000000 1.00000000 0.00000000
v -0.2331731 -0.2779605 0.7925440
vn 0.00000000 1.00000000 0.00000000
f 49/49/49 50/50/50 51/51/51
v -0.1610577 -0.2779605 0.0000000
vn 0.00000000 1.00000000 -0.00000000
v -0.2331731 -0.2779605 0.7925440
vn 0.00000000 1.00000000 -0.00000000
v -0.1610577 -0.2779605 0.7925440
vn 0.00000000 1.00000000 -0.00000000
f 52/52/52 53/53/53 54/54/54
v -0.2331731 -0.2779605 0.0000000
vn -1.00000000 0.00000000 0.00000000
v -0.2331731 -0.3549342 0.0000000
vn -1.00000000 0.00000000 0.00000000
v -0.2331731 -0.3549342 0.7925440
vn -1.00000000 0.00000000 0.00000000
f 55/55/55 56/56/56 57/57/57
v -0.2331731 -0.2779605 0.0000000
vn -1.00000000 0.00000000 0.00000000
v -0.2331731 -0.3549342 0.7925440
vn -1.00000000 0.00000000 0.00000000
v -0.2331731 -0.2779605 0.7925440
vn -1.00000000 0.00000000 0.00000000
f 58/58/58 59/59/59 60/60/60
v -0.2331731 -0.3549342 0.7925440
vn 0.00000000 0.00000000 1.00000000
v -0.1610577 -0.3549342 0.7925440
vn 0.00000000 0.00000000 1.00000000
v -0.1610577 -0.2779605 0.7925440
vn 0.00000000 0.00000000 1.00000000
f 61/61/61 62/62/62 63/63/63
v -0.2331731 -0.3549342 0.7925440
vn 0.00000000 0.00000000 1.00000000
v -0.1610577 -0.2779605 0.7925440
vn 0.00000000 0.00000000 1.00000000
v -0.2331731 -0.2779605 0.7925440
vn 0.00000000 0.00000000 1.00000000
f 64/64/64 65/65/65 66/66/66
v -0.2331731 0.2779605 0.0000000
vn 0.00000000 0.00000000 -1.00000000
v -0.2331731 0.3549342 0.0000000
vn 0.00000000 0.00000000 -1.00000000
v -0.1610577 0.3549342 0.0000000
vn 0.00000000 0.00000000 -1.00000000
f 67/67/67 68/68/68 69/69/69
v -0.2331731 0.2779605 0.0000000
vn 0.00000000 0.00000000 -1.00000000
v -0.1610577 0.3549342 0.0000000
vn 0.00000000 0.00000000 -1.00000000
v -0.1610577 0.2779605 0.0000000
vn 0.00000000 0.00000000 -1.00000000
f 70/70/70 71/71/71 72/72/72
v -0.2331731 0.2779605 0.0000000
vn 0.00000000 -1.00000000 0.00000000
v -0.1610577 0.2779605 0.0000000
vn 0.00000000 -1.00000000 0.00000000
v -0.1610577 0.2779605 0.7925440
vn 0.00000000 -1.00000000 0.00000000
f 73/73/73 74/74/74 75/75/75
v -0.2331731 0.2779605 0.0000000
vn 0.00000000 -1.00000000 0.00000000
v -0.1610577 0.2779605 0.7925440
vn 0.00000000 -1.00000000 0.00000000
v -0.2331731 0.2779605 0.7925440
vn 0.00000000 -1.00000000 0.00000000
f 76/76/76 77/77/77 78/78/78
v -0.1610577 0.2779605 0.0000000
vn 1.00000000 0.00000000 0.00000000
v -0.1610577 0.3549342 0.0000000
vn 1.00000000 0.00000000 0.00000000
v -0.1610577 0.3549342 0.7925440
vn 1.00000000 0.00000000 0.00000000
f 79/79/79 80/80/80 81/81/81
v -0.1610577 0.2779605 0.0000000
vn 1.00000000 0.00000000 0.00000000
v -0.1610577 0.3549342 0.7925440
vn 1.00000000 0.00000000 0.00000000
v -0.1610577 0.2779605 0.7925440
vn 1.00000000 0.00000000 0.00000000
f 82/82/82 83/83/83 84/84/84
v -0.1610577 0.3549342 0.0000000
vn 0.00000000 1.00000000 0.00000000
v -0.2331731 0.3549342 0.0000000
vn 0.00000000 1.00000000 0.00000000
v -0.2331731 0.3549342 0.7925440
vn 0.00000000 1.00000000 0.00000000
f 85/85/85 86/86/86 87/87/87
v -0.1610577 0.3549342 0.0000000
vn 0.00000000 1.00000000 -0.00000000
v -0.2331731 0.3549342 0.7925440
vn 0.00000000 1.00000000 -0.00000000
v -0.1610577 0.3549342 0.7925440
vn 0.00000000 1.00000000 -0.00000000
f 88/88/88 89/89/89 90/90/90
v -0.2331731 0.3549342 0.0000000
vn -1.00000000 0.00000000 0.00000000
v -0.2331731 0.2779605 0.0000000
vn -1.00000000 0.00000000 0.00000000
v -0.2331731 0.2779605 0.7925440
vn -1.00000000 0.00000000 0.00000000
f 91/91/91 92/92/92 93/93/93
v -0.2331731 0.3549342 0.0000000
vn -1.00000000 0.00000000 0.00000000
v -0.2331731 0.2779605 0.7925440
vn -1.00000000 0.00000000 0.00000000
v -0.2331731 0.3549342 0.7925440
vn -1.00000000 0.00000000 0.00000000
f 94/94/94 95/95/95 96/96/96
v -0.2331731 0.2779605 0.7925440
vn 0.00000000 0.00000000 1.00000000
v -0.1610577 0.2779605 0.7925440
vn 0.00000000 0.00000000 1.00000000
v -0.1610577 0.3549342 0.7925440
vn 0.00000000 0.00000000 1.00000000
f 97/97/97 98/98/98 99/99/99
v -0.2331731 0.2779605 0.7925440
vn 0.00000000 0.00000000 1.00000000
v -0.1610577 0.3549342 0.7925440
vn 0.00000000 0.00000000 1.00000000
v -0.2331731 0.3549342 0.7925440
vn 0.00000000 0.00000000 1.00000000
f 100/100/100 101/101/101 102/102/102
v -0.2131410 -0.3523684 0.6625440
vn 0.00000000 0.00000000 -1.00000000
v -0.2131410 -0.3147368 0.6625440
vn 0.00000000 0.00000000 -1.00000000
v 0.5000000 -0.3147368 0.6625440
vn 0.00000000 0.00000000 -1.00000000
f 103/103/103 104/104/104 105/105/105
v -0.2131410 -0.3523684 0.6625440
vn 0.00000000 0.00000000 -1.00000000
v 0.5000000 -0.3147368 0.6625440
vn 0.00000000 0.00000000 -1.00000000
v 0.5000000 -0.3523684 0.6625440
vn 0.00000000 0.00000000 -1.00000000
f 106/106/106 107/107/107 108/108/108
v -0.2131410 -0.3523684 0.6625440
vn 0.00000000 -1.00000000 0.00000000
v 0.5000000 -0.3523684 0.6625440
vn 0.00000000 -1.00000000 0.00000000
v 0.5000000 -0.3523684 0.7925440
vn 0.00000000 -1.00000000 0.00000000
f 109/109/109 110/110/110 111/111/111
v -0.2131410 -0.3523684 0.6625440
vn 0.00000000 -1.00000000 0.00000000
v 0.5000000 -0.3523684 0.7925440
vn 0.00000000 -1.00000000 0.00000000
v -0.2131410 -0.3523684 0.7925440
vn 0.00000000 -1.00000000 0.00000000
f 112/112/112 113/113/113 114/114/114
v 0.5000000 -0.3147368 0.6625440
vn 0.00000000 1.00000000 0.00000000
v -0.2131410 -0.3147368 0.6625440
vn 0.00000000 1.00000000 0.00000000
v -0.2131410 -0.3147368 0.7925440
vn 0.00000000 1.00000000 0.00000000
f 115/115/115 116/116/116 117/117/117
v 0.5000000 -0.3147368 0.6625440
vn 0.00000000 1.00000000 -0.00000000
v -0.2131410 -0.3147368 0.7925440
vn 0.00000000 1.00000000 -0.00000000
v 0.5000000 -0.3147368 0.7925440
vn 0.00000000 1.00000000 -0.00000000
f 118/118/118 119/119/119 120/120/120
v -0.2131410 -0.3147368 0.6625440
vn -1.00000000 0.00000000 0.00000000
v -0.2131410 -0.3523684 0.6625440
vn -1.00000000 0.00000000 0.00000000
v -0.2131410 -0.3523684 0.7925440
vn -1.00000000 0.00000000 0.00000000
f 121/121/121 122/122/122 123/123/123
v -0.2131410 -0.3147368 0.6625440
vn -1.00000000 0.00000000 0.00000000
v -0.2131410 -0.3523684 0.7925440
vn -1.00000000 0.00000000 0.00000000
v -0.2131410 -0.3147368 0.7925440
vn -1.00000000 0.00000000 0.00000000
f 124/124/124 125/125/125 126/126/126
v -0.2131410 -0.3523684 0.7925440
vn 0.00000000 0.00000000 1.00000000
v 0.5000000 -0.3523684 0.7925440
vn 0.00000000 0.00000000 1.00000000
v 0.5000000 -0.3147368 0.7925440
vn 0.00000000 0.00000000 1.00000000
f 127/127/127 128/128/128 129/129/129
v -0.2131410 -0.3523684 0.7925440
vn 0.00000000 0.00000000 1.00000000
v 0.5000000 -0.3147368 0.7925440
vn 0.00000000 0.00000000 1.00000000
v -0.2131410 -0.3147368 0.7925440
vn 0.00000000 0.00000000 1.00000000
f 130/130/130 131/131/131 132/132/132
v -0.2131410 0.3147368 0.6625440
vn 0.00000000 0.00000000 -1.00000000
v -0.2131410 0.3523684 0.6625440
vn 0.00000000 0.00000000 -1.00000000
v 0.5000000 0.3523684 0.6625440
vn 0.00000000 0.00000000 -1.00000000
f 133/133/133 134/134/134 135/135/135
v -0.2131410 0.3147368 0.6625440
vn 0.00000000 0.00000000 -1.00000000
v 0.5000000 0.3523684 0.6625440
vn 0.00000000 0.00000000 -1.00000000
v 0.5000000 0.3147368 0.6625440
vn 0.00000000 0.00000000 -1.00000000
f 136/136/136 137/137/137 138/138/138
v -0.2131410 0.3147368 0.6625440
vn 0.00000000 -1.00000000 0.00000000
v 0.5000000 0.3147368 0.6625440
vn 0.00000000 -1.00000000 0.00000000
v 0.5000000 0.3147368 0.7925440
vn 0.00000000 -1.00000000 0.00000000
f 139/139/139 140/140/140 141/141/141
v -0.2131410 0.3147368 0.6625440
vn 0.00000000 -1.00000000 0.00000000
v 0.5000000 0.3147368 0.7925440
vn 0.00000000 -1.00000000 0.00000000
v -0.2131410 0.3147368 0.7925440
vn 0.00000000 -1.00000000 0.00000000
f 142/142/142 143/143/143 144/144/144
v 0.5000000 0.3523684 0.6625440
vn 0.00000000 1.00000000 0.00000000
v -0.2131410 0.3523684 0.6625440
vn 0.00000000 1.00000000 0.00000000
v -0.2131410 0.3523684 0.7925440
vn 0.00000000 1.00000000 0.00000000
f 145/145/145 146/146/146 147/147/147
v 0.5000000 0.3523684 0.6625440
vn 0.00000000 1.00000000 -0.00000000
v -0.2131410 0.3523684 0.7925440
vn 0.00000000 1.00000000 -0.00000000
v 0.5000000 0.3523684 0.7925440
vn 0.00000000 1.00000000 -0.00000000
f 148/148/148 149/149/149 150/150/150
v -0.2131410 0.3523684 0.6625440
vn -1.00000000 0.00000000 0.00000000
v -0.2131410 0.3147368 0.6625440
vn -1.00000000 0.00000000 0.00000000
v -0.2131410 0.3147368 0.7925440
vn -1.00000000 0.00000000 0.00000000
f 151/151/151 152/152/152 153/153/153
v -0.2131410 0.3523684 0.6625440
vn -1.00000000 0.00000000 0.00000000
v -0.2131410 0.3147368 0.7925440
vn -1.00000000 0.00000000 0.00000000
v -0.2131410 0.3523684 0.7925440
vn -1.00000000 0.00000000 0.00000000
f 154/154/154 155/155/155 156/156/156
v -0.2131410 0.3147368 0.7925440
vn 0.00000000 0.00000000 1.00000000
v 0.5000000 0.3147368 0.7925440
vn 0.00000000 0.00000000 1.00000000
v 0.5000000 0.3523684 0.7925440
vn 0.00000000 0.00000000 1.00000000
f 157/157/157 158/158/158 159/159/159
v -0.2131410 0.3147368 0.7925440
vn 0.00000000 0.00000000 1.00000000
v 0.5000000 0.3523684 0.7925440
vn 0.00000000 0.00000000 1.00000000
v -0.2131410 0.3523684 0.7925440
vn 0.00000000 0.00000000 1.00000000
f 160/160/160 161/161/161 162/162/162
