# Physical vanilla furniture; Z up; per-tile mesh.
# Tile-local game axes; ObjReader performs the scene conversion.
mtllib ../Materials/pz_table_tables_low_01_brown.mtl
usemtl UV_Base
v -0.4375000 -0.2500000 0.3277400
vn 0.00000000 0.00000000 -1.00000000
v -0.4375000 0.2500000 0.3277400
vn 0.00000000 0.00000000 -1.00000000
v 0.4375000 0.2500000 0.3277400
vn 0.00000000 0.00000000 -1.00000000
vt 0.007812500 0.172742571
vt 0.007812500 0.007812500
vt 0.296440125 0.007812500
vt 0.007812500 0.172742571
vt 0.296440125 0.007812500
vt 0.296440125 0.172742571
vt 0.617187500 0.107674359
vt 0.905815125 0.107674359
vt 0.905815125 0.125816667
vt 0.617187500 0.107674359
vt 0.905815125 0.125816667
vt 0.617187500 0.125816667
vt 0.007812500 0.924080609
vt 0.172742571 0.924080609
vt 0.172742571 0.942222917
vt 0.007812500 0.924080609
vt 0.172742571 0.942222917
vt 0.007812500 0.942222917
vt 0.601127625 0.209548558
vt 0.312500000 0.209548558
vt 0.312500000 0.191406250
vt 0.601127625 0.209548558
vt 0.312500000 0.191406250
vt 0.601127625 0.191406250
vt 0.356336321 0.842361058
vt 0.191406250 0.842361058
vt 0.191406250 0.824218750
vt 0.356336321 0.842361058
vt 0.191406250 0.824218750
vt 0.356336321 0.824218750
vt 0.312500000 0.007812500
vt 0.601127625 0.007812500
vt 0.601127625 0.172742571
vt 0.312500000 0.007812500
vt 0.601127625 0.172742571
vt 0.312500000 0.172742571
vt 0.617187500 0.198350664
vt 0.617187500 0.191406250
vt 0.905815125 0.191406250
vt 0.617187500 0.198350664
vt 0.905815125 0.191406250
vt 0.905815125 0.198350664
vt 0.617187500 0.007812500
vt 0.905815125 0.007812500
vt 0.905815125 0.107674359
vt 0.617187500 0.007812500
vt 0.905815125 0.107674359
vt 0.617187500 0.107674359
vt 0.007812500 0.824218750
vt 0.014756914 0.824218750
vt 0.014756914 0.924080609
vt 0.007812500 0.824218750
vt 0.014756914 0.924080609
vt 0.007812500 0.924080609
vt 0.296440125 0.291268109
vt 0.007812500 0.291268109
vt 0.007812500 0.191406250
vt 0.296440125 0.291268109
vt 0.007812500 0.191406250
vt 0.296440125 0.191406250
vt 0.198350664 0.942222917
vt 0.191406250 0.942222917
vt 0.191406250 0.842361058
vt 0.198350664 0.942222917
vt 0.191406250 0.842361058
vt 0.198350664 0.842361058
vt 0.007812500 0.308593750
vt 0.296440125 0.308593750
vt 0.296440125 0.315538164
vt 0.007812500 0.308593750
vt 0.296440125 0.315538164
vt 0.007812500 0.315538164
vt 0.921875000 0.172742571
vt 0.921875000 0.007812500
vt 0.934027740 0.007812500
vt 0.921875000 0.172742571
vt 0.934027740 0.007812500
vt 0.934027740 0.172742571
vt 0.617187500 0.007812500
vt 0.629340240 0.007812500
vt 0.629340240 0.107674359
vt 0.617187500 0.007812500
vt 0.629340240 0.107674359
vt 0.617187500 0.107674359
vt 0.375000000 0.824218750
vt 0.539930071 0.824218750
vt 0.539930071 0.924080609
vt 0.375000000 0.824218750
vt 0.539930071 0.924080609
vt 0.375000000 0.924080609
vt 0.934027740 0.291268109
vt 0.921875000 0.291268109
vt 0.921875000 0.191406250
vt 0.934027740 0.291268109
vt 0.921875000 0.191406250
vt 0.934027740 0.191406250
vt 0.356336321 0.942222917
vt 0.191406250 0.942222917
vt 0.191406250 0.842361058
vt 0.356336321 0.942222917
vt 0.191406250 0.842361058
vt 0.356336321 0.842361058
vt 0.953125000 0.007812500
vt 0.965277740 0.007812500
vt 0.965277740 0.172742571
vt 0.953125000 0.007812500
vt 0.965277740 0.172742571
vt 0.953125000 0.172742571
vt 0.772569929 0.707031250
vt 0.937500000 0.707031250
vt 0.937500000 0.719183990
vt 0.772569929 0.707031250
vt 0.937500000 0.719183990
vt 0.772569929 0.719183990
vt 0.893662384 0.007812500
vt 0.905815125 0.007812500
vt 0.905815125 0.107674359
vt 0.893662384 0.007812500
vt 0.905815125 0.107674359
vt 0.893662384 0.107674359
vt 0.007812500 0.824218750
vt 0.172742571 0.824218750
vt 0.172742571 0.924080609
vt 0.007812500 0.824218750
vt 0.172742571 0.924080609
vt 0.007812500 0.924080609
vt 0.965277740 0.291268109
vt 0.953125000 0.291268109
vt 0.953125000 0.191406250
vt 0.965277740 0.291268109
vt 0.953125000 0.191406250
vt 0.965277740 0.191406250
vt 0.723523821 0.924080609
vt 0.558593750 0.924080609
vt 0.558593750 0.824218750
vt 0.723523821 0.924080609
vt 0.558593750 0.824218750
vt 0.723523821 0.824218750
vt 0.683593750 0.765625000
vt 0.683593750 0.777777740
vt 0.518663679 0.777777740
vt 0.683593750 0.765625000
vt 0.518663679 0.777777740
vt 0.518663679 0.765625000
vt 0.007812500 0.487412761
vt 0.007812500 0.332031250
vt 0.287325561 0.332031250
vt 0.007812500 0.487412761
vt 0.287325561 0.332031250
vt 0.287325561 0.487412761
vt 0.304687500 0.503906250
vt 0.584200561 0.503906250
vt 0.584200561 0.517100656
vt 0.304687500 0.503906250
vt 0.584200561 0.517100656
vt 0.304687500 0.517100656
vt 0.914062500 0.332031250
vt 0.914062500 0.487412761
vt 0.900868094 0.487412761
vt 0.914062500 0.332031250
vt 0.900868094 0.487412761
vt 0.900868094 0.332031250
vt 0.881075561 0.517100656
vt 0.601562500 0.517100656
vt 0.601562500 0.503906250
vt 0.881075561 0.517100656
vt 0.601562500 0.503906250
vt 0.881075561 0.503906250
vt 0.932118094 0.487412761
vt 0.932118094 0.332031250
vt 0.945312500 0.332031250
vt 0.932118094 0.487412761
vt 0.945312500 0.332031250
vt 0.945312500 0.487412761
vt 0.304687500 0.332031250
vt 0.584200561 0.332031250
vt 0.584200561 0.487412761
vt 0.304687500 0.332031250
vt 0.584200561 0.487412761
vt 0.304687500 0.487412761
vt 0.601562500 0.487412761
vt 0.601562500 0.332031250
vt 0.881075561 0.332031250
vt 0.601562500 0.487412761
vt 0.881075561 0.332031250
vt 0.881075561 0.487412761
vt 0.007812500 0.675781250
vt 0.287325561 0.675781250
vt 0.287325561 0.688975656
vt 0.007812500 0.675781250
vt 0.287325561 0.688975656
vt 0.007812500 0.688975656
vt 0.976562500 0.332031250
vt 0.976562500 0.487412761
vt 0.963368094 0.487412761
vt 0.976562500 0.332031250
vt 0.963368094 0.487412761
vt 0.963368094 0.332031250
vt 0.584200561 0.688975656
vt 0.304687500 0.688975656
vt 0.304687500 0.675781250
vt 0.584200561 0.688975656
vt 0.304687500 0.675781250
vt 0.584200561 0.675781250
vt 0.900868094 0.659287761
vt 0.900868094 0.503906250
vt 0.914062500 0.503906250
vt 0.900868094 0.659287761
vt 0.914062500 0.503906250
vt 0.914062500 0.659287761
vt 0.007812500 0.503906250
vt 0.287325561 0.503906250
vt 0.287325561 0.659287761
vt 0.007812500 0.503906250
vt 0.287325561 0.659287761
vt 0.007812500 0.659287761
vt 0.632812500 0.976562480
vt 0.632812500 0.960937500
vt 0.660156158 0.960937500
vt 0.632812500 0.976562480
vt 0.660156158 0.960937500
vt 0.660156158 0.976562480
vt 0.742187500 0.824218750
vt 0.769531158 0.824218750
vt 0.769531158 0.932327113
vt 0.742187500 0.824218750
vt 0.769531158 0.932327113
vt 0.742187500 0.932327113
vt 0.964843750 0.675781250
vt 0.964843750 0.691406230
vt 0.856735387 0.691406230
vt 0.964843750 0.675781250
vt 0.856735387 0.691406230
vt 0.856735387 0.675781250
vt 0.812499908 0.932327113
vt 0.785156250 0.932327113
vt 0.785156250 0.824218750
vt 0.812499908 0.932327113
vt 0.785156250 0.824218750
vt 0.812499908 0.824218750
vt 0.945312480 0.612014613
vt 0.929687500 0.612014613
vt 0.929687500 0.503906250
vt 0.945312480 0.612014613
vt 0.929687500 0.503906250
vt 0.945312480 0.503906250
vt 0.675781250 0.960937500
vt 0.703124908 0.960937500
vt 0.703124908 0.976562480
vt 0.675781250 0.960937500
vt 0.703124908 0.976562480
vt 0.675781250 0.976562480
vt 0.718750000 0.976562480
vt 0.718750000 0.960937500
vt 0.746093658 0.960937500
vt 0.718750000 0.976562480
vt 0.746093658 0.960937500
vt 0.746093658 0.976562480
vt 0.828125000 0.824218750
vt 0.855468658 0.824218750
vt 0.855468658 0.932327113
vt 0.828125000 0.824218750
vt 0.855468658 0.932327113
vt 0.828125000 0.932327113
vt 0.960937500 0.503906250
vt 0.976562480 0.503906250
vt 0.976562480 0.612014613
vt 0.960937500 0.503906250
vt 0.976562480 0.612014613
vt 0.960937500 0.612014613
vt 0.898437408 0.932327113
vt 0.871093750 0.932327113
vt 0.871093750 0.824218750
vt 0.898437408 0.932327113
vt 0.871093750 0.824218750
vt 0.898437408 0.824218750
vt 0.009079137 0.976562480
vt 0.009079137 0.960937500
vt 0.117187500 0.960937500
vt 0.009079137 0.976562480
vt 0.117187500 0.960937500
vt 0.117187500 0.976562480
vt 0.761718750 0.960937500
vt 0.789062408 0.960937500
vt 0.789062408 0.976562480
vt 0.761718750 0.960937500
vt 0.789062408 0.976562480
vt 0.761718750 0.976562480
vt 0.804687500 0.976562480
vt 0.804687500 0.960937500
vt 0.832031158 0.960937500
vt 0.804687500 0.976562480
vt 0.832031158 0.960937500
vt 0.832031158 0.976562480
vt 0.914062500 0.824218750
vt 0.941406158 0.824218750
vt 0.941406158 0.932327113
vt 0.914062500 0.824218750
vt 0.941406158 0.932327113
vt 0.914062500 0.932327113
vt 0.242187500 0.960937500
vt 0.242187500 0.976562480
vt 0.134079137 0.976562480
vt 0.242187500 0.960937500
vt 0.134079137 0.976562480
vt 0.134079137 0.960937500
vt 0.984374908 0.932327113
vt 0.957031250 0.932327113
vt 0.957031250 0.824218750
vt 0.984374908 0.932327113
vt 0.957031250 0.824218750
vt 0.984374908 0.824218750
vt 0.259079137 0.976562480
vt 0.259079137 0.960937500
vt 0.367187500 0.960937500
vt 0.259079137 0.976562480
vt 0.367187500 0.960937500
vt 0.367187500 0.976562480
vt 0.847656250 0.960937500
vt 0.874999908 0.960937500
vt 0.874999908 0.976562480
vt 0.847656250 0.960937500
vt 0.874999908 0.976562480
vt 0.847656250 0.976562480
vt 0.890625000 0.976562480
vt 0.890625000 0.960937500
vt 0.917968658 0.960937500
vt 0.890625000 0.976562480
vt 0.917968658 0.960937500
vt 0.917968658 0.976562480
vt 0.808593750 0.765625000
vt 0.808593750 0.792968658
vt 0.700485387 0.792968658
vt 0.808593750 0.765625000
vt 0.700485387 0.792968658
vt 0.700485387 0.765625000
vt 0.492187500 0.960937500
vt 0.492187500 0.976562480
vt 0.384079137 0.976562480
vt 0.492187500 0.960937500
vt 0.384079137 0.976562480
vt 0.384079137 0.960937500
vt 0.825485387 0.792968658
vt 0.825485387 0.765625000
vt 0.933593750 0.765625000
vt 0.825485387 0.792968658
vt 0.933593750 0.765625000
vt 0.933593750 0.792968658
vt 0.509079137 0.976562480
vt 0.509079137 0.960937500
vt 0.617187500 0.960937500
vt 0.509079137 0.976562480
vt 0.617187500 0.960937500
vt 0.617187500 0.976562480
vt 0.933593750 0.960937500
vt 0.960937408 0.960937500
vt 0.960937408 0.976562480
vt 0.933593750 0.960937500
vt 0.960937408 0.976562480
vt 0.933593750 0.976562480
vt 0.312500000 0.316232618
vt 0.312500000 0.308593750
vt 0.549478453 0.308593750
vt 0.312500000 0.316232618
vt 0.549478453 0.308593750
vt 0.549478453 0.316232618
vt 0.007812500 0.707031250
vt 0.244790953 0.707031250
vt 0.244790953 0.749913068
vt 0.007812500 0.707031250
vt 0.244790953 0.749913068
vt 0.007812500 0.749913068
vt 0.953125000 0.707031250
vt 0.960763868 0.707031250
vt 0.960763868 0.749913068
vt 0.953125000 0.707031250
vt 0.960763868 0.749913068
vt 0.953125000 0.749913068
vt 0.498697203 0.749913068
vt 0.261718750 0.749913068
vt 0.261718750 0.707031250
vt 0.498697203 0.749913068
vt 0.261718750 0.707031250
vt 0.498697203 0.707031250
vt 0.984201368 0.749913068
vt 0.976562500 0.749913068
vt 0.976562500 0.707031250
vt 0.984201368 0.749913068
vt 0.976562500 0.707031250
vt 0.984201368 0.707031250
vt 0.566406250 0.308593750
vt 0.803384703 0.308593750
vt 0.803384703 0.316232618
vt 0.566406250 0.308593750
vt 0.803384703 0.316232618
vt 0.566406250 0.316232618
vt 0.601562500 0.683420118
vt 0.601562500 0.675781250
vt 0.838540953 0.675781250
vt 0.601562500 0.683420118
vt 0.838540953 0.675781250
vt 0.838540953 0.683420118
vt 0.515625000 0.707031250
vt 0.752603453 0.707031250
vt 0.752603453 0.749913068
vt 0.515625000 0.707031250
vt 0.752603453 0.749913068
vt 0.515625000 0.749913068
vt 0.949218750 0.765625000
vt 0.956857618 0.765625000
vt 0.956857618 0.808506818
vt 0.949218750 0.765625000
vt 0.956857618 0.808506818
vt 0.949218750 0.808506818
vt 0.244790953 0.808506818
vt 0.007812500 0.808506818
vt 0.007812500 0.765625000
vt 0.244790953 0.808506818
vt 0.007812500 0.765625000
vt 0.244790953 0.765625000
vt 0.980295118 0.808506818
vt 0.972656250 0.808506818
vt 0.972656250 0.765625000
vt 0.980295118 0.808506818
vt 0.972656250 0.765625000
vt 0.980295118 0.765625000
vt 0.261718750 0.765625000
vt 0.498697203 0.765625000
vt 0.498697203 0.773263868
vt 0.261718750 0.765625000
vt 0.498697203 0.773263868
vt 0.261718750 0.773263868
f 1/1/1 2/2/2 3/3/3
v -0.4375000 -0.2500000 0.3277400
vn 0.00000000 0.00000000 -1.00000000
v 0.4375000 0.2500000 0.3277400
vn 0.00000000 0.00000000 -1.00000000
v 0.4375000 -0.2500000 0.3277400
vn 0.00000000 0.00000000 -1.00000000
f 4/4/4 5/5/5 6/6/6
v -0.4375000 -0.2500000 0.3277400
vn 0.00000000 -1.00000000 0.00000000
v 0.4375000 -0.2500000 0.3277400
vn 0.00000000 -1.00000000 0.00000000
v 0.4375000 -0.2500000 0.3827400
vn 0.00000000 -1.00000000 0.00000000
f 7/7/7 8/8/8 9/9/9
v -0.4375000 -0.2500000 0.3277400
vn 0.00000000 -1.00000000 0.00000000
v 0.4375000 -0.2500000 0.3827400
vn 0.00000000 -1.00000000 0.00000000
v -0.4375000 -0.2500000 0.3827400
vn 0.00000000 -1.00000000 0.00000000
f 10/10/10 11/11/11 12/12/12
v 0.4375000 -0.2500000 0.3277400
vn 1.00000000 0.00000000 0.00000000
v 0.4375000 0.2500000 0.3277400
vn 1.00000000 0.00000000 0.00000000
v 0.4375000 0.2500000 0.3827400
vn 1.00000000 0.00000000 0.00000000
f 13/13/13 14/14/14 15/15/15
v 0.4375000 -0.2500000 0.3277400
vn 1.00000000 0.00000000 0.00000000
v 0.4375000 0.2500000 0.3827400
vn 1.00000000 0.00000000 0.00000000
v 0.4375000 -0.2500000 0.3827400
vn 1.00000000 0.00000000 0.00000000
f 16/16/16 17/17/17 18/18/18
v 0.4375000 0.2500000 0.3277400
vn 0.00000000 1.00000000 0.00000000
v -0.4375000 0.2500000 0.3277400
vn 0.00000000 1.00000000 0.00000000
v -0.4375000 0.2500000 0.3827400
vn 0.00000000 1.00000000 0.00000000
f 19/19/19 20/20/20 21/21/21
v 0.4375000 0.2500000 0.3277400
vn 0.00000000 1.00000000 -0.00000000
v -0.4375000 0.2500000 0.3827400
vn 0.00000000 1.00000000 -0.00000000
v 0.4375000 0.2500000 0.3827400
vn 0.00000000 1.00000000 -0.00000000
f 22/22/22 23/23/23 24/24/24
v -0.4375000 0.2500000 0.3277400
vn -1.00000000 0.00000000 0.00000000
v -0.4375000 -0.2500000 0.3277400
vn -1.00000000 0.00000000 0.00000000
v -0.4375000 -0.2500000 0.3827400
vn -1.00000000 0.00000000 0.00000000
f 25/25/25 26/26/26 27/27/27
v -0.4375000 0.2500000 0.3277400
vn -1.00000000 0.00000000 0.00000000
v -0.4375000 -0.2500000 0.3827400
vn -1.00000000 0.00000000 0.00000000
v -0.4375000 0.2500000 0.3827400
vn -1.00000000 0.00000000 0.00000000
f 28/28/28 29/29/29 30/30/30
v -0.4375000 -0.2500000 0.3827400
vn 0.00000000 0.00000000 1.00000000
v 0.4375000 -0.2500000 0.3827400
vn 0.00000000 0.00000000 1.00000000
v 0.4375000 0.2500000 0.3827400
vn 0.00000000 0.00000000 1.00000000
f 31/31/31 32/32/32 33/33/33
v -0.4375000 -0.2500000 0.3827400
vn 0.00000000 0.00000000 1.00000000
v 0.4375000 0.2500000 0.3827400
vn 0.00000000 0.00000000 1.00000000
v -0.4375000 0.2500000 0.3827400
vn 0.00000000 0.00000000 1.00000000
f 34/34/34 35/35/35 36/36/36
v -0.4375000 -0.2500000 0.0250000
vn 0.00000000 0.00000000 -1.00000000
v -0.4375000 -0.2289474 0.0250000
vn 0.00000000 0.00000000 -1.00000000
v 0.4375000 -0.2289474 0.0250000
vn 0.00000000 0.00000000 -1.00000000
f 37/37/37 38/38/38 39/39/39
v -0.4375000 -0.2500000 0.0250000
vn 0.00000000 0.00000000 -1.00000000
v 0.4375000 -0.2289474 0.0250000
vn 0.00000000 0.00000000 -1.00000000
v 0.4375000 -0.2500000 0.0250000
vn 0.00000000 0.00000000 -1.00000000
f 40/40/40 41/41/41 42/42/42
v -0.4375000 -0.2500000 0.0250000
vn 0.00000000 -1.00000000 0.00000000
v 0.4375000 -0.2500000 0.0250000
vn 0.00000000 -1.00000000 0.00000000
v 0.4375000 -0.2500000 0.3277400
vn 0.00000000 -1.00000000 0.00000000
f 43/43/43 44/44/44 45/45/45
v -0.4375000 -0.2500000 0.0250000
vn 0.00000000 -1.00000000 0.00000000
v 0.4375000 -0.2500000 0.3277400
vn 0.00000000 -1.00000000 0.00000000
v -0.4375000 -0.2500000 0.3277400
vn 0.00000000 -1.00000000 0.00000000
f 46/46/46 47/47/47 48/48/48
v 0.4375000 -0.2500000 0.0250000
vn 1.00000000 0.00000000 0.00000000
v 0.4375000 -0.2289474 0.0250000
vn 1.00000000 0.00000000 0.00000000
v 0.4375000 -0.2289474 0.3277400
vn 1.00000000 0.00000000 0.00000000
f 49/49/49 50/50/50 51/51/51
v 0.4375000 -0.2500000 0.0250000
vn 1.00000000 0.00000000 0.00000000
v 0.4375000 -0.2289474 0.3277400
vn 1.00000000 0.00000000 0.00000000
v 0.4375000 -0.2500000 0.3277400
vn 1.00000000 0.00000000 0.00000000
f 52/52/52 53/53/53 54/54/54
v 0.4375000 -0.2289474 0.0250000
vn 0.00000000 1.00000000 0.00000000
v -0.4375000 -0.2289474 0.0250000
vn 0.00000000 1.00000000 0.00000000
v -0.4375000 -0.2289474 0.3277400
vn 0.00000000 1.00000000 0.00000000
f 55/55/55 56/56/56 57/57/57
v 0.4375000 -0.2289474 0.0250000
vn 0.00000000 1.00000000 -0.00000000
v -0.4375000 -0.2289474 0.3277400
vn 0.00000000 1.00000000 -0.00000000
v 0.4375000 -0.2289474 0.3277400
vn 0.00000000 1.00000000 -0.00000000
f 58/58/58 59/59/59 60/60/60
v -0.4375000 -0.2289474 0.0250000
vn -1.00000000 0.00000000 0.00000000
v -0.4375000 -0.2500000 0.0250000
vn -1.00000000 0.00000000 0.00000000
v -0.4375000 -0.2500000 0.3277400
vn -1.00000000 0.00000000 0.00000000
f 61/61/61 62/62/62 63/63/63
v -0.4375000 -0.2289474 0.0250000
vn -1.00000000 0.00000000 0.00000000
v -0.4375000 -0.2500000 0.3277400
vn -1.00000000 0.00000000 0.00000000
v -0.4375000 -0.2289474 0.3277400
vn -1.00000000 0.00000000 0.00000000
f 64/64/64 65/65/65 66/66/66
v -0.4375000 -0.2500000 0.3277400
vn 0.00000000 0.00000000 1.00000000
v 0.4375000 -0.2500000 0.3277400
vn 0.00000000 0.00000000 1.00000000
v 0.4375000 -0.2289474 0.3277400
vn 0.00000000 0.00000000 1.00000000
f 67/67/67 68/68/68 69/69/69
v -0.4375000 -0.2500000 0.3277400
vn 0.00000000 0.00000000 1.00000000
v 0.4375000 -0.2289474 0.3277400
vn 0.00000000 0.00000000 1.00000000
v -0.4375000 -0.2289474 0.3277400
vn 0.00000000 0.00000000 1.00000000
f 70/70/70 71/71/71 72/72/72
v -0.4375000 -0.2500000 0.0250000
vn 0.00000000 0.00000000 -1.00000000
v -0.4375000 0.2500000 0.0250000
vn 0.00000000 0.00000000 -1.00000000
v -0.4006579 0.2500000 0.0250000
vn 0.00000000 0.00000000 -1.00000000
f 73/73/73 74/74/74 75/75/75
v -0.4375000 -0.2500000 0.0250000
vn 0.00000000 0.00000000 -1.00000000
v -0.4006579 0.2500000 0.0250000
vn 0.00000000 0.00000000 -1.00000000
v -0.4006579 -0.2500000 0.0250000
vn 0.00000000 0.00000000 -1.00000000
f 76/76/76 77/77/77 78/78/78
v -0.4375000 -0.2500000 0.0250000
vn 0.00000000 -1.00000000 0.00000000
v -0.4006579 -0.2500000 0.0250000
vn 0.00000000 -1.00000000 0.00000000
v -0.4006579 -0.2500000 0.3277400
vn 0.00000000 -1.00000000 0.00000000
f 79/79/79 80/80/80 81/81/81
v -0.4375000 -0.2500000 0.0250000
vn 0.00000000 -1.00000000 0.00000000
v -0.4006579 -0.2500000 0.3277400
vn 0.00000000 -1.00000000 0.00000000
v -0.4375000 -0.2500000 0.3277400
vn 0.00000000 -1.00000000 0.00000000
f 82/82/82 83/83/83 84/84/84
v -0.4006579 -0.2500000 0.0250000
vn 1.00000000 0.00000000 0.00000000
v -0.4006579 0.2500000 0.0250000
vn 1.00000000 0.00000000 0.00000000
v -0.4006579 0.2500000 0.3277400
vn 1.00000000 0.00000000 0.00000000
f 85/85/85 86/86/86 87/87/87
v -0.4006579 -0.2500000 0.0250000
vn 1.00000000 0.00000000 0.00000000
v -0.4006579 0.2500000 0.3277400
vn 1.00000000 0.00000000 0.00000000
v -0.4006579 -0.2500000 0.3277400
vn 1.00000000 0.00000000 0.00000000
f 88/88/88 89/89/89 90/90/90
v -0.4006579 0.2500000 0.0250000
vn 0.00000000 1.00000000 0.00000000
v -0.4375000 0.2500000 0.0250000
vn 0.00000000 1.00000000 0.00000000
v -0.4375000 0.2500000 0.3277400
vn 0.00000000 1.00000000 0.00000000
f 91/91/91 92/92/92 93/93/93
v -0.4006579 0.2500000 0.0250000
vn 0.00000000 1.00000000 -0.00000000
v -0.4375000 0.2500000 0.3277400
vn 0.00000000 1.00000000 -0.00000000
v -0.4006579 0.2500000 0.3277400
vn 0.00000000 1.00000000 -0.00000000
f 94/94/94 95/95/95 96/96/96
v -0.4375000 0.2500000 0.0250000
vn -1.00000000 0.00000000 0.00000000
v -0.4375000 -0.2500000 0.0250000
vn -1.00000000 0.00000000 0.00000000
v -0.4375000 -0.2500000 0.3277400
vn -1.00000000 0.00000000 0.00000000
f 97/97/97 98/98/98 99/99/99
v -0.4375000 0.2500000 0.0250000
vn -1.00000000 0.00000000 0.00000000
v -0.4375000 -0.2500000 0.3277400
vn -1.00000000 0.00000000 0.00000000
v -0.4375000 0.2500000 0.3277400
vn -1.00000000 0.00000000 0.00000000
f 100/100/100 101/101/101 102/102/102
v -0.4375000 -0.2500000 0.3277400
vn 0.00000000 0.00000000 1.00000000
v -0.4006579 -0.2500000 0.3277400
vn 0.00000000 0.00000000 1.00000000
v -0.4006579 0.2500000 0.3277400
vn 0.00000000 0.00000000 1.00000000
f 103/103/103 104/104/104 105/105/105
v -0.4375000 -0.2500000 0.3277400
vn 0.00000000 0.00000000 1.00000000
v -0.4006579 0.2500000 0.3277400
vn 0.00000000 0.00000000 1.00000000
v -0.4375000 0.2500000 0.3277400
vn 0.00000000 0.00000000 1.00000000
f 106/106/106 107/107/107 108/108/108
v 0.4006579 -0.2500000 0.0250000
vn 0.00000000 0.00000000 -1.00000000
v 0.4006579 0.2500000 0.0250000
vn 0.00000000 0.00000000 -1.00000000
v 0.4375000 0.2500000 0.0250000
vn 0.00000000 0.00000000 -1.00000000
f 109/109/109 110/110/110 111/111/111
v 0.4006579 -0.2500000 0.0250000
vn 0.00000000 0.00000000 -1.00000000
v 0.4375000 0.2500000 0.0250000
vn 0.00000000 0.00000000 -1.00000000
v 0.4375000 -0.2500000 0.0250000
vn 0.00000000 0.00000000 -1.00000000
f 112/112/112 113/113/113 114/114/114
v 0.4006579 -0.2500000 0.0250000
vn 0.00000000 -1.00000000 0.00000000
v 0.4375000 -0.2500000 0.0250000
vn 0.00000000 -1.00000000 0.00000000
v 0.4375000 -0.2500000 0.3277400
vn 0.00000000 -1.00000000 0.00000000
f 115/115/115 116/116/116 117/117/117
v 0.4006579 -0.2500000 0.0250000
vn 0.00000000 -1.00000000 0.00000000
v 0.4375000 -0.2500000 0.3277400
vn 0.00000000 -1.00000000 0.00000000
v 0.4006579 -0.2500000 0.3277400
vn 0.00000000 -1.00000000 0.00000000
f 118/118/118 119/119/119 120/120/120
v 0.4375000 -0.2500000 0.0250000
vn 1.00000000 0.00000000 0.00000000
v 0.4375000 0.2500000 0.0250000
vn 1.00000000 0.00000000 0.00000000
v 0.4375000 0.2500000 0.3277400
vn 1.00000000 0.00000000 0.00000000
f 121/121/121 122/122/122 123/123/123
v 0.4375000 -0.2500000 0.0250000
vn 1.00000000 0.00000000 0.00000000
v 0.4375000 0.2500000 0.3277400
vn 1.00000000 0.00000000 0.00000000
v 0.4375000 -0.2500000 0.3277400
vn 1.00000000 0.00000000 0.00000000
f 124/124/124 125/125/125 126/126/126
v 0.4375000 0.2500000 0.0250000
vn 0.00000000 1.00000000 0.00000000
v 0.4006579 0.2500000 0.0250000
vn 0.00000000 1.00000000 0.00000000
v 0.4006579 0.2500000 0.3277400
vn 0.00000000 1.00000000 0.00000000
f 127/127/127 128/128/128 129/129/129
v 0.4375000 0.2500000 0.0250000
vn 0.00000000 1.00000000 -0.00000000
v 0.4006579 0.2500000 0.3277400
vn 0.00000000 1.00000000 -0.00000000
v 0.4375000 0.2500000 0.3277400
vn 0.00000000 1.00000000 -0.00000000
f 130/130/130 131/131/131 132/132/132
v 0.4006579 0.2500000 0.0250000
vn -1.00000000 0.00000000 0.00000000
v 0.4006579 -0.2500000 0.0250000
vn -1.00000000 0.00000000 0.00000000
v 0.4006579 -0.2500000 0.3277400
vn -1.00000000 0.00000000 0.00000000
f 133/133/133 134/134/134 135/135/135
v 0.4006579 0.2500000 0.0250000
vn -1.00000000 0.00000000 0.00000000
v 0.4006579 -0.2500000 0.3277400
vn -1.00000000 0.00000000 0.00000000
v 0.4006579 0.2500000 0.3277400
vn -1.00000000 0.00000000 0.00000000
f 136/136/136 137/137/137 138/138/138
v 0.4006579 -0.2500000 0.3277400
vn 0.00000000 0.00000000 1.00000000
v 0.4375000 -0.2500000 0.3277400
vn 0.00000000 0.00000000 1.00000000
v 0.4375000 0.2500000 0.3277400
vn 0.00000000 0.00000000 1.00000000
f 139/139/139 140/140/140 141/141/141
v 0.4006579 -0.2500000 0.3277400
vn 0.00000000 0.00000000 1.00000000
v 0.4375000 0.2500000 0.3277400
vn 0.00000000 0.00000000 1.00000000
v 0.4006579 0.2500000 0.3277400
vn 0.00000000 0.00000000 1.00000000
f 142/142/142 143/143/143 144/144/144
v -0.4236842 -0.2289474 0.0250000
vn 0.00000000 0.00000000 -1.00000000
v -0.4236842 0.2421053 0.0250000
vn 0.00000000 0.00000000 -1.00000000
v 0.4236842 0.2421053 0.0250000
vn 0.00000000 0.00000000 -1.00000000
f 145/145/145 146/146/146 147/147/147
v -0.4236842 -0.2289474 0.0250000
vn 0.00000000 0.00000000 -1.00000000
v 0.4236842 0.2421053 0.0250000
vn 0.00000000 0.00000000 -1.00000000
v 0.4236842 -0.2289474 0.0250000
vn 0.00000000 0.00000000 -1.00000000
f 148/148/148 149/149/149 150/150/150
v -0.4236842 -0.2289474 0.0250000
vn 0.00000000 -1.00000000 0.00000000
v 0.4236842 -0.2289474 0.0250000
vn 0.00000000 -1.00000000 0.00000000
v 0.4236842 -0.2289474 0.0650000
vn 0.00000000 -1.00000000 0.00000000
f 151/151/151 152/152/152 153/153/153
v -0.4236842 -0.2289474 0.0250000
vn 0.00000000 -1.00000000 0.00000000
v 0.4236842 -0.2289474 0.0650000
vn 0.00000000 -1.00000000 0.00000000
v -0.4236842 -0.2289474 0.0650000
vn 0.00000000 -1.00000000 0.00000000
f 154/154/154 155/155/155 156/156/156
v 0.4236842 -0.2289474 0.0250000
vn 1.00000000 0.00000000 0.00000000
v 0.4236842 0.2421053 0.0250000
vn 1.00000000 0.00000000 0.00000000
v 0.4236842 0.2421053 0.0650000
vn 1.00000000 0.00000000 0.00000000
f 157/157/157 158/158/158 159/159/159
v 0.4236842 -0.2289474 0.0250000
vn 1.00000000 0.00000000 0.00000000
v 0.4236842 0.2421053 0.0650000
vn 1.00000000 0.00000000 0.00000000
v 0.4236842 -0.2289474 0.0650000
vn 1.00000000 0.00000000 0.00000000
f 160/160/160 161/161/161 162/162/162
v 0.4236842 0.2421053 0.0250000
vn 0.00000000 1.00000000 0.00000000
v -0.4236842 0.2421053 0.0250000
vn 0.00000000 1.00000000 0.00000000
v -0.4236842 0.2421053 0.0650000
vn 0.00000000 1.00000000 0.00000000
f 163/163/163 164/164/164 165/165/165
v 0.4236842 0.2421053 0.0250000
vn 0.00000000 1.00000000 -0.00000000
v -0.4236842 0.2421053 0.0650000
vn 0.00000000 1.00000000 -0.00000000
v 0.4236842 0.2421053 0.0650000
vn 0.00000000 1.00000000 -0.00000000
f 166/166/166 167/167/167 168/168/168
v -0.4236842 0.2421053 0.0250000
vn -1.00000000 0.00000000 0.00000000
v -0.4236842 -0.2289474 0.0250000
vn -1.00000000 0.00000000 0.00000000
v -0.4236842 -0.2289474 0.0650000
vn -1.00000000 0.00000000 0.00000000
f 169/169/169 170/170/170 171/171/171
v -0.4236842 0.2421053 0.0250000
vn -1.00000000 0.00000000 0.00000000
v -0.4236842 -0.2289474 0.0650000
vn -1.00000000 0.00000000 0.00000000
v -0.4236842 0.2421053 0.0650000
vn -1.00000000 0.00000000 0.00000000
f 172/172/172 173/173/173 174/174/174
v -0.4236842 -0.2289474 0.0650000
vn 0.00000000 0.00000000 1.00000000
v 0.4236842 -0.2289474 0.0650000
vn 0.00000000 0.00000000 1.00000000
v 0.4236842 0.2421053 0.0650000
vn 0.00000000 0.00000000 1.00000000
f 175/175/175 176/176/176 177/177/177
v -0.4236842 -0.2289474 0.0650000
vn 0.00000000 0.00000000 1.00000000
v 0.4236842 0.2421053 0.0650000
vn 0.00000000 0.00000000 1.00000000
v -0.4236842 0.2421053 0.0650000
vn 0.00000000 0.00000000 1.00000000
f 178/178/178 179/179/179 180/180/180
v -0.4236842 -0.2289474 0.1837152
vn 0.00000000 0.00000000 -1.00000000
v -0.4236842 0.2421053 0.1837152
vn 0.00000000 0.00000000 -1.00000000
v 0.4236842 0.2421053 0.1837152
vn 0.00000000 0.00000000 -1.00000000
f 181/181/181 182/182/182 183/183/183
v -0.4236842 -0.2289474 0.1837152
vn 0.00000000 0.00000000 -1.00000000
v 0.4236842 0.2421053 0.1837152
vn 0.00000000 0.00000000 -1.00000000
v 0.4236842 -0.2289474 0.1837152
vn 0.00000000 0.00000000 -1.00000000
f 184/184/184 185/185/185 186/186/186
v -0.4236842 -0.2289474 0.1837152
vn 0.00000000 -1.00000000 0.00000000
v 0.4236842 -0.2289474 0.1837152
vn 0.00000000 -1.00000000 0.00000000
v 0.4236842 -0.2289474 0.2237152
vn 0.00000000 -1.00000000 0.00000000
f 187/187/187 188/188/188 189/189/189
v -0.4236842 -0.2289474 0.1837152
vn 0.00000000 -1.00000000 0.00000000
v 0.4236842 -0.2289474 0.2237152
vn 0.00000000 -1.00000000 0.00000000
v -0.4236842 -0.2289474 0.2237152
vn 0.00000000 -1.00000000 0.00000000
f 190/190/190 191/191/191 192/192/192
v 0.4236842 -0.2289474 0.1837152
vn 1.00000000 0.00000000 0.00000000
v 0.4236842 0.2421053 0.1837152
vn 1.00000000 0.00000000 0.00000000
v 0.4236842 0.2421053 0.2237152
vn 1.00000000 0.00000000 0.00000000
f 193/193/193 194/194/194 195/195/195
v 0.4236842 -0.2289474 0.1837152
vn 1.00000000 0.00000000 0.00000000
v 0.4236842 0.2421053 0.2237152
vn 1.00000000 0.00000000 0.00000000
v 0.4236842 -0.2289474 0.2237152
vn 1.00000000 0.00000000 0.00000000
f 196/196/196 197/197/197 198/198/198
v 0.4236842 0.2421053 0.1837152
vn 0.00000000 1.00000000 0.00000000
v -0.4236842 0.2421053 0.1837152
vn 0.00000000 1.00000000 0.00000000
v -0.4236842 0.2421053 0.2237152
vn 0.00000000 1.00000000 0.00000000
f 199/199/199 200/200/200 201/201/201
v 0.4236842 0.2421053 0.1837152
vn 0.00000000 1.00000000 -0.00000000
v -0.4236842 0.2421053 0.2237152
vn 0.00000000 1.00000000 -0.00000000
v 0.4236842 0.2421053 0.2237152
vn 0.00000000 1.00000000 -0.00000000
f 202/202/202 203/203/203 204/204/204
v -0.4236842 0.2421053 0.1837152
vn -1.00000000 0.00000000 0.00000000
v -0.4236842 -0.2289474 0.1837152
vn -1.00000000 0.00000000 0.00000000
v -0.4236842 -0.2289474 0.2237152
vn -1.00000000 0.00000000 0.00000000
f 205/205/205 206/206/206 207/207/207
v -0.4236842 0.2421053 0.1837152
vn -1.00000000 0.00000000 0.00000000
v -0.4236842 -0.2289474 0.2237152
vn -1.00000000 0.00000000 0.00000000
v -0.4236842 0.2421053 0.2237152
vn -1.00000000 0.00000000 0.00000000
f 208/208/208 209/209/209 210/210/210
v -0.4236842 -0.2289474 0.2237152
vn 0.00000000 0.00000000 1.00000000
v 0.4236842 -0.2289474 0.2237152
vn 0.00000000 0.00000000 1.00000000
v 0.4236842 0.2421053 0.2237152
vn 0.00000000 0.00000000 1.00000000
f 211/211/211 212/212/212 213/213/213
v -0.4236842 -0.2289474 0.2237152
vn 0.00000000 0.00000000 1.00000000
v 0.4236842 0.2421053 0.2237152
vn 0.00000000 0.00000000 1.00000000
v -0.4236842 0.2421053 0.2237152
vn 0.00000000 0.00000000 1.00000000
f 214/214/214 215/215/215 216/216/216
v -0.3822368 -0.2184211 0.0000000
vn 0.00000000 0.00000000 -1.00000000
v -0.3822368 -0.1710526 0.0000000
vn 0.00000000 0.00000000 -1.00000000
v -0.2993421 -0.1710526 0.0000000
vn 0.00000000 0.00000000 -1.00000000
f 217/217/217 218/218/218 219/219/219
v -0.3822368 -0.2184211 0.0000000
vn 0.00000000 0.00000000 -1.00000000
v -0.2993421 -0.1710526 0.0000000
vn 0.00000000 0.00000000 -1.00000000
v -0.2993421 -0.2184211 0.0000000
vn 0.00000000 0.00000000 -1.00000000
f 220/220/220 221/221/221 222/222/222
v -0.3822368 -0.2184211 0.0000000
vn 0.00000000 -1.00000000 0.00000000
v -0.2993421 -0.2184211 0.0000000
vn 0.00000000 -1.00000000 0.00000000
v -0.2993421 -0.2184211 0.3277400
vn 0.00000000 -1.00000000 0.00000000
f 223/223/223 224/224/224 225/225/225
v -0.3822368 -0.2184211 0.0000000
vn 0.00000000 -1.00000000 0.00000000
v -0.2993421 -0.2184211 0.3277400
vn 0.00000000 -1.00000000 0.00000000
v -0.3822368 -0.2184211 0.3277400
vn 0.00000000 -1.00000000 0.00000000
f 226/226/226 227/227/227 228/228/228
v -0.2993421 -0.2184211 0.0000000
vn 1.00000000 0.00000000 0.00000000
v -0.2993421 -0.1710526 0.0000000
vn 1.00000000 0.00000000 0.00000000
v -0.2993421 -0.1710526 0.3277400
vn 1.00000000 0.00000000 0.00000000
f 229/229/229 230/230/230 231/231/231
v -0.2993421 -0.2184211 0.0000000
vn 1.00000000 0.00000000 0.00000000
v -0.2993421 -0.1710526 0.3277400
vn 1.00000000 0.00000000 0.00000000
v -0.2993421 -0.2184211 0.3277400
vn 1.00000000 0.00000000 0.00000000
f 232/232/232 233/233/233 234/234/234
v -0.2993421 -0.1710526 0.0000000
vn 0.00000000 1.00000000 0.00000000
v -0.3822368 -0.1710526 0.0000000
vn 0.00000000 1.00000000 0.00000000
v -0.3822368 -0.1710526 0.3277400
vn 0.00000000 1.00000000 0.00000000
f 235/235/235 236/236/236 237/237/237
v -0.2993421 -0.1710526 0.0000000
vn 0.00000000 1.00000000 -0.00000000
v -0.3822368 -0.1710526 0.3277400
vn 0.00000000 1.00000000 -0.00000000
v -0.2993421 -0.1710526 0.3277400
vn 0.00000000 1.00000000 -0.00000000
f 238/238/238 239/239/239 240/240/240
v -0.3822368 -0.1710526 0.0000000
vn -1.00000000 0.00000000 0.00000000
v -0.3822368 -0.2184211 0.0000000
vn -1.00000000 0.00000000 0.00000000
v -0.3822368 -0.2184211 0.3277400
vn -1.00000000 0.00000000 0.00000000
f 241/241/241 242/242/242 243/243/243
v -0.3822368 -0.1710526 0.0000000
vn -1.00000000 0.00000000 0.00000000
v -0.3822368 -0.2184211 0.3277400
vn -1.00000000 0.00000000 0.00000000
v -0.3822368 -0.1710526 0.3277400
vn -1.00000000 0.00000000 0.00000000
f 244/244/244 245/245/245 246/246/246
v -0.3822368 -0.2184211 0.3277400
vn 0.00000000 0.00000000 1.00000000
v -0.2993421 -0.2184211 0.3277400
vn 0.00000000 0.00000000 1.00000000
v -0.2993421 -0.1710526 0.3277400
vn 0.00000000 0.00000000 1.00000000
f 247/247/247 248/248/248 249/249/249
v -0.3822368 -0.2184211 0.3277400
vn 0.00000000 0.00000000 1.00000000
v -0.2993421 -0.1710526 0.3277400
vn 0.00000000 0.00000000 1.00000000
v -0.3822368 -0.1710526 0.3277400
vn 0.00000000 0.00000000 1.00000000
f 250/250/250 251/251/251 252/252/252
v -0.3822368 0.1710526 0.0000000
vn 0.00000000 0.00000000 -1.00000000
v -0.3822368 0.2184211 0.0000000
vn 0.00000000 0.00000000 -1.00000000
v -0.2993421 0.2184211 0.0000000
vn 0.00000000 0.00000000 -1.00000000
f 253/253/253 254/254/254 255/255/255
v -0.3822368 0.1710526 0.0000000
vn 0.00000000 0.00000000 -1.00000000
v -0.2993421 0.2184211 0.0000000
vn 0.00000000 0.00000000 -1.00000000
v -0.2993421 0.1710526 0.0000000
vn 0.00000000 0.00000000 -1.00000000
f 256/256/256 257/257/257 258/258/258
v -0.3822368 0.1710526 0.0000000
vn 0.00000000 -1.00000000 0.00000000
v -0.2993421 0.1710526 0.0000000
vn 0.00000000 -1.00000000 0.00000000
v -0.2993421 0.1710526 0.3277400
vn 0.00000000 -1.00000000 0.00000000
f 259/259/259 260/260/260 261/261/261
v -0.3822368 0.1710526 0.0000000
vn 0.00000000 -1.00000000 0.00000000
v -0.2993421 0.1710526 0.3277400
vn 0.00000000 -1.00000000 0.00000000
v -0.3822368 0.1710526 0.3277400
vn 0.00000000 -1.00000000 0.00000000
f 262/262/262 263/263/263 264/264/264
v -0.2993421 0.1710526 0.0000000
vn 1.00000000 0.00000000 0.00000000
v -0.2993421 0.2184211 0.0000000
vn 1.00000000 0.00000000 0.00000000
v -0.2993421 0.2184211 0.3277400
vn 1.00000000 0.00000000 0.00000000
f 265/265/265 266/266/266 267/267/267
v -0.2993421 0.1710526 0.0000000
vn 1.00000000 0.00000000 0.00000000
v -0.2993421 0.2184211 0.3277400
vn 1.00000000 0.00000000 0.00000000
v -0.2993421 0.1710526 0.3277400
vn 1.00000000 0.00000000 0.00000000
f 268/268/268 269/269/269 270/270/270
v -0.2993421 0.2184211 0.0000000
vn 0.00000000 1.00000000 0.00000000
v -0.3822368 0.2184211 0.0000000
vn 0.00000000 1.00000000 0.00000000
v -0.3822368 0.2184211 0.3277400
vn 0.00000000 1.00000000 0.00000000
f 271/271/271 272/272/272 273/273/273
v -0.2993421 0.2184211 0.0000000
vn 0.00000000 1.00000000 -0.00000000
v -0.3822368 0.2184211 0.3277400
vn 0.00000000 1.00000000 -0.00000000
v -0.2993421 0.2184211 0.3277400
vn 0.00000000 1.00000000 -0.00000000
f 274/274/274 275/275/275 276/276/276
v -0.3822368 0.2184211 0.0000000
vn -1.00000000 0.00000000 0.00000000
v -0.3822368 0.1710526 0.0000000
vn -1.00000000 0.00000000 0.00000000
v -0.3822368 0.1710526 0.3277400
vn -1.00000000 0.00000000 0.00000000
f 277/277/277 278/278/278 279/279/279
v -0.3822368 0.2184211 0.0000000
vn -1.00000000 0.00000000 0.00000000
v -0.3822368 0.1710526 0.3277400
vn -1.00000000 0.00000000 0.00000000
v -0.3822368 0.2184211 0.3277400
vn -1.00000000 0.00000000 0.00000000
f 280/280/280 281/281/281 282/282/282
v -0.3822368 0.1710526 0.3277400
vn 0.00000000 0.00000000 1.00000000
v -0.2993421 0.1710526 0.3277400
vn 0.00000000 0.00000000 1.00000000
v -0.2993421 0.2184211 0.3277400
vn 0.00000000 0.00000000 1.00000000
f 283/283/283 284/284/284 285/285/285
v -0.3822368 0.1710526 0.3277400
vn 0.00000000 0.00000000 1.00000000
v -0.2993421 0.2184211 0.3277400
vn 0.00000000 0.00000000 1.00000000
v -0.3822368 0.2184211 0.3277400
vn 0.00000000 0.00000000 1.00000000
f 286/286/286 287/287/287 288/288/288
v 0.2993421 -0.2184211 0.0000000
vn 0.00000000 0.00000000 -1.00000000
v 0.2993421 -0.1710526 0.0000000
vn 0.00000000 0.00000000 -1.00000000
v 0.3822368 -0.1710526 0.0000000
vn 0.00000000 0.00000000 -1.00000000
f 289/289/289 290/290/290 291/291/291
v 0.2993421 -0.2184211 0.0000000
vn 0.00000000 0.00000000 -1.00000000
v 0.3822368 -0.1710526 0.0000000
vn 0.00000000 0.00000000 -1.00000000
v 0.3822368 -0.2184211 0.0000000
vn 0.00000000 0.00000000 -1.00000000
f 292/292/292 293/293/293 294/294/294
v 0.2993421 -0.2184211 0.0000000
vn 0.00000000 -1.00000000 0.00000000
v 0.3822368 -0.2184211 0.0000000
vn 0.00000000 -1.00000000 0.00000000
v 0.3822368 -0.2184211 0.3277400
vn 0.00000000 -1.00000000 0.00000000
f 295/295/295 296/296/296 297/297/297
v 0.2993421 -0.2184211 0.0000000
vn 0.00000000 -1.00000000 0.00000000
v 0.3822368 -0.2184211 0.3277400
vn 0.00000000 -1.00000000 0.00000000
v 0.2993421 -0.2184211 0.3277400
vn 0.00000000 -1.00000000 0.00000000
f 298/298/298 299/299/299 300/300/300
v 0.3822368 -0.2184211 0.0000000
vn 1.00000000 0.00000000 0.00000000
v 0.3822368 -0.1710526 0.0000000
vn 1.00000000 0.00000000 0.00000000
v 0.3822368 -0.1710526 0.3277400
vn 1.00000000 0.00000000 0.00000000
f 301/301/301 302/302/302 303/303/303
v 0.3822368 -0.2184211 0.0000000
vn 1.00000000 0.00000000 0.00000000
v 0.3822368 -0.1710526 0.3277400
vn 1.00000000 0.00000000 0.00000000
v 0.3822368 -0.2184211 0.3277400
vn 1.00000000 0.00000000 0.00000000
f 304/304/304 305/305/305 306/306/306
v 0.3822368 -0.1710526 0.0000000
vn 0.00000000 1.00000000 0.00000000
v 0.2993421 -0.1710526 0.0000000
vn 0.00000000 1.00000000 0.00000000
v 0.2993421 -0.1710526 0.3277400
vn 0.00000000 1.00000000 0.00000000
f 307/307/307 308/308/308 309/309/309
v 0.3822368 -0.1710526 0.0000000
vn 0.00000000 1.00000000 -0.00000000
v 0.2993421 -0.1710526 0.3277400
vn 0.00000000 1.00000000 -0.00000000
v 0.3822368 -0.1710526 0.3277400
vn 0.00000000 1.00000000 -0.00000000
f 310/310/310 311/311/311 312/312/312
v 0.2993421 -0.1710526 0.0000000
vn -1.00000000 0.00000000 0.00000000
v 0.2993421 -0.2184211 0.0000000
vn -1.00000000 0.00000000 0.00000000
v 0.2993421 -0.2184211 0.3277400
vn -1.00000000 0.00000000 0.00000000
f 313/313/313 314/314/314 315/315/315
v 0.2993421 -0.1710526 0.0000000
vn -1.00000000 0.00000000 0.00000000
v 0.2993421 -0.2184211 0.3277400
vn -1.00000000 0.00000000 0.00000000
v 0.2993421 -0.1710526 0.3277400
vn -1.00000000 0.00000000 0.00000000
f 316/316/316 317/317/317 318/318/318
v 0.2993421 -0.2184211 0.3277400
vn 0.00000000 0.00000000 1.00000000
v 0.3822368 -0.2184211 0.3277400
vn 0.00000000 0.00000000 1.00000000
v 0.3822368 -0.1710526 0.3277400
vn 0.00000000 0.00000000 1.00000000
f 319/319/319 320/320/320 321/321/321
v 0.2993421 -0.2184211 0.3277400
vn 0.00000000 0.00000000 1.00000000
v 0.3822368 -0.1710526 0.3277400
vn 0.00000000 0.00000000 1.00000000
v 0.2993421 -0.1710526 0.3277400
vn 0.00000000 0.00000000 1.00000000
f 322/322/322 323/323/323 324/324/324
v 0.2993421 0.1710526 0.0000000
vn 0.00000000 0.00000000 -1.00000000
v 0.2993421 0.2184211 0.0000000
vn 0.00000000 0.00000000 -1.00000000
v 0.3822368 0.2184211 0.0000000
vn 0.00000000 0.00000000 -1.00000000
f 325/325/325 326/326/326 327/327/327
v 0.2993421 0.1710526 0.0000000
vn 0.00000000 0.00000000 -1.00000000
v 0.3822368 0.2184211 0.0000000
vn 0.00000000 0.00000000 -1.00000000
v 0.3822368 0.1710526 0.0000000
vn 0.00000000 0.00000000 -1.00000000
f 328/328/328 329/329/329 330/330/330
v 0.2993421 0.1710526 0.0000000
vn 0.00000000 -1.00000000 0.00000000
v 0.3822368 0.1710526 0.0000000
vn 0.00000000 -1.00000000 0.00000000
v 0.3822368 0.1710526 0.3277400
vn 0.00000000 -1.00000000 0.00000000
f 331/331/331 332/332/332 333/333/333
v 0.2993421 0.1710526 0.0000000
vn 0.00000000 -1.00000000 0.00000000
v 0.3822368 0.1710526 0.3277400
vn 0.00000000 -1.00000000 0.00000000
v 0.2993421 0.1710526 0.3277400
vn 0.00000000 -1.00000000 0.00000000
f 334/334/334 335/335/335 336/336/336
v 0.3822368 0.1710526 0.0000000
vn 1.00000000 0.00000000 0.00000000
v 0.3822368 0.2184211 0.0000000
vn 1.00000000 0.00000000 0.00000000
v 0.3822368 0.2184211 0.3277400
vn 1.00000000 0.00000000 0.00000000
f 337/337/337 338/338/338 339/339/339
v 0.3822368 0.1710526 0.0000000
vn 1.00000000 0.00000000 0.00000000
v 0.3822368 0.2184211 0.3277400
vn 1.00000000 0.00000000 0.00000000
v 0.3822368 0.1710526 0.3277400
vn 1.00000000 0.00000000 0.00000000
f 340/340/340 341/341/341 342/342/342
v 0.3822368 0.2184211 0.0000000
vn 0.00000000 1.00000000 0.00000000
v 0.2993421 0.2184211 0.0000000
vn 0.00000000 1.00000000 0.00000000
v 0.2993421 0.2184211 0.3277400
vn 0.00000000 1.00000000 0.00000000
f 343/343/343 344/344/344 345/345/345
v 0.3822368 0.2184211 0.0000000
vn 0.00000000 1.00000000 -0.00000000
v 0.2993421 0.2184211 0.3277400
vn 0.00000000 1.00000000 -0.00000000
v 0.3822368 0.2184211 0.3277400
vn 0.00000000 1.00000000 -0.00000000
f 346/346/346 347/347/347 348/348/348
v 0.2993421 0.2184211 0.0000000
vn -1.00000000 0.00000000 0.00000000
v 0.2993421 0.1710526 0.0000000
vn -1.00000000 0.00000000 0.00000000
v 0.2993421 0.1710526 0.3277400
vn -1.00000000 0.00000000 0.00000000
f 349/349/349 350/350/350 351/351/351
v 0.2993421 0.2184211 0.0000000
vn -1.00000000 0.00000000 0.00000000
v 0.2993421 0.1710526 0.3277400
vn -1.00000000 0.00000000 0.00000000
v 0.2993421 0.2184211 0.3277400
vn -1.00000000 0.00000000 0.00000000
f 352/352/352 353/353/353 354/354/354
v 0.2993421 0.1710526 0.3277400
vn 0.00000000 0.00000000 1.00000000
v 0.3822368 0.1710526 0.3277400
vn 0.00000000 0.00000000 1.00000000
v 0.3822368 0.2184211 0.3277400
vn 0.00000000 0.00000000 1.00000000
f 355/355/355 356/356/356 357/357/357
v 0.2993421 0.1710526 0.3277400
vn 0.00000000 0.00000000 1.00000000
v 0.3822368 0.2184211 0.3277400
vn 0.00000000 0.00000000 1.00000000
v 0.2993421 0.2184211 0.3277400
vn 0.00000000 0.00000000 1.00000000
f 358/358/358 359/359/359 360/360/360
v -0.3592105 -0.2168421 0.1977400
vn 0.00000000 0.00000000 -1.00000000
v -0.3592105 -0.1936842 0.1977400
vn 0.00000000 0.00000000 -1.00000000
v 0.3592105 -0.1936842 0.1977400
vn 0.00000000 0.00000000 -1.00000000
f 361/361/361 362/362/362 363/363/363
v -0.3592105 -0.2168421 0.1977400
vn 0.00000000 0.00000000 -1.00000000
v 0.3592105 -0.1936842 0.1977400
vn 0.00000000 0.00000000 -1.00000000
v 0.3592105 -0.2168421 0.1977400
vn 0.00000000 0.00000000 -1.00000000
f 364/364/364 365/365/365 366/366/366
v -0.3592105 -0.2168421 0.1977400
vn 0.00000000 -1.00000000 0.00000000
v 0.3592105 -0.2168421 0.1977400
vn 0.00000000 -1.00000000 0.00000000
v 0.3592105 -0.2168421 0.3277400
vn 0.00000000 -1.00000000 0.00000000
f 367/367/367 368/368/368 369/369/369
v -0.3592105 -0.2168421 0.1977400
vn 0.00000000 -1.00000000 0.00000000
v 0.3592105 -0.2168421 0.3277400
vn 0.00000000 -1.00000000 0.00000000
v -0.3592105 -0.2168421 0.3277400
vn 0.00000000 -1.00000000 0.00000000
f 370/370/370 371/371/371 372/372/372
v 0.3592105 -0.2168421 0.1977400
vn 1.00000000 0.00000000 0.00000000
v 0.3592105 -0.1936842 0.1977400
vn 1.00000000 0.00000000 0.00000000
v 0.3592105 -0.1936842 0.3277400
vn 1.00000000 0.00000000 0.00000000
f 373/373/373 374/374/374 375/375/375
v 0.3592105 -0.2168421 0.1977400
vn 1.00000000 0.00000000 0.00000000
v 0.3592105 -0.1936842 0.3277400
vn 1.00000000 0.00000000 0.00000000
v 0.3592105 -0.2168421 0.3277400
vn 1.00000000 0.00000000 0.00000000
f 376/376/376 377/377/377 378/378/378
v 0.3592105 -0.1936842 0.1977400
vn 0.00000000 1.00000000 0.00000000
v -0.3592105 -0.1936842 0.1977400
vn 0.00000000 1.00000000 0.00000000
v -0.3592105 -0.1936842 0.3277400
vn 0.00000000 1.00000000 0.00000000
f 379/379/379 380/380/380 381/381/381
v 0.3592105 -0.1936842 0.1977400
vn 0.00000000 1.00000000 -0.00000000
v -0.3592105 -0.1936842 0.3277400
vn 0.00000000 1.00000000 -0.00000000
v 0.3592105 -0.1936842 0.3277400
vn 0.00000000 1.00000000 -0.00000000
f 382/382/382 383/383/383 384/384/384
v -0.3592105 -0.1936842 0.1977400
vn -1.00000000 0.00000000 0.00000000
v -0.3592105 -0.2168421 0.1977400
vn -1.00000000 0.00000000 0.00000000
v -0.3592105 -0.2168421 0.3277400
vn -1.00000000 0.00000000 0.00000000
f 385/385/385 386/386/386 387/387/387
v -0.3592105 -0.1936842 0.1977400
vn -1.00000000 0.00000000 0.00000000
v -0.3592105 -0.2168421 0.3277400
vn -1.00000000 0.00000000 0.00000000
v -0.3592105 -0.1936842 0.3277400
vn -1.00000000 0.00000000 0.00000000
f 388/388/388 389/389/389 390/390/390
v -0.3592105 -0.2168421 0.3277400
vn 0.00000000 0.00000000 1.00000000
v 0.3592105 -0.2168421 0.3277400
vn 0.00000000 0.00000000 1.00000000
v 0.3592105 -0.1936842 0.3277400
vn 0.00000000 0.00000000 1.00000000
f 391/391/391 392/392/392 393/393/393
v -0.3592105 -0.2168421 0.3277400
vn 0.00000000 0.00000000 1.00000000
v 0.3592105 -0.1936842 0.3277400
vn 0.00000000 0.00000000 1.00000000
v -0.3592105 -0.1936842 0.3277400
vn 0.00000000 0.00000000 1.00000000
f 394/394/394 395/395/395 396/396/396
v -0.3592105 0.1936842 0.1977400
vn 0.00000000 0.00000000 -1.00000000
v -0.3592105 0.2168421 0.1977400
vn 0.00000000 0.00000000 -1.00000000
v 0.3592105 0.2168421 0.1977400
vn 0.00000000 0.00000000 -1.00000000
f 397/397/397 398/398/398 399/399/399
v -0.3592105 0.1936842 0.1977400
vn 0.00000000 0.00000000 -1.00000000
v 0.3592105 0.2168421 0.1977400
vn 0.00000000 0.00000000 -1.00000000
v 0.3592105 0.1936842 0.1977400
vn 0.00000000 0.00000000 -1.00000000
f 400/400/400 401/401/401 402/402/402
v -0.3592105 0.1936842 0.1977400
vn 0.00000000 -1.00000000 0.00000000
v 0.3592105 0.1936842 0.1977400
vn 0.00000000 -1.00000000 0.00000000
v 0.3592105 0.1936842 0.3277400
vn 0.00000000 -1.00000000 0.00000000
f 403/403/403 404/404/404 405/405/405
v -0.3592105 0.1936842 0.1977400
vn 0.00000000 -1.00000000 0.00000000
v 0.3592105 0.1936842 0.3277400
vn 0.00000000 -1.00000000 0.00000000
v -0.3592105 0.1936842 0.3277400
vn 0.00000000 -1.00000000 0.00000000
f 406/406/406 407/407/407 408/408/408
v 0.3592105 0.1936842 0.1977400
vn 1.00000000 0.00000000 0.00000000
v 0.3592105 0.2168421 0.1977400
vn 1.00000000 0.00000000 0.00000000
v 0.3592105 0.2168421 0.3277400
vn 1.00000000 0.00000000 0.00000000
f 409/409/409 410/410/410 411/411/411
v 0.3592105 0.1936842 0.1977400
vn 1.00000000 0.00000000 0.00000000
v 0.3592105 0.2168421 0.3277400
vn 1.00000000 0.00000000 0.00000000
v 0.3592105 0.1936842 0.3277400
vn 1.00000000 0.00000000 0.00000000
f 412/412/412 413/413/413 414/414/414
v 0.3592105 0.2168421 0.1977400
vn 0.00000000 1.00000000 0.00000000
v -0.3592105 0.2168421 0.1977400
vn 0.00000000 1.00000000 0.00000000
v -0.3592105 0.2168421 0.3277400
vn 0.00000000 1.00000000 0.00000000
f 415/415/415 416/416/416 417/417/417
v 0.3592105 0.2168421 0.1977400
vn 0.00000000 1.00000000 -0.00000000
v -0.3592105 0.2168421 0.3277400
vn 0.00000000 1.00000000 -0.00000000
v 0.3592105 0.2168421 0.3277400
vn 0.00000000 1.00000000 -0.00000000
f 418/418/418 419/419/419 420/420/420
v -0.3592105 0.2168421 0.1977400
vn -1.00000000 0.00000000 0.00000000
v -0.3592105 0.1936842 0.1977400
vn -1.00000000 0.00000000 0.00000000
v -0.3592105 0.1936842 0.3277400
vn -1.00000000 0.00000000 0.00000000
f 421/421/421 422/422/422 423/423/423
v -0.3592105 0.2168421 0.1977400
vn -1.00000000 0.00000000 0.00000000
v -0.3592105 0.1936842 0.3277400
vn -1.00000000 0.00000000 0.00000000
v -0.3592105 0.2168421 0.3277400
vn -1.00000000 0.00000000 0.00000000
f 424/424/424 425/425/425 426/426/426
v -0.3592105 0.1936842 0.3277400
vn 0.00000000 0.00000000 1.00000000
v 0.3592105 0.1936842 0.3277400
vn 0.00000000 0.00000000 1.00000000
v 0.3592105 0.2168421 0.3277400
vn 0.00000000 0.00000000 1.00000000
f 427/427/427 428/428/428 429/429/429
v -0.3592105 0.1936842 0.3277400
vn 0.00000000 0.00000000 1.00000000
v 0.3592105 0.2168421 0.3277400
vn 0.00000000 0.00000000 1.00000000
v -0.3592105 0.2168421 0.3277400
vn 0.00000000 0.00000000 1.00000000
f 430/430/430 431/431/431 432/432/432
