# Physical vanilla furniture; Z up; per-tile mesh.
# Tile-local game axes; ObjReader performs the scene conversion.
mtllib ../Materials/pz_table_tables_high_01_large_dark_0_0.mtl
usemtl UV_Base
v -0.4062500 -0.4375000 0.6904800
vn 0.00000000 0.00000000 -1.00000000
v -0.4062500 0.4375000 0.6904800
vn 0.00000000 0.00000000 -1.00000000
v 0.5000000 0.4375000 0.6904800
vn 0.00000000 0.00000000 -1.00000000
vt 0.007812500 0.449084052
vt 0.007812500 0.007812500
vt 0.464843750 0.007812500
vt 0.007812500 0.449084052
vt 0.464843750 0.007812500
vt 0.464843750 0.449084052
vt 0.007812500 0.464843750
vt 0.464843750 0.464843750
vt 0.464843750 0.502667026
vt 0.007812500 0.464843750
vt 0.464843750 0.502667026
vt 0.007812500 0.502667026
vt 0.937500000 0.502667026
vt 0.480468750 0.502667026
vt 0.480468750 0.464843750
vt 0.937500000 0.502667026
vt 0.480468750 0.464843750
vt 0.937500000 0.464843750
vt 0.954364224 0.449084052
vt 0.954364224 0.007812500
vt 0.992187500 0.007812500
vt 0.954364224 0.449084052
vt 0.992187500 0.007812500
vt 0.992187500 0.449084052
vt 0.480468750 0.007812500
vt 0.937500000 0.007812500
vt 0.937500000 0.449084052
vt 0.480468750 0.007812500
vt 0.937500000 0.449084052
vt 0.480468750 0.449084052
vt 0.742187500 0.803523405
vt 0.742187500 0.761718750
vt 0.784375027 0.761718750
vt 0.742187500 0.803523405
vt 0.784375027 0.761718750
vt 0.784375027 0.803523405
vt 0.359375000 0.761718750
vt 0.359375000 0.803906277
vt 0.011158793 0.803906277
vt 0.359375000 0.761718750
vt 0.011158793 0.803906277
vt 0.011158793 0.761718750
vt 0.726562500 0.761718750
vt 0.726562500 0.803523405
vt 0.378346293 0.803523405
vt 0.726562500 0.761718750
vt 0.378346293 0.803523405
vt 0.378346293 0.761718750
vt 0.011158793 0.862500027
vt 0.011158793 0.820312500
vt 0.359375000 0.820312500
vt 0.011158793 0.862500027
vt 0.359375000 0.820312500
vt 0.359375000 0.862500027
vt 0.378346293 0.862117155
vt 0.378346293 0.820312500
vt 0.726562500 0.820312500
vt 0.378346293 0.862117155
vt 0.726562500 0.820312500
vt 0.726562500 0.862117155
vt 0.800781250 0.761718750
vt 0.842968777 0.761718750
vt 0.842968777 0.803523405
vt 0.800781250 0.761718750
vt 0.842968777 0.803523405
vt 0.800781250 0.803523405
vt 0.859375000 0.803523405
vt 0.859375000 0.761718750
vt 0.901562527 0.761718750
vt 0.859375000 0.803523405
vt 0.901562527 0.761718750
vt 0.901562527 0.803523405
vt 0.359375000 0.878906250
vt 0.359375000 0.921093777
vt 0.011158793 0.921093777
vt 0.359375000 0.878906250
vt 0.011158793 0.921093777
vt 0.011158793 0.878906250
vt 0.726562500 0.878906250
vt 0.726562500 0.920710905
vt 0.378346293 0.920710905
vt 0.726562500 0.878906250
vt 0.378346293 0.920710905
vt 0.378346293 0.878906250
vt 0.011158793 0.979687527
vt 0.011158793 0.937500000
vt 0.359375000 0.937500000
vt 0.011158793 0.979687527
vt 0.359375000 0.937500000
vt 0.359375000 0.979687527
vt 0.378346293 0.979304655
vt 0.378346293 0.937500000
vt 0.726562500 0.937500000
vt 0.378346293 0.979304655
vt 0.726562500 0.937500000
vt 0.726562500 0.979304655
vt 0.917968750 0.761718750
vt 0.960156277 0.761718750
vt 0.960156277 0.803523405
vt 0.917968750 0.761718750
vt 0.960156277 0.803523405
vt 0.917968750 0.803523405
vt 0.007812500 0.704031582
vt 0.007812500 0.683593750
vt 0.425000005 0.683593750
vt 0.007812500 0.704031582
vt 0.425000005 0.683593750
vt 0.425000005 0.704031582
vt 0.007812500 0.519531250
vt 0.425000005 0.519531250
vt 0.425000005 0.585091595
vt 0.007812500 0.519531250
vt 0.425000005 0.585091595
vt 0.007812500 0.585091595
vt 0.858593755 0.585091595
vt 0.441406250 0.585091595
vt 0.441406250 0.519531250
vt 0.858593755 0.585091595
vt 0.441406250 0.519531250
vt 0.858593755 0.519531250
vt 0.875845905 0.704031582
vt 0.875845905 0.683593750
vt 0.941406250 0.683593750
vt 0.875845905 0.704031582
vt 0.941406250 0.683593750
vt 0.941406250 0.704031582
vt 0.441406250 0.683593750
vt 0.858593755 0.683593750
vt 0.858593755 0.704031582
vt 0.441406250 0.683593750
vt 0.858593755 0.704031582
vt 0.441406250 0.704031582
vt 0.007812500 0.743094082
vt 0.007812500 0.722656250
vt 0.425000005 0.722656250
vt 0.007812500 0.743094082
vt 0.425000005 0.722656250
vt 0.425000005 0.743094082
vt 0.007812500 0.601562500
vt 0.425000005 0.601562500
vt 0.425000005 0.667122845
vt 0.007812500 0.601562500
vt 0.425000005 0.667122845
vt 0.007812500 0.667122845
vt 0.858593755 0.667122845
vt 0.441406250 0.667122845
vt 0.441406250 0.601562500
vt 0.858593755 0.667122845
vt 0.441406250 0.601562500
vt 0.858593755 0.601562500
vt 0.875845905 0.743094082
vt 0.875845905 0.722656250
vt 0.941406250 0.722656250
vt 0.875845905 0.743094082
vt 0.941406250 0.722656250
vt 0.941406250 0.743094082
vt 0.441406250 0.722656250
vt 0.858593755 0.722656250
vt 0.858593755 0.743094082
vt 0.441406250 0.722656250
vt 0.858593755 0.743094082
vt 0.441406250 0.743094082
f 1/1/1 2/2/2 3/3/3
v -0.4062500 -0.4375000 0.6904800
vn 0.00000000 0.00000000 -1.00000000
v 0.5000000 0.4375000 0.6904800
vn 0.00000000 0.00000000 -1.00000000
v 0.5000000 -0.4375000 0.6904800
vn 0.00000000 0.00000000 -1.00000000
f 4/4/4 5/5/5 6/6/6
v -0.4062500 -0.4375000 0.6904800
vn 0.00000000 -1.00000000 0.00000000
v 0.5000000 -0.4375000 0.6904800
vn 0.00000000 -1.00000000 0.00000000
v 0.5000000 -0.4375000 0.7654800
vn 0.00000000 -1.00000000 0.00000000
f 7/7/7 8/8/8 9/9/9
v -0.4062500 -0.4375000 0.6904800
vn 0.00000000 -1.00000000 0.00000000
v 0.5000000 -0.4375000 0.7654800
vn 0.00000000 -1.00000000 0.00000000
v -0.4062500 -0.4375000 0.7654800
vn 0.00000000 -1.00000000 0.00000000
f 10/10/10 11/11/11 12/12/12
v 0.5000000 0.4375000 0.6904800
vn 0.00000000 1.00000000 0.00000000
v -0.4062500 0.4375000 0.6904800
vn 0.00000000 1.00000000 0.00000000
v -0.4062500 0.4375000 0.7654800
vn 0.00000000 1.00000000 0.00000000
f 13/13/13 14/14/14 15/15/15
v 0.5000000 0.4375000 0.6904800
vn 0.00000000 1.00000000 -0.00000000
v -0.4062500 0.4375000 0.7654800
vn 0.00000000 1.00000000 -0.00000000
v 0.5000000 0.4375000 0.7654800
vn 0.00000000 1.00000000 -0.00000000
f 16/16/16 17/17/17 18/18/18
v -0.4062500 0.4375000 0.6904800
vn -1.00000000 0.00000000 0.00000000
v -0.4062500 -0.4375000 0.6904800
vn -1.00000000 0.00000000 0.00000000
v -0.4062500 -0.4375000 0.7654800
vn -1.00000000 0.00000000 0.00000000
f 19/19/19 20/20/20 21/21/21
v -0.4062500 0.4375000 0.6904800
vn -1.00000000 0.00000000 0.00000000
v -0.4062500 -0.4375000 0.7654800
vn -1.00000000 0.00000000 0.00000000
v -0.4062500 0.4375000 0.7654800
vn -1.00000000 0.00000000 0.00000000
f 22/22/22 23/23/23 24/24/24
v -0.4062500 -0.4375000 0.7654800
vn 0.00000000 0.00000000 1.00000000
v 0.5000000 -0.4375000 0.7654800
vn 0.00000000 0.00000000 1.00000000
v 0.5000000 0.4375000 0.7654800
vn 0.00000000 0.00000000 1.00000000
f 25/25/25 26/26/26 27/27/27
v -0.4062500 -0.4375000 0.7654800
vn 0.00000000 0.00000000 1.00000000
v 0.5000000 0.4375000 0.7654800
vn 0.00000000 0.00000000 1.00000000
v -0.4062500 0.4375000 0.7654800
vn 0.00000000 0.00000000 1.00000000
f 28/28/28 29/29/29 30/30/30
v -0.3504808 -0.3822368 0.0000000
vn 0.00000000 0.00000000 -1.00000000
v -0.3504808 -0.2993421 0.0000000
vn 0.00000000 0.00000000 -1.00000000
v -0.2668269 -0.2993421 0.0000000
vn 0.00000000 0.00000000 -1.00000000
f 31/31/31 32/32/32 33/33/33
v -0.3504808 -0.3822368 0.0000000
vn 0.00000000 0.00000000 -1.00000000
v -0.2668269 -0.2993421 0.0000000
vn 0.00000000 0.00000000 -1.00000000
v -0.2668269 -0.3822368 0.0000000
vn 0.00000000 0.00000000 -1.00000000
f 34/34/34 35/35/35 36/36/36
v -0.3504808 -0.3822368 0.0000000
vn 0.00000000 -1.00000000 0.00000000
v -0.2668269 -0.3822368 0.0000000
vn 0.00000000 -1.00000000 0.00000000
v -0.2668269 -0.3822368 0.6904800
vn 0.00000000 -1.00000000 0.00000000
f 37/37/37 38/38/38 39/39/39
v -0.3504808 -0.3822368 0.0000000
vn 0.00000000 -1.00000000 0.00000000
v -0.2668269 -0.3822368 0.6904800
vn 0.00000000 -1.00000000 0.00000000
v -0.3504808 -0.3822368 0.6904800
vn 0.00000000 -1.00000000 0.00000000
f 40/40/40 41/41/41 42/42/42
v -0.2668269 -0.3822368 0.0000000
vn 1.00000000 0.00000000 0.00000000
v -0.2668269 -0.2993421 0.0000000
vn 1.00000000 0.00000000 0.00000000
v -0.2668269 -0.2993421 0.6904800
vn 1.00000000 0.00000000 0.00000000
f 43/43/43 44/44/44 45/45/45
v -0.2668269 -0.3822368 0.0000000
vn 1.00000000 0.00000000 0.00000000
v -0.2668269 -0.2993421 0.6904800
vn 1.00000000 0.00000000 0.00000000
v -0.2668269 -0.3822368 0.6904800
vn 1.00000000 0.00000000 0.00000000
f 46/46/46 47/47/47 48/48/48
v -0.2668269 -0.2993421 0.0000000
vn 0.00000000 1.00000000 0.00000000
v -0.3504808 -0.2993421 0.0000000
vn 0.00000000 1.00000000 0.00000000
v -0.3504808 -0.2993421 0.6904800
vn 0.00000000 1.00000000 0.00000000
f 49/49/49 50/50/50 51/51/51
v -0.2668269 -0.2993421 0.0000000
vn 0.00000000 1.00000000 -0.00000000
v -0.3504808 -0.2993421 0.6904800
vn 0.00000000 1.00000000 -0.00000000
v -0.2668269 -0.2993421 0.6904800
vn 0.00000000 1.00000000 -0.00000000
f 52/52/52 53/53/53 54/54/54
v -0.3504808 -0.2993421 0.0000000
vn -1.00000000 0.00000000 0.00000000
v -0.3504808 -0.3822368 0.0000000
vn -1.00000000 0.00000000 0.00000000
v -0.3504808 -0.3822368 0.6904800
vn -1.00000000 0.00000000 0.00000000
f 55/55/55 56/56/56 57/57/57
v -0.3504808 -0.2993421 0.0000000
vn -1.00000000 0.00000000 0.00000000
v -0.3504808 -0.3822368 0.6904800
vn -1.00000000 0.00000000 0.00000000
v -0.3504808 -0.2993421 0.6904800
vn -1.00000000 0.00000000 0.00000000
f 58/58/58 59/59/59 60/60/60
v -0.3504808 -0.3822368 0.6904800
vn 0.00000000 0.00000000 1.00000000
v -0.2668269 -0.3822368 0.6904800
vn 0.00000000 0.00000000 1.00000000
v -0.2668269 -0.2993421 0.6904800
vn 0.00000000 0.00000000 1.00000000
f 61/61/61 62/62/62 63/63/63
v -0.3504808 -0.3822368 0.6904800
vn 0.00000000 0.00000000 1.00000000
v -0.2668269 -0.2993421 0.6904800
vn 0.00000000 0.00000000 1.00000000
v -0.3504808 -0.2993421 0.6904800
vn 0.00000000 0.00000000 1.00000000
f 64/64/64 65/65/65 66/66/66
v -0.3504808 0.2993421 0.0000000
vn 0.00000000 0.00000000 -1.00000000
v -0.3504808 0.3822368 0.0000000
vn 0.00000000 0.00000000 -1.00000000
v -0.2668269 0.3822368 0.0000000
vn 0.00000000 0.00000000 -1.00000000
f 67/67/67 68/68/68 69/69/69
v -0.3504808 0.2993421 0.0000000
vn 0.00000000 0.00000000 -1.00000000
v -0.2668269 0.3822368 0.0000000
vn 0.00000000 0.00000000 -1.00000000
v -0.2668269 0.2993421 0.0000000
vn 0.00000000 0.00000000 -1.00000000
f 70/70/70 71/71/71 72/72/72
v -0.3504808 0.2993421 0.0000000
vn 0.00000000 -1.00000000 0.00000000
v -0.2668269 0.2993421 0.0000000
vn 0.00000000 -1.00000000 0.00000000
v -0.2668269 0.2993421 0.6904800
vn 0.00000000 -1.00000000 0.00000000
f 73/73/73 74/74/74 75/75/75
v -0.3504808 0.2993421 0.0000000
vn 0.00000000 -1.00000000 0.00000000
v -0.2668269 0.2993421 0.6904800
vn 0.00000000 -1.00000000 0.00000000
v -0.3504808 0.2993421 0.6904800
vn 0.00000000 -1.00000000 0.00000000
f 76/76/76 77/77/77 78/78/78
v -0.2668269 0.2993421 0.0000000
vn 1.00000000 0.00000000 0.00000000
v -0.2668269 0.3822368 0.0000000
vn 1.00000000 0.00000000 0.00000000
v -0.2668269 0.3822368 0.6904800
vn 1.00000000 0.00000000 0.00000000
f 79/79/79 80/80/80 81/81/81
v -0.2668269 0.2993421 0.0000000
vn 1.00000000 0.00000000 0.00000000
v -0.2668269 0.3822368 0.6904800
vn 1.00000000 0.00000000 0.00000000
v -0.2668269 0.2993421 0.6904800
vn 1.00000000 0.00000000 0.00000000
f 82/82/82 83/83/83 84/84/84
v -0.2668269 0.3822368 0.0000000
vn 0.00000000 1.00000000 0.00000000
v -0.3504808 0.3822368 0.0000000
vn 0.00000000 1.00000000 0.00000000
v -0.3504808 0.3822368 0.6904800
vn 0.00000000 1.00000000 0.00000000
f 85/85/85 86/86/86 87/87/87
v -0.2668269 0.3822368 0.0000000
vn 0.00000000 1.00000000 -0.00000000
v -0.3504808 0.3822368 0.6904800
vn 0.00000000 1.00000000 -0.00000000
v -0.2668269 0.3822368 0.6904800
vn 0.00000000 1.00000000 -0.00000000
f 88/88/88 89/89/89 90/90/90
v -0.3504808 0.3822368 0.0000000
vn -1.00000000 0.00000000 0.00000000
v -0.3504808 0.2993421 0.0000000
vn -1.00000000 0.00000000 0.00000000
v -0.3504808 0.2993421 0.6904800
vn -1.00000000 0.00000000 0.00000000
f 91/91/91 92/92/92 93/93/93
v -0.3504808 0.3822368 0.0000000
vn -1.00000000 0.00000000 0.00000000
v -0.3504808 0.2993421 0.6904800
vn -1.00000000 0.00000000 0.00000000
v -0.3504808 0.3822368 0.6904800
vn -1.00000000 0.00000000 0.00000000
f 94/94/94 95/95/95 96/96/96
v -0.3504808 0.2993421 0.6904800
vn 0.00000000 0.00000000 1.00000000
v -0.2668269 0.2993421 0.6904800
vn 0.00000000 0.00000000 1.00000000
v -0.2668269 0.3822368 0.6904800
vn 0.00000000 0.00000000 1.00000000
f 97/97/97 98/98/98 99/99/99
v -0.3504808 0.2993421 0.6904800
vn 0.00000000 0.00000000 1.00000000
v -0.2668269 0.3822368 0.6904800
vn 0.00000000 0.00000000 1.00000000
v -0.3504808 0.3822368 0.6904800
vn 0.00000000 0.00000000 1.00000000
f 100/100/100 101/101/101 102/102/102
v -0.3272436 -0.3794737 0.5604800
vn 0.00000000 0.00000000 -1.00000000
v -0.3272436 -0.3389474 0.5604800
vn 0.00000000 0.00000000 -1.00000000
v 0.5000000 -0.3389474 0.5604800
vn 0.00000000 0.00000000 -1.00000000
f 103/103/103 104/104/104 105/105/105
v -0.3272436 -0.3794737 0.5604800
vn 0.00000000 0.00000000 -1.00000000
v 0.5000000 -0.3389474 0.5604800
vn 0.00000000 0.00000000 -1.00000000
v 0.5000000 -0.3794737 0.5604800
vn 0.00000000 0.00000000 -1.00000000
f 106/106/106 107/107/107 108/108/108
v -0.3272436 -0.3794737 0.5604800
vn 0.00000000 -1.00000000 0.00000000
v 0.5000000 -0.3794737 0.5604800
vn 0.00000000 -1.00000000 0.00000000
v 0.5000000 -0.3794737 0.6904800
vn 0.00000000 -1.00000000 0.00000000
f 109/109/109 110/110/110 111/111/111
v -0.3272436 -0.3794737 0.5604800
vn 0.00000000 -1.00000000 0.00000000
v 0.5000000 -0.3794737 0.6904800
vn 0.00000000 -1.00000000 0.00000000
v -0.3272436 -0.3794737 0.6904800
vn 0.00000000 -1.00000000 0.00000000
f 112/112/112 113/113/113 114/114/114
v 0.5000000 -0.3389474 0.5604800
vn 0.00000000 1.00000000 0.00000000
v -0.3272436 -0.3389474 0.5604800
vn 0.00000000 1.00000000 0.00000000
v -0.3272436 -0.3389474 0.6904800
vn 0.00000000 1.00000000 0.00000000
f 115/115/115 116/116/116 117/117/117
v 0.5000000 -0.3389474 0.5604800
vn 0.00000000 1.00000000 -0.00000000
v -0.3272436 -0.3389474 0.6904800
vn 0.00000000 1.00000000 -0.00000000
v 0.5000000 -0.3389474 0.6904800
vn 0.00000000 1.00000000 -0.00000000
f 118/118/118 119/119/119 120/120/120
v -0.3272436 -0.3389474 0.5604800
vn -1.00000000 0.00000000 0.00000000
v -0.3272436 -0.3794737 0.5604800
vn -1.00000000 0.00000000 0.00000000
v -0.3272436 -0.3794737 0.6904800
vn -1.00000000 0.00000000 0.00000000
f 121/121/121 122/122/122 123/123/123
v -0.3272436 -0.3389474 0.5604800
vn -1.00000000 0.00000000 0.00000000
v -0.3272436 -0.3794737 0.6904800
vn -1.00000000 0.00000000 0.00000000
v -0.3272436 -0.3389474 0.6904800
vn -1.00000000 0.00000000 0.00000000
f 124/124/124 125/125/125 126/126/126
v -0.3272436 -0.3794737 0.6904800
vn 0.00000000 0.00000000 1.00000000
v 0.5000000 -0.3794737 0.6904800
vn 0.00000000 0.00000000 1.00000000
v 0.5000000 -0.3389474 0.6904800
vn 0.00000000 0.00000000 1.00000000
f 127/127/127 128/128/128 129/129/129
v -0.3272436 -0.3794737 0.6904800
vn 0.00000000 0.00000000 1.00000000
v 0.5000000 -0.3389474 0.6904800
vn 0.00000000 0.00000000 1.00000000
v -0.3272436 -0.3389474 0.6904800
vn 0.00000000 0.00000000 1.00000000
f 130/130/130 131/131/131 132/132/132
v -0.3272436 0.3389474 0.5604800
vn 0.00000000 0.00000000 -1.00000000
v -0.3272436 0.3794737 0.5604800
vn 0.00000000 0.00000000 -1.00000000
v 0.5000000 0.3794737 0.5604800
vn 0.00000000 0.00000000 -1.00000000
f 133/133/133 134/134/134 135/135/135
v -0.3272436 0.3389474 0.5604800
vn 0.00000000 0.00000000 -1.00000000
v 0.5000000 0.3794737 0.5604800
vn 0.00000000 0.00000000 -1.00000000
v 0.5000000 0.3389474 0.5604800
vn 0.00000000 0.00000000 -1.00000000
f 136/136/136 137/137/137 138/138/138
v -0.3272436 0.3389474 0.5604800
vn 0.00000000 -1.00000000 0.00000000
v 0.5000000 0.3389474 0.5604800
vn 0.00000000 -1.00000000 0.00000000
v 0.5000000 0.3389474 0.6904800
vn 0.00000000 -1.00000000 0.00000000
f 139/139/139 140/140/140 141/141/141
v -0.3272436 0.3389474 0.5604800
vn 0.00000000 -1.00000000 0.00000000
v 0.5000000 0.3389474 0.6904800
vn 0.00000000 -1.00000000 0.00000000
v -0.3272436 0.3389474 0.6904800
vn 0.00000000 -1.00000000 0.00000000
f 142/142/142 143/143/143 144/144/144
v 0.5000000 0.3794737 0.5604800
vn 0.00000000 1.00000000 0.00000000
v -0.3272436 0.3794737 0.5604800
vn 0.00000000 1.00000000 0.00000000
v -0.3272436 0.3794737 0.6904800
vn 0.00000000 1.00000000 0.00000000
f 145/145/145 146/146/146 147/147/147
v 0.5000000 0.3794737 0.5604800
vn 0.00000000 1.00000000 -0.00000000
v -0.3272436 0.3794737 0.6904800
vn 0.00000000 1.00000000 -0.00000000
v 0.5000000 0.3794737 0.6904800
vn 0.00000000 1.00000000 -0.00000000
f 148/148/148 149/149/149 150/150/150
v -0.3272436 0.3794737 0.5604800
vn -1.00000000 0.00000000 0.00000000
v -0.3272436 0.3389474 0.5604800
vn -1.00000000 0.00000000 0.00000000
v -0.3272436 0.3389474 0.6904800
vn -1.00000000 0.00000000 0.00000000
f 151/151/151 152/152/152 153/153/153
v -0.3272436 0.3794737 0.5604800
vn -1.00000000 0.00000000 0.00000000
v -0.3272436 0.3389474 0.6904800
vn -1.00000000 0.00000000 0.00000000
v -0.3272436 0.3794737 0.6904800
vn -1.00000000 0.00000000 0.00000000
f 154/154/154 155/155/155 156/156/156
v -0.3272436 0.3389474 0.6904800
vn 0.00000000 0.00000000 1.00000000
v 0.5000000 0.3389474 0.6904800
vn 0.00000000 0.00000000 1.00000000
v 0.5000000 0.3794737 0.6904800
vn 0.00000000 0.00000000 1.00000000
f 157/157/157 158/158/158 159/159/159
v -0.3272436 0.3389474 0.6904800
vn 0.00000000 0.00000000 1.00000000
v 0.5000000 0.3794737 0.6904800
vn 0.00000000 0.00000000 1.00000000
v -0.3272436 0.3794737 0.6904800
vn 0.00000000 0.00000000 1.00000000
f 160/160/160 161/161/161 162/162/162
