# Physical vanilla furniture; Z up; per-tile mesh.
# Tile-local game axes; ObjReader performs the scene conversion.
mtllib ../Materials/pz_table_tables_high_02_long_dark_oak_1_0.mtl
usemtl UV_Base
v -0.5000000 0.4750000 0.6904800
vn 0.00000000 0.00000000 -1.00000000
v 0.5000000 0.4750000 0.6904800
vn 0.00000000 0.00000000 -1.00000000
v 0.5000000 -0.4750000 0.6904800
vn 0.00000000 0.00000000 -1.00000000
vt 0.007812500 0.007812500
vt 0.492187500 0.007812500
vt 0.492187500 0.467968750
vt 0.007812500 0.007812500
vt 0.492187500 0.467968750
vt 0.007812500 0.467968750
vt 0.007812500 0.648437500
vt 0.492187500 0.648437500
vt 0.492187500 0.684765625
vt 0.007812500 0.648437500
vt 0.492187500 0.684765625
vt 0.007812500 0.684765625
vt 0.992187500 0.684765625
vt 0.507812500 0.684765625
vt 0.507812500 0.648437500
vt 0.992187500 0.684765625
vt 0.507812500 0.648437500
vt 0.992187500 0.648437500
vt 0.507812500 0.007812500
vt 0.992187500 0.007812500
vt 0.992187500 0.467968750
vt 0.507812500 0.007812500
vt 0.992187500 0.467968750
vt 0.507812500 0.467968750
vt 0.007812500 0.703125000
vt 0.492187500 0.703125000
vt 0.492187500 0.724437500
vt 0.007812500 0.703125000
vt 0.492187500 0.724437500
vt 0.007812500 0.724437500
vt 0.007812500 0.484375000
vt 0.492187500 0.484375000
vt 0.492187500 0.547343750
vt 0.007812500 0.484375000
vt 0.492187500 0.547343750
vt 0.007812500 0.547343750
vt 0.992187500 0.547343750
vt 0.507812500 0.547343750
vt 0.507812500 0.484375000
vt 0.992187500 0.547343750
vt 0.507812500 0.484375000
vt 0.992187500 0.484375000
vt 0.507812500 0.703125000
vt 0.992187500 0.703125000
vt 0.992187500 0.724437500
vt 0.507812500 0.703125000
vt 0.992187500 0.724437500
vt 0.507812500 0.724437500
vt 0.007812500 0.742187500
vt 0.492187500 0.742187500
vt 0.492187500 0.763500000
vt 0.007812500 0.742187500
vt 0.492187500 0.763500000
vt 0.007812500 0.763500000
vt 0.007812500 0.566406250
vt 0.492187500 0.566406250
vt 0.492187500 0.629375000
vt 0.007812500 0.566406250
vt 0.492187500 0.629375000
vt 0.007812500 0.629375000
vt 0.992187500 0.629375000
vt 0.507812500 0.629375000
vt 0.507812500 0.566406250
vt 0.992187500 0.629375000
vt 0.507812500 0.566406250
vt 0.992187500 0.566406250
vt 0.507812500 0.742187500
vt 0.992187500 0.742187500
vt 0.992187500 0.763500000
vt 0.507812500 0.742187500
vt 0.992187500 0.763500000
vt 0.507812500 0.763500000
f 1/1/1 2/2/2 3/3/3
v -0.5000000 0.4750000 0.6904800
vn 0.00000000 0.00000000 -1.00000000
v 0.5000000 -0.4750000 0.6904800
vn 0.00000000 0.00000000 -1.00000000
v -0.5000000 -0.4750000 0.6904800
vn 0.00000000 0.00000000 -1.00000000
f 4/4/4 5/5/5 6/6/6
v -0.5000000 -0.4750000 0.6904800
vn 0.00000000 -1.00000000 0.00000000
v 0.5000000 -0.4750000 0.6904800
vn 0.00000000 -1.00000000 0.00000000
v 0.5000000 -0.4750000 0.7654800
vn 0.00000000 -1.00000000 0.00000000
f 7/7/7 8/8/8 9/9/9
v -0.5000000 -0.4750000 0.6904800
vn 0.00000000 -1.00000000 0.00000000
v 0.5000000 -0.4750000 0.7654800
vn 0.00000000 -1.00000000 0.00000000
v -0.5000000 -0.4750000 0.7654800
vn 0.00000000 -1.00000000 0.00000000
f 10/10/10 11/11/11 12/12/12
v 0.5000000 0.4750000 0.6904800
vn 0.00000000 1.00000000 0.00000000
v -0.5000000 0.4750000 0.6904800
vn 0.00000000 1.00000000 0.00000000
v -0.5000000 0.4750000 0.7654800
vn 0.00000000 1.00000000 0.00000000
f 13/13/13 14/14/14 15/15/15
v 0.5000000 0.4750000 0.6904800
vn 0.00000000 1.00000000 -0.00000000
v -0.5000000 0.4750000 0.7654800
vn 0.00000000 1.00000000 -0.00000000
v 0.5000000 0.4750000 0.7654800
vn 0.00000000 1.00000000 -0.00000000
f 16/16/16 17/17/17 18/18/18
v -0.5000000 -0.4750000 0.7654800
vn 0.00000000 0.00000000 1.00000000
v 0.5000000 -0.4750000 0.7654800
vn 0.00000000 0.00000000 1.00000000
v 0.5000000 0.4750000 0.7654800
vn 0.00000000 0.00000000 1.00000000
f 19/19/19 20/20/20 21/21/21
v -0.5000000 -0.4750000 0.7654800
vn 0.00000000 0.00000000 1.00000000
v 0.5000000 0.4750000 0.7654800
vn 0.00000000 0.00000000 1.00000000
v -0.5000000 0.4750000 0.7654800
vn 0.00000000 0.00000000 1.00000000
f 22/22/22 23/23/23 24/24/24
v -0.5000000 -0.3680000 0.5604800
vn 0.00000000 0.00000000 -1.00000000
v 0.5000000 -0.3680000 0.5604800
vn 0.00000000 0.00000000 -1.00000000
v 0.5000000 -0.4120000 0.5604800
vn 0.00000000 0.00000000 -1.00000000
f 25/25/25 26/26/26 27/27/27
v -0.5000000 -0.3680000 0.5604800
vn 0.00000000 -0.00000000 -1.00000000
v 0.5000000 -0.4120000 0.5604800
vn 0.00000000 -0.00000000 -1.00000000
v -0.5000000 -0.4120000 0.5604800
vn 0.00000000 -0.00000000 -1.00000000
f 28/28/28 29/29/29 30/30/30
v -0.5000000 -0.4120000 0.5604800
vn 0.00000000 -1.00000000 0.00000000
v 0.5000000 -0.4120000 0.5604800
vn 0.00000000 -1.00000000 0.00000000
v 0.5000000 -0.4120000 0.6904800
vn 0.00000000 -1.00000000 0.00000000
f 31/31/31 32/32/32 33/33/33
v -0.5000000 -0.4120000 0.5604800
vn 0.00000000 -1.00000000 0.00000000
v 0.5000000 -0.4120000 0.6904800
vn 0.00000000 -1.00000000 0.00000000
v -0.5000000 -0.4120000 0.6904800
vn 0.00000000 -1.00000000 0.00000000
f 34/34/34 35/35/35 36/36/36
v 0.5000000 -0.3680000 0.5604800
vn 0.00000000 1.00000000 0.00000000
v -0.5000000 -0.3680000 0.5604800
vn 0.00000000 1.00000000 0.00000000
v -0.5000000 -0.3680000 0.6904800
vn 0.00000000 1.00000000 0.00000000
f 37/37/37 38/38/38 39/39/39
v 0.5000000 -0.3680000 0.5604800
vn 0.00000000 1.00000000 0.00000000
v -0.5000000 -0.3680000 0.6904800
vn 0.00000000 1.00000000 0.00000000
v 0.5000000 -0.3680000 0.6904800
vn 0.00000000 1.00000000 0.00000000
f 40/40/40 41/41/41 42/42/42
v -0.5000000 -0.4120000 0.6904800
vn 0.00000000 0.00000000 1.00000000
v 0.5000000 -0.4120000 0.6904800
vn 0.00000000 0.00000000 1.00000000
v 0.5000000 -0.3680000 0.6904800
vn 0.00000000 0.00000000 1.00000000
f 43/43/43 44/44/44 45/45/45
v -0.5000000 -0.4120000 0.6904800
vn 0.00000000 -0.00000000 1.00000000
v 0.5000000 -0.3680000 0.6904800
vn 0.00000000 -0.00000000 1.00000000
v -0.5000000 -0.3680000 0.6904800
vn 0.00000000 -0.00000000 1.00000000
f 46/46/46 47/47/47 48/48/48
v -0.5000000 0.4120000 0.5604800
vn 0.00000000 0.00000000 -1.00000000
v 0.5000000 0.4120000 0.5604800
vn 0.00000000 0.00000000 -1.00000000
v 0.5000000 0.3680000 0.5604800
vn 0.00000000 0.00000000 -1.00000000
f 49/49/49 50/50/50 51/51/51
v -0.5000000 0.4120000 0.5604800
vn 0.00000000 -0.00000000 -1.00000000
v 0.5000000 0.3680000 0.5604800
vn 0.00000000 -0.00000000 -1.00000000
v -0.5000000 0.3680000 0.5604800
vn 0.00000000 -0.00000000 -1.00000000
f 52/52/52 53/53/53 54/54/54
v -0.5000000 0.3680000 0.5604800
vn 0.00000000 -1.00000000 0.00000000
v 0.5000000 0.3680000 0.5604800
vn 0.00000000 -1.00000000 0.00000000
v 0.5000000 0.3680000 0.6904800
vn 0.00000000 -1.00000000 0.00000000
f 55/55/55 56/56/56 57/57/57
v -0.5000000 0.3680000 0.5604800
vn 0.00000000 -1.00000000 0.00000000
v 0.5000000 0.3680000 0.6904800
vn 0.00000000 -1.00000000 0.00000000
v -0.5000000 0.3680000 0.6904800
vn 0.00000000 -1.00000000 0.00000000
f 58/58/58 59/59/59 60/60/60
v 0.5000000 0.4120000 0.5604800
vn 0.00000000 1.00000000 0.00000000
v -0.5000000 0.4120000 0.5604800
vn 0.00000000 1.00000000 0.00000000
v -0.5000000 0.4120000 0.6904800
vn 0.00000000 1.00000000 0.00000000
f 61/61/61 62/62/62 63/63/63
v 0.5000000 0.4120000 0.5604800
vn 0.00000000 1.00000000 0.00000000
v -0.5000000 0.4120000 0.6904800
vn 0.00000000 1.00000000 0.00000000
v 0.5000000 0.4120000 0.6904800
vn 0.00000000 1.00000000 0.00000000
f 64/64/64 65/65/65 66/66/66
v -0.5000000 0.3680000 0.6904800
vn 0.00000000 0.00000000 1.00000000
v 0.5000000 0.3680000 0.6904800
vn 0.00000000 0.00000000 1.00000000
v 0.5000000 0.4120000 0.6904800
vn 0.00000000 0.00000000 1.00000000
f 67/67/67 68/68/68 69/69/69
v -0.5000000 0.3680000 0.6904800
vn 0.00000000 -0.00000000 1.00000000
v 0.5000000 0.4120000 0.6904800
vn 0.00000000 -0.00000000 1.00000000
v -0.5000000 0.4120000 0.6904800
vn 0.00000000 -0.00000000 1.00000000
f 70/70/70 71/71/71 72/72/72
