# G014 geometry handoff; centered placeholder UV pending texture mapping
mtllib ../Materials/pz_wall_outlet_single.mtl
o pz_wall_outlet_single
v -0.037500 -0.020000 0.000000
v -0.037500 0.008000 0.000000
v 0.037500 0.008000 0.000000
v -0.037500 -0.020000 0.000000
v 0.037500 0.008000 0.000000
v 0.037500 -0.020000 0.000000
v -0.037500 -0.020000 0.115000
v 0.037500 -0.020000 0.115000
v 0.037500 0.008000 0.115000
v -0.037500 -0.020000 0.115000
v 0.037500 0.008000 0.115000
v -0.037500 0.008000 0.115000
v -0.037500 -0.020000 0.000000
v 0.037500 -0.020000 0.000000
v 0.037500 -0.020000 0.115000
v -0.037500 -0.020000 0.000000
v 0.037500 -0.020000 0.115000
v -0.037500 -0.020000 0.115000
v 0.037500 -0.020000 0.000000
v 0.037500 0.008000 0.000000
v 0.037500 0.008000 0.115000
v 0.037500 -0.020000 0.000000
v 0.037500 0.008000 0.115000
v 0.037500 -0.020000 0.115000
v 0.037500 0.008000 0.000000
v -0.037500 0.008000 0.000000
v -0.037500 0.008000 0.115000
v 0.037500 0.008000 0.000000
v -0.037500 0.008000 0.115000
v 0.037500 0.008000 0.115000
v -0.037500 0.008000 0.000000
v -0.037500 -0.020000 0.000000
v -0.037500 -0.020000 0.115000
v -0.037500 0.008000 0.000000
v -0.037500 -0.020000 0.115000
v -0.037500 0.008000 0.115000
v -0.017000 -0.021000 0.045500
v -0.014000 -0.021000 0.030500
v -0.009000 -0.021000 0.028500
v -0.017000 -0.021000 0.045500
v -0.009000 -0.021000 0.028500
v -0.008000 -0.021000 0.044500
v -0.008000 -0.020000 0.044500
v -0.009000 -0.020000 0.028500
v -0.014000 -0.020000 0.030500
v -0.008000 -0.020000 0.044500
v -0.014000 -0.020000 0.030500
v -0.017000 -0.020000 0.045500
v -0.017000 -0.021000 0.045500
v -0.017000 -0.020000 0.045500
v -0.014000 -0.020000 0.030500
v -0.017000 -0.021000 0.045500
v -0.014000 -0.020000 0.030500
v -0.014000 -0.021000 0.030500
v -0.014000 -0.021000 0.030500
v -0.014000 -0.020000 0.030500
v -0.009000 -0.020000 0.028500
v -0.014000 -0.021000 0.030500
v -0.009000 -0.020000 0.028500
v -0.009000 -0.021000 0.028500
v -0.009000 -0.021000 0.028500
v -0.009000 -0.020000 0.028500
v -0.008000 -0.020000 0.044500
v -0.009000 -0.021000 0.028500
v -0.008000 -0.020000 0.044500
v -0.008000 -0.021000 0.044500
v -0.008000 -0.021000 0.044500
v -0.008000 -0.020000 0.044500
v -0.017000 -0.020000 0.045500
v -0.008000 -0.021000 0.044500
v -0.017000 -0.020000 0.045500
v -0.017000 -0.021000 0.045500
v 0.017000 -0.021000 0.045500
v 0.008000 -0.021000 0.044500
v 0.009000 -0.021000 0.028500
v 0.017000 -0.021000 0.045500
v 0.009000 -0.021000 0.028500
v 0.014000 -0.021000 0.030500
v 0.008000 -0.020000 0.044500
v 0.017000 -0.020000 0.045500
v 0.014000 -0.020000 0.030500
v 0.008000 -0.020000 0.044500
v 0.014000 -0.020000 0.030500
v 0.009000 -0.020000 0.028500
v 0.017000 -0.021000 0.045500
v 0.014000 -0.021000 0.030500
v 0.014000 -0.020000 0.030500
v 0.017000 -0.021000 0.045500
v 0.014000 -0.020000 0.030500
v 0.017000 -0.020000 0.045500
v 0.014000 -0.021000 0.030500
v 0.009000 -0.021000 0.028500
v 0.009000 -0.020000 0.028500
v 0.014000 -0.021000 0.030500
v 0.009000 -0.020000 0.028500
v 0.014000 -0.020000 0.030500
v 0.009000 -0.021000 0.028500
v 0.008000 -0.021000 0.044500
v 0.008000 -0.020000 0.044500
v 0.009000 -0.021000 0.028500
v 0.008000 -0.020000 0.044500
v 0.009000 -0.020000 0.028500
v 0.008000 -0.021000 0.044500
v 0.017000 -0.021000 0.045500
v 0.017000 -0.020000 0.045500
v 0.008000 -0.021000 0.044500
v 0.017000 -0.020000 0.045500
v 0.008000 -0.020000 0.044500
v 0.000000 -0.021000 0.020500
v 0.004000 -0.021000 0.020500
v 0.002000 -0.021000 0.023964
v 0.000000 -0.021000 0.020500
v 0.002000 -0.021000 0.023964
v -0.002000 -0.021000 0.023964
v 0.000000 -0.021000 0.020500
v -0.002000 -0.021000 0.023964
v -0.004000 -0.021000 0.020500
v 0.000000 -0.021000 0.020500
v -0.004000 -0.021000 0.020500
v -0.002000 -0.021000 0.017036
v 0.000000 -0.021000 0.020500
v -0.002000 -0.021000 0.017036
v 0.002000 -0.021000 0.017036
v 0.000000 -0.021000 0.020500
v 0.002000 -0.021000 0.017036
v 0.004000 -0.021000 0.020500
vn 0.000000 0.000000 -1.000000
vn 0.000000 0.000000 -1.000000
vn 0.000000 0.000000 -1.000000
vn 0.000000 0.000000 -1.000000
vn 0.000000 0.000000 -1.000000
vn 0.000000 0.000000 -1.000000
vn 0.000000 0.000000 1.000000
vn 0.000000 0.000000 1.000000
vn 0.000000 0.000000 1.000000
vn 0.000000 0.000000 1.000000
vn 0.000000 0.000000 1.000000
vn 0.000000 0.000000 1.000000
vn 0.000000 -1.000000 0.000000
vn 0.000000 -1.000000 0.000000
vn 0.000000 -1.000000 0.000000
vn 0.000000 -1.000000 0.000000
vn 0.000000 -1.000000 0.000000
vn 0.000000 -1.000000 0.000000
vn 1.000000 0.000000 0.000000
vn 1.000000 0.000000 0.000000
vn 1.000000 0.000000 0.000000
vn 1.000000 0.000000 0.000000
vn 1.000000 0.000000 0.000000
vn 1.000000 0.000000 0.000000
vn 0.000000 1.000000 0.000000
vn 0.000000 1.000000 0.000000
vn 0.000000 1.000000 0.000000
vn 0.000000 1.000000 -0.000000
vn 0.000000 1.000000 -0.000000
vn 0.000000 1.000000 -0.000000
vn -1.000000 0.000000 0.000000
vn -1.000000 0.000000 0.000000
vn -1.000000 0.000000 0.000000
vn -1.000000 0.000000 0.000000
vn -1.000000 0.000000 0.000000
vn -1.000000 0.000000 0.000000
vn 0.000000 -1.000000 0.000000
vn 0.000000 -1.000000 0.000000
vn 0.000000 -1.000000 0.000000
vn 0.000000 -1.000000 0.000000
vn 0.000000 -1.000000 0.000000
vn 0.000000 -1.000000 0.000000
vn 0.000000 1.000000 0.000000
vn 0.000000 1.000000 0.000000
vn 0.000000 1.000000 0.000000
vn 0.000000 1.000000 0.000000
vn 0.000000 1.000000 0.000000
vn 0.000000 1.000000 0.000000
vn -0.980581 0.000000 -0.196116
vn -0.980581 0.000000 -0.196116
vn -0.980581 0.000000 -0.196116
vn -0.980581 0.000000 -0.196116
vn -0.980581 0.000000 -0.196116
vn -0.980581 0.000000 -0.196116
vn -0.371391 0.000000 -0.928477
vn -0.371391 0.000000 -0.928477
vn -0.371391 0.000000 -0.928477
vn -0.371391 0.000000 -0.928477
vn -0.371391 0.000000 -0.928477
vn -0.371391 0.000000 -0.928477
vn 0.998053 0.000000 -0.062378
vn 0.998053 0.000000 -0.062378
vn 0.998053 0.000000 -0.062378
vn 0.998053 0.000000 -0.062378
vn 0.998053 0.000000 -0.062378
vn 0.998053 0.000000 -0.062378
vn 0.110431 -0.000000 0.993884
vn 0.110431 -0.000000 0.993884
vn 0.110431 -0.000000 0.993884
vn 0.110431 0.000000 0.993884
vn 0.110431 0.000000 0.993884
vn 0.110431 0.000000 0.993884
vn 0.000000 -1.000000 0.000000
vn 0.000000 -1.000000 0.000000
vn 0.000000 -1.000000 0.000000
vn 0.000000 -1.000000 0.000000
vn 0.000000 -1.000000 0.000000
vn 0.000000 -1.000000 0.000000
vn -0.000000 1.000000 0.000000
vn -0.000000 1.000000 0.000000
vn -0.000000 1.000000 0.000000
vn 0.000000 1.000000 0.000000
vn 0.000000 1.000000 0.000000
vn 0.000000 1.000000 0.000000
vn 0.980581 0.000000 -0.196116
vn 0.980581 0.000000 -0.196116
vn 0.980581 0.000000 -0.196116
vn 0.980581 0.000000 -0.196116
vn 0.980581 0.000000 -0.196116
vn 0.980581 0.000000 -0.196116
vn 0.371391 0.000000 -0.928477
vn 0.371391 0.000000 -0.928477
vn 0.371391 0.000000 -0.928477
vn 0.371391 0.000000 -0.928477
vn 0.371391 0.000000 -0.928477
vn 0.371391 0.000000 -0.928477
vn -0.998053 0.000000 -0.062378
vn -0.998053 0.000000 -0.062378
vn -0.998053 0.000000 -0.062378
vn -0.998053 0.000000 -0.062378
vn -0.998053 0.000000 -0.062378
vn -0.998053 0.000000 -0.062378
vn -0.110431 0.000000 0.993884
vn -0.110431 0.000000 0.993884
vn -0.110431 0.000000 0.993884
vn -0.110431 0.000000 0.993884
vn -0.110431 0.000000 0.993884
vn -0.110431 0.000000 0.993884
vn 0.000000 -1.000000 0.000000
vn 0.000000 -1.000000 0.000000
vn 0.000000 -1.000000 0.000000
vn 0.000000 -1.000000 0.000000
vn 0.000000 -1.000000 0.000000
vn 0.000000 -1.000000 0.000000
vn 0.000000 -1.000000 0.000000
vn 0.000000 -1.000000 0.000000
vn 0.000000 -1.000000 0.000000
vn -0.000000 -1.000000 0.000000
vn -0.000000 -1.000000 0.000000
vn -0.000000 -1.000000 0.000000
vn 0.000000 -1.000000 -0.000000
vn 0.000000 -1.000000 -0.000000
vn 0.000000 -1.000000 -0.000000
vn 0.000000 -1.000000 0.000000
vn 0.000000 -1.000000 0.000000
vn 0.000000 -1.000000 0.000000
usemtl UV_Base
vt 0.546875000 0.845624443
vt 0.546875000 0.718750000
vt 0.886717257 0.718750000
vt 0.546875000 0.845624443
vt 0.886717257 0.718750000
vt 0.886717257 0.845624443
vt 0.546875000 0.863281250
vt 0.886717257 0.863281250
vt 0.886717257 0.990155693
vt 0.546875000 0.863281250
vt 0.886717257 0.990155693
vt 0.546875000 0.990155693
vt 0.531250000 0.007812500
vt 0.531250000 0.347654757
vt 0.010158539 0.347654757
vt 0.531250000 0.007812500
vt 0.010158539 0.347654757
vt 0.010158539 0.007812500
vt 0.531250000 0.718750000
vt 0.531250000 0.845624443
vt 0.010158539 0.845624443
vt 0.531250000 0.718750000
vt 0.010158539 0.845624443
vt 0.010158539 0.718750000
vt 0.010158539 0.703123507
vt 0.010158539 0.363281250
vt 0.531250000 0.363281250
vt 0.010158539 0.703123507
vt 0.531250000 0.363281250
vt 0.531250000 0.703123507
vt 0.010158539 0.990155693
vt 0.010158539 0.863281250
vt 0.531250000 0.863281250
vt 0.010158539 0.990155693
vt 0.531250000 0.863281250
vt 0.531250000 0.990155693
vt 0.902343750 0.795780912
vt 0.915937440 0.727812460
vt 0.938593591 0.718750000
vt 0.902343750 0.795780912
vt 0.938593591 0.718750000
vt 0.943124821 0.791249682
vt 0.943124821 0.867812480
vt 0.938593591 0.940312162
vt 0.915937440 0.931249701
vt 0.943124821 0.867812480
vt 0.915937440 0.931249701
vt 0.902343750 0.863281250
vt 0.960937500 0.863281250
vt 0.965468730 0.863281250
vt 0.965468730 0.932595742
vt 0.960937500 0.863281250
vt 0.965468730 0.932595742
vt 0.960937500 0.932595742
vt 0.761718750 0.007812500
vt 0.766249980 0.007812500
vt 0.766249980 0.032213921
vt 0.761718750 0.007812500
vt 0.766249980 0.032213921
vt 0.761718750 0.032213921
vt 0.960937500 0.718750000
vt 0.965468730 0.718750000
vt 0.965468730 0.791391144
vt 0.960937500 0.718750000
vt 0.965468730 0.791391144
vt 0.960937500 0.791391144
vt 0.664062500 0.007812500
vt 0.668593730 0.007812500
vt 0.668593730 0.048844534
vt 0.664062500 0.007812500
vt 0.668593730 0.048844534
vt 0.664062500 0.048844534
vt 0.587656071 0.084843412
vt 0.546875000 0.080312182
vt 0.551406230 0.007812500
vt 0.587656071 0.084843412
vt 0.551406230 0.007812500
vt 0.574062381 0.016874960
vt 0.605468750 0.012343730
vt 0.646249821 0.007812500
vt 0.632656131 0.075780951
vt 0.605468750 0.012343730
vt 0.632656131 0.075780951
vt 0.609999980 0.084843412
vt 0.984375000 0.932595742
vt 0.984375000 0.863281250
vt 0.988906230 0.863281250
vt 0.984375000 0.932595742
vt 0.988906230 0.863281250
vt 0.988906230 0.932595742
vt 0.785156250 0.032213921
vt 0.785156250 0.007812500
vt 0.789687480 0.007812500
vt 0.785156250 0.032213921
vt 0.789687480 0.007812500
vt 0.789687480 0.032213921
vt 0.984375000 0.791391144
vt 0.984375000 0.718750000
vt 0.988906230 0.718750000
vt 0.984375000 0.791391144
vt 0.988906230 0.718750000
vt 0.988906230 0.791391144
vt 0.687500000 0.048844534
vt 0.687500000 0.007812500
vt 0.692031230 0.007812500
vt 0.687500000 0.048844534
vt 0.692031230 0.007812500
vt 0.692031230 0.048844534
vt 0.730397569 0.025937420
vt 0.730397569 0.044062341
vt 0.714701388 0.034999881
vt 0.730397569 0.025937420
vt 0.714701388 0.034999881
vt 0.714701388 0.016874960
vt 0.730397569 0.025937420
vt 0.714701388 0.016874960
vt 0.730397569 0.007812500
vt 0.730397569 0.025937420
vt 0.730397569 0.007812500
vt 0.746093750 0.016874960
vt 0.730397569 0.025937420
vt 0.746093750 0.016874960
vt 0.746093750 0.034999881
vt 0.730397569 0.025937420
vt 0.746093750 0.034999881
vt 0.730397569 0.044062341
f 1/1/1 2/2/2 3/3/3
usemtl UV_Base
f 4/4/4 5/5/5 6/6/6
usemtl UV_Base
f 7/7/7 8/8/8 9/9/9
usemtl UV_Base
f 10/10/10 11/11/11 12/12/12
usemtl UV_Base
f 13/13/13 14/14/14 15/15/15
usemtl UV_Base
f 16/16/16 17/17/17 18/18/18
usemtl UV_Base
f 19/19/19 20/20/20 21/21/21
usemtl UV_Base
f 22/22/22 23/23/23 24/24/24
usemtl UV_Base
f 25/25/25 26/26/26 27/27/27
usemtl UV_Base
f 28/28/28 29/29/29 30/30/30
usemtl UV_Base
f 31/31/31 32/32/32 33/33/33
usemtl UV_Base
f 34/34/34 35/35/35 36/36/36
usemtl UV_Base
f 37/37/37 38/38/38 39/39/39
usemtl UV_Base
f 40/40/40 41/41/41 42/42/42
usemtl UV_Base
f 43/43/43 44/44/44 45/45/45
usemtl UV_Base
f 46/46/46 47/47/47 48/48/48
usemtl UV_Base
f 49/49/49 50/50/50 51/51/51
usemtl UV_Base
f 52/52/52 53/53/53 54/54/54
usemtl UV_Base
f 55/55/55 56/56/56 57/57/57
usemtl UV_Base
f 58/58/58 59/59/59 60/60/60
usemtl UV_Base
f 61/61/61 62/62/62 63/63/63
usemtl UV_Base
f 64/64/64 65/65/65 66/66/66
usemtl UV_Base
f 67/67/67 68/68/68 69/69/69
usemtl UV_Base
f 70/70/70 71/71/71 72/72/72
usemtl UV_Base
f 73/73/73 74/74/74 75/75/75
usemtl UV_Base
f 76/76/76 77/77/77 78/78/78
usemtl UV_Base
f 79/79/79 80/80/80 81/81/81
usemtl UV_Base
f 82/82/82 83/83/83 84/84/84
usemtl UV_Base
f 85/85/85 86/86/86 87/87/87
usemtl UV_Base
f 88/88/88 89/89/89 90/90/90
usemtl UV_Base
f 91/91/91 92/92/92 93/93/93
usemtl UV_Base
f 94/94/94 95/95/95 96/96/96
usemtl UV_Base
f 97/97/97 98/98/98 99/99/99
usemtl UV_Base
f 100/100/100 101/101/101 102/102/102
usemtl UV_Base
f 103/103/103 104/104/104 105/105/105
usemtl UV_Base
f 106/106/106 107/107/107 108/108/108
usemtl UV_Base
f 109/109/109 110/110/110 111/111/111
usemtl UV_Base
f 112/112/112 113/113/113 114/114/114
usemtl UV_Base
f 115/115/115 116/116/116 117/117/117
usemtl UV_Base
f 118/118/118 119/119/119 120/120/120
usemtl UV_Base
f 121/121/121 122/122/122 123/123/123
usemtl UV_Base
f 124/124/124 125/125/125 126/126/126
