# Physical vanilla furniture; Z up; per-tile mesh.
# Tile-local game axes; ObjReader performs the scene conversion.
mtllib ../Materials/pz_wardrobe_storage_02_white_1_0.mtl
usemtl UV_Base
v -0.5000000 0.0850000 0.0550000
vn 0.00000000 0.00000000 -1.00000000
v 0.4750000 0.0850000 0.0550000
vn 0.00000000 0.00000000 -1.00000000
v 0.4750000 -0.4700000 0.0550000
vn 0.00000000 0.00000000 -1.00000000
vt 0.007812500 0.859375000
vt 0.234374068 0.859375000
vt 0.234374068 0.988340816
vt 0.007812500 0.859375000
vt 0.234374068 0.988340816
vt 0.007812500 0.988340816
vt 0.433593750 0.007812500
vt 0.433593750 0.234374068
vt 0.008537292 0.234374068
vt 0.433593750 0.007812500
vt 0.008537292 0.234374068
vt 0.008537292 0.007812500
vt 0.433593750 0.250000000
vt 0.433593750 0.378965816
vt 0.008537292 0.378965816
vt 0.433593750 0.250000000
vt 0.008537292 0.378965816
vt 0.008537292 0.250000000
vt 0.449943542 0.234374068
vt 0.449943542 0.007812500
vt 0.875000000 0.007812500
vt 0.449943542 0.234374068
vt 0.875000000 0.007812500
vt 0.875000000 0.234374068
vt 0.250000000 0.859375000
vt 0.476561568 0.859375000
vt 0.476561568 0.988340816
vt 0.250000000 0.859375000
vt 0.476561568 0.988340816
vt 0.250000000 0.988340816
vt 0.507812500 0.660156250
vt 0.739021485 0.660156250
vt 0.739021485 0.803064316
vt 0.507812500 0.660156250
vt 0.739021485 0.803064316
vt 0.507812500 0.803064316
vt 0.007812500 0.824218750
vt 0.239021485 0.824218750
vt 0.239021485 0.841646563
vt 0.007812500 0.824218750
vt 0.239021485 0.841646563
vt 0.007812500 0.841646563
vt 0.949218750 0.398437500
vt 0.949218750 0.541345566
vt 0.931790937 0.541345566
vt 0.949218750 0.398437500
vt 0.931790937 0.541345566
vt 0.931790937 0.398437500
vt 0.489021485 0.841646563
vt 0.257812500 0.841646563
vt 0.257812500 0.824218750
vt 0.489021485 0.841646563
vt 0.257812500 0.824218750
vt 0.489021485 0.824218750
vt 0.757812500 0.660156250
vt 0.989021485 0.660156250
vt 0.989021485 0.803064316
vt 0.757812500 0.660156250
vt 0.989021485 0.803064316
vt 0.757812500 0.803064316
vt 0.007812500 0.660156250
vt 0.239021485 0.660156250
vt 0.239021485 0.805388025
vt 0.007812500 0.660156250
vt 0.239021485 0.805388025
vt 0.007812500 0.805388025
vt 0.507812500 0.824218750
vt 0.739021485 0.824218750
vt 0.739021485 0.836999146
vt 0.507812500 0.824218750
vt 0.739021485 0.836999146
vt 0.507812500 0.836999146
vt 0.914062500 0.398437500
vt 0.914062500 0.543669275
vt 0.901282104 0.543669275
vt 0.914062500 0.398437500
vt 0.901282104 0.543669275
vt 0.901282104 0.398437500
vt 0.989021485 0.836999146
vt 0.757812500 0.836999146
vt 0.757812500 0.824218750
vt 0.989021485 0.836999146
vt 0.757812500 0.824218750
vt 0.989021485 0.824218750
vt 0.257812500 0.660156250
vt 0.489021485 0.660156250
vt 0.489021485 0.805388025
vt 0.257812500 0.660156250
vt 0.489021485 0.805388025
vt 0.257812500 0.805388025
vt 0.844779691 0.398437500
vt 0.855468750 0.398437500
vt 0.855468750 0.614542381
vt 0.844779691 0.398437500
vt 0.855468750 0.614542381
vt 0.844779691 0.614542381
vt 0.410156250 0.398437500
vt 0.410156250 0.614542381
vt 0.009498731 0.614542381
vt 0.410156250 0.398437500
vt 0.009498731 0.614542381
vt 0.009498731 0.398437500
vt 0.851562500 0.250000000
vt 0.851562500 0.260689059
vt 0.450904981 0.260689059
vt 0.851562500 0.250000000
vt 0.450904981 0.260689059
vt 0.450904981 0.250000000
vt 0.427467481 0.614542381
vt 0.427467481 0.398437500
vt 0.828125000 0.398437500
vt 0.427467481 0.614542381
vt 0.828125000 0.398437500
vt 0.828125000 0.614542381
vt 0.009498731 0.643501559
vt 0.009498731 0.632812500
vt 0.410156250 0.632812500
vt 0.009498731 0.643501559
vt 0.410156250 0.632812500
vt 0.410156250 0.643501559
vt 0.882812500 0.398437500
vt 0.882812500 0.614542381
vt 0.872123441 0.614542381
vt 0.882812500 0.398437500
vt 0.872123441 0.614542381
vt 0.872123441 0.398437500
vt 0.632812500 0.875640959
vt 0.632812500 0.859375000
vt 0.649078459 0.859375000
vt 0.632812500 0.875640959
vt 0.649078459 0.859375000
vt 0.649078459 0.875640959
vt 0.867187500 0.250000000
vt 0.883453459 0.250000000
vt 0.883453459 0.275560792
vt 0.867187500 0.250000000
vt 0.883453459 0.275560792
vt 0.867187500 0.275560792
vt 0.902343750 0.250000000
vt 0.918609709 0.250000000
vt 0.918609709 0.275560792
vt 0.902343750 0.250000000
vt 0.918609709 0.275560792
vt 0.902343750 0.275560792
vt 0.953765959 0.275560792
vt 0.937500000 0.275560792
vt 0.937500000 0.250000000
vt 0.953765959 0.275560792
vt 0.937500000 0.250000000
vt 0.953765959 0.250000000
vt 0.988922209 0.275560792
vt 0.972656250 0.275560792
vt 0.972656250 0.250000000
vt 0.988922209 0.275560792
vt 0.972656250 0.250000000
vt 0.988922209 0.250000000
vt 0.667968750 0.859375000
vt 0.684234709 0.859375000
vt 0.684234709 0.875640959
vt 0.667968750 0.859375000
vt 0.684234709 0.875640959
vt 0.667968750 0.875640959
vt 0.703125000 0.875640959
vt 0.703125000 0.859375000
vt 0.719390959 0.859375000
vt 0.703125000 0.875640959
vt 0.719390959 0.859375000
vt 0.719390959 0.875640959
vt 0.492187500 0.859375000
vt 0.508453459 0.859375000
vt 0.508453459 0.884935792
vt 0.492187500 0.859375000
vt 0.508453459 0.884935792
vt 0.492187500 0.884935792
vt 0.527343750 0.859375000
vt 0.543609709 0.859375000
vt 0.543609709 0.884935792
vt 0.527343750 0.859375000
vt 0.543609709 0.884935792
vt 0.527343750 0.884935792
vt 0.578765959 0.884935792
vt 0.562500000 0.884935792
vt 0.562500000 0.859375000
vt 0.578765959 0.884935792
vt 0.562500000 0.859375000
vt 0.578765959 0.859375000
vt 0.613922209 0.884935792
vt 0.597656250 0.884935792
vt 0.597656250 0.859375000
vt 0.613922209 0.884935792
vt 0.597656250 0.859375000
vt 0.613922209 0.859375000
vt 0.738281250 0.859375000
vt 0.754547209 0.859375000
vt 0.754547209 0.875640959
vt 0.738281250 0.859375000
vt 0.754547209 0.875640959
vt 0.738281250 0.875640959
f 1/1/1 2/2/2 3/3/3
v -0.5000000 0.0850000 0.0550000
vn 0.00000000 0.00000000 -1.00000000
v 0.4750000 -0.4700000 0.0550000
vn 0.00000000 0.00000000 -1.00000000
v -0.5000000 -0.4700000 0.0550000
vn 0.00000000 0.00000000 -1.00000000
f 4/4/4 5/5/5 6/6/6
v -0.5000000 -0.4700000 0.0550000
vn 0.00000000 -1.00000000 0.00000000
v 0.4750000 -0.4700000 0.0550000
vn 0.00000000 -1.00000000 0.00000000
v 0.4750000 -0.4700000 1.8842160
vn 0.00000000 -1.00000000 0.00000000
f 7/7/7 8/8/8 9/9/9
v -0.5000000 -0.4700000 0.0550000
vn 0.00000000 -1.00000000 0.00000000
v 0.4750000 -0.4700000 1.8842160
vn 0.00000000 -1.00000000 0.00000000
v -0.5000000 -0.4700000 1.8842160
vn 0.00000000 -1.00000000 0.00000000
f 10/10/10 11/11/11 12/12/12
v 0.4750000 -0.4700000 0.0550000
vn 1.00000000 0.00000000 0.00000000
v 0.4750000 0.0850000 0.0550000
vn 1.00000000 0.00000000 0.00000000
v 0.4750000 0.0850000 1.8842160
vn 1.00000000 0.00000000 0.00000000
f 13/13/13 14/14/14 15/15/15
v 0.4750000 -0.4700000 0.0550000
vn 1.00000000 0.00000000 0.00000000
v 0.4750000 0.0850000 1.8842160
vn 1.00000000 0.00000000 0.00000000
v 0.4750000 -0.4700000 1.8842160
vn 1.00000000 0.00000000 0.00000000
f 16/16/16 17/17/17 18/18/18
v 0.4750000 0.0850000 0.0550000
vn 0.00000000 1.00000000 0.00000000
v -0.5000000 0.0850000 0.0550000
vn 0.00000000 1.00000000 0.00000000
v -0.5000000 0.0850000 1.8842160
vn 0.00000000 1.00000000 0.00000000
f 19/19/19 20/20/20 21/21/21
v 0.4750000 0.0850000 0.0550000
vn 0.00000000 1.00000000 -0.00000000
v -0.5000000 0.0850000 1.8842160
vn 0.00000000 1.00000000 -0.00000000
v 0.4750000 0.0850000 1.8842160
vn 0.00000000 1.00000000 -0.00000000
f 22/22/22 23/23/23 24/24/24
v -0.5000000 -0.4700000 1.8842160
vn 0.00000000 0.00000000 1.00000000
v 0.4750000 -0.4700000 1.8842160
vn 0.00000000 0.00000000 1.00000000
v 0.4750000 0.0850000 1.8842160
vn 0.00000000 0.00000000 1.00000000
f 25/25/25 26/26/26 27/27/27
v -0.5000000 -0.4700000 1.8842160
vn 0.00000000 0.00000000 1.00000000
v 0.4750000 0.0850000 1.8842160
vn 0.00000000 0.00000000 1.00000000
v -0.5000000 0.0850000 1.8842160
vn 0.00000000 0.00000000 1.00000000
f 28/28/28 29/29/29 30/30/30
v -0.5000000 0.1250000 0.0250000
vn 0.00000000 0.00000000 -1.00000000
v 0.4950000 0.1250000 0.0250000
vn 0.00000000 0.00000000 -1.00000000
v 0.4950000 -0.4900000 0.0250000
vn 0.00000000 0.00000000 -1.00000000
f 31/31/31 32/32/32 33/33/33
v -0.5000000 0.1250000 0.0250000
vn 0.00000000 0.00000000 -1.00000000
v 0.4950000 -0.4900000 0.0250000
vn 0.00000000 0.00000000 -1.00000000
v -0.5000000 -0.4900000 0.0250000
vn 0.00000000 0.00000000 -1.00000000
f 34/34/34 35/35/35 36/36/36
v -0.5000000 -0.4900000 0.0250000
vn 0.00000000 -1.00000000 0.00000000
v 0.4950000 -0.4900000 0.0250000
vn 0.00000000 -1.00000000 0.00000000
v 0.4950000 -0.4900000 0.1000000
vn 0.00000000 -1.00000000 0.00000000
f 37/37/37 38/38/38 39/39/39
v -0.5000000 -0.4900000 0.0250000
vn 0.00000000 -1.00000000 0.00000000
v 0.4950000 -0.4900000 0.1000000
vn 0.00000000 -1.00000000 0.00000000
v -0.5000000 -0.4900000 0.1000000
vn 0.00000000 -1.00000000 0.00000000
f 40/40/40 41/41/41 42/42/42
v 0.4950000 -0.4900000 0.0250000
vn 1.00000000 0.00000000 0.00000000
v 0.4950000 0.1250000 0.0250000
vn 1.00000000 0.00000000 0.00000000
v 0.4950000 0.1250000 0.1000000
vn 1.00000000 0.00000000 0.00000000
f 43/43/43 44/44/44 45/45/45
v 0.4950000 -0.4900000 0.0250000
vn 1.00000000 0.00000000 0.00000000
v 0.4950000 0.1250000 0.1000000
vn 1.00000000 0.00000000 0.00000000
v 0.4950000 -0.4900000 0.1000000
vn 1.00000000 0.00000000 0.00000000
f 46/46/46 47/47/47 48/48/48
v 0.4950000 0.1250000 0.0250000
vn 0.00000000 1.00000000 0.00000000
v -0.5000000 0.1250000 0.0250000
vn 0.00000000 1.00000000 0.00000000
v -0.5000000 0.1250000 0.1000000
vn 0.00000000 1.00000000 0.00000000
f 49/49/49 50/50/50 51/51/51
v 0.4950000 0.1250000 0.0250000
vn 0.00000000 1.00000000 -0.00000000
v -0.5000000 0.1250000 0.1000000
vn 0.00000000 1.00000000 -0.00000000
v 0.4950000 0.1250000 0.1000000
vn 0.00000000 1.00000000 -0.00000000
f 52/52/52 53/53/53 54/54/54
v -0.5000000 -0.4900000 0.1000000
vn 0.00000000 0.00000000 1.00000000
v 0.4950000 -0.4900000 0.1000000
vn 0.00000000 0.00000000 1.00000000
v 0.4950000 0.1250000 0.1000000
vn 0.00000000 0.00000000 1.00000000
f 55/55/55 56/56/56 57/57/57
v -0.5000000 -0.4900000 0.1000000
vn 0.00000000 0.00000000 1.00000000
v 0.4950000 0.1250000 0.1000000
vn 0.00000000 0.00000000 1.00000000
v -0.5000000 0.1250000 0.1000000
vn 0.00000000 0.00000000 1.00000000
f 58/58/58 59/59/59 60/60/60
v -0.5000000 0.1350000 1.8842160
vn 0.00000000 0.00000000 -1.00000000
v 0.4950000 0.1350000 1.8842160
vn 0.00000000 0.00000000 -1.00000000
v 0.4950000 -0.4900000 1.8842160
vn 0.00000000 0.00000000 -1.00000000
f 61/61/61 62/62/62 63/63/63
v -0.5000000 0.1350000 1.8842160
vn 0.00000000 0.00000000 -1.00000000
v 0.4950000 -0.4900000 1.8842160
vn 0.00000000 0.00000000 -1.00000000
v -0.5000000 -0.4900000 1.8842160
vn 0.00000000 0.00000000 -1.00000000
f 64/64/64 65/65/65 66/66/66
v -0.5000000 -0.4900000 1.8842160
vn 0.00000000 -1.00000000 0.00000000
v 0.4950000 -0.4900000 1.8842160
vn 0.00000000 -1.00000000 0.00000000
v 0.4950000 -0.4900000 1.9392160
vn 0.00000000 -1.00000000 0.00000000
f 67/67/67 68/68/68 69/69/69
v -0.5000000 -0.4900000 1.8842160
vn 0.00000000 -1.00000000 0.00000000
v 0.4950000 -0.4900000 1.9392160
vn 0.00000000 -1.00000000 0.00000000
v -0.5000000 -0.4900000 1.9392160
vn 0.00000000 -1.00000000 0.00000000
f 70/70/70 71/71/71 72/72/72
v 0.4950000 -0.4900000 1.8842160
vn 1.00000000 0.00000000 0.00000000
v 0.4950000 0.1350000 1.8842160
vn 1.00000000 0.00000000 0.00000000
v 0.4950000 0.1350000 1.9392160
vn 1.00000000 0.00000000 0.00000000
f 73/73/73 74/74/74 75/75/75
v 0.4950000 -0.4900000 1.8842160
vn 1.00000000 0.00000000 0.00000000
v 0.4950000 0.1350000 1.9392160
vn 1.00000000 0.00000000 0.00000000
v 0.4950000 -0.4900000 1.9392160
vn 1.00000000 0.00000000 0.00000000
f 76/76/76 77/77/77 78/78/78
v 0.4950000 0.1350000 1.8842160
vn 0.00000000 1.00000000 0.00000000
v -0.5000000 0.1350000 1.8842160
vn 0.00000000 1.00000000 0.00000000
v -0.5000000 0.1350000 1.9392160
vn 0.00000000 1.00000000 0.00000000
f 79/79/79 80/80/80 81/81/81
v 0.4950000 0.1350000 1.8842160
vn 0.00000000 1.00000000 -0.00000000
v -0.5000000 0.1350000 1.9392160
vn 0.00000000 1.00000000 -0.00000000
v 0.4950000 0.1350000 1.9392160
vn 0.00000000 1.00000000 -0.00000000
f 82/82/82 83/83/83 84/84/84
v -0.5000000 -0.4900000 1.9392160
vn 0.00000000 0.00000000 1.00000000
v 0.4950000 -0.4900000 1.9392160
vn 0.00000000 0.00000000 1.00000000
v 0.4950000 0.1350000 1.9392160
vn 0.00000000 0.00000000 1.00000000
f 85/85/85 86/86/86 87/87/87
v -0.5000000 -0.4900000 1.9392160
vn 0.00000000 0.00000000 1.00000000
v 0.4950000 0.1350000 1.9392160
vn 0.00000000 0.00000000 1.00000000
v -0.5000000 0.1350000 1.9392160
vn 0.00000000 0.00000000 1.00000000
f 88/88/88 89/89/89 90/90/90
v -0.4650000 0.0840000 0.1450000
vn 0.00000000 0.00000000 -1.00000000
v -0.4650000 0.1300000 0.1450000
vn 0.00000000 0.00000000 -1.00000000
v 0.4650000 0.1300000 0.1450000
vn 0.00000000 0.00000000 -1.00000000
f 91/91/91 92/92/92 93/93/93
v -0.4650000 0.0840000 0.1450000
vn 0.00000000 0.00000000 -1.00000000
v 0.4650000 0.1300000 0.1450000
vn 0.00000000 0.00000000 -1.00000000
v 0.4650000 0.0840000 0.1450000
vn 0.00000000 0.00000000 -1.00000000
f 94/94/94 95/95/95 96/96/96
v -0.4650000 0.0840000 0.1450000
vn 0.00000000 -1.00000000 0.00000000
v 0.4650000 0.0840000 0.1450000
vn 0.00000000 -1.00000000 0.00000000
v 0.4650000 0.0840000 1.8692160
vn 0.00000000 -1.00000000 0.00000000
f 97/97/97 98/98/98 99/99/99
v -0.4650000 0.0840000 0.1450000
vn 0.00000000 -1.00000000 0.00000000
v 0.4650000 0.0840000 1.8692160
vn 0.00000000 -1.00000000 0.00000000
v -0.4650000 0.0840000 1.8692160
vn 0.00000000 -1.00000000 0.00000000
f 100/100/100 101/101/101 102/102/102
v 0.4650000 0.0840000 0.1450000
vn 1.00000000 0.00000000 0.00000000
v 0.4650000 0.1300000 0.1450000
vn 1.00000000 0.00000000 0.00000000
v 0.4650000 0.1300000 1.8692160
vn 1.00000000 0.00000000 0.00000000
f 103/103/103 104/104/104 105/105/105
v 0.4650000 0.0840000 0.1450000
vn 1.00000000 0.00000000 0.00000000
v 0.4650000 0.1300000 1.8692160
vn 1.00000000 0.00000000 0.00000000
v 0.4650000 0.0840000 1.8692160
vn 1.00000000 0.00000000 0.00000000
f 106/106/106 107/107/107 108/108/108
v 0.4650000 0.1300000 0.1450000
vn 0.00000000 1.00000000 0.00000000
v -0.4650000 0.1300000 0.1450000
vn 0.00000000 1.00000000 0.00000000
v -0.4650000 0.1300000 1.8692160
vn 0.00000000 1.00000000 0.00000000
f 109/109/109 110/110/110 111/111/111
v 0.4650000 0.1300000 0.1450000
vn 0.00000000 1.00000000 -0.00000000
v -0.4650000 0.1300000 1.8692160
vn 0.00000000 1.00000000 -0.00000000
v 0.4650000 0.1300000 1.8692160
vn 0.00000000 1.00000000 -0.00000000
f 112/112/112 113/113/113 114/114/114
v -0.4650000 0.1300000 0.1450000
vn -1.00000000 0.00000000 0.00000000
v -0.4650000 0.0840000 0.1450000
vn -1.00000000 0.00000000 0.00000000
v -0.4650000 0.0840000 1.8692160
vn -1.00000000 0.00000000 0.00000000
f 115/115/115 116/116/116 117/117/117
v -0.4650000 0.1300000 0.1450000
vn -1.00000000 0.00000000 0.00000000
v -0.4650000 0.0840000 1.8692160
vn -1.00000000 0.00000000 0.00000000
v -0.4650000 0.1300000 1.8692160
vn -1.00000000 0.00000000 0.00000000
f 118/118/118 119/119/119 120/120/120
v -0.4650000 0.0840000 1.8692160
vn 0.00000000 0.00000000 1.00000000
v 0.4650000 0.0840000 1.8692160
vn 0.00000000 0.00000000 1.00000000
v 0.4650000 0.1300000 1.8692160
vn 0.00000000 0.00000000 1.00000000
f 121/121/121 122/122/122 123/123/123
v -0.4650000 0.0840000 1.8692160
vn 0.00000000 0.00000000 1.00000000
v 0.4650000 0.1300000 1.8692160
vn 0.00000000 0.00000000 1.00000000
v -0.4650000 0.1300000 1.8692160
vn 0.00000000 0.00000000 1.00000000
f 124/124/124 125/125/125 126/126/126
v 0.3650000 -0.4350000 0.0000000
vn 0.00000000 0.00000000 -1.00000000
v 0.3650000 -0.3650000 0.0000000
vn 0.00000000 0.00000000 -1.00000000
v 0.4350000 -0.3650000 0.0000000
vn 0.00000000 0.00000000 -1.00000000
f 127/127/127 128/128/128 129/129/129
v 0.3650000 -0.4350000 0.0000000
vn 0.00000000 0.00000000 -1.00000000
v 0.4350000 -0.3650000 0.0000000
vn 0.00000000 0.00000000 -1.00000000
v 0.4350000 -0.4350000 0.0000000
vn 0.00000000 0.00000000 -1.00000000
f 130/130/130 131/131/131 132/132/132
v 0.3650000 -0.4350000 0.0000000
vn 0.00000000 -1.00000000 0.00000000
v 0.4350000 -0.4350000 0.0000000
vn 0.00000000 -1.00000000 0.00000000
v 0.4350000 -0.4350000 0.1100000
vn 0.00000000 -1.00000000 0.00000000
f 133/133/133 134/134/134 135/135/135
v 0.3650000 -0.4350000 0.0000000
vn 0.00000000 -1.00000000 0.00000000
v 0.4350000 -0.4350000 0.1100000
vn 0.00000000 -1.00000000 0.00000000
v 0.3650000 -0.4350000 0.1100000
vn 0.00000000 -1.00000000 0.00000000
f 136/136/136 137/137/137 138/138/138
v 0.4350000 -0.4350000 0.0000000
vn 1.00000000 0.00000000 0.00000000
v 0.4350000 -0.3650000 0.0000000
vn 1.00000000 0.00000000 0.00000000
v 0.4350000 -0.3650000 0.1100000
vn 1.00000000 0.00000000 0.00000000
f 139/139/139 140/140/140 141/141/141
v 0.4350000 -0.4350000 0.0000000
vn 1.00000000 0.00000000 0.00000000
v 0.4350000 -0.3650000 0.1100000
vn 1.00000000 0.00000000 0.00000000
v 0.4350000 -0.4350000 0.1100000
vn 1.00000000 0.00000000 0.00000000
f 142/142/142 143/143/143 144/144/144
v 0.4350000 -0.3650000 0.0000000
vn 0.00000000 1.00000000 0.00000000
v 0.3650000 -0.3650000 0.0000000
vn 0.00000000 1.00000000 0.00000000
v 0.3650000 -0.3650000 0.1100000
vn 0.00000000 1.00000000 0.00000000
f 145/145/145 146/146/146 147/147/147
v 0.4350000 -0.3650000 0.0000000
vn 0.00000000 1.00000000 -0.00000000
v 0.3650000 -0.3650000 0.1100000
vn 0.00000000 1.00000000 -0.00000000
v 0.4350000 -0.3650000 0.1100000
vn 0.00000000 1.00000000 -0.00000000
f 148/148/148 149/149/149 150/150/150
v 0.3650000 -0.3650000 0.0000000
vn -1.00000000 0.00000000 0.00000000
v 0.3650000 -0.4350000 0.0000000
vn -1.00000000 0.00000000 0.00000000
v 0.3650000 -0.4350000 0.1100000
vn -1.00000000 0.00000000 0.00000000
f 151/151/151 152/152/152 153/153/153
v 0.3650000 -0.3650000 0.0000000
vn -1.00000000 0.00000000 0.00000000
v 0.3650000 -0.4350000 0.1100000
vn -1.00000000 0.00000000 0.00000000
v 0.3650000 -0.3650000 0.1100000
vn -1.00000000 0.00000000 0.00000000
f 154/154/154 155/155/155 156/156/156
v 0.3650000 -0.4350000 0.1100000
vn 0.00000000 0.00000000 1.00000000
v 0.4350000 -0.4350000 0.1100000
vn 0.00000000 0.00000000 1.00000000
v 0.4350000 -0.3650000 0.1100000
vn 0.00000000 0.00000000 1.00000000
f 157/157/157 158/158/158 159/159/159
v 0.3650000 -0.4350000 0.1100000
vn 0.00000000 0.00000000 1.00000000
v 0.4350000 -0.3650000 0.1100000
vn 0.00000000 0.00000000 1.00000000
v 0.3650000 -0.3650000 0.1100000
vn 0.00000000 0.00000000 1.00000000
f 160/160/160 161/161/161 162/162/162
v 0.3650000 -0.0050000 0.0000000
vn 0.00000000 0.00000000 -1.00000000
v 0.3650000 0.0650000 0.0000000
vn 0.00000000 0.00000000 -1.00000000
v 0.4350000 0.0650000 0.0000000
vn 0.00000000 0.00000000 -1.00000000
f 163/163/163 164/164/164 165/165/165
v 0.3650000 -0.0050000 0.0000000
vn 0.00000000 0.00000000 -1.00000000
v 0.4350000 0.0650000 0.0000000
vn 0.00000000 0.00000000 -1.00000000
v 0.4350000 -0.0050000 0.0000000
vn 0.00000000 0.00000000 -1.00000000
f 166/166/166 167/167/167 168/168/168
v 0.3650000 -0.0050000 0.0000000
vn 0.00000000 -1.00000000 0.00000000
v 0.4350000 -0.0050000 0.0000000
vn 0.00000000 -1.00000000 0.00000000
v 0.4350000 -0.0050000 0.1100000
vn 0.00000000 -1.00000000 0.00000000
f 169/169/169 170/170/170 171/171/171
v 0.3650000 -0.0050000 0.0000000
vn 0.00000000 -1.00000000 0.00000000
v 0.4350000 -0.0050000 0.1100000
vn 0.00000000 -1.00000000 0.00000000
v 0.3650000 -0.0050000 0.1100000
vn 0.00000000 -1.00000000 0.00000000
f 172/172/172 173/173/173 174/174/174
v 0.4350000 -0.0050000 0.0000000
vn 1.00000000 0.00000000 0.00000000
v 0.4350000 0.0650000 0.0000000
vn 1.00000000 0.00000000 0.00000000
v 0.4350000 0.0650000 0.1100000
vn 1.00000000 0.00000000 0.00000000
f 175/175/175 176/176/176 177/177/177
v 0.4350000 -0.0050000 0.0000000
vn 1.00000000 0.00000000 0.00000000
v 0.4350000 0.0650000 0.1100000
vn 1.00000000 0.00000000 0.00000000
v 0.4350000 -0.0050000 0.1100000
vn 1.00000000 0.00000000 0.00000000
f 178/178/178 179/179/179 180/180/180
v 0.4350000 0.0650000 0.0000000
vn 0.00000000 1.00000000 0.00000000
v 0.3650000 0.0650000 0.0000000
vn 0.00000000 1.00000000 0.00000000
v 0.3650000 0.0650000 0.1100000
vn 0.00000000 1.00000000 0.00000000
f 181/181/181 182/182/182 183/183/183
v 0.4350000 0.0650000 0.0000000
vn 0.00000000 1.00000000 -0.00000000
v 0.3650000 0.0650000 0.1100000
vn 0.00000000 1.00000000 -0.00000000
v 0.4350000 0.0650000 0.1100000
vn 0.00000000 1.00000000 -0.00000000
f 184/184/184 185/185/185 186/186/186
v 0.3650000 0.0650000 0.0000000
vn -1.00000000 0.00000000 0.00000000
v 0.3650000 -0.0050000 0.0000000
vn -1.00000000 0.00000000 0.00000000
v 0.3650000 -0.0050000 0.1100000
vn -1.00000000 0.00000000 0.00000000
f 187/187/187 188/188/188 189/189/189
v 0.3650000 0.0650000 0.0000000
vn -1.00000000 0.00000000 0.00000000
v 0.3650000 -0.0050000 0.1100000
vn -1.00000000 0.00000000 0.00000000
v 0.3650000 0.0650000 0.1100000
vn -1.00000000 0.00000000 0.00000000
f 190/190/190 191/191/191 192/192/192
v 0.3650000 -0.0050000 0.1100000
vn 0.00000000 0.00000000 1.00000000
v 0.4350000 -0.0050000 0.1100000
vn 0.00000000 0.00000000 1.00000000
v 0.4350000 0.0650000 0.1100000
vn 0.00000000 0.00000000 1.00000000
f 193/193/193 194/194/194 195/195/195
v 0.3650000 -0.0050000 0.1100000
vn 0.00000000 0.00000000 1.00000000
v 0.4350000 0.0650000 0.1100000
vn 0.00000000 0.00000000 1.00000000
v 0.3650000 0.0650000 0.1100000
vn 0.00000000 0.00000000 1.00000000
f 196/196/196 197/197/197 198/198/198
