mtllib ../Materials/pz_window_wooden_broken.mtl
o pz_window_wooden_broken
usemtl UV_Base
v -0.30468750 0.45800000 0.88666432
vn -0.00000000 -1.00000000 -0.00000000
v 0.30468750 0.45800000 0.88666432
vn -0.00000000 -1.00000000 -0.00000000
v 0.27680085 0.45800000 0.90459509
vn -0.00000000 -1.00000000 -0.00000000
vt 0.500000000 0.007812500
vt 0.500000000 0.317146169
vt 0.490897902 0.302990223
vt 0.500000000 0.007812500
vt 0.490897902 0.302990223
vt 0.490897902 0.021968446
vt 0.007812500 0.335937500
vt 0.016914598 0.350093446
vt 0.016914598 0.631115223
vt 0.007812500 0.335937500
vt 0.016914598 0.631115223
vt 0.007812500 0.645271169
vt 0.007812500 0.821550467
vt 0.007812500 0.789062500
vt 0.317146169 0.789062500
vt 0.007812500 0.821550467
vt 0.317146169 0.789062500
vt 0.317146169 0.821550467
vt 0.007812500 0.863281250
vt 0.288834276 0.863281250
vt 0.288834276 0.895769217
vt 0.007812500 0.863281250
vt 0.288834276 0.895769217
vt 0.007812500 0.895769217
vt 0.500000000 0.317146169
vt 0.007812500 0.317146169
vt 0.016914598 0.302990223
vt 0.500000000 0.317146169
vt 0.016914598 0.302990223
vt 0.490897902 0.302990223
vt 0.007812500 0.645271169
vt 0.016914598 0.631115223
vt 0.490897902 0.631115223
vt 0.007812500 0.645271169
vt 0.490897902 0.631115223
vt 0.500000000 0.645271169
vt 0.500000000 0.664062500
vt 0.500000000 0.696550467
vt 0.007812500 0.696550467
vt 0.500000000 0.664062500
vt 0.007812500 0.696550467
vt 0.007812500 0.664062500
vt 0.518204196 0.664062500
vt 0.992187500 0.664062500
vt 0.992187500 0.696550467
vt 0.518204196 0.664062500
vt 0.992187500 0.696550467
vt 0.518204196 0.696550467
vt 0.007812500 0.317146169
vt 0.007812500 0.007812500
vt 0.016914598 0.021968446
vt 0.007812500 0.317146169
vt 0.016914598 0.021968446
vt 0.016914598 0.302990223
vt 0.500000000 0.645271169
vt 0.490897902 0.631115223
vt 0.490897902 0.350093446
vt 0.500000000 0.645271169
vt 0.490897902 0.350093446
vt 0.500000000 0.335937500
vt 0.645271169 0.789062500
vt 0.645271169 0.821550467
vt 0.335937500 0.821550467
vt 0.645271169 0.789062500
vt 0.335937500 0.821550467
vt 0.335937500 0.789062500
vt 0.585709276 0.895769217
vt 0.304687500 0.895769217
vt 0.304687500 0.863281250
vt 0.585709276 0.895769217
vt 0.304687500 0.863281250
vt 0.585709276 0.863281250
vt 0.007812500 0.007812500
vt 0.500000000 0.007812500
vt 0.490897902 0.021968446
vt 0.007812500 0.007812500
vt 0.490897902 0.021968446
vt 0.016914598 0.021968446
vt 0.500000000 0.335937500
vt 0.490897902 0.350093446
vt 0.016914598 0.350093446
vt 0.500000000 0.335937500
vt 0.016914598 0.350093446
vt 0.007812500 0.335937500
vt 0.500000000 0.714843750
vt 0.500000000 0.747331717
vt 0.007812500 0.747331717
vt 0.500000000 0.714843750
vt 0.007812500 0.747331717
vt 0.007812500 0.714843750
vt 0.518204196 0.714843750
vt 0.992187500 0.714843750
vt 0.992187500 0.747331717
vt 0.518204196 0.714843750
vt 0.992187500 0.747331717
vt 0.518204196 0.747331717
vt 0.664062500 0.792108247
vt 0.664062500 0.789062500
vt 0.947181456 0.789062500
vt 0.664062500 0.792108247
vt 0.947181456 0.789062500
vt 0.947181456 0.792108247
vt 0.007812500 0.839843750
vt 0.290931456 0.839843750
vt 0.290931456 0.842889497
vt 0.007812500 0.839843750
vt 0.290931456 0.842889497
vt 0.007812500 0.842889497
vt 0.992187500 0.007812500
vt 0.992187500 0.290931456
vt 0.516855737 0.290931456
vt 0.992187500 0.007812500
vt 0.516855737 0.290931456
vt 0.516855737 0.007812500
vt 0.484375000 0.765625000
vt 0.484375000 0.768670747
vt 0.009043237 0.768670747
vt 0.484375000 0.765625000
vt 0.009043237 0.768670747
vt 0.009043237 0.765625000
vt 0.516855737 0.619056456
vt 0.516855737 0.335937500
vt 0.992187500 0.335937500
vt 0.516855737 0.619056456
vt 0.992187500 0.335937500
vt 0.992187500 0.619056456
vt 0.501230737 0.768670747
vt 0.501230737 0.765625000
vt 0.976562500 0.765625000
vt 0.501230737 0.768670747
vt 0.976562500 0.765625000
vt 0.976562500 0.768670747
f 1/1/1 2/2/2 3/3/3
v -0.30468750 0.45800000 0.88666432
vn 0.00000000 -1.00000000 -0.00000000
v 0.27680085 0.45800000 0.90459509
vn 0.00000000 -1.00000000 -0.00000000
v -0.27680085 0.45800000 0.90459509
vn 0.00000000 -1.00000000 -0.00000000
f 4/4/4 5/5/5 6/6/6
v -0.30468750 0.52200000 0.88666432
vn 0.00000000 1.00000000 0.00000000
v -0.27680085 0.52200000 0.90459509
vn 0.00000000 1.00000000 0.00000000
v 0.27680085 0.52200000 0.90459509
vn 0.00000000 1.00000000 0.00000000
f 7/7/7 8/8/8 9/9/9
v -0.30468750 0.52200000 0.88666432
vn 0.00000000 1.00000000 0.00000000
v 0.27680085 0.52200000 0.90459509
vn 0.00000000 1.00000000 0.00000000
v 0.30468750 0.52200000 0.88666432
vn 0.00000000 1.00000000 0.00000000
f 10/10/10 11/11/11 12/12/12
v -0.30468750 0.45800000 0.88666432
vn -0.00000000 -0.00000000 -1.00000000
v -0.30468750 0.52200000 0.88666432
vn -0.00000000 -0.00000000 -1.00000000
v 0.30468750 0.52200000 0.88666432
vn -0.00000000 -0.00000000 -1.00000000
f 13/13/13 14/14/14 15/15/15
v -0.30468750 0.45800000 0.88666432
vn -0.00000000 0.00000000 -1.00000000
v 0.30468750 0.52200000 0.88666432
vn -0.00000000 0.00000000 -1.00000000
v 0.30468750 0.45800000 0.88666432
vn -0.00000000 0.00000000 -1.00000000
f 16/16/16 17/17/17 18/18/18
v -0.27680085 0.45800000 0.90459509
vn 0.00000000 0.00000000 1.00000000
v 0.27680085 0.45800000 0.90459509
vn 0.00000000 0.00000000 1.00000000
v 0.27680085 0.52200000 0.90459509
vn 0.00000000 0.00000000 1.00000000
f 19/19/19 20/20/20 21/21/21
v -0.27680085 0.45800000 0.90459509
vn -0.00000000 0.00000000 1.00000000
v 0.27680085 0.52200000 0.90459509
vn -0.00000000 0.00000000 1.00000000
v -0.27680085 0.52200000 0.90459509
vn -0.00000000 0.00000000 1.00000000
f 22/22/22 23/23/23 24/24/24
v 0.30468750 0.45800000 0.88666432
vn 0.00000000 -1.00000000 0.00000000
v 0.30468750 0.45800000 1.85625408
vn 0.00000000 -1.00000000 0.00000000
v 0.27680085 0.45800000 1.83832331
vn 0.00000000 -1.00000000 0.00000000
f 25/25/25 26/26/26 27/27/27
v 0.30468750 0.45800000 0.88666432
vn 0.00000000 -1.00000000 0.00000000
v 0.27680085 0.45800000 1.83832331
vn 0.00000000 -1.00000000 0.00000000
v 0.27680085 0.45800000 0.90459509
vn 0.00000000 -1.00000000 0.00000000
f 28/28/28 29/29/29 30/30/30
v 0.30468750 0.52200000 0.88666432
vn 0.00000000 1.00000000 0.00000000
v 0.27680085 0.52200000 0.90459509
vn 0.00000000 1.00000000 0.00000000
v 0.27680085 0.52200000 1.83832331
vn 0.00000000 1.00000000 0.00000000
f 31/31/31 32/32/32 33/33/33
v 0.30468750 0.52200000 0.88666432
vn 0.00000000 1.00000000 0.00000000
v 0.27680085 0.52200000 1.83832331
vn 0.00000000 1.00000000 0.00000000
v 0.30468750 0.52200000 1.85625408
vn 0.00000000 1.00000000 0.00000000
f 34/34/34 35/35/35 36/36/36
v 0.30468750 0.45800000 0.88666432
vn 1.00000000 0.00000000 0.00000000
v 0.30468750 0.52200000 0.88666432
vn 1.00000000 0.00000000 0.00000000
v 0.30468750 0.52200000 1.85625408
vn 1.00000000 0.00000000 0.00000000
f 37/37/37 38/38/38 39/39/39
v 0.30468750 0.45800000 0.88666432
vn 1.00000000 -0.00000000 0.00000000
v 0.30468750 0.52200000 1.85625408
vn 1.00000000 -0.00000000 0.00000000
v 0.30468750 0.45800000 1.85625408
vn 1.00000000 -0.00000000 0.00000000
f 40/40/40 41/41/41 42/42/42
v 0.27680085 0.45800000 0.90459509
vn -1.00000000 -0.00000000 -0.00000000
v 0.27680085 0.45800000 1.83832331
vn -1.00000000 -0.00000000 -0.00000000
v 0.27680085 0.52200000 1.83832331
vn -1.00000000 -0.00000000 -0.00000000
f 43/43/43 44/44/44 45/45/45
v 0.27680085 0.45800000 0.90459509
vn -1.00000000 -0.00000000 0.00000000
v 0.27680085 0.52200000 1.83832331
vn -1.00000000 -0.00000000 0.00000000
v 0.27680085 0.52200000 0.90459509
vn -1.00000000 -0.00000000 0.00000000
f 46/46/46 47/47/47 48/48/48
v 0.30468750 0.45800000 1.85625408
vn 0.00000000 -1.00000000 0.00000000
v -0.30468750 0.45800000 1.85625408
vn 0.00000000 -1.00000000 0.00000000
v -0.27680085 0.45800000 1.83832331
vn 0.00000000 -1.00000000 0.00000000
f 49/49/49 50/50/50 51/51/51
v 0.30468750 0.45800000 1.85625408
vn 0.00000000 -1.00000000 0.00000000
v -0.27680085 0.45800000 1.83832331
vn 0.00000000 -1.00000000 0.00000000
v 0.27680085 0.45800000 1.83832331
vn 0.00000000 -1.00000000 0.00000000
f 52/52/52 53/53/53 54/54/54
v 0.30468750 0.52200000 1.85625408
vn 0.00000000 1.00000000 0.00000000
v 0.27680085 0.52200000 1.83832331
vn 0.00000000 1.00000000 0.00000000
v -0.27680085 0.52200000 1.83832331
vn 0.00000000 1.00000000 0.00000000
f 55/55/55 56/56/56 57/57/57
v 0.30468750 0.52200000 1.85625408
vn -0.00000000 1.00000000 0.00000000
v -0.27680085 0.52200000 1.83832331
vn -0.00000000 1.00000000 0.00000000
v -0.30468750 0.52200000 1.85625408
vn -0.00000000 1.00000000 0.00000000
f 58/58/58 59/59/59 60/60/60
v 0.30468750 0.45800000 1.85625408
vn -0.00000000 0.00000000 1.00000000
v 0.30468750 0.52200000 1.85625408
vn -0.00000000 0.00000000 1.00000000
v -0.30468750 0.52200000 1.85625408
vn -0.00000000 0.00000000 1.00000000
f 61/61/61 62/62/62 63/63/63
v 0.30468750 0.45800000 1.85625408
vn -0.00000000 0.00000000 1.00000000
v -0.30468750 0.52200000 1.85625408
vn -0.00000000 0.00000000 1.00000000
v -0.30468750 0.45800000 1.85625408
vn -0.00000000 0.00000000 1.00000000
f 64/64/64 65/65/65 66/66/66
v 0.27680085 0.45800000 1.83832331
vn 0.00000000 0.00000000 -1.00000000
v -0.27680085 0.45800000 1.83832331
vn 0.00000000 0.00000000 -1.00000000
v -0.27680085 0.52200000 1.83832331
vn 0.00000000 0.00000000 -1.00000000
f 67/67/67 68/68/68 69/69/69
v 0.27680085 0.45800000 1.83832331
vn -0.00000000 -0.00000000 -1.00000000
v -0.27680085 0.52200000 1.83832331
vn -0.00000000 -0.00000000 -1.00000000
v 0.27680085 0.52200000 1.83832331
vn -0.00000000 -0.00000000 -1.00000000
f 70/70/70 71/71/71 72/72/72
v -0.30468750 0.45800000 1.85625408
vn -0.00000000 -1.00000000 0.00000000
v -0.30468750 0.45800000 0.88666432
vn -0.00000000 -1.00000000 0.00000000
v -0.27680085 0.45800000 0.90459509
vn -0.00000000 -1.00000000 0.00000000
f 73/73/73 74/74/74 75/75/75
v -0.30468750 0.45800000 1.85625408
vn -0.00000000 -1.00000000 -0.00000000
v -0.27680085 0.45800000 0.90459509
vn -0.00000000 -1.00000000 -0.00000000
v -0.27680085 0.45800000 1.83832331
vn -0.00000000 -1.00000000 -0.00000000
f 76/76/76 77/77/77 78/78/78
v -0.30468750 0.52200000 1.85625408
vn 0.00000000 1.00000000 -0.00000000
v -0.27680085 0.52200000 1.83832331
vn 0.00000000 1.00000000 -0.00000000
v -0.27680085 0.52200000 0.90459509
vn 0.00000000 1.00000000 -0.00000000
f 79/79/79 80/80/80 81/81/81
v -0.30468750 0.52200000 1.85625408
vn 0.00000000 1.00000000 -0.00000000
v -0.27680085 0.52200000 0.90459509
vn 0.00000000 1.00000000 -0.00000000
v -0.30468750 0.52200000 0.88666432
vn 0.00000000 1.00000000 -0.00000000
f 82/82/82 83/83/83 84/84/84
v -0.30468750 0.45800000 1.85625408
vn -1.00000000 0.00000000 0.00000000
v -0.30468750 0.52200000 1.85625408
vn -1.00000000 0.00000000 0.00000000
v -0.30468750 0.52200000 0.88666432
vn -1.00000000 0.00000000 0.00000000
f 85/85/85 86/86/86 87/87/87
v -0.30468750 0.45800000 1.85625408
vn -1.00000000 0.00000000 0.00000000
v -0.30468750 0.52200000 0.88666432
vn -1.00000000 0.00000000 0.00000000
v -0.30468750 0.45800000 0.88666432
vn -1.00000000 0.00000000 0.00000000
f 88/88/88 89/89/89 90/90/90
v -0.27680085 0.45800000 1.83832331
vn 1.00000000 0.00000000 -0.00000000
v -0.27680085 0.45800000 0.90459509
vn 1.00000000 0.00000000 -0.00000000
v -0.27680085 0.52200000 0.90459509
vn 1.00000000 0.00000000 -0.00000000
f 91/91/91 92/92/92 93/93/93
v -0.27680085 0.45800000 1.83832331
vn 1.00000000 0.00000000 0.00000000
v -0.27680085 0.52200000 0.90459509
vn 1.00000000 0.00000000 0.00000000
v -0.27680085 0.52200000 1.83832331
vn 1.00000000 0.00000000 0.00000000
f 94/94/94 95/95/95 96/96/96
usemtl UV_Base
v -0.27886653 0.47700000 0.90326689
vn 0.00000000 0.00000000 -1.00000000
v -0.27886653 0.48300000 0.90326689
vn 0.00000000 0.00000000 -1.00000000
v 0.27886653 0.48300000 0.90326689
vn 0.00000000 0.00000000 -1.00000000
f 97/97/97 98/98/98 99/99/99
v -0.27886653 0.47700000 0.90326689
vn 0.00000000 0.00000000 -1.00000000
v 0.27886653 0.48300000 0.90326689
vn 0.00000000 0.00000000 -1.00000000
v 0.27886653 0.47700000 0.90326689
vn 0.00000000 0.00000000 -1.00000000
f 100/100/100 101/101/101 102/102/102
v -0.27886653 0.47700000 1.83965152
vn 0.00000000 0.00000000 1.00000000
v 0.27886653 0.47700000 1.83965152
vn 0.00000000 0.00000000 1.00000000
v 0.27886653 0.48300000 1.83965152
vn 0.00000000 0.00000000 1.00000000
f 103/103/103 104/104/104 105/105/105
v -0.27886653 0.47700000 1.83965152
vn 0.00000000 0.00000000 1.00000000
v 0.27886653 0.48300000 1.83965152
vn 0.00000000 0.00000000 1.00000000
v -0.27886653 0.48300000 1.83965152
vn 0.00000000 0.00000000 1.00000000
f 106/106/106 107/107/107 108/108/108
v -0.27886653 0.47700000 0.90326689
vn 0.00000000 -1.00000000 0.00000000
v 0.27886653 0.47700000 0.90326689
vn 0.00000000 -1.00000000 0.00000000
v 0.27886653 0.47700000 1.83965152
vn 0.00000000 -1.00000000 0.00000000
f 109/109/109 110/110/110 111/111/111
v -0.27886653 0.47700000 0.90326689
vn 0.00000000 -1.00000000 0.00000000
v 0.27886653 0.47700000 1.83965152
vn 0.00000000 -1.00000000 0.00000000
v -0.27886653 0.47700000 1.83965152
vn 0.00000000 -1.00000000 0.00000000
f 112/112/112 113/113/113 114/114/114
v 0.27886653 0.47700000 0.90326689
vn 1.00000000 0.00000000 0.00000000
v 0.27886653 0.48300000 0.90326689
vn 1.00000000 0.00000000 0.00000000
v 0.27886653 0.48300000 1.83965152
vn 1.00000000 0.00000000 0.00000000
f 115/115/115 116/116/116 117/117/117
v 0.27886653 0.47700000 0.90326689
vn 1.00000000 0.00000000 0.00000000
v 0.27886653 0.48300000 1.83965152
vn 1.00000000 0.00000000 0.00000000
v 0.27886653 0.47700000 1.83965152
vn 1.00000000 0.00000000 0.00000000
f 118/118/118 119/119/119 120/120/120
v 0.27886653 0.48300000 0.90326689
vn 0.00000000 1.00000000 0.00000000
v -0.27886653 0.48300000 0.90326689
vn 0.00000000 1.00000000 0.00000000
v -0.27886653 0.48300000 1.83965152
vn 0.00000000 1.00000000 0.00000000
f 121/121/121 122/122/122 123/123/123
v 0.27886653 0.48300000 0.90326689
vn 0.00000000 1.00000000 -0.00000000
v -0.27886653 0.48300000 1.83965152
vn 0.00000000 1.00000000 -0.00000000
v 0.27886653 0.48300000 1.83965152
vn 0.00000000 1.00000000 -0.00000000
f 124/124/124 125/125/125 126/126/126
v -0.27886653 0.48300000 0.90326689
vn -1.00000000 0.00000000 0.00000000
v -0.27886653 0.47700000 0.90326689
vn -1.00000000 0.00000000 0.00000000
v -0.27886653 0.47700000 1.83965152
vn -1.00000000 0.00000000 0.00000000
f 127/127/127 128/128/128 129/129/129
v -0.27886653 0.48300000 0.90326689
vn -1.00000000 0.00000000 0.00000000
v -0.27886653 0.47700000 1.83965152
vn -1.00000000 0.00000000 0.00000000
v -0.27886653 0.48300000 1.83965152
vn -1.00000000 0.00000000 0.00000000
f 130/130/130 131/131/131 132/132/132
