# Authored in live Blender MCP. Native sprite faces. Tile units, Z up.
mtllib ../Materials/pz_wall_shelf_white.mtl
usemtl UV_Base
v -0.5000000 0.4600000 1.4000000
vn 0.0000000 0.0000000 -1.0000000
v 0.5000000 0.4600000 1.4000000
vn 0.0000000 0.0000000 -1.0000000
v 0.5000000 0.1000000 1.4000000
vn 0.0000000 0.0000000 -1.0000000
vt 0.007812500 0.007812500
vt 0.992187500 0.007812500
vt 0.992187500 0.362187500
vt 0.007812500 0.007812500
vt 0.992187500 0.362187500
vt 0.007812500 0.362187500
vt 0.007812500 0.378906250
vt 0.992187500 0.378906250
vt 0.992187500 0.733281250
vt 0.007812500 0.378906250
vt 0.992187500 0.733281250
vt 0.007812500 0.733281250
vt 0.007812500 0.750000000
vt 0.992187500 0.750000000
vt 0.992187500 0.804140625
vt 0.007812500 0.750000000
vt 0.992187500 0.804140625
vt 0.007812500 0.804140625
vt 0.007812500 0.890625000
vt 0.362187500 0.890625000
vt 0.362187500 0.944765625
vt 0.007812500 0.890625000
vt 0.362187500 0.944765625
vt 0.007812500 0.944765625
vt 0.992187500 0.874453125
vt 0.007812500 0.874453125
vt 0.007812500 0.820312500
vt 0.992187500 0.874453125
vt 0.007812500 0.820312500
vt 0.992187500 0.820312500
vt 0.733281250 0.944765625
vt 0.378906250 0.944765625
vt 0.378906250 0.890625000
vt 0.733281250 0.944765625
vt 0.378906250 0.890625000
vt 0.733281250 0.890625000
f 1/1/1 2/2/2 3/3/3
v -0.5000000 0.4600000 1.4000000
vn 0.0000000 0.0000000 -1.0000000
v 0.5000000 0.1000000 1.4000000
vn 0.0000000 0.0000000 -1.0000000
v -0.5000000 0.1000000 1.4000000
vn 0.0000000 0.0000000 -1.0000000
f 4/4/4 5/5/5 6/6/6
v -0.5000000 0.1000000 1.4550000
vn 0.0000000 0.0000000 1.0000000
v 0.5000000 0.1000000 1.4550000
vn 0.0000000 0.0000000 1.0000000
v 0.5000000 0.4600000 1.4550000
vn 0.0000000 0.0000000 1.0000000
f 7/7/7 8/8/8 9/9/9
v -0.5000000 0.1000000 1.4550000
vn -0.0000000 0.0000000 1.0000000
v 0.5000000 0.4600000 1.4550000
vn -0.0000000 0.0000000 1.0000000
v -0.5000000 0.4600000 1.4550000
vn -0.0000000 0.0000000 1.0000000
f 10/10/10 11/11/11 12/12/12
v -0.5000000 0.1000000 1.4000000
vn -0.0000000 -1.0000000 -0.0000000
v 0.5000000 0.1000000 1.4000000
vn -0.0000000 -1.0000000 -0.0000000
v 0.5000000 0.1000000 1.4550000
vn -0.0000000 -1.0000000 -0.0000000
f 13/13/13 14/14/14 15/15/15
v -0.5000000 0.1000000 1.4000000
vn 0.0000000 -1.0000000 -0.0000000
v 0.5000000 0.1000000 1.4550000
vn 0.0000000 -1.0000000 -0.0000000
v -0.5000000 0.1000000 1.4550000
vn 0.0000000 -1.0000000 -0.0000000
f 16/16/16 17/17/17 18/18/18
v 0.5000000 0.1000000 1.4000000
vn 1.0000000 0.0000000 0.0000000
v 0.5000000 0.4600000 1.4000000
vn 1.0000000 0.0000000 0.0000000
v 0.5000000 0.4600000 1.4550000
vn 1.0000000 0.0000000 0.0000000
f 19/19/19 20/20/20 21/21/21
v 0.5000000 0.1000000 1.4000000
vn 1.0000000 -0.0000000 0.0000000
v 0.5000000 0.4600000 1.4550000
vn 1.0000000 -0.0000000 0.0000000
v 0.5000000 0.1000000 1.4550000
vn 1.0000000 -0.0000000 0.0000000
f 22/22/22 23/23/23 24/24/24
v 0.5000000 0.4600000 1.4000000
vn -0.0000000 1.0000000 0.0000000
v -0.5000000 0.4600000 1.4000000
vn -0.0000000 1.0000000 0.0000000
v -0.5000000 0.4600000 1.4550000
vn -0.0000000 1.0000000 0.0000000
f 25/25/25 26/26/26 27/27/27
v 0.5000000 0.4600000 1.4000000
vn 0.0000000 1.0000000 0.0000000
v -0.5000000 0.4600000 1.4550000
vn 0.0000000 1.0000000 0.0000000
v 0.5000000 0.4600000 1.4550000
vn 0.0000000 1.0000000 0.0000000
f 28/28/28 29/29/29 30/30/30
v -0.5000000 0.4600000 1.4000000
vn -1.0000000 0.0000000 0.0000000
v -0.5000000 0.1000000 1.4000000
vn -1.0000000 0.0000000 0.0000000
v -0.5000000 0.1000000 1.4550000
vn -1.0000000 0.0000000 0.0000000
f 31/31/31 32/32/32 33/33/33
v -0.5000000 0.4600000 1.4000000
vn -1.0000000 -0.0000000 -0.0000000
v -0.5000000 0.1000000 1.4550000
vn -1.0000000 -0.0000000 -0.0000000
v -0.5000000 0.4600000 1.4550000
vn -1.0000000 -0.0000000 -0.0000000
f 34/34/34 35/35/35 36/36/36
